<?xml version="1.0" encoding="UTF-8" standalone="no"?>
<!DOCTYPE svg PUBLIC "-//W3C//DTD SVG 1.1//EN" "http://www.w3.org/Graphics/SVG/1.1/DTD/svg11.dtd">
<svg width="100%" height="100%" viewBox="0 0 1000 1000" version="1.1" xmlns="http://www.w3.org/2000/svg" xmlns:xlink="http://www.w3.org/1999/xlink" xml:space="preserve" xmlns:serif="http://www.serif.com/" style="fill-rule:evenodd;clip-rule:evenodd;stroke-linejoin:round;stroke-miterlimit:2;">
    <g transform="matrix(9.375,0,0,9.375,-3568.75,-6226.56)">
        <path d="M409.25,687C422.082,687 432.5,700.667 432.5,717.5C432.5,734.333 422.082,748 409.25,748C396.418,748 386,734.333 386,717.5C386,700.667 396.418,687 409.25,687ZM458.75,687C445.918,687 435.5,700.667 435.5,717.5C435.5,734.333 445.918,748 458.75,748C471.582,748 482,734.333 482,717.5C482,700.667 471.582,687 458.75,687ZM415.31,704.373C417.074,704.048 418.69,704.455 419.603,705.296C421.038,706.617 422.088,707.94 422.766,709.27C425.371,713.808 423.887,718.372 417.978,723.348C416.405,724.672 414.507,727.785 413.198,731.103C412.917,731.985 412.655,732.886 412.412,733.778L412.358,733.978C412.329,733.937 412.3,733.895 412.27,733.854C412.257,733.903 412.244,733.951 412.231,734L412.112,733.83C411.58,733.074 411.027,732.316 410.462,731.582C408.103,728.908 405.26,726.626 403.33,725.915C396.081,723.246 393.133,719.459 394.039,714.305C394.224,712.824 394.762,711.223 395.662,709.493C396.235,708.391 397.615,707.459 399.385,707.165C401.94,706.692 405.346,707.556 408.303,711.219C409.837,706.768 412.747,704.797 415.31,704.373ZM452.69,704.373C450.926,704.048 449.31,704.455 448.397,705.296C446.962,706.617 445.912,707.94 445.234,709.27C442.629,713.808 444.113,718.372 450.022,723.348C451.595,724.672 453.493,727.785 454.802,731.103C455.083,731.985 455.345,732.886 455.588,733.778L455.642,733.978C455.671,733.937 455.7,733.895 455.73,733.854C455.743,733.903 455.756,733.951 455.769,734L455.888,733.83C456.42,733.074 456.973,732.316 457.538,731.582C459.897,728.908 462.74,726.626 464.67,725.915C471.919,723.246 474.867,719.459 473.961,714.305C473.776,712.824 473.238,711.223 472.338,709.493C471.765,708.391 470.385,707.459 468.615,707.165C466.06,706.692 462.654,707.556 459.697,711.219C458.163,706.768 455.253,704.797 452.69,704.373Z" style="fill:white;"/>
    </g>
</svg>
