<?xml version="1.0" encoding="UTF-8" standalone="no"?>
<!DOCTYPE svg PUBLIC "-//W3C//DTD SVG 1.1//EN" "http://www.w3.org/Graphics/SVG/1.1/DTD/svg11.dtd">
<svg width="100%" height="100%" viewBox="0 0 1000 1000" version="1.1" xmlns="http://www.w3.org/2000/svg" xmlns:xlink="http://www.w3.org/1999/xlink" xml:space="preserve" xmlns:serif="http://www.serif.com/" style="fill-rule:evenodd;clip-rule:evenodd;stroke-linejoin:round;stroke-miterlimit:2;">
    <g transform="matrix(3.21429,0,0,3.21429,-914.286,-473.929)">
        <path d="M440,163C517.268,163 580,225.732 580,303C580,380.268 517.268,443 440,443C362.732,443 300,380.268 300,303C300,225.732 362.732,163 440,163ZM485.043,407.644C458.238,409.378 429.555,402.172 397.754,380.178C370.415,381.456 356.897,389.344 343.35,397.216C367.876,422.371 402.127,438 440,438C448.028,438 455.893,437.298 463.531,435.952C470.609,429.907 478.064,419.954 485.043,407.644ZM468.616,434.956C497.601,428.69 523.135,413.103 541.919,391.493C525,399.549 507.626,405.44 489.402,407.283C482.907,418.704 475.818,428.315 468.616,434.956ZM409.736,231.735C408.162,239.325 406.414,247.149 403.856,255C393.855,285.698 389.018,308.265 387.605,325.188C396.622,332.607 409.629,343.057 425,353.637C441.282,364.844 465.044,364.144 490,363.809C494.771,363.745 499.59,363.464 504.455,362.969C516.421,326.208 520.819,285.28 506.5,260.5L506.689,260.502C474.526,248.309 442.28,237.544 409.736,231.735ZM549.414,223.945C532.786,232.831 520.32,245.668 510,260.543C524.655,282.29 520.962,324.151 508.709,362.485C527.779,360.078 547.57,354.451 568.054,345.827C572.559,332.372 575,317.969 575,303C575,273.488 565.51,246.175 549.414,223.945ZM360.968,227.185C352.903,253.03 353.676,277.482 351.55,305C350.315,320.992 344.926,338.239 344.991,349.985C335.499,352.301 326.135,355.158 316.853,358.357C309.238,341.463 305,322.722 305,303C305,276.005 312.94,250.85 326.609,229.748C338.116,227.988 349.566,227.183 360.968,227.185ZM547.894,221.887C525.132,191.665 489.97,171.295 450,168.366C435.86,173.208 423.996,183.709 417.736,200C414.419,208.633 412.498,218.245 410.436,228.332C442.116,233.94 475.181,244.418 508.761,257.516C519.352,242.733 531.086,229.304 547.894,221.887ZM362.056,223.851C350.635,223.885 339.481,224.794 328.64,226.703C343.094,205.658 363.355,188.909 387.103,178.773C374.621,194.776 366.924,209.552 362.056,223.851Z" style="fill:white;"/>
    </g>
</svg>
