<?xml version="1.0" encoding="UTF-8" standalone="no"?>
<!DOCTYPE svg PUBLIC "-//W3C//DTD SVG 1.1//EN" "http://www.w3.org/Graphics/SVG/1.1/DTD/svg11.dtd">
<svg width="100%" height="100%" viewBox="0 0 1000 1000" version="1.1" xmlns="http://www.w3.org/2000/svg" xmlns:xlink="http://www.w3.org/1999/xlink" xml:space="preserve" xmlns:serif="http://www.serif.com/" style="fill-rule:evenodd;clip-rule:evenodd;stroke-linejoin:round;stroke-miterlimit:2;">
    <g transform="matrix(1.45575,0,0,1.45575,-242.961,-184.451)">
        <path d="M405.418,620C401.548,618.213 399.205,620.829 397,623.891C395.196,626.396 390.432,622.275 386.958,622.945C370.808,626.061 377.575,643.562 390,657.428C384.881,676.597 393.155,673.756 412.138,653.314C414.316,650.968 413.413,647.105 412,644C417.206,639.646 419.854,633.885 415,624C435.811,588.476 441.239,570.392 439,561C453.434,540.306 461.318,529.864 465,526C527.336,511.548 521.715,461.211 512.11,450C507.501,444.621 494.968,443.665 471.489,448.817C469.262,445.569 467.077,443.608 465,445C464.89,443.066 464.493,441.476 464,440C469.096,437.478 470.535,430.74 466,423C462.759,417.468 459.378,399.826 453,382.158C451.138,377 446.552,374.736 442,375C442.46,373.333 442.455,371.667 442.341,370L456,361C492.582,366.94 532.299,365.173 570,377.614C687.457,416.376 734.421,427.134 745.886,420C749.766,417.586 734.703,407.071 711,394C718.724,402.921 721.222,408.847 716.462,410.837C707.38,414.634 669.024,410.272 595.831,372.71C560.161,354.404 524.999,342.566 494.662,330C698.021,384.803 810.052,376.99 819.11,352.331C822.63,342.747 800.416,326.035 780,324.004C765.001,322.512 749.37,327.608 730,336.523C752.226,333.897 781.723,352.525 780,354.128C759.901,372.832 716.988,372.479 600,322.033C541.169,296.665 482.918,273.655 444.163,270C440.105,277.528 437.891,285.247 436,293C434.264,294.038 433.179,295.337 433,297C425.365,297.706 418.768,299.441 413,302C407.445,301.392 402.515,301.168 398,299.368C393.526,297.584 390.017,302.511 389,308C375.677,314.93 376.063,334.154 378,343.444C379.539,350.823 384.943,356.459 395,360C393.207,363.612 392,367.856 393.811,371C396.347,375.399 400.111,380.695 404,383.233C407.791,385.708 413.98,384.586 421,383C408.25,399.38 398.709,415.451 405,430C404.938,433.667 405.366,437.333 406,441C403.848,445.678 403.732,451.254 404,457C402.143,463.275 400.952,469.624 400,476C394.569,474.804 390.138,477.428 387,485C385.333,485.569 382.809,486.838 383.709,488C386.253,491.282 386.545,496.14 384.871,499C382.98,502.23 390.046,503.656 397,502C388.4,513.01 386.665,519.205 385.5,525C373.864,524.611 364.404,532.657 356.639,547.271C346.122,555.828 335.676,564.361 322,574C319.752,575.411 316.314,576.368 311,576.612C307.313,576.781 302.55,574.327 297,576C294.087,575.467 292.321,573.544 292,569.739C291.691,566.086 287.446,565.09 287,565.882C283.578,571.97 282.751,589.873 294,592C293.325,594.667 293.54,597.333 294,600C286.882,600.544 287.12,604.03 289.171,606C290.027,606.823 292.355,607.331 297,607C302.641,607.551 307.533,606.396 311,602C320.061,598.486 328.716,594.634 328,583C336.783,577.626 344.969,571.646 352.5,565C365.034,560.722 370.991,553.851 377,547C393.858,538.41 406.97,528.846 419,519L432,515C428.802,524.447 426.222,533.812 425,543C418.422,553.123 418.469,565.488 418,579C414.186,593.054 410.205,606.938 405.418,620ZM600,501.817C601.764,504.331 602.665,507.333 601.5,511.5C603.57,516.167 603.622,520.833 600.5,525.5C600.293,530.586 598.94,535.329 594,539C619.964,554.056 649.711,566.054 682,576C699.977,560.461 709.939,538.874 697,500C669.988,493.563 641.959,488.472 600,501.817ZM588,525C588.207,527.667 587.72,530.333 587,533C584.333,533.33 581.667,533.219 579,533C581.706,539.13 585.843,540.276 592,534C595.669,532.276 596.728,528.754 596,524C600.073,519.94 599.39,515.956 597,512C598.9,508.281 598.154,505.646 595,504C591.521,499.211 588.544,496.998 586,497.02C583.154,497.044 578.203,499.676 579,505C582.565,505.381 586.164,505.969 590,508C590.077,509.393 590.151,510.786 589,512.515C589.978,514.081 590.819,515.91 591,519C590.542,521.179 589.644,523.213 588,525ZM565,509C565.982,515.182 565.045,521.188 562,527C569.072,529.551 576.439,530.353 584,530C584.46,527.592 584.49,525.566 584,524C586.032,522.273 587.16,520.193 588,518C587.723,516.275 586.98,515.019 586,514C586.89,513.166 587.158,511.774 587,510C584.587,507.815 582.288,507.324 580,507C574.596,506.435 569.543,506.938 565,509ZM509.298,504.03C507.754,507.943 504.067,510.305 500,513L560,521C561.666,518.517 562.249,515.614 561,512L509.298,504.03ZM380,488.344C382.102,491.666 382.01,494.86 381,498L205.033,475.942C198.808,474.505 200.783,463.441 207.112,464.319L380,488.344Z" style="fill:white;"/>
    </g>
</svg>
