<?xml version="1.0" encoding="UTF-8" standalone="no"?>
<!DOCTYPE svg PUBLIC "-//W3C//DTD SVG 1.1//EN" "http://www.w3.org/Graphics/SVG/1.1/DTD/svg11.dtd">
<svg width="100%" height="100%" viewBox="0 0 1000 1000" version="1.1" xmlns="http://www.w3.org/2000/svg" xmlns:xlink="http://www.w3.org/1999/xlink" xml:space="preserve" xmlns:serif="http://www.serif.com/" style="fill-rule:evenodd;clip-rule:evenodd;stroke-linejoin:round;stroke-miterlimit:2;">
    <path d="M50,652.889C80.798,575.009 154.775,519.125 189.779,527.169C205.153,530.702 232.399,544.059 225.722,581.64C260.366,597.181 252.214,641.313 236.441,652.889C210.114,672.211 164.458,647.572 121.886,633.285C100.395,626.072 79.407,629.71 50,652.889ZM838.154,542.916C838.664,489.118 830.391,458.22 821.089,421.746C809.236,375.273 842.1,343.335 860.873,340.361C873.857,338.304 903.78,343.728 910.098,391.454C948.067,402.883 949.908,434.705 949.999,452.039C950.202,490.465 898.096,542.805 838.154,542.916Z" style="fill:white;"/>
</svg>
