<?xml version="1.0" encoding="UTF-8" standalone="no"?>
<!DOCTYPE svg PUBLIC "-//W3C//DTD SVG 1.1//EN" "http://www.w3.org/Graphics/SVG/1.1/DTD/svg11.dtd">
<svg width="100%" height="100%" viewBox="0 0 1000 1000" version="1.1" xmlns="http://www.w3.org/2000/svg" xmlns:xlink="http://www.w3.org/1999/xlink" xml:space="preserve" xmlns:serif="http://www.serif.com/" style="fill-rule:evenodd;clip-rule:evenodd;stroke-linejoin:round;stroke-miterlimit:2;">
    <g transform="matrix(0.971992,0,0,0.971992,14.0041,14.0041)">
        <path d="M242.967,863.041C235.137,860.155 230.651,853.818 230.736,842.763L439.103,343.433C444.805,326.734 452.042,315.295 461.473,311.384L593.407,221.593L620.372,156.974C614.046,155.953 610.657,152.591 611.074,146.197L642.942,69.829L760.431,118.856L728.563,195.224C724.312,200.018 719.539,199.974 714.363,196.196L687.398,260.815L716.374,417.752C720.228,427.207 717.187,440.397 709.328,456.196L500.962,955.526C493.163,963.363 485.504,964.631 477.945,961.095L242.967,863.041ZM473.069,923.194L654.47,488.484C661.105,453.878 643.255,420.25 579.866,388.44L579.118,388.066C511.414,365.029 474.747,375.966 454.738,405.137L273.337,839.848L473.069,923.194ZM289.989,833.001L466.487,410.04C489.289,382.181 525.859,380.007 574.215,399.815L575.338,400.295C622.683,420.684 646.456,448.058 642.721,483.581L466.223,906.542L289.989,833.001ZM436.195,731.109L434.921,749.641L452.725,757.071L434.134,761.095L432.86,779.627L422.644,763.582L404.054,767.607L416.331,753.666L406.115,737.621L423.918,745.05L436.195,731.109ZM658.317,69.347L663.525,37.033L769.265,81.158L749.959,107.588L658.317,69.347Z" style="fill:white;"/>
    </g>
</svg>
