<?xml version="1.0" encoding="UTF-8" standalone="no"?>
<!DOCTYPE svg PUBLIC "-//W3C//DTD SVG 1.1//EN" "http://www.w3.org/Graphics/SVG/1.1/DTD/svg11.dtd">
<svg width="100%" height="100%" viewBox="0 0 1000 1000" version="1.1" xmlns="http://www.w3.org/2000/svg" xmlns:xlink="http://www.w3.org/1999/xlink" xml:space="preserve" xmlns:serif="http://www.serif.com/" style="fill-rule:evenodd;clip-rule:evenodd;stroke-linejoin:round;stroke-miterlimit:2;">
    <g transform="matrix(1.05362,0,0,1.05362,-26.5605,-25.994)">
        <path d="M553.987,207.038L435.96,206.601L286.749,707.322L287.075,227.678L314.692,207.331L72.664,207.112L95.62,227.475L95.349,743.715L164.233,791.32L840.447,791.85L903.601,743.622L903.849,226.407L926.862,207.267L684.616,207.077L710.23,229.835L709.589,697.589L553.987,207.038ZM550.407,528.746L369.909,529.264L305.754,749.352L625.506,749.48L550.407,528.746ZM537.954,486.188L381.073,486.323L451.907,243.551L537.954,486.188Z" style="fill:white;"/>
    </g>
</svg>
