<?xml version="1.0" encoding="UTF-8" standalone="no"?>
<!DOCTYPE svg PUBLIC "-//W3C//DTD SVG 1.1//EN" "http://www.w3.org/Graphics/SVG/1.1/DTD/svg11.dtd">
<svg width="100%" height="100%" viewBox="0 0 1000 1000" version="1.1" xmlns="http://www.w3.org/2000/svg" xmlns:xlink="http://www.w3.org/1999/xlink" xml:space="preserve" xmlns:serif="http://www.serif.com/" style="fill-rule:evenodd;clip-rule:evenodd;stroke-linejoin:round;stroke-miterlimit:2;">
    <g transform="matrix(4.92969,0,0,4.92969,-1941.6,-2313.82)">
        <path d="M510,540C513.429,548.231 521.399,547.285 533,539C525.696,554.797 518.387,565.177 510,569.526C487.877,580.996 463.791,572.951 453,554.956C446.054,543.374 439.529,536.535 434,534C439.188,540.928 443.171,547.572 442,553C433.694,538.982 422.941,527.184 406,521C421.864,532.822 431.97,544.809 435,557C427.056,544.228 416.456,537.131 404,534C418.576,543.673 428.653,555.223 431,570C426.657,562.46 420.363,555.933 411,551C420.103,564.059 425.047,572.968 427,577.664C435.558,598.241 447.444,610.365 461,615.395C507.044,632.481 566.97,606.137 564,554L575,553.5L575,557L577,553L581,552L578,551.5C586.868,548.349 587.351,539.945 586,531C578.234,534.55 573.566,541.045 576,551L564,550C560.292,526.715 547.127,527.373 532,533C524.089,541.751 516.913,542.341 510,540ZM550.5,538.5C552.984,538.5 555,540.516 555,543C555,545.484 552.984,547.5 550.5,547.5C548.016,547.5 546,545.484 546,543C546,540.516 548.016,538.5 550.5,538.5Z" style="fill:white;"/>
    </g>
</svg>
