<?xml version="1.0" encoding="UTF-8" standalone="no"?>
<!DOCTYPE svg PUBLIC "-//W3C//DTD SVG 1.1//EN" "http://www.w3.org/Graphics/SVG/1.1/DTD/svg11.dtd">
<svg width="100%" height="100%" viewBox="0 0 1000 1000" version="1.1" xmlns="http://www.w3.org/2000/svg" xmlns:xlink="http://www.w3.org/1999/xlink" xml:space="preserve" xmlns:serif="http://www.serif.com/" style="fill-rule:evenodd;clip-rule:evenodd;stroke-linejoin:round;stroke-miterlimit:2;">
    <g transform="matrix(1.06347,0,0,1.06347,-15.455,-41.3915)">
        <path d="M592.951,172.073C599.108,153.154 605.691,139.073 612.291,129.938C628.075,108.089 653.408,99.91 680,100.772C704.391,101.564 729.578,112.471 757,155C812.626,163 826.334,194.703 816,240C819.059,206.892 813.846,177.372 776,162C798.113,180.273 799.99,204.685 789,233C792.758,198.025 790.081,167.606 758,158C767.117,201.958 751.073,219.093 732,233C742.773,221.421 752.12,208.977 754,192C746.172,214.172 733.982,221.44 721,226C727.149,220.853 729.926,215.525 729,210C712.549,219.569 715.095,226.383 719,233C714.779,236.68 710.921,239.653 707.353,242.059C736.16,267.393 761.206,296.902 781.538,329.636C783.652,327.94 785.635,326.391 787.547,325C796.831,318.246 804.761,314.502 810,313C824.852,312.18 833.009,318.022 835,330C836.321,365.262 831.74,397.466 825.438,429.146C828.536,440.139 831.164,451.329 833.298,462.696C857.064,464.549 867.273,486.888 873,516C889.423,587.374 896.086,652.186 905,709.037C911.856,752.764 904.415,825.413 902.173,824C898.598,828.985 893.599,852.096 896.092,855.444C901.419,862.856 898.868,865.602 888,860C882.055,853.282 877.128,845.705 880.653,831C883.038,813.448 879.988,797.82 869,785C858.24,774.695 862.567,764.359 878,754C882.627,744.37 884.347,732.827 879,715C876.168,703.317 874.781,691.144 870.246,680C858.034,649.995 849.841,623.021 838.53,599C837.526,596.868 836.608,594.732 835.769,592.594C808.725,775.007 655.168,916.415 467.302,924.622C473.579,923.407 480.149,922.021 486.866,920.483C669.822,899.604 814.269,751.056 828.795,566.246C826.041,548.901 826.228,531.838 825,516C818.26,517.042 811.584,519.796 805,525C800.806,527.941 800.205,532.07 799,536C785.122,615.095 749.354,677.757 713,727C710.047,731.349 710.051,733.953 711,736C712.103,743.974 708.791,742.988 704,739C697.428,727.087 699.241,714.021 708,700C715.038,689.284 716.788,677.015 716,664C714.596,652.861 715.426,642.425 729,636C742.967,636.072 751.733,602.591 758,553C731.355,569.157 701.751,583.441 671,597C558.232,633.935 517.239,595.806 545,485C514.339,502.894 485.352,511.984 470,525.755C446.489,546.845 443.321,568.328 450,590C435.56,574.895 434.808,554.903 450,533.43C462.099,516.328 480.302,501.312 504.189,488.043C524.991,476.487 535.87,456.579 548,442C520.033,471.79 489.652,496.947 455.948,505.933C446.576,508.431 439.298,513.431 433.525,520C419.383,536.09 443.319,567.737 412.448,583.413C411.417,584.068 410.273,584.6 409,585C410.218,584.492 411.365,583.963 412.448,583.413C418.595,579.506 420.692,571.198 422.154,560C423.901,546.62 408.955,529.19 418.69,514.078C426.665,501.7 446.985,496.783 460,487.972C480.375,474.18 490.722,462.68 502,454C477.213,469.003 452.622,483.719 430,497.738C411.805,509.014 393.813,518.116 380.163,530C368.655,540.019 366.616,555.258 368,569C361.357,556.773 362.965,543.704 370.795,530C385.576,504.131 427.753,478.849 468,447C422.449,459.936 395.98,460.248 375.732,473.602C354.841,487.379 345.035,505.89 346,529C342.876,517.55 341.677,504.958 346.874,493.076C349.262,487.615 352.308,474.301 390,459.079C414.968,448.995 449.094,441.622 490,419.068C520.726,402.127 557.979,328.773 572.943,259.993C521.449,259.577 470.466,250.443 422.253,193.688C273.421,215.735 170.207,298.38 132.438,400C103.078,478.995 89.856,543.223 94.793,600C104.783,714.895 174.428,812.779 310.937,893.293C21.766,754.188 35.11,499.603 100,365.663C145.351,272.056 254.535,152.246 430,145C477.949,216.01 526.052,247.863 574.257,253.675C574.842,250.722 575.385,247.78 575.882,244.855C580.381,218.374 585.596,195.93 591.206,177.605C549.326,160.166 503.754,149.87 456,148.231C451.519,148.078 450,145 450,145C450,145 452.668,145.007 454,145.02C502.998,145.514 549.845,155.062 592.951,172.073ZM566.196,266.974C518.032,292.708 469.307,289.779 420,257.053C261.915,297.41 194.824,405.426 150,530C172.851,388.133 239.17,270.852 422.936,220C461.952,260.319 510.207,274.561 566.196,266.974ZM761.087,473.047C756.724,473.846 752.362,475.305 748,477C752.851,470.12 757.196,463.123 761,456C760.664,461.715 760.532,467.412 761.087,473.047ZM520,293.639C490.102,313.209 455.725,320.632 415.614,312.505C339.559,329.699 299.863,388.5 280,470C283.682,430.72 280.283,387.282 320,340.107C339.791,316.6 368.809,294.707 420,280C440.333,297.872 475.38,300.662 520,293.639ZM820.801,451.263C821.667,455.165 822.477,459.099 823.227,463.054C821.544,463.284 819.801,463.598 818,464C818.941,459.748 819.878,455.503 820.801,451.263ZM654,448L643,461C641.274,450.726 639.086,441.571 635,437L640,431C642.474,436.814 646.578,442.518 654,448ZM666,413C655.473,406.247 654.497,401.537 659,398C662.664,391.181 664.188,384.526 664,378L676,386L667,402C665.762,405.054 665.33,408.653 666,413ZM718,376L706,367C715.603,331.641 710.231,320.508 702,314C703.461,304.449 701.408,296.812 696,291L697,288C703.257,291.412 709.91,291.843 717,289C719.202,298.641 720.443,311.109 720.519,327C720.585,340.673 716.25,358.858 718,376ZM700.312,246.305C729.217,272.095 754.231,302.143 774.37,335.46C766.333,341.989 756.236,349.966 742,359C739.447,331.834 741.124,318.732 730,277C728.943,272.812 723.291,269.129 695,265C690.45,263.323 685.404,263.497 680,265L664,275L659,269C663.704,264.531 668.23,259.649 672,253C680.591,252.419 688.942,252.308 700.312,246.305ZM693,348L693,354L684,346C683.883,344.181 684.499,342.816 686,342L693,348ZM693,295C690.204,296.141 688.132,297.761 687,300C688.218,302.144 690.683,303.382 694,304C694.314,301.026 694.412,298.044 693,295ZM689,283C689.394,280.958 688.034,280.227 686,280L680,285C679.636,286.957 679.385,288.834 683,288L689,283ZM688,275C686.46,265.677 677.61,271.548 668,279C667.643,282.031 668.341,284.687 670,287C675.297,279.882 681.037,274.729 688,275ZM667,252L665,247C661.957,247.95 659.836,249.829 659,253C657.92,254.707 656.688,256.189 655,257L657,263C661.276,260.251 664.961,256.926 667,252ZM425,140C368.96,129.756 259.141,135.38 199.619,179C198.199,180.04 194.955,195.57 208,190.953C209.046,190.582 209.76,188.727 210,185C201.177,185.26 203.19,179.1 204,178.03C205.08,176.604 212.038,169.826 219,179C230.978,199.305 201.688,209.612 191.119,198C182.371,188.387 186.661,179.64 195.479,169C209.347,152.269 255.58,135.631 308,131.44C356.587,127.556 397.161,129.142 425,140ZM402,128C341.363,107.405 237.377,89.939 184,113.544C175.984,117.089 170.231,118.516 169.455,123C169.147,124.783 169.39,127.343 171.555,129.516C174.49,132.463 179.065,133.663 181,126C174.562,124.754 173.729,124.813 175,122.09C176.954,117.905 181.477,114.288 189,119C192.111,127.847 190.436,134.181 186.327,137.721C181.526,141.857 171.574,146.712 163.519,137C156.056,128.003 154.826,119.255 161.195,114C196.699,84.705 310.533,84.755 402,128Z" style="fill:white;"/>
    </g>
</svg>
