<?xml version="1.0" encoding="UTF-8" standalone="no"?>
<!DOCTYPE svg PUBLIC "-//W3C//DTD SVG 1.1//EN" "http://www.w3.org/Graphics/SVG/1.1/DTD/svg11.dtd">
<svg width="100%" height="100%" viewBox="0 0 1000 1000" version="1.1" xmlns="http://www.w3.org/2000/svg" xmlns:xlink="http://www.w3.org/1999/xlink" xml:space="preserve" xmlns:serif="http://www.serif.com/" style="fill-rule:evenodd;clip-rule:evenodd;stroke-linejoin:round;stroke-miterlimit:2;">
    <g transform="matrix(1.125,0,0,1.125,-42.25,-85)">
        <path d="M340.481,263.211C302.334,216.806 265.481,169.089 230,120C277.017,154.939 322.758,191.154 367.298,228.591C423.617,165.645 505.465,126 596.5,126C658.785,126 716.77,144.558 765.213,176.437C790.46,158.15 815.429,141.275 840,126C823.035,147.537 805.251,169.553 786.726,191.958C858.127,248.28 904,335.575 904,433.5C904,527.063 862.122,610.923 796.099,667.346C828.319,706.986 859.774,747.387 890.507,788.509C848.415,756.354 807.099,723.422 766.59,689.652C717.875,722.086 659.379,741 596.5,741C506.229,741 424.991,702.018 368.731,639.999C268.926,736.688 164.473,831.724 60,920C143.323,808.559 235.061,694.696 330.198,587.26C303.996,542.002 289,489.489 289,433.5C289,370.536 307.965,311.967 340.481,263.211ZM486.054,523.423C453.882,556.218 420.974,589.055 387.489,621.755C438.992,678.897 513.581,714.845 596.5,714.845C651.267,714.845 702.4,699.163 745.642,672.052C689.217,624.277 634.429,574.862 581.423,523.69C567.177,530.922 551.061,535 534,535C516.731,535 500.429,530.822 486.054,523.423ZM769.991,212.066C725.299,265.415 676.584,320.838 624.804,377.276C633.83,392.776 639,410.789 639,430C639,446.4 635.232,461.927 628.512,475.767C680.67,531.068 730.964,588.231 779.528,647.108C839.696,595.498 877.845,518.919 877.845,433.5C877.845,343.656 835.641,263.591 769.991,212.066ZM357.983,284.303C330.846,327.571 315.155,378.718 315.155,433.5C315.155,481.636 327.27,526.966 348.611,566.596C377.918,533.91 407.513,501.882 437.231,470.793C431.931,458.25 429,444.465 429,430C429,411.908 433.586,394.878 441.661,380.005C413.14,348.735 385.24,316.843 357.983,284.303ZM742.647,193.097C700.049,167.125 650.009,152.155 596.5,152.155C513.457,152.155 438.769,188.211 387.249,245.511C421.521,274.835 455.069,304.885 487.928,335.636C501.842,328.824 517.478,325 534,325C548.905,325 563.089,328.112 575.944,333.726C632.109,281.645 687.999,234.199 742.647,193.097Z" style="fill:white;"/>
    </g>
</svg>
