<?xml version="1.0" encoding="UTF-8" standalone="no"?>
<!DOCTYPE svg PUBLIC "-//W3C//DTD SVG 1.1//EN" "http://www.w3.org/Graphics/SVG/1.1/DTD/svg11.dtd">
<svg width="100%" height="100%" viewBox="0 0 1000 1000" version="1.1" xmlns="http://www.w3.org/2000/svg" xmlns:xlink="http://www.w3.org/1999/xlink" xml:space="preserve" xmlns:serif="http://www.serif.com/" style="fill-rule:evenodd;clip-rule:evenodd;stroke-linejoin:round;stroke-miterlimit:2;">
    <g transform="matrix(2.49143,0,0,2.49143,-738.792,-853.795)">
        <path d="M343,659.191C343,659.127 343,659.063 343,659C343,639.825 351.321,622.578 364.547,610.675L363.45,608.919C349.654,621.202 340.959,639.094 340.959,659C340.959,661.283 341.074,663.539 341.297,665.76L338.928,667.6C338.58,664.782 338.4,661.912 338.4,659C338.4,653.777 338.977,648.688 340.069,643.795L337,645.5C333.235,639.641 331.851,635.833 334.5,635.5L342.708,634.859C346.757,623.923 353.478,614.278 362.075,606.72L358.5,601L354.5,602.5C355.15,605.8 354.806,606.862 352.5,603.5L347.5,605.5C345.528,606.352 344.67,604.408 346.5,603.5L404.5,581C406.642,580.045 407.469,582.442 406,583L431,587L438.91,583.045L440.577,579.021L430.133,567.184C428.933,568.513 427.368,569.81 425,571C423.413,571.011 422.063,570.7 421,570C419.577,571.112 417.547,571.755 415,572L413,569C404.457,569.526 404.086,565.747 406.5,560.5L406.552,560.276C403.469,560.5 399.92,558.637 400.492,555C400.918,552.291 400.156,549.167 397.5,545.5L395.5,547C394.577,545.444 393.514,542.908 392.317,539.431C390.036,539.24 387.968,538.677 387.272,537C386.599,535.378 385.775,533.333 385,530C385.006,532.685 384.678,535.357 383.5,538C379.16,538.389 375.644,537.641 373.5,535C374.755,527.833 377.753,520.667 381,513.5C377.348,513.524 374.651,505.096 373.5,483C372.786,484.139 371.892,485.191 370.5,486C370.177,488.645 369.411,491.02 368,493C367.554,492.733 366.868,491.769 365,491.288C363.453,490.89 361.854,489.969 360,488.5C361.282,482.091 364.129,477.278 367.5,473C364.588,475.269 360.608,476.12 360,479C359.429,481.706 359.225,486.661 358,489C354.388,489.922 351.661,488.89 350,485.5C349.32,486.624 348.659,486.838 348,487C345.06,482.614 344.538,477.735 350,472.991C351.704,471.511 353.464,469.536 356.5,468L358.694,467.134C356.643,466.784 354.486,466.023 352,464C351.31,465.592 350.988,467.261 351,469C350.473,467.89 350.123,466.671 350.5,465C349.002,461.039 349.321,457.024 350,453C348.9,454.59 347.945,456.235 347.15,457.942C347.251,460.047 347.664,462.206 348.5,464.5C347.575,462.744 346.976,461.03 346.541,459.341C345.874,460.986 345.356,462.688 345,464.451C344.431,460.492 344.728,456.559 345.523,452.642C345.522,452.518 345.523,452.394 345.529,452.27C345.532,452.194 345.518,452.113 345.551,452.044C345.578,451.988 345.597,451.989 345.646,451.951L345.673,451.93C345.775,451.461 345.884,450.991 346,450.522C346.008,450.302 346.018,450.082 346.029,449.863C345.482,450.99 344.799,452.032 343.821,452.926C342.522,454.141 341.459,455.712 340.661,457.759C339.769,460.046 339.206,462.907 339,466.5C338.992,462.862 339.397,459.942 340.156,457.579C340.831,455.475 341.792,453.812 342.997,452.477C342.921,451.939 342.854,451.404 342.797,450.872C341.082,451.565 339.325,452.124 337.5,452.5C339.322,451.914 341.067,451.168 342.736,450.262C342.219,444.687 342.875,439.583 345.846,435.393C346.189,434.909 346.561,434.436 346.967,433.974C346.392,434.412 345.857,434.86 345.359,435.317C341.593,438.773 339.965,442.75 339.5,447C339.745,442.649 341.229,438.539 344.864,434.808C345.831,433.816 346.952,432.858 348.236,431.917C350.635,430.16 353.595,428.456 357.308,426.945C358.398,426.501 359.548,426.061 360.778,425.68C360.959,425.623 361.139,425.544 361.33,425.525C361.423,425.515 361.499,425.527 361.592,425.542C361.627,425.547 361.66,425.553 361.692,425.558C364.566,424.087 367.889,422.84 371.699,421.837C370.303,419.792 368.519,418.425 365.891,418.371C362.479,418.3 357.886,420.245 351.5,425C357.727,419.654 362.358,417.452 365.869,417.237C367.142,417.159 368.283,417.334 369.311,417.725C371.693,417.308 373.398,417.498 374.548,418.187C375.57,418.799 376.154,419.806 376.385,421.13C384.319,421.007 387.249,427.142 388,436L387,436C387.064,439.486 389.436,439.221 392,438.645C394.911,445.974 397.498,447.785 398,450L394.958,453.042L400,453.5C399.913,455.455 399.926,457.077 400,458.5C400.36,458.382 400.851,458.374 401.5,458.5C401.644,459.167 401.621,459.833 401.5,460.5C402.278,461.746 403.328,463.038 404,464.5C405.333,463.402 406.667,462.624 408,462C408.978,463.665 409.072,465.333 409,467C410.393,468.088 410.945,469.074 411,470C412.371,469.727 413.707,469.712 415,470C415.124,470.94 414.94,471.767 414.5,472.5C420.281,473.664 425.929,474.864 430,476.5C430.947,476.67 432.292,477.008 434,477.5C438.774,477.897 443.417,478.263 447.5,478.5C451.355,477.353 455.205,476.269 459,476L459.143,477L461,477C463.277,474.189 467.908,473.077 469,473C470.337,472.906 474.265,473.137 477,474C476.277,472.637 475.984,471.307 476,470C476.612,469.785 477.266,469.735 478,470C477.927,467.577 478.599,465.245 480,463C481.8,462.733 483.225,462.765 484.309,463.068C483.217,461.696 482.281,460.34 481.5,459C474.185,455.914 469.373,452.257 465,448.5C465.06,449.938 465.437,451.448 466,453C463.244,451.15 460.676,449.19 458.5,447C457.709,445.353 457.072,443.785 457,442.5C455.607,442.593 454.111,442.273 452.5,441.5C451.206,442.369 450.657,443.592 450.5,445L454.446,447.63C454.573,447.455 454.694,447.277 454.807,447.094C455.222,446.422 455.556,445.717 455.786,444.952C455.812,444.834 455.929,444.759 456.048,444.786C456.166,444.812 456.241,444.929 456.214,445.048C456.077,445.987 455.802,446.875 455.392,447.724C455.31,447.893 455.224,448.059 455.132,448.223C455.271,448.464 455.393,448.704 455.501,448.941C455.775,448.66 456.022,448.368 456.23,448.054C456.462,447.705 456.656,447.343 456.787,446.947C456.816,446.83 456.935,446.758 457.053,446.787C457.17,446.816 457.242,446.935 457.213,447.053C457.06,447.957 456.645,448.776 456.065,449.55C455.992,449.647 455.917,449.743 455.839,449.838C455.946,450.194 456.018,450.545 456.059,450.891C456.348,450.764 456.626,450.619 456.89,450.447C457.426,450.097 457.91,449.668 458.313,449.104C458.377,449.001 458.513,448.969 458.616,449.033C458.719,449.097 458.75,449.232 458.687,449.335C458.229,450.189 457.609,450.838 456.873,451.351C456.621,451.526 456.361,451.704 456.089,451.864C456.028,452.974 455.642,454.039 455,455.069C455.228,454.97 455.454,454.868 455.679,454.764C456.947,454.178 458.184,453.539 459.38,452.816C459.482,452.75 459.618,452.779 459.684,452.88C459.75,452.982 459.721,453.118 459.62,453.184C457.871,454.398 456.024,455.444 454.095,456.355C454.074,456.364 454.053,456.374 454.032,456.384C453.208,457.356 452.172,458.298 450.989,459.219C451.452,459.363 451.931,459.482 452.429,459.57C453.834,459.816 455.351,459.886 456.978,459.782C457.099,459.769 457.206,459.857 457.218,459.978C457.231,460.099 457.143,460.206 457.022,460.218C454.99,460.496 453.102,460.504 451.376,460.2C451.167,460.163 450.96,460.121 450.756,460.076L454.5,464.5C452.731,463.417 451.325,462.334 450.377,461.25C450.08,460.91 449.828,460.57 449.623,460.23C449.448,460.354 449.271,460.477 449.092,460.6L452,466C451.014,465.017 450.261,463.976 449.694,462.889C449.336,462.203 449.052,461.498 448.829,460.779C448.721,460.853 448.611,460.926 448.5,461L440,447C441.013,444.065 442.111,441.262 443.34,438.663C441.259,436.578 439.936,434.533 439.198,432.52C438.322,430.131 438.2,427.77 438.73,425.474C436.356,423.522 434.324,421.525 432.5,419.5C434.364,418.095 434.746,416.598 433.5,415L431,416C419.707,408.713 419.738,400.397 427.158,391.952C427.165,391.891 427.174,391.831 427.184,391.771C427.161,391.744 427.139,391.716 427.111,391.679C427.034,391.576 426.979,391.485 426.938,391.365C426.763,390.86 426.805,390.324 426.799,389.827C426.771,387.539 427.494,385.591 429.015,384.04C431.116,381.899 434.835,380.502 440.457,380.091C440.565,380.079 440.668,380.111 440.748,380.171C441.554,379.992 442.405,379.831 443.304,379.689C447.404,378.282 452.26,377.55 457.875,377.506C457.889,377.505 457.904,377.506 457.918,377.506C460.161,375.737 462.262,374.093 464.012,372.34C467.625,368.743 471.021,366.518 474.283,365.543C474.617,365.443 474.95,365.356 475.28,365.281C476.559,364.458 478.155,363.762 479.81,363.315C482.574,362.568 485.475,362.509 487.248,363.562C487.49,363.699 487.575,364.007 487.438,364.248C487.301,364.49 486.993,364.575 486.752,364.438C485.147,363.568 482.587,363.797 480.169,364.551C479.763,364.678 479.361,364.82 478.968,364.976C481.381,365.124 483.741,365.962 486.085,367.456C488.762,366.502 491.57,366.541 494.5,367.5C492.559,367.796 490.615,368.179 488.806,368.728C489.382,370.658 489.151,372.759 488.212,375.007C487.708,376.211 487.005,377.469 486.102,378.759C489.627,377.23 492.788,377.04 495.5,378.5C493.29,378.419 491.217,378.64 489.324,379.199C489.926,380.753 490.092,383.013 489.5,386.5C491.245,385.386 492.955,384.871 494.655,384.56C494.952,383.705 495.224,382.84 495.5,382C495.333,384 495.167,386 495,388C496.514,386.864 497.798,385.477 499,384C498.593,386.446 498.008,388.815 497,391L501.5,388.5C500.874,390.488 500.041,392.321 499,394L501.5,393C497.174,396.725 493.18,401.567 489.591,408C487.477,411.79 482.15,412.975 476.467,414.218L478,415L497,432L501,432L504.496,434.796L505,434C505,434 510.868,432.401 513,430.4C515.871,427.706 524.644,424.082 525,425C524.997,428.271 524.612,431.614 524,435C525,435.101 526,435.427 527,436C526.425,440.235 523.336,444.134 520,448C522.715,449.365 524.667,452.355 526,456L523,460C524.856,468.442 525.107,475.699 520,479C519.936,480.494 519.765,481.863 519.011,482.552L519.5,483L513.833,488L513.4,493.204L546.5,530.5L548,530L550.945,533.346C556.263,528.786 562.24,525.052 568.651,522.271L567.306,519.257L565.141,520.102C565.106,520.495 564.867,520.86 564.483,521.039C564.052,521.239 563.56,521.149 563.229,520.848L559.845,522.169L559.995,522.432C560.309,522.981 560.118,523.681 559.568,523.995C559.019,524.309 558.319,524.118 558.005,523.568L557.686,523.011L554.004,524.448C554.276,524.942 554.149,525.574 553.684,525.919C553.176,526.297 552.458,526.191 552.081,525.684L551.636,525.086C551.325,524.982 551.061,524.746 550.933,524.417C550.884,524.291 550.858,524.162 550.855,524.035L543.895,514.676L540.426,516.064C539.838,516.299 539.171,516.013 538.936,515.426C538.701,514.838 538.987,514.171 539.574,513.936L542.481,512.774L530.275,496.359L528.408,497.071C527.817,497.296 527.155,496.999 526.929,496.408C526.704,495.817 527.001,495.155 527.592,494.929L528.854,494.448L523.09,486.697C523.063,486.662 523.038,486.625 523.015,486.586L523.015,486.586C522.96,486.493 522.919,486.395 522.892,486.294L522.887,486.272L522.885,486.263L522.88,486.243C522.844,486.08 522.846,485.913 522.881,485.754L522.885,485.738L522.891,485.711L522.895,485.699L522.899,485.683C522.944,485.527 523.022,485.379 523.132,485.252L523.145,485.237L523.166,485.214C523.238,485.138 523.32,485.071 523.414,485.015L523.414,485.015C523.452,484.992 523.492,484.972 523.532,484.954L568.14,464.243C568.278,464.085 568.462,463.963 568.679,463.9C568.779,463.871 568.879,463.856 568.978,463.854L579.517,458.961C579.597,458.925 579.679,458.896 579.764,458.878C580.012,458.826 580.267,458.861 580.495,458.967L580.5,458.969C580.569,458.935 580.644,458.908 580.722,458.888C581.336,458.735 581.958,459.109 582.112,459.722L585.402,472.884L585.78,472.739C586.371,472.514 587.033,472.811 587.259,473.402C587.484,473.993 587.187,474.655 586.596,474.881L585.962,475.123L590.705,494.097C590.86,494.218 590.986,494.379 591.064,494.574C591.183,494.873 591.168,495.192 591.047,495.464L594.11,507.715C594.13,507.793 594.142,507.873 594.145,507.951L594.146,507.98L594.146,508.009L594.146,508.032C594.141,508.181 594.108,508.327 594.049,508.46L594.046,508.468L594.034,508.493L594.022,508.517L594.01,508.542L594,508.559L593.987,508.583L593.982,508.59C593.907,508.715 593.808,508.826 593.689,508.916L593.67,508.93L593.643,508.949L593.623,508.962C593.557,509.005 593.485,509.041 593.41,509.07L590.918,510.042L591.102,510.685C591.275,511.293 590.923,511.928 590.315,512.102C589.707,512.275 589.072,511.923 588.898,511.315L588.774,510.879L584.106,512.701C584.269,513.301 583.921,513.925 583.321,514.1C582.787,514.256 582.23,514.005 581.984,513.529L571.122,517.768C571.235,518.31 570.94,518.87 570.405,519.072C570.189,519.153 569.964,519.165 569.754,519.119L570.769,521.393C577.171,518.861 583.971,517.265 590.957,516.725L591.317,519.264C584.568,519.77 577.999,521.298 571.812,523.733L572.644,525.597C585.27,520.65 599.542,519.593 613.608,523.478C648.187,533.031 668.506,568.86 658.954,603.439C649.401,638.019 613.572,658.337 578.993,648.785C544.413,639.233 524.094,603.403 533.647,568.824C535.185,563.255 537.405,558.055 540.192,553.291C539.681,552.837 539.156,552.389 538.614,551.949C535.654,556.946 533.3,562.414 531.68,568.28C525.505,590.632 531.431,613.489 545.493,629.863L541.903,629.537C528.499,612.702 523.051,589.907 529.213,567.599C530.924,561.408 533.42,555.644 536.566,550.386C535.445,549.585 534.259,548.824 533,548.118C532.922,548.075 532.844,548.031 532.767,547.987C527.622,560.579 523.395,572.607 520.053,584C516.679,595.506 510.255,605.07 504.37,613.932C507.286,616.96 509.167,620.273 510.097,623.847C512.823,625.771 516.029,626.689 520,626C520.608,625.943 521.409,625.914 523,626C530.281,620.298 534.853,623.347 538,631L537,633C538.758,634.087 539.735,635.772 540,638C538.403,639.127 536.511,640.161 534,641C531.853,642.575 529.553,643.406 527,643C524.976,643.798 522.983,644.428 521,645C520.074,644.333 519.484,643.667 519,643C517.303,643.142 515.655,643.056 514,643L514,645C512.171,646.616 509.768,647.531 507,648C504.832,646.593 503.039,645.147 501.487,643.677L472.528,651.131C472.84,653.713 473,656.338 473,659C473,694.874 443.874,724 408,724C383.856,724 362.77,710.808 351.559,691.242L343,659L343,659.191L343,659.221L343.001,659.404L343.001,659.439L343.003,659.623L343.003,659.646L343.005,659.827L343.005,659.844L343.008,660.03L343.009,660.064L343.012,660.245L343.012,660.278L343.016,660.465L343.021,660.659L343.021,660.685L343.026,660.867L343.027,660.903L343.033,661.084L343.034,661.113L343.04,661.304L343.047,661.491L343.048,661.524L343.055,661.703L343.057,661.738L343.065,661.921L343.066,661.942L343.074,662.12L343.075,662.141L343.084,662.323L343.085,662.359L343.095,662.537L343.097,662.57L343.107,662.756L343.118,662.945L343.12,662.975L343.131,663.154L343.133,663.191L343.145,663.369L343.147,663.398L343.159,663.573L343.16,663.589L343.173,663.771L343.175,663.806L343.188,663.982L343.191,664.019L343.205,664.198L343.207,664.22L343.221,664.39L343.223,664.419L343.238,664.595L343.241,664.634L343.257,664.808L343.26,664.844L343.276,665.027L343.293,665.209L343.297,665.246L343.313,665.417L343.318,665.459L343.335,665.632L343.338,665.665L343.355,665.826L343.358,665.854L343.376,666.027L343.381,666.07L343.399,666.238L343.404,666.281L343.423,666.453L343.427,666.48L343.445,666.637L343.449,666.676L343.469,666.843L343.475,666.89L343.495,667.055L343.501,667.099L343.52,667.252L343.524,667.287L343.545,667.448L343.551,667.496L343.573,667.657L343.579,667.708L343.601,667.87L343.607,667.913L343.627,668.055L343.633,668.098L343.656,668.258L343.663,668.312L343.686,668.469L343.694,668.522L343.718,668.688L343.724,668.722L343.744,668.858L343.752,668.912L343.776,669.066L343.785,669.125L343.81,669.278L343.818,669.334L343.839,669.461L343.849,669.524L343.872,669.662L343.882,669.724L343.907,669.871L343.918,669.936L343.944,670.087L343.953,670.141L343.973,670.257L343.984,670.319L344.01,670.463L344.022,670.532L344.048,670.674L344.06,670.743L344.08,670.854L344.089,670.899L344.131,671.127L344.135,671.145L344.173,671.347L344.182,671.389L344.217,671.57L344.226,671.617L344.262,671.797L344.27,671.839L344.311,672.04L344.314,672.058L344.361,672.283C344.377,672.36 344.393,672.436 344.409,672.513L344.456,672.734L344.462,672.76L344.504,672.955L344.512,672.991L344.554,673.181L344.562,673.213L344.608,673.419L344.611,673.432L344.662,673.656C344.68,673.732 344.697,673.808 344.715,673.884L344.769,674.11L344.821,674.329L344.827,674.352L344.876,674.553L344.882,674.576L344.936,674.794C345.011,675.094 345.088,675.394 345.167,675.692L345.169,675.701L345.226,675.914L345.23,675.927L345.289,676.145C345.391,676.519 345.496,676.891 345.605,677.262L345.606,677.265C346.41,680.012 347.39,682.684 348.534,685.267L348.539,685.278L348.626,685.473L348.633,685.488L348.724,685.692L348.818,685.899C348.85,685.969 348.882,686.038 348.913,686.107L349.009,686.313L349.1,686.51L349.116,686.543L349.194,686.709L349.213,686.75L349.29,686.911L349.308,686.95L349.393,687.126L349.403,687.147L349.5,687.349L349.596,687.545L349.618,687.59L349.69,687.736L349.723,687.803L349.785,687.928C350.346,689.052 350.937,690.158 351.559,691.242L351.559,691.243L340.724,695.647C339.708,696.047 338.558,695.546 338.158,694.53C337.758,693.513 338.259,692.363 339.276,691.963C339.276,691.963 343.593,690.323 349.803,687.964L349.785,687.928L349.76,687.878L349.723,687.803L349.702,687.759L349.69,687.736L349.673,687.701L349.618,687.59L349.596,687.545C349.531,687.412 349.467,687.279 349.403,687.147L349.328,686.992L349.302,686.937L349.29,686.911L349.244,686.814L349.213,686.75L349.159,686.636L349.116,686.543L349.076,686.457L349.009,686.313C348.913,686.107 348.818,685.899 348.724,685.692L348.664,685.559L348.584,685.379L348.534,685.267C347.39,682.683 346.409,680.011 345.606,677.265L345.605,677.262C345.497,676.891 345.391,676.519 345.289,676.145L345.253,676.013L345.201,675.819L345.167,675.692C345.088,675.394 345.011,675.094 344.936,674.794L344.9,674.652L344.879,674.566L344.876,674.553L344.852,674.456L344.827,674.352L344.805,674.26L344.769,674.11C344.715,673.885 344.662,673.659 344.611,673.432L344.576,673.279L344.559,673.2L344.554,673.181L344.532,673.081L344.512,672.991L344.489,672.884L344.462,672.76L344.456,672.734C344.408,672.509 344.361,672.284 344.314,672.058L344.281,671.894L344.27,671.839L344.242,671.696L344.226,671.617L344.221,671.593L344.217,671.57L344.202,671.497L344.182,671.389L344.164,671.298L344.131,671.127C344.114,671.036 344.097,670.945 344.08,670.854L344.067,670.784L344.06,670.743L344.052,670.7L344.048,670.674C344.039,670.627 344.03,670.58 344.022,670.532L344.016,670.5L344.01,670.463C344.001,670.415 343.992,670.367 343.984,670.319L343.981,670.3L343.973,670.257L343.964,670.204L343.953,670.141L343.946,670.099L343.924,669.971L343.911,669.899L343.907,669.871C343.899,669.822 343.89,669.773 343.882,669.724L343.878,669.698L343.865,669.622L343.845,669.497L343.839,669.461L343.827,669.389L343.818,669.334L343.812,669.296L343.81,669.278C343.801,669.227 343.793,669.176 343.785,669.125L343.781,669.095L343.776,669.066C343.768,669.015 343.76,668.963 343.752,668.912L343.75,668.893L343.744,668.858L343.736,668.805L343.719,668.692L343.701,668.57L343.689,668.49L343.686,668.469C343.678,668.417 343.671,668.364 343.663,668.312L343.66,668.287L343.656,668.258C343.648,668.205 343.64,668.151 343.633,668.098L343.617,667.984L343.603,667.883L343.601,667.87C343.594,667.816 343.587,667.762 343.579,667.708L343.576,667.68L343.573,667.657C343.565,667.603 343.558,667.549 343.551,667.496L343.538,667.396L343.523,667.274L343.508,667.16L343.497,667.071L343.495,667.055C343.488,667 343.482,666.945 343.475,666.89L343.469,666.843C343.463,666.787 343.456,666.732 343.449,666.676L343.437,666.57L343.423,666.453C343.417,666.395 343.41,666.338 343.404,666.281L343.399,666.238C343.393,666.182 343.387,666.125 343.381,666.07L343.376,666.027C343.37,665.969 343.364,665.912 343.358,665.854L343.346,665.74L343.336,665.642L343.335,665.632C343.329,665.574 343.323,665.517 343.318,665.459L343.313,665.417C343.308,665.36 343.302,665.303 343.297,665.246L343.287,665.146L343.276,665.027L343.265,664.908L343.258,664.821L343.257,664.808C343.251,664.75 343.246,664.693 343.241,664.634L343.238,664.595C343.233,664.536 343.228,664.478 343.223,664.419L343.214,664.311L343.205,664.198C343.201,664.139 343.196,664.079 343.191,664.019L343.188,663.982C343.184,663.924 343.18,663.865 343.175,663.806L343.173,663.771C343.168,663.71 343.164,663.65 343.16,663.589L343.152,663.474L343.145,663.379L343.145,663.369C343.141,663.31 343.137,663.25 343.133,663.191L343.131,663.154C343.127,663.094 343.123,663.035 343.12,662.975L343.114,662.874L343.107,662.756C343.103,662.694 343.1,662.632 343.097,662.57L343.095,662.537C343.092,662.478 343.089,662.418 343.085,662.359L343.084,662.323C343.081,662.263 343.078,662.202 343.075,662.141L343.07,662.031L343.065,661.921C343.062,661.86 343.059,661.799 343.057,661.738L343.055,661.703C343.053,661.644 343.051,661.584 343.048,661.524L343.047,661.491C343.045,661.429 343.042,661.367 343.04,661.304L343.036,661.186L343.033,661.094L343.033,661.084C343.031,661.024 343.029,660.963 343.027,660.903L343.026,660.867C343.025,660.807 343.023,660.746 343.021,660.685L343.019,660.58L343.016,660.465C343.015,660.402 343.014,660.34 343.012,660.278L343.012,660.245C343.011,660.185 343.01,660.124 343.009,660.064L343.008,660.03C343.007,659.968 343.006,659.906 343.005,659.844L343.004,659.731L343.003,659.623C343.002,659.561 343.002,659.5 343.001,659.439L343.001,659.404C343.001,659.343 343.001,659.282 343,659.221L343,659.191ZM406.79,668.071C406.63,668.122 406.472,668.167 406.314,668.205L407.507,716.029L407.539,716.029C408.322,716.035 409.104,716.026 409.886,716.001C411.336,715.953 412.785,715.851 414.227,715.695C415.707,715.534 417.181,715.315 418.643,715.038C419.425,714.89 420.203,714.726 420.977,714.546L420.996,714.541L406.79,668.071ZM405.63,715.983L404.461,669.097L393.394,714.141L393.413,714.145C394.11,714.329 394.811,714.501 395.515,714.658C396.847,714.956 398.191,715.206 399.541,715.407C400.863,715.604 402.192,715.754 403.524,715.858C404.22,715.912 404.917,715.953 405.614,715.982L405.63,715.983ZM435.985,708.695L408.876,668.482L422.817,714.084C427.467,712.834 431.884,711.011 435.985,708.695ZM401.682,667.439L400.29,669.976C400.194,670.508 399.964,670.909 399.619,671.197L379.267,708.265C383.11,710.513 387.241,712.325 391.589,713.631L402.802,667.992C402.414,667.845 402.041,667.659 401.682,667.439ZM446.892,700.698L410.524,667.093L410.249,667.164L437.605,707.744C440.94,705.713 444.052,703.349 446.892,700.698ZM396.529,671.745C396.314,672.328 396.188,672.68 396.188,672.68C396.054,673.007 395.792,673.265 395.463,673.394L388.75,676.124L367.738,699.377L367.741,699.38C369.247,700.88 370.834,702.297 372.496,703.622C374.14,704.931 375.856,706.15 377.633,707.272L377.662,707.291L397.154,671.79C396.953,671.782 396.745,671.767 396.529,671.745ZM457.227,687.797L413.949,666.211L412.685,666.536L448.244,699.394C451.711,695.94 454.736,692.044 457.227,687.797ZM366.43,698.028L384.755,677.747L359.017,688.21L359.03,688.232C360.075,689.975 361.211,691.663 362.434,693.285C363.671,694.926 364.996,696.499 366.401,697.998L366.43,698.028ZM462.763,674.964L418.69,664.991L416.719,665.498L458.151,686.163C460.065,682.637 461.619,678.888 462.763,674.964ZM378.31,665.659L352.875,673.663L352.877,673.672C353.399,675.632 354.025,677.564 354.753,679.457C355.496,681.385 356.344,683.272 357.291,685.108L357.296,685.118L361.418,683.551L382.103,669.773C379.398,669.113 378.193,667.301 378.31,665.659ZM388.968,673.085L391.04,670.792L384.929,670.143L369.289,680.561L388.968,673.085ZM464.999,660.937L434.435,660.937L422.664,663.968L463.258,673.154L463.269,673.112C463.443,672.426 463.606,671.737 463.755,671.045C464.042,669.709 464.282,668.362 464.472,667.008C464.657,665.699 464.795,664.384 464.888,663.065C464.938,662.368 464.974,661.67 464.998,660.971L464.999,660.937ZM396.944,656.239L350.973,659.706L350.973,659.737C350.983,660.439 351.004,661.141 351.038,661.842C351.103,663.154 351.212,664.464 351.367,665.769C351.525,667.101 351.73,668.428 351.982,669.747C352.115,670.444 352.261,671.138 352.42,671.83L352.422,671.84L379.849,663.209C380.374,662.887 381.03,662.666 381.809,662.592L396.799,657.875C396.799,657.314 396.847,656.765 396.944,656.239ZM393.302,671.085L392.816,671.623L393.849,671.231C393.669,671.184 393.487,671.136 393.302,671.085ZM400.194,666.254C400.059,666.119 399.927,665.979 399.799,665.834C399.84,666.13 399.88,666.436 399.921,666.751L400.194,666.254ZM397.481,661.782L392.344,665.203L395,666L397.543,662.822C397.598,662.67 397.651,662.521 397.701,662.375C397.623,662.179 397.55,661.981 397.481,661.782ZM396.967,659.788L385.901,663.27L390.012,664.504L396.98,659.862C396.975,659.837 396.971,659.813 396.967,659.788ZM441.719,659.063L465.031,659.063C465.031,659.042 465.031,659.021 465.031,659C465.031,657.02 464.93,655.064 464.733,653.138L441.719,659.063ZM352.865,644.373C351.724,648.68 351.075,653.184 350.981,657.825L397.593,654.31C397.739,654.032 397.906,653.769 398.095,653.522L352.865,644.373ZM457,634L433,646C429.249,648.072 431.569,652.851 435,652L461,644C460.09,640.47 458.806,637.114 457,634ZM358.615,630.473C358.234,631.131 357.865,631.798 357.51,632.471C356.831,633.76 356.202,635.074 355.624,636.411C355.054,637.729 354.534,639.069 354.066,640.427C353.824,641.131 353.595,641.839 353.38,642.552L353.377,642.563L398.977,651.787L358.624,630.458L358.615,630.473ZM368.137,618.23C367.587,618.768 367.047,619.317 366.518,619.877C365.481,620.977 364.487,622.118 363.539,623.296C362.599,624.465 361.705,625.67 360.859,626.91C360.431,627.536 360.016,628.171 359.614,628.815L359.592,628.849L400.847,650.655L368.144,618.222L368.137,618.23ZM380.598,608.98C379.919,609.354 379.247,609.741 378.584,610.141C377.309,610.91 376.065,611.73 374.855,612.596C373.624,613.477 372.429,614.407 371.271,615.383C370.683,615.879 370.104,616.388 369.535,616.907L369.507,616.933L403.247,650.394L405.439,649.31L380.612,608.973L380.598,608.98ZM394.919,603.479C390.482,604.522 386.244,606.083 382.274,608.096L407.127,648.475L408.48,647.806L394.919,603.479ZM410.676,602.031L411.638,646.243L412.76,645.689L422.702,603.885C418.838,602.856 414.814,602.222 410.676,602.031ZM408.795,601.974C406.75,601.947 404.704,602.026 402.667,602.215C400.689,602.399 398.721,602.687 396.773,603.075L396.757,603.079L409.747,645.54L408.799,601.974L408.795,601.974ZM437.157,609.986L419.05,642.577L416.864,643.659L432.412,607.451C434.038,608.223 435.621,609.069 437.157,609.986ZM608.661,641.811C604.466,642.747 600.139,643.214 595.751,643.171L592.289,591.135L608.661,641.811ZM593.869,643.121L593.824,643.119C591.713,643.025 589.609,642.815 587.522,642.488C585.483,642.168 583.463,641.736 581.47,641.201L581.438,641.192L590.325,589.864L593.869,643.121ZM623.031,636.498C619.069,638.602 614.86,640.242 610.49,641.371L594.294,591.243L623.031,636.498ZM438.753,610.974C441.809,612.936 444.666,615.182 447.286,617.673L431.248,636.544L422.008,641.114L438.753,610.974ZM579.625,640.671C575.115,639.294 570.894,637.403 567.01,635.08L587.653,594.307L579.625,640.671ZM424.508,604.399L417.018,635.886L429.355,606.108C427.773,605.468 426.156,604.897 424.508,604.399ZM635.258,627.781L635.249,627.79C633.658,629.272 631.985,630.664 630.237,631.957C628.471,633.263 626.629,634.465 624.725,635.562L624.675,635.59L596.935,591.904L635.258,627.781ZM448.627,618.991C450.563,620.957 452.359,623.063 453.996,625.292L435.494,634.444L448.627,618.991ZM565.411,634.087C561.714,631.705 558.344,628.924 555.343,625.819L587.46,590.536L565.411,634.087ZM644.707,616.309C642.385,620.033 639.661,623.438 636.61,626.478L600.752,592.909L644.707,616.309ZM554.058,624.445C551.187,621.272 548.686,617.791 546.599,614.079L588,587.157L554.058,624.445ZM436.365,598.247C447.137,603.29 456.353,611.116 463.084,620.797L461.234,621.712C454.738,612.46 445.889,604.972 435.559,600.123L436.365,598.247ZM465.402,619.651C458.383,609.436 448.707,601.183 437.375,595.894L442.909,583.007L474.026,615.385L465.402,619.651ZM650.938,602.483C649.637,606.836 647.857,610.922 645.673,614.699L600.811,590.816L650.938,602.483ZM545.704,612.424C543.705,608.58 542.139,604.507 541.052,600.284L589.512,583.57L589.44,583.985L545.704,612.424ZM481.682,606.467L478,609.5L481.027,611.922L487.506,608.717C486.942,608.177 486.433,607.608 486,607C484.562,606.9 483.123,606.76 481.682,606.467ZM500.631,610.633L500.793,610.757C506.122,602.417 511.87,593.502 515.035,583C517.552,574.644 520.342,566.002 523.454,557.131C521.498,558.793 519.66,560.421 518,562C517.137,561.91 516.357,561.761 515.749,561.487C508.859,575.072 502.546,582.542 496.095,591.471C496.761,594.935 497.282,598.444 497.654,602C497.973,605.039 499.101,607.88 500.631,610.633ZM425.059,594.153L424.444,596.102C419.191,594.73 413.68,594 408,594C391.986,594 377.316,599.804 365.982,609.422L364.866,607.693C376.529,597.876 391.579,591.959 408,591.959C413.894,591.959 419.612,592.722 425.059,594.153ZM476.565,604.609C475.048,603.762 473.527,602.602 472,601C471.043,600.008 470.039,599.389 468.931,599.617L475,606L476.565,604.609ZM390.646,591.585L390,589L360.548,601L363.468,605.526C371.269,599.022 380.512,594.19 390.646,591.585ZM653.334,587.115L653.332,587.196C653.317,587.962 653.288,588.728 653.242,589.493C653.152,591.007 653,592.518 652.789,594.02C652.583,595.483 652.32,596.939 652.002,598.382C651.837,599.127 651.657,599.868 651.464,600.606L651.446,600.676L601.615,589.078L653.334,587.115ZM429.204,595.387C430.552,595.837 431.88,596.328 433.187,596.859L432.406,598.745C431.143,598.232 429.861,597.758 428.559,597.324L429.204,595.387ZM550.308,585.145C549.193,589.306 550.969,592.031 555.972,593.154L540.612,598.452C539.694,594.329 539.23,590.073 539.259,585.758L550.308,585.145ZM431,590L437.342,586.829L434.167,594.494C432.803,593.94 431.419,593.428 430.014,592.959L431,590ZM559.136,592.063C560.354,590.359 562.325,587.38 563.912,584.391L584.728,583.236L559.136,592.063ZM425.83,591.709L427,588L403,584L392,588L392.769,591.075C397.67,589.979 402.768,589.4 408,589.4C414.162,589.4 420.139,590.203 425.83,591.709ZM439.194,557.731C436.061,559.245 434.522,561.09 433.176,563.031L445,576L446,575.5L460.084,590.312C462.058,587.305 464.356,584.252 468,581C470.272,576.44 470.685,571.371 470,566C458.628,563.583 448.551,560.768 439.194,557.731ZM651.352,571.235C652.581,575.759 653.261,580.458 653.336,585.239L604.927,587.076L651.352,571.235ZM645.619,557.514C647.797,561.269 649.549,565.267 650.83,569.432L601.113,586.397L645.619,557.514ZM487.988,523.945C487.838,527.837 487.142,532.501 485.5,538.5C484.35,544.116 483.631,549.701 483.144,555.27C488.344,565.023 492.239,575.054 494.786,585.472C498.208,580.6 501.671,575.471 505.267,569.536C504.011,569.85 502.6,570.016 501,570C498.769,566.499 494.084,560.908 503.561,556C507.006,554.216 506.528,548.738 505,543C500.943,537.385 497.013,530.772 490,525.501C489.323,524.992 488.653,524.473 487.988,523.945ZM541.395,570.705L551.283,572.875C551.865,575.873 551.953,579.293 550.879,583.236L539.303,583.878C539.475,579.591 540.137,575.257 541.328,570.946C541.35,570.865 541.372,570.785 541.395,570.705ZM637.167,546.35C640.001,549.27 642.508,552.477 644.651,555.907L603.438,582.652L637.167,546.35ZM566.413,576.196L588.411,581.024L588.543,581.147L564.878,582.459C565.863,580.344 566.521,578.367 566.426,577C566.408,576.75 566.404,576.481 566.413,576.196ZM625.422,537.083C629.229,539.342 632.716,542.016 635.838,545.026L601.6,581.876L625.422,537.083ZM612.16,531.35L612.195,531.36C614.174,531.935 616.123,532.613 618.029,533.397C619.981,534.199 621.887,535.11 623.738,536.123L623.793,536.153L600.477,579.996L612.16,531.35ZM597.072,529.095C601.465,529.155 605.916,529.729 610.35,530.858L598.718,579.289L597.072,529.095ZM593.526,578.559L579.233,553.547C578.986,553.7 578.733,553.852 578.474,554C575.962,555.439 573.423,556.225 571.227,556.394L580.917,567.406L593.526,578.559ZM585.704,578.511L566.613,574.32C567.114,571.425 568.476,568.276 570,569L570,563.929L585.704,578.511ZM595.196,529.1L596.771,577.111L586.368,544.749C586.556,543.409 586.222,542.234 585.292,541.401L581.93,530.94C586.223,529.816 590.673,529.187 595.196,529.1ZM550.805,570.851L541.933,568.903C543.003,565.518 544.365,562.298 545.983,559.264C547.241,560.723 548.402,562.157 549.5,563.5L548.5,564.5C549.242,566.372 550.146,568.468 550.805,570.851ZM585.315,547.601L592.671,570.486L583.535,550.007L583.596,549.939C584.242,549.215 584.827,548.44 585.315,547.601ZM581.779,551.696L586.923,563.225L580.786,552.485C581.131,552.228 581.462,551.964 581.779,551.696ZM560.021,554.662C558.324,555.307 556.671,555.488 555.5,554.5L551.552,550.76C552.155,549.999 552.776,549.254 553.415,548.528L560.021,554.662ZM525.643,551C525.165,548.997 524.226,547.213 522.831,545.646C523.232,544.639 523.635,543.605 524.041,542.544C525.301,543.402 526.569,544.236 527.845,545.043C527.095,547.039 526.361,549.025 525.643,551ZM566.953,537.244L570,543C567.534,545.594 566.052,547.836 565.341,549.705L559.248,542.782C561.662,540.723 564.24,538.872 566.953,537.244ZM469.058,545.432C469.798,539.22 471.063,533.222 473,527.5C470.593,530.834 467.771,533.701 464,535.5C462.903,536.684 461.578,537.367 460,537.5L457.111,538.944C461.269,540.866 465.228,543.06 469.058,545.432ZM545.747,545.26L544.26,543.852C544.852,543.125 545.458,542.412 546.077,541.714L547.573,543.103C546.949,543.808 546.34,544.527 545.747,545.26ZM506.044,528.476L507,529.5C511.562,533.275 516.052,536.852 520.599,540.13C520.193,541.024 519.79,541.904 519.389,542.77C518.374,542.125 517.245,541.535 516,541C512.611,537.526 509.273,533.273 506.044,528.476ZM536.5,536.5L538.198,531.744L541,535L541,537L544.201,539.972C543.586,540.664 542.985,541.37 542.398,542.087L536.5,536.5ZM573.772,533.748L576.814,540.568C576.238,540.687 575.633,540.831 575,541L571.538,534.768C572.275,534.413 573.02,534.072 573.772,533.748ZM579.158,540.197L575.895,532.883C577.283,532.35 578.693,531.87 580.123,531.445L582.973,540.312C581.949,540.091 580.683,540.038 579.158,540.197ZM569.694,524.608L570.525,526.471C564.537,529.063 558.954,532.545 553.983,536.799L552.635,535.267C557.76,530.879 563.517,527.285 569.694,524.608ZM532.038,524.585L534.325,527.242L532.5,531.5L530,529L532.038,524.585ZM514.057,503.688L528.587,520.574L526.5,526L513,517C513.789,510.747 514.086,506.559 514.057,503.688ZM547.442,513.257L552.971,522.391L556.537,520.999L551.244,511.737L547.442,513.257ZM553.392,510.877L558.695,520.157L562.177,518.798L557.693,509.157L553.392,510.877ZM559.824,508.305L564.317,517.964L568.19,516.452L564.418,506.467L559.824,508.305ZM459.747,491.941C459.219,492.664 458.638,493.351 458,494C454.95,493.331 451.263,492.498 445,491C437.358,493.709 430.384,493.946 424,492C419.274,493.187 414.978,492.342 411,490C411.731,493.811 412.409,497.776 413,502C417.268,505.687 421.622,509.243 426,512C426.025,514.008 426.017,515.114 426,516C426.545,516.363 426.968,516.774 427.305,517.22L428.5,516.5C429.157,513.799 430.038,510.795 431.5,507C434.067,506.808 436.569,506.963 439,507.5C441.592,505.77 444.256,504.424 447,503.5C450.58,505.887 452.974,508.581 454.5,511.5C456.151,511.069 457.813,510.831 459.5,511C460.175,511.872 460.487,512.703 460.5,513.5C465.932,513.401 471.227,513.401 476.434,513.464C473.49,510.601 470.247,507.596 467,505.07C463.057,502.004 461.992,497.528 463,494C463.382,492.662 463.83,491.618 464.336,490.827C463.196,490.751 461.939,491.683 459.747,491.941ZM489.283,495.616C491.555,498.385 494.086,500.94 497.221,503C497.423,507.432 498.001,511.995 498.879,516.661C498.758,516.441 498.637,516.221 498.516,516C494.467,508.584 487.884,503.61 481,499C484.532,498.364 487.245,497.206 489.283,495.616ZM566.546,505.616L570.325,515.619L575.64,513.545L572.238,503.339L566.546,505.616ZM574.37,502.486L577.778,512.71L581.319,511.328L578.283,500.921L574.37,502.486ZM535.913,494.209L546.24,511.27L550.096,509.727L540.277,492.544L535.913,494.209ZM580.421,500.066L583.462,510.492L588.141,508.666L585.144,498.176L580.421,500.066ZM542.444,491.718L552.244,508.868L556.725,507.076L548.507,489.406L542.444,491.718ZM587.283,497.321L590.286,507.829L591.644,507.299L588.979,496.642L587.283,497.321ZM532.5,495.51L540.684,506.517L533.737,495.039L532.5,495.51ZM550.653,488.588L558.856,506.223L563.608,504.323L556.781,486.251L550.653,488.588ZM558.922,485.434L565.736,503.471L571.512,501.161L565.442,482.948L558.922,485.434ZM567.585,482.131L573.644,500.308L577.639,498.71L572.281,480.34L567.585,482.131ZM574.429,479.521L579.776,497.855L584.512,495.961L579.285,477.669L574.429,479.521ZM581.434,476.849L586.65,495.106L588.419,494.398L583.805,475.945L581.434,476.849ZM527.94,485.434L525.76,486.446L531.079,493.6L532.531,493.046L528.02,485.593C527.99,485.543 527.964,485.491 527.941,485.437L527.94,485.434ZM530.018,484.469L534.707,492.216L539.126,490.531L534.479,482.398L530.018,484.469ZM536.565,481.429L541.294,489.704L547.538,487.323L543.335,478.287L536.565,481.429ZM545.413,477.321L549.684,486.504L555.971,484.107L552.215,474.164L545.413,477.321ZM554.299,473.196L558.112,483.29L564.716,480.772L561.133,470.023L554.299,473.196ZM563.225,469.052L566.859,479.955L571.637,478.133L568.301,466.695L563.225,469.052ZM570.403,465.719L573.785,477.314L578.653,475.457L575.231,463.478L570.403,465.719ZM577.335,462.501L580.802,474.638L583.245,473.706L580.121,461.207L577.335,462.501ZM344.615,450.084C344.04,450.35 343.461,450.603 342.877,450.84C342.908,451.381 342.949,451.927 342.998,452.476C343.058,452.41 343.118,452.345 343.179,452.28C343.799,451.606 344.256,450.867 344.615,450.084ZM354.55,430.45C350.976,431.871 348.369,433.69 346.56,435.933C343.427,439.816 342.611,444.766 342.845,450.203C343.613,449.781 344.367,449.325 345.104,448.834C345.387,447.988 345.602,447.104 345.821,446.205C346.188,444.692 346.537,443.13 347.18,441.622C347.396,441.114 347.584,440.568 347.947,440.13C347.964,440.109 347.981,440.091 347.999,440.074C349.385,436.465 351.525,433.235 354.55,430.45ZM443.558,438.207C444.738,435.764 446.039,433.508 447.5,431.5C447.194,429.144 447.346,425.924 448,423.855C447.196,425.749 445.614,427.443 443.5,429C442.111,428.076 440.823,427.139 439.621,426.191C439.269,428.181 439.25,430.185 439.928,432.268C440.555,434.19 441.71,436.164 443.558,438.207ZM373.188,420.746C373.346,420.953 373.5,421.168 373.648,421.391C373.846,421.358 374.042,421.328 374.236,421.301L373.188,420.746ZM481.908,400.621C479.071,400.97 476.27,401.963 473.5,403.5C475.861,403.027 478.198,402.739 480.516,402.6C480.984,401.96 481.443,401.297 481.908,400.621ZM487.956,379.674C483.956,381.286 480.887,384.6 479.196,390C478.46,392.348 478.16,394.835 476.84,397.383C481.479,395.665 484.775,391.079 485.5,381C486.814,385.598 485.664,390.99 479.5,398C484.348,397.898 487.124,391.664 487.956,379.674ZM494.591,384.743C491.391,386.708 489.041,389.816 487.291,393.731C488.261,392.764 489.342,391.843 490.579,391C492.606,389.62 493.712,387.236 494.591,384.743ZM487.763,369.068C484.456,370.23 481.719,372.034 480.459,375C478.695,379.154 476.343,383.798 473,388.5C475.691,385.871 478.274,383.642 480.724,381.893C480.722,381.776 480.718,381.726 480.755,381.599C480.776,381.526 480.806,381.468 480.85,381.407C480.909,381.325 480.992,381.263 481.064,381.193C483.619,378.744 485.608,376.512 486.738,374.32C487.684,372.487 488.073,370.74 487.763,369.068ZM434.305,382.409C432.484,383.122 431.114,384.022 430.161,385.104C429.723,385.6 429.418,386.133 429.206,386.703C429.691,386.009 430.269,385.343 430.954,384.714C431.866,383.877 432.971,383.101 434.305,382.409ZM484.892,367.951C481.931,366.377 478.981,365.878 475.958,366.585C475.355,367.022 474.852,367.49 474.492,367.974C470.96,372.693 465.929,378.414 459.616,385.745C460.43,386.007 461.225,386.263 462,386.5C470.793,376.941 476.136,372.502 479.5,371C476.51,373.602 474.089,376.481 474,380.5C477.316,373.923 480.957,369.82 484.892,367.951ZM472.571,367.868C470.241,369.083 467.858,371.002 465.374,373.66C462.311,376.901 458.534,380.33 453.995,383.703C453.864,383.8 453.728,383.882 453.586,383.958C454.838,384.267 456.059,384.623 457.246,384.99C457.273,384.955 457.3,384.92 457.328,384.886C457.488,384.681 457.67,384.497 457.842,384.306C463.908,377.542 468.939,372.293 472.571,367.868ZM455.119,379.732C451.656,380.603 447.997,381.595 444.444,382.935C446.465,382.864 448.467,383.099 450.5,383.5C450.549,383.333 453.454,381.05 455.119,379.732ZM453.358,378.93C451.307,379.202 449.387,379.58 447.595,380.061C445.803,380.543 444.14,381.129 442.605,381.819C446.161,380.562 449.838,379.675 453.358,378.93Z" style="fill:white;"/>
    </g>
</svg>
