<?xml version="1.0" encoding="UTF-8" standalone="no"?>
<!DOCTYPE svg PUBLIC "-//W3C//DTD SVG 1.1//EN" "http://www.w3.org/Graphics/SVG/1.1/DTD/svg11.dtd">
<svg width="100%" height="100%" viewBox="0 0 1000 1000" version="1.1" xmlns="http://www.w3.org/2000/svg" xmlns:xlink="http://www.w3.org/1999/xlink" xml:space="preserve" xmlns:serif="http://www.serif.com/" style="fill-rule:evenodd;clip-rule:evenodd;stroke-linejoin:round;stroke-miterlimit:2;">
    <g transform="matrix(4.95234,0,0,4.95234,-2793.14,-1607.62)">
        <path d="M681.5,431.5C682.312,433.411 684.347,436.747 684.383,438.894C684.434,441.933 682.735,444.368 683.28,447.642C683.901,451.367 686.674,454.005 687.548,457.584C688.276,460.569 687.174,464.42 689.407,466.911C691.415,469.151 694.143,469.348 696.966,469.79C700.881,470.402 704.768,471.066 708.703,471.558C710.63,471.799 713.08,471.745 714.856,472.615C716.414,473.378 717.305,475.238 718.047,476.697C719.562,479.678 720.539,482.984 722.63,485.617C724.046,487.4 726.435,488.004 728.594,488.365C733.224,489.14 737.975,487.936 742.524,488.831C743.643,489.051 749.077,490.604 747.391,492.396C745.595,494.304 742.063,493.861 739.727,493.691C734.467,493.307 728.923,493.224 723.794,491.96C721.459,491.385 719.154,490.704 717.502,488.838C714.988,486 715.324,481.741 713.249,478.714C712.266,477.279 710.532,476.414 708.938,475.852C703.747,474.02 697.609,473.787 692.208,472.625C689.095,471.955 685.179,470.384 684.022,467.106C683.089,464.462 684.501,461.483 683.787,458.8C682.945,455.639 679.872,453.764 678.87,450.631C677.755,447.144 679.53,444.134 679.995,440.752C680.123,439.825 680.167,438.851 680.236,437.915C680.31,436.918 678.6,433.773 681.5,431.5ZM688.705,452.172C689.131,453.879 692.521,455.864 694,457C697.584,459.754 701.098,455.443 705.101,455.92C708.528,456.328 710.733,458.744 713.886,459.601C719.086,461.015 726.187,461.718 731.402,460.103C734.624,459.105 737.544,457.096 740.463,455.444C743.172,453.911 745.37,451.659 748.043,450.177C749.652,449.285 751.887,449.008 753.156,447.66C753.597,447.193 756,444.678 755.823,444.001C755.682,443.464 754.188,443.238 753.762,443.192C751.444,442.942 749.112,443.912 747.017,444.774C743.712,446.135 740.432,448.014 737.612,450.21C735.716,451.685 734.091,453.51 731.907,454.601C729.245,455.931 725.549,456.327 722.609,456.611C717.689,457.086 713.128,452.925 708.299,452.137C705.741,451.72 703.018,451.306 700.442,451.759C698.588,452.086 697.895,454.287 696,454C693.513,453.623 690.921,449.073 688.986,447.681C688.689,447.467 686.505,446.54 686.472,447.138C686.36,449.163 688.553,451.197 688.705,452.172ZM639.275,434.742C639.148,434.84 644.813,437.039 647,438C650.335,439.465 648.253,440.308 651.253,441.937C653.419,443.113 653.564,445.625 655.136,447.214C658.158,450.267 662.852,452.166 666.984,452.986C670.028,453.589 673.172,453.588 676.216,454.168C677.342,454.382 678.273,455.985 678.993,456.779C679.078,456.872 679.804,457.592 679.754,457.675C679.196,458.596 677.88,458.925 676.898,459.107C673.966,459.651 670.766,458.078 667.966,457.422C663.413,456.355 658.91,455.817 654.967,453.008C653.749,452.14 652.444,451.192 651.512,450.008C650.582,448.827 650.003,447.341 648.635,446.584C645.28,444.728 648.021,443.464 645,441C643.321,439.631 634.378,437.173 636.448,435.437C637.179,434.823 638.364,434.812 639.275,434.742ZM615.605,396.449C615.18,396.293 614.74,396.177 614.269,396.144C612.334,396.009 610.696,397.964 608.787,397.487C607.898,397.266 607.587,396.329 606.939,395.796C606.15,395.149 605.197,395.228 604.642,394.211C604.25,393.494 604.453,392.294 603.879,391.714C603.208,391.037 601.019,389.855 600.829,389.098C600.795,388.965 602.282,388.776 602.45,388.774C603.598,388.759 604.493,389.629 605.499,389.714C605.698,389.731 605.758,388.411 605.754,388.356C605.639,386.768 604.648,386.238 603.66,385.213C603.469,385.016 604.209,385.217 604.482,385.243C604.999,385.292 605.511,385.4 606.002,385.572C606.358,385.697 606.707,385.862 607.017,386.08C607.563,386.464 610.138,389.639 610.204,386.877C610.252,384.823 608.265,383.193 606.601,382.34C604.757,381.395 602.809,381.6 600.868,381.169C600.037,380.985 599.202,380.655 598.536,380.117C598.31,379.934 597.881,379.233 597.627,379.144C596.408,378.72 595.111,379.015 593.896,378.331C591.994,377.261 593.343,376.063 592.671,374.592C592.359,373.91 591.794,373.642 591.281,373.139C591.218,373.076 590.811,372.66 590.864,372.59C591.192,372.159 592.533,372.345 593.009,372.251C594.022,372.052 594.715,371.159 595.671,370.808C596.036,370.674 596.862,370.785 597.132,370.598C597.43,370.391 596.496,370.243 596.21,370.02C595.265,369.285 594.111,369.025 592.938,368.859C591.912,368.714 590.71,368.798 589.996,369.662C589.713,370.004 589.407,370.964 588.987,371.099C588.046,371.401 587.295,370.981 586.32,371.514C583.729,372.93 578.739,377.664 576.457,373.375C576.21,372.91 575.978,372.41 575.906,371.884C575.73,370.602 577.807,370.354 577.127,368.538C576.766,367.574 575.922,367.493 575.083,367.237C574.923,367.188 574.12,366.95 574.101,366.762C574.069,366.448 575.162,365.901 575.39,365.798C576.972,365.088 578.728,363.741 580.477,363.671C581.7,363.623 582.919,364.563 583.436,365.632C583.632,366.037 583.185,366.753 583.577,366.975C584.174,367.314 585.364,366.845 585.922,366.685C586.383,366.553 586.852,366.38 587.251,366.112C588.404,365.335 586.834,364.949 586.072,364.345C585.997,364.286 585.473,363.905 585.495,363.832C585.51,363.782 586.601,363.385 586.727,363.284C587.317,362.807 587.598,362.093 588.381,361.826C590.218,361.197 591.307,363.119 593.16,362.918C593.376,362.894 593.591,362.851 593.798,362.786C595.055,362.392 593.963,361.799 594.341,360.881C594.489,360.523 595.744,360.387 596.016,360.363C596.332,360.336 596.661,360.332 596.968,360.423C597.779,360.663 599.132,361.693 599.476,362.39C599.599,362.638 599.341,363.108 599.556,363.438C599.892,363.951 600.482,364.18 600.918,364.587C602.164,365.749 603.085,367.161 605.128,366.994C605.744,366.944 606.138,366.296 606.673,366.037C607.505,365.634 609.597,366.191 610.132,365.155C610.164,365.093 609.357,364.215 609.282,364.115C608.076,362.495 608.343,361.607 610.282,361.731C612.841,361.894 618.261,363.578 616.775,367.177C616.761,367.212 617.701,367.408 617.737,367.414C618.768,367.594 619.971,367.857 621.012,367.723C621.348,367.679 621.696,367.597 621.966,367.379C622.16,367.222 621.706,366.344 622.125,366.333C623.451,366.295 625.788,367.852 626.845,366.924C627.49,366.358 627.855,365.43 628.408,364.779C628.832,364.281 629.518,363.898 629.762,363.269C629.952,362.782 629.616,361.904 629.678,361.352C629.892,359.449 631.561,358.803 633.225,358.417C636.613,357.632 639.776,358.438 643.118,358.128C644.809,357.97 646.631,357.105 648.318,357.345C649.928,357.574 651.109,359.01 652.847,359.156C653.956,359.249 653.423,358.405 654.403,357.81C655.182,357.337 656.539,357.585 657.385,357.747C658.831,358.022 660.563,358.588 661.855,359.292C663.081,359.96 663.977,360.853 665.435,361.071C667.504,361.38 669.423,359.447 671.331,358.916C672.847,358.494 674.845,359.293 676.28,359.84C678.736,360.776 677.262,364.441 679.114,365.392C679.982,365.838 680.45,365.13 681.142,364.72C682.116,364.142 684.135,363.765 685.035,364.701C685.233,364.907 685.042,366.048 685.031,366.312C684.956,368.159 685.186,369.522 687.207,369.634C687.27,369.637 688.06,369.667 688.068,369.588C688.213,368.157 688.782,365.407 689.851,364.181C690.075,363.924 690.168,364.794 690.397,365.047C690.788,365.477 691.41,365.699 691.92,365.943C693.496,366.699 693.938,367.615 695.049,368.699C696.426,370.043 697.897,371.152 698.795,372.942C699.235,373.818 699.832,375.782 698.86,376.544C698.35,376.943 696.667,375.833 696.7,377.27C696.729,378.518 698.169,378.847 698.728,379.812C699.197,380.62 698.846,381.466 699.08,382.336C699.403,383.536 700.344,384.481 700.428,385.756C700.592,388.226 698.571,388.356 697.936,390.181C697.442,391.601 697.654,393.188 697.952,394.716C698.632,394.457 699.287,394.136 699.87,393.784C699.994,393.709 701.042,392.892 701.243,393.034C702.259,393.756 702.06,395.43 701.843,396.466C701.448,398.347 700.321,399.315 699.577,400.971C698.828,402.634 698.659,404.251 697.335,405.638C696.403,406.615 695.142,407.209 694.244,408.204C692.739,409.871 693.641,412.195 692.618,414.089C692.052,415.137 691.238,415.592 690.151,416.013C689.255,416.36 688.544,416.375 688.031,417.331C687.599,418.134 687.353,419.312 687.588,420.211C687.704,420.658 688.02,421.018 688.061,421.49C688.124,422.198 687.771,423.039 687.513,423.687C686.988,425.006 685.812,427.554 684.152,427.779C683.264,427.9 683.166,426.955 682.071,427.68C680.539,428.695 680.269,430.701 678.873,431.786C678.366,432.179 677.82,431.956 677.215,431.89C675.784,431.735 674.581,432.4 673.198,432.468C673.111,432.472 673.285,432.318 673.33,432.244C673.448,432.053 673.571,431.866 673.699,431.682C674.05,431.176 674.365,430.645 674.714,430.137C675.641,428.788 676.461,426.583 676.358,424.948C676.338,424.618 676.258,424.292 676.16,423.976C675.799,422.81 674.855,422.293 673.701,422.907C673.346,423.096 672.809,423.763 672.409,423.881C671.665,424.1 671.02,422.816 670.853,422.318C670.019,419.832 671.186,418.666 672.466,416.705C672.923,416.005 673.775,414.509 673.076,413.672L672.036,413.029C671.374,413.029 670.797,413.204 670.292,413.655C669.771,414.12 669.543,414.817 668.715,414.701C667.897,414.586 667.144,414.171 666.367,413.915C665.654,413.681 664.881,413.603 664.231,413.208C663.432,412.721 662.613,411.602 661.706,411.397C660.087,411.03 659.215,412.979 657.624,412.654C656.127,412.349 655.361,410.756 653.73,410.919C652.03,411.088 652.137,413.517 650.293,413.699C649.55,413.773 648.172,413.69 647.445,413.4C645.704,412.706 645.054,411.419 642.921,412.247C642.599,412.373 642.217,412.48 641.967,412.735C640.936,413.787 642.623,415.279 643.646,415.664C643.975,415.787 644.389,415.842 644.655,416.093C645.101,416.515 645.27,417.185 645.661,417.66C645.879,417.925 646.712,418.368 646.637,418.805C646.494,419.647 646.125,419.974 645.582,420.644C645.194,421.122 644.467,422.955 643.774,423.035C642.258,423.209 640.897,420.562 639.266,421.971C639.061,422.148 638.903,422.374 638.773,422.61C637.819,424.336 638.116,426.916 638.584,428.739C638.957,430.187 640.356,432.236 637.938,432.668C637.352,432.773 636.67,432.301 636.083,432.265C634.659,432.176 632.842,432.932 631.681,431.716C630.872,430.868 630.85,429.313 629.941,428.585C628.98,427.816 627.678,428.643 626.939,427.348C626.219,426.087 627.318,425.059 627.002,423.854C626.687,422.653 625.473,421.863 625.144,420.612C624.763,419.161 626.299,417.225 625.437,415.958C624.832,415.07 623.341,415.375 622.487,415.394C620.62,415.436 619.04,415.326 617.419,414.376C616.055,413.576 614.853,411.948 614.561,410.414C614.292,409.002 614.469,407.53 614.151,406.117C614.027,405.569 613.339,405.346 612.887,405.178C612.088,404.88 611.025,404.442 610.737,403.536C610.552,402.953 611.162,402.224 611.498,401.825C612.473,400.668 614.408,399.946 615.019,398.522C615.282,397.911 615.37,397.13 615.605,396.449ZM648.042,417.614C647.988,417.524 647.927,417.436 647.859,417.35C647.642,417.073 647.094,416.621 646.949,416.504C646.807,416.308 646.718,416.069 646.599,415.853C646.39,415.477 646.147,415.129 645.841,414.839C645.412,414.433 644.786,414.248 644.254,414.048C644.143,414.006 643.988,413.893 643.838,413.767C644.434,413.636 644.783,413.905 645.202,414.161C645.673,414.45 646.182,414.756 646.805,415.004C647.74,415.377 649.508,415.512 650.463,415.417C651.783,415.286 652.589,414.583 653.222,413.683C653.39,413.444 653.543,413.19 653.704,412.949C653.769,412.85 653.897,412.694 653.947,412.634C654.108,412.632 654.237,412.704 654.361,412.776C654.603,412.917 654.829,413.092 655.061,413.261L655.087,413.28C655.03,413.511 655,413.752 655,414C655,415.656 656.344,417 658,417C659.656,417 661,415.656 661,414C661,413.744 660.968,413.495 660.907,413.257C661.036,413.165 661.154,413.042 661.325,413.081C661.616,413.147 661.837,413.462 662.102,413.701C662.517,414.076 662.931,414.437 663.333,414.682C664.097,415.147 664.99,415.28 665.828,415.555C666.701,415.842 667.556,416.282 668.475,416.411C669.546,416.561 670.234,416.201 670.818,415.638C671.017,415.446 671.18,415.19 671.402,414.979C671.276,415.27 671.121,415.607 671.02,415.762C670.529,416.514 670.072,417.178 669.704,417.827C662.484,418.523 655.263,418.376 648.042,417.614Z" style="fill:white;"/>
    </g>
</svg>
