<?xml version="1.0" encoding="UTF-8" standalone="no"?>
<!DOCTYPE svg PUBLIC "-//W3C//DTD SVG 1.1//EN" "http://www.w3.org/Graphics/SVG/1.1/DTD/svg11.dtd">
<svg width="100%" height="100%" viewBox="0 0 1000 1000" version="1.1" xmlns="http://www.w3.org/2000/svg" xmlns:xlink="http://www.w3.org/1999/xlink" xml:space="preserve" xmlns:serif="http://www.serif.com/" style="fill-rule:evenodd;clip-rule:evenodd;stroke-linejoin:round;stroke-miterlimit:2;">
    <g transform="matrix(1.66667,0,0,1.66667,-333.333,16.4674)">
        <path d="M515,458L527,452L540,459L547,450C552.917,456.325 559.163,460.811 566,462C567.229,455.4 564.911,448.361 560,441L545,349C548.864,342.988 549.423,339.168 549,336C539.951,334.818 532.967,338.389 526,342L515,336L500,342.563L485,336L474,342C467.033,338.389 460.049,334.818 451,336C450.577,339.168 451.136,342.988 455,349L440,441C435.089,448.361 432.771,455.4 434,462C440.837,460.811 447.083,456.325 453,450L460,459L473,452L485,458L500,449.563L515,458ZM490.805,414L479,429L468,413L460,426L468,371L473,383L481.609,364L490,381L500,362.818L510,381L518.391,364L527,383L532,371L540,426L532,413L521,429L509.195,414L500,425.725L490.805,414ZM346,395C340.238,384.02 349.227,354.138 350,315.5C350.128,309.097 335.74,314.051 324,315.5C324,306 338.142,294.171 350,285C341.497,268.17 339.982,250.307 355,230C359.249,245.475 366.543,257.26 378,264C379.694,248.42 381.684,232.904 396,220C401,220 397.653,233.725 399.622,240C401.342,245.478 403.534,250.724 405.915,255.907C410.426,265.73 423.655,267.999 430,276.385C442.104,292.383 449.814,304.353 460,300C466.632,301.583 462.27,304.778 450.166,320C432.577,342.12 397.434,342.2 374.629,345.103C368.662,345.863 365.356,353.509 361.961,360C355.929,371.53 351.824,386.188 346,395ZM654,395C659.762,384.02 650.773,354.138 650,315.5C649.872,309.097 664.26,314.051 676,315.5C676,306 661.858,294.171 650,285C658.503,268.17 660.018,250.307 645,230C640.751,245.475 633.457,257.26 622,264C620.306,248.42 618.316,232.904 604,220C599,220 602.347,233.725 600.378,240C598.658,245.478 596.466,250.724 594.085,255.907C589.574,265.73 576.345,267.999 570,276.385C557.896,292.383 550.186,304.353 540,300C533.368,301.583 537.73,304.778 549.834,320C567.423,342.12 602.566,342.2 625.371,345.103C631.338,345.863 634.644,353.509 638.039,360C644.071,371.53 648.176,386.188 654,395ZM667.487,210.009C653.848,193.246 638.076,178.008 620,164C660.181,139.303 700.245,115.788 740,110C766.182,152.284 746.348,211.592 748.205,260C748.562,269.303 761.273,274.225 770,280C750.35,287.46 740.861,296.907 750,310C733.995,304.628 726.394,314.748 727,340C721.598,315.058 714.346,292.323 705.065,271.484C725.681,224.226 733.318,180.587 730,140C704.457,154.444 683.519,177.588 667.487,210.009ZM332.513,210.009C346.152,193.246 361.924,178.008 380,164C339.819,139.303 299.755,115.788 260,110C233.818,152.284 253.652,211.592 251.795,260C251.438,269.303 238.727,274.225 230,280C249.65,287.46 259.139,296.907 250,310C266.005,304.628 273.606,314.748 273,340C278.402,315.058 285.654,292.323 294.935,271.484C274.319,224.226 266.682,180.587 270,140C295.543,154.444 316.481,177.588 332.513,210.009ZM500,313L500,334C519.173,327 522.18,319.238 514.42,315.5C511.268,313.982 506.341,313.798 500,313ZM500,313L500,334C480.827,327 477.82,319.238 485.58,315.5C488.732,313.982 493.659,313.798 500,313ZM564,315.5C588.211,329.189 608.766,335.609 620,323.5C625.064,319.705 626.44,318.176 626.506,315.5C626.836,302.084 620.003,283.891 600,283.119C597.977,283.041 592.059,284.607 584.969,290C577.441,295.726 568.967,304.596 564,315.5ZM436,315.5C411.789,329.189 391.234,335.609 380,323.5C374.936,319.705 373.56,318.176 373.494,315.5C373.164,302.084 379.997,283.891 400,283.119C402.023,283.041 407.941,284.607 415.031,290C422.559,295.726 431.033,304.596 436,315.5ZM498.362,470.035C359.376,472.859 291.014,446.284 270,400C288.673,237.363 359.643,143.234 500,140L500.822,140.02C640.641,143.611 711.365,237.688 730,400C708.903,446.465 640.088,473.067 500,470L498.362,470.035Z" style="fill:white;"/>
    </g>
</svg>
