<?xml version="1.0" encoding="UTF-8" standalone="no"?>
<!DOCTYPE svg PUBLIC "-//W3C//DTD SVG 1.1//EN" "http://www.w3.org/Graphics/SVG/1.1/DTD/svg11.dtd">
<svg width="100%" height="100%" viewBox="0 0 1000 1000" version="1.1" xmlns="http://www.w3.org/2000/svg" xmlns:xlink="http://www.w3.org/1999/xlink" xml:space="preserve" xmlns:serif="http://www.serif.com/" style="fill-rule:evenodd;clip-rule:evenodd;stroke-linejoin:round;stroke-miterlimit:2;">
    <g transform="matrix(0.960597,0,0,0.960597,-22.0476,22.1427)">
        <path d="M372.548,531.781C305.949,480.491 263,399.952 263,309.461C263,154.671 388.671,29 543.461,29C698.252,29 823.923,154.671 823.923,309.461C823.923,438.356 736.784,547.058 618.27,579.818L620,580C822.281,666.536 831.531,699.662 650,680C680.985,730 687.647,780 690,830C752.358,949.541 704.416,939.102 620,885.681L525.346,900C509.056,1005.67 470.73,975.946 420,870C379.407,790.052 377.493,710.045 400,630C306.603,575.841 269.722,531.171 280,516.887C287.679,506.214 318.553,508.52 372.548,531.781ZM466.481,436.244C461.183,443.136 455.777,455.205 455.786,465.482C455.795,474.362 459.493,481.973 469.353,485.042C474.989,486.797 480.028,486.848 485.026,486.426C489.428,486.054 493.79,485.282 498.601,485.282C500.808,485.282 502.601,483.49 502.601,481.282C502.601,479.074 500.808,477.282 498.601,477.282C493.552,477.282 488.972,478.064 484.352,478.454C480.329,478.794 476.268,478.816 471.731,477.404C465.794,475.556 463.791,470.821 463.786,465.474C463.777,455.829 469.556,444.273 474.399,439.268C475.019,438.627 476.186,437.086 475.172,434.788C475.001,434.4 473.762,432.72 473.38,432.207C471.923,429.255 470.67,426.003 469.669,422.789C468.76,419.867 469.229,416.726 470.116,413.732C471.158,410.216 472.828,406.884 474.209,404.162C474.895,402.812 476.132,402.092 477.596,401.721C479.714,401.183 482.237,401.318 484.854,401.812C490.118,402.807 495.716,405.321 499.603,408.105C501.54,409.493 503.135,410.759 503.482,412.049C504.056,414.18 506.252,415.445 508.384,414.872C510.516,414.298 511.781,412.102 511.207,409.97C510.665,407.956 509.082,405.609 506.544,403.398C501.895,399.348 493.846,395.37 486.339,393.951C477.889,392.355 470.279,394.231 467.076,400.541C463.721,407.15 459.437,416.836 462.031,425.167C463.188,428.884 464.651,432.642 466.349,436.037C466.366,436.072 466.413,436.145 466.481,436.244ZM640,315C659.317,315 675,330.683 675,350C675,369.317 659.317,385 640,385C620.683,385 605,369.317 605,350C605,330.683 620.683,315 640,315ZM415,260C434.317,260 450,275.683 450,295C450,314.317 434.317,330 415,330C395.683,330 380,314.317 380,295C380,275.683 395.683,260 415,260Z" style="fill:white;"/>
    </g>
</svg>
