<?xml version="1.0" encoding="UTF-8" standalone="no"?>
<!DOCTYPE svg PUBLIC "-//W3C//DTD SVG 1.1//EN" "http://www.w3.org/Graphics/SVG/1.1/DTD/svg11.dtd">
<svg width="100%" height="100%" viewBox="0 0 1000 1000" version="1.1" xmlns="http://www.w3.org/2000/svg" xmlns:xlink="http://www.w3.org/1999/xlink" xml:space="preserve" xmlns:serif="http://www.serif.com/" style="fill-rule:evenodd;clip-rule:evenodd;stroke-linejoin:round;stroke-miterlimit:2;">
    <g transform="matrix(-1.66042,0,0,1.66042,1262.35,-521.276)">
        <path d="M678.354,854.297C658.688,829.749 651.192,807.951 670.111,781.646C671.789,779.313 675.047,778.781 677.38,780.459C679.714,782.138 680.246,785.395 678.567,787.728C663.05,809.304 669.89,827.013 685.77,846.938C695.64,835.683 700.496,822.979 700,810.201C697.428,743.999 591.503,735.041 470,670.639C309.324,585.474 303.801,445.327 340,415.611L355,423C369.533,385.814 368.089,381.378 359,377L294,348C267.674,334.649 265.874,357.072 258,387L282,398C274.648,428.752 272.003,476.779 266.291,484.545C156.972,633.18 262.802,785.161 370.134,834.925C526.565,907.453 634.641,892.332 678.354,854.297ZM615.376,784.812C615.376,784.812 544.391,778.64 511.997,765.19C468.185,746.998 396.226,709.745 353.221,675.907C340.213,665.672 330.185,645.165 322.579,624.393C310.796,592.212 305.134,559.122 305.134,559.122C304.649,556.288 301.955,554.382 299.122,554.866C296.288,555.351 294.382,558.045 294.866,560.878C294.866,560.878 300.685,594.894 312.797,627.975C321.122,650.711 332.542,672.891 346.779,684.093C390.454,718.458 463.508,756.335 508.003,774.81C541.371,788.665 614.462,795.188 614.462,795.188C617.326,795.441 619.855,793.321 620.108,790.457C620.36,787.594 618.24,785.064 615.376,784.812Z" style="fill:white;"/>
    </g>
</svg>
