<?xml version="1.0" encoding="UTF-8" standalone="no"?>
<!DOCTYPE svg PUBLIC "-//W3C//DTD SVG 1.1//EN" "http://www.w3.org/Graphics/SVG/1.1/DTD/svg11.dtd">
<svg width="100%" height="100%" viewBox="0 0 1000 1000" version="1.1" xmlns="http://www.w3.org/2000/svg" xmlns:xlink="http://www.w3.org/1999/xlink" xml:space="preserve" xmlns:serif="http://www.serif.com/" style="fill-rule:evenodd;clip-rule:evenodd;stroke-linejoin:round;stroke-miterlimit:2;">
    <g transform="matrix(5.26316,0,0,5.26316,-2792.11,-2040.93)">
        <path d="M608.831,541L566,541L566,544L608.78,544C608.719,544.796 608.625,545.631 608.5,546.5C617.104,555.251 623.348,557.304 627,552C626.997,554.667 626.542,557.333 625.5,560C629.949,561.164 634.271,561.793 636,559.312C638.602,555.577 640.266,550.824 641.5,546C641.72,545.142 642.039,544.492 642.42,544L650.07,544C650.897,544.936 651.383,546.291 651,548C649.873,553.033 650.164,556.541 650.5,560C655.143,560.39 657.748,560.09 659.5,559.5C665.845,557.129 668.19,553.757 669,550C673.327,550.21 677.659,550.249 682,550C685.421,547.372 691.5,549.5 692.5,548C693.116,547.075 692.49,545.594 691.162,544L711,544L711,456L710,447L709,456L709,541L688,541C685.563,539.087 686.933,537.079 692.5,535C697.677,534.206 694.02,530.329 690.5,526.5C674.69,510.887 666.409,491.064 667.5,466C671.769,480.561 688.015,510.045 692.5,513.5C693.63,521.637 701.156,518.331 703.5,516.233C705.174,514.735 706.076,511.481 706,506C707.427,506.336 707.071,498.583 707.071,489.251C705.471,498.276 702.916,504.255 696.362,506.861C695.729,505.406 693.54,501.587 689.68,496C684.771,488.895 679.905,476.327 675,466C672.595,459.654 670.303,453.266 665,448C667.455,443.514 670.312,438.5 668.565,434C666.686,429.16 668.019,426.071 667,422C670.5,419.142 668.673,413.63 667,411.172C664.5,407.499 658.66,401.822 651,406C639.298,400.177 634.469,413.221 631,430L627.5,437C623.28,445.164 626.97,446.187 634,448.5C631.754,451.41 629.274,455.596 628.827,461C628.178,468.837 625.338,477.709 624.459,487C623.204,500.275 613.45,511.213 601,515.354C590.867,518.725 589.537,520.897 590.5,523C595.164,526.379 595.492,529.439 589,532C590.441,533.995 591.642,536.693 594,537.304C597.294,538.157 599.966,538.801 601.688,538C603.316,537.243 603.213,534.323 606,535.38C607.811,536.067 608.672,538.096 608.831,541ZM607,420C601.141,420.36 594.357,423.362 585,433.721C562.265,425.212 548.019,427.931 540,439.221C554.011,432.141 573.944,431.651 582,440.721C584.239,442.111 585.026,443.121 587.5,442.215C589.38,441.526 589.205,440.702 589.5,438.721C590.753,430.322 597.751,425.161 607,420Z" style="fill:white;"/>
    </g>
</svg>
