<?xml version="1.0" encoding="UTF-8" standalone="no"?>
<!DOCTYPE svg PUBLIC "-//W3C//DTD SVG 1.1//EN" "http://www.w3.org/Graphics/SVG/1.1/DTD/svg11.dtd">
<svg width="100%" height="100%" viewBox="0 0 1000 1000" version="1.1" xmlns="http://www.w3.org/2000/svg" xmlns:xlink="http://www.w3.org/1999/xlink" xml:space="preserve" xmlns:serif="http://www.serif.com/" style="fill-rule:evenodd;clip-rule:evenodd;stroke-linejoin:round;stroke-miterlimit:2;">
    <g transform="matrix(7.04678,0,0,7.04678,-3735.16,-3194.13)">
        <path d="M616.068,507.447L635.942,482.195L634.706,514.306L664.864,525.404L633.943,534.152L632.707,566.264L614.832,539.559L586.664,547.528L585.943,566.264L568.068,539.559L537.147,548.307L557.021,523.054L539.146,496.349L569.304,507.447L589.178,482.195L588.595,497.338L616.068,507.447ZM631.984,492.951L631.167,514.17C631.108,515.703 632.043,517.1 633.483,517.63L653.412,524.964C653.412,524.964 632.979,530.744 632.979,530.744C631.502,531.162 630.463,532.483 630.404,534.016L629.587,555.235C629.587,555.235 617.775,537.589 617.775,537.589C616.922,536.314 615.344,535.733 613.868,536.151L593.435,541.931C593.435,541.931 606.568,525.245 606.568,525.245C607.517,524.039 607.581,522.359 606.728,521.084L594.916,503.437C594.916,503.437 614.845,510.771 614.845,510.771C616.285,511.301 617.902,510.843 618.851,509.638L631.984,492.951ZM586.719,517.63L603.263,523.718L601.032,526.553L586.215,530.744C584.738,531.162 583.699,532.483 583.64,534.016L582.823,555.235C582.823,555.235 571.011,537.589 571.011,537.589C570.158,536.314 568.581,535.733 567.104,536.151L546.671,541.931C546.671,541.931 559.804,525.245 559.804,525.245C560.753,524.039 560.818,522.359 559.964,521.084L548.152,503.437C548.152,503.437 568.081,510.771 568.081,510.771C569.521,511.301 571.138,510.843 572.087,509.638L585.22,492.951L584.403,514.17C584.344,515.703 585.279,517.1 586.719,517.63ZM597.305,531.287L586.774,544.668L587.179,534.152L597.305,531.287ZM587.942,514.306L588.485,500.197L601.193,519.182L587.942,514.306Z" style="fill:white;"/>
    </g>
</svg>
