<?xml version="1.0" encoding="UTF-8" standalone="no"?>
<!DOCTYPE svg PUBLIC "-//W3C//DTD SVG 1.1//EN" "http://www.w3.org/Graphics/SVG/1.1/DTD/svg11.dtd">
<svg width="100%" height="100%" viewBox="0 0 1000 1000" version="1.1" xmlns="http://www.w3.org/2000/svg" xmlns:xlink="http://www.w3.org/1999/xlink" xml:space="preserve" xmlns:serif="http://www.serif.com/" style="fill-rule:evenodd;clip-rule:evenodd;stroke-linejoin:round;stroke-miterlimit:2;">
    <g transform="matrix(1.16887,0,0,1.16887,-24.8217,5.78088)">
        <path d="M449,258.918C448.403,258.918 447.918,259.403 447.918,260C447.918,260 447.446,269.826 446.848,285.272C446.441,295.773 445.922,308.839 445.515,323.179C445.284,331.285 445.096,339.786 444.968,348.45C444.886,354.023 444.827,359.66 444.837,365.298C444.846,370.936 444.928,376.573 445.026,382.145C445.18,390.81 445.392,399.31 445.636,407.417C446.619,440.038 447.727,466.162 447.896,470.086C400.59,473.834 362.007,484.748 346.498,512.581C343.262,511.983 339.91,511.397 336.489,510.844C333.856,510.417 331.19,510.005 328.513,509.662C325.836,509.32 323.152,509.047 320.497,508.8C316.362,508.415 312.308,508.102 308.429,507.853C301.551,507.41 295.31,507.157 290.265,506.941C282.831,506.624 278.133,506.514 278.133,506.514C277.541,506.441 277,506.862 276.926,507.455C276.852,508.048 277.274,508.589 277.867,508.662C277.867,508.662 282.449,509.704 289.735,511.214C294.68,512.238 300.793,513.518 307.571,514.771C311.393,515.477 315.4,516.164 319.503,516.802C322.139,517.212 324.808,517.603 327.487,517.926C330.167,518.248 332.853,518.5 335.511,518.73C338.157,518.96 340.77,519.161 343.325,519.338C340.063,527.736 338.633,537.468 339.334,548.741L339.195,548.732C335.829,548.502 332.307,548.313 328.705,548.185C326.392,548.103 324.052,548.044 321.711,548.054C319.369,548.064 317.03,548.145 314.717,548.244C311.113,548.397 307.594,548.609 304.227,548.854C289.463,549.925 278,551.135 278,551.135C277.403,551.135 276.918,551.62 276.918,552.217C276.918,552.815 277.403,553.3 278,553.3C278,553.3 289.463,554.51 304.227,555.581C307.594,555.825 311.113,556.037 314.717,556.191C317.03,556.289 319.369,556.371 321.711,556.381C324.052,556.39 326.392,556.331 328.705,556.249C332.307,556.122 335.829,555.933 339.195,555.703L340.006,555.646C340.721,561.095 341.897,566.883 343.562,573.023L342.627,572.977C330.9,572.408 319.363,571.906 308.001,571.404C290.274,570.621 272.981,569.859 256.048,569.03C229.217,567.717 203.328,566.378 178.102,564.674C177.507,564.617 176.979,565.054 176.923,565.649C176.866,566.244 177.304,566.772 177.898,566.828C190.052,568.331 202.35,569.818 214.861,571.195C232.959,573.187 251.442,575.067 270.435,576.687C282.604,577.724 294.972,578.652 307.568,579.456C315.733,579.977 323.993,580.449 332.355,580.821C340.527,581.186 348.796,581.452 357.165,581.668C369.359,581.982 381.761,582.175 394.395,582.245C412.138,582.344 430.319,582.212 449,581.908L452.497,581.963C469.952,582.227 486.971,582.338 503.605,582.245C516.239,582.175 528.641,581.982 540.835,581.668C549.204,581.452 557.473,581.186 565.645,580.821C574.007,580.449 582.267,579.977 590.432,579.456C603.028,578.652 615.396,577.724 627.565,576.687C646.558,575.067 665.041,573.187 683.139,571.195C695.65,569.818 707.948,568.331 720.102,566.828C720.696,566.772 721.134,566.244 721.077,565.649C721.021,565.054 720.493,564.617 719.898,564.674C694.672,566.378 668.783,567.717 641.952,569.03C625.019,569.859 607.726,570.621 589.999,571.404C578.637,571.906 567.1,572.408 555.373,572.977L554.438,573.023C556.103,566.883 557.279,561.095 557.994,555.646L558.805,555.703C562.171,555.933 565.693,556.122 569.295,556.249C571.608,556.331 573.948,556.39 576.289,556.381C578.631,556.371 580.97,556.289 583.283,556.191C586.887,556.037 590.406,555.825 593.773,555.581C608.537,554.51 620,553.3 620,553.3C620.597,553.3 621.082,552.815 621.082,552.217C621.082,551.62 620.597,551.135 620,551.135C620,551.135 608.537,549.925 593.773,548.854C590.406,548.609 586.887,548.397 583.283,548.244C580.97,548.145 578.631,548.064 576.289,548.054C573.948,548.044 571.608,548.103 569.295,548.185C565.693,548.313 562.171,548.502 558.805,548.732L558.666,548.741C559.367,537.468 557.937,527.736 554.675,519.338C557.23,519.161 559.843,518.96 562.489,518.73C565.147,518.5 567.833,518.248 570.513,517.926C573.192,517.603 575.861,517.212 578.497,516.802C582.6,516.164 586.607,515.477 590.429,514.771C597.207,513.518 603.32,512.238 608.265,511.214C615.551,509.704 620.133,508.662 620.133,508.662C620.726,508.589 621.148,508.048 621.074,507.455C621,506.862 620.459,506.441 619.867,506.514C619.867,506.514 615.169,506.624 607.735,506.941C602.69,507.157 596.449,507.41 589.571,507.853C585.692,508.102 581.638,508.415 577.503,508.8C574.848,509.047 572.164,509.32 569.487,509.662C566.81,510.005 564.144,510.417 561.511,510.844C558.09,511.397 554.738,511.983 551.502,512.581C535.993,484.748 497.41,473.834 450.104,470.086C450.273,466.162 451.381,440.038 452.364,407.417C452.608,399.31 452.82,390.81 452.974,382.145C453.072,376.573 453.154,370.936 453.163,365.298C453.173,359.66 453.114,354.023 453.032,348.45C452.904,339.786 452.716,331.285 452.485,323.179C452.078,308.839 451.559,295.773 451.152,285.272C450.554,269.826 450.082,260 450.082,260C450.082,259.421 449.627,258.948 449.056,258.919L449,258.918ZM666.967,435.44C671.679,443.409 675.719,452.331 679.52,462.203C681.776,468.063 683.875,474.241 685.947,480.757C687.391,485.299 688.79,490.001 690.24,494.848C691.613,499.437 693.054,504.139 694.441,509.012C696.398,515.887 698.332,523.029 700.162,530.534C701.873,537.545 703.567,544.776 705.109,552.363C705.189,552.955 705.735,553.37 706.327,553.29C706.919,553.209 707.334,552.663 707.254,552.072C706.267,538.773 704.964,526.35 703.013,514.699C702.157,509.59 701.169,504.657 700.056,499.879C699.278,496.538 698.44,493.278 697.503,490.112C696.528,486.815 695.449,483.62 694.313,480.518C692.516,475.61 690.573,470.94 688.513,466.484C686.876,462.945 685.163,459.565 683.373,456.313C678.84,448.076 673.943,440.775 668.751,434.216C668.414,433.723 667.739,433.597 667.247,433.935C666.754,434.273 666.629,434.947 666.967,435.44ZM231.033,435.44C226.321,443.409 222.281,452.331 218.48,462.203C216.224,468.063 214.125,474.241 212.053,480.757C210.609,485.299 209.21,490.001 207.76,494.848C206.387,499.437 204.946,504.139 203.559,509.012C201.602,515.887 199.668,523.029 197.838,530.534C196.127,537.545 194.433,544.776 192.891,552.363C192.811,552.955 192.265,553.37 191.673,553.29C191.081,553.209 190.666,552.663 190.746,552.072C191.733,538.773 193.036,526.35 194.987,514.699C195.843,509.59 196.831,504.657 197.944,499.879C198.722,496.538 199.56,493.278 200.497,490.112C201.472,486.815 202.551,483.62 203.687,480.518C205.484,475.61 207.427,470.94 209.487,466.484C211.124,462.945 212.837,459.565 214.627,456.313C219.16,448.076 224.057,440.775 229.249,434.216C229.586,433.723 230.261,433.597 230.753,433.935C231.246,434.273 231.371,434.947 231.033,435.44ZM448.236,524.99C416.037,524.626 399.729,514.263 399.522,500C399.383,490.445 418.249,480.221 449,480.004L449.719,480.011C480.044,480.38 498.616,490.52 498.478,500C498.269,514.375 481.705,524.788 449,524.996L448.236,524.99ZM495.066,471.358C489.03,464.138 487.024,453.262 490.726,442.885C496.027,428.022 511.04,419.775 524.23,424.48C537.421,429.185 543.826,445.071 538.525,459.934C534.745,470.532 526.026,477.767 516.552,479.339C509.523,476.389 502.375,473.696 495.066,471.358ZM402.934,471.358C408.97,464.138 410.976,453.262 407.274,442.885C401.973,428.022 386.96,419.775 373.77,424.48C360.579,429.185 354.174,445.071 359.475,459.934C363.255,470.532 371.974,477.767 381.448,479.339C388.477,476.389 395.625,473.696 402.934,471.358ZM569.349,326.359C572.714,329.339 576.01,332.342 579.361,335.36C584.344,339.849 589.252,344.38 594.231,348.934C597.516,351.939 600.806,354.937 604.123,357.941C606.318,359.929 608.518,361.92 610.754,363.881C612.98,365.834 615.241,367.752 617.505,369.682C620.886,372.564 624.274,375.442 627.676,378.354C636.088,385.553 644.469,392.852 652.65,400.727C653.052,401.17 653.737,401.203 654.179,400.802C654.621,400.4 654.655,399.715 654.253,399.273C647.147,390.284 639.946,381.675 632.332,373.498C629.238,370.176 626.085,366.952 622.859,363.809C620.697,361.703 618.511,359.635 616.265,357.639C614.012,355.636 611.703,353.706 609.369,351.817C605.851,348.967 602.283,346.215 598.655,343.547C593.178,339.518 587.625,335.708 582.002,331.961C578.236,329.451 574.459,327.049 570.651,324.63C570.174,324.271 569.495,324.366 569.135,324.844C568.776,325.321 568.872,326 569.349,326.359ZM328.651,326.359C325.286,329.339 321.99,332.342 318.639,335.36C313.656,339.849 308.748,344.38 303.769,348.934C300.484,351.939 297.194,354.937 293.877,357.941C291.682,359.929 289.482,361.92 287.246,363.881C285.02,365.834 282.759,367.752 280.495,369.682C277.114,372.564 273.726,375.442 270.324,378.354C261.912,385.553 253.531,392.852 245.35,400.727C244.948,401.17 244.263,401.203 243.821,400.802C243.379,400.4 243.345,399.715 243.747,399.273C250.853,390.284 258.054,381.675 265.668,373.498C268.762,370.176 271.915,366.952 275.141,363.809C277.303,361.703 279.489,359.635 281.735,357.639C283.988,355.636 286.297,353.706 288.631,351.817C292.149,348.967 295.717,346.215 299.345,343.547C304.822,339.518 310.375,335.708 315.998,331.961C319.764,329.451 323.541,327.049 327.349,324.63C327.826,324.271 328.505,324.366 328.865,324.844C329.224,325.321 329.128,326 328.651,326.359ZM720,373.627C702.081,334.101 683.561,310.486 664.715,295.48C694.026,248.237 730.914,260.69 750,284.873C771.721,312.397 774.93,342.253 720,373.627ZM178,373.627C195.919,334.101 214.439,310.486 233.285,295.48C203.974,248.237 167.086,260.69 148,284.873C126.279,312.397 123.07,342.253 178,373.627ZM557.506,310.049C553.478,307.146 548.506,302.288 544.432,299.5C540.334,296.696 536.25,293.968 532.066,291.355C528.703,289.255 525.311,287.243 521.871,285.317C519.568,284.027 517.248,282.778 514.893,281.608C512.527,280.433 510.128,279.341 507.716,278.288C504.073,276.698 500.414,275.212 496.717,273.821C487.366,270.303 476.975,269.379 467.489,266.73C466.928,266.525 466.306,266.814 466.101,267.376C465.896,267.937 466.186,268.558 466.747,268.763C475.613,272.798 485.223,275.31 493.946,279.952C497.38,281.779 500.806,283.613 504.263,285.446C506.552,286.659 508.841,287.877 511.162,289.051C513.473,290.221 515.811,291.348 518.156,292.473C521.667,294.158 525.188,295.821 528.737,297.48C534.054,299.964 539.37,302.391 544.724,304.906C548.288,306.581 552.831,310.208 556.401,311.911C556.915,312.216 557.58,312.046 557.884,311.532C558.189,311.019 558.02,310.354 557.506,310.049ZM340.494,310.049C344.522,307.146 349.494,302.288 353.568,299.5C357.666,296.696 361.75,293.968 365.934,291.355C369.297,289.255 372.689,287.243 376.129,285.317C378.432,284.027 380.752,282.778 383.107,281.608C385.473,280.433 387.872,279.341 390.284,278.288C393.927,276.698 397.586,275.212 401.283,273.821C410.634,270.303 421.025,269.379 430.511,266.73C431.072,266.525 431.694,266.814 431.899,267.376C432.104,267.937 431.814,268.558 431.253,268.763C422.387,272.798 412.777,275.31 404.054,279.952C400.62,281.779 397.194,283.613 393.737,285.446C391.448,286.659 389.159,287.877 386.838,289.051C384.527,290.221 382.189,291.348 379.844,292.473C376.333,294.158 372.812,295.821 369.263,297.48C363.946,299.964 358.63,302.391 353.276,304.906C349.712,306.581 345.169,310.208 341.599,311.911C341.085,312.216 340.42,312.046 340.116,311.532C339.811,311.019 339.98,310.354 340.494,310.049ZM445.423,646.999C294.561,646.927 212.358,642.315 98,640C104.952,610.395 115.491,582.442 138,560C139.144,497.533 148.28,443.289 165.712,397.589C67.728,375.523 42.003,298.64 82.257,240C115.565,191.48 189.791,166.232 255.972,276.572C304.646,241.577 368.74,222.472 449,220L449.94,220.03C529.76,222.622 593.544,241.714 642.028,276.572C708.209,166.232 782.435,191.48 815.743,240C855.997,298.64 830.272,375.523 732.288,397.589C749.72,443.289 758.856,497.533 760,560C782.509,582.442 793.048,610.395 800,640C684.743,642.333 602.149,647 449,647L445.423,646.999Z" style="fill:white;"/>
    </g>
</svg>
