<?xml version="1.0" encoding="UTF-8" standalone="no"?>
<!DOCTYPE svg PUBLIC "-//W3C//DTD SVG 1.1//EN" "http://www.w3.org/Graphics/SVG/1.1/DTD/svg11.dtd">
<svg width="100%" height="100%" viewBox="0 0 1000 1000" version="1.1" xmlns="http://www.w3.org/2000/svg" xmlns:xlink="http://www.w3.org/1999/xlink" xml:space="preserve" xmlns:serif="http://www.serif.com/" style="fill-rule:evenodd;clip-rule:evenodd;stroke-linejoin:round;stroke-miterlimit:2;">
    <g transform="matrix(1.80723,0,0,1.80723,-563.554,-40.3614)">
        <path d="M493,220C506.942,188.067 523.127,161.218 540,136C456.371,181.563 419.516,273.699 433,418C439.053,393.948 446.212,371.515 454,350C469.958,359.255 485.153,359.235 500,355C501.605,368.062 507.601,378.026 515,387C468.721,374.185 450.655,382.704 470,417L465,428C437.37,416.552 427.888,433.013 422,455C427.484,447.102 434.336,440.603 445,438C446.748,441.795 448.755,444.771 451,447C448.69,460.165 440.37,464.826 431,468C458.024,466.186 476.222,458.763 475,439L480,432C486.39,439.419 494.308,442.345 503,443C498.385,451.404 496.93,459.733 498,468C509.285,451.183 521.863,442.302 536,443C535.42,452.695 531.242,460.803 525,468C538.249,457.009 551.579,451.496 565,452C562.058,459.16 550.138,465.53 528,471L518,483C530.294,481.696 541.357,479.5 552,477C540.257,481.842 527.222,486.271 512,490L503,505C523.168,502.094 540.594,497.989 556,493C540.018,501.948 520.791,509.01 498,514L485,548C549.025,530.347 601.412,502.075 631,453C671.191,416.764 684.318,376.286 683.505,340C682.763,306.836 665.37,276.202 620,249C636.467,238.746 654.76,230.697 675,225C676.129,210.449 679.685,195.404 685,180C672.741,184.692 659.238,191.671 645,200C656.961,188.693 671.373,179.246 690,173C693.124,157.99 698.772,143.89 705,130C683.478,141.405 664.151,155.11 645,169C662.836,149.691 683.614,131.317 714,116C725.434,87.929 740.15,68.783 755,50C692.622,66.397 642.406,116.529 597,180C571.858,186.717 564.249,204.031 566,227C541.554,219.822 517.223,217.592 493,220ZM451,325L453,322C487.279,329.491 506.228,316.511 511.337,296C514.424,283.611 514.361,271.502 505.131,262C499.676,256.384 491.455,251.812 480,249L480,246C461.605,264.716 450.358,289.67 451,325ZM458,301C458.236,299.551 456.304,308.85 456,315L460,311C478.875,311.49 489.377,305.879 491.756,297C494.396,287.146 491.253,278.367 479,270L479,262C473.035,268.086 466.243,279.033 467,278C477.503,285.7 477.473,293.072 473.707,297.707C469.941,302.343 462.44,304.243 458,301Z" style="fill:white;"/>
    </g>
</svg>
