<?xml version="1.0" encoding="UTF-8" standalone="no"?>
<!DOCTYPE svg PUBLIC "-//W3C//DTD SVG 1.1//EN" "http://www.w3.org/Graphics/SVG/1.1/DTD/svg11.dtd">
<svg width="100%" height="100%" viewBox="0 0 1000 1000" version="1.1" xmlns="http://www.w3.org/2000/svg" xmlns:xlink="http://www.w3.org/1999/xlink" xml:space="preserve" xmlns:serif="http://www.serif.com/" style="fill-rule:evenodd;clip-rule:evenodd;stroke-linejoin:round;stroke-miterlimit:2;">
    <g transform="matrix(1.16883,0,0,1.16883,149.351,-78.5714)">
        <path d="M500,110L100,110L100,880L500,880L500,110ZM126.112,240.556C123.944,240.236 121.882,240.012 120,240C121.951,239.658 124.043,239.488 126.2,239.369C127.166,226.644 128.69,215.112 130.822,205.841C135.624,220.688 140.642,211.664 137.379,198.876C134.173,195.543 131.611,192.108 130,190C131.677,190.679 133.418,191.684 135.251,192.771C134.668,191.466 133.997,190.158 133.228,188.861C128.153,180.298 127.657,166.269 131.822,157.022C130.358,149.944 129.751,143.741 137.822,146.41C137.822,146.41 149.717,136.836 154.822,145.846C156.771,149.285 158.917,151.817 161.056,153.598C159.907,149.147 159.489,145.75 160,145C162.425,147.699 164.352,152.172 166.629,156.681C173.896,158.745 178.486,152.33 169.822,145.348C166.049,136.157 189.492,131.322 209.342,143.51C211.431,140.816 213.74,139.292 215.503,140C214.313,139.669 212.678,141.849 211.748,145.085C212.108,145.336 212.466,145.593 212.822,145.855C219.78,150.988 234.863,164.669 244.822,149.101C246.503,146.474 248.031,144.623 249.412,143.368C249.708,142.231 249.913,141.105 250,140C250.129,140.88 250.195,141.779 250.212,142.693C256.85,137.529 259.822,146.41 259.822,146.41C256.338,162.552 266.828,164.583 274.822,139.132C278.069,128.796 290.669,124.82 294.822,129.429C295.118,126.204 296.947,122 300,122L300.142,122.003C303.11,122.131 304.887,126.255 305.178,129.429C309.331,124.82 321.931,128.796 325.178,139.132C333.172,164.583 343.662,162.552 340.178,146.41C340.178,146.41 344.738,132.784 355.178,149.101C365.137,164.669 380.22,150.988 387.178,145.855C407.636,130.765 434.174,135.613 430.178,145.348C417.093,155.894 434.242,165.145 445.178,145.846C450.283,136.836 462.178,146.41 462.178,146.41C470.249,143.741 469.642,149.944 468.178,157.022C472.343,166.269 471.847,180.298 466.772,188.861C456.828,205.637 463.172,224.411 469.178,205.841C478.293,245.476 476.292,326.441 467.065,365.034C462.935,382.311 458.94,393.165 467.594,409.608C467.787,409.976 468.027,410.306 468.195,410.669C475.358,426.084 469.737,431.987 468.178,430.833C455.717,422.895 458.976,443.349 472.688,455.243C484.862,465.804 478.178,484.959 478.178,484.959C481.316,486.267 483.708,489.4 483.708,495L483.707,495.261C483.634,500.697 481.267,503.753 478.178,505.041C478.178,505.041 484.862,524.196 472.688,534.757C458.976,546.651 455.717,567.105 468.178,559.167C469.737,558.013 475.358,563.916 468.195,579.331C468.027,579.694 467.787,580.024 467.594,580.392C458.94,596.835 462.935,607.689 467.065,624.966C476.292,663.559 478.293,744.524 469.178,784.159C463.172,765.589 456.828,784.363 466.772,801.139C471.847,809.702 472.343,823.731 468.178,832.978C469.642,840.056 470.249,846.259 462.178,843.59C462.178,843.59 450.283,853.164 445.178,844.154C434.242,824.855 417.093,834.106 430.178,844.652C434.174,854.387 407.636,859.235 387.178,844.145C380.22,839.012 365.137,825.331 355.178,840.899C344.738,857.216 340.178,843.59 340.178,843.59C343.662,827.448 333.172,825.417 325.178,850.868C321.931,861.204 309.331,865.18 305.178,860.571C304.887,863.745 303.11,867.869 300.142,867.997L300,868C296.947,868 295.118,863.796 294.822,860.571C290.669,865.18 278.069,861.204 274.822,850.868C266.828,825.417 256.338,827.448 259.822,843.59C259.822,843.59 255.262,857.216 244.822,840.899C234.863,825.331 219.78,839.012 212.822,844.145C192.364,859.235 165.826,854.387 169.822,844.652C182.907,834.106 165.758,824.855 154.822,844.154C149.717,853.164 137.822,843.59 137.822,843.59C129.751,846.259 130.358,840.056 131.822,832.978C127.657,823.731 128.153,809.702 133.228,801.139C143.172,784.363 136.828,765.589 130.822,784.159C121.707,744.524 123.708,663.559 132.935,624.966C137.065,607.689 141.06,596.835 132.406,580.392C132.213,580.024 131.973,579.694 131.805,579.331C124.642,563.916 130.263,558.013 131.822,559.167C144.283,567.105 141.024,546.651 127.312,534.757C115.138,524.196 121.822,505.041 121.822,505.041C118.684,503.733 116.292,500.6 116.292,495L116.293,494.739C116.366,489.303 118.733,486.247 121.822,484.959C121.822,484.959 115.138,465.804 127.312,455.243C141.024,443.349 144.283,422.895 131.822,430.833C130.263,431.987 124.642,426.084 131.805,410.669C131.973,410.306 132.213,409.976 132.406,409.608C141.06,393.165 137.065,382.311 132.935,365.034C125.933,335.75 123.092,282.069 126.112,240.556ZM248.497,164.451L455.178,164.451L455.178,825.549L144.822,825.549L144.822,283.546C156.565,281.993 169.119,278.073 170,263.911C170.639,253.643 175.767,249.056 190,250C180.91,261.349 171.571,275.428 180,282.352C195.285,294.908 187.101,305.06 165,310C183.07,311.682 202.737,306.455 192.043,285C184.815,270.498 194.837,264.374 205,265C201.14,277.396 202.098,285.526 210.353,290C229.138,300.18 223.015,321.068 210,325C230.86,324.084 245.683,297.775 222.053,285C214.023,280.659 214.835,274.172 224,263.03C221.24,273.224 235.437,290.207 245,286.756C266.737,278.91 274.3,312.992 270,315C280.548,314.025 278.869,277.824 251.173,277.661C236.256,277.574 237.257,256.771 240,255.503C249.995,266.315 262.682,275.543 270,266.324C285.368,246.963 296.588,273.741 307.519,285C299.1,269.833 294.612,237.265 272.182,255C263.896,261.552 254.98,254.572 252.375,245C271.174,246.041 276.857,241.361 280,233.08C288.211,211.449 305.972,227.302 315,235C299.182,208.065 287.966,207.496 275,225.959C268.294,235.508 259.743,227.718 255,225C269.195,218.907 277.474,212.191 275,199.649C270.769,178.205 292.378,179.35 305,185C293.585,177.726 270.115,165.665 265,194.994C262.118,211.523 252.838,204.644 245,205C259.321,192.326 262.347,180.585 251.369,170C249.753,168.442 248.888,166.556 248.497,164.451ZM144.822,242.97C151.361,242.91 157.063,240.91 160,233.949C163.963,224.555 171.876,224.201 185,235C175.176,231.188 152.948,248.374 160,257.727C166.663,266.565 155.49,274.342 144.822,279.34L144.822,242.97ZM217.5,200C233.487,200 246.467,212.98 246.467,228.967C246.467,244.954 233.487,257.934 217.5,257.934C201.513,257.934 188.533,244.954 188.533,228.967C188.533,212.98 201.513,200 217.5,200ZM217.503,203.497C231.578,203.497 243.006,214.925 243.006,229C243.006,243.075 231.578,254.503 217.503,254.503C203.427,254.503 192,243.075 192,229C192,214.925 203.427,203.497 217.503,203.497ZM144.822,205.158C150.684,208.895 157.494,210.236 164.24,204.497C172.679,197.317 178.005,199.98 185,215C169.905,212.29 156.924,213.676 155,222.804C153.366,230.556 149.577,234.542 144.822,236.651L144.822,205.158ZM164.679,164.451C168.931,174.795 175.553,184.663 182.909,181C193.029,175.961 200.532,193.104 195,200C183.533,188.885 172.689,186.393 165.06,192.685C157.096,199.252 150.506,199.463 144.822,197.592L144.822,164.451L164.679,164.451ZM239.909,164.451C238.386,168.641 238.153,172.318 241.032,175C248.822,182.255 244.056,188.571 230,195C234.993,192.49 233.943,168.914 222.093,165C221.578,164.83 221.085,164.647 220.612,164.451L239.909,164.451ZM205.165,164.451C206.406,167.007 208.682,169.026 212.361,170C224.514,173.217 219.033,188.518 210,192.543C206.766,177.083 200.723,168.359 188.634,171C180.3,172.821 175.097,169.448 171.281,164.451L205.165,164.451Z" style="fill:white;"/>
    </g>
</svg>
