<?xml version="1.0" encoding="UTF-8" standalone="no"?>
<!DOCTYPE svg PUBLIC "-//W3C//DTD SVG 1.1//EN" "http://www.w3.org/Graphics/SVG/1.1/DTD/svg11.dtd">
<svg width="100%" height="100%" viewBox="0 0 1000 1000" version="1.1" xmlns="http://www.w3.org/2000/svg" xmlns:xlink="http://www.w3.org/1999/xlink" xml:space="preserve" xmlns:serif="http://www.serif.com/" style="fill-rule:evenodd;clip-rule:evenodd;stroke-linejoin:round;stroke-miterlimit:2;">
    <g transform="matrix(21.9512,0,0,21.9512,-9987.2,-10552.4)">
        <path d="M476.5,507.5C475.146,507.771 473.929,508.136 473.5,509C471.636,512.757 470.134,516.755 469,521C472.123,522.119 475.505,523.092 479,524C477.892,518.351 477.085,512.866 476.5,507.5ZM486,500.5C485.323,501.449 484.654,502.438 484,503.5C487.411,507.024 490.927,510.52 494.5,514C495.87,510.92 497.071,507.769 498,504.5C494.022,502.963 490.025,501.598 486,500.5ZM473.5,501.5C473.924,502.833 474.004,504.167 474,505.5L460.5,511.5L457.5,500L473.5,501.5ZM479.5,497.5C478.723,497.25 476.25,499.324 476,500.5C475.75,501.676 477.223,504.307 478,504.557C478.777,504.807 480.41,503.176 480.66,502C480.91,500.824 480.277,497.75 479.5,497.5ZM483.866,500L495,493.5L488.5,483L482.5,495C482.681,496.645 483.058,498.306 483.866,500Z" style="fill:white;"/>
    </g>
</svg>
