<?xml version="1.0" encoding="UTF-8" standalone="no"?>
<!DOCTYPE svg PUBLIC "-//W3C//DTD SVG 1.1//EN" "http://www.w3.org/Graphics/SVG/1.1/DTD/svg11.dtd">
<svg width="100%" height="100%" viewBox="0 0 1000 1000" version="1.1" xmlns="http://www.w3.org/2000/svg" xmlns:xlink="http://www.w3.org/1999/xlink" xml:space="preserve" xmlns:serif="http://www.serif.com/" style="fill-rule:evenodd;clip-rule:evenodd;stroke-linejoin:round;stroke-miterlimit:2;">
    <g transform="matrix(1.39352,-0.231989,0.231989,1.39352,-435.852,-45.951)">
        <path d="M590,175C763.853,175 905,316.147 905,490C905,663.853 763.853,805 590,805C416.147,805 275,663.853 275,490C275,316.147 416.147,175 590,175ZM503.861,219.303C389.172,255.807 305.984,363.265 305.984,490C305.984,620.904 394.736,731.243 515.296,764.072C496.998,741.32 473.103,704.695 460,666.972C444.001,620.91 389.045,542.389 380,548.886C362.287,538.407 378.638,492.409 394.414,468.727C404.065,454.239 429.07,418.705 440,435C444.51,446.042 449.779,447.266 460,448.261C519.499,454.053 577.182,421.817 620,379.24C681.357,318.229 701.552,269.316 672.141,232.101C666.51,224.977 561.707,230.574 520,300L503.861,219.303ZM622,425C638.557,425 652,438.443 652,455C652,471.557 638.557,485 622,485C605.443,485 592,471.557 592,455C592,438.443 605.443,425 622,425Z" style="fill:white;"/>
    </g>
</svg>
