<?xml version="1.0" encoding="UTF-8" standalone="no"?>
<!DOCTYPE svg PUBLIC "-//W3C//DTD SVG 1.1//EN" "http://www.w3.org/Graphics/SVG/1.1/DTD/svg11.dtd">
<svg width="100%" height="100%" viewBox="0 0 1000 1000" version="1.1" xmlns="http://www.w3.org/2000/svg" xmlns:xlink="http://www.w3.org/1999/xlink" xml:space="preserve" xmlns:serif="http://www.serif.com/" style="fill-rule:evenodd;clip-rule:evenodd;stroke-linejoin:round;stroke-miterlimit:2;">
    <g transform="matrix(11.1711,0,0,11.1711,-7662.66,-2502.26)">
        <path d="M729.339,240.807C711.13,241.52 696.567,256.526 696.567,274.908C696.567,293.743 711.858,309.034 730.693,309.034C749.528,309.034 764.82,293.743 764.82,274.908C764.82,256.526 750.257,241.52 732.047,240.807C732.047,240.798 732.048,240.79 732.048,240.781L732.048,235.875L738.262,230.879C738.845,230.41 738.937,229.557 738.469,228.975C738.001,228.392 737.147,228.3 736.565,228.768L730.693,233.489L724.822,228.768C724.239,228.3 723.386,228.392 722.918,228.975C722.449,229.557 722.542,230.41 723.125,230.879L729.339,235.875L729.339,240.781C729.339,240.79 729.339,240.798 729.339,240.807ZM728.875,306.274L739.106,296.629L749.932,299.742C744.613,303.869 737.938,306.326 730.693,306.326C730.083,306.326 729.477,306.309 728.875,306.274ZM723.12,305.406C717.438,303.997 712.364,301.041 708.373,297.01L714.736,291.958L723.12,305.406ZM730.784,277.47L716.889,278.545L716.141,289.233C716.255,289.325 716.356,289.437 716.438,289.569C716.438,289.569 726.14,305.13 726.14,305.13L737.136,294.764L731.668,277.419L730.784,277.47ZM758.544,289.454C756.944,292.509 754.856,295.268 752.384,297.629L739.732,293.991L737.966,288.39L753.885,283.45L758.544,289.454ZM708.204,273.843L699.358,277.207C699.847,283.95 702.468,290.106 706.548,295.002L713.403,289.558C713.403,289.558 714.216,277.944 714.216,277.944L708.204,273.843ZM757.864,267.83L753.458,275.086C753.458,275.086 755.252,280.795 755.252,280.795L759.825,286.688C761.299,283.05 762.112,279.073 762.112,274.908C762.112,273.5 762.019,272.113 761.839,270.754L757.864,267.83ZM734.457,277.26L737.152,285.807L752.493,281.047L751.006,276.316L734.457,277.26ZM721.599,260.067L710.429,272.082L716.02,275.896L730.589,274.768C730.598,274.768 730.607,274.767 730.616,274.766L730.674,274.763L725.862,262.821L721.599,260.067ZM728.939,263.213L733.528,274.6L739.129,274.281L739.385,260.695L728.939,263.213ZM705.02,256.802C701.504,261.776 699.396,267.816 699.28,274.339L707.056,271.382C707.261,271.095 707.559,270.912 707.881,270.845L714.798,263.405L705.02,256.802ZM753.211,253.006L742.193,259.945C742.165,259.963 742.136,259.98 742.107,259.996L741.841,274.126L751.197,273.593L755.973,265.726L755.704,255.903L755.704,255.899C754.932,254.885 754.099,253.919 753.211,253.006ZM758.534,260.342L758.654,264.767C758.77,264.906 758.855,265.066 758.907,265.236L761.059,266.818C760.455,264.549 759.603,262.381 758.534,260.342ZM718.72,245.855C714.028,247.792 709.906,250.834 706.68,254.655L716.489,261.279C716.546,261.318 716.6,261.361 716.651,261.408L716.653,261.41L725.085,252.34L718.72,245.855ZM739.303,257.929L736.393,253.291L727.487,253.734L723.472,258.053L727.681,260.772C727.778,260.721 727.883,260.682 727.994,260.655L739.303,257.929ZM742.462,245.771C745.661,247.066 748.598,248.872 751.174,251.089L741.88,256.942L738.689,251.855L742.462,245.771ZM739.849,244.846L736.29,250.585L727.581,251.018L721.528,244.849C724.429,243.965 727.506,243.489 730.693,243.489C733.877,243.489 736.951,243.964 739.849,244.846Z" style="fill:white;"/>
    </g>
</svg>
