<?xml version="1.0" encoding="UTF-8" standalone="no"?>
<!DOCTYPE svg PUBLIC "-//W3C//DTD SVG 1.1//EN" "http://www.w3.org/Graphics/SVG/1.1/DTD/svg11.dtd">
<svg width="100%" height="100%" viewBox="0 0 1000 1000" version="1.1" xmlns="http://www.w3.org/2000/svg" xmlns:xlink="http://www.w3.org/1999/xlink" xml:space="preserve" xmlns:serif="http://www.serif.com/" style="fill-rule:evenodd;clip-rule:evenodd;stroke-linejoin:round;stroke-miterlimit:2;">
    <g transform="matrix(1.23796,0,0,1.23796,-120.839,-187.048)">
        <path d="M210.118,520.69C227.435,533.394 233.762,547.364 233.608,552.405C231.603,552.188 229.565,552.077 227.5,552.077C196.359,552.077 171.077,577.359 171.077,608.5C171.077,639.641 196.359,664.923 227.5,664.923C245.325,664.923 261.23,656.639 271.572,643.716L316.582,617.193C312.203,662.519 273.962,698 227.5,698C178.104,698 138,657.896 138,608.5C138,565.051 169.028,528.792 210.118,520.69ZM677.375,612.252L677,614C659.531,590.839 627.093,600.243 583,635L491,660L491,676L422,677L358,645L337,607L458,531C464.019,533.03 470.055,534.885 473.854,539.121C484.03,550.47 491.498,561.231 499,568L499,581L514,599C529.55,591.29 545.498,586.566 562,586L569,573L612,490L644,466L649,446C678.112,445.682 709.713,464.018 743,495L742,502C725.567,504.601 709.618,507.447 699,513L700,528L741,548L745,562L744.312,563.507C750.584,560 757.81,558 765.5,558C770.328,558 774.973,558.788 779.316,560.244C781.723,554.801 787.171,551 793.5,551C802.055,551 809,557.945 809,566.5C809,571.608 806.524,576.142 802.708,578.966C806.7,585.539 809,593.253 809,601.5C809,625.508 789.508,645 765.5,645C764.501,645 763.51,644.966 762.526,644.9C759.764,649.171 754.96,652 749.5,652C740.945,652 734,645.055 734,636.5C734,634.983 734.218,633.517 734.625,632.131C728.375,625.831 724.037,617.633 722.558,608.481L712,612L680,600L679.537,602.161L709.543,613.871C716.151,639.435 739.385,658.339 767,658.339C799.75,658.339 826.339,631.75 826.339,599C826.339,566.25 799.75,539.661 767,539.661C757.588,539.661 748.684,541.857 740.772,545.766L702.034,525.652C719.333,510.316 742.087,501 767,501C821.088,501 865,544.912 865,599C865,653.088 821.088,697 767,697C734.596,697 705.844,681.239 688,656.972L688,631C685.502,624.319 681.92,618.086 677.375,612.252ZM495,662L494,680L507,686L576,686C580.719,685.309 584.834,684.358 588,683C617.859,682.251 646.453,679.115 674,674L685,663L684,632C666.982,591.182 630.512,601.017 583,639C553.745,646.745 524.37,654.37 495,662ZM242,501C229.198,505.469 219.721,512.269 213,521C225.881,528.643 232.858,539.137 237,551L243,552L242,556C269.451,572.718 276.649,602.775 276,638L456,530L439,494C434.567,495.01 429.611,493.242 424,488C422.66,489.46 418.485,490.563 409,491C398.99,488.271 392.811,482.94 389,476C351.627,479.005 315.776,485.432 288,510C266.774,511.371 251.974,507.975 242,501ZM472,456C464,457.317 456,459.085 448,462L429,462C424.887,469.979 422.525,478.307 422,487C405.525,490.447 396.636,483.298 390,473C351.371,476.534 323.774,483.043 305,494L275,494C269.675,498.427 263.155,502.176 255,505C251.23,503.903 247.692,502.503 245,500C311.397,434.563 385.435,410.903 464,412C465.11,426.908 467.455,441.625 472,456ZM461,464L430,464C426.535,471.092 424.616,478.391 425,486C429.928,490.956 434.349,492.096 440,492L443,498L456,498L460,502L474,502L459,477C458.999,472.549 459.839,468.246 461,464ZM714,476C702.251,477.84 682.004,472.35 676,468C672.174,465.227 668.709,457.567 679,456C694.212,461.306 706.399,467.774 714,476ZM680,457C686.787,461.196 687.72,462.588 688,472C686.624,472.372 681.927,470.651 677.646,467.995C676.268,467.14 675.284,465.838 674.575,464.6C673.374,462.501 672.711,460.624 674.085,459.024C674.967,457.996 676.75,457.193 680,457Z" style="fill:white;"/>
    </g>
</svg>
