<?xml version="1.0" encoding="UTF-8" standalone="no"?>
<!DOCTYPE svg PUBLIC "-//W3C//DTD SVG 1.1//EN" "http://www.w3.org/Graphics/SVG/1.1/DTD/svg11.dtd">
<svg width="100%" height="100%" viewBox="0 0 1000 1000" version="1.1" xmlns="http://www.w3.org/2000/svg" xmlns:xlink="http://www.w3.org/1999/xlink" xml:space="preserve" xmlns:serif="http://www.serif.com/" style="fill-rule:evenodd;clip-rule:evenodd;stroke-linejoin:round;stroke-miterlimit:2;">
    <g transform="matrix(1.01983,0,0,1.01983,41.0765,-60.9065)">
        <path d="M450,108.75C698.914,108.75 891.25,301.086 891.25,550C891.25,798.914 698.914,991.25 450,991.25C201.086,991.25 8.75,798.914 8.75,550C8.75,301.086 201.086,108.75 450,108.75ZM450,129.472C674.023,129.472 870.528,325.977 870.528,550C870.528,774.023 674.023,970.528 450,970.528C225.977,970.528 44.099,774.023 44.099,550C44.099,325.977 225.977,129.472 450,129.472ZM450,150C670.766,150 850,329.234 850,550C850,770.766 670.766,950 450,950C229.234,950 50,770.766 50,550C50,329.234 229.234,150 450,150ZM354.854,881.875L321.37,801.09L388.637,823.716L390.057,765.385L450,823.779L509.943,765.385L511.363,823.716L578.63,801.09L545.146,881.875L354.854,881.875ZM112.983,530.536C112.983,530.536 126.463,573.106 129.197,585.259C129.211,585.321 129.236,585.139 129.255,585.078L129.744,583.663C130.114,582.651 130.523,581.654 130.978,580.678C132.472,577.474 134.477,574.484 137.097,572.092C137.947,571.316 138.857,570.606 139.817,569.972L141.226,569.118C141.27,569.093 141.357,568.995 141.358,569.045C141.401,582.557 141.316,596.069 141.358,609.581C141.358,609.667 141.439,609.429 141.481,609.353L142.88,606.939C143.892,605.297 145.001,603.714 146.203,602.205C149.388,598.205 153.226,594.782 157.454,591.916C158.458,591.236 159.482,590.586 160.522,589.962C160.766,589.815 161.01,589.67 161.256,589.527C161.379,589.455 161.484,589.324 161.625,589.313C161.686,589.308 161.64,589.434 161.647,589.495C161.674,589.737 161.7,589.979 161.723,590.221C161.819,591.235 161.874,592.252 161.886,593.27C161.934,597.444 161.226,601.601 159.839,605.536C157.506,612.152 153.372,617.99 148.588,623.06C146.902,624.848 145.126,626.55 143.288,628.18L141.685,629.572C141.576,629.664 141.388,629.709 141.358,629.848C141.337,629.943 141.545,629.801 141.639,629.778L143.352,629.403C144.722,629.136 146.106,628.945 147.497,628.827C151.045,628.524 154.623,628.695 158.143,629.217L161.272,629.774C161.39,629.798 161.524,629.783 161.625,629.848C161.668,629.876 161.627,629.951 161.627,630.002L161.582,632.156C161.452,634.649 161.053,637.125 160.426,639.541C159.466,643.244 157.979,646.797 156.16,650.157C153.84,654.443 150.988,658.426 147.864,662.158C146.268,664.065 140.906,667.712 140.906,667.712C123.574,661.926 111.321,653.57 105.633,641.895C111.655,637.047 117.685,634.109 123.721,632.753C105.9,628.544 92.705,620.436 87.348,605.718C96.434,606.22 105.515,608.337 114.579,614.664L96.293,578.487C102.701,578.698 108.757,581.693 114.461,587.472C114.461,587.472 107.012,511.19 112.983,530.536ZM788.908,530.536C788.908,530.536 775.427,573.106 772.694,585.259C772.68,585.321 772.655,585.139 772.635,585.078L772.146,583.663C771.777,582.651 771.367,581.654 770.912,580.678C769.419,577.474 767.414,574.484 764.794,572.092C763.944,571.316 763.034,570.606 762.073,569.972L760.665,569.118C760.621,569.093 760.533,568.995 760.533,569.045C760.489,582.557 760.574,596.069 760.533,609.581C760.533,609.667 760.451,609.429 760.41,609.353L759.011,606.939C757.998,605.297 756.89,603.714 755.688,602.205C752.503,598.205 748.664,594.782 744.437,591.916C743.433,591.236 742.409,590.586 741.369,589.962C741.125,589.815 740.88,589.67 740.634,589.527C740.511,589.455 740.407,589.324 740.265,589.313C740.204,589.308 740.251,589.434 740.244,589.495C740.216,589.737 740.191,589.979 740.168,590.221C740.071,591.235 740.016,592.252 740.005,593.27C739.957,597.444 740.664,601.601 742.052,605.536C744.384,612.152 748.518,617.99 753.302,623.06C754.989,624.848 756.764,626.55 758.603,628.18L760.206,629.572C760.315,629.664 760.502,629.709 760.533,629.848C760.554,629.943 760.345,629.801 760.251,629.778L758.539,629.403C757.169,629.136 755.784,628.945 754.394,628.827C750.845,628.524 747.267,628.695 743.748,629.217L740.619,629.774C740.501,629.798 740.367,629.783 740.265,629.848C740.222,629.876 740.264,629.951 740.263,630.002L740.309,632.156C740.438,634.649 740.838,637.125 741.464,639.541C742.425,643.244 743.912,646.797 745.731,650.157C748.05,654.443 750.902,658.426 754.026,662.158C755.622,664.065 760.984,667.712 760.984,667.712C778.317,661.926 790.57,653.57 796.258,641.895C790.236,637.047 784.206,634.109 778.169,632.753C795.99,628.544 809.186,620.436 814.543,605.718C805.456,606.22 796.376,608.337 787.312,614.664L805.597,578.487C799.19,578.698 793.134,581.693 787.43,587.472C787.43,587.472 794.878,511.19 788.908,530.536ZM364.023,343.959L353.976,389.605L277.759,389.605L272.448,416.587C297.71,419.157 317.948,428.894 333.163,445.8C350.483,465.141 359.143,491.92 359.143,526.137C359.143,557.92 350.914,583.82 334.455,603.837C318.762,623.042 299.337,632.644 276.18,632.644C266.515,632.644 258.19,630.818 251.205,627.167C241.349,622.163 236.468,614.251 236.564,603.431L237.138,602.619C237.33,589.771 242.88,583.347 253.788,583.347C259.338,583.347 276.401,578.249 284.965,586.364C293.529,594.478 290.629,607.691 296.275,607.691C306.896,607.691 315.652,600.996 322.542,587.607C328.857,575.299 324.126,518.271 324.126,502.448C324.126,447.402 302.638,461.286 243.884,458.175L265.558,349.842L338.474,349.842C346.799,349.842 352.588,346.123 355.842,338.684L364.023,343.959ZM516.457,486.374C516.457,523.973 511.721,555.756 502.247,581.724C489.903,615.671 471.196,632.644 446.125,632.644C422.777,632.644 404.835,615.535 392.3,581.318C382.444,554.404 377.515,523.567 377.515,488.809C377.515,452.968 382.491,421.794 392.443,395.285C405.074,361.609 423.447,344.771 447.561,344.771C471.292,344.771 489.377,361.338 501.817,394.474C511.577,420.577 516.457,451.21 516.457,486.374ZM663.437,486.374C663.437,523.973 658.701,555.756 649.227,581.724C636.883,615.671 618.176,632.644 593.105,632.644C569.757,632.644 551.815,615.535 539.279,581.318C529.423,554.404 524.495,523.567 524.495,488.809C524.495,452.968 529.471,421.794 539.423,395.285C552.054,361.609 570.427,344.771 594.54,344.771C618.272,344.771 636.357,361.338 648.797,394.474C658.557,420.577 663.437,451.21 663.437,486.374ZM545.146,205.944L578.63,286.729L511.363,264.103L509.943,322.434L450,264.04L390.057,322.434L388.637,264.103L321.37,286.729L354.854,205.944L545.146,205.944Z" style="fill:white;"/>
    </g>
</svg>
