<?xml version="1.0" encoding="UTF-8" standalone="no"?>
<!DOCTYPE svg PUBLIC "-//W3C//DTD SVG 1.1//EN" "http://www.w3.org/Graphics/SVG/1.1/DTD/svg11.dtd">
<svg width="100%" height="100%" viewBox="0 0 1000 1000" version="1.1" xmlns="http://www.w3.org/2000/svg" xmlns:xlink="http://www.w3.org/1999/xlink" xml:space="preserve" xmlns:serif="http://www.serif.com/" style="fill-rule:evenodd;clip-rule:evenodd;stroke-linejoin:round;stroke-miterlimit:2;">
    <g transform="matrix(1.41993,0,0,1.41993,-97.5544,-185.944)">
        <path d="M321.233,317.965L310.248,322.811C305.832,325.274 304.47,330.318 306.279,333.011L645.108,799.985C652.621,800.239 658.371,797.306 661.667,789.935L321.233,317.965ZM320.97,313.466L308.233,318.005C301.902,320.5 300.943,326.221 302.273,331.023L288.218,313.066C296.154,309.788 304.137,304.097 312.167,295.993L325.215,311.953L323.229,316.459L320.97,313.466ZM180,241.394C179.875,200 213.379,166.292 254.772,166.166C296.166,166.041 329.874,199.545 330,240.939C330.125,282.332 296.621,316.04 255.228,316.166C213.834,316.291 180.126,282.787 180,241.394ZM193.861,210.089C217.368,194.361 237.913,188.768 252.914,202.163C203.863,233.285 231.532,274.34 256.734,281.143C284.786,288.715 346.684,253.293 307.149,199.567C292.79,180.054 273.432,176.449 250.801,176.718C231.86,176.942 210.519,184.953 193.861,210.089Z" style="fill:white;"/>
    </g>
</svg>
