<?xml version="1.0" encoding="UTF-8" standalone="no"?>
<!DOCTYPE svg PUBLIC "-//W3C//DTD SVG 1.1//EN" "http://www.w3.org/Graphics/SVG/1.1/DTD/svg11.dtd">
<svg width="100%" height="100%" viewBox="0 0 1000 1000" version="1.1" xmlns="http://www.w3.org/2000/svg" xmlns:xlink="http://www.w3.org/1999/xlink" xml:space="preserve" xmlns:serif="http://www.serif.com/" style="fill-rule:evenodd;clip-rule:evenodd;stroke-linejoin:round;stroke-miterlimit:2;">
    <g transform="matrix(2.16216,0,0,2.11425,-671.622,-498.984)">
        <path d="M603.351,580C574.864,610.022 534.602,628.75 490,628.75C403.763,628.75 333.75,558.737 333.75,472.5C333.75,386.263 403.763,316.25 490,316.25C521.994,316.25 551.755,325.887 576.543,342.418C582.029,339.002 588.686,337.012 597,337.042L750,337.042L732,350L653,350L642,364.478L722,364.478L704,380L631.5,380L622.675,389.976C623.299,390.978 623.913,391.986 624.513,393L693,393L670,408L632.338,408C634.406,412.554 636.263,417.224 637.896,422L647.25,422L639.565,427.181C643.913,441.531 646.25,456.745 646.25,472.5C646.25,483.866 645.034,494.95 642.726,505.621L694,466.462L694,580L603.351,580ZM500.897,554L446.112,554C451.57,573.847 459.035,593.642 468.484,613.383C475.499,614.448 482.686,615 490,615C497.212,615 504.3,614.463 511.221,613.427C517.772,599.744 523.37,586.035 528.007,572.299C517.529,567.76 508.502,561.648 500.897,554ZM542.739,577.388C539.129,588.02 534.92,598.654 530.092,609.272C550.058,603.42 568.211,593.312 583.501,580L555,580C550.75,579.307 546.664,578.436 542.739,577.388ZM429.998,554L373.122,554C391.414,580.17 418.262,599.921 449.592,609.179C441.243,590.805 434.748,572.383 429.998,554ZM347.783,481.538C349.103,502.587 355.001,522.4 364.492,540L426.714,540C422.583,520.41 420.407,500.89 420.052,481.538L347.783,481.538ZM435.146,481.538C435.692,501.075 438.183,520.563 442.597,540L489.636,540C483.175,530.049 478.309,518.367 475,505L475,481.538L435.146,481.538ZM632.217,481.538L561.361,481.538L606.877,533L624.555,519.499C628.752,507.496 631.388,494.761 632.217,481.538ZM627.577,435.263L625,437L590,437L580,450L603,450L579.405,466.462L632.374,466.462C631.925,455.713 630.283,445.271 627.577,435.263ZM420.143,466.462C420.743,446.723 423.221,427.2 427.434,408L362.921,408C353.919,425.687 348.502,445.491 347.626,466.462L420.143,466.462ZM443.928,408L442.254,408C437.936,427.539 435.561,447.025 435.11,466.462L475,466.462L475,435L443.928,408ZM526.568,408C527.639,413.707 527.903,420.038 527.358,427C527.71,436.222 530.357,434.58 534.048,428L539.08,415.735C538.578,413.161 538.042,410.581 537.472,408L526.568,408ZM617.08,408L610,408L600,422L623.278,422C621.459,417.206 619.387,412.533 617.08,408ZM437.809,371C441.97,358.836 446.823,346.84 452.329,335.042C418.629,344.27 389.898,365.571 371.082,394L427.817,394L411.705,380C407.867,375.703 407.62,372.62 411.705,371L437.809,371ZM521.659,394L534.048,394C528.479,373.232 520.71,352.395 510.72,331.499C503.959,330.511 497.039,330 490,330C482.859,330 475.84,330.526 468.986,331.542C462.689,344.718 457.274,357.87 452.737,371L486,371C503.204,374.535 515.114,382.184 521.659,394ZM566.134,352.048C554.277,344.533 541.236,338.721 527.358,334.956C536.127,353.736 543.243,373.018 548.543,392.671L564,355C564.686,353.986 565.396,353.001 566.134,352.048Z" style="fill:white;"/>
    </g>
</svg>
