<?xml version="1.0" encoding="UTF-8" standalone="no"?>
<!DOCTYPE svg PUBLIC "-//W3C//DTD SVG 1.1//EN" "http://www.w3.org/Graphics/SVG/1.1/DTD/svg11.dtd">
<svg width="100%" height="100%" viewBox="0 0 1000 1000" version="1.1" xmlns="http://www.w3.org/2000/svg" xmlns:xlink="http://www.w3.org/1999/xlink" xml:space="preserve" xmlns:serif="http://www.serif.com/" style="fill-rule:evenodd;clip-rule:evenodd;stroke-linejoin:round;stroke-miterlimit:2;">
    <g transform="matrix(4.09091,0,0,4.09091,-1995.45,-1177.27)">
        <path d="M673.071,440C682.161,420 700.343,420 709.434,430C718.526,440 718.526,460 709.434,480C703.071,495 686.707,510 673.071,520C659.434,510 643.071,495 636.707,480C627.616,460 627.616,440 636.707,430C645.798,420 663.98,420 673.071,440ZM514.765,520C514.624,520 514.571,519.986 514.597,519.957C514.076,519.657 514.475,517.863 517.088,517.133C524.489,515.063 541.085,511.979 541.35,504.783L541.353,504.608L541.353,488.933C541.353,487.718 540.621,486.701 540.098,485.51C539.862,484.973 539.624,484.487 539.383,484.053L538.672,484.544L538.177,484.866L537.218,485.446L536.476,485.859L535.591,486.311L534.711,486.722L534.21,486.939L533.055,487.396L532.124,487.721L531.273,487.987L530.199,488.282L529.471,488.457L528.364,488.685L527.596,488.818L526.746,488.941L525.672,489.06L524.927,489.12L523.612,489.181L522.817,489.191C519.095,489.186 515.489,488.498 512.333,487.255L511.697,486.995C510.084,486.308 508.599,485.473 507.291,484.509L506.91,484.22C497.572,476.963 497.698,462.817 507.291,448.671C509.883,444.575 514.026,440.48 518.969,436.583L519.147,436.443C527.153,430.162 537.215,424.405 546.175,420L546.175,420C547.652,420.726 549.159,421.489 550.683,422.286L551.524,422.728C552.779,423.391 554.042,424.076 555.308,424.781L555.611,424.951C557.856,426.208 560.102,427.526 562.305,428.895L562.515,429.025C570.859,434.226 578.571,440.142 583.27,446.146L583.305,446.191C583.949,447.017 584.536,447.844 585.059,448.671L585.727,449.678L585.848,449.867C592.047,459.543 593.813,469.129 591.147,476.417C591.112,476.513 591.076,476.609 591.039,476.704C589.993,479.419 588.321,481.806 586.024,483.747L585.789,483.942L585.285,484.339L585.059,484.509C584.125,485.198 583.1,485.821 582.003,486.371L581.492,486.619C581.216,486.749 580.937,486.874 580.653,486.995C577.35,488.401 573.508,489.186 569.533,489.191L568.329,489.169L567.423,489.12L566.514,489.044L565.472,488.923L564.695,488.808L563.602,488.611L562.88,488.457L561.976,488.237L561.014,487.968L560.183,487.707L559.183,487.354L558.408,487.05L557.384,486.607L556.625,486.245L555.756,485.794L554.887,485.303L554.4,485.008L553.547,484.455L552.968,484.053C552.726,484.487 552.488,484.973 552.252,485.51C551.729,486.701 550.997,487.718 550.997,488.933L550.997,504.608L551,504.783C551.265,511.979 567.861,515.063 575.262,517.133C577.875,517.863 578.274,519.657 577.753,519.957C577.779,519.986 577.726,520 577.585,520L514.765,520ZM546.175,300L578.273,350L546.175,400L514.076,350L546.175,300ZM651.756,319.568L651.811,318.688L652.683,314.795L654.352,310.977L656.755,307.525L659.3,304.999L662.632,302.698L664.732,301.67L668.754,300.42L672.243,300L673.899,300L678.167,300.595L681.649,301.773L683.767,302.844L687.093,305.213L689.441,307.589L691.789,310.977L693.459,314.795L694.363,318.957L694.44,323.064L693.76,327.026L693.008,329.29C694.78,328.814 696.645,328.56 698.568,328.56C710.397,328.56 720,338.164 720,349.992C720,361.821 710.397,371.424 698.568,371.424C697.881,371.424 697.201,371.392 696.529,371.328C695.938,371.366 695.343,371.386 694.744,371.387L689.407,370.882L684.412,369.399L680.214,367.2L679.36,366.616C679.136,367.018 678.914,367.469 678.695,367.969C678.209,369.075 677.53,370.019 677.53,371.147L677.533,385.868C677.779,392.551 693.192,395.415 700.065,397.337C702.492,398.016 702.862,399.682 702.378,399.96C702.403,399.987 702.353,400 702.222,400L643.88,400C643.749,400 643.7,399.987 643.724,399.96C643.24,399.682 643.611,398.016 646.038,397.337C652.911,395.415 668.324,392.551 668.57,385.868L668.573,371.147C668.573,370.019 667.893,369.075 667.408,367.969C667.189,367.469 666.967,367.018 666.743,366.616L662.641,368.987L657.817,370.641L652.476,371.366L651.358,371.387C650.768,371.386 650.18,371.367 649.597,371.329C648.931,371.392 648.256,371.424 647.573,371.424C635.745,371.424 626.141,361.821 626.141,349.992C626.141,338.164 635.745,328.56 647.573,328.56C649.497,328.56 651.361,328.814 653.134,329.29L651.978,325.234L651.639,321.416L651.743,319.771L651.393,319.826C651.514,319.739 651.635,319.653 651.756,319.568Z" style="fill:white;"/>
    </g>
</svg>
