<?xml version="1.0" encoding="UTF-8" standalone="no"?>
<!DOCTYPE svg PUBLIC "-//W3C//DTD SVG 1.1//EN" "http://www.w3.org/Graphics/SVG/1.1/DTD/svg11.dtd">
<svg width="100%" height="100%" viewBox="0 0 1000 1000" version="1.1" xmlns="http://www.w3.org/2000/svg" xmlns:xlink="http://www.w3.org/1999/xlink" xml:space="preserve" xmlns:serif="http://www.serif.com/" style="fill-rule:evenodd;clip-rule:evenodd;stroke-linejoin:round;stroke-miterlimit:2;">
    <g transform="matrix(2.76483,0,0,2.75154,-1174.74,-1314.66)">
        <path d="M625,604L635,679L659,664C652.734,659.401 649.718,655.343 651.551,653C657.233,645.737 680.691,643.072 707,641C698.248,663.903 685.126,677.851 680,680.332C676.129,682.206 671.416,678.696 667,673L637,695C646.095,855.684 526.359,822.052 524.532,816.083C522.944,810.896 448.098,770.375 598,698L604,612C604.804,588.949 608.17,574.436 612,574C617.871,573.332 622.747,581.676 625,604ZM595,722C586.717,751.296 571.848,769.503 561,776.69C555.528,780.316 550.013,781.101 544.202,779C539.93,777.456 539.459,772.228 540.812,767C544.76,751.745 574.788,730.963 595,722ZM682.493,560C675.256,554.064 671.665,547.094 669.296,539.778C663.413,541.998 656.537,542.948 649.074,543.148C659.386,517.39 674.934,498.485 703,495.963C701.687,517.309 697.659,538.654 682.493,560ZM543.544,560C550.781,554.064 554.372,547.094 556.741,539.778C562.624,541.998 569.5,542.948 576.963,543.148C566.651,517.39 551.103,498.485 523.037,495.963C524.35,517.309 528.378,538.654 543.544,560Z" style="fill:white;"/>
    </g>
</svg>
