<?xml version="1.0" encoding="UTF-8" standalone="no"?>
<!DOCTYPE svg PUBLIC "-//W3C//DTD SVG 1.1//EN" "http://www.w3.org/Graphics/SVG/1.1/DTD/svg11.dtd">
<svg width="100%" height="100%" viewBox="0 0 1000 1000" version="1.1" xmlns="http://www.w3.org/2000/svg" xmlns:xlink="http://www.w3.org/1999/xlink" xml:space="preserve" xmlns:serif="http://www.serif.com/" style="fill-rule:evenodd;clip-rule:evenodd;stroke-linejoin:round;stroke-miterlimit:2;">
    <g transform="matrix(1.75464,0,0,1.75464,-333.696,-452.096)">
        <path d="M413.324,568.64C410.98,577.821 406.839,583.383 400.899,585.324C398.524,586.101 396.176,586.343 393.855,586.049C390.12,600.682 388.914,616.065 390.238,632.199C389.048,636.006 386.794,639.504 383.476,642.693C380.158,645.881 376.836,648.019 373.51,649.106C370.659,650.038 367.709,650.083 364.658,649.239C363.929,645.27 364.81,638.408 367.301,628.653C367.96,626.071 369.288,621.298 371.283,614.335C373.041,607.449 374.25,602.715 374.909,600.132C376.228,594.968 376.75,591.642 376.477,590.153C374.412,590.565 371.347,591.699 367.28,593.554C363.214,595.41 360.349,596.609 358.686,597.153C348.471,600.493 331.995,607.457 309.26,618.045C283.289,630.217 267.891,638.933 263.064,644.193C260.413,646.9 255.519,657.967 248.382,677.393C242.599,693.22 238.673,704.759 236.604,712.01C234.904,714.406 232.984,715.954 230.846,716.653C227.758,717.663 224.789,716.924 221.94,714.437C219.092,711.95 218.107,708.985 218.986,705.542C219.425,703.821 221.364,699.637 224.803,692.99C228.242,686.344 230.263,682.264 230.867,680.752C243.037,647.584 259.731,609.914 280.95,567.739C339.779,449.895 377.746,388.177 394.851,382.585C413.144,376.605 420.101,400.101 415.721,453.073C414.231,471.705 408.719,508.218 399.186,562.612C400.245,563.581 403.406,563.994 408.668,563.851C412.651,563.601 414.203,565.197 413.324,568.64ZM485.819,467.628C486.405,465.333 487.375,463.241 488.728,461.352C490.081,459.463 492.449,457.44 495.83,455.283C499.211,453.126 501.862,451.273 503.781,449.725C505.701,448.177 507.364,446.779 508.772,445.53C510.179,444.281 511.413,443.286 512.473,442.545C513.533,441.804 514.776,441.2 516.202,440.734C517.389,440.346 518.6,440.081 519.833,439.941C521.067,439.801 522.04,439.614 522.753,439.381C522.99,439.304 524.274,438.752 526.604,437.728C528.934,436.703 531.758,435.451 535.075,433.972C538.392,432.493 542.006,430.917 545.917,429.244C549.828,427.571 553.639,425.865 557.349,424.126C559.56,423.14 562.146,421.966 565.107,420.604C568.068,419.241 570.91,417.918 573.633,416.633C576.356,415.348 578.764,414.232 580.856,413.285C582.949,412.338 584.352,411.748 585.064,411.515C587.203,410.816 589.413,411.54 591.696,413.686C593.978,415.832 594.79,418.197 594.131,420.779C593.764,422.213 593.289,423.224 592.704,423.809C592.119,424.395 591.36,425.235 590.427,426.328C589.495,427.422 588.475,429.07 587.369,431.273C586.262,433.475 584.885,436.95 583.238,441.696C576.429,461.54 570.357,480.421 565.021,498.338C559.684,516.254 555.001,533.103 550.973,548.883C547.456,562.655 545.468,573.429 545.006,581.206C544.545,588.982 545.035,594.739 546.476,598.475C543.459,602.617 539.812,605.387 535.536,606.785C531.973,607.95 529.108,608.295 526.944,607.819C524.779,607.344 523.4,605.493 522.808,602.268C522.216,599.043 522.461,594.033 523.543,587.236C524.625,580.44 526.631,571.304 529.561,559.827C532.638,547.777 535.678,536.725 538.68,526.671C541.682,516.618 544.634,506.975 547.535,497.743C550.437,488.511 553.265,479.566 556.02,470.908C558.775,462.25 561.525,453.396 564.271,444.347C564.784,442.338 564.446,441.528 563.258,441.916C559.457,443.159 554.989,444.883 549.853,447.088C544.718,449.293 539.783,451.563 535.05,453.9C530.316,456.236 526.277,458.411 522.932,460.425C519.587,462.439 517.805,463.877 517.585,464.737C515.918,472.119 514.174,479.592 512.351,487.157C510.529,494.721 508.629,502.377 506.651,510.123C504.893,517.009 502.888,524.436 500.636,532.403C498.384,540.371 495.876,548.488 493.112,556.755C490.349,565.021 487.443,573.203 484.396,581.299C481.349,589.395 478.152,597.014 474.804,604.157C468.109,618.442 461.306,628.884 454.395,635.482C447.485,642.08 440.229,646.622 432.627,649.107C429.301,650.195 425.664,650.792 421.718,650.899C417.771,651.006 414.323,650.226 411.373,648.561C408.423,646.896 406.287,644.176 404.965,640.401C403.642,636.626 403.823,631.439 405.508,624.84C407.486,617.093 411.207,612.327 416.671,610.54C420.472,609.298 422.669,610.289 423.261,613.514C423.852,616.739 424.216,620.433 424.35,624.596C424.485,628.76 425.026,632.396 425.975,635.504C426.923,638.613 429.535,639.468 433.812,638.07C437.613,636.827 441.552,633.764 445.629,628.881C449.707,623.998 453.913,616.904 458.249,607.597C462.584,598.291 467.068,586.701 471.698,572.828C476.329,558.955 481.098,542.407 486.006,523.184C487.837,516.011 489.669,508.838 491.5,501.665C493.331,494.493 495.044,487.359 496.638,480.264C497.15,478.255 497.028,477.243 496.269,477.228C495.511,477.213 494.657,477.361 493.707,477.672C492.994,477.905 492.304,478.262 491.637,478.743C490.97,479.224 490.042,479.659 488.854,480.047C486.954,480.668 485.771,479.543 485.307,476.671C484.843,473.798 485.014,470.784 485.819,467.628ZM381.944,567.46C388.897,518.906 392.898,489.592 393.945,479.52C398.411,433.882 396.213,412.644 387.35,415.804C377.463,419.563 359.588,445.655 333.724,494.081C318.377,524.343 303.148,554.566 288.039,584.75C285.661,588.946 282.688,595.045 279.121,603.049C276.413,610.245 277.197,613.144 281.473,611.746C282.898,611.28 290.51,607.477 304.309,600.336C315.111,594.701 340.989,583.742 381.944,567.46ZM567.831,590.31C569.369,584.285 573.005,577.509 578.737,569.981C584.469,562.453 590.942,555.012 598.154,547.658C605.366,540.304 612.688,533.374 620.119,526.869C627.55,520.363 633.578,515.303 638.202,511.687C633.105,512.039 628.194,511.869 623.472,511.178C618.749,510.487 614.899,508.721 611.923,505.881C608.946,503.042 607.016,498.873 606.134,493.377C605.251,487.88 606.018,480.398 608.435,470.93C610.852,461.462 614.983,451.894 620.826,442.226C626.669,432.559 633.307,423.617 640.739,415.402C648.171,407.187 656.086,400.063 664.486,394.03C672.885,387.998 680.885,383.738 688.488,381.253C691.338,380.321 694.313,379.546 697.41,378.928C700.507,378.309 703.006,377.69 704.907,377.068C706.57,376.525 708.393,375.14 710.377,372.913C712.36,370.687 714.184,369.302 715.847,368.758C718.46,367.904 720.575,367.936 722.191,368.854C723.808,369.771 724.634,371.013 724.67,372.579C727.136,372.299 729.041,372.728 730.383,373.867C731.725,375.006 731.957,377.297 731.078,380.74C730.492,383.035 729.591,384.645 728.376,385.568C727.16,386.491 725.922,387.29 724.661,387.966C723.399,388.641 722.179,389.369 721.001,390.148C719.822,390.928 719.012,392.179 718.573,393.9C717.035,399.926 715.253,407.542 713.229,416.75C711.205,425.958 709.313,434.86 707.554,443.456C705.795,452.051 704.347,459.427 703.211,465.584C702.074,471.741 701.625,474.78 701.862,474.702C704.585,475.127 706.183,476.117 706.657,477.671C707.131,479.225 707.075,481.15 706.489,483.445C705.683,486.601 704.544,489.143 703.072,491.071C701.601,492.998 700.042,494.625 698.397,495.952C696.752,497.279 695.321,498.404 694.106,499.327C692.89,500.251 692.172,501.143 691.953,502.003C689.389,512.045 686.153,522.372 682.246,532.985C678.339,543.597 674.703,552.084 671.337,558.443C669.728,561.336 667.904,563.576 665.866,565.162C663.828,566.749 661.739,567.892 659.601,568.591C658.413,568.979 656.604,569.242 654.174,569.379C651.744,569.516 650.859,568.294 651.518,565.712C651.884,564.277 652.844,562.648 654.399,560.825C657.178,556.761 660.512,549.886 664.4,540.2C668.289,530.514 671.771,519.646 674.848,507.595C675.067,506.735 674.36,506.309 672.724,506.317C671.089,506.326 667.658,507.185 662.432,508.894C656.674,511.828 650.583,515.857 644.158,520.982C637.733,526.106 631.261,531.838 624.744,538.176C618.227,544.514 611.896,551.185 605.753,558.19C599.61,565.195 593.905,572.188 588.639,579.169C586.006,582.659 583.556,586.287 581.288,590.053C579.02,593.818 576.223,596.244 572.897,597.332C570.996,597.953 569.476,597.727 568.334,596.654C567.193,595.581 567.025,593.466 567.831,590.31ZM628.94,462.254C625.278,476.6 626.666,485.876 633.104,490.082C639.542,494.288 649.12,495.364 661.838,493.31C663.501,492.766 665.831,491.741 668.828,490.236C671.826,488.73 675.956,486.196 681.221,482.634C682.244,482.037 682.939,481.021 683.305,479.586C687.261,464.093 690.531,449.152 693.116,434.765C695.7,420.377 697.572,407.077 698.73,394.866C694.911,395.325 689.913,396.565 683.736,398.584C677.559,400.603 671.532,403.954 665.656,408.637C659.779,413.319 654.454,418.61 649.682,424.509C644.91,430.408 640.685,436.72 637.009,443.444C633.332,450.168 630.643,456.438 628.94,462.254Z" style="fill:white;fill-rule:nonzero;"/>
    </g>
</svg>
