<?xml version="1.0" encoding="UTF-8" standalone="no"?>
<!DOCTYPE svg PUBLIC "-//W3C//DTD SVG 1.1//EN" "http://www.w3.org/Graphics/SVG/1.1/DTD/svg11.dtd">
<svg width="100%" height="100%" viewBox="0 0 1000 1000" version="1.1" xmlns="http://www.w3.org/2000/svg" xmlns:xlink="http://www.w3.org/1999/xlink" xml:space="preserve" xmlns:serif="http://www.serif.com/" style="fill-rule:evenodd;clip-rule:evenodd;stroke-linejoin:round;stroke-miterlimit:2;">
    <g transform="matrix(7.29166,0,0,7.29166,-3030.09,-3115.1)">
        <path d="M465.876,545.171L465.616,545.078C463.744,548.351 462.096,550.264 460.961,549.793C459.827,549.321 460.018,546.802 461.015,543.162C459.64,542.513 458.283,541.803 456.945,541.029C455.595,540.247 454.29,539.416 453.032,538.538C450.374,541.219 448.283,542.645 447.308,541.896C446.333,541.146 447.172,538.759 449.079,535.5C446.7,533.491 444.528,531.303 442.571,528.967C439.304,530.873 436.912,531.711 436.163,530.734C435.414,529.756 436.85,527.66 439.546,524.998C437.79,522.458 436.263,519.782 434.976,517.009C431.303,518.014 428.759,518.21 428.287,517.068C427.815,515.924 429.762,514.264 433.08,512.38C432.05,509.492 431.264,506.521 430.734,503.503C426.903,503.527 424.378,503.059 424.217,501.829C424.056,500.599 426.38,499.496 430.093,498.533C429.843,495.496 429.848,492.43 430.116,489.366C426.396,488.397 424.066,487.289 424.229,486.056C424.392,484.823 426.937,484.36 430.787,484.393C431.33,481.421 432.129,478.468 433.192,475.567C429.825,473.658 427.845,471.976 428.323,470.824C428.802,469.67 431.4,469.888 435.14,470.929C435.766,469.612 436.45,468.311 437.193,467.028C437.989,465.651 438.837,464.323 439.731,463.047C436.95,460.315 435.456,458.164 436.22,457.17C436.984,456.176 439.451,457.068 442.811,459.056C444.8,456.713 446.963,454.572 449.27,452.641C447.279,449.268 446.384,446.79 447.382,446.026C448.381,445.26 450.544,446.774 453.289,449.583C455.797,447.855 458.436,446.35 461.173,445.077C460.111,441.276 459.881,438.632 461.047,438.15C462.216,437.667 463.923,439.709 465.857,443.157C468.706,442.142 471.637,441.364 474.615,440.834C474.57,436.871 475.031,434.243 476.286,434.079C477.541,433.915 478.664,436.337 479.64,440.18C482.641,439.93 485.67,439.929 488.696,440.185C489.678,436.346 490.804,433.925 492.059,434.091C493.314,434.257 493.771,436.886 493.72,440.85C496.666,441.382 499.59,442.164 502.464,443.205C504.408,439.747 506.122,437.7 507.291,438.185C508.461,438.671 508.221,441.332 507.144,445.152C508.509,445.796 509.861,446.504 511.194,447.275C512.5,448.031 513.763,448.834 514.984,449.68C517.756,446.844 519.941,445.311 520.945,446.082C521.948,446.853 521.031,449.357 519.008,452.76C521.348,454.732 523.489,456.876 525.422,459.164C528.822,457.151 531.321,456.241 532.09,457.244C532.858,458.247 531.33,460.422 528.504,463.179C530.241,465.676 531.756,468.305 533.041,471.035C536.839,469.973 539.484,469.744 539.966,470.91C540.447,472.075 538.416,473.778 534.98,475.707C536.012,478.558 536.803,481.492 537.347,484.476C541.273,484.437 543.873,484.901 544.036,486.149C544.199,487.394 541.814,488.51 538.021,489.481C538.286,492.497 538.299,495.544 538.052,498.589C541.821,499.564 544.189,500.68 544.024,501.922C543.86,503.161 541.294,503.622 537.41,503.585C536.886,506.556 536.107,509.509 535.065,512.413C538.428,514.32 540.408,516.002 539.93,517.154C539.452,518.305 536.869,518.091 533.148,517.059C532.483,518.482 531.749,519.889 530.946,521.276C530.204,522.559 529.416,523.801 528.589,524.997C531.326,527.697 532.79,529.822 532.033,530.808C531.277,531.792 528.853,530.928 525.549,528.985C523.557,531.361 521.388,533.533 519.074,535.491C521.001,538.786 521.854,541.2 520.871,541.952C519.89,542.704 517.784,541.256 515.108,538.542C512.578,540.307 509.913,541.844 507.147,543.143C508.151,546.812 508.347,549.356 507.205,549.828C506.065,550.3 504.409,548.363 502.53,545.057L502.359,545.119L506.649,557.5L461.604,557.5L465.876,545.171ZM498.977,546.207L501.932,554.733L466.321,554.733L469.259,546.256C471.004,546.754 472.764,547.159 474.53,547.474C474.509,551.244 474.976,553.725 476.194,553.887C477.413,554.048 478.51,551.77 479.472,548.121C482.553,548.38 485.638,548.373 488.692,548.108C489.65,551.771 490.746,554.059 491.967,553.899C493.189,553.739 493.659,551.24 493.641,547.449C495.44,547.125 497.221,546.71 498.977,546.207ZM483.364,505.55L484.126,503.348L484.745,505.134L489.705,542.49C486.02,542.923 482.272,542.938 478.538,542.514L483.364,505.55ZM480.854,512.792L477,542.315C475.009,542.024 473.025,541.607 471.059,541.061L480.854,512.792ZM491.242,542.284L487.281,512.453L497.178,541.014L497.052,541.05C495.139,541.572 493.203,541.983 491.242,542.284ZM466.21,539.434L476.489,514.54L467.673,539.985L467.537,539.936C467.093,539.774 466.651,539.606 466.21,539.434ZM492.078,515.447L502.023,539.383C501.539,539.574 501.052,539.758 500.563,539.934L492.078,515.447ZM455.1,533.267L481.104,499.3L464.777,538.84C463.056,538.096 461.358,537.242 459.693,536.279C458.089,535.351 456.558,534.345 455.1,533.267ZM503.456,538.789L487.046,499.294L513.126,533.206C510.111,535.446 506.862,537.313 503.456,538.789ZM445.96,524.439L479.873,498.358L453.867,532.326C450.89,529.975 448.248,527.323 445.96,524.439ZM514.357,532.262L488.275,498.348L522.243,524.354C519.893,527.331 517.24,529.973 514.357,532.262ZM439.432,513.538L478.928,497.128L445.015,523.209C442.776,520.193 440.908,516.945 439.432,513.538ZM489.218,497.117L528.758,513.444C528.013,515.165 527.16,516.863 526.196,518.528C525.268,520.132 524.262,521.664 523.184,523.121L489.218,497.117ZM435.937,501.325L478.332,495.696L438.839,512.106C437.464,508.635 436.49,505.016 435.937,501.325ZM489.81,495.683L532.232,501.221C531.7,504.864 530.746,508.485 529.351,512.011L489.81,495.683ZM435.707,488.621L478.128,494.158L435.732,499.787C435.298,496.102 435.283,492.354 435.707,488.621ZM490.01,494.145L532.407,488.517C532.841,492.202 532.856,495.95 532.432,499.683L490.01,494.145ZM438.788,476.293L478.329,492.621L435.906,487.083C436.438,483.439 437.393,479.819 438.788,476.293ZM489.806,492.608L529.3,476.198C530.675,479.669 531.649,483.288 532.202,486.979L489.806,492.608ZM444.954,465.183L478.921,491.187L439.381,474.86C440.126,473.139 440.979,471.441 441.942,469.776C442.871,468.172 443.877,466.64 444.954,465.183ZM489.211,491.176L523.124,465.095C525.363,468.111 527.231,471.359 528.706,474.766L489.211,491.176ZM453.782,456.042L479.864,489.956L445.896,463.95C448.246,460.973 450.898,458.331 453.782,456.042ZM488.266,489.946L514.271,455.978C517.248,458.329 519.891,460.981 522.179,463.865L488.266,489.946ZM464.683,449.515L481.093,489.01L455.012,455.098C458.028,452.858 461.277,450.99 464.683,449.515ZM513.039,455.037L487.034,489.004L503.362,449.464C505.082,450.208 506.781,451.062 508.445,452.025C510.05,452.953 511.581,453.959 513.039,455.037ZM476.897,446.02L482.525,488.415L466.116,448.921C469.587,447.546 473.206,446.573 476.897,446.02ZM501.929,448.87L485.601,488.412L491.138,445.989C494.782,446.521 498.402,447.475 501.929,448.87ZM489.6,445.789L484.063,488.211L478.434,445.814C482.119,445.381 485.867,445.366 489.6,445.789Z" style="fill:white;"/>
    </g>
</svg>
