<?xml version="1.0" encoding="UTF-8" standalone="no"?>
<!DOCTYPE svg PUBLIC "-//W3C//DTD SVG 1.1//EN" "http://www.w3.org/Graphics/SVG/1.1/DTD/svg11.dtd">
<svg width="100%" height="100%" viewBox="0 0 1000 1000" version="1.1" xmlns="http://www.w3.org/2000/svg" xmlns:xlink="http://www.w3.org/1999/xlink" xml:space="preserve" xmlns:serif="http://www.serif.com/" style="fill-rule:evenodd;clip-rule:evenodd;stroke-linejoin:round;stroke-miterlimit:2;">
    <g transform="matrix(1,0,0,1,-140,-102.909)">
        <path d="M783.989,754.824L800.463,720.818L922.247,776.874L941.821,785.622C958.736,793.182 965.366,800.084 971.552,810.582C975.735,817.68 1008.91,808.659 1004.09,802.961C990.825,787.303 998.111,732.97 1006.85,737.711C1037.49,743.931 1064.89,756.825 1089.84,774.8C1091.06,790.906 1042.32,824.588 1022.49,821.53C1022.49,821.53 994.068,852.998 962.21,832.845L907.678,808.472L783.989,754.824ZM1076.69,366.242C1076.7,366.245 1076.7,366.249 1076.71,366.254C1076.7,366.247 1076.7,366.243 1076.69,366.242C1075.32,365.278 1041.27,462.721 1040.68,487.066C1040.15,509.253 1053.91,542.063 1053.91,565.819C1053.91,592.288 1016.42,598.55 1014.21,620.716C1012.82,634.665 1034.22,652.263 1027.45,659.766C1019.12,668.979 1006.49,727.395 1019.77,726.393C1036.45,725.135 1066.85,740.241 1083.94,749.62C1097.32,756.967 1083.86,687.939 1087.29,670.124C1090.73,652.308 1055.97,639.229 1053.91,618.757C1051.71,596.808 1081.61,590.921 1080.38,564.513C1079.15,538.105 1056.99,508.215 1053.91,486.413C1051.12,466.528 1075.76,365.944 1076.69,366.242ZM773.068,749.943C768.873,746.695 765.451,741.852 762.961,735.083L436.953,589.378L445.19,572.375L771.197,718.08C778.191,715.551 784.253,714.946 789.541,715.937L773.068,749.943ZM428.927,585.791C427.55,588.632 421.619,590.974 417.567,589.422L314.937,543.553C309.764,541.241 306.656,536.865 306.55,531.096L192.371,480.064C189.779,479.34 188.788,476.489 192.12,469.61C195.453,462.731 198.361,461.623 200.608,463.061L314.787,514.093C319.45,510.454 324.936,509.92 330.11,512.232L432.74,558.101C436.585,560.079 438.54,565.946 437.163,568.787L428.927,585.791Z" style="fill:white;"/>
    </g>
</svg>
