<?xml version="1.0" encoding="UTF-8" standalone="no"?>
<!DOCTYPE svg PUBLIC "-//W3C//DTD SVG 1.1//EN" "http://www.w3.org/Graphics/SVG/1.1/DTD/svg11.dtd">
<svg width="100%" height="100%" viewBox="0 0 1000 1000" version="1.1" xmlns="http://www.w3.org/2000/svg" xmlns:xlink="http://www.w3.org/1999/xlink" xml:space="preserve" xmlns:serif="http://www.serif.com/" style="fill-rule:evenodd;clip-rule:evenodd;stroke-linejoin:round;stroke-miterlimit:2;">
    <g transform="matrix(2.71463,0,0,2.71463,-856.692,-895.95)">
        <path d="M468.869,348.463C439.693,378.637 421.814,413.153 410,450C409.763,456.167 409.199,462.333 408.5,468.5C406.888,470.674 404.977,472.014 402.901,472.887C399.242,491.983 395.789,510.979 402.642,525.073C403.248,493.121 406.231,478.667 410,470L415.879,474.47C414.685,493.82 415.585,511.672 422.625,525.13C426.079,521.817 430.656,520.445 435.769,520C437.595,522.779 442.076,525.152 450,527C458.889,540.046 463.971,556.336 475.252,572.482C474.256,568.153 473.52,563.767 470,560C470.6,550.519 472.251,541.347 474.742,532.421C475.137,534.675 475.978,536.949 477.397,539.251C477.16,536.501 476.997,533.75 477,531C481.325,528.967 484.909,525.98 488.5,523C490.237,522.277 492.944,521.837 496,521.5C497.916,519.335 500.298,517.541 503,516C509.668,520.457 514.537,525.197 519,530C523.496,529.306 528.189,529.03 533,529C533.603,529.695 534.278,530.357 535,531C534.875,530.316 534.841,529.644 535,529C539.581,525.22 544.27,522.427 549,520C553.544,524.341 556.847,529.143 560,534C558.867,536.139 558.265,538.31 558,540.5C558.457,539.825 558.923,539.153 559.5,538.5C559.834,538.667 560.167,538.833 560.5,539C560.561,537.743 560.746,536.592 561,535.5C562.249,535.015 563.576,534.67 565,534.5C564.858,535.5 564.919,536.5 565,537.5C566.467,535.568 567.971,533.744 569.5,532C575.493,531.674 577.452,533.467 578,536C579.427,536.102 581.049,535.916 583.5,534.5C584.49,534.06 585.489,533.717 586.5,533.5C590.284,536.902 593.395,540.774 596,545C597.395,545.306 598.875,545.499 600.5,545.5C600.775,536.177 598.372,527.053 595,518C597.705,512.801 600.372,509.468 603,508C606.2,511.865 609.837,515.582 613.756,519.203C619.776,600.952 589.823,679.869 499.75,680L499.5,680C406.133,679.881 377.566,595.04 386.636,510.15C394.014,441.099 426.293,372.015 468.869,348.463Z" style="fill:white;"/>
    </g>
</svg>
