<?xml version="1.0" encoding="UTF-8" standalone="no"?>
<!DOCTYPE svg PUBLIC "-//W3C//DTD SVG 1.1//EN" "http://www.w3.org/Graphics/SVG/1.1/DTD/svg11.dtd">
<svg width="100%" height="100%" viewBox="0 0 1000 1000" version="1.1" xmlns="http://www.w3.org/2000/svg" xmlns:xlink="http://www.w3.org/1999/xlink" xml:space="preserve" xmlns:serif="http://www.serif.com/" style="fill-rule:evenodd;clip-rule:evenodd;stroke-linejoin:round;stroke-miterlimit:2;">
    <path d="M683.646,115.189L683.297,115.037L50,871.767C53.383,877.482 58.392,882.427 68.492,884.963L607.964,241.161L624.43,250.773L624.845,250.566C660.071,233.086 687.753,238.828 705.626,249.239C709.048,251.233 712.344,253.564 715.46,256.229C737.533,275.112 750.452,310.744 734.551,361.949C860.367,513.776 923.206,679.091 940.229,854.22L940.477,852.349C944.587,821.192 947.341,790.91 948.789,761.462L948.874,759.696C951.106,712.639 949.996,667.747 945.747,624.877C925.562,421.254 834.521,263.351 694.256,137.22L700.594,128.909C696.511,123.038 690.948,118.393 683.646,115.189ZM858.699,450.798L864.513,403.957L814.813,433.421L858.699,450.798ZM833.318,407.986L839.132,361.145L789.432,390.609L833.318,407.986ZM807.937,365.174L813.751,318.333L764.051,347.797L807.937,365.174Z" style="fill:white;"/>
</svg>
