<?xml version="1.0" encoding="UTF-8" standalone="no"?>
<!DOCTYPE svg PUBLIC "-//W3C//DTD SVG 1.1//EN" "http://www.w3.org/Graphics/SVG/1.1/DTD/svg11.dtd">
<svg width="100%" height="100%" viewBox="0 0 1000 1000" version="1.1" xmlns="http://www.w3.org/2000/svg" xmlns:xlink="http://www.w3.org/1999/xlink" xml:space="preserve" xmlns:serif="http://www.serif.com/" style="fill-rule:evenodd;clip-rule:evenodd;stroke-linejoin:round;stroke-miterlimit:2;">
    <g transform="matrix(4.24528,0,0,4.24528,-1338.21,-1393.4)">
        <path d="M387,465L327,465L327,473L404,473L428,403L470,527L478,535L499,468L507,490L514,497L522,474L539,474L539,465L514,465L503,433L496,428L475,487L431,363L424,357L387,465ZM510.694,475.092L496,431.5L471.488,500.135L424,360C424,360 389,465 389,465L396,465L422.589,383.516L471,525L495.415,454.326L507.5,486.5L514.5,466L514,466L510.694,475.092Z" style="fill:white;"/>
    </g>
</svg>
