<?xml version="1.0" encoding="UTF-8" standalone="no"?>
<!DOCTYPE svg PUBLIC "-//W3C//DTD SVG 1.1//EN" "http://www.w3.org/Graphics/SVG/1.1/DTD/svg11.dtd">
<svg width="100%" height="100%" viewBox="0 0 1000 1000" version="1.1" xmlns="http://www.w3.org/2000/svg" xmlns:xlink="http://www.w3.org/1999/xlink" xml:space="preserve" xmlns:serif="http://www.serif.com/" style="fill-rule:evenodd;clip-rule:evenodd;stroke-linejoin:round;stroke-miterlimit:2;">
    <g transform="matrix(7.79221,0,0,7.79221,-4601.95,-4863.64)">
        <path d="M600,654.168L597,655C606.502,685.022 628.83,700.736 668,700.5C637.366,702.581 613.544,693.621 600,668C597.625,672.927 598.362,678.655 601.5,685C601.467,683.139 601.836,681.674 602.5,680.5C602.43,689.194 606.141,695.186 611.5,700C611.732,698.657 612.095,697.542 612.5,696.5C613.945,701.943 615.936,706.696 619.575,709.5C621.706,711.141 623.79,712.637 625.5,714.46C627.105,716.171 629.944,715.998 632.5,716C631.062,713.738 630.341,711.719 630.5,710C632.088,710.425 633.824,711.425 634.19,713C635.466,718.477 642.119,721.381 650,720.268C656.268,719.383 661.954,721.469 668,722.5C667.567,721.319 666.945,719.976 665,717.5C669.667,719.433 675.646,720.362 682,716.216C686.349,713.378 691.48,711.83 696.5,710C694.022,708.835 691.714,708.255 689.5,708C692.257,704.644 694.283,700.98 699,700C701.905,699.397 705.449,697.911 707,695.6C708.195,693.818 709.931,692.098 712.5,690.5C709.269,689.584 707.213,688.542 706,687.427C703.38,685.017 697.554,687.766 695.5,689C695.186,687.833 696.526,686.666 698.5,685.5C697.098,684.795 695.821,684.347 695,683.912C692.019,682.335 688.851,683.854 685.037,686C680.355,688.634 677.181,688.663 675,689C677.95,688.106 680.414,686.738 682.5,685C675.724,685.628 669.045,685.628 663,684.203C657.249,682.848 650.367,684.746 642.5,685.5C643.449,683.565 644.981,683.831 646,683.523C647.567,683.051 648.113,681.767 648.5,681C643.291,681.449 638.6,680.573 634.5,678.218C630.237,675.77 625.242,676.747 621,676.5C621.677,675.555 623.201,675.494 624.5,675.216C625.805,674.937 626.887,674.114 628,673.5C621.803,672.907 615.861,672.293 612.5,669.437C609.721,667.075 606.665,666.747 604.5,666.5C601.657,661.528 600.409,657.579 600,654.168Z" style="fill:white;"/>
    </g>
</svg>
