<?xml version="1.0" encoding="UTF-8" standalone="no"?>
<!DOCTYPE svg PUBLIC "-//W3C//DTD SVG 1.1//EN" "http://www.w3.org/Graphics/SVG/1.1/DTD/svg11.dtd">
<svg width="100%" height="100%" viewBox="0 0 1000 1000" version="1.1" xmlns="http://www.w3.org/2000/svg" xmlns:xlink="http://www.w3.org/1999/xlink" xml:space="preserve" xmlns:serif="http://www.serif.com/" style="fill-rule:evenodd;clip-rule:evenodd;stroke-linejoin:round;stroke-miterlimit:2;">
    <g transform="matrix(6.52055,0,0,6.52055,-1867.04,-798.362)">
        <path d="M422.574,216.258C421.708,220.133 419.441,222.917 415.021,222.917L384.979,222.917C380.508,222.917 377.67,220.069 376.548,216.125C372.118,214.416 367.469,213.289 363,214.81C343.417,221.478 329.547,229.927 317,235L315,233C331.819,225.188 348.337,217.434 363,212.504C367.496,210.992 371.985,211.722 376.06,213.416C376.02,212.951 376,212.478 376,212L374.25,190.729C374.25,190.003 374.322,189.294 374.46,188.607C344.171,159.037 316.989,156.576 294,193L294,191C316.387,154.342 343.424,155.037 374.961,186.884C376.508,182.859 380.412,180 384.979,180L415.021,180C418.989,180 422.458,182.159 424.313,185.366C426.147,185.127 424.914,183.103 432,182L432,185C431.142,185.054 434.915,183.006 425.038,186.881C425.498,188.075 425.75,189.373 425.75,190.729L423,212C423,212.882 422.954,213.744 422.857,214.572C430.771,216.342 425.503,215.262 429,216L429,219C423.792,217.71 427.909,217.871 422.574,216.258ZM419,193.542C419,189.172 415.453,185.625 411.083,185.625L388.917,185.625C384.547,185.625 381,189.172 381,193.542L382.291,209.237C382.291,213.606 384.547,217.292 388.917,217.292L411.083,217.292C415.453,217.292 416.971,213.606 416.971,209.237L419,193.542ZM417,194.375C417,190.466 413.826,187.292 409.917,187.292L390.083,187.292C386.174,187.292 383,190.466 383,194.375L384.155,208.418C384.155,212.327 386.174,215.625 390.083,215.625L409.917,215.625C413.826,215.625 415.184,212.327 415.184,208.418L417,194.375ZM316.001,193.156C315.624,193.312 315.289,193.469 315,193.622C310.611,195.946 311.875,201.696 319,211C314.934,205.735 310.345,200.804 304,197C323.754,176.606 337.378,182.942 349,198C346.819,196.082 344.447,194.638 342,193.573C343.591,205.277 336.962,211.932 330,212.142C323.225,212.346 316.136,206.446 316.001,193.156ZM335.103,191.517C331.247,190.83 327.462,190.846 324.177,191.219C322.832,192.574 322,194.441 322,196.5C322,200.639 325.361,204 329.5,204C333.639,204 337,200.639 337,196.5C337,194.588 336.283,192.842 335.103,191.517Z" style="fill:white;"/>
    </g>
</svg>
