<?xml version="1.0" encoding="UTF-8" standalone="no"?>
<!DOCTYPE svg PUBLIC "-//W3C//DTD SVG 1.1//EN" "http://www.w3.org/Graphics/SVG/1.1/DTD/svg11.dtd">
<svg width="100%" height="100%" viewBox="0 0 1000 1000" version="1.1" xmlns="http://www.w3.org/2000/svg" xmlns:xlink="http://www.w3.org/1999/xlink" xml:space="preserve" xmlns:serif="http://www.serif.com/" style="fill-rule:evenodd;clip-rule:evenodd;stroke-linejoin:round;stroke-miterlimit:2;">
    <g transform="matrix(7.4787,0,0,7.4787,-3273.85,-3386.56)">
        <path d="M504.614,464.908C537.823,464.908 564.785,489.452 564.785,519.684C564.785,549.915 537.823,574.46 504.614,574.46C471.404,574.46 444.443,549.915 444.443,519.684C444.443,489.452 471.404,464.908 504.614,464.908ZM503.085,563.998C485.601,563.844 478.256,553.925 476.5,539.5C485.61,540.473 494.338,541 503.5,541L504.358,540.998C513.209,540.967 521.675,540.443 530.5,539.5C528.73,554.038 521.283,564 503.5,564L503.085,563.998ZM536,504C552.436,506.751 554.927,531.231 542,538C536.127,541.076 520.143,531.68 520.522,520C520.728,513.648 529.505,502.913 536,504ZM471,504C454.564,506.751 452.073,531.231 465,538C470.873,541.076 486.857,531.68 486.478,520C486.272,513.648 477.495,502.913 471,504ZM503.713,506.001C504.138,506.006 504.56,506.027 504.978,506.061L505.6,506.125L506.054,506.185C506.502,506.251 506.945,506.333 507.38,506.432C507.579,506.477 507.776,506.525 507.972,506.577C508.068,506.603 508.164,506.629 508.261,506.656C508.633,506.762 508.999,506.879 509.36,507.007L509.8,507.172C510.044,507.267 510.286,507.368 510.524,507.473L511.009,507.697L511.341,507.861C511.944,508.168 512.525,508.509 513.079,508.882L513.368,509.08C513.665,509.289 513.955,509.507 514.237,509.735L514.882,510.282C516.332,511.581 517.531,513.126 518.403,514.844L518.458,514.953C519.447,516.943 520,519.161 520,521.5C520,524.205 519.261,526.749 517.962,528.963C517.899,529.07 517.835,529.176 517.77,529.281C517.213,530.18 516.563,531.021 515.832,531.793C515.501,532.143 515.154,532.478 514.791,532.798L514.592,532.971C513.833,533.619 513.01,534.202 512.133,534.709C511.485,535.083 510.807,535.417 510.104,535.707L509.705,535.865C509.181,536.065 508.645,536.24 508.096,536.389L507.819,536.463C507.622,536.513 507.424,536.559 507.224,536.603C506.36,536.791 505.469,536.914 504.559,536.969C504.279,536.985 503.997,536.995 503.713,536.999L503.5,537C503.144,537 502.79,536.989 502.441,536.969C501.53,536.914 500.64,536.79 499.776,536.603L499.129,536.449L498.79,536.358C498.275,536.214 497.77,536.047 497.277,535.858L496.896,535.707C496.073,535.368 495.285,534.969 494.538,534.513L494.309,534.371C494.156,534.275 494.005,534.176 493.856,534.074L493.316,533.692L493.063,533.502C492.84,533.33 492.622,533.153 492.408,532.971L492.012,532.622C490.939,531.643 490.007,530.53 489.248,529.31L489.155,529.159C487.783,526.899 487,524.285 487,521.5C487,519.235 487.518,517.082 488.45,515.142C488.526,514.982 488.606,514.824 488.688,514.667C489.049,513.979 489.463,513.319 489.924,512.693C490.046,512.528 490.171,512.365 490.298,512.206C490.835,511.534 491.428,510.905 492.072,510.324C492.325,510.095 492.587,509.874 492.855,509.661L493.007,509.541C493.23,509.368 493.458,509.201 493.691,509.039L493.921,508.882C494.475,508.509 495.056,508.168 495.659,507.861L496.105,507.643C496.191,507.602 496.277,507.562 496.364,507.523C496.639,507.399 496.918,507.282 497.2,507.172C497.317,507.127 497.434,507.083 497.551,507.04C497.94,506.898 498.336,506.77 498.739,506.656L498.985,506.588L499.62,506.432C500.055,506.333 500.498,506.251 500.946,506.185C501.077,506.166 501.209,506.148 501.341,506.132L502.022,506.061C502.509,506.021 503.002,506 503.5,506L503.713,506.001ZM518.5,492.5C520.984,492.5 523,495.637 523,499.5C523,503.363 520.984,506.5 518.5,506.5C516.016,506.5 514,503.363 514,499.5C514,495.637 516.016,492.5 518.5,492.5ZM488.5,492.5C486.016,492.5 484,495.637 484,499.5C484,503.363 486.016,506.5 488.5,506.5C490.984,506.5 493,503.363 493,499.5C493,495.637 490.984,492.5 488.5,492.5ZM534.534,495.905C533.992,492.327 532.987,489.126 531.674,486.388C530.624,484.197 529.378,482.302 528.027,480.744C526.331,478.789 524.466,477.358 522.619,476.522C521.002,475.791 519.389,475.519 517.898,475.695C515.501,476.002 512.31,477.275 509.617,480.456C507.941,482.436 506.453,485.16 505.48,488.849C505.396,489.136 505.562,489.437 505.849,489.52C506.136,489.604 506.437,489.438 506.52,489.151C507.603,485.741 509.117,483.26 510.766,481.473C513.228,478.804 516.006,477.739 518.102,477.547C519.283,477.427 520.542,477.706 521.821,478.285C523.456,479.026 525.111,480.272 526.658,481.964C527.958,483.385 529.186,485.106 530.257,487.106C531.634,489.678 532.769,492.69 533.466,496.095C533.519,496.389 533.8,496.586 534.095,496.534C534.389,496.481 534.586,496.2 534.534,495.905ZM472.466,495.905C473.008,492.327 474.013,489.126 475.326,486.388C476.376,484.197 477.622,482.302 478.973,480.744C480.669,478.789 482.534,477.358 484.381,476.522C485.998,475.791 487.611,475.519 489.102,475.695C491.499,476.002 494.69,477.275 497.383,480.456C499.059,482.436 500.547,485.16 501.52,488.849C501.604,489.136 501.438,489.437 501.151,489.52C500.864,489.604 500.563,489.438 500.48,489.151C499.397,485.741 497.883,483.26 496.234,481.473C493.772,478.804 490.994,477.739 488.898,477.547C487.717,477.427 486.458,477.706 485.179,478.285C483.544,479.026 481.889,480.272 480.342,481.964C479.042,483.385 477.814,485.106 476.743,487.106C475.366,489.678 474.231,492.69 473.534,496.095C473.481,496.389 473.2,496.586 472.905,496.534C472.611,496.481 472.414,496.2 472.466,495.905Z" style="fill:white;"/>
    </g>
</svg>
