<?xml version="1.0" encoding="UTF-8" standalone="no"?>
<!DOCTYPE svg PUBLIC "-//W3C//DTD SVG 1.1//EN" "http://www.w3.org/Graphics/SVG/1.1/DTD/svg11.dtd">
<svg width="100%" height="100%" viewBox="0 0 1000 1000" version="1.1" xmlns="http://www.w3.org/2000/svg" xmlns:xlink="http://www.w3.org/1999/xlink" xml:space="preserve" xmlns:serif="http://www.serif.com/" style="fill-rule:evenodd;clip-rule:evenodd;stroke-linejoin:round;stroke-miterlimit:2;">
    <g transform="matrix(9.32642,0,0,9.32642,-4743.78,-4296.33)">
        <path d="M610.5,517.5C609.626,516.777 608.126,515.61 606,514C600.826,517.927 594.791,519.846 588,520C588.523,505.31 588.01,492.779 570,487.426C566.384,486.351 563.055,485.905 559,489C554.283,486.749 549.625,487.418 545,489.622C529.373,495.616 521.613,493.385 514,491C515.773,493.525 517.801,496.773 520.174,501C522.183,504.58 528.148,508.987 527,514C526.892,517.617 527.826,520.476 532,522C533.261,534.007 540.611,537.868 550,539C570.382,546.006 581.113,539.955 586,526C594.249,524.967 602.435,522.564 610.5,517.5ZM552,522C547.798,520.543 544.527,518.504 542,516C538.384,520.751 538.934,523.166 539.842,525C540.936,527.212 542.111,527.976 544,527.716C547.328,527.256 550.448,525.228 552,522ZM552,521C548.349,519.474 545.242,517.425 542.524,515C540.389,510.855 541.448,509.741 547.376,510C550.039,509.745 552.57,510.335 555,511.582L559,510C558.318,512.177 557.328,514.183 556,516C557.086,519.991 555.97,521.17 552,521ZM552.62,517C551.066,516.388 549.894,515.745 549,515.081C547.673,514.094 546.959,513.058 546.514,512C546.436,513.878 546.913,515.186 547.869,516C548.914,516.889 550.53,517.189 552.62,517Z" style="fill:white;"/>
    </g>
</svg>
