<?xml version="1.0" encoding="UTF-8" standalone="no"?>
<!DOCTYPE svg PUBLIC "-//W3C//DTD SVG 1.1//EN" "http://www.w3.org/Graphics/SVG/1.1/DTD/svg11.dtd">
<svg width="100%" height="100%" viewBox="0 0 1000 1000" version="1.1" xmlns="http://www.w3.org/2000/svg" xmlns:xlink="http://www.w3.org/1999/xlink" xml:space="preserve" xmlns:serif="http://www.serif.com/" style="fill-rule:evenodd;clip-rule:evenodd;stroke-linejoin:round;stroke-miterlimit:2;">
    <g transform="matrix(4.95142,0,0,4.95142,-2059.31,-2244.96)">
        <path d="M535,619C548.061,615.756 560.722,611.745 573,607C574.572,613.145 575.253,619.291 575,625.436C565.006,635.074 552.809,641.288 539,645C532.821,642.471 527.201,639.428 522,636C526.876,630.759 531.434,625.269 535,619ZM477,632.5C471.063,632.406 465.365,631.658 460,630C451.532,623.52 444.864,616.284 439.5,608.5C437.474,603.054 436.214,597.56 436,592C444.077,599.181 451.719,603.872 459,606.5C462.994,615.653 468.617,624.411 477,632.5ZM532.323,557.808L502,529L466,547L474,588L515,594L532.323,557.808ZM566,550C566.935,542.954 575.337,522.814 578,516C580.188,515.183 597.522,515.365 599,517C604.549,520.842 610.4,561.568 606.5,567C602.933,570.651 591.264,577.376 588,579C584.07,574.475 568.671,556.56 566,550ZM451,498C444.846,510 442.551,522 446,534C439.656,539.137 433.788,545.007 428,551L426,533.5C428.508,520.456 434.265,509.794 441,500.5L451,498ZM541.5,467.5C532.027,464.666 522.015,463.127 511,464C499.889,466.78 492.821,472.012 487,478C495.831,484.212 504.663,490.257 513.5,495.5C524.93,493.078 536.266,490.42 547.5,487.5C545.775,480.753 543.902,474.049 541.5,467.5Z" style="fill:white;"/>
    </g>
</svg>
