<?xml version="1.0" encoding="UTF-8" standalone="no"?>
<!DOCTYPE svg PUBLIC "-//W3C//DTD SVG 1.1//EN" "http://www.w3.org/Graphics/SVG/1.1/DTD/svg11.dtd">
<svg width="100%" height="100%" viewBox="0 0 1000 1000" version="1.1" xmlns="http://www.w3.org/2000/svg" xmlns:xlink="http://www.w3.org/1999/xlink" xml:space="preserve" xmlns:serif="http://www.serif.com/" style="fill-rule:evenodd;clip-rule:evenodd;stroke-linejoin:round;stroke-miterlimit:2;">
    <g transform="matrix(1.06199,0,0,1.06199,-30.9958,-30.9958)">
        <path d="M789.261,599.71L825.719,481.071C833.492,459.047 845.592,449.916 862.793,455.984C876.792,449.367 883.563,439.753 878.083,425.06C857.332,421.048 836.83,416.856 808.726,418.15C805.262,455.12 799.138,490.3 777.015,514.714C761.191,529.982 755.821,545.798 757.347,561.975L710.883,543.689C715.504,532.011 719.133,519.831 720.806,506.657C712.918,508.147 701.429,497.377 702.494,496.579C702.494,496.579 679.472,495.254 661.33,497.725C679.153,488.628 688.645,479.559 673.274,470.574C666.62,464.932 653.924,456.457 635.564,445.758C616.148,434.444 587.141,434.577 549.559,426.919C537.959,417.978 524.999,410.091 510.292,403.556L510.954,396.729L501.949,395.484L505.294,391.711L490.26,391.184C476.554,384.551 447.761,378.534 367.456,374.622L353.78,364.672C347.007,356.599 338.577,351.13 329.357,346.903L297.792,320.935C280.102,316.074 261.722,308.268 241.896,294.285C231.544,279.842 220.236,268.299 208.018,259.525C211.113,245.062 213.146,230.031 214.246,214.5C199.481,204.254 183.676,197.889 166.109,198.1L172.003,189.173L149.345,186.603L153.566,179.563L132.638,187.963C128.475,184.621 123.805,183.171 119.062,181.991L115.211,183.294C112.922,178.789 109.333,173.642 103.173,167.228C86.331,167.527 76.02,173.653 76.272,189.203C76.672,196.491 80.387,204.108 94.475,212.758L90.681,226.917L95.33,226.996L98.733,236.079L92.255,247.184C93.146,250.926 95.632,254.163 98.925,257.143C112.339,254.86 115.886,258.062 105.012,269.28L113.861,279.822C122.907,272.201 130.333,270.627 136.384,274.184L134.633,280.719L145.952,290.756L141.944,301.356C150.38,312.472 156.605,323.101 161.372,333.41C165.477,346.577 172.663,358.673 183.191,369.608C191.94,388.997 201.089,408.392 199.174,427.589L204.328,430.137C203.173,437.139 201.162,443.068 193.999,442.545C189.81,447.031 187.722,451.919 187.735,457.209C142.59,500.259 99.763,543.953 84.212,595.235C101.736,605.241 136.543,614.775 170.974,624.319C183.742,629.468 188.142,634.576 189.042,639.667C207.193,641.53 222.778,647.262 235.797,656.864C252.545,671.812 245.115,696.201 244.682,697.767C243.33,702.658 265.791,685.95 265.204,664.744C267.406,653.551 272.018,643.15 277.227,632.945C293.778,655.544 312.139,678.945 332.435,705.728C348.061,726.348 360.093,751.231 372.42,778.689L386.736,773.186C393.743,770.627 379.074,825.846 378.095,831.573C377.043,837.73 396.55,818.071 400.988,820.197C403.281,818.198 406.367,815.589 407.549,811.449C411.026,799.273 417.825,781.646 428.728,764.593C425.573,757.822 419.239,752.585 409.572,748.954C412.971,745.027 415.575,738.734 417.8,731.313C404.095,716.441 388.306,702.462 372.02,688.695C357.446,660.724 340.153,635.464 318.287,614.763L306.702,522.94C309.921,507.045 312.741,491.398 301.882,484.293C301.733,474.635 296.949,464.184 301.46,454.996C304.284,449.246 304.629,442.439 301.361,433.957L293.232,429.444L283.607,400.016L315.078,382.767C325.447,377.487 333.574,383.851 340.264,397.687C357.43,415.263 371.386,436.502 379.624,464.267C397.623,471.813 405.634,476.684 408.078,480.062C438.725,505.708 475.323,522.8 516.31,533.577C529.533,545.846 544.449,552.858 559.934,558.107C588.059,579.542 608.46,591.174 625.981,599.152C630.734,595.251 630.886,588.535 627.675,579.76C643.616,582.161 661.135,594.871 678.631,607.422C682.536,605.339 686.347,603.115 692.44,599.449C708.975,602.709 724.805,609.073 740.339,616.735C760.517,625.658 781.195,632.715 802.076,639.015C829.508,646.049 855.398,656.283 880.843,667.442C891.676,678.134 888.18,688.947 883.855,699.767C886.772,716.5 895.256,714.282 905.638,705.604C914.422,684.613 921.214,662.524 923.732,638.076C909.486,636.394 894.508,635.459 874.194,639.978C857.368,636.256 837.778,634.027 825.556,621.092C816.551,611.561 803.632,605.004 789.261,599.71ZM272.657,628.218L258.498,624.424L260.619,612.151C256.027,609.279 250.967,607.77 245.669,606.95C234.354,609.971 224.962,605.813 216.839,596.919C197.171,592.947 180.723,587.941 168.41,581.608C152.956,570.734 155.499,564.341 164.95,559.668C179.495,543.704 196.216,528.914 217.371,516.514C240.181,551.471 258.359,588.837 272.657,628.218ZM442.003,414.442L432.159,446.825C422.374,442.991 413.701,437.521 410.105,424.573C407.624,420.645 403.724,416.977 399.078,413.446C413.774,415.725 428.182,416.556 442.003,414.442ZM316.402,369.114C316.417,372.371 314.97,374.223 312.472,375.065C303.045,370.929 294.559,364.982 286.781,357.675C297.616,360.299 307.706,363.844 316.402,369.114ZM166.865,234.49C166.832,237.173 166.14,239.421 164.72,241.19C163.3,242.958 161.153,244.247 158.209,245.011C158.563,238.918 161.711,235.679 166.865,234.49Z" style="fill:white;"/>
    </g>
</svg>
