<?xml version="1.0" encoding="UTF-8" standalone="no"?>
<!DOCTYPE svg PUBLIC "-//W3C//DTD SVG 1.1//EN" "http://www.w3.org/Graphics/SVG/1.1/DTD/svg11.dtd">
<svg width="100%" height="100%" viewBox="0 0 1000 1000" version="1.1" xmlns="http://www.w3.org/2000/svg" xmlns:xlink="http://www.w3.org/1999/xlink" xml:space="preserve" xmlns:serif="http://www.serif.com/" style="fill-rule:evenodd;clip-rule:evenodd;stroke-linejoin:round;stroke-miterlimit:2;">
    <g transform="matrix(25.1728,0,0,25.1728,-15484.7,-9270.15)">
        <path d="M624.939,380.585C623.169,377.261 621.482,374.341 620.483,373C619.737,371.998 624.608,369.427 625,370.507C625.588,372.13 627.97,375.817 630.729,379.652C632.047,379.551 633.471,379.5 635,379.5L635.222,379.5C644.592,379.531 649.972,381.515 651.047,385C652.503,389.717 649.561,406 635,406L634.915,406C620.428,405.935 617.5,389.708 618.953,385C619.566,383.012 621.581,381.512 624.939,380.585ZM638.434,389.387C639.218,389.332 640.001,389.254 640.78,389.146C641.795,389.006 642.807,388.816 643.792,388.533C644.111,388.442 644.426,388.34 644.736,388.225C644.956,388.143 645.172,388.055 645.385,387.957C645.551,387.881 645.714,387.799 645.874,387.709C645.997,387.64 646.117,387.567 646.235,387.489C646.316,387.435 646.394,387.378 646.471,387.319C646.86,387.016 647.239,386.598 647.276,386.082C647.281,386.007 647.279,385.931 647.27,385.857C647.255,385.745 647.224,385.635 647.18,385.531C647.112,385.37 647.014,385.223 646.902,385.09C646.725,384.881 646.511,384.704 646.287,384.549C645.932,384.304 645.544,384.109 645.148,383.94C644.607,383.711 644.044,383.531 643.475,383.38C642.766,383.192 642.045,383.049 641.32,382.935C639.295,382.614 637.239,382.511 635.19,382.5L635,382.5C634.252,382.5 633.538,382.515 632.858,382.543C634.871,385.211 636.895,387.715 638.434,389.387ZM626.414,383.41C620.687,384.972 621.62,388.096 629.226,389.147C628.389,387.351 627.415,385.368 626.414,383.41Z" style="fill:white;"/>
    </g>
</svg>
