<?xml version="1.0" encoding="UTF-8" standalone="no"?>
<!DOCTYPE svg PUBLIC "-//W3C//DTD SVG 1.1//EN" "http://www.w3.org/Graphics/SVG/1.1/DTD/svg11.dtd">
<svg width="100%" height="100%" viewBox="0 0 1000 1000" version="1.1" xmlns="http://www.w3.org/2000/svg" xmlns:xlink="http://www.w3.org/1999/xlink" xml:space="preserve" xmlns:serif="http://www.serif.com/" style="fill-rule:evenodd;clip-rule:evenodd;stroke-linejoin:round;stroke-miterlimit:2;">
    <path d="M252.572,482.637C253.403,492.877 255.317,502.661 259.293,511.576C177.449,566.327 110.142,650.379 50,748.875L50,737.299C91.368,640.527 150.297,551.734 252.572,482.637ZM704.019,285.852L675.08,251.125L553.537,251.125C454.061,253.982 377.937,302.691 304.662,390.032L264.148,442.122C253.831,457.992 261.019,513.015 275.723,523.151C310.304,546.987 343.684,570.855 455.145,592.605C481.589,596.057 508.569,596.241 536.174,592.605C606.368,583.359 692.928,518.728 698.232,395.82L704.019,285.852ZM341.498,376.63L338.382,377.649C329.938,380.873 321.167,388.115 313.252,402.191L310.564,407.307L306.695,416.019L304.726,421.188C302.652,427.138 302.842,434.068 304.823,441.108C306.64,447.567 309.964,454.128 314.293,460.053C315.238,461.35 316.233,462.617 317.273,463.846C317.839,464.515 318.417,465.172 319.009,465.817C320.268,467.194 321.581,468.513 322.94,469.763C336.601,482.328 354.689,487.821 369.244,475.562C373.9,487.899 380.409,500.489 389.089,513.207C453.049,606.922 563.495,566.547 601.805,531.083C635.939,499.485 683.362,417.991 625.35,336.267C570.777,259.387 468.995,278.134 430.571,299.822C406.695,313.3 380.098,341.966 367.356,379.264L367.355,379.264C360.042,376.092 350.967,374.043 341.498,376.63ZM373.737,471.005C378.289,483.745 384.879,496.771 393.869,509.944C455.204,599.812 561.136,560.844 597.873,526.836C630.678,496.467 676.385,418.161 620.631,339.617C568.191,265.742 470.338,284.022 433.416,304.863C410.348,317.884 384.7,345.732 372.577,381.89C376.595,384.1 379.72,386.349 381.582,387.675C382.883,388.601 383.187,390.409 382.261,391.71C381.335,393.012 379.526,393.316 378.225,392.39C376.278,391.003 372.778,388.393 368.263,386.045C368.098,385.996 367.937,385.932 367.78,385.854C361.034,382.45 352.036,379.588 342.601,382.332L340.447,383.056C331.365,386.523 322.2,395.335 314.15,413.259L311.136,420.546L310.11,423.329C308.487,428.187 308.784,433.819 310.394,439.541C312.07,445.497 315.174,451.541 319.208,456.98L321.692,460.108C322.164,460.667 322.646,461.217 323.136,461.757C324.327,463.066 325.571,464.319 326.858,465.503C339.175,476.832 355.749,482.044 368.332,468.435C368.441,468.316 368.559,468.208 368.684,468.112C374.518,461.65 379.452,451.197 382.865,435.711C383.209,434.152 384.755,433.165 386.314,433.508C387.874,433.852 388.861,435.398 388.517,436.957C385.015,452.845 379.804,463.827 373.737,471.005ZM605.627,361.093C592.468,305.806 481.633,288.383 425.745,337.942C399.496,361.218 387.562,398.948 408.842,453.698C429.745,507.475 482.453,517.411 518.81,517.485C597.686,517.646 628.021,455.181 605.627,361.093ZM276.319,465.938C280.13,464.747 285.563,471.262 288.444,480.478C291.324,489.695 290.568,498.145 286.757,499.336C282.946,500.527 277.513,494.011 274.633,484.795C271.752,475.578 272.508,467.129 276.319,465.938ZM560,323.155C589.982,339.399 599.687,362.319 606.31,389.744C613.177,425.582 604.85,455.973 590,480C608.007,432.462 610.926,369.717 560,323.155ZM350.965,407.395C355.756,407.395 359.646,414.527 359.646,423.312C359.646,432.096 355.756,439.228 350.965,439.228C346.173,439.228 342.283,432.096 342.283,423.312C342.283,414.527 346.173,407.395 350.965,407.395ZM490.343,396.932C467.099,403.922 441.089,402.191 426.206,387.138C407.34,368.058 427.672,343.683 455.577,328.307C483.482,312.931 518.96,306.555 530.386,323.473C545.292,345.543 538.225,365.809 521.893,380.06C523.964,380.849 525.862,382.211 527.492,384.244C535.595,394.351 529.804,407.099 520.18,416.01C510.556,424.922 497.099,429.997 489.871,424.759C481.198,418.473 483.52,406.861 490.343,396.932ZM689.55,254.019L712.701,285.852C801.477,265.706 875.465,294.583 944.212,340.836L950,335.048C877.858,278.852 794.112,245.734 689.55,254.019ZM655.437,266.013C657.808,264.136 664.599,268.759 670.592,276.33C676.585,283.902 679.525,291.573 677.153,293.45C674.782,295.327 667.991,290.704 661.998,283.132C656.005,275.561 653.065,267.89 655.437,266.013Z" style="fill:white;"/>
</svg>
