<?xml version="1.0" encoding="UTF-8" standalone="no"?>
<!DOCTYPE svg PUBLIC "-//W3C//DTD SVG 1.1//EN" "http://www.w3.org/Graphics/SVG/1.1/DTD/svg11.dtd">
<svg width="100%" height="100%" viewBox="0 0 1000 1000" version="1.1" xmlns="http://www.w3.org/2000/svg" xmlns:xlink="http://www.w3.org/1999/xlink" xml:space="preserve" xmlns:serif="http://www.serif.com/" style="fill-rule:evenodd;clip-rule:evenodd;stroke-linejoin:round;stroke-miterlimit:2;">
    <g transform="matrix(2.71084,0,0,2.71084,-814.793,-871.687)">
        <path d="M620,340L620,580C621.577,629.649 547.7,648.539 485.025,671.991L485.025,672L485.012,671.995L485,672L485,671.991C422.324,648.539 348.448,629.649 350.025,580L350.025,340L620,340ZM357.025,348L357.025,580C355.448,629.649 422.326,641.541 485.012,664.995C547.699,641.541 614.577,629.649 613,580L613,348L357.025,348ZM485.025,368.01C497.286,372.914 507.996,382.654 520,391.674C541.207,407.608 573.002,410.226 610,410C566.29,448.28 551.539,491.17 577,564L485.025,636.98L485.025,637L485.012,636.99L485,637L485,636.98L393.025,564C418.485,491.17 403.735,448.28 360.025,410C397.023,410.226 428.818,407.608 450.025,391.674C462.029,382.654 472.739,372.914 485,368.01L485,368L485.012,368.005L485.025,368L485.025,368.01ZM485.012,390.01C460.302,410.923 430.885,420.943 398.025,423C426.495,459.545 435.068,501.067 414.025,550C410.789,557.585 411.668,564.311 417.512,570L485.012,619.991L552.512,570C558.357,564.311 559.236,557.585 556,550C534.957,501.067 543.53,459.545 572,423C539.14,420.943 509.723,410.923 485.012,390.01ZM520,464L520,437C476.589,423.886 451.33,430.507 441.399,453.793C439.384,458.518 437.038,463.882 437.224,470C437.456,477.644 441.028,489.821 452.916,496.036C466.296,503.032 461.74,493.999 503.444,510C514.885,514.39 514.157,527.127 509.094,534.786C498.42,550.93 474.673,566.605 452.375,542.699C449.207,539.303 453.068,526.107 443,530L437,556C507.862,579.304 528.725,544.334 532.297,517.126C533.543,507.634 528.191,499.584 514.896,492.973C503.638,487.375 487.396,482.94 467.156,480C456.158,478.402 456.893,462.791 463.107,452.702C469.068,443.024 478.443,438.768 490,440.942C498.215,442.487 508.166,448.228 520,464Z" style="fill:white;"/>
    </g>
</svg>
