<?xml version="1.0" encoding="UTF-8" standalone="no"?>
<!DOCTYPE svg PUBLIC "-//W3C//DTD SVG 1.1//EN" "http://www.w3.org/Graphics/SVG/1.1/DTD/svg11.dtd">
<svg width="100%" height="100%" viewBox="0 0 1000 1000" version="1.1" xmlns="http://www.w3.org/2000/svg" xmlns:xlink="http://www.w3.org/1999/xlink" xml:space="preserve" xmlns:serif="http://www.serif.com/" style="fill-rule:evenodd;clip-rule:evenodd;stroke-linejoin:round;stroke-miterlimit:2;">
    <g transform="matrix(4.49327,0,0,4.49327,-2289.65,-1494.78)">
        <path d="M637,523C633.376,522.717 629.588,519.365 632.149,516C637.627,508.803 643.034,498.381 643,487C615.581,464.975 588.272,458.346 561,457C558.434,462.281 553.057,466.694 545,470.168C536.109,474.001 534.969,487.7 532,499C524.22,495.955 520.444,487.247 522,471C518.587,458.93 522.001,446.744 531,433.654C539.083,421.898 548.735,411.948 561,404C559.625,385.118 566.189,370.415 570,370.482C570.618,369.847 575.495,372.532 576,387C579.029,374.293 584.763,364.353 594,358C597.046,369.458 597.707,381.671 598,394C619.904,394.272 641.454,397.338 660,408.098C674.354,416.426 687.74,427.686 702,438.871C708.124,443.674 714.408,448.463 721,453C711.381,455.794 701.975,458.741 693,462C681.057,470.006 671.932,480.884 665,494C665.929,511.315 662.401,527.273 648,529.736C644.447,530.344 641.094,529.457 637,523ZM658,495C656.25,503.676 653.916,510.852 648.957,515C645.974,517.495 647.349,521.455 648,523C657.259,520.155 660.293,510.495 658,495ZM652,488C650.158,495.833 644.647,503.411 639.846,509C637.312,511.95 638.237,515.455 638.889,517C645.742,513.649 651.068,502.816 652,488ZM531,485L530,494C528.341,492.06 526.708,490.033 526,485L531,485ZM534,473L532,481L527,481L527,473L534,473ZM550.781,461C551.585,450.903 549.97,447.618 548,449.384C546.781,450.476 545.432,455.078 543.878,461C542.81,465.071 538.199,467.57 534,469C542.711,468.538 550.307,466.951 550.781,461ZM604,400C598.381,405.423 596.243,410.013 605,412C628.988,413.606 652.753,421.492 676,444C677.829,456.992 674.352,459.979 664,450C640.655,430.998 616.084,414.989 579.841,430C573.826,432.491 573.9,441.788 580,456C579.942,451.935 580.788,438.4 583,436.425C587.848,432.095 599.857,429.234 610,430.643C628.207,433.174 649.858,443.844 673,467C678.606,462.445 683.623,457.611 687,452C696.312,452.392 703.701,452.727 709,453C705.069,446.712 699.511,442.68 692,441.358C685.444,440.204 681.758,432.803 677,428C655.297,410.837 631.398,400.209 604,400ZM573,409C571.428,414.069 571.74,421.804 566.952,423C543.055,428.969 532.284,444.375 528,465C527.771,449.138 531.512,435.267 542.606,424C550.923,415.553 561.745,408.961 573,409ZM535.5,457C536.88,457 538,458.12 538,459.5C538,460.88 536.88,462 535.5,462C534.12,462 533,460.88 533,459.5C533,458.12 534.12,457 535.5,457ZM593,409C585.903,416.442 581.68,418.252 578,419C575.992,399.485 581.1,381.94 592,366C592.364,379.463 592.753,392.194 593,409ZM574,398C571.24,400.451 567.701,401.836 564,403C563.984,390.39 566.061,381.59 571,378C573.499,384.313 573.883,390.964 574,398Z" style="fill:white;"/>
    </g>
</svg>
