<?xml version="1.0" encoding="UTF-8" standalone="no"?>
<!DOCTYPE svg PUBLIC "-//W3C//DTD SVG 1.1//EN" "http://www.w3.org/Graphics/SVG/1.1/DTD/svg11.dtd">
<svg width="100%" height="100%" viewBox="0 0 1000 1000" version="1.1" xmlns="http://www.w3.org/2000/svg" xmlns:xlink="http://www.w3.org/1999/xlink" xml:space="preserve" xmlns:serif="http://www.serif.com/" style="fill-rule:evenodd;clip-rule:evenodd;stroke-linejoin:round;stroke-miterlimit:2;">
    <g transform="matrix(2.55682,0,0,2.55682,-376.989,-1308.95)">
        <path d="M387.576,711.502C387.885,713.175 388.156,714.874 388.378,716.606C386.519,723.616 384.482,730.522 382.208,737.292C387.293,746.667 392.231,756.08 397.091,765.515C400.53,761.955 403.607,757.958 406.323,753.524C409.577,754.667 413.284,754.856 416.983,755.06C387.694,805.692 356.071,847.223 318.868,867C321.225,852.245 323.36,837.533 324.646,822.993C343.087,810.581 369.456,796.501 385.065,764.345C382.405,765.108 378.967,765.072 376.502,765.175C364.92,782.499 348.008,794.094 332.78,806.905C323.801,808.521 314.87,810.018 306.093,811.127C318.323,794.717 326.907,780.174 334.325,766.228C343.821,764.371 353.609,762.952 361.646,758.907C366.514,751.288 371.146,743.557 375.146,735.524C370.571,731.549 365.449,727.912 360.006,724.474L363.662,717.485C372.086,718.447 380.614,716.304 387.576,711.502ZM319.832,712.74L323.877,719.643C300.268,726.27 272.571,730.186 285.308,748.839C253.032,752.378 216.448,696.49 223.059,697.021C227.865,697.407 260.566,737.396 270.468,703.136L273.249,702.02C283.423,717.148 303.753,722.024 319.776,712.773L319.832,712.74ZM385.112,652.367L389.067,645.412C406.611,662.545 423.851,684.573 433.636,664.216C452.839,690.398 422.731,750.025 419.885,744.034C417.817,739.679 436.097,691.365 401.476,699.919L399.119,698.069C407.134,681.694 401.192,661.65 385.168,652.399L385.112,652.367ZM360.755,655.462C367.611,653.722 375.124,654.548 381.727,658.36C395.166,666.119 399.778,683.329 392.018,696.768C384.259,710.207 367.049,714.819 353.61,707.06C347.007,703.248 342.535,697.154 340.614,690.347L362.569,691.285C366.786,691.538 370.784,689.387 372.897,685.728C375.009,682.07 374.873,677.531 372.545,674.006L360.755,655.462ZM329.33,690.099C327.409,696.907 322.937,703 316.334,706.812C302.895,714.571 285.685,709.96 277.926,696.52C270.167,683.081 274.778,665.871 288.217,658.112C294.82,654.3 302.333,653.474 309.189,655.214L297.399,673.758C295.071,677.283 294.935,681.822 297.048,685.48C299.16,689.139 303.158,691.291 307.376,691.037L329.33,690.099ZM267.388,685.306C265.783,684.738 264.177,684.123 262.566,683.449C257.425,678.334 252.462,673.117 247.736,667.762C237.075,667.479 226.454,667.049 215.853,666.54C217.217,671.298 219.139,675.962 221.621,680.53C219.004,682.777 216.987,685.893 214.961,688.995C185.757,638.314 165.602,590.162 167.076,548.055C178.676,557.473 190.349,566.678 202.298,575.062C203.827,597.238 202.836,627.115 222.88,656.71C223.548,654.025 225.298,651.066 226.442,648.88C217.23,630.187 215.644,609.744 212.164,590.15C215.253,581.566 218.423,573.083 221.851,564.928C229.947,583.724 238.25,598.43 246.619,611.827C243.479,620.979 239.814,630.165 239.298,639.148C243.463,647.173 247.842,655.051 252.798,662.53C258.529,660.556 264.239,657.939 269.939,654.944L274.163,661.605C269.117,668.419 266.71,676.876 267.388,685.306ZM353.443,658.456L366.054,678.292C366.758,679.359 366.799,680.732 366.16,681.839C365.521,682.946 364.311,683.597 363.035,683.52L339.552,682.517C339.578,677.8 340.793,673.026 343.318,668.651C345.844,664.277 349.371,660.838 353.443,658.456ZM330.393,682.269L306.909,683.273C305.633,683.349 304.424,682.698 303.784,681.591C303.145,680.484 303.186,679.111 303.891,678.044L316.501,658.209C320.573,660.59 324.1,664.029 326.626,668.404C329.151,672.778 330.366,677.552 330.393,682.269ZM321.109,651.329L331.981,630.491C332.553,629.347 333.722,628.625 335,628.625C336.278,628.625 337.447,629.347 338.019,630.491L348.891,651.329C344.793,653.665 340.051,655 335,655C329.949,655 325.207,653.665 321.109,651.329ZM314.859,646.494C309.924,641.427 306.883,634.507 306.883,626.883C306.883,611.365 319.482,598.766 335,598.766C350.518,598.766 363.117,611.365 363.117,626.883C363.117,634.507 360.076,641.427 355.141,646.494L344.976,627.012C343.087,623.233 339.225,620.846 335,620.846C330.775,620.846 326.913,623.233 325.024,627.012L314.859,646.494ZM300,626.948L292,627C298.065,603.24 308.522,577.296 286,579C299.073,549.279 365.766,545.54 362,551C359.263,554.969 308.281,563.295 333,589L332.576,591.966C314.387,593.213 300,608.381 300,626.883L300,626.948ZM349.981,595.247C351.276,594.142 352.611,593.058 354,592C361,590.105 368,588.416 375,587C380.576,577.909 386.259,568.926 392,560C387.198,558.802 382.198,558.135 377,558C376.363,554.61 374.673,551.306 373,548C431.493,548.049 483.272,554.67 519,577C505.043,582.337 491.235,587.843 478,594C458.031,584.236 432.652,568.439 397,571C398.991,572.922 400.679,575.917 402,578C422.795,579.368 441.292,588.217 460,595C465.89,601.967 471.652,608.953 477,616C456.673,613.613 439.787,613.451 424,614C417.644,606.705 411.522,598.938 404,594C394.968,593.594 385.956,593.448 377,594C375.845,599.95 375.256,606.204 375,612.637L367.119,612.966C363.741,605.189 357.621,598.875 349.981,595.247Z" style="fill:white;"/>
    </g>
</svg>
