<?xml version="1.0" encoding="UTF-8" standalone="no"?>
<!DOCTYPE svg PUBLIC "-//W3C//DTD SVG 1.1//EN" "http://www.w3.org/Graphics/SVG/1.1/DTD/svg11.dtd">
<svg width="100%" height="100%" viewBox="0 0 1000 1000" version="1.1" xmlns="http://www.w3.org/2000/svg" xmlns:xlink="http://www.w3.org/1999/xlink" xml:space="preserve" xmlns:serif="http://www.serif.com/" style="fill-rule:evenodd;clip-rule:evenodd;stroke-linejoin:round;stroke-miterlimit:2;">
    <g transform="matrix(3.31435,0,0,3.33096,-1142.53,-1176.56)">
        <path d="M385.99,525.302C399.586,494.72 429.54,478.646 453.162,478.646L538,478.646C561.66,478.646 591.671,494.771 605.238,525.452L605.172,525.302L631.354,525.302L631.354,528.011L359.807,528.011L359.807,525.302L385.99,525.302ZM587.354,503.783L587.354,525.302L602.198,525.302L602.177,525.257C601.547,523.902 600.88,522.565 600.173,521.248C598.908,518.889 597.519,516.595 596.015,514.38C594.37,511.957 592.586,509.627 590.676,507.406C589.618,506.176 588.521,504.98 587.388,503.818L587.354,503.783ZM496.969,525.084L496.969,525.302L524.232,525.302L510.658,504.36L496.969,525.084ZM558.766,525.302L584.101,525.302L574.787,511.492L558.766,525.302ZM527.913,525.302L555.35,525.302L542.21,505.526L527.913,525.302ZM403.807,503.783L403.807,525.302L388.964,525.302L388.985,525.257C389.615,523.902 390.282,522.565 390.988,521.248C392.254,518.889 393.642,516.595 395.146,514.38C396.792,511.957 398.575,509.627 400.486,507.406C401.544,506.176 402.641,504.98 403.773,503.818L403.807,503.783ZM432.395,525.302L407.06,525.302L416.375,511.492L432.395,525.302ZM463.249,525.302L435.812,525.302L448.952,505.526L463.249,525.302ZM486.029,512.724L480.483,504.392L466.93,525.302L494.261,525.302L494.261,525.093L494.193,524.991L494.193,525.084L486.029,512.724ZM558.354,524.007L574.083,510.448L558.354,487.126L558.354,524.007ZM432.807,524.007L417.078,510.448L432.807,487.126L432.807,524.007ZM527.354,523.941L541.471,504.414L527.354,483.167L527.354,523.941ZM463.807,523.941L449.691,504.414L463.807,483.167L463.807,523.941ZM575.74,510.67L584.646,523.874L584.646,502.993L575.74,510.67ZM415.421,510.67L406.516,523.874L406.516,502.993L415.421,510.67ZM511.41,503.222L524.646,523.643L524.646,483.184L511.41,503.222ZM542.992,504.444L555.646,523.489L555.646,486.94L542.992,504.444ZM448.17,504.444L435.516,523.489L435.516,486.94L448.17,504.444ZM466.516,483.405L466.516,523.417L479.704,503.222L466.516,483.405ZM494.193,483.321L494.193,522.735L494.261,522.837L494.261,483.217L494.193,483.321ZM496.969,522.816L509.916,503.215L496.969,483.238L496.969,522.816ZM487.073,512.037L494.193,522.735L494.193,483.321L487.072,494.224L481.245,503.215L487.073,512.037ZM558.522,485.139L575.037,509.626L584.646,501.342L584.646,501.141L584.625,501.122C583.486,500.065 582.317,499.042 581.118,498.055C577.956,495.452 574.588,493.097 571.056,491.024C568.074,489.274 564.975,487.724 561.782,486.399C560.716,485.958 559.641,485.542 558.556,485.151L558.522,485.139ZM432.639,485.139L416.125,509.626L406.516,501.342L406.516,501.141L406.537,501.122C407.675,500.065 408.844,499.042 410.043,498.055C413.206,495.452 416.573,493.097 420.106,491.024C423.087,489.274 426.187,487.724 429.38,486.399C430.445,485.958 431.521,485.542 432.606,485.151L432.639,485.139ZM527.65,481.354L542.253,503.332L555.646,484.806L555.646,484.177C549.613,482.303 543.622,481.354 538,481.354L527.65,481.354ZM463.511,481.354L448.909,503.332L435.516,484.806L435.516,484.177C441.549,482.303 447.54,481.354 453.162,481.354L463.511,481.354ZM510.668,502.077L524.356,481.354L497.237,481.354L510.668,502.077ZM486.025,493.541L480.472,502.045L466.805,481.354L493.924,481.354L486.025,493.541Z" style="fill:white;"/>
    </g>
</svg>
