<?xml version="1.0" encoding="UTF-8" standalone="no"?>
<!DOCTYPE svg PUBLIC "-//W3C//DTD SVG 1.1//EN" "http://www.w3.org/Graphics/SVG/1.1/DTD/svg11.dtd">
<svg width="100%" height="100%" viewBox="0 0 1000 1000" version="1.1" xmlns="http://www.w3.org/2000/svg" xmlns:xlink="http://www.w3.org/1999/xlink" xml:space="preserve" xmlns:serif="http://www.serif.com/" style="fill-rule:evenodd;clip-rule:evenodd;stroke-linejoin:round;stroke-miterlimit:2;">
    <g transform="matrix(1.45385,0,0,1.65025,-70.6699,-804.89)">
        <path d="M221.133,842.277L177.113,970L155.909,929.995L145.775,931.142L150.694,925.342L159.087,924.436L176.03,961.825L178.84,955.337L162.827,917.579L156.45,918.554L221.133,842.277ZM200,823.724L83,890L120,900L125,945L215,840L200,823.724ZM96,888L125,896L127,937L132,932L131,891L102,884.362L96,888ZM207,820C339.364,788.309 455.695,790.966 590,822.027L561.335,850C428.002,817.661 363.333,816.442 230,850L207,820ZM200,810C333.79,786.962 467.118,787.233 600,810C600,810 718.944,757.457 700,723.52C616.18,573.362 182.852,574.826 100,723.52C81.085,757.467 200,810 200,810ZM214.596,799.469C338.622,778.874 462.219,779.117 585.404,799.469C585.404,799.469 695.667,752.499 678.106,722.163C600.404,587.934 198.7,589.243 121.894,722.163C104.36,752.508 214.596,799.469 214.596,799.469ZM630.901,765.898C617.243,775.457 601.397,785.066 585,794.276C558.954,788.242 524.238,782.975 480,778.553C518.332,740.189 557.157,701.963 567,655.626C597.054,655.093 654.004,700.945 672,725C669.43,731.114 664.432,737.603 657.628,744.298C659.709,741.06 661.502,737.629 663,734C660.9,731.049 658.214,728.283 654,726C646.591,739.591 638.862,752.86 630.901,765.898ZM569.499,776.505C569.499,776.505 568.998,779.124 567.63,780.877C575.68,782.545 584.854,785.177 591.133,788.796C591.922,788.063 595.685,786.472 596.002,785.424C589.682,781.731 569.499,776.505 569.499,776.505ZM574.171,768.924C574.171,768.924 573.602,771.875 572.05,773.85C581.172,775.724 592.302,779.684 599.416,783.756C600.128,783.099 604.561,781.442 605,780C597.84,775.845 574.171,768.924 574.171,768.924ZM508,769C529.685,738.192 553.215,707.183 570,670C583.998,673.06 602.414,685.273 615,696C602.304,732.116 581.875,755.769 565,782L554,780C559.759,769.168 569.605,758.875 578,734C571.888,730.19 561.783,725.639 554,723.951C542.892,741.695 531.43,756.199 520,771L508,769ZM594.002,749C604.993,736.292 612.803,720.948 621,702C633.294,708.48 641.443,714.356 648,720C645.254,728.894 641.755,735.964 637,740C633.073,740.715 629.077,740.762 625,740C623.798,752.555 622.024,760.322 620,766L610,760C613.393,754.44 615.087,746.478 615,736C611.476,742.965 607.506,749.339 603,755L594.002,749ZM625.001,715C628.657,716.518 632.32,718.856 636,723C636.001,723.882 632.668,730.607 630,730C628.946,729.76 620,725.949 620,725.949C621.957,722.26 623.634,718.609 625.001,715ZM559,710.725C564.993,702.984 569.68,694.422 573,685C581.268,686.251 593.573,692.648 600,698C596.424,707.927 590.091,716.261 585,723C578.075,717.522 567.42,711.393 559,710.725Z" style="fill:white;"/>
    </g>
</svg>
