<?xml version="1.0" encoding="UTF-8" standalone="no"?>
<!DOCTYPE svg PUBLIC "-//W3C//DTD SVG 1.1//EN" "http://www.w3.org/Graphics/SVG/1.1/DTD/svg11.dtd">
<svg width="100%" height="100%" viewBox="0 0 1000 1000" version="1.1" xmlns="http://www.w3.org/2000/svg" xmlns:xlink="http://www.w3.org/1999/xlink" xml:space="preserve" xmlns:serif="http://www.serif.com/" style="fill-rule:evenodd;clip-rule:evenodd;stroke-linejoin:round;stroke-miterlimit:2;">
    <g transform="matrix(1.71301,0,0,1.71301,-806.505,-729.589)">
        <path d="M638.056,685.97L662.212,688.724C662.381,688.744 662.55,688.687 662.673,688.569C662.796,688.452 662.861,688.286 662.849,688.116L660.065,646.588C660.055,646.448 659.995,646.317 659.896,646.219L639.467,625.973C639.296,625.805 639.04,625.76 638.822,625.86C638.605,625.96 638.473,626.185 638.491,626.424L641.318,663.993L602.368,625.394L602.117,624.286C602.276,623.906 602.199,623.45 601.889,623.143L601.848,623.102L600.639,617.776C600.615,617.67 600.561,617.573 600.483,617.496L553.539,570.975C553.47,570.907 553.386,570.858 553.293,570.831L544.043,568.177L522.878,547.203C523.067,546.949 523.304,546.688 523.597,546.419L525.751,544.246L525.316,543.815C525.205,542.089 527.578,539.489 529.792,537.482C530.689,536.668 531.653,535.592 533.065,535.126L533.5,535.556C535.03,535.061 536.668,534.91 538.883,536.583L541.898,533.54C542.232,533.205 543.503,533.995 544.468,534.921L547.331,532.032L565.587,550.123L566.03,552.285L593.849,579.853C599.064,585.02 602.558,588.576 602.343,592.146L624.946,614.545L624.533,618.874L623.671,619.744L626.279,622.328L626.682,615.836L624.703,608.705L713.159,696.362L727.235,699.11L748.316,720.002L739.889,722.42L737.52,724.811L734.914,722.659L734.052,723.528L738.511,728.593C738.873,737.311 734.896,749.597 737.393,760.007C739.532,768.93 745.971,776.089 750.782,786.629L747.35,793.135C746.582,794.792 745.787,795.387 744.763,795.311C730.676,794.266 720.847,805.029 719.432,839.13C718.601,855.169 709.575,870.896 694.147,886.38L694.793,892.683L682.294,903.557L670.996,893.223L615.484,865.781C613.227,863.374 611.246,860.558 610.248,856.285L611.92,843.296L641.329,839.701L646.96,840.974L648.264,842.266C671.75,819.82 682.379,799.869 678.283,782.776C674.895,779.738 666.259,780.836 655.786,783.382C654.991,783.036 654.132,782.746 653.212,782.501C651.882,782.147 649.832,782.652 648.854,781.683L622.339,755.407C619.889,753.042 619.485,750.742 620.577,748.491L620.571,747.112L633.668,733.895C633.758,733.804 633.815,733.686 633.83,733.559L635.408,720.258C635.429,720.083 635.367,719.907 635.242,719.783L633.106,717.666C633.106,717.666 634.267,704.194 634.267,704.194C634.267,704.194 644.853,693.512 644.853,693.512C645.076,693.287 645.074,692.924 644.849,692.701L638.056,685.97ZM887.335,685.97L863.179,688.724C863.01,688.744 862.841,688.687 862.718,688.569C862.595,688.452 862.53,688.286 862.542,688.116L865.326,646.588C865.336,646.448 865.396,646.317 865.495,646.219L885.924,625.973C886.095,625.805 886.351,625.76 886.569,625.86C886.786,625.96 886.918,626.185 886.9,626.424L884.073,663.993L923.023,625.394L923.274,624.286C923.115,623.906 923.192,623.45 923.502,623.143L923.543,623.102L924.752,617.776C924.776,617.67 924.83,617.573 924.908,617.496L971.852,570.975C971.921,570.907 972.005,570.858 972.098,570.831L981.348,568.177L1002.51,547.203C1002.32,546.949 1002.09,546.688 1001.79,546.419L999.64,544.246L1000.08,543.815C1000.19,542.089 997.813,539.489 995.599,537.482C994.702,536.668 993.738,535.592 992.326,535.126L991.891,535.556C990.361,535.061 988.723,534.91 986.508,536.583L983.493,533.54C983.159,533.205 981.888,533.995 980.923,534.921L978.06,532.032L959.804,550.123L959.361,552.285L931.542,579.853C926.327,585.02 922.833,588.576 923.048,592.146L900.445,614.545L900.858,618.874L901.72,619.744L899.112,622.328L898.709,615.836L900.688,608.705L812.232,696.362L798.156,699.11L777.075,720.002L785.502,722.42L787.871,724.811L790.477,722.659L791.339,723.528L786.88,728.593C786.518,737.311 790.495,749.597 787.998,760.007C785.859,768.93 779.42,776.089 774.609,786.629L778.041,793.135C778.809,794.792 779.604,795.387 780.628,795.311C794.715,794.266 804.544,805.029 805.959,839.13C806.79,855.169 815.816,870.896 831.244,886.38L830.598,892.683L843.097,903.557L854.395,893.223L909.907,865.781C912.164,863.374 914.145,860.558 915.143,856.285L913.471,843.296L884.062,839.701L878.431,840.974L877.127,842.266C853.641,819.82 843.012,799.869 847.108,782.776C850.496,779.738 859.132,780.836 869.605,783.382C870.4,783.036 871.259,782.746 872.179,782.501C873.509,782.147 875.559,782.652 876.537,781.683L903.052,755.407C905.502,753.042 905.906,750.742 904.814,748.491L904.82,747.112L891.723,733.895C891.633,733.804 891.576,733.686 891.561,733.559L889.983,720.258C889.962,720.083 890.024,719.907 890.149,719.783L892.285,717.666C892.285,717.666 891.124,704.194 891.124,704.194C891.124,704.194 880.538,693.512 880.538,693.512C880.315,693.287 880.317,692.924 880.542,692.701L887.335,685.97ZM655.222,850.023C677.387,829.462 687.132,810.943 683.629,794.605C682.159,787.747 681.234,782.945 682.906,780.104C687.871,771.674 715.569,759.227 728.733,768.887C734.304,772.974 737.595,780.933 739.344,792.955C727.196,798.703 716.981,807.665 717.737,824.959C718.902,851.622 701.065,868.033 691.257,876.255L655.222,850.023ZM870.169,850.023C848.004,829.462 838.259,810.943 841.762,794.605C843.232,787.747 844.157,782.945 842.484,780.104C837.52,771.674 809.822,759.227 796.658,768.887C791.087,772.974 787.796,780.933 786.047,792.955C798.195,798.703 808.41,807.665 807.654,824.959C806.489,851.622 824.326,868.033 834.134,876.255L870.169,850.023ZM670.027,757.108C672.075,759.121 672.15,761.048 671.263,763.397C669.759,767.375 664.068,771.546 658.785,776.878C657.664,778.106 655.873,778.624 653.6,778.632C651.901,777.846 650.352,777.159 648.831,776.49L625.362,754.095C624.443,753.152 623.766,752.403 623.62,751.507L642.138,731.95C642.629,731.455 643.392,731.557 644.738,732.804L662.556,749.599C661.597,753.936 659.788,756.652 655.379,758.425C652.786,759.468 648.917,758.954 644.86,759.632C643.373,761.677 643.206,765.073 650.08,765.666C653.899,765.996 661.255,765.558 662.192,764.746C665.097,762.229 667.538,759.666 670.027,757.108ZM855.364,757.108C853.316,759.121 853.241,761.048 854.128,763.397C855.632,767.375 861.323,771.546 866.606,776.878C867.727,778.106 869.518,778.624 871.791,778.632C873.49,777.846 875.039,777.159 876.56,776.49L900.029,754.095C900.948,753.152 901.625,752.403 901.771,751.507L883.253,731.95C882.762,731.455 881.999,731.557 880.653,732.804L862.835,749.599C863.794,753.936 865.603,756.652 870.012,758.425C872.605,759.468 876.474,758.954 880.531,759.632C882.018,761.677 882.185,765.073 875.311,765.666C871.492,765.996 864.136,765.558 863.199,764.746C860.294,762.229 857.853,759.666 855.364,757.108ZM845.026,675.118C845.147,674.998 845.316,674.938 845.485,674.954C845.655,674.971 845.809,675.062 845.905,675.203C855.66,689.583 868.761,700.648 881.978,711.596C882.131,711.723 882.208,711.919 882.181,712.116C882.095,712.742 881.592,713.727 881.143,714.172C881.143,714.172 831.59,763.277 831.59,763.277C831.397,763.47 831.094,763.498 830.867,763.347C816.093,753.453 802.968,741.926 794.074,726.205C793.946,725.98 793.985,725.697 794.169,725.515L845.026,675.118ZM680.365,675.118C680.244,674.998 680.075,674.938 679.906,674.954C679.736,674.971 679.582,675.062 679.486,675.203C669.731,689.583 656.63,700.648 643.413,711.596C643.26,711.723 643.183,711.919 643.21,712.116C643.296,712.742 643.799,713.727 644.248,714.172C644.248,714.172 693.801,763.277 693.801,763.277C693.994,763.47 694.297,763.498 694.524,763.347C709.298,753.453 722.423,741.926 731.317,726.205C731.445,725.98 731.406,725.697 731.222,725.515L680.365,675.118ZM850.178,682.882L837.116,695.825L835.796,700.579L810.151,725.993L806.713,720.785L847.934,680.008C847.05,678.835 846.185,677.638 845.345,676.417L795.289,726.021C804.01,741.25 816.77,752.477 831.116,762.132C831.116,762.132 880.335,713.357 880.335,713.357C880.577,713.118 880.843,712.649 880.973,712.253C876.315,708.394 871.675,704.516 867.192,700.482L825.223,742.072L817.469,734.248L843.984,707.973L849.608,708.431L863.114,696.721C858.529,692.378 854.163,687.817 850.178,682.882ZM675.213,682.882L688.275,695.825L689.595,700.579L715.24,725.993L718.678,720.785L677.457,680.008C678.341,678.835 679.206,677.638 680.046,676.417L730.102,726.021C721.381,741.25 708.621,752.477 694.275,762.132C694.275,762.132 645.056,713.357 645.056,713.357C644.814,713.118 644.548,712.649 644.418,712.253C649.076,708.394 653.716,704.516 658.199,700.482L700.168,742.072L707.922,734.248L681.407,707.973L675.783,708.431L662.277,696.721C666.862,692.378 671.228,687.817 675.213,682.882ZM996.279,625.792L976.286,607.537C976.286,607.537 963.844,611.767 963.844,611.767C963.844,611.767 881.757,693.112 881.757,693.112C881.757,693.112 892.085,703.534 892.085,703.534C892.18,703.629 892.238,703.755 892.249,703.888L893.451,717.835C893.466,718.005 893.405,718.172 893.284,718.292L891.156,720.401C891.156,720.401 892.677,733.228 892.677,733.228L905.038,745.701L940.022,713.601C941.847,711.965 941.703,710.251 939.184,707.539L928.85,696.242C923.475,690.382 925.459,679.002 933.975,668.376C944.243,655.565 964.42,640.439 991.487,624.694C992.996,625.164 994.595,625.527 996.279,625.792ZM529.112,625.792L549.105,607.537C549.105,607.537 561.547,611.767 561.547,611.767C561.547,611.767 643.634,693.112 643.634,693.112C643.634,693.112 633.306,703.534 633.306,703.534C633.211,703.629 633.153,703.755 633.142,703.888L631.94,717.835C631.925,718.005 631.986,718.172 632.107,718.292L634.235,720.401C634.235,720.401 632.714,733.228 632.714,733.228L620.353,745.701L585.369,713.601C583.544,711.965 583.688,710.251 586.207,707.539L596.541,696.242C601.916,690.382 599.932,679.002 591.416,668.376C581.148,655.565 560.971,640.439 533.904,624.694C532.395,625.164 530.796,625.527 529.112,625.792ZM885.641,627.87L882.533,669.162C882.52,669.333 882.584,669.501 882.708,669.62C882.832,669.738 883.002,669.795 883.172,669.775C883.172,669.775 906.196,667.054 906.196,667.054C906.196,667.054 888.395,684.694 888.395,684.694L863.732,687.506L866.457,646.881C866.457,646.881 885.641,627.87 885.641,627.87ZM639.75,627.87L642.858,669.162C642.871,669.333 642.807,669.501 642.683,669.62C642.559,669.738 642.389,669.795 642.219,669.775C642.219,669.775 619.195,667.054 619.195,667.054C619.195,667.054 636.996,684.694 636.996,684.694L661.659,687.506L658.934,646.881C658.934,646.881 639.75,627.87 639.75,627.87ZM925.059,621.607C925.47,621.272 926.076,621.298 926.457,621.682L927.924,623.163C928.329,623.571 928.326,624.232 927.917,624.637L926.436,626.104C926.028,626.509 925.367,626.506 924.963,626.097L924.212,625.34L924.105,625.811C924.081,625.918 924.027,626.015 923.949,626.092L883.941,665.738L883.729,668.554L885.803,668.309L1005.69,549.502L1005.68,549.466C1005.09,549.186 1004.45,549.34 1003.74,550.126L1003.08,549.454C1003.16,549.075 1003.17,548.685 1003.06,548.279L982.051,569.096C981.983,569.164 981.898,569.213 981.805,569.24L972.556,571.894C972.556,571.894 925.834,618.193 925.834,618.193L925.059,621.607ZM600.332,621.607C599.921,621.272 599.315,621.298 598.934,621.682L597.467,623.163C597.062,623.571 597.065,624.232 597.474,624.637L598.955,626.104C599.363,626.509 600.024,626.506 600.428,626.097L601.179,625.34L601.286,625.811C601.31,625.918 601.364,626.015 601.442,626.092L641.45,665.738L641.662,668.554L639.588,668.309L519.699,549.502L519.716,549.466C520.305,549.186 520.941,549.34 521.647,550.126L522.312,549.454C522.23,549.075 522.226,548.685 522.334,548.279L543.34,569.096C543.408,569.164 543.493,569.213 543.586,569.24L552.835,571.894C552.835,571.894 599.557,618.193 599.557,618.193L600.332,621.607ZM998.081,625.883L1025.39,591.096L1006.21,550.602L887.654,668.09L907.716,665.719C907.735,665.716 907.754,665.715 907.774,665.715L963.13,610.859C963.192,610.798 963.267,610.751 963.349,610.723L976.238,606.341C976.436,606.274 976.655,606.32 976.809,606.461L998.081,625.883ZM527.31,625.883L500,591.096L519.178,550.602L637.737,668.09L617.675,665.719C617.656,665.716 617.637,665.715 617.617,665.715L562.261,610.859C562.199,610.798 562.124,610.751 562.042,610.723L549.153,606.341C548.955,606.274 548.736,606.32 548.582,606.461L527.31,625.883ZM594.193,619.918L595.953,618.141C596.358,617.733 596.355,617.072 595.946,616.667L594.465,615.2C594.057,614.795 593.396,614.798 592.991,615.207L591.231,616.983C590.826,617.392 590.829,618.052 591.238,618.457L592.719,619.924C593.127,620.329 593.788,620.326 594.193,619.918ZM931.198,619.918L929.438,618.141C929.033,617.733 929.036,617.072 929.445,616.667L930.926,615.2C931.334,614.795 931.995,614.798 932.4,615.207L934.16,616.983C934.565,617.392 934.562,618.052 934.153,618.457L932.672,619.924C932.264,620.329 931.603,620.326 931.198,619.918ZM589.717,611.962C590.122,611.553 590.119,610.893 589.71,610.488L588.229,609.021C587.821,608.616 587.16,608.619 586.756,609.027L585.288,610.508C584.883,610.917 584.886,611.577 585.295,611.982L586.776,613.449C587.184,613.854 587.845,613.851 588.25,613.442L589.717,611.962ZM935.674,611.962C935.269,611.553 935.272,610.893 935.681,610.488L937.162,609.021C937.57,608.616 938.231,608.619 938.635,609.027L940.103,610.508C940.508,610.917 940.505,611.577 940.096,611.982L938.615,613.449C938.207,613.854 937.546,613.851 937.141,613.442L935.674,611.962ZM583.481,605.782C583.886,605.374 583.883,604.713 583.474,604.308L581.994,602.841C581.585,602.436 580.925,602.439 580.52,602.848L579.052,604.328C578.648,604.737 578.651,605.397 579.059,605.802L580.54,607.27C580.948,607.674 581.609,607.671 582.014,607.263L583.481,605.782ZM941.91,605.782C941.505,605.374 941.508,604.713 941.917,604.308L943.397,602.841C943.806,602.436 944.466,602.439 944.871,602.848L946.339,604.328C946.743,604.737 946.74,605.397 946.332,605.802L944.851,607.27C944.443,607.674 943.782,607.671 943.377,607.263L941.91,605.782ZM572.823,599.623L574.313,601.099C574.723,601.495 575.376,601.489 575.778,601.083L577.245,599.603C577.65,599.194 577.647,598.534 577.238,598.129L575.758,596.662C575.349,596.257 574.689,596.26 574.284,596.668L572.817,598.149C572.412,598.557 572.415,599.218 572.823,599.623ZM952.568,599.623L951.078,601.099C950.668,601.495 950.015,601.489 949.613,601.083L948.146,599.603C947.741,599.194 947.744,598.534 948.153,598.129L949.633,596.662C950.042,596.257 950.702,596.26 951.107,596.668L952.574,598.149C952.979,598.557 952.976,599.218 952.568,599.623ZM571.009,593.423C571.414,593.015 571.411,592.354 571.002,591.949L569.522,590.482C569.113,590.077 568.453,590.08 568.048,590.489L566.581,591.969C566.176,592.378 566.179,593.038 566.587,593.443L568.068,594.91C568.477,595.315 569.137,595.312 569.542,594.904L571.009,593.423ZM954.382,593.423C953.977,593.015 953.98,592.354 954.389,591.949L955.869,590.482C956.278,590.077 956.938,590.08 957.343,590.489L958.81,591.969C959.215,592.378 959.212,593.038 958.804,593.443L957.323,594.91C956.914,595.315 956.254,595.312 955.849,594.904L954.382,593.423ZM560.351,587.264L561.842,588.74C562.251,589.136 562.904,589.129 563.306,588.724L564.773,587.244C565.178,586.835 565.175,586.175 564.766,585.77L563.286,584.302C562.877,583.898 562.217,583.901 561.812,584.309L560.345,585.79C559.94,586.198 559.943,586.859 560.351,587.264ZM965.04,587.264L963.549,588.74C963.14,589.136 962.487,589.129 962.085,588.724L960.618,587.244C960.213,586.835 960.216,586.175 960.625,585.77L962.105,584.302C962.514,583.898 963.174,583.901 963.579,584.309L965.046,585.79C965.451,586.198 965.448,586.859 965.04,587.264ZM554.116,581.084L555.606,582.561C556.015,582.956 556.668,582.95 557.07,582.545L558.537,581.064C558.942,580.655 558.939,579.995 558.531,579.59L557.05,578.123C556.641,577.718 555.981,577.721 555.576,578.13L554.109,579.61C553.704,580.019 553.707,580.679 554.116,581.084ZM971.275,581.084L969.785,582.561C969.376,582.956 968.723,582.95 968.321,582.545L966.854,581.064C966.449,580.655 966.452,579.995 966.86,579.59L968.341,578.123C968.75,577.718 969.41,577.721 969.815,578.13L971.282,579.61C971.687,580.019 971.684,580.679 971.275,581.084ZM552.301,574.884C552.706,574.476 552.703,573.815 552.295,573.41L550.814,571.943C550.405,571.538 549.745,571.541 549.34,571.95L547.873,573.431C547.468,573.839 547.471,574.5 547.88,574.904L549.36,576.372C549.769,576.777 550.429,576.774 550.834,576.365L552.301,574.884ZM973.09,574.884C972.685,574.476 972.688,573.815 973.096,573.41L974.577,571.943C974.986,571.538 975.646,571.541 976.051,571.95L977.518,573.431C977.923,573.839 977.92,574.5 977.511,574.904L976.031,576.372C975.622,576.777 974.962,576.774 974.557,576.365L973.09,574.884Z" style="fill:white;"/>
    </g>
</svg>
