<?xml version="1.0" encoding="UTF-8" standalone="no"?>
<!DOCTYPE svg PUBLIC "-//W3C//DTD SVG 1.1//EN" "http://www.w3.org/Graphics/SVG/1.1/DTD/svg11.dtd">
<svg width="100%" height="100%" viewBox="0 0 1000 1000" version="1.1" xmlns="http://www.w3.org/2000/svg" xmlns:xlink="http://www.w3.org/1999/xlink" xml:space="preserve" xmlns:serif="http://www.serif.com/" style="fill-rule:evenodd;clip-rule:evenodd;stroke-linejoin:round;stroke-miterlimit:2;">
    <g transform="matrix(6.78675,1.18734e-16,-1.18734e-16,-5.81721,-2886.59,3433.97)">
        <path d="M511.314,450.667C508.686,445.91 504.876,441.779 499.5,439.23L499.143,439.065C499.263,439.119 499.381,439.174 499.5,439.23L499.5,439.23L499.5,427.004C522.697,427.338 530.26,449.011 532.123,462C534.272,476.978 530.564,486.353 517,503C515.125,506.087 515.812,506.521 517.867,511.083L547.021,570.07C548.57,573.94 539.348,582.757 535.917,581.616C534.013,580.982 531.883,579.357 530.417,576.07L508,526.417C505.135,521.34 502.153,521.269 499,521.25L498.852,521.252C495.754,521.33 492.821,521.419 490,526.417L467.583,576.07C466.117,579.357 463.987,580.982 462.083,581.616C458.652,582.757 449.43,573.94 450.979,570.07L480.133,511.083C482.188,506.521 482.875,506.087 481,503C467.436,486.353 463.728,476.978 465.877,462C467.74,449.011 475.303,427.339 498.5,427.004L498.5,439.23C486.859,444.749 482.563,455.686 481.698,466.333L494,466.333C494.92,466.333 495.667,467.08 495.667,468C495.667,468.92 494.92,469.667 494,469.667L481.599,469.667C481.912,479.59 487.764,486.633 499,499L499.286,498.685C503.809,493.682 507.444,491.059 510.183,486.667L501.667,486.667C500.747,486.667 500,485.92 500,485C500,484.08 500.747,483.333 501.667,483.333L512.112,483.333C515.318,477.307 516.74,472.666 516.352,467C516.023,462.211 515.004,458.908 512.929,454L501.667,454C500.747,454 500,453.253 500,452.333C500,451.413 500.747,450.667 501.667,450.667L511.314,450.667ZM499,506.083C502.311,506.083 505,508.548 505,511.583C505,514.619 502.311,517.083 499,517.083C495.689,517.083 493,514.619 493,511.583C493,508.548 495.689,506.083 499,506.083Z" style="fill:white;"/>
    </g>
</svg>
