<?xml version="1.0" encoding="UTF-8" standalone="no"?>
<!DOCTYPE svg PUBLIC "-//W3C//DTD SVG 1.1//EN" "http://www.w3.org/Graphics/SVG/1.1/DTD/svg11.dtd">
<svg width="100%" height="100%" viewBox="0 0 1000 1000" version="1.1" xmlns="http://www.w3.org/2000/svg" xmlns:xlink="http://www.w3.org/1999/xlink" xml:space="preserve" xmlns:serif="http://www.serif.com/" style="fill-rule:evenodd;clip-rule:evenodd;stroke-linejoin:round;stroke-miterlimit:2;">
    <g transform="matrix(2.04545,0,0,2.04545,-594.594,-735.455)">
        <path d="M640,712C623.705,710.162 607.707,711.184 592,715C621.463,757.116 648.37,801.494 700,824C701.678,796.88 675.25,756.518 640,712ZM554,675C554,675 551.591,686.116 547.783,688C542.927,690.402 539.13,694.002 543,698C545.727,708.178 553.254,712.43 567,709C572.248,711.838 576.663,711.79 580,708C585.57,711.038 590.511,710.723 595,708C600.446,709.114 605.125,708.804 609,707C614.18,708.557 618.768,707.934 623,706C628.434,707.933 633.01,707.706 637,706C641.914,707.064 646.285,706.821 650,705C653.897,698.033 650.79,691.371 641,685C601.197,691.846 568.299,692.186 554,675ZM420,702C433.294,690.297 438.818,674.914 443,660C447.443,660.857 451.712,665.097 455.397,663.629C460.015,661.788 463.674,667.895 465.669,670.524C467.33,672.713 470.847,670.956 473,670C477.921,664.989 482.255,665.989 486,673C494.66,679.218 503.812,677.397 513,675C518.566,670.768 521.97,670.594 524,673C554.227,669.462 557.667,674.233 545,684C507.49,708.107 466.016,716.308 420,702ZM557,645L559,675C561.479,677.907 565.16,679.57 571,679C574.314,681.689 578.516,683.489 587,681C590.8,682.567 594.832,682.319 599,681C601.291,682.659 604.624,682.992 609,682C613.899,683.292 617.775,683.113 621,682C626.171,683.019 630.929,682.658 635,680C638.533,682.478 642.182,682.808 646,680L647,668C646.193,665.046 633.88,660.829 574,661.325C565.21,661.397 560.379,652.036 557,645ZM460,630C453.196,638.289 447.996,646.99 444,656C447.205,658.578 450.992,659.757 456,658C460.939,656.61 463.779,657.446 465,660C467.372,665.379 470.649,663.971 474,662C478.659,659.576 481.09,660.855 483,663C485.842,668.665 488.892,667.739 492,665C494.71,664.151 496.957,664.073 498,666C503.426,671.803 509.167,670.462 515,667C519.553,666.346 524.661,667.76 528,664C529.904,661.907 531.556,662.821 533,664C537.962,666.2 542.135,664.805 546,662C550.213,656.971 548.482,653.044 542,650C509.851,658.356 482.603,656.847 459,648C460.6,642.296 461.15,636.346 460,630ZM566,626C561.868,634.068 560.624,642.322 566,651C570.148,654.561 574.487,654.795 579,652C583.265,655.496 587.909,656.007 593,653C595.751,654.719 598.765,655.329 602,655C606.057,656.319 608.784,655.978 611,655C615.517,656.641 619.836,656.866 624,656C629.226,656.684 633.588,656.383 637,655C642.433,657.236 646.207,656.496 649,654L649,647C648.548,638.361 625.849,636.845 589,633.604C585.413,633.289 582.756,630.158 580,628C574.486,624.851 569.624,623.612 566,626ZM514,628C501.349,636.314 488.682,632.009 476,617C476.871,610.068 474.925,606.628 469,606.191C466.176,605.982 461.537,610.369 461,619C473.263,639.18 486.741,658.135 536,641C536.537,637.42 536.864,633.728 526,624C520.316,618.652 516.316,619.986 514,628ZM575,607L573,619C575.5,621.707 579.547,623.85 587,624.751C590.036,627.292 594.485,628.26 601,626.929C606.165,628.906 608.673,628.015 611,626.929C613.254,630.284 616.372,630.939 620,630C623.961,632.817 627.515,632.661 631,632C634.398,634.469 637.724,634.551 641,633C645.469,635.689 649.395,635.263 653,633L653,626C648.138,623.501 641.259,619.603 632,618.197C613.554,615.395 596.573,611.458 584,606.184C580.339,603.224 577.318,603.394 575,607ZM580,592.5C581.498,596.289 585.522,599.227 593,601C595.976,604.51 600.162,606.432 606,606.184C609.41,608.112 612.553,608.961 615,607C618.537,609.121 622.522,609.833 627,609C629.631,613.476 633.266,613.459 637,613C640.82,615.444 644.864,615.27 649,614C653.061,617.633 656.372,617.865 659,615C660.913,611.643 660.352,607.936 659,604.116C647.517,599.937 630.431,596.247 600,588.596C595.661,587.505 591.836,585.081 588,583C584.57,582.04 581.685,584.028 580,592.5ZM541,579L533,600C525.591,600.167 517.451,598.093 508,592C502.969,594.189 501.283,598.469 500,603C523.908,614.994 546.483,619.071 566,605C572.654,600.983 573.249,594.484 569,586C558.283,574.781 542.383,564.687 520,556C515.161,557.952 513.44,562.153 514,568C523.79,570.928 532.851,574.538 541,579ZM496.153,538.127C496.429,537.753 496.712,537.377 497,537C496.717,537.378 496.435,537.755 496.153,538.127C486.574,551.108 483.65,563.306 485,575L466,599.869C462.437,597.206 452.675,594.922 437,593C455.928,582.478 475.513,565.489 496.153,538.127ZM551,587C551.261,591.271 549.374,593.599 547,598C553.436,597.941 557.717,596.351 561,595C560.429,592.983 558.384,591.988 551,587ZM507,526C501.222,525.656 500.866,528.858 505,535C546.225,565.751 596.852,584.717 656,593C660.617,583.324 664.551,571.701 666,553C727.826,540.62 728.554,503.387 684.41,476C676.13,470.863 660.133,471.22 633,480C623.746,465.782 611.067,459.864 593,467C589.79,455.748 580.314,451.497 563,456C544.746,436.045 530.06,447.837 518,483C512.149,484.679 513.134,488.1 516,492L511,506C506.251,508.167 505.802,511.562 509,516L507,526ZM657,576C606.286,563.736 557.686,546.951 514,519.658C510.266,521.661 508.891,524.262 512,528C555.231,558.915 604.266,572.496 655,581C655.95,579.549 656.617,577.882 657,576ZM656,553C657.465,557.171 656.173,560.259 654,563C614.162,553.833 571.884,540.807 519,511C517.977,502.452 519.555,498.923 523,499C563.074,524.391 608.053,541.272 656,553ZM490,536L469,557L450,531L424,551C418.727,541.061 415.61,530.683 414,520L430,506C428.514,502.721 429.646,499.278 433,495.697L396.907,453C388.08,446.979 382.198,440.362 380,433L373,438C368.214,431.975 364.722,425.378 363,418C358.59,412.391 356.675,408.368 355,402L380,384C384.774,385.472 388.043,389.352 391,393.731C396.861,396.673 401.638,401.479 406,407L401,413C408.259,417.436 413.686,424.436 417.279,434L451,477.5C456.885,474.884 460.268,476.104 465,480L484,467C492.746,471.235 500.74,477.249 508,485L473,517L490,536ZM640,508C646.088,507.001 646.159,508.182 648.252,512C650.737,516.534 647.261,521.342 637,527C613.676,518.769 618.966,504.357 624,490C621.596,480.944 618.213,476.389 614,476.027C591.266,474.077 583.09,492.777 575,514C610.882,528.133 633.184,535.504 646,537.46C676.645,542.137 687.12,532.44 692.805,525C708.589,504.343 690.716,484.236 671,484.274C656.407,484.302 642.872,487.074 638,493.277C635.123,496.941 631.267,523.801 640,508ZM670,497C677.727,497 684,503.273 684,511C684,518.727 677.727,525 670,525C662.273,525 656,518.727 656,511C656,503.273 662.273,497 670,497ZM458,494C464.623,494 470,499.377 470,506C470,512.623 464.623,518 458,518C451.377,518 446,512.623 446,506C446,499.377 451.377,494 458,494ZM602.5,490.5C609.399,490.5 615,496.101 615,503C615,509.899 609.399,515.5 602.5,515.5C595.601,515.5 590,509.899 590,503C590,496.101 595.601,490.5 602.5,490.5ZM587,472C575.549,483.723 570.401,496.38 565,509C557.014,506.469 549.819,502.966 543,499C557.632,472.316 572.28,454.189 587,472ZM563,476.697C568.243,476.697 572.5,480.954 572.5,486.197C572.5,491.44 568.243,495.697 563,495.697C557.757,495.697 553.5,491.44 553.5,486.197C553.5,480.954 557.757,476.697 563,476.697ZM555,462C547.219,471.308 540.075,481.584 535,495C529.482,492.413 525.486,489.724 522,487C534.273,461.159 545.273,452.825 555,462ZM538.5,466.5C541.536,466.5 544,468.964 544,472C544,475.036 541.536,477.5 538.5,477.5C535.464,477.5 533,475.036 533,472C533,468.964 535.464,466.5 538.5,466.5Z" style="fill:white;"/>
    </g>
</svg>
