<?xml version="1.0" encoding="UTF-8" standalone="no"?>
<!DOCTYPE svg PUBLIC "-//W3C//DTD SVG 1.1//EN" "http://www.w3.org/Graphics/SVG/1.1/DTD/svg11.dtd">
<svg width="100%" height="100%" viewBox="0 0 1000 1000" version="1.1" xmlns="http://www.w3.org/2000/svg" xmlns:xlink="http://www.w3.org/1999/xlink" xml:space="preserve" xmlns:serif="http://www.serif.com/" style="fill-rule:evenodd;clip-rule:evenodd;stroke-linejoin:round;stroke-miterlimit:2;">
    <g transform="matrix(7.34694,0,0,7.34694,-3052.78,-3741.02)">
        <path d="M483.572,638.5C492.4,630.317 494.227,620.307 493,609.5C506.747,614.121 512.639,605.076 511.811,596.967C510.88,587.855 503.744,587.691 499,592.5C500.801,592.55 501.655,592.896 501.843,594C503.007,600.83 493.207,599.538 486,590.5C487.892,587.172 490.187,586.537 492,587.406C493.435,588.094 493.709,589.549 493,591.97C496.467,590.983 497.856,589.098 498.151,587.184C507.127,587.679 514.856,586.784 521.406,584.573C520.213,585.666 519.038,586.766 517.877,587.874C515.757,589.896 513.685,591.941 511.645,594C514.801,594.323 518.437,590.831 522.362,585.042C520.439,588.683 519.983,592.328 521.102,595.975C521.645,598.026 522.681,600.035 524.246,602C524.272,601.967 524.297,601.934 524.323,601.902C524.348,601.934 524.374,601.967 524.4,602C525.965,600.035 527,598.026 527.543,595.975C528.662,592.328 528.207,588.683 526.283,585.042C530.209,590.831 533.845,594.323 537,594C535.19,591.384 527.505,583.19 524.6,582.193C524.534,582.089 524.467,581.984 524.4,581.88L524.323,581.948L524.246,581.88L531,580C531,580 500.051,580.041 493,580.041C492.513,580.041 491.916,580.302 491.353,580.633C488.691,580.924 485.55,582.622 483.572,587.934C481.595,582.622 478.453,580.924 475.791,580.633C475.229,580.302 474.632,580.041 474.145,580.041C467.093,580.041 436.145,580 436.145,580L442.899,581.88L442.822,581.948L442.745,581.88C442.677,581.984 442.611,582.089 442.545,582.193C439.64,583.19 431.955,591.384 430.145,594C433.3,594.323 436.936,590.831 440.862,585.042C438.938,588.683 438.482,592.328 439.601,595.975C440.145,598.026 441.18,600.035 442.745,602C442.771,601.967 442.797,601.934 442.822,601.902C442.847,601.934 442.873,601.967 442.899,602C444.464,600.035 445.5,598.026 446.043,595.975C447.162,592.328 446.706,588.683 444.783,585.042C448.708,590.831 452.344,594.323 455.499,594C453.46,591.941 451.388,589.896 449.268,587.874C448.107,586.766 446.931,585.666 445.739,584.573C452.289,586.784 460.018,587.679 468.994,587.184C469.289,589.098 470.678,590.983 474.145,591.97C473.436,589.549 473.71,588.094 475.145,587.406C476.958,586.537 479.253,587.172 481.145,590.5C473.937,599.538 464.138,600.83 465.302,594C465.49,592.896 466.344,592.55 468.145,592.5C463.401,587.691 456.265,587.855 455.334,596.967C454.505,605.076 460.398,614.121 474.145,609.5C472.918,620.307 474.745,630.317 483.572,638.5ZM469.082,585.019C460.632,585.016 454.742,584.33 453.145,582.5L470.191,582.5C469.716,583.164 469.296,584.048 469.082,585.019ZM498.063,585.019C506.513,585.016 512.402,584.33 514,582.5L496.954,582.5C497.429,583.164 497.849,584.048 498.063,585.019ZM483.572,516C492.4,524.183 494.227,534.193 493,545C506.747,540.379 512.639,549.424 511.811,557.533C510.88,566.645 503.744,566.809 499,562C500.801,561.95 501.655,561.604 501.843,560.5C503.007,553.67 493.207,554.962 486,564C487.892,567.328 490.187,567.963 492,567.094C493.435,566.406 493.709,564.951 493,562.53C496.467,563.517 497.856,565.402 498.151,567.316C507.127,566.821 514.856,567.716 521.406,569.927C520.213,568.834 519.038,567.734 517.877,566.626C515.757,564.604 513.685,562.559 511.645,560.5C514.801,560.177 518.437,563.669 522.362,569.458C520.439,565.817 519.983,562.172 521.102,558.525C521.645,556.474 522.681,554.465 524.246,552.5C524.272,552.533 524.297,552.566 524.323,552.598C524.348,552.566 524.374,552.533 524.4,552.5C525.965,554.465 527,556.474 527.543,558.525C528.662,562.172 528.207,565.817 526.283,569.458C530.209,563.669 533.845,560.177 537,560.5C535.19,563.116 527.505,571.31 524.6,572.307C524.534,572.411 524.467,572.516 524.4,572.62L524.323,572.552L524.246,572.62L531,574.5C531,574.5 500.051,574.459 493,574.459C492.513,574.459 491.916,574.198 491.353,573.867C488.691,573.576 485.55,571.878 483.572,566.566C481.595,571.878 478.453,573.576 475.791,573.867C475.229,574.198 474.632,574.459 474.145,574.459C467.093,574.459 436.145,574.5 436.145,574.5L442.899,572.62L442.822,572.552L442.745,572.62C442.677,572.516 442.611,572.411 442.545,572.307C439.64,571.31 431.955,563.116 430.145,560.5C433.3,560.177 436.936,563.669 440.862,569.458C438.938,565.817 438.482,562.172 439.601,558.525C440.145,556.474 441.18,554.465 442.745,552.5C442.771,552.533 442.797,552.566 442.822,552.598C442.847,552.566 442.873,552.533 442.899,552.5C444.464,554.465 445.5,556.474 446.043,558.525C447.162,562.172 446.706,565.817 444.783,569.458C448.708,563.669 452.344,560.177 455.499,560.5C453.46,562.559 451.388,564.604 449.268,566.626C448.107,567.734 446.931,568.834 445.739,569.927C452.289,567.716 460.018,566.821 468.994,567.316C469.289,565.402 470.678,563.517 474.145,562.53C473.436,564.951 473.71,566.406 475.145,567.094C476.958,567.963 479.253,567.328 481.145,564C473.937,554.962 464.138,553.67 465.302,560.5C465.49,561.604 466.344,561.95 468.145,562C463.401,566.809 456.265,566.645 455.334,557.533C454.505,549.424 460.398,540.379 474.145,545C472.918,534.193 474.745,524.183 483.572,516ZM498.063,569.481C506.513,569.484 512.402,570.17 514,572L496.954,572C497.429,571.336 497.849,570.452 498.063,569.481ZM469.082,569.481C460.632,569.484 454.742,570.17 453.145,572L470.191,572C469.716,571.336 469.296,570.452 469.082,569.481Z" style="fill:white;"/>
    </g>
</svg>
