<?xml version="1.0" encoding="UTF-8" standalone="no"?>
<!DOCTYPE svg PUBLIC "-//W3C//DTD SVG 1.1//EN" "http://www.w3.org/Graphics/SVG/1.1/DTD/svg11.dtd">
<svg width="100%" height="100%" viewBox="0 0 1000 1000" version="1.1" xmlns="http://www.w3.org/2000/svg" xmlns:xlink="http://www.w3.org/1999/xlink" xml:space="preserve" xmlns:serif="http://www.serif.com/" style="fill-rule:evenodd;clip-rule:evenodd;stroke-linejoin:round;stroke-miterlimit:2;">
    <g transform="matrix(2.44565,0,0,2.44565,-923.37,-431.966)">
        <path d="M510,370L477,377C437.525,418.265 396.566,459.473 443,504C441.135,492.807 441.284,481.822 443,471C444.057,501.089 454.818,517.073 478,515C471.641,510.911 466.79,506.308 464,501C470.231,505.653 475.857,507.463 481,507C474.594,498.916 471.565,488.966 474,476C445.429,458.767 442.532,410.764 462.619,408C469.427,407.063 477.402,412.452 480,438L485,446C488.565,424.966 492.707,403.941 502,383C502.361,386.95 501.561,393.218 499,403C505.167,393.42 509.431,382.76 510,370ZM520,367C546.181,360.362 572.302,354.338 596.496,344C624.232,332.148 651.953,322.308 680,315L700.813,321C722.965,332.094 732.038,347.288 740,365C728.057,351.89 715.245,340.013 699,333C724.808,356.143 737.629,381.765 742,409C724.877,393.081 705.215,379.997 681,372C705.722,401.083 733.91,422.727 766,436C709.425,441.35 653.494,439.949 600,413C590.204,432.728 594.983,444.214 601,455C593.732,446.394 587.37,436.539 591.656,412C571.791,398.621 554.599,384.203 542,368C545.58,384.106 561.811,400.517 581,417C550.393,407.502 528.82,391.7 520,367ZM436,420C427,426.11 418,425.982 409,424L419,419C409.922,419.923 403.281,418.982 398,417C404.873,412.698 411.235,407.988 416,402C410.883,403.352 405.507,405.479 400,408C408.865,383.043 416.972,359.647 426.792,339C436.136,319.355 452.488,304.885 471,292.995C501.854,273.18 569,248.545 599,247C620.192,245.909 649.592,268.239 651,283.725C651.393,288.05 649.64,292.483 646,297L599,297C537.878,320.719 481.733,357.109 436,420ZM482.5,372C513.347,346.607 548.732,321.974 600,300C633.22,299.284 666.474,298.782 700,300C701.902,306.189 700.556,311.296 695,315C689.28,315.795 686.121,314.351 684,312L690,308C670.894,312.913 650.842,316.15 632.177,324C583.487,344.477 533.511,362.999 482.5,372ZM452,304.5C461.072,296.138 471.172,289.211 482.5,284L477,283C467.656,287.199 459.417,293.185 452,300.5L452,304.5Z" style="fill:white;"/>
    </g>
</svg>
