<?xml version="1.0" encoding="UTF-8" standalone="no"?>
<!DOCTYPE svg PUBLIC "-//W3C//DTD SVG 1.1//EN" "http://www.w3.org/Graphics/SVG/1.1/DTD/svg11.dtd">
<svg width="100%" height="100%" viewBox="0 0 1000 1000" version="1.1" xmlns="http://www.w3.org/2000/svg" xmlns:xlink="http://www.w3.org/1999/xlink" xml:space="preserve" xmlns:serif="http://www.serif.com/" style="fill-rule:evenodd;clip-rule:evenodd;stroke-linejoin:round;stroke-miterlimit:2;">
    <g transform="matrix(3.09464,0,0,3.09464,-979.623,-1294.62)">
        <path d="M505.684,708.554C506.127,713.039 506.564,717.52 507,722C488.577,725.541 467.367,726.33 443,724C443.538,719.084 444.083,714.168 444.642,709.25C467.022,710.361 487.216,710.028 505.684,708.554ZM445.781,699.421C450.314,661.124 456.065,622.743 467,584C474.217,582.733 481.813,582.815 490,585C496.603,623.128 500.909,661.006 504.715,698.825C485.892,701.087 466.356,701.556 445.781,699.421ZM463.542,576.091C474.638,575.166 485.175,575.686 495.162,577.626C493.857,579.644 492.477,581.607 491,583.5C483.094,581.166 475.104,580.619 467,582.5C465.765,580.366 464.618,578.23 463.542,576.091ZM460.445,569.524C458.45,565.021 457.675,561.497 455.985,556.985C460.887,551.395 464.723,544.165 469,537.009C471.386,533.018 475.319,530.118 479,527C482.263,529.77 484.946,533.109 486.843,536.334C494.268,548.956 498.946,556.219 503.368,561.628C501.563,565.323 500.34,568.853 498.326,572.395C485.7,569.681 473.074,568.96 460.445,569.524ZM485,521L481,526C483.388,527.811 486.441,529.524 488,532.549C492.833,541.924 505.315,561.038 505.929,561C504.41,563.833 509.905,567.667 512.5,569C515.095,570.333 519.201,570.927 521.5,569C541.541,552.204 545.963,502.99 543.472,467.5C543.262,464.518 542.246,461.723 541.5,459C541.536,463.934 540.46,468.328 540.214,472.5C537.475,518.842 531.951,556.859 519,561.404C513.036,563.497 512.316,557.426 500.128,540C497.362,536.045 494.578,531.211 490.837,526C489.421,524.028 487.106,522.692 485,521ZM473.248,520L477.248,525C474.86,526.811 470.067,529.673 468.248,532.549C462.381,541.823 449.761,560.923 450.319,561C451.838,563.833 446.343,567.667 443.748,569C441.153,570.333 437.047,570.927 434.748,569C414.707,552.204 410.285,502.99 412.776,467.5C412.986,464.518 414.003,461.723 414.748,459C414.712,463.934 415.788,468.328 416.035,472.5C418.773,518.842 424.297,556.859 437.248,561.404C443.212,563.497 443.932,557.426 456.121,540C458.887,536.045 461.67,531.211 465.411,526C466.827,524.028 471.142,521.692 473.248,520ZM490,514C507.591,488.214 520.521,467.321 531,449L527,452.5C527.614,446.953 528.027,441.082 528,434.5C532.59,436.722 536.302,441.352 538,451.5C539.644,452.565 527.426,538.644 518,550C515.539,552.965 510.431,543.392 504.398,533C498.452,522.758 492.36,512.206 490,514ZM466.248,514C448.657,488.214 435.727,467.321 425.248,449L429.248,452.5C428.634,446.953 428.221,441.082 428.248,434.5C423.658,436.722 419.946,441.352 418.248,451.5C416.604,452.565 428.823,538.644 438.248,550C440.709,552.965 445.817,543.392 451.85,533C457.796,522.758 463.888,512.206 466.248,514Z" style="fill:white;"/>
    </g>
</svg>
