<?xml version="1.0" encoding="UTF-8" standalone="no"?>
<!DOCTYPE svg PUBLIC "-//W3C//DTD SVG 1.1//EN" "http://www.w3.org/Graphics/SVG/1.1/DTD/svg11.dtd">
<svg width="100%" height="100%" viewBox="0 0 1000 1000" version="1.1" xmlns="http://www.w3.org/2000/svg" xmlns:xlink="http://www.w3.org/1999/xlink" xml:space="preserve" xmlns:serif="http://www.serif.com/" style="fill-rule:evenodd;clip-rule:evenodd;stroke-linejoin:round;stroke-miterlimit:2;">
    <g transform="matrix(1.22437,0,0,1.22437,-165.81,-136.699)">
        <path d="M543.799,152.545C746.648,152.545 911.335,317.206 911.335,520.022C911.335,722.838 746.648,887.5 543.799,887.5C340.95,887.5 176.263,722.838 176.263,520.022C176.263,317.206 340.95,152.545 543.799,152.545ZM478.631,741.45C498.938,744.666 519.502,745.713 540.144,744.704L540.144,821.219C518.679,821.593 498.183,819.718 478.631,815.604L478.631,741.45ZM610.623,736.609L610.623,812.711C590.686,817.393 569.654,820.152 547.454,821.01L547.454,744.272C568.922,742.853 590.03,740.408 610.623,736.609ZM419.022,725.322C436.155,731.996 453.63,736.93 471.32,740.197L471.32,813.952C453.061,809.533 435.637,803.116 419.022,794.707L419.022,725.322ZM667.653,721.874L667.653,792.638C651.92,800.243 635.362,806.323 617.933,810.894L617.933,735.198C634.903,731.778 651.503,727.399 667.653,721.874ZM411.712,790.849C398,783.315 384.862,774.391 372.275,764.077L372.275,702.17C385.159,710.006 398.327,716.725 411.712,722.36L411.712,790.849ZM719.338,699.128L719.338,759.829C705.355,771.101 690.58,780.806 674.963,788.963L674.963,719.282C690.209,713.686 705.024,707.023 719.338,699.128ZM330.284,671.718C341.557,681.321 353.131,689.932 364.964,697.584L364.964,757.877C352.886,747.282 341.33,735.364 330.284,722.128L330.284,671.718ZM760.018,672.119L760.018,720.055C749.449,732.426 738.335,743.648 726.649,753.73L726.649,694.963C738.132,688.204 749.271,680.617 760.018,672.119ZM296.771,639.21C305.288,648.563 314.03,657.26 322.973,665.314L322.973,713.083C313.887,701.477 305.155,688.941 296.771,675.475L296.771,639.21ZM790.992,643.859L790.992,678.127C783.436,689.89 775.551,700.917 767.328,711.206L767.328,666.145C775.458,659.282 783.353,651.866 790.992,643.859ZM798.302,635.928C814.514,617.726 829.512,596.661 843.089,572.342C829.714,607.445 814.838,638.758 798.302,666.344L798.302,635.928ZM289.46,663.35C273.196,635.499 258.292,603.969 244.691,568.796C258.679,591.925 273.655,612.611 289.46,630.956L289.46,663.35ZM419.022,520.022C425.212,520.022 430.237,525.052 430.237,531.246C430.237,537.441 425.212,542.471 419.022,542.471C412.833,542.471 407.807,537.441 407.807,531.246C407.807,525.052 412.833,520.022 419.022,520.022ZM667.653,520.022C673.843,520.022 678.868,525.052 678.868,531.246C678.868,537.441 673.843,542.471 667.653,542.471C661.463,542.471 656.438,537.441 656.438,531.246C656.438,525.052 661.463,520.022 667.653,520.022Z" style="fill:white;"/>
    </g>
</svg>
