<?xml version="1.0" encoding="UTF-8" standalone="no"?>
<!DOCTYPE svg PUBLIC "-//W3C//DTD SVG 1.1//EN" "http://www.w3.org/Graphics/SVG/1.1/DTD/svg11.dtd">
<svg width="100%" height="100%" viewBox="0 0 1000 1000" version="1.1" xmlns="http://www.w3.org/2000/svg" xmlns:xlink="http://www.w3.org/1999/xlink" xml:space="preserve" xmlns:serif="http://www.serif.com/" style="fill-rule:evenodd;clip-rule:evenodd;stroke-linejoin:round;stroke-miterlimit:2;">
    <g transform="matrix(8.85705,0,0,8.85705,-3925.49,-3960.81)">
        <path d="M484.651,534.478C487.031,547.1 489.407,554.482 493,554.451C496.096,554.425 499.885,550.102 504.552,539.443C501.212,536.169 497.471,531.626 493.605,525.47C493.57,525.47 493.535,525.47 493.5,525.47C492.451,525.47 491.415,525.411 490.398,525.297C488.371,528.921 486.437,531.964 484.651,534.478ZM477.784,518.077C471.829,513.407 468,506.147 468,498C468,496.531 468.125,495.09 468.363,493.691C454.739,486.033 449.007,475.365 450.155,473.088C451.237,470.939 460.317,469.747 478.263,477.557C482.516,474.381 487.79,472.5 493.5,472.5C494.959,472.5 496.39,472.623 497.781,472.859C508.021,458.651 520.803,454.735 523,456.394C524.907,457.833 525.356,467.876 515.031,484.339C515.891,485.691 516.627,487.129 517.224,488.638C535.662,490.238 545.936,499.992 545.546,502.804C545.213,505.209 536.387,510.629 516.308,509.409C515.474,511.072 514.463,512.631 513.3,514.063C522.52,529.649 520.683,543.444 518.205,544.817C516.017,546.03 505.905,541.766 494.684,523.473C494.292,523.491 493.897,523.5 493.5,523.5C492.079,523.5 490.684,523.383 489.327,523.16C481.272,537.919 474.732,543.353 473,542.441C471.182,541.483 472.17,532.695 477.784,518.077ZM510.5,494C512.927,489.137 541.904,496.794 541.881,502.263C541.861,506.922 512.698,508.981 510,506.5C509.287,509.02 508.17,510.796 506.5,512C513.241,516.768 519.525,539.597 516.488,541.534C513.908,543.179 494.085,520.005 496,518.5C495.013,518.848 494.017,519.185 493,519.5L493,518.5C504.494,514.351 513.007,507.612 509,490L510,489.5C510.319,490.961 510.465,492.466 510.5,494ZM521.148,459.836L521.152,459.844C521.475,460.504 521.501,461.28 521.46,462C521.379,463.411 521.003,464.804 520.559,466.139C519.809,468.392 518.798,470.557 517.693,472.655C516.161,475.567 514.417,478.363 512.582,481.092L512.507,481.008C510.41,484.252 507.926,487.396 505.047,490.066C506.902,492.562 508,495.654 508,499C508,507.279 501.279,514 493,514C492.545,514 492.096,513.98 491.652,513.94C485.483,529.276 475.251,540.572 474,540C472.749,539.428 475.639,523.781 482.774,509.97C479.837,507.231 478,503.328 478,499L474,499C474.757,487.297 480.375,479.983 493,479L493,484L493.097,484C494.58,484.01 496.012,484.235 497.364,484.646C498.487,480.864 500.408,477.349 502.686,474.208C502.609,474.178 502.533,474.148 502.456,474.12C509.897,463.109 517.559,458.584 520.195,459.101C520.609,458.956 520.887,458.92 521,459C521.119,459.085 521.169,459.374 521.148,459.836ZM532.257,510.835C541.478,522.167 544.671,530.638 542.597,534C540.643,537.169 533.831,536.401 521.724,531.342C520.957,526.373 519.148,520.46 515.664,514.224C516.315,513.337 516.914,512.409 517.456,511.445C523.332,511.728 528.242,511.44 532.257,510.835ZM468.355,509.071C458.908,517.693 455.436,523.335 457,526C458.49,528.539 468.164,524.832 474.178,522.212C474.568,521.081 474.989,519.909 475.443,518.695C472.427,516.062 469.992,512.781 468.355,509.071ZM493,489C498.519,489 503,493.481 503,499C503,504.519 498.519,509 493,509C487.481,509 483,504.519 483,499C483,493.481 487.481,489 493,489ZM520.535,478.656C537.398,477.497 547.757,478.254 549.06,482C550.062,484.883 548.096,488.569 540.472,494.232C535.634,491.014 528.229,487.822 518.582,486.79C518.208,485.954 517.793,485.14 517.34,484.351C518.555,482.359 519.614,480.46 520.535,478.656ZM477.632,475.145C474.779,461.622 475.538,454.164 478.765,453C482.053,451.814 489.001,457.108 498.03,469.281C497.649,469.754 497.271,470.239 496.896,470.738C495.784,470.6 494.65,470.53 493.5,470.53C487.761,470.53 482.431,472.293 478.021,475.308L477.632,475.145Z" style="fill:white;"/>
    </g>
</svg>
