<?xml version="1.0" encoding="UTF-8" standalone="no"?>
<!DOCTYPE svg PUBLIC "-//W3C//DTD SVG 1.1//EN" "http://www.w3.org/Graphics/SVG/1.1/DTD/svg11.dtd">
<svg width="100%" height="100%" viewBox="0 0 1000 1000" version="1.1" xmlns="http://www.w3.org/2000/svg" xmlns:xlink="http://www.w3.org/1999/xlink" xml:space="preserve" xmlns:serif="http://www.serif.com/" style="fill-rule:evenodd;clip-rule:evenodd;stroke-linejoin:round;stroke-miterlimit:2;">
    <path d="M468.214,627.966C487.121,639.233 505.634,649.867 523.732,659.892C275.771,1004.83 89.632,1016.14 263.13,733.946C267.833,733.758 272.558,733.429 277.313,732.902C208.175,929.045 357.495,773.75 468.214,627.966ZM765.081,587.728C1153.25,813.588 882.324,889.21 396.216,572.272C1.31,314.798 -110.505,63.99 352.349,332.958C-85.592,137.455 385.289,489.161 432.879,522.457C562.311,613.015 1013.63,825.956 761.07,590.23C762.429,589.425 763.766,588.591 765.081,587.728ZM531.143,665.219C531.357,664.921 531.552,664.612 531.727,664.293L534.911,666.034L545.949,672.003L546.925,672.526C567.39,683.487 587.273,693.636 606.537,703.003C570.684,728.53 526.839,743.55 479.513,743.55C476.837,743.55 474.172,743.502 471.522,743.406C487.34,723.92 503.551,702.945 520.049,680.485L529.209,667.903L531.143,665.219ZM394.898,704.695C96.946,769.07 36.404,652.674 254.302,596.558C255.817,600.867 257.535,605.108 259.444,609.284C134.286,678.612 316.742,661.811 450.102,636.594C432.12,659.841 413.37,683.034 394.898,704.695ZM376.4,717.818C379.27,717.259 382.167,716.68 385.088,716.083C383.835,717.523 382.584,718.954 381.337,720.374C379.677,719.541 378.03,718.688 376.4,717.818ZM270.325,590.36C300.528,588.357 335.004,583.803 373.664,576.109L382.682,574.315C385.524,576.187 388.37,578.052 391.231,579.918C414.79,595.278 437.852,609.718 460.336,623.247L458.448,625.727L448.406,627.626C399.088,636.951 342.959,645.238 298.634,648.263C286.518,630.641 276.91,611.168 270.325,590.36ZM675.391,622.977C672.661,628.375 669.715,633.645 666.559,638.781C661.943,636.713 657.293,634.602 652.624,632.457C660.362,629.304 667.951,626.144 675.391,622.977ZM584.834,599.605C698.78,553.076 929.618,434.585 696.57,468.922C705.429,465.102 714.065,461.226 722.647,457.337C1014.92,386.603 926.22,512.821 641.285,627.198C622.475,618.389 603.467,609.085 584.834,599.605ZM515.663,562.636C532.354,538.468 546.506,516.42 556.638,498.572C585.312,448.062 859.471,-71.806 547.964,292.855C850.413,-148.85 857.17,125.671 611.144,527.809C597.441,550.208 583.815,571.654 570.317,592.145C551.329,582.289 532.901,572.336 515.663,562.636ZM692.574,471.823C696.693,488.614 698.875,506.148 698.875,524.187C698.875,528.34 698.759,532.466 698.53,536.573C659.674,557.028 615.784,577.079 582.066,590.875C594.266,572.216 606.567,552.78 618.93,532.572C627.07,519.267 634.934,506.1 642.513,493.106L653.495,488.575C666.991,483.006 680.022,477.416 692.574,471.823ZM227.467,461.285C38.594,518.01 98.367,621.592 371.883,567.158C346.05,549.927 321.501,532.757 298.326,515.804C223.111,521.452 177.414,513.487 243.359,474.019C237.968,469.753 232.669,465.506 227.467,461.285ZM522.151,536.775C510.811,540.44 499.695,543.897 488.799,547.153C494.878,550.748 501.185,554.409 507.691,558.12L508.153,557.449C512.64,550.94 517.079,544.398 521.46,537.817L522.151,536.775ZM564.955,464.076C557.46,478.228 551.716,488.755 548.701,494.066C543.508,503.213 537.246,513.475 530.119,524.568C512.254,530.476 494.935,535.871 478.155,540.785C462.842,531.514 449.27,522.786 438.111,514.978C434.101,512.173 427.071,507.096 417.825,500.27C468.664,491.513 515.968,480.939 541.985,472.418C548.362,470.329 556.145,467.5 564.955,464.076ZM262.92,489.267C270.752,495.286 278.764,501.339 286.957,507.424C277.556,507.985 268.745,508.299 260.718,508.314C261.179,501.88 261.918,495.523 262.92,489.267ZM295.458,404.86C334.576,344.672 402.428,304.825 479.513,304.825C532.819,304.825 581.711,323.88 619.728,355.536C602.496,391.49 585.015,425.819 571.436,451.765L561.649,455.569C553.017,458.924 545.392,461.698 539.145,463.744C513.399,472.177 466.583,482.61 416.275,491.276L407.699,492.753C379.093,471.408 336.49,438.74 295.458,404.86ZM689.925,407.138C776.434,362.356 843.446,313.936 733.715,322.743C734.955,318.944 736.224,315.165 737.522,311.404C999.711,252.786 916.375,370.242 650.014,480.138C664.363,455.132 677.67,430.749 689.925,407.138Z" style="fill:white;"/>
</svg>
