<?xml version="1.0" encoding="UTF-8" standalone="no"?>
<!DOCTYPE svg PUBLIC "-//W3C//DTD SVG 1.1//EN" "http://www.w3.org/Graphics/SVG/1.1/DTD/svg11.dtd">
<svg width="100%" height="100%" viewBox="0 0 1000 1000" version="1.1" xmlns="http://www.w3.org/2000/svg" xmlns:xlink="http://www.w3.org/1999/xlink" xml:space="preserve" xmlns:serif="http://www.serif.com/" style="fill-rule:evenodd;clip-rule:evenodd;stroke-linejoin:round;stroke-miterlimit:2;">
    <g transform="matrix(0.966083,0,0,0.966083,16.4643,12.5678)">
        <path d="M55.294,261.775L34.713,299.286L127.312,355.965L141.779,382.021C135.883,421.899 139.265,449.173 152.927,462.48L162.777,473.667L162.19,490.223L165.488,500L145.705,515.656L145.795,526.358L188.353,541.205L206.002,539.748L221.096,520.786L234.075,518.537L239.461,512.174L278.975,521.339C273.99,556.877 282.679,583.634 316.845,594.031L327.179,611.413L356.664,617.804L343.59,690.15L337.157,689.971C333.521,692.525 332.212,695.146 336.021,697.916L366.533,704.419L380.239,702.614L369.379,696.489L361.604,695.112L406.164,629.324L423.43,632.814L425.139,639.558L435.217,640.008L445.153,695.905L452.554,696.812L455.765,727.902C444.943,730.456 439.607,731.326 438.523,737.557L437.944,723.306C437.944,723.306 440.422,720.126 440.105,718.818C439.788,717.509 437.372,715.52 436.043,715.455C434.755,715.393 432.547,716.869 432.244,718.066C431.942,719.264 434.228,722.64 434.228,722.64L434.995,737.45C432.339,758.871 437.673,770.7 454.675,768.52L454.892,780.066L464.61,779.889L471.344,764.878C478.388,765.11 483.934,762.492 487.91,756.889C491.105,757.342 492.853,755.494 492.239,751.712L503.113,750.977C503.113,750.977 505.784,752.795 507.05,752.247C508.343,751.688 511.401,749.136 510.868,747.623C510.454,746.447 508.052,744.33 506.694,744.142C505.335,743.955 502.72,746.498 502.72,746.498L487.283,746.538C483.473,741.836 479.622,739.282 475.733,738.776C475.312,733.889 473.677,730.364 470.064,729.138L465.354,690.892L467.872,642.906L507.651,653.097L559.523,648.034L581.95,630.225L570.392,606.666L576.659,603.257L577.66,590.469L602.062,596.978L585.441,651.193L594.015,657.396L618.864,603.425L684.448,598.282L715.242,645.408L722.35,645.408L702.439,601.708L783.958,628.774L843.968,621.983L864.166,604.419L929.859,644.323C929.367,648.243 930.984,651.005 936.174,651.805L953.685,658.474L966.31,657.101L959.164,648.638L937.515,640.831L851.828,581.41L842.903,559.575L841.38,502.828C846.571,503.386 851.227,502.559 855.211,500C850.629,488.24 843.813,477.447 827.971,470.555L828.546,461.898L804.171,450.28C799.61,448.428 793.98,447.563 787.133,447.823L785.967,450.804L744.533,431.721L746.126,426.845L733.779,410.23C731.462,407.356 727.99,405.287 722.705,404.483L751.396,367.105L901.683,314.175C907.169,318.187 913.554,320.115 921.433,318.578L939.869,326.111L925.409,310.429C921.271,301.274 913.941,293.964 900.663,290.092C892.868,288.336 886.854,288.66 885.381,294.288C886.542,298.975 889.401,303.325 893.499,307.429L725.203,350.717L679.037,384.07L669.396,379.459L668.957,370.43L656.828,359.245L655.279,351.922L653.259,351.25L652.576,356.112L595.35,328.745L569.489,334.237L523.973,311.562C523.936,309.708 522.923,308.839 521.465,308.417L519.433,251.147C523.821,240.94 525.116,233.19 518.777,231.606L518.777,231.635L517.32,229.023L506.893,306.951C470.138,301.244 444.734,305.703 432.887,322.307C423.248,318.625 415.185,320.293 408.428,326.393C337.713,299.045 261.73,279.105 179.593,267.821L55.546,261.775L55.294,261.775ZM729.656,441.702C732.919,448.651 734.873,454.904 735.78,460.599L773.763,477.051L773.876,458.99L729.656,441.702ZM583.095,397.903L575.519,434.136C559.701,433.264 549.207,443.044 543.824,463.05L534.547,466.105L509.644,457.384L500,452.451L500,410.174L512.38,417.967L556.494,385.32L583.095,397.903ZM201.682,392.208C204.153,409.803 199.25,424.106 188.035,435.593C178.523,431.37 174.371,422.698 177.685,407.832C181.861,395.324 190.206,390.777 201.682,392.208ZM397.999,356.7L388.62,359.145L288.222,331.181L268.517,329.665L283.272,358.763L420.895,403.375L414.692,378.339L410.359,378.339L397.999,356.7ZM506.992,389.129C492.468,389.843 485.674,394.905 480.165,400.69L418.484,377.524L410.359,356.136L424.651,344.662L500,375.579L506.992,389.129Z" style="fill:white;"/>
    </g>
</svg>
