<?xml version="1.0" encoding="UTF-8" standalone="no"?>
<!DOCTYPE svg PUBLIC "-//W3C//DTD SVG 1.1//EN" "http://www.w3.org/Graphics/SVG/1.1/DTD/svg11.dtd">
<svg width="100%" height="100%" viewBox="0 0 1000 1000" version="1.1" xmlns="http://www.w3.org/2000/svg" xmlns:xlink="http://www.w3.org/1999/xlink" xml:space="preserve" xmlns:serif="http://www.serif.com/" style="fill-rule:evenodd;clip-rule:evenodd;stroke-linejoin:round;stroke-miterlimit:2;">
    <g transform="matrix(3.02798,0,0,3.02798,-798.263,-1078.44)">
        <path d="M398.44,661.925L394.508,661.406L391.975,668.861L398.1,669.898L398.44,661.925ZM432.249,444.478L394.843,659.987L398.818,660.483L437.47,445.854L432.249,444.478ZM441.442,440.823C440.318,441.911 439.397,443.256 438.774,444.98L431.943,443.18C431.194,439.293 432.174,436.47 434.452,434.444L441.442,440.823ZM436.282,434.392L441.643,439.284C445.936,436.335 452.587,437.165 460.695,437.546L461.633,431.425C453.438,429.434 441.85,430.084 436.282,434.392ZM440.638,430.348C438.611,431.049 436.944,431.848 435.609,433.14C434.954,432.586 434.486,432.604 433.844,433.413L443.044,388.417L448.428,388.562L440.638,430.348ZM461.633,386.892C458.579,387.535 454.69,387.774 449.103,387.188C447.041,386.974 444.948,386.83 442.813,386.782C443.699,384.686 445.776,382.627 449.044,382.013C451.487,382.598 453.929,382.577 456.372,381.919C458.457,382.955 460.206,384.622 461.633,386.892ZM463.285,386.155C460.276,381.381 458.114,379.872 452.786,379.555C448.727,379.314 443.034,381.803 441.136,386.216C434.389,378.695 443.545,372.454 452.862,372.676C460.322,372.853 469.981,377.164 463.285,386.155Z" style="fill:white;"/>
    </g>
</svg>
