<?xml version="1.0" encoding="UTF-8" standalone="no"?>
<!DOCTYPE svg PUBLIC "-//W3C//DTD SVG 1.1//EN" "http://www.w3.org/Graphics/SVG/1.1/DTD/svg11.dtd">
<svg width="100%" height="100%" viewBox="0 0 1000 1000" version="1.1" xmlns="http://www.w3.org/2000/svg" xmlns:xlink="http://www.w3.org/1999/xlink" xml:space="preserve" xmlns:serif="http://www.serif.com/" style="fill-rule:evenodd;clip-rule:evenodd;stroke-linejoin:round;stroke-miterlimit:2;">
    <g transform="matrix(9.47368,0,0,9.47368,-4239.21,-3748.95)">
        <path d="M500.25,422.029L505,422C507.591,414.428 511.076,407.545 515,401C528.251,419.117 538.435,457.632 539,486C532.959,492.545 519.239,495.454 500.5,495.986L500.5,496L500,496L500,495.986C481.261,495.454 467.541,492.545 461.5,486C463.392,458.357 472.123,419.142 485.5,401C489.424,407.545 492.909,414.428 495.5,422L500.25,422.029ZM500.25,473.968C505.747,473.18 507.712,467.404 506.5,467L508.5,465.5C508.5,465.5 506.588,466.343 506.5,466C504.097,466.953 502.064,466.844 500.25,466.106C498.436,466.844 496.403,466.953 494,466C493.912,466.343 492,465.5 492,465.5L494,467C492.788,467.404 494.753,473.18 500.25,473.968ZM514.252,444.388C513.778,445.84 513.5,447.602 513.5,449.5C513.5,451.767 513.897,453.839 514.551,455.422C511.534,454.668 508.517,452.836 505.5,450C508.348,447.255 511.149,445.413 513.901,444.5C514.018,444.461 514.136,444.424 514.252,444.388ZM486.248,444.388C486.722,445.84 487,447.602 487,449.5C487,451.767 486.603,453.839 485.949,455.422C488.966,454.668 491.983,452.836 495,450C492.152,447.255 489.351,445.413 486.599,444.5C486.482,444.461 486.364,444.424 486.248,444.388ZM521.222,444.311C521.649,444.436 522.075,444.586 522.5,444.76C524.874,445.733 527.207,447.474 529.5,450C526.657,452.836 523.814,454.606 520.97,455.372C521.612,453.796 522,451.743 522,449.5C522,447.568 521.712,445.778 521.222,444.311ZM479.278,444.311C478.851,444.436 478.425,444.586 478,444.76C475.626,445.733 473.293,447.474 471,450C473.843,452.836 476.686,454.606 479.53,455.372C478.888,453.796 478.5,451.743 478.5,449.5C478.5,447.568 478.788,445.778 479.278,444.311Z" style="fill:white;"/>
    </g>
</svg>
