<?xml version="1.0" encoding="UTF-8" standalone="no"?>
<!DOCTYPE svg PUBLIC "-//W3C//DTD SVG 1.1//EN" "http://www.w3.org/Graphics/SVG/1.1/DTD/svg11.dtd">
<svg width="100%" height="100%" viewBox="0 0 1000 1000" version="1.1" xmlns="http://www.w3.org/2000/svg" xmlns:xlink="http://www.w3.org/1999/xlink" xml:space="preserve" xmlns:serif="http://www.serif.com/" style="fill-rule:evenodd;clip-rule:evenodd;stroke-linejoin:round;stroke-miterlimit:2;">
    <g transform="matrix(10.8579,0,0,10.8579,109.589,-720.912)">
        <path d="M45,79L37.5,71L32.5,76L40,80.5C34.688,83.541 30.825,88.016 30,95.5C23.718,90.497 18.678,90.495 16,100C8.415,101.353 5.587,104.714 8.5,110.5C2.745,112.701 0.242,116.533 3,123C0.676,130.604 2.444,134.497 8.5,134.5C6.34,142.133 7.57,146.397 15.5,144C16.87,151.316 20.134,154.287 27,149C30.72,154.879 34.873,155.55 39.5,150.5C45.87,154.723 50.761,153.679 52.5,145C60.073,144.366 62.748,140.546 62,134.5C67.194,131.994 69.676,128.211 67,122C72.602,113.341 70.368,108.797 61,108C61.324,98.163 59.996,88.773 49,82L58.5,79L54,73L45,79ZM43,83C34.794,87.636 32.306,94.34 38,104C41.382,106.915 45.15,107.486 49.5,104.5C54.493,97.85 52.326,90.684 43,83Z" style="fill:white;"/>
    </g>
</svg>
