<?xml version="1.0" encoding="UTF-8" standalone="no"?>
<!DOCTYPE svg PUBLIC "-//W3C//DTD SVG 1.1//EN" "http://www.w3.org/Graphics/SVG/1.1/DTD/svg11.dtd">
<svg width="100%" height="100%" viewBox="0 0 1000 1000" version="1.1" xmlns="http://www.w3.org/2000/svg" xmlns:xlink="http://www.w3.org/1999/xlink" xml:space="preserve" xmlns:serif="http://www.serif.com/" style="fill-rule:evenodd;clip-rule:evenodd;stroke-linejoin:round;stroke-miterlimit:2;">
    <g transform="matrix(4.09091,0,0,4.09091,-1545.45,-1545.45)">
        <path d="M610,526L610,532.5L482,590L390,473L390,467L482,583L610,526ZM523.909,430.35L505,410L390,463.218L482,579L610,523L545.277,453.346L484.726,483L482,478.622L542.868,450.753L526.379,433.008L468.759,461.276L466.032,456.898L523.909,430.35ZM499.966,492.741L500.748,492.43L501.497,492.154L502.273,491.892L503.027,491.659L503.782,491.446L504.605,491.235L505.386,491.055L506.166,490.895L507.01,490.742L507.815,490.615L508.614,490.508L509.474,490.411L510.544,490.318L511.681,490.251L512.514,490.222L513.645,490.21L514.498,490.221L515.362,490.25L516.196,490.293L517.024,490.352C516.732,499.257 519.702,506.817 525.519,513.119C531.215,519.289 539.723,524.319 551.014,528.136L550.696,528.7L550.273,529.383L549.79,530.087L549.42,530.583L549.032,531.067L548.457,531.729L548.022,532.192L547.564,532.65L546.905,533.259L546.406,533.687L545.871,534.117L545.309,534.54L544.745,534.938L544.167,535.322L543.572,535.692L542.924,536.068L542.272,536.421L541.614,536.755L540.94,537.074L540.251,537.378L539.497,537.686L538.77,537.96L538.042,538.214L537.309,538.45L536.535,538.677L535.759,538.885L534.993,539.07L534.227,539.237L533.456,539.386L532.624,539.528L531.584,539.678L530.765,539.774L529.681,539.875L528.881,539.93L527.757,539.98L526.946,539.997L526.135,539.999L525,539.974L524.183,539.939L523.367,539.887C523.357,531.275 520.525,523.833 514.953,517.61C509.262,511.254 500.66,506.088 488.852,502.327L489.165,501.75L489.482,501.215L489.82,500.686L490.312,499.983L490.712,499.46L491.255,498.805L491.71,498.3L492.311,497.683L492.817,497.202L493.323,496.753L493.839,496.323L494.398,495.887L494.974,495.467L495.553,495.071L496.154,494.686L496.81,494.294L497.452,493.935L498.106,493.594L498.828,493.244L499.534,492.925L499.966,492.741ZM486.993,508.734L487.003,508.625C496.306,511.612 503.21,515.575 507.72,520.612C512.159,525.569 514.231,531.488 514.28,538.311L513.159,537.987L512.268,537.709C511.848,537.573 511.43,537.432 511.013,537.284L509.918,536.881L509.401,536.68C508.99,536.518 508.582,536.35 508.176,536.176L507.104,535.701L506.433,535.388L505.413,534.885L504.379,534.343L503.562,533.89L502.427,533.222L501.279,532.498L500.232,531.792L499.212,531.058L498.296,530.357L497.337,529.575L496.469,528.822L495.573,527.993L494.755,527.185L493.973,526.361L493.176,525.463L492.476,524.618L491.775,523.706L491.163,522.848L490.556,521.926L490.114,521.202L489.677,520.43L489.29,519.692L489.146,519.4L488.789,518.635L488.471,517.885L488.412,517.738C488.272,517.386 488.142,517.034 488.023,516.683L487.873,516.225C487.347,514.563 487.042,512.907 486.954,511.281L486.928,510.539L486.938,509.627L486.993,508.734ZM526.25,492.048L527.511,492.43L528.463,492.744L529.422,493.083L529.608,493.151C531.702,493.925 533.739,494.845 535.687,495.903L536.22,496.197C536.629,496.426 537.033,496.661 537.433,496.903L538.297,497.438L538.626,497.65L539.481,498.219L540.445,498.9L541.263,499.51L542.183,500.237L542.955,500.884L543.831,501.66L544.522,502.308L545.382,503.166L546.028,503.85L546.83,504.753L547.534,505.605L548.236,506.518L548.955,507.535L549.52,508.404L550.123,509.419L550.669,510.436L551.126,511.386L551.561,512.404L551.721,512.815L552.019,513.652L552.289,514.52L552.404,514.936L552.607,515.768L552.78,516.631L552.869,517.18C552.917,517.505 552.957,517.83 552.988,518.154L553.05,519.005L553.066,519.41C553.075,519.731 553.076,520.05 553.068,520.367L553.028,521.211L552.968,521.867C544.04,518.818 537.194,514.928 532.657,510.013C528.046,505.019 525.904,499.032 526.104,492.006L526.25,492.048ZM427,456.713L405.588,466.213L446.95,518L468.362,508.5L427,456.713Z" style="fill:white;"/>
    </g>
</svg>
