<?xml version="1.0" encoding="UTF-8" standalone="no"?>
<!DOCTYPE svg PUBLIC "-//W3C//DTD SVG 1.1//EN" "http://www.w3.org/Graphics/SVG/1.1/DTD/svg11.dtd">
<svg width="100%" height="100%" viewBox="0 0 1000 1000" version="1.1" xmlns="http://www.w3.org/2000/svg" xmlns:xlink="http://www.w3.org/1999/xlink" xml:space="preserve" xmlns:serif="http://www.serif.com/" style="fill-rule:evenodd;clip-rule:evenodd;stroke-linejoin:round;stroke-miterlimit:2;">
    <g transform="matrix(0.992575,0,0,0.717134,3.71274,141.433)">
        <path d="M515.575,296.087L515.575,293.053L543.312,292.764L546.568,285.709L546.937,236.978C563.561,221.148 579.549,221.885 594.956,237.707L595.41,285.089L598.572,291.237L613.943,291.49L614.363,220.026C619.394,203.74 624.882,204.388 630.749,219.066L638.649,220.022L631.406,291.275L640.186,291.349L640.186,296.087L648.087,296.087L648.087,291.416L671.481,291.615L674.723,283.083L675.056,218.088L706.333,218.41L706.354,282.933L709.746,291.685L728.024,291.177C724.468,275.85 723.525,260.523 730.761,245.196L731.108,220.174L736.068,210.218C732.909,220.677 732.075,231.265 734.481,242.034L738.324,239.84L738.745,226.215L746.407,226.431L746.26,240.135L755.29,248.484C755.195,258.497 755.123,268.502 755.664,278.293C755.867,281.96 756.155,285.596 756.56,289.192L761.498,290.117L760.73,242.891L826.538,242.833C824.346,239.466 824.438,234.459 824.755,227.658L867.371,227.258C867.513,231.73 867.023,236.525 865.331,241.932L894.616,240.659C892.774,237.172 891.908,232.92 892.694,227.371L934.411,226.261C935.581,231.753 934.652,236.078 932.77,239.873L953.366,242.894L953.138,287.597C951.988,304.337 948.442,311.258 943.047,310.604L943.639,343.647L947.545,343.001L947.303,670.241L942.332,670.513L930.312,744.874L897.62,742.475L896.031,697.665C893.124,695.649 890.058,691.599 886.642,683.072L869.509,682.858L869.5,735.484L848.455,734.834L847.523,683.366L829.594,683.398L829.655,718.841L834.492,718.841L834.477,753.204L830.537,753.195L830.537,743.207L827.444,743.53L803.163,755.823C785.572,803.362 767.611,802.988 749.294,756.629L738.468,752.592L738.1,764.42L635.59,766.713C616.325,799.494 596.416,799.854 575.845,767.024L536.77,767.035C516.487,799.161 496.205,799.403 475.923,767.004L436.492,767.17C426.694,782.739 416.896,790.56 407.098,790.869C396.989,791.188 386.88,783.511 376.771,768.1L336.959,767.23C314.301,803.01 286.948,804.395 265.18,737.267L251.835,737.354C256.977,748.472 211.799,749.89 156.178,749.295C152.099,771.594 145.892,786.597 136.719,791.442C133.928,792.251 130.155,792.355 124.72,791.262C115.783,784.617 108.524,773.357 105.277,751.067C103.946,744.28 103.754,735.439 104.938,724.12C106.322,710.704 108.748,697.353 119.841,684.542C136.146,674.02 148.377,685.241 156.629,717.702L169.592,720.748C165.725,698.999 159.561,685.738 152.581,675.855C148.835,670.551 138.106,670.604 118.336,669.766L94.826,737.656L92.727,777.555L46.634,776.803L53.594,734.63C45.836,733.79 51.059,706.706 63.728,664.569L81.698,663.139L82.996,622.735C85.7,594.82 88.855,596.511 92.383,622.735L133.668,512.387L132.7,494.949C128.715,487.556 125.789,475.807 124.234,458.415L98.414,445.595L98.092,435.385C92.426,422.529 93.428,409.86 98.145,397.296L121.192,397.969C120.963,383.537 122.896,369.935 125.659,356.652L117.108,355.907L116.811,343.541C113.634,337.163 114.223,331.763 116.524,326.808L115.344,314.513L100.685,314.222C104.016,308.982 105.929,303.667 106.668,298.29C105.652,281.159 107.657,271.047 112.542,267.632L112.278,256.058L116.354,256.246L116.338,267.3C121.423,268.935 123.969,278.244 123.044,298.049C122.98,303.825 125.168,308.495 128.974,312.37L130.755,327.75L132.965,328.071L133.287,305.432L138.727,303.987C132.205,259.656 139.744,235.934 162.725,234.85C169.983,229.846 179.649,234.914 190.26,243.932L190.419,223.85L187.729,218.099L189.816,213.855L231.181,214.217L232.985,217.789L229.846,222.965L229.884,280.113L242.457,294.188L258.435,294.418L258.435,296.087L266.335,296.087L266.335,294.532L303.83,295.072C306.697,274.11 309.98,276.795 313.548,295.66L313.543,296.087L342.408,296.087L344.272,289.478L343.886,250.135C347.88,237.622 351.089,233.961 353.885,234.959L354.089,278.072C354.579,286.917 355.455,292.192 356.479,296.087L414.517,296.087C417.48,277.004 416.66,259.438 416.104,241.767C434.116,209.359 452.129,209.562 470.142,243.147C468.626,259.935 468.309,276.723 471.506,293.511L507.674,293.135L507.674,296.087L515.575,296.087ZM215.605,440.005L171.752,439.944L93.305,664.892L67.209,672.146L54.24,760.358L82.248,760.954L166.977,519.216L172.058,518.462L197.363,518.469L197.363,512.011L883.059,512.011L883.183,440.922L648.087,440.599L648.087,440.232L640.186,440.232L640.186,440.588L515.575,440.417L515.575,440.232L507.674,440.232L507.674,440.406L388.921,440.243L388.921,440.232L215.605,440.232L215.605,440.005Z" style="fill:white;"/>
    </g>
</svg>
