<?xml version="1.0" encoding="UTF-8" standalone="no"?>
<!DOCTYPE svg PUBLIC "-//W3C//DTD SVG 1.1//EN" "http://www.w3.org/Graphics/SVG/1.1/DTD/svg11.dtd">
<svg width="100%" height="100%" viewBox="0 0 1000 1000" version="1.1" xmlns="http://www.w3.org/2000/svg" xmlns:xlink="http://www.w3.org/1999/xlink" xml:space="preserve" xmlns:serif="http://www.serif.com/" style="fill-rule:evenodd;clip-rule:evenodd;stroke-linejoin:round;stroke-miterlimit:2;">
    <g transform="matrix(5.42169,0,0,5.42169,-2237.95,-1565.66)">
        <path d="M542,437C546.767,428.211 556.446,419.84 564.5,419.5C565.566,412.961 563.9,408.959 552.5,414C552.983,411.818 555.131,409.809 564,408.5C567.899,410.289 572.116,410 572.116,410C569.913,409.486 567.99,405.434 570.5,402C569.323,399.422 568.749,396.714 570.5,393.5C572.974,390.17 576.467,387.822 579.99,386C590.016,380.815 587.211,374.555 588,370C585.957,375.82 583.467,378.673 576,380.574C562.891,383.913 545.421,392.418 543.179,398.5C541.881,402.02 539.931,405.616 537,407.553C531.331,411.298 529.289,414.448 531,417C531.845,413.228 540.668,409.983 541,410.04C543.051,410.397 537.964,420.492 529,428C534.496,429.891 538.474,434.077 542,437ZM465,432.5C460.233,423.711 453.554,419.84 445.5,419.5C444.434,412.961 446.1,408.959 457.5,414C457.017,411.818 454.869,409.809 446,408.5C444.513,405.919 442.239,403.818 439.5,402C440.677,399.422 441.251,396.714 439.5,393.5C437.026,390.17 433.533,387.822 430.01,386C419.984,380.815 422.789,374.555 422,370C424.043,375.82 426.343,379.706 434,380.574C445.889,381.923 456.163,387.273 466.821,398.5C473.757,405.805 476.068,410.103 472.5,414.5C471.655,410.728 469.332,409.983 469,410.04C466.949,410.397 469.036,417.492 478,425C473.135,427.045 468.76,429.51 465,432.5ZM526.086,426.913C525.406,425.268 524.79,422.893 525.877,420.5C528.208,415.371 530.524,408.908 533,402C534,401.784 535,401.879 536,402C536.124,398.32 536.086,394.657 536,391C536.629,390.865 537.298,390.873 538,391C538.439,387.004 537.709,383.225 534,380C534.745,379.605 535.78,379.28 537,379C536.569,376.738 535.243,374.736 533,373C533.645,370.024 531.2,369.093 529,368L532,367C532.477,362.248 528.889,360.193 524,359C525.271,358.536 526.621,358.238 528,358C526.707,357.18 525.368,356.909 524,357C524.858,355.968 526.359,355.43 528,355C525.159,353.742 522.126,353.999 519,355C519.891,354.156 520.904,353.511 522,353C520.987,352.46 519.989,352.151 519,352C519.853,350.569 521.364,349.728 523,349C520.363,348.96 517.694,349.318 515,350C515.144,349.532 515.489,349.207 516,349C515.138,348.429 514.119,348.129 513,348C513.61,345.832 515.223,344.359 517,343C514.613,343.423 512.257,343.989 510,345C510.374,344 511.17,343 512,342C509.791,343.006 507.773,344.31 506,346C507.148,342.547 509.72,339.643 515,337.783C523.194,335.111 526.581,330.353 529,325C522.216,329.246 516.324,334.874 504,335.144C486.889,335.518 475.788,350.672 475,352.384C474.028,354.496 475.622,353.006 477,353C475.857,353.47 474.516,355.187 473,358C476.301,358.771 475.89,361.271 475.426,362.452C475.171,363.1 474.423,363.63 473,364C474.93,367.988 469.153,372.397 468,372.768C466.874,373.131 466.222,371.135 466,367C458.216,374.535 458.642,382.788 470,392C470.034,389.483 470.236,387.068 471,385C472.427,389.325 476.407,391.013 483,390C481.206,383.125 481.521,375.557 499,385C497.253,383.12 496.8,381.495 497,380C501.457,377.943 506.455,393.841 503.292,395C501.295,395.732 502.198,399.279 500.302,401C496.961,404.033 482.474,411.423 481,424C496.208,423.499 511.242,424.429 526.086,426.913ZM485.582,358.62C487.469,358.62 489,360.152 489,362.038C489,363.924 487.469,365.456 485.582,365.456C483.696,365.456 482.164,363.924 482.164,362.038C482.164,360.152 483.696,358.62 485.582,358.62Z" style="fill:white;"/>
    </g>
</svg>
