<?xml version="1.0" encoding="UTF-8" standalone="no"?>
<!DOCTYPE svg PUBLIC "-//W3C//DTD SVG 1.1//EN" "http://www.w3.org/Graphics/SVG/1.1/DTD/svg11.dtd">
<svg width="100%" height="100%" viewBox="0 0 1000 1000" version="1.1" xmlns="http://www.w3.org/2000/svg" xmlns:xlink="http://www.w3.org/1999/xlink" xml:space="preserve" xmlns:serif="http://www.serif.com/" style="fill-rule:evenodd;clip-rule:evenodd;stroke-linejoin:round;stroke-miterlimit:2;">
    <g transform="matrix(21.5312,0,0,21.5312,-12023.1,-10537.4)">
        <path d="M591.625,526.5L591.625,526.025L591.625,526.025L586.621,526.025C586.487,526.025 586.36,526.081 586.27,526.18L582.323,530.521C582.152,530.71 581.908,530.794 581.672,530.771C581.641,530.768 581.609,530.768 581.578,530.771C581.342,530.794 581.098,530.71 580.927,530.521C580.927,530.521 576.981,526.18 576.981,526.18C576.891,526.081 576.763,526.025 576.629,526.025L571.625,526.025L571.626,526.025L571.623,526.025L571.625,526.025L568.143,526.025C568.512,524.886 568.953,523.884 569.489,523.147C570.027,522.408 570.652,521.942 571.423,521.972C571.446,521.976 571.47,521.978 571.495,521.978L571.524,521.977C571.558,521.976 571.591,521.975 571.625,521.975C571.625,521.975 572.084,521.975 572.084,521.975C572.272,521.975 572.442,521.864 572.518,521.692C572.594,521.52 572.562,521.32 572.435,521.18L560.927,508.521C560.72,508.294 560.667,507.967 560.791,507.686C560.916,507.406 561.193,507.225 561.5,507.225C561.5,507.225 574.917,507.225 574.917,507.225C575.179,507.225 575.392,507.012 575.392,506.75L575.392,499.586C575.392,499.417 575.302,499.26 575.155,499.175C575.009,499.09 574.828,499.09 574.681,499.174L573.758,499.701C573.187,500.028 572.458,499.829 572.132,499.258C571.806,498.687 572.004,497.958 572.575,497.632C572.575,497.632 576.075,495.632 576.075,495.632C576.176,495.575 576.28,495.534 576.387,495.508C576.406,495.503 576.424,495.498 576.441,495.491C576.615,495.427 576.804,495.392 577,495.392C577.888,495.392 578.608,496.112 578.608,497L578.608,521.5C578.608,521.762 578.821,521.975 579.083,521.975L582.917,521.975C583.179,521.975 583.392,521.762 583.392,521.5L583.392,498C583.392,497.112 584.112,496.392 585,496.392L595,496.392C595.11,496.392 595.218,496.403 595.322,496.424C595.462,496.452 595.607,496.416 595.717,496.326C595.828,496.236 595.892,496.101 595.892,495.958L595.892,495.518C595.892,494.93 596.437,494.475 597.083,494.475C597.73,494.475 598.275,494.93 598.275,495.518L598.275,500.149C598.275,500.737 597.73,501.192 597.083,501.192C596.437,501.192 595.892,500.737 595.892,500.149C595.892,500.149 595.892,500.042 595.892,500.042C595.892,499.899 595.828,499.764 595.717,499.674C595.607,499.584 595.462,499.548 595.322,499.576C595.218,499.597 595.11,499.608 595,499.608C595,499.608 588.588,499.608 587.305,499.608C587.177,499.608 587.1,499.608 587.086,499.608C586.751,499.608 586.657,499.874 586.657,499.874C586.625,499.939 586.608,500.011 586.608,500.083L586.608,505.917C586.608,506.179 586.821,506.392 587.083,506.392L591.833,506.392C592.096,506.392 592.308,506.179 592.308,505.917L592.308,505C592.308,504.342 592.842,503.808 593.5,503.808C594.158,503.808 594.692,504.342 594.692,505L594.692,506.75C594.692,507.012 594.904,507.225 595.167,507.225L601.75,507.225C602.057,507.225 602.335,507.406 602.459,507.686C602.583,507.967 602.53,508.294 602.323,508.521C602.323,508.521 590.815,521.18 590.815,521.18C590.689,521.32 590.656,521.52 590.732,521.692C590.808,521.864 590.979,521.975 591.167,521.975L591.5,521.975C591.51,521.975 591.52,521.975 591.53,521.974C591.733,521.961 591.925,521.982 592.109,522.033C592.113,522.034 592.117,522.035 592.121,522.036C592.628,522.164 593.06,522.484 593.334,522.913C593.343,522.928 593.353,522.942 593.364,522.956C593.968,523.705 594.454,524.783 594.857,526.025C594.857,526.025 591.625,526.025 591.625,526.025L591.625,526.025C591.703,526.028 591.703,526.264 591.684,526.5L591.625,526.5ZM583.594,526.82C583.72,526.68 583.753,526.48 583.677,526.308C583.601,526.136 583.43,526.025 583.242,526.025L580.008,526.025C579.82,526.025 579.649,526.136 579.573,526.308C579.497,526.48 579.53,526.68 579.656,526.82L581.274,528.599C581.364,528.698 581.491,528.754 581.625,528.754C581.759,528.754 581.887,528.698 581.977,528.599L583.594,526.82ZM571.685,526.5C571.705,526.263 571.706,526.026 571.627,526.025C571.888,526.026 572.1,526.238 572.1,526.5L571.685,526.5ZM591.395,526.5C591.319,526.263 591.319,526.026 591.624,526.025L591.625,526.025L591.625,526.5L591.395,526.5ZM571.15,526.5C571.15,526.272 571.311,526.081 571.525,526.036C571.322,526.084 571.33,526.292 571.397,526.5L571.15,526.5ZM595.167,508.775C594.904,508.775 594.692,508.988 594.692,509.25L594.692,511C594.692,511.658 594.158,512.192 593.5,512.192C592.842,512.192 592.308,511.658 592.308,511C592.308,511 592.308,510.083 592.308,510.083C592.308,509.821 592.096,509.608 591.833,509.608L587.083,509.608C586.821,509.608 586.608,509.821 586.608,510.083L586.608,521.5C586.608,521.762 586.821,521.975 587.083,521.975L587.788,521.975C587.922,521.975 588.049,521.919 588.139,521.82L599.276,509.57C599.402,509.43 599.435,509.23 599.359,509.058C599.283,508.886 599.112,508.775 598.924,508.775L595.167,508.775ZM574.565,521.219C574.697,521.365 574.905,521.414 575.088,521.343C575.271,521.272 575.392,521.096 575.392,520.9L575.392,509.25C575.392,508.988 575.179,508.775 574.917,508.775L564.326,508.775C564.138,508.775 563.968,508.886 563.892,509.058C563.815,509.23 563.848,509.43 563.974,509.57L574.565,521.219Z" style="fill:white;"/>
    </g>
</svg>
