<?xml version="1.0" encoding="UTF-8" standalone="no"?>
<!DOCTYPE svg PUBLIC "-//W3C//DTD SVG 1.1//EN" "http://www.w3.org/Graphics/SVG/1.1/DTD/svg11.dtd">
<svg width="100%" height="100%" viewBox="0 0 1000 1000" version="1.1" xmlns="http://www.w3.org/2000/svg" xmlns:xlink="http://www.w3.org/1999/xlink" xml:space="preserve" xmlns:serif="http://www.serif.com/" style="fill-rule:evenodd;clip-rule:evenodd;stroke-linejoin:round;stroke-miterlimit:2;">
    <g transform="matrix(1.17196,0,0,1.17196,-125.065,83.2781)">
        <path d="M621.61,511.974C614.856,502.791 613.203,504.27 615.775,514.582C594.543,527.715 573.194,539.302 551.852,550.969C547.717,552.282 548.302,554.358 549.378,556.514C549.274,557.87 549.691,559.02 550.993,559.822C553.513,562.727 555.7,562.982 557.57,560.707C578.054,545.986 599.009,532.998 620.685,522.666C627.259,530.628 630.09,531.486 625.806,518.841C624.616,516.839 623.302,513.933 621.61,511.974ZM626.679,518.656C625.355,515.835 624.286,513.28 622.391,511.352C704.494,468.897 790.387,441.31 878.911,421.303C880.03,423.652 880.714,426.092 881.142,428.587C792.588,447.198 706.836,474.375 626.679,518.656ZM312.945,354.956C297.816,334.386 294.111,337.698 299.873,360.798C252.31,390.218 204.488,416.175 156.678,442.309C147.416,445.253 148.726,449.903 151.137,454.731C150.902,457.769 151.838,460.346 154.754,462.141C160.399,468.65 165.299,469.221 169.487,464.125C215.375,431.149 262.316,402.052 310.874,378.909C325.599,396.744 331.94,398.666 322.345,370.34C319.678,365.856 316.735,359.345 312.945,354.956ZM879.593,421.158C880.724,423.678 881.508,426.406 881.983,429.322C882.501,429.482 882.914,429.269 883.2,428.607C892.914,428.503 891.438,424.477 891.169,423.265C890.858,421.864 890.94,418.096 881.624,421.184C880.835,420.774 880.135,420.682 879.593,421.158ZM324.301,369.925C321.334,363.606 318.94,357.882 314.694,353.563C498.615,258.459 691.026,196.661 889.332,151.842C891.837,157.104 893.37,162.571 894.329,168.16C695.957,209.851 503.861,270.729 324.301,369.925ZM890.858,151.518C893.392,157.162 895.149,163.274 896.212,169.805C897.373,170.164 898.298,169.688 898.939,168.204C920.699,167.97 917.393,158.952 916.79,156.236C916.094,153.1 916.277,144.659 895.409,151.575C893.642,150.657 892.073,150.45 890.858,151.518Z" style="fill:white;"/>
    </g>
</svg>
