<?xml version="1.0" encoding="UTF-8" standalone="no"?>
<!DOCTYPE svg PUBLIC "-//W3C//DTD SVG 1.1//EN" "http://www.w3.org/Graphics/SVG/1.1/DTD/svg11.dtd">
<svg width="100%" height="100%" viewBox="0 0 1000 1000" version="1.1" xmlns="http://www.w3.org/2000/svg" xmlns:xlink="http://www.w3.org/1999/xlink" xml:space="preserve" xmlns:serif="http://www.serif.com/" style="fill-rule:evenodd;clip-rule:evenodd;stroke-linejoin:round;stroke-miterlimit:2;">
    <path d="M412.237,682.411C411.64,688.972 411.037,695.097 410.785,700.505C397.782,708.619 400.316,722.689 402.636,728.007C405.326,734.172 416.148,740.055 430.586,731.307C437.149,739.689 443.108,743.676 448.187,744.129C456.33,744.856 458.967,740.598 459.188,731.307C466.278,731.841 472.224,731.189 476.789,729.107C477.521,730.013 478.103,731.068 478.989,731.823C494.339,744.903 500.144,755.267 518.591,748.908C521.464,750.685 525.754,751.807 533.992,751.108C551.037,754.608 555.282,743.44 540.592,735.707C537.395,734.532 533.872,733.603 531.792,731.702C523.668,724.283 515.721,714.272 505.39,704.905C499.304,703.31 493.49,702.784 487.789,702.705C474.863,697.987 469.533,691.473 463.588,685.104L463.681,684.665C452.125,683.656 440.62,682.921 429.178,682.598C423.515,682.438 417.867,682.372 412.237,682.411ZM413.683,649.293C413.795,655.341 413.732,661.401 413.389,667.503C413.227,670.39 413.02,673.238 412.792,676.027C430.069,675.843 447.514,676.64 465.07,678.133C467.148,668.457 469.292,658.883 471.548,649.554C459.071,648.084 446.602,647.381 434.126,647.747C427.313,647.947 420.499,648.45 413.683,649.293ZM413.502,642.828C424.05,641.494 434.6,640.952 445.151,641.106C454.483,641.241 463.819,641.892 473.148,643.061C478.652,621.136 484.856,600.781 492.382,583.899C496.441,574.795 495.234,558.223 494.39,546.497L495.839,539.249C495.073,530.257 493.84,521.604 491.365,513.824C488.583,505.079 484.228,497.454 477.006,491.848C477.006,491.848 477.006,491.848 477.006,491.848C476.059,491.114 475.596,489.916 475.803,488.736C475.803,488.736 475.803,488.736 475.803,488.735C477.183,480.866 476.774,475.085 475.004,470.707C472.623,464.82 467.773,461.669 462.284,459.226C461.345,458.809 460.662,457.968 460.447,456.962C460.447,456.962 460.447,456.962 460.447,456.961C456.331,437.62 449.89,423.247 441.577,412.732C430.856,399.172 417.033,392.126 401.365,388.978C400.149,388.734 399.189,387.799 398.912,386.59C394.982,369.435 392.237,351.336 382.075,339.615C375.96,332.561 367.051,328.009 353.457,327.48C353.456,327.48 353.456,327.48 353.455,327.48C352.174,327.43 351.047,326.619 350.592,325.421C350.137,324.222 350.44,322.868 351.363,321.98C353.171,320.238 354.853,318.497 356.449,316.755C357.576,315.526 358.661,314.296 359.718,313.066C355.391,306.681 351.04,300.305 344.776,295.083C339.207,290.439 332.095,286.737 322.1,284.748C322.1,284.748 322.099,284.748 322.099,284.748C321.609,284.651 321.149,284.441 320.753,284.136C320.753,284.136 320.753,284.136 320.753,284.136C317.196,281.39 313.638,279.143 310.08,277.278C306.172,275.229 302.262,273.641 298.353,272.356C297.877,272.2 297.443,271.934 297.087,271.581L290.588,265.128C257.328,259.897 229.459,267.034 206.174,284.682C180.38,295.462 159.844,309.468 146.223,328.685C140.866,336.242 138.442,344.115 129.51,352.045C158.182,353.42 179.484,359.347 195.43,368.501C218.806,381.921 230.848,402.262 237.572,425.847C240.627,428.415 243.32,431.723 245.334,436.403C247.384,441.169 248.737,447.428 248.941,455.918C250.941,465.74 251.746,474.574 251.96,482.515C252.176,490.558 251.783,497.677 251.413,503.972C256.598,504.782 262.063,505.312 267.793,505.624C271.673,505.835 275.675,505.934 279.796,505.955C280.51,505.958 282.213,506.145 282.647,506.258C282.656,506.261 282.665,506.263 282.66,506.262L285.169,506.54L285.172,506.539C298.622,501.699 311.581,492.824 323.507,475.101C323.955,474.435 324.794,474.153 325.554,474.412C326.465,474.723 327.377,474.916 328.289,474.998C327.686,467.136 328.339,460.123 330.734,454.378C332.553,450.012 335.358,446.342 339.365,443.527C339.475,438.623 339.991,435.394 340.775,433.286C342.016,429.947 343.942,428.615 346.23,428.069C346.23,428.069 346.23,428.069 346.231,428.069C351.386,426.841 357.576,429.325 361.13,434.952C363.532,438.756 364.753,444.015 363.337,450.391C363.229,450.879 363.009,451.336 362.694,451.725C362.694,451.725 362.694,451.725 362.693,451.725C360.91,453.926 359.484,455.639 358.531,456.945C358.21,457.385 357.845,457.931 357.744,458.084C357.141,464.215 358.91,467.821 362.979,468.697C368.506,469.887 376.656,467.075 385.908,461.316C391.093,458.088 395.217,451.866 398.661,443.675C402.558,434.406 405.484,422.67 407.67,409.571C408.047,407.307 409.472,405.139 411.609,403.517C414.081,401.64 417.491,400.506 420.774,400.733C424.977,401.022 429.134,403.335 430.91,409.19C435.259,409.57 438.034,411.437 439.839,414.093C441.552,416.615 442.335,420.052 442.504,423.974C444.095,425.522 444.991,427.463 445.366,429.7C445.807,432.33 445.456,435.449 444.813,438.687C445.081,440.134 445.207,441.581 445.231,443.029C445.27,445.342 445.043,447.656 444.75,449.924C444.61,452.871 444.329,455.418 443.943,457.656C445.112,456.023 446.278,454.928 447.408,454.258C450.286,452.552 453.306,452.871 456.822,455.737C457.442,456.242 458.078,456.795 458.593,457.652C459.223,458.7 459.786,460.284 459.392,463.183C459.079,465.485 458.084,469.025 455.785,474.601C455.697,476.125 455.503,477.649 455.139,479.173C454.738,480.853 454.134,482.532 453.241,484.211C453.24,484.211 453.24,484.211 453.24,484.212C453.097,484.48 452.917,484.727 452.706,484.945C451.281,486.413 449.791,487.748 448.257,488.998C446.17,490.698 444.003,492.237 441.824,493.741C440.416,496.105 438.559,498.564 435.803,501.198C433.924,502.994 431.614,504.881 428.723,506.874C426.457,511.412 423.844,514.253 421.087,516.049C417.296,518.519 413.161,519.059 408.894,518.921C405.477,519.734 402.181,520.636 399.292,521.872C396.959,542.583 398.621,561.371 410.785,575.098C410.021,598.502 412.684,620.625 413.502,642.828ZM339.654,546.597C335.828,542.91 332.2,539.112 328.795,535.19C321.841,527.178 315.818,518.646 310.93,509.484C302.268,515.27 293.785,519.21 285.412,522.075C285.16,522.254 284.847,522.416 284.465,522.535C282.887,523.028 279.174,523.439 279.174,523.439C279.137,523.444 279.099,523.446 279.061,523.448C271.211,523.785 264.56,524.725 259.086,526.275C253.275,527.921 248.845,530.222 245.838,533.297C245.473,533.672 245.033,533.94 244.563,534.092C243.947,534.965 243.291,535.765 242.596,536.497C236.505,542.909 227.267,544.286 214.664,543.042C205.714,542.161 194.5,542.415 182.627,541.027C176.014,540.253 169.203,538.978 162.461,536.759C132.867,552.396 111.24,548.56 93.94,534.531C82.575,525.316 73.074,511.512 64.472,495.662C60.719,488.747 57.13,481.442 53.612,473.974C49.956,485.529 48.412,498.161 52.165,513.495C56.095,560.11 78.796,587.44 137.97,577.298C157.713,596.041 182.405,605.213 217.174,594.899C224.541,609.665 250.129,610.907 250.434,608.1C256.225,612.922 314.696,600.605 331.581,553.097C334.294,550.984 336.985,548.814 339.654,546.597ZM748.042,444.221C738.137,444.628 728.511,445.318 719.106,446.23C718.984,446.241 718.86,446.246 718.737,446.244C712.198,446.11 705.633,446.37 699.139,447.257C692.764,448.127 686.456,449.601 680.309,451.9C666.643,457.014 654.951,465.618 639.533,473.352C633.881,476.187 627.744,478.911 620.857,481.323L620.557,481.411C613.319,483.181 605.855,484.387 598.072,484.801C590.789,485.187 583.228,484.88 575.313,483.691C575.313,483.691 575.313,483.691 575.312,483.691C575.027,483.648 574.749,483.567 574.485,483.45C568.233,480.684 561.982,478.531 555.731,477.079C549.578,475.649 543.426,474.899 537.274,474.917C527.695,481.89 518.128,485.761 508.645,485.987C502,486.146 495.378,484.532 488.795,480.897C488.243,480.592 487.676,480.3 487.144,479.939L482.956,476.991C483.213,480.189 483.083,483.819 482.477,487.961C489.878,494.248 494.558,502.46 497.53,511.87C499.861,519.25 501.14,527.378 501.931,535.84C506.701,535.81 511.525,534.9 516.391,533.296C535.195,529.796 538.108,536.276 547.192,540.562C574.658,553.52 619.211,545.051 621.997,542.364C621.724,542.531 640.785,530.219 654.998,520.095C682.679,525.235 719.673,504.577 751.804,487.712C752.121,487.546 752.441,487.384 752.763,487.227C752.973,484.755 753.116,482.285 753.185,479.814C753.513,467.947 752.103,456.081 748.042,444.221ZM329.177,494.587C329.378,494.834 329.613,495.069 329.786,495.327C333.163,500.34 336.874,505.245 340.863,510.049C346.417,516.739 352.496,523.245 358.918,529.641C354.178,534.012 349.403,538.299 344.57,542.446C340.736,538.732 337.105,534.903 333.705,530.948C326.923,523.058 321.063,514.66 316.366,505.622C320.588,502.441 324.855,498.791 329.177,494.587ZM121.302,357.537C66.642,368.655 53.757,409.533 54.068,459.812C59.287,471.09 64.542,482.267 70.154,492.573C78.335,507.596 87.234,520.769 98.009,529.517C113.75,542.298 133.493,545.189 160.651,530.491C161.441,530.063 162.374,529.988 163.221,530.283C163.222,530.284 163.222,530.284 163.222,530.284C169.949,532.633 176.765,533.935 183.369,534.715C195.196,536.111 206.371,535.864 215.286,536.75C225.476,537.761 233.096,537.336 238.023,532.152C239.29,530.818 240.366,529.182 241.268,527.207C241.268,527.207 244.393,514.277 244.394,514.267C244.576,512.595 244.715,510.819 244.812,508.933C245.189,501.558 245.921,492.88 245.638,482.687C245.425,475.005 244.632,466.451 242.666,456.933L242.601,456.362C242.431,448.753 241.309,443.16 239.481,438.925C237.773,434.967 235.449,432.268 232.809,430.207C232.809,430.207 232.809,430.206 232.808,430.206C232.271,429.786 231.882,429.204 231.699,428.548C225.454,406.171 214.316,386.785 192.213,374.108C176.14,364.889 154.362,359.209 124.672,358.308C124.441,358.301 124.211,358.269 123.987,358.213L121.302,357.537ZM333.473,490.24L333.624,490.252C333.792,490.266 333.8,490.197 333.946,490.282C334.035,490.333 334.065,490.449 334.124,490.533C335.011,491.784 335.929,493.02 336.848,494.265C340.71,499.493 344.87,504.645 349.3,509.721C353.858,514.941 358.687,520.089 363.72,525.176C364.741,524.22 365.762,523.259 366.782,522.295C373.991,522.509 381.613,521.998 389.885,520.346C389.956,520.263 390.03,520.182 390.105,520.101C390.524,519.652 391.051,519.307 391.56,518.942C395.8,515.895 401.642,514.073 407.834,512.574C407.836,512.573 407.838,512.573 407.84,512.572C408.128,512.504 408.424,512.475 408.717,512.487C411.799,512.613 414.829,512.439 417.562,510.65C419.671,509.269 421.558,506.958 423.257,503.323C423.257,503.323 423.257,503.323 423.258,503.322C423.506,502.793 423.893,502.341 424.377,502.014C427.259,500.069 429.523,498.252 431.333,496.521C433.792,494.17 435.384,491.997 436.569,489.901C436.569,489.901 436.569,489.901 436.57,489.901C436.811,489.473 437.147,489.106 437.552,488.828C437.552,488.828 437.552,488.827 437.552,488.827C439.795,487.285 442.03,485.724 444.172,483.981C445.396,482.985 446.59,481.929 447.743,480.766C448.252,479.735 448.609,478.703 448.856,477.671C449.168,476.368 449.308,475.064 449.362,473.761C449.377,473.379 449.461,473.003 449.608,472.649C449.608,472.649 449.608,472.649 449.608,472.649C451.742,467.543 452.724,464.368 453.006,462.311C453.063,461.898 453.092,461.557 453.088,461.273C453.086,461.153 453.107,461.059 453.082,460.989L452.751,460.724C452.067,460.164 451.531,459.71 450.948,459.692C450.803,459.688 450.682,459.775 450.545,459.872C450.315,460.037 450.089,460.261 449.85,460.527C448.221,462.347 446.601,465.682 444.554,470.7L444.514,470.793C443.426,473.24 442.049,475.497 440.384,477.563C438.769,479.567 436.882,481.392 434.719,483.035C433.816,483.721 432.617,483.877 431.568,483.445C430.52,483.012 429.779,482.056 429.623,480.932C429.623,480.932 429.623,480.931 429.623,480.931C429.36,479.024 429.414,477.08 429.932,475.08C430.363,473.418 431.116,471.711 432.326,469.935C433.995,467.227 435.672,464.493 436.846,460.327C437.639,457.511 438.203,454.053 438.419,449.542L438.442,449.283C438.709,447.232 438.93,445.181 438.899,443.13C438.88,441.872 438.764,440.614 438.494,439.358C438.401,438.926 438.399,438.479 438.489,438.046C438.489,438.046 438.489,438.046 438.489,438.045C439.04,435.407 439.49,432.869 439.135,430.742C438.956,429.671 438.536,428.736 437.601,428.094C436.749,427.509 436.236,426.545 436.229,425.511C436.229,425.511 436.229,425.511 436.229,425.511C436.209,422.387 435.942,419.586 434.619,417.637C433.518,416.013 431.57,415.305 428.524,415.438C426.918,415.508 425.517,414.359 425.271,412.772C424.676,408.935 422.686,407.187 420.342,407.026C418.579,406.906 416.755,407.535 415.428,408.544C414.669,409.121 414.034,409.802 413.9,410.606C411.638,424.255 408.569,436.475 404.522,446.135C400.481,455.782 395.388,462.931 389.289,466.74C378.214,473.656 368.255,476.4 361.63,474.984C358.231,474.258 355.556,472.534 353.729,469.851C351.764,466.964 350.769,462.816 351.336,457.272C351.336,457.272 351.337,457.272 351.337,457.272C351.416,456.494 351.791,455.401 352.666,454.07C353.561,452.708 355.115,450.811 357.174,448.267C357.912,444.227 357.209,440.866 355.656,438.411C353.729,435.363 350.526,433.705 347.733,434.371C347.733,434.371 347.732,434.371 347.732,434.371C347.456,434.437 347.277,434.637 347.11,434.94C346.871,435.372 346.687,435.941 346.515,436.665C346.052,438.624 345.832,441.401 345.819,445.301C345.815,446.432 345.221,447.479 344.253,448.063C344.253,448.064 344.252,448.064 344.252,448.064C340.65,450.232 338.216,453.229 336.687,456.869C334.621,461.789 334.155,467.809 334.652,474.546C334.721,474.584 334.787,474.627 334.851,474.675C335.312,475.023 335.575,475.573 335.556,476.15C335.477,478.562 335.736,481.069 337.499,483.971C337.904,484.638 337.826,485.492 337.307,486.075C336.024,487.514 334.747,488.901 333.473,490.24ZM279.901,512.311C279.868,512.707 279.844,513.119 279.826,513.539C279.827,513.531 278.669,517.005 278.669,517.005C270.283,517.394 263.179,518.444 257.331,520.124C254.14,521.041 251.128,521.984 248.522,523.155C249.457,518.918 250.541,512.939 251.058,510.025C257.761,511.086 265.546,512.134 272.951,512.299C275.23,512.35 277.547,512.351 279.901,512.311ZM280.124,510.531L280.048,510.533C280.051,510.631 280.062,510.731 280.083,510.83C280.106,510.726 280.135,510.628 280.172,510.53L280.124,510.531ZM281.147,510.511L281.076,510.512L281.211,510.738C281.188,510.663 281.166,510.587 281.147,510.511ZM784.98,444.049C788.95,456.036 790.299,468.018 789.896,479.999C789.843,481.574 789.76,483.148 789.648,484.724C791.022,485.073 792.345,485.462 793.606,485.885C801.087,488.393 810.773,494.7 831.008,493.694C851.337,505.38 871.857,506.207 892.612,493.694C911.989,494.244 919.436,488.383 919.013,478.293C927.305,477.928 933.749,475.631 934.414,467.292C939.139,465.93 941.861,461.992 943.214,456.292C948.56,452.545 948.428,448.022 945.414,443.091C951.095,437.378 951.498,431.666 946.621,425.953C940.467,425.935 933.859,426.061 926.338,426.482C922.035,428.212 917.366,429.706 911.788,430.521C907.288,431.178 902.192,431.393 896.211,430.916C896.211,430.916 896.211,430.916 896.21,430.916C892.908,430.651 889.756,431.343 886.708,432.437C881.56,434.285 876.694,437.248 871.957,439.423C871.518,439.624 871.039,439.725 870.555,439.717C870.555,439.717 870.555,439.717 870.554,439.717C856.034,439.46 841.758,439.619 827.774,440.277C813.258,440.96 799.058,442.181 785.229,444.036L784.98,444.049ZM754.847,443.988C755.362,443.973 755.879,443.96 756.396,443.948C759.494,443.995 762.617,443.95 765.766,443.808C769.777,443.786 773.842,443.812 777.96,443.89C782.328,455.853 783.822,467.823 783.466,479.795C783.429,481.017 783.373,482.238 783.3,483.459C775.634,482.334 767.113,482.487 759.337,484.721C759.442,483.149 759.52,481.576 759.569,480.003C759.944,468.001 758.643,455.998 754.847,443.988ZM393.905,346.396C399.134,357.225 401.728,370.37 404.612,383.221C420.916,386.844 435.277,394.561 446.555,408.792C455.156,419.644 461.974,434.338 466.381,454.042C472.769,457.101 478.142,461.285 480.983,468.286C481.201,468.825 481.405,469.381 481.592,469.955L482.071,470.207C482.155,470.22 482.247,470.265 482.347,470.348C482.285,470.292 482.217,470.242 482.145,470.196C482.304,470.297 482.462,470.397 482.62,470.495L489.79,474.266L490.375,474.534C490.875,474.795 491.345,475.097 491.83,475.361C497.365,478.374 502.912,479.72 508.479,479.566C517.042,479.33 525.612,475.578 534.251,469.101C534.251,469.101 534.252,469.101 534.252,469.1C534.796,468.693 535.455,468.467 536.136,468.455C543.156,468.333 550.177,469.135 557.198,470.767C563.698,472.279 570.199,474.504 576.713,477.36C584.017,478.434 591.001,478.711 597.734,478.361C605.053,477.98 612.075,476.858 618.897,475.207C625.445,472.914 631.286,470.327 636.669,467.635C652.323,459.807 664.22,451.134 678.092,445.963C684.686,443.505 691.45,441.925 698.287,440.997C705.046,440.08 711.876,439.799 718.678,439.935C726.431,439.184 734.332,438.585 742.402,438.168C744.201,437.776 746.017,437.423 747.849,437.11C752.753,427.956 754.684,418.997 754.46,410.174C754.31,404.222 753.187,398.333 751.341,392.488L725.402,392.488C700.76,389.384 678.183,384.083 657.199,377.087C643.417,365.578 626.368,361.147 606.596,362.617C581.329,364.494 549.333,375.546 518.591,394.688C512.521,394.845 502.306,390.928 499.705,378.805C496.63,364.478 489.604,346.267 477.587,325.647C477.164,325.526 476.74,325.408 476.316,325.293C470.961,323.835 465.64,322.824 460.294,323.235C451.941,324.117 444.82,325.158 438.687,326.42C433.332,327.522 428.74,328.789 424.718,330.115C417.325,332.552 411.927,335.322 407.298,338.129C403.34,340.53 399.998,343.064 396.431,345.407C395.908,345.75 395.459,346.345 394.83,346.387C394.429,346.413 394.133,346.415 393.905,346.396ZM482.544,470.546C482.691,470.752 482.436,471.408 482.117,472.056L482.764,472.511C482.817,472.41 482.861,472.303 482.894,472.191C483.064,471.607 482.922,470.991 482.544,470.546ZM787.796,388.107C788.839,393.759 789.483,399.396 789.67,404.994C790.021,415.492 788.673,425.876 785.066,436.102C787.105,436.316 789.162,436.572 791.236,436.872C803.067,435.456 815.156,434.478 827.469,433.883C841.349,433.213 855.514,433.029 869.925,433.25C874.612,431.034 879.439,428.18 884.521,426.352C888.432,424.945 892.488,424.126 896.726,424.464C896.726,424.464 896.726,424.464 896.727,424.464C902.151,424.898 906.772,424.714 910.854,424.119C916.068,423.36 920.395,421.931 924.392,420.3C924.724,420.164 925.076,420.085 925.434,420.065C925.435,420.065 925.436,420.065 925.437,420.064C933.17,419.65 939.949,419.533 946.255,419.569C949.614,413.298 949.972,407.131 941.014,401.289C943.186,394.972 942.758,389.501 936.614,385.888C936.876,379.501 933.84,375.398 925.613,374.887C923.339,368.6 919.059,364.786 912.413,363.886C907.553,352.952 898.335,353.887 888.211,357.286C863.532,347.231 844.895,359.319 826.608,372.687C811.777,373.817 799.02,379.337 787.796,388.107ZM781.879,392.488C782.856,399.071 783.305,405.605 782.996,412.094C782.619,419.991 781.157,427.815 778.245,435.54C773.329,435.248 768.522,435.209 763.819,435.415C761.081,435.535 758.379,435.738 755.712,436.022C759.716,427.216 761.317,418.554 761.106,410.007C760.961,404.118 759.948,398.281 758.26,392.488L781.879,392.488ZM391.32,341.614L391.315,341.523C391.307,341.387 391.245,341.428 391.303,341.304C391.452,340.985 391.86,340.876 392.139,340.665C394.28,339.051 396.373,337.44 398.598,335.875C403.277,332.584 408.488,329.465 415.541,326.597C421.307,324.252 428.35,322.162 437.426,320.295C443.739,318.996 451.046,317.773 459.642,316.772C459.673,316.769 459.705,316.766 459.736,316.763C465.016,316.319 470.319,316.943 475.599,318.245C473.284,308.505 469.445,301.985 462.531,300.083C454.548,297.887 449.249,294.901 446.723,291.282C440.734,282.703 428.335,281.628 417.385,280.282C417.385,280.282 405.27,276.58 402.718,271.481C400.33,266.71 387.003,259.243 384.383,260.481C379.059,250.96 356.365,247.34 342.581,248.413C328.716,249.492 314.999,255.634 301.424,266.559C305.312,267.886 309.199,269.504 313.087,271.541C316.762,273.466 320.437,275.765 324.103,278.544C334.99,280.833 342.774,284.995 348.914,290.126C356.311,296.308 361.278,303.936 366.398,311.479C367.207,312.668 367.126,314.249 366.2,315.35C366.2,315.35 366.2,315.35 366.2,315.351C364.588,317.263 362.928,319.176 361.17,321.089C360.977,321.298 360.783,321.507 360.589,321.718C372.58,323.483 380.859,328.506 386.874,335.46C388.521,337.364 389.993,339.424 391.32,341.614Z" style="fill:white;"/>
</svg>
