<?xml version="1.0" encoding="UTF-8" standalone="no"?>
<!DOCTYPE svg PUBLIC "-//W3C//DTD SVG 1.1//EN" "http://www.w3.org/Graphics/SVG/1.1/DTD/svg11.dtd">
<svg width="100%" height="100%" viewBox="0 0 1000 1000" version="1.1" xmlns="http://www.w3.org/2000/svg" xmlns:xlink="http://www.w3.org/1999/xlink" xml:space="preserve" xmlns:serif="http://www.serif.com/" style="fill-rule:evenodd;clip-rule:evenodd;stroke-linejoin:round;stroke-miterlimit:2;">
    <g transform="matrix(1.16883,0,0,1.16883,-84.4156,-84.4156)">
        <path d="M500,115C579.612,442.225 684.894,673.038 865.149,622.262C813.999,774.895 669.756,885 500,885C330.244,885 186.001,774.895 134.851,622.262C315.106,673.038 420.388,442.225 500,115ZM499.699,736.999C473.93,736.8 394.646,711.253 355.133,686C418.025,632.164 463.311,564.467 500,490L500.861,491.744C537.396,565.522 582.466,632.584 644.867,686C605.2,711.351 525.449,737 500,737L499.699,736.999ZM728.081,189.888C823.226,260.009 885,372.848 885,500C885,523.947 882.809,547.387 878.615,570.133C846.139,573.328 801.268,583.926 760.585,550C705.602,504.148 663.843,440.215 620,367.507C677.333,311.989 720.182,253.788 728.205,190.246L728.081,189.888ZM271.909,189.895L271.795,190.246C279.818,253.788 322.667,311.989 380,367.507C336.157,440.215 294.398,504.148 239.415,550C198.732,583.926 153.861,573.328 121.385,570.133C117.191,547.387 115,523.947 115,500C115,372.848 176.774,260.009 271.909,189.895Z" style="fill:white;"/>
    </g>
</svg>
