<?xml version="1.0" encoding="UTF-8" standalone="no"?>
<!DOCTYPE svg PUBLIC "-//W3C//DTD SVG 1.1//EN" "http://www.w3.org/Graphics/SVG/1.1/DTD/svg11.dtd">
<svg width="100%" height="100%" viewBox="0 0 1000 1000" version="1.1" xmlns="http://www.w3.org/2000/svg" xmlns:xlink="http://www.w3.org/1999/xlink" xml:space="preserve" xmlns:serif="http://www.serif.com/" style="fill-rule:evenodd;clip-rule:evenodd;stroke-linejoin:round;stroke-miterlimit:2;">
    <g transform="matrix(11.95,0,0,11.95,-7031.5,-8791.14)">
        <path d="M630.25,805.951C648.76,802.286 661.186,794.498 657.555,775.823L667.812,769.247C669.137,791.933 656.603,806.073 630.5,807.965L630.5,808L630.25,807.983L630,808L630,807.965C603.897,806.073 591.363,791.933 592.688,769.247L602.945,775.823C599.314,794.498 611.74,802.286 630.25,805.951ZM630.5,755C644.022,755 655,765.978 655,779.5C655,793.022 644.022,804 630.5,804C616.978,804 606,793.022 606,779.5C606,765.978 616.978,755 630.5,755ZM630.235,801.485C632.744,796.059 635.389,792.311 638.722,789.979C642.158,787.575 646.326,786.677 651.829,787C648.329,794.175 643.587,801.022 630.457,801.97L630.5,802.063C617.022,801.243 612.211,794.321 608.671,787.063C614.174,786.74 618.342,787.638 621.778,790.043C625.098,792.365 627.735,796.093 630.235,801.485ZM657.286,774.551C656.989,773.241 656.616,771.882 656.164,770.469L666.797,761.051C667.22,763.345 667.521,765.569 667.702,767.717L657.286,774.551ZM603.214,774.551C603.511,773.241 603.884,771.882 604.336,770.469L593.703,761.051C593.28,763.345 592.979,765.569 592.798,767.717L603.214,774.551ZM655.102,767.436C654.215,765.095 653.128,762.62 651.829,760L663,747C664.198,750.443 665.177,753.769 665.937,756.975L655.102,767.436ZM605.398,767.436C606.285,765.095 607.372,762.62 608.671,760L597.5,747C596.302,750.443 595.323,753.769 594.563,756.975L605.398,767.436Z" style="fill:white;"/>
    </g>
</svg>
