<?xml version="1.0" encoding="UTF-8" standalone="no"?>
<!DOCTYPE svg PUBLIC "-//W3C//DTD SVG 1.1//EN" "http://www.w3.org/Graphics/SVG/1.1/DTD/svg11.dtd">
<svg width="100%" height="100%" viewBox="0 0 1000 1000" version="1.1" xmlns="http://www.w3.org/2000/svg" xmlns:xlink="http://www.w3.org/1999/xlink" xml:space="preserve" xmlns:serif="http://www.serif.com/" style="fill-rule:evenodd;clip-rule:evenodd;stroke-linejoin:round;stroke-miterlimit:2;">
    <g transform="matrix(0.947868,0,0,0.947868,26.0662,26.0662)">
        <path d="M367.142,798.674L356.44,874.819C323.368,894.741 292.521,928.463 263.701,974.75L257.668,971.617L306.516,877.543C313.041,876.179 317.562,874.096 320.295,871.37C325.352,866.327 324.285,859.083 318.448,850.125L318.309,849.913C307.474,850.249 300.841,853.54 299.615,860.632C298.958,864.436 299.855,869.333 302.494,875.454L253.646,969.529L247.613,966.396C268.894,916.194 278.732,871.563 276.001,833.051L332.127,780.493L367.142,798.674ZM383.899,802.269L319.547,768.854L736.299,25.25L752.387,33.604L383.899,802.269Z" style="fill:white;"/>
    </g>
</svg>
