<?xml version="1.0" encoding="UTF-8" standalone="no"?>
<!DOCTYPE svg PUBLIC "-//W3C//DTD SVG 1.1//EN" "http://www.w3.org/Graphics/SVG/1.1/DTD/svg11.dtd">
<svg width="100%" height="100%" viewBox="0 0 1000 1000" version="1.1" xmlns="http://www.w3.org/2000/svg" xmlns:xlink="http://www.w3.org/1999/xlink" xml:space="preserve" xmlns:serif="http://www.serif.com/" style="fill-rule:evenodd;clip-rule:evenodd;stroke-linejoin:round;stroke-miterlimit:2;">
    <g transform="matrix(1.34078,0,0,1.34078,-209.819,-136.028)">
        <path d="M606.946,437.621C573.695,560.193 543.104,683.744 520,810C456.667,803.333 393.333,796.667 330,790C356.677,640.729 382.225,491.376 380,340C417.743,354.335 455.828,366.237 494.368,374.83C490,378.659 485.98,381.445 484.394,381.335C483.936,381.733 486.156,388.475 492.576,387.615C499.214,386.726 499.172,390.133 501.006,392.53C508.928,402.888 528.286,406.264 543.916,410.64C555.716,413.943 563.663,418.652 564.847,425.27C569.198,449.575 594.595,456.179 599.385,444.13C600.155,444.298 603.881,441.972 606.946,437.621ZM499.944,797.878C501.23,798.232 519.944,799.235 519.944,796.887C519.944,794.538 499.944,785.971 499.944,783.788C499.944,781.605 518.87,785.293 519.944,783.788C521.017,782.284 506.385,776.257 506.385,774.761C506.385,773.265 520.642,776.48 519.944,774.813C519.245,773.147 502.195,766.437 502.195,764.761C502.195,763.086 519.954,766.428 519.944,764.761C519.934,763.095 502.135,756.774 502.135,754.761C502.135,752.748 519.809,753.993 519.944,752.682C520.078,751.371 503.673,748.215 502.944,746.895C502.215,745.575 516.675,748.45 515.571,744.761C514.467,741.072 497.305,728.095 496.319,724.761C495.333,721.428 510.719,725.397 509.656,724.761C508.594,724.125 489.896,717.611 489.944,720.944C489.992,724.277 509.075,740.792 509.944,744.761C510.813,748.731 495.602,743.519 495.158,744.761C494.713,746.003 506.967,750.714 507.277,752.214C507.586,753.714 496.572,752.307 497.017,753.761C497.461,755.216 510.039,759.524 509.944,760.94C509.848,762.357 496.444,760.25 496.444,762.26C496.444,764.27 509.36,771.251 509.944,773.002C510.527,774.752 499.944,771.342 499.944,772.761C499.944,774.18 510.77,780.054 509.944,781.516C509.118,782.978 494.608,779.323 494.988,781.531C495.369,783.739 511.398,792.037 512.224,794.761C513.05,797.486 498.657,797.523 499.944,797.878ZM605,435C600.424,446.513 576.157,440.202 572,416.979C570.868,410.656 563.275,406.156 552,403C537.066,398.819 518.57,395.594 511,385.697C509.248,383.406 509.288,380.15 502.946,381C496.811,381.822 494.69,375.38 495.128,375C499.259,375.285 520.691,355.001 519,350C518.377,348.159 513.595,348.901 514,347C515.795,338.584 533.137,329.924 538,325C548.537,314.332 561.381,297.513 565,280C568.88,261.224 568.283,240.643 569,227C569.234,222.537 567.004,220.293 567,214C566.997,210.318 558.333,214.333 556,213C553.796,211.741 555.531,206.202 553,206C548.833,205.667 533.698,218.02 531,211C527.107,200.869 551.363,150.059 564,139C568.199,135.325 571.374,172.763 595,176C605.816,177.482 611.989,182.819 616,187C622.916,194.209 630.642,199.419 638.699,199C648.851,198.472 659.093,193.989 666.717,187C672.348,181.838 715.459,145.022 720,150C723.104,153.403 716.784,191.102 714.291,195.476C712.505,198.609 724.391,193.608 726.097,197.2C739.257,224.915 702.821,271.354 657.474,292.793C646.029,298.204 641.713,302.889 640,305.302C633.926,313.859 630.597,348.701 630,360C629.631,366.984 644.349,368.078 644.6,375.067C644.809,380.911 640.332,396.654 623.042,410C620.353,412.076 616.772,415.472 615.952,420C614.201,429.681 606.15,435.25 605,435ZM400,433.116C401.287,433.471 420,434.474 420,432.125C420,429.777 400,421.21 400,419.027C400,416.844 418.926,420.532 420,419.027C421.074,417.523 406.441,411.496 406.441,410C406.441,408.504 420.698,411.719 420,410.052C419.302,408.386 402.251,401.675 402.251,400C402.251,398.325 420.01,401.667 420,400C419.99,398.333 402.192,392.013 402.192,390C402.192,387.987 419.865,389.232 420,387.921C420.135,386.61 403.729,383.454 403,382.134C402.271,380.814 416.731,383.689 415.627,380C414.523,376.311 397.361,363.333 396.375,360C395.39,356.667 410.775,360.636 409.712,360C408.65,359.364 389.952,352.85 390,356.183C390.048,359.516 409.131,376.03 410,380C410.869,383.97 395.658,378.758 395.214,380C394.769,381.242 407.023,385.952 407.333,387.452C407.643,388.952 396.629,387.546 397.073,389C397.518,390.454 410.095,394.763 410,396.179C409.905,397.596 396.5,395.489 396.5,397.499C396.5,399.509 409.417,406.49 410,408.24C410.583,409.991 400,406.581 400,408C400,409.419 410.826,415.293 410,416.755C409.174,418.216 394.665,414.562 395.045,416.77C395.425,418.977 411.455,427.276 412.281,430C413.107,432.724 398.713,432.762 400,433.116ZM609,380C599.449,388.929 591.371,378.871 600,365C616.291,338.812 603.28,330.07 590,333.768C585.261,335.087 580.488,334.265 577,340C570.339,350.952 555.281,369.111 547,361C541.265,355.383 530.167,376.167 531,379C531.833,381.833 549.681,372.057 552,378C554.296,383.885 558.081,392.939 567,392C571.509,391.525 571.078,400.725 575,403C596.16,415.274 614.071,385.112 609,380ZM697.541,215C697.188,211.414 646.636,233.513 635,230C625.801,227.223 599.986,200.836 595,205C610.004,235.327 614.386,266.222 605,297.854C610.51,292.165 616.954,279.286 630.622,270C637.888,265.064 640.714,257.685 645,257.969C653.739,258.547 662.146,257.248 674.4,245C683.691,235.714 691.488,225.7 697.541,215Z" style="fill:white;"/>
    </g>
</svg>
