<?xml version="1.0" encoding="UTF-8" standalone="no"?>
<!DOCTYPE svg PUBLIC "-//W3C//DTD SVG 1.1//EN" "http://www.w3.org/Graphics/SVG/1.1/DTD/svg11.dtd">
<svg width="100%" height="100%" viewBox="0 0 1000 1000" version="1.1" xmlns="http://www.w3.org/2000/svg" xmlns:xlink="http://www.w3.org/1999/xlink" xml:space="preserve" xmlns:serif="http://www.serif.com/" style="fill-rule:evenodd;clip-rule:evenodd;stroke-linejoin:round;stroke-miterlimit:2;">
    <g transform="matrix(0.705362,0,0,0.705362,35.1459,238.236)">
        <path d="M773,210C775.538,203.248 773.706,197.408 765,193C771.486,186.05 780.687,180.486 792,176L800,180C811.887,177.385 821.926,173.284 830,168.057C839.566,161.864 845.34,151.454 848.903,140C852.537,128.319 846.279,117.384 830,107C819.585,102.893 809.677,102.99 800,105C784.08,104.686 777.175,112.317 776,125C770.752,128.803 769.199,133.736 772,140C753.616,172.685 729.978,186.329 700,177C686.868,164.734 671.609,155.236 650,154C629.842,141.845 609.988,128.763 592,110C584.673,102.051 576.211,96.676 567,93C544.019,80.932 521.79,67.393 500,53C498.648,27.983 492.722,16.472 475,18.039C463.064,19.095 450.318,30.128 468,53C470.774,62.318 468.232,66.467 463,68C423.126,57.083 383.759,51.067 345,49.536C265.697,46.404 194.435,58.288 135,87.55C76.787,116.211 42.926,145.385 27,180C21.084,195.503 18.195,208.915 25,212.061C49.273,223.282 72.472,223.285 74,214C65.808,212.192 62.784,208.652 65,204.361C74.035,186.866 90.468,174.286 105,173C107.879,196.85 134.039,197.348 175,183C153.784,170.958 148.179,160.623 151.611,150C161.701,118.762 187.057,104.031 220,88.605C291.456,55.144 360.75,61.634 436,84C411.157,116.071 389.274,146.388 426,142C434.511,147.594 444.16,152.604 455,157C466,169.838 477.879,178.055 490,185C502.33,212.627 531.635,244.963 564.87,265C575.726,271.545 571.601,282.971 560,284C555.942,289.775 546.629,293.686 530,295C454.189,304.618 400.147,316.869 365,332.427C260.357,378.747 255.103,408.392 325,424C312.374,413.942 313.135,405.57 314.481,395C318.08,366.734 336.613,344.52 370,336.333C410.52,326.397 465.213,323.368 529,324C515.462,346.09 502.401,366.202 490,384.226C477.407,402.53 462.582,412.302 450,415C435.34,418.252 433.668,427.242 436,438C428.77,439.952 418.212,435.496 404,424C369,417.451 339.377,428.07 323.243,450C301.809,479.131 296.029,514.144 318,535C288.586,554.994 272.836,588.149 263,627C269.339,632.284 276.13,636.918 284,640C279.255,646.818 274.141,653.332 268,659L279,673C276.454,682.558 272.598,691.614 267,700C277.448,721.626 291.842,730.283 312,720C301.132,718.411 302.404,697.319 320,650C334.998,641.549 341.923,631.221 345,620C350.833,603.504 357.554,590.856 367,590C377.595,592.147 388.689,602.323 400,616C411.307,630.853 428.838,635.156 449,635C441.701,652.364 436.228,669.462 430.761,685C427.261,694.948 416.08,701.502 405,708C418.333,710.258 431.667,708.052 445,701C451.26,687.056 458.686,674.017 470,664L474,685L479,682L484,650C477.475,643.732 471.947,636.931 476,625C486.275,611.393 493.474,598.607 500,586C519.093,580.658 542.652,581.294 570,587C600.713,618.37 632.383,636.199 665,641.946C717.261,651.154 761.71,638.534 800,610C807.323,596.487 815.962,584.701 830,580C835.832,585.39 839.909,592.703 844,600L850,597L850,600C842.459,607.522 842.096,613.999 845,620C847.993,623.469 847.115,626.762 845,630C850.759,634.717 857.16,637.887 864,640C874.138,632.873 879.917,640.023 883,656C896.829,662.806 913.899,665.764 940,658C946.681,654.53 945.925,651.192 937,648C924.819,646.361 913.517,637.093 903,621L886,604C880.891,600.894 878.173,596.587 880,590L869,579L878,568C892.972,575.984 913.915,545.947 935,515C950.545,522.723 961.375,528.044 970,532C974.653,530.435 978.712,528.171 982,525C1004.31,540.111 1021.03,555.497 1024,570C1042.86,593.082 1048.3,612.445 1040,628C1066.89,632.05 1079.78,625.25 1065,597L1053,580L1050,560C1045.33,559.138 1040.13,557.483 1033,553C1032.6,548.484 1029.31,544.148 1023,540C1016.2,527.786 1008.02,517.507 1000,507C1014.42,495.612 1028.05,482.7 1033,453C1030.02,449.876 1025.24,447.159 1018,445C1049.93,406.509 1056.07,368.169 1033,330C1046.27,276.002 1003.01,245.568 960,245.849C908.501,246.186 878.925,292.327 920,340C888.344,354.179 855.583,367.36 820,378C798.494,367.949 777.171,356.184 756,343C752.176,320.308 733.109,302.777 700,290C697.543,285.394 697.031,279.372 697,273C704.259,268.196 711.612,263.5 720,260L736,260C743.121,255.75 750.771,251.65 760,248C761.214,243.776 763.814,239.83 767,236C768.009,231.889 767.429,227.909 766,224C803.201,223.587 828.449,220.239 846,215C909.79,198.008 956.21,178.33 1000,162.721C1126.35,117.681 1228.19,111.48 1297,165C1296.62,149.61 1284.29,126.528 1220,70C1201.17,70.856 1190.88,60.494 1186,43C1176.07,32.713 1151.32,30.055 1117.75,48.411C1064.13,77.732 1008.08,133.96 920,185C867.356,203.766 818.951,210.395 773,210ZM516,384C503.547,397.086 490.001,409.194 475,420C463.338,433.035 461.585,448.727 462,465C492.148,438.918 506.927,411.675 516,384ZM640,304C633.578,308.433 627.287,318.623 621,329L633,338C633.234,329.32 635.785,317.712 640,304ZM677,200L625,197L625,205C599.269,198.72 573.442,193.061 550,172C542.721,172.529 539.933,167.903 540,160C537.995,162.081 535.623,161.464 533,159C532.069,152.454 531.075,146.102 530,140L540,126C535.483,121.168 530.539,114.419 525,105C534.982,107.787 544.988,111.303 555,115C562.104,122.608 570.153,128.723 580,132C604.491,154.063 629.369,175.683 665,185C671.148,189.818 675.829,194.761 677,200Z" style="fill:white;"/>
    </g>
</svg>
