<?xml version="1.0" encoding="UTF-8" standalone="no"?>
<!DOCTYPE svg PUBLIC "-//W3C//DTD SVG 1.1//EN" "http://www.w3.org/Graphics/SVG/1.1/DTD/svg11.dtd">
<svg width="100%" height="100%" viewBox="0 0 1000 1000" version="1.1" xmlns="http://www.w3.org/2000/svg" xmlns:xlink="http://www.w3.org/1999/xlink" xml:space="preserve" xmlns:serif="http://www.serif.com/" style="fill-rule:evenodd;clip-rule:evenodd;stroke-linejoin:round;stroke-miterlimit:2;">
    <g transform="matrix(5.32271,0,0,5.32271,-1804.73,-2275.56)">
        <path d="M429.157,583.279C432.455,583.993 435.708,584.002 438.924,583.441C441.485,584.745 443.409,586.451 444,589C462.816,600.448 456.1,605.33 433,606L433,605.808C411.526,604.915 405.739,599.988 424,588.878C424.597,586.303 426.555,584.587 429.157,583.279ZM427.256,574.151C431.988,574.674 436.492,574.664 440.784,574.158C440.568,574.785 440.309,575.399 440,576C444.079,578.107 443.582,580.214 439.455,582.321C435.764,582.991 432.05,582.966 428.306,582.075C424.4,580.009 424.002,577.944 428,575.878C427.71,575.315 427.464,574.738 427.256,574.151ZM426.688,572.078C426.047,568.895 426.338,565.44 427,561.878C421.958,560.387 423.184,558.139 427.91,555.47C432.066,556.361 436.081,556.36 439.964,555.521C444.794,558.221 446.087,560.495 441,562C441.654,565.516 441.945,568.927 441.337,572.075C436.543,572.597 431.662,572.616 426.688,572.078ZM428.755,549.73C428.586,541.447 429.552,533.466 432,525.878L432,502L436,502L436,526C438.441,533.566 439.409,541.523 439.247,549.781C435.882,550.519 432.386,550.509 428.755,549.73ZM432.168,499.024C414.713,499.501 397.828,498.3 382,494L407,442C415.824,435.094 451.401,435.343 459,442L484,494C467.921,498.368 432.168,499.024 432.168,499.024Z" style="fill:white;"/>
    </g>
</svg>
