<?xml version="1.0" encoding="UTF-8" standalone="no"?>
<!DOCTYPE svg PUBLIC "-//W3C//DTD SVG 1.1//EN" "http://www.w3.org/Graphics/SVG/1.1/DTD/svg11.dtd">
<svg width="100%" height="100%" viewBox="0 0 1000 1000" version="1.1" xmlns="http://www.w3.org/2000/svg" xmlns:xlink="http://www.w3.org/1999/xlink" xml:space="preserve" xmlns:serif="http://www.serif.com/" style="fill-rule:evenodd;clip-rule:evenodd;stroke-linejoin:round;stroke-miterlimit:2;">
    <g transform="matrix(3.23192,0,0,3.23192,18.9549,-1029.46)">
        <path d="M190,379L196,373C194.791,358.201 195.1,344.638 199,334L187,338L171,372L175,379C175,379 167.332,455.92 163,464C158.668,472.08 127.167,467.833 123,476C118.833,484.167 141.326,504.457 138,513C134.286,522.54 67.306,605.313 73,612C78.423,618.368 156.636,558.251 165,558.251C173.39,558.251 200.067,589.933 206,584C211.933,578.067 187.831,522.308 189,514C190.265,505.015 226.154,458 225,449C223.846,440 186.136,468.116 182.078,460C178.02,451.884 190,379 190,379ZM121.613,559.767C121.7,559.639 121.845,559.562 122,559.562C122.155,559.562 122.3,559.639 122.387,559.767L124.127,562.33C124.157,562.375 124.195,562.413 124.238,562.445C124.281,562.476 124.329,562.499 124.381,562.514L127.357,563.378C127.505,563.421 127.623,563.535 127.671,563.682C127.719,563.829 127.69,563.991 127.596,564.113L125.695,566.561C125.663,566.603 125.638,566.651 125.621,566.701C125.605,566.752 125.597,566.805 125.599,566.859L125.697,569.956C125.702,570.111 125.63,570.258 125.505,570.349C125.38,570.44 125.217,570.463 125.072,570.41L122.156,569.36C122.106,569.341 122.053,569.332 122,569.332C121.947,569.332 121.894,569.341 121.844,569.36L118.928,570.41C118.783,570.463 118.62,570.44 118.495,570.349C118.37,570.258 118.298,570.111 118.303,569.956L118.401,566.859C118.403,566.805 118.395,566.752 118.379,566.701C118.362,566.651 118.337,566.603 118.305,566.561L116.404,564.113C116.31,563.991 116.281,563.829 116.329,563.682C116.377,563.535 116.495,563.421 116.643,563.378L119.619,562.514C119.671,562.499 119.719,562.476 119.762,562.445C119.805,562.413 119.843,562.375 119.873,562.33L121.613,559.767ZM141.153,534.392C141.32,534.147 141.597,534 141.893,534C142.189,534 142.466,534.147 142.632,534.392L145.963,539.296C146.02,539.381 146.092,539.454 146.174,539.514C146.257,539.574 146.349,539.62 146.447,539.648L152.141,541.3C152.425,541.382 152.65,541.601 152.742,541.882C152.833,542.164 152.779,542.473 152.598,542.706L148.962,547.39C148.9,547.47 148.852,547.561 148.82,547.658C148.789,547.755 148.774,547.857 148.777,547.959L148.966,553.884C148.975,554.18 148.837,554.462 148.598,554.636C148.358,554.81 148.048,554.854 147.769,554.754L142.192,552.743C142.096,552.709 141.995,552.691 141.893,552.691C141.791,552.691 141.689,552.709 141.593,552.743L136.016,554.754C135.738,554.854 135.427,554.81 135.188,554.636C134.948,554.462 134.81,554.18 134.82,553.884L135.008,547.959C135.011,547.857 134.997,547.755 134.965,547.658C134.934,547.561 134.886,547.47 134.823,547.39L131.188,542.706C131.006,542.473 130.952,542.164 131.044,541.882C131.135,541.601 131.36,541.382 131.645,541.3L137.338,539.648C137.436,539.62 137.529,539.574 137.611,539.514C137.694,539.454 137.765,539.381 137.823,539.296L141.153,534.392ZM198.304,463.798C198.423,463.622 198.622,463.517 198.835,463.517C199.048,463.517 199.248,463.622 199.367,463.798L201.763,467.326C201.804,467.387 201.856,467.44 201.915,467.483C201.975,467.526 202.041,467.559 202.111,467.579L206.207,468.768C206.412,468.827 206.574,468.984 206.639,469.186C206.705,469.389 206.666,469.611 206.536,469.779L203.921,473.148C203.876,473.206 203.841,473.271 203.819,473.341C203.796,473.411 203.786,473.484 203.788,473.558L203.923,477.82C203.93,478.033 203.831,478.235 203.659,478.361C203.486,478.486 203.263,478.518 203.063,478.445L199.051,476.999C198.982,476.974 198.909,476.962 198.835,476.962C198.762,476.962 198.689,476.974 198.62,476.999L194.608,478.445C194.408,478.518 194.185,478.486 194.012,478.361C193.84,478.235 193.741,478.033 193.748,477.82L193.883,473.558C193.885,473.484 193.875,473.411 193.852,473.341C193.83,473.271 193.795,473.206 193.75,473.148L191.135,469.779C191.004,469.611 190.966,469.389 191.031,469.186C191.097,468.984 191.259,468.827 191.464,468.768L195.559,467.579C195.63,467.559 195.696,467.526 195.756,467.483C195.815,467.44 195.867,467.387 195.908,467.326L198.304,463.798Z" style="fill:white;"/>
    </g>
</svg>
