<?xml version="1.0" encoding="UTF-8" standalone="no"?>
<!DOCTYPE svg PUBLIC "-//W3C//DTD SVG 1.1//EN" "http://www.w3.org/Graphics/SVG/1.1/DTD/svg11.dtd">
<svg width="100%" height="100%" viewBox="0 0 1000 1000" version="1.1" xmlns="http://www.w3.org/2000/svg" xmlns:xlink="http://www.w3.org/1999/xlink" xml:space="preserve" xmlns:serif="http://www.serif.com/" style="fill-rule:evenodd;clip-rule:evenodd;stroke-linejoin:round;stroke-miterlimit:2;">
    <g transform="matrix(2.73097,0,0,2.73097,-335.66,-1184.75)">
        <path d="M336.082,604.059C323.265,662.776 273.801,696.911 187.739,708.445C171.39,715.079 156.106,722.123 141.218,729.32C156.476,717.448 172.322,706.412 189.191,696.831C249.952,679.399 303.381,655.915 315.425,598.271L327.602,584.209L338.933,584.425C338.817,585.919 338.68,587.399 338.524,588.857L338.977,587.975C339.715,592.533 339.965,597.362 338.124,603.348L336.082,604.059ZM330.463,637.196C350.752,640.564 372.864,637.331 395.771,631.22C386.065,620.784 380.721,609.354 379.738,596.927C373.205,595.326 369.102,592.144 367.319,587.453C364.925,577.911 367.498,571.449 372.841,566.704C361.117,563.124 350.885,569.578 341.696,583.044C342.594,601.027 338.731,619.079 330.463,637.196ZM337.386,635.066C346.469,636.113 356.018,635.923 365.855,634.97C357.121,617.33 352.509,598.566 352.95,578.424L344.313,585.524C344.449,602.79 342.466,619.404 337.386,635.066ZM374.407,631.993L383.182,629.99C374.865,621.399 370.731,611.73 369.459,601.325C364.833,600.188 362.637,596.448 361.162,591.936C361.74,606.761 364.475,620.758 374.407,631.993ZM389.408,620.224C388.701,619.161 388.029,618.082 387.393,616.985C397.653,616.472 407.939,614.622 418.226,612.76C423.717,611.92 446.223,620.795 448.555,624.301C440.063,632.348 412.546,629.93 396.301,629.047C393.92,626.389 391.726,623.641 389.779,620.775C389.996,620.79 390.293,620.818 390.876,620.89C392.488,621.089 394.098,621.282 395.712,621.467C397.259,621.643 398.807,621.813 400.357,621.972C402.68,622.21 405.006,622.425 407.332,622.656C410.947,623.015 414.563,623.381 418.18,623.77C423.599,624.353 429.018,624.968 434.437,625.635C434.53,625.648 434.616,625.583 434.629,625.49C434.642,625.397 434.577,625.311 434.484,625.298C428.7,624.389 422.919,623.515 417.129,622.729C413.262,622.203 409.394,621.707 405.521,621.268C403.582,621.048 401.644,620.835 399.702,620.659C398.407,620.542 397.11,620.442 395.813,620.355C394.19,620.245 392.568,620.155 390.943,620.085C389.944,620.042 389.77,620.147 389.408,620.224ZM383.89,606.128L383.246,603.307C391.561,600.966 399.862,598.383 408.149,595.572C424.334,593.943 435.195,597.583 444.634,602.63C425.418,609.035 405.843,613.145 385.916,615.006L384.007,606.642C384.839,606.561 385.671,606.482 386.504,606.401C387.507,606.304 388.508,606.207 389.512,606.106C391.181,605.938 392.849,605.77 394.52,605.599C395.771,605.47 397.022,605.337 398.274,605.202C399.524,605.068 400.774,604.929 402.026,604.794C405.774,604.389 409.53,604.014 413.296,603.672C420.245,603.043 427.221,602.514 434.225,602.1C434.319,602.096 434.391,602.017 434.387,601.923C434.383,601.829 434.304,601.757 434.21,601.761C427.893,601.94 421.595,602.186 415.318,602.565C411.114,602.819 406.921,603.121 402.741,603.505C400.646,603.697 398.553,603.903 396.467,604.151C395.074,604.317 393.684,604.503 392.298,604.704C390.561,604.957 388.832,605.232 387.105,605.533C386.03,605.72 384.959,605.921 383.89,606.128ZM376.188,593.255L371.134,590.685C397.034,574.691 417.385,572.68 434.879,577.865C421.501,587.748 404.576,595.803 382.801,601.357L381.577,595.995L376.803,593.568C377.876,593.266 378.948,592.967 380.02,592.661C381.691,592.183 383.358,591.702 385.025,591.213C386.624,590.743 388.22,590.267 389.814,589.782C392.206,589.054 394.591,588.305 396.979,587.573C400.699,586.433 404.42,585.302 408.146,584.193C413.742,582.528 419.343,580.895 424.956,579.301C425.047,579.277 425.101,579.184 425.077,579.093C425.052,579.002 424.959,578.948 424.869,578.973C418.801,580.492 412.74,582.033 406.696,583.662C402.669,584.747 398.648,585.86 394.642,587.032C392.64,587.618 390.64,588.211 388.65,588.841C387.324,589.261 386.004,589.698 384.687,590.148C383.041,590.711 381.403,591.291 379.77,591.893C378.57,592.335 377.379,592.793 376.188,593.255ZM376.577,567.297L375.721,567.988C367.026,575.579 366.702,581.854 374.366,586.871L382.719,580.807C382.439,580.504 382.176,580.196 381.918,579.881C381.651,579.556 381.394,579.227 381.152,578.89C380.759,578.34 380.399,577.775 380.063,577.205C379.546,576.326 379.095,575.428 378.688,574.525C378.271,573.598 377.909,572.662 377.602,571.716C377.13,570.262 376.788,568.79 376.577,567.297ZM377.049,566.916C377.449,568.754 378.056,570.542 378.838,572.296C379.398,573.551 380.052,574.782 380.784,576.005C381.022,576.401 381.268,576.796 381.516,577.194C381.76,577.587 382.006,577.983 382.257,578.38L383.448,580.278L437.721,540.879C444.831,537.175 448.703,534.211 451.304,531.536C450.515,530.826 449.787,530.097 449.114,529.363C447.81,527.939 446.718,526.482 445.797,525.031C444.759,523.397 443.947,521.765 443.333,520.164C442.552,518.127 442.089,516.143 441.888,514.271C432.828,518.882 422.962,527.228 412.511,538.282L377.049,566.916ZM442.496,513.966C442.834,516.318 443.608,518.841 444.926,521.409C445.986,523.476 447.401,525.568 449.221,527.637C449.764,528.253 450.343,528.866 450.952,529.483C451.335,529.869 451.729,530.255 452.138,530.642C452.325,530.433 452.505,530.226 452.679,530.02C461.672,527.853 466.551,524.916 468.141,521.362C469.792,518.25 469.998,515.468 469.285,512.895C471.526,510.579 470.779,508.761 469.971,507.61C469.45,506.868 467.845,506.606 466,507.491C463.856,506.236 461.696,505.826 459.483,505.901C459.532,504.744 458.375,504.232 456.114,504.619C450.323,506.329 446.293,509.788 442.825,513.806C442.715,513.859 442.605,513.913 442.496,513.966Z" style="fill:white;"/>
    </g>
</svg>
