<?xml version="1.0" encoding="UTF-8" standalone="no"?>
<!DOCTYPE svg PUBLIC "-//W3C//DTD SVG 1.1//EN" "http://www.w3.org/Graphics/SVG/1.1/DTD/svg11.dtd">
<svg width="100%" height="100%" viewBox="0 0 1000 1000" version="1.1" xmlns="http://www.w3.org/2000/svg" xmlns:xlink="http://www.w3.org/1999/xlink" xml:space="preserve" xmlns:serif="http://www.serif.com/" style="fill-rule:evenodd;clip-rule:evenodd;stroke-linejoin:round;stroke-miterlimit:2;">
    <g transform="matrix(0.955286,0,0,0.955286,38.1447,18.7842)">
        <path d="M904.696,835.127C926.668,841.195 935.256,889.039 913.328,900.266C888.826,912.81 846.238,897.938 779.6,908.451C779.6,908.451 644.933,952.926 574.918,958.34C502.858,963.913 482.725,943.156 347.243,941.885C335.006,923.746 82.718,951.167 48.684,973.879C38.25,980.842 38.705,946.478 47.316,936.274C58.853,922.602 78.83,901.701 105.208,896.009C147.736,886.832 218.523,883.462 291.151,882.921C373.905,890.519 448.39,891.74 522.007,892.294C635.628,894.43 702.773,878.852 744.974,853.766C789.393,840.427 876.637,827.377 904.696,835.127ZM419.704,153.926C411.063,147.658 393.684,134.149 380.922,129.679C352.637,119.772 324.785,142.045 303.521,157.489C295.276,163.478 283.193,173.703 282.729,183.884C282.013,199.623 296.03,225.432 299.223,251.926C300.684,264.052 301.002,276.288 301.721,288.48C302.376,299.556 300.933,321.624 306.774,334.58C312.132,346.465 323.407,355.069 333.368,362.81C330.328,376.481 313.604,377.673 302.47,376.809C294.223,376.169 281.125,373.43 273.58,370.631C261.283,366.068 233.518,344.299 220.435,362.711C203.046,387.184 195.951,419.684 190.498,448.639C186.824,468.149 230.401,504.446 210.923,508.113C199.719,510.222 192.542,522.24 185.114,539.351C183.093,544.006 201.148,510.39 167.924,632.161C164.293,645.468 166.917,659.733 166.815,673.526C166.785,677.577 166.991,681.643 167.528,685.659C167.76,687.392 167.565,689.836 169.106,690.661C169.106,690.661 244.867,710.428 283.111,707.054C331.969,702.745 462.255,664.805 462.255,664.805C489.209,661.912 477.872,712.861 474.068,761.575C474.068,761.575 366.493,776.302 345.704,791.108C329.796,802.438 338.253,841.888 356.563,848.684C376.903,856.232 467.742,836.398 467.742,836.398C467.742,836.398 487.909,855.276 500,853.669C513.584,851.863 549.247,825.561 549.247,825.561L542.897,817.235L558.348,812.101L595.793,807.799C595.793,807.799 625.918,785.003 622.917,773.268C619.916,761.532 591.891,746.213 576.973,739.784C563.546,733.999 533.409,734.698 533.409,734.698L541.357,699.942C541.357,699.942 620.681,655.416 642.773,639.491C655.46,630.347 677.508,614.41 673.909,604.396C670.31,594.383 639.043,582.094 621.178,579.409C603.314,576.723 566.722,588.285 566.722,588.285C566.722,588.285 559.734,555.179 546.176,551.367C538.847,549.305 524.742,536.749 508.69,538.731C487.099,541.396 463.596,559.282 463.596,559.282L447.563,593.13C382.081,618.647 324.481,635.848 275.384,644.076L273.097,614.348C300.092,581.456 296.104,541.8 282.303,500C302.619,495.274 320.765,495.73 337.313,500C329.439,515.769 321.994,532.237 317.134,552.91L311.159,609.717C320.975,580.775 333.216,551.949 355.401,523.598C380.13,513.776 402.587,508.897 422.132,510.345L655.899,524.793C679.319,526.604 689.619,513.149 692.762,491.365C688.968,481.97 682.457,475.219 668.377,475.833C671.713,467.893 672.709,456.882 668.168,438.606C692.774,443.441 717.38,441.308 741.985,435.219L702.159,415.575C702.159,415.575 740.937,353.927 744.597,321.166C748.256,288.404 724.115,219.007 724.115,219.007C721.524,206.408 691.52,105.483 650.815,48.757C635.422,27.305 598.487,31.441 563.912,37.746C513.959,76.267 465.845,114.988 419.704,153.926ZM517.193,151.331L455.484,174.886L455.484,209.049C443.661,225.219 442.252,243.102 445.958,261.825C479.952,256.182 509.597,255.399 531.764,262.971C548.359,268.042 556.132,277.624 558.243,290.102C550.034,295.161 556.636,300.587 548.435,305.655C532.419,315.552 511.116,321.942 491.266,331.827C473.752,340.549 457.621,352.751 443.682,361.676C448.505,386.298 441.358,406.794 424.291,423.871L435.633,443.221C477.058,434.924 517.37,422.302 556.312,404.367C582.934,368.863 605.923,323.995 619.723,255.446C619.723,255.446 607.365,186.435 602.654,172.632C601.448,169.1 591.2,168.909 591.456,172.632C592.139,182.561 607.527,221.373 606.754,232.201C606.263,239.068 586.816,237.596 586.816,237.596C572.948,215.274 561.707,189.164 553.535,158.628L521.852,170.356L517.193,151.331Z" style="fill:white;"/>
    </g>
</svg>
