<?xml version="1.0" encoding="UTF-8" standalone="no"?>
<!DOCTYPE svg PUBLIC "-//W3C//DTD SVG 1.1//EN" "http://www.w3.org/Graphics/SVG/1.1/DTD/svg11.dtd">
<svg width="100%" height="100%" viewBox="0 0 1000 1000" version="1.1" xmlns="http://www.w3.org/2000/svg" xmlns:xlink="http://www.w3.org/1999/xlink" xml:space="preserve" xmlns:serif="http://www.serif.com/" style="fill-rule:evenodd;clip-rule:evenodd;stroke-linejoin:round;stroke-miterlimit:2;">
    <g transform="matrix(2.76074,0,0,2.76074,-902.454,-745.703)">
        <path d="M645,602L634,607L590,607L590,400L594.379,400L594.379,422C598.269,424.531 601.748,427.143 604,430L619,430C622.52,428.927 625.404,427.128 628,425L628,407L636,404L637,432L643,437C642.871,443.662 642.781,450.329 642.725,457C642.666,463.995 642.646,470.996 642.657,478C642.671,486.994 641.893,495.994 642,505C642.206,522.318 642.958,539.65 643.449,557C643.874,571.996 644.135,586.999 645,602ZM402.207,499.764L396.941,499.764L396.941,511.178L389.075,507.802L389.075,501.933L380.164,501.933C380.008,496.17 379.851,490.408 379.695,484.646L383.381,475.521L388.552,475.521L388.552,432.413C388.358,425.823 388.388,419.451 388.552,413.208C391.143,412.584 393.578,411.949 395.906,411.307L395.997,415.633C400.494,416.839 404.995,418.038 409.89,418.428C410.473,420.683 410.35,422.828 409.374,424.841C414.227,425.973 419.1,425.722 423.981,424.841C423.335,418.653 426.541,413.32 432.723,410.065L438.026,398.609L440.762,398.609L440.762,419.895C440.331,422.674 439.318,425.163 437.198,427.101L437.198,430.989L424.905,445.283C419.882,444.333 413.956,443.505 407.793,442.708L407.793,471.359C412.181,471.356 416.486,471.612 420.756,471.972L422.438,472.522L421.787,499.764L416.924,499.764L416.924,530L424,530C425.336,516.975 423.759,502.364 425.45,489C426.4,481.489 426.683,473.877 425.065,466C424.253,462.044 424.482,458.078 424,454.363L440,433.334L440,470C443.291,477.868 449.018,481.061 456.964,480C463.14,481.674 469.584,482.812 477,482L477,425.156L480,425C481.699,426.526 482.699,426.192 483,424L490,425.5C493.988,427.359 498.216,429.208 504,431C510.101,431.844 515.594,431.973 521,432L522,430L534,430L535,432L549.68,432.79L549.68,438L544.114,438L544.114,472L550,472L551,499L546.299,499L546.299,529L552,529L554,553L545.065,553L545.065,585L554,585L555,607L356,607L356,550.982L350,550L345,535C349.351,534.258 354.385,534.297 360,535L360,505C362.844,509.616 365.865,514.099 367,520L365,530L385,530L387.901,527.099L395,530L402.207,530L402.207,499.764ZM587,607L586.845,398C581.896,398.093 576.948,398.742 572,400C569.28,405.42 567.033,404.623 565,401C559.671,401.965 554.542,403.154 550,405C549.548,412.151 549.601,419.506 550,427L555,424L559,607L587,607ZM649.095,559L649.095,585L648,600L670,594L670,585L662.545,585L662.545,558.613C662.697,558.729 662.848,558.858 663,559L671,559C670.08,552.333 669.944,545.667 670,539C668.821,537 667.821,535 667,533L662.545,533L662.545,496L668,496C667.312,494.315 666.712,492.65 666.176,491C664.856,486.941 663.921,482.971 663,479C661.581,478.196 660.554,476.897 660,475L651.804,475L651.804,444L662,444C659.141,442.186 656.213,440.445 653,439L646.674,438.452L646.674,444L649.095,444L649.095,475L647,475L646,496L649.095,496L649.095,533L646,533L646.674,559L649.095,559ZM623,552C623.538,567.333 625.208,582.667 626,598L599,598L599,552L623,552ZM515.15,552.258L515.15,586L516,586C518.822,587.503 521.078,587.265 523,586L523,556L519,556C517.722,554.203 516.439,552.862 515.15,552.258ZM448.057,551.314L437,552L437,587L448.057,586.724L448.057,551.314ZM450.765,551.146L450.765,586.656L477,586C474.699,583.713 473.744,579.254 477,568L477,554C476.104,552.036 474.682,550.646 472.78,549.78L450.765,551.146ZM499.988,556L499.988,586L512.442,586L512.442,552.168C511.302,552.662 510.155,553.876 509,556L499.988,556ZM497.28,586L497.28,556L490,556C491.452,559.701 491.808,563.125 490,566L490,586L497.28,586ZM388,550L367,550L367,585.202L388,585L388,550ZM404.599,551.883L404.599,585.202L397.343,585.202L397.343,550C399.878,552.022 402.293,552.601 404.599,551.883ZM412.461,550L417.109,585.202L407.308,585.202L407.308,550.416C407.477,550.285 407.646,550.146 407.814,550L412.461,550ZM415.192,550L423.948,550L423.948,565.057C426.079,566.944 426.079,568.591 423.948,570L423.948,585.202L419.841,585.202L415.192,550ZM542.357,585L536,585L536,553L542.357,553L542.357,585ZM659.837,557.786C658.891,557.885 657.946,558.341 657,559L651.804,559L651.804,585L659.837,585L659.837,557.786ZM651.804,496L651.804,533L659.837,533L659.837,496L651.804,496ZM511.804,499L493,499C492.14,501.437 490.798,503.451 488.926,505L488.926,530L497.213,530L497.213,504.129C497.213,503.382 497.819,502.775 498.567,502.775C499.314,502.775 499.921,503.382 499.921,504.129L499.921,530L511.804,530L511.804,499ZM514.512,499L514.512,530L523,530L523,499L514.512,499ZM404.915,499.764L404.915,530L414.216,530L414.216,499.764L404.915,499.764ZM466.303,497.363L466.303,529L470,529C472.067,529.833 474.428,529.746 477,529L476.396,496.455L466.303,497.363ZM543.59,529L536,529L535,499L543.59,499L543.59,529ZM463.595,497.607L451.491,498.696L451.491,529L463.595,529L463.595,497.607ZM448.783,529L448.783,498.94L437,500L437,529L448.783,529ZM604.935,491L596,491L596,520L604.935,520L604.935,491ZM607.644,491L607.644,520L613.822,520L613.822,491L607.644,491ZM616.53,491L616.53,519.888C619.621,519.616 622.498,519.057 625,518L625.145,492L622,491L616.53,491ZM541.405,472L534,472L534,438L541.405,438L541.405,472ZM405.084,442.361L405.084,471.395C402.626,471.459 400.136,471.614 397.609,471.885L397.469,441.4C400.001,441.722 402.555,442.04 405.084,442.361ZM617.662,471.409C620.182,471.33 622.631,471.195 625,471L625.145,437.286C620.695,436.764 616.319,436.807 612,437.286L605.786,437.286L605.786,471.421C608.925,471.502 611.985,471.523 614.954,471.474L614.954,445.149C614.954,444.401 615.56,443.794 616.308,443.794C617.055,443.794 617.662,444.401 617.662,445.149L617.662,471.409ZM603.078,437.286L596,437.286L596,471C598.396,471.141 600.757,471.254 603.078,471.338L603.078,437.286ZM497.444,438.513L491,439L491,445C488.916,446.451 487.628,447.974 491,450L491,470L497.444,470L497.444,438.513ZM500.153,438.309L500.153,470L509.125,470L509.125,437.632L500.153,438.309ZM511.833,437.427L511.833,470L522,470L522.051,436.656L511.833,437.427ZM493.594,355.081C492.731,355.377 491.866,355.684 491,356L492,349L491,342C491.277,341.86 491.553,341.72 491.832,341.581C493.301,308.199 523.558,295.963 539.517,295.466C555.867,294.956 585.273,302.741 588.991,338.435C590.173,338.938 591.354,339.459 592.536,340L590.414,349L589,348L589,349.378C589.035,349.498 589.054,349.625 589.054,349.756L589.054,391.391C589.417,391.577 589.776,391.762 590.136,391.95L589.691,394.617C575.231,396.857 560.858,398.82 546.15,401.853C545.972,410.054 546.088,417.966 546.379,425.707L537.302,427.184L520.381,426.183C516.89,426.892 512.602,427.173 507.925,427.182L491.11,420.24L491.11,389.508C491.937,389.176 492.765,388.848 493.594,388.527L493.594,355.081ZM583.391,353.487C584.374,353.739 585.36,353.999 586.346,354.266L586.346,390.043C585.356,389.564 584.371,389.103 583.391,388.658L583.391,353.487ZM503.87,351.982L503.87,384.871C501.331,385.685 498.81,386.564 496.302,387.497L496.302,354.18C498.827,353.368 501.349,352.637 503.87,351.982ZM572.795,351.053C575.427,351.585 578.056,352.172 580.683,352.811L580.683,387.468C578.023,386.335 575.395,385.326 572.795,384.433L572.795,351.053ZM512.492,350.035L512.492,382.386C510.509,382.89 508.538,383.439 506.578,384.029L506.578,351.307C508.551,350.837 510.522,350.414 512.492,350.035ZM563.378,349.39C565.616,349.726 567.852,350.105 570.087,350.525L570.087,383.541C567.83,382.829 565.593,382.204 563.378,381.662L563.378,349.39ZM522.2,348.525L522.2,380.321C519.85,380.72 517.517,381.192 515.201,381.728L515.201,349.542C517.536,349.141 519.869,348.803 522.2,348.525ZM553.103,348.156C555.627,348.381 558.15,348.665 560.67,349.005L560.67,381.038C558.119,380.486 555.598,380.044 553.103,379.702L553.103,348.156ZM532.064,347.699L532.064,379.098C529.66,379.282 527.274,379.55 524.908,379.894L524.908,348.229C527.296,347.991 529.681,347.815 532.064,347.699ZM544.48,347.619C546.452,347.687 548.424,347.794 550.394,347.937L550.394,379.369C548.407,379.153 546.436,379.001 544.48,378.908L544.48,347.619ZM541.772,347.548L541.772,378.817C539.418,378.77 537.085,378.809 534.772,378.925L534.772,347.593C537.109,347.522 539.441,347.508 541.772,347.548ZM526.219,299.924C511.682,304.843 495.245,317.182 493.761,340.636C494.906,340.085 496.052,339.554 497.195,339.043C497.164,338.898 497.166,338.744 497.21,338.591C501.194,324.521 509.256,311.294 526.219,299.924ZM532.589,298.196C532.002,298.316 531.407,298.449 530.803,298.595C530.838,298.941 530.679,299.293 530.363,299.488C512.147,310.731 503.52,323.965 499.298,338.124C503.7,336.246 508.097,334.654 512.488,333.345C516.748,320.552 523.17,309.183 532.589,298.196ZM552.013,298.508C568.477,309.358 576.714,321.927 580.967,335.321C582.983,336.029 584.998,336.792 587.012,337.612C583.927,311.978 566.832,301.693 552.013,298.508ZM546.644,297.635C555.555,308.127 561.747,318.979 565.946,331.096C570.217,331.998 574.483,333.155 578.744,334.563C574.259,321.369 565.609,309.05 548.496,298.488C548.246,298.334 548.094,298.082 548.059,297.812C547.583,297.746 547.111,297.687 546.644,297.635ZM535.529,297.692C535.31,297.722 535.089,297.754 534.866,297.789C534.948,298.082 534.885,298.409 534.67,298.656C525.366,309.332 518.969,320.351 514.683,332.713C521.026,330.956 527.358,329.786 533.679,329.191C534.133,319.009 534.786,308.828 535.494,298.645C535.506,298.327 535.517,298.009 535.529,297.692ZM543.345,297.374C544.074,307.83 544.745,318.285 545.203,328.739C551.415,328.836 557.616,329.482 563.806,330.665C559.525,318.727 553.229,308.029 544.189,297.656C544.123,297.581 544.072,297.498 544.034,297.411C543.803,297.397 543.573,297.385 543.345,297.374ZM541.462,297.32C540.816,297.314 540.186,297.321 539.576,297.34C538.893,297.361 538.183,297.405 537.448,297.471C537.45,297.512 537.45,297.553 537.447,297.594L537.367,298.744C537.068,307.179 536.121,323.4 535.684,329.021C538.233,328.83 540.781,328.732 543.326,328.726C542.865,318.257 542.192,307.788 541.462,297.32Z" style="fill:white;"/>
    </g>
</svg>
