<?xml version="1.0" encoding="UTF-8" standalone="no"?>
<!DOCTYPE svg PUBLIC "-//W3C//DTD SVG 1.1//EN" "http://www.w3.org/Graphics/SVG/1.1/DTD/svg11.dtd">
<svg width="100%" height="100%" viewBox="0 0 1000 1000" version="1.1" xmlns="http://www.w3.org/2000/svg" xmlns:xlink="http://www.w3.org/1999/xlink" xml:space="preserve" xmlns:serif="http://www.serif.com/" style="fill-rule:evenodd;clip-rule:evenodd;stroke-linejoin:round;stroke-miterlimit:2;">
    <g transform="matrix(3.82166,0,0,3.82166,-1410.83,-2073.89)">
        <path d="M500,558.25L498.278,558.25C458.167,558.264 429.679,558.748 412.848,560.415C409.636,560.733 406.858,561.091 404.514,561.497C432.744,564.545 461.746,564.743 497.895,564.75L500,564.75L502.105,564.75C538.254,564.743 567.256,564.545 595.486,561.497C593.142,561.091 590.364,560.733 587.152,560.415C570.321,558.748 541.833,558.264 501.722,558.25L500,558.25ZM498.75,652.734C466.179,645.506 435.927,614.556 407.007,570C411.23,568.839 423.522,567.529 441.346,566.541C426.875,566.009 413.214,565.08 399.653,563.46C408.997,578.795 430.391,608.415 454.757,631.085C483.779,658.086 494.008,707.541 491.288,739.92C490.097,754.097 486.351,765.019 480.795,769.599C475.061,774.327 470.113,775.813 462.178,776.957C453.115,778.264 444.907,779.418 438.342,780.452C432.212,781.418 427.53,782.272 424.957,783.052C424.529,783.182 424.166,783.307 423.871,783.432C424.083,783.631 424.392,783.811 424.756,784.01C426.265,784.832 428.719,785.489 431.957,786.051C444.963,788.305 470.088,788.735 498.5,788.75L498.5,788.752L501.5,788.752L501.5,788.75C529.912,788.735 555.037,788.305 568.043,786.051C571.281,785.489 573.735,784.832 575.244,784.01C575.608,783.811 575.917,783.631 576.129,783.432C575.834,783.307 575.471,783.182 575.043,783.052C572.47,782.272 567.788,781.418 561.658,780.452C555.093,779.418 546.885,778.264 537.822,776.957C529.887,775.813 524.939,774.327 519.205,769.599C513.649,765.019 509.903,754.097 508.712,739.92C505.992,707.541 516.221,658.086 545.243,631.085C569.609,608.415 591.003,578.795 600.347,563.46C586.786,565.08 573.125,566.009 558.654,566.541C576.478,567.529 588.77,568.839 592.993,570C564.073,614.556 533.821,645.506 501.25,652.734L500,653L498.75,652.734ZM499.377,791.245C493.269,791.189 444.015,790.678 431.53,788.514C427.941,787.892 425.233,787.116 423.561,786.206C422.073,785.395 421.302,784.403 421.117,783.395C421.033,782.943 421.124,782.457 421.545,781.991C421.869,781.632 422.602,781.193 423.768,780.806C428.781,779.145 443.578,777.113 461.822,774.483C469.222,773.416 473.857,772.079 479.205,767.67C484.422,763.369 487.679,753.023 488.797,739.71C491.465,707.948 481.524,659.403 453.054,632.915C427.365,609.015 404.955,577.447 396.289,562.71C396.106,562.399 396.066,562.025 396.18,561.683C396.293,561.341 396.548,561.065 396.88,560.925C399.862,559.665 405.1,558.67 412.602,557.927C429.721,556.231 458.865,555.75 500,555.75L503.821,555.751C542.948,555.781 570.815,556.284 587.398,557.927C594.9,558.67 600.138,559.665 603.12,560.925C603.452,561.065 603.707,561.341 603.82,561.683C603.934,562.025 603.894,562.399 603.711,562.71C595.045,577.447 572.635,609.015 546.946,632.915C518.476,659.403 508.535,707.948 511.203,739.71C512.321,753.023 515.578,763.369 520.795,767.67C526.143,772.079 530.778,773.416 538.178,774.483C556.422,777.113 571.219,779.145 576.232,780.806C577.398,781.193 578.131,781.632 578.455,781.991C578.876,782.457 578.967,782.943 578.883,783.395C578.698,784.403 577.927,785.395 576.439,786.206C574.767,787.116 572.059,787.892 568.47,788.514C555.153,790.823 500,791.25 500,791.25L499.377,791.245Z" style="fill:white;"/>
    </g>
</svg>
