<?xml version="1.0" encoding="UTF-8" standalone="no"?>
<!DOCTYPE svg PUBLIC "-//W3C//DTD SVG 1.1//EN" "http://www.w3.org/Graphics/SVG/1.1/DTD/svg11.dtd">
<svg width="100%" height="100%" viewBox="0 0 1000 1000" version="1.1" xmlns="http://www.w3.org/2000/svg" xmlns:xlink="http://www.w3.org/1999/xlink" xml:space="preserve" xmlns:serif="http://www.serif.com/" style="fill-rule:evenodd;clip-rule:evenodd;stroke-linejoin:round;stroke-miterlimit:2;">
    <g transform="matrix(0.944776,0,0,0.944776,27.3757,27.6119)">
        <path d="M673.236,880.818C802.257,809.183 910.017,724.752 968.878,610.901C939.224,579.983 883.089,519.424 837.846,471.056L837.599,471.464C733.312,403.205 537.316,358.744 451.754,380.846C342.319,409.115 288.299,562.701 361.522,705.654C358.526,704.351 433.147,820.815 433.147,820.815C410.098,795.674 390.254,769.565 373.473,742.531C364.249,727.671 355.949,712.532 348.553,697.121C312.516,678.746 289.855,658.727 274.411,640.044C240.996,599.62 238.493,579.524 213.118,567.718C143.144,535.162 21.708,550.561 23.978,531.762C29.494,486.078 135.108,420.282 266.191,465.581C248.191,437.47 236.168,367.07 236.474,342.106C236.579,333.543 334.451,376.433 364.708,351.145C377.057,340.823 379.695,325.298 381.036,313.451C383.91,288.071 373.135,251.187 329.593,231.69C308.367,222.185 272.877,241.584 242.068,228.341C236.231,225.832 245.817,216.91 248.058,211.356C266.178,166.447 300.443,128.687 354.85,100.387C410.299,71.545 484.488,68.706 578.848,108.974C630.743,131.12 660.161,209.295 696.005,305.243C767.632,253.081 735.454,150.714 710.47,89.571C708.694,85.223 717.092,82.439 721.173,79.194C790.653,78.166 819.824,129.666 857.31,211.356C892.486,288.013 894.229,372.987 842.531,463.117C972.26,590.486 945.326,578.649 975.334,617.409L975.746,617.939C975.887,617.83 976.083,617.799 976.258,617.877C976.509,617.99 976.622,618.286 976.51,618.538C929.503,723.566 824.248,811.78 666.853,884.912C666.611,885.024 666.325,884.927 666.202,884.694C625.148,906.643 570.86,918.358 505.197,921.281C470.93,901.489 438.897,877.181 415.57,835.257C443.04,829.606 462.059,832.436 477.141,839.216C485.425,810.12 495.041,797.748 505.197,792.152C519.33,799.106 539.667,804.324 568.042,807.295C570.737,790.108 580.445,776.936 594.866,766.462C634.763,797.959 658.5,842.162 666.545,883.952C668.791,882.909 671.026,881.862 673.236,880.818ZM973.085,623.606C909.636,734.58 802.849,813.141 678.276,878.426C826.144,807.82 926.225,723.407 973.085,623.606ZM329.033,243.814C301.337,247.092 274.591,252.114 253.356,241.217C220.106,224.156 192.736,215.114 164.223,211.356C177.485,320.466 250.067,341.179 329.861,351.145C378.856,337.87 383.241,304.222 329.033,243.814ZM534.965,233.802C560.992,233.802 582.123,244.432 582.123,257.526C582.123,270.62 560.992,281.25 534.965,281.25C508.937,281.25 487.806,270.62 487.806,257.526C487.806,244.432 508.937,233.802 534.965,233.802ZM492.372,158.617C464.824,152.194 451.925,171.217 451.548,190.701C450.962,220.957 467.379,226.394 498.847,217.082C463.55,254.167 427.175,227.952 420.175,195.521C413.999,166.904 444.798,136.724 492.372,158.617Z" style="fill:white;"/>
    </g>
</svg>
