<?xml version="1.0" encoding="UTF-8" standalone="no"?>
<!DOCTYPE svg PUBLIC "-//W3C//DTD SVG 1.1//EN" "http://www.w3.org/Graphics/SVG/1.1/DTD/svg11.dtd">
<svg width="100%" height="100%" viewBox="0 0 1000 1000" version="1.1" xmlns="http://www.w3.org/2000/svg" xmlns:xlink="http://www.w3.org/1999/xlink" xml:space="preserve" xmlns:serif="http://www.serif.com/" style="fill-rule:evenodd;clip-rule:evenodd;stroke-linejoin:round;stroke-miterlimit:2;">
    <g transform="matrix(25.5147,0,0,25.5147,-6044.52,-2162.79)">
        <path d="M243,88C245.809,90.294 246.559,94.909 246,101C242.863,103.101 240.41,105.342 240,108C242.292,105.986 244.394,104.633 246,105L246,116C242.643,119.538 241.186,120.923 240,122C244.75,120.134 248.477,119.4 251,120C252.195,117.475 251.309,116.654 249,117L249,94C255.711,106.01 259.549,116.067 263.862,119.925C266.224,122.038 269.913,121.096 273,118C271.534,117.947 270.205,117.357 269.713,116C268.154,111.705 269.247,102.209 269,93C270.955,92.063 272.329,91.379 273,91C269.657,89.966 266.082,88.873 263.343,86.726C262.618,89.884 263.36,92.109 265.418,92.951L265.418,113.7C259.931,102.959 256.03,85.794 243,88Z" style="fill:white;"/>
    </g>
</svg>
