<?xml version="1.0" encoding="UTF-8" standalone="no"?>
<!DOCTYPE svg PUBLIC "-//W3C//DTD SVG 1.1//EN" "http://www.w3.org/Graphics/SVG/1.1/DTD/svg11.dtd">
<svg width="100%" height="100%" viewBox="0 0 1000 1000" version="1.1" xmlns="http://www.w3.org/2000/svg" xmlns:xlink="http://www.w3.org/1999/xlink" xml:space="preserve" xmlns:serif="http://www.serif.com/" style="fill-rule:evenodd;clip-rule:evenodd;stroke-linejoin:round;stroke-miterlimit:2;">
    <g transform="matrix(1.90578,0,0,1.90578,-328.99,-680.264)">
        <path d="M518.262,555.287C509.338,556.341 499.148,557.379 488.295,558.345C487.02,560.267 485.738,562.186 484.449,564.101C484.249,576.067 483.987,588.033 483.672,600C482.795,633.333 481.508,666.667 480,700C476.87,658.232 475.212,616.495 477.128,574.841C454.786,607.201 430.556,638.608 405.105,669.399C430.864,729.954 454.8,791.979 476.947,855.431C449.312,797.595 422.088,739.512 395.297,681.165C375.78,704.388 355.607,727.285 335.075,750C353.142,723.47 371.569,697.123 390.698,671.139C383.014,654.366 375.367,637.57 367.755,620.753C359.35,602.181 350.989,583.582 342.671,564.951C335.19,571.384 327.63,577.714 320,583.955C326.899,576.134 333.819,568.371 340.763,560.674C322.731,520.241 304.914,479.682 287.317,438.984C278.206,437.746 269.102,436.415 260,435C268.547,434.961 277.095,434.995 285.639,435.101C278.177,417.827 270.751,400.517 263.365,383.184C273.201,400.378 282.857,417.716 292.335,435.199C317.022,435.613 341.71,436.63 366.398,438.253C395.335,440.155 424.272,442.888 453.211,446.457C457.476,442.587 461.756,438.762 466.052,434.985C463.057,439.007 460.026,442.984 456.954,446.923C462.234,447.588 467.515,448.28 472.796,449C466.831,449.241 460.868,449.42 454.904,449.54C424.131,488.619 389.917,523.337 353.622,555.406C354.052,556.302 354.478,557.193 354.904,558.085C369.926,554.579 407.721,550.641 446.278,548.289C457.292,547.617 468.369,547.075 478.991,546.709C480.351,531.128 482.278,515.557 484.884,500C484.945,515.51 484.877,531.02 484.698,546.528C487.379,546.451 490.025,546.386 492.625,546.334C496.233,542.416 499.874,538.517 503.548,534.635C501.122,538.528 498.667,542.406 496.182,546.27C504.294,546.144 511.919,546.151 518.779,546.318C520.203,523.491 522.161,506.483 524.77,500C528.584,508.816 529.18,525.921 528.092,546.671C538.512,547.231 546.282,548.298 550,550C546.168,551.277 538.236,552.691 527.643,554.11C525.361,587.739 519.417,628.917 515.642,660C515.86,624.648 516.602,588.476 518.059,559.227C518.125,557.899 518.193,556.586 518.262,555.287ZM609.778,515.862C605.247,513.609 592.518,537.234 578.563,568.407C564.609,599.579 549.43,638.299 540,666.236C567.498,617.157 613.342,517.635 609.778,515.862ZM400.311,658.194C404.926,652.033 409.589,645.889 414.299,639.77C434.457,613.586 455.496,587.848 477.787,562.744C477.861,561.569 477.938,560.395 478.018,559.222C431.893,562.995 377.66,565.278 356.907,562.29C371.903,593.83 386.368,625.795 400.311,658.194ZM564.962,525.886C561.622,524.401 554.761,543.871 547.618,569.492C540.474,595.112 533.048,626.884 528.576,650C545.529,608.814 567.59,527.055 564.962,525.886ZM294.93,439.997C314.313,475.928 332.943,512.462 350.828,549.589C364.391,534.745 378.052,520.187 391.84,506C410.866,486.424 430.135,467.558 449.73,449.629C397.993,450.373 346.409,446.698 294.93,439.997Z" style="fill:white;"/>
    </g>
</svg>
