<?xml version="1.0" encoding="UTF-8" standalone="no"?>
<!DOCTYPE svg PUBLIC "-//W3C//DTD SVG 1.1//EN" "http://www.w3.org/Graphics/SVG/1.1/DTD/svg11.dtd">
<svg width="100%" height="100%" viewBox="0 0 1000 1000" version="1.1" xmlns="http://www.w3.org/2000/svg" xmlns:xlink="http://www.w3.org/1999/xlink" xml:space="preserve" xmlns:serif="http://www.serif.com/" style="fill-rule:evenodd;clip-rule:evenodd;stroke-linejoin:round;stroke-miterlimit:2;">
    <g transform="matrix(3.37836,0,0,3.37836,-1189.24,-637.339)">
        <path d="M500.017,461.515C500.174,457.694 500.635,454.057 501,450.922C505.194,450.661 508.304,450.995 512.382,451.548C512.983,455.396 513.15,459.271 513.283,463.149C513.661,459.256 514.1,455.364 514.903,451.469C517.73,451.512 520.556,452.06 523.383,452.94C523.774,456.556 523.907,460.235 523.97,463.931C524.645,460.157 525.43,456.399 526.453,452.678C529.713,454.322 532.973,456.128 536.233,458.404C536.391,460.965 536.229,463.555 536.058,466.145C536.498,463.526 537.018,460.92 537.798,458.358C539.733,458.902 541.59,459.674 543.286,460.908C543.417,462.715 543.411,464.684 543.335,466.737C544.024,464.744 544.781,462.792 545.659,460.908C547.858,460.19 549.526,461.158 551.064,462.538L545.867,469.855L542.82,468.226L535.413,467.927L523.758,465.561L512.672,466.057L500.034,466.171L500.034,466.171L500.017,466.171L500,466.171L500,466.171L487.362,466.057L476.276,465.561L464.621,467.927L457.214,468.226L454.167,469.855L448.97,462.538C450.508,461.158 452.176,460.19 454.375,460.908C455.252,462.792 456.01,464.744 456.698,466.737C456.623,464.684 456.617,462.715 456.748,460.908C458.443,459.674 460.3,458.902 462.236,458.358C463.016,460.92 463.536,463.526 463.976,466.145C463.805,463.555 463.642,460.965 463.801,458.404C467.061,456.128 470.321,454.322 473.581,452.678C474.604,456.399 475.389,460.157 476.063,463.931C476.127,460.235 476.26,456.556 476.651,452.94C479.477,452.06 482.304,451.512 485.131,451.469C485.934,455.364 486.372,459.256 486.751,463.149C486.884,459.271 487.051,455.396 487.651,451.548C491.73,450.995 494.839,450.661 499.034,450.922C499.399,454.057 499.86,457.694 500.017,461.515ZM500,203.453L500.034,203.453L500.034,203.453C563.303,203.482 602.404,274.801 618.634,315.199C614.782,339.026 609.999,364.277 604.116,391.207C587.061,403.676 572.349,426.931 558.458,453.959C558.835,450.132 559.546,446.338 560.648,442.585C558.529,448.907 556.003,455.076 552.578,460.908L548.552,457.996C550.462,452.515 551.55,447.034 552.685,441.554C550.713,447.316 548.701,453.061 545.887,458.486C543.191,457.982 540.852,456.851 538.713,455.372C540.422,450.641 541.564,445.91 542.551,441.18C541.176,445.32 539.787,449.457 537.904,453.465C535.633,458.297 534.044,454.906 533.138,454.379C531.487,453.42 527.981,452.47 532.767,445.917C533.313,440.787 532.935,436.722 532.705,432.484C532.589,437.052 533.022,441.742 529.657,445.588C527.627,447.907 524.069,446.293 521.275,444.023C520.214,439.601 520.267,435.258 520.17,430.905C519.994,435.104 519.943,439.334 519.197,443.395C513.267,448.353 506.67,445.893 500.017,442.813C493.364,445.893 486.767,448.353 480.837,443.395C480.091,439.334 480.04,435.104 479.864,430.905C479.766,435.258 479.82,439.601 478.758,444.023C475.965,446.293 472.406,447.907 470.377,445.588C467.011,441.742 467.445,437.052 467.328,432.484C467.099,436.722 466.721,440.787 467.266,445.917C472.053,452.47 468.546,453.42 466.896,454.379C465.989,454.906 464.401,458.297 462.13,453.465C460.246,449.457 458.857,445.32 457.482,441.18C458.469,445.91 459.612,450.641 461.321,455.372C459.181,456.851 456.842,457.982 454.146,458.486C451.333,453.061 449.321,447.316 447.349,441.554C448.483,447.034 449.572,452.515 451.481,457.996L447.456,460.908C444.031,455.076 441.504,448.907 439.386,442.585C440.488,446.338 441.198,450.132 441.576,453.959C427.684,426.931 412.973,403.676 395.917,391.207C390.035,364.277 385.251,339.026 381.4,315.199C397.629,274.801 436.731,203.482 500,203.453L500,203.453ZM463.377,435.602C463.47,439.919 463.589,444.25 463.782,448.62L461.962,449.146C460.87,445.118 459.957,441.121 459.093,437.132L456.7,437.132C455.62,434.032 456.049,432.114 463.377,435.602ZM536.656,435.602C536.564,439.919 536.445,444.25 536.252,448.62L538.072,449.146C539.164,445.118 540.077,441.121 540.941,437.132L543.334,437.132C544.414,434.032 543.984,432.114 536.656,435.602ZM470.067,430.868L476.835,430.868C476.945,433.584 477.005,436.36 476.77,439.503C475.353,440.867 473.734,442.186 471.633,443.396C470.349,439.418 469.744,435.264 470.067,430.868ZM529.966,430.868L523.199,430.868C523.089,433.584 523.028,436.36 523.263,439.503C524.681,440.867 526.3,442.186 528.4,443.396C529.684,439.418 530.289,435.264 529.966,430.868ZM517.578,430.266C512.443,427.385 507.471,426.617 502.713,430.266C503.34,433.374 503.501,436.483 502.683,439.591C508.339,444.216 513.151,444.503 517.245,441.11C518.027,437.495 517.947,433.881 517.578,430.266ZM482.456,430.266C487.59,427.385 492.562,426.617 497.321,430.266C496.693,433.374 496.533,436.483 497.351,439.591C491.694,444.216 486.883,444.503 482.789,441.11C482.006,437.495 482.086,433.881 482.456,430.266ZM500.017,428.791C499.542,433.754 499.645,438.282 500.017,442.609C500.388,438.283 500.491,433.754 500.017,428.791ZM500.017,357.861C489.646,369.378 486.58,387.895 488.196,392.308C490.065,397.414 493.716,401.772 500.017,404.507C506.317,401.772 509.968,397.414 511.837,392.308C513.453,387.895 510.387,369.378 500.017,357.861ZM566.721,327.486C575.362,327.486 582.377,334.501 582.377,343.142C582.377,351.784 575.362,358.799 566.721,358.799C558.079,358.799 551.064,351.784 551.064,343.142C551.064,334.501 558.079,327.486 566.721,327.486ZM433.313,327.486C424.672,327.486 417.656,334.501 417.656,343.142C417.656,351.784 424.672,358.799 433.313,358.799C441.954,358.799 448.97,351.784 448.97,343.142C448.97,334.501 441.954,327.486 433.313,327.486ZM500.017,249.207C491.402,249.236 484.416,256.24 484.416,264.863C484.416,273.486 491.402,280.49 500.017,280.52C508.632,280.49 515.618,273.486 515.618,264.863C515.618,256.24 508.632,249.236 500.017,249.207Z" style="fill:white;"/>
    </g>
</svg>
