<?xml version="1.0" encoding="UTF-8" standalone="no"?>
<!DOCTYPE svg PUBLIC "-//W3C//DTD SVG 1.1//EN" "http://www.w3.org/Graphics/SVG/1.1/DTD/svg11.dtd">
<svg width="100%" height="100%" viewBox="0 0 1000 1000" version="1.1" xmlns="http://www.w3.org/2000/svg" xmlns:xlink="http://www.w3.org/1999/xlink" xml:space="preserve" xmlns:serif="http://www.serif.com/" style="fill-rule:evenodd;clip-rule:evenodd;stroke-linejoin:round;stroke-miterlimit:2;">
    <g transform="matrix(1.65164,0,0,1.65164,-464.267,-233.643)">
        <path d="M583.823,443.192L491.823,555.336L583.823,555.459L675.824,555.336L583.823,443.192ZM480.61,582.448L583.823,661.866L687.036,582.448L583.823,582.686L480.61,582.448ZM615.422,233.281C668.743,329.058 698.213,435.604 708.331,550.886L741.968,311.283L615.422,233.281ZM552.224,233.281C498.903,329.058 469.434,435.604 459.316,550.886L425.679,311.283L552.224,233.281ZM608.809,285.434C640.426,356.956 657.423,428.478 669.493,500L614.185,436.157C623.446,386.143 620.275,335.874 608.809,285.434ZM558.837,285.434C527.22,356.956 510.223,428.478 498.153,500L553.462,436.157C544.201,386.143 547.372,335.874 558.837,285.434ZM584.183,389.669C591.714,391.758 597.199,395.394 600.359,400.786C603.659,343.168 597.128,291.272 584.131,243.142L583.823,242.006C570.622,290.456 563.962,342.715 567.287,400.786C570.498,395.309 576.106,391.644 583.823,389.571L584.183,389.669ZM426.424,592.805L383.048,292.668L583.823,171.734L784.599,292.668L741.222,592.805L583.823,716.646L426.424,592.805Z" style="fill:white;"/>
    </g>
</svg>
