<?xml version="1.0" encoding="UTF-8" standalone="no"?>
<!DOCTYPE svg PUBLIC "-//W3C//DTD SVG 1.1//EN" "http://www.w3.org/Graphics/SVG/1.1/DTD/svg11.dtd">
<svg width="100%" height="100%" viewBox="0 0 1000 1000" version="1.1" xmlns="http://www.w3.org/2000/svg" xmlns:xlink="http://www.w3.org/1999/xlink" xml:space="preserve" xmlns:serif="http://www.serif.com/" style="fill-rule:evenodd;clip-rule:evenodd;stroke-linejoin:round;stroke-miterlimit:2;">
    <g transform="matrix(1.95652,0,0,1.95652,-478.261,-478.261)">
        <path d="M673.809,471.876C688.027,516.855 691.899,558.095 670,590C624.282,665.27 567.403,711.38 500,730L499.211,729.781C432.154,711.02 375.539,664.977 330,590C298.345,543.882 320.537,478.258 350,410C329.299,363.109 330.949,316.461 350,270C383.881,280.21 412.956,306.67 440,340C459.059,331.51 478.824,329.917 498.759,329.993C498.56,331.971 498.366,333.949 498.178,335.927C497.887,338.989 497.61,342.052 497.351,345.117L497.337,345.292C493.19,345.33 490.01,345.832 490,346.496C489.99,347.149 493.063,347.741 497.12,347.915L497.119,347.933C496.811,351.752 496.533,355.574 496.293,359.398L496.291,359.428C493.341,360.168 491.34,361.001 491.436,361.534C491.525,362.033 493.424,362.141 496.143,361.883C495.856,366.798 495.635,371.718 495.497,376.645C495.045,376.466 494.573,376.287 494.086,376.11C490.513,374.808 487.488,374.094 487.334,374.516C487.18,374.939 489.955,376.339 493.528,377.641C494.193,377.884 494.84,378.106 495.453,378.304L495.45,378.428C495.387,381.071 495.348,383.714 495.336,386.358C495.324,388.815 495.337,391.273 495.373,393.73L495.374,393.756C493.309,393.645 491.899,393.737 491.862,394.037C491.824,394.346 493.259,394.795 495.398,395.195C495.515,401.285 495.79,407.384 496.254,413.491C493.645,414.147 491.911,415.039 492.007,415.806C492.101,416.558 493.931,416.994 496.542,417.005L496.544,417.037C496.752,419.382 496.986,421.725 497.251,424.064C497.585,427.018 497.968,429.966 498.399,432.907L498.401,432.917C495.601,434.724 493.682,436.464 493.99,436.972C494.267,437.429 496.267,436.746 498.778,435.403C499.608,440.697 500.608,446 501.799,451.31C501.493,451.486 501.182,451.67 500.87,451.859C496.73,454.369 493.735,457.009 494.185,457.751C494.635,458.493 498.361,457.057 502.5,454.548L502.542,454.522L502.546,454.538C503.303,457.706 504.124,460.859 505.011,463.993C505.883,467.072 506.819,470.133 507.817,473.174L507.82,473.182C505.281,474.804 503.503,476.202 503.672,476.48C503.835,476.749 505.764,475.889 508.25,474.478L508.262,474.514C509.244,477.44 510.284,480.346 511.383,483.23C512.476,486.098 513.627,488.943 514.833,491.765L514.858,491.822C512.694,494.942 511.57,497.744 512.319,498.303C512.929,498.758 514.61,497.601 516.496,495.557L516.517,495.604C517.27,497.277 518.042,498.942 518.834,500.598C519.095,501.143 519.358,501.688 519.623,502.231L520,503L520.548,503.932C520.924,504.555 521.312,505.172 521.713,505.779C522.585,507.1 523.519,508.381 524.517,509.609C525.066,510.283 525.634,510.941 526.221,511.582L526.237,511.6C525.501,512.534 525.114,513.173 525.247,513.302C525.378,513.43 525.993,513.037 526.888,512.294C530.5,516.056 534.579,518.902 539.078,520.93C538.429,523.367 538.423,525.277 539.161,525.558C539.893,525.837 541.145,524.43 542.274,522.21L542.304,522.22C543.384,522.599 544.48,522.936 545.587,523.229C547.439,523.719 549.322,524.091 551.22,524.357C553.232,524.64 555.259,524.804 557.289,524.87C558.188,524.899 559.087,524.909 559.987,524.901L560.008,524.901C560.087,529.649 560.726,533.356 561.5,533.356C562.279,533.356 562.921,529.602 562.993,524.81C565.591,524.677 568.262,524.404 571,524C572.755,523.988 574.536,523.943 576.337,523.858C576.357,524.366 576.393,524.895 576.447,525.439C576.801,529.013 577.779,531.845 578.629,531.761C579.479,531.677 579.882,528.707 579.528,525.134C579.478,524.632 579.416,524.144 579.344,523.678C582.895,523.42 586.513,522.992 590.162,522.339C591.02,524.234 591.826,525.428 592.242,525.288C592.638,525.154 592.584,523.838 592.177,521.956C598.198,520.742 604.282,518.891 610.264,516.152C611.372,517.852 612.324,518.878 612.709,518.681C613.089,518.486 612.821,517.14 612.104,515.28C615.108,513.806 618.08,512.101 621,510.132L622.039,509.431L622.071,509.409L622.403,509.184L623.077,508.728L623.11,508.705L623.14,508.685L623.513,508.431L624.113,508.023L624.164,507.989L624.207,507.959L624.57,507.712L625.148,507.318L625.22,507.268L625.272,507.233C626.825,509.418 628.356,510.679 629.163,510.265C630.025,509.823 629.818,507.599 628.785,504.82L628.962,504.697L629.271,504.483L630.024,503.962L630.186,503.85L630.23,503.819C630.648,503.529 631.066,503.239 631.482,502.949L631.584,502.878L631.802,502.727L632.347,502.347L632.771,502.05L632.979,501.905L633.127,501.801L633.369,501.632L634.343,500.95L634.376,500.926C634.794,500.633 635.211,500.339 635.627,500.046L635.76,499.953L635.972,499.803L636.424,499.484L636.934,499.124L637.146,498.974L637.259,498.894C637.674,498.6 638.089,498.306 638.502,498.013L638.529,497.994L638.646,497.911L639.465,497.329L639.75,497.126L639.909,497.013L639.92,497.039C641.662,500.925 643.559,503.862 644.155,503.595C644.751,503.328 643.821,499.957 642.08,496.072C642.01,495.917 641.94,495.763 641.87,495.611L641.987,495.527L642.131,495.424C642.641,495.058 643.151,494.692 643.659,494.327L645.245,493.183L645.323,493.127L645.5,492.999L646.064,492.59L646.87,492.006L647.208,491.761L647.497,491.551L647.903,491.256L648.494,490.826L649.034,490.432L649.488,490.101L649.883,489.812L650.289,489.516L650.877,489.085L651.471,488.65L651.832,488.385L652.082,488.201L652.677,487.764L653.447,487.198L653.73,486.988L653.873,486.883L654.649,486.31L655.415,485.744L655.538,485.653L655.661,485.562L655.893,485.39C658.141,488.391 660.109,490.323 660.659,489.955C661.215,489.583 660.148,486.967 658.186,483.688L658.164,483.703L657.376,484.29L655.538,485.653L654.649,486.31L653.73,486.988L652.677,487.764L651.832,488.385L650.877,489.085L649.883,489.812L649.034,490.432L647.903,491.256L647.208,491.761L646.064,492.59L645.323,493.127L643.659,494.327L643.617,494.357L642.131,495.424L641.484,495.888C641.147,496.128 640.811,496.368 640.475,496.609L639.75,497.126L638.646,497.911L638.502,498.013L637.259,498.894L636.934,499.124L635.972,499.803L635.627,500.046L634.376,500.926L634.343,500.95L633.127,501.801L632.771,502.05L631.802,502.727L631.482,502.949L630.23,503.819L630.024,503.962L628.962,504.697C627.718,505.557 626.471,506.414 625.22,507.268L624.57,507.712L624.164,507.989L623.513,508.431L623.11,508.705L622.403,509.184L622.055,509.42L621,510.132L658.164,483.703C663.465,479.757 668.683,475.807 673.809,471.876ZM500.741,690.059C563.66,694.878 604.403,659.289 580,580C559.448,622.777 534.446,646.121 500.401,630.189L500,630C465.75,646.303 440.633,622.944 420,580C395.501,659.6 436.66,695.156 500,690L500.741,690.059ZM527,640C518.307,639.918 509.429,638.682 500,634C491.864,637.905 482.753,640.037 473,641C473.66,656.667 475.492,672.333 479,688C493.615,685.666 507.948,685.666 522,688C525.452,672.215 527.157,656.22 527,640ZM500.238,599.972C520.448,597.519 531.722,570.368 528,554C526.614,547.906 503.217,549.723 500.298,549.974L500,550C500,550 473.478,547.499 472,554C468.263,570.432 479.641,597.732 500,600L500.238,599.972ZM502.299,329.991C521.876,329.976 541.279,331.661 560,340C587.044,306.67 616.119,280.21 650,270C669.051,316.461 670.701,363.109 650,410C658.143,428.866 665.732,447.532 671.777,465.63C671.658,465.753 671.539,465.876 671.422,466C666.539,471.131 661.454,476.021 656.207,480.613C653.458,476.619 650.8,473.807 650.147,474.244C649.477,474.692 651.16,478.39 653.924,482.584L653.908,482.597C651.723,484.455 649.502,486.272 647.244,488.04C645.074,489.74 642.87,491.395 640.632,493.004L640.588,493.035C639.363,490.773 638.271,489.325 637.845,489.516C637.396,489.718 637.814,491.685 638.795,494.308C635.038,496.941 631.228,499.409 627.378,501.694C625.352,497.847 622.852,495.217 621.736,495.79C620.601,496.373 621.321,500.049 623.342,504.015L623.273,504.053C621.019,505.304 618.735,506.504 616.421,507.642C614.279,508.697 612.111,509.699 609.92,510.646L609.907,510.651C608.342,507.844 606.806,505.91 606.291,506.175C605.786,506.434 606.427,508.727 607.745,511.562L607.676,511.59C606.76,511.966 605.84,512.332 604.916,512.687C602.953,513.442 600.972,514.149 598.974,514.804C597.14,515.405 595.291,515.961 593.43,516.47C592.542,516.713 591.652,516.944 590.759,517.165L590.754,517.166C589.602,514.034 588.321,511.776 587.758,511.965C587.208,512.151 587.525,514.615 588.452,517.707L588.396,517.72C586.66,518.106 584.915,518.449 583.162,518.745C581.495,519.027 579.821,519.265 578.142,519.459L578.123,519.461C577.866,519.023 577.6,518.787 577.346,518.812C577.089,518.838 576.874,519.125 576.707,519.613L576.608,519.623C575.386,519.743 574.161,519.839 572.934,519.91C572.493,519.935 572.052,519.957 571.61,519.976L571,520L570.064,520.064C569.472,520.102 568.879,520.137 568.286,520.167C566.5,520.258 564.712,520.309 562.924,520.315L562.888,520.315C562.663,516.876 562.126,514.452 561.5,514.452C560.876,514.452 560.34,516.86 560.114,520.282C554.06,520.121 548.635,519.373 543.907,517.971C544.588,515.476 544.607,513.505 543.857,513.22C543.095,512.93 541.771,514.465 540.608,516.843C536.251,515.135 532.598,512.77 529.715,509.683C529.97,509.429 530.23,509.166 530.493,508.897C533.116,506.2 535.025,503.796 534.753,503.531C534.481,503.267 532.13,505.241 529.507,507.937C529.269,508.182 529.037,508.424 528.812,508.663L528.795,508.643C528.187,507.913 527.618,507.151 527.094,506.359C526.367,505.259 525.725,504.104 525.168,502.909C524.874,502.277 524.603,501.633 524.354,500.981C524.272,500.765 524.192,500.548 524.115,500.33L524.016,500.047C524.011,500.032 524.007,500.015 524,500L523.505,499.086C523.176,498.474 522.851,497.86 522.529,497.244C521.557,495.38 520.621,493.497 519.719,491.598L519.662,491.478C521.513,488.647 522.422,486.214 521.729,485.697C521.172,485.281 519.719,486.212 518.033,487.936L518.005,487.873C517.631,487.034 517.263,486.193 516.902,485.348C516.194,483.69 515.51,482.022 514.852,480.343C514.165,478.593 513.505,476.832 512.871,475.061C512.55,474.166 512.237,473.269 511.929,472.369L511.889,472.25C514.042,470.83 515.481,469.664 515.328,469.412C515.182,469.17 513.601,469.843 511.471,471.012C509.454,464.96 507.678,458.656 506.148,452.088C508.244,450.499 509.486,449.152 509.185,448.656C508.919,448.217 507.506,448.54 505.538,449.397C504.379,444.139 503.374,438.715 502.524,433.122C504.809,431.549 506.282,430.133 506.01,429.684C505.769,429.286 504.226,429.75 502.176,430.761L502.159,430.644C501.835,428.362 501.538,426.075 501.269,423.786C500.995,421.447 500.749,419.106 500.53,416.762L500.528,416.743C504.975,416.172 508.458,414.846 508.324,413.768C508.19,412.702 504.569,412.271 500.184,412.784L500.17,412.62C499.951,409.869 499.766,407.116 499.615,404.361C499.46,401.538 499.342,398.713 499.255,395.886L499.251,395.76C502.725,396.147 505.486,396.135 505.537,395.714C505.59,395.284 502.787,394.582 499.205,394.118L499.204,394.085C499.142,391.651 499.103,389.217 499.087,386.783C499.071,384.297 499.079,381.811 499.108,379.326L499.109,379.275C499.798,379.391 500.224,379.386 500.279,379.234C500.343,379.06 499.907,378.719 499.122,378.287L499.122,378.277C499.163,375.517 499.229,372.758 499.322,369.999C499.417,367.176 499.539,364.355 499.685,361.535L499.692,361.406C499.871,361.376 500.052,361.344 500.235,361.312C504.962,360.465 508.694,359.19 508.564,358.466C508.435,357.746 504.534,357.841 499.842,358.675L499.842,358.672C499.942,356.966 500.049,355.261 500.165,353.556C500.289,351.752 500.422,349.95 500.564,348.148L500.579,347.958C504.47,347.884 507.39,347.396 507.399,346.761C507.409,346.135 504.591,345.566 500.79,345.366L500.805,345.188C501.014,342.728 501.238,340.27 501.479,337.813C501.734,335.204 502.008,332.596 502.299,329.991ZM540,460C547.487,459.069 555.702,458.663 564.312,458.692C572.923,458.722 581.929,459.188 591,460C574.333,429.183 556.667,421.271 540,460ZM460,460C452.513,459.069 444.298,458.663 435.688,458.692C427.077,458.722 418.071,459.188 409,460C425.667,429.183 443.333,421.271 460,460ZM580,360C614.556,362.75 629.292,382.858 636,410C650.144,373.122 648.705,336.448 630,300C611.82,319.485 594.363,339.216 580,360ZM420,360C385.444,362.75 370.708,382.858 364,410C349.856,373.122 351.295,336.448 370,300C388.18,319.485 405.637,339.216 420,360Z" style="fill:white;"/>
    </g>
</svg>
