<?xml version="1.0" encoding="UTF-8" standalone="no"?>
<!DOCTYPE svg PUBLIC "-//W3C//DTD SVG 1.1//EN" "http://www.w3.org/Graphics/SVG/1.1/DTD/svg11.dtd">
<svg width="100%" height="100%" viewBox="0 0 1000 1000" version="1.1" xmlns="http://www.w3.org/2000/svg" xmlns:xlink="http://www.w3.org/1999/xlink" xml:space="preserve" xmlns:serif="http://www.serif.com/" style="fill-rule:evenodd;clip-rule:evenodd;stroke-linejoin:round;stroke-miterlimit:2;">
    <g transform="matrix(11.465,0,0,11.465,-4868.47,-5527.33)">
        <path d="M467.252,536.858L467.291,536.858C474.347,536.858 480.077,542.588 480.077,549.646C480.077,556.704 474.347,562.435 467.291,562.435L467.214,562.435C460.157,562.435 454.428,556.704 454.428,549.646C454.428,542.588 460.157,536.858 467.214,536.858L467.252,536.858ZM467.291,507.979L469,509L470,507L473,509L474,506L477,508L478,507L480,510L481,509L484,512L484,509L487,511L488,510L490,512L493,514L496,513L498,516L498,514L499.5,516C499.602,523.519 499.111,531.184 498,539C500.24,537.272 501.563,536.903 502,537.845C502.663,539.273 503.155,547.302 498,551C494.586,559.037 485.247,559.964 476,561C482.029,556.47 482.179,549.032 480.893,545C479.397,540.309 475.391,535.835 467.252,535.004C459.114,535.835 455.108,540.309 453.612,545C452.325,549.032 452.475,556.47 458.505,561C449.257,559.964 439.919,559.037 436.505,551C431.349,547.302 431.842,539.273 432.505,537.845C432.942,536.903 434.264,537.272 436.505,539C435.393,531.184 434.903,523.519 435.005,516L436.505,514L436.505,516L438.505,513L441.505,514L444.505,512L446.505,510L447.505,511L450.505,509L450.505,512L453.505,509L454.505,510L456.505,507L457.505,508L460.505,506L461.505,509L464.505,507L465.505,509L467.214,507.979L467.214,507.933L467.252,507.956L467.291,507.933L467.291,507.979ZM439.006,525.957C439.026,525.729 439.197,525.544 439.422,525.507C445.416,524.506 451.499,525.283 457.603,526.51C457.831,526.555 457.997,526.752 458.004,526.983C458.131,530.811 457.769,534.512 456.993,538.106C456.954,538.287 456.817,538.432 456.638,538.482C450.838,540.093 445.04,540.048 439.24,536.424C439.107,536.341 439.021,536.201 439.007,536.045C438.706,532.682 438.714,529.319 439.006,525.957ZM495.498,525.957C495.478,525.729 495.307,525.544 495.082,525.507C489.088,524.506 483.006,525.283 476.901,526.51C476.674,526.555 476.508,526.752 476.5,526.983C476.374,530.811 476.735,534.512 477.511,538.106C477.55,538.287 477.687,538.432 477.866,538.482C483.666,540.093 489.465,540.048 495.265,536.424C495.398,536.341 495.484,536.201 495.498,536.045C495.799,532.682 495.791,529.319 495.498,525.957ZM439.97,526.432C439.722,529.523 439.719,532.615 439.981,535.706C445.347,538.974 450.713,539.035 456.079,537.598C456.768,534.3 457.101,530.91 457.016,527.413C451.294,526.281 445.594,525.566 439.97,526.432L439.97,526.432ZM494.534,526.432C494.783,529.523 494.786,532.615 494.524,535.706C489.158,538.974 483.791,539.035 478.426,537.598C477.736,534.3 477.404,530.91 477.488,527.413C483.21,526.281 488.911,525.566 494.534,526.432L494.534,526.432ZM499,537C499.292,536.758 500.878,536.234 501.5,536.5L501.5,534.217L502.5,534L502,532L503.5,532L502.5,529L503.5,529L502,523L505,523.5L502.5,517.5L506.5,519.5L502,514L507.5,515L500.5,507.5L503,508L497,504L499,503L494,499.5L495,499.5L488.5,496.5L491,496L487,495.5L493,494.5L480,494.5L487,492L479.5,493.5L482.5,490.5L474,492.5L475.5,489.5L469.5,491.5L470.5,489L462.5,492.5L461.5,491L457,493.5L458.5,490.5L452.5,494.5L453,492.5L446.5,497.5L446,495.5L442,500L442.5,496.5L437.5,503L436,502.5L431.5,508.5L430.5,511L429.5,514.5L431,513L429.5,518.5L431,517.5L429,522.5L430.5,522L430,528L431,527.5L431,531.5L432.5,531L431.5,536.5L433,536L436,538C434.885,533.231 434.363,525.069 434,516L436.5,513L437,514L438.5,512L441.5,513L444,511L446.5,508.5L447.5,510L451,508L451,510.5L453.5,508L454.5,509L456.5,506L457.5,507L461,505L462,508L464.5,506L466,508L467.5,506.5L468.5,508L470,505.5L472.5,507.5L473.5,505L477,507L478.5,505.5L480,509L481,507.5L483.248,510.5L483.5,508L486.5,510L488,509L490.5,511.5L493,513L496,512L497.5,514L497.5,512.5L500.5,516C500.393,523.333 500.05,529.667 499,537ZM452.505,530C450.849,530 449.505,531.344 449.505,533C449.505,534.656 450.849,536 452.505,536C454.16,536 455.505,534.656 455.505,533C455.505,531.344 454.16,530 452.505,530ZM482,530C483.656,530 485,531.344 485,533C485,534.656 483.656,536 482,536C480.344,536 479,534.656 479,533C479,531.344 480.344,530 482,530ZM439.465,523.502C446.041,522.98 452.44,523.41 458.628,524.987C458.896,525.055 459.057,525.328 458.989,525.595C458.921,525.863 458.649,526.024 458.381,525.956C452.299,524.406 446.008,523.985 439.544,524.498C439.269,524.52 439.028,524.315 439.006,524.04C438.984,523.764 439.19,523.523 439.465,523.502ZM495.04,523.502C488.464,522.98 482.064,523.41 475.876,524.987C475.609,525.055 475.447,525.328 475.515,525.595C475.584,525.863 475.856,526.024 476.124,525.956C482.206,524.406 488.497,523.985 494.96,524.498C495.236,524.52 495.477,524.315 495.498,524.04C495.52,523.764 495.315,523.523 495.04,523.502Z" style="fill:white;"/>
    </g>
</svg>
