<?xml version="1.0" encoding="UTF-8" standalone="no"?>
<!DOCTYPE svg PUBLIC "-//W3C//DTD SVG 1.1//EN" "http://www.w3.org/Graphics/SVG/1.1/DTD/svg11.dtd">
<svg width="100%" height="100%" viewBox="0 0 1000 1000" version="1.1" xmlns="http://www.w3.org/2000/svg" xmlns:xlink="http://www.w3.org/1999/xlink" xml:space="preserve" xmlns:serif="http://www.serif.com/" style="fill-rule:evenodd;clip-rule:evenodd;stroke-linejoin:round;stroke-miterlimit:2;">
    <g transform="matrix(0.994753,0,0,0.994753,21.7959,22.5171)">
        <path d="M488.815,28.629L490.197,28.711L491.765,28.81L493.141,28.904L494.471,29.002L495.754,29.105L496.988,29.213L498.17,29.326L499.293,29.445L500.341,29.568L501.208,29.682C501.59,29.734 501.955,29.788 502.301,29.843L514.666,46.562L527.53,47.404L528.081,46.438L528.599,45.555L529.11,44.708L529.438,44.176L530.036,43.232L530.206,42.971C530.445,42.604 530.688,42.239 530.936,41.875L531.576,40.959L532.099,40.239L532.654,39.502L533.029,39.023C534.795,39.441 536.555,39.868 538.306,40.302C538.983,39.308 539.694,38.331 540.434,37.398L542.511,37.895L543.412,38.113L545.005,38.503L546.596,38.897L548.185,39.297L549.773,39.702L551.362,40.112L552.953,40.528L554.548,40.951L555.391,41.176L556.737,41.539L558.533,42.03L560.34,42.532L561.793,42.94L563.336,43.379L564.774,43.792L566.463,44.284L568.017,44.742L569.596,45.212L571.267,45.717L572.766,46.175L574.377,46.673L576.023,47.188L577.43,47.633L579.114,48.172L580.728,48.694L582.144,49.158L583.805,49.708L585.373,50.233L586.815,50.721L588.449,51.28L589.953,51.8L591.445,52.322L593.048,52.889L594.416,53.377L596.07,53.974L597.48,54.488L599.054,55.068L600.583,55.637L602.007,56.172L603.623,56.786L605.097,57.353L606.489,57.892L608.263,58.587L609.716,59.163L611.157,59.739L612.594,60.319L613.904,60.852L615.474,61.498L616.903,62.092L618.303,62.679L619.854,63.335L621.22,63.919L622.667,64.543L624.166,65.196L625.551,65.805L627.026,66.459L628.425,67.086L629.849,67.729L631.293,68.388C633.656,69.471 636.001,70.571 638.327,71.686L638.955,71.987L640.782,72.872L642.591,73.759L643.973,74.443L645.727,75.32L647.465,76.199L648.811,76.886L650.542,77.779L651.302,78.175C651.791,78.43 652.28,78.686 652.768,78.943C653.541,79.349 654.311,79.757 655.078,80.167L656.311,80.828L657.433,81.434C658.949,82.256 660.457,83.086 661.955,83.922L662.564,84.263C662.882,84.441 663.199,84.62 663.517,84.799L665.156,85.728L666.863,86.707L668.211,87.487L669.893,88.471L671.205,89.245L672.826,90.211L674.516,91.231L675.793,92.008L676.596,92.5L676.687,92.932L676.755,93.372L676.802,93.819L676.83,94.284L676.837,94.499C676.844,94.849 676.837,95.207 676.815,95.574L676.778,96.068L676.733,96.496L676.634,97.22L676.505,97.962L676.362,98.652L676.171,99.454L675.918,100.391L675.63,101.345L675.318,102.283L675.023,103.113L674.721,103.912L674.519,104.426L674.335,104.881L674.114,105.412L673.893,105.929L673.468,106.89L673.13,107.623L672.621,108.693L672.368,109.208L671.84,110.254L744.738,182.096L745.107,180.754L745.454,179.539L745.802,178.363L746.156,177.203L746.518,176.054L746.889,174.914L747.267,173.781L747.655,172.654L748.05,171.534L748.454,170.421L748.867,169.313L749.287,168.211L749.715,167.115L750.152,166.024L750.373,165.48C750.597,164.932 750.824,164.385 751.054,163.841L751.771,164.716L752.659,165.812L753.348,166.669L754.199,167.738C754.667,168.331 755.133,168.925 755.596,169.52C756.49,167.043 757.447,164.61 758.459,162.216L759.387,163.351L760.169,164.316C760.592,164.842 761.014,165.369 761.433,165.898C762.332,167.032 763.219,168.17 764.093,169.313L764.933,170.415L765.728,171.472L766.35,172.306L766.949,173.116L767.74,174.198L768.601,175.389L769.46,176.592L770.517,178.094C771.782,179.908 773.017,181.731 774.222,183.564L774.712,184.313L775.179,185.032L775.637,185.743L776.088,186.451L776.535,187.155L776.977,187.859L777.415,188.561L777.849,189.263L778.279,189.965L778.706,190.667L779.13,191.369L779.55,192.072L779.967,192.775C781.229,194.91 782.448,197.056 783.626,199.214L784.065,200.023L784.857,201.502L785.621,202.958L786.365,204.403L787.094,205.844L787.807,207.282L788.506,208.721L789.191,210.16L789.863,211.599L790.515,213.025L791.157,214.459L791.826,215.986L792.422,217.378L793.001,218.759L793.566,220.136L794.119,221.513L794.391,222.201L794.669,222.913L795.192,224.279L795.72,225.689L796.153,226.871L796.575,228.048L796.998,229.252L797.434,230.525L797.809,231.642L798.277,233.071L798.644,234.221L798.853,234.888L799.28,236.278L799.668,237.578L800.085,239.017L800.468,240.38L800.833,241.718L801.216,243.17L801.532,244.405L801.895,245.878L802.176,247.053L802.441,248.196L802.657,249.159L802.899,250.264L803.133,251.368L803.332,252.339L803.561,253.492L803.743,254.44L803.958,255.594L804.131,256.559L804.326,257.692L804.491,258.681L804.668,259.79L804.823,260.807L804.982,261.89L805.139,263.012L805.271,264.001L805.418,265.161L805.535,266.134L805.666,267.285L805.772,268.271L805.886,269.402L805.981,270.41L806.077,271.517L806.166,272.607L806.242,273.632L806.321,274.8L806.38,275.77L806.444,276.943L806.491,277.919L806.538,279.074L806.573,280.07L806.605,281.201L806.627,282.223L806.643,283.327L806.652,284.485L806.654,285.458L806.648,286.65L806.636,287.617L806.615,288.795L806.59,289.778L806.553,290.934L806.515,291.941L806.464,293.072L806.403,294.227L806.346,295.209L806.266,296.421L806.152,297.966L806.053,299.16L805.91,300.731L805.748,302.341C804.58,313.342 802.311,324.05 799.021,334.417L799.503,335.473L800.25,337.127L800.798,338.355L801.605,340.187L802.396,342.01L803.175,343.832L803.559,344.743L804.071,345.968L804.688,347.461L805.05,348.346L805.506,349.469L805.929,350.523L806.281,351.409L806.644,352.329L807.042,353.345L807.39,354.242L807.769,355.227L808.14,356.201L808.487,357.121L808.881,358.173L809.228,359.109L809.845,360.791L810.328,362.129L810.969,363.933L811.382,365.111L811.903,366.615L812.52,368.429L813.029,369.948L813.613,371.721L813.985,372.868L814.579,374.727L814.918,375.805L815.515,377.734L815.787,378.624L816.315,380.382L816.681,381.618L816.952,382.546L817.265,383.63L817.792,385.487L818.112,386.63L818.581,388.339L818.981,389.823L819.369,391.289L819.754,392.769L820.134,394.252L820.503,395.725L820.873,397.23L821.226,398.691L821.694,400.673L822.151,402.66L822.375,403.655L822.597,404.65L822.815,405.647L823.032,406.649C823.104,406.988 823.176,407.327 823.248,407.667L823.483,408.788L823.712,409.898L823.926,410.954L824.274,412.703L824.532,414.038L824.854,415.736L825.104,417.088L825.409,418.783L825.646,420.134L825.992,422.166L826.161,423.183L826.326,424.2L826.489,425.218L826.649,426.237L826.805,427.256L826.959,428.276L827.109,429.297L827.257,430.319L827.402,431.341C827.789,434.106 828.143,436.88 828.464,439.664L828.597,440.834L828.716,441.908L828.83,442.972L828.94,444.029L829.046,445.082L829.149,446.133L829.249,447.181L829.345,448.228L829.438,449.274L829.528,450.32L829.614,451.365L829.698,452.411L829.778,453.456L829.855,454.502L829.929,455.547L830,456.594L830.067,457.64L830.132,458.687L830.193,459.734L830.251,460.782L830.306,461.83L830.371,463.14L830.443,464.741L830.504,466.25L830.563,467.892L830.608,469.32L830.66,471.257L830.685,472.394L830.71,473.735L830.726,474.759L830.739,475.785L830.748,476.815L830.755,477.847L830.759,478.882L830.76,479.919L830.757,480.958L830.752,481.999L830.743,483.042L830.732,484.086L830.717,485.131L830.699,486.177L830.678,487.224L830.654,488.272L830.626,489.32L830.574,491.079L830.526,492.467L830.458,494.196L830.397,495.614L830.315,497.32L830.24,498.757L830.143,500.456L830.055,501.896L829.943,503.604L829.843,505.027L829.689,507.07L829.586,508.363L829.471,509.734L829.339,511.244L829.189,512.874L828.988,514.93L828.886,515.931L828.781,516.934C828.276,521.698 827.677,526.43 826.984,531.142L827.959,531.171L828.231,531.174L829.251,531.165L829.853,531.145L830.852,531.089L831.459,531.04L832.436,530.937L832.683,530.907L833.498,530.792L834.258,530.667L835.237,530.48L835.812,530.355L836.762,530.126L837.342,529.971L838.262,529.703L838.846,529.517L839.735,529.212L840.666,528.862L841.464,528.536L842.46,528.095L843.163,527.761L844.027,527.32L844.543,527.044L845.348,526.586L845.886,526.265L846.868,525.642L847.569,525.167L848.488,524.505L849.375,523.82L849.974,523.329L850.562,522.825L851.139,522.307L851.825,521.658L852.527,520.955L853.061,520.392L853.582,519.817L854.142,519.167L854.854,518.29L855.387,517.593L856.056,516.658L856.695,515.7L857.153,514.965L857.654,514.109L858.033,513.42L858.396,512.72L858.744,512.011L859.075,511.292L859.39,510.564L859.68,509.847L859.982,509.044L860.252,508.268L860.51,507.464L860.748,506.651L861.02,505.61L861.204,504.816L861.369,504.015L861.515,503.206L861.642,502.389L861.75,501.566L861.876,500.297L861.917,499.732L861.961,498.88L861.978,498.321L861.984,497.192L861.952,496.076L861.923,495.523L861.837,494.416L861.735,493.485L861.645,492.807L861.54,492.132L861.358,491.128L861.195,490.347L861.147,490.133L863.777,489.418L866.235,488.738L867.537,488.373L869.499,487.815L872.065,487.074L873.852,486.55L876.561,485.743L878.298,485.218L880.389,484.577L882.803,483.826L884.726,483.219L887.221,482.42L889.03,481.832L891.17,481.128L893.302,480.417L895.426,479.7L897.857,478.866L899.648,478.244L901.987,477.421L903.835,476.763L906.251,475.891L907.987,475.256L910.05,474.494L912.104,473.725L914.149,472.951L916.585,472.016L918.21,471.385L918.872,471.126L920.448,470.506L922.045,469.872L923.714,469.204C924.713,468.802 925.707,468.398 926.698,467.992L928.442,467.275L929.993,466.631L932.125,465.736L933.1,465.324L933.039,466.15L932.98,467.316L932.908,469.077L932.84,470.875L932.677,475.313L932.625,476.67C932.605,477.192 932.584,477.715 932.564,478.237L932.497,479.867L932.422,481.615L932.347,483.257L932.268,484.899L932.233,485.582C932.204,486.152 932.174,486.722 932.143,487.29L932.075,488.488L931.996,489.806L931.931,490.835L931.827,492.374L931.702,494.041L931.586,495.457L931.466,496.789L931.394,497.515L931.273,498.653L931.177,499.474L931.034,500.573L930.95,501.157L930.885,501.576L914.166,513.941L913.324,526.805C916.048,528.337 919.058,530.204 921.705,532.304L921.071,534.948L920.692,536.502L920.426,537.581L921.193,538.113L921.92,538.635L922.628,539.164L923.33,539.709C911.282,590.595 892.252,636.776 868.228,675.871L867.804,675.96L867.365,676.029L866.921,676.076L866.28,676.111L865.676,676.111L865.035,676.083L864.48,676.035L863.963,675.975L863.406,675.893L862.839,675.794L862.265,675.679L861.449,675.49L860.498,675.239L859.516,674.946L858.784,674.709L858.01,674.441L857.262,674.167C857.093,674.102 856.924,674.038 856.755,673.973L856.244,673.771L855.744,673.567C855.408,673.429 855.075,673.288 854.743,673.143L853.803,672.727L853.105,672.406L852.009,671.883L850.933,671.349L850.474,671.115L778.632,744.013L779.888,744.358L781.165,744.722L782.109,745L782.733,745.188L783.385,745.388L784.093,745.609L784.932,745.876L785.697,746.125L786.614,746.43L787.354,746.681L788.273,747L789.019,747.263L789.901,747.581L790.667,747.862L791.468,748.162L792.297,748.478L793.004,748.751L793.907,749.107L794.621,749.393L795.487,749.746L796.223,750.051L796.887,750.329L796.383,750.742L795.124,751.766L793.894,752.755L793.003,753.463L791.957,754.286L791.208,754.871L792.005,755.161L792.586,755.377L793.402,755.684L794.182,755.982L794.864,756.248L795.667,756.565L796.42,756.868L797.111,757.15L797.899,757.477L798.512,757.734L797.606,758.475L796.793,759.136L795.65,760.055L794.826,760.711L794.079,761.301L793.222,761.972L792.45,762.572L791.634,763.201L790.794,763.842L790.052,764.405L789.183,765.058L788.39,765.649L787.585,766.243L786.731,766.869L785.993,767.405L785.111,768.04L784.298,768.62L783.505,769.181L782.636,769.79L781.902,770.301L781.008,770.916L780.177,771.484L779.392,772.015L778.51,772.606L777.779,773.092L776.875,773.687L776.026,774.24L775.249,774.742L774.355,775.314L773.626,775.776L772.712,776.35L771.847,776.888L771.077,777.362L770.171,777.915L769.444,778.354L768.52,778.906L767.641,779.426L766.876,779.874L765.961,780.406L765.219,780.832L764.302,781.352L762.969,782.099L761.725,782.786L760.977,783.193L760.059,783.688L758.724,784.397L757.468,785.053L756.732,785.433L755.792,785.912L754.447,786.587L753.191,787.207L752.451,787.567L751.506,788.021L750.619,788.442L749.825,788.815L748.898,789.245L748.145,789.59L747.201,790.016L746.336,790.403L745.511,790.766L744.593,791.165L743.821,791.497L742.882,791.895L741.533,792.457L739.969,793.093L738.784,793.565L737.613,794.022L736.011,794.633L734.462,795.208L732.873,795.782L731.421,796.292L730.623,796.567L729.517,796.941L728.275,797.351L726.865,797.806L726.051,798.063L725.226,798.318L723.968,798.7L722.377,799.169L721.033,799.552L719.414,799.999L718.22,800.318L717.339,800.548C715.824,800.939 714.305,801.309 712.783,801.658L711.327,801.986L709.645,802.348L708.635,802.557L707.899,802.705L707.214,802.841L706.445,802.989L705.678,803.133L704.319,803.379L703.553,803.513L702.86,803.631L702.003,803.773L700.675,803.984L699.814,804.115L698.834,804.258L697.924,804.386L697.025,804.507L696.053,804.633L695.23,804.735L694.233,804.852L693.288,804.958L692.433,805.05L691.446,805.149L690.582,805.231L689.638,805.316L688.679,805.396L687.843,805.462L686.854,805.534L685.949,805.594L685.075,805.648L684.203,805.697L683.354,805.74L682.063,805.798L680.889,805.841L679.685,805.876L678.176,805.907L676.743,805.925L675.857,805.929L674.93,805.928L674.092,805.923L673.149,805.912L672.337,805.898L671.395,805.877L670.593,805.855L669.387,805.814L668.146,805.762L666.546,805.681L665.326,805.609L664.06,805.524L662.453,805.402L661.241,805.3L659.975,805.183L658.386,805.022C647.386,803.855 636.677,801.586 626.311,798.296C571.079,823.641 508.549,834.928 443.793,828.056C439.029,827.551 434.298,826.952 429.585,826.259L429.559,827.121L429.555,828.097L429.568,828.737L429.603,829.562L429.669,830.518L429.731,831.179L429.822,831.967L429.955,832.898L430.16,834.071L430.367,835.061L430.577,835.937L430.769,836.662L431.104,837.79L431.478,838.902L431.915,840.063L432.252,840.88L432.632,841.735L432.728,841.939L433.14,842.786L433.241,842.982L433.684,843.818L433.792,844.011C434.021,844.423 434.259,844.829 434.505,845.23L434.957,845.946L435.336,846.517L436.03,847.502L436.668,848.346L437.189,848.997L437.948,849.888L438.684,850.698L439.495,851.531L440.12,852.134L440.956,852.897L441.849,853.657L442.795,854.405L443.385,854.845L444.331,855.51L445.318,856.154L446.005,856.573L446.779,857.019L447.365,857.338L448.041,857.688L449.114,858.205L449.854,858.533L450.695,858.882L451.325,859.125L452.053,859.389L452.992,859.7L453.697,859.914L454.374,860.104L455.153,860.303L456.097,860.518L456.767,860.654L457.553,860.795L458.399,860.925L459.324,861.043L459.576,861.071C463.365,861.473 467.075,861.227 470.594,860.422C470.942,861.712 471.293,862.999 471.647,864.279L472.363,866.838L472.908,868.756L473.589,871.119C473.704,871.512 473.819,871.904 473.933,872.297L474.156,873.052C474.464,874.098 474.775,875.141 475.09,876.184L475.583,877.812C475.894,878.834 476.208,879.853 476.524,880.869L477.043,882.525C477.358,883.527 477.675,884.527 477.995,885.524L478.533,887.192C478.854,888.18 479.177,889.167 479.503,890.152L480.053,891.809L480.582,893.383L481.118,894.964C481.494,896.067 481.873,897.167 482.254,898.264L482.994,900.376L483.617,902.135L484.28,903.985C485.167,906.449 486.068,908.895 486.981,911.321L487.573,912.888C487.946,913.869 488.32,914.846 488.697,915.821L488.777,916.027C489.145,916.98 489.515,917.93 489.888,918.877L490.547,920.546L491.164,922.093L491.779,923.621C492.147,924.534 492.518,925.443 492.89,926.35L493.58,928.024L494.228,929.582L494.963,931.332L495.404,932.375L494.633,932.317L493.42,932.256L491.818,932.189L489.878,932.116L485.524,931.956L483.697,931.886L481.113,931.783L479.726,931.724L478.325,931.662L476.915,931.596L475.488,931.526C475.009,931.501 474.53,931.476 474.05,931.451L472.425,931.361L471.256,931.292L469.688,931.193L468.312,931.099L466.982,931L465.699,930.897L464.465,930.789L463.283,930.676L462.16,930.558L461.111,930.435L460.244,930.321C459.863,930.269 459.497,930.215 459.151,930.159L446.787,913.441L433.923,912.599L433.372,913.565L432.854,914.448L432.343,915.295L432.015,915.827L431.417,916.771L431.247,917.032C431.008,917.398 430.764,917.764 430.516,918.127L429.877,919.044L429.354,919.764L428.798,920.5L428.424,920.98C426.658,920.562 424.898,920.135 423.147,919.701C422.47,920.695 421.759,921.672 421.019,922.605L418.942,922.108L418.041,921.89L416.448,921.5L414.857,921.105L413.268,920.706L411.68,920.301L410.091,919.891L408.5,919.475L406.905,919.052L406.061,918.827L404.716,918.464L402.92,917.972L401.113,917.471L399.66,917.063L398.117,916.624L396.678,916.211L394.99,915.719L393.436,915.261L391.857,914.79L390.186,914.286L388.687,913.828L387.076,913.33L385.429,912.815L384.023,912.37L382.339,911.831L380.725,911.308L379.309,910.845L377.648,910.295L376.08,909.77L374.638,909.282L373.003,908.722L371.5,908.202L370.008,907.681L368.405,907.114L367.037,906.626L365.383,906.029L363.973,905.515L362.399,904.935L360.87,904.366L359.446,903.831L357.83,903.216L356.355,902.65L354.964,902.111L353.19,901.416L351.737,900.84L350.296,900.264L348.859,899.684L347.549,899.151L345.979,898.505L344.55,897.911L343.15,897.324L341.599,896.668L340.233,896.084L338.786,895.46L337.287,894.807L335.902,894.198L334.427,893.544L333.028,892.917L331.604,892.273L330.16,891.615C327.796,890.532 325.452,889.432 323.125,888.317L322.498,888.015L320.671,887.131L318.862,886.244L317.48,885.56L315.726,884.683L313.988,883.804L312.642,883.116L310.911,882.223L310.151,881.828C309.662,881.573 309.173,881.317 308.684,881.06C307.912,880.654 307.142,880.246 306.374,879.836L305.142,879.175L304.02,878.568C302.503,877.746 300.996,876.917 299.498,876.08L298.889,875.74C298.571,875.561 298.253,875.383 297.936,875.204L296.297,874.275L294.59,873.296L293.242,872.516L291.56,871.532L290.248,870.758L288.627,869.791L286.936,868.772L285.66,867.995L284.856,867.503L284.766,867.071L284.698,866.631L284.651,866.184L284.623,865.719L284.616,865.503C284.609,865.154 284.616,864.796 284.638,864.429L284.675,863.935L284.72,863.507L284.819,862.783L284.948,862.041L285.09,861.351L285.281,860.549L285.535,859.612L285.823,858.658L286.134,857.72L286.43,856.89L286.732,856.091L286.934,855.577L287.118,855.122L287.339,854.591L287.56,854.074L287.985,853.113L288.323,852.379L288.832,851.31L289.085,850.794L289.612,849.749L216.715,777.907L216.346,779.249L215.999,780.464L215.651,781.64L215.297,782.799L214.935,783.948L214.564,785.089L214.185,786.222L213.798,787.349L213.402,788.468L212.998,789.582L212.586,790.69L212.166,791.792L211.738,792.888L211.301,793.979L211.08,794.523C210.856,795.071 210.629,795.617 210.399,796.162L209.682,795.287L208.793,794.191L208.105,793.334L207.254,792.264C206.785,791.672 206.32,791.078 205.857,790.483C204.963,792.96 204.006,795.393 202.994,797.787L202.065,796.652L201.284,795.687C200.86,795.161 200.439,794.634 200.02,794.105C199.121,792.971 198.234,791.833 197.36,790.69L196.52,789.588L195.725,788.531L195.103,787.697L194.504,786.887L193.713,785.805L192.852,784.614L191.993,783.411L190.936,781.909C189.671,780.095 188.436,778.272 187.231,776.438L186.741,775.69L186.274,774.971L185.816,774.26L185.365,773.552L184.918,772.847L184.476,772.144L184.038,771.441L183.604,770.739L183.173,770.038L182.746,769.336L182.323,768.633L181.903,767.931L181.486,767.228C180.224,765.093 179.005,762.947 177.827,760.789L177.388,759.98L176.596,758.5L175.832,757.045L175.087,755.6L174.359,754.159L173.646,752.72L172.947,751.282L172.261,749.843L171.589,748.403L170.938,746.978L170.296,745.544L169.627,744.017L169.031,742.625L168.452,741.244L167.886,739.867L167.334,738.49L167.062,737.801L166.784,737.09L166.261,735.724L165.732,734.313L165.299,733.132L164.878,731.955L164.455,730.751L164.018,729.478L163.643,728.361L163.176,726.932L162.808,725.782L162.599,725.115L162.173,723.725L161.785,722.425L161.368,720.986L160.985,719.623L160.62,718.285L160.237,716.833L159.921,715.598L159.558,714.125L159.277,712.95L159.012,711.807L158.795,710.844L158.554,709.739L158.32,708.634L158.121,707.664L157.892,706.511L157.709,705.562L157.495,704.409L157.322,703.444L157.127,702.31L156.962,701.322L156.785,700.212L156.629,699.196L156.471,698.113L156.314,696.991L156.182,696.002L156.035,694.842L155.917,693.869L155.787,692.718L155.681,691.732L155.567,690.601L155.472,689.593L155.375,688.486L155.287,687.395L155.211,686.371L155.132,685.203L155.073,684.233L155.009,683.06L154.962,682.084L154.915,680.929L154.88,679.933L154.848,678.802L154.826,677.779L154.81,676.676L154.8,675.518L154.799,674.545L154.805,673.353L154.816,672.386L154.838,671.208L154.863,670.225L154.9,669.069L154.938,668.062L154.989,666.931L155.049,665.776L155.107,664.793L155.187,663.582L155.301,662.037L155.4,660.843L155.543,659.272L155.705,657.661C156.873,646.661 159.141,635.952 162.432,625.586L161.95,624.529L161.202,622.875L160.654,621.648L159.847,619.816L159.056,617.993L158.278,616.171L157.894,615.26L157.381,614.034L156.764,612.542L156.403,611.657L155.947,610.534L155.524,609.48L155.172,608.594L154.808,607.674L154.411,606.658L154.063,605.761L153.684,604.776L153.313,603.801L152.965,602.882L152.572,601.83L152.224,600.894L151.608,599.212L151.125,597.874L150.483,596.07L150.07,594.892L149.55,593.388L148.932,591.574L148.424,590.055L147.84,588.282L147.468,587.135L146.874,585.276L146.535,584.198L145.938,582.269L145.666,581.378L145.138,579.621L144.772,578.384L144.501,577.457L144.188,576.372L143.66,574.516L143.341,573.372L142.872,571.664L142.472,570.18L142.083,568.713L141.698,567.234L141.319,565.75L140.95,564.278L140.579,562.772L140.227,561.312L139.758,559.33L139.302,557.343L139.077,556.348L138.856,555.352L138.638,554.356L138.421,553.354C138.349,553.015 138.277,552.675 138.205,552.336L137.97,551.215L137.741,550.105L137.527,549.049L137.179,547.299L136.92,545.965L136.599,544.266L136.349,542.915L136.044,541.22L135.807,539.869L135.461,537.837L135.292,536.82L135.126,535.803L134.964,534.785L134.804,533.766L134.648,532.747L134.494,531.726L134.343,530.706L134.196,529.684L134.051,528.662C133.664,525.896 133.31,523.123 132.989,520.339L132.856,519.169L132.737,518.095L132.623,517.031L132.513,515.974L132.407,514.921L132.304,513.87L132.204,512.822L132.108,511.775L132.015,510.728L131.925,509.683L131.839,508.637L131.755,507.592L131.675,506.547L131.598,505.501L131.524,504.455L131.453,503.409L131.386,502.363L131.321,501.316L131.26,500.269L131.201,499.221L131.146,498.173L131.082,496.862L131.01,495.262L130.949,493.752L130.89,492.111L130.845,490.683L130.793,488.746L130.768,487.609L130.743,486.267L130.727,485.244L130.714,484.218L130.704,483.188L130.698,482.156L130.694,481.121L130.693,480.084L130.695,479.045L130.701,478.004L130.709,476.961L130.721,475.917L130.736,474.872L130.754,473.826L130.775,472.779L130.799,471.731L130.826,470.682L130.879,468.924L130.927,467.536L130.994,465.807L131.056,464.389L131.138,462.682L131.213,461.245L131.31,459.547L131.398,458.107L131.51,456.399L131.61,454.976L131.764,452.933L131.867,451.64L131.981,450.269L132.114,448.759L132.264,447.129L132.465,445.073L132.566,444.072L132.671,443.068C133.177,438.304 133.776,433.573 134.469,428.86L133.494,428.832L133.222,428.829L132.202,428.837L131.6,428.857L130.601,428.914L129.993,428.963L129.017,429.065L128.77,429.096L127.954,429.21L127.195,429.335L126.216,429.523L125.641,429.648L124.691,429.877L124.111,430.032L123.191,430.3L122.606,430.486L121.718,430.791L120.787,431.141L119.989,431.467L118.993,431.907L118.29,432.242L117.426,432.682L116.91,432.959L116.104,433.417L115.567,433.738L114.584,434.361L113.884,434.836L112.965,435.498L112.078,436.183L111.479,436.674L110.891,437.178L110.314,437.696L109.628,438.345L108.925,439.047L108.392,439.61L107.871,440.186L107.311,440.836L106.599,441.713L106.066,442.41L105.396,443.345L104.758,444.303L104.3,445.038L103.799,445.894L103.42,446.583L103.056,447.282L102.709,447.991L102.378,448.71L102.063,449.439L101.773,450.156L101.47,450.959L101.201,451.734L100.943,452.538L100.705,453.352L100.433,454.393L100.249,455.187L100.084,455.988L99.938,456.797L99.811,457.614L99.703,458.437L99.577,459.706L99.536,460.271L99.492,461.123L99.475,461.682L99.469,462.811L99.5,463.927L99.53,464.48L99.616,465.587L99.718,466.518L99.808,467.196L99.913,467.87L100.094,468.875L100.258,469.656L100.306,469.869L97.675,470.584L95.217,471.265L93.916,471.63L91.954,472.188L89.388,472.928L87.601,473.452L84.892,474.26L83.155,474.785L81.064,475.426L78.65,476.177L76.727,476.784L74.232,477.583L72.423,478.17L70.283,478.874L68.151,479.585L66.027,480.303L63.596,481.137L61.805,481.759L59.466,482.582L57.618,483.24L55.202,484.112L53.465,484.747L51.403,485.509L49.349,486.278L47.304,487.052L44.868,487.987L43.243,488.618L42.581,488.877L41.004,489.497L39.408,490.13L37.739,490.799C36.74,491.201 35.745,491.605 34.755,492.01L33.011,492.728L31.46,493.372L29.328,494.266L28.353,494.679L28.414,493.853L28.472,492.687L28.545,490.926L28.613,489.128L28.776,484.69L28.827,483.333C28.848,482.81 28.868,482.288 28.889,481.766L28.956,480.136L29.031,478.387L29.106,476.746L29.185,475.104L29.219,474.421C29.249,473.85 29.279,473.281 29.31,472.713L29.378,471.514L29.456,470.197L29.522,469.167L29.626,467.629L29.751,465.961L29.867,464.546L29.987,463.214L30.059,462.487L30.18,461.35L30.276,460.529L30.419,459.43L30.503,458.846L30.568,458.426L47.287,446.062L48.129,433.198C45.405,431.666 42.395,429.799 39.748,427.699L40.381,425.055L40.761,423.501L41.027,422.422L40.26,421.89L39.533,421.367L38.824,420.839L38.123,420.294C50.171,369.408 69.2,323.226 93.225,284.132L93.649,284.042L94.088,283.974L94.532,283.926L95.173,283.892L95.777,283.891L96.418,283.92L96.973,283.967L97.49,284.028L98.047,284.109L98.614,284.209L99.188,284.324L100.004,284.512L100.955,284.764L101.937,285.056L102.669,285.294L103.443,285.562L104.191,285.836C104.36,285.9 104.529,285.965 104.697,286.03L105.209,286.232L105.709,286.435C106.044,286.574 106.378,286.715 106.71,286.859L107.65,287.276L108.347,287.597L109.444,288.12L110.52,288.653L110.979,288.887L182.821,215.99L181.565,215.645L180.288,215.28L179.343,215.003L178.72,214.815L178.068,214.615L177.359,214.394L176.521,214.127L175.756,213.878L174.839,213.573L174.098,213.322L173.18,213.003L172.433,212.74L171.551,212.422L170.785,212.14L169.984,211.841L169.155,211.525L168.448,211.252L167.546,210.896L166.832,210.61L165.966,210.257L165.23,209.952L164.566,209.674L165.07,209.261L166.329,208.237L167.559,207.248L168.45,206.54L169.496,205.717L170.245,205.132L169.448,204.841L168.866,204.626L168.051,204.319L167.271,204.02L166.589,203.755L165.786,203.437L165.033,203.135L164.342,202.853L163.554,202.526L162.941,202.269L163.846,201.527L164.66,200.867L165.803,199.948L166.627,199.292L167.374,198.702L168.231,198.03L169.003,197.431L169.819,196.802L170.658,196.161L171.4,195.598L172.27,194.945L173.063,194.354L173.867,193.76L174.722,193.134L175.46,192.598L176.342,191.963L177.154,191.383L177.948,190.821L178.817,190.212L179.551,189.702L180.444,189.087L181.276,188.519L182.061,187.988L182.943,187.397L183.674,186.911L184.578,186.316L185.427,185.763L186.203,185.261L187.098,184.688L187.827,184.226L188.741,183.652L189.606,183.115L190.376,182.64L191.282,182.088L192.009,181.649L192.933,181.097L193.811,180.577L194.576,180.128L195.492,179.597L196.234,179.171L197.151,178.65L198.483,177.903L199.727,177.217L200.476,176.81L201.394,176.315L202.729,175.606L203.985,174.95L204.721,174.57L205.66,174.091L207.006,173.416L208.262,172.796L209.002,172.436L209.947,171.981L210.834,171.56L211.628,171.188L212.555,170.758L213.308,170.413L214.251,169.986L215.117,169.6L215.942,169.236L216.86,168.837L217.632,168.505L218.571,168.108L219.92,167.546L221.484,166.909L222.669,166.438L223.84,165.981L225.441,165.37L226.991,164.795L228.58,164.221L230.032,163.711L230.83,163.436L231.935,163.062L233.177,162.651L234.588,162.197L235.402,161.94L236.227,161.684L237.485,161.302L239.075,160.834L240.42,160.451L242.038,160.004L243.233,159.685L244.114,159.455C245.629,159.064 247.148,158.694 248.669,158.344L250.125,158.017L251.808,157.655L252.818,157.446L253.554,157.297L254.239,157.162L255.008,157.014L255.775,156.87L257.133,156.624L257.9,156.49L258.593,156.372L259.45,156.23L260.778,156.019L261.638,155.888L262.619,155.745L263.529,155.617L264.428,155.495L265.4,155.37L266.223,155.268L267.22,155.15L268.165,155.045L269.02,154.953L270.006,154.854L270.87,154.771L271.815,154.687L272.774,154.606L273.609,154.541L274.599,154.469L275.504,154.408L276.378,154.355L277.25,154.306L278.099,154.263L279.39,154.205L280.564,154.162L281.768,154.127L283.277,154.095L284.71,154.078L285.595,154.074L286.523,154.075L287.361,154.08L288.304,154.091L289.116,154.105L290.058,154.126L290.86,154.148L292.066,154.189L293.307,154.241L294.907,154.322L296.127,154.394L297.393,154.479L299,154.6L300.212,154.703L301.478,154.82L303.066,154.98C314.067,156.148 324.775,158.417 335.142,161.707C390.374,136.362 452.904,125.075 517.659,131.946C522.423,132.452 527.155,133.051 531.867,133.744L531.894,132.882L531.898,131.906L531.884,131.266L531.849,130.441L531.784,129.485L531.722,128.824L531.63,128.036L531.498,127.104L531.293,125.932L531.086,124.941L530.876,124.065L530.684,123.341L530.349,122.213L529.975,121.1L529.538,119.94L529.2,119.123L528.82,118.268L528.725,118.064L528.312,117.217L528.212,117.021L527.769,116.185L527.661,115.992C527.432,115.58 527.194,115.174 526.948,114.773L526.496,114.056L526.117,113.486L525.422,112.5L524.785,111.657L524.263,111.006L523.505,110.115L522.768,109.305L521.957,108.472L521.333,107.868L520.496,107.106L519.604,106.346L518.658,105.598L518.068,105.158L517.122,104.493L516.134,103.849L515.448,103.43L514.674,102.984L514.088,102.665L513.412,102.315L512.339,101.798L511.599,101.47L510.758,101.121L510.128,100.878L509.4,100.614L508.461,100.302L507.756,100.088L507.079,99.899L506.3,99.7L505.356,99.484L504.685,99.349L503.9,99.208L503.054,99.077L502.129,98.959L501.876,98.931C498.087,98.529 494.378,98.776 490.858,99.581C490.511,98.291 490.16,97.004 489.805,95.724L489.09,93.165L488.545,91.246L487.864,88.884C487.749,88.491 487.634,88.098 487.519,87.706L487.297,86.951C486.989,85.905 486.678,84.862 486.363,83.819L485.87,82.191C485.558,81.169 485.245,80.15 484.928,79.134L484.41,77.478C484.095,76.476 483.778,75.476 483.457,74.479L482.92,72.811C482.599,71.822 482.276,70.836 481.95,69.851L481.399,68.193L480.871,66.62L480.335,65.038C479.959,63.935 479.58,62.836 479.198,61.739L478.459,59.627L477.836,57.867L477.173,56.018C476.286,53.554 475.385,51.108 474.472,48.682L473.879,47.115C473.507,46.134 473.132,45.156 472.756,44.182L472.676,43.976C472.308,43.023 471.937,42.073 471.565,41.126L470.905,39.457L470.289,37.91L469.674,36.382C469.305,35.469 468.935,34.559 468.563,33.653L467.873,31.979L467.225,30.421L466.49,28.671L466.049,27.628L466.82,27.686L468.032,27.747L469.635,27.814L471.575,27.887L475.929,28.047L477.755,28.116L480.34,28.22L481.727,28.279L483.128,28.341L484.538,28.407L485.964,28.477C486.444,28.502 486.923,28.527 487.403,28.551L488.815,28.629ZM248.538,623.419L210.395,619.371L211.302,701.434L298.301,836.026L296.277,855.098C335.722,881.332 375.764,897.227 416.194,906.395C396.802,891.652 379.353,873.837 364.039,852.645C360.813,836.231 357.937,819.854 356.702,803.651C345.171,800.237 333.787,795.441 322.432,790.371L310.778,766.956C288.403,759.244 275.327,747.96 269.548,736.544C261.197,720.05 260.361,700.079 280.61,684.681L282.633,665.609L248.538,623.419ZM620.096,750.333L702.159,749.425L836.752,662.427L855.823,664.451C882.057,625.006 897.952,584.964 907.12,544.533C892.378,563.926 874.562,581.374 853.37,596.688C836.956,599.915 820.579,602.791 804.376,604.026C800.962,615.557 796.166,626.941 791.097,638.296L767.681,649.95C759.97,672.325 748.685,685.401 737.269,691.18C720.775,699.53 700.804,700.367 685.406,680.118L666.334,678.094L624.144,712.19L620.096,750.333ZM709.501,347.773L650.451,388.347C652.448,394.91 656.732,401.885 661.836,409.008C719.395,407.3 750.347,448.663 707.2,481.323L702.36,526.928C737.692,567.916 698.749,601.862 642.831,588.113C636.345,594.006 630.693,599.927 627.363,605.925L676.298,657.686C667.159,667.693 657.28,676.971 646.753,685.446C594.197,728.078 525.366,750.623 452.827,742.926C380.273,735.227 317.696,698.726 275.266,646.008C266.755,635.517 259.045,624.376 252.219,612.687L310.929,572.348C308.931,565.784 304.648,558.809 299.544,551.686C241.985,553.394 211.033,512.031 254.18,479.371L259.019,433.766C223.687,392.778 262.63,358.832 318.549,372.581C325.034,366.688 330.686,360.767 334.016,354.769L284.798,302.708C294.026,292.561 304.031,283.146 314.7,274.557C367.256,231.925 436.087,209.38 508.626,217.077C581.179,224.776 643.757,261.277 686.187,313.994C694.808,324.622 702.608,335.917 709.501,347.773ZM331.356,372.406L330.765,373.225L330.227,373.98L329.168,375.488L328.623,376.278L328.094,377.052L327.341,378.169L326.553,379.357L326.036,380.148L325.575,380.86C309.448,370.479 295.681,372.996 284.273,388.414C277.116,403.643 271.802,419.551 268.365,435.811L268.11,437.032C267.862,438.239 267.625,439.448 267.397,440.659L267.115,442.195L266.821,443.859L266.74,444.336L266.428,446.219L266.103,448.306L265.857,449.977L265.705,451.061L265.44,453.05L265.199,455L265.005,456.678L264.884,457.797L264.68,459.809L264.503,461.719L264.365,463.362L264.265,464.673L264.119,466.77L264.017,468.456L263.96,469.519L263.871,471.408L263.791,473.519L263.745,475.08C263.713,476.311 263.692,477.544 263.681,478.777L263.673,480.024C263.622,496.643 265.479,513.312 269.28,529.704C277.199,547.172 290.131,552.523 308.077,545.757L308.428,546.679L308.77,547.564L309.239,548.759L309.787,550.122L310.147,551.003L310.5,551.853L311.21,553.527L311.587,554.396L311.955,555.236C316.529,565.589 322.059,575.523 328.482,584.903C311.37,598.142 309.614,613.174 323.212,630.001C341.437,649.219 363.027,664.938 386.914,676.38C407.104,684.154 420.871,677.865 428.213,657.514C449.797,663.915 472.37,666.311 494.817,664.582C497.725,686.02 509.866,695.058 531.237,691.695C556.993,685.52 581.401,674.682 603.254,659.717C620.081,646.119 621.518,631.052 607.565,614.518C615.815,606.694 623.305,598.142 629.951,588.979L630.541,588.16L631.079,587.406L632.138,585.897L632.684,585.108L633.212,584.333L633.965,583.217L634.753,582.028L635.27,581.238L635.731,580.525C651.858,590.907 665.625,588.389 677.033,572.972C684.19,557.742 689.504,541.834 692.941,525.575L693.196,524.353C693.444,523.147 693.681,521.937 693.909,520.726L694.191,519.19L694.485,517.526L694.566,517.049L694.878,515.166L695.203,513.079L695.449,511.408L695.601,510.324L695.866,508.335L696.107,506.385L696.301,504.708L696.359,504.177L696.549,502.359L696.753,500.227L696.898,498.545L696.941,498.023L697.042,496.713L697.187,494.615L697.289,492.929L697.346,491.867L697.435,489.977L697.515,487.866L697.561,486.305C697.593,485.075 697.614,483.842 697.625,482.609L697.633,481.361C697.684,464.743 695.827,448.074 692.026,431.681C684.107,414.213 671.175,408.862 653.229,415.628L652.878,414.707L652.536,413.821L652.067,412.626L651.519,411.263L651.159,410.383L650.806,409.532L650.096,407.858L649.72,406.989L649.351,406.149C644.777,395.796 639.248,385.862 632.824,376.482C649.936,363.244 651.693,348.211 638.094,331.384C619.869,312.166 598.279,296.447 574.392,285.005C554.202,277.232 540.436,283.52 533.093,303.871C511.509,297.47 488.936,295.075 466.489,296.804C463.581,275.365 451.441,266.327 430.069,269.691C404.313,275.865 379.905,286.703 358.052,301.668C341.225,315.267 339.788,330.333 353.741,346.868C345.492,354.691 338.001,363.244 331.356,372.406ZM494.819,347.192C568.5,355.011 621.972,421.178 614.154,494.859C606.335,568.54 540.168,622.012 466.487,614.193C392.806,606.375 339.334,540.208 347.152,466.527C354.971,392.846 421.138,339.374 494.819,347.192ZM341.356,209.67L259.293,210.578L124.701,297.576L105.63,295.552C79.396,334.997 63.501,375.039 54.333,415.469C69.075,396.077 86.891,378.628 108.082,363.314C124.497,360.088 140.874,357.212 157.077,355.977C160.49,344.446 165.287,333.062 170.356,321.707L193.772,310.053C201.483,287.678 212.768,274.602 224.184,268.823C240.678,260.472 260.649,259.636 276.047,279.885L295.118,281.908L337.309,247.813L341.356,209.67ZM751.058,340.631L750.15,258.569L663.152,123.976L665.176,104.905C625.731,78.671 585.689,62.776 545.258,53.608C564.651,68.35 582.1,86.166 597.414,107.358C600.64,123.772 603.516,140.149 604.751,156.352C616.282,159.766 627.666,164.562 639.021,169.631L650.675,193.047C673.05,200.758 686.126,212.043 691.905,223.459C700.256,239.953 701.092,259.924 680.843,275.322L678.82,294.393L712.915,336.584L751.058,340.631Z" style="fill:white;"/>
    </g>
</svg>
