<?xml version="1.0" encoding="UTF-8" standalone="no"?>
<!DOCTYPE svg PUBLIC "-//W3C//DTD SVG 1.1//EN" "http://www.w3.org/Graphics/SVG/1.1/DTD/svg11.dtd">
<svg width="100%" height="100%" viewBox="0 0 1000 1000" version="1.1" xmlns="http://www.w3.org/2000/svg" xmlns:xlink="http://www.w3.org/1999/xlink" xml:space="preserve" xmlns:serif="http://www.serif.com/" style="fill-rule:evenodd;clip-rule:evenodd;stroke-linejoin:round;stroke-miterlimit:2;">
    <g transform="matrix(2.942,0,0,2.942,-1330.86,-1087.07)">
        <path d="M519.954,619.665C518.985,623.144 518.085,626.608 517.2,630C517.606,626.721 518.583,623.23 519.954,619.665C524.589,603.007 530.78,586.003 544.21,575C581.957,544.074 615.727,524.934 639,510.725C678.648,486.52 691.202,447.311 670,414.118C669.101,447.751 642.667,481.125 600,514.334C611.497,495.531 609.361,483.234 605,472C604.832,489.319 597.148,510.879 579,522C561.454,532.752 553.633,542.937 540,553.906C552.762,537.068 549.179,531.668 547.652,530C543.371,534.263 542.915,542.467 538,546.304C526.799,555.047 516.361,572.13 513.021,594C509.197,619.034 503.365,644.43 497.636,650C493.612,653.912 489.25,658.461 484,659.384C477.509,660.526 473.481,666.58 469.36,669.763C478.785,673.116 488.241,672.926 498,662C498.675,666.232 499.824,670.354 503,674C504.568,670.667 504.67,667.333 504,664C505.383,667.347 507.444,670.447 511,673C513.472,669.226 514.812,665.278 514,661C515.141,662.63 517.277,663.53 520,664C521.186,661.333 521.186,658.667 520,656C524.154,659.02 529.304,661.491 538,662C539.192,658.333 538.468,654.667 536,651C540.902,653.401 545.588,656.337 552,655C552.556,651.667 551.508,648.333 549,645C556.5,648.62 564.13,652.039 574,652C574.896,648.692 569.601,640.618 561,630C575.024,642.637 590.081,654.034 613,656C608.316,640.602 592.911,627.529 575,615C606.108,628.757 636.936,638.382 666,622C654.951,612.013 627.802,604.581 589,599C656.271,607.031 700.921,601.196 715.558,576.965C699.237,558.489 642.589,576.183 592,580C638.781,570.337 685.715,561.292 715.369,545.75C734.04,535.963 739.783,517.092 735.133,496.328C694.703,532.557 644.012,545.509 594,560C644.449,538.113 688.972,517.84 715.39,495C743.274,470.892 743.164,437.747 726.246,404.902C732.203,418.011 691.588,487.886 640,514.482C637.271,515.889 609.549,532.726 585,550C565.912,563.432 548.57,576.944 545.815,580C539.73,586.749 526.005,603.928 519.954,619.665ZM555,650C558.605,657.249 561.938,661.448 565.079,663.486C568.219,665.524 571.166,665.4 574,664C568.493,656.861 562.541,651.055 555,650ZM600,629C608.174,638.164 616.395,645.503 624.712,649.131C633.029,652.759 641.442,652.677 650,647C640.339,638.238 622.85,632.563 600,629ZM724.55,600C734.303,596.991 744.413,594.782 751,600.057C757.018,604.876 764.934,611.818 775.274,620C768.111,622.685 758.453,622.342 750,616.063C742.767,610.691 734.067,605.062 724.55,600ZM711,609C702.987,603.373 694.302,601.603 685.212,602.154C676.123,602.706 666.63,605.577 657,609.23C675.273,616.116 693.399,619.23 711,609ZM760,430C751.397,439.742 745.15,449.738 742.38,460C739.04,472.372 730.237,482.753 724.55,494.619C755.328,475.506 767.443,454.005 760,430Z" style="fill:white;"/>
    </g>
</svg>
