<?xml version="1.0" encoding="UTF-8" standalone="no"?>
<!DOCTYPE svg PUBLIC "-//W3C//DTD SVG 1.1//EN" "http://www.w3.org/Graphics/SVG/1.1/DTD/svg11.dtd">
<svg width="100%" height="100%" viewBox="0 0 1000 1000" version="1.1" xmlns="http://www.w3.org/2000/svg" xmlns:xlink="http://www.w3.org/1999/xlink" xml:space="preserve" xmlns:serif="http://www.serif.com/" style="fill-rule:evenodd;clip-rule:evenodd;stroke-linejoin:round;stroke-miterlimit:2;">
    <g transform="matrix(5.39679,0,0,5.39679,-2198.39,-2044.53)">
        <path d="M499.385,546.977C493.074,546.754 488.303,547.103 485,548L485,523C477.168,515.907 470.052,508.652 468.453,500C468.336,499.367 468.224,498.735 468.116,498.106C468.079,498.237 468.04,498.369 468,498.5C463.463,495.122 461.092,490.567 461.5,484.5C463.608,484.602 465.359,485.599 466.721,487.573C465.123,470.163 467.376,454.433 475,445.052C480.1,438.777 487.603,435.344 497.967,436.149C497.522,436.637 497.25,437.287 497.25,438C497.25,439.518 498.482,440.75 500,440.75C501.518,440.75 502.75,439.518 502.75,438C502.75,437.287 502.478,436.637 502.033,436.149C512.397,435.344 519.9,438.777 525,445.052C532.624,454.433 534.877,470.163 533.279,487.573C534.641,485.599 536.392,484.602 538.5,484.5C538.908,490.567 536.537,495.122 532,498.5C531.96,498.369 531.921,498.237 531.884,498.106C531.776,498.735 531.664,499.367 531.547,500C529.948,508.652 522.832,515.907 515,523L515,548C511.697,547.103 506.926,546.754 500.615,546.977L500,547L499.385,546.977ZM499.636,433.996C468.83,433.736 464.593,456.828 465,484C463.259,483.298 461.832,483.234 460.5,483.5C459.882,489.721 461.807,495.131 467,499.5C468.981,509.39 475.412,517.151 483.5,523.5L483.5,547.5C434.997,534.895 410.094,497.914 418.093,457C420.502,444.673 426.734,432.662 439.38,422C447.876,414.836 461.405,409.562 481.5,407C484.105,403.352 487.76,400.464 492,398C489.967,396.863 487.567,396.3 485,396L486,395C488.697,394.848 491,395.582 493,397L500,398L507,397C509,395.582 511.303,394.848 514,395L515,396C512.433,396.3 510.033,396.863 508,398C512.24,400.464 515.895,403.352 518.5,407C538.595,409.562 552.124,414.836 560.62,422C573.266,432.662 579.498,444.673 581.907,457C589.906,497.914 565.003,534.895 516.5,547.5L516.5,523.5C524.588,517.151 531.019,509.39 533,499.5C538.193,495.131 540.118,489.721 539.5,483.5C538.168,483.234 536.741,483.298 535,484C535.408,456.721 531.137,433.555 500,434L499.636,433.996ZM500,502C503.673,501.42 505.359,499.666 505.5,497C505.544,495.261 503.341,495.005 500,495.5L500,497C501.619,497.34 503.433,497.37 505.5,497C504.455,498.166 502.712,498.861 500,499L500,502ZM500,495.5L500,497C498.381,497.34 496.567,497.37 494.5,497C495.545,498.166 497.288,498.861 500,499L500,502C496.327,501.42 494.641,499.666 494.5,497C494.456,495.261 496.659,495.005 500,495.5ZM505,483.5C506.584,486.673 506.13,489.138 502.5,490.5C503.839,490.738 505.017,490.986 505.627,490.5C508.18,488.469 508.387,485.468 505,483.5ZM495,483.5C493.416,486.673 493.87,489.138 497.5,490.5C496.161,490.738 494.983,490.986 494.373,490.5C491.82,488.469 491.613,485.468 495,483.5ZM518.517,468.385L518.573,468.384L518.651,468.384L518.517,468.385L517.915,468.404L517.679,468.415L517.004,468.474C516.578,468.522 516.154,468.589 515.733,468.673C515.733,468.673 515.214,468.791 515.214,468.791L514.684,468.921L514.208,469.061L513.462,469.294C513.462,469.294 512.826,469.536 512.826,469.536L512.103,469.816C512.094,469.82 512.099,469.835 512.096,469.844C512.086,469.891 512.077,469.939 512.068,469.986C512.039,470.149 512.019,470.315 512.008,470.48C511.976,471.002 512.039,471.53 512.197,472.029C512.255,472.215 512.327,472.396 512.41,472.571L512.497,472.744C512.502,472.753 512.513,472.761 512.512,472.772C512.512,472.778 512.501,472.77 512.495,472.769L511.6,472.643C511.004,472.556 510.408,472.464 509.814,472.362C509.407,472.292 509.001,472.218 508.597,472.134L508.037,472.009C508.025,472.006 507.994,472.011 508,472C508.012,471.978 508.043,471.973 508.064,471.96L508.64,471.604C509.267,471.226 509.908,470.867 510.562,470.535C511.067,470.278 511.581,470.037 512.103,469.816C512.433,469.683 512.767,469.557 513.1,469.431C513.22,469.385 513.341,469.339 513.462,469.294C513.462,469.294 513.81,469.178 513.81,469.178L514.208,469.061L514.496,468.971L514.953,468.849L515.504,468.721L515.733,468.673C516.152,468.59 516.575,468.522 517,468.474L517.008,468.473L517.574,468.421L517.679,468.415L517.762,468.408L517.915,468.404L518.207,468.389L518.517,468.385ZM481.483,468.385L481.427,468.384L481.349,468.384L481.483,468.385L482.085,468.404L482.321,468.415L482.996,468.474C483.422,468.522 483.846,468.589 484.267,468.673C484.267,468.673 484.786,468.791 484.786,468.791L485.316,468.921C485.316,468.921 485.792,469.061 485.792,469.061L486.538,469.294C486.538,469.294 487.174,469.536 487.174,469.536L487.897,469.816C487.906,469.82 487.901,469.835 487.904,469.844C487.914,469.891 487.923,469.939 487.932,469.986C487.961,470.149 487.981,470.315 487.992,470.48C488.024,471.002 487.961,471.53 487.803,472.029C487.745,472.215 487.673,472.396 487.59,472.571L487.503,472.744C487.498,472.753 487.487,472.761 487.488,472.772C487.488,472.778 487.499,472.77 487.505,472.769L488.4,472.643C488.996,472.556 489.592,472.464 490.186,472.362C490.593,472.292 490.999,472.218 491.403,472.134L491.963,472.009C491.975,472.006 492.006,472.011 492,472C491.988,471.978 491.957,471.973 491.936,471.96L491.36,471.604C490.733,471.226 490.092,470.867 489.438,470.535C488.933,470.278 488.419,470.037 487.897,469.816C487.567,469.683 487.233,469.557 486.9,469.431C486.78,469.385 486.659,469.339 486.538,469.294C486.538,469.294 486.19,469.178 486.19,469.178L485.792,469.061L485.504,468.971L485.047,468.849L484.496,468.721L484.267,468.673C483.848,468.59 483.425,468.522 483,468.474L482.992,468.473L482.426,468.421L482.321,468.415L482.238,468.408L482.085,468.404L481.793,468.389L481.483,468.385ZM519.832,468.456L519.822,468.44L519.862,468.444C520.432,468.499 520.998,468.59 521.556,468.718C522.345,468.898 523.117,469.151 523.863,469.465C524.151,469.586 524.435,469.717 524.715,469.856L525,470L524.749,470.153C524.501,470.302 524.249,470.446 523.994,470.584C523.112,471.061 522.194,471.469 521.248,471.8C521.015,471.882 520.779,471.959 520.542,472.032L520.281,472.109C520.274,472.107 520.285,472.096 520.287,472.089L520.396,471.7C520.46,471.424 520.495,471.142 520.502,470.859C520.516,470.339 520.434,469.817 520.26,469.327C520.151,469.021 520.007,468.729 519.832,468.456ZM480.168,468.456L480.178,468.44L480.138,468.444C479.568,468.499 479.002,468.59 478.444,468.718C477.655,468.898 476.883,469.151 476.137,469.465C475.849,469.586 475.565,469.717 475.285,469.856L475,470L475.251,470.153C475.499,470.302 475.751,470.446 476.006,470.584C476.888,471.061 477.806,471.469 478.752,471.8C478.985,471.882 479.221,471.959 479.458,472.032L479.719,472.109C479.726,472.107 479.715,472.096 479.713,472.089L479.604,471.7C479.54,471.424 479.505,471.142 479.498,470.859C479.484,470.339 479.566,469.817 479.74,469.327C479.849,469.021 479.993,468.729 480.168,468.456ZM518.651,468.384L518.754,468.385C518.719,468.384 518.685,468.384 518.651,468.384ZM473,458C477.508,456.397 481.424,456.106 484.755,457.111C488.086,458.116 490.832,460.417 493,464C489.242,454.542 482.426,452.733 473,458ZM527,458C522.492,456.397 518.576,456.106 515.245,457.111C511.914,458.116 509.168,460.417 507,464C510.758,454.542 517.574,452.733 527,458ZM513.25,442C514.768,442 516,443.232 516,444.75C516,446.268 514.768,447.5 513.25,447.5C511.732,447.5 510.5,446.268 510.5,444.75C510.5,443.232 511.732,442 513.25,442ZM486.75,442C485.232,442 484,443.232 484,444.75C484,446.268 485.232,447.5 486.75,447.5C488.268,447.5 489.5,446.268 489.5,444.75C489.5,443.232 488.268,442 486.75,442Z" style="fill:white;"/>
    </g>
</svg>
