<?xml version="1.0" encoding="UTF-8" standalone="no"?>
<!DOCTYPE svg PUBLIC "-//W3C//DTD SVG 1.1//EN" "http://www.w3.org/Graphics/SVG/1.1/DTD/svg11.dtd">
<svg width="100%" height="100%" viewBox="0 0 1000 1000" version="1.1" xmlns="http://www.w3.org/2000/svg" xmlns:xlink="http://www.w3.org/1999/xlink" xml:space="preserve" xmlns:serif="http://www.serif.com/" style="fill-rule:evenodd;clip-rule:evenodd;stroke-linejoin:round;stroke-miterlimit:2;">
    <g transform="matrix(1.03687,0,0,1.03687,-28.8018,255.377)">
        <path d="M290,374C269.528,411.798 234.286,441.585 195.569,441.142C157.278,440.704 124.097,414.671 76,400C104.664,366.679 137.554,339.992 190,344C221.216,360.374 254.377,370.895 290,374ZM730,374C750.472,411.798 785.714,441.585 824.431,441.142C862.722,440.704 895.903,414.671 944,400C915.336,366.679 882.446,339.992 830,344C798.784,360.374 765.623,370.895 730,374ZM290,374C276.806,373.293 264.663,373.471 253.515,374.487C242.366,375.502 232.213,377.355 223,380C252.259,391.201 273.966,388.007 290,374ZM730,374C743.194,373.293 755.337,373.471 766.485,374.487C777.634,375.502 787.787,377.355 797,380C767.741,391.201 746.034,388.007 730,374ZM300,370C300.496,272.626 269.979,194.621 170,160C181.531,198.659 177.288,249.052 172.04,297.004C169.612,319.195 187.484,335.918 205,346C237.783,359.992 269.629,368.953 300,370ZM300,370C286.989,353.979 276.077,333.337 266.387,310C262.406,300.41 258.631,290.366 255.002,280L235.003,240C238.983,266.973 239.308,286.32 235.003,296C246.656,303.114 261.098,308.388 265.076,320C272.91,342.872 282.669,361.212 300,370ZM720,370C719.504,272.626 750.021,194.621 850,160C838.469,198.659 842.712,249.052 847.96,297.004C850.388,319.195 832.516,335.918 815,346C782.217,359.992 750.371,368.953 720,370ZM720,370C733.011,353.979 743.923,333.337 753.613,310C757.594,300.41 761.369,290.366 764.998,280L784.997,240C781.017,266.973 780.692,286.32 784.997,296C773.344,303.114 758.902,308.388 754.924,320C747.09,342.872 737.331,361.212 720,370ZM500,230C491.918,216.891 483.343,205.382 472.951,205.998C441.887,207.84 415.12,226.19 387.356,243.768C347.459,269.027 318.664,302.827 303,326L298,290C351.216,217.047 416.826,186.978 492,190C496.554,203.807 498.741,217.02 500,230ZM520,230C528.082,216.891 536.657,205.382 547.049,205.998C578.113,207.84 604.88,226.19 632.644,243.768C672.541,269.027 701.336,302.827 717,326L722,290C668.784,217.047 603.174,186.978 528,190C523.446,203.807 521.259,217.02 520,230ZM510,225C504.325,100.07 476.803,31.409 430,30.719C351.69,29.563 284.951,96.831 270,180C281.273,156.686 300.63,136.996 326,120C314.073,134.81 309.964,149.478 314,164C320.546,149.128 325.097,134.563 333.483,124.148C426.35,8.816 483.243,69.385 510,225ZM510,225C515.675,100.07 543.197,31.409 590,30.719C668.31,29.563 735.049,96.831 750,180C738.727,156.686 719.37,136.996 694,120C705.927,134.81 710.036,149.478 706,164C699.454,149.128 694.903,134.563 686.517,124.148C593.65,8.816 536.757,69.385 510,225Z" style="fill:white;"/>
    </g>
</svg>
