<?xml version="1.0" encoding="UTF-8" standalone="no"?>
<!DOCTYPE svg PUBLIC "-//W3C//DTD SVG 1.1//EN" "http://www.w3.org/Graphics/SVG/1.1/DTD/svg11.dtd">
<svg width="100%" height="100%" viewBox="0 0 1000 1000" version="1.1" xmlns="http://www.w3.org/2000/svg" xmlns:xlink="http://www.w3.org/1999/xlink" xml:space="preserve" xmlns:serif="http://www.serif.com/" style="fill-rule:evenodd;clip-rule:evenodd;stroke-linejoin:round;stroke-miterlimit:2;">
    <path d="M790.778,644.67L785.52,628.301C851.515,598.968 814.911,478.68 804.182,469.037C782.931,449.938 747.906,475.877 744.504,561.812C760.939,627.18 768.928,647.423 771.421,717.432C750.497,830.074 670.357,856.999 500,745.566C456.597,717.175 420.891,667.268 398.961,580.164C399.304,577.529 400.807,573.369 403.184,568.091C402.074,563.536 401.042,558.929 400.083,554.27C398.611,558.667 397.235,563.113 395.955,567.609L395.955,567.609C378.443,629.149 379.026,700.058 401.136,782.126C385.036,772.638 368.746,756.03 350.164,653.663C333.807,748.693 352.842,849.038 375.989,950C354.161,940.493 336.779,919.089 323.271,887.323C305.859,865.171 291.819,842.01 280.459,818.049L302.619,922.875C303.032,924.828 302.294,926.872 300.836,927.809C299.379,928.746 297.588,928.328 296.513,926.8C259.586,874.318 222.81,821.738 199.156,758.576L200.788,819.64C200.842,821.643 199.77,823.431 198.195,823.966C196.62,824.501 194.952,823.644 194.157,821.893C101.535,617.746 96.512,460.575 182.441,352.578C153.205,385.309 132.705,429.343 115.544,477.715C114.852,479.665 113.11,480.713 111.428,480.191C109.747,479.668 108.622,477.729 108.771,475.61C115.268,383.264 139.702,314.673 180.382,267.782C213.405,229.715 257.191,205.903 311.015,195.465C272.987,194.343 229.958,201.173 173.116,229.959C171.483,230.786 169.602,230.009 168.71,228.139C167.817,226.27 168.186,223.879 169.573,222.537C278.863,116.891 372.873,87.97 450.199,140.24C432.615,107.891 406.467,80.98 373.891,58.108C372.453,57.099 371.779,55.001 372.268,53.059C372.758,51.118 374.28,49.852 375.931,50.014C443.255,56.594 489.313,86.402 516.336,136.819C514.247,115.541 504.564,94.311 483.815,73.002C482.56,71.712 482.189,69.534 482.921,67.736C483.652,65.938 485.294,64.991 486.889,65.446C527.903,77.134 548.598,103.66 555.694,140.033C693.316,100.262 883.96,245.283 890.51,392.637C893.367,456.906 889.032,527.113 856.144,592.666C870.762,586.303 885.381,582.311 900,580C858.34,609.691 820.657,643.883 830,690C850.289,656.457 888.867,649.181 920,650C887.122,662.395 857.611,679.953 856,727C871.702,713.012 896.926,711.43 920,710C904.84,716.914 891.537,724.174 880,731.764C840.747,757.586 821.937,787.22 820,820L790.778,644.67ZM511.62,143.873C487.951,98.17 448.25,69.973 391.072,60.698C423.15,85.804 448.076,115.457 463.717,150.956C464.488,152.706 464.19,154.876 462.994,156.22C461.798,157.564 460.009,157.739 458.655,156.644C385.811,97.778 297.169,118.19 193.627,211.025C259.525,182.543 306.471,184.198 350.566,190.379C352.39,190.635 353.752,192.558 353.703,194.809C353.653,197.06 352.209,198.89 350.376,199.025C280.359,204.176 224.811,228.483 185.23,274.108C149.71,315.052 127.118,373.107 118.3,449.536C143.486,385.916 176.522,332.436 229.874,305.283C231.56,304.425 233.501,305.279 234.357,307.255C235.213,309.232 234.704,311.682 233.181,312.915C106.957,415.081 96.13,579.139 193.225,801.677L191.474,736.154C171.577,672.134 165.538,596.931 185.323,500.868C185.755,498.77 187.38,497.383 189.134,497.615C190.888,497.846 192.235,499.626 192.293,501.788L198.504,734.182C219.199,800.229 254.941,854.138 291.95,907.001L265.549,782.117C249.549,737.682 241.114,690.981 236.214,643.215C235.981,640.944 237.227,638.841 239.06,638.41C240.893,637.979 242.684,639.368 243.153,641.584L272.236,779.153C282.531,807.608 296.004,835.104 313.774,861.317C291.412,790.134 282.929,681.807 284.211,547.351C263.222,570.17 256.441,614.761 252.374,663.51C236.107,555.774 272.88,487.41 316.183,423.892C296.656,436.844 276.697,456.25 256.717,475.983C311.133,305.457 373.134,276.287 435.117,246.783C417.042,240.382 382.016,255.788 341.669,278.037C363.922,248.464 393.335,219.772 452.107,194.692C441.043,193.59 429.632,198.52 418.126,205.11C443.378,172.337 481.83,152.697 511.62,143.873ZM744.119,726.019C743.922,717.517 714.696,728.932 688.896,705.183C681.079,697.987 696.657,650.89 695.279,517.655C675.593,552.707 652.386,577.193 622.012,580.164C663.572,548.904 663.033,497.096 655.993,442.115C645.103,489.7 627.998,532.027 593.133,559.328C626.161,496.029 621.707,451.662 605.021,413.474C608.336,466.79 588.516,506.199 537.059,526.586C554.293,488.882 554.059,451.178 537.059,413.474C527.162,483.518 496.229,513.231 452.107,517.655C483.011,488.629 497.477,457.099 486.088,421.629C449.788,456.667 422.197,496.22 404.834,541.093C405.837,546.744 406.946,552.323 408.165,557.825C406.247,561.571 404.568,565.019 403.184,568.091C406.098,580.049 409.544,591.645 413.572,602.842L409.611,605.541C407.903,606.704 407.287,609.349 408.236,611.443C409.185,613.538 411.341,614.293 413.049,613.13L416.54,610.752C420.88,621.845 425.822,632.524 431.417,642.754L429.055,646.066C427.768,647.869 427.917,650.614 429.388,652.191C430.858,653.769 433.096,653.586 434.383,651.783L435.589,650.092C442.717,662.163 450.812,673.568 459.959,684.244L456.164,689.932C454.927,691.786 455.15,694.523 456.662,696.04C458.174,697.558 460.406,697.284 461.643,695.43L465.177,690.132C476.578,702.565 489.509,713.948 504.12,724.176L501.612,730.328C500.738,732.471 501.447,735.081 503.195,736.152C504.942,737.224 507.07,736.354 507.944,734.211L510.321,728.38C513.542,730.496 516.844,732.56 520.224,734.569C531.292,741.147 544.021,748.387 557.938,755.444L555.757,764.361C555.195,766.655 556.259,769.077 558.13,769.766C560.001,770.454 561.976,769.15 562.537,766.855L564.526,758.726C577.965,765.298 592.395,771.596 607.434,776.924L601.964,788.424C600.979,790.494 601.55,793.154 603.238,794.361C604.925,795.568 607.094,794.868 608.079,792.799L614.484,779.333C627.259,783.538 640.417,786.98 653.722,789.247L652.501,798.232C652.18,800.596 653.484,802.834 655.411,803.228C657.338,803.622 659.163,802.023 659.484,799.66L660.752,790.33C675.148,792.314 689.675,792.848 704.047,791.414C703.953,793.642 703.766,795.925 703.467,798.276C703.165,800.643 704.488,802.865 706.418,803.235C708.348,803.605 710.16,801.983 710.461,799.616C710.859,796.49 711.082,793.472 711.164,790.538C719.802,789.271 728.369,787.254 736.798,784.375C737.568,784.112 738.244,783.536 738.713,782.742C756.135,753.284 744.119,726.019 744.119,726.019ZM595.407,559.869C595.109,560.93 593.948,560.881 593.644,561.936C594.094,562.045 601.353,567.133 601.265,567.228C609.021,574.274 614.366,585.385 614.366,597.875C614.366,619.15 599.432,636.423 582.084,636.423C564.736,636.423 550.652,619.15 550.652,597.875C550.652,577.588 563.46,560.94 579.694,559.438C545.352,555.449 505.442,566.942 497.205,621.837C525.539,649.5 541.028,653.706 565.943,651.263C582.156,649.673 602.587,645.717 618.614,621.837C629.587,605.486 633.849,593.173 632.357,584.332C632.154,583.127 631.523,581.841 630.514,580.509C635.842,579.202 641.021,577.351 646.136,575.26C661.748,571.627 676.791,564.21 689.974,546.944C689.974,546.944 666.214,722.104 681.037,726.019C700.316,730.546 719.972,731.387 740,728.587C740.406,746.143 742.189,761.328 733.692,776.416C726.224,778.888 718.649,780.669 711.023,781.838C710.896,779.671 710.706,777.54 710.471,775.436C710.205,773.062 708.418,771.4 706.483,771.726C704.547,772.051 703.192,774.243 703.457,776.616C703.682,778.629 703.863,780.669 703.978,782.749C690.018,784.219 675.901,783.758 661.902,781.872L662.882,774.656C663.203,772.293 661.9,770.055 659.973,769.661C658.046,769.267 656.22,770.866 655.899,773.229L654.87,780.805C642.423,778.708 630.108,775.545 618.127,771.674L619.972,767.795C620.957,765.726 620.386,763.066 618.698,761.858C617.011,760.651 614.842,761.351 613.857,763.421L611.061,769.299C595.439,763.844 580.453,757.282 566.555,750.434L567.635,746.019C568.196,743.724 567.133,741.302 565.261,740.614C563.39,739.925 561.415,741.229 560.854,743.524L559.972,747.13C546.444,740.218 534.076,733.154 523.312,726.757C519.955,724.762 516.68,722.712 513.489,720.61L518.138,709.207C519.012,707.065 518.302,704.455 516.555,703.384C514.808,702.312 512.68,703.182 511.806,705.325L507.293,716.394C493.185,706.473 480.699,695.434 469.687,683.372L476.934,672.51C478.171,670.655 477.948,667.918 476.436,666.401C474.924,664.884 472.692,665.158 471.455,667.012L464.481,677.466C455.413,666.812 447.422,655.415 440.41,643.334L446.276,635.114C447.562,633.311 447.413,630.566 445.943,628.988C444.473,627.411 442.235,627.594 440.948,629.397L436.283,635.935C431.23,626.505 426.74,616.687 422.77,606.507L428.341,602.712C430.048,601.548 430.664,598.903 429.716,596.809C428.767,594.715 426.61,593.959 424.902,595.123L419.813,598.59C415.147,585.54 411.293,571.933 408.165,557.825C429.978,515.238 482.69,434.31 482.69,434.31C486.077,463.762 471.185,490.159 446.104,521.344C491.016,522.44 521.278,498.86 537.059,442.605L537.059,538.492C591.452,507.93 604.162,475.852 608.419,443.467C610.779,478.184 606.328,513.418 597.17,549.005C595.407,552.58 593.524,557.09 591.429,560.37C592.527,560.281 594.43,560.161 595.407,559.869ZM586.969,563.495C589.212,563.302 600.343,567.915 599.666,568.941C604.353,573.524 607.357,580.585 607.357,588.499C607.357,602.299 598.222,613.503 586.969,613.503C579.416,613.503 572.817,608.455 569.293,600.963C569.59,600.988 569.889,601.001 570.191,601.001C577.224,601.001 582.934,593.998 582.934,585.374C582.934,577.983 578.741,571.784 573.115,570.161C575.692,565.587 580.229,564.076 586.969,563.495ZM599.924,561.412C617.568,541.594 638.656,517.037 655.993,475.983C655.572,505.644 638.29,546.222 630.93,566.107C629.224,569.457 627.347,572.604 625.323,575.576C620.164,571.703 608.962,564.465 599.924,561.412ZM741.648,563.037L741.794,575.517C741.514,572.233 741.231,568.928 740.945,565.589C741.162,564.166 741.396,563.334 741.648,563.037ZM548.048,138.56C541.82,111.403 526.712,90.734 499.411,78.911C515.631,99.512 522.763,120.157 523.742,140.758C533.931,138.561 542.43,137.87 548.048,138.56Z" style="fill:white;"/>
</svg>
