<?xml version="1.0" encoding="UTF-8" standalone="no"?>
<!DOCTYPE svg PUBLIC "-//W3C//DTD SVG 1.1//EN" "http://www.w3.org/Graphics/SVG/1.1/DTD/svg11.dtd">
<svg width="100%" height="100%" viewBox="0 0 1000 1000" version="1.1" xmlns="http://www.w3.org/2000/svg" xmlns:xlink="http://www.w3.org/1999/xlink" xml:space="preserve" xmlns:serif="http://www.serif.com/" style="fill-rule:evenodd;clip-rule:evenodd;stroke-linejoin:round;stroke-miterlimit:2;">
    <g transform="matrix(26.7855,0,0,26.7855,-12531,-12148.1)">
        <path d="M485.256,469.202C483.206,466.206 481.427,463.414 480.388,461.184C480.3,460.996 480.245,460.788 480.219,460.565C479.839,457.826 484.065,452.851 486.478,456.971L486.493,456.997C488.697,453.187 492.435,457.033 492.767,459.818C492.835,460.323 492.793,460.796 492.612,461.184C491.573,463.415 489.793,466.207 487.742,469.204C488.142,469.338 488.519,469.535 488.864,469.786C490.545,466.843 492.162,464.226 493.62,462.421C495.367,460.256 502.87,461.794 500.037,466.067L500.02,466.092C505.176,466.448 501.783,473.345 498.997,473.399C496.801,473.441 493.944,473.151 490.801,472.716C490.901,473.098 490.965,473.498 490.987,473.912C494.057,474.352 496.816,474.852 498.875,475.484C501.539,476.302 502.903,483.867 497.848,482.791L497.858,482.82C499.406,487.707 491.769,487.121 490.685,484.56C490.025,483.001 489.402,481.003 488.801,478.759C488.608,478.894 488.406,479.012 488.196,479.112C488.196,479.112 487.797,484.352 488.196,486C488.497,487.244 490.089,487.818 490.592,489L482.408,489C482.911,487.818 484.503,487.244 484.804,486C485.203,484.353 484.804,479.115 484.804,479.115C484.596,479.017 484.396,478.9 484.204,478.768C483.599,481.031 482.972,483.045 482.308,484.614C481.812,485.784 479.948,486.542 478.218,486.554L478.173,486.554C476.135,486.553 474.301,485.508 475.135,482.874L475.145,482.845C474.829,482.912 474.538,482.946 474.271,482.949L474.221,482.95C470.276,482.947 471.631,476.302 474.118,475.538C476.176,474.906 478.935,474.406 482.003,473.966C482.022,473.554 482.082,473.154 482.178,472.772C479.267,473.175 476.602,473.453 474.482,473.457L473.996,473.453C471.21,473.4 467.817,466.502 472.973,466.146L472.956,466.121C470.987,463.15 474.014,461.501 476.629,461.5L476.673,461.5C477.801,461.508 478.848,461.824 479.373,462.475C480.825,464.272 482.434,466.874 484.107,469.802C484.46,469.543 484.846,469.339 485.256,469.202Z" style="fill:white;"/>
    </g>
</svg>
