<?xml version="1.0" encoding="UTF-8" standalone="no"?>
<!DOCTYPE svg PUBLIC "-//W3C//DTD SVG 1.1//EN" "http://www.w3.org/Graphics/SVG/1.1/DTD/svg11.dtd">
<svg width="100%" height="100%" viewBox="0 0 1000 1000" version="1.1" xmlns="http://www.w3.org/2000/svg" xmlns:xlink="http://www.w3.org/1999/xlink" xml:space="preserve" xmlns:serif="http://www.serif.com/" style="fill-rule:evenodd;clip-rule:evenodd;stroke-linejoin:round;stroke-miterlimit:2;">
    <g transform="matrix(8.21993,0,0,8.21993,-4185.73,-2742.76)">
        <path d="M570.045,387.999C579.117,387.69 587.668,389.832 596,393C596.999,421.631 587.26,437.289 570.09,443.965L570.09,444L570.045,443.983L570,444L570,443.965C552.83,437.289 543.091,421.631 544.09,393C552.422,389.832 560.973,387.69 570.045,387.999ZM570.045,436C579.414,435.971 585.807,426.776 587.5,416C582.205,423.267 576.287,428.945 570.09,428.999L570,428.999C563.803,428.945 557.885,423.267 552.59,416C554.283,426.776 560.676,435.971 570.045,436ZM570.09,376C611.062,376.016 623.863,387.769 624.725,394C625.398,398.857 621.107,403.967 598,409C598.689,403.333 599.21,397.667 599,392C588.294,387.134 579.697,385.006 570.045,385.006C560.393,385.006 551.796,387.134 541.09,392C540.88,397.667 541.401,403.333 542.09,409C518.983,403.967 514.692,398.857 515.365,394C516.227,387.769 529.028,376.016 570,376L570.09,376ZM589,406C586.892,404.671 584.838,404.167 582.838,404.497C580.838,404.827 578.892,405.991 577,408C580.34,401.306 584.38,401.004 589,406ZM551.09,406C553.197,404.671 555.252,404.167 557.252,404.497C559.252,404.827 561.198,405.991 563.09,408C559.75,401.306 555.71,401.004 551.09,406ZM540.094,357.835C540.091,357.553 540.09,357.274 540.09,357C540.09,354.601 548.868,345.027 570,345L570.09,345C591.222,345.027 600,354.601 600,357C600,364.792 599,376 599,376C586.538,371.706 581.328,371.524 570.045,371.002C560.8,371.43 555.632,371.629 547.209,374.05C548.05,372.578 548.686,371.051 549,369.5C547.729,371.256 545.42,372.958 544,374.5C542.547,373.967 541.67,372.958 540.771,372.014C540.64,370.231 540.489,368.001 540.363,365.645C541.24,367.501 542.204,369.485 544,371C546.342,368.282 548.354,365.192 549,362C547.729,363.756 545.42,365.458 544,367C542.285,366.371 541.374,365.08 540.281,364.013C540.203,362.37 540.142,360.702 540.112,359.114C541.062,361.115 542.031,363.339 544,365C546.342,362.282 548.354,359.192 549,356C547.729,357.756 545.42,359.458 544,361C542.189,360.335 541.274,358.932 540.094,357.835ZM540.953,374.363C541.193,374.839 541.448,375.315 541.732,375.78C541.519,375.853 541.306,375.926 541.09,376C541.09,376 541.036,375.393 540.953,374.363Z" style="fill:white;"/>
    </g>
</svg>
