<?xml version="1.0" encoding="UTF-8" standalone="no"?>
<!DOCTYPE svg PUBLIC "-//W3C//DTD SVG 1.1//EN" "http://www.w3.org/Graphics/SVG/1.1/DTD/svg11.dtd">
<svg width="100%" height="100%" viewBox="0 0 1000 1000" version="1.1" xmlns="http://www.w3.org/2000/svg" xmlns:xlink="http://www.w3.org/1999/xlink" xml:space="preserve" xmlns:serif="http://www.serif.com/" style="fill-rule:evenodd;clip-rule:evenodd;stroke-linejoin:round;stroke-miterlimit:2;">
    <g transform="matrix(4.38723,0,0,4.38723,-885.28,-1463.27)">
        <path d="M346.228,416.888L331.677,406.948L333.373,404.229C334.725,405.073 336.509,404.659 337.352,403.307C338.196,401.954 337.783,400.171 336.43,399.327L338.331,396.279C339.357,391.835 338.892,387.027 337.838,382.211C333.834,363.912 352.227,353.522 365.153,368.551C372.295,367.547 378.486,369.605 382.868,377.483L385.819,376.148C386.996,372.706 384.74,370.649 386.321,369.051C387.257,368.105 388.828,367.504 391.285,367.384L388.904,365.899C390.562,365.436 390.915,364.06 392.138,362.938C390.599,362.457 389.68,361.42 388.018,361.728L388.069,361.645C388.021,361.652 387.973,361.66 387.924,361.669L392.516,354.306C392.53,354.354 392.544,354.401 392.559,354.447L392.611,354.365C393.066,355.992 394.4,356.362 395.51,357.532C395.979,355.94 397.06,355.018 396.747,353.326L404.204,357.977C402.546,358.44 402.194,359.817 400.971,360.938C402.509,361.42 403.428,362.456 405.09,362.149L405.039,362.231C405.087,362.224 405.135,362.216 405.184,362.207L400.592,369.57C400.578,369.522 400.564,369.475 400.549,369.429L400.498,369.512C400.043,367.884 398.708,367.514 397.598,366.344C397.129,367.936 396.048,368.858 396.361,370.551L393.981,369.066C394.953,371.325 395.105,373 394.667,374.257C393.928,376.379 391.088,375.259 388.515,377.83L388.613,381.066C397.616,381.537 402.187,386.192 404.428,393.047C423.61,398.045 422.37,419.133 404.174,423.586C399.386,424.758 394.863,426.455 391.323,429.331L389.422,432.379C388.069,431.536 386.286,431.949 385.442,433.302C384.599,434.654 385.012,436.438 386.365,437.281L384.669,440L368.749,430.969L366.629,434.341L396.521,453.134L381.894,476.398L352.003,457.604L299.15,541.665L275.887,527.039L279.948,520.679L272.366,506.769L288.313,507.58L288.392,507.457L280.749,493.436L296.823,494.253L296.97,494.024L289.266,479.891L305.469,480.715L307.033,478.265C293.859,473.957 282.224,477.968 271.978,484.408C242.267,503.083 222.771,496.362 216.449,483.72C199.374,449.576 251.783,428.222 314.396,452.638L315.189,437.053L301.036,444.767L301.849,428.797L287.809,436.45L287.828,436.067L287.491,436.25L288.29,420.536L274.475,428.067L275.307,411.714L260.93,419.55L261.877,400.938L258.03,398.52L272.657,375.257L344.121,420.189L346.228,416.888ZM292.967,455.461C272.659,451.509 252.598,453.616 232.905,464.721C232.054,465.201 231.752,466.282 232.232,467.133C232.712,467.985 233.793,468.286 234.644,467.806C253.545,457.149 272.8,455.144 292.291,458.938C293.25,459.124 294.181,458.497 294.367,457.538C294.554,456.578 293.927,455.648 292.967,455.461ZM314.928,452.846C317.108,453.704 319.305,454.62 321.512,455.593L327.718,445.875L314.928,452.846ZM377.351,425.909C378.704,426.753 379.117,428.536 378.273,429.889C377.43,431.241 375.646,431.655 374.294,430.811C372.941,429.967 372.528,428.184 373.372,426.831C374.215,425.479 375.998,425.065 377.351,425.909ZM381.703,424.39L387.8,428.192C391.191,425.518 394.395,423.264 397.915,421.799C415.248,414.586 415.221,404.378 405.763,395.997C405.611,404.96 401.621,412.269 391.939,416.465C386.688,418.74 384.359,422.304 381.703,424.39ZM374.891,421.199L383.8,407.03L371.185,409.906C380.425,397.662 385.669,388.89 387.187,383.353C402.376,387.156 405.591,399.078 388.921,410.897C384.819,413.805 379.878,416.817 375.894,421.824L374.891,421.199ZM347.55,407.322C346.198,406.478 344.414,406.891 343.571,408.244C342.727,409.596 343.14,411.38 344.493,412.223C345.846,413.067 347.629,412.654 348.472,411.301C349.316,409.948 348.903,408.165 347.55,407.322ZM364.4,406.285C371.44,392.33 377.089,383.611 381.443,379.769C371.346,367.802 359.225,370.158 355.944,390.328C355.136,395.291 354.604,401.053 351.86,406.834L352.393,407.167L361.353,392.916L364.4,406.285ZM347.001,402.745L340.904,398.942C341.814,394.72 342.429,390.851 342.196,387.046C341.05,368.307 350.23,363.841 361.916,368.649C353.934,372.728 349.125,379.526 349.616,390.067C349.882,395.783 347.705,399.443 347.001,402.745ZM398.336,359.081C396.779,358.145 394.75,358.628 393.785,360.175C392.82,361.723 393.279,363.757 394.804,364.744C396.361,365.68 398.39,365.196 399.355,363.649C400.32,362.102 399.862,360.067 398.336,359.081Z" style="fill:white;"/>
    </g>
</svg>
