<?xml version="1.0" encoding="UTF-8" standalone="no"?>
<!DOCTYPE svg PUBLIC "-//W3C//DTD SVG 1.1//EN" "http://www.w3.org/Graphics/SVG/1.1/DTD/svg11.dtd">
<svg width="100%" height="100%" viewBox="0 0 1000 1000" version="1.1" xmlns="http://www.w3.org/2000/svg" xmlns:xlink="http://www.w3.org/1999/xlink" xml:space="preserve" xmlns:serif="http://www.serif.com/" style="fill-rule:evenodd;clip-rule:evenodd;stroke-linejoin:round;stroke-miterlimit:2;">
    <g transform="matrix(1.15787,0,0,1.15787,-134.947,0.105948)">
        <path d="M438.468,819.912C441.814,819.912 445.339,820.694 448.679,820.235C451.981,819.781 454.771,817.811 457.468,816.218C458.655,815.517 460.18,815.604 461.429,815.287C463.965,814.645 464.251,813.295 464.882,811.249C464.939,811.064 465.169,809.371 464.949,809.159C463.277,807.556 459.36,809.718 457.735,810.797C453.808,813.404 449.502,813.903 445.195,816.024C443.993,816.616 441.272,817.18 439.905,817.438C439.507,817.512 438.149,817.481 437.909,817.725C437.05,818.598 438.564,819.478 439.1,819.478L438.468,819.912ZM398.238,716.532C398.158,716.563 398.076,716.598 397.993,716.639C394.396,718.409 392.66,723.89 391.644,727.37C391.233,728.779 389.655,729.544 389.255,730.891C388.358,733.909 387.691,736.652 386.524,739.559C385.391,742.38 382.634,745.095 384.728,748.29C385.612,749.637 388.046,749.027 389.166,748.345C391.232,747.087 395.797,740.37 398.702,743.275C399.349,743.922 398.062,745.859 397.786,746.407C396.239,749.476 392.314,750.016 390.81,752.98C390.169,754.241 390.344,756.515 390.344,757.909C390.344,762.099 390.398,766.899 392.295,770.692C393.375,772.853 395.549,774.461 396.056,776.905C396.34,778.277 396.35,783.775 394.807,784.392C390.699,784.392 387.152,785.283 385.512,780.919C385.237,780.186 384.739,779.48 384.515,778.765C383.787,776.44 385.462,773.118 384.359,770.912C383.144,768.482 381.045,766.574 379.887,764.259C379.542,763.568 380.081,761.557 380.403,760.904C381.948,757.768 380.814,753.835 377.366,752.756C374.698,751.921 369.732,752.006 368.585,755.293C367.946,757.123 367.864,759.649 368.109,761.611C368.58,765.393 372.466,764.528 373.415,767.314C374.641,770.911 375.006,774.763 375.759,778.4C376.436,781.667 375.759,785.844 375.759,789.194C375.759,790.024 376.333,792.498 377.187,792.815C379.577,793.701 381.363,795.069 384.086,794.61C387.428,794.046 391.136,792.493 394.265,791.504C396.067,790.934 396.942,789.691 399.586,790.352C404.708,791.633 408.241,794.943 412.671,797.728C413.725,798.39 415.871,798.668 416.63,799.6C418.014,801.303 419.16,802.896 420.883,804.188C423.054,805.816 426.6,805.376 429.123,805.376C434.894,805.376 441.764,807.109 447.442,805.67C449.568,805.131 451.278,801.795 453.101,800.576C454.744,799.479 456.77,798.86 458.305,797.624C460.243,796.064 461.75,794.048 463.772,792.517C464.86,791.693 466.19,791.846 467.402,791.39C470.975,790.043 474.071,787.252 474.917,783.602C475.513,783.22 476.092,782.81 476.616,782.362C477.46,781.641 478.39,780.979 479.266,780.28C481.169,778.761 485.85,772.748 488.454,776.72C490.649,780.069 487.436,784.032 486.665,787.077C486.15,789.107 483.83,791.013 481.899,791.819C481.096,792.153 480.28,794.884 479.246,795.654C476.447,797.739 472.858,798.868 470.242,801.359C468.09,803.409 468.098,809.073 469.933,811.256C470.965,812.483 471.851,814.065 472.919,815.133C476.625,818.838 481.568,815.735 484.803,813.417C487.25,811.663 490.515,809.615 492.342,807.16C493.128,806.103 493.564,804.76 494.415,803.744C497.122,800.511 500.346,797.754 502.323,793.74C502.827,792.717 502.535,791.097 503.035,790.082C503.845,788.437 501.727,786.41 501.165,785.076C500.627,783.799 500.381,782.401 499.529,781.268C497.43,778.475 494.918,776.858 495.37,773.225C495.938,768.654 498.774,765.354 500.43,761.391C501.308,759.292 501.642,756.888 502.667,754.806C503.012,754.108 504.106,753.912 504.658,753.453C505.765,752.532 507.069,750.997 507.415,749.603C508.46,745.394 504.861,740.971 504.175,736.888C503.467,732.677 507.955,728.679 507.412,724.364C506.968,720.832 504.426,717.562 503.254,714.284C500.789,707.39 498.676,700.281 496.138,693.536C493.978,687.796 488.753,682.124 484.829,677.459C484.115,676.61 483.247,676.39 482.371,675.875C480.909,675.016 480.297,673.459 478.564,672.729C476.315,671.781 473.007,671.999 470.618,671.543C468.829,671.202 466.977,669.898 465.423,668.983C464.196,668.261 462.693,668.332 461.571,667.771C459.986,666.978 455.368,664.42 453.572,665.758C453.241,666.005 452.992,666.475 452.789,666.778C450.295,670.499 456.823,669.762 458.689,670.986C459.383,671.441 461.25,674.571 460.625,675.332C460.499,675.485 459.208,675.881 458.967,675.962C457.838,676.34 454.834,676.587 453.769,675.982C452.809,675.436 451.913,674.192 450.827,673.921C449.649,673.628 448.314,673.994 447.141,673.773C439.832,672.396 434.244,672.343 427.019,673.758C424.757,674.201 422.315,673.843 420.132,674.656C418.331,675.327 416.799,676.98 415.043,677.854C410.573,680.08 405.377,682.039 401.323,685.058C397.587,687.842 395.321,692.809 393.459,696.659C392.18,699.305 390.145,698.343 387.856,698.723C387.678,698.753 386.104,699.413 386.036,699.348C384.49,697.876 389.435,694.381 386.428,694.381C384.503,694.381 382.799,696.168 381.874,697.687C381.668,698.026 381.272,699.167 380.966,699.336C380.334,699.683 378.867,699.894 378.087,700.201C377.491,700.437 374.917,701.793 374.297,701.163C374.076,700.938 373.925,699.446 373.775,699.051C371.569,693.238 377.333,690.164 380.997,686.49C382.881,684.602 385.06,681.379 387.778,680.858C390.788,680.281 394.135,683.071 397.008,681.977C399.234,681.129 400.179,678.603 401.766,677.008C404.674,674.085 408.604,672.077 410.484,668.301C411.705,665.849 411.55,662.652 411.55,659.928C411.55,659.208 411.93,657.91 411.535,657.237C410.877,656.119 407.718,654.146 406.51,653.523C402.296,651.352 396.444,654.866 392.814,656.495C391.924,656.894 390.653,656.835 389.862,657.219C386.445,658.881 382.216,662.039 380.683,665.665C378.675,670.413 378.847,675.323 376.29,679.804C374.102,683.64 370.835,685.809 367.521,688.592C366.534,689.421 364.836,689.31 364.054,690.485C362.711,692.505 362.379,694.488 361.504,696.667C360.683,698.712 358.833,701.536 360.151,703.86C360.996,705.35 363.683,707.268 365.4,707.697C366.197,707.896 367.119,707.641 367.687,708.398C369.413,710.7 369.838,713.472 372.303,715.321C375.164,717.467 379.663,716.192 382.506,715.229C383.67,714.835 385.714,714.457 386.599,713.564C387.395,712.76 387.533,711.32 388.654,710.484C390.131,709.384 394.41,707.573 395.856,709.501C397.467,711.649 398.073,714.041 398.238,716.532ZM401.756,801.584C403.739,801.584 405.804,804.945 407.41,805.748C408.123,806.104 408.69,806.737 409.474,807.111C411.709,808.177 414.086,809.26 416.07,810.561C417.831,811.715 417.377,813.128 415.452,813.672C414.98,813.805 414.495,813.991 414.016,814.09C411.903,814.525 410.426,813.439 408.744,812.451C405.414,810.494 402.999,808.56 400.23,805.791C398.759,804.32 398.97,801.077 401.235,801.077L401.756,801.584ZM394.807,784.392L394.804,784.393L394.513,784.448C394.615,784.448 394.712,784.429 394.804,784.393L394.81,784.392L394.807,784.392ZM516.657,714.074C516.98,715.841 519.935,717.196 520.263,718.929C521.188,723.821 521.98,728.459 522.659,733.458C523.226,737.631 521.65,740.499 520.89,744.328C520.484,746.376 520.661,748.922 519.944,750.837C518.764,753.986 517.208,756.378 516.772,759.838C516.368,763.045 515.799,769.005 513.386,771.402C513.148,771.639 510.222,775.088 509.882,774.519C506.806,769.371 511.65,765.11 512.787,760.528C513.836,756.305 512.825,751.732 513.632,747.441C514.186,744.494 516.315,742.147 516.315,739.041C516.315,735.845 515.554,731.763 514.157,728.879C513.031,726.557 513.751,722.631 513.109,720.08C512.694,718.43 513.315,712.705 516,713.541C516.303,713.636 516.504,713.836 516.657,714.074ZM354.532,716.81C355.32,717.674 355.847,718.843 356.532,719.756C359.811,724.129 362.626,728.271 365.507,733.053C366.354,734.459 366.894,740.124 370.149,738.472C371.995,737.535 372.123,734.681 372.123,732.968C372.123,728.169 368.485,723.27 365.333,720.117C363.179,717.964 358.781,717.932 356.908,716.086C355.775,714.97 354.608,716.354 354.532,716.81ZM354.528,716.87C354.533,716.918 354.558,716.946 354.606,716.946L354.528,716.87C354.527,716.852 354.528,716.832 354.532,716.81C354.321,716.579 354.092,716.371 353.836,716.194L354.528,716.87ZM516.657,714.074C516.639,713.972 516.629,713.868 516.629,713.763L517.316,715.305C517.05,715.039 516.93,714.498 516.657,714.074ZM457.03,654.212C457.03,658.686 462.551,661.174 465.863,662.314C470.321,663.849 475.577,665.267 480.053,666.113C484.599,666.973 491.812,674.265 494.899,677.352C500.281,682.734 504.433,689.23 507.441,696.206C508.517,698.702 509.146,704.007 510.881,705.884C511.111,706.133 513.105,705.887 513.231,705.629C515.995,700.018 511.769,695.72 510.697,690.098C510,686.444 507.374,682.799 505.175,679.871C503.006,676.983 499.788,671.209 496.469,669.55C489.683,666.157 483.209,664.9 475.766,663.649C474,663.352 472.166,663.172 470.442,662.738C468.758,662.314 461.585,658.114 460.564,657.108C459.178,655.742 457.03,652.423 457.03,654.212ZM368.864,667.705C368.864,664.726 372.122,660.45 369.454,657.782C368.812,657.141 366.664,658.847 366.215,659.101C363.343,660.724 362.916,664.994 360.77,667.831C358.787,670.45 357.76,674.068 356.494,677.095C353.534,684.175 350.518,690.293 350.518,698.124C350.518,699.471 350.083,702.99 350.734,704.293C351.284,705.393 353.176,701.802 353.424,701.305C355.204,697.729 355.615,694.09 356.535,690.384C357.111,688.065 359.08,685.872 359.982,683.584C360.484,682.311 360.594,680.561 361.413,679.461C362.985,677.351 364.756,675.107 365.589,672.665C366.08,671.224 367.06,669.905 367.596,668.789C367.822,668.319 368.828,668.026 368.828,667.466L368.864,667.705ZM443.912,659.318C445.759,660.668 446.819,661.046 448.602,661.909C448.812,662.011 449.086,662.697 448.931,663.002C448.546,663.76 446.796,664.082 446.084,664.299C443.253,665.162 438.602,664.877 436.12,663.241C435.391,662.761 434.678,661.845 434.045,661.363C431.409,659.355 426.74,659.69 423.65,658.529C420.341,657.286 417.921,654.595 415.581,652.256C413.125,649.799 410.753,650.232 411.336,646.274C411.434,645.606 411.692,644.922 411.856,644.265C412.056,643.46 412.444,642.583 412.789,641.884C414.282,638.853 419.169,639.941 421.147,641.919C423.812,644.584 425.27,648.175 427.856,650.761C430.166,653.071 433.226,654.433 436.003,656.254C438.753,658.057 440.559,660.122 443.733,660.122L443.912,659.318ZM782.176,572.894C782.186,572.69 782.191,572.481 782.191,572.268L782.653,572.879C782.493,572.879 782.334,572.884 782.176,572.894C781.808,580.388 774.835,582.545 769.4,586.41C763.743,590.434 757.068,591.897 750.544,594.47C746.196,596.185 742.725,599.162 738.593,601.197C737.681,601.646 736.11,601.483 735.093,601.77C728.834,603.539 725.751,602.225 719.614,601.194C714.447,600.326 709.366,599.739 704.784,597.052C703.48,596.287 701.369,595.622 700.647,594.131C699.813,592.412 707.783,594.515 709.359,594.778C710.196,594.918 711.032,595.236 711.874,595.351C720,596.455 728.146,595.629 736.136,593.952C740.277,593.084 743.808,590.635 747.764,589.384C750.647,588.474 753.651,588.09 756.52,587.363C758.319,586.907 759.669,585.31 761.492,584.848C762.868,584.5 764.691,584.253 765.934,583.621C771.69,580.7 776.234,573.277 782.176,572.894ZM680.744,578.601C678.503,578.082 676.337,577.448 674.13,576.345C670.683,574.621 669.38,569.744 665.608,568.249C663.166,567.281 657.268,564.986 656.069,562.588C655.457,561.363 656.337,558.925 657.138,558.137C657.581,557.7 659.378,558.418 659.95,558.137C660.754,557.741 661.267,556.048 660.861,555.236C658.371,550.257 652.99,547.242 650.365,541.992C647.539,536.341 648.586,529.791 646.625,524.096C643.854,516.047 642.238,506.964 643.982,497.866C644.368,495.856 646.181,493.066 648.269,492.037C649.9,491.234 652.533,491.43 654.183,490.592C655.321,490.015 656.241,488.857 657.263,488.095C658.032,487.523 660.035,486.974 660.462,486.126C661.05,484.96 660.058,483.234 659.627,482.332C657.999,478.92 647.467,482.416 650.743,475.963C653.2,471.122 659.158,468.037 662.869,464.359C666.086,461.171 665.719,456.301 667.734,452.331C671.057,445.786 682.602,445.873 688.37,447.325C690.667,447.903 692.539,447.03 694.268,448.817C694.688,449.251 694.566,451.391 694.11,451.623C693.093,452.139 690.523,451.623 689.341,451.623C684.915,451.623 676.094,451.706 674.437,457.077C673.262,460.888 677.244,464.394 680.629,465.039C681.793,465.261 683.102,464.887 684.267,465.13C685.701,465.43 686.997,466.08 688.475,466.283C689.975,466.488 694.107,468.637 693.097,470.688C690.254,476.46 682.145,473.607 676.762,474.515C672.458,475.242 670.417,481.347 672.182,484.878C674.294,489.102 680.252,487.11 683.653,485.188C690.515,481.311 693.342,474.154 700.341,470.669C703.25,469.221 703.728,469.31 706.636,469.917C707.002,469.993 708.182,469.82 708.451,470.089C709.718,471.355 707,474.392 706.315,475.446C703.746,479.401 698.323,479.797 695.966,484.544C695.393,485.699 693.869,486.528 694.572,487.932C695.106,489 696.387,487.276 696.806,487.004C699.273,485.405 701.286,483.48 703.376,481.396C704.102,480.673 704.602,479.623 705.44,479.012C708.713,476.624 717.731,477.796 718.682,472.835C719.454,468.808 716.304,468.389 713.251,466.862C711.399,465.936 709.663,463.791 708.018,462.487C706.765,461.494 705.644,456.994 706.783,455.871C707.061,455.597 708.935,455.871 709.296,455.871C711.817,455.871 715.608,458.866 717.66,460.238C722.074,463.19 726.312,466.178 730.127,469.994C731.914,471.78 732.92,474.129 734.683,475.893C736.516,477.725 741.31,480.429 743.78,481.416C749.028,483.512 755.558,482.036 760.037,479.126C761.112,478.429 764.308,477.429 764.774,476.512C765.74,474.608 771.279,470.259 773.419,472.399C774.214,473.195 772.793,475.745 772.653,476.434C772.186,478.718 769.869,478.987 768.93,480.836C768.288,482.102 768.124,484.554 768.518,486.119C768.608,486.477 768.353,488.092 768.6,488.325C772.667,492.149 776.026,498.4 774.728,504.567C774.714,504.635 774.699,504.703 774.683,504.771C775.404,504.078 776.094,503.386 776.757,502.724C777.223,502.258 780.075,501.316 780.752,501.993C781.252,502.493 780.963,503.332 781.155,504.101C782.186,508.226 778.46,509.588 776.782,512.892C771.673,522.959 772.858,535.291 768.344,545.968C767.936,546.933 767.488,547.873 767.071,548.834C766.712,549.658 766.196,550.426 765.874,551.232C765.257,552.774 763.468,556.7 764.702,557.934C764.957,558.189 765.091,559.575 765.653,559.575L765.723,559.847C765.723,562.835 769.102,566.044 771.105,561.978C772.584,558.974 775.746,556.848 777.224,553.846C778.317,551.627 779.185,549.004 780.749,546.905C781.189,546.314 784.384,541.379 784.951,544.007C786.435,550.888 780.772,557.531 776.747,562.576C774.706,565.133 772.72,567.601 770.443,570.02C768.992,571.561 766.582,572.456 764.795,573.497C756.485,578.337 748.123,581.562 738.749,584.453C735.644,585.411 732.454,584.873 729.245,585.272C725.009,585.799 720.675,587.887 716.351,587.343C711.742,586.764 707.142,584.569 702.659,583.441C701.656,583.188 701.183,581.627 700.014,581.333C698.018,580.83 695.434,581.297 693.139,581.692L693.123,581.706C693.094,581.733 693.028,581.737 692.939,581.726C692.39,581.82 691.859,581.908 691.359,581.976C690.563,582.084 688.555,581.749 687.696,582.172C687.309,582.363 683.685,582.996 683.211,582.522C682.468,581.779 681.09,579.661 680.804,579.094C680.734,578.955 680.717,578.789 680.744,578.601ZM635.619,513.933C635.916,515.614 636.852,517.972 637.765,518.885C638.663,519.783 640.354,520.319 640.817,521.808C641.454,523.852 641.904,526.023 642.443,528.179C643.412,532.055 641.765,536.488 642.95,540.293C643.886,543.301 645.693,544.05 646.994,546.654C647.115,546.894 647.339,548.763 647.15,548.929C646.575,549.435 644.638,548.662 644.152,548.512C641.555,547.707 638.135,545.572 636.581,543.213C632.989,537.762 637.265,534.484 635.921,529.143C634.441,523.263 628.872,518.004 634.309,512.818C634.7,512.445 635.256,513.605 635.619,513.933ZM635.619,513.933C635.558,513.582 635.524,513.26 635.524,512.987L635.778,514.016C635.731,514.016 635.678,513.985 635.619,513.933ZM785.016,502.311C789.889,501.367 792.25,496.552 795.206,492.801C796.963,490.571 798.608,488.4 799.093,485.481C799.58,482.544 799.157,479.417 800.526,476.637C802.72,472.183 805.762,468.615 807.996,464.113C808.42,463.259 804.012,460.861 803.144,459.993C802.769,459.618 802.255,458.401 801.55,458.751C796.856,461.081 797.466,467.71 794.959,471.479C794.214,472.599 792.4,473.245 791.295,474.068C788.027,476.502 784.358,478.755 780.852,480.797C779.649,481.497 776.779,484.334 777.665,486.107C778.461,487.699 780.395,488.785 781.206,490.396C782.389,492.743 782.319,501.876 785.111,501.876L785.016,502.311ZM758.693,471.818C762.572,469.831 760.93,463.734 764.182,461.572C766.012,460.355 767.901,461.503 769.857,460.885C771.601,460.334 773.74,460.217 775.566,459.755C779.859,458.667 779.597,454.59 777.812,451.882C776.684,450.17 772.299,449.43 770.312,449.923C768.85,450.286 766.912,450.715 765.638,451.543C764.052,452.573 762.916,454.585 761.206,455.427C757.049,457.474 752.093,456.923 748.532,460.377C747.874,461.016 748.122,463.36 748.122,464.318C748.122,469.455 750.927,470.325 754.866,472.294C756.195,472.959 757.912,471.592 758.846,471.592L758.693,471.818ZM737.776,447.325C740.825,447.325 746.219,446.448 748.935,447.816C749.48,448.091 752.511,447.603 751.721,449.171C751.113,450.377 747.31,451.327 746.025,451.723C739.963,453.593 735.756,451.224 730.253,449.026C728.851,448.466 726.651,447.789 725.635,446.773C724.853,445.991 723.324,445.679 722.38,445.057C721.089,444.206 720.362,443.038 719.342,442.019C718.809,441.485 717.562,440.039 718.316,440.001C719.108,439.96 721.81,442.132 722.775,442.433C727.476,443.896 732.99,446.806 738.046,446.806L737.776,447.325ZM284.396,268.611C284.351,268.587 284.306,268.564 284.26,268.541C282.98,267.901 280.562,267.431 279.13,266.983C276.969,266.306 274.648,263.863 273.08,262.295C269.745,258.959 264.592,256.733 261.44,253.581C260.815,252.956 261.203,250.237 261.203,249.45C261.203,244.917 263.427,243.428 261.808,238.746C260.528,235.045 255.719,233.518 254.531,230.081C252.752,224.936 253.771,218.271 253.771,212.753C253.771,205.519 253.677,198.213 254.416,191.224C255.018,185.53 259.772,178.757 262.597,174.407C264.1,172.094 263.82,169.075 265.639,166.77C270.027,161.206 279.087,160.002 284.52,155.89C285.255,155.333 288.766,152.105 290.072,153.411C291.175,154.513 290.197,163.821 288.777,163.821C288.407,163.821 289.517,163.821 289.886,163.821C322.638,158.764 345.619,159.603 357.432,167.18C370.087,167.238 385.284,171.594 390.384,184.46C391.27,186.697 392.804,192.161 391.582,194.569C390.456,196.787 388.876,194.598 387.827,193.548C385.421,191.143 384.022,188.006 381.661,185.646C378.729,182.713 366.373,181.079 364.782,185.672C359.136,201.973 378.629,203.52 382.085,216.734L384.535,216.734C385.359,216.732 386.183,216.682 387.006,216.648C388.156,216.6 389.31,216.57 390.46,216.632C391.501,216.688 392.562,216.811 393.548,217.166C393.939,217.307 394.319,217.494 394.651,217.744C394.88,217.916 395.077,218.125 395.271,218.334C395.563,218.65 395.837,218.983 396.089,219.331C396.614,220.058 397.041,220.855 397.349,221.697C397.658,222.539 397.848,223.422 397.935,224.314C398.05,225.496 397.987,226.691 397.812,227.864C397.672,228.809 397.459,229.742 397.202,230.661C397.094,231.048 396.972,231.431 396.856,231.816C396.788,232.041 396.726,232.268 396.664,232.495C396.589,232.771 396.515,233.047 396.436,233.322C396.372,233.544 396.305,233.765 396.233,233.984C395.893,235.011 395.409,236.086 394.476,236.703L394.453,236.718C394.991,237.681 395.495,238.777 395.904,239.398C398.9,243.946 401.569,252.746 398.906,257.992C396.416,262.897 386.783,263.443 381.845,263.443C380.165,263.443 377.375,263.124 375.074,262.432C371.189,272.3 362.222,281.476 353.583,286.509C352.14,287.349 349.429,287.37 347.772,287.682C345.426,288.125 343.039,289.505 340.775,290.126C337.949,290.901 333.933,290.126 330.937,290.126C327.33,290.126 321.282,291.379 317.732,290.267C317.398,290.163 317.074,290.046 316.756,289.917C316.755,289.988 316.755,290.056 316.755,290.121C316.755,295.31 315.15,302.367 310.042,304.883C304.821,307.454 298.762,303.618 294.389,301.423C288.613,298.523 281.378,293.637 278.558,287.997C277.152,285.185 280.324,280.89 280.825,278.23C281.361,275.382 281.83,272.312 283.435,269.842C283.683,269.46 284.022,269.018 284.396,268.611ZM352.923,291.757C360.613,291.757 368.827,283.497 372.828,277.47C373.317,276.733 377.502,271.666 378.965,273.128C380.425,274.589 380.562,279.536 380.562,281.727C380.562,288.373 376.674,294.688 370.244,296.671C365.646,298.089 361.106,295.357 357.157,294.498C355.782,294.199 353.955,293.735 353.302,292.448C353.235,292.317 354.527,292.34 354.705,292.34L352.923,291.757ZM291.604,275.089C292.109,275.426 292.654,275.723 293.255,275.963C296.235,277.154 299.318,277.145 302.279,278.626C305.661,280.317 308.149,283.256 310.874,285.828C310.302,286.275 309.732,286.61 309.162,286.61L310.736,288.032C310.736,289.135 306.3,286.442 306.045,286.314C303.363,284.974 298.948,286.761 296.564,284.378C294.916,282.729 292.327,279.846 291.475,277.373C291.384,277.109 291.477,276.24 291.604,275.089ZM254.198,177.622L253.386,176.81C253.386,179.438 251.904,183.948 250.742,186.238C250.207,187.292 250.603,189.049 250.231,190.224C248.683,195.125 247.986,200.276 247.312,205.621C247.12,207.144 247.9,214.688 246.883,215.584C246.551,215.876 246.883,218.952 246.883,219.418C246.883,221.737 245.908,227.5 247.127,229.938C247.971,231.626 249.497,233.394 250.065,235.668C251.801,242.609 250.294,251.16 254.723,257.368C258.234,262.287 261.302,264.744 266.132,268.366C266.999,269.017 269.723,270.704 268.955,272.171C268.605,272.84 266.963,273.011 266.379,273.307C264.434,274.294 260.243,271.285 258.908,270.282C253.424,266.159 245.563,261.881 242.771,255.254C239.774,248.142 240.058,240.722 240.058,232.98C240.058,228.275 239.267,224.477 237.169,220.28C236.222,218.385 237.169,213.589 237.169,211.389C237.169,201.291 238.15,193.528 245.132,186.441C246.715,184.833 250.845,175.001 253.88,176.531C254.212,176.698 254.126,177.252 254.198,177.622L254.547,177.971C254.322,177.971 254.236,177.824 254.198,177.622ZM390.107,238.029C389.647,238.116 389.187,238.204 388.73,238.304C388.493,238.356 388.259,238.418 388.022,238.469C387.838,238.509 387.651,238.539 387.465,238.565C386.77,238.664 386.069,238.716 385.368,238.75C384.401,238.796 383.433,238.8 382.466,238.756L382.335,238.75C382.08,243.344 381.525,247.936 380.425,252.279C380.365,252.515 380.279,252.739 380.172,252.953C382.947,252.882 385.7,252.907 387.435,252.372C394.464,250.204 391.235,243.192 390.22,238.007L390.107,238.029ZM382.571,233.326L382.512,233.334C382.521,232.615 382.526,231.897 382.526,231.183C382.526,228.583 382.752,225.653 382.735,222.811L382.891,222.811C383.459,222.809 384.028,222.809 384.597,222.821C385.013,222.83 385.429,222.845 385.845,222.87C386.387,222.902 386.929,222.952 387.466,223.036C387.907,223.105 388.345,223.197 388.771,223.332C389.308,223.503 389.842,223.748 390.253,224.143C390.398,224.283 390.526,224.442 390.628,224.617C390.711,224.759 390.78,224.913 390.822,225.072C390.918,225.433 390.862,225.813 390.758,226.165C390.577,226.78 390.251,227.338 390.03,227.938C389.968,228.104 389.926,228.274 389.881,228.445C389.843,228.587 389.803,228.729 389.761,228.87C389.62,229.339 389.45,229.801 389.235,230.242C389.026,230.674 388.772,231.086 388.461,231.452C388.254,231.696 388.021,231.918 387.764,232.11C387.617,232.219 387.463,232.319 387.304,232.408C386.341,232.946 385.22,233.072 384.141,233.169C383.933,233.188 383.725,233.206 383.518,233.224C383.202,233.253 382.886,233.285 382.571,233.326ZM840.302,49.277C836.876,49.277 834.414,50.558 833.887,53.686C833.814,54.113 832.712,56.162 833.228,56.653C835.302,58.628 843.428,59.824 839.833,65.23C837.953,68.056 833.612,73.578 830.234,74.62C828.981,75.006 825.383,76.053 824.588,76.861C824.231,77.224 822.936,83.484 823.182,84.003C825.289,88.468 831.497,90.25 833.697,94.217C836.318,98.942 839.191,104.285 842.104,108.728C843.284,110.527 843.564,114.192 844.87,115.498C848.049,118.678 850.392,121.14 849.329,126.684C848.469,131.17 844.11,137.464 842.163,141.3C841.007,143.577 843.394,147.057 844.033,148.911C845.589,153.432 844.884,159.069 841.137,162.76C840.281,163.603 838.764,162.22 838.563,161.577C837.535,158.293 836.482,155.204 834.163,152.885C830.437,149.16 820.779,147.653 818.477,143.048C818.021,142.135 820.579,138.13 820.966,137.432C823.538,132.801 825.87,128.815 828.778,124.436C829.231,123.752 832.16,120.812 832.186,120.275C832.516,113.578 827.713,109.918 825.062,104.615C822.612,99.714 824.826,94.959 820.588,90.653C818.658,88.692 812.778,88.962 811.3,86.146C806.9,77.765 799.74,74.836 792.628,69.495C790.197,67.67 788.937,64.854 786.455,62.884C781.814,59.2 773.878,57.675 768.167,57.675C757.203,57.675 746.226,62.988 736.589,67.774C735.064,68.531 727.518,74.265 725.826,72.465C723.698,70.202 725.794,67.847 727.291,65.834C730.541,61.466 734.067,57.53 738.261,53.988C738.722,53.599 744.615,49.745 744.177,49.333C742.947,48.177 737.107,48.111 735.372,48.646C732.529,49.523 730.168,52.756 727.526,53.671C722.03,55.574 715.762,52.313 710.731,54.029C704.976,55.993 706.294,62.157 705.296,66.902C705.093,67.869 705.579,70.497 704.846,71.219C703.785,72.265 702.613,74.967 701.844,76.483C700.546,79.039 693.393,80.955 692.426,84.014C690.797,89.169 689.441,96.014 690.967,102.119C691.793,105.424 694.26,108.528 695.102,111.896C696.887,119.034 692.285,126.205 692.285,133.295C692.285,134.391 693.088,131.189 693.856,130.408C695.444,128.795 696.672,126.084 696.672,123.783C696.672,119.484 698.596,113.38 699.87,109.25C700.669,106.659 699.295,103.322 700.474,100.928C701.642,98.556 705.722,102.033 706.446,103C714.811,114.153 710.559,129.521 713.158,142.058C713.717,144.757 714.465,149.729 716.427,151.724C716.944,152.25 718.775,150.926 719.428,151.579C721.276,153.427 724.48,160.417 725.356,163.216C726.539,166.998 720.666,177.648 725.306,179.896C730.75,182.533 739.096,180.011 745.007,180.011C747.669,180.011 751.119,180.657 753.669,180.011C758.146,178.876 759.845,175.252 764.982,175.252C767.934,175.252 774.612,167.167 776.974,171.891C781.029,179.999 774.407,184.219 767.909,187.448C763.545,189.616 761.149,192.479 756.254,193.694C751.537,194.865 746.137,193.209 741.461,194.37C739.803,194.782 737.434,196.807 740.274,198.227C748.711,202.445 764.855,198.334 772.922,194.24C775.901,192.728 778.084,189.634 780.892,188.209C784.582,186.336 790.365,187.718 794.282,186.35C794.873,186.144 797.141,186.809 797.552,186.35C798.387,185.417 795.295,185.154 794.452,184.228C791.39,180.865 787.832,176.506 789.13,171.282C789.604,169.372 797.987,162.826 799.963,164.999C801.701,166.911 801.298,173.534 803.687,174.728C806.861,176.315 811.648,174.547 814.77,176.108C817.589,177.518 820.739,180 823.729,181.035C831.861,183.848 844.351,171.553 849.648,166.908C851.637,165.164 856.027,162.039 856.834,159.423C858.379,154.412 860.84,148.405 859.714,142.911C858.711,138.017 856.864,133.982 856.864,128.634C856.864,122.974 858.988,115.778 856.384,110.57C855.083,107.968 851.363,106.11 849.633,103.484C844.953,96.381 840.735,91.141 836.943,83.557C835.325,80.32 840.173,76.679 841.867,74.97C846.327,70.469 854.879,74.286 858.271,70.843C858.902,70.203 858.845,67.626 859.055,66.604C859.864,62.684 856.557,61.531 854.216,59.191C850.674,55.648 844.453,49.973 840.33,49.973L840.302,49.277ZM705.618,127.938C705.618,138.579 710.986,147.025 715.475,156.003C716.537,158.128 715.674,161.506 716.269,163.886C716.765,165.87 721.926,173.529 721.149,175.058C720.905,175.539 718.066,175.56 717.817,175.045C716.415,172.153 713.939,169.358 712.86,165.91C711.363,161.13 708.115,156.573 706.377,151.546C704.236,145.357 705.311,136.898 705.311,130.23L705.618,127.938ZM357.326,167.18L357.432,167.18L357.615,167.344C357.624,167.354 357.656,167.377 357.643,167.372C357.368,167.269 357.031,167.18 357.326,167.18ZM303.701,150.067C309.443,150.067 309.034,147.378 313.521,145.116C316.193,143.769 319.097,143.03 322.033,142.534C324.053,142.193 329.049,143.06 330.561,141.525C332.758,139.296 326.661,135.138 325.251,134.832C318.856,133.441 309.687,134.494 305.05,139.108C304.391,139.763 296.792,145.281 299.349,147.645C300.342,148.563 301.211,149.199 302.166,150.154C303.545,151.533 303.366,151.85 305.447,151.85L303.701,150.067ZM808.915,57.432C805.218,57.432 805.095,54.486 802.163,53.021C800.275,52.077 797.092,51.805 794.93,51.266C788.466,49.656 778.29,38.248 770.97,45.459C769.543,46.865 773.39,48.86 774.316,49.227C779.679,51.353 785.483,52.746 790.775,55.271C797.006,58.244 803.812,61.236 809.302,65.354C812.056,67.419 813.329,71.397 817.509,69.982C819.138,69.431 818.132,65.791 817.87,64.752C816.779,60.417 809.706,60.877 807.722,57.908L808.915,57.432Z" style="fill:white;"/>
    </g>
</svg>
