<?xml version="1.0" encoding="UTF-8" standalone="no"?>
<!DOCTYPE svg PUBLIC "-//W3C//DTD SVG 1.1//EN" "http://www.w3.org/Graphics/SVG/1.1/DTD/svg11.dtd">
<svg width="100%" height="100%" viewBox="0 0 1000 1000" version="1.1" xmlns="http://www.w3.org/2000/svg" xmlns:xlink="http://www.w3.org/1999/xlink" xml:space="preserve" xmlns:serif="http://www.serif.com/" style="fill-rule:evenodd;clip-rule:evenodd;stroke-linejoin:round;stroke-miterlimit:2;">
    <g transform="matrix(6.77597,0,0,6.77597,-2844.7,-3527.71)">
        <path d="M508,586C505.623,585.092 502.129,583.431 499.5,585.344C497.155,587.05 494.632,587.585 492,586.841C488.18,585.761 484.089,589.18 480,590.5C481.875,613.498 481.911,636.101 481,658.5C489.008,661.71 497.365,661.481 506,658.5C505.934,635.303 506.324,611.503 508,586ZM493.504,565.433C493.502,565.455 493.5,565.477 493.5,565.5L493.5,568.5C493.5,568.521 493.501,568.541 493.504,568.561C491.683,568.851 489.95,568.559 488,568.073C487.14,567.859 478.053,568.201 475.5,570.5C472.476,573.224 476,578 476,578C476,578 478.393,588.508 482,587.5C484.824,586.711 489.812,582.948 493.5,584.174C495.817,584.945 497.607,583.948 498.5,582.956C500.976,580.205 503.879,579.858 505,582.5C505.716,584.188 509.677,584.138 510.5,582.5C512.241,579.035 516.079,565.095 508,565.439C506.083,565.52 499.343,565.871 497.5,567C496.436,567.652 495.449,568.083 494.5,568.344L494.5,565.5C494.5,565.459 494.495,565.419 494.486,565.38C495.32,565.314 496.159,565.196 497,565.047C498.288,564.818 499.387,564.331 500.314,563.644C501.215,556.476 497.282,553.062 493.891,553.125C491.822,553.163 488.188,555.204 487.436,559.09C487.148,560.574 487.285,562.324 488.07,564.336C488.6,564.648 489.172,564.889 489.786,565.047C491.009,565.362 492.251,565.466 493.504,565.433ZM486.662,563.246C486.233,561.621 486.208,560.171 486.454,558.9C487.313,554.459 491.507,552.169 493.873,552.125C497.479,552.058 501.882,555.403 501.414,562.654C504.31,559.519 504.973,553.99 504.309,549C503.5,542.917 500.433,535.779 496,528C490.488,534.265 486.758,539.922 484.734,545C482.159,551.462 482.906,559.545 486.662,563.246Z" style="fill:white;"/>
    </g>
</svg>
