<?xml version="1.0" encoding="UTF-8" standalone="no"?>
<!DOCTYPE svg PUBLIC "-//W3C//DTD SVG 1.1//EN" "http://www.w3.org/Graphics/SVG/1.1/DTD/svg11.dtd">
<svg width="100%" height="100%" viewBox="0 0 1000 1000" version="1.1" xmlns="http://www.w3.org/2000/svg" xmlns:xlink="http://www.w3.org/1999/xlink" xml:space="preserve" xmlns:serif="http://www.serif.com/" style="fill-rule:evenodd;clip-rule:evenodd;stroke-linejoin:round;stroke-miterlimit:2;">
    <g transform="matrix(14.1732,0,0,14.1732,-6537.01,-3759.07)">
        <path d="M496.5,268.751C514.023,268.751 528.25,282.978 528.25,300.501C528.25,318.024 514.023,332.251 496.5,332.251C478.977,332.251 464.75,318.024 464.75,300.501C464.75,282.978 478.977,268.751 496.5,268.751ZM496.5,270.881C512.848,270.881 526.12,284.153 526.12,300.501C526.12,316.849 512.848,330.121 496.5,330.121C480.152,330.121 466.88,316.849 466.88,300.501C466.88,284.153 480.152,270.881 496.5,270.881ZM495,321.972C485.503,321.489 480.38,315.392 482.79,311.001C486.235,304.723 490.984,310.001 494.974,310.001C494.983,310.001 494.992,310.001 495,310.001L495,321.972ZM498,294.001C498.008,294.001 498.017,294.001 498.026,294.001L498.026,294.082C502.168,294.643 510.802,298.221 510.802,308.501C510.802,314.971 506.367,321.136 498,321.919L498,294.001ZM495,279.083L495,307.001C494.992,307.001 494.983,307.001 494.974,307.001L494.974,306.92C490.832,306.359 482.198,302.781 482.198,292.501C482.198,286.031 486.633,279.866 495,279.083ZM498,279.03C507.497,279.513 512.62,285.61 510.21,290.001C506.765,296.279 502.016,291.001 498.026,291.001C498.017,291.001 498.008,291.001 498,291.001L498,279.03Z" style="fill:white;"/>
    </g>
</svg>
