<?xml version="1.0" encoding="UTF-8" standalone="no"?>
<!DOCTYPE svg PUBLIC "-//W3C//DTD SVG 1.1//EN" "http://www.w3.org/Graphics/SVG/1.1/DTD/svg11.dtd">
<svg width="100%" height="100%" viewBox="0 0 1000 1000" version="1.1" xmlns="http://www.w3.org/2000/svg" xmlns:xlink="http://www.w3.org/1999/xlink" xml:space="preserve" xmlns:serif="http://www.serif.com/" style="fill-rule:evenodd;clip-rule:evenodd;stroke-linejoin:round;stroke-miterlimit:2;">
    <path d="M336.113,731.123C316.97,746.936 294.934,756.122 271.975,763.191C249.305,785.756 232.052,809.688 226.163,836.491C247.881,870.196 233.713,896.212 290.3,899.902C299.994,900.534 305.981,910.657 313.206,916.613C321.321,923.303 332.912,914.519 343.493,914.373C362.83,914.105 377.626,863.684 390.636,871.664C445.692,905.437 452.582,820.496 436.9,772.354C408.081,747.95 374.42,734.351 336.113,731.123ZM262.852,759.009C234.839,733.471 217.045,704.29 228.453,664.695C179.721,629.684 143.103,617.524 116.213,624.177C74.732,634.441 41.183,684.682 52.075,744.866C81.887,740.95 89.017,753.077 79.563,776.935C86.177,849.867 167.025,893.2 198.675,854.816C216.212,833.549 225.256,805.94 262.852,759.009ZM340.92,681.962C342.881,658.456 334.646,645.198 317.788,630.335C321.445,605.566 325.943,580.471 349.856,547.873C351.125,541.825 383.483,528.23 418.575,519.391C450.519,511.344 475.328,548.996 463.01,593.027L463.484,592.918C529.904,581.286 526.4,616.091 519.363,653.241C514.735,735.448 478.776,759.125 432.319,763.191C406.066,741.55 380.021,727.732 354.438,731.123C338.599,723.73 333.283,698.841 338.403,685.31L340.872,682.52L340.92,681.962ZM279.992,729.977C285.681,729.977 290.3,734.596 290.3,740.285C290.3,745.974 285.681,750.593 279.992,750.593C274.303,750.593 269.684,745.974 269.684,740.285C269.684,734.596 274.303,729.977 279.992,729.977ZM260.522,716.234C266.211,716.234 270.83,720.852 270.83,726.541C270.83,732.23 266.211,736.849 260.522,736.849C254.833,736.849 250.214,732.23 250.214,726.541C250.214,720.852 254.833,716.234 260.522,716.234ZM305.189,712.798C310.878,712.798 315.497,717.416 315.497,723.106C315.497,728.795 310.878,733.413 305.189,733.413C299.5,733.413 294.881,728.795 294.881,723.106C294.881,717.416 299.5,712.798 305.189,712.798ZM326.95,700.199C332.639,700.199 337.258,704.818 337.258,710.507C337.258,716.196 332.639,720.815 326.95,720.815C321.261,720.815 316.642,716.196 316.642,710.507C316.642,704.818 321.261,700.199 326.95,700.199ZM244.488,696.763C250.177,696.763 254.795,701.382 254.795,707.071C254.795,712.76 250.177,717.379 244.488,717.379C238.799,717.379 234.18,712.76 234.18,707.071C234.18,701.382 238.799,696.763 244.488,696.763ZM283.495,695.618C289.153,695.654 293.736,700.259 293.736,705.926C293.736,711.593 289.153,716.198 283.495,716.233L283.428,716.234C277.739,716.234 273.12,711.615 273.12,705.926C273.12,700.237 277.739,695.618 283.428,695.618L283.495,695.618ZM262.879,678.439C268.538,678.474 273.12,683.079 273.12,688.746C273.12,694.413 268.538,699.018 262.879,699.054L262.813,699.054C257.124,699.054 252.505,694.435 252.505,688.746C252.505,683.057 257.124,678.438 262.813,678.438L262.879,678.439ZM318.933,676.148C324.622,676.148 329.241,680.766 329.241,686.456C329.241,692.145 324.622,696.763 318.933,696.763C313.244,696.763 308.625,692.145 308.625,686.456C308.625,680.766 313.244,676.148 318.933,676.148ZM238.761,673.857C244.45,673.857 249.069,678.476 249.069,684.165C249.069,689.854 244.45,694.473 238.761,694.473C233.072,694.473 228.453,689.854 228.453,684.165C228.453,678.476 233.072,673.857 238.761,673.857ZM289.221,666.985C294.88,667.021 299.463,671.626 299.463,677.293C299.463,682.96 294.88,687.565 289.221,687.601L289.155,687.601C283.466,687.601 278.847,682.982 278.847,677.293C278.847,671.604 283.466,666.985 289.155,666.985L289.221,666.985ZM260.589,652.096C266.247,652.132 270.83,656.737 270.83,662.404C270.83,668.071 266.247,672.676 260.589,672.712L260.522,672.712C254.833,672.712 250.214,668.093 250.214,662.404C250.214,656.715 254.833,652.096 260.522,652.096L260.589,652.096ZM321.223,652.096C326.913,652.096 331.531,656.715 331.531,662.404C331.531,668.093 326.913,672.712 321.223,672.712C315.534,672.712 310.916,668.093 310.916,662.404C310.916,656.715 315.534,652.096 321.223,652.096ZM285.719,644.079C291.408,644.079 296.027,648.698 296.027,654.387C296.027,660.076 291.408,664.695 285.719,664.695C280.03,664.695 275.411,660.076 275.411,654.387C275.411,648.698 280.03,644.079 285.719,644.079ZM244.488,636.062C250.177,636.062 254.795,640.681 254.795,646.37C254.795,652.059 250.177,656.677 244.488,656.677C238.799,656.677 234.18,652.059 234.18,646.37C234.18,640.681 238.799,636.062 244.488,636.062ZM313.206,616.591C272.716,607.012 243.134,621.331 221.581,653.241C176.177,631.527 148.003,606.866 134.531,579.941C118.423,547.747 115.136,506.456 148.281,474.573C164.818,469.684 182.271,467.3 203.256,474.573C211.372,459.497 216.236,443.364 239.906,433.341C290.651,419.426 315.22,446.196 327.657,474.573C341.772,506.778 337.071,554.512 313.206,616.591ZM307.48,631.481C313.169,631.481 317.788,636.099 317.788,641.788C317.788,647.477 313.169,652.096 307.48,652.096C301.791,652.096 297.172,647.477 297.172,641.788C297.172,636.099 301.791,631.481 307.48,631.481ZM274.266,620.027C279.955,620.027 284.573,624.646 284.573,630.335C284.573,636.024 279.955,640.643 274.266,640.643C268.577,640.643 263.958,636.024 263.958,630.335C263.958,624.646 268.577,620.027 274.266,620.027ZM739.263,568.488C716.388,564.403 693.09,551.921 668.253,508.932C665.958,518.878 659.482,528.796 652.219,538.71C653.601,575.494 664.735,593.666 686.578,591.395C709.463,615.805 727.805,612.873 739.263,568.488ZM645.347,541.001C637.836,544.758 630.218,544.597 622.441,538.71C617.549,548.186 608.259,557.269 597.244,566.198C601.886,586.624 608.092,598.004 615.569,602.04C625.698,607.508 638.158,599.496 652.219,582.232C647.609,566.714 645.876,553.397 645.347,541.001ZM762.359,524.966C759.863,538.243 752.431,550.096 743.844,561.616C754.474,572.526 769.424,584.059 778.203,583.234C787.192,582.389 792.752,569.074 796.528,554.745C780.608,548.392 767.924,539.487 762.359,524.966ZM613.278,511.223C581.557,525.227 564.749,506.789 560.594,460.829C540.558,484.445 529.203,508.599 539.978,534.129C542.015,554.136 546.84,563.917 553.722,566.151C567.375,570.582 627.204,550.874 613.278,511.223ZM755.297,508.932C756.145,530.635 748.243,548.085 732.281,561.616C700.798,543.634 683.151,527.014 675.125,504.351C682.398,504.008 690.834,495.719 695.741,488.316C699.469,506.915 712.78,518.544 730.1,527.257C740.875,521.651 749.953,515.686 755.297,508.932ZM759.878,502.06C796.185,511.497 823.349,506.373 830.888,469.991C859.088,502.287 839.611,537.238 833.178,539.056C817.496,543.488 796.603,551.32 778.203,535.292C770.469,528.554 764.367,517.458 759.878,502.06ZM633.894,488.316C631.526,494.292 627.361,500.596 620.15,507.454C629.432,548.523 643.052,542.89 659.091,511.223C646.998,503.884 638.482,496.258 633.894,488.316ZM528.525,499.77C524.126,503.849 519.461,507.65 510.2,506.641C506.335,511.826 506.57,517.18 510.2,522.676C517.686,524.22 524.367,523.968 528.525,518.095C526.715,511.986 526.374,505.878 528.525,499.77ZM757.588,447.085C771.587,484.324 752.478,502.167 730.1,518.095C709.803,507.94 700.014,494.398 702.613,476.863C708.172,469.984 710.67,463.114 711.775,456.248C726.238,458.067 741.227,456.712 757.588,447.085ZM631.603,424.432C620.567,436.54 614.038,438.054 585.537,437.923C584.277,437.917 580.697,452.335 569.756,456.248C571.963,483.099 576.979,498.297 584.2,504.351C594.542,513.022 617.518,502.932 627.022,481.445C622.946,464.904 622.564,446.738 631.603,424.432ZM643.056,421.888C646.938,426.21 653.501,430.172 665.963,433.341C672.764,434.94 687.165,424.917 688.869,421.888C727.069,459.996 670.128,505.841 661.381,501.199C654.205,497.391 613.341,468.507 643.056,421.888ZM837.759,408.145C838.702,427.618 841.423,439.887 835.469,458.538C840.506,454.504 862.734,491.766 860.347,499.77C882.644,490.701 912.66,477.421 909.218,458.538C907.212,447.528 899.151,432.891 872.119,412.726C858.637,415.682 847.307,413.883 837.759,408.145ZM830.888,437.923C828.588,463.57 822.272,480.32 812.563,489.556C800.994,500.559 784.607,500.894 764.459,492.898C772.84,477.519 771.422,458.983 762.169,437.923C783.206,450.681 805.721,453.351 830.888,437.923ZM549.141,463.12C519.395,467.015 509.028,455.276 505.619,437.923C492.094,453.534 484.74,470.616 489.584,490.607C518.548,505.21 537.072,492.583 549.141,463.12ZM576.628,440.213C560.436,431.565 555.719,413.925 558.303,392.11C546.566,397.48 532.176,401.666 519.363,396.691C508.306,425.843 513.575,443.996 522.114,451.666C531.513,460.111 555.143,459.166 576.628,440.213ZM510.2,396.691C486.438,382.704 484.481,369.081 482.713,355.46C467.629,348.562 456.065,350.049 447.181,357.918C434.584,369.076 441.607,397.278 423.156,424.179C450.515,447.289 477.657,467.042 501.038,428.76L510.2,396.691ZM709.484,378.366C740.503,384.688 753.155,398.013 762.169,412.726C760.257,430.065 744.421,456.999 709.484,447.085C706.302,446.182 711.516,435.554 695.741,417.307C703.239,406.199 708.699,393.782 709.484,378.366ZM769.041,387.529C766.584,389.684 762.854,391.966 757.588,394.401C764.507,399.72 768.627,405.984 771.331,412.726C771.6,417.609 769.609,423.073 766.75,428.76C778.887,444.334 811.305,441.177 819.434,435.833C829.201,429.415 830.344,404.426 814.853,388.915C797.076,397.851 781.352,399.091 769.041,387.529ZM634.813,366.913C622.694,375.668 609.105,375.327 594.953,371.495C556.351,372.573 565.941,417.245 570.001,424.179C574.849,432.457 620.307,439.851 634.813,405.854C630.282,392.556 630.157,379.567 634.813,366.913ZM890.444,332.554C902.478,350.568 908.008,368.884 906.478,387.529C902.329,396.621 892.85,402.929 881.281,408.145C888.544,413.231 894.223,418.616 898.969,424.179C921.285,413.729 937.456,401.233 950,387.529C942.211,356.005 925.695,334.03 890.444,332.554ZM698.031,378.366C684.825,376.376 678.7,371.526 677.658,364.623C667.918,371.677 657.063,372.749 645.347,369.204C629.674,401.978 654.9,421.704 663.672,423.21C672.468,424.72 701.826,409.357 698.031,378.366ZM835.469,332.554C840.245,352.943 835.097,368.714 821.725,380.657C844.1,427.268 893.352,391.648 897.991,385.238C903.437,377.715 886.614,301.775 835.469,332.554ZM581.209,362.332L562.884,327.973C546.675,317.527 533.151,314.813 523.944,320.125C508.063,329.288 492.798,357.052 492.295,366.913C492.036,371.998 504.942,384.112 523.944,390.165C533.2,393.113 545.253,388.406 558.303,382.948L581.209,362.332ZM819.434,330.263C813.733,339.674 803.741,345.731 789.656,348.588C787.221,361.029 781.261,372.273 773.622,382.948C783.784,392.955 794.624,389.124 805.691,380.657C832.41,365.79 835.813,348.889 819.434,330.263ZM723.228,344.007C726.862,353.797 724.954,363 716.356,371.495C729.262,373.151 740.572,378.858 750.716,387.529C770.193,377.094 782.119,360.865 778.498,348.588C775.877,339.701 769.231,320.649 743.844,323.391C740.436,335.257 733.759,342.41 723.228,344.007ZM702.613,337.135C733.431,348.314 708.786,371.344 705.613,372.038C702.073,372.812 678.048,371.567 684.288,346.298C693.13,346.344 699.537,343.629 702.613,337.135ZM631.603,357.751C627.088,344.409 631.375,334.498 638.475,325.682C630.576,320.631 625.632,314.638 624.731,307.357C586.681,287.045 575.335,333.373 576.998,341.716C578.646,349.99 603.413,381.673 631.603,357.751ZM677.351,344.007C681.065,368.365 649.943,365.077 645.453,362.332C640.549,359.334 628.633,341.076 649.928,325.682C655.585,336.393 665.136,341.96 677.351,344.007ZM528.525,305.066L517.735,279.87C496.899,289.032 476.062,293.489 455.225,272.998C449.156,284.497 429.858,314.229 429.858,314.229C427.635,312.919 426.245,327.364 446.063,341.716C461.026,339.997 476.136,339.828 491.875,346.298C499.156,329.067 510.929,315.01 528.525,305.066ZM773.622,284.451C776.619,294.679 770.838,304.557 759.878,314.229C770.541,319.643 779.463,327.353 785.075,339.426C820.893,336.702 830.791,300.451 823.463,291.323C818.432,285.057 802.192,269.842 773.622,284.451ZM714.066,337.135C711.975,335.273 709.673,333.766 707.194,332.554C709.073,326.446 708.656,320.337 707.194,314.229C719.372,298.449 733.914,310.817 735.194,316.52C736.606,322.811 734.81,340.234 714.066,337.135ZM883.572,325.247C890.544,324.73 897.421,325.558 904.188,327.973C937.411,294.107 932.649,282.73 901.897,286.741C898.372,299.574 893.336,312.408 883.572,325.247ZM874.409,321.101C863.596,317.282 849.73,316.478 830.888,327.973L825.724,321.101C834.877,302.776 840.811,282.16 842.341,263.835C871.017,239.33 895.892,232.562 901.897,241.939C907.448,250.607 904.037,280.617 874.409,321.101ZM569.756,323.391C576.87,310.987 587.473,298.023 599.534,291.323C592.022,267.608 567.91,254.853 542.269,261.538C533.613,263.795 532.992,282.284 536.75,309.648C547.995,309.923 561.065,314.148 569.756,323.391ZM665.963,305.066L652.219,321.101C623.921,311.706 632.237,287.872 633.894,284.843C635.806,281.346 656.366,284.713 665.963,305.066ZM743.844,316.52C738.113,304.517 729.345,299.223 718.647,298.195C725.847,277.262 736.79,263.062 759.878,270.707C768.406,289.362 768.066,305.854 743.844,316.52ZM702.613,309.648C700.572,298.548 691.649,292.025 677.416,289.032C676.067,263.559 696.243,250.564 700.322,252.183C705.464,254.223 731.78,288.488 702.613,309.648ZM679.706,295.904L670.544,302.37C661.422,291.34 660.582,281.661 665.963,272.998L672.834,272.998C669.982,284.203 670.545,291.597 672.834,293.613C675.049,294.428 677.336,294.034 679.706,295.904ZM654.509,279.87C635.075,272.473 622.953,275.463 624.731,298.195L608.697,287.684C606.887,243.918 610.507,221.253 619.533,219.326C629.979,217.097 645.114,234.676 661.381,266.126L654.509,279.87ZM565.175,250.091C552.145,208.915 517.708,178.138 510.2,181.373C497.494,186.846 500.225,237.595 526.234,279.87C527.321,272.303 528.713,264.726 535.397,256.963C545.323,250.482 555.249,249.629 565.175,250.091ZM510.2,272.998C499.025,248.421 490.802,228.515 491.875,204.279C451.945,204.021 444.505,228.054 447.917,245.51C451.942,266.107 476.053,289.941 510.2,272.998ZM785.075,268.416C789.441,253.525 789.865,239.981 787.366,227.185C810.009,212.524 827.765,212.372 835.469,217.887C846.075,225.48 842.428,247.812 830.888,278.307C816.115,271.141 801.014,266.527 785.075,268.416ZM599.534,272.998C550.43,242.677 561.086,177.264 581.209,172.21C592.099,169.475 611.68,187.806 620.15,208.86C601.433,211.161 598.952,240.905 599.534,272.998ZM720.938,270.707C740.637,256.052 758.709,259.653 775.913,272.998C782.86,252.382 777.44,217.259 769.041,211.151C760.642,205.043 735.759,223.881 725.519,236.348C727.78,247.195 726.861,258.551 720.938,270.707ZM672.834,266.126C680.445,255.007 687.522,245.767 700.322,243.22C707.837,246.77 713.681,253.359 718.647,261.545C725.697,226.475 706.017,209.396 698.031,209.684C690.662,209.95 670.242,234.309 672.834,266.126ZM665.963,256.963C666.876,237.88 671.878,220.186 688.869,206.57C683.813,182.216 665.411,169.42 654.509,170.578C644.063,171.688 627.032,185.123 624.731,211.151C644.188,220.803 656.609,237.374 665.963,256.963ZM846.922,250.091C853.529,229.115 847.862,214.782 830.888,206.57C835.455,200.461 837.817,194.353 837.759,188.245C870.911,190.515 887.586,197.129 888.483,208.86C889.238,218.752 878.09,232.303 846.922,250.091ZM723.228,224.895C732.537,215.313 743.076,206.784 755.297,199.698C758.35,199.656 742.231,155.877 727.809,156.176C714.46,156.453 692.234,199.824 693.45,199.698C706.784,202.659 717.547,209.723 723.228,224.895ZM782.784,218.023C777.157,208.745 770.452,202.214 762.169,199.698C764.954,175.304 781.838,155.709 824.016,144.723C832.717,165.317 832.482,185.149 824.016,204.279C810.022,207.001 796.222,211.163 782.784,218.023ZM556.013,213.441C544.576,195.254 532.444,181.025 519.363,172.21C512.484,148.437 529.107,140.031 537.688,136.441C550.29,131.167 573.535,136.039 588.081,163.048C563.528,165.818 554.754,184.554 556.013,213.441ZM622.441,192.826C628.768,174.073 641.233,162.927 659.091,158.466C662.065,108.41 646.588,86.634 617.859,85.166C586.566,102.971 582.052,124.429 585.791,147.013C600.333,158.793 612.252,174.511 622.441,192.826ZM688.869,185.954C698.833,168.954 712.11,155.531 727.809,144.723C723.373,129.746 715.302,116.892 700.322,108.073C683.815,113.448 672.956,123.056 665.963,135.56L665.963,163.048C676.682,168.865 683.576,176.938 688.869,185.954ZM856.084,181.373C850.18,180.071 844.198,178.975 837.759,179.082C839.185,173.598 839.098,168.261 837.759,163.048C852.157,160.542 861.155,163.647 856.084,181.373ZM757.588,179.082C752.35,168.258 745.531,158.027 734.681,149.304C733.527,129.858 723.385,116.539 709.484,105.782C725.781,87.865 738.652,77.79 746.134,81.723C775.021,96.905 773.569,129.093 757.588,179.082ZM769.041,165.338C780.524,154.917 792.449,146.173 805.691,142.432C808.393,133.27 808.888,124.107 807.981,114.945C798.055,113.477 788.129,117.815 778.203,126.398C777.545,139.378 774.567,152.358 769.041,165.338ZM684.288,103.491C675.182,109.149 669.424,115.482 663.672,121.816C663.235,116.33 662.529,111.067 659.091,108.073C667.948,93.753 676.478,88.571 684.288,103.491Z" style="fill:white;"/>
</svg>
