<?xml version="1.0" encoding="UTF-8" standalone="no"?>
<!DOCTYPE svg PUBLIC "-//W3C//DTD SVG 1.1//EN" "http://www.w3.org/Graphics/SVG/1.1/DTD/svg11.dtd">
<svg width="100%" height="100%" viewBox="0 0 1000 1000" version="1.1" xmlns="http://www.w3.org/2000/svg" xmlns:xlink="http://www.w3.org/1999/xlink" xml:space="preserve" xmlns:serif="http://www.serif.com/" style="fill-rule:evenodd;clip-rule:evenodd;stroke-linejoin:round;stroke-miterlimit:2;">
    <g transform="matrix(11.8421,0,0,11.8421,-6835.9,-5871.05)">
        <path d="M619.008,528.836C610.995,530.317 601.32,528.078 602,527C601.536,527.327 601.205,527.83 601,528.5C592.493,529.903 586.343,531.63 587,533C588.317,535.749 592.927,534.172 600,536C600.402,536.667 600.731,537.333 601,538C606.466,535.303 613.046,532.288 618.969,533.06C618.891,546.883 619.262,562.747 620,576C623.308,574.282 624.836,556.031 624.221,534.556C636.228,538.227 645.25,536.294 652,530C652,530 638.51,523.911 623.948,527.53C623.498,518.344 622.667,508.846 621.431,500C619.961,501.931 619.067,513.06 619.013,528.446C619.011,528.576 619.009,528.707 619.008,528.836Z" style="fill:white;"/>
    </g>
</svg>
