<?xml version="1.0" encoding="UTF-8" standalone="no"?>
<!DOCTYPE svg PUBLIC "-//W3C//DTD SVG 1.1//EN" "http://www.w3.org/Graphics/SVG/1.1/DTD/svg11.dtd">
<svg width="100%" height="100%" viewBox="0 0 1000 1000" version="1.1" xmlns="http://www.w3.org/2000/svg" xmlns:xlink="http://www.w3.org/1999/xlink" xml:space="preserve" xmlns:serif="http://www.serif.com/" style="fill-rule:evenodd;clip-rule:evenodd;stroke-linejoin:round;stroke-miterlimit:2;">
    <g transform="matrix(3.70712,0,0,3.70634,-1275.41,-1315.49)">
        <path d="M493.616,503.477C492.881,505.697 491.983,508.019 490.917,510.444C495.198,516.75 493.336,518.105 487.27,516.075C479.429,520.625 479.688,530.365 480.7,536.472C481.636,542.13 484.7,552.597 494.431,551.085L495.092,554.177L491.327,557.157C503.266,602.704 479.208,610.955 447.469,611.247L447.107,611.162C416.407,603.861 395.012,590.451 416.614,548.819L413.598,545.082L414.925,542.212C424.083,545.833 429.379,536.298 431.54,530.985C433.873,525.252 436.274,515.809 429.628,509.642C423.263,510.285 421.746,508.552 427.312,503.346C421.38,472.817 435,461.404 458.364,459.52L465.962,403.394L463.476,403.116C463.064,403.81 462.723,403.858 462.483,403.005L461.489,402.894C456.427,406.94 455.142,402.739 455.314,401.199C455.518,399.374 458.084,396.37 461.711,400.907L462.704,401.018C463.106,400.319 463.435,400.379 463.698,401.129L466.231,401.411L466.684,398.063L465.241,397.902C465.117,397.208 465.168,396.542 465.463,395.914L466.953,396.074L467.301,393.502L464.757,393.218C464.345,393.912 464.004,393.96 463.764,393.107L462.77,392.996C457.708,397.042 456.423,392.841 456.595,391.301C456.799,389.476 459.365,386.472 462.992,391.009L463.985,391.12C464.387,390.421 464.716,390.48 464.979,391.231L467.57,391.52L468.026,388.151L466.35,387.964C466.226,387.27 466.277,386.604 466.572,385.976L468.295,386.16L469.099,380.221C465.345,378.785 463.543,377.012 464.81,374.711C469.302,374.867 471.62,372.841 471.55,368.42L477.513,369.085C476.469,373.382 478.283,375.869 482.699,376.708C483.428,379.231 481.28,380.563 477.301,381.136L476.776,387.115L479.492,387.418C479.913,386.744 480.247,386.759 480.485,387.529L481.479,387.64C486.016,384.014 487.858,387.51 487.654,389.335C487.482,390.875 485.303,394.69 481.257,389.628L480.264,389.517C479.841,390.295 479.519,390.174 479.27,389.406L476.6,389.108L476.404,391.339L478.027,391.528C478.176,392.205 478.079,392.866 477.805,393.516L476.228,393.34L475.901,397.058L478.559,397.355C478.981,396.681 479.315,396.696 479.553,397.466L480.547,397.577C485.084,393.951 486.925,397.447 486.721,399.272C486.55,400.812 484.371,404.627 480.325,399.564L479.331,399.454C478.909,400.232 478.587,400.111 478.337,399.343L475.726,399.051L475.417,402.562L476.778,402.72C476.927,403.395 476.831,404.053 476.557,404.699L475.242,404.552L470.29,460.851C471.474,461.22 472.625,461.61 473.743,462.022C473.077,460.624 472.413,459.232 471.749,457.84L471.931,455.898C472.986,458.111 474.042,460.325 475.097,462.537C476.177,462.962 477.223,463.407 478.233,463.876C476.27,459.612 474.321,455.348 472.383,451.082L472.726,447.425C475.559,453.422 478.413,459.421 481.294,465.426C492.271,471.503 498,480.812 495.722,495.048C512.368,528.654 530.117,562.4 550,596.42L548,597.92L542.5,587.42L535,591.92L528,576.42L528.687,575.904C516.874,551.63 505.162,527.464 493.616,503.477ZM450.329,589.952L450.903,589.494L460.925,562.804L458.842,562.572L476.557,383.523L475.562,383.425L457.848,562.461L454.943,562.137L474.357,383.825L473.363,383.717L453.949,562.026L451.999,561.808L472.372,383.606L471.378,383.493L451.005,561.697L448.1,561.373L470.291,382.837L469.299,382.713L447.106,561.262L445.023,561.03L448.897,589.139C441.867,585.427 427.655,581.688 412.802,592.788C421.11,601.489 430,606.996 447.083,610.198C462.924,603.255 456.751,595.404 452.751,591.713C452.216,591.219 451.397,590.604 450.329,589.952ZM494.888,499.105C506.954,523.844 519.887,548.48 534.5,572.92L533.5,574.42L535,577.92C534.75,579.017 534.001,579.399 533,579.42L530,574.92L529.502,575.293C517.562,550.757 505.725,526.332 494.058,502.09C494.369,501.074 494.646,500.079 494.888,499.105ZM467.607,529.979C467.659,530.763 467.233,530.981 466.502,530.862C466.01,530.783 466.133,530.185 466.116,529.813C466.069,528.777 468.344,526.798 469.924,527.251C472.421,527.966 474.856,533.716 473.896,541.246C472.309,553.69 475.787,556.097 476.704,556.653C477.714,557.265 477.013,553.89 477.589,553.23C478.117,552.626 478.648,551.998 479.725,552.122C480.649,552.228 480.876,552.976 481.068,553.618C481.54,555.2 478.828,559.253 476.064,557.885C473.517,556.624 470.369,551.872 471.411,540.969C472.062,534.164 471.282,529.574 469.743,528.869C468.756,528.417 467.554,529.186 467.607,529.979ZM445.742,527.539C445.519,528.292 445.886,528.599 446.625,528.644C447.123,528.675 447.135,528.065 447.233,527.706C447.507,526.706 445.724,524.274 444.084,524.367C441.49,524.515 437.848,529.586 437.124,537.143C435.928,549.63 432.006,551.211 430.988,551.551C429.868,551.925 431.296,548.788 430.879,548.017C430.498,547.312 430.118,546.582 429.04,546.465C428.116,546.365 427.73,547.045 427.401,547.629C426.592,549.068 428.343,553.619 431.341,552.894C434.104,552.226 438.221,548.285 439.609,537.42C440.474,530.639 442.247,526.334 443.903,525.985C444.966,525.762 445.969,526.777 445.742,527.539ZM460.717,434.627C451.575,415.334 442.582,396.2 433.77,377.26L433.768,377.263L429,368.42L436,368.42C444.717,387.241 453.373,406.055 462.15,424.881L461.761,427.526C453.89,409.98 446.066,392.436 438,374.92C436.451,374.495 435.239,374.91 434.363,376.164C443.07,394.882 451.954,413.79 460.979,432.845L460.717,434.627Z" style="fill:white;"/>
    </g>
</svg>
