<?xml version="1.0" encoding="UTF-8" standalone="no"?>
<!DOCTYPE svg PUBLIC "-//W3C//DTD SVG 1.1//EN" "http://www.w3.org/Graphics/SVG/1.1/DTD/svg11.dtd">
<svg width="100%" height="100%" viewBox="0 0 1000 1000" version="1.1" xmlns="http://www.w3.org/2000/svg" xmlns:xlink="http://www.w3.org/1999/xlink" xml:space="preserve" xmlns:serif="http://www.serif.com/" style="fill-rule:evenodd;clip-rule:evenodd;stroke-linejoin:round;stroke-miterlimit:2;">
    <g transform="matrix(9.23711,0,0,9.23711,-4107.25,-3596.05)">
        <path d="M488.977,462L497.276,462L497.276,489.766L468.668,489.766L459.957,462.955L486.487,454.335L488.977,462ZM511.023,454.467L537.554,463.087L528.885,489.766L500.276,489.766L500.276,462L508.575,462L511.023,454.467ZM547.493,432.497L538.481,460.234L511.95,451.613L514.632,443.361L507.917,438.483L524.437,415.746L547.493,432.497ZM472.473,416.212L488.993,438.95L482.921,443.361L485.56,451.482L459.03,460.102L450.06,432.497L472.473,416.212ZM522.01,413.982L505.49,436.72L498.776,431.842L491.42,437.186L474.9,414.449L498.776,397.102L522.01,413.982Z" style="fill:white;"/>
    </g>
</svg>
