<?xml version="1.0" encoding="UTF-8" standalone="no"?>
<!DOCTYPE svg PUBLIC "-//W3C//DTD SVG 1.1//EN" "http://www.w3.org/Graphics/SVG/1.1/DTD/svg11.dtd">
<svg width="100%" height="100%" viewBox="0 0 1000 1000" version="1.1" xmlns="http://www.w3.org/2000/svg" xmlns:xlink="http://www.w3.org/1999/xlink" xml:space="preserve" xmlns:serif="http://www.serif.com/" style="fill-rule:evenodd;clip-rule:evenodd;stroke-linejoin:round;stroke-miterlimit:2;">
    <g transform="matrix(6.17736,0,0,6.32116,-3554.23,-2246.28)">
        <path d="M649.651,441.626C629.164,430.11 605.923,416.839 584.698,402.488C583.695,401.529 583.227,400.524 583.569,399.449C583.812,398.687 584.984,398.389 584.93,400.33C585.697,401.272 586.564,402.115 587.574,402.813C608.914,416.523 631.494,428.408 652.269,439.814C657.405,436.308 660.874,436.525 661.5,437.369C662.621,438.883 662.815,441.114 659.937,442.808C680.701,451.475 701.156,460.288 724,468C725.147,468.345 726.316,468.491 727.5,468.5C728.944,467.269 729.431,468.347 729,469C728.391,469.921 727.341,470.179 726,470C701.321,462.311 677.923,453.093 656.33,444.35C650.022,446.784 643.561,448.967 636.961,450.92C638.399,447.534 640.059,444.188 641.978,440.886C639.234,439.324 636.384,437.891 633.5,436.5C638.63,438.198 643.617,440.156 648.412,442.468C648.828,442.187 649.241,441.906 649.651,441.626ZM642.234,441.032C641.721,443.096 641.351,445.12 641.5,447C643.233,445.896 644.921,444.799 646.564,443.706C645.16,442.767 643.713,441.881 642.234,441.032Z" style="fill:white;"/>
    </g>
</svg>
