<?xml version="1.0" encoding="UTF-8" standalone="no"?>
<!DOCTYPE svg PUBLIC "-//W3C//DTD SVG 1.1//EN" "http://www.w3.org/Graphics/SVG/1.1/DTD/svg11.dtd">
<svg width="100%" height="100%" viewBox="0 0 1000 1000" version="1.1" xmlns="http://www.w3.org/2000/svg" xmlns:xlink="http://www.w3.org/1999/xlink" xml:space="preserve" xmlns:serif="http://www.serif.com/" style="fill-rule:evenodd;clip-rule:evenodd;stroke-linejoin:round;stroke-miterlimit:2;">
    <g transform="matrix(1.62098,0,0,1.62098,-272.994,-94.5612)">
        <path d="M724.017,593.645C722.689,596.36 721.24,597.672 720,595L719.154,528.191C716.014,526.177 717.956,521.628 730.56,511.762C720.327,514.625 725.4,504.745 736.215,491.341C743.305,497.459 747.434,500.63 749.609,501.857C753.311,506.913 754.844,510.41 754.402,512.489C754.402,512.489 749.543,516.298 750,518.83C750.971,524.206 747.636,554.665 745,550C743.627,547.571 740.112,540.042 736.598,544C734.811,546.012 734.317,539.095 734,537C729.087,539.219 735.671,566.783 729.073,579.27C729.191,570.956 729.372,554.213 729,550C728.879,548.631 728.27,547.348 728,546C727.667,544.333 727.078,537.974 727,540C726.586,550.806 726.806,578.314 726.537,586.696C726.497,587.953 725.615,590.95 725.388,590.291C725.162,589.632 725.255,585.164 725.178,582.743C725.136,581.412 725.09,580.081 725.037,578.751C725.006,578.004 724.974,577.258 724.935,576.512C724.913,576.083 724.583,561.144 724.554,560.716C724.538,560.477 724.521,560.238 724.5,560C724.487,559.853 724.473,559.706 724.456,559.559L724.403,559.195L724.371,559.075C724.368,559.067 724.365,559.059 724.361,559.051C724.358,559.046 724.356,559.042 724.353,559.038C724.351,559.035 724.349,559.033 724.346,559.031C724.345,559.03 724.343,559.029 724.341,559.028C724.329,559.023 724.319,559.036 724.314,559.045L724.298,559.082L724.233,559.449L724.186,559.939C724.179,560.024 724.173,560.109 724.167,560.194C724.13,560.731 724.409,575.779 724.386,576.317C724.356,576.999 724.332,577.682 724.31,578.365C724.298,578.774 724.285,579.183 724.274,579.592C724.259,580.141 724.245,580.69 724.232,581.24C724.215,581.924 724.2,582.608 724.186,583.293C724.166,584.215 724.149,585.136 724.132,586.059C724.112,587.179 724.094,588.3 724.077,589.42C724.056,590.766 724.038,592.111 724.02,593.456L724.017,593.645ZM742.5,531C742.333,533.833 741.833,537.583 742,539.5C742.097,540.614 743.5,542.5 743.5,542.5C743.5,542.5 744.478,541.245 744.5,540.5C744.583,537.667 744,525.5 744,525.5C744,525.5 743,529 742.5,531ZM701.713,467.39L678.903,500.248L715.869,525.91C715.641,522.057 718.319,517.964 724.423,513.588C721.973,509.548 722.493,504.056 731.72,494.308L734.572,490.201L701.713,467.39ZM674.795,497.397L697.606,464.539L630.294,429.983L618.889,446.413L674.795,497.397ZM626.187,427.132L614.781,443.561L199.258,147.798L206.671,137.119L626.187,427.132Z" style="fill:white;"/>
    </g>
</svg>
