<?xml version="1.0" encoding="UTF-8" standalone="no"?>
<!DOCTYPE svg PUBLIC "-//W3C//DTD SVG 1.1//EN" "http://www.w3.org/Graphics/SVG/1.1/DTD/svg11.dtd">
<svg width="100%" height="100%" viewBox="0 0 1000 1000" version="1.1" xmlns="http://www.w3.org/2000/svg" xmlns:xlink="http://www.w3.org/1999/xlink" xml:space="preserve" xmlns:serif="http://www.serif.com/" style="fill-rule:evenodd;clip-rule:evenodd;stroke-linejoin:round;stroke-miterlimit:2;">
    <g transform="matrix(1.40625,0,0,1.40625,-203.125,-90.625)">
        <path d="M330,740L330,724L340,724L340,707L350,707L350,280L284,280L277,265L250,265L247,248L249,248L198,175.5L198,166L242,166L289.29,100L710.71,100L758,166L802,166L802,175.5L751,248L753,248L750,265L723,265L716,280L650,280L650,707L660,707L660,724L670,724L670,740L330,740ZM432.5,664L432.5,707L455,707L455,664L432.5,664ZM460,664L460,707L482.5,707L482.5,664L460,664ZM487.5,664L487.5,707L510,707L510,664L487.5,664ZM515,664L515,707L537.5,707L537.5,664L515,664ZM542.5,664L542.5,707L562.5,707L562.5,664L542.5,664ZM567.5,664L567.5,707L587.5,707L587.5,664L567.5,664ZM612.5,664L592.5,664L592.5,707L612.5,707L612.5,664ZM380,664L370,664L370,707L380,707L380,664ZM385,664L385,707L402.5,707L402.5,664L385,664ZM407.5,664L407.5,707L427.5,707L427.5,664L407.5,664ZM617.5,664L617.5,707L630,707L630,664L617.5,664ZM630,644L630,565L370,565L370,644L630,644ZM630,545L630,386L370,386L370,545L630,545ZM545.813,360L545.813,366L564.187,366L564.187,360L545.813,360ZM575.813,360L575.813,366L594.187,366L594.187,360L575.813,360ZM605.813,360L605.813,366L624.187,366L624.187,360L605.813,360ZM394.187,360L394.187,366L375.813,366L375.813,360L394.187,360ZM424.187,360L424.187,366L405.813,366L405.813,360L424.187,360ZM454.187,360L454.187,366L435.813,366L435.813,360L454.187,360ZM488.374,360L488.374,366L465.813,366L465.813,360L488.374,360ZM511.626,360L511.626,366L534.187,366L534.187,360L511.626,360ZM488.374,340L488.374,349.75L465.813,349.75L465.813,340L488.374,340ZM394.187,340L394.187,349.75L375.813,349.75L375.813,340L394.187,340ZM424.187,340L424.187,349.75L405.813,349.75L405.813,340L424.187,340ZM454.187,340L454.187,349.75L435.813,349.75L435.813,340L454.187,340ZM511.626,340L511.626,349.75L534.187,349.75L534.187,340L511.626,340ZM545.813,340L545.813,349.75L564.187,349.75L564.187,340L545.813,340ZM575.813,340L575.813,349.75L594.187,349.75L594.187,340L575.813,340ZM605.813,340L605.813,349.75L624.187,349.75L624.187,340L605.813,340ZM575.813,321L575.813,329.75L594.187,329.75L594.187,321L575.813,321ZM605.813,321L605.813,329.75L624.187,329.75L624.187,321L605.813,321ZM511.626,321L511.626,329.75L534.187,329.75L534.187,321L511.626,321ZM545.813,321L545.813,329.75L564.187,329.75L564.187,321L545.813,321ZM424.187,321L424.187,329.75L405.813,329.75L405.813,321L424.187,321ZM488.374,321L488.374,329.75L465.813,329.75L465.813,321L488.374,321ZM394.187,321L394.187,329.75L375.813,329.75L375.813,321L394.187,321ZM454.187,321L454.187,329.75L435.813,329.75L435.813,321L454.187,321ZM605.813,300L605.813,310.75L624.187,310.75L624.187,300L605.813,300ZM575.813,300L575.813,310.75L594.187,310.75L594.187,300L575.813,300ZM545.813,300L545.813,310.75L564.187,310.75L564.187,300L545.813,300ZM511.626,300L511.626,310.75L534.187,310.75L534.187,300L511.626,300ZM488.374,300L488.374,310.75L465.813,310.75L465.813,300L488.374,300ZM454.187,300L454.187,310.75L435.813,310.75L435.813,300L454.187,300ZM424.187,300L424.187,310.75L405.813,310.75L405.813,300L424.187,300ZM394.187,300L394.187,310.75L375.813,310.75L375.813,300L394.187,300ZM652,210L640,210L635,218L647,218L652,210ZM595,210L583,210L578,218L590,218L595,210ZM550,210L538,210L533,218L545,218L550,210ZM735,210L723,210L718,218L730,218L735,210ZM697,210L685,210L680,218L692,218L697,210ZM265,210L277,210L282,218L270,218L265,210ZM303,210L315,210L320,218L308,218L303,210ZM348,210L360,210L365,218L353,218L348,210ZM405,210L417,210L422,218L410,218L405,210ZM450,210L462,210L467,218L455,218L450,210Z" style="fill:white;"/>
    </g>
</svg>
