<?xml version="1.0" encoding="UTF-8" standalone="no"?>
<!DOCTYPE svg PUBLIC "-//W3C//DTD SVG 1.1//EN" "http://www.w3.org/Graphics/SVG/1.1/DTD/svg11.dtd">
<svg width="100%" height="100%" viewBox="0 0 1000 1000" version="1.1" xmlns="http://www.w3.org/2000/svg" xmlns:xlink="http://www.w3.org/1999/xlink" xml:space="preserve" xmlns:serif="http://www.serif.com/" style="fill-rule:evenodd;clip-rule:evenodd;stroke-linejoin:round;stroke-miterlimit:2;">
    <g transform="matrix(1.73391,0,0,1.73391,-578.115,-569.007)">
        <path d="M678.599,360L673,357C667.108,358.366 661.705,358.236 656.5,357.5C655.149,358.167 653.982,358.833 653,359.5C651.309,359.663 649.639,359.97 648,360.5C645.922,362.609 643.048,363.725 639.5,364C636.253,365.526 633.225,367.029 630.5,368.5C629.651,369.955 628.603,371.25 627.5,372.5C625.667,373.632 623.833,374.668 622,375.5L622,377C620.3,378.62 618.374,379.668 616.5,380.5C600.674,384.267 587.865,384.138 577,381.5L577,380C578.888,379.767 579.863,379.609 580.11,378.5C580.384,377.268 579.399,376.479 577,376.5L573,376.5C569.277,376.384 566.068,376.201 563,376C560.756,373.787 558.994,374.365 557.5,376.5C538.809,380.154 527.216,387.165 521.283,396C513.633,407.395 513.654,423.202 523.5,436C524.983,439.924 526.484,443.928 528,448C528.01,449.333 528.168,450.667 528.5,452C527.826,453.133 527.245,454.284 527,455.5C522.446,455.798 521.043,458.848 522.209,460.5C522.979,461.591 523.125,460.43 527,459.5C527.642,460.471 528.265,461.012 529,461.052C529.561,461.083 530.923,460.54 532,459.5L533,460.5L537.5,472C533.533,473.976 534.256,478.642 535.247,481C536.14,483.124 538.281,485.753 543,485.5L544,487.5C541.655,489.234 541.323,492.895 542.477,496C543.115,497.718 544.387,499.54 546.5,501.5C547.031,503.757 547.81,506.077 549,508.5C555.464,525.537 562.716,543.745 570,562C570.7,561.504 571.357,561.219 572,561C573.493,576.002 575.206,591.692 579.961,608C583.151,618.939 587.787,630.408 590.5,642C581.342,645.139 582.818,649.822 584.076,651C584.673,651.56 586.225,651.608 589,651C594.91,664.816 600.522,678.449 606,692C602.942,695.946 603.301,699.96 605,704L600.565,708L598,708C583.241,692.533 567.57,681.215 551,674L547,666C547.527,631.536 526.682,686.539 522.852,699C518.999,711.533 501.644,774.209 524,741C529.869,734.637 536.981,734.775 545,739.659C565.07,751.884 594.787,786.298 617,838C629.948,868.137 652.948,876.864 669,876C685.702,875.101 710.565,859.805 715,830L716.5,832.5C721.521,828.519 726.353,824.528 730.5,820.5C731.415,811.718 730.38,802.831 721,793.5C718.577,793.404 716.437,793.598 714.5,794L716.5,795C713.617,796.227 710.972,797.755 708.5,799.5L691.5,761L692.5,760C692.937,757.356 691.798,755.511 690,754L689,754.5L688.5,752.5L680.852,736.856C681.839,738.106 682.958,739.178 685,739C684.977,730.439 682.444,721.561 674.5,712L669.5,712L632.5,632.5C635.672,628.488 634.423,622.503 630,615.101C622.126,593.401 614.016,571.7 602.864,550C597.966,549.603 594.652,547.631 592,545C587.031,532.873 582.105,520.567 577,509C578.942,507.536 580.256,505.863 581,504C579.872,501.903 578.465,500.391 577,499C573.035,490.231 569.103,481.367 565,473C565.409,472.035 565.538,471.029 565.5,470C564.668,470.346 563.836,470.587 563,470.5C558.472,459.23 553.761,448.021 548.5,437L551,435C550.384,434.642 550.27,433.939 550.5,433L543,435.5C534.029,411.796 550.851,394.409 580.352,395C599.267,395.379 610.857,392.6 620.5,390.5L622,391C624.2,390.36 626.236,389.562 628,388.5L629.5,389.5C632.194,388.471 634.857,387.282 637.5,386L640.5,388.5C642.31,387.789 643.941,386.924 645.5,386L649.5,391.5C655.358,390.291 659.988,387.407 663.5,383L661,378C671.234,371.969 678.415,365.96 678.599,360ZM615,712L607.5,708L602.5,710.5L601.5,712.5C623.066,743.866 641.712,782.024 658.5,824.5C658.644,825.35 659.019,826.081 660,826.5L661.5,829.5C662.386,829.538 663.209,829.135 664,828.5L662,825.5C647.144,791.65 631.353,753.206 615,712ZM607.904,695.134C603.916,700.802 607.669,705.827 613,707.5L608,695L607.904,695.134ZM524.5,404C520.604,405.81 518.687,408.789 518.14,412.575C517.594,416.362 518.417,420.957 520,426C519.929,417.282 521.101,409.659 524.5,404ZM558,381C545.778,384.104 534.977,389.272 528,400C527.646,398.405 527.309,396.75 527,395C536.552,384.676 546.847,379.735 558,381ZM564,381L574,381C573.691,379.378 570.311,378.866 564,379.415L564,381Z" style="fill:white;"/>
    </g>
</svg>
