<?xml version="1.0" encoding="UTF-8" standalone="no"?>
<!DOCTYPE svg PUBLIC "-//W3C//DTD SVG 1.1//EN" "http://www.w3.org/Graphics/SVG/1.1/DTD/svg11.dtd">
<svg width="100%" height="100%" viewBox="0 0 1000 1000" version="1.1" xmlns="http://www.w3.org/2000/svg" xmlns:xlink="http://www.w3.org/1999/xlink" xml:space="preserve" xmlns:serif="http://www.serif.com/" style="fill-rule:evenodd;clip-rule:evenodd;stroke-linejoin:round;stroke-miterlimit:2;">
    <g transform="matrix(3.39186,0,0,3.39186,-1195.93,-1195.93)">
        <path d="M491.474,449.951L492.196,450.481L492.196,441.983L507.804,453.887L507.804,462.385L508.557,462.981L509.967,464.102L511.372,465.226L512.516,466.147L513.571,466.999L514.237,467.54L515.56,468.619L517.17,469.94L518.489,471.029L519.802,472.12L520.378,472.601L521.531,473.567L522.537,474.413L523.525,475.249L525.111,476.597L526.016,477.371L526.928,478.154L527.936,479.023L528.841,479.807L529.843,480.678L531.371,482.016L532.627,483.122L533.735,484.103L534.427,484.718L535.747,485.896L536.762,486.808L538.005,487.93L539.223,489.036L540.787,490.466L541.588,491.202L542.442,491.99L543.387,492.867L544.827,494.209L546.009,495.319L547.016,496.269L548.007,497.208L548.885,498.046L550.044,499.156L551.066,500.141L552.137,501.178L553.314,502.324L554.787,503.77L555.75,504.722L556.627,505.592L557.694,506.657L559.051,508.022L560.135,509.118L561.121,510.123L562.236,511.265L563.14,512.197L564.202,513.299L565.249,514.392L566.565,515.776L567.262,516.514L568.277,517.595L569.224,518.609L570.069,519.521L570.98,520.509L571.96,521.579L572.93,522.646L573.915,523.736L574.727,524.642L575.586,525.606L576.519,526.661L577.442,527.712L578.354,528.759L578.807,529.281L579.704,530.323L580.418,531.158L581.214,532.095L582.083,533.126L582.941,534.152L583.788,535.174L584.208,535.684L584.903,536.532L585.688,537.498L586.564,538.586L587.299,539.507L588.088,540.504L588.478,541.001L589.167,541.884L589.837,542.75L590.79,543.997L591.311,544.684L592.011,545.615L592.727,546.58L593.432,547.538L593.98,548.291L594.51,549.025L595.162,549.938L595.992,551.116L596.638,552.045L597.419,553.186L598.186,554.323L598.654,555.027L599.248,555.931L599.835,556.839L600.174,557.369L600.643,558.11L601.45,559.41L602.135,560.539L602.645,561.395L603.141,562.244L603.563,562.98L603.901,563.58L604.198,564.112L604.652,564.941L605.089,565.755L605.506,566.55L605.784,567.091L606.111,567.738L606.609,568.752L606.89,569.339L607.158,569.913L607.429,570.504L607.84,571.43L608.158,572.175L608.436,572.849L608.605,573.27L608.816,573.808L609.085,574.519L609.421,575.457L609.69,576.255L609.801,576.597L610.01,577.275L610.225,578.019L610.346,578.462L610.512,579.112L610.638,579.645L610.78,580.304L610.882,580.822L610.967,581.306L611.016,581.608L632.671,598.124L632.671,604.249L611.016,587.734L610.961,587.987L610.845,588.452L610.711,588.901L610.589,589.257L610.465,589.577L610.382,589.775L610.205,590.159L609.967,590.609L609.755,590.965L609.527,591.306L609.421,591.452L609.201,591.736L608.998,591.976L608.79,592.205L608.436,592.558L608.223,592.751L608.001,592.939L607.744,593.139L607.506,593.313L607.233,593.497L606.796,593.764L606.419,593.969L606.072,594.14L605.849,594.241L605.411,594.424L605.061,594.556L604.617,594.705L604.166,594.839L603.563,594.993L603.243,595.063L602.894,595.133L602.498,595.201L601.875,595.291L601.346,595.351L600.881,595.392L600.412,595.423L599.986,595.443L599.409,595.458L598.886,595.46L598.325,595.452L597.69,595.43L596.869,595.382L596.317,595.339L595.802,595.29L595.162,595.22L594.323,595.114L593.634,595.013L592.991,594.91L592.247,594.78L591.629,594.663L590.887,594.514L590.136,594.352L589.167,594.129L588.641,594.002L587.86,593.805L587.115,593.608L586.435,593.421L585.688,593.209L584.866,592.966L584.032,592.711L583.166,592.437L582.437,592.199L581.65,591.937L580.776,591.636L579.891,591.323L578.996,590.999L578.545,590.832L577.634,590.49L576.894,590.205L576.054,589.877L575.116,589.503L574.168,589.116L573.21,588.719L572.728,588.515L571.916,588.169L570.98,587.763L569.91,587.291L568.992,586.879L567.984,586.42L567.476,586.186L566.565,585.761L565.659,585.333L564.337,584.699L563.598,584.339L562.584,583.841L561.52,583.311L560.447,582.769L559.594,582.333L558.752,581.899L557.694,581.348L556.306,580.615L555.193,580.02L553.805,579.268L552.396,578.495L551.513,578.004L550.363,577.36L549.191,576.697L548.5,576.303L547.523,575.741L545.778,574.728L544.233,573.818L543.041,573.109L541.841,572.388L540.787,571.75L539.917,571.22L539.138,570.742L537.908,569.982L536.682,569.218L535.467,568.455L534.628,567.925L533.614,567.28L532,566.244L531.048,565.628L530.109,565.017L529.128,564.375L527.567,563.346L526.287,562.494L525.111,561.706L524.366,561.205L523.406,560.555L522.115,559.676L520.378,558.483L518.869,557.438L518.211,556.98L516.892,556.055L515.413,555.012L514.518,554.377L513.185,553.425L512.072,552.626L510.67,551.612L509.546,550.795L508.481,550.016L507.804,549.519L507.804,558.017L492.196,546.113L492.196,537.615L491.443,537.019L490.033,535.898L488.628,534.774L487.484,533.853L486.429,533.001L485.763,532.46L484.44,531.381L482.83,530.06L481.511,528.971L480.198,527.88L479.622,527.399L478.469,526.433L477.463,525.587L476.475,524.751L474.889,523.403L473.984,522.629L473.072,521.846L472.064,520.977L471.159,520.193L470.157,519.322L468.629,517.984L467.373,516.878L466.265,515.897L465.573,515.282L464.253,514.104L463.238,513.192L461.995,512.07L460.777,510.964L459.213,509.534L458.412,508.798L457.558,508.01L456.613,507.133L455.173,505.791L453.991,504.681L452.984,503.731L451.993,502.792L451.115,501.954L449.956,500.844L448.934,499.859L447.863,498.822L446.686,497.676L445.213,496.23L444.25,495.278L443.373,494.408L442.306,493.343L440.949,491.978L439.865,490.882L438.879,489.877L437.764,488.735L436.86,487.803L435.798,486.701L434.751,485.608L433.435,484.224L432.738,483.486L431.723,482.405L430.776,481.391L429.931,480.479L429.02,479.491L428.04,478.421L427.07,477.354L426.085,476.264L425.273,475.358L424.414,474.394L423.481,473.339L422.558,472.288L421.646,471.241L421.193,470.719L420.296,469.677L419.582,468.842L418.786,467.905L417.917,466.874L417.059,465.848L416.212,464.826L415.792,464.316L415.097,463.468L414.312,462.502L413.436,461.414L412.701,460.493L411.912,459.496L411.522,458.999L410.833,458.116L410.163,457.25L409.21,456.003L408.689,455.316L407.989,454.385L407.273,453.42L406.568,452.462L406.02,451.709L405.49,450.975L404.838,450.062L404.008,448.884L403.362,447.955L402.581,446.814L401.814,445.677L401.346,444.973L400.752,444.069L400.165,443.161L399.826,442.631L399.357,441.89L398.55,440.59L397.865,439.461L397.355,438.605L396.859,437.756L396.437,437.02L396.099,436.42L395.802,435.888L395.348,435.059L394.911,434.245L394.494,433.45L394.216,432.909L393.889,432.262L393.391,431.248L393.11,430.661L392.842,430.087L392.571,429.496L392.16,428.57L391.842,427.825L391.564,427.151L391.395,426.73L391.184,426.192L390.915,425.481L390.579,424.543L390.31,423.745L390.199,423.403L389.99,422.725L389.775,421.981L389.654,421.538L389.488,420.888L389.362,420.355L389.22,419.696L389.118,419.178L389.033,418.694L388.984,418.392L367.329,401.876L367.329,395.751L388.984,412.266L389.039,412.013L389.155,411.548L389.289,411.099L389.411,410.743L389.535,410.423L389.618,410.225L389.795,409.841L390.033,409.391L390.245,409.035L390.473,408.694L390.579,408.548L390.799,408.264L391.002,408.024L391.21,407.795L391.564,407.442L391.777,407.249L391.999,407.061L392.256,406.861L392.494,406.687L392.767,406.503L393.204,406.236L393.581,406.031L393.928,405.86L394.151,405.759L394.589,405.576L394.939,405.444L395.383,405.295L395.834,405.161L396.437,405.007L396.757,404.937L397.106,404.867L397.502,404.799L398.125,404.709L398.654,404.649L399.119,404.608L399.588,404.577L400.014,404.557L400.591,404.542L401.114,404.54L401.675,404.548L402.31,404.57L403.131,404.618L403.683,404.661L404.198,404.71L404.838,404.78L405.677,404.886L406.366,404.987L407.009,405.09L407.753,405.22L408.371,405.337L409.113,405.486L409.864,405.648L410.833,405.871L411.359,405.998L412.14,406.195L412.885,406.392L413.565,406.579L414.312,406.791L415.134,407.034L415.968,407.289L416.834,407.563L417.563,407.801L418.35,408.063L419.224,408.364L420.109,408.677L421.004,409.001L421.455,409.168L422.366,409.51L423.106,409.795L423.946,410.123L424.884,410.497L425.832,410.884L426.79,411.281L427.272,411.485L428.084,411.831L429.02,412.237L430.09,412.709L431.008,413.121L432.016,413.58L432.524,413.814L433.435,414.239L434.341,414.667L435.663,415.301L436.402,415.661L437.416,416.159L438.48,416.689L439.553,417.231L440.406,417.667L441.248,418.101L442.306,418.652L443.694,419.385L444.807,419.98L446.195,420.732L447.604,421.505L448.487,421.996L449.637,422.64L450.809,423.303L451.5,423.697L452.477,424.259L454.222,425.272L455.767,426.182L456.959,426.891L458.159,427.612L459.213,428.25L460.083,428.78L460.862,429.258L462.092,430.018L463.318,430.782L464.533,431.545L465.372,432.075L466.386,432.72L468,433.756L468.952,434.372L469.891,434.983L470.872,435.625L472.433,436.654L473.713,437.506L474.889,438.294L475.634,438.795L476.594,439.445L477.885,440.324L479.622,441.517L481.131,442.562L481.789,443.02L483.108,443.945L484.587,444.988L485.482,445.623L486.815,446.575L487.928,447.374L489.33,448.388L490.454,449.205L491.474,449.951ZM492.196,460.142L491.034,459.3L489.918,458.497L488.924,457.787L487.896,457.056L487.166,456.541L486.348,455.966L485.604,455.446L484.565,454.725L483.528,454.009L482.495,453.302L481.451,452.592L479.925,451.565L478.91,450.888L478.191,450.411L477.177,449.744L476.17,449.086L475.17,448.438L474.176,447.799L472.694,446.856L471.608,446.172L470.563,445.521L469.573,444.908L468.6,444.312L467.636,443.727L466.681,443.152L465.26,442.306L464.79,442.029C464.153,441.655 463.519,441.286 462.888,440.922L462.341,440.607L461.383,440.062L460.453,439.537L459.537,439.025L458.181,438.279L457.287,437.793C456.228,437.221 455.182,436.668 454.148,436.133L453.228,435.66L451.923,435L450.649,434.368C445.934,432.055 441.558,430.18 437.587,428.766L436.833,428.501L436.097,428.25L435.732,428.129L435.01,427.895L434.298,427.672L433.595,427.459L433.108,427.317L432.458,427.134L431.502,426.878L430.879,426.721C430.122,426.535 429.386,426.372 428.672,426.231L428.062,426.116L427.199,425.969L426.368,425.847L425.65,425.759C425.26,425.715 424.878,425.68 424.504,425.654L424.212,425.634L423.697,425.609L423.203,425.595L422.724,425.591L422.244,425.599L421.774,425.618L421.315,425.649L420.679,425.713L420.453,425.742L420.03,425.806L419.627,425.881L419.242,425.964L418.869,426.059L418.507,426.164L418.151,426.281L417.899,426.375L417.446,426.563L417.152,426.703L416.96,426.802L416.66,426.97L416.37,427.152L416.093,427.345L415.829,427.548L415.608,427.735L415.379,427.948L415.215,428.115L415.017,428.333L414.821,428.57L414.675,428.764L414.536,428.964L414.404,429.17L414.241,429.451L414.088,429.746L413.948,430.052L413.819,430.373L413.679,430.787L413.605,431.044L421.959,437.416L421.959,443.541L413.603,437.168L413.715,437.71L413.837,438.241L413.958,438.723L414.096,439.232L414.201,439.598L414.326,440.015L414.448,440.4L414.628,440.944L414.821,441.499L415.026,442.061L415.247,442.639L415.595,443.503L415.842,444.09L416.026,444.512L416.295,445.116L416.576,445.725L416.868,446.34L417.171,446.962L417.648,447.907L418.017,448.615L418.387,449.306L418.751,449.973L419.123,450.639L419.504,451.307L419.896,451.981L420.503,453.002L420.711,453.344C420.994,453.811 421.286,454.282 421.585,454.758L421.847,455.173L422.317,455.907L422.788,456.631L423.266,457.355L423.998,458.446L424.498,459.178C425.099,460.052 425.722,460.937 426.368,461.835L426.95,462.641L427.804,463.804L428.672,464.966C431.941,469.309 435.666,473.868 439.781,478.564L440.572,479.464L441.364,480.357L441.764,480.805L442.57,481.703L443.386,482.605L444.21,483.51L444.795,484.146L445.591,485.009L446.797,486.304L447.608,487.167C448.605,488.224 449.619,489.286 450.649,490.353L451.54,491.271L452.843,492.604L454.148,493.925L455.317,495.099C455.965,495.746 456.618,496.394 457.278,497.044L457.795,497.553L458.732,498.469L459.655,499.367L460.578,500.259L461.531,501.175L462.494,502.094L463.462,503.012L464.862,504.329L465.376,504.81L466.362,505.728L467.332,506.626L468.295,507.512L469.26,508.394L470.232,509.277L471.223,510.172L471.951,510.827L473.31,512.041L474.239,512.865L474.866,513.419L475.876,514.307L476.903,515.203L477.932,516.098L478.965,516.989L479.87,517.766L480.856,518.607L481.6,519.24L482.542,520.036L483.528,520.865L484.306,521.515L485.086,522.165L485.867,522.812L486.899,523.663L487.947,524.522L488.998,525.379L490.069,526.246L491.396,527.314L492.196,527.953L492.196,524.674L507.804,536.579L507.804,539.858L508.966,540.7L510.082,541.503L511.076,542.213L512.104,542.944L512.834,543.459L513.652,544.034L514.396,544.554L515.435,545.275L516.472,545.991L517.505,546.698L518.549,547.408L520.075,548.435L521.09,549.112L521.809,549.589L522.823,550.256L523.83,550.914L524.83,551.562L525.824,552.201L527.306,553.144L528.392,553.828L529.437,554.479L530.427,555.092L531.4,555.688L532.364,556.273L533.319,556.848L534.74,557.694L535.21,557.971C535.847,558.345 536.481,558.714 537.112,559.078L537.659,559.393L538.617,559.938L539.547,560.463L540.463,560.975L541.819,561.721L542.713,562.207C543.772,562.779 544.818,563.332 545.852,563.867L546.772,564.34L548.077,565L549.351,565.632C554.066,567.945 558.442,569.82 562.413,571.234L563.167,571.499L563.903,571.75L564.268,571.871L564.99,572.105L565.702,572.328L566.405,572.541L566.892,572.683L567.542,572.866L568.498,573.122L569.121,573.279C569.878,573.465 570.614,573.628 571.328,573.769L571.938,573.884L572.801,574.031L573.632,574.153L574.35,574.241C574.74,574.285 575.122,574.32 575.496,574.346L575.788,574.366L576.303,574.391L576.797,574.405L577.276,574.409L577.756,574.401L578.226,574.382L578.685,574.351L579.321,574.287L579.547,574.258L579.97,574.194L580.373,574.119L580.758,574.036L581.131,573.941L581.493,573.836L581.849,573.719L582.101,573.625L582.554,573.437L582.848,573.297L583.04,573.198L583.34,573.03L583.63,572.848L583.907,572.655L584.171,572.452L584.392,572.265L584.621,572.052L584.785,571.885L584.983,571.667L585.179,571.43L585.325,571.236L585.464,571.036L585.596,570.83L585.759,570.549L585.912,570.254L586.052,569.948L586.181,569.627L586.321,569.213L586.395,568.956L578.041,562.584L578.041,556.459L586.397,562.832L586.285,562.29L586.163,561.759L586.042,561.277L585.904,560.768L585.799,560.402L585.674,559.985L585.552,559.6L585.372,559.056L585.179,558.501L584.974,557.939L584.753,557.361L584.405,556.497L584.158,555.91L583.974,555.488L583.705,554.884L583.424,554.275L583.132,553.66L582.829,553.038L582.352,552.093L581.983,551.385L581.613,550.694L581.249,550.027L580.877,549.361L580.496,548.693L580.104,548.019L579.497,546.998L579.289,546.656C579.006,546.189 578.714,545.718 578.415,545.242L578.153,544.827L577.683,544.093L577.212,543.369L576.734,542.645L576.002,541.554L575.502,540.822C574.901,539.948 574.278,539.063 573.632,538.165L573.05,537.359L572.196,536.196L571.328,535.034C568.059,530.691 564.334,526.132 560.219,521.436L559.428,520.536L558.636,519.643L558.236,519.195L557.43,518.297L556.614,517.395L555.79,516.49L555.205,515.854L554.409,514.991L553.203,513.696L552.392,512.833C551.395,511.776 550.381,510.714 549.351,509.647L548.46,508.729L547.157,507.396L545.852,506.075L544.683,504.901C544.035,504.254 543.382,503.606 542.722,502.956L542.205,502.447L541.268,501.531L540.345,500.633L539.422,499.741L538.469,498.825L537.506,497.906L536.538,496.988L535.138,495.671L534.624,495.19L533.638,494.272L532.668,493.374L531.705,492.488L530.74,491.606L529.768,490.723L528.777,489.828L528.049,489.173L526.69,487.959L525.761,487.135L525.134,486.581L524.124,485.693L523.097,484.797L522.068,483.902L521.035,483.011L520.13,482.234L519.144,481.393L518.4,480.76L517.458,479.964L516.472,479.135L515.694,478.485L514.914,477.835L514.133,477.188L513.101,476.337L512.053,475.478L511.002,474.621L509.931,473.754L508.604,472.686L507.804,472.047L507.804,475.326L492.196,463.421L492.196,460.142ZM500,478.561C530.151,501.557 554.629,529.833 554.629,541.665C554.629,553.497 530.151,544.434 500,521.439C469.849,498.443 445.371,470.167 445.371,458.335C445.371,446.503 469.849,455.566 500,478.561ZM500,483.921C522.613,501.168 540.972,522.375 540.972,531.249C540.972,540.123 522.613,533.326 500,516.079C477.387,498.832 459.028,477.625 459.028,468.751C459.028,459.877 477.387,466.674 500,483.921Z" style="fill:white;"/>
    </g>
</svg>
