<?xml version="1.0" encoding="UTF-8" standalone="no"?>
<!DOCTYPE svg PUBLIC "-//W3C//DTD SVG 1.1//EN" "http://www.w3.org/Graphics/SVG/1.1/DTD/svg11.dtd">
<svg width="100%" height="100%" viewBox="0 0 1000 1000" version="1.1" xmlns="http://www.w3.org/2000/svg" xmlns:xlink="http://www.w3.org/1999/xlink" xml:space="preserve" xmlns:serif="http://www.serif.com/" style="fill-rule:evenodd;clip-rule:evenodd;stroke-linejoin:round;stroke-miterlimit:2;">
    <g transform="matrix(5.94868,0,0,5.94868,-2593.31,-378.248)">
        <path d="M565.054,171.557C570.898,178.159 570.921,187.773 573.5,197C577.371,192.361 580.599,187.392 583,182C581.869,188.758 581.658,195.603 582,202.5C587.063,198.568 591.201,193.771 594.595,188.283C591.856,202.705 583.747,214.322 570,223L569,213L558,221C564.932,200.53 565.262,185.81 565.054,171.557ZM474.946,171.557C469.102,178.159 469.079,187.773 466.5,197C462.629,192.361 459.401,187.392 457,182C458.131,188.758 458.342,195.603 458,202.5C452.937,198.568 448.799,193.771 445.405,188.283C448.144,202.705 456.253,214.322 470,223L471,213L482,221C475.068,200.53 474.738,185.81 474.946,171.557ZM520.391,90.982C528.593,90.624 536.797,91.587 545,94C545.678,107.205 555.386,104.874 566,100C566.767,106.694 570.834,110.701 577,113C574.674,115.581 573.458,118.258 573,121C574.479,123.251 577.285,123.732 581,123C592.62,147.458 597.443,168.371 595.05,185.517C591.04,190.712 587.024,195.719 583,200.5C582.716,193.833 582.907,187.167 583.5,180.5C580.73,185.457 577.485,190.169 573.5,194.5C571.673,179.345 568.78,171.782 565.034,170.281C565.024,169.617 565.012,168.954 565,168.292C554.306,158.83 545.53,146.23 540.178,133.43C535.363,142.018 532.123,151.642 530,162C526.88,158.919 525.035,155.171 524,151C520.322,157.503 520.032,164.213 521,171C506.44,163.944 500.431,152.906 496.229,141.029C490.899,151.123 483.565,160.714 475,168.292C474.988,168.954 474.976,169.617 474.966,170.281C471.22,171.782 468.327,179.345 466.5,194.5C462.515,190.169 459.27,185.457 456.5,180.5C457.093,187.167 457.284,193.833 457,200.5C452.976,195.719 448.96,190.712 444.95,185.517C442.557,168.371 447.38,147.458 459,123C462.715,123.732 465.521,123.251 467,121C466.542,118.258 465.326,115.581 463,113C469.166,110.701 473.233,106.694 474,100C484.614,104.874 494.322,107.205 495,94C503.333,91.549 511.667,90.593 520,91L520.391,90.982ZM560,177.671L553,183C548.346,187.857 544.786,189.58 542,189.089C536.437,188.109 529.483,179.84 532,167C529.872,165.854 526.825,165.212 523,165C522.431,167.591 523.04,170.49 523,174C517.162,171.632 512.613,168.303 509,165L505,166C507.211,179.121 504.723,186.139 501,188.2C497.517,190.128 493.692,189.48 490,187.718C485.523,185.581 482.865,180.526 478,179C475.095,188.776 478.907,193.421 485,195.013C492.618,197.005 504.394,190.069 519,187.446C531.171,185.26 546.253,196.728 554,193.939C559.97,191.79 565.126,184.426 560,177.671ZM553.011,180L559,175.5C556.415,173.114 554.7,168.008 552.5,165.574C544.77,157.025 538.321,157.731 532.5,163C538.535,159.93 543.443,159.809 547,163.22C550.031,166.127 554.514,171.066 553.011,180ZM504,163C498.197,159.687 493.771,159.107 490.5,160.821C486.04,163.157 480.869,169.776 483,179.5L477,177C482.504,167.032 484.923,159.442 491,158.331C495,157.6 499.158,158.386 504,163ZM546.5,93.011L546.5,93C546.498,93.006 546.498,93.01 546.5,93.011C546.688,98.745 548.765,102.278 552.5,102C558.569,91.494 564.555,78.16 571,76C575.855,75.317 579.522,83.55 581.304,87.5C584.703,95.038 584.753,109.119 579,112.5C576.681,116.042 575.432,117.593 574.5,120.5L581.5,122C584.258,115.272 586.022,109.317 586.132,104C586.611,80.842 577.56,70.588 567.5,72.5C564.036,73.158 546.69,93.165 546.5,93.011ZM493.5,93.011L493.5,93C493.502,93.006 493.502,93.01 493.5,93.011C493.312,98.745 491.235,102.278 487.5,102C481.431,91.494 475.445,78.16 469,76C464.145,75.317 460.478,83.55 458.696,87.5C455.297,95.038 455.247,109.119 461,112.5C463.319,116.042 464.568,117.593 465.5,120.5L458.5,122C455.742,115.272 453.978,109.317 453.868,104C453.389,80.842 462.44,70.588 472.5,72.5C475.964,73.158 493.31,93.165 493.5,93.011Z" style="fill:white;"/>
    </g>
</svg>
