<?xml version="1.0" encoding="UTF-8" standalone="no"?>
<!DOCTYPE svg PUBLIC "-//W3C//DTD SVG 1.1//EN" "http://www.w3.org/Graphics/SVG/1.1/DTD/svg11.dtd">
<svg width="100%" height="100%" viewBox="0 0 1000 1000" version="1.1" xmlns="http://www.w3.org/2000/svg" xmlns:xlink="http://www.w3.org/1999/xlink" xml:space="preserve" xmlns:serif="http://www.serif.com/" style="fill-rule:evenodd;clip-rule:evenodd;stroke-linejoin:round;stroke-miterlimit:2;">
    <g transform="matrix(2.51829,0,0,2.51829,-876.775,-674.296)">
        <path d="M616.798,546.951C648.934,534.907 680.982,521.215 712.992,506.774C682.299,491.156 651.656,475.641 620,460C635.189,446.539 646.651,431.518 657.744,416.342C641.041,412.899 624.241,409.874 607.007,408.692C616.303,392.111 624.112,375.124 631.415,358C607.75,362.234 585.614,367.339 564.598,373.081C572.678,344.592 579.371,316.103 585.447,287.614C541.982,314.932 500.158,344.576 461,378C455.979,366.813 450.631,356.655 445.189,346.793C434.428,366.132 424.939,385.518 418,405C414.405,399.186 410.049,394.211 405,390C397.449,407.35 393.703,426.167 390,445C366.787,514.707 384.188,569.459 460,602.704C480.559,617.746 501.315,632.619 525,645C535.455,631.667 543.552,618.333 550,605C568.579,610.925 587.109,616.998 605,625C598.752,612.819 592.025,601.301 585,590C609.594,590.807 634.6,590.796 660,590C645.852,575.11 631.512,560.631 616.798,546.951ZM582.036,431.73C571.076,458.08 568.967,474.479 555,482.018C538.542,490.902 523.292,485.146 487,474C513.333,450.328 544.428,435.192 582.036,431.73ZM463,474C457.184,455.075 446.043,437.599 428,422C422.66,427.828 417.614,462.675 423.484,471C425.318,473.601 452.949,474.262 463,474ZM471,440C471.328,444.17 470.678,448.089 470,452C462.262,442.236 454.615,433.025 447,424C455,429.115 463,434.121 471,440ZM528,428C514.986,435.708 502.374,443.754 490,452C490.836,447.333 492.011,442.667 494,438C504.675,433.471 515.951,430.035 528,428Z" style="fill:white;"/>
    </g>
</svg>
