<?xml version="1.0" encoding="UTF-8" standalone="no"?>
<!DOCTYPE svg PUBLIC "-//W3C//DTD SVG 1.1//EN" "http://www.w3.org/Graphics/SVG/1.1/DTD/svg11.dtd">
<svg width="100%" height="100%" viewBox="0 0 1000 1000" version="1.1" xmlns="http://www.w3.org/2000/svg" xmlns:xlink="http://www.w3.org/1999/xlink" xml:space="preserve" xmlns:serif="http://www.serif.com/" style="fill-rule:evenodd;clip-rule:evenodd;stroke-linejoin:round;stroke-miterlimit:2;">
    <g transform="matrix(3.16561,0,0,3.16561,-1041.15,-1019.01)">
        <path d="M443.524,586.111C431.791,588.991 420.155,589.11 408.982,585.778C374.052,575.363 384.513,504.568 417.342,441.258C450.17,377.949 505.366,322.125 559.905,341.652C605.409,357.944 587.009,435.998 544.809,500.001L544.81,500L544.758,500.078C543.792,501.543 542.813,503 541.818,504.456C526.052,527.561 506.688,550.28 486.841,572.946C486.863,575.917 487.972,577.604 487,580C485.225,584.377 479.196,590.601 474,593C471.43,594.187 469.432,593.311 466,594L442,622L421,610L443.524,586.111ZM548.54,360C510.55,339.991 467.417,385.94 439.28,439.907C411.144,493.873 398.004,555.858 420,567.92C480.21,600.939 598.357,386.238 548.54,360Z" style="fill:white;"/>
    </g>
</svg>
