<?xml version="1.0" encoding="UTF-8" standalone="no"?>
<!DOCTYPE svg PUBLIC "-//W3C//DTD SVG 1.1//EN" "http://www.w3.org/Graphics/SVG/1.1/DTD/svg11.dtd">
<svg width="100%" height="100%" viewBox="0 0 1000 1000" version="1.1" xmlns="http://www.w3.org/2000/svg" xmlns:xlink="http://www.w3.org/1999/xlink" xml:space="preserve" xmlns:serif="http://www.serif.com/" style="fill-rule:evenodd;clip-rule:evenodd;stroke-linejoin:round;stroke-miterlimit:2;">
    <g transform="matrix(2.63965,0,0,2.63965,-1430,-667.4)">
        <path d="M660.9,603.728C667.72,572.511 670.992,541.22 673.2,509.907L669.052,494.65L674.664,483.949C675.125,473.401 674.642,463.733 674.355,453.884L670.039,441.621L675.425,434.914C675.377,404.867 674.642,375.837 673.333,347.658C679.983,323.954 682.446,298.976 677.611,271.778C693.079,282.018 715.133,286.914 738.781,288.247L739.335,288.278C762.779,289.543 785.023,287.128 801.414,278.758C793.553,305.24 793.193,330.336 797.137,354.637C792.669,382.491 788.676,411.254 785.251,441.105L789.849,448.376L784.181,460.075C782.789,469.831 781.223,479.382 780.496,489.915L784.868,501.179L779.032,515.874C777.707,547.236 777.441,578.696 780.709,610.483L720.487,612.732L660.9,603.728ZM735.798,341.163L743.601,362.637L733.321,385.094L725.63,361.623L735.798,341.163Z" style="fill:white;"/>
    </g>
</svg>
