<?xml version="1.0" encoding="UTF-8" standalone="no"?>
<!DOCTYPE svg PUBLIC "-//W3C//DTD SVG 1.1//EN" "http://www.w3.org/Graphics/SVG/1.1/DTD/svg11.dtd">
<svg width="100%" height="100%" viewBox="0 0 1000 1000" version="1.1" xmlns="http://www.w3.org/2000/svg" xmlns:xlink="http://www.w3.org/1999/xlink" xml:space="preserve" xmlns:serif="http://www.serif.com/" style="fill-rule:evenodd;clip-rule:evenodd;stroke-linejoin:round;stroke-miterlimit:2;">
    <g transform="matrix(2.50634,0,0,2.50634,-631.336,-726.944)">
        <path d="M589.037,649.081C589.094,649.086 589.151,649.088 589.209,649.088L628.852,649.088C630.003,649.088 630.935,648.155 630.935,647.005L630.935,528.088C630.935,526.938 630.003,526.005 628.852,526.005L590.947,526.005L590.947,332.069C590.947,330.919 590.015,329.986 588.864,329.986L273.929,329.986C272.778,329.986 271.845,330.919 271.845,332.069L271.845,647.005C271.845,648.155 272.778,649.088 273.929,649.088L588.864,649.088C588.922,649.088 588.98,649.086 589.037,649.081ZM432.751,334.153L432.751,335.311L430.042,335.311L430.042,334.153L276.012,334.153C276.012,334.153 276.012,644.921 276.012,644.921C276.012,644.921 586.781,644.921 586.781,644.921L586.781,334.153L432.751,334.153ZM626.769,609.446L626.769,644.921C626.769,644.921 591.293,644.921 591.293,644.921C591.293,644.921 591.293,609.446 591.293,609.446L626.769,609.446ZM432.751,638.646L432.751,627.812L430.042,627.812L430.042,638.646L432.751,638.646ZM432.751,616.979L432.751,606.145L430.042,606.145L430.042,616.979L432.751,616.979ZM626.769,569.814L626.769,605.272C626.769,605.272 591.293,605.272 591.293,605.272L591.293,569.814L626.769,569.814ZM432.751,595.312L432.751,584.478L430.042,584.478L430.042,595.312L432.751,595.312ZM432.751,573.645L432.751,562.812L430.042,562.812L430.042,573.645L432.751,573.645ZM626.769,565.63L591.293,565.63L591.293,530.172L626.769,530.172L626.769,565.63ZM432.751,551.978L432.751,541.145L430.042,541.145L430.042,551.978L432.751,551.978ZM432.751,530.311L432.751,519.478L430.042,519.478L430.042,530.311L432.751,530.311ZM432.751,508.645L432.751,497.811L430.042,497.811L430.042,508.645L432.751,508.645ZM504.39,487.588L515.223,487.588L515.223,484.88L504.39,484.88L504.39,487.588ZM417.723,487.588L428.556,487.588L428.556,484.88L417.723,484.88L417.723,487.588ZM287.723,487.588L298.556,487.588L298.556,484.88L287.723,484.88L287.723,487.588ZM526.056,487.588L536.889,487.588L536.889,484.88L526.056,484.88L526.056,487.588ZM569.389,487.588L580.223,487.588L580.223,484.88L569.389,484.88L569.389,487.588ZM439.39,487.588L450.223,487.588L450.223,484.88L439.39,484.88L439.39,487.588ZM461.056,487.588L471.889,487.588L471.889,484.88L461.056,484.88L461.056,487.588ZM482.723,487.588L493.556,487.588L493.556,484.88L482.723,484.88L482.723,487.588ZM547.723,487.588L558.556,487.588L558.556,484.88L547.723,484.88L547.723,487.588ZM309.389,487.588L320.222,487.588L320.222,484.88L309.389,484.88L309.389,487.588ZM331.056,487.588L341.889,487.588L341.889,484.88L331.056,484.88L331.056,487.588ZM374.389,487.588L385.223,487.588L385.223,484.88L374.389,484.88L374.389,487.588ZM396.056,487.588L406.89,487.588L406.89,484.88L396.056,484.88L396.056,487.588ZM352.722,487.588L363.556,487.588L363.556,484.88L352.722,484.88L352.722,487.588ZM432.751,486.978L432.751,476.144L430.042,476.144L430.042,486.978L432.751,486.978ZM432.751,465.311L432.751,454.478L430.042,454.478L430.042,465.311L432.751,465.311ZM432.751,443.644L432.751,432.811L430.042,432.811L430.042,443.644L432.751,443.644ZM432.751,421.978L432.751,411.144L430.042,411.144L430.042,421.978L432.751,421.978ZM432.751,400.311L432.751,389.478L430.042,389.478L430.042,400.311L432.751,400.311ZM432.751,378.645L432.751,367.811L430.042,367.811L430.042,378.645L432.751,378.645ZM432.751,356.978L432.751,346.145L430.042,346.145L430.042,356.978L432.751,356.978Z" style="fill:white;"/>
    </g>
</svg>
