<?xml version="1.0" encoding="UTF-8" standalone="no"?>
<!DOCTYPE svg PUBLIC "-//W3C//DTD SVG 1.1//EN" "http://www.w3.org/Graphics/SVG/1.1/DTD/svg11.dtd">
<svg width="100%" height="100%" viewBox="0 0 1000 1000" version="1.1" xmlns="http://www.w3.org/2000/svg" xmlns:xlink="http://www.w3.org/1999/xlink" xml:space="preserve" xmlns:serif="http://www.serif.com/" style="fill-rule:evenodd;clip-rule:evenodd;stroke-linejoin:round;stroke-miterlimit:2;">
    <g transform="matrix(4.59184,0,0,4.59184,40.6918,36.2245)">
        <path d="M99.95,176.719C99.419,184.145 98.315,191.573 96,199L90,173C88.339,178.604 86.292,183.9 84,189C85.003,171.333 87.336,153.667 91,136C64.681,135.361 40.608,125.875 39.264,103C38.845,95.877 40.335,89.276 49.814,78C51.792,75.646 54.579,74.666 57.183,71.58C57.196,71.591 57.209,71.6 57.222,71.609C63.116,75.545 66.735,79.648 69.885,83.092C72.029,85.437 73.963,87.481 76.223,88.982C85.709,95.283 93.255,96.23 100,95.008C106.745,96.23 114.291,95.283 123.777,88.982C126.037,87.481 127.971,85.437 130.115,83.092C133.265,79.648 136.884,75.545 142.778,71.609C142.791,71.6 142.804,71.591 142.817,71.58C145.421,74.666 148.208,75.646 150.186,78C159.665,89.276 161.155,95.877 160.736,103C159.392,125.875 135.319,135.361 109,136C112.664,153.667 114.997,171.333 116,189C113.708,183.9 111.661,178.604 110,173L104,199C101.61,191.333 100.512,183.667 100,176L99.95,176.719ZM142,73C143.129,75.103 145.869,76.811 147.696,78.5C157.325,87.404 161.196,98.861 158.5,108C156.215,109.053 153.503,108.566 150.5,106.402C147.714,104.394 144.678,100.941 141.5,95.935C137.694,89.939 135.932,82.918 137.977,78C138.866,75.863 139.486,74.114 142,73ZM58,73C56.871,75.103 54.131,76.811 52.304,78.5C42.675,87.404 38.804,98.861 41.5,108C43.785,109.053 46.497,108.566 49.5,106.402C52.286,104.394 55.322,100.941 58.5,95.935C62.306,89.939 64.068,82.918 62.023,78C61.134,75.863 60.514,74.114 58,73ZM112.957,93.218C108.229,94.689 104.022,94.732 100.091,94.008L100.088,94.008L105.573,87.68L112.957,93.218ZM87.043,93.218C91.771,94.689 95.978,94.732 99.909,94.008L99.912,94.008L94.427,87.68L87.043,93.218ZM119.961,90.148C117.906,91.299 115.948,92.186 114.071,92.848L116.215,85.987L119.961,90.148ZM80.039,90.148C82.094,91.299 84.052,92.186 85.929,92.848L83.785,85.987L80.039,90.148ZM100,92.582L94.965,86.774C96.57,86.886 98.184,86.956 99.797,86.995L100.241,86.994C101.841,86.954 103.442,86.885 105.035,86.774L100,92.582L100,92.589L100,92.582ZM113.234,92.175L105.941,86.706C109.14,86.45 112.305,86.017 115.379,85.312L113.234,92.175ZM86.766,92.175L94.059,86.706C90.86,86.45 87.695,86.017 84.621,85.312L86.766,92.175ZM123.476,82.652C125.127,81.915 126.729,81.06 128.271,80.067C132.018,77.654 135.678,74.651 139.267,72.9L139.261,72.904C134.963,76.217 132.007,79.542 129.377,82.417C127.293,84.696 125.42,86.69 123.223,88.149C122.546,88.599 121.879,89.021 121.222,89.416L123.476,82.652ZM76.524,82.652C74.873,81.915 73.271,81.06 71.729,80.067C67.982,77.654 64.322,74.651 60.733,72.9L60.739,72.904C65.037,76.217 67.993,79.542 70.623,82.417C72.707,84.696 74.58,86.69 76.777,88.149C77.454,88.599 78.121,89.021 78.778,89.416L76.524,82.652ZM120.297,89.027L116.671,84.998C118.574,84.51 120.438,83.909 122.248,83.175L120.297,89.027ZM79.703,89.027L83.329,84.998C81.426,84.51 79.562,83.909 77.752,83.175L79.703,89.027ZM100,86C90.212,85.772 80.395,84.458 72.271,79.226C67.33,76.044 62.513,71.896 57.834,70.758C58.587,69.741 59.318,68.518 60,67C62.649,63.351 63.529,58.808 64.473,54.474C60.49,56.719 55.893,58 51,58C35.822,58 23.5,45.678 23.5,30.5C23.5,15.322 35.822,3 51,3C66.178,3 78.5,15.322 78.5,30.5C78.5,31.553 78.441,32.593 78.325,33.615C83.934,29.897 91.02,27.866 100,28C108.98,27.866 116.066,29.897 121.675,33.615C121.559,32.593 121.5,31.553 121.5,30.5C121.5,15.322 133.822,3 149,3C164.178,3 176.5,15.322 176.5,30.5C176.5,45.678 164.178,58 149,58C144.107,58 139.51,56.719 135.527,54.474C136.471,58.808 137.351,63.351 140,67C140.682,68.518 141.413,69.741 142.166,70.758C137.487,71.896 132.67,76.044 127.729,79.226C119.605,84.458 109.788,85.772 100,86ZM99.825,71.999C96.197,72.012 95.425,73.456 100,73.411L100.214,73.412C104.62,73.41 103.718,71.966 100,72L99.825,71.999ZM109,65C110.104,65 111,65.896 111,67C111,68.104 110.104,69 109,69C107.896,69 107,68.104 107,67C107,65.896 107.896,65 109,65ZM91,65C89.896,65 89,65.896 89,67C89,68.104 89.896,69 91,69C92.104,69 93,68.104 93,67C93,65.896 92.104,65 91,65Z" style="fill:white;"/>
    </g>
</svg>
