<?xml version="1.0" encoding="UTF-8" standalone="no"?>
<!DOCTYPE svg PUBLIC "-//W3C//DTD SVG 1.1//EN" "http://www.w3.org/Graphics/SVG/1.1/DTD/svg11.dtd">
<svg width="100%" height="100%" viewBox="0 0 1000 1000" version="1.1" xmlns="http://www.w3.org/2000/svg" xmlns:xlink="http://www.w3.org/1999/xlink" xml:space="preserve" xmlns:serif="http://www.serif.com/" style="fill-rule:evenodd;clip-rule:evenodd;stroke-linejoin:round;stroke-miterlimit:2;">
    <g transform="matrix(13.3443,0,0,13.3443,-6131.38,-4595.48)">
        <path d="M498,377C505.727,377 512,383.273 512,391C512,398.727 505.727,405 498,405C490.273,405 484,398.727 484,391C484,383.273 490.273,377 498,377ZM498,378.5C504.899,378.5 510.5,384.101 510.5,391C510.5,397.899 504.899,403.5 498,403.5C491.101,403.5 485.5,397.899 485.5,391C485.5,384.101 491.101,378.5 498,378.5ZM498,379C504.623,379 510,384.377 510,391C510,397.623 504.623,403 498,403C491.377,403 486,397.623 486,391C486,384.377 491.377,379 498,379ZM525.778,392.222C528.476,392.222 530.667,394.413 530.667,397.111C530.667,399.809 528.476,402 525.778,402C523.08,402 520.889,399.809 520.889,397.111C520.889,394.413 523.08,392.222 525.778,392.222ZM525.75,392.9C528.096,392.9 530,394.804 530,397.15C530,399.496 528.096,401.4 525.75,401.4C523.404,401.4 521.5,399.496 521.5,397.15C521.5,394.804 523.404,392.9 525.75,392.9ZM525.75,393.313C527.868,393.313 529.587,395.032 529.587,397.15C529.587,399.268 527.868,400.987 525.75,400.987C523.632,400.987 521.913,399.268 521.913,397.15C521.913,395.032 523.632,393.313 525.75,393.313ZM498,397.875C498.759,397.875 499.375,398.491 499.375,399.25C499.375,400.009 498.759,400.625 498,400.625C497.241,400.625 496.625,400.009 496.625,399.25C496.625,398.491 497.241,397.875 498,397.875ZM503.5,395.625C504.259,395.625 504.875,396.241 504.875,397C504.875,397.759 504.259,398.375 503.5,398.375C502.741,398.375 502.125,397.759 502.125,397C502.125,396.241 502.741,395.625 503.5,395.625ZM491.875,395.25C492.634,395.25 493.25,395.866 493.25,396.625C493.25,397.384 492.634,398 491.875,398C491.116,398 490.5,397.384 490.5,396.625C490.5,395.866 491.116,395.25 491.875,395.25ZM468.111,388.222C470.809,388.222 473,390.413 473,393.111C473,395.809 470.809,398 468.111,398C465.413,398 463.222,395.809 463.222,393.111C463.222,390.413 465.413,388.222 468.111,388.222ZM468.088,388.9C470.434,388.9 472.338,390.804 472.338,393.15C472.338,395.496 470.434,397.4 468.088,397.4C465.743,397.4 463.838,395.496 463.838,393.15C463.838,390.804 465.743,388.9 468.088,388.9ZM468.088,389.313C470.206,389.313 471.925,391.032 471.925,393.15C471.925,395.268 470.206,396.987 468.088,396.987C465.971,396.987 464.252,395.268 464.252,393.15C464.252,391.032 465.971,389.313 468.088,389.313ZM498.017,385.75C500.907,385.759 503.25,388.108 503.25,391C503.25,393.892 500.907,396.241 498.017,396.25L498,396.25C495.102,396.25 492.75,393.898 492.75,391C492.75,388.102 495.102,385.75 498,385.75L498.017,385.75ZM506.25,389.625C507.009,389.625 507.625,390.241 507.625,391C507.625,391.759 507.009,392.375 506.25,392.375C505.491,392.375 504.875,391.759 504.875,391C504.875,390.241 505.491,389.625 506.25,389.625ZM489.75,389.625C490.509,389.625 491.125,390.241 491.125,391C491.125,391.759 490.509,392.375 489.75,392.375C488.991,392.375 488.375,391.759 488.375,391C488.375,390.241 488.991,389.625 489.75,389.625ZM521.143,381C523.826,381.017 526,383.201 526,385.889C526,388.577 523.826,390.761 521.143,390.778L521.111,390.778C518.413,390.778 516.222,388.587 516.222,385.889C516.222,383.191 518.413,381 521.111,381L521.143,381ZM521.05,381.6C523.396,381.6 525.3,383.504 525.3,385.85C525.3,388.196 523.396,390.1 521.05,390.1C518.704,390.1 516.8,388.196 516.8,385.85C516.8,383.504 518.704,381.6 521.05,381.6ZM521.05,382.013C523.168,382.013 524.887,383.732 524.887,385.85C524.887,387.968 523.168,389.687 521.05,389.687C518.932,389.687 517.213,387.968 517.213,385.85C517.213,383.732 518.932,382.013 521.05,382.013ZM492.125,384.25C492.884,384.25 493.5,384.866 493.5,385.625C493.5,386.384 492.884,387 492.125,387C491.366,387 490.75,386.384 490.75,385.625C490.75,384.866 491.366,384.25 492.125,384.25ZM503.5,383.625C504.259,383.625 504.875,384.241 504.875,385C504.875,385.759 504.259,386.375 503.5,386.375C502.741,386.375 502.125,385.759 502.125,385C502.125,384.241 502.741,383.625 503.5,383.625ZM498,381.625C498.759,381.625 499.375,382.241 499.375,383C499.375,383.759 498.759,384.375 498,384.375C497.241,384.375 496.625,383.759 496.625,383C496.625,382.241 497.241,381.625 498,381.625ZM498.111,358.693C500.809,358.693 503,360.884 503,363.582C503,366.281 500.809,368.471 498.111,368.471C495.413,368.471 493.222,366.281 493.222,363.582C493.222,360.884 495.413,358.693 498.111,358.693ZM498.15,359.375C500.496,359.375 502.4,361.279 502.4,363.625C502.4,365.97 500.496,367.875 498.15,367.875C495.804,367.875 493.9,365.97 493.9,363.625C493.9,361.279 495.804,359.375 498.15,359.375ZM498.15,359.788C500.268,359.788 501.987,361.507 501.987,363.625C501.987,365.742 500.268,367.461 498.15,367.461C496.032,367.461 494.313,365.742 494.313,363.625C494.313,361.507 496.032,359.788 498.15,359.788Z" style="fill:white;"/>
    </g>
</svg>
