<?xml version="1.0" encoding="UTF-8" standalone="no"?>
<!DOCTYPE svg PUBLIC "-//W3C//DTD SVG 1.1//EN" "http://www.w3.org/Graphics/SVG/1.1/DTD/svg11.dtd">
<svg width="100%" height="100%" viewBox="0 0 1000 1000" version="1.1" xmlns="http://www.w3.org/2000/svg" xmlns:xlink="http://www.w3.org/1999/xlink" xml:space="preserve" xmlns:serif="http://www.serif.com/" style="fill-rule:evenodd;clip-rule:evenodd;stroke-linejoin:round;stroke-miterlimit:2;">
    <g transform="matrix(5,0,0,5,-2000,-2945.22)">
        <path d="M543.082,626.877C556.895,613.252 569.364,609.168 581,611C572.628,613.805 566.435,620.307 561.766,629.39C563.446,629.604 565.121,629.808 566.789,630L590,709L504.61,709.981C503.318,713.091 502.027,716.28 500.736,719.552C506.824,718.523 510.501,719.105 512,721L510,734C510.781,735.161 526.301,734.776 528,739C530.115,744.26 529.267,761 524,765C519.371,768.516 503.104,767.396 499.232,767.074C494.502,767.44 479.49,768.305 475.074,764.951C469.807,760.951 468.958,744.211 471.074,738.951C472.772,734.727 488.292,735.112 489.074,733.951L487.074,720.951C488.431,719.235 491.575,718.596 496.679,719.254L500.711,710.259C496.471,710.666 492.542,710.616 489,710L410,709L431,626C447.057,627.069 467.606,626.227 486,625.378C492.917,625.059 497.156,627.659 498,630C504.704,626.936 511.709,624.254 519,624.569C527.012,624.915 535.074,625.828 543.082,626.877ZM560.014,633.076C558.919,635.563 557.918,638.211 557,641L560,641C554.559,650.728 549.617,658.878 545,666C547.036,665.961 549.032,665.593 551,665C543.125,681.655 529.243,694.309 520.5,694.528C518.426,694.58 516.891,693.058 516,690C527.042,664.641 539.31,646.994 552,632C537.425,645.124 522.789,668.1 508.09,701.805C510.356,701.549 512.855,701.089 515.5,700.5C524.611,699.013 534.349,699.72 544.429,701.624C552.862,703.322 563.527,703.657 575,703.5C579.312,703.08 580.971,701.401 579,698L562,633.5C561.338,633.358 560.677,633.217 560.014,633.076ZM496.5,632.5L496.5,701C482.011,695.825 467.466,694.172 453.5,699.195C436.402,705.343 423.77,702.786 418,701.5L436,629.5C443.017,630.618 453.789,630.95 468.5,629C485.417,626.758 494.009,629.337 496.5,632.5ZM540.504,629.514C525.785,627.476 511.635,627.502 499,633L499,701C500.377,701.716 502.216,702.025 504.4,702.031L508,694C502.967,683.62 502.134,672.643 513,660C512.449,663.628 513.344,666.51 515,669C514.609,656.649 519.261,645.562 530,636L531,639C531.895,637.599 532.925,636.285 534,635L534,637C536.202,634.267 538.37,631.776 540.504,629.514Z" style="fill:white;"/>
    </g>
</svg>
