<?xml version="1.0" encoding="UTF-8" standalone="no"?>
<!DOCTYPE svg PUBLIC "-//W3C//DTD SVG 1.1//EN" "http://www.w3.org/Graphics/SVG/1.1/DTD/svg11.dtd">
<svg width="100%" height="100%" viewBox="0 0 1000 1000" version="1.1" xmlns="http://www.w3.org/2000/svg" xmlns:xlink="http://www.w3.org/1999/xlink" xml:space="preserve" xmlns:serif="http://www.serif.com/" style="fill-rule:evenodd;clip-rule:evenodd;stroke-linejoin:round;stroke-miterlimit:2;">
    <g transform="matrix(1.34328,0,0,1.34328,-151.493,-124.627)">
        <path d="M459.601,800L291.219,800C286.7,775.912 299.391,766.178 316.345,760L403.813,481C427.975,496.604 455.213,504.61 485,508.149L485.698,508.066C515.212,504.485 542.214,496.482 566.187,481L653.655,760C670.609,766.178 683.3,775.912 678.781,800L510.399,800L485,760L459.601,800ZM551.955,660C561.914,660 570,668.086 570,678.045C570,688.004 561.914,696.09 551.955,696.09C541.996,696.09 533.91,688.004 533.91,678.045C533.91,668.086 541.996,660 551.955,660ZM418.045,660C408.086,660 400,668.086 400,678.045C400,688.004 408.086,696.09 418.045,696.09C428.004,696.09 436.09,688.004 436.09,678.045C436.09,668.086 428.004,660 418.045,660ZM485,564.927C497.631,542.809 522.894,542.809 535.526,553.868C548.158,564.927 548.158,587.044 535.526,609.161C526.684,625.749 503.947,642.337 485,653.396C466.052,642.337 443.316,625.749 434.473,609.161C421.842,587.044 421.842,564.927 434.473,553.868C447.105,542.809 472.368,542.809 485,564.927ZM632,372.207C626.751,411.917 604.217,451.89 573.569,474.253L586.005,512.149C638.26,487.443 665.882,441.368 670,374.904C656.839,372.472 645.662,370.181 632,372.207ZM338,372.207C343.249,411.917 365.783,451.89 396.431,474.253L383.995,512.149C331.74,487.443 304.118,441.368 300,374.904C313.161,372.472 324.338,370.181 338,372.207ZM485,221.853C515.651,221.719 546.303,226.276 576.961,235.925C578.047,236.248 579.133,236.576 580.218,236.91L581.387,237.975L582.443,238.958L583.49,239.952L584.527,240.955L585.465,241.88C603.686,260.005 617.343,283.005 624.463,308.838L624.739,309.853L624.997,310.825L625.248,311.8L625.493,312.777L625.731,313.757L625.964,314.739L626.301,316.217L626.624,317.7L626.933,319.19L627.227,320.684L627.507,322.184L627.773,323.689L628.024,325.199L628.26,326.714L628.482,328.235L628.689,329.76L628.881,331.29L629.058,332.825L629.22,334.365L629.367,335.909L629.499,337.457L629.616,339.01L629.717,340.568L629.803,342.13L629.874,343.696L629.929,345.266L629.968,346.84L629.992,348.418L629.999,349.472C630,349.649 630,349.824 630,350C630,351.101 629.989,352.199 629.965,353.304C629.882,357.286 629.648,361.23 629.27,365.125C629.117,366.7 628.941,368.267 628.741,369.828C628.666,370.416 628.588,371.002 628.505,371.597L628.328,372.831L628.211,373.603C628.14,374.069 628.067,374.533 627.991,375C627.788,376.248 627.57,377.49 627.339,378.722C627.016,380.441 626.665,382.151 626.284,383.858L626.079,384.764C625.688,386.468 625.268,388.161 624.818,389.849C624.474,391.144 624.113,392.432 623.739,393.703L623.476,394.585C623.269,395.275 623.057,395.962 622.837,396.655C621.816,399.882 620.692,403.06 619.467,406.19L619.28,406.665C617.685,410.704 615.924,414.655 614.003,418.513C613.543,419.437 613.074,420.355 612.599,421.263C611.281,423.781 609.896,426.255 608.446,428.682L608.078,429.296C607.923,429.551 607.768,429.806 607.613,430.062L607.143,430.824L606.902,431.211C605.799,432.978 604.661,434.719 603.489,436.435C602.15,438.395 600.766,440.321 599.336,442.215C598.065,443.899 596.759,445.555 595.419,447.183C594.777,447.961 594.129,448.733 593.476,449.495C592.74,450.353 591.995,451.202 591.239,452.042C588.892,454.656 586.457,457.182 583.935,459.619L583.116,460.406L582.473,461.013C582.051,461.411 581.626,461.805 581.196,462.201C578.325,464.837 575.352,467.357 572.283,469.756C566.62,474.181 560.634,478.187 554.372,481.726C551.713,483.229 549.003,484.648 546.25,485.98C539.371,489.304 532.201,492.086 524.789,494.272C523.654,494.607 522.513,494.928 521.366,495.235C516.173,496.624 510.869,497.723 505.468,498.514C503.903,498.743 502.33,498.946 500.749,499.124C500.115,499.195 499.479,499.261 498.842,499.324L497.528,499.447L497.069,499.487C495.926,499.584 494.78,499.668 493.629,499.738C492.853,499.785 492.075,499.826 491.295,499.861C489.43,499.944 487.546,499.99 485.654,499.998L485,500C484.784,500 484.568,500 484.346,499.998C482.457,499.99 480.576,499.944 478.705,499.861C477.926,499.826 477.148,499.785 476.371,499.738C475.223,499.668 474.079,499.585 472.931,499.487L471.556,499.362L471.158,499.324C470.525,499.262 469.894,499.196 469.271,499.126L468.36,499.021C466.981,498.858 465.608,498.674 464.242,498.471C463.203,498.316 462.167,498.151 461.135,497.974L460.24,497.818C459.851,497.748 459.462,497.677 459.064,497.602C456.784,497.176 454.522,496.694 452.27,496.156C449.892,495.588 447.536,494.959 445.211,494.272L444.355,494.017C443.794,493.847 443.235,493.675 442.676,493.498C437.037,491.718 431.544,489.592 426.213,487.141C425.883,486.989 425.553,486.836 425.227,486.683L424.549,486.363L423.43,485.824C422.74,485.488 422.053,485.147 421.369,484.801L420.581,484.399C420.218,484.212 419.856,484.024 419.502,483.837L419.012,483.58L418.232,483.163L417.551,482.794C417.063,482.528 416.576,482.258 416.096,481.989C409.979,478.562 404.128,474.693 398.586,470.429C395.483,468.041 392.475,465.528 389.57,462.898C388.616,462.035 387.673,461.158 386.738,460.266L385.992,459.548L385.27,458.845C383.569,457.177 381.908,455.467 380.29,453.72C378.851,452.165 377.443,450.578 376.065,448.957L375.377,448.141L374.96,447.641C374.599,447.206 374.24,446.768 373.883,446.328C373.3,445.609 372.722,444.884 372.149,444.149C371.926,443.864 371.704,443.577 371.483,443.291L370.943,442.585L370.664,442.215C369.006,440.019 367.406,437.773 365.863,435.479C365.469,434.892 365.078,434.302 364.692,433.709C363.755,432.272 362.841,430.817 361.952,429.345C360.162,426.382 358.469,423.35 356.878,420.254C356.401,419.325 355.933,418.391 355.475,417.453L355.081,416.641C354.542,415.519 354.015,414.388 353.504,413.253C353.262,412.717 353.024,412.178 352.788,411.639C351.871,409.54 351,407.415 350.175,405.265L349.907,404.562C349.442,403.333 348.992,402.096 348.558,400.851C348.198,399.819 347.849,398.782 347.51,397.738C345.566,391.752 343.977,385.596 342.77,379.298L342.574,378.257C341.781,373.962 341.165,369.6 340.735,365.181L340.659,364.382L340.55,363.13C340.339,360.628 340.188,358.11 340.099,355.579C340.033,353.734 340,351.871 340,350L340.008,348.416L340.032,346.836L340.071,345.261L340.126,343.689L340.197,342.121L340.283,340.558L340.385,338.998L340.502,337.444L340.634,335.893L340.781,334.348L340.944,332.806L341.145,331.082L341.338,329.561L341.545,328.044L341.768,326.533L342.004,325.027L342.255,323.527L342.521,322.032L342.8,320.543L343.094,319.06L343.401,317.582L343.723,316.11L344.058,314.644L344.407,313.184L344.77,311.729L345.147,310.28L345.405,309.318L345.537,308.838C352.66,282.998 366.317,259.999 384.535,241.88L385.599,240.833L386.663,239.805L388.101,238.45L389.425,237.233L389.782,236.91C390.867,236.576 391.953,236.248 393.039,235.925C423.697,226.276 454.349,221.719 485,221.853ZM549.192,366.594C527.75,388.856 506.451,400.188 485.009,400.15C463.557,400.112 442.247,388.702 420.795,366.581C418.794,364.518 415.494,364.467 413.43,366.468C411.367,368.47 411.316,371.77 413.317,373.833C437.161,398.42 461.147,410.524 484.991,410.566C508.845,410.609 532.841,398.586 556.695,373.82C558.689,371.75 558.627,368.45 556.557,366.456C554.486,364.462 551.187,364.524 549.192,366.594ZM632.529,328.627C634.388,340.859 634.623,352.145 633.085,364.917C646.858,364.069 660.397,366.317 673.828,370C677.558,356.737 680.35,343.447 677.793,330C662.195,326.193 647.769,325.663 632.529,328.627ZM337.471,328.627C335.612,340.859 335.377,352.145 336.915,364.917C323.142,364.069 309.603,366.317 296.172,370C292.442,356.737 289.65,343.447 292.207,330C307.805,326.193 322.231,325.663 337.471,328.627ZM420,315C426.899,315 432.5,320.601 432.5,327.5C432.5,334.399 426.899,340 420,340C413.101,340 407.5,334.399 407.5,327.5C407.5,320.601 413.101,315 420,315ZM550,315C556.899,315 562.5,320.601 562.5,327.5C562.5,334.399 556.899,340 550,340C543.101,340 537.5,334.399 537.5,327.5C537.5,320.601 543.101,315 550,315ZM626.253,300C629.255,307.675 630.419,314.841 632,323.01C645.305,319.427 657.241,320.744 670,322.934C661.519,306.035 653.269,290.242 626.253,300ZM343.747,300C340.745,307.675 339.581,314.841 338,323.01C324.695,319.427 312.759,320.744 300,322.934C308.481,306.035 316.731,290.242 343.747,300ZM591.272,150C591.975,150 592.651,150.116 593.282,150.33L593.647,150.467C595.932,151.403 597.543,153.651 597.543,156.272C597.543,158.013 596.831,159.59 595.683,160.728L595.369,161.018L595.26,161.11C594.385,161.832 593.312,162.322 592.135,162.484L591.812,162.52L572.083,230.088L570.716,229.7L569.349,229.318L567.982,228.94L566.919,228.651C563.175,227.636 559.433,226.681 555.691,225.788C532.264,220.197 508.931,217.061 485.677,217.001L485,217C466.561,217 448.073,218.939 429.525,222.506L429.307,222.548C425.294,223.322 421.278,224.173 417.26,225.097L416.788,225.206C415.887,225.414 414.986,225.626 414.084,225.842C408.699,227.13 403.311,228.548 397.917,230.088L378.188,162.52L377.741,162.466L377.449,162.412C374.601,161.821 372.457,159.295 372.457,156.272C372.457,152.81 375.267,150 378.728,150C382.19,150 385,152.81 385,156.272C385,157.615 384.577,158.859 383.857,159.88C384.258,159.892 384.657,159.906 385.052,159.925L385.676,159.956C386.598,160.007 387.511,160.076 388.411,160.164L389.213,160.247C407.802,162.292 422.204,172.149 435,185C441.772,176.457 448.824,167.934 456.081,161.045L456.311,160.827C457.824,159.398 459.347,158.041 460.877,156.77L461.596,156.18L461.938,155.905C466.122,152.549 470.368,149.861 474.659,148.137L474.745,148.102C475.79,147.685 476.838,147.326 477.889,147.028L477.763,146.898L477.405,146.502L477.285,146.359L476.959,145.943L476.846,145.787L476.553,145.353L476.306,144.942L476.079,144.52L475.871,144.085L475.678,143.622L475.513,143.167L475.446,142.959L475.327,142.541L475.281,142.36L475.114,141.511L475.029,140.763L475.001,140.128L475.007,139.631L475.039,139.109L475.135,138.354L475.223,137.891L475.343,137.397L475.486,136.913L475.704,136.311L475.919,135.81L476.215,135.221L476.462,134.795L476.747,134.354L477.15,133.808L477.457,133.437L477.8,133.064L478.278,132.599L478.641,132.285L478.943,132.045L479.337,131.76L479.885,131.408L480.449,131.095L481.131,130.777L481.648,130.577L482.502,130.315L483.478,130.115L484.486,130.013L485,130L485.769,130.029L486.646,130.135L487.572,130.335L487.956,130.445L488.484,130.625L489.114,130.884L489.551,131.095L489.976,131.326L490.272,131.504L490.701,131.786L491.248,132.195L491.722,132.599L492.112,132.974L492.421,133.3L492.753,133.687L493.171,134.237L493.432,134.625L493.685,135.044L493.918,135.474L494.151,135.964L494.346,136.437L494.586,137.145L494.743,137.74L494.885,138.478L494.946,138.953L494.986,139.473L495,140C495,140 494.999,140.128 494.999,140.128L494.966,140.824L494.886,141.511L494.865,141.646L494.801,141.943L494.719,142.36L494.673,142.541L494.554,142.959L494.398,143.421L494.322,143.622L494.129,144.085L493.882,144.592L493.694,144.942L493.447,145.353L493.154,145.787L493.041,145.943L492.715,146.359L492.595,146.502L492.237,146.898L492.111,147.028C493.111,147.311 494.108,147.65 495.101,148.042L495.498,148.2C499.705,149.914 503.867,152.551 507.971,155.832L508.404,156.18L509.254,156.879C509.726,157.273 510.197,157.674 510.666,158.083C511.065,158.43 511.464,158.783 511.861,159.14C513.27,160.409 514.671,161.744 516.066,163.134L516.36,163.428C516.631,163.701 516.902,163.975 517.174,164.253L517.796,164.892C518.521,165.641 519.244,166.404 519.965,167.181L520.789,168.073C525.639,173.364 530.385,179.177 535,185C537.625,182.364 540.317,179.854 543.099,177.512L543.447,177.22C544.275,176.529 545.11,175.853 545.953,175.194C555.962,167.37 567.175,161.793 580.564,160.272C580.796,160.245 581.03,160.22 581.264,160.196C582.286,160.091 583.319,160.01 584.366,159.954C584.627,159.939 584.889,159.926 585.152,159.915L586.143,159.88C586.032,159.722 585.927,159.559 585.83,159.39C585.803,159.343 585.776,159.294 585.75,159.246C585.272,158.361 585,157.348 585,156.272C585,155.38 585.186,154.532 585.523,153.764L585.575,153.648C585.717,153.34 585.883,153.045 586.072,152.766L586.355,152.38C586.942,151.639 587.693,151.034 588.554,150.619L588.738,150.534C589.512,150.191 590.37,150 591.272,150Z" style="fill:white;"/>
    </g>
</svg>
