<?xml version="1.0" encoding="UTF-8" standalone="no"?>
<!DOCTYPE svg PUBLIC "-//W3C//DTD SVG 1.1//EN" "http://www.w3.org/Graphics/SVG/1.1/DTD/svg11.dtd">
<svg width="100%" height="100%" viewBox="0 0 1000 1000" version="1.1" xmlns="http://www.w3.org/2000/svg" xmlns:xlink="http://www.w3.org/1999/xlink" xml:space="preserve" xmlns:serif="http://www.serif.com/" style="fill-rule:evenodd;clip-rule:evenodd;stroke-linejoin:round;stroke-miterlimit:2;">
    <g transform="matrix(1.30435,0,0,1.30435,95.6522,23.913)">
        <path d="M310,20L379.5,154.707L498.54,192.777L647.49,145L530,450L390,575L310,710L230,575L90,450L-27.49,145L121.46,192.777L240.5,154.707L310,20ZM310,689.427L239.023,569.653C238.475,568.728 237.787,567.893 236.985,567.176L98.876,443.865C98.876,443.865 -9.825,161.681 -9.825,161.681C-9.825,161.681 118.257,202.764 118.257,202.764C120.337,203.432 122.574,203.433 124.655,202.767L243.695,164.697C246.343,163.85 248.546,161.987 249.821,159.516L310,42.875L370.179,159.516C371.454,161.987 373.657,163.85 376.305,164.697L495.345,202.767C497.426,203.433 499.663,203.432 501.743,202.764L629.825,161.681C629.825,161.681 521.124,443.865 521.124,443.865C521.124,443.865 383.015,567.176 383.015,567.176C382.213,567.893 381.525,568.728 380.977,569.653L310,689.427ZM260,554.576L125.074,430L123.664,426.32L253,467.351L241.761,441.351L113.603,400.065L81.04,315.088L210,356L198.761,330L70.979,288.836L39,205.384L250,270L310,423.5L370,270L581,205.384L549.021,288.836L421.239,330L410,356L538.96,315.088L506.397,400.065L378.239,441.351L367,467.351L496.336,426.32L494.926,430L360,554.576L310,649L260,554.576ZM270,248L171,215L270,182.115L310,90L350,182.115L449,215L350,248L310,338L270,248Z" style="fill:white;"/>
    </g>
</svg>
