<?xml version="1.0" encoding="UTF-8" standalone="no"?>
<!DOCTYPE svg PUBLIC "-//W3C//DTD SVG 1.1//EN" "http://www.w3.org/Graphics/SVG/1.1/DTD/svg11.dtd">
<svg width="100%" height="100%" viewBox="0 0 1000 1000" version="1.1" xmlns="http://www.w3.org/2000/svg" xmlns:xlink="http://www.w3.org/1999/xlink" xml:space="preserve" xmlns:serif="http://www.serif.com/" style="fill-rule:evenodd;clip-rule:evenodd;stroke-linejoin:round;stroke-miterlimit:2;">
    <g transform="matrix(0.975788,0,0,0.975788,12.1059,12.1059)">
        <path d="M254.567,910.261C262.958,918.076 272.258,924.708 282.345,930.316C292.433,935.924 303.308,940.508 314.848,944.227C273.458,975.096 253.364,963.774 254.567,910.261ZM370.031,457.117C505.271,435.162 632.892,527.135 654.847,662.374C676.802,797.614 584.829,925.235 449.59,947.19C314.35,969.145 186.729,877.172 164.774,741.933C142.819,606.693 234.792,479.072 370.031,457.117ZM623.125,851.052C635.263,885.218 631.814,903.918 612.775,907.153L612.611,907.18C603.842,908.622 591.797,906.814 576.475,901.754C586.246,894.576 595.112,886.787 602.908,878.276C610.703,869.765 617.427,860.531 622.915,850.463L623.125,851.052ZM330.397,617.877L458.485,597.083L514.79,662.248L478.375,719.602L435.348,841.855L434.221,852.517L429.779,842.759L350.287,740.396C335.153,720.161 317.443,706.225 297.598,697.507L330.397,617.877ZM429.157,733.307C419.447,740.695 408.389,742.817 395.743,738.732L425.107,813.986L429.157,733.307ZM166.188,776.752C161.776,766.168 158.789,755.143 157.036,743.736C155.283,732.328 154.763,720.538 155.287,708.425C111.959,736.508 115.592,759.284 166.188,776.752ZM399.866,640.894C424.455,636.903 447.659,653.625 451.65,678.214C455.642,702.803 438.92,726.007 414.331,729.999C389.742,733.99 366.538,717.268 362.546,692.679C358.554,668.09 375.277,644.886 399.866,640.894ZM664.52,695.852C665.358,684.416 664.704,673.013 662.758,661.636C660.812,650.26 657.575,638.911 653.247,627.586C703.234,640.52 706.992,663.276 664.52,695.852ZM248.021,603.371C248.081,615.575 245.02,626.676 238.227,636.458C231.434,646.24 220.908,654.702 206.037,661.629C180.94,611.416 199.298,595.144 248.021,603.371ZM243.214,608.599C243.262,618.392 240.806,627.3 235.355,635.149C229.904,642.998 221.458,649.789 209.525,655.347C189.387,615.055 204.117,601.998 243.214,608.599ZM532.041,557.263C535.846,568.859 542.261,578.422 551.8,585.552C561.338,592.683 574.001,597.381 590.299,599.247C598.223,543.674 575.66,534.045 532.041,557.263ZM538.256,560.702C541.308,570.007 546.456,577.681 554.11,583.402C561.764,589.124 571.925,592.894 585.003,594.391C591.361,549.798 573.256,542.072 538.256,560.702ZM196.706,553.844C202.194,543.776 208.918,534.542 216.713,526.031C224.509,517.52 233.375,509.731 243.146,502.553C194.116,486.363 178.637,503.46 196.706,553.844ZM786.399,543.847C789.375,544.707 792.425,545.172 795.54,545.293C798.656,545.414 801.836,545.193 805.071,544.682C798.86,557.17 792.636,556.892 786.399,543.847ZM837.908,528.962C807.99,550.748 766.013,544.146 744.227,514.227C722.441,484.309 729.043,442.332 758.962,420.546C788.88,398.76 830.858,405.362 852.643,435.281C874.429,465.199 867.827,507.177 837.908,528.962ZM831.281,535.737C834.14,534.544 836.808,532.995 839.313,531.139C841.818,529.282 844.158,527.118 846.36,524.693C849.339,538.319 844.313,542 831.281,535.737ZM786.646,524.584C784.315,522.253 781.602,520.731 778.433,520.175C775.265,519.62 771.64,520.032 767.484,521.57C772.352,535.931 778.964,535.5 786.646,524.584ZM784.728,524.513C782.858,522.643 780.681,521.421 778.139,520.975C775.596,520.53 772.687,520.86 769.352,522.095C773.259,533.618 778.565,533.272 784.728,524.513ZM737.812,507.338C739.005,510.197 740.554,512.865 742.41,515.37C744.267,517.875 746.431,520.215 748.855,522.417C735.23,525.396 731.549,520.37 737.812,507.338ZM827.854,485.381L799.518,506.015L777.999,497.176L779.781,478.911L775.242,444.197L774.213,441.49L776.474,443.3L808.118,458.277C814.233,461.308 820.202,462.507 826.048,462.188L827.854,485.381ZM867.887,484.51C867.792,487.605 867.298,490.651 866.457,493.653C865.616,496.655 864.429,499.614 862.949,502.536C876.741,500.458 878.387,494.449 867.887,484.51ZM565.054,494.046C556.663,486.231 547.363,479.599 537.276,473.991C527.188,468.383 516.313,463.799 504.773,460.08C546.163,429.212 566.257,440.534 565.054,494.046ZM808.303,488.306C802.864,492.267 795.232,491.067 791.27,485.627C787.309,480.187 788.51,472.555 793.95,468.594C799.389,464.633 807.021,465.833 810.983,471.273C814.944,476.713 813.743,484.345 808.303,488.306ZM849.478,478.831C847.975,475.897 847.359,472.848 847.803,469.662C848.248,466.475 849.753,463.152 852.492,459.669C864.665,468.71 862.225,474.871 849.478,478.831ZM849.999,476.984C848.793,474.63 848.299,472.183 848.655,469.627C849.012,467.07 850.219,464.403 852.418,461.608C862.186,468.863 860.228,473.807 849.999,476.984ZM789.972,469.605C791.412,466.64 793.818,464.78 797.364,464.222L781.109,449.665L789.972,469.605ZM728.861,464.882C721.768,458.128 720.319,453.2 724.513,450.098L724.549,450.072C726.487,448.655 729.611,447.622 733.921,446.972C732.441,449.894 731.254,452.853 730.413,455.855C729.573,458.857 729.078,461.903 728.983,464.999L728.861,464.882ZM403.245,445.818C391.809,444.98 380.406,445.635 369.029,447.58C357.653,449.526 346.304,452.763 334.979,457.091C347.913,407.104 370.669,403.347 403.245,445.818ZM848.056,427.061C850.41,429.074 852.475,431.367 854.289,433.903C856.103,436.438 857.666,439.217 859.017,442.2C866.035,430.147 862.381,425.1 848.056,427.061ZM810.471,405.661C807.496,404.801 804.445,404.336 801.33,404.215C798.215,404.094 795.034,404.315 791.799,404.826C798.011,392.338 804.235,392.616 810.471,405.661ZM592.485,375.739C583.763,396.345 574.397,403.416 564.386,396.951L564.3,396.895C559.708,393.895 554.981,388.05 550.119,379.36C557.558,380.167 564.839,380.32 571.935,379.697C579.031,379.074 585.94,377.676 592.634,375.383L592.485,375.739ZM641.562,90.969C712.253,137.363 731.978,232.421 685.583,303.112C639.189,373.802 544.131,393.527 473.44,347.133C402.75,300.738 383.024,205.68 429.419,134.99C475.813,64.299 570.872,44.574 641.562,90.969ZM676.027,322.378C681.176,317.524 685.633,312.062 689.491,306.074C693.348,300.087 696.607,293.573 699.359,286.615C716.712,313.341 708.934,325.262 676.027,322.378ZM556.503,147.594L623.455,191.535L621.907,244.661L581.425,255.576L510.876,293.265L505.918,297.647L507.965,291.355L514.473,211.635C516.022,196.118 513.774,182.393 508.379,170.153L556.503,147.594ZM400.097,249.02C400.657,256.074 402.123,262.969 404.375,269.727C406.627,276.484 409.664,283.104 413.365,289.607C381.662,286.397 377.239,272.868 400.097,249.02ZM553.316,241.293C545.817,240.606 539.901,236.961 535.85,229.83L517.836,276.315L553.316,241.293ZM673.527,204.083C670.423,210.946 669.355,217.972 670.723,225.193C672.091,232.415 675.894,239.832 682.532,247.476C709.307,225.492 703.055,211.704 673.527,204.083ZM674.921,208.239C672.43,213.746 671.574,219.383 672.671,225.178C673.768,230.973 676.82,236.924 682.146,243.058C703.631,225.418 698.614,214.354 674.921,208.239ZM578.516,187.03C591.369,195.466 594.956,212.749 586.52,225.602C578.085,238.454 560.802,242.041 547.949,233.605C535.096,225.17 531.509,207.887 539.945,195.034C548.38,182.181 565.664,178.595 578.516,187.03ZM714.905,189.082C714.346,182.027 712.879,175.132 710.627,168.375C708.375,161.617 705.338,154.998 701.637,148.494C733.341,151.705 737.763,165.234 714.905,189.082ZM415.546,151.423C417.95,144.767 421.188,138.505 425.146,132.584C429.105,126.662 433.784,121.081 439.072,115.787C407.649,110.501 399.806,122.38 415.546,151.423ZM525.068,106.649C520.007,112.227 513.986,116.002 506.817,117.621C499.648,119.239 491.33,118.701 481.675,115.653C491.191,82.342 506.328,82.591 525.068,106.649ZM520.701,107.024C516.64,111.5 511.808,114.529 506.056,115.828C500.303,117.127 493.629,116.695 485.882,114.249C493.517,87.519 505.663,87.719 520.701,107.024ZM661.386,99.675C656.532,94.526 651.07,90.069 645.082,86.212C639.095,82.354 632.581,79.095 625.623,76.343C652.349,58.99 664.27,66.768 661.386,99.675ZM522.368,62.718C529.062,60.425 535.972,59.027 543.067,58.404C550.163,57.782 557.444,57.934 564.883,58.742C549.324,30.933 535.152,32.259 522.368,62.718Z" style="fill:white;"/>
    </g>
</svg>
