<?xml version="1.0" encoding="UTF-8" standalone="no"?>
<!DOCTYPE svg PUBLIC "-//W3C//DTD SVG 1.1//EN" "http://www.w3.org/Graphics/SVG/1.1/DTD/svg11.dtd">
<svg width="100%" height="100%" viewBox="0 0 1000 1000" version="1.1" xmlns="http://www.w3.org/2000/svg" xmlns:xlink="http://www.w3.org/1999/xlink" xml:space="preserve" xmlns:serif="http://www.serif.com/" style="fill-rule:evenodd;clip-rule:evenodd;stroke-linejoin:round;stroke-miterlimit:2;">
    <path d="M500,50C748.362,50 950,251.638 950,500C950,748.362 748.362,950 500,950C251.638,950 50,748.362 50,500C50,251.638 251.638,50 500,50ZM500,65C740.083,65 935,259.917 935,500C935,740.083 740.083,935 500,935C259.917,935 65,740.083 65,500C65,259.917 259.917,65 500,65ZM500,73C735.668,73 927,264.332 927,500C927,735.668 735.668,927 500,927C264.332,927 73,735.668 73,500C73,264.332 264.332,73 500,73ZM630.512,819.365C639.664,808.477 649.274,815.143 653.042,823.697C656.809,832.252 654.733,842.696 640.512,839.365C626.875,836.171 619.786,832.126 630.512,819.365ZM265.206,799.365C275.68,785.699 285.746,791.407 289.41,800.178C293.075,808.948 290.338,820.781 275.206,819.365C261.26,818.06 255.065,812.596 265.206,799.365ZM713.521,729.406C726.79,711.185 749.619,699.106 765.429,702.811C793.126,709.301 785.94,741.189 768.269,765.08C763.999,770.852 759.118,776.158 753.966,780.527C751.839,784.95 749.225,789.289 746.246,793.374C729.672,816.103 701.806,830.942 683.751,807.979C655.302,771.797 679.089,735.192 713.521,729.406ZM755.206,336.212C764.357,325.325 773.968,331.99 777.735,340.545C781.502,349.099 779.426,359.543 765.206,356.212C751.568,353.018 744.479,348.973 755.206,336.212ZM802.825,311.882C803.019,290.969 817.023,298.286 827.089,311.136C837.155,323.986 843.283,342.369 827.726,343.589C812.807,344.759 802.597,336.392 802.825,311.882ZM674.706,208.824C692.436,186.578 748.236,221.232 759.327,247.084C770.418,272.936 768.946,304.36 740,308.285C692.738,314.692 649.843,240.017 674.706,208.824Z" style="fill:white;"/>
</svg>
