<?xml version="1.0" encoding="UTF-8" standalone="no"?>
<!DOCTYPE svg PUBLIC "-//W3C//DTD SVG 1.1//EN" "http://www.w3.org/Graphics/SVG/1.1/DTD/svg11.dtd">
<svg width="100%" height="100%" viewBox="0 0 1000 1000" version="1.1" xmlns="http://www.w3.org/2000/svg" xmlns:xlink="http://www.w3.org/1999/xlink" xml:space="preserve" xmlns:serif="http://www.serif.com/" style="fill-rule:evenodd;clip-rule:evenodd;stroke-linejoin:round;stroke-miterlimit:2;">
    <g transform="matrix(3.50308,0,0,3.50502,-1248.18,-1252.41)">
        <path d="M500.083,517.941C499.81,538.938 493.21,547.552 482.952,556.941C462.059,576.064 455.703,589.297 468.083,594.941C467.074,609.865 469.936,621.822 496.083,615.941C511.475,634.418 529.525,630.751 540.083,614.941C546.404,605.477 536.885,598.985 533.083,598.941C528.781,598.892 523.192,602.852 525.083,609.941C513.272,620.207 505.799,616.005 500.083,605.941C480.712,603.152 482.385,584.915 495.118,567.941C503.864,556.284 513.76,538.742 509.083,526.941C505.246,524.325 502.533,521.194 500.083,517.941ZM509.21,551.342C505.545,558.221 501.648,564.578 497.083,569.441C505.775,580.226 515.108,581.462 525.083,573.15C538.432,572.176 542.732,566.106 543.083,554.941C543.298,548.124 532.312,546.587 529.583,549.309C528.319,550.571 525.218,554.547 531.083,558.941C530.42,562.463 528.234,564.776 522.083,563.941C519.878,566.864 517.579,567.471 515.583,567.067C511.511,566.242 510.281,559.034 509.21,551.342ZM447.599,510.422C440.72,506.758 434.364,502.86 429.5,498.296C418.715,506.988 417.479,516.321 425.792,526.296C426.765,539.645 432.835,543.944 444,544.296C450.818,544.511 452.355,533.524 449.633,530.796C448.371,529.531 444.395,526.431 440,532.296C436.479,531.632 434.165,529.447 435,523.296C432.078,521.09 431.47,518.791 431.874,516.796C432.699,512.723 439.907,511.493 447.599,510.422ZM498.083,518.941L498.083,500.941C481.596,500.941 472.869,508.917 470.491,515.941C468.033,523.201 469.327,543.941 484.083,543.941C491.883,543.941 493.958,538.765 493.619,536.941C492.948,533.327 488.712,528.312 484.083,532.941C477.641,531.779 480.44,522.414 481.641,519.941C483.499,516.118 491.154,511.167 498.083,518.941ZM481,501.296C460.003,501.023 451.389,494.423 442,484.164C422.878,463.272 409.644,456.915 404,469.296C389.077,468.286 377.12,471.149 383,497.296C364.523,512.687 368.19,530.738 384,541.296C393.464,547.617 399.956,538.098 400,534.296C400.05,529.994 396.09,524.405 389,526.296C378.735,514.484 382.937,507.011 393,501.296C395.789,481.924 414.027,483.597 431,496.331C442.657,505.077 460.199,514.972 472,510.296C474.616,506.459 477.748,503.746 481,501.296ZM517.083,498.645C538.08,498.919 546.694,505.519 556.083,515.777C575.206,536.669 588.439,543.026 594.083,530.645C609.007,531.655 620.964,528.793 615.083,502.645C633.56,487.254 629.893,469.204 614.083,458.645C604.619,452.325 598.127,461.843 598.083,465.645C598.034,469.947 601.994,475.536 609.083,473.645C619.349,485.457 615.147,492.93 605.083,498.645C602.294,518.017 584.057,516.344 567.083,503.61C555.426,494.865 537.884,484.969 526.083,489.645C523.467,493.483 520.336,496.195 517.083,498.645ZM518.083,500.645L500.083,500.645C500.083,517.132 508.059,525.86 515.083,528.238C522.343,530.696 543.083,529.402 543.083,514.645C543.083,506.845 537.908,504.771 536.083,505.109C532.469,505.78 527.455,510.016 532.083,514.645C530.921,521.087 521.556,518.288 519.083,517.087C515.26,515.23 510.309,507.575 518.083,500.645ZM550.484,489.519C557.363,493.183 563.72,497.081 568.583,501.645C579.368,492.953 580.604,483.62 572.292,473.645C571.318,460.296 565.248,455.997 554.083,455.645C547.266,455.43 545.729,466.417 548.451,469.145C549.713,470.41 553.689,473.51 558.083,467.645C561.605,468.309 563.918,470.494 563.083,476.645C566.006,478.851 566.614,481.15 566.209,483.145C565.385,487.218 558.176,488.448 550.484,489.519ZM480,499.296L498,499.296C498,482.809 490.024,474.081 483,471.703C475.741,469.246 455,470.539 455,485.296C455,493.096 460.176,495.17 462,494.832C465.615,494.161 470.629,489.925 466,485.296C467.162,478.854 476.527,481.653 479,482.854C482.824,484.711 487.775,492.367 480,499.296ZM500,481L500,499C516.487,499 525.215,491.024 527.593,484C530.05,476.741 528.757,456 514,456C506.2,456 504.126,461.176 504.464,463C505.135,466.615 509.371,471.629 514,467C520.442,468.162 517.643,477.527 516.442,480C514.585,483.824 506.929,488.775 500,481ZM498,482C498.273,461.003 504.873,452.389 515.132,443C536.024,423.878 542.381,410.644 530,405C531.01,390.077 528.148,378.12 502,384C486.609,365.523 468.558,369.19 458,385C451.68,394.464 461.198,400.956 465,401C469.302,401.05 474.891,397.09 473,390C484.812,379.735 492.285,383.937 498,394C517.372,396.789 515.699,415.027 502.965,432C494.219,443.657 484.324,461.199 489,473C492.837,475.616 495.55,478.748 498,482ZM488.874,448.599C492.538,441.72 496.436,435.364 501,430.5C492.308,419.715 482.975,418.479 473,426.792C459.651,427.765 455.352,433.835 455,445C454.785,451.818 465.772,453.355 468.5,450.633C469.765,449.371 472.865,445.395 467,441C467.664,437.479 469.849,435.165 476,436C478.206,433.078 480.505,432.47 482.5,432.874C486.573,433.699 487.803,440.907 488.874,448.599Z" style="fill:white;"/>
    </g>
</svg>
