<?xml version="1.0" encoding="UTF-8" standalone="no"?>
<!DOCTYPE svg PUBLIC "-//W3C//DTD SVG 1.1//EN" "http://www.w3.org/Graphics/SVG/1.1/DTD/svg11.dtd">
<svg width="100%" height="100%" viewBox="0 0 1000 1000" version="1.1" xmlns="http://www.w3.org/2000/svg" xmlns:xlink="http://www.w3.org/1999/xlink" xml:space="preserve" xmlns:serif="http://www.serif.com/" style="fill-rule:evenodd;clip-rule:evenodd;stroke-linejoin:round;stroke-miterlimit:2;">
    <g transform="matrix(2.53078,0,0,2.53078,-810.465,-708.665)">
        <path d="M630,310L608.185,327.303C597.958,325.641 588.607,325.421 580,326.424L560,306.727L553.717,333.054C536.502,360.361 538.804,383.149 566.738,400C537.241,507.54 526.177,595.295 568.689,625.542L570.495,640C594.461,632.53 615.208,635.504 632.882,648.445C646.585,640.983 656.475,629.907 663.745,609.62C676.95,607.122 689.041,594.435 690,577.558C691.516,550.872 678.503,533.519 662.881,520C629.418,491.039 617.849,459.244 630,441.646C644.032,421.323 661.243,420.894 680,454.161C688.012,460.182 693.727,459.55 695.622,447.856C689.815,429.167 683.231,416.624 673.955,412.432C643.935,398.867 621.877,412.776 607.148,433.139L607.176,402.971C639.849,384.01 645.324,360.039 631.267,332.471L630,310ZM540,480C531.08,532.497 531.164,566.29 537,587.651C473.664,554.708 409.732,528.497 340,507.528L340,469.605C412.555,458.445 478.311,464.172 540,480ZM603.832,477.586C600.326,488.047 597.309,507.107 612.847,520C643.016,545.033 655.555,565.053 660,583.474C679.491,569.248 676.305,549.013 640,520C622.619,504.793 612.733,491.091 603.832,477.586Z" style="fill:white;"/>
    </g>
</svg>
