<?xml version="1.0" encoding="UTF-8" standalone="no"?>
<!DOCTYPE svg PUBLIC "-//W3C//DTD SVG 1.1//EN" "http://www.w3.org/Graphics/SVG/1.1/DTD/svg11.dtd">
<svg width="100%" height="100%" viewBox="0 0 1000 1000" version="1.1" xmlns="http://www.w3.org/2000/svg" xmlns:xlink="http://www.w3.org/1999/xlink" xml:space="preserve" xmlns:serif="http://www.serif.com/" style="fill-rule:evenodd;clip-rule:evenodd;stroke-linejoin:round;stroke-miterlimit:2;">
    <g transform="matrix(10.6509,0,0,10.6509,-4942.6,-5232.84)">
        <path d="M510,578.5L510,564L508,564L508,562L510,562L510,552L512,552L512,562L514,562L514,564L512,564L512,578.5L514,578.5L514,580.5L508,580.5L508,578.5L510,578.5ZM474.12,541L476.428,541C477.866,557.762 491.24,571.135 508,572.572L508,574.88C489.968,573.429 475.569,559.029 474.12,541ZM547.88,541C546.429,559.032 532.029,573.431 514,574.88L514,572.572C530.762,571.134 544.135,557.76 545.572,541L547.88,541ZM494.773,541L497.031,541C498.204,546.478 502.521,550.796 508,551.969L508,554.227C501.296,552.994 496.005,547.703 494.773,541ZM527.227,541C525.994,547.704 520.703,552.995 514,554.227L514,551.969C519.478,550.796 523.796,546.479 524.969,541L527.227,541ZM512,537.5L512,532.5L510,532.5L510,537.5L505,537.5L505,539.5L510,539.5L510,544.5L512,544.5L512,539.5L517,539.5L517,537.5L512,537.5ZM470.75,539L485.25,539L485.25,541L487.25,541L487.25,539L497.25,539L497.25,537L487.25,537L487.25,535L485.25,535L485.25,537L470.75,537L470.75,535L468.75,535L468.75,541L470.75,541L470.75,539ZM551.25,539L536.75,539L536.75,541L534.75,541L534.75,539L524.75,539L524.75,537L534.75,537L534.75,535L536.75,535L536.75,537L551.25,537L551.25,535L553.25,535L553.25,541L551.25,541L551.25,539ZM514,501.12C532.032,502.571 546.431,516.971 547.88,535L545.572,535C544.134,518.238 530.76,504.865 514,503.428L514,501.12ZM514,521.773C520.704,523.006 525.995,528.297 527.227,535L524.969,535C523.796,529.522 519.479,525.204 514,524.031L514,521.773ZM508,501.12L508,503.428C491.238,504.866 477.865,518.24 476.428,535L474.12,535C475.571,516.968 489.971,502.569 508,501.12ZM508,521.773L508,524.031C502.522,525.204 498.204,529.521 497.031,535L494.773,535C496.006,528.296 501.297,523.005 508,521.773ZM512,498L512,512.5L514,512.5L514,514.5L512,514.5L512,524.5L510,524.5L510,514.5L508,514.5L508,512.5L510,512.5L510,498L508,498L508,496L514,496L514,498L512,498Z" style="fill:white;"/>
    </g>
</svg>
