<?xml version="1.0" encoding="UTF-8" standalone="no"?>
<!DOCTYPE svg PUBLIC "-//W3C//DTD SVG 1.1//EN" "http://www.w3.org/Graphics/SVG/1.1/DTD/svg11.dtd">
<svg width="100%" height="100%" viewBox="0 0 1000 1000" version="1.1" xmlns="http://www.w3.org/2000/svg" xmlns:xlink="http://www.w3.org/1999/xlink" xml:space="preserve" xmlns:serif="http://www.serif.com/" style="fill-rule:evenodd;clip-rule:evenodd;stroke-linejoin:round;stroke-miterlimit:2;">
    <g transform="matrix(3.7037,0,0,3.7037,-57.4074,-48.7667)">
        <path d="M133.71,109.482L84,121C59.624,124.604 55.72,120.038 53,115C104.228,105.17 146.045,93.816 185,82C206.351,76.03 214.331,80.253 219,87C222.606,89.94 222.034,91.883 218,93C203.08,97.462 184.334,100.484 166,102L143.347,107.249C148.494,110.254 154.35,116.031 160,121L141,188C173.612,220.815 218.009,238.902 272,245L229,255C215.026,258.327 200.219,256.517 184,246C164.643,230.759 148.899,215.394 134,200C100.062,232.007 64.988,243.316 29,238C70.452,231.459 101.692,214.383 121,185C106.987,168.056 89.934,152.943 71,138C83.903,132.579 103.434,144.559 127,174C136.059,151.494 139.172,129.859 133.71,109.482ZM107,40C112.992,49.345 124.588,59.24 145,70C155.353,67.874 158.653,62.061 150,50C139.175,41.915 124.503,39.039 107,40Z" style="fill:white;"/>
    </g>
</svg>
