<?xml version="1.0" encoding="UTF-8" standalone="no"?>
<!DOCTYPE svg PUBLIC "-//W3C//DTD SVG 1.1//EN" "http://www.w3.org/Graphics/SVG/1.1/DTD/svg11.dtd">
<svg width="100%" height="100%" viewBox="0 0 1000 1000" version="1.1" xmlns="http://www.w3.org/2000/svg" xmlns:xlink="http://www.w3.org/1999/xlink" xml:space="preserve" xmlns:serif="http://www.serif.com/" style="fill-rule:evenodd;clip-rule:evenodd;stroke-linejoin:round;stroke-miterlimit:2;">
    <g transform="matrix(5.625,0,0,5.625,-1637.5,-2310.03)">
        <path d="M397.335,478.874C416.032,462.076 436.812,444.037 460,424.56C441.58,447.288 421.292,469.262 399.328,490.56C400.05,490.902 400.951,491.037 402,491L435,491C441.965,490.486 444.697,487.462 445,483L445,470C445.183,468.001 445.823,466.945 447,467L452,467C453.352,467.095 453.459,468.48 453.437,470L453.467,527.573C453.446,529.852 452.53,531.233 451,532L446,532C443.82,531.513 443.482,529.646 443.546,527.478L443.546,516C442.768,511.287 440.866,507.278 433,507L403,507C398.05,506.932 397.268,509.315 397,512L397,554C397.635,561.239 401.314,564.241 407,564.447L410,564.5C411.934,567.174 411.539,569.871 410,572.58L350,572.58C348.461,569.871 348.066,567.174 350,564.5L353,564.447C358.686,564.241 362.365,561.239 363,554L363,523.881C343.079,541.207 322.04,558.086 300,574.56C317.197,555.503 337.722,534.459 362.806,510.692C362.355,508.588 361.125,506.943 357,507L327,507C319.134,507.278 317.232,511.287 316.454,516L316.454,527.478C316.518,529.646 316.18,531.513 314,532L309,532C307.47,531.233 306.554,529.852 306.533,527.573L306.563,470C306.541,468.48 306.648,467.095 308,467L313,467C314.177,466.945 314.817,468.001 315,470L315,483C315.303,487.462 318.035,490.486 325,491L358,491C360.983,491.106 362.767,489.817 362.665,486.335L362.665,444C362.188,440.044 360.199,436.896 354,436C351.403,436.125 349.263,435.697 349,433L349,430C349.034,427.656 349.915,426.055 353.325,426.675L380,426.899L406.675,426.675C410.085,426.055 410.966,427.656 411,430L411,433C410.737,435.697 408.597,436.125 406,436C399.801,436.896 397.812,440.044 397.335,444L397.335,478.874ZM397.335,478.874L397.335,486.335C397.269,488.593 397.995,489.929 399.328,490.56C395.25,494.514 391.114,498.445 386.921,502.354C379.141,509.606 371.166,516.78 363,523.881L363,512C362.955,511.552 362.896,511.113 362.806,510.692C373.462,500.595 384.94,490.007 397.335,478.874Z" style="fill:white;"/>
    </g>
</svg>
