<?xml version="1.0" encoding="UTF-8" standalone="no"?>
<!DOCTYPE svg PUBLIC "-//W3C//DTD SVG 1.1//EN" "http://www.w3.org/Graphics/SVG/1.1/DTD/svg11.dtd">
<svg width="100%" height="100%" viewBox="0 0 1000 1000" version="1.1" xmlns="http://www.w3.org/2000/svg" xmlns:xlink="http://www.w3.org/1999/xlink" xml:space="preserve" xmlns:serif="http://www.serif.com/" style="fill-rule:evenodd;clip-rule:evenodd;stroke-linejoin:round;stroke-miterlimit:2;">
    <path d="M540.808,140.724C546.627,141.419 552.405,142.252 558.118,143.217L621.692,67.775L636.915,165.921C642.051,168.056 647.128,170.306 652.123,172.657L734.359,116.713L722.443,216.117C726.585,219.377 730.654,222.725 734.648,226.157L829.645,194.234L791.196,287.112L791.18,287.153C794.21,291.274 797.155,295.461 800.016,299.716L800.091,299.713L900.482,294.588L838.401,373.648L838.313,373.762C840.113,378.509 841.816,383.303 843.422,388.148C843.469,388.159 843.518,388.171 843.566,388.182L941.617,410.331L860.508,469.711C860.464,469.744 860.42,469.777 860.376,469.81C860.831,474.858 861.182,479.93 861.428,485.025C861.472,485.051 861.516,485.075 861.561,485.099L950,532.881L856.025,568.121C855.095,573.261 854.058,578.364 852.91,583.442L925.008,653.149L825.503,661.685C823.146,666.546 820.684,671.347 818.128,676.068L868.495,762.213L770.952,743.696C767.248,747.903 763.449,752.025 759.556,756.059L784.653,851.986L696.528,808.239C691.565,811.489 686.518,814.621 681.397,817.626L679.699,915.81L607.409,850.598C601.422,852.498 595.369,854.247 589.251,855.842L561.418,948.951L509.86,867.378C505.642,867.524 501.391,867.597 497.123,867.597C494.768,867.597 492.418,867.575 490.044,867.53L438.582,948.951L411.216,857.404C404.436,855.764 397.73,853.935 391.118,851.927L320.301,915.81L318.661,820.967C312.392,817.439 306.238,813.732 300.213,809.857L215.347,851.986L239.234,760.685C234.04,755.489 229.001,750.137 224.121,744.631L131.505,762.213L178.911,681.132C175.241,674.601 171.767,667.946 168.495,661.17L74.992,653.149L142.393,587.983C140.643,580.676 139.114,573.284 137.812,565.81L50,532.881L132.679,488.211C132.977,480.702 133.502,473.251 134.246,465.871L58.383,410.331L150.363,389.553C152.648,382.564 155.14,375.667 157.835,368.855L99.518,294.588L194.422,299.433C198.374,293.567 202.493,287.822 206.771,282.202L170.355,194.234L261.223,224.77C266.382,220.388 271.664,216.147 277.069,212.049L265.641,116.713L345.543,171.07C351.435,168.371 357.41,165.825 363.471,163.433L378.308,67.775L441.193,142.399C447.245,141.466 453.348,140.682 459.498,140.051L500,51.049L540.808,140.724ZM497.123,167.454C533.479,167.454 541.753,179.14 537.428,210.61C541.753,179.14 552.873,170.12 587.88,179.929C622.888,189.737 627.702,203.222 615.047,232.358C627.702,203.222 640.844,197.536 671.906,216.426C702.969,235.316 703.967,249.599 683.92,274.24C703.967,249.599 718.155,247.67 742.97,274.24C767.784,300.81 764.892,314.833 738.94,333.152C764.892,314.833 779.074,316.804 795.8,349.083C812.525,381.363 805.957,394.085 776.025,404.723C805.957,394.085 819.081,399.809 826.478,435.404C833.875,470.999 824.117,481.478 792.425,483.646C824.117,481.478 835.211,490.53 832.73,526.801C830.249,563.072 818.026,570.529 786.925,564.066C818.026,570.529 826.266,582.239 814.091,616.495C801.916,650.752 788.135,654.635 759.93,640.02C788.135,654.635 792.91,668.133 771.944,697.835C750.979,727.536 736.66,727.557 713.445,705.875C736.66,727.557 737.617,741.843 709.415,764.787C681.214,787.73 667.421,783.887 650.916,756.746C667.421,783.887 664.487,797.902 631.142,812.386C597.796,826.87 585.551,819.448 576.981,788.861C585.551,819.448 578.946,832.152 542.929,837.102C506.912,842.053 497.123,831.603 497.123,799.837C497.123,831.603 487.335,842.053 451.318,837.102C415.301,832.152 408.695,819.448 417.266,788.861C408.695,819.448 396.451,826.87 363.105,812.386C329.759,797.902 326.826,783.887 343.331,756.746C326.826,783.887 313.033,787.73 284.831,764.787C256.63,741.843 257.586,727.557 280.802,705.875C257.586,727.557 243.268,727.536 222.302,697.835C201.337,668.133 206.112,654.635 234.316,640.02C206.112,654.635 192.33,650.752 180.156,616.495C167.981,582.239 176.221,570.529 207.322,564.066C176.221,570.529 163.998,563.072 161.517,526.801C159.036,490.53 170.13,481.478 201.821,483.646C170.13,481.478 160.372,470.999 167.769,435.404C175.166,399.809 188.29,394.085 218.222,404.723C188.29,394.085 181.721,381.363 198.447,349.083C215.173,316.804 229.355,314.833 255.307,333.152C229.355,314.833 226.462,300.81 251.277,274.24C276.092,247.67 290.279,249.599 310.326,274.24C290.279,249.599 291.277,235.316 322.34,216.426C353.403,197.536 366.544,203.222 379.2,232.358C366.544,203.222 371.359,189.737 406.366,179.929C441.374,170.12 452.494,179.14 456.819,210.61C452.494,179.14 460.768,167.454 497.123,167.454ZM500,233.895C646.867,233.895 766.105,353.133 766.105,500C766.105,646.867 646.867,766.105 500,766.105C353.133,766.105 233.895,646.867 233.895,500C233.895,353.133 353.133,233.895 500,233.895ZM500.6,751.035C609.111,750.789 701.549,681.529 736.312,584.846L554.642,584.823L500.6,751.035ZM263.666,584.787C297.673,679.458 386.998,747.858 492.592,750.928L440.901,584.809L263.666,584.787ZM445.965,585.526L497.249,749.338L549.189,585.051L445.965,585.526ZM590.56,474.352L736.809,583.451C746.023,557.335 751.036,529.248 751.036,500C751.036,416.828 710.501,343.049 648.111,297.348L590.56,474.352ZM499.099,411.743L412.644,475.684L446.866,581.558L549.532,580.151L582.853,475.684L499.099,411.743ZM555.581,578.232L727.2,581.558L587.873,480.187L555.581,578.232ZM351.533,297.609C289.351,343.319 248.964,416.981 248.964,500C248.964,528.264 253.645,555.444 262.271,580.795L406.523,474.329L351.533,297.609ZM410.555,481.722L269.756,579.907L442.059,580.023L410.555,481.722ZM495.497,409.942L358.609,306.376L411.743,470.281L495.497,409.942ZM585.693,469.946L640.49,307.276L501.904,409.942L585.693,469.946ZM647.209,296.69C605.85,266.675 554.977,248.964 500,248.964C444.94,248.964 393.996,266.728 352.594,296.833L499.018,406.063L647.209,296.69Z" style="fill:white;"/>
</svg>
