<?xml version="1.0" encoding="UTF-8" standalone="no"?>
<!DOCTYPE svg PUBLIC "-//W3C//DTD SVG 1.1//EN" "http://www.w3.org/Graphics/SVG/1.1/DTD/svg11.dtd">
<svg width="100%" height="100%" viewBox="0 0 1000 1000" version="1.1" xmlns="http://www.w3.org/2000/svg" xmlns:xlink="http://www.w3.org/1999/xlink" xml:space="preserve" xmlns:serif="http://www.serif.com/" style="fill-rule:evenodd;clip-rule:evenodd;stroke-linejoin:round;stroke-miterlimit:2;">
    <g transform="matrix(3.41125,0,0,3.41125,-1569.21,-895.67)">
        <path d="M599.583,488.619C607.737,487.187 615.316,491.486 616.499,498.214C617.681,504.942 612.021,511.567 603.867,513C595.713,514.433 588.133,510.134 586.951,503.406C585.769,496.678 591.429,490.052 599.583,488.619ZM675.245,476.154C683.399,474.721 690.979,479.02 692.161,485.748C693.343,492.476 687.683,499.102 679.529,500.534C671.376,501.967 663.796,497.668 662.614,490.94C661.432,484.212 667.092,477.586 675.245,476.154ZM683.413,414.05L687,338L526,364L566,463L680.268,444.284L685.911,457.125L567,476L569,490L691.757,470.43L693.507,474.414C694.475,476.616 696.664,478.028 699.07,478C701.476,477.971 703.632,476.509 704.548,474.284L708.041,465.802C708.041,465.802 724.668,483.151 724.668,483.151C725.784,484.316 727.323,484.982 728.936,485C730.55,485.017 732.102,484.384 733.243,483.243L736.743,479.743C739.033,477.453 739.092,473.759 736.877,471.396L720.907,454.361C720.907,454.361 729.299,451.724 729.299,451.724C731.577,451.008 733.213,449.01 733.466,446.635C733.719,444.261 732.54,441.963 730.464,440.783L709.517,428.882L715.878,330L731,328L728,305L703,309L695.391,420.856L683.413,414.05ZM674.294,415.77L699,472L706,455L729,479L732.5,475.5L710,451.5L727.5,446L674.294,415.77ZM504.426,373.121L474.667,371.024L476.324,380.886L504.426,373.121ZM513.285,359.463L483.982,329.911L477.584,340.113L513.285,359.463ZM524.448,347.447L530,320.149L518.821,320L524.448,347.447Z" style="fill:white;"/>
    </g>
</svg>
