<?xml version="1.0" encoding="UTF-8" standalone="no"?>
<!DOCTYPE svg PUBLIC "-//W3C//DTD SVG 1.1//EN" "http://www.w3.org/Graphics/SVG/1.1/DTD/svg11.dtd">
<svg width="100%" height="100%" viewBox="0 0 1000 1000" version="1.1" xmlns="http://www.w3.org/2000/svg" xmlns:xlink="http://www.w3.org/1999/xlink" xml:space="preserve" xmlns:serif="http://www.serif.com/" style="fill-rule:evenodd;clip-rule:evenodd;stroke-linejoin:round;stroke-miterlimit:2;">
    <g transform="matrix(11.25,0,0,11.25,-9400,-4787.5)">
        <path d="M890,490L870,490L870,510L890,510L890,490ZM870,470L850,470L850,490L870,490L870,470ZM910,470L890,470L890,490L910,490L910,470ZM890,450L870,450L870,470L890,470L890,450ZM870,430L850,430L850,450L870,450L870,430ZM910,430L890,430L890,450L910,450L910,430ZM908.5,431.5L891.5,431.5L891.5,448.5L908.5,448.5L908.5,431.5Z" style="fill:white;"/>
    </g>
</svg>
