<?xml version="1.0" encoding="UTF-8" standalone="no"?>
<!DOCTYPE svg PUBLIC "-//W3C//DTD SVG 1.1//EN" "http://www.w3.org/Graphics/SVG/1.1/DTD/svg11.dtd">
<svg width="100%" height="100%" viewBox="0 0 1000 1000" version="1.1" xmlns="http://www.w3.org/2000/svg" xmlns:xlink="http://www.w3.org/1999/xlink" xml:space="preserve" xmlns:serif="http://www.serif.com/" style="fill-rule:evenodd;clip-rule:evenodd;stroke-linejoin:round;stroke-miterlimit:2;">
    <g transform="matrix(1.55172,0,0,1.55172,-276.867,-275.862)">
        <path d="M476.569,354.354C472.078,351.995 466.571,350.425 460,350C480.374,305.388 490.674,257.836 500,210L500.438,212.242C509.649,259.319 519.944,306.084 540,350C533.429,350.425 527.922,351.995 523.431,354.354C560.049,360.207 592.188,379.561 614.574,407.145C614.411,402.008 613.019,396.363 610.051,390.359C658.111,385.771 703.758,371.303 749.134,355.742L751.295,355C714.53,386.994 678.499,419.691 650.051,459.641C646.346,454.084 642.166,450.064 637.812,447.354C644.07,463.705 647.5,481.455 647.5,500C647.5,519.318 643.778,537.774 637.013,554.687C642.013,552.008 646.838,547.677 651.051,541.359C679.055,580.686 714.408,612.984 750.572,644.5L752.295,646C706.204,630.158 659.873,615.302 611.051,610.641C614.457,603.752 615.786,597.337 615.568,591.618C593.146,619.856 560.599,639.701 523.431,645.646C527.922,648.005 533.429,649.575 540,650C519.944,693.916 509.649,740.681 500.438,787.758L500,790C490.674,742.164 480.374,694.612 460,650C466.571,649.575 472.078,648.005 476.569,645.646C440.12,639.82 408.108,620.617 385.735,593.235C385.954,598.271 387.349,603.784 390.244,609.641C341.422,614.302 295.09,629.158 249,645L250.723,643.5C286.887,611.984 322.24,579.686 350.244,540.359C353.838,545.75 357.879,549.695 362.094,552.4C355.894,536.107 352.5,518.447 352.5,500C352.5,482.408 355.586,465.531 361.251,449.871C357.703,452.494 354.311,456.041 351.244,460.641C322.796,420.691 286.765,387.994 250,356L252.161,356.742C297.537,372.303 343.183,386.771 391.244,391.359C388.81,396.282 387.437,400.962 386.931,405.321C409.236,378.713 440.759,360.081 476.569,354.354ZM606.615,571.946C585.077,603.784 549.658,625.478 509.073,628.313C509.191,628.737 509.321,629.163 509.465,629.594C510.268,631.995 511.415,634.317 512.917,636.483C553.872,632.647 589.613,610.765 612.098,578.885C611.116,577.107 609.954,575.472 608.646,573.994C607.984,573.246 607.308,572.564 606.615,571.946ZM393.485,572.093C393.203,572.382 392.924,572.682 392.648,572.994C390.947,574.917 389.492,577.106 388.36,579.53C410.877,611.065 446.408,632.673 487.083,636.483C488.585,634.317 489.732,631.995 490.535,629.594C490.679,629.163 490.809,628.737 490.927,628.313C450.405,625.481 415.033,603.85 393.485,572.093ZM398.744,568.114C397.987,568.508 397.251,568.958 396.532,569.467C417.468,600.569 452.044,621.734 491.657,624.357C491.734,623.48 491.75,622.617 491.708,621.764C453.005,619.161 419.224,598.484 398.744,568.114ZM601.051,568.416C580.548,598.625 546.861,619.173 508.292,621.764C508.25,622.617 508.266,623.48 508.343,624.357C547.911,621.735 582.453,600.616 603.392,569.58C602.633,569.134 601.854,568.747 601.051,568.416ZM508.885,382.078C510.484,388.218 515.121,394.064 522,401L500,450L478,401C484.879,394.064 489.516,388.218 491.115,382.078C454.026,384.838 421.678,404.738 401.978,433.869C408.379,436.201 416.185,435.142 426.411,432.447L457.846,476L404.411,470.553C401.635,460.361 398.652,453.077 393.443,448.697C385.95,464.216 381.748,481.621 381.748,500C381.748,518.405 385.962,535.833 393.475,551.369C398.057,546.92 400.823,539.946 403.411,530.447L456.846,525L425.411,568.553C415.907,566.048 408.494,564.957 402.357,566.687C422.094,595.518 454.266,615.181 491.115,617.922C489.516,611.782 484.879,605.936 478,599L500,550L522,599C515.121,605.936 510.484,611.782 508.885,617.922C545.479,615.198 577.457,595.79 597.232,567.284C591.435,566.167 584.523,567.276 575.884,569.553L544.449,526L597.884,531.447C600.242,540.103 602.748,546.662 606.642,551.126C614.083,535.648 618.252,518.307 618.252,500C618.252,481.674 614.074,464.315 606.62,448.827C602.157,453.284 599.434,460.192 596.884,469.553L543.449,475L574.884,431.447C584.259,433.918 591.6,435.013 597.69,433.381C577.952,404.512 545.763,384.823 508.885,382.078ZM624.661,442.934C622.083,442.734 619.547,442.904 617.112,443.4C616.623,443.5 616.146,443.611 615.683,443.733C623.973,460.727 628.629,479.824 628.629,500C628.629,520.417 623.861,539.73 615.38,556.884C616.245,557.166 617.154,557.405 618.112,557.6C620.073,557.999 622.1,558.188 624.162,558.141C632.45,540.493 637.086,520.784 637.086,500C637.086,479.64 632.637,460.311 624.661,442.934ZM384.01,444.366C375.909,461.211 371.371,480.08 371.371,500C371.371,520.197 376.036,539.314 384.35,556.334C383.97,556.43 383.581,556.519 383.183,556.6C380.651,557.115 378.01,557.279 375.327,557.041C367.359,539.675 362.914,520.352 362.914,500C362.914,480.109 367.16,461.202 374.793,444.139C377.941,443.68 381.049,443.783 384.01,444.366ZM611.903,445.099C611.107,445.476 610.354,445.899 609.639,446.367C617.582,462.559 622.043,480.763 622.043,500C622.043,519.325 617.542,537.607 609.533,553.849C610.22,554.375 610.946,554.854 611.713,555.285C619.982,538.626 624.633,519.852 624.633,500C624.633,480.299 620.053,461.66 611.903,445.099ZM387.916,445.47C388.743,445.785 389.528,446.143 390.274,446.545C382.387,462.687 377.957,480.83 377.957,500C377.957,519.298 382.446,537.556 390.432,553.777C389.712,554.234 388.953,554.646 388.152,555.013C379.967,538.418 375.367,519.742 375.367,500C375.367,480.451 379.877,461.947 387.916,445.47ZM491.657,375.643C491.734,376.52 491.75,377.383 491.708,378.236C452.88,380.845 419,401.652 398.535,432.198C397.814,431.752 397.112,431.251 396.426,430.691C417.343,399.509 451.972,378.273 491.657,375.643ZM508.343,375.643C508.266,376.52 508.25,377.383 508.292,378.236C547.039,380.842 580.854,401.564 601.331,431.998C602.094,431.614 602.837,431.174 603.562,430.673C582.638,399.496 548.016,378.27 508.343,375.643ZM512.917,363.517C511.415,365.683 510.268,368.005 509.465,370.406C509.321,370.837 509.191,371.263 509.073,371.687C549.669,374.524 585.096,396.229 606.636,428.085C606.977,427.742 607.313,427.382 607.646,427.006C609.29,425.149 610.703,423.043 611.817,420.718C589.314,389.05 553.697,367.334 512.917,363.517ZM487.083,363.517C488.585,365.683 489.732,368.005 490.535,370.406C490.679,370.837 490.809,371.263 490.927,371.687C450.428,374.514 415.07,396.126 393.519,427.858C391.532,425.58 389.89,422.936 388.715,419.974C411.25,388.709 446.623,367.307 487.083,363.517Z" style="fill:white;"/>
    </g>
</svg>
