<?xml version="1.0" encoding="UTF-8" standalone="no"?>
<!DOCTYPE svg PUBLIC "-//W3C//DTD SVG 1.1//EN" "http://www.w3.org/Graphics/SVG/1.1/DTD/svg11.dtd">
<svg width="100%" height="100%" viewBox="0 0 1000 1000" version="1.1" xmlns="http://www.w3.org/2000/svg" xmlns:xlink="http://www.w3.org/1999/xlink" xml:space="preserve" xmlns:serif="http://www.serif.com/" style="fill-rule:evenodd;clip-rule:evenodd;stroke-linejoin:round;stroke-miterlimit:2;">
    <g transform="matrix(2.25559,0,0,2.25559,-87.5721,-740.575)">
        <path d="M101.702,533.472C110.91,604.496 171.695,659.43 245.209,659.43C325.079,659.43 389.924,594.585 389.924,514.715C389.924,440.404 333.792,379.099 261.649,370.926C267.675,370.314 273.801,370 280,370C379.345,370 460,450.655 460,550C460,649.345 379.345,730 280,730C180.655,730 100,649.345 100,550C100,544.491 100.248,539.039 100.734,533.649L80.712,549.666C80.21,550.068 79.51,550.111 78.963,549.774C78.415,549.438 78.138,548.794 78.27,548.165L83.668,522.401L61.678,507.933C61.141,507.58 60.883,506.928 61.034,506.303C61.185,505.679 61.712,505.216 62.351,505.147L88.522,502.32L95.486,476.935C95.656,476.315 96.197,475.869 96.837,475.819C97.478,475.77 98.081,476.128 98.344,476.714L109.12,500.73L135.415,499.509C136.057,499.48 136.648,499.856 136.893,500.45C137.138,501.044 136.984,501.728 136.508,502.16L116.997,519.83L126.284,544.46C126.51,545.061 126.335,545.74 125.846,546.157C125.357,546.573 124.659,546.638 124.101,546.318L101.702,533.472Z" style="fill:white;"/>
    </g>
</svg>
