<?xml version="1.0" encoding="UTF-8" standalone="no"?>
<!DOCTYPE svg PUBLIC "-//W3C//DTD SVG 1.1//EN" "http://www.w3.org/Graphics/SVG/1.1/DTD/svg11.dtd">
<svg width="100%" height="100%" viewBox="0 0 1000 1000" version="1.1" xmlns="http://www.w3.org/2000/svg" xmlns:xlink="http://www.w3.org/1999/xlink" xml:space="preserve" xmlns:serif="http://www.serif.com/" style="fill-rule:evenodd;clip-rule:evenodd;stroke-linejoin:round;stroke-miterlimit:2;">
    <g transform="matrix(0.975984,0,0,0.975984,12.0082,12.0082)">
        <path d="M961.073,163.691L163.288,934.103L87.83,855.964L86.056,857.672C-25.401,744.249 77.665,549.303 220.12,550.929C231.806,551.063 289.841,405.204 445.226,454.922L450.751,461.535L752.09,186.14L765.095,199.411L774.262,190.558L761.217,176.468C762.283,167.384 769.775,153.468 786.831,132.357C789.206,129.981 785.049,127.984 776.739,126.228C774.468,117.021 778.05,114.189 786.962,117.164C787.248,121.04 788.874,124.283 795.364,125.224C801.638,123.056 804.772,116.867 808.406,109.828C808.109,107.117 803.883,106.305 798.014,106.286C798.515,96.077 803.279,90.644 813.979,91.863C813.79,100.084 815.066,103.713 817.674,103.159C822.253,97.857 827.086,92.681 832.316,87.702C832.041,85.026 828.049,82.789 820.975,80.917C820.796,71.827 824.042,67.334 834.059,71.928C832.389,77.33 833.263,80.697 837.68,81.232L855.308,65.897C860.055,73.517 869.006,78.439 881.969,80.784C881.928,82.64 882.141,84.357 882.597,85.94L884.353,84.244L961.073,163.691ZM161.931,876.362L151.159,886.765L105.308,839.285L91.556,852.565L165.099,928.72L189.623,905.037L161.931,876.362ZM217.926,877.706L190.234,849.03L184.923,854.158L139.073,806.679L122.19,822.982L168.041,870.461L165.71,872.713L193.401,901.389L217.926,877.706ZM172.576,774.407L155.968,790.39L201.806,837.855L193.861,845.527L221.553,874.203L246.077,850.52L172.576,774.407ZM246.839,794.367L237.556,803.331L191.778,755.927L176.512,770.619L250.007,846.726L274.531,823.043L246.839,794.367ZM302.834,795.711L275.142,767.035L269.335,772.643L223.61,725.293L208.689,739.653L254.439,787.028L251.114,790.239L278.806,818.914L302.834,795.711ZM330.985,768.525L303.293,739.85L300.12,742.914L254.446,695.617L240.52,709.019L286.217,756.34L279.417,762.907L307.109,791.583L330.985,768.525ZM286.471,664.796L271.356,679.343L317.002,726.611L307.568,735.722L335.26,764.397L359.785,740.714L286.471,664.796ZM360.547,684.561L349.774,694.964L304.182,647.752L290.407,661.008L363.714,736.92L388.239,713.237L360.547,684.561ZM416.541,685.905L388.849,657.229L383.539,662.358L337.688,614.878L327.13,625.074C327.227,625.18 327.324,625.284 327.421,625.388L321.092,631.478L366.656,678.661L364.325,680.912L392.017,709.588L416.541,685.905ZM392.476,653.727L420.168,682.403L444.693,658.72L371.15,582.564L354.57,598.575L400.421,646.055L392.476,653.727ZM445.455,602.566L436.172,611.531L390.321,564.051L375.08,578.77L448.622,654.925L473.147,631.242L445.455,602.566ZM501.449,603.91L473.757,575.235L467.95,580.843L422.554,533.834L415.444,540.677C415.298,540.521 415.152,540.366 415.006,540.213L407.203,547.748L453.054,595.228L449.729,598.438L477.421,627.114L501.449,603.91ZM413.631,538.816C402.843,528.197 388.176,521.605 371.978,521.463C338.512,521.171 311.101,548.526 310.805,582.512C310.668,598.236 316.358,612.642 325.825,623.609L413.631,538.816ZM529.601,576.725L501.909,548.049L498.735,551.114L453.39,504.157L439.464,517.56L484.832,564.54L478.032,571.107L505.724,599.782L529.601,576.725ZM485.416,473.337L470.301,487.883L515.618,534.81L506.184,543.921L533.875,572.597L558.4,548.914L485.416,473.337ZM559.162,492.76L548.389,503.163L503.127,456.293L489.352,469.549L562.329,545.119L586.854,521.436L559.162,492.76ZM615.156,494.105L587.465,465.429L582.154,470.557L536.947,423.744L520.037,440.018L565.272,486.86L562.94,489.112L590.632,517.788L615.156,494.105ZM570.465,391.488L553.857,407.47L599.036,454.254L591.092,461.926L618.784,490.602L643.308,466.919L570.465,391.488ZM644.07,410.766L634.787,419.73L589.667,373.008L574.401,387.7L647.237,463.124L671.762,439.441L644.07,410.766ZM700.065,412.11L672.373,383.434L666.565,389.042L621.499,342.374L606.578,356.734L651.669,403.427L648.345,406.638L676.037,435.313L700.065,412.11ZM728.216,384.924L700.524,356.249L697.351,359.313L652.335,312.698L638.409,326.1L683.448,372.739L676.647,379.306L704.339,407.982L728.216,384.924ZM684.361,281.877L669.245,296.424L714.233,343.01L704.799,352.12L732.491,380.796L757.015,357.113L684.361,281.877ZM757.777,300.96L747.005,311.363L702.071,264.833L688.297,278.089L760.945,353.319L785.469,329.636L757.777,300.96ZM813.772,302.304L786.08,273.628L780.769,278.757L735.892,232.285L718.981,248.559L763.887,295.06L761.555,297.311L789.247,325.987L813.772,302.304ZM766.467,200.811L767.5,201.866L752.802,216.011L797.651,262.454L789.707,270.126L817.399,298.802L841.923,275.119L768.381,198.963L766.467,200.811ZM833.402,227.93L788.612,181.548L776.612,193.096L775.594,191.997L772.31,195.168L845.853,271.324L870.377,247.641L842.685,218.965L833.402,227.93ZM865.181,197.241L820.443,150.914L805.522,165.274L850.285,211.627L846.96,214.837L874.652,243.513L898.68,220.309L870.988,191.634L865.181,197.241ZM895.966,167.512L851.28,121.238L837.353,134.64L882.063,180.938L875.263,187.505L902.955,216.181L926.831,193.124L899.139,164.448L895.966,167.512ZM883.305,90.418L868.19,104.964L912.848,151.209L903.414,160.32L931.106,188.996L955.63,165.313L883.305,90.418Z" style="fill:white;"/>
    </g>
</svg>
