<?xml version="1.0" encoding="UTF-8" standalone="no"?>
<!DOCTYPE svg PUBLIC "-//W3C//DTD SVG 1.1//EN" "http://www.w3.org/Graphics/SVG/1.1/DTD/svg11.dtd">
<svg width="100%" height="100%" viewBox="0 0 1000 1000" version="1.1" xmlns="http://www.w3.org/2000/svg" xmlns:xlink="http://www.w3.org/1999/xlink" xml:space="preserve" xmlns:serif="http://www.serif.com/" style="fill-rule:evenodd;clip-rule:evenodd;stroke-linejoin:round;stroke-miterlimit:2;">
    <g transform="matrix(0.984946,0,0,0.984946,-9.5452,8.9479)">
        <path d="M539.792,41.68L588.873,439.524C589.036,440.85 589.998,441.939 591.294,442.266C592.589,442.593 593.953,442.091 594.726,441.001L828.076,112.216C828.076,112.216 888.311,813.135 888.311,813.135C888.311,813.135 483.594,955.435 483.594,955.435C483.594,955.435 175.452,704.246 146.356,680.528L539.792,41.68ZM463.264,684.769C464.158,684.415 464.848,683.682 465.147,682.768C465.447,681.854 465.325,680.855 464.814,680.04C450.204,656.733 432.629,641.254 412.325,633.122C382.026,620.989 345.49,625.209 303.237,644.936C302.309,645.369 301.641,646.215 301.435,647.218C301.229,648.221 301.51,649.262 302.192,650.026C324.209,674.687 348.759,689.572 375.671,695.211C402.518,700.836 431.758,697.253 463.264,684.769ZM396.747,639.529C416.389,644.467 433.125,657.082 446.884,677.692C427.853,684.781 409.839,687.953 392.872,687.015C396.201,670.239 397.677,654.945 396.747,639.529L396.747,639.529ZM363.22,680.751C347.841,674.884 333.514,664.969 320.244,650.911C336.777,643.573 352.222,639.101 366.548,637.648C362.849,652.508 362.072,665.764 363.219,680.751L363.22,680.751Z" style="fill:white;"/>
    </g>
</svg>
