<?xml version="1.0" encoding="UTF-8" standalone="no"?>
<!DOCTYPE svg PUBLIC "-//W3C//DTD SVG 1.1//EN" "http://www.w3.org/Graphics/SVG/1.1/DTD/svg11.dtd">
<svg width="100%" height="100%" viewBox="0 0 1000 1000" version="1.1" xmlns="http://www.w3.org/2000/svg" xmlns:xlink="http://www.w3.org/1999/xlink" xml:space="preserve" xmlns:serif="http://www.serif.com/" style="fill-rule:evenodd;clip-rule:evenodd;stroke-linejoin:round;stroke-miterlimit:2;">
    <g transform="matrix(14.8895,0,0,14.8895,-6426.93,-7205.32)">
        <path d="M465.445,490.002C472.162,490.055 477.293,491.327 483,495C485.418,494.212 488.006,493.735 491,494C491.679,496.756 492.097,499.697 492,503C500.571,522.729 493.668,544.77 465.445,544.998L465.445,545C465.371,545 465.297,545 465.223,544.999C465.149,545 465.074,545 465,545L465,544.998C436.777,544.77 429.874,522.729 438.445,503C438.348,499.697 438.766,496.756 439.445,494C442.439,493.735 445.027,494.212 447.445,495C453.153,491.327 458.284,490.055 465,490.002L465,490C465.074,490 465.148,490 465.223,490C465.297,490 465.371,490 465.445,490L465.445,490.002ZM465.223,541.487C467.071,541.268 467.883,538.328 467.989,535.926C468.647,535.992 469.284,535.931 469.866,535.718C470.787,535.381 471.571,534.692 472.086,533.548C472.113,533.501 472.096,533.441 472.048,533.414C472.001,533.387 471.941,533.404 471.914,533.452C471.291,534.369 470.516,534.848 469.668,535.027C469.096,535.147 468.497,535.105 467.879,534.962C467.448,534.863 467.013,534.706 466.573,534.513C466.154,534.33 465.73,534.12 465.315,533.869C465.284,533.85 465.253,533.831 465.223,533.812C465.192,533.831 465.161,533.85 465.131,533.869C464.715,534.12 464.292,534.33 463.872,534.513C463.432,534.706 462.997,534.863 462.566,534.962C461.949,535.105 461.349,535.147 460.777,535.027C459.929,534.848 459.154,534.369 458.531,533.452C458.505,533.404 458.445,533.387 458.397,533.414C458.35,533.441 458.333,533.501 458.359,533.548C458.874,534.692 459.658,535.381 460.579,535.718C461.161,535.931 461.799,535.992 462.457,535.926C462.562,538.328 463.374,541.268 465.223,541.487ZM491.39,524.78C491.53,524.606 491.537,524.361 491.408,524.179C487.779,519.064 483.959,516.462 479.999,516.417C476.052,516.373 471.907,518.877 467.612,524.152C467.459,524.341 467.463,524.612 467.622,524.795C471.605,529.388 475.592,531.798 479.542,531.872C483.501,531.946 487.467,529.683 491.39,524.78ZM439.055,524.78C438.915,524.606 438.908,524.361 439.037,524.179C442.666,519.064 446.487,516.462 450.446,516.417C454.394,516.373 458.538,518.877 462.833,524.152C462.986,524.341 462.982,524.612 462.823,524.795C458.84,529.388 454.853,531.798 450.904,531.872C446.944,531.946 442.978,529.683 439.055,524.78ZM465.293,529L465.152,529C464.51,529.002 464.153,529.038 464.151,529.5C464.147,530.339 464.511,530.612 465.223,530.91C465.934,530.612 466.298,530.339 466.295,529.5C466.292,529.038 465.935,529.002 465.293,529ZM489.182,522.909C487.001,527.995 482.852,530.059 480,530.048C476.945,530.036 472.124,528.149 470.378,522.527C473.697,519.079 476.888,517.382 479.988,517.417C483.178,517.453 486.228,519.329 489.182,522.909ZM441.264,522.909C443.444,527.995 447.593,530.059 450.445,530.048C453.501,530.036 458.321,528.149 460.068,522.527C456.748,519.079 453.557,517.382 450.458,517.417C447.267,517.453 444.217,519.329 441.264,522.909Z" style="fill:white;"/>
    </g>
</svg>
