<?xml version="1.0" encoding="UTF-8" standalone="no"?>
<!DOCTYPE svg PUBLIC "-//W3C//DTD SVG 1.1//EN" "http://www.w3.org/Graphics/SVG/1.1/DTD/svg11.dtd">
<svg width="100%" height="100%" viewBox="0 0 1000 1000" version="1.1" xmlns="http://www.w3.org/2000/svg" xmlns:xlink="http://www.w3.org/1999/xlink" xml:space="preserve" xmlns:serif="http://www.serif.com/" style="fill-rule:evenodd;clip-rule:evenodd;stroke-linejoin:round;stroke-miterlimit:2;">
    <g transform="matrix(1.47539,0,0,1.47539,-237.697,-141.796)">
        <path d="M385.965,546.544C261.6,583.736 199.448,543.375 200,431.087C200.558,317.464 256.834,283.236 385.921,318.548C350.608,189.462 384.836,130.558 498.459,130C610.643,129.449 651.033,194.141 614.016,318.259C737.239,281.85 800.55,322.339 800,434.168C799.444,547.356 741.936,581.755 614.053,547.119C651.014,671.136 610.616,740.551 498.459,740C384.783,739.441 350.577,675.755 385.965,546.544ZM500,306.314C569.714,306.314 626.314,362.913 626.314,432.627C626.314,502.342 569.714,558.941 500,558.941C430.286,558.941 373.686,502.342 373.686,432.627C373.686,362.913 430.286,306.314 500,306.314Z" style="fill:white;"/>
    </g>
</svg>
