<?xml version="1.0" encoding="UTF-8" standalone="no"?>
<!DOCTYPE svg PUBLIC "-//W3C//DTD SVG 1.1//EN" "http://www.w3.org/Graphics/SVG/1.1/DTD/svg11.dtd">
<svg width="100%" height="100%" viewBox="0 0 1000 1000" version="1.1" xmlns="http://www.w3.org/2000/svg" xmlns:xlink="http://www.w3.org/1999/xlink" xml:space="preserve" xmlns:serif="http://www.serif.com/" style="fill-rule:evenodd;clip-rule:evenodd;stroke-linejoin:round;stroke-miterlimit:2;">
    <g transform="matrix(0.997444,0,0,0.997444,1.27792,1.27792)">
        <path d="M133.652,372.713C132.153,372.473 130.658,372.226 129.169,371.975L127.71,371.726C119.716,367.016 111.804,361.752 104.02,355.619C91.946,354.901 82.286,347.454 74.931,333.587L68.144,327.972L73.657,298.26L117.397,296.385L126.384,243.824L167.939,235.313L171.42,186.822L224.588,179.294L225.051,136.459L280.859,131.194L276.346,78.78L294.218,85.496C294.218,85.496 311.63,84.686 323.703,93.196C333.025,99.766 337.951,115.672 337.951,115.672C337.951,115.672 348.594,121.756 353.883,127.461C363.456,118.193 376.54,115.337 391.362,115.654C423.326,107.745 439.467,125.262 442.613,163.661C454.585,173.137 466.016,183.574 472.618,202.582C500.001,218.219 502.977,240.196 488.289,266.762L484.601,279.027L489.11,299.341C499.018,311.149 505.957,323.615 511.575,336.375C537.448,332.644 553.279,342.164 549.271,377.862L554.172,383.896C552.649,387.06 551.068,390.217 549.425,393.375C578.727,427.082 609.908,460.116 648.491,484.035C705.25,519.222 764.158,552.592 821.436,587.565C822.189,587.57 822.957,587.574 823.726,587.578C851.289,604.849 869.97,618.349 874.998,626.052L888.574,623.039C914.951,623.475 933.204,635.268 940.147,662.87L951.153,680.368C877.964,792.747 788.481,874.237 686.541,932.11C642.611,925.105 623.412,903.033 629.092,865.808L628.235,865.006C591.978,831.016 556.491,789.371 521.76,740.227C480.633,682.613 442.27,640.329 404.854,603.283L403.97,602.408L363.004,554.525C331.087,557.623 323.972,539.594 324.868,514.743L306.409,502.989C306.739,502.163 307.067,501.337 307.391,500.517C277.986,489.321 249.903,475.446 225.116,456.351C192.658,431.347 162.73,402.119 133.652,372.713ZM669.199,918.155C663.27,911.506 657.46,904.909 651.74,898.351C646.019,891.792 640.389,885.273 634.82,878.78C634.065,900.326 642.286,915.684 669.199,918.155ZM637.708,858.667C710.488,806.201 782.455,742.884 847.087,660.735C708.614,664.344 564.503,644.431 418.633,606.898C455.219,642.502 491.127,682.645 527.728,732.91C561.867,783.026 598.042,826.521 637.708,858.667ZM838.59,782.886C841.739,797.071 830.913,811.557 814.43,815.216C797.946,818.875 782.008,810.329 778.859,796.145C775.711,781.96 786.537,767.474 803.02,763.815C819.503,760.157 835.442,768.702 838.59,782.886ZM890.08,629.826C896.805,639.131 903.739,646.811 910.888,652.832C918.037,658.853 925.4,663.215 932.982,665.884C937.914,644.261 906.086,622.899 890.08,629.826ZM848.968,610.36C858.909,616.165 863.524,626.796 859.267,634.087C855.01,641.377 843.482,642.583 833.541,636.778C823.6,630.973 818.985,620.341 823.242,613.051C827.499,605.76 839.026,604.555 848.968,610.36ZM651.121,604.525C653.812,616.649 646.154,628.677 634.03,631.368C621.906,634.059 609.878,626.401 607.187,614.277C604.495,602.153 612.154,590.125 624.278,587.434C636.402,584.743 648.43,592.401 651.121,604.525ZM415.237,556.633C427.791,561.613 435.101,572.923 431.551,581.872C428,590.821 414.925,594.043 402.371,589.062C389.817,584.082 382.507,572.772 386.057,563.823C389.607,554.874 402.682,551.652 415.237,556.633ZM802.35,587.321C743.963,549.753 694.306,522.057 645.773,491.76C606.374,467.164 573.962,433.608 545.402,400.877C518.888,448.89 478.511,495.198 421.331,539.442C547.758,566.925 674.667,584.91 802.35,587.321ZM356.886,548.719C334.408,550.089 328.487,538.006 331.292,518.832L357.151,548.702L356.886,548.719ZM309.98,493.842C325.106,454.177 335.296,415.112 340.814,376.614C268.325,383.139 202.795,382.576 144.755,374.388C175.026,405.58 204.01,433.594 232.903,454.623C258.592,473.32 284.545,486.201 309.98,493.842ZM343.621,456.296C354.347,452.115 365.545,455.107 368.61,462.973C371.676,470.839 365.456,480.619 354.73,484.799C344.004,488.98 332.807,485.988 329.741,478.122C326.676,470.256 332.895,460.476 343.621,456.296ZM487.521,445.028C490.213,457.152 482.554,469.18 470.43,471.872C458.306,474.563 446.278,466.904 443.587,454.78C440.896,442.656 448.554,430.628 460.678,427.937C472.802,425.246 484.83,432.904 487.521,445.028ZM381.264,468.614C422.668,435.175 461.235,397.336 496.261,354.018C465.93,359.893 436.511,364.838 408.034,368.827C402.074,401.17 392.942,434.493 381.264,468.614ZM521.71,340.878C519.598,340.882 517.33,341.032 514.905,341.333L544.974,374.542C545.177,372.945 545.341,371.343 545.445,369.735C545.526,368.486 545.572,367.234 545.574,365.982C545.576,365.037 545.552,364.092 545.499,363.149C545.459,362.437 545.402,361.725 545.326,361.016C544.901,357.067 543.867,353.091 541.696,349.724C541.392,349.253 541.067,348.796 540.722,348.356C540.217,347.713 539.667,347.105 539.077,346.54C538.18,345.681 537.189,344.923 536.131,344.273C534.477,343.257 532.667,342.512 530.8,341.989C527.889,341.172 524.853,340.884 521.837,340.877L521.71,340.878ZM190.557,335.755C201.874,332.646 213.264,338.138 215.977,348.012C218.69,357.886 211.705,368.427 200.388,371.537C189.071,374.646 177.68,369.154 174.968,359.28C172.255,349.405 179.24,338.864 190.557,335.755ZM406.696,331.167C409.387,343.291 401.729,355.319 389.605,358.01C377.481,360.701 365.453,353.043 362.762,340.919C360.071,328.795 367.729,316.767 379.853,314.075C391.977,311.384 404.005,319.043 406.696,331.167ZM109.615,354.377C116.122,353.656 121.501,347.092 121.229,337.555C121.066,331.849 118.881,325.079 113.704,317.859C111.36,314.589 108.478,312.415 105.384,311.076C97.303,307.578 87.779,309.776 82.63,313.019C77.894,316.003 75.185,321.644 75.685,329.859C84.934,343.735 96.287,351.786 109.615,354.377ZM475.93,327.822C473.785,319.059 477.53,310.601 484.287,308.948C491.045,307.294 498.272,313.067 500.416,321.83C502.561,330.594 498.816,339.051 492.059,340.705C485.301,342.358 478.074,336.586 475.93,327.822ZM61.886,322.239C51.626,310.272 47.281,296.993 50.81,281.965C75.493,276.13 88.271,258.996 89.284,230.693L100.826,215.312C122.224,216.458 136.207,204.349 141.332,176.408L151.139,162.836C175.876,163.091 189.15,148.474 193.381,122.123L205.449,112.322C223.281,106.937 239.268,97.527 247.691,71.609C255.567,70.781 262.642,72.429 268.806,76.893L272.564,125.913L216.757,131.178L218.274,170.098L163.973,182.151L160.173,229.202L119.447,238.242L109.631,290.275L67.399,292.527L61.886,322.239ZM195.898,316.38C237.595,317.006 281.782,316.014 328.43,313.423C334.16,313.104 339.928,312.762 345.732,312.395C346.181,265.115 339.574,218.699 326.424,173.079C287.467,228.437 243.184,274.923 195.898,316.38ZM484.208,299.717L480.429,282.688C458.534,250.488 433.447,222.548 404.37,199.926C414.022,233.794 417.352,269.588 415.464,306.997C437.997,304.947 461.028,302.57 484.561,299.867L484.208,299.717ZM180.901,274.455C183.811,287.567 175.529,300.575 162.417,303.485C149.306,306.396 136.298,298.113 133.387,285.002C130.477,271.89 138.759,258.882 151.871,255.972C164.982,253.062 177.99,261.344 180.901,274.455ZM85.89,231.447C84.137,244.922 79.989,255.863 73.818,263.602C67.647,271.34 59.452,275.874 49.605,276.535C45.787,252.721 56.166,235.913 85.89,231.447ZM492.421,232.066C490.475,223.478 484.566,215.871 474.804,209.219L486.254,260.804C490.418,253.541 493.576,245.295 493.085,236.791C492.997,235.269 492.786,233.758 492.466,232.268L492.421,232.066ZM236.343,219.417C239.253,232.529 230.971,245.536 217.86,248.447C204.748,251.357 191.74,243.075 188.83,229.963C185.92,216.852 194.202,203.844 207.313,200.933C220.425,198.023 233.433,206.305 236.343,219.417ZM137.185,173.768C134.19,187.578 129.348,197.175 122.914,203.138C116.481,209.101 108.455,211.431 99.092,210.711C100.765,188.85 112.792,175.955 137.185,173.768ZM409.742,174.58C415.687,167.794 428.597,169.367 438.554,178.089C448.51,186.812 451.766,199.404 445.821,206.19C439.876,212.976 426.965,211.403 417.009,202.681C407.053,193.958 403.796,181.366 409.742,174.58ZM293.595,166.113C296.505,179.225 288.223,192.233 275.112,195.143C262,198.053 248.992,189.771 246.082,176.66C243.171,163.548 251.454,150.54 264.565,147.63C277.677,144.72 290.685,153.002 293.595,166.113ZM353.465,155.227C358.185,149.839 369.642,152.145 379.033,160.372C388.424,168.6 392.216,179.654 387.496,185.042C382.776,190.429 371.319,188.124 361.928,179.896C352.537,171.668 348.745,160.614 353.465,155.227ZM188.29,123.253C186.388,134.787 181.909,143.426 175.172,149.527C168.435,155.629 159.438,159.192 148.5,160.573C141.924,127.059 158.079,117.691 188.29,123.253ZM405.987,118.92C401.843,118.932 397.33,119.528 392.473,120.663L436.54,153.334C436.398,151.762 436.216,150.193 435.982,148.632C435.795,147.381 435.575,146.135 435.316,144.897C435.122,143.969 434.907,143.047 434.668,142.13C434.487,141.438 434.292,140.748 434.081,140.064C432.603,135.256 430.339,130.598 426.864,126.909C426.217,126.222 425.531,125.571 424.808,124.964C423.77,124.09 422.657,123.307 421.484,122.624C419.701,121.585 417.785,120.783 415.806,120.203C412.662,119.283 409.382,118.924 406.113,118.92L405.987,118.92ZM336.969,120.876C327.821,135.11 312.308,132.848 301.334,124.217C290.36,115.586 283.926,100.586 292.935,89.342C312.18,89.063 328.414,95.899 336.969,120.876ZM379.353,112.892C364.884,105.03 350.869,103.166 337.199,105.868C338.764,108.607 340.088,111.399 341.194,114.24C345.625,116.547 349.723,119.246 353.635,122.162C361.351,116.792 370.033,113.994 379.353,112.892ZM243.393,68.29C239.379,79.721 233.68,88.608 226.573,95.367C219.466,102.127 210.95,106.759 201.302,109.681C199.069,78.24 213.965,65.382 243.393,68.29Z" style="fill:white;"/>
    </g>
</svg>
