<?xml version="1.0" encoding="UTF-8" standalone="no"?>
<!DOCTYPE svg PUBLIC "-//W3C//DTD SVG 1.1//EN" "http://www.w3.org/Graphics/SVG/1.1/DTD/svg11.dtd">
<svg width="100%" height="100%" viewBox="0 0 1000 1000" version="1.1" xmlns="http://www.w3.org/2000/svg" xmlns:xlink="http://www.w3.org/1999/xlink" xml:space="preserve" xmlns:serif="http://www.serif.com/" style="fill-rule:evenodd;clip-rule:evenodd;stroke-linejoin:round;stroke-miterlimit:2;">
    <g transform="matrix(1.34197,0,0,1.34197,-170.871,-228.197)">
        <path d="M499.914,698.877C499.914,698.877 508.562,709.683 516.448,708.645C520.064,708.169 523.187,706.365 525.408,703.777C528.608,714.503 533.946,725.363 541.893,736.381L500,755.5L457.935,736.381C465.881,725.363 471.219,714.503 474.42,703.777C476.64,706.365 479.764,708.169 483.379,708.645C491.265,709.683 499.914,698.877 499.914,698.877ZM528.297,698.541C528.907,696.563 529.111,694.421 528.823,692.229C531.884,699.709 540.331,703.282 547.675,700.203C550.344,699.084 552.502,697.24 554.021,694.986C556.09,695.976 558.464,696.894 561.138,697.733C567.635,699.774 575.962,701.424 585.899,702.725C595.886,734.535 580.041,743.015 546.258,735.292C537.041,722.842 531.284,710.61 528.297,698.541ZM471.531,698.541C470.92,696.563 470.716,694.421 471.005,692.229C467.944,699.709 459.496,703.282 452.152,700.203C449.483,699.084 447.325,697.24 445.807,694.986C443.738,695.976 441.363,696.894 438.689,697.733C432.193,699.774 423.866,701.424 413.928,702.725C403.941,734.535 419.786,743.015 453.569,735.292C462.786,722.842 468.544,710.61 471.531,698.541ZM511.643,463.752C512.932,463.541 514.271,463.513 515.628,463.691C522.978,464.659 528.211,471.339 527.59,478.774C529.029,475.773 531.411,473.51 534.218,472.202C537.671,470.472 541.805,470.199 545.627,471.801C552.637,474.74 555.98,482.889 553.137,490.043C553.495,489.6 553.874,489.185 554.272,488.799C559.119,483.854 566.934,483.197 572.505,487.538C577.93,491.764 579.398,499.304 576.286,505.268C575.976,505.91 575.613,506.534 575.197,507.136C581.261,502.551 589.836,503.733 594.43,509.828C597.092,513.359 597.843,517.778 596.852,521.799C596.263,524.606 594.831,527.241 592.609,529.272C599.483,526.838 607.105,530.243 609.908,537.154C610.676,539.048 611.006,541.017 610.945,542.945C610.985,548.073 608.248,552.967 603.616,555.453C610.51,555.145 616.621,560.097 617.798,567.072C617.875,567.436 617.938,567.804 617.988,568.178C618.947,575.464 614.237,582.178 607.318,583.731C611.859,584.812 615.425,588.123 617.023,592.346C617.992,594.608 618.39,597.154 618.057,599.77C617.113,607.182 610.641,612.476 603.401,611.946C605.585,613.108 607.35,614.804 608.605,616.809C611.227,620.623 611.947,625.667 610.081,630.269C607.196,637.382 599.205,640.781 592.18,637.921C592.501,638.201 592.807,638.493 593.098,638.797C598.202,643.701 598.949,651.829 594.603,657.594C590.119,663.542 581.845,664.811 575.812,660.608C575.625,660.49 575.441,660.367 575.258,660.24C579.846,666.41 578.702,675.19 572.678,679.884C568.482,683.154 563.014,683.588 558.498,681.491C556.669,680.752 554.978,679.608 553.567,678.077C555.933,685.054 552.583,692.777 545.8,695.621C542.87,696.849 539.757,696.976 536.908,696.188C533.149,695.365 529.786,692.964 527.806,689.399C528.028,696.528 522.902,702.796 515.801,703.731C514.696,703.876 513.603,703.885 512.541,703.769C506.571,703.456 501.414,699.222 499.914,693.281C498.412,699.223 493.256,703.456 487.286,703.769C486.224,703.885 485.132,703.876 484.026,703.731C476.925,702.796 471.8,696.528 472.021,689.399C470.041,692.964 466.678,695.365 462.919,696.188C460.07,696.976 456.957,696.849 454.027,695.621C447.244,692.777 443.895,685.054 446.261,678.077C444.849,679.608 443.158,680.752 441.329,681.491C436.814,683.588 431.345,683.154 427.149,679.884C421.125,675.19 419.981,666.41 424.569,660.24C424.387,660.367 424.202,660.49 424.016,660.608C417.982,664.811 409.708,663.542 405.224,657.594C400.879,651.829 401.626,643.701 406.73,638.797C407.02,638.493 407.326,638.201 407.648,637.921C400.622,640.781 392.632,637.382 389.747,630.269C387.88,625.667 388.601,620.623 391.223,616.809C392.477,614.805 394.242,613.108 396.426,611.946C389.186,612.476 382.714,607.182 381.77,599.77C381.437,597.154 381.836,594.608 382.804,592.346C384.402,588.124 387.968,584.813 392.509,583.731C385.59,582.178 380.88,575.464 381.84,568.178C381.889,567.804 381.952,567.436 382.029,567.072C383.206,560.097 389.318,555.145 396.211,555.453C391.579,552.967 388.843,548.074 388.882,542.945C388.821,541.017 389.151,539.048 389.919,537.154C392.722,530.243 400.344,526.838 407.218,529.272C404.997,527.241 403.564,524.606 402.975,521.799C401.984,517.778 402.735,513.359 405.397,509.828C409.992,503.733 418.566,502.551 424.631,507.136C424.215,506.535 423.852,505.911 423.541,505.268C420.43,499.304 421.898,491.764 427.322,487.538C432.893,483.197 440.709,483.854 445.556,488.799C445.954,489.185 446.333,489.6 446.69,490.043C443.848,482.889 447.19,474.74 454.2,471.801C458.022,470.199 462.156,470.472 465.61,472.202C468.417,473.511 470.798,475.774 472.237,478.774C471.616,471.339 476.849,464.659 484.199,463.691C485.557,463.513 486.895,463.541 488.184,463.752C493.943,464.515 498.752,468.937 499.914,474.914C501.076,468.936 505.884,464.516 511.643,463.752ZM581.21,673.516C588.247,676.645 597.957,679.811 610.099,683.001C609.593,688.032 605.179,693.213 588.506,698.862C577.946,697.563 569.153,695.883 562.386,693.758C559.91,692.98 557.716,692.158 555.825,691.275C556.866,688.057 556.819,684.453 555.435,681.072C560.293,687.5 569.352,688.732 575.654,683.822C578.974,681.235 580.871,677.454 581.21,673.516ZM418.617,673.516C411.58,676.645 401.87,679.811 389.729,683.001C390.234,688.032 394.648,693.213 411.321,698.862C421.881,697.563 430.675,695.883 437.441,693.758C439.917,692.98 442.112,692.158 444.002,691.275C442.961,688.057 443.009,684.453 444.392,681.072C439.535,687.5 430.475,688.732 424.174,683.822C420.853,681.235 418.957,677.454 418.617,673.516ZM601.318,649.892C617.188,652.484 633.074,653.567 647.521,653.151C647.744,663.908 631.598,671.857 612.07,679.225C598.497,675.705 587.977,672.224 580.86,668.769C580.399,666.834 579.541,664.962 578.27,663.279C584.593,668.217 593.647,667.025 598.476,660.619C600.869,657.445 601.779,653.582 601.318,649.892ZM398.509,649.892C382.639,652.484 366.754,653.567 352.307,653.151C352.083,663.908 368.23,671.857 387.757,679.225C401.33,675.705 411.85,672.224 418.967,668.769C419.428,666.834 420.287,664.962 421.558,663.279C415.235,668.217 406.18,667.025 401.351,660.619C398.958,657.445 398.048,653.582 398.509,649.892ZM567.349,624.446C553.879,646.657 529.731,661.687 502.045,662.396C502.07,662.268 502.083,662.135 502.083,662L502.083,643.71L551.549,615.152L567.349,624.446ZM432.896,624.848C433.248,624.837 433.602,624.736 433.922,624.538L448.774,615.338L497.917,643.71L497.917,662C497.917,662.135 497.93,662.268 497.955,662.396C470.439,661.695 446.414,646.84 432.896,624.848ZM615.58,624.938C630.02,621.941 641.069,617.056 648.35,610.165C653.962,612.104 661.745,612.865 670.969,612.905C675.616,612.925 680.639,612.768 685.937,612.506C690.398,627.418 673.635,638.778 649.598,648.92C634.247,649.536 617.104,648.381 600.049,645.457C599.097,643.403 597.663,641.542 595.77,640.064C603.128,643.176 611.56,639.641 614.588,632.175C615.549,629.805 615.851,627.322 615.58,624.938ZM384.247,624.938C369.807,621.941 358.758,617.056 351.478,610.165C345.866,612.104 338.082,612.865 328.858,612.905C324.211,612.925 319.188,612.768 313.89,612.506C309.429,627.418 326.192,638.778 350.229,648.92C365.58,649.536 382.724,648.381 399.778,645.457C400.73,643.403 402.165,641.542 404.057,640.064C396.7,643.176 388.268,639.641 385.239,632.175C384.278,629.805 383.976,627.322 384.247,624.938ZM500,526.191L549.325,554.669C549.325,554.669 549.325,611.624 549.325,611.624C549.325,611.624 500,640.102 500,640.102C500,640.102 450.675,611.624 450.675,611.624C450.675,611.624 450.675,554.669 450.675,554.669L500,526.191ZM432.095,543.906L446.509,553.815L446.509,611.84L431.728,620.996C431.441,621.173 431.213,621.409 431.049,621.679C424.829,610.416 421.289,597.473 421.289,583.711C421.289,569.193 425.228,555.587 432.095,543.906ZM620.182,589.823C633.628,586.487 644.826,582.45 653.745,577.72C657.956,601.6 643.385,615.069 614.546,620.924C613.122,617.47 610.41,614.56 606.744,613.009C614.635,614.082 621.87,608.445 622.891,600.428C623.388,596.524 622.32,592.77 620.182,589.823ZM379.645,589.823C366.199,586.487 355.001,582.45 346.082,577.72C341.871,601.6 356.442,615.069 385.281,620.924C386.705,617.47 389.417,614.56 393.083,613.009C385.193,614.082 377.958,608.445 376.937,600.428C376.439,596.524 377.507,592.77 379.645,589.823ZM569.391,546.55C575.337,557.62 578.711,570.275 578.711,583.711C578.711,597.13 575.346,609.77 569.415,620.827L553.491,611.46L553.491,555.551L569.021,546.816C569.157,546.74 569.281,546.65 569.391,546.55ZM725.23,571.392C727.166,585.382 717.311,597.85 690.273,608.103C683.377,608.502 676.879,608.764 670.987,608.738C663.236,608.705 656.565,608.194 651.487,606.783C653.07,604.829 654.395,602.737 655.455,600.505C658.526,594.038 659.435,586.375 657.92,577.415C684.423,580.098 705.644,576.845 725.23,571.392ZM274.597,571.392C272.661,585.382 282.516,597.85 309.554,608.103C316.45,608.502 322.949,608.764 328.84,608.738C336.591,608.705 343.262,608.194 348.34,606.783C346.757,604.829 345.432,602.737 344.372,600.505C341.301,594.038 340.392,586.375 341.907,577.415C315.404,580.098 294.183,576.845 274.597,571.392ZM607.883,554.283C635.833,550.058 657.629,541.737 673.106,529.677C675.911,537.685 676.25,544.938 674.092,551.462C671.742,558.564 666.458,564.763 658.411,570.16C648.533,576.786 634.572,582.164 616.681,586.386C614.873,585.129 612.758,584.272 610.444,583.957C618.33,582.919 623.875,575.563 622.819,567.542C621.763,559.52 614.503,553.85 606.617,554.888C607.053,554.706 607.476,554.503 607.883,554.283ZM391.944,554.283C363.994,550.058 342.198,541.737 326.721,529.677C323.916,537.685 323.577,544.938 325.735,551.462C328.085,558.564 333.37,564.763 341.416,570.16C351.294,576.786 365.255,582.164 383.146,586.386C384.954,585.129 387.069,584.272 389.383,583.957C381.498,582.919 375.953,575.563 377.009,567.542C378.065,559.52 385.325,553.85 393.21,554.888C392.774,554.706 392.352,554.503 391.944,554.283ZM755.051,524.924L755,525C760.483,536.593 747.324,550.849 730.092,565.687C709.883,571.831 688.225,575.922 660.819,573.504C671.798,566.118 678.022,557.292 679.392,547.046C713.97,540.836 737.749,533.203 755.051,524.924ZM244.776,524.924L244.827,525C239.344,536.593 252.503,550.849 269.735,565.687C289.944,571.831 311.602,575.922 339.008,573.504C328.03,566.118 321.805,557.292 320.435,547.046C285.858,540.836 262.078,533.203 244.776,524.924ZM501.958,505.024C529.695,505.704 553.891,520.759 567.372,543.013C567.238,543.056 567.106,543.113 566.979,543.184L552.182,551.507L502.083,522.583L502.083,505.736C502.083,505.486 502.039,505.246 501.958,505.024ZM498.042,505.024C497.961,505.246 497.917,505.486 497.917,505.736L497.917,522.583L449.279,550.664L434.304,540.368C448.055,519.574 471.417,505.676 498.042,505.024ZM600.285,526.696C605.829,519.937 610.646,513.398 614.797,507.074C615.003,507.094 615.215,507.084 615.428,507.039C652.596,499.233 680,486.862 697.118,469.736C697.248,478.283 696.203,486.038 693.993,493.176C693.177,493.626 692.738,494.588 692.985,495.53C693.015,495.642 693.053,495.75 693.099,495.853C690.983,501.756 688.034,507.234 684.26,512.395C670.803,530.791 646.966,543.163 613.285,549.172C615.678,545.291 616.244,540.321 614.377,535.757C611.965,529.865 606.211,526.397 600.285,526.696ZM399.542,526.696C393.998,519.937 389.182,513.398 385.03,507.074C384.825,507.094 384.612,507.084 384.399,507.039C347.231,499.233 319.827,486.862 302.709,469.736C302.58,478.283 303.624,486.038 305.834,493.176C306.65,493.626 307.09,494.588 306.842,495.53C306.813,495.642 306.774,495.75 306.728,495.853C308.844,501.756 311.793,507.234 315.568,512.395C329.024,530.791 352.861,543.163 386.543,549.172C384.149,545.291 383.583,540.321 385.451,535.757C387.862,529.865 393.617,526.397 399.542,526.696ZM775.258,465.803C779.628,480.186 771.887,498.355 759.575,517.949C742.302,527.248 717.686,535.86 679.682,542.759C679.701,537.774 678.649,532.478 676.516,526.871C680.762,523.18 684.465,519.171 687.623,514.855C691.701,509.279 694.879,503.186 697.14,496.589C734.01,486.77 757.825,475.994 775.258,465.803ZM224.57,465.803C220.199,480.186 227.941,498.355 240.252,517.949C257.525,527.248 282.141,535.86 320.146,542.759C320.127,537.774 321.179,532.478 323.311,526.871C319.065,523.18 315.362,519.171 312.205,514.855C308.126,509.279 304.948,503.186 302.687,496.589C265.817,486.77 242.002,475.994 224.57,465.803ZM591.717,502.413C610.667,473.729 624.894,447.327 610,435C594.365,439.824 593.371,428.556 592.983,420C592.713,414.061 610.106,397.905 628.591,418.371C631.352,426.629 632.874,435.503 632.659,445.074C632.185,466.217 623.258,490.688 600.786,519.41C601.69,515.311 600.86,510.841 598.14,507.241C596.422,504.968 594.178,503.344 591.717,502.413ZM408.11,502.413C389.16,473.729 374.933,447.327 389.827,435C405.462,439.824 406.456,428.556 406.845,420C407.115,414.061 389.722,397.905 371.237,418.371C368.476,426.629 366.953,435.503 367.168,445.074C367.642,466.217 376.57,490.688 399.041,519.41C398.138,515.311 398.967,510.841 401.687,507.241C403.405,504.968 405.649,503.344 408.11,502.413ZM713.015,404.539C692.561,413.004 675.167,422.778 661.944,432.28C648.411,442.004 639.27,451.368 635.893,458.726C635.755,459.027 635.555,459.279 635.313,459.474C632.873,472.531 627.379,486.744 617.859,502.253C687.046,486.973 720.463,455.304 713.015,404.539ZM286.812,404.539C307.267,413.004 324.661,422.778 337.884,432.28C351.416,442.004 360.557,451.368 363.934,458.726C364.072,459.027 364.273,459.279 364.514,459.474C366.954,472.531 372.449,486.744 381.968,502.253C312.781,486.973 279.364,455.304 286.812,404.539ZM814.991,410.027C810.414,424.485 799.814,439.325 785.56,454.397C767.781,466.352 742.973,479.815 698.573,491.888C700.757,483.75 701.634,474.9 701.18,465.36C704.765,461.189 707.791,456.76 710.253,452.068C710.332,452.058 710.412,452.044 710.491,452.025C762.687,439.368 792.519,425.735 814.991,410.027ZM184.836,410.027C189.414,424.485 200.014,439.325 214.267,454.397C232.046,466.352 256.855,479.815 301.254,491.888C299.071,483.75 298.193,474.9 298.648,465.36C295.062,461.189 292.036,456.76 289.574,452.068C289.495,452.058 289.416,452.044 289.336,452.025C237.14,439.368 207.308,425.735 184.836,410.027ZM499.827,405L500,405L545,430L532,470L531.994,470.057C530.452,471.468 529.19,473.242 528.347,475.32C529.368,467.303 523.791,459.923 515.9,458.849C508.478,457.84 501.635,462.768 500,470.031L500,470L499.827,470.031C498.192,462.768 491.35,457.84 483.927,458.849C476.036,459.923 470.459,467.303 471.48,475.32C470.637,473.242 469.375,471.468 467.833,470.057L467.827,470L454.827,430L499.827,405ZM632.576,417.151C651.781,396.676 685.79,376.512 730,365.826C800.944,348.677 830.56,313.342 834.598,338.541C816.312,354.403 785.711,377.722 749.449,387.676C711.971,397.964 680.548,413.78 659.512,428.896C649.288,436.243 641.505,443.462 636.592,449.823C636.714,448.254 636.791,446.702 636.825,445.167C637.05,435.129 635.463,425.818 632.576,417.151ZM367.251,417.151C348.047,396.676 314.038,376.512 269.827,365.826C198.883,348.677 169.267,313.342 165.229,338.541C183.515,354.403 214.117,377.722 250.379,387.676C287.856,397.964 319.279,413.78 340.315,428.896C350.539,436.243 358.323,443.462 363.235,449.823C363.114,448.254 363.037,446.702 363.002,445.167C362.777,435.129 364.364,425.818 367.251,417.151ZM835.107,343.588C836.187,361.335 830.664,380.66 819.861,401.25C797.208,418.698 767.879,433.543 712.551,447.23C718.012,434.443 719.553,419.853 717.06,403.413C717.035,403.25 716.992,403.095 716.933,402.948C727.428,398.772 738.682,394.953 750.551,391.694C786.078,381.942 816.292,359.627 835.107,343.588ZM164.72,343.588C163.641,361.335 169.163,380.66 179.966,401.25C202.619,418.698 231.949,433.543 287.276,447.23C281.815,434.443 280.274,419.853 282.768,403.413C282.792,403.25 282.835,403.095 282.894,402.948C272.4,398.772 261.145,394.953 249.276,391.694C213.749,381.942 183.535,359.627 164.72,343.588Z" style="fill:white;"/>
    </g>
</svg>
