<?xml version="1.0" encoding="UTF-8" standalone="no"?>
<!DOCTYPE svg PUBLIC "-//W3C//DTD SVG 1.1//EN" "http://www.w3.org/Graphics/SVG/1.1/DTD/svg11.dtd">
<svg width="100%" height="100%" viewBox="0 0 1000 1000" version="1.1" xmlns="http://www.w3.org/2000/svg" xmlns:xlink="http://www.w3.org/1999/xlink" xml:space="preserve" xmlns:serif="http://www.serif.com/" style="fill-rule:evenodd;clip-rule:evenodd;stroke-linejoin:round;stroke-miterlimit:2;">
    <g transform="matrix(4.33143,0,0,4.33143,-825.759,-197.83)">
        <path d="M323.211,219.135C387.285,160.647 410.392,109.42 391,79.991C384.583,70.252 374.014,66.468 360,65.756C315.926,63.515 257.862,88.49 203,129C223.532,111.14 241.971,97.663 262,87.641C315.249,60.998 376.885,43.445 400,71.453C403.768,76.018 407.172,80.785 408.091,86C415.421,127.587 384.6,170.458 326.799,222.284L325.927,223.295L359.25,225.75L325.927,228.205L347.754,253.504L322.455,231.677L320,265L317.545,231.677L292.246,253.504L314.073,228.205L280.75,225.75L314.073,223.295L292.246,197.996L317.545,219.823L320,186.5L322.455,219.823L323.211,219.135Z" style="fill:white;"/>
    </g>
</svg>
