<?xml version="1.0" encoding="UTF-8" standalone="no"?>
<!DOCTYPE svg PUBLIC "-//W3C//DTD SVG 1.1//EN" "http://www.w3.org/Graphics/SVG/1.1/DTD/svg11.dtd">
<svg width="100%" height="100%" viewBox="0 0 1000 1000" version="1.1" xmlns="http://www.w3.org/2000/svg" xmlns:xlink="http://www.w3.org/1999/xlink" xml:space="preserve" xmlns:serif="http://www.serif.com/" style="fill-rule:evenodd;clip-rule:evenodd;stroke-linejoin:round;stroke-miterlimit:2;">
    <path d="M202.113,118.134L202.113,50L50,50L50,202.113L118.134,202.113L118.134,797.887L50,797.887L50,950L202.113,950L202.113,881.866L797.887,881.866L797.887,950L950,950L950,797.887L881.866,797.887L881.866,202.113L950,202.113L950,50L797.887,50L797.887,118.134L202.113,118.134ZM797.887,133.979L202.113,133.979L202.113,202.113L133.979,202.113L133.979,797.887L202.113,797.887L202.113,866.021L797.887,866.021L797.887,797.887L866.021,797.887L866.021,202.113L797.887,202.113L797.887,133.979ZM785.379,146.487L785.379,214.621L853.513,214.621C853.513,214.621 853.513,700.691 853.513,785.379C853.513,785.379 785.379,785.379 785.379,785.379L785.379,853.513C785.379,853.513 299.309,853.513 214.621,853.513C214.621,853.513 214.621,785.379 214.621,785.379L146.487,785.379C146.487,785.379 146.487,214.621 146.487,214.621C146.487,214.621 214.621,214.621 214.621,214.621L214.621,146.487C292.277,146.487 707.723,146.487 785.379,146.487L785.379,146.487ZM458.314,468.082C442.296,447.762 424.985,418.341 408.743,381.352C376.301,307.468 355.737,220.722 353.465,166.386C336.74,219.604 353.988,333.017 393.298,422.541C410.787,462.372 429.846,491.102 447.397,506.738C421.755,503.659 388.84,495.108 351.373,480.504C276.189,451.2 200.31,404.403 160.282,367.588C186.086,417.045 278.477,485.044 369.576,520.551C410.457,536.485 444.481,543.305 467.968,541.797C447.636,557.866 418.137,575.243 381.016,591.542C307.132,623.984 220.387,644.548 166.05,646.82C219.268,663.546 332.681,646.297 422.205,606.988C462.192,589.43 490.99,570.291 506.587,552.679C503.487,578.305 494.941,611.146 480.376,648.517C451.072,723.7 404.274,799.58 367.459,839.608C416.917,813.804 484.915,721.413 520.423,630.313C536.179,589.887 543.024,556.165 541.715,532.71C557.664,553.02 574.88,582.328 591.038,619.126C623.48,693.01 644.044,779.756 646.316,834.092C663.041,780.874 645.793,667.461 606.484,577.937C588.635,537.287 569.151,508.2 551.303,492.793C577.129,495.735 610.524,504.328 648.627,519.179C723.811,548.483 799.69,595.28 839.718,632.095C813.914,582.638 721.523,514.639 630.424,479.132C589.72,463.268 555.814,456.438 532.334,457.868C552.642,441.959 581.878,424.803 618.554,408.699C692.438,376.257 779.183,355.693 833.52,353.421C780.302,336.695 666.889,353.944 577.365,393.253C537.75,410.648 509.116,429.594 493.426,447.064C496.55,421.484 505.087,388.734 519.606,351.483C548.91,276.3 595.707,200.42 632.522,160.392C583.065,186.196 515.066,278.587 479.559,369.687C463.623,410.572 456.804,444.6 458.314,468.082ZM500,485.597C507.949,485.597 514.403,492.051 514.403,500C514.403,507.949 507.949,514.403 500,514.403C492.051,514.403 485.597,507.949 485.597,500C485.597,492.051 492.051,485.597 500,485.597Z" style="fill:white;"/>
</svg>
