<?xml version="1.0" encoding="UTF-8" standalone="no"?>
<!DOCTYPE svg PUBLIC "-//W3C//DTD SVG 1.1//EN" "http://www.w3.org/Graphics/SVG/1.1/DTD/svg11.dtd">
<svg width="100%" height="100%" viewBox="0 0 1000 1000" version="1.1" xmlns="http://www.w3.org/2000/svg" xmlns:xlink="http://www.w3.org/1999/xlink" xml:space="preserve" xmlns:serif="http://www.serif.com/" style="fill-rule:evenodd;clip-rule:evenodd;stroke-linejoin:round;stroke-miterlimit:2;">
    <g transform="matrix(16.8349,0,0,16.8349,-7962.62,-7439.97)">
        <path d="M497.346,452.992C496.79,452.463 496.217,451.977 495.625,451.536C495.329,451.329 495.257,450.921 495.464,450.625C495.671,450.329 496.079,450.257 496.375,450.464C497.031,450.894 497.674,451.37 498.301,451.893C500.474,448.751 503.142,446.614 506.309,445.595C510.14,444.363 514.702,444.765 520,447C515.018,454.709 508.638,456.437 501.558,455.17C501.931,455.616 502.298,456.081 502.658,456.564C503.755,458.034 504.79,459.677 505.761,461.481C506.293,462.47 506.805,463.51 507.291,464.598C507.968,466.117 508.6,467.728 509.193,469.424C510.215,472.346 511.117,475.516 511.945,478.899C512.35,478.844 512.764,478.815 513.185,478.815C518.254,478.815 522.369,482.931 522.369,488C522.369,493.069 518.254,497.185 513.185,497.185C508.115,497.185 504,493.069 504,488C504,483.862 506.743,480.359 510.509,479.212C509.523,475.959 508.466,472.919 507.361,470.103C506.723,468.475 506.067,466.924 505.397,465.451C504.921,464.404 504.441,463.395 503.95,462.427C503.064,460.682 502.143,459.075 501.166,457.621C500.483,456.604 499.778,455.661 499.044,454.796C499.599,457.823 499.794,460.872 499.626,463.942C499.493,466.386 499.139,468.843 498.565,471.297C498.014,473.653 497.251,476.004 496.339,478.355C496.05,479.1 495.744,479.845 495.423,480.588C498.896,481.899 501.369,485.255 501.369,489.185C501.369,494.254 497.254,498.369 492.185,498.369C487.115,498.369 483,494.254 483,489.185C483,484.115 487.115,480 492.185,480C492.706,480 493.218,480.044 493.716,480.127C494.021,479.322 494.311,478.518 494.586,477.715C495.377,475.408 496.02,473.11 496.543,470.828C497.084,468.474 497.487,466.136 497.705,463.8C498.006,460.583 497.991,457.376 497.525,454.167C497.483,453.943 497.451,453 497.346,452.992Z" style="fill:white;"/>
    </g>
</svg>
