<?xml version="1.0" encoding="UTF-8" standalone="no"?>
<!DOCTYPE svg PUBLIC "-//W3C//DTD SVG 1.1//EN" "http://www.w3.org/Graphics/SVG/1.1/DTD/svg11.dtd">
<svg width="100%" height="100%" viewBox="0 0 1000 1000" version="1.1" xmlns="http://www.w3.org/2000/svg" xmlns:xlink="http://www.w3.org/1999/xlink" xml:space="preserve" xmlns:serif="http://www.serif.com/" style="fill-rule:evenodd;clip-rule:evenodd;stroke-linejoin:round;stroke-miterlimit:2;">
    <g transform="matrix(1.01124,0,0,1.01124,-5.61798,-5.61798)">
        <path d="M235,882L405,882L405,635.5L235,635.5L235,882ZM595,882L765,882L765,635.5L595,635.5L595,882ZM775,882L945,882L945,635.5L775,635.5L775,882ZM55,882L225,882L225,635.5L55,635.5L55,882ZM415,882L585,882L585,635.5L415,635.5L415,882ZM599.25,877.75L760.75,877.75L760.75,639.75L599.25,639.75L599.25,877.75ZM239.25,877.75L400.75,877.75L400.75,639.75L239.25,639.75L239.25,877.75ZM779.25,877.75L940.75,877.75L940.75,639.75L779.25,639.75L779.25,877.75ZM419.25,877.75L580.75,877.75L580.75,639.75L419.25,639.75L419.25,877.75ZM59.25,877.75L220.75,877.75L220.75,639.75L59.25,639.75L59.25,877.75ZM425.739,870.844L574.261,870.844L574.261,646.656L425.739,646.656L425.739,870.844ZM245.739,870.844L394.261,870.844L394.261,646.656L245.739,646.656L245.739,870.844ZM785.739,870.844L934.261,870.844L934.261,646.656L785.739,646.656L785.739,870.844ZM65.739,870.844L214.261,870.844L214.261,646.656L65.739,646.656L65.739,870.844ZM605.739,870.844L754.261,870.844L754.261,646.656L605.739,646.656L605.739,870.844ZM55,622L225,622L225,375.5L55,375.5L55,622ZM235,622L405,622L405,375.5L235,375.5L235,622ZM415,622L585,622L585,375.5L415,375.5L415,622ZM595,622L765,622L765,375.5L595,375.5L595,622ZM59.25,617.75L220.75,617.75L220.75,379.75L59.25,379.75L59.25,617.75ZM239.25,617.75L400.75,617.75L400.75,379.75L239.25,379.75L239.25,617.75ZM419.25,617.75L580.75,617.75L580.75,379.75L419.25,379.75L419.25,617.75ZM599.25,617.75L760.75,617.75L760.75,379.75L599.25,379.75L599.25,617.75ZM65.739,610.844L214.261,610.844L214.261,386.656L65.739,386.656L65.739,610.844ZM245.739,610.844L394.261,610.844L394.261,386.656L245.739,386.656L245.739,610.844ZM425.739,610.844L574.261,610.844L574.261,386.656L425.739,386.656L425.739,610.844ZM605.739,610.844L754.261,610.844L754.261,386.656L605.739,386.656L605.739,610.844ZM60,364.5L230,364.5L230,118L60,118L60,364.5ZM240,364.5L410,364.5L410,118L240,118L240,364.5ZM420,364.5L590,364.5L590,118L420,118L420,364.5ZM64.25,360.25L225.75,360.25L225.75,122.25L64.25,122.25L64.25,360.25ZM244.25,360.25L405.75,360.25L405.75,122.25L244.25,122.25L244.25,360.25ZM424.25,360.25L585.75,360.25L585.75,122.25L424.25,122.25L424.25,360.25ZM250.739,353.344L399.261,353.344L399.261,129.156L250.739,129.156L250.739,353.344ZM70.739,353.344L219.261,353.344L219.261,129.156L70.739,129.156L70.739,353.344ZM430.739,353.344L579.261,353.344L579.261,129.156L430.739,129.156L430.739,353.344Z" style="fill:white;"/>
    </g>
</svg>
