<?xml version="1.0" encoding="UTF-8" standalone="no"?>
<!DOCTYPE svg PUBLIC "-//W3C//DTD SVG 1.1//EN" "http://www.w3.org/Graphics/SVG/1.1/DTD/svg11.dtd">
<svg width="100%" height="100%" viewBox="0 0 1000 1000" version="1.1" xmlns="http://www.w3.org/2000/svg" xmlns:xlink="http://www.w3.org/1999/xlink" xml:space="preserve" xmlns:serif="http://www.serif.com/" style="fill-rule:evenodd;clip-rule:evenodd;stroke-linejoin:round;stroke-miterlimit:2;">
    <g transform="matrix(6.03037,0,0,6.03037,-2853.03,-2848.43)">
        <path d="M531.118,618.448C530.593,619.076 525.472,618.602 524.395,617.299C523.391,616.086 519.74,616.503 519.74,616.503C517.389,617.312 513.636,617.787 513.845,624.9C514.025,631.034 533.52,622.04 531.118,618.448ZM581.849,617.42C578.416,616.983 573.95,616.99 572.442,617.918C570.984,618.816 569.17,618.82 567.602,619.41C564.263,623.789 581.002,625.797 586.547,621.307C588.126,620.028 581.849,617.42 581.849,617.42ZM514.785,595.487C509.622,601.787 507.237,608.79 505.528,615.964C507.655,614.841 524.318,614.117 527.707,615.714C532.875,618.149 544.845,615.521 544.845,615.521L547.977,609.025L559.264,617.545C559.264,617.545 567.192,618.754 570.256,616.726C572.434,615.285 576.762,615.247 581.249,615.908C584.223,616.346 590.243,615.238 590.243,615.238C587.712,607.85 584.649,600.537 581.118,593.289C569.602,602.49 558.235,601.488 547.052,587.95C539.865,600.545 529.054,602.901 514.785,595.487ZM509.582,587.154C517.153,596.276 526.232,597.301 532.096,596.537C538.495,595.704 543.067,590.534 546.222,582.008C551.469,592.433 560.93,597.207 568.404,596.235C574.553,595.434 582.66,591.53 587.024,581.357L572.606,579.332C563.842,582.544 555.143,582.94 546.51,580.453C534.198,577.922 527.642,573.935 521.794,569.77C519.308,576.019 515.374,581.853 509.582,587.154ZM555.377,502.981C532.597,499.278 507.806,523.83 509.995,546.68C511.417,561.532 523.521,571.864 546.824,578.879C590.873,592.139 607.755,511.497 555.377,502.981ZM583.464,566.709C581.522,570.43 578.86,573.758 575.795,576.867C573.301,580.784 626.481,578.154 630.427,563.178C632.209,556.413 622.688,546.806 617.803,552.32C612.586,558.21 585.762,566.719 583.464,566.709ZM552.263,507.881C528.317,515.936 518.998,531.36 519.467,545.582C519.936,559.804 530.191,572.823 545.392,576.066C570.958,581.52 604.207,541.002 552.263,507.881ZM551.806,510.548C529.363,517.914 520.851,533.006 521.741,546.601C522.63,560.196 532.922,572.294 548.087,573.67C574.557,576.072 597.231,539.164 551.806,510.548ZM518.972,567.64L518.892,570.68C490.381,553.435 479.326,510.938 481.718,496.106C483.873,482.744 502.38,478.447 503.23,491.081C503.704,498.138 510.329,527.449 510.329,527.449C505,542.281 505.739,556.053 518.972,567.64ZM532.719,546.721C532.712,546.761 532.705,546.8 532.699,546.84C532.462,548.344 532.595,549.893 532.844,551.456C533.537,550.235 534.178,549.002 534.6,547.726L534.629,547.741C535.725,548.299 536.84,548.823 537.972,549.307C539.081,549.782 540.207,550.218 541.346,550.616L541.361,550.622C541.379,551.833 541.599,553.052 541.893,554.275C542.369,553.259 542.812,552.239 543.134,551.203C546.021,552.093 548.942,552.711 551.895,553.069C552.052,553.676 552.245,554.281 552.458,554.884C552.654,554.321 552.842,553.756 553.006,553.192C556.375,553.525 559.787,553.522 563.238,553.197C563.386,553.704 563.565,554.209 563.762,554.712C563.983,554.168 564.193,553.624 564.374,553.079C566.46,552.841 568.562,552.486 570.678,552.018C570.864,553.106 571.274,554.167 571.761,555.217C572.174,553.989 572.53,552.764 572.646,551.551C573.812,551.256 574.984,550.927 576.16,550.564C574.994,550.591 573.835,550.606 572.685,550.607C572.665,549.439 572.374,548.285 571.645,547.156C570.915,548.349 570.604,549.489 570.572,550.595C568.679,550.571 566.806,550.512 564.955,550.417C565.051,549.167 564.85,547.915 564.145,546.659C563.277,547.898 562.902,549.105 562.843,550.293C559.709,550.086 556.636,549.776 553.622,549.366C553.612,548.155 553.366,546.94 552.755,545.718C552.062,546.852 551.693,547.967 551.552,549.068C550.83,548.957 550.11,548.841 549.393,548.719C547.452,548.387 545.535,548.013 543.643,547.596C543.597,546.808 543.437,546.007 543.128,545.187C542.617,545.857 542.237,546.533 541.963,547.213C539.632,546.663 537.341,546.048 535.086,545.369C535.154,544.444 535.07,543.489 534.78,542.492C534.11,543.243 533.624,544.017 533.282,544.808C530.631,543.96 528.033,543.021 525.487,541.992C527.871,543.787 530.282,545.361 532.719,546.721ZM565.904,529.654C568.32,530.076 570.156,533.062 568.927,535.254C568.475,536.061 568.192,536.941 567.484,537.432C565.669,538.69 564.487,538.991 563.327,538.277C561.212,536.975 559.593,535.056 560.304,532.676C560.709,531.323 561.797,530.725 562.909,529.802C563.674,529.167 564.85,529.469 565.904,529.654ZM537.98,526.616C540.352,525.994 543.264,527.946 543.059,530.45C542.984,531.371 543.093,532.29 542.653,533.031C541.526,534.931 540.577,535.696 539.225,535.529C536.76,535.225 534.489,534.155 534.146,531.695C533.95,530.295 534.69,529.299 535.318,527.997C535.75,527.102 536.944,526.887 537.98,526.616Z" style="fill:white;"/>
    </g>
</svg>
