<?xml version="1.0" encoding="UTF-8" standalone="no"?>
<!DOCTYPE svg PUBLIC "-//W3C//DTD SVG 1.1//EN" "http://www.w3.org/Graphics/SVG/1.1/DTD/svg11.dtd">
<svg width="100%" height="100%" viewBox="0 0 1000 1000" version="1.1" xmlns="http://www.w3.org/2000/svg" xmlns:xlink="http://www.w3.org/1999/xlink" xml:space="preserve" xmlns:serif="http://www.serif.com/" style="fill-rule:evenodd;clip-rule:evenodd;stroke-linejoin:round;stroke-miterlimit:2;">
    <g transform="matrix(5.97796,0,0,5.91292,-2570.11,-2237.06)">
        <path d="M532.181,454.285C534.629,454.534 537.077,454.669 539.526,454.708C538.937,466.978 538.063,477.978 538.66,488C539.953,509.723 540.28,525.455 540,539C530.144,503.315 525.915,473.41 532.181,454.285ZM494.963,454.285C492.515,454.534 490.067,454.669 487.618,454.708C488.207,466.978 489.081,477.978 488.484,488C487.191,509.723 486.864,525.455 487.144,539C496.999,503.315 501.229,473.41 494.963,454.285ZM494.177,446.709C491.973,446.58 489.761,446.781 487.538,447.439L487.538,452.418C489.748,452.383 491.958,452.269 494.167,452.06L494.144,452L494.144,447C494.155,446.903 494.166,446.806 494.177,446.709ZM532.967,446.709C535.171,446.58 537.383,446.781 539.606,447.439L539.606,452.418C537.396,452.383 535.186,452.269 532.977,452.06L533,452L533,447C532.988,446.903 532.978,446.806 532.967,446.709ZM493.986,444.403C491.286,444.28 488.575,444.612 485.848,445.578C482.655,442.625 480.992,439.328 480.751,435.711L480.241,435.59L479.761,435.469L478.856,435.226L478.354,435.082L477.416,434.798L476.897,434.632L476.224,434.408L475.411,434.122L474.899,433.933L473.443,433.362L471.961,432.721L470.853,432.197L470.06,431.796L468.897,431.16L467.882,430.55L467.183,430.094L466.384,429.528L466.016,429.247L465.292,428.65L464.97,428.361L464.334,427.736L464.063,427.439C464.011,427.381 463.96,427.323 463.911,427.265C464.655,427.205 465.402,427.173 466.154,427.178C468.838,427.197 471.568,427.7 474.296,429.192C476.257,430.265 478.524,430.509 480.919,430.505L482.071,430.486L483.296,430.443L484.905,430.379L486.093,430.348L486.015,429.646L484.797,429.68L482.952,429.753L481.743,429.79L481.145,429.8L480.688,429.8C480.405,429.799 480.124,429.794 479.845,429.784C479.625,429.776 479.407,429.766 479.19,429.751L478.978,429.736C478.705,429.714 478.435,429.687 478.168,429.653C476.911,429.491 475.72,429.17 474.63,428.574C472.877,427.615 471.123,427.047 469.381,426.749L469.023,426.692C468.889,426.671 468.754,426.653 468.62,426.635L467.918,426.559L467.217,426.508L466.88,426.492C466.526,426.478 466.173,426.473 465.82,426.475L465.125,426.49L464.33,426.53L463.864,426.564C463.708,426.576 463.552,426.589 463.397,426.604C462.825,425.796 462.437,424.955 462.282,424.09C462.033,422.701 466.855,419.813 470.339,417.208L470.509,417.079C471.704,416.178 472.725,415.313 473.303,414.561L473.303,414.56C477.507,409.084 483.322,405.53 486.239,405.605L486.319,405.413L486.43,405.232C486.43,405.232 485.806,402.872 486.522,402.119C488.938,399.578 496.074,392.498 500.93,389.987C505.101,387.83 509.323,386.762 513.541,386.792L513.603,386.792C517.821,386.762 522.043,387.83 526.214,389.987C531.07,392.498 538.2,399.571 540.622,402.119C541.348,402.883 540.905,405.605 540.905,405.605C543.822,405.53 549.637,409.084 553.841,414.56L553.841,414.561C555.223,416.36 559.139,418.802 561.911,420.863L562.325,421.175C563.887,422.367 564.984,423.409 564.862,424.09C564.707,424.955 564.319,425.796 563.747,426.604C563.57,426.587 563.393,426.572 563.217,426.559L562.365,426.505L561.671,426.48L561.323,426.475C560.971,426.473 560.618,426.478 560.264,426.492L559.752,426.518C559.625,426.526 559.498,426.536 559.37,426.546C559.264,426.555 559.157,426.565 559.051,426.576C558.875,426.593 558.699,426.613 558.524,426.635L557.786,426.745C556.036,427.042 554.274,427.611 552.514,428.574C552.204,428.743 551.886,428.891 551.56,429.018L551.398,429.08C550.621,429.367 549.803,429.547 548.956,429.655C548.696,429.688 548.432,429.715 548.166,429.736L547.954,429.751C547.741,429.765 547.526,429.776 547.31,429.784L546.439,429.801L545.274,429.787L544.174,429.752L542.347,429.68L541.129,429.646L541.051,430.348L542.298,430.382L544.14,430.455L545.381,430.494L546.225,430.505C548.62,430.509 550.887,430.265 552.848,429.192C555.576,427.7 558.306,427.197 560.99,427.178C561.742,427.173 562.489,427.205 563.233,427.265L562.661,427.89L562.353,428.194L561.679,428.799L561.331,429.086L560.566,429.67L560.184,429.941L559.34,430.501L558.677,430.908L557.794,431.414L556.63,432.029L555.921,432.377L554.692,432.941L553.452,433.464L552.754,433.74L552.175,433.959L551.661,434.147L550.684,434.487L550.172,434.656L549.214,434.956L548.711,435.105L547.786,435.363L547.297,435.491L546.393,435.711C546.152,439.328 544.489,442.625 541.296,445.578C538.595,444.621 535.909,444.286 533.233,444.4L533,445C532.955,444.821 532.91,444.627 532.867,444.418L532.842,444.42C532.842,444.38 532.842,444.339 532.843,444.299C532.025,440.25 531.596,431.293 534.253,428C538.067,423.273 540.061,418.393 540.521,413.393C540.535,413.226 540.548,413.058 540.562,412.892C540.408,411.868 540.219,410.907 540,410C539.865,412.811 539.17,415.47 538,418C538.271,415 538.333,412 538,409C537.223,410.827 535.926,412.504 534,414C534.438,412.073 534.497,410.372 534,409C533.3,411.31 532.237,413.245 531,415C531.408,412.111 531.421,409.437 531,407C530.547,408.549 529.9,409.902 529,411C529.077,409.183 529.084,407.503 529,406C529.069,408.716 528.052,411.044 526,413C525.936,409.691 525.606,407.014 525,405C525.09,408.693 524.784,412.361 524,416C523.404,412.886 522.757,410.1 522,408C522.322,410.027 521.949,412.025 521,414C521.161,410.81 521.166,407.804 521,405C521.06,408.149 520.107,410.837 518,413C518.551,409.639 518.575,406.305 518,403C518.101,404.821 515.717,412.45 515.12,413.797C515.09,413.906 515.054,413.974 515.009,413.996C515.006,413.999 515.003,414 515,414C515.003,413.999 515.006,413.998 515.009,413.996C515.032,413.98 515.069,413.911 515.12,413.797C515.507,412.366 514.676,404 514.534,404C513.822,403.686 513.209,412.863 513,413C512.621,413.249 512.146,411.265 511.712,409C511.196,406.304 510.738,403.208 510.572,403C509.997,406.305 510.021,409.639 510.572,413C508.465,410.837 507.512,408.149 507.572,405C507.406,407.804 507.411,410.81 507.572,414C506.623,412.025 506.25,410.027 506.572,408C505.815,410.1 505.168,412.886 504.572,416C503.788,412.361 503.482,408.693 503.572,405C502.965,407.014 502.636,409.691 502.572,413C500.52,411.044 499.503,408.716 499.572,406C499.488,407.503 499.495,409.183 499.572,411C498.672,409.902 498.025,408.549 497.572,407C497.151,409.437 497.164,412.111 497.572,415C496.335,413.245 495.272,411.31 494.572,409C494.075,410.372 494.134,412.073 494.572,414C492.646,412.504 491.349,410.827 490.572,409C490.239,412 490.301,415 490.572,418C489.402,415.47 488.707,412.811 488.572,410C488.023,412.277 487.661,414.89 487.572,417.995C488.564,421.395 490.33,424.734 492.965,428C495.788,431.499 495.127,441.394 494.218,445L493.986,444.403ZM480.418,417.762C478.425,417.778 476.616,419.141 476.112,421.175C475.515,423.585 476.976,426.03 479.373,426.63C479.748,426.724 480.123,426.767 480.492,426.764C482.485,426.748 484.294,425.385 484.798,423.351C485.395,420.941 483.934,418.496 481.537,417.896C481.163,417.802 480.787,417.759 480.418,417.762ZM546.726,417.762C548.719,417.778 550.528,419.141 551.032,421.175C551.629,423.585 550.168,426.03 547.771,426.63C547.434,426.715 547.096,426.758 546.763,426.764L546.652,426.764C544.659,426.748 542.85,425.385 542.346,423.351C541.748,420.941 543.21,418.496 545.607,417.896C545.981,417.802 546.357,417.759 546.726,417.762ZM487.041,407.531L487.1,407.333L487.194,407.36L487.209,407.363L487.041,407.531Z" style="fill:white;"/>
    </g>
</svg>
