<?xml version="1.0" encoding="UTF-8" standalone="no"?>
<!DOCTYPE svg PUBLIC "-//W3C//DTD SVG 1.1//EN" "http://www.w3.org/Graphics/SVG/1.1/DTD/svg11.dtd">
<svg width="100%" height="100%" viewBox="0 0 1000 1000" version="1.1" xmlns="http://www.w3.org/2000/svg" xmlns:xlink="http://www.w3.org/1999/xlink" xml:space="preserve" xmlns:serif="http://www.serif.com/" style="fill-rule:evenodd;clip-rule:evenodd;stroke-linejoin:round;stroke-miterlimit:2;">
    <g transform="matrix(3.72543,0,0,3.72543,-894.09,-735.874)">
        <path d="M480.246,347.01C480.163,347.169 480.082,347.324 480,347.48C466,375.98 430,404.48 400,423.48C370,404.48 334,375.98 320,347.48C315.806,339.512 312.491,331.543 310.057,323.753C318.735,318.847 327.342,313.867 335.858,308.793L335.858,313.107C335.858,319.197 340.803,324.142 346.893,324.142L368.964,324.142C375.055,324.142 380,319.197 380,313.107L380,291.036C380,287.946 378.727,285.15 376.677,283.146C383.962,278.297 391.145,273.348 398.217,268.282C398.827,269.316 399.422,270.382 400,271.48C418.456,236.414 453.943,233.707 475.025,248.426L380,290L479.456,251.973C479.638,252.14 479.82,252.309 480,252.48C499.076,270.602 499.958,306.01 482.645,342.213L380,313.107L480.246,347.01ZM288,333C326.983,311.712 364.896,289.314 400,264L391,253C355.729,273.566 318.313,295.137 276,319L288,333ZM372.39,285.982L374.018,285.982L374.018,318.161L341.839,318.161L341.839,305.204L343.679,304.09L343.679,316.321L372.179,316.321L372.179,287.821L369.578,287.821C370.517,287.21 371.454,286.596 372.39,285.982ZM460,286.49L431.411,286.49L431.411,315.079L460,315.079L460,286.49ZM301.5,300.785C330.905,284.431 360.773,266.838 388.5,249.785L377.5,241C351.282,253.86 322.644,269.666 299.5,284.785L301.5,300.785ZM306.516,277.798C308.684,267.649 313.179,258.96 320,252.48C331.892,241.182 350.856,236.603 368.482,242.736C346.742,253.627 326.105,265.326 306.516,277.798ZM310,260C307.567,262.668 303.458,274.199 303.418,277.785L255.757,267.106L253.418,242.215L310,260Z" style="fill:white;"/>
    </g>
</svg>
