<?xml version="1.0" encoding="UTF-8" standalone="no"?>
<!DOCTYPE svg PUBLIC "-//W3C//DTD SVG 1.1//EN" "http://www.w3.org/Graphics/SVG/1.1/DTD/svg11.dtd">
<svg width="100%" height="100%" viewBox="0 0 1000 1000" version="1.1" xmlns="http://www.w3.org/2000/svg" xmlns:xlink="http://www.w3.org/1999/xlink" xml:space="preserve" xmlns:serif="http://www.serif.com/" style="fill-rule:evenodd;clip-rule:evenodd;stroke-linejoin:round;stroke-miterlimit:2;">
    <g transform="matrix(0.999836,0,0,0.999836,-19.2688,-29.5003)">
        <path d="M611.453,89.113C854.558,139.944 1010.66,378.582 959.829,621.687C908.998,864.791 670.36,1020.89 427.255,970.062C184.151,919.231 28.049,680.593 78.88,437.488C129.711,194.384 368.349,38.282 611.453,89.113ZM602.777,130.607C822.981,176.649 964.377,392.807 918.335,613.011C872.292,833.214 656.134,974.61 435.931,928.568C215.728,882.525 74.331,666.368 120.374,446.164C166.416,225.961 382.574,84.564 602.777,130.607ZM600.108,143.374C717.415,167.902 682.439,290.602 519.354,529.587C682.439,290.602 783.945,213.303 849.549,313.595C915.154,413.887 803.661,475.918 519.354,529.587C803.661,475.918 930.095,493.034 905.567,610.341C881.04,727.648 758.34,692.673 519.354,529.587C758.34,692.673 835.639,794.178 735.347,859.783C635.054,925.387 573.024,813.894 519.354,529.587C573.024,813.894 555.907,940.328 438.601,915.801C321.294,891.273 356.269,768.573 519.354,529.587C356.269,768.573 254.764,845.872 189.159,745.58C123.554,645.288 235.047,583.257 519.354,529.587C235.047,583.257 108.613,566.141 133.141,448.834C157.669,331.527 280.369,366.502 519.354,529.587C280.369,366.502 203.069,264.997 303.362,199.392C403.654,133.787 465.685,245.281 519.354,529.587C465.685,245.281 482.801,118.847 600.108,143.374Z" style="fill:white;"/>
    </g>
</svg>
