<?xml version="1.0" encoding="UTF-8" standalone="no"?>
<!DOCTYPE svg PUBLIC "-//W3C//DTD SVG 1.1//EN" "http://www.w3.org/Graphics/SVG/1.1/DTD/svg11.dtd">
<svg width="100%" height="100%" viewBox="0 0 1000 1000" version="1.1" xmlns="http://www.w3.org/2000/svg" xmlns:xlink="http://www.w3.org/1999/xlink" xml:space="preserve" xmlns:serif="http://www.serif.com/" style="fill-rule:evenodd;clip-rule:evenodd;stroke-linejoin:round;stroke-miterlimit:2;">
    <g transform="matrix(14.9668,0,0,14.9668,-4454.96,-6551.96)">
        <path d="M335.735,484.65C335.196,484.656 334.657,484.665 334.118,484.678C332.542,484.717 330.956,484.805 329.392,485.03C327.697,485.274 326.021,485.697 324.319,485.871C323.632,485.942 323.132,486.556 323.202,487.242C323.272,487.928 323.886,488.429 324.573,488.358C326.309,488.181 328.019,487.754 329.749,487.505C331.006,487.324 332.279,487.239 333.549,487.196C332.913,487.745 332.261,488.269 331.664,488.802C329.611,490.633 327.71,492.57 325.96,494.754C325.187,495.719 324.406,496.714 323.766,497.795C323.696,497.913 322.99,499.065 322.867,499.311C322.438,500.171 323.043,500.759 323.123,500.832C323.31,501.004 323.582,501.157 323.939,501.218C324.357,501.29 325.082,501.178 325.348,501.143C326.583,500.978 327.782,500.54 328.988,500.223C331.968,499.44 334.857,499.69 337.758,500.682C338.411,500.906 339.122,500.557 339.346,499.904C339.569,499.252 339.22,498.54 338.568,498.317C335.188,497.161 331.823,496.893 328.353,497.805C327.686,497.981 327.022,498.202 326.352,498.383C326.836,497.664 327.378,496.984 327.911,496.317C329.573,494.244 331.379,492.406 333.328,490.667C334.731,489.416 336.393,488.182 337.576,486.66C337.9,486.243 337.887,485.879 337.853,485.646C337.795,485.258 337.598,484.933 337.207,484.715C337.053,484.629 336.791,484.529 336.436,484.546C336.268,484.554 335.802,484.638 335.735,484.65ZM329.96,469.225C328.688,467.112 327.242,465.167 325.207,463.611C324.659,463.192 323.874,463.297 323.455,463.845C323.036,464.393 323.14,465.179 323.688,465.598C325.905,467.292 327.304,469.528 328.622,471.904C328.595,472.112 328.621,472.32 328.694,472.51C328.659,474.311 328.65,476.111 328.598,477.912C328.578,478.601 329.121,479.177 329.811,479.197C330.501,479.217 331.077,478.674 331.097,477.984C331.147,476.247 331.158,474.509 331.189,472.771C331.377,472.486 331.443,472.131 331.363,471.793C332.659,469.217 335.049,466.687 337.189,465.025C337.734,464.601 337.832,463.815 337.409,463.271C336.985,462.726 336.199,462.627 335.655,463.051C333.654,464.606 331.479,466.846 329.96,469.225ZM330.45,448.154C329.872,447.409 329.291,446.667 328.701,445.931C327.441,444.359 326.356,442.784 324.747,441.551C324.199,441.132 323.414,441.236 322.994,441.784C322.575,442.332 322.679,443.117 323.227,443.536C324.672,444.643 325.619,446.083 326.75,447.494C327.436,448.35 328.111,449.215 328.783,450.082C327.083,451.999 325.304,453.877 323.582,455.746C323.114,456.254 323.147,457.045 323.654,457.513C324.161,457.98 324.953,457.948 325.42,457.44C327.048,455.673 328.726,453.898 330.342,452.09C330.97,452.896 331.602,453.697 332.245,454.49C333.589,456.146 335.168,458.126 337.11,459.174C337.717,459.501 338.476,459.274 338.804,458.667C339.131,458.059 338.904,457.301 338.297,456.973C336.636,456.077 335.336,454.331 334.186,452.914C333.452,452.01 332.732,451.093 332.017,450.173C332.303,449.837 332.586,449.499 332.865,449.159C334.357,447.343 335.971,444.7 337.981,443.41C338.561,443.037 338.73,442.263 338.357,441.683C337.984,441.102 337.21,440.934 336.63,441.306C334.419,442.726 332.575,445.573 330.933,447.572C330.774,447.767 330.613,447.96 330.45,448.154Z" style="fill:white;"/>
    </g>
</svg>
