<?xml version="1.0" encoding="UTF-8" standalone="no"?>
<!DOCTYPE svg PUBLIC "-//W3C//DTD SVG 1.1//EN" "http://www.w3.org/Graphics/SVG/1.1/DTD/svg11.dtd">
<svg width="100%" height="100%" viewBox="0 0 1000 1000" version="1.1" xmlns="http://www.w3.org/2000/svg" xmlns:xlink="http://www.w3.org/1999/xlink" xml:space="preserve" xmlns:serif="http://www.serif.com/" style="fill-rule:evenodd;clip-rule:evenodd;stroke-linejoin:round;stroke-miterlimit:2;">
    <g transform="matrix(2.16867,0,0,2.16867,-687.349,-600.602)">
        <path d="M506.616,373.305C507.562,373.002 508.512,372.707 509.464,372.42L509.466,372.42C523.993,368.039 539.32,365.496 555.171,365.066L556.593,365.033L558.304,365.008L559.434,365.001L560.566,365.001L562.26,365.014L564.514,365.057L565.624,365.089L567.321,365.151L568.423,365.2L570.117,365.288L571.212,365.354L573.456,365.511L575.311,365.662L576.74,365.792L578.433,365.961L579.465,366.073L581.18,366.271L581.518,366.313C629.983,372.264 672.346,398.065 700.212,435.319L701.038,436.432L701.856,437.553L702.666,438.681L703.467,439.817C709.491,448.423 714.758,457.592 719.176,467.23L719.902,468.834L720.396,469.953L720.935,471.197L721.594,472.755L722.058,473.878L722.657,475.362L723.19,476.718L723.789,478.284L724.189,479.353L724.687,480.719L725.248,482.299L725.626,483.39L726.085,484.75L726.475,485.935L726.876,487.185L727.379,488.804L727.864,490.414C731.733,503.515 734.109,517.256 734.793,531.436L734.858,532.902L734.911,534.37L734.955,535.975L734.979,537.313C734.993,538.207 735,539.103 735,540C735,574.137 725.205,606.004 708.276,632.937L707.741,633.783C707.402,634.316 707.06,634.847 706.715,635.376L706.669,635.446C706.325,635.974 705.978,636.5 705.627,637.024L705.403,637.36L705.402,637.36C700.487,644.683 695.037,651.609 689.107,658.089L687.917,659.375L686.654,660.715L685.562,661.85L684.46,662.975L683.73,663.708L682.42,665.006L680.953,666.426L679.338,667.952L678.028,669.162L677.149,669.96C676.693,670.371 676.235,670.78 675.773,671.188L674.379,672.407L672.689,673.851L671.2,675.091L670.416,675.734C669.635,676.37 668.849,676.999 668.056,677.623L666.628,678.734L665.031,679.949L663.762,680.895L662.948,681.492C661.983,682.196 661.011,682.89 660.03,683.574L658.518,684.618L656.872,685.729L655.56,686.595L655.14,686.869C654.134,687.522 653.122,688.165 652.104,688.797L650.547,689.752L648.83,690.779L647.46,691.58L646.597,692.077C645.703,692.587 644.804,693.09 643.903,693.584L642.288,694.458L640.498,695.401L639.071,696.134L637.745,696.8C637.113,697.114 636.478,697.425 635.842,697.732L634.266,698.482L632.736,699.192L630.905,700.018L629.442,700.659L628.985,700.857C628.375,701.119 627.764,701.378 627.152,701.633L625.493,702.313L623.394,703.146L621.504,703.869L619.993,704.429L619.155,704.733L617.552,705.301L615.942,705.853L613.784,706.566L612.016,707.127L610.472,707.6L608.886,708.069L607.239,708.539L606.546,708.728L606.541,708.733L605.034,709.141L603.189,709.621L601.612,710.014L599.743,710.459L599.013,710.627L599.016,710.625L598.351,710.777L596.665,711.146L594.716,711.551L593.11,711.866L591.499,712.168L590.424,712.36L588.717,712.651L586.998,712.926L585.005,713.224L583.369,713.45L581.728,713.662L580.64,713.793L578.904,713.989L577.155,714.168L575.12,714.355L573.456,714.489L571.789,714.608L570.687,714.678L568.927,714.776L567.151,714.856L565.076,714.928L563.388,714.968L561.696,714.992L560.566,714.999L560,715C548.294,715 536.855,713.848 525.788,711.651L523.684,711.22L522.186,710.896C459.416,697.049 409.251,649.457 391.718,588.145L391.706,588.105C389.884,581.729 388.416,575.205 387.323,568.557L387.075,567.003L386.959,566.248C386.148,560.867 385.582,555.402 385.274,549.865L385.207,548.573C385.166,547.731 385.131,546.886 385.103,546.04L385.102,546.033C385.034,544.029 385,542.019 385,540L385.003,539.026L385.014,537.74L385.044,536.049L385.083,534.555L385.146,532.802L385.2,531.559L385.288,529.883L385.382,528.366L385.469,527.099L385.599,525.434L385.727,523.96L385.893,522.234L386.02,521.016L386.206,519.368L386.389,517.865L386.613,516.161L386.776,514.995L386.993,513.527L387.259,511.833L387.54,510.151L387.735,509.039L388.011,507.536L388.333,505.866L388.681,504.156L389.015,502.588L389.231,501.615L389.607,499.97L389.983,498.402L390.398,496.738L390.648,495.768L391.05,494.254L391.504,492.606L391.81,491.533L392.121,490.468L392.584,488.923L392.88,487.962L393.372,486.41L393.87,484.885C398.321,471.477 404.351,458.789 411.737,447.041L412.314,446.131L413.208,444.742L414.292,443.096L414.904,442.184L415.748,440.947L416.662,439.632L417.158,438.93C417.469,438.492 417.781,438.055 418.094,437.622C421.227,433.29 424.553,429.107 428.064,425.08L439.868,473.582C437.597,477.162 435.699,480.889 434.089,484.73C437.022,485.399 440.256,485.65 443.751,485.504C445.293,487.254 447.545,488.327 450,488.327C453.389,488.327 456.391,486.282 457.673,483.236C475.157,478.6 496.6,467.155 518.993,450.532L514.269,445.031L514.158,444.888C497.065,448.849 480.056,453.869 463.209,460.941L464.307,456.428C480.319,449.905 496.471,445.162 512.699,441.377C519.816,426.614 527.945,412.608 537.01,399.298L541.969,398.091C542.15,398.047 542.328,397.998 542.503,397.942C532.76,411.863 524.063,426.565 516.506,442.12C516.732,442.229 516.94,442.385 517.114,442.588L521.99,448.266C546.001,429.696 562.744,406.398 565.004,388.345L549.959,388.015C549.885,388.014 549.812,388.008 549.739,387.997C549.266,388.623 548.795,389.25 548.326,389.88C548.273,386.09 545.662,382.808 541.969,381.909L506.616,373.305ZM612.912,697.766C595.298,704.067 576.323,707.5 556.552,707.5C544.85,707.5 533.427,706.298 522.398,704.009C516.966,693.217 511.939,682.433 507.666,671.665C532.19,666.714 555.823,659.859 578.775,651.55C578.812,651.537 578.848,651.522 578.884,651.507C579.026,651.612 579.184,651.698 579.357,651.761C598.096,658.605 617.342,665.043 637.097,671.076C631.092,680.175 622.214,689.062 612.912,697.766ZM493.4,665.035C496.568,667.117 499.918,669.201 503.489,671.29C507.593,681.833 512.431,692.391 517.681,702.958C512.733,701.781 507.871,700.384 503.104,698.778C497.061,695.338 492.421,690.831 490,685C486.815,677.327 488.571,670.699 493.4,665.035ZM655.284,662.107C655.268,663.038 655.175,664.002 655,665C653.983,670.797 651.641,675.795 648.327,680.109C640.035,685.554 631.231,690.284 622.001,694.21C629.637,686.723 636.583,679.1 641.379,671.338C646.038,668.295 650.697,665.25 655.284,662.107ZM579.572,637.24C575.763,637.39 572.49,637.607 570,637.83C552.024,639.442 512.682,646.959 496.054,662.29C499.098,664.276 502.314,666.266 505.737,668.26C505.842,668.217 505.953,668.184 506.068,668.161C530.714,663.235 554.452,656.367 577.499,648.024C577.781,647.922 578.071,647.892 578.35,647.924L579.572,637.24ZM654.786,657.901C649.77,639.031 608.208,636.512 583.36,637.12L582.031,648.744C600.752,655.552 619.978,661.954 639.707,667.952C644.766,664.647 649.823,661.341 654.786,657.901ZM419.987,635.544C430.529,649.851 444.858,660.974 465,660C469.651,659.775 473.667,657.291 477.016,653.168C472.676,649.727 468.637,646.291 464.72,642.858C450.2,642.484 435.357,640.404 419.987,635.544ZM690.798,640.137C686.765,645.533 682.417,650.675 677.78,655.538C675.755,653.963 674.093,651.761 672.764,649.039C675.544,646.719 678.254,644.303 680.876,641.764C684.183,641.261 687.491,640.717 690.798,640.137ZM484.804,569.112C480.415,570.622 476.026,572.178 471.637,573.763C471.578,573.785 471.518,573.803 471.458,573.818C469.115,595.085 467.561,616.897 467.854,639.976C467.856,640.175 467.828,640.367 467.773,640.547C471.419,643.732 475.177,646.919 479.196,650.111C490.07,632.849 492.389,596.48 484.804,569.112ZM677.858,569.04C669.331,596.917 665.499,628.25 671.279,645.389C673.657,643.374 675.979,641.284 678.235,639.101C681.437,616.667 683.501,594.213 685.005,571.749C684.818,571.736 684.631,571.696 684.447,571.624C682.251,570.767 680.055,569.908 677.858,569.04ZM416.441,630.407C432.872,636.187 448.672,638.631 464.093,639.089C463.841,615.187 465.544,592.631 468.042,570.621C451.424,551.94 437.048,532.708 424.483,513.028C414.821,521.558 402.889,532.962 389.18,546.611C389.441,553.32 390.097,559.93 391.128,566.421C393.052,577.359 396.1,588.14 400,597.452C404.088,607.213 409.297,619.392 416.441,630.407ZM723.164,522.675C723.751,528.371 724.052,534.151 724.052,540C724.052,575.596 712.924,608.614 693.962,635.759C690.044,636.479 686.127,637.15 682.211,637.764C685.343,615.386 687.364,592.99 688.841,570.583C699.445,553.193 710.362,534.902 719.727,517.418C720.805,519.192 721.954,520.943 723.164,522.675ZM581.545,619.994L583.012,607.163C558.748,591.989 536.076,576.032 513.228,560.16C509.083,561.319 504.938,562.553 500.792,563.848C513.3,596.393 544.706,619.598 581.545,619.994ZM664.334,563.519C660.678,561.96 657.024,560.333 653.371,558.603C631.82,575.899 609.55,592.005 586.774,607.276L585.324,619.955C621.478,618.804 652.125,595.681 664.334,563.519ZM515.76,557.354C538.417,573.094 560.909,588.916 584.974,603.967C607.376,588.938 629.283,573.097 650.493,556.105C642.389,529.664 633.816,503.323 624.199,477.204C597.515,476.375 570.806,476.708 544.079,477.993C532.952,503.303 523.372,529.511 515.095,556.479C515.391,556.691 515.628,556.991 515.76,557.354ZM428.597,502.261C428.007,504.818 427.481,507.399 426.999,509.997C439.751,530.086 454.396,549.709 471.399,568.751C471.639,569.021 471.794,569.351 471.851,569.7C475.812,568.276 479.772,566.876 483.733,565.515C483.679,565.346 483.623,565.173 483.567,565C472.493,531.026 448.39,510.106 428.597,502.261ZM712.827,500.542C699.057,513.545 688.158,537.344 679.135,565L678.987,565.455C681.261,566.354 683.536,567.243 685.811,568.131C685.847,568.145 685.882,568.16 685.916,568.176C696.873,550.201 708.148,531.279 717.67,513.303C716.077,509.05 714.464,504.796 712.827,500.542ZM529.565,462.843C508.565,478.832 495,504.094 495,532.5C495,542.221 496.589,551.574 499.522,560.317C503.366,559.114 507.21,557.963 511.052,556.877C519.53,529.065 529.379,502.054 540.861,475.996L529.565,462.843ZM635.674,463.025C633.075,467.089 630.369,471.115 627.525,475.091C627.502,475.124 627.477,475.155 627.452,475.186C637.17,501.525 645.824,528.086 653.999,554.749C657.861,556.598 661.725,558.327 665.591,559.979C668.452,551.333 670,542.096 670,532.5C670,504.201 656.536,479.021 635.674,463.025ZM425.047,500.978C416.997,498.355 409.89,498.029 405,500C395.831,503.697 390.934,515.148 389.362,529.731C389.156,533.128 389.052,536.552 389.052,540C389.052,540.483 389.054,540.965 389.058,541.447C402.264,528.357 413.746,517.448 423.042,509.302C423.129,509.083 423.258,508.88 423.426,508.704C423.915,506.109 424.449,503.532 425.047,500.978ZM722.036,513.962L721.707,513.389C719.78,508.231 717.824,503.072 715.833,497.914C716.625,497.276 717.424,496.675 718.232,496.11C719.814,501.939 721.088,507.896 722.036,513.962ZM429.32,431.104C430.89,443.891 433.851,456.76 437.935,469.693C434.921,474.131 432.487,478.8 430.486,483.64C419.625,479.451 414.019,468.215 416.24,448.535C420.225,442.438 424.596,436.617 429.32,431.104ZM704.895,480.408C702.87,475.394 700.807,470.382 698.7,465.368C698.26,465.511 697.766,465.491 697.315,465.275C681.112,457.51 664.244,450.662 646.458,445.083C645.193,447.301 643.912,449.514 642.61,451.719C663.746,466.4 689.485,480.559 704.895,480.408ZM702.098,457.094C706.044,464.001 709.509,471.209 712.453,478.679C711.356,479.289 710.126,479.729 708.778,480.012C706.531,474.431 704.234,468.848 701.883,463.263C701.929,461.196 702.001,459.14 702.098,457.094ZM450,300L467.616,372.384L540,390L467.616,407.616L450,480L432.384,407.616L360,390L432.384,372.384L450,300ZM632.644,460.803C618.437,450.845 601.146,445 582.5,445C563.96,445 546.76,450.778 532.607,460.628L544.161,474.082C544.202,474.13 544.24,474.179 544.275,474.23C570.937,472.956 597.584,472.628 624.206,473.453C624.264,473.263 624.353,473.079 624.475,472.909C627.328,468.921 630.04,464.881 632.644,460.803ZM612.287,382.011C648.319,394.738 678.716,419.456 698.673,451.367C698.443,454.728 698.275,458.114 698.176,461.53C681.789,453.716 664.725,446.835 646.73,441.239C632.812,423.21 618.52,405.324 601.572,388.454C605.126,386.157 608.699,384.016 612.287,382.011ZM582.3,388.725C589.504,405.936 609.359,427.331 635,446.269C636.477,447.36 637.991,448.457 639.533,449.555C640.82,447.372 642.087,445.18 643.338,442.983C629.083,424.529 614.412,406.229 596.83,389.044L582.3,388.725ZM607.523,380.41C604.828,381.975 602.14,383.62 599.463,385.351L580.901,384.944C579.65,381.021 579.138,377.363 579.456,374.056C589.098,375.377 598.481,377.519 607.523,380.41ZM565.264,384.6L550.401,384.274C542.104,380.762 533.348,377.921 524.221,375.624C534.681,373.574 545.492,372.5 556.552,372.5C558.465,372.5 560.371,372.532 562.277,372.596C564.355,376.087 565.309,380.146 565.264,384.6Z" style="fill:white;"/>
    </g>
</svg>
