<?xml version="1.0" encoding="UTF-8" standalone="no"?>
<!DOCTYPE svg PUBLIC "-//W3C//DTD SVG 1.1//EN" "http://www.w3.org/Graphics/SVG/1.1/DTD/svg11.dtd">
<svg width="100%" height="100%" viewBox="0 0 1000 1000" version="1.1" xmlns="http://www.w3.org/2000/svg" xmlns:xlink="http://www.w3.org/1999/xlink" xml:space="preserve" xmlns:serif="http://www.serif.com/" style="fill-rule:evenodd;clip-rule:evenodd;stroke-linejoin:round;stroke-miterlimit:2;">
    <g transform="matrix(5.84416,0,0,5.84416,-201.299,-3750.61)">
        <path d="M119.722,734.037C107.936,746.114 94.882,754.265 80,756.756C72.389,758.03 63.769,756.788 55.786,753C51.963,751.186 47.793,750.545 43,752C47.185,744.796 52.037,747.446 55,746.075C59.558,743.966 66.003,731.012 68.962,724.5C78.039,704.528 86.452,697.254 98,697.416C104.482,697.507 109.524,700.638 112.999,705.5C114.82,708.048 116.58,708.535 120,709L120.645,708.912C123.882,708.466 125.294,707.888 127.001,705.5C130.476,700.638 135.518,697.507 142,697.416C153.548,697.254 161.961,704.528 171.038,724.5C173.997,731.012 180.442,743.966 185,746.075C187.963,747.446 192.815,744.796 197,752C192.207,750.545 188.037,751.186 184.214,753C176.231,756.788 167.611,758.03 160,756.756C145.001,754.245 131.859,745.985 120,733.751L119.722,734.037Z" style="fill:white;"/>
    </g>
</svg>
