<?xml version="1.0" encoding="UTF-8" standalone="no"?>
<!DOCTYPE svg PUBLIC "-//W3C//DTD SVG 1.1//EN" "http://www.w3.org/Graphics/SVG/1.1/DTD/svg11.dtd">
<svg width="100%" height="100%" viewBox="0 0 1000 1000" version="1.1" xmlns="http://www.w3.org/2000/svg" xmlns:xlink="http://www.w3.org/1999/xlink" xml:space="preserve" xmlns:serif="http://www.serif.com/" style="fill-rule:evenodd;clip-rule:evenodd;stroke-linejoin:round;stroke-miterlimit:2;">
    <g transform="matrix(0.939763,-0.274979,0.274979,0.939763,-63.3639,182.456)">
        <path d="M559.927,648.483C540.451,657.137 522.473,657.449 502.996,655.974C503.897,662.602 506.15,669.334 511.985,670.956C491.739,734.962 507.926,859.107 541.949,970.59C565.65,985.981 582.924,982.837 592.887,958.605C599.814,849.425 593.647,724.872 555.432,658.971C561.398,656.622 562.015,652.9 559.927,648.483ZM487.06,641.477C321.467,634.672 189.129,498.104 189.129,330.871C189.129,159.297 328.426,20 500,20C671.574,20 810.871,159.297 810.871,330.871C810.871,477.344 709.351,600.293 572.918,633.127C563.599,644.393 548.593,649.818 529.963,651.643C508.313,653.765 494.084,651.301 487.06,641.477ZM500,68.691C644.701,68.691 762.18,186.17 762.18,330.871C762.18,475.572 644.701,593.051 500,593.051C355.299,593.051 237.82,475.572 237.82,330.871C237.82,186.17 355.299,68.691 500,68.691ZM328.391,313.58C328.129,317.492 327.996,321.441 327.996,325.42C327.996,335.397 328.833,345.181 330.442,354.714C323.65,361.296 312.89,368.329 301.617,375.606C298.15,361.667 296.093,347.174 295.608,332.284C309.806,325.011 320.481,318.769 328.391,313.58ZM483.358,118.839C483.822,129.834 483.877,140.71 483.582,151.487C404.293,160.25 340.891,222.088 329.741,300.641C318.546,306.838 307.184,312.73 295.618,318.251C299.187,213.607 380.374,128.531 483.358,118.839Z" style="fill:white;"/>
    </g>
</svg>
