<?xml version="1.0" encoding="UTF-8" standalone="no"?>
<!DOCTYPE svg PUBLIC "-//W3C//DTD SVG 1.1//EN" "http://www.w3.org/Graphics/SVG/1.1/DTD/svg11.dtd">
<svg width="100%" height="100%" viewBox="0 0 1000 1000" version="1.1" xmlns="http://www.w3.org/2000/svg" xmlns:xlink="http://www.w3.org/1999/xlink" xml:space="preserve" xmlns:serif="http://www.serif.com/" style="fill-rule:evenodd;clip-rule:evenodd;stroke-linejoin:round;stroke-miterlimit:2;">
    <g transform="matrix(9.96351,0,0,9.96351,-7224.3,-3862.37)">
        <path d="M742.901,483C763.382,469.95 762.256,451.226 751.881,445C712.813,421.554 741.112,369.745 775.518,404.105C816.737,365.522 857.118,438.409 742.901,483ZM794.349,443.466C805.409,431.848 809.561,422.505 809.965,416.381C810.29,411.453 808.307,408.318 805.515,407.052C803.964,406.349 801.028,406.024 798.615,407.55C797.532,408.235 796.523,409.287 795.827,410.88C794.744,410.486 793.742,410.353 792.834,410.388C789.117,410.528 786.822,413.559 786.319,414.899C785.859,416.12 785.822,417.886 786.368,419.685C787.084,422.043 788.769,424.44 791.427,425.612C793.174,426.382 795.356,426.647 797.995,425.94C798.995,425.673 799.589,424.644 799.321,423.644C799.054,422.645 798.025,422.05 797.025,422.318C795.385,422.757 794.026,422.659 792.94,422.181C791.349,421.479 790.385,420.007 789.957,418.596C789.685,417.701 789.6,416.826 789.829,416.219C790.069,415.581 791.205,414.202 792.975,414.135C793.84,414.102 794.83,414.394 795.955,415.122C796.48,415.462 797.139,415.517 797.714,415.27C798.288,415.024 798.702,414.507 798.817,413.892C799.12,412.265 799.773,411.255 800.62,410.719C801.79,409.979 803.214,410.126 803.965,410.467C805.613,411.214 806.415,413.226 806.223,416.135C805.852,421.761 801.796,430.205 791.633,440.88C790.92,441.63 790.949,442.817 791.699,443.531C792.448,444.244 793.636,444.215 794.349,443.466Z" style="fill:white;"/>
    </g>
</svg>
