<?xml version="1.0" encoding="UTF-8" standalone="no"?>
<!DOCTYPE svg PUBLIC "-//W3C//DTD SVG 1.1//EN" "http://www.w3.org/Graphics/SVG/1.1/DTD/svg11.dtd">
<svg width="100%" height="100%" viewBox="0 0 1000 1000" version="1.1" xmlns="http://www.w3.org/2000/svg" xmlns:xlink="http://www.w3.org/1999/xlink" xml:space="preserve" xmlns:serif="http://www.serif.com/" style="fill-rule:evenodd;clip-rule:evenodd;stroke-linejoin:round;stroke-miterlimit:2;">
    <g transform="matrix(0.997961,0,0,0.997961,-38.4615,20.2735)">
        <path d="M843.37,259.777L629.31,921.224C626.939,928.55 618.955,933.032 611.492,931.227L247.455,845.012C245.493,844.538 243.762,843.676 242.318,842.53C224.767,831.365 227.307,800.387 238.228,770.849L459.878,109.403C462.249,102.076 470.232,97.594 477.695,99.399L501.194,105.074C535.976,67.677 581.16,25.57 588.946,30.127C599.872,36.523 610.065,86.701 610.271,131.416L706.809,154.729C742.182,115.841 792.643,68.038 800.912,72.879C812.529,79.679 823.319,135.982 822.154,182.584L832.666,185.123C845.972,187.567 856.698,217.844 843.549,259.267L843.37,259.777ZM827.42,216.92C829.607,210.163 825.794,203.325 818.911,201.66L490.138,122.139C483.254,120.474 475.89,124.609 473.703,131.366L252.263,799.456C250.077,806.213 253.89,813.051 260.773,814.716L596.546,894.237C603.43,895.902 610.794,891.767 612.98,885.01L827.42,216.92ZM671.191,780.122L643.979,864.206L637.879,847.821C637.483,846.757 636.609,845.943 635.52,845.623L629.929,843.983L657.48,758.146L660.398,758.96L671.191,780.122ZM575.15,179.029L573.468,184.271C572.554,187.116 572.867,190.214 574.329,192.821C575.792,195.427 578.274,197.307 581.179,198.01L691.585,224.714C697.022,226.029 702.56,222.955 704.321,217.644L706.547,210.926L792.608,231.742L787.97,246.189C787.783,246.774 787.646,247.374 787.56,247.982C787.553,248.035 787.539,248.087 787.522,248.14C787.519,248.149 787.516,248.157 787.514,248.165L590.603,861.643C590.29,862.604 589.252,863.208 588.272,862.971C588.256,862.967 588.239,862.963 588.222,862.959L279.931,789.947C279.834,789.92 279.797,789.818 279.819,789.721C281.797,783.75 423.885,355.065 423.885,355.065C423.983,354.77 424.068,354.471 424.14,354.169L489.09,158.214L575.15,179.029ZM254.436,733.808L268.831,738.032L295.615,657.223L281.426,653.265L254.436,733.808ZM708.89,597.979L681.334,683.83L685.92,685.175C687.009,685.495 687.883,686.309 688.279,687.373L695.195,705.949L722.524,621.503L710.798,598.512L708.89,597.979ZM307.901,574.259L321.765,578.327L348.561,497.485L334.904,493.676L307.901,574.259ZM759.881,439.116L734.023,519.678L740.803,521.65C741.819,521.945 742.654,522.673 743.085,523.64L749.523,538.076L776.325,455.256L765.844,440.655L759.881,439.116ZM362.408,411.6L375.742,415.478L398.788,345.95L385.551,342.535L362.408,411.6ZM808.932,286.298L787.204,353.991L794.318,355.812C794.949,355.973 795.524,356.303 795.983,356.766L805.191,366.062L825.924,301.998C825.924,301.998 815.913,288.108 815.913,288.108L808.932,286.298ZM413.741,258.411L426.703,261.728L449.455,193.086L436.736,189.788L413.741,258.411Z" style="fill:white;"/>
    </g>
</svg>
