<?xml version="1.0" encoding="UTF-8" standalone="no"?>
<!DOCTYPE svg PUBLIC "-//W3C//DTD SVG 1.1//EN" "http://www.w3.org/Graphics/SVG/1.1/DTD/svg11.dtd">
<svg width="100%" height="100%" viewBox="0 0 1000 1000" version="1.1" xmlns="http://www.w3.org/2000/svg" xmlns:xlink="http://www.w3.org/1999/xlink" xml:space="preserve" xmlns:serif="http://www.serif.com/" style="fill-rule:evenodd;clip-rule:evenodd;stroke-linejoin:round;stroke-miterlimit:2;">
    <g transform="matrix(1.12448,0,0,1.26191,-53.1293,-78.0279)">
        <path d="M500,555L525,545C529.623,525.763 527.728,506.138 510,489L495,494C498.123,488.63 501.158,483.227 510,480C529.901,476.17 556.013,484.727 588,505C583.621,547.714 556.047,568.469 500,555Z" style="fill:white;"/>
        <path d="M657,324C634.75,327.794 621.127,337.666 611,350L602,349C608.984,339.654 617.026,331.181 626.5,323.5C626.749,320.54 628.016,318.334 632,316C636.79,313.857 641.458,312.339 646,312.5C648.46,314.88 649.661,316.708 650,319L655,319.5L657,324Z" style="fill:white;"/>
        <path d="M606,299C604.764,297.187 603.631,295.383 602,294.85C597.23,293.292 590.057,294.758 584.547,298C582.787,299.036 582.331,301.566 582,304C581.423,305.85 581.244,307.896 580,309.093C570.164,318.563 564.549,323.089 561,329L561,334C570.262,322.337 578.122,314.005 585,308L606,299Z" style="fill:white;"/>
        <path d="M105,685C98.03,686.862 95.685,690.595 95,695C95.56,696.905 96.502,698.314 98,699C105.087,700.201 109.096,699.027 112,697C113.897,699.804 115.92,700.403 118,700L454,549C457.875,562.26 463.544,573.426 480,572C492.458,574.061 501.347,554.357 496,548C512.147,544.863 517.279,542.362 520,540C522.624,523.553 522.464,507.532 506,494C494.836,498.565 479.25,503.238 460,508L447,517C439.356,517.437 432.45,522.338 426,530L110,678C106.507,679.075 104.082,680.885 105,685Z" style="fill:white;"/>
        <path d="M269,307L285,302C285.358,292.738 286.224,283.51 287.461,274.307C290.084,254.789 294.372,235.383 299,216C264.201,231.797 229.648,246.47 196,257C186.754,281.464 183.087,305.464 185,329C131.125,348.592 87.757,365.309 92,369C109.442,370.235 146.772,365.746 185,361C186.652,391.133 190.424,417.471 198,437C221.833,427.337 252.945,422.626 293,424L287,380L434,439L242,544L496,477C509.467,471.975 526.699,472.817 548,480L758,580C763.334,583.607 766.465,587.271 767,591C722.715,629.821 710.046,646.172 715,650C731.745,651.097 754.096,641.096 777,630L772,697C795.55,686.185 821.528,675.709 853,666C871.284,642.223 880.18,617.477 882,592L871,587L880,581L882,559L872,554L889,548C894.277,513.878 893.698,477.484 880,436L839,472C814.65,485.926 801.348,492.893 791,498L789,517L614,437C604.934,432.03 599.905,426.233 597,420C652.45,421.409 689.381,410.474 703,384C708.889,372.584 718.103,361.267 729,350L717,315C723.08,289.477 718.172,273.486 700,269C672.066,275.342 655.729,283.796 649,294C639.039,295.547 630.307,297.378 625,300L632,303C650.506,298.527 652.117,304.277 662,318.596C664.709,322.521 668.694,326.37 673,331C674.199,338.177 671.077,342.549 665,345C641.367,355.808 617.225,353.939 593,350C573.739,347.263 562.179,341.065 557,332C553.317,325.892 557.678,321.711 564,318L578.5,309.5L580,304C570.39,306.145 561.24,308.683 553,312C544.899,316.963 540.636,322.34 539,328L522,330L516,339L504,364L503,372L519,374C514.891,380.878 514.062,385.681 514,390L508,396L269,307Z" style="fill:white;"/>
        <path d="M795,228L726,292C732.576,290.751 738.985,289.672 744,290C789.293,310.257 803.76,346.882 806,390C793.918,437.79 768.562,444.573 735,426L719,435L725,438L709,447C730.294,452.199 751.347,458.326 772,466L781,439C807.545,430.964 827.735,420.268 837,405C841.002,407.355 845.56,408.57 851,405C864.135,395.241 864.741,383.84 862,372C859.013,367.561 853.754,364.839 846,364C843.357,324.058 828.64,294.844 800,278L800,231C799.791,226.756 798.047,225.928 795,228Z" style="fill:white;"/>
    </g>
</svg>
