<?xml version="1.0" encoding="UTF-8" standalone="no"?>
<!DOCTYPE svg PUBLIC "-//W3C//DTD SVG 1.1//EN" "http://www.w3.org/Graphics/SVG/1.1/DTD/svg11.dtd">
<svg width="100%" height="100%" viewBox="0 0 1000 1000" version="1.1" xmlns="http://www.w3.org/2000/svg" xmlns:xlink="http://www.w3.org/1999/xlink" xml:space="preserve" xmlns:serif="http://www.serif.com/" style="fill-rule:evenodd;clip-rule:evenodd;stroke-linejoin:round;stroke-miterlimit:2;">
    <g transform="matrix(4.83871,0,0,4.83871,-3540.32,-1537.1)">
        <path d="M742,340L882,340L906,382L882,420L928,502L881,502L858,462L813,462L789,502L742,502L788,422L742,340ZM811.5,460.5L788,422L812.5,381L857.5,381L811.5,460.5ZM837,421L880,421L858.5,459.5L815,459.5L837,421ZM859,379L811,379L789,342L880,342L859,379Z" style="fill:white;"/>
    </g>
</svg>
