<?xml version="1.0" encoding="UTF-8" standalone="no"?>
<!DOCTYPE svg PUBLIC "-//W3C//DTD SVG 1.1//EN" "http://www.w3.org/Graphics/SVG/1.1/DTD/svg11.dtd">
<svg width="100%" height="100%" viewBox="0 0 1000 1000" version="1.1" xmlns="http://www.w3.org/2000/svg" xmlns:xlink="http://www.w3.org/1999/xlink" xml:space="preserve" xmlns:serif="http://www.serif.com/" style="fill-rule:evenodd;clip-rule:evenodd;stroke-linejoin:round;stroke-miterlimit:2;">
    <g transform="matrix(7.14286,0,0,7.14286,-3785.71,-3357.14)">
        <path d="M599.287,602.462C569.173,579.658 545.93,550.602 540,505.8C555.51,488.252 575.943,479.419 600,477L600.563,477.058C624.376,479.557 644.611,488.389 660,505.8C654.023,550.955 630.46,580.114 600,603L599.287,602.462ZM599.406,592.052C574.311,573.049 554.942,548.835 550,511.5C562.925,496.877 579.952,489.516 600,487.5L600.469,487.548C620.313,489.631 637.176,496.991 650,511.5C645.019,549.129 625.384,573.429 600,592.5L599.406,592.052ZM599.5,582.502C591.089,578.3 585.651,572.409 582,565.502L584,566.002C584.071,569.784 589.929,575.517 599.5,582.502ZM600.5,579.502C601.884,563.422 608.198,551.891 619,544.502C618.794,538.191 617.328,533.005 609.5,533.502C610.29,535.72 610.947,537.923 610.5,540.002C608.81,540.163 607.138,539.951 605.5,539.002C607.514,541.502 608.166,544.002 608,546.502C599.74,552.592 596.472,562.937 600.5,579.502ZM598.5,578.159C594.724,565.056 595.902,553.658 606.5,545.502C604.886,542.592 602.478,539.929 598.5,538.502C600.832,536.784 603.166,536.948 605.5,537.502C604.543,532.861 591.87,529.882 586.5,535.002C589.598,535.95 592,536.052 593.5,538.502C591.201,539.961 588.873,540.195 586.5,538.502C586.29,542.007 588.166,544.091 592.5,544.502C593.857,544.698 594.415,546.211 594.5,548.502C587.309,558.877 588.904,568.748 598.5,578.159ZM593,575.502C588.465,572.034 585.798,568.367 585,564.502C583,564.566 581,563.478 579,561.502C580.996,561.66 582.715,561.405 584,560.502C582.551,557.869 580.572,556.241 578.5,554.788C579.861,554.547 582.623,555.856 582.5,556.345C582.952,557.185 585.111,558.596 586,559.002C585.303,561.072 586.504,563.055 588.5,565.002C588.793,568.293 591.257,572.028 593,575.502ZM588.5,562.502C588.397,556.558 589.511,552.024 591.5,548.502C587.831,546.599 584.497,546.599 581.5,548.502C583.732,548.616 585.742,549.577 587.5,551.502C585.864,552.713 584.083,553.114 582.121,552.502C582.67,554.423 584.256,556.055 586.5,557.502C587.711,558.346 588.146,560.363 588.5,562.502ZM581,553.502C579.674,553.171 578.345,552.907 577,553.002C578.384,546.818 579.164,542.48 579.5,539.502C574.29,539.252 570.599,537.577 570,533.002C574.714,533.927 577.893,532.777 579.5,529.502C575.667,525.257 571.833,525.648 568,527.002C566.893,514.355 580.494,514.926 603,523.502C599.107,523.544 595.226,523.734 591.5,526.002C592.926,527.502 593.35,529.002 593,530.502C586.973,531.411 584.929,533.265 584.5,535.502C586.616,536.051 588.172,536.859 589,538.002C587.47,537.65 586.467,537.542 585,537.002C583.982,542.331 587.314,544.818 591.5,546.502C585.848,544.605 581.12,545.214 579.5,549.002C583.373,550.236 584.018,550.64 584.5,551.002C581.566,550.646 579.643,550.97 581,553.502ZM620,541.502C622.522,537.006 624.005,532.508 623,528.002C624.823,527.405 626.84,527.098 629,527.002C620.461,520.36 613.975,518.808 609,521.002C611.773,523.169 613.408,525.335 614.5,527.502C612.333,527.723 610.167,527.764 608,527.502C608.601,529.193 610.043,530.361 612.5,532.002C618.404,532.271 619.542,536.863 620,541.502ZM607,538.002C607.8,538.263 608.428,538.186 609,538.002C608.958,536.002 608.485,534.002 608,532.002C607.507,533.966 607.027,535.932 607,538.002ZM624.5,536.502C626.141,534.002 627.619,531.502 629,529.002C627.667,528.983 626.333,529.107 625,529.502C625.189,531.835 624.91,534.169 624.5,536.502ZM596.492,535.002C595.818,535.599 595.149,535.867 594.484,535.853C593.819,535.838 593.158,535.54 592.5,535.002C593.749,534.296 595.064,534.164 596.492,535.002ZM629,525.002L628.5,521.502L639,533.502C632.34,517.964 625.721,502.384 610.5,495.502C607.825,495.411 606.382,496.857 605.5,499.002C610.784,501.298 613.406,504.725 614,509.002C609.589,510.719 605.836,509.154 602.5,505.502C599.326,509.497 602.795,513.916 608.89,518.502C615.737,517.186 622.423,519.78 629,525.002ZM614,522.502C614.648,522.268 615.254,522.347 615.833,522.633C616.411,522.918 616.962,523.41 617.5,524.002C616.333,524.308 615.167,524.415 614,522.502ZM574.5,522.002C575.583,521.273 576.667,521.056 577.75,521.192C578.833,521.327 579.917,521.817 581,522.502C578.833,524.013 576.667,524.472 574.5,522.002ZM612,499.002C613.127,499.049 614.047,499.436 614.788,500.118C615.528,500.8 616.09,501.776 616.5,503.002C614.202,502.646 612.535,501.517 612,499.002Z" style="fill:white;"/>
    </g>
</svg>
