<?xml version="1.0" encoding="UTF-8" standalone="no"?>
<!DOCTYPE svg PUBLIC "-//W3C//DTD SVG 1.1//EN" "http://www.w3.org/Graphics/SVG/1.1/DTD/svg11.dtd">
<svg width="100%" height="100%" viewBox="0 0 1000 1000" version="1.1" xmlns="http://www.w3.org/2000/svg" xmlns:xlink="http://www.w3.org/1999/xlink" xml:space="preserve" xmlns:serif="http://www.serif.com/" style="fill-rule:evenodd;clip-rule:evenodd;stroke-linejoin:round;stroke-miterlimit:2;">
    <g transform="matrix(3.58149,0,0,3.58149,-1290.98,-1290.75)">
        <path d="M540.369,568.146L531.369,571.146L527.869,567.146C529.861,579.407 530.11,591.526 530.369,603.646L516.869,606.146L516.869,610.646L559.869,625.646L594.869,618.146L594.869,613.146L543.369,601.646L541.369,602.146C541.214,590.979 541.086,579.313 540.369,568.146ZM459.761,568.146L468.761,571.146L472.261,567.146C470.269,579.407 470.021,591.526 469.761,603.646L483.261,606.146L483.261,610.646L440.261,625.646L405.261,618.146L405.261,613.146L456.761,601.646L458.761,602.146C458.916,590.979 459.045,579.313 459.761,568.146ZM587.452,541.353C588.621,529.616 581.732,494.598 573.369,490.646C575.196,488.141 577.545,486.223 580.64,485.146C590.296,488.567 596.984,539.512 591.869,542.146C591.697,542.278 591.533,542.399 591.374,542.51C609.51,553.91 594.697,582.101 589.369,580.146C587.136,579.327 599.808,549.89 587.869,548.241C574.332,546.37 575.642,576.916 575.369,577.146C570.014,581.663 563.224,545.597 587.452,541.353ZM412.679,541.353C411.509,529.616 418.399,494.598 426.761,490.646C424.934,488.141 422.585,486.223 419.49,485.146C409.835,488.567 403.146,539.512 408.261,542.146C408.433,542.278 408.598,542.399 408.756,542.51C390.621,553.91 405.433,582.101 410.761,580.146C412.994,579.327 400.322,549.89 412.261,548.241C425.799,546.37 424.489,576.916 424.761,577.146C430.117,581.663 436.906,545.597 412.679,541.353ZM477.261,499.646C477.261,499.646 477.618,454.589 474.261,438.146C476.215,436.217 446.61,425.275 437.261,431.146C436.794,431.439 443.725,448.936 440.261,450.146C428.491,457.388 418.276,467.615 409.261,480.146C411.821,482.413 413.482,483.904 416.261,486.146C416.805,485.388 419.432,483.532 419.761,483.646C423.018,484.779 426.748,487.029 428.261,489.92C428.749,490.853 426.452,492.931 425.757,493.272C429.202,495.608 432.984,497.905 437.261,500.146C438.565,498.479 439.519,496.813 440.261,495.146L440.261,541.146C440.261,548.291 437.845,554.965 434.261,561.146C446.077,563.056 457.669,565.317 468.261,569.146L476.261,559.146L492.261,564.146L497.261,555.146L477.261,555.146L477.261,499.646ZM522.869,499.646C522.869,499.646 522.513,454.589 525.869,438.146C523.916,436.217 553.52,425.275 562.869,431.146C563.336,431.439 556.406,448.936 559.869,450.146C571.64,457.388 581.855,467.615 590.869,480.146C588.31,482.413 586.649,483.904 583.869,486.146C583.325,485.388 580.699,483.532 580.369,483.646C577.112,484.779 573.382,487.029 571.869,489.92C571.381,490.853 573.679,492.931 574.373,493.272C570.929,495.608 567.146,497.905 562.869,500.146C561.565,498.479 560.612,496.813 559.869,495.146L559.869,541.146C559.869,548.291 562.285,554.965 565.869,561.146C554.053,563.056 542.461,565.317 531.869,569.146L523.869,559.146L507.869,564.146L502.869,555.146L522.869,555.146L522.869,499.646ZM479.332,552.146L479.332,500.146L479.332,500.135C479.224,480.562 479.584,460.155 477.379,444.188C484.362,446.634 491.1,449.459 499.869,449.161L499.869,449.146L500.065,449.154L500.261,449.146L500.261,449.161C509.031,449.459 515.768,446.634 522.751,444.188C520.547,460.155 520.907,480.562 520.798,500.135L520.799,500.146L520.799,552.146L479.332,552.146ZM470,527.25C472.622,527.25 474.75,529.378 474.75,532C474.75,534.622 472.622,536.75 470,536.75C467.378,536.75 465.25,534.622 465.25,532C465.25,529.378 467.378,527.25 470,527.25ZM469.25,485.25C471.872,485.25 474,487.378 474,490C474,492.622 471.872,494.75 469.25,494.75C466.628,494.75 464.5,492.622 464.5,490C464.5,487.378 466.628,485.25 469.25,485.25ZM469,452.75C471.622,452.75 473.75,454.878 473.75,457.5C473.75,460.122 471.622,462.25 469,462.25C466.378,462.25 464.25,460.122 464.25,457.5C464.25,454.878 466.378,452.75 469,452.75ZM500.065,374.36C528.146,374.191 541.712,377.669 559.869,382.619L558.922,427.664C557.202,427.39 555.289,427.309 553.263,427.398C543.944,427.81 532.089,431.671 527.109,434.279C525.76,434.985 524.845,435.668 524.411,436.171C523.864,436.805 523.709,437.432 523.706,437.923C523.705,438.046 523.713,438.168 523.73,438.286C523.521,439.341 523.328,440.422 523.15,441.524C522.766,441.483 522.374,441.526 521.999,441.657C515.193,444.037 508.657,446.876 500.065,446.515C491.474,446.876 484.938,444.037 478.131,441.657C477.757,441.526 477.364,441.483 476.981,441.524C476.802,440.422 476.609,439.341 476.401,438.286C476.417,438.168 476.425,438.046 476.424,437.923C476.422,437.432 476.266,436.805 475.719,436.171C475.286,435.668 474.37,434.985 473.021,434.279C468.041,431.671 456.187,427.81 446.868,427.398C444.841,427.309 442.929,427.39 441.209,427.664L440.261,382.619C458.419,377.669 471.985,374.191 500.065,374.36ZM500.261,431.643L500.263,431.643C500.524,431.653 500.785,431.639 501.046,431.636C502.988,431.613 504.947,431.57 506.917,431.53C511.452,431.438 516.039,431.359 520.587,431.538C523.701,431.661 525.824,431.712 528.869,432.146C528.973,432.162 529.071,432.091 529.087,431.987C529.103,431.883 529.032,431.786 528.928,431.77C524.868,431.09 521.685,430.94 517.509,430.775C514.151,430.643 510.78,430.62 507.435,430.624C505.184,430.627 502.945,430.633 500.73,430.642C500.573,430.642 500.417,430.638 500.261,430.643L500.261,430.673C500.196,430.664 500.131,430.658 500.065,430.654C500,430.658 499.935,430.664 499.869,430.673L499.869,430.643C499.714,430.638 499.557,430.642 499.401,430.642C497.186,430.633 494.947,430.627 492.696,430.624C489.351,430.62 485.98,430.643 482.621,430.775C478.446,430.94 475.262,431.09 471.203,431.77C471.099,431.786 471.028,431.883 471.044,431.987C471.06,432.091 471.157,432.162 471.261,432.146C474.307,431.712 476.43,431.661 479.543,431.538C484.091,431.359 488.679,431.438 493.214,431.53C495.183,431.57 497.142,431.613 499.084,431.636C499.346,431.639 499.607,431.653 499.868,431.643L499.869,431.643L499.869,431.615C499.935,431.623 500,431.628 500.065,431.633C500.131,431.628 500.196,431.623 500.261,431.615L500.261,431.643ZM547.869,407.146C549.156,400.715 540.811,396.749 531.942,395.749C523.074,394.748 513.681,396.713 512.869,402.146C511.247,413.012 546.271,415.139 547.869,407.146ZM452.261,407.146C450.975,400.715 459.319,396.749 468.188,395.749C477.057,394.748 486.45,396.713 487.261,402.146C488.883,413.012 453.86,415.139 452.261,407.146Z" style="fill:white;"/>
    </g>
</svg>
