<?xml version="1.0" encoding="UTF-8" standalone="no"?>
<!DOCTYPE svg PUBLIC "-//W3C//DTD SVG 1.1//EN" "http://www.w3.org/Graphics/SVG/1.1/DTD/svg11.dtd">
<svg width="100%" height="100%" viewBox="0 0 1000 1000" version="1.1" xmlns="http://www.w3.org/2000/svg" xmlns:xlink="http://www.w3.org/1999/xlink" xml:space="preserve" xmlns:serif="http://www.serif.com/" style="fill-rule:evenodd;clip-rule:evenodd;stroke-linejoin:round;stroke-miterlimit:2;">
    <g transform="matrix(2.51397,0,0,2.51397,-741.899,-186.313)">
        <path d="M494.225,353.656C496.517,350.104 497.736,346.552 497,343L497,338C498.232,336.96 498.472,335.596 498,334C498.652,331.667 498.876,329.333 499,327C497.216,329.652 495.599,332.765 494.141,336.319L494,336.664C492.505,332.966 490.841,329.738 489,327C489.124,329.333 489.348,331.667 490,334C489.528,335.596 489.768,336.96 491,338L491,343C490.24,346.667 491.564,350.333 494,354L494.225,353.656ZM509,295L508.5,297L515.5,302L517.5,318.5C534.635,336.149 550.838,355.046 567,374C555.001,355.858 543.001,337.65 531,320C530.56,317.594 529.48,315.285 528.25,313L542,315C533.6,311.008 524.71,307.717 518,301.99C515.095,299.51 512.153,297.113 509,295ZM479,295L479.5,297L472.5,302L470.5,318.5C453.365,336.149 437.162,355.046 421,374C432.999,355.858 444.999,337.65 457,320C457.44,317.594 458.52,315.285 459.75,313L446,315C454.4,311.008 463.29,307.717 470,301.99C472.905,299.51 475.847,297.113 479,295ZM494,277C492.758,278.251 491.765,279.93 491,282C491.755,283.967 492.733,285.964 494,288C495.267,285.964 496.245,283.967 497,282C496.258,279.995 495.304,278.356 494.116,277.119L494,277ZM536,256L527,262.5C530.28,264.814 534.259,267.24 540,270L530,272C536.496,273.66 543.72,275.162 554,276C557.904,277.704 577.839,279.72 583,280C586.182,281.847 590.66,281.89 595,281.5C594.249,280.772 594.038,280.123 594,279.5C597.572,279.328 601.339,279.659 604.5,279.117C606.224,278.822 607.767,278.267 609,277.23C610.851,275.672 613.386,274.462 616.5,273.5C612.707,272.319 609.032,272.839 605.5,273.782C602.837,274.493 600.073,273.435 597.5,273L602.5,266.5C598.487,268.404 594.333,270.092 590,271.5C588.048,270.373 586.438,270.595 585,271.5C582.412,267.894 564.449,263.186 552,264C546.05,264.389 542.065,257.327 536,256ZM452,256L461,262.5C457.72,264.814 453.741,267.24 448,270L458,272C451.504,273.66 444.28,275.162 434,276C430.096,277.704 410.161,279.72 405,280C401.818,281.847 397.34,281.89 393,281.5C393.751,280.772 393.962,280.123 394,279.5C390.428,279.328 386.661,279.659 383.5,279.117C381.776,278.822 380.233,278.267 379,277.23C377.149,275.672 374.614,274.462 371.5,273.5C375.293,272.319 378.968,272.839 382.5,273.782C385.163,274.493 387.927,273.435 390.5,273L385.5,266.5C389.513,268.404 393.667,270.092 398,271.5C399.952,270.373 401.562,270.595 403,271.5C405.588,267.894 423.551,263.186 436,264C441.95,264.389 445.935,257.327 452,256ZM493.875,255.879C492.589,254.632 491.613,253.342 491,252C489.195,252.86 488.862,253.86 488,257C487.083,255.667 486.317,254.333 486,253C482.169,249.216 478.803,245.23 476,241C478.766,239.954 481.159,238.748 483.322,237.443C483.214,237.296 483.107,237.148 483,237C481.206,232.076 480.547,227.559 480,223C481.286,226.463 481.509,229.967 485,232C489.16,227.667 490.552,221.197 491,214C490.541,211.759 489.558,210.061 490,208C490.5,205.667 492.15,202.556 494,200L494.173,200.241C495.952,202.749 497.516,205.739 498,208C498.442,210.061 497.459,211.759 497,214C497.448,221.197 498.84,227.667 503,232C506.491,229.967 506.714,226.463 508,223C507.453,227.559 506.794,232.076 505,237C504.893,237.148 504.786,237.296 504.678,237.443C506.841,238.748 509.234,239.954 512,241C509.197,245.23 505.831,249.216 502,253C501.683,254.333 500.917,255.667 500,257C499.138,253.86 498.805,252.86 497,252C496.367,253.385 495.348,254.716 494,256L493.875,255.879ZM514,240L517.5,240L518,238C536.631,227.766 564.579,200.794 561.13,199C561.13,199 633.754,123.432 660,94L642,99L545,188L545,184L536,190C523.924,206.923 514.994,219.918 510,228L508,236L514,240ZM474,240L470.5,240L470,238C451.369,227.766 423.421,200.794 426.87,199C426.87,199 354.246,123.432 328,94L346,99L443,188L443,184L452,190C464.076,206.923 473.006,219.918 478,228L480,236L474,240ZM493.861,451.273C490.965,436.003 489.166,420.941 488,406C486.333,406.312 484.667,406.276 483,406C484.79,404 486.165,402 487,400C486.401,389.57 482.637,363.669 481.491,362C477.642,358.334 478.739,352.943 481.416,347C478.996,344.029 478.955,341.025 480.428,338C481.398,337.75 477.488,323.682 473,317L475,302L482,298C481.612,294.333 481.55,290.667 482,287C484.776,291.834 486.472,295.354 488,299C488.994,301.371 491.911,303.559 494,304.5L494.198,304.408C496.269,303.422 499.037,301.297 500,299C501.528,295.354 503.224,291.834 506,287C506.45,290.667 506.388,294.333 506,298L513,302L515,317C510.512,323.682 506.602,337.75 507.572,338C509.045,341.025 509.004,344.029 506.584,347C509.261,352.943 510.358,358.334 506.509,362C505.363,363.669 501.599,389.57 501,400C501.835,402 503.21,404 505,406C503.333,406.276 501.667,406.312 500,406C498.816,421.178 496.978,436.481 494,452L493.861,451.273ZM493.846,300.991C487.386,300.529 488.508,288.09 480,281.237C472.484,275.183 473.644,265.209 473,261C459.765,261.833 450.152,251.855 441,240.5L425.5,231L441.5,238.5C457.247,237.642 470.964,238.934 476,249.418L481,251C483.895,254.473 485.798,260.257 486,268.5C488.383,264.978 491.019,262.366 494,261L494.139,261.065C497.063,262.448 499.654,265.033 502,268.5C502.202,260.257 504.105,254.473 507,251L512,249.418C517.036,238.934 530.753,237.642 546.5,238.5L562.5,231L547,240.5C537.848,251.855 528.235,261.833 515,261C514.356,265.209 515.516,275.183 508,281.237C499.425,288.144 500.632,300.724 494,301L493.846,300.991Z" style="fill:white;"/>
    </g>
</svg>
