<?xml version="1.0" encoding="UTF-8" standalone="no"?>
<!DOCTYPE svg PUBLIC "-//W3C//DTD SVG 1.1//EN" "http://www.w3.org/Graphics/SVG/1.1/DTD/svg11.dtd">
<svg width="100%" height="100%" viewBox="0 0 1000 1000" version="1.1" xmlns="http://www.w3.org/2000/svg" xmlns:xlink="http://www.w3.org/1999/xlink" xml:space="preserve" xmlns:serif="http://www.serif.com/" style="fill-rule:evenodd;clip-rule:evenodd;stroke-linejoin:round;stroke-miterlimit:2;">
    <g transform="matrix(9.47368,0,0,9.47368,-5492.11,-4171.32)">
        <path d="M624.5,530C625.328,530 625.849,530.915 626,532C626.185,533.327 625.563,534.112 624.5,534C623.39,533.883 622.826,533.156 623,532C623.163,530.918 623.672,530 624.5,530ZM680,470C677.336,468.137 653.547,467.956 643.5,472.69C634.759,476.808 627.005,483.84 626,492.5C626,492.5 626.62,522.376 626,523C624.974,523.721 623.978,523.681 623,523L622.477,497C621.39,494.098 620.251,493.269 619,497C618.756,501.033 617.352,501.793 616.5,501.104C616.009,500.706 614.917,499.711 615,497C615.212,490.069 612.584,486.259 604,489C593.281,487.143 588.747,482.734 585,478C596.46,483.078 608.271,481.46 612.455,471C613.788,467.668 612.897,462.85 609,456C635.824,448.834 660.233,450.719 680,470Z" style="fill:white;"/>
    </g>
</svg>
