<?xml version="1.0" encoding="UTF-8" standalone="no"?>
<!DOCTYPE svg PUBLIC "-//W3C//DTD SVG 1.1//EN" "http://www.w3.org/Graphics/SVG/1.1/DTD/svg11.dtd">
<svg width="100%" height="100%" viewBox="0 0 1000 1000" version="1.1" xmlns="http://www.w3.org/2000/svg" xmlns:xlink="http://www.w3.org/1999/xlink" xml:space="preserve" xmlns:serif="http://www.serif.com/" style="fill-rule:evenodd;clip-rule:evenodd;stroke-linejoin:round;stroke-miterlimit:2;">
    <g transform="matrix(2.72727,0,0,2.72727,-925,-727.273)">
        <path d="M513.169,305.859C512.309,296.369 511.27,289.358 510,285C512.37,287.464 514.433,294.443 516.227,304.91C522.486,303.008 528.743,301.359 535,300C528.88,302.57 522.792,305.25 516.738,308.029C520.135,329.724 522.532,364.293 524.222,404.163C544.362,417.324 564.705,434.106 585,450C582.286,456.219 580.904,463.008 580,470C563.765,465.55 547.581,460.965 530,460C568.844,479.457 589.979,502.127 610,525C583.962,503.974 556.224,485.7 526.36,470.882C527.11,502.558 527.566,534.917 527.846,565C528.022,583.98 526.283,601.046 525,615C523.948,598.071 523.019,581.373 522.191,565C520.446,530.513 518.63,497.481 517.776,466.745C508.715,462.509 499.461,458.587 490,455C497.924,449.209 506.742,444.678 517.314,442.615C517.216,433.96 517.112,425.607 517,417.557C495.629,403.938 474.078,395.204 452,401C444.906,392.333 439.283,383.667 435,375C449.255,365.696 463.88,356.875 480,350C468.339,349.904 456.673,351.22 445,355C440.545,348.814 438.022,344.203 436,340C461.723,326.293 487.447,314.005 513.169,305.859ZM524.951,422.836C525.172,428.989 525.378,435.235 525.57,441.551C534.163,440.986 543.853,441.968 555,445C544.988,437.464 534.983,429.741 524.951,422.836ZM513.483,309.534C493.709,318.744 474.249,329.011 455,340C469.63,339.214 483.801,338.707 495,340C500.827,343.177 503.236,346.568 505,350C485.598,360.149 470.289,370.075 455,380C475.138,378.559 495.809,386.733 516.723,399.431C516.069,360.425 515.131,329.967 513.483,309.534Z" style="fill:white;"/>
    </g>
</svg>
