<?xml version="1.0" encoding="UTF-8" standalone="no"?>
<!DOCTYPE svg PUBLIC "-//W3C//DTD SVG 1.1//EN" "http://www.w3.org/Graphics/SVG/1.1/DTD/svg11.dtd">
<svg width="100%" height="100%" viewBox="0 0 1000 1000" version="1.1" xmlns="http://www.w3.org/2000/svg" xmlns:xlink="http://www.w3.org/1999/xlink" xml:space="preserve" xmlns:serif="http://www.serif.com/" style="fill-rule:evenodd;clip-rule:evenodd;stroke-linejoin:round;stroke-miterlimit:2;">
    <g transform="matrix(4.47144,0,0,4.47144,-334.544,-1697.72)">
        <path d="M161.285,556.601L172.715,537L172.731,537L257.277,392L287.277,392L202.731,537L212.595,537L240,490L270,490L242.595,537L259,537L247.571,556.601L231.166,556.601L213.43,587.02C204.563,589.611 195.193,591 185.5,591C184.045,591 182.597,590.969 181.164,590.907L201.166,556.601L191.302,556.601L171.792,590.061C162.753,588.813 154.1,586.349 146.003,582.84L146.003,582.84C110.712,567.543 86,532.385 86,491.5C86,436.584 130.584,392 185.5,392C205.552,392 224.227,397.944 239.853,408.163L214.73,451.25C206.521,445.275 196.419,441.75 185.5,441.75C158.042,441.75 135.75,464.042 135.75,491.5C135.75,511.598 147.693,528.928 164.862,536.774L164.731,537L164.715,537L153.285,556.601L161.285,556.601ZM170.574,526.979C156.737,521.145 147.015,507.449 147.015,491.5C147.015,470.259 164.259,453.015 185.5,453.015C194.354,453.015 202.513,456.011 209.019,461.044L197.185,481.34C194.345,478.077 190.162,476.013 185.5,476.013C176.952,476.013 170.013,482.952 170.013,491.5C170.013,498.99 175.342,505.246 182.411,506.678L170.574,526.979Z" style="fill:white;"/>
    </g>
</svg>
