<?xml version="1.0" encoding="UTF-8" standalone="no"?>
<!DOCTYPE svg PUBLIC "-//W3C//DTD SVG 1.1//EN" "http://www.w3.org/Graphics/SVG/1.1/DTD/svg11.dtd">
<svg width="100%" height="100%" viewBox="0 0 1000 1000" version="1.1" xmlns="http://www.w3.org/2000/svg" xmlns:xlink="http://www.w3.org/1999/xlink" xml:space="preserve" xmlns:serif="http://www.serif.com/" style="fill-rule:evenodd;clip-rule:evenodd;stroke-linejoin:round;stroke-miterlimit:2;">
    <g transform="matrix(7.83813,0,0,7.83813,-5187.56,-3545.38)">
        <path d="M753.555,515.422C753.629,515.046 753.763,514.691 753.945,514.367L745.657,504.718L755.305,513.007C755.519,512.886 755.747,512.787 755.986,512.712C756.033,508.409 756.172,504.107 756.4,499.809C756.513,497.685 756.648,495.561 756.805,493.44C756.883,492.394 756.965,491.349 757.053,490.304C757.683,497.785 758.038,505.255 758.121,512.712C758.374,512.791 758.614,512.898 758.839,513.029L766.423,506.745L760.139,514.329C760.332,514.661 760.473,515.027 760.55,515.416C760.55,515.416 780.833,515.801 783.038,516.115L783.012,516.119C781.892,516.279 780.916,516.463 777.278,516.602C774.19,516.72 769.186,516.805 760.55,516.814C760.476,517.188 760.343,517.541 760.161,517.863L768.45,527.512L758.801,519.223C758.587,519.343 758.359,519.443 758.121,519.518C758.038,526.998 757.681,534.468 757.053,541.926L757.045,541.825C756.958,540.787 756.876,539.749 756.799,538.71C756.644,536.6 756.51,534.488 756.398,532.375C756.171,528.093 756.033,523.806 755.986,519.518C755.733,519.438 755.492,519.332 755.267,519.201L747.683,525.485L753.967,517.901C753.773,517.567 753.632,517.199 753.555,516.808C753.555,516.808 728.958,516.401 668.215,516.115L668.926,516.111C729.351,515.826 753.555,515.422 753.555,515.422Z" style="fill:white;"/>
    </g>
</svg>
