<?xml version="1.0" encoding="UTF-8" standalone="no"?>
<!DOCTYPE svg PUBLIC "-//W3C//DTD SVG 1.1//EN" "http://www.w3.org/Graphics/SVG/1.1/DTD/svg11.dtd">
<svg width="100%" height="100%" viewBox="0 0 1000 1000" version="1.1" xmlns="http://www.w3.org/2000/svg" xmlns:xlink="http://www.w3.org/1999/xlink" xml:space="preserve" xmlns:serif="http://www.serif.com/" style="fill-rule:evenodd;clip-rule:evenodd;stroke-linejoin:round;stroke-miterlimit:2;">
    <g transform="matrix(2.6668,0,0,2.6668,-595.679,-1300.78)">
        <path d="M420,630L435,824L420,844L400,827L407.5,630C409.632,628.484 417.272,627.941 420,630ZM428,780L406,774L405,794L429,799L428,780ZM425,721L407,715L407,735L426,739L425,721ZM421,670L408,665L408,684L422,688L421,670ZM426,592C422,590.225 409,590.062 406,592C408.401,603.076 407.405,622.11 410,627C412.624,625.622 420,627 420,627C420,627 426.791,601.497 426,592ZM388,565.5L390.237,562.816L388,565.5C372.024,538.356 371.145,510.321 398,507C436.897,502.19 453.747,534.261 440.5,561.5L440.408,561.957C435.925,571.721 433.037,580.984 429,589L424.5,589.5C428.095,583.579 435.713,559.214 436.155,559.221C449.201,535.494 431.73,509.255 400,511.639C388.459,512.506 383.604,519.584 382.684,530C381.647,541.76 385.6,555.988 390.5,562.5C398.918,576.12 407.153,582.948 411,589.5L407.5,589.5C403.331,583.118 394.452,577.095 388,565.5ZM389.943,563.169L390.237,562.816L389.943,563.169Z" style="fill:white;"/>
    </g>
</svg>
