<?xml version="1.0" encoding="UTF-8" standalone="no"?>
<!DOCTYPE svg PUBLIC "-//W3C//DTD SVG 1.1//EN" "http://www.w3.org/Graphics/SVG/1.1/DTD/svg11.dtd">
<svg width="100%" height="100%" viewBox="0 0 1000 1000" version="1.1" xmlns="http://www.w3.org/2000/svg" xmlns:xlink="http://www.w3.org/1999/xlink" xml:space="preserve" xmlns:serif="http://www.serif.com/" style="fill-rule:evenodd;clip-rule:evenodd;stroke-linejoin:round;stroke-miterlimit:2;">
    <g transform="matrix(3.58912,0,0,3.58912,-1360.29,-1067.09)">
        <path d="M547,509L538.5,504C545.809,494.246 555.582,486.866 564.515,483C576.212,477.938 589.743,476.029 597.5,483.641C605.028,491.028 599.864,508.365 579,523C562.66,534.012 554.266,543.998 553.5,553L589.5,543.5L589,550L542.5,562C541.069,546.716 552.244,531.915 573.5,517.5C590.718,504.73 590.516,497.839 586,493.22C577.119,484.137 561.822,495.909 547,509ZM582,493C591.467,498.692 584.078,507.054 573,516C550.882,530.762 540.318,545.767 540.587,561C537.612,557.375 536.544,552.634 537,547C542.45,534.417 553.022,522.22 570,510.506C576.399,505.292 582.369,499.967 582,493ZM589,542L585.5,538L557.5,545.5C556.622,547.263 555.796,549.043 555.5,551L589,542ZM537.5,503L534,496.5C546.887,482.292 557.624,473.238 573,471.446C581.953,470.402 589.45,472.559 595.5,480.5C588.908,476.689 581.862,476.132 574.405,478C556.449,482.497 546.937,490.931 537.5,503ZM516.06,440.791L502.873,446.648L474.911,378.629L445.223,391.936L459.822,334.725L487.195,320.477L516.06,440.791ZM500.581,445.718L495.098,441.872L469.411,382.871L474.009,380.945L500.581,445.718ZM486.833,318.711L479.072,311.242L449.109,323.898L435.854,372.481L443.558,390.72L458.345,333.046L486.833,318.711Z" style="fill:white;"/>
    </g>
</svg>
