<?xml version="1.0" encoding="UTF-8" standalone="no"?>
<!DOCTYPE svg PUBLIC "-//W3C//DTD SVG 1.1//EN" "http://www.w3.org/Graphics/SVG/1.1/DTD/svg11.dtd">
<svg width="100%" height="100%" viewBox="0 0 1000 1000" version="1.1" xmlns="http://www.w3.org/2000/svg" xmlns:xlink="http://www.w3.org/1999/xlink" xml:space="preserve" xmlns:serif="http://www.serif.com/" style="fill-rule:evenodd;clip-rule:evenodd;stroke-linejoin:round;stroke-miterlimit:2;">
    <g transform="matrix(1.04474,0,0,1.04474,4.50175,18.6579)">
        <path d="M155.516,821.565C161.305,830.611 167.513,839.363 174.12,847.801C165.664,861.411 157.14,875.969 148.56,891.46L155.516,821.565ZM159.346,783.086L190.18,473.277C204.587,506.561 220.99,533.578 238.883,554.696C226.742,582.336 220,612.887 220,645C220,683.67 229.776,720.074 246.985,751.864C227.327,771.798 207.348,797.031 187.043,827.654C176.63,813.647 167.352,798.746 159.346,783.086ZM505.724,549.327C524.263,562.794 538.52,581.804 546.049,603.913C519.676,642.411 492.564,690.787 464.693,749.264C462.739,749.704 460.766,750.093 458.775,750.43C421.556,709.017 382.956,690.53 342.927,695.867C333.432,679.415 328,660.337 328,640C328,630.338 329.226,620.961 331.532,612.01C359.602,616.894 388.932,612.639 418.395,600.101C448.387,587.338 477.789,570.24 505.724,549.327ZM250.026,566.9C272.773,589.954 297.637,604.219 323.686,610.398C321.279,619.871 320,629.787 320,640C320,660.756 325.281,680.289 334.57,697.322C309.679,702.668 284.235,717.159 258.218,741.016C243.379,712.229 235,679.585 235,645C235,617.404 240.335,591.044 250.026,566.9ZM440,610C459.317,610 475,625.683 475,645C475,664.317 459.317,680 440,680C420.683,680 405,664.317 405,645C405,625.683 420.683,610 440,610ZM440,612.333C458.029,612.333 472.667,626.971 472.667,645C472.667,663.029 458.029,677.667 440,677.667C421.971,677.667 407.333,663.029 407.333,645C407.333,626.971 421.971,612.333 440,612.333ZM578.155,482.656C592.526,494.459 605.304,508.132 616.12,523.307C595.14,540.648 573.645,564.804 551.626,595.905C543.468,575.29 529.76,557.467 512.345,544.279C535.512,526.283 557.615,505.645 578.155,482.656ZM651.652,377.18C703.614,279.791 729.779,160.207 710.598,30C772.59,210.496 806.567,386.989 798.941,557.537C783.355,536.418 767.401,520.186 751.058,508.915C729.2,457.159 694.793,411.975 651.652,377.18ZM640.483,397.103C672.514,423.574 699.23,456.258 718.775,493.297C689.672,485.048 659.434,491.854 628.019,514.161C616.583,498.198 603.111,483.79 587.989,471.325C607.152,448.597 624.801,423.763 640.483,397.103Z" style="fill:white;"/>
    </g>
</svg>
