<?xml version="1.0" encoding="UTF-8" standalone="no"?>
<!DOCTYPE svg PUBLIC "-//W3C//DTD SVG 1.1//EN" "http://www.w3.org/Graphics/SVG/1.1/DTD/svg11.dtd">
<svg width="100%" height="100%" viewBox="0 0 1000 1000" version="1.1" xmlns="http://www.w3.org/2000/svg" xmlns:xlink="http://www.w3.org/1999/xlink" xml:space="preserve" xmlns:serif="http://www.serif.com/" style="fill-rule:evenodd;clip-rule:evenodd;stroke-linejoin:round;stroke-miterlimit:2;">
    <g transform="matrix(1.45633,0,0,1.45633,-121.041,-285.597)">
        <path d="M208.48,372.316L523.872,565.399C523.964,565.456 524.071,565.486 524.18,565.485C526.525,565.475 530.414,566.348 538.705,569.975C541.75,572.005 705.16,680.987 705.16,680.987C705.165,680.991 705.171,680.994 705.177,680.998C717.851,688.811 728.565,700.853 732.874,708.962C733.95,710.986 734.624,712.755 734.805,714.139C734.909,714.935 734.856,715.586 734.569,716.05C734.569,716.05 724.074,733.075 724.074,733.075C723.309,734.317 722.072,735.314 720.461,736.102C717.932,737.34 714.5,738.056 710.454,738.336C694.461,739.441 668.995,733.677 651.03,724.95C651.029,724.949 506.528,635.87 506.528,635.87C505.195,631.693 502.949,627.41 498.811,622.915C498.741,622.839 498.652,622.782 498.552,622.752C491.824,620.679 484.652,620.778 477.373,621.414C477.374,621.414 182.676,425.663 182.676,425.663C182.676,425.663 179.328,414.572 179.328,414.572C179.328,414.572 186.774,402.538 186.774,402.538C186.774,402.538 485.065,586.423 485.065,586.423C485.34,586.593 485.701,586.507 485.871,586.232L500.021,563.277C500.021,563.277 502.659,559.951 502.659,559.951C502.763,559.819 502.806,559.649 502.776,559.484C502.747,559.319 502.648,559.174 502.505,559.087C502.505,559.087 214.297,382.837 204.586,376.898C204.586,376.898 204.21,372.785 204.21,372.785L208.48,372.316ZM494.419,559.297L497.557,561.231C497.557,561.231 484.528,582.366 484.528,582.366C484.528,582.366 460.255,567.403 460.255,567.403L494.419,559.297ZM488.216,567.019C487.085,566.321 485.835,566.113 484.839,566.335C484.098,566.501 483.49,566.9 483.119,567.501C482.748,568.103 482.665,568.826 482.85,569.563C483.098,570.552 483.846,571.575 484.977,572.272C486.109,572.97 487.359,573.178 488.354,572.956C489.095,572.79 489.704,572.391 490.075,571.79C490.446,571.188 490.529,570.465 490.344,569.728C490.095,568.739 489.348,567.716 488.216,567.019ZM456.588,565.142L435.402,552.082C435.402,552.082 469.566,543.976 469.566,543.976C469.566,543.976 490.751,557.036 490.751,557.036L456.588,565.142ZM431.734,549.821L406.68,534.376C406.68,534.376 440.844,526.27 440.844,526.27C440.844,526.27 465.898,541.715 465.898,541.715L431.734,549.821ZM403.012,532.115L381.827,519.055C381.827,519.055 415.991,510.949 415.991,510.949C415.991,510.949 437.176,524.009 437.176,524.009L403.012,532.115ZM378.159,516.794L346.53,497.296C346.53,497.296 380.694,489.19 380.694,489.19C380.694,489.19 412.323,508.688 412.323,508.688L378.159,516.794ZM342.862,495.035L321.677,481.975C321.677,481.975 355.841,473.869 355.841,473.869C355.841,473.869 377.026,486.929 377.026,486.929L342.862,495.035ZM318.009,479.714L289.497,462.137C289.497,462.137 323.66,454.031 323.66,454.031C323.66,454.031 352.173,471.607 352.173,471.607L318.009,479.714ZM285.829,459.876L264.643,446.816C264.643,446.816 298.807,438.709 298.807,438.709C298.807,438.709 319.993,451.769 319.993,451.769L285.829,459.876ZM260.975,444.554L233.603,427.68C233.603,427.68 267.767,419.574 267.767,419.574C267.767,419.574 295.139,436.448 295.139,436.448L260.975,444.554ZM229.935,425.419L208.75,412.359C208.75,412.359 242.914,404.253 242.914,404.253C242.914,404.253 264.099,417.313 264.099,417.313L229.935,425.419ZM176.837,412.616L125.258,376.61C125.258,376.61 120.826,360.709 120.826,360.709C120.826,360.709 153.485,380.842 153.485,380.842C153.485,380.842 155.767,384.526 155.767,384.526C155.815,384.603 155.881,384.668 155.958,384.716L183.55,401.726L176.837,412.616ZM205.082,410.098L174.015,390.947C174.015,390.947 208.179,382.841 208.179,382.841C208.179,382.841 239.246,401.992 239.246,401.992L205.082,410.098ZM151.331,375.111L183.326,367.52C183.326,367.52 204.512,380.58 204.512,380.58C204.512,380.58 170.348,388.686 170.348,388.686C170.348,388.686 159.973,382.29 159.973,382.29C159.973,382.29 158.32,379.499 158.32,379.499C158.271,379.417 158.204,379.348 158.123,379.298L151.331,375.111ZM138.669,342.18L146.016,340.437C146.016,340.437 201.317,371.575 201.317,371.575C201.317,371.575 201.637,375.082 201.637,375.082C201.637,375.082 178.799,361.003 178.799,361.003C178.716,360.952 178.621,360.922 178.523,360.917L166.169,360.26L138.669,342.18ZM147.663,372.85L120.032,355.817C120.032,355.817 118.135,346.628 118.135,346.628C118.135,346.628 133.849,342.9 133.849,342.9C133.849,342.9 165.461,363.555 165.461,363.555C165.547,363.611 165.647,363.644 165.75,363.649L178.113,364.306C178.113,364.306 179.658,365.259 179.658,365.259L147.663,372.85Z" style="fill:white;"/>
    </g>
</svg>
