<?xml version="1.0" encoding="UTF-8" standalone="no"?>
<!DOCTYPE svg PUBLIC "-//W3C//DTD SVG 1.1//EN" "http://www.w3.org/Graphics/SVG/1.1/DTD/svg11.dtd">
<svg width="100%" height="100%" viewBox="0 0 1000 1000" version="1.1" xmlns="http://www.w3.org/2000/svg" xmlns:xlink="http://www.w3.org/1999/xlink" xml:space="preserve" xmlns:serif="http://www.serif.com/" style="fill-rule:evenodd;clip-rule:evenodd;stroke-linejoin:round;stroke-miterlimit:2;">
    <g transform="matrix(19.2038,0,0,19.2038,-5702.81,-6041.16)">
        <path d="M322.647,354.278C319.085,357.087 318.236,357.922 316,357.754C313.642,357.576 308.286,351.533 309,353C305.843,354.423 304.274,353.962 302.496,352C300.98,350.327 294.753,339.568 307,328C307.208,326.729 306.086,324.176 307,323.72C308.365,323.038 311.244,323.69 316,326C317.825,325.502 319.956,325.103 323,325L323.142,325.005C326.11,325.115 328.203,325.51 330,326C334.756,323.69 337.635,323.038 339,323.72C339.914,324.176 338.792,326.729 339,328C351.247,339.568 345.02,350.327 343.504,352C341.726,353.962 340.157,354.423 337,353C337.714,351.533 332.358,357.576 330,357.754C327.691,357.927 326.861,357.032 323,354L322.647,354.278ZM339,335L326,343C328.923,345.91 332.515,346.291 334.716,345.702C337.481,344.963 339.035,341.661 339,335ZM307,335L320,343C317.077,345.91 313.485,346.291 311.284,345.702C308.519,344.963 306.965,341.661 307,335Z" style="fill:white;"/>
    </g>
</svg>
