<?xml version="1.0" encoding="UTF-8" standalone="no"?>
<!DOCTYPE svg PUBLIC "-//W3C//DTD SVG 1.1//EN" "http://www.w3.org/Graphics/SVG/1.1/DTD/svg11.dtd">
<svg width="100%" height="100%" viewBox="0 0 1000 1000" version="1.1" xmlns="http://www.w3.org/2000/svg" xmlns:xlink="http://www.w3.org/1999/xlink" xml:space="preserve" xmlns:serif="http://www.serif.com/" style="fill-rule:evenodd;clip-rule:evenodd;stroke-linejoin:round;stroke-miterlimit:2;">
    <g transform="matrix(4.27742,0,0,4.27742,-1616.28,-1629.9)">
        <path d="M474.44,595.452C474.058,596.769 474.114,598.081 475,599C473.697,601.944 475.891,603.673 485,603C484.978,599.753 484.175,596.805 483,594C482.192,590.063 482.658,586.552 483,583C487.096,572.589 486.12,564.338 483,557C482.182,548.738 480.409,540.409 481.857,532.5C482.711,527.834 482.963,523.343 483,519C486.649,516.573 490.179,513.35 494.5,512.701C505.321,511.076 513.571,508.047 520.5,505.074C525.867,502.77 531.669,502.545 537,502.207C544.932,501.703 552.674,498.506 561,497C570.149,492.555 576.094,489.838 577.477,488C578.807,486.233 575.834,482.746 569,485C564.425,486.509 560.719,488.806 558,492C552.122,493.174 547.892,494.626 538,494.979C531.18,495.223 526.074,497.481 524,499C514.113,500.689 502.152,501.575 489,502C478.972,496.534 478.383,492.141 480,488C482.656,483.965 484.517,479.972 486,476C488.106,466 489.127,456 490,446C490.172,429.235 487.724,415.392 483,404.5C481.474,400.982 480.47,397.918 479,394C478.247,392.423 477.569,392.213 477,394C477.133,395.414 476.999,396.58 475,396C471.588,394.523 471.531,395.666 473,398C474.569,399.466 475.193,400.651 473,401C470.779,401.691 471.009,402.355 473,403C476.804,404.517 478.069,406.245 479,408C480.29,408.643 481.426,409.476 482,411L485,435C484.522,440.853 483.687,446.352 482,451C479.318,447.633 476.82,445.965 474.5,445.958C472.152,445.95 469.786,447.679 468,451C465.925,454.858 465.797,462.306 466.929,462C467.967,461.73 469.063,464.375 469,466C466.768,468.675 465.255,471.763 464,475C463.295,476.258 462.476,477.605 459,481C455.297,485.311 451.183,489.625 441,494C433.612,495.257 426.268,496.841 419,499C417.25,498.21 415.608,498.593 414,499C410.861,499.794 411.078,499.693 414,500C415.07,500.667 415.57,501.333 414,502C411.833,503.331 410.896,504.336 415,504C413.715,505.241 414.629,505.248 416,505C417.051,503.341 418.737,502.362 421,502C426.791,499.484 432.83,498.768 439,499C443.667,498.074 448.333,496.678 453,495C452.767,499.726 452.468,504.193 452,508C452.54,508.915 453.6,509.964 455,511C455.676,510.386 456.5,507.5 456.5,507.5C456.657,507.5 457.383,503.882 457,503C456.384,497.116 458.055,493.833 461,492C465.133,507.456 468.231,516.711 470,518C470.851,527.739 471.397,537.314 474,548C474.51,550.095 473.952,559.545 476,564C480.254,573.252 475.386,599.066 474.44,595.452Z" style="fill:white;"/>
    </g>
</svg>
