<?xml version="1.0" encoding="UTF-8" standalone="no"?>
<!DOCTYPE svg PUBLIC "-//W3C//DTD SVG 1.1//EN" "http://www.w3.org/Graphics/SVG/1.1/DTD/svg11.dtd">
<svg width="100%" height="100%" viewBox="0 0 1000 1000" version="1.1" xmlns="http://www.w3.org/2000/svg" xmlns:xlink="http://www.w3.org/1999/xlink" xml:space="preserve" xmlns:serif="http://www.serif.com/" style="fill-rule:evenodd;clip-rule:evenodd;stroke-linejoin:round;stroke-miterlimit:2;">
    <g transform="matrix(1.75705,0,0,1.75705,-378.525,-143.275)">
        <path d="M431.004,117.531C453.603,112.639 476.575,109.986 500,110L500.821,110.001C570.587,110.145 636.34,133.914 700,170C708.436,327.057 690.383,423.856 655.27,480C616.349,542.231 564.12,588.113 500,622.222L498.499,621.421C435.066,587.396 383.347,541.745 344.73,480C309.617,423.856 291.564,327.057 300,170C334.568,150.405 369.754,134.441 405.856,123.923L420,230C396.667,223.997 373.333,221.08 350,220C351.436,241.21 353.601,260.671 356.335,278.78C343.58,282.607 332.653,289.388 330,300C339.784,310.283 351.111,316.577 363.8,319.347C371.121,352.945 380.336,382.01 390,410C386.731,380.696 382.164,349.43 379.476,321.009C400.243,321.096 423.959,313.555 450,300C429.607,285.404 409.555,276.245 390,274.96C386.158,274.708 381.838,274.725 377.321,275.049C377.555,265.703 378.382,257.254 380,250C409.037,249.301 429.452,254.698 450,260L431.004,117.531ZM610,480C580.84,475.631 549.504,472.573 502.262,471.07L500,471C451.49,472.476 419.622,475.562 390,480L610,480ZM670,300C641.558,329.893 600.079,326.068 550,300C570.393,285.404 590.445,276.245 610,274.96C630.611,273.606 665,280 670,300Z" style="fill:white;"/>
    </g>
</svg>
