<?xml version="1.0" encoding="UTF-8" standalone="no"?>
<!DOCTYPE svg PUBLIC "-//W3C//DTD SVG 1.1//EN" "http://www.w3.org/Graphics/SVG/1.1/DTD/svg11.dtd">
<svg width="100%" height="100%" viewBox="0 0 1000 1000" version="1.1" xmlns="http://www.w3.org/2000/svg" xmlns:xlink="http://www.w3.org/1999/xlink" xml:space="preserve" xmlns:serif="http://www.serif.com/" style="fill-rule:evenodd;clip-rule:evenodd;stroke-linejoin:round;stroke-miterlimit:2;">
    <g transform="matrix(4.83934,0,0,4.83934,-1607.05,-2123.11)">
        <path d="M483.495,546.083C476.73,558.707 467.527,566.197 453.588,563.713C434.613,578.049 418.993,580.519 404.688,578.334C393.577,589.916 399.995,605.751 414.219,623.48C422.233,622.543 428.349,627.455 433.602,635.026C438.873,631.921 444.072,629.582 449.053,629.527C452.728,627.296 456.564,625.94 461.06,628.166C464.825,621.198 468.505,615.696 471.73,617.961C474.228,613.866 476.771,609.96 480.858,612.513C483.632,604.565 486.389,597.63 488.983,600.431C496.409,582.441 510.771,564.545 483.495,546.083ZM393.737,573.204C390.689,579.634 393.829,585.268 396.051,590.25C398.642,596.06 387.786,611.877 380.903,609.515C383.07,603.146 385.803,595.021 380.443,591.493C383.89,595.842 382.304,602.053 379,608.898C373.79,608.069 370.332,605.639 370.278,602.388C370.145,594.397 372.935,589.288 378.603,589.061C380.918,588.969 384.623,590.062 390.263,593.629C391.395,590.455 391.711,586.896 389.348,582.293C387.74,579.16 390.534,575.39 391.989,572.111C392.414,572.575 392.976,572.953 393.737,573.204ZM460.048,538.706C463.012,536.373 465.504,533.645 467.769,530.919C475.016,529.241 482.256,526.999 489.491,524.147C492.343,536.289 488.244,542.661 478.734,544.538C474.706,556.995 466.657,563.326 453.254,561.502C433.049,574.495 418.569,578.383 408.374,576.695C391.774,573.946 381.374,563.96 384.102,554.295C386.849,544.565 390.189,536.256 389.116,529.125C402.697,532.505 416.268,534.489 429.824,534.779C431.305,540.465 437.87,543.422 454.647,539.62C454.7,539.855 460.11,538.979 460.039,538.713C460.031,538.679 460.04,538.692 460.048,538.706L460.039,538.713C460.046,538.72 460.052,538.716 460.048,538.707L460.048,538.706ZM455.007,539.025C454.453,537.038 453.616,535.264 453.606,533.489C455.396,533.252 457.186,532.983 458.976,532.68C459.442,534.481 459.684,536.356 459.587,538.342C459.535,538.339 459.481,538.344 459.428,538.358C458.154,538.697 456.703,538.907 455.102,539.01C455.069,539.012 455.037,539.017 455.007,539.025ZM481.417,484.432C490.554,478.84 491.857,479.612 494.069,481.178C514.229,495.45 510.214,526.502 448.182,531.776C393.505,536.424 352.056,519.045 370.207,493.552C371.895,491.181 375.523,489.009 386.268,489.302C376.569,510.263 424.27,518.295 441.839,515.682C455.731,513.616 492.409,506.698 481.417,484.432ZM479.676,483.318C450.538,501.242 420.018,501.591 388.479,488.968C385.688,458.171 404.695,451.612 428.642,449.434C456.358,446.914 473.543,456.661 479.676,483.318Z" style="fill:white;"/>
    </g>
</svg>
