<?xml version="1.0" encoding="UTF-8" standalone="no"?>
<!DOCTYPE svg PUBLIC "-//W3C//DTD SVG 1.1//EN" "http://www.w3.org/Graphics/SVG/1.1/DTD/svg11.dtd">
<svg width="100%" height="100%" viewBox="0 0 1000 1000" version="1.1" xmlns="http://www.w3.org/2000/svg" xmlns:xlink="http://www.w3.org/1999/xlink" xml:space="preserve" xmlns:serif="http://www.serif.com/" style="fill-rule:evenodd;clip-rule:evenodd;stroke-linejoin:round;stroke-miterlimit:2;">
    <g transform="matrix(1.11663,0,0,1.11663,-43.0285,-87.3449)">
        <path d="M486.312,929C486.312,929 452.985,870.161 441.624,845L395.185,408.899C397.643,417.457 403.533,422.723 414.624,423L429.434,411.276C437.772,423.974 449.86,432.025 463.624,438L460.624,534L441.624,561C442.782,563.828 445.302,565.311 448.624,566L467.624,536L470.624,432C456.656,427.746 444.321,420.179 434.702,407.105L454.994,391.04C459.937,403.46 472.075,412.25 486.249,412.25L486.376,412.25C500.55,412.25 512.688,403.46 517.63,391.04L537.922,407.105C528.303,420.179 515.969,427.746 502,432L505,536L524,566C527.323,565.311 529.842,563.828 531,561L512,534L509,438C522.764,432.025 534.852,423.974 543.191,411.276L558,423C569.092,422.723 574.981,417.457 577.44,408.899L531,845C519.708,870.01 486.312,929 486.312,929ZM494,661L496,861C492.681,866.017 494.507,868.306 495,868.869C495.65,869.611 498.665,868.458 501,861L502,660L487.482,641.61L486.312,640L485.143,641.61L470.624,660L471.624,861C473.959,868.458 476.974,869.611 477.624,868.869C478.117,868.306 479.943,866.017 476.624,861L478.624,661L486.312,651L494,661ZM517,599L515,698L524,715C526.502,714.053 528.422,712.273 530,710L522,697L524,597L486.312,543.5L448.624,597L450.624,697L442.624,710C444.202,712.273 446.123,714.053 448.624,715L457.624,698L455.624,599L486.312,554.9L517,599ZM486.249,343C464.418,344.206 452.25,356.175 451.624,381L412.624,415C404.791,414.447 399.474,411.781 402.624,402L396.624,395L386.624,405C366.377,400.764 350.382,392.438 337.624,381C390.985,362.15 418.238,326.413 433.624,283L433.624,330L440.624,337C447.715,329.071 456.239,324.904 465.624,323C464.835,321.085 464.96,319.458 465.624,318L457.624,318L457.624,302L465.624,288L472.624,288L472.624,162C470.879,161.352 470.452,159.867 470.624,158C458.339,146.08 460.6,134.46 470.624,123L502,123C512.025,134.46 514.285,146.08 502,158C502.172,159.867 501.746,161.352 500,162L500,288L507,288L515,302L515,318L507,318C507.665,319.458 507.789,321.085 507,323C516.385,324.904 524.909,329.071 532,337L539,330L539,283C554.386,326.413 581.64,362.15 635,381C622.242,392.438 606.247,400.764 586,405L576,395L570,402C573.151,411.781 567.833,414.447 560,415L521,381C520.374,356.175 508.206,344.206 486.375,343L486.249,343ZM486.125,345.75C503.303,345.75 517.25,359.697 517.25,376.875C517.25,394.053 503.303,408 486.125,408C468.947,408 455,394.053 455,376.875C455,359.697 468.947,345.75 486.125,345.75ZM486.125,352.875C499.371,352.875 510.125,363.629 510.125,376.875C510.125,390.121 499.371,400.875 486.125,400.875C472.879,400.875 462.125,390.121 462.125,376.875C462.125,363.629 472.879,352.875 486.125,352.875ZM486.125,356.196C497.538,356.196 506.804,365.462 506.804,376.875C506.804,388.288 497.538,397.554 486.125,397.554C474.712,397.554 465.446,388.288 465.446,376.875C465.446,365.462 474.712,356.196 486.125,356.196Z" style="fill:white;"/>
    </g>
</svg>
