<?xml version="1.0" encoding="UTF-8" standalone="no"?>
<!DOCTYPE svg PUBLIC "-//W3C//DTD SVG 1.1//EN" "http://www.w3.org/Graphics/SVG/1.1/DTD/svg11.dtd">
<svg width="100%" height="100%" viewBox="0 0 1000 1000" version="1.1" xmlns="http://www.w3.org/2000/svg" xmlns:xlink="http://www.w3.org/1999/xlink" xml:space="preserve" xmlns:serif="http://www.serif.com/" style="fill-rule:evenodd;clip-rule:evenodd;stroke-linejoin:round;stroke-miterlimit:2;">
    <g transform="matrix(2.97866,0,0,2.97866,-1014.07,-957.154)">
        <path d="M652.179,387.547L652.179,583.646C652.179,585.191 650.926,586.444 649.381,586.444L360.031,586.444L367.232,593.646L659.381,593.646L659.381,394.748L652.179,387.547ZM649.381,384.748L357.232,384.748L357.232,583.646L649.381,583.646L649.381,384.748ZM476.499,549.096L432.073,562.895C433.177,537.667 427.13,516.896 416.077,526.136C408.121,532.786 401.954,534.521 399.466,530.805C397.18,527.391 391.734,528.604 388.224,527.319C362.299,517.828 369.484,437.49 414.413,431.361L402.391,461.89C415.829,451.447 425.437,445.508 427.01,449.022C427.859,455.603 424.928,459.841 419.827,467.818C409.882,483.373 417.462,496.215 425.877,488.479C427.974,486.552 435.93,484.635 437.63,488.828C438.587,491.189 441.504,492.563 445.694,494.139L476.499,549.096ZM482.889,501.011C478.103,553.465 564.719,552.196 581.398,522.317C583.894,517.846 579.14,513.936 574.055,502.571C572.506,499.111 569.759,499.315 566.202,497.306C557.572,492.433 551.173,492.761 541.999,499.57C505.129,526.934 497.491,529.356 482.889,501.011ZM617.019,500.301C613.817,503.585 606.219,502.436 607.119,501.106C598.062,470.384 578.72,437.022 551.338,448.027C537.663,453.523 532.136,454.284 528.599,448.255C533.672,446.578 538.993,443.054 542.497,437.297C558.911,410.325 625.141,419.598 625.733,484.508C625.787,490.52 619.92,497.325 617.019,500.301ZM541.341,482.304C540.577,491.213 547.673,496.208 554.143,488.04C556.211,485.429 559.607,484.722 564.048,488.973C569.515,494.206 575.978,494.89 575.462,486.309C575.177,481.579 576.098,478.63 572.229,475.294C569.36,472.821 564.271,472.391 563.429,470.03C560.862,462.843 563.74,455.489 558.688,455.461C551.435,455.42 555.243,464.121 551.551,466.018C542.74,470.546 542.261,471.584 541.341,482.304ZM557.045,410.252C552.987,407.367 548.911,409.596 541.499,406.547C537.086,404.731 516.446,403.769 501.165,416.894C495.225,421.996 484.638,431.616 474.99,427.096C469.534,424.54 465.055,427.674 467.33,433.64C468.012,435.426 466.418,437.533 466.968,439.364C475.268,467.001 517.481,473.943 532.391,431.416C534.299,425.972 551.211,409.836 557.045,410.252Z" style="fill:white;"/>
    </g>
</svg>
