<?xml version="1.0" encoding="UTF-8" standalone="no"?>
<!DOCTYPE svg PUBLIC "-//W3C//DTD SVG 1.1//EN" "http://www.w3.org/Graphics/SVG/1.1/DTD/svg11.dtd">
<svg width="100%" height="100%" viewBox="0 0 1000 1000" version="1.1" xmlns="http://www.w3.org/2000/svg" xmlns:xlink="http://www.w3.org/1999/xlink" xml:space="preserve" xmlns:serif="http://www.serif.com/" style="fill-rule:evenodd;clip-rule:evenodd;stroke-linejoin:round;stroke-miterlimit:2;">
    <g transform="matrix(1.15101,0,0,1.15101,-4.87476,-121.776)">
        <path d="M248.259,721.038C211.472,679.249 184.61,627.701 172.264,569.385C133.97,388.502 249.733,210.559 430.615,172.264C611.498,133.97 789.441,249.733 827.736,430.615L774.96,441.789C742.832,290.034 593.543,192.912 441.789,225.04C290.034,257.168 192.912,406.457 225.04,558.211C257.168,709.966 406.457,807.088 558.211,774.96C634.089,758.896 696.308,713.542 735.541,653.234L780.752,682.646C733.987,754.529 659.826,808.589 569.385,827.736C462.7,850.322 357.038,819.317 280.456,752.976C264.108,800.388 241.17,839.58 209.265,867.586C170.255,901.829 117.841,919.35 47.675,914.73C59.587,781.629 135.883,728.836 248.259,721.038ZM244.157,744.789C153.516,749.355 98.659,798.539 78.019,890.404C124.196,885.827 162.333,871.222 192.615,846.819C220.038,824.719 241.019,794.584 255.695,756.584L198.206,801.629L188.091,788.72L244.157,744.789ZM780.752,682.646L787.325,674.269L525.344,503.834L829.6,439.42L827.736,430.615L501.185,500.771L579.1,551.459C565.924,571.712 545.03,586.943 519.549,592.337C468.586,603.126 418.452,570.511 407.663,519.549C396.874,468.586 429.489,418.452 480.451,407.663C531.414,396.874 581.548,429.489 592.337,480.451L610.061,476.699C597.2,415.955 537.443,377.079 476.699,389.939C415.955,402.8 377.079,462.557 389.939,523.301C402.8,584.045 462.557,622.921 523.301,610.061C553.673,603.631 578.577,585.476 594.282,561.336L658.199,602.918C631.848,643.424 590.06,673.885 539.097,684.674C437.173,706.253 336.904,641.022 315.326,539.097C293.747,437.173 358.978,336.904 460.903,315.326C562.827,293.747 663.096,358.978 684.674,460.903L720.121,453.398C694.401,331.91 574.887,254.159 453.398,279.879C331.91,305.599 254.159,425.113 279.879,546.602C305.599,668.09 425.113,745.841 546.602,720.121C607.346,707.261 657.156,670.952 688.564,622.673L780.752,682.646Z" style="fill:white;"/>
    </g>
</svg>
