<?xml version="1.0" encoding="UTF-8" standalone="no"?>
<!DOCTYPE svg PUBLIC "-//W3C//DTD SVG 1.1//EN" "http://www.w3.org/Graphics/SVG/1.1/DTD/svg11.dtd">
<svg width="100%" height="100%" viewBox="0 0 1000 1000" version="1.1" xmlns="http://www.w3.org/2000/svg" xmlns:xlink="http://www.w3.org/1999/xlink" xml:space="preserve" xmlns:serif="http://www.serif.com/" style="fill-rule:evenodd;clip-rule:evenodd;stroke-linejoin:round;stroke-miterlimit:2;">
    <g transform="matrix(11.0452,0,0,11.0452,-5210.36,-3832.56)">
        <path d="M515.5,377.911C514.557,377.798 513.647,377.58 512.78,377.269L512.581,377.746C512.535,377.858 512.481,377.965 512.419,378.069C511.709,379.258 510.168,379.647 508.979,378.937C507.79,378.227 507.4,376.686 508.11,375.497C508.172,375.393 508.241,375.294 508.317,375.201L508.646,374.796C506.626,372.979 505.201,370.514 504.699,367.73L504.185,367.797C504.066,367.812 503.945,367.819 503.825,367.817C502.44,367.797 501.332,366.657 501.352,365.272C501.373,363.887 502.513,362.779 503.898,362.8C504.018,362.801 504.138,362.812 504.257,362.831L504.769,362.913C505.351,360.152 506.845,357.726 508.921,355.965L508.603,355.55C508.53,355.455 508.464,355.354 508.405,355.249C507.731,354.039 508.164,352.51 509.374,351.835C510.583,351.16 512.113,351.594 512.788,352.803C512.846,352.908 512.897,353.017 512.94,353.13L513.125,353.613C514.345,353.215 515.648,353 517,353C518.481,353 519.901,353.258 521.22,353.731L521.419,353.254C521.465,353.142 521.519,353.035 521.581,352.931C522.291,351.742 523.832,351.353 525.021,352.063C526.21,352.773 526.6,354.314 525.89,355.503C525.828,355.607 525.759,355.706 525.683,355.799L525.354,356.204C527.374,358.021 528.799,360.486 529.301,363.27L529.815,363.203C529.934,363.188 530.055,363.181 530.175,363.183C531.56,363.203 532.668,364.343 532.648,365.728C532.627,367.113 531.487,368.221 530.102,368.2C529.982,368.199 529.862,368.188 529.743,368.169L529.231,368.087C528.649,370.848 527.155,373.274 525.079,375.035L525.397,375.45C525.47,375.545 525.536,375.646 525.595,375.751C526.269,376.961 525.836,378.49 524.626,379.165C523.417,379.84 521.887,379.406 521.212,378.197C521.154,378.092 521.103,377.983 521.06,377.87L520.875,377.387C520.113,377.635 519.318,377.813 518.5,377.911L518.5,392L533,392L533,395L518.5,395L518.5,433L515.5,433L515.5,395L501,395L501,392L515.5,392L515.5,377.911ZM516.059,369.388C516.36,369.461 516.676,369.5 517,369.5C517.284,369.5 517.561,369.47 517.828,369.414L520.204,375.632C519.193,375.952 518.116,376.124 517,376.124C515.775,376.124 514.597,375.916 513.502,375.534L516.059,369.388ZM520.804,366.74L527.376,367.791C526.875,370.068 525.643,372.071 523.938,373.543L519.896,368.258C520.303,367.831 520.616,367.314 520.804,366.74ZM513.162,366.629C513.332,367.209 513.631,367.735 514.025,368.173L509.83,373.337C508.173,371.82 506.997,369.784 506.562,367.487L513.162,366.629ZM519.975,362.827L524.17,357.663C525.827,359.18 527.003,361.216 527.438,363.513L520.838,364.371C520.668,363.791 520.369,363.265 519.975,362.827ZM514.104,362.742C513.697,363.169 513.384,363.686 513.196,364.26L506.624,363.209C507.125,360.932 508.357,358.929 510.062,357.457L514.104,362.742ZM517.941,361.612C517.64,361.539 517.324,361.5 517,361.5C516.716,361.5 516.439,361.53 516.172,361.586L513.796,355.368C514.807,355.048 515.884,354.876 517,354.876C518.225,354.876 519.403,355.084 520.498,355.466L517.941,361.612Z" style="fill:white;"/>
    </g>
</svg>
