<?xml version="1.0" encoding="UTF-8" standalone="no"?>
<!DOCTYPE svg PUBLIC "-//W3C//DTD SVG 1.1//EN" "http://www.w3.org/Graphics/SVG/1.1/DTD/svg11.dtd">
<svg width="100%" height="100%" viewBox="0 0 1000 1000" version="1.1" xmlns="http://www.w3.org/2000/svg" xmlns:xlink="http://www.w3.org/1999/xlink" xml:space="preserve" xmlns:serif="http://www.serif.com/" style="fill-rule:evenodd;clip-rule:evenodd;stroke-linejoin:round;stroke-miterlimit:2;">
    <path d="M921.439,766.539L922.749,763.824C938.445,731.497 952.889,707.306 944.396,674.43C924.826,598.68 962.625,527.647 945.336,463.126C920.971,376.188 868.579,371.561 839.823,383.788C806.344,398.023 763.963,455.676 787.69,587.109C787.631,587.48 787.601,587.849 787.606,588.218C787.675,593.478 765.016,647.519 757.141,671.962C739.91,691.004 704.439,737.647 699.849,740.217C699.527,740.397 699.222,740.608 698.931,740.845C573.242,786.013 544.504,851.542 548.916,887.653C552.705,918.671 582.908,961.73 670.381,939.362C734.902,922.074 777.519,853.822 852.906,832.895C885.623,823.813 899.352,799.208 919.5,769.452L921.196,766.96L921.227,766.978L921.333,766.758L921.47,766.557L921.439,766.539ZM78.561,766.539L77.251,763.824C61.555,731.497 47.111,707.306 55.604,674.43C75.174,598.68 37.375,527.647 54.664,463.126C79.029,376.188 131.421,371.561 160.177,383.788C193.656,398.023 236.037,455.676 212.31,587.109C212.369,587.48 212.399,587.849 212.394,588.218C212.325,593.478 234.984,647.519 242.859,671.962C260.09,691.004 295.561,737.647 300.151,740.217C300.473,740.397 300.778,740.608 301.069,740.845C426.758,786.013 455.496,851.542 451.084,887.653C447.295,918.671 417.092,961.73 329.619,939.362C265.098,922.074 222.481,853.822 147.094,832.895C114.377,823.813 100.648,799.208 80.5,769.452L78.804,766.96L78.773,766.978L78.667,766.758L78.53,766.557L78.561,766.539ZM758.014,682.383L758.434,681.946L758.294,682.375C746.498,718.715 766.087,729.575 773.355,756.703C786.846,807.051 753.953,827.041 738.549,827.399C722.398,827.775 679.911,816.522 711.862,736.515C711.882,736.474 711.901,736.432 711.92,736.39C723.274,711.826 740.248,700.796 758.014,682.383ZM241.706,682.375C253.502,718.715 233.913,729.575 226.645,756.703C213.154,807.051 246.047,827.041 261.451,827.399C277.602,827.775 320.089,816.522 288.138,736.515C288.118,736.474 288.099,736.432 288.08,736.39C276.726,711.826 259.752,700.796 241.986,682.383L241.566,681.946L241.706,682.375ZM875.929,740.544C858.26,764.528 839.832,766.184 820.896,752.853C801.96,739.521 782.515,711.202 762.81,675.235C844.812,673.398 899.801,685.956 875.929,740.544ZM124.071,740.544C141.74,764.528 160.168,766.184 179.104,752.853C198.04,739.521 217.485,711.202 237.19,675.235C155.188,673.398 100.199,685.956 124.071,740.544ZM626.262,596.399C598.913,637.521 543.973,630.37 548.482,666.188C552.998,702.064 576.234,700.811 614.577,695.296C639.069,720.294 659.806,730.209 674.185,714.579C679.471,708.832 687.744,700.068 687.336,686.461C687.023,676.03 677.21,666.017 694.087,636.218L694.37,635.721L694.659,635.228C712.027,605.712 725.605,609.204 734.795,604.259C746.783,597.809 750.237,586.263 752.57,578.812C758.917,558.544 739.961,545.543 706.067,536.831C691.672,500.867 681.139,480.118 647.811,494.145C614.537,508.149 648.2,552.153 626.262,596.399ZM373.738,596.399C401.087,637.521 456.027,630.37 451.518,666.188C447.002,702.064 423.766,700.811 385.423,695.296C360.931,720.294 340.194,730.209 325.815,714.579C320.529,708.832 312.256,700.068 312.664,686.461C312.977,676.03 322.79,666.017 305.913,636.218L305.63,635.721L305.341,635.228C287.973,605.712 274.395,609.204 265.205,604.259C253.217,597.809 249.763,586.263 247.43,578.812C241.083,558.544 260.039,545.543 293.933,536.831C308.328,500.867 318.861,480.118 352.189,494.145C385.463,508.149 351.8,552.153 373.738,596.399ZM500,395.178C450.713,398.302 429.436,449.457 400.671,427.643C371.859,405.794 384.562,386.298 408.51,355.849C399.108,322.14 400.889,299.223 421.615,294.586C429.235,292.881 440.961,290.098 452.541,297.256C461.418,302.742 465.183,316.247 499.428,316.53L500,316.533L500.572,316.53C534.817,316.247 538.582,302.742 547.459,297.256C559.039,290.098 570.765,292.881 578.385,294.586C599.111,299.223 600.892,322.14 591.49,355.849C615.438,386.298 628.141,405.794 599.329,427.643C570.564,449.457 549.287,398.302 500,395.178ZM500.243,54.477L503.25,54.7C539.093,57.271 567.265,56.858 591.49,80.651C647.307,135.474 727.723,138.256 774.955,185.488C838.063,250.059 815.874,297.745 790.907,316.535C761.839,338.411 690.72,346.287 588.759,260.022C588.409,259.888 588.073,259.729 587.757,259.541C583.236,256.851 525.106,249.453 500,244.052C474.894,249.453 416.764,256.851 412.243,259.541C411.927,259.729 411.591,259.888 411.241,260.022C309.28,346.287 238.161,338.411 209.093,316.535C184.126,297.745 161.937,250.059 225.045,185.488C272.277,138.256 352.693,135.474 408.51,80.651C432.735,56.858 460.907,57.271 496.75,54.7L499.757,54.477L499.757,54.441L500,54.459L500.243,54.441L500.243,54.477ZM508.588,238.085C533.417,244.265 551.457,253.45 578.407,251C578.453,250.996 578.498,250.992 578.544,250.988C663.807,238.655 652.309,196.234 643.908,182.435C635.897,169.274 602.138,150.782 565.28,187.64C545.422,207.498 545.811,229.892 508.441,237.847L508,237.94L508.588,238.085ZM500,106.887C470.395,110.198 459.747,125.328 461.824,148.393C463.902,171.458 478.704,202.458 500,237.506C542.592,167.409 559.211,113.508 500,106.887ZM233.232,666.928C226.317,642.597 225.147,622.526 209.673,600.586C209.646,600.548 209.62,600.51 209.594,600.473C156.281,532.799 125.293,563.967 117.543,578.142C110.151,591.661 111.016,630.143 161.364,643.634C188.598,650.931 207.841,639.278 233.566,668.09L233.398,667.508L233.232,666.928ZM767.036,667.422L766.735,667.754L766.434,668.09C773.65,643.233 774.608,622.874 790.327,600.586C790.354,600.548 790.38,600.51 790.406,600.473C843.719,532.799 874.707,563.967 882.457,578.142C889.849,591.661 888.984,630.143 838.636,643.634C811.615,650.874 792.46,639.458 767.036,667.422ZM491.121,237.753C454.192,229.717 454.5,207.42 434.72,187.64C397.862,150.782 364.103,169.274 356.092,182.435C347.691,196.234 336.193,238.655 421.456,250.988C421.502,250.992 421.547,250.996 421.593,251C448.755,253.469 466.866,244.12 492,237.94L491.559,237.847L491.121,237.753Z" style="fill:white;"/>
</svg>
