<?xml version="1.0" encoding="UTF-8" standalone="no"?>
<!DOCTYPE svg PUBLIC "-//W3C//DTD SVG 1.1//EN" "http://www.w3.org/Graphics/SVG/1.1/DTD/svg11.dtd">
<svg width="100%" height="100%" viewBox="0 0 1000 1000" version="1.1" xmlns="http://www.w3.org/2000/svg" xmlns:xlink="http://www.w3.org/1999/xlink" xml:space="preserve" xmlns:serif="http://www.serif.com/" style="fill-rule:evenodd;clip-rule:evenodd;stroke-linejoin:round;stroke-miterlimit:2;">
    <g transform="matrix(1.78866,0,0,1.59967,-438.348,-434.363)">
        <path d="M314.903,397.476L302.261,387.532C312.077,350.516 336.242,332.519 358.567,311.476C375.65,295.374 421.195,303.438 486.448,321.112C510.374,327.593 533.594,315.666 550.782,303.216C531.378,318.758 514.536,342.816 503.087,374.567C488.113,416.09 486.309,477.219 496.493,552.845C498.702,569.25 497.232,586.001 498.074,602.666C499.279,626.529 493.485,649.68 490.624,672.282C485.206,715.089 458.822,752.41 438.514,789.853C492.755,747.143 522.506,700.781 531.82,652.157C555.278,529.697 502.038,409.009 558.864,337.588C581.703,308.882 620.107,300.638 665.761,307.777C635.925,314.592 607.82,327.444 602.603,352.519C595.766,385.384 597.362,430.386 601.074,478.459C605.323,533.488 601.536,585.814 590.495,622.344C583.61,645.122 576.171,663.941 564.68,680.042C544.603,708.175 520.881,735.601 491.806,761.549C558.766,727.003 621.879,732.333 667.939,753.496C684.952,761.313 695.327,773.627 706.955,783.613C712.996,788.801 724.608,771.55 731.045,765.284L746.96,778.426L663.724,865.404C581.607,788.809 481.011,787.197 362.581,857.951L354.383,845.376C413.621,793.707 442.656,748.094 434.349,707.131C428.741,679.476 414.558,660.259 372.55,652.235C387.028,631.545 408.273,627.697 435.126,637.803C436.084,595.875 416.067,568.959 352.859,572.96C371.068,536.724 397.933,526.007 432.405,537.718C420.324,466.995 438.104,405.585 486.929,353.855C465.405,368.082 441.727,378.43 419.629,373.755C386.848,366.819 358.937,358.787 343.414,362.78C329.163,366.445 320.867,381.344 314.903,397.476Z" style="fill:white;"/>
    </g>
</svg>
