<?xml version="1.0" encoding="UTF-8" standalone="no"?>
<!DOCTYPE svg PUBLIC "-//W3C//DTD SVG 1.1//EN" "http://www.w3.org/Graphics/SVG/1.1/DTD/svg11.dtd">
<svg width="100%" height="100%" viewBox="0 0 1000 1000" version="1.1" xmlns="http://www.w3.org/2000/svg" xmlns:xlink="http://www.w3.org/1999/xlink" xml:space="preserve" xmlns:serif="http://www.serif.com/" style="fill-rule:evenodd;clip-rule:evenodd;stroke-linejoin:round;stroke-miterlimit:2;">
    <g transform="matrix(3.6238,0,0,3.6238,-1311.9,-114.13)">
        <path d="M500,226.78C497.323,226.78 489.864,243.829 491.212,247.455C491.467,248.143 491.92,248.747 492.554,249.295C490.013,252.535 487.128,254.883 483.783,256.073C480.281,257.319 476.287,257.299 471.679,255.744C471.344,255.626 470.976,255.802 470.859,256.137C470.741,256.472 470.917,256.839 471.252,256.957C476.182,258.764 480.498,258.862 484.308,257.604C488.009,256.382 491.236,253.867 494.089,250.344C494.773,250.727 495.563,251.088 496.452,251.442C495.292,255.254 493.717,258.618 491.535,261.337C489.01,264.483 485.675,266.763 481.224,267.859C480.878,267.94 480.663,268.286 480.743,268.631C480.824,268.977 481.17,269.192 481.515,269.112C486.337,268.055 489.991,265.688 492.785,262.364C495.143,259.559 496.879,256.061 498.184,252.084C498.759,252.285 499.365,252.486 500,252.691L500.471,252.538C500.936,252.386 501.385,252.235 501.816,252.084C503.121,256.061 504.857,259.559 507.215,262.364C510.009,265.688 513.663,268.055 518.485,269.112C518.83,269.192 519.176,268.977 519.257,268.631C519.337,268.286 519.122,267.94 518.776,267.859C514.325,266.763 510.99,264.483 508.465,261.337C506.283,258.618 504.708,255.254 503.548,251.442C504.437,251.088 505.227,250.727 505.911,250.344C508.764,253.867 511.991,256.382 515.692,257.604C519.502,258.862 523.818,258.764 528.748,256.957C529.083,256.839 529.259,256.472 529.141,256.137C529.024,255.802 528.656,255.626 528.321,255.744C523.713,257.299 519.719,257.319 516.217,256.073C512.872,254.883 509.987,252.535 507.446,249.295C508.08,248.747 508.533,248.143 508.788,247.455C510.131,243.843 502.735,226.913 500.032,226.781L500,226.78ZM506.668,206.892C510.348,206.892 513.336,212.199 513.336,218.737C513.336,225.275 510.348,230.582 506.668,230.582C502.988,230.582 500,225.275 500,218.737C500,212.199 502.988,206.892 506.668,206.892ZM493.332,206.892C489.652,206.892 486.664,212.199 486.664,218.737C486.664,225.275 489.652,230.582 493.332,230.582C497.012,230.582 500,225.275 500,218.737C500,212.199 497.012,206.892 493.332,206.892ZM506.338,213.65C507.889,213.65 509.149,216.006 509.149,218.909C509.149,221.811 507.889,224.167 506.338,224.167C504.786,224.167 503.527,221.811 503.527,218.909C503.527,216.006 504.786,213.65 506.338,213.65ZM493.662,213.65C492.111,213.65 490.851,216.006 490.851,218.909C490.851,221.811 492.111,224.167 493.662,224.167C495.214,224.167 496.473,221.811 496.473,218.909C496.473,216.006 495.214,213.65 493.662,213.65ZM505.455,214.322C505.727,214.12 506.024,213.983 506.338,213.983C506.692,213.983 507.024,214.159 507.325,214.41C507.955,214.973 508.434,215.995 508.665,217.239C508.297,217.818 507.392,218.524 506.338,218.524C505.281,218.524 504.374,217.836 504.008,217.252C504.251,215.934 504.77,214.863 505.452,214.324L505.455,214.322ZM494.545,214.322C494.273,214.12 493.976,213.983 493.662,213.983C493.308,213.983 492.976,214.159 492.675,214.41C492.045,214.973 491.566,215.995 491.335,217.239C491.703,217.818 492.608,218.524 493.662,218.524C494.719,218.524 495.626,217.836 495.992,217.252C495.749,215.934 495.23,214.863 494.548,214.324L494.545,214.322ZM499.644,128.099C469.405,128.355 443.587,161.146 443.506,180.832C443.47,189.763 447.307,196.668 455.03,203.446C434.962,204.686 418.287,206.803 402.576,209.616C380.394,196.822 360.503,161.503 392.676,137.568C415.043,120.927 429.81,106.811 441.183,88.833C451.836,71.994 480.074,58.462 500,58.462L500.469,58.464C520.365,58.673 548.247,72.125 558.817,88.833C570.19,106.811 584.957,120.927 607.324,137.568C639.497,161.503 619.606,196.822 597.424,209.616C581.713,206.803 565.038,204.686 544.97,203.446C552.693,196.668 556.53,189.763 556.494,180.832C556.413,161.069 530.392,128.098 500,128.098L499.644,128.099ZM500.153,179.835C503.357,179.754 505.933,177.127 505.933,173.904C505.933,170.68 503.357,168.054 500.153,167.973L500,167.971C496.725,167.971 494.067,170.629 494.067,173.904C494.067,177.179 496.725,179.837 500,179.837L500.153,179.835ZM553.608,86.055C554.744,87.407 555.767,88.79 556.658,90.199C568.185,108.42 583.129,122.751 605.799,139.617C608.63,141.723 611.037,143.919 613.055,146.183C596.625,146.371 579.844,136.437 570.113,127.386C563.951,121.655 557.395,109.504 554.6,98.802C553.522,94.674 552.999,90.768 553.359,87.562C553.418,87.037 553.499,86.534 553.608,86.055ZM446.392,86.055C445.256,87.407 444.233,88.79 443.342,90.199C431.815,108.42 416.871,122.751 394.201,139.617C391.37,141.723 388.963,143.919 386.945,146.183C403.375,146.371 420.156,136.437 429.887,127.386C436.049,121.655 442.605,109.504 445.4,98.802C446.478,94.674 447.001,90.768 446.641,87.562C446.582,87.037 446.501,86.534 446.392,86.055ZM404.118,280.481C400.974,264.773 400.404,237.631 404.118,212.778C428.742,208.169 460.47,205.325 500,204.419L501.847,204.463C540.518,205.414 571.642,208.241 595.882,212.778C599.596,237.631 599.026,264.773 595.882,280.481L404.118,280.481ZM484.03,202.226L474.904,202.194L457.374,187.63L475.17,174.56L457.887,161.077L479.056,138.368L500,154.031L520.944,138.368L542.113,161.077L524.83,174.56L542.626,187.63L525.096,202.194L515.97,202.226L500,192.017L484.03,202.226Z" style="fill:white;"/>
    </g>
</svg>
