<?xml version="1.0" encoding="UTF-8" standalone="no"?>
<!DOCTYPE svg PUBLIC "-//W3C//DTD SVG 1.1//EN" "http://www.w3.org/Graphics/SVG/1.1/DTD/svg11.dtd">
<svg width="100%" height="100%" viewBox="0 0 1000 1000" version="1.1" xmlns="http://www.w3.org/2000/svg" xmlns:xlink="http://www.w3.org/1999/xlink" xml:space="preserve" xmlns:serif="http://www.serif.com/" style="fill-rule:evenodd;clip-rule:evenodd;stroke-linejoin:round;stroke-miterlimit:2;">
    <g transform="matrix(21.9452,0,0,21.9452,-6327.97,-13841.3)">
        <path d="M311.086,673.98C308.949,672.64 309.506,670.172 309.825,666.991C309.995,665.292 310.109,663.538 310.15,661.798L308.323,661.798C308.307,667.792 305.648,673.067 300.168,668.462C298.061,666.692 302.085,663.701 303.4,666.041C305.934,670.549 306.818,666.454 306.629,661.798L305.947,661.798C304.187,661.798 304.187,659.749 305.947,659.749L306.479,659.75C306.279,657.859 305.916,656.069 305.427,654.921C302.374,647.748 295.247,652.724 299.255,658.783C301.936,662.836 299.094,664.968 294.8,664.677C296.927,660.676 295.857,660.307 294.418,658.03C287.011,646.314 301.505,643.134 306.786,654.174C307.552,655.775 308.035,657.747 308.227,659.755L310.165,659.759C310.115,654.988 309.458,650.548 307.846,647.949C304.579,642.68 307.054,637.944 311.137,633L311.232,633.116C315.257,638.018 317.669,642.721 314.427,647.949C312.816,650.548 312.158,654.988 312.109,659.759L314.046,659.755C314.239,657.747 314.721,655.775 315.487,654.174C320.769,643.134 335.263,646.314 327.856,658.03C326.416,660.307 325.346,660.676 327.473,664.677C323.179,664.968 320.338,662.836 323.018,658.783C327.026,652.724 319.899,647.748 316.846,654.921C316.358,656.069 315.994,657.859 315.795,659.75L316.326,659.749C318.086,659.749 318.086,661.798 316.326,661.798L315.645,661.798C315.455,666.454 316.339,670.549 318.873,666.041C320.188,663.701 324.212,666.692 322.106,668.462C316.626,673.067 313.966,667.792 313.951,661.798L312.123,661.798C312.165,663.538 312.279,665.292 312.449,666.991C312.77,670.197 313.334,672.678 311.137,674.011L311.086,673.98Z" style="fill:white;"/>
    </g>
</svg>
