<?xml version="1.0" encoding="UTF-8" standalone="no"?>
<!DOCTYPE svg PUBLIC "-//W3C//DTD SVG 1.1//EN" "http://www.w3.org/Graphics/SVG/1.1/DTD/svg11.dtd">
<svg width="100%" height="100%" viewBox="0 0 1000 1000" version="1.1" xmlns="http://www.w3.org/2000/svg" xmlns:xlink="http://www.w3.org/1999/xlink" xml:space="preserve" xmlns:serif="http://www.serif.com/" style="fill-rule:evenodd;clip-rule:evenodd;stroke-linejoin:round;stroke-miterlimit:2;">
    <g transform="matrix(2.88109,0,0,2.88109,-1011.02,-1062.87)">
        <path d="M480.527,400.936C480.374,399.999 480.499,399.145 480.82,398.382C481.418,396.962 482.875,395.679 485.259,394.799C487.655,393.915 491.128,393.34 495.378,393.047C498.668,392.82 503.591,390.565 508.901,388.776C514.83,386.779 521.184,385.361 526.506,386.956C528.226,387.471 529.709,388.282 531.232,389.036C532.449,389.638 533.695,390.204 535.216,390.387C542.546,391.272 549.931,393.547 556.867,396.998C558.578,397.849 560.315,398.557 562.041,399.17C627.822,415.91 676.544,475.593 676.544,546.566C676.544,630.503 608.397,698.65 524.46,698.65C440.523,698.65 372.377,630.503 372.377,546.566C372.377,477.901 417.981,419.804 480.527,400.936ZM554.692,677.888C546.714,679.721 538.461,680.845 530.006,681.187C527.832,685.618 525.468,690.048 522.893,694.475C523.416,694.48 523.938,694.483 524.46,694.483C533.677,694.483 542.698,693.638 551.445,692.022C552.648,687.295 553.715,682.586 554.692,677.888ZM501.674,679.377C498.45,683.242 495.126,687.063 491.683,690.832C500.238,692.771 509.079,693.968 518.132,694.35C520.723,690.001 523.106,685.651 525.298,681.297L524.46,681.3C516.697,681.3 509.086,680.642 501.674,679.377ZM589.263,664.698C579.859,669.872 569.772,673.956 559.172,676.778C558.205,681.542 557.152,686.319 555.968,691.114C567.928,688.516 579.35,684.469 590.048,679.161C589.956,674.333 589.672,669.512 589.263,664.698ZM470.404,670.001C466.034,672.952 461.705,675.764 457.42,678.431C466.772,683.199 476.696,687.001 487.058,689.705C490.477,686.017 493.778,682.276 496.979,678.489C487.738,676.572 478.842,673.706 470.404,670.001ZM490.976,420.34C435.116,435.141 393.894,486.077 393.894,546.566C393.894,618.628 452.399,677.133 524.46,677.133C596.522,677.133 655.027,618.628 655.027,546.566C655.027,487.144 615.245,436.939 560.898,421.161C558.418,423.573 555.896,425.32 553.305,426.576C607.502,439.571 647.847,488.394 647.847,546.566C647.847,614.665 592.559,669.953 524.46,669.953C456.361,669.953 401.074,614.665 401.074,546.566C401.074,492.461 435.974,446.444 484.464,429.818C483.861,429.288 483.596,428.432 483.855,427.62C484.096,426.864 484.392,426.319 484.83,425.856C485.253,425.41 485.826,425.017 486.773,424.693C487.662,424.389 489.067,424.108 491.393,423.674L490.976,420.34ZM615.219,646.11C608.485,652.255 601.125,657.727 593.242,662.419C593.689,667.286 594.017,672.159 594.163,677.04C603.12,672.241 611.527,666.547 619.264,660.076C618.013,655.403 616.657,650.749 615.219,646.11ZM445.297,655.572C440.564,657.472 435.766,659.317 430.909,661.111C437.83,666.773 445.274,671.82 453.155,676.168C457.385,673.574 461.658,670.835 465.972,667.958C458.692,664.44 451.776,660.287 445.297,655.572ZM544.96,429.106C542.777,429.444 540.532,429.592 538.213,429.636C530.165,429.79 521.162,428.623 510.581,430.511L510.525,430.521L510.453,430.534L510.366,430.549L510.312,430.559L510.167,430.586C510.167,430.586 510.027,430.612 510.027,430.612L509.902,430.635L509.701,430.673L509.642,430.685L509.5,430.712L509.405,430.73L509.347,430.741C504.461,431.68 499.028,432.947 491.895,431.856C441.908,446.035 405.24,492.052 405.24,546.566C405.24,612.366 458.661,665.786 524.46,665.786C590.259,665.786 643.68,612.366 643.68,546.566C643.68,487.755 601.004,438.832 544.96,429.106ZM420.269,631.955C415.288,632.767 410.315,633.529 405.348,634.239C411.765,642.94 419.112,650.914 427.247,658.016C432.027,656.273 436.75,654.481 441.411,652.636C433.632,646.534 426.539,639.595 420.269,631.955ZM638.262,618.682C632.652,627.513 626.042,635.648 618.589,642.929C620.069,647.621 621.467,652.329 622.762,657.056C631.672,649.123 639.618,640.129 646.398,630.274C643.7,626.365 640.987,622.503 638.262,618.682ZM401.682,602.092C396.946,602.268 392.215,602.395 387.49,602.473C391.539,612.369 396.629,621.73 402.622,630.418C407.509,629.732 412.403,628.997 417.306,628.213C411.164,620.167 405.907,611.41 401.682,602.092ZM652.68,588.036C649.631,597.459 645.572,606.429 640.625,614.822C643.392,618.686 646.145,622.592 648.883,626.542C654.883,617.233 659.867,607.209 663.677,596.627C660.02,593.737 656.354,590.876 652.68,588.036ZM524.416,484.552C490.189,484.552 462.401,512.339 462.401,546.566C462.401,580.793 490.189,608.581 524.416,608.581C558.643,608.581 586.431,580.793 586.431,546.566C586.431,512.339 558.643,484.552 524.416,484.552ZM524.416,488.718C556.343,488.718 582.264,514.639 582.264,546.566C582.264,578.493 556.343,604.414 524.416,604.414C492.489,604.414 466.568,578.493 466.568,546.566C466.568,514.639 492.489,488.718 524.416,488.718ZM377.859,566.358C379.345,577.448 382.061,588.151 385.869,598.33C390.542,598.265 395.22,598.15 399.903,597.987C396.041,588.652 393.198,578.792 391.514,568.544C386.774,567.948 382.198,567.237 377.859,566.358ZM658.918,555.251C658.291,565.082 656.609,574.627 653.98,583.776C657.697,586.642 661.408,589.532 665.11,592.45C668.286,582.723 670.481,572.549 671.574,562.049C667.356,559.721 663.137,557.454 658.918,555.251ZM468.828,544.957C468.332,545.364 468.052,545.977 468.068,546.618C468.084,547.259 468.394,547.857 468.908,548.239C487.422,561.986 505.951,568.724 524.464,568.677C543.078,568.676 570.59,558.105 580.274,548.008C580.689,547.575 580.898,546.983 580.845,546.385C580.793,545.787 580.486,545.24 580.001,544.886C561.495,531.33 542.972,524.502 524.466,524.455C524.464,524.455 524.462,524.455 524.46,524.455C505.918,524.455 483.977,532.506 468.828,544.957ZM540.657,530.493C544.746,534.624 547.272,540.303 547.272,546.566C547.272,552.689 544.858,558.252 540.932,562.357C535.147,563.715 529.462,564.511 524.46,564.511C524.459,564.511 524.457,564.511 524.455,564.511C519.05,564.524 513.647,563.925 508.246,562.712C504.116,558.575 501.56,552.867 501.56,546.566C501.56,540.341 504.055,534.695 508.097,530.571C513.666,529.303 519.205,528.622 524.458,528.622C529.859,528.636 535.258,529.261 540.657,530.493ZM377.367,530.889C376.823,536.035 376.544,541.268 376.544,546.566C376.544,551.783 376.814,556.937 377.343,562.017C381.629,562.936 386.168,563.675 390.885,564.288C390.121,558.492 389.727,552.575 389.727,546.566C389.727,543.57 389.825,540.596 390.018,537.649C385.542,535.545 381.358,533.272 377.367,530.889ZM524.449,562.047L524.488,562.046C524.624,562.035 524.743,561.949 524.795,561.821C527.475,555.22 527.516,546.266 526.845,539.585C526.396,535.106 525.623,531.645 525.125,530.577C524.998,530.306 524.859,530.153 524.759,530.094C524.651,530.031 524.546,530.019 524.449,530.036C524.356,530.053 524.263,530.099 524.182,530.197C524.176,530.204 524.17,530.212 524.164,530.22C522.199,533.016 521.217,539.661 521.226,546.231C521.231,550.15 521.582,554.039 522.266,557.056C522.726,559.082 523.341,560.719 524.094,561.731L524.117,561.8C524.195,562.025 524.399,562.045 524.449,562.047ZM534.965,561.336C535.074,561.328 535.173,561.272 535.236,561.183C535.298,561.093 535.317,560.98 535.287,560.875C534.621,558.569 532.966,557.58 530.774,557.304C530.653,557.289 530.532,557.336 530.453,557.429C530.374,557.523 530.348,557.65 530.383,557.767C530.727,558.903 531.233,559.828 531.958,560.452C532.702,561.091 533.676,561.427 534.965,561.336ZM513.634,560.875C513.603,560.98 513.622,561.093 513.685,561.183C513.747,561.272 513.847,561.328 513.956,561.336C515.244,561.427 516.219,561.091 516.963,560.452C517.688,559.828 518.194,558.903 518.538,557.767C518.573,557.65 518.547,557.523 518.468,557.429C518.389,557.336 518.268,557.289 518.146,557.304C515.955,557.58 514.299,558.569 513.634,560.875ZM501.426,532.366C491.421,535.47 481.648,540.36 473.596,546.496C482.897,553.114 492.194,557.905 501.493,560.875C498.896,556.725 497.394,551.82 497.394,546.566C497.394,541.358 498.87,536.492 501.426,532.366ZM547.391,532.342C549.956,536.474 551.438,541.349 551.438,546.566C551.438,551.698 550.005,556.498 547.517,560.586C558.701,557.2 569.44,552.037 575.507,546.787C566.132,540.177 556.761,535.351 547.391,532.342ZM656.997,522.231C658.44,530.129 659.194,538.26 659.194,546.566C659.194,547.935 659.173,549.298 659.132,550.666C663.413,552.884 667.695,555.167 671.976,557.515C672.242,553.899 672.377,550.248 672.377,546.566C672.377,540.044 671.954,533.619 671.133,527.322C666.432,525.502 661.72,523.812 656.997,522.231ZM539.899,552.424C539.999,552.38 540.073,552.292 540.102,552.187C540.13,552.081 540.109,551.969 540.044,551.881C538.63,549.941 536.736,549.578 534.583,550.068C534.463,550.095 534.366,550.181 534.323,550.296C534.281,550.411 534.3,550.54 534.373,550.638C535.085,551.587 535.876,552.283 536.771,552.621C537.689,552.968 538.72,552.95 539.899,552.424ZM508.876,551.881C508.812,551.969 508.791,552.081 508.819,552.187C508.847,552.292 508.921,552.38 509.021,552.424C510.201,552.95 511.232,552.968 512.149,552.621C513.044,552.283 513.836,551.587 514.547,550.638C514.621,550.54 514.639,550.411 514.597,550.296C514.555,550.181 514.457,550.095 514.338,550.068C512.184,549.578 510.29,549.941 508.876,551.881ZM509.021,539.829C508.921,539.873 508.847,539.961 508.819,540.066C508.791,540.171 508.812,540.284 508.876,540.372C510.29,542.312 512.184,542.675 514.338,542.185C514.457,542.158 514.555,542.072 514.597,541.957C514.639,541.842 514.621,541.713 514.547,541.615C513.836,540.666 513.044,539.97 512.149,539.632C511.232,539.285 510.201,539.303 509.021,539.829ZM540.044,540.372C540.109,540.284 540.13,540.171 540.102,540.066C540.073,539.961 539.999,539.873 539.899,539.829C538.72,539.303 537.689,539.285 536.771,539.632C535.876,539.97 535.085,540.666 534.373,541.615C534.3,541.713 534.281,541.842 534.323,541.957C534.366,542.072 534.463,542.158 534.583,542.185C536.736,542.675 538.63,542.312 540.044,540.372ZM535.287,531.378C535.317,531.273 535.298,531.16 535.236,531.07C535.173,530.981 535.074,530.924 534.965,530.917C533.676,530.826 532.702,531.162 531.958,531.801C531.233,532.425 530.727,533.35 530.383,534.486C530.348,534.603 530.374,534.73 530.453,534.824C530.532,534.917 530.653,534.964 530.774,534.949C532.966,534.673 534.621,533.684 535.287,531.378ZM513.956,530.917C513.847,530.924 513.747,530.981 513.685,531.07C513.622,531.16 513.603,531.273 513.634,531.378C514.299,533.684 515.955,534.673 518.146,534.949C518.268,534.964 518.389,534.917 518.468,534.824C518.547,534.73 518.573,534.603 518.538,534.486C518.194,533.35 517.688,532.425 516.963,531.801C516.219,531.162 515.244,530.826 513.956,530.917ZM385.659,495.368C382.01,505.245 379.386,515.615 377.917,526.353C381.854,528.764 385.975,531.069 390.383,533.206C391.355,523.346 393.392,513.796 396.378,504.674C392.321,501.594 388.803,498.49 385.659,495.368ZM646.081,488.556C650.451,497.694 653.822,507.399 656.051,517.529C660.857,519.103 665.655,520.785 670.44,522.596C668.599,511.319 665.481,500.469 661.243,490.205C656.189,489.612 651.134,489.064 646.081,488.556ZM402.107,463.467C396.246,472.076 391.269,481.334 387.308,491.108C390.378,494.265 393.818,497.405 397.814,500.52C401.136,491.393 405.418,482.725 410.535,474.644C407.482,470.954 404.682,467.226 402.107,463.467ZM645.369,461.384C640.157,461.676 634.945,462.055 629.734,462.513C635.107,469.231 639.85,476.473 643.873,484.149C649.027,484.654 654.181,485.199 659.335,485.79C655.448,477.186 650.761,469.02 645.369,461.384ZM425.309,436.84C417.661,443.756 410.739,451.459 404.67,459.821C407.187,463.58 409.931,467.305 412.93,470.994C417.875,463.713 423.514,456.94 429.754,450.771C428.144,446.183 426.666,441.538 425.309,436.84ZM621.691,435.132C616.342,436.313 611.034,437.653 605.766,439.153C613.345,444.901 620.297,451.431 626.501,458.622C631.816,458.126 637.129,457.71 642.443,457.382C636.301,449.271 629.341,441.812 621.691,435.132ZM450.077,418.711C442.528,423.116 435.404,428.17 428.775,433.801C430.084,438.456 431.51,443.059 433.066,447.606C438.398,442.679 444.128,438.177 450.205,434.152C450.071,429.005 450.022,423.858 450.077,418.711ZM597.654,418.026C591.915,419.867 586.229,421.873 580.606,424.071C587.955,427.448 594.948,431.467 601.508,436.053C606.863,434.46 612.26,433.031 617.697,431.766C611.422,426.661 604.72,422.06 597.654,418.026ZM479.291,405.686C470.576,408.481 462.211,412.063 454.277,416.352C454.19,421.414 454.208,426.476 454.312,431.538C461.388,427.21 468.895,423.516 476.753,420.537C477.425,415.58 478.244,410.629 479.291,405.686ZM509.747,426.427C520.623,424.471 529.869,425.628 538.134,425.47C545.832,425.323 552.626,423.97 559.087,417.056C559.719,416.381 560.377,416.066 561.018,415.939C561.871,415.769 562.764,415.95 563.676,416.436C564.131,416.679 564.609,417.013 565.117,417.322L568.598,405.496C564.342,404.328 559.588,403.006 555.011,400.728C548.509,397.493 541.588,395.353 534.716,394.524C532.687,394.279 531.008,393.574 529.385,392.771C528.068,392.119 526.797,391.392 525.31,390.947C520.744,389.579 515.317,391.012 510.231,392.725C504.525,394.647 499.2,396.96 495.664,397.204C491.072,397.52 487.505,398.104 485.52,399.245C485.078,399.5 484.702,399.706 484.638,400.074C484.557,400.532 484.88,401.006 485.342,401.624C486.267,402.859 488.495,403.885 491.902,404.77C492.728,404.985 493.339,405.681 493.445,406.528L494.856,417.794L498.822,407.541C499.156,406.677 500.021,406.137 500.944,406.217C505.365,406.598 510.64,406.685 516.78,406.364C517.818,406.309 518.737,407.029 518.934,408.05L519.53,411.139L520.011,408.129C520.105,407.538 520.449,407.016 520.955,406.696C521.461,406.377 522.079,406.29 522.653,406.458C525.57,407.312 528.132,410.076 530.635,412.016C531.084,412.363 531.371,412.878 531.431,413.442C531.491,414.006 531.319,414.57 530.954,415.003C530.954,415.003 528.989,417.342 526.473,419.473C524.648,421.018 522.531,422.42 520.629,422.946C520.457,422.994 520.281,423.018 520.106,423.021C519.94,423.088 519.764,423.134 519.582,423.157C519.466,423.171 519.351,423.182 519.236,423.19C508.297,423.923 502.716,425.755 497.831,426.703C496.62,426.939 495.541,427.142 494.578,427.321C494.495,427.337 494.412,427.347 494.329,427.352C494.25,427.377 494.168,427.398 494.084,427.413L492.433,427.717C499.239,428.774 504.365,427.449 508.979,426.57C509.048,426.557 509.116,426.544 509.184,426.531L509.296,426.51C509.333,426.503 509.371,426.496 509.408,426.489C509.459,426.48 509.509,426.47 509.559,426.461L509.666,426.442L509.747,426.427ZM516.273,416.253L516.839,419.193C507.335,419.995 502.063,421.596 497.494,422.522L499.061,418.473C504.68,417.363 510.425,416.615 516.273,416.253ZM572.595,406.671C579.522,409.057 586.216,411.943 592.635,415.286C586.77,417.25 580.961,419.39 575.22,421.737C573.127,420.885 571.009,420.083 568.868,419.335L572.595,406.671ZM483.563,405.63C482.597,410.062 481.824,414.502 481.181,418.946C484.224,417.913 487.316,416.986 490.453,416.169L489.482,408.416L489.483,408.416C486.875,407.619 484.916,406.645 483.563,405.63ZM524.121,416C524.009,416.098 523.895,416.196 523.78,416.294C523.461,416.564 523.132,416.832 522.798,417.09C522.798,417.09 522.87,416.644 522.971,416.008C523.354,416.004 523.738,416.001 524.121,416ZM500.829,413.902L502.149,410.489C505.936,410.748 510.279,410.809 515.184,410.609L515.477,412.128C510.516,412.455 505.628,413.052 500.829,413.902ZM523.954,411.834C523.849,411.834 523.743,411.835 523.638,411.835L523.672,411.622L523.672,411.622C523.766,411.691 523.86,411.762 523.954,411.834ZM491.736,399.764C493.041,399.764 494.1,400.294 494.1,400.947C494.1,401.6 493.041,402.13 491.736,402.13C490.432,402.13 489.373,401.6 489.373,400.947C489.373,400.294 490.432,399.764 491.736,399.764ZM510.062,398.524C510.271,396.667 514.693,396.642 515.83,394.835C518.116,391.205 526.223,391.724 527.305,395.208C523.55,400.877 517.323,401.243 510.062,398.524ZM519.245,395.093C520.012,395.093 520.635,395.353 520.635,395.674C520.635,395.994 520.012,396.255 519.245,396.255C518.478,396.255 517.855,395.994 517.855,395.674C517.855,395.353 518.478,395.093 519.245,395.093Z" style="fill:white;"/>
    </g>
</svg>
