<?xml version="1.0" encoding="UTF-8" standalone="no"?>
<!DOCTYPE svg PUBLIC "-//W3C//DTD SVG 1.1//EN" "http://www.w3.org/Graphics/SVG/1.1/DTD/svg11.dtd">
<svg width="100%" height="100%" viewBox="0 0 1000 1000" version="1.1" xmlns="http://www.w3.org/2000/svg" xmlns:xlink="http://www.w3.org/1999/xlink" xml:space="preserve" xmlns:serif="http://www.serif.com/" style="fill-rule:evenodd;clip-rule:evenodd;stroke-linejoin:round;stroke-miterlimit:2;">
    <g transform="matrix(1.6835,0,0,1.6835,-342.593,-161.785)">
        <path d="M542.737,234L660,234L690,300L688.07,302.292C734.885,321.96 767.8,368.267 767.8,422.2C767.8,446.459 761.141,469.174 749.552,488.618L765,500L755,513L740.811,501.472C737.295,506.033 733.483,510.355 729.405,514.405L740,525L732,534L719.16,523.568C696.876,541.48 668.58,552.2 637.8,552.2C589.391,552.2 547.126,525.683 524.757,486.403C516.936,481.649 509.015,479.55 501,479.939L501,480C500.834,479.988 500.667,479.976 500.5,479.967C500.333,479.976 500.166,479.988 500,480L500,479.939C491.985,479.55 484.064,481.649 476.243,486.403C453.874,525.683 411.609,552.2 363.2,552.2C291.451,552.2 233.2,493.949 233.2,422.2C233.2,368.267 266.115,321.96 312.93,302.292L311,300L341,234L457.273,234L470,262L530.063,262L542.737,234ZM637.8,314.401C697.296,314.401 745.599,362.704 745.599,422.2C745.599,481.697 697.296,530 637.8,530C578.303,530 530,481.697 530,422.2C530,362.704 578.303,314.401 637.8,314.401ZM363.2,314.401C303.704,314.401 255.401,362.704 255.401,422.2C255.401,481.697 303.704,530 363.2,530C422.697,530 471,481.697 471,422.2C471,362.704 422.697,314.401 363.2,314.401ZM536.767,234L461.839,234L473.511,258.78L526.563,258.78L536.767,234Z" style="fill:white;"/>
    </g>
</svg>
