<?xml version="1.0" encoding="UTF-8" standalone="no"?>
<!DOCTYPE svg PUBLIC "-//W3C//DTD SVG 1.1//EN" "http://www.w3.org/Graphics/SVG/1.1/DTD/svg11.dtd">
<svg width="100%" height="100%" viewBox="0 0 1000 1000" version="1.1" xmlns="http://www.w3.org/2000/svg" xmlns:xlink="http://www.w3.org/1999/xlink" xml:space="preserve" xmlns:serif="http://www.serif.com/" style="fill-rule:evenodd;clip-rule:evenodd;stroke-linejoin:round;stroke-miterlimit:2;">
    <g transform="matrix(1.34328,0,0,1.34328,-258.955,-131.923)">
        <path d="M564.269,520.02C502.221,521.8 511.013,550.686 465.75,590C406.422,641.53 316.159,640.609 276.939,590C227.841,526.645 210.344,361.667 258.354,320C275.247,305.339 310.223,316.223 351.277,320C426.901,326.958 523.15,340.218 565,340L565.991,340.003C608.351,340.012 703.689,326.904 778.723,320C819.777,316.223 854.753,305.339 871.646,320C919.656,361.667 902.159,526.645 853.061,590C813.841,640.609 722.403,641.53 663.076,590C617.635,550.532 627.388,521.574 565,520L564.269,520.02ZM720,400C616.667,406.67 513.333,406.579 410,400L410,450C512.219,457.271 615.551,457.285 720,450L720,400ZM590,410C533.745,413.016 474.928,408.767 415,405L415,445.571C472.583,448.082 530.898,452.033 590,450L590,410Z" style="fill:white;"/>
    </g>
</svg>
