<?xml version="1.0" encoding="UTF-8" standalone="no"?>
<!DOCTYPE svg PUBLIC "-//W3C//DTD SVG 1.1//EN" "http://www.w3.org/Graphics/SVG/1.1/DTD/svg11.dtd">
<svg width="100%" height="100%" viewBox="0 0 1000 1000" version="1.1" xmlns="http://www.w3.org/2000/svg" xmlns:xlink="http://www.w3.org/1999/xlink" xml:space="preserve" xmlns:serif="http://www.serif.com/" style="fill-rule:evenodd;clip-rule:evenodd;stroke-linejoin:round;stroke-miterlimit:2;">
    <g transform="matrix(3.82979,0,0,3.82979,-1365.71,-394.255)">
        <path d="M433.402,330C436.908,335.333 440.922,340.667 445,346C472.933,316.161 477.497,328.156 476,351C478.457,345.884 480.154,340.165 481.288,334C483.447,322.26 481.324,307.244 483,295C486.497,299.726 491.749,303.452 493.947,309C500.289,325.003 510.525,335.353 523,342C518.019,330.43 512.669,318.705 505,306C517.524,303.935 534.077,294.366 536,288C538.219,280.654 530.981,242.948 535,243C548.388,228.9 558.514,215.618 562,204C552.312,213.74 542.637,222.253 533,227C527.261,223.952 525.808,220.964 526,218L495,229L499.5,201C499.5,201 516.75,192.333 520,187C523.127,181.868 523,169.833 519,169C515,168.167 496,182 496,182L499.5,116L480,167.332C484.003,167.74 486.32,166.289 485.712,174C484.813,185.405 482.899,184.163 478,183L470,221C458.445,191.533 445.919,162.379 431,134C437.837,157.618 443.906,181.281 449,205C437.207,209.068 425.119,216.314 412.317,231.275C413.556,232.03 414.473,232.928 415,234C413.159,244.473 414.075,253.472 422,261.184C428.478,267.488 427.32,276.7 430,282L434,272C441.32,276.333 448.489,280.667 454,285C443.834,292.766 433.188,300.492 420,308C418.674,311.667 418.457,315.333 419,319C430.067,313.609 442.784,306.276 458,296C466.452,295.327 465.559,312.58 458,317L433.402,330ZM499.5,295C500.445,291.392 500.955,287.726 501,284C498.424,286.66 489.843,270.426 495,261C498.111,255.313 513,247 513,247C523.564,263.424 523.789,278.389 512.812,284C508.417,286.247 503.554,289.365 499.5,295ZM430,255.916C430,255.916 451.381,270.846 456,270C459.623,269.336 466.558,266.837 467,265C468.065,260.575 458.995,231.583 453,227C449.532,224.349 434.009,231.248 434,234C433.982,239.16 434.892,255.916 430,255.916Z" style="fill:white;"/>
    </g>
</svg>
