<?xml version="1.0" encoding="UTF-8" standalone="no"?>
<!DOCTYPE svg PUBLIC "-//W3C//DTD SVG 1.1//EN" "http://www.w3.org/Graphics/SVG/1.1/DTD/svg11.dtd">
<svg width="100%" height="100%" viewBox="0 0 1000 1000" version="1.1" xmlns="http://www.w3.org/2000/svg" xmlns:xlink="http://www.w3.org/1999/xlink" xml:space="preserve" xmlns:serif="http://www.serif.com/" style="fill-rule:evenodd;clip-rule:evenodd;stroke-linejoin:round;stroke-miterlimit:2;">
    <g transform="matrix(11.8033,0,0,11.8033,-7290.34,-2248.69)">
        <path d="M654.913,245.951L662,240L669,245L675,240C676.475,264.608 667.869,270.985 655.051,270.985L655.051,271L654.982,270.993L654.913,271L654.913,270.985C642.149,270.985 634.098,262.754 635.5,240L641.138,245L646.138,240L654.913,245.951ZM642.091,243.396C643.249,236.496 648.091,230.421 654.913,230.333C662.104,230.241 666.75,236.183 667.621,243.042L662.155,239L654.913,245.123L645.845,239L642.091,243.396ZM678.844,218.723L679.622,224.52L684.687,225.41L679.622,226.301L678.844,232.098L678.065,226.301L673,225.41L678.065,224.52L678.844,218.723ZM674,232C667.58,226.914 661.33,224.411 654.913,224.43C648.496,224.45 643.913,226.993 637.5,232C650.849,214.065 661.662,214.794 674,232ZM653.71,217.765L652.371,211.677L641.048,208.875L652.371,206.073L655.173,194.75L657.974,206.073L669.298,208.875L657.974,211.677L656.645,217.728C655.67,217.651 654.692,217.662 653.71,217.765Z" style="fill:white;"/>
    </g>
</svg>
