<?xml version="1.0" encoding="UTF-8" standalone="no"?>
<!DOCTYPE svg PUBLIC "-//W3C//DTD SVG 1.1//EN" "http://www.w3.org/Graphics/SVG/1.1/DTD/svg11.dtd">
<svg width="100%" height="100%" viewBox="0 0 1000 1000" version="1.1" xmlns="http://www.w3.org/2000/svg" xmlns:xlink="http://www.w3.org/1999/xlink" xml:space="preserve" xmlns:serif="http://www.serif.com/" style="fill-rule:evenodd;clip-rule:evenodd;stroke-linecap:round;stroke-linejoin:round;stroke-miterlimit:1.5;">
    <path d="M478.738,624.166C480.129,626.178 479.767,628.19 478.483,630.203C477.651,628.152 477.614,626.134 478.738,624.166Z" style="fill:none;stroke:black;stroke-width:1px;"/>
    <g transform="matrix(2.86693,0,0,2.86693,-940.839,-907.33)">
        <path d="M479.474,618.753C479.307,619.233 479.142,619.721 478.978,620.22C479.266,619.803 479.429,619.31 479.474,618.753C484.331,604.743 489.672,599.52 495.936,611.13C500.526,601.005 508.673,603.936 508.097,618.216C514.262,625.087 513.805,636.142 514.177,646.673C514.232,648.219 517.893,643.887 518.216,637.352C518.513,631.33 519.69,629.639 520.774,626.425C523.997,597.62 533.285,598.041 532.743,606.818C538.987,615.361 539.21,620.967 539.731,626.717C539.731,626.717 540.904,604.216 548.817,598.894C568.014,585.981 585.334,568.619 589.005,562.674C610.112,528.488 633.614,516.109 643.843,485.381C646.631,477.007 650.79,468.695 651.841,459.812C655.533,428.603 664.115,398.897 656.447,378.228C650.201,361.391 642.837,346.103 634.056,337.873C644.357,368.38 634.451,381.628 607.924,386.138C589.347,389.296 570.066,396.089 552.973,407.892C533.592,421.274 518.425,430.006 500,417.059C493.812,412.711 484.809,411.394 475.68,406.384C464.16,400.06 452.409,394.749 439.581,393.628C405.567,390.655 387.151,376.438 385.781,341.593C381.303,355.104 379.04,370.281 379.945,387.842C358.976,377.751 354.301,359.787 364.201,334.78C352.141,346.554 346.188,364.435 345.873,387.66C345.575,409.707 344.746,430.117 349.102,444.187C357.696,471.946 356.83,497.55 362.045,521.207C362.045,521.207 375.26,527.008 379.329,541.465C382.647,553.258 391.721,562.278 403.502,564.73C417.309,567.605 422.81,576.554 430.256,578.964C454.119,586.69 480.163,610.309 479.474,618.753ZM471.066,512.267C463.518,510.776 457.35,507.446 442.07,511.481C431.108,514.377 417.63,512.123 412.475,506.03C410.339,503.507 408.218,501.199 405.597,500C400.912,497.858 400.014,491.037 398.66,485.052C397.528,480.044 393.446,475.268 393.798,469.524C394.089,464.79 392.734,459.813 390.76,454.309C401.227,453.126 410.564,455.179 419.297,455.143C438.044,455.067 452.223,462.222 458.672,482.3C461.661,491.607 468.089,500.512 471.066,512.267ZM607.49,469.768C600.258,477.515 593.785,483.583 590.805,487.238C582.662,497.227 565.999,501.31 549.306,507.501C554.742,500.963 559.887,495.474 562.48,490.884C572.881,472.476 592.726,472.53 607.49,469.768Z" style="fill:white;"/>
    </g>
</svg>
