<?xml version="1.0" encoding="UTF-8" standalone="no"?>
<!DOCTYPE svg PUBLIC "-//W3C//DTD SVG 1.1//EN" "http://www.w3.org/Graphics/SVG/1.1/DTD/svg11.dtd">
<svg width="100%" height="100%" viewBox="0 0 1000 1000" version="1.1" xmlns="http://www.w3.org/2000/svg" xmlns:xlink="http://www.w3.org/1999/xlink" xml:space="preserve" xmlns:serif="http://www.serif.com/" style="fill-rule:evenodd;clip-rule:evenodd;stroke-linejoin:round;stroke-miterlimit:2;">
    <g transform="matrix(4.8741,0,0,4.4734,-1858.91,-1039.1)">
        <path d="M483.968,394.338C484.29,394.18 484.633,394.066 485,394C485,395.483 515.018,393.909 525,390C532.076,387.229 547,387.751 547,389C547,389 548.682,403.78 546,402C545.26,401.509 530.688,394.475 529,396C537.797,398.427 544.891,402.662 550,409C544.924,411.294 540.893,414.581 537,418C533.646,411.653 528.215,407.006 522,403C528.566,409.778 535.708,416.373 535,422C531.658,422.285 525.208,422.697 521,424C518.331,415.503 512.457,407.804 507,400C512.46,408.667 518.907,417.333 518,426C512,429.009 506.749,435.33 500,437C496.465,424.563 491.852,412.125 487.255,399.689L487.303,399.901C491.932,413.706 495.798,427.612 496,442L488,444C487.212,444.866 480.724,444.866 479.936,444L471.936,442C476.499,427.612 472.078,413.805 475,400L475.048,399.788C471.466,413.826 474.166,428.816 467.936,437C461.187,435.33 455.936,429.009 449.936,426C449.398,421.172 460.846,411.841 466,400C461.557,408.249 451.17,416.191 446.936,424C442.728,422.697 436.278,422.285 432.936,422C437.49,414.046 445.232,403.54 449,398C444.778,402.426 437.398,412.309 430.936,418C427.042,414.581 423.011,411.294 417.936,409C427.419,402.741 436.388,398.485 442,396C440.312,394.475 422.675,401.509 421.936,402C419.254,403.78 420.936,389 420.936,389C420.936,387.751 435.859,387.229 442.936,390C452.917,393.909 482.936,395.483 482.936,394C483.302,394.066 483.645,394.18 483.968,394.338ZM485.038,244.708C489.195,237.758 544.976,260.337 544.9,300C544.789,357.968 524.9,390 524.9,390C524.9,390 492.365,394.599 485.082,390.117C477.925,394.666 445.2,390.04 445.2,390.04C445.2,390.04 439.989,381.648 434.887,365.682C430.021,350.455 425.254,328.338 425.2,300.04C425.125,260.454 480.69,237.885 485.038,244.708ZM484.9,349.885L484.9,349.862C505.36,344.731 505.453,363.823 500.9,376C507.584,366.238 513.859,356.588 512.628,349C511.507,342.09 502.302,333.238 485.2,334.808L485.2,334.876C467.906,333.174 458.6,342.09 457.472,349.04C456.241,356.628 462.517,366.278 469.2,376.04C464.663,363.906 460.655,345.332 484.9,349.885ZM480.2,322.04L485.033,327.84L489.9,322L485.054,297.77L480.2,322.04ZM468.2,278.04C466.662,286.61 464.979,295.21 462.2,304.04C456.2,306.229 450.2,307.657 444.2,309.04C455.346,304.702 463.741,295.121 468.2,278.04ZM501.9,278C503.438,286.57 505.121,295.17 507.9,304C513.9,306.189 519.9,307.617 525.9,309C514.754,304.662 506.359,295.081 501.9,278Z" style="fill:white;"/>
    </g>
</svg>
