<?xml version="1.0" encoding="UTF-8" standalone="no"?>
<!DOCTYPE svg PUBLIC "-//W3C//DTD SVG 1.1//EN" "http://www.w3.org/Graphics/SVG/1.1/DTD/svg11.dtd">
<svg width="100%" height="100%" viewBox="0 0 1000 1000" version="1.1" xmlns="http://www.w3.org/2000/svg" xmlns:xlink="http://www.w3.org/1999/xlink" xml:space="preserve" xmlns:serif="http://www.serif.com/" style="fill-rule:evenodd;clip-rule:evenodd;stroke-linejoin:round;stroke-miterlimit:2;">
    <g transform="matrix(1.60822,0,0,1.60822,-557.529,-277.658)">
        <path d="M719,462L703,471C699.026,459.263 693.903,452.55 686,450L601,500C610.136,504.719 615.696,512.82 618,524L602,534C599.29,538.922 596.281,539.802 593,537L759,756C769.327,765.381 778.415,764.724 787,760L880,704C892.768,695.471 895.128,684.39 884,670L719,462ZM774.479,678.173C773.164,676.278 770.558,675.806 768.662,677.121L750.791,689.517C748.896,690.832 748.424,693.439 749.739,695.334L754.504,702.203C755.819,704.098 758.425,704.57 760.32,703.255L778.191,690.859C780.087,689.544 780.558,686.938 779.243,685.042L774.479,678.173ZM805.485,659.173C804.17,657.278 801.563,656.806 799.668,658.121L781.797,670.517C779.902,671.832 779.43,674.439 780.745,676.334L785.51,683.203C786.824,685.098 789.431,685.57 791.326,684.255L809.197,671.859C811.093,670.544 811.564,667.938 810.249,666.042L805.485,659.173ZM759.485,658.797C758.17,656.902 755.563,656.43 753.668,657.745L735.797,670.141C733.902,671.456 733.43,674.062 734.745,675.958L739.51,682.827C740.824,684.722 743.431,685.194 745.326,683.879L763.197,671.483C765.093,670.168 765.564,667.561 764.249,665.666L759.485,658.797ZM744.982,640.173C743.667,638.278 741.061,637.806 739.165,639.121L721.294,651.517C719.399,652.832 718.927,655.439 720.242,657.334L725.007,664.203C726.321,666.098 728.928,666.57 730.823,665.255L748.694,652.859C750.59,651.544 751.061,648.938 749.746,647.042L744.982,640.173ZM837.49,639.985C836.176,638.09 833.569,637.618 831.674,638.933L813.803,651.329C811.907,652.644 811.436,655.251 812.751,657.146L817.515,664.015C818.83,665.91 821.437,666.382 823.332,665.067L841.203,652.671C843.098,651.356 843.57,648.749 842.255,646.854L837.49,639.985ZM790.49,639.797C789.176,637.902 786.569,637.43 784.674,638.745L766.803,651.141C764.907,652.456 764.436,655.062 765.751,656.958L770.515,663.827C771.83,665.722 774.437,666.194 776.332,664.879L794.203,652.483C796.098,651.168 796.57,648.561 795.255,646.666L790.49,639.797ZM730.479,621.985C729.164,620.09 726.558,619.618 724.662,620.933L706.791,633.329C704.896,634.644 704.424,637.251 705.739,639.146L710.504,646.015C711.819,647.91 714.425,648.382 716.32,647.067L734.191,634.671C736.087,633.356 736.558,630.749 735.243,628.854L730.479,621.985ZM775.988,621.173C774.673,619.278 772.066,618.806 770.171,620.121L752.3,632.517C750.405,633.832 749.933,636.439 751.248,638.334L756.012,645.203C757.327,647.098 759.934,647.57 761.829,646.255L779.7,633.859C781.595,632.544 782.067,629.938 780.752,628.042L775.988,621.173ZM822.496,620.609C821.181,618.714 818.575,618.242 816.68,619.557L798.809,631.953C796.913,633.268 796.442,635.874 797.757,637.77L802.521,644.639C803.836,646.534 806.442,647.005 808.338,645.691L826.209,633.294C828.104,631.98 828.576,629.373 827.261,627.478L822.496,620.609ZM761.485,602.985C760.17,601.09 757.563,600.618 755.668,601.933L737.797,614.329C735.902,615.644 735.43,618.251 736.745,620.146L741.51,627.015C742.824,628.91 745.431,629.382 747.326,628.067L765.197,615.671C767.093,614.356 767.564,611.749 766.249,609.854L761.485,602.985ZM716.485,602.173C715.17,600.278 712.563,599.806 710.668,601.121L692.797,613.517C690.902,614.832 690.43,617.439 691.745,619.334L696.51,626.203C697.824,628.098 700.431,628.57 702.326,627.255L720.197,614.859C722.093,613.544 722.564,610.938 721.249,609.042L716.485,602.173ZM807.993,601.985C806.679,600.09 804.072,599.618 802.177,600.933L784.306,613.329C782.41,614.644 781.939,617.251 783.254,619.146L788.018,626.015C789.333,627.91 791.939,628.382 793.835,627.067L811.706,614.671C813.601,613.356 814.073,610.749 812.758,608.854L807.993,601.985ZM793.49,583.797C792.176,581.902 789.569,581.43 787.674,582.745L769.803,595.141C767.907,596.456 767.436,599.062 768.751,600.958L773.515,607.827C774.83,609.722 777.437,610.194 779.332,608.879L797.203,596.483C799.098,595.168 799.57,592.561 798.255,590.666L793.49,583.797ZM747.49,583.173C746.176,581.278 743.569,580.806 741.674,582.121L723.803,594.517C721.907,595.832 721.436,598.439 722.751,600.334L727.515,607.203C728.83,609.098 731.437,609.57 733.332,608.255L751.203,595.859C753.098,594.544 753.57,591.938 752.255,590.042L747.49,583.173ZM679.146,576.668C677.724,574.617 674.904,574.107 672.853,575.53L665.422,580.684C663.372,582.107 662.861,584.927 664.284,586.977L672.854,599.332C674.276,601.383 677.096,601.893 679.147,600.47L686.578,595.316C688.628,593.893 689.139,591.073 687.716,589.023L679.146,576.668ZM779.496,563.985C778.181,562.09 775.575,561.618 773.68,562.933L755.809,575.329C753.913,576.644 753.442,579.251 754.757,581.146L759.521,588.015C760.836,589.91 763.442,590.382 765.338,589.067L783.209,576.671C785.104,575.356 785.576,572.749 784.261,570.854L779.496,563.985ZM718.271,523.895C713.677,517.374 704.653,515.809 698.133,520.403L674.502,537.049C667.981,541.642 666.417,550.666 671.01,557.187L689.104,582.872C693.697,589.393 702.721,590.958 709.242,586.364L732.872,569.718C739.393,565.125 740.958,556.101 736.364,549.58L718.271,523.895ZM656.911,550.366C658.325,550.383 659.71,551.061 660.577,552.31L669.147,564.665C670.57,566.716 670.06,569.535 668.009,570.958L660.578,576.112C659.809,576.646 658.932,576.907 658.061,576.918L658.006,576.918C656.573,576.919 655.163,576.24 654.285,574.974L645.715,562.62C644.293,560.569 644.803,557.749 646.853,556.327L654.284,551.172C655.069,550.627 655.967,550.366 656.856,550.366L656.911,550.366ZM711.27,540.581C709.335,537.834 705.535,537.175 702.789,539.11L692.837,546.121C690.09,548.055 689.431,551.856 691.366,554.602L698.986,565.419C700.921,568.166 704.721,568.825 707.467,566.89L717.419,559.879C720.165,557.945 720.825,554.144 718.89,551.398L711.27,540.581ZM710.133,542.764C708.538,540.5 705.406,539.957 703.142,541.552L694.94,547.33C692.676,548.924 692.133,552.057 693.728,554.32L700.008,563.236C701.603,565.5 704.735,566.043 706.999,564.448L715.201,558.67C717.465,557.076 718.008,553.943 716.413,551.68L710.133,542.764ZM752.668,531.944C751.246,529.894 748.426,529.384 746.375,530.806L738.944,535.961C736.894,537.383 736.384,540.203 737.806,542.254L746.376,554.608C747.798,556.659 750.618,557.169 752.669,555.746L760.1,550.592C762.151,549.169 762.661,546.35 761.238,544.299L752.668,531.944ZM598,502L585,510C581.366,514.468 580.879,519.146 583,524C584.557,527.714 586.415,530.964 588.796,533C591.678,535.465 595.87,537.532 598,533L614,523C612.268,515.086 607.351,507.981 598,502ZM734.668,507.392C733.246,505.341 730.426,504.831 728.375,506.254L720.944,511.408C718.894,512.831 718.384,515.65 719.806,517.701L728.376,530.056C729.798,532.106 732.618,532.616 734.669,531.194L742.1,526.039C744.151,524.617 744.661,521.797 743.238,519.746L734.668,507.392ZM698,438L577,507C575.863,510.565 576.39,513.791 577,517L426,276C422.155,270.573 424.204,266.77 430,264L536,205C543.205,202.316 549.788,203.453 555,213L698,438ZM670,413L570,470L456,291L557,237L670,413ZM690,448C697.694,452.711 702.551,459.131 705,467L718,459C716.256,448.537 710.732,443.423 702,441L690,448Z" style="fill:white;"/>
    </g>
</svg>
