<?xml version="1.0" encoding="UTF-8" standalone="no"?>
<!DOCTYPE svg PUBLIC "-//W3C//DTD SVG 1.1//EN" "http://www.w3.org/Graphics/SVG/1.1/DTD/svg11.dtd">
<svg width="100%" height="100%" viewBox="0 0 1000 1000" version="1.1" xmlns="http://www.w3.org/2000/svg" xmlns:xlink="http://www.w3.org/1999/xlink" xml:space="preserve" xmlns:serif="http://www.serif.com/" style="fill-rule:evenodd;clip-rule:evenodd;stroke-linejoin:round;stroke-miterlimit:2;">
    <g transform="matrix(1.48026,0,0,1.48026,-37.3355,-467.352)">
        <path d="M361,957L314.5,795L407.5,795L361,957ZM524.569,808L447.256,779.825L496.394,730.688L524.569,808ZM202.688,808L280,779.825L230.863,730.688L202.688,808ZM363,523.5C434.749,523.5 493,581.751 493,653.5C493,725.249 434.749,783.5 363,783.5C291.251,783.5 233,725.249 233,653.5C233,581.751 291.251,523.5 363,523.5ZM363,574.528C406.586,574.528 441.972,609.914 441.972,653.5C441.972,697.086 406.586,732.472 363,732.472C319.414,732.472 284.028,697.086 284.028,653.5C284.028,609.914 319.414,574.528 363,574.528ZM59,653.5L221,607L221,700L59,653.5ZM667,653.5L505,607L505,700L667,653.5ZM363,615C384.249,615 401.5,632.251 401.5,653.5C401.5,674.749 384.249,692 363,692C341.751,692 324.5,674.749 324.5,653.5C324.5,632.251 341.751,615 363,615ZM524.569,495.431L447.256,523.606L496.394,572.744L524.569,495.431ZM202.688,495.431L280,523.606L230.863,572.744L202.688,495.431ZM361,350L407.5,512L314.5,512L361,350Z" style="fill:white;"/>
    </g>
</svg>
