<?xml version="1.0" encoding="UTF-8" standalone="no"?>
<!DOCTYPE svg PUBLIC "-//W3C//DTD SVG 1.1//EN" "http://www.w3.org/Graphics/SVG/1.1/DTD/svg11.dtd">
<svg width="100%" height="100%" viewBox="0 0 1000 1000" version="1.1" xmlns="http://www.w3.org/2000/svg" xmlns:xlink="http://www.w3.org/1999/xlink" xml:space="preserve" xmlns:serif="http://www.serif.com/" style="fill-rule:evenodd;clip-rule:evenodd;stroke-linejoin:round;stroke-miterlimit:2;">
    <g transform="matrix(2.72593,0,0,2.72593,-842.267,-862.963)">
        <path d="M491.939,603.963C460.245,603.963 426.344,588.176 410.33,563.938C410.156,563.676 409.863,563.518 409.548,563.518L391.224,563.518L391.224,565.393L409.046,565.393C425.485,589.866 459.81,605.838 491.939,605.838L492.877,605.838C525.006,605.838 559.33,589.866 575.77,565.393L593.592,565.393L593.592,563.518L575.268,563.518C574.953,563.518 574.659,563.676 574.486,563.938C558.471,588.176 524.571,603.963 492.877,603.963L491.939,603.963ZM656.511,536.855L656.552,536.868C656.552,536.868 657.489,536.484 657.489,537.82L657.489,551.489C657.489,555.034 655.447,558.552 652.657,561.164C649.869,563.774 646.353,565.457 643.521,565.457L629.165,565.457L629.165,563.582L643.521,563.582C645.967,563.582 648.967,562.05 651.375,559.795C653.781,557.543 655.614,554.545 655.614,551.489L655.614,536.868L656.017,536.868C656.213,536.78 656.425,536.828 656.511,536.855ZM328.304,536.855L328.264,536.868C328.264,536.868 327.326,536.484 327.326,537.82L327.326,551.489C327.326,555.034 329.369,558.552 332.159,561.164C334.947,563.774 338.463,565.457 341.295,565.457L355.65,565.457L355.65,563.582L341.295,563.582C338.848,563.582 335.849,562.05 333.441,559.795C331.035,557.543 329.201,554.545 329.201,551.489L329.201,536.868L328.798,536.868C328.603,536.78 328.391,536.828 328.304,536.855ZM547.223,493.557C563.268,478.102 582.789,465.786 603.903,460.401C640.989,450.942 626.679,466.853 568.377,504.48C619.728,484.005 628.258,485.763 565.565,524.5C597.358,519.321 581.768,532.109 538.348,551.806C516.163,561.871 506.862,542.8 531.606,510.938C535.786,505.555 540.371,500.349 545.303,495.438L547.223,493.557ZM439.513,495.438L437.593,493.557C421.547,478.102 402.026,465.786 380.912,460.401C343.826,450.942 358.137,466.853 416.438,504.48C365.087,484.005 356.558,485.763 419.25,524.5C387.458,519.321 403.048,532.109 446.467,551.806C468.652,561.871 477.954,542.8 453.21,510.938C449.03,505.555 444.444,500.349 439.513,495.438ZM491.47,499.06L491.47,478.75L493.345,478.75L493.345,499.06L513.654,499.06L513.654,500.94L493.345,500.94L493.345,521.25L491.47,521.25L491.47,500.94L471.161,500.94L471.161,499.06L491.47,499.06ZM656.511,463.145L656.552,463.132C656.552,463.132 657.489,463.516 657.489,462.18L657.489,448.511C657.489,444.966 655.447,441.448 652.657,438.836C649.869,436.226 646.353,434.543 643.521,434.543L629.165,434.543L629.165,436.418L643.521,436.418C645.967,436.418 648.967,437.95 651.375,440.205C653.781,442.457 655.614,445.455 655.614,448.511L655.614,463.132L656.017,463.132C656.213,463.22 656.425,463.172 656.511,463.145ZM328.304,463.145L328.264,463.132C328.264,463.132 327.326,463.516 327.326,462.18L327.326,448.511C327.326,444.966 329.369,441.448 332.159,438.836C334.947,436.226 338.463,434.543 341.295,434.543L355.65,434.543L355.65,436.418L341.295,436.418C338.848,436.418 335.849,437.95 333.441,440.205C331.035,442.457 329.201,445.455 329.201,448.511L329.201,463.132L328.798,463.132C328.603,463.22 328.391,463.172 328.304,463.145ZM491.939,396.037C460.245,396.037 426.344,411.824 410.33,436.062C410.156,436.324 409.863,436.482 409.548,436.482L391.224,436.482L391.224,434.607L409.046,434.607C425.485,410.134 459.81,394.162 491.939,394.162L492.877,394.162C525.006,394.162 559.33,410.134 575.77,434.607L593.592,434.607L593.592,436.482L575.268,436.482C574.953,436.482 574.659,436.324 574.486,436.062C558.471,411.824 524.571,396.037 492.877,396.037L491.939,396.037Z" style="fill:white;"/>
    </g>
</svg>
