<?xml version="1.0" encoding="UTF-8" standalone="no"?>
<!DOCTYPE svg PUBLIC "-//W3C//DTD SVG 1.1//EN" "http://www.w3.org/Graphics/SVG/1.1/DTD/svg11.dtd">
<svg width="100%" height="100%" viewBox="0 0 1000 1000" version="1.1" xmlns="http://www.w3.org/2000/svg" xmlns:xlink="http://www.w3.org/1999/xlink" xml:space="preserve" xmlns:serif="http://www.serif.com/" style="fill-rule:evenodd;clip-rule:evenodd;stroke-linejoin:round;stroke-miterlimit:2;">
    <g transform="matrix(13.7837,0,0,13.7837,-10956.3,-6177.42)">
        <path d="M848.328,470L853,468L852,476L863,495C863.584,496.96 864.224,498.738 863.406,499.489C860.52,502.135 858.419,503.804 857,504.296C855.192,504.922 853.201,503.972 852,503L843,490L840,491C838.597,484.965 836.159,481.415 832,482C827.953,483.962 822.816,485.108 816,485C814.126,484.97 814.924,483.552 814,483.032C813.201,482.582 811.69,483.619 811,482L810.225,479C810.64,476.956 811.635,477.801 812.142,477C812.639,476.215 811.832,474.85 813,474C817.695,470.583 822.551,467.401 830,468C832.178,467.998 834.235,467.541 836,466C842.535,463.036 846.831,464.039 848.328,470ZM810.298,481.347L809.871,479.847L798.645,484.645L798.822,485.069L810.298,481.347Z" style="fill:white;"/>
    </g>
</svg>
