<?xml version="1.0" encoding="UTF-8" standalone="no"?>
<!DOCTYPE svg PUBLIC "-//W3C//DTD SVG 1.1//EN" "http://www.w3.org/Graphics/SVG/1.1/DTD/svg11.dtd">
<svg width="100%" height="100%" viewBox="0 0 1000 1000" version="1.1" xmlns="http://www.w3.org/2000/svg" xmlns:xlink="http://www.w3.org/1999/xlink" xml:space="preserve" xmlns:serif="http://www.serif.com/" style="fill-rule:evenodd;clip-rule:evenodd;stroke-linejoin:round;stroke-miterlimit:2;">
    <g transform="matrix(3.48162,0,0,3.48162,-327.756,-182.398)">
        <path d="M263,203.5C260.078,204.134 257.058,203.97 254,203.5C258.656,207.699 263.857,211.149 266.233,217C269.886,225.998 268.322,233.723 269,239L276,244C274.475,228.312 271.121,214.441 263,203.5ZM236,202C228.604,216.978 222.469,231.033 218.5,243.5L213.5,234C217.782,224.892 223.017,216.148 228.5,207.5C230.258,205.925 232.541,204.209 234.5,201.5C234.899,201.7 235.359,201.881 236,202ZM233,201L226,201.5C220.045,204.906 214.793,204.457 210,201.5L203,201.5C212.244,209.978 220.813,215.426 233,201ZM242.5,199C242.35,197.692 241.885,196.012 241.01,195L271,172C274.556,170.555 276.985,171.197 279,172.5L282.5,176.25C283.03,180.584 281.959,185.31 279,190.5C271.471,202.227 260.383,205.634 245,199C243.761,198.599 243.09,198.759 242.5,199ZM279,193C277.97,196.251 274.352,199.198 269.5,202C309.665,196.42 305.661,200.209 340,176L338.5,174C305,191.066 312.5,184.851 279,193ZM239,195C237.649,195.167 236.44,195.59 235.5,196.5L235.5,200.229C238.142,201.027 239.535,200.474 241,200C241.064,198.333 240.855,196.667 239,195ZM133,164L131,166C166.226,189.893 169.426,204.031 234,199.5L234,197.5C194.652,196.883 181.917,191.901 155,176.63C148.638,173.021 141.485,168.837 133,164ZM348.5,173C347.355,174.78 345.82,175.752 344,177C350.398,183.172 355.931,190.626 361,198C363.402,196.943 365.381,195.595 367,194C361.716,186.56 355.966,179.352 348.5,173ZM249,196.5L275.5,179C268.768,192.684 260.437,200.395 249,196.5ZM237,194C236.038,194.345 235.088,194.597 234,196L232,196C217.163,182.514 205.373,177.104 202,194L198.5,193.5C199.438,182.641 203.098,177.774 208,177.242C217.869,176.17 227.322,183.072 237,194ZM130.5,166.5L127,164C120.323,172.117 114.215,180.66 108.5,189.5L114,194.5C118.933,186.166 124.285,177.093 130.5,166.5ZM347.5,172C346.618,173.716 344.94,175.043 342.5,176C337.552,172.842 340.126,169.623 340.953,169C341.831,168.338 345.12,168.475 347.5,172ZM340,167.5C339.44,167.848 339.146,168.179 339,168.5C335.505,164.798 331.453,160.767 327,156.5C328.143,153.446 329.744,150.585 332,148C335.563,154.121 338.92,160.33 340,167.5ZM131.5,163.5L130.5,165L127.5,163L129,161C130.224,161.658 131.191,162.431 131.5,163.5ZM132.5,163C132.323,161.617 131.149,160.698 129.5,160C134.378,155.127 139.643,150.797 146,148L151.5,159C145.167,159.515 138.833,160.66 132.5,163Z" style="fill:white;"/>
    </g>
</svg>
