<?xml version="1.0" encoding="UTF-8" standalone="no"?>
<!DOCTYPE svg PUBLIC "-//W3C//DTD SVG 1.1//EN" "http://www.w3.org/Graphics/SVG/1.1/DTD/svg11.dtd">
<svg width="100%" height="100%" viewBox="0 0 1000 1000" version="1.1" xmlns="http://www.w3.org/2000/svg" xmlns:xlink="http://www.w3.org/1999/xlink" xml:space="preserve" xmlns:serif="http://www.serif.com/" style="fill-rule:evenodd;clip-rule:evenodd;stroke-linejoin:round;stroke-miterlimit:2;">
    <g transform="matrix(2.06032,0,0,2.06032,-530.162,-430.386)">
        <path d="M499.236,603.679C483.218,603.698 468.908,602.36 455.886,600C450.97,591.227 447.943,582.684 446.272,574.306C435.034,574.875 423.796,576.868 412.558,580C411.822,588.044 412.361,596.398 414.174,605.063C394.769,616.792 373.589,623.828 350,624.49C343.08,614.658 339.054,604.951 336.571,595.31C317.831,588.809 301.888,579.75 296.358,564.669C259.923,465.305 290.766,364.178 390.327,306.54C419.828,289.461 454.717,276.335 500,279L501.059,278.94C545.827,276.54 580.402,289.594 609.673,306.54C709.234,364.178 740.077,465.305 703.642,564.669C698.112,579.75 682.169,588.809 663.429,595.31C660.946,604.951 656.92,614.658 650,624.49C626.411,623.828 605.231,616.792 585.826,605.063C587.639,596.398 588.178,588.044 587.442,580C576.204,576.868 564.966,574.875 553.728,574.306C552.057,582.684 549.03,591.227 544.114,600C530.886,602.398 516.328,603.74 500,603.677L499.236,603.679ZM609.206,406.67C653.398,406.67 689.277,442.549 689.277,486.741C689.277,530.933 653.398,566.812 609.206,566.812C565.014,566.812 529.135,530.933 529.135,486.741C529.135,442.549 565.014,406.67 609.206,406.67ZM390.794,406.67C346.602,406.67 310.723,442.549 310.723,486.741C310.723,530.933 346.602,566.812 390.794,566.812C434.986,566.812 470.865,530.933 470.865,486.741C470.865,442.549 434.986,406.67 390.794,406.67Z" style="fill:white;"/>
    </g>
</svg>
