<?xml version="1.0" encoding="UTF-8" standalone="no"?>
<!DOCTYPE svg PUBLIC "-//W3C//DTD SVG 1.1//EN" "http://www.w3.org/Graphics/SVG/1.1/DTD/svg11.dtd">
<svg width="100%" height="100%" viewBox="0 0 1000 1000" version="1.1" xmlns="http://www.w3.org/2000/svg" xmlns:xlink="http://www.w3.org/1999/xlink" xml:space="preserve" xmlns:serif="http://www.serif.com/" style="fill-rule:evenodd;clip-rule:evenodd;stroke-linejoin:round;stroke-miterlimit:2;">
    <g transform="matrix(24,0,0,24,-13150,-12352)">
        <path d="M580.871,539.265L577.576,519.5L573,519.5C572.724,519.5 572.5,519.276 572.5,519C572.5,518.724 572.724,518.5 573,518.5L578,518.5C578.244,518.5 578.453,518.677 578.493,518.918L582.58,543.439C583.403,543.23 584.38,543.152 585.534,543.21C585.879,543.227 586.144,543.521 586.127,543.866C586.109,544.21 585.816,544.476 585.471,544.458C584.402,544.404 583.514,544.467 582.785,544.67L582.95,545.66C583.282,545.556 583.634,545.5 584,545.5C585.932,545.5 587.5,547.068 587.5,549C587.5,550.932 585.932,552.5 584,552.5C582.068,552.5 580.5,550.932 580.5,549C580.5,547.806 581.099,546.751 582.013,546.119L581.837,545.064C581.59,545.211 581.371,545.384 581.178,545.587C580.298,546.509 579.979,547.979 579.953,550.016C579.949,550.361 579.665,550.638 579.32,550.633C578.975,550.629 578.699,550.346 578.703,550.001C578.734,547.56 579.22,545.829 580.273,544.724C580.645,544.334 581.092,544.016 581.622,543.773L581.128,540.811L576.087,549.473C575.997,549.627 575.833,549.722 575.655,549.722L556.925,549.722C556.592,551.308 555.184,552.5 553.5,552.5C551.568,552.5 550,550.932 550,549C550,547.068 551.568,545.5 553.5,545.5C555.338,545.5 556.847,546.92 556.989,548.722L558.351,548.722C558.106,546.985 557.539,545.753 556.636,545.017C555.665,544.227 554.328,544.046 552.694,544.357C552.355,544.421 552.027,544.198 551.963,543.859C551.899,543.521 552.121,543.193 552.46,543.129C554.525,542.736 556.199,543.05 557.425,544.048C558.556,544.969 559.326,546.503 559.612,548.722L575.367,548.722L580.871,539.265ZM553.471,546.809C554.675,546.809 555.653,547.787 555.653,548.991C555.653,550.196 554.675,551.174 553.471,551.174C552.266,551.174 551.288,550.196 551.288,548.991C551.288,547.787 552.266,546.809 553.471,546.809ZM583.988,546.809C585.192,546.809 586.17,547.787 586.17,548.991C586.17,550.196 585.192,551.174 583.988,551.174C582.783,551.174 581.805,550.196 581.805,548.991C581.805,547.787 582.783,546.809 583.988,546.809ZM553.471,547.9C554.073,547.9 554.562,548.389 554.562,548.991C554.562,549.594 554.073,550.083 553.471,550.083C552.869,550.083 552.38,549.594 552.38,548.991C552.38,548.389 552.869,547.9 553.471,547.9ZM583.988,547.9C584.59,547.9 585.079,548.389 585.079,548.991C585.079,549.594 584.59,550.083 583.988,550.083C583.385,550.083 582.896,549.594 582.896,548.991C582.896,548.389 583.385,547.9 583.988,547.9Z" style="fill:white;"/>
    </g>
</svg>
