<?xml version="1.0" encoding="UTF-8" standalone="no"?>
<!DOCTYPE svg PUBLIC "-//W3C//DTD SVG 1.1//EN" "http://www.w3.org/Graphics/SVG/1.1/DTD/svg11.dtd">
<svg width="100%" height="100%" viewBox="0 0 1000 1000" version="1.1" xmlns="http://www.w3.org/2000/svg" xmlns:xlink="http://www.w3.org/1999/xlink" xml:space="preserve" xmlns:serif="http://www.serif.com/" style="fill-rule:evenodd;clip-rule:evenodd;stroke-linejoin:round;stroke-miterlimit:2;">
    <g transform="matrix(6.54358,0,0,6.54358,-2771.79,-883.968)">
        <path d="M500,221C496.658,221 491.853,222.731 489.973,225C486.867,228.749 487.179,241.027 495,244L495,277C463.39,271.536 446.276,256.398 443,229C433.625,225.962 430.059,218.956 431.562,214C432.684,210.303 437.184,206.633 446,203C464.081,194.651 482.156,194.91 500,195L501.674,194.991C518.972,194.902 536.483,194.911 554,203C562.816,206.633 567.316,210.303 568.438,214C569.941,218.956 566.375,225.962 557,229C553.724,256.398 536.61,271.536 505,277L505,244C512.821,241.027 513.133,228.749 510.027,225C508.086,222.658 503.342,221 500,221ZM499.56,184.978C480.939,184.073 464.811,186.229 450,190C456.569,177.989 465.021,167.09 485,163C485.926,153.078 490.529,146.743 500,146L500.221,146.018C509.542,146.842 514.081,153.155 515,163C534.979,167.09 543.431,177.989 550,190C535.073,186.199 518.808,184.039 500,185L499.56,184.978Z" style="fill:white;"/>
    </g>
</svg>
