<?xml version="1.0" encoding="UTF-8" standalone="no"?>
<!DOCTYPE svg PUBLIC "-//W3C//DTD SVG 1.1//EN" "http://www.w3.org/Graphics/SVG/1.1/DTD/svg11.dtd">
<svg width="100%" height="100%" viewBox="0 0 1000 1000" version="1.1" xmlns="http://www.w3.org/2000/svg" xmlns:xlink="http://www.w3.org/1999/xlink" xml:space="preserve" xmlns:serif="http://www.serif.com/" style="fill-rule:evenodd;clip-rule:evenodd;stroke-linejoin:round;stroke-miterlimit:2;">
    <g transform="matrix(4.19444,0,0,4.19444,-1590.78,-1560.32)">
        <path d="M521.537,458.406C521.535,458.236 521.534,458.064 521.534,457.892C521.534,434.652 540.402,415.784 563.642,415.784C586.882,415.784 605.75,434.652 605.75,457.892C605.75,481.132 586.882,500 563.642,500C560.498,500 557.434,499.655 554.483,498.999C554.763,507.515 553.097,515.784 551,524C556.569,529.631 555.189,536.313 553.471,540C551.166,544.946 544.29,549.694 536,548C531.08,561.55 511.667,566.75 499.5,566.619C487.667,566.49 470.889,563.344 464,548C452.155,549.617 446.281,543.755 445,537.632C444.247,534.032 443.84,527.322 450,523C448.095,518.333 446.73,513.667 446,509C436.677,511.202 431.396,510.869 429,509.497C426.923,508.309 426.956,503.507 430,502.727C432.625,502.055 434.532,501.315 436.427,499.884C435.39,499.961 434.344,500 433.288,500C410.048,500 391.18,481.132 391.18,457.892C391.18,434.652 410.048,415.784 433.288,415.784C452.901,415.784 469.399,429.221 474.072,447.384C475.789,445.227 476.571,442.631 479,442.811C483.43,443.14 482.957,452.803 495,453.23C506.878,453.652 515.446,455.841 521.537,458.406ZM562,464C561.093,458.534 558.418,458.08 557,457.857C552.161,457.095 551.969,460.317 553.798,467C555.016,471.451 553.298,475.849 552,478C548.021,484.597 536.274,484.178 535,478C533.836,472.357 541.986,468.272 551,472C550.278,469.48 548.412,467.134 546.341,465C542.278,460.811 541.47,456.245 541,454C547.046,449.243 554.441,449.232 558,450.823C561.561,452.414 566.88,457.549 562,464Z" style="fill:white;"/>
    </g>
</svg>
