<?xml version="1.0" encoding="UTF-8" standalone="no"?>
<!DOCTYPE svg PUBLIC "-//W3C//DTD SVG 1.1//EN" "http://www.w3.org/Graphics/SVG/1.1/DTD/svg11.dtd">
<svg width="100%" height="100%" viewBox="0 0 1000 1000" version="1.1" xmlns="http://www.w3.org/2000/svg" xmlns:xlink="http://www.w3.org/1999/xlink" xml:space="preserve" xmlns:serif="http://www.serif.com/" style="fill-rule:evenodd;clip-rule:evenodd;stroke-linejoin:round;stroke-miterlimit:2;">
    <g transform="matrix(1.02202,0,0,1.02202,-11.0125,-11.0125)">
        <path d="M500,59.698C743.009,59.698 940.302,256.991 940.302,500C940.302,743.009 743.009,940.302 500,940.302C256.991,940.302 59.698,743.009 59.698,500C59.698,256.991 256.991,59.698 500,59.698ZM167.205,546.723C164.352,546.723 161.643,547.98 159.8,550.159C157.958,552.338 157.168,555.218 157.643,558.033C182.316,704.39 298.696,819.769 445.547,842.942C448.349,843.384 451.203,842.577 453.359,840.735C455.515,838.893 456.756,836.199 456.756,833.363L456.756,556.42C456.756,551.065 452.415,546.723 447.059,546.723L167.205,546.723ZM552.941,546.723C547.585,546.723 543.244,551.065 543.244,556.42L543.244,833.363C543.244,836.199 544.485,838.893 546.641,840.735C548.797,842.578 551.652,843.384 554.453,842.942C701.319,819.761 817.697,704.373 842.357,558.032C842.832,555.218 842.042,552.338 840.2,550.159C838.357,547.98 835.648,546.723 832.795,546.723L552.941,546.723ZM554.453,157.058C551.652,156.616 548.797,157.422 546.641,159.265C544.485,161.107 543.244,163.801 543.244,166.637L543.244,450.538C543.244,455.894 547.585,460.236 552.941,460.236L833.894,460.236C836.712,460.236 839.391,459.01 841.233,456.877C843.075,454.744 843.898,451.915 843.488,449.126C821.459,299.391 703.701,180.618 554.453,157.058ZM456.756,166.637C456.756,163.801 455.515,161.107 453.359,159.265C451.203,157.422 448.348,156.616 445.547,157.058C296.31,180.614 178.553,299.376 156.512,449.126C156.101,451.914 156.924,454.743 158.767,456.876C160.609,459.01 163.288,460.236 166.106,460.236L447.059,460.236C452.415,460.236 456.756,455.894 456.756,450.538L456.756,166.637Z" style="fill:white;"/>
    </g>
</svg>
