<?xml version="1.0" encoding="UTF-8" standalone="no"?>
<!DOCTYPE svg PUBLIC "-//W3C//DTD SVG 1.1//EN" "http://www.w3.org/Graphics/SVG/1.1/DTD/svg11.dtd">
<svg width="100%" height="100%" viewBox="0 0 1000 1000" version="1.1" xmlns="http://www.w3.org/2000/svg" xmlns:xlink="http://www.w3.org/1999/xlink" xml:space="preserve" xmlns:serif="http://www.serif.com/" style="fill-rule:evenodd;clip-rule:evenodd;stroke-linejoin:round;stroke-miterlimit:2;">
    <g transform="matrix(2.18791,0,0,2.49255,-515.438,-753.103)">
        <path d="M669.781,559.944C669.785,559.962 669.789,559.983 669.789,560C669.789,560.017 669.785,560.038 669.781,560.056C669.477,560.052 668.285,560.05 666.352,560.168C665.368,560.229 664.196,560.335 662.848,560.487C661.589,560.628 660.19,560.805 658.647,561.05C657.755,561.192 656.835,561.424 655.856,561.564C655.524,561.611 655.188,561.682 654.846,561.668C654.057,561.636 653.262,561.365 652.427,561.224C651.371,561.047 650.288,560.864 649.158,560.72C647.587,560.52 645.954,560.312 644.251,560.228C642.976,560.165 641.665,560.207 640.324,560.233C635.459,560.324 630.194,560.721 624.675,560.8C620.452,560.86 616.083,560.722 611.638,560.699C611.197,560.697 610.756,560.669 610.314,560.696C609.289,560.757 608.269,560.923 607.24,561.072C604.862,561.415 602.505,561.919 600.108,562.261C599.098,562.405 598.093,562.613 597.08,562.621C592.686,562.659 588.325,561.681 584,561.294C581.049,561.03 578.134,560.784 575.261,560.615C573.191,560.494 571.147,560.382 569.136,560.373C564.131,560.349 559.337,560.698 554.866,560.804C554.146,560.821 553.435,560.847 552.733,560.84C545.025,560.768 538.396,560.268 533.479,560.154C532.016,560.12 530.927,560.066 530.21,560C530.927,559.934 532.016,559.88 533.479,559.846C538.396,559.732 545.025,559.232 552.733,559.16C553.435,559.153 554.146,559.179 554.866,559.196C559.337,559.302 564.131,559.651 569.136,559.627C571.147,559.618 573.191,559.506 575.261,559.385C578.134,559.216 581.049,558.97 584,558.706C588.325,558.319 592.686,557.341 597.08,557.379C598.093,557.387 599.098,557.595 600.108,557.739C602.505,558.081 604.862,558.585 607.24,558.928C608.269,559.077 609.289,559.243 610.314,559.304C610.756,559.331 611.197,559.303 611.638,559.301C616.083,559.278 620.452,559.14 624.675,559.2C630.194,559.279 635.459,559.676 640.324,559.767C641.665,559.793 642.976,559.835 644.251,559.772C645.954,559.688 647.587,559.48 649.158,559.28C650.288,559.136 651.371,558.953 652.427,558.776C653.262,558.635 654.057,558.364 654.846,558.332C655.188,558.318 655.524,558.389 655.856,558.436C656.835,558.576 657.755,558.808 658.647,558.95C660.19,559.195 661.589,559.372 662.848,559.513C664.196,559.665 665.368,559.771 666.352,559.832C668.279,559.95 669.47,559.948 669.781,559.944ZM464.287,474.891C464.287,474.891 477.622,474.918 477.622,474.918L468.711,474.9L463.718,474.889L463.726,474.887L438.654,474.832L452.495,474.864L463.717,474.889L451.556,474.862L438.654,474.832L429.185,474.808L396.938,458.341C396.9,458.288 396.858,458.237 396.81,458.19C396.583,457.962 396.283,457.851 395.985,457.855L390.563,455.086L394.53,453.016C395.091,452.723 395.308,452.031 395.016,451.47C394.723,450.909 394.031,450.692 393.47,450.984L388.146,453.762L388.146,452C388.146,451.791 388.09,451.596 387.992,451.427C388.069,451.294 388.12,451.144 388.138,450.984C388.29,449.653 388.781,448.512 389.549,447.526C390.315,446.542 391.348,445.711 392.58,444.988C393.125,444.668 393.308,443.966 392.988,443.42C392.668,442.875 391.966,442.692 391.42,443.012C389.919,443.893 388.673,444.92 387.74,446.119C387.268,446.725 386.875,447.375 386.568,448.074C386.313,447.747 386.05,447.441 385.779,447.155C384.793,446.114 383.694,445.342 382.485,444.843C381.9,444.602 381.23,444.881 380.989,445.466C380.748,446.05 381.027,446.721 381.611,446.962C382.533,447.342 383.364,447.938 384.116,448.731C384.807,449.461 385.429,450.353 385.991,451.397C385.996,451.407 386.002,451.417 386.008,451.427C385.91,451.596 385.854,451.791 385.854,452L385.854,452.682L382.521,450.98C381.958,450.692 381.267,450.916 380.98,451.479C380.692,452.042 380.916,452.733 381.479,453.02L385.566,455.108L348.232,474.586C312.12,474.482 280.665,474.384 267.103,474.342L267.103,457C267.103,455.275 265.703,453.875 263.978,453.875C262.253,453.875 260.853,455.275 260.853,457L260.853,474.322L260,474.319C259.138,474.319 258.438,475.019 258.438,475.882C258.437,476.744 259.138,477.444 260,477.444C260,477.444 260.48,477.443 261.398,477.44C261.387,480.848 261.355,489.951 261.3,500.9C261.178,525.349 260.958,559 260.958,559C260.958,559.022 261,560.937 261,560.937C261,560.937 297.537,560.868 344.32,560.789C344.503,560.946 344.74,561.042 345,561.042C345.261,561.042 345.5,560.946 345.682,560.787C345.682,560.787 367.178,560.74 445.044,560.63C489.466,560.567 524.349,560.537 524.349,560.537L524.349,559.463C524.349,559.463 521.523,559.46 516.455,559.455L513.022,556.022C512.966,547.195 512.8,520.918 512.7,500.836C512.642,489.217 512.609,479.673 512.6,476.781C514.311,476.779 515.22,476.777 515.22,476.777C515.714,476.777 516.116,476.376 516.116,475.882C516.116,475.387 515.714,474.986 515.22,474.986C515.22,474.986 500.612,474.965 478.383,474.92C478.263,474.877 478.134,474.854 478,474.854C477.867,474.854 477.74,474.877 477.622,474.918L478.383,474.92L464.279,474.889C464.19,474.866 464.096,474.854 464,474.854C463.905,474.854 463.814,474.866 463.726,474.887L464.279,474.889L464.287,474.891ZM530,560.267C530,560.267 530,559.733 530,559.733C529.853,559.733 529.733,559.853 529.733,560C529.733,560.147 529.853,560.267 530,560.267ZM462.854,481L462.854,476.876C452.413,476.899 441.97,476.923 431.527,476.949L429.635,476.954C429.623,476.962 429.612,476.969 429.6,476.976C429.61,479.952 429.642,489.409 429.7,500.9C429.796,520.095 429.952,544.962 430.014,554.761L462.854,554.761L462.854,548L454,548L454,542L462.854,542L462.854,534.5L454,534.5L454,528.5L462.854,528.5L462.854,518L454,518L454,512L462.854,512L462.854,503L454,503L454,497L462.854,497L462.854,487L454,487L454,481L462.854,481ZM479.146,553L479.146,554.761L510.986,554.761C511.049,544.898 511.204,520.036 511.3,500.836C511.358,489.22 511.391,479.677 511.4,476.783L510.641,476.784C500.143,476.802 489.644,476.821 479.146,476.842L479.146,481L488,481L488,486L481,486L481,492L479.146,492L479.146,497L488,497L488,502L481,502L481,508L479.146,508L479.146,512L488,512L488,517L481,517L481,523L479.146,523L479.146,528.5L488,528.5L488,533.5L481,533.5L481,539.5L479.146,539.5L479.146,542L488,542L488,547L481,547L481,553L479.146,553ZM465.146,548L465.146,554.761L476.854,554.761L476.854,553L467,553L467,548L465.146,548ZM397.146,553L397.146,554.761L427.986,554.761C428.048,544.962 428.204,520.095 428.3,500.9C428.358,489.415 428.39,479.961 428.4,476.98L428.355,476.957L427.909,476.958C417.654,476.984 407.4,477.011 397.146,477.039L397.146,481L407,481L407,486L400,486L400,492L397.146,492L397.146,497L407,497L407,502L400,502L400,508L397.146,508L397.146,512L407,512L407,517L400,517L400,523L397.146,523L397.146,528.5L407,528.5L407,533.5L400,533.5L400,539.5L397.146,539.5L397.146,542L407,542L407,547L400,547L400,553L397.146,553ZM381.146,548L381.146,554.761L394.854,554.761L394.854,553L386,553L386,548L381.146,548ZM378.854,481L378.854,477.09C368.932,477.117 359.011,477.146 349.09,477.174L345.601,477.185C345.611,480.398 345.644,489.813 345.7,501.2C345.793,520.032 345.942,544.259 346.008,554.761L378.854,554.761L378.854,548L373,548L373,542L378.854,542L378.854,534.5L373,534.5L373,528.5L378.854,528.5L378.854,518L373,518L373,512L378.854,512L378.854,503L373,503L373,497L378.854,497L378.854,487L373,487L373,481L378.854,481ZM312.146,477.284L312.146,481L322,481L322,486L315,486L315,492L312.146,492L312.146,497L322,497L322,502L315,502L315,508L312.146,508L312.146,512L322,512L322,517L315,517L315,523L312.146,523L312.146,528.5L322,528.5L322,533.5L315,533.5L315,539.5L312.146,539.5L312.146,542L322,542L322,547L315,547L315,553L312.146,553L312.146,554.761L343.992,554.761C344.058,544.259 344.207,520.032 344.3,501.2C344.342,492.663 344.371,485.234 344.387,480.697L344.399,477.188L312.146,477.284ZM298.146,548L298.146,554.761L309.854,554.761L309.854,553L301,553L301,548L298.146,548ZM285.622,477.364C276.084,477.394 268.722,477.417 264.385,477.43C264.252,477.448 264.116,477.457 263.978,477.457C263.847,477.457 263.717,477.449 263.59,477.433L262.602,477.436C262.613,480.841 262.645,489.947 262.7,500.9C262.796,520.095 262.952,544.962 263.014,554.761L295.854,554.761L295.854,548L288,548L288,542L295.854,542L295.854,534.5L288,534.5L288,528.5L295.854,528.5L295.854,518L288,518L288,512L295.854,512L295.854,503L288,503L288,497L295.854,497L295.854,487L288,487L288,481L295.854,481L295.854,477.333L285.622,477.364ZM421,542L411,542L411,552L421,552L421,542ZM339,542L329,542L329,552L339,552L339,542ZM280,542L270,542L270,552L280,552L280,542ZM363,542L353,542L353,552L363,552L363,542ZM503.883,542L493.883,542L493.883,552L503.883,552L503.883,542ZM447,542L437,542L437,552L447,552L447,542ZM474,548.5L474,551L471,551L471,548.5L474,548.5ZM393,548.5L393,551L390,551L390,548.5L393,548.5ZM308,548.5L308,551L305,551L305,548.5L308,548.5ZM465.146,534.5L465.146,542L476.854,542L476.854,539.5L467,539.5L467,534.5L465.146,534.5ZM381.146,534.5L381.146,542L394.854,542L394.854,539.5L386,539.5L386,534.5L381.146,534.5ZM298.146,534.5L298.146,542L309.854,542L309.854,539.5L301,539.5L301,534.5L298.146,534.5ZM474,535L474,537.5L471,537.5L471,535L474,535ZM393,535L393,537.5L390,537.5L390,535L393,535ZM308,535L308,537.5L305,537.5L305,535L308,535ZM447,527L437,527L437,537L447,537L447,527ZM421,527L411,527L411,537L421,537L421,527ZM363,527L353,527L353,537L363,537L363,527ZM503.883,527L493.883,527L493.883,537L503.883,537L503.883,527ZM339,527L329,527L329,537L339,537L339,527ZM280,527L270,527L270,537L280,537L280,527ZM381.146,518L381.146,528.5L394.854,528.5L394.854,523L386,523L386,518L381.146,518ZM298.146,518L298.146,528.5L309.854,528.5L309.854,523L301,523L301,518L298.146,518ZM465.146,518L465.146,528.5L476.854,528.5L476.854,523L467,523L467,518L465.146,518ZM280,512L270,512L270,522L280,522L280,512ZM447,512L437,512L437,522L447,522L447,512ZM503.883,512L493.883,512L493.883,522L503.883,522L503.883,512ZM339,512L329,512L329,522L339,522L339,512ZM363,512L353,512L353,522L363,522L363,512ZM421,512L411,512L411,522L421,522L421,512ZM474,518.5L474,521L471,521L471,518.5L474,518.5ZM393,518.5L393,521L390,521L390,518.5L393,518.5ZM308,518.5L308,521L305,521L305,518.5L308,518.5ZM465.146,503L465.146,512L476.854,512L476.854,508L467,508L467,503L465.146,503ZM381.146,503L381.146,512L394.854,512L394.854,508L386,508L386,503L381.146,503ZM298.146,503L298.146,512L309.854,512L309.854,508L301,508L301,503L298.146,503ZM339,496L329,496L329,506L339,506L339,496ZM308,503.5L308,506L305,506L305,503.5L308,503.5ZM447,496L437,496L437,506L447,506L447,496ZM280,496L270,496L270,506L280,506L280,496ZM503.883,496L493.883,496L493.883,506L503.883,506L503.883,496ZM421,496L411,496L411,506L421,506L421,496ZM393,503.5L393,506L390,506L390,503.5L393,503.5ZM474,503.5L474,506L471,506L471,503.5L474,503.5ZM363,496L353,496L353,506L363,506L363,496ZM298.146,487L298.146,497L309.854,497L309.854,492L301,492L301,487L298.146,487ZM465.146,487L465.146,497L476.854,497L476.854,492L467,492L467,487L465.146,487ZM381.146,487L381.146,497L394.854,497L394.854,492L386,492L386,487L381.146,487ZM339,480L329,480L329,490L339,490L339,480ZM447,480L437,480L437,490L447,490L447,480ZM421,480L411,480L411,490L421,490L421,480ZM363,480L353,480L353,490L363,490L363,480ZM503.883,480L493.883,480L493.883,490L503.883,490L503.883,480ZM280,480L270,480L270,490L280,490L280,480ZM393,487.5L393,490L390,490L390,487.5L393,487.5ZM474,487.5L474,490L471,490L471,487.5L474,487.5ZM308,487.5L308,490L305,490L305,487.5L308,487.5ZM324.522,477.247L315.636,477.273L314.36,477.277L309.854,477.291L309.854,477.291L298.146,477.326L298.146,481L309.854,481L309.854,477.291L314.36,477.277L324.522,477.247L328.952,477.234L344.399,477.188L327.719,477.237L324.522,477.247ZM476.854,481L476.854,476.846L465.146,476.871L465.146,481L476.854,481ZM394.854,481L394.854,477.046C392.376,477.052 389.899,477.059 387.421,477.066C387.291,477.118 387.149,477.146 387,477.146C386.854,477.146 386.714,477.118 386.585,477.068C384.771,477.073 382.958,477.078 381.146,477.083L381.146,481L394.854,481ZM396.122,460.498L388.146,468.475L388.146,474.699C400.291,474.733 412.43,474.765 424.121,474.795L396.122,460.498ZM377.825,461.732L353.159,474.601C363.821,474.631 374.83,474.663 385.854,474.693L385.854,468.789L377.844,461.748C377.837,461.743 377.831,461.737 377.825,461.732ZM380.003,460.595L385.854,465.738L385.854,457.542L380.003,460.595ZM388.146,465.234L393.977,459.403L388.146,456.425L388.146,465.234Z" style="fill:white;"/>
    </g>
</svg>
