<?xml version="1.0" encoding="UTF-8" standalone="no"?>
<!DOCTYPE svg PUBLIC "-//W3C//DTD SVG 1.1//EN" "http://www.w3.org/Graphics/SVG/1.1/DTD/svg11.dtd">
<svg width="100%" height="100%" viewBox="0 0 1000 1000" version="1.1" xmlns="http://www.w3.org/2000/svg" xmlns:xlink="http://www.w3.org/1999/xlink" xml:space="preserve" xmlns:serif="http://www.serif.com/" style="fill-rule:evenodd;clip-rule:evenodd;stroke-linejoin:round;stroke-miterlimit:2;">
    <g transform="matrix(1.9248,0,0,1.9248,-719.921,-194.103)">
        <path d="M726.416,336.893C732.343,334.707 738.323,333.165 744.355,331.381C743.451,319.914 744.333,307.603 747.516,296.86L745.719,295.157L749.187,293.897C760.833,263.714 783.443,247.364 796.346,247.739C805.043,247.992 819.043,254.932 817.573,275.722L820,279.159L815.933,279.851C813.322,291.554 807.565,300.872 798.587,307.748C798.054,311.404 797.589,315.573 797.165,320.044L798.425,323.512L794.926,323.606C772.131,354.459 755.741,358.6 746.183,334.251C742.934,335.012 739.657,336.046 736.346,337.432L736.44,340.932L733.476,339.26C730.911,339.958 728.335,340.973 725.75,342.223L713.594,439.469L867.581,439.469L860.628,460L540.205,460C536.086,460.444 531.594,460.449 526.833,460.137L526.833,464.262L528.483,465.913L524.358,466.738C517.145,473.438 510.877,474.34 504.554,472.899C496.973,471.17 490.987,466.807 487.138,460L406.953,460L400,439.469L482.279,439.469C482.271,438.937 482.27,438.4 482.276,437.858C468.15,416.858 472.124,400.242 501.254,393.301L503.729,390L506.205,392.475C521.086,392.789 535.429,395.439 549.151,400.79L533.455,275.217L734.126,275.217L726.416,336.893ZM524.38,460C524.312,468.854 510.496,475.788 494.653,463.437L494.653,460L524.38,460ZM553.334,434.254L553.986,439.469L522.064,439.469C518.567,436.459 513.963,436.606 508.68,438.683C512.022,438.327 514.805,438.614 517.091,439.469L488.418,439.469C487.639,438.221 487.249,437.103 487.285,436.208C487.548,429.811 505.899,412.168 530.134,420.53L530.959,423.831L534.259,421.355C543.469,424.069 549.927,429.22 553.334,434.254ZM549.33,402.221L552.297,425.953C549.207,423.595 545.637,421.75 541.686,420.304C530.27,416.126 508.955,413.181 494.653,423.005L491.352,421.355L490.527,425.481L483.926,434.557L478.975,427.131L481.451,424.656L478.975,423.831C481.362,398.244 503.714,393.17 537.56,399.902L541.686,403.202L540.86,400.727L549.33,402.221ZM604.858,395.174C603.247,399.713 603.859,403.55 604.717,406.726C610.736,428.99 581.467,439.908 557,418.278C560.306,412.926 561.876,407.248 562.586,401.775C564.765,384.964 584.249,380.809 604.858,395.174ZM688.197,383.622C661.224,411.15 639.819,409.617 621.361,392.699C614.593,411.228 632.512,435.323 662.618,421.731C667.412,419.567 671.517,415.366 679.12,414.279C690.088,412.712 694.103,404.107 688.197,383.622ZM698.924,400.125C704.959,392.121 711.788,384.826 708.825,368.77C714.324,364.939 712.436,362.389 710.476,357.504C706.912,348.623 701.38,341.393 693.973,338.944C687.208,336.707 678.34,336.199 669.219,339.065C673.648,345.594 679.15,352.851 685.721,360.633C693.807,370.208 695.78,385.111 698.924,400.125ZM641.989,356.393C632.957,372.109 635.253,386.034 646.94,398.475C637.45,397.713 626.941,396.564 626.312,391.219C625.849,387.295 624.452,383.325 621.419,379.497C615.101,371.52 624.55,360.982 641.989,356.393ZM641.989,382.797C649.706,385.209 655.946,385.145 660.142,385.688C663.457,386.117 665.339,387.909 665.918,389.398C671.416,390.59 676.535,388.974 681.596,386.923C677.142,389.557 672.599,392.064 666.743,392.699C653.697,403.915 646.906,396.195 641.989,382.797ZM660.967,356.393C663.951,360.408 666.169,364.778 667.419,369.595C668.473,373.658 667.221,379.909 668.394,382.797C680.263,384.035 685.126,375.125 684.853,371.245C684.508,366.333 675.568,355.715 660.967,356.393ZM641.164,365.469C644.017,367.495 646.59,369.991 649.077,372.896C651.716,375.979 657.507,377.483 660.967,380.322C650.747,381.236 645.383,380.033 644.465,376.468C643.413,372.386 641.822,369.135 641.164,365.469ZM644.465,362.169C656.44,354.599 664.908,361.212 662.618,370.42C661.355,375.497 654.093,375.026 652.716,371.224C651.739,368.527 648.981,365.011 644.465,362.169ZM646.115,330.814C640.314,334.456 635.995,339.647 632.121,345.666C625.381,356.139 616.56,366.296 606.508,364.936C599.59,364.001 592.08,365.467 585.055,368.77C598.937,335.95 613.092,314.121 646.115,330.814ZM632.913,354.934C644.892,350.433 657.018,350.256 669.219,352.267C663.585,335.234 656.365,330.525 647.765,336.526C643.194,339.716 642.838,346.5 632.913,354.934ZM750.219,332.391C750.949,335.985 753.041,339.264 756.9,342.135L760.936,340.276L761.629,344.343C779.087,341.429 789.862,328.343 796.884,309.545C782.958,319.269 767.971,327.619 750.219,332.391ZM698.924,330.814C695.676,327.069 693.058,322.861 690.672,318.338C688.876,314.934 684.899,312.986 680.771,311.01C657.097,295.002 642.717,305.326 629.612,319.262C637.842,321.509 647.185,320.866 654.366,325.314C661.408,329.675 669.007,331.408 677.47,329.031C684.444,327.073 691.804,330.623 698.924,330.814ZM750.125,328.892C761.51,326.442 772.635,321.51 783.61,315.154L785.281,312.191L787.614,312.128C791.268,310.282 794.44,307.985 797.592,305.669C792.851,293.54 785.288,295.317 775.793,306.608L774.595,305.473C783.903,294.456 792.436,290.427 799.061,303.65C822.328,281.141 813.82,261.42 807.778,255.069C803.871,250.962 796.238,250.952 784.916,255.001L784.411,257.933L779.146,257.49C759.341,278.365 744.726,300.739 750.125,328.892Z" style="fill:white;"/>
    </g>
</svg>
