<?xml version="1.0" encoding="UTF-8" standalone="no"?>
<!DOCTYPE svg PUBLIC "-//W3C//DTD SVG 1.1//EN" "http://www.w3.org/Graphics/SVG/1.1/DTD/svg11.dtd">
<svg width="100%" height="100%" viewBox="0 0 1000 1000" version="1.1" xmlns="http://www.w3.org/2000/svg" xmlns:xlink="http://www.w3.org/1999/xlink" xml:space="preserve" xmlns:serif="http://www.serif.com/" style="fill-rule:evenodd;clip-rule:evenodd;stroke-linejoin:round;stroke-miterlimit:2;">
    <g transform="matrix(0.983607,0,0,0.983607,8.19672,8.19672)">
        <path d="M216.191,248.357C188.781,236.022 161.371,236.471 133.961,248.357L133.961,757.171C160.251,764.589 187.637,764.75 216.191,757.171L216.191,248.357ZM124.731,248.357C97.32,236.022 69.91,236.471 42.5,248.357L42.5,757.171C68.791,764.589 96.177,764.75 124.731,757.171L124.731,248.357ZM957.5,246.288C930.09,233.953 902.68,234.403 875.269,246.288L875.269,755.102C901.56,762.52 928.946,762.682 957.5,755.102L957.5,246.288ZM866.039,246.288C838.629,233.953 811.219,234.403 783.809,246.288L783.809,755.102C810.1,762.52 837.486,762.682 866.039,755.102L866.039,246.288ZM776.351,444.499L224.582,444.499L224.582,557.569L776.351,557.569L776.351,444.499Z" style="fill:white;"/>
    </g>
</svg>
