<?xml version="1.0" encoding="UTF-8" standalone="no"?>
<!DOCTYPE svg PUBLIC "-//W3C//DTD SVG 1.1//EN" "http://www.w3.org/Graphics/SVG/1.1/DTD/svg11.dtd">
<svg width="100%" height="100%" viewBox="0 0 1000 1000" version="1.1" xmlns="http://www.w3.org/2000/svg" xmlns:xlink="http://www.w3.org/1999/xlink" xml:space="preserve" xmlns:serif="http://www.serif.com/" style="fill-rule:evenodd;clip-rule:evenodd;stroke-linejoin:round;stroke-miterlimit:2;">
    <g transform="matrix(6.61168,0,0,6.61168,-2918.01,-2080.87)">
        <path d="M573.168,410.476L573.151,410.435C561.083,415.477 548.988,420.109 536.383,424.192L537.689,430.294L537.986,430.197C550.537,426.088 562.515,421.423 574.863,415.738C574.217,414.015 573.888,412.2 573.168,410.476ZM461.062,410.553C473.036,415.549 485.04,420.141 497.547,424.192L496.241,430.294C483.581,426.161 471.512,421.467 459.067,415.738C459.718,414.002 460.047,412.171 460.779,410.435L461.062,410.553ZM539.318,398.469C539.624,398.774 539.921,398.809 540.05,398.807L540.065,398.807C540.099,398.806 540.118,398.802 540.118,398.802L540.725,398.624L544.102,396.458L560.684,412.435C552.5,415.631 544.25,418.579 535.942,421.31L535.547,421.44C532.699,408.265 529.506,395.633 525.229,384.698C525.31,384.682 525.391,384.667 525.472,384.654L539.318,398.469ZM508.519,384.664L508.458,384.654L494.612,398.469C494.319,398.761 494.034,398.805 493.897,398.807L493.88,398.807C493.837,398.807 493.812,398.802 493.812,398.802L493.204,398.624L489.828,396.458L473.246,412.435C481.56,415.681 489.942,418.672 498.383,421.44L498.45,421.131C501.281,408.068 504.458,395.548 508.701,384.698C508.64,384.686 508.58,384.674 508.519,384.664ZM540.927,390.749C541.397,391.213 542.015,391.453 542.638,391.455L542.664,391.455C543.14,391.452 543.618,391.311 544.034,391.026C544.034,391.026 546.824,389.113 546.824,389.113L566.822,409.65L563.103,411.393L545.803,394.691C544.985,393.903 543.734,393.78 542.778,394.393L540.3,395.983L525.851,381.51L526.744,376.423L540.927,390.749ZM470.827,411.393L488.127,394.691C488.6,394.236 489.217,394.002 489.839,394.005L489.864,394.005C490.31,394.012 490.756,394.139 491.152,394.393L493.63,395.983L508.079,381.51L507.186,376.423L493.003,390.749C492.54,391.207 491.932,391.446 491.318,391.455L491.292,391.455C490.807,391.457 490.32,391.316 489.896,391.026C489.896,391.026 487.106,389.113 487.106,389.113L467.108,409.65L470.827,411.393ZM484.971,382.07L456.403,358.293L456.288,358.45C453.855,361.742 451.45,365.196 449.075,368.824C448.912,377.605 448.86,386.387 448.942,395.168C453.355,398.357 457.959,401.387 462.898,404.141L461.842,407.801C462.765,408.192 463.689,408.578 464.615,408.962L464.619,408.943C464.665,408.747 464.764,408.565 464.908,408.416L486.128,386.601C486.509,386.208 487.119,386.148 487.571,386.457L491.282,389.002L497.197,383.169L491.694,378.029C491.694,378.029 486.506,382.093 486.506,382.093C486.286,382.265 486.023,382.351 485.76,382.353L485.747,382.353C485.471,382.351 485.196,382.257 484.971,382.07ZM577.642,358.45C580.075,361.742 582.48,365.196 584.855,368.824C585.018,377.605 585.07,386.387 584.988,395.168C580.575,398.357 575.971,401.387 571.032,404.141L572.088,407.801C571.281,408.143 570.472,408.482 569.662,408.818L569.315,408.962C569.271,408.759 569.171,408.57 569.022,408.416L547.802,386.601C547.42,386.208 546.811,386.148 546.359,386.457L542.648,389.002L536.733,383.169L542.236,378.029L547.424,382.093C547.647,382.267 547.915,382.354 548.183,382.353L548.195,382.353C548.467,382.349 548.737,382.254 548.959,382.07L577.527,358.293L577.642,358.45ZM535.442,381.595C535.442,381.595 533.123,379.308 533.123,379.308C533.123,379.308 542.908,370.25 542.908,370.25C542.908,370.25 548.505,374.889 548.505,374.889C548.657,375.015 548.843,375.077 549.028,375.075L549.046,375.075C549.225,375.07 549.404,375.005 549.549,374.881L574.127,353.837L576.432,356.56L548.162,380.09C548.162,380.09 542.666,375.785 542.666,375.785C542.352,375.539 541.905,375.558 541.613,375.831L535.442,381.595ZM498.488,381.595L500.807,379.308C500.807,379.308 491.022,370.25 491.022,370.25C491.022,370.25 485.425,374.889 485.425,374.889C485.278,375.011 485.099,375.073 484.919,375.075L484.902,375.075C484.716,375.074 484.531,375.009 484.381,374.881L459.803,353.837L457.498,356.56C457.498,356.56 485.768,380.09 485.768,380.09L491.264,375.785C491.411,375.67 491.588,375.613 491.764,375.613L491.781,375.613C491.975,375.617 492.166,375.69 492.317,375.831L498.488,381.595ZM517.037,372.89L517.073,372.89L517.11,372.89L517.145,372.89L517.181,372.89L517.218,372.891L517.255,372.891L517.4,372.892L517.473,372.893L517.546,372.894L517.619,372.895L517.692,372.896L517.765,372.897L517.838,372.899L517.91,372.901L517.983,372.902L518.056,372.904L518.129,372.906L518.202,372.909L518.275,372.911L518.347,372.914L518.42,372.917L518.493,372.919L518.565,372.923L518.637,372.926L518.71,372.929L518.782,372.933L518.854,372.937L518.926,372.941L518.997,372.945L519.069,372.949L519.14,372.954L519.211,372.959L519.282,372.964L519.353,372.969L519.423,372.974L519.494,372.98L519.564,372.985L519.634,372.991L519.703,372.998L519.772,373.004L519.841,373.011L519.91,373.017L519.979,373.025L520.047,373.032L520.115,373.039L520.182,373.047L520.226,373.052L520.292,373.06L520.358,373.069L520.424,373.077L520.489,373.086L520.554,373.095L520.619,373.104L520.683,373.114L520.747,373.124L520.81,373.134L520.873,373.144L520.935,373.155L520.997,373.165L521.059,373.176L521.12,373.188L521.181,373.199L521.241,373.211L521.301,373.223L521.36,373.236L521.418,373.248L521.448,373.255L521.476,373.261L521.506,373.268L521.534,373.275L521.564,373.282L521.591,373.288L521.621,373.296L521.648,373.302L521.678,373.31L521.703,373.316L521.734,373.324L521.759,373.331L521.789,373.339L521.814,373.345L521.844,373.354L521.868,373.36L521.898,373.369L521.921,373.376L521.952,373.385L521.974,373.391L522.005,373.401L522.026,373.407L522.057,373.417L522.078,373.424L522.109,373.434L522.129,373.44L522.16,373.45L522.21,373.468L522.26,373.485L522.309,373.503L522.357,373.521L522.405,373.54L522.452,373.559L522.498,373.578L522.543,373.597L522.588,373.617L522.632,373.637L522.675,373.658L522.717,373.679L522.758,373.7L522.799,373.722L522.839,373.744L522.878,373.766L522.916,373.789L522.945,373.806L522.981,373.829L523.017,373.853L523.052,373.877L523.086,373.901L523.119,373.926L523.151,373.951L523.182,373.976L523.212,374.002L523.242,374.028L523.27,374.054L523.298,374.081L523.324,374.109L523.35,374.136L523.375,374.165L523.399,374.193L523.421,374.222L523.443,374.251L523.464,374.281L523.484,374.311L523.493,374.326L523.502,374.342L523.511,374.357L523.52,374.373L523.528,374.388L523.536,374.404L523.544,374.42L523.552,374.436L523.559,374.452L523.567,374.468L523.573,374.484L523.58,374.501L523.586,374.517L523.592,374.534L523.598,374.55L523.604,374.567L523.609,374.584L523.614,374.601L523.618,374.618L523.623,374.635L523.627,374.653L523.631,374.67L523.634,374.688L523.637,374.706L523.64,374.723L523.643,374.741C523.644,374.747 523.645,374.753 523.645,374.759C523.687,375.094 523.721,375.429 523.749,375.764C523.762,375.921 523.773,376.077 523.783,376.233C523.792,376.371 523.799,376.508 523.806,376.645C523.831,377.177 523.841,377.708 523.836,378.24L523.835,378.346C523.822,379.4 523.754,380.455 523.645,381.51L510.285,381.51C510.248,381.159 510.217,380.807 510.19,380.455L510.182,380.35C510.176,380.263 510.17,380.177 510.165,380.09C510.154,379.931 510.145,379.771 510.136,379.612L510.131,379.506C510.125,379.376 510.119,379.245 510.114,379.115C510.113,379.069 510.111,379.024 510.11,378.979L510.106,378.873C510.094,378.451 510.09,378.029 510.095,377.607L510.097,377.502C510.11,376.668 510.161,375.835 510.256,375.001C510.265,374.92 510.275,374.84 510.285,374.759L510.288,374.735L510.291,374.716L510.296,374.687L510.299,374.67L510.303,374.652L510.307,374.635L510.312,374.617L510.317,374.6L510.322,374.583L510.327,374.566L510.332,374.549L510.338,374.532L510.344,374.515L510.351,374.499L510.357,374.482L510.364,374.466L510.372,374.45L510.379,374.433L510.387,374.417L510.395,374.401L510.403,374.386L510.412,374.37L510.43,374.339L510.449,374.308L510.469,374.278L510.49,374.248L510.512,374.218L510.535,374.189L510.559,374.16L510.584,374.132L510.61,374.104L510.637,374.077L510.665,374.05L510.694,374.023L510.723,373.997L510.754,373.971L510.786,373.945L510.818,373.92L510.852,373.896L510.878,373.877L510.913,373.853L510.949,373.829L510.985,373.806L511.023,373.783L511.061,373.761L511.1,373.739L511.139,373.717L511.18,373.696L511.221,373.675L511.264,373.654L511.306,373.634L511.35,373.614L511.395,373.594L511.44,373.575L511.486,373.556L511.532,373.537L511.579,373.519L511.627,373.501L511.676,373.483L511.726,373.466L511.77,373.45L511.801,373.44L511.821,373.434L511.852,373.424L511.873,373.417L511.904,373.407L511.925,373.401L511.956,373.391L511.978,373.385L512.009,373.376L512.032,373.369L512.062,373.36L512.086,373.354L512.116,373.345L512.141,373.339L512.171,373.331L512.196,373.324L512.227,373.316L512.252,373.31L512.282,373.302L512.309,373.296L512.339,373.288L512.366,373.282L512.396,373.275L512.424,373.268L512.453,373.261L512.512,373.248L512.57,373.236L512.629,373.223L512.689,373.211L512.749,373.199L512.81,373.188L512.871,373.176L512.933,373.165L512.995,373.155L513.057,373.144L513.12,373.134L513.183,373.124L513.247,373.114L513.311,373.104L513.376,373.095L513.441,373.086L513.506,373.077L513.572,373.069L513.638,373.06L513.704,373.052L513.771,373.044L513.838,373.037L513.906,373.029L513.973,373.022L514.041,373.015L514.11,373.009L514.178,373.002L514.247,372.996L514.316,372.99L514.385,372.984L514.455,372.978L514.525,372.973L514.595,372.967L514.665,372.962L514.735,372.957L514.806,372.953L514.877,372.948L514.948,372.944L515.019,372.94L515.09,372.936L515.162,372.932L515.233,372.929L515.305,372.925L515.377,372.922L515.449,372.919L515.521,372.916L515.593,372.913L515.665,372.911L515.737,372.908L515.809,372.906L515.882,372.904L515.954,372.902L516.026,372.9L516.099,372.899L516.171,372.897L516.243,372.896L516.316,372.895L516.388,372.894L516.46,372.893L516.53,372.892C516.567,372.892 516.604,372.891 516.641,372.891L516.675,372.891L516.712,372.891L516.749,372.89L516.785,372.89L516.82,372.89L516.857,372.89L516.893,372.89L516.965,372.89L517.037,372.89ZM553.228,350.406C559.686,350.412 565.827,350.825 572.016,351.176C572.303,351.531 572.591,351.888 572.878,352.248L549.01,372.668C549.01,372.668 543.657,368.233 543.657,368.233C543.433,368.047 543.159,367.954 542.885,367.952L542.872,367.952C542.575,367.954 542.28,368.063 542.048,368.277L531.517,378.026L527.666,374.228C527.118,373.688 527.756,371.804 528.887,370.821C528.231,370.631 527.592,370.536 526.97,370.531L526.934,370.531C526.02,370.53 525.144,370.726 524.303,371.108L524.27,371.123C525.237,368.148 526.108,365.172 526.873,362.196C535.082,358.449 542.832,354.513 550.237,350.434C551.183,350.416 552.122,350.407 553.053,350.406L553.228,350.406ZM481.051,350.407L480.877,350.406C474.354,350.404 468.159,350.822 461.914,351.176C461.627,351.531 461.339,351.888 461.052,352.248L484.92,372.668L490.273,368.233C490.501,368.044 490.78,367.951 491.058,367.952L491.072,367.953C491.364,367.957 491.653,368.066 491.882,368.277L502.413,378.026L506.264,374.228C506.812,373.688 506.174,371.804 505.043,370.821C505.712,370.627 506.363,370.532 506.996,370.531L507.033,370.531C507.945,370.535 508.82,370.736 509.66,371.123L509.615,370.984C508.666,368.055 507.81,365.125 507.057,362.196C498.848,358.449 491.098,354.513 483.693,350.434C482.806,350.417 481.925,350.408 481.051,350.407Z" style="fill:white;"/>
    </g>
</svg>
