<?xml version="1.0" encoding="UTF-8" standalone="no"?>
<!DOCTYPE svg PUBLIC "-//W3C//DTD SVG 1.1//EN" "http://www.w3.org/Graphics/SVG/1.1/DTD/svg11.dtd">
<svg width="100%" height="100%" viewBox="0 0 1000 1000" version="1.1" xmlns="http://www.w3.org/2000/svg" xmlns:xlink="http://www.w3.org/1999/xlink" xml:space="preserve" xmlns:serif="http://www.serif.com/" style="fill-rule:evenodd;clip-rule:evenodd;stroke-linejoin:round;stroke-miterlimit:2;">
    <g transform="matrix(10.6354,0,0,12.7625,-4805.07,-5475.52)">
        <path d="M517.151,464.131C517.073,463.775 517.071,463.39 517.109,463C517.338,460.659 518.546,457.512 524,461C524.905,459.831 525.076,457.451 525,456C523.998,455.776 522.998,455.811 522,456C524.018,452.372 525.271,448.701 526,445C526.323,448.667 527.869,452.333 531,456C529.641,455.743 528.293,455.593 527,456C527.813,458.667 526.746,461.333 526,464C526.494,468.263 524.967,471.092 520,473C518.876,473.432 519.205,474.634 520,475C522.59,476.191 523.981,475.23 524.5,475.145C525.447,474.989 524.288,476.053 521,479C521.004,480.422 520.915,481.654 520.739,482.71C524.667,483.447 527.5,484.444 529.35,485.581C530.727,486.426 531.575,487.359 531.96,488.316C532.461,489.56 532.211,490.868 531.246,492.146C530.353,493.33 528.825,494.499 526.725,495.563C521.272,498.324 511.904,500.417 500,500.417C488.096,500.417 478.728,498.324 473.275,495.563C471.175,494.499 469.647,493.33 468.754,492.146C467.789,490.868 467.539,489.56 468.04,488.316C468.425,487.359 469.375,486.573 470.65,485.581C472.305,484.292 478.312,482.993 482.846,482.94C483.756,481.695 483.239,479.71 483,479C475.001,476.07 473.309,472.818 472.286,466C471.994,464.054 469.845,461.586 470.769,462C471.616,462.379 472.17,461.606 473,460C473.023,462.02 476.016,462.385 475.984,462.5C475.114,465.678 473.955,469.328 482,473C479.587,467.033 481.818,459.511 487,451C484.778,451.94 482.46,452.078 480,451C480.621,450.246 481.555,449.697 483,449.612C483.809,449.564 484.037,448.281 485,448C484.044,447.701 483.384,448.198 482.5,448.291C481.729,448.373 480.725,448.016 480,448.25C479.179,444.481 484.17,441.861 494,442C492.386,443.007 491.899,443.964 494,444C494.801,444.014 492.172,445.152 493,446C493.855,446.875 496.521,447.91 497,449C495.491,448.346 494.125,448.223 493,449C485.848,464.088 493.621,460.983 494,461C502.138,461.355 498.103,463.563 499,463C503.768,460.011 503.342,458.318 497,455C500.679,452.957 505.283,451.821 506,448.68C507.415,442.48 510.159,438.34 515,436C513.969,438.333 512.944,440.667 515,443C517.536,442.861 519.365,443.785 521,445C513.478,449.668 515.902,453.367 519,457C516.487,457.139 514.487,458.139 513,460C512.151,463.463 508.665,462.858 509,464C509.112,463.013 515.226,462.625 517.151,464.131ZM520.577,483.528C520.411,484.249 520.197,484.873 519.939,485.408C520.999,485.828 521.796,486.295 522.331,486.783C522.901,487.303 523.191,487.857 523.231,488.409C523.296,489.291 522.708,490.235 521.332,491.071C518.312,492.907 511.29,494.417 500,494.417C488.71,494.417 481.688,492.907 478.668,491.071C477.292,490.235 476.704,489.291 476.769,488.409C476.787,488.162 476.855,487.915 476.975,487.671L475,488C473.802,488.078 475.148,485.56 477.185,484.349C474.43,484.71 470.967,486.071 470.109,486.983C469.159,487.992 468.551,488.815 468.632,489.794C468.686,490.452 468.993,491.115 469.518,491.773C470.366,492.833 471.767,493.865 473.651,494.819C479.027,497.541 488.266,499.583 500,499.583C511.734,499.583 520.973,497.541 526.349,494.819C528.233,493.865 529.634,492.833 530.482,491.773C531.007,491.115 531.314,490.452 531.368,489.794C531.449,488.815 530.958,487.867 529.891,486.983C528.21,485.59 525.164,484.386 520.577,483.528ZM460.48,496.27C457.09,496.25 454.686,491.311 458.5,488.5C459.325,478.783 459.138,469.128 458.5,459.5C457.44,459.388 456.467,458.914 456.5,458L457,439L458,454L459.5,454L460.5,439.5L461.5,454L463,454L464,439L464.5,458C464.533,458.914 463.56,459.388 462.5,459.5C461.862,469.128 461.675,478.783 462.5,488.5C466.322,491.317 463.9,496.27 460.5,496.27L460.48,496.27ZM537.075,463.605C536.639,456.022 534.449,442.742 540,438L541,488.002C542.082,500.041 535.567,497.961 537,488.002C537.653,476.617 538.914,462.089 537.075,463.605ZM519.523,486.139C518.669,487.409 517.47,487.981 516,488C510.26,488.075 510.496,484.887 511.219,484C512.166,482.839 515.46,484.589 516,483C517.877,477.476 514.132,474.32 506,475C503.56,475.204 503.875,478.771 506,479C508.537,479.273 509.968,478.487 510,479C510.073,480.16 509.366,480.595 506,482C505.516,484.437 504.966,486.051 504,486.517C494.917,490.896 486.354,481.686 496,483C498.149,483.293 500.102,483.254 502,482C500.05,477.116 488.751,476.972 488,481C487.677,482.734 486.573,484.006 485,485C485.295,486.509 482.457,486.658 481,487L478.15,487.475C477.818,487.798 477.625,488.128 477.6,488.47C477.552,489.121 478.086,489.742 479.101,490.359C482.059,492.157 488.943,493.583 500,493.583L500.258,493.583C511.164,493.561 517.964,492.143 520.899,490.359C521.914,489.742 522.448,489.121 522.4,488.47C522.373,488.101 522.15,487.746 521.77,487.399C521.272,486.945 520.521,486.521 519.523,486.139ZM522.5,463.5C521.671,462.512 521.037,462.012 520.553,461.884C520.068,461.756 519.733,462 519.5,462.5C519.063,463.441 520.559,464.375 522.5,463.5ZM485.75,444.5C486.164,444.5 486.5,444.836 486.5,445.25C486.5,445.664 486.164,446 485.75,446C485.336,446 485,445.664 485,445.25C485,444.836 485.336,444.5 485.75,444.5Z" style="fill:white;"/>
    </g>
</svg>
