<?xml version="1.0" encoding="UTF-8" standalone="no"?>
<!DOCTYPE svg PUBLIC "-//W3C//DTD SVG 1.1//EN" "http://www.w3.org/Graphics/SVG/1.1/DTD/svg11.dtd">
<svg width="100%" height="100%" viewBox="0 0 1000 1000" version="1.1" xmlns="http://www.w3.org/2000/svg" xmlns:xlink="http://www.w3.org/1999/xlink" xml:space="preserve" xmlns:serif="http://www.serif.com/" style="fill-rule:evenodd;clip-rule:evenodd;stroke-linejoin:round;stroke-miterlimit:2;">
    <g transform="matrix(5.76326,0,0,6.88564,-2924.54,-2885.52)">
        <path d="M572.391,426.325L555.515,462.28C561.027,456.595 569.224,450.706 583.054,444.389C576.534,441.021 572.813,435.149 572.391,426.325Z" style="fill:white;"/>
        <path d="M624.485,448.983L625.041,458.411C617.331,455.255 609.347,454.569 600.909,457.992C587.159,467.776 577.382,475.643 569.285,484.282C564.518,496.266 562.291,509.301 565.65,521.081C575.028,525.053 583.445,519.367 595.969,512.275C616.793,500.483 634.158,479.926 637.464,452.808C643.268,454.554 648.919,454.083 654.298,449.634C661.108,469.426 663.516,488.738 664.423,507.887C650.737,520.127 634.77,529.646 619.328,537.87C621.639,531.924 623.635,526.405 627.328,520.351C641.236,521.676 652.403,517.696 657.5,504.072C660.482,494.09 659.171,484.108 654.861,474.126C651.748,471.915 648.086,471.787 643.923,473.555C632.318,492.401 612.821,508.059 591.082,522.731C572.638,536.176 557.411,547.708 545.892,557.032C544.601,545.776 538.428,537.146 523.98,532.967C534.743,516.441 542.32,500.062 543.704,483.97C567.052,475.336 587.544,463.248 604.525,446.918L624.485,448.983Z" style="fill:white;"/>
    </g>
</svg>
