<?xml version="1.0" encoding="UTF-8" standalone="no"?>
<!DOCTYPE svg PUBLIC "-//W3C//DTD SVG 1.1//EN" "http://www.w3.org/Graphics/SVG/1.1/DTD/svg11.dtd">
<svg width="100%" height="100%" viewBox="0 0 1000 1000" version="1.1" xmlns="http://www.w3.org/2000/svg" xmlns:xlink="http://www.w3.org/1999/xlink" xml:space="preserve" xmlns:serif="http://www.serif.com/" style="fill-rule:evenodd;clip-rule:evenodd;stroke-linejoin:round;stroke-miterlimit:2;">
    <g transform="matrix(3.50015,0,0,3.50015,-2300.12,-2326.14)">
        <path d="M733,733C735.148,726.39 741.161,722.281 750,720C771.473,730.652 787.049,745.412 800,762C846.515,718.299 876.624,729.266 893,786C873.065,801.265 842.614,804.713 796,790C732.936,763.222 695.222,769.015 674,796L688,798C683.87,837.937 690.01,863.857 706.261,882C727.533,905.749 756.498,909.415 790,907C761.657,901.214 743.021,890.735 729,881.369C711.338,869.57 706.22,851.677 706.391,836C706.615,815.391 718.347,798.285 718,804.536C716.56,830.46 741.787,887.185 798,883L801,908C790.827,915.664 783.23,925.413 780,936L818,936C819.7,925.824 825.192,916.356 842,909C878.176,895.462 892.145,874.701 894,850C887.013,864.712 878.853,879.628 864.706,884C832.909,893.827 819.741,900.034 810,904L806,882C843.59,875.027 868.447,860.067 874,833C862.818,840.479 844.943,841.048 810,824C775.127,804.143 760.085,812.194 747,823C774.354,830.249 790.587,847.094 794,875C747.19,867.936 725.591,835.299 729.188,809C730.173,801.803 739.256,796.819 751.123,793C759.728,790.231 774.9,790.894 796,796C820.864,803.719 845.604,816.99 871,819.892C888.885,821.935 907.271,812.314 926,799C922.967,768.134 898.686,744.959 860,727C861.989,717.126 870.309,712.035 884,711C825.241,671.309 766.568,666.951 708,706C718.077,707.795 727.587,708.499 733,713C696.345,725.618 694.84,750.828 703.635,756.46C715.34,763.957 754.858,757.484 742.714,737C741.627,735.165 738.064,734.186 733,733Z" style="fill:white;"/>
    </g>
</svg>
