<?xml version="1.0" encoding="UTF-8" standalone="no"?>
<!DOCTYPE svg PUBLIC "-//W3C//DTD SVG 1.1//EN" "http://www.w3.org/Graphics/SVG/1.1/DTD/svg11.dtd">
<svg width="100%" height="100%" viewBox="0 0 1000 1000" version="1.1" xmlns="http://www.w3.org/2000/svg" xmlns:xlink="http://www.w3.org/1999/xlink" xml:space="preserve" xmlns:serif="http://www.serif.com/" style="fill-rule:evenodd;clip-rule:evenodd;stroke-linejoin:round;stroke-miterlimit:2;">
    <g transform="matrix(0.886207,0,0,0.886207,63.7931,87.0152)">
        <path d="M635.258,217.729L635.094,217.951C400.153,539.455 188.452,693.439 -15.564,792.028C291.865,789.064 578.099,770.588 891.931,561.133C894.344,559.523 896.71,557.899 899.049,556.246C922.428,446.252 902.125,351.384 860.278,294.675C836.022,261.805 805.251,234.107 760.407,220.74C727.169,210.832 686.419,208.761 635.258,217.729ZM701.34,316.523L713.763,301.168L748.433,456.31L736.385,471.202L740.617,489.884L640.993,613.764L636.629,594.501L736.385,471.202L701.34,316.523ZM701.34,316.523L601.585,439.822L636.629,594.501L624.207,609.856L589.537,454.714L601.585,439.822L597.352,421.14L696.976,297.26L701.34,316.523ZM606.874,441.053L668.985,455.512L639.243,583.273L606.874,441.053ZM655.224,193.87C699.503,188.62 735.888,191.805 766.327,200.878C815.914,215.66 850.134,246.023 876.954,282.369C918.413,338.552 940.931,429.966 923.733,536.842C1050.36,425.663 990.022,272.465 950.127,221.262C907.283,166.274 760.168,84.727 655.224,193.87ZM739.669,471.967L739.489,471.925L739.621,471.764L739.574,471.562L739.754,471.604L759.213,448.011L746.708,501.728L739.669,471.967ZM729.417,469.58L668.985,455.512L698.726,327.752L729.417,469.58ZM598.385,438.694L598.565,438.736L598.433,438.897L598.481,439.099L598.3,439.057L578.841,462.65L591.346,408.933L598.385,438.694Z" style="fill:white;"/>
    </g>
</svg>
