<?xml version="1.0" encoding="UTF-8" standalone="no"?>
<!DOCTYPE svg PUBLIC "-//W3C//DTD SVG 1.1//EN" "http://www.w3.org/Graphics/SVG/1.1/DTD/svg11.dtd">
<svg width="100%" height="100%" viewBox="0 0 1000 1000" version="1.1" xmlns="http://www.w3.org/2000/svg" xmlns:xlink="http://www.w3.org/1999/xlink" xml:space="preserve" xmlns:serif="http://www.serif.com/" style="fill-rule:evenodd;clip-rule:evenodd;stroke-linejoin:round;stroke-miterlimit:2;">
    <g transform="matrix(1.01399,0,0,1.01399,-7.03055,-23.4284)">
        <path d="M500.072,771.006C509.024,771.745 525.037,783.941 565,835C581.57,812.068 598.212,793.766 615,785C607.944,822.592 607.412,856.469 611,888C581.001,897.084 558.569,923.993 540,960C539.078,941.079 538.75,922.537 540,905C525.565,920.25 512.523,939.268 500.072,959.881L500.072,960L500.036,959.94L500,960L500,959.881C487.549,939.268 474.507,920.25 460.072,905C461.322,922.537 460.995,941.079 460.072,960C441.503,923.993 419.072,897.084 389.072,888C392.66,856.469 392.129,822.592 385.072,785C401.86,793.766 418.502,812.068 435.072,835C475.035,783.941 491.048,771.745 500,771.006L500,771L500.036,771.003L500.072,771L500.072,771.006ZM500.036,743.401C501.011,743.374 502.253,743.54 503,742.764C509.576,735.937 515.254,728.515 519,721.557C524.361,711.601 532.159,704.456 538,700C618.663,685.081 659.691,677.842 670,668.179C692.587,647.007 706.606,614.375 717.468,590C729.396,563.234 738.828,538.224 737.656,515C736.948,500.957 731.387,486.776 736.262,475.279C755.885,428.998 769.12,392.551 770.029,360C771.196,318.188 762.633,248.42 741,276C746.421,206.797 754.34,138.244 772.717,72.415C790.351,146.59 804.907,206.961 825.192,255C854.084,323.423 876.637,378.95 876.672,425C876.748,524.841 798.183,578.055 744.605,610C698.064,673.557 659.752,747.074 627,827.32L626,745L560,815C545.311,789.387 528.056,765.687 500.036,750.02C472.016,765.687 454.762,789.387 440.072,815L374.072,745L373.072,827.32C340.32,747.074 302.008,673.557 255.467,610C201.89,578.055 123.324,524.841 123.4,425C123.435,378.95 145.988,323.423 174.88,255C195.165,206.961 209.722,146.59 227.355,72.415C245.733,138.244 253.651,206.797 259.072,276C237.439,248.42 228.876,318.188 230.043,360C230.952,392.551 244.187,428.998 263.81,475.279C268.685,486.776 263.125,500.957 262.416,515C261.244,538.224 270.676,563.234 282.604,590C293.466,614.375 307.485,647.007 330.072,668.179C340.381,677.842 381.409,685.081 462.072,700C467.914,704.456 475.711,711.601 481.072,721.557C484.819,728.515 490.496,735.937 497.072,742.764C497.819,743.54 499.061,743.374 500.036,743.401ZM500.036,586.368C581.818,528.111 672.697,463.785 635.588,360C625.736,332.448 597.624,326.43 580,332.911C567.77,337.409 556.051,350.593 545,375C533.036,334.833 532.826,307.686 540,290.233C568.992,219.707 621.568,220.771 671.661,230C752.634,244.919 776.902,419.946 688.987,510C667.405,532.107 643.056,560.122 609.625,590C551.415,642.021 542.048,676.464 500.072,724.916L500.036,724.958L500,724.916C458.024,676.464 448.657,642.021 390.448,590C357.016,560.122 332.667,532.107 311.085,510C223.17,419.946 247.438,244.919 328.411,230C378.504,220.771 431.081,219.707 460.072,290.233C467.247,307.686 467.037,334.833 455.072,375C444.021,350.593 432.302,337.409 420.072,332.911C402.448,326.43 374.336,332.448 364.485,360C327.375,463.785 418.254,528.111 500.036,586.368ZM714.975,505.64C707.689,632.872 644.898,673.679 555,672.282C574.93,644.418 599.397,615.186 643.59,580L714.975,505.64ZM285.097,505.64C292.383,632.872 355.175,673.679 445.072,672.282C425.142,644.418 400.675,615.186 356.482,580L285.097,505.64ZM500.036,390L500.072,390C535.947,390 565.072,419.126 565.072,455C565.072,490.874 535.947,520 500.072,520L500.036,520L500,520C464.126,520 435,490.874 435,455C435,419.126 464.126,390 500,390L500.036,390Z" style="fill:white;"/>
    </g>
</svg>
