<?xml version="1.0" encoding="UTF-8" standalone="no"?>
<!DOCTYPE svg PUBLIC "-//W3C//DTD SVG 1.1//EN" "http://www.w3.org/Graphics/SVG/1.1/DTD/svg11.dtd">
<svg width="100%" height="100%" viewBox="0 0 1000 1000" version="1.1" xmlns="http://www.w3.org/2000/svg" xmlns:xlink="http://www.w3.org/1999/xlink" xml:space="preserve" xmlns:serif="http://www.serif.com/" style="fill-rule:evenodd;clip-rule:evenodd;stroke-linejoin:round;stroke-miterlimit:2;">
    <g transform="matrix(4.1964,0,0,4.1964,-1598.2,-1643.37)">
        <path d="M500,618L494,597L493,467L475,467C474.496,464.867 474.181,462.658 475,460L484,460C487.703,459.534 490.725,458.874 493,458L493,430C493,430 490.35,429.994 490,429C488.203,423.896 500,425 500,425C500,425 511.797,423.896 510,429C509.65,429.994 507,430 507,430L507,458C509.275,458.874 512.297,459.534 516,460L525,460C525.819,462.658 525.504,464.867 525,467L507,467L507,588L500,618ZM498.5,466.5L496,467L496,596.5L498,604L498.5,466.5ZM555.801,409C557.577,405.743 561.032,403.53 565,403.53C570.778,403.53 575.47,408.222 575.47,414C575.47,418.522 572.596,422.378 568.578,423.841L599.678,501.744L606.382,501.744C606.928,529.684 578.794,541.198 565,541.367C551,541.539 523.15,530.442 523,501.744L530.348,501.744L561.759,423.957C559.199,423.124 557.07,421.329 555.801,419L500,419L500,409L555.801,409ZM444.199,409C442.423,405.743 438.968,403.53 435,403.53C429.222,403.53 424.53,408.222 424.53,414C424.53,418.522 427.404,422.378 431.422,423.841L400.322,501.744L393.618,501.744C393.072,529.684 421.206,541.198 435,541.367C449,541.539 476.85,530.442 477,501.744L469.652,501.744L438.241,423.957C440.801,423.124 442.93,421.329 444.199,419L500,419L500,409L444.199,409ZM534.842,501.744L595.191,501.744L565.189,426.591L534.842,501.744ZM465.158,501.744L404.809,501.744L434.811,426.591L465.158,501.744Z" style="fill:white;"/>
    </g>
</svg>
