<?xml version="1.0" encoding="UTF-8" standalone="no"?>
<!DOCTYPE svg PUBLIC "-//W3C//DTD SVG 1.1//EN" "http://www.w3.org/Graphics/SVG/1.1/DTD/svg11.dtd">
<svg width="100%" height="100%" viewBox="0 0 1000 1000" version="1.1" xmlns="http://www.w3.org/2000/svg" xmlns:xlink="http://www.w3.org/1999/xlink" xml:space="preserve" xmlns:serif="http://www.serif.com/" style="fill-rule:evenodd;clip-rule:evenodd;stroke-linejoin:round;stroke-miterlimit:2;">
    <g transform="matrix(2.80077,0,0,2.80077,-1662.61,-1037.18)">
        <path d="M836.771,438.649C868.069,406.374 906.158,394.815 932.254,407.427C936.953,409.698 910.733,437.485 908.334,430C898.108,398.097 872.17,411.312 848.374,450.802C865.482,471.431 875.774,497.922 875.774,526.798C875.774,588.727 828.437,639.687 768.011,645.436C739.06,682.537 701.458,701.516 666.903,693.404C654.199,690.422 686.29,666.678 690,673.595C701.143,694.373 726.497,684.736 749.744,645.782C720.726,644.134 694.476,632.087 674.662,613.313C643.255,621.852 617.525,618.833 612.264,604C601.253,572.953 708.272,491.729 770,508.08C779.877,510.697 788.359,509.133 796.314,504.725C805.544,479.47 818.555,458.555 833.291,442.354C812.704,421.748 784.315,408.654 752.827,407.678C754.074,407.639 755.332,407.619 756.595,407.619C787.458,407.619 815.596,419.375 836.771,438.649ZM753.95,638.363C752.317,638.43 750.679,638.463 749.033,638.463C721.167,638.463 695.546,628.974 675.362,613.121C709.298,603.732 749.692,580.917 778,545C779.424,543.193 776.396,541.339 775,543C740.809,583.678 694.74,601.408 670,596.812C662.513,595.421 643.849,580.992 660.252,569.621L792.743,515.334C790.325,523.172 788.261,531.402 786.609,540C778.585,581.782 766.749,614.637 753.95,638.363ZM860.688,485.966C864.723,497.604 866.911,510.074 866.911,523.041C866.911,577.946 827.673,623.949 775.186,635.606C790.926,612.561 803.477,583.793 810.624,551C814.536,533.052 819.462,516.212 825.027,500.869L860.688,485.966ZM744,529C744.763,529.846 724.004,539.316 702.934,548.09C681.864,556.864 660.482,564.941 660,563C656.708,549.751 719.668,502.044 744,529ZM845.18,456.283C850.763,463.975 855.407,472.363 858.95,481.288L827.36,494.621C832.869,480.286 838.92,467.391 845.18,456.283Z" style="fill:white;"/>
    </g>
</svg>
