<?xml version="1.0" encoding="UTF-8" standalone="no"?>
<!DOCTYPE svg PUBLIC "-//W3C//DTD SVG 1.1//EN" "http://www.w3.org/Graphics/SVG/1.1/DTD/svg11.dtd">
<svg width="100%" height="100%" viewBox="0 0 1000 1000" version="1.1" xmlns="http://www.w3.org/2000/svg" xmlns:xlink="http://www.w3.org/1999/xlink" xml:space="preserve" xmlns:serif="http://www.serif.com/" style="fill-rule:evenodd;clip-rule:evenodd;stroke-linejoin:round;stroke-miterlimit:2;">
    <g transform="matrix(5.45285,0,0,5.45285,-2155.54,-1321.25)">
        <path d="M498,300L495.256,303L495,312C499.728,316.334 503.954,320.059 508,321.633C511.292,322.914 515.185,320.092 519,316L520,311L535,310L532,325L527,327L518,336L519,341L564,347C571.044,352.177 571.327,355.769 565,357L560,353C545.645,351.904 526.315,350.068 519,350.815C517.436,350.974 517.069,352.999 517.298,355C517.51,356.867 518.241,358.712 519,359L525,361C526.245,366.034 525.286,370.645 523,375C517.753,374.409 513.158,372.812 510,369L510,365C508.932,361.991 505.995,359.984 503,359.79C500.673,359.639 498.311,360.582 496.763,363C495.853,364.422 495.944,366.134 500.5,370C497.284,374.246 492.941,377.891 487.5,380C482.059,377.891 476.716,374.246 473.5,370C478.056,366.134 478.147,364.422 477.237,363C475.689,360.582 473.327,359.639 471,359.79C468.005,359.984 465.068,361.991 464,365L464,369C460.842,372.812 456.247,374.409 451,375C448.714,370.645 447.755,366.034 449,361L455,359C455.759,358.712 456.49,356.867 456.702,355C456.931,352.999 456.564,350.974 455,350.815C447.685,350.068 428.355,351.904 414,353L409,357C402.673,355.769 402.956,352.177 410,347L455,341L456,336L447,327L442,325L439,310L454,311L455,316C458.815,320.092 462.708,322.914 466,321.633C470.046,320.059 474.272,316.334 479,312L478.744,303L476,300L487,288L498,300ZM486.5,374L483,360L468,353L458,363L467,348L486.761,358L507,348L516,363L506,353L491,360L486.5,374ZM487.5,329C487.5,329 501.957,337.083 502,341C502.043,344.917 487,352.5 487,352.5C487,352.5 471.957,344.917 472,341C472.043,337.083 487.5,329 487.5,329ZM467.5,336L455,323L468,332.5L485,320L487.5,306L489,320L506,332.5L519,323L506.5,336L487.5,324L467.5,336Z" style="fill:white;"/>
    </g>
</svg>
