<?xml version="1.0" encoding="UTF-8" standalone="no"?>
<!DOCTYPE svg PUBLIC "-//W3C//DTD SVG 1.1//EN" "http://www.w3.org/Graphics/SVG/1.1/DTD/svg11.dtd">
<svg width="100%" height="100%" viewBox="0 0 1000 1000" version="1.1" xmlns="http://www.w3.org/2000/svg" xmlns:xlink="http://www.w3.org/1999/xlink" xml:space="preserve" xmlns:serif="http://www.serif.com/" style="fill-rule:evenodd;clip-rule:evenodd;stroke-linejoin:round;stroke-miterlimit:2;">
    <g transform="matrix(1.25896,0,0,1.25896,-7.53246,-73.1228)">
        <path d="M350,400L350,474L494,474C501.428,559.317 483.764,633.125 427,689C415.808,703.433 407.24,701.385 400,691C380.247,669.084 366.696,665.319 356.239,667.4C317.039,675.202 321.584,734.543 343.777,780C362.036,817.4 410.843,820.12 447,760C493.491,674.739 521.269,576.908 540,473L560,473C589.117,538.251 621.56,601.99 660,663C674.583,677.827 672.656,688.585 645,693C590.8,715.931 624.823,773.265 657.168,800C682.238,820.722 715.337,816.39 735.244,784.324C744.167,769.95 749.685,736.107 743.888,696.2C742.207,684.626 727.06,662.856 687,630C639.348,592.483 614.149,540.516 610,475L730,475L730,394L680,394C665.244,395.694 659.858,388.09 660,375C633.481,272.905 595.25,229.409 540,235.02C494.535,239.638 453.635,277.025 427,375C425.681,390.621 420.405,401.925 403,400L350,400ZM185,200C253.989,200 310,334.425 310,500C310,665.575 253.989,800 185,800C116.011,800 60,665.575 60,500C60,334.425 116.011,200 185,200ZM261,529L120,529C111.398,527.516 108.042,529.4 110,540C112.835,609.469 129.649,655.219 160,678C176.087,686.101 192.611,688.091 210,678C241.343,661.349 263.901,624.549 270,550C270.893,538.381 270.824,527.905 261,529ZM127,415L244,415C254.93,415.157 256.076,408.686 251,398C239.609,363.924 225.527,334.018 207,311C198.37,304.661 188.981,305.166 179,311C152.298,327.09 135.81,351.207 124,379C113.607,401.337 113.289,414.533 127,415ZM518,383L518,290C497.601,304.703 479.218,324.539 476,383L518,383ZM570,383L570,290C590.399,304.703 608.782,324.539 612,383L570,383ZM566,220L526,220L526,150L440,150C428.823,142 427.962,134 440,126L505,126C510.481,125.271 516.598,124.916 518,121.015C521.154,112.24 524.796,105.522 530,101C539.544,97.509 549.349,96.015 560,101C570.774,108.92 573.529,118.957 575.805,124.287C577.107,127.337 582.035,126.606 586,126L660,126C668.724,134.297 669.11,142.243 660,150L566,150L566,220Z" style="fill:white;"/>
    </g>
</svg>
