<?xml version="1.0" encoding="UTF-8" standalone="no"?>
<!DOCTYPE svg PUBLIC "-//W3C//DTD SVG 1.1//EN" "http://www.w3.org/Graphics/SVG/1.1/DTD/svg11.dtd">
<svg width="100%" height="100%" viewBox="0 0 1000 1000" version="1.1" xmlns="http://www.w3.org/2000/svg" xmlns:xlink="http://www.w3.org/1999/xlink" xml:space="preserve" xmlns:serif="http://www.serif.com/" style="fill-rule:evenodd;clip-rule:evenodd;stroke-linejoin:round;stroke-miterlimit:2;">
    <g transform="matrix(6.65499,0,0,6.65499,-4383.08,-2664.38)">
        <path d="M708.859,500L733.747,543.109L683.971,543.109L708.859,500ZM758.635,500L783.523,543.109L733.747,543.109L758.635,500ZM711.953,494.64C710.752,493.246 709.665,491.498 709.251,490.399C707.371,485.412 706.065,479.494 706.663,473.629C707.97,460.814 716.26,447.647 727.505,441.589C739.204,435.287 751.968,435.203 761.873,440.801C763.044,441.462 763.979,442.439 765.025,443.366C769.466,447.298 772.501,456.924 767.733,463.238C763.506,468.835 752.753,468.379 753.859,460.553C754.643,455.008 759.596,453.77 760.684,455.128C761.644,456.326 758.908,459.962 757.421,458.522C755.805,456.959 755.685,459.462 756.397,460.965C757.861,464.054 762.942,464.314 764.948,460.487C765.826,458.81 766.567,457.001 766.863,455.187C767.184,453.216 767.327,451.117 766.76,449.374C763.043,437.949 749.987,437.848 741.769,439.309C724.363,442.402 705.349,461.705 708.275,481.67C708.885,485.832 710.107,490.311 712.717,493.317L733.747,456.891L758.635,500L708.859,500L711.953,494.64ZM710.152,496.665C707.855,496.073 704.33,496.145 702.448,494.434C702.007,494.034 699.823,493.378 699.145,491.144C697.292,485.039 691.677,483.267 692.709,489.841C688.52,488.996 686.736,484.504 692.904,482.202C696.61,480.819 700.441,483.265 702.149,490.82C702.888,494.09 707.573,495.278 710.152,496.665ZM705.318,489.65C704.235,485.232 702.287,481.094 703.473,477.031C705.857,468.86 707.642,461.85 705.317,456.512C703.626,462.759 698.854,464.287 696.64,462.454C695.034,461.125 689.811,450.817 702.845,450.416C690.682,444.55 681.412,459.186 697.308,467.445C704.797,471.336 700.386,474.705 695.593,472.72C694.551,474.272 694.916,475.373 701.572,482.338C703.437,484.291 704.184,487.2 705.318,489.65ZM700.186,456.93C700.412,457.523 700.287,458.188 699.906,458.415C699.525,458.641 699.032,458.343 698.806,457.75C698.579,457.157 698.705,456.492 699.086,456.265C699.467,456.039 699.96,456.337 700.186,456.93ZM727.47,439.17C723.447,440.061 721.358,439.635 725.323,435.086C724.074,433.127 722.32,433.247 719.069,439.221C712.848,450.648 713.938,445.322 715.929,439.535C712.601,443.311 710.499,448.238 710.103,454.771C715.931,447.139 721.5,441.178 727.47,439.17ZM771.642,450.601C770.101,444.943 767.045,442.232 761.726,438.173C768.91,435.837 775.481,436.096 773.766,437.405C773.341,437.73 771.22,437.041 769.182,439.09C770.346,441.112 771.718,441.858 773.875,441.517C778.956,440.714 779.254,447.26 778.016,450.482C776.919,445.874 774.584,444.154 771.642,450.601ZM738.702,435.007C737.451,431.398 735.003,430.157 731.599,430.81C725.669,431.947 728.142,425.776 728.903,424.907C729.601,424.11 733.625,422.697 736.95,426.458C741.803,427.509 741.84,430.589 738.702,435.007ZM747.996,433.085C757.446,431.962 761.794,427.854 759.531,419.878C762.545,411.429 758.818,409.767 752.939,410.274C756.321,420.895 753.598,427.853 747.996,433.085ZM743.509,432.716C748.881,429.452 750.283,425.355 749.734,420.848C752.106,416.037 750.622,412.834 745.096,411.314C742.034,408.666 739.708,407.634 737.98,407.917C734.961,408.413 727.741,417.65 733.683,419.861C737.84,415.929 740.506,415.278 742.279,416.411C744.168,417.618 744.191,420.307 744.349,423.745C744.468,426.341 744.368,429.389 743.509,432.716Z" style="fill:white;"/>
    </g>
</svg>
