<?xml version="1.0" encoding="UTF-8" standalone="no"?>
<!DOCTYPE svg PUBLIC "-//W3C//DTD SVG 1.1//EN" "http://www.w3.org/Graphics/SVG/1.1/DTD/svg11.dtd">
<svg width="100%" height="100%" viewBox="0 0 1000 1000" version="1.1" xmlns="http://www.w3.org/2000/svg" xmlns:xlink="http://www.w3.org/1999/xlink" xml:space="preserve" xmlns:serif="http://www.serif.com/" style="fill-rule:evenodd;clip-rule:evenodd;stroke-linejoin:round;stroke-miterlimit:2;">
    <g transform="matrix(1.71843,0,0,1.71843,-409.106,-325.207)">
        <path d="M448.568,648.584C471.68,570.586 519.099,486.819 598.102,395.565C590.53,382.657 604.317,351.97 628.915,312.283C608.489,347.415 616.61,379.357 628.641,381.122C639.463,382.71 668.404,375.993 687.941,320.398C694.424,301.951 726.337,264.565 772.055,224.437C713.431,279.781 716.08,366.368 733.629,394.428C743.076,409.534 760.578,424.998 790.883,412.503C791.069,423.155 789.589,432.628 782.5,438.134C775.105,430.69 767.858,420.592 759.023,438.913C751.048,429.099 746.249,439.377 741.832,452.074C738.322,441.144 733.889,435.515 728.657,434.466C715.233,431.773 679.367,445.146 674.746,504.662C663.462,481.675 646.215,478.388 624.341,490.385C577.289,516.191 462.862,603.306 432.281,735.98C434.113,711.487 438.313,686.433 445.146,660.756C419.452,636.201 403.486,614.436 391.27,600.644C370.926,577.677 341.495,566.188 330.195,550.713C327.378,546.855 328.953,527.715 339.537,523.08L324.267,510.732C323.914,449.705 315.612,387.593 267.165,320C375.451,383.471 375.296,442.116 362.931,507.307C387.451,517.568 423.127,520.483 459.286,523.08C437.038,586.132 434.567,626.256 448.654,647.185L448.568,648.584ZM419.476,604.387L420.604,560.312C385.804,552.16 365.972,538.776 349.526,524.208C343.929,542.299 347.929,558.211 378.859,569.585C394.843,575.463 403.651,593.924 419.476,604.312L419.476,604.387ZM351.782,502.772C345.126,500.936 339.037,498.04 334.859,491.579C331.464,457.461 327.739,423.928 323.577,391.17C332.321,399.242 340.827,408.175 348.832,418.917C356.233,460.206 354.413,482.331 351.782,502.772Z" style="fill:white;"/>
    </g>
</svg>
