<?xml version="1.0" encoding="UTF-8" standalone="no"?>
<!DOCTYPE svg PUBLIC "-//W3C//DTD SVG 1.1//EN" "http://www.w3.org/Graphics/SVG/1.1/DTD/svg11.dtd">
<svg width="100%" height="100%" viewBox="0 0 1000 1000" version="1.1" xmlns="http://www.w3.org/2000/svg" xmlns:xlink="http://www.w3.org/1999/xlink" xml:space="preserve" xmlns:serif="http://www.serif.com/" style="fill-rule:evenodd;clip-rule:evenodd;stroke-linejoin:round;stroke-miterlimit:2;">
    <g transform="matrix(2.69909,0,0,2.69909,-285.658,-80.7103)">
        <path d="M334.752,54.537L124.36,195.295L242.92,375.764L457.806,233.692L334.752,54.537ZM258.027,330.761L238.219,343.313L246.24,355.972L266.049,343.421L258.027,330.761ZM283.075,315.623L263.267,328.175L271.289,340.834L291.097,328.283L283.075,315.623ZM419.374,215.151L339.338,93.79L156.657,215.151L238.428,334.947L419.374,215.151ZM306.917,299.144L287.108,311.696L295.13,324.355L314.938,311.804L306.917,299.144ZM332.747,282.397L312.938,294.948L320.96,307.608L340.768,295.056L332.747,282.397ZM357.529,265.791L337.721,278.342L345.742,291.002L365.551,278.451L357.529,265.791ZM382.359,248.802L362.551,261.353L370.572,274.013L390.381,261.461L382.359,248.802ZM408.071,232.066L388.262,244.618L396.284,257.278L416.092,244.726L408.071,232.066ZM344.451,192.825C327.915,167.444 312.045,146.453 306.117,161.644C299.039,156.286 293.38,156.243 289.796,163.967C287.16,172.168 285.999,179.117 286.196,184.914C285.255,197.353 288.932,205.124 297.12,208.335L309.717,211.03C299.05,215.301 292.073,221.387 289.631,229.701C286.294,237.634 285.873,243.85 287.547,248.832C288.574,254.164 291.16,256.979 295.304,257.278C320.702,250.143 334.117,237.536 343.34,223.014L344.286,234.971C345.87,238.688 346.881,238.552 347.203,233.768C346.769,226.272 347.047,218.795 348.678,211.351C348.372,210.48 347.844,209.21 346.827,206.878C348.813,204.602 349.179,201.951 348.07,198.959C348.958,199.09 349.449,198.901 350.52,197.183C349.745,194.395 349.194,193.271 348.115,193.068C350.407,191.295 352.776,189.737 355.409,188.905C359.213,191.112 361.427,190.498 362.551,187.954C362.117,185.746 360.366,184.92 357.525,185.239C355.736,185.479 352.778,187.495 347.798,190.878C348.109,188.194 349.626,184.802 351.575,181.155C354.422,181.036 355.645,179.391 356.129,177.052C354.56,175.626 353.046,175.043 351.766,178.068C348.607,182.899 346.798,187.91 344.451,192.825ZM433.561,215.195L413.753,227.746L421.774,240.406L441.583,227.854L433.561,215.195ZM162.551,185.158L142.742,197.709L150.764,210.369L170.572,197.817L162.551,185.158ZM187.599,170.02L167.791,182.571L175.812,195.231L195.621,182.679L187.599,170.02ZM211.44,153.541L191.632,166.092L199.654,178.752L219.462,166.2L211.44,153.541ZM237.27,136.793L217.462,149.345L225.484,162.004L245.292,149.453L237.27,136.793ZM262.053,120.188L242.244,132.739L250.266,145.399L270.074,132.847L262.053,120.188ZM286.883,103.198L267.074,115.75L275.096,128.409L294.904,115.858L286.883,103.198ZM312.594,86.463L292.786,99.015L300.808,111.674L320.616,99.123L312.594,86.463ZM338.085,69.591L318.276,82.143L326.298,94.802L346.106,82.251L338.085,69.591Z" style="fill:white;"/>
    </g>
</svg>
