<?xml version="1.0" encoding="UTF-8" standalone="no"?>
<!DOCTYPE svg PUBLIC "-//W3C//DTD SVG 1.1//EN" "http://www.w3.org/Graphics/SVG/1.1/DTD/svg11.dtd">
<svg width="100%" height="100%" viewBox="0 0 1000 1000" version="1.1" xmlns="http://www.w3.org/2000/svg" xmlns:xlink="http://www.w3.org/1999/xlink" xml:space="preserve" xmlns:serif="http://www.serif.com/" style="fill-rule:evenodd;clip-rule:evenodd;stroke-linejoin:round;stroke-miterlimit:2;">
    <g transform="matrix(1.00953,0,0,1.00953,-4.7711,-3.44542)">
        <path d="M480.645,117.218C481.929,116.661 482.643,115.276 482.352,113.907C475.968,83.883 487.072,65.572 499.377,57.557C504.345,54.321 509.446,52.777 513.476,52.955C520.873,53.281 531.728,55.894 539.598,65.1C547.734,74.619 552.53,90.961 547.902,118.417C547.732,119.428 548.1,120.454 548.873,121.126C551.487,123.398 553.23,126.081 553.359,129.309C553.36,129.328 549.844,443.887 549.844,443.887C549.831,445.086 550.546,446.173 551.652,446.634C552.758,447.096 554.034,446.841 554.877,445.989C559.911,440.9 566.824,437.655 574.534,437.409C590.511,436.899 603.895,449.456 604.405,465.432C604.454,466.953 604.384,468.449 604.204,469.914C604.03,471.336 604.904,472.676 606.276,473.089C607.648,473.502 609.117,472.867 609.756,471.585C623.67,443.68 632.062,401.306 632.963,339.775C638.139,341.706 642.888,341.968 647.17,340.637C652.567,338.96 657.347,334.706 661.258,327.509C665.389,319.909 668.63,308.852 670.852,294.122C692.912,323.507 691.37,358.404 688.68,383.376C685.982,408.417 674.371,429.101 654.912,445.954C665.066,421.488 669.744,397.538 667.856,374.225C667.768,373.14 667.089,372.193 666.09,371.762C665.09,371.331 663.935,371.486 663.085,372.167L649.98,382.665C649.273,383.232 648.866,384.094 648.878,385.001C649.903,459.955 610.233,513.546 550.216,546.008C549.276,546.516 548.686,547.494 548.674,548.562C548.674,548.562 544.838,891.746 544.652,908.418C544.652,908.418 528.052,944.446 528.052,944.446C528.052,944.446 510.645,922.717 510.645,922.717C510.645,922.717 507.26,816.629 507.26,816.629C514.079,782.835 515.929,754.734 512.934,732.267C509.928,709.721 502.037,692.749 489.498,681.202C489.498,681.203 488.279,642.996 488.279,642.996C488.239,641.727 487.388,640.627 486.17,640.268C370.994,606.371 304.939,511.203 310.112,326.598C310.112,326.598 367.899,265.002 367.899,265.002C360.231,320.392 363.689,370.015 382.877,411.412C383.407,412.555 384.605,413.233 385.857,413.1C387.11,412.967 388.138,412.051 388.415,410.823C393.387,388.796 412.738,372.013 436.345,371.26C451.501,370.776 465.326,376.998 474.968,387.247C475.807,388.138 477.109,388.418 478.238,387.949C479.368,387.48 480.09,386.361 480.051,385.138L476.524,274.635C483.744,269.575 487.109,259.826 486.671,249.843C486.235,239.899 482.042,229.883 474.819,224.429C474.82,224.43 465.257,132.101 465.257,132.101C465.201,129.158 466.789,126.58 469.209,124.267C472.096,121.507 476.151,119.166 480.645,117.218ZM486.436,585.243C486.399,584.065 485.661,583.023 484.562,582.595C440.966,565.653 403.635,539.408 368.826,509.422C367.71,508.46 366.055,508.473 364.953,509.451C363.852,510.43 363.644,512.072 364.467,513.294C388.956,549.649 423.63,582.557 482.98,607.069C483.903,607.45 484.956,607.337 485.777,606.769C486.598,606.201 487.075,605.255 487.043,604.257L486.436,585.243ZM554.425,486.258C553.601,485.388 552.332,485.104 551.216,485.542C550.101,485.979 549.362,487.049 549.348,488.247L549.054,514.58C549.044,515.452 549.422,516.283 550.084,516.849C550.746,517.415 551.626,517.659 552.485,517.513C567.522,514.973 581,508.405 592.458,496.625C593.467,495.587 593.571,493.969 592.703,492.811C591.835,491.652 590.253,491.297 588.973,491.974C585.203,493.97 580.931,495.158 576.382,495.303C567.775,495.578 559.921,492.059 554.425,486.258ZM482.317,456.152C482.278,454.93 481.486,453.859 480.329,453.463C479.172,453.067 477.89,453.429 477.11,454.371C468.141,465.215 454.741,472.305 439.585,472.789C439.433,472.794 439.28,472.798 439.128,472.801C437.874,472.828 436.776,473.646 436.391,474.84C436.006,476.033 436.421,477.339 437.423,478.093C449.69,487.32 463.686,495.651 479.546,503.011C480.472,503.44 481.555,503.359 482.406,502.796C483.258,502.233 483.757,501.269 483.724,500.249L482.317,456.152ZM535.215,114.198C536.119,114.483 537.104,114.315 537.862,113.747C538.621,113.179 539.059,112.281 539.04,111.333C538.662,92.459 535.081,80.558 530.182,74.085C526.387,69.072 521.76,66.99 516.933,67.127C502.602,67.533 493.945,76.772 492.799,109.277C492.767,110.185 493.156,111.056 493.854,111.639C494.551,112.221 495.479,112.448 496.366,112.254C500.944,111.254 505.254,110.665 508.692,110.523C515.901,110.225 526.192,111.356 535.215,114.198Z" style="fill:white;"/>
    </g>
</svg>
