<?xml version="1.0" encoding="UTF-8" standalone="no"?>
<!DOCTYPE svg PUBLIC "-//W3C//DTD SVG 1.1//EN" "http://www.w3.org/Graphics/SVG/1.1/DTD/svg11.dtd">
<svg width="100%" height="100%" viewBox="0 0 1000 1000" version="1.1" xmlns="http://www.w3.org/2000/svg" xmlns:xlink="http://www.w3.org/1999/xlink" xml:space="preserve" xmlns:serif="http://www.serif.com/" style="fill-rule:evenodd;clip-rule:evenodd;stroke-linejoin:round;stroke-miterlimit:2;">
    <g transform="matrix(3.96712,0,0,3.96575,-1916.5,-1311.58)">
        <path d="M636.535,362.325L642,355C644.186,350.755 641.75,346.031 639,344.842C636.699,343.847 630.032,341.111 628,347L520,556C516.223,563.703 519.989,567.306 522,568.932C524.499,570.953 530.958,571.655 535,564L538,558C608.219,568.855 639.965,526.422 660,498.232C683.325,465.411 702.616,409.685 636.535,362.325ZM642.49,379.321C645.103,381.317 647.515,383.35 649.739,385.416L562.746,548.238C559.509,548.467 556.322,548.451 553.207,548.16L642.49,379.321ZM651.149,386.755C653.363,388.904 655.378,391.086 657.207,393.295L576.948,545.813C572.926,546.87 568.921,547.631 564.976,548.042L651.149,386.755ZM640.971,378.182L551.205,547.934C547.333,547.419 543.581,546.46 540,545L630,371C633.984,373.326 637.633,375.724 640.971,378.182ZM658.488,394.886C660.318,397.223 661.943,399.585 663.379,401.968L591.121,540.948C587.243,542.576 583.332,543.984 579.429,545.124L658.488,394.886ZM664.494,403.889C666.105,406.775 667.448,409.686 668.548,412.611L607.809,532.551C603.265,535.212 598.587,537.646 593.85,539.766L664.494,403.889ZM669.41,415.058C670.938,419.693 671.877,424.352 672.328,428.985L621.303,523.746C617.933,526.18 614.429,528.526 610.829,530.74L669.41,415.058ZM642.303,357.972L639,362C675.627,385.999 687.945,418.593 683.454,450C679.638,476.69 660.644,504.919 637.079,530C672.975,511.95 696.689,475.57 699.539,445.902C702.164,418.567 690.104,380.637 642.303,357.972ZM672.577,432.478C673.578,454.364 664.173,475.366 655.109,490C649.266,499.433 638.305,510.872 624.848,521.117L672.577,432.478Z" style="fill:white;"/>
    </g>
</svg>
