<?xml version="1.0" encoding="UTF-8" standalone="no"?>
<!DOCTYPE svg PUBLIC "-//W3C//DTD SVG 1.1//EN" "http://www.w3.org/Graphics/SVG/1.1/DTD/svg11.dtd">
<svg width="100%" height="100%" viewBox="0 0 1000 1000" version="1.1" xmlns="http://www.w3.org/2000/svg" xmlns:xlink="http://www.w3.org/1999/xlink" xml:space="preserve" xmlns:serif="http://www.serif.com/" style="fill-rule:evenodd;clip-rule:evenodd;stroke-linejoin:round;stroke-miterlimit:2;">
    <g transform="matrix(1.875,0,0,1.875,-437.5,-250)">
        <path d="M395,355L439.405,369.802L500,516L560.595,369.802L605,355L500,630L395,355ZM464,364L500,296L536,364L500,454L464,364ZM524.227,370.468C523.626,370.699 515.527,371.831 514.227,375.468C503.897,404.36 494.954,412.513 492.161,408.601C486.456,400.611 502.759,378.698 513.929,363.002C525.174,347.202 520.043,330.853 497.227,337.669C491.919,339.255 478.791,350.134 479.227,359.468C498.036,341.867 505.472,341.706 507.773,349.468C508.588,352.22 509.213,358.565 504.74,363.468C488.645,381.113 475.544,408.645 494.227,417.768C500.91,421.031 514.95,402.185 516.227,382.468C516.774,374.028 523.332,371.27 524.227,370.468ZM462,310C439.373,304.668 423.795,293.027 412,278C397.989,255.887 380.218,251.257 360,258C380.265,281.82 394.506,305.146 403,328L446,348L440,359L388.5,339.5C365.495,280.267 314.491,237.131 260,196L320,196L410,248C413.633,261.799 420.989,273.63 433,283L500,170L567,283C579.011,273.63 586.367,261.799 590,248L680,196L740,196C685.509,237.131 634.505,280.267 611.5,339.5L560,359L554,348L597,328C605.494,305.146 619.735,281.82 640,258C619.782,251.257 602.011,255.887 588,278C576.205,293.027 560.627,304.668 538,310L500,251L462,310Z" style="fill:white;"/>
    </g>
</svg>
