<?xml version="1.0" encoding="UTF-8" standalone="no"?>
<!DOCTYPE svg PUBLIC "-//W3C//DTD SVG 1.1//EN" "http://www.w3.org/Graphics/SVG/1.1/DTD/svg11.dtd">
<svg width="100%" height="100%" viewBox="0 0 1000 1000" version="1.1" xmlns="http://www.w3.org/2000/svg" xmlns:xlink="http://www.w3.org/1999/xlink" xml:space="preserve" xmlns:serif="http://www.serif.com/" style="fill-rule:evenodd;clip-rule:evenodd;stroke-linejoin:round;stroke-miterlimit:2;">
    <g transform="matrix(2.40112,0,0,2.40112,-520.738,-420.702)">
        <path d="M493.477,235.442L480.902,235.286L487.821,224.212L461.722,226.547L454.803,215.409L437.622,218.433L424.312,224.637L404.55,209.161L402.871,219.844L378.866,220.294L368.887,231.983L359.372,234.362L342.604,217.224L325.963,218.566L317.659,255.896L302.636,262.614L281.676,274.641L287.34,282.607L275.392,288.056L288.105,295.694L273.802,307.856L268.484,325.078L252.775,343.796L267.352,348.005L260.027,359.003L271.362,367.483L260.539,368.961L264.549,374.389L237.696,398.084L251.093,402.631L242.124,415.777L257.622,415.777L243.05,437.977L256.534,443.984L262.152,454.262C272.208,467.851 287.987,472.635 306.184,473.698C325.715,476.692 338.984,482.169 342.127,491.658L362.136,507.363C363.553,490.936 367.399,483.554 367.399,483.554C367.399,483.554 374.223,498.157 378.213,519.983C377.89,533.395 384.792,544.121 403.71,550.379C418.776,561.596 433.841,558.768 448.906,550.002C466.169,546.567 473.35,530.9 474.989,518.535C474.541,497.331 477.73,483.352 477.73,483.352C477.73,483.352 484.647,488.778 490.324,506.931L507.148,500C516.142,489.37 531.284,487.669 546.572,486.181C573.004,473.655 587.303,458.017 588.275,438.96L612.521,424.055L601.913,423.894L612.449,410.82L602.627,400.499L609.581,382.554L601.198,380.491L609.113,362.296L591.532,351.111L606.803,336.916L580.773,334.995L589.264,323.015L582.581,320.989L585.205,315.538L583.351,302.945L560.596,295.847L562.033,279.813L552.049,279.813L556.394,268.563L534.604,260.09L534.11,238.899L518.353,220.75L493.477,235.442ZM423.634,491.919C417.1,491.822 403.219,499.948 403.508,507.888C405.807,516.704 418.575,522.29 425.109,522.386C431.643,522.483 441.581,516.586 442.711,508.467C443.336,499.073 430.168,492.015 423.634,491.919ZM492.25,411.48C489.611,416.749 485.789,421.054 480.634,424.274C475.48,427.494 468.992,429.63 461.025,430.56C467.427,415.031 477.944,408.919 492.25,411.48ZM359.015,410.886C366.558,409.422 372.767,410.311 377.624,413.581C382.481,416.851 385.987,422.501 388.127,430.56C372.959,430.318 362.948,424.115 359.015,410.886ZM374.909,276.002C358.866,286.302 342.377,292.65 325.35,294.225C323.759,277.745 323.857,260.813 327.806,242.852C330.092,236.75 334.401,234.308 341.475,236.872L374.909,276.002ZM484.563,276.294C496.873,284.171 511.23,288.754 527.552,290.176L522.669,246.146C520.013,239.047 515.947,235.615 509.919,237.292C497.997,245.43 488.404,256.832 484.563,276.294Z" style="fill:white;"/>
    </g>
</svg>
