<?xml version="1.0" encoding="UTF-8" standalone="no"?>
<!DOCTYPE svg PUBLIC "-//W3C//DTD SVG 1.1//EN" "http://www.w3.org/Graphics/SVG/1.1/DTD/svg11.dtd">
<svg width="100%" height="100%" viewBox="0 0 1000 1000" version="1.1" xmlns="http://www.w3.org/2000/svg" xmlns:xlink="http://www.w3.org/1999/xlink" xml:space="preserve" xmlns:serif="http://www.serif.com/" style="fill-rule:evenodd;clip-rule:evenodd;stroke-linejoin:round;stroke-miterlimit:2;">
    <g transform="matrix(2.61577,0,0,2.61577,-567.148,-1088.59)">
        <path d="M373.471,734.015C372.98,732.289 382.368,723.499 389.6,707.015C414.07,651.241 491.612,560.143 483.471,560.015C475.14,559.885 436.759,559.827 396.492,593.543C357.829,625.915 313.048,675.03 293.471,684.484C284.927,688.61 276.224,688.16 269.471,687.015C234.262,693.663 223.311,701.95 253.471,713.015C269.942,718.675 286.902,728.973 303.471,738.608C329.259,753.604 356.473,758.056 378.471,752.015C363.892,751.358 458.962,722.785 473.471,717.015C479.642,714.561 390.471,714.015 390.471,714.015L373.471,734.015ZM271.406,714.05C271.839,713.373 273.565,713.705 275.257,714.789C276.948,715.874 277.969,717.304 277.536,717.981C277.102,718.657 275.376,718.326 273.684,717.241C271.993,716.157 270.972,714.727 271.406,714.05ZM580,640C554.031,653.769 537.653,675.61 535,709C532.642,698.385 527.027,678.758 533,668.812C539.328,658.277 562.346,648.207 580,640ZM539.023,669.172C539.268,669.3 539.154,669.999 538.769,670.732C538.384,671.465 537.873,671.956 537.629,671.828C537.384,671.7 537.498,671.001 537.883,670.268C538.268,669.535 538.779,669.044 539.023,669.172ZM464.019,489.334C494.575,477.328 525.222,472.206 556.019,478.334C564.371,478.124 565.366,476.613 562.019,474.334C533.761,458.355 508.645,455.806 488.019,466.334C471.787,474.632 457.331,486.752 444.019,501.334C437.742,506.781 439.663,509.468 444.019,511.334C454.354,517.723 465.234,526.162 479.019,529.468C495.627,533.451 507.651,541.066 524.019,546.334C532.747,549.692 536.165,548.105 534.019,541.334C523.565,525.118 512.654,509.029 506.125,495.334C503.152,489.099 506.579,483.055 512.019,479.334C497.183,480.424 480.959,484.191 464.019,489.334ZM457.162,502.073C456.988,501.264 458.379,500.276 460.267,499.868C462.155,499.46 463.83,499.785 464.005,500.594C464.179,501.404 462.788,502.392 460.9,502.8C459.012,503.208 457.337,502.882 457.162,502.073Z" style="fill:white;"/>
    </g>
</svg>
