<?xml version="1.0" encoding="UTF-8" standalone="no"?>
<!DOCTYPE svg PUBLIC "-//W3C//DTD SVG 1.1//EN" "http://www.w3.org/Graphics/SVG/1.1/DTD/svg11.dtd">
<svg width="100%" height="100%" viewBox="0 0 1000 1000" version="1.1" xmlns="http://www.w3.org/2000/svg" xmlns:xlink="http://www.w3.org/1999/xlink" xml:space="preserve" xmlns:serif="http://www.serif.com/" style="fill-rule:evenodd;clip-rule:evenodd;stroke-linejoin:round;stroke-miterlimit:2;">
    <g transform="matrix(3.69776,0,0,3.69776,-696.227,-1386.99)">
        <path d="M296,632C279.064,629.096 264.201,621.755 252,611L252,607L258,607C260.873,602.333 263.293,597.667 265,593C271.708,592.01 276.509,592.059 276,595C276.884,594.041 278.287,593.487 280,593.283C282.017,593.042 284.464,593.285 287,593.921C289.161,594.462 290.249,595.264 290,597C290.726,595.763 291.916,595.478 293.5,595.474C295.803,595.468 297.585,595.797 299,596.397C300.848,597.182 302.069,598.43 303,600C304.645,597.379 306.527,595.566 308.5,595.566C312.35,595.566 315.689,595.545 318,595.545C320.311,595.545 321.412,597.827 323,600L324,600C325.588,597.827 326.689,595.545 329,595.545C331.311,595.545 334.65,595.566 338.5,595.566C340.473,595.566 342.355,597.379 344,600C344.931,598.43 346.152,597.182 348,596.397C349.415,595.797 351.197,595.468 353.5,595.474C355.084,595.478 356.274,595.763 357,597C356.751,595.264 357.839,594.462 360,593.921C362.536,593.285 364.983,593.042 367,593.283C368.713,593.487 370.116,594.041 371,595C370.491,592.059 375.292,592.01 382,593C383.707,597.667 386.127,602.333 389,607L395,607L395,611C382.799,621.755 367.936,629.096 351,632L296,632ZM408.5,521.87C405.731,535.042 398.231,547.419 386,559L377,559L377,570C380.283,581.097 383.755,592.296 390,605L398,605C404.59,597.87 409.972,586.387 409,575L408.5,521.87ZM238.5,521.87C241.269,535.042 248.769,547.419 261,559L270,559L270,570C266.717,581.097 263.245,592.296 257,605L249,605C242.41,597.87 237.028,586.387 238,575L238.5,521.87ZM368.07,558.761C368.848,557.007 369.501,555.253 370,553.5C370,553.5 371.875,554.256 372.5,555C373.237,555.877 374.423,558.761 374.423,558.761L374.459,558.848C375.93,562.546 376.029,565.076 374.5,565.673C369.645,567.57 365.847,568.135 363.505,567.5C361.795,567.036 360.861,565.933 360.857,564.241C360.918,563.842 360.965,563.427 361,563C360.903,563.444 360.856,563.857 360.857,564.241C360.492,566.666 359.643,568.523 358,568.912C353.633,569.947 347.176,569.779 344.861,569.5C343.197,569.299 341.94,568.073 341,567C338.519,569.2 334.181,569.526 329,569C325.878,569 324.476,566.349 323.852,562.293L323.5,562L323.123,562.452C322.487,566.418 321.081,569 318,569C312.819,569.526 308.481,569.2 306,567C305.06,568.073 303.803,569.299 302.139,569.5C299.824,569.779 293.367,569.947 289,568.912C287.357,568.523 286.508,566.666 286.143,564.241C286.144,563.857 286.097,563.444 286,563C286.035,563.427 286.082,563.842 286.143,564.241C286.139,565.933 285.205,567.036 283.495,567.5C281.153,568.135 277.355,567.57 272.5,565.673C270.959,565.071 271.072,562.506 272.577,558.761L368.07,558.761ZM355.365,482.801C356.885,492.638 362.976,500 370.25,500C371.908,500 373.505,499.617 375,498.91L375,499.5L374.995,499.546C374.603,503.45 372.988,507.378 372.269,510C371.29,513.57 376.315,516.704 372.767,523.5C370.272,528.281 371.486,533.77 370.022,538C368.854,541.372 368.446,542.823 369.962,548C370.542,549.983 368.402,553.319 367.361,556.286L261.534,556.286C248.154,542.832 241.459,529.268 239.054,515.633L239.054,463C240.702,459.603 242.351,456.936 244,455L244,401C260.483,393.072 296.343,388.61 323.5,388.61L324.138,388.611C351.215,388.68 386.646,393.134 403,401L403,455C404.649,456.936 406.298,459.603 407.946,463L407.946,515.633C405.541,529.268 398.846,542.832 385.466,556.286L374.284,556.286C374.359,554.924 374.603,552.508 374.105,549.5C373.369,545.051 373.902,539.757 374.763,534.5C375.644,529.12 375.526,523.805 377.241,519.5C379.323,514.276 378.917,509.432 377.806,507.5C376.587,505.381 376.093,499.038 378.191,497.223L378.203,497.212L378.257,496.723C382.602,492.845 385.5,485.907 385.5,478C385.5,466.637 379.516,457.275 371.851,456.12L371.818,456C370.206,452.036 369.277,448.204 369,444.5L367.5,438L367,426L362,420L365,428L365.5,439.5L366.5,449L366.909,456L366.978,456.508C361.965,458.092 357.87,463.239 356.038,470.013C358.348,466.399 362.396,464 367,464C374.175,464 380,469.825 380,477C380,484.175 374.175,490 367,490C361.909,490 357.498,487.068 355.365,482.801ZM410.5,459L410.5,515C412.692,512.83 415,508.82 415,505L415,468C415,463.69 412.564,461.105 410.5,459ZM236.5,459L236.5,515C234.308,512.83 232,508.82 232,505L232,468C232,463.69 234.436,461.105 236.5,459ZM280,456C288.417,456 295.25,465.858 295.25,478C295.25,490.142 288.417,500 280,500C271.583,500 264.75,490.142 264.75,478C264.75,465.858 271.583,456 280,456ZM282,464C289.175,464 295,469.825 295,477C295,484.175 289.175,490 282,490C274.825,490 269,484.175 269,477C269,469.825 274.825,464 282,464ZM405,402L405,454C406.356,456.025 407.504,457.205 408.5,459.5L408.5,404.5C407.437,403.526 406.244,402.729 405,402ZM242,402L242,454C240.644,456.025 239.496,457.205 238.5,459.5L238.5,404.5C239.563,403.526 240.756,402.729 242,402Z" style="fill:white;"/>
    </g>
</svg>
