<?xml version="1.0" encoding="UTF-8" standalone="no"?>
<!DOCTYPE svg PUBLIC "-//W3C//DTD SVG 1.1//EN" "http://www.w3.org/Graphics/SVG/1.1/DTD/svg11.dtd">
<svg width="100%" height="100%" viewBox="0 0 1000 1000" version="1.1" xmlns="http://www.w3.org/2000/svg" xmlns:xlink="http://www.w3.org/1999/xlink" xml:space="preserve" xmlns:serif="http://www.serif.com/" style="fill-rule:evenodd;clip-rule:evenodd;stroke-linejoin:round;stroke-miterlimit:2;">
    <g transform="matrix(3.88769,0,0,5.55556,-1030.78,-1918.06)">
        <path d="M467,436L509.5,409L509.5,390L451,426.5L392,390L392,447.5L413,434.5L413,422L435,435.5L392.5,462L392.5,481.5L451.5,445L509.5,481L509.5,424L489.5,436L489.5,449L467,436ZM387.31,406.958L387.468,425L337.647,407L298,423L368,423L368,444L299,444L336,461L387,443L387,460L336,477L278,457L278,410L338,389L387.31,406.958Z" style="fill:white;"/>
    </g>
</svg>
