<?xml version="1.0" encoding="UTF-8" standalone="no"?>
<!DOCTYPE svg PUBLIC "-//W3C//DTD SVG 1.1//EN" "http://www.w3.org/Graphics/SVG/1.1/DTD/svg11.dtd">
<svg width="100%" height="100%" viewBox="0 0 1000 1000" version="1.1" xmlns="http://www.w3.org/2000/svg" xmlns:xlink="http://www.w3.org/1999/xlink" xml:space="preserve" xmlns:serif="http://www.serif.com/" style="fill-rule:evenodd;clip-rule:evenodd;stroke-linejoin:round;stroke-miterlimit:2;">
    <g transform="matrix(2.60003,0,0,2.60003,-877.517,-955.406)">
        <path d="M562.53,551.22C568.561,549.26 582.979,544.819 590,534.203C600.48,518.356 630.306,496.921 650,495.803C667.948,494.784 691.565,482.724 696,480C708.786,472.149 700.942,438.755 695,435C672.465,420.759 577.204,451.49 584,493.994C588.211,520.33 569.758,543.723 557.168,547.357C546.947,543.035 536.009,539.716 525.687,543.735C504.254,552.081 484.924,552.054 477.541,543.762C470.443,535.792 467.448,522.957 458.126,516.402C455.384,508.807 451.032,502.409 444,498C443.115,502.945 442.374,508.146 442,514C437.714,509.453 433.38,505.8 429,503C428.019,506.206 428.029,509.69 431,514C422.339,517.511 417.015,524.143 413,532C406.281,531.176 401.72,532.024 400,535.072C396.814,540.717 400.707,567.873 424,578L420,593.039C426.468,591.69 427.436,605 427.436,605C428.727,604.313 428.858,608.713 427,612C429.118,612.748 431.458,613.366 434,613.856C436.77,614.389 439.779,612.879 443,615C447.171,646.994 444.933,669.221 438,671.631C422.195,677.125 425.894,694.577 450,685.475C458.525,682.256 470.378,664.413 477,631C490.134,636.996 510.547,637.397 532,637L545,628C554.971,632.559 561.37,635.722 569,635.015C580.431,633.957 588.308,622.806 601,613C609.16,618.373 618.282,624.465 628,631C645.488,634.67 643.083,618.155 642.278,615C641.766,612.99 638.798,611.941 633,612C621.375,598.55 610.662,584.947 602,571C598.657,567.407 595.758,565.753 591,566C585.279,566.297 580.324,565.312 576,563.274C570.623,560.739 567.056,556.208 562.53,551.22ZM420,582.738L417,597C420.628,594.492 423.517,596.477 425,607C425.438,609.228 424.419,612.474 423,616C405.757,614.998 388.778,613.274 372,611C359.207,606.536 355.656,597.636 357,595.738C358.006,594.318 362.624,594.715 371,597L420,582.738ZM605.912,571.79C606.315,568.305 595.818,561.693 590,563C581.586,564.89 570.361,555.081 571,555C580.191,553.256 587.754,546.865 593,539C598.644,535.946 601.304,539.766 605,541.391C622.859,549.242 644.829,547.236 657,552C659.632,553.03 653.994,561.532 649,562C629.534,563.824 607.478,564.918 605.912,571.79ZM421.757,558.243C421.757,558.243 422.981,559.651 424.603,561.397C425.212,562.053 425.873,562.759 426.558,563.442C427.243,564.125 427.952,564.783 428.608,565.392C430.354,567.012 431.757,568.243 431.757,568.243C431.891,568.378 432.109,568.378 432.243,568.243C432.378,568.109 432.378,567.891 432.243,567.757C432.243,567.757 431.012,566.354 429.392,564.608C428.783,563.952 428.125,563.243 427.442,562.558C426.759,561.873 426.053,561.212 425.397,560.603C423.651,558.981 422.243,557.757 422.243,557.757C422.109,557.622 421.891,557.622 421.757,557.757C421.622,557.891 421.622,558.109 421.757,558.243ZM421.814,549.29C421.814,549.29 423.588,550.584 425.896,552.172C426.764,552.769 427.704,553.411 428.662,554.026C429.62,554.64 430.597,555.225 431.5,555.766C433.904,557.206 435.814,558.29 435.814,558.29C435.974,558.392 436.187,558.346 436.29,558.186C436.392,558.026 436.346,557.813 436.186,557.71C436.186,557.71 434.407,556.423 432.1,554.834C431.232,554.237 430.295,553.591 429.338,552.974C428.381,552.358 427.407,551.769 426.504,551.228C424.1,549.787 422.186,548.71 422.186,548.71C422.026,548.608 421.813,548.654 421.71,548.814C421.608,548.974 421.654,549.187 421.814,549.29ZM444.017,545.656C444.017,545.656 441.388,545.395 438.028,545.139C436.765,545.043 435.399,544.943 434.031,544.876C432.663,544.809 431.294,544.777 430.028,544.747C426.659,544.667 424.017,544.656 424.017,544.656C423.827,544.647 423.666,544.793 423.656,544.983C423.647,545.173 423.793,545.334 423.983,545.344C423.983,545.344 426.613,545.597 429.972,545.853C431.236,545.95 432.601,546.054 433.969,546.124C435.337,546.194 436.705,546.23 437.972,546.261C441.34,546.341 443.983,546.344 443.983,546.344C444.173,546.353 444.334,546.207 444.344,546.017C444.353,545.827 444.207,545.666 444.017,545.656ZM408.21,534.41C408.087,536.197 407.58,537.929 406.706,539.61C405.832,541.291 404.591,542.92 403,544.5C400.007,537.754 402.3,534.789 408.21,534.41ZM421,536C431.924,532.635 430.663,524.712 430.047,523.5C429.578,522.575 425.931,519.269 424,524.5C427.776,521.96 426.677,530.076 422.5,529C421.616,531.135 421.013,533.415 421,536ZM438.5,514.5C436.259,511.711 434.013,509.408 432,507.5C432.587,509.015 433.722,510.539 434,513C435.5,513.189 437,513.794 438.5,514.5ZM452,514C451.935,509.318 449.928,506.301 446.5,504.5C447.992,507.408 448.829,510.486 448,514C449.308,513.772 450.625,513.62 452,514Z" style="fill:white;"/>
    </g>
</svg>
