<?xml version="1.0" encoding="UTF-8" standalone="no"?>
<!DOCTYPE svg PUBLIC "-//W3C//DTD SVG 1.1//EN" "http://www.w3.org/Graphics/SVG/1.1/DTD/svg11.dtd">
<svg width="100%" height="100%" viewBox="0 0 1000 1000" version="1.1" xmlns="http://www.w3.org/2000/svg" xmlns:xlink="http://www.w3.org/1999/xlink" xml:space="preserve" xmlns:serif="http://www.serif.com/" style="fill-rule:evenodd;clip-rule:evenodd;stroke-linejoin:round;stroke-miterlimit:2;">
    <g transform="matrix(4.6875,0,0,4.6875,-1396.09,-2003.12)">
        <path d="M403.955,510.002C397.542,500.325 389.947,493.707 382,488C382.713,479.437 384.275,471.079 387,463C389.718,459.244 393.384,456.577 398,455C395.212,451.731 393.161,447.778 392,443C394.364,440.872 397.367,439.049 402,438C402.971,439.712 403.034,441.381 402,443C404.565,446.138 406.143,449.49 407,453C408.864,452.331 410.508,452.41 412,453C411.037,457.489 409.287,460.687 407,463C411.56,463.502 414.634,465.414 417,468C420.335,478.214 421.824,488.259 420,498C417.333,498.904 414.667,499.074 412,498C412.064,502.249 411.132,506.299 409.458,510.199C440.534,512.704 465,538.541 465,570C465,603.115 437.891,630 404.5,630C371.109,630 344,603.115 344,570C344,537.064 370.817,510.291 403.955,510.002ZM396.982,575L361.199,575C363.002,597.532 376.851,615.885 394.946,620.74C397.521,606.807 397.24,591.176 396.982,575ZM410.276,575C409.863,594.786 410.326,610.987 414.47,620.625C432.362,615.602 446.012,597.358 447.801,575L410.276,575ZM393.774,519.596C377.599,524.506 365.027,540.263 361.805,560L396.774,560C396.516,542.282 396.069,527.976 393.774,519.596ZM415.506,519.682C410.516,529.192 410.815,544.558 410.62,560L447.195,560C443.991,540.378 431.547,524.689 415.506,519.682ZM405.123,505.5C406.551,503.088 407.934,500.048 408.239,494.903C410.406,495.372 412.048,495.205 413.226,494.903C413.653,489.09 414.493,483.008 411.356,476.201C409.24,474.306 407.097,473.447 405.123,473.084C406.21,471.516 407.6,469.676 408.239,466.851C407.088,466.396 406.085,466.629 405.123,466.851C404.823,464.651 403.206,462.693 402.006,460.617C402.497,459.301 402.211,458.33 402.006,457.5C399.892,457.537 397.839,458.802 395.772,460.617C396.78,463.444 397.798,466.027 399.512,468.097C396.851,468.833 394.524,470.37 392.655,473.084C390.275,478.374 390.231,483.687 389.538,488.669C395.301,492.807 400.768,497.715 405.123,505.5ZM403.967,499.5C404.93,497.449 405.744,495.323 405.915,492.877C406.895,493.438 407.934,493.438 409.032,492.877C409.588,488.979 409.077,485.083 407.863,481.188C406.942,479.794 405.687,479.059 403.967,479.24C405.362,478.238 405.95,476.915 405.915,475.344C405.138,474.938 404.458,474.839 403.967,475.344C403.869,473.9 403.203,472.606 402.019,471.448C402.422,470.799 402.521,470.149 402.019,469.5C400.497,469.676 399.24,470.414 398.123,471.448C398.566,473.161 399.158,474.805 400.46,476.123C399.008,476.68 397.568,477.474 396.174,479.24C394.585,482.205 394.033,485.481 394.226,488.981C397.828,491.567 401.245,494.634 403.967,499.5Z" style="fill:white;"/>
    </g>
</svg>
