<?xml version="1.0" encoding="UTF-8" standalone="no"?>
<!DOCTYPE svg PUBLIC "-//W3C//DTD SVG 1.1//EN" "http://www.w3.org/Graphics/SVG/1.1/DTD/svg11.dtd">
<svg width="100%" height="100%" viewBox="0 0 1000 1000" version="1.1" xmlns="http://www.w3.org/2000/svg" xmlns:xlink="http://www.w3.org/1999/xlink" xml:space="preserve" xmlns:serif="http://www.serif.com/" style="fill-rule:evenodd;clip-rule:evenodd;stroke-linejoin:round;stroke-miterlimit:2;">
    <g transform="matrix(4.52084,0,0,4.52084,-2244.29,-1758.34)">
        <path d="M607.03,599.078L605.631,598.148C540.551,554.596 507.518,491.975 523.795,400C529.614,403.333 535.657,406.227 542.112,408.316C559.332,413.891 579.478,413.738 606.091,400.919L607,400.5L607.03,400.513L607.059,400.5L607.968,400.919C634.054,413.484 653.927,413.88 670.923,408.64C677.763,406.532 684.138,403.509 690.265,400C690.458,401.095 690.645,402.185 690.824,403.268L690.991,404.29L691.044,404.62C705.422,494.074 672.415,555.327 608.429,598.148L607.03,599.078ZM607.782,532.208L607.345,532.288C607.238,532.274 607.133,532.262 607.03,532.251C606.927,532.262 606.822,532.274 606.714,532.288L606.277,532.208C604.86,532.195 603.839,532.625 602.715,533.58C602.261,533.966 601.79,534.437 601.269,535C598.993,534.475 597.168,534.825 595.762,535.582C595.629,535.653 595.501,535.728 595.376,535.806L595.356,535.818L595.307,535.849C595.243,535.891 595.179,535.933 595.116,535.976C594.914,536.115 594.722,536.262 594.541,536.416L594.526,536.429L594.507,536.446C594.089,536.805 593.726,537.198 593.417,537.602C593.147,537.957 592.917,538.32 592.729,538.676L592.684,538.761C592.037,540.019 591.899,541.166 592.221,541.492C592.756,542.034 595.183,543.274 599.097,542.135L599.227,542.097L599.454,542.026L599.685,541.95L599.897,541.876C600.017,541.833 600.139,541.787 600.262,541.739C600.653,541.589 601.056,541.415 601.47,541.215C601.613,541.146 601.758,541.075 601.903,541C601.771,545.578 605.136,550.316 607.03,552.601C608.257,551.12 610.102,548.609 611.213,545.778L611.255,545.672L611.261,545.655C611.837,544.155 612.202,542.568 612.156,541C612.271,541.059 612.384,541.116 612.497,541.17C613.41,541.616 614.264,541.938 615.057,542.162C618.916,543.254 621.308,542.03 621.839,541.492C622.28,541.045 621.858,539.062 620.449,537.361C618.995,535.603 616.488,534.148 612.791,535C612.204,534.366 611.681,533.848 611.173,533.438C611.03,533.323 610.888,533.215 610.746,533.116C610.603,533.017 610.46,532.925 610.316,532.843C609.551,532.401 608.761,532.199 607.782,532.208ZM666.136,432.586C666.017,432.474 665.843,432.447 665.622,432.522C652.574,436.911 647.222,437.918 642.458,453C642.266,452.698 642.074,452.4 641.883,452.109L641.869,452.087L641.739,451.89C640.624,450.201 639.514,448.677 638.411,447.33C638.263,447.149 638.115,446.972 637.968,446.798L637.83,446.636C637.442,446.184 637.055,445.753 636.667,445.343C636.557,445.227 636.447,445.113 636.337,445C636.128,444.786 635.919,444.578 635.709,444.376C634.829,443.528 633.952,442.798 633.078,442.19C631.899,441.371 630.727,440.776 629.563,440.417C629.497,440.397 629.432,440.378 629.367,440.359L629.179,440.308C625.475,439.332 621.846,440.767 618.303,445L621.88,449C618.399,453.21 617.938,455.621 618.443,457.456C618.443,457.456 619.168,459.158 619.928,459.816C620.197,460.05 620.471,460.152 620.718,460C623.382,458.366 627.46,453.74 628.702,454.443C628.862,454.533 628.975,454.713 629.032,455C629.483,457.288 621.888,468.931 614.815,478L614.581,477.652L614.496,477.527C614.29,477.226 614.083,476.932 613.876,476.646L613.64,476.324C613.454,476.073 613.268,475.829 613.081,475.591C612.615,474.997 612.146,474.442 611.673,473.93C611.268,473.49 610.86,473.082 610.449,472.706C610.139,472.422 609.828,472.157 609.515,471.912C608.698,471.27 607.87,470.76 607.03,470.394C606.798,470.495 606.567,470.607 606.338,470.73L606.271,470.765C605.646,471.104 605.028,471.522 604.416,472.013C604.363,472.056 604.309,472.1 604.256,472.144C603.588,472.696 602.927,473.335 602.272,474.054C601.575,474.821 600.885,475.68 600.202,476.621L600.183,476.646L599.969,476.946C599.726,477.287 599.485,477.639 599.244,478C592.172,468.931 584.576,457.288 585.027,455C585.084,454.716 585.195,454.536 585.354,454.445C586.591,453.73 590.675,458.364 593.342,460C593.589,460.152 593.862,460.05 594.131,459.816L594.144,459.806L594.192,459.762L594.239,459.717C594.285,459.67 594.331,459.621 594.377,459.568L594.383,459.562L594.462,459.467C595.089,458.695 595.617,457.456 595.617,457.456C596.121,455.621 595.66,453.21 592.179,449L595.756,445C592.421,441.015 589.009,439.51 585.531,440.161L585.445,440.177C585.382,440.19 585.32,440.204 585.257,440.217L585.069,440.26C585.006,440.276 584.943,440.292 584.881,440.308L584.764,440.339C584.588,440.388 584.411,440.443 584.235,440.502L584.126,440.539L584.037,440.571C583.498,440.765 582.959,441.009 582.417,441.302C582.062,441.494 581.706,441.707 581.35,441.941L581.28,441.987L581.089,442.116L580.898,442.248C580.556,442.489 580.213,442.749 579.87,443.028L579.751,443.124L579.592,443.257C579.343,443.465 579.095,443.683 578.845,443.911C578.417,444.303 577.987,444.723 577.557,445.171L577.443,445.29C577.378,445.358 577.314,445.427 577.25,445.495L577.112,445.644C575.567,447.318 574.01,449.346 572.444,451.703C572.355,451.838 572.265,451.973 572.176,452.109C571.985,452.4 571.794,452.698 571.602,453C566.837,437.918 561.486,436.911 548.437,432.522C548.255,432.46 548.105,432.467 547.992,432.535C547.068,433.084 548.594,437.64 555.435,442C556.925,442.95 558.686,443.953 560.756,445C557.41,449.3 558.404,453.327 565.025,457C550.236,451.793 544.341,449.922 543.013,451.393C542.866,451.555 542.775,451.757 542.734,452C542.413,453.88 551.614,454.557 550.113,457.839C548.94,460.405 556.038,460.939 567.187,468C570.796,467.006 574.15,471.387 577.35,479C577.174,479.131 576.991,479.27 576.801,479.417C576.099,479.96 575.293,480.618 574.357,481.42L574.337,481.436C574.202,481.553 574.066,481.671 573.93,481.788L573.507,482.157C572.243,483.265 570.766,484.611 569.02,486.255C567.669,487.528 566.156,488.98 564.46,490.636L564.145,490.944L563.698,491.382C563.185,491.885 562.657,492.405 562.112,492.944L561.759,493.293L560.913,494.132L560.041,495C557.927,492.802 555.241,492.204 553.563,490.478C550.477,487.304 547.189,486.106 544.692,487.522L544.614,487.567C544.534,487.616 544.537,487.614 544.46,487.662L544.384,487.713C544.207,487.831 544.035,487.964 543.868,488.111C543.827,488.147 543.787,488.183 543.747,488.221C543.715,488.25 543.684,488.28 543.653,488.31L543.583,488.38C543.397,488.567 543.219,488.773 543.047,488.999L543.002,489.058C542.825,489.296 542.656,489.554 542.495,489.833C542.184,490.372 541.847,490.777 541.488,491.078C541.368,491.179 541.245,491.268 541.12,491.348L541.026,491.405C539.124,492.523 536.754,491.335 534.724,492C532.731,493.192 541.231,499.879 548.182,496.333L548.222,496.314C548.264,496.293 548.306,496.273 548.349,496.254C551.614,494.811 559.088,497.54 559.57,500C560.511,504.574 562.841,508.295 564.108,513C567.495,525.576 567.037,533.906 571.48,537C572.245,536.868 572.895,536.618 573.438,536.258L573.561,536.173L573.681,536.084L573.797,535.991C573.835,535.959 573.872,535.927 573.909,535.895L574.018,535.794L574.056,535.757C574.366,535.452 574.629,535.098 574.847,534.697L574.906,534.585L574.948,534.5C575.026,534.34 575.098,534.174 575.163,534C573.489,531.407 572.666,529.104 572.423,527C574.83,530 577.529,533 580.375,536C581.085,536 581.728,535.934 582.294,535.794C582.355,535.779 582.416,535.763 582.475,535.746C582.557,535.723 582.637,535.698 582.716,535.672L582.806,535.641L582.86,535.621C583.2,535.494 583.506,535.333 583.774,535.137C583.86,535.074 583.942,535.008 584.021,534.938C584.067,534.897 584.112,534.854 584.155,534.81C584.327,534.637 584.478,534.443 584.606,534.228C584.631,534.187 584.655,534.145 584.678,534.102C584.852,533.78 584.979,533.414 585.058,533C581.108,529.862 577.576,526.587 575.001,523C578.394,514.543 579.478,506.212 578.358,498C580.13,497.409 581.778,496.761 583.289,496.056L583.509,495.952C583.596,495.911 583.683,495.869 583.77,495.828L584.027,495.702L584.282,495.574L584.448,495.49C584.827,495.297 585.196,495.099 585.555,494.898C585.935,494.685 586.305,494.467 586.663,494.245C587.417,493.778 588.121,493.292 588.773,492.785L588.966,492.634L589.111,492.517C589.206,492.44 589.3,492.362 589.393,492.284C589.57,492.135 589.743,491.985 589.912,491.833C590.429,491.366 590.905,490.884 591.338,490.387L591.483,490.217L591.625,490.047L591.687,489.971C591.899,489.708 592.1,489.442 592.289,489.171L592.407,489C592.317,491.22 592.457,493.517 593.147,496C595.252,496.1 597.177,495.643 599.041,495C597.88,492 597.709,489 598.09,486L598.346,485.7L598.567,485.444C598.979,484.967 599.388,484.506 599.795,484.059L599.866,483.98L600.008,483.825C600.147,483.675 600.284,483.526 600.422,483.379C600.849,482.921 601.273,482.48 601.694,482.056C601.828,481.92 601.962,481.786 602.096,481.653C603.399,480.363 604.67,479.23 605.91,478.248L605.912,477.188L606.371,476.927C606.589,477.078 606.809,477.234 607.03,477.396L607.36,477.157C607.47,477.079 607.58,477.002 607.689,476.927L608.147,477.188L608.15,478.248C609.108,479.006 610.084,479.855 611.079,480.797L611.234,480.944L611.477,481.177C612.109,481.788 612.749,482.436 613.397,483.122C614.044,483.807 614.698,484.53 615.36,485.292C615.482,485.432 615.604,485.573 615.727,485.716L615.97,486C616.35,489 616.179,492 615.018,495C616.883,495.643 618.808,496.1 620.913,496C621.603,493.517 621.743,491.22 621.653,489L621.77,489.171C621.901,489.358 622.037,489.543 622.179,489.726L622.296,489.875L622.358,489.952C622.43,490.041 622.503,490.129 622.577,490.217L622.722,490.387C622.786,490.46 622.851,490.534 622.917,490.606C623.305,491.035 623.725,491.452 624.175,491.857L624.353,492.015C624.417,492.072 624.482,492.128 624.548,492.184L624.717,492.327L624.904,492.481L624.949,492.517C625.509,492.971 626.111,493.409 626.751,493.833C627.115,494.073 627.491,494.308 627.88,494.538C628.221,494.741 628.572,494.939 628.932,495.133L629.029,495.186L629.172,495.262C629.404,495.385 629.64,495.506 629.879,495.625L630.032,495.702L630.117,495.743C630.527,495.945 630.948,496.141 631.378,496.333C632.721,496.932 634.164,497.488 635.701,498C634.582,506.212 635.666,514.543 639.059,523C636.484,526.587 632.952,529.862 629.002,533C629.154,533.804 629.491,534.43 629.994,534.897L630.036,534.936L630.047,534.946C630.123,535.013 630.203,535.077 630.285,535.137C630.554,535.333 630.859,535.494 631.2,535.621L631.254,535.641L631.301,535.657C631.393,535.689 631.487,535.719 631.584,535.746C631.634,535.76 631.684,535.774 631.734,535.786C632.308,535.931 632.961,536 633.685,536C636.531,533 639.229,530 641.636,527C641.394,529.104 640.57,531.407 638.896,534C639.102,534.549 639.373,535.031 639.714,535.441C639.818,535.567 639.928,535.686 640.046,535.798L640.15,535.895C640.187,535.927 640.225,535.959 640.262,535.991L640.378,536.084L640.498,536.173L640.618,536.256C641.162,536.617 641.813,536.868 642.579,537C647.023,533.906 646.565,525.576 649.951,513C651.218,508.295 653.548,504.574 654.49,500C654.965,497.572 662.247,494.884 665.578,496.199L665.647,496.227L665.67,496.237C665.741,496.267 665.81,496.299 665.877,496.333C666.128,496.461 666.38,496.575 666.634,496.677L666.698,496.703C673.477,499.364 681.251,493.146 679.335,492C677.143,491.282 674.554,492.725 672.587,491.091C672.223,490.788 671.88,490.38 671.565,489.833C671.118,489.057 670.606,488.444 670.044,487.986C669.923,487.888 669.8,487.797 669.676,487.713L669.599,487.662C669.523,487.614 669.525,487.616 669.445,487.567L669.368,487.522C666.87,486.106 663.582,487.304 660.496,490.478C658.818,492.204 656.133,492.802 654.018,495C648.276,489.273 644.206,485.405 641.236,482.761C639.613,481.316 638.318,480.236 637.258,479.417C637.068,479.27 636.885,479.131 636.71,479C639.91,471.387 643.263,467.006 646.872,468C658.022,460.939 665.12,460.405 663.946,457.839C662.446,454.557 671.646,453.88 671.325,452C671.283,451.751 671.188,451.545 671.036,451.381L671,451.344C669.582,449.965 663.654,451.852 649.035,457C654.981,453.701 656.389,450.116 654.189,446.306C654.028,446.026 653.848,445.746 653.649,445.466C653.54,445.311 653.424,445.156 653.303,445C655.373,443.953 657.134,442.95 658.625,442C665.286,437.754 666.908,433.323 666.136,432.586ZM598.865,524.762C598.98,524.198 599.03,523.61 599.001,523C598.568,513.887 590.32,510.446 589.093,510.934C589.043,510.953 589.005,510.98 588.979,511.012C588.648,511.435 589.793,513.858 593.578,519C591.357,518.76 589.462,518.84 587.877,519.11C587.504,519.174 587.148,519.248 586.809,519.331C585.285,519.705 584.103,520.258 583.247,520.838L583.107,520.935L582.974,521.033L582.933,521.064C582.792,521.17 582.661,521.277 582.541,521.384L582.498,521.422C582.464,521.454 582.429,521.486 582.394,521.518L582.318,521.593C581.764,522.142 581.499,522.656 581.508,523C581.545,524.393 586.489,528.296 594.423,527L594.044,527.388C593.221,528.222 592.527,528.877 591.954,529.403C590.974,530.301 590.345,530.823 590.018,531.219C589.976,531.27 589.939,531.318 589.907,531.365L589.876,531.413C589.659,531.762 589.715,532.034 590,532.457C590.168,532.705 590.845,532.64 591.759,532.298L591.901,532.243L591.972,532.215C592.63,531.949 593.39,531.552 594.163,531.036L594.243,530.983L594.309,530.938C594.535,530.783 594.761,530.619 594.986,530.444L595.072,530.378L595.238,530.244C595.695,529.872 596.141,529.46 596.557,529.011C596.676,528.883 596.793,528.751 596.906,528.617C596.941,528.575 596.976,528.533 597.011,528.491L597.098,528.384L597.184,528.275C597.29,528.138 597.393,527.999 597.493,527.857L597.513,527.828L597.592,527.713C597.617,527.674 597.643,527.635 597.669,527.597L597.703,527.543C598.206,526.763 598.599,525.905 598.817,524.978L598.835,524.901L598.865,524.762ZM624.967,510.934C625.017,510.953 625.055,510.98 625.081,511.012C625.412,511.435 624.266,513.858 620.482,519C622.775,518.752 624.721,518.845 626.337,519.138C626.47,519.161 626.601,519.187 626.729,519.213L626.993,519.27C628.601,519.634 629.843,520.197 630.742,520.792L630.812,520.838C630.859,520.871 630.906,520.903 630.952,520.935L631.075,521.025C631.331,521.215 631.553,521.406 631.741,521.593C632.296,522.142 632.56,522.656 632.551,523C632.514,524.393 627.57,528.296 619.636,527C619.881,527.253 620.115,527.49 620.339,527.713C620.578,527.952 620.806,528.175 621.022,528.384C621.183,528.539 621.337,528.685 621.484,528.824L621.654,528.985L621.931,529.243C624.173,531.314 624.708,531.496 624.059,532.457C623.908,532.681 623.338,532.649 622.554,532.387L622.495,532.368L622.371,532.324C622.027,532.199 621.648,532.034 621.248,531.831C619.798,531.092 618.08,529.85 616.822,528.205C616.752,528.113 616.683,528.02 616.615,527.925C615.623,526.534 614.97,524.874 615.059,523C615.491,513.887 623.74,510.446 624.967,510.934ZM607.03,514.562C604.962,517.193 604.131,519.59 604.286,521.8C604.429,523.836 605.409,525.713 607.03,527.469C608.651,525.713 609.631,523.836 609.774,521.8C609.856,520.632 609.662,519.411 609.156,518.131C609.112,518.021 609.066,517.911 609.018,517.8C608.803,517.305 608.541,516.8 608.231,516.287C608.17,516.187 608.108,516.087 608.044,515.986C607.797,515.599 607.523,515.206 607.22,514.808L607.03,514.562ZM613.937,507.095C612.568,506.274 611.066,505.558 609.961,505C610.699,507.221 611.453,509.238 612.247,510.739C612.297,510.832 612.346,510.923 612.396,511.012C612.537,511.267 612.681,511.506 612.825,511.725C613.046,512.06 613.271,512.352 613.499,512.594L613.597,512.695C614.384,513.475 615.217,513.661 616.116,513C617.6,511.909 617.714,510.815 617.09,509.781L617.07,509.749L617.055,509.725C617.002,509.64 616.944,509.556 616.881,509.472L616.863,509.448C616.259,508.653 615.249,507.898 614.131,507.213L613.937,507.095ZM601.812,510.739L601.795,510.771L601.78,510.799C601.601,511.135 601.419,511.445 601.234,511.725C600.931,512.184 600.622,512.562 600.305,512.841C600.187,512.946 600.067,513.037 599.946,513.114L599.914,513.134C599.897,513.144 599.88,513.154 599.864,513.164L599.837,513.179C599.237,513.514 598.608,513.488 597.944,513C596.938,512.261 596.562,511.521 596.617,510.799C596.652,510.348 596.855,509.904 597.179,509.472C597.213,509.426 597.249,509.38 597.286,509.334C597.323,509.288 597.361,509.243 597.401,509.198L597.461,509.13C597.622,508.952 597.801,508.777 597.996,508.604C598.218,508.407 598.458,508.214 598.714,508.025C598.806,507.957 598.899,507.89 598.995,507.823C599.294,507.613 599.609,507.408 599.934,507.21C600.329,506.968 600.737,506.734 601.146,506.511L601.516,506.311L601.875,506.122C602.68,505.702 603.456,505.324 604.098,505C603.36,507.221 602.606,509.238 601.812,510.739ZM607.03,482.953L606.844,483C606.801,483.018 606.757,483.04 606.712,483.066C606.309,483.296 605.824,483.817 605.33,484.538C605.24,484.671 605.149,484.809 605.058,484.954C603.335,487.709 601.666,492.68 603.147,496C603.523,495.383 603.903,494.812 604.286,494.286L604.328,494.228L604.475,494.031C604.612,493.849 604.75,493.672 604.888,493.501L605.012,493.348C605.07,493.28 605.127,493.211 605.184,493.143L605.236,493.084C605.448,492.836 605.662,492.603 605.877,492.383L605.878,491.997L606.864,491.214L607.03,491.342L607.196,491.214L608.182,491.997L608.183,492.383C608.981,493.2 609.766,494.206 610.538,495.403L610.577,495.464L610.745,495.729L610.913,496C612.882,491.586 609.284,484.256 607.393,483.093C607.332,483.055 607.273,483.024 607.215,483L607.03,482.953Z" style="fill:white;"/>
    </g>
</svg>
