<?xml version="1.0" encoding="UTF-8" standalone="no"?>
<!DOCTYPE svg PUBLIC "-//W3C//DTD SVG 1.1//EN" "http://www.w3.org/Graphics/SVG/1.1/DTD/svg11.dtd">
<svg width="100%" height="100%" viewBox="0 0 1000 1000" version="1.1" xmlns="http://www.w3.org/2000/svg" xmlns:xlink="http://www.w3.org/1999/xlink" xml:space="preserve" xmlns:serif="http://www.serif.com/" style="fill-rule:evenodd;clip-rule:evenodd;stroke-linejoin:round;stroke-miterlimit:2;">
    <g transform="matrix(0.906727,0,0,0.906727,45.8328,47.8021)">
        <path d="M65.5,995.005C222.365,904.178 360.706,824.496 486.093,755.324C630.608,675.599 735.211,612.283 780,580C853.542,529.879 897.373,469.001 918.771,400C934.115,350.52 940.897,296.52 932.879,240C927.69,203.423 914.03,166.265 894.721,130C867.27,78.442 873.334,37.523 880,20C843.814,66.287 826.675,135.756 834,235C837.453,215.633 839.312,199.959 845.279,190C860.177,165.136 870.884,162.275 876.613,170C922.565,231.963 881.772,341.723 830,424.155C788.44,490.326 717.341,525.418 662,531C690.513,512.062 718.006,482.38 740,437.775C754.592,408.181 772.884,366.829 783.925,310C798.454,235.215 808.717,154.918 816.427,90C817.255,83.036 816.898,75.925 819.513,70C831.645,42.511 840.375,19.673 842,4C819.277,-0.887 800.435,6.615 780,12.579C768.652,15.892 755.709,24.097 746.966,40C739.008,54.474 726.473,74.064 724.633,100C719.772,168.521 709.136,262.03 671.841,350C651.588,397.773 620.489,431.125 585,448C612.137,419.261 636.191,387.276 651.537,350C680.451,279.766 702.094,207.3 692.118,140C688.121,113.037 686.396,85.93 700,68.289C717.311,45.841 731.202,27.315 734,13C710.169,13.512 687.296,18.139 670,32.827C634.866,62.666 607.781,119.894 592.372,180C579.324,230.895 569.593,274.716 550.642,310C536.361,336.587 514.858,356.567 490,370C565.627,279.478 600.331,185.758 545,85C538.929,188.604 498.804,249.24 435,280C502.997,222.071 529.826,154.859 505,76C487.339,111.587 442.555,138.991 360,155C248.711,184.646 199.124,239.382 164,300C133.228,391.564 134.458,476.151 162,555C228.929,469.365 298.781,419.32 376,459C332.692,552.769 367.257,620.286 511,651C395.016,733.569 302.79,790.841 221,837C217.711,802.333 216.545,767.667 216,733C158.182,808.988 106.536,894.129 65.5,995.005Z" style="fill:white;"/>
    </g>
</svg>
