<?xml version="1.0" encoding="UTF-8" standalone="no"?>
<!DOCTYPE svg PUBLIC "-//W3C//DTD SVG 1.1//EN" "http://www.w3.org/Graphics/SVG/1.1/DTD/svg11.dtd">
<svg width="100%" height="100%" viewBox="0 0 1000 1000" version="1.1" xmlns="http://www.w3.org/2000/svg" xmlns:xlink="http://www.w3.org/1999/xlink" xml:space="preserve" xmlns:serif="http://www.serif.com/" style="fill-rule:evenodd;clip-rule:evenodd;stroke-linejoin:round;stroke-miterlimit:2;">
    <g transform="matrix(1.5,0,0,1.5,-340,-220.014)">
        <path d="M386.509,724.711C446.949,691.628 504.779,656.716 560,619.965C615.221,656.716 673.051,691.628 733.491,724.711C684.502,759.522 624.624,780 560,780C495.376,780 435.498,759.522 386.509,724.711ZM846.422,390.572C855.244,418.813 860,448.855 860,480C860,578.484 812.442,665.947 739.068,720.65C724.074,655.673 707.122,591.357 688.234,527.673C744.094,484.192 796.833,438.488 846.422,390.572ZM273.578,390.572C323.167,438.488 375.906,484.192 431.766,527.673C412.878,591.357 395.926,655.673 380.932,720.65C307.558,665.947 260,578.484 260,480C260,448.855 264.756,418.813 273.578,390.572ZM437.066,531.785C419.025,592.779 402.754,654.393 388.283,716.608L388.336,716.579C417.149,700.716 445.652,684.293 473.794,667.267C500.78,650.941 527.43,634.063 553.719,616.635L554.368,616.204C513.856,589.063 474.76,560.928 437.066,531.785ZM682.934,531.785C645.25,560.921 606.148,589.061 565.632,616.204C618.589,651.358 673.951,684.824 731.717,716.608C717.246,654.395 700.977,592.789 682.934,531.785ZM631.393,372.685C583.806,371.078 536.218,371.045 488.634,372.608L488.334,373.459C479.461,398.665 470.887,423.976 462.631,449.391C454.487,474.459 446.651,499.627 439.115,524.885L438.974,525.358C477.799,555.45 518.139,584.479 560,612.453C601.857,584.482 642.205,555.448 681.026,525.358C665.734,474.044 649.184,423.153 631.393,372.685ZM481.927,372.839C415.129,375.242 348.32,380.791 281.515,389.542C329.33,435.498 380.06,479.4 433.68,521.241C448.582,471.377 464.667,421.914 481.927,372.839ZM638.103,372.922C655.349,421.965 671.425,471.399 686.32,521.241C739.956,479.386 790.672,435.496 838.472,389.554C771.674,380.947 704.877,375.384 638.103,372.922ZM563.402,180.019C693.946,181.482 804.572,266.48 844.289,384.008C774.828,374.899 705.357,369.071 635.867,366.586C613.625,303.75 589.462,241.569 563.402,180.019ZM556.598,180.019C530.545,241.551 506.389,303.714 484.161,366.505C414.681,368.925 345.199,374.737 275.713,384.005C315.431,266.472 426.063,181.472 556.598,180.019ZM559.402,189.448C547.012,218.924 535.025,248.568 523.479,278.385C512.216,307.472 501.374,336.719 490.932,366.11L490.871,366.282C536.961,364.821 583.055,364.852 629.155,366.357C607.852,306.316 584.792,246.876 560,188.029L559.402,189.448Z" style="fill:white;"/>
    </g>
</svg>
