<?xml version="1.0" encoding="UTF-8" standalone="no"?>
<!DOCTYPE svg PUBLIC "-//W3C//DTD SVG 1.1//EN" "http://www.w3.org/Graphics/SVG/1.1/DTD/svg11.dtd">
<svg width="100%" height="100%" viewBox="0 0 1000 1000" version="1.1" xmlns="http://www.w3.org/2000/svg" xmlns:xlink="http://www.w3.org/1999/xlink" xml:space="preserve" xmlns:serif="http://www.serif.com/" style="fill-rule:evenodd;clip-rule:evenodd;stroke-linejoin:round;stroke-miterlimit:2;">
    <g transform="matrix(0.759372,0,0,0.759372,234.22,256.621)">
        <path d="M348.507,664.022C317.143,643.535 284.693,626.394 251.735,610.819C245.571,624.287 238.186,636.959 230.071,649.156C220.019,629.363 212.133,609.571 205.85,589.782C199.598,605.91 189.323,628.043 180,640C169.519,621.19 160.565,602.38 152.769,583.573C164.816,629.832 164.197,681.837 150,740C119.982,701.598 104.867,663.807 100.785,626.47C88.513,663.545 68.324,700 68.324,700C68.324,700 -5.723,771.036 -65.018,800C-57.695,747.366 -42.138,695.175 -21.204,644.589L-61,662L-136,604L-147,768L-212,759C-213.455,773 -212.627,787 -211,801C-243.981,775.026 -254.649,748.233 -226,720C-226.283,707.215 -218.799,694.562 -206,682C-192.828,685.456 -183.494,692.122 -178,702C-187.109,713.041 -194.259,724.081 -200,735.122L-170,740L-150,570L-60,634.607L24.851,600.198L28.047,595.937C0.521,602.806 -20,605.461 -20,605.461C-21.097,605.663 -90.439,582.539 -120,548.205C-84.157,512.336 -10.447,493.909 -10.447,493.909C-10.447,493.909 39.302,508.19 85.314,535.58C-6.49,395.954 -33.834,142.064 10,-160C70.03,-40.675 122.033,86.235 148.082,213.608C167.069,306.451 172.268,399.54 156.739,490.102C160.575,479.476 164.922,469.369 170,460C184.33,483.274 198.492,523.396 206.053,548.472C211.44,531.034 217.543,514.828 224.451,500C236.669,527.67 248.032,555.591 257.915,583.947C290.63,599.181 321.924,616.841 350,640L350.659,639.458C378.564,616.565 409.625,599.062 442.085,583.947C451.968,555.591 463.331,527.67 475.549,500C482.457,514.828 488.56,531.034 493.947,548.472C501.508,523.396 515.67,483.274 530,460C535.078,469.369 539.425,479.476 543.261,490.102C527.732,399.54 532.931,306.451 551.918,213.608C577.967,86.235 629.97,-40.675 690,-160C733.834,142.064 706.49,395.954 614.686,535.58C660.698,508.19 710.447,493.909 710.447,493.909C710.447,493.909 784.157,512.336 820,548.205C790.439,582.539 721.097,605.663 720,605.461C720,605.461 699.479,602.806 671.953,595.937L675.149,600.198L760,634.607L850,570L870,740L900,735.122C894.259,724.081 887.109,713.041 878,702C883.494,692.122 892.828,685.456 906,682C918.799,694.562 926.283,707.215 926,720C954.649,748.233 943.981,775.026 911,801C912.627,787 913.455,773 912,759L847,768L836,604L761,662L721.204,644.589C742.138,695.175 757.695,747.366 765.018,800C705.723,771.036 631.676,700 631.676,700C631.676,700 611.487,663.545 599.215,626.47C595.133,663.807 580.018,701.598 550,740C535.803,681.837 535.184,629.832 547.231,583.573C539.435,602.38 530.481,621.19 520,640C510.677,628.043 500.402,605.91 494.15,589.782C487.867,609.571 479.981,629.363 469.929,649.156C461.814,636.959 454.429,624.287 448.265,610.819C414.784,626.641 381.829,644.079 350,665L348.507,664.022Z" style="fill:white;"/>
    </g>
</svg>
