<?xml version="1.0" encoding="UTF-8" standalone="no"?>
<!DOCTYPE svg PUBLIC "-//W3C//DTD SVG 1.1//EN" "http://www.w3.org/Graphics/SVG/1.1/DTD/svg11.dtd">
<svg width="100%" height="100%" viewBox="0 0 1000 1000" version="1.1" xmlns="http://www.w3.org/2000/svg" xmlns:xlink="http://www.w3.org/1999/xlink" xml:space="preserve" xmlns:serif="http://www.serif.com/" style="fill-rule:evenodd;clip-rule:evenodd;stroke-linejoin:round;stroke-miterlimit:2;">
    <g transform="matrix(0.944833,0,0,0.944833,27.5837,27.5837)">
        <path d="M541.709,654.56C526.834,645.236 513.87,636.271 507.108,628.468C510.669,627.449 513.664,625.877 516.144,623.801C513.819,622.528 511.904,622.242 510.424,620.95C505.547,616.692 505.347,611.458 510.435,608.197C511.803,607.321 514.052,607.489 516.144,606.665C513.817,602.959 510.711,601.915 507.071,602.693L507.275,599.259C508.313,598.618 509.587,597.952 511.865,597.175C512.756,576.554 500.546,563.544 500.01,546.512L500,546.109C499.647,563.34 487.237,576.392 488.135,597.175C490.413,597.952 491.687,598.618 492.725,599.259L492.929,602.693C489.289,601.915 486.183,602.959 483.856,606.665C485.948,607.489 488.197,607.321 489.565,608.197C494.653,611.458 494.453,616.692 489.576,620.95C488.096,622.242 486.181,622.528 483.856,623.801C486.336,625.877 489.331,627.449 492.892,628.468C486.13,636.271 473.166,645.236 458.291,654.56L500,859.751L541.709,654.56ZM496.588,375.074L483.856,351.809L491.341,340.077L490.997,330.653L467.712,325.837L464.761,330.845C452.231,321.532 442.539,325.155 434.886,338.069L424.694,331.116C424.054,330.926 423.269,330.908 422.282,331.13L405.435,350.554L254.403,315.933L405.515,283.771L421.768,302.368C422.648,302.982 423.611,303.138 424.69,302.654L435.257,295.693C444.163,309.707 454.002,313.031 465.01,302.988L467.712,307.983L491.279,303.408L491.638,293.286L483.856,282.787L496.775,258.322L500,258.344L503.225,258.322L516.144,282.787L508.362,293.286L508.721,303.408L532.288,307.983L534.99,302.988C545.998,313.031 555.837,309.707 564.743,295.693L575.31,302.654C576.389,303.138 577.352,302.982 578.232,302.368L594.485,283.771L745.597,315.933L594.565,350.554L577.718,331.13C576.731,330.908 575.946,330.926 575.306,331.116L565.114,338.069C557.461,325.155 547.769,321.532 535.239,330.845L532.288,325.837L509.003,330.653L508.659,340.077L516.144,351.809L503.412,375.074L500,375.218L496.588,375.074ZM444.411,315.961C435.602,312.455 428.218,310.178 425.771,312.155L424.266,312.637L423.161,309.526C422.959,313.139 417.108,314.013 416.678,310.085L414.35,312.398L404.835,299.899L330.764,315.73L404.776,331.519L414.68,319.212L416.382,321.83C417.203,317.505 423.193,318.15 422.958,321.991L424.687,318.342L426.536,320.906C427.945,321.769 434.757,319.649 444.411,315.961ZM555.589,315.961C564.398,312.455 571.782,310.178 574.229,312.155L575.734,312.637L576.839,309.526C577.041,313.139 582.892,314.013 583.322,310.085L585.65,312.398L595.165,299.899L669.236,315.73L595.224,331.519L585.32,319.212L583.618,321.83C582.797,317.505 576.807,318.15 577.042,321.991L575.313,318.342L573.464,320.906C572.055,321.769 565.243,319.649 555.589,315.961ZM505.14,203.497L503.049,201.047L505.863,200.27L505.863,198.867C504.528,198.61 503.487,197.774 502.876,196.093C503.533,194.444 504.447,193.221 506.163,193.334L506.229,192.024L503.114,190.665L516.144,180.09L500,107.208L483.856,180.09L496.886,190.665L493.771,192.024L493.837,193.334C495.553,193.221 496.467,194.444 497.124,196.093C496.513,197.774 495.472,198.61 494.137,198.867L494.137,200.27L496.951,201.047L494.86,203.497L500,218.246L505.14,203.497ZM431.461,644.724C454.492,630.202 484.765,616.409 460.436,597.12C476.66,573.043 489.191,551.574 487.584,540.092C485.194,537.91 483.044,536.684 481.69,534.534C477.389,527.709 478.504,520.303 483.856,515.62C485.424,514.248 487.38,514.163 489.709,512.984L489.642,494.505L465.604,462.038L494.63,381.601L500,381.594L505.37,381.601L534.396,462.038L510.358,494.505L510.291,512.984C512.62,514.163 514.576,514.248 516.144,515.62C521.496,520.303 522.611,527.709 518.31,534.534C516.956,536.684 514.806,537.91 512.416,540.092C510.809,551.574 523.34,573.043 539.564,597.12C515.235,616.409 545.508,630.202 568.539,644.724L500,976.275L431.461,644.724ZM484.937,246.015L484.32,229.475L493.142,229.059L467.712,176.079L500,23.725L532.288,176.079L506.858,229.059L515.68,229.475L515.063,246.015L500,252.515L484.937,246.015Z" style="fill:white;"/>
    </g>
</svg>
