<?xml version="1.0" encoding="UTF-8" standalone="no"?>
<!DOCTYPE svg PUBLIC "-//W3C//DTD SVG 1.1//EN" "http://www.w3.org/Graphics/SVG/1.1/DTD/svg11.dtd">
<svg width="100%" height="100%" viewBox="0 0 1000 1000" version="1.1" xmlns="http://www.w3.org/2000/svg" xmlns:xlink="http://www.w3.org/1999/xlink" xml:space="preserve" xmlns:serif="http://www.serif.com/" style="fill-rule:evenodd;clip-rule:evenodd;stroke-linejoin:round;stroke-miterlimit:2;">
    <g transform="matrix(4.00055,0,0,4.00055,-2529,-46.1361)">
        <path d="M767.458,93.118C753.63,88.018 739.814,73.222 726,57C724.437,52.559 724.296,48.822 726,46C728.65,44.837 730.836,44.029 732,44C731.293,42.333 731.45,40.667 732,39C754.49,23.772 777.957,15.227 806,38C812.425,35.898 817.014,36.725 818,40.302C818.869,43.458 823.27,47.485 823.968,51C825.316,57.78 822.309,64.282 817.528,70C811.945,76.679 802.938,83.01 791,89.41C787.07,91.517 782.66,93.747 777,95C775.851,94.983 774.703,94.886 773.552,94.713C771.65,101.897 769.578,108.65 767.376,115.029C779.099,105.613 793.113,98.685 804.5,93.5C792.684,108.857 782.101,119.941 776,115.5C774.596,114.757 770.416,115.408 766.897,116.406C759.247,138.2 750.083,155.617 741,171C726.646,195.31 708,249 708,249C710.857,238.992 699.598,248.16 727.956,187.129C723.163,176.315 717.896,165.565 707.5,155.5L710,155.5C707.277,146.971 698.406,137.188 690,127.5C695.978,130.475 707.594,136.353 713,141C721.765,148.534 727.549,168.715 728.992,184.906C733.455,175.355 738.848,164.16 745.362,151C754.524,132.492 760.315,112.512 767.458,93.118Z" style="fill:white;"/>
    </g>
</svg>
