<?xml version="1.0" encoding="UTF-8" standalone="no"?>
<!DOCTYPE svg PUBLIC "-//W3C//DTD SVG 1.1//EN" "http://www.w3.org/Graphics/SVG/1.1/DTD/svg11.dtd">
<svg width="100%" height="100%" viewBox="0 0 1000 1000" version="1.1" xmlns="http://www.w3.org/2000/svg" xmlns:xlink="http://www.w3.org/1999/xlink" xml:space="preserve" xmlns:serif="http://www.serif.com/" style="fill-rule:evenodd;clip-rule:evenodd;stroke-linejoin:round;stroke-miterlimit:2;">
    <g transform="matrix(11.9345,0,0,11.9345,-8498.04,-5202.98)">
        <path d="M716.248,477.798C716.262,475.312 717.198,474.637 720.215,474.637L744.745,474.637C745.939,472.695 747.115,471.417 748.425,471.417L748.433,471.417C749.749,471.419 751.06,471.87 752.421,473.395L781.576,473.395C786.931,473.395 789.882,476.325 791.659,477.857L791.618,477.893C789.836,479.435 786.889,482.319 781.576,482.319L752.421,482.319C751.06,483.844 749.749,484.295 748.433,484.297L748.425,484.297C747.115,484.297 745.939,483.02 744.745,481.078L720.215,481.078C717.174,481.078 716.248,480.392 716.248,477.857L716.248,477.798ZM745.094,477.846C745.08,476.916 743.334,476.449 741.581,476.445L741.56,476.445C739.793,476.445 738.025,476.916 738.025,477.857L738.026,477.868C738.039,478.802 739.8,479.27 741.56,479.27L741.581,479.269C743.341,479.266 745.094,478.795 745.094,477.857L745.094,477.846ZM735.056,477.835C735.025,475.978 730.973,475.981 730.957,477.846L730.957,477.868C730.973,479.74 735.057,479.737 735.057,477.857L735.056,477.835ZM723.173,477.868C723.195,479.74 728.618,479.737 728.618,477.857L728.618,477.846C728.596,475.974 723.173,475.978 723.173,477.857L723.173,477.868Z" style="fill:white;"/>
    </g>
</svg>
