<?xml version="1.0" encoding="UTF-8" standalone="no"?>
<!DOCTYPE svg PUBLIC "-//W3C//DTD SVG 1.1//EN" "http://www.w3.org/Graphics/SVG/1.1/DTD/svg11.dtd">
<svg width="100%" height="100%" viewBox="0 0 1000 1000" version="1.1" xmlns="http://www.w3.org/2000/svg" xmlns:xlink="http://www.w3.org/1999/xlink" xml:space="preserve" xmlns:serif="http://www.serif.com/" style="fill-rule:evenodd;clip-rule:evenodd;stroke-linejoin:round;stroke-miterlimit:2;">
    <g transform="matrix(0.978261,0,0,0.978261,10.8696,10.8696)">
        <path d="M40,350L250,350C250,405.192 294.808,450 350,450C405.192,450 450,405.192 450,350C450,294.808 405.192,250 350,250L350,40L650,40L650,250C594.808,250 550,294.808 550,350C550,405.192 594.808,450 650,450C705.192,450 750,405.192 750,350L960,350L960,650L750,650C750,594.808 705.192,550 650,550C594.808,550 550,594.808 550,650C550,705.192 594.808,750 650,750L650,960L350,960L350,750C405.192,750 450,705.192 450,650C450,594.808 405.192,550 350,550C294.808,550 250,594.808 250,650L40,650L40,350Z" style="fill:white;"/>
    </g>
</svg>
