<?xml version="1.0" encoding="UTF-8" standalone="no"?>
<!DOCTYPE svg PUBLIC "-//W3C//DTD SVG 1.1//EN" "http://www.w3.org/Graphics/SVG/1.1/DTD/svg11.dtd">
<svg width="100%" height="100%" viewBox="0 0 1000 1000" version="1.1" xmlns="http://www.w3.org/2000/svg" xmlns:xlink="http://www.w3.org/1999/xlink" xml:space="preserve" xmlns:serif="http://www.serif.com/" style="fill-rule:evenodd;clip-rule:evenodd;stroke-linejoin:round;stroke-miterlimit:2;">
    <g transform="matrix(3.82979,0,0,3.82979,-1349.78,-811.702)">
        <path d="M495.827,328.427L495,225L465,240L465,355C464.956,360.714 464.652,366.111 464.106,371.224C454.291,370.139 439.046,347.239 451.847,315C478.875,246.932 425,237.228 425,237.228C447.833,269.299 421.121,324.002 430,349.088C436.155,366.478 446.699,376.444 463.551,375.739C458.69,410.609 442.071,431.713 420,450C455.576,439.242 478.294,413.976 480,365C495.053,416.128 517.809,444.588 545,460C524.626,436.587 495.835,372.225 496,350L495.912,338.99C516.902,361.784 550.213,340.747 545.558,305C543.674,290.537 531.063,263.17 540,260.588C537.207,259.063 533.457,266.355 532,271C524.819,269.845 532.103,233.709 545,226C526.59,227.076 518.26,247.444 521,289C513.552,276.254 513.49,261.697 514,247C507.28,263.382 509.025,285.701 525,318C511.45,309.287 503.68,317.287 495.827,328.427ZM525,318C519.779,318.71 521.116,324.348 519.555,323.292C515.606,318.232 500.755,327.506 508,335C519.974,347.386 526.267,330.007 525,318Z" style="fill:white;"/>
    </g>
</svg>
