<?xml version="1.0" encoding="UTF-8" standalone="no"?>
<!DOCTYPE svg PUBLIC "-//W3C//DTD SVG 1.1//EN" "http://www.w3.org/Graphics/SVG/1.1/DTD/svg11.dtd">
<svg width="100%" height="100%" viewBox="0 0 1000 1000" version="1.1" xmlns="http://www.w3.org/2000/svg" xmlns:xlink="http://www.w3.org/1999/xlink" xml:space="preserve" xmlns:serif="http://www.serif.com/" style="fill-rule:evenodd;clip-rule:evenodd;stroke-linejoin:round;stroke-miterlimit:2;">
    <g transform="matrix(1.57784,0,0,1.57784,-328.052,-455.789)">
        <path d="M442.394,598.142C441.913,596.231 442.689,594.089 445,591.793C471.22,565.741 610.463,479.148 648,465.793C665.973,459.398 706.616,454.759 703,471.793L700.675,473.335L810,726.793L625,863.793C604.893,872.406 584.053,872.306 561.639,859.793L440,596.793C440.79,597.263 441.589,597.713 442.394,598.142ZM783,679.793L802,723.673C739.753,771.053 681.578,817.788 625,851.793C607.487,862.319 583.894,863.185 565,855.673L546,812.793C560.918,817.482 592.091,817.792 618,801.09C662.847,772.18 716.551,724.188 783,679.793ZM695,479.793L738,576.793C675.753,624.173 611.578,674.962 555,708.967C537.487,719.493 515.894,714.306 497,706.793L450,604.793C464.918,609.482 499.091,609.792 525,593.09C569.847,564.18 628.551,524.188 695,479.793ZM403.621,552.048C393.423,542.878 383.307,538.518 373.299,540.451C363.29,542.385 353.389,550.612 343.621,566.618C318.618,607.588 438.375,583.298 403.621,552.048ZM572,547.793C522.849,585.501 494.256,599.943 498,577.793C521.228,561.976 540.003,552.988 555,549.793L572,547.793ZM279.221,562.336C266.022,562.752 255.575,559.734 248.73,552.221C241.885,544.708 238.641,532.701 239.849,515.14C242.94,470.187 324.203,560.918 279.221,562.336ZM434.287,514.036C444.592,505.824 454.758,501.987 464.743,503.875C474.728,505.763 484.532,513.376 494.112,528.064C518.633,565.662 399.17,542.021 434.287,514.036ZM478.96,481.135C477.793,469.207 474.049,459.345 466.932,452.184C459.816,445.023 449.326,440.563 434.669,439.442C397.15,436.573 482.937,521.78 478.96,481.135ZM325.292,471.397C333.619,482.21 343.041,488.941 353.896,490.329C364.751,491.717 377.039,487.764 391.098,477.207C427.086,450.187 296.914,434.547 325.292,471.397ZM383.669,369.473C379.924,356.172 373.67,347.068 364.13,343.458C354.591,339.849 341.766,341.732 324.882,350.405C281.663,372.605 396.429,414.802 383.669,369.473Z" style="fill:white;"/>
    </g>
</svg>
