<?xml version="1.0" encoding="UTF-8" standalone="no"?>
<!DOCTYPE svg PUBLIC "-//W3C//DTD SVG 1.1//EN" "http://www.w3.org/Graphics/SVG/1.1/DTD/svg11.dtd">
<svg width="100%" height="100%" viewBox="0 0 1000 1000" version="1.1" xmlns="http://www.w3.org/2000/svg" xmlns:xlink="http://www.w3.org/1999/xlink" xml:space="preserve" xmlns:serif="http://www.serif.com/" style="fill-rule:evenodd;clip-rule:evenodd;stroke-linejoin:round;stroke-miterlimit:2;">
    <g transform="matrix(1.2588,0,0,1.2588,-22.8256,-11.895)">
        <path d="M391.313,696.025C392.408,696.172 439.14,695.529 439.926,695.857L415.644,756.192L391.313,696.025ZM195.995,338.177L274.887,310.822C325.887,453.312 412.937,559.442 533.142,632.132C416.486,667.042 299.272,657.42 189.821,563.9C152.968,532.411 120.818,492.819 97.573,442.062C162.688,434.055 193.448,397.74 195.995,338.177ZM511.654,567.706L448.517,513.062C546.418,397.649 594.804,269.197 597.653,128.752C686.214,212.323 736.488,318.645 710.222,460.192C701.378,507.852 683.166,555.491 650.831,601C611.34,548.613 564.511,540.131 511.654,567.706ZM523.874,306.784C454.812,288.954 385.986,289.999 317.358,306.951C341.287,371.091 374.672,432.549 422.179,490C467.83,431.737 503.896,371.183 523.874,306.784ZM555.756,180L540,262C391.1,234.922 255.664,257.244 132.61,325C160.704,206.518 227.645,109.818 363.361,61.792C409.058,45.621 459.421,37.573 515,42.822C489.377,103.216 505.446,148.012 555.756,180ZM674.972,144.972C671.485,143.003 641.848,116.564 643.972,110.549L701.972,86.972L674.972,144.972ZM199.411,106.589C189.829,119.016 178.241,129.808 165.411,139.589L140.411,80.589L199.411,106.589Z" style="fill:white;"/>
    </g>
</svg>
