<?xml version="1.0" encoding="UTF-8" standalone="no"?>
<!DOCTYPE svg PUBLIC "-//W3C//DTD SVG 1.1//EN" "http://www.w3.org/Graphics/SVG/1.1/DTD/svg11.dtd">
<svg width="100%" height="100%" viewBox="0 0 1000 1000" version="1.1" xmlns="http://www.w3.org/2000/svg" xmlns:xlink="http://www.w3.org/1999/xlink" xml:space="preserve" xmlns:serif="http://www.serif.com/" style="fill-rule:evenodd;clip-rule:evenodd;stroke-linejoin:round;stroke-miterlimit:2;">
    <g transform="matrix(5.09194,0,0,5.09194,-2201.89,-2512.52)">
        <path d="M571.436,548.703C610.367,577.032 628.214,626.96 614.32,680C608.364,667.514 601.21,655.366 597.273,642C588.29,611.512 581.581,578.985 567.076,555C566.571,554.164 566.055,553.337 565.53,552.522C567.499,553.193 569.431,553.689 571.32,554C571.545,552.243 571.591,550.478 571.436,548.703ZM541.506,552.18C544.478,549.784 547.594,547.516 550.843,545.392C548.695,548.402 547.776,551.445 547.32,554.5C548.502,554.537 549.658,554.506 550.78,554.384C549.482,556.497 548.246,558.678 547.065,560.92L547.09,560.963C541.363,573.583 537.431,584.043 534.059,593.829L534,593.616C529.051,609.273 524.946,625.92 520.208,642C516.27,655.366 509.117,667.514 503.16,680C491.91,637.052 501.472,596.144 526.188,567.089L526.118,566.875C527.185,565.743 528.263,564.628 529.35,563.526C532.416,560.215 535.69,557.074 539.162,554.12C539.914,553.432 540.669,552.748 541.426,552.067L541.506,552.18ZM604.566,629.849C607.782,629.063 612.096,635.389 614.192,643.967C616.289,652.545 615.379,660.148 612.162,660.934C608.946,661.72 604.632,655.394 602.535,646.816C600.439,638.238 601.349,630.635 604.566,629.849ZM513.075,629.849C509.859,629.063 505.545,635.389 503.449,643.967C501.352,652.545 502.262,660.148 505.479,660.934C508.695,661.72 513.009,655.394 515.106,646.816C517.202,638.238 516.292,630.635 513.075,629.849ZM448.536,581.888C447.584,606.203 447.321,629.914 449.502,651.478C448.626,653.231 447.761,654.987 446.92,656.75C439.979,630.251 440.96,604.529 448.536,581.888ZM556.315,581.443C564.027,604.194 565.067,630.079 558.08,656.75C557.166,654.835 556.224,652.927 555.271,651.023C557.496,629.481 557.257,605.77 556.315,581.443ZM449.094,580.257C456.806,558.277 470.79,539.289 489.804,525.453C489.65,527.228 489.696,528.993 489.92,530.75C491.81,530.439 493.741,529.943 495.711,529.272C495.185,530.087 494.67,530.914 494.164,531.75C479.659,555.735 472.95,588.262 463.968,618.75C461.027,628.731 456.293,638.034 451.604,647.304C449.817,625.013 449.345,602.641 449.094,580.257ZM547.858,562.324C550.941,567.875 553.574,573.701 555.729,579.756C555.474,602.165 554.99,624.561 553.179,646.874C548.56,637.745 543.927,628.576 541.032,618.75C538.724,610.914 536.565,602.943 534.385,595.016C538.691,584.036 543.132,573.116 547.858,562.324ZM525.621,565.373C521.476,552.943 516.679,541.259 510.461,531.134C511.583,531.256 512.739,531.287 513.92,531.25C513.464,528.195 512.546,525.152 510.398,522.142C522.413,530 532.62,539.814 540.742,551.105C535.517,555.325 530.451,560.508 525.621,565.373ZM559.32,546C562.082,548.915 565.405,551.134 569.82,552C570.31,547.082 567.733,544.066 562.82,542.5C570.63,541.8 573.85,535.968 573.82,526.5C566.614,527.129 561.448,531.087 559.32,540C557.09,534.18 553.399,530.613 546.82,531.5C547.117,537.907 549.463,542.833 556.32,544.5C551.396,545.648 550.109,549.162 549.32,553C554.011,552.813 558.211,551.85 559.32,546ZM501.92,522.75C499.158,525.665 495.835,527.884 491.42,528.75C490.93,523.832 493.507,520.816 498.42,519.25C490.611,518.55 487.39,512.718 487.42,503.25C494.626,503.879 499.792,507.837 501.92,516.75C504.15,510.93 507.841,507.363 514.42,508.25C514.124,514.657 511.777,519.583 504.92,521.25C509.844,522.398 511.132,525.912 511.92,529.75C507.229,529.563 503.029,528.6 501.92,522.75Z" style="fill:white;"/>
    </g>
</svg>
