<?xml version="1.0" encoding="UTF-8" standalone="no"?>
<!DOCTYPE svg PUBLIC "-//W3C//DTD SVG 1.1//EN" "http://www.w3.org/Graphics/SVG/1.1/DTD/svg11.dtd">
<svg width="100%" height="100%" viewBox="0 0 1000 1000" version="1.1" xmlns="http://www.w3.org/2000/svg" xmlns:xlink="http://www.w3.org/1999/xlink" xml:space="preserve" xmlns:serif="http://www.serif.com/" style="fill-rule:evenodd;clip-rule:evenodd;stroke-linejoin:round;stroke-miterlimit:2;">
    <g transform="matrix(1.77866,0,0,1.77866,-401.779,-356.563)">
        <path d="M401.29,393.59C364.846,357.131 341.406,310.802 325,280C321.856,270.562 330.861,271.861 340,274C365.595,307.644 385.536,349.177 411.482,374C412.406,374.885 413.326,375.759 414.245,376.627C436.936,351.673 469.652,336 506,336C541.042,336 572.709,350.567 595.269,373.972C620.042,342.478 639.177,304.789 663,280C677.997,273.389 679.821,277.892 676,290C656.43,326.945 635.48,363.525 609.822,392.214C620.163,408.009 626.999,426.31 629.217,446L753,446C756.863,446 760,449.137 760,453C760,456.863 756.863,460 753,460L630,460C630,511.15 598.962,555.108 554.701,574.055C608.962,587.415 662.005,628.17 715,670C718.821,682.108 714.997,686.611 700,680C641.143,629.595 581.279,583.09 509.193,583.96L508.401,583.977L507.335,583.992L507,584L506.969,583.996C506.643,583.999 506.322,584 506,584C502.236,584 498.511,583.832 494.823,583.502C450.706,585.521 385.936,625.926 310,690C300.861,692.139 296.856,689.438 300,680C348.845,627.649 402.939,591.452 464.004,576.696C416.213,559.478 382,513.703 382,460L261,460C257.137,460 254,456.863 254,453C254,449.137 257.137,446 261,446L382.783,446C384.937,426.879 391.446,409.068 401.29,393.59ZM599.881,402.677C576.046,426.223 548.19,442.813 514,447.205L514,479.5C514,481.432 512.432,483 510.5,483L503.5,483C501.568,483 500,481.432 500,479.5L500,447.087C464.533,441.042 435.553,424.513 411.688,403.385C404.01,416.14 398.847,430.574 396.884,446L473,446C476.863,446 480,449.137 480,453C480,456.863 476.863,460 473,460L396,460C396,518.695 442.071,566.715 500,569.839L500,518.5C500,516.568 501.568,515 503.5,515L510.5,515C512.432,515 514,516.568 514,518.5L514,569.575C514.796,569.548 515.591,569.528 516.385,569.515C572.233,564.276 616,517.209 616,460L541,460C537.137,460 534,456.863 534,453C534,449.137 537.137,446 541,446L615.116,446C613.117,430.287 607.796,415.604 599.881,402.677ZM586.262,384.812C566.187,363.392 537.645,350 506,350C473.728,350 444.684,363.927 424.556,386.093C450.275,408.934 474.024,423.679 507,430C540.937,426.256 565.703,408.129 586.262,384.812Z" style="fill:white;"/>
    </g>
</svg>
