<?xml version="1.0" encoding="UTF-8" standalone="no"?>
<!DOCTYPE svg PUBLIC "-//W3C//DTD SVG 1.1//EN" "http://www.w3.org/Graphics/SVG/1.1/DTD/svg11.dtd">
<svg width="100%" height="100%" viewBox="0 0 1000 1000" version="1.1" xmlns="http://www.w3.org/2000/svg" xmlns:xlink="http://www.w3.org/1999/xlink" xml:space="preserve" xmlns:serif="http://www.serif.com/" style="fill-rule:evenodd;clip-rule:evenodd;stroke-linejoin:round;stroke-miterlimit:2;">
    <g transform="matrix(7.56303,0,0,7.56303,-5047.48,-2442.41)">
        <path d="M772.428,370C775.085,363.915 774.269,360.83 772,359C769.55,362.468 768.864,369.516 762,372.7C754.652,376.109 749.758,383.595 745,395C741.119,391.964 737.207,389.712 733,395C726.083,387.529 720.848,386.813 720,398.454C704.25,398.304 690.039,391.827 677,382.397C675.557,384.482 674.609,387.565 674,392C686.828,402.204 701.956,407.093 720,408.546C720.917,420.945 725.02,418.889 730,411C733.815,415.633 738.141,416.362 743,413C754.925,421.393 771.517,421.197 793,412C792.205,396.667 789.589,381.333 778,366C776.716,367.212 775.04,368.507 772.428,370Z" style="fill:white;"/>
    </g>
</svg>
