<?xml version="1.0" encoding="UTF-8" standalone="no"?>
<!DOCTYPE svg PUBLIC "-//W3C//DTD SVG 1.1//EN" "http://www.w3.org/Graphics/SVG/1.1/DTD/svg11.dtd">
<svg width="100%" height="100%" viewBox="0 0 1000 1000" version="1.1" xmlns="http://www.w3.org/2000/svg" xmlns:xlink="http://www.w3.org/1999/xlink" xml:space="preserve" xmlns:serif="http://www.serif.com/" style="fill-rule:evenodd;clip-rule:evenodd;stroke-linejoin:round;stroke-miterlimit:2;">
    <g transform="matrix(3.61869,0,0,3.61869,-1326.16,-1302.95)">
        <path d="M510.291,495.153C508.542,494.272 500.465,494.117 499,495C492.636,524.785 461.987,530.945 444.348,530.845C424.374,530.732 400.034,530.289 388,496C381.574,493.657 379.745,488.709 380.424,486C381.032,483.579 384.176,480.713 391,481C406.631,468.069 429.246,464.888 447.246,465.551C465.002,466.204 486.737,470.049 498.5,485.5C500.319,484.998 508.99,485.165 510.791,485.653C522.554,470.202 544.289,466.357 562.045,465.704C580.045,465.042 602.661,468.223 618.291,481.153C625.116,480.866 628.26,483.733 628.867,486.153C629.546,488.863 627.717,493.811 621.291,496.153C609.257,530.442 584.917,530.886 564.943,530.999C547.304,531.099 516.655,524.938 510.291,495.153ZM567.023,474.045C530.191,473.384 516.584,486.036 518.988,498.727C521.392,511.418 539.808,524.148 567.023,523.643C616.424,522.727 641.017,475.372 567.023,474.045ZM442.269,473.891C479.1,473.23 492.707,485.882 490.303,498.574C487.899,511.265 469.483,523.995 442.269,523.49C392.867,522.573 368.274,475.219 442.269,473.891Z" style="fill:white;"/>
    </g>
</svg>
