<?xml version="1.0" encoding="UTF-8" standalone="no"?>
<!DOCTYPE svg PUBLIC "-//W3C//DTD SVG 1.1//EN" "http://www.w3.org/Graphics/SVG/1.1/DTD/svg11.dtd">
<svg width="100%" height="100%" viewBox="0 0 1000 1000" version="1.1" xmlns="http://www.w3.org/2000/svg" xmlns:xlink="http://www.w3.org/1999/xlink" xml:space="preserve" xmlns:serif="http://www.serif.com/" style="fill-rule:evenodd;clip-rule:evenodd;stroke-linejoin:round;stroke-miterlimit:2;">
    <g transform="matrix(1.46939,0,0,1.46939,-255.265,-335.714)">
        <path d="M612.832,486.75L630.073,526.909L745.5,262.5L780,262.5L647.332,567.11L728,755L623,755L594.456,688.516L565.752,754.422L566,755L461,755L432.538,688.708L352,875L317,875L415.099,648.088L398.158,608.629L283,875L248,875L380.719,568.01L300,380L405,380L433.401,446.152L462,380L567,380L595.612,446.644L676,262.5L710.5,262.5L612.832,486.75ZM531.251,674.063L548.398,714.001L577.135,648.172L559.955,608.156L531.251,674.063ZM485.221,566.849L513.937,633.736L542.675,567.907L513.82,500.698L485.221,566.849ZM450.84,486.771L467.781,526.23L496.38,460.078L479.439,420.619L450.84,486.771Z" style="fill:white;"/>
    </g>
</svg>
