<?xml version="1.0" encoding="UTF-8" standalone="no"?>
<!DOCTYPE svg PUBLIC "-//W3C//DTD SVG 1.1//EN" "http://www.w3.org/Graphics/SVG/1.1/DTD/svg11.dtd">
<svg width="100%" height="100%" viewBox="0 0 1000 1000" version="1.1" xmlns="http://www.w3.org/2000/svg" xmlns:xlink="http://www.w3.org/1999/xlink" xml:space="preserve" xmlns:serif="http://www.serif.com/" style="fill-rule:evenodd;clip-rule:evenodd;stroke-linejoin:round;stroke-miterlimit:2;">
    <g transform="matrix(5.11364,0,0,5.11364,-2771.06,-1939.21)">
        <path d="M654.389,443.185C647.841,438.257 643.604,430.42 643.604,421.602C643.604,408.397 653.105,397.394 665.637,395.06C666.957,392.699 669.23,389.022 670.59,389L670.613,389C671.974,389.022 674.246,392.7 675.566,395.06C681.3,396.128 686.4,399.011 690.246,403.09C691.316,406.945 687.728,408.699 683.246,407.561C680.481,405.069 676.976,403.38 673.102,402.867L673.102,407.207C679.974,408.395 685.209,414.392 685.209,421.602C685.209,428.812 679.974,434.809 673.102,435.996L673.102,440.336C677.389,439.768 681.225,437.761 684.107,434.816C687.907,433.893 690.495,437.637 689.521,440.853C686.662,443.663 683.181,445.842 679.306,447.163C677.608,449.409 676,452 676,455L676,557C676,559.927 677.646,562.405 679,565L662.203,565C663.557,562.405 665.203,559.927 665.203,557L665.203,455C665.203,452 663.595,449.409 661.897,447.163C661.578,447.054 661.262,446.939 660.948,446.819C659.539,447.964 657.637,449.065 655.392,449.889C652.16,451.074 648.19,451.664 644.075,451.051C638.267,450.185 632.104,446.936 627.29,439.389C625.265,436.07 623.033,433.521 620.59,431.659C617.798,429.532 614.782,428.257 611.457,427.858C605.253,427.116 598.246,429.001 590.551,432.941C590.031,433.245 589.363,433.07 589.059,432.551C588.755,432.031 588.93,431.363 589.449,431.059C597.387,425.795 604.896,422.996 611.778,423.112C616.894,423.198 621.67,424.918 626.032,428.407C628.415,430.313 630.618,432.818 632.71,435.878C636.323,441.373 640.795,443.781 645.062,444.414C648.025,444.854 650.867,444.453 653.22,443.672C653.635,443.534 654.024,443.367 654.389,443.185ZM656.207,424.102L651.867,424.102C652.983,432.534 659.669,439.22 668.102,440.336L668.102,435.996C662.041,434.949 657.254,430.162 656.207,424.102ZM668.102,407.207L668.102,402.867C659.669,403.983 652.983,410.669 651.867,419.102L656.207,419.102C657.254,413.041 662.041,408.254 668.102,407.207Z" style="fill:white;"/>
    </g>
</svg>
