<?xml version="1.0" encoding="UTF-8" standalone="no"?>
<!DOCTYPE svg PUBLIC "-//W3C//DTD SVG 1.1//EN" "http://www.w3.org/Graphics/SVG/1.1/DTD/svg11.dtd">
<svg width="100%" height="100%" viewBox="0 0 1000 1000" version="1.1" xmlns="http://www.w3.org/2000/svg" xmlns:xlink="http://www.w3.org/1999/xlink" xml:space="preserve" xmlns:serif="http://www.serif.com/" style="fill-rule:evenodd;clip-rule:evenodd;stroke-linejoin:round;stroke-miterlimit:2;">
    <g transform="matrix(1.65419,0,0,1.69772,-319.179,-306.345)">
        <path d="M500,221.733C412.685,220.055 278.073,378.093 235.907,507.085C223.231,545.86 218.64,593.921 228.541,623.51C238.116,652.123 270.528,665.228 295.317,684.621C368.671,742.007 534.979,739.128 682.008,696.892C713.029,687.98 737.923,664.841 749.892,637.185C762.856,607.229 775.864,556.204 759.795,517.154C686.484,339.007 587.315,223.411 500,221.733ZM495.214,500C539.148,500 574.817,535.578 574.817,579.399C574.817,623.221 539.148,658.798 495.214,658.798C451.28,658.798 415.611,623.221 415.611,579.399C415.611,535.578 451.28,500 495.214,500ZM617.618,299.204C611.638,348.621 616.987,391.928 611.007,441.345C543.829,455.3 468.561,456.386 382.227,439.87C378.947,387.502 387.798,338.726 389.111,288.061C411.093,263.437 459.299,229.542 500,230.895C540.701,232.248 585.373,258.895 617.618,299.204Z" style="fill:white;"/>
    </g>
</svg>
