<?xml version="1.0" encoding="UTF-8" standalone="no"?>
<!DOCTYPE svg PUBLIC "-//W3C//DTD SVG 1.1//EN" "http://www.w3.org/Graphics/SVG/1.1/DTD/svg11.dtd">
<svg width="100%" height="100%" viewBox="0 0 1000 1000" version="1.1" xmlns="http://www.w3.org/2000/svg" xmlns:xlink="http://www.w3.org/1999/xlink" xml:space="preserve" xmlns:serif="http://www.serif.com/" style="fill-rule:evenodd;clip-rule:evenodd;stroke-linejoin:round;stroke-miterlimit:2;">
    <g transform="matrix(7.75718,0,0,7.75718,-4726.03,-3719.82)">
        <path d="M668.6,544.332L668.6,529L642.119,529L642.119,517L658.53,500.589L642.702,500.589L642.702,493L666.119,493L673,485.978L679.881,493L703.298,493L703.298,500.589L687.47,500.589L703.881,517L703.881,529L677.4,529L677.4,544.332C691.32,546.454 702,558.489 702,573C702,589.006 689.006,602 673,602C656.994,602 644,589.006 644,573C644,558.489 654.68,546.454 668.6,544.332ZM673,551.75C684.728,551.75 694.25,561.272 694.25,573C694.25,584.728 684.728,594.25 673,594.25C661.272,594.25 651.75,584.728 651.75,573C651.75,561.272 661.272,551.75 673,551.75ZM677.381,503.5L695.881,521.5L677.381,521.5L677.381,503.5ZM668.619,503.5L650.119,521.5L668.619,521.5L668.619,503.5Z" style="fill:white;"/>
    </g>
</svg>
