<?xml version="1.0" encoding="UTF-8" standalone="no"?>
<!DOCTYPE svg PUBLIC "-//W3C//DTD SVG 1.1//EN" "http://www.w3.org/Graphics/SVG/1.1/DTD/svg11.dtd">
<svg width="100%" height="100%" viewBox="0 0 1000 1000" version="1.1" xmlns="http://www.w3.org/2000/svg" xmlns:xlink="http://www.w3.org/1999/xlink" xml:space="preserve" xmlns:serif="http://www.serif.com/" style="fill-rule:evenodd;clip-rule:evenodd;stroke-linejoin:round;stroke-miterlimit:2;">
    <g transform="matrix(9.75457,0,0,9.75457,-2927.44,-3643.09)">
        <path d="M334.696,393.602C355.003,388.626 375.189,399.683 379.745,418.278C384.301,436.873 371.513,456.009 351.206,460.985C330.899,465.96 310.713,454.903 306.157,436.308C301.601,417.713 314.389,398.577 334.696,393.602ZM347.508,455.376C347.409,455.452 347.317,455.533 347.231,455.616C346.679,456.156 346.385,456.854 346.141,457.693C345.957,458.328 345.797,459.049 345.527,459.838C345.438,460.1 345.577,460.384 345.838,460.473C346.1,460.562 346.384,460.423 346.473,460.162C346.748,459.356 346.914,458.62 347.102,457.972C347.293,457.315 347.497,456.754 347.93,456.331C348.364,455.908 349.019,455.635 350.066,455.496C351.402,455.318 352.206,455.33 352.764,455.586C353.135,455.756 353.375,456.044 353.611,456.428C353.899,456.899 354.17,457.502 354.558,458.234C354.687,458.478 354.99,458.571 355.234,458.442C355.478,458.313 355.571,458.01 355.442,457.766C355.042,457.011 354.761,456.392 354.463,455.906C354.113,455.334 353.733,454.93 353.181,454.677C353.146,454.661 353.109,454.645 353.071,454.63C353.509,454.384 353.862,454.09 354.143,453.754C354.911,452.836 355.167,451.572 355.074,449.971C355.058,449.696 354.822,449.485 354.546,449.501C354.271,449.517 354.06,449.753 354.076,450.029C354.151,451.328 353.999,452.367 353.376,453.112C352.746,453.866 351.658,454.294 349.955,454.447C348.25,454.6 347.095,454.414 346.26,453.816C345.422,453.216 344.923,452.221 344.475,450.845C344.39,450.583 344.108,450.439 343.845,450.525C343.583,450.61 343.439,450.892 343.525,451.155C344.052,452.777 344.69,453.922 345.677,454.629C346.18,454.989 346.777,455.24 347.508,455.376ZM320.046,430.392C324.374,429.624 328.772,433.977 329.86,440.108C330.948,446.239 328.317,451.84 323.989,452.608C319.66,453.376 315.263,449.023 314.175,442.892C313.086,436.761 315.717,431.16 320.046,430.392ZM320.606,433.563C323.704,433.013 326.851,436.128 327.63,440.516C328.408,444.903 326.526,448.911 323.428,449.46C320.331,450.01 317.184,446.895 316.405,442.508C315.626,438.121 317.509,434.113 320.606,433.563ZM364.94,420.696C369.269,419.928 373.666,424.281 374.754,430.412C375.843,436.543 373.212,442.144 368.883,442.912C364.555,443.68 360.157,439.327 359.069,433.196C357.981,427.066 360.611,421.464 364.94,420.696ZM365.501,423.867C368.598,423.317 371.745,426.433 372.524,430.82C373.303,435.207 371.42,439.215 368.323,439.765C365.225,440.314 362.078,437.199 361.299,432.812C360.521,428.425 362.403,424.417 365.501,423.867ZM362.365,395.53C366.069,397.08 369.171,399.032 371.5,401.5C376.726,397.092 382.726,394.25 390.5,395C390.184,402.422 386.048,409.514 380.666,416.5C381.966,420.943 382.272,424.871 382,428.5C390.365,420.695 396.189,408.366 397.5,388C376.324,385.685 366.694,389.256 362.365,395.53ZM344,415.421C342.766,417.53 339.743,416.34 339.613,415C339.562,414.479 339.318,413.182 340,412C341.677,410.46 343.499,411.322 344.306,411.733C348.496,413.87 348.726,417.916 345.84,420.5C344.042,422.109 339.864,422.821 336,420C334.235,418.712 333.293,413.133 335.06,409.5C335.136,409.346 335.112,408.32 338.5,406C339.627,405.228 342.629,406.226 342,408C342.101,409.885 340.195,410.548 339.452,412C338.585,413.695 338.28,415.386 340,416.5C340.106,416.569 343.022,418.052 344,415.421Z" style="fill:white;"/>
    </g>
</svg>
