<?xml version="1.0" encoding="UTF-8" standalone="no"?>
<!DOCTYPE svg PUBLIC "-//W3C//DTD SVG 1.1//EN" "http://www.w3.org/Graphics/SVG/1.1/DTD/svg11.dtd">
<svg width="100%" height="100%" viewBox="0 0 1000 1000" version="1.1" xmlns="http://www.w3.org/2000/svg" xmlns:xlink="http://www.w3.org/1999/xlink" xml:space="preserve" xmlns:serif="http://www.serif.com/" style="fill-rule:evenodd;clip-rule:evenodd;stroke-linejoin:round;stroke-miterlimit:2;">
    <g transform="matrix(5.66667,0,0,5.66038,-1846,-1778.3)">
        <path d="M410.821,423.151C397.501,436.188 393.933,462.425 385,482C387.91,464.736 391.915,447.931 398,432C392.56,439.412 385.065,449.212 375,462C386.156,444.514 396.187,426.852 405,409C402.143,398.35 401.062,387.365 402,376C389.601,359.819 383.089,342.339 385,323C395.06,328.933 397.83,340.148 408,347.041C414.591,351.508 420.872,357.294 422,362.401C424.56,373.992 423.924,385.302 427,393C426.771,390.159 426.608,387.369 427,385C434.016,383.267 435.752,381.354 440.5,381.269C443.938,381.207 446.243,383.539 447.5,387C449.529,388.161 451.44,389.723 453,392.48C450.432,391.506 447.825,390.719 445,391C442.821,391.919 440.54,393.111 438,395C436.247,402.438 428.69,414.72 423.5,416C419.501,416.987 416.082,418.752 413.112,421.121L413.715,422L415,422.5C418.453,421.275 420.548,423.104 421.076,423.5C421.535,423.844 420.536,424.117 418,425C417.992,426.7 419.128,428.581 420.5,430.5C418.046,429.55 416.168,428.075 415.5,425.5L411.5,424L410.821,423.151ZM418.215,397.132C419.272,395.512 420.077,393.779 420.644,391.919C421.01,390.716 421.277,389.461 421.449,388.155C421.572,387.223 421.648,386.265 421.67,385.281C421.691,384.346 421.662,383.388 421.596,382.407C421.503,381.031 421.33,379.611 421.09,378.144C420.867,376.785 420.58,375.389 420.248,373.95C420.22,373.813 420.087,373.725 419.95,373.752C419.813,373.78 419.725,373.913 419.752,374.05C419.999,375.492 420.194,376.891 420.346,378.247C420.509,379.699 420.614,381.1 420.661,382.455C420.695,383.412 420.695,384.345 420.671,385.256C420.646,386.209 420.593,387.137 420.497,388.042C420.364,389.306 420.155,390.523 419.856,391.699C419.391,393.523 418.72,395.245 417.785,396.868C417.712,396.987 417.749,397.143 417.868,397.215C417.987,397.288 418.143,397.251 418.215,397.132ZM442.728,390.214C442.828,390.336 442.919,390.458 443,390.582C442.906,390.46 442.815,390.337 442.728,390.214C441.111,388.246 437.028,386.525 431,385C435.69,383.549 439.124,382.606 441.454,382.65C443.902,382.696 445.271,384.423 445.606,387C444.242,386.991 443.009,387.387 442,388.468C442.01,389.05 442.317,389.632 442.728,390.214ZM431,382L427,383C426.486,378.101 425.758,373.473 425,369C434.616,352.602 438.729,350.283 444,345C435.61,358.388 428.902,371.339 431,382Z" style="fill:white;"/>
    </g>
</svg>
