<?xml version="1.0" encoding="UTF-8" standalone="no"?>
<!DOCTYPE svg PUBLIC "-//W3C//DTD SVG 1.1//EN" "http://www.w3.org/Graphics/SVG/1.1/DTD/svg11.dtd">
<svg width="100%" height="100%" viewBox="0 0 1000 1000" version="1.1" xmlns="http://www.w3.org/2000/svg" xmlns:xlink="http://www.w3.org/1999/xlink" xml:space="preserve" xmlns:serif="http://www.serif.com/" style="fill-rule:evenodd;clip-rule:evenodd;stroke-linejoin:round;stroke-miterlimit:2;">
    <g transform="matrix(1.20461,0,0,1.20461,-102.307,-51.2796)">
        <path d="M788.52,84.076L211.48,84.076L211.48,831.204L788.52,831.204L788.52,84.076ZM766.623,105.973L766.623,809.306C675.234,809.306 324.766,809.306 233.377,809.306C233.377,809.306 233.377,105.973 233.377,105.973C336.257,105.973 766.623,105.973 766.623,105.973L766.623,105.973ZM240.189,591.625C253.98,591.124 267.773,589.264 281.566,586.387C317.137,605.628 356.722,622.758 401.358,639.018C414.119,621.928 425.81,604.838 436.455,587.748C487.076,553.701 533.16,519.722 565.092,485.953C575.406,482.695 585.286,478.896 594.826,474.674C604.279,474.876 614.143,474.666 624.911,473.552C623.006,423.286 581.744,414.018 537.667,407.683L512.42,399.82C499.081,399.701 485.742,401.5 472.403,404.564L500,416.933L484.134,416.618C475.335,418.215 467.077,419.563 460.784,420.073C447.599,418.081 437.198,414.593 429.038,409.89C414.604,402.765 400.099,396.284 385.417,391.436L450.741,357.961C480.233,350.353 508.616,340.411 536.47,329.358C574.656,346.04 617.411,360.203 663.562,372.494C697.267,363.404 729.023,350.497 759.811,335.68L759.811,802.495C759.811,802.495 240.189,802.495 240.189,802.495L240.189,591.625ZM709.08,746.296C709.546,758.955 711.437,771.877 715.491,785.198L700.317,777.994C692.856,778.356 685.395,776.952 677.934,773.998C676.323,765.352 677.321,756.705 679.341,748.059C689.254,748.156 699.167,747.637 709.08,746.296ZM656.129,691.88C629.055,711.257 609.06,732.088 599.507,755.061C539.183,732.008 483.925,708.455 432.219,684.551C451.108,672.098 470.934,660.323 492.055,649.485C511.483,656.381 538.237,664.804 576.963,675.723L656.129,691.88ZM240.189,265.228L240.189,112.785L759.811,112.785L759.811,236.077C742.065,237.443 724.344,238.983 706.085,236.746C690.068,243.311 673.607,248.728 656.89,253.485C624.007,258.576 591.124,259.907 558.241,261.521C524.509,281.507 490.776,301.719 457.044,322.43L438.089,343.116L421.234,338.741C396.77,354.641 368.316,366.787 339.068,378.185C305.601,384.483 272.503,391.921 240.189,401.775L240.189,309.22C257.671,298.104 274.457,286.597 288.494,273.559C328.952,257.982 365.074,241.954 401.358,225.944C371.214,232.587 341.07,238.943 310.926,248.008C287.347,253.404 263.767,259.219 240.189,265.228Z" style="fill:white;"/>
    </g>
</svg>
