<?xml version="1.0" encoding="UTF-8" standalone="no"?>
<!DOCTYPE svg PUBLIC "-//W3C//DTD SVG 1.1//EN" "http://www.w3.org/Graphics/SVG/1.1/DTD/svg11.dtd">
<svg width="100%" height="100%" viewBox="0 0 1000 1000" version="1.1" xmlns="http://www.w3.org/2000/svg" xmlns:xlink="http://www.w3.org/1999/xlink" xml:space="preserve" xmlns:serif="http://www.serif.com/" style="fill-rule:evenodd;clip-rule:evenodd;stroke-linejoin:round;stroke-miterlimit:2;">
    <g transform="matrix(3.27761,0,0,3.65617,-531.026,-1788)">
        <path d="M263.894,654.298C265.518,654.533 267.175,654.565 268.934,654.051C272.427,653.03 274.195,649.811 275.06,646.515C276.486,641.082 275.995,635.122 275.244,629.581L275.282,629.187C277.061,628.205 278.775,627.183 280.38,626.298C284.327,624.123 288.081,621.529 292.516,620.465C296.971,619.396 302.471,615.671 304.968,613C307.105,610.714 307.75,612.888 310.748,613.222C312.882,613.461 314.915,612 317.127,612.436C322.044,613.406 326.121,616.333 331.418,616.386C334.705,616.418 337.792,615.03 341.02,614.997C344.419,614.963 347.848,616.206 351.24,615.668C354.363,615.172 357.024,613.359 360.206,613.037C362.755,612.779 365.242,613.508 367.776,613.285C370.468,613.049 372.977,611.923 375.726,611.992C377.981,612.049 380.191,612.866 382.459,612.778C388.083,612.559 394.019,608.273 399.728,610.768C406.389,613.679 405.608,619.55 408.574,624.858C410.805,628.851 414.635,631.135 418.048,633.952L419.109,634.144C420.591,639.108 420.942,646.666 419.537,651.716C418.757,654.52 416.952,656.809 416.365,659.736C415.648,663.307 416.65,666.985 416.363,670.589C416.12,673.644 414.389,676.434 413.533,679.334C412.693,682.179 412.701,685.217 411.486,687.96C409.719,691.949 406.148,694.947 403.866,698.636C401.649,702.218 400.923,706.335 398.279,709.719C395.542,713.222 392.016,715.831 389.824,719.818C387.461,724.118 384.499,727.722 382.046,731.959C380.824,734.069 380.519,736.517 379.365,738.643C376.811,743.352 372.681,744.978 367.907,746.932C366.291,747.593 364.016,748.887 362.226,748.87C358.154,748.831 353.926,745.082 350.568,743.154C349.68,742.644 348.718,742.378 347.725,742.24C347.747,742.018 347.767,741.796 347.784,741.575C347.97,739.255 347.873,736.944 347.266,734.714C346.827,733.126 346.762,731.508 346.853,729.87C346.995,727.312 347.504,724.708 347.702,722.084C347.915,719.212 349.065,716.118 349.11,713.511C349.136,711.982 348.814,710.603 347.872,709.47C345.988,707.206 344.799,704.655 344.289,701.794C343.877,699.48 343.902,696.968 344.354,694.247C346.311,694.324 348.367,694.069 350.198,693.624C352.393,693.09 354.256,692.298 355.233,691.545C355.948,690.995 356.236,690.401 356.17,689.928C356.131,689.589 355.823,689.346 355.485,689.386C355.146,689.426 354.903,689.733 354.943,690.072C354.947,690.117 354.883,690.138 354.841,690.187C354.705,690.345 354.493,690.499 354.231,690.659C353.015,691.4 350.772,692.087 348.323,692.399C347.013,692.567 345.641,692.626 344.336,692.512C344.265,692.457 344.181,692.416 344.087,692.396C343.949,692.366 343.811,692.385 343.692,692.442C342.666,692.304 341.697,692.048 340.851,691.643C339.117,690.817 336.339,690.746 333.46,691.08C330.847,691.384 328.127,691.918 326.166,692.525C325.862,692.619 325.581,692.723 325.322,692.831C322.849,693.158 319.918,695.268 317.383,695.528C314.389,695.835 311.922,694.249 309.098,694.396C305.696,694.573 302.374,697.578 298.998,698.384C297.024,698.855 294.998,698.182 293.089,698.006C293.074,697.649 293.056,697.292 293.042,696.936C292.926,694.096 292.626,691.27 292.094,688.465C294.59,686.713 296.224,684.489 297.303,681.955C298.931,678.131 299.287,673.605 299.585,669.052C299.614,668.712 299.361,668.413 299.021,668.384C298.682,668.355 298.382,668.608 298.354,668.948C297.901,673.304 297.42,677.637 295.725,681.249C294.62,683.604 292.98,685.638 290.442,687.138C290.085,687.358 289.9,687.775 289.978,688.188C290.455,690.921 290.65,693.67 290.757,696.425C290.803,697.615 290.77,698.809 290.86,699.998C290.896,700.475 290.955,700.942 291.033,701.411C291.016,702.344 290.996,703.148 290.976,703.301C290.352,708.04 290.319,715.192 288.116,719.503C286.584,722.502 284.166,724.974 282.738,728.04C280.658,732.511 280.575,740.594 274.195,741.754C271.529,742.239 268.484,739.513 265.868,738.875C265.557,738.04 265.184,737.202 264.845,736.367C264.232,734.852 263.656,733.373 263.49,732.049C263.376,731.148 263.437,730.331 263.952,729.694C265.962,727.196 266.746,725.412 266.608,723.602C266.482,721.94 265.542,720.196 263.79,717.751C262.839,716.426 261.596,714.461 261.265,712.602C261.07,711.509 261.198,710.45 262.091,709.68C263.237,708.693 263.781,707.65 263.885,706.585C264.029,705.111 263.305,703.533 261.907,701.94C258.904,698.521 252.761,694.84 247.875,691.22C247.603,691.014 247.215,691.067 247.009,691.339C246.803,691.611 246.857,691.999 247.129,692.205C251.842,695.861 257.805,699.581 260.677,702.997C261.682,704.193 262.308,705.316 262.18,706.4C262.099,707.078 261.689,707.706 260.945,708.32C259.497,709.516 259.15,711.164 259.426,712.911C259.764,715.051 261.108,717.351 262.17,718.891C263.588,720.946 264.444,722.361 264.525,723.742C264.606,725.132 263.831,726.417 262.257,728.306C261.357,729.391 261.089,730.763 261.271,732.316C261.508,734.349 262.499,736.769 263.483,739.073C259.124,740.987 256.365,746.721 250.547,746.311C249.233,746.218 247.625,742.141 247.203,741.226C244.707,735.812 241.937,731.746 237.713,727.517C232.795,722.594 227.365,717.513 223.51,711.697C221.197,708.209 218.617,701.881 218.053,697.658C217.646,694.614 218.209,691.545 217.443,688.53C215.627,681.381 212.216,674.728 210.797,667.325C210.323,664.849 211.183,662.385 210.89,659.876C210.433,655.967 209.004,652.584 209.888,648.537C210.863,644.08 214.002,640.318 216.168,636.393C217.744,633.538 217.942,631.109 216.833,628.019C216.491,627.065 215.924,626.233 215.405,625.368C215.138,624.922 214.109,624.105 214.621,624.021C215.803,623.829 218.051,625.42 219.226,625.601C222.753,626.146 231.333,629.575 236.194,631.606C235.325,632.689 235.245,634.334 235.515,635.676C235.949,637.83 237.771,639.056 238.453,641.095C239.799,645.123 238.3,649.475 241.738,652.708C242.413,653.343 243.228,653.809 244.076,654.17C246.192,655.073 248.595,655.207 250.803,654.513C251.224,654.381 251.638,654.218 252.05,654.049C252.29,657.939 253.142,661.356 255,664C250.185,673.021 249.961,679.926 252.858,685C254.854,688.499 254.271,691.362 256,694C266.566,686.777 267.693,676.902 261,663C263.054,660.545 263.676,657.312 263.894,654.298ZM345.449,742.099C345.528,741.03 345.606,739.966 345.581,738.908C345.553,737.686 345.433,736.474 345.124,735.286C344.768,733.904 344.645,732.509 344.669,731.101C344.72,728.091 345.448,725.021 345.745,721.916C346.02,719.078 347.238,716.041 347.341,713.461C347.385,712.364 347.222,711.358 346.566,710.53C344.565,708.002 343.326,705.179 342.846,702.033C342.475,699.602 342.554,696.976 343.085,694.147C342.002,694.016 340.975,693.768 340.063,693.375C338.907,692.872 337.226,692.847 335.398,693.004C332.811,693.226 329.963,693.945 327.717,694.483C327.916,695.337 327.899,696.328 327.896,696.986C327.877,701.676 326.602,706.417 329.119,710.714C333.237,717.746 335.753,722.709 336.001,730.894C336.083,733.596 336.086,739.641 338.974,741.272C340.76,742.282 343.098,742.077 345.449,742.099ZM431.48,616.546C431.014,620.505 429.795,624.248 427.822,627.73C427.055,629.082 426.264,630.431 425.401,631.724C425.109,632.161 422.044,633.55 421.828,634.015C421.65,634.4 421.968,635.267 422.057,635.664C422.381,637.109 422.74,638.527 422.933,640C423.124,641.456 423.212,642.904 423.196,644.371C423.191,644.765 422.996,645.579 423.345,645.818C424.118,646.349 427.773,644.814 428.468,644.427C430.82,643.12 432.439,640.964 433.606,638.58C436.905,631.843 434.888,623.437 431.714,616.948L431.48,616.546ZM283.243,537.693C280.574,536.2 277.665,534.47 275.456,532.357C272.971,529.981 271.395,527.302 268.123,525.826C265.345,524.572 262.219,524.62 259.284,524.033C256.355,523.447 253.758,522.148 250.696,522.027C246.902,521.877 243.376,523.334 239.717,524.109C236.627,524.763 233.416,524.725 230.383,525.65C226.901,526.712 224.248,529.028 221.13,530.802C219.116,531.947 216.713,532.596 214.805,533.891C210.974,536.494 210.274,540.87 207.569,544.289C205.136,547.365 201.313,549.807 200.335,553.854C199.35,557.926 200.77,562.003 199.962,566.039C198.919,571.252 194.487,575.226 193.91,580.617C193.384,585.529 195.827,589.841 197.516,594.277C200.873,603.096 202.851,611.937 211.202,617.637C215.409,620.508 217.209,620.239 221.992,621C226.232,621.675 230.403,622.856 234.633,623.625C238.307,624.292 241.43,626.569 245.195,627.178C249.128,627.815 255.669,627.002 259.62,627.722C264.161,628.549 266.289,626.69 270.977,626C277.82,624.992 280.542,620.089 286.973,618C292.323,616.262 297.669,615.328 299.806,610.519C300.51,608.934 302.002,607.678 302.468,605.977C303.994,600.399 301.935,598.833 301.823,593.309C301.787,591.52 302.139,589.65 301.842,587.88C301.426,585.403 300.266,583.114 300.348,580.548C300.443,577.602 301.628,574.871 301.942,571.971C302.246,569.167 301.172,566.561 300.901,563.798C300.45,559.207 301.185,554.897 298.708,550.772C296.465,547.038 293.021,545.574 289.548,543.254C287.136,541.642 285.051,539.561 282.797,537.742L283.243,537.693ZM276.146,552.689C272.086,557.223 266.266,560.884 260.149,557.616C258.645,556.812 257.357,555.633 256.412,554.215C256.26,553.987 255.528,552.738 255.433,552.741C254.42,552.765 252.903,554.131 252.109,554.738C250.51,555.958 248.575,557.113 246.545,557.395C244.255,557.713 241.804,556.931 240.234,555.222C239.594,554.525 239.104,553.671 238.67,552.834C238.628,552.754 238.312,552.011 238.273,552.016C235.886,552.333 234.79,555.703 232.32,556.05C230.539,556.3 228.723,555.043 227.402,553.978C226.018,552.864 225.283,551.548 223.465,552.992C217.596,557.655 218.875,567.813 219.119,574.056C219.197,576.052 219.18,578.011 218.993,580C218.406,586.22 213.138,591.546 215.315,598.011C216.938,602.832 220.685,606.732 224.641,609.746C229.302,613.296 234.52,616.017 240.326,617.169C245.048,618.106 249.573,617.613 254.269,616.923C256.912,616.535 260.409,616.764 262.98,616C266.812,614.862 269.806,612.171 273.408,610.517C275.875,609.384 277.756,608.515 280.21,607.392C283.929,605.691 288.119,601.519 290.013,597.937C290.752,596.54 291.589,594.897 291.827,593.3C292.728,587.244 288.174,584.11 285.137,579.856C283.876,578.091 283.087,575.96 282.702,573.83C282.208,571.09 283.214,568.377 282.728,565.693C282.092,562.178 279.608,559.222 277.889,556.162C277.294,555.104 277.499,553.387 276.616,552.579L276.146,552.689ZM252.071,595.33C248.809,592.881 247.103,590.45 252,590C255.089,589.716 255.958,590.521 255.745,591.744C255.575,592.72 254.716,593.963 253.747,595.133C253.817,595.193 253.881,595.262 253.935,595.34C254.599,596.329 255.252,597.115 255.883,597.739C256.696,598.543 257.453,599.076 258.232,599.33C260.097,599.939 261.9,599.139 263.733,597.706C263.895,597.559 264.147,597.571 264.294,597.733C264.441,597.895 264.429,598.147 264.267,598.294C263.182,599.443 262.047,600.308 260.849,600.78C259.894,601.157 258.9,601.255 257.858,601.066C258.235,607.34 255.463,610.234 254,610.437C252.336,610.667 249.799,607.421 248.319,601.851C246.67,602.072 244.827,601.591 242.818,600.353C242.624,600.253 242.547,600.013 242.647,599.818C242.747,599.624 242.987,599.547 243.182,599.647C245.398,600.579 247.24,600.709 248.741,599.954C249.337,599.654 249.848,599.186 250.331,598.59C250.95,597.825 251.485,596.828 251.935,595.581C251.97,595.491 252.016,595.407 252.071,595.33ZM222.653,591.762C226.156,591.762 229,593.661 229,596C229,598.339 226.156,600.238 222.653,600.238C219.149,600.238 216.305,598.339 216.305,596C216.305,593.661 219.149,591.762 222.653,591.762ZM282,591.762C285.503,591.762 288.347,593.661 288.347,596C288.347,598.339 285.503,600.238 282,600.238C278.497,600.238 275.653,598.339 275.653,596C275.653,593.661 278.497,591.762 282,591.762ZM267.982,572.048C267.98,571.996 267.979,571.943 267.981,571.89C267.984,571.736 268,571.585 268.018,571.436C268.031,571.331 268.046,571.232 268.065,571.134C268.153,570.666 268.247,570.3 268.291,570.113C268.296,570.091 268.305,570.071 268.311,570.054C268.267,570.019 268.25,569.995 268.317,570.011C268.327,570.014 268.321,570.03 268.311,570.054C268.376,570.106 268.5,570.18 268.5,570.18L268.32,570C268.32,569.9 268.4,569.82 268.5,569.82C268.578,569.82 268.644,569.869 268.583,570.024C268.622,569.967 268.664,569.934 268.683,570.011C268.688,570.029 268.697,570.061 268.709,570.113C268.753,570.3 268.847,570.666 268.935,571.134C268.954,571.232 268.969,571.331 268.982,571.436C269,571.585 269.016,571.736 269.019,571.89L269.003,572.24C269.757,572.427 270.438,572.703 271.016,573.054C271.061,572.958 271.118,572.845 271.191,572.716C271.237,572.636 271.283,572.56 271.344,572.484C271.381,572.437 271.421,572.391 271.468,572.353C271.591,572.251 271.724,572.175 271.855,572.107C272.128,571.965 272.338,571.903 272.453,571.858C272.486,571.845 272.519,571.846 272.515,571.835C272.433,571.609 272.645,572.145 272.645,572.145L272.522,571.833C272.595,571.765 272.709,571.769 272.777,571.841C272.845,571.914 272.841,572.028 272.645,572.145C272.645,572.145 272.707,572.143 272.748,572.136C272.755,572.115 272.758,572.1 272.765,572.103C272.803,572.12 272.782,572.13 272.748,572.136C272.746,572.144 272.743,572.154 272.738,572.163C272.685,572.275 272.609,572.481 272.448,572.743C272.372,572.869 272.287,572.996 272.177,573.112C272.135,573.156 272.087,573.193 272.038,573.227C271.957,573.282 271.877,573.321 271.796,573.363C271.722,573.401 271.658,573.43 271.593,573.457C272.371,574.082 272.867,574.872 272.961,575.766C273.222,578.236 270.314,580.57 266.472,580.975C262.63,581.38 259.299,579.704 259.039,577.234C258.864,575.579 260.112,573.985 262.11,572.992C262.078,572.939 262.048,572.885 262.026,572.827C261.965,572.667 261.93,572.504 261.903,572.347C261.847,572.024 261.849,571.784 261.839,571.652C261.839,571.642 261.839,571.631 261.84,571.622C261.798,571.602 261.779,571.584 261.836,571.582C261.845,571.581 261.841,571.598 261.84,571.622C261.898,571.649 262,571.68 262,571.68L261.835,571.574C261.795,571.483 261.835,571.376 261.926,571.335C261.988,571.308 262.056,571.318 262.056,571.433C262.081,571.394 262.118,571.38 262.17,571.432C262.179,571.44 262.194,571.455 262.221,571.481C262.312,571.576 262.493,571.734 262.697,571.991C262.796,572.116 262.895,572.25 262.974,572.402C263.004,572.461 263.026,572.523 263.044,572.585C263.044,572.587 263.045,572.589 263.045,572.591C263.805,572.314 264.642,572.118 265.528,572.025C266.381,571.935 267.208,571.947 267.982,572.048ZM232.809,571.965C232.823,571.924 232.838,571.882 232.853,571.839C232.927,571.633 233.004,571.42 233.095,571.204C233.153,571.067 233.215,570.929 233.284,570.795C233.389,570.592 233.504,570.396 233.618,570.206C233.698,570.072 233.778,569.945 233.86,569.822C234.396,569.015 234.838,568.42 234.838,568.42C234.882,568.331 234.991,568.294 235.08,568.338C235.169,568.382 235.206,568.491 235.162,568.58C235.162,568.58 234.956,569.293 234.64,570.208C234.592,570.348 234.54,570.489 234.482,570.633C234.399,570.839 234.314,571.05 234.216,571.256C234.151,571.392 234.08,571.525 234.005,571.655C233.952,571.748 233.897,571.839 233.842,571.927C234.138,571.904 234.514,571.948 234.508,572.06C234.507,572.082 234.506,572.105 234.505,572.127C235.951,572.395 237.178,572.982 237.982,573.784L238.368,573.381C238.554,573.202 238.748,573.032 238.938,572.868C239.071,572.753 239.203,572.645 239.334,572.541C240.19,571.863 240.873,571.372 240.873,571.372C240.944,571.302 241.058,571.302 241.128,571.373C241.198,571.444 241.198,571.558 241.127,571.628C241.127,571.628 240.631,572.307 239.947,573.159C239.842,573.289 239.733,573.42 239.617,573.552C239.452,573.741 239.281,573.934 239.1,574.119C238.98,574.241 238.856,574.358 238.729,574.471C238.686,574.509 238.643,574.547 238.599,574.585C238.807,574.951 238.94,575.347 238.984,575.766C239.244,578.236 236.336,580.57 232.494,580.975C228.652,581.38 225.321,579.704 225.061,577.234C224.912,575.823 225.797,574.457 227.299,573.469C227.302,573.432 227.305,573.394 227.308,573.356C227.325,573.151 227.342,572.939 227.373,572.721C227.392,572.582 227.417,572.443 227.448,572.304C227.494,572.095 227.554,571.89 227.613,571.69C227.655,571.55 227.699,571.416 227.745,571.285C228.048,570.426 228.316,569.783 228.316,569.783C228.336,569.686 228.432,569.623 228.529,569.643C228.627,569.663 228.69,569.759 228.669,569.856C228.669,569.856 228.66,570.552 228.597,571.462C228.587,571.6 228.574,571.741 228.557,571.886C228.532,572.093 228.505,572.305 228.465,572.515C228.442,572.635 228.414,572.755 228.383,572.872C229.312,572.446 230.389,572.147 231.55,572.025C231.977,571.98 232.398,571.96 232.809,571.965ZM233.798,574.856C232.871,574.396 231.487,574.374 230.11,574.891C228.023,575.674 226.737,577.399 227.24,578.741C227.744,580.083 229.847,580.536 231.934,579.753C234.022,578.97 235.308,577.245 234.804,575.903C234.68,575.572 234.458,575.295 234.163,575.077C234.134,575.138 234.072,575.18 234,575.18C233.9,575.18 233.82,575.1 233.82,575C233.82,575 233.812,574.949 233.798,574.856ZM264.088,574.891C266.175,574.108 268.279,574.562 268.782,575.903C269.285,577.245 267.999,578.97 265.912,579.753C263.825,580.536 261.721,580.083 261.218,578.741C260.715,577.399 262.001,575.674 264.088,574.891ZM294.865,542.786C293.113,541.664 291.115,540.977 289.472,539.692C288.711,539.097 287.966,538.415 288.03,537.384C288.129,535.8 289.422,534.244 290.106,532.888C291.022,531.069 291.537,529.08 291.78,527.064C291.886,526.188 291.949,525.323 291.86,524.44C291.85,524.344 291.84,523.703 291.746,523.649C291.615,523.575 291.135,523.738 290.973,523.78C290.158,523.995 289.296,524.484 288.698,525.08C286.891,526.88 285.642,528.996 284.236,531.111C283.566,532.119 283.237,533.631 281.921,533.124C281.044,532.786 280.223,532.079 279.531,531.466C278.818,530.834 278.151,530.156 277.501,529.461C277.353,529.302 276.872,528.926 276.837,528.709C276.6,527.207 278.462,525.76 279.479,524.997C282.925,522.414 287.015,521.24 290.323,518.389C292.04,516.908 293.642,515.279 295.54,514.022C295.713,513.907 297.05,512.919 297.353,513.028C298.845,513.563 298.758,516.266 298.655,517.346C298.447,519.545 297.36,521.521 296.764,523.624C296.194,525.63 296.106,527.644 296.363,529.714C296.885,533.926 298.077,539.128 295.161,542.82L294.865,542.786ZM219.527,527.763C218.442,528.253 216.263,529.893 215.079,529.761C211.65,529.378 210.511,523.699 209.409,521.362C208.541,519.521 207.542,517.603 206.107,516.14C205.8,515.827 205.475,515.533 205.148,515.241C204.991,515.101 204.766,514.638 204.671,514.826C204.548,515.069 204.999,516.007 205.084,516.25C205.55,517.592 206.128,518.917 206.42,520.312C207.171,523.894 205.932,527.629 206.509,531.249C206.702,532.461 207.122,533.552 207.658,534.646C207.829,534.995 208.359,535.773 208.253,536.198C207.834,537.873 205.978,541.657 204.352,541C201.49,539.843 200.151,534.638 200.071,531.95C199.872,525.314 201.96,518.9 201.711,512.307C201.618,509.834 201.537,507.35 201.304,504.885C201.275,504.576 200.934,502.865 201.084,502.713C201.122,502.675 201.719,503.039 201.784,503.077C202.489,503.48 203.119,504.009 203.692,504.581C206.064,506.951 207.643,510.009 209.489,512.776C211.946,516.459 215.145,519.255 217.886,522.689C218.805,523.839 220.574,525.805 220.132,527.494L219.527,527.763Z" style="fill:white;"/>
    </g>
</svg>
