<?xml version="1.0" encoding="UTF-8" standalone="no"?>
<!DOCTYPE svg PUBLIC "-//W3C//DTD SVG 1.1//EN" "http://www.w3.org/Graphics/SVG/1.1/DTD/svg11.dtd">
<svg width="100%" height="100%" viewBox="0 0 1000 1000" version="1.1" xmlns="http://www.w3.org/2000/svg" xmlns:xlink="http://www.w3.org/1999/xlink" xml:space="preserve" xmlns:serif="http://www.serif.com/" style="fill-rule:evenodd;clip-rule:evenodd;stroke-linejoin:round;stroke-miterlimit:2;">
    <g transform="matrix(19.8959,0,0,19.8959,-14108.5,-11701.2)">
        <path d="M752.179,617.72C753.368,616.451 754.651,615.581 756,615C756.746,618.032 755.352,620.796 749.5,623C752.266,622.466 754.16,622.54 755.5,623C755.294,627.687 749.461,628.59 737,628.5C736.221,624.265 737.809,620.875 743.419,617.5C746.106,615.884 747.686,613.563 748.737,611C750.885,605.761 749.809,601.278 752,598C754.451,599.541 755.952,602.984 751.5,613C752.871,610.569 754.561,608.244 756.5,606C757.636,609.169 756.093,613.104 752.179,617.72C751.949,617.964 751.723,618.224 751.5,618.5C751.734,618.238 751.96,617.977 752.179,617.72ZM716.314,617.72C715.124,616.451 713.842,615.581 712.493,615C711.747,618.032 713.141,620.796 718.993,623C716.227,622.466 714.333,622.54 712.993,623C713.199,627.687 719.032,628.59 731.493,628.5C732.272,624.265 730.683,620.875 725.073,617.5C722.386,615.884 720.807,613.563 719.756,611C717.607,605.761 718.683,601.278 716.493,598C714.041,599.541 712.541,602.984 716.993,613C715.622,610.569 713.932,608.244 711.993,606C710.857,609.169 712.4,613.104 716.314,617.72C716.544,617.964 716.77,618.224 716.993,618.5C716.759,618.238 716.532,617.977 716.314,617.72ZM732.682,622.5C731.112,619.594 728.801,617.421 726.212,615.522C725.977,615.57 725.768,615.589 725.582,615.583C723.883,615.632 723.908,613.785 724.056,613.5C724.12,613.376 724.538,613.265 725.023,613.276C725.767,613.259 726.743,613.523 726.811,614.5C727.795,614.752 728.779,614.926 729.765,615.474C731.057,615.055 732.269,613.781 733.182,611.5C733.569,610.475 733.533,609.245 732.915,609.167C732.784,609.182 732.631,609.241 732.457,609.354C732.457,609.328 732.457,609.303 732.458,609.278C732.416,609.3 732.373,609.325 732.328,609.354C732.328,608.343 733.15,607.513 734.158,607.5L734.182,607.5C734.204,607.5 734.225,607.5 734.246,607.501C734.268,607.5 734.289,607.5 734.311,607.5L734.335,607.5C735.342,607.513 736.165,608.343 736.165,609.354C736.12,609.325 736.076,609.3 736.034,609.278C736.035,609.303 736.036,609.328 736.036,609.354C735.861,609.241 735.709,609.182 735.578,609.167C734.959,609.245 734.924,610.475 735.311,611.5C736.224,613.781 737.436,615.055 738.728,615.474C739.714,614.926 740.698,614.752 741.682,614.5C741.75,613.523 742.726,613.259 743.47,613.276C743.955,613.265 744.373,613.376 744.437,613.5C744.584,613.785 744.61,615.632 742.911,615.583C742.725,615.589 742.515,615.57 742.281,615.522C739.692,617.421 737.381,619.594 735.811,622.5L732.682,622.5Z" style="fill:white;"/>
    </g>
</svg>
