<?xml version="1.0" encoding="UTF-8" standalone="no"?>
<!DOCTYPE svg PUBLIC "-//W3C//DTD SVG 1.1//EN" "http://www.w3.org/Graphics/SVG/1.1/DTD/svg11.dtd">
<svg width="100%" height="100%" viewBox="0 0 1000 1000" version="1.1" xmlns="http://www.w3.org/2000/svg" xmlns:xlink="http://www.w3.org/1999/xlink" xml:space="preserve" xmlns:serif="http://www.serif.com/" style="fill-rule:evenodd;clip-rule:evenodd;stroke-linejoin:round;stroke-miterlimit:2;">
    <g transform="matrix(1.12686,0,0,1.1265,-63.4299,-2.42994)">
        <path d="M500,836.286L420.747,732.266C419.994,699.295 425.305,666.451 399.94,632.963C378.232,649.291 344.341,685.598 360.512,639.816L358.738,640.124C345.053,653.381 329.676,660.518 323.187,654.507C320.928,652.415 324.821,644.589 335.875,629.981L333.17,628.78C297.639,651.18 280.658,656.109 303.618,620.405C304.798,618.571 300.676,614.309 298.956,615.757C295.62,618.565 275.331,637.11 268.713,637.044C237.444,636.734 275.215,609.527 282.02,603.433C283.301,602.286 279.508,599.337 280.36,598.549C274.87,599.139 264.615,603.799 251.271,612.047C233.085,623.287 212.983,620.673 211.827,612.602C210.613,604.134 231.973,591.339 318.046,557.816C330.737,552.873 344.343,576.051 358.703,583.351C381.462,594.921 401.706,608.582 425.385,626.107C437.52,642.252 440.596,662.27 439.222,684.19C455.059,715.483 475.365,745.266 500,773.586L500,773.902C524.635,745.581 544.941,715.798 560.778,684.506C559.404,662.585 562.48,642.567 574.615,626.422C598.294,608.897 618.538,595.236 641.297,583.666C655.657,576.366 669.263,553.188 681.954,558.131C768.027,591.655 789.387,604.449 788.173,612.917C787.017,620.988 766.915,623.603 748.729,612.362C735.385,604.115 725.13,599.455 719.64,598.864C720.492,599.653 716.699,602.601 717.98,603.748C724.785,609.842 762.556,637.049 731.287,637.359C724.669,637.425 704.38,618.88 701.044,616.072C699.324,614.624 695.202,618.886 696.382,620.721C719.342,656.425 702.361,651.495 666.83,629.096L664.125,630.296C675.179,644.904 679.072,652.73 676.813,654.822C670.324,660.833 654.947,653.696 641.262,640.44L639.488,640.131C655.659,685.913 621.768,649.606 600.06,633.278C574.695,666.767 580.006,699.61 579.253,732.581L500,836.601L500,836.286ZM500,636.166C500.177,620.895 503.752,602.776 504.149,582.754C504.996,540.03 512.318,491.257 521.548,448.482C522.439,444.352 522.839,440.126 524.27,436.27C543.534,384.388 557.278,364.889 558.309,337.551C559.201,313.9 543.694,288.29 530.456,272.24C526.339,267.249 522.554,262.198 518.813,257.699C510.386,247.565 503.114,239.499 500,235.519L500,235.203C496.886,239.184 489.614,247.25 481.187,257.384C477.446,261.882 473.661,266.934 469.544,271.925C456.306,287.975 440.799,313.585 441.691,337.235C442.722,364.574 456.466,384.073 475.73,435.955C477.161,439.81 477.561,444.037 478.452,448.167C487.682,490.942 495.004,539.715 495.851,582.439C496.248,602.461 499.823,620.58 500,635.851L500,636.166ZM646.357,543.056C646.636,542.843 648.976,541.903 649.319,541.93C660.678,542.83 664.768,548.409 662.749,554.103C660.688,559.918 647.777,571.052 636.954,576.816C608.793,591.814 585.672,607.192 570.615,622.971C565.766,628.878 561.056,635.225 559.583,642.748C555.797,662.083 554.639,678.61 550.03,694.066C548.343,695.847 546.655,695.577 544.968,693.904C544.968,693.904 542.428,650.904 545.383,636.563C547.639,625.62 555.561,614.431 563.782,606.863C580.93,591.079 632.101,553.878 646.357,543.056ZM353.643,542.74C353.364,542.528 351.024,541.588 350.681,541.615C339.322,542.514 335.232,548.093 337.251,553.788C339.312,559.602 352.223,570.736 363.046,576.501C391.207,591.499 414.328,606.877 429.385,622.656C434.234,628.563 438.944,634.91 440.417,642.432C444.203,661.768 445.361,678.294 449.97,693.751C451.657,695.532 453.345,695.262 455.032,693.589C455.032,693.589 457.572,650.589 454.617,636.248C452.361,625.304 444.439,614.115 436.218,606.548C419.07,590.764 367.899,553.562 353.643,542.74ZM563.452,438.705C554.603,437.988 544.88,458.912 546.968,468.024C547.651,471.001 572.251,470.419 571.84,488.709C571.815,489.838 571.846,493.185 572.916,493.758C607.649,512.353 675.881,540.817 752.349,579.661C765.13,586.153 776.6,594.915 788.222,603.289C803.46,608.387 812.945,630.909 811.107,643.036C810.208,648.968 800.907,654.082 800.65,657.684C800.392,661.285 801.091,663.62 809.562,664.645C817.643,662.094 824.863,658.249 828.763,649.418C831.251,641.692 831.994,632.594 826.52,618.607C817.715,608.694 806.645,598.574 788.222,587.787C721.925,555.575 640.931,508.938 609.571,489.695C604.409,486.528 597.848,483.019 600.06,472.33C592.003,458.861 572.3,439.423 563.452,438.705ZM436.548,438.39C445.397,437.672 455.12,458.597 453.032,467.709C452.349,470.686 427.749,470.104 428.16,488.393C428.185,489.523 428.154,492.87 427.084,493.443C392.351,512.038 324.119,540.502 247.651,579.346C234.87,585.838 223.4,594.6 211.778,602.974C196.54,608.071 187.055,630.594 188.893,642.721C189.792,648.652 199.093,653.767 199.35,657.369C199.608,660.97 198.909,663.305 190.438,664.33C182.357,661.779 175.137,657.934 171.237,649.103C168.749,641.377 168.006,632.279 173.48,618.292C182.285,608.378 193.355,598.259 211.778,587.472C278.075,555.26 359.069,508.622 390.429,489.379C395.591,486.212 402.152,482.704 399.94,472.015C407.997,458.545 427.7,439.108 436.548,438.39ZM837.954,207.994C844.796,201.597 849.46,203.223 850.504,218.194C838.343,279.808 805.454,312.427 760.568,328.267C743.666,342.82 747.705,348.92 766.783,348.95C812.315,340.56 844.25,328.484 864.802,313.321C884.009,304.274 895.74,301.738 875.485,327.062C848.278,353.799 816.175,369.044 780.052,374.85C756.633,383.053 755.514,390.261 778.889,396.379C809.51,402.449 839.895,403.295 869.908,395.927C907.124,384.952 908.479,391.141 877.184,412.958C850.369,424.658 822.531,429.496 794.186,430.488C773.873,435.432 770.552,441.412 789.254,448.736C813.172,454.47 836.751,456.64 860.039,455.76C886.337,458.507 889.113,463.698 859.133,472.292C834.171,478.567 806.696,478.263 777.584,473.68C755.096,471.696 756.664,477.842 768.295,487.388C793.147,506.556 815.453,513.44 837.153,517.4C856.98,523.924 858.761,528.838 837.153,531.664C812.207,532.419 788.803,526.695 767.201,513.402C751.623,505.215 747.161,508.887 753.306,523.875C769.709,541.635 785.323,554.327 800.071,561.453C824.103,570.837 831.023,578.179 797.033,580.641C751.814,566.519 728.232,552.102 710.831,537.6C698.853,532.928 698.525,524.587 707.187,513.412C724.397,485.197 729.697,456.981 719.141,428.765C716.107,408.693 709.522,388.877 698.111,369.409C688.383,352.31 688.715,335.21 699.346,318.111C714.81,298.459 732.647,287.567 753.643,288.334C786.529,272.674 815.399,247.677 837.954,207.994ZM162.046,207.678C155.204,201.281 150.54,202.908 149.496,217.879C161.657,279.493 194.546,312.112 239.432,327.952C256.334,342.505 252.295,348.605 233.217,348.635C187.685,340.245 155.75,328.168 135.198,313.006C115.991,303.958 104.26,301.423 124.515,326.746C151.722,353.484 183.825,368.729 219.948,374.535C243.367,382.737 244.486,389.946 221.111,396.064C190.49,402.134 160.105,402.98 130.092,395.611C92.876,384.637 91.521,390.826 122.816,412.643C149.631,424.343 177.469,429.181 205.814,430.173C226.127,435.117 229.448,441.097 210.746,448.421C186.828,454.154 163.249,456.325 139.961,455.445C113.663,458.192 110.887,463.383 140.867,471.977C165.829,478.251 193.304,477.948 222.416,473.365C244.904,471.381 243.336,477.527 231.705,487.072C206.853,506.24 184.547,513.125 162.847,517.085C143.02,523.609 141.239,528.523 162.847,531.349C187.793,532.104 211.197,526.38 232.799,513.086C248.377,504.9 252.839,508.572 246.694,523.56C230.291,541.319 214.677,554.011 199.929,561.138C175.897,570.522 168.977,577.864 202.967,580.326C248.186,566.204 271.768,551.786 289.169,537.284C301.147,532.613 301.475,524.271 292.813,513.097C275.603,484.881 270.303,456.666 280.859,428.45C283.893,408.378 290.478,388.562 301.889,369.094C311.617,351.994 311.285,334.895 300.654,317.795C285.19,298.144 267.353,287.251 246.357,288.019C213.471,272.359 184.601,247.361 162.046,207.678ZM779.177,129.596C783.45,120.478 788.359,119.139 794.268,130.035C800.967,150.241 801.726,170.236 797.266,190.048C785.718,221.517 768.088,251.147 736.069,276.426C720.784,285.961 709.433,298.764 696.529,307.927C683.639,317.08 675.764,334.222 678.655,348.812C681.839,364.879 706.738,406.594 711.557,430.834C714.701,446.651 713.474,463.34 709.952,478.747C706.431,494.154 701.578,510.509 688.668,522.809C680.653,525.644 674.239,523.174 670.699,511.19C684.113,487.991 690.853,461.749 675.326,425.353C664.257,407.12 652.831,392.442 642.765,383.079C635.504,376.326 632.471,367.803 629.557,361.961C616.84,344.392 614.531,326.401 629.534,307.707C640.048,295.784 641.4,282.002 636.349,266.921C627.042,260.971 619.231,261.061 612.616,265.981C605.913,267.671 604.604,264.404 605.365,259.235C616.023,246.239 627.381,237.983 644.111,243.258C652.489,242.975 654.318,254.551 658.553,255.193C660.21,255.444 661.775,255.164 663.244,254.329C666.286,252.601 663.922,246.58 671.095,241.792C676.816,231.477 691.17,225.455 713.11,223.207C753.73,204.55 778.83,175.423 779.177,129.596ZM220.823,129.281C216.55,120.163 211.641,118.824 205.732,129.72C199.033,149.925 198.274,169.921 202.734,189.733C214.282,221.202 231.912,250.832 263.931,276.111C279.216,285.646 290.567,298.448 303.471,307.612C316.361,316.765 324.236,333.907 321.345,348.497C318.161,364.564 293.262,406.278 288.443,430.519C285.299,446.336 286.526,463.024 290.048,478.431C293.569,493.838 298.422,510.193 311.332,522.494C319.347,525.328 325.761,522.859 329.301,510.874C315.887,487.676 309.147,461.434 324.674,425.038C335.743,406.805 347.169,392.127 357.235,382.764C364.496,376.01 367.529,367.488 370.443,361.646C383.16,344.077 385.469,326.086 370.466,307.392C359.952,295.468 358.6,281.687 363.651,266.606C372.958,260.656 380.769,260.746 387.384,265.666C394.087,267.355 395.396,264.089 394.635,258.919C383.977,245.923 372.619,237.667 355.889,242.942C347.511,242.66 345.682,254.235 341.447,254.877C339.79,255.129 338.225,254.849 336.756,254.014C333.714,252.285 336.078,246.265 328.905,241.477C323.184,231.161 308.83,225.14 286.89,222.892C246.27,204.235 221.17,175.108 220.823,129.281ZM500,55.735C502.884,56.42 506.144,57.618 506.992,60.416C512.305,77.957 512.532,88.094 507.094,89.994C506.347,94.624 508.337,95.928 514.137,92.601C523.127,89.456 527.519,91.387 525.19,100.735C520.342,110.849 510.756,120.065 508.514,124.674C507.568,126.62 509.292,129.235 511.009,127.92C515.434,124.532 530.617,110.603 533.3,103.914C540.128,86.891 557.506,69.903 554.415,121.629C551.789,132.679 544.165,139.707 539.049,146.174C537.807,147.743 532.929,148.533 532.912,150.143C532.9,151.285 533.212,152.572 534.381,153.439C539.518,157.248 552.895,167.945 552.525,170.601C553.676,183.79 551.606,188.057 544.896,185.025C536.988,178.432 527.921,172.272 513.266,168.2C504.63,173.789 505.097,181.624 507.454,189.925C522.804,190.211 531.142,193.42 529.889,200.625C528.525,214.937 514.275,214.532 500,214.097L500,213.782C485.725,214.216 471.475,214.622 470.111,200.31C468.858,193.105 477.196,189.896 492.546,189.61C494.903,181.309 495.37,173.474 486.734,167.885C472.079,171.957 463.012,178.117 455.104,184.71C448.394,187.742 446.324,183.475 447.475,170.285C447.105,167.63 460.482,156.933 465.619,153.124C466.788,152.257 467.1,150.97 467.088,149.828C467.071,148.217 462.193,147.428 460.951,145.859C455.835,139.392 448.211,132.364 445.585,121.314C442.494,69.587 459.872,86.576 466.7,103.598C469.383,110.288 484.566,124.216 488.991,127.605C490.708,128.92 492.432,126.304 491.486,124.359C489.244,119.749 479.658,110.533 474.81,100.419C472.481,91.072 476.873,89.141 485.863,92.286C491.663,95.612 493.653,94.308 492.906,89.679C487.468,87.778 487.695,77.642 493.008,60.101C493.856,57.303 497.116,56.104 500,55.419L500,55.735ZM500,759.024C496.486,761.662 494.727,758.408 493.867,752.381C492.952,745.966 490.587,702.367 490.262,689.324C489.561,661.175 485.542,632.998 485.188,605.229C484.684,565.581 477.376,528.237 471.993,495.76C468.966,477.499 462.928,461.228 456.896,446.83C452.735,436.898 443.544,427.431 433.887,415.329C426.223,405.725 419.859,394.282 412.823,382.272C403.214,365.872 400.428,346.117 399.946,325.261C399.819,310.483 401.642,296.771 407.074,284.77C413.051,271.565 426.559,258.774 440.496,246.023C449.96,237.363 457.318,227.084 464.151,217.339C467.58,215.161 472.125,213.15 476.545,214.807C482.347,216.981 490.632,219.353 500,219.666L500,219.981C509.368,219.668 517.653,217.296 523.455,215.122C527.875,213.466 532.42,215.477 535.849,217.654C542.682,227.4 550.04,237.678 559.504,246.338C573.441,259.09 586.949,271.88 592.926,285.085C598.358,297.086 600.181,310.799 600.054,325.576C599.572,346.432 596.786,366.187 587.177,382.587C580.141,394.597 573.777,406.04 566.113,415.644C556.456,427.747 547.265,437.213 543.104,447.145C537.072,461.543 531.034,477.814 528.007,496.075C522.624,528.553 515.316,565.897 514.812,605.544C514.458,633.313 510.439,661.49 509.738,689.639C509.413,702.682 507.048,746.281 506.133,752.697C505.273,758.723 503.514,761.977 500,759.339L500,759.024Z" style="fill:white;"/>
    </g>
</svg>
