<?xml version="1.0" encoding="UTF-8" standalone="no"?>
<!DOCTYPE svg PUBLIC "-//W3C//DTD SVG 1.1//EN" "http://www.w3.org/Graphics/SVG/1.1/DTD/svg11.dtd">
<svg width="100%" height="100%" viewBox="0 0 1000 1000" version="1.1" xmlns="http://www.w3.org/2000/svg" xmlns:xlink="http://www.w3.org/1999/xlink" xml:space="preserve" xmlns:serif="http://www.serif.com/" style="fill-rule:evenodd;clip-rule:evenodd;stroke-linejoin:round;stroke-miterlimit:2;">
    <g transform="matrix(5.17241,0,0,5.17241,-1853.45,-2468.97)">
        <path d="M525.706,491.933C525.266,491.41 525,490.736 525,490C525,488.344 526.344,487 528,487C529.656,487 531,488.344 531,490C531,491.656 529.656,493 528,493C527.441,493 526.917,492.847 526.468,492.58L491.947,533.297C492.093,533.455 492.225,533.625 492.344,533.805L535.123,512.852C535.043,512.582 535,512.296 535,512C535,510.344 536.344,509 538,509C539.656,509 541,510.344 541,512C541,513.656 539.656,515 538,515C536.997,515 536.109,514.507 535.564,513.75L492.785,534.703C492.881,534.983 492.947,535.277 492.978,535.581L535.052,536.44C535.315,535.051 536.536,534 538,534C539.656,534 541,535.344 541,537C541,538.656 539.656,540 538,540C536.494,540 535.245,538.887 535.032,537.44L492.958,536.581C492.676,538.514 491.01,540 489,540C488.259,540 487.565,539.798 486.969,539.446L474.204,555.966C474.698,556.5 475,557.215 475,558C475,559.656 473.656,561 472,561C471.655,561 471.324,560.942 471.016,560.835L456.861,586.647C457.554,587.197 458,588.047 458,589C458,590.656 456.656,592 455,592L454.99,592L450.995,615.169C452.163,615.58 453,616.693 453,618C453,619.518 451.871,620.774 450.407,620.973L449.592,647.059C450.965,647.334 452,648.547 452,650C452,651.656 450.656,653 449,653C447.883,653 446.907,652.388 446.391,651.481L429.951,657.459C429.983,657.634 430,657.815 430,658C430,659.656 428.656,661 427,661C425.488,661 424.236,659.879 424.03,658.424L390.945,657.576C390.676,658.956 389.459,660 388,660C386.344,660 385,658.656 385,657C385,656.233 385.288,655.534 385.762,655.003L373.457,639.622C373.026,639.863 372.529,640 372,640C370.344,640 369,638.656 369,637C369,635.344 370.344,634 372,634C372.475,634 372.924,634.11 373.323,634.307L387.866,614.108C387.331,613.566 387,612.821 387,612C387,610.344 388.344,609 390,609C391.656,609 393,610.344 393,612C393,612.436 392.907,612.851 392.739,613.225L399.817,617.943C400.364,617.363 401.14,617 402,617C403.656,617 405,618.344 405,620C405,621.656 403.656,623 402,623C400.344,623 399,621.656 399,620C399,619.564 399.093,619.149 399.261,618.775L392.183,614.057C391.636,614.637 390.86,615 390,615C389.525,615 389.076,614.89 388.677,614.693L374.134,634.892C374.669,635.434 375,636.179 375,637C375,637.767 374.712,638.466 374.238,638.997L386.543,654.378C386.974,654.137 387.471,654 388,654C389.512,654 390.764,655.121 390.97,656.576L424.055,657.424C424.324,656.044 425.541,655 427,655C428.117,655 429.093,655.612 429.609,656.519L446.049,650.541C446.017,650.366 446,650.185 446,650C446,648.482 447.129,647.226 448.593,647.027L449.408,620.941C448.035,620.666 447,619.453 447,618C447,616.344 448.344,615 450,615L450.01,615L454.005,591.831C452.837,591.42 452,590.307 452,589C452,587.344 453.344,586 455,586C455.345,586 455.676,586.058 455.984,586.165L470.139,560.353C469.446,559.803 469,558.953 469,558C469,556.344 470.344,555 472,555C472.511,555 472.992,555.128 473.413,555.353L486.178,538.834C485.451,538.109 485,537.107 485,536C485,533.792 486.792,532 489,532C489.806,532 490.557,532.239 491.185,532.65L525.706,491.933Z" style="fill:white;"/>
    </g>
</svg>
