<?xml version="1.0" encoding="UTF-8" standalone="no"?>
<!DOCTYPE svg PUBLIC "-//W3C//DTD SVG 1.1//EN" "http://www.w3.org/Graphics/SVG/1.1/DTD/svg11.dtd">
<svg width="100%" height="100%" viewBox="0 0 1000 1000" version="1.1" xmlns="http://www.w3.org/2000/svg" xmlns:xlink="http://www.w3.org/1999/xlink" xml:space="preserve" xmlns:serif="http://www.serif.com/" style="fill-rule:evenodd;clip-rule:evenodd;stroke-linejoin:round;stroke-miterlimit:2;">
    <g transform="matrix(3.76777,0,0,3.76777,-283.936,-1038.32)">
        <path d="M268.779,311.526C276.779,318.164 284.169,326.108 289.796,334.882C337.06,408.589 265.018,517.98 179.369,508.248C180.996,510.308 179.181,512.692 176.997,513.148C176.967,517.777 177.133,522.512 176,527C175.592,528.616 171,527 171,527C164.193,527.367 160.914,523.976 161,517C165.405,513.573 169.394,510.771 172,510.039C171.981,508.806 173.086,507.545 174.23,507.085C108.934,483.465 96.763,396.14 127.173,341.123C140.47,317.066 161.29,300.125 187.529,292.024C196.614,289.219 207.889,288.262 217.329,289.197C205.837,290.528 192.869,291.137 183.237,298.615C174.361,305.506 167.983,311.864 163.57,322.439C161.548,327.287 160.381,332.519 159.8,337.739C153.506,394.286 247.098,412.798 271.953,367.179C277.977,356.123 276.216,342.133 274.834,330.399C274.092,324.1 272.178,316.973 268.779,311.526ZM220,294.583C225.62,294.248 235.399,297.812 239.897,300.972C255.56,311.973 267.67,332.2 262.173,351.692C257.127,369.588 237.116,378.536 220,380C190.946,382.485 167.363,352.805 174.364,325.171C179.161,306.234 202.216,295.644 220,294.583ZM220,307.917C237.53,308.082 250.819,326.408 244.7,342.915C240.466,354.335 225.914,359.192 214.943,360.025C200.63,361.111 193.384,344.963 191.932,333.183C191.53,329.918 192.29,323.993 193.889,321.05C199.002,311.646 209.845,307.821 220,307.917ZM215.872,317.089C227.636,315.257 235.356,323.371 235.534,331.39C235.703,338.954 228.78,346.974 220.927,346.732C213.195,346.493 207.622,340.194 206.851,332.717C206.216,326.555 209.167,318.133 215.872,317.089Z" style="fill:white;"/>
    </g>
</svg>
