<?xml version="1.0" encoding="UTF-8" standalone="no"?>
<!DOCTYPE svg PUBLIC "-//W3C//DTD SVG 1.1//EN" "http://www.w3.org/Graphics/SVG/1.1/DTD/svg11.dtd">
<svg width="100%" height="100%" viewBox="0 0 1000 1000" version="1.1" xmlns="http://www.w3.org/2000/svg" xmlns:xlink="http://www.w3.org/1999/xlink" xml:space="preserve" xmlns:serif="http://www.serif.com/" style="fill-rule:evenodd;clip-rule:evenodd;stroke-linejoin:round;stroke-miterlimit:2;">
    <g transform="matrix(3.49489,0,0,3.49489,-1794.51,-1142.6)">
        <path d="M588.433,448.04L541.774,471.977C529.314,478.369 524.388,493.674 530.78,506.134L553.943,551.284C560.335,563.744 575.64,568.67 588.1,562.278L634.422,538.514L658.253,584.966C664.645,597.426 679.95,602.352 692.41,595.96L737.56,572.797C750.02,566.405 754.946,551.1 748.554,538.64L724.4,491.558L771.291,467.501C783.751,461.109 788.677,445.804 782.285,433.345L759.122,388.194C752.73,375.735 737.425,370.808 724.965,377.2L678.411,401.084L654.786,355.034C648.394,342.574 633.089,337.648 620.629,344.04L575.479,367.203C563.019,373.595 558.093,388.9 564.485,401.36L588.433,448.04ZM703.574,562.135L676.534,542.289L703.226,528.596L703.574,562.135ZM564.605,517.298L584.451,490.258L598.144,516.95L564.605,517.298ZM748.46,422.181L728.614,449.221L714.921,422.528L748.46,422.181ZM609.465,377.865L636.505,397.711L609.813,411.404L609.465,377.865Z" style="fill:white;"/>
    </g>
</svg>
