<?xml version="1.0" encoding="UTF-8" standalone="no"?>
<!DOCTYPE svg PUBLIC "-//W3C//DTD SVG 1.1//EN" "http://www.w3.org/Graphics/SVG/1.1/DTD/svg11.dtd">
<svg width="100%" height="100%" viewBox="0 0 1000 1000" version="1.1" xmlns="http://www.w3.org/2000/svg" xmlns:xlink="http://www.w3.org/1999/xlink" xml:space="preserve" xmlns:serif="http://www.serif.com/" style="fill-rule:evenodd;clip-rule:evenodd;stroke-linejoin:round;stroke-miterlimit:2;">
    <g transform="matrix(3.47116,0,0,3.47116,-1252.58,-1188.77)">
        <path d="M468.484,487.75C468.124,487.095 467.775,486.415 467.455,485.7C467.385,485.544 467.313,485.389 467.267,485.223C467.085,484.565 467.046,483.885 466.941,483.192C466.517,480.412 466.207,477.553 465.786,474.512C465.756,474.297 465.739,474.08 465.681,473.87C465.546,473.378 465.311,472.931 465.123,472.45C464.044,469.687 462.921,466.918 461.938,463.936C461.827,463.602 461.701,463.272 461.637,462.924C461.069,459.832 461.222,456.667 461.012,453.411C460.972,452.78 460.984,452.153 460.876,451.526C459.927,446.018 457.948,440.67 456.558,435.13C456.435,434.641 456.219,434.171 456.193,433.667C456.186,433.53 456.222,433.413 456.248,433.278C456.455,432.194 456.712,431.385 456.966,430.312C457.011,430.123 457.094,429.979 457.086,429.785C457.079,429.614 456.984,429.464 456.932,429.301C455.991,426.342 454.774,423.573 454.206,420.567C454.154,420.291 454.149,420.009 454.143,419.729C454.084,417.111 454.76,414.611 454.39,412.083C454.017,409.537 452.416,407.465 452.02,405.013C451.445,401.459 452.27,398.006 452.062,394.671C452.04,394.328 451.994,393.988 451.926,393.655C451.265,390.413 449.681,387.612 449.476,384.656C449.318,382.373 450.338,380.424 450.272,378.375C450.243,377.464 449.931,376.621 449.768,375.78C447.922,366.226 446.888,360.284 446.888,360.284C446.731,358.566 447.999,357.044 449.716,356.888C451.434,356.731 452.956,357.999 453.112,359.716C453.112,359.716 452.77,366.67 453.481,377.622C453.495,377.835 453.497,378.052 453.546,378.263C453.989,380.156 455.266,381.728 455.655,383.849C455.698,384.085 455.659,384.326 455.655,384.568C455.623,386.67 455.526,388.793 455.467,391.068C455.445,391.886 455.309,392.692 455.404,393.526C455.763,396.674 457.018,399.713 457.885,403.013C457.982,403.383 458.137,403.735 458.173,404.119C458.189,404.286 458.151,404.445 458.14,404.613C457.99,406.821 457.442,408.945 457.709,411.213C458.05,414.115 459.863,416.637 460.309,419.609C460.745,422.512 460.281,425.408 460.291,428.388C460.292,428.678 460.214,428.969 460.293,429.249C460.654,430.523 461.621,431.199 462.216,432.385C462.273,432.499 462.325,432.608 462.354,432.732C462.465,433.208 462.429,433.701 462.468,434.188C462.847,438.95 463.26,443.66 463.73,448.341C463.814,449.178 463.829,450.014 463.985,450.836C464.052,451.189 464.169,451.527 464.275,451.87C465.121,454.606 466.097,457.181 467.03,459.798C467.259,460.437 467.554,461.034 467.712,461.688C467.779,461.967 467.79,462.253 467.82,462.537C468.194,466.103 468.125,469.538 468.792,472.823C468.868,473.198 468.994,473.558 469.12,473.915C470.293,477.251 471.958,480.126 473.068,483.103C473.175,483.392 473.262,483.687 473.327,483.984C473.683,485.619 473.9,487.187 474.119,488.692C477.401,489.321 481.007,490.117 485,491C491.028,492.334 498.795,496.911 504.861,502.931C505.29,502.923 505.718,502.907 506.147,502.882C506.543,502.858 506.939,502.88 507.325,502.796C507.917,502.666 508.433,502.378 508.992,502.162C509.206,502.08 509.418,501.994 509.627,501.906C508.972,501.188 508.292,500.485 507.591,499.8C511.826,496.693 517.797,493.935 525.48,490.4C525.964,490.177 526.477,489.968 527.014,489.773C527.224,488.457 527.418,487.035 527.602,485.51C527.634,485.251 527.63,484.989 527.691,484.73C527.83,484.145 528.104,483.598 528.313,483.007C529.398,479.947 530.763,476.686 531.619,472.956C531.713,472.547 531.768,472.126 531.814,471.702C532.211,468.063 532.16,464.247 532.379,460.23C532.396,459.933 532.382,459.634 532.443,459.342C532.939,456.948 534.324,454.887 534.842,452.409C534.897,452.147 534.898,451.877 534.91,451.609C535.067,448.148 534.391,444.663 534.899,441.138C535.304,438.325 536.963,435.891 537.304,433.052C537.389,432.346 537.24,431.658 537.206,430.948C537.091,428.496 536.597,426.131 536.84,423.708C536.867,423.438 536.973,423.191 537.042,422.929C537.744,420.272 538.546,417.768 539.12,415.142C539.196,414.794 539.28,414.448 539.302,414.093C539.508,410.772 538.852,407.618 538.807,404.453C538.804,404.204 538.787,403.954 538.826,403.709C539.205,401.355 540.386,399.392 540.793,397.171C540.861,396.804 540.868,396.429 540.874,396.059C540.928,392.444 540.568,389.114 540.416,385.956C540.403,385.684 540.343,385.42 540.378,385.154C540.69,382.748 541.921,380.886 542.364,378.842C542.415,378.605 542.442,378.367 542.452,378.13C542.806,369.843 541.881,364.799 541.881,364.799C541.992,363.078 543.48,361.771 545.201,361.881C546.922,361.992 548.229,363.48 548.119,365.201C548.119,365.201 547.507,368.608 546.403,374.428C546.158,375.718 545.716,377.072 545.605,378.604C545.594,378.761 545.611,378.917 545.626,379.076C545.827,381.123 546.574,383.124 546.586,385.506C546.587,385.74 546.531,385.972 546.49,386.205C545.92,389.471 545.068,392.886 544.256,396.615C544.222,396.77 544.163,396.918 544.155,397.078C544.143,397.321 544.21,397.548 544.238,397.791C544.469,399.766 544.804,401.66 544.921,403.742C544.94,404.086 544.961,404.43 544.92,404.774C544.557,407.817 543.41,410.707 542.708,413.848C542.633,414.185 542.529,414.514 542.505,414.86C542.292,417.968 543.372,421.026 543.048,424.206C542.744,427.18 541.508,429.898 540.744,432.814C540.666,433.112 540.547,433.394 540.521,433.7C540.503,433.908 540.552,434.105 540.568,434.313C540.728,436.398 540.888,438.369 541.018,440.448C541.045,440.872 541.127,441.278 541.085,441.699C540.712,445.492 538.651,448.854 538.252,452.533C538.053,454.367 538.404,456.109 538.481,457.909C538.516,458.728 538.668,459.5 538.587,460.305C538.553,460.644 538.427,460.962 538.342,461.29C537.265,465.438 535.731,469.22 535.025,473.027C534.942,473.477 534.954,473.928 534.921,474.377C534.611,478.512 534.507,482.31 533.828,485.693C533.746,486.099 533.626,486.49 533.496,486.871C533.328,487.366 533.155,487.848 532.98,488.317C544.677,486.568 561.06,489.502 565.937,499.695C573.405,515.304 584.646,544.945 590.291,563.885C596.459,584.582 591.962,594.52 563.341,602.563C532.808,611.144 530.107,598.362 519.906,574.354C516.866,567.196 513.777,559.957 510.957,552.951C514.038,542.849 516.67,533.31 518.302,526.063L518.302,526.063C519.821,519.313 517.415,512.108 512.743,505.707C511.106,505.745 509.434,505.738 507.728,506.026L507.716,506.028C512.646,511.904 515.691,518.733 514.247,525.15C510.196,543.142 499.919,575.393 492,595C483.346,616.426 472.633,621.861 442,610C409.321,597.347 415.639,584.836 423,558C428.292,538.709 433.666,518.833 440,505C447.407,488.824 454.737,485.879 468.484,487.75ZM473.093,518.769C467.737,517.198 463.21,516.836 459.515,517.683C455.516,518.599 452.957,520.795 451.838,524.27C450.683,527.855 451.623,531.343 454.657,534.733C457.692,538.123 462.341,540.827 468.606,542.845C474.459,544.731 479.39,545.217 483.397,544.304C487.404,543.39 489.968,541.196 491.087,537.721C492.247,534.12 491.322,530.632 488.312,527.259C485.761,524.4 482.049,522.03 477.174,520.149C482.965,520.087 490.01,512.731 495.434,515.905C500.249,518.723 503.346,521.639 496.438,547.175C492.625,561.269 488.608,573.981 483.004,589.583C476.881,606.633 469.301,610.958 447.627,601.52C424.505,591.451 428.975,581.495 434.184,560.141C437.928,544.79 441.73,528.974 446.212,517.967C452.385,502.806 456.652,501.386 462.577,502.677C470.796,504.467 468.108,514.863 473.093,518.769ZM435,577.722L436.194,574.017C443.88,574.432 450.92,574.746 457.312,574.959C463.705,575.171 468.528,575.271 471.783,575.257C473.663,575.229 474.867,575.07 475.394,574.78C475.921,574.49 476.309,573.957 476.559,573.182L476.697,572.751L478.571,573.354C478.139,574.451 477.756,575.457 477.422,576.372C477.088,577.287 476.819,578.06 476.615,578.692C476.356,579.497 476.09,580.386 475.815,581.359C475.541,582.333 475.266,583.37 474.991,584.47L473.117,583.866L473.249,583.457C473.577,582.437 473.654,581.693 473.48,581.225C473.306,580.757 472.826,580.396 472.041,580.143C471.755,580.051 471.429,579.978 471.063,579.923C470.696,579.869 470.251,579.828 469.728,579.802L460.856,579.275C460.68,579.82 460.431,580.564 460.108,581.506C459.499,583.212 459.116,584.31 458.959,584.798C458.644,585.774 458.351,586.699 458.08,587.57C457.809,588.442 457.541,589.35 457.276,590.295C460.142,592.344 462.247,593.791 463.59,594.636C464.933,595.481 465.917,596.004 466.542,596.205C467.416,596.486 468.088,596.497 468.556,596.235C469.024,595.974 469.413,595.362 469.723,594.4L469.911,593.819L471.785,594.422C471.375,595.448 471.006,596.41 470.677,597.311C470.347,598.211 470.067,599.021 469.835,599.739C469.65,600.313 469.437,601.037 469.195,601.91C468.953,602.783 468.706,603.734 468.454,604.762L466.606,604.167C466.899,603.136 466.905,602.246 466.624,601.498C466.343,600.75 465.721,599.975 464.758,599.173C462.929,597.696 459.208,594.924 453.594,590.857C447.98,586.79 441.782,582.411 435,577.722ZM440.345,578.374L454.764,588.464C454.852,588.191 454.988,587.799 455.172,587.287C455.749,585.682 456.132,584.585 456.321,583.996C456.553,583.278 456.945,581.97 457.497,580.071C457.613,579.649 457.706,579.33 457.776,579.115L440.345,578.374ZM481.373,566.879C483.749,568.91 480.59,572.45 478.071,570.751C472.043,566.684 449.238,549.084 444.071,544.251C443.121,543.361 445.958,541.076 447.071,541.751C453.288,545.522 475.995,562.281 481.373,566.879ZM454.505,525.988C453.76,528.3 454.468,530.428 456.629,532.374C458.789,534.32 462.439,536.12 467.579,537.776C473.576,539.708 478.349,540.512 481.9,540.19C485.452,539.867 487.635,538.44 488.451,535.908C489.19,533.612 488.468,531.483 486.283,529.521C484.098,527.559 480.409,525.741 475.216,524.068C469.326,522.171 464.605,521.388 461.051,521.718C457.497,522.049 455.315,523.472 454.505,525.988ZM474.679,502.7C473.965,503.291 473.46,504.043 473.249,504.921C472.579,507.722 475.163,510.746 479.017,511.669C482.799,512.575 486.408,511.123 487.175,508.422C486.265,508.278 485.414,508.129 484.629,507.993C484.451,507.963 484.277,507.923 484.104,507.918C482.237,507.86 480.821,507.912 479.786,507.673C479.075,507.51 478.615,507.11 478.183,506.817C477.377,506.272 476.545,505.677 475.818,504.791C475.556,504.472 475.361,504.091 475.162,503.702C474.996,503.378 474.835,503.044 474.679,502.7ZM480.965,501.416C481.299,502.037 481.47,502.67 481.817,503.183C481.789,503.141 481.657,503.159 481.657,503.159C481.657,503.159 483.013,504.331 484.397,504.516C484.997,504.595 485.644,504.609 486.331,504.571C485.311,503.175 483.572,502.028 481.448,501.519C481.287,501.48 481.125,501.446 480.965,501.416ZM524.443,501.609C524.509,501.861 524.605,502.107 524.731,502.343C525.803,504.365 528.653,504.957 531.091,503.664C533.529,502.371 534.637,499.679 533.564,497.657C532.823,496.259 531.231,495.544 529.514,495.664C529.234,496.145 528.958,496.598 528.688,497.025C528.191,498.532 526.686,500.096 524.443,501.609Z" style="fill:white;"/>
    </g>
</svg>
