<?xml version="1.0" encoding="UTF-8" standalone="no"?>
<!DOCTYPE svg PUBLIC "-//W3C//DTD SVG 1.1//EN" "http://www.w3.org/Graphics/SVG/1.1/DTD/svg11.dtd">
<svg width="100%" height="100%" viewBox="0 0 1000 1000" version="1.1" xmlns="http://www.w3.org/2000/svg" xmlns:xlink="http://www.w3.org/1999/xlink" xml:space="preserve" xmlns:serif="http://www.serif.com/" style="fill-rule:evenodd;clip-rule:evenodd;stroke-linejoin:round;stroke-miterlimit:2;">
    <g transform="matrix(2.0577,0,0,2.0577,-611.158,-611.158)">
        <path d="M540,712.5L535,642.5C530.545,639.438 530.682,636.097 535,632.5L535,617.5C478.873,613.274 438.02,611.431 415,594.983C378.917,569.201 359.797,533.046 350,492.5C336.663,482.439 333.781,487.085 335,497.5C321.646,490.771 317.54,481.023 325,467.5C326.545,464.233 330.92,462.277 340,462.5C340.881,458.014 342.64,454.817 345,452.5C360.506,446.601 369.622,450.411 370,467.5C352.345,471.277 353.129,476.464 365,482.5L415,487.5C392.062,471.844 381.312,456.248 383.618,442.5C387.559,419.01 404.591,404.753 432.236,403.697C438.995,403.439 445.555,405.478 455,421.381C458.896,427.941 459.709,424.037 450,452.5C440.968,433.511 435.627,429.074 431.924,430.135C415.845,434.745 414.793,443.223 420,452.545C431.518,473.164 470.184,490.629 485,477.5C503.102,461.459 501.193,428.529 465,447.5C460.778,429.36 480.249,408.945 497.461,418.863C520.698,432.252 525.403,462.715 520,482.515C515.73,498.161 502.837,510.26 480,512.5C489.001,520.763 495.582,531.768 500,545.227C509.695,575.995 521.566,593.875 535,602.5C538.387,578.055 532.999,554.773 520,532.5C532.687,496.441 536.67,449.384 540,401.5C543.33,449.384 547.313,496.441 560,532.5C547.001,554.773 541.613,578.055 545,602.5C558.434,593.875 570.305,575.995 580,545.227C584.418,531.768 590.999,520.763 600,512.5C577.163,510.26 564.27,498.161 560,482.515C554.597,462.715 559.302,432.252 582.539,418.863C599.751,408.945 619.222,429.36 615,447.5C578.807,428.529 576.898,461.459 595,477.5C609.816,490.629 648.482,473.164 660,452.545C665.207,443.223 664.155,434.745 648.076,430.135C644.373,429.074 639.032,433.511 630,452.5C620.291,424.037 621.104,427.941 625,421.381C634.445,405.478 641.005,403.439 647.764,403.697C675.409,404.753 692.441,419.01 696.382,442.5C698.688,456.248 687.938,471.844 665,487.5L715,482.5C726.871,476.464 727.655,471.277 710,467.5C710.378,450.411 719.494,446.601 735,452.5C737.36,454.817 739.119,458.014 740,462.5C749.08,462.277 753.455,464.233 755,467.5C762.46,481.023 758.354,490.771 745,497.5C746.219,487.085 743.337,482.439 730,492.5C720.203,533.046 701.083,569.201 665,594.983C641.98,611.431 601.127,613.274 545,617.5L545,632.5C549.318,636.097 549.455,639.438 545,642.5L540,712.5ZM630,592.5C609.76,584.318 598.312,569.144 595,547.5L575,592.5L630,592.5ZM450,592.5C470.24,584.318 481.688,569.144 485,547.5L505,592.5L450,592.5ZM642.5,512.5C660.437,512.5 675,527.063 675,545C675,562.937 660.437,577.5 642.5,577.5C624.563,577.5 610,562.937 610,545C610,527.063 624.563,512.5 642.5,512.5ZM437.5,512.5C419.563,512.5 405,527.063 405,545C405,562.937 419.563,577.5 437.5,577.5C455.437,577.5 470,562.937 470,545C470,527.063 455.437,512.5 437.5,512.5ZM642.5,522.5C654.918,522.5 665,532.582 665,545C665,557.418 654.918,567.5 642.5,567.5C630.082,567.5 620,557.418 620,545C620,532.582 630.082,522.5 642.5,522.5ZM437.5,522.5C425.082,522.5 415,532.582 415,545C415,557.418 425.082,567.5 437.5,567.5C449.918,567.5 460,557.418 460,545C460,532.582 449.918,522.5 437.5,522.5ZM437.5,535C431.981,535 427.5,539.481 427.5,545C427.5,550.519 431.981,555 437.5,555C443.019,555 447.5,550.519 447.5,545C447.5,539.481 443.019,535 437.5,535ZM642.5,535C648.019,535 652.5,539.481 652.5,545C652.5,550.519 648.019,555 642.5,555C636.981,555 632.5,550.519 632.5,545C632.5,539.481 636.981,535 642.5,535ZM655,501.5C682.253,504.642 688.954,521.662 690,542.5C699.213,529.913 706.505,515.505 710,497.5L655,501.5ZM425,501.5C397.747,504.642 391.046,521.662 390,542.5C380.787,529.913 373.495,515.505 370,497.5L425,501.5ZM477.5,367.5L483,394.5L462,422.5L460,387.5L477.5,367.5ZM602.5,367.5L597,394.5L618,422.5L620,387.5L602.5,367.5Z" style="fill:white;"/>
    </g>
</svg>
