<?xml version="1.0" encoding="UTF-8" standalone="no"?>
<!DOCTYPE svg PUBLIC "-//W3C//DTD SVG 1.1//EN" "http://www.w3.org/Graphics/SVG/1.1/DTD/svg11.dtd">
<svg width="100%" height="100%" viewBox="0 0 1000 1000" version="1.1" xmlns="http://www.w3.org/2000/svg" xmlns:xlink="http://www.w3.org/1999/xlink" xml:space="preserve" xmlns:serif="http://www.serif.com/" style="fill-rule:evenodd;clip-rule:evenodd;stroke-linejoin:round;stroke-miterlimit:2;">
    <g transform="matrix(17.0154,0,0,17.0154,-2618.08,-5141.53)">
        <path d="M177.5,356.5C178.333,357 179.167,357.5 180,358L180,349C183.608,346.47 189.01,343.714 194.161,340.674C198.308,338.227 200.281,334.232 201,330.5C197.72,330.275 194.698,330.135 192.5,331.41C187.139,334.52 186.585,340.165 184.653,342.638C182.274,345.682 180.839,346.953 180,347C179.348,339.101 180.2,331.262 183,323.5C185.079,321.641 185.736,326.607 188,325.995C190.736,325.257 192.826,325.733 195,326.5C193.8,321.742 190.949,319.02 185.5,319.5C186.397,318.771 187.228,317.274 188.411,317.5C191.298,318.051 194.502,318.929 196.5,317.273C199.938,314.424 203.548,311.493 208,310.5C201.877,305.021 196.756,303.946 191,306.242C189.331,306.907 188.068,308.322 186.555,310C184.76,311.993 185.076,315.067 184.484,316.5C183.666,318.481 183.023,319.237 182.5,319.5C182.598,314.721 181.157,311.977 177.5,311.415C175.294,311.077 172.301,312.912 168.5,316.5C171.633,318.172 173.613,319.945 174,322.392C174.289,324.217 176.511,324.162 178,323.44C179.127,322.893 178.523,320.301 182,321L179.5,327.5C176.164,329.295 175.008,323.995 173,323.435C167.209,321.818 162.642,326.344 158.5,333C162.096,333.89 167.137,336.346 170,333.291C173.326,329.744 176.237,329.158 179,330C177.468,338.06 177.494,347.287 177.5,356.5Z" style="fill:white;"/>
    </g>
</svg>
