<?xml version="1.0" encoding="UTF-8" standalone="no"?>
<!DOCTYPE svg PUBLIC "-//W3C//DTD SVG 1.1//EN" "http://www.w3.org/Graphics/SVG/1.1/DTD/svg11.dtd">
<svg width="100%" height="100%" viewBox="0 0 1000 1000" version="1.1" xmlns="http://www.w3.org/2000/svg" xmlns:xlink="http://www.w3.org/1999/xlink" xml:space="preserve" xmlns:serif="http://www.serif.com/" style="fill-rule:evenodd;clip-rule:evenodd;stroke-linejoin:round;stroke-miterlimit:2;">
    <g transform="matrix(2.9337,0,0,2.9337,-1017.76,-888.783)">
        <path d="M559.351,554.79C580.467,590.892 597.014,620.415 599.963,625.874C599.751,626.418 599.869,626.743 600.432,626.78C600.446,626.781 600.286,626.472 599.963,625.874C601.312,622.406 616.085,610.049 614.249,606.954C607.53,598.094 601.179,589.033 595.144,579.798C583.951,571.889 571.818,563.394 559.351,554.79ZM410.786,449.656C411.222,449.475 432.898,463.245 442.823,471.893C451.339,479.313 466.05,492.334 486.364,503.866C495.659,509.144 505.663,514.829 515.593,521.381C576.491,561.565 646.972,612.953 655.229,619.189C655.263,619.771 655.505,620.018 656.032,619.818C656.046,619.813 655.772,619.598 655.229,619.189C655.015,615.474 663.314,598.094 660.357,596.042C638.88,584.497 618.607,571.332 599.164,557.057C587.594,548.563 575.318,541.046 564.181,532.046C529.536,504.046 480.631,472.929 456.607,457.288C449.221,452.48 444.719,444.856 422.717,434.21C419.334,440.267 415.357,445.416 410.786,449.656C410.783,449.657 410.781,449.659 410.78,449.661L410.786,449.656ZM407.135,452.294C407.059,452.449 407.004,452.617 406.97,452.795C406.215,456.84 404.73,460.523 404.719,464.72C404.718,465.049 404.723,465.377 404.734,465.706C404.257,467.151 403.748,468.605 403.246,470.088C400.348,478.656 397.506,487.098 397.169,496.204C397.014,500.374 397.193,504.635 398.652,508.589C400.425,513.391 403.606,517.559 405.84,522.165C407.989,526.597 409.556,531.305 411.724,535.74C414.142,540.685 417.257,545.288 420.4,549.779C420.651,550.137 420.9,550.504 421.147,550.877C421.355,552.235 421.587,553.588 421.862,554.934C422.588,558.493 423.882,561.571 426.22,564.375C426.761,565.024 427.341,565.637 427.946,566.228C428.152,566.429 428.361,566.628 428.573,566.822C428.522,566.776 428.394,566.63 428.394,566.63C428.394,566.63 429.421,567.507 429.694,567.574C430.174,567.693 430.616,567.635 431.021,567.451C431.398,567.278 431.836,566.976 432.087,566.296C432.279,565.775 432.317,564.934 432.056,563.977C431.746,562.843 431.023,561.368 430.8,560.802C429.302,556.994 427.227,552.941 424.956,549.397C423.919,542.499 423.394,535.515 421.027,528.887C419.993,525.994 418.422,523.421 416.879,520.835C415.489,518.503 414.12,516.162 413.337,513.48C412.12,509.308 411.877,505.009 411.597,500.696C411.217,494.825 411.031,488.948 410.857,483.068C410.689,477.417 409.014,471.858 408.754,466.235C410.19,461.746 411.289,457.304 411.127,452.387C411.091,451.284 410.166,450.418 409.063,450.454C408.035,450.488 407.213,451.292 407.135,452.294ZM405.865,474.848C403.525,481.868 401.443,488.871 401.166,496.353C401.03,500.004 401.127,503.742 402.405,507.204C404.132,511.884 407.262,515.931 409.439,520.419C411.587,524.848 413.151,529.552 415.318,533.983C416.667,536.742 418.245,539.389 419.924,541.968C419.351,537.992 418.623,534.051 417.26,530.232C415.268,524.657 411.17,520.335 409.497,514.601C408.197,510.146 407.904,505.56 407.606,500.955C407.222,495.037 407.034,489.113 406.858,483.187C406.775,480.391 406.329,477.618 405.865,474.848ZM526.819,500.248C539.783,509.345 552.663,518.789 564.117,527.941C560.347,521.649 556.648,515.323 553.381,508.768C533.511,468.9 501.967,420.269 486.619,396.057C481.9,388.614 480.976,379.808 465.39,360.979C459.796,365.082 454.038,368.111 448.118,370.067C448.114,370.067 448.112,370.068 448.11,370.07L448.118,370.067C448.589,370.084 462.579,391.619 468.011,403.61C472.672,413.898 480.639,431.857 494.32,450.79C500.581,459.454 507.316,468.783 513.623,478.871C517.99,485.855 522.409,493.02 526.819,500.248ZM438.317,472.243C438.26,472.496 438.205,472.751 438.15,473.006C437.413,476.434 437.403,479.736 438.263,483.147C438.546,484.269 438.924,485.367 439.357,486.439C439.473,486.726 439.617,487.373 439.746,487.683C439.95,488.172 440.237,488.47 440.428,488.624C441.093,489.161 441.776,489.188 442.407,488.96C442.763,488.831 443.354,488.559 443.673,487.657C444.72,484.702 445.018,481.33 444.907,477.891C443.389,476.581 442.002,475.368 440.747,474.275C440,473.624 439.185,472.944 438.317,472.243ZM395.58,439.116C401.186,433.269 405.367,427.841 408.087,422.842L419.841,432.215C417.649,437.901 413.674,443.21 407.619,448.077L395.58,439.116ZM435.822,437.659C437.266,438.527 438.598,439.37 439.833,440.188C439.81,439.111 439.81,438.036 439.834,436.963C440.003,429.673 442.135,422.937 444.385,416.219L444.602,415.571C445.528,418.642 446.373,421.748 446.961,424.943C448.157,431.432 447.494,438.225 446.014,444.636C447.268,445.616 448.4,446.551 449.449,447.441C449.516,447.179 449.581,446.916 449.646,446.654C451.433,439.392 452.259,431.621 450.895,424.219C449.942,419.044 448.286,414.111 446.714,409.173C448.211,404.439 449.491,399.634 450.006,394.597C450.715,387.655 449.328,380.872 446.925,374.413C447.028,373.515 446.507,372.634 445.629,372.311C445.124,372.027 444.5,371.964 443.918,372.191C442.977,372.56 442.472,373.564 442.703,374.52C440.945,379.409 438.739,383.584 438.727,389.031C438.712,396.076 440.543,402.57 442.564,409.037C441.924,411.014 441.251,412.98 440.592,414.949C438.215,422.045 436.013,429.171 435.835,436.871C435.829,437.134 435.825,437.397 435.822,437.659ZM377.729,415.168C366.985,423.096 380.257,430.586 388.94,438.16C389.729,438.842 390.624,439.162 391.849,438.353C397.926,433.367 406.418,423.153 404.39,420.277L391.881,406.73C388.316,403.138 378.466,408.285 377.729,415.168ZM444.674,380.411C443.614,383.124 442.734,385.836 442.727,389.039C442.718,393.566 443.498,397.858 444.603,402.062C445.246,399.49 445.752,396.875 446.026,394.19C446.506,389.494 445.91,384.883 444.674,380.411ZM438.67,354.159C446.199,351.172 452.257,347.974 456.81,344.559L463.604,357.969C459.246,362.229 453.425,365.405 445.894,367.315L438.67,354.159ZM432.389,324.958C419.323,327.703 428.279,340.032 433.028,350.53C433.462,351.478 434.143,352.142 435.594,351.915C443.193,349.907 455.163,344.147 454.514,340.689L448.768,323.167C447.02,318.418 435.921,319.005 432.389,324.958Z" style="fill:white;"/>
    </g>
</svg>
