<?xml version="1.0" encoding="UTF-8" standalone="no"?>
<!DOCTYPE svg PUBLIC "-//W3C//DTD SVG 1.1//EN" "http://www.w3.org/Graphics/SVG/1.1/DTD/svg11.dtd">
<svg width="100%" height="100%" viewBox="0 0 1000 1000" version="1.1" xmlns="http://www.w3.org/2000/svg" xmlns:xlink="http://www.w3.org/1999/xlink" xml:space="preserve" xmlns:serif="http://www.serif.com/" style="fill-rule:evenodd;clip-rule:evenodd;stroke-linejoin:round;stroke-miterlimit:2;">
    <g transform="matrix(1.53569,0,0,1.53569,-167.98,-319.977)">
        <path d="M417.228,621.022C417.152,593.639 412.252,597.674 402.264,590.316L318.897,556.323L416.668,557.698L240.822,513.589L248.66,533.021L141.943,500L727.999,304.482L576.862,417.747L703.44,372.372L578.42,464.209L657.783,440.477L488.349,571.84C472.059,588.766 467.816,584.013 467.816,621.675L467.007,657.451C467.007,690.788 479.189,693.172 493.318,691.01L542.186,680.358L442.522,763.413L342.858,680.358L391.726,691.01C405.856,693.172 418.038,690.788 418.038,657.451L417.229,621.675L417.228,621.022ZM487.33,448.693L347.208,490.958L419.584,512.775L487.33,448.693Z" style="fill:white;"/>
    </g>
</svg>
