<?xml version="1.0" encoding="UTF-8" standalone="no"?>
<!DOCTYPE svg PUBLIC "-//W3C//DTD SVG 1.1//EN" "http://www.w3.org/Graphics/SVG/1.1/DTD/svg11.dtd">
<svg width="100%" height="100%" viewBox="0 0 1000 1000" version="1.1" xmlns="http://www.w3.org/2000/svg" xmlns:xlink="http://www.w3.org/1999/xlink" xml:space="preserve" xmlns:serif="http://www.serif.com/" style="fill-rule:evenodd;clip-rule:evenodd;stroke-linejoin:round;stroke-miterlimit:2;">
    <g transform="matrix(1.71756,0,0,1.71756,-358.779,-358.779)">
        <path d="M470,475.527C433.398,458.081 403.272,427.279 376,392C372.679,406.406 379.379,423.213 386,440C374.336,419.601 367.476,398.41 368,376C351.506,390.94 341.001,412.984 333,438C338.008,414.12 345.951,391.214 362,371C336.321,372.022 311.386,379.964 287,393C304.972,378.53 327.952,368.577 358,365C315.776,364.41 280.055,355.882 252,338C284.903,353.31 324.365,360.04 369,360C381.778,397.902 410.555,434.961 470,470.405L470,460L491.299,460L491.384,455.137L491.562,445.251L491.633,441.194L491.704,436.962L491.766,432.93L491.814,429.533L491.859,425.898L491.894,422.44L491.911,420.509L491.924,418.653L491.936,416.701L491.941,415.627L491.948,413.42L491.951,411.002L491.949,408.906L491.943,406.896L491.932,404.768L491.918,402.897L491.901,401.037L491.873,398.759L491.854,397.456L491.829,395.908L491.781,393.413L491.743,391.71L491.702,390.014L491.655,388.323L491.605,386.636L491.548,384.913L491.481,383.057L491.424,381.592L491.345,379.714L491.263,377.93L491.194,376.49L491.12,375.065L491.033,373.473L490.931,371.724L490.8,369.635L490.763,369.067L490.652,367.447L490.584,366.5L490.442,364.602L490.284,362.604L490.144,360.949L490.034,359.71L489.853,357.761L489.697,356.161L489.518,354.429L489.359,352.948L489.204,351.562L488.992,349.755L488.808,348.254L488.605,346.664L488.456,345.546L488.351,344.774L488.169,343.468L487.918,341.74L487.692,340.245L487.431,338.587L487.178,337.049L486.953,335.721L486.636,333.926L486.46,332.965L486.181,331.48L486.007,330.585L485.716,329.122L485.376,327.472L485.023,325.828L484.67,324.244L484.416,323.144L484.141,321.978L483.902,320.992L483.692,320.14L483.373,318.884L483.18,318.137L482.975,317.362L482.684,316.28L482.405,315.27L482.259,314.749L482.015,313.893L500,274L517.985,313.893L517.688,314.937L517.456,315.768L517.233,316.586L517.025,317.362L516.681,318.675L516.269,320.297L516.019,321.314L515.709,322.607L515.444,323.749L515.145,325.067L514.924,326.072L514.56,327.776L514.272,329.179L513.99,330.6L513.765,331.766L513.577,332.763L513.249,334.572L512.931,336.399L512.715,337.693L512.427,339.48L512.181,341.077L511.933,342.756L511.728,344.198L511.496,345.905L511.266,347.669L511.061,349.315L510.885,350.792L510.649,352.874L510.464,354.601L510.319,356.007L510.188,357.337L509.976,359.603L509.795,361.667L509.665,363.241L509.53,364.963L509.404,366.663L509.297,368.172L509.188,369.814L509.058,371.906L508.961,373.582L508.878,375.108L508.838,375.86L508.756,377.516L508.678,379.195L508.602,380.952L508.54,382.508L508.472,384.349L508.411,386.142L508.361,387.777L508.31,389.563L508.262,391.478L508.22,393.364L508.191,394.826L508.172,395.873L508.143,397.638L508.123,399.095L508.099,401.037L508.081,402.98L508.068,404.766L508.056,407.266L508.05,409.631L508.049,411.46L508.052,413.282L508.057,415.008L508.067,417.197L508.077,418.897L508.088,420.314L508.107,422.613L508.139,425.724L508.182,429.226L508.207,431.085L508.234,432.93L508.292,436.729L508.367,441.194L508.439,445.291L508.627,455.728L508.701,460C508.701,460 530,460 530,460L530,470.405C589.445,434.961 618.222,397.902 631,360C675.635,360.04 715.097,353.31 748,338C719.945,355.882 684.224,364.41 642,365C672.048,368.577 695.028,378.53 713,393C688.614,379.964 663.679,372.022 638,371C654.049,391.214 661.992,414.12 667,438C658.999,412.984 648.494,390.94 632,376C632.524,398.41 625.664,419.601 614,440C620.621,423.213 627.321,406.406 624,392C596.728,427.279 566.602,458.081 530,475.527L530,477.512C574.82,455.487 598.123,425.495 623,397C620.037,417.382 612.615,439.161 605,461C600.767,459.223 595.214,458.454 589,459.889C575.004,463.121 554.821,473.22 530,480.7L530,519.3C554.821,526.78 575.004,536.879 589,540.111C595.214,541.546 600.767,540.777 605,539C612.615,560.839 620.037,582.618 623,603C598.123,574.505 574.82,544.513 530,522.488L530,524.473C566.602,541.919 596.728,572.721 624,608C627.321,593.594 620.621,576.787 614,560C625.664,580.399 632.524,601.59 632,624C648.494,609.06 658.999,587.016 667,562C661.992,585.88 654.049,608.786 638,629C663.679,627.978 688.614,620.036 713,607C695.028,621.47 672.048,631.423 642,635C684.224,635.59 719.945,644.118 748,662C715.097,646.69 675.635,639.96 631,640C618.222,602.098 589.445,565.039 530,529.595L530,540L508.701,540L508.616,544.863L508.439,554.709L508.367,558.806L508.292,563.271L508.234,567.07L508.207,568.915L508.182,570.774L508.135,574.626L508.107,577.387L508.088,579.686L508.073,581.702L508.063,583.581L508.055,585.471L508.05,587.466L508.049,589.49L508.05,590.369L508.057,593.051L508.068,595.234L508.081,597.02L508.099,598.963L508.123,600.905L508.153,602.986L508.172,604.127L508.204,605.862L508.241,607.631L508.283,609.374L508.328,611.069L508.377,612.758L508.434,614.539L508.491,616.188L508.54,617.492L508.621,619.5L508.685,620.963L508.756,622.484L508.838,624.14L508.918,625.641L509.017,627.391L509.058,628.094L509.199,630.352L509.307,631.972L509.404,633.337L509.53,635.037L509.665,636.759L509.797,638.358L509.999,640.658L510.188,642.663L510.319,643.997L510.5,645.743L510.649,647.126L510.885,649.208L511.061,650.685L511.266,652.331L511.496,654.095L511.728,655.802L511.986,657.609L512.24,659.306L512.455,660.695L512.724,662.363L512.963,663.787L513.249,665.428L513.577,667.237L513.878,668.822L513.99,669.4L514.285,670.887L514.592,672.376L514.924,673.928L515.157,674.986L515.535,676.644L515.859,678.022L516.081,678.94L516.292,679.795L516.681,681.325L517.025,682.638L517.262,683.522L517.456,684.232L517.688,685.063L517.985,686.107L500,726L482.015,686.107L482.259,685.251L482.495,684.409L482.721,683.584L482.975,682.638L483.196,681.801L483.547,680.434L483.902,679.008L484.292,677.386L484.67,675.756L485.04,674.093L485.378,672.517L485.728,670.821L486.007,669.415L486.202,668.41L486.46,667.035L486.655,665.97L486.964,664.215L487.197,662.838L487.469,661.171L487.718,659.582L487.958,657.99L488.194,656.353L488.351,655.226L488.456,654.454L488.662,652.895L488.865,651.286L489.065,649.631L489.222,648.281L489.387,646.795L489.555,645.227L489.727,643.531L489.868,642.09L490.034,640.29L490.167,638.78L490.3,637.198L490.442,635.398L490.584,633.5L490.661,632.426L490.821,630.043L490.931,628.276L491.033,626.527L491.12,624.935L491.205,623.293L491.291,621.479L491.367,619.78L491.426,618.371L491.505,616.288L491.555,614.876L491.605,613.364L491.655,611.677L491.702,609.986L491.743,608.29L491.781,606.587L491.829,604.092L491.854,602.544L491.877,600.905L491.901,598.963L491.918,597.103L491.932,595.232L491.943,593.104L491.95,590.577L491.951,588.616L491.948,586.58L491.941,584.373L491.932,582.512L491.919,580.593L491.892,577.324L491.855,573.798L491.809,570.112L491.766,567.07L491.704,563.038L491.633,558.806L491.562,554.749L491.384,544.863L491.299,540L470,540L470,529.595C410.555,565.039 381.778,602.098 369,640C324.365,639.96 284.903,646.69 252,662C280.055,644.118 315.776,635.59 358,635C327.952,631.423 304.972,621.47 287,607C311.386,620.036 336.321,627.978 362,629C345.951,608.786 338.008,585.88 333,562C341.001,587.016 351.506,609.06 368,624C367.476,601.59 374.336,580.399 386,560C379.379,576.787 372.679,593.594 376,608C403.272,572.721 433.398,541.919 470,524.473L470,522.488C425.18,544.513 401.877,574.505 377,603C379.963,582.618 387.385,560.839 395,539C399.233,540.777 404.786,541.546 411,540.111C424.996,536.879 445.179,526.78 470,519.3L470,480.7C445.179,473.22 424.996,463.121 411,459.889C404.786,458.454 399.233,459.223 395,461C387.385,439.161 379.963,417.382 377,397C401.877,425.495 425.18,455.487 470,477.512L470,475.527ZM345,634C299.028,635.438 266.162,648.824 238,666.5C253.735,649.202 265.944,627.107 273,598C290.05,614.817 310.517,629.265 345,634ZM655,634C700.972,635.438 733.838,648.824 762,666.5C746.265,649.202 734.056,627.107 727,598C709.95,614.817 689.483,629.265 655,634ZM330,555C334.714,579.556 342.238,603.774 358,627C327.113,623.692 299.496,613.927 275,598C299.235,596.213 317.387,581.494 330,555ZM670,555C665.286,579.556 657.762,603.774 642,627C672.887,623.692 700.504,613.927 725,598C700.765,596.213 682.613,581.494 670,555ZM391,543C379.609,564.985 369.913,589.054 365,619C349.416,599.273 338.092,577.434 332,553C354.508,558.139 374.264,555.075 391,543ZM609,543C620.391,564.985 630.087,589.054 635,619C650.584,599.273 661.908,577.434 668,553C645.492,558.139 625.736,555.075 609,543ZM505.032,466.961L504.333,466.773L503.72,466.633L502.859,466.472L502.181,466.378L501.947,466.35L501.368,466.296L500.647,466.254L500,466.242C500,466.242 499.404,466.253 499.404,466.253L498.723,466.288L497.996,466.356L497.263,466.453L496.946,466.505L496.36,466.616L495.506,466.814L494.931,466.972L494.343,467.154L493.606,467.412C493.606,467.412 493.015,467.646 493.015,467.646L492.322,467.947L491.72,468.236L491.066,468.577L490.706,468.777L490.145,469.109L489.79,469.33L489.209,469.714L488.607,470.138L488.026,470.577L487.554,470.953L486.975,471.444L486.382,471.979L485.788,472.547L485.418,472.921L484.949,473.417L484.559,473.849L484.088,474.397L483.639,474.944L483.302,475.369L482.795,476.044L482.49,476.471L482.046,477.118L481.637,477.746L481.163,478.517L480.724,479.274L480.327,479.993L479.952,480.715L479.596,481.441L479.232,482.227L478.892,483.008L478.592,483.738L478.26,484.596L477.915,485.562L477.605,486.503L477.375,487.254L477.102,488.22L476.869,489.127L476.682,489.912L476.447,491.017L476.306,491.762L476.234,492.165L476.126,492.82L475.994,493.722L475.887,494.561L475.795,495.414L475.713,496.336L475.65,497.253L475.604,498.214L475.579,499.14L475.57,500L475.579,500.86L475.604,501.786L475.65,502.747L475.713,503.664L475.795,504.586L475.887,505.439L475.994,506.278L476.126,507.18L476.234,507.835L476.414,508.814L476.594,509.678L476.739,510.331L476.869,510.873L477.102,511.78L477.403,512.842L477.627,513.569L477.915,514.438L478.26,515.404L478.592,516.262L478.892,516.992L479.273,517.865L479.596,518.559L479.952,519.285L480.327,520.007L480.724,520.726L481.163,521.483L481.637,522.254L482.046,522.882L482.508,523.555L482.848,524.028L483.337,524.677L483.887,525.363L484.088,525.603L484.598,526.196L485.175,526.825L485.418,527.079L485.864,527.527L486.382,528.021L486.975,528.556L487.554,529.047L488.026,529.423L488.607,529.862L489.209,530.286L489.79,530.67L490.145,530.891L490.706,531.223L491.228,531.511L491.917,531.862L492.388,532.083L493.015,532.354L493.606,532.588L494.386,532.86L495.198,533.104L495.603,533.211L496.36,533.384L496.946,533.495L497.351,533.56L497.996,533.644L498.723,533.712L499.404,533.747L500,533.758C500,533.758 500.647,533.746 500.647,533.746L501.368,533.704L501.947,533.65L502.181,533.622L502.876,533.525L503.8,533.35L504.439,533.2L505.083,533.024L505.736,532.82L506.234,532.644L506.742,532.453L507.356,532.197L507.805,531.994L508.457,531.676L508.833,531.479L509.493,531.109L510.056,530.769L510.681,530.363L511.24,529.974L511.794,529.564L512.291,529.172L512.881,528.682L513.476,528.154L513.977,527.682L514.597,527.063L515.161,526.463L515.633,525.933L516.284,525.154L516.751,524.563L517.273,523.861L517.587,523.42L518.016,522.789L518.361,522.257L518.813,521.525L519.183,520.892L519.367,520.563L519.768,519.825L520.159,519.06L520.541,518.27L520.921,517.425L521.052,517.122L521.355,516.396L521.625,515.707L521.841,515.128L522.219,514.038L522.431,513.383L522.69,512.522L522.952,511.576L523.16,510.758L523.41,509.672L523.566,508.916L523.706,508.179L523.849,507.339L523.978,506.488L524.09,505.636L524.187,504.767L524.252,504.077L524.322,503.174L524.374,502.286L524.411,501.346L524.427,500.451L524.427,499.549L524.407,498.552L524.374,497.714L524.322,496.826L524.252,495.923L524.187,495.233L524.09,494.364L523.978,493.512L523.849,492.661L523.706,491.821L523.566,491.084L523.394,490.258L523.16,489.242L522.952,488.424L522.69,487.478L522.409,486.546L522.219,485.962L521.841,484.872L521.625,484.293L521.355,483.604L521.052,482.878L520.921,482.575L520.541,481.73L520.159,480.94L519.768,480.175L519.367,479.437L519.183,479.108L518.813,478.475L518.361,477.743L517.983,477.161L517.581,476.572L517.237,476.088L516.751,475.437L516.284,474.846L515.58,474.007L515.061,473.428L514.597,472.937L513.926,472.269L513.45,471.821L512.881,471.318L512.291,470.828L511.794,470.436L511.24,470.026L510.681,469.637L510.056,469.231L509.493,468.891L508.833,468.521L508.312,468.251L507.805,468.006L507.356,467.803L506.742,467.547L506.234,467.356L505.677,467.161L505.032,466.961ZM289,488L447.428,492L447.428,508L289,512L289,488ZM711,512L711,488L552.572,492L552.572,508L711,512ZM609,457C620.391,435.015 630.087,410.946 635,381C650.584,400.727 661.908,422.566 668,447C645.492,441.861 625.736,444.925 609,457ZM391,457C379.609,435.015 369.913,410.946 365,381C349.416,400.727 338.092,422.566 332,447C354.508,441.861 374.264,444.925 391,457ZM670,445C665.286,420.444 657.762,396.226 642,373C672.887,376.308 700.504,386.073 725,402C700.765,403.787 682.613,418.506 670,445ZM330,445C334.714,420.444 342.238,396.226 358,373C327.113,376.308 299.496,386.073 275,402C299.235,403.787 317.387,418.506 330,445ZM655,366C700.972,364.562 733.838,351.176 762,333.5C746.265,350.798 734.056,372.893 727,402C709.95,385.183 689.483,370.735 655,366ZM345,366C299.028,364.562 266.162,351.176 238,333.5C253.735,350.798 265.944,372.893 273,402C290.05,385.183 310.517,370.735 345,366Z" style="fill:white;"/>
    </g>
</svg>
