<?xml version="1.0" encoding="UTF-8" standalone="no"?>
<!DOCTYPE svg PUBLIC "-//W3C//DTD SVG 1.1//EN" "http://www.w3.org/Graphics/SVG/1.1/DTD/svg11.dtd">
<svg width="100%" height="100%" viewBox="0 0 1000 1000" version="1.1" xmlns="http://www.w3.org/2000/svg" xmlns:xlink="http://www.w3.org/1999/xlink" xml:space="preserve" xmlns:serif="http://www.serif.com/" style="fill-rule:evenodd;clip-rule:evenodd;stroke-linejoin:round;stroke-miterlimit:2;">
    <path d="M450.292,666.539C452.741,666.988 453.667,668.016 453.189,669.576C455.294,674.481 413.635,698.45 407.724,693.297C416.483,716.186 384.388,735.948 382.65,695.275C376.543,696.113 372.791,695.651 371.219,693.985C367.471,690.011 376.129,679.187 394.867,662.795C435.056,627.641 466.528,646.043 450.292,666.539ZM125.829,647.304C124.224,647.251 122.563,647.417 121.135,647.858C117.35,649.024 115.197,652.114 120.046,658.139C123.968,663.012 132.322,657.324 133.059,652.44C137.985,651.459 141.542,643.669 135.261,638.821C131.583,635.983 128.409,637.355 126.738,640.145C125.539,642.146 125.113,644.876 125.829,647.304ZM224.124,633.467C224.092,633.525 224.06,633.583 224.029,633.642C219.445,642.129 218.275,648.145 219.98,652.081C221.686,656.017 226.267,657.872 233.184,658.036C248.947,658.411 238.988,630.321 229.766,629.531C229.789,629.263 229.801,628.979 229.801,628.68C229.789,621.8 228.45,617.665 225.992,615.84C223.534,614.015 219.958,614.501 215.474,616.864C206.828,621.42 217.035,632.007 224.124,633.467ZM101.007,648.679C99.888,649.223 98.95,650.816 98.159,653.264C96.067,659.738 106.647,655.148 105.558,651.409C110.443,650.148 117.191,644.776 115.005,640.472C113.124,636.771 111.098,635.592 108.948,636.537C106.798,637.482 104.526,640.55 102.153,645.344C101.486,646.692 101.123,647.795 101.007,648.679ZM154.27,651.068C152.866,650.494 151.938,650.516 151.41,651.041C150.883,651.566 150.755,652.594 150.953,654.029C151.504,658.026 157.11,652.23 154.27,651.068ZM55.66,650.282C57.047,655.056 65.006,646.84 60.725,645.142C58.525,644.269 57.07,644.303 56.243,645.101C56.214,645.13 56.185,645.159 56.157,645.19C55.505,644.454 54.835,644.115 54.149,644.133C53.005,644.162 51.818,645.184 50.596,647.011C48.379,650.326 52.857,651.243 55.66,650.282ZM68.425,646.698C67.123,646.217 66.262,646.236 65.772,646.676C65.283,647.116 65.165,647.976 65.348,649.179C65.859,652.529 71.06,647.671 68.425,646.698ZM83.876,648.104C83.237,646.861 82.589,646.287 81.934,646.278C81.279,646.268 80.616,646.823 79.948,647.835C78.088,650.655 85.169,650.62 83.876,648.104ZM163.901,622.875C163.589,622.723 163.201,622.592 162.728,622.487C158.83,621.614 156.253,621.648 154.787,622.446C153.322,623.245 152.968,624.807 153.518,626.99C154.183,629.634 157.504,629.46 160.396,628.275C159.375,631.808 161.349,634.819 164.358,636.72C163.419,637.107 162.532,637.594 161.731,638.149C158.855,640.143 157.092,643.003 158.008,645.14C160.768,651.584 176.926,643.375 174.793,638.442C175.918,638.079 176.913,637.487 177.681,636.638C181.268,639.619 188.722,640.838 185.859,635.913C183.836,632.435 182.056,630.551 180.479,630.011C180.019,629.853 179.577,629.809 179.151,629.874C178.171,623.309 174.783,620.305 171.072,620.043C168.623,619.871 166.033,620.893 163.901,622.875ZM250.911,629.397C249.497,633.929 249.674,636.882 251.191,638.505C252.707,640.129 255.562,640.422 259.506,639.634C270.486,637.442 253.771,620.224 250.911,629.397ZM197.314,626.835C193.963,631.78 208.912,639.394 209.382,631.817C209.588,628.488 209.121,626.244 208.064,624.95C208.002,621.863 207.198,619.973 205.752,619.116C204.036,618.1 201.417,618.539 198.064,620.161C194.367,621.95 195.076,624.697 197.314,626.835ZM318.015,595.911C315.503,595.24 313.76,595.453 312.684,596.433C312.137,596.931 311.762,597.627 311.547,598.506C305.577,593.513 297.204,592.617 290.842,594.734C286.594,596.148 283.243,598.905 282.106,602.682C267.672,606.574 260.158,630.778 286.52,631.69C299.138,632.126 307.041,630.152 309.143,625.897C310.482,623.185 309.466,619.548 305.813,615.016C310.935,612.838 315.092,609.557 315.811,606.159C318.144,605.369 320.7,602.858 321.527,600.537C323.229,600.359 325.513,599.314 328.3,597.516C339.779,590.115 321.445,579.709 318.814,590.707C318.317,592.786 318.055,594.514 318.015,595.911ZM252.09,608.546C250.675,606.91 249.483,606.423 248.477,606.901C247.472,607.379 246.653,608.823 245.987,611.052C244.132,617.258 254.954,611.855 252.09,608.546ZM235.276,606.768C234.198,606.288 233.484,606.307 233.079,606.746C232.673,607.186 232.575,608.046 232.727,609.247C233.151,612.593 237.46,607.741 235.276,606.768ZM558.296,567.244C554.094,558.813 536.204,570.418 545.867,577.342C550.059,580.345 553.5,581.037 555.831,579.811C557.068,579.161 557.993,577.97 558.55,576.298C562.908,579.066 573.413,571.454 568.849,566.502C566,563.41 562.84,563.444 560.467,565.04C559.629,565.603 558.89,566.36 558.296,567.244ZM362.675,567.411C359.276,566.159 357.028,566.209 355.75,567.353C354.472,568.497 354.164,570.736 354.643,573.865C355.977,582.576 369.555,569.943 362.675,567.411ZM591.152,560.778C589.324,559.191 587.723,558.892 586.413,559.512C585.103,560.132 584.085,561.671 583.424,563.761C579.705,575.532 598.077,566.791 591.152,560.778ZM397.158,559.401C394.681,560.724 393.505,562.039 393.424,563.346C393.343,564.652 394.357,565.952 396.26,567.245C401.561,570.845 402.171,556.722 397.158,559.401ZM603.181,559.224C602.327,558.885 601.11,558.671 600.153,558.875C599.197,559.079 598.501,559.702 598.691,561.039C599.554,567.117 607.633,560.991 603.181,559.224ZM645.808,540.151C645.148,537.399 644.177,535.923 642.944,535.522C641.711,535.121 640.215,535.794 638.506,537.34C633.747,541.645 647.143,545.72 645.808,540.151ZM673.55,520.541C672.234,520.084 671.364,520.102 670.869,520.52C670.375,520.938 670.255,521.756 670.441,522.899C670.957,526.082 676.213,521.466 673.55,520.541ZM727.57,482.106C725.754,482.209 724.331,482.771 723.269,483.756C721.306,485.576 720.577,488.841 720.892,493.326C719.333,490.982 711.381,492.787 710.541,496.287C708.629,495.587 707.318,495.62 706.522,496.28C706.084,495.367 705.415,494.843 704.613,494.722C702.735,494.439 700.13,496.374 698.071,500.734C697.879,501.139 697.716,501.528 697.58,501.904C696.443,499.723 695.306,499.026 694.171,499.59C692.969,500.187 691.768,502.195 690.568,505.348C690.339,505.951 690.187,506.48 690.101,506.942C688.662,505.811 686.974,505.302 685.406,505.423C683.063,505.602 680.988,507.186 680.409,510.202C678.545,519.924 695.024,515.457 692.262,509.537C693.901,509.259 696.034,507.86 697.21,506.132C698.426,510.08 704.962,509.157 706.627,502.786C708.026,503.708 710.515,501.896 711.606,499.93C712.42,501.213 713.383,501.73 714.479,501.57C716.052,501.341 717.898,499.716 719.965,496.957C720.538,496.192 720.885,497.346 721.047,496.783C721.096,497.202 721.153,495.815 721.217,496.252C722.073,502.036 725.643,502.916 729.42,501.393C728.806,503.991 728.754,507.592 729.186,512.059C730.567,526.322 741.857,513.253 742.357,504.346C745.202,505.282 747.789,505.262 750.139,504.355C755.742,502.191 759.992,494.985 763.143,483.681C769.899,459.437 735.71,468.472 727.57,482.106ZM711.19,510.867C708.99,509.994 707.535,510.028 706.708,510.826C705.88,511.625 705.681,513.187 705.991,515.37C706.855,521.449 715.642,512.634 711.19,510.867ZM449.975,484.659C448.068,481.352 452.076,476.889 457.429,473.204C462.781,469.518 469.479,466.61 472.952,466.41C517.133,463.871 457.78,498.2 449.975,484.659ZM785.479,473.013C784.32,468.26 781.127,466.173 778.248,466.544C775.369,466.915 772.806,469.746 772.907,474.828C773.118,485.47 787.565,481.571 785.479,473.013ZM799.947,449.183C799.383,448.548 798.665,447.951 797.775,447.406C791.84,443.775 787.422,443.851 784.689,446.205C781.956,448.558 780.908,453.188 781.714,458.665C783.226,468.952 792.779,466.511 798.085,460.97C798.903,463.821 801.191,465.518 805.487,464.817C815.62,463.164 821.351,459.549 823.377,455.069C825.403,450.59 823.723,445.246 819.036,440.135C812.258,432.745 803.868,440.458 799.947,449.183ZM772.255,452.788C769.944,452.371 768.174,452.517 767.217,453.257C766.26,453.997 766.116,455.331 767.056,457.292C769.233,461.83 777.419,453.72 772.255,452.788ZM527.758,419.042C512.277,393.63 598.497,366.08 600.037,400.016C600.253,404.778 593.536,421.874 586.964,426.235C583.184,428.743 578.81,427.041 577.847,429.573C568.574,453.943 561.049,459.719 552.228,435.765C552.047,445.433 534.419,453.435 521.095,451.053C514.284,449.836 508.55,446.325 506.748,439.785C503.424,427.714 509.201,421.133 517.831,419.276C520.876,418.622 524.276,418.555 527.758,419.042ZM827.889,428.743C827.663,429.527 827.549,430.433 827.536,431.451C827.445,438.774 843.997,428.154 837.152,426.025C836.484,425.817 835.855,425.652 835.263,425.528C835.292,425.232 835.281,424.913 835.227,424.572C834.635,420.869 833.367,418.993 831.528,418.655C829.689,418.318 827.279,419.519 824.407,421.971C820.195,425.565 823.751,428.174 827.889,428.743ZM802.568,429.136C801.263,429.329 800.593,429.771 800.456,430.424C800.32,431.077 800.718,431.941 801.551,432.975C803.868,435.854 805.209,428.745 802.568,429.136ZM848.587,425.564C846.387,424.691 844.932,424.725 844.105,425.523C843.278,426.322 843.078,427.884 843.388,430.067C844.252,436.146 853.039,427.331 848.587,425.564ZM853.182,405.258C851.048,405.253 849.434,405.65 848.345,406.414C845.61,408.334 846.185,412.573 850.136,418.6C853.815,424.211 860.702,422.828 865.348,419.46C869.779,419.849 877.134,410.265 871.364,407.899C868.041,406.537 865.722,406.437 864.265,407.423C864.131,407.38 863.997,407.338 863.865,407.296C869.071,403.042 871.699,393.73 864.505,392.248C860.369,391.396 856.517,394.573 854.503,398.417C853.308,400.697 852.76,403.211 853.182,405.258ZM876.899,403.897C878.976,403.862 880.346,403.339 881.119,402.406C881.893,401.472 882.07,400.129 881.763,398.452C880.908,393.784 872.694,403.97 876.899,403.897ZM909.306,366.826C904.557,367.879 899.306,371.198 899.527,375.006C899.771,379.188 900.373,381.917 901.253,383.501C899.408,384.083 897.574,384.945 896.016,385.972C890.512,381.838 874.325,390.128 885.159,395.878C890.859,398.903 894.134,400.304 895.919,399.455C896.685,399.09 897.176,398.311 897.466,397.069C901.939,399.067 905.307,399.397 907.593,398.094C910.276,396.564 911.467,392.782 911.202,386.803C911.104,384.602 909.838,383.397 907.994,382.929C909.825,381.23 911.833,378.739 913.896,375.913C914.622,374.919 915.191,374.014 915.62,373.194C919.902,375.439 919.549,369.188 919.284,363.208C918.919,354.979 908.496,360.66 909.306,366.826ZM927.411,355.482C925.912,354.887 924.92,354.91 924.357,355.454C923.793,355.998 923.657,357.062 923.868,358.549C924.457,362.688 930.445,356.685 927.411,355.482ZM944.328,342.25C944.315,342.246 944.302,342.242 944.29,342.238C940.891,341.146 938.643,341.189 937.365,342.187C936.184,343.109 935.831,344.845 936.161,347.256C934.364,346.666 933.141,346.774 932.408,347.48C931.581,348.279 931.381,349.841 931.692,352.024C932.304,356.338 936.907,353.152 937.938,350.305C940.373,351.281 944.579,348.479 945.85,345.846C948.109,346.026 951.861,341.611 948.919,340.521C947.018,339.818 945.762,339.845 945.048,340.489C944.625,340.869 944.393,341.464 944.328,342.25Z" style="fill:white;"/>
</svg>
