<?xml version="1.0" encoding="UTF-8" standalone="no"?>
<!DOCTYPE svg PUBLIC "-//W3C//DTD SVG 1.1//EN" "http://www.w3.org/Graphics/SVG/1.1/DTD/svg11.dtd">
<svg width="100%" height="100%" viewBox="0 0 1000 1000" version="1.1" xmlns="http://www.w3.org/2000/svg" xmlns:xlink="http://www.w3.org/1999/xlink" xml:space="preserve" xmlns:serif="http://www.serif.com/" style="fill-rule:evenodd;clip-rule:evenodd;stroke-linejoin:round;stroke-miterlimit:2;">
    <g transform="matrix(1.65254,0,0,1.65254,-247.585,-308.771)">
        <path d="M510,527.569C588.263,419.903 610.654,357.284 550,284.331C536.779,268.429 529.778,252.759 522.876,240C509.667,215.579 478.983,210.288 420,226.08C306.892,256.364 276.045,366.502 400,530C387.889,549.463 380.203,579.315 375,615C344.436,697.82 357.546,693.263 395,640L393.19,700C386.308,739.88 386.575,761.161 393.974,761.72C397.33,761.973 415.734,710.446 447.5,693.571C472.807,704.043 485.368,743.958 494.752,745.948C509.151,749.002 508.054,698.603 507.457,632.356C526.107,671.88 538.185,690.709 520,610C519.004,605.581 515.893,601.321 514,589C512.004,576.012 511.22,554.402 510,527.569ZM457,663C451.522,663.904 445.057,664.15 438,664C440.641,666 443.755,668 448,670C451.622,667.728 454.398,665.372 457,663ZM435,651.912C449.063,650.76 454.615,646.784 457,641.124C461.925,629.437 465.149,630.513 468,630.751C476.361,631.449 480.196,645.621 467,654C455.035,655.073 444.196,654.613 435,651.912ZM441,621C437.797,625.318 434.116,629.308 430,633C429.45,641.726 436.087,644.03 438,643.678C440.372,643.242 447.622,630.959 441,621ZM468.022,595.471C475.063,611.684 462.177,626.039 458,627.464C454.249,628.745 448.857,623.303 445,612C439.96,597.228 450.764,588.099 468.022,595.471ZM455.309,589C446.62,589.393 442.569,595.404 439,602C411.852,592.955 445.285,564.533 451,565.56C454.206,566.136 464.68,568.96 455.309,589ZM464.034,533.816C465.157,533.816 466.068,534.346 466.068,535C466.068,535.654 465.157,536.184 464.034,536.184C462.911,536.184 462,535.654 462,535C462,534.346 462.911,533.816 464.034,533.816ZM440,477.146C445.101,486.771 438.014,496.895 428.195,501.783C418.377,506.671 405.826,506.321 400,495C390.76,477.044 428.423,455.301 440,477.146ZM526.14,482.843C525.495,493.495 514.984,499.238 504.858,499.206C494.731,499.173 484.99,493.365 485.885,480.912C487.305,461.162 527.602,458.668 526.14,482.843ZM431.48,443.575C450.827,398.206 470.148,400.553 489.447,439.021C480.781,450.098 471.97,457.163 465.589,456.998C453.78,456.693 442.021,451.606 431.48,443.575ZM419.165,432.286C413.684,426.332 408.79,419.623 404.721,412.534C430.605,389.922 444.277,359.706 434.783,328.543C434.24,326.761 432.752,325.429 430.921,325.086C430.671,325.039 430.423,324.993 430.176,324.949C437.908,323.164 445.717,323.068 453.175,325.243C470.781,316.811 482.644,314.085 490,316.382C537.594,331.241 519.628,394.06 495.548,430.515C471.304,382.427 445.692,389.078 419.165,432.286ZM430,330C402.225,324.793 389.299,336.964 386.029,354.35C382.759,371.737 389.146,394.341 400,410C425.225,388.63 439.092,359.843 430,330ZM505.748,315.602C524.242,312.115 533.384,318.959 535.456,332.09C537.528,345.221 532.531,364.639 522.748,386.302C528.337,352.372 527.021,328.248 505.748,315.602ZM450,310C432.069,308.616 415.715,313.116 400,320C413.862,292.464 434.777,281.68 470,304.881C463.515,305.4 456.912,306.693 450,310Z" style="fill:white;"/>
    </g>
</svg>
