<?xml version="1.0" encoding="UTF-8" standalone="no"?>
<!DOCTYPE svg PUBLIC "-//W3C//DTD SVG 1.1//EN" "http://www.w3.org/Graphics/SVG/1.1/DTD/svg11.dtd">
<svg width="100%" height="100%" viewBox="0 0 1000 1000" version="1.1" xmlns="http://www.w3.org/2000/svg" xmlns:xlink="http://www.w3.org/1999/xlink" xml:space="preserve" xmlns:serif="http://www.serif.com/" style="fill-rule:evenodd;clip-rule:evenodd;stroke-linejoin:round;stroke-miterlimit:2;">
    <g transform="matrix(1.01936,0,0,1.01936,-9.68217,-9.68217)">
        <path d="M488.229,713.885C488.229,713.885 482.94,786.354 533.043,812.764C561.647,850.962 558.478,889.93 508.875,930.022C489.312,946.641 463.822,948.586 422.886,912.298C412.091,893.721 405.327,879.627 399.673,866.768C447.443,878.919 466.034,878.349 441.981,859.189C402.414,825.751 488.229,713.885 488.229,713.885ZM447.906,347.077C465.906,240.945 501.58,143.263 558.428,104.803C560.352,113.429 570.028,120.691 578.405,111.746C590.435,98.902 596.319,84.493 591.538,79.588C586.756,74.683 573.108,81.128 561.079,93.972C559.268,95.905 558.351,98.227 558.135,100.628C486.153,138.129 448.087,246 433.347,360.951C405.987,391.618 395.421,434.039 395.3,478.856C379.424,371.887 384.197,258.157 438.234,208.175C440.158,216.801 449.834,224.063 458.211,215.118C470.241,202.274 476.125,187.865 471.344,182.959C466.562,178.054 452.914,184.5 440.885,197.344C439.074,199.277 438.157,201.599 437.941,203.999C360.156,264.272 369.107,417.349 400.929,540.195C411.479,599.604 435.177,655.843 457.474,687.495C462.091,697.527 467.335,704.9 473.172,709.09C455.429,704.883 435.938,683.363 417.609,650.413C353.165,520.751 316.681,216.193 440.117,89.155C443.204,97.437 453.783,103.306 460.857,93.299C471.015,78.929 474.872,63.85 469.464,59.645C464.057,55.441 451.419,63.694 441.261,78.063C439.732,80.226 439.141,82.652 439.256,85.059C289.855,205.385 344.439,518.886 417.609,650.413C435.591,686.593 455.756,709.154 475.232,710.421C476.254,711.01 477.294,711.504 478.352,711.9C433.374,702.516 394.559,689.506 366.558,671.585C329.311,647.745 282.441,670.586 247.268,696.817L231.156,774.989C241.986,835.659 256.102,886.582 293.216,869.274C266.851,840.92 257.847,818.062 271.336,799.57C297.74,763.373 289.28,737.879 321.302,733.003C343.408,729.637 369.786,732.135 394.12,735.553C425.998,740.03 488.229,713.885 488.229,713.885L487.323,713.709C484.819,713.155 482.23,712.02 479.581,710.345C481.002,710.201 482.42,709.94 483.831,709.556C484.223,709.587 484.625,709.608 485.033,709.619C484.672,709.596 484.314,709.564 483.955,709.522C484.171,709.463 484.389,709.4 484.607,709.333C485.483,709.722 486.39,709.954 487.328,710.024C487.625,711.311 487.925,712.597 488.229,713.885C487.954,712.598 487.68,711.312 487.409,710.03C487.939,710.065 488.482,710.047 489.034,709.976C488.474,710.004 487.925,709.987 487.387,709.927C482.666,687.622 478.411,665.596 475.04,644.097C472.421,624.951 470.817,606.501 470.321,588.844C471.233,578.034 472.41,566.757 473.843,555.13C484.784,513.002 501.144,466.597 521.639,421.806C547.846,394.323 584.882,375.194 634.566,366.193C633.487,374.966 640.167,385.051 651.059,379.433C666.698,371.366 677.074,359.764 674.214,353.539C671.354,347.315 656.335,348.811 640.695,356.878C638.342,358.092 636.698,359.972 635.69,362.161C590.565,369.08 556.504,382.656 531.259,401.528C566.07,330.735 611.019,266.359 660.805,232.677C662.73,241.303 672.406,248.564 680.783,239.62C692.812,226.776 698.697,212.366 693.915,207.461C689.134,202.556 675.486,209.001 663.457,221.845C661.646,223.778 660.728,226.101 660.513,228.501C592.204,264.089 539.228,343.398 504.303,427.551C500.417,432.423 496.884,437.508 493.685,442.792C517.525,338.224 556.923,232.205 607.445,185.474C609.369,194.101 619.045,201.362 627.422,192.418C639.451,179.574 645.336,165.164 640.555,160.259C635.773,155.354 622.125,161.799 610.096,174.643C608.285,176.576 607.368,178.898 607.152,181.299C540.269,233.124 498.954,357.863 479.505,473.168C471.925,494.903 468.243,518.989 467.423,544.792C454.258,605.246 452.061,658.136 461.995,686.842C463.466,692.009 465.399,696.391 467.815,699.89C466.802,698.746 465.786,697.539 464.775,696.279C461.088,691.159 457.337,685.021 453.579,678.001C430.773,615.928 426.484,481.523 446.345,356.577C454.162,348.21 463.206,340.857 473.608,334.728C473.657,343.566 481.57,352.716 491.655,345.755C506.138,335.758 514.948,322.926 511.317,317.118C507.686,311.309 492.981,314.71 478.498,324.706C476.319,326.211 474.929,328.285 474.208,330.585C464.394,335.269 455.65,340.81 447.906,347.077ZM488.229,713.885C531.956,702.941 655.367,651.629 691.954,674.382C789.254,734.89 820.873,829.465 730.323,804.529C753.918,767.106 736.147,718.633 696.217,732.773C632.983,755.166 559.961,739.153 488.229,713.885ZM488.229,713.885C502.182,698.734 511.637,676.864 530.062,669.074C614.049,633.562 619.009,590.064 651.534,593.718C686.163,597.609 725.476,619.452 725.381,648.674C725.35,658.286 735.482,666.006 740.468,676.232C750.682,669.646 760.826,663.908 760.88,656.275C761.052,631.985 732.578,605.992 726.827,584.26C716.014,543.392 659.223,529.341 610.578,535.37C579.896,539.172 543.108,564.31 530.019,608.408C520.777,639.544 505.823,674.052 488.229,713.885ZM479.113,710.388C481.233,711.737 483.28,712.716 485.234,713.299L484.09,713.071C484.163,713.074 484.242,713.077 484.32,713.079C484.215,713.072 484.11,713.064 484.013,713.056C483.416,712.937 482.82,712.817 482.218,712.695C480.902,712.135 479.562,711.382 478.201,710.447C478.505,710.433 478.809,710.413 479.113,710.388ZM478.003,710.456C479.199,711.305 480.368,712.006 481.507,712.551C481.048,712.457 480.59,712.364 480.13,712.269C478.784,711.833 477.454,711.231 476.132,710.464C476.756,710.484 477.38,710.481 478.003,710.456ZM469.446,600.225C470.79,614.531 472.702,629.186 475.04,644.097C477.93,665.223 482.059,687.206 487.303,709.918C486.44,709.815 485.607,709.601 484.799,709.274C484.907,709.241 485.016,709.206 485.126,709.17C485.003,709.2 484.88,709.229 484.757,709.257C483.622,708.792 482.547,708.11 481.532,707.222C477.143,703.06 473.664,694.43 471.135,682.239C467.575,662.747 467.103,634.151 469.446,600.225ZM474.306,706.381C476.985,708.128 480.017,709.193 483.416,709.52C481.895,709.773 480.355,709.878 478.803,709.839C477.321,708.849 475.821,707.694 474.306,706.381ZM469.287,702.067C472.373,705.268 475.375,707.874 478.248,709.819C477.912,709.803 477.575,709.781 477.23,709.751C474.645,707.821 471.991,705.242 469.287,702.067ZM458.654,689.148C461.825,693.536 464.962,697.418 468.026,700.731C471.147,704.507 474.159,707.532 477.024,709.732C476.157,709.65 475.285,709.524 474.395,709.353C468.775,705.434 463.502,698.545 458.654,689.148ZM467.138,583.596C465.025,624.808 466.445,659.637 471.135,682.239C473.366,694.448 476.809,703.086 481.532,707.222C482.492,708.133 483.496,708.83 484.542,709.304C484.244,709.369 483.945,709.428 483.635,709.483C473.757,708.186 466.582,700.088 461.995,686.842C455.637,664.5 457.922,627.467 467.138,583.596ZM455.49,682.531C457.587,686.043 459.661,689.297 461.701,692.273C459.937,689.873 458.172,687.298 456.409,684.556C456.103,683.895 455.799,683.225 455.49,682.531ZM431.26,632.638C439.133,651.856 447.21,668.53 454.991,681.692C455.229,682.288 455.468,682.876 455.711,683.459C447.133,669.887 438.723,652.483 431.26,632.638ZM431.58,375.759C418.391,494.991 429.594,618.934 453.522,677.895C438.026,648.913 422.344,604.842 410.142,554.722C399.146,491.881 401.387,423.474 431.58,375.759ZM410.982,673.515C388.04,628.168 372.363,581.271 362.497,533.134C265.631,478.115 256.065,496.29 226.265,541.726C208.371,569.01 215.511,584.691 235.333,596.566C232.742,530.647 266.688,527.552 298.502,564.764C312.569,581.22 358.706,629.033 410.982,673.515ZM495.599,658.359C518.618,601.858 526.806,552.594 499.537,520.632C499.537,520.632 481.738,568.865 481.128,590.182C480.471,613.136 495.599,658.359 495.599,658.359ZM446.786,440.491C454.603,433.26 464.086,428.917 474.266,425.782L457.11,548.559C442.258,521.097 445.591,479.992 446.786,440.491Z" style="fill:white;"/>
    </g>
</svg>
