<?xml version="1.0" encoding="UTF-8" standalone="no"?>
<!DOCTYPE svg PUBLIC "-//W3C//DTD SVG 1.1//EN" "http://www.w3.org/Graphics/SVG/1.1/DTD/svg11.dtd">
<svg width="100%" height="100%" viewBox="0 0 1000 1000" version="1.1" xmlns="http://www.w3.org/2000/svg" xmlns:xlink="http://www.w3.org/1999/xlink" xml:space="preserve" xmlns:serif="http://www.serif.com/" style="fill-rule:evenodd;clip-rule:evenodd;stroke-linejoin:round;stroke-miterlimit:2;">
    <g transform="matrix(4.17718,0,0,4.17718,-1055.05,-2604.83)">
        <path d="M369.932,635.569C377.379,637.002 401.975,645.479 406.973,660C422.419,704.875 461.958,721.357 472.71,704.266C477.417,716.366 480,729.519 480,743.272C480,750.811 479.224,758.17 477.747,765.273C472.094,767.75 462.772,771.234 457,770.232C424.531,764.592 402.374,773.457 391.206,787.004C376.269,805.126 380.994,831.625 407,843C407.65,843.284 408.805,843.658 410.38,844.055C398.529,848.543 385.685,851 372.272,851C359.405,851 347.063,848.74 335.621,844.594C335.594,838.303 333.641,830.008 327,820.086C311.705,797.236 319.499,771.997 349.384,743C406.793,687.296 308.641,625.99 287,703C283.015,717.179 281.031,760.857 271.467,781.321C266.992,769.484 264.544,756.661 264.544,743.272C264.544,684.594 311.559,636.81 369.932,635.569ZM277.957,795.338C281.624,787.609 286.216,784.306 292.002,786.304C299.065,788.742 322.262,820.399 319.537,837.213C316.158,835.311 312.891,833.231 309.752,830.988C307.499,821.855 301.381,807.893 292.002,799.177C289.796,797.128 286.702,800.923 284.158,805.232C281.919,802.056 279.848,798.754 277.957,795.338ZM452,783C440.665,773.004 426.492,778.902 416.863,789.851C407.235,800.799 402.153,816.797 409,827C420.47,844.092 472.447,801.032 452,783ZM444.903,790.364C437.459,783.799 428.151,787.673 421.828,794.863C415.505,802.053 412.167,812.559 416.664,819.26C424.197,830.484 458.331,802.206 444.903,790.364ZM321.765,749.571C353.43,723.969 349.863,704.997 327,694.622C306.585,685.357 292.904,697.044 292.059,728.059C291.2,759.607 299.876,767.269 321.765,749.571ZM323.313,707.077C330.93,710.765 333.659,720.893 329.405,729.682C325.15,738.47 315.512,742.611 307.895,738.923C300.278,735.235 297.548,725.107 301.803,716.318C306.057,707.53 315.696,703.389 323.313,707.077ZM411.871,643.067C431.029,650.652 447.5,663.575 459.447,680C449.804,689.207 434.36,681.763 428.09,675.702C422.903,670.687 407.125,653.756 411.871,643.067Z" style="fill:white;"/>
    </g>
</svg>
