<?xml version="1.0" encoding="UTF-8" standalone="no"?>
<!DOCTYPE svg PUBLIC "-//W3C//DTD SVG 1.1//EN" "http://www.w3.org/Graphics/SVG/1.1/DTD/svg11.dtd">
<svg width="100%" height="100%" viewBox="0 0 1000 1000" version="1.1" xmlns="http://www.w3.org/2000/svg" xmlns:xlink="http://www.w3.org/1999/xlink" xml:space="preserve" xmlns:serif="http://www.serif.com/" style="fill-rule:evenodd;clip-rule:evenodd;stroke-linejoin:round;stroke-miterlimit:2;">
    <g transform="matrix(2.47101,0,0,2.47101,-735.505,-471.107)">
        <path d="M450,456.263C450.587,468.799 453.791,478.033 458,486C386.489,476.171 351.006,462.486 323,448C318.747,445.8 315.628,437.372 320,433C323.946,428.598 328.723,423.506 334,418C346.181,433.183 398.954,444.643 450,456.263ZM550,456.263C549.413,468.799 546.209,478.033 542,486C613.511,476.171 648.994,462.486 677,448C681.253,445.8 684.372,437.372 680,433C676.054,428.598 671.277,423.506 666,418C653.819,433.183 601.046,444.643 550,456.263ZM500,445.774C489.147,445.774 477.46,442.672 462.666,404.235C457.662,409.73 452.448,416.945 447.153,424.821C415.057,419.061 383.783,409.947 353.602,396.384C359.59,388.622 367.313,380.093 378.571,370C378.421,372.471 380.738,375.606 385.646,378.09C400.865,385.794 433.221,390.315 462.886,397.702C466.215,398.531 473.338,407.986 480,416.112C480.701,416.967 482.139,417.401 483.984,417.587L492.209,442.264C492.323,442.604 492.641,442.833 493,442.833L507,442.833C507.359,442.833 507.677,442.604 507.791,442.264L516.016,417.587C517.861,417.401 519.299,416.967 520,416.112C526.662,407.986 533.785,398.531 537.114,397.702C566.779,390.315 599.135,385.794 614.354,378.09C619.262,375.606 621.579,372.471 621.429,370C632.687,380.093 640.41,388.622 646.398,396.384C616.217,409.947 584.943,419.061 552.847,424.821C547.552,416.945 542.338,409.73 537.334,404.235C522.54,442.672 510.853,445.774 500,445.774ZM500,441.167L493.601,441.167L485.41,416.595L492,394L496.88,394C496.88,394 497.059,397.231 496.758,397.231L494,397.167C493.626,397.167 493.297,397.416 493.197,397.777L488.197,415.777C488.151,415.942 488.157,416.116 488.214,416.277L494.214,433.277C494.332,433.611 494.647,433.833 495,433.833L505,433.833C505.353,433.833 505.668,433.611 505.786,433.277L511.786,416.277C511.843,416.116 511.849,415.942 511.803,415.777L506.803,397.777C506.703,397.416 506.374,397.167 506,397.167L503.242,397.231C502.941,397.231 503.12,394 503.12,394L508,394L514.59,416.595L506.399,441.167L500,441.167ZM501.36,392.08L502.168,409.04C502.189,409.499 502.58,409.854 503.04,409.832C503.499,409.811 503.854,409.42 503.832,408.96C503.832,408.96 502.981,398.775 503.253,398.775L505.367,398.833C505.367,398.833 510.127,415.97 510.127,415.97C510.127,415.97 504.41,432.167 504.41,432.167L500,432.167L495.59,432.167C495.59,432.167 489.873,415.97 489.873,415.97C489.873,415.97 494.633,398.833 494.633,398.833L496.747,398.775C497.019,398.775 496.168,408.96 496.168,408.96C496.146,409.42 496.501,409.811 496.96,409.832C497.42,409.854 497.811,409.499 497.832,409.04L498.64,392.08L500,388L501.36,392.08ZM500,430.782C501.73,430.613 503.465,430.038 504.399,429.21C505.002,428.676 505.319,428.036 505.303,427.342C505.285,426.545 504.773,425.559 503.333,424.552C503.333,424.553 503.333,415 503.333,415C503.333,414.969 503.332,414.938 503.328,414.907C505.66,414.543 506.936,413.37 506,410.5L503.016,414.346C502.874,414.234 502.695,414.167 502.5,414.167C502.04,414.167 501.667,414.54 501.667,415L501.667,425C501.667,425.286 501.814,425.553 502.056,425.705C502.652,426.08 503.077,426.432 503.35,426.771C503.526,426.991 503.632,427.188 503.637,427.38C503.645,427.756 503.294,428.014 502.87,428.265C502.123,428.705 501.067,428.994 500,429.11C498.933,428.994 497.877,428.705 497.13,428.265C496.706,428.014 496.355,427.756 496.363,427.38C496.368,427.188 496.474,426.991 496.65,426.771C496.923,426.432 497.348,426.08 497.944,425.705C498.186,425.553 498.333,425.286 498.333,425L498.333,415C498.333,414.54 497.96,414.167 497.5,414.167C497.305,414.167 497.126,414.234 496.984,414.346L494,410.5C493.064,413.37 494.34,414.543 496.672,414.907C496.668,414.938 496.667,414.969 496.667,415C496.667,415 496.667,424.553 496.667,424.552C495.227,425.559 494.715,426.545 494.697,427.342C494.681,428.036 494.998,428.676 495.601,429.21C496.535,430.038 498.27,430.613 500,430.782ZM500,385L480,384.268C474.277,380.254 470.152,375.362 466.879,370C443.272,366.717 420.377,361.601 400,350C409.205,341.878 418.859,333.467 429.272,325.912C429.367,326.588 429.534,327.243 429.769,327.875C430.649,330.246 432.507,332.323 435.246,334.117C442.975,339.179 457.954,342.052 476.86,343.798L484.352,353.065C484.509,353.259 484.745,353.372 484.994,353.374L500,353.478L515.006,353.374C515.255,353.372 515.491,353.259 515.648,353.065L523.14,343.798C542.046,342.052 557.025,339.179 564.754,334.117C567.493,332.323 569.351,330.246 570.231,327.875C570.466,327.243 570.633,326.588 570.728,325.912C581.141,333.467 590.795,341.878 600,350C579.623,361.601 556.728,366.717 533.121,370C529.848,375.362 525.723,380.254 520,384.268L500,385ZM500,351.811L485.4,351.71L477.935,342.476C477.793,342.301 477.587,342.191 477.363,342.17C458.646,340.46 443.791,337.721 436.159,332.723C433.763,331.153 432.102,329.369 431.331,327.295C431.035,326.497 430.873,325.659 430.85,324.778L430.881,324.755C434.729,322.024 438.664,319.415 442.713,316.992C448.826,313.334 455.195,310.092 461.818,307.461C468.163,304.94 474.736,302.988 481.447,301.725C487.563,300.575 493.777,300.008 500,300C506.223,300.008 512.437,300.575 518.553,301.725C525.264,302.988 531.837,304.94 538.182,307.461C544.805,310.092 551.174,313.334 557.287,316.992C561.336,319.415 565.271,322.024 569.119,324.755L569.15,324.778C569.127,325.659 568.965,326.497 568.669,327.295C567.898,329.369 566.237,331.153 563.841,332.723C556.209,337.721 541.354,340.46 522.637,342.17C522.413,342.191 522.207,342.301 522.065,342.476L514.6,351.71L500,351.811Z" style="fill:white;"/>
    </g>
</svg>
