<?xml version="1.0" encoding="UTF-8" standalone="no"?>
<!DOCTYPE svg PUBLIC "-//W3C//DTD SVG 1.1//EN" "http://www.w3.org/Graphics/SVG/1.1/DTD/svg11.dtd">
<svg width="100%" height="100%" viewBox="0 0 1000 1000" version="1.1" xmlns="http://www.w3.org/2000/svg" xmlns:xlink="http://www.w3.org/1999/xlink" xml:space="preserve" xmlns:serif="http://www.serif.com/" style="fill-rule:evenodd;clip-rule:evenodd;stroke-linejoin:round;stroke-miterlimit:2;">
    <g transform="matrix(1.46894,0,0,1.46894,-244.676,-639.415)">
        <path d="M645.463,1044.83C662.478,1020.99 671.812,999.935 678.669,979.788C685.257,976.359 690.317,972.024 693.242,966.423C689.715,998.563 682.37,1028.69 660.792,1051.34C655.923,1049.02 650.689,1046.95 645.463,1044.83ZM763.092,1044.83C746.076,1020.99 736.743,999.935 729.886,979.788C723.297,976.359 718.237,972.024 715.313,966.423C718.84,998.563 726.185,1028.69 747.763,1051.34C752.631,1049.02 757.866,1046.95 763.092,1044.83ZM368.43,1044.83C351.415,1020.99 342.081,999.935 335.224,979.788C328.635,976.359 323.576,972.024 320.651,966.423C324.178,998.563 331.523,1028.69 353.101,1051.34C357.97,1049.02 363.204,1046.95 368.43,1044.83ZM250.801,1044.83C267.817,1020.99 277.15,999.935 284.007,979.788C290.596,976.359 295.656,972.024 298.58,966.423C295.053,998.563 287.708,1028.69 266.13,1051.34C261.262,1049.02 256.027,1046.95 250.801,1044.83ZM664.031,985.431C655.95,1003.82 646.799,1022.07 633.93,1039.89C621.718,1034.13 611.248,1026.73 608.009,1013.23C616.343,1006.54 623.446,999.135 628.871,990.756C629.145,991.132 629.42,991.505 629.694,991.875C642.085,990.288 653.897,988.358 664.031,985.431ZM744.524,985.431C752.605,1003.82 761.755,1022.07 774.625,1039.89C786.836,1034.13 797.306,1026.73 800.546,1013.23C792.211,1006.54 785.108,999.135 779.683,990.756C779.409,991.132 779.135,991.505 778.86,991.875C766.469,990.288 754.657,988.358 744.524,985.431ZM349.862,985.431C357.943,1003.82 367.094,1022.07 379.963,1039.89C392.174,1034.13 402.644,1026.73 405.884,1013.23C397.55,1006.54 390.447,999.135 385.022,990.756C384.748,991.132 384.473,991.505 384.199,991.875C371.808,990.288 359.995,988.358 349.862,985.431ZM269.369,985.431C261.288,1003.82 252.137,1022.07 239.268,1039.89C227.057,1034.13 216.587,1026.73 213.347,1013.23C221.681,1006.54 228.784,999.135 234.209,990.756C234.483,991.132 234.758,991.505 235.032,991.875C247.423,990.288 259.236,988.358 269.369,985.431ZM621.865,980.455C617.092,987.675 610.677,994.549 602.294,1001C602.021,1000.72 601.738,1000.46 601.447,1000.2C595.637,995.154 594.847,990.237 595.423,988.397C596.3,985.593 606.645,976.707 615.735,970.596C617.777,973.968 619.82,977.274 621.865,980.455ZM786.689,980.455C791.463,987.675 797.877,994.549 806.261,1001C806.534,1000.72 806.816,1000.46 807.108,1000.2C812.917,995.154 813.707,990.237 813.131,988.397C812.254,985.593 801.91,976.707 792.819,970.596C790.778,973.968 788.735,977.274 786.689,980.455ZM392.027,980.455C396.801,987.675 403.215,994.549 411.599,1001C411.872,1000.72 412.154,1000.46 412.446,1000.2C418.256,995.154 419.046,990.237 418.47,988.397C417.593,985.593 407.248,976.707 398.157,970.596C396.116,973.968 394.073,977.274 392.027,980.455ZM227.204,980.455C222.43,987.675 216.016,994.549 207.632,1001C207.359,1000.72 207.077,1000.46 206.785,1000.2C200.975,995.154 200.186,990.237 200.761,988.397C201.638,985.593 211.983,976.707 221.074,970.596C223.115,973.968 225.158,977.274 227.204,980.455ZM222.077,901.573C229.244,911.686 235.683,922.682 241.201,934.801C241.201,934.801 238.487,943.574 239.761,944.599C244.29,948.243 251.28,952.492 257.214,984.569C250.781,985.873 243.777,987.061 236.322,988.397C228.644,977.661 214.495,952.923 218.195,944.111C217.877,928.38 217.749,912.831 222.077,901.573ZM616.739,901.573C623.905,911.686 630.345,922.682 635.863,934.801C635.863,934.801 633.149,943.574 634.422,944.599C638.952,948.243 645.941,952.492 651.876,984.569C645.443,985.873 638.439,987.061 630.984,988.397C623.306,977.661 609.156,952.923 612.857,944.111C612.539,928.38 612.41,912.831 616.739,901.573ZM791.815,901.573C784.649,911.686 778.209,922.682 772.692,934.801C772.692,934.801 775.405,943.574 774.132,944.599C769.603,948.243 762.613,952.492 756.679,984.569C763.112,985.873 770.116,987.061 777.571,988.397C785.248,977.661 799.398,952.923 795.697,944.111C796.015,928.38 796.144,912.831 791.815,901.573ZM397.154,901.573C389.988,911.686 383.548,922.682 378.03,934.801C378.03,934.801 380.744,943.574 379.47,944.599C374.941,948.243 367.952,952.492 362.017,984.569C368.45,985.873 375.454,987.061 382.909,988.397C390.587,977.661 404.737,952.923 401.036,944.111C401.354,928.38 401.483,912.831 397.154,901.573ZM627.019,894.662C634.286,904.926 641.22,915.818 646.305,930.189C639.636,935.38 638.292,944.681 645.115,941.937C652.863,944.56 658.147,959.485 661.85,982.297C668.63,980.529 674.531,978.408 679.354,975.509C679.679,975.314 679.995,975.115 680.301,974.912C678.228,964.314 673.555,955.325 667.578,947.143C660.922,944.898 660.957,937.631 663.349,925.853C660,915.931 653.652,906.748 646.415,897.781C640.172,896.699 633.63,895.691 627.019,894.662ZM781.535,894.662C774.269,904.926 767.334,915.818 762.249,930.189C768.918,935.38 770.262,944.681 763.439,941.937C755.691,944.56 750.408,959.485 746.704,982.297C739.924,980.529 734.024,978.408 729.201,975.509C728.876,975.314 728.56,975.115 728.254,974.912C730.326,964.314 734.999,955.325 740.976,947.143C747.633,944.898 747.597,937.631 745.206,925.853C748.554,915.931 754.903,906.748 762.139,897.781C768.382,896.699 774.925,895.691 781.535,894.662ZM386.873,894.662C379.607,904.926 372.673,915.818 367.587,930.189C374.257,935.38 375.6,944.681 368.777,941.937C361.03,944.56 355.746,959.485 352.042,982.297C345.262,980.529 339.362,978.408 334.539,975.509C334.214,975.314 333.898,975.115 333.592,974.912C335.664,964.314 340.338,955.325 346.314,947.143C352.971,944.898 352.936,937.631 350.544,925.853C353.893,915.931 360.241,906.748 367.478,897.781C373.72,896.699 380.263,895.691 386.873,894.662ZM232.358,894.662C239.624,904.926 246.559,915.818 251.644,930.189C244.975,935.38 243.631,944.681 250.454,941.937C258.202,944.56 263.485,959.485 267.189,982.297C273.969,980.529 279.869,978.408 284.692,975.509C285.017,975.314 285.333,975.115 285.639,974.912C283.567,964.314 278.893,955.325 272.917,947.143C266.26,944.898 266.295,937.631 268.687,925.853C265.339,915.931 258.99,906.748 251.754,897.781C245.511,896.699 238.968,895.691 232.358,894.662ZM662.242,900.925C668.842,909.81 672.958,918.872 674.137,928.142C670.051,938.38 670.893,942.988 675.339,943.479C682.812,947.034 685.841,956.525 688.405,966.728C689.599,965.059 690.749,963.293 692.006,961.446C687.939,945.549 687.52,931.319 692.006,919.329C691.47,915.663 689.74,913.301 686.905,910.915C681.68,906.52 672.904,903.422 662.242,900.925ZM746.313,900.925C739.713,909.81 735.597,918.872 734.417,928.142C738.503,938.38 737.661,942.988 733.216,943.479C725.743,947.034 722.714,956.525 720.15,966.728C718.955,965.059 717.806,963.293 716.549,961.446C720.615,945.549 721.034,931.319 716.549,919.329C717.085,915.663 718.815,913.301 721.65,910.915C726.874,906.52 735.651,903.422 746.313,900.925ZM351.651,900.925C345.051,909.81 340.935,918.872 339.756,928.142C343.841,938.38 342.999,942.988 338.554,943.479C331.081,947.034 328.052,956.525 325.488,966.728C324.294,965.059 323.144,963.293 321.887,961.446C325.953,945.549 326.373,931.319 321.887,919.329C322.423,915.663 324.153,913.301 326.988,910.915C332.213,906.52 340.989,903.422 351.651,900.925ZM267.58,900.925C274.18,909.81 278.296,918.872 279.475,928.142C275.39,938.38 276.232,942.988 280.677,943.479C288.15,947.034 291.179,956.525 293.743,966.728C294.938,965.059 296.087,963.293 297.344,961.446C293.278,945.549 292.859,931.319 297.344,919.329C296.808,915.663 295.078,913.301 292.243,910.915C287.019,906.52 278.242,903.422 267.58,900.925ZM703.924,959.556C700.291,959.534 697.364,959.187 694.462,958.929C691.329,945.161 691.048,932.536 694.462,921.393C697.311,920.53 699.582,919.329 704.277,919.329L704.496,919.329C709.043,919.366 711.288,920.544 714.092,921.393C717.506,932.536 717.225,945.161 714.092,958.929C711.097,959.195 708.074,959.557 704.277,959.557L703.924,959.556ZM309.969,959.556C313.601,959.534 316.529,959.187 319.43,958.929C322.563,945.161 322.845,932.536 319.43,921.393C316.582,920.53 314.311,919.329 309.616,919.329L309.397,919.329C304.85,919.366 302.605,920.544 299.801,921.393C296.386,932.536 296.668,945.161 299.801,958.929C302.796,959.195 305.819,959.557 309.616,959.557L309.969,959.556ZM565.761,847.503C548.745,823.654 539.412,802.604 532.555,782.457C525.966,779.028 520.906,774.693 517.982,769.092C521.509,801.232 528.854,831.364 550.432,854.008C555.3,851.684 560.535,849.617 565.761,847.503ZM448.132,847.503C465.147,823.654 474.481,802.604 481.338,782.457C487.927,779.028 492.986,774.693 495.911,769.092C492.384,801.232 485.039,831.364 463.461,854.008C458.592,851.684 453.358,849.617 448.132,847.503ZM547.193,788.101C555.274,806.486 564.425,824.743 577.294,842.558C589.505,836.803 599.975,829.401 603.215,815.902C594.881,809.21 587.778,801.804 582.353,793.425C582.079,793.801 581.804,794.174 581.53,794.544C569.139,792.957 557.326,791.027 547.193,788.101ZM466.7,788.101C458.619,806.486 449.468,824.743 436.599,842.558C424.388,836.803 413.918,829.401 410.678,815.902C419.012,809.21 426.115,801.804 431.54,793.425C431.814,793.801 432.089,794.174 432.363,794.544C444.754,792.957 456.567,791.027 466.7,788.101ZM589.358,783.124C594.132,790.344 600.546,797.218 608.93,803.674C609.203,803.393 609.485,803.125 609.777,802.872C615.587,797.823 616.376,792.906 615.801,791.066C614.924,788.262 604.579,779.376 595.488,773.265C593.447,776.637 591.404,779.943 589.358,783.124ZM424.535,783.124C419.761,790.344 413.346,797.218 404.963,803.674C404.69,803.393 404.408,803.125 404.116,802.872C398.306,797.823 397.516,792.906 398.092,791.066C398.969,788.262 409.314,779.376 418.405,773.265C420.446,776.637 422.489,779.943 424.535,783.124ZM594.485,704.243C587.318,714.355 580.879,725.351 575.361,737.47C575.361,737.47 578.075,746.243 576.801,747.268C572.272,750.912 565.282,755.162 559.348,787.238C565.781,788.542 572.785,789.731 580.24,791.066C587.918,780.33 602.067,755.593 598.367,746.78C598.685,731.049 598.813,715.5 594.485,704.243ZM419.408,704.243C426.574,714.355 433.014,725.351 438.532,737.47C438.532,737.47 435.818,746.243 437.092,747.268C441.621,750.912 448.61,755.162 454.545,787.238C448.112,788.542 441.108,789.731 433.653,791.066C425.975,780.33 411.825,755.593 415.526,746.78C415.208,731.049 415.079,715.5 419.408,704.243ZM584.204,697.331C576.938,707.595 570.003,718.487 564.918,732.858C571.587,738.05 572.931,747.35 566.108,744.606C558.36,747.229 553.077,762.154 549.373,784.966C542.593,783.199 536.693,781.077 531.87,778.178C531.545,777.983 531.229,777.784 530.923,777.582C532.995,766.983 537.669,757.994 543.645,749.812C550.302,747.567 550.267,740.301 547.875,728.522C551.223,718.6 557.572,709.417 564.808,700.45C571.051,699.368 577.594,698.36 584.204,697.331ZM429.689,697.331C436.955,707.595 443.889,718.487 448.974,732.858C442.305,738.05 440.962,747.35 447.784,744.606C455.532,747.229 460.816,762.154 464.52,784.966C471.3,783.199 477.2,781.077 482.023,778.178C482.348,777.983 482.664,777.784 482.97,777.582C480.898,766.983 476.224,757.994 470.248,749.812C463.591,747.567 463.626,740.301 466.018,728.522C462.669,718.6 456.321,709.417 449.084,700.45C442.841,699.368 436.299,698.36 429.689,697.331ZM464.911,703.595C471.511,712.479 475.627,721.541 476.806,730.811C472.72,741.05 473.563,745.657 478.008,746.148C485.481,749.703 488.51,759.194 491.074,769.397C492.268,767.728 493.418,765.962 494.675,764.115C490.609,748.219 490.189,733.988 494.675,721.998C494.139,718.332 492.409,715.97 489.574,713.585C484.349,709.189 475.573,706.091 464.911,703.595ZM548.982,703.595C542.382,712.479 538.266,721.541 537.087,730.811C541.172,741.05 540.33,745.657 535.885,746.148C528.412,749.703 525.383,759.194 522.819,769.397C521.624,767.728 520.475,765.962 519.218,764.115C523.284,748.219 523.703,733.988 519.218,721.998C519.754,718.332 521.484,715.97 524.319,713.585C529.543,709.189 538.32,706.091 548.982,703.595ZM506.593,762.225C502.961,762.204 500.033,761.856 497.132,761.598C493.999,747.83 493.717,735.205 497.132,724.062C499.98,723.199 502.251,721.998 506.946,721.998L507.165,721.999C511.712,722.035 513.957,723.213 516.761,724.062C520.176,735.205 519.894,747.83 516.761,761.598C513.766,761.864 510.743,762.226 506.946,762.226L506.593,762.225ZM368.43,650.172C351.415,626.323 342.081,605.273 335.224,585.126C328.635,581.697 323.576,577.363 320.651,571.761C324.178,603.901 331.523,634.033 353.101,656.677C357.97,654.353 363.204,652.287 368.43,650.172ZM250.801,650.172C267.817,626.323 277.15,605.273 284.007,585.126C290.596,581.697 295.656,577.363 298.58,571.761C295.053,603.901 287.708,634.033 266.13,656.677C261.262,654.353 256.027,652.287 250.801,650.172ZM763.092,650.172C746.076,626.323 736.743,605.273 729.886,585.126C723.297,581.697 718.237,577.363 715.313,571.761C718.84,603.901 726.185,634.033 747.763,656.677C752.631,654.353 757.866,652.287 763.092,650.172ZM645.463,650.172C662.478,626.323 671.812,605.273 678.669,585.126C685.257,581.697 690.317,577.363 693.242,571.761C689.715,603.901 682.37,634.033 660.792,656.677C655.923,654.353 650.689,652.287 645.463,650.172ZM349.862,590.77C357.943,609.155 367.094,627.412 379.963,645.227C392.174,639.472 402.644,632.07 405.884,618.571C397.55,611.879 390.447,604.473 385.022,596.094C384.748,596.47 384.473,596.844 384.199,597.213C371.808,595.626 359.995,593.696 349.862,590.77ZM269.369,590.77C261.288,609.155 252.137,627.412 239.268,645.227C227.057,639.472 216.587,632.07 213.347,618.571C221.681,611.879 228.784,604.473 234.209,596.094C234.483,596.47 234.758,596.844 235.032,597.213C247.423,595.626 259.236,593.696 269.369,590.77ZM744.524,590.77C752.605,609.155 761.755,627.412 774.625,645.227C786.836,639.472 797.306,632.07 800.546,618.571C792.211,611.879 785.108,604.473 779.683,596.094C779.409,596.47 779.135,596.844 778.86,597.213C766.469,595.626 754.657,593.696 744.524,590.77ZM664.031,590.77C655.95,609.155 646.799,627.412 633.93,645.227C621.718,639.472 611.248,632.07 608.009,618.571C616.343,611.879 623.446,604.473 628.871,596.094C629.145,596.47 629.42,596.844 629.694,597.213C642.085,595.626 653.897,593.696 664.031,590.77ZM786.689,585.794C791.463,593.014 797.877,599.887 806.261,606.343C806.534,606.062 806.816,605.794 807.108,605.541C812.917,600.493 813.707,595.575 813.131,593.735C812.254,590.932 801.91,582.045 792.819,575.934C790.778,579.306 788.735,582.613 786.689,585.794ZM621.865,585.794C617.092,593.014 610.677,599.887 602.294,606.343C602.021,606.062 601.738,605.794 601.447,605.541C595.637,600.493 594.847,595.575 595.423,593.735C596.3,590.932 606.645,582.045 615.735,575.934C617.777,579.306 619.82,582.613 621.865,585.794ZM227.204,585.794C222.43,593.014 216.016,599.887 207.632,606.343C207.359,606.062 207.077,605.794 206.785,605.541C200.975,600.493 200.186,595.575 200.761,593.735C201.638,590.932 211.983,582.045 221.074,575.934C223.115,579.306 225.158,582.613 227.204,585.794ZM392.027,585.794C396.801,593.014 403.215,599.887 411.599,606.343C411.872,606.062 412.154,605.794 412.446,605.541C418.256,600.493 419.046,595.575 418.47,593.735C417.593,590.932 407.248,582.045 398.157,575.934C396.116,579.306 394.073,582.613 392.027,585.794ZM616.739,506.912C623.905,517.024 630.345,528.02 635.863,540.139C635.863,540.139 633.149,548.912 634.422,549.937C638.952,553.581 645.941,557.831 651.876,589.907C645.443,591.211 638.439,592.4 630.984,593.735C623.306,582.999 609.156,558.262 612.857,549.449C612.539,533.718 612.41,518.169 616.739,506.912ZM791.815,506.912C784.649,517.024 778.209,528.02 772.692,540.139C772.692,540.139 775.405,548.912 774.132,549.937C769.603,553.581 762.613,557.831 756.679,589.907C763.112,591.211 770.116,592.4 777.571,593.735C785.248,582.999 799.398,558.262 795.697,549.449C796.015,533.718 796.144,518.169 791.815,506.912ZM222.077,506.912C229.244,517.024 235.683,528.02 241.201,540.139C241.201,540.139 238.487,548.912 239.761,549.937C244.29,553.581 251.28,557.831 257.214,589.907C250.781,591.211 243.777,592.4 236.322,593.735C228.644,582.999 214.495,558.262 218.195,549.449C217.877,533.718 217.749,518.169 222.077,506.912ZM397.154,506.912C389.988,517.024 383.548,528.02 378.03,540.139C378.03,540.139 380.744,548.912 379.47,549.937C374.941,553.581 367.952,557.831 362.017,589.907C368.45,591.211 375.454,592.4 382.909,593.735C390.587,582.999 404.737,558.262 401.036,549.449C401.354,533.718 401.483,518.169 397.154,506.912ZM781.535,500C774.269,510.265 767.334,521.156 762.249,535.527C768.918,540.719 770.262,550.02 763.439,547.275C755.691,549.898 750.408,564.823 746.704,587.635C739.924,585.868 734.024,583.746 729.201,580.847C728.876,580.652 728.56,580.453 728.254,580.251C730.326,569.652 734.999,560.663 740.976,552.482C747.633,550.236 747.597,542.97 745.206,531.191C748.554,521.27 754.903,512.086 762.139,503.119C768.382,502.037 774.925,501.029 781.535,500ZM627.019,500C634.286,510.265 641.22,521.156 646.305,535.527C639.636,540.719 638.292,550.02 645.115,547.275C652.863,549.898 658.147,564.823 661.85,587.635C668.63,585.868 674.531,583.746 679.354,580.847C679.679,580.652 679.995,580.453 680.301,580.251C678.228,569.652 673.555,560.663 667.578,552.482C660.922,550.236 660.957,542.97 663.349,531.191C660,521.27 653.652,512.086 646.415,503.119C640.172,502.037 633.63,501.029 627.019,500ZM232.358,500C239.624,510.265 246.559,521.156 251.644,535.527C244.975,540.719 243.631,550.02 250.454,547.275C258.202,549.898 263.485,564.823 267.189,587.635C273.969,585.868 279.869,583.746 284.692,580.847C285.017,580.652 285.333,580.453 285.639,580.251C283.567,569.652 278.893,560.663 272.917,552.482C266.26,550.236 266.295,542.97 268.687,531.191C265.339,521.27 258.99,512.086 251.754,503.119C245.511,502.037 238.968,501.029 232.358,500ZM386.873,500C379.607,510.265 372.673,521.156 367.587,535.527C374.257,540.719 375.6,550.02 368.777,547.275C361.03,549.898 355.746,564.823 352.042,587.635C345.262,585.868 339.362,583.746 334.539,580.847C334.214,580.652 333.898,580.453 333.592,580.251C335.664,569.652 340.338,560.663 346.314,552.482C352.971,550.236 352.936,542.97 350.544,531.191C353.893,521.27 360.241,512.086 367.478,503.119C373.72,502.037 380.263,501.029 386.873,500ZM746.313,506.264C739.713,515.148 735.597,524.21 734.417,533.48C738.503,543.719 737.661,548.327 733.216,548.818C725.743,552.372 722.714,561.863 720.15,572.066C718.955,570.398 717.806,568.631 716.549,566.784C720.615,550.888 721.034,536.657 716.549,524.667C717.085,521.001 718.815,518.639 721.65,516.254C726.874,511.858 735.651,508.76 746.313,506.264ZM662.242,506.264C668.842,515.148 672.958,524.21 674.137,533.48C670.051,543.719 670.893,548.327 675.339,548.818C682.812,552.372 685.841,561.863 688.405,572.066C689.599,570.398 690.749,568.631 692.006,566.784C687.939,550.888 687.52,536.657 692.006,524.667C691.47,521.001 689.74,518.639 686.905,516.254C681.68,511.858 672.904,508.76 662.242,506.264ZM351.651,506.264C345.051,515.148 340.935,524.21 339.756,533.48C343.841,543.719 342.999,548.327 338.554,548.818C331.081,552.372 328.052,561.863 325.488,572.066C324.294,570.398 323.144,568.631 321.887,566.784C325.953,550.888 326.373,536.657 321.887,524.667C322.423,521.001 324.153,518.639 326.988,516.254C332.213,511.858 340.989,508.76 351.651,506.264ZM267.58,506.264C274.18,515.148 278.296,524.21 279.475,533.48C275.39,543.719 276.232,548.327 280.677,548.818C288.15,552.372 291.179,561.863 293.743,572.066C294.938,570.398 296.087,568.631 297.344,566.784C293.278,550.888 292.859,536.657 297.344,524.667C296.808,521.001 295.078,518.639 292.243,516.254C287.019,511.858 278.242,508.76 267.58,506.264ZM703.924,564.894C700.291,564.873 697.364,564.525 694.462,564.267C691.329,550.499 691.048,537.874 694.462,526.731C697.311,525.868 699.582,524.667 704.277,524.667L704.496,524.668C709.043,524.704 711.288,525.882 714.092,526.731C717.506,537.874 717.225,550.499 714.092,564.267C711.097,564.533 708.074,564.895 704.277,564.895L703.924,564.894ZM309.969,564.894C313.601,564.873 316.529,564.525 319.43,564.267C322.563,550.499 322.845,537.874 319.43,526.731C316.582,525.868 314.311,524.667 309.616,524.667L309.397,524.668C304.85,524.704 302.605,525.882 299.801,526.731C296.386,537.874 296.668,550.499 299.801,564.267C302.796,564.533 305.819,564.895 309.616,564.895L309.969,564.894Z" style="fill:white;"/>
    </g>
</svg>
