<?xml version="1.0" encoding="UTF-8" standalone="no"?>
<!DOCTYPE svg PUBLIC "-//W3C//DTD SVG 1.1//EN" "http://www.w3.org/Graphics/SVG/1.1/DTD/svg11.dtd">
<svg width="100%" height="100%" viewBox="0 0 1000 1000" version="1.1" xmlns="http://www.w3.org/2000/svg" xmlns:xlink="http://www.w3.org/1999/xlink" xml:space="preserve" xmlns:serif="http://www.serif.com/" style="fill-rule:evenodd;clip-rule:evenodd;stroke-linejoin:round;stroke-miterlimit:2;">
    <g transform="matrix(5.87171,-2.20097,2.20097,5.87171,-3675.38,-1277.91)">
        <path d="M514.258,571.276C505.961,569.596 500.563,564.539 499.635,554.279C499.635,554.279 474.302,555.67 468.533,554.351C465.593,553.679 464.397,549.061 464.869,546.879C465.541,543.773 469.925,541.587 476.089,541.385L483.402,452.112C483.402,452.112 487.387,450.747 486.833,450.255C486.417,449.885 487.093,448.957 486.552,448.555C483.268,446.114 481.346,434.976 489.471,430.547C493.829,428.45 500.66,427.506 513.938,427.862L513.938,427.788L523.371,427.788L523.371,427.79C533.857,427.739 539.65,428.691 543.507,430.547C551.632,434.976 549.709,446.114 546.426,448.555C545.885,448.957 546.561,449.885 546.145,450.255C545.59,450.747 549.576,452.112 549.576,452.112L556.889,541.385C563.053,541.587 567.437,543.773 568.109,546.879C568.581,549.061 567.385,553.679 564.445,554.351C558.676,555.67 533.343,554.279 533.343,554.279C532.408,564.617 526.935,569.672 518.528,571.314L514.258,571.276ZM542.448,437.137C542.448,436.045 541.562,435.159 540.47,435.159L492.508,435.159C491.416,435.159 490.53,436.045 490.53,437.137L490.53,441.092C490.53,442.183 491.416,443.069 492.508,443.069L540.47,443.069C541.562,443.069 542.448,442.183 542.448,441.092L542.448,437.137Z" style="fill:white;"/>
    </g>
</svg>
