<?xml version="1.0" encoding="UTF-8" standalone="no"?>
<!DOCTYPE svg PUBLIC "-//W3C//DTD SVG 1.1//EN" "http://www.w3.org/Graphics/SVG/1.1/DTD/svg11.dtd">
<svg width="100%" height="100%" viewBox="0 0 1000 1000" version="1.1" xmlns="http://www.w3.org/2000/svg" xmlns:xlink="http://www.w3.org/1999/xlink" xml:space="preserve" xmlns:serif="http://www.serif.com/" style="fill-rule:evenodd;clip-rule:evenodd;stroke-linejoin:round;stroke-miterlimit:2;">
    <g transform="matrix(2.67373,0,0,2.67373,-1038.27,-1422.44)">
        <path d="M679.722,749.867L636.691,756.342C591.14,813.027 538.057,809.487 481.097,774.951C439.181,744.525 427.083,705.533 444.978,657.926C450.275,642.31 460.102,629.154 471.567,616.887L471.567,625.41C492.054,621.248 512.746,612.854 533.877,595.376C577.583,594.799 604.554,614.282 619.173,648.57C630.136,672.293 627.715,697.697 616.504,718.359C609.4,731.454 598.115,743.354 580.251,753.1C561.721,756.939 536.196,762.139 511.815,745.257C504.388,740.114 498.021,731.494 491.765,719.925C486.273,699.916 487.737,684.318 494.777,672.284C502.253,659.506 515.859,650.409 535.133,650.67C558.162,652.239 570.511,663.437 571.928,684.493C570.876,703.629 562.643,712.763 546.885,711.416C538.684,711.626 533.683,707.939 530.77,699.293C527.212,689.401 530.696,683.948 542.395,684.493C547.781,685.349 548.848,683.626 546.337,679.765C543.765,676.399 538.985,675.058 531.342,676.341C516.711,685.311 514.045,697.581 523.065,713.073C532.399,724.405 545.332,727.264 562.61,719.895C580.183,708.74 588.594,694.318 584.809,675.545C582.022,662.369 574.203,649.822 553.967,638.827C538.945,634.205 523.555,633.99 507.32,643.877C484.04,660.714 471.552,682.074 475.652,710.388C476.79,726.185 486.554,740.994 504.035,754.918C518.336,765.33 535.458,769.485 554.973,770.284C580.608,765.824 599.094,759.505 609.069,745.254L616.96,738.741C626.665,732.717 637.043,723.896 648.616,710.093L643.329,698.636L627.439,721.786C637.543,699.767 639.419,677.747 633.164,655.728C628.255,637.159 618.516,619.989 600.175,605.311C581.525,593.023 561.956,587.214 541.66,586.519C515.658,586.233 494.362,591.457 477.419,601.78C452.726,622.749 436.792,643.901 425.898,665.158C403.858,701.038 402.23,737.994 415.258,775.722C435.271,826.147 475.813,851.41 536.882,851.511C607.524,847.978 661.96,823.089 679.722,749.867ZM673.297,735.782C708.242,730.507 728.469,719.899 736.927,705.028C746.205,684.774 745.316,668.855 737.538,654.932C730.595,642.503 718.991,634.471 702.592,633.205C673.037,635.304 659.485,651.191 656.685,676.341C653.472,689.255 658.259,702.24 673.697,715.32C683.566,719.602 684.766,726.084 673.297,735.782Z" style="fill:white;"/>
    </g>
</svg>
