<?xml version="1.0" encoding="UTF-8" standalone="no"?>
<!DOCTYPE svg PUBLIC "-//W3C//DTD SVG 1.1//EN" "http://www.w3.org/Graphics/SVG/1.1/DTD/svg11.dtd">
<svg width="100%" height="100%" viewBox="0 0 1000 1000" version="1.1" xmlns="http://www.w3.org/2000/svg" xmlns:xlink="http://www.w3.org/1999/xlink" xml:space="preserve" xmlns:serif="http://www.serif.com/" style="fill-rule:evenodd;clip-rule:evenodd;stroke-linejoin:round;stroke-miterlimit:2;">
    <g transform="matrix(2.88835,0,0,2.88835,-917.372,-752.571)">
        <path d="M490.72,349.398C560.237,288.959 611.483,322.46 625.856,339.326C654.218,372.606 667.347,447.697 570.326,500C548.759,511.626 526.377,527.328 496.745,548.309L490.72,552.576L484.695,548.309C455.063,527.328 432.68,511.626 411.114,500C314.092,447.697 327.221,372.606 355.583,339.326C369.956,322.46 421.202,288.959 490.72,349.398ZM490.72,533.439C461.925,513.068 439.823,497.734 418.525,486.252C383.907,467.59 364.58,446.109 355.986,424.63C344.064,394.837 353.433,365.927 367.47,349.456C374.288,341.456 391.735,329.065 416.365,330.478C434.555,331.522 456.119,340.012 480.472,361.184L490.72,370.094L500.967,361.184C525.32,340.012 546.885,331.522 565.074,330.478C589.704,329.065 607.152,341.456 613.969,349.456C628.006,365.927 637.375,394.837 625.454,424.63C616.859,446.109 597.532,467.59 562.914,486.252C541.617,497.734 519.514,513.068 490.72,533.439ZM488.576,497.125C496.16,497.125 502.317,503.643 502.317,511.671C502.317,519.7 496.16,526.218 488.576,526.218C480.992,526.218 474.835,519.7 474.835,511.671C474.835,503.643 480.992,497.125 488.576,497.125ZM513.741,482.578C521.325,482.578 527.482,489.096 527.482,497.125C527.482,505.153 521.325,511.671 513.741,511.671C506.157,511.671 500,505.153 500,497.125C500,489.096 506.157,482.578 513.741,482.578ZM464.332,480.498C471.916,480.498 478.073,487.016 478.073,495.045C478.073,503.073 471.916,509.591 464.332,509.591C456.748,509.591 450.591,503.073 450.591,495.045C450.591,487.016 456.748,480.498 464.332,480.498ZM541.539,466.09C549.082,466.141 555.192,472.639 555.192,480.636C555.192,488.634 549.082,495.132 541.539,495.183L541.451,495.183C533.867,495.183 527.709,488.665 527.709,480.636C527.709,472.608 533.867,466.09 541.451,466.09L541.539,466.09ZM490.233,465.952C497.817,465.952 503.975,472.47 503.975,480.498C503.975,488.527 497.817,495.045 490.233,495.045C482.649,495.045 476.492,488.527 476.492,480.498C476.492,472.47 482.649,465.952 490.233,465.952ZM444.487,475.589C439.946,475.589 436.233,479.468 436.233,484.276C436.233,489.083 439.946,492.962 444.487,492.962C449.029,492.962 452.742,489.083 452.742,484.276C452.742,479.468 449.029,475.589 444.487,475.589ZM444.487,477.375C448.072,477.375 450.956,480.481 450.956,484.276C450.956,488.07 448.072,491.176 444.487,491.176C440.903,491.176 438.019,488.07 438.019,484.276C438.019,480.481 440.903,477.375 444.487,477.375ZM424.906,457.421C432.449,457.471 438.558,463.97 438.558,471.967C438.558,479.964 432.449,486.462 424.906,486.513L424.817,486.513C417.233,486.513 411.076,479.995 411.076,471.967C411.076,463.938 417.233,457.42 424.817,457.42L424.906,457.421ZM515.71,460.592C510.285,460.592 505.85,465.225 505.85,470.967C505.85,476.709 510.285,481.341 515.71,481.341C521.134,481.341 525.569,476.709 525.569,470.967C525.569,465.225 521.134,460.592 515.71,460.592ZM515.71,462.725C519.991,462.725 523.436,466.434 523.436,470.967C523.436,475.499 519.991,479.208 515.71,479.208C511.428,479.208 507.983,475.499 507.983,470.967C507.983,466.434 511.428,462.725 515.71,462.725ZM572.399,446.89C579.983,446.89 586.14,453.408 586.14,461.437C586.14,469.465 579.983,475.983 572.399,475.983C564.815,475.983 558.658,469.465 558.658,461.437C558.658,453.408 564.815,446.89 572.399,446.89ZM469.923,454.84C464.498,454.84 460.063,459.472 460.063,465.215C460.063,470.957 464.498,475.589 469.923,475.589C475.347,475.589 479.782,470.957 479.782,465.215C479.782,459.472 475.347,454.84 469.923,454.84ZM469.923,456.973C474.204,456.973 477.649,460.682 477.649,465.215C477.649,469.747 474.204,473.456 469.923,473.456C465.641,473.456 462.196,469.747 462.196,465.215C462.196,460.682 465.641,456.973 469.923,456.973ZM401.181,439.683C408.765,439.683 414.922,446.201 414.922,454.229C414.922,462.258 408.765,468.776 401.181,468.776C393.597,468.776 387.44,462.258 387.44,454.229C387.44,446.201 393.597,439.683 401.181,439.683ZM452.614,453.983C456.13,453.983 458.984,457.005 458.984,460.727C458.984,464.449 456.13,467.471 452.614,467.471C449.098,467.471 446.243,464.449 446.243,460.727C446.243,457.005 449.098,453.983 452.614,453.983ZM541.371,444.046C535.947,444.046 531.512,448.678 531.512,454.42C531.512,460.162 535.947,464.795 541.371,464.795C546.796,464.795 551.231,460.162 551.231,454.42C551.231,448.678 546.796,444.046 541.371,444.046ZM490.322,434.693C497.865,434.743 503.975,441.242 503.975,449.239C503.975,457.236 497.865,463.734 490.322,463.785L490.233,463.785C482.649,463.785 476.492,457.267 476.492,449.239C476.492,441.21 482.649,434.692 490.233,434.692L490.322,434.693ZM541.371,446.179C545.653,446.179 549.098,449.888 549.098,454.42C549.098,458.953 545.653,462.662 541.371,462.662C537.09,462.662 533.645,458.953 533.645,454.42C533.645,449.888 537.09,446.179 541.371,446.179ZM512.471,445.588C515.987,445.588 518.841,448.609 518.841,452.331C518.841,456.054 515.987,459.075 512.471,459.075C508.955,459.075 506.1,456.054 506.1,452.331C506.1,448.609 508.955,445.588 512.471,445.588ZM596.429,428.025C603.972,428.075 610.082,434.574 610.082,442.571C610.082,450.568 603.972,457.067 596.429,457.117L596.34,457.118C588.756,457.118 582.599,450.6 582.599,442.571C582.599,434.543 588.756,428.025 596.34,428.025L596.429,428.025ZM426.159,442.495C429.675,442.495 432.529,445.517 432.529,449.239C432.529,452.961 429.675,455.983 426.159,455.983C422.643,455.983 419.788,452.961 419.788,449.239C419.788,445.517 422.643,442.495 426.159,442.495ZM468.683,440.495C472.199,440.495 475.054,443.517 475.054,447.239C475.054,450.961 472.199,453.983 468.683,453.983C465.167,453.983 462.312,450.961 462.312,447.239C462.312,443.517 465.167,440.495 468.683,440.495ZM556.834,438.844C560.35,438.844 563.204,441.865 563.204,445.588C563.204,449.31 560.35,452.331 556.834,452.331C553.318,452.331 550.463,449.31 550.463,445.588C550.463,441.865 553.318,438.844 556.834,438.844ZM450.591,420.146C458.175,420.146 464.332,426.664 464.332,434.692C464.332,442.721 458.175,449.239 450.591,449.239C443.007,449.239 436.85,442.721 436.85,434.692C436.85,426.664 443.007,420.146 450.591,420.146ZM379.846,418.942C387.389,418.993 393.498,425.491 393.498,433.488C393.498,441.485 387.389,447.984 379.846,448.035L379.757,448.035C372.173,448.035 366.015,441.517 366.015,433.488C366.015,425.46 372.173,418.942 379.757,418.942L379.846,418.942ZM527.709,418.942C535.293,418.942 541.451,425.46 541.451,433.488C541.451,441.517 535.293,448.035 527.709,448.035C520.125,448.035 513.968,441.517 513.968,433.488C513.968,425.46 520.125,418.942 527.709,418.942ZM420.887,407.18C412.105,407.18 404.925,414.68 404.925,423.977C404.925,433.274 412.105,440.774 420.887,440.774C429.669,440.774 436.85,433.274 436.85,423.977C436.85,414.68 429.669,407.18 420.887,407.18ZM506.371,426.769C509.887,426.769 512.741,429.79 512.741,433.513C512.741,437.235 509.887,440.256 506.371,440.256C502.855,440.256 500,437.235 500,433.513C500,429.79 502.855,426.769 506.371,426.769ZM565.908,404.395C556.725,404.395 549.216,412.238 549.216,421.959C549.216,431.68 556.725,439.523 565.908,439.523C575.091,439.523 582.599,431.68 582.599,421.959C582.599,412.238 575.091,404.395 565.908,404.395ZM420.887,410.633C427.819,410.633 433.396,416.639 433.396,423.977C433.396,431.315 427.819,437.32 420.887,437.32C413.955,437.32 408.378,431.315 408.378,423.977C408.378,416.639 413.955,410.633 420.887,410.633ZM565.908,408.006C573.156,408.006 578.988,414.286 578.988,421.959C578.988,429.632 573.156,435.912 565.908,435.912C558.659,435.912 552.827,429.632 552.827,421.959C552.827,414.286 558.659,408.006 565.908,408.006ZM489.726,404.395C482.239,404.395 476.118,410.789 476.118,418.714C476.118,426.64 482.239,433.033 489.726,433.033C497.213,433.033 503.334,426.64 503.334,418.714C503.334,410.789 497.213,404.395 489.726,404.395ZM610.082,401.158C617.666,401.158 623.823,407.676 623.823,415.705C623.823,423.733 617.666,430.251 610.082,430.251C602.498,430.251 596.34,423.733 596.34,415.705C596.34,407.676 602.498,401.158 610.082,401.158ZM489.726,407.339C495.635,407.339 500.39,412.459 500.39,418.714C500.39,424.97 495.635,430.089 489.726,430.089C483.817,430.089 479.062,424.97 479.062,418.714C479.062,412.459 483.817,407.339 489.726,407.339ZM468.683,416.228C472.199,416.228 475.054,419.25 475.054,422.972C475.054,426.694 472.199,429.716 468.683,429.716C465.167,429.716 462.312,426.694 462.312,422.972C462.312,419.25 465.167,416.228 468.683,416.228ZM510.449,409.484C513.965,409.484 516.819,412.506 516.819,416.228C516.819,419.95 513.965,422.972 510.449,422.972C506.933,422.972 504.078,419.95 504.078,416.228C504.078,412.506 506.933,409.484 510.449,409.484ZM542.093,409.484C545.609,409.484 548.463,412.506 548.463,416.228C548.463,419.95 545.609,422.972 542.093,422.972C538.577,422.972 535.722,419.95 535.722,416.228C535.722,412.506 538.577,409.484 542.093,409.484ZM394.955,389.849C402.539,389.849 408.696,396.367 408.696,404.395C408.696,412.424 402.539,418.942 394.955,418.942C387.371,418.942 381.214,412.424 381.214,404.395C381.214,396.367 387.371,389.849 394.955,389.849ZM366.473,389.849C374.057,389.849 380.214,396.367 380.214,404.395C380.214,412.424 374.057,418.942 366.473,418.942C358.889,418.942 352.732,412.424 352.732,404.395C352.732,396.367 358.889,389.849 366.473,389.849ZM454.942,387.135C462.526,387.135 468.683,393.653 468.683,401.681C468.683,409.71 462.526,416.228 454.942,416.228C447.358,416.228 441.201,409.71 441.201,401.681C441.201,393.653 447.358,387.135 454.942,387.135ZM588.538,402.74C592.054,402.74 594.909,405.762 594.909,409.484C594.909,413.206 592.054,416.228 588.538,416.228C585.022,416.228 582.167,413.206 582.167,409.484C582.167,405.762 585.022,402.74 588.538,402.74ZM527.709,385.595C535.293,385.595 541.451,392.113 541.451,400.141C541.451,408.17 535.293,414.688 527.709,414.688C520.125,414.688 513.968,408.17 513.968,400.141C513.968,392.113 520.125,385.595 527.709,385.595ZM433.529,396.332C437.045,396.332 439.9,399.354 439.9,403.076C439.9,406.798 437.045,409.82 433.529,409.82C430.013,409.82 427.159,406.798 427.159,403.076C427.159,399.354 430.013,396.332 433.529,396.332ZM550.463,395.996C553.979,395.996 556.834,399.018 556.834,402.74C556.834,406.462 553.979,409.484 550.463,409.484C546.947,409.484 544.093,406.462 544.093,402.74C544.093,399.018 546.947,395.996 550.463,395.996ZM477.054,394.996C480.57,394.996 483.424,398.018 483.424,401.74C483.424,405.462 480.57,408.484 477.054,408.484C473.538,408.484 470.683,405.462 470.683,401.74C470.683,398.018 473.538,394.996 477.054,394.996ZM419.788,390.588C423.304,390.588 426.159,393.61 426.159,397.332C426.159,401.054 423.304,404.076 419.788,404.076C416.272,404.076 413.417,401.054 413.417,397.332C413.417,393.61 416.272,390.588 419.788,390.588ZM580.342,373.647C587.926,373.647 594.083,380.165 594.083,388.193C594.083,396.222 587.926,402.74 580.342,402.74C572.758,402.74 566.6,396.222 566.6,388.193C566.6,380.165 572.758,373.647 580.342,373.647ZM493.277,371.913C500.861,371.913 507.019,378.431 507.019,386.46C507.019,394.488 500.861,401.006 493.277,401.006C485.693,401.006 479.536,394.488 479.536,386.46C479.536,378.431 485.693,371.913 493.277,371.913ZM611.926,369.923C619.51,369.923 625.667,376.442 625.667,384.47C625.667,392.498 619.51,399.017 611.926,399.017C604.342,399.017 598.185,392.498 598.185,384.47C598.185,376.442 604.342,369.923 611.926,369.923ZM433.778,369.344C426.991,369.344 421.442,375.14 421.442,382.325C421.442,389.51 426.991,395.306 433.778,395.306C440.565,395.306 446.114,389.51 446.114,382.325C446.114,375.14 440.565,369.344 433.778,369.344ZM548.259,369.344C541.472,369.344 535.922,375.14 535.922,382.325C535.922,389.51 541.472,395.306 548.259,395.306C555.046,395.306 560.595,389.51 560.595,382.325C560.595,375.14 555.046,369.344 548.259,369.344ZM548.259,372.013C553.616,372.013 557.926,376.654 557.926,382.325C557.926,387.996 553.616,392.637 548.259,392.637C542.901,392.637 538.591,387.996 538.591,382.325C538.591,376.654 542.901,372.013 548.259,372.013ZM433.778,372.013C439.135,372.013 443.446,376.654 443.446,382.325C443.446,387.996 439.135,392.637 433.778,392.637C428.421,392.637 424.111,387.996 424.111,382.325C424.111,376.654 428.421,372.013 433.778,372.013ZM370.657,360.756C378.241,360.756 384.399,367.274 384.399,375.302C384.399,383.331 378.241,389.849 370.657,389.849C363.073,389.849 356.916,383.331 356.916,375.302C356.916,367.274 363.073,360.756 370.657,360.756ZM407.239,360.756C414.823,360.756 420.98,367.274 420.98,375.302C420.98,383.331 414.823,389.849 407.239,389.849C399.655,389.849 393.498,383.331 393.498,375.302C393.498,367.274 399.655,360.756 407.239,360.756ZM468.542,357.367C476.126,357.367 482.283,363.885 482.283,371.913C482.283,379.942 476.126,386.46 468.542,386.46C460.958,386.46 454.801,379.942 454.801,371.913C454.801,363.885 460.958,357.367 468.542,357.367ZM517.138,355.377C524.722,355.377 530.879,361.895 530.879,369.923C530.879,377.952 524.722,384.47 517.138,384.47C509.554,384.47 503.396,377.952 503.396,369.923C503.396,361.895 509.554,355.377 517.138,355.377ZM566.965,364.432C570.481,364.432 573.336,367.454 573.336,371.176C573.336,374.898 570.481,377.92 566.965,377.92C563.449,377.92 560.595,374.898 560.595,371.176C560.595,367.454 563.449,364.432 566.965,364.432ZM598.185,342.82C605.769,342.82 611.926,349.338 611.926,357.367C611.926,365.395 605.769,371.913 598.185,371.913C590.601,371.913 584.444,365.395 584.444,357.367C584.444,349.338 590.601,342.82 598.185,342.82ZM444.971,341.632C452.514,341.683 458.623,348.181 458.623,356.178C458.623,364.175 452.514,370.674 444.971,370.725L444.882,370.725C437.298,370.725 431.141,364.207 431.141,356.178C431.141,348.15 437.298,341.632 444.882,341.632L444.971,341.632ZM542.263,340.83C549.847,340.83 556.004,347.348 556.004,355.377C556.004,363.405 549.847,369.923 542.263,369.923C534.679,369.923 528.522,363.405 528.522,355.377C528.522,347.348 534.679,340.83 542.263,340.83ZM389.917,337.613C397.501,337.613 403.659,344.131 403.659,352.16C403.659,360.188 397.501,366.706 389.917,366.706C382.333,366.706 376.176,360.188 376.176,352.16C376.176,344.131 382.333,337.613 389.917,337.613ZM570.703,334.702C578.287,334.702 584.444,341.22 584.444,349.249C584.444,357.277 578.287,363.795 570.703,363.795C563.119,363.795 556.961,357.277 556.961,349.249C556.961,341.22 563.119,334.702 570.703,334.702ZM417.4,331.662C424.984,331.662 431.141,338.181 431.141,346.209C431.141,354.237 424.984,360.756 417.4,360.756C409.816,360.756 403.659,354.237 403.659,346.209C403.659,338.181 409.816,331.662 417.4,331.662Z" style="fill:white;"/>
    </g>
</svg>
