<?xml version="1.0" encoding="UTF-8" standalone="no"?>
<!DOCTYPE svg PUBLIC "-//W3C//DTD SVG 1.1//EN" "http://www.w3.org/Graphics/SVG/1.1/DTD/svg11.dtd">
<svg width="100%" height="100%" viewBox="0 0 1000 1000" version="1.1" xmlns="http://www.w3.org/2000/svg" xmlns:xlink="http://www.w3.org/1999/xlink" xml:space="preserve" xmlns:serif="http://www.serif.com/" style="fill-rule:evenodd;clip-rule:evenodd;stroke-linejoin:round;stroke-miterlimit:2;">
    <g transform="matrix(5.04837,0,0,5.04837,-2595.14,-2145.35)">
        <path d="M659.497,571.59C662.683,569.205 665.538,567.722 668.038,566.92C671.189,565.91 673.802,565.969 675.827,566.662C678.01,567.408 679.543,568.872 680.385,570.603C681.21,570.552 682.04,570.637 682.854,570.892C684.929,571.541 686.94,573.288 688.458,576.793C688.572,577.046 688.459,577.344 688.207,577.458C687.954,577.572 687.656,577.459 687.542,577.207C685.687,573.245 683.268,571.83 680.869,571.882C681.959,575.798 679.844,580.438 674.13,581.386C672.603,581.624 671.663,581.256 671.162,580.675C670.711,580.151 670.541,579.397 670.723,578.496C670.931,577.459 671.615,576.173 672.653,574.948C673.832,573.555 675.459,572.225 677.262,571.414C677.743,571.198 678.235,571.018 678.735,570.882C678.048,569.66 676.907,568.632 675.335,568.066C671.966,566.854 666.803,567.652 659.939,572.563L676.04,608L523.96,608L543.69,564.576L600,564.769L656.31,564.576L659.497,571.59ZM681.469,591.038C687.332,586.243 693.735,584.448 700.581,585.117C701.039,586.068 701.416,587.091 701.696,588.173C703.52,595.204 700.564,602.063 695.1,603.48C689.636,604.897 683.72,600.339 681.896,593.307C681.699,592.546 681.558,591.788 681.469,591.038ZM687.43,578.356C688.199,580.335 688.825,582.377 689.315,584.477C686.576,585.403 683.923,586.81 681.363,588.737C681.487,583.964 683.783,579.867 687.43,578.356ZM689.242,577.843C693.024,577.238 696.922,579.387 699.455,583.149C696.599,582.989 693.817,583.241 691.116,583.941C690.623,581.85 690,579.817 689.242,577.843ZM679.26,572.125C676.087,572.99 673.277,575.959 672.449,578.169C672.326,578.498 672.251,578.805 672.238,579.081C672.227,579.297 672.25,579.488 672.368,579.621C672.454,579.718 672.588,579.769 672.755,579.804C673.048,579.865 673.417,579.853 673.87,579.776C678.497,579.045 680.193,575.278 679.26,572.125ZM586.829,540L529.227,540C526.32,540 523.96,537.64 523.96,534.732L523.96,445.268C523.96,442.36 526.32,440 529.227,440L670.773,440C673.68,440 676.04,442.36 676.04,445.268L676.04,534.732C676.04,537.64 673.68,540 670.773,540L613.171,540C613.48,543.429 614.178,550.319 615,553C615.602,554.961 618.645,554.853 620,556C622.275,557.926 622.739,560 619,560L581,560C577.261,560 577.725,557.926 580,556C581.355,554.853 584.398,554.961 585,553C585.822,550.319 586.52,543.429 586.829,540ZM668.181,446.245L531.819,446.245L531.819,523.755L668.181,523.755L668.181,446.245ZM614.163,459C617.814,459.001 621.29,460.381 623.749,462.737C626.718,465.582 628.202,469.849 628.202,474.827C628.202,474.827 628.202,474.827 628.202,474.827C628.202,479.805 626.718,485.495 623.749,491.184L623.354,491.959L623.214,492.218L623.202,492.064C623.202,492.064 623.178,492.178 623.122,492.384C621.311,495.635 617.063,501.032 611.202,503.379C606.037,505.447 600.021,513.907 600,513.941L600,513.941C599.979,513.907 593.963,505.447 588.798,503.379C582.937,501.032 578.689,495.635 576.878,492.384C576.822,492.178 576.798,492.064 576.798,492.064L576.786,492.218L576.289,491.26L576.251,491.184C573.282,485.495 571.798,479.805 571.798,474.827C571.798,474.827 571.798,474.827 571.798,474.827C571.798,469.849 573.282,465.582 576.251,462.737C578.71,460.381 582.186,459.001 585.837,459C591.004,458.999 596.521,461.76 600,468.426L600,468.426C603.479,461.76 608.996,458.999 614.163,459Z" style="fill:white;"/>
    </g>
</svg>
