<?xml version="1.0" encoding="UTF-8" standalone="no"?>
<!DOCTYPE svg PUBLIC "-//W3C//DTD SVG 1.1//EN" "http://www.w3.org/Graphics/SVG/1.1/DTD/svg11.dtd">
<svg width="100%" height="100%" viewBox="0 0 1000 1000" version="1.1" xmlns="http://www.w3.org/2000/svg" xmlns:xlink="http://www.w3.org/1999/xlink" xml:space="preserve" xmlns:serif="http://www.serif.com/" style="fill-rule:evenodd;clip-rule:evenodd;stroke-linejoin:round;stroke-miterlimit:2;">
    <g transform="matrix(1.39073,0,0,1.39073,-53.7029,-232.345)">
        <path d="M174.123,619.899C171.144,619.754 168.398,619.477 166,619C163.51,621.563 159.372,621.005 155,620C152.963,626.887 145.618,626.267 143,624.852C139.632,623.032 136.686,617.096 139,606C130.81,601.215 124.046,595.767 117.968,590C118.669,600.423 113.792,601.614 112,601.82C109.318,602.13 104.55,598.105 105,583C98.256,581.523 98.207,575.217 100,567.582C62.529,533.188 66.045,459.369 113.327,420C152.509,387.375 213.361,358.378 295,360C364.591,345.031 410.145,356.029 438.031,380C443.541,384.737 448.443,388.991 452.698,392.965C482.312,384.715 513.29,383.732 544,396C606.338,398.015 650.887,416.066 680,449.788C709.068,483.458 722.207,524.446 715,578C715.925,582.862 715.69,587.614 715,592.324C716.747,598.496 719.164,605.281 721,610.543C723.471,617.627 719.553,621.719 707.833,615C703.982,610.379 703.028,605.699 703,601C697.432,609.716 689.48,617.24 680,624C683.205,633.95 680.159,638.53 670,637C666.74,645.707 661.414,649.355 652,643C651.071,642.763 650.223,642.621 649.45,642.564C649.812,644.988 650,647.472 650,650C650,677.596 627.596,700 600,700C577.888,700 559.108,685.615 552.518,665.697C545.428,665.205 538.262,664.644 531,664C510.688,672.193 499.588,672.803 506,659C489.984,654.792 475.027,650.453 461,646C461.288,649.667 461.288,653.333 461,657C456.339,662.626 451.285,663.28 446,661C446.431,656.162 447.395,651.485 449,647C438.986,648.682 435.817,644.276 437,636C398.211,621.246 369.52,606.279 349.296,591.173C346.93,595.164 343.937,598.257 340,600C337.098,593.653 336.553,587.359 337.056,581.088C335.931,580.057 334.844,579.025 333.797,577.996C327.221,583.45 317.456,588.763 306,594C309.784,596.723 309.734,598.548 309,601.067C307.706,605.506 301.541,607.462 291,607C284.273,611.977 277.686,615.664 272,611C270.913,610.914 269.868,610.803 268.857,610.672C263.962,633.147 243.934,650 220,650C199.474,650 181.821,637.605 174.123,619.899ZM355.396,574.763C374.321,590.987 402.098,607.71 440,625C449.505,615.807 457.231,614.688 462,627C466.037,626.68 469.468,628.106 471,635C483.138,640.837 495.857,646.205 513,648C527.415,636.169 534.242,638.613 535,652.47C540.087,652.505 545.12,652.656 550.086,652.952C550.029,651.975 550,650.991 550,650C550,622.404 572.404,600 600,600C621.196,600 639.33,613.218 646.601,631.856C647.735,631.253 648.868,630.635 650,630C650.613,627.197 651.801,624.479 657.022,622.35C660.604,614.927 666,611.053 674.415,613.082C681.21,606.786 687.622,600.21 692,592.158C686.697,588.18 688.678,582.986 695.29,577.019C693.638,568.947 695.001,563.775 700,562.101C707.553,524.998 698.921,493.285 680,465C635.32,448.041 592.326,429.362 550,410C526.129,406.588 499.673,409.519 471.085,417.692C473.103,424.245 472.815,431.314 470,440C457.309,525.781 412.269,546.49 360,552.657C358.451,560.005 357.148,567.704 355.396,574.763ZM423.685,403.381C376.377,377.243 322.753,371.016 267.474,370C156.014,408.472 75.878,475.075 94.426,540C102.921,535.055 109.153,539.002 112.809,553.066C125.311,557.557 124.529,566.017 122,575C128.366,584.059 137.196,592.209 147,600C147.907,590.873 152.661,588.144 155,588.087C157.728,588.021 161.864,592.617 162,602C164.663,603.043 167.41,603.882 170.209,604.592C170.071,603.08 170,601.548 170,600C170,572.404 192.404,550 220,550C245.33,550 266.286,568.876 269.557,593.32C271.449,592.165 273.767,591.286 277,591C277.913,584.848 281.169,582.595 284,581.665C287.104,580.645 291.387,581.219 295,586C306.114,580.811 316.336,575.264 325.97,569.481C312.477,553.074 307.933,536.546 310.297,520C316.173,478.886 361.635,430.392 423.685,403.381ZM453.346,423.33C418.518,435.469 380.819,454.634 341,479C318.709,504.831 316.179,531.772 340.659,560.224L341,560L342,548C341.803,544.296 343.515,541.626 349,541C350.883,532.132 354.76,531.312 360,536C367.866,529.331 375.025,521.551 384.142,517C403.153,507.511 417.724,497.291 429,486C458.094,456.867 464.792,436.681 453.346,423.33ZM436.437,494.948C429.095,500.997 422.322,508.647 413.225,512.858C399.467,519.226 389.1,527.09 380,535.554C403.22,531.347 424.756,523.577 436.437,494.948ZM84.959,490C92.96,466.385 104.292,443.846 124.838,424.282C145.385,404.718 175.144,388.13 220,376.416C161.183,397.933 116.522,436.212 84.959,490ZM434.308,409.659C414.61,417.641 394.716,430.519 374.559,450C396.778,434.886 419.475,423.382 442.599,415.17C439.86,413.255 437.096,411.419 434.308,409.659ZM665.121,450C650.99,443.67 636.831,437.17 622.644,430.502C608.457,423.835 594.242,417 580,410C618.159,417.939 646.121,431.499 665.121,450ZM449.992,404.295C448.596,404.686 447.197,405.101 445.797,405.539C448.813,407.349 451.825,409.216 454.835,411.142L455.081,411.067L455.758,410.863C453.867,408.585 451.945,406.396 449.992,404.295ZM466.243,407.944C482.027,403.884 498.002,401.269 514.155,400C496.621,397.994 479.002,398.103 461.246,401.61C463.147,403.753 464.816,405.851 466.243,407.944ZM441.949,396.29C412.642,369.372 377.129,360.186 337.155,363.75C357.384,367.57 377.518,373.372 397.542,381.439C409.88,386.409 422.177,392.24 434.43,398.996C436.925,398.048 439.433,397.144 441.949,396.29Z" style="fill:white;"/>
    </g>
</svg>
