<?xml version="1.0" encoding="UTF-8" standalone="no"?>
<!DOCTYPE svg PUBLIC "-//W3C//DTD SVG 1.1//EN" "http://www.w3.org/Graphics/SVG/1.1/DTD/svg11.dtd">
<svg width="100%" height="100%" viewBox="0 0 1000 1000" version="1.1" xmlns="http://www.w3.org/2000/svg" xmlns:xlink="http://www.w3.org/1999/xlink" xml:space="preserve" xmlns:serif="http://www.serif.com/" style="fill-rule:evenodd;clip-rule:evenodd;stroke-linejoin:round;stroke-miterlimit:2;">
    <g transform="matrix(1.89507,0,0,1.89507,-858.327,-871.003)">
        <path d="M777.951,694.856C778.011,694.425 778.026,694.128 778,694C777.782,694.212 777.782,694.507 777.951,694.856C777.582,697.51 775.517,705.254 771,710C763.803,717.563 750.886,719.219 750,720C742.073,726.992 733.156,731.993 720,728.475C701.204,736.219 692.15,730.948 687.345,720C677.756,717.744 670.129,712.517 667,700.483C660.374,693.59 659.492,686.773 662,680C655.226,674.253 653.415,667.478 655,660C654.174,655.402 650.798,654.243 646,655C632.82,658.354 618,658.315 618,658.315L600,960.917L627.083,943.917C627.083,943.917 798.261,704.381 789.796,700C787.944,702.002 779.091,697.21 777.951,694.856ZM727,699C721.779,702.929 716.449,704.344 711,703C706.969,709.036 701.096,713.479 693,716C696.926,731.489 708.241,731.421 724,722C741.972,725.861 746.55,717.772 747,706C737.682,706.202 731.689,703.225 727,699ZM772.503,690C765.812,696.395 758.176,701.164 750,705C751.666,708.667 751.135,712.333 750,716C763.959,712.675 774.969,706.91 772.503,690ZM708,650C709.321,649.55 710.988,649.216 713,649C709.804,630.577 700.282,631.145 690,634C681.029,633.201 673.954,638.302 669,650C659.889,663.473 663.201,671.501 670,678C666.106,686.798 666.843,693.77 672,699C672.116,711.301 680.543,714.59 699,707C693.062,701.667 694.009,696.333 697,691C684.304,676.13 674.537,661.476 708,650ZM844.102,691.349C841.389,698.567 837.68,702.976 831,699C823.832,704.195 817.588,705.545 813,700C818.923,695.756 822.891,691.146 824,686C828.69,688.966 834.785,691.105 844.102,691.349ZM717,642C716.896,637.596 714.406,634.12 711,631C722.068,619.555 730.543,621.627 738,629C745.963,621.189 753.873,624.743 758,627.399C763.419,630.887 768.826,639.521 763,652C780.493,660.162 772.536,679.194 766.711,687C760.139,695.806 745.299,703.168 732,698C737.947,691.174 743.487,684.269 742,676C744.461,671.88 745.872,667.636 744,663C749.343,656.025 752.709,652.294 751.121,648C748.67,641.374 745.855,639.414 737,643C730.48,638.325 723.765,639.415 717,642ZM734,685C716.791,684.982 708.178,679.064 700,676C697.097,679 697.092,685 702,688C697.488,696.288 697.652,701.348 710,698C716.093,699.739 721.864,698.909 727,693C731.748,691.036 734.361,688.451 734,685ZM820,687C801.933,703.459 786.957,702.323 775,684C780.259,677.941 780.72,671.547 779,665L788,670C788.529,685.44 797.289,692.944 820,687ZM802,617C798.022,605.554 808.607,592.873 818,597C822.722,599.075 825.27,595.678 827.116,594C839.458,582.783 858.485,593.916 848,623C862.719,618.091 869.248,636.653 870.431,644C871.98,653.613 868.374,668.758 854,674C842.698,693.228 834.508,690.064 827,682C860.91,656.246 850.82,639.522 830,625C834.365,610.078 827.394,600.92 820,602.559C815.721,603.508 808.747,600.347 802,617ZM823,681C815.012,678.715 808.397,675.008 804,669C799.324,671.05 794.71,671.146 790.135,670C794.414,687.602 805.46,691.079 823,681ZM705,653C689.69,659.147 685.193,668.659 693,682C694.478,673.435 699.588,669.388 706,672C704.537,665.667 704.204,659.333 705,653ZM711,654C716.418,661.343 722.968,667.86 741,666C741.557,669.333 741.278,672.667 739,676C713.072,681.935 703.996,674.396 711,654ZM835,665C831.783,676.82 812.391,675.38 809,670.281C805.721,665.35 802.148,655.159 808,644C822.415,647.757 830.37,655.383 835,665ZM803,644L803,666C772.044,669.221 774.231,646.754 777.068,641C779.007,637.068 785.599,629.576 803,644ZM840,664C850.99,644.345 837.611,634.914 823,626C827.494,633.282 830.392,640.587 826,648C831.854,650.323 836.214,656.434 840,664ZM721.026,656.035L721,656C721.004,656.013 721.013,656.025 721.026,656.035C724.376,660.566 730.331,662.323 742,658C741.183,651.994 737.89,647.198 735,651C732.533,654.246 721.657,656.53 721.026,656.035ZM747,656C746.082,653.779 744.939,651.678 743.598,649.682C742.256,647.687 740.715,645.797 739,644C746.531,644.442 750.893,647.202 747,656ZM605,640C575.428,665.137 555.584,653.475 537.54,635C542.825,621.85 551.643,614.013 565,613C570.065,622.033 579.596,629.788 591,631C593.464,635.095 596.661,636.125 605,640ZM665.5,630C667.169,645.776 659.978,652.06 645,650C617.59,657.455 609.333,651.785 610,640C629.681,620.002 648.293,615.093 665.5,630ZM721,652C726.084,653.387 730.678,650.8 735,646C729.19,642.311 723.814,641.979 719,646C720.901,647.787 721.324,649.829 721,652ZM807,627C806.786,631.205 807.932,634.999 810.558,638.344C813.184,641.69 817.291,644.588 823,647C826.088,636.301 823.623,628.262 807,627ZM798,604C796.314,610.96 795.933,617.94 801.14,625C800.874,630.185 802.081,635.044 804,640C797.488,634.223 790.13,630.235 781,630C777.079,627.719 775.062,618.78 777.037,614C778.779,609.786 784.743,603.947 798,604ZM852.482,617.943C860.345,594.069 876.612,595.784 896,607C895.005,617.838 888.43,628.826 875,640C869.23,628.164 861.357,621.759 852.482,617.943ZM788,601C770.688,605.608 768.279,618.928 774,637L771,638C768.537,629.729 764.979,622.396 758,618C757.789,605.894 760.554,594.437 768,584C775.047,587.209 782.048,590.713 788,601ZM628,621C620.685,625.255 614.41,630.099 610,636C591.669,625.675 586.552,610.71 591,600.023C594.108,592.555 603.243,585.816 620,580C618.231,589.423 615.874,598.803 611,608C614.296,612.764 618.513,617.361 628,621ZM707.776,623.33C706.455,625.491 705.979,627.724 706,630C700.032,628.74 694.597,628.818 690,631C677.668,626.206 670.012,619.037 668,609C675.667,605.721 683.333,605.388 691,608C694.013,614.73 700.15,619.498 707.776,623.33ZM650,616.261C653.785,612.965 656.619,609.114 659,605C664.304,603.253 669.486,601.269 674,598C676.961,598.268 679.229,599.712 681,602C674.898,602.74 669.14,604.476 664,608C665.18,613.946 667.536,619.935 672,626L669,628C663.34,621.471 657.128,617.084 650,616.261ZM670,553.706C662.028,545.909 657.169,537.969 652.925,530C636.058,525.871 622.035,530.037 610,540C593.84,548.724 586.287,560.987 594.856,579.881C562.004,594.599 571.549,609.683 585.278,624.803C582.612,598.077 592.024,580.088 620,575.53C605.685,558.482 620.238,546.95 625.137,543.657C631.179,539.596 641.339,545.011 652.925,553.706C658.005,552.809 663.855,553.041 670,553.706ZM806.975,623C806.633,613.707 809.787,608.122 813.828,606.028C817.868,603.934 822.796,605.33 826,610C830.252,616.196 822.023,627.838 806.975,623ZM774,554C781.216,558.842 783.102,567.865 777.196,583C774.061,580.45 770.733,578.79 767,579C757.775,587.823 755.415,597.415 753,607C750.905,606.879 748.877,606.844 747,607C745.235,616.092 736.874,619.121 724,618C703.407,622.625 696.149,614.307 693,602C698.862,602.953 704.628,603.274 710,601C729.366,608.255 738.203,597.699 744,582C755.269,578.198 772.268,572.322 771,564.326C769.898,557.373 770.463,555.112 774,554ZM638,602C643.828,584.545 645.739,567.416 645,550C638.101,568.01 629.79,570.836 620,557.749C615.83,562.791 615.539,567.736 625.137,572.434C626.079,584.701 623.51,596.448 614.504,607.238C627.999,617.749 643.575,614.647 648.726,610C653.491,605.701 655.863,595.458 646.61,582.5L638,602ZM647.822,576.812C653.091,583.336 657.33,590.501 657.823,600C671.142,599.96 677.685,582.3 676.193,575.319C674.876,569.159 672.213,557.996 652.925,560C653.383,566.551 651.226,571.955 647.822,576.812ZM739,580C716.875,584.735 709.178,576.985 711,561C703.421,553.386 700.021,546.048 701,539C681.526,544.063 681.146,565.998 681.691,575C682.343,585.773 690.118,603.298 710,596C724.778,604.894 734.037,598.427 739,580ZM738,561C734.531,564.482 731.029,566.558 727.5,567.479C722.876,568.686 718.205,567.908 713.5,565.707C712.802,577.714 726.383,578.797 731,577.955C734.568,577.304 748.766,569.313 738,561ZM754,516C762.2,530.341 767.888,544.979 745,563C746.5,567.523 746.454,572.167 744,577C756.275,573.168 769.763,567.476 766.448,559C765.21,555.832 766.004,553.533 768.677,552C785.491,542.357 775.747,524.891 754,516ZM735,558C731.401,559.168 728.548,559.163 726.396,558.056C724.245,556.949 722.794,554.74 722,551.5C719.527,563.686 719.072,572.902 735,558ZM736.85,512.378C721.558,514.62 707.423,518.531 702,535C683.763,539.155 679.829,551.27 677,564C675.263,546.543 668.31,527.688 703.029,520C714.345,510.573 725.631,506.011 736.85,512.378ZM636.417,553.07C636.015,549.783 633.352,546.934 630.714,546.322C628.077,545.711 625.464,547.337 625.162,553C624.495,565.506 637.54,562.251 636.417,553.07ZM715.016,556.444C709.742,541.566 725.887,534.991 730.579,536.5C734.047,537.615 748.66,543.424 740,556.019C772.02,548.903 752.975,513.995 740,514.246C738.749,514.27 738.664,517.678 736.454,518C722.62,520.015 714.201,522.317 710.721,526.5C700.002,539.383 704.266,552.614 715.016,556.444ZM737.5,553C735.479,555.844 731.15,555.42 727.928,553.434C724.706,551.449 722.591,547.901 725,544.5C729.33,538.385 741.538,547.317 737.5,553ZM777.617,547.345C801.603,539.714 800.121,514.139 795,486C782.348,491.783 769.633,497.466 765,516C781.323,525.77 781.82,536.426 777.617,547.345ZM691,516C686.121,503.336 677.225,495.872 665,492.718C654.962,510.145 654.428,527.573 670,545C671.709,533.089 676.603,522.528 691,516ZM752,512C755.716,508.644 747.601,495.322 736,493.349C720.224,490.665 707.632,496.477 706.056,512C708.046,505.746 719.873,504.682 731,506.113C739.939,507.263 749.081,514.637 752,512Z" style="fill:white;"/>
    </g>
</svg>
