<?xml version="1.0" encoding="UTF-8" standalone="no"?>
<!DOCTYPE svg PUBLIC "-//W3C//DTD SVG 1.1//EN" "http://www.w3.org/Graphics/SVG/1.1/DTD/svg11.dtd">
<svg width="100%" height="100%" viewBox="0 0 1000 1000" version="1.1" xmlns="http://www.w3.org/2000/svg" xmlns:xlink="http://www.w3.org/1999/xlink" xml:space="preserve" xmlns:serif="http://www.serif.com/" style="fill-rule:evenodd;clip-rule:evenodd;stroke-linejoin:round;stroke-miterlimit:2;">
    <g transform="matrix(3.23303,0,0,3.23303,-1084.18,-456.366)">
        <path d="M488.749,434.879C485.828,434.595 482.906,434.295 479.984,433.975C473.464,432.784 467.369,431.438 461.675,429.948C465.294,413.544 477.94,396.943 489.13,386.148L490,386.174L490.87,386.148C502.06,396.943 514.706,413.544 518.325,429.948C512.631,431.438 506.536,432.784 500.016,433.975C496.676,434.34 493.337,434.68 490,435L488.749,434.879ZM491.975,228.18C492.974,228.226 493.967,228.305 494.954,228.414C495.183,228.439 495.389,228.274 495.414,228.046C495.415,228.04 495.415,228.035 495.416,228.029C499.764,228.343 504.019,228.865 508,230C513.305,180.75 516.782,157.822 530,156.689C549.891,154.984 618.832,185.989 600,295C603.098,318.333 604.313,341.667 605,365C605,365 615.99,379.148 615.99,384.148C615.99,389.148 605,395 605,395C605,395 611.667,404.026 610,406.877C608.333,409.729 595,412.108 595,412.108C571.784,421.287 549.048,426.793 526.553,430.43C572.588,416.447 589.868,392.187 591.352,365.074C591.377,364.617 591.169,364.178 590.8,363.907C590.43,363.637 589.949,363.571 589.521,363.734C587.404,364.535 585.276,365.315 583.137,366.073C582.961,366.047 582.779,366.071 582.612,366.147C582.497,366.199 582.395,366.273 582.312,366.364C554.026,376.301 523.533,382.478 490,383.465L489.215,383.441C455.991,382.381 425.753,376.223 397.688,366.364C397.605,366.273 397.503,366.199 397.388,366.147C397.221,366.071 397.039,366.047 396.863,366.073C394.724,365.315 392.596,364.535 390.479,363.734C390.051,363.571 389.57,363.637 389.2,363.907C388.831,364.178 388.623,364.617 388.648,365.074C390.132,392.187 407.412,416.447 453.447,430.43C430.952,426.793 408.216,421.287 385,412.108C385,412.108 371.667,409.729 370,406.877C368.333,404.026 375,395 375,395C375,395 364.01,389.148 364.01,384.148C364.01,379.148 375,365 375,365C375.687,341.667 376.902,318.333 380,295C361.168,185.989 430.109,154.984 450,156.689C463.218,157.822 466.695,180.75 472,230C475.981,228.865 480.236,228.343 484.584,228.029C484.585,228.035 484.585,228.042 484.586,228.048C484.612,228.276 484.819,228.44 485.048,228.414C486.742,228.219 488.416,228.129 490.072,228.134L490.073,228.139C490.271,229.459 490.459,230.764 490.638,232.055C484.976,233.351 485.636,238.528 486.762,238C486.989,237.894 489.024,237.838 491.386,237.82C491.898,242.072 492.3,246.156 492.592,250.074C487.157,250.509 484.51,252.541 484.549,254.447C484.59,256.402 487.459,258.223 493.046,258.048C493.249,263.377 493.226,268.364 492.98,273.016C487.951,272.321 485.095,273.632 484.693,275.425C484.26,277.358 486.678,279.852 492.302,280.998C492.054,283.062 491.755,285.045 491.404,286.952C490.609,291.272 489.55,295.19 488.232,298.712C483.108,296.275 479.688,296.74 478.774,298.456C477.83,300.229 479.557,303.335 484.838,305.957C482.063,310.733 478.606,314.477 474.481,317.219C474.05,317.506 473.933,318.088 474.219,318.519C474.506,318.95 475.088,319.067 475.519,318.781C479.913,315.859 483.603,311.86 486.55,306.736C496.236,310.743 494.871,302.843 489.896,299.605C491.294,295.924 492.414,291.822 493.248,287.291C493.601,285.375 493.902,283.382 494.152,281.309C505.329,282.804 501.081,274.705 494.933,273.366C494.901,273.359 494.869,273.352 494.838,273.345C495.099,268.559 495.126,263.421 494.915,257.923C506.148,256.799 500.62,250.167 494.465,250C494.176,246.1 493.779,242.039 493.273,237.813C495.844,237.813 498.346,237.851 499.025,237.909C500.695,238.051 500.948,231.892 493.747,231.767C493.307,231.759 492.89,231.769 492.495,231.794C492.33,230.602 492.156,229.397 491.975,228.18ZM428.306,378.155C446.722,382.495 466.071,385.237 486.546,386.055C475.555,396.992 463.611,413.144 459.936,429.135C445.953,415.291 434.338,398.908 428.306,378.155ZM551.694,378.155C533.278,382.495 513.929,385.237 493.454,386.055C504.445,396.992 516.389,413.144 520.064,429.135C534.047,415.291 545.662,398.908 551.694,378.155ZM417.109,410.402C418.851,398.906 421.843,388.408 426.721,379.41C432.63,399.218 443.551,415.098 456.757,428.596C439.966,423.753 426.952,417.58 417.109,410.402ZM562.891,410.402C561.149,398.906 558.157,388.408 553.279,379.41C547.37,399.218 536.449,415.098 523.243,428.596C540.034,423.753 553.048,417.58 562.891,410.402ZM398.386,369.475C407.242,372.533 416.314,375.226 425.629,377.511C420.47,386.653 417.276,397.363 415.41,409.128L415.105,408.892C404.898,395.813 400.801,382.654 398.386,369.475ZM581.614,369.475C572.758,372.533 563.686,375.226 554.371,377.511C559.53,386.653 562.724,397.363 564.59,409.128L564.895,408.892C575.102,395.813 579.199,382.654 581.614,369.475ZM396.147,368.693L396.353,368.765C398.42,380.453 401.705,392.122 409.153,403.74C399.608,394.507 394.319,383.986 392.266,372.735C393.425,370.964 394.748,369.705 396.147,368.693ZM583.853,368.693L583.647,368.765C581.58,380.453 578.295,392.122 570.847,403.74C580.392,394.507 585.681,383.986 587.734,372.735C586.575,370.964 585.252,369.705 583.853,368.693ZM588.063,370.036L588.063,369.994L587.972,369.93L588.063,370.036ZM391.937,370.036L391.937,369.994L392.028,369.93L391.937,370.036ZM490,350C470.363,350 471.324,353.498 471.324,358.5C471.324,363.502 470.236,369.5 490,369.5L490.459,369.499C509.747,369.406 508.676,363.463 508.676,358.5C508.676,353.576 509.607,350.109 490.905,350.003L490,350ZM570,348.059C581.604,342.838 579.922,323.195 579.751,314C579.179,283.394 546.792,276.708 541,276.854C532.3,277.074 526.969,280.602 524,287.065C518.674,298.657 510.528,341.228 525,348C540.06,351.045 555.083,352.194 570,348.059ZM410,348.059C398.396,342.838 400.078,323.195 400.249,314C400.821,283.394 433.208,276.708 439,276.854C447.7,277.074 453.031,280.602 456,287.065C461.326,298.657 469.472,341.228 455,348C439.94,351.045 424.917,352.194 410,348.059ZM585,347.504L575,348C592.016,315.246 583.929,280.88 548.391,274.058C518.085,268.241 504.307,309.125 519,346L514,346C506.184,340.095 504.946,287.916 514,275.802C519.904,267.903 531.048,263.715 549,267.578C582.998,274.894 595.304,298.933 585,347.504ZM431.5,283.5C439.503,283.5 446,297.279 446,314.25C446,331.221 439.503,345 431.5,345C423.497,345 417,331.221 417,314.25C417,297.279 423.497,283.5 431.5,283.5ZM399,341C396.569,328.765 396.803,316.787 399,305C399,305 391.581,304.313 391,307C389.667,313.167 389.667,336.333 391,342C391.616,344.616 399,341 399,341ZM561,298C559.5,296 561,287 561,287L537,287C537,287 538.5,295.667 537,298C535.5,300.333 528,301 528,301L527,326C527,326 533.402,325.763 535,328C536.667,330.333 537,340 537,340L561,342C561,342 560.333,333.167 562,331C563.667,328.833 571,329 571,329L570,299C570,299 562.5,300 561,298ZM432.597,290.406C438.446,290.406 443.195,301.426 443.195,315C443.195,328.574 438.446,339.594 432.597,339.594C426.748,339.594 422,328.574 422,315C422,301.426 426.748,290.406 432.597,290.406ZM550,290.406C555.849,290.406 560.597,301.426 560.597,315C560.597,328.574 555.849,339.594 550,339.594C544.151,339.594 539.403,328.574 539.403,315C539.403,301.426 544.151,290.406 550,290.406ZM463.642,301.438C465.814,313.887 465.535,326.418 464.433,338.976C464.433,338.976 471.015,339.367 471.433,336.976C472.6,330.31 472.732,304.899 471.433,298.976C470.85,296.316 463.642,301.438 463.642,301.438ZM432,299C434.76,299 437,306.169 437,315C437,323.831 434.76,331 432,331C429.24,331 427,323.831 427,315C427,306.169 429.24,299 432,299ZM549.403,299C552.162,299 554.403,306.169 554.403,315C554.403,323.831 552.162,331 549.403,331C546.643,331 544.403,323.831 544.403,315C544.403,306.169 546.643,299 549.403,299ZM446.971,274.5C434.726,273.773 424.072,276.802 414.971,283.5C414.971,283.5 411.306,275.916 413.971,274.5C419.305,271.667 441.471,266.5 446.971,266.5C449.638,266.5 446.971,274.5 446.971,274.5ZM396.644,270C384.392,217.998 418.501,181.762 447.789,180C455.59,179.531 453.992,196.438 455,205L450,210C450,210 446.667,207.667 446,208C445.333,208.333 446,212 446,212C446,212 442.167,211.667 441,212C440.093,212.259 439,214 439,214C439,214 435.323,212.706 435,214C434.5,216 436,226 436,226C436,226 431,225.333 430,226C429,226.667 430,230 430,230C430,230 423.333,228.667 422,229C421.03,229.243 422,232 422,232C422,232 417.833,229.667 417,231C416.167,232.333 417,240 417,240C417,240 411.167,241.167 410,242C409.186,242.581 410,245 410,245C410,245 403.405,246.37 402,249C399.774,253.167 396.644,270 396.644,270ZM583.356,270C595.608,217.998 561.499,181.762 532.211,180C524.41,179.531 526.008,196.438 525,205L530,210C530,210 533.333,207.667 534,208C534.667,208.333 534,212 534,212C534,212 537.833,211.667 539,212C539.907,212.259 541,214 541,214C541,214 544.677,212.706 545,214C545.5,216 544,226 544,226C544,226 549,225.333 550,226C551,226.667 550,230 550,230C550,230 556.667,228.667 558,229C558.97,229.243 558,232 558,232C558,232 562.167,229.667 563,231C563.833,232.333 563,240 563,240C563,240 568.833,241.167 570,242C570.814,242.581 570,245 570,245C570,245 576.595,246.37 578,249C580.226,253.167 583.356,270 583.356,270ZM485.119,227.567C485.639,225.95 486.893,225 490,225L490.157,225.001C493.15,225.032 494.37,225.977 494.881,227.568C491.691,227.226 488.442,227.197 485.119,227.567Z" style="fill:white;"/>
    </g>
</svg>
