<?xml version="1.0" encoding="UTF-8" standalone="no"?>
<!DOCTYPE svg PUBLIC "-//W3C//DTD SVG 1.1//EN" "http://www.w3.org/Graphics/SVG/1.1/DTD/svg11.dtd">
<svg width="100%" height="100%" viewBox="0 0 1000 1000" version="1.1" xmlns="http://www.w3.org/2000/svg" xmlns:xlink="http://www.w3.org/1999/xlink" xml:space="preserve" xmlns:serif="http://www.serif.com/" style="fill-rule:evenodd;clip-rule:evenodd;stroke-linejoin:round;stroke-miterlimit:2;">
    <g transform="matrix(0.986479,0,0,0.986479,-203.36,-90.3971)">
        <path d="M600,1080C565.513,1067.28 530.033,1054.9 530,1030C536.147,1022.37 545.663,1022.66 560,1034.29C569.477,1040.52 581.863,1045.49 600,1042L600.424,1042.08C618.33,1045.41 630.597,1040.47 640,1034.29C654.337,1022.66 663.853,1022.37 670,1030C669.968,1054.12 636.674,1066.49 603.235,1078.81L600,1080ZM599.251,1034.96C583.542,1034.21 569.525,1032.18 555,1021.39C542.744,1012.28 531.952,1020.06 525.98,1024.82L517,998C521.29,996.121 529.769,997.183 535,991.027C539.121,986.177 546.289,986.502 549,987C552.904,987.717 569.952,999.641 600,1007C630.048,999.641 647.096,987.717 651,987C653.711,986.502 660.879,986.177 665,991.027C670.231,997.183 678.71,996.121 683,998L674.02,1024.82C668.048,1020.06 657.256,1012.28 645,1021.39C630.475,1032.18 616.458,1034.21 600.749,1034.96L600,1035L599.251,1034.96ZM600,820L600,792C500.832,749.934 403.633,686.928 310,586.001C323.739,650.143 340.207,714.22 366.541,784.755C373.053,802.197 369.7,821.816 373.32,840C379.917,873.138 384.838,895.934 376.671,912.632C371.32,923.572 362.132,931.475 350,936.585L359,953.958C371.76,943.686 385.257,942.956 400,947.269C414.06,951.382 430.674,961.823 445.607,980C457.379,994.33 471.843,1012.45 489,1033.02L489,946.746C482.006,941.345 474.696,936.526 469.9,930C437.889,886.443 425.18,853.163 440,843.604C413.095,810.369 398.574,788.302 401.323,770C403.112,758.084 410.994,745.348 430,738.821C454.277,730.485 514.301,764.556 600,820ZM600,820L600,792C699.168,749.934 796.367,686.928 890,586.001C876.261,650.143 859.793,714.22 833.459,784.755C826.947,802.197 830.3,821.816 826.68,840C820.083,873.138 815.162,895.934 823.329,912.632C828.68,923.572 837.868,931.475 850,936.585L841,953.958C828.24,943.686 814.743,942.956 800,947.269C785.94,951.382 769.326,961.823 754.393,980C742.621,994.33 728.157,1012.45 711,1033.02L711,946.746C717.994,941.345 725.304,936.526 730.1,930C762.111,886.443 774.82,853.163 760,843.604C786.905,810.369 801.426,788.302 798.677,770C796.888,758.084 789.006,745.348 770,738.821C745.723,730.485 685.699,764.556 600,820ZM600,999C587.601,993.95 573.179,994.006 564,986.666C552.586,977.537 540.811,976.175 534,984.642C527.783,992.37 520.63,991.071 516,993C508.706,964.997 501.804,942.659 496.401,942C474.851,922.53 440.95,869.461 442.216,861C443.026,855.589 443.55,850.6 448,849C455.219,846.404 438.121,827.316 429.588,820C425.864,816.807 424.651,811.378 422.01,807C418.654,801.436 416.223,795.491 413.499,790C409.878,782.702 410.488,774.661 410.718,768C410.96,761.019 416.624,755.523 423,751C437.67,773.454 447.676,796.639 457.519,819C472.832,853.79 482.193,888.724 486,923C492.453,925.484 495.641,933.899 499,935C503.176,936.369 507.088,932.252 505,925C504.822,861.692 486.456,802.78 451,748L470,755C498.867,795.777 527.458,872.182 532,945C540.399,957.14 549.962,959.806 553,950C558.267,894.787 549.014,839.457 524,784L557,803C571.487,833.488 580.42,865.613 581.68,900C582.357,912.409 584.614,924.336 583.058,934.808C580.563,951.605 584.083,956.567 585.447,964.33C586.49,970.263 593.538,972.052 600,972L600.303,972.001C606.68,971.995 613.526,970.171 614.553,964.33C615.917,956.567 619.437,951.605 616.942,934.808C615.386,924.336 617.643,912.409 618.32,900C619.58,865.613 628.513,833.488 643,803L676,784C650.986,839.457 641.733,894.787 647,950C650.038,959.806 659.601,957.14 668,945C672.542,872.182 701.133,795.777 730,755L749,748C713.544,802.78 695.178,861.692 695,925C692.912,932.252 696.824,936.369 701,935C704.359,933.899 707.547,925.484 714,923C717.807,888.724 727.168,853.79 742.481,819C752.324,796.639 762.33,773.454 777,751C783.376,755.523 789.04,761.019 789.282,768C789.512,774.661 790.122,782.702 786.501,790C783.777,795.491 781.346,801.436 777.99,807C775.349,811.378 774.136,816.807 770.412,820C761.879,827.316 744.781,846.404 752,849C756.45,850.6 756.974,855.589 757.784,861C759.05,869.461 725.149,922.53 703.599,942C698.196,942.659 691.294,964.997 684,993C679.37,991.071 672.217,992.37 666,984.642C659.189,976.175 647.414,977.537 636,986.666C626.821,994.006 612.399,993.95 600,999ZM836.969,840C840.006,785.877 855.175,730.384 875.349,674.326L903.86,693.36C905.258,737.935 896.193,783.439 875.223,830L836.969,840ZM363.031,840C359.994,785.877 344.825,730.384 324.651,674.326L296.14,693.36C294.742,737.935 303.807,783.439 324.777,830L363.031,840ZM597.74,778.909C502.151,732.659 415.476,677.862 345,607.545C350.689,600.363 352.512,593.182 354.074,586.001C384.448,598.662 400.557,602.265 400,595.285C441.582,644.795 485.276,686.607 530,724.659C486.917,679.323 445.997,633.368 410,586.001C420.572,573.327 429.242,559.95 436.297,545.975C491.944,578.374 546.113,599.633 600,614L601.263,613.662C654.732,599.3 708.49,578.122 763.703,545.975C770.758,559.95 779.428,573.327 790,586.001C754.003,633.368 713.083,679.323 670,724.659C714.724,686.607 758.418,644.795 800,595.285C799.443,602.265 815.552,598.662 845.926,586.001C847.488,593.182 849.311,600.363 855,607.545C783.97,678.415 696.485,733.52 600,780L597.74,778.909ZM600,604.116C537.655,581.58 481.451,558.46 434.498,534.464L400,574.988L362.554,520C375.098,492.466 386.586,464.041 395.38,433.342C420.561,437.245 452.537,438.512 483.942,440C508.145,488.919 550.617,524.991 600,556.202C649.383,524.991 691.855,488.919 716.058,440C747.463,438.512 779.439,437.245 804.62,433.342C813.414,464.041 824.902,492.466 837.446,520L800,574.988L765.502,534.464C719.281,558.086 664.096,580.858 602.918,603.059L600,604.116ZM894.287,563.161L865.817,596.181C860.559,585.417 859.503,572.549 852.895,568.741C848.017,565.931 830.097,574.577 810,583.984L847.131,530C861.672,542.554 876.951,554.167 894.287,563.161ZM305.713,563.161L334.183,596.181C339.441,585.417 340.497,572.549 347.105,568.741C351.983,565.931 369.903,574.577 390,583.984L352.869,530C338.328,542.554 323.049,554.167 305.713,563.161ZM604,545.975L604,343.683L704,436.377L604,545.975ZM596,545.975L596,343.683L496,436.377L596,545.975ZM600,300.421L600,290C673.856,337.163 696.964,379.367 704,420C673.166,385.9 638.458,355.944 600,330C561.542,355.944 526.834,385.9 496,420C503.036,379.367 526.144,337.163 600,290L600,300.421ZM687.905,340C661.432,316.545 633.072,295.394 600,280C555.123,297.55 522.027,318.615 490,340C472.393,298.696 462.625,256.278 480,210C479.922,231.36 482.328,250.279 500,260C509.974,203.412 528.115,140.757 630,121.825C658.505,116.528 694.251,115.067 740,120C719.401,120.919 699.391,124.214 680,130C733.074,139.912 779.212,158.315 824.622,190C844.518,203.883 872.479,204.372 900,210C892.083,210.662 888.015,213.566 890,220C994.797,282.839 1079.12,285.552 1130,190C1118.12,251.916 1109.42,314.83 980,340C985.383,347.41 996.082,353.964 1010,360C993.176,364.589 977.662,369.714 925.877,360C931.243,366.667 933.597,373.333 930,380C877.612,330.033 811.696,297.571 687.905,340Z" style="fill:white;"/>
    </g>
</svg>
