<?xml version="1.0" encoding="UTF-8" standalone="no"?>
<!DOCTYPE svg PUBLIC "-//W3C//DTD SVG 1.1//EN" "http://www.w3.org/Graphics/SVG/1.1/DTD/svg11.dtd">
<svg width="100%" height="100%" viewBox="0 0 1000 1000" version="1.1" xmlns="http://www.w3.org/2000/svg" xmlns:xlink="http://www.w3.org/1999/xlink" xml:space="preserve" xmlns:serif="http://www.serif.com/" style="fill-rule:evenodd;clip-rule:evenodd;stroke-linejoin:round;stroke-miterlimit:2;">
    <path d="M204.895,687.368L186.158,659.263L92.474,659.263C35.638,659.263 36.047,331.368 92.474,331.368L176.79,331.368C184.569,323.046 193.434,316.143 204.895,312.632L795.105,312.632C806.566,316.143 815.431,323.046 823.21,331.368L907.526,331.368C963.953,331.368 964.362,659.263 907.526,659.263L813.842,659.263L795.105,687.368L204.895,687.368ZM762.316,350.105L237.684,350.105L237.684,649.895L762.316,649.895L762.316,350.105ZM500.412,392.5C631.755,392.5 685.707,526.687 558.431,593.736C558.431,602.676 551.659,605.623 543.927,605.623C536.194,605.623 530.114,605.061 525.243,593.736C525.001,605.712 511.374,607.448 500.908,607.499L499.916,607.499C489.451,607.448 475.824,605.712 475.581,593.736C470.71,605.061 464.631,605.623 456.898,605.623C449.166,605.623 442.393,602.676 442.393,593.736C315.118,526.687 369.07,392.5 500.412,392.5ZM856.732,520.2C871.84,520.2 884.105,532.466 884.105,547.574C884.105,562.682 871.84,574.947 856.732,574.947C841.624,574.947 829.358,562.682 829.358,547.574C829.358,532.466 841.624,520.2 856.732,520.2ZM138.415,520.2C153.523,520.2 165.788,532.466 165.788,547.574C165.788,562.682 153.523,574.947 138.415,574.947C123.307,574.947 111.041,562.682 111.041,547.574C111.041,532.466 123.307,520.2 138.415,520.2ZM510.566,535.042C514.871,540.979 518.261,546.694 519.967,551.212C521.674,555.73 521.697,559.051 519.269,560.196C513.527,562.904 512.061,549.658 510.566,535.042ZM490.259,535.042C485.954,540.979 482.564,546.694 480.857,551.212C479.151,555.73 479.127,559.051 481.556,560.196C487.298,562.904 488.764,549.658 490.259,535.042ZM556.901,418.675C584.839,416.21 609.375,442.305 611.66,476.912C613.945,511.519 593.118,541.618 565.18,544.083C537.243,546.548 512.706,520.453 510.421,485.846C508.137,451.239 528.964,421.141 556.901,418.675ZM443.924,418.675C415.986,416.21 391.449,442.305 389.165,476.912C386.88,511.519 407.707,541.618 435.645,544.083C463.582,546.548 488.119,520.453 490.403,485.846C492.688,451.239 471.861,421.141 443.924,418.675ZM856.732,476.814C849.605,476.814 843.82,471.029 843.82,463.903C843.82,456.776 849.605,450.991 856.732,450.991C863.858,450.991 869.643,456.776 869.643,463.903C869.643,471.029 863.858,476.814 856.732,476.814ZM128.133,471.283L128.133,450.72L138.415,440.439L148.696,450.72L148.696,471.283L128.133,471.283ZM167.229,454.559C164.231,459.792 159.85,464.131 154.585,467.078L154.585,454.559L167.229,454.559ZM122.244,454.559L122.244,467.078C116.979,464.131 112.598,459.792 109.6,454.559L122.244,454.559ZM882.555,425.167C889.681,425.167 895.467,430.953 895.467,438.079C895.467,445.205 889.681,450.991 882.555,450.991C875.429,450.991 869.643,445.205 869.643,438.079C869.643,430.953 875.429,425.167 882.555,425.167ZM830.908,450.991C823.782,450.991 817.996,445.205 817.996,438.079C817.996,430.953 823.782,425.167 830.908,425.167C838.034,425.167 843.82,430.953 843.82,438.079C843.82,445.205 838.034,450.991 830.908,450.991ZM172.105,428.107L151.542,428.107L141.261,438.389L151.542,448.67L172.105,448.67L172.105,428.107ZM104.724,448.67L125.287,448.67L135.569,438.389L125.287,428.107L104.724,428.107L104.724,448.67ZM148.696,404.875L148.696,425.438L138.415,435.72L128.133,425.438L128.133,404.875L148.696,404.875ZM856.732,399.344C863.858,399.344 869.643,405.129 869.643,412.256C869.643,419.382 863.858,425.167 856.732,425.167C849.605,425.167 843.82,419.382 843.82,412.256C843.82,405.129 849.605,399.344 856.732,399.344ZM154.585,409.12C160.044,412.175 164.553,416.728 167.554,422.219L154.585,422.219L154.585,409.12ZM122.244,422.219L109.276,422.219C112.277,416.726 116.787,412.174 122.244,409.12L122.244,422.219ZM811.438,366.717C811.438,365.544 810.486,364.592 809.313,364.592L785.958,364.592C784.785,364.592 783.832,365.544 783.832,366.717L783.832,370.967C783.832,372.14 784.785,373.093 785.958,373.093L809.313,373.093C810.486,373.093 811.438,372.14 811.438,370.967L811.438,366.717ZM218.947,366.717C218.947,365.544 217.995,364.592 216.822,364.592L193.467,364.592C192.294,364.592 191.341,365.544 191.341,366.717L191.341,370.967C191.341,372.14 192.294,373.093 193.467,373.093L216.822,373.093C217.995,373.093 218.947,372.14 218.947,370.967L218.947,366.717ZM186.158,315.426C180.923,318.719 176.332,322.595 172.575,327.227L120.579,327.227C125.401,322.503 130.598,318.159 137.397,315.442L186.158,315.426ZM813.842,315.426C819.077,318.719 823.668,322.595 827.425,327.227L879.421,327.227C874.599,322.503 869.402,318.159 862.603,315.442L813.842,315.426Z" style="fill:white;"/>
</svg>
