<?xml version="1.0" encoding="UTF-8" standalone="no"?>
<!DOCTYPE svg PUBLIC "-//W3C//DTD SVG 1.1//EN" "http://www.w3.org/Graphics/SVG/1.1/DTD/svg11.dtd">
<svg width="100%" height="100%" viewBox="0 0 1000 1000" version="1.1" xmlns="http://www.w3.org/2000/svg" xmlns:xlink="http://www.w3.org/1999/xlink" xml:space="preserve" xmlns:serif="http://www.serif.com/" style="fill-rule:evenodd;clip-rule:evenodd;stroke-linejoin:round;stroke-miterlimit:2;">
    <g transform="matrix(3.76663,0,0,3.76663,-1916.4,-1269.33)">
        <path d="M641.53,467.945C642.685,465.617 644.285,462.992 646.414,460C653.219,450.735 662.925,457.137 666,472C660.64,476.593 656.019,479.368 653.5,478.888C651.164,478.442 647.754,468.645 653,468C646.217,465.283 649.019,479.015 653,480.134C655.038,480.707 658.432,479.844 666,473L666,476C679.444,477.605 688.143,472.954 679,462C706.495,467.727 744.424,469.365 757,463L761,468C749.382,471.737 734.556,478.039 722.5,479.5C713.012,480.65 701.139,483.473 683,492C677.938,485.628 673.45,478.169 660,487.687C654.165,491.816 650.011,491.44 644,486C643.088,485.175 642.249,484.33 641.53,483.426C640.811,484.33 639.971,485.175 639.06,486C633.049,491.44 628.895,491.816 623.06,487.687C609.61,478.169 605.121,485.628 600.06,492C581.921,483.473 570.048,480.65 560.56,479.5C548.503,478.039 533.678,471.737 522.06,468L526.06,463C538.635,469.365 576.565,467.727 604.06,462C594.916,472.954 603.615,477.605 617.06,476L617.06,473C624.627,479.844 628.022,480.707 630.06,480.134C634.041,479.015 636.843,465.283 630.06,468C635.306,468.645 631.896,478.442 629.56,478.888C627.04,479.368 622.42,476.593 617.06,472C620.134,457.137 629.841,450.735 636.645,460C638.775,462.992 640.375,465.617 641.53,467.945ZM643.06,448.502C680.817,448.557 721.06,449.76 755.5,462C752.718,463.207 749.585,464.036 746,464.379C711.281,455.071 679.422,454.513 641.53,454.5C603.638,454.513 571.778,455.071 537.06,464.379C533.475,464.036 530.341,463.207 527.56,462C561.999,449.76 602.242,448.557 640,448.502L640,448.5L641.53,448.501L643.06,448.5L643.06,448.502Z" style="fill:white;"/>
    </g>
</svg>
