<?xml version="1.0" encoding="UTF-8" standalone="no"?>
<!DOCTYPE svg PUBLIC "-//W3C//DTD SVG 1.1//EN" "http://www.w3.org/Graphics/SVG/1.1/DTD/svg11.dtd">
<svg width="100%" height="100%" viewBox="0 0 1000 1000" version="1.1" xmlns="http://www.w3.org/2000/svg" xmlns:xlink="http://www.w3.org/1999/xlink" xml:space="preserve" xmlns:serif="http://www.serif.com/" style="fill-rule:evenodd;clip-rule:evenodd;stroke-linejoin:round;stroke-miterlimit:2;">
    <g transform="matrix(1.68533,0,0,1.68533,-499.383,-336.906)">
        <path d="M552.928,428.067L699.065,410.861L728.5,362C719.389,360.394 710.217,359.82 701,360L706,347.125L781,347.125C781.317,352.492 784.477,356.808 790,362C790.711,362.669 790.162,364.335 791,365C789.982,364.679 788.483,365.772 787.5,365.5C769.759,360.592 758.075,362.026 746,365L720,408.396L720.585,416.348L721,416L729.983,443.58C738.585,441.246 747.638,440 756.979,440C813.838,440 860,486.162 860,543.021C860,599.879 813.838,646.041 756.979,646.041C700.121,646.041 653.959,599.879 653.959,543.021C653.959,500.337 679.974,463.681 717,448.057L713.223,436.409L591.591,541.489C591.977,542.627 592.288,543.799 592.518,545L606,545L612,533L650,543.116L642,560L607,552L592.915,552C591.892,565.69 580.445,576.495 566.495,576.495C552.153,576.495 540.457,565.074 540.013,550.838L531.737,550.703C527.807,603.975 483.277,646.041 429,646.041C372.141,646.041 325.979,599.879 325.979,543.021C325.979,486.162 372.141,440 429,440C458.97,440 485.968,452.825 504.802,473.284L545.591,433.59L545,429L546.595,428.812L542,404C533.358,405.49 525.473,412.244 517,414C509.999,410.93 505.482,407.443 506.656,403C507.418,400.118 505.21,394.523 517,393C535.676,391.403 555.064,391.534 575,393C578.017,395.79 578.366,398.766 575,402C565.054,400.981 557.079,401.208 550,402L552.928,428.067ZM445.287,531.204C441.617,526.857 436.128,524.094 430,524.094C418.962,524.094 410,533.056 410,544.094C410,555.133 418.962,564.094 430,564.094C439.215,564.094 446.982,557.849 449.298,549.363L518.545,550.489C514.745,596.59 476.076,632.872 429,632.872C379.409,632.872 339.148,592.611 339.148,543.021C339.148,493.43 379.409,453.169 429,453.169C455.273,453.169 478.928,464.47 495.363,482.471L445.287,531.204ZM733.759,499.744L717,502L720,510L736.432,507.988L742.945,528.075C738.072,531.723 734.915,537.543 734.915,544.094C734.915,555.133 743.877,564.094 754.915,564.094C765.954,564.094 774.915,555.133 774.915,544.094C774.915,533.494 766.651,524.809 756.22,524.136L750.403,506.277L769,504L769,495L747.666,497.872L734.068,456.121C741.388,454.194 749.065,453.169 756.979,453.169C806.57,453.169 846.831,493.43 846.831,543.021C846.831,592.611 806.57,632.872 756.979,632.872C707.389,632.872 667.128,592.611 667.128,543.021C667.128,506.19 689.336,474.505 721.079,460.639L733.759,499.744ZM557.372,525.12C549.733,527.926 543.741,534.15 541.252,541.936L532.014,541.848C531.748,518.042 523.389,496.161 509.561,478.834L546.923,443.94L557.372,525.12ZM448.31,536.041L499.905,487.853C511.53,502.765 518.556,521.436 518.842,541.722L449.772,541.064C449.503,539.304 449.006,537.619 448.31,536.041ZM584.176,530.275C580.196,526.704 575.13,524.318 569.536,523.678L558,441L712.686,422.969L585,530L584.176,530.275Z" style="fill:white;"/>
    </g>
</svg>
