<?xml version="1.0" encoding="UTF-8" standalone="no"?>
<!DOCTYPE svg PUBLIC "-//W3C//DTD SVG 1.1//EN" "http://www.w3.org/Graphics/SVG/1.1/DTD/svg11.dtd">
<svg width="100%" height="100%" viewBox="0 0 1000 1000" version="1.1" xmlns="http://www.w3.org/2000/svg" xmlns:xlink="http://www.w3.org/1999/xlink" xml:space="preserve" xmlns:serif="http://www.serif.com/" style="fill-rule:evenodd;clip-rule:evenodd;stroke-linejoin:round;stroke-miterlimit:2;">
    <g transform="matrix(1.28802,0,0,1.2967,-108.373,-135.477)">
        <path d="M363.219,707.647C359.865,714.547 354.081,720.855 344.874,726.332C311.772,765.582 399.209,806.049 415.938,814.362C461.364,836.934 500.182,860.689 436.676,772.663C430.117,761.665 423.798,751.59 417.73,742.413C410.685,741.079 403.229,739.317 395.232,736.988C383.463,727.186 372.991,717.411 363.219,707.647ZM768.416,654.734C751.157,650.461 730.703,642.939 705.747,630.845C583.445,587.887 666.423,705.22 681.35,727.685C721.881,788.685 749.078,840.931 786.465,754.14C793.503,745.125 799.416,736.454 804.264,728.141C794.368,718.738 784.481,708.778 774.606,698.082C770.691,682.174 768.962,667.989 768.416,654.734ZM416.085,739.938C396.906,711.23 380.253,691.56 366.408,680C367.715,689.295 367.379,698.191 363.837,706.306C373.124,715.513 383.283,724.918 394.951,734.671C402.564,736.914 409.56,738.627 416.085,739.938ZM805.557,725.887C820.385,699.619 824.506,676.951 819.947,658.233C806.714,660.22 791.32,660.011 771.712,655.52C772.351,668.114 774.158,681.873 777.981,697.647C787.34,707.829 796.518,717.177 805.557,725.887ZM562.497,588.019C564.201,592.273 565.892,597.272 567.565,603.321C577.943,633.245 582.68,614.451 583.713,611.093C586.52,601.976 589.914,596.052 573.396,585.195C571.265,583.277 569.327,581.646 567.578,580.289C567.626,582.609 567.599,584.917 567.472,587.209C565.863,587.919 564.196,588.109 562.497,588.019ZM308.687,544.559C304.325,552.531 300.234,561.822 296.523,572.971C271.178,628.653 249.67,596.525 245.205,590.833C233.08,575.376 219.979,565.73 271.582,542.305C278.082,538.365 284.024,534.984 289.425,532.135C289.975,536.26 290.773,540.346 291.899,544.379C297.466,545.23 303.066,545.148 308.687,544.559ZM567.107,579.926C561.644,575.759 558.074,574.339 556.175,575.161C558.184,578.513 560.184,582.368 562.168,587.207C563.766,587.262 565.366,587.044 566.969,586.356C567.095,584.184 567.134,582.043 567.107,579.926ZM290.881,531.372C307.769,522.605 319.206,519.183 325.774,520.162C320.119,526.612 314.648,533.954 309.533,543.034C304.236,543.536 298.851,543.555 293.309,542.739C292.223,538.92 291.437,535.133 290.881,531.372ZM409.762,350.633C437.843,412.594 446.735,455.05 440,480C416.459,459.938 389.252,440.738 354.899,423.223C355.136,403.351 357.356,383.05 363,362C378.827,357.16 394.395,353.461 409.762,350.633ZM349.126,420.328C318.91,405.436 283.273,391.82 240,380C26.779,295.284 165.196,207.942 190,190C257.35,141.282 301.741,90.011 374,280C387.084,303.738 398.154,325.483 407.316,345.291C390.483,348.169 373.705,351.972 357,357C351.204,378.155 349.151,399.254 349.126,420.328ZM628.848,336.715C594.132,359.8 575.72,378.033 571.113,391.538C589.859,387.434 610.229,384.597 633.764,384.234C640.096,374.674 645.538,364.446 649.446,353.061C642.797,347.053 635.912,341.653 628.848,336.715ZM637.703,384.196C658.237,384.122 681.171,385.923 707.489,390.365C845.768,399.587 802.243,325.519 795.188,311.151C776.031,272.137 769.63,237.258 670.372,311.274C655.864,319.575 643.049,327.394 631.855,334.73C639.663,340.034 647.143,345.767 654.187,352.069C650.324,363.54 644.536,374.11 637.703,384.196Z" style="fill:white;"/>
    </g>
</svg>
