<?xml version="1.0" encoding="UTF-8" standalone="no"?>
<!DOCTYPE svg PUBLIC "-//W3C//DTD SVG 1.1//EN" "http://www.w3.org/Graphics/SVG/1.1/DTD/svg11.dtd">
<svg width="100%" height="100%" viewBox="0 0 1000 1000" version="1.1" xmlns="http://www.w3.org/2000/svg" xmlns:xlink="http://www.w3.org/1999/xlink" xml:space="preserve" xmlns:serif="http://www.serif.com/" style="fill-rule:evenodd;clip-rule:evenodd;stroke-linejoin:round;stroke-miterlimit:2;">
    <g transform="matrix(2.43145,0,0,2.43145,-715.725,-569.608)">
        <path d="M456.604,583.632C422.555,581.259 398.431,575.846 381.989,567.786C380.146,569.319 378.788,571.046 378,573C376.903,570.105 376.641,567.504 376.983,565.115L376.845,565.035C375.094,565.433 373.388,565.919 372,567C371.948,565.856 372.357,564.885 373,564C371.5,563.235 370.629,563.433 370,564C369.605,562.606 369.489,561.316 369.52,560.08C368.391,559.193 367.324,558.283 366.313,557.352C364.775,558.055 363.329,558.922 362,560C362.508,558.264 363.181,556.621 363.973,555.045C359.459,550.285 356.334,545.007 354.387,539.252C353.563,540.085 352.774,541.022 352,542C351.97,538.794 352.2,535.636 352.668,532.52C352.337,530.672 352.107,528.781 351.971,526.85C348.515,528.456 345.646,530.622 343,533C345.446,527.91 348.428,523.798 351.849,520.486C352.127,510.87 354.392,500.337 358,489C352.338,494 345.395,495.662 337.285,494.286C351.687,483.669 356.968,472.064 358,460C324.487,427.249 308.991,389.733 317,346C345.643,333.176 377.601,335.321 412.333,350C424.397,345.239 434.112,339.954 446.965,336.003C445.745,333.698 445.016,331.367 445,329C448.797,330.836 452.927,332.232 457.293,333.316C464.204,331.833 472.106,330.745 481.561,330.241C477.853,318.334 478.302,309.061 482.199,302C487.727,291.984 512.352,277.362 530,292C505.747,285.466 501.984,302.343 499.908,308C497.661,314.12 501.035,325.568 515.676,330.113C519.791,330.277 523.621,330.548 527.212,330.914C526.921,329.589 526.86,328.285 527,327C528.332,328.587 529.759,330.149 532.036,331.478L532.905,331.596C532.726,330.707 532.758,329.842 533,329C533.967,329.743 535.824,330.928 538.389,332.466C559.463,336.245 571.44,343.597 587.667,350C622.399,335.321 654.357,333.176 683,346C691.009,389.733 675.513,427.249 642,460C643.032,472.064 648.313,483.669 662.715,494.286C654.605,495.662 647.662,494 642,489C647.566,506.487 649.934,522.061 646.747,535.321C647.878,535.697 648.957,536.279 650,537C648.624,536.919 647.334,537.032 646.18,537.453C645.677,539.176 645.075,540.858 644.366,542.497C646.115,546.495 646.598,551.721 646,558C645.175,553.909 643.934,550.296 641.333,548.248L641.141,548.549C642.043,552.217 642.147,556.01 641,560C640.029,557.525 638.605,555.609 636.482,554.558C633.417,557.885 629.687,560.963 625.218,563.782C625.759,567.701 624.043,571.607 620,575.5C620.357,572.388 620.508,569.392 619.887,566.838C604.335,574.943 581.489,580.516 549.221,583.188C545.198,586.97 540.637,590.618 535,594C536.802,590.667 537.97,587.333 538,584C533.49,588.566 526.925,591.432 520,594C522.479,590.923 524.716,587.785 526.497,584.528C518.186,584.841 509.362,585 500,585L498.327,584.998C492.936,584.987 487.725,584.923 482.688,584.806C482.717,585.871 482.831,586.935 483,588C480.59,587.373 478.437,586.512 477,585C476.803,585.624 476.827,586.296 477,587C474.136,586.778 471.583,585.97 469.455,584.362L468.939,584.338L468.933,584.338C468.621,586.559 470.779,588.779 474,591C466.492,589.527 460.889,586.958 456.604,583.632ZM619.171,548.635C616.578,547.354 613.985,546.315 611.378,545.522C609.565,544.97 607.748,544.527 605.927,544.202C604.074,543.872 602.216,543.664 600.361,543.545C597.564,543.366 594.772,543.411 591.981,543.597C591.759,543.607 591.587,543.796 591.597,544.019C591.607,544.241 591.796,544.413 592.019,544.403C594.773,544.331 597.522,544.427 600.271,544.685C602.083,544.855 603.893,545.107 605.708,545.431C607.489,545.748 609.273,546.133 611.061,546.62C613.642,547.323 616.234,548.212 618.829,549.365C619.03,549.46 619.271,549.373 619.365,549.171C619.46,548.97 619.373,548.729 619.171,548.635ZM380.829,548.635C383.422,547.354 386.015,546.315 388.622,545.522C390.435,544.97 392.252,544.527 394.073,544.202C395.926,543.872 397.784,543.664 399.639,543.545C402.436,543.366 405.228,543.411 408.019,543.597C408.241,543.607 408.413,543.796 408.403,544.019C408.393,544.241 408.204,544.413 407.981,544.403C405.227,544.331 402.478,544.427 399.729,544.685C397.917,544.855 396.107,545.107 394.292,545.431C392.511,545.748 390.727,546.133 388.939,546.62C386.358,547.323 383.766,548.212 381.171,549.365C380.97,549.46 380.729,549.373 380.635,549.171C380.54,548.97 380.627,548.729 380.829,548.635ZM375.288,519.602C378.452,520.078 381.609,520.665 384.746,521.466C386.811,521.993 388.87,522.604 390.912,523.336C392.91,524.052 394.891,524.885 396.859,525.83C399.679,527.186 402.462,528.792 405.22,530.662C405.407,530.784 405.46,531.034 405.338,531.22C405.216,531.407 404.966,531.46 404.78,531.338C401.998,529.592 399.19,528.132 396.376,526.868C394.419,525.988 392.455,525.215 390.491,524.511C388.48,523.79 386.469,523.141 384.449,522.57C381.364,521.697 378.269,520.979 375.154,520.398C374.934,520.361 374.786,520.153 374.823,519.933C374.86,519.713 375.068,519.565 375.288,519.602ZM624.712,519.602C621.548,520.078 618.391,520.665 615.254,521.466C613.189,521.993 611.13,522.604 609.088,523.336C607.09,524.052 605.109,524.885 603.141,525.83C600.321,527.186 597.538,528.792 594.78,530.662C594.593,530.784 594.54,531.034 594.662,531.22C594.784,531.407 595.034,531.46 595.22,531.338C598.002,529.592 600.81,528.132 603.624,526.868C605.581,525.988 607.545,525.215 609.509,524.511C611.52,523.79 613.531,523.141 615.551,522.57C618.636,521.697 621.731,520.979 624.846,520.398C625.066,520.361 625.214,520.153 625.177,519.933C625.14,519.713 624.932,519.565 624.712,519.602ZM609.517,481.078C611.295,481.253 613.063,481.435 614.824,481.621C591.778,469.817 564.945,466.8 535,471C537.357,471.43 539.717,471.828 542,473C538.717,474.773 536.252,477.29 534,480C536.714,479.775 539.583,479.591 542.45,479.44C541.879,491.737 543.99,500.293 547.45,506.259C554.047,517.633 565.526,519.685 572.952,520.271C576.682,520.551 582.449,519.929 588.319,517.675C592.893,515.919 597.529,513.177 601.313,509.124C606.965,503.072 610.734,494.092 609.517,481.078ZM390.483,481.078C388.705,481.253 386.937,481.435 385.176,481.621C408.222,469.817 435.055,466.8 465,471C462.643,471.43 460.283,471.828 458,473C461.283,474.773 463.748,477.29 466,480C463.286,479.775 460.417,479.591 457.55,479.44C458.121,491.737 456.01,500.293 452.55,506.259C445.953,517.633 434.474,519.685 427.048,520.271C423.318,520.551 417.551,519.929 411.681,517.675C407.107,515.919 402.471,513.177 398.687,509.124C393.035,503.072 389.266,494.092 390.483,481.078ZM543.283,479.397C548.898,479.113 554.444,478.955 558.729,478.868L558.727,478.873C558.578,480.459 558.5,482.088 558.5,483.75C558.5,499.342 565.333,512 573.75,512C582.167,512 589,499.342 589,483.75C589,482.316 588.942,480.906 588.83,479.529L588.788,479.418C595.585,479.819 602.193,480.365 608.69,480.997C609.795,493.748 606.08,502.503 600.512,508.37C596.821,512.258 592.321,514.874 587.891,516.55C582.212,518.699 576.648,519.306 573.048,519.026C565.893,518.498 554.828,516.612 548.394,505.707C544.953,499.874 542.828,491.489 543.283,479.397ZM456.717,479.397C451.102,479.113 445.556,478.955 441.271,478.868L441.273,478.873C441.422,480.459 441.5,482.088 441.5,483.75C441.5,499.342 434.667,512 426.25,512C417.833,512 411,499.342 411,483.75C411,482.316 411.058,480.906 411.17,479.529L411.212,479.418C404.415,479.819 397.807,480.365 391.31,480.997C390.205,493.748 393.92,502.503 399.488,508.37C403.179,512.258 407.679,514.874 412.109,516.55C417.788,518.699 423.352,519.306 426.952,519.026C434.107,518.498 445.172,516.612 451.606,505.707C455.047,499.874 457.172,491.489 456.717,479.397ZM500,509.57C499.918,509.625 499.836,509.68 499.754,509.736C498.779,509.108 497.766,508.526 496.727,507.975C495.055,507.087 493.308,506.298 491.514,505.554C491.311,505.463 491.072,505.554 490.98,505.757C490.889,505.96 490.98,506.199 491.183,506.291C492.904,507.126 494.561,508.028 496.169,508.973C497.016,509.47 497.845,509.985 498.66,510.512C498.632,510.532 498.604,510.553 498.576,510.574C497.757,511.185 496.953,511.846 496.154,512.536C494.999,513.532 493.869,514.602 492.731,515.7C492.565,515.848 492.551,516.104 492.7,516.269C492.848,516.435 493.104,516.449 493.269,516.3C494.716,515.09 496.172,513.95 497.607,512.861C498.2,512.411 498.788,511.971 499.371,511.539C499.505,511.439 499.639,511.34 499.772,511.241L500,511.393L500.228,511.241C500.361,511.34 500.495,511.439 500.629,511.539C501.212,511.971 501.8,512.411 502.393,512.861C503.828,513.95 505.284,515.09 506.731,516.3C506.896,516.449 507.152,516.435 507.3,516.269C507.449,516.104 507.435,515.848 507.269,515.7C506.131,514.602 505.001,513.532 503.846,512.536C503.047,511.846 502.243,511.185 501.424,510.574C501.396,510.553 501.368,510.532 501.34,510.512C502.155,509.985 502.984,509.47 503.831,508.973C505.439,508.028 507.096,507.126 508.817,506.291C509.02,506.199 509.111,505.96 509.02,505.757C508.928,505.554 508.689,505.463 508.486,505.554C506.692,506.298 504.945,507.087 503.273,507.975C502.234,508.526 501.221,509.108 500.246,509.736L500,509.57ZM438.773,478.822C435.403,478.768 433.435,478.768 433.713,478.769C433.737,479.421 433.75,480.082 433.75,480.75C433.75,491.65 430.389,500.5 426.25,500.5C422.111,500.5 418.75,491.65 418.75,480.75C418.75,480.176 418.759,479.607 418.778,479.043C419.166,479.025 415.723,479.171 413.637,479.282L413.658,479.337C413.42,481.154 413.294,483.05 413.294,485C413.294,498.246 419.1,509 426.25,509C433.4,509 439.206,498.246 439.206,485C439.206,482.881 439.057,480.827 438.779,478.871L438.772,478.825L438.773,478.822ZM561.227,478.822C564.597,478.768 566.565,478.768 566.287,478.769C566.263,479.421 566.25,480.082 566.25,480.75C566.25,491.65 569.611,500.5 573.75,500.5C577.889,500.5 581.25,491.65 581.25,480.75C581.25,480.176 581.241,479.607 581.222,479.043C580.834,479.025 584.277,479.171 586.363,479.282L586.342,479.337C586.58,481.154 586.706,483.05 586.706,485C586.706,498.246 580.9,509 573.75,509C566.6,509 560.794,498.246 560.794,485C560.794,482.881 560.943,480.827 561.221,478.871L561.228,478.825L561.227,478.822ZM361.475,442.301C367.859,418.578 376.558,395.643 392,375C373.353,364.227 353.307,356.762 330,357C323.15,397.682 336.038,424.423 361.475,442.301ZM638.525,442.301C632.141,418.578 623.442,395.643 608,375C626.647,364.227 646.693,356.762 670,357C676.85,397.682 663.962,424.423 638.525,442.301Z" style="fill:white;"/>
    </g>
</svg>
