<?xml version="1.0" encoding="UTF-8" standalone="no"?>
<!DOCTYPE svg PUBLIC "-//W3C//DTD SVG 1.1//EN" "http://www.w3.org/Graphics/SVG/1.1/DTD/svg11.dtd">
<svg width="100%" height="100%" viewBox="0 0 1000 1000" version="1.1" xmlns="http://www.w3.org/2000/svg" xmlns:xlink="http://www.w3.org/1999/xlink" xml:space="preserve" xmlns:serif="http://www.serif.com/" style="fill-rule:evenodd;clip-rule:evenodd;stroke-linejoin:round;stroke-miterlimit:2;">
    <g transform="matrix(3.69774,0,0,3.69774,-1214.87,-285.045)">
        <path d="M447.453,320.427C453.764,323.697 459.76,319.992 465.473,310C459.97,323.047 453.44,325.286 446.332,321.431C445.495,322.244 444.741,323.117 444,324C447.892,326.478 451.273,329.832 454,334C458.848,327.068 462.844,320.068 466,313C466.033,318.572 465.377,324.893 464,332C466.566,330.137 466.391,328.558 470.862,326.5C473.127,325.458 474.549,323.621 475.586,321.802C472.137,316.278 469.401,310.661 467,305C469.639,309.629 472.379,314.264 477,319L481,321C483.457,317.571 485.858,312.968 488,303C490.411,300.707 492.001,298.37 493,296C489.896,291.753 484.882,288.427 478,286C516.791,250.247 531.374,209.164 508,160C507.454,160.141 506.791,160.307 506,160.5C501.949,165.209 496.818,169.87 491,174.5C507.213,233.699 489.92,280.107 461.5,289.5C455.569,290.69 450.425,295.636 446,304C448.892,309.222 449.541,314.556 448,320C447.813,320.139 447.631,320.282 447.453,320.427ZM522,210C522.317,195.699 521.002,181.382 513,167C518.47,170.467 524.111,172.662 530,173C535.262,164.67 537.018,156.336 537,148C540.975,148.215 544.977,148.841 549,149.789C554.301,151.037 558.739,155.06 565,155C562.492,181.813 547.761,199.862 522,210ZM410,191.985C355.584,127.51 363.94,95.734 371,93.025C377.842,90.4 401.298,109.174 426,137.184C442.617,156.026 458.342,176.135 471,190.824C478.973,200.076 487.732,205.629 494.5,208C493.567,197.402 491.64,186.729 489,176C487.754,177.24 486.114,178.425 484,179.544C471.76,165.833 467.271,150.319 470.535,133C443.975,108.538 387.616,87.986 369,90.881C350.951,93.689 372.532,158.179 410,191.985ZM505.349,144.058L501,145C494.434,133.626 485.059,128.546 475,125C468.339,142.901 471.827,160.205 484,177C493.091,170.286 500.628,163.854 505,158L508,157C512.307,164.631 519.47,169.118 529,171C537.529,154.253 537.096,138.055 518,123C512.03,128.077 506.897,134.081 505.349,144.058Z" style="fill:white;"/>
    </g>
    <path d="M301.208,424.866C283.004,337.232 318.495,285.542 393.048,260" style="fill:none;"/>
</svg>
