<?xml version="1.0" encoding="UTF-8" standalone="no"?>
<!DOCTYPE svg PUBLIC "-//W3C//DTD SVG 1.1//EN" "http://www.w3.org/Graphics/SVG/1.1/DTD/svg11.dtd">
<svg width="100%" height="100%" viewBox="0 0 1000 1000" version="1.1" xmlns="http://www.w3.org/2000/svg" xmlns:xlink="http://www.w3.org/1999/xlink" xml:space="preserve" xmlns:serif="http://www.serif.com/" style="fill-rule:evenodd;clip-rule:evenodd;stroke-linejoin:round;stroke-miterlimit:2;">
    <g transform="matrix(1.81576,0,0,1.81576,-343.971,-403.438)">
        <path d="M535,575C521.857,582.4 507.219,589.799 488,597.199C497.647,603.757 510.34,609.375 522.84,628.644C530.582,640.58 544.909,653.565 560,652.363C622.823,647.359 658.436,628.792 697,614C708.804,606.467 714.49,600.303 694,600C672.872,584.255 648.385,586.257 623,593C586.119,599.575 559.938,588.323 535,575ZM360,593C353.23,598.275 347.871,604.378 344.731,612C341.608,619.58 332.398,623.642 324,629C310.374,636.984 294.502,642.493 275,644C248.732,612.985 256.609,582.224 309,560C311.365,557.264 313.663,556.693 316,556C343.069,553.047 352.472,571.869 360,593ZM302.287,600.556C309.47,597.708 316.965,599.594 319.015,604.764C321.064,609.935 316.896,616.444 309.713,619.291C302.53,622.138 295.035,620.252 292.985,615.082C290.936,609.912 295.104,603.403 302.287,600.556ZM625,381C622.097,379.318 614.288,378.087 612,374C605.011,361.516 540,369 540,369C506.525,358.675 467.746,363.131 422,387C406.591,391.883 391.594,399.571 377,410L348,435C317.629,462.368 296.443,495.68 300,545C329.069,548.514 356.373,560.468 380,590C398.927,597.707 418.998,598.974 440,595C505.438,588.546 561.286,560.458 605,505C617.663,490.672 626.322,475.993 620,460C624.709,465.923 637.455,388.217 625,381ZM306,478C298.992,494.744 293.356,511.698 290,529C262.187,523.208 232.036,520.101 228,487L217,432C216.585,422.176 221.017,422.831 228,429C251.907,450.45 275.289,473.181 306,478ZM634,417C634.692,429.867 632.991,442.521 629.308,455C646.792,455.421 664.464,456.269 675,441C686.496,430.286 698.16,417.978 710,404C715.549,396.482 711.584,394.921 705,395C686.561,398.984 666.36,405.616 643,417L634,417ZM563,362L540,364L528,360C537.79,353.336 547.782,347.632 558,343C568.47,341.62 570.935,344.576 567,351C564.602,354.287 562.672,357.74 563,362Z" style="fill:white;"/>
    </g>
</svg>
