<?xml version="1.0" encoding="UTF-8" standalone="no"?>
<!DOCTYPE svg PUBLIC "-//W3C//DTD SVG 1.1//EN" "http://www.w3.org/Graphics/SVG/1.1/DTD/svg11.dtd">
<svg width="100%" height="100%" viewBox="0 0 1000 1000" version="1.1" xmlns="http://www.w3.org/2000/svg" xmlns:xlink="http://www.w3.org/1999/xlink" xml:space="preserve" xmlns:serif="http://www.serif.com/" style="fill-rule:evenodd;clip-rule:evenodd;stroke-linejoin:round;stroke-miterlimit:2;">
    <g transform="matrix(1.21308,0,0,1.21308,-103.928,-31.7161)">
        <path d="M497.641,748.619C495.532,735.828 493.613,726.967 490.297,689.258C484.478,669.835 478.009,650.764 470.371,632.323C477.17,636.867 483.69,643.022 489.66,652.359C492.047,666.226 494.814,680.094 497.846,693.962L498.129,692.662C501.05,679.226 503.72,665.792 506.031,652.359C512.002,643.022 518.522,636.867 525.321,632.323C517.683,650.764 511.214,669.835 505.395,689.258C501.972,728.185 500.038,736.37 497.846,749.87L497.641,748.619ZM497.061,670.042C489.006,628.067 482.742,592.463 489.278,602.342C476.44,551.918 470.877,501.495 470.371,451.072L484.127,456.234C486.257,461.746 489.047,467.573 492.17,473.558C491.96,523.565 494.743,579.707 497.846,636.506L498.136,631.183C501.12,576.199 503.725,521.999 503.522,473.558C506.645,467.573 509.435,461.746 511.565,456.234L525.321,451.072C524.815,501.495 519.252,551.918 506.414,602.342C513.161,592.144 506.268,630.416 497.846,674.123L497.061,670.042ZM567.542,425.879C559.307,431.531 550.559,436.854 541.578,442.027C539.573,452.164 536.85,462.155 533.309,471.98C537.142,486.696 539.146,501.412 541.557,516.128C556.726,486.297 566.23,456.247 567.542,425.879ZM428.15,425.879C436.385,431.531 445.133,436.854 454.114,442.027C456.119,452.164 458.842,462.155 462.383,471.98C458.55,486.696 456.546,501.412 454.135,516.128C438.966,486.297 429.462,456.247 428.15,425.879ZM698.334,473.994L698.375,474.202C698.446,474.174 698.431,474.103 698.334,473.994C691.798,440.357 678.756,406.724 656.039,373.092C642.365,366.892 628.786,362.845 615.328,361.59C612.411,375.259 605.123,388.462 598.265,402.319C603.721,402.506 610.468,419.868 614.598,423.459C630.986,437.707 695.664,470.962 698.334,473.994ZM297.358,473.994L297.317,474.202C297.246,474.174 297.261,474.103 297.358,473.994C303.894,440.357 316.936,406.724 339.653,373.092C353.327,366.892 366.906,362.845 380.364,361.59C383.281,375.259 390.569,388.462 397.427,402.319C391.971,402.506 385.224,419.868 381.094,423.459C364.706,437.707 300.028,470.962 297.358,473.994ZM498.178,359.57C505.393,359.446 528.319,355.4 525.321,349.4C521.086,340.925 514.823,349.403 498.24,349.535L497.846,349.537C480.967,349.537 474.639,340.859 470.371,349.4C467.326,355.495 491.032,359.573 497.846,359.573L498.178,359.57ZM431.616,311.568C424.144,306.038 416.471,301.514 408.623,297.854C396.697,308.564 387.031,322.905 380.669,342.553C388.901,384.18 407.471,415.546 468.737,445.288C436.552,414.254 415.472,372.338 403.37,321.623L409.581,312.223L417.911,318.467C426.164,361.667 446.167,402.892 480.114,441.773C474.689,409.467 459.635,366.694 437.665,316.404C446.167,314.807 454.669,313.319 463.171,311.978C452.707,311.654 442.264,311.257 431.616,311.568ZM564.076,311.568C571.548,306.038 579.221,301.514 587.069,297.854C598.995,308.564 608.661,322.905 615.023,342.553C606.791,384.18 588.22,415.546 526.955,445.288C559.14,414.254 580.22,372.338 592.322,321.623L586.111,312.223L577.781,318.467C569.528,361.667 549.525,402.892 515.577,441.773C521.003,409.467 536.057,366.694 558.027,316.404C549.525,314.807 541.023,313.319 532.521,311.978C542.985,311.654 553.428,311.257 564.076,311.568ZM319.266,440.596C332.907,431.727 344.677,421.983 353.833,411.016C362.988,400.05 369.529,387.861 372.713,374.102C347.84,387.008 331.106,410.592 319.266,440.596ZM676.426,440.596C662.785,431.727 651.015,421.983 641.859,411.016C632.704,400.05 626.163,387.861 622.979,374.102C647.852,387.008 664.586,410.592 676.426,440.596ZM387.946,317.834C382.922,326.639 378.72,335.584 375.809,344.749C375.809,344.749 357.04,350.034 349.424,355.764C334.02,367.354 279.071,389.399 278.381,385.42C278.381,385.42 328.691,329.898 361.051,318.69C369.526,315.754 387.946,317.834 387.946,317.834ZM607.746,317.834C612.77,326.639 616.972,335.584 619.882,344.749C619.882,344.749 638.652,350.034 646.268,355.764C661.672,367.354 716.621,389.399 717.311,385.42C717.311,385.42 667.001,329.898 634.641,318.69C626.165,315.754 607.746,317.834 607.746,317.834ZM462.383,352.268C464.177,352.847 465.791,354.118 467.42,355.793C469.462,357.894 471.978,360.334 475.369,361.942C482.057,365.114 490.366,369.404 497.846,374.991C491.346,378.384 479.006,377.161 472.243,365.25C471.223,363.454 469.328,362.414 467.207,361.708C463.488,360.47 462.497,356.019 462.383,352.268ZM533.309,352.268C531.515,352.847 529.901,354.118 528.272,355.793C526.23,357.894 523.714,360.334 520.323,361.942C513.635,365.114 505.326,369.404 497.846,374.991C504.346,378.384 516.686,377.161 523.449,365.25C524.469,363.454 526.364,362.414 528.485,361.708C532.204,360.47 533.195,356.019 533.309,352.268ZM653.356,363.807C643.465,357.385 631.615,352.527 618.756,348.475C621.525,351.816 623.931,355.276 625.654,358.96C634.892,359.846 644.125,361.74 653.356,363.807ZM342.336,363.807C352.227,357.385 364.077,352.527 376.936,348.475C374.167,351.816 371.761,355.276 370.038,358.96C360.8,359.846 351.567,361.74 342.336,363.807ZM344.786,322.235C332.308,329.941 325.115,336.2 317.301,342.63C305.858,341.013 292.058,340.556 278.381,340.037C297.639,334.165 318.199,328.264 344.786,322.235ZM650.906,322.235C663.384,329.941 670.577,336.2 678.391,342.63C689.834,341.013 703.634,340.556 717.311,340.037C698.053,334.165 677.493,328.264 650.906,322.235ZM497.989,332.579C500.985,331.335 503.224,329.279 505.228,326.969L505.228,323.483L506.286,318.467C504.155,321.139 501.642,323.604 498.019,325.465L497.846,325.554C494.13,323.682 491.57,321.181 489.406,318.467L490.464,323.483L490.464,326.969C492.499,329.315 494.778,331.4 497.846,332.638L497.989,332.579ZM126.89,267.198C174.521,290.938 232.408,307.854 273.336,298.049C321.266,286.567 373.233,314.142 360.793,315.73C333.599,316.638 306.44,322.511 267.965,336.75C241.243,325.526 214.883,317.122 188.747,310.462C167.302,296.592 146.52,282.279 126.89,267.198ZM868.802,267.198C821.171,290.938 763.284,307.854 722.356,298.049C674.426,286.567 622.459,314.142 634.899,315.73C662.093,316.638 689.252,322.511 727.727,336.75C754.449,325.526 780.809,317.122 806.945,310.462C828.39,296.592 849.172,282.279 868.802,267.198ZM603.287,312.594C603.85,315.406 608.584,315.977 617.487,314.308C678.27,273.677 711.57,236.062 745.94,198.33C671.833,227.103 603.069,256.821 589.532,296.311L599.805,305.987C606.288,283.372 627.567,267.516 660.522,256.992C652.813,268.978 643.423,282.398 629.01,300.097C618.999,303.01 610.918,307.606 603.287,312.594ZM392.405,312.594C391.842,315.406 387.108,315.977 378.204,314.308C317.422,273.677 284.122,236.062 249.752,198.33C323.859,227.103 392.623,256.821 406.16,296.311L395.887,305.987C389.404,283.372 368.125,267.516 335.17,256.992C342.879,268.978 352.269,282.398 366.682,300.097C376.692,303.01 384.774,307.606 392.405,312.594ZM536.918,309.048L531.309,309.608C532.898,305.209 535.617,299.765 535.671,295.282L536.918,309.048ZM458.774,309.048L464.383,309.608C462.794,305.209 460.075,299.765 460.021,295.282L458.774,309.048ZM435.605,296.861C440.422,299.424 443.538,300.648 445.266,300.844C448.008,301.155 448.639,299.78 446.913,298.159C441.201,292.799 423.716,278.825 418.339,267.56C414.85,260.25 408.11,256.118 405.89,252.4C415.576,256.452 421.063,264.133 428.15,266.866C445.014,273.37 455.888,286.372 455.404,302.891C455.329,305.43 443.352,306.882 435.605,296.861ZM560.087,296.861C555.27,299.424 552.154,300.648 550.425,300.844C547.684,301.155 547.053,299.78 548.779,298.159C554.49,292.799 571.976,278.825 577.353,267.56C580.842,260.25 587.582,256.118 589.802,252.4C580.116,256.452 574.629,264.133 567.542,266.866C550.678,273.37 539.804,286.372 540.288,302.891C540.363,305.43 552.339,306.882 560.087,296.861ZM475.048,278.575C476.339,284.144 477.403,289.713 478.439,295.282C481.168,297.422 483.897,299.834 486.626,302.445C486.433,294.153 488.196,281.679 492.566,263.639L492.566,230.366L483.906,248.749L489.043,268.861C485.876,267.376 482.659,265.979 479.099,265.206C477.21,268.735 476.117,275.047 475.048,278.575ZM520.644,278.575C519.353,284.144 518.289,289.713 517.253,295.282C514.524,297.422 511.795,299.834 509.066,302.445C509.259,294.153 507.495,281.679 503.126,263.639L503.126,230.366L511.786,248.749L506.649,268.861C509.816,267.376 513.033,265.979 516.593,265.206C518.482,268.735 519.575,275.047 520.644,278.575ZM458.774,289.657L475.048,295.282C461.022,234.082 442.17,180.354 423.227,126.767C437.49,180.505 453.611,233.814 458.774,289.657ZM536.918,289.657L520.644,295.282C534.67,234.082 553.522,180.354 572.465,126.767C558.202,180.505 542.081,233.814 536.918,289.657ZM468.551,255.65C470.545,260.746 472.311,266.586 473.809,273.301C474.552,269.249 475.297,265.197 477.812,261.461C480.861,262.387 483.614,263.855 486.19,265.644C484.65,260.112 482.617,254.863 480.201,249.833C483.677,241.04 487.369,232.453 492.566,225.317L492.184,203.211C482.449,218.863 474.481,236.254 468.551,255.65ZM527.141,255.65C525.147,260.746 523.381,266.586 521.883,273.301C521.14,269.249 520.395,265.197 517.88,261.461C514.831,262.387 512.078,263.855 509.502,265.644C511.042,260.112 513.075,254.863 515.491,249.833C512.015,241.04 508.323,232.453 503.126,225.317L503.508,203.211C513.243,218.863 521.211,236.254 527.141,255.65ZM461.579,235.204C463.401,240.911 465.124,246.646 466.787,252.4C468.005,248.039 469.314,243.69 470.944,239.384C468.726,230.082 466.057,221.17 462.396,213.117C462.448,219.878 462.142,227.302 461.579,235.204ZM534.113,235.204C532.291,240.911 530.568,246.646 528.905,252.4C527.687,248.039 526.378,243.69 524.748,239.384C526.966,230.082 529.635,221.17 533.295,213.117C533.244,219.878 533.55,227.302 534.113,235.204ZM497.614,393.363C495.213,394.661 492.812,396.36 490.411,398.197L491.682,464.757C482.51,428.043 473.338,391.323 462.383,365.082C452.451,344.303 447.697,331.42 442.897,318.467C450.64,316.52 458.383,315.025 466.126,314.334L472.421,325.743L470.127,331.951C476.533,335.612 482.442,339.754 487.262,344.957C489.812,343.792 492.315,342.588 494.016,340.972L497.846,341.548L501.676,340.972C503.377,342.588 505.88,343.792 508.43,344.957C513.25,339.754 519.159,335.612 525.565,331.951L523.271,325.743L529.566,314.334C537.309,315.025 545.052,316.52 552.795,318.467C547.995,331.42 543.241,344.303 533.309,365.082C522.354,391.323 513.182,428.043 504.01,464.757L505.281,398.197C502.803,396.301 500.324,394.551 497.846,393.239L497.614,393.363ZM497.964,321.862C500.428,319.933 501.405,317.523 501.499,314.827L497.846,317.148L494.193,314.827C494.289,317.565 495.296,320.009 497.846,321.954L497.964,321.862ZM497.549,338.755C496.071,338.555 494.695,338.143 493.429,337.5C492.8,339.304 490.438,340.944 487.749,342.553C487.072,339.803 475.44,332.06 473.79,331.393C472.896,330.43 476.555,327.236 476.501,326.533C469.929,317.34 464.802,306.966 462.383,294.381C471.92,297.136 480.559,302.672 488.823,309.37C489.018,307.143 489.479,305.605 490.173,304.674C492.232,304.802 493.507,306.091 494.515,307.776C494.226,304.176 495.02,301.2 497.846,299.39L497.977,299.475C500.696,301.293 501.462,304.233 501.177,307.776C502.185,306.091 503.46,304.802 505.519,304.674C506.213,305.605 506.674,307.143 506.869,309.37C515.133,302.672 523.772,297.136 533.309,294.381C530.89,306.966 525.763,317.34 519.191,326.533C519.137,327.236 522.796,330.43 521.902,331.393C520.252,332.06 508.62,339.803 507.943,342.553C505.254,340.944 502.892,339.304 502.263,337.5C500.913,338.186 499.437,338.608 497.846,338.792L497.549,338.755Z" style="fill:white;"/>
    </g>
</svg>
