<?xml version="1.0" encoding="UTF-8" standalone="no"?>
<!DOCTYPE svg PUBLIC "-//W3C//DTD SVG 1.1//EN" "http://www.w3.org/Graphics/SVG/1.1/DTD/svg11.dtd">
<svg width="100%" height="100%" viewBox="0 0 1000 1000" version="1.1" xmlns="http://www.w3.org/2000/svg" xmlns:xlink="http://www.w3.org/1999/xlink" xml:space="preserve" xmlns:serif="http://www.serif.com/" style="fill-rule:evenodd;clip-rule:evenodd;stroke-linejoin:round;stroke-miterlimit:2;">
    <g transform="matrix(0.873786,0,0,0.873786,63.1068,-2.42718)">
        <path d="M555.162,488.181L556.761,522.026C546.145,603.305 512.868,891.64 500,1088.47L500,1090L499.95,1089.24L499.9,1090L499.9,1088.48C487.286,895.526 455.153,614.654 443.894,527.083L443.917,527.083L445.731,488.695C461.744,497.805 480.269,503.011 500,503.011C520.095,503.011 538.939,497.611 555.162,488.181ZM500,791.567C510.173,791.567 518.433,799.827 518.433,810C518.433,820.173 510.173,828.433 500,828.433C489.827,828.433 481.567,820.173 481.567,810C481.567,799.827 489.827,791.567 500,791.567ZM500,796.677C492.788,796.677 486.933,802.532 486.933,809.744C486.933,816.956 492.788,822.811 500,822.811C507.212,822.811 513.067,816.956 513.067,809.744C513.067,802.532 507.212,796.677 500,796.677ZM493.173,816.952L498.96,812.983L501.356,819.582C500.912,819.643 500.46,819.674 500,819.674C497.357,819.674 494.953,818.639 493.173,816.952ZM505.272,818.158L503.07,812.094L509.501,812.638C508.798,814.947 507.275,816.9 505.272,818.158ZM491.336,804.891L496.615,809.539L490.813,813.518C490.334,812.354 490.07,811.079 490.07,809.744C490.07,807.982 490.53,806.326 491.336,804.891ZM503.31,807.933L506.37,802.128C508.242,803.696 509.529,805.942 509.851,808.486L503.31,807.933ZM502.686,800.182L499.391,806.432L494.091,801.765C495.743,800.539 497.787,799.814 500,799.814C500.931,799.814 501.831,799.942 502.686,800.182ZM592.787,452.083L641.455,452.083L682,503L626,491L679,576L599,520L608,580L559.083,520.119L559.083,485.791C572.621,477.146 584.144,465.621 592.787,452.083ZM407.213,452.083C416.05,465.926 427.898,477.663 441.833,486.37L441.833,518.997L392,580L401,520L321,576L374,491L318,503L358.545,452.083L407.213,452.083ZM520.36,466.803C513.879,468.59 507.05,469.545 500,469.545C495.193,469.545 490.489,469.101 485.929,468.252L480.079,495.877C486.529,497.121 493.189,497.773 500,497.773C509.87,497.773 519.423,496.405 528.479,493.848L520.36,466.803ZM434.498,474.75C433.472,473.926 432.463,473.085 431.47,472.225L450.189,451.1C459.175,458.815 469.974,464.484 481.855,467.378L476.004,495.006C465.27,492.487 455.17,488.315 445.988,482.774C445.913,482.086 445.498,481.473 444.874,481.15C441.228,479.263 437.768,477.131 434.498,474.75ZM555.125,482.092C555.317,481.694 555.635,481.36 556.042,481.15C557.121,480.592 558.183,480.012 559.229,479.411C563.982,476.146 568.454,472.497 572.597,468.512L552.804,448.391C544.778,456.046 535.093,461.977 524.345,465.586L532.466,492.636C540.488,490.02 548.085,486.461 555.125,482.092ZM645.865,322.378L645.663,322.632C685.86,322.611 724.707,310.743 760,282.807C760.69,305.285 759.358,327.741 740,350C761.803,357.619 781.871,369.352 800,385.683C784.989,399.057 766.436,409.66 745.088,418.076C761.641,438.805 764.628,461.383 760,485C730.234,457.538 688.639,450.351 648.083,450.013L648.083,450L595.229,448.071C604.623,431.87 610,413.064 610,393.011C610,367.075 601.005,343.224 585.97,324.414L645.865,322.378ZM352.833,450.007C311.984,450.245 269.989,457.333 240,485C235.372,461.383 238.359,438.805 254.912,418.076C233.564,409.66 215.011,399.057 200,385.683C218.129,369.352 238.197,357.619 260,350C240.642,327.741 239.31,305.285 240,282.807C275.293,310.743 314.14,322.611 354.337,322.632L354.137,322.382L414.028,324.417C398.991,343.235 390,367.081 390,393.011C390,413.082 395.387,431.904 404.79,448.104L352.833,450L352.833,450.007ZM410.953,448.193C407.097,441.989 403.873,435.355 401.369,428.38L428.025,419.074C432.081,430.259 438.672,440.233 447.101,448.301L428.375,469.435C423.299,464.675 418.697,459.417 414.647,453.738C413.636,452.195 412.662,450.605 411.726,448.967C411.538,448.639 411.269,448.374 410.953,448.193ZM572.994,416.071C569.489,427.16 563.525,437.162 555.741,445.434L575.543,465.564C586.638,454.017 595.114,439.933 600.011,424.27L572.994,416.071ZM520.948,435.207C514.638,438.348 507.524,440.116 500,440.116C494.832,440.116 489.856,439.282 485.199,437.74L476.775,460.504C484.057,463.012 491.871,464.375 500,464.375C511.67,464.375 522.69,461.567 532.418,456.593L520.948,435.207ZM455.643,408.892L432.649,416.643C439.395,435.853 454.139,451.317 472.877,459.032L481.306,436.255C469.406,431.099 460.045,421.172 455.643,408.892ZM544.688,407.934C541.149,418.524 533.948,427.443 524.592,433.186L536.071,454.588C550.949,445.848 562.386,431.87 567.843,415.194L544.688,407.934ZM478.57,388.058L458.981,381.523C457.958,385.179 457.411,389.031 457.411,393.011C457.411,416.516 476.494,435.6 500,435.6C501.563,435.6 503.107,435.516 504.628,435.351L501.143,413.452C500.766,413.472 500.384,413.482 500,413.482C488.001,413.482 478.259,403.74 478.259,391.741C478.259,390.486 478.366,389.255 478.57,388.058ZM520.043,383.309C521.136,385.903 521.741,388.752 521.741,391.741C521.741,401.925 514.724,410.482 505.265,412.839L508.743,434.7C528.062,430.662 542.589,413.519 542.589,393.011C542.589,385.682 540.734,378.783 537.467,372.758L520.043,383.309ZM426.22,372.606L399.095,364.773C396.582,373.756 395.238,383.228 395.238,393.011C395.238,403.956 396.92,414.512 400.04,424.43L426.713,415.119C424.6,408.115 423.466,400.694 423.466,393.011C423.466,385.944 424.425,379.1 426.22,372.606ZM575.122,378.314C576.049,383.07 576.534,387.984 576.534,393.011C576.534,399.588 575.703,405.972 574.14,412.064L601.174,420.269C603.515,411.571 604.762,402.435 604.762,393.011C604.762,386.026 604.077,379.2 602.769,372.589L575.122,378.314ZM450.041,342.071C436.833,355.027 428.636,373.069 428.636,393.011C428.636,399.829 429.594,406.425 431.384,412.672L454.413,404.909C453.422,401.109 452.895,397.121 452.895,393.011C452.895,379.996 458.184,368.207 466.731,359.676L450.041,342.071ZM555.086,347.661L536.601,363.37C543.168,371.466 547.105,381.782 547.105,393.011C547.105,396.768 546.664,400.422 545.832,403.926L569.022,411.196C570.55,405.387 571.364,399.293 571.364,393.011C571.364,375.795 565.254,359.995 555.086,347.661ZM500,373.308C510.173,373.308 518.433,381.568 518.433,391.741C518.433,401.914 510.173,410.174 500,410.174C489.827,410.174 481.567,401.914 481.567,391.741C481.567,381.568 489.827,373.308 500,373.308ZM500,378.418C492.788,378.418 486.933,384.273 486.933,391.485C486.933,398.697 492.788,404.552 500,404.552C507.212,404.552 513.067,398.697 513.067,391.485C513.067,384.273 507.212,378.418 500,378.418ZM493.173,398.693L498.96,394.724L501.356,401.323C500.912,401.384 500.46,401.415 500,401.415C497.357,401.415 494.953,400.38 493.173,398.693ZM505.272,399.899L503.07,393.835L509.501,394.379C508.798,396.688 507.275,398.641 505.272,399.899ZM491.336,386.632L496.615,391.28L490.813,395.259C490.334,394.095 490.07,392.82 490.07,391.485C490.07,389.723 490.53,388.067 491.336,386.632ZM503.31,389.674L506.37,383.869C508.242,385.437 509.529,387.683 509.851,390.227L503.31,389.674ZM502.686,381.923L499.391,388.173L494.091,383.506C495.743,382.28 497.787,381.555 500,381.555C500.931,381.555 501.831,381.683 502.686,381.923ZM518.06,379.639L535.305,369.196C527.646,357.872 514.686,350.422 500,350.422C481.938,350.422 466.488,361.689 460.301,377.571L479.668,384.032C482.782,375.833 490.715,370 500,370C507.521,370 514.155,373.827 518.06,379.639ZM661.567,343.135C671.741,343.135 680,351.394 680,361.567C680,371.741 671.741,380 661.567,380C651.394,380 643.135,371.741 643.135,361.567C643.135,351.394 651.394,343.135 661.567,343.135ZM338.433,343C348.606,343 356.865,351.259 356.865,361.433C356.865,371.606 348.606,379.865 338.433,379.865C328.259,379.865 320,371.606 320,361.433C320,351.259 328.259,343 338.433,343ZM661.567,348.244C654.356,348.244 648.5,354.099 648.5,361.311C648.5,368.523 654.356,374.378 661.567,374.378C668.779,374.378 674.634,368.523 674.634,361.311C674.634,354.099 668.779,348.244 661.567,348.244ZM558.068,343.175C565.662,352.015 571.274,362.603 574.213,374.247L601.878,368.519C597.908,351.966 590.003,336.936 579.211,324.478L558.068,343.175ZM338.433,348.11C331.221,348.11 325.366,353.965 325.366,361.176C325.366,368.388 331.221,374.243 338.433,374.243C345.644,374.243 351.5,368.388 351.5,361.176C351.5,353.965 345.644,348.11 338.433,348.11ZM654.74,368.519L660.527,364.551L662.923,371.149C662.48,371.21 662.027,371.241 661.567,371.241C658.924,371.241 656.521,370.206 654.74,368.519ZM331.606,368.385L337.393,364.416L339.789,371.015C339.345,371.075 338.893,371.107 338.433,371.107C335.789,371.107 333.386,370.072 331.606,368.385ZM666.839,369.726L664.637,363.662L671.068,364.206C670.365,366.514 668.842,368.468 666.839,369.726ZM343.705,369.591L341.503,363.527L347.934,364.071C347.23,366.38 345.708,368.333 343.705,369.591ZM450.509,334.648L432.617,312.819C417.752,325.327 406.409,341.884 400.297,360.784L427.44,368.621C431.929,355.276 440,343.57 450.509,334.648ZM652.904,356.458L658.182,361.106L652.381,365.085C651.901,363.921 651.637,362.647 651.637,361.311C651.637,359.549 652.097,357.894 652.904,356.458ZM329.769,356.323L335.048,360.972L329.246,364.951C328.767,363.786 328.503,362.512 328.503,361.176C328.503,359.414 328.962,357.759 329.769,356.323ZM505.928,321.89L504.595,346.127C516.028,347.236 526.271,352.44 533.836,360.252L552.343,344.524C540.565,331.815 524.218,323.397 505.928,321.89ZM664.877,359.5L667.937,353.695C669.81,355.263 671.096,357.509 671.418,360.054L664.877,359.5ZM341.742,359.366L344.803,353.561C346.675,355.129 347.962,357.375 348.284,359.919L341.742,359.366ZM664.253,351.749L660.958,357.999L655.658,353.332C657.31,352.106 659.355,351.381 661.567,351.381C662.498,351.381 663.399,351.509 664.253,351.749ZM341.118,351.614L337.824,357.864L332.524,353.197C334.176,351.971 336.22,351.246 338.433,351.246C339.363,351.246 340.264,351.375 341.118,351.614ZM501.767,321.669C501.18,321.654 500.591,321.647 500,321.647C482.051,321.647 465.642,328.288 453.099,339.241L469.807,356.865C477.983,350.026 488.514,345.906 500,345.906C500.146,345.906 500.291,345.906 500.434,345.908L501.767,321.669ZM526.909,321.349C537.742,325.422 547.41,331.884 555.268,340.089L576.421,321.383C565.392,309.62 551.679,300.4 536.259,294.704L526.909,321.349ZM484.515,318.047L479.475,290.263C463.281,293.485 448.428,300.445 435.857,310.2L453.758,332.038C462.681,325.257 473.139,320.388 484.515,318.047ZM563.072,254.998L608,200L599,260L679,204L626,289L682,277L647.379,320.478L582.619,320.418C576.83,313.836 570.267,307.949 563.072,302.901L563.072,257.548L563.072,254.998ZM436.833,254.882L436.833,257.548L436.833,302.968C429.677,308 423.147,313.863 417.381,320.418L352.621,320.477L318,277L374,289L321,204L401,260L392,200L436.833,254.882ZM522.97,319.989L532.322,293.339C522.136,290.034 511.275,288.249 500,288.249C494.415,288.249 488.931,288.687 483.577,289.532L488.617,317.319C492.328,316.764 496.131,316.476 500,316.476C508,316.476 515.716,317.707 522.97,319.989ZM438.762,251.032C434.854,155.599 421.732,122.353 400,110C420.785,104.921 440.698,109.193 460,120C472.077,97.879 485.259,77.623 500,60C514.741,77.623 527.923,97.879 540,120C559.302,109.193 579.215,104.921 600,110C578.268,122.353 565.146,155.599 561.237,251.053L561,251L559.09,300.235C542.016,289.332 521.74,283.011 500,283.011C478.217,283.011 457.904,289.356 440.817,300.294L438.905,251L438.762,251.032ZM500,163.135C510.173,163.135 518.433,171.394 518.433,181.567C518.433,191.741 510.173,200 500,200C489.827,200 481.567,191.741 481.567,181.567C481.567,171.394 489.827,163.135 500,163.135ZM500,168.244C492.788,168.244 486.933,174.099 486.933,181.311C486.933,188.523 492.788,194.378 500,194.378C507.212,194.378 513.067,188.523 513.067,181.311C513.067,174.099 507.212,168.244 500,168.244ZM493.173,188.519L498.96,184.551L501.356,191.149C500.912,191.21 500.46,191.241 500,191.241C497.357,191.241 494.953,190.206 493.173,188.519ZM505.272,189.726L503.07,183.662L509.501,184.206C508.798,186.514 507.275,188.468 505.272,189.726ZM491.336,176.458L496.615,181.106L490.813,185.085C490.334,183.921 490.07,182.647 490.07,181.311C490.07,179.549 490.53,177.894 491.336,176.458ZM503.31,179.5L506.37,173.695C508.242,175.263 509.529,177.509 509.851,180.054L503.31,179.5ZM502.686,171.749L499.391,177.999L494.091,173.332C495.743,172.106 497.787,171.381 500,171.381C500.931,171.381 501.831,171.509 502.686,171.749Z" style="fill:white;"/>
    </g>
</svg>
