<?xml version="1.0" encoding="UTF-8" standalone="no"?>
<!DOCTYPE svg PUBLIC "-//W3C//DTD SVG 1.1//EN" "http://www.w3.org/Graphics/SVG/1.1/DTD/svg11.dtd">
<svg width="100%" height="100%" viewBox="0 0 1000 1000" version="1.1" xmlns="http://www.w3.org/2000/svg" xmlns:xlink="http://www.w3.org/1999/xlink" xml:space="preserve" xmlns:serif="http://www.serif.com/" style="fill-rule:evenodd;clip-rule:evenodd;stroke-linejoin:round;stroke-miterlimit:2;">
    <g transform="matrix(1.66557,0,0,1.66557,-714.495,-447.009)">
        <path d="M614.309,739.061L494.407,739.061L494.407,590.235L525.274,590.235L614.309,739.061ZM720,398.105L760,398.105L930,685L930,739L889,739L720,452L720,398.105ZM459,398.105L499,398.105L669,685L669,739L628,739L459,452L459,398.105ZM633,398.105L673,398.105L843,685L843,739L802,739L633,452L633,398.105ZM546,398.105L586,398.105L756,685L756,739L715,739L546,452L546,398.105ZM999.357,685L945.757,685L945.757,738.562L999.357,738.562L999.357,685ZM862.949,546.675L894.755,546.675L894.755,398.1L774.908,398.1L862.949,546.675Z" style="fill:white;"/>
    </g>
</svg>
