<?xml version="1.0" encoding="UTF-8" standalone="no"?>
<!DOCTYPE svg PUBLIC "-//W3C//DTD SVG 1.1//EN" "http://www.w3.org/Graphics/SVG/1.1/DTD/svg11.dtd">
<svg width="100%" height="100%" viewBox="0 0 1000 1000" version="1.1" xmlns="http://www.w3.org/2000/svg" xmlns:xlink="http://www.w3.org/1999/xlink" xml:space="preserve" xmlns:serif="http://www.serif.com/" style="fill-rule:evenodd;clip-rule:evenodd;stroke-linejoin:round;stroke-miterlimit:2;">
    <g transform="matrix(1.10684,0,0,1.10684,-16.4105,-58.113)">
        <path d="M643.117,529.8C551.217,500.049 461.529,505.088 374.026,544.512C364.31,571.73 352.324,597.046 338.934,621.185C339.827,678.203 351.554,740.833 396.435,766.902C435.983,789.873 463.646,813.563 492.334,839.058C520.398,857.527 538.457,850.223 553.375,834.829C556.942,821.271 563.039,808.371 569.528,795.572C621.792,760.486 641.055,708.599 650.583,651.756C639.916,609.844 638.432,569.347 643.117,529.8ZM582.162,767.961C603.369,771.699 604.921,753.887 602.026,731.199C590.378,735.536 583.822,739.606 580.272,743.518C547.639,757.727 513.362,760.695 477.896,755.526L448.143,751.69C443.365,744.467 437.412,736.955 430.864,729.297C422.549,739.983 420.318,751.46 419.712,763.148C426.769,777.953 436.213,774.419 446.864,761.608C451.11,769.649 457.389,776.916 464.142,784.001C472.108,778.63 478.163,771.04 482.216,761.124C505.402,763.624 529.039,762.694 553.176,758.174C560.011,762.869 563.093,772.824 565.239,781.911C572.472,778.198 578.325,773.672 582.162,767.961ZM347.956,582.49C309.918,652.185 253.048,680.918 180.643,675.862C134.994,694.798 94.219,702.951 60,696.605C97.054,652.785 139.881,618.506 190.745,597.51C219.959,552.545 248.966,522.71 277.748,509.228C315.163,497.45 342.243,513.227 363.981,544.225L355.697,569.372L338.674,544.995C293.399,565.323 259.712,597.993 233.141,638.266C222.627,654.202 203.184,659.717 187.361,670.678C218.043,662.807 235.015,636.243 262.109,631.918C288.333,627.732 317.473,610.083 347.956,582.49ZM492.579,675.244C490.401,673.207 488.703,670.976 487.366,668.598C486.03,666.22 485.055,663.695 484.323,661.072C493.541,664.136 497.329,668.594 492.579,675.244ZM555.789,659.7C553.165,661.118 550.957,662.846 549.061,664.807C547.165,666.768 545.582,668.963 544.209,671.314C553.902,670.689 558.697,667.337 555.789,659.7ZM688.639,497.355C693.836,503.425 700.517,504.621 708.091,502.887C735.392,523.856 752.931,550.97 769.941,578.416C822.49,594.805 856.395,617.556 873.125,646.167C841.82,648.646 809.742,643.007 779.771,627.3C745.731,609.461 716.196,580.944 695.488,553.719C683.373,537.791 662.697,539.089 649.133,545.7C660.963,512.756 673.469,488.305 688.639,497.355ZM647.814,555.933C653.699,586.747 655.827,612.523 654.868,634.159C674.781,653.268 724.598,646.168 781.016,633.283C735.167,639.616 688.941,646.483 660.723,627.856C662.702,604.692 657.419,580.591 647.814,555.933ZM393.578,588.372C410.289,580.476 426.843,575.756 442.728,584.626C457.404,598.565 455.743,607.175 431.332,608.364C414.838,605.423 402.846,598.195 393.578,588.372ZM617.782,569.889C608.315,592.244 594.753,608.468 567.909,604.799C564.321,603.551 563.147,600.595 563.973,596.225C569.961,590.158 576.674,580.201 586.065,581.287C596.713,582.517 607.339,577.657 617.782,569.889ZM471.255,201.172C470.448,198.526 469.627,195.873 468.79,193.204L468.414,192.005C467.571,189.432 466.715,186.865 465.841,184.295C488.677,149.419 508.841,147.89 525.349,191.967C526.354,197.666 527.294,203.352 528.168,209.011C626.29,267.756 666.903,380.521 697.821,496.522C681.885,470.282 665.599,485.825 649.067,530.567C655.848,511.39 582.788,502.194 505.561,501.855C460.446,501.657 395.947,519.321 369.835,537.922C338.51,509.773 307.928,486.486 283.514,503.602C305.142,375.058 354.961,271.55 447.355,205.866L447.603,205.775C457.775,202.071 465.786,200.987 471.255,201.172ZM472.552,205.454C465.241,205.911 456.649,205.269 448.963,209.909C479.858,288.478 489.912,364.644 503.299,441.194C509.706,378.258 501.439,301.537 472.552,205.454Z" style="fill:white;"/>
    </g>
</svg>
