<?xml version="1.0" encoding="UTF-8" standalone="no"?>
<!DOCTYPE svg PUBLIC "-//W3C//DTD SVG 1.1//EN" "http://www.w3.org/Graphics/SVG/1.1/DTD/svg11.dtd">
<svg width="100%" height="100%" viewBox="0 0 1000 1000" version="1.1" xmlns="http://www.w3.org/2000/svg" xmlns:xlink="http://www.w3.org/1999/xlink" xml:space="preserve" xmlns:serif="http://www.serif.com/" style="fill-rule:evenodd;clip-rule:evenodd;stroke-linejoin:round;stroke-miterlimit:2;">
    <g transform="matrix(1.34989,0,0,1.34989,-174.082,-505.668)">
        <path d="M389.291,593.146C389.918,591.699 390.81,590.314 392,589C415.023,595.363 432.828,601.931 432.142,609.225C474.303,620.968 514.935,635.965 549,665L546,681C493.683,675.202 439.883,671.381 412,633C409.237,621.597 409.454,613.873 412.691,609.88C405.219,609.28 397.525,607.888 389.452,605.154L375,629L379,632L337.089,694.429C353.148,707.46 365.291,725.135 371.463,745.398C377.174,731.737 386.549,720.116 400,710C434.559,725.677 459.425,729.475 450,736.625C434.323,739.47 422.66,745.042 418.471,755C410.251,774.54 410.865,802.934 415,830.625C471.612,855.247 526.498,862.408 580.452,860.208C581.062,853.622 582.282,847.212 584.052,841.038L560.234,832.176L561.73,827.405L554.456,824.308C551.856,828.923 546.703,832.328 540,835C522.593,834.347 505.737,829.224 490,815C471.996,814.818 470.952,803.073 471.59,795C472.274,786.336 477.608,780.631 495,785C513.861,785.022 532.13,787.505 550,800C554.642,807.145 556.54,812.992 556.303,817.828L564.85,821.467L567.514,818.32L589.48,826.369C606.061,790.169 642.615,765 685,765C688.848,765 692.648,765.207 696.385,765.611C694.846,764.258 693.392,762.73 692.04,760.989C688.499,756.433 679.727,759.877 672,760L673,750L693,750L699.227,746.321C696.896,746.267 694.487,746.16 692,746C599.481,735.532 549.39,719.841 533,700C607.69,676.589 660.164,688.337 706.573,686.22C735.97,684.878 750.9,690.448 757,700L760,713C759.77,713.928 759.517,714.839 759.239,715.735L785,715.735L817,695L820,698C824.861,694.338 828.146,695.377 830,695.672C834.873,696.449 833.392,701.755 824,705L815,720C814.869,738.044 807.506,751.046 780,750L736.91,778.727C768.608,796.804 790,830.924 790,870C790,927.951 742.951,975 685,975C630.717,975 586,933.719 580.557,880.87C500.971,896.087 431.015,889.753 376,850C372.539,838.049 369.824,826.895 367.909,816.46C352.053,854.351 314.614,881 271,881C213.049,881 166,833.951 166,776C166,718.049 213.049,671 271,671C290.338,671 308.463,676.239 324.031,685.375L365,625L369,626L389,593L389.291,593.146ZM608.757,850.23C607.121,856.546 606.25,863.172 606.25,870C606.25,913.463 641.537,948.75 685,948.75C728.463,948.75 763.75,913.463 763.75,870C763.75,826.537 728.463,791.25 685,791.25C653.932,791.25 627.043,809.279 614.231,835.438L639.083,844.544C648.048,828.419 665.259,817.5 685,817.5C713.976,817.5 737.5,841.024 737.5,870C737.5,898.976 713.976,922.5 685,922.5C656.024,922.5 632.5,898.976 632.5,870C632.5,866.39 632.865,862.864 633.561,859.459L608.757,850.23ZM646.063,864.111C645.775,866.032 645.625,867.999 645.625,870C645.625,891.732 663.268,909.375 685,909.375C699.017,909.375 711.333,902.035 718.311,890.992L694.046,881.963C691.53,883.869 688.396,885 685,885C677.798,885 671.774,879.913 670.33,873.139L646.063,864.111ZM723.972,875.648C724.238,873.802 724.375,871.917 724.375,870C724.375,848.268 706.732,830.625 685,830.625C670.931,830.625 658.575,838.02 651.61,849.134L675.939,858.048C678.456,856.136 681.597,855 685,855C692.157,855 698.15,860.023 699.643,866.734L723.972,875.648ZM309.249,707.16C297.922,700.848 284.878,697.25 271,697.25C227.537,697.25 192.25,732.537 192.25,776C192.25,819.463 227.537,854.75 271,854.75C314.463,854.75 349.75,819.463 349.75,776C349.75,752.165 339.138,730.789 322.381,716.339L307.592,738.368C317.403,747.91 323.5,761.249 323.5,776C323.5,804.976 299.976,828.5 271,828.5C242.024,828.5 218.5,804.976 218.5,776C218.5,747.024 242.024,723.5 271,723.5C279.414,723.5 287.369,725.484 294.422,729.009L309.249,707.16ZM286.964,740.001C282.082,737.831 276.681,736.625 271,736.625C249.268,736.625 231.625,754.268 231.625,776C231.625,797.732 249.268,815.375 271,815.375C292.732,815.375 310.375,797.732 310.375,776C310.375,765.799 306.488,756.499 300.116,749.504L285.324,771.538C285.763,772.947 286,774.446 286,776C286,784.279 279.279,791 271,791C262.721,791 256,784.279 256,776C256,767.721 262.721,761 271,761C271.559,761 272.111,761.031 272.653,761.09L286.964,740.001ZM435,698C434.727,705.593 435.448,713.053 440,720L495,720C498.407,720.178 500.275,718.724 500,715L500,705C497.038,701.305 493.791,700.452 490,705C486.637,709.238 483.121,710.286 479.541,710C476.87,702.393 471.385,700.313 465,700C455,696.189 445,695.018 435,698ZM307.135,656.078L324,633C325.26,622.382 329.542,614.718 344,617C351.181,627.596 347.097,635.118 337,641L320.529,664.791C322.69,666.421 324.846,668.156 327,670L310,671C280.611,658.791 253.924,659.665 224,671L210,663C244.949,643.037 276.534,639.29 307.135,656.078ZM364.571,550C365.544,579.082 357.26,599.007 345,615L330,615C322.121,588.204 325.978,565.583 344,548C351.358,540.697 358.043,544.097 364.571,550ZM420,584L460,550C463.46,527.55 471.898,518.278 486,524C497.967,528.835 497.227,534.433 497,540C492.082,559.801 477.832,560.975 460,555L423,587L420,584ZM400,517L390,525C387.094,518.859 386.376,516.489 380,515C367.455,519.383 360.411,526.749 355,535C356.362,540.406 360.941,545.453 370,550L385,545C387.184,548.455 391.595,553.286 400,555C412.502,554.289 419.911,548.337 425,540C422.685,529.081 415.897,520.579 400,517Z" style="fill:white;"/>
    </g>
</svg>
