<?xml version="1.0" encoding="UTF-8" standalone="no"?>
<!DOCTYPE svg PUBLIC "-//W3C//DTD SVG 1.1//EN" "http://www.w3.org/Graphics/SVG/1.1/DTD/svg11.dtd">
<svg width="100%" height="100%" viewBox="0 0 1000 1000" version="1.1" xmlns="http://www.w3.org/2000/svg" xmlns:xlink="http://www.w3.org/1999/xlink" xml:space="preserve" xmlns:serif="http://www.serif.com/" style="fill-rule:evenodd;clip-rule:evenodd;stroke-linejoin:round;stroke-miterlimit:2;">
    <g transform="matrix(1.125,0,0,1.125,38.75,5)">
        <path d="M409.46,837.85C398.158,792.616 389.592,742.569 381,690C380.477,673.233 367.456,674.139 354.345,679.918C352.965,680.594 351.517,681.288 350,682C351.438,681.258 352.891,680.558 354.345,679.918C375.024,669.775 380.305,663.467 376.153,654.535C373.046,647.851 362.298,649.414 340,659C324.129,663.824 312.035,669.756 301,676C307.61,671.363 300.107,671.185 351.373,648.178C356.951,645.674 347.645,639.284 330,638C320.704,637.531 313.141,635.387 311,628C306.943,613.114 302.938,612.081 299,629C281.992,620.563 270.293,620.019 265,629C249.556,603.364 240.302,599.84 236,614C233.229,602.187 228.963,595.93 221.955,595.511C218.678,595.316 217.637,597.674 218,606C207.972,598.755 200.771,601.78 195,610C200.532,598.368 191.2,588.163 171,579C134.162,557.577 102.926,539.829 80,527.428C45.703,508.876 25.701,490.232 11,477C89.623,507.561 203.968,557.125 161,523C191.62,535.078 199.944,528.818 193,510C200.417,526.14 209.13,533.975 220,528C216.332,538.132 220.498,541.698 223.498,541.698C226.498,541.698 234.332,543.132 238,528C244.618,541.293 254.952,537.293 269,516C265.36,525.701 266.072,528.331 276.772,530C295.449,532.914 302.329,527.964 301,514C310.522,525.075 318.77,527.945 326.125,524.889C332.787,522.121 332.053,514.131 324,500L288,434.5L339,495C347.459,503.335 354.436,504.221 360,498L380,480C386.855,470.58 384.844,465.152 380,461L269,340C291.233,352.789 313.781,369.204 332.068,384.906C337.273,389.376 342.563,388.11 344.82,385.287C349.994,378.813 350.577,373.983 332,360C349.58,367.901 358.901,365.088 358.98,360C359.068,354.373 356.851,330.292 324,323C341.969,321.294 355.029,318.688 360,312.053C367.575,301.942 367.913,290.884 360,287C352.22,282.312 351.718,276.708 360,270C367.461,253.854 370.315,237.015 372,220L382,194C382.978,197.794 385.065,201.648 384.032,205.087C376.567,229.939 379.244,233.15 384.333,235.78C386.67,236.987 390.76,234.818 394,216C391.664,200.614 388.558,185.143 390.633,170C392.01,159.956 394.124,150.031 394.561,140C396.098,104.718 402.03,72.636 410,40L410.372,41.529C418.154,73.638 423.926,105.268 425.439,140C425.876,150.031 427.99,159.956 429.367,170C431.442,185.143 428.336,200.614 426,216C429.24,234.818 433.33,236.987 435.667,235.78C440.756,233.15 443.433,229.939 435.968,205.087C434.935,201.648 437.022,197.794 438,194L448,220C449.685,237.015 452.539,253.854 460,270C468.282,276.708 467.78,282.312 460,287C452.087,290.884 452.425,301.942 460,312.053C464.971,318.688 478.031,321.294 496,323C463.149,330.292 460.932,354.373 461.02,360C461.099,365.088 470.42,367.901 488,360C469.423,373.983 470.006,378.813 475.18,385.287C477.437,388.11 482.727,389.376 487.932,384.906C506.219,369.204 528.767,352.789 551,340L440,461C435.156,465.152 433.145,470.58 440,480L460,498C465.564,504.221 472.541,503.335 481,495L532,434.5L496,500C487.947,514.131 487.213,522.121 493.875,524.889C501.23,527.945 509.478,525.075 519,514C517.671,527.964 524.551,532.914 543.228,530C553.928,528.331 554.64,525.701 551,516C565.048,537.293 575.382,541.293 582,528C585.668,543.132 593.502,541.698 596.502,541.698C599.502,541.698 603.668,538.132 600,528C610.87,533.975 619.583,526.14 627,510C620.056,528.818 628.38,535.078 659,523C616.032,557.125 730.377,507.561 809,477C794.299,490.232 774.297,508.876 740,527.428C717.074,539.829 685.838,557.577 649,579C628.8,588.163 619.468,598.368 625,610C619.229,601.78 612.028,598.755 602,606C602.363,597.674 601.322,595.316 598.045,595.511C591.037,595.93 586.771,602.187 584,614C579.698,599.84 570.444,603.364 555,629C549.707,620.019 538.008,620.563 521,629C517.062,612.081 513.057,613.114 509,628C506.859,635.387 499.296,637.531 490,638C472.355,639.284 463.049,645.674 468.627,648.178C519.893,671.185 512.39,671.363 519,676C507.965,669.756 495.871,663.824 480,659C457.702,649.414 446.954,647.851 443.847,654.535C439.695,663.467 444.976,669.775 465.655,679.918C467.109,680.558 468.562,681.258 470,682C468.483,681.288 467.035,680.594 465.655,679.918C452.544,674.139 439.523,673.233 439,690C430.272,743.402 421.571,794.201 410,840L409.46,837.85ZM344,615L364,620C374.469,623.866 377.469,627.866 373,632L368,635C362.379,637.737 354.5,637.086 345,634L329,627C315.164,616.796 317.144,611.801 344,615ZM476,615L456,620C445.531,623.866 442.531,627.866 447,632L452,635C457.621,637.737 465.5,637.086 475,634L491,627C504.836,616.796 502.856,611.801 476,615ZM320,568L345,569C354.44,570.331 358.018,566.203 354,555L350,546C347.488,539.057 342.274,536.717 332,543L317,551C307.891,557.879 307.061,563.765 320,568ZM500,568L475,569C465.56,570.331 461.982,566.203 466,555L470,546C472.512,539.057 477.726,536.717 488,543L503,551C512.109,557.879 512.939,563.765 500,568ZM440,542C429.54,555.353 422.583,559.355 424,541L422,509C421.978,502.43 424.774,496.338 432,491C435.397,488.326 438.738,488.258 442,492L456,508C460.072,512.256 460.072,516.59 456,521L440,542ZM380,542C390.46,555.353 397.417,559.355 396,541L398,509C398.022,502.43 395.226,496.338 388,491C384.603,488.326 381.262,488.258 378,492L364,508C359.928,512.256 359.928,516.59 364,521L380,542ZM360,378C365.394,382.153 376.962,383.202 395,381C397.523,392.103 398.067,406.295 397,423C398.935,435.379 397.094,442.409 378,425C362.828,414.862 348.473,404.74 353,395C354.447,389.159 356.433,383.424 360,378ZM460,378C454.606,382.153 443.038,383.202 425,381C422.477,392.103 421.933,406.295 423,423C421.065,435.379 422.906,442.409 442,425C457.172,414.862 471.527,404.74 467,395C465.553,389.159 463.567,383.424 460,378Z" style="fill:white;"/>
    </g>
</svg>
