<?xml version="1.0" encoding="UTF-8" standalone="no"?>
<!DOCTYPE svg PUBLIC "-//W3C//DTD SVG 1.1//EN" "http://www.w3.org/Graphics/SVG/1.1/DTD/svg11.dtd">
<svg width="100%" height="100%" viewBox="0 0 1000 1000" version="1.1" xmlns="http://www.w3.org/2000/svg" xmlns:xlink="http://www.w3.org/1999/xlink" xml:space="preserve" xmlns:serif="http://www.serif.com/" style="fill-rule:evenodd;clip-rule:evenodd;stroke-linejoin:round;stroke-miterlimit:2;">
    <g transform="matrix(7.07356,0,0,7.07356,-3036.78,-775.949)">
        <path d="M500,204L488,179L500,244L512,179L500,204ZM493,176L461,171L492,166L500,116.766L508,166L539,171L507,176L500,191L493,176ZM513,159L526,125C521.286,131.254 515.839,135.775 509,137L513,159ZM487,159L474,125C478.714,131.254 484.161,135.775 491,137L487,159Z" style="fill:white;"/>
    </g>
</svg>
