<?xml version="1.0" encoding="UTF-8" standalone="no"?>
<!DOCTYPE svg PUBLIC "-//W3C//DTD SVG 1.1//EN" "http://www.w3.org/Graphics/SVG/1.1/DTD/svg11.dtd">
<svg width="100%" height="100%" viewBox="0 0 1000 1000" version="1.1" xmlns="http://www.w3.org/2000/svg" xmlns:xlink="http://www.w3.org/1999/xlink" xml:space="preserve" xmlns:serif="http://www.serif.com/" style="fill-rule:evenodd;clip-rule:evenodd;stroke-linejoin:round;stroke-miterlimit:2;">
    <g transform="matrix(1.95172,0,0,1.95172,-475.859,-465.241)">
        <path d="M511.801,630C524.646,629.484 526.431,665.663 531,689C530.601,703.023 528.923,714.276 527,725L500,725.126L473,725C471.077,714.276 469.399,703.023 469,689C473.569,665.663 475.354,629.484 488.199,630L511.801,630ZM654.037,499.052L647,506L647,514L653,517L652,534L643,542L643,550L650,552L647,570L638,579L638,588L644,591L644,612L637,621L637,628L643,630L643,654L637,664L637,673L652,670L641,692C626.399,694.615 611.428,696.583 591,689L615,686L615,551L639,517L639,484L648,475L654,479L654.037,499.052ZM345.963,499.052L353,506L353,514L347,517L348,534L357,542L357,550L350,552L353,570L362,579L362,588L356,591L356,612L363,621L363,628L357,630L357,654L363,664L363,673L348,670L359,692C373.601,694.615 388.572,696.583 409,689L385,686L385,551L361,517L361,484L352,475L346,479L345.963,499.052ZM635.796,485.726C628.016,488.409 619.253,491.155 609,494L609,517L586,552L586,688L612,684L612,550L636,516L635.796,485.726ZM364.204,485.726C371.984,488.409 380.747,491.155 391,494L391,517L414,552L414,688L388,684L388,550L364,516L364.204,485.726ZM582,658L582,553L578,555.5C579.001,620.829 561.353,657.398 534,679L534,682C546.545,672.424 559.03,662.823 571,653C574.289,654.914 577.934,656.595 582,658ZM418,658L418,553L422,555.5C420.999,620.829 438.647,657.398 466,679L466,682C453.455,672.424 440.97,662.823 429,653C425.711,654.914 422.066,656.595 418,658ZM500,544.553L563,563L576,556C573.189,617.728 558.677,657.391 533,676C529.717,660.75 529.732,641.116 523.454,630C522.318,627.988 520.181,626.859 518,626L500,622L482,626C479.819,626.859 477.682,627.988 476.546,630C470.268,641.116 470.283,660.75 467,676C441.323,657.391 426.811,617.728 424,556L437,563L500,544.553ZM331.917,621.256L360,625L360,620L333,617C333.099,605.667 332.772,594.333 332,583L359,585L359,578L329.5,576C326.238,565.833 324.267,555.667 323,545.5L354,547L354,541.5L321.5,539.5C319.882,530.511 319.751,520.202 319.5,510L351,511.5L351,506L319.5,504.5C320.207,491.593 321.922,481.486 323.5,471L351.187,474L351.187,468.8L322,466C311.939,494.998 313.755,524.841 320,555C320,555 326.333,578 328,589C329.601,599.567 329.148,612.563 330,621C329.179,635.036 328.146,649.029 327,663L360,668L360,663L332,658C331.211,645.751 331.135,633.503 331.917,621.256ZM668.083,621.256L640,625L640,620L667,617C666.901,605.667 667.228,594.333 668,583L641,585L641,578L670.5,576C673.762,565.833 675.733,555.667 677,545.5L646,547L646,541.5L678.5,539.5C680.118,530.511 680.249,520.202 680.5,510L649,511.5L649,506L680.5,504.5C679.793,491.593 678.078,481.486 676.5,471L648.813,474L648.813,468.8L678,466C688.061,494.998 686.245,524.841 680,555C680,555 673.667,578 672,589C670.399,599.567 670.852,612.563 670,621C670.821,635.036 671.854,649.029 673,663L640,668L640,663L668,658C668.789,645.751 668.865,633.503 668.083,621.256ZM350,430L344,466L321,463C314.864,460.326 306.417,529.659 320,565C324.355,576.331 326.536,591.895 326.565,607C326.623,636.827 325.328,663.304 324,661C316.824,656.348 312.016,650.109 310,642C297.668,575.766 296.24,513.708 314,459C323.61,447.665 335.768,438.108 350,430ZM650,430L656,466L679,463C685.136,460.326 693.583,529.659 680,565C675.645,576.331 673.464,591.895 673.435,607C673.377,636.827 674.672,663.304 676,661C683.176,656.348 687.984,650.109 690,642C702.332,575.766 703.76,513.708 686,459C676.39,447.665 664.232,438.108 650,430ZM521.5,597L521.5,592L500,588L478.5,592L478.5,597L500,593L521.5,597ZM522,575.5L522,571L500,566L478,571L478,575.5L500,571L522,575.5ZM500,510L512,509L531,520L573,527L607,513L607,515L590,543L558,559L500,542L442,559L410,543L393,515L393,513L427,527L469,520L488,509L500,510ZM586.776,499C568.669,502.493 550.334,505.928 538,506.5L556.5,517.5L587,505L586.776,499ZM413.224,499C431.331,502.493 449.666,505.928 462,506.5L443.5,517.5L413,505L413.224,499ZM500,480L556.5,436.5L556,434L624.009,372.807C635.399,391.41 641.403,410.183 646,429C648.258,440.964 650.277,452.962 652,465C646.955,470.811 641.722,476.745 636,483C596.617,497.324 550.2,504.567 500,508L498.824,507.919C449.076,504.453 403.075,497.213 364,483C358.278,476.745 353.045,470.811 348,465C349.723,452.962 351.742,440.964 354,429C358.597,410.183 364.601,391.41 375.991,372.807L444,434L443.5,436.5L500,480ZM500,473.266L450,434L475,344.547L470.5,344.5L469.5,347.5L466.5,346.5L475,280L525,280L533.5,346.5L530.5,347.5L529.5,344.5L525,344.547L550,434L500,473.266ZM623,440C633.246,433.217 635.205,411.577 620,403C612.779,398.926 600.762,414.832 601.993,426C603.289,437.746 617.351,443.74 623,440ZM377,440C366.754,433.217 364.795,411.577 380,403C387.221,398.926 399.238,414.832 398.007,426C396.711,437.746 382.649,443.74 377,440ZM444.562,431.765L271,275C270.259,270.971 270.943,268.058 274,267L462,375L444.562,431.765ZM555.438,431.765L729,275C729.741,270.971 729.057,268.058 726,267L538,375L555.438,431.765ZM472.5,276.5L458.186,362L467,348L469,348.5L463.5,366.5L457.311,363.401L447,358L463,265C475.227,264.19 487.581,263.951 500,264C512.419,263.951 524.773,264.19 537,265L553,358L542.689,363.401L536.5,366.5L531,348.5L533,348L541.814,362L527.5,276.5L472.5,276.5ZM588,338C575.753,328.165 562.883,321.699 549.5,318L556.5,355L588,338ZM412,338C424.247,328.165 437.117,321.699 450.5,318L443.5,355L412,338Z" style="fill:white;"/>
    </g>
</svg>
