<?xml version="1.0" encoding="UTF-8" standalone="no"?>
<!DOCTYPE svg PUBLIC "-//W3C//DTD SVG 1.1//EN" "http://www.w3.org/Graphics/SVG/1.1/DTD/svg11.dtd">
<svg width="100%" height="100%" viewBox="0 0 1000 1000" version="1.1" xmlns="http://www.w3.org/2000/svg" xmlns:xlink="http://www.w3.org/1999/xlink" xml:space="preserve" xmlns:serif="http://www.serif.com/" style="fill-rule:evenodd;clip-rule:evenodd;stroke-linejoin:round;stroke-miterlimit:2;">
    <g transform="matrix(2.67235,0,0,2.67235,-829.496,-773.656)">
        <path d="M562.378,422.525C562.372,422.971 562.363,423.423 562.351,423.881L565,426L562.148,428.218C561.924,431.622 561.543,435.224 561.011,439C556.789,438.778 553.369,439.581 550.711,441.307C548.318,442.86 546.516,445.168 545.318,448.226C546.096,444.889 546.287,442.077 545.827,440C544.835,435.526 535.329,437.463 518,452C515.62,466.473 515.645,481.218 516,496C530.086,481.52 540.284,464.293 544.25,452.031C544.256,452.262 544.326,452.489 544.455,452.686C547.483,457.299 551.714,459.524 557.03,459.586C540.849,527.119 489.892,625.38 430,644.995C453.974,620.443 475.23,593.282 480,541C494.895,539.255 506.429,531.788 507.061,510C504.207,506.842 500.754,505.19 497.242,503.687C496.516,482.232 494.159,461.518 486.805,443.069C495.606,428.711 521.939,411.418 522.974,411.973L523,412C522.995,411.989 522.986,411.98 522.974,411.973C517.566,406.308 548.411,391.722 554.796,396.587C559.111,399.875 561.5,406.506 562.181,415.565C563.63,416.783 564.513,418.67 564.5,420C564.496,420.387 564.092,420.721 563.527,421L561,421L562.031,421.883C562.076,422.097 562.178,422.311 562.378,422.525ZM444.09,436.557L444.783,432.927C450.845,406.788 450.767,386.171 450,366.174C478.447,318.207 503.456,303.442 535,309.5C553.354,313.024 556.605,332.206 554.016,350C553.833,348.996 550.776,354.116 546.104,362.511L552.643,376.937L536.135,380.705C531.096,389.955 525.488,400.239 520,410C473.734,437.397 458.025,494.398 445,554C440.965,522.156 438.892,490.418 439.97,458.854C451.29,452.652 460.687,444.96 466.072,438.497C467.841,436.374 469.179,434.365 470.041,432.571C473.567,427.515 477.16,422.737 481,419C480.435,412.209 480.254,406.06 481,400C476.182,403.84 471.836,408.483 468,414C467.955,414.489 467.911,414.979 467.869,415.47C460.226,422.842 452.249,429.811 444.09,436.557ZM557.09,450.864C557.662,451.071 558.244,451.275 558.836,451.477C558.459,453.316 558.053,455.184 557.619,457.076C557.087,457.084 556.568,457.069 556.062,457.028L557.09,450.864ZM554.886,450.039C555.414,450.244 555.949,450.446 556.492,450.646L555.439,456.965C554.298,456.825 553.222,456.553 552.216,456.144L554.886,450.039ZM441.99,453.576L442.822,454.574C442.02,455.058 441.206,455.534 440.381,456.003L440.571,455.006C441.044,454.529 441.516,454.053 441.99,453.576ZM553.338,449.425C553.657,449.554 553.979,449.683 554.304,449.811L551.643,455.893C551.133,455.653 550.641,455.375 550.169,455.059L553.338,449.425ZM551.953,448.85C552.219,448.963 552.486,449.075 552.756,449.186L549.657,454.695C548.895,454.123 548.187,453.445 547.534,452.657L551.953,448.85ZM445.187,450.366L445.187,453.109C444.587,453.492 443.978,453.871 443.362,454.247L442.432,453.131C443.35,452.207 444.269,451.286 445.187,450.366ZM447.494,448.066L448.374,450.999C447.538,451.574 446.684,452.144 445.813,452.707L445.813,449.742L447.494,448.066ZM551.048,448.53L547.021,452C546.96,451.916 546.899,451.832 546.839,451.747C547.162,450.389 547.585,449.159 548.112,448.062L551.048,448.53ZM444.606,439.102L444.262,448.051C443.287,449.025 442.313,450.001 441.339,450.98L443.419,440.078C443.815,439.753 444.21,439.428 444.606,439.102ZM449.175,446.397L450.344,449.611C449.874,449.95 449.397,450.288 448.914,450.625L447.996,447.566L449.175,446.397ZM451.107,444.49L452.654,447.894C452.071,448.34 451.477,448.785 450.87,449.228L449.664,445.913L451.107,444.49ZM544,432C534.611,433.262 524.88,439.537 515,448C523.824,420.848 538.727,411.581 543,413.343C545.331,414.305 545.838,420.067 544,432ZM550.583,444.582L552.208,447.781L551.843,447.813L548.517,447.282C549.097,446.247 549.784,445.346 550.583,444.582ZM551.229,444.015C551.498,443.797 551.78,443.594 552.072,443.404C552.771,442.95 553.532,442.576 554.356,442.282L555.065,447.603C554.411,447.626 553.758,447.662 553.107,447.709L551.229,444.015ZM558.726,441.48C559.342,441.453 559.981,441.454 560.644,441.483C560.329,443.511 559.974,445.584 559.578,447.698C559.173,447.663 558.769,447.637 558.365,447.618L558.726,441.48ZM558.098,441.518L557.74,447.593C557.056,447.572 556.373,447.571 555.693,447.585L554.96,442.084C555.926,441.794 556.971,441.606 558.098,441.518ZM453.046,442.588L454.024,446.825C453.74,447.051 453.452,447.277 453.162,447.502L451.581,444.024C452.069,443.544 452.557,443.066 453.046,442.588ZM446.542,437.502L448.806,443.54C447.507,444.821 446.209,446.109 444.913,447.402L445.252,438.569C445.682,438.214 446.112,437.859 446.542,437.502ZM454.827,440.853L456.706,444.611C456.016,445.204 455.302,445.798 454.565,446.392L453.569,442.077C453.988,441.668 454.407,441.261 454.827,440.853ZM457.027,438.726L457.98,443.494C457.722,443.725 457.46,443.957 457.194,444.189L455.298,440.396L456.27,439.456L457.027,438.726ZM448.636,435.753L450.816,441.565C450.308,442.062 449.801,442.56 449.294,443.06L447.051,437.078L448.061,436.235L448.636,435.753ZM458.649,437.17L460.359,441.274C459.771,441.847 459.158,442.425 458.52,443.007L457.561,438.213L458.649,437.17ZM450.939,433.81L453.876,438.583C453.018,439.414 452.161,440.249 451.304,441.087L449.144,435.327L450.366,434.295L450.939,433.81ZM460.935,434.998L461.568,440.063C461.33,440.308 461.087,440.554 460.839,440.801L459.134,436.708C459.733,436.136 460.334,435.566 460.935,434.998ZM462.235,433.773L463.924,437.488C463.365,438.142 462.764,438.808 462.125,439.483L461.498,434.467C461.744,434.235 461.99,434.004 462.235,433.773ZM453.641,431.499L455.396,437.115L454.336,438.138L451.421,433.4C452.163,432.768 452.903,432.134 453.641,431.499ZM465.687,430.563L465.687,435.289C465.282,435.833 464.842,436.391 464.37,436.959L462.717,433.322C463.706,432.396 464.696,431.476 465.687,430.563ZM456.737,428.806L458.428,434.217C457.584,435.018 456.741,435.823 455.9,436.631L454.157,431.054C455.02,430.307 455.88,429.558 456.737,428.806ZM560.5,430C558.656,431.064 557.128,432.055 556.2,432.91C555.273,433.765 554.945,434.483 555.5,435C558.002,437.331 559.895,432.95 560.5,430ZM466.313,429.988C466.58,429.742 466.846,429.498 467.113,429.255C467.076,430.609 467.048,431.968 467.029,433.333C466.808,433.688 466.569,434.051 466.313,434.421L466.313,429.988ZM459.001,426.803L460.04,432.692C459.671,433.04 459.302,433.388 458.933,433.738L457.25,428.354C457.835,427.838 458.419,427.321 459.001,426.803ZM462.284,423.844L462.623,430.276C461.942,430.908 461.263,431.543 460.584,432.18L459.549,426.313C460.464,425.495 461.376,424.672 462.284,423.844ZM465.084,421.265L464.765,428.298C464.249,428.771 463.734,429.246 463.219,429.723L462.881,423.298C463.618,422.624 464.353,421.946 465.084,421.265ZM554,423C552.217,424.085 551.165,424.927 550.773,425.701C550.381,426.476 550.647,427.183 551.5,428C553.208,429.636 554.7,425.401 554,423ZM465.738,420.655C466.362,420.071 466.985,419.484 467.605,418.895C467.441,421.262 467.314,423.652 467.219,426.062C466.618,426.606 466.017,427.152 465.417,427.7L465.738,420.655ZM500,392C495.106,401.18 491.177,411.246 488,422C487.762,414 487.574,406 488,398C492.082,395.348 496.052,393.59 500,392ZM522.344,385.963C517.061,393.224 512.476,400.603 508,408C508.818,401.948 509.808,395.913 512,390C515.382,388.352 518.815,386.936 522.344,385.963ZM453.234,394.989C453.203,397.184 454.254,399.238 455.883,401.218C457.512,403.198 459.719,405.104 462,407C459.644,400.597 457.148,394.787 453.234,394.989ZM527.585,366.977C527.316,351.045 523.679,343.395 516.249,345.076C506.994,347.17 485.076,357.405 470,396.815C490.087,383.084 509.536,372.057 527.585,366.977Z" style="fill:white;"/>
    </g>
</svg>
