<?xml version="1.0" encoding="UTF-8" standalone="no"?>
<!DOCTYPE svg PUBLIC "-//W3C//DTD SVG 1.1//EN" "http://www.w3.org/Graphics/SVG/1.1/DTD/svg11.dtd">
<svg width="100%" height="100%" viewBox="0 0 1000 1000" version="1.1" xmlns="http://www.w3.org/2000/svg" xmlns:xlink="http://www.w3.org/1999/xlink" xml:space="preserve" xmlns:serif="http://www.serif.com/" style="fill-rule:evenodd;clip-rule:evenodd;stroke-linejoin:round;stroke-miterlimit:2;">
    <g transform="matrix(4.26305,0,0,4.26305,-2619.5,-1956.74)">
        <path d="M751.715,666.784C755.041,671.096 756.768,676.317 755.611,677C746.728,682.244 721.344,683.716 722.692,679C723.382,676.585 736,674.197 736,669C735.484,650.852 734.333,634.76 732,622.5C724.297,623.604 716.471,616 713,616L696.5,616C692.553,616 690.861,614.821 690.861,611.5C690.861,609.003 692.897,607.5 696.5,607.5L713.5,607.5C715.56,607.5 716.095,602.072 722.5,599.5C718.903,597.231 716.225,595.551 714.981,592.5C712.349,586.047 716.624,572.177 719,561C717.062,559.035 716.746,556.33 720,552C721.345,541.06 723.62,531.218 726,521.5C723.949,522.717 721.959,524.273 720,526C722.341,520.063 725.256,514.283 730,509C732.11,508.556 734.115,507.58 736,506L736,502C730.457,501.602 725.487,497.635 725.878,492C725.971,490.659 726.587,489.198 728,487.584L723,487C724.375,472.332 734.165,470.629 740.5,470.734C744.903,470.808 753.332,472.305 755,485C755.412,488.135 755.187,492.091 755,496C754.758,501.051 749.568,501.569 744.512,501.477L744.512,505C746.584,506.755 749.313,512.069 753,522.579C751.598,522.465 750.272,522.632 749,523L749,542C748.152,554.838 757.312,577.155 760,595L757,595.429L757,597C769.397,598.131 772.817,605.284 772.641,613C772.466,620.716 766.661,631.64 744,622C747.021,636.34 749.38,651.546 751.715,666.784Z" style="fill:white;"/>
    </g>
</svg>
