<?xml version="1.0" encoding="UTF-8" standalone="no"?>
<!DOCTYPE svg PUBLIC "-//W3C//DTD SVG 1.1//EN" "http://www.w3.org/Graphics/SVG/1.1/DTD/svg11.dtd">
<svg width="100%" height="100%" viewBox="0 0 1000 1000" version="1.1" xmlns="http://www.w3.org/2000/svg" xmlns:xlink="http://www.w3.org/1999/xlink" xml:space="preserve" xmlns:serif="http://www.serif.com/" style="fill-rule:evenodd;clip-rule:evenodd;stroke-linejoin:round;stroke-miterlimit:2;">
    <g transform="matrix(0.995979,0,0,0.995979,2.01052,2.01052)">
        <path d="M659.016,661.079L418.88,831.063L355.246,741.169L717.98,484.402L781.613,574.297L770.573,582.112L831.974,668.852C895.555,754.757 855.521,850.88 766.665,951.817L727.592,896.618C649.377,944.406 585.128,949.903 523.961,946.068L462.56,859.327L568.339,784.45C624.259,837.472 688.753,793.439 695.762,729.762C697.83,710.968 680.51,688.284 659.016,661.079ZM323.72,633.502L518.777,335.513L607.691,402.422L440.886,661.609L352.624,724.086L323.72,633.502ZM704.317,475.135L501.633,618.608L632.845,421.351L704.317,475.135ZM493.346,316.375L312.502,598.346L268.678,461.006L406.251,250.835L493.346,316.375ZM381.102,231.91L257.213,425.076L222.262,315.543L311.36,179.429L381.102,231.91ZM286.563,160.769L210.646,279.138L184.177,196.187L233.499,120.837L286.563,160.769ZM208.879,102.31L172.381,159.217L136.951,48.183L208.879,102.31Z" style="fill:white;"/>
    </g>
</svg>
