<?xml version="1.0" encoding="UTF-8" standalone="no"?>
<!DOCTYPE svg PUBLIC "-//W3C//DTD SVG 1.1//EN" "http://www.w3.org/Graphics/SVG/1.1/DTD/svg11.dtd">
<svg width="100%" height="100%" viewBox="0 0 1000 1000" version="1.1" xmlns="http://www.w3.org/2000/svg" xmlns:xlink="http://www.w3.org/1999/xlink" xml:space="preserve" xmlns:serif="http://www.serif.com/" style="fill-rule:evenodd;clip-rule:evenodd;stroke-linejoin:round;stroke-miterlimit:2;">
    <g transform="matrix(3.78191,0,0,3.78191,-1058.35,-740.261)">
        <path d="M397.729,277.892C397.5,275.241 398.248,272.311 399.386,269.597C400.6,266.703 401.431,263.545 401.258,260.052C401.091,256.701 401.884,253.273 403.151,250.313C404.47,247.229 405.153,244.112 404.966,241.064C404.697,236.689 405.902,232.903 407.015,230.554C407.99,228.497 408.624,225.796 408.477,223.056C408.126,216.489 410.94,209.948 411.096,209.592L411.17,209.45C411.232,209.35 411.31,209.262 411.398,209.19C411.487,209.118 411.589,209.061 411.7,209.021L411.773,208.997C411.845,208.977 411.919,208.964 411.995,208.96L412.054,208.958L412.113,208.96C412.189,208.964 412.263,208.977 412.335,208.997L412.409,209.021C412.52,209.061 412.621,209.118 412.71,209.19C412.799,209.262 412.876,209.35 412.939,209.45L413.013,209.592C413.168,209.948 415.982,216.489 415.631,223.056C415.484,225.796 416.118,228.497 417.093,230.554C418.206,232.903 419.412,236.689 419.143,241.064C418.955,244.112 419.638,247.229 420.958,250.313C422.224,253.273 423.017,256.701 422.85,260.052C422.677,263.545 423.508,266.703 424.722,269.597C425.86,272.311 426.608,275.24 426.379,277.892L427.251,278.149L428.453,278.532L429.372,278.847L430.213,279.152L431.428,279.622L432.599,280.11L433.167,280.358L434.328,280.892L435.462,281.447L436.858,282.178L437.311,282.432C439.024,280.391 441.628,278.845 444.356,277.73C447.26,276.542 450.081,274.896 452.428,272.303C454.68,269.816 457.664,267.953 460.653,266.756C463.767,265.508 466.454,263.787 468.477,261.499C471.38,258.215 474.91,256.39 477.358,255.516C479.501,254.751 481.86,253.289 483.694,251.248C488.089,246.357 494.703,243.721 495.065,243.579L495.218,243.531C495.333,243.504 495.449,243.498 495.563,243.51C495.677,243.521 495.79,243.552 495.896,243.602L495.965,243.637C496.03,243.674 496.092,243.718 496.148,243.768L496.191,243.809L496.232,243.852C496.282,243.908 496.326,243.97 496.363,244.035L496.398,244.104C496.448,244.21 496.479,244.323 496.49,244.437C496.502,244.551 496.496,244.667 496.469,244.782L496.421,244.935C496.279,245.297 493.643,251.911 488.752,256.306C486.711,258.14 485.249,260.499 484.484,262.642C483.61,265.09 481.785,268.62 478.501,271.523C476.213,273.546 474.492,276.233 473.244,279.347C472.047,282.336 470.184,285.32 467.697,287.572C465.104,289.919 463.458,292.74 462.27,295.644C461.155,298.371 459.611,300.974 457.57,302.687C459.478,306.113 461.009,309.776 462.108,313.621C464.76,313.392 467.689,314.14 470.403,315.278C473.297,316.492 476.455,317.323 479.948,317.15C483.299,316.983 486.727,317.776 489.687,319.042C492.771,320.362 495.888,321.045 498.936,320.857C503.311,320.588 507.097,321.794 509.446,322.907C511.503,323.882 514.204,324.516 516.944,324.369C523.511,324.018 530.052,326.832 530.408,326.987L530.55,327.061C530.65,327.124 530.738,327.201 530.81,327.29C530.882,327.379 530.939,327.48 530.979,327.591L531.003,327.665C531.023,327.737 531.036,327.811 531.04,327.887L531.042,327.946L531.04,328.005C531.036,328.081 531.023,328.155 531.003,328.227L530.979,328.3C530.939,328.411 530.882,328.513 530.81,328.602C530.738,328.69 530.65,328.768 530.55,328.83L530.408,328.904C530.052,329.06 523.511,331.874 516.944,331.523C514.204,331.376 511.503,332.01 509.446,332.985C507.097,334.098 503.311,335.303 498.936,335.034C495.888,334.847 492.771,335.53 489.687,336.849C486.727,338.116 483.299,338.909 479.948,338.742C476.455,338.569 473.297,339.4 470.403,340.614C467.689,341.752 464.76,342.5 462.109,342.271C461.009,346.116 459.478,349.78 457.571,353.205C459.611,354.918 461.155,357.521 462.27,360.247C463.458,363.152 465.104,365.973 467.697,368.32C470.184,370.572 472.047,373.556 473.244,376.545C474.492,379.658 476.213,382.345 478.501,384.368C481.785,387.272 483.61,390.802 484.484,393.249C485.249,395.393 486.711,397.751 488.752,399.585C493.643,403.98 496.279,410.595 496.421,410.957L496.469,411.11C496.496,411.225 496.502,411.341 496.49,411.455C496.479,411.569 496.448,411.681 496.398,411.788L496.363,411.856C496.326,411.922 496.282,411.983 496.232,412.04L496.191,412.083L496.148,412.123C496.092,412.174 496.03,412.218 495.965,412.254L495.896,412.289C495.79,412.34 495.677,412.37 495.563,412.382C495.449,412.394 495.333,412.388 495.218,412.361L495.065,412.312C494.703,412.171 488.089,409.535 483.694,404.644C481.86,402.603 479.501,401.141 477.358,400.375C474.91,399.501 471.38,397.677 468.477,394.393C466.454,392.105 463.767,390.384 460.653,389.136C457.664,387.939 454.68,386.075 452.428,383.588C450.081,380.996 447.26,379.35 444.356,378.162C441.629,377.047 439.026,375.503 437.313,373.463C433.888,375.37 430.224,376.901 426.379,378C426.608,380.652 425.86,383.581 424.722,386.295C423.508,389.189 422.677,392.347 422.85,395.84C423.017,399.191 422.224,402.619 420.958,405.578C419.638,408.662 418.955,411.779 419.143,414.828C419.412,419.203 418.206,422.989 417.093,425.338C416.118,427.395 415.484,430.096 415.631,432.836C415.982,439.402 413.168,445.944 413.013,446.3L412.939,446.442C412.876,446.542 412.799,446.629 412.71,446.701C412.621,446.773 412.52,446.831 412.409,446.871L412.335,446.895C412.263,446.915 412.189,446.928 412.113,446.932L412.054,446.933L411.995,446.932C411.919,446.928 411.845,446.915 411.773,446.895L411.7,446.871C411.589,446.831 411.487,446.773 411.398,446.701C411.31,446.629 411.232,446.542 411.17,446.442L411.096,446.3C410.94,445.944 408.126,439.402 408.477,432.836C408.624,430.096 407.99,427.395 407.015,425.338C405.902,422.989 404.697,419.203 404.966,414.828C405.153,411.779 404.47,408.662 403.151,405.578C401.884,402.619 401.091,399.191 401.258,395.84C401.431,392.347 400.6,389.189 399.386,386.295C398.248,383.581 397.5,380.652 397.729,378C393.884,376.901 390.22,375.369 386.795,373.463C385.082,375.503 382.479,377.047 379.753,378.162C376.848,379.35 374.027,380.996 371.68,383.588C369.428,386.075 366.444,387.939 363.455,389.136C360.342,390.384 357.655,392.105 355.632,394.393C352.728,397.677 349.198,399.501 346.751,400.375C344.607,401.141 342.249,402.603 340.415,404.644C336.02,409.535 329.405,412.171 329.043,412.312L328.89,412.361C328.775,412.388 328.659,412.394 328.545,412.382C328.431,412.37 328.319,412.34 328.212,412.289L328.144,412.254C328.078,412.218 328.017,412.174 327.96,412.123L327.917,412.083L327.877,412.04C327.826,411.983 327.782,411.922 327.746,411.856L327.711,411.788C327.66,411.681 327.63,411.569 327.618,411.455C327.606,411.341 327.612,411.225 327.639,411.11L327.688,410.957C327.829,410.595 330.465,403.98 335.356,399.585C337.397,397.751 338.859,395.393 339.625,393.249C340.499,390.802 342.323,387.272 345.607,384.368C347.895,382.345 349.616,379.658 350.864,376.545C352.061,373.556 353.925,370.572 356.412,368.32C359.004,365.973 360.65,363.152 361.838,360.247C362.953,357.521 364.497,354.918 366.537,353.205C364.63,349.779 363.099,346.116 362,342.271C359.348,342.5 356.419,341.752 353.705,340.614C350.811,339.4 347.653,338.569 344.16,338.742C340.809,338.909 337.381,338.116 334.422,336.849C331.338,335.53 328.221,334.847 325.172,335.034C320.797,335.303 317.011,334.098 314.662,332.985C312.605,332.01 309.904,331.376 307.164,331.523C300.598,331.874 294.056,329.06 293.7,328.904L293.558,328.83C293.458,328.768 293.371,328.69 293.299,328.602C293.227,328.513 293.169,328.411 293.129,328.3L293.105,328.227C293.085,328.155 293.072,328.081 293.068,328.005L293.067,327.946L293.068,327.887C293.072,327.811 293.085,327.737 293.105,327.665L293.129,327.591C293.169,327.48 293.227,327.379 293.299,327.29C293.371,327.201 293.458,327.124 293.558,327.061L293.7,326.987C294.056,326.832 300.598,324.018 307.164,324.369C309.904,324.516 312.605,323.882 314.662,322.907C317.011,321.794 320.797,320.588 325.172,320.857C328.221,321.045 331.338,320.362 334.422,319.042C337.381,317.776 340.809,316.983 344.16,317.15C347.653,317.323 350.811,316.492 353.705,315.278C356.419,314.14 359.348,313.392 362,313.621C362.71,311.136 363.602,308.726 364.658,306.407L364.658,306.407C365.145,305.338 365.667,304.288 366.224,303.257L366.539,302.688C364.498,300.975 362.953,298.372 361.838,295.644C360.65,292.74 359.004,289.919 356.412,287.572C353.925,285.32 352.061,282.336 350.864,279.347C349.616,276.233 347.895,273.546 345.607,271.523C342.323,268.62 340.499,265.09 339.625,262.642C338.859,260.499 337.397,258.14 335.356,256.306C330.465,251.911 327.829,245.297 327.688,244.935L327.639,244.782C327.612,244.667 327.606,244.551 327.618,244.437C327.63,244.323 327.66,244.21 327.711,244.104L327.746,244.035C327.782,243.97 327.826,243.908 327.877,243.852L327.917,243.809L327.96,243.768C328.017,243.718 328.078,243.674 328.144,243.637L328.212,243.602C328.319,243.552 328.431,243.521 328.545,243.51C328.659,243.498 328.775,243.504 328.89,243.531L329.043,243.579C329.405,243.721 336.02,246.357 340.415,251.248C342.249,253.289 344.607,254.751 346.751,255.516C349.198,256.39 352.728,258.215 355.632,261.499C357.655,263.787 360.342,265.508 363.455,266.756C366.444,267.953 369.428,269.816 371.68,272.303C374.027,274.896 376.848,276.542 379.753,277.73C382.48,278.845 385.083,280.389 386.795,282.43L387.546,282.019L388.38,281.582L389.223,281.16L390.074,280.753L390.944,280.357L391.828,279.973L393.11,279.452L394.188,279.044L395.086,278.725L395.991,278.422L396.903,278.135L397.729,277.892ZM424.327,378.542C424.435,380.782 423.754,383.217 422.801,385.489C421.472,388.657 420.58,392.119 420.77,395.943C420.92,398.977 420.189,402.079 419.042,404.759C417.588,408.157 416.857,411.596 417.063,414.956C417.306,418.906 416.215,422.325 415.21,424.446C414.105,426.778 413.384,429.841 413.551,432.947C413.659,434.978 413.441,437.007 413.096,438.821L413.096,379.99C416.956,379.914 420.714,379.417 424.327,378.542ZM375.998,365.476C378.719,368.091 381.724,370.414 384.963,372.394C383.455,374.057 381.248,375.3 378.964,376.234C375.784,377.534 372.706,379.351 370.135,382.19C368.097,384.442 365.387,386.118 362.68,387.202C359.249,388.577 356.3,390.492 354.071,393.013C351.449,395.978 348.261,397.624 346.05,398.413C343.62,399.281 340.944,400.937 338.865,403.251C337.506,404.764 335.917,406.044 334.39,407.083L375.998,365.476ZM456.502,355.037C458.165,356.545 459.408,358.752 460.342,361.036C461.643,364.216 463.46,367.294 466.298,369.865C468.55,371.903 470.226,374.613 471.311,377.32C472.685,380.751 474.6,383.7 477.121,385.929C480.087,388.551 481.732,391.739 482.522,393.95C483.389,396.38 485.045,399.056 487.359,401.135C488.872,402.494 490.152,404.083 491.191,405.61L449.584,364.002C452.199,361.281 454.523,358.276 456.502,355.037ZM446.507,327.864L447.054,327.946C447.054,347.263 431.371,362.946 412.054,362.946C392.737,362.946 377.054,347.263 377.054,327.946L377.054,327.946C379.906,327.481 382.757,327.076 385.609,326.732C385.59,327.133 385.581,327.538 385.581,327.946C385.581,342.557 397.443,354.419 412.054,354.419C426.665,354.419 438.527,342.557 438.527,327.946C438.527,327.562 438.519,327.179 438.503,326.801C441.169,327.111 443.838,327.466 446.507,327.864ZM360.01,328.988C360.086,332.848 360.583,336.606 361.458,340.219C359.218,340.327 356.783,339.645 354.511,338.692C351.343,337.363 347.881,336.472 344.057,336.661C341.023,336.812 337.921,336.081 335.241,334.934C331.843,333.48 328.404,332.748 325.044,332.955C321.094,333.198 317.675,332.107 315.554,331.102C313.222,329.997 310.159,329.276 307.053,329.442C305.022,329.551 302.993,329.332 301.179,328.988L360.01,328.988ZM417.459,325.277C417.857,326.082 418.081,326.988 418.081,327.946C418.081,331.272 415.381,333.973 412.054,333.973C408.728,333.973 406.027,331.272 406.027,327.946C406.027,326.975 406.257,326.058 406.666,325.245C410.264,325.168 413.861,325.18 417.459,325.277ZM464.098,326.904C464.022,323.044 463.525,319.285 462.65,315.673C464.89,315.565 467.326,316.246 469.597,317.199C472.766,318.528 476.227,319.42 480.052,319.23C483.086,319.08 486.187,319.811 488.867,320.958C492.266,322.412 495.705,323.143 499.064,322.937C503.015,322.694 506.433,323.785 508.554,324.79C510.886,325.895 513.949,326.616 517.056,326.449C519.087,326.341 521.115,326.559 522.93,326.904L464.098,326.904ZM374.529,291.894L373.952,292.494L373.32,293.185L372.595,294.01L371.991,294.724L371.4,295.449L370.822,296.184L370.347,296.809L369.791,297.566L369.249,298.333L368.72,299.111L368.131,300.014L367.634,300.809L367.607,300.855C365.943,299.347 364.7,297.14 363.766,294.856C362.466,291.676 360.649,288.597 357.81,286.027C355.558,283.988 353.882,281.278 352.798,278.572C351.423,275.141 349.508,272.192 346.987,269.963C344.022,267.341 342.376,264.152 341.587,261.942C340.719,259.512 339.063,256.836 336.749,254.757C335.236,253.397 333.956,251.809 332.917,250.282L374.529,291.894ZM448.109,290.418L447.92,290.234L447.035,289.411L446.582,289.004L445.637,288.185L444.981,287.64L444.184,287L443.191,286.239L442.141,285.474L441.143,284.783L440.628,284.439L439.572,283.762L439.144,283.499C440.653,281.835 442.86,280.592 445.144,279.658C448.324,278.357 451.403,276.54 453.973,273.702C456.012,271.45 458.722,269.774 461.428,268.689C464.859,267.315 467.808,265.4 470.037,262.879C472.659,259.913 475.848,258.268 478.058,257.478C480.488,256.611 483.164,254.955 485.243,252.641C486.603,251.128 488.191,249.848 489.718,248.809L448.109,290.418ZM411.012,275.902L410.05,275.93L409.054,275.977L408.064,276.043L407.079,276.127L406.099,276.229L404.913,276.378L403.519,276.589L402.547,276.76L401.576,276.949L400.622,277.153L399.781,277.35C399.673,275.11 400.355,272.674 401.308,270.403C402.637,267.234 403.528,263.773 403.339,259.948C403.188,256.914 403.919,253.813 405.066,251.133C406.52,247.734 407.252,244.295 407.045,240.936C406.802,236.985 407.893,233.567 408.898,231.446C410.003,229.114 410.724,226.051 410.558,222.944C410.449,220.913 410.668,218.885 411.012,217.07L411.012,275.902Z" style="fill:white;"/>
    </g>
</svg>
