<?xml version="1.0" encoding="UTF-8" standalone="no"?>
<!DOCTYPE svg PUBLIC "-//W3C//DTD SVG 1.1//EN" "http://www.w3.org/Graphics/SVG/1.1/DTD/svg11.dtd">
<svg width="100%" height="100%" viewBox="0 0 1000 1000" version="1.1" xmlns="http://www.w3.org/2000/svg" xmlns:xlink="http://www.w3.org/1999/xlink" xml:space="preserve" xmlns:serif="http://www.serif.com/" style="fill-rule:evenodd;clip-rule:evenodd;stroke-linejoin:round;stroke-miterlimit:2;">
    <g transform="matrix(44.7271,0,0,44.7271,-27447.3,-18990.8)">
        <path d="M624,443.957C624,443.957 630.454,444.988 632.912,444.312C634.351,443.917 635.199,442.427 634.803,440.988C634.408,439.549 632.919,438.702 631.479,439.097C629.021,439.773 624,443.957 624,443.957ZM621.339,439.904C621.339,439.904 627.085,436.79 628.623,434.756C629.523,433.565 629.287,431.868 628.097,430.968C626.906,430.068 625.209,430.303 624.309,431.494C622.771,433.528 621.339,439.904 621.339,439.904ZM616.051,438.077C616.051,438.077 619.741,432.683 620.181,430.171C620.438,428.701 619.454,427.298 617.983,427.041C616.513,426.783 615.111,427.768 614.854,429.238C614.414,431.75 616.051,438.077 616.051,438.077Z" style="fill:white;"/>
    </g>
</svg>
