<?xml version="1.0" encoding="UTF-8" standalone="no"?>
<!DOCTYPE svg PUBLIC "-//W3C//DTD SVG 1.1//EN" "http://www.w3.org/Graphics/SVG/1.1/DTD/svg11.dtd">
<svg width="100%" height="100%" viewBox="0 0 1000 1000" version="1.1" xmlns="http://www.w3.org/2000/svg" xmlns:xlink="http://www.w3.org/1999/xlink" xml:space="preserve" xmlns:serif="http://www.serif.com/" style="fill-rule:evenodd;clip-rule:evenodd;stroke-linejoin:round;stroke-miterlimit:2;">
    <g transform="matrix(2.20236,0,0,2.20236,-455.103,-526.297)">
        <path d="M349.533,455.904C361.305,420.536 394.694,395 434,395C473.237,395 506.578,420.446 518.405,455.719C539.778,449.021 561.108,441.406 582.347,432C594.618,452.02 606.079,469.631 617.843,484.299C635.054,505.757 639.947,522.37 637.347,526L609.347,507L585.347,525C573.529,516.039 569.077,517.77 566.347,522C563.087,520.492 559.924,519.548 557.347,522C552.18,524.858 546.458,527.375 538.347,525C540.017,520.246 535.601,515.247 534.347,510C526.216,492.461 522.717,513.099 517.51,514.821C504.964,548.768 472.289,573 434,573C395.804,573 363.195,548.886 350.582,515.068C347.061,507.618 345.878,492.436 333,510C329.728,515.898 329.508,520.778 329,525C317.955,531.674 313.426,527.463 310,522C307.422,519.548 304.26,520.492 301,522C298.269,517.77 293.817,516.039 282,525L258,507L230,526C227.4,522.37 232.292,505.757 249.503,484.299C261.268,469.631 272.729,452.02 285,432C306.433,441.492 327.959,449.16 349.533,455.904ZM434,411C474.29,411 507,443.71 507,484C507,524.29 474.29,557 434,557C393.71,557 361,524.29 361,484C361,443.71 393.71,411 434,411ZM453,519C448.342,522.012 445.684,523.905 441.026,524.773C439.358,525.084 424.151,525.266 422.215,524.992C416.81,524.226 417.405,522.179 412,519C417.431,523.817 416.85,527.911 422.255,529.07C424.191,529.485 439.683,529.161 441.494,528.613C446.006,527.246 448.509,523.417 453,519ZM472,468L465,468C459.63,470.836 460.638,473.867 465,477L472,477C474.953,474.034 475.427,471.039 472,468ZM390,464C389.959,467.842 391.169,471.525 394,475C402.914,475.036 403.955,471.243 403.831,469.59C403.676,467.53 403.611,461.687 390,464ZM404,446C404.072,448.692 403.072,451.025 401,453C395.273,453.97 389.61,453.911 384,453C383.143,451.728 383.195,450.391 384,449C386.395,448.445 388.42,447.474 390,446C394.981,445.312 399.725,445.143 404,446ZM475,448C472.137,447.823 469.289,447.905 466.455,448.24C463.622,448.576 460.804,449.164 458,450C462.294,439.912 467.703,437.474 475,448ZM434,359C454.973,359 472,365.049 472,372.5C472,379.951 454.973,386 434,386C413.027,386 396,379.951 396,372.5C396,365.049 413.027,359 434,359ZM434,363.903C447.356,363.903 458.2,367.755 458.2,372.5C458.2,377.245 447.356,381.097 434,381.097C420.644,381.097 409.8,377.245 409.8,372.5C409.8,367.755 420.644,363.903 434,363.903Z" style="fill:white;"/>
    </g>
</svg>
