<?xml version="1.0" encoding="UTF-8" standalone="no"?>
<!DOCTYPE svg PUBLIC "-//W3C//DTD SVG 1.1//EN" "http://www.w3.org/Graphics/SVG/1.1/DTD/svg11.dtd">
<svg width="100%" height="100%" viewBox="0 0 1000 1000" version="1.1" xmlns="http://www.w3.org/2000/svg" xmlns:xlink="http://www.w3.org/1999/xlink" xml:space="preserve" xmlns:serif="http://www.serif.com/" style="fill-rule:evenodd;clip-rule:evenodd;stroke-linejoin:round;stroke-miterlimit:2;">
    <g transform="matrix(1.04498,0,0,1.04498,11.3822,-42.6734)">
        <path d="M467.584,88.87C705.254,88.87 898.212,281.745 898.212,519.313C898.212,756.88 705.254,949.755 467.584,949.755C229.914,949.755 36.955,756.88 36.955,519.313C36.955,281.745 229.914,88.87 467.584,88.87ZM219.162,589.848C240.011,615.995 259.845,632.64 270.525,650.412C301.629,702.165 315.656,719.178 335.061,799.997C344.996,841.371 344.922,874.765 359.95,900.043C372.131,920.532 396.845,926.875 418.896,930.056C520.494,936.468 572.209,926.093 610.193,911.096C602.021,902.267 608.006,866.866 597.887,819.759C580.653,739.538 515.1,682.612 452.58,641.553C380.284,594.075 293.92,577.289 219.162,589.848ZM727.03,854.57C746.716,755.53 758.869,653.354 758.804,546.094C829.942,480.803 850.987,406.644 839.215,326.676C938.049,552.244 860.303,710.565 727.03,854.57ZM224.344,852.02C177.264,814.814 135,770.169 104.384,707.554C123.455,700.544 139.256,643.193 153.164,556.712C112.138,576.995 77.617,572.127 62.05,493.971C60.812,414.492 92.579,346.715 132.712,281.904C95.114,374.645 88.731,464.736 188.182,545.839C191.197,720.863 202.358,830.133 224.344,852.02C225.428,852.877 226.509,853.725 227.593,854.57C226.485,853.924 225.402,853.074 224.344,852.02ZM190.656,596.213C194.791,592.507 198.954,589.929 203.447,588.719C208.199,587.439 213.319,587.689 219.162,589.752C214.61,588.219 194.697,593.922 190.656,596.213C190.418,596.426 190.179,596.644 189.941,596.865C189.921,596.708 190.177,596.484 190.656,596.213ZM198.802,493.971C200.189,508.311 204.117,521.667 219.162,532.671C400.215,445.828 576.544,461.643 758.456,543.7C603.668,450.166 423.848,431.117 219.162,516.337C207.93,510.459 202.681,502.786 198.802,493.971ZM198.802,493.971C165.881,422.963 167.383,365.203 187.14,314.194C225.64,214.794 355.389,142.905 444.635,137.98C489.589,135.5 540.078,138.381 579.581,143.732C686.211,158.177 740.805,188.391 747.461,217.045C754.877,248.97 736.859,276.477 653.706,293.793C617.063,298.03 577.913,306.324 537.738,305.744C437.247,304.291 384.756,312.815 354.182,326.453C340.395,332.602 327.819,338.709 316.108,344.282C266.349,367.959 226.079,413.292 198.802,493.971Z" style="fill:white;"/>
    </g>
</svg>
