<?xml version="1.0" encoding="UTF-8" standalone="no"?>
<!DOCTYPE svg PUBLIC "-//W3C//DTD SVG 1.1//EN" "http://www.w3.org/Graphics/SVG/1.1/DTD/svg11.dtd">
<svg width="100%" height="100%" viewBox="0 0 1000 1000" version="1.1" xmlns="http://www.w3.org/2000/svg" xmlns:xlink="http://www.w3.org/1999/xlink" xml:space="preserve" xmlns:serif="http://www.serif.com/" style="fill-rule:evenodd;clip-rule:evenodd;stroke-linejoin:round;stroke-miterlimit:2;">
    <g transform="matrix(8.57143,0,0,8.57143,-3785.71,-3785.71)">
        <path d="M455.64,528.075C450.486,519.956 447.5,510.324 447.5,500C447.5,471.024 471.024,447.5 500,447.5C528.976,447.5 552.5,471.024 552.5,500C552.5,510.324 549.514,519.956 544.36,528.075C521.373,523.028 508.399,504.956 511.625,486L511.932,485.59C513.098,490.413 517.446,494 522.625,494C528.696,494 533.625,489.071 533.625,483C533.625,476.929 528.696,472 522.625,472C522.454,472 522.285,472.004 522.116,472.012L522.125,472C507.66,471.782 499.642,496.554 503.227,512C505.503,521.809 512.395,534.411 526.098,545.555C518.411,549.972 509.498,552.5 500,552.5C490.502,552.5 481.589,549.972 473.902,545.555C487.605,534.411 494.497,521.809 496.773,512C500.358,496.554 492.34,471.782 477.875,472L477.884,472.012C477.715,472.004 477.546,472 477.375,472C471.304,472 466.375,476.929 466.375,483C466.375,489.071 471.304,494 477.375,494C482.554,494 486.902,490.413 488.068,485.59L488.375,486C491.601,504.956 478.627,523.028 455.64,528.075ZM500,455.001L500.125,455C506.058,455 510.875,459.705 510.875,465.5C510.875,471.295 506.058,476 500.125,476L499.875,476C493.942,476 489.125,471.295 489.125,465.5C489.125,459.705 493.942,455 499.875,455L500,455.001Z" style="fill:white;"/>
    </g>
</svg>
