<?xml version="1.0" encoding="UTF-8" standalone="no"?>
<!DOCTYPE svg PUBLIC "-//W3C//DTD SVG 1.1//EN" "http://www.w3.org/Graphics/SVG/1.1/DTD/svg11.dtd">
<svg width="100%" height="100%" viewBox="0 0 1000 1000" version="1.1" xmlns="http://www.w3.org/2000/svg" xmlns:xlink="http://www.w3.org/1999/xlink" xml:space="preserve" xmlns:serif="http://www.serif.com/" style="fill-rule:evenodd;clip-rule:evenodd;stroke-linejoin:round;stroke-miterlimit:2;">
    <g transform="matrix(9.96587,0,0,9.96587,-5371.43,-5841.06)">
        <path d="M622.946,657.828C619.202,656.301 616.367,654.683 614.438,652.982C610.899,649.862 610.278,646.477 612.34,642.968C614.82,638.948 618.111,637.448 621.878,638.332C623.307,638.668 624.809,639.359 626.358,640.406C627.545,641.209 628.764,642.224 630.005,643.446C630.372,625.292 622.03,619.114 610.263,617.646C594.999,615.741 578.143,647.1 593.735,662.59C600.828,669.636 616.905,669.574 622.946,657.828ZM609,615C598.38,617.411 591.55,624.557 588.18,632C584.596,639.915 582.891,650.597 590,662C563.568,656.553 545.615,644.644 547,618L544,615L549,615C569.058,601.031 589.051,602.819 609,615ZM625.798,658.125C634.621,659.832 636.794,656.067 631.327,645.987C627.811,642.371 624.517,640.234 621.59,639.643C618.394,638.996 615.685,640.338 613.66,643.765C611.894,646.612 612.488,649.358 615.311,652.026C617.518,654.111 621.003,656.152 625.798,658.125Z" style="fill:white;"/>
    </g>
</svg>
