<?xml version="1.0" encoding="UTF-8" standalone="no"?>
<!DOCTYPE svg PUBLIC "-//W3C//DTD SVG 1.1//EN" "http://www.w3.org/Graphics/SVG/1.1/DTD/svg11.dtd">
<svg width="100%" height="100%" viewBox="0 0 1000 1000" version="1.1" xmlns="http://www.w3.org/2000/svg" xmlns:xlink="http://www.w3.org/1999/xlink" xml:space="preserve" xmlns:serif="http://www.serif.com/" style="fill-rule:evenodd;clip-rule:evenodd;stroke-linejoin:round;stroke-miterlimit:2;">
    <g transform="matrix(4.06205,0,0,4.06205,-1526.97,-1331.39)">
        <path d="M461,539C457.797,544.713 457.599,551.142 459,558C451.286,552.675 444.865,546.086 441,537C440.117,530.474 442.023,524.61 445,519C447.895,525.667 451.352,532.333 461,539ZM502.017,550.5C501.753,550.491 501.527,550.689 501.502,550.952C501.477,551.215 501.661,551.453 501.922,551.494L520.922,554.494C521.179,554.534 521.424,554.371 521.486,554.118C521.547,553.866 521.405,553.608 521.158,553.526C518.777,552.733 516.093,552.048 512.949,551.524C509.816,551.003 506.224,550.643 502.017,550.5ZM484.888,553.083C484.626,553.144 484.458,553.401 484.509,553.666C484.56,553.93 484.812,554.107 485.078,554.065L495.078,552.494C495.344,552.452 495.529,552.207 495.496,551.94C495.464,551.672 495.225,551.479 494.957,551.502C493.265,551.649 491.58,551.853 489.902,552.116C488.224,552.379 486.553,552.701 484.888,553.083ZM562.074,536.953C558.32,542.677 552.99,547.936 547,553C548.137,532.786 545.715,518.603 540,510L555,499C562.11,507.28 564.599,519.81 562.074,536.953ZM499.252,354.058C472.756,354.058 443.857,369.193 419.513,394.165C413.269,400.57 408.704,408.75 405.229,418.218L402,417.5L401.5,418.5L404.275,420.928C401.027,430.552 398.794,441.4 397,453L404,450C402.096,477.485 411.639,505.222 423,533L414,534L407.026,521L403,521C385.514,480.395 384.449,446.892 395.051,418.5L399,418.5L399,417L395.927,416.232C398.166,410.623 400.863,405.219 403.981,400C420.565,372.239 468.327,343.705 500,343.705C531.673,343.705 577.5,372.348 594.019,400C597.137,405.219 599.834,410.623 602.073,416.232L599,417L599,418.5L602.949,418.5C613.551,446.892 612.486,480.395 595,521L590.974,521L584,534L575,533C586.361,505.222 595.904,477.485 594,450L601,453C599.206,441.4 596.973,430.552 593.725,420.928L596.5,418.5L596,417.5L592.771,418.218C589.296,408.75 584.731,400.57 578.487,394.165C553.952,368.996 525.748,354.058 499.252,354.058ZM498.473,523.838C498.391,523.597 498.14,523.456 497.891,523.512C497.642,523.568 497.475,523.802 497.503,524.055L498.503,533.055C498.532,533.314 498.754,533.507 499.015,533.5C499.275,533.492 499.486,533.286 499.499,533.026C499.592,531.255 499.555,529.605 499.387,528.079C499.217,526.539 498.913,525.125 498.473,523.838ZM579,454L592,454C592.584,479.459 584.133,500.346 573,530L566,527C575.497,499.512 581.077,479.559 579,454ZM419,454L406,454C405.416,479.459 413.867,500.346 425,530L432,527C422.503,499.512 416.923,479.559 419,454ZM499.473,520.001C488.454,520.06 481.068,522.16 475,525L475,505C481.401,502.584 489.013,500.534 500,499.5L500.513,499.549C511.224,500.598 518.699,502.622 525,505L525,525C518.836,522.115 511.312,519.994 500,520L499.473,520.001ZM495.5,496L495.5,499C495.5,499.276 495.724,499.5 496,499.5C496.276,499.5 496.5,499.276 496.5,499L496.5,496C496.5,495.724 496.276,495.5 496,495.5C495.724,495.5 495.5,495.724 495.5,496Z" style="fill:white;"/>
    </g>
</svg>
