<?xml version="1.0" encoding="UTF-8" standalone="no"?>
<!DOCTYPE svg PUBLIC "-//W3C//DTD SVG 1.1//EN" "http://www.w3.org/Graphics/SVG/1.1/DTD/svg11.dtd">
<svg width="100%" height="100%" viewBox="0 0 1000 1000" version="1.1" xmlns="http://www.w3.org/2000/svg" xmlns:xlink="http://www.w3.org/1999/xlink" xml:space="preserve" xmlns:serif="http://www.serif.com/" style="fill-rule:evenodd;clip-rule:evenodd;stroke-linejoin:round;stroke-miterlimit:2;">
    <g transform="matrix(2.87923,0,0,2.87923,-982.393,-895.588)">
        <path d="M490.815,435.597C483.411,420.801 478.75,399.683 478.75,377.354C478.75,335.673 494.993,328.417 515,328.417C535.007,328.417 551.25,335.673 551.25,377.354C551.25,399.683 546.589,420.801 539.185,435.597C541.442,436.705 543.612,437.963 545.684,439.36C554.861,425.734 570.631,411.406 589.679,400.409C625.776,379.568 640.182,390.007 650.185,407.334C660.189,424.66 662.026,442.355 625.929,463.196C606.769,474.258 586.349,480.763 569.911,481.84C569.97,482.888 570,483.941 570,485C570,486.229 569.96,487.449 569.88,488.658C586.326,489.73 606.758,496.236 625.929,507.304C662.026,528.145 660.189,545.84 650.185,563.166C640.182,580.493 625.776,590.932 589.679,570.091C570.472,559.002 554.598,544.527 545.453,530.795C543.523,532.082 541.508,533.25 539.417,534.288C546.686,549.057 551.25,569.967 551.25,592.063C551.25,633.744 535.007,641 515,641C494.993,641 478.75,633.744 478.75,592.063C478.75,569.967 483.314,549.057 490.583,534.288C488.419,533.214 486.337,532.001 484.349,530.662C475.223,544.429 459.307,558.964 440.035,570.091C403.938,590.932 389.532,580.493 379.529,563.166C369.525,545.84 367.688,528.145 403.785,507.304C423.068,496.171 443.626,489.654 460.119,488.64C460.04,487.437 460,486.223 460,485C460,483.947 460.03,482.9 460.089,481.858C443.603,480.839 423.057,474.323 403.785,463.196C367.688,442.355 369.525,424.66 379.529,407.334C389.532,390.007 403.938,379.568 440.035,400.409C459.145,411.442 474.955,425.826 484.119,439.493C486.249,438.044 488.486,436.74 490.815,435.597ZM515,610.417C525.003,610.417 533.125,602.028 533.125,581.188C533.125,560.347 525.003,544.845 515,544.845C504.997,544.845 496.875,560.347 496.875,581.188C496.875,602.028 504.997,610.417 515,610.417ZM406.015,547.875C401.013,539.212 404.217,527.984 422.265,517.563C440.314,507.143 457.8,506.426 462.801,515.089C467.803,523.752 458.439,538.537 440.39,548.957C422.342,559.377 411.016,556.538 406.015,547.875ZM623.699,547.875C628.701,539.212 625.497,527.984 607.448,517.563C589.4,507.143 571.914,506.426 566.913,515.089C561.911,523.752 571.275,538.537 589.323,548.957C607.372,559.377 618.697,556.538 623.699,547.875ZM515,457.5C530.178,457.5 542.5,469.822 542.5,485C542.5,500.178 530.178,512.5 515,512.5C499.822,512.5 487.5,500.178 487.5,485C487.5,469.822 499.822,457.5 515,457.5ZM406.015,422.625C401.013,431.288 404.217,442.516 422.265,452.937C440.314,463.357 457.8,464.074 462.801,455.411C467.803,446.748 458.439,431.963 440.39,421.543C422.342,411.123 411.016,413.962 406.015,422.625ZM623.699,422.625C628.701,431.288 625.497,442.516 607.448,452.937C589.4,463.357 571.914,464.074 566.913,455.411C561.911,446.748 571.275,431.963 589.323,421.543C607.372,411.123 618.697,413.962 623.699,422.625ZM515,359C525.003,359 533.125,367.389 533.125,388.229C533.125,409.07 525.003,424.571 515,424.571C504.997,424.571 496.875,409.07 496.875,388.229C496.875,367.389 504.997,359 515,359Z" style="fill:white;"/>
    </g>
</svg>
