<?xml version="1.0" encoding="UTF-8" standalone="no"?>
<!DOCTYPE svg PUBLIC "-//W3C//DTD SVG 1.1//EN" "http://www.w3.org/Graphics/SVG/1.1/DTD/svg11.dtd">
<svg width="100%" height="100%" viewBox="0 0 1000 1000" version="1.1" xmlns="http://www.w3.org/2000/svg" xmlns:xlink="http://www.w3.org/1999/xlink" xml:space="preserve" xmlns:serif="http://www.serif.com/" style="fill-rule:evenodd;clip-rule:evenodd;stroke-linejoin:round;stroke-miterlimit:2;">
    <g transform="matrix(1.86314,0,0,1.86314,-712.035,-164.089)">
        <path d="M471.049,176.951C471.049,176.951 542.995,109.923 548.801,115.204C576.063,140 678.33,256.139 681.071,268.376C684.082,281.815 684.639,294.306 682.121,305.754C667.881,370.495 822.664,479.567 890.473,548.292C898.514,556.441 873.397,579.299 873.397,579.299C873.397,579.299 850.539,604.416 842.39,596.375C773.665,528.566 664.593,373.783 599.852,388.023C588.404,390.541 575.914,389.983 562.475,386.973C550.238,384.232 434.098,281.964 409.302,254.702C404.022,248.897 471.049,176.951 471.049,176.951ZM844.853,550.755C840.857,554.751 840.857,561.24 844.853,565.237C848.85,569.233 855.339,569.233 859.335,565.237C863.331,561.24 863.331,554.751 859.335,550.755C855.339,546.759 848.85,546.759 844.853,550.755ZM530.437,306.233L583.647,359.443C583.269,360.056 582.814,360.636 582.282,361.168L568.898,374.552C565.204,378.246 559.207,378.246 555.513,374.552L515.328,334.367C511.634,330.673 511.634,324.676 515.328,320.982L528.712,307.598C529.244,307.066 529.824,306.611 530.437,306.233ZM601.64,333.665L581.094,354.211L448.039,221.155C440.638,213.886 461.148,193.305 468.585,200.61L601.64,333.665ZM624.974,310.331L491.919,177.275C488.273,173.563 481.277,176.873 476.132,182.034C470.971,187.179 467.661,194.174 471.374,197.821L604.429,330.876L624.974,310.331ZM627.763,307.542L648.309,286.996L515.254,153.941C507.984,146.54 487.404,167.05 494.708,174.486L627.763,307.542ZM600.331,236.339L653.541,289.549C654.155,289.171 654.734,288.715 655.266,288.184L668.65,274.799C672.344,271.106 672.344,265.109 668.65,261.415L628.465,221.23C624.771,217.536 618.774,217.536 615.081,221.23L601.696,234.614C601.165,235.146 600.709,235.725 600.331,236.339Z" style="fill:white;"/>
    </g>
</svg>
