<?xml version="1.0" encoding="UTF-8" standalone="no"?>
<!DOCTYPE svg PUBLIC "-//W3C//DTD SVG 1.1//EN" "http://www.w3.org/Graphics/SVG/1.1/DTD/svg11.dtd">
<svg width="100%" height="100%" viewBox="0 0 1000 1000" version="1.1" xmlns="http://www.w3.org/2000/svg" xmlns:xlink="http://www.w3.org/1999/xlink" xml:space="preserve" xmlns:serif="http://www.serif.com/" style="fill-rule:evenodd;clip-rule:evenodd;stroke-linejoin:round;stroke-miterlimit:2;">
    <g transform="matrix(4.69976,0,0,4.69976,-1818.16,-1911.6)">
        <path d="M413.88,519.248C410.142,513.785 410.389,508.355 420,503C417.192,500.022 415.852,496.164 416.176,492C416.667,485.701 422.931,480.95 429.756,473C443.977,456.438 438.203,447.225 433,440C430.629,436.707 427.583,434.449 428,431C439.292,431.231 463.417,442.269 452.173,473C448.964,481.77 448.04,485.38 450,487.308C453.441,490.691 462.772,487.595 465.45,490C471.83,495.73 468.404,506.946 464.923,518.346C475.571,526.074 482.5,538.617 482.5,552.766C482.5,576.222 463.456,595.265 440,595.265C416.544,595.265 397.5,576.222 397.5,552.766C397.5,539.154 403.913,527.028 413.88,519.248ZM525.636,515.739C525.743,509.564 529.254,502.894 540,495.173C534.169,489.121 531.578,484.17 531.287,480C530.433,467.774 548.26,454.013 564.375,455.434C548.266,461.754 545.262,482.992 560,482.708C572.078,482.475 573.536,501.809 568.166,516.204C580.636,523.615 588.999,537.221 588.999,552.766C588.999,576.222 569.956,595.265 546.5,595.265C523.043,595.265 504,576.222 504,552.766C504,536.89 512.723,523.037 525.636,515.739ZM440.5,529C452.366,529 462,538.634 462,550.5C462,562.366 452.366,572 440.5,572C428.634,572 419,562.366 419,550.5C419,538.634 428.634,529 440.5,529ZM547,536.5C555.141,536.5 561.75,543.109 561.75,551.25C561.75,559.391 555.141,566 547,566C538.859,566 532.25,559.391 532.25,551.25C532.25,543.109 538.859,536.5 547,536.5ZM440.5,539.25C446.709,539.25 451.75,544.291 451.75,550.5C451.75,556.709 446.709,561.75 440.5,561.75C434.291,561.75 429.25,556.709 429.25,550.5C429.25,544.291 434.291,539.25 440.5,539.25Z" style="fill:white;"/>
    </g>
</svg>
