<?xml version="1.0" encoding="UTF-8" standalone="no"?>
<!DOCTYPE svg PUBLIC "-//W3C//DTD SVG 1.1//EN" "http://www.w3.org/Graphics/SVG/1.1/DTD/svg11.dtd">
<svg width="100%" height="100%" viewBox="0 0 1000 1000" version="1.1" xmlns="http://www.w3.org/2000/svg" xmlns:xlink="http://www.w3.org/1999/xlink" xml:space="preserve" xmlns:serif="http://www.serif.com/" style="fill-rule:evenodd;clip-rule:evenodd;stroke-linejoin:round;stroke-miterlimit:2;">
    <g transform="matrix(18.8385,0,0,18.8385,-9279.39,-6709.08)">
        <path d="M514,389C500.497,394.956 495.819,389.638 495.282,385C494.423,377.565 504.383,372.323 523,370.511C524.446,370.37 542.708,369.195 543,376.5C543.162,380.548 539.811,385.518 534.786,385.587C537.385,391.563 532.929,391.833 529.5,389.5C527.581,388.195 523.915,391.934 523,395C523,395 524.795,388.048 522,387.5C520.341,387.175 514.761,388.778 514.07,388.979L514,389ZM516.411,380.111L519.513,377.671C519.824,377.43 520.28,377.477 520.535,377.776C520.552,377.797 520.568,377.818 520.582,377.839L525.854,374.047C526.212,373.763 526.224,373.401 526.112,373.026C526.082,372.923 526.021,372.868 526.186,372.809C526.323,372.761 526.34,372.806 526.384,372.904C526.611,373.41 526.56,373.94 526.085,374.32L519.09,379.821L527.754,378.883C527.92,378.865 528.073,378.958 528.14,379.102L532.091,378.674L531.701,375.073C531.693,374.998 531.747,374.931 531.822,374.923L532.093,374.894C532.168,374.885 532.235,374.94 532.243,375.014L532.701,379.246C532.714,379.362 532.63,379.467 532.514,379.479L528.25,379.94L528.254,379.974C528.276,380.182 528.126,380.369 527.917,380.392L516.84,381.59L509.893,387.053C509.583,387.297 509.123,387.251 508.868,386.951C508.614,386.651 508.657,386.211 508.964,385.966L514.16,381.88L506.799,382.677C506.591,382.699 506.404,382.548 506.381,382.34L506.3,381.586C506.277,381.378 506.428,381.191 506.636,381.168L516.411,380.111Z" style="fill:white;"/>
    </g>
</svg>
