<?xml version="1.0" encoding="UTF-8" standalone="no"?>
<!DOCTYPE svg PUBLIC "-//W3C//DTD SVG 1.1//EN" "http://www.w3.org/Graphics/SVG/1.1/DTD/svg11.dtd">
<svg width="100%" height="100%" viewBox="0 0 1000 1000" version="1.1" xmlns="http://www.w3.org/2000/svg" xmlns:xlink="http://www.w3.org/1999/xlink" xml:space="preserve" xmlns:serif="http://www.serif.com/" style="fill-rule:evenodd;clip-rule:evenodd;stroke-linejoin:round;stroke-miterlimit:2;">
    <g transform="matrix(6.45059,0,0,6.45059,-2710.32,-2734.48)">
        <path d="M514.774,509C503.815,527.051 503.719,543.486 524.272,556.846L529.424,546.924L540.156,551.487C544.349,531.735 536.705,517.212 514.774,509ZM450.672,526.34C438.009,525.581 429.252,530.139 427.918,544.804L434.634,544.758L435.219,551.739C446.888,548.428 452.46,540.294 450.672,526.34ZM507.439,507.765C486.885,502.921 471.225,507.909 464.87,531.585L475.899,533.418L474.875,545.034C494.956,542.919 506.406,531.161 507.439,507.765ZM519,502.892C532.782,518.893 548.382,524.062 567.44,508.644L559.595,500.678L567.251,491.882C549.762,481.79 533.587,484.572 519,502.892ZM505.157,498.803C503.412,477.758 493.83,464.406 469.349,465.677L471.014,476.733L459.649,479.349C467.867,497.794 482.587,505.05 505.157,498.803ZM513.561,495.292C533.037,487.129 542.775,473.89 534,451L524,456L518,446C502.997,459.515 500.645,475.757 513.561,495.292Z" style="fill:white;"/>
    </g>
</svg>
