<?xml version="1.0" encoding="UTF-8" standalone="no"?>
<!DOCTYPE svg PUBLIC "-//W3C//DTD SVG 1.1//EN" "http://www.w3.org/Graphics/SVG/1.1/DTD/svg11.dtd">
<svg width="100%" height="100%" viewBox="0 0 1000 1000" version="1.1" xmlns="http://www.w3.org/2000/svg" xmlns:xlink="http://www.w3.org/1999/xlink" xml:space="preserve" xmlns:serif="http://www.serif.com/" style="fill-rule:evenodd;clip-rule:evenodd;stroke-linejoin:round;stroke-miterlimit:2;">
    <g transform="matrix(3.54012,0,0,3.54012,-760.38,-1470.08)">
        <path d="M409.387,462.481C409.352,462.366 409.3,462.253 409.233,462.147C409.196,462.09 409.156,462.036 409.113,461.986C408.532,460.055 407.848,458.122 407.052,456.19C407.753,455.651 408.428,455.106 409.073,454.557C409.411,454.268 409.586,453.832 409.542,453.389C409.003,448.082 407.525,442.773 405.244,437.465C405.106,437.143 404.847,436.887 404.523,436.751C380.956,426.875 357.649,428.532 334.769,432.493C311.49,436.524 284.851,443.834 266.086,461.001C265.842,461.224 265.688,461.53 265.653,461.859C265.117,466.983 265.318,472.407 266.681,478.305C266.792,478.788 267.158,479.171 267.635,479.304C268.62,479.579 269.623,479.84 270.645,480.087C270.623,482.14 270.794,484.192 271.103,486.245C259.39,505.344 255.508,530.249 256.706,555.408C258.511,593.301 271.827,631.744 286.871,651.621C297.922,666.221 309.193,674.921 321.324,679.489C339.444,686.312 359.534,683.895 383.861,677.892C414.206,670.404 440.552,659.806 449.729,626.414C460.04,588.9 462.027,516.5 409.387,462.481ZM407.754,464.687C389.733,475.893 368.219,482.297 347.342,486.33C323.506,490.934 295.639,493.929 272.971,488.387C261.867,506.96 258.256,531.006 259.412,555.279C261.188,592.571 274.226,630.425 289.031,649.987C299.706,664.092 310.559,672.541 322.279,676.954C339.935,683.602 359.507,681.112 383.212,675.262C412.568,668.018 438.239,658.001 447.118,625.697C457.245,588.851 459.24,517.801 407.754,464.687ZM423.127,646.485C408.261,643.314 388.501,645.363 371.709,649.055C356.306,652.443 336.563,657.903 326.319,666.797C322.206,664.97 318.66,662.639 315.892,659.762C293.153,636.209 274.694,602.446 267.891,569.53C262.866,545.217 264.193,521.358 274.941,502.386C275.034,502.224 274.978,502.015 274.815,501.922C274.652,501.828 274.444,501.884 274.35,502.047C263.259,521.094 261.594,545.199 266.413,569.827C272.937,603.17 291.344,637.449 314.108,661.468C319.619,667.264 328.044,671.105 337.96,673.08C349.854,675.449 363.901,675.162 377.476,672.52C391.053,669.877 404.156,664.873 414.186,657.901C422.223,652.315 428.289,645.451 431.135,637.528C438.679,616.426 447.147,586.306 441.965,553.654C438.136,529.527 426.853,504.015 402.24,479.759C402.107,479.626 401.892,479.627 401.759,479.76C401.626,479.893 401.627,480.108 401.76,480.241C425.877,504.559 436.78,529.954 440.331,553.905C445.123,586.229 436.508,615.915 428.865,636.704C427.585,640.202 425.628,643.465 423.127,646.485ZM421.031,648.829C406.692,646.177 388.14,648.215 372.291,651.701C357.829,654.881 339.389,659.829 329.168,667.95C332.059,669.015 335.18,669.861 338.468,670.503C350.063,672.765 363.735,672.433 376.961,669.869C390.17,667.309 402.938,662.527 412.726,655.79C415.821,653.66 418.618,651.338 421.031,648.829ZM381.515,564.364C372.619,562.364 367.124,565.117 367.395,575.924C358.977,579.802 359.624,585.765 363.526,592.478C361.518,601.247 366.868,603.216 372.829,604.62C375.884,613.268 380.353,614.942 385.995,610.839C393.09,615.387 396.711,612.203 399.168,606.428C405.997,606.651 407.324,602.052 407.736,596.651C415.373,591.172 416.419,585.29 408.691,578.872C408.33,569.431 403.949,565.303 395.154,567.009C391.915,561.595 387.763,559.349 381.515,564.364ZM337.555,533.756C333.195,525.747 327.504,523.429 319.555,530.756C311.09,526.981 307.032,531.398 304.555,538.756C296.636,543.026 298.682,548.347 301.555,553.756C297.065,561.753 298.751,566.218 305.555,567.756C306.811,576.089 311.593,576.714 317.555,574.756C321.888,580.039 326.222,578.006 330.555,574.756C339.709,576.889 344.822,573.799 344.555,563.756C351.417,557.262 351.635,551.247 344.555,545.756C346.492,539.753 345.445,535.149 337.555,533.756ZM406.391,462.345C405.927,460.842 405.397,459.34 404.798,457.838C394.041,465.333 377.889,471.737 359.797,476.257C331.206,483.399 297.78,485.853 273.353,480.698C273.367,482.398 273.52,484.097 273.774,485.795C296.06,491.199 323.418,488.192 346.829,483.67C367.411,479.695 388.634,473.406 406.391,462.345ZM406.769,452.954C396.477,461.457 378.989,468.671 359.141,473.629C329.035,481.15 293.489,483.457 269.145,476.91C268.056,471.829 267.876,467.119 268.296,462.653C286.657,446.086 312.585,439.083 335.231,435.162C357.45,431.315 380.086,429.613 402.969,439.038C404.917,443.677 406.221,448.315 406.769,452.953L406.769,452.954ZM285.054,465.969C285.45,466.357 286.041,466.458 286.539,466.243C302.791,469.074 323.725,467.324 340.235,464.415C360.005,460.931 382.026,453.927 396.801,443.092C397.14,442.843 397.345,442.451 397.354,442.03C397.363,441.609 397.176,441.208 396.848,440.944C392.651,437.571 385.366,435.801 376.835,435.178C364.435,434.273 349.366,435.698 337.794,437.477C325.173,439.417 308.647,443.29 295.39,448.564C286.361,452.156 278.845,456.43 274.956,461.138C274.68,461.472 274.581,461.918 274.688,462.337C274.796,462.757 275.099,463.1 275.501,463.259C278.392,464.404 281.606,465.295 285.054,465.969ZM373.756,452.352C363.309,452.066 349.619,453.232 338.213,455.047C325.994,456.992 311.557,460.712 302.052,464.968C314.678,465.253 328.311,463.766 339.765,461.748C350.953,459.776 362.884,456.67 373.756,452.352ZM384.55,447.451C372.946,444.782 354.029,445.783 335.57,449.027C317.324,452.235 299.51,457.634 289.671,464.017C291.883,464.328 294.17,464.56 296.51,464.72C305.691,459.494 323.264,454.684 337.787,452.372C351.396,450.206 368.203,448.967 379.12,449.94C379.197,449.947 379.272,449.96 379.345,449.979C381.122,449.172 382.86,448.329 384.55,447.451ZM387.987,445.573C389.962,444.44 391.854,443.253 393.649,442.012C389.652,439.601 383.575,438.386 376.638,437.879C364.431,436.988 349.597,438.402 338.206,440.153C325.76,442.067 309.463,445.88 296.391,451.08C288.794,454.102 282.289,457.565 278.364,461.428C280.695,462.226 283.21,462.873 285.863,463.385C295.332,456.168 314.94,449.904 335.101,446.36C355.515,442.772 376.478,441.971 387.987,445.573Z" style="fill:white;"/>
    </g>
</svg>
