<?xml version="1.0" encoding="UTF-8" standalone="no"?>
<!DOCTYPE svg PUBLIC "-//W3C//DTD SVG 1.1//EN" "http://www.w3.org/Graphics/SVG/1.1/DTD/svg11.dtd">
<svg width="100%" height="100%" viewBox="0 0 1000 1000" version="1.1" xmlns="http://www.w3.org/2000/svg" xmlns:xlink="http://www.w3.org/1999/xlink" xml:space="preserve" xmlns:serif="http://www.serif.com/" style="fill-rule:evenodd;clip-rule:evenodd;stroke-linejoin:round;stroke-miterlimit:2;">
    <g transform="matrix(1.00342,0,0,1.00342,-41.8478,9.86313)">
        <path d="M571.867,52.868L550.936,112.389C510.981,106.022 482.314,105.706 471.484,113.064C430.394,140.984 469.518,165.208 545.561,180.785C602.716,216.953 606.17,265.844 582.112,305.767C570.85,324.456 550.57,337.819 518.164,344.226C494.167,349.891 463.083,354.545 441.712,345.482C394.671,325.531 374.011,318.779 371.825,322.503C366.694,331.243 384.308,349.908 438.113,385.669C471.995,359.059 502.071,352.215 529.075,350.666C579.601,347.767 612.001,362.413 636.137,386.312C672.02,421.841 682.138,479.976 668.766,552.987L741.988,627.306C767.758,653.715 769.793,685.011 752.441,707.478C743.055,719.631 723.608,724.543 691.821,720.559C587.23,687.887 549.635,701.155 554.042,731.986C555.197,740.063 564.364,751.119 585.495,764.462C634.746,776.384 693.933,799.254 694.467,863.476C694.626,882.72 685.837,904.415 652.478,929.396C625.971,931.75 603.089,934.121 583.81,935.161C536.197,937.73 512.081,941.646 512.112,913.023C512.119,906.381 517.521,898.264 527.92,888.683C531.071,885.779 540.437,887.794 552.939,888.537C591.629,888.784 613.689,883.466 620.176,873.385C630.404,857.489 623.566,839.337 591.523,828.838C572.754,823.88 552.426,817.32 530.806,809.433C492.189,784.725 477.685,755.984 483.804,720.852C487.636,698.852 497.963,677.268 531.291,657.368C576.173,643.228 617.086,638.959 649.026,656.674C722.537,686.031 724.081,674.287 676.165,631.994L641.174,604.276C588.541,651.059 528.149,656.517 464.962,625.206C417.744,590.803 389.717,537.399 409.061,437.095C385.308,416.209 362.706,394.854 342.637,372.471C317.668,347.504 308.382,319.011 323.772,293.062C329.946,282.653 341.627,275.289 362.788,273.173C367.666,270.883 407.175,279.711 461.868,293.413C493.624,294.976 514.738,291.22 521.95,280.407C529.524,269.052 528.164,251.064 509.622,237.284C493.3,229.374 476.461,223.254 459.26,218.385C410.494,197.79 381.046,170.284 384.805,130.899C389.241,95.67 408.469,66.64 452.124,47.847C492.244,36.228 532.169,37.196 571.867,52.868ZM531.231,403.515C494.978,406.91 469.382,450.641 474.108,501.11C478.834,551.579 512.104,589.797 548.358,586.402C584.611,583.007 610.207,539.276 605.481,488.807C600.755,438.338 567.484,400.12 531.231,403.515ZM534.545,438.898C512.319,440.98 496.627,467.789 499.525,498.729C502.422,529.67 522.819,553.1 545.044,551.018C567.27,548.937 582.961,522.128 580.064,491.187C577.166,460.247 556.77,436.817 534.545,438.898Z" style="fill:white;"/>
    </g>
</svg>
