<?xml version="1.0" encoding="UTF-8" standalone="no"?>
<!DOCTYPE svg PUBLIC "-//W3C//DTD SVG 1.1//EN" "http://www.w3.org/Graphics/SVG/1.1/DTD/svg11.dtd">
<svg width="100%" height="100%" viewBox="0 0 1000 1000" version="1.1" xmlns="http://www.w3.org/2000/svg" xmlns:xlink="http://www.w3.org/1999/xlink" xml:space="preserve" xmlns:serif="http://www.serif.com/" style="fill-rule:evenodd;clip-rule:evenodd;stroke-linejoin:round;stroke-miterlimit:2;">
    <path d="M923.833,415.82C921.755,412.794 919.658,409.799 917.512,406.843C915.744,404.408 913.938,402.012 912.119,399.633C909.376,396.047 906.605,392.501 903.774,389.026C900.606,385.137 897.347,381.352 894.097,377.59C892.377,375.56 889.332,375.302 887.294,377.016C885.252,378.734 884.988,381.786 886.704,383.829C889.802,387.613 892.848,391.488 895.944,395.352C898.714,398.81 901.508,402.27 904.298,405.754C906.152,408.069 908.004,410.392 909.882,412.704C912.222,415.584 914.584,418.449 916.954,421.327L919.238,424.098C929.914,524.684 933.525,638.89 903.362,707.457C893.457,729.975 879.904,747.525 861.641,757.859C843.399,768.181 820.491,771.262 791.962,765.077C790.898,764.847 789.825,765.425 789.432,766.44C773.633,807.245 752.302,841.556 728.08,864.108C710.168,880.786 690.7,891.013 670.738,892.493C650.858,893.966 630.546,886.719 610.862,868.725C599.359,858.21 587.413,844.125 565.563,833.979C565.194,833.807 564.785,833.741 564.381,833.787C554.937,834.866 546.18,833.417 538.116,829.42C537.123,828.928 535.92,829.246 535.301,830.164C525.064,845.329 513.896,856.586 500.326,858.9C486.747,861.217 471.018,854.469 451.645,834.447C451.208,833.995 450.599,833.751 449.971,833.775C411.315,835.246 371.588,834.322 328.982,826.931C328.455,826.84 327.913,826.942 327.455,827.22C298.101,845.067 272.061,850.831 248.664,848.018C239.147,846.874 230.274,843.155 221.985,838.498C209.116,831.268 197.412,820.121 186.646,805.54C186.645,805.539 186.527,804.979 186.527,804.979C184.093,793.321 181.775,781.393 179.614,769.16C176.543,751.772 173.798,733.766 171.379,715.062C168.872,695.683 166.685,675.558 164.999,654.574C164.794,651.92 162.466,649.925 159.805,650.131C157.143,650.336 155.149,652.664 155.354,655.325C156.918,676.485 158.905,696.801 161.394,716.344C163.798,735.223 166.644,753.384 169.838,770.913C171.383,779.391 173.01,787.72 174.725,795.91C150.021,780.145 130.893,758.867 107.335,746.785C84.45,735.049 72.12,717.681 67.346,696.219C70.606,682.276 72.614,668.347 77.584,655.766C81.974,644.657 85.564,633.501 88.475,622.308C92.348,615.367 96.282,608.434 100.307,601.517C107.228,589.623 114.393,577.763 122.003,566.016C122.005,566.014 122.006,566.012 122.007,566.01C122.78,564.808 123.005,563.334 122.625,561.956C120.24,553.304 118.532,544.729 117.067,536.08C114.881,523.181 113.264,510.112 111.143,496.341C112.154,491.657 113.211,486.979 114.339,482.31C117.25,470.262 120.682,458.29 124.773,446.386C127.445,438.613 130.354,430.853 133.674,423.152C134.739,420.712 133.629,417.864 131.19,416.79C128.751,415.716 125.899,416.821 124.819,419.255C121.273,427.149 118.071,435.084 115.271,443.091C111.002,455.295 107.569,467.63 104.709,480.036C103.559,485.027 102.507,490.032 101.559,495.051C100.139,502.579 98.928,510.131 97.865,517.703C95.221,536.55 93.499,555.485 91.802,574.438C91.63,576.114 92.842,577.622 94.52,577.812C96.202,578.003 97.723,576.8 97.927,575.124C100.185,558.737 102.558,542.374 105.386,526.073C105.933,529.987 106.508,533.871 107.145,537.738C108.509,546.012 110.167,554.208 112.356,562.466C105.169,573.781 98.33,585.167 91.827,596.649C91.266,597.639 90.707,598.631 90.151,599.623C84.093,587.194 80.655,568.914 78.739,547.058C78.708,546.713 78.597,546.38 78.414,546.085C56.65,511.026 39.619,470.21 64.678,376.864C72.344,372.632 80.529,369.088 87.988,365.007C96.023,360.611 103.219,355.583 108.197,348.581C116.017,337.579 126.725,327.757 141.099,319.412C149.718,318.115 163.229,316.458 179.425,318.294C192.265,319.749 207.388,322.171 224.324,326.228C224.325,326.228 224.325,326.228 224.326,326.228C237.51,329.378 251.451,333.865 264.648,335.418C275.067,336.644 285.049,336.056 293.991,332.068C293.992,332.068 293.992,332.068 293.992,332.068C307.756,325.921 320.448,323.483 331.796,324.998C344.106,326.64 354.728,333.014 363.315,344.067C363.315,344.067 363.315,344.068 363.316,344.068C366.059,347.593 368.48,351.507 370.754,355.613C374.25,361.927 377.395,368.682 380.687,375.272C370.889,372.313 360.474,370.221 349.789,370.715C337.305,371.291 324.449,375.324 311.792,385.576C310.471,386.625 310.238,388.548 311.276,389.882C312.314,391.216 314.234,391.464 315.575,390.443C327.241,381.737 338.835,378.54 350.003,378.438C362.969,378.319 375.339,382.342 386.557,386.766L387.302,387.058C388.131,387.778 389.179,388.189 390.26,388.239C395.939,390.547 401.282,392.95 406.296,395.474C412.943,398.822 418.991,402.403 424.4,406.408C432.003,412.035 438.344,418.475 443.296,426.224C443.297,426.226 443.298,426.228 443.3,426.23C446.909,431.838 449.814,438.04 452.079,444.896C453.448,449.038 454.588,453.417 455.485,458.053C450.314,456.195 445.17,454.646 440.058,453.399C418.908,448.242 398.354,448.159 378.391,452.572C376.741,452.915 375.669,454.524 375.993,456.182C376.318,457.841 377.92,458.928 379.579,458.621C398.614,455.377 417.95,456.566 437.727,462.211C445.019,464.292 452.364,466.979 459.798,470.264C469.756,474.664 479.875,480.116 490.094,486.81C491.815,489.139 493.883,492.276 496.07,495.681C498.078,498.806 500.178,502.154 502.158,505.355C504.717,513.099 507.79,521.254 511.506,529.927C511.441,533.138 511.629,536.383 512.11,539.651C512.584,542.865 513.34,546.102 514.352,549.352C515.302,552.401 516.462,555.474 517.893,558.534C519.228,561.389 520.781,564.233 522.54,567.078C526.182,572.969 530.669,578.814 535.909,584.74C536.954,586.015 538.856,586.231 540.177,585.199C541.499,584.166 541.749,582.265 540.75,580.927C536.405,574.599 532.879,568.382 530.001,562.317C528.752,559.684 527.646,557.088 526.65,554.522C525.961,552.748 525.326,550.995 524.753,549.253C523.4,545.131 522.462,541.073 521.911,537.064C529.161,536.068 536.57,536.368 544.065,537.359C545.669,538.272 547.334,539.301 549.052,540.451C550.535,541.444 552.057,542.515 553.635,543.632C554.654,544.354 555.695,545.081 556.767,545.825C560.465,548.39 564.355,551.101 568.346,554.167C569.573,555.236 571.452,555.158 572.593,553.96C573.734,552.762 573.72,550.882 572.586,549.701C569.736,546.328 566.994,543.146 564.171,540.251C562.919,538.968 561.666,537.765 560.396,536.634C559.496,535.832 558.583,535.085 557.673,534.373C555.761,532.878 553.871,531.529 552.009,530.366C553.484,526.047 556.066,522.561 559.267,519.544C561.59,518.733 564.044,517.967 566.644,517.248C572.354,515.669 578.757,514.314 585.993,513.247C585.995,513.246 585.997,513.246 585.999,513.246C587.363,513.041 588.581,512.283 589.368,511.151C590.154,510.018 590.439,508.612 590.154,507.263C587.706,495.601 585.905,485.623 584.547,476.757C582.896,465.979 581.909,456.853 581.263,448.338C596.074,433.414 609.696,420.011 622.433,408.656C633.251,399.013 643.422,390.869 653.208,384.62C673.839,371.445 692.6,366.774 711.983,375.024C711.984,375.024 711.985,375.024 711.986,375.025C726.918,381.355 743.421,388.096 760.722,396.257C770.949,401.082 781.456,406.4 792.078,412.435C793.526,413.279 795.415,412.781 796.272,411.312C797.128,409.842 796.631,407.953 795.161,407.097C784.549,400.751 774.019,395.118 763.757,390.001C746.544,381.419 730.096,374.297 715.22,367.615C715.219,367.615 715.218,367.615 715.217,367.614C693.398,357.85 671.888,362.136 648.258,376.738C646.681,377.712 645.095,378.733 643.498,379.799C644.659,378.191 645.833,376.59 647.022,374.996C648.832,372.569 650.675,370.16 652.529,367.747C654.836,364.744 657.161,361.749 659.545,358.77C665.031,351.913 670.733,345.162 676.832,338.583C677.997,337.397 678.004,335.477 676.829,334.276C675.655,333.075 673.737,333.038 672.518,334.182C665.658,340.261 659.097,346.478 652.915,352.988C650.212,355.835 647.588,358.726 645.056,361.688C643.015,364.074 641.048,366.509 639.126,368.971C636.23,372.683 633.439,376.458 630.787,380.313C627.83,384.611 625.059,391.324 622.379,395.774C622.354,395.815 622.33,395.856 622.307,395.897C617.799,399.679 613.191,403.74 608.469,408.054C597.215,418.334 585.326,430.081 572.535,442.879C572.534,442.88 572.533,442.881 572.532,442.882C571.51,443.909 570.981,445.327 571.081,446.772C571.731,456.184 572.745,466.23 574.597,478.284C575.779,485.983 577.308,494.504 579.292,504.211C573.702,505.215 568.613,506.386 563.964,507.713C560.743,508.633 557.73,509.625 554.904,510.681C544.924,505.043 536.421,498.463 529.623,490.788C528.959,490.039 527.876,489.829 526.981,490.276C521.384,493.067 515.139,495.133 508.392,496.642C507.112,494.501 505.809,492.358 504.53,490.316C503.359,488.446 502.206,486.66 501.115,485.029C505.369,472.533 509.565,459.844 512.943,444.713C515.719,432.273 517.932,418.189 519.214,401.235C524.113,374.635 527.859,347.431 529.334,321.38C530.994,292.055 529.815,264.173 524.313,240.217C515.675,202.608 496.507,174.557 461.93,164.65C468.322,152.862 473.435,142.511 479.317,135.022C485.207,127.523 491.866,123.008 501.683,123.231C518.632,123.617 529.353,121.235 552.415,115.245C586.649,106.353 611.057,104.15 631.033,112.647C650.987,121.135 666.384,140.267 682.85,173.54C683.114,174.075 683.584,174.48 684.152,174.663C684.72,174.847 685.338,174.793 685.865,174.514C711.085,161.178 732.906,162.532 754.311,167.687C766.28,170.57 780.994,174.06 793.853,180.304C806.314,186.357 817.051,194.997 821.475,208.41C825.113,219.439 832.123,228.994 838.459,239.197C844.514,248.949 849.941,259.319 850.719,272.399C850.771,273.273 851.334,274.034 852.154,274.34C898.598,291.651 929.214,312.034 938.42,341.669C941.269,350.844 944.318,358.502 946.153,365.633C947.894,372.4 948.527,378.666 946.638,385.367C944.164,394.147 937.459,403.591 923.833,415.82ZM532.335,766.736C532.527,768.62 532.639,770.437 532.802,772.186C533.072,775.085 533.322,777.799 533.517,780.354C533.637,781.933 533.762,783.442 533.871,784.9C533.988,786.476 534.121,787.961 534.194,789.409C534.371,792.907 534.374,795.984 534.093,798.813C533.825,800.424 534.865,801.979 536.475,802.331C538.088,802.684 539.686,801.701 540.11,800.122C541.284,796.656 542.257,792.734 542.867,788.103C543.09,786.41 543.251,784.647 543.329,782.78C543.385,781.408 543.376,779.991 543.334,778.525C543.276,776.521 543.155,774.425 542.922,772.242C542.689,770.061 542.316,767.799 541.921,765.432C541.542,762.808 539.111,760.973 536.478,761.333C533.838,761.694 531.986,764.127 532.339,766.766L532.335,766.736ZM339.689,699.752C339.566,705.925 339.499,712.093 339.662,718.253C339.81,723.83 340.127,729.399 340.606,734.956C340.926,738.671 341.318,742.382 341.826,746.081C342.459,750.7 343.251,755.297 344.196,759.883C346.366,770.413 349.341,780.825 353.197,791.18C353.736,792.745 355.458,793.606 357.059,793.084C358.664,792.56 359.548,790.84 359.044,789.233C355.733,777.498 353.682,765.736 352.313,753.95C351.896,750.36 351.543,746.774 351.222,743.184C350.739,737.788 350.357,732.392 350.086,726.987C349.769,720.663 349.611,714.332 349.505,707.992C349.459,705.273 349.389,702.554 349.363,699.832C349.373,697.174 347.231,695 344.57,694.976C341.906,694.952 339.722,697.09 339.689,699.752L339.689,699.752ZM783.827,473.066C793.041,480.729 800.682,490.895 805.881,503.245C810.422,514.03 813.106,526.477 813.267,540.435C813.267,540.437 813.267,540.44 813.267,540.442C813.56,560.753 814.556,582.375 815.441,605.03C815.985,618.945 816.498,633.25 816.69,647.888C816.886,662.838 816.792,678.131 816.083,693.709C816.083,693.71 816.083,693.711 816.083,693.712C815.707,702.182 812.986,710.279 809.022,718.159C803.229,729.673 794.818,740.707 786.731,751.647C785.722,753 785.991,754.92 787.338,755.943C788.685,756.967 790.606,756.711 791.639,755.376C800.257,744.338 809.182,733.19 815.447,721.496C820.136,712.745 823.334,703.682 823.997,694.163C823.997,694.162 823.997,694.161 823.997,694.159C825.435,673.035 825.825,652.403 825.659,632.432C825.554,619.834 825.236,607.501 824.858,595.479C824.252,576.236 823.481,557.793 823.318,540.323C823.318,540.321 823.318,540.319 823.318,540.317C823.134,524.929 820.18,511.196 815.119,499.331C809.202,485.459 800.426,474.131 789.979,465.6C787.927,463.909 784.876,464.203 783.178,466.263C781.48,468.323 781.774,471.374 783.834,473.072L783.827,473.066ZM495.683,602.945C496.794,610.848 497.402,618.979 497.657,627.333C497.876,634.533 497.817,641.899 497.449,649.436C497.212,654.283 496.85,659.198 496.395,664.188C495.844,670.222 495.149,676.357 494.278,682.603C492.366,696.31 489.671,710.51 486.031,725.204C485.601,726.827 486.556,728.504 488.181,728.959C489.805,729.414 491.492,728.476 491.967,726.864C496.569,712.144 500.289,697.889 502.959,684.044C504.187,677.675 505.195,671.401 505.961,665.216C506.598,660.074 507.054,654.995 507.366,649.986C507.853,642.154 507.982,634.489 507.718,627.002C507.409,618.264 506.544,609.772 505.251,601.523C504.852,598.89 502.394,597.072 499.758,597.464C497.122,597.856 495.299,600.31 495.683,602.945L495.683,602.945ZM391.414,539.607C388.62,550.812 386.294,561.792 384.549,572.577C382.893,582.816 381.737,592.873 381.027,602.74C380.535,609.583 380.258,616.335 380.224,622.998C380.181,631.591 380.52,640.031 381.205,648.322C382.873,668.503 386.597,687.768 392.095,706.214C392.558,707.834 394.242,708.786 395.872,708.34C397.506,707.893 398.473,706.208 398.037,704.573C393.503,686.394 390.843,667.477 389.988,647.768C389.638,639.699 389.601,631.503 389.845,623.163C390.034,616.695 390.386,610.143 390.93,603.502C391.717,593.909 392.914,584.136 394.489,574.166C396.155,563.628 398.214,552.866 400.814,541.893C401.442,539.311 399.848,536.693 397.254,536.062C394.66,535.432 392.042,537.026 391.411,539.62L391.414,539.607ZM519.298,321.418C518.23,316.687 517.197,311.986 516.205,307.309C515.491,303.939 514.79,300.585 514.085,297.245C513.015,292.179 511.957,287.151 510.922,282.141C508.287,269.389 505.799,256.816 503.511,244.27C503.243,242.618 501.69,241.475 500.022,241.719C498.357,241.963 497.197,243.5 497.412,245.163C498.787,257.559 500.227,270.01 502.035,282.605C502.799,287.928 503.622,293.269 504.545,298.635C505.275,302.88 506.078,307.134 506.927,311.408C508.18,317.718 509.53,324.07 511.031,330.459C512.662,337.399 514.495,344.375 516.42,351.43C516.462,351.587 516.512,351.741 516.568,351.89C514.71,367.781 512.204,383.839 509.273,399.679L509.203,400.226C508.002,416.748 505.86,430.453 503.213,442.564C500.413,455.374 497.039,466.405 493.542,477.075C484.198,471.161 474.969,466.163 465.805,462.159C464.832,455.1 463.437,447.438 461.611,441.782C459.381,434.874 456.502,428.578 453.025,422.811C453.373,421.609 453.834,419.947 454.321,418.002C455.081,414.96 455.892,411.226 456.498,407.491C457.242,402.9 457.627,398.301 457.326,394.825C457.326,394.818 457.325,394.81 457.324,394.803C457.122,392.701 457.671,387.712 458.365,381.575C458.858,377.211 459.432,372.314 460.054,367.429C461.667,354.776 463.438,342.257 464.33,339.976C465.008,338.43 464.334,336.632 462.81,335.926C461.281,335.217 459.467,335.87 458.737,337.382C457.424,340.002 453.246,356.691 450.359,371.682C449.576,375.749 448.903,379.686 448.394,383.167C447.553,388.926 447.213,393.521 447.365,395.636C447.366,395.642 447.366,395.648 447.366,395.654C447.592,398.469 447.141,402.178 446.558,405.897C446.218,408.067 445.814,410.238 445.404,412.257C441.009,407.123 435.962,402.545 430.268,398.407C424.381,394.128 417.806,390.302 410.549,386.821C405.385,384.344 399.871,382.048 394.025,379.847C388.856,370.514 384.543,360.189 379.43,350.839C376.924,346.256 374.226,341.9 371.188,337.966C371.188,337.965 371.188,337.965 371.187,337.964C360.86,324.612 347.976,317.036 333.132,315.036C320.167,313.288 305.619,315.855 289.888,322.871C289.888,322.872 289.887,322.872 289.887,322.872C282.56,326.145 274.358,326.43 265.818,325.434C252.995,323.938 239.455,319.546 226.642,316.504C226.641,316.504 226.641,316.504 226.641,316.504C209.242,312.383 193.709,309.926 180.521,308.477C168.468,307.152 157.843,307.696 149.499,308.618L149.499,308.618C159.503,288.88 165.085,266.42 174.336,249.008C183.774,231.242 197.185,218.934 223.951,221.112C238.082,222.262 251.664,221.631 269.109,209.942C269.2,209.881 269.286,209.814 269.366,209.741C298.297,183.443 310.267,163.63 320.404,150.408C326.807,142.057 332.39,136.418 341.512,133.658C386.471,120.057 415.05,136.386 450.157,171.653C450.67,172.168 451.404,172.398 452.119,172.269L454.697,171.801C488.918,179.823 506.846,206.584 514.814,242.365C519.976,265.546 520.995,292.473 519.334,320.804L519.298,321.418ZM580.309,428.154C581.655,422.82 583.037,417.616 584.387,412.525C587.794,399.672 591.21,387.597 594.714,376.345C598.114,365.424 601.584,355.281 605.104,345.926C607.755,338.882 610.424,332.286 613.145,326.153C625.832,297.556 639.508,279.209 655.124,272.847C656.703,272.222 657.485,270.451 656.88,268.873C656.275,267.295 654.51,266.499 652.929,267.087C635.812,273.252 619.614,291.945 604.882,322.318C601.871,328.528 598.922,335.231 596.06,342.425C592.29,351.897 588.66,362.217 585.142,373.34C581.54,384.726 578.043,396.957 574.723,410.016C573.413,415.172 572.163,420.464 570.907,425.876C570.288,428.465 571.883,431.073 574.473,431.7C577.062,432.328 579.674,430.739 580.309,428.154L580.309,428.154ZM562.258,406.949C564.313,401.857 566.221,396.596 567.816,391.09C569.189,386.348 570.343,381.43 571.28,376.329C571.879,373.075 572.392,369.745 572.774,366.33C573.229,362.257 573.518,358.072 573.644,353.761C573.912,344.638 573.45,335 572.284,324.693C572.143,323.041 570.688,321.785 569.01,321.897C567.332,322.009 566.057,323.446 566.136,325.118C566.34,335.113 565.825,344.4 564.868,353.152C564.421,357.231 563.865,361.178 563.241,365.027C562.722,368.235 562.16,371.368 561.531,374.434C560.549,379.226 559.398,383.844 558.136,388.326C556.668,393.542 555.07,398.579 553.244,403.438C552.287,405.921 553.52,408.716 556.001,409.683C558.483,410.651 561.283,409.425 562.258,406.949L562.258,406.949ZM304.111,368.311C293.943,366.753 284.251,365.811 274.995,365.559C265.752,365.308 256.946,365.717 248.556,366.688C242.526,367.386 236.706,368.375 231.096,369.669C223.696,371.378 216.656,373.588 209.946,376.238C193.544,382.717 179.141,391.794 166.23,402.803C164.933,403.878 164.738,405.801 165.8,407.114C166.862,408.427 168.783,408.64 170.106,407.596C182.933,397.774 197.109,389.949 212.992,384.494C219.416,382.288 226.118,380.486 233.128,379.075C238.451,378.003 243.947,377.152 249.64,376.56C257.615,375.731 265.969,375.421 274.743,375.623C283.624,375.826 292.936,376.522 302.712,377.883C305.348,378.261 307.798,376.432 308.183,373.795C308.569,371.158 306.745,368.704 304.111,368.311L304.111,368.311Z" style="fill:white;"/>
</svg>
