<?xml version="1.0" encoding="UTF-8" standalone="no"?>
<!DOCTYPE svg PUBLIC "-//W3C//DTD SVG 1.1//EN" "http://www.w3.org/Graphics/SVG/1.1/DTD/svg11.dtd">
<svg width="100%" height="100%" viewBox="0 0 1000 1000" version="1.1" xmlns="http://www.w3.org/2000/svg" xmlns:xlink="http://www.w3.org/1999/xlink" xml:space="preserve" xmlns:serif="http://www.serif.com/" style="fill-rule:evenodd;clip-rule:evenodd;stroke-linejoin:round;stroke-miterlimit:2;">
    <g transform="matrix(4.5,0,0,4.5,-2652.46,-400)">
        <path d="M642.808,119.098C655.237,110.068 701.587,135.863 701.587,135.863C701.587,135.863 747.936,110.068 760.365,119.098C772.794,128.129 762.585,180.18 762.585,180.18C762.585,180.18 801.44,216.29 796.692,230.902C791.945,245.513 739.286,251.888 739.286,251.888C739.286,251.888 716.95,300 701.587,300C686.223,300 663.888,251.888 663.888,251.888C663.888,251.888 611.229,245.513 606.481,230.902C601.733,216.29 640.588,180.18 640.588,180.18C640.588,180.18 630.379,128.129 642.808,119.098ZM775.583,249.783C773.385,261.335 768.799,274.019 759.326,280.902C750.016,287.666 736.837,288.209 725.317,286.822C733.204,275.751 740.078,262.337 742.822,256.755C748.783,255.899 762.921,253.629 775.583,249.783ZM625.383,249.091C638.567,253.358 654.041,255.849 660.352,256.755C663.075,262.296 669.868,275.552 677.68,286.574C665.731,288.25 651.595,288.041 641.769,280.902C632.105,273.88 627.527,260.823 625.383,249.091ZM703.17,207.449L704.274,231.096C704.276,231.154 704.278,231.212 704.278,231.27C704.278,233.328 702.606,235 700.547,235C698.488,235 696.817,233.328 696.817,231.27C696.817,231.212 696.818,231.154 696.821,231.096L697.924,207.449C698.745,207.738 699.628,207.896 700.547,207.896C701.467,207.896 702.35,207.738 703.17,207.449ZM707.856,231.702C719.943,228.923 729.468,219.399 732.249,207.308C732.106,207.317 731.962,207.321 731.817,207.321C731.703,207.321 731.589,207.318 731.476,207.313L708.552,206.244C708.039,206.9 707.447,207.492 706.791,208.005L707.86,230.928C707.866,231.042 707.868,231.156 707.868,231.27C707.868,231.415 707.864,231.559 707.856,231.702ZM668.845,207.308C671.624,219.396 681.149,228.921 693.239,231.702C693.23,231.559 693.226,231.415 693.226,231.27C693.226,231.156 693.229,231.042 693.234,230.928L694.304,208.005C693.647,207.492 693.055,206.9 692.543,206.244L669.619,207.313C669.505,207.318 669.391,207.321 669.278,207.321C669.133,207.321 668.989,207.317 668.845,207.308ZM700.547,193.438C704.169,193.438 707.11,196.378 707.11,200C707.11,203.622 704.169,206.563 700.547,206.563C696.925,206.563 693.985,203.622 693.985,200C693.985,196.378 696.925,193.438 700.547,193.438ZM631.352,143.3C631.436,157 633.795,172.131 634.867,178.322C630.305,182.754 619.291,193.822 611.14,204.996C605.856,194.153 601.689,180.647 605.442,169.098C609.217,157.478 620.643,148.968 631.352,143.3ZM707.996,197.377L731.643,196.274C731.701,196.271 731.759,196.27 731.817,196.27C733.876,196.27 735.547,197.941 735.547,200C735.547,202.059 733.876,203.73 731.817,203.73C731.759,203.73 731.701,203.729 731.643,203.726L707.996,202.623C708.285,201.802 708.443,200.919 708.443,200C708.443,199.081 708.285,198.198 707.996,197.377ZM693.098,202.623L669.452,203.726C669.394,203.729 669.336,203.73 669.278,203.73C667.219,203.73 665.547,202.059 665.547,200C665.547,197.941 667.219,196.27 669.278,196.27C669.336,196.27 669.394,196.271 669.452,196.274L693.098,197.377C692.809,198.198 692.652,199.081 692.652,200C692.652,200.919 692.809,201.802 693.098,202.623ZM771.809,144.425C781.885,150.071 792.119,158.223 795.653,169.098C799.211,180.05 795.649,192.761 790.766,203.289C782.775,192.71 772.635,182.527 768.306,178.321C769.349,172.3 771.609,157.822 771.809,144.425ZM693.239,168.298C681.152,171.077 671.626,180.601 668.845,192.692C668.989,192.683 669.133,192.679 669.278,192.679C669.391,192.679 669.505,192.682 669.619,192.687L692.543,193.756C693.055,193.1 693.647,192.508 694.304,191.995L693.234,169.072C693.229,168.958 693.226,168.844 693.226,168.73C693.226,168.585 693.23,168.441 693.239,168.298ZM707.856,168.298C707.864,168.441 707.868,168.585 707.868,168.73C707.868,168.844 707.866,168.958 707.86,169.072L706.791,191.995C707.447,192.508 708.039,193.1 708.552,193.756L731.476,192.687C731.589,192.682 731.703,192.679 731.817,192.679C731.962,192.679 732.106,192.683 732.249,192.692C729.47,180.604 719.946,171.079 707.856,168.298ZM697.924,192.551L696.821,168.904C696.818,168.846 696.817,168.788 696.817,168.73C696.817,166.672 698.488,165 700.547,165C702.606,165 704.278,166.672 704.278,168.73C704.278,168.788 704.276,168.846 704.274,168.904L703.17,192.551C702.35,192.262 701.467,192.104 700.547,192.104C699.628,192.104 698.745,192.262 697.924,192.551ZM669.123,115.602C677.686,107.557 688.845,100 700.547,100C712.5,100 723.885,107.883 732.516,116.118C719.91,120.448 706.959,127.011 701.586,129.847C695.996,126.896 682.201,119.909 669.123,115.602Z" style="fill:white;"/>
    </g>
</svg>
