<?xml version="1.0" encoding="UTF-8" standalone="no"?>
<!DOCTYPE svg PUBLIC "-//W3C//DTD SVG 1.1//EN" "http://www.w3.org/Graphics/SVG/1.1/DTD/svg11.dtd">
<svg width="100%" height="100%" viewBox="0 0 1000 1000" version="1.1" xmlns="http://www.w3.org/2000/svg" xmlns:xlink="http://www.w3.org/1999/xlink" xml:space="preserve" xmlns:serif="http://www.serif.com/" style="fill-rule:evenodd;clip-rule:evenodd;stroke-linejoin:round;stroke-miterlimit:2;">
    <g transform="matrix(2.2451,0,0,2.2451,-622.552,-485.101)">
        <path d="M499.049,617.539C418.352,616.016 369.839,586.452 346.063,525.826C343.683,515.549 341.457,504.837 340.058,495.342C338.457,484.472 337.893,475.228 339.401,470.128C339.472,469.907 339.349,469.67 339.128,469.599C338.907,469.528 338.67,469.651 338.599,469.872C336.399,476.262 337.11,489.369 339.136,504.1C339.834,509.183 340.684,514.459 341.622,519.716C315.537,487.861 296.398,455.222 300,420C306.114,399.14 324.713,385.351 345.796,372.967C347.632,380.088 349.871,387.466 352.6,395.132C352.673,395.352 352.911,395.472 353.132,395.4C353.352,395.327 353.472,395.089 353.4,394.868C350.255,384.467 347.989,374.624 346.33,365.253L346.273,364.934C344.441,347.678 344.786,330.504 355.714,313.717C383.418,300.404 410.806,299.36 437.996,306.04C433.178,316.045 429.86,325.992 427.593,335.894C427.534,336.119 427.669,336.349 427.894,336.407C428.119,336.466 428.349,336.331 428.407,336.106C430.657,328.414 433.591,320.75 437.377,313.075C439.129,309.525 441.07,305.983 443.212,302.438C457.371,284.599 473.494,268.28 500,260L500.619,260.196C526.757,268.534 542.74,284.738 556.788,302.438C558.93,305.983 560.871,309.525 562.623,313.075C566.409,320.75 569.343,328.414 571.593,336.106C571.651,336.331 571.881,336.466 572.106,336.407C572.331,336.349 572.466,336.119 572.407,335.894C570.14,325.992 566.822,316.045 562.004,306.04C589.194,299.36 616.582,300.404 644.286,313.717C655.214,330.504 655.559,347.678 653.727,364.934L653.67,365.253C652.011,374.624 649.745,384.467 646.6,394.868C646.528,395.089 646.648,395.327 646.868,395.4C647.089,395.472 647.327,395.352 647.4,395.132C650.129,387.466 652.368,380.088 654.204,372.967C675.287,385.351 693.886,399.14 700,420C703.602,455.222 684.463,487.861 658.378,519.716C659.316,514.459 660.166,509.183 660.864,504.1C662.89,489.369 663.601,476.262 661.401,469.872C661.33,469.651 661.093,469.528 660.872,469.599C660.651,469.67 660.528,469.907 660.599,470.128C662.107,475.228 661.543,484.472 659.942,495.342C658.543,504.837 656.317,515.549 653.937,525.826C630.068,586.689 581.267,616.247 500,617.555L499.049,617.539ZM471,541.578C468.652,541.29 466.296,540.902 463.931,540.415C463.702,540.377 463.547,540.16 463.585,539.931C463.623,539.702 463.84,539.547 464.069,539.585C471.034,540.464 477.84,540.387 484.551,539.643C489.053,539.144 493.491,538.282 497.924,537.209C502.288,536.152 506.639,534.886 510.978,533.332C517.272,531.079 523.555,528.348 529.785,524.986C529.985,524.868 530.244,524.934 530.362,525.134C530.481,525.334 530.414,525.592 530.215,525.71C529.477,526.188 528.739,526.659 527.999,527.121L528,527.121C563.4,568.522 549.89,604.494 529.371,610C508.019,615.73 458.946,606.91 471,541.578L471,541.578ZM536.482,542.183C558.061,584.243 540.128,603.421 528,607C516.67,610.343 487.672,606.137 477,583C480.335,553.297 493.317,533.009 536.482,542.183ZM587.247,521.153C581.458,508.899 592.868,499.454 606.795,496.726C620.722,493.998 637.166,497.986 641.447,512.598C646.364,529.378 600.301,548.787 587.247,521.153ZM412.753,521.153C418.542,508.899 407.132,499.454 393.205,496.726C379.278,493.998 362.834,497.986 358.553,512.598C353.636,529.378 399.699,548.787 412.753,521.153ZM600,487.744C588.269,489.529 581.9,479.297 581.024,468.391C580.147,457.486 584.762,445.907 595,445C609.668,443.7 624.242,484.054 600,487.744ZM400,487.744C411.731,489.529 418.1,479.297 418.976,468.391C419.853,457.486 415.238,445.907 405,445C390.332,443.7 375.758,484.054 400,487.744ZM588.548,460.935C586.738,456.049 589.757,452.22 593.65,450.661C597.543,449.102 602.311,449.811 604,454C607.733,463.259 592.289,471.033 588.548,460.935ZM411.452,460.935C413.262,456.049 410.243,452.22 406.35,450.661C402.457,449.102 397.689,449.811 396,454C392.267,463.259 407.711,471.033 411.452,460.935ZM342.678,453.787C341.129,452.123 339.613,450.463 338.002,448.9C336.914,447.844 335.81,446.818 334.65,445.873C333.471,444.913 332.237,444.041 330.991,443.21C329.081,441.937 327.118,440.824 325.127,439.792C325.012,439.722 324.862,439.758 324.792,439.873C324.722,439.988 324.758,440.138 324.873,440.208C326.081,441.07 327.247,441.987 328.421,442.931C329.343,443.673 330.248,444.439 331.169,445.206C332.076,445.962 332.976,446.736 333.903,447.49C335.004,448.387 336.131,449.264 337.26,450.154C338.945,451.483 340.654,452.781 342.345,454.143C342.444,454.235 342.598,454.23 342.69,454.131C342.781,454.033 342.776,453.879 342.678,453.787ZM695.421,432.973C693.538,434.662 691.579,436.276 689.57,437.857C688.246,438.901 686.898,439.916 685.537,440.923C684.183,441.924 682.808,442.9 681.429,443.872C680.511,444.52 679.596,445.172 678.673,445.813C676.744,447.151 674.791,448.446 672.796,449.677C670.789,450.916 668.763,452.105 666.686,453.204C666.565,453.261 666.512,453.406 666.57,453.528C666.627,453.649 666.772,453.702 666.894,453.644C670.17,452.273 673.391,450.749 676.499,448.99C678.568,447.82 680.599,446.574 682.542,445.203C684.488,443.831 686.346,442.339 688.14,440.786C690.848,438.441 693.362,435.915 695.763,433.319C695.859,433.225 695.86,433.07 695.765,432.975C695.671,432.879 695.517,432.878 695.421,432.973Z" style="fill:white;"/>
    </g>
</svg>
