<?xml version="1.0" encoding="UTF-8" standalone="no"?>
<!DOCTYPE svg PUBLIC "-//W3C//DTD SVG 1.1//EN" "http://www.w3.org/Graphics/SVG/1.1/DTD/svg11.dtd">
<svg width="100%" height="100%" viewBox="0 0 1000 1000" version="1.1" xmlns="http://www.w3.org/2000/svg" xmlns:xlink="http://www.w3.org/1999/xlink" xml:space="preserve" xmlns:serif="http://www.serif.com/" style="fill-rule:evenodd;clip-rule:evenodd;stroke-linejoin:round;stroke-miterlimit:2;">
    <g transform="matrix(0.929246,0,0,0.929246,35.376,-5.92254)">
        <path d="M414.308,655.385L434.542,665.02L282,990L252,980L414.308,655.385ZM529.748,605.788L607.389,895.551C560.876,902.081 512.946,902.871 465.248,897.837L489.654,618.886L529.748,605.788ZM462.669,631.448L484.75,634.369L461.733,897.455C423.254,893.161 384.96,885.071 347.726,873.142L441.58,668.371L445,670L462.669,631.448ZM555.145,579.982L748.203,855.698C705.21,874.863 658.838,888.01 610.914,895.045L529.843,592.484L555.145,579.982ZM415.625,590L415.084,625.877L403,650L407.196,651.998L303.205,856.81C268.252,842.302 234.636,824.217 203.118,802.507L415.625,590ZM555.838,574.808L548.375,564.15L570,551.172L568.492,549.758L879.018,767.191C842.403,803.537 799.064,832.587 751.485,854.22L556.024,575.073L556.024,574.712L555.838,574.808ZM417.646,541.515L422.387,578.238L200.166,800.459L199.799,800.201C155.327,769.062 118.675,733.119 90.116,694.245L417.646,541.515ZM555.342,519.01L966.713,629.236C950.207,677.723 921.957,723.825 881.554,764.651L544.911,528.931L555.342,519.01ZM413.582,510.031L417.171,537.836L87.995,691.333C54.785,645.308 32.816,595.256 22.518,544.244L413.582,510.031ZM485.132,630L463.333,630L464.689,627.041L486,620.079L485.132,630ZM578.581,496.906L978.665,461.904C988.727,516.826 985.294,572.746 967.837,625.877L558.344,516.154L578.581,496.906ZM486.27,616.991L465.756,624.714L466.09,623.985L486.543,613.879L486.27,616.991ZM486.812,610.804L466.097,621.606L463.529,620.483L466.952,613.013L487.708,600.557L486.812,610.804ZM457.606,615.882L455.696,617.061L453.336,616.029L460.926,608.81L457.606,615.882ZM528.49,601.095L489.94,615.609L490.252,612.046L526.611,594.081L528.49,601.095ZM424.519,594.751L425.78,604.524L421.145,613.777L424.519,594.751ZM471.261,586.791L449.328,612.734L489.768,547.365L471.261,586.791ZM455.639,572.721L441.688,610.94L437.455,609.09L455.639,572.721ZM488.009,597.119L468.805,608.971L475.025,595.401L489.351,581.774L488.009,597.119ZM525.663,590.544L490.53,608.865L491.454,598.309L522.717,579.548L525.663,590.544ZM464.443,601.318L457.014,608.489L466.036,597.923L464.443,601.318ZM436.389,569.236L431.571,603.992L430.933,605.248L428.836,576.789L436.389,569.236ZM520,490.697L451.223,603.058L508.662,480L520,480L520,490.697ZM421.558,584.068L419.339,598.395L419.49,586.135L421.558,584.068ZM521.831,576.244L491.76,594.803L493.222,578.092L516.416,556.033L521.831,576.244ZM506.183,480L451.623,594.539L493.534,480L506.183,480ZM446.982,558.643L438.032,591.267L436.904,593.487L440.851,564.774L446.982,558.643ZM552.677,576.457L528.875,588.869L525.87,577.656L545.336,565.973L552.677,576.457ZM489.782,576.857L478.558,587.692L482.945,578.119L490.439,569.343L489.782,576.857ZM452.277,553.349L460,545.625L460,548L446.437,574.712L452.277,553.349ZM543.265,563.016L524.972,574.306L519.531,554L526,554L526,546.917L529.597,543.496L543.265,563.016ZM513.459,554L493.658,573.115L494.393,564.712L503.54,554L513.459,554ZM441.794,530.255L437.194,563.431L428.537,572.089L435.427,533.224L441.794,530.255ZM490.95,563.503L488.099,566.875L491.258,559.983L490.95,563.503ZM424.017,562.44L421.024,539.94L422.369,539.313L424.017,562.44ZM566.738,548.53L546.279,561.156L532.188,541.032L542.297,531.417L566.738,548.53ZM456.673,523.317L448.872,551.753L441.647,558.978L445.855,528.361L456.673,523.317ZM498.984,554L494.909,558.82L495.33,554L498.984,554ZM426.853,549.869L425.952,537.642L428.963,536.238L426.853,549.869ZM460,540.625L454.157,546.468L460,525.091L460,540.625ZM520,546L510.37,546L520,534.722L520,546ZM520,529.141L505.747,546L490.612,546L520,498.494L520,529.141ZM527.477,540.468L526,541.894L526,538.359L527.477,540.468ZM432.079,534.785L430.763,541.837L431.727,534.949L432.079,534.785ZM489.485,480L467,541.598L467,499.481L472.325,480L489.485,480ZM409.158,475.764L413.129,506.521L21.833,540.755C11.207,485.177 14.404,428.52 31.975,374.698L409.158,475.764ZM539.142,529.207L530.052,537.982L526,532.195L526,527.695L530.109,522.882L539.142,529.207ZM417.007,509.731L420.241,509.448L422.1,535.538L420.536,536.267L417.007,509.731ZM423.851,509.132L437.081,507.975L432.876,530.513L425.674,533.871L423.851,509.132ZM444.978,507.284L442.372,526.085L436.181,528.971L439.948,507.724L444.978,507.284ZM550.93,517.827L541.733,526.706L532.416,520.181L537.498,514.228L550.93,517.827ZM460,511.191L457.901,518.843L446.428,524.193L448.798,506.95L460,505.97L460,511.191ZM527.083,520.763L526,522.044L526,520.005L527.083,520.763ZM533.511,513.16L529.375,518.052L526,515.689L526,511.147L533.511,513.16ZM572.006,497.482L553.898,514.962L540.042,511.25L550.166,499.392L572.006,497.482ZM544.75,499.866L536.034,510.176L526,507.487L526,501.507L544.75,499.866ZM412.613,476.689L418.01,478.135L419.989,505.921L416.541,506.223L412.613,476.689ZM447.909,486.147L445.477,503.691L423.591,505.606L421.639,479.108L447.909,486.147ZM451.524,487.116L460,489.387L460,502.421L449.292,503.357L451.524,487.116ZM565.005,475.908L547.99,496.034L526,497.958L526,494.096L565.005,475.908ZM573.667,471.869L914.911,312.744C947.062,358.43 968.232,407.963 978.007,458.412L553.441,495.557L573.667,471.869ZM550,450L800.201,199.799C846.204,232.01 883.84,269.362 912.83,309.814L526,490.195L526,488.796L550,450ZM453.3,474.197L460,478.889L460,485.726L452.01,483.585L453.3,474.197ZM468.557,480L467,485.676L467,480L468.557,480ZM449.896,471.814L448.398,482.618L412.108,472.894L408.07,442.527L449.896,471.814ZM536.881,463.119L526,480.895L526,474L536.881,463.119ZM472.37,466.102L470.478,473L460,473L460,474.572L453.841,470.26L457.359,444.664L472.37,466.102ZM477.2,473L474.238,473L475.07,469.958L477.2,473ZM482.858,441.464L491.308,473L481.516,473L476.281,465.524L482.858,441.464ZM509.236,435L538.322,102.548C582.217,107.451 625.868,117.293 667.969,132.138L509.022,473L505.911,473L508.996,437.745L510,435L509.236,435ZM544.771,450.229L522,473L512.923,473L671.315,133.329C715.536,149.228 758.023,170.678 797.251,197.749L545,450L544.911,450L544.771,450.229ZM502.362,473L496.095,473L504.331,450.492L502.362,473ZM404.55,440.062L408.669,471.972L33.093,371.337C49.217,323.675 76.695,278.287 115.899,237.946L404.55,440.062ZM493.729,468.375L396.086,103.969C441.533,97.876 488.29,97.248 534.806,102.166L505.616,435.809L493.729,468.375ZM454.271,440.255L450.442,467.88L118.408,235.387C118.895,234.894 119.407,234.379 119.921,233.866C156.686,197.1 200.303,167.741 248.183,145.93L454.271,440.255ZM481.015,434.589L473.585,461.673L455.551,435.919L455,435L454.985,435.11L251.463,144.451C295.586,124.743 343.274,111.377 392.556,104.454L481.015,434.589Z" style="fill:white;"/>
    </g>
</svg>
