<?xml version="1.0" encoding="UTF-8" standalone="no"?>
<!DOCTYPE svg PUBLIC "-//W3C//DTD SVG 1.1//EN" "http://www.w3.org/Graphics/SVG/1.1/DTD/svg11.dtd">
<svg width="100%" height="100%" viewBox="0 0 1000 1000" version="1.1" xmlns="http://www.w3.org/2000/svg" xmlns:xlink="http://www.w3.org/1999/xlink" xml:space="preserve" xmlns:serif="http://www.serif.com/" style="fill-rule:evenodd;clip-rule:evenodd;stroke-linejoin:round;stroke-miterlimit:2;">
    <g transform="matrix(1.97782,0,0,1.97782,-474.074,-493.747)">
        <path d="M521.793,281.894C646.31,298.062 734.274,412.28 718.106,536.796C701.938,661.312 587.72,749.277 463.204,733.109C338.688,716.941 250.723,602.723 266.891,478.207C283.059,353.69 397.277,265.726 521.793,281.894ZM508.443,706.898C507.118,702.985 505.501,699.284 503.349,695.966C501.661,699.742 500.324,703.564 499.201,707.415C502.299,707.314 505.383,707.141 508.443,706.898ZM472.456,706.496C471.18,699.049 469.427,691.772 466.964,684.749C465.141,691.54 463.934,698.41 463.12,705.332C464.319,705.51 465.53,705.679 466.745,705.836C468.65,706.084 470.552,706.303 472.456,706.496ZM525.338,704.826C522.699,700.028 519.84,695.424 516.546,691.198C516.062,696.063 516.279,701.02 516.959,706.038C519.771,705.692 522.569,705.288 525.338,704.826ZM454.157,703.798C455.437,697.711 456.389,691.58 456.798,685.379C451.177,690.254 445.936,695.422 440.903,700.751C445.258,701.909 449.677,702.927 454.157,703.798ZM557.951,696.506C557.402,691.642 556.512,686.965 555.183,682.529C552.25,688.228 549.762,693.985 547.613,699.787C551.098,698.785 554.547,697.69 557.951,696.506ZM491.949,630.957L473.755,632.446C471.673,647.698 472.672,663.351 474.959,679.171L485.652,696.146L498.847,672.188C497.33,658.399 495.657,644.62 491.949,630.957ZM691.691,525.487C695.902,479.169 683.832,434.812 660.042,398.344C660,400.762 659.823,403.202 659.505,405.657C654.885,441.233 622.252,466.366 586.676,461.746C551.1,457.127 525.967,424.493 530.587,388.917C534.591,358.077 559.649,335.084 589.425,332.52C567.987,320.628 544.009,312.511 518.252,309.166C408.788,294.953 308.377,372.284 294.164,481.748C281.981,575.57 337.049,662.74 421.963,694.688C428.754,690.91 438.65,686.224 447.696,677.814C456.797,669.354 454.893,652.442 452.282,634.734C396.329,616.034 369.927,597.829 357.48,580.642C344.604,562.861 348.306,536.898 354.708,510.817C340.478,473.696 348.224,446.96 377.948,430.609C377.183,414.664 380.278,400.31 390.449,388.872L381.058,370.02L406.504,373.776C429.173,366.562 449.923,371.833 469.1,389.819C478.005,390.643 486.12,394.519 493.89,399.725C486.076,399.495 478.971,400.815 473.068,404.762C467.408,418.62 460.307,431.181 448.4,439.419C452.247,448.448 455.447,458.211 458.377,468.28C477.506,481.087 497.218,498.894 513.673,522.854C527.914,543.589 552.447,556.04 583.33,565.176C589.577,560.493 596.364,556.527 604.843,554.81C609.746,555.989 614.146,558.941 618.336,562.634C628.258,559.639 633.403,555.699 641.554,549.543C654.575,555.32 667.408,549.837 671.813,533.81C673.545,528.963 679.991,526.112 691.691,525.487ZM575.902,689.274C573.405,687.018 570.772,685.185 567.877,684.177C567.179,687.127 566.877,690.129 566.865,693.168C569.911,691.943 572.923,690.645 575.902,689.274ZM538.27,626.888L514.557,628.86L519.494,668.496C520.969,676.148 526.045,683.909 533.285,691.736C537.57,686.434 541.666,680.106 545.332,671.427L538.27,626.888ZM682.744,569.294C649.04,583.093 616.574,589.552 585.431,588.146C591.387,591.67 596.581,595.96 598.517,603.532C588.234,618.073 574.111,622.882 560.072,627.902C561.802,659.56 574.188,675.216 593.919,679.846C635.181,655.515 667.409,616.645 682.744,569.294ZM505.362,606.48C446.865,578.372 418.269,547.331 407.047,551.362C399.405,554.107 392.295,572.063 421.675,598.639C425.713,602.291 478.744,609.14 505.362,606.48ZM555.151,595.803C515.122,568.318 490.116,538.02 468.251,527.28C447.743,517.206 433.654,518.069 426.464,530.69C454.528,561.664 494.68,585.083 555.151,595.803ZM689.325,543.01C664.05,559.453 636.511,571.114 606.861,578.316C629.22,576.777 655.329,570.764 685.549,559.84C687.037,554.333 688.299,548.72 689.325,543.01ZM473.826,505.077C419.023,490.729 388.066,511.999 378.932,565.862C356.969,523.21 390.309,499.587 406.329,491.262C423.25,482.469 458.766,485.076 473.826,505.077ZM543.405,562.009C540.906,556.401 537.702,551.438 533.593,547.305C529.483,543.171 524.467,539.868 518.342,537.578C505.374,532.731 548.928,574.402 543.405,562.009ZM410.757,527.403C411.017,527.299 411.281,527.206 411.555,527.145C411.72,527.109 411.89,527.083 412.06,527.086C412.163,527.088 412.266,527.1 412.365,527.131C412.426,527.15 412.485,527.177 412.538,527.212C412.849,527.417 412.869,527.836 412.833,528.17C412.826,528.23 412.818,528.29 412.807,528.349C412.794,528.427 412.778,528.504 412.76,528.58C412.737,528.677 412.711,528.774 412.682,528.87L412.561,529.239C412.899,531.772 410.18,536.3 406.737,540.289C404.746,542.596 402.513,544.722 400.489,546.177C397.599,549.322 395.188,551.39 394.615,550.756C393.8,549.854 393.759,548.079 394.361,545.874C394.715,540.309 405.816,526.765 410.757,527.403L410.757,527.403ZM444.658,457.807C447.298,461.898 434.356,471.828 431.822,461.806C410.913,444.448 387.59,452.842 383.19,475.66C385.747,485.773 370.65,489.648 366.236,480.653C373.61,440.361 418.105,416.664 444.658,457.807ZM408.472,465.073C411.161,464.449 413.749,465.691 414.249,467.846C414.749,470 412.973,472.255 410.284,472.879C407.596,473.503 405.008,472.261 404.508,470.107C404.008,467.953 405.784,465.697 408.472,465.073ZM599.875,360.099C620.399,362.764 634.899,381.591 632.234,402.116C629.568,422.64 610.741,437.14 590.217,434.475C569.692,431.81 555.193,412.983 557.858,392.458C560.523,371.934 579.35,357.434 599.875,360.099ZM448.82,420.653C447.337,423.259 445.449,425.47 443.219,427.347C440.988,429.224 438.416,430.768 435.566,432.041C444.425,433.225 450.111,430.852 448.82,420.653ZM402.261,417.632C403.339,403.894 412.838,394.144 422.954,389.653C433.069,385.163 443.799,385.933 447.338,393.233C455.753,410.595 427.178,426.091 402.261,417.632ZM425.894,400.102C428.936,398.425 432.377,398.824 433.572,400.992C434.767,403.161 433.268,406.283 430.226,407.96C427.184,409.637 423.744,409.238 422.549,407.069C421.353,404.901 422.853,401.779 425.894,400.102Z" style="fill:white;"/>
    </g>
</svg>
