<?xml version="1.0" encoding="UTF-8" standalone="no"?>
<!DOCTYPE svg PUBLIC "-//W3C//DTD SVG 1.1//EN" "http://www.w3.org/Graphics/SVG/1.1/DTD/svg11.dtd">
<svg width="100%" height="100%" viewBox="0 0 1000 1000" version="1.1" xmlns="http://www.w3.org/2000/svg" xmlns:xlink="http://www.w3.org/1999/xlink" xml:space="preserve" xmlns:serif="http://www.serif.com/" style="fill-rule:evenodd;clip-rule:evenodd;stroke-linejoin:round;stroke-miterlimit:2;">
    <g transform="matrix(3.55406,0,0,4.3186,-1057.44,-445.671)">
        <path d="M311.599,260.35C396.015,278.739 480.424,280.488 564.831,261.428C556.57,243.727 545.039,226.604 525.971,210.818C521.68,213.36 518.11,216.492 515,220C508.215,210.507 501.547,202.165 495,195C492.038,197.166 488.716,199.051 487,202.102C484.403,206.719 481.236,211.063 477.315,215C471.141,203.017 466.916,190.146 454.473,182C448.361,177.999 447.189,169.419 444,163C437.678,168.982 432.048,176.468 424,180.571C408.66,188.39 397.596,200.302 385,211C380.83,204.933 377.771,198.675 375,192.366C363.639,203.972 354.921,216.229 343.669,225C329.748,235.851 319.457,247.901 311.599,260.35ZM490.5,238C486.978,235.043 484.444,231.591 480.377,227C478.264,224.615 478.12,220.853 478,217C480.199,215.167 487.473,206.412 488.5,203.5C489.392,200.971 492.067,199.08 494.5,197.5L497.5,201.5C497.337,203.336 497.31,205.201 496.895,207C496.11,210.403 498.506,221.063 492.68,221.5C486.184,221.987 484.735,225.588 490.5,238ZM441,168.5C440.194,174.953 434.863,186.768 436,192C437.373,198.316 442.313,198.835 437.981,209C434.773,216.528 438.408,224.742 439.5,231.5C430.862,221.574 421.883,216.225 412,223C414.133,218.667 415.584,214.333 416,210C410.818,217.975 404.495,224.944 396,230C398.228,219.11 391.545,217.912 380,222C387.93,215.985 394.055,209.232 399.248,202C401.745,198.521 406.056,196.547 410,194C413.876,189.479 418.837,185.295 427,181.673C432.774,179.112 436.673,173.457 441,168.5ZM373.965,196.769C364.507,206.952 355.25,217.47 346,228C353.074,228.846 359.43,225.991 364.5,216.5C365.108,219.853 366.115,222.954 368,225.5C373.621,227.09 375.362,224.868 375.5,222C375.014,217.471 375.787,212.969 374.368,208.5C373.174,204.742 373.998,200.652 373.965,196.769ZM517,221C519.558,218.371 522.323,215.84 525.5,213.5C527.389,214.889 528.381,216.217 528.71,217.5C529.529,220.695 528.025,223.626 522.5,226.5C522.636,224.643 522.566,222.802 522,221L517,221ZM447.015,178.132C448.551,183.132 446.394,192.402 451.807,193.5C457.75,194.706 455.625,200.32 455.5,205C457.445,204.649 459.751,203.526 461,204.735C465.486,209.077 468.929,210.798 471.5,208C469.593,203.712 467.58,199.474 465,195.5C462.842,192.657 459.947,188.494 457,186.5C452.495,183.453 449.917,181.321 447.015,178.132ZM422,208C421.188,200.659 422.737,196.403 428,197C427.152,194.367 426.059,191.815 425,192.441C423.478,193.341 420.197,197.307 417.325,199C415.425,200.12 417.756,203.879 422,208Z" style="fill:white;"/>
    </g>
</svg>
