<?xml version="1.0" encoding="UTF-8" standalone="no"?>
<!DOCTYPE svg PUBLIC "-//W3C//DTD SVG 1.1//EN" "http://www.w3.org/Graphics/SVG/1.1/DTD/svg11.dtd">
<svg width="100%" height="100%" viewBox="0 0 1000 1000" version="1.1" xmlns="http://www.w3.org/2000/svg" xmlns:xlink="http://www.w3.org/1999/xlink" xml:space="preserve" xmlns:serif="http://www.serif.com/" style="fill-rule:evenodd;clip-rule:evenodd;stroke-linejoin:round;stroke-miterlimit:2;">
    <g transform="matrix(0.97035,0,0,0.97035,30.593,15.6501)">
        <path d="M402,938C401,927 393.735,923.933 391.885,917.878C389.508,910.096 389.718,903.277 392.797,896.981C397.273,887.83 407.809,879.784 425.275,871.495C440.332,864.348 457.57,863.125 476,864C501.135,857.754 516.542,839.842 517,804C514.403,757.315 486.408,746.095 444,755C413.576,769.791 397.34,795.099 390,827C392.616,850.462 385.316,873.371 373,896C362.727,925.462 371.761,939.953 402,938ZM623,728C608.724,736.958 588.439,754.887 562,782C553.6,788.529 548.161,790.779 545.766,788.712C539.696,783.475 541.166,769.11 550,755C602.542,705.857 648.991,687.542 668.107,697.556C679.105,703.318 670.288,731.772 635.161,780C623.613,795.854 605.475,811.675 590,832.13C585.723,837.784 581.566,843.726 577.654,850C630.083,880.833 642.052,892.331 644,899.04C645.313,901.87 645.291,904.964 643.244,908.458C641.718,911.064 644,918 635,917C602.323,907.436 572.148,887.568 542.872,864C528.916,857.294 528.135,844.177 540,824.907C546.946,814.07 554.72,801.406 566.047,790C585.573,770.335 606.511,749.269 623,728ZM370,883C359.871,880.365 359.357,872.497 360,864C352.247,868.512 347.1,874.749 345,883C347.946,898.02 352.856,902.822 360,896C365.735,892.009 369.135,887.685 370,883ZM695,730.295L664.338,749C682.401,705.822 704.898,697.396 730,702.219C741.423,704.413 728.978,728.326 701.426,760C681.773,782.593 658.48,810.663 636,841C643.055,851.152 653.766,861.971 668.552,873.775C674.053,878.167 676.932,884.606 680,890C670.607,902.011 631.062,877.908 585,846C622.975,807.432 660.225,768.863 695,730.295ZM270,810C270.47,824.382 268.5,837.284 262.923,848C258.773,855.975 252.625,862.738 244,868C234.714,875.353 236.944,879.49 245,882C273.439,880.221 290.113,874.016 294.152,854C296.594,841.902 290.119,827.639 270,810ZM660,820C719.523,771.505 753.461,747.33 756.966,743C761.155,737.824 739.843,748.023 695,782C706.676,763.751 718.007,749.188 727,738.347C733.589,730.403 740.399,724.051 747,721.976C769.536,714.889 785.732,718.098 804,723.654C811.142,725.826 779.491,757.346 708,828C699.985,836.202 694.453,843.978 705,849C710.265,856.269 711.598,860.592 710.658,863C700.063,890.108 668.107,869.838 640,840L660,820ZM453,861C463.712,860.5 479.349,848.048 482.824,837C486.831,824.258 484.785,807.691 477,800C468.14,791.246 440.416,789.665 430,798C419.999,806.003 412.881,821.542 418.55,840C422.417,852.59 442.288,861.5 453,861ZM208.001,845.183C209.353,854.896 216.774,861.096 242,857C250.484,854.649 258.833,851.936 260,830C261.112,816.818 258.276,804.899 246,796C242,799 243.706,815.622 237.071,824C230.777,831.948 221.138,839.022 208.001,845.183ZM525,830C528.374,805.642 525.976,786.72 513.888,770C504.058,756.402 488.902,746.149 470,745.138C453.172,744.238 440.387,748.604 427.895,756.429C399.954,773.93 383.542,803.785 380,850C375.416,858.052 371.776,857.623 368.935,850C369.692,805.749 382.752,774.411 420.523,748.476C437.571,736.77 455.791,729.691 478.906,730.336C518.126,731.429 542.313,770.72 536.258,810C535.188,816.944 530.387,823.39 525,830ZM451,853C458.649,853.424 466.62,847.069 471.92,839C478.036,829.688 479.025,819.229 475,812C470.987,804.792 463.259,800.502 455,799.503C445.378,798.34 435.035,801.642 429,810C423.003,818.306 423.583,831.102 428.714,841C433.554,850.338 441.254,852.46 451,853ZM358,845C362.398,850.249 360.731,852.915 353,853C316.188,835.316 280.572,818.792 255.471,792.522C214.819,749.976 181.178,706.532 150,667.079C126.241,637.014 103.912,609.266 81,586C50,615 45.516,597.574 40,594.406C32.583,590.145 26,573 50,558C60.745,554.445 71.155,554.318 81,560C89.003,566.533 97.806,572.29 104.717,580C135.065,613.857 163.343,654.276 191.541,694.915C261.557,795.822 317.139,827.822 358,845ZM220,771C218.493,769.826 217.678,772.024 217.266,777C216.81,782.518 224.277,794.519 216.988,803C208.943,812.361 193.842,818.795 188,827.141C184.381,833.987 186.691,836.571 192,837C216.285,834.467 237.942,828.973 237,798C232.976,781.211 227.778,769.985 220,771ZM460,826C460.968,823.257 459.401,820.374 457,818.422C454.245,816.183 450.795,815.881 448,817C443.312,818.878 440.755,820.363 439.843,822C438.498,824.417 439,831 445,833C449.693,834.564 457.894,831.97 460,826ZM357.5,795.087C369.496,812.76 367.457,817.513 350,808.074C308.108,780.145 269.234,742.568 234.111,693C222.444,678.901 219.108,678.744 227.375,698C258.933,736.667 293.164,775.333 350,814C368.836,829.895 377.59,840.269 345,828C260.708,788.219 213.21,719.509 168,649C190.806,644.94 211.694,635.254 230,618C261.466,677.924 297.229,737.499 357.5,795.087ZM791,791C774.596,799.928 760.492,807.653 756,805.796C750.577,803.555 754.553,793.779 776,774C791.394,761.304 802.25,754.228 810,751C846.801,747.871 863.673,755.49 863.699,772C863.713,780.653 857.142,789.775 842,792.995C834.934,794.497 826.001,794.715 815,793C813,789 824.242,778.148 823.952,775C823.592,771.078 815.683,773.732 791,791ZM400,737C404.592,744.255 405.576,749.166 403.661,752.193C400.942,756.487 389,774 380,755C354.369,722.232 331.601,687.861 313.279,651C308.511,643.896 306.639,643.237 309,652C323.432,690.987 346.828,725.897 372,760C384.006,786.278 381.418,795.56 357.5,780C311.537,741.232 272.69,689.591 241,625C238.996,619.901 238.996,618.901 245,620C275.382,623.436 306.76,611.09 335,583C347.923,639.021 371.127,689.531 400,737ZM618,550C610.697,548.935 595.488,548.86 582,543.439C572.45,539.601 566.058,528.98 560,519C557.843,515.243 555.272,514.536 552,519C511.075,588.189 500.299,656.746 504,725C507.667,734.312 511.333,734.608 515,725C528.778,642.571 550.192,594.809 576,567C550.055,614.935 533.198,667.863 524,725C524,744 532.99,755.21 540,753.887C550,752 549.275,743.958 555,728C553.291,681.723 583.449,617.125 618,550ZM940,440C940.952,435.493 926.236,439.971 887,457.294C879.881,460.437 873.123,459.272 868,458.542C861.231,457.579 857.188,453.983 853,449.344C844.161,439.554 844.008,423.674 875,395C888.074,384.633 898.384,374.751 907.733,366.736C923.67,353.072 936.136,342.709 942.953,334C947.835,327.764 947.755,320.921 945,315C939.88,299.011 930.713,296.283 915,315C900.47,331.644 891.951,339.138 889,338.154C886.447,337.303 888.062,330.106 893.559,317C894.832,313.964 896.314,310.612 898,306.947C909.289,275.853 906.594,259.573 891,254.33C875.414,249.09 858.842,268.381 846,300C839.826,318.2 834.978,336.862 825.499,352.984C808.876,381.258 784.844,402.727 757.516,420C748.83,425.49 741.814,432.625 734.229,438.346C713.72,453.817 699.293,470.808 684.714,484.734C669.586,499.184 658.01,515.217 645.731,530C624.069,556.08 610.446,583.224 595.488,610C582.591,633.086 576.544,658.706 567,685.285C561.16,701.548 560.546,719.597 557,738C574.893,726.76 586.629,712.731 590,694.915C594.023,682.306 597.741,669.549 603.128,657.365C634.592,586.191 676.629,517.891 770,450C785.809,441.536 785.237,444.806 775,455C674.971,528.007 623.805,613.477 596.366,705C621.607,697.124 638.848,677.887 650,650C674.846,601.181 706.021,552.633 760,505.063C702.136,563.192 669.232,623.364 642,684C657.574,688.922 673.043,688.892 688,665C747.637,569.881 790.18,533.925 829.248,510C840.136,504.612 842.632,506.108 835,515.912C775.172,552.862 724.864,609.919 683.224,685.285C677.396,694.622 677.488,700.47 690,699C717.067,692.121 728.908,679.622 735,665C803.539,589.75 837.922,568.411 875,542.819C884.25,540.015 888.343,540.597 879,550C828.305,583.606 778.214,619.394 735,680C729.698,686.748 728.333,692.704 735.229,697C739.35,699.587 742.478,702.572 742,707C742.25,719.029 750.941,716.988 765,706C773.495,698.961 782.302,692.432 790,684.836C818.619,656.593 845.682,630.952 873,610C880.925,607.893 885.083,608.258 878,616C844.447,637.805 816.261,664.95 792,696C786.356,702.752 784.97,708.183 792,711C806.541,714.461 809.109,718.724 808.759,723.183C809.842,735.683 815.633,739.326 823,740C849.575,751.055 860.373,746.154 864,734C874.787,717.373 876.593,703.34 876,690C872.558,681.156 876.558,673.823 888,668C925.65,643.191 937.209,619.014 942,595C946.862,572.444 950.184,551.534 941,544C937.243,537.368 936.537,528.518 941,515.912C949.678,475.748 949.983,449.392 940,440ZM336,422C335.042,482.975 340.367,542.591 347.376,602.453C354.225,660.957 383.625,709.466 416.54,740C389.895,662.763 373.243,585.111 380,506.487C387.155,589.254 397.023,662.302 420,725.696C429.176,733.171 436.499,733.83 440,720C422.027,641.54 413.098,563.916 435,474C438.084,465.317 436.394,459.574 424.683,460C390.476,464.659 360.839,450.133 336,422ZM489,540C471.886,571.945 467.545,632.808 466,700C463.388,729.244 456.166,732.176 442.968,701.009C435.283,659.133 432.724,617.147 432.692,575C432.659,531.631 435.802,486.024 446,465C452.768,470.617 459.338,477.803 466.381,484.734C472.148,490.409 477.263,498.075 485,500.243C516.167,508.975 538.778,504.739 547,510C509.506,576.536 495.698,644.393 495.331,713C491.784,722.239 487.24,727.819 477.416,714C473.621,688.803 471.065,660.794 476.315,615.067C478.711,594.205 493,548 489,540ZM240,379C231.019,392.346 221.272,394.129 211,388C175.407,376.266 148.425,384.161 128,407C122.958,411.125 121.116,415.777 120,419.681C118.681,424.293 118.375,427.86 115,428.274C109.658,428.93 102.958,425.064 95,417C69.841,407.096 44.855,411.99 20,428C28.7,441.8 37.466,456.171 47.63,470C79.244,513.015 112.105,557.233 142,601C156.976,620.12 177.249,620.961 205,596C216.697,586.699 228.645,582.9 241,588C267.364,596.165 292.706,588.845 314.864,565C327.679,551.209 332.609,529.196 331,500L331,365C290.162,347.004 260.022,352.088 240,379ZM132.5,564.5C142.957,586.836 170.725,586.05 194,569.401C200.523,564.735 204.682,555.991 208,545C208.058,533.117 206.242,531.746 202,544C198.091,553.43 193.368,560.557 187.5,565.111C168.547,579.824 147.509,579.769 132.5,564.5ZM120,524C119.536,538.545 134.274,544.922 160,542.208C170.657,541.084 180.871,530.724 186.301,521.5C188.544,517.69 189.906,513.748 190,510C189.997,505.053 188.32,505.912 186,509C181.398,522.258 174.182,530.235 164.5,532.944C148.979,537.288 132.419,534.156 120,524ZM647.988,515C616.909,514.677 581.53,500.84 580,484.734C579.554,480.043 577.113,471.628 560,474C524.684,482.245 493.453,479.033 475,440C468.373,422.711 458.625,419.595 447,425C404.17,438.498 370.616,419.259 345,372C336.348,385.016 336.784,400.565 345,418.282C361.135,442.645 382.349,455.264 410,453C435.912,447.003 453.22,454.858 466,470C473.282,484.789 485.74,497.027 517,500C533.94,500.715 549.521,500.104 558.386,506.487C562.276,509.288 563.76,514.941 566.948,519C576.439,531.083 600.989,554.296 630,533C637.387,527.784 642.915,521.52 647.988,515ZM239,524.653C250.712,545.829 273.109,546.793 300,527.039C305.775,522.796 309.53,515.118 313,506C313.995,500.439 312.328,500.106 308,505C302.058,518.01 294.603,525.871 286,529.826C272.644,535.965 256.522,532.69 239,524.653ZM170.251,490C165.995,500.887 154.89,504.783 140,505.052C127.523,505.276 116.608,502.283 112,495C103.571,467.485 112.238,453.485 138,453C172.645,453.371 175.397,469.708 170.251,490ZM234,488C235.545,495.07 238.853,498.857 243.19,501C261.966,510.277 285.678,503.602 296,474C296.657,467.438 294.964,466.09 290,472C288.299,474.909 285.79,477.143 284,479.92C276.274,491.902 268.227,496.536 260,499.166C253.411,501.272 247.541,496.995 243,489.595C241.116,486.525 236.649,487.384 234,488ZM316,66C323.493,84.545 327.607,106.542 332,130C345.417,201.649 332.379,298.339 350,363.473C351.646,369.556 354.495,374.923 357.151,380C370.221,404.99 390.094,419.335 420,420.544C431.091,420.992 443.386,418.125 457,414C464.217,412.203 469.768,413.763 473,420C488.168,457.261 511.894,483.203 569,465C575.433,461.176 580.456,462.756 584,470C590.992,488.872 602.768,499.66 620,502.959C636.053,506.033 653.23,499.953 672,483C701.526,455.017 738.269,427.041 764.592,400C772.35,392.03 769.693,379.814 765,370C758.761,347.551 749.059,327.615 721,321C711.975,316.46 705.645,309.135 703,298C682.238,235.871 645.944,188.917 583,168C570.763,164.228 557.127,161.211 542,159C533.197,159.015 526.614,155.728 521,151C455.848,83.884 388.417,44.544 316,66ZM259,419C250.114,416.334 241.889,421.364 234,429.575C224.271,439.703 225.816,449.228 235,458C255.766,476.142 274.07,471.438 291,454C296.498,446.177 297.771,440.023 281,426.256C275.364,421.63 268.574,418.598 259,419ZM597,425C594.745,438.124 598.692,446.848 605.922,454C619.676,467.606 637.882,472.654 655,465C663.568,461.989 664.942,459.826 655,459C647.46,459.343 640.889,458.442 635,458.132C627.022,457.712 620.134,456.591 615.401,453C606.307,446.098 601.409,435.553 597,425ZM617,388C613.195,391.486 612.513,394.709 612.816,398C615.848,430.869 644.928,444.974 680,428C685.274,422.732 683.94,420.555 677,421C672.169,423.355 667.524,424.661 663.366,426C652.205,429.595 642.983,429.342 636.611,424C629.707,418.213 626.296,406.761 622,390.776C621.505,388.936 618.667,388.926 617,388ZM664,393C655.355,393.543 605.242,365.157 651,338C659.019,333.241 679.54,336.249 687,342C698.107,350.562 700.645,361.028 697.339,370C692.644,382.741 674.13,392.796 664,393ZM815,320C827.332,334.669 826.827,349.673 814,365C790.815,393.824 776.182,401.244 775,375C769.823,352.009 758.354,331.761 732,318C717.688,315.614 714.525,308.901 717,300C725.29,258.84 723.936,216.01 710,171C702,142 719.295,132.017 730,127.658C739.131,123.939 761,123 768,143C770.418,158.282 771.839,172.893 772.316,185C772.56,191.193 775.057,194.563 776.819,194.84C779.915,195.327 783.874,185.879 789,163C796.553,143.66 804.085,136.923 810.759,138.77C837.416,146.15 829.199,162.997 823,193C796.215,247.442 795.802,288.643 815,320ZM479,345C478.382,352.11 480.896,357.366 483.565,362.659C488.51,372.472 495.139,380.128 504,383.585C525.419,391.942 550.629,390.306 565,373C566.623,369.657 566.672,367.385 561,369C556.607,371.994 520.63,387.023 507,379.216C503.119,376.994 499.503,373.367 496.161,369C492.747,364.537 489.621,359.301 486.794,354C484.118,348.98 480.907,345.913 479,345ZM330,360C330.868,331.407 327.479,305.502 327.298,281.925C327.152,263.067 321.758,246.133 321.391,230C320.608,195.492 305.985,171.258 280,158.004C254.875,145.189 222.308,137.081 186.249,149.259C160.377,157.996 136.104,176.506 123.082,195.92C108.785,217.234 94.973,239.97 99.736,258.349C110.844,301.216 133.13,324.603 170,335.608C182.694,339.397 198.173,336.944 211.639,329.544C234.989,316.714 236.652,294.569 233.441,279.925C231.199,269.701 220.547,268.995 211.639,268.475C201.578,267.888 194.773,270.804 190,280.322C186.883,286.537 196.7,297.927 204.819,303C188.58,308.99 167.953,309.066 154.995,304.072C142.346,299.196 133.728,288.871 128.144,274.476C121.006,256.072 128.352,230.751 144.587,205.944C153.769,191.915 169.056,179.566 190,172.188C228.155,158.746 273.119,168.408 288.244,200C293.126,210.198 295.229,221.519 297.552,233.079C301.195,251.211 302.566,271.09 300,294.765L302,327.492C303.263,348.774 315.242,356.185 330,360ZM509,302C507.181,317.1 507.894,328.889 512.927,336C526.473,355.141 555.428,363.393 577,332C578.634,326.784 577.049,326.721 574,329C564.156,337.023 557.106,342.477 550,344.855C529.824,351.606 515.507,338.692 509,302ZM462,282C455.112,287.038 448.252,290.995 442,294.743C428.622,302.762 418.6,305.792 411,304.396C402.52,302.838 395.27,297.573 383,282C372.721,275.53 371.954,278.2 376,287C384.231,296.074 392.217,301.654 399.112,306C410.803,313.37 422.348,312.282 434,305.86C443.47,300.64 452.682,291.949 462,282ZM528,278C530.243,269.871 534.887,260.616 548,255.59C559.205,251.296 571.225,252.427 581,257C588.938,260.714 593.152,270.438 593.723,280C594.388,291.142 588.581,297.871 581,303C561.966,315.877 523.439,294.528 528,278ZM463,240C457.612,245.871 451.692,250.465 446,254.55C425.527,269.244 406.32,268.966 379,238C377.201,233.867 377.64,231.734 383,234C395.855,247.528 408.144,258.789 420,258.365C426.049,258.149 431.662,256.139 437,254.348C446.855,251.041 455.566,246.216 463,240ZM397.655,201C394.151,192 401.96,181.173 409,174.745C423.281,161.705 452.62,171.171 457,185C459.832,193.942 460.272,205.788 454.207,213C447.828,220.586 433.869,224.462 422,223C408.44,221.33 401.695,211.377 397.655,201Z" style="fill:white;"/>
    </g>
</svg>
