<?xml version="1.0" encoding="UTF-8" standalone="no"?>
<!DOCTYPE svg PUBLIC "-//W3C//DTD SVG 1.1//EN" "http://www.w3.org/Graphics/SVG/1.1/DTD/svg11.dtd">
<svg width="100%" height="100%" viewBox="0 0 1000 1000" version="1.1" xmlns="http://www.w3.org/2000/svg" xmlns:xlink="http://www.w3.org/1999/xlink" xml:space="preserve" xmlns:serif="http://www.serif.com/" style="fill-rule:evenodd;clip-rule:evenodd;stroke-linejoin:round;stroke-miterlimit:2;">
    <g transform="matrix(3.54541,0,0,3.54541,-1270.93,-1291.84)">
        <path d="M581.044,460.066C611.84,505.56 621.356,545.047 590,573C598.304,546.978 595.016,514.422 580,475.256C603.824,556.142 587.795,605.999 522.621,617.582C522.434,620.886 522.026,624.295 521,628C527.167,632.614 525.026,633.395 516,631C517.755,626.811 517.856,622.649 516.716,618.509C511.29,619.251 505.554,619.75 499.5,620L498.515,619.957C489.178,619.527 480.606,618.501 472.791,616.895C471.146,621.568 471.017,626.266 473,631C463.974,633.395 461.833,632.614 468,628C466.744,623.468 466.415,619.377 466.283,615.38C425.643,604.742 407.387,576.673 408.613,533.435C446.123,483.602 505.468,461.519 581.044,460.066ZM499.385,386.691C499.363,386.151 499.361,385.622 499.391,385.094C499.428,384.442 499.493,383.804 499.634,383.187C499.778,382.557 499.995,381.956 500.235,381.372C500.604,380.474 501.055,379.659 501.504,378.82C501.604,378.546 501.907,378.404 502.18,378.504C502.454,378.604 502.596,378.907 502.496,379.18C502.307,380.082 502.184,380.973 502.011,381.897C501.902,382.481 501.803,383.069 501.663,383.66C501.527,384.233 501.347,384.797 501.188,385.385C501.07,385.822 500.946,386.257 500.83,386.703C513.476,386.938 524.894,390.525 535.112,396.864C535.353,396.52 535.608,396.197 535.888,395.905C536.321,395.455 536.801,395.08 537.295,394.752C538.09,394.224 538.902,393.852 539.743,393.539C539.997,393.397 540.319,393.488 540.461,393.743C540.603,393.997 540.512,394.319 540.257,394.461C539.828,394.803 539.45,395.182 539.045,395.583C538.741,395.884 538.46,396.205 538.153,396.528C537.863,396.835 537.58,397.157 537.27,397.469C537.114,397.627 536.953,397.781 536.789,397.935C537.197,398.205 537.604,398.478 538.007,398.755C538.252,398.269 538.516,397.801 538.819,397.346C539.154,396.844 539.515,396.362 539.94,395.936C540.364,395.511 540.842,395.146 541.344,394.813C542.092,394.317 542.879,393.934 543.712,393.558C543.955,393.399 544.283,393.468 544.442,393.712C544.601,393.955 544.532,394.283 544.288,394.442C543.652,395.014 543.113,395.627 542.532,396.234C542.155,396.628 541.796,397.033 541.408,397.414C541.021,397.796 540.608,398.143 540.212,398.519C539.849,398.862 539.488,399.196 539.137,399.546C545.967,404.421 552.226,410.569 557.918,417.788C558.115,417.754 558.313,417.734 558.511,417.735C558.876,417.737 559.229,417.807 559.576,417.901C560.115,418.047 560.571,418.259 561.078,418.478C561.366,418.521 561.565,418.79 561.522,419.078C561.479,419.366 561.21,419.565 560.922,419.522C560.407,419.578 559.95,419.691 559.43,419.747L559.43,419.747C561.175,422.059 562.865,424.474 564.5,426.984C564.583,426.964 564.667,426.945 564.752,426.927C565.164,426.84 565.579,426.769 566.003,426.767C566.422,426.766 566.837,426.83 567.251,426.918C567.879,427.051 568.447,427.26 569.063,427.476C569.353,427.511 569.559,427.774 569.524,428.063C569.489,428.353 569.226,428.559 568.937,428.524C568.32,428.584 567.76,428.705 567.154,428.768C566.765,428.808 566.383,428.855 565.996,428.851C565.892,428.85 565.788,428.845 565.685,428.837C566.063,429.437 566.437,430.042 566.808,430.652C567.039,430.623 567.271,430.605 567.503,430.605C568.003,430.604 568.497,430.678 568.984,430.785C569.721,430.948 570.395,431.202 571.101,431.482C571.387,431.537 571.574,431.815 571.518,432.101C571.463,432.387 571.185,432.574 570.899,432.518C570.194,432.514 569.531,432.595 568.83,432.631C568.559,432.645 568.289,432.665 568.018,432.677C571.946,439.368 575.528,446.652 578.768,454.428C499.474,455.63 443.627,480.963 408.864,528.008C409.864,512.272 413.286,494.657 419,475.256C403.984,514.422 400.696,546.978 409,573C377.628,545.033 387.17,505.52 418,460C421.583,450.689 425.627,442.015 430.139,434.131C429.811,434.051 429.481,433.981 429.158,433.855C428.835,433.728 428.534,433.554 428.224,433.377C427.749,433.106 427.341,432.796 426.848,432.506C426.569,432.422 426.411,432.127 426.494,431.848C426.578,431.569 426.873,431.411 427.152,431.494C427.749,431.524 428.285,431.537 428.849,431.633C429.224,431.698 429.589,431.78 429.932,431.92C430.285,432.064 430.599,432.265 430.907,432.473C430.954,432.505 431,432.537 431.045,432.569C431.657,431.529 432.277,430.503 432.904,429.495C432.557,429.294 432.187,429.08 431.849,428.813C431.503,428.54 431.199,428.222 430.921,427.923C430.157,427.101 429.67,426.412 429.67,426.412C429.443,426.23 429.406,425.898 429.588,425.67C429.77,425.443 430.102,425.406 430.33,425.588C430.33,425.588 431.109,425.912 432.079,426.477C432.431,426.682 432.808,426.909 433.151,427.187C433.427,427.41 433.673,427.664 433.903,427.91C436.894,423.236 440.07,418.889 443.434,414.905C443.206,414.802 442.957,414.685 442.695,414.557C442.282,414.355 441.837,414.14 441.422,413.867C441.008,413.594 440.632,413.273 440.286,412.971C439.344,412.145 438.707,411.439 438.707,411.439C438.465,411.278 438.399,410.95 438.561,410.707C438.722,410.465 439.05,410.399 439.293,410.561C439.293,410.561 440.189,410.877 441.314,411.429C441.726,411.632 442.166,411.856 442.578,412.133C442.99,412.411 443.359,412.739 443.705,413.043C443.981,413.285 444.231,413.516 444.448,413.721C448.394,409.185 452.591,405.143 457.045,401.655C456.649,401.151 456.287,400.642 455.964,400.101C455.654,399.58 455.373,399.05 455.167,398.491C454.958,397.927 454.826,397.345 454.724,396.76C454.57,395.87 454.528,395.001 454.483,394.107C454.424,393.822 454.608,393.542 454.893,393.483C455.178,393.424 455.458,393.608 455.517,393.893C455.817,394.696 456.173,395.445 456.503,396.244C456.714,396.752 456.936,397.254 457.124,397.778C457.309,398.292 457.45,398.82 457.622,399.349C457.783,399.845 457.934,400.339 458.108,400.836C459.17,400.033 460.247,399.26 461.337,398.52C461.239,398.364 461.144,398.206 461.052,398.046C460.753,397.525 460.477,397.004 460.271,396.46C460.059,395.9 459.919,395.327 459.805,394.755C459.628,393.863 459.56,393.001 459.487,392.124C459.419,391.841 459.593,391.555 459.876,391.487C460.159,391.419 460.445,391.593 460.513,391.876C460.836,392.659 461.216,393.396 461.571,394.196C461.794,394.698 462.027,395.201 462.222,395.731C462.412,396.246 462.556,396.78 462.722,397.322L462.793,397.557C472.136,391.529 482.499,387.824 493.906,386.912C493.867,386.698 493.835,386.485 493.81,386.272C493.73,385.602 493.704,384.946 493.772,384.308C493.843,383.643 494.009,383.006 494.224,382.396C494.554,381.46 495.007,380.623 495.515,379.792C495.63,379.524 495.94,379.4 496.208,379.515C496.476,379.63 496.6,379.94 496.485,380.208C496.294,380.936 496.188,381.659 496.078,382.414C496.008,382.891 495.963,383.367 495.911,383.858C495.878,384.171 495.849,384.489 495.81,384.809C495.752,385.28 495.677,385.752 495.63,386.246C495.613,386.429 495.595,386.613 495.58,386.798C496.833,386.729 498.103,386.692 499.385,386.691ZM495,450.5C495.423,449.849 493,449.729 492,449.711C491,449.693 488.791,449.932 489,450.5C489.464,451.76 490.627,452.127 491.516,452.199C492.611,452.287 494.079,451.919 495,450.5ZM498,449C496.355,444.304 494.039,443.416 491.5,443.562C488.721,443.722 487.185,445.781 486.5,449C486.141,450.686 489.833,448.333 491.5,448.29C493.667,448.235 498.681,450.944 498,449ZM482,428C482,423.033 477.967,419 473,419C468.033,419 464,423.033 464,428L464,439C464,443.967 468.033,448 473,448C477.967,448 482,443.967 482,439L482,428ZM521,427C521,422.033 516.967,418 512,418C507.033,418 503,422.033 503,427L503,438C503,442.967 507.033,447 512,447C516.967,447 521,442.967 521,438L521,427ZM479,429.897C479,426.642 476.358,424 473.103,424C469.849,424 467.207,426.642 467.207,429.897L467.207,437.103C467.207,440.358 469.849,443 473.103,443C476.358,443 479,440.358 479,437.103L479,429.897ZM518,429.897C518,426.642 515.358,424 512.103,424C508.849,424 506.207,426.642 506.207,429.897L506.207,437.103C506.207,440.358 508.849,443 512.103,443C515.358,443 518,440.358 518,437.103L518,429.897Z" style="fill:white;"/>
    </g>
</svg>
