<?xml version="1.0" encoding="UTF-8" standalone="no"?>
<!DOCTYPE svg PUBLIC "-//W3C//DTD SVG 1.1//EN" "http://www.w3.org/Graphics/SVG/1.1/DTD/svg11.dtd">
<svg width="100%" height="100%" viewBox="0 0 1000 1000" version="1.1" xmlns="http://www.w3.org/2000/svg" xmlns:xlink="http://www.w3.org/1999/xlink" xml:space="preserve" xmlns:serif="http://www.serif.com/" style="fill-rule:evenodd;clip-rule:evenodd;stroke-linejoin:round;stroke-miterlimit:2;">
    <g transform="matrix(1.03448,0,0,1.03448,-17.2414,-12.069)">
        <path d="M493.089,607.426C480.269,557.679 447.209,509.431 386.277,462.273C460.1,503.445 507.467,513.545 530.297,475.682C556.541,432.158 462.31,370.563 281.798,274.545C383.255,236.091 449.047,156.104 500.999,60C546.565,158.55 620.208,228.815 718.202,274.545C669.097,274.864 631.332,290.132 600.679,314.773L645.018,266.168C621.444,245.522 598.196,224.779 563.299,207.5C602.611,282.303 533.171,324.887 500.999,324.887C468.826,324.887 402.759,295.004 434.557,207.5C415.527,229.796 392.278,251.722 363.938,273.205C448.653,359.106 555.161,353.698 657.207,302.705C608.283,368.766 585.874,432.82 613.139,493.114C563.112,509.844 523.313,549.188 507.381,611.043C506.477,619.411 507.715,676.414 512.768,697.874C522.538,739.366 562,810.054 562,860C562,898.634 538.634,930 500,930C461.366,930 438,898.634 438,860C438,809.713 477.751,739.155 487.599,697.06C492.834,674.684 494.306,616.623 493.089,607.426ZM533.796,209.405C558.683,272.133 517.282,285.342 500.999,285.342C484.716,285.342 447.08,273.223 463.618,209.405C428.706,246.976 463.887,298.923 500.999,298.923C538.11,298.923 568.32,246.559 533.796,209.405Z" style="fill:white;"/>
    </g>
</svg>
