<?xml version="1.0" encoding="UTF-8" standalone="no"?>
<!DOCTYPE svg PUBLIC "-//W3C//DTD SVG 1.1//EN" "http://www.w3.org/Graphics/SVG/1.1/DTD/svg11.dtd">
<svg width="100%" height="100%" viewBox="0 0 1000 1000" version="1.1" xmlns="http://www.w3.org/2000/svg" xmlns:xlink="http://www.w3.org/1999/xlink" xml:space="preserve" xmlns:serif="http://www.serif.com/" style="fill-rule:evenodd;clip-rule:evenodd;stroke-linejoin:round;stroke-miterlimit:2;">
    <g transform="matrix(2.33161,0,0,2.33161,-22.2798,-623.053)">
        <path d="M222.22,391.862C223.461,391.973 224.554,392.162 225.453,392.422C228.693,393.358 230.101,395.398 230.232,397.209C230.253,397.502 230.568,397.712 230.867,398.028C231.362,398.551 232.004,399.082 232.766,399.635C236.05,402.022 241.284,404.642 247.556,407.671C266.779,405.494 279.865,410.035 293.277,414.552C294.694,415.03 295.601,416.414 295.471,417.904C295.341,419.394 294.209,420.601 292.731,420.826C276.561,423.291 261.957,426.241 250.218,431.003C240.434,434.972 217.216,440.294 190.871,443.909C193.744,449.553 199.022,454.607 207,459C206.476,456.187 206.406,453.501 207,451C213.711,459.061 222.113,463.933 232,466C230.938,464.614 230.271,463.281 230,462C232.788,463.884 235.736,465.605 239,467C238.651,465.417 238.651,464.084 239,463C242.585,464.818 246.353,466.569 251,468C249.652,466.667 248.629,465.333 248,464C253.163,465.547 258.416,466.802 264,467C262.318,465 261.227,463 261,461C264.717,462.264 268.387,462.658 272,462L266,458C269.707,458.421 273.389,458.589 277,458C275.607,457.046 274.561,456.051 274,455C284,455.481 294,455.21 304,454C307.131,470.549 294.047,480.83 290.287,495C269.775,572.304 368.354,597.493 403.906,584.042C365.916,585.528 321.317,523.067 350.086,475C363.504,452.58 364.208,434.213 357.302,419.728C352.775,414.928 347.764,410.552 342.452,406.762C322.898,392.807 299.233,386.744 280.403,396.765C269.683,402.467 259.795,405.145 252.147,405.158C243.214,405.174 237.281,401.563 236.249,395.05C235.877,392.703 237.483,390.123 240.866,387.662C245.441,384.333 253.304,381.072 263.151,378.475C258.776,378.634 254.365,378.993 250,379.578C242.825,380.539 232.595,383.891 222.22,391.862ZM53.674,436.181C70.696,429.213 96.72,423.239 128.943,421.174C138.951,420.536 148.761,419.683 158.33,419.138C165.012,418.757 171.576,418.527 178.01,418.623C195.448,418.883 211.89,418.714 227.001,418.339C245.532,417.88 262.062,417.112 275.972,416.442C276.28,416.427 276.542,416.664 276.558,416.972C276.573,417.28 276.336,417.542 276.028,417.558C262.113,418.288 245.577,419.129 227.037,419.668C211.91,420.107 195.45,420.344 177.99,420.156C171.593,420.087 165.067,420.344 158.425,420.749C148.861,421.333 139.059,422.225 129.057,422.903C101.257,424.78 78.122,429.562 61.485,435.355C64.68,437.696 69.82,438.537 76.323,438.285C91.727,437.687 106.43,442.97 120,444.074C164.388,447.682 230.636,435.45 249,428C260.942,423.156 275.793,420.13 292.243,417.623C279.026,413.171 266.144,408.635 247,411C235.555,405.487 227.272,401.215 227,397.442C226.701,393.289 205.377,393.726 195,403C176.346,403.245 165.47,400.685 150,404.987C141.238,407.423 123.995,406.704 110,405.551C80.344,403.107 45.693,426.747 31,444L53.674,436.181ZM250.543,403.525C243.433,403.183 238.635,400.229 237.755,394.808C237.443,392.882 238.976,390.9 241.747,388.868C247.094,384.946 257.055,381.138 269.429,378.38C285.172,378.474 299.967,381.037 310,384.766C341.245,396.38 379.83,384.821 392.892,375.844C382.829,382.834 373.998,389.866 334.834,395.873C335.322,396.182 335.806,396.496 336.281,396.811C361.745,405.618 389.06,406.624 417,405C400.088,409.303 384.387,414.44 349,406C368.249,415.774 378.935,428.304 386,442C377.091,432.474 367.796,424.42 358.146,417.746C353.676,413.104 348.766,408.87 343.573,405.186C323.391,390.867 298.96,384.869 279.597,395.256C273.909,398.309 268.463,400.492 263.48,401.851C265.679,400.438 267.613,398.462 269,396C264.65,390.007 259.425,387.204 254.591,387.557C258.245,387.872 262.137,390.678 266,396C264.272,399.067 261.966,401.379 259.461,402.789C259.024,402.873 258.592,402.95 258.164,403.02C260.151,401.639 261.5,399.241 261.5,396C261.5,385.781 249.486,384.748 243.554,395.898L243.5,396L243.557,396.15C245.024,399.958 247.57,402.357 250.543,403.525ZM207.723,403.477C210.032,402.189 212.34,401.448 214.665,401.325C216.936,401.205 219.218,401.704 221.537,402.933C222.028,402.637 222.363,402.524 222.5,402.248C222.637,401.972 222.524,401.637 222.248,401.5L222.463,401.067C219.743,399.806 217.104,399.355 214.523,399.656C212.005,399.949 209.55,400.94 207.144,402.523C206.881,402.683 206.797,403.026 206.956,403.29C207.116,403.553 207.46,403.637 207.723,403.477ZM258.195,399.645C257.342,400.914 255.893,401.75 254.25,401.75C251.628,401.75 249.5,399.622 249.5,397C249.5,394.378 251.628,392.25 254.25,392.25C254.889,392.25 255.498,392.376 256.055,392.605C255.547,393.361 255.25,394.271 255.25,395.25C255.25,397.233 256.468,398.934 258.195,399.645Z" style="fill:white;"/>
    </g>
</svg>
