<?xml version="1.0" encoding="UTF-8" standalone="no"?>
<!DOCTYPE svg PUBLIC "-//W3C//DTD SVG 1.1//EN" "http://www.w3.org/Graphics/SVG/1.1/DTD/svg11.dtd">
<svg width="100%" height="100%" viewBox="0 0 1000 1000" version="1.1" xmlns="http://www.w3.org/2000/svg" xmlns:xlink="http://www.w3.org/1999/xlink" xml:space="preserve" xmlns:serif="http://www.serif.com/" style="fill-rule:evenodd;clip-rule:evenodd;stroke-linejoin:round;stroke-miterlimit:2;">
    <g transform="matrix(0.981854,0,0,0.982016,9.07308,8.99213)">
        <path d="M511.271,324.816C535.205,355.651 569.267,393.425 570.584,399.588C589.593,488.542 602.85,541.276 644.125,551.457C678.952,566.038 704.893,571.196 724.541,569.677C720.908,584.094 716.64,598.153 707.205,609.314C743.341,628.788 768.062,653.458 794.79,666.94C857.105,698.372 875.927,732.353 887.023,768.716C871.334,803.401 853.877,796.691 835.866,768.861L826.114,748.251C797.804,742.983 793.301,736.391 787.912,729.848C778.671,720.394 768.979,721.247 759.132,725.615C755.058,740.456 749.315,754.661 740.176,767.57C732.806,780.516 734.717,788.615 742.752,793.517C773.691,820.588 779.961,845.012 766.415,867.309C761.087,874.054 755.77,877.285 750.478,871.357C738.728,865.729 731.822,876.447 726.776,893.439C722.133,917.926 707.986,936.662 687.542,951.587C642.085,969.156 642.956,948.861 646.507,926.375C656.183,909.539 662.081,901.917 657.365,896.013C654.907,885.748 658.938,880.608 666.382,878.163C685.281,862.83 685.138,851.474 678.16,841.544C673.789,832.502 674.59,820.312 676.968,806.19C679.597,790.583 667.401,773.699 658.841,755.607C625.844,749.145 617.826,743.216 623.142,737.572C619.204,732.329 612.936,729.677 605.292,728.555C598.642,725.952 595.923,716.611 596.46,701.688C601.485,686.172 595.878,681.764 586.708,681.077C581.023,681.581 569.856,680.259 568.26,670.694C567.368,665.351 563.478,661.386 558.186,657.706C546.135,661.026 540.821,646.754 536.84,628.999C530.944,613.211 517.262,609.332 503.129,606.143C486.557,610.046 473.613,610.24 470.779,600.106C471.159,593.994 464.146,586.505 454.77,578.575C433.612,530.971 406.423,483.705 363.132,462.825C362.355,446.008 351.501,430.11 338.291,414.428C335.191,410.983 330.871,408.196 330.685,404.36C329.239,374.548 335.748,356.205 318.051,334.747C323.219,312.637 318.587,296.601 299.099,289.773C286.075,289.56 273.947,288.091 269.104,276.412C253.307,248.59 230.787,252.842 207.459,260.953C181.498,299.14 160.488,295.309 141.212,276.776C153.91,254.634 143.211,246.989 127.043,242.733C106.835,225.932 111.461,208.464 121.892,190.839C130.523,186.995 129.204,181.688 122.849,175.639C113.499,163.69 117.657,152.334 134.26,141.523C151.126,137.231 150.989,126.587 144.749,113.663C133.791,89.33 150.536,82.856 182.069,85.914C202.412,96.384 213.853,93.19 224.136,78.039C248.741,52.138 255.905,54.269 254.757,69.759C255.261,78.852 258.738,85.539 264.509,90.37C266.148,124.18 273.271,118.93 283.279,93.13C296.025,61.078 309.358,52.607 323.579,79.882C332.631,76.283 341.068,76.866 348.606,83.563C346.307,64.71 355.779,59.876 375.326,67.039C378.153,39.134 390.701,35.365 414.706,60.048C428.437,44.065 453.488,36.809 483.333,45.424C489.52,47.209 492.021,50.698 489.123,58.21C498.495,61.497 507.542,63.401 508.047,68.613C508.686,75.211 509.84,80.189 516.21,82.648C586.463,98.767 594.509,111.493 569.169,122.398C579.98,133.357 580.782,143.198 564.936,151.178C573.243,173.559 562.231,181.707 534.241,177.344C530.307,189.154 522.713,194.429 511.459,193.169C502.4,192.373 501.188,202.269 501.889,214.773C507.458,232.062 504.783,244.256 495.116,252.128C491.217,277.548 485.275,303.229 511.271,324.816Z" style="fill:white;"/>
    </g>
</svg>
