<?xml version="1.0" encoding="UTF-8" standalone="no"?>
<!DOCTYPE svg PUBLIC "-//W3C//DTD SVG 1.1//EN" "http://www.w3.org/Graphics/SVG/1.1/DTD/svg11.dtd">
<svg width="100%" height="100%" viewBox="0 0 1000 1000" version="1.1" xmlns="http://www.w3.org/2000/svg" xmlns:xlink="http://www.w3.org/1999/xlink" xml:space="preserve" xmlns:serif="http://www.serif.com/" style="fill-rule:evenodd;clip-rule:evenodd;stroke-linejoin:round;stroke-miterlimit:2;">
    <g transform="matrix(1.07143,0,0,1.07143,-35.7143,-35.7143)">
        <path d="M500,790C513.333,790 540,853 540,880C540,902.077 522.077,920 500,920C477.923,920 460,902.077 460,880C460,853 486.667,790 500,790ZM304.166,695.834C310.913,702.582 292.526,747.958 278.863,761.621C267.691,772.793 249.551,772.793 238.379,761.621C227.207,750.449 227.207,732.309 238.379,721.137C252.042,707.474 297.418,689.087 304.166,695.834ZM695.834,695.834C702.582,689.087 747.958,707.474 761.621,721.137C772.793,732.309 772.793,750.449 761.621,761.621C750.449,772.793 732.309,772.793 721.137,761.621C707.474,747.958 689.087,702.582 695.834,695.834ZM435.154,268.878C455.786,263.093 477.535,260 500,260C500.29,260 500.579,260.001 500.867,260.002L500.976,260.002L501.085,260.003L501.304,260.003L501.941,260.008L501.953,260.008C502.241,260.01 502.53,260.013 502.818,260.016L502.925,260.017L503.035,260.019L503.258,260.022L503.88,260.031L503.901,260.031C504.189,260.036 504.477,260.041 504.765,260.047L504.87,260.049L504.98,260.051L505.207,260.055L505.819,260.069L505.846,260.07C506.134,260.077 506.422,260.084 506.71,260.092L506.811,260.095L506.919,260.098L507.153,260.105L507.757,260.123L507.785,260.124C508.074,260.133 508.363,260.143 508.652,260.154L508.749,260.157L508.854,260.161L509.095,260.17L509.696,260.193L509.721,260.194C510.011,260.205 510.301,260.217 510.592,260.23L510.682,260.234L510.783,260.239L511.033,260.25L511.635,260.278L511.651,260.278C511.944,260.292 512.237,260.307 512.529,260.322L512.612,260.326L512.707,260.331L512.967,260.345L513.576,260.378C513.872,260.395 514.167,260.412 514.463,260.43L514.538,260.434L514.625,260.439C515.215,260.475 515.804,260.513 516.394,260.552L516.459,260.557L516.537,260.562C517.132,260.603 517.727,260.645 518.321,260.69L518.377,260.694L518.445,260.7C519.045,260.745 519.644,260.793 520.244,260.843L520.29,260.847L520.348,260.852C520.953,260.903 521.558,260.956 522.162,261.012L522.199,261.015L522.247,261.02C522.857,261.076 523.466,261.134 524.074,261.195L524.104,261.198L524.143,261.202C524.756,261.263 525.369,261.327 525.981,261.393L526.005,261.395L526.037,261.399C526.652,261.465 527.266,261.534 527.88,261.605L527.901,261.608L527.929,261.611C528.544,261.682 529.158,261.756 529.771,261.832L529.793,261.835L529.822,261.838C530.433,261.914 531.043,261.992 531.653,262.073L531.68,262.076L531.718,262.081C532.321,262.161 532.923,262.243 533.525,262.327L533.562,262.333L533.617,262.34L533.959,262.388L534.492,262.465L534.505,262.467C534.799,262.509 535.092,262.552 535.386,262.595L535.44,262.603L535.522,262.616L535.839,262.663L536.315,262.735L536.378,262.744L536.4,262.748C536.678,262.79 536.956,262.833 537.234,262.877L537.314,262.889L537.435,262.908L537.715,262.952L538.117,263.016L538.248,263.037L538.298,263.045C538.555,263.086 538.812,263.128 539.069,263.17L539.182,263.189L539.36,263.218L539.586,263.255L539.896,263.308L540.115,263.344L540.2,263.358C540.411,263.394 540.621,263.43 540.831,263.466L540.983,263.492L541.023,263.499L541.046,263.503L541.126,263.517L541.603,263.6L541.841,263.642L541.976,263.665L542.084,263.684C542.34,263.73 542.597,263.776 542.853,263.822L542.905,263.831L543.086,263.864L543.461,263.932L543.648,263.967L543.832,264.001L543.979,264.028L544.079,264.047L544.582,264.141L544.758,264.174L545.03,264.226L545.314,264.28L545.456,264.307L545.683,264.351L545.864,264.386L545.93,264.398L546.268,264.464L546.607,264.531L546.954,264.6L547.161,264.641L547.267,264.662L547.53,264.715L547.737,264.757L547.776,264.764L547.979,264.806L548.451,264.902L548.852,264.985L549.004,265.016L549.082,265.033L549.371,265.093L549.597,265.14L549.617,265.145L549.723,265.167L550.29,265.287L550.724,265.38L550.841,265.406L550.903,265.419L551.207,265.485L551.443,265.536L552.123,265.686L552.567,265.785L552.673,265.809L552.73,265.822L553.038,265.891L553.274,265.945L553.952,266.099L554.382,266.199L554.5,266.226L554.564,266.241L554.864,266.311L555.09,266.364L555.108,266.368L555.212,266.393L555.775,266.526L556.169,266.621L556.321,266.657L556.406,266.678L556.684,266.745L556.892,266.796L556.927,266.804L557.144,266.857L557.592,266.967L557.931,267.051L558.137,267.102L558.254,267.132L558.499,267.193L558.68,267.238L558.741,267.253L559.132,267.353L559.405,267.422L559.669,267.49L559.947,267.561L560.108,267.602L560.309,267.654L560.455,267.692L560.549,267.716L560.741,267.767L561.212,267.89L561.397,267.939L561.49,267.964L561.945,268.085L562.113,268.129L562.197,268.152L562.771,268.306L562.913,268.345L563.013,268.372L563.146,268.408L563.411,268.48L563.81,268.59L563.911,268.618L563.951,268.629C564.231,268.706 564.51,268.784 564.79,268.862L564.809,268.868L564.855,268.881L565.325,269.013L565.647,269.104L565.704,269.12L565.746,269.132C566.318,269.295 566.889,269.46 567.459,269.627L567.492,269.636L567.535,269.649L567.866,269.746L568.373,269.896L568.387,269.901C568.673,269.985 568.959,270.071 569.244,270.157L569.273,270.166L569.346,270.188L569.763,270.314L570.036,270.397L570.162,270.435L570.258,270.465L570.393,270.506L570.898,270.662L571.049,270.708L571.369,270.808L571.652,270.897L571.702,270.912L571.935,270.985L572.574,271.187L572.743,271.24L572.798,271.258L572.819,271.265L572.909,271.293L573.358,271.437L573.448,271.466C573.881,271.606 574.314,271.746 574.749,271.889L574.846,271.92L575.371,272.093L575.463,272.124L575.485,272.131L575.545,272.151C575.804,272.237 576.063,272.323 576.321,272.41L576.341,272.417L576.411,272.44L576.945,272.62L577.143,272.688L577.218,272.713L577.322,272.749L577.641,272.857L577.976,272.972L578.093,273.012L578.169,273.039L578.332,273.095L578.89,273.289L578.967,273.315L578.983,273.321C579.55,273.519 580.117,273.719 580.682,273.921L580.709,273.931L580.768,273.952L581.237,274.12L581.528,274.225L581.579,274.243L581.632,274.263L581.96,274.382L582.415,274.548L582.446,274.559L582.463,274.565C583.324,274.88 584.182,275.2 585.037,275.525L585.561,275.725L585.859,275.839L585.901,275.855L585.949,275.873L586.278,276L586.697,276.162L586.761,276.187L586.797,276.201L586.994,276.278L587.597,276.513L587.624,276.524C587.904,276.634 588.184,276.745 588.463,276.856L588.475,276.86L588.563,276.896L589.136,277.124L589.229,277.161L589.33,277.202L589.592,277.308L589.847,277.41L590.026,277.483L590.183,277.547L590.35,277.615L590.845,277.817L590.902,277.84L591.035,277.895L591.232,277.976L591.41,278.049L591.685,278.163L591.885,278.246L591.956,278.275C592.181,278.369 592.407,278.463 592.632,278.557L592.734,278.6L592.881,278.662L593.101,278.755L593.452,278.903L593.58,278.957L593.625,278.976C593.866,279.079 594.107,279.181 594.348,279.285L594.425,279.318L594.536,279.365L594.785,279.472L595.189,279.647L595.269,279.681L595.296,279.693C595.545,279.801 595.794,279.91 596.043,280.019L596.111,280.048L596.207,280.091L596.462,280.203L596.879,280.386L596.951,280.418L596.975,280.429C597.22,280.537 597.464,280.646 597.708,280.755L597.789,280.791L597.904,280.843L598.132,280.945L598.5,281.111L598.626,281.167L598.669,281.187C598.86,281.273 599.051,281.36 599.242,281.447L599.319,281.482L599.461,281.547L599.847,281.724L600.115,281.846L600.218,281.894L600.294,281.929L600.469,282.01L600.803,282.164L600.996,282.254L601.126,282.314L601.268,282.381L601.49,282.484L601.79,282.625L601.956,282.703L602.045,282.745L602.176,282.806L602.648,283.03L602.784,283.095L602.814,283.109C603.071,283.231 603.327,283.353 603.584,283.477L603.611,283.489L603.742,283.553L604.226,283.785L604.347,283.844L604.435,283.887L604.608,283.971L604.907,284.116L605.114,284.217L605.258,284.288L605.397,284.356L605.587,284.449L605.893,284.599L606.08,284.691L606.166,284.734L606.266,284.784L606.734,285.016L606.899,285.098L606.927,285.112C607.172,285.234 607.416,285.357 607.661,285.48L607.717,285.508L607.94,285.621L608.296,285.801L608.409,285.858L608.533,285.921L608.741,286.027L608.97,286.144L609.158,286.24L609.347,286.337L609.504,286.418L609.644,286.49L609.912,286.628L610.159,286.756L610.256,286.806L610.316,286.837L610.712,287.043L610.97,287.178L611.07,287.231L611.536,287.475L611.666,287.543L611.778,287.602L611.905,287.67L612.084,287.764L612.478,287.973L612.585,288.03L612.614,288.046C612.843,288.168 613.071,288.29 613.3,288.413L613.39,288.461L613.513,288.528L613.723,288.64L614.062,288.824L614.194,288.895L614.24,288.92C614.457,289.038 614.674,289.156 614.891,289.275L614.995,289.332L615.172,289.429L615.355,289.53L615.474,289.595L615.795,289.771L616.227,290.011L616.326,290.066L616.38,290.096C633.808,299.788 649.905,311.586 664.324,325.143L664.784,325.575L665.09,325.866L665.135,325.909L665.177,325.948L665.441,326.199L665.897,326.635L665.932,326.668L665.947,326.683C666.468,327.181 666.986,327.682 667.501,328.184L667.515,328.198L667.562,328.244L668.045,328.716L668.234,328.902L668.301,328.968L668.399,329.065L668.69,329.352L668.977,329.636L669.084,329.742L669.159,329.817L669.333,329.99L669.763,330.419L669.863,330.519L669.894,330.55C670.143,330.8 670.391,331.05 670.638,331.299L671.247,331.918L671.348,332.021L671.411,332.084L671.864,332.548L671.881,332.565L671.921,332.607L672.331,333.029L672.419,333.12L672.511,333.215L672.806,333.521L673.004,333.726L673.064,333.789L673.14,333.867L673.407,334.146L673.631,334.381L673.694,334.447L673.766,334.522L674.025,334.795L674.257,335.039L674.319,335.105L674.389,335.178L674.651,335.457L674.88,335.7L674.94,335.764L675.01,335.838L675.281,336.127L675.503,336.364L675.563,336.43L675.629,336.499L675.815,336.7L676.037,336.939L676.131,337.041L676.245,337.163L676.42,337.354L676.57,337.516L676.694,337.651L676.858,337.829L677.005,337.99L677.101,338.095L677.25,338.258L677.469,338.498L677.581,338.621L677.631,338.676L677.793,338.855L678.078,339.169L678.15,339.248L678.158,339.258L678.268,339.38L678.684,339.842L679.029,340.227L679.209,340.429L679.226,340.448L679.288,340.517L679.509,340.767L679.731,341.017L679.79,341.084L679.889,341.195L680.34,341.707L680.499,341.888C680.855,342.294 681.209,342.7 681.565,343.112L681.61,343.164C681.843,343.434 682.076,343.705 682.309,343.977L682.386,344.066L682.529,344.234L682.856,344.618L683.253,345.086L683.363,345.215L683.426,345.289L683.442,345.309L683.503,345.382L683.843,345.785L683.961,345.926L684.026,346.002L684.125,346.121L684.322,346.356L684.5,346.57L684.606,346.698L684.687,346.795L684.798,346.929L685.05,347.234L685.185,347.396L685.229,347.45L685.273,347.503L685.726,348.055L685.76,348.096L685.891,348.257L686.217,348.656L686.266,348.716L686.333,348.799L686.5,349.004L686.686,349.234L686.786,349.358L686.904,349.503L687.038,349.67L687.154,349.814L687.295,349.99L687.471,350.21L687.579,350.345L687.645,350.428L687.745,350.553L688.036,350.919L688.237,351.172L688.307,351.261L688.382,351.355L688.599,351.63L688.872,351.977L688.968,352.1L689.036,352.187L689.159,352.343L689.366,352.609L689.507,352.789L689.594,352.902L689.716,353.059L689.897,353.293L690.043,353.48L690.144,353.612L690.271,353.776L690.439,353.995L690.576,354.174L690.684,354.314L690.823,354.496L690.991,354.716L691.109,354.871L691.197,354.987L691.372,355.218L691.636,355.568L691.754,355.723L691.814,355.803L691.919,355.942L692.292,356.44L692.396,356.579L692.42,356.61C692.622,356.881 692.823,357.151 693.023,357.422L693.034,357.437L693.115,357.547L693.543,358.126L693.613,358.222L693.669,358.298L693.818,358.502L694.079,358.859L694.202,359.029L694.299,359.162L694.43,359.343L694.612,359.593L694.795,359.848L694.926,360.029L695.02,360.16L695.142,360.33L695.408,360.702L695.548,360.898L695.599,360.969L695.67,361.069L696.139,361.73L696.17,361.774C696.401,362.1 696.63,362.427 696.858,362.754L696.944,362.876L697.068,363.055L697.237,363.297L697.459,363.618L697.528,363.717L697.572,363.78L697.754,364.044L698.121,364.579L698.153,364.626L698.165,364.643C698.574,365.24 698.98,365.839 699.384,366.44L699.392,366.453L699.417,366.49L699.794,367.052L699.995,367.355L700.015,367.385C700.208,367.675 700.4,367.965 700.592,368.257C701.353,369.412 702.104,370.575 702.847,371.747L703.01,372.005L703.026,372.03L703.122,372.182L703.599,372.94L703.642,373.01L703.715,373.126C704.055,373.67 704.393,374.216 704.728,374.763L704.763,374.82L704.794,374.87L704.932,375.096L705.313,375.722L705.339,375.765L705.489,376.013L705.846,376.605L705.873,376.65L705.911,376.712L706.048,376.942L706.354,377.452L706.459,377.63L706.478,377.661L706.507,377.71L706.723,378.075L706.963,378.482L707.041,378.614L707.083,378.686L707.177,378.845L707.564,379.508L707.6,379.57L707.607,379.581C707.78,379.879 707.953,380.178 708.125,380.477L708.155,380.528L708.246,380.688L708.523,381.17L708.641,381.378L708.705,381.489L708.788,381.635L708.963,381.943L709.167,382.305L709.251,382.453L709.3,382.54L709.4,382.718L709.759,383.36L709.793,383.42L709.8,383.432C709.972,383.741 710.143,384.05 710.314,384.359L710.33,384.389L710.39,384.498L710.695,385.054L710.804,385.254L710.863,385.361L710.948,385.519L711.121,385.836L711.293,386.155L711.391,386.336L711.457,386.458L711.544,386.619L711.785,387.069L711.916,387.313L711.951,387.38L711.963,387.403L712.387,388.201L712.428,388.28L712.436,388.294L712.456,388.333L712.725,388.843L712.913,389.204L712.951,389.276L712.974,389.321C713.125,389.61 713.275,389.899 713.424,390.189L713.462,390.262L713.519,390.373L713.664,390.655L713.928,391.171L713.969,391.25L714,391.313L714.282,391.868L714.39,392.083L714.471,392.241L714.534,392.367C714.661,392.62 714.788,392.873 714.915,393.127L714.968,393.235L715.075,393.45L715.197,393.696L715.296,393.895L715.462,394.231L715.577,394.466L715.64,394.593L715.758,394.837L715.95,395.229L716.035,395.404L716.079,395.494L716.229,395.806L716.435,396.23L716.485,396.336L716.514,396.396L716.792,396.978L716.914,397.234L716.925,397.258L716.947,397.302L717.034,397.487L717.39,398.241L717.491,398.457L717.567,398.62L717.841,399.207L717.86,399.25L717.866,399.261C718.001,399.553 718.135,399.845 718.269,400.138L718.326,400.261L718.388,400.395L718.483,400.605L718.748,401.187L718.788,401.275L718.837,401.384L719.084,401.933L719.177,402.141L719.245,402.291L719.304,402.425C719.432,402.711 719.559,402.998 719.686,403.284L719.697,403.31L719.734,403.395L719.972,403.936L720.075,404.173L720.145,404.332L720.225,404.516L720.345,404.793L720.494,405.138L720.588,405.356L720.644,405.486L720.716,405.653L720.924,406.142L721.027,406.382L721.054,406.447C721.187,406.759 721.319,407.072 721.45,407.386L721.461,407.411L721.544,407.61L721.807,408.241L721.846,408.337L721.89,408.442L722.005,408.723L722.164,409.107L722.239,409.293L722.315,409.476L722.412,409.715L722.518,409.975L722.631,410.255L722.735,410.512L722.804,410.686L722.868,410.845L723.024,411.236L723.15,411.55L723.19,411.651L723.215,411.716L723.457,412.328L723.56,412.591L723.67,412.874L723.9,413.463L723.924,413.527L723.966,413.634L724.095,413.97L724.237,414.34L724.295,414.491L724.367,414.68L724.472,414.958L724.571,415.218L724.662,415.46L724.764,415.727L724.84,415.932L724.902,416.097L725.029,416.441L725.155,416.778L725.201,416.904L725.229,416.978L725.41,417.471L725.542,417.83L725.638,418.095L725.874,418.745L725.889,418.788L725.924,418.885L726.052,419.242L726.191,419.631L726.238,419.764L726.301,419.942L726.405,420.238L726.505,420.519L726.584,420.746L726.674,421.001L726.75,421.222L726.815,421.408L726.929,421.74L727.041,422.063L727.089,422.202L727.122,422.298L727.286,422.781L727.404,423.126L727.423,423.183C727.528,423.494 727.633,423.805 727.737,424.117L727.762,424.192L727.872,424.526L728.022,424.98L728.064,425.107L728.115,425.261L728.209,425.551L728.316,425.877L728.389,426.105L728.463,426.331L728.533,426.551L728.606,426.775L728.715,427.12L728.806,427.404L728.85,427.544L728.892,427.675L729.055,428.193L729.145,428.478L729.163,428.537C729.264,428.861 729.364,429.186 729.464,429.511L729.478,429.555L729.553,429.801L729.731,430.384L729.77,430.516L729.806,430.635L729.884,430.892L730.003,431.29L730.075,431.531L730.13,431.716L730.19,431.918L730.272,432.198L730.337,432.42L730.449,432.799L730.613,433.367L730.686,433.617L730.735,433.79L730.762,433.885L730.8,434.016L730.889,434.328L731.052,434.905L731.071,434.972L731.077,434.992C731.169,435.321 731.261,435.65 731.352,435.979L731.375,436.062L731.401,436.158C731.587,436.832 731.77,437.507 731.95,438.183L731.967,438.247L731.984,438.312C732.168,439.005 732.349,439.699 732.527,440.394L732.539,440.441L732.55,440.482C732.731,441.191 732.909,441.9 733.083,442.611L733.091,442.643L733.097,442.667C733.274,443.388 733.448,444.111 733.618,444.834L733.625,444.865C733.798,445.596 733.967,446.329 734.132,447.063L734.135,447.074C734.383,448.178 734.625,449.285 734.858,450.395L734.862,450.411L734.868,450.439C735.019,451.161 735.168,451.884 735.313,452.608L735.321,452.648L735.333,452.707C735.474,453.411 735.612,454.116 735.746,454.822L735.76,454.892L735.777,454.983L735.842,455.327L735.969,456.002L735.972,456.021C736.035,456.359 736.097,456.697 736.158,457.035L736.178,457.143L736.199,457.266L736.249,457.539C736.354,458.126 736.457,458.715 736.557,459.303L736.574,459.402L736.59,459.495C736.708,460.192 736.824,460.889 736.936,461.587L736.95,461.668L736.961,461.737C737.074,462.445 737.185,463.154 737.292,463.864L737.304,463.942L737.313,463.999C737.367,464.357 737.42,464.715 737.472,465.073L737.567,465.727L737.624,466.13L737.637,466.222L737.645,466.283C737.695,466.631 737.743,466.98 737.79,467.328L737.795,467.364L737.808,467.455L737.878,467.977L737.931,468.375L737.949,468.509L737.959,468.588C737.998,468.885 738.036,469.182 738.074,469.48L738.085,469.572L738.096,469.655L738.121,469.852L738.172,470.266L738.211,470.581L738.238,470.802L738.255,470.942C738.292,471.246 738.328,471.551 738.364,471.856L738.375,471.952L738.408,472.242L738.453,472.627L738.477,472.846L738.507,473.103L738.528,473.301L738.541,473.416L738.6,473.956L738.633,474.255L738.67,474.611L738.71,474.995L738.726,475.151L738.753,475.409L738.778,475.656L738.791,475.786L738.817,476.048L738.868,476.565L738.885,476.742L738.89,476.795L738.919,477.099L738.978,477.723C739.012,478.109 739.047,478.495 739.082,478.882L739.134,479.494L739.163,479.83L739.167,479.89L739.18,480.042L739.204,480.34L739.23,480.659L739.253,480.945L739.273,481.205L739.285,481.362C739.31,481.681 739.334,482 739.357,482.319L739.361,482.368L739.376,482.583L739.416,483.149L739.43,483.35L739.443,483.534L739.456,483.741L739.473,483.981L739.502,484.435L739.519,484.7L739.525,484.788C739.544,485.097 739.563,485.405 739.581,485.713L739.59,485.869L739.609,486.214L739.625,486.483L739.647,486.891L739.652,486.976L739.655,487.038L739.665,487.239L739.694,487.797L739.706,488.045L739.715,488.21L739.724,488.4L739.738,488.703L739.758,489.156L739.769,489.382L739.773,489.484C739.788,489.832 739.802,490.181 739.816,490.529L739.817,490.556L739.823,490.727L739.849,491.428L739.854,491.578L739.86,491.732L739.869,492.005L739.88,492.338L739.888,492.624L739.897,492.909L739.902,493.114L739.906,493.249L739.917,493.646C739.931,494.201 739.944,494.757 739.955,495.313L739.956,495.354L739.969,496.127L739.972,496.312L739.974,496.448L739.977,496.68L739.983,497.089L739.986,497.424L739.989,497.631L739.99,497.802L739.992,498.056L739.995,498.568L739.997,498.815L739.997,498.907L739.998,499.027L740,500C740,508.729 739.533,517.35 738.624,525.825L738.602,526.035L738.519,526.789C738.367,528.155 738.203,529.519 738.03,530.861L737.974,531.3L737.875,532.049C737.837,532.33 737.799,532.612 737.76,532.893L737.689,533.408C737.529,534.552 737.362,535.692 737.188,536.816L737.118,537.273L737.097,537.4C736.939,538.41 736.775,539.417 736.606,540.408L736.509,540.979C735.492,546.876 734.26,552.7 732.817,558.459C732.752,558.72 732.686,558.98 732.623,559.232L732.439,559.95L732.253,560.668C732.19,560.908 732.127,561.147 732.064,561.386L731.967,561.753C730.736,566.379 729.371,570.951 727.879,575.454C727.233,577.403 726.563,579.341 725.874,581.255C725.003,583.67 724.096,586.067 723.15,588.45C722.896,589.089 722.639,589.726 722.377,590.371C721.952,591.415 721.519,592.455 721.083,593.486L720.841,594.054L720.554,594.725C718.822,598.748 716.983,602.714 715.038,606.625C714.759,607.186 714.478,607.746 714.195,608.304L714.058,608.574L713.728,609.221L713.395,609.868L713.127,610.384C712.196,612.178 711.242,613.958 710.266,615.726C709.837,616.504 709.404,617.279 708.963,618.057C707.948,619.847 706.911,621.624 705.846,623.395C704.398,625.805 702.908,628.187 701.384,630.533L700.989,631.139C695.374,639.723 689.224,647.926 682.591,655.694C682.287,656.05 681.982,656.405 681.677,656.758C680.294,658.359 678.891,659.941 677.469,661.502C675.862,663.267 674.228,665.008 672.577,666.717L672.199,667.108L672.153,667.155C669.326,670.066 666.426,672.905 663.463,675.664C663.107,675.995 662.75,676.325 662.398,676.649C656.312,682.249 649.936,687.538 643.29,692.494L642.979,692.726L642.665,692.959C642.015,693.44 641.362,693.919 640.708,694.394L640.653,694.434L640.596,694.475C636.355,697.548 632.01,700.485 627.562,703.283C627.23,703.493 626.897,703.701 626.561,703.91C625.899,704.322 625.236,704.73 624.574,705.133L624.409,705.234C624.203,705.359 623.997,705.484 623.79,705.609L623.203,705.962C621.801,706.803 620.39,707.63 618.974,708.44L618.793,708.544L618.299,708.826C617.995,708.998 617.691,709.17 617.388,709.34C616.593,709.787 615.795,710.23 614.996,710.668C614.73,710.814 614.463,710.959 614.193,711.105L613.721,711.361L613.39,711.539C610.613,713.032 607.803,714.471 604.966,715.855L604.666,716.001L604.011,716.318C603.792,716.423 603.574,716.528 603.355,716.633L602.784,716.905C602.413,717.082 602.042,717.257 601.668,717.432C598.442,718.945 595.176,720.388 591.871,721.76L591.358,721.973C586.999,723.77 582.576,725.443 578.092,726.988L577.637,727.144L577.445,727.209C570.538,729.566 563.491,731.615 556.322,733.343L555.623,733.51L555.414,733.559C539.079,737.427 522.09,739.624 504.646,739.956L503.873,739.969C503.36,739.977 502.844,739.984 502.326,739.989C501.562,739.996 500.782,740 500,740C499.71,740 499.421,739.999 499.133,739.998L499.024,739.998L498.915,739.997L498.696,739.997L498.059,739.992L498.047,739.992C497.759,739.99 497.47,739.987 497.182,739.984L497.075,739.983L496.965,739.981L496.742,739.978L496.12,739.969L496.099,739.969C495.811,739.964 495.523,739.959 495.235,739.953L495.13,739.951L495.02,739.949L494.793,739.945L494.181,739.931L494.154,739.93C493.866,739.923 493.578,739.916 493.29,739.908L493.189,739.905L493.081,739.902L492.847,739.895L492.243,739.877L492.215,739.876C491.926,739.867 491.637,739.857 491.348,739.846L491.251,739.843L491.146,739.839L490.905,739.83L490.304,739.807L490.279,739.806C489.989,739.795 489.699,739.783 489.408,739.77L489.318,739.766L489.217,739.761L488.967,739.75L488.365,739.722L488.349,739.722C488.056,739.708 487.763,739.693 487.471,739.678L487.388,739.674L487.293,739.669L487.033,739.655L486.424,739.622C486.128,739.605 485.833,739.588 485.537,739.57L485.462,739.566L485.375,739.561C484.785,739.525 484.196,739.487 483.606,739.448L483.541,739.443L483.463,739.438C482.868,739.397 482.273,739.355 481.679,739.31L481.623,739.306L481.555,739.3C480.955,739.255 480.356,739.207 479.756,739.157L479.71,739.153L479.652,739.148C479.047,739.097 478.442,739.044 477.838,738.988L477.801,738.985L477.753,738.98C477.143,738.924 476.534,738.866 475.926,738.805L475.896,738.802L475.857,738.798C475.244,738.737 474.631,738.673 474.019,738.607L473.995,738.605L473.963,738.601C473.348,738.535 472.734,738.466 472.12,738.395L472.099,738.392L472.071,738.389C471.456,738.318 470.842,738.244 470.229,738.168L470.207,738.165L470.178,738.162C469.567,738.086 468.957,738.008 468.347,737.927L468.32,737.924L468.282,737.919C467.679,737.839 467.077,737.757 466.475,737.673L466.438,737.667L466.383,737.66L466.041,737.612L465.508,737.535L465.495,737.533C465.201,737.491 464.908,737.448 464.614,737.405L464.56,737.397L464.478,737.384L464.161,737.337L463.685,737.265L463.622,737.256L463.6,737.252C463.322,737.21 463.044,737.167 462.766,737.123L462.686,737.111L462.565,737.092L462.285,737.048L461.883,736.984L461.752,736.963L461.702,736.955C461.445,736.914 461.188,736.872 460.931,736.83L460.818,736.811L460.64,736.782L460.414,736.745L460.104,736.692L459.885,736.656L459.8,736.642C459.589,736.606 459.379,736.57 459.169,736.534L459.017,736.508L458.977,736.501L458.954,736.497L458.874,736.483L458.397,736.4L458.159,736.358L458.024,736.335L457.916,736.316C457.66,736.27 457.403,736.224 457.147,736.178L457.095,736.169L456.914,736.136L456.539,736.068L456.352,736.033L456.168,735.999L456.021,735.972L455.921,735.953L455.418,735.859L455.242,735.826L454.97,735.774L454.686,735.72L454.544,735.693L454.317,735.649L454.136,735.614L454.07,735.602L453.732,735.536L453.393,735.469L453.046,735.4L452.839,735.359L452.733,735.338L452.47,735.285L452.263,735.243L452.224,735.236L452.021,735.194L451.549,735.098L451.148,735.015L450.996,734.984L450.918,734.967L450.629,734.907L450.403,734.86L450.383,734.855L450.277,734.833L449.71,734.713L449.276,734.62L449.159,734.594L449.097,734.581L448.793,734.515L448.557,734.464L447.877,734.314L447.433,734.215L447.327,734.191L447.27,734.178L446.962,734.109L446.726,734.055L446.048,733.901L445.618,733.801L445.5,733.774L445.436,733.759L445.136,733.689L444.91,733.636L444.892,733.632L444.788,733.607L444.225,733.474L443.831,733.379L443.679,733.343L443.594,733.322L443.316,733.255L443.108,733.204L443.073,733.196L442.856,733.143L442.408,733.033L442.069,732.949L441.863,732.898L441.746,732.868L441.501,732.807L441.32,732.762L441.259,732.747L440.868,732.647L440.595,732.578L440.331,732.51L440.053,732.439L439.892,732.398L439.691,732.346L439.545,732.308L439.451,732.284L439.259,732.233L438.788,732.11L438.603,732.061L438.51,732.036L438.055,731.915L437.887,731.871L437.803,731.848L437.229,731.694L437.087,731.655L436.987,731.628L436.854,731.592L436.589,731.52L436.19,731.41L436.089,731.382L436.049,731.371C435.769,731.294 435.49,731.216 435.21,731.138L435.191,731.132L435.145,731.119L434.675,730.987L434.353,730.896L434.296,730.88L434.254,730.868C433.682,730.705 433.111,730.54 432.541,730.373L432.508,730.364L432.465,730.351L432.134,730.254L431.627,730.104L431.613,730.099C431.327,730.015 431.041,729.929 430.756,729.843L430.727,729.834L430.654,729.812L430.237,729.686L429.964,729.603L429.838,729.565L429.742,729.535L429.607,729.494L429.102,729.338L428.951,729.292L428.631,729.192L428.348,729.103L428.298,729.088L428.065,729.015L427.426,728.813L427.257,728.76L427.202,728.742L427.181,728.735L427.091,728.707L426.642,728.563L426.552,728.534C426.119,728.394 425.686,728.254 425.251,728.111L425.154,728.08L424.629,727.907L424.537,727.876L424.515,727.869L424.455,727.849C424.196,727.763 423.937,727.677 423.679,727.59L423.659,727.583L423.589,727.56L423.055,727.38L422.857,727.312L422.782,727.287L422.678,727.251L422.359,727.143L422.024,727.028L421.907,726.988L421.831,726.961L421.668,726.905L421.11,726.711L421.033,726.685L421.017,726.679C420.45,726.481 419.883,726.281 419.318,726.079L419.291,726.069L419.232,726.048L418.763,725.88L418.472,725.775L418.421,725.757L418.368,725.737L418.04,725.618L417.585,725.452L417.554,725.441L417.537,725.435C416.676,725.12 415.818,724.8 414.963,724.475L414.439,724.275L414.141,724.161L414.099,724.145L414.051,724.127L413.722,724L413.303,723.838L413.239,723.813L413.203,723.799L413.006,723.722L412.403,723.487L412.376,723.476C412.096,723.366 411.816,723.255 411.537,723.144L411.525,723.14L411.437,723.104L410.864,722.876L410.771,722.839L410.67,722.798L410.408,722.692L410.153,722.59L409.974,722.517L409.817,722.453L409.65,722.385L409.155,722.183L409.098,722.16L408.965,722.105L408.768,722.024L408.59,721.951L408.315,721.837L408.115,721.754L408.044,721.725C407.819,721.631 407.593,721.537 407.368,721.443L407.266,721.4L407.119,721.338L406.899,721.245L406.548,721.097L406.42,721.043L406.375,721.024C406.134,720.921 405.893,720.819 405.652,720.715L405.575,720.682L405.464,720.635L405.215,720.528L404.811,720.353L404.731,720.319L404.704,720.307C404.455,720.199 404.206,720.09 403.957,719.981L403.889,719.952L403.793,719.909L403.538,719.797L403.121,719.614L403.049,719.582L403.025,719.571C402.78,719.463 402.536,719.354 402.292,719.245L402.211,719.209L402.096,719.157L401.868,719.055L401.5,718.889L401.374,718.833L401.331,718.813C401.14,718.727 400.949,718.64 400.758,718.553L400.681,718.518L400.539,718.453L400.153,718.276L399.885,718.154L399.782,718.106L399.706,718.071L399.531,717.99L399.197,717.836L399.004,717.746L398.874,717.686L398.732,717.619L398.51,717.516L398.21,717.375L398.044,717.297L397.955,717.255L397.824,717.194L397.352,716.97L397.216,716.905L397.186,716.891C396.929,716.769 396.673,716.647 396.416,716.523L396.389,716.511L396.258,716.447L395.774,716.215L395.653,716.156L395.565,716.113L395.392,716.029L395.093,715.884L394.886,715.783L394.742,715.712L394.603,715.644L394.413,715.551L394.107,715.401L393.92,715.309L393.834,715.266L393.734,715.216L393.266,714.984L393.101,714.902L393.073,714.888C392.828,714.766 392.584,714.643 392.339,714.52L392.283,714.492L392.06,714.379L391.704,714.199L391.591,714.142L391.467,714.079L391.259,713.973L391.03,713.856L390.842,713.76L390.653,713.663L390.496,713.582L390.356,713.51L390.088,713.372L389.841,713.244L389.744,713.194L389.684,713.163L389.288,712.957L389.03,712.822L388.93,712.769L388.464,712.525L388.334,712.457L388.222,712.398L388.095,712.33L387.916,712.236L387.522,712.027L387.415,711.97L387.386,711.954C387.157,711.832 386.929,711.71 386.7,711.587L386.61,711.539L386.487,711.472L386.277,711.36L385.938,711.176L385.806,711.105L385.76,711.08C385.543,710.962 385.326,710.844 385.109,710.725L385.005,710.668L384.828,710.571L384.645,710.47L384.526,710.405L384.205,710.229L383.773,709.989L383.674,709.934L383.62,709.904C366.192,700.212 350.095,688.414 335.676,674.857L335.216,674.425L334.91,674.134L334.865,674.091L334.823,674.052L334.559,673.801L334.103,673.365L334.068,673.332L334.053,673.317C333.532,672.819 333.014,672.318 332.499,671.816L332.485,671.802L332.438,671.756L331.955,671.284L331.766,671.098L331.699,671.032L331.601,670.935L331.31,670.648L331.023,670.364L330.916,670.258L330.841,670.183L330.667,670.01L330.237,669.581L330.137,669.481L330.106,669.45C329.857,669.2 329.609,668.95 329.362,668.701L328.753,668.082L328.652,667.979L328.589,667.916L328.136,667.452L328.119,667.435L328.079,667.393L327.669,666.971L327.581,666.88L327.489,666.785L327.194,666.479L326.996,666.274L326.936,666.211L326.86,666.133L326.593,665.854L326.369,665.619L326.306,665.553L326.234,665.478L325.975,665.205L325.743,664.961L325.681,664.895L325.611,664.822L325.349,664.543L325.12,664.3L325.06,664.236L324.99,664.162L324.719,663.873L324.497,663.636L324.437,663.57L324.371,663.501L324.185,663.3L323.963,663.061L323.869,662.959L323.755,662.837L323.58,662.646L323.43,662.484L323.306,662.349L323.142,662.171L322.995,662.01L322.899,661.905L322.75,661.742L322.531,661.502L322.419,661.379L322.369,661.324L322.207,661.145L321.922,660.831L321.85,660.752L321.842,660.742L321.732,660.62L321.316,660.158L320.971,659.773L320.791,659.571L320.774,659.552L320.712,659.483L320.491,659.233L320.269,658.983L320.21,658.916L320.111,658.805L319.66,658.293L319.501,658.112C319.145,657.706 318.791,657.3 318.435,656.888L318.39,656.836C318.157,656.566 317.924,656.295 317.691,656.023L317.614,655.934L317.471,655.766L317.144,655.382L316.747,654.914L316.637,654.785L316.574,654.711L316.558,654.691L316.497,654.618L316.157,654.215L316.039,654.074L315.974,653.998L315.875,653.879L315.678,653.644L315.5,653.43L315.394,653.302L315.313,653.205L315.202,653.071L314.95,652.766L314.815,652.604L314.771,652.55L314.727,652.497L314.274,651.945L314.24,651.904L314.109,651.743L313.783,651.344L313.734,651.284L313.667,651.201L313.5,650.996L313.314,650.766L313.214,650.642L313.096,650.497L312.962,650.33L312.846,650.186L312.705,650.01L312.529,649.79L312.421,649.655L312.355,649.572L312.255,649.447L311.964,649.081L311.763,648.828L311.693,648.739L311.618,648.645L311.401,648.37L311.128,648.023L311.032,647.9L310.964,647.813L310.841,647.657L310.634,647.391L310.493,647.211L310.406,647.098L310.284,646.941L310.103,646.707L309.957,646.52L309.856,646.388L309.729,646.224L309.561,646.005L309.424,645.826L309.316,645.686L309.177,645.504L309.009,645.284L308.891,645.129L308.803,645.013L308.628,644.782L308.364,644.432L308.246,644.277L308.186,644.197L308.081,644.058L307.708,643.56L307.604,643.421L307.58,643.39C307.378,643.119 307.177,642.849 306.977,642.578L306.966,642.563L306.885,642.453L306.457,641.874L306.387,641.778L306.331,641.702L306.182,641.498L305.921,641.141L305.798,640.971L305.701,640.838L305.57,640.657L305.388,640.407L305.205,640.152L305.074,639.971L304.98,639.84L304.858,639.67L304.592,639.298L304.452,639.102L304.401,639.031L304.33,638.931L303.861,638.27L303.83,638.226C303.599,637.9 303.37,637.573 303.142,637.246L303.056,637.124L302.932,636.945L302.763,636.703L302.541,636.382L302.472,636.283L302.428,636.22L302.246,635.956L301.879,635.421L301.847,635.374L301.835,635.357C301.426,634.76 301.02,634.161 300.616,633.56L300.608,633.547L300.583,633.51L300.206,632.948L300.005,632.645L299.985,632.615C299.792,632.325 299.6,632.035 299.408,631.743C298.647,630.588 297.896,629.425 297.153,628.253L296.99,627.995L296.974,627.97L296.878,627.818L296.401,627.06L296.358,626.99L296.285,626.874C295.945,626.33 295.607,625.784 295.272,625.237L295.237,625.18L295.206,625.13L295.068,624.904L294.687,624.278L294.661,624.235L294.511,623.987L294.154,623.395L294.127,623.35L294.089,623.288L293.952,623.058L293.646,622.548L293.541,622.37L293.522,622.339L293.493,622.29L293.277,621.925L293.037,621.518L292.959,621.386L292.917,621.314L292.823,621.155L292.436,620.492L292.4,620.43L292.393,620.419C292.22,620.121 292.047,619.822 291.875,619.523L291.845,619.472L291.754,619.312L291.477,618.83L291.359,618.622L291.295,618.511L291.212,618.365L291.037,618.057L290.833,617.695L290.749,617.547L290.7,617.46L290.6,617.282L290.241,616.64L290.207,616.58L290.2,616.568C290.028,616.259 289.857,615.95 289.686,615.641L289.67,615.611L289.61,615.502L289.305,614.946L289.196,614.746L289.137,614.639L289.052,614.481L288.879,614.164L288.707,613.845L288.609,613.664L288.543,613.542L288.456,613.381L288.215,612.931L288.084,612.687L288.049,612.62L288.037,612.597L287.613,611.799L287.572,611.72L287.564,611.706L287.544,611.667L287.275,611.157L287.087,610.796L287.049,610.724L287.026,610.679C286.875,610.39 286.725,610.101 286.576,609.811L286.538,609.738L286.481,609.627L286.336,609.345L286.072,608.829L286.031,608.75L286,608.687L285.718,608.132L285.61,607.917L285.529,607.759L285.466,607.633C285.339,607.38 285.212,607.127 285.085,606.873L285.032,606.765L284.925,606.55L284.803,606.304L284.704,606.105L284.538,605.769L284.423,605.534L284.36,605.407L284.242,605.163L284.05,604.771L283.965,604.596L283.921,604.506L283.771,604.194L283.565,603.77L283.515,603.664L283.486,603.604L283.208,603.022L283.086,602.766L283.075,602.742L283.053,602.698L282.966,602.513L282.61,601.759L282.509,601.543L282.433,601.38L282.159,600.793L282.14,600.75L282.134,600.739C281.999,600.447 281.865,600.155 281.731,599.862L281.674,599.739L281.612,599.605L281.517,599.395L281.252,598.813L281.212,598.725L281.163,598.616L280.916,598.067L280.823,597.859L280.755,597.709L280.696,597.575C280.568,597.289 280.441,597.002 280.314,596.716L280.303,596.69L280.266,596.605L280.028,596.064L279.925,595.827L279.855,595.668L279.775,595.484L279.655,595.207L279.506,594.862L279.412,594.644L279.356,594.514L279.284,594.347L279.076,593.858L278.973,593.618L278.946,593.553C278.813,593.241 278.681,592.928 278.55,592.614L278.539,592.589L278.456,592.39L278.193,591.759L278.154,591.663L278.11,591.558L277.995,591.277L277.836,590.893L277.761,590.707L277.685,590.524L277.588,590.285L277.482,590.025L277.369,589.745L277.265,589.488L277.196,589.314L277.132,589.155L276.976,588.764L276.85,588.45L276.81,588.349L276.785,588.284L276.543,587.672L276.44,587.409L276.33,587.126L276.1,586.537L276.076,586.473L276.034,586.366L275.905,586.03L275.763,585.66L275.705,585.509L275.633,585.32L275.528,585.042L275.429,584.782L275.338,584.54L275.236,584.273L275.16,584.068L275.098,583.903L274.971,583.559L274.845,583.222L274.799,583.096L274.771,583.022L274.59,582.529L274.458,582.17L274.362,581.905L274.126,581.255L274.111,581.212L274.076,581.115L273.948,580.758L273.809,580.369L273.762,580.236L273.699,580.058L273.595,579.762L273.495,579.481L273.416,579.254L273.326,578.999L273.25,578.778L273.185,578.592L273.071,578.26L272.959,577.937L272.911,577.798L272.878,577.702L272.714,577.219L272.596,576.874L272.577,576.817C272.472,576.506 272.367,576.195 272.263,575.883L272.238,575.808L272.128,575.474L271.978,575.02L271.936,574.893L271.885,574.739L271.791,574.449L271.684,574.123L271.611,573.895L271.537,573.669L271.467,573.449L271.394,573.225L271.285,572.88L271.194,572.596L271.15,572.456L271.108,572.325L270.945,571.807L270.855,571.522L270.837,571.463C270.736,571.139 270.636,570.814 270.536,570.489L270.522,570.445L270.447,570.199L270.269,569.616L270.23,569.484L270.194,569.365L270.116,569.108L269.997,568.71L269.925,568.469L269.87,568.284L269.81,568.082L269.728,567.802L269.663,567.58L269.551,567.201L269.387,566.633L269.314,566.383L269.265,566.21L269.238,566.115L269.2,565.984L269.111,565.672L268.948,565.095L268.929,565.028L268.923,565.008C268.831,564.679 268.739,564.35 268.648,564.021L268.625,563.938L268.599,563.842C268.413,563.168 268.23,562.493 268.05,561.817L268.033,561.753L268.016,561.688C267.832,560.995 267.651,560.301 267.473,559.606L267.461,559.559L267.45,559.518C267.269,558.809 267.091,558.1 266.917,557.389L266.909,557.357L266.903,557.333C266.726,556.612 266.552,555.889 266.382,555.166L266.375,555.135C266.202,554.404 266.033,553.671 265.868,552.937L265.865,552.926C265.617,551.822 265.375,550.715 265.142,549.605L265.138,549.589L265.132,549.561C264.981,548.839 264.832,548.116 264.687,547.392L264.679,547.352L264.667,547.293C264.526,546.589 264.388,545.884 264.254,545.178L264.24,545.108L264.223,545.017L264.158,544.673L264.031,543.998L264.028,543.979C263.965,543.641 263.903,543.303 263.842,542.965L263.822,542.857L263.801,542.734L263.751,542.461C263.646,541.874 263.543,541.285 263.443,540.697L263.426,540.598L263.41,540.505C263.292,539.808 263.176,539.111 263.064,538.413L263.05,538.332L263.039,538.263C262.926,537.555 262.815,536.846 262.708,536.136L262.696,536.058L262.687,536.001C262.633,535.643 262.58,535.285 262.528,534.927L262.433,534.273L262.376,533.87L262.363,533.778L262.355,533.717C262.305,533.369 262.257,533.02 262.21,532.672L262.205,532.636L262.192,532.545L262.122,532.023L262.069,531.625L262.051,531.491L262.041,531.412C262.002,531.115 261.964,530.818 261.926,530.52L261.915,530.428L261.904,530.345L261.879,530.148L261.828,529.734L261.789,529.419L261.762,529.198L261.745,529.058C261.708,528.754 261.672,528.449 261.636,528.144L261.625,528.048L261.592,527.758L261.547,527.373L261.523,527.154L261.493,526.897L261.472,526.699L261.459,526.584L261.4,526.044L261.367,525.745L261.33,525.389L261.29,525.005L261.274,524.849L261.247,524.591L261.222,524.344L261.209,524.214L261.183,523.952L261.132,523.435L261.115,523.258L261.11,523.205L261.081,522.901L261.022,522.277C260.988,521.891 260.953,521.505 260.918,521.118L260.866,520.506L260.837,520.17L260.833,520.11L260.82,519.958L260.796,519.66L260.77,519.341L260.747,519.055L260.727,518.795L260.715,518.638C260.69,518.319 260.666,518 260.643,517.681L260.639,517.632L260.624,517.417L260.584,516.851L260.57,516.65L260.557,516.466L260.544,516.259L260.527,516.019L260.498,515.565L260.481,515.3L260.475,515.212C260.456,514.903 260.437,514.595 260.419,514.287L260.41,514.131L260.391,513.786L260.375,513.517L260.353,513.109L260.348,513.024L260.345,512.962L260.335,512.761L260.306,512.203L260.294,511.955L260.285,511.79L260.276,511.6L260.262,511.297L260.242,510.844L260.231,510.618L260.227,510.516C260.212,510.168 260.198,509.819 260.184,509.471L260.183,509.444L260.177,509.273L260.151,508.572L260.146,508.422L260.14,508.268L260.131,507.995L260.12,507.662L260.112,507.376L260.103,507.091L260.098,506.886L260.094,506.751L260.083,506.354C260.069,505.799 260.056,505.243 260.045,504.687L260.044,504.646L260.031,503.873L260.028,503.688L260.026,503.552L260.023,503.32L260.017,502.911L260.014,502.576L260.011,502.369L260.01,502.198L260.008,501.944L260.005,501.432L260.003,501.185L260.003,501.093L260.002,500.973L260,500C260,487.827 260.908,475.864 262.663,464.16L262.706,463.88C264.567,451.571 267.365,439.569 271.018,427.96C271.238,427.26 271.462,426.56 271.684,425.877C273.356,420.729 275.197,415.657 277.2,410.674L277.474,409.996C277.566,409.77 277.658,409.544 277.75,409.318L278.027,408.642L278.193,408.241C279.164,405.901 280.17,403.58 281.212,401.275C281.977,399.584 282.761,397.904 283.566,396.23C284.131,395.054 284.706,393.883 285.287,392.724L285.411,392.476C285.715,391.871 286.022,391.268 286.336,390.655L286.605,390.132C286.716,389.917 286.828,389.702 286.939,389.487L287.198,388.991C287.335,388.731 287.471,388.47 287.613,388.201C290.893,381.989 294.436,375.939 298.229,370.064C300.196,367.018 302.23,364.02 304.33,361.069C305.578,359.314 306.85,357.577 308.139,355.865L308.573,355.29C308.775,355.024 308.977,354.758 309.177,354.496C311.591,351.337 314.08,348.24 316.637,345.215C316.963,344.83 317.29,344.445 317.614,344.066C317.927,343.7 318.241,343.336 318.555,342.974L319.027,342.43L319.396,342.008C320.549,340.692 321.716,339.388 322.898,338.095L323.351,337.602C323.513,337.425 323.676,337.249 323.839,337.073L324.329,336.545C325.802,334.963 327.296,333.401 328.807,331.862L329.312,331.349L329.771,330.886C329.958,330.698 330.146,330.51 330.328,330.328L330.837,329.819C332.492,328.175 334.169,326.555 335.876,324.954C338.079,322.888 340.321,320.863 342.597,318.882C343.734,317.892 344.882,316.913 346.042,315.941L346.266,315.754C346.45,315.6 346.635,315.446 346.82,315.293L347.375,314.833C348.329,314.045 349.289,313.265 350.25,312.496C352.389,310.785 354.558,309.11 356.76,307.468L357.021,307.274L357.438,306.965C358.794,305.962 360.16,304.972 361.533,304L361.694,303.886L362.06,303.628C362.88,303.051 363.703,302.479 364.533,301.91C364.826,301.709 365.119,301.509 365.417,301.307C368.811,299.003 372.267,296.783 375.779,294.652L376.21,294.391L376.638,294.134C377.392,293.681 378.148,293.232 378.913,292.784L379.324,292.543L379.484,292.45C396.655,282.451 415.174,274.523 434.696,269.007L435.041,268.91L435.154,268.878ZM210,500C210,513.333 147,540 120,540C97.923,540 80,522.077 80,500C80,477.923 97.923,460 120,460C147,460 210,486.667 210,500ZM790,500C790,486.667 853,460 880,460C902.077,460 920,477.923 920,500C920,522.077 902.077,540 880,540C853,540 790,513.333 790,500ZM304.166,304.166C297.418,310.913 252.042,292.526 238.379,278.863C227.207,267.691 227.207,249.551 238.379,238.379C249.551,227.207 267.691,227.207 278.863,238.379C292.526,252.042 310.913,297.418 304.166,304.166ZM695.834,304.166C689.087,297.418 707.474,252.042 721.137,238.379C732.309,227.207 750.449,227.207 761.621,238.379C772.793,249.551 772.793,267.691 761.621,278.863C747.958,292.526 702.582,310.913 695.834,304.166ZM500,210C486.667,210 460,147 460,120C460,97.923 477.923,80 500,80C522.077,80 540,97.923 540,120C540,147 513.333,210 500,210Z" style="fill:white;"/>
    </g>
</svg>
