<?xml version="1.0" encoding="UTF-8" standalone="no"?>
<!DOCTYPE svg PUBLIC "-//W3C//DTD SVG 1.1//EN" "http://www.w3.org/Graphics/SVG/1.1/DTD/svg11.dtd">
<svg width="100%" height="100%" viewBox="0 0 1000 1000" version="1.1" xmlns="http://www.w3.org/2000/svg" xmlns:xlink="http://www.w3.org/1999/xlink" xml:space="preserve" xmlns:serif="http://www.serif.com/" style="fill-rule:evenodd;clip-rule:evenodd;stroke-linejoin:round;stroke-miterlimit:2;">
    <g transform="matrix(0.946372,0,0,0.946372,26.8139,26.8139)">
        <path d="M270.728,134.336L493.857,25.674C499.623,22.866 506.583,25.268 509.39,31.033L519.564,51.924C522.372,57.689 519.971,64.649 514.205,67.457L273.362,184.746C272.498,185.167 271.608,185.47 270.708,185.663L270.395,975.5L202.813,975.5L202.813,99.707C225.699,78.035 248.369,75.669 270.741,99.707L270.728,134.336ZM451.411,973.074L287.723,973.074L287.723,196.747L530.325,82.554L797.188,973.074L644.81,973.074C633.354,961.162 618.219,947.202 611.205,927.858C593.187,878.165 596.912,820.581 576.525,791.951C566.209,777.464 551.893,752.428 530.325,752.36C513.343,752.306 516.716,735.14 514.33,722.845C516.711,712.259 515.048,702.023 518.374,694.082C519.76,690.773 520.034,688.197 518.48,686.804C509.76,678.983 518.963,665.426 515.769,657.691C508.957,641.193 494.012,633.478 482.081,633.431C456.323,633.331 435.619,653.378 425.301,692.9C417.152,724.114 418.223,752.152 440.617,759.702C440.669,773.911 440.823,794.845 424.806,799.204C409.907,803.259 400.682,810.372 394.547,819.593C397.197,845.208 389.94,872.574 402.366,904.823C408.181,919.913 408.128,937.439 416.302,948.814C424.476,960.189 437.052,970.289 451.411,973.074ZM496.78,973.074C516.342,954.96 529.836,961.965 540.029,924.554C546.404,965.414 540.532,962.946 553.49,972.775C553.621,972.875 553.767,972.975 553.925,973.074L496.78,973.074ZM504.586,35.795C502.305,31.11 496.649,29.159 491.965,31.441L258.721,145.029C254.036,147.31 252.085,152.966 254.366,157.65L262.633,174.625C264.914,179.31 270.57,181.261 275.254,178.98L508.499,65.391C513.183,63.11 515.134,57.455 512.853,52.77L504.586,35.795ZM501.959,38.753C500.042,34.817 495.291,33.178 491.355,35.094L261.973,146.802C258.037,148.719 256.398,153.47 258.315,157.406L265.26,171.668C267.177,175.603 271.928,177.243 275.864,175.326L505.246,63.618C509.182,61.702 510.821,56.95 508.905,53.015L501.959,38.753Z" style="fill:white;"/>
    </g>
</svg>
