<?xml version="1.0" encoding="UTF-8" standalone="no"?>
<!DOCTYPE svg PUBLIC "-//W3C//DTD SVG 1.1//EN" "http://www.w3.org/Graphics/SVG/1.1/DTD/svg11.dtd">
<svg width="100%" height="100%" viewBox="0 0 1000 1000" version="1.1" xmlns="http://www.w3.org/2000/svg" xmlns:xlink="http://www.w3.org/1999/xlink" xml:space="preserve" xmlns:serif="http://www.serif.com/" style="fill-rule:evenodd;clip-rule:evenodd;stroke-linejoin:round;stroke-miterlimit:2;">
    <g transform="matrix(2.55529,0,0,2.55529,-1170.89,-825.164)">
        <path d="M816.96,432.12C828.415,430.253 824.246,436.693 800,455C787.076,464.699 774.247,473.333 765,484.602C743.975,510.224 726.431,527.422 708,545C709.096,560.226 713.541,571.347 720,580C738.41,559.157 759.052,544.644 780,531C784.371,515.575 791.31,506.549 802,504.027C816.592,500.583 825.741,503.841 830,515C821.979,523.887 785.805,544.557 760,560.417C740.859,572.182 727.423,581.3 735.415,581C744.306,580.666 736.137,588.599 720,600C683.673,642.978 647.339,670.233 611,685C585.29,703.097 562.419,684.466 540,660C482.062,629.022 459.706,584.942 494,520C489.513,439.434 486.737,395.033 493.333,390C500.705,384.376 501.494,391.606 508.88,395.907C520.496,402.67 514.823,421.675 523.336,420C540.476,416.628 540.08,419.862 525.982,442.713C520.317,451.895 526.698,465.881 526,480C508.042,496.84 506.516,503.109 510,511.383C517.934,530.229 534.36,531.512 560,505C577.104,493.431 595.419,483.275 606.867,467.355C638.38,423.535 666.064,386.553 696,360C711.931,345.995 718.455,343.622 722.302,345.518C745.567,356.983 734.877,375.931 700,400C693.865,404.154 683.536,409.268 681.596,420C678.531,436.955 670.414,449.133 660,460C653.318,476.034 656.02,476.157 660,480.3C670.273,490.994 685.746,476.56 700,452C729.995,429.714 748.12,405.393 760,380C774.723,364.996 784.656,355.454 790,357.708C808.027,365.312 805.389,383.362 793,400C768.747,411.305 749.99,426.528 740,448C724.937,463.877 723.171,477.804 717.783,480C710.692,482.89 707.375,484.852 707.277,486C707.125,487.765 711.576,525.608 727.606,485.943C728.866,482.828 735.125,485.154 740,484L780,432C785.377,428.004 789.446,417.911 794.365,421.722C789.107,428.211 784.171,435.049 780,442.713C782.333,444.484 785.252,446.055 790,447C800.199,442.44 809.565,437.606 816.96,432.12ZM626,600C608.783,610.955 597.308,609.585 585,610C588.376,607.92 591.706,606.287 595,605L595,590C590,586.726 585,587.728 580,590C586.015,584.299 592.692,579.31 600,575C598.55,570.934 595.276,569.191 590,570C592.789,566.275 597.974,564.343 599,560.155C600.865,552.542 602.868,550.469 605,555C627.811,539.687 616.682,553.203 620,553.383C626.058,553.712 626.939,556.253 625,560C631.75,561.621 639.296,562.667 639,566.609C638.292,576.051 642.348,577.371 645,580C648.86,571.139 651.792,572.67 653.895,583.656C654.856,588.68 659.992,590.366 660,595L653.895,590C643.354,600.087 634.405,601.519 626,600ZM527,550C524.782,545.667 527.122,541.333 525,537C523.883,541.333 524.645,545.667 527,550C524.02,555.552 525.57,560.476 530,565C527.363,571.388 528.035,577.991 535,585C538.078,580 530.397,570 530,565C529.47,558.333 530.412,556.667 527,550ZM805,515C803.315,517.381 801.288,519.463 798.821,521.158C796.353,522.853 793.446,524.163 790,525C794.227,519.363 799.413,516.584 805,515ZM503,469C502.252,470.667 501.867,472.333 501.861,474C501.855,475.667 502.229,477.333 503,479C505.411,476.188 505.488,472.871 503,469ZM515,472C514.513,469.667 514.363,467.333 514.535,465C514.707,462.667 515.2,460.333 516,458C518.704,462.526 518.942,467.166 515,472ZM795.979,423.451L796,423.48C797.518,425.572 799.438,419.526 802,417.184C820.167,400.575 814.417,424.76 812.998,431.396C805.741,434.783 798.038,437.604 790,440C791.275,434.484 793.466,428.968 795.979,423.451ZM690,400C687.23,402.348 684.126,403.698 680.766,404.286C677.406,404.874 673.791,404.7 670,404C676.482,400.277 683.106,398.392 690,400ZM786,369C783.761,373.08 781.016,376.844 777.829,380.331C774.641,383.818 771.01,387.028 767,390C768.961,381.158 773.367,373.345 786,369Z" style="fill:white;"/>
    </g>
</svg>
