<?xml version="1.0" encoding="UTF-8" standalone="no"?>
<!DOCTYPE svg PUBLIC "-//W3C//DTD SVG 1.1//EN" "http://www.w3.org/Graphics/SVG/1.1/DTD/svg11.dtd">
<svg width="100%" height="100%" viewBox="0 0 1000 1000" version="1.1" xmlns="http://www.w3.org/2000/svg" xmlns:xlink="http://www.w3.org/1999/xlink" xml:space="preserve" xmlns:serif="http://www.serif.com/" style="fill-rule:evenodd;clip-rule:evenodd;stroke-linejoin:round;stroke-miterlimit:2;">
    <g transform="matrix(7.4287,0,0,7.4287,-3080.63,-1464.58)">
        <path d="M446,324C446.632,321.827 443.672,318.907 442.328,317C441.563,315.915 442.854,314.951 444,315L462,315C462.529,314.381 466.314,317.082 465,319.286C463.799,321.299 466.73,325.451 469,325L484,325C483.722,323.199 480.481,319.911 476,316C496.351,302.123 511.855,283.335 513,250C514.742,245.082 517.093,239.541 521.302,233C524.231,228.45 525.748,222.747 528,217C530.723,215.161 533.108,213.76 535,213C532.328,209.698 528.757,209.072 525,209C510.541,198.246 497.754,205.161 486,223C480.498,219.375 474.387,218.143 468,218L475,235C456.358,233.808 438.785,234.507 429,249C430.47,250.39 442.202,249.961 458,251.168C459.656,251.294 460.952,252.238 462,253C463.045,255.895 460.518,259.304 456,263C443.711,270.776 437.904,280.844 438,293L430,296L436,301C436.835,303.779 434.969,305.187 433.333,306C432.65,306.339 432.527,307.106 432.5,307.5C433.196,314.315 431.133,320.894 433.336,323C433.976,323.611 434.855,323.956 436,324L446,324Z" style="fill:white;"/>
    </g>
</svg>
