<?xml version="1.0" encoding="UTF-8" standalone="no"?>
<!DOCTYPE svg PUBLIC "-//W3C//DTD SVG 1.1//EN" "http://www.w3.org/Graphics/SVG/1.1/DTD/svg11.dtd">
<svg width="100%" height="100%" viewBox="0 0 1000 1000" version="1.1" xmlns="http://www.w3.org/2000/svg" xmlns:xlink="http://www.w3.org/1999/xlink" xml:space="preserve" xmlns:serif="http://www.serif.com/" style="fill-rule:evenodd;clip-rule:evenodd;stroke-linejoin:round;stroke-miterlimit:2;">
    <g transform="matrix(1.77746,0,0,1.8,-584.248,-292)">
        <path d="M608.936,689.998C518.589,689.602 458.416,638.664 431.41,544.909C443.219,536.475 446.224,526.139 443.164,515C440.203,504.22 435.426,496.257 421.228,498.084C414.353,453.849 413.238,402.471 418.098,344.509C431.137,338.756 436.159,329.365 435.538,317.944C435.017,308.377 432.754,300.549 423.137,297.734C426.218,274.099 430.193,249.511 435.075,224C463.663,204.063 505.059,192.805 579.108,190.462C583.915,210.296 594.63,217.871 608.394,217.298C608.935,217.275 611.2,217.281 611.606,217.298C625.37,217.871 636.085,210.296 640.892,190.462C714.941,192.805 756.337,204.063 784.925,224C789.807,249.511 793.782,274.099 796.863,297.734C787.246,300.549 784.983,308.377 784.462,317.944C783.841,329.365 788.863,338.756 801.902,344.509C806.762,402.471 805.647,453.849 798.772,498.084C784.574,496.257 779.797,504.22 776.836,515C773.776,526.139 776.781,536.475 788.59,544.909C761.478,639.031 700.939,690 610,690L608.936,689.998ZM609.299,542.959C549.767,539.409 501.774,515.255 460,480C486.381,552.744 535.38,594.131 610,600L610.873,599.93C685.002,593.808 733.722,552.46 760,480C718.062,515.393 669.857,539.598 610,543L609.299,542.959ZM797.202,507.504C795.74,515.702 794.071,523.642 792.198,531.321C787.946,529.325 785,525.004 785,520C785,513.2 790.441,507.662 797.202,507.504ZM422.798,507.504C424.26,515.702 425.929,523.642 427.802,531.321C432.054,529.325 435,525.004 435,520C435,513.2 429.559,507.662 422.798,507.504ZM709.81,290C720.876,290 729.86,323.606 729.86,365C729.86,406.394 720.876,440 709.81,440C698.744,440 689.76,406.394 689.76,365C689.76,323.606 698.744,290 709.81,290ZM510.19,290C499.124,290 490.14,323.606 490.14,365C490.14,406.394 499.124,440 510.19,440C521.256,440 530.24,406.394 530.24,365C530.24,323.606 521.256,290 510.19,290ZM798.207,308.453C799.075,315.659 799.857,322.774 800.557,329.831C797.084,328.253 794.372,325.111 793.501,321.099C792.433,316.176 794.429,311.297 798.207,308.453ZM421.793,308.453C420.925,315.659 420.143,322.774 419.443,329.831C422.916,328.253 425.628,325.111 426.499,321.099C427.567,316.176 425.571,311.297 421.793,308.453ZM614.646,208.219C613.041,208.888 606.844,208.858 605.354,208.219C599.013,205.503 594.431,199.955 595.98,193.232C596.24,192.103 596.645,191.046 597.173,190.075L599.206,190.052C602.804,190.02 606.402,190.003 610,190L612.699,190.005C615.397,190.013 618.095,190.028 620.794,190.052L622.827,190.075C623.355,191.046 623.76,192.103 624.02,193.232C625.569,199.955 621.015,205.568 614.646,208.219Z" style="fill:white;"/>
    </g>
</svg>
