<?xml version="1.0" encoding="UTF-8" standalone="no"?>
<!DOCTYPE svg PUBLIC "-//W3C//DTD SVG 1.1//EN" "http://www.w3.org/Graphics/SVG/1.1/DTD/svg11.dtd">
<svg width="100%" height="100%" viewBox="0 0 1000 1000" version="1.1" xmlns="http://www.w3.org/2000/svg" xmlns:xlink="http://www.w3.org/1999/xlink" xml:space="preserve" xmlns:serif="http://www.serif.com/" style="fill-rule:evenodd;clip-rule:evenodd;stroke-linejoin:round;stroke-miterlimit:2;">
    <g transform="matrix(6.36042,0,0,6.36042,-4219.43,-1902.65)">
        <path d="M706,448.5L720,438.5C697.711,439.101 686.436,427.335 682.629,416C679.321,406.147 678.504,390.318 694,377C676.414,362.137 680.099,342.182 685.589,332C690.537,322.824 701.115,315.205 722,317L705,307L779,307L762,317C782.885,315.205 793.463,322.824 798.411,332C803.901,342.182 807.586,362.137 790,377C805.496,390.318 804.679,406.147 801.371,416C797.564,427.335 786.289,439.101 764,438.5L778,448.5L706,448.5ZM741.95,424.056C737.662,430.416 732.231,436.355 726,442L758,442C751.257,436.211 745.655,430.264 741.95,424.056ZM762.25,406.5C769.011,406.5 774.5,411.989 774.5,418.75C774.5,425.511 769.011,431 762.25,431C755.489,431 750,425.511 750,418.75C750,411.989 755.489,406.5 762.25,406.5ZM721.75,406.5C714.989,406.5 709.5,411.989 709.5,418.75C709.5,425.511 714.989,431 721.75,431C728.511,431 734,425.511 734,418.75C734,411.989 728.511,406.5 721.75,406.5ZM780.161,377.137L766,362L766,371C765.937,372.992 764.094,375.194 763.988,377C763.85,379.372 765.677,381.255 766,383.5C766.335,385.833 766,391 766,391L777.683,380.122L782.118,384.382L765,401.5C773.721,401.983 777.669,407.688 779.443,412.5C781.21,417.296 781.707,424.208 775,430.5C786.779,429.72 793.763,420.453 795.684,412.5C797.643,404.384 797.242,391.937 785.201,381.671L780.161,377.137ZM709,430.5C702.293,424.208 702.79,417.296 704.557,412.5C706.331,407.688 710.279,401.983 719,401.5L699,381.5C686.762,391.799 686.346,404.339 688.316,412.5C690.237,420.453 697.221,429.72 709,430.5ZM728.813,367.708C732.578,365.276 737.148,364.111 742,364.002L742,364L742.1,364L742.1,364.002C749.009,364.157 755.247,366.454 759.5,371.5C761.611,363.2 757.581,353.876 742,342.5C727.69,352.297 722.077,364.684 726.309,374C730.121,382.393 740.32,386.977 753,380.5L756,386C745.153,392.994 734.808,392.583 725.08,383.079C723.853,388.533 724.69,396.145 730,401L742.05,411.954L754,401C760.414,395.135 760.302,385.25 757.908,380C755.808,375.395 751.035,371.472 742.734,370.114C742.507,370.076 742.201,370.041 741.957,370.008C737.635,370.625 734.234,371.919 731.639,373.643L728.813,367.708ZM703.5,377.5L699,373C686.762,362.701 686.346,350.161 688.316,342C690.237,334.047 697.221,324.78 709,324C702.293,330.292 702.79,337.204 704.557,342C706.331,346.812 710.279,352.517 719,353L702.535,369.465L707.018,373.74L718,362L718,371C718.063,372.992 719.895,375.194 720,377C720.138,379.372 718.321,381.256 718,383.5C717.667,385.833 718,391 718,391L703.5,377.5ZM775,324C781.707,330.292 781.21,337.204 779.443,342C777.669,346.812 773.721,352.517 765,353L785,373C797.238,362.701 797.654,350.161 795.684,342C793.763,334.047 786.779,324.78 775,324ZM762.25,323.5C769.011,323.5 774.5,328.989 774.5,335.75C774.5,342.511 769.011,348 762.25,348C755.489,348 750,342.511 750,335.75C750,328.989 755.489,323.5 762.25,323.5ZM721.75,323.5C714.989,323.5 709.5,328.989 709.5,335.75C709.5,342.511 714.989,348 721.75,348C728.511,348 734,342.511 734,335.75C734,328.989 728.511,323.5 721.75,323.5ZM726,312.5C731.767,317.687 737.317,323.462 742,330C746.683,323.462 752.233,317.687 758,312.5L726,312.5Z" style="fill:white;"/>
    </g>
</svg>
