<?xml version="1.0" encoding="UTF-8" standalone="no"?>
<!DOCTYPE svg PUBLIC "-//W3C//DTD SVG 1.1//EN" "http://www.w3.org/Graphics/SVG/1.1/DTD/svg11.dtd">
<svg width="100%" height="100%" viewBox="0 0 1000 1000" version="1.1" xmlns="http://www.w3.org/2000/svg" xmlns:xlink="http://www.w3.org/1999/xlink" xml:space="preserve" xmlns:serif="http://www.serif.com/" style="fill-rule:evenodd;clip-rule:evenodd;stroke-linejoin:round;stroke-miterlimit:2;">
    <g transform="matrix(1.78306,0,0,1.78306,-195.392,-445.689)">
        <path d="M322.35,375.887C342.806,451.519 346.089,519.625 376.059,543.454C369.104,563.128 364.954,582.768 364.437,602.363C348.406,666.588 326.619,727.527 290,780C242.799,808.922 229.513,605.455 322.35,375.887ZM457.65,375.887C437.194,451.519 433.911,519.625 403.941,543.454C410.896,563.128 415.046,582.768 415.563,602.363C431.594,666.588 453.381,727.527 490,780C537.201,808.922 550.487,605.455 457.65,375.887ZM384.688,645C382.375,647 380.063,649 377.75,651L381.219,644C371.543,634.869 366.395,624.614 371.125,613C368.547,610.035 369.647,606.686 368.344,603C369.355,582.282 374.448,561.752 381.906,542C361.963,525.609 353.352,499.383 349.531,469C362.651,479.849 376.174,481.767 390,473.648L390.324,473.836C404.037,481.736 417.451,479.764 430.469,469C426.648,499.383 418.037,525.609 398.094,542C404.537,561.079 410.33,581.524 411.656,603C410.353,606.686 411.453,610.035 408.875,613C413.605,624.614 408.457,634.869 398.781,644L402.25,651C399.938,649 397.625,647 395.313,645L390,645.27L384.688,645ZM258.135,586.082L257,598C249.489,600.905 242.218,604.389 235,608C233.157,606.852 232.823,605.186 234,603C241.537,596.591 249.725,591.168 258.135,586.082ZM521.865,586.082L523,598C530.511,600.905 537.782,604.389 545,608C546.843,606.852 547.177,605.186 546,603C538.463,596.591 530.275,591.168 521.865,586.082ZM389.683,469.27C376.257,480.584 362.403,475.608 348.375,464C345.063,453.165 341.85,442.313 340.578,431.134C351.22,437.364 362.792,435.429 373.813,420.355C378.564,423.38 383.969,424.567 390,424L390.282,424.025C396.199,424.529 401.511,423.333 406.188,420.355C417.208,435.429 428.78,437.364 439.422,431.134C438.15,442.313 434.937,453.165 431.625,464C417.487,475.699 403.526,480.662 390,469L389.683,469.27ZM306.652,411.338C305.138,413.225 303.96,415.113 304,417C290.715,423.276 278.017,433.226 265,436.056C251.621,438.965 237.509,432.4 224,425C222.773,423.248 222.813,421.836 225,421C238.001,429.267 250.877,434.245 263,431.735C277.895,428.651 292.344,419.18 306.652,411.338ZM473.348,411.338C474.862,413.225 476.04,415.113 476,417C489.285,423.276 501.983,433.226 515,436.056C528.379,438.965 542.491,432.4 556,425C557.227,423.248 557.187,421.836 555,421C541.999,429.267 529.123,434.245 517,431.735C502.105,428.651 487.656,419.18 473.348,411.338ZM330.323,391.453C342.047,444.525 356.15,433.479 370.344,420C364.266,407.056 359.962,392.302 361.094,372C343.895,378.416 329.65,384.861 330.323,391.453ZM449.677,391.453C437.953,444.525 423.85,433.479 409.656,420C415.734,407.056 420.038,392.302 418.906,372C436.105,378.416 450.35,384.861 449.677,391.453ZM389.71,420.051C383.643,421.084 378.821,419.4 374.634,416.332C366.675,394.33 351.81,368.866 390,370L390.445,369.988C428.074,369.065 413.294,394.416 405.366,416.332C401.113,419.449 396.204,421.137 390,420L389.71,420.051ZM329.467,378.206L322.938,372C322.735,365.696 321.744,356.552 328.322,347C332.903,340.348 334.874,334.395 336.813,328C353.785,326.961 363.61,318.233 358.781,304C359.563,303.709 360.333,303.432 361.092,303.17C358.129,296.945 352.911,291.853 347.219,287C354.492,291.193 361.615,295.539 367.353,301.305C374.12,299.639 380.861,299.205 390,300L390.427,299.964C399.349,299.219 405.985,299.665 412.647,301.305C418.385,295.539 425.508,291.193 432.781,287C427.089,291.853 421.871,296.945 418.908,303.17C419.667,303.432 420.437,303.709 421.219,304C416.39,318.233 426.215,326.961 443.188,328C445.126,334.395 447.097,340.348 451.678,347C458.256,356.552 457.265,365.696 457.063,372L450.533,378.206L390,360L329.467,378.206ZM356.469,306C348.681,305.75 343.329,307.755 340.143,311.319C336.957,314.884 335.937,320.009 336.813,326C353.187,323.241 359.381,315.123 356.469,306ZM423.531,306C431.319,305.75 436.671,307.755 439.857,311.319C443.043,314.884 444.063,320.009 443.188,326C426.813,323.241 420.619,315.123 423.531,306ZM337.012,312.248L340.281,308C333.47,301.275 326.941,293.887 320.625,286L326.406,278C320.256,278.204 317.065,281.126 316,286C322.742,295.126 329.687,303.959 337.012,312.248ZM442.988,312.248L439.719,308C446.53,301.275 453.059,293.887 459.375,286L453.594,278C459.744,278.204 462.935,281.126 464,286C457.258,295.126 450.313,303.959 442.988,312.248Z" style="fill:white;"/>
    </g>
</svg>
