<?xml version="1.0" encoding="UTF-8" standalone="no"?>
<!DOCTYPE svg PUBLIC "-//W3C//DTD SVG 1.1//EN" "http://www.w3.org/Graphics/SVG/1.1/DTD/svg11.dtd">
<svg width="100%" height="100%" viewBox="0 0 1000 1000" version="1.1" xmlns="http://www.w3.org/2000/svg" xmlns:xlink="http://www.w3.org/1999/xlink" xml:space="preserve" xmlns:serif="http://www.serif.com/" style="fill-rule:evenodd;clip-rule:evenodd;stroke-linejoin:round;stroke-miterlimit:2;">
    <path d="M502.769,730.069C456.207,730.678 409.035,717.218 368.014,688.495C326.994,659.772 298.211,620.049 282.859,576.086C236.296,576.695 189.124,563.234 148.104,534.512C44.07,461.667 18.749,318.064 91.594,214.031C164.439,109.998 308.042,84.677 412.075,157.522C453.095,186.245 481.878,225.968 497.231,269.931C543.793,269.322 590.965,282.782 631.986,311.505C673.006,340.228 701.789,379.951 717.141,423.914C763.704,423.305 810.876,436.766 851.896,465.488C955.93,538.333 981.251,681.936 908.406,785.969C835.561,890.002 691.958,915.323 587.925,842.478C546.905,813.755 518.122,774.032 502.769,730.069ZM609.923,811.062C523.228,750.358 502.128,630.69 562.832,543.995C623.536,457.301 743.204,436.2 829.899,496.904C916.593,557.608 937.694,677.277 876.99,763.971C816.286,850.666 696.617,871.766 609.923,811.062ZM457.739,273.851C400.614,284.516 347.447,316.684 311.505,368.014C275.563,419.344 263.52,480.307 273.035,537.636C237.307,536.363 201.537,525.107 170.101,503.096C83.407,442.392 62.306,322.723 123.01,236.029C183.714,149.334 303.383,128.234 390.077,188.938C421.513,210.949 444.324,240.713 457.739,273.851Z" style="fill:white;"/>
</svg>
