<?xml version="1.0" encoding="UTF-8" standalone="no"?>
<!DOCTYPE svg PUBLIC "-//W3C//DTD SVG 1.1//EN" "http://www.w3.org/Graphics/SVG/1.1/DTD/svg11.dtd">
<svg width="100%" height="100%" viewBox="0 0 1000 1000" version="1.1" xmlns="http://www.w3.org/2000/svg" xmlns:xlink="http://www.w3.org/1999/xlink" xml:space="preserve" xmlns:serif="http://www.serif.com/" style="fill-rule:evenodd;clip-rule:evenodd;stroke-linejoin:round;stroke-miterlimit:2;">
    <g transform="matrix(18.4976,0,0,18.4976,-7487.45,-3680.59)">
        <path d="M415.895,213.5C419.719,210.847 424.992,208.821 432,208C435.471,207.594 439.45,208.566 443.164,210.385C444.306,207.238 449.301,207.712 450.5,208.5C451.754,209.324 454.831,214.508 451.277,216.214C454.208,219.223 456.135,222.696 456.137,226C456.143,235.281 447.812,243.18 434,244C421.335,244.752 408.898,241.644 407.577,230C407.184,226.537 407.991,222.591 410.406,218.987C407.129,217.195 406.357,214.152 409.5,212C412.457,209.975 414.359,211.177 415.895,213.5ZM432.5,224.792C428.016,223.673 428.292,229.382 428.561,229.837C428.75,230.156 431.148,230.759 432.5,229.193C432.362,227.587 432.41,226.277 432.5,224.792ZM433.243,229C434.554,230.49 437.272,229.847 437.518,229.5C437.818,229.077 438.4,222.887 433.276,224.778C433.19,226.17 433.125,227.499 433.243,229ZM427.481,220.89L429.978,218.887C430.194,218.715 430.228,218.4 430.056,218.184C429.883,217.969 429.568,217.935 429.353,218.107L426.855,220.11C426.64,220.283 426.605,220.597 426.778,220.813C426.95,221.028 427.265,221.063 427.481,220.89ZM437.312,219.61L434.812,217.61C434.597,217.437 434.282,217.472 434.11,217.688C433.937,217.903 433.972,218.218 434.188,218.39L436.688,220.39C436.903,220.563 437.218,220.528 437.39,220.312C437.563,220.097 437.528,219.782 437.312,219.61ZM428.223,214.084L423.723,217.084C423.493,217.237 423.431,217.548 423.584,217.777C423.737,218.007 424.048,218.069 424.277,217.916L428.777,214.916C429.007,214.763 429.069,214.452 428.916,214.223C428.763,213.993 428.452,213.931 428.223,214.084ZM439.686,216.036L434.686,214.036C434.429,213.933 434.138,214.058 434.036,214.314C433.933,214.571 434.058,214.862 434.314,214.964L439.314,216.964C439.571,217.067 439.862,216.942 439.964,216.686C440.067,216.429 439.942,216.138 439.686,216.036ZM413.5,216.5C413.76,215.189 413.625,214.152 413.181,213.649C412.737,213.146 411.982,213.176 411,214C410.003,214.837 409.904,218.227 413.5,216.5ZM447.5,214C446.773,212.578 446.568,211.446 446.897,210.798C447.226,210.15 448.089,209.986 449.5,210.5C452.254,211.504 449.779,213.737 447.5,214Z" style="fill:white;"/>
    </g>
</svg>
