<?xml version="1.0" encoding="UTF-8" standalone="no"?>
<!DOCTYPE svg PUBLIC "-//W3C//DTD SVG 1.1//EN" "http://www.w3.org/Graphics/SVG/1.1/DTD/svg11.dtd">
<svg width="100%" height="100%" viewBox="0 0 1000 1000" version="1.1" xmlns="http://www.w3.org/2000/svg" xmlns:xlink="http://www.w3.org/1999/xlink" xml:space="preserve" xmlns:serif="http://www.serif.com/" style="fill-rule:evenodd;clip-rule:evenodd;stroke-linejoin:round;stroke-miterlimit:2;">
    <g transform="matrix(1.88265,0,0,1.88265,-774.824,-535.632)">
        <path d="M679.204,762.369C694.43,767.563 710.398,773.205 728.5,776.044C739.917,777.835 751.798,779.651 764.5,779.831C768.164,779.883 771.882,779.889 775.657,779.823C774.846,783.458 774.427,786.946 774.419,790.281C743.604,792.618 711.287,787.431 679.368,776.464C678.884,771.885 678.843,767.177 679.204,762.369ZM832.628,771.249C832.458,772.702 832.422,774.12 832.518,775.501C814.893,783.646 796.178,788.361 776.853,790.08C777.036,786.746 777.565,783.3 778.406,779.763C789.733,779.459 801.574,778.465 814,776.1C820.107,774.939 826.282,773.168 832.628,771.249ZM679.331,760.844C682.468,726.853 705.315,688.081 733.92,655C748.765,637.831 765.571,621.517 786.119,605.373C806.115,631.095 824.426,658.406 840.436,687.952L840,688.389C805.429,723.125 782.431,753.567 776.154,777.762C772.372,777.843 768.655,777.839 765,777.753C752.074,777.449 740.074,775.23 728.5,773.871C710.398,771.745 694.771,765.443 679.331,760.844ZM778.932,777.688C786.454,749.744 812.658,716.664 840.758,690C840.931,689.837 841.103,689.673 841.277,689.509C848.599,703.127 855.431,717.213 861.715,731.837C858.159,734.404 854.573,737.454 851,740.965C840.249,751.528 834.162,761.468 832.774,770.196C826.368,771.846 820.15,773.469 814,774.4C801.727,776.257 790.052,777.333 778.932,777.688ZM578.026,703.854C595.149,717.414 613.608,732.35 638,744C650.269,749.859 662.687,756.763 677,761.619L677.055,761.638C676.747,766.775 676.988,771.553 677.774,775.911C642.231,763.481 607.23,743.908 575.427,719.618C576.343,714.421 577.166,709.18 578.026,703.854ZM834.571,774.534C834.729,762.357 841.891,751.615 853,741.821C866.665,729.773 876.443,721.229 893.909,724.449C887.467,734.116 879.534,743.12 870,751.313C858.858,760.887 846.99,768.577 834.571,774.534ZM578.379,701.679C585.05,660.737 594.92,614.153 666,541.112C675.593,531.254 686.525,520.92 699,510L699.101,509.899C729.644,539.482 758.702,570.306 784.914,603.827C736.585,645.612 702.389,686.894 687.094,723C681.329,736.608 678.017,749.199 677.154,760.205C662.774,755.975 650.988,747.624 638,742.104C614.89,732.28 605.773,721.843 578.379,701.679ZM842.476,688.387C863.62,668.729 888.244,653.334 916.112,650.452C915.441,676.922 908.702,701.742 894.657,723.314C885.45,720.163 874.247,723.068 862.653,731.17C856.464,716.379 849.717,702.139 842.476,688.387ZM496.451,617.252C512.851,642.789 531.324,669.137 561.969,691.5C566.496,694.804 571.014,698.316 575.611,701.944C574.825,707.759 574.344,713.319 574.114,718.612C560.04,707.776 546.599,696.014 534.026,683.541C519.886,669.514 506.844,654.588 495.224,639.055C495.61,631.603 495.806,624.314 496.451,617.252ZM496.593,615.769C496.755,614.166 496.942,612.577 497.163,611C497.876,605.905 498.516,600.895 499.295,596C500.762,586.781 501.684,577.844 504,569.63C505.98,562.607 509.528,555.299 512,549C518.319,532.898 541.937,488.108 557.471,471.175C561.82,477.02 566.882,482.348 572.547,486.875C602.35,510.687 657.907,515.745 679.199,490.966C685.547,496.905 691.846,502.884 698.086,508.916L698,509C685.379,519.276 673.96,529.417 664,539.832C604.667,601.876 582.122,657.367 575.904,699.866C572.503,697.39 568.831,694.774 564.83,692C555.152,685.289 546.793,678.111 538.999,670.5C533.119,664.759 527.561,658.772 522,652.552C512.335,641.742 504.617,629.172 496.593,615.769ZM788.031,603.879C820.101,578.953 853.631,551.845 895.866,554.203C909.142,585.961 916.505,618.029 916.156,648.06C890.568,649.563 863.686,665.146 841.624,686.777C825.851,657.064 807.774,629.64 788.031,603.879ZM494.357,613.982C493.986,621.563 493.814,629.15 493.412,636.613C428.049,547.734 409.648,439.934 499.211,368.988C517.037,373.898 534,380.998 550.264,389.673C550.176,389.78 550.088,389.89 550,390C534.458,409.452 537.971,440.787 553.502,465.39C527.697,499.55 508.904,539.801 498.407,582C495.965,591.816 494.995,601.985 494.45,612.184C490.507,605.588 486.444,598.814 482,591.969C471.153,575.26 466.34,556.951 460.882,539.5C448.326,499.352 453.12,453.881 451,428L450,430.125C452.118,446.547 450.285,471.295 451.016,492C451.526,506.425 453.28,521.799 458.481,538C460.86,545.412 462.302,553.296 465.36,561C469.445,571.291 473.593,581.907 480.258,592C484.987,599.161 489.603,606.53 494.357,613.982ZM701.237,507.78C735.959,473.608 775.194,449.081 822.384,441.542C853.276,475.194 878.628,513.603 895.153,552.508C857.01,549.848 818.128,575.336 787.035,602L786.765,602.232C760.644,568.363 731.647,537.357 701.237,507.78ZM681.091,488.558C699.825,462.42 677.084,416.8 647.453,393.125C646.623,392.462 645.781,391.813 644.924,391.177C650.094,387.517 673.882,375.99 681,373.862C695.513,369.523 711.468,366.77 729.183,366.09C762.752,385.289 794.288,411.108 821.556,440.644C774.135,448.245 735.108,473.22 700.246,506.818C693.923,500.68 687.532,494.596 681.091,488.558ZM500.238,368.179C569.379,314.119 652.839,323.26 726.795,364.738C709.422,364.127 693.432,366.273 679,371.829C673.049,374.12 648.189,386.415 642.402,389.372C613.334,369.294 572.508,365.767 552.121,387.548C534.85,378.367 517.487,371.559 500.238,368.179Z" style="fill:white;"/>
    </g>
</svg>
