<?xml version="1.0" encoding="UTF-8" standalone="no"?>
<!DOCTYPE svg PUBLIC "-//W3C//DTD SVG 1.1//EN" "http://www.w3.org/Graphics/SVG/1.1/DTD/svg11.dtd">
<svg width="100%" height="100%" viewBox="0 0 1000 1000" version="1.1" xmlns="http://www.w3.org/2000/svg" xmlns:xlink="http://www.w3.org/1999/xlink" xml:space="preserve" xmlns:serif="http://www.serif.com/" style="fill-rule:evenodd;clip-rule:evenodd;stroke-linejoin:round;stroke-miterlimit:2;">
    <g transform="matrix(3.08418,0,0,3.08418,-1042.38,-1044.74)">
        <path d="M499.527,610.284C499.284,609.865 499.048,609.446 498.819,609.028C497.704,606.993 494.998,601.109 496,603C497.076,605.031 501.471,610.036 502,610C510.502,620.193 517.673,626.37 522.34,625C525.205,624.159 527.127,620.475 527.835,613.13C527.798,613.097 527.993,608.669 528.111,607.725C528.522,604.438 529,601 529,601C529,601 529.202,604.465 529.349,607.775C529.391,608.725 529.428,609.651 529.449,610.483L529.455,610.711C556.301,605.368 583.15,599.491 610,593C629.578,599.428 638.953,610.264 642.206,604C644.403,599.77 642.479,590.072 635,573C631.195,537.479 624.375,508.1 611.126,490C601.693,477.113 587.75,470.975 570,471.887C576.483,504.475 573.371,527.084 561.9,541C548.311,557.485 521.118,566.305 488,556C476.94,581.246 458.758,586.234 448,585.175C439.45,584.334 420.454,578.32 428,559C418.703,559.819 410.493,559.714 403,559C395.138,590.953 388.478,610.554 387.099,617C385.657,623.742 399.843,616.475 411,604C437.83,611.198 467.035,613.87 499.527,610.284ZM485,555C479.706,574.99 457.684,585.317 448,583.259C440.511,581.667 422.092,576.266 431,557C436.402,557.278 443.752,555.031 454,554C451.578,557.667 450.616,561.333 451,565C451.857,560.797 453.807,557.107 457,554C466.54,552.813 475.791,553.749 485,555ZM556.417,430.427C557.743,433.448 558.942,436.636 560,440C574.92,487.444 575.036,521.344 558.415,540C540.622,559.973 521.468,560.044 492,555.185C481.301,553.42 467.869,549.939 456,552C435.337,555.588 370.083,567.44 356.782,530C351.154,514.159 354.302,496.469 370,475.523C376.898,466.319 379.61,453.093 385.099,440C387.049,435.348 389.277,430.955 391.748,426.821C401.526,413.672 430.985,389.455 431.03,389.624C445.332,382.196 460.731,378.772 475,379.526C489.268,380.28 505.9,383.619 520.978,391.824C521.016,391.72 524.105,393.757 525.575,395C524.514,393.613 523.45,392.286 522.297,391.023C522.067,390.771 521.836,390.524 521.602,390.28C530.204,370.842 554.181,385.352 560,391.412C573.351,405.315 582.014,421.519 578.24,429C576.266,432.913 570.889,434.439 561,432C560.263,431.756 559.531,431.49 558.803,431.203C558.011,430.082 557.214,428.973 556.416,427.879C552.27,422.197 548.11,416.956 544,413C547.452,416.828 550.841,421.728 554.249,427.02C554.972,428.141 555.693,429.279 556.417,430.427ZM602.079,477.611C607.643,481.65 611.524,486.566 616,492C634.027,479.171 642.273,463.112 646,446C633.694,459.065 620.053,470.684 602.079,477.611ZM413.5,474.596C418.191,474.596 422,478.405 422,483.096C422,487.788 418.191,491.596 413.5,491.596C408.809,491.596 405,487.788 405,483.096C405,478.405 408.809,474.596 413.5,474.596ZM503.5,474.596C508.191,474.596 512,478.405 512,483.096C512,487.788 508.191,491.596 503.5,491.596C498.809,491.596 495,487.788 495,483.096C495,478.405 498.809,474.596 503.5,474.596ZM413.5,476.721C417.018,476.721 419.875,479.578 419.875,483.096C419.875,486.615 417.018,489.471 413.5,489.471C409.982,489.471 407.125,486.615 407.125,483.096C407.125,479.578 409.982,476.721 413.5,476.721ZM503.5,476.721C507.018,476.721 509.875,479.578 509.875,483.096C509.875,486.615 507.018,489.471 503.5,489.471C499.982,489.471 497.125,486.615 497.125,483.096C497.125,479.578 499.982,476.721 503.5,476.721ZM389.746,427.789C389.54,427.862 389.334,427.932 389.128,428C379.239,430.439 370.862,425.913 368.888,422C365.114,414.519 375.778,401.315 389.128,387.412C395.137,381.155 422.362,365.959 430.311,388.298C422.601,393.205 414.288,400.356 406.521,408C399.585,414.826 394.42,421.252 389.746,427.789Z" style="fill:white;"/>
    </g>
</svg>
