<?xml version="1.0" encoding="UTF-8" standalone="no"?>
<!DOCTYPE svg PUBLIC "-//W3C//DTD SVG 1.1//EN" "http://www.w3.org/Graphics/SVG/1.1/DTD/svg11.dtd">
<svg width="100%" height="100%" viewBox="0 0 1000 1000" version="1.1" xmlns="http://www.w3.org/2000/svg" xmlns:xlink="http://www.w3.org/1999/xlink" xml:space="preserve" xmlns:serif="http://www.serif.com/" style="fill-rule:evenodd;clip-rule:evenodd;stroke-linejoin:round;stroke-miterlimit:2;">
    <g transform="matrix(2.21241,0,0,2.21241,-619.719,-943.162)">
        <path d="M378.482,731.123C379.124,731.765 380.166,731.765 380.808,731.123L390.808,721.123C391.279,720.652 391.42,719.944 391.165,719.33C390.91,718.715 390.311,718.314 389.645,718.314L369.645,718.314C368.98,718.314 368.38,718.715 368.125,719.33C367.871,719.944 368.011,720.652 368.482,721.123L378.482,731.123ZM369.807,590.967C373.121,590.419 376.528,590.134 380,590.134C380.415,590.134 380.829,590.138 381.238,590.146C381.798,590.157 382.357,590.175 382.911,590.201C388.547,590.461 393.989,591.473 399.136,593.139C399.448,593.241 399.759,593.344 400.072,593.451C400.987,593.763 401.893,594.097 402.786,594.449L403.138,594.589C403.344,594.672 403.55,594.756 403.754,594.841C403.986,594.937 404.218,595.034 404.449,595.133C404.68,595.232 404.91,595.333 405.14,595.435C405.6,595.638 406.057,595.848 406.508,596.061C407.1,596.341 407.687,596.63 408.27,596.928C415.488,600.623 421.89,605.688 427.134,611.781L427.244,611.91L427.274,611.944C433.535,619.27 438.124,628.064 440.449,637.734L440.487,637.894L440.531,638.082C440.816,639.296 441.065,640.523 441.277,641.763L441.329,642.07L441.335,642.109C441.883,645.424 442.168,648.83 442.168,652.302C442.168,655.318 441.953,658.284 441.538,661.182L441.509,661.378L441.452,661.765L441.397,662.112C441.257,662.996 441.098,663.874 440.921,664.745C440.811,665.281 440.696,665.815 440.573,666.347L440.487,666.71C440.448,666.877 440.407,667.044 440.366,667.21L440.305,667.459L440.21,667.831L440.113,668.203L440.094,668.273C437.135,679.419 431.154,689.341 423.081,697.106L422.884,697.296L422.613,697.552C422.522,697.637 422.431,697.722 422.341,697.807L422.09,698.039C421.832,698.276 421.572,698.512 421.31,698.746C421.074,698.956 420.836,699.164 420.597,699.37C420.299,699.627 419.999,699.881 419.696,700.133C419.2,700.546 418.697,700.951 418.189,701.347L418.078,701.434L417.782,701.662L417.638,701.772C417.191,702.113 416.739,702.448 416.283,702.777C415.94,703.023 415.596,703.266 415.249,703.505L415.058,703.637L414.749,703.847L414.438,704.056L414.323,704.132C414.012,704.339 413.699,704.542 413.385,704.743L413.182,704.872L413.07,704.943C412.603,705.237 412.133,705.525 411.658,705.806C411.526,705.885 411.393,705.963 411.259,706.041L410.935,706.229C408.474,707.645 405.907,708.897 403.251,709.969C402.628,710.221 401.999,710.464 401.366,710.696L401.009,710.825C400.883,710.871 400.757,710.916 400.631,710.96C400.398,711.042 400.164,711.123 399.93,711.202C399.689,711.284 399.448,711.364 399.206,711.442L398.843,711.559L398.478,711.674C396.775,712.204 395.041,712.663 393.279,713.047L392.901,713.128C392.508,713.211 392.114,713.29 391.718,713.366C390.971,713.509 390.219,713.638 389.462,713.754C389.205,713.793 388.948,713.831 388.689,713.867L388.302,713.92C387.396,714.041 386.485,714.143 385.568,714.224L385.174,714.258L384.78,714.289C384.643,714.3 384.506,714.31 384.369,714.319C384.111,714.337 383.853,714.353 383.594,714.368L383.197,714.39C382.933,714.403 382.668,714.415 382.402,714.425L382.003,714.439C381.603,714.452 381.203,714.46 380.803,714.466L380.402,714.469C380.268,714.47 380.134,714.471 380,714.471C379.866,714.471 379.732,714.47 379.598,714.469L379.197,714.466C378.701,714.459 378.207,714.447 377.72,714.429C377.414,714.418 377.108,714.405 376.803,714.39L376.406,714.368C371.121,714.066 366.012,713.103 361.157,711.559L360.794,711.442C360.552,711.364 360.311,711.284 360.07,711.202C359.836,711.123 359.604,711.043 359.369,710.96C359.18,710.893 358.992,710.826 358.802,710.757C357.347,710.229 355.918,709.647 354.516,709.016L354.425,708.975L354.271,708.905C353.601,708.6 352.937,708.282 352.282,707.956C351.192,707.411 350.12,706.836 349.065,706.229L348.741,706.041C348.417,705.852 348.096,705.661 347.774,705.465L347.454,705.269C347.348,705.203 347.241,705.138 347.135,705.072L346.818,704.872L346.615,704.743C346.3,704.542 345.987,704.338 345.677,704.132L345.562,704.056L345.251,703.847L344.942,703.637L344.634,703.424L344.327,703.21L344.021,702.994L343.783,702.824C343.298,702.475 342.817,702.119 342.34,701.755L342.218,701.662L341.922,701.434L341.811,701.347C341.319,700.964 340.834,700.573 340.355,700.176C339.478,699.449 338.622,698.699 337.789,697.927C337.647,697.796 337.505,697.663 337.363,697.53C336.268,696.497 335.21,695.424 334.193,694.316C333.843,693.934 333.497,693.548 333.155,693.156C332.721,692.659 332.295,692.155 331.876,691.644L331.798,691.549L331.715,691.446C331.298,690.933 330.89,690.413 330.49,689.887L330.414,689.787L330.322,689.665C326.604,684.733 323.604,679.229 321.477,673.311L321.363,672.991C320.652,670.98 320.043,668.922 319.54,666.823C319.496,666.642 319.454,666.461 319.412,666.28C319.272,665.672 319.141,665.06 319.019,664.446L319.019,664.445L318.971,664.201C318.795,663.294 318.639,662.38 318.503,661.459L318.491,661.378L318.453,661.115C318.043,658.237 317.832,655.294 317.832,652.302L317.832,652.223C317.836,649.138 318.065,646.106 318.503,643.145C318.651,642.141 318.824,641.144 319.019,640.159L319.046,640.024C319.164,639.435 319.291,638.849 319.425,638.269L319.513,637.894L319.54,637.782C319.824,636.593 320.143,635.418 320.495,634.26L320.516,634.189L320.599,633.919C320.736,633.478 320.877,633.039 321.024,632.6C321.13,632.282 321.239,631.965 321.349,631.652L321.477,631.293L321.538,631.125C321.684,630.721 321.835,630.319 321.989,629.92C322.142,629.524 322.299,629.131 322.461,628.737C323.249,626.815 324.132,624.941 325.102,623.121L325.161,623.01L325.238,622.867C327.534,618.608 330.312,614.647 333.497,611.059L333.74,610.787L333.894,610.617C340.617,603.185 349.112,597.383 358.711,593.88L358.991,593.779L359.068,593.752C362.312,592.59 365.681,591.691 369.147,591.08C369.366,591.041 369.586,591.004 369.807,590.967ZM522.57,590.135C522.717,590.136 522.864,590.137 523.012,590.139C549.824,590.496 572.563,607.864 580.917,631.931L580.971,632.086L581.002,632.177C582.406,636.278 583.393,640.57 583.912,645.002C583.964,645.447 584.011,645.894 584.054,646.342C584.072,646.527 584.089,646.713 584.105,646.899C584.127,647.157 584.148,647.416 584.167,647.675L584.186,647.934L584.211,648.312C584.247,648.89 584.276,649.469 584.297,650.05C584.321,650.717 584.334,651.39 584.336,652.066L584.337,652.302C584.337,652.695 584.333,653.087 584.326,653.475C584.31,654.349 584.275,655.22 584.223,656.086C584.211,656.287 584.198,656.488 584.184,656.688L584.157,657.064C584.147,657.195 584.136,657.326 584.126,657.457L584.092,657.849L584.09,657.87C584.045,658.385 583.993,658.898 583.934,659.409C583.779,660.775 583.579,662.128 583.335,663.465L583.304,663.64L583.296,663.678C582.749,666.635 581.991,669.519 581.04,672.316L580.977,672.499C572.712,696.543 550.103,713.944 523.39,714.459C523.116,714.464 522.843,714.468 522.57,714.469L522.168,714.471C521.427,714.471 520.689,714.458 519.959,714.432C519.629,714.42 519.301,714.406 518.971,714.39L518.575,714.368C517.132,714.286 515.702,714.154 514.285,713.975C514.105,713.952 513.924,713.928 513.742,713.903C512.334,713.712 510.942,713.474 509.565,713.19L509.267,713.128L508.939,713.057C507.16,712.671 505.41,712.209 503.69,711.674C503.138,711.502 502.59,711.323 502.048,711.137L501.878,711.079L501.537,710.96C501.412,710.916 501.286,710.871 501.16,710.825L500.802,710.696C498.748,709.943 496.745,709.085 494.798,708.128C493.813,707.643 492.843,707.134 491.887,706.6L491.56,706.415C491.016,706.107 490.476,705.79 489.942,705.465C489.222,705.027 488.512,704.576 487.812,704.11L487.73,704.056L487.66,704.009C486.686,703.357 485.732,702.679 484.799,701.976L484.683,701.889L484.594,701.82C483.611,701.073 482.651,700.297 481.715,699.494L481.493,699.303C481.399,699.221 481.306,699.14 481.212,699.058L480.932,698.811L480.783,698.677C480.506,698.43 480.231,698.181 479.958,697.927C479.804,697.785 479.652,697.643 479.5,697.499C479.201,697.217 478.905,696.932 478.613,696.645L478.482,696.516L478.217,696.253L478.015,696.05C477.618,695.649 477.225,695.242 476.839,694.83L476.663,694.643L476.543,694.513C476.073,694.005 475.611,693.489 475.158,692.966L475.003,692.786C474.75,692.491 474.499,692.194 474.25,691.893L474.204,691.838L473.967,691.549L473.732,691.259L473.552,691.034C473.436,690.889 473.32,690.742 473.206,690.597L473.037,690.38C472.961,690.282 472.885,690.183 472.809,690.084L472.582,689.787C472.507,689.688 472.432,689.588 472.357,689.489L472.267,689.367C471.563,688.421 470.885,687.454 470.235,686.469C469.878,685.927 469.528,685.379 469.187,684.825C467.828,682.617 466.603,680.318 465.523,677.938C465.386,677.636 465.251,677.332 465.119,677.028C463.884,674.184 462.855,671.231 462.051,668.187L462.013,668.041C461.907,667.634 461.805,667.226 461.707,666.816L461.681,666.71L461.637,666.522C461.358,665.334 461.114,664.132 460.904,662.918C460.778,662.184 460.664,661.445 460.564,660.701C460.304,658.784 460.133,656.84 460.053,654.874L460.046,654.704L460.039,654.507C460.021,654.004 460.009,653.5 460.004,652.995C460.001,652.762 460,652.532 460,652.302L460.001,651.9L460.005,651.537C460.01,651.109 460.019,650.682 460.033,650.255C460.041,650.005 460.051,649.755 460.062,649.502C460.148,647.565 460.323,645.65 460.583,643.764C460.631,643.416 460.682,643.069 460.735,642.721L460.777,642.455L460.832,642.117C460.903,641.687 460.978,641.258 461.058,640.834C461.236,639.879 461.436,638.932 461.658,637.993L461.681,637.894L461.707,637.788C461.805,637.379 461.907,636.97 462.013,636.564L462.056,636.401L462.121,636.157C462.727,633.9 463.457,631.693 464.303,629.548L464.315,629.516L464.377,629.359C464.589,628.826 464.809,628.297 465.035,627.77C465.172,627.451 465.312,627.134 465.454,626.819C465.897,625.835 466.365,624.865 466.859,623.907C467.056,623.524 467.257,623.143 467.462,622.765C467.572,622.561 467.684,622.358 467.797,622.154L467.871,622.021L467.931,621.915C468.318,621.225 468.719,620.543 469.134,619.867L469.201,619.756L469.361,619.498C470.937,616.969 472.689,614.561 474.6,612.291L474.682,612.194C474.763,612.099 474.844,612.004 474.924,611.91L475.11,611.693C475.227,611.559 475.344,611.425 475.461,611.291C475.72,610.997 475.981,610.705 476.244,610.417C482.857,603.172 491.158,597.495 500.525,594.011C500.761,593.923 500.998,593.837 501.236,593.752C504.481,592.59 507.849,591.691 511.315,591.08L511.553,591.038C511.68,591.017 511.808,590.995 511.936,590.973L512.087,590.949C515.371,590.412 518.737,590.134 522.168,590.134L522.57,590.135ZM647.569,590.134C648.489,590.138 649.404,590.161 650.31,590.204C657.357,590.536 664.099,592.044 670.344,594.537C670.686,594.673 671.026,594.812 671.367,594.956L671.526,595.022L671.786,595.133C672.125,595.279 672.463,595.427 672.801,595.579C673.266,595.789 673.728,596.003 674.184,596.223C674.636,596.439 675.084,596.661 675.53,596.889C678.965,598.641 682.216,600.704 685.242,603.037L685.415,603.171L685.709,603.4L686.002,603.632L686.017,603.644C688.687,605.77 691.179,608.112 693.464,610.64C693.625,610.818 693.784,610.996 693.943,611.176L694.093,611.346L694.338,611.627C694.699,612.044 695.054,612.465 695.405,612.893C695.686,613.235 695.964,613.58 696.239,613.93C696.431,614.174 696.621,614.42 696.809,614.667C698.177,616.462 699.449,618.333 700.62,620.274L700.694,620.397L700.758,620.505C701.1,621.079 701.434,621.658 701.757,622.242L701.817,622.349L701.819,622.353C702.241,623.119 702.648,623.896 703.039,624.682C703.11,624.825 703.18,624.967 703.25,625.11C703.989,626.626 704.668,628.176 705.286,629.759L705.329,629.869L705.465,630.224C705.509,630.342 705.554,630.461 705.599,630.579L705.731,630.936C705.774,631.055 705.817,631.174 705.86,631.293L706.113,632.011C706.155,632.131 706.196,632.252 706.237,632.372L706.254,632.423C707.273,635.44 708.067,638.561 708.614,641.766L708.666,642.07L708.698,642.269C708.946,643.795 709.139,645.339 709.273,646.899C709.309,647.311 709.34,647.725 709.368,648.141C709.456,649.47 709.503,650.815 709.505,652.171L709.505,652.302C709.505,653.702 709.459,655.091 709.368,656.467C709.351,656.723 709.332,656.978 709.312,657.234C709.179,658.927 708.978,660.601 708.712,662.251L708.666,662.534L708.643,662.668C708.097,665.918 707.298,669.082 706.267,672.143L706.237,672.233C706.196,672.353 706.155,672.473 706.113,672.593L706.014,672.877C705.863,673.308 705.707,673.737 705.545,674.166L705.465,674.381L705.329,674.735L705.19,675.088C705.144,675.206 705.097,675.323 705.05,675.441L704.908,675.792L704.78,676.101C704.315,677.221 703.819,678.323 703.293,679.405L703.206,679.584L703.08,679.841C700.641,684.764 697.569,689.318 693.972,693.396L693.846,693.539L693.597,693.817C692.849,694.65 692.08,695.462 691.288,696.253L691.024,696.516C690.678,696.858 690.328,697.196 689.974,697.53C689.673,697.813 689.37,698.094 689.064,698.37C688.365,699.005 687.65,699.623 686.923,700.225C686.653,700.448 686.381,700.669 686.107,700.888C685.353,701.491 684.585,702.076 683.802,702.644C683.217,703.069 682.625,703.484 682.024,703.889L681.775,704.056L681.66,704.132C680.832,704.682 679.99,705.213 679.133,705.724C678.684,705.992 678.231,706.255 677.774,706.512C675.623,707.724 673.392,708.811 671.091,709.764C670.303,710.09 669.507,710.401 668.703,710.696L668.346,710.825L667.987,710.953C667.811,711.015 667.634,711.077 667.457,711.137C667.011,711.29 666.562,711.438 666.111,711.581C665.869,711.657 665.627,711.733 665.383,711.806C663.947,712.242 662.49,712.627 661.012,712.959L660.993,712.963L660.616,713.047L660.238,713.128C659.794,713.222 659.347,713.311 658.9,713.395C658.203,713.526 657.503,713.646 656.799,713.754C656.542,713.793 656.285,713.831 656.026,713.867L655.639,713.92C654.733,714.041 653.822,714.143 652.905,714.224L652.511,714.258C652.38,714.268 652.249,714.279 652.117,714.289L651.723,714.318C651.586,714.328 651.449,714.337 651.312,714.345C650.917,714.37 650.522,714.392 650.126,714.409L649.739,714.425L649.413,714.436C648.854,714.455 648.297,714.466 647.739,714.469C647.605,714.47 647.471,714.471 647.337,714.471C647.203,714.471 647.069,714.47 646.935,714.469L646.803,714.468C646.245,714.463 645.688,714.451 645.128,714.432C644.798,714.42 644.469,714.406 644.14,714.39L643.743,714.368C640.632,714.19 637.582,713.783 634.609,713.164L634.436,713.128L634.058,713.047C632.194,712.641 630.362,712.151 628.563,711.581C628.113,711.438 627.665,711.291 627.217,711.137L627.046,711.079L626.687,710.953L626.405,710.853C626.061,710.73 625.719,710.604 625.381,710.476L625.259,710.43L624.904,710.294L624.633,710.188C624.338,710.072 624.043,709.953 623.747,709.832C622.53,709.331 621.332,708.794 620.151,708.218C619.677,707.987 619.207,707.75 618.741,707.508L618.71,707.492L618.593,707.431C617.89,707.063 617.194,706.682 616.509,706.29C616.011,706.005 615.517,705.713 615.027,705.414C614.347,704.999 613.675,704.571 613.014,704.132C612.754,703.96 612.495,703.785 612.24,703.61C611.882,703.365 611.527,703.116 611.174,702.862C610.668,702.5 610.169,702.13 609.677,701.755L609.555,701.662L609.259,701.434L608.998,701.23C608.578,700.9 608.162,700.565 607.751,700.225C604.937,697.897 602.33,695.326 599.963,692.543C599.62,692.139 599.282,691.731 598.949,691.319C598.008,690.154 597.108,688.954 596.252,687.721C595.988,687.342 595.729,686.96 595.473,686.574C595.352,686.391 595.232,686.208 595.112,686.023C594.897,685.69 594.684,685.354 594.474,685.016C593.758,683.863 593.079,682.685 592.439,681.483C591.936,680.54 591.457,679.582 591.002,678.611C590.901,678.396 590.801,678.179 590.703,677.963L590.664,677.877C590.612,677.762 590.561,677.647 590.509,677.532L590.388,677.257C589.708,675.71 589.09,674.131 588.536,672.521L588.466,672.316C588.339,671.944 588.216,671.57 588.096,671.194L588.08,671.145L587.965,670.781L587.853,670.415L587.782,670.18C587.676,669.827 587.573,669.472 587.473,669.116C587.386,668.807 587.302,668.498 587.22,668.187L587.127,667.831C587.096,667.707 587.064,667.583 587.032,667.459L586.94,667.085C586.91,666.96 586.88,666.835 586.85,666.71L586.764,666.347C586.638,665.799 586.518,665.248 586.406,664.695L586.356,664.445L586.308,664.201C586.26,663.951 586.213,663.7 586.167,663.448L586.14,663.301L586.073,662.918L586.026,662.639C585.948,662.177 585.876,661.713 585.809,661.248C585.684,660.381 585.576,659.508 585.487,658.63L585.451,658.263C585.439,658.132 585.427,658.001 585.415,657.87L585.381,657.477L585.362,657.234C585.234,655.608 585.168,653.963 585.168,652.302L585.169,652.144C585.174,650.053 585.283,647.985 585.49,645.948C585.582,645.046 585.693,644.149 585.823,643.261C585.943,642.435 586.08,641.614 586.233,640.796L586.282,640.54L586.356,640.159L586.416,639.859C586.572,639.094 586.742,638.333 586.926,637.575L586.94,637.519L587.018,637.203C587.091,636.912 587.166,636.621 587.243,636.332C587.344,635.949 587.45,635.568 587.558,635.187L587.634,634.923C587.671,634.8 587.707,634.678 587.743,634.555L587.853,634.189L587.965,633.824L588.08,633.459L588.174,633.167C588.272,632.865 588.372,632.564 588.475,632.261L588.561,632.011L588.674,631.686C589.247,630.058 589.886,628.461 590.586,626.901L590.664,626.727L590.821,626.384C590.873,626.27 590.926,626.155 590.979,626.041L591.06,625.87C591.616,624.69 592.207,623.53 592.832,622.394C593.673,620.868 594.575,619.381 595.538,617.933L595.583,617.864L595.714,617.669C596.955,615.823 598.293,614.047 599.721,612.348L599.851,612.194L600.024,611.99C609.195,601.238 621.965,593.646 636.463,591.083C636.689,591.043 636.916,591.005 637.144,590.967C638.283,590.779 639.433,590.621 640.593,590.496L640.619,590.493C642.829,590.255 645.069,590.134 647.337,590.134L647.569,590.134ZM380,602.302C379.305,602.302 378.612,602.316 377.926,602.345C377.551,602.36 377.176,602.38 376.803,602.403C376.592,602.416 376.381,602.431 376.17,602.447C375.672,602.485 375.176,602.53 374.678,602.583C374.33,602.62 373.982,602.66 373.636,602.704L373.323,602.745C372.399,602.868 371.483,603.017 370.576,603.191C370.462,603.212 370.349,603.234 370.234,603.257L369.929,603.319C369.482,603.41 369.038,603.508 368.596,603.611C367.747,603.809 366.907,604.029 366.074,604.271L366.022,604.285L365.846,604.337C365.461,604.451 365.078,604.569 364.697,604.692L364.553,604.738L364.315,604.816C364.076,604.895 363.838,604.976 363.602,605.058C363.436,605.116 363.27,605.174 363.103,605.234L362.816,605.338C362.297,605.528 361.782,605.727 361.269,605.935L361.108,606L360.826,606.116C359.571,606.639 358.341,607.211 357.141,607.83L356.977,607.914L356.708,608.055L356.51,608.161C356.231,608.309 355.953,608.461 355.676,608.616C353.442,609.863 351.313,611.277 349.308,612.84C349.048,613.042 348.791,613.247 348.536,613.454C347.725,614.111 346.936,614.793 346.167,615.5L345.947,615.704C345.514,616.107 345.089,616.517 344.67,616.936C344.573,617.033 344.476,617.13 344.38,617.228L344.23,617.381L344.062,617.553C343.962,617.657 343.862,617.761 343.764,617.864C343.344,618.306 342.931,618.756 342.527,619.213L342.396,619.362L342.33,619.437C341.594,620.281 340.886,621.149 340.207,622.039L340.119,622.154L340.045,622.252C339.791,622.59 339.541,622.93 339.295,623.274C338.643,624.187 338.02,625.123 337.429,626.08C336.93,626.887 336.454,627.71 336,628.548C335.755,629.001 335.517,629.458 335.285,629.92L335.2,630.089C335.156,630.179 335.111,630.27 335.066,630.36L335.01,630.475C334.796,630.915 334.588,631.359 334.387,631.807L334.295,632.011L334.253,632.105C334.175,632.283 334.097,632.46 334.021,632.639C333.768,633.228 333.527,633.823 333.297,634.424C332.976,635.261 332.676,636.109 332.4,636.967L332.342,637.147L332.307,637.257C332.147,637.764 331.995,638.275 331.851,638.79C331.571,639.788 331.321,640.798 331.103,641.82C331.034,642.14 330.969,642.461 330.907,642.783C330.876,642.942 330.846,643.101 330.817,643.261C330.416,645.45 330.158,647.692 330.054,649.973C330.045,650.166 330.037,650.359 330.03,650.553C330.016,650.954 330.007,651.355 330.003,651.758L330.001,651.979L330,652.302C330,652.432 330,652.561 330.002,652.694L330.004,652.948C330.006,653.055 330.007,653.163 330.009,653.27L330.014,653.501C330.022,653.807 330.031,654.112 330.044,654.412C330.139,656.701 330.389,658.951 330.781,661.148C330.822,661.377 330.865,661.606 330.909,661.832C330.989,662.245 331.074,662.655 331.163,663.062C331.268,663.542 331.381,664.019 331.499,664.492L331.575,664.792C331.614,664.941 331.653,665.089 331.693,665.24C331.74,665.415 331.788,665.59 331.837,665.765C331.982,666.287 332.137,666.806 332.299,667.322L332.342,667.457L332.39,667.607C333.135,669.923 334.044,672.165 335.104,674.321L335.2,674.516C335.246,674.606 335.291,674.696 335.336,674.787L335.473,675.057C335.52,675.146 335.566,675.236 335.612,675.326L335.731,675.553C335.87,675.815 336.01,676.076 336.152,676.334C336.245,676.503 336.338,676.671 336.433,676.839L336.479,676.92C336.529,677.007 336.579,677.094 336.628,677.182L336.779,677.442C336.846,677.556 336.913,677.67 336.982,677.786C337.262,678.258 337.551,678.726 337.846,679.187L337.882,679.243L337.986,679.406C339.942,682.429 342.215,685.229 344.757,687.756C344.87,687.868 344.984,687.98 345.099,688.092C345.863,688.837 346.651,689.559 347.463,690.256C348.67,691.292 349.927,692.271 351.231,693.191L351.309,693.246L351.339,693.267C352.396,694.008 353.484,694.71 354.599,695.37L354.859,695.522C355.113,695.67 355.367,695.816 355.624,695.959C357.653,697.095 359.769,698.094 361.958,698.943L362.243,699.052C362.693,699.223 363.146,699.388 363.602,699.546L363.681,699.574L363.811,699.619C364.698,699.922 365.595,700.202 366.503,700.456C366.921,700.573 367.34,700.684 367.761,700.791L367.81,700.803L368.073,700.868C368.239,700.909 368.406,700.949 368.573,700.988C368.821,701.046 369.07,701.102 369.32,701.157L369.624,701.222C369.863,701.273 370.103,701.322 370.344,701.369L370.54,701.407L370.576,701.414C371.757,701.639 372.953,701.823 374.162,701.964C374.3,701.98 374.438,701.996 374.576,702.011L374.891,702.044C375.166,702.072 375.443,702.098 375.719,702.121L375.838,702.131L376.155,702.156C377.423,702.253 378.706,702.302 380,702.302L380.323,702.301C381.506,702.294 382.679,702.245 383.845,702.156L384.162,702.131L384.299,702.119C386.469,701.934 388.599,701.61 390.68,701.157L390.983,701.09C391.084,701.067 391.185,701.044 391.286,701.021L391.427,700.988C391.615,700.944 391.802,700.899 391.991,700.852L392.19,700.803L392.239,700.791C392.757,700.66 393.272,700.521 393.787,700.374L393.978,700.319C394.076,700.29 394.175,700.261 394.273,700.232L394.514,700.159C395.163,699.963 395.806,699.753 396.445,699.53L396.608,699.473C396.705,699.439 396.801,699.405 396.897,699.37L397.184,699.266L397.471,699.16L397.692,699.077C400.048,698.184 402.319,697.118 404.491,695.894L404.617,695.824L404.88,695.674C405.645,695.233 406.398,694.774 407.136,694.295L407.194,694.257L407.26,694.214C407.71,693.921 408.155,693.62 408.596,693.312L408.691,693.246L408.854,693.131C409.899,692.39 410.914,691.611 411.897,690.795C416.126,687.286 419.769,683.094 422.654,678.389C423.037,677.765 423.406,677.132 423.761,676.491C423.842,676.346 423.921,676.201 424,676.056C424.09,675.889 424.18,675.721 424.269,675.553L424.388,675.326C424.434,675.236 424.48,675.146 424.527,675.057L424.664,674.787C424.709,674.696 424.754,674.606 424.8,674.516L424.866,674.381C425.618,672.857 426.295,671.289 426.892,669.682C427.073,669.192 427.248,668.699 427.414,668.203C427.471,668.033 427.527,667.863 427.583,667.692L427.658,667.457C427.689,667.359 427.72,667.261 427.751,667.164L427.841,666.87L427.905,666.656C428.042,666.2 428.173,665.741 428.296,665.279C428.34,665.117 428.383,664.954 428.425,664.792L428.501,664.492C428.619,664.021 428.73,663.548 428.835,663.071C428.92,662.686 429,662.298 429.076,661.909L429.105,661.762L429.162,661.459C429.374,660.317 429.546,659.162 429.679,657.995L429.709,657.726L429.732,657.499C429.909,655.791 430,654.057 430,652.302C430,652.07 429.998,651.839 429.995,651.609C429.974,650.063 429.883,648.533 429.724,647.027C429.672,646.534 429.614,646.044 429.548,645.558C429.427,644.665 429.283,643.779 429.116,642.904L429.105,642.842L429.093,642.783C429.031,642.46 428.965,642.139 428.897,641.82C428.531,640.104 428.076,638.421 427.537,636.773C427.158,635.613 426.738,634.471 426.277,633.349L426.186,633.129C426.147,633.035 426.107,632.941 426.068,632.848L425.949,632.568C425.908,632.475 425.868,632.382 425.828,632.289L425.705,632.011L425.613,631.807C425.412,631.36 425.204,630.916 424.99,630.475C424.926,630.345 424.863,630.216 424.8,630.089L424.664,629.818C424.389,629.273 424.104,628.733 423.81,628.2C423.372,627.407 422.913,626.627 422.433,625.858C421.848,624.922 421.233,624.007 420.589,623.112C420.381,622.824 420.169,622.537 419.955,622.252L419.881,622.154L419.793,622.039C418.422,620.239 416.931,618.535 415.333,616.939C415.03,616.636 414.723,616.337 414.413,616.042L414.272,615.909L414.167,615.811C413.266,614.967 412.333,614.155 411.372,613.379C411.159,613.207 410.945,613.037 410.729,612.868L410.625,612.787L410.526,612.711C410.321,612.553 410.116,612.397 409.908,612.241L409.667,612.062C407.981,610.816 406.215,609.675 404.376,608.645C404.103,608.492 403.829,608.342 403.554,608.194C402.112,607.422 400.627,606.718 399.105,606.088L398.892,606L398.609,605.886L398.378,605.793C397.725,605.535 397.065,605.289 396.398,605.058L396.319,605.03L396.084,604.95C395.602,604.786 395.118,604.629 394.629,604.48L394.568,604.461L394.352,604.396C394.21,604.354 394.068,604.312 393.926,604.271C393.365,604.108 392.801,603.955 392.232,603.812C392.103,603.78 391.974,603.748 391.845,603.716L391.588,603.654L391.404,603.611C390.949,603.505 390.492,603.405 390.034,603.311C389.843,603.272 389.652,603.234 389.46,603.197L389.153,603.14C388.335,602.988 387.509,602.856 386.677,602.745L386.364,602.704L386.052,602.665L385.738,602.628C385.633,602.617 385.529,602.605 385.424,602.594L385.272,602.578C384.793,602.527 384.313,602.484 383.83,602.447C383.619,602.431 383.408,602.416 383.197,602.403C382.824,602.379 382.449,602.36 382.074,602.345C381.494,602.321 380.91,602.307 380.323,602.303L380,602.302ZM523.502,602.32C523.166,602.311 522.829,602.305 522.492,602.303L522.168,602.302C521.465,602.302 520.764,602.317 520.066,602.346C519.683,602.362 519.301,602.382 518.923,602.406L518.641,602.425L518.338,602.447C517.874,602.482 517.411,602.524 516.949,602.572L516.745,602.594C516.64,602.605 516.535,602.617 516.43,602.628L516.117,602.665L515.804,602.704L515.492,602.745C514.568,602.868 513.652,603.017 512.744,603.191C512.631,603.212 512.518,603.234 512.402,603.257L512.097,603.319C511.639,603.413 511.184,603.513 510.729,603.619L510.58,603.654L510.279,603.727C510.179,603.752 510.079,603.776 509.979,603.801L509.811,603.844C509.286,603.978 508.764,604.12 508.242,604.271L508.191,604.285L508.015,604.337C507.876,604.378 507.737,604.42 507.601,604.461L507.307,604.552C507.112,604.612 506.917,604.674 506.721,604.738L506.43,604.834C506.177,604.917 505.926,605.003 505.676,605.091L505.56,605.131C505.464,605.165 505.368,605.2 505.272,605.234L505.047,605.316C504.834,605.393 504.622,605.472 504.412,605.552C504.204,605.631 503.998,605.711 503.79,605.793L503.559,605.886L503.55,605.889C502.837,606.176 502.132,606.479 501.435,606.797C500.963,607.012 500.496,607.235 500.033,607.464L499.955,607.503L499.763,607.599C499.586,607.687 499.41,607.777 499.234,607.869L499.145,607.914L498.877,608.055L498.615,608.194C498.339,608.342 498.066,608.492 497.792,608.645C496.883,609.154 495.991,609.691 495.12,610.253L494.974,610.347L494.868,610.417C493.998,610.985 493.146,611.58 492.314,612.201C491.761,612.614 491.217,613.037 490.684,613.47C490.406,613.696 490.131,613.925 489.857,614.156L489.682,614.305L489.633,614.347C488.993,614.897 488.366,615.462 487.756,616.042C485.437,618.244 483.328,620.666 481.464,623.274C478.806,626.992 476.645,631.089 475.078,635.467C474.786,636.284 474.514,637.111 474.263,637.948L474.239,638.029L474.223,638.082C473.854,639.328 473.531,640.594 473.259,641.878C473.161,642.336 473.07,642.797 472.986,643.261C472.906,643.695 472.832,644.131 472.764,644.569C472.735,644.755 472.707,644.942 472.68,645.129L472.654,645.314L472.62,645.558C472.424,647.01 472.29,648.483 472.222,649.973C472.205,650.349 472.192,650.725 472.183,651.103L472.178,651.334C472.176,651.442 472.174,651.549 472.173,651.656L472.17,651.902C472.169,652.037 472.168,652.17 472.168,652.302C472.168,654.59 472.322,656.842 472.62,659.046L472.654,659.291L472.699,659.602L472.741,659.883C472.788,660.193 472.838,660.502 472.89,660.808C473.084,661.934 473.315,663.046 473.582,664.147C473.638,664.374 473.695,664.602 473.752,664.825L473.822,665.091L473.872,665.279C473.982,665.689 474.097,666.096 474.217,666.501L474.239,666.575L474.263,666.656C474.47,667.347 474.692,668.031 474.926,668.706C476.775,674.024 479.496,678.934 482.918,683.264C483.102,683.497 483.288,683.728 483.476,683.957C483.673,684.198 483.872,684.437 484.074,684.674L484.171,684.789L484.223,684.848C485.605,686.458 487.088,687.979 488.661,689.4L488.78,689.508L488.87,689.589C489.102,689.796 489.336,690.001 489.571,690.203L489.682,690.299L489.911,690.494L490.033,690.597C491.117,691.507 492.241,692.373 493.4,693.191L493.478,693.246L493.507,693.267C494.684,694.092 495.898,694.868 497.147,695.591L497.289,695.674C497.376,695.724 497.464,695.774 497.551,695.824L497.677,695.894C499.828,697.107 502.078,698.164 504.412,699.052C504.852,699.22 505.296,699.382 505.742,699.537L505.849,699.574L506.085,699.655C506.2,699.694 506.315,699.732 506.43,699.771L506.721,699.866C506.891,699.921 507.061,699.976 507.23,700.028C507.608,700.147 507.987,700.261 508.369,700.37C508.851,700.509 509.337,700.64 509.825,700.764L509.979,700.803L510.122,700.839C510.313,700.886 510.505,700.932 510.696,700.977C510.893,701.024 511.091,701.069 511.289,701.113C513.432,701.589 515.627,701.928 517.865,702.119L518.007,702.131L518.324,702.156C519.591,702.253 520.874,702.302 522.168,702.302L522.492,702.301C522.813,702.299 523.133,702.294 523.454,702.286C523.776,702.278 524.096,702.267 524.413,702.253L524.42,702.252C546.038,701.293 564.107,686.577 570.074,666.656C570.268,666.008 570.45,665.354 570.618,664.695C570.695,664.392 570.77,664.088 570.842,663.783L570.897,663.546L570.965,663.244L571.023,662.982C571.273,661.836 571.483,660.676 571.653,659.503C571.721,659.034 571.782,658.562 571.836,658.089C571.858,657.899 571.879,657.71 571.899,657.519L571.912,657.392L571.942,657.083C572.017,656.296 572.074,655.502 572.111,654.704C572.14,654.101 572.158,653.496 572.165,652.887C572.167,652.692 572.168,652.497 572.168,652.302L572.167,651.98C572.166,651.873 572.165,651.766 572.164,651.659L572.161,651.466C572.152,650.867 572.131,650.271 572.1,649.674C572.057,648.841 571.993,648.014 571.91,647.193L571.879,646.899C571.868,646.795 571.856,646.691 571.845,646.586L571.827,646.433C571.771,645.953 571.708,645.475 571.638,645.002L571.596,644.721C571.58,644.618 571.564,644.515 571.548,644.412L571.498,644.104C571.481,644.002 571.464,643.899 571.447,643.797L571.42,643.646C571.296,642.935 571.157,642.23 571.003,641.533C570.86,640.881 570.704,640.234 570.536,639.593C570.377,638.987 570.207,638.385 570.026,637.788L569.936,637.496C563.744,617.523 545.359,602.892 523.502,602.32ZM647.337,602.302C646.642,602.302 645.949,602.316 645.263,602.345C644.991,602.356 644.72,602.369 644.446,602.384L644.128,602.404C643.789,602.425 643.45,602.45 643.11,602.479C642.731,602.511 642.353,602.547 641.978,602.587C641.549,602.633 641.122,602.684 640.699,602.74C639.762,602.865 638.833,603.015 637.913,603.191C637.709,603.23 637.507,603.27 637.303,603.311C636.832,603.407 636.362,603.51 635.898,603.619C635.061,603.816 634.232,604.033 633.411,604.271C633.269,604.312 633.128,604.353 632.985,604.396L632.769,604.461L632.633,604.503C632.171,604.645 631.712,604.794 631.253,604.95L631.018,605.03L630.729,605.131C630.632,605.165 630.536,605.2 630.44,605.234L630.215,605.316C629.642,605.525 629.074,605.744 628.513,605.972C628.349,606.039 628.184,606.107 628.022,606.175C626.439,606.84 624.896,607.584 623.401,608.401L623.247,608.486L623.013,608.616C620.917,609.786 618.913,611.104 617.014,612.555C616.868,612.666 616.723,612.779 616.577,612.893L616.475,612.972L616.433,613.006C613.616,615.225 611.043,617.741 608.76,620.506L608.57,620.737L608.381,620.971L608.323,621.043C608.084,621.341 607.848,621.642 607.616,621.945C606.248,623.731 604.998,625.612 603.877,627.577C603.796,627.72 603.715,627.863 603.635,628.006C602.744,629.604 601.939,631.256 601.224,632.953C601.151,633.128 601.079,633.303 601.007,633.478L600.92,633.693L600.868,633.824C600.797,634.002 600.727,634.181 600.658,634.359L600.587,634.545L600.537,634.678C600.122,635.777 599.745,636.895 599.407,638.029L599.32,638.324C599.219,638.672 599.122,639.022 599.028,639.372L598.99,639.513L598.957,639.641C598.85,640.051 598.748,640.464 598.651,640.878L598.618,641.016L598.549,641.319L598.482,641.622L598.44,641.82C598.343,642.272 598.252,642.727 598.168,643.184C598.032,643.92 597.912,644.662 597.809,645.409C597.659,646.499 597.543,647.599 597.465,648.708C597.442,649.029 597.422,649.351 597.405,649.674C597.367,650.414 597.344,651.156 597.339,651.902C597.337,652.037 597.337,652.17 597.337,652.302C597.337,652.733 597.342,653.162 597.353,653.587C597.369,654.224 597.397,654.859 597.437,655.487C597.511,656.662 597.626,657.826 597.78,658.979C597.866,659.624 597.965,660.266 598.076,660.903C598.381,662.661 598.778,664.388 599.263,666.081L599.32,666.28L599.407,666.575C599.437,666.673 599.466,666.772 599.496,666.87L599.586,667.164C599.617,667.261 599.648,667.359 599.679,667.457L599.754,667.692C599.803,667.843 599.853,667.993 599.903,668.144C600.068,668.638 600.241,669.129 600.421,669.617L600.479,669.773C600.515,669.868 600.551,669.964 600.587,670.059L600.658,670.245C600.715,670.393 600.773,670.541 600.83,670.685L600.92,670.912L601.035,671.194L601.122,671.407C604.12,678.643 608.769,685.026 614.601,690.084C615.095,690.512 615.596,690.93 616.106,691.338L616.24,691.446L616.257,691.459C616.995,692.046 617.749,692.612 618.52,693.156L618.646,693.246L618.741,693.312C619.651,693.948 620.582,694.554 621.535,695.13L621.677,695.215L621.936,695.37L622.081,695.455C622.691,695.813 623.31,696.159 623.937,696.492C625.468,697.305 627.046,698.041 628.666,698.694L628.727,698.719L629.011,698.832C629.106,698.869 629.2,698.906 629.295,698.943L629.551,699.041C629.983,699.206 630.418,699.365 630.855,699.517C631.584,699.772 632.321,700.01 633.064,700.232C633.162,700.261 633.26,700.29 633.359,700.319L633.655,700.404C633.952,700.488 634.25,700.57 634.548,700.649L634.847,700.727L635.147,700.803L635.41,700.868C635.561,700.905 635.713,700.942 635.865,700.977C636.027,701.015 636.19,701.053 636.354,701.09L636.657,701.157C638.045,701.459 639.455,701.704 640.883,701.889L640.972,701.9L641.047,701.909C641.707,701.992 642.37,702.063 643.038,702.119C643.299,702.142 643.561,702.162 643.823,702.18C644.408,702.221 644.996,702.252 645.586,702.272L645.726,702.277L645.732,702.277C646.263,702.294 646.799,702.302 647.337,702.302L647.66,702.301C648.088,702.298 648.515,702.29 648.942,702.277L648.948,702.277C649.748,702.251 650.543,702.207 651.332,702.144L651.499,702.131L651.707,702.113C652.351,702.057 652.992,701.989 653.627,701.909C654.001,701.862 654.375,701.811 654.749,701.755C655.423,701.655 656.093,701.541 656.761,701.414L656.797,701.407L657.066,701.354C657.268,701.314 657.47,701.273 657.674,701.23C658.061,701.149 658.447,701.063 658.831,700.972C658.976,700.938 659.122,700.903 659.264,700.868L659.527,700.803L659.68,700.764C660.028,700.676 660.375,700.583 660.722,700.487C661.631,700.235 662.531,699.957 663.421,699.655L663.656,699.574L663.735,699.546C664.191,699.388 664.643,699.223 665.094,699.052L665.379,698.943C665.545,698.878 665.711,698.813 665.879,698.746L665.946,698.719C667.615,698.049 669.238,697.291 670.814,696.451C670.959,696.374 671.103,696.295 671.25,696.215L671.427,696.119C671.515,696.07 671.603,696.021 671.691,695.972L671.954,695.824L672.039,695.775C674.906,694.141 677.596,692.232 680.072,690.084L680.277,689.906L680.412,689.787C680.604,689.618 680.794,689.447 680.984,689.274C682.779,687.639 684.455,685.876 685.997,683.998C686.168,683.789 686.338,683.579 686.506,683.367L686.667,683.164C686.729,683.085 686.79,683.006 686.852,682.927L687.018,682.711C687.135,682.56 687.25,682.407 687.365,682.255C687.748,681.743 688.123,681.224 688.486,680.698L688.624,680.498L688.672,680.427C688.863,680.148 689.05,679.867 689.235,679.584L689.292,679.497L689.435,679.275C689.86,678.613 690.271,677.94 690.665,677.257C690.762,677.088 690.859,676.92 690.953,676.751L691.007,676.656L691.147,676.404C691.259,676.201 691.369,675.997 691.479,675.792C692.233,674.379 692.921,672.926 693.539,671.438C694.435,669.278 695.185,667.042 695.774,664.742C695.933,664.125 696.079,663.503 696.214,662.878C696.256,662.682 696.298,662.485 696.338,662.288C696.405,661.954 696.47,661.618 696.531,661.281C696.991,658.752 697.26,656.154 697.323,653.506L697.328,653.27L697.33,653.138C697.335,652.859 697.337,652.581 697.337,652.302C697.337,652.17 697.336,652.037 697.335,651.902C697.312,648.953 697.033,646.064 696.518,643.253C696.453,642.894 696.383,642.537 696.309,642.178C696.239,641.837 696.165,641.497 696.088,641.156C695.992,640.738 695.892,640.322 695.786,639.909C695.162,637.465 694.358,635.093 693.387,632.805C692.74,631.28 692.019,629.794 691.23,628.352C690.947,627.835 690.655,627.324 690.355,626.819C689.826,625.928 689.27,625.055 688.688,624.2C688.591,624.059 688.494,623.918 688.395,623.776C688.068,623.306 687.733,622.842 687.39,622.383L687.218,622.154C687.157,622.075 687.096,621.995 687.035,621.915L686.902,621.742C686.746,621.541 686.589,621.341 686.43,621.142C685.723,620.257 684.988,619.396 684.225,618.563C683.488,617.758 682.725,616.976 681.938,616.222C681.738,616.03 681.536,615.839 681.332,615.65C681.204,615.532 681.076,615.414 680.949,615.298C680.705,615.077 680.46,614.858 680.213,614.643L680.051,614.501L679.823,614.305C679.747,614.24 679.671,614.176 679.595,614.111L679.365,613.918L679.233,613.808C678.568,613.256 677.887,612.72 677.192,612.201C676.347,611.571 675.481,610.967 674.597,610.39L674.531,610.347L674.309,610.204C673.444,609.648 672.56,609.118 671.661,608.616L671.427,608.486C671.339,608.437 671.25,608.389 671.162,608.341L671.038,608.274C670.609,608.042 670.177,607.817 669.74,607.597L669.551,607.503L669.363,607.41C667.774,606.628 666.138,605.928 664.459,605.316L664.234,605.234C664.138,605.2 664.041,605.165 663.945,605.131L663.861,605.102C663.571,605 663.28,604.901 662.989,604.805L662.784,604.738L662.532,604.657C661.312,604.268 660.071,603.924 658.813,603.628C658.335,603.515 657.854,603.41 657.371,603.311C657.168,603.27 656.965,603.23 656.761,603.191C655.854,603.017 654.937,602.869 654.014,602.745C653.53,602.68 653.045,602.623 652.557,602.572C652.235,602.539 651.913,602.508 651.589,602.481C651.242,602.452 650.895,602.426 650.546,602.404L650.227,602.384C649.956,602.369 649.684,602.356 649.411,602.345C648.831,602.321 648.247,602.307 647.66,602.303L647.337,602.302ZM370.014,607.944C373.229,607.222 376.57,606.842 380,606.842C380.196,606.842 380.391,606.843 380.585,606.845L380.587,606.845C380.685,606.847 380.782,606.849 380.88,606.85L381.173,606.857C381.803,606.873 382.431,606.901 383.057,606.943L383.207,606.953C385.026,607.08 386.816,607.315 388.569,607.65C388.699,607.674 388.829,607.7 388.958,607.726C393.56,608.647 397.913,610.264 401.903,612.464C402.017,612.527 402.13,612.59 402.243,612.653C402.687,612.904 403.127,613.161 403.561,613.424C404.019,613.703 404.472,613.989 404.918,614.282L404.955,614.306L405.017,614.347C405.438,614.626 405.854,614.911 406.267,615.204C406.605,615.444 406.94,615.688 407.271,615.937L407.411,616.042L407.507,616.115C409.063,617.301 410.541,618.585 411.932,619.957C412.101,620.124 412.268,620.292 412.435,620.462C412.532,620.56 412.628,620.659 412.723,620.758C413.128,621.178 413.524,621.605 413.912,622.039C414.198,622.359 414.479,622.683 414.755,623.01L414.9,623.182L415.074,623.392C415.132,623.462 415.19,623.533 415.247,623.603L415.419,623.815C415.476,623.886 415.533,623.957 415.59,624.028L415.726,624.2C416.437,625.103 417.115,626.033 417.757,626.988L417.845,627.119L417.996,627.348C418.064,627.451 418.132,627.556 418.2,627.66L418.294,627.807L418.442,628.038C418.49,628.115 418.539,628.193 418.587,628.27L418.732,628.503C419.274,629.382 419.786,630.281 420.269,631.199C420.524,631.684 420.77,632.175 421.008,632.67C421.317,633.313 421.61,633.963 421.889,634.621L421.993,634.869L422.003,634.895C423.032,637.37 423.847,639.956 424.427,642.628C424.528,643.094 424.622,643.562 424.709,644.032C424.741,644.211 424.773,644.39 424.804,644.569L424.847,644.82C424.862,644.914 424.877,645.007 424.892,645.101L424.925,645.314C425.023,645.943 425.107,646.576 425.178,647.213L425.196,647.371L425.226,647.657L425.254,647.944L425.255,647.96C425.317,648.606 425.365,649.256 425.398,649.91C425.406,650.066 425.414,650.222 425.42,650.378C425.447,651.009 425.46,651.643 425.46,652.28L425.46,652.302C425.46,652.887 425.449,653.469 425.427,654.052C425.42,654.246 425.411,654.44 425.402,654.631C425.371,655.241 425.328,655.848 425.273,656.448L425.254,656.661L425.227,656.93C425.217,657.03 425.207,657.131 425.196,657.234C425.123,657.901 425.037,658.564 424.936,659.221L424.892,659.503C424.877,659.597 424.862,659.691 424.847,659.784L424.799,660.065L424.75,660.345L424.699,660.624C423.955,664.638 422.683,668.467 420.959,672.037C420.823,672.318 420.684,672.598 420.542,672.877C420.346,673.262 420.144,673.644 419.937,674.025L419.838,674.205L419.817,674.244C419.514,674.792 419.2,675.333 418.875,675.868C418.797,675.996 418.718,676.124 418.638,676.253C418.516,676.449 418.393,676.644 418.267,676.839L418.146,677.028L418.1,677.097C414.832,682.106 410.603,686.432 405.676,689.813L405.636,689.84C405.517,689.922 405.396,690.004 405.276,690.084L405.183,690.147C405.107,690.197 405.031,690.248 404.955,690.298L404.725,690.448C403.478,691.259 402.188,692.01 400.86,692.698C400.601,692.832 400.341,692.963 400.08,693.092C399.928,693.167 399.774,693.242 399.621,693.316L399.453,693.396L399.274,693.48C398.171,693.998 397.044,694.472 395.895,694.902C395.581,695.019 395.265,695.133 394.948,695.244C393.771,695.654 392.573,696.017 391.356,696.33L391.083,696.4L390.876,696.451C390.125,696.636 389.366,696.802 388.601,696.949L388.322,697.001L388.298,697.006C386.723,697.297 385.121,697.506 383.496,697.63L383.207,697.651L383.195,697.652C382.139,697.725 381.074,697.763 380,697.763C379.167,697.763 378.339,697.74 377.517,697.696L377.372,697.688L377.171,697.676C376.079,697.608 374.999,697.503 373.929,697.36L373.646,697.321L373.363,697.281C372.902,697.213 372.443,697.139 371.988,697.057L371.957,697.052C371.313,696.937 370.673,696.808 370.04,696.666L370.014,696.66C369.468,696.538 368.926,696.405 368.389,696.264C367.818,696.113 367.252,695.952 366.688,695.779C366.372,695.682 366.057,695.582 365.743,695.478C365.634,695.442 365.526,695.406 365.418,695.37C364.976,695.22 364.537,695.064 364.105,694.902C363.557,694.697 363.015,694.483 362.477,694.257L362.312,694.188C362.227,694.152 362.142,694.115 362.057,694.079L361.846,693.987C361.47,693.823 361.097,693.654 360.726,693.48C358.218,692.303 355.834,690.904 353.601,689.307L353.468,689.212L353.27,689.068C353.145,688.977 353.021,688.885 352.898,688.793C352.752,688.685 352.607,688.575 352.462,688.465C352.317,688.355 352.173,688.243 352.031,688.132C351.746,687.909 351.463,687.683 351.182,687.452L351.09,687.376L350.88,687.202L350.671,687.026C350.602,686.967 350.532,686.908 350.463,686.849L350.256,686.671L350.051,686.492L349.846,686.312L349.776,686.249C343.789,680.914 339.221,674.021 336.71,666.208L336.669,666.081L336.622,665.933C335.913,663.676 335.375,661.345 335.024,658.953L335.021,658.939L334.982,658.667C334.835,657.618 334.724,656.558 334.65,655.487C334.629,655.189 334.611,654.889 334.596,654.589C334.582,654.304 334.57,654.018 334.562,653.73C334.547,653.254 334.54,652.779 334.54,652.302L334.54,652.28C334.54,651.751 334.549,651.224 334.568,650.698C334.579,650.374 334.593,650.051 334.611,649.731L334.614,649.674C334.62,649.578 334.626,649.481 334.632,649.384L334.65,649.106C334.864,646.028 335.385,643.035 336.183,640.158L336.189,640.133L336.195,640.112C338.247,632.734 342.115,626.108 347.287,620.747L347.477,620.551L347.565,620.462C347.885,620.136 348.21,619.815 348.54,619.498L348.641,619.401L348.839,619.213L348.939,619.12C349.136,618.936 349.334,618.753 349.534,618.572L349.642,618.474L349.737,618.39C350.625,617.597 351.545,616.838 352.493,616.115L352.589,616.042L352.766,615.909C353.076,615.677 353.389,615.448 353.704,615.224C354.691,614.523 355.706,613.86 356.749,613.238L356.905,613.145L357.142,613.006C358.327,612.315 359.546,611.675 360.797,611.091C360.923,611.032 361.049,610.974 361.175,610.916C361.635,610.707 362.099,610.505 362.567,610.309C363.65,609.859 364.754,609.449 365.877,609.082C366.086,609.014 366.295,608.947 366.505,608.882C367.656,608.524 368.826,608.211 370.014,607.944ZM521.291,606.85C521.582,606.844 521.875,606.842 522.168,606.842L522.462,606.843C522.854,606.845 523.245,606.853 523.633,606.865C540.85,607.411 555.664,617.549 562.901,632.105L562.936,632.177L563.057,632.423C563.108,632.526 563.158,632.63 563.207,632.733L563.295,632.918L563.359,633.054C563.912,634.235 564.416,635.444 564.868,636.678L564.889,636.735L564.953,636.912C565.058,637.203 565.16,637.495 565.259,637.788C565.517,638.554 565.755,639.329 565.973,640.112L565.986,640.158C566.056,640.412 566.124,640.666 566.19,640.921L566.205,640.978C566.552,642.329 566.838,643.705 567.061,645.101C567.085,645.253 567.108,645.406 567.131,645.558L567.151,645.691C567.164,645.784 567.178,645.878 567.191,645.972L567.229,646.255L567.232,646.274C567.406,647.583 567.524,648.911 567.584,650.255C567.6,650.633 567.613,651.014 567.62,651.397C567.626,651.698 567.629,652 567.629,652.302C567.629,652.974 567.614,653.643 567.585,654.305C567.53,655.581 567.422,656.843 567.263,658.089L567.229,658.35L567.191,658.632L567.151,658.914L567.109,659.195L567.071,659.437C566.805,661.122 566.446,662.777 565.999,664.399L565.992,664.426L565.973,664.492C565.765,665.24 565.538,665.981 565.294,666.71C565.252,666.836 565.21,666.961 565.167,667.085L565.076,667.347C565.008,667.541 564.939,667.734 564.868,667.926C564.676,668.451 564.474,668.971 564.264,669.486L564.187,669.672L564.161,669.735C564.019,670.075 563.874,670.414 563.723,670.751L563.641,670.937C563.555,671.127 563.468,671.317 563.38,671.505L563.295,671.686L563.177,671.934L563.057,672.181L563.023,672.252C562.569,673.179 562.084,674.088 561.571,674.977L561.511,675.082L561.507,675.088C553.911,688.165 539.98,697.118 523.925,697.729L523.919,697.73L523.629,697.74L523.532,697.742C523.175,697.753 522.819,697.759 522.462,697.762L522.168,697.763C521.875,697.763 521.582,697.76 521.291,697.754L521.288,697.754L521.127,697.751C520.647,697.74 520.169,697.722 519.693,697.696L519.54,697.688L519.314,697.674C517.758,697.578 516.223,697.403 514.715,697.153L514.686,697.149L514.6,697.134C512.945,696.856 511.32,696.489 509.729,696.037L509.46,695.959C509.37,695.933 509.281,695.907 509.191,695.88C508.784,695.759 508.379,695.632 507.974,695.499C507.826,695.45 507.677,695.4 507.53,695.35C504.416,694.29 501.453,692.902 498.683,691.226C498.494,691.111 498.305,690.995 498.119,690.879C497.299,690.366 496.496,689.828 495.713,689.266L495.637,689.212L495.528,689.132C495.3,688.967 495.073,688.8 494.847,688.629L494.758,688.562L494.717,688.531C489.468,684.546 485.11,679.448 481.998,673.591L481.938,673.479L481.811,673.235L481.684,672.991L481.624,672.871C481.323,672.28 481.035,671.681 480.759,671.075L480.726,671.004L480.671,670.881C479.985,669.352 479.381,667.779 478.865,666.166C478.814,666.008 478.764,665.849 478.715,665.691C478.478,664.922 478.261,664.145 478.065,663.36L478.003,663.112L477.947,662.878C477.922,662.773 477.897,662.669 477.873,662.564L477.81,662.288L477.762,662.068C477.714,661.853 477.669,661.637 477.625,661.421C477.313,659.895 477.078,658.341 476.925,656.763L476.915,656.661L476.912,656.629C476.827,655.732 476.768,654.826 476.736,653.913C476.731,653.764 476.727,653.615 476.723,653.465C476.713,653.079 476.708,652.691 476.708,652.302C476.708,652.169 476.709,652.036 476.71,651.902C476.712,651.606 476.718,651.31 476.726,651.018C476.73,650.861 476.736,650.704 476.741,650.546C476.772,649.738 476.824,648.935 476.897,648.141L476.915,647.944L476.941,647.675C477.028,646.82 477.138,645.972 477.272,645.129L477.276,645.101L477.292,645.002C477.361,644.576 477.436,644.152 477.516,643.734L477.522,643.701L477.576,643.423L477.632,643.145C477.784,642.406 477.953,641.673 478.14,640.946C480.352,632.36 485.012,624.752 491.33,618.913C491.442,618.809 491.555,618.706 491.668,618.603C491.924,618.372 492.182,618.143 492.443,617.917C492.742,617.659 493.044,617.404 493.35,617.153C493.531,617.005 493.712,616.858 493.895,616.712C494.138,616.519 494.383,616.328 494.63,616.14C495.889,615.179 497.201,614.282 498.56,613.454C498.78,613.319 499.003,613.186 499.226,613.055C500.455,612.335 501.72,611.671 503.019,611.066L503.216,610.975L503.283,610.944C504.539,610.369 505.825,609.85 507.139,609.389C507.44,609.284 507.742,609.181 508.046,609.082C508.353,608.981 508.662,608.884 508.972,608.79C510.039,608.466 511.122,608.181 512.22,607.936C515.055,607.301 517.992,606.932 521,606.856L521.288,606.85L521.291,606.85ZM646.46,606.85C646.751,606.844 647.043,606.842 647.337,606.842C647.533,606.842 647.728,606.843 647.924,606.845C648.118,606.848 648.311,606.852 648.505,606.856C655.91,607.044 662.878,609.006 668.999,612.332L669.24,612.464C669.32,612.508 669.4,612.553 669.48,612.597L669.642,612.689C670.017,612.9 670.388,613.117 670.756,613.339C671.09,613.54 671.421,613.746 671.75,613.955L671.832,614.008L672.062,614.156L672.292,614.306L672.435,614.402C672.889,614.703 673.338,615.012 673.781,615.33C673.908,615.421 674.034,615.512 674.161,615.605L674.31,615.715C674.383,615.769 674.456,615.824 674.529,615.878L674.718,616.02C675.033,616.258 675.345,616.5 675.654,616.747L675.824,616.883C675.895,616.94 675.965,616.998 676.036,617.055L676.155,617.153C677.202,618.013 678.211,618.918 679.177,619.867C679.355,620.042 679.532,620.218 679.708,620.397L679.86,620.551L680.023,620.719C680.21,620.913 680.396,621.109 680.579,621.305C680.681,621.415 680.783,621.525 680.884,621.636C681.071,621.84 681.255,622.045 681.438,622.252L681.527,622.353L681.609,622.447C681.866,622.742 682.12,623.041 682.37,623.342L682.411,623.392C682.469,623.462 682.527,623.533 682.584,623.603L682.724,623.776C682.964,624.072 683.199,624.372 683.431,624.674L683.597,624.891L683.76,625.108C683.871,625.256 683.981,625.406 684.091,625.556C685.837,627.951 687.355,630.521 688.612,633.237L688.664,633.349L688.746,633.529C688.997,634.081 689.237,634.639 689.466,635.202L689.539,635.382L689.642,635.64L689.65,635.66C689.715,635.825 689.779,635.991 689.843,636.157L689.941,636.417L689.962,636.475C690.117,636.892 690.266,637.312 690.409,637.734C690.575,638.224 690.733,638.718 690.882,639.215L690.915,639.325L690.994,639.593L691.008,639.641C691.058,639.813 691.107,639.986 691.155,640.159L691.222,640.403L691.294,640.675L691.306,640.721C691.388,641.03 691.466,641.34 691.54,641.651L691.568,641.766L691.633,642.041C691.653,642.132 691.674,642.224 691.695,642.316L691.756,642.592C691.776,642.684 691.796,642.776 691.816,642.868L691.873,643.145C691.907,643.312 691.941,643.479 691.973,643.646C692.007,643.822 692.04,643.998 692.071,644.174L692.087,644.259L692.136,644.539L692.162,644.692C692.23,645.094 692.292,645.497 692.35,645.903C692.418,646.389 692.479,646.879 692.533,647.371L692.563,647.657C692.599,648.011 692.63,648.366 692.658,648.722C692.689,649.114 692.714,649.506 692.735,649.901C692.762,650.42 692.78,650.942 692.79,651.466L692.794,651.715C692.795,651.813 692.796,651.911 692.797,652.008L692.797,652.302C692.797,652.483 692.796,652.663 692.794,652.846C692.79,653.199 692.782,653.551 692.77,653.899C692.751,654.452 692.722,655.003 692.683,655.547C692.65,656.009 692.611,656.469 692.564,656.93C692.505,657.512 692.435,658.091 692.355,658.667C692.303,659.031 692.248,659.394 692.188,659.756C692.163,659.909 692.137,660.062 692.11,660.216L692.092,660.315C692.074,660.419 692.055,660.523 692.036,660.624L691.983,660.903C691.965,660.996 691.947,661.089 691.929,661.182L691.874,661.456C691.853,661.559 691.831,661.662 691.809,661.765C691.748,662.056 691.683,662.347 691.615,662.639L691.568,662.838L691.554,662.898C691.478,663.216 691.398,663.533 691.316,663.847L691.294,663.93L691.222,664.201L691.167,664.399C691.136,664.514 691.103,664.63 691.071,664.745C690.879,665.417 690.673,666.084 690.452,666.743C690.319,667.14 690.181,667.534 690.037,667.926C688.172,673.014 685.424,677.676 681.98,681.726L681.888,681.835C681.736,682.013 681.583,682.189 681.429,682.362C681.333,682.472 681.236,682.581 681.138,682.689C678.745,685.349 676.043,687.725 673.088,689.761L672.973,689.84L672.747,689.994L672.52,690.147L672.354,690.257C671.168,691.041 669.943,691.771 668.682,692.443C668.388,692.6 668.092,692.753 667.794,692.904C666.415,693.601 664.996,694.229 663.542,694.785L663.482,694.808L663.423,694.83C663.165,694.928 662.905,695.024 662.644,695.117L662.438,695.19L662.285,695.244C661.095,695.659 659.882,696.025 658.65,696.341L658.42,696.4L658.233,696.446C655.812,697.043 653.313,697.445 650.755,697.636C650.584,697.648 650.414,697.66 650.244,697.671C649.668,697.707 649.09,697.733 648.51,697.748L648.217,697.754L648.214,697.754C647.923,697.76 647.631,697.763 647.337,697.763C647.043,697.763 646.751,697.76 646.46,697.754L646.457,697.754L646.164,697.748C645.742,697.737 645.321,697.721 644.899,697.698L644.709,697.688L644.483,697.674C643.504,697.613 642.533,697.522 641.572,697.4C641.369,697.374 641.166,697.347 640.963,697.318C639.756,697.149 638.563,696.932 637.388,696.669L637.351,696.66L637.285,696.645C636.48,696.463 635.684,696.26 634.898,696.037C634.579,695.946 634.263,695.853 633.945,695.755C633.604,695.649 633.264,695.54 632.925,695.427L632.763,695.372L632.754,695.37C632.424,695.258 632.096,695.142 631.77,695.023C631.111,694.782 630.459,694.527 629.814,694.257C629.556,694.149 629.3,694.039 629.043,693.926C628.907,693.866 628.771,693.805 628.635,693.744L628.384,693.63C628.301,693.591 628.217,693.552 628.134,693.514L627.884,693.396L627.867,693.388C625.37,692.201 622.997,690.793 620.774,689.189C617.242,686.64 614.091,683.597 611.42,680.16L611.41,680.147L611.34,680.056C610.973,679.582 610.616,679.099 610.268,678.611C610.096,678.368 609.925,678.124 609.757,677.877C609.073,676.875 608.428,675.843 607.825,674.787L607.767,674.685C607.722,674.605 607.677,674.525 607.632,674.445L607.367,673.964C607.323,673.883 607.28,673.803 607.236,673.722L607.183,673.622C607.102,673.469 607.021,673.316 606.941,673.162C606.81,672.909 606.682,672.654 606.555,672.399C606.287,671.856 606.029,671.307 605.782,670.751L605.67,670.499L605.575,670.279C605.351,669.76 605.136,669.235 604.931,668.706L604.921,668.679C604.79,668.343 604.664,668.005 604.542,667.665L604.449,667.403L604.357,667.14L604.31,667.003C604.206,666.698 604.104,666.39 604.006,666.081C603.74,665.247 603.499,664.403 603.281,663.55C603.244,663.404 603.208,663.258 603.172,663.112C603.111,662.863 603.052,662.614 602.996,662.364L602.979,662.288L602.918,662.013L602.882,661.845C602.823,661.569 602.766,661.291 602.712,661.013C602.669,660.791 602.627,660.568 602.587,660.345L602.538,660.065C602.458,659.601 602.385,659.135 602.319,658.667C602.281,658.395 602.245,658.122 602.212,657.849L602.207,657.804L602.191,657.675C602.158,657.394 602.128,657.113 602.1,656.832C602.082,656.647 602.064,656.462 602.048,656.277L602.032,656.086C602.024,655.99 602.017,655.894 602.009,655.798L602,655.672C601.918,654.561 601.876,653.436 601.876,652.302L601.877,652.223C601.879,651.046 601.925,649.879 602.016,648.722C602.031,648.532 602.047,648.343 602.064,648.157L602.083,647.944C602.093,647.848 602.102,647.752 602.111,647.657L602.125,647.527C602.191,646.898 602.269,646.274 602.361,645.651C602.437,645.133 602.521,644.618 602.615,644.104C602.667,643.822 602.721,643.542 602.777,643.261L602.801,643.145C602.82,643.053 602.839,642.96 602.858,642.868L602.91,642.628C602.933,642.52 602.957,642.412 602.982,642.302L603.024,642.117C603.087,641.844 603.151,641.573 603.219,641.303L603.239,641.219L603.296,640.996C603.51,640.162 603.747,639.337 604.006,638.523C604.091,638.253 604.18,637.985 604.27,637.718L604.357,637.465L604.429,637.257C604.805,636.188 605.219,635.136 605.67,634.106L605.765,633.892C606.952,631.216 608.391,628.676 610.05,626.303C610.123,626.199 610.195,626.096 610.268,625.993C612.386,623.015 614.854,620.303 617.611,617.917L617.8,617.755L618.008,617.578L618.217,617.402C618.287,617.344 618.357,617.286 618.427,617.228L618.564,617.116C620.341,615.66 622.231,614.336 624.219,613.159L624.242,613.145L624.353,613.08C625.488,612.413 626.654,611.794 627.847,611.226L627.884,611.208L628.134,611.091L628.384,610.975L628.512,610.916C628.943,610.72 629.377,610.53 629.814,610.347C630.882,609.9 631.971,609.492 633.08,609.126L633.292,609.056L633.427,609.013C634.728,608.595 636.054,608.234 637.402,607.933L637.626,607.883L637.903,607.824L637.938,607.816C640.604,607.255 643.355,606.928 646.169,606.856L646.457,606.85L646.46,606.85ZM303.192,651.139C302.549,651.781 302.549,652.823 303.192,653.465L313.192,663.465C313.662,663.936 314.37,664.077 314.984,663.822C315.599,663.567 316,662.968 316,662.302L316,642.302C316,641.637 315.599,641.037 314.984,640.782C314.37,640.528 313.662,640.668 313.192,641.139L303.192,651.139ZM459.518,653.465C460.161,652.823 460.161,651.781 459.518,651.139L449.518,641.139C449.048,640.668 448.34,640.528 447.725,640.782C447.111,641.037 446.71,641.637 446.71,642.302L446.71,662.302C446.71,662.968 447.111,663.567 447.725,663.822C448.34,664.077 449.048,663.936 449.518,663.465L459.518,653.465ZM380.808,573.482C380.166,572.839 379.124,572.839 378.482,573.482L368.482,583.482C368.011,583.952 367.871,584.66 368.125,585.275C368.38,585.889 368.98,586.29 369.645,586.29L389.645,586.29C390.311,586.29 390.91,585.889 391.165,585.275C391.42,584.66 391.279,583.952 390.808,583.482L380.808,573.482Z" style="fill:white;"/>
    </g>
</svg>
