<?xml version="1.0" encoding="UTF-8" standalone="no"?>
<!DOCTYPE svg PUBLIC "-//W3C//DTD SVG 1.1//EN" "http://www.w3.org/Graphics/SVG/1.1/DTD/svg11.dtd">
<svg width="100%" height="100%" viewBox="0 0 1000 1000" version="1.1" xmlns="http://www.w3.org/2000/svg" xmlns:xlink="http://www.w3.org/1999/xlink" xml:space="preserve" xmlns:serif="http://www.serif.com/" style="fill-rule:evenodd;clip-rule:evenodd;stroke-linejoin:round;stroke-miterlimit:2;">
    <g transform="matrix(2.03079,0,0,2.03079,-329.4,-427.836)">
        <path d="M574.608,571.397C609.707,591.913 639.951,611.123 626.904,618.675C599.226,631.889 477.203,619.149 351.444,583.217C288.082,565.113 235.659,522.213 189.582,469.749C175.409,453.611 218.451,457.86 259.317,463.84C288.753,405.435 316.654,346.789 364.511,291.275C367.35,287.981 372.046,291.76 375.148,294.821C394.283,313.699 412.586,336.338 430.7,359.828C457.377,365.339 481.832,373.685 505.163,383.467C532.317,373.9 560.111,366.47 590.263,366.92C600.335,367.07 603.058,371.619 603.265,379.921C604.833,442.926 592.872,506.929 574.608,571.397ZM403.686,468.804C458.369,490.318 517.646,506.349 584.354,513.482C579.747,533.563 574.358,553.65 567.806,573.761L572.534,576.125C571.207,580.853 569.126,585.581 566.624,590.308C485.286,593.769 415.291,582.908 356.275,558.177C386.164,551.166 408.412,524.753 408.412,493.279C408.412,484.64 406.736,476.382 403.686,468.804ZM295.995,525.554L327.661,503.739C330.716,507.332 335.31,509.619 340.445,509.619C343.491,509.619 346.347,508.814 348.805,507.408L352.711,512.872L350.449,514.43L351.562,515.987L353.824,514.429L360.903,524.331L358.62,525.903L359.733,527.461L362.016,525.888L369.028,535.697L366.589,537.377L367.702,538.934L370.141,537.254L374.97,544.009C366.719,549.434 357.074,552.971 346.677,553.989C328.733,545.841 311.842,536.358 295.995,525.554ZM387.911,462.397C390.561,463.507 393.217,464.603 395.884,465.685C400.178,473.974 402.598,483.351 402.598,493.279C402.598,513.541 392.515,531.509 377.011,542.609L350.857,506.024C354.656,503.028 357.09,498.43 357.09,493.279C357.09,490.32 356.287,487.544 354.884,485.15L360.21,481.481L361.797,483.701L363.383,482.608L361.796,480.388L371.883,473.439L373.485,475.679L375.071,474.587L373.469,472.346L383.461,465.463L385.172,467.857L386.759,466.764L385.047,464.37L387.911,462.397ZM293.826,524.062C290.084,521.465 286.397,518.793 282.77,516.046C279.882,509.011 278.292,501.326 278.292,493.279C278.292,473.101 288.291,455.198 303.686,444.089L329.847,480.683C326.154,483.682 323.8,488.213 323.8,493.279C323.8,496.38 324.681,499.279 326.212,501.751L320.68,505.563L319.093,503.342L317.507,504.435L319.094,506.655L309.007,513.604L307.405,511.364L305.819,512.457L307.421,514.697L297.429,521.581L295.717,519.186L294.131,520.279L295.843,522.673L293.826,524.062ZM319.095,429.922C292.028,438.719 272.478,463.775 272.478,493.279C272.478,498.906 273.189,504.371 274.528,509.594C266.396,503.016 258.565,496.034 251.044,488.661L256.953,468.568L261.681,468.568C269.999,450.092 279.686,432.748 290.048,414.198C299.629,419.559 309.303,424.808 319.095,429.922ZM332.226,500.595L339.96,495.267L340.039,495.377L340.149,495.301L345.6,502.926C344.06,503.722 342.305,504.172 340.445,504.172C337.188,504.172 334.257,502.792 332.226,500.595ZM342.187,493.897L350.314,488.298C351.098,489.791 351.541,491.484 351.541,493.279C351.541,496.588 350.036,499.554 347.66,501.552L342.187,493.897ZM333.049,485.162L338.654,493.003L338.555,493.071L338.64,493.19L330.769,498.612C329.864,497.036 329.348,495.216 329.348,493.279C329.348,490.055 330.778,487.157 333.049,485.162ZM348.931,486.265L340.93,491.777L340.851,491.666L340.777,491.718L335.077,483.745C336.669,482.879 338.499,482.386 340.445,482.386C343.848,482.386 346.896,483.893 348.931,486.265ZM326.579,433.792C345.628,443.544 365.126,452.761 385.221,461.264L353.484,483.128C350.435,479.358 345.725,476.939 340.445,476.939C337.313,476.939 334.382,477.79 331.878,479.27L327.887,473.686L330.149,472.128L329.035,470.571L326.774,472.129L319.695,462.227L321.977,460.655L320.864,459.098L318.582,460.67L311.57,450.861L314.008,449.181L312.895,447.624L310.457,449.304L305.721,442.68C311.962,438.543 319.007,435.488 326.579,433.792Z" style="fill:white;"/>
    </g>
</svg>
