<?xml version="1.0" encoding="UTF-8" standalone="no"?>
<!DOCTYPE svg PUBLIC "-//W3C//DTD SVG 1.1//EN" "http://www.w3.org/Graphics/SVG/1.1/DTD/svg11.dtd">
<svg width="100%" height="100%" viewBox="0 0 1000 1000" version="1.1" xmlns="http://www.w3.org/2000/svg" xmlns:xlink="http://www.w3.org/1999/xlink" xml:space="preserve" xmlns:serif="http://www.serif.com/" style="fill-rule:evenodd;clip-rule:evenodd;stroke-linejoin:round;stroke-miterlimit:2;">
    <g transform="matrix(2.21142,0,0,2.21142,-574.868,-525.478)">
        <path d="M536.607,521.206C567.912,561.305 570.423,609.325 559.897,660.96C559.322,663.776 561.143,666.529 563.96,667.103C566.776,667.678 569.529,665.857 570.103,663.04C581.035,609.416 578.214,559.567 546.943,517.577C580.339,531.989 607.566,545.431 630,542.163C652.7,538.857 668.778,522.008 675,485C691.704,449.801 671.957,423.441 650,411.299C630.497,400.514 599.925,399.822 557.436,410C601.795,365.17 611.626,320.849 597.882,295C590.865,281.801 576.787,266.949 545,270C521.099,257.528 503.245,257.52 490,267.009C466.582,283.786 441.396,326.663 455,390C424.378,356.543 394.214,335.919 365,341.895C346.231,345.734 310.805,356.566 310,390C272.63,423.888 298.725,465.774 315,482.757C332.925,501.461 379.679,517.962 420,490C389.264,529.585 375.325,561.708 381.268,585C386.486,605.452 407.623,626.355 445,625C488.229,644.464 513.539,611.418 525,591.03C535.704,571.99 541.016,549.72 536.607,521.206ZM463,561C463.069,562.593 463.07,564.177 463.022,565.769C462.951,568.131 462.742,570.483 462.404,572.849C462.255,573.882 462.082,574.914 461.89,575.951C461.608,577.48 461.264,579.008 460.882,580.549C460.633,581.556 460.371,582.567 460.089,583.584C459.674,585.078 459.224,586.582 458.704,588.095C458.199,589.564 457.644,591.038 457.028,592.526C456.142,594.668 455.151,596.824 454,599C455.402,596.959 456.665,594.933 457.776,592.883C458.556,591.443 459.258,590.003 459.889,588.556C460.544,587.055 461.126,585.555 461.618,584.045C461.954,583.014 462.249,581.979 462.497,580.942C462.876,579.356 463.155,577.766 463.36,576.182C463.498,575.111 463.595,574.042 463.657,572.974C463.796,570.551 463.763,568.149 463.578,565.755C463.454,564.16 463.255,562.581 463,561ZM511,482C508.979,526.354 486.682,526.762 468,525.529C439.886,523.674 435.678,508.686 450,475C418.455,510.599 415.34,534.444 469,546.245C507.76,554.77 536.206,520.489 511,482ZM480,459C480,459 479.426,461.033 478.591,464.308C478.026,466.526 477.338,469.246 476.64,472.292C476.375,473.446 476.115,474.631 475.877,475.854C475.537,477.609 475.2,479.409 474.941,481.225C474.77,482.429 474.642,483.638 474.541,484.836C474.383,486.707 474.303,488.535 474.225,490.29C474.137,492.255 474.086,494.085 474.054,495.763C473.961,500.688 474,504 474,504C474,504 474.905,500.814 476.106,496.037C476.515,494.409 476.945,492.629 477.375,490.71C477.76,488.995 478.161,487.211 478.499,485.364C478.715,484.182 478.909,482.981 479.059,481.775C479.285,479.954 479.432,478.128 479.563,476.346C479.654,475.102 479.713,473.891 479.76,472.708C479.885,469.586 479.933,466.781 479.969,464.492C480.021,461.112 480,459 480,459ZM524.973,433.693C560.797,423.683 573.894,424.129 569.642,456C566.39,480.373 547.324,481.809 511.666,472C549.933,506.335 579.186,492.606 588.765,463C592.782,450.585 595.125,390.319 524.973,433.693ZM458,411C420.79,387.585 398.485,390.834 387.558,424C377.478,454.594 397.017,468.603 448,464C379.74,496.848 363.011,450.501 373.893,414C384.484,378.474 416.218,368.203 458,411ZM603,465C605.17,464.688 607.311,464.474 609.432,464.333C612.708,464.115 615.918,464.104 619.083,464.276C620.515,464.354 621.934,464.47 623.345,464.615C625.479,464.836 627.588,465.146 629.682,465.52C631.084,465.77 632.478,466.044 633.867,466.351C635.951,466.811 638.02,467.336 640.074,467.953C642.117,468.567 644.143,469.259 646.159,470.035C649.138,471.181 652.085,472.489 655,474C652.21,472.238 649.383,470.652 646.486,469.274C644.509,468.333 642.507,467.491 640.476,466.747C638.422,465.994 636.345,465.336 634.236,464.797C632.827,464.437 631.404,464.13 629.969,463.883C627.826,463.514 625.657,463.271 623.469,463.133C622.025,463.042 620.574,463.005 619.112,463.017C615.904,463.043 612.661,463.298 609.373,463.78C607.263,464.089 605.143,464.501 603,465ZM511,453C512.367,452.911 513.67,452.88 515.029,452.841C517.044,452.784 518.987,452.801 520.992,452.83C521.87,452.842 522.732,452.864 523.609,452.865C524.91,452.868 526.204,452.896 527.506,452.875C528.37,452.861 529.233,452.816 530.097,452.763C531.406,452.683 532.694,452.557 534.009,452.47C535.336,452.381 536.629,452.292 537.967,452.22C539.992,452.112 541.942,452.003 544,452C542.037,451.304 540.161,450.68 538.176,450.161C536.839,449.811 535.53,449.532 534.179,449.295C532.823,449.058 531.482,448.867 530.116,448.77C529.207,448.706 528.296,448.685 527.388,448.722C526.021,448.778 524.666,448.942 523.317,449.158C522.413,449.304 521.53,449.484 520.639,449.701C518.636,450.188 516.72,450.772 514.77,451.476C513.48,451.943 512.267,452.45 511,453ZM491,447C491,447 491.66,445.223 492.641,442.336C493.305,440.383 494.11,437.998 494.944,435.309C495.259,434.291 495.571,433.248 495.863,432.165C496.281,430.614 496.697,429.021 497.037,427.407C497.262,426.338 497.443,425.261 497.598,424.192C497.839,422.52 498.001,420.885 498.159,419.312C498.335,417.549 498.468,415.911 498.575,414.403C498.89,409.971 499,407 499,407C499,407 497.959,409.785 496.545,413.997C496.064,415.43 495.557,416.993 495.041,418.688C494.581,420.201 494.102,421.772 493.682,423.408C493.414,424.455 493.167,425.519 492.963,426.593C492.656,428.213 492.428,429.843 492.217,431.435C492.07,432.547 491.957,433.63 491.856,434.691C491.591,437.494 491.418,440.006 491.279,442.064C491.074,445.106 491,447 491,447ZM475,444C473.547,443.179 472.145,442.388 470.683,441.624C468.463,440.464 466.281,439.391 464.032,438.385C463.025,437.935 462.023,437.512 461,437.118C459.459,436.525 457.915,435.969 456.348,435.507C455.295,435.196 454.231,434.936 453.163,434.713C451.54,434.373 449.924,434.125 448.297,433.901C446.649,433.674 445.034,433.495 443.391,433.36C440.892,433.155 438.475,433.069 436,433C438.345,433.75 440.607,434.563 442.961,435.385C444.496,435.922 446.006,436.455 447.557,436.992C449.08,437.52 450.587,438.067 452.135,438.571C453.15,438.902 454.174,439.218 455.211,439.502C456.757,439.925 458.322,440.292 459.897,440.669C460.945,440.92 461.99,441.147 463.051,441.377C465.434,441.893 467.787,442.387 470.206,442.928C471.811,443.288 473.381,443.619 475,444ZM535.108,420C568.57,372.998 531.037,356.446 522.764,354.524C512.693,352.183 462.601,355.559 477.402,420C433.806,354.185 511.528,330.839 526,335C548.976,341.607 590.198,369.197 535.108,420ZM360,409C358.92,408.088 357.845,407.22 356.749,406.402C355.03,405.12 353.298,403.959 351.535,402.922C350.722,402.444 349.904,401.997 349.078,401.582C347.806,400.944 346.524,400.371 345.227,399.885C344.343,399.554 343.45,399.267 342.553,399.02C341.185,398.642 339.811,398.356 338.432,398.141C337.039,397.924 335.648,397.785 334.251,397.729C332.164,397.644 330.089,397.744 328,398C330.313,398.023 332.581,398.264 334.843,398.666C336.404,398.944 337.948,399.307 339.492,399.745C340.144,399.929 340.794,400.124 341.444,400.333C342.088,400.539 342.729,400.762 343.373,400.987C344.01,401.211 344.648,401.443 345.289,401.68C346.55,402.146 347.813,402.648 349.081,403.197C350.563,403.84 352.047,404.534 353.538,405.299C355.689,406.403 357.843,407.616 360,409ZM534,323C534.751,321.696 535.465,320.391 536.131,319.06C537.144,317.032 538.052,314.981 538.842,312.885C539.196,311.944 539.523,310.998 539.819,310.04C540.265,308.6 540.654,307.144 540.962,305.669C541.167,304.686 541.331,303.693 541.461,302.695C541.654,301.206 541.766,299.704 541.819,298.19C541.871,296.697 541.859,295.197 541.778,293.683C541.659,291.472 541.392,289.254 541,287C541.11,289.269 541.077,291.486 540.95,293.681C540.864,295.168 540.729,296.634 540.552,298.091C540.373,299.56 540.139,301.009 539.882,302.452C539.71,303.417 539.525,304.378 539.334,305.337C539.046,306.779 538.739,308.214 538.386,309.642C538.151,310.596 537.907,311.546 537.644,312.495C537.055,314.627 536.385,316.736 535.62,318.84C535.113,320.234 534.581,321.618 534,323Z" style="fill:white;"/>
    </g>
</svg>
