<?xml version="1.0" encoding="UTF-8" standalone="no"?>
<!DOCTYPE svg PUBLIC "-//W3C//DTD SVG 1.1//EN" "http://www.w3.org/Graphics/SVG/1.1/DTD/svg11.dtd">
<svg width="100%" height="100%" viewBox="0 0 1000 1000" version="1.1" xmlns="http://www.w3.org/2000/svg" xmlns:xlink="http://www.w3.org/1999/xlink" xml:space="preserve" xmlns:serif="http://www.serif.com/" style="fill-rule:evenodd;clip-rule:evenodd;stroke-linejoin:round;stroke-miterlimit:2;">
    <g transform="matrix(1.09245,0,0,1.09245,-48.4104,41.5048)">
        <path d="M500,157.688L500,157C550.288,157.752 596.177,166.039 637,183C632.183,165.127 629.097,148.816 626.693,134.139C614.604,60.321 622.666,21.498 673.015,9.04C692.878,4.126 714.921,13.357 733.727,40C737.621,45.516 739.682,58.185 739,79C751.792,69.354 761.253,63.214 767.87,62.354C784.603,60.18 798.75,59.968 807.123,66.09C853.219,99.793 854.227,152.539 775.231,192.911C756.974,202.242 735.086,212.767 708,222C857.293,372.305 868.673,507.738 795,634L854,674L760,809L737,793C700.227,817.225 660.019,823.621 620,831L580,807C635.585,737.969 687.089,665.768 734,590C803.688,480.731 791.959,381.21 712.718,290C686.054,259.308 656.759,233.574 615.549,220C583.226,209.353 546.45,202.025 504,201.983L504,202.612C459.853,202.182 421.784,209.632 388.451,220.612C347.241,234.185 317.946,259.92 291.282,290.612C212.041,381.822 200.312,481.343 270,590.612C316.911,666.38 368.415,738.581 424,807.612L384,831.612C343.981,824.233 303.773,817.837 267,793.612L244,809.612L150,674.612L209,634.612C135.327,508.35 146.707,372.917 296,222.612C268.914,213.379 247.026,202.854 228.769,193.523C149.773,153.151 150.781,100.405 196.877,66.702C205.25,60.58 219.397,60.792 236.13,62.966C242.747,63.826 252.208,69.966 265,79.612C264.318,58.797 266.379,46.128 270.273,40.612C289.079,13.969 311.122,4.738 330.985,9.652C381.334,22.11 389.396,60.932 377.307,134.751C374.903,149.428 371.817,165.739 367,183.612C406.737,167.102 451.274,158.811 500,157.688ZM264,547.612C308.334,626.367 356.349,703.601 417,775.612C430.335,790.274 439.133,791.225 448.697,787.768C466.855,781.204 467.882,763.772 461,735.612C418.732,655.313 371.277,583.101 324,510.612C304.853,479.901 271.003,479.487 258.444,496.404C252.817,503.983 254.434,520.442 264,547.612ZM740,547C695.666,625.755 647.651,702.989 587,775C573.665,789.662 564.867,790.613 555.303,787.156C537.145,780.592 536.118,763.16 543,735C585.268,654.701 632.723,582.489 680,510C699.147,479.289 732.997,478.875 745.556,495.792C751.183,503.372 749.566,519.831 740,547Z" style="fill:white;"/>
    </g>
</svg>
