<?xml version="1.0" encoding="UTF-8" standalone="no"?>
<!DOCTYPE svg PUBLIC "-//W3C//DTD SVG 1.1//EN" "http://www.w3.org/Graphics/SVG/1.1/DTD/svg11.dtd">
<svg width="100%" height="100%" viewBox="0 0 1000 1000" version="1.1" xmlns="http://www.w3.org/2000/svg" xmlns:xlink="http://www.w3.org/1999/xlink" xml:space="preserve" xmlns:serif="http://www.serif.com/" style="fill-rule:evenodd;clip-rule:evenodd;stroke-linejoin:round;stroke-miterlimit:2;">
    <g transform="matrix(2.10328,0,0,2.10328,-347.696,-288.359)">
        <path d="M415.609,321.384L415.939,219.188C423.93,189.11 437.078,165.732 465.817,162.617C492.897,156.351 509.343,167.283 518.358,190.233C529.505,244.563 517.865,293.888 459.824,333.02C446.54,342.235 438.409,352.882 442.088,366.811L437.45,546.469C438.296,576.707 411.095,601.091 408.003,582.047L406.972,365.187L350.559,361.762C328.987,360.298 307.29,357.84 284.418,345.995C264.352,335.283 245.592,322.633 231.866,302.507C216.459,286.502 230.163,250.988 257.132,277.053C272.642,295.584 295.679,309.216 326.156,318.004C355.168,323.336 385.081,323.969 415.609,321.384ZM332.828,415.566C318.584,412.674 288.025,444.617 258.786,473.738C251.383,482.175 247.656,490.929 247.606,500C247.188,508.234 250.437,511.859 256.797,511.571C268.885,524.259 353.984,433.143 332.828,415.566ZM538.431,388.891C530.697,378.346 524.454,379.964 518.89,387.111L514.44,395.053C510.704,409.743 514.243,419.107 522.155,425.27L552.233,461.539C560.828,468.773 566.697,468.151 571.903,465.613C578.252,467.363 587.701,436.753 572.352,424.192L538.431,388.891ZM444.719,310.164C463.17,297.909 477.765,282.798 487.625,264.178C492.513,252.511 495.455,239.336 491.658,220.938C483.029,207.61 473.928,203.985 464.657,203.844C451.114,204.528 444.412,212.68 442.492,226.052L444.719,310.164Z" style="fill:white;"/>
    </g>
</svg>
