<?xml version="1.0" encoding="UTF-8" standalone="no"?>
<!DOCTYPE svg PUBLIC "-//W3C//DTD SVG 1.1//EN" "http://www.w3.org/Graphics/SVG/1.1/DTD/svg11.dtd">
<svg width="100%" height="100%" viewBox="0 0 1000 1000" version="1.1" xmlns="http://www.w3.org/2000/svg" xmlns:xlink="http://www.w3.org/1999/xlink" xml:space="preserve" xmlns:serif="http://www.serif.com/" style="fill-rule:evenodd;clip-rule:evenodd;stroke-linejoin:round;stroke-miterlimit:2;">
    <g transform="matrix(1.4876,0,0,1.4876,-243.802,-217.769)">
        <path d="M500,180C505.506,218.368 511.839,256.72 522,295C511.63,297.616 507.484,303.608 506.194,308C504.458,313.912 508.755,321.068 519,326C518.432,327.747 517.989,329.629 518,332C519.858,330.54 521.858,329.81 524,330L524,326C541.146,320.946 545.067,311.374 532,296C548.236,273.171 562.292,249.382 575,225C570.004,251.448 567.37,278.09 568,305C552.721,305.568 546.194,312.428 549,326C558.072,327.15 566.654,328.992 573,334C584.444,324.847 582.555,315.889 576,307C594.357,294.512 611.725,281.529 626,267C616.349,288.333 607.667,309.667 600,331C594.627,331.356 589.281,333.236 584,339C587.431,342.141 590.405,345.486 593,349C598.276,343.067 605.93,341.374 615,342C615.984,340.217 616.444,338.319 615,336C612.618,332.949 612.44,329.964 613,327C614.594,331.499 617.377,335.884 623,340C623.4,337.667 624.067,335.333 625,333C626.803,333.622 628.84,333.901 631,334C628.393,329.558 626.584,324.821 625,320C627.963,323.971 631.728,327.374 638,329C618.368,302.594 622.124,280.57 655,264C666.251,259.404 675.379,252.011 681,240C679.767,248.667 678.898,257.333 669,266C647.706,279.856 646.636,293.424 645,307C654.537,291.94 667.153,278.597 708,281C721.627,283.854 730.852,281.312 737,275C734.384,282.705 728.96,288.927 710,288C667.36,287.409 665.645,301.25 658,313C676.242,291.4 698.91,288.094 733,332C737.514,338.508 744.521,342.111 753,344C748.752,345.749 745.256,348.396 730,337C709.22,318.496 688.504,300.914 670,315C687.673,314.569 700.14,327.512 705,360C705.082,373.836 708.889,384.804 715,394C708.339,392.113 702.188,384.533 698,355C695.235,336.044 686.915,325.363 671,326C709.015,347.335 696.329,382.422 689.145,396C681.916,409.664 673.748,413.396 658,414C681.443,408.09 697.428,396.407 678,347C678.419,352.239 677.98,357.289 676,362C674.244,347.914 668.417,341.893 660,341C663.141,345.758 665.149,350.668 664,356C655.375,342.45 642.616,343.237 629,347C653.695,367.781 650.8,387.992 638,408C638.623,388.915 632.162,374.556 614,368C610.075,365.504 608.674,370.269 609,380C612.312,387.199 613.59,394.502 611,402C637.036,427.43 644.305,456.216 646,486C639.124,468.298 628.917,454.542 616,444C592.882,423.827 579.589,433.33 569,451C571.042,449.866 573.304,449.085 576,449C603.713,464.915 612.762,481.516 625,498C614.556,491.081 602.343,487.413 584,495C578.018,486.164 570.034,478.819 560,473C559.999,497.468 563.226,521.677 590,544C595.614,531.703 594.141,518.653 587,505C598.843,500.09 610.56,499.164 622,507C623.07,516.266 622.621,525.605 621,535C625.859,538.763 629.239,542.82 632,547C643.029,543.28 651.701,539.607 657,536C655.534,546.489 651.237,556.62 641,566C655.929,586.029 662.925,606.954 660,629C653.908,634.706 647.124,641.167 640,648C648.719,647.008 655.403,649.707 659,658C658.493,652.459 658.901,646.917 663.063,641.376C667.112,634.949 666.428,628.817 663.218,622.842C670.074,623.792 674.789,626.974 674.049,635.846C682.844,631.383 690.637,629.93 697.923,630C676.773,636.17 667.615,649.211 665,666C665.316,674.239 660.094,681.472 651,688C664.443,683.382 674.443,677.048 681,669C679.795,682.797 669.488,692.756 648,698C627.505,701.991 622.358,713.283 616,724C609.138,742.516 598.158,749.289 584,747C584.854,748.741 586.277,750.393 588,752C583.047,751.208 579.842,749.68 577,748C566.376,754.796 555.71,759.163 545,761C541.746,769 536.74,777 531,785C532.079,776.628 535.485,766.477 532.078,758C529.528,751.656 522.882,746.746 517,740C512.062,750.61 506.278,761.286 500,772C493.722,761.286 487.938,750.61 483,740C477.118,746.746 470.472,751.656 467.922,758C464.515,766.477 467.921,776.628 469,785C463.26,777 458.254,769 455,761C444.29,759.163 433.624,754.796 423,748C420.158,749.68 416.953,751.208 412,752C413.723,750.393 415.146,748.741 416,747C401.842,749.289 390.862,742.516 384,724C377.642,713.283 372.495,701.991 352,698C330.512,692.756 320.205,682.797 319,669C325.557,677.048 335.557,683.382 349,688C339.906,681.472 334.684,674.239 335,666C332.385,649.211 323.227,636.17 302.077,630C309.363,629.93 317.156,631.383 325.951,635.846C325.211,626.974 329.926,623.792 336.782,622.842C333.572,628.817 332.888,634.949 336.937,641.376C341.099,646.917 341.507,652.459 341,658C344.597,649.707 351.281,647.008 360,648C352.876,641.167 346.092,634.706 340,629C337.075,606.954 344.071,586.029 359,566C348.763,556.62 344.466,546.489 343,536C348.299,539.607 356.971,543.28 368,547C370.761,542.82 374.141,538.763 379,535C377.379,525.605 376.93,516.266 378,507C389.44,499.164 401.157,500.09 413,505C405.859,518.653 404.386,531.703 410,544C436.774,521.677 440.001,497.468 440,473C429.966,478.819 421.982,486.164 416,495C397.657,487.413 385.444,491.081 375,498C387.238,481.516 396.287,464.915 424,449C426.696,449.085 428.958,449.866 431,451C420.411,433.33 407.118,423.827 384,444C371.083,454.542 360.876,468.298 354,486C355.695,456.216 362.964,427.43 389,402C386.41,394.502 387.688,387.199 391,380C391.326,370.269 389.925,365.504 386,368C367.838,374.556 361.377,388.915 362,408C349.2,387.992 346.305,367.781 371,347C357.384,343.237 344.625,342.45 336,356C334.851,350.668 336.859,345.758 340,341C331.583,341.893 325.756,347.914 324,362C322.02,357.289 321.581,352.239 322,347C302.572,396.407 318.557,408.09 342,414C326.252,413.396 318.084,409.664 310.855,396C303.671,382.422 290.985,347.335 329,326C313.085,325.363 304.765,336.044 302,355C297.812,384.533 291.661,392.113 285,394C291.111,384.804 294.918,373.836 295,360C299.86,327.512 312.327,314.569 330,315C311.496,300.914 290.78,318.496 270,337C254.744,348.396 251.248,345.749 247,344C255.479,342.111 262.486,338.508 267,332C301.09,288.094 323.758,291.4 342,313C334.355,301.25 332.64,287.409 290,288C271.04,288.927 265.616,282.705 263,275C269.148,281.312 278.373,283.854 292,281C332.847,278.597 345.463,291.94 355,307C353.364,293.424 352.294,279.856 331,266C321.102,257.333 320.233,248.667 319,240C324.621,252.011 333.749,259.404 345,264C377.876,280.57 381.632,302.594 362,329C368.272,327.374 372.037,323.971 375,320C373.416,324.821 371.607,329.558 369,334C371.16,333.901 373.197,333.622 375,333C375.933,335.333 376.6,337.667 377,340C382.623,335.884 385.406,331.499 387,327C387.56,329.964 387.382,332.949 385,336C383.556,338.319 384.016,340.217 385,342C394.07,341.374 401.724,343.067 407,349C409.595,345.486 412.569,342.141 416,339C410.719,333.236 405.373,331.356 400,331C392.333,309.667 383.651,288.333 374,267C388.275,281.529 405.643,294.512 424,307C417.445,315.889 415.556,324.847 427,334C433.346,328.992 441.928,327.15 451,326C453.806,312.428 447.279,305.568 432,305C432.63,278.09 429.996,251.448 425,225C437.708,249.382 451.764,273.171 468,296C454.933,311.374 458.854,320.946 476,326L476,330C478.142,329.81 480.142,330.54 482,332C482.011,329.629 481.568,327.747 481,326C491.245,321.068 495.542,313.912 493.806,308C492.516,303.608 488.37,297.616 478,295C488.161,256.72 494.494,218.368 500,180ZM559.5,602.5C557.087,603.625 553.726,603.963 550,604C552.738,607.319 558.125,609.567 568,610L574.5,619C571.846,620.806 567.194,621.92 561,622.5C567.522,627.718 575.356,631.35 584,634C584.404,637.951 585.766,641.952 588,646C588.675,641.496 589.019,637.157 589,633C595.541,628.265 600.257,623.611 604,619C610.281,612.864 615.999,609.722 619,621C622.012,626.143 622.446,633.238 622,641C619.356,645.813 616.739,650.905 612.747,655C594.816,673.391 576.419,689.331 556,710C555.666,720.51 558.717,730.549 566,740C560.608,745.803 554.582,751.704 546,758C545.473,752.313 542.565,748.851 539,746L522,728L524,688L541,668C547.605,666.873 552.134,670.653 556,676C542.094,688.513 533.049,698.667 536,703C537.806,716.964 545.693,726.499 555,735C548.754,719.455 539.025,703.487 558,691L584,670C587.617,665.778 588.729,661.881 582,659L559,648C562.359,626.927 556.224,609.974 534,600C538.954,597.435 543.698,595.527 548,595C553.357,597.5 556.36,600 559.5,602.5ZM440.5,602.5C442.913,603.625 446.274,603.963 450,604C447.262,607.319 441.875,609.567 432,610L425.5,619C428.154,620.806 432.806,621.92 439,622.5C432.478,627.718 424.644,631.35 416,634C415.596,637.951 414.234,641.952 412,646C411.325,641.496 410.981,637.157 411,633C404.459,628.265 399.743,623.611 396,619C389.719,612.864 384.001,609.722 381,621C377.988,626.143 377.554,633.238 378,641C380.644,645.813 383.261,650.905 387.253,655C405.184,673.391 423.581,689.331 444,710C444.334,720.51 441.283,730.549 434,740C439.392,745.803 445.418,751.704 454,758C454.527,752.313 457.435,748.851 461,746L478,728L476,688L459,668C452.395,666.873 447.866,670.653 444,676C457.906,688.513 466.951,698.667 464,703C462.194,716.964 454.307,726.499 445,735C451.246,719.455 460.975,703.487 442,691L416,670C412.383,665.778 411.271,661.881 418,659L441,648C437.641,626.927 443.776,609.974 466,600C461.046,597.435 456.302,595.527 452,595C446.643,597.5 443.64,600 440.5,602.5ZM500,604C488.315,604.374 481.201,609.66 476,617C485.776,632.035 488.227,646.707 483,661C481.38,648.214 475.491,637.639 462,631C459.978,647.282 468.892,663.946 489,681C490.094,698.91 487.375,716.776 492.417,728C494.164,731.889 497.072,733.905 500,737L500.274,736.713C503.109,733.777 505.891,731.767 507.583,728C512.625,716.776 509.906,698.91 511,681C531.108,663.946 540.022,647.282 538,631C524.509,637.639 518.62,648.214 517,661C511.773,646.707 514.224,632.035 524,617C518.799,609.66 511.685,604.374 500,604ZM583.301,701.449C576.759,705.888 573.451,710.653 572.145,715.619C570.839,720.586 571.534,725.754 573,731C577.675,721.217 581.413,711.383 583.301,701.449ZM416.699,701.449C423.241,705.888 426.549,710.653 427.855,715.619C429.161,720.586 428.466,725.754 427,731C422.325,721.217 418.587,711.383 416.699,701.449ZM602,684C607.609,683.825 610.593,686.158 612,690C590.77,692.625 592.334,704.321 594,704.526C595.725,704.737 601.981,711.402 621,692C650.586,664.99 643.402,656.279 640.859,655C636.594,652.854 628.496,654.762 602,684ZM398,684C392.391,683.825 389.407,686.158 388,690C409.23,692.625 407.666,704.321 406,704.526C404.275,704.737 398.019,711.402 379,692C349.414,664.99 356.598,656.279 359.141,655C363.406,652.854 371.504,654.762 398,684ZM413.5,600C414.234,600.654 414.704,601.347 414.818,602.093C414.932,602.838 414.69,603.636 414,604.5C412.582,602.883 411.382,601.356 413.5,600ZM586.5,600C585.766,600.654 585.296,601.347 585.182,602.093C585.068,602.838 585.31,603.636 586,604.5C587.418,602.883 588.618,601.356 586.5,600ZM500,498C486.238,511.01 477.991,527.617 474,547C480.16,543.019 486.544,542.463 493,543C481.181,558.873 466.532,569.001 440,555C440.414,558.886 441.085,562.823 443,567C446.729,567.283 450.015,566.877 453,566C452.119,568.333 450.893,570.667 448,573L455,578C463.003,573.558 474.02,564.946 486,555C482.666,565 479.726,575 467,585C473.168,586.814 474.719,591.071 475,596C487.734,588.582 496.576,577.112 500,560C503.424,577.112 512.266,588.582 525,596C525.281,591.071 526.832,586.814 533,585C520.274,575 517.334,565 514,555C525.98,564.946 536.997,573.558 545,578L552,573C549.107,570.667 547.881,568.333 547,566C549.985,566.877 553.271,567.283 557,567C558.915,562.823 559.586,558.886 560,555C533.468,569.001 518.819,558.873 507,543C513.456,542.463 519.84,543.019 526,547C522.009,527.617 513.762,511.01 500,498ZM590,581.19C582.139,582.066 576.438,582.182 573,581.5C574.074,584.15 575.443,586.742 578.5,589C581.515,585.736 585.53,583.279 590,581.19ZM410,581.19C417.861,582.066 423.562,582.182 427,581.5C425.926,584.15 424.557,586.742 421.5,589C418.485,585.736 414.47,583.279 410,581.19ZM288.777,541.708C285.074,538.006 285.074,531.994 288.777,528.292L302.193,514.875C305.896,511.173 311.908,511.173 315.61,514.875L329.027,528.292C332.729,531.994 332.729,538.006 329.027,541.708L315.61,555.125C311.908,558.827 305.896,558.827 302.193,555.125L288.777,541.708ZM711.223,541.708C714.926,538.006 714.926,531.994 711.223,528.292L697.807,514.875C694.104,511.173 688.092,511.173 684.39,514.875L670.973,528.292C667.271,531.994 667.271,538.006 670.973,541.708L684.39,555.125C688.092,558.827 694.104,558.827 697.807,555.125L711.223,541.708ZM682.223,512.11C685.926,508.408 685.926,502.396 682.223,498.693L668.807,485.277C665.104,481.574 659.092,481.574 655.39,485.277L641.973,498.693C638.271,502.396 638.271,508.408 641.973,512.11L655.39,525.527C659.092,529.229 665.104,529.229 668.807,525.527L682.223,512.11ZM317.777,512.11C314.074,508.408 314.074,502.396 317.777,498.693L331.193,485.277C334.896,481.574 340.908,481.574 344.61,485.277L358.027,498.693C361.729,502.396 361.729,508.408 358.027,512.11L344.61,525.527C340.908,529.229 334.896,529.229 331.193,525.527L317.777,512.11ZM259.178,512.11C255.476,508.408 255.476,502.396 259.178,498.693L272.595,485.277C276.297,481.574 282.309,481.574 286.012,485.277L299.428,498.693C303.131,502.396 303.131,508.408 299.428,512.11L286.012,525.527C282.309,529.229 276.297,529.229 272.595,525.527L259.178,512.11ZM740.822,512.11C744.524,508.408 744.524,502.396 740.822,498.693L727.405,485.277C723.703,481.574 717.691,481.574 713.988,485.277L700.572,498.693C696.869,502.396 696.869,508.408 700.572,512.11L713.988,525.527C717.691,529.229 723.703,529.229 727.405,525.527L740.822,512.11ZM456.5,524.5C456.749,524 458.41,524 458.493,524.5C458.577,525 457.332,527.5 457,527.5C456.668,527.5 456.251,525 456.5,524.5ZM543.5,524.5C543.251,524 541.59,524 541.507,524.5C541.423,525 542.668,527.5 543,527.5C543.332,527.5 543.749,525 543.5,524.5ZM543.013,515.98C542.511,514.977 542.009,514.506 541.507,514.521C541.004,514.536 540.502,515.038 540,515.98C541.039,517.78 542.041,517.671 543.013,515.98ZM456.987,515.98C457.489,514.977 457.991,514.506 458.493,514.521C458.996,514.536 459.498,515.038 460,515.98C458.961,517.78 457.959,517.671 456.987,515.98ZM500,420L493.569,385.871L485,390L491,420L466,372C463.278,372.52 460.582,373.428 458,376L483,422L425,348L415,357C454.95,400.963 485.466,439.997 470,455C482.319,459.673 488.826,465.355 489.783,472C490.747,478.702 487.357,488.599 476,495C475.169,483.343 471.945,474.413 463,472L458,476C471.943,482.74 477.011,491.466 474,502C472.604,497.583 470.009,495.132 466,495L466,514C481.964,503.69 493.398,489.444 500,471C506.602,489.444 518.036,503.69 534,514L534,495C529.991,495.132 527.396,497.583 526,502C522.989,491.466 528.057,482.74 542,476L537,472C528.055,474.413 524.831,483.343 524,495C512.643,488.599 509.253,478.702 510.217,472C511.174,465.355 517.681,459.673 530,455C514.534,439.997 545.05,400.963 585,357L575,348L517,422L542,376C539.418,373.428 536.722,372.52 534,372L509,420L515,390L506.431,385.871L500,420ZM711.223,483.708C714.926,480.006 714.926,473.994 711.223,470.292L697.807,456.875C694.104,453.173 688.092,453.173 684.39,456.875L670.973,470.292C667.271,473.994 667.271,480.006 670.973,483.708L684.39,497.125C688.092,500.827 694.104,500.827 697.807,497.125L711.223,483.708ZM288.777,483.708C285.074,480.006 285.074,473.994 288.777,470.292L302.193,456.875C305.896,453.173 311.908,453.173 315.61,456.875L329.027,470.292C332.729,473.994 332.729,480.006 329.027,483.708L315.61,497.125C311.908,500.827 305.896,500.827 302.193,497.125L288.777,483.708ZM592.829,375C596.351,385.778 595.048,396.401 593,407C591.13,399.592 588.295,394.211 583,394C584.161,386.029 587.503,379.746 592.829,375ZM407.171,375C403.649,385.778 404.952,396.401 407,407C408.87,399.592 411.705,394.211 417,394C415.839,386.029 412.497,379.746 407.171,375ZM441,343L457,371C458.373,369.026 460.411,368.085 463,368C460.182,360.241 455.443,351.006 451,342C447.667,341.708 444.333,341.808 441,343ZM559,343L543,371C541.627,369.026 539.589,368.085 537,368C539.818,360.241 544.557,351.006 549,342C552.333,341.708 555.667,341.808 559,343ZM479,352C481.591,353.899 483.452,356.125 484.109,358.888C484.767,361.651 484.221,364.951 482,369L479,352ZM521,352C518.409,353.899 516.548,356.125 515.891,358.888C515.233,361.651 515.779,364.951 518,369L521,352Z" style="fill:white;"/>
    </g>
</svg>
