<?xml version="1.0" encoding="UTF-8" standalone="no"?>
<!DOCTYPE svg PUBLIC "-//W3C//DTD SVG 1.1//EN" "http://www.w3.org/Graphics/SVG/1.1/DTD/svg11.dtd">
<svg width="100%" height="100%" viewBox="0 0 1000 1000" version="1.1" xmlns="http://www.w3.org/2000/svg" xmlns:xlink="http://www.w3.org/1999/xlink" xml:space="preserve" xmlns:serif="http://www.serif.com/" style="fill-rule:evenodd;clip-rule:evenodd;stroke-linejoin:round;stroke-miterlimit:2;">
    <path d="M500,125.491C541.269,125.237 576.583,131.718 603.594,144.648C631.741,110.915 660.285,77.237 734.952,50C761.054,119.109 762.621,186.026 760.29,252.595C813.663,441.018 787.153,705.362 705.253,844.559C663.616,915.327 594.164,952.517 500,949.868C405.836,952.517 336.384,915.327 294.747,844.559C212.847,705.362 186.337,441.018 239.71,252.595C237.379,186.026 238.946,119.109 265.048,50C339.715,77.237 368.259,110.915 396.406,144.648C423.417,131.718 458.731,125.237 500,125.491ZM500.296,864.241C598.37,908.629 656.09,869.25 702.835,811.479C646.455,880.028 578.178,893.779 500,844.783C421.822,893.779 353.545,880.028 297.165,811.479C343.91,869.25 401.63,908.629 499.704,864.241L499.703,863.973L500,864.107L500.297,863.973L500.296,864.241ZM500.833,840L500.833,815C500.833,814.54 500.46,814.167 500,814.167C499.54,814.167 499.167,814.54 499.167,815L499.167,840C499.167,840.46 499.54,840.833 500,840.833C500.46,840.833 500.833,840.46 500.833,840ZM504.089,813.589L524.314,793.365C524.639,793.039 524.639,792.511 524.314,792.186C523.989,791.861 523.461,791.861 523.135,792.186L502.911,812.411C502.586,812.736 502.586,813.264 502.911,813.589C503.236,813.914 503.764,813.914 504.089,813.589ZM497.089,812.411L476.865,792.186C476.539,791.861 476.011,791.861 475.686,792.186C475.361,792.511 475.361,793.039 475.686,793.365L495.911,813.589C496.236,813.914 496.764,813.914 497.089,813.589C497.414,813.264 497.414,812.736 497.089,812.411ZM722.219,734.001C711.405,736.888 700.591,738.458 689.777,738.904C678.963,739.35 668.149,738.671 657.335,737.059C679.197,751.343 700.81,749.354 722.219,734.001ZM277.781,734.001C288.595,736.888 299.409,738.458 310.223,738.904C321.037,739.35 331.851,738.671 342.665,737.059C320.803,751.343 299.19,749.354 277.781,734.001ZM286.255,701.345C297.069,704.232 307.883,705.802 318.697,706.248C329.51,706.694 340.324,706.015 351.138,704.403C329.277,718.687 307.664,716.698 286.255,701.345ZM713.745,701.345C702.931,704.232 692.117,705.802 681.303,706.248C670.49,706.694 659.676,706.015 648.862,704.403C670.723,718.687 692.336,716.698 713.745,701.345ZM636.715,443.242C689.663,443.242 692.389,492.001 692.389,552.059C692.389,612.117 682.943,660.876 636.715,660.876C590.486,660.876 581.041,612.117 581.041,552.059C581.041,492.001 583.767,443.242 636.715,443.242ZM363.285,443.242C310.337,443.242 307.611,492.001 307.611,552.059C307.611,612.117 317.057,660.876 363.285,660.876C409.514,660.876 418.959,612.117 418.959,552.059C418.959,492.001 416.233,443.242 363.285,443.242ZM363.285,477.193C326.857,477.193 324.982,510.739 324.982,552.059C324.982,593.379 331.48,626.925 363.285,626.925C395.09,626.925 401.589,593.379 401.589,552.059C401.589,510.739 399.714,477.193 363.285,477.193ZM636.715,477.193C673.143,477.193 675.018,510.739 675.018,552.059C675.018,593.379 668.52,626.925 636.715,626.925C604.91,626.925 598.411,593.379 598.411,552.059C598.411,510.739 600.286,477.193 636.715,477.193ZM763.773,452.818C765.473,472.129 744.001,481.26 733.396,475.413C730.089,473.589 727.568,472.156 731.655,470.189C740.746,465.815 762.101,458.906 763.773,452.818ZM236.227,452.818C234.527,472.129 255.999,481.26 266.604,475.413C269.911,473.589 272.432,472.156 268.345,470.189C259.254,465.815 237.899,458.906 236.227,452.818ZM758.549,409.291C756.805,436.633 740.093,443.48 724.598,442.372C720.832,442.102 719.364,438.301 722.857,435.407C733.933,426.233 748.99,423.396 758.549,409.291ZM241.451,409.291C243.195,436.633 259.907,443.48 275.402,442.372C279.168,442.102 280.636,438.301 277.143,435.407C266.067,426.233 251.01,423.396 241.451,409.291ZM734.174,365.764C736.235,392.971 726.681,406.682 704.576,405.809C700.803,405.66 698.846,402.745 702.835,400.586C716.001,393.459 726.166,381.387 734.174,365.764ZM265.826,365.764C263.765,392.971 273.319,406.682 295.424,405.809C299.197,405.66 301.154,402.745 297.165,400.586C283.999,393.459 273.834,381.387 265.826,365.764ZM495.647,369.246C495.886,360.539 501.883,352.84 497.968,344.871C494.968,338.763 500.427,331.703 503.291,325.72C506.481,320.575 506.325,315.333 504.769,310.05C502.67,304.454 499.687,301.755 493.49,309.579C490.397,314.959 492.129,320.339 497.388,325.72C494.907,332.104 491.119,339.321 494.279,344.871C498.564,352.396 494.629,360.629 495.647,369.246ZM546.138,301.345C534.345,303.011 525.926,303.15 525.246,291.633C525.016,287.745 519.13,288.008 517.887,289.157C516.406,290.526 513.997,292.584 518.281,297.862C524.279,305.252 533.269,306.972 546.138,301.345ZM474.754,280.452C485.024,277.859 486.325,294.767 478.237,292.639C467.589,289.838 460.547,296.018 453.862,303.086C457.123,293.174 461.3,283.848 474.754,280.452ZM499.129,272.654C503.203,272.654 506.51,275.962 506.51,280.035C506.51,284.109 503.203,287.416 499.129,287.416C495.056,287.416 491.749,284.109 491.749,280.035C491.749,275.962 495.056,272.654 499.129,272.654ZM521.763,257.818C515.121,253.816 510.486,266.652 520.022,266.523C528.214,268.463 537.096,265.459 546.138,261.3C530.622,262.407 523.224,261.023 521.763,257.818ZM483.46,252.595C492.613,254.573 484.675,266.203 478.237,261.3C467.79,257.182 457.344,260.237 446.897,264.782C455.405,256.363 464.353,248.464 483.46,252.595ZM504.353,216.032C496.501,224.646 492.885,235.308 492.165,247.371C491.753,254.284 496.915,255.238 499.129,254.773C500.947,254.391 506.199,253.021 504.353,247.371C500.939,236.925 500.718,226.478 504.353,216.032ZM714.312,85.684C681.65,106.88 660.288,134.822 643.578,165.541C670.826,176.721 695.513,195.359 718.905,217.773C702.797,195.056 680.89,174.913 650.603,163.8C667.091,134.237 688.552,109.234 714.312,85.684ZM285.688,85.684C318.35,106.88 339.712,134.822 356.422,165.541C329.174,176.721 304.487,195.359 281.095,217.773C297.203,195.056 319.11,174.913 349.397,163.8C332.909,134.237 311.448,109.234 285.688,85.684Z" style="fill:white;"/>
</svg>
