<?xml version="1.0" encoding="UTF-8" standalone="no"?>
<!DOCTYPE svg PUBLIC "-//W3C//DTD SVG 1.1//EN" "http://www.w3.org/Graphics/SVG/1.1/DTD/svg11.dtd">
<svg width="100%" height="100%" viewBox="0 0 1000 1000" version="1.1" xmlns="http://www.w3.org/2000/svg" xmlns:xlink="http://www.w3.org/1999/xlink" xml:space="preserve" xmlns:serif="http://www.serif.com/" style="fill-rule:evenodd;clip-rule:evenodd;stroke-linejoin:round;stroke-miterlimit:2;">
    <g transform="matrix(1.162,0,0,1.0889,-124.619,-34.4372)">
        <path d="M470.083,297.29C472.217,288.442 474.602,279.414 477.286,270.195C485.512,241.943 504.179,214.599 525.047,184.26C582.552,109.037 649.486,77.687 710.802,77.544L710.803,77.544C750.746,77.451 788.311,90.616 819.312,113.531C902.184,174.788 932.726,292.866 834.91,423.424C823.599,435.971 811.696,447.792 799.321,458.775L798.111,460.463L797.724,460.186C760.095,493.259 718.226,518.562 675.597,532.957C614.307,553.653 553.265,566.775 510.687,587.681C476.786,604.326 448.956,629.582 410.586,667.084L242.205,874.716C238.07,886.941 231.385,896.622 222.459,904.066C197.903,890.913 185.096,878.367 179.125,866.174C182.933,856.228 189.296,848.759 201.28,846.74L376.824,636.11C395.842,604.425 414.222,572.723 426.412,538.762C452.407,466.335 447.619,393.202 469.11,301.386L467.813,300.457L470.083,297.29ZM474.391,452.544L466.134,452.003L453.816,525.593L421.596,611.748L427.641,616.598L500,570.237L576.012,542.877L574.867,535.385C531.005,523.415 495.302,499.138 474.391,452.544ZM629.052,489.928L604.721,523.282C622.826,524.15 642.242,521.89 662.396,516.895L663.868,514.878L629.052,489.928ZM583.098,456.996L547.016,506.461C560.942,515.103 576.789,520.286 594.018,522.382L621.592,484.582L583.098,456.996ZM731.711,489.574L706.757,471.691L676.74,512.812L676.844,512.887C681.051,511.598 685.289,510.196 689.549,508.685C703.839,503.616 717.906,497.282 731.711,489.574ZM634.46,482.513L669.28,507.466L699.297,466.345L664.463,441.382L634.46,482.513ZM536.579,423.659L504.277,467.942C512.102,477.818 521.539,487.133 532.82,495.835C534.966,497.755 537.176,499.568 539.44,501.274L575.638,451.65L536.579,423.659ZM776.735,445.144L743.515,421.338L712.168,464.279L740.406,484.515C745.23,481.595 750.018,478.502 754.771,475.232L776.735,445.144ZM588.507,449.581L627,477.167L657.003,436.036L618.509,408.45L588.507,449.581ZM492.541,392.1L477.272,413.017C481.574,429.761 488.441,445.55 498.556,460.212L529.119,418.313L492.541,392.1ZM669.871,433.967L704.708,458.932L736.055,415.992L701.203,391.016L669.871,433.967ZM784.195,450.49L780.675,455.311C782.222,453.99 783.765,452.649 785.304,451.285L784.195,450.49ZM826.711,408.027L819.148,402.607L789.606,443.077L792.242,444.966C804.012,433.952 815.512,421.665 826.711,408.027ZM541.988,416.245L581.047,444.235L611.049,403.104L571.99,375.114L541.988,416.245ZM748.926,413.925L782.146,437.731L811.688,397.261L778.469,373.455L748.926,413.925ZM623.918,401.036L662.412,428.621L693.743,385.669L655.249,358.084L623.918,401.036ZM497.952,384.688L534.528,410.899L564.53,369.768L527.97,343.567L497.952,384.688ZM706.611,383.601L741.466,408.579L771.009,368.109L736.139,343.121L706.611,383.601ZM471.856,377.277C472.25,384.455 473.034,391.477 474.181,398.348C474.331,399.246 474.488,400.143 474.652,401.041L485.081,386.754L471.856,377.277ZM859.025,357.149L854.631,354L824.56,395.195L832.469,400.863C833.889,399.058 835.303,397.231 836.712,395.382C845.47,382.373 852.901,369.63 859.025,357.149ZM577.399,367.699L616.458,395.69L647.789,352.738L608.73,324.747L577.399,367.699ZM783.88,366.042L817.1,389.849L847.171,348.654L813.951,324.848L783.88,366.042ZM485.032,312.797L475.525,325.82C472.88,339.641 471.605,352.952 471.562,365.775L490.492,379.341L520.51,338.221L485.032,312.797ZM660.657,350.669L699.151,378.255L728.679,337.775L690.186,310.189L660.657,350.669ZM533.381,336.154L569.939,362.353L601.27,319.401L564.728,293.214L533.381,336.154ZM741.548,335.706L776.42,360.696L806.491,319.502L771.605,294.501L741.548,335.706ZM860.043,346.587L862.99,348.699C865.105,343.974 867.029,339.288 868.764,334.64L860.043,346.587ZM614.139,317.332L653.197,345.323L682.726,304.843L643.667,276.852L614.139,317.332ZM878.626,298.23L848.922,276.943L819.363,317.435L852.583,341.241L876.683,308.227C877.435,304.872 878.083,301.539 878.626,298.23ZM490.443,305.384L525.921,330.808L557.268,287.867L521.79,262.443L490.443,305.384ZM695.594,302.774L734.088,330.36L764.145,289.155L725.651,261.569L695.594,302.774ZM777.013,287.086L811.903,312.089L841.462,271.597L806.558,246.583L777.013,287.086ZM570.139,285.801L606.679,311.986L636.207,271.506L599.681,245.331L570.139,285.801ZM502.616,248.703C493.812,266.289 487.037,283.176 482.095,299.401L482.983,300.038L514.33,257.097L502.616,248.703ZM649.075,269.437L688.134,297.428L718.191,256.223L679.132,228.232L649.075,269.437ZM854.333,269.53L879.992,287.918C881.276,275.113 880.97,262.642 879.1,250.504C878.48,246.479 877.776,242.483 876.976,238.511L854.333,269.53ZM731.06,254.154L769.553,281.74L799.098,241.237L760.604,213.652L731.06,254.154ZM527.201,255.03L562.679,280.455L592.221,239.985L556.743,214.56L527.201,255.03ZM874.169,226.224L839.521,201.394L811.966,239.169L846.873,264.184L874.277,226.644L874.169,226.224ZM605.093,237.918L641.615,264.091L671.672,222.886L635.164,196.724L605.093,237.918ZM532.846,197.435C522.868,212.216 514.24,226.55 506.866,240.458L519.741,249.684L549.283,209.214L532.846,197.435ZM684.541,220.818L723.6,248.808L753.144,208.306L714.085,180.315L684.541,220.818ZM766.013,206.237L804.506,233.823L832.061,196.048L793.567,168.462L766.013,206.237ZM562.155,207.147L597.633,232.572L627.704,191.378L592.226,165.953L562.155,207.147ZM640.575,189.311L677.081,215.472L706.625,174.969L670.134,148.819L640.575,189.311ZM844.929,193.979L869.964,211.92C866.251,200.763 861.556,189.878 855.643,179.292L844.929,193.979ZM573.649,152.64C561.611,163.695 549.769,176.161 538.111,189.917L554.695,201.801L584.766,160.607L573.649,152.64ZM719.494,172.9L758.553,200.891L786.107,163.116L747.048,135.126L719.494,172.9ZM798.976,161.048L837.469,188.633L850.54,170.715C842.576,158.128 832.744,145.992 820.627,134.354C820.142,134.016 819.658,133.681 819.178,133.351L798.976,161.048ZM597.638,158.54L633.115,183.965L662.674,143.473L627.196,118.048L597.638,158.54ZM675.546,141.406L712.034,167.554L739.588,129.78L703.114,103.641L675.546,141.406ZM752.457,127.711L791.516,155.702L811.535,128.257C796.882,118.804 782.515,111.358 768.429,105.815L752.457,127.711ZM590.178,153.194L612.728,122.303C601.881,129.195 591.197,137.245 580.665,146.377L590.178,153.194ZM689.777,94.084C670.334,96.097 651.416,101.819 632.971,110.895L668.086,136.06L695.654,98.295L689.777,94.084ZM708.525,96.228L744.997,122.365L759.466,102.529C742.816,96.875 726.544,93.879 710.623,93.354L708.525,96.228Z" style="fill:white;"/>
    </g>
</svg>
