<?xml version="1.0" encoding="UTF-8" standalone="no"?>
<!DOCTYPE svg PUBLIC "-//W3C//DTD SVG 1.1//EN" "http://www.w3.org/Graphics/SVG/1.1/DTD/svg11.dtd">
<svg width="100%" height="100%" viewBox="0 0 1000 1000" version="1.1" xmlns="http://www.w3.org/2000/svg" xmlns:xlink="http://www.w3.org/1999/xlink" xml:space="preserve" xmlns:serif="http://www.serif.com/" style="fill-rule:evenodd;clip-rule:evenodd;stroke-linejoin:round;stroke-miterlimit:2;">
    <g transform="matrix(2.36546,0,0,2.36546,-683.294,-528.31)">
        <path d="M540,552.895C538.394,552.895 537.053,554.12 536.908,555.719L535.908,566.719C535.839,567.479 536.052,568.237 536.506,568.85C537.173,569.749 538.332,570.532 539.896,571.029C541.781,571.629 544.55,571.833 546.419,572.527C555.056,575.735 562.725,580.258 570.455,584.693C570.548,584.747 570.644,584.795 570.742,584.839C576.331,587.314 582.528,585.857 585.403,581.794C586.229,580.627 587.834,578.075 588.244,575.728C588.68,573.231 588.044,570.926 585.692,569.397C579.026,565.063 572.359,560.73 565.692,556.397C565.429,556.225 565.141,556.095 564.838,556.01C559.747,554.582 554.605,553.352 549.258,552.906C549.172,552.899 549.086,552.895 549,552.895L540,552.895ZM473.105,550C473.105,548.285 471.715,546.895 470,546.895L464,546.895C462.285,546.895 460.895,548.285 460.895,550L460.895,565C460.895,565.065 460.897,565.13 460.901,565.195C461.105,568.438 462.009,571.388 464.127,573.821C466.119,576.11 469.256,578.007 474.267,579.02C484.862,582.077 499.914,583.046 516.789,583.104C523.956,584.008 529.555,578.765 532.962,567.932C533.057,567.63 533.105,567.316 533.105,567L533.105,555C533.105,553.285 531.715,551.895 530,551.895L524,551.895C522.285,551.895 520.895,553.285 520.895,555L520.895,564.61C520.395,566.523 519.795,568.086 519.031,569.256C518.31,570.36 517.466,571.028 516.313,570.911C516.247,570.904 516.181,570.9 516.115,570.897L489.306,569.904C483.167,568.917 478.473,568.572 475.616,566.83C473.461,565.517 473.086,564.054 473.105,562.029L473.105,550ZM477.325,550.912C476.496,550.825 475.666,551.075 475.023,551.606C474.38,552.137 473.977,552.904 473.906,553.735C473.209,561.883 476.28,565.005 480.235,566.009C480.308,566.028 480.381,566.044 480.455,566.057C489.051,567.59 499.275,568.672 511.827,569.101C514.605,569.315 516.417,568.099 517.398,565.676C518.201,563.693 518.191,560.139 517.019,555.273C516.683,553.878 515.435,552.895 514.001,552.895C501.856,552.892 489.628,552.207 477.325,550.912ZM619.756,546.484C620.989,545.559 621.357,543.868 620.619,542.514C619.881,541.16 618.262,540.553 616.815,541.088C605.15,545.401 592.92,549.171 578.623,550.918C577.421,551.065 576.414,551.898 576.043,553.051C575.673,554.205 576.008,555.468 576.9,556.287C579.19,558.389 582.365,560.331 586.982,561.933C587.548,562.13 588.159,562.158 588.742,562.015C600.415,559.144 610.458,553.459 619.756,546.484ZM395.207,527.139C393.732,526.517 392.025,527.118 391.266,528.528C390.507,529.939 390.945,531.695 392.277,532.583C408.203,543.204 426.04,551.573 451.946,560.921C452.894,561.263 453.949,561.123 454.776,560.547C455.602,559.971 456.098,559.029 456.105,558.021C456.128,554.741 455.891,551.462 454.995,548.182C454.686,547.051 453.766,546.19 452.617,545.957C431.653,541.705 413.161,534.715 395.207,527.139ZM534.104,320C565.736,303.784 597.348,287.335 630,283.384C649.251,305.686 645.748,332.615 640,360C687.217,397.344 692.392,429.574 690,458.63C684.52,525.194 596.11,550.322 540,549.395C413.575,547.308 322.413,506 330,390C318.589,360.613 311.534,338.124 310,310C334.7,294.94 357.365,307.266 380,320C431.368,299.631 482.736,298.815 534.104,320ZM548.829,433.286C567.35,449.443 576.417,470.482 557.005,482.75C542.129,492.151 533.115,487.712 510,458.142C526.603,456.64 540.591,450.294 548.829,433.286ZM500.238,461.871C477.29,466.437 463.104,462.662 453,455C456.726,448.602 476.797,449.46 487,452.889C491.791,454.499 496.245,457.342 500.238,461.871ZM484.822,355.983C499.511,379.733 469.189,389.485 460,392.592C445.678,397.434 411.271,390.418 413,367C382.361,392.304 369.886,416.758 378.295,430C385.564,441.448 431.232,475.763 465,433.286C507,455.432 528.972,460.826 542.165,422.388C546.549,409.617 526.194,367.974 484.822,355.983ZM582,386L568,378C567.26,390.785 555.132,390.01 551,388.749C546.763,387.456 538.119,381.678 543,370L526,366C525.515,367.832 525.033,369.664 526,372C532.26,379.897 537.77,388.346 543,397C563.205,405.24 577.263,403.32 582,386ZM381.36,387.045C381.36,387.045 379.519,384.758 380,385.5C378.123,383.95 376.854,382.083 376,380C371.266,381.783 366.622,385.182 362,389C363.313,394.5 366.545,398.69 374,400L381.36,387.045ZM314,311C314.104,335.885 323.407,357.836 334,385C336.178,379.683 339.151,374.673 343,370C339.263,365.822 336.614,361.546 337,357C340,354.649 343,354.89 346,356C344.034,351.544 342.092,347.082 343,342C348.067,340.785 352.483,342.629 357,344C348.711,328.578 337.851,315.038 314,311ZM360,378C375.153,368.536 390.797,361.428 407,357C402.076,351.754 396.566,350.379 390.602,352C381.332,354.521 365.913,363.306 360,378ZM583.321,376.387C574.145,371.572 564.788,367.518 555.238,364.272C545.688,361.026 535.946,358.587 526,357C548.636,340.973 568.225,344.362 583.321,376.387ZM413,367C413.19,351.456 436.548,345.354 449,343.379C460.538,341.55 480.816,344.605 485,356C474.213,347.553 461.117,344.611 449.916,346C437.046,347.596 418.889,355.468 413,367ZM468.5,352.321C473.191,352.321 477,355.386 477,359.161C477,362.935 473.191,366 468.5,366C463.809,366 460,362.935 460,359.161C460,355.386 463.809,352.321 468.5,352.321ZM636,357C642.526,331.769 644.039,307.573 628,287C612.608,290.945 599.189,306.781 586,324C593.562,320.534 601.225,317.328 610,317C609.536,321.762 608.131,326.421 606,331C608.955,330.271 611.948,330.68 615,332C615.566,334.333 614.91,336.667 614,339C621.943,343.906 629.285,349.891 636,357Z" style="fill:white;"/>
    </g>
</svg>
