<?xml version="1.0" encoding="UTF-8" standalone="no"?>
<!DOCTYPE svg PUBLIC "-//W3C//DTD SVG 1.1//EN" "http://www.w3.org/Graphics/SVG/1.1/DTD/svg11.dtd">
<svg width="100%" height="100%" viewBox="0 0 1000 1000" version="1.1" xmlns="http://www.w3.org/2000/svg" xmlns:xlink="http://www.w3.org/1999/xlink" xml:space="preserve" xmlns:serif="http://www.serif.com/" style="fill-rule:evenodd;clip-rule:evenodd;stroke-linejoin:round;stroke-miterlimit:2;">
    <g transform="matrix(2.1499,0,0,2.1499,-272.022,-465.977)">
        <path d="M298.909,646.993C288.962,642.502 278.992,636.849 269,630C173.037,550.443 176.087,463.032 250,370C241.96,349.441 253.104,329.611 270,310C261.612,339.685 273.724,350.792 310,340C296.231,320.087 296.646,305.63 320,300C329.044,269.513 347.819,252.414 370,240C375.728,283.057 392.99,314.018 415,340C413.781,331.203 411.105,317.464 420,314.847C433.396,310.907 435.056,297.576 450,290C448.114,307.568 442.574,328.009 453.71,340C483.524,372.103 495.554,401.303 500,430C539.995,510.292 528.791,578.273 450,630C426.769,645.195 403.441,654.905 380.001,658.624C422.2,636.543 460.59,607.028 490,560C498.767,532.57 494.469,505.964 480,480C472.685,456.577 438.896,433.233 436,440C429.213,410.756 417.824,396.384 396,385.396C396,385.396 369.582,365.597 359.096,360C342.921,360.381 314.096,388.236 320,395.486C303.983,397.546 293.114,403.166 284,410C277.254,411.365 257.057,444.415 250,460C239.084,488.802 232.944,520.459 240,560C248.775,588.999 267.627,617.998 298.909,646.993ZM378.69,603.181C380.805,592.747 330.262,589.927 330,600C329.801,607.648 347.658,603.481 355,604.024C368.055,604.988 377.712,608.004 378.69,603.181ZM429,505C443.902,505 456,517.098 456,532C456,546.902 443.902,559 429,559C414.098,559 402,546.902 402,532C402,517.098 414.098,505 429,505ZM286,502C300.902,502 313,514.098 313,529C313,543.902 300.902,556 286,556C271.098,556 259,543.902 259,529C259,514.098 271.098,502 286,502ZM429,526C432.311,526 435,528.689 435,532C435,535.311 432.311,538 429,538C425.689,538 423,535.311 423,532C423,528.689 425.689,526 429,526ZM286,523C289.311,523 292,525.689 292,529C292,532.311 289.311,535 286,535C282.689,535 280,532.311 280,529C280,525.689 282.689,523 286,523Z" style="fill:white;"/>
    </g>
</svg>
