<?xml version="1.0" encoding="UTF-8" standalone="no"?>
<!DOCTYPE svg PUBLIC "-//W3C//DTD SVG 1.1//EN" "http://www.w3.org/Graphics/SVG/1.1/DTD/svg11.dtd">
<svg width="100%" height="100%" viewBox="0 0 1000 1000" version="1.1" xmlns="http://www.w3.org/2000/svg" xmlns:xlink="http://www.w3.org/1999/xlink" xml:space="preserve" xmlns:serif="http://www.serif.com/" style="fill-rule:evenodd;clip-rule:evenodd;stroke-linejoin:round;stroke-miterlimit:2;">
    <g transform="matrix(2.79621,0,0,2.79621,-898.104,-892.695)">
        <path d="M507,603C525.45,625.341 548.255,637.596 570,635.991C586.186,634.797 605.739,632.491 620,608C642.896,594.379 653.852,576.139 658.446,560C665.527,535.126 657.695,506.199 632.194,484.572C638.025,443.817 630.369,411.419 605,390C621.732,425.166 621.217,460.161 605,495C670.954,551.24 572.2,648.905 507,603ZM493,603C474.55,625.341 451.745,637.596 430,635.991C413.814,634.797 394.261,632.491 380,608C357.104,594.379 346.148,576.139 341.554,560C334.473,535.126 342.305,506.199 367.806,484.572C361.975,443.817 369.631,411.419 395,390C378.268,425.166 378.783,460.161 395,495C329.046,551.24 427.8,648.905 493,603ZM500.265,589.999C522.772,589.857 541,571.54 541,549C541,526.46 522.772,508.143 500.265,508.001L500,508C477.371,508 459,526.371 459,549C459,571.629 477.371,590 500,590L500.265,589.999ZM499.214,595.147C432.527,607.473 400.767,572.338 399.463,530C398.721,505.916 420.617,470.84 449.133,440C468.152,419.43 485.455,391.8 500,360L499.658,361.039C489.883,390.673 480.704,420.619 465.042,444.148C442.977,477.294 429.073,506.653 427.011,530C424.084,563.156 447.873,586.949 500,595C463.139,586.225 444.936,562.707 447.313,530C449.469,500.341 463.022,469.548 478.312,436.875C488.679,414.723 494.148,388.582 499.659,361.664L500,360L500.341,361.664C505.852,388.582 511.321,414.723 521.688,436.875C536.978,469.548 550.531,500.341 552.687,530C555.064,562.707 536.861,586.225 500,595C552.127,586.949 575.916,563.156 572.989,530C570.927,506.653 557.023,477.294 534.958,444.148C519.296,420.619 510.117,390.673 500.342,361.039L500,360C514.545,391.8 531.848,419.43 550.867,440C579.383,470.84 601.279,505.916 600.537,530C599.228,572.504 567.224,607.748 500,595L499.214,595.147Z" style="fill:white;"/>
    </g>
</svg>
