<?xml version="1.0" encoding="UTF-8" standalone="no"?>
<!DOCTYPE svg PUBLIC "-//W3C//DTD SVG 1.1//EN" "http://www.w3.org/Graphics/SVG/1.1/DTD/svg11.dtd">
<svg width="100%" height="100%" viewBox="0 0 1000 1000" version="1.1" xmlns="http://www.w3.org/2000/svg" xmlns:xlink="http://www.w3.org/1999/xlink" xml:space="preserve" xmlns:serif="http://www.serif.com/" style="fill-rule:evenodd;clip-rule:evenodd;stroke-linejoin:round;stroke-miterlimit:2;">
    <g transform="matrix(6.46535,0,0,6.46535,-2732.67,-2615.83)">
        <path d="M527,511.484C527.692,511.484 528.292,511.006 528.447,510.331C530.172,502.793 528.517,498.095 530.719,487.297C532.593,478.11 537.607,470.352 539.345,466.627C542.735,459.361 540.745,452.007 535.507,445.818C528.059,437.018 513.927,430.616 500.321,430.517L500,430.516C486.296,430.516 472,436.949 464.493,445.818C459.255,452.007 457.265,459.361 460.655,466.627C462.393,470.352 467.407,478.11 469.281,487.297C471.483,498.095 469.828,502.793 471.553,510.331C471.708,511.006 472.308,511.484 473,511.484L527,511.484ZM473,510C471.278,502.474 472.934,497.782 470.735,487C468.832,477.671 463.765,469.783 462,466C454.166,449.205 477.898,432 500,432L500.259,432.001C522.287,432.134 545.804,449.27 538,466C536.235,469.783 531.168,477.671 529.265,487C527.066,497.782 528.722,502.474 527,510L473,510ZM499.687,488.272C499.376,488.238 499.069,488.204 498.765,488.168C496.54,487.905 494.53,487.534 492.678,487.11C491.424,486.822 490.243,486.516 489.121,486.174C486.135,485.264 483.569,484.142 481.189,482.832C480.545,482.452 479.712,482.666 479.332,483.311C478.952,483.955 479.166,484.788 479.811,485.168C482.281,486.727 484.943,488.152 488.111,489.26C489.311,489.68 490.583,490.054 491.944,490.357C493.924,490.798 496.088,491.101 498.474,491.267C498.973,491.302 499.481,491.33 500,491.35L500.387,491.333C500.773,491.315 501.152,491.293 501.526,491.267C503.912,491.101 506.076,490.798 508.056,490.357C509.417,490.054 510.689,489.68 511.889,489.26C515.057,488.152 517.719,486.727 520.189,485.168C520.834,484.788 521.048,483.955 520.668,483.311C520.288,482.666 519.455,482.452 518.811,482.832C516.431,484.142 513.865,485.264 510.879,486.174C509.757,486.516 508.576,486.822 507.322,487.11C505.47,487.534 503.46,487.905 501.235,488.168C500.83,488.216 500.419,488.261 500,488.304L499.687,488.272ZM559.615,481.818C559.623,481.813 559.628,481.822 559.632,481.835C559.636,481.847 559.639,481.862 559.643,481.87L559.615,481.818ZM440.385,481.818C440.377,481.813 440.372,481.822 440.368,481.835C440.364,481.847 440.361,481.862 440.357,481.87L440.385,481.818ZM517,472L517,475C517,477.553 514,477.553 514,475L514,472C514,469.334 517,469.334 517,472ZM483,472L483,475C483,477.553 486,477.553 486,475L486,472C486,469.334 483,469.334 483,472ZM484.909,514.497C484.507,515.786 484.227,517.243 483.988,518.829C483.746,520.441 483.592,522.187 483.43,524.034C483.306,525.443 483.176,526.908 483.065,528.419C484.397,528.6 485.468,529.27 486,530.645C487.947,535.684 483.099,537.108 473,536C469.566,535.623 472.13,532.509 475.896,530.377C477.202,529.638 478.653,529.016 480.048,528.668C480.026,527.401 480.028,526.164 480.077,524.964C480.144,523.31 480.285,521.727 480.509,520.242C480.828,518.117 481.303,516.187 481.908,514.497L473,514.497C470.903,514.497 469.084,513.048 468.616,511.003C466.886,503.442 468.537,498.73 466.328,487.899C465.831,485.459 465.101,483.125 464.268,480.948C463.298,481.327 462.974,481.342 461.342,481.866C459.317,482.517 457.205,483.066 454.973,483.44C453.706,483.653 452.4,483.802 451.053,483.891C448.34,484.069 445.46,483.994 442.365,483.651C442.141,483.9 441.835,484.172 441.446,484.425C440.267,485.191 438.241,485.922 435.999,485.474C434.242,485.123 432.313,484.074 430.618,481.66C430.253,481.173 430.353,480.482 430.84,480.118C431.327,479.753 432.018,479.853 432.382,480.34C433.728,482.031 435.144,482.762 436.441,482.959C437.685,483.147 438.797,482.801 439.576,482.39C439.953,482.19 440.561,481.955 440.387,481.819L440.385,481.818C440.754,481.113 441.063,479.777 440.236,478.351C439.679,477.39 438.682,476.4 437.002,475.483C436.459,475.208 436.242,474.544 436.517,474.002C436.792,473.459 437.456,473.242 437.998,473.517C440.918,474.892 442.316,476.597 442.945,478.142C443.44,479.356 443.462,480.513 443.29,481.471C445.507,481.571 447.601,481.519 449.597,481.372C451.311,481.246 452.949,481.031 454.533,480.772C456.652,480.425 458.671,479.986 460.616,479.443C462.206,479 462.354,478.818 463.231,478.419C461.224,473.825 458.962,470.125 457.924,467.901C454.015,459.52 456.151,451.01 462.193,443.871C470.192,434.421 485.398,427.503 500,427.503L500.342,427.504C514.839,427.611 529.87,434.494 537.807,443.871C543.849,451.01 545.985,459.52 542.076,467.901C541.038,470.125 538.776,473.825 536.769,478.419C537.646,478.818 537.794,479 539.384,479.443C541.329,479.986 543.348,480.425 545.467,480.772C547.051,481.031 548.689,481.246 550.403,481.372C552.399,481.519 554.493,481.571 556.71,481.471C556.538,480.513 556.56,479.356 557.055,478.142C557.684,476.597 559.082,474.892 562.002,473.517C562.544,473.242 563.208,473.459 563.483,474.002C563.758,474.544 563.541,475.208 562.998,475.483C561.318,476.4 560.321,477.39 559.764,478.351C558.937,479.777 559.246,481.113 559.615,481.818L559.613,481.819C559.439,481.955 560.047,482.19 560.424,482.39C561.203,482.801 562.315,483.147 563.559,482.959C564.856,482.762 566.272,482.031 567.618,480.34C567.982,479.853 568.673,479.753 569.16,480.118C569.647,480.482 569.747,481.173 569.382,481.66C567.687,484.074 565.758,485.123 564.001,485.474C561.759,485.922 559.733,485.191 558.554,484.425C558.165,484.172 557.859,483.9 557.635,483.651C554.54,483.994 551.66,484.069 548.947,483.891C547.6,483.802 546.294,483.653 545.027,483.44C542.795,483.066 540.683,482.517 538.658,481.866C537.026,481.342 536.702,481.327 535.732,480.948C534.899,483.125 534.169,485.459 533.672,487.899C531.463,498.73 533.114,503.442 531.384,511.003C530.916,513.048 529.097,514.497 527,514.497L518.092,514.497C518.697,516.187 519.172,518.117 519.491,520.242C519.715,521.727 519.856,523.31 519.923,524.964C519.972,526.164 519.974,527.401 519.952,528.668C521.347,529.016 522.798,529.638 524.104,530.377C527.87,532.509 530.434,535.623 527,536C516.901,537.108 512.053,535.684 514,530.645C514.532,529.27 515.603,528.6 516.935,528.419C516.824,526.908 516.694,525.443 516.57,524.034C516.408,522.187 516.254,520.441 516.012,518.829C515.773,517.243 515.493,515.786 515.091,514.497L484.909,514.497Z" style="fill:white;"/>
    </g>
</svg>
