<?xml version="1.0" encoding="UTF-8" standalone="no"?>
<!DOCTYPE svg PUBLIC "-//W3C//DTD SVG 1.1//EN" "http://www.w3.org/Graphics/SVG/1.1/DTD/svg11.dtd">
<svg width="100%" height="100%" viewBox="0 0 1000 1000" version="1.1" xmlns="http://www.w3.org/2000/svg" xmlns:xlink="http://www.w3.org/1999/xlink" xml:space="preserve" xmlns:serif="http://www.serif.com/" style="fill-rule:evenodd;clip-rule:evenodd;stroke-linejoin:round;stroke-miterlimit:2;">
    <g transform="matrix(1.01124,0,0,1.01124,-20.7865,14.6067)">
        <path d="M70,730L70,700L110,700L295,480L180,260L80,260L80,230L340,230L340,260L260,260C251.271,264.731 246.1,270.738 250,280L330,430L460,280C457.993,268.739 453.504,259.925 440,260L380,260L380,230L650,230L650,260L590,260C576.496,259.925 572.007,268.739 570,280L700,430L780,280C783.9,270.738 778.729,264.731 770,260L690,260L690,230L950,230L950,260L850,260L735,480L920,700L960,700L960,730L70,730ZM687,570L626.315,687.454C620.728,695.658 619.635,701.21 630,700L786,700C792.437,700.765 793.915,697.885 792,692.511L700,570.041C694.904,563.651 691.363,565.508 687,570ZM343,570L403.685,687.454C409.272,695.658 410.365,701.21 400,700L244,700C237.563,700.765 236.085,697.885 238,692.511L330,570.041C335.096,563.651 338.637,565.508 343,570ZM570,700L660,530L515,356L370,530L460,700L570,700Z" style="fill:white;"/>
    </g>
</svg>
