<?xml version="1.0" encoding="UTF-8" standalone="no"?>
<!DOCTYPE svg PUBLIC "-//W3C//DTD SVG 1.1//EN" "http://www.w3.org/Graphics/SVG/1.1/DTD/svg11.dtd">
<svg width="100%" height="100%" viewBox="0 0 1000 1000" version="1.1" xmlns="http://www.w3.org/2000/svg" xmlns:xlink="http://www.w3.org/1999/xlink" xml:space="preserve" xmlns:serif="http://www.serif.com/" style="fill-rule:evenodd;clip-rule:evenodd;stroke-linejoin:round;stroke-miterlimit:2;">
    <g transform="matrix(1.65551,0,0,1.65551,-261.537,-344.613)">
        <path d="M417.899,342.785C417.212,349.571 416.747,356.357 416.555,363.141C416.492,365.372 417.118,367.52 418.288,369.328C417.103,371.133 416.464,373.281 416.515,375.511C416.522,375.857 416.531,376.201 416.54,376.545C416.575,377.822 416.835,379.083 417.309,380.268C418.448,383.116 418.515,387.091 418.283,391.137C418.094,394.422 417.193,398.587 416.31,402.02C335.301,412.859 273.709,466.072 273.709,530C273.709,601.749 351.293,660 446.854,660C451.279,660 455.665,659.875 460,659.63C464.335,659.875 468.721,660 473.146,660C568.707,660 646.291,601.749 646.291,530C646.291,477.717 605.094,432.601 545.753,411.966C545.443,410.039 545.191,407.863 545.255,406.132C545.404,402.152 545.988,398.033 547.787,395.395C549.558,392.797 550.08,389.617 549.344,386.675C551.691,385.07 553.361,382.569 553.884,379.664C555.259,372.041 556.314,364.468 557.164,356.795C639.319,388.753 671.064,458.805 672.759,500C679.403,661.458 637.144,782 460,782L458.964,781.999C282.687,781.518 240.611,661.135 247.241,500C249.273,450.627 294.469,359.804 417.899,342.785ZM490.179,460.641C484.526,513.705 479.157,566.761 474.232,619.82C472.135,619.908 470.035,619.968 467.939,620C473.375,561.383 479.354,502.761 485.661,444.128C487.758,444.221 489.851,444.275 491.93,444.287C491.538,447.935 491.147,451.582 490.757,455.229L491.941,444.287C494.978,444.305 497.989,444.235 500.95,444.075L500.659,449.386C496.357,505.669 492.441,562.106 488.975,618.707C485.257,619.116 481.506,619.428 477.739,619.645L490.727,455.507L490.179,460.641ZM474.757,443.29C476.334,443.462 477.914,443.612 479.495,443.74C479.993,443.781 480.492,443.819 480.988,443.855C473.005,502.328 465.858,561.051 459.335,619.972C457.246,619.928 455.159,619.856 453.071,619.757C459.603,560.719 466.762,501.877 474.757,443.29ZM467.636,442.363C469.686,442.674 471.754,442.949 473.831,443.186L449.573,619.565C447.484,619.435 445.401,619.278 443.329,619.096L467.636,442.363ZM542.138,432.092L573.918,578.382C572.365,580.557 570.682,582.638 568.879,584.628L568.035,580.746L568.817,584.697C567.144,586.539 565.366,588.302 563.493,589.99L550.052,522.038L561.696,591.56C559.903,593.08 558.03,594.535 556.089,595.92L555.931,594.981L556.079,595.927C554.235,597.243 552.324,598.501 550.344,599.708L530.576,473.222L547.662,601.286C545.753,602.37 543.791,603.404 541.772,604.394L525.602,483.205C529.533,524.238 533.827,566.335 538.186,606.076C536.223,606.958 534.219,607.795 532.175,608.59C526.998,561.504 521.907,511.036 517.399,462.878C519.119,512.342 520.965,561.896 523.196,611.732C521.166,612.368 519.108,612.966 517.021,613.527C516.258,596.564 515.541,579.635 514.859,562.733C515.077,579.792 515.27,596.862 515.431,613.945C513.375,614.476 511.294,614.971 509.195,615.429C508.677,560.195 507.832,505.085 506.883,450.019C503.844,505.742 501.19,561.528 498.911,617.37C496.825,617.704 494.723,618.006 492.619,618.274C494.916,561.875 497.594,505.533 500.667,449.244L500.958,444.075C511.424,443.508 521.266,441.807 529.444,438.82C534.311,437.042 538.599,434.799 542.138,432.092ZM447.738,438.043C452.651,439.471 457.867,440.678 463.246,441.639C453.821,500.175 444.184,558.948 434.198,618.112C432.122,617.847 430.058,617.556 428.007,617.238C437.573,560.567 446.818,504.256 455.862,448.178L423.012,616.407C420.949,616.039 418.904,615.645 416.874,615.224L429.535,550.388C424.734,571.254 419.778,592.083 414.577,612.853L414.129,614.635C412.077,614.18 410.047,613.698 408.048,613.19C422.739,554.807 435.302,496.428 447.738,438.043ZM417.851,422.75C421.182,426.041 425.653,429.062 431.002,431.7C435.493,433.916 440.611,435.885 446.148,437.57L404.651,612.294C402.617,611.739 400.613,611.155 398.642,610.545L412.917,550.441L397.543,610.2C395.528,609.561 393.548,608.892 391.605,608.195L433.465,445.484C415.15,497.682 397.014,550.13 379.298,603.152C377.357,602.245 375.473,601.306 373.649,600.335C385.671,564.367 397.886,528.662 410.217,493.125C396.955,528.119 383.51,563.119 369.714,598.131C367.845,597.032 366.051,595.895 364.339,594.722C383.297,546.587 401.595,498.466 419.674,450.351C400.372,497.636 381.387,545.277 363.45,594.106C358.465,590.598 354.198,586.779 350.804,582.674L358.939,563.862L350.393,582.171C348.856,580.261 347.503,578.286 346.356,576.252L346.082,576.589C370.348,523.97 394.109,473.326 417.851,422.75ZM427.331,375.267C459.845,392.079 501.239,396.463 538.848,389.3C531.914,399.47 533.559,423.11 540.639,425.191C537.253,428.449 532.246,430.098 527.299,432.949C519.298,437.562 470.012,438.393 468.487,436.174L468.519,435.944L464.238,435.473L464.304,435.166L464.289,435.159L464.238,435.473C458.957,434.528 453.842,433.337 449.041,431.922L447.593,431.485C442.549,429.93 437.881,428.125 433.767,426.095C428.162,423.33 423.595,420.205 420.697,416.687C425.864,417.099 432.443,388.977 427.355,376.252C427.346,375.924 427.338,375.596 427.331,375.267ZM427.37,363.447C428.409,326.716 437.704,289.984 446.499,253.252C446.499,225.851 552.999,240.701 552.999,262.252C549.022,309.277 549.504,342.982 543.237,377.745C504.417,386.729 460.273,382.469 427.37,363.447Z" style="fill:white;"/>
    </g>
</svg>
