<?xml version="1.0" encoding="UTF-8" standalone="no"?>
<!DOCTYPE svg PUBLIC "-//W3C//DTD SVG 1.1//EN" "http://www.w3.org/Graphics/SVG/1.1/DTD/svg11.dtd">
<svg width="100%" height="100%" viewBox="0 0 1000 1000" version="1.1" xmlns="http://www.w3.org/2000/svg" xmlns:xlink="http://www.w3.org/1999/xlink" xml:space="preserve" xmlns:serif="http://www.serif.com/" style="fill-rule:evenodd;clip-rule:evenodd;stroke-linejoin:round;stroke-miterlimit:2;">
    <g transform="matrix(1,0,0,1,0,85)">
        <path d="M180,107.23L192.253,116.37L219.117,238.581C199.159,240.093 188.361,253.482 189.756,282.683C189.756,282.683 194.371,276.816 197.609,275.403C202.73,273.168 220.478,269.275 220.478,269.275C225.249,274.058 228.932,279.733 230.229,287.368L225.566,324.852L245.758,345.324L353.168,746.183L392.74,820L390.102,736.286L282.692,335.427L289.943,307.602L267.163,277.471C264.469,270.211 264.821,263.454 266.561,256.927C266.561,256.927 283.878,251.424 289.43,250.8C292.941,250.404 299.871,253.178 299.871,253.178C286.479,227.191 270.433,220.995 252.393,229.665L214.552,110.395L220.594,96.353L186.579,50.597L180,107.23ZM820,107.23L807.747,116.37L780.883,238.581C800.841,240.093 811.639,253.482 810.244,282.683C810.244,282.683 805.629,276.816 802.391,275.403C797.27,273.168 779.522,269.275 779.522,269.275C774.751,274.058 771.068,279.733 769.771,287.368L774.434,324.852L754.242,345.324L646.832,746.183L607.26,820L609.898,736.286L717.308,335.427L710.057,307.602L732.837,277.471C735.531,270.211 735.179,263.454 733.439,256.927C733.439,256.927 716.122,251.424 710.57,250.8C707.059,250.404 700.129,253.178 700.129,253.178C713.521,227.191 729.567,220.995 747.607,229.665L785.448,110.395L779.406,96.353L813.421,50.597L820,107.23ZM521.013,63L511.543,75L517.225,200C536.894,196.294 550.79,206.432 557,235C557,235 551.024,230.527 547.53,230C542.005,229.167 523.854,230 523.854,230C520.484,235.854 518.395,242.29 519.119,250L533.324,285L519.119,310L519.119,725L500,806.544L480.881,725L480.881,310L466.676,285L480.881,250C481.605,242.29 479.516,235.854 476.146,230C476.146,230 457.995,229.167 452.47,230C448.976,230.527 443,235 443,235C449.21,206.432 463.106,196.294 482.775,200L488.457,75L478.987,63L500,10L521.013,63Z" style="fill:white;"/>
    </g>
</svg>
