<?xml version="1.0" encoding="UTF-8" standalone="no"?>
<!DOCTYPE svg PUBLIC "-//W3C//DTD SVG 1.1//EN" "http://www.w3.org/Graphics/SVG/1.1/DTD/svg11.dtd">
<svg width="100%" height="100%" viewBox="0 0 1000 1000" version="1.1" xmlns="http://www.w3.org/2000/svg" xmlns:xlink="http://www.w3.org/1999/xlink" xml:space="preserve" xmlns:serif="http://www.serif.com/" style="fill-rule:evenodd;clip-rule:evenodd;stroke-linejoin:round;stroke-miterlimit:2;">
    <g transform="matrix(1.05873,0,0,1.05873,-29.364,-29.364)">
        <path d="M477.932,221.562L494.363,145.371L591.9,81.401L655.329,171.514L637.492,250.062L654.051,231.759L752.357,223.007L757.57,316.101L740.33,334.771L821.339,306.153L925.038,352.208L872.283,452.664L792.23,480.057L816.334,483.846L870.002,560.092L787.474,614.218L761.926,609.935L825.618,661.254L831.78,771.279L715.596,781.623L653.519,730.48L661.101,751.895L616.463,836.893L528.722,797.925L522.068,778.438L505.637,854.629L408.1,918.599L344.671,828.486L362.508,749.938L345.949,768.241L247.643,776.993L242.43,683.899L259.67,665.229L178.661,693.847L74.962,647.792L127.717,547.336L207.77,519.943L183.666,516.154L129.998,439.908L212.526,385.782L238.074,390.065L174.382,338.746L168.22,228.721L284.404,218.377L346.481,269.52L338.899,248.105L383.537,163.107L471.278,202.075L477.932,221.562ZM480.828,258.109L495.103,191.92L579.837,136.346L634.94,214.631L619.445,282.868L633.831,266.968L719.233,259.364L723.762,340.239L708.784,356.459L779.16,331.597L869.248,371.607L823.418,458.878L753.872,482.675L774.812,485.966L821.436,552.204L749.741,599.226L727.546,595.505L782.878,640.088L788.231,735.671L687.298,744.657L633.368,700.227L639.955,718.832L601.177,792.673L524.952,758.82L519.172,741.891L504.897,808.08L420.163,863.654L365.06,785.369L380.555,717.132L366.169,733.032L280.767,740.636L276.238,659.761L291.216,643.541L220.84,668.403L130.752,628.393L176.582,541.122L246.128,517.325L225.188,514.034L178.564,447.796L250.259,400.774L272.454,404.495L217.122,359.912L211.769,264.329L312.702,255.343L366.632,299.773L360.045,281.168L398.823,207.327L475.048,241.18L480.828,258.109ZM481.679,307.11L491.427,254.636L554.627,211.729L597.534,274.928L586.894,329.013L597.522,316.58L661.984,311.877L666.687,376.339L655.617,389.016L708.444,370.334L777.202,403.613L743.924,472.371L691.709,490.219L707.596,493.17L743.9,546.644L690.426,582.949L673.584,579.636L716.131,616.006L721.69,692.192L645.504,697.751L604.02,661.524L609.295,676.441L581.137,734.618L522.96,706.461L518.321,692.89L508.573,745.364L445.373,788.271L402.466,725.072L413.106,670.987L402.478,683.42L338.016,688.123L333.313,623.661L344.383,610.984L291.556,629.666L222.798,596.387L256.076,527.629L308.291,509.781L292.404,506.83L256.1,453.356L309.574,417.051L326.416,420.364L283.869,383.994L278.31,307.808L354.496,302.249L395.98,338.476L390.705,323.559L418.863,265.382L477.04,293.539L481.679,307.11Z" style="fill:white;"/>
    </g>
</svg>
