<?xml version="1.0" encoding="UTF-8" standalone="no"?>
<!DOCTYPE svg PUBLIC "-//W3C//DTD SVG 1.1//EN" "http://www.w3.org/Graphics/SVG/1.1/DTD/svg11.dtd">
<svg width="100%" height="100%" viewBox="0 0 1000 1000" version="1.1" xmlns="http://www.w3.org/2000/svg" xmlns:xlink="http://www.w3.org/1999/xlink" xml:space="preserve" xmlns:serif="http://www.serif.com/" style="fill-rule:evenodd;clip-rule:evenodd;stroke-linejoin:round;stroke-miterlimit:2;">
    <g transform="matrix(30.375,0,0,30.375,-14176.7,-16033.5)">
        <path d="M478,537C474.807,540.23 481.268,544.03 481,548C480.745,551.779 474.083,553.044 479,558C482.974,562.005 490.707,554.655 491,547C491.34,538.111 481.942,533.012 478,537ZM491.588,537.28C492.127,537.379 492.573,538.218 492.27,539.069C491.805,540.376 491.539,540.598 491,540.5C490.461,540.402 490.385,539.934 490.318,538.712C490.268,537.81 491.049,537.182 491.588,537.28ZM489.013,533.013C489.694,533.137 490.259,534.199 489.876,535.275C489.288,536.93 488.951,537.211 488.269,537.086C487.587,536.962 487.491,536.371 487.405,534.824C487.342,533.683 488.331,532.888 489.013,533.013ZM475.12,529.578C476.077,529.217 477.599,530.13 477.934,531.784C478.449,534.325 478.236,534.937 477.279,535.299C476.322,535.66 475.75,534.985 474.465,533.093C473.517,531.698 474.163,529.94 475.12,529.578ZM484.39,530.54C485.139,530.519 485.975,531.513 485.812,532.738C485.563,534.619 485.269,534.992 484.521,535.014C483.772,535.036 483.537,534.433 483.099,532.817C482.775,531.625 483.642,530.562 484.39,530.54ZM480.319,529.623C481.049,529.503 481.997,530.366 482,531.586C482.004,533.46 481.766,533.864 481.036,533.984C480.306,534.104 479.997,533.545 479.355,532.021C478.881,530.898 479.589,529.743 480.319,529.623Z" style="fill:white;"/>
    </g>
</svg>
