<?xml version="1.0" encoding="UTF-8" standalone="no"?>
<!DOCTYPE svg PUBLIC "-//W3C//DTD SVG 1.1//EN" "http://www.w3.org/Graphics/SVG/1.1/DTD/svg11.dtd">
<svg width="100%" height="100%" viewBox="0 0 1000 1000" version="1.1" xmlns="http://www.w3.org/2000/svg" xmlns:xlink="http://www.w3.org/1999/xlink" xml:space="preserve" xmlns:serif="http://www.serif.com/" style="fill-rule:evenodd;clip-rule:evenodd;stroke-linejoin:round;stroke-miterlimit:2;">
    <g transform="matrix(0.975329,0,0,0.975329,-547.925,-228.942)">
        <path d="M1422.8,823.258C915.176,1345.78 619.212,1072.35 613.589,966.829C609.416,888.515 629.217,806.486 681.638,727.141C746.819,628.483 851.248,535.092 969.827,463.436C1165.07,345.452 1393.1,314.252 1513.59,456.128C1565.56,517.33 1523.38,638.953 1418.43,737.655C1318.3,831.835 1171.61,925.768 1078.58,935.336C1045.32,938.756 1027.81,927.709 1035.22,890.27C893.67,985.781 810.235,944.408 796.852,876.676C787.032,826.973 897.055,562.228 1092.17,549.66C1126,547.481 1159.89,547.391 1194.05,564.012L1206.69,543.621L1323.27,543.621L1207.72,781.517C1204.01,795.045 1217.61,797.311 1248.51,788.314C1425.54,690.699 1450.87,563.958 1393.09,502.839C1308.43,413.3 1154.85,433.148 1021.49,496.042C902.364,552.223 816.073,642.864 760.914,727.141C704.448,813.413 711.824,883.056 733.388,937.849C764.809,1017.69 873.126,1044.88 1037.8,1002.51C1148.63,973.986 1281.44,915.149 1422.8,823.258ZM1126.16,597.997C1115.16,587.393 1086.09,596.064 1051.39,618.388C1026.85,634.177 996.095,659.275 981.936,678.256C960.048,707.597 935.333,749.235 922.247,781.517C901.68,832.255 900.776,869.874 915.45,876.676C933.661,885.116 964.174,875.661 997.015,849.487C1025.63,826.684 1056.28,789.552 1078.58,761.455C1097.11,738.103 1116.08,697.295 1126.16,665.967C1136.87,632.682 1137.8,609.222 1126.16,597.997Z" style="fill:white;"/>
    </g>
</svg>
