<?xml version="1.0" encoding="UTF-8" standalone="no"?>
<!DOCTYPE svg PUBLIC "-//W3C//DTD SVG 1.1//EN" "http://www.w3.org/Graphics/SVG/1.1/DTD/svg11.dtd">
<svg width="100%" height="100%" viewBox="0 0 1000 1000" version="1.1" xmlns="http://www.w3.org/2000/svg" xmlns:xlink="http://www.w3.org/1999/xlink" xml:space="preserve" xmlns:serif="http://www.serif.com/" style="fill-rule:evenodd;clip-rule:evenodd;stroke-linejoin:round;stroke-miterlimit:2;">
    <g transform="matrix(8.92768,0,0,8.92768,-5345.09,-3929.9)">
        <path d="M643.63,507.078C641.001,509.707 641.956,512.431 643,516C649.265,537.411 637.402,543.852 635,545C626.903,548.869 603.722,547.346 621,522L672,467C664.036,467.753 655.997,467.129 647,464.636C635.663,461.494 628.068,466.712 622,470C619.642,471.768 618.24,471.479 617.68,471C616.971,470.394 616.512,468.325 619,466C633.87,447.827 648.325,440.412 668.9,450C679.571,454.973 688.275,448.982 691,448C692.54,447.556 693.565,447.594 694,448.114C694.861,449.141 694.947,450.053 694,451L643.63,507.078Z" style="fill:white;"/>
    </g>
</svg>
