<?xml version="1.0" encoding="UTF-8" standalone="no"?>
<!DOCTYPE svg PUBLIC "-//W3C//DTD SVG 1.1//EN" "http://www.w3.org/Graphics/SVG/1.1/DTD/svg11.dtd">
<svg width="100%" height="100%" viewBox="0 0 1000 1000" version="1.1" xmlns="http://www.w3.org/2000/svg" xmlns:xlink="http://www.w3.org/1999/xlink" xml:space="preserve" xmlns:serif="http://www.serif.com/" style="fill-rule:evenodd;clip-rule:evenodd;stroke-linejoin:round;stroke-miterlimit:2;">
    <g transform="matrix(1.38462,0,0,1.38462,-240.769,-247.692)">
        <path d="M505,810L475,810L475,840L505,840L505,810ZM830,700L720,700L720,810L830,810L830,700ZM560,520L560,770L711.935,770L711.935,753.871L568.065,753.871L568.065,544.194L777.742,544.194L777.742,691.935L810,691.935L810,673.75L791.25,673.75L791.25,636.25L810,636.25L810,520L560,520ZM380,680L380,610L280,610L280,760L430,760L430,680L380,680ZM769.677,691.935L769.677,552.258L576.129,552.258L576.129,745.806L711.935,745.806L711.935,691.935L769.677,691.935ZM550,710L550,610L500,610L500,710L550,710ZM490,570L390,570L390,670L490,670L490,570ZM825,640L795,640L795,670L825,670L825,640ZM635.492,515L635.492,409.106L484.508,409.106L484.508,560.089L555,560.089L555,515L635.492,515ZM801.5,460L801.5,469L783.5,469L783.5,460L760,460L760,510L820,510L820,560L860,560L860,460L801.5,460ZM280,555L280,525L250,525L250,555L280,555ZM635.492,543.969L568,543.969L568,544L635.492,544L635.492,543.969ZM425,465L355,465L355,535L425,535L425,465ZM350,480L350,460L430,460L430,480L460,480L460,330L400,330L400,410L310,410L310,480L350,480ZM800,452.5L785,452.5L785,467.5L800,467.5L800,452.5ZM735,370L680,370L680,425L735,425L735,370ZM290,410L290,330L210,330L210,410L290,410ZM610,404.46L610,360L540,360L540,404.46L610,404.46ZM230,320L300,320L300,400L390,400L390,240L230,240L230,320ZM710,363.547L741.453,363.547L741.453,390L760,390L760,357.025L735,357.025L735,340L710,340L710,363.547ZM535,380L535,355L615,355L615,380L629.195,380L629.195,280L529.195,280L529.195,380L535,380ZM762.598,329.427L741.453,329.427L741.453,350.573L762.598,350.573L762.598,329.427ZM480,275L450,275L450,305L480,305L480,275Z" style="fill:white;"/>
    </g>
</svg>
