<?xml version="1.0" encoding="UTF-8" standalone="no"?>
<!DOCTYPE svg PUBLIC "-//W3C//DTD SVG 1.1//EN" "http://www.w3.org/Graphics/SVG/1.1/DTD/svg11.dtd">
<svg width="100%" height="100%" viewBox="0 0 1000 1000" version="1.1" xmlns="http://www.w3.org/2000/svg" xmlns:xlink="http://www.w3.org/1999/xlink" xml:space="preserve" xmlns:serif="http://www.serif.com/" style="fill-rule:evenodd;clip-rule:evenodd;stroke-linejoin:round;stroke-miterlimit:2;">
    <g transform="matrix(0.947368,0,0,0.947368,12.1053,0.736842)">
        <path d="M332.436,700.095L40,834L296.988,647.07L296.705,646.48C289.734,631.83 284.301,616.309 280.615,600.129L280.128,597.945L279.86,596.693L279.761,596.222C279.173,593.41 278.637,590.578 278.155,587.727C277.941,586.463 277.738,585.196 277.546,583.926L277.37,582.745L277.206,581.6L276.993,580.046L276.907,579.401L276.753,578.196L276.623,577.138L276.487,575.984L276.311,574.407L276.121,572.58L276.024,571.582L275.911,570.358L275.77,568.727L275.631,566.957L275.556,565.928L275.457,564.441L275.341,562.473L275.258,560.852L275.229,560.238L275.165,558.692L275.14,558.003L275.1,556.768L275.07,555.66L275.045,554.511L275.018,552.906L275.011,552.256L275.003,551.026C275.001,550.695 275,550.348 275,550L275.003,548.784L275.011,547.774L275.026,546.597L275.043,545.56L275.068,544.415L275.097,543.357L275.132,542.239L275.193,540.606L275.266,538.978L275.321,537.903L275.411,536.303L275.518,534.635L275.591,533.591L275.709,532.021L275.851,530.322L275.941,529.303L276.087,527.762L276.263,526.04L276.372,525.039L276.544,523.525L276.617,522.917L276.802,521.416L276.881,520.801L277.079,519.313L277.165,518.692L277.376,517.216L277.468,516.59L277.64,515.461L277.973,513.366C278.082,512.706 278.193,512.046 278.306,511.392L278.326,511.279C278.441,510.614 278.56,509.951 278.68,509.296L278.697,509.199C278.82,508.53 278.946,507.863 279.073,507.204L279.088,507.126C279.218,506.453 279.351,505.782 279.485,505.118L279.497,505.06C279.634,504.384 279.775,503.709 279.918,503.037L279.925,503.002C280.07,502.322 280.217,501.644 280.37,500.96L280.372,500.95C285.721,476.926 294.917,454.345 307.282,433.882L308.389,432.07L309.498,430.291L310.538,428.655L311.652,426.937L312.215,426.082L312.928,425.012L313.925,423.535L314.888,422.132C349.255,372.502 403.054,337.336 465.244,327.673L465.269,327.669C465.964,327.562 466.659,327.457 467.355,327.356L467.42,327.346C468.113,327.246 468.792,327.15 469.473,327.058L469.571,327.044C470.247,326.953 470.922,326.865 471.597,326.779L471.723,326.763C472.388,326.68 473.058,326.599 473.729,326.521L476.034,326.264C476.694,326.194 477.353,326.127 478.014,326.063L479.185,325.952L479.849,325.892L481.336,325.765L481.986,325.712L483.494,325.598L485.658,325.451L486.902,325.377L488.429,325.293L490.006,325.219L491.208,325.17L492.751,325.115L494.379,325.069L495.58,325.043L497.098,325.019L497.769,325.011L499.273,325.001L500.727,325.001L501.213,325.003L502.351,325.012L503.492,325.027L505.072,325.056L505.704,325.072L507.249,325.115L508.938,325.175L510.209,325.229L511.571,325.293L513.323,325.389L514.342,325.451L515.872,325.552L518.014,325.712L518.664,325.765L520.151,325.892L520.815,325.952L521.986,326.063C522.647,326.127 523.306,326.194 523.966,326.264L526.271,326.521C526.942,326.599 527.612,326.68 528.277,326.763L528.403,326.779C529.078,326.865 529.753,326.953 530.429,327.044L530.527,327.058C531.208,327.15 531.887,327.246 532.58,327.346L532.645,327.356C533.341,327.457 534.036,327.562 534.731,327.669L534.756,327.673C580.901,334.843 622.426,356.054 654.816,386.792L677.9,370L620,330L680,270L955,220L802,340L990,399L723.167,521.181L723.265,521.952L723.456,523.525L723.644,525.181L723.755,526.212L723.913,527.762L724.075,529.481L724.164,530.492L724.291,532.021L724.424,533.795L724.493,534.792L724.589,536.303L724.627,536.95L724.708,538.452L724.741,539.113L724.807,540.606L724.834,541.28L724.886,542.766L724.906,543.453L724.944,544.93L724.958,545.631L724.982,547.1L724.99,547.813L724.998,549.024C724.999,549.356 725,549.678 725,550L724.996,551.252L724.982,552.906L724.951,554.725L724.927,555.765L724.893,557.001L724.856,558.104L724.812,559.257L724.742,560.852L724.711,561.498L724.63,563.007L724.509,564.966L724.397,566.587L724.257,568.398L724.173,569.412L724.064,570.636L723.961,571.738L723.852,572.85L723.689,574.407L723.619,575.047L723.45,576.527L723.366,577.231L723.216,578.439L723.007,580.046L722.772,581.752L722.626,582.772L722.454,583.926C722.261,585.202 722.056,586.474 721.845,587.727C721.363,590.574 720.828,593.404 720.239,596.222L719.994,597.377L719.492,599.657L719.385,600.129C710.959,637.115 693.406,670.646 669.222,698.225L667.985,699.625L666.85,700.888L665.712,702.137L664.692,703.239L663.401,704.615L662.374,705.692L660.977,707.135L660.138,707.99L659.068,709.068L658.617,709.517L657.773,710.352L656.664,711.436L656.221,711.865L655.369,712.682L654.225,713.769L653.788,714.179L652.929,714.98L652.122,715.725C651.581,716.222 651.038,716.716 650.494,717.205L650.451,717.244C648.377,719.111 646.269,720.94 644.126,722.731L642.565,724.023L640.992,725.302L639.408,726.567L637.812,727.817L636.204,729.054L634.585,730.276L633.237,731.276L631.692,732.404L631.195,732.763C629.081,734.284 626.941,735.768 624.769,737.219L623.509,738.055L622.375,738.797L621.236,739.533L619.805,740.442L618.705,741.132C602.9,750.976 585.785,758.915 567.678,764.626C567.09,764.812 566.502,764.995 565.91,765.176L565.573,765.279C564.188,765.701 562.798,766.109 561.399,766.506L561.164,766.572C559.444,767.058 557.717,767.523 555.979,767.969L555.744,768.029C554.725,768.289 553.704,768.542 552.682,768.788L552.414,768.852C542.603,771.196 532.543,772.898 522.282,773.908L520.943,774.036C518.624,774.251 516.292,774.43 513.949,774.574L513.007,774.63L511.571,774.707L510.441,774.761L509.408,774.806L507.523,774.876C506.613,774.906 505.7,774.931 504.784,774.95L503.589,774.972C502.809,774.984 502.02,774.992 501.228,774.996L500,775L498.772,774.996C497.981,774.992 497.191,774.984 496.411,774.972L495.216,774.95C494.301,774.931 493.388,774.906 492.477,774.876L491.308,774.835L490.592,774.806L489.148,774.742L487.711,774.669L486.051,774.574C483.709,774.43 481.376,774.251 479.057,774.036L477.718,773.908C467.459,772.899 457.402,771.199 447.586,768.852L447.318,768.788C446.291,768.541 445.266,768.287 444.256,768.029L444.021,767.969C442.282,767.523 440.552,767.057 438.836,766.572L438.601,766.506C437.204,766.11 435.812,765.701 434.427,765.279C434.427,765.279 433.784,765.082 433.784,765.082C433.296,764.932 432.81,764.78 432.322,764.626C414.218,758.915 397.1,750.974 381.295,741.132L379.908,740.261L378.491,739.357L376.843,738.286L375.762,737.573L375.231,737.219C373.062,735.771 370.92,734.285 368.805,732.763L367.591,731.884L365.957,730.68L364.334,729.463L362.723,728.231L360.946,726.846L359.412,725.626L357.889,724.394L356.879,723.565L355.874,722.731C353.73,720.939 351.619,719.108 349.549,717.244L349.506,717.205C348.961,716.715 348.42,716.222 347.878,715.725L346.98,714.896L346.177,714.146L345.355,713.371L344.489,712.547L343.336,711.436L342.033,710.161L340.932,709.068L339.613,707.737L338.564,706.664L337.377,705.433L336.231,704.225L335.055,702.967L334.288,702.137L333.527,701.304L332.566,700.24L332.436,700.095ZM308.225,667.669C311.414,672.853 314.809,677.9 318.398,682.796L318.733,683.252L161,765L308.225,667.669ZM498.438,716.485L498.333,716.45C496.178,715.726 494.036,714.963 491.91,714.159C488.12,712.725 484.38,711.162 480.698,709.472C473.528,706.182 466.582,702.411 459.909,698.205C453.086,693.905 446.552,689.152 440.333,684.019C437.197,681.431 434.141,678.747 431.166,675.977C429.64,674.557 428.137,673.113 426.653,671.65L426.6,671.597C398.339,673.827 374.241,673.325 352.898,671.018C352.368,683.054 353.201,695.336 354.222,707.975L355.015,708.704L355.733,709.357L356.459,710.012L357.176,710.652L357.919,711.31L358.632,711.937L359.393,712.598L360.103,713.21L360.88,713.874L361.587,714.472L362.38,715.137L363.09,715.727L363.893,716.387L364.609,716.972L365.417,717.625L366.139,718.203L366.952,718.848L367.681,719.421L368.499,720.058L369.249,720.636L370.057,721.253L370.847,721.851L371.626,722.435L372.448,723.045L373.206,723.602L374.055,724.22L374.796,724.755L375.668,725.377L376.397,725.893L377.288,726.518L378.007,727.017L378.916,727.641L379.72,728.188L380.552,728.748L381.421,729.327L382.197,729.839L383.51,730.695L384.794,731.518L386.087,732.335L387.183,733.017L388.408,733.768L389.388,734.361L390.497,735.024L391.686,735.725L392.727,736.33L393.317,736.669C414.431,748.77 437.786,757.392 462.602,761.752L463.966,761.987L465.255,762.201L466.799,762.447L467.323,762.527C478.768,762.01 489.096,761.215 498.438,760.177L498.438,716.485ZM645.778,707.975C646.799,695.336 647.632,683.054 647.102,671.018C625.759,673.325 601.661,673.827 573.4,671.597L573.347,671.65C571.863,673.113 570.36,674.557 568.834,675.977C565.859,678.747 562.803,681.431 559.667,684.019C553.448,689.152 546.914,693.905 540.091,698.205C533.418,702.411 526.472,706.182 519.302,709.472C515.62,711.162 511.88,712.725 508.09,714.159C505.964,714.963 503.822,715.726 501.667,716.45L501.563,716.485L501.563,760.177C510.904,761.215 521.232,762.01 532.677,762.527L534.241,762.283L535.431,762.089L536.728,761.869L537.398,761.752C562.218,757.393 585.578,748.77 606.683,736.669L607.832,736.006L608.947,735.353L610.136,734.647L611.165,734.028L612.267,733.355L613.52,732.58L614.487,731.974L615.648,731.236L617.28,730.182L618.11,729.637L618.907,729.109L619.724,728.563L620.527,728.02L621.329,727.474L622.138,726.916L622.925,726.369L623.74,725.797L624.513,725.249L625.331,724.663L626.092,724.114L626.913,723.515L627.661,722.964L628.485,722.352L629.221,721.8L630.047,721.174L630.771,720.621L631.598,719.982L632.319,719.421L633.139,718.776L633.861,718.203L634.67,717.555L635.391,716.972L636.189,716.32L636.91,715.727L637.698,715.072L638.429,714.458L639.196,713.809L639.95,713.164L640.683,712.532L641.454,711.861L642.159,711.241L642.943,710.546L643.624,709.937L644.418,709.22L645.078,708.619L645.778,707.975ZM319.09,683.735L319.134,683.794L319.075,683.714L319.09,683.735ZM592.562,510.206C590.967,513.61 589.336,516.998 587.67,520.369C582.545,530.732 577.089,540.931 571.355,550.971C565.606,561.038 559.577,570.945 553.313,580.7C550.945,584.388 548.542,588.053 546.11,591.698L546.104,591.707C562.074,616.699 570.316,642.449 574.76,668.569L574.781,668.57C578.869,668.882 582.961,669.146 587.056,669.353C596.363,669.824 605.685,670.01 615.002,669.853C621.661,669.742 628.317,669.455 634.959,668.975C639.22,668.666 643.476,668.277 647.722,667.807L647.842,667.781C649.932,664.746 651.992,661.689 654.017,658.61C659.559,650.182 664.847,641.586 669.816,632.807C675.472,622.812 680.715,612.581 685.43,602.109C686.977,598.674 688.466,595.213 689.896,591.728L689.932,591.616C685.461,577.544 680.623,563.586 675.329,549.802C673.376,544.718 671.361,539.658 669.277,534.626C666.879,528.838 664.39,523.088 661.795,517.386C660.843,515.293 659.876,513.207 658.895,511.127L658.849,511.029C638.118,511.156 616.516,511 592.611,510.101L592.562,510.206ZM407.438,510.206C409.033,513.61 410.664,516.998 412.33,520.369C417.455,530.732 422.911,540.931 428.645,550.971C434.394,561.038 440.423,570.945 446.687,580.7C449.055,584.388 451.458,588.053 453.89,591.698L453.896,591.707C437.926,616.699 429.684,642.449 425.24,668.569L425.219,668.57C421.131,668.882 417.039,669.146 412.944,669.353C403.637,669.824 394.315,670.01 384.998,669.853C378.339,669.742 371.683,669.455 365.041,668.975C360.78,668.666 356.524,668.277 352.278,667.807L352.158,667.781C350.068,664.746 348.008,661.689 345.983,658.61C340.441,650.182 335.153,641.586 330.184,632.807C324.528,622.812 319.285,612.581 314.57,602.109C313.023,598.674 311.534,595.213 310.104,591.728L310.068,591.616C314.539,577.544 319.377,563.586 324.671,549.802C326.624,544.718 328.639,539.658 330.723,534.626C333.121,528.838 335.61,523.088 338.205,517.386C339.157,515.293 340.124,513.207 341.105,511.127L341.151,511.029C361.882,511.156 383.484,511 407.389,510.101L407.438,510.206ZM500,586.389C505.34,586.39 510.681,586.456 516.018,586.656C518.809,586.761 521.599,586.903 524.384,587.102C527.427,587.319 530.466,587.604 533.492,587.992C535.336,588.228 537.175,588.502 539.006,588.819C540.565,589.089 542.119,589.39 543.668,589.715L543.752,589.601C546.129,586.035 548.476,582.45 550.791,578.843C556.982,569.197 562.942,559.401 568.627,549.448C574.229,539.64 579.564,529.678 584.583,519.559C586.246,516.206 587.874,512.835 589.466,509.447L589.16,508.678C572.89,483.055 556.815,457.307 541.08,431.351L541.058,431.315C528.501,428.533 514.609,426.725 500,426.573C485.391,426.725 471.499,428.533 458.942,431.315L458.92,431.351C443.185,457.307 427.11,483.055 410.84,508.678L410.534,509.447C412.126,512.835 413.754,516.206 415.417,519.559C420.436,529.678 425.771,539.64 431.373,549.448C437.058,559.401 443.018,569.197 449.209,578.843C451.524,582.45 453.871,586.035 456.248,589.601L456.332,589.715C457.881,589.39 459.435,589.089 460.994,588.819C462.825,588.502 464.664,588.228 466.508,587.992C469.534,587.604 472.573,587.319 475.616,587.102C478.401,586.903 481.191,586.761 483.982,586.656C489.319,586.456 494.66,586.39 500,586.389ZM709.838,503.001L710.057,503.99L710.274,504.997L710.479,505.97L710.69,506.994L710.883,507.957L711.087,508.995L711.27,509.95L711.465,511L711.637,511.95L711.824,513.01L711.986,513.956L712.164,515.025L712.317,515.969L712.485,517.044L712.628,517.987L712.787,519.067L712.924,520.03L713.07,521.096L713.201,522.09L713.334,523.129L713.459,524.149L713.578,525.167L713.696,526.209L713.804,527.21L713.913,528.27L714.01,529.258L714.111,530.334L714.197,531.311L714.288,532.401L714.365,533.369L714.446,534.471L714.513,535.431L714.585,536.544L714.642,537.498L714.703,538.621L714.751,539.57L714.802,540.701L714.84,541.647L714.881,542.786L714.91,543.728L714.94,544.875L714.96,545.814L714.979,546.968L714.99,547.905L714.998,549.065L715,550L714.994,551.535L714.981,552.841L714.958,554.268L714.926,555.667L714.889,556.962L714.836,558.463L714.765,560.137L714.687,561.683L714.579,563.547L714.473,565.158L714.387,566.333L714.292,567.55L714.245,568.123C714.168,569.047 714.085,569.968 713.996,570.887L713.935,571.508C713.462,576.262 712.833,580.974 712.054,585.637L711.855,586.807C705.615,587.565 699.143,588.264 692.339,588.88C684.043,562.958 673.996,535.989 662.291,511.005C662.527,511.004 662.763,511.002 663,511C669.802,486.155 670.8,461.25 664.585,436.271L664,434C664.202,434.757 664.396,435.513 664.585,436.271L664.592,436.298C669.364,433.488 673.666,431.026 677.601,428.856C692.717,450.967 703.814,476.032 709.838,503.001ZM288.145,586.807C294.385,587.565 300.857,588.264 307.661,588.88C315.957,562.958 326.004,535.989 337.709,511.005C337.473,511.004 337.237,511.002 337,511C330.198,486.155 329.2,461.25 335.415,436.271L336,434C335.798,434.757 335.604,435.513 335.415,436.271L335.408,436.298C330.636,433.488 326.334,431.026 322.399,428.856C307.283,450.967 296.186,476.032 290.162,503.001L289.943,503.99L289.726,504.997L289.521,505.97L289.31,506.994L289.117,507.957L288.913,508.995L288.73,509.95L288.535,511L288.363,511.95L288.176,513.01L288.014,513.956L287.836,515.025L287.683,515.969L287.515,517.044L287.372,517.987L287.213,519.067L287.076,520.03L286.93,521.096L286.799,522.09L286.666,523.129L286.541,524.149L286.422,525.167L286.304,526.209L286.196,527.21L286.087,528.27L285.99,529.258L285.889,530.334L285.803,531.311L285.712,532.401L285.635,533.369L285.554,534.471L285.487,535.431L285.415,536.544L285.358,537.498L285.297,538.621L285.249,539.57L285.198,540.701L285.16,541.647L285.119,542.786L285.09,543.728L285.06,544.875L285.04,545.814L285.021,546.968L285.01,547.905L285.002,549.065L285,550L285.006,551.535L285.019,552.841L285.042,554.268L285.074,555.667L285.111,556.962L285.164,558.463L285.235,560.137L285.313,561.683L285.421,563.547L285.527,565.158L285.613,566.333L285.708,567.55L285.755,568.123C285.832,569.046 285.915,569.967 286.004,570.887L286.065,571.508C286.538,576.262 287.166,580.973 287.946,585.637L288.145,586.807ZM713.444,478.686C708.166,462.899 701.184,447.893 692.718,433.882L691.675,432.172L690.62,430.478L690.028,429.542L689.666,428.974L689.006,427.949L688.348,426.937L687.544,425.72L686.649,424.381L686.075,423.535L685.112,422.132C684.538,421.304 683.958,420.479 683.373,419.658L760,369L651,330L698,290L889.679,250.779L730,334.471L884.563,390L713.444,478.686ZM547.89,340.363C547.062,340.795 546.28,341.265 545.552,341.775L545.555,341.777C554.631,349.919 563.601,358.184 572.248,366.783C575.792,370.307 579.281,373.886 582.699,377.533C584.617,379.581 586.512,381.65 588.383,383.741L588.439,383.782C590.249,384.524 592.052,385.283 593.846,386.062C597.401,387.605 600.923,389.224 604.405,390.923C612.675,394.957 620.725,399.449 628.45,404.451C635.543,409.044 642.359,414.069 648.804,419.535C652.066,422.301 655.233,425.18 658.293,428.168C660.023,429.856 661.717,431.581 663.378,433.338L663.407,433.369C667.932,430.709 672.037,428.362 675.81,426.278L675.077,425.245L674.337,424.215L673.208,422.669L672.234,421.357L671.485,420.362L670.676,419.3L669.867,418.253L669.078,417.244L668.29,416.247L667.499,415.259L667.101,414.768C638.641,379.659 599.358,353.684 554.352,341.941L553.034,341.602L551.738,341.277L550.449,340.962L549.163,340.657L547.89,340.363ZM452.11,340.363L450.712,340.686L449.434,340.991L448.167,341.301L446.905,341.617L445.648,341.941C400.64,353.682 361.356,379.658 332.899,414.768L332.066,415.802L331.259,416.816L330.465,417.826L329.682,418.836L328.904,419.849L327.981,421.07L327.025,422.353L326.293,423.348L325.573,424.34L324.869,425.321L324.19,426.278C327.963,428.362 332.068,430.709 336.593,433.369L336.622,433.338C338.283,431.581 339.977,429.856 341.707,428.168C344.767,425.18 347.934,422.301 351.196,419.535C357.641,414.069 364.457,409.044 371.55,404.451C379.275,399.449 387.325,394.957 395.595,390.923C399.077,389.224 402.599,387.605 406.154,386.062C407.948,385.283 409.751,384.524 411.561,383.782L411.617,383.741C413.488,381.65 415.383,379.581 417.301,377.533C420.719,373.886 424.208,370.307 427.752,366.783C436.399,358.184 445.369,349.919 454.445,341.777L454.448,341.775C453.72,341.265 452.938,340.795 452.11,340.363ZM502.391,423.487C516.125,423.795 529.2,425.528 541.114,428.128C553.406,412.257 566.355,396.745 584.443,384.034C571.118,369.339 556.536,355.762 540.992,341.888C530.103,338.157 520.449,338.093 503.491,338.273L500,338.311L496.509,338.273C479.551,338.093 469.897,338.157 459.008,341.888C443.464,355.762 428.882,369.339 415.557,384.034C433.645,396.745 446.594,412.257 458.886,428.128C470.8,425.528 483.875,423.795 497.609,423.487C497.734,423.455 497.865,423.438 498,423.438C498.669,423.438 499.336,423.441 500,423.448C500.664,423.441 501.331,423.438 502,423.438C502.135,423.438 502.266,423.455 502.391,423.487Z" style="fill:white;"/>
    </g>
</svg>
