<?xml version="1.0" encoding="UTF-8" standalone="no"?>
<!DOCTYPE svg PUBLIC "-//W3C//DTD SVG 1.1//EN" "http://www.w3.org/Graphics/SVG/1.1/DTD/svg11.dtd">
<svg width="100%" height="100%" viewBox="0 0 1000 1000" version="1.1" xmlns="http://www.w3.org/2000/svg" xmlns:xlink="http://www.w3.org/1999/xlink" xml:space="preserve" xmlns:serif="http://www.serif.com/" style="fill-rule:evenodd;clip-rule:evenodd;stroke-linejoin:round;stroke-miterlimit:2;">
    <g transform="matrix(1.63151,0,0,1.63151,-610.538,-436.782)">
        <path d="M714.132,484.334L714.132,850L704.132,850L704.132,484.334C705.726,484.768 707.402,485 709.132,485C710.863,485 712.539,484.768 714.132,484.334ZM817.29,579.521C820.196,584.385 822.867,588.964 825.698,594.207C826.99,596.702 826.167,598.303 825.219,599.85L825.127,600C820.155,595.042 815.245,590.056 810.384,585.04C811.959,583.869 813.436,582.673 814.628,581.178C815.366,580.252 816.2,579.702 816.706,578.545L817.29,579.521ZM727.013,478.153C731.213,478.233 736.792,478.639 740.759,482.744C768.326,511.271 793.62,540.014 816.032,577.259C814.297,579.741 811.042,581.723 808.775,584.05L808.667,584.161C776.486,550.926 747.78,517.005 718.185,482.706C721.226,481.053 723.766,478.595 725.518,475.618L727.013,478.153ZM557.791,502.659C551.692,502.757 546.084,502.797 539.731,502.616C536.834,502.483 535.889,500.875 535,499.224C541.779,497.398 548.553,495.639 555.327,493.937C555.554,495.887 555.851,497.763 556.55,499.543C556.982,500.645 557.042,501.642 557.791,502.659ZM692.522,475.152L689.58,475.179C687.41,478.777 684.269,483.405 678.73,484.788C640.242,494.398 602.703,501.932 559.241,502.719C557.939,499.932 557.868,496.044 556.946,492.89C601.819,481.638 645.549,473.737 690.051,465.258C689.961,468.717 690.82,472.146 692.522,475.152ZM709.132,448C718.994,448 727,456.006 727,465.868C727,475.729 718.994,483.735 709.132,483.735C699.271,483.735 691.265,475.729 691.265,465.868C691.265,456.006 699.271,448 709.132,448ZM709.132,454.284C715.526,454.284 720.716,459.474 720.716,465.868C720.716,472.261 715.526,477.452 709.132,477.452C702.739,477.452 697.548,472.261 697.548,465.868C697.548,459.474 702.739,454.284 709.132,454.284ZM709.132,456.366C714.431,456.366 718.733,460.668 718.733,465.967C718.733,471.265 714.431,475.567 709.132,475.567C703.834,475.567 699.532,471.265 699.532,465.967C699.532,460.668 703.834,456.366 709.132,456.366ZM709.086,446.83L710.534,444.268C708.503,440.591 706.066,435.556 707.637,430.068C718.559,391.931 730.804,355.654 751.853,317.622C754.918,317.888 758.32,319.771 761.513,320.549C748.821,365.037 733.798,406.858 718.891,449.637C715.939,447.83 712.541,446.86 709.086,446.83ZM752.63,316.397C755.594,311.065 758.364,306.189 761.697,300.777C763.261,298.335 765.126,298.32 767,298.376C765.192,305.16 763.329,311.906 761.415,318.624C759.614,317.845 757.84,317.164 755.949,316.879C754.778,316.703 753.885,316.256 752.63,316.397Z" style="fill:white;"/>
    </g>
</svg>
