<?xml version="1.0" encoding="UTF-8" standalone="no"?>
<!DOCTYPE svg PUBLIC "-//W3C//DTD SVG 1.1//EN" "http://www.w3.org/Graphics/SVG/1.1/DTD/svg11.dtd">
<svg width="100%" height="100%" viewBox="0 0 1000 1000" version="1.1" xmlns="http://www.w3.org/2000/svg" xmlns:xlink="http://www.w3.org/1999/xlink" xml:space="preserve" xmlns:serif="http://www.serif.com/" style="fill-rule:evenodd;clip-rule:evenodd;stroke-linejoin:round;stroke-miterlimit:2;">
    <g transform="matrix(6.43926,0,0,6.43926,-980.282,173.208)">
        <path d="M161.5,99L160,101.5L233.5,101.5L238.5,99L161.5,99ZM164,94L162.5,97L243,97L249,94L164,94ZM168,87L165,92L254,92L262.5,87L168,87ZM217,20L206,20L218,0L272,0C287.135,3.11 295.243,9.632 297.967,19C304.35,40.954 293.776,65.387 266,85L169,85L171,81L181,81L217,20ZM251,20L216,80C238.019,79.513 248.563,69.265 256.978,54C266.769,36.24 271.124,22.815 251,20Z" style="fill:white;"/>
    </g>
</svg>
