<?xml version="1.0" encoding="UTF-8" standalone="no"?>
<!DOCTYPE svg PUBLIC "-//W3C//DTD SVG 1.1//EN" "http://www.w3.org/Graphics/SVG/1.1/DTD/svg11.dtd">
<svg width="100%" height="100%" viewBox="0 0 1000 1000" version="1.1" xmlns="http://www.w3.org/2000/svg" xmlns:xlink="http://www.w3.org/1999/xlink" xml:space="preserve" xmlns:serif="http://www.serif.com/" style="fill-rule:evenodd;clip-rule:evenodd;stroke-linejoin:round;stroke-miterlimit:2;">
    <g transform="matrix(0.960911,0,0,0.960911,-19.3865,-50.7977)">
        <path d="M600,920L602.785,942L545.322,955.164L472.048,942L474.167,920C401.498,920 329.419,948.04 320,970.483L320,1000C363.046,1035.67 497.526,1041.65 555.85,1041.51C617.52,1041.36 714.445,1026.53 740,1000L740,960C722.335,935.858 672.426,920 600,920ZM576.56,789L541,794L483,791L483,934L545.012,942L590,935.958L576.56,789ZM505,726L539,726C538.536,691.059 536.331,644.772 557,644.463C560.618,644.409 567.3,649.06 571,661C579.485,688.381 584.125,714.484 587,740L589,778L585,779L585,784L541,789L469,785L469,739C474.227,738.674 478.126,735.536 481,732C489.395,733.156 497.389,731.107 505,726ZM483.023,566.166L463,591L481,618L457,653C455.681,658.276 456.786,664.411 462,672L447,695C446.05,700.724 447.239,706.193 454,711C447.835,726.118 451.665,731.64 458,735C463.283,737.802 472.299,736.926 480,727C489.212,730.031 496.979,729.193 502,721L515,702C527.238,703.865 531.354,701.068 535,698C533.53,666.612 536.637,635.358 564,643C570.514,644.819 574.729,657.648 578,669C581.831,679.934 583.415,691.232 586,704L594,702L607,679C586.58,640.033 566.178,601.055 540,566L483.023,566.166ZM708.033,397.959L716,398L717,397L725.5,397C749.564,385.608 756.924,404.211 759.582,412C762.768,421.34 762.689,448.869 738,450L741,456L733,465L735.964,470.873C722.493,504.439 682,575 682,575C679.958,578.989 631.474,625.379 592,622C590.899,624.155 590.268,626.503 590,629L587.5,629L542,562L482,563L477,569C458.808,546.307 459.804,527.817 473,512L526,445C525.506,426.892 527.882,409.363 541,394L588,493L576,499L562,523C593.61,521.846 620.58,508.516 641,478L681,421L689,421L708.033,397.959ZM737,465L736,466L738.511,471C732.456,484.901 726.046,498.787 719,512.649L729,512C736.321,504.663 742.937,496.618 746,485C743.566,477.758 740.435,471.224 737,465ZM600,509L458,209C485.144,213.882 517.734,200.816 544,188.815C565.219,179.121 589.556,160.763 602,137L715,394L706,394L686,418L678,418C637.324,478.726 616.235,507.904 600,509ZM615.5,162.5C627.589,151.598 632.733,144.139 610,150.5L609,148.5C622.212,145.104 628.536,144.985 630,147.178C630.146,147.397 630.244,147.639 630.295,147.904L658,216C658.301,219.617 658.124,223.02 657,226L676,270C680.639,269.201 683.549,272.445 684.995,275C686.909,278.382 687.07,285.226 684,289L701,329L718.64,373.134C723.228,374.452 725.916,376.358 727.192,378.702C729.337,382.641 728.958,388.97 724,393.459L717.5,393.5L615.5,162.5ZM718.414,327.17C717.71,326.123 716.774,325.414 715.588,325.028C714.806,324.773 713.919,324.671 712.919,324.682C712.078,324.692 711.16,324.781 710.157,324.961C709.141,325.143 708.044,325.408 706.857,325.763C705.371,326.207 703.754,326.77 702,327.5C703.668,326.561 705.208,325.781 706.652,325.185C707.833,324.699 708.939,324.333 709.973,324.084C711.03,323.829 712.01,323.694 712.907,323.684C714.032,323.671 715.029,323.849 715.89,324.185C717.496,324.814 718.654,325.995 719.324,327.725C719.779,328.899 720.002,330.327 720.005,332.011L728.5,350.5C729.669,353.346 729.157,355.337 728,357L731,362C733.106,361.929 735.379,363.263 737,366.581L743,380C743.902,382.207 742.246,384.503 740.595,386L743.5,391.5C738.778,390.021 733.938,390.111 729,391.5C732.199,381.819 730.251,374.568 720.5,371L707,337C710.394,335.583 713.528,333.741 716,330.818C716.899,329.756 717.71,328.55 718.414,327.17ZM594.673,114.649L602,133C588.42,156.223 566.067,172.199 543.406,184C517.762,197.354 483.331,211.451 455,205L445,186C441.823,181.408 455.313,160.638 480,129C486.04,121.259 489.811,118.13 501,112C511.477,106.26 518.758,105.113 529,105C562.007,104.637 593.634,104.718 594.673,114.649Z" style="fill:white;"/>
    </g>
</svg>
