<?xml version="1.0" encoding="UTF-8" standalone="no"?>
<!DOCTYPE svg PUBLIC "-//W3C//DTD SVG 1.1//EN" "http://www.w3.org/Graphics/SVG/1.1/DTD/svg11.dtd">
<svg width="100%" height="100%" viewBox="0 0 1000 1000" version="1.1" xmlns="http://www.w3.org/2000/svg" xmlns:xlink="http://www.w3.org/1999/xlink" xml:space="preserve" xmlns:serif="http://www.serif.com/" style="fill-rule:evenodd;clip-rule:evenodd;stroke-linejoin:round;stroke-miterlimit:2;">
    <g transform="matrix(2.23314,0,0,2.2378,-704.549,-685.776)">
        <path d="M426.707,333.857L432.267,333.857L444.224,362.152L512.977,358.242C512.977,358.242 518.087,328.795 518.087,328.795L519.319,329.009L525.879,329.009L658.51,642.867L651.95,642.867L520.218,331.137L515.333,359.286L649.857,678.002L651.969,642.867L658.51,642.867L653.535,725.641L647.994,725.641L646.835,726.109L632.019,689.44L632.346,689.308L562.165,693.201L559.923,730.49L554.179,730.49L553.027,730.976L420.281,416.847L425.459,333.779L426.707,333.857ZM427.67,338.502L558.339,647.715L564.899,647.715L445.258,364.597L513.23,360.732L648.232,680.579L562.638,685.327L564.899,647.715L558.357,647.715L553.65,726.028L422.813,416.416L427.67,338.502ZM649.234,688.371L647.298,720.582L634.611,689.182L649.234,688.371ZM470.57,388.177L491.262,385.819L610,650L470.57,388.177Z" style="fill:white;"/>
    </g>
</svg>
