<?xml version="1.0" encoding="UTF-8" standalone="no"?>
<!DOCTYPE svg PUBLIC "-//W3C//DTD SVG 1.1//EN" "http://www.w3.org/Graphics/SVG/1.1/DTD/svg11.dtd">
<svg width="100%" height="100%" viewBox="0 0 1000 1000" version="1.1" xmlns="http://www.w3.org/2000/svg" xmlns:xlink="http://www.w3.org/1999/xlink" xml:space="preserve" xmlns:serif="http://www.serif.com/" style="fill-rule:evenodd;clip-rule:evenodd;stroke-linejoin:round;stroke-miterlimit:2;">
    <g transform="matrix(4.97137,0,0,4.97137,-1997.36,-1924.18)">
        <path d="M457.045,490.955C458.107,485.213 459.803,480.016 462.119,475.355L462,485.5C471.972,470.953 482.678,458.345 495,450C490.131,465.325 489.242,480.769 491.729,496.316C500.367,480.114 510.904,466.141 523,454C530.365,464.835 534.827,475.713 538.219,486.608C533.831,483.154 527.737,480.21 516,479C513.706,480.056 511.86,481.31 511,483C524.857,481.289 532.141,484.675 538.809,488.537C540.356,493.688 541.689,498.844 543,504C544.902,500.395 546.201,496.725 547,493C546.337,507.285 542.202,521.446 535,535.5C538.964,532.307 542.423,528.735 545,524.5C545.378,530.3 544.808,536.1 544.054,541.9C542.43,542.262 540.645,542.524 538.682,542.67C527.867,560.123 511.057,570 500,570L499.74,569.998C488.681,569.845 472.048,559.987 461.318,542.67C460.449,542.606 459.615,542.518 458.814,542.409C458.341,538.182 457.996,534.012 458,530C455.3,514.936 455.014,501.956 457.041,490.976C465.105,486.31 472.25,480.932 489,483C488.14,481.31 486.294,480.056 484,479C467.531,480.698 462.171,485.809 457.045,490.955ZM513.922,545.323C513.231,545.543 512.523,545.746 511.792,545.945C511.325,546.073 510.85,546.195 510.365,546.319C509.898,546.438 509.421,546.554 508.936,546.674C508.622,546.751 508.305,546.834 507.984,546.914C507.339,547.074 506.676,547.232 505.988,547.38C505.337,547.52 504.669,547.659 503.973,547.781C503.852,547.796 503.766,547.906 503.781,548.027C503.796,548.148 503.906,548.234 504.027,548.219C505.113,548.135 506.144,548.028 507.129,547.872C507.835,547.76 508.518,547.633 509.175,547.472C509.868,547.303 510.532,547.1 511.174,546.882C512.195,546.537 513.151,546.14 514.078,545.736C514.192,545.693 514.25,545.566 514.207,545.452C514.164,545.338 514.036,545.28 513.922,545.323ZM488.913,546.203C489.554,546.53 490.21,546.857 490.921,547.142C491.368,547.321 491.832,547.489 492.321,547.628C492.782,547.758 493.265,547.859 493.767,547.948C494.463,548.071 495.192,548.152 495.967,548.218C496.087,548.237 496.2,548.154 496.218,548.033C496.237,547.913 496.154,547.8 496.033,547.782C495.289,547.618 494.596,547.426 493.931,547.235C493.532,547.122 493.148,547.003 492.77,546.892C492.509,546.815 492.251,546.742 491.996,546.671C491.599,546.559 491.211,546.451 490.831,546.339C490.229,546.162 489.65,545.99 489.087,545.797C488.974,545.749 488.845,545.801 488.797,545.913C488.749,546.026 488.801,546.155 488.913,546.203ZM492.864,490.306C491.46,476.982 492.647,463.736 496.827,450.58C497.074,449.802 496.801,448.953 496.147,448.464C495.493,447.975 494.601,447.955 493.925,448.413C482.879,455.893 473.097,466.736 463.99,479.339C463.989,479.34 464.036,475.377 464.036,475.377C464.046,474.483 463.437,473.701 462.568,473.491C461.699,473.282 460.8,473.701 460.402,474.502C453.527,488.34 451.916,506.79 456.083,530.171C456.089,534.351 456.464,538.7 456.965,543.106C449.799,530.79 443.144,518.062 438.839,503.458C438.67,502.887 438.246,502.426 437.691,502.212C437.136,501.997 436.512,502.053 436.003,502.362C432.189,504.684 427.965,506.681 423.407,508.417C428.668,499.475 433.161,490.283 435.848,480.508C436.015,479.903 435.874,479.254 435.472,478.772C435.07,478.29 434.458,478.035 433.832,478.09C426.279,478.754 418.967,479.06 411.83,479.104C424.94,469.351 437.06,459.091 448.321,448.39C448.697,448.032 448.912,447.536 448.917,447.017C448.922,446.498 448.715,445.998 448.345,445.634C440.638,438.046 432.595,430.725 424.306,423.586C443.637,422.26 462.99,421.295 482.439,421.916C483.053,421.936 483.638,421.66 484.015,421.175C484.391,420.69 484.512,420.054 484.341,419.464C482.962,414.73 480.669,409.992 477.745,405.256C494.342,406.992 509.616,412.055 523.492,420.631C523.989,420.938 524.598,421.002 525.148,420.804C525.697,420.607 526.127,420.17 526.315,419.618C527.693,415.567 528.396,411.437 528.857,407.278C532.404,413.899 535.208,420.708 536.619,427.871C536.791,428.743 537.54,429.382 538.428,429.416C546.186,429.706 554.063,429.59 562.09,428.972C559.347,431.023 556.275,432.96 553.037,434.843C552.426,435.198 552.06,435.86 552.084,436.566C552.108,437.272 552.519,437.907 553.152,438.22C562.609,442.881 572.011,447.98 581.356,453.531C575.851,453.977 570.309,454.572 564.653,455.615C564.025,455.73 563.496,456.151 563.241,456.737C562.987,457.323 563.041,457.996 563.386,458.534C571.391,471.033 580.595,482.913 592.867,493.218C585.02,494.214 577.028,494.581 568.726,493.596C568.147,493.528 567.567,493.726 567.152,494.137C566.737,494.547 566.532,495.124 566.594,495.704C567.139,500.805 567.274,506.005 567.2,511.255C566.035,510.133 564.808,509.13 563.468,508.345C562.982,508.061 562.395,508.005 561.863,508.192C561.332,508.379 560.909,508.791 560.709,509.317C556.983,519.096 552.114,528.537 546.477,537.752C546.949,533.292 547.204,528.834 546.913,524.375C546.859,523.541 546.269,522.838 545.457,522.638C544.645,522.439 543.797,522.789 543.362,523.503C542.702,524.589 541.98,525.629 541.204,526.628C545.763,515.517 548.393,504.339 548.915,493.089C548.961,492.092 548.235,491.227 547.246,491.099C546.257,490.971 545.335,491.623 545.126,492.598C544.721,494.487 544.181,496.361 543.492,498.219C539.53,483.083 534.811,467.965 524.585,452.922C524.264,452.449 523.748,452.145 523.179,452.091C522.609,452.038 522.046,452.242 521.642,452.647C510.707,463.623 501.032,476.08 492.864,490.306L492.864,490.306ZM440.625,514.6C444.3,524.057 448.857,532.807 453.72,541.314C439.173,536.852 439.779,523.629 440,519.415C440.1,517.508 440.309,515.914 440.625,514.6ZM559.756,516.691C559.867,517.518 559.948,518.424 560,519.415C560.219,523.599 560.819,536.667 546.582,541.22C551.606,533.23 556.077,525.077 559.756,516.691ZM498.503,523.781C498.335,524.418 498.202,525.232 498.117,526.099C498.067,526.609 498.034,527.135 498.015,527.65C498.005,527.913 498.001,528.172 498.002,528.425C498.003,528.692 498.01,528.952 498.021,529.2C498.077,530.477 498.183,531.442 498.191,531.52C498.196,531.562 498.235,531.703 498.311,531.895C498.432,532.203 498.633,532.682 498.791,533.071C498.83,533.187 498.956,533.248 499.071,533.209C499.187,533.17 499.248,533.044 499.209,532.929L498.809,531.48C498.807,531.412 498.812,530.673 498.823,529.647C498.827,529.271 498.835,528.857 498.835,528.424C498.835,528.028 498.829,527.616 498.825,527.203C498.82,526.582 498.814,525.958 498.831,525.375C498.847,524.82 498.874,524.305 498.936,523.87C498.96,523.75 498.883,523.633 498.764,523.609C498.644,523.585 498.527,523.662 498.503,523.781ZM514,500.5C511.135,512.411 515.345,516.883 521,518.694C525.38,520.096 534.595,518.585 539.535,513C539.316,508.079 539.043,500.076 530.509,497C520.321,493.328 514.845,496.986 514,500.5ZM486,500.5C488.865,512.411 484.655,516.883 479,518.694C474.62,520.096 465.405,518.585 460.465,513C460.684,508.079 460.957,500.076 469.491,497C479.679,493.328 485.155,496.986 486,500.5ZM524.552,497.902C524.901,497.927 525.245,497.977 525.583,498.054C529.414,498.919 532.468,503.1 531.496,510C531.072,513.012 529.34,514.825 527.136,515.653C527.535,515.098 527.761,514.45 527.75,513.759C527.72,511.767 525.74,510.18 523.33,510.216C520.92,510.252 518.988,511.899 519.018,513.891C519.025,514.325 519.124,514.74 519.3,515.123C515.942,513.524 513.573,510.242 515,506C515.788,503.659 516.91,501.847 518.204,500.536C518.211,500.557 518.218,500.578 518.226,500.599C518.675,501.841 520.495,502.322 522.289,501.673C524.082,501.025 525.174,499.491 524.725,498.249C524.681,498.126 524.622,498.01 524.552,497.902ZM475.448,497.902C475.099,497.927 474.755,497.977 474.417,498.054C470.586,498.919 467.532,503.1 468.504,510C468.928,513.012 470.66,514.825 472.864,515.653C472.465,515.098 472.239,514.45 472.25,513.759C472.28,511.767 474.26,510.18 476.67,510.216C479.08,510.252 481.012,511.899 480.982,513.891C480.975,514.325 480.876,514.74 480.7,515.123C484.058,513.524 486.427,510.242 485,506C484.212,503.659 483.09,501.847 481.796,500.536C481.789,500.557 481.782,500.578 481.774,500.599C481.325,501.841 479.505,502.322 477.711,501.673C475.918,501.025 474.826,499.491 475.275,498.249C475.319,498.126 475.378,498.01 475.448,497.902ZM476.873,507.04C476.597,507.04 476.373,507.376 476.373,507.79C476.373,508.204 476.597,508.54 476.873,508.54C477.149,508.54 477.373,508.204 477.373,507.79C477.373,507.376 477.149,507.04 476.873,507.04ZM523.127,507.04C523.403,507.04 523.627,507.376 523.627,507.79C523.627,508.204 523.403,508.54 523.127,508.54C522.851,508.54 522.627,508.204 522.627,507.79C522.627,507.376 522.851,507.04 523.127,507.04Z" style="fill:white;"/>
    </g>
</svg>
