<?xml version="1.0" encoding="UTF-8" standalone="no"?>
<!DOCTYPE svg PUBLIC "-//W3C//DTD SVG 1.1//EN" "http://www.w3.org/Graphics/SVG/1.1/DTD/svg11.dtd">
<svg width="100%" height="100%" viewBox="0 0 1000 1000" version="1.1" xmlns="http://www.w3.org/2000/svg" xmlns:xlink="http://www.w3.org/1999/xlink" xml:space="preserve" xmlns:serif="http://www.serif.com/" style="fill-rule:evenodd;clip-rule:evenodd;stroke-linejoin:round;stroke-miterlimit:2;">
    <g transform="matrix(6.30347,0,0,6.30347,-2663.2,-2731.39)">
        <path d="M508.295,454.027C508.145,448.675 507.759,445.029 505.328,441.827C504.125,440.241 499.193,442.225 499.892,443.994C501.194,447.289 501.131,450.626 500.199,453.99C500.199,453.99 467.008,455.239 474.757,494.789C476.744,504.929 470.981,513.005 469.085,515.973C414.644,601.165 581.965,611.422 538.175,517.855C534.967,511 532.435,504.53 535.501,495.927C543.892,472.386 521.642,451.956 508.295,454.027ZM491.35,524.294C495.212,524.176 498.443,527.215 498.562,531.076C498.68,534.938 495.641,538.169 491.78,538.287C487.918,538.406 484.687,535.367 484.568,531.505C484.45,527.644 487.489,524.413 491.35,524.294ZM496.563,531.137C494.933,532.868 493.215,533.956 491.395,534.283C489.575,534.61 487.652,534.177 485.61,532.865C488.807,528.687 492.325,527.055 496.563,531.137ZM490.631,529.318C491.94,529.278 493.036,530.309 493.076,531.618C493.116,532.927 492.086,534.023 490.776,534.063C489.467,534.103 488.372,533.073 488.331,531.763C488.291,530.454 489.322,529.359 490.631,529.318ZM489.064,531.282C489.363,531.273 489.613,531.509 489.623,531.808C489.632,532.107 489.396,532.358 489.097,532.367C488.797,532.376 488.547,532.141 488.538,531.841C488.529,531.542 488.764,531.291 489.064,531.282ZM516.296,489.513C519.605,489.411 522.375,492.016 522.477,495.326C522.578,498.636 519.973,501.406 516.663,501.507C513.354,501.609 510.584,499.004 510.482,495.694C510.381,492.384 512.986,489.614 516.296,489.513ZM516.326,490.512C514.755,491.865 514.002,493.207 514.049,494.54C514.096,495.872 514.943,497.195 516.572,498.509C519.8,495.724 519.823,493.055 516.326,490.512ZM516.372,492.366C517.534,492.33 518.506,493.245 518.542,494.406C518.578,495.568 517.663,496.54 516.501,496.576C515.34,496.612 514.367,495.697 514.332,494.536C514.296,493.374 515.21,492.401 516.372,492.366ZM514.99,494.47C515.289,494.461 515.539,494.696 515.549,494.996C515.558,495.295 515.322,495.545 515.023,495.555C514.723,495.564 514.473,495.328 514.464,495.029C514.455,494.73 514.69,494.479 514.99,494.47Z" style="fill:white;"/>
    </g>
</svg>
