<?xml version="1.0" encoding="UTF-8" standalone="no"?>
<!DOCTYPE svg PUBLIC "-//W3C//DTD SVG 1.1//EN" "http://www.w3.org/Graphics/SVG/1.1/DTD/svg11.dtd">
<svg width="100%" height="100%" viewBox="0 0 1000 1000" version="1.1" xmlns="http://www.w3.org/2000/svg" xmlns:xlink="http://www.w3.org/1999/xlink" xml:space="preserve" xmlns:serif="http://www.serif.com/" style="fill-rule:evenodd;clip-rule:evenodd;stroke-linejoin:round;stroke-miterlimit:2;">
    <g transform="matrix(8.07175,0,0,8.07175,-3568.16,-3537.89)">
        <path d="M500.783,500.25L465.5,464C460.472,462.649 455.867,462.127 453,465C456.697,455.773 453.404,449.872 449,444.5L449.252,444.706C454.557,449.005 460.417,452.139 469.5,448.5C466.627,451.367 467.149,455.972 468.5,461L504,497.473L539.5,461C540.851,455.972 541.373,451.367 538.5,448.5C547.583,452.139 553.443,449.005 558.748,444.706L559,444.5C554.596,449.872 551.303,455.773 555,465C552.133,462.127 547.528,462.649 542.5,464L507.217,500.25L542.5,536.5C547.528,537.851 552.133,538.373 555,535.5C551.303,544.727 554.596,550.628 559,556L558.748,555.794C553.443,551.495 547.583,548.361 538.5,552C541.373,549.133 540.851,544.528 539.5,539.5L504,503.027L468.5,539.5C467.149,544.528 466.627,549.133 469.5,552C460.417,548.361 454.557,551.495 449.252,555.794L449,556C453.404,550.628 456.697,544.727 453,535.5C455.867,538.373 460.472,537.851 465.5,536.5L500.783,500.25Z" style="fill:white;"/>
    </g>
</svg>
