<?xml version="1.0" encoding="UTF-8" standalone="no"?>
<!DOCTYPE svg PUBLIC "-//W3C//DTD SVG 1.1//EN" "http://www.w3.org/Graphics/SVG/1.1/DTD/svg11.dtd">
<svg width="100%" height="100%" viewBox="0 0 1000 1000" version="1.1" xmlns="http://www.w3.org/2000/svg" xmlns:xlink="http://www.w3.org/1999/xlink" xml:space="preserve" xmlns:serif="http://www.serif.com/" style="fill-rule:evenodd;clip-rule:evenodd;stroke-linejoin:round;stroke-miterlimit:2;">
    <g transform="matrix(2.04545,0,0,2.04545,-559.322,-502.273)">
        <path d="M517.891,270C639.312,270 737.891,368.579 737.891,490C737.891,611.421 639.312,710 517.891,710C396.469,710 297.891,611.421 297.891,490C297.891,368.579 396.469,270 517.891,270ZM456.014,390C429.881,415.835 407.953,442.517 390,470C364.201,435.259 352.094,400.518 350,365.777C331.125,415.872 336.376,462.549 364.649,505.964C346.766,537.185 339.583,560.809 340.242,580C340.852,597.785 351.896,611.566 363,624.876C375.3,639.619 405.986,627.091 430,604.343C443.168,591.87 453.428,576.197 455.657,560C496.129,562.466 501.906,550.965 466.787,523C481.751,475.873 489.599,428.465 496,381C546.795,354.984 591.948,349.671 620,373.119C662.59,408.719 662.394,464.326 630,540C546.077,518.209 478.561,570.785 494.072,596.728C507.961,619.957 572.814,636.042 634.169,590C648.261,609.827 659.479,621.096 670,623.242C676.762,624.622 683.237,622.232 690,615.923C696.798,609.582 707.866,594.955 670,550C700.442,473.245 700.409,415.448 641.517,360C609.915,330.246 561.49,333.237 496.036,364.298C497.724,350.598 496.372,340.488 490,336.688C466.5,322.677 443.222,328.812 424.397,343C448.063,340.972 463.338,350.254 456.014,390ZM410,550L380,530C368.36,565.45 364.681,603.767 380,600.666C399.044,596.81 399.864,581.573 410,550ZM610,570C589.723,561.7 564.832,558.38 544.955,560.68C525.079,562.98 510.217,570.901 510,585.083C509.806,597.723 546.263,618.878 610,570ZM450,410C432.503,431.032 416.191,453.486 403.265,480L430,504.252C444.603,474.458 452.227,443.089 450,410Z" style="fill:white;"/>
    </g>
</svg>
