<?xml version="1.0" encoding="UTF-8" standalone="no"?>
<!DOCTYPE svg PUBLIC "-//W3C//DTD SVG 1.1//EN" "http://www.w3.org/Graphics/SVG/1.1/DTD/svg11.dtd">
<svg width="100%" height="100%" viewBox="0 0 1000 1000" version="1.1" xmlns="http://www.w3.org/2000/svg" xmlns:xlink="http://www.w3.org/1999/xlink" xml:space="preserve" xmlns:serif="http://www.serif.com/" style="fill-rule:evenodd;clip-rule:evenodd;stroke-linejoin:round;stroke-miterlimit:2;">
    <g transform="matrix(1.75867,0,0,1.75867,-78.5068,-208.085)">
        <path d="M205.306,357.499L205.306,220.563L333.153,146.75L461,220.563L461,368.188L460.853,368.273L580,437.063L580,584.688L452.153,658.5L324.306,584.688L324.306,584.045L205.738,652.5L77.891,578.688L77.891,431.063L205.306,357.499ZM452.153,373.964L570.721,442.42L570.721,579.33L452.153,647.786L333.585,579.33L333.585,442.42L452.153,373.964ZM205.329,368.201L87.17,436.42L87.17,573.33L205.738,641.786L324.306,573.33L324.306,436.892L205.329,368.201ZM454.06,385.058L560.084,446.271L560.084,568.698L454.06,629.911L348.035,568.698L348.035,446.271L454.06,385.058ZM207.644,379.058L313.669,440.271L313.669,562.698L207.644,623.911L101.62,562.698L101.62,440.271L207.644,379.058ZM452.153,423.289C476.26,423.289 480.945,461.005 480.322,462.084C480.945,461.005 515.951,446.205 528.005,467.082C540.058,487.959 509.738,510.875 508.492,510.875C509.738,510.875 540.058,533.791 528.005,554.668C515.951,575.545 480.945,560.745 480.322,559.666C480.945,560.745 476.26,598.461 452.153,598.461C428.046,598.461 423.361,560.745 423.984,559.666C423.361,560.745 388.355,575.545 376.301,554.668C364.248,533.791 394.568,510.875 395.814,510.875C394.568,510.875 364.248,487.959 376.301,467.082C388.355,446.205 423.361,461.005 423.984,462.084C423.361,461.005 428.046,423.289 452.153,423.289ZM205.738,417.289C229.845,417.289 234.53,455.005 233.907,456.084C234.53,455.005 269.536,440.205 281.59,461.082C293.643,481.959 263.322,504.875 262.076,504.875C263.322,504.875 293.643,527.791 281.59,548.668C269.536,569.545 234.53,554.745 233.907,553.666C234.53,554.745 229.845,592.461 205.738,592.461C181.631,592.461 176.945,554.745 177.568,553.666C176.945,554.745 141.94,569.545 129.886,548.668C117.832,527.791 148.153,504.875 149.399,504.875C148.153,504.875 117.832,481.959 129.886,461.082C141.94,440.205 176.945,455.005 177.568,456.084C176.945,455.005 181.631,417.289 205.738,417.289ZM452.153,482.621C467.747,482.621 480.407,495.281 480.407,510.875C480.407,526.469 467.747,539.129 452.153,539.129C436.559,539.129 423.899,526.469 423.899,510.875C423.899,495.281 436.559,482.621 452.153,482.621ZM205.738,476.621C221.331,476.621 233.991,489.281 233.991,504.875C233.991,520.469 221.331,533.129 205.738,533.129C190.144,533.129 177.484,520.469 177.484,504.875C177.484,489.281 190.144,476.621 205.738,476.621ZM333.562,431.049L451.721,362.83L451.721,225.92L333.153,157.464L214.585,225.92L214.585,362.358L333.562,431.049ZM335.06,168.558L441.084,229.771L441.084,352.198L335.06,413.411L229.035,352.198L229.035,229.771L335.06,168.558ZM333.153,206.789C357.26,206.789 361.945,244.505 361.322,245.584C361.945,244.505 396.951,229.705 409.005,250.582C421.058,271.459 390.738,294.375 389.492,294.375C390.738,294.375 421.058,317.291 409.005,338.168C396.951,359.045 361.945,344.245 361.322,343.166C361.945,344.245 357.26,381.961 333.153,381.961C309.046,381.961 304.361,344.245 304.984,343.166C304.361,344.245 269.355,359.045 257.301,338.168C245.248,317.291 275.568,294.375 276.814,294.375C275.568,294.375 245.248,271.459 257.301,250.582C269.355,229.705 304.361,244.505 304.984,245.584C304.361,244.505 309.046,206.789 333.153,206.789ZM333.153,266.121C348.747,266.121 361.407,278.781 361.407,294.375C361.407,309.969 348.747,322.629 333.153,322.629C317.559,322.629 304.899,309.969 304.899,294.375C304.899,278.781 317.559,266.121 333.153,266.121Z" style="fill:white;"/>
    </g>
</svg>
