<?xml version="1.0" encoding="UTF-8" standalone="no"?>
<!DOCTYPE svg PUBLIC "-//W3C//DTD SVG 1.1//EN" "http://www.w3.org/Graphics/SVG/1.1/DTD/svg11.dtd">
<svg width="100%" height="100%" viewBox="0 0 1000 1000" version="1.1" xmlns="http://www.w3.org/2000/svg" xmlns:xlink="http://www.w3.org/1999/xlink" xml:space="preserve" xmlns:serif="http://www.serif.com/" style="fill-rule:evenodd;clip-rule:evenodd;stroke-linejoin:round;stroke-miterlimit:2;">
    <g transform="matrix(2.85056,0,0,2.85056,-1237.33,-1249.86)">
        <path d="M752.302,743.607C746.618,732.664 742.557,720.774 741.358,707.882C740.065,693.987 742.318,680.132 742.504,660.969C769.37,605.824 766.458,551.529 745.353,518.868C721.507,481.968 675.887,479.579 606.472,541.531C587.111,563.076 594.741,595.561 627.372,607.774C636.572,610.763 629.659,594.861 622.872,579.108C630.12,591.497 636.374,604.017 634.361,617.631C629.088,642.253 638.051,660.408 651.784,676.397C658.987,698.289 653.231,720.794 641.298,743.59C651.766,770.64 673.104,775.727 700.188,769.131C721.406,763.964 745.851,764.976 752.302,743.607ZM743.16,733.146C738.068,712.198 736.81,690.368 738.728,667.806C704.926,689.874 677.681,694.627 657.639,680.361C658.983,702.996 656.482,720.562 650.587,733.655C676.189,760.708 707.238,759.547 743.16,733.146ZM466.638,706.871C472.322,695.928 476.383,684.038 477.582,671.146C478.875,657.251 476.622,643.396 476.436,624.233C449.57,569.088 452.482,514.793 473.588,482.132C497.433,445.232 543.053,442.843 612.468,504.795C614.22,507.055 614.67,509.837 614.189,513.004C611.354,531.684 576.129,563.746 584.579,580.895C589.852,605.517 580.889,623.672 567.156,639.661C559.953,661.554 565.71,684.058 577.643,706.855C567.174,733.904 545.836,738.991 518.753,732.396C497.534,727.228 473.09,728.24 466.638,706.871ZM475.78,696.411C480.872,675.463 482.131,653.632 480.212,631.07C514.014,653.138 541.259,657.891 561.301,643.625C559.957,666.26 562.458,683.827 568.353,696.92C542.751,723.973 511.702,722.811 475.78,696.411Z" style="fill:white;"/>
    </g>
</svg>
