<?xml version="1.0" encoding="UTF-8" standalone="no"?>
<!DOCTYPE svg PUBLIC "-//W3C//DTD SVG 1.1//EN" "http://www.w3.org/Graphics/SVG/1.1/DTD/svg11.dtd">
<svg width="100%" height="100%" viewBox="0 0 1000 1000" version="1.1" xmlns="http://www.w3.org/2000/svg" xmlns:xlink="http://www.w3.org/1999/xlink" xml:space="preserve" xmlns:serif="http://www.serif.com/" style="fill-rule:evenodd;clip-rule:evenodd;stroke-linejoin:round;stroke-miterlimit:2;">
    <g transform="matrix(27.5068,0,0,22.4877,-12805.1,-8639.13)">
        <path d="M493.35,416.676C494.219,417.032 495.024,417.094 495.737,416.907C496.701,416.654 497.665,415.941 498.287,414.252C498.837,412.759 499.188,410.165 499.188,406C499.188,403.025 499.062,401.042 498.81,399.749C498.566,398.496 498.159,397.719 497.723,397.229C496.998,396.415 496.111,396.115 494.981,396.217C494.443,396.266 493.793,396.485 493.017,396.717C493.872,394.858 494.634,393.334 494.893,392.129C495.18,390.792 494.988,389.697 494.339,388.799C493.832,388.097 492.982,387.462 491.566,387.051C490.103,386.626 487.844,386.395 484.5,386.395C481.125,386.395 478.894,386.664 477.463,387.131C476.078,387.583 475.261,388.255 474.77,389.002C474.055,390.092 473.976,391.491 474.428,393.213C474.657,394.083 475.028,395.077 475.387,396.194C474.615,395.935 473.952,395.757 473.386,395.673C472.011,395.468 470.995,395.739 470.212,396.347C469.511,396.892 468.935,397.791 468.621,399.244C468.31,400.687 468.215,402.871 468.215,406C468.215,409.322 468.584,411.444 469.166,412.742C469.76,414.064 470.595,414.765 471.543,415.116C472.392,415.43 473.391,415.448 474.528,415.183C474.647,415.155 474.769,415.124 474.894,415.089C474.371,416.397 473.895,417.587 473.609,418.644C473.104,420.505 473.166,422.066 473.893,423.3C474.406,424.169 475.259,424.934 476.658,425.475C478.182,426.064 480.525,426.417 484,426.417C489.171,426.417 491.771,425.197 492.949,423.503C493.761,422.334 494.036,420.852 493.825,419.045C493.74,418.32 493.574,417.53 493.35,416.676ZM490,399.144C492.924,391.513 497.425,388.217 484.5,388.217C471.575,388.217 476.839,391.988 478,399.144C470.831,396.217 470.038,396.165 470.038,406C470.038,415.835 473.087,413.917 478,412C475.451,419.684 470.826,424.594 484,424.594C494.647,424.594 492.573,419.99 490,412C494.245,415.569 497.365,418.815 497.365,406C497.365,394.298 495.519,398.831 490,399.144ZM495.305,399.49C495.368,399.634 495.499,399.956 495.562,400.253C495.808,401.407 495.904,403.222 495.904,406C495.904,409.038 495.734,411.126 495.394,412.493C495.287,412.92 495.17,413.261 495.026,413.52C494.986,413.592 494.915,413.683 494.88,413.725C494.82,413.71 494.656,413.665 494.547,413.617C494.299,413.508 494.039,413.35 493.764,413.163C492.909,412.581 491.96,411.739 490.94,410.882C490.442,410.463 489.726,410.424 489.185,410.787C488.645,411.151 488.41,411.828 488.609,412.448C489.362,414.784 490.076,416.821 490.419,418.531C490.676,419.816 490.786,420.862 490.253,421.628C489.926,422.098 489.359,422.409 488.544,422.651C487.436,422.979 485.95,423.133 484,423.133C481.538,423.133 479.739,422.964 478.459,422.613C477.573,422.37 476.995,422.096 476.721,421.632C476.389,421.069 476.547,420.353 476.777,419.503C477.3,417.576 478.479,415.197 479.387,412.46C479.565,411.922 479.416,411.33 479.006,410.941C478.595,410.551 477.996,410.433 477.469,410.639C476.28,411.103 475.205,411.57 474.26,411.856C473.643,412.043 473.119,412.198 472.684,412.037C472.336,411.908 472.17,411.519 471.987,410.925C471.653,409.847 471.498,408.26 471.498,406C471.498,403.63 471.541,401.855 471.72,400.57C471.781,400.137 471.856,399.769 471.956,399.462C472.032,399.23 472.092,399.044 472.227,398.94C472.31,398.875 472.423,398.886 472.552,398.889C472.797,398.893 473.073,398.941 473.387,399.017C474.417,399.267 475.741,399.8 477.448,400.497C477.937,400.697 478.496,400.617 478.909,400.288C479.323,399.959 479.527,399.432 479.442,398.91C479.081,396.683 478.344,394.77 477.841,393.186C477.636,392.541 477.47,391.964 477.427,391.453C477.406,391.206 477.396,390.985 477.515,390.805C477.753,390.442 478.272,390.274 479.074,390.091C480.308,389.809 482.061,389.678 484.5,389.678C486.956,389.678 488.75,389.794 490.026,390.053C490.87,390.224 491.423,390.369 491.678,390.721C491.764,390.841 491.747,390.991 491.729,391.157C491.7,391.434 491.616,391.735 491.503,392.065C490.932,393.725 489.681,395.894 488.636,398.622C488.459,399.084 488.528,399.606 488.82,400.006C489.113,400.406 489.588,400.631 490.083,400.603C491.596,400.517 492.86,400.15 493.901,399.836C494.325,399.709 494.703,399.59 495.041,399.523C495.121,399.507 495.229,399.496 495.305,399.49Z" style="fill:white;"/>
    </g>
</svg>
