<?xml version="1.0" encoding="UTF-8" standalone="no"?>
<!DOCTYPE svg PUBLIC "-//W3C//DTD SVG 1.1//EN" "http://www.w3.org/Graphics/SVG/1.1/DTD/svg11.dtd">
<svg width="100%" height="100%" viewBox="0 0 1000 1000" version="1.1" xmlns="http://www.w3.org/2000/svg" xmlns:xlink="http://www.w3.org/1999/xlink" xml:space="preserve" xmlns:serif="http://www.serif.com/" style="fill-rule:evenodd;clip-rule:evenodd;stroke-linejoin:round;stroke-miterlimit:2;">
    <g transform="matrix(1.01808,0,0,1.01808,-9.03959,-9.03959)">
        <path d="M780.57,853.157C777.051,856.106 773.488,859.035 769.89,861.935C764.558,867.547 740.912,798.208 712.671,733.127C699.824,703.521 692.514,668.513 672.569,654.41C602.668,604.985 299.07,522.464 311.905,496.978C260.084,545.87 226.281,483.502 195.262,403.95C177.369,392.731 161.031,379.187 148.748,359.582C237.978,337.528 310.085,288.408 350.548,189.269C372.027,194.98 420.215,188.433 467.906,182.113C445.792,192.204 422.621,202.032 392.053,210.021C417.814,213.571 443.576,213.427 469.338,210.021C450.618,216.055 431.057,221.433 409.227,225.049C437.762,226.109 465.831,224.178 493.668,220.755C476.791,230.482 458.478,239.155 436.42,245.086C455.192,246.035 476.823,245.471 500.824,243.655C490.054,250.637 477.04,257.397 459.319,263.692C489.09,279.536 520.907,292.414 553.779,303.765C542.624,309.517 530.024,314.74 512.274,318.077C533.576,327.987 556.519,335.559 580.972,340.977C570.008,346.113 557.083,350.022 539.467,350.995C556.396,358.757 574.122,365.324 592.421,371.032C583.569,373.711 574.353,376.149 562.366,376.757C570.173,385.727 581.236,391.922 593.852,396.794C588.392,398.732 582.623,400.288 576.1,400.91C595.576,407.059 650.713,586.589 708.349,617.199C732.012,629.766 772.609,635.695 812.827,640.645C880.071,648.922 947.65,651.7 941.635,661.566C937.341,668.9 932.94,676.145 928.424,683.31L755.578,640.098L921.859,693.545C917.672,699.96 913.394,706.301 909.031,712.561L748.422,647.254L901.167,723.626C896.049,730.69 890.812,737.655 885.451,744.526L741.266,654.41L880.259,751.101C873.76,759.236 867.086,767.229 860.236,775.08L734.11,661.566L854.32,781.776C848.073,788.759 841.683,795.625 835.148,802.374L726.954,668.722L825.05,812.596C820.492,817.117 815.867,821.584 811.174,825.995L719.798,675.878L799.998,836.278C795.242,840.562 790.416,844.793 785.523,848.968L712.642,683.034L780.57,853.157ZM266,320C256.068,328.908 241.517,337.237 222.455,345L242,398L254,380L254,416L266,404L290,440L290,404L350,452L314,392L350,404L314,372.629L338,356L302,344L314,332L266,320ZM576.1,400.91C575.687,400.779 575.289,400.726 574.908,400.755C574.528,400.783 574.163,400.893 573.815,401.087C574.588,401.041 575.349,400.982 576.1,400.91ZM64.058,246.893C55.675,224.071 55.973,204.878 64.993,189.269C92.472,141.714 153.871,128.204 254.657,146.333C286.027,147.795 325.293,144.232 369.153,137.746C361.563,147.023 350.891,154.556 337.667,160.645C378.317,162.128 417.188,158.562 455.026,152.058C436.088,158.941 416.335,166.424 383.465,183.544C371.561,188.421 357.377,188.229 340.529,182.113C305.662,277.558 234.844,329.985 140.161,353.857C102.058,313.896 77.168,279.579 65.57,250.818L82.912,227.911L97.225,266.554L111.537,246.517L140.161,275.141L148.748,245.802L154.473,260.829L168.785,246.517L183.097,260.829L191.684,246.517L204.565,260.829L211.721,240.792L226.033,245.802L211.721,226.48L201.702,245.802L190.253,232.205L183.097,246.517L164.491,232.205L154.473,246.517L145.885,217.893L140.161,260.829L111.537,226.48L97.225,245.802L82.912,203.581L64.058,246.893ZM180.234,151.342C203.537,151.342 222.455,164.489 222.455,180.682C222.455,196.875 203.537,210.021 180.234,210.021C156.932,210.021 138.014,196.875 138.014,180.682C138.014,164.489 156.932,151.342 180.234,151.342ZM180.234,156.812C199.192,156.812 214.583,167.508 214.583,180.682C214.583,193.856 199.192,204.551 180.234,204.551C161.277,204.551 145.885,193.856 145.885,180.682C145.885,167.508 161.277,156.812 180.234,156.812ZM178.803,165.654C191.047,165.654 200.987,172.388 200.987,180.682C200.987,188.976 191.047,195.709 178.803,195.709C166.56,195.709 156.619,188.976 156.619,180.682C156.619,172.388 166.56,165.654 178.803,165.654ZM178.803,169.532C187.887,169.532 195.262,174.528 195.262,180.682C195.262,186.835 187.887,191.831 178.803,191.831C169.719,191.831 162.344,186.835 162.344,180.682C162.344,174.528 169.719,169.532 178.803,169.532ZM178.803,172.095C185.799,172.095 191.48,175.942 191.48,180.682C191.48,185.421 185.799,189.269 178.803,189.269C171.807,189.269 166.127,185.421 166.127,180.682C166.127,175.942 171.807,172.095 178.803,172.095Z" style="fill:white;"/>
    </g>
</svg>
