<?xml version="1.0" encoding="UTF-8" standalone="no"?>
<!DOCTYPE svg PUBLIC "-//W3C//DTD SVG 1.1//EN" "http://www.w3.org/Graphics/SVG/1.1/DTD/svg11.dtd">
<svg width="100%" height="100%" viewBox="0 0 1000 1000" version="1.1" xmlns="http://www.w3.org/2000/svg" xmlns:xlink="http://www.w3.org/1999/xlink" xml:space="preserve" xmlns:serif="http://www.serif.com/" style="fill-rule:evenodd;clip-rule:evenodd;stroke-linejoin:round;stroke-miterlimit:2;">
    <g transform="matrix(2.97632,0,0,2.97632,-986.375,-922.106)">
        <path d="M562.106,370L589.3,326.613L589.3,570L499.5,628.869L499.5,629L499.4,628.934L499.3,629L499.3,628.869L409.5,570L409.5,326.613L436.694,370L562.106,370ZM499.4,599.941L559.3,564.559L559.3,540.233L542.3,552L529.385,539.085L529.385,561L522.297,568.088L509.573,555.365L509.573,575L499.4,584.504L489.227,575L489.227,555.365L476.503,568.088L469.415,561L469.415,539.085L456.5,552L439.5,540.233L439.5,564.559L499.4,599.941ZM486.833,462.618L488,458L471,472C464.993,477.639 466.545,480.92 477,480L501,478C493.668,495.643 495.308,504.332 514,496C515.143,502.177 512.839,510.182 509,519C489.829,519.461 487.514,518.557 487,516.245C486.712,514.951 490.747,507.68 498,514C488.648,495.022 471.899,516.919 471.546,519C470.69,524.043 476.029,529.471 484,529.564C497.595,529.721 514.37,530.283 518.44,527C524.216,522.341 526.982,505.585 522,491C520.726,484.376 518.788,477.168 526,478C531.312,478.465 534.882,476.903 533,469C532.697,467.259 531.528,465.58 529,464C521.366,463.693 512.691,465.039 503,468C478.778,472.482 478.173,469.094 486.833,462.618ZM516,481C515.899,477.233 511.814,477.664 510,480L508,484.522C505.414,491.124 509.565,492.671 511,492.944C512.249,493.181 516.355,492.222 516,486L516,481ZM439.5,400L439.5,439.039L457.263,433.745L472.518,449L472.518,426.255L480.211,418.562L492.65,431L492.65,412.988L499.4,406.238L506.15,412.988L506.15,431L518.589,418.562L526.282,426.255L526.282,449L541.537,433.745L559.3,439.039L559.3,400L439.5,400Z" style="fill:white;"/>
    </g>
</svg>
