<?xml version="1.0" encoding="UTF-8" standalone="no"?>
<!DOCTYPE svg PUBLIC "-//W3C//DTD SVG 1.1//EN" "http://www.w3.org/Graphics/SVG/1.1/DTD/svg11.dtd">
<svg width="100%" height="100%" viewBox="0 0 1000 1000" version="1.1" xmlns="http://www.w3.org/2000/svg" xmlns:xlink="http://www.w3.org/1999/xlink" xml:space="preserve" xmlns:serif="http://www.serif.com/" style="fill-rule:evenodd;clip-rule:evenodd;stroke-linejoin:round;stroke-miterlimit:2;">
    <g transform="matrix(5.18792,0,0,5.18792,-1994.61,-2285.07)">
        <path d="M565.594,578.161L562,592.502L541,599L520.901,573.898C507.787,580.206 491.781,583.913 474.511,583.913C430.137,583.913 394.111,559.44 394.111,529.296C394.111,499.151 430.137,474.678 474.511,474.678C518.885,474.678 554.911,499.151 554.911,529.296C554.911,537.323 552.356,544.948 547.769,551.816L557.411,560.64L557.148,567.546C556.813,567.611 556.501,567.743 556.228,567.927L547.019,559.393L555.553,568.602C555.368,568.876 555.236,569.187 555.171,569.523L542.626,570L555.171,570.477C555.236,570.813 555.368,571.124 555.553,571.398L547.019,580.607L556.228,572.073C556.501,572.257 556.813,572.389 557.148,572.454L557.626,585L558.103,572.454C558.438,572.389 558.75,572.257 559.023,572.073L565.594,578.161ZM567.591,570.192L565.673,577.845L559.698,571.398C559.883,571.124 560.015,570.813 560.08,570.477L567.591,570.192ZM471.841,481C511.491,481 543.682,501.164 543.682,526C543.682,550.836 511.491,571 471.841,571C432.191,571 400,550.836 400,526C400,501.164 432.191,481 471.841,481ZM562.641,565.427L567.423,569.802L560.08,569.523C560.015,569.187 559.883,568.876 559.698,568.602L562.641,565.427ZM557.856,561.047L562.179,565.003L559.023,567.927C558.75,567.743 558.438,567.611 558.103,567.546L557.856,561.047Z" style="fill:white;"/>
    </g>
</svg>
