<?xml version="1.0" encoding="UTF-8" standalone="no"?>
<!DOCTYPE svg PUBLIC "-//W3C//DTD SVG 1.1//EN" "http://www.w3.org/Graphics/SVG/1.1/DTD/svg11.dtd">
<svg width="100%" height="100%" viewBox="0 0 1000 1000" version="1.1" xmlns="http://www.w3.org/2000/svg" xmlns:xlink="http://www.w3.org/1999/xlink" xml:space="preserve" xmlns:serif="http://www.serif.com/" style="fill-rule:evenodd;clip-rule:evenodd;stroke-linejoin:round;stroke-miterlimit:2;">
    <g transform="matrix(7.58884,0,0,7.58884,-3504.17,-3330.84)">
        <path d="M527.659,466.712C538.253,466.723 544.428,471.547 549,480C552.42,507.815 541.33,514.634 532,524C531.095,528.691 533.38,532.111 537,535C537.872,535.696 537.274,537.04 535.766,538.769C533.32,536.382 531.956,533.994 530.851,531.606C530.633,531.137 530.076,530.932 529.606,531.149C529.137,531.367 528.932,531.924 529.149,532.394C530.344,534.974 531.822,537.553 534.475,540.131C532.909,541.677 530.836,543.433 528.557,545.256L528.557,534C528.557,533.489 528.147,533.073 527.639,533.063C527.131,533.073 526.721,533.489 526.721,534L526.721,545.256C524.442,543.433 522.369,541.677 520.803,540.131C523.456,537.553 524.934,534.974 526.129,532.394C526.346,531.924 526.141,531.367 525.672,531.149C525.202,530.932 524.645,531.137 524.427,531.606C523.322,533.994 521.958,536.382 519.512,538.769C518.004,537.04 517.406,535.696 518.278,535C521.898,532.111 524.183,528.691 523.278,524C513.948,514.634 502.858,507.815 506.278,480C510.85,471.547 517.025,466.723 527.619,466.712L527.619,466.711L527.639,466.712L527.659,466.711L527.659,466.712ZM539.615,520.685C538.963,521.371 538.29,522.051 537.595,522.725C538.852,524.519 540.432,526.248 542.229,527.936C544.618,528.015 547.079,527.731 549.561,527.119C546.634,524.923 544.252,522.578 542.563,520.051C541.602,520.293 540.62,520.504 539.615,520.685ZM515.663,520.685C516.314,521.371 516.988,522.051 517.683,522.725C516.426,524.519 514.846,526.248 513.049,527.936C510.66,528.015 508.199,527.731 505.717,527.119C508.644,524.923 511.026,522.578 512.715,520.051C513.676,520.293 514.658,520.504 515.663,520.685ZM536.219,524.026C535.5,524.69 534.76,525.348 534,526C535.68,526.793 537.443,527.334 539.265,527.641C538.128,526.459 537.103,525.256 536.219,524.026ZM519.058,524.026C519.778,524.69 520.518,525.348 521.278,526C519.598,526.793 517.835,527.334 516.012,527.641C517.15,526.459 518.175,525.256 519.058,524.026ZM551.849,526.464C554.482,525.609 557.121,524.399 559.702,522.879C556.054,521.043 553.135,519.012 551.351,516.696C549.209,517.836 546.919,518.781 544.476,519.521C546.262,522.019 548.782,524.314 551.849,526.464ZM503.429,526.464C500.796,525.609 498.157,524.399 495.575,522.879C499.224,521.043 502.143,519.012 503.927,516.696C506.069,517.836 508.358,518.781 510.802,519.521C509.015,522.019 506.496,524.314 503.429,526.464ZM561.569,521.719C563.281,520.6 564.959,519.346 566.587,517.97C561.297,516.484 558.106,514.993 556.278,513.535C555.229,514.335 554.137,515.077 553.001,515.761C554.831,518.026 557.844,519.963 561.569,521.719ZM493.709,521.719C491.997,520.6 490.318,519.346 488.69,517.97C493.981,516.484 497.172,514.993 499,513.535C500.049,514.335 501.141,515.077 502.277,515.761C500.447,518.026 497.434,519.963 493.709,521.719ZM545.619,513.294C544.461,515.001 543.172,516.675 541.759,518.317C546.107,517.261 549.971,515.568 553.389,513.286C550.383,513.591 547.863,513.542 545.619,513.294ZM509.659,513.294C510.817,515.001 512.106,516.675 513.519,518.317C509.171,517.261 505.306,515.568 501.889,513.286C504.895,513.591 507.414,513.542 509.659,513.294ZM568.265,516.493C570.31,514.617 572.26,512.548 574.075,510.313C573.103,510.384 572.152,510.413 571.229,510.389C567.878,510.303 564.869,509.529 562.429,507.629C560.991,509.347 559.441,510.917 557.774,512.332C558.493,512.861 559.427,513.39 560.614,513.927C562.501,514.78 564.998,515.634 568.265,516.493ZM487.013,516.493C484.968,514.617 483.018,512.548 481.202,510.313C482.175,510.384 483.125,510.413 484.049,510.389C487.4,510.303 490.408,509.529 492.848,507.629C494.287,509.347 495.837,510.917 497.504,512.332C496.784,512.861 495.851,513.39 494.664,513.927C492.777,514.78 490.28,515.634 487.013,516.493ZM547.071,511.027C546.973,511.191 546.873,511.354 546.773,511.516C549.317,511.72 552.244,511.645 555.854,511.074C556.006,511.05 556.159,511.064 556.301,511.112C558.032,509.674 559.632,508.062 561.108,506.288C561.004,505.964 561.08,505.594 561.337,505.337C561.541,505.133 561.816,505.043 562.083,505.066C562.408,504.644 562.726,504.213 563.037,503.775C559.783,505.25 556.449,505.697 553.041,505.156C551.325,507.162 549.348,509.121 547.071,511.027ZM508.207,511.027C508.305,511.191 508.404,511.354 508.505,511.516C505.961,511.72 503.034,511.645 499.424,511.074C499.272,511.05 499.118,511.064 498.977,511.112C497.246,509.674 495.645,508.062 494.17,506.288C494.274,505.964 494.198,505.594 493.941,505.337C493.737,505.133 493.461,505.043 493.194,505.066C492.87,504.644 492.552,504.213 492.241,503.775C495.495,505.25 498.828,505.697 502.236,505.156C503.953,507.162 505.93,509.121 508.207,511.027ZM538.468,504.22L540.999,500C539.253,500.454 537.962,501.649 537.004,503.383C536.513,504.27 536.11,505.298 535.777,506.441C535.237,507.301 534.688,508.397 534.129,509.652C534.26,510.092 534.423,510.472 534.758,510.606C535.092,510.74 535.472,510.577 535.606,510.242L535.871,510.348C536.4,508.865 536.929,507.611 537.47,506.725C537.755,506.259 538.014,505.892 538.306,505.699C538.448,505.605 538.583,505.536 538.731,505.594C539.059,505.743 539.446,505.598 539.594,505.269C539.743,504.941 539.598,504.554 539.269,504.406C539.009,504.272 538.741,504.211 538.468,504.22ZM516.81,504.22L514.278,500C516.025,500.454 517.316,501.649 518.274,503.383C518.764,504.27 519.168,505.298 519.501,506.441C520.04,507.301 520.59,508.397 521.148,509.652C521.017,510.092 520.854,510.472 520.52,510.606C520.186,510.74 519.805,510.577 519.672,510.242L519.407,510.348C518.877,508.865 518.348,507.611 517.807,506.725C517.523,506.259 517.264,505.892 516.971,505.699C516.83,505.605 516.695,505.536 516.547,505.594C516.219,505.743 515.832,505.598 515.683,505.269C515.535,504.941 515.68,504.554 516.008,504.406C516.269,504.272 516.537,504.211 516.81,504.22ZM479.623,508.281C478.468,506.727 477.376,505.102 476.362,503.414C481.373,504.241 485.656,503.941 488.988,502.235C489.833,503.613 490.729,504.923 491.677,506.164C489.551,507.809 486.917,508.439 484.001,508.514C482.598,508.551 481.132,508.458 479.623,508.281ZM575.655,508.281C576.81,506.727 577.901,505.102 578.916,503.414C573.905,504.241 569.621,503.941 566.29,502.235C565.445,503.613 564.549,504.923 563.601,506.164C565.727,507.809 568.361,508.439 571.277,508.514C572.679,508.551 574.146,508.458 575.655,508.281ZM551.376,501.424C551.13,502.241 550.856,503.051 550.556,503.854C550.891,503.59 551.223,503.355 551.552,503.177C551.752,503.067 551.986,503.035 552.208,503.086C552.237,503.093 552.266,503.099 552.294,503.105C553.136,502.069 553.907,501.02 554.614,499.959C553.549,500.489 552.47,500.977 551.376,501.424ZM503.902,501.424C504.148,502.241 504.422,503.051 504.722,503.854C504.387,503.59 504.055,503.355 503.726,503.177C503.525,503.067 503.292,503.035 503.069,503.086C503.041,503.093 503.012,503.099 502.983,503.105C502.142,502.069 501.371,501.02 500.664,499.959C501.729,500.489 502.808,500.977 503.902,501.424ZM568.418,493.97C565.725,496.259 562.525,497.831 558.274,497.932C558.165,497.999 558.056,498.065 557.947,498.131C556.946,499.93 555.784,501.7 554.44,503.439C558.132,503.761 561.723,502.762 565.21,500.405C566.385,498.4 567.453,496.252 568.418,493.97ZM486.86,493.97C489.552,496.259 492.753,497.831 497.004,497.932C497.112,497.999 497.221,498.065 497.331,498.131C498.332,499.93 499.493,501.7 500.838,503.439C497.145,503.761 493.555,502.762 490.067,500.405C488.892,498.4 487.825,496.252 486.86,493.97ZM583.17,494.823C578.442,496.561 573.887,497.012 569.527,496.084C568.816,497.661 568.054,499.172 567.241,500.616C570.591,502.302 574.976,502.368 580.134,501.291C581.268,499.216 582.287,497.054 583.17,494.823ZM472.108,494.823C476.836,496.561 481.39,497.012 485.751,496.084C486.462,497.661 487.224,499.172 488.037,500.616C484.687,502.302 480.302,502.368 475.144,501.291C474.01,499.216 472.991,497.054 472.108,494.823ZM552.974,492.144C552.859,494.523 552.53,496.848 551.994,499.121C553.533,498.436 555.041,497.664 556.517,496.799C557.882,494.277 558.926,491.698 559.719,489.073C557.326,490.655 555.101,491.589 552.974,492.144ZM502.304,492.144C502.418,494.523 502.748,496.848 503.283,499.121C501.745,498.436 500.237,497.664 498.761,496.799C497.396,494.277 496.352,491.698 495.558,489.073C497.952,490.655 500.177,491.589 502.304,492.144ZM571.257,485.892C568.283,488.24 565.172,489.183 561.905,488.297C561.199,490.915 560.267,493.492 559.045,496.017C563.961,495.636 567.231,492.939 570.071,489.644C570.491,488.426 570.886,487.174 571.257,485.892ZM484.021,485.892C486.995,488.24 490.106,489.183 493.373,488.297C494.078,490.915 495.011,493.492 496.232,496.017C491.317,495.636 488.046,492.939 485.207,489.644C484.787,488.426 484.392,487.174 484.021,485.892ZM527.639,489.367C526.516,489.367 525.173,489.959 524.269,490.377C522.239,491.316 521.179,492.556 520.485,493.502C520.297,493.753 520.266,494.09 520.407,494.371C520.547,494.652 520.834,494.829 521.148,494.829C521.148,494.829 526.541,494.757 527.619,494.742C527.619,494.742 527.619,494.742 527.619,494.742C527.622,494.742 527.632,494.742 527.639,494.742C527.646,494.742 527.655,494.742 527.659,494.742C527.659,494.742 527.659,494.742 527.659,494.742C528.737,494.757 534.129,494.829 534.129,494.829C534.444,494.829 534.731,494.652 534.871,494.371C535.011,494.09 534.981,493.753 534.792,493.502C534.099,492.556 533.039,491.316 531.009,490.377C530.104,489.959 528.762,489.367 527.639,489.367ZM585.328,488.168C580.365,490.861 575.784,491.731 571.551,491.053C571.151,492.172 570.73,493.264 570.289,494.326C574.676,495.17 579.265,494.495 584.043,492.46C584.528,491.055 584.958,489.622 585.328,488.168ZM469.949,488.168C474.913,490.861 479.493,491.731 483.727,491.053C484.127,492.172 484.548,493.264 484.989,494.326C480.602,495.17 476.013,494.495 471.234,492.46C470.75,491.055 470.32,489.622 469.949,488.168ZM527.659,491.213C528.096,491.343 529.561,491.666 530.285,491.984C531.109,492.345 531.745,492.769 532.249,493.197C532.249,493.197 528.424,493.248 527.659,493.258C527.659,493.258 527.659,493.259 527.659,493.259C527.655,493.259 527.646,493.258 527.639,493.258C527.632,493.258 527.622,493.259 527.619,493.259C527.619,493.259 527.619,493.258 527.619,493.258C526.854,493.248 523.029,493.197 523.029,493.197C523.532,492.769 524.168,492.345 524.993,491.984C525.716,491.666 527.181,491.343 527.619,491.213C527.621,491.213 527.617,491.207 527.619,491.206C527.622,491.206 527.632,491.21 527.639,491.21C527.646,491.21 527.655,491.206 527.659,491.206C527.661,491.207 527.656,491.213 527.659,491.213ZM543.455,485.64C542.704,486.682 541.854,487.602 540.879,488.38C539.95,489.12 538.898,489.716 537.679,490.119C537.438,490.51 537.263,490.885 537.387,491.224C537.51,491.562 537.885,491.737 538.224,491.613L538.321,491.881C539.72,491.322 540.918,490.564 541.942,489.62C542.959,488.683 543.809,487.58 544.545,486.36C544.743,486.059 544.66,485.654 544.36,485.455C544.059,485.257 543.654,485.34 543.455,485.64ZM511.822,485.64C512.574,486.682 513.424,487.602 514.399,488.38C515.328,489.12 516.379,489.716 517.599,490.119C517.84,490.51 518.014,490.885 517.891,491.224C517.767,491.562 517.392,491.737 517.054,491.613L516.956,491.881C515.558,491.322 514.359,490.564 513.335,489.62C512.319,488.683 511.469,487.58 510.733,486.36C510.535,486.059 510.618,485.654 510.918,485.455C511.219,485.257 511.624,485.34 511.822,485.64ZM561.757,477.974C558.718,479.012 555.392,479.935 552,481C552.682,484.147 553.016,487.206 553.02,490.178C555.324,489.504 557.759,488.328 560.425,486.259C560.444,486.245 560.464,486.231 560.483,486.218C561.118,483.508 561.518,480.755 561.757,477.974ZM493.521,477.974C496.56,479.012 499.885,479.935 503.278,481C502.596,484.147 502.262,487.206 502.258,490.178C499.953,489.504 497.519,488.328 494.853,486.259C494.834,486.245 494.814,486.231 494.795,486.218C494.16,483.508 493.76,480.755 493.521,477.974ZM586.688,480.494C582.878,482.995 578.709,484.581 573.701,484.037C573.234,485.832 572.724,487.57 572.17,489.25C576.373,489.833 580.926,488.712 585.9,485.677C586.248,483.976 586.513,482.246 586.688,480.494ZM468.59,480.494C472.4,482.995 476.569,484.581 481.577,484.037C482.044,485.832 482.554,487.57 483.108,489.25C478.905,489.833 474.352,488.712 469.378,485.677C469.03,483.976 468.765,482.246 468.59,480.494ZM540.182,481.404L530.907,482.067C530.787,482.183 530.676,482.299 530.586,482.417C530.369,482.387 530.171,482.407 530.003,482.513C529.698,482.705 529.606,483.108 529.799,483.413L529.557,483.565C530.441,484.927 531.305,485.964 532.151,486.679C533.631,487.928 535.073,488.276 536.445,487.838C538.039,487.33 539.622,485.621 541.059,482.65L541.065,482.649C541.423,482.614 541.685,482.293 541.649,481.935C541.638,481.817 541.595,481.709 541.53,481.619C541.677,481.292 541.533,480.907 541.207,480.757C540.879,480.607 540.492,480.752 540.342,481.079C540.288,481.189 540.235,481.298 540.182,481.404ZM515.096,481.404L524.371,482.067C524.491,482.183 524.601,482.299 524.692,482.417C524.909,482.387 525.107,482.407 525.275,482.513C525.58,482.705 525.671,483.108 525.479,483.413L525.72,483.565C524.837,484.927 523.973,485.964 523.127,486.679C521.647,487.928 520.204,488.276 518.833,487.838C517.239,487.33 515.656,485.621 514.219,482.65L514.213,482.649C513.854,482.614 513.593,482.293 513.628,481.935C513.64,481.817 513.683,481.709 513.748,481.619C513.6,481.292 513.745,480.907 514.071,480.757C514.399,480.607 514.786,480.752 514.936,481.079C514.99,481.189 515.043,481.298 515.096,481.404ZM574.4,470.617C573.329,471.481 572.194,472.406 571,473.376C569.01,474.992 566.508,476.216 563.694,477.28C563.465,480.383 563.051,483.454 562.359,486.475C565.839,487.421 569.062,485.767 572.16,482.524C573.083,478.793 573.826,474.818 574.4,470.617ZM480.877,470.617C481.949,471.481 483.084,472.406 484.278,473.376C486.268,474.992 488.77,476.216 491.583,477.28C491.813,480.383 492.227,483.454 492.919,486.475C489.439,487.421 486.216,485.767 483.118,482.524C482.195,478.793 481.452,474.818 480.877,470.617ZM539.398,482.864L531.977,483.819C532.601,484.674 533.215,485.319 533.828,485.752C534.56,486.269 535.269,486.468 535.98,486.272C537.162,485.947 538.277,484.783 539.398,482.864ZM515.88,482.864L523.301,483.819C522.677,484.674 522.063,485.319 521.45,485.752C520.718,486.269 520.009,486.468 519.298,486.272C518.116,485.947 517.001,484.783 515.88,482.864ZM576.509,468.937C575.931,473.627 575.153,478.055 574.161,482.199C579.116,482.658 583.154,480.79 586.87,478.101C587.075,474.137 586.812,470.086 586,466C585.342,462.691 581.938,464.681 576.509,468.937ZM478.769,468.937C479.347,473.627 480.125,478.055 481.117,482.199C476.162,482.658 472.123,480.79 468.408,478.101C468.203,474.137 468.466,470.086 469.278,466C469.936,462.691 473.34,464.681 478.769,468.937Z" style="fill:white;"/>
    </g>
</svg>
