<?xml version="1.0" encoding="UTF-8" standalone="no"?>
<!DOCTYPE svg PUBLIC "-//W3C//DTD SVG 1.1//EN" "http://www.w3.org/Graphics/SVG/1.1/DTD/svg11.dtd">
<svg width="100%" height="100%" viewBox="0 0 1000 1000" version="1.1" xmlns="http://www.w3.org/2000/svg" xmlns:xlink="http://www.w3.org/1999/xlink" xml:space="preserve" xmlns:serif="http://www.serif.com/" style="fill-rule:evenodd;clip-rule:evenodd;stroke-linejoin:round;stroke-miterlimit:2;">
    <g transform="matrix(4.22926,0,0,4.22926,-1368.04,-1698.16)">
        <path d="M404.223,555.629C403.2,557.895 402.395,560.221 401.813,562.608C374.256,554.069 349.908,610.996 372,624C383.736,630.908 399.058,620.213 408.16,605.764C416.918,591.859 419.917,574.477 408.419,565.959C410.39,564.458 412.235,562.817 413.976,561.06C420.222,561.534 425.839,562.801 431.337,563.392C437.602,564.066 443.715,563.878 450.391,560.813C505.721,535.41 522.729,505.946 519.626,480.194C517.292,460.826 503.559,443.444 485.912,431.269C468.31,419.123 446.835,412.168 429.047,413.515C419.82,414.214 407.47,418.901 399.112,425.734C393.392,430.411 389.558,436.102 389.644,442.172C389.702,446.249 391.509,450.529 395.781,454.81C401.938,460.98 413.332,467.22 432.091,472.923C470.275,484.531 479.185,513.233 469.565,529.8C465.507,536.788 458.135,541.536 448.338,541.788C423.724,542.421 412.128,544.625 407.002,547.099C404.026,548.534 403.027,550.152 402.862,551.594C402.694,553.052 403.412,554.442 404.168,555.549L404.223,555.629ZM375.437,616.284C379.343,618.583 383.724,618.569 388.063,616.918C394.317,614.54 400.493,608.71 404.86,601.777C408.496,596.004 410.875,589.475 411.047,583.585C411.225,577.502 409.079,572.088 403.656,568.742C391.679,561.352 379.721,570.307 373.235,582.721C369.402,590.056 367.5,598.548 368.597,605.356C369.357,610.07 371.541,613.991 375.437,616.284ZM376.388,614.669C372.974,612.659 371.114,609.189 370.448,605.058C369.407,598.598 371.26,590.55 374.897,583.59C380.859,572.179 391.663,563.544 402.671,570.337C407.482,573.305 409.331,578.135 409.173,583.53C409.01,589.118 406.723,595.301 403.273,600.778C399.136,607.346 393.322,612.912 387.396,615.166C383.615,616.604 379.793,616.673 376.388,614.669ZM414.664,559.234C420.711,559.743 426.181,560.952 431.538,561.528C437.478,562.167 443.278,562.015 449.609,559.109C503.812,534.224 520.804,505.645 517.764,480.418C515.491,461.552 502.037,444.672 484.848,432.812C467.614,420.921 446.604,414.066 429.189,415.385C420.283,416.059 408.366,420.59 400.299,427.186C395.069,431.462 391.44,436.595 391.519,442.145C391.584,446.765 394.241,451.608 400.505,456.458C407.007,461.491 417.326,466.475 432.636,471.129C472.434,483.228 481.213,513.474 471.186,530.741C466.824,538.253 458.918,543.392 448.387,543.662C426.612,544.222 415.195,545.976 409.457,548.098C406.427,549.218 405.107,550.33 404.783,551.504C404.572,552.269 404.845,552.999 405.194,553.648C405.254,553.759 405.317,553.868 405.381,553.975C410.105,553.72 412.994,555.725 414.664,559.234Z" style="fill:white;"/>
    </g>
</svg>
