<?xml version="1.0" encoding="UTF-8" standalone="no"?>
<!DOCTYPE svg PUBLIC "-//W3C//DTD SVG 1.1//EN" "http://www.w3.org/Graphics/SVG/1.1/DTD/svg11.dtd">
<svg width="100%" height="100%" viewBox="0 0 1000 1000" version="1.1" xmlns="http://www.w3.org/2000/svg" xmlns:xlink="http://www.w3.org/1999/xlink" xml:space="preserve" xmlns:serif="http://www.serif.com/" style="fill-rule:evenodd;clip-rule:evenodd;stroke-linejoin:round;stroke-miterlimit:2;">
    <g transform="matrix(2.96135,-0.371428,0.371428,2.96135,-1181.66,-799.048)">
        <path d="M552.579,496.42L544,495C538.265,499.672 532.238,499.923 526,497C524.335,504.008 517.308,505.907 512,506.4C506.222,506.937 497.581,506.164 493,501C480.255,509.094 468.822,513.321 463,501C450.67,509.805 444.952,506.447 442,498C438.264,499.016 434.608,498.855 431,498C425.169,499.851 417.123,499.755 408,498.611C394.466,496.915 391.639,486.247 364,489.548C357.671,490.304 349.849,509.007 357.63,519C372.139,537.635 417.285,540.368 446,508L455,508C455.181,517.362 449.388,525.697 439,530.715C425.004,537.476 410.57,538.356 402,541.013C385.473,546.136 381.188,548.714 379,550.722C366.205,562.463 366.135,577.869 382,585.786C386.663,588.113 397.188,588.685 409,584.588C416.879,581.855 425.332,577.045 433,569.293C440.419,561.792 450.694,555.943 458.549,546C465.157,537.637 467.16,524.867 470,511L476,511C473.765,523.15 470.568,534.131 466.927,544C462.013,557.315 453.989,567.646 451.034,578C442.982,606.218 462.056,622.325 488,616.232C489.601,615.856 505.354,611.677 503.523,590C502.779,581.194 493.446,571.799 490.459,554C488.253,540.858 490.207,525.308 490,508C489.981,505.764 490.648,504.431 492,504C494.502,505.416 495.386,507.641 496,510C501.619,531.575 493.493,557.6 500.091,573C508.407,592.411 524.304,603.064 545,605.488C555.26,606.69 588.751,591.483 576.226,571.297C561.774,548.004 540.818,566.295 525.809,550C517.023,540.46 510.892,527.573 511,511C510.96,509.963 511.425,509.19 513,509C514.403,509.23 515.379,509.924 516,511C516.695,529.568 522.42,542.496 531.822,550C540.848,557.204 547.717,550.883 565.746,557.79C580.728,563.53 584.134,578.363 580.958,588.18C580.958,588.18 592.821,590.523 597.122,589.563C616.343,585.273 629.085,562.706 615.054,550C590.779,528.017 585.073,544.145 554.951,534.952C543.608,531.49 535.948,519.885 530,508C528.931,505.215 528.388,502.652 530,501C533.161,500.306 534.638,502.069 536,504C554.688,535.615 603.26,523.207 623.401,520.619C647.435,517.53 658.417,504.174 655.459,485.233C654.746,480.669 634.774,453.147 620,472.891C607.348,489.799 604.994,494.238 592.49,498.653C579.514,503.234 566.376,501.916 552.579,496.42ZM453.5,555L453.5,565.5C444.628,579.718 446.663,590.757 448,602C426.837,606.846 415.85,600.427 413,585C425.654,578.519 439.03,568.32 453.5,555ZM531.98,505C536.791,514.114 541.194,525.462 550.982,529C557.512,531.36 565.779,534.572 572,534C611.611,530.356 629.379,552.576 624,570C636.448,542.891 609.789,523.662 574,529C549.151,532.706 536.625,504.014 531.98,505ZM446.252,510C439.415,517.976 432.256,525.765 425,533.5C436.943,531.655 447.037,524.948 454,510L446.252,510ZM548,475C545.748,475.28 540.685,483.333 540,483C533.198,479.695 522.423,493.245 521,490C517.119,481.146 502.194,492.518 494,491C486.204,489.555 482.933,483.901 471,490C467.435,491.822 467.147,486.422 461,485.516C458.884,485.205 456.09,486.139 452,486C450.908,485.963 437.323,473.657 435,476C429.69,475.774 426.558,476.481 426,478.292C425.146,481.067 421.961,501.08 443,495C445.546,506.48 453.081,506.692 465,497C467.547,509.889 477.324,509.69 494,497C495.345,505.521 511.379,504.917 517,503.222C520.881,502.052 523.645,498.825 525,493C531.768,498.527 538.07,497.774 544,492C558.854,500.759 559.579,480.772 559.733,478C559.88,475.355 555.687,474.394 548,475ZM437.59,474.888C440.519,474.816 453.121,483.694 453.584,483.605C464.875,481.427 470.552,487.894 472,487C481.165,481.342 490.495,489.043 495,489C504.609,488.908 518.885,477.485 521,487C521.378,488.699 535.195,479.061 539,481C550.252,467.811 560.675,461.156 562.733,450C569.852,411.408 531.732,378.783 490,382.564C464.971,384.832 432.405,400.8 424.061,430C420.48,442.532 422.665,457.311 437.59,474.888Z" style="fill:white;"/>
    </g>
</svg>
