<?xml version="1.0" encoding="UTF-8" standalone="no"?>
<!DOCTYPE svg PUBLIC "-//W3C//DTD SVG 1.1//EN" "http://www.w3.org/Graphics/SVG/1.1/DTD/svg11.dtd">
<svg width="100%" height="100%" viewBox="0 0 1000 1000" version="1.1" xmlns="http://www.w3.org/2000/svg" xmlns:xlink="http://www.w3.org/1999/xlink" xml:space="preserve" xmlns:serif="http://www.serif.com/" style="fill-rule:evenodd;clip-rule:evenodd;stroke-linejoin:round;stroke-miterlimit:2;">
    <g transform="matrix(3.24917,0,0,3.24917,-992.711,-1234.64)">
        <path d="M356.956,622.902C335.539,642.747 332.042,652.167 344.607,664.739C352.082,672.218 368.023,665.903 389.404,649.636C391.387,681.113 409.222,672.289 431.506,652.156C448.453,677.476 469.145,676.036 492.596,654.896C525.996,675.32 546.929,676.939 545.497,644.824C570.565,647.882 591.779,644.837 596.515,631.805C601.113,619.154 594.997,611.491 568.432,606.431C646.441,456.311 520.932,403.876 474.981,397.393C431,391.188 243.253,430.979 356.956,622.902ZM509.484,568.512C509.484,568.512 498.203,572.713 487.525,576.357C481.904,578.276 476.458,580.049 472.968,580.903C469.296,581.815 466.188,582.325 463.069,582.442C459.964,582.558 456.847,582.285 453.142,581.604C449.89,581.018 444.626,579.332 439.171,577.437C428.877,573.861 417.95,569.493 417.95,569.493C416.027,568.697 413.82,569.612 413.025,571.535C412.23,573.458 413.145,575.665 415.068,576.46C415.068,576.46 426.073,581.163 436.473,584.986C442.372,587.154 448.091,589.015 451.62,589.705C456.003,590.547 459.698,590.902 463.378,590.767C467.038,590.633 470.685,590.012 474.987,588.912C478.634,587.966 484.331,586.06 490.19,583.943C500.912,580.071 512.203,575.545 512.203,575.545C514.144,574.794 515.111,572.609 514.36,570.669C513.61,568.728 511.425,567.762 509.484,568.512ZM372.219,508.38C370.608,509.721 369.097,511.127 367.696,512.583C360.654,519.907 356.396,528.53 355.992,536.739C355.374,549.323 363.39,561.639 385.691,566.952C387.712,567.444 389.753,566.203 390.246,564.181C390.738,562.159 389.497,560.118 387.475,559.626C375.394,556.62 368.314,551.52 365.396,545.227C363.016,540.094 363.607,534.314 366.142,528.757C371.662,516.658 386.224,505.671 403.478,503.085C422.484,500.14 437.76,514.879 435.845,530.124C434.364,541.909 422.802,553.145 396.67,557.794C394.62,558.148 393.243,560.101 393.598,562.151C393.952,564.201 395.905,565.578 397.955,565.224C429.15,559.981 441.994,545.192 443.856,531.158C445.932,515.513 434.463,499.774 417.404,495.523C417.72,493.54 418.032,491.538 418.267,489.498C418.622,486.407 418.785,483.244 419.044,480.008C419.217,478.457 418.099,477.058 416.548,476.885C414.997,476.712 413.597,477.831 413.424,479.382C412.965,482.588 412.416,485.7 412.061,488.785C411.839,490.723 411.689,492.644 411.546,494.548C408.556,494.29 405.435,494.377 402.222,494.861C399.887,495.223 397.596,495.72 395.362,496.336C395.15,494.787 395.082,493.256 395.075,491.737C395.069,490.401 395.123,489.075 395.231,487.75C395.396,485.718 395.643,483.692 396.066,481.672C396.445,480.158 395.524,478.621 394.01,478.242C392.497,477.863 390.96,478.784 390.58,480.298C389.68,483.454 388.973,486.638 388.869,489.882C388.781,492.62 389.117,495.376 389.81,498.153C385.249,499.885 380.986,502.114 377.132,504.703C376.583,502.809 376.26,500.789 376.09,498.648C375.835,495.426 375.896,491.919 376.552,488.091C376.855,486.561 375.859,485.071 374.328,484.768C372.797,484.465 371.308,485.461 371.005,486.992C370.019,491.367 369.569,495.42 369.863,499.141C370.13,502.501 370.959,505.576 372.219,508.38ZM559.785,553.251C557.301,530.093 544.039,518.037 529.639,514.647C512.302,510.567 492.726,519.379 485.107,536.376C483.224,540.362 485.39,542.026 489.376,543.909C493.362,545.791 497.669,547.184 499.551,543.198C504.304,533.629 515.652,529.481 525.596,531.822C534.349,533.882 541.872,541.265 543.939,555.269C544.496,559.642 546.058,561.319 550.43,560.762C554.803,560.205 560.342,557.623 559.785,553.251ZM415.87,519.98C424.433,532.357 416.787,540.218 406.889,543.952C396.992,547.686 384.843,547.293 384.399,543.159C381.744,518.414 407.319,507.62 415.87,519.98Z" style="fill:white;"/>
    </g>
</svg>
