<?xml version="1.0" encoding="UTF-8" standalone="no"?>
<!DOCTYPE svg PUBLIC "-//W3C//DTD SVG 1.1//EN" "http://www.w3.org/Graphics/SVG/1.1/DTD/svg11.dtd">
<svg width="100%" height="100%" viewBox="0 0 1000 1000" version="1.1" xmlns="http://www.w3.org/2000/svg" xmlns:xlink="http://www.w3.org/1999/xlink" xml:space="preserve" xmlns:serif="http://www.serif.com/" style="fill-rule:evenodd;clip-rule:evenodd;stroke-linejoin:round;stroke-miterlimit:2;">
    <g transform="matrix(3.91304,0,0,3.91304,-1123.91,-1202.17)">
        <path d="M527.578,550L302.41,550L414.576,515.558L527.578,550ZM475.984,496.691C475.957,496.706 475.928,496.718 475.897,496.728L416.284,515.033L528.541,549.248L475.984,496.691ZM353.75,496.957L301.462,549.245L412.866,515.037L353.958,497.082C353.877,497.057 353.806,497.013 353.75,496.957ZM300.755,548.538L353.309,495.984C353.294,495.957 353.282,495.928 353.272,495.897L335.096,436.703L300.755,548.538ZM529.245,548.538L495.037,437.134L477.082,496.042C477.057,496.123 477.013,496.194 476.957,496.25L529.245,548.538ZM530,322.422L530,547.59L495.558,435.424L530,322.422ZM334.573,435L300,547.59L300,322.41L334.573,435ZM414.575,514.512L354.659,496.25L474.047,496.25L414.575,514.512ZM494.512,435.425L476.25,495.341L476.25,375.953L494.512,435.425ZM353.75,375.953L353.75,494.047L335.619,435L353.75,375.953ZM472.5,377.5L357.5,377.5L357.5,492.5L472.5,492.5L472.5,377.5ZM529.248,321.459L476.691,374.016C476.706,374.043 476.718,374.072 476.728,374.103L495.033,433.716L529.248,321.459ZM300.755,321.462L335.096,433.297L353.272,374.103C353.282,374.072 353.294,374.043 353.309,374.016L300.755,321.462ZM475.341,373.75L354.659,373.75L415,355.358L475.341,373.75ZM301.459,320.752L353.75,373.043C353.806,372.987 353.877,372.943 353.958,372.918L413.285,354.836L301.459,320.752ZM528.541,320.752L416.715,354.836L476.042,372.918C476.123,372.943 476.194,372.987 476.25,373.043L528.541,320.752ZM415,354.313L302.422,320L527.578,320L415,354.313Z" style="fill:white;"/>
    </g>
</svg>
