<?xml version="1.0" encoding="UTF-8" standalone="no"?>
<!DOCTYPE svg PUBLIC "-//W3C//DTD SVG 1.1//EN" "http://www.w3.org/Graphics/SVG/1.1/DTD/svg11.dtd">
<svg width="100%" height="100%" viewBox="0 0 1000 1000" version="1.1" xmlns="http://www.w3.org/2000/svg" xmlns:xlink="http://www.w3.org/1999/xlink" xml:space="preserve" xmlns:serif="http://www.serif.com/" style="fill-rule:evenodd;clip-rule:evenodd;stroke-linejoin:round;stroke-miterlimit:2;">
    <g transform="matrix(-1.49751,0,0,1.49751,1237.61,-272.326)">
        <path d="M475,527.883C444.71,508.048 413.188,495.085 379,497C371.283,501.098 364.03,506.288 357,512C348.587,508.049 340.22,505.765 331.894,505C316.954,509.638 305.14,516.407 296,525C281.256,535.613 273.882,549.283 270.74,565C267.397,581.726 271.748,599.576 281.069,615C288.899,627.957 283.485,649.297 295,665.416C302.96,676.559 315.45,687.384 318.232,702.501C319.831,711.185 320.366,722.316 327.687,730C332.495,735.047 336.567,740.265 340,745.616C344.856,753.184 348.432,761.017 351,769C350.015,777.91 352.066,783.056 355.165,786.59C366.737,799.785 382.794,807.173 400,803.454C434.484,796.001 461.583,785.178 476.875,780C501.567,771.639 516.235,742.855 514,695C518.593,671.121 521.616,645.595 516,611C515.542,587.744 523.744,570.423 518.322,560C514.636,552.914 507.686,549.292 496.658,550C491.951,540.481 485.958,532.062 475,527.883ZM724.742,574.803C707.443,523.089 679.672,495.907 640,490.632C609.948,486.636 585.375,501.951 516,540C513.198,546.772 517.937,554.062 523.42,561.404C519.885,591.571 521.443,622.375 524.883,654.805C526.343,668.572 522.549,682.661 520.182,697C526.603,724.776 541.817,750.949 570,774.757C601.068,801.155 635.747,811.088 670,760.155C674.458,753.526 684.172,754.091 689.755,750C696.95,744.727 702.343,738.185 705.404,730C693.859,712.621 698.094,693.678 706.748,675.62C713.989,660.511 710.797,643.281 714.607,630C718.909,615.005 716.064,600.606 716.303,590C716.459,583.105 721.274,578.274 724.742,574.803ZM487.66,500L476,526C399.958,463.331 315.888,494.665 229,559C221.313,561.237 212.057,563.391 207.786,558.173C203.307,552.701 197.194,545.951 193.302,536.08C189.374,526.115 195.004,510.628 206.884,490C208.859,486.571 207.564,482.652 209.175,480C211.066,476.887 214.225,474.793 219,474C225.531,462.751 233.868,452.859 245.354,445.332C256.954,433.527 258.809,421.168 273.646,410C283.436,402.631 285.517,389.308 290,378.87C296.922,362.752 311.355,349.824 325.913,334.762C331.046,329.451 337.446,324.944 344.012,320C360.194,313.625 373.348,315.772 380,336.213C392.25,353.917 405.739,366.772 421,372.689C432.316,392.929 445.82,413.772 465.369,435.573C481.546,453.614 484.024,478.5 487.66,500ZM485.174,517.94C482.547,521.96 483.517,525.98 485,530C492.319,534.675 495.929,540.458 497,547C505.044,541.215 512.759,535.048 518,526L512,521C572.425,364.8 565.743,353.715 562,281L576.5,247C573.838,246.333 571.574,245.465 570.5,244C568.77,243.847 567.152,243.524 566,242.5C564.763,248.167 562.341,255.333 558,261C556.124,255.646 554.114,251.394 552,248C551,248.257 550,248.434 549,248.218C550.207,251.805 550.69,255.24 550,259C542.793,254.656 539.922,248.523 538,242C536.391,243.654 534.444,245.03 532,246C539.224,253.796 544.96,263.669 547.5,278L549,289C554.807,368.845 539.243,439.235 498,503C494.968,507.688 488.446,513.334 485.174,517.94ZM738.029,441.736C744.64,442.117 768.522,469.847 761.466,475C762.64,476.233 787.123,494.744 790,510.702C790.904,515.715 788.617,520.477 788.845,525C789.198,532.018 797.346,537.507 790,543.088C792.546,536.495 776.125,526.42 760,540C749.054,549.219 735.515,536.412 720,536.653C686.55,484.236 637.935,464.79 591.957,492C569.763,505.135 545.67,518.439 520,530C522.226,527.374 521.909,524.243 516,520C541.401,453.806 562.231,383.629 625,350C650.499,336.24 648.906,380.006 665,379.433C707.278,377.927 691.526,399.042 693.527,410C720.289,414.874 741.372,438.932 738.029,441.736ZM495.533,496.203C519.092,464.209 533.028,425.616 536.723,380C520.975,388.251 518.271,361.039 521.982,333C522.495,329.122 517.509,327.552 516.185,325C513.569,319.96 517.504,312.153 516,307.709C510.165,310.61 504.57,314.083 500,320C490.816,318.291 482.153,317.483 475,320.606C464.652,325.126 461.008,336.15 440,342.867C436.797,333.967 429.97,323.428 422,327.874C415.315,331.602 401.588,326.718 394.014,335.6C423.127,360.73 434.207,395.977 458.623,420C478.87,439.922 487.83,464.882 490,492.966C493.59,498.22 494.601,498.184 495.533,496.203ZM738.029,441.736C737.802,441.927 737.461,442.019 737,442C737.267,441.796 737.614,441.712 738.029,441.736ZM569.979,387.311C570.189,389.029 568.775,389.935 567.244,389.997C565.712,390.058 564.063,389.275 563.803,387.615C563.327,384.584 569.582,384.059 569.979,387.311ZM575,385C594.227,345.288 600.442,307.82 590,273.223C607.069,259.052 609.614,270.675 605.557,294.023C614.418,295.153 620.813,296.894 624.609,300C626.263,301.354 620.774,306.093 622.563,313.476C624.715,322.355 619.936,336.738 610,353.635C598.235,362.124 586.572,372.662 575,385ZM526,371C525.79,372.718 527.204,373.624 528.735,373.685C530.267,373.747 531.916,372.964 532.177,371.304C532.653,368.273 526.397,367.747 526,371ZM571.756,367.311C571.966,369.029 570.552,369.935 569.021,369.997C567.489,370.058 565.84,369.275 565.579,367.615C565.103,364.584 571.358,364.059 571.756,367.311ZM538.467,367.311C538.257,369.029 539.671,369.935 541.203,369.997C542.734,370.058 544.383,369.275 544.644,367.615C545.12,364.584 538.865,364.059 538.467,367.311ZM580.479,359.263C580.689,360.981 579.275,361.887 577.744,361.948C576.212,362.01 574.563,361.227 574.303,359.567C573.827,356.536 580.082,356.01 580.479,359.263ZM529.744,359.263C529.534,360.981 530.948,361.887 532.479,361.948C534.011,362.01 535.66,361.227 535.921,359.567C536.397,356.536 530.142,356.01 529.744,359.263ZM539.132,353.215C538.922,354.933 540.336,355.839 541.868,355.9C543.399,355.962 545.048,355.179 545.309,353.519C545.785,350.487 539.53,349.962 539.132,353.215ZM571.091,353.215C571.301,354.933 569.887,355.839 568.355,355.9C566.824,355.962 565.175,355.179 564.914,353.519C564.438,350.487 570.693,349.962 571.091,353.215ZM527.021,349.763C526.811,351.481 528.225,352.387 529.756,352.448C531.288,352.51 532.937,351.727 533.197,350.067C533.673,347.036 527.418,346.51 527.021,349.763ZM583.202,349.763C583.412,351.481 581.999,352.387 580.467,352.448C578.936,352.51 577.286,351.727 577.026,350.067C576.55,347.036 582.805,346.51 583.202,349.763ZM573.702,344.811C573.912,346.529 572.499,347.435 570.967,347.497C569.436,347.558 567.786,346.775 567.526,345.115C567.05,342.084 573.305,341.559 573.702,344.811ZM536.521,344.811C536.311,346.529 537.725,347.435 539.256,347.497C540.788,347.558 542.437,346.775 542.697,345.115C543.173,342.084 536.918,341.559 536.521,344.811ZM583.202,341.811C583.412,343.529 581.999,344.435 580.467,344.497C578.936,344.558 577.286,343.775 577.026,342.115C576.55,339.084 582.805,338.559 583.202,341.811ZM527.021,341.811C526.811,343.529 528.225,344.435 529.756,344.497C531.288,344.558 532.937,343.775 533.197,342.115C533.673,339.084 527.418,338.559 527.021,341.811ZM574.868,335.715C575.078,337.433 573.664,338.339 572.132,338.4C570.601,338.462 568.952,337.679 568.691,336.019C568.215,332.987 574.47,332.462 574.868,335.715ZM535.356,335.715C535.146,337.433 536.56,338.339 538.091,338.4C539.622,338.462 541.272,337.679 541.532,336.019C542.008,332.987 535.753,332.462 535.356,335.715ZM582.979,329.215C583.189,330.933 581.775,331.839 580.244,331.9C578.712,331.962 577.063,331.179 576.803,329.519C576.327,326.487 582.582,325.962 582.979,329.215ZM527.244,329.215C527.034,330.933 528.448,331.839 529.979,331.9C531.511,331.962 533.16,331.179 533.421,329.519C533.897,326.487 527.642,325.962 527.244,329.215ZM570.392,324.097C571.844,324.104 573.294,324.799 573.479,326.311C573.689,328.029 572.275,328.935 570.744,328.997L570.582,329C569.098,329.002 567.554,328.217 567.303,326.615C567.05,325.005 568.696,324.102 570.356,324.096L570.392,324.097ZM539.904,324.097L539.831,324.097C538.379,324.104 536.929,324.799 536.744,326.311C536.535,328.02 537.933,328.925 539.455,328.996L539.659,329C541.138,328.996 542.67,328.21 542.921,326.615C543.172,325.017 541.551,324.115 539.904,324.097ZM529.132,318.763C528.922,320.481 530.336,321.387 531.868,321.448C533.399,321.51 535.048,320.727 535.309,319.067C535.785,316.036 529.53,315.51 529.132,318.763ZM581.091,318.763C581.301,320.481 579.887,321.387 578.355,321.448C576.824,321.51 575.175,320.727 574.914,319.067C574.438,316.036 580.693,315.51 581.091,318.763ZM571.979,316.763C572.189,318.481 570.775,319.387 569.244,319.448C567.712,319.51 566.063,318.727 565.803,317.067C565.327,314.036 571.582,313.51 571.979,316.763ZM538.244,316.763C538.034,318.481 539.448,319.387 540.979,319.448C542.511,319.51 544.16,318.727 544.421,317.067C544.897,314.036 538.642,313.51 538.244,316.763ZM520.021,316.715C519.811,318.433 521.225,319.339 522.756,319.4C524.288,319.462 525.937,318.679 526.197,317.019C526.673,313.987 520.418,313.462 520.021,316.715ZM590.202,316.715C590.412,318.433 588.999,319.339 587.467,319.4C585.936,319.462 584.286,318.679 584.026,317.019C583.55,313.987 589.805,313.462 590.202,316.715ZM526.244,310.215C526.034,311.933 527.448,312.839 528.979,312.9C530.511,312.962 532.16,312.179 532.421,310.519C532.897,307.487 526.642,306.962 526.244,310.215ZM583.979,310.215C584.189,311.933 582.775,312.839 581.244,312.9C579.712,312.962 578.063,312.179 577.803,310.519C577.327,307.487 583.582,306.962 583.979,310.215ZM536.244,307.763C536.034,309.481 537.448,310.387 538.979,310.448C540.511,310.51 542.16,309.727 542.421,308.067C542.897,305.036 536.642,304.51 536.244,307.763ZM573.979,307.763C574.189,309.481 572.775,310.387 571.244,310.448C569.712,310.51 568.063,309.727 567.803,308.067C567.327,305.036 573.582,304.51 573.979,307.763ZM589.202,302.763C589.412,304.481 587.999,305.387 586.467,305.448C584.936,305.51 583.286,304.727 583.026,303.067C582.55,300.036 588.805,299.51 589.202,302.763ZM521.021,302.763C520.811,304.481 522.225,305.387 523.756,305.448C525.288,305.51 526.937,304.727 527.197,303.067C527.673,300.036 521.418,299.51 521.021,302.763ZM529.244,300.311C529.034,302.029 530.448,302.935 531.979,302.997C533.511,303.058 535.16,302.275 535.421,300.615C535.897,297.584 529.642,297.059 529.244,300.311ZM580.979,300.311C581.189,302.029 579.775,302.935 578.244,302.997C576.712,303.058 575.063,302.275 574.803,300.615C574.327,297.584 580.582,297.059 580.979,300.311ZM538.244,297.311C538.034,299.029 539.448,299.935 540.979,299.997C542.511,300.058 544.16,299.275 544.421,297.615C544.897,294.584 538.642,294.059 538.244,297.311ZM571.979,297.311C572.189,299.029 570.775,299.935 569.244,299.997C567.712,300.058 566.063,299.275 565.803,297.615C565.327,294.584 571.582,294.059 571.979,297.311ZM522.021,294.215C521.811,295.933 523.225,296.839 524.756,296.9C526.288,296.962 527.937,296.179 528.197,294.519C528.673,291.487 522.418,290.962 522.021,294.215ZM588.202,294.215C588.412,295.933 586.999,296.839 585.467,296.9C583.936,296.962 582.286,296.179 582.026,294.519C581.55,291.487 587.805,290.962 588.202,294.215ZM572.091,288.763C572.301,290.481 570.887,291.387 569.355,291.448C567.824,291.51 566.175,290.727 565.914,289.067C565.438,286.036 571.693,285.51 572.091,288.763ZM538.132,288.763C537.922,290.481 539.336,291.387 540.868,291.448C542.399,291.51 544.048,290.727 544.309,289.067C544.785,286.036 538.53,285.51 538.132,288.763ZM583.202,287.215C583.412,288.933 581.999,289.839 580.467,289.9C578.936,289.962 577.286,289.179 577.026,287.519C576.55,284.487 582.805,283.962 583.202,287.215ZM527.021,287.215C526.811,288.933 528.225,289.839 529.756,289.9C531.288,289.962 532.937,289.179 533.197,287.519C533.673,284.487 527.418,283.962 527.021,287.215ZM539.021,279.763C538.811,281.481 540.225,282.387 541.756,282.448C543.288,282.51 544.937,281.727 545.197,280.067C545.673,277.036 539.418,276.51 539.021,279.763ZM571.202,279.763C571.412,281.481 569.999,282.387 568.467,282.448C566.936,282.51 565.286,281.727 565.026,280.067C564.55,277.036 570.805,276.51 571.202,279.763ZM537.137,232.428C538.232,225.422 554.781,224.916 554.953,233.086C554.966,233.706 554.895,234.285 554.752,234.822C556.592,235.688 557.908,237.168 558.098,239.345C558.49,243.849 554.313,246.412 549.902,246.763C545.49,247.114 540.844,245.252 540.299,240.907C540.196,240.084 540.297,239.323 540.563,238.631C539.733,238.175 539.006,237.601 538.432,236.909C538.088,239.486 536.042,241.856 533.461,243.363C529.639,245.595 524.646,245.937 522.267,242.26C518.071,235.774 532.225,226.426 537.137,232.428ZM571.239,242.416C570.976,242.409 570.712,242.394 570.449,242.372C566.04,241.994 561.762,239.395 561.937,235.019C562.194,228.605 573.944,227.878 578.228,232.254C582.911,232.751 587.497,235.52 586.759,239.941C586.015,244.401 581.33,245.84 576.971,245.078C574.806,244.7 572.721,243.779 571.239,242.416Z" style="fill:white;"/>
    </g>
</svg>
