<?xml version="1.0" encoding="UTF-8" standalone="no"?>
<!DOCTYPE svg PUBLIC "-//W3C//DTD SVG 1.1//EN" "http://www.w3.org/Graphics/SVG/1.1/DTD/svg11.dtd">
<svg width="100%" height="100%" viewBox="0 0 1000 1000" version="1.1" xmlns="http://www.w3.org/2000/svg" xmlns:xlink="http://www.w3.org/1999/xlink" xml:space="preserve" xmlns:serif="http://www.serif.com/" style="fill-rule:evenodd;clip-rule:evenodd;stroke-linejoin:round;stroke-miterlimit:2;">
    <g transform="matrix(3.61546,0,0,3.61546,-1679.01,-902.355)">
        <path d="M602.31,317.062C578.103,320.919 563.437,309.566 555.487,296.424C547.495,283.213 546.29,268.194 549,265C553.535,259.656 607.867,265.705 602.802,315.977C611.401,297.057 619.375,282.283 627,274C643.688,277.033 647.371,281.534 652,287C629.634,303.7 614.022,321.628 600.159,339.871C622.245,322.06 658.637,324.787 678.226,340C723.621,375.253 700.552,535.312 600,508.017C531.532,537.739 477.409,406.684 520,346.812C530.852,331.558 572.334,320.984 594.36,335.301C597.072,328.893 599.72,322.792 602.31,317.062ZM650,345L652.792,382.208L690,385L652.792,387.792L650,425L647.208,387.792L610,385L647.208,382.208L650,345Z" style="fill:white;"/>
    </g>
</svg>
