<?xml version="1.0" encoding="UTF-8" standalone="no"?>
<!DOCTYPE svg PUBLIC "-//W3C//DTD SVG 1.1//EN" "http://www.w3.org/Graphics/SVG/1.1/DTD/svg11.dtd">
<svg width="100%" height="100%" viewBox="0 0 1000 1000" version="1.1" xmlns="http://www.w3.org/2000/svg" xmlns:xlink="http://www.w3.org/1999/xlink" xml:space="preserve" xmlns:serif="http://www.serif.com/" style="fill-rule:evenodd;clip-rule:evenodd;stroke-linejoin:round;stroke-miterlimit:2;">
    <g transform="matrix(1.12454,0,0,1.12454,-28.9261,-66.0315)">
        <path d="M625.753,561.941C563.626,634.223 497.123,718.943 507.741,737.201C513.295,746.749 541.441,733.8 595.826,704.182C633.785,678.755 658.787,677.755 661.945,679.417C664.453,680.737 667.854,692.028 661.499,724.472L652.054,776.881L518.995,783.339C490.64,833.846 480.726,866.929 493.48,877.837C502.33,885.407 545.271,872.111 611.732,853.382C659.177,837.244 703.896,838.129 714.656,818.121C724.861,799.147 723.418,762.338 726.636,716.7C727.419,703.37 729.203,690.124 731.351,677.439C733.941,662.15 733.956,646.644 739.6,634.846C750.175,612.739 751.951,594.42 740.741,585.86C733.757,580.527 721.974,580.516 704.565,586.551C678.699,600.445 658.714,604.453 647.662,611.717C642.216,615.296 637.343,617.904 633.393,620.152C616.94,629.516 611.852,626.172 618.3,611.048C619.823,607.475 618.693,602.26 619.887,596.655L625.753,561.941ZM290,250C192.724,358.899 88.38,486.723 104.112,514.999C112.339,529.787 155.829,510.775 240,467C298.886,429.162 337.212,428.362 342,431C345.803,433.096 350.682,450.49 340,500L324,580L120,586C75.09,662.533 58.938,712.918 78.153,730C91.488,741.854 157.651,722.744 260,696C333.145,672.669 401.616,675.332 418.683,645C434.869,616.234 433.736,559.811 440,490C441.59,469.604 444.709,449.368 448.371,430C452.784,406.658 453.261,382.906 462.251,365C479.097,331.447 482.352,303.439 465.432,290C454.89,281.626 436.842,281.266 410,290C369.972,310.526 339.245,316.08 322.102,326.884C313.657,332.207 306.116,336.059 300,339.387C274.524,353.249 266.828,347.977 277.148,325C279.585,319.573 278.006,311.552 280,303L290,250ZM787.822,604.547C769.013,595.667 757.671,585.718 750.049,575.236C773.764,552.003 799.726,528.352 834.196,503.121C851.007,509.963 865.541,516.962 870.514,524.625C855.343,555.85 826.892,582.163 787.822,604.547ZM775.419,536.234C791.829,518.383 810.373,502.228 833.947,490.069C817.821,485.176 801.135,482.055 784.136,479.922C766.748,476.958 754.436,479.179 746.172,487.828C722.451,509.788 701.354,533.756 688.466,564.008L733.734,575.548L775.419,536.234ZM537,320C508.451,305.848 491.368,290.278 480,274C517.004,239.106 557.463,203.638 611,166C636.549,176.971 658.606,188.117 666,200C641.85,247.385 597.501,286.857 537,320ZM520,215C545.658,188.138 574.535,163.935 611,146C586.442,138.034 560.975,132.765 535,129C508.453,123.951 489.528,126.994 476.618,140C439.641,172.943 406.625,209.039 386,255L455,274L520,215Z" style="fill:white;"/>
    </g>
</svg>
