<?xml version="1.0" encoding="UTF-8" standalone="no"?>
<!DOCTYPE svg PUBLIC "-//W3C//DTD SVG 1.1//EN" "http://www.w3.org/Graphics/SVG/1.1/DTD/svg11.dtd">
<svg width="100%" height="100%" viewBox="0 0 1000 1000" version="1.1" xmlns="http://www.w3.org/2000/svg" xmlns:xlink="http://www.w3.org/1999/xlink" xml:space="preserve" xmlns:serif="http://www.serif.com/" style="fill-rule:evenodd;clip-rule:evenodd;stroke-linejoin:round;stroke-miterlimit:2;">
    <g transform="matrix(1.00804,0,0,1.00804,-4.01776,-5.13187)">
        <path d="M499.875,245.961L500.125,245.961C507.015,245.945 524.679,244.612 541.686,242.486C544.719,249.013 546.52,259.364 547.668,272.034C549.581,293.148 549.548,320.56 549.572,347.802C549.572,348.155 549.648,348.505 549.794,348.827C557.488,365.752 569.469,400.776 569.469,447.545L569.469,793.819C569.469,839.405 567.363,892.444 565.869,934.339C565.851,934.847 565.989,935.348 566.265,935.775C568.589,939.372 568.232,942.002 567.689,943.642C546.986,946.165 531.799,947.518 500.001,947.518L498.483,947.517C467.713,947.475 452.683,946.125 432.311,943.642C431.768,942.002 431.411,939.372 433.735,935.775C434.011,935.348 434.149,934.847 434.131,934.339C432.637,892.444 430.531,839.405 430.531,793.819L430.531,447.545C430.531,400.776 442.512,365.752 450.206,348.827C450.352,348.505 450.428,348.155 450.428,347.802C450.452,320.56 450.419,293.148 452.332,272.034C453.48,259.364 455.281,249.013 458.314,242.486C475.324,244.613 492.992,245.946 499.875,245.961ZM500,54.692C500.914,56.202 501.801,57.727 502.662,59.267C507.532,67.984 511.571,77.151 514.995,86.525C517.582,93.607 519.82,100.814 521.79,108.091C523.364,113.906 524.77,119.766 526.033,125.656C529.642,142.484 532.17,159.528 534.141,176.62C536.33,195.607 537.825,214.666 539.111,233.733C522.944,235.7 506.413,236.924 500,236.924L499.689,236.943L499.689,236.923C493.058,236.884 476.8,235.668 460.889,233.733C462.175,214.666 463.67,195.607 465.859,176.62C467.83,159.528 470.358,142.484 473.967,125.656C475.23,119.766 476.636,113.906 478.21,108.091C480.18,100.814 482.418,93.607 485.005,86.525C488.429,77.151 492.468,67.984 497.338,59.267C498.199,57.727 499.086,56.201 500,54.692Z" style="fill:white;"/>
    </g>
</svg>
