<?xml version="1.0" encoding="UTF-8" standalone="no"?>
<!DOCTYPE svg PUBLIC "-//W3C//DTD SVG 1.1//EN" "http://www.w3.org/Graphics/SVG/1.1/DTD/svg11.dtd">
<svg width="100%" height="100%" viewBox="0 0 1000 1000" version="1.1" xmlns="http://www.w3.org/2000/svg" xmlns:xlink="http://www.w3.org/1999/xlink" xml:space="preserve" xmlns:serif="http://www.serif.com/" style="fill-rule:evenodd;clip-rule:evenodd;stroke-linejoin:round;stroke-miterlimit:2;">
    <g transform="matrix(4.72375,0,0,4.72375,-960.883,-1101.35)">
        <path d="M309.263,243.737C361.84,243.737 404.526,286.423 404.526,339C404.526,391.577 361.84,434.263 309.263,434.263C256.686,434.263 214,391.577 214,339C214,286.423 256.686,243.737 309.263,243.737ZM309.263,256.73C354.669,256.73 391.534,293.594 391.534,339C391.534,384.406 354.669,421.27 309.263,421.27C263.857,421.27 226.993,384.406 226.993,339C226.993,293.594 263.857,256.73 309.263,256.73ZM327,309C327.369,317.207 330.696,327.406 332.65,340C334.109,349.397 333.696,371.17 321.782,377.012C302.473,386.479 282.858,376.343 292.12,354.025C304.455,324.3 276.683,322.015 277,319C277.249,316.634 296.595,321.036 297,307.67C297.235,299.907 290.512,295.925 281,290.201C274.721,286.422 271.443,281.407 264.454,286C262.804,287.085 255.555,290.214 268,308C252.123,323.78 255.478,334.174 268,342C255.668,388.624 273.248,408.347 309.263,406.789C361.755,404.518 383.546,347.956 346.009,324.86C337.873,319.854 333.383,314.688 327,309ZM343.601,295.38C352.187,295.688 355.768,292.126 354.68,287C352.881,278.517 347.645,273.093 342,272.22C338.044,271.609 334.504,271.764 330,279C319.669,277.544 317.211,281.95 319,282.917C320.114,283.519 321.727,285.091 323.543,287C326.974,290.609 330.457,297.473 334,297.168C338.547,296.778 343.11,293.121 335,281C335.281,277.55 335.422,277.859 337,278.103C341.28,278.764 343.949,286.956 343.601,295.38Z" style="fill:white;"/>
    </g>
</svg>
