<?xml version="1.0" encoding="UTF-8" standalone="no"?>
<!DOCTYPE svg PUBLIC "-//W3C//DTD SVG 1.1//EN" "http://www.w3.org/Graphics/SVG/1.1/DTD/svg11.dtd">
<svg width="100%" height="100%" viewBox="0 0 1000 1000" version="1.1" xmlns="http://www.w3.org/2000/svg" xmlns:xlink="http://www.w3.org/1999/xlink" xml:space="preserve" xmlns:serif="http://www.serif.com/" style="fill-rule:evenodd;clip-rule:evenodd;stroke-linejoin:round;stroke-miterlimit:2;">
    <g transform="matrix(1.07914,0,0,1.07914,-39.5683,-39.5683)">
        <path d="M311.353,871.926C175.896,803.03 83,662.278 83,500C83,269.851 269.851,83 500,83C611.024,83 711.972,126.482 786.739,197.341L787.646,198.203L788.103,198.64C792.169,202.529 796.157,206.499 800.065,210.549C803.236,213.834 806.353,217.172 809.409,220.554L809.457,220.607C809.736,220.917 810.015,221.227 810.295,221.537L811.129,222.469C813.223,224.814 815.29,227.182 817.324,229.567C821.618,234.599 825.794,239.734 829.847,244.967L830.321,245.58C830.576,245.911 830.831,246.242 831.085,246.573L831.413,247.002C832.202,248.034 832.987,249.069 833.759,250.099L834.112,250.568C834.361,250.903 834.611,251.238 834.861,251.573L835.607,252.58C836.804,254.201 837.99,255.83 839.17,257.477C839.513,257.955 839.855,258.435 840.193,258.911L840.748,259.694L841.471,260.72L841.721,261.078C850.815,274.055 859.189,287.573 866.785,301.57L867.24,302.41L867.486,302.867C867.849,303.543 868.21,304.219 868.574,304.903L869.022,305.749L869.609,306.866L870.193,307.984L870.339,308.266C871.541,310.579 872.721,312.906 873.881,315.248L874.19,315.871L874.748,317.006C875.17,317.867 875.589,318.731 876.002,319.591L876.401,320.421L876.545,320.724C879.301,326.497 881.929,332.344 884.421,338.254L884.702,338.92L885.191,340.092C885.876,341.737 886.55,343.387 887.216,345.05L887.587,345.978L887.704,346.273C898.555,373.588 906.6,402.309 911.487,432.087L911.58,432.656L911.64,433.031C915.169,454.855 917,477.215 917,500C917,730.149 730.149,917 500,917C494.615,917 489.253,916.898 483.891,916.694C482.844,916.654 481.799,916.611 480.75,916.562C477.011,916.392 473.285,916.173 469.56,915.903C469.02,915.864 468.48,915.824 467.936,915.783L466.613,915.68L465.292,915.573L465.272,915.572C463.518,915.427 461.767,915.271 460.019,915.104L458.704,914.977C450.905,914.209 443.169,913.227 435.516,912.035C433.96,911.793 432.406,911.542 430.851,911.282C428.168,910.834 425.494,910.36 422.854,909.864L422.381,909.776L421.103,909.533C419.756,909.275 418.411,909.01 417.068,908.738C413.735,908.064 410.416,907.35 407.135,906.603C403.388,905.75 399.659,904.845 395.965,903.895C382.188,900.353 368.685,896.123 355.487,891.239L354.292,890.795C353.497,890.496 352.702,890.197 351.908,889.896L350.718,889.441C350.327,889.291 349.936,889.14 349.53,888.983L348.344,888.521C344.51,887.022 340.703,885.467 336.942,883.865L336.582,883.712C328.414,880.225 320.381,876.484 312.479,872.497L311.353,871.926ZM500.68,839.999C497.628,820.773 499.728,799.513 511.105,780C529.112,749.114 560.837,713.282 614.839,668.276C653.461,636.088 672.533,592.786 676.946,560C685.086,499.52 672.89,450.171 619.597,413.477C583.41,388.56 532.756,383.753 509.597,423.5L509.52,424.088C542.98,428.252 569.759,454.051 575.402,487.028L576.5,486.799C606.708,498.069 622.635,518.38 627.117,542.799C635.929,590.808 621.588,637.888 583.698,679.256C561.249,703.765 527.361,722.061 480,731.153C452.487,736.435 418.501,731.524 380,716.155C361.959,708.953 340.913,697.95 320,681.699C292.149,660.057 265.087,637.774 240,616.635C211.277,592.432 185.247,586.895 172.605,591.964C182.635,627.693 198.362,661.05 218.752,691.003C222.945,697.162 227.334,703.176 231.917,709.043L231.926,709.055L231.996,709.144C233.421,710.967 234.865,712.776 236.329,714.572L236.385,714.641L236.482,714.759C238.06,716.693 239.659,718.608 241.285,720.514L241.62,720.907L242.057,721.416C242.475,721.902 242.894,722.387 243.319,722.876C243.706,723.321 244.093,723.764 244.475,724.199C306.822,795.179 398.218,840 500,840L500.68,839.999ZM839.998,498.917C820.773,501.97 799.513,499.869 780,488.493C749.114,470.485 713.282,438.76 668.276,384.758C636.088,346.136 592.786,327.064 560,322.651C499.52,314.511 450.171,326.707 413.477,380C388.56,416.188 383.753,466.841 423.5,490L424.138,490.083C428.318,457.855 452.586,431.894 483.951,425.19L483.597,423.5C494.868,393.292 515.179,377.365 539.597,372.883C587.607,364.071 634.686,378.412 676.054,416.302C700.564,438.751 718.86,472.639 727.952,520C733.234,547.513 728.322,581.499 712.953,620C705.751,638.041 694.749,659.087 678.498,680C656.856,707.851 634.572,734.913 613.433,760C588.713,789.338 583.465,815.866 589.101,828.185C650.947,811.407 705.813,777.6 748.344,732.122L748.525,731.928C749.955,730.397 751.371,728.852 752.77,727.298C753.073,726.961 753.376,726.623 753.679,726.284C754.21,725.689 754.739,725.092 755.261,724.499L755.707,723.992L756.378,723.224C756.602,722.967 756.825,722.71 757.048,722.454L757.715,721.681C757.936,721.423 758.158,721.165 758.38,720.907L758.843,720.364C761.241,717.551 763.594,714.698 765.903,711.803C766.228,711.396 766.552,710.989 766.88,710.573C770.158,706.426 773.342,702.2 776.422,697.906C777.555,696.328 778.674,694.74 779.785,693.134C780.495,692.109 781.199,691.079 781.9,690.042L782.127,689.706C786.051,683.883 789.8,677.933 793.369,671.861C793.719,671.265 794.067,670.669 794.413,670.071C794.712,669.555 795.009,669.039 795.307,668.519L795.437,668.291C795.607,667.993 795.776,667.696 795.945,667.398L796.447,666.51C796.689,666.082 796.929,665.653 797.166,665.227C798.077,663.593 798.976,661.95 799.862,660.298L799.915,660.199L800.246,659.578C800.619,658.878 800.99,658.178 801.36,657.472C801.52,657.166 801.68,656.859 801.836,656.559L802.31,655.646C803.351,653.63 804.372,651.603 805.376,649.558C806.039,648.208 806.693,646.853 807.341,645.488L807.782,644.556L808.22,643.621L808.656,642.685C809.113,641.7 809.565,640.713 810.014,639.717C810.84,637.888 811.651,636.051 812.448,634.2C812.744,633.513 813.038,632.824 813.327,632.139C814.289,629.864 815.227,627.576 816.142,625.271L816.401,624.618L816.508,624.345C816.907,623.332 817.301,622.316 817.689,621.3C817.93,620.671 818.169,620.041 818.404,619.414C818.605,618.879 818.805,618.343 819.003,617.809C819.69,615.952 820.361,614.088 821.016,612.214L821.107,611.955C821.221,611.627 821.335,611.299 821.449,610.971L821.787,609.986L822.123,608.999C822.234,608.67 822.345,608.341 822.456,608.011L822.744,607.148C823.502,604.868 824.236,602.577 824.946,600.276L825.013,600.06L825.164,599.566C826.747,594.399 828.209,589.179 829.549,583.911L829.575,583.807C830.566,579.903 831.49,575.972 832.344,572.014L832.436,571.592L832.656,570.558C832.973,569.06 833.28,567.558 833.576,566.054L833.71,565.369L833.889,564.444C834.054,563.587 834.216,562.728 834.374,561.867C834.489,561.245 834.601,560.623 834.713,560L834.871,559.106C835.229,557.065 835.57,555.017 835.891,552.964C836.09,551.698 836.281,550.431 836.465,549.163L836.549,548.581L836.64,547.937C836.901,546.089 837.148,544.236 837.38,542.377C837.442,541.872 837.504,541.367 837.565,540.861C837.757,539.259 837.938,537.654 838.108,536.043L838.133,535.813L838.243,534.742L838.35,533.671L838.421,532.945C838.468,532.454 838.514,531.962 838.56,531.47L838.626,530.741C838.733,529.552 838.833,528.36 838.928,527.168C839.055,525.563 839.171,523.956 839.275,522.347C839.436,519.885 839.569,517.416 839.676,514.942L839.707,514.224L839.72,513.904C839.747,513.222 839.773,512.54 839.796,511.857L839.827,510.954C839.837,510.59 839.848,510.226 839.859,509.862L839.869,509.504C839.956,506.333 840,503.171 840,500L839.998,498.917ZM407.899,172.643C264.928,212.851 160,344.268 160,500C160,501.295 160.007,502.588 160.022,503.878C179.241,500.83 200.493,502.933 220,514.306C250.886,532.313 286.718,564.039 331.724,618.04C363.912,656.662 407.214,675.735 440,680.147C500.48,688.288 549.829,676.091 586.523,622.799C611.44,586.611 616.247,535.958 576.5,512.799L575.455,512.662C570.117,544.668 544.872,569.979 512.897,575.415L513.201,576.87C501.931,607.079 481.62,623.006 457.201,627.488C409.192,636.299 362.112,621.959 320.744,584.068C296.235,561.62 277.939,527.731 268.847,480.37C263.565,452.857 268.476,418.872 283.845,380.37C291.047,362.329 302.05,341.283 318.301,320.37C339.943,292.519 362.226,265.457 383.365,240.37C407.784,211.391 413.203,185.153 407.899,172.643ZM551.75,163.921C547.291,163.238 542.802,162.642 538.283,162.136L537.951,162.098L537.227,162.019C524.987,160.684 512.573,160 500,160C498.686,160 497.375,160.007 496.063,160.023C499.196,179.343 497.139,200.74 485.694,220.37C467.687,251.256 435.961,287.088 381.96,332.094C343.338,364.282 324.265,407.585 319.853,440.37C311.712,500.85 323.909,550.199 377.201,586.893C413.389,611.81 464.042,616.618 487.201,576.87L487.385,575.463C456.281,570.291 431.498,546.332 425.108,515.664L423.5,516C393.292,504.73 377.365,484.419 372.883,460C364.071,411.991 378.412,364.911 416.302,323.543C438.751,299.033 472.639,280.737 520,271.645C547.513,266.364 581.499,271.275 620,286.644C638.041,293.846 659.087,304.849 680,321.099C707.851,342.741 734.913,365.025 760,386.164C789.259,410.818 815.723,416.104 828.087,410.54L827.956,410.058C804.894,325.895 750.268,254.726 677.605,210.083C677.155,209.806 676.705,209.531 676.247,209.252L675.369,208.721C672.675,207.094 669.957,205.504 667.216,203.951C666.104,203.322 664.989,202.699 663.873,202.082C662.137,201.125 660.392,200.182 658.639,199.255C652.058,195.774 645.348,192.502 638.517,189.447L637.983,189.208L637.74,189.1C633.675,187.295 629.569,185.567 625.427,183.92L624.618,183.599L623.652,183.22L622.952,182.948C621.968,182.565 620.982,182.187 619.997,181.815C614.722,179.822 609.384,177.957 603.985,176.222C599.496,174.78 594.966,173.428 590.403,172.171L590.005,172.061L589.112,171.818C584.212,170.489 579.269,169.266 574.283,168.154C567.342,166.604 560.318,165.266 553.217,164.149C552.728,164.072 552.239,163.996 551.75,163.921Z" style="fill:white;"/>
    </g>
</svg>
