<?xml version="1.0" encoding="UTF-8" standalone="no"?>
<!DOCTYPE svg PUBLIC "-//W3C//DTD SVG 1.1//EN" "http://www.w3.org/Graphics/SVG/1.1/DTD/svg11.dtd">
<svg width="100%" height="100%" viewBox="0 0 1000 1000" version="1.1" xmlns="http://www.w3.org/2000/svg" xmlns:xlink="http://www.w3.org/1999/xlink" xml:space="preserve" xmlns:serif="http://www.serif.com/" style="fill-rule:evenodd;clip-rule:evenodd;stroke-linejoin:round;stroke-miterlimit:2;">
    <g transform="matrix(0.947368,0,0,0.947368,26.3158,26.3158)">
        <path d="M481.38,347.103C481.725,345.535 481.836,343.858 481.671,342.052C487.416,345.257 489.91,350.341 490.928,356.28C496.312,346.949 498.16,336.843 494.014,325.424C499.226,324.854 503.411,327.703 506.356,334.681L506.356,306.91C502.832,297.525 495.047,292.822 478.586,297.653C477.946,298.219 477.3,298.748 476.648,299.244C475.133,292.971 472.654,288.53 468.363,287.683C463.011,249.027 453.697,233.151 441.487,233.931L441.487,241.994L428.05,241.994L433.425,255.432L422.674,266.182C431.753,284.131 438.512,295.442 443.835,302.645C442.062,302.084 440.273,301.443 438.473,300.739C422.583,287.394 408.694,312.6 395.274,346.818C381.119,382.221 364.371,397.514 345.904,399.479L345.904,374.794C327.112,390.772 314.352,381.205 312.887,370.429C311.997,363.881 320.124,353.183 342.819,363.751C344.66,364.609 346.04,361.022 347.737,359.366L350.303,337.766C305.82,349.795 306.551,336.484 316.328,322.338C321.627,314.672 337.755,308.925 352.075,334.681C366.071,331.945 366.489,318.677 362.875,302.282L341.276,300.739C353.037,289.164 360.399,273.804 361.332,252.912C353.638,253.373 347.04,258.471 339.733,262.169C336.038,267.083 335.611,271.29 339.733,274.511L290.363,272.968C298.44,251.17 295.441,229.009 285.735,206.628C284.407,212.843 283.083,225.072 274.935,231.313C262.413,240.903 260.995,260.528 257.964,262.169C239.452,272.189 236.122,283.825 225.565,299.196C223.608,302.045 217.047,301.241 214.765,303.825C222.337,308.946 225.903,313.591 225.052,317.71C224.194,321.861 218.849,325.478 208.594,328.51C212.117,337.825 227.333,335.659 222.48,359.676C221.555,364.25 226.104,367.578 227.108,370.165C234.152,388.315 230.573,387.215 226.172,393.307C222.57,398.295 220.413,404.286 214.765,408.736C217.918,410.706 222.139,412.418 222.48,415.739C224.219,432.695 225.886,450.913 222.572,462.734C219.131,475.003 205.053,483.114 185.452,488.962C211.878,495.052 202.104,509.63 171.567,529.075C181.842,534.732 182.056,540.389 173.11,546.046C175.379,564.499 177.291,582.823 137.625,586.159C129,592.466 119.583,597.596 102.14,590.787C93.761,598.323 91.745,595.792 86.465,590.787C74.964,579.886 70.019,566.9 69.565,552.217C68.592,520.708 95.48,476.335 108.312,438.049L117.569,450.391C118.047,430.46 124.776,405.343 103.796,394.85C88.569,387.235 95.844,370.739 112.856,365.537C128.445,360.77 134.16,347.389 142.253,339.309L126.825,340.852C143.819,318.66 145.028,292.924 137.625,265.254C134.686,285.381 133.044,301.893 106.769,302.282C95.523,302.448 86.374,318.793 80.541,327.807C68.811,345.936 60.89,365.45 58.942,387.136L66.656,384.051C77.262,404.985 84.878,427.152 76.262,445.763C62.155,476.235 42.308,506.323 34.642,536.789C32.111,546.846 32.046,557.346 31.171,567.645L25,564.559C31.086,577.284 39.376,591.397 51.228,607.758L46.599,609.301C89.627,630.627 125.352,625.616 159.224,613.929C147.576,626.62 142.753,639.972 145.339,654.042L153.053,643.243C155.612,658.274 160.071,673.041 185.452,684.898L185.452,709.583C174.296,730.218 164.322,746.41 156.139,755.868C158.923,759.235 165.149,757.22 165.313,760.496C165.563,765.5 163.272,773.499 165.396,782.095L176.195,772.838C175.759,780.56 177.741,782.615 180.824,782.095L183.909,780.553C184.176,792.133 187.267,802.012 203.966,803.695L324.305,803.695C334.196,800.691 338.401,794.57 336.647,785.181C331.966,773.542 337.881,769.882 350.533,771.296C348.985,768.828 357.532,763.36 334.637,758.953C328.095,757.694 336.252,742.949 344.361,729.64C314.718,720.178 300.688,735.923 294.992,765.124L236.365,765.124C230.841,762.484 227.669,759.299 225.565,755.868C227.596,748.668 238.592,739.682 254.879,729.64L253.336,741.982C266.532,732.897 272.165,725.334 271.081,723.237C270.593,722.881 270.307,722.702 270.307,722.702C270.68,722.78 270.938,722.961 271.081,723.237C273.036,724.662 278.225,728.923 281.106,735.811C293.75,713.614 290.867,689.76 278.021,664.842C299.089,662.088 320.17,657.144 341.276,647.871C343.668,662.375 338.526,669.061 325.848,667.927C311.155,701.783 322.199,716.265 367.504,704.955C387.223,697.711 412.992,695.419 440.016,694.155C458.75,692.329 466.979,682.557 464.701,664.842C462.264,657.126 463.476,649.412 470.872,641.7C477.134,635.917 474.887,631.185 461.615,627.814C449.087,631.391 440.944,640.355 435.387,652.499C434.256,661.186 428.87,665.023 419.959,664.842C404.488,666.705 393.373,668.838 382.932,671.013C361.124,675.754 365.467,669.998 379.846,660.213C393.231,650.615 398.679,641.895 396.817,633.986C398.3,636.036 400.685,638.184 401.445,636.748C403.445,632.977 404.552,621.146 412.245,618.558C415.008,592.123 386.448,578.17 306.695,584.616L305.791,566.102L296.534,575.359C297.014,560.515 306.781,546.154 334.294,529.075C344.876,522.505 344.669,506.144 345.904,492.047L370.589,507.475C357.67,498.113 357.362,492.135 367.504,488.962L364.418,470.448L416.873,467.362L423.045,479.705C452.586,459.982 470.778,467.814 484.757,485.876C491.842,481.663 498.563,478.865 504.971,477.296C506.194,478.586 507.428,479.882 508.676,481.187C513.765,496.387 522.386,507.366 532.865,516.125C582.046,509.427 608.749,517.588 621.554,534.938C642.817,529.731 658.853,532.507 664.555,551.064L688.743,575.252L694.118,564.502C708.636,569.006 721.394,577.478 731.744,591.377L737.119,577.939C744.554,584.199 747.993,597.741 750.557,612.878C754.332,619.534 755.864,625.781 755.535,631.691C755.165,638.359 752.425,644.597 747.87,650.504C737.342,662.232 742.393,674.935 758.62,688.129C786.797,695.041 802.589,700.144 805.984,715.005C810.787,736.029 794.023,743.174 761.307,741.881C743.219,757.59 738.714,769.911 766.683,774.131C777.924,772.817 790.143,773.14 797.358,766.069C813.881,749.874 829.014,735.167 847.309,731.13L841.934,706.942C860.563,710.23 866.602,729.587 863.435,760.694C857.834,781.218 843.315,783.43 825.809,779.507C792.984,773.084 785.19,783.404 781.302,790.257C777.976,796.12 779.327,802.053 806.996,803.695L841.934,803.695C859.153,791.246 871.768,779.588 879.56,768.756C882.19,742.908 881.199,716.925 876.873,690.817C877.497,681.99 870.593,675.379 852.685,672.004C841.972,672.414 836.92,669.539 836.559,663.941C834.347,637.426 840.895,632.033 847.309,626.315C855.983,619.633 862.516,612.519 866.122,604.815L876.873,602.127C872.879,594.961 870.345,581.787 868.81,564.502C869.294,559.377 872.21,555.954 876.873,553.751C870.146,553.503 863.77,552.067 858.06,548.376C851.366,539.418 849.575,530.459 852.685,521.501C865.144,509.448 878.848,509.305 892.998,513.438C915.762,514.984 926.816,512.071 927.936,505.375L914.498,494.625C923.391,488.509 927.467,482.185 930.417,475.812C935.672,453.649 952.439,437.957 973.625,424.748C977.006,406.124 974.58,387.309 961.528,368.309C955.839,360.029 961.102,348.416 962.875,338.746L952.124,349.496C935.436,332.774 925.084,314.235 933.311,290.37C946.122,267.46 931.937,241.738 909.123,215.118C918.032,234.726 922.253,252.296 911.811,263.494C859.796,306.82 863.454,334.872 876.873,360.247L884.935,387.122C877.405,383.621 871.115,375.63 866.122,362.934C863.942,390.282 880.245,405.43 898.373,419.373C901.6,438.795 895.479,454.09 879.56,465.062L871.497,465.062C865.22,479.979 851.086,493.041 833.872,505.375C826.267,492.534 810.276,487.923 785.495,491.937C739.119,497.345 715.443,473.111 710.244,424.748C713.681,403.31 705.9,382.531 677.993,362.934L688.743,357.559L669.93,346.809L669.93,322.621L677.993,322.621L667.243,301.12L653.805,255.432C659.066,233.56 667.125,214.864 675.305,196.305C648.071,207.5 630.719,220.124 621.554,233.931C590.215,230.574 564.86,232.528 557.053,250.057C543.882,250.81 528.549,251.012 508.676,250.057C507.301,262.345 508.828,273.535 516.739,282.307C553.963,277.123 578.138,276.423 567.837,284.995C566.179,286.375 551.545,286.629 519.427,287.683C530.702,302.431 547.74,315.672 578.553,325.308C584.838,351.333 579.535,375.662 559.74,397.873L565.115,395.185C569.152,401.344 567.181,404.848 559.74,405.935C527.745,413.936 506.233,412.053 500.614,395.185C499.773,397.05 500.025,387.232 492.551,369.634C489.992,363.607 483.991,357.734 481.801,348.973C481.651,348.372 481.511,347.748 481.38,347.103ZM457.533,352.18C453.883,352.154 449.58,352.495 444.644,353.194C428.697,332.104 421.637,347.929 419.959,386.108C402.987,417.524 395.824,422.972 389.103,427.249C410.298,432.792 430.585,434.161 447.73,421.078C444.104,438.571 452.058,444.194 472.415,443.529C473.132,443.506 473.853,443.487 474.579,443.473C466.096,433.326 458.652,423.583 452.238,413.998C441.537,409.236 434.664,394.144 449.55,382.864C452.846,380.367 458.996,383.13 465.675,384.435C462.574,374.306 459.797,363.656 457.533,352.18ZM324.452,304.253L293.449,285.311C309.263,285.635 322.109,289.203 324.452,304.253ZM281.106,276.054L270.307,282.225C268.64,272.968 268.339,263.712 274.935,254.455C274.545,248.905 276.393,244.423 279.563,240.569C282.384,252.302 283.838,264.091 281.106,276.054ZM578.553,244.681C582.261,244.681 585.272,245.886 585.272,247.369C585.272,248.852 582.261,250.057 578.553,250.057C574.845,250.057 571.834,248.852 571.834,247.369C571.834,245.886 574.845,244.681 578.553,244.681Z" style="fill:white;"/>
    </g>
</svg>
