<?xml version="1.0" encoding="UTF-8" standalone="no"?>
<!DOCTYPE svg PUBLIC "-//W3C//DTD SVG 1.1//EN" "http://www.w3.org/Graphics/SVG/1.1/DTD/svg11.dtd">
<svg width="100%" height="100%" viewBox="0 0 1000 1000" version="1.1" xmlns="http://www.w3.org/2000/svg" xmlns:xlink="http://www.w3.org/1999/xlink" xml:space="preserve" xmlns:serif="http://www.serif.com/" style="fill-rule:evenodd;clip-rule:evenodd;stroke-linejoin:round;stroke-miterlimit:2;">
    <g transform="matrix(4.19037,0,0,4.19037,-1067.2,-1626.15)">
        <path d="M365.026,484.257C342.096,480.623 324.701,463.317 324.701,442.543L324.701,442.416C324.701,439.495 325.045,436.642 325.7,433.885C324.27,433.227 322.92,432.346 321.698,431.237C315.068,425.224 314.719,414.794 320.918,407.96C327.117,401.126 337.532,400.46 344.161,406.474C344.633,406.902 345.073,407.353 345.481,407.823C353.535,402.897 363.378,400 374,400C384.592,400 394.409,402.88 402.447,407.779C402.875,407.279 403.339,406.8 403.839,406.347C410.468,400.334 420.883,401 427.082,407.833C433.281,414.667 432.932,425.097 426.302,431.111C425.073,432.226 423.713,433.112 422.273,433.771C422.946,436.564 423.299,439.455 423.299,442.416L423.299,442.543C423.299,463.317 405.904,480.623 382.974,484.257C395.861,485.563 407.766,489.649 417.854,495.797C418.514,495.026 419.229,494.288 420,493.589C430.22,484.319 446.275,485.346 455.831,495.881C465.388,506.415 464.849,522.495 454.629,531.765C452.734,533.485 450.637,534.85 448.417,535.866C449.455,540.172 450,544.629 450,549.194L450,549.389C450,585.478 415.946,614.778 374,614.778C332.054,614.778 298,585.478 298,549.389L298,549.194C298,544.69 298.53,540.292 299.541,536.042C297.336,535.028 295.254,533.669 293.371,531.96C283.151,522.69 282.612,506.611 292.169,496.076C301.725,485.541 317.78,484.514 328,493.785C328.728,494.445 329.406,495.139 330.035,495.864C340.15,489.678 352.093,485.568 365.026,484.257ZM374,570C374,570 383.628,561.334 383.628,561.334C383.687,561.4 383.765,561.451 383.856,561.479C398.196,565.8 399.107,578.574 394.519,594.864C394.444,595.13 394.599,595.406 394.864,595.481C395.13,595.556 395.406,595.401 395.481,595.136C400.249,578.206 399.048,565.012 384.144,560.521C383.916,560.453 383.678,560.555 383.565,560.753C381.415,559.572 379.072,558.901 374,559L374,559.195C368.928,559.096 366.585,559.768 364.435,560.949C364.322,560.75 364.084,560.648 363.856,560.717C348.952,565.208 347.751,578.401 352.519,595.331C352.594,595.596 352.87,595.751 353.136,595.677C353.401,595.602 353.556,595.325 353.481,595.06C348.893,578.77 349.804,565.995 364.144,561.674C364.235,561.647 364.313,561.596 364.372,561.53L373.821,570.034C373.633,570.106 373.5,570.287 373.5,570.5L373.5,579.447L361.197,588.797C360.978,588.964 360.935,589.278 361.102,589.498C361.269,589.718 361.583,589.76 361.803,589.593L374.128,580.226L386.197,589.398C386.417,589.565 386.731,589.522 386.898,589.303C387.065,589.083 387.022,588.769 386.803,588.602L374.5,579.252C374.5,579.252 374.5,570.5 374.5,570.5C374.5,570.224 374.276,570 374,570ZM328,542.026C324.595,542.026 321.831,544.79 321.831,548.195C321.831,551.6 324.595,554.364 328,554.364C331.405,554.364 334.169,551.6 334.169,548.195C334.169,544.79 331.405,542.026 328,542.026ZM420,541.831C423.405,541.831 426.169,544.595 426.169,548C426.169,551.405 423.405,554.169 420,554.169C416.595,554.169 413.831,551.405 413.831,548C413.831,544.595 416.595,541.831 420,541.831ZM311,509.195C310.26,505.009 308.156,501.024 305,497.195C306.798,497.391 308.992,498.139 315,504.195C313.55,505.626 312.203,507.265 311,509.195ZM437,509C437.74,504.814 439.844,500.829 443,497C441.202,497.196 439.008,497.944 433,504C434.45,505.43 435.797,507.07 437,509ZM374,455.913C374,455.913 380.246,450.292 380.246,450.292C380.284,450.334 380.334,450.367 380.393,450.385C389.695,453.188 390.286,461.475 387.31,472.042C387.261,472.214 387.362,472.393 387.534,472.442C387.707,472.49 387.886,472.39 387.934,472.218C391.027,461.236 390.248,452.677 380.58,449.764C380.433,449.72 380.278,449.786 380.205,449.915C378.81,449.149 377.29,448.713 374,448.777L374,448.904C370.71,448.84 369.19,449.275 367.795,450.041C367.722,449.912 367.567,449.846 367.42,449.891C357.752,452.804 356.973,461.362 360.066,472.344C360.114,472.517 360.293,472.617 360.466,472.568C360.638,472.52 360.739,472.341 360.69,472.168C357.714,461.601 358.305,453.315 367.607,450.512C367.666,450.494 367.716,450.461 367.754,450.418L373.884,455.935C373.762,455.981 373.676,456.099 373.676,456.237L373.676,462.041L365.695,468.106C365.553,468.214 365.525,468.418 365.633,468.561C365.742,468.703 365.945,468.731 366.088,468.622L374.083,462.546L381.912,468.496C382.055,468.604 382.258,468.576 382.367,468.434C382.475,468.291 382.447,468.088 382.305,467.979L374.324,461.914C374.324,461.914 374.324,456.237 374.324,456.237C374.324,456.058 374.179,455.913 374,455.913ZM344.161,437.767C341.952,437.767 340.159,439.56 340.159,441.769C340.159,443.977 341.952,445.77 344.161,445.77C346.37,445.77 348.163,443.977 348.163,441.769C348.163,439.56 346.37,437.767 344.161,437.767ZM403.839,437.64C406.048,437.64 407.841,439.433 407.841,441.642C407.841,443.851 406.048,445.644 403.839,445.644C401.63,445.644 399.837,443.851 399.837,441.642C399.837,439.433 401.63,437.64 403.839,437.64ZM333.133,416.47C332.654,413.755 331.289,411.17 329.241,408.686C330.408,408.813 331.831,409.298 335.728,413.227C334.788,414.155 333.914,415.218 333.133,416.47ZM414.867,416.344C415.346,413.628 416.711,411.043 418.759,408.559C417.592,408.686 416.169,409.172 412.272,413.1C413.212,414.028 414.086,415.091 414.867,416.344Z" style="fill:white;"/>
    </g>
</svg>
