<?xml version="1.0" encoding="UTF-8" standalone="no"?>
<!DOCTYPE svg PUBLIC "-//W3C//DTD SVG 1.1//EN" "http://www.w3.org/Graphics/SVG/1.1/DTD/svg11.dtd">
<svg width="100%" height="100%" viewBox="0 0 1000 1000" version="1.1" xmlns="http://www.w3.org/2000/svg" xmlns:xlink="http://www.w3.org/1999/xlink" xml:space="preserve" xmlns:serif="http://www.serif.com/" style="fill-rule:evenodd;clip-rule:evenodd;stroke-linejoin:round;stroke-miterlimit:2;">
    <g transform="matrix(2.64385,0,0,2.64385,-793.069,-666.092)">
        <path d="M488.803,611.263C464.885,611.145 454.614,595.947 454.614,595.947C453.664,597.528 452.289,576.729 452.843,559.786L525.327,559.786C525.88,576.729 524.506,597.528 523.555,595.947C523.555,595.947 513.285,611.145 489.367,611.263L488.803,611.263ZM489.529,270.852C565.022,271.015 595.337,311.733 612.093,352.603C626.395,387.484 623.37,471.624 607.631,535.475C597.889,575 574.827,593.906 529.458,595.947C531.517,583.17 532.945,569.69 531.936,553.5L446.233,553.5C445.225,569.69 446.652,583.17 448.712,595.947C403.343,593.906 380.281,575 370.539,535.475C354.8,471.624 351.775,387.484 366.076,352.603C382.867,311.651 413.289,270.851 489.085,270.851L489.529,270.852ZM555.068,408.627C560.967,408.627 565.756,413.416 565.756,419.315C565.756,425.214 560.967,430.003 555.068,430.003C549.17,430.003 544.38,425.214 544.38,419.315C544.38,413.416 549.17,408.627 555.068,408.627ZM423.101,408.627C417.202,408.627 412.413,413.416 412.413,419.315C412.413,425.214 417.202,430.003 423.101,430.003C429,430.003 433.789,425.214 433.789,419.315C433.789,413.416 429,408.627 423.101,408.627Z" style="fill:white;"/>
    </g>
</svg>
