<?xml version="1.0" encoding="UTF-8" standalone="no"?>
<!DOCTYPE svg PUBLIC "-//W3C//DTD SVG 1.1//EN" "http://www.w3.org/Graphics/SVG/1.1/DTD/svg11.dtd">
<svg width="100%" height="100%" viewBox="0 0 1000 1000" version="1.1" xmlns="http://www.w3.org/2000/svg" xmlns:xlink="http://www.w3.org/1999/xlink" xml:space="preserve" xmlns:serif="http://www.serif.com/" style="fill-rule:evenodd;clip-rule:evenodd;stroke-linejoin:round;stroke-miterlimit:2;">
    <g transform="matrix(1.35952,0,0,1.35952,-171.601,-123.945)">
        <path d="M553.32,199.383C564.082,187.587 575.557,176.565 586,165C635.657,141.388 650.283,149.203 617,200C611.704,205.245 606.452,210.573 601.237,215.981C692.531,257.849 756,350.071 756,457C756,494.369 748.248,529.941 734.264,562.202C763.847,588.014 794.105,612.578 825,636C788.883,623.37 753.871,608.263 720.017,590.332C686.766,647.277 632.893,690.729 568.683,710.412C566.363,720.88 563.815,730.144 561,738L555,723C549.167,749.401 543.208,755.635 537,722C536.813,720.704 536.623,719.408 536.429,718.114C521.669,720.668 506.489,722 491,722C475.643,722 460.589,720.691 445.955,718.18C444.654,730.864 443.316,743.479 442,756L437,744L434,759C430.496,767.715 427.157,767.992 424,759C422.267,743.361 420.606,727.723 419.019,712.09C356.059,694.33 302.581,653.874 267.986,600.121C237.853,628.11 206.742,655.008 175,681C190.877,662.244 205.839,642.948 218,622L163,670C188.348,636.759 217.033,602.315 249.671,566.557C234.471,533.168 226,496.065 226,457C226,341.544 299.995,243.235 403.121,206.943C406.454,198.296 409.37,189.648 412,181C416.056,187.558 420.139,194.066 424.233,200.497C445.555,194.953 467.935,192 491,192C512.456,192 533.32,194.555 553.32,199.383ZM469.538,372.392C458.338,386.797 447.156,401.283 435.937,415.766C437.934,418.382 439.954,421.768 442,426C460.093,503.66 457.72,587.076 450.641,669.15C463.724,671.628 477.212,672.923 491,672.923C503.966,672.923 516.666,671.778 528.992,669.585C527.432,657.613 526.314,645.629 526.158,633.591C525.31,567.899 525.513,502.283 521.947,435.877C503.948,416.144 486.473,395.011 469.538,372.392ZM399.929,461.245C369.833,497.692 337.775,532.314 304.258,565.403C328.924,607.765 367.581,640.988 413.886,658.723C407.907,592.903 403.237,527.075 399.929,461.245ZM590.502,502.32C587.154,557.68 583.378,610.78 577.864,654.712C619.666,636.304 654.544,605.017 677.457,565.891C647.451,547.261 618.45,526.158 590.502,502.32ZM398.04,262.087C325.345,296.851 275.077,371.101 275.077,457C275.077,481.549 279.183,505.147 286.747,527.151C307.638,505.589 329.968,483.56 353.863,461.04C389.955,427.023 421.279,387.828 450.814,346.458C432.544,320.219 414.946,292.135 398.04,262.087ZM565.84,254.42C546.581,276.233 527.762,298.926 509.156,322.111C567.083,397.81 629.331,465.764 695.276,527.084C702.825,505.101 706.923,481.525 706.923,457C706.923,364.13 648.165,284.875 565.84,254.42ZM520.732,243.111C511.003,241.769 501.082,241.077 491,241.077C478.07,241.077 465.404,242.216 453.105,244.398C464.378,260.988 475.842,277.238 487.477,293.14C498.586,276.539 509.612,259.805 520.732,243.111Z" style="fill:white;"/>
    </g>
</svg>
