<?xml version="1.0" encoding="UTF-8" standalone="no"?>
<!DOCTYPE svg PUBLIC "-//W3C//DTD SVG 1.1//EN" "http://www.w3.org/Graphics/SVG/1.1/DTD/svg11.dtd">
<svg width="100%" height="100%" viewBox="0 0 1000 1000" version="1.1" xmlns="http://www.w3.org/2000/svg" xmlns:xlink="http://www.w3.org/1999/xlink" xml:space="preserve" xmlns:serif="http://www.serif.com/" style="fill-rule:evenodd;clip-rule:evenodd;stroke-linejoin:round;stroke-miterlimit:2;">
    <g transform="matrix(18.5047,0,0,18.5047,-12238.1,-7740.46)">
        <path d="M710,421C709.706,422.863 709.408,424.722 707,425C704.103,425.641 703.089,427.517 703,430C699.984,437.515 698.186,436.289 696.346,435.228C694.913,434.402 695.012,431.512 700,426C696.434,426.436 693.434,428.068 692,433C689.474,438.419 687.755,437.776 686.5,437.655C684.802,437.492 684.583,436.041 688,431C684.823,432.083 682.424,434.556 681.5,435.784C680.847,436.651 680.365,435.47 680.5,432.5C678.818,436.097 676.108,438.149 673,439C662.435,448.244 665.361,459.564 672.183,466C678.781,472.224 689.733,471.018 700,458C700.823,456.791 701.502,454.852 702,452C699.414,454.716 697.835,455.241 697.276,454.5C696.887,453.984 696.767,452.661 700,450C701.068,449.055 700.561,445.241 702.08,444.5C704.013,443.558 705.835,442.637 707,440C705.886,441.335 702.84,442.561 701.5,442.105C697.955,440.898 697.032,447.86 695.664,446.5C694.708,445.55 695.001,443.243 700,440C704.626,439.233 706.656,435.244 706.286,429C706.179,427.187 708.646,426.385 710,425.53C711.325,424.693 710.431,422.5 710,421Z" style="fill:white;"/>
    </g>
</svg>
