<?xml version="1.0" encoding="UTF-8" standalone="no"?>
<!DOCTYPE svg PUBLIC "-//W3C//DTD SVG 1.1//EN" "http://www.w3.org/Graphics/SVG/1.1/DTD/svg11.dtd">
<svg width="100%" height="100%" viewBox="0 0 1000 1000" version="1.1" xmlns="http://www.w3.org/2000/svg" xmlns:xlink="http://www.w3.org/1999/xlink" xml:space="preserve" xmlns:serif="http://www.serif.com/" style="fill-rule:evenodd;clip-rule:evenodd;stroke-linejoin:round;stroke-miterlimit:2;">
    <g transform="matrix(4.37142,0,0,4.37142,-1611.14,-1544.5)">
        <path d="M450.358,427.473C450.342,427.133 450.33,426.793 450.322,426.451C450.479,406.866 453.739,387.281 473.253,367.697C476.934,370.33 480.275,373.219 482.869,376.671L483.014,376.671C485.608,373.219 488.949,370.33 492.63,367.697C512.144,387.281 515.404,406.866 515.561,426.451C515.552,426.793 515.54,427.133 515.525,427.473C515.985,427.294 516.454,427.12 516.93,426.952C535.605,421.049 555.239,418.097 579.895,430.605C578.529,434.919 576.813,438.989 574.331,442.523L574.377,442.661C578.461,444.061 582.241,446.346 585.883,449.033C573.287,473.644 555.668,482.797 537.09,488.998C536.499,489.174 535.912,489.336 535.327,489.486C537.195,491.166 538.975,493.095 540.657,495.295C552.042,511.232 560.916,528.993 556.64,556.307C552.114,556.341 547.713,555.967 543.586,554.699L543.468,554.784C543.399,559.102 542.394,563.403 540.964,567.697C513.665,563.322 499.516,549.394 487.877,533.642C485.705,530.493 484.083,527.326 482.941,524.142C481.8,527.326 480.178,530.493 478.006,533.642C466.367,549.394 452.218,563.322 424.919,567.697C423.489,563.403 422.484,559.102 422.415,554.784L422.297,554.699C418.17,555.967 413.769,556.341 409.243,556.307C404.967,528.993 413.841,511.232 425.226,495.295C426.908,493.095 428.688,491.166 430.556,489.486C429.971,489.336 429.384,489.174 428.793,488.998C410.215,482.797 392.596,473.644 380,449.033C383.642,446.346 387.422,444.061 391.506,442.661L391.552,442.523C389.07,438.989 387.354,434.919 385.988,430.605C410.644,418.097 430.278,421.049 448.953,426.952C449.429,427.12 449.898,427.294 450.358,427.473ZM446.044,438.692C465.804,426.848 459.945,441.997 452.791,458.51C445.602,459.142 442.797,461.488 441.2,464.305C452.326,461.159 454.768,466.774 450.859,478.794C444.175,478.614 440.59,480.255 438.303,482.658C444.239,482.281 448.68,483.04 448.928,485.671C449.67,493.561 440.36,507.96 434.439,520.328C458.752,514.334 477.55,515.938 494.326,520.328C497.932,515.299 500.2,509.974 507.848,505.84C510.626,507.496 512.244,509.53 513.644,511.635C523.428,507.098 533.386,501.631 534.894,499.078C535.904,497.369 536.918,493.309 524.269,498.112C513.978,482.259 503.69,466.397 489.496,466.237L512.678,447.885C511.037,441.425 508.02,438.095 503.985,437.082C497.454,435.443 490.162,441.895 477.905,446.919C478.774,437.686 480.934,429.81 487.564,426.635C478.042,419.711 474.054,437.126 469.212,450.783L469.212,459.476C470.017,469.108 470.91,478.608 458.587,507.772L452.791,510.669L464.382,469.135C461.882,458.398 462.323,446.998 468.246,434.362C470.07,429.995 470.58,426.582 466.314,426.635C458.103,427.268 450.851,430.134 446.044,438.692ZM473.019,499.343C480.272,499.938 487.237,500.939 491.428,505.84L501.087,499.078C495.783,487.279 489.779,476.944 478.871,476.862L473.019,499.343ZM496.257,449.817L482.735,458.51C480.331,456.148 494.145,447.565 495.834,448.246C496.216,448.4 496.376,448.895 496.257,449.817Z" style="fill:white;"/>
    </g>
</svg>
