<?xml version="1.0" encoding="UTF-8" standalone="no"?>
<!DOCTYPE svg PUBLIC "-//W3C//DTD SVG 1.1//EN" "http://www.w3.org/Graphics/SVG/1.1/DTD/svg11.dtd">
<svg width="100%" height="100%" viewBox="0 0 1000 1000" version="1.1" xmlns="http://www.w3.org/2000/svg" xmlns:xlink="http://www.w3.org/1999/xlink" xml:space="preserve" xmlns:serif="http://www.serif.com/" style="fill-rule:evenodd;clip-rule:evenodd;stroke-linejoin:round;stroke-miterlimit:2;">
    <g transform="matrix(1.02889,0,0,1.02889,-14.4454,-14.4456)">
        <path d="M382.832,766.507C382.757,766.358 382.68,766.205 382.603,766.052C360.911,723.146 290.289,662.639 268.135,632.734C209.096,553.038 184.673,455.792 168.695,407.117C143.608,330.694 135.521,221.563 165.242,164.567C194.963,107.571 273.115,61.279 338.97,62.666C420.093,64.375 473.667,120.762 490.684,182.552C492.543,189.304 494.169,196.443 495.521,203.833C532.703,167.45 578.818,144.463 609.737,158.731C648.638,176.683 648.053,301.104 605.395,376.656C596.159,393.015 586.506,413.722 580.028,430.981C578.331,435.503 579.022,442.855 577.421,446.193C565.469,471.111 564.038,481.232 525.575,475.683C506.708,458.335 508.107,443.626 545.086,420.483C570.673,407.895 596.619,363.192 613.242,296.298C623.971,262.907 624.082,231.761 616.509,202.239C616.509,202.239 611.133,180.081 601.546,176.184C591.802,172.224 571.262,172.77 558.047,178.478C542.588,185.156 518.147,208.387 499.005,229.637C501.783,261.06 501.692,295.182 489.44,320.472C471.059,358.413 441.626,372.559 434.369,319.3C432.135,302.901 453.148,252.152 478.877,221.732C475.187,192.973 466.975,163.053 454.498,145.104C430.957,111.237 381.458,84.056 336.601,83.113C261.304,81.53 203.287,138.839 187.149,175.052C160.583,234.662 169.563,326.287 192.386,396.862C207.111,442.398 238.537,526.118 277.677,595.482C316.413,664.131 378.387,705.712 406.027,750.305C408.529,754.342 410.764,758.242 412.749,762.006C656.475,727.116 1005.18,718.423 782.66,800.655C778.57,802.166 580.515,777.643 423.329,787.981C433.582,825.223 416.245,846.74 403.407,863.852C327.912,964.487 246.684,946.064 214.081,901.474C190.338,869 189.77,817.199 241.217,798.298C272.276,786.888 323.23,775.931 382.832,766.507ZM390.831,790.702C328.762,797.12 276.473,810.213 250.496,834.269C214.028,868.04 231.849,887.712 252.664,898.191C295.578,919.795 328.526,896.819 334.807,891.655C351.735,877.739 365.628,869.198 377.895,846.582C385.022,833.443 394.671,814.855 390.831,790.702ZM481.078,250.925C473.207,261.096 468.884,268.328 470.939,268.947C459.038,288.699 453.713,308.748 459.852,329.317C462.127,321.309 473.715,301.229 477.847,286.314C480.279,277.534 481.343,265.061 481.078,250.925Z" style="fill:white;"/>
    </g>
</svg>
