<?xml version="1.0" encoding="UTF-8" standalone="no"?>
<!DOCTYPE svg PUBLIC "-//W3C//DTD SVG 1.1//EN" "http://www.w3.org/Graphics/SVG/1.1/DTD/svg11.dtd">
<svg width="100%" height="100%" viewBox="0 0 1000 1000" version="1.1" xmlns="http://www.w3.org/2000/svg" xmlns:xlink="http://www.w3.org/1999/xlink" xml:space="preserve" xmlns:serif="http://www.serif.com/" style="fill-rule:evenodd;clip-rule:evenodd;stroke-linejoin:round;stroke-miterlimit:2;">
    <g transform="matrix(1.74283,0,0,1.74283,-305.133,-347.436)">
        <path d="M360.182,339.894C365.87,335.629 371.792,331.66 377.925,328.01C376.724,323.103 376.45,318.114 377.188,313.037C383.928,312.651 389.59,314.877 394.372,319.233C408.294,312.621 423.098,307.57 438.559,304.307C444.791,288.337 454.623,274.798 470,265L470,255L462,246C447.179,251.56 450.666,241.357 452,238.099C454.157,232.829 457.309,232.732 465,240L480,240C475.078,234.739 488.779,223.521 495,230C501.998,237.287 488.978,247.27 484.835,244L480,250L480,265C494.159,273.837 505.929,286.998 516,303.237C529.76,305.742 543.03,309.657 555.648,314.823C558.983,312.795 562.745,311.167 567,310C568.028,313.594 568.733,317.223 569.047,320.896C590.394,331.54 609.577,345.889 625.747,363.097C635.289,361.173 645.003,362.718 655,370C647.722,351.184 649.452,349.97 662.052,370C672.781,375.412 668.251,378.045 660,380C661.871,389.214 660.423,398.501 657.505,407.819C661.537,415.56 665.076,423.596 668.082,431.884C676.029,435.9 683.505,441.893 690,452C693.476,450.069 695.52,450.268 695.864,453C696.19,455.597 700.175,467.162 692,468C689.069,475.328 684.588,481.995 679.673,488.477C679.89,492.289 680,496.132 680,500C680,507.208 679.618,514.327 678.871,521.355C683.611,523.727 687.244,528.438 690,535C690.025,537 691.18,539 693,541C691.767,543.134 690.087,544.787 688,546C689.536,546.621 690.481,548.028 691,550C688.695,550.207 686.668,551.136 685,553C680.576,558.618 675.046,562.094 669.198,564.956C666.977,571.419 664.434,577.733 661.589,583.877C681.87,594.787 691.725,609.598 700,625C703.472,627.134 708.598,628.762 715,630C709.296,634.9 703.322,636.394 697.12,635C685.851,642.816 672.4,647.607 650,640C641,639.625 633.05,638.472 625.946,636.693C619.435,643.642 612.433,650.126 604.999,656.089L605,656.088L601,667C602.357,674.059 601.594,680.626 600,687C604.139,692.212 610.238,697.2 618,702C609.175,702.692 600.763,701.404 593,697C572.882,697.449 561.284,692.898 553.861,685.898C531.109,694.956 506.3,699.957 480.334,699.999C475.105,711.883 467.303,723.049 448,731C446.943,733.808 444.478,736.092 441,738C440.178,745.325 435.484,748.846 424,735C405.034,718.736 393.281,699.683 388.581,677.9C373.918,670.344 360.306,661.027 348.023,650.226C330.158,652.095 314.579,648.84 301.02,641.062C301.544,642.375 301.505,643.687 301,645C296.502,641.822 294.65,638.454 294,635C295.201,634.439 296.489,634.244 298,635C292.904,618.017 295.6,604.14 302.334,591.873C298.949,585.346 295.914,578.609 293.254,571.692C285.807,566.096 278.898,558.77 274,545C276,545.694 278,545.787 280,545C280.842,541.675 281.918,538.455 283.108,535.284C281.659,527.158 280.702,518.86 280.268,510.425C260.069,504.406 240.267,491.698 221,470C204.317,479.474 207.588,472.449 215,462C211.012,446.663 214.531,447.561 222,457C233.489,445.597 259.438,445.431 287.2,446.674C292.066,429.07 299.28,412.437 308.482,397.137C304.308,391.367 299.996,385.705 296.038,380C288.205,368.709 287.758,354.363 290,340C269.885,340.381 264.613,338.309 270,334.474C274.856,330.231 280.083,328.051 285.545,327.182C284.756,317.272 291.666,311.172 297.68,314.374C299.469,315.327 303.108,321.536 293.489,330C319.261,328.097 341.613,331.218 360.182,339.894ZM580,676C578.093,677.15 576.277,678.369 574.596,679.691C572.914,681.013 571.368,682.438 570,684C578.593,690.162 582.627,688.673 580,676ZM434.639,553.298C419.564,540.451 410,521.334 410,500C410,461.366 441.366,430 480,430C518.634,430 550,461.366 550,500C550,538.634 518.634,570 480,570C465.377,570 451.795,565.506 440.563,557.827C441.345,558.087 442.132,558.338 442.923,558.579C467.062,565.933 494.73,564.02 512.927,548.979C525.097,538.921 533.083,522.999 532.932,499.993C532.649,456.793 495.458,439.493 465.806,448.695C446.053,454.825 429.592,472.706 429.66,502.595C429.717,527.094 451.286,540.351 472.408,540.817C485.088,541.096 497.565,536.755 505.098,527.572C510.141,521.425 512.994,513.106 512.188,502.511C510.762,483.756 500.103,472.567 487.912,468.669C476.869,465.138 464.542,467.603 456.505,475.864C451.164,481.353 447.697,489.411 447.809,500.011C447.908,509.473 455.043,516.425 463.564,519.299C471.222,521.882 479.946,521.139 485.557,516.131C489.316,512.776 491.729,507.504 491.45,499.96C491.131,491.328 486.711,486.857 481.733,485.643C474.21,483.808 465.141,489.457 465.96,500.083C466.006,500.677 466.526,501.123 467.12,501.077C467.715,501.031 468.16,500.511 468.114,499.917C467.429,491.027 474.928,486.207 481.221,487.742C485.453,488.774 489.019,492.702 489.291,500.04C489.54,506.779 487.476,511.522 484.119,514.519C479.055,519.039 471.165,519.583 464.255,517.252C456.588,514.666 450.058,508.501 449.969,499.989C449.865,490.068 453.055,482.508 458.053,477.371C465.524,469.692 476.99,467.445 487.254,470.727C498.739,474.399 508.69,485.005 510.034,502.675C510.79,512.615 508.16,520.434 503.428,526.202C496.298,534.893 484.456,538.921 472.455,538.657C452.443,538.215 431.874,525.803 431.821,502.59C431.755,473.882 447.474,456.646 466.446,450.759C494.88,441.935 530.5,458.581 530.772,500.007C530.917,522.208 523.294,537.607 511.551,547.314C493.879,561.92 466.994,563.654 443.552,556.513C440.514,555.587 437.533,554.512 434.639,553.298ZM280.284,489.271C250.391,482.007 256.69,490.298 280.087,505.938C280.029,503.966 280,501.987 280,500C280,496.403 280.095,492.828 280.284,489.271ZM286.917,447.709C277.333,448.835 271.289,450.367 270.281,452.478C269.274,454.588 273.303,457.277 283.864,460.715C284.739,456.329 285.758,451.994 286.917,447.709ZM490.826,300.289C487.241,300.097 483.632,300 480,300C474.149,300 468.357,300.252 462.631,300.746C466.465,288.942 470.601,283.226 475,282.789C479.961,282.295 485.256,288.516 490.826,300.289ZM477.5,243L468,243L472,250L477.5,243ZM456,238C457.104,238 458,239.12 458,240.5C458,241.88 457.104,243 456,243C454.896,243 454,241.88 454,240.5C454,239.12 454.896,238 456,238ZM490,235C491.104,235 492,236.12 492,237.5C492,238.88 491.104,240 490,240C488.896,240 488,238.88 488,237.5C488,236.12 488.896,235 490,235Z" style="fill:white;"/>
    </g>
</svg>
