<?xml version="1.0" encoding="UTF-8" standalone="no"?>
<!DOCTYPE svg PUBLIC "-//W3C//DTD SVG 1.1//EN" "http://www.w3.org/Graphics/SVG/1.1/DTD/svg11.dtd">
<svg width="100%" height="100%" viewBox="0 0 1000 1000" version="1.1" xmlns="http://www.w3.org/2000/svg" xmlns:xlink="http://www.w3.org/1999/xlink" xml:space="preserve" xmlns:serif="http://www.serif.com/" style="fill-rule:evenodd;clip-rule:evenodd;stroke-linejoin:round;stroke-miterlimit:2;">
    <g transform="matrix(2.02991,0,0,2.02991,-547.122,-660.836)">
        <path d="M571,493C559.426,490.209 547.495,489.761 535,493C529.872,472.193 525.961,451.601 510,440C505.577,461.024 503.125,482.574 503.955,505C504.138,509.956 505.482,514.955 506,520C503.73,532.624 497.811,541.377 490.917,538.263C485.776,541.852 473.395,511.417 471.325,507.43C449.539,465.453 436.203,365.809 438.367,351.333C431.967,349.461 426.08,348.558 426.367,359.333C418.487,406.212 464.367,548.303 479,549C458.671,577.082 450.352,612.037 470,663C467.394,686.637 469.766,702.913 477,712C479.547,731.585 477.008,748.219 473,764C477.322,778.039 487.809,775.667 492,772C496.191,768.333 494.733,748.226 498.148,742C499.483,739.376 501.15,715.978 503,681C505.559,682.527 509.146,684.339 510.224,688C514.978,704.14 521.767,725.506 533,740L538,783C533.945,790.299 539.967,792.916 550,793.41C559.983,793.901 568.878,793.848 563,780C558.507,767.027 551.205,751.791 558.141,739C563.745,728.667 565.76,717.662 568,706C571.56,701.199 576.791,696.303 576.877,690C577.073,675.625 575.125,661.963 578.495,650C587.266,618.864 589.262,594.409 589,571C601.761,564.382 603.529,541.178 602,513C607.628,500.701 608.279,481.522 600,450C585.408,462.594 575.941,476.998 571,493ZM565,537.348C568.797,529.91 573.13,525.043 578.097,523.219C583.064,521.395 588.666,522.614 595,527.348C590.447,539.692 580.405,542.956 565,537.348ZM532.434,520.063C533.978,520.07 535.467,520.343 536.903,520.871C541.87,522.695 546.203,527.562 550,535C545.186,536.752 540.896,537.638 537.133,537.652L536.992,537.652C528.79,537.633 523.112,533.439 520,525C524.478,521.653 528.591,520.063 532.372,520.063L532.434,520.063ZM569,536.348C573.133,530.367 575.669,526.881 578.653,525.633C581.638,524.385 585.072,525.376 591,528.348C585.744,537.1 583.589,537.787 569,536.348Z" style="fill:white;"/>
    </g>
</svg>
