<?xml version="1.0" encoding="UTF-8" standalone="no"?>
<!DOCTYPE svg PUBLIC "-//W3C//DTD SVG 1.1//EN" "http://www.w3.org/Graphics/SVG/1.1/DTD/svg11.dtd">
<svg width="100%" height="100%" viewBox="0 0 1000 1000" version="1.1" xmlns="http://www.w3.org/2000/svg" xmlns:xlink="http://www.w3.org/1999/xlink" xml:space="preserve" xmlns:serif="http://www.serif.com/" style="fill-rule:evenodd;clip-rule:evenodd;stroke-linejoin:round;stroke-miterlimit:2;">
    <g transform="matrix(4.0724,0,0,4.09091,-1536.2,-1443.18)">
        <path d="M500,365C560.987,365 610.5,414.289 610.5,475C610.5,535.711 560.987,585 500,585C439.013,585 389.5,535.711 389.5,475C389.5,414.289 439.013,365 500,365ZM577,462L577,465L579.116,465C579.27,466.002 579.406,467.002 579.526,468L576.5,468L576.5,463.5L571,463.5L571,469L575,469L575,473L569,473L569,471L555,471L555,485L565,485L565,495L577,495L577,483L569,483L569,481L575,481L575,474L580.043,474C581.475,500.87 570.942,524.493 559,524.493C549.012,524.493 536.738,516.904 530,473C522.313,478.754 511.594,491.821 500,507L498.916,505.583C487.738,491.01 477.446,478.574 470,473C463.262,516.904 450.988,524.493 441,524.493C431.725,524.493 423.3,510.243 420.671,491.295C422.006,488.529 423.84,485.193 425,485C427,484.667 429.167,493.167 431,493C432.833,492.833 434.5,484.167 436,484C437.5,483.833 438.833,492 440,492C441.167,492 443,485 443,484C443,483 440.85,486.85 440,486C438.833,484.833 437.5,477.167 436,477C434.5,476.833 432.667,485.167 431,485C429.333,484.833 428.5,476.013 426,476C424.649,475.993 421.859,480.491 419.959,483.863C418.706,460.621 426.132,432.671 450,415C464.44,428.465 480.257,453.027 497.737,491C498.489,492.632 499.243,494.288 500,495.97L500.43,495.016C518.639,454.752 535.057,428.935 550,415C557.061,420.228 562.683,426.355 567.071,433L556,433L556,446L569,446L569,436.087C571.828,440.877 574.056,445.892 575.756,451L567,451L567,457L562,457L562,454L554,454L554,462L561,462L561,464L568,464L568,460L576,460L576,451.748C576.358,452.86 576.689,454 576.689,454L584,454L584,462L577,462ZM566,504L559,504L559,511L566,511L566,504ZM587,504L580,504L580,511L587,511L587,504ZM590,485L587,485L587,488L590,488L590,485ZM607.036,473L600.036,473L600.036,480L607.036,480L607.036,473ZM589,469L584,469L584,474L589,474L589,469ZM436.301,448.5C439.337,448.5 441.465,451.413 441.051,455C440.638,458.587 437.837,461.5 434.801,461.5C431.766,461.5 429.638,458.587 430.051,455C430.465,451.413 433.266,448.5 436.301,448.5ZM594,448L591,448L591,451L594,451L594,448ZM587,434L579,434L579,442L587,442L587,434Z" style="fill:white;"/>
    </g>
</svg>
