<?xml version="1.0" encoding="UTF-8" standalone="no"?>
<!DOCTYPE svg PUBLIC "-//W3C//DTD SVG 1.1//EN" "http://www.w3.org/Graphics/SVG/1.1/DTD/svg11.dtd">
<svg width="100%" height="100%" viewBox="0 0 1000 1000" version="1.1" xmlns="http://www.w3.org/2000/svg" xmlns:xlink="http://www.w3.org/1999/xlink" xml:space="preserve" xmlns:serif="http://www.serif.com/" style="fill-rule:evenodd;clip-rule:evenodd;stroke-linejoin:round;stroke-miterlimit:2;">
    <g transform="matrix(2.51269,0,0,2.51269,-903.612,-699.933)">
        <path d="M629,464C593.508,503.244 558.286,543.208 523,583C518.95,586.297 514.882,588.495 515,590.204C515.537,598.01 526.833,602.052 544,576C548.499,578.087 552.499,576.087 556,570C581.96,534.74 608.23,500.527 635,468L670,497C687.75,504.676 697.957,507.877 696,497.307C695.508,494.651 693.813,491.159 684,485L645,456C670.361,427.999 694.642,400.269 737,368C738.585,364.497 737.428,361.528 734,359C702.293,387.403 670.19,418.866 638,451C615.829,434.628 589.876,412.103 573,416C575.506,421.887 593.189,437.271 629,464ZM450,415C431.412,401.438 412.75,387.036 395,383C406.531,400.114 424.724,410.601 442,422C423.292,444.591 404.429,467.034 383,487C375.458,492.81 380.792,496.477 393,499C413.117,479.957 431.985,455.139 451,431C463.184,437.384 475.502,445.509 488,456C495.346,454.745 501.027,449.57 495,446C482.422,438.381 471.023,429.838 460,421C468.281,412.712 480.203,401.586 494,389C518.828,381.797 521.368,372.702 505,362C485.647,379.071 467.878,397.067 450,415Z" style="fill:white;"/>
    </g>
</svg>
