<?xml version="1.0" encoding="UTF-8" standalone="no"?>
<!DOCTYPE svg PUBLIC "-//W3C//DTD SVG 1.1//EN" "http://www.w3.org/Graphics/SVG/1.1/DTD/svg11.dtd">
<svg width="100%" height="100%" viewBox="0 0 1000 1000" version="1.1" xmlns="http://www.w3.org/2000/svg" xmlns:xlink="http://www.w3.org/1999/xlink" xml:space="preserve" xmlns:serif="http://www.serif.com/" style="fill-rule:evenodd;clip-rule:evenodd;stroke-linejoin:round;stroke-miterlimit:2;">
    <g transform="matrix(1.31239,0,0,1.31239,-191.181,-216.565)">
        <path d="M561.788,677.209L500.227,785C448.442,755.594 392.234,749.414 330.227,776L387.227,683C478.684,651.643 529.599,656.145 561.788,677.209ZM494.857,768.339L506.69,743.598L505.863,743.046C491.654,733.58 480.764,722.913 470.038,712.19L468.173,712.553C462.568,725.769 457.057,739.034 452.15,752.611L451.792,753.6L452.748,754.041C465.421,759.885 480.442,764.731 493.949,768.112L494.857,768.339ZM503.766,744.4L493.598,765.66C480.801,762.41 466.723,757.859 454.665,752.397C459.272,739.74 464.396,727.35 469.62,715.011C479.855,725.222 490.349,735.337 503.766,744.4ZM451.23,673.554L449.978,671.882C431.332,676.04 412.62,681.487 393.856,687.916L393.509,688.035L393.295,688.334C376.128,712.369 360.096,737.302 344.259,762.388L345.772,764.008C365.693,753.239 387.121,748.132 410.177,749.145L410.91,749.177L411.246,748.525C423.351,725.014 436.458,700.292 451.23,673.554ZM447.991,674.68C433.845,700.338 421.227,724.147 409.544,746.825C387.791,745.989 367.464,750.512 348.464,760.024C363.477,736.29 378.704,712.726 394.946,689.965C412.678,683.901 430.365,678.718 447.991,674.68L447.991,674.68ZM446.962,753.115L447.895,753.337L448.278,752.458C461.249,722.685 474.988,694.162 491.184,669.631L490.327,667.858C479.895,666.949 469.464,667.066 459.032,668.871L458.576,668.95L458.303,669.323C439.605,694.842 427.387,721.178 415.188,747.518L416.206,749.146C426.688,749.342 436.928,750.723 446.962,753.115ZM446.559,750.666C437.226,748.501 427.715,747.201 418.001,746.898C429.837,721.349 441.803,695.813 459.878,671.052C469.323,669.463 478.767,669.281 488.211,669.986C472.563,694.011 459.189,721.735 446.559,750.666ZM869.544,595.692L780,486.249C688.565,514.609 637.847,567.004 609.613,632.67L671.516,740C707.189,665.013 767.989,615.237 869.544,595.692ZM542.209,680.592L541.626,678.926C527.473,673.68 513.136,668.896 497.303,667.857L496.733,667.819L496.36,668.251C485.942,680.321 477.599,693.786 471.177,708.543L470.909,709.159L471.315,709.693C480.108,721.266 492.237,730.55 505.617,738.97L506.605,739.592L542.209,680.592ZM539.53,680.595L505.851,736.406C493.309,728.436 481.929,719.671 473.549,708.84C479.763,694.715 487.773,681.797 497.722,670.183C512.618,671.249 526.173,675.677 539.53,680.595ZM664.453,623.617L663.674,623.282L663.126,623.929C653.05,635.807 644.151,649.022 636.008,663.096L635.664,663.69L667.026,714.274L668.982,714.26C681.485,693.457 694.47,673.576 708.878,656.406L709.585,655.563L708.771,654.822C694.778,642.088 680.404,630.479 664.453,623.617ZM664.325,626.061C679.436,632.731 693.102,643.718 706.416,655.779C692.586,672.397 680.051,691.487 667.986,711.472C667.986,711.473 638.336,663.65 638.336,663.65C646.166,650.175 654.702,637.501 664.325,626.061L664.325,626.061ZM700.705,585.765L701.603,585.063L679.148,555.986L678.229,556.822C656.01,577.036 637.053,600.941 620.04,627.044L619.727,627.525L630.924,658.064L632.918,658.355C652.855,631.648 674.313,606.377 700.705,585.765ZM698.398,584.662C672.81,604.833 651.824,629.349 632.349,655.292C632.349,655.292 622.274,627.815 622.274,627.815C638.862,602.425 657.308,579.137 678.854,559.355L698.398,584.662ZM711.97,654.192L738.577,631.842L704.26,587.126L703.37,587.713C690.756,596.023 679.065,606.547 668.141,618.911L668.39,620.64C682.899,629.757 697.176,640.731 711.229,653.517L711.97,654.192ZM735.423,631.498L712.029,651.149C698.48,638.889 684.722,628.301 670.753,619.422C681.022,607.94 691.972,598.096 703.742,590.216L735.423,631.498ZM846.333,584.914L846.895,583.108L778.218,496.328L777.455,496.583C737.38,509.986 709.641,529.524 684.244,551.809L683.421,552.531L744.713,629.146L745.562,628.669C777.351,610.794 810.738,595.837 846.333,584.914ZM844.06,583.218C809.221,594.047 776.486,608.718 745.287,626.195C745.287,626.195 686.58,552.81 686.58,552.81C711.379,531.152 738.52,512.15 777.42,499.013C777.42,499.013 844.06,583.218 844.06,583.218L844.06,583.218ZM539.592,490C514.17,495.756 489.861,497.559 466.773,495.02C469.717,536.445 480.27,578.048 505.608,620C510.483,613.818 518.257,604.021 538.999,604.482C553.489,604.804 566.989,597.507 580,584.476C551.402,560.883 536.051,530.373 539.592,490ZM509.14,536.436L508.815,535.861L508.154,535.854C498.664,535.761 489.592,536.827 480.879,538.885L479.852,539.128L480.01,540.171C485.095,573.821 494.471,591.541 505.285,603.759L505.71,604.24L506.343,604.128C516.29,602.365 526.708,598.605 538.189,598.139C548.614,597.717 558.604,593.61 567.877,585.88L568.78,585.127L568.004,584.244C559.536,574.601 551.467,564.693 544.076,554.334L543.538,553.581L542.688,553.948C535.982,556.849 528.977,558.286 521.786,558.808C521.785,558.808 509.14,536.436 509.14,536.436ZM507.472,538.141L520.499,561.189L521.216,561.143C528.618,560.67 535.83,559.272 542.745,556.412C549.806,566.245 557.469,575.676 565.5,584.864C556.911,591.761 547.703,595.46 538.096,595.849C526.75,596.309 516.427,599.935 506.577,601.757C496.261,589.914 487.391,572.774 482.436,540.877C490.455,539.063 498.784,538.106 507.471,538.141L507.472,538.141ZM520,350C464.343,431.977 405.416,509.955 340,580C322.126,567.336 319.38,549.769 268,542.501C233.204,537.578 209.927,512.538 183.773,496.466C234.028,433.24 290.557,370.075 356.491,307C405.34,355.427 461.178,361.709 520,350ZM539.288,529.949L537.816,528.902C529.799,531.286 521.626,532.569 511.99,533.864L511.133,535.541L522.794,557.321L523.655,557.114C529.961,555.594 535.913,553.527 541.6,551.051L542.46,550.676L542.263,549.76C540.832,543.077 539.577,536.427 539.288,529.949ZM537.078,531.501C537.461,537.345 538.556,543.317 539.826,549.319C534.779,551.47 529.517,553.288 523.977,554.675C523.977,554.675 513.932,535.914 513.932,535.914C522.447,534.747 529.854,533.535 537.078,531.501L537.078,531.501ZM337.691,550.781L394.357,489.964L393.559,489.182C377.932,473.859 359.485,462.965 340.417,455.515C326.513,450.082 318.467,440.046 311.945,433.583C332.954,422.751 352.711,410.164 369.053,392.785L369.873,391.912L368.965,391.131C355.39,379.464 342.542,367.727 330.814,355.881L330.058,355.117L329.247,355.824C285.698,393.774 244.513,433.89 209.097,479.295L208.512,480.045L209.141,480.758C223.695,497.248 242.58,517 268.142,521.131C296.801,525.763 316.248,537.609 333.947,547.847L335.095,545.863C317.189,535.506 297.501,523.554 268.508,518.869C243.862,514.886 225.642,495.945 211.489,479.955C246.463,435.254 287.044,395.693 329.943,358.257C341.244,369.62 353.563,380.885 366.559,392.084C350.19,409.209 330.43,421.576 309.479,432.272L309.213,434.125C316.105,440.639 324.502,451.757 339.583,457.649C358.048,464.864 375.927,475.349 391.154,490.039C391.154,490.039 336.015,549.219 336.015,549.219L337.691,550.781ZM495.259,530.743L488.915,503.196L474.169,502.854L473.022,504.24L479.231,533.214L494.224,532.143L495.259,530.743ZM492.982,502.866L491.799,503.033L497.184,532.117L498.107,532.145C511.984,532.577 525.236,531.225 537.509,527.086L538.374,526.794L535.283,495.886L533.865,494.888C520.798,498.157 507.2,500.849 492.982,502.866ZM487.081,505.446L492.726,529.952C492.726,529.952 481.055,530.786 481.055,530.786C481.055,530.786 475.567,505.179 475.567,505.179L487.081,505.446ZM494.487,504.965C507.894,503.024 520.751,500.485 533.134,497.431C533.134,497.431 535.911,525.201 535.911,525.201C524.406,528.941 512.034,530.209 499.101,529.881L494.487,504.965ZM399.874,484.901L400.843,485.793C415.686,469.667 429.102,453.541 440.924,437.415L440.569,435.743C417.991,422.821 395.64,409.784 373.831,396.472L373.112,396.033L372.479,396.589C356.615,410.5 339.131,421.71 321.968,434.148L322.036,436.049C333.587,443.234 345.778,453.985 359.573,459.528C374.112,465.371 386.975,476.212 399.304,485.646L399.874,484.901ZM400.017,483.304C414.143,467.899 426.958,452.497 438.316,437.094C416.346,424.511 394.595,411.818 373.355,398.866C358.03,412.201 341.234,423.09 324.684,435.014C335.705,442.108 347.327,452.138 360.427,457.402C374.889,463.214 387.735,473.874 400.017,483.304ZM598.537,424.173C613.347,391.511 631.207,368.691 664.5,395.67C664.434,399.619 665.188,403.351 667.5,406.67C638.577,412.34 613.41,427.427 589.5,445.67L590.015,444.464C592.832,437.839 595.588,430.922 598.537,424.173ZM589.5,445.67C595.39,423.794 600.301,398.786 629.5,380.069C632.249,378.896 635.215,377.502 638.434,375.849C649.254,376.232 659.711,379.889 669.936,385.667L670.682,386.089L671.297,385.493C675.866,381.069 679.083,376.644 681.505,372.22L681.92,371.462L681.305,370.854C676.493,366.102 670.218,363.333 662.399,361.668C663.141,361.183 663.893,360.688 664.655,360.183C671.523,362.213 677.83,365.59 683.863,369.622L684.655,370.152L685.32,369.47C694.997,359.547 703.755,351.312 712.274,343.515L711.646,341.533C704.56,340.622 697.35,340.707 689.9,341.658C701.688,331.612 715.558,333.162 730.5,340.67C692.192,360.859 685.334,381.813 674.5,402.67C658.21,384.619 644.666,377.412 634,381.176C616.792,387.248 606.891,405.047 598.537,424.173C595.709,430.409 592.992,437.006 590.299,443.685L589.5,445.67ZM444.502,433.032L445.35,433.441L445.916,432.689C465.699,406.393 480.905,385.241 492.946,367.647L491.882,365.86C473.151,367.801 454.957,367.537 437.107,365.859L436.574,365.809L436.193,366.186C423.215,379.048 409.447,390.841 395.287,402.103L395.333,403.931C409.378,413.994 425.302,423.766 444.502,433.032ZM444.651,430.558C426.519,421.749 411.339,412.484 397.902,402.949C411.571,392.032 424.863,380.605 437.426,368.19C454.47,369.765 471.827,370.053 489.662,368.382C477.98,385.374 463.382,405.644 444.651,430.558L444.651,430.558ZM391.349,399.943L391.943,400.354L392.57,399.994C407.566,391.386 420.208,379.407 430.927,364.674L430.17,362.867C407.432,359.461 384.659,344.252 361.814,321.194L361.029,320.401L360.215,321.165C351.42,329.43 343.121,338.586 335.117,348.27L334.482,349.038L335.155,349.774C350.858,366.925 368.074,383.86 391.349,399.943ZM392.055,397.644C369.572,382.025 352.8,365.598 337.52,348.962C345.018,339.934 352.78,331.378 360.975,323.6C383.344,346.001 405.698,360.88 427.966,364.828C417.836,378.401 405.991,389.519 392.056,397.644L392.055,397.644ZM659.633,363.46C667.692,364.896 674.155,367.349 679.067,371.885L679.067,371.886C676.909,375.674 674.115,379.462 670.31,383.25C661.178,378.188 651.859,374.8 642.275,373.818C647.411,371.028 653.154,367.62 659.633,363.46ZM687.025,344.385C694.528,343.191 701.768,342.857 708.868,343.529C701.098,350.673 693.092,358.25 684.343,367.191C678.888,363.612 673.205,360.579 667.102,358.55C673.018,354.575 679.485,350.037 686.582,344.857C686.729,344.698 686.877,344.541 687.025,344.385Z" style="fill:white;"/>
    </g>
</svg>
