<?xml version="1.0" encoding="UTF-8" standalone="no"?>
<!DOCTYPE svg PUBLIC "-//W3C//DTD SVG 1.1//EN" "http://www.w3.org/Graphics/SVG/1.1/DTD/svg11.dtd">
<svg width="100%" height="100%" viewBox="0 0 1000 1000" version="1.1" xmlns="http://www.w3.org/2000/svg" xmlns:xlink="http://www.w3.org/1999/xlink" xml:space="preserve" xmlns:serif="http://www.serif.com/" style="fill-rule:evenodd;clip-rule:evenodd;stroke-linejoin:round;stroke-miterlimit:2;">
    <g transform="matrix(20.1488,0,0,20.1488,-11723.6,-10554.5)">
        <path d="M629,561.5C624.202,558.522 620.297,555.736 617.5,553.188C616.481,552.259 615.609,551.363 614.895,550.5C614.024,549.449 613.386,548.447 613,547.5C615.122,546.66 617.51,546.667 620,547C613.589,539.27 608.025,539.01 603,543.5C602.161,543.686 601.785,543.075 601.678,542C601.566,540.878 605.549,539.004 602,537.5C602.824,535.054 602.112,535.725 600,536.439C597.488,537.288 596.286,540.957 594,541.5C591.815,542.019 591.585,544.012 590,544.395C586.761,545.178 584.857,546.692 584.413,548C583.82,549.75 586.604,551.296 589.5,553C589.884,556.128 590.439,557.898 591.143,558.5C592.038,559.266 593.174,558.136 594.5,555.5L597,555.5C602.071,562.537 604.086,562.933 602.5,555.5C604.76,555.444 606.711,556.048 608.5,557C607.98,555.5 607.521,554 606,552.5C606.38,551.511 606.38,550.344 606,549C608.578,550.766 611.782,552.113 614,554.595C617.561,558.581 623.638,560.552 629,561.5Z" style="fill:white;"/>
    </g>
</svg>
