<?xml version="1.0" encoding="UTF-8" standalone="no"?>
<!DOCTYPE svg PUBLIC "-//W3C//DTD SVG 1.1//EN" "http://www.w3.org/Graphics/SVG/1.1/DTD/svg11.dtd">
<svg width="100%" height="100%" viewBox="0 0 1000 1000" version="1.1" xmlns="http://www.w3.org/2000/svg" xmlns:xlink="http://www.w3.org/1999/xlink" xml:space="preserve" xmlns:serif="http://www.serif.com/" style="fill-rule:evenodd;clip-rule:evenodd;stroke-linejoin:round;stroke-miterlimit:2;">
    <g transform="matrix(3.91333,0,0,3.91333,-1470.46,-1448.81)">
        <path d="M454.071,417.97C441.415,404.896 428.296,399.479 415,397C430.805,427.518 431.432,454.824 422,480C447.123,484.725 463.293,498.186 475,516C477.333,515.814 479.667,515.486 482,515C487.513,492.369 501.454,474.869 523,462C514.088,454.056 508.37,445.401 506,436C522.544,443.394 532.863,456.334 539,473C530.873,468.605 525.514,467.188 519,469.564C507.896,473.615 491.007,491.95 485,517C480.432,518.245 475.754,518.843 471,519C465.73,509.352 459.43,501.623 452,496C455.114,517.076 463.661,538.39 479,560L472,559L465,566L472,574L466,580L473,587L467,593L474,602L470,606C552.713,637.557 599.202,553.874 598.121,520C597.117,488.524 579.575,425.163 501,422C499.539,406.508 501.109,394.085 504,383C490.161,391.664 480.383,402.648 473,415C467.939,415.282 461.766,416.195 454.071,417.97ZM468,558L460,566L467,574L460,581L468,587L462,592L470,602L467,606C417.079,580.756 399.064,541.245 414,487C412.835,520.492 423.744,547.794 468,558ZM500,538L502,543C496.617,542.279 491.289,542.175 486,542.5C489.81,543.917 491.173,549.977 491.5,558C497.077,554.729 502.976,552.298 509.5,551.5C506.798,546.464 503.628,541.968 500,538ZM524,535C524.584,537.168 524.379,539.336 524,541.503C525.813,540.163 527.309,538.659 528.5,537C527.062,535.068 525.282,533.366 523,532C522.933,533.099 523.152,534.128 524,535ZM460.5,476.5C458.562,471.158 455.952,465.949 449.5,461.5C448.001,462.18 446.908,463.251 446,464.5C451.983,467.656 456.361,471.99 460.5,476.5ZM495,458C493.867,456.47 492.518,455.513 491,455C485.75,460.521 484.118,466.222 484,472C485.959,466.958 488.291,461.997 495,458ZM448,424C443.294,425.298 438.949,427.276 435,430C433.754,423.228 431.211,415.181 428,407C435.518,409.073 443.259,415.955 448,424ZM494,421C489.596,419.55 484.984,418.719 480,419C483.511,411.034 488.146,403.008 494,397C493.518,404.908 493.176,412.842 494,421Z" style="fill:white;"/>
    </g>
</svg>
