<?xml version="1.0" encoding="UTF-8" standalone="no"?>
<!DOCTYPE svg PUBLIC "-//W3C//DTD SVG 1.1//EN" "http://www.w3.org/Graphics/SVG/1.1/DTD/svg11.dtd">
<svg width="100%" height="100%" viewBox="0 0 1000 1000" version="1.1" xmlns="http://www.w3.org/2000/svg" xmlns:xlink="http://www.w3.org/1999/xlink" xml:space="preserve" xmlns:serif="http://www.serif.com/" style="fill-rule:evenodd;clip-rule:evenodd;stroke-linejoin:round;stroke-miterlimit:2;">
    <g transform="matrix(2.77778,0,0,2.77778,-888.889,-888.889)">
        <path d="M500,662L385.449,614.551L338,500L385.449,385.449L500,338L614.551,385.449L662,500L614.551,614.551L500,662ZM528.066,614.551L471.934,614.551L500,642.617L528.066,614.551ZM547.449,614.551L529.78,632.22L572.436,614.551L547.449,614.551ZM452.551,614.551L427.564,614.551L470.22,632.22L452.551,614.551ZM399.154,600.846L438.846,600.846L399.154,561.154L399.154,600.846ZM458.228,399.154L399.154,458.228L399.154,541.772L458.228,600.846L541.772,600.846L600.846,541.772L600.846,458.228L541.772,399.154L458.228,399.154ZM600.846,561.154L561.154,600.846L600.846,600.846L600.846,561.154ZM614.551,547.449L614.551,572.436L632.22,529.78L614.551,547.449ZM367.78,529.78L385.449,572.436L385.449,547.449L367.78,529.78ZM505.802,439.836C473.223,436.121 451.287,473.762 469.125,496.73C478.548,508.864 475.186,524.786 468.174,529.836C445.473,546.188 458.295,563.874 479.026,559.836C558.161,544.425 562.045,446.251 505.802,439.836ZM614.551,471.934L614.551,528.066L642.617,500L614.551,471.934ZM357.383,500L385.449,528.066L385.449,471.934L357.383,500ZM501.496,461.341C509.392,461.341 515.802,467.752 515.802,475.648C515.802,483.544 509.392,489.955 501.496,489.955C493.599,489.955 487.189,483.544 487.189,475.648C487.189,467.752 493.599,461.341 501.496,461.341ZM614.551,452.551L632.22,470.22L614.551,427.564L614.551,452.551ZM385.449,427.564L367.78,470.22L385.449,452.551L385.449,427.564ZM399.154,399.154L399.154,438.846L438.846,399.154L399.154,399.154ZM561.154,399.154L600.846,438.846L600.846,399.154L561.154,399.154ZM572.436,385.449L529.78,367.78L547.449,385.449L572.436,385.449ZM470.22,367.78L427.564,385.449L452.551,385.449L470.22,367.78ZM471.934,385.449L528.066,385.449L500,357.383L471.934,385.449Z" style="fill:white;"/>
    </g>
</svg>
