<?xml version="1.0" encoding="UTF-8" standalone="no"?>
<!DOCTYPE svg PUBLIC "-//W3C//DTD SVG 1.1//EN" "http://www.w3.org/Graphics/SVG/1.1/DTD/svg11.dtd">
<svg width="100%" height="100%" viewBox="0 0 1000 1000" version="1.1" xmlns="http://www.w3.org/2000/svg" xmlns:xlink="http://www.w3.org/1999/xlink" xml:space="preserve" xmlns:serif="http://www.serif.com/" style="fill-rule:evenodd;clip-rule:evenodd;stroke-linejoin:round;stroke-miterlimit:2;">
    <g transform="matrix(2.27259,0,0,2.27351,-84.0544,-27.2573)">
        <path d="M257,274.5C246.384,294.678 247.852,310.943 257,325C266.077,311.053 267.593,294.932 257.247,274.972L257,274.5ZM256.94,190.691C255.639,205.179 252.048,218.059 240,225C253.24,237.264 255.227,257.485 250.106,273.912C249.221,276.749 244.539,283.546 241.831,285.025C237.467,287.411 230.778,285.519 227.487,290.199C220.4,300.278 218.915,313.119 218,325C217.134,321.058 214.761,312.807 208,292C203.806,294.872 182.985,316.784 177.252,301.41C176.572,299.587 176.392,297.588 176.358,295.643C176.307,292.755 176.591,289.86 177,287C166.288,280.894 158.798,264.977 175,262C171.566,242.366 175.296,230.661 189,230C188.41,239.086 188.863,246.791 190.907,255.681C192.33,261.872 195.012,267.633 198.715,272.782C200.125,274.742 201.805,276.524 203.643,278.089C205.481,279.654 207.486,281.074 209.667,282.109C225.809,289.772 237.257,268.791 238.977,255.833C240.124,247.195 241.007,234.461 232,229C216.509,229.105 201.311,226.958 187,218C183.155,218.435 180.017,220.558 177.175,222.974C170.313,228.809 162.654,235.048 159.466,243.87C156.2,252.906 155.333,264.537 147,271C154.221,241.834 157.12,212.87 158,184C153.678,166.787 135.977,132.028 112.15,147.159C108.078,149.746 104.232,152.797 100.976,156.358C97.851,159.775 95.355,163.772 93.206,167.874C85.509,182.568 85.085,201.447 94.062,215.724C100.527,226.004 115.504,229.867 125.902,223.299C136.224,216.78 138.406,202.025 132.869,191.753C129.537,185.572 120.823,189.939 119.145,195C117.578,199.729 118.198,204.159 118,209C113.511,209.875 110.06,209.825 106.618,206.295C101.012,200.545 103.104,188.17 112,187C109.814,185.227 107.027,182.062 106.563,179.104C105.46,172.075 112.116,162.726 120,166C121.809,161.279 131.352,149.963 134.502,160.19C135.476,163.352 136.135,166.695 136,170C139.559,168.313 143.88,166.423 148,167.811C155.712,170.41 150.945,181.343 148,185C160.587,200.264 147.084,222.345 132.01,229.787C123.593,233.943 114.111,234.681 105,233C105.517,246.031 106.623,245.925 106.077,259C105.831,264.909 104.661,270.771 104.656,276.686C104.649,284.859 112.916,291.904 121,289C118.362,300.294 112.649,309.475 97,301C96.192,303.233 95.6,305.59 94.366,307.618C93.005,309.854 91.527,312.233 89.313,313.629C86.382,315.477 81.192,314.113 80.796,310.321C79.97,302.407 80.531,299.518 83,292C81.005,292.708 78.993,293.59 76.879,293.69C54.81,294.732 55.205,262.601 67,251C67.251,259.007 71.957,284.6 85.579,275.521C87.473,274.259 89.186,272.681 90.618,270.912C92.592,268.474 94.315,265.807 95.715,263C100.785,252.837 100.026,240.888 99,230C84.282,213.047 78.14,192.029 83,170C88.174,146.55 120.33,127.923 140.603,143.645C152.825,153.123 159.159,168.327 165,182C175.852,202.643 201.088,223.82 225.971,220.464C235.535,219.174 247.942,213.369 251.101,203.366C256.878,185.074 238.906,163.759 223.693,156.477C214.703,152.173 198.911,149.701 192.652,159.928C187.103,168.997 192.035,182.848 198.026,190.303C202.736,196.164 212.246,191.085 214.185,185.324C215.529,181.33 216.394,177.17 217,173C222.484,183.065 213.722,205.563 199.956,200.29C191.854,197.187 187.647,187.533 186.206,179.709C183.374,164.333 190.234,148.941 202.892,139.991C217.147,129.911 233.825,132.454 245.146,145.719C253.173,155.125 255.926,168.069 257,180L257.052,179.44C258.161,167.666 260.952,154.978 268.854,145.719C280.175,132.454 296.853,129.911 311.108,139.991C323.766,148.941 330.626,164.333 327.794,179.709C326.353,187.533 322.146,197.187 314.044,200.29C300.278,205.563 291.516,183.065 297,173C297.606,177.17 298.471,181.33 299.815,185.324C301.754,191.085 311.264,196.164 315.974,190.303C321.965,182.848 326.897,168.997 321.348,159.928C315.089,149.701 299.297,152.173 290.307,156.477C275.094,163.759 257.122,185.074 262.899,203.366C266.058,213.369 278.465,219.174 288.029,220.464C312.912,223.82 338.148,202.643 349,182C354.841,168.327 361.175,153.123 373.397,143.645C393.67,127.923 425.826,146.55 431,170C435.86,192.029 429.718,213.047 415,230C413.974,240.888 413.215,252.837 418.285,263C419.685,265.807 421.408,268.474 423.382,270.912C424.814,272.681 426.527,274.259 428.421,275.521C442.043,284.6 446.749,259.007 447,251C458.795,262.601 459.19,294.732 437.121,293.69C435.007,293.59 432.995,292.708 431,292C433.469,299.518 434.03,302.407 433.204,310.321C432.808,314.113 427.618,315.477 424.687,313.629C422.473,312.233 420.995,309.854 419.634,307.618C418.4,305.59 417.808,303.233 417,301C401.351,309.475 395.638,300.294 393,289C401.084,291.904 409.351,284.859 409.344,276.686C409.339,270.771 408.169,264.909 407.923,259C407.377,245.925 408.483,246.031 409,233C399.889,234.681 390.407,233.943 381.99,229.787C366.916,222.345 353.413,200.264 366,185C363.055,181.343 358.288,170.41 366,167.811C370.12,166.423 374.441,168.313 378,170C377.865,166.695 378.524,163.352 379.498,160.19C382.648,149.963 392.191,161.279 394,166C401.884,162.726 408.54,172.075 407.437,179.104C406.973,182.062 404.186,185.227 402,187C410.896,188.17 412.988,200.545 407.382,206.295C403.94,209.825 400.489,209.875 396,209C395.802,204.159 396.422,199.729 394.855,195C393.177,189.939 384.463,185.572 381.131,191.753C375.594,202.025 377.776,216.78 388.098,223.299C398.496,229.867 413.473,226.004 419.938,215.724C428.915,201.447 428.491,182.568 420.794,167.874C418.645,163.772 416.149,159.775 413.024,156.358C409.768,152.797 405.922,149.746 401.85,147.159C378.023,132.028 360.322,166.787 356,184C356.88,212.87 359.779,241.834 367,271C358.667,264.537 357.8,252.906 354.534,243.87C351.346,235.048 343.687,228.809 336.825,222.974C333.983,220.558 330.845,218.435 327,218C312.689,226.958 297.491,229.105 282,229C272.993,234.461 273.876,247.195 275.023,255.833C276.743,268.791 288.191,289.772 304.333,282.109C306.514,281.074 308.519,279.654 310.357,278.089C312.195,276.524 313.875,274.742 315.285,272.782C318.988,267.633 321.67,261.872 323.093,255.681C325.137,246.791 325.59,239.086 325,230C338.704,230.661 342.434,242.366 339,262C355.202,264.977 347.712,280.894 337,287C337.409,289.86 337.693,292.755 337.642,295.643C337.608,297.588 337.428,299.587 336.748,301.41C331.015,316.784 310.194,294.872 306,292C299.239,312.807 296.866,321.058 296,325C295.085,313.119 293.6,300.278 286.513,290.199C283.222,285.519 276.533,287.411 272.169,285.025C269.461,283.546 264.779,276.749 263.894,273.912C258.773,257.485 260.76,237.264 274,225C261.761,217.949 258.249,204.769 257,190L256.94,190.691ZM102.679,253.527C99.428,268.577 94.886,277.721 89,279.955C78.103,284.092 66.408,279.757 65,259C60.475,284.656 68.606,293.918 90,286C83.059,306.431 85.729,310.946 90.65,308C92.411,306.945 93.304,298.505 95,290C102.34,305.114 109.671,301.117 117,294C98.593,296.572 97.541,278.468 102.832,252.806L102.679,253.527ZM411.29,253.406C416.442,278.749 415.263,296.552 397,294C404.329,301.117 411.66,305.114 419,290C420.696,298.505 421.589,306.945 423.35,308C428.271,310.946 430.941,306.431 424,286C445.394,293.918 453.525,284.656 449,259C447.592,279.757 435.897,284.092 425,279.955C419.114,277.721 414.572,268.577 411.321,253.527L411.168,252.806L411.29,253.406ZM303,290L292,290C294.858,294.745 296.601,299.822 298,305C298.578,300 299.819,295 303,290ZM211,290L222,290C219.142,294.745 217.399,299.822 216,305C215.422,300 214.181,295 211,290ZM332.5,239.5C332.291,263.119 324.777,278.364 311.5,287C325.453,301.584 334.248,305.735 330,283.5C339.061,278.415 344.879,274.429 339.91,269.5C338.821,268.42 336.873,267.897 331.5,269.5C335.031,259.34 335.409,249.338 332.5,239.5ZM181.5,239.5C181.709,263.119 189.223,278.364 202.5,287C188.547,301.584 179.752,305.735 184,283.5C174.939,278.415 169.121,274.429 174.09,269.5C175.179,268.42 177.127,267.897 182.5,269.5C178.969,259.34 178.591,249.338 181.5,239.5ZM242.5,274.5C244.486,268.848 245.69,263.189 246.108,257.522C246.526,251.855 246.158,246.181 245,240.5C250.687,252.684 249.459,263.966 242.5,274.5ZM271.5,274.5C269.514,268.848 268.31,263.189 267.892,257.522C267.474,251.855 267.842,246.181 269,240.5C263.313,252.684 264.541,263.966 271.5,274.5ZM161,186C160.999,199.766 160.795,213.56 159.5,227.5C164.54,220.883 170.489,214.891 179.5,211C171.966,206.562 165.436,199.262 161,186ZM353,186C353.001,199.766 353.205,213.56 354.5,227.5C349.46,220.883 343.511,214.891 334.5,211C342.034,206.562 348.564,199.262 353,186ZM146,189C145.923,194.154 145.424,199.036 144.568,203.688C143.712,208.341 142.501,212.763 141,217C147.45,208.529 150.222,199.395 146,189ZM368,189C368.077,194.154 368.576,199.036 369.432,203.688C370.288,208.341 371.499,212.763 373,217C366.55,208.529 363.778,199.395 368,189ZM114,205.545C112.469,200.532 111.81,195.504 112.24,190.455C107.494,193.443 105.931,196.613 106,199C106.078,201.697 108.421,203.533 114,205.545ZM400,205.545C401.531,200.532 402.19,195.504 401.76,190.455C406.506,193.443 408.069,196.613 408,199C407.922,201.697 405.579,203.533 400,205.545ZM116,190.455C118.451,184.508 123.768,182.335 128.939,183.179C134.11,184.023 139.134,187.884 141,194C136.992,166.808 120.537,164.547 116,190.455ZM398,190.455C395.549,184.508 390.232,182.335 385.061,183.179C379.89,184.023 374.866,187.884 373,194C377.008,166.808 393.463,164.547 398,190.455ZM375,172C373.78,173.882 372.739,175.818 371.898,177.816C371.057,179.813 370.417,181.872 370,184C363.181,176.385 365.455,172.643 375,172ZM139,172C140.22,173.882 141.261,175.818 142.102,177.816C142.943,179.813 143.583,181.872 144,184C150.819,176.385 148.545,172.643 139,172ZM112.555,182C113.132,179.833 113.868,177.761 114.785,175.798C115.702,173.834 116.799,171.977 118.097,170.24C109.249,170.947 108.023,175.154 112.555,182ZM401.445,182C400.868,179.833 400.132,177.761 399.215,175.798C398.298,173.834 397.201,171.977 395.903,170.24C404.751,170.947 405.977,175.154 401.445,182ZM315,148C303.518,143.104 293.602,142.793 285.139,146.736C276.677,150.68 269.668,158.878 264,171C274.011,137.485 290.639,128.445 315,148ZM199,148C210.482,143.104 220.398,142.793 228.861,146.736C237.323,150.68 244.332,158.878 250,171C239.989,137.485 223.361,128.445 199,148ZM392.468,166.714C390.233,166.532 388.035,166.532 385.877,166.739C383.719,166.946 381.603,167.359 379.532,168C383.004,158.386 387.377,158.614 392.468,166.714ZM121.532,166.714C123.767,166.532 125.965,166.532 128.123,166.739C130.281,166.946 132.397,167.359 134.468,168C130.996,158.386 126.623,158.614 121.532,166.714ZM256.668,329.587C242.705,312.092 240.628,292.053 257,269.279L257.383,269.817C273.465,292.546 271.15,312.544 257,330L256.668,329.587Z" style="fill:white;"/>
    </g>
</svg>
