<?xml version="1.0" encoding="UTF-8" standalone="no"?>
<!DOCTYPE svg PUBLIC "-//W3C//DTD SVG 1.1//EN" "http://www.w3.org/Graphics/SVG/1.1/DTD/svg11.dtd">
<svg width="100%" height="100%" viewBox="0 0 1000 1000" version="1.1" xmlns="http://www.w3.org/2000/svg" xmlns:xlink="http://www.w3.org/1999/xlink" xml:space="preserve" xmlns:serif="http://www.serif.com/" style="fill-rule:evenodd;clip-rule:evenodd;stroke-linejoin:round;stroke-miterlimit:2;">
    <g transform="matrix(2.58576,0,0,2.58576,-659.854,-568.307)">
        <path d="M480.057,580.362C481.409,579.87 482.444,579.091 483.162,578.171L485.361,584.213C484.737,585.366 483.674,586.467 482.442,586.915L482.442,586.915C481.209,587.364 479.688,587.204 478.468,586.722L476.269,580.68C477.41,580.923 478.704,580.854 480.057,580.362ZM478.03,574.793C480.414,573.597 480.195,571.617 480.509,570.88C484.346,572.727 483.841,577.629 479.621,579.165L479.621,579.165C475.401,580.701 471.862,577.27 473.616,573.389C474.329,573.752 475.435,575.41 478.03,574.793ZM396.961,335.029C396.213,335.083 395.467,335.133 394.721,335.18L480.073,569.684L480.06,569.689C479.734,569.811 479.473,570.062 479.337,570.382C479.219,570.659 479.144,571.071 479.04,571.56C478.909,572.176 478.654,573 477.59,573.586L477.59,573.586C476.398,573.821 475.674,573.353 475.177,572.966C474.784,572.658 474.461,572.39 474.193,572.254C473.882,572.096 473.521,572.073 473.193,572.188L473.18,572.193L385.375,330.951C378.832,332.511 372.083,324.448 375.302,313.833C383.785,312.675 396.207,304.401 396.207,304.401C397.984,306.792 437.698,296.517 449.999,289.524C451.106,294.937 451.476,300.76 451.308,306.882C444.997,308.297 438.626,309.545 432.215,310.687C423.49,312.243 414.691,313.604 405.853,314.857C405.64,314.884 405.49,315.079 405.518,315.292C405.545,315.504 405.74,315.655 405.953,315.627C416.617,314.367 427.234,312.981 437.727,311.212C441.268,310.614 444.795,309.971 448.305,309.279C448.564,310.775 448.787,312.286 448.977,313.811C463.047,312.022 476.741,309.214 489.991,305.212C490.943,309.73 491.458,314.427 491.638,319.26C506.712,319.964 521.558,319.478 536.132,317.583C536.316,321.781 536.118,326.067 535.619,330.422C549.313,330.869 562.814,330.312 576.089,328.585C576.333,334.141 575.908,339.85 575.002,345.668C559.265,346.519 543.837,346.488 528.929,344.965C528.855,348.192 528.58,351.465 528.14,354.775C540.175,354.957 552.056,354.344 563.761,352.822C564.005,358.378 563.579,364.087 562.674,369.905C545.716,370.822 529.116,370.715 513.143,368.821C514.124,364.889 514.626,361.192 514.796,357.656C504.909,357.857 495.171,357.633 485.639,356.827C485.093,358.75 484.454,360.636 483.626,362.348C495.836,366.22 506.732,374.091 519.378,372.446C519.586,377.197 519.874,384.37 519.388,389.987C529.573,393.615 539.859,396.583 550.256,398.808C548.632,404.127 546.327,409.367 543.532,414.55C528.139,410.021 513.352,404.736 499.599,398.166C498.641,400.408 497.576,402.638 496.418,404.857C507.253,411.923 519.843,417.179 530.304,423.559C527.013,428.042 523.114,432.913 518.764,436.881C504.971,426.971 494.131,420.185 482.867,408.702C485.497,406.331 484.206,401.84 486.232,398.35C476.868,392.489 463.708,387.026 453.646,382.064C455.24,379.866 455.505,377.809 455.303,376.049C443.752,369.524 432.443,362.943 422.711,355.16C423.531,353.777 422.975,351.072 423.088,348.426C414.908,344.665 407.005,340.623 399.468,336.212C398.901,335.468 398.354,334.726 397.833,333.981C396.793,332.492 395.853,331.014 395.063,329.525C394.971,329.331 394.739,329.248 394.545,329.34C394.352,329.431 394.268,329.663 394.36,329.857C395.072,331.569 395.949,333.296 396.961,335.029ZM470.773,372.33C480.59,374.955 491.351,383.063 501.977,388.229C501.699,388.868 501.406,389.507 501.098,390.149C490.273,387.615 478.768,382.358 467.727,377.264C468.803,375.693 469.811,373.993 470.773,372.33ZM443.167,347.266C452.8,351.687 463.327,357.018 473.6,360.593C473.542,362.516 472.54,363.89 471.325,365.26C462.056,361.141 450.389,357.297 439.936,352.7C441.084,350.904 442.164,349.094 443.167,347.266ZM427.534,331.302C424.506,330.408 421.771,329.386 419.246,328.276C414.095,326.012 409.816,323.382 405.737,320.651C405.561,320.528 405.319,320.571 405.196,320.747C405.073,320.922 405.116,321.165 405.292,321.288C409.311,324.217 413.527,327.072 418.66,329.547C421.601,330.965 424.842,332.252 428.51,333.368C431.579,334.64 434.665,335.847 437.768,336.986C438.414,335.683 438.964,334.347 439.501,332.781C452.365,337.105 466.398,342.657 479.868,345.791C479.96,344.342 479.995,342.92 479.983,341.52C480.256,341.537 480.53,341.554 480.804,341.57C469.833,337.641 459.209,333.446 449.087,328.868C446.94,329.03 444.799,329.161 442.663,329.26C442.685,328.993 442.705,328.728 442.722,328.464C437.643,329.505 432.579,330.456 427.534,331.302ZM494.597,334.466C505.186,335.282 516.019,335.396 527.025,335.021C526.892,336.769 526.675,338.558 526.356,340.396C515.568,341.676 504.632,342.195 493.568,342.039C495.078,339.831 496.338,337.569 497.288,335.24C496.391,334.986 495.494,334.728 494.597,334.466ZM470.111,326.376C475.755,325.485 481.426,324.427 487.121,323.233C486.95,325.983 486.574,328.832 485.926,331.815C480.634,330.125 475.362,328.309 470.111,326.376ZM381.551,310.058C376.955,311.724 372.908,312.802 368.043,312.221L366.622,308.317C370.994,308.657 373.588,309.178 380.445,306.682L380.525,306.653C387.315,304.171 388.967,302.108 392.085,299.049L393.506,302.953C390.126,306.553 386.3,308.329 381.66,310.018L381.551,310.058ZM392.933,294.384C393.075,294.196 393.1,293.945 392.997,293.734C392.894,293.523 392.681,293.388 392.446,293.384L375.75,293.132C375.597,293.13 375.448,293.184 375.333,293.284L362.694,304.218C362.517,304.372 362.441,304.612 362.497,304.84C362.554,305.068 362.734,305.245 362.963,305.297C365.879,305.966 368.945,306.197 372.083,305.922C380.684,305.17 388.098,300.772 392.933,294.384ZM353.561,304.235C340.833,295.896 334.381,283.869 339.992,264.756C327.56,258.983 322.141,264.186 324.645,274.452C319.735,279.546 319.759,284.4 324.49,289.024C320.061,295.057 322.514,298.612 328.769,300.799C334.576,302.829 342.695,305.933 353.561,304.235ZM355.293,287.538C355.248,287.391 355.151,287.267 355.02,287.188L341.243,278.866C341.041,278.744 340.788,278.746 340.589,278.872C340.39,278.997 340.278,279.224 340.3,279.458C341.401,291.046 349.125,300.447 359.392,304.233C359.614,304.315 359.864,304.264 360.036,304.101C360.208,303.938 360.273,303.692 360.203,303.465L355.293,287.538ZM360.069,249.174C359.901,249.047 359.68,249.015 359.482,249.087C359.284,249.159 359.136,249.326 359.088,249.531L355.099,266.63C355.099,266.63 340.739,276.734 340.739,276.734C340.567,276.856 340.468,277.055 340.475,277.266C340.482,277.476 340.595,277.669 340.776,277.778L355.805,286.856C355.805,286.856 360.978,303.635 360.978,303.635C361.04,303.836 361.199,303.993 361.402,304.051C361.604,304.109 361.822,304.061 361.981,303.923L375.26,292.435C375.26,292.435 392.816,292.7 392.816,292.7C393.027,292.703 393.224,292.6 393.342,292.425C393.46,292.251 393.482,292.029 393.4,291.835L386.577,275.656C386.577,275.656 392.255,259.041 392.255,259.041C392.323,258.842 392.286,258.621 392.156,258.456C392.026,258.29 391.822,258.2 391.612,258.218L374.117,259.708C374.117,259.708 360.069,249.174 360.069,249.174ZM393.699,260.021C393.565,259.828 393.334,259.726 393.101,259.758C392.868,259.791 392.673,259.951 392.596,260.174L387.392,275.405C387.342,275.55 387.348,275.708 387.407,275.849L393.881,291.2C393.973,291.418 394.181,291.565 394.417,291.58C394.653,291.594 394.878,291.473 394.996,291.268C397.88,286.246 399.312,280.322 398.769,274.119C398.31,268.873 396.495,264.069 393.699,260.021ZM381.923,266.45L379.516,273.494C378.98,275.064 379.039,276.776 379.684,278.305L382.576,285.164L375.134,285.051C373.475,285.026 371.865,285.612 370.61,286.698L364.981,291.568L362.788,284.455C362.299,282.869 361.244,281.519 359.824,280.661L353.453,276.813L359.54,272.529C360.897,271.574 361.855,270.154 362.232,268.538L363.924,261.289L369.879,265.755C371.206,266.75 372.853,267.223 374.506,267.082L381.923,266.45ZM399.467,287.527C403.857,272.957 401.068,259.597 384.484,248.562C390.297,236.149 397.793,236.652 402.474,246.124C409.509,246.871 412.611,250.604 411.958,257.188C419.23,258.962 419.636,263.262 416.25,268.958C413.106,274.246 408.882,281.843 399.467,287.527ZM354.292,266.353C354.417,266.265 354.506,266.134 354.54,265.985L358.102,250.719C358.157,250.488 358.074,250.245 357.889,250.095C357.705,249.944 357.451,249.912 357.234,250.012C347.53,254.489 340.818,264.065 340.212,275.027C340.198,275.266 340.323,275.491 340.532,275.607C340.74,275.723 340.997,275.709 341.193,275.572L354.292,266.353ZM361.801,248.351C361.571,248.414 361.397,248.602 361.352,248.836C361.307,249.07 361.4,249.309 361.59,249.452L374.13,258.855C374.253,258.947 374.405,258.991 374.557,258.978L390.508,257.62C390.746,257.599 390.952,257.445 391.037,257.221C391.123,256.998 391.073,256.745 390.909,256.571C384.957,250.252 376.276,246.618 366.966,247.433C365.189,247.588 363.463,247.9 361.801,248.351ZM366.599,246.22C361.501,247.187 356.69,248.94 352.162,251.475L351.036,248.381C355.648,246.051 360.477,244.321 365.505,243.135L366.599,246.22ZM356.882,241.942C358.532,241.342 360.633,241.982 360.971,242.909C359.814,243.154 358.686,243.476 357.586,243.876C356.486,244.277 355.414,244.756 354.371,245.311C354.034,244.385 355.232,242.543 356.882,241.942Z" style="fill:white;"/>
    </g>
</svg>
