<?xml version="1.0" encoding="UTF-8" standalone="no"?>
<!DOCTYPE svg PUBLIC "-//W3C//DTD SVG 1.1//EN" "http://www.w3.org/Graphics/SVG/1.1/DTD/svg11.dtd">
<svg width="100%" height="100%" viewBox="0 0 1000 1000" version="1.1" xmlns="http://www.w3.org/2000/svg" xmlns:xlink="http://www.w3.org/1999/xlink" xml:space="preserve" xmlns:serif="http://www.serif.com/" style="fill-rule:evenodd;clip-rule:evenodd;stroke-linejoin:round;stroke-miterlimit:2;">
    <g transform="matrix(4.46179,0,0,4.46179,-2213.41,-1538.82)">
        <path d="M580.109,504L580.372,502.074L582.515,500L583.514,502.418L582.979,504.448L584.871,504.744L585.145,505.819L583.711,506.185L582.577,505.976L582.453,506.45L585.42,506.895L585.785,508.329L584.71,508.603L582.007,508.144L581.208,511.18L585.793,509.854L587.41,510.205L585.892,511.738L582.082,512.867L587.125,517.534L587.79,514.689L589.667,513.065L590.04,516.024L589.643,517.928L591.835,517.075L591.199,514.583L591.733,513.683L592.275,514.309L592.991,516.625L594.194,516.157L593.983,515.018L594.067,513.852L595.15,515.102L595.265,515.74L597.392,514.912L600,516.156L598.215,518.138L595.808,518.752L596.072,520.212L595.446,520.754L594.996,520.487L594.726,519.029L593.806,519.263L594.462,521.387L594.287,522.195L593.12,522.111L592.48,519.602L590.034,520.226L592.944,522.919L593.043,524.803L590.527,523.918L588.739,522.261L587.408,528.643L590.724,527.686L592.433,528.395L591.273,529.836L587.24,531.003L589.699,532.903L590.922,531.453L592.356,531.087L591.913,532.345L590.709,533.683L591.653,534.412L592.279,533.779L592.905,533.238L593.537,534.222L592.912,534.763L592.582,535.13L594.536,536.64L595.176,539.149L592.034,538.805L590.604,537.327L590.235,537.737L589.159,538.012L589.243,536.845L589.696,536.388L588.959,535.627L587.451,537.302L586.826,537.843L586.818,536.318L588.127,534.767L586.484,533.07L585.918,535.784L583.684,537.5L583.043,534.99L583.739,532.015L576.743,534.039L580.183,537.247L580.457,538.323L578.932,538.33L575.552,535.287L575.085,538.21L577.948,538.963L578.131,539.68L577.056,539.954L574.874,539.535L574.614,541.159L575.896,541.396L576.079,542.113L574.912,542.028L574.482,541.986L574.203,543.737L571.701,545.902L571.061,543.393L571.546,541.694L570.603,541.601L569.971,540.617L570.688,540.434L571.845,540.648L572.304,539.04L570.23,538.642L569.506,537.299L570.581,537.025L572.719,537.587L573.462,534.988L568.873,536.315L567.165,535.606L567.966,534.256L572.843,532.848L567.458,528L566.342,532.38L564.908,532.745L564.542,531.312L565.367,527.775L562.968,528.569L563.551,530.419L563.467,531.586L562.208,531.143L561.551,529.038L560.854,529.268L561.308,530.609L560.866,531.868L559.875,530.975L559.445,529.734L556.733,530.632L554.574,529.655L556.092,528.122L558.661,527.467L558.419,526.765L558.77,525.148L559.761,526.041L560.118,527.095L560.884,526.9L560.112,524.424L560.646,523.524L561.546,524.058L562.326,526.532L565.054,525.836L562.08,523.158L561.531,521.008L563.148,521.359L566.199,524.205L567.86,517.085L567.435,517.211L563.942,518.484L562.592,517.683L563.393,516.333L567.715,515.083L565.666,513.402L564.194,514.983L562.76,515.349L563.202,514.091L564.533,512.473L563.519,511.641L562.478,512.748L561.403,513.023L561.395,511.497L562.281,510.625L560.397,509.08L560.115,506.479L562.54,507.006L564.202,508.733L565.057,507.891L565.774,507.708L565.781,509.233L565.238,509.81L566.038,510.642L567.573,508.776L568.382,508.951L568.389,510.477L567.155,511.802L568.713,513.423L569.464,510.202L571.341,508.578L572.065,509.92L570.991,514.135L577.837,512.155L575.024,509.547L574.925,507.663L576.451,507.656L579.258,510.254L579.601,507.734L577.526,507.382L576.443,506.131L577.877,505.765L579.829,506.057L579.907,505.483L578.503,505.224L577.87,504.24L579.304,503.874L580.109,504ZM576.427,529.806L576.091,531.91L583.338,529.818L581.96,528.394L576.427,529.806ZM568.807,526.637L574.366,531.822L574.955,529.761L570.944,525.93L568.807,526.637ZM584.514,521.634L582.707,527.501L584.475,528.867L586.271,521.186L584.514,521.634ZM578.964,526.486L577.531,526.852L577.699,524.518L578.964,526.486ZM576.44,524.076L575.731,525.784L574.74,524.892L576.44,524.076ZM568.215,525.029L570.412,524.469L571.618,518.284L570.225,517.141L568.215,525.029ZM579.308,523.344L580.925,523.695L580.57,524.549L579.308,523.344ZM575.983,522.284L574.099,522.382L574.542,521.124L575.983,522.284ZM578.851,521.552L580.552,520.736L579.56,519.844L578.851,521.552ZM576.903,518.994L575.61,519.324L576.784,520.934L576.903,518.994ZM579.869,516.271L584.023,520.115L585.715,519.457L580.341,514.476L579.869,516.271ZM571.265,516.075L572.567,517.428L578.486,515.918L578.768,513.85L571.265,516.075ZM638.91,381.384L640,375L645,368L647,376L645.593,381.116L648.5,381L651,383L648,384.5L644.663,384.5L643.925,387.183L650.5,387L653,389.5L649.5,391.5L642.737,391.5L640.807,398.522L653,393L659,394L655,399L643.5,403.991L658.945,415.939L662,403L667,400L670,405L667.156,417.441L676.216,414.044L673,405L673.5,403L676.5,404.5L679.901,412.662L683.69,411.241L682,407.5L682.5,404.5L685,404.5L687.252,409.905L695,407L709,407L697,415L690.186,416.947L692.5,422.5L691.5,424.5L689,423L686.714,417.939L682.59,419.117L686.5,428.5L685,431L681,427.5L678.441,420.303L668.323,423.193L681,433L682,438L676,438L664.525,428.953L659.347,451.607L674,448L680,451L675,456L660.07,459.318L667.456,465.845L674,459.5L679,459.5L678,463L671.322,469.261L675.58,473.024L684,463L691,462L690,468L681.233,478.02L688,484L691,494L681,490L675.718,484.322L669,492L664,492L663,488L670.658,478.883L666.186,474.075L662,478L657,479L657.5,475.5L662.764,470.396L656.573,463.741L654,475L648,480L645,475L648.073,461.984L629.352,466.144L637,475L636,478L633,478L625.008,468.536L624.084,474.259L628,477L629,480L627,481L623.417,478.394L622.801,482.208L631,490L630,493L627,493L621.8,488.412L621.042,493.109L615,500L613,491L615.408,482.772L610,478L609,474L614,473.844L617.146,476.834L617.87,474.36L616,473L615,471L618,470L618.951,470.666L619.643,468.301L612,470L606,467.5L609,464L619.082,461.518L607.108,447.338L605,457L601,460L600,454L601.918,445.528L596.904,447.252L598,452L597,457L595,453L593.983,448.256L592.074,448.912L593,452L592,455L590,453L589.082,449.941L586,451L580,450L584,446L587.588,444.958L587,443L588,440L590,442L590.623,444.077L592.944,443.403L592,439L593,436L595,439L595.823,442.567L601.651,440.876L595,433L595,430L599,431L603.918,436.695L607.817,419.476L602,422L597,421L600,417L607.603,413.557L604.09,410.313L602,413L598,415L599,412L601.715,408.121L600.057,406.591L599,408L597,410L596,407L597.841,404.545L594,401L594,397L599,398L601.063,400.25L602,399L605,398L605,400L603.125,402.5L604.557,404.062L606,402L610,399L609,404L606.934,406.656L609.97,409.967L612,401L615,398L617,402L615.232,410.102L631.357,402.801L624,397L624,392L628,392L636.036,398.217L637.183,391.5L632,391.5L628.5,390L632.5,387.5L637.891,387.35L638.378,384.5L635.5,384.5L633,383.5L636,381.5L638.91,381.384ZM549.3,428.934L550.287,426.5L553.787,424.5L554.287,428L552.909,430.481L555.287,431.5L555.287,433L553.287,433L551.872,432.347L551.55,432.927L555.287,434.5L555.287,436.5L553.787,436.5L550.401,434.995L548.34,438.705L554.787,438.5L556.787,439.5L554.287,441L548.921,441.206L553.966,449.003L555.787,445.5L558.787,444L558.287,448L557.131,450.361L560.287,449.976L560.287,446.5L561.287,445.5L561.787,446.5L561.951,449.773L563.683,449.561L563.787,448L564.287,446.5L565.287,448.5L565.225,449.373L568.287,449L571.287,451.5L568.287,453.5L564.93,453.5L564.787,455.5L563.787,456L563.287,455.5L563.421,453.5L562.137,453.5L562.287,456.5L561.787,457.5L560.287,457L560.287,453.5L556.875,453.5L559.787,458L559.287,460.5L556.287,458.5L554.5,455.732L550.624,463.646L555.287,463.5L557.287,465L555.287,466.5L549.615,466.68L552.201,469.99L554.287,468.5L556.287,468.5L555.287,470L553.263,471.349L554.255,472.619L555.287,472L556.287,471.5L556.787,473L555.787,473.5L555.232,473.87L557.287,476.5L557.287,480L553.287,478.5L551.908,476.086L551.287,476.5L549.787,476.5L550.287,475L551.032,474.553L550.322,473.31L547.787,475L546.787,475.5L547.287,473.5L549.519,471.906L547.936,469.135L546.287,472.5L542.787,474L542.787,470.5L544.692,466.836L534.854,467.149L538.287,472.5L538.287,474L536.287,473.5L532.877,468.385L531.29,472.057L534.787,474L534.787,475L533.287,475L530.57,473.721L529.688,475.762L531.287,476.5L531.287,477.5L529.787,477L529.238,476.8L528.287,479L524.287,481L524.287,477.5L525.49,475.437L524.287,475L523.787,473.5L524.787,473.5L526.232,474.167L527.37,472.215L524.787,471L524.287,469L525.787,469L528.399,470.451L530.24,467.295L523.787,467.5L521.787,466L523.287,464.5L530.144,464.286L524.712,456.138L521.787,461.5L519.787,461.5L519.787,459.5L522.049,455.145L518.642,455.382L518.787,458L518.287,459.5L516.787,458.5L516.63,455.523L515.64,455.592L515.787,457.5L514.787,459L513.787,457.5L513.64,455.731L509.787,456L507.287,454L509.787,452.5L513.371,452.5L513.287,451.5L514.287,449.5L515.287,451L515.403,452.5L516.471,452.5L516.287,449L517.287,448L518.287,449L518.482,452.5L522.287,452.5L519.287,448L519.287,445L521.287,446L524.332,450.747L528.886,441.977L528.287,442L523.287,442.5L521.787,441L523.287,439.5L529.366,439.307L527.244,436.421L524.787,438L522.787,438L523.787,436.5L526.071,434.825L525.02,433.397L523.287,434.5L521.787,434.5L522.287,432.5L523.738,431.654L521.787,429L522.287,425.5L525.287,427L526.886,429.817L528.287,429L529.287,429L528.787,431L527.884,431.575L528.654,432.931L531.287,431L532.287,431.5L531.787,433.5L529.728,434.824L531.228,437.467L533.287,433.5L536.287,432L536.787,434L533.972,439.161L543.6,438.855L540.787,434.5L541.287,432L543.287,432.5L546.095,436.84L547.386,433.655L544.787,432.5L543.787,430.5L545.787,430.5L548.246,431.535L548.54,430.809L546.787,430L546.287,428.5L548.287,428.5L549.3,428.934ZM535.855,461.5L534.712,464.143L544.901,463.825L543.573,461.5L535.855,461.5ZM526.935,454.804L532.482,463.451L533.942,460.948L529.97,454.592L526.935,454.804ZM549.176,453.5L544.85,460.58L546.708,462.959L551.627,453.5L549.176,453.5ZM627.58,452.605L626.433,459.709L647.905,454.423L642.698,448.825L627.58,452.605ZM609.343,442.976L622.572,458.294L624.572,451.462L614.914,441.061L609.343,442.976ZM540.287,458L538.287,458L539.287,455L540.287,458ZM541.787,454L543.787,455L543.037,456L541.787,454ZM537.787,454L536.287,456L535.287,454.5L537.787,454ZM526.696,452.5L529.761,452.5L533.407,444.803L531.965,442.841L526.696,452.5ZM541.787,451.5L544.287,451L543.287,449.5L541.787,451.5ZM537.787,451.5L535.287,451L536.287,449.5L537.787,451.5ZM544.885,444.924L549.041,451.347L551.476,451.05L546.103,442.731L544.885,444.924ZM649.534,428.562L646.175,447.038L650.665,451.006L656.43,426.591L649.534,428.562ZM540.091,447.5L538.287,447.5L539.287,450L540.091,447.5ZM533.683,441.792L534.936,444L543.193,444L544.252,441.386L533.683,441.792ZM636,442L630,444L632,439L636,442ZM626,443L622,438L627,436L626,443ZM640,432L640,439L635,435L640,432ZM608.982,438.747L613.429,437.456L617.524,422.714L613.326,418.839L608.982,438.747ZM631,431C633.091,431.058 633.921,432.305 633.813,433.539C633.705,434.773 632.66,435.994 631,436C628.217,436.01 627.078,430.891 631,431ZM622,434L622,428L626,433L622,434ZM635,424L640,428L634,430L635,424ZM630,424L629,429L625,425L630,424ZM636.387,414.592L648.248,424.532L655.479,421.82L638.156,408.161L636.387,414.592ZM615.593,416.101L619.483,420.346L633.299,414.251L634.374,407.951L615.593,416.101Z" style="fill:white;"/>
    </g>
</svg>
