<?xml version="1.0" encoding="UTF-8" standalone="no"?>
<!DOCTYPE svg PUBLIC "-//W3C//DTD SVG 1.1//EN" "http://www.w3.org/Graphics/SVG/1.1/DTD/svg11.dtd">
<svg width="100%" height="100%" viewBox="0 0 1000 1000" version="1.1" xmlns="http://www.w3.org/2000/svg" xmlns:xlink="http://www.w3.org/1999/xlink" xml:space="preserve" xmlns:serif="http://www.serif.com/" style="fill-rule:evenodd;clip-rule:evenodd;stroke-linejoin:round;stroke-miterlimit:2;">
    <g transform="matrix(4.73684,0,0,4.73684,-2815.79,-3242.11)">
        <path d="M700,710L795,870L605,870L700,710ZM700,730L777.188,860L622.813,860L700,730ZM707.375,815.738C705.663,817.753 703.565,818.864 701.272,819.519C707.447,822.286 707.643,850.023 709.422,851.419C714.271,855.223 728.589,841.749 731.836,836.477C734.61,831.972 711.562,817.785 707.375,815.738ZM692.754,812.303C693.389,814.869 694.773,816.798 696.535,818.406C689.773,818.134 677.247,842.882 675.033,843.339C668.997,844.586 662.177,826.146 661.617,819.98C661.139,814.712 688.093,812.271 692.754,812.303ZM708.279,803.565L708.826,809.561C715.19,809.111 717.852,808.213 718.329,809.838C718.648,810.924 715.208,811.4 709.336,812.94C731.494,823.231 746.577,825.544 733.57,806.9C736.298,789.221 727.524,788.619 708.279,803.565ZM701.95,805.994L702.054,806.014C702.054,806.014 705.161,806.819 705.47,808.12C705.797,809.501 704.927,813.207 704.019,814.298C703.189,815.294 700.216,814.702 700.031,814.664L699.808,814.612C699.626,814.564 696.7,813.769 696.401,812.508C696.073,811.127 696.944,807.421 697.852,806.33C698.708,805.302 701.849,805.966 701.849,805.966L701.95,805.994ZM697.365,801.001L694.205,806.126C688.708,802.889 686.724,800.9 685.574,802.142C684.804,802.973 687.672,804.931 692.244,808.924C667.821,808.272 653.287,803.626 673.235,792.725C678.665,775.681 686.789,779.049 697.365,801.001Z" style="fill:white;"/>
    </g>
</svg>
