<?xml version="1.0" encoding="UTF-8" standalone="no"?>
<!DOCTYPE svg PUBLIC "-//W3C//DTD SVG 1.1//EN" "http://www.w3.org/Graphics/SVG/1.1/DTD/svg11.dtd">
<svg width="100%" height="100%" viewBox="0 0 1000 1000" version="1.1" xmlns="http://www.w3.org/2000/svg" xmlns:xlink="http://www.w3.org/1999/xlink" xml:space="preserve" xmlns:serif="http://www.serif.com/" style="fill-rule:evenodd;clip-rule:evenodd;stroke-linejoin:round;stroke-miterlimit:2;">
    <g transform="matrix(5.00372,0,0,4.99363,-1596.25,-3294.58)">
        <path d="M411.297,674.152C411.862,672.515 413.2,671.06 415.061,670.297C418.252,668.987 421.779,670.204 422.931,673.013C422.938,673.031 422.946,673.049 422.953,673.066C424.956,673.465 426.854,674.16 428.596,675.105C428.611,675.075 428.627,675.045 428.642,675.015C430.062,672.332 433.69,671.463 436.739,673.077C439.549,674.564 440.893,677.644 439.974,680.218C441.906,681.519 443.504,682.936 444.817,684.453C445.295,684.234 445.811,684.089 446.354,684.032C449.373,683.718 452.114,686.249 452.471,689.68C452.733,692.203 451.634,694.514 449.833,695.686C449.949,696.449 450.035,697.22 450.093,698C450.242,700.012 450.076,701.959 449.578,703.839C449.897,704.048 450.195,704.296 450.466,704.584C452.544,706.797 452.189,710.51 449.674,712.872C447.639,714.783 444.808,715.226 442.702,714.152C441.256,715.416 439.591,716.639 437.699,717.822C437.728,717.885 437.756,717.948 437.782,718.013C438.934,720.821 437.279,724.164 434.088,725.473C431.125,726.689 427.873,725.727 426.501,723.336C424.638,724.075 422.658,724.793 420.558,725.492L420.617,727.111L464.5,735L464.5,743L421.346,747.364L422.34,774.947C423.884,776.381 425.407,777.827 426.913,779.285C429.114,778.125 432.098,778.682 434.117,780.804C436.058,782.844 436.512,785.703 435.416,787.823C437.083,789.554 438.73,791.297 440.36,793.051C442.238,792.795 444.321,793.505 445.851,795.113C447.461,796.804 448.048,799.058 447.577,800.987C448.175,801.657 448.77,802.328 449.363,802.999C455.354,799.123 461.185,794.892 465.553,790C475.44,778.925 483.685,765.718 490,750C487.667,751.348 485.333,753.048 483,755C489.224,743.885 496.123,732.173 500,720C503.792,735.102 503.874,750.104 500,765C499.226,761.259 498.428,754.528 495,752C489.666,768.442 481.641,786.338 471.47,800C457.539,818.713 433.811,833.291 419,850L418.651,849.609C403.818,833.063 380.227,818.567 366.405,800C356.234,786.338 348.209,768.442 342.875,752C339.447,754.528 338.649,761.259 337.875,765C334.001,750.104 334.083,735.102 337.875,720C341.752,732.173 348.651,743.885 354.875,755C352.542,753.048 350.208,751.348 347.875,750C354.19,765.718 362.435,778.925 372.322,790C384.032,803.116 406.259,811.476 413.875,821L415.504,775.786C414.688,775.249 413.892,774.718 413.123,774.197C411.07,774.784 408.62,774.117 406.883,772.292C405.791,771.145 405.17,769.738 405.03,768.349C401.199,765.371 398.099,762.595 395.656,759.999C394.021,759.973 392.318,759.255 391.016,757.887C389.211,755.991 388.692,753.387 389.508,751.327C388.411,748.875 388.004,746.61 388.177,744.497L373.375,743L373.375,735L399.961,730.221C400.53,729.874 401.115,729.53 401.712,729.19C401.848,727.009 403.376,724.891 405.764,723.912C407.803,723.075 409.978,723.27 411.584,724.252C413.497,723.383 415.462,722.523 417.455,721.664L417.767,713.006C407.144,712.43 398.696,703.622 398.696,692.857C398.696,684.4 403.911,677.151 411.297,674.152ZM422.565,781.169C423.168,781.71 423.766,782.254 424.361,782.802C424.013,784.664 424.619,786.78 426.149,788.387C427.814,790.137 430.135,790.823 432.132,790.359C433.719,791.982 435.278,793.623 436.813,795.28C435.436,797.428 435.818,800.526 437.883,802.696C439.837,804.748 442.692,805.337 444.868,804.323C445.152,804.652 445.435,804.982 445.717,805.312C436.844,810.849 428.2,815.747 424,821L422.565,781.169ZM392.895,744.974L416.529,747.364L415.855,766.049C415.583,765.577 415.248,765.125 414.851,764.708C412.473,762.209 408.757,761.88 406.558,763.973C406.507,764.022 406.456,764.072 406.407,764.123C403.701,762.273 401.337,760.418 399.372,758.562C401.505,756.459 401.339,752.778 398.984,750.304C397.292,748.526 394.923,747.846 392.905,748.356C392.71,747.226 392.702,746.098 392.895,744.974ZM417.276,726.623L417.258,727.111L414.863,727.541C415.643,727.235 416.448,726.929 417.276,726.623ZM437.253,683.104C439.192,684.385 440.773,685.837 442.012,687.452C441.589,688.459 441.404,689.614 441.529,690.818C441.793,693.349 443.353,695.39 445.366,696.16C445.426,696.762 445.459,697.375 445.467,698C445.49,699.866 445.283,701.624 444.833,703.279C443.875,703.573 442.948,704.099 442.145,704.853C440.318,706.568 439.631,708.996 440.188,711.044C438.689,712.521 436.857,713.881 434.676,715.133C433.238,714.618 431.532,714.632 429.912,715.297C428.162,716.015 426.874,717.344 426.258,718.862C424.44,719.492 422.483,720.085 420.384,720.643L420.108,713.006C430.731,712.43 439.179,703.622 439.179,692.857C439.179,689.397 438.306,686.139 436.769,683.293C436.934,683.237 437.095,683.174 437.253,683.104ZM418.938,681.715C412.816,681.749 407.857,686.729 407.857,692.857C407.857,698.986 412.816,703.966 418.938,704C425.059,703.966 430.018,698.986 430.018,692.857C430.018,686.729 425.059,681.749 418.938,681.715Z" style="fill:white;"/>
    </g>
</svg>
