<?xml version="1.0" encoding="UTF-8" standalone="no"?>
<!DOCTYPE svg PUBLIC "-//W3C//DTD SVG 1.1//EN" "http://www.w3.org/Graphics/SVG/1.1/DTD/svg11.dtd">
<svg width="100%" height="100%" viewBox="0 0 1000 1000" version="1.1" xmlns="http://www.w3.org/2000/svg" xmlns:xlink="http://www.w3.org/1999/xlink" xml:space="preserve" xmlns:serif="http://www.serif.com/" style="fill-rule:evenodd;clip-rule:evenodd;stroke-linejoin:round;stroke-miterlimit:2;">
    <g transform="matrix(3.77065,0,0,3.77065,-1404.18,-1212.69)">
        <path d="M504.621,489.94C496.684,488.642 489.421,484.584 482.287,480C461.558,492.073 453.851,501.567 437,501.492C423.378,501.432 412.818,495.022 392.179,485C386.072,468 384.036,451 387,434C412.395,417.546 445.338,406.018 484,407C491.582,415.466 498.566,425.165 505,436L505.302,435.493C511.652,424.863 518.536,415.334 526,407C564.662,406.018 597.605,417.546 623,434C625.964,451 623.928,468 617.821,485C597.182,495.022 586.622,501.432 573,501.492C556.149,501.567 548.442,492.073 527.713,480C520.466,484.657 513.086,488.77 505,490L504.621,489.94ZM563,487C560.647,467.566 553.521,459.189 542,461C556.735,449.864 571.664,448.588 587,468C571.338,460.302 565.42,470.448 563,487ZM447,487C449.353,467.566 456.479,459.189 468,461C453.265,449.864 438.336,448.588 423,468C438.662,460.302 444.58,470.448 447,487ZM605,450C603.267,455.393 600.372,456.952 603,457.68C607.157,458.832 607.716,455.576 611,450C591.342,421.596 565.679,411.565 533,423C525.85,433.633 520.356,442.998 524,442.833C525.112,442.782 526.018,442.701 527,441.87C529.431,439.811 529.951,432.348 539,426C569.466,419.038 590.145,429.374 605,450ZM405,450C406.733,455.393 409.628,456.952 407,457.68C402.843,458.832 402.284,455.576 399,450C418.658,421.596 444.321,411.565 477,423C484.15,433.633 489.644,442.998 486,442.833C484.888,442.782 483.982,442.701 483,441.87C480.569,439.811 480.049,432.348 471,426C440.534,419.038 419.855,429.374 405,450ZM594,457C583.826,451.871 573.656,448.422 563.489,447.105C553.322,445.788 543.159,446.603 533,450C535.334,447.608 537.668,445.547 540,443.808C558.057,430.349 576.052,436.207 594,457ZM416,457C426.174,451.871 436.344,448.422 446.511,447.105C456.678,445.788 466.841,446.603 477,450C474.666,447.608 472.332,445.547 470,443.808C451.943,430.349 433.948,436.207 416,457Z" style="fill:white;"/>
    </g>
</svg>
