<?xml version="1.0" encoding="UTF-8" standalone="no"?>
<!DOCTYPE svg PUBLIC "-//W3C//DTD SVG 1.1//EN" "http://www.w3.org/Graphics/SVG/1.1/DTD/svg11.dtd">
<svg width="100%" height="100%" viewBox="0 0 1000 1000" version="1.1" xmlns="http://www.w3.org/2000/svg" xmlns:xlink="http://www.w3.org/1999/xlink" xml:space="preserve" xmlns:serif="http://www.serif.com/" style="fill-rule:evenodd;clip-rule:evenodd;stroke-linejoin:round;stroke-miterlimit:2;">
    <path d="M938.349,614.523L553.967,845.152C543.062,851.804 513.084,853.421 528.342,828.068L67.084,307.017C57.499,316.2 51.286,327.295 50,341.184L511.258,862.235C531.539,882.289 554.438,868.877 579.593,853.693L946.891,623.064C954.094,617.887 947.754,609.188 938.349,614.523ZM819.539,669.214C800.884,679.684 781.778,689.747 762.801,699.432C749.909,706.011 737.077,712.394 724.468,718.565C714.662,723.363 704.99,728.02 695.546,732.558C685.607,737.334 675.911,741.954 666.555,746.413C654.306,752.251 642.64,757.809 631.714,762.95C611.104,772.65 593.188,780.959 579.236,787.366C564.169,794.337 555.719,802.274 554.199,808.483C552.659,814.779 557.631,820.047 570.424,820.907C570.925,820.951 571.367,820.579 571.41,820.079C571.453,819.578 571.082,819.136 570.581,819.093C559.96,817.968 555.282,814.353 556.758,809.159C558.369,803.488 566.652,796.764 580.764,790.83C591.113,786.451 603.637,781.181 617.772,775.046C629.095,770.131 641.458,764.691 654.564,758.732C662.434,755.154 670.576,751.399 678.908,747.436C686.792,743.687 694.848,739.755 703.031,735.67C718.555,727.921 734.551,719.648 750.68,710.939C774.005,698.344 797.559,684.796 820.461,670.786C820.894,670.531 821.04,669.973 820.786,669.539C820.531,669.106 819.973,668.96 819.539,669.214ZM682.094,435.144L758.971,362.539L946.891,597.439C814.036,666.347 661.678,728.035 572.398,768.275C551.887,777.52 542.585,796.652 536.883,810.984L84.167,298.475C88.952,220.149 156.165,174.307 340.422,185.758C419.156,190.651 491.864,140.655 571.051,127.639L716.262,315.559L639.385,396.706L638.157,434.478C636.838,435.182 635.51,435.894 634.177,436.611L634.925,432.924C635.021,432.247 635.101,431.565 635.111,430.874C635.121,430.185 635.062,429.5 634.982,428.823C634.855,427.745 634.681,426.737 634.446,425.748C633.671,422.481 632.773,420.113 632.357,418.83C632.238,418.466 632.158,418.258 632.116,418.138C631.948,417.662 631.699,417.787 631.467,418.094C631.799,417.128 631.357,416.816 630.843,416.816C630.156,416.816 629.599,417.374 629.599,418.061L630.843,419.306C630.843,419.306 629.981,418.745 629.533,418.378C629.598,418.248 629.634,418.16 629.571,418.138C629.113,417.977 629.229,418.134 629.533,418.378C629.472,418.498 629.387,418.655 629.33,418.83C628.913,420.112 628.016,422.481 627.241,425.748C627.006,426.737 626.832,427.745 626.705,428.824C626.625,429.5 626.566,430.185 626.576,430.874C626.585,431.565 626.666,432.247 626.762,432.924C626.916,434.006 627.121,435.003 627.36,435.999C627.702,437.421 628.049,438.682 628.364,439.758C625.652,441.235 622.928,442.732 620.211,444.241C616.542,446.279 612.908,448.382 609.322,450.47C603.747,453.717 598.305,456.953 593.133,460.07C572.441,472.538 555.985,482.78 553.353,484.42C553.354,484.42 536.883,485.15 536.883,485.15C536.196,485.15 535.639,485.708 535.639,486.395C535.639,487.082 536.196,487.64 536.883,487.64L553.967,488.398C554.311,488.398 554.649,488.309 554.949,488.141C554.949,488.141 573.428,478.837 596.803,466.595C602.152,463.793 607.744,460.823 613.414,457.745C617.061,455.765 620.744,453.751 624.392,451.673C629.419,448.809 634.422,445.905 639.298,443.033L639.385,443.686L643.656,405.248L651.966,396.489C653.188,397.356 654.35,398.241 655.495,399.132C658.108,401.166 660.296,403.305 662.417,405.446C663.737,406.778 664.958,408.135 666.196,409.451C667.481,410.818 668.776,412.123 670.004,413.487C671.553,415.209 673.054,416.876 674.499,418.653C675.777,420.225 677.013,421.766 678.213,423.341L674.797,426.603L639.385,443.686L682.094,435.144ZM830.891,258.379C833.262,262.686 834.869,267.542 835.847,272.85L681.469,420.233C680.979,418.756 680.447,417.288 679.849,415.814C679.41,414.731 678.935,413.686 678.418,412.648C678.533,412.589 678.641,412.511 678.736,412.415C678.736,412.415 699.85,392.716 726.447,367.255C732.535,361.426 738.889,355.285 745.32,348.982C749.457,344.928 753.628,340.815 757.751,336.651C761.873,332.487 765.947,328.277 769.957,324.098C776.192,317.602 782.266,311.184 788.023,305.029C798.205,294.142 807.381,284.119 814.762,276.071C822.555,267.574 828.281,261.263 830.891,258.379ZM354.082,347.095C357.196,345.376 362.125,342.637 367.405,339.63C379.004,333.026 392.229,325.214 392.229,325.214C392.844,324.907 393.093,324.159 392.786,323.544C392.479,322.93 391.73,322.68 391.116,322.987C391.116,322.987 376.932,328.882 364.689,334.2C357.089,337.501 350.278,340.578 348.013,341.605C346.163,341.708 339.846,342.092 331.456,342.923C326.355,343.429 320.499,344.153 314.405,344.959C305.872,346.088 296.911,347.439 288.894,348.665C274.583,350.853 263.422,352.756 263.422,352.756C262.738,352.825 262.238,353.435 262.307,354.119C262.375,354.802 262.986,355.302 263.669,355.234C263.669,355.234 274.987,354.89 289.448,354.203C296.085,353.887 303.361,353.528 310.498,353.089L236.643,388.911L232.111,388.297C231.209,388.217 230.295,388.158 229.378,388.168C228.459,388.177 227.548,388.257 226.645,388.354C225.218,388.506 223.866,388.712 222.545,388.952C216.626,390.029 212.294,391.191 212.294,391.191C211.607,391.191 211.05,391.748 211.05,392.435C211.05,393.122 211.607,393.68 212.294,393.68C212.294,393.68 216.626,394.842 222.545,395.918C223.866,396.159 225.218,396.364 226.645,396.517C227.548,396.613 228.459,396.693 229.378,396.703C230.295,396.713 231.209,396.654 232.111,396.574L236.484,395.989L241.224,398.358L211.667,416.986C211.074,417.332 210.873,418.095 211.219,418.688C211.565,419.282 212.328,419.482 212.922,419.136L249.279,399.569L271.232,388.592C279.222,385.343 293.429,379.525 306.227,374.069C320.121,368.146 332.332,362.618 333.458,362.107C333.448,362.112 384.047,343.932 384.047,343.932C384.247,343.866 384.44,343.777 384.621,343.668L426.48,316.627C427.069,316.273 427.261,315.508 426.907,314.919C426.554,314.329 425.789,314.138 425.199,314.492L381.993,338.505L354.082,347.095ZM677.218,410.387C676.391,408.929 675.476,407.521 674.468,406.147C673.629,405.005 672.716,403.903 671.708,402.871C670.718,401.857 669.639,400.912 668.488,400.027C668.364,399.931 668.239,399.836 668.113,399.742C674.394,393.76 693.377,375.636 716.194,353.441C722.613,347.196 729.313,340.619 736.098,333.872C740.461,329.532 744.863,325.129 749.214,320.677C753.566,316.225 757.869,311.726 762.106,307.262C768.692,300.323 775.112,293.47 781.197,286.901C791.96,275.283 801.667,264.592 809.473,256.008C813.102,252.018 816.308,248.48 818.996,245.506C823.368,248.379 826.818,251.914 829.479,256.016C826.913,258.398 820.426,264.436 811.496,272.847C803.546,280.334 793.645,289.642 782.894,299.968C776.816,305.806 770.478,311.964 764.065,318.284C759.94,322.35 755.784,326.479 751.676,330.656C747.567,334.833 743.509,339.058 739.51,343.248C733.293,349.763 727.236,356.197 721.489,362.362C698.051,387.502 679.572,407.799 677.218,410.387ZM617.271,366.51C617.592,365.528 618.117,363.998 618.612,361.775C618.774,361.051 618.898,360.366 618.968,359.577C619.011,359.098 619.039,358.619 618.994,358.135C618.95,357.654 618.839,357.186 618.707,356.728C618.492,355.977 618.246,355.318 617.936,354.656C616.855,352.347 615.856,350.966 615.323,350.091C615.168,349.837 615.084,349.721 615.03,349.638C614.785,349.263 614.564,349.279 614.378,349.469C614.531,348.654 614.092,348.437 613.621,348.489C612.939,348.566 612.446,349.182 612.523,349.865L613.76,350.971C613.76,350.971 612.908,350.447 612.462,350.113C612.519,350.008 612.553,349.94 612.501,349.921C612.043,349.751 612.159,349.889 612.462,350.113C612.417,350.196 612.358,350.303 612.316,350.428C611.989,351.398 611.32,352.966 610.776,355.456C610.619,356.171 610.525,356.868 610.481,357.648C610.455,358.124 610.449,358.605 610.512,359.083C610.576,359.566 610.708,360.026 610.856,360.484C611.099,361.238 611.372,361.879 611.689,362.549C612.762,364.816 613.685,366.256 614.194,367.126C614.43,367.528 614.661,367.833 614.869,368.063C610.433,370.962 606.075,373.948 601.883,376.823C598.695,379.009 595.638,381.159 592.745,383.207C581.31,391.303 572.555,397.663 570.53,399.138C570.532,399.136 562.688,398.501 562.688,398.501C562.009,398.402 561.376,398.873 561.277,399.553C561.178,400.233 561.65,400.865 562.329,400.964L570.792,402.755C571.218,402.817 571.652,402.724 572.015,402.493C572.015,402.493 582.404,396.78 596.336,388.851C599.417,387.097 602.66,385.238 605.99,383.276C610.658,380.527 615.521,377.66 620.315,374.67C623.484,372.693 626.609,370.647 629.666,368.62C632.844,366.512 635.926,364.401 638.882,362.358C643.93,358.868 648.573,355.584 652.561,352.738C660.774,346.877 666.117,342.924 666.117,342.924C666.244,342.843 666.362,342.749 666.468,342.642L674.433,333.523C674.919,333.037 674.919,332.248 674.433,331.762C673.947,331.277 673.158,331.277 672.672,331.762L663.828,339.486C663.119,339.871 657.479,342.938 649.272,347.569C645.005,349.977 640.063,352.792 634.764,355.887C631.661,357.699 628.443,359.597 625.188,361.583C622.564,363.185 619.907,364.823 617.271,366.51ZM655.2,393.081L801.68,238.683C807.106,239.812 811.788,241.475 815.806,243.616C813.038,246.252 809.802,249.341 806.186,252.805C797.808,260.831 787.372,270.812 776.037,281.873C769.628,288.126 762.943,294.721 756.177,301.485C751.825,305.837 747.439,310.255 743.101,314.72C738.763,319.186 734.476,323.7 730.251,328.175C723.682,335.132 717.28,342 711.204,348.579C689.233,372.369 671.372,392.083 665.872,398.167C664.988,397.588 664.07,397.037 663.11,396.514C661.289,395.523 659.415,394.618 657.35,393.84C656.641,393.573 655.926,393.32 655.2,393.081ZM450.926,366.618C450.51,365.887 450.22,366.315 450.22,366.81C450.22,367.497 450.778,368.055 451.465,368.055C451.465,368.055 451.973,368.816 454.028,370.293C454.386,370.55 454.618,370.709 455.053,370.891C455.277,370.985 455.491,371.068 455.736,371.078C455.973,371.087 456.198,371.025 456.42,370.949C456.842,370.802 457.102,370.653 457.445,370.413C459.613,368.888 460.007,368.055 460.007,368.055C460.694,368.055 461.252,367.497 461.252,366.81C461.252,366.123 460.694,365.565 460.007,365.565L460.007,365.58C459.889,365.432 459.747,365.278 459.58,365.118C458.963,364.528 458.699,364.057 457.274,363.103C456.964,362.895 456.725,362.763 456.351,362.643C456.152,362.578 455.946,362.516 455.736,362.542C455.119,362.619 454.696,362.904 454.199,363.211C452.794,364.078 452.499,364.582 451.892,365.137C451.276,365.701 451.006,366.2 450.926,366.618ZM467.869,349.324C467.53,348.905 467.304,349.289 467.304,349.726C467.304,350.413 467.862,350.971 468.549,350.971C468.549,350.971 471.697,352.109 476.237,353.209C477.232,353.45 478.229,353.654 479.312,353.808C479.989,353.904 480.67,353.984 481.362,353.994C482.05,354.003 482.736,353.945 483.412,353.865C484.49,353.738 485.498,353.566 486.487,353.329C491.068,352.232 494.174,350.971 494.174,350.971C494.861,350.971 495.419,350.413 495.419,349.726C495.419,349.039 494.861,348.481 494.174,348.481L493.406,348.213C492.123,347.796 489.754,346.899 486.487,346.124C485.498,345.889 484.49,345.715 483.412,345.588C482.736,345.508 482.05,345.449 481.362,345.459C480.67,345.468 479.988,345.548 479.312,345.645C478.229,345.799 477.232,346.004 476.237,346.243C472.999,347.02 470.595,347.828 469.318,348.224C468.956,348.336 468.746,348.414 468.626,348.455C468.089,348.637 467.89,348.965 467.869,349.324ZM527.182,315.054C527.24,315.007 527.263,314.967 527.232,314.93C526.86,314.487 526.941,314.666 527.182,315.054C527.064,315.156 526.797,315.29 526.57,315.488C525.381,316.528 522.993,318.461 520.219,321.248C519.365,322.106 518.542,323.026 517.723,324.026C517.205,324.658 516.7,325.311 516.249,326.005C515.797,326.7 515.408,327.427 515.037,328.158C514.448,329.317 513.948,330.44 513.485,331.565C511.996,335.179 511.038,338.1 510.521,339.582C510.375,339.999 510.391,340.447 510.251,340.402C508.784,339.928 511.222,342.393 511.258,342.429L511.259,342.429C511.66,342.429 512.055,342.234 512.294,341.875L512.03,342.016C512.304,341.838 512.64,341.59 513.02,341.249C514.19,340.202 516.518,338.193 519.281,335.429C520.141,334.568 520.986,333.675 521.829,332.686C522.361,332.062 522.883,331.423 523.351,330.739C523.817,330.057 524.226,329.339 524.61,328.617C525.219,327.476 525.751,326.363 526.214,325.245C527.72,321.612 528.585,318.665 529.088,317.167C529.151,316.979 529.182,316.786 529.209,316.633C529.501,316.55 529.679,316.445 529.349,316.342C529.271,316.317 529.242,316.444 529.209,316.633C528.858,316.734 528.342,316.804 528.342,316.804C529.759,315.678 529.604,314.904 529.032,314.523C528.46,314.142 527.687,314.297 527.306,314.869L528.342,316.804C528.342,316.804 527.562,315.668 527.182,315.054ZM510.567,342.22C510.674,342.291 510.787,342.343 510.903,342.378C511.019,342.412 511.139,342.429 511.258,342.429C509.841,341.066 509.996,341.839 510.567,342.22ZM655.912,263.195C655.912,263.195 646.391,266.485 634.357,271.336C631.621,272.439 628.791,273.66 625.918,274.957C624.074,275.789 622.219,276.651 620.393,277.575C618.566,278.499 616.774,279.484 615.01,280.475C612.258,282.019 609.603,283.579 607.077,285.11C595.993,291.828 587.578,297.362 587.578,297.362C586.963,297.669 586.714,298.418 587.021,299.032C587.328,299.647 588.077,299.896 588.691,299.589C588.691,299.589 598.167,296.177 610.192,291.341C612.932,290.239 615.774,289.05 618.66,287.776C620.511,286.958 622.375,286.116 624.21,285.209C626.044,284.302 627.848,283.336 629.619,282.36C632.381,280.839 635.055,279.308 637.58,277.781C648.68,271.064 657.026,265.422 657.026,265.422C657.64,265.114 657.89,264.366 657.582,263.751C657.275,263.137 656.527,262.887 655.912,263.195Z" style="fill:white;"/>
</svg>
