<?xml version="1.0" encoding="UTF-8" standalone="no"?>
<!DOCTYPE svg PUBLIC "-//W3C//DTD SVG 1.1//EN" "http://www.w3.org/Graphics/SVG/1.1/DTD/svg11.dtd">
<svg width="100%" height="100%" viewBox="0 0 1000 1000" version="1.1" xmlns="http://www.w3.org/2000/svg" xmlns:xlink="http://www.w3.org/1999/xlink" xml:space="preserve" xmlns:serif="http://www.serif.com/" style="fill-rule:evenodd;clip-rule:evenodd;stroke-linejoin:round;stroke-miterlimit:2;">
    <g transform="matrix(23.6842,0,0,23.6842,-7102.63,-11957.9)">
        <path d="M325,526C325.23,522.995 325.474,519.763 324.069,517C322.597,514.107 321.554,510.48 320,507C320.018,511.648 319.737,515.795 318.543,519C317.534,521.708 318.084,524.554 318,527C315.931,524.813 313.919,522.15 310.992,521C306.826,519.362 304.678,517.076 302,515C304.112,518.642 306.899,522.175 308.058,526C308.896,528.764 311.621,530.72 314,533C310.862,532.499 306.73,532.575 302,533C304.977,534.536 307.653,534.741 310,536.584C311.95,538.116 314.342,537.904 316,538C314.174,540.714 313.271,543.003 313,545C315.14,544.038 316.295,542.556 317.461,542.295C319.124,541.924 320.341,539.86 321,539C322.458,540.085 323.898,541.098 325.31,542C327.272,543.253 329.178,544.29 331,545C330.483,543.73 329.259,541.828 327,539C331.885,537.695 336.473,536.374 340,535C338.046,534.733 335.243,533.366 330,533C331.454,531.246 333.992,528.353 335.042,525.617C336.625,521.49 338.358,519.815 340,516C336.95,516.797 333.699,518.266 330.985,520.984C329.275,522.696 327.042,524.101 325,526Z" style="fill:white;"/>
    </g>
</svg>
