<?xml version="1.0" encoding="UTF-8" standalone="no"?>
<!DOCTYPE svg PUBLIC "-//W3C//DTD SVG 1.1//EN" "http://www.w3.org/Graphics/SVG/1.1/DTD/svg11.dtd">
<svg width="100%" height="100%" viewBox="0 0 1000 1000" version="1.1" xmlns="http://www.w3.org/2000/svg" xmlns:xlink="http://www.w3.org/1999/xlink" xml:space="preserve" xmlns:serif="http://www.serif.com/" style="fill-rule:evenodd;clip-rule:evenodd;stroke-linejoin:round;stroke-miterlimit:2;">
    <g transform="matrix(1.02834,0,0,1.02834,-14.1722,-14.1722)">
        <g transform="matrix(1.19826,0,0,1.56047,-224.716,-123.704)">
            <path d="M554.203,216.652L602.742,216.608C626.345,314.586 657.533,397.048 720,449.279C790.141,507.927 894.503,530.78 970,540L969.614,581.688C900.451,570.246 784.837,548.124 700,488.089C663.625,462.348 632.907,429.636 613.935,387.809L560.221,388.027L560.221,388.076L554.203,388.051L548.186,388.076L548.186,388.027L494.472,387.809C431.251,527.19 338.818,566.421 240,582.769L239.614,541.082C382.347,523.65 455.559,424.602 505.664,216.608L554.203,216.652ZM554.203,257.615L535.939,257.69C530.173,287.379 520.107,316.557 506.844,345.355L548.248,345.036L548.248,344.944L554.203,344.99L560.159,344.944L560.159,345.036L601.563,345.355C588.3,316.557 578.234,287.379 572.468,257.69L554.203,257.615Z" style="fill:white;"/>
        </g>
        <g transform="matrix(1.17433,0,0,1.17387,-165.789,8.30878)">
            <circle cx="795" cy="315" r="85" style="fill:white;"/>
        </g>
    </g>
</svg>
