<?xml version="1.0" encoding="UTF-8" standalone="no"?>
<!DOCTYPE svg PUBLIC "-//W3C//DTD SVG 1.1//EN" "http://www.w3.org/Graphics/SVG/1.1/DTD/svg11.dtd">
<svg width="100%" height="100%" viewBox="0 0 1000 1000" version="1.1" xmlns="http://www.w3.org/2000/svg" xmlns:xlink="http://www.w3.org/1999/xlink" xml:space="preserve" xmlns:serif="http://www.serif.com/" style="fill-rule:evenodd;clip-rule:evenodd;stroke-linejoin:round;stroke-miterlimit:2;">
    <g transform="matrix(2.74278,0,0,2.74278,-799.059,-1021.64)">
        <path d="M410,717.805C408.867,716.896 406.285,717.122 406.405,714.653C406.592,710.786 405.112,698.182 400,690C392.13,689.013 386.057,686.681 380,684.338C373.106,674.25 375.169,665.437 383.664,657.54C395.619,657.564 407.954,660.177 421,667.637C430.216,665.292 437.727,660.815 441.765,652C430.572,653.557 420.623,655.839 413,652.816C398.195,646.943 386.989,646.023 377.265,640C369.657,623.328 373.627,616.697 380,612.149C397.947,619.241 398.831,620.542 410,626.364C418.83,630.967 430.909,627.591 432.702,627C451.855,620.69 461.5,625.111 470,617.644C474.62,613.586 477.297,607.894 476.753,600C459.716,597.15 450.632,612.153 440,610.066C422.94,606.715 414.832,597.939 407,597.008C395.43,595.633 389.031,591.914 380,592.534C374.177,590.55 372.25,582.234 373.309,577C374.222,572.485 377.785,565.614 384.119,563.318C396.202,562.623 402.683,568.712 412,570.5C418.684,571.783 425.362,572.821 432,573.759C444.928,575.587 445.192,565.723 472.484,561C481.812,554.705 485.728,545.822 480,532.33C469.85,530.608 456.449,536.66 440,550C423.87,552.023 411.621,551.856 402.368,550C384.436,540.497 379.521,529.802 376.313,520C336.176,397.343 521.086,351.899 556.531,427.799C590.089,499.655 577.639,554.431 548.147,600C534.613,620.913 508.078,634.897 490.074,663.888C461.025,710.662 441.382,722.794 410,717.805ZM455.797,440C473.57,440 488,454.43 488,472.203C488,489.977 473.57,504.406 455.797,504.406C438.023,504.406 423.594,489.977 423.594,472.203C423.594,454.43 438.023,440 455.797,440Z" style="fill:white;"/>
    </g>
</svg>
