<?xml version="1.0" encoding="UTF-8" standalone="no"?>
<!DOCTYPE svg PUBLIC "-//W3C//DTD SVG 1.1//EN" "http://www.w3.org/Graphics/SVG/1.1/DTD/svg11.dtd">
<svg width="100%" height="100%" viewBox="0 0 1000 1000" version="1.1" xmlns="http://www.w3.org/2000/svg" xmlns:xlink="http://www.w3.org/1999/xlink" xml:space="preserve" xmlns:serif="http://www.serif.com/" style="fill-rule:evenodd;clip-rule:evenodd;stroke-linejoin:round;stroke-miterlimit:2;">
    <g transform="matrix(5.68202,0,0,5.68202,-1673.43,-2372.06)">
        <path d="M360,530C360.003,534.571 347.211,532.349 346.287,530C341.674,518.277 347.942,500.244 360,492.367C395.888,468.923 438.297,502.848 409.5,552.5C405.545,559.319 410.981,568.28 415,571.7C419.752,575.745 426.473,576.916 435,575.667C452.728,573.07 476.891,534.924 449,474C455.014,473.782 463.664,438.572 447,435C440.865,433.685 420,450 420,450C395,439.531 370,439.531 345,450C345,450 321.079,432.675 315,435C303.224,439.503 311.234,475.187 315,475C289.679,524.728 311.387,557.016 325,567.171C339.763,578.185 399.732,582.505 405,528.758C402.726,502.802 387.971,498.874 380,500.407C373.052,501.744 359.979,498.367 360,530Z" style="fill:white;"/>
    </g>
</svg>
