<?xml version="1.0" encoding="UTF-8" standalone="no"?>
<!DOCTYPE svg PUBLIC "-//W3C//DTD SVG 1.1//EN" "http://www.w3.org/Graphics/SVG/1.1/DTD/svg11.dtd">
<svg width="100%" height="100%" viewBox="0 0 1000 1000" version="1.1" xmlns="http://www.w3.org/2000/svg" xmlns:xlink="http://www.w3.org/1999/xlink" xml:space="preserve" xmlns:serif="http://www.serif.com/" style="fill-rule:evenodd;clip-rule:evenodd;stroke-linejoin:round;stroke-miterlimit:2;">
    <g transform="matrix(11.806,0,0,11.806,-6676.15,-4955.73)">
        <path d="M620,436.485C647.918,454.998 640.002,483.137 625,495C616.345,501.844 600.059,501.389 591,497C574.689,489.097 560.807,434.782 622,424C596.133,430.795 604.323,447.366 609,448C613.057,448.55 619.57,447.194 620,436.485ZM609,453C621.142,453 631,462.858 631,475C631,487.142 621.142,497 609,497C596.858,497 587,487.142 587,475C587,462.858 596.858,453 609,453ZM613,455C619.776,457.202 623.412,473.193 610.914,474.959C602.615,476.132 599.701,480.389 599.914,484.959C600.192,490.965 604.808,496.065 611,495.2C637.262,491.529 631.65,456.907 613,455ZM609,483.5C609.828,483.5 610.5,484.172 610.5,485C610.5,485.828 609.828,486.5 609,486.5C608.172,486.5 607.5,485.828 607.5,485C607.5,484.172 608.172,483.5 609,483.5ZM609,463C609.828,463 610.5,463.672 610.5,464.5C610.5,465.328 609.828,466 609,466C608.172,466 607.5,465.328 607.5,464.5C607.5,463.672 608.172,463 609,463Z" style="fill:white;"/>
    </g>
</svg>
