<?xml version="1.0" encoding="UTF-8" standalone="no"?>
<!DOCTYPE svg PUBLIC "-//W3C//DTD SVG 1.1//EN" "http://www.w3.org/Graphics/SVG/1.1/DTD/svg11.dtd">
<svg width="100%" height="100%" viewBox="0 0 1000 1000" version="1.1" xmlns="http://www.w3.org/2000/svg" xmlns:xlink="http://www.w3.org/1999/xlink" xml:space="preserve" xmlns:serif="http://www.serif.com/" style="fill-rule:evenodd;clip-rule:evenodd;stroke-linejoin:round;stroke-miterlimit:2;">
    <g transform="matrix(4.4469,0,0,4.4469,-1364.05,-2021.31)">
        <path d="M497,583C494.229,584.897 491.555,585.019 489,583C487.272,579.19 484.778,575.668 480,573C476.078,572.047 476.797,570.602 479,569C485.452,563.572 486.312,559.959 479,559C475.243,560.631 472.514,559.956 471.789,556C468.775,553.884 466.253,553.757 464,557C463.666,561.712 464.306,565.197 466.41,569C467.471,570.919 464.99,573.883 463,575C459.439,576.401 454.972,576.549 450,576C447.99,573.191 445.304,572.247 442,573C437.127,567.895 431.615,562.666 425,558.316C421.334,555.906 419.998,552.963 416,552C417.301,537.885 411.059,531.091 401,528C395.318,527.344 389.323,527.006 383,527C382.274,525.281 382.539,523.611 384,522C393.219,525.439 399.738,527.22 403,527C404.855,526.011 406.506,526.093 408,527C410.102,528.562 411.523,527.682 413,527C414.233,526.024 415.181,526.241 416,527C418.739,528.084 420.148,527.41 421,526C421.486,524.637 422.568,524.191 424,524.286C427.666,524.931 429.402,524.026 428.5,521C427.135,519.94 425.864,518.272 424,517.985C404.207,514.942 393.625,510.185 388,504C393.214,496.639 390.357,495.176 383,497C381.782,489.739 378.886,490.888 375,497C371.351,499.924 368.653,502.922 367,506C362.064,506.056 359.362,507.44 362,512C360.018,519.196 361.025,524.321 367,526C372.546,525.491 372.732,527.372 369,531C354.991,543.712 345.648,547.542 338,541C333.108,537.683 333.251,533.871 334,530C336.065,525.401 339.889,523.291 345,523C354.685,522.092 355.118,518.132 352,513C349.457,509.183 345.902,507.903 341,510C331.045,511.688 329.441,515.261 333,520C330.329,523.25 328.528,526.861 328,531C325.669,530.877 323.687,529.831 322,528C318.775,527.077 316.614,527.231 319,532L337,548C336.849,553.418 339.102,556.204 345,555L360,569C359.363,570.85 358.904,572.787 359,575L353,579C350.788,579.683 348.846,579.073 347,578L343,569C339.999,566.786 338.014,567.497 337,571C336.909,578.173 338.346,584.818 344,590C346.807,594.924 350.149,594.509 354,589L369,583C372.765,580.915 375.581,581.83 378,584L384,589C383.826,594.192 386.827,596.561 392,597C393.099,602.94 396.712,607.488 404,610C410.792,622.701 419.761,633.067 431,641C435.681,643.221 438.292,641.476 440,638C444.699,637.789 446.009,635.579 445,632C448.321,630.439 449.27,628.088 445,624C435.333,615.605 425.667,609.794 416,606C413.009,605.304 410.491,604.145 410,601C408.598,598 405.598,595 401,592C398.068,592.345 396.784,590.617 397,587C396.127,585.74 392.759,584.785 388,584C404.422,585.254 417.949,583.79 429,580C433.074,579.422 437.08,579.378 441,580C448.335,581.479 455.994,581.837 464,581C466.272,582.719 469.483,584.097 474,585C472.271,591.205 472.284,596.195 474,600C475.035,603.111 475.421,605.926 472,607C467.93,614.325 470.118,615.482 476,613L481,609C482.461,607.183 482.767,604.958 481,602C481.351,596.934 482.786,596.723 485,600C488.085,602.567 488.127,604.84 487,607C484.5,616.374 486.657,617.134 492,612L494,606C495.187,603.496 495.047,600.81 494,598C492.023,595.508 492.653,593.225 494,591L519,577C521.759,573.198 520.164,571.869 516,572L497,583Z" style="fill:white;"/>
    </g>
</svg>
