<?xml version="1.0" encoding="UTF-8" standalone="no"?>
<!DOCTYPE svg PUBLIC "-//W3C//DTD SVG 1.1//EN" "http://www.w3.org/Graphics/SVG/1.1/DTD/svg11.dtd">
<svg width="100%" height="100%" viewBox="0 0 1000 1000" version="1.1" xmlns="http://www.w3.org/2000/svg" xmlns:xlink="http://www.w3.org/1999/xlink" xml:space="preserve" xmlns:serif="http://www.serif.com/" style="fill-rule:evenodd;clip-rule:evenodd;stroke-linejoin:round;stroke-miterlimit:2;">
    <g transform="matrix(1.67598,0,0,1.67907,-312.011,-220.321)">
        <path d="M495,580C534.756,562.402 566.409,528.405 586,470C662.664,411.578 703.495,335.153 717,245L753,214L750,310L740,312L740,330L747,333L745,367L733,370L730,390L740,395L735,429L723,430L717,450L730,456L711,520C668.603,539.2 632.184,562.978 600,590L508.421,603.083C505.775,619.947 499.365,634.296 486,644C470.116,633.989 462.251,619.918 460.005,603.001L369,590C336.816,562.978 300.397,539.2 258,520L239,456L252,450L246,430L234,429L229,395L239,390L236,370L224,367L222,333L229,330L229,312L219,310L216,214L252,245C265.505,335.153 306.336,411.578 383,470C402.591,528.405 434.244,562.402 474,580L495,580ZM458,588C401.84,570.117 377.727,537.647 354,505C365.333,500.96 376.667,497.663 388,495L381,473C366.855,474.488 351.708,478.936 335,488C282.953,431.616 254.845,364.63 244,290C249.953,358.276 265.118,427.288 314,499C301.571,509.438 293.296,520.557 287,532C300.696,526.451 314.604,521.286 329,517C354.976,537.652 379.318,558.525 414,578C427.361,582.587 442.434,587.715 458,593L458,592C461.138,591.758 464.278,591.536 467.42,591.345C474.125,590.937 480.841,590.67 487.559,590.643C493.174,590.621 498.79,590.766 504.393,591.135C507.529,591.342 510.659,591.621 513.782,591.975L514,592L514,594L597,566L680,504C714.262,422.029 728.48,342.587 728,265C712.51,352.744 672.371,423.443 606,476C586.719,526.885 557.739,564.759 517.764,587.884C516.52,588.604 517.623,587.965 517.623,587.965C497.741,586.149 477.694,586.811 457.622,587.879C457.622,587.879 458,588 458,588C457.89,587.965 457.781,587.93 457.671,587.895L457.622,587.879C457.622,587.879 458,588 458,588ZM548,573L590,558L667,500C689.625,447.682 702.294,396.146 710,345L675,410C671.763,441.514 665.317,470.077 656,496C629.992,517.71 601.144,535.457 570,550L548,573ZM653,437L633,457C631.59,466 630.249,475 629,484L600,500L585,527C605.527,515.543 625.953,503.919 645,490C649.938,472.418 652.399,454.744 653,437Z" style="fill:white;"/>
    </g>
</svg>
