<?xml version="1.0" encoding="UTF-8" standalone="no"?>
<!DOCTYPE svg PUBLIC "-//W3C//DTD SVG 1.1//EN" "http://www.w3.org/Graphics/SVG/1.1/DTD/svg11.dtd">
<svg width="100%" height="100%" viewBox="0 0 1000 1000" version="1.1" xmlns="http://www.w3.org/2000/svg" xmlns:xlink="http://www.w3.org/1999/xlink" xml:space="preserve" xmlns:serif="http://www.serif.com/" style="fill-rule:evenodd;clip-rule:evenodd;stroke-linejoin:round;stroke-miterlimit:2;">
    <g transform="matrix(1.67936,0,0,1.67936,-385.677,-440.58)">
        <path d="M537.303,640.176C549.894,615.764 537.781,579.041 515,537C547.053,446.266 519.016,428.276 440,472C429.665,468.958 419.332,467.405 409,467C466.698,418.622 523.819,389.035 580,390C573.627,425.948 593.814,457.879 620,485.923C646.819,514.646 686.971,539.292 740,560C744.637,585.854 760.461,596.444 784.104,596.366C779.598,614.803 771.32,629.337 759.763,640.478C726.467,672.578 652.756,686.203 590,664.476C606.519,638.883 632.678,620.227 670.577,610.02C635.378,611.461 605.585,630.403 580,662.97C570.159,660.557 560.199,660.396 550,663L520,658C527.371,653.58 532.743,648.164 536.375,641.874C533.725,642.288 531.092,642.737 528.472,643.214C523.571,644.106 518.727,645.118 513.921,646.205C507.999,651.556 500.552,658.089 493.106,664.094C493.748,664.058 494.384,664.034 495.013,664.02C496.438,663.989 497.828,664.033 499.185,664.119C499.993,664.17 500.789,664.238 501.574,664.322C510.633,657.443 518.359,650.846 525.101,644.713C518.061,653.13 515.436,656.38 510,660C521.193,662.374 532.905,664.703 545,667C536.484,673.434 534.964,679.193 535.99,685C538.15,697.22 552.891,702.694 568,711C525.664,715.421 472.774,716.296 417,716.203C419.886,712.469 423.967,708.734 428,705C421.662,708.391 416.317,711.79 412.653,715.203C397.601,709.005 427.494,698.002 470,685.651C473.359,683.632 476.588,681.62 479.696,679.619C479.212,679.506 478.728,679.394 478.244,679.282C476.854,678.958 475.472,678.635 474.088,678.337C473.863,678.288 473.638,678.24 473.414,678.193C472.217,678.881 471.075,679.488 470,680C448.455,685.259 428.637,693.208 410,703C396.347,700.559 379.82,695.801 363.983,690.505C362.467,691.788 360.965,693.104 359.472,694.451C388.562,702.983 412.737,708.926 397,711C395.202,708.957 389.29,705.773 383,706C393.345,709.92 399.123,712.807 393,713C372.772,713.605 355.441,713.625 340.935,713.076C340.169,713.922 339.405,714.777 338.644,715.643C334.611,720.228 330.653,725.087 326.841,730.321C326.664,730.58 326.31,730.647 326.05,730.47C325.791,730.293 325.724,729.939 325.901,729.679C329.413,724.172 333.047,718.994 336.873,714.165C337.196,713.757 337.521,713.351 337.847,712.949C325.942,712.417 316.044,711.48 308.106,710.148C307.036,710.884 305.976,711.625 304.927,712.373C301.254,714.993 297.704,717.657 294.318,720.429C294.081,720.635 293.722,720.61 293.516,720.374C293.309,720.137 293.334,719.778 293.571,719.571C297.26,716.161 301.145,712.842 305.236,709.632C299.958,708.619 295.661,707.407 292.329,706C278.918,700.337 281.818,684.409 298.268,676.862C295.516,677.454 292.762,678.125 290.004,678.88C280.121,681.587 270.206,685.372 260.27,690.501C259.994,690.65 259.648,690.546 259.499,690.27C259.35,689.994 259.454,689.648 259.73,689.499C269.585,683.95 279.452,679.704 289.361,676.665C293.545,675.382 297.735,674.316 301.93,673.457C304.771,672.875 307.614,672.381 310.461,672C311.842,671.815 313.223,671.652 314.603,671.511C309.436,669.168 306.207,667.462 305.732,666.801L306,666.5C305.683,666.512 305.6,666.616 305.732,666.801L302,671C300.1,668.36 278.856,653.66 285,640C306.748,654.334 337.38,638.091 357,624.673C370.597,615.374 395.985,594.802 401.839,570C410.715,588.107 437.724,600.128 460,607.245C488.297,616.285 504.127,620.542 534.491,612.524C538.798,625.573 531.193,638.627 528.955,637.422C527.946,637.568 526,635 526,635C526,635 522.644,638.23 517.451,642.992C518.1,642.874 518.75,642.759 519.401,642.647C525.296,641.628 531.259,640.802 537.303,640.176ZM577.375,669.362C557.092,664.12 545.476,670.391 542.9,675.044C537.44,684.905 546.993,697.21 573.369,706.58C638.262,729.631 720.411,706.583 753.638,686.443C781.267,669.696 812.571,634.075 784.104,609.998C776.745,636.607 760.295,656.154 733.351,667.549C699.185,681.999 654.275,689.235 577.375,669.362ZM348.784,685.196C346.484,686.464 344.214,687.748 341.968,689.041C344.293,689.832 346.641,690.593 349,691.316C351.689,692.141 354.372,692.945 357.021,693.729C358.667,692.389 360.334,691.095 362.017,689.843C357.509,688.318 353.07,686.755 348.784,685.196ZM454.432,663.976C454.001,670.617 453.372,675.505 451.419,678.938C449.891,681.624 447.503,683.34 443.704,684.304C439.581,685.37 436.73,685.643 433.986,685.035C432.242,684.649 430.549,683.898 428.587,682.804C426.404,681.586 423.907,680.954 420.737,678.873C420.299,678.587 419.735,678.58 419.29,678.856C413.581,682.491 409.379,685.156 405.323,686.613C402.085,687.777 398.948,688.161 395.159,687.602C390.583,686.943 388.437,685.902 387.358,684.044C386.147,681.957 386.189,679.012 385.564,674.926C385.523,674.615 385.238,674.395 384.926,674.436C384.615,674.477 384.395,674.762 384.436,675.074C384.909,679.428 384.806,682.534 385.995,684.798C387.165,687.023 389.524,688.537 394.841,689.526C398.995,690.285 402.473,689.99 406.077,688.81C410.137,687.48 414.358,684.985 419.973,681.589C422.885,683.487 425.225,684.006 427.303,685.135C429.536,686.349 431.482,687.136 433.465,687.526C436.546,688.131 439.73,687.79 444.296,686.467C448.691,685.171 451.382,683.024 453.035,679.813C454.931,676.135 455.427,670.996 455.568,664.024C455.582,663.711 455.338,663.445 455.024,663.432C454.711,663.418 454.445,663.662 454.432,663.976ZM319.616,673.72C316.686,673.962 313.756,674.283 310.824,674.684C310.152,674.776 309.481,674.871 308.808,674.97C317.343,679.476 328.151,684.2 339.632,688.233C342.103,687.001 344.608,685.792 347.14,684.595C336.513,680.697 326.904,676.855 319.616,673.72ZM498.377,666.719C497.294,666.701 496.19,666.71 495.064,666.728C493.252,666.756 491.382,666.843 489.445,667.002C485.001,670.475 480.648,673.656 476.718,676.176C477.2,676.273 477.682,676.376 478.163,676.486C479.11,676.701 480.05,676.959 480.989,677.232C481.53,677.39 482.069,677.554 482.608,677.724C488.269,674.001 493.51,670.324 498.377,666.719ZM425,665C423.704,663.952 409.63,665.956 410,668C410.373,670.059 415.781,674.356 418,674C421.183,673.49 427.053,666.661 425,665ZM395.35,659.552C391.617,656.378 387.655,653.427 383.281,650.907C380.459,649.28 377.477,647.821 374.314,646.587C373.089,646.109 371.83,645.683 370.547,645.286C368.678,644.707 366.755,644.199 364.772,643.768C360.176,642.77 355.285,642.169 350.048,641.938C349.735,641.912 349.459,642.144 349.433,642.457C349.407,642.77 349.64,643.045 349.952,643.071C355.056,643.705 359.775,644.73 364.208,646.005C366.1,646.549 367.935,647.14 369.725,647.77C370.951,648.201 372.15,648.658 373.338,649.113C376.408,650.289 379.344,651.571 382.167,652.981C386.591,655.192 390.747,657.652 394.65,660.448C394.897,660.642 395.255,660.598 395.448,660.35C395.642,660.103 395.598,659.745 395.35,659.552ZM485.852,631.371C480.202,631.811 474.556,632.486 468.935,633.829C465.274,634.704 461.624,635.845 458.012,637.35C456.611,637.934 455.224,638.59 453.842,639.298C451.836,640.324 449.845,641.469 447.871,642.747C443.373,645.659 438.968,649.236 434.612,653.584C434.383,653.798 434.37,654.158 434.584,654.388C434.798,654.617 435.158,654.63 435.388,654.416C439.936,650.462 444.508,647.313 449.068,644.718C451.047,643.592 453.022,642.576 454.996,641.646C456.352,641.007 457.711,640.418 459.06,639.847C462.555,638.369 466.04,637.135 469.542,636.105C475,634.499 480.464,633.332 485.981,632.502C486.292,632.466 486.517,632.184 486.481,631.872C486.446,631.56 486.164,631.336 485.852,631.371ZM534.491,605C506.534,616.399 488.379,608.982 464.155,601.202C431.234,590.629 413.351,579.169 400,560C397.8,583.996 379.699,600.198 360,614.461C331.769,634.901 307.242,648.654 285,635C284.522,614.421 284.858,593.253 295,565C271.686,530.568 265.952,500.788 270.751,495C275.293,489.522 301.785,482.386 344.705,492.871C372.546,476.072 404.174,471.347 440,480C477.512,457.274 505.733,452.382 514.629,460C518.95,463.701 524.086,495.718 508.025,540C519.392,556.789 528.622,577.674 534.491,605ZM588.127,580C599.696,585.079 607.207,620.952 600,627.12C580.859,643.504 537.166,614.853 544.586,595.295C547.697,587.095 578.774,575.894 588.127,580ZM656.681,563.828C651.756,557.777 622.756,564.361 616.11,573.353C608.55,583.582 612.146,620.398 620,620C635.975,619.191 664.173,573.031 656.681,563.828ZM784.104,589.595C766.714,586.981 750.652,581.833 747.11,552.795C634.998,503.444 587.761,448.756 590,390C669.747,385.168 722.604,424.429 759.49,480C776.294,505.318 785.917,540.001 784.104,589.595ZM325,506C314.107,519.573 305.383,533.853 298,548.568C276.074,525.721 272.079,505.241 275.676,500C280.253,493.331 297.846,494.361 325,506ZM499,528.8C488.771,515.35 477.811,502.242 465,490C488.147,469.01 503.981,459.572 510,465.639C515.64,471.325 512.66,492.627 499,528.8Z" style="fill:white;"/>
    </g>
</svg>
