<?xml version="1.0" encoding="UTF-8" standalone="no"?>
<!DOCTYPE svg PUBLIC "-//W3C//DTD SVG 1.1//EN" "http://www.w3.org/Graphics/SVG/1.1/DTD/svg11.dtd">
<svg width="100%" height="100%" viewBox="0 0 1000 1000" version="1.1" xmlns="http://www.w3.org/2000/svg" xmlns:xlink="http://www.w3.org/1999/xlink" xml:space="preserve" xmlns:serif="http://www.serif.com/" style="fill-rule:evenodd;clip-rule:evenodd;stroke-linejoin:round;stroke-miterlimit:2;">
    <g transform="matrix(1.40639,0,0,1.40639,-441.203,55.6635)">
        <path d="M357.423,570.43C465.288,391.894 662.864,226.994 841.048,37.702L923.586,129.211C925.263,127.914 926.954,126.626 928.666,125.341L942.351,139C897.371,166.465 866.82,191.957 836.871,217.369C837.819,218.386 838.4,219.751 838.4,221.25C838.4,224.392 835.851,226.943 832.711,226.943C829.571,226.943 827.022,224.392 827.022,221.25C827.022,218.109 829.571,215.558 832.711,215.558C834.017,215.558 835.22,215.999 836.18,216.74C852.648,196.341 870.386,176.169 891.389,156.577C730.747,227.704 591.58,317.079 475.646,426.29C637.042,305.286 806.814,244.399 982.274,224.336L989.198,257.206C772.709,296.253 603.244,364.083 475.714,461.038C455.512,492.413 443.328,524.474 437.035,557.035C440.824,558.085 442.027,567.036 439.709,577.167C437.367,587.405 432.31,594.996 428.424,594.107C424.538,593.218 423.285,584.184 425.628,573.945C427.947,563.806 432.929,556.263 436.799,556.981C439.983,534.218 450.802,499.721 459.824,473.442C422.401,503.441 388.784,536.085 358.824,571.386C359.942,572.426 360.641,573.91 360.641,575.556C360.641,578.698 358.092,581.248 354.953,581.248C351.813,581.248 349.264,578.698 349.264,575.556C349.264,572.414 351.813,569.863 354.953,569.863C355.838,569.863 356.677,570.066 357.424,570.428L357.423,570.43C355.581,573.479 353.775,576.515 351.995,579.556L357.423,570.43ZM601.66,504.829C610.256,504.829 617.235,511.813 617.235,520.415C617.235,529.017 610.256,536.001 601.66,536.001C593.064,536.001 586.085,529.017 586.085,520.415C586.085,511.813 593.064,504.829 601.66,504.829ZM808.075,431.214C812.582,431.214 816.241,434.876 816.241,439.386C816.241,443.897 812.582,447.559 808.075,447.559C803.567,447.559 799.908,443.897 799.908,439.386C799.908,434.876 803.567,431.214 808.075,431.214ZM672.423,406.003C701.467,376.241 736.329,345.003 839.147,296.531L852.209,315.775C774.425,336.977 719.637,369.629 672.729,406.21C673.694,407.23 674.285,408.606 674.285,410.12C674.285,413.262 671.736,415.813 668.597,415.813C665.457,415.813 662.908,413.262 662.908,410.12C662.908,406.978 665.457,404.427 668.597,404.427C670.093,404.427 671.455,405.007 672.471,405.953L672.423,406.003C671.811,406.629 671.203,407.255 670.597,407.88L672.423,406.003ZM672.714,406.221C672.01,406.77 671.303,407.325 670.597,407.88L672.714,406.221L672.729,406.21L672.729,406.21L672.714,406.221ZM403.022,312.374C426.032,249.482 453.173,186.987 489.094,125.341L515.062,139C465.893,193.479 432.442,252.333 403.401,312.414C405.224,313.363 406.47,315.271 406.47,317.468C406.47,320.61 403.921,323.16 400.782,323.16C397.642,323.16 395.093,320.61 395.093,317.468C395.093,314.326 397.642,311.775 400.782,311.775C401.594,311.775 402.367,311.946 403.066,312.253L403.022,312.374C402.607,313.508 402.194,314.642 401.782,315.775L403.022,312.374ZM541.088,214.865C542.658,214.865 543.932,216.141 543.932,217.711C543.932,219.282 542.658,220.558 541.088,220.558C539.518,220.558 538.244,219.282 538.244,217.711C538.244,216.141 539.518,214.865 541.088,214.865ZM574.69,183.752C584.376,167.838 595.77,151.773 611.012,135.369L617.235,139C611.009,144.567 604.886,150.596 598.844,156.982C590.828,165.453 582.954,174.553 575.168,184.04C576.689,185.063 577.69,186.799 577.69,188.768C577.69,191.91 575.141,194.461 572.001,194.461C568.861,194.461 566.312,191.91 566.312,188.768C566.312,185.627 568.861,183.076 572.001,183.076C572.973,183.076 573.889,183.321 574.69,183.752Z" style="fill:white;"/>
    </g>
</svg>
