<?xml version="1.0" encoding="UTF-8" standalone="no"?>
<!DOCTYPE svg PUBLIC "-//W3C//DTD SVG 1.1//EN" "http://www.w3.org/Graphics/SVG/1.1/DTD/svg11.dtd">
<svg width="100%" height="100%" viewBox="0 0 1000 1000" version="1.1" xmlns="http://www.w3.org/2000/svg" xmlns:xlink="http://www.w3.org/1999/xlink" xml:space="preserve" xmlns:serif="http://www.serif.com/" style="fill-rule:evenodd;clip-rule:evenodd;stroke-linejoin:round;stroke-miterlimit:2;">
    <g transform="matrix(5.08475,0,0,5.08475,-2938.95,-3036.44)">
        <path d="M620,768.182L609,771C606.479,777.211 601.614,780.993 596,784C602.72,781.952 609.088,781.768 615,784L624,779C620.88,776.143 619.108,772.721 620,768.182ZM646.742,763.281C659.66,750.455 665.459,739.947 668,730.5C679.254,723.319 687.298,714.765 689,703.5C690.132,712.914 685.309,722.245 675,731.5C673.94,738.384 673.882,745.428 674,752.5C659.773,755.127 652.78,760.814 647.929,767.406C647.976,767.844 648,768.287 648,768.737C648,775.605 642.424,781.182 635.555,781.182C628.686,781.182 623.11,775.605 623.11,768.737C623.11,763.304 626.599,758.679 631.456,756.984C636.609,755.185 641.574,746.371 641,741L650.5,738C649.922,744.564 645.526,750.857 639.867,757.06C640.838,757.42 641.752,757.896 642.592,758.474C649.839,751.988 655.367,745.11 655.5,737L663,732.5C659.963,742.621 653.158,751.69 644.697,760.296C645.515,761.182 646.207,762.187 646.742,763.281ZM635.555,759.883C640.442,759.883 644.409,763.85 644.409,768.737C644.409,773.624 640.442,777.591 635.555,777.591C630.668,777.591 626.701,773.624 626.701,768.737C626.701,763.85 630.668,759.883 635.555,759.883ZM634.854,764C637.533,764 639.708,766.175 639.708,768.854C639.708,771.533 637.533,773.708 634.854,773.708C632.175,773.708 630,771.533 630,768.854C630,766.175 632.175,764 634.854,764ZM679,751C677.136,744.07 677.394,737.82 679,732C739.344,677.905 743.862,636.656 698,607C714.426,607.386 730.187,614.731 745,632C746.281,646.124 742.981,660.472 736,675C744.47,665.953 748.514,653.388 749,638L752,644C752.874,664.697 742.499,679.018 728,691C742.21,683.363 752.678,672.114 755,653C759.382,671.385 756.233,690.955 731,714C734.859,713.1 738.44,711.09 742,709C736.406,715.516 727.395,720.973 717,726C722.886,725.293 728.554,723.634 734,721C727.992,727.006 722.92,732.788 694,734C699.263,735.302 707.348,735.262 718,734C716.001,736.649 712.234,739.19 707,741.641C700.029,744.905 689.51,747.446 679,751Z" style="fill:white;"/>
    </g>
</svg>
