<?xml version="1.0" encoding="UTF-8" standalone="no"?>
<!DOCTYPE svg PUBLIC "-//W3C//DTD SVG 1.1//EN" "http://www.w3.org/Graphics/SVG/1.1/DTD/svg11.dtd">
<svg width="100%" height="100%" viewBox="0 0 1000 1000" version="1.1" xmlns="http://www.w3.org/2000/svg" xmlns:xlink="http://www.w3.org/1999/xlink" xml:space="preserve" xmlns:serif="http://www.serif.com/" style="fill-rule:evenodd;clip-rule:evenodd;stroke-linejoin:round;stroke-miterlimit:2;">
    <g transform="matrix(2.21894,0,0,2.21894,-1217.81,-297.672)">
        <path d="M603,490C633.492,480.016 663.971,471.004 695,469.911C735.462,468.485 773.651,473.077 805,477.886C832.165,482.054 851.079,475.898 860,470C854.292,462.705 838.149,457.336 818,452.706C803.774,448.052 789.433,442.061 775,435C745.78,421.039 718.818,419.424 695,435C658.546,456.13 640.611,461.234 630,460C616.161,469.525 606.516,479.461 603,490ZM888,420C889.264,449.005 884.137,464.65 876,474C891.949,485.81 913.922,485.316 931,480.008C946.326,475.245 955.019,466.047 957,450.228C938.575,438.895 918.945,428.523 897,420L896,423.505C893.43,421.85 890.758,420.708 888,420ZM616,468C611.59,471.514 607.646,475.959 604,481C587.467,470.937 581.24,453.85 582,432C587.85,427.664 593.768,423.634 600,421C601.447,427.547 604.08,433.59 608,437C607.343,452.487 610.337,462.313 616,468ZM895,420C891.276,418.915 888.387,417.16 886,415L886,412C884.526,411.369 883.176,410.706 882,410C860.969,468.681 812.459,449.445 754,402C741.459,391.023 738.704,380.02 742,369L742,354C742.346,343.889 745.928,335.467 759,332L759,329L745,329C741.385,330.968 737.287,332.14 733,333L729,333C725.415,332.956 722.142,332.14 719,331L707,331L707,335C722.141,336.063 725.668,348.031 726,363L726,380C725.46,395.049 719.933,406.704 708,414C669.227,443.758 636.021,460.766 618,443C610.747,434.922 605.29,426.293 602,417C601.298,417.923 600.145,418.663 598,419C592.737,421.449 586.943,425.5 581,430L581,410C586.667,403.818 592.333,398.485 598,394L600,388C597.452,336.451 648.709,327.346 706,323L706,326L718,326C721.36,322.95 724.94,320.65 729,320L735,320C738.596,320.862 741.367,321.377 744,323L758,324L759,321C845.453,319.258 884.712,341.486 886,383C887.213,383.628 888.227,384.293 889,385L891,383C895.757,385.173 899.648,387.443 901,390C923.872,402.335 943.223,416.133 960,431L957,447C939.647,436.578 920.177,426.456 896,417L895,420ZM893,381C896.652,382.753 900.059,384.952 903,388C930.608,402.667 948.169,416.912 962,431C969.018,424.096 975.798,409.259 976.673,390C978.886,341.274 968.328,276.79 936.284,260C916.768,249.775 894.384,236.162 860,230.912C842.717,228.274 822.737,228.028 798,237C823.258,240.39 848.304,245.924 873,255C881.37,258.175 888.731,265.788 893,287C903.558,337.093 897.851,358.286 893,381ZM717,355L717,383C716.51,393.395 708.43,403.969 681,415L664,421C634.783,433.489 610.208,437.843 608,403L609,376C609.596,365.511 616.344,356.112 636,349C654.52,342.994 674.965,338.279 708,342C716.023,342.227 717.477,347.766 717,355ZM749,349L748,372C747.977,387.677 753.494,393.591 761,396C780.874,407.128 802.402,417.557 831,425C848.717,427.343 857.341,422.285 862,414L865,407C872.384,379.703 870.54,360.636 857,352C830.077,338.616 802.269,334.815 774,336C762.472,337.95 750.129,339.292 749,349ZM735.456,418.059C728.985,418.708 722.502,419.656 716,421C719.04,408.906 723.198,397.698 728,387C724.593,397.546 721.341,408.17 718.5,419C723.99,418.117 729.479,417.708 734.968,417.562C734.215,407.195 734.57,398.223 737,390C744.286,400.665 748.306,410.54 749.081,420C746.739,419.717 743.504,419.099 735.456,418.059ZM596,393C589.816,397.99 584.186,403.348 579,409C568.802,366.587 570.448,332.504 574.53,305C583.352,245.555 638.648,223.739 692.803,230C696.197,230.392 698.944,233.491 702,236C669.406,242.001 639.059,253.858 620,265C607.136,272.52 602.34,317.503 598.969,359L596,393ZM892,370C889.058,325.915 821.302,306.409 748,308.457C671.66,310.59 613.166,323.484 604,350C602.833,328.346 607.285,307.884 613.077,290C614.413,285.875 617.915,272.253 620,270.872C656.59,246.631 701.201,238.927 700,240L705,236C738.627,231.264 767.807,231.433 793,236L799,240C822.782,243.971 841.46,248.629 856,253.91C863.811,256.748 872.352,257.67 876,262.952C879.383,267.851 882.517,272.752 884.475,278C900.313,320.441 892.455,355.443 892,370Z" style="fill:white;"/>
    </g>
</svg>
