<?xml version="1.0" encoding="UTF-8" standalone="no"?>
<!DOCTYPE svg PUBLIC "-//W3C//DTD SVG 1.1//EN" "http://www.w3.org/Graphics/SVG/1.1/DTD/svg11.dtd">
<svg width="100%" height="100%" viewBox="0 0 1000 1000" version="1.1" xmlns="http://www.w3.org/2000/svg" xmlns:xlink="http://www.w3.org/1999/xlink" xml:space="preserve" xmlns:serif="http://www.serif.com/" style="fill-rule:evenodd;clip-rule:evenodd;stroke-linejoin:round;stroke-miterlimit:2;">
    <g transform="matrix(1.38807,0,0,1.38807,-194.034,-180.391)">
        <path d="M500,455.789L377.931,333.72C365.751,321.54 345.975,321.54 333.795,333.72L333.72,333.795C321.54,345.975 321.54,365.751 333.72,377.931L455.789,500L333.72,622.069C321.54,634.249 321.54,654.025 333.72,666.205L333.795,666.28C345.975,678.46 365.751,678.46 377.931,666.28L500,544.211L622.069,666.28C634.249,678.46 654.025,678.46 666.205,666.28L666.28,666.205C678.46,654.025 678.46,634.249 666.28,622.069L544.211,500L666.28,377.931C678.46,365.751 678.46,345.975 666.28,333.795L666.205,333.72C654.025,321.54 634.249,321.54 622.069,333.72L500,455.789ZM230.073,323.865C241.497,301.006 264.345,301.006 275.769,312.436C287.193,323.865 287.193,346.725 275.769,369.584C267.772,386.729 247.209,403.873 230.073,415.303C212.936,403.873 192.373,386.729 184.376,369.584C172.952,346.725 172.952,323.865 184.376,312.436C195.8,301.006 218.649,301.006 230.073,323.865ZM769.927,323.865C758.503,301.006 735.655,301.006 724.231,312.436C712.807,323.865 712.807,346.725 724.231,369.584C732.228,386.729 752.791,403.873 769.927,415.303C787.064,403.873 807.627,386.729 815.624,369.584C827.048,346.725 827.048,323.865 815.624,312.436C804.2,301.006 781.351,301.006 769.927,323.865Z" style="fill:white;"/>
    </g>
</svg>
