<?xml version="1.0" encoding="UTF-8" standalone="no"?>
<!DOCTYPE svg PUBLIC "-//W3C//DTD SVG 1.1//EN" "http://www.w3.org/Graphics/SVG/1.1/DTD/svg11.dtd">
<svg width="100%" height="100%" viewBox="0 0 1000 1000" version="1.1" xmlns="http://www.w3.org/2000/svg" xmlns:xlink="http://www.w3.org/1999/xlink" xml:space="preserve" xmlns:serif="http://www.serif.com/" style="fill-rule:evenodd;clip-rule:evenodd;stroke-linejoin:round;stroke-miterlimit:2;">
    <g transform="matrix(2.54722,0,0,2.54722,-786.345,-735.239)">
        <path d="M505,642.724C507.5,645.283 506.967,658.424 505,660C497.151,666.288 485.498,652.546 490,644.644C491.425,642.142 502.5,640.164 505,642.724ZM537.827,641.124C535.327,643.683 535.86,656.824 537.827,658.4C545.676,664.688 557.33,650.947 552.827,643.044C551.402,640.542 540.327,638.565 537.827,641.124ZM506,637C506.841,636.458 506.984,640.177 506,640C503.153,639.488 492.528,639.722 490,640C489.006,640.109 489.112,636.541 490,637C493.13,638.617 503.76,638.444 506,637ZM536.827,635.4C535.987,634.858 535.843,638.577 536.827,638.4C539.674,637.888 550.299,638.122 552.827,638.4C553.821,638.509 553.716,634.941 552.827,635.4C549.697,637.017 539.068,636.844 536.827,635.4ZM507.945,596.067C502.945,590.562 484.002,594.344 480,600C475.998,605.656 478.933,624.496 483.933,630C488.933,635.504 505.998,638.682 510,633.027C514.002,627.371 512.945,601.571 507.945,596.067ZM534.882,596.467C538.861,597.815 557.447,602.561 562.827,600.4C569.257,597.819 563.894,622.896 558.894,628.4C553.894,633.905 536.829,637.082 532.827,631.427C528.825,625.771 527.839,594.081 534.882,596.467ZM577,482C532.259,504.478 493.839,503.564 461,482C461,482 406.833,527 400,539C395.876,546.242 413.047,558.594 420,554C429.333,547.833 455,500.667 456,502C457,503.333 429.278,547.168 426,562C422.89,576.073 430.624,591.158 451,593C463.577,594.137 484.333,591.333 496,591C504.33,590.762 513.066,588.451 521,591C535.178,595.555 569.555,599.653 584,591C610.195,575.309 610.011,562.546 595,548C584.518,537.843 572.5,503.333 574,504C575.5,504.667 598.641,543.195 604,552C610.539,562.745 627.847,556.347 624,543C620.52,530.926 577,482 577,482ZM473,437C490.476,432.037 505.518,424.494 514,410C516.206,414.074 514.857,426.784 513,443C542.23,425.699 554.532,407.677 561,389C576.642,407.569 585.416,423.42 595,439L598,432C598.488,440.726 597.752,445.497 596.932,450C580.703,482.918 551.742,491.805 520,493.686C482.327,495.919 457.37,482.451 442,449C440.984,442.954 440.712,437.429 442,433C445.349,431.72 448.457,430.342 451.343,428.875C455.826,464.389 471.238,477.056 499.991,461.83C501.827,455.247 503.118,448.826 502.991,442.83L479.5,435.15L473,437ZM585,429L533,446C532.873,451.997 534.165,458.417 536,465C565.561,480.654 581.02,466.826 585,429ZM573,435L543,445C547.707,457.783 552.298,462.678 557,462.284C568.99,461.279 575.201,451.656 573,435ZM462.991,431.83L471.5,434.666L471,439L478,436.833L492.991,441.83C488.284,454.612 483.693,459.508 478.991,459.114C467.002,458.109 460.79,448.486 462.991,431.83ZM595.199,406.553C596.515,415.941 597.512,425.35 595,435C585.485,415.777 572.888,400.215 560,385C552.246,408.033 535.602,425.3 515,440C518.092,427.842 520.042,415.865 515,405C505.219,421.092 490.651,428.975 475,435C483.306,421.38 487.134,406.517 485,390C467.111,426.491 432.02,437.192 395,445C406.602,427.109 415.493,410.234 420,395C417.408,401.209 413.367,406.69 405,410C387.602,403.751 382.534,394.028 375,385C398.626,377.735 416.918,369.394 430,360C410.545,345.792 406.232,332.619 410,320C434.255,328.731 451.785,331.333 465,330C460.795,323.427 457.803,316.809 460,310C473.854,310.123 496.551,309.521 535,308.301C566.321,307.307 594.328,333.217 620,370C619.2,373.047 617.443,374.571 615,375C628.465,392.584 633.251,408.997 635,425L625,425L620,450L610,435C609.536,443.139 605.512,449.451 600,455C600.815,435.638 598.267,420.75 595.199,406.553ZM454.735,427.054C469.294,418.794 477.719,408.037 483,396C484.064,408.99 478.881,422.342 473.519,435.707L473,437L474,433.352L454.735,427.054Z" style="fill:white;"/>
    </g>
</svg>
