<?xml version="1.0" encoding="UTF-8" standalone="no"?>
<!DOCTYPE svg PUBLIC "-//W3C//DTD SVG 1.1//EN" "http://www.w3.org/Graphics/SVG/1.1/DTD/svg11.dtd">
<svg width="100%" height="100%" viewBox="0 0 1000 1000" version="1.1" xmlns="http://www.w3.org/2000/svg" xmlns:xlink="http://www.w3.org/1999/xlink" xml:space="preserve" xmlns:serif="http://www.serif.com/" style="fill-rule:evenodd;clip-rule:evenodd;stroke-linejoin:round;stroke-miterlimit:2;">
    <g transform="matrix(0.915522,0,0,0.915522,43.1545,39.48)">
        <path d="M864.44,462.302C872.25,487.215 877.037,511.45 879.215,534.717C966.767,529.144 1001.02,546.612 987.764,550.912C985.682,551.588 953.226,551.59 880.604,561.73C880.786,582.809 878.818,602.943 875.045,621.901C945.655,628.335 958.964,638.03 959,643.968C959.099,660.471 935.025,645.532 870.5,641.128C865.485,659.376 858.755,676.352 850.666,691.809C849.45,694.132 848.195,696.422 846.906,698.669C923.973,728.972 923.481,737.147 932.927,750.267C940.029,760.13 914.334,753.178 831.151,722.114C770.419,799.921 653.081,831.13 499,833L497.196,832.977C344.005,830.886 227.344,799.617 166.849,722.114C83.666,753.178 57.971,760.13 65.073,750.267C74.519,737.147 74.027,728.972 151.094,698.669C149.805,696.422 148.55,694.132 147.334,691.809C139.245,676.352 132.515,659.376 127.5,641.128C62.975,645.532 38.901,660.471 39,643.968C39.036,638.03 52.345,628.335 122.955,621.901C119.182,602.943 117.214,582.809 117.396,561.73C44.774,551.59 12.318,551.588 10.236,550.912C-3.021,546.612 31.233,529.144 118.785,534.717C122.744,492.436 135.314,446.96 159,400C123.915,326.282 137.129,227.572 179.036,180C195.269,161.573 252.561,179.032 339,240C382.292,224.646 437.748,219.813 499,219.997C507.385,219.972 515.662,220.041 523.82,220.218C484.144,288.138 478.159,347.278 522.058,390C542.645,410.034 578.647,413.107 639,390C661.636,420.219 691.527,436.426 725,420C756.049,485.996 798.109,512.963 864.44,462.302ZM499.233,690.169C525.352,693.465 536.58,676.386 539.865,670C545.1,659.824 527.549,636.718 499.315,639.837L499.315,639.91L499,639.873L498.685,639.91L498.685,639.837C470.451,636.718 452.9,659.824 458.135,670C461.42,676.386 472.648,693.465 498.767,690.169L498.767,690.108L499,690.139L499.233,690.108L499.233,690.169ZM692.536,565C708.797,565 722,581.803 722,602.5C722,623.197 708.797,640 692.536,640C676.274,640 663.071,623.197 663.071,602.5C663.071,581.803 676.274,565 692.536,565ZM305.464,565C289.203,565 276,581.803 276,602.5C276,623.197 289.203,640 305.464,640C321.726,640 334.929,623.197 334.929,602.5C334.929,581.803 321.726,565 305.464,565ZM749,415C799.941,515.466 843.136,449.18 872,415C913.094,366.337 909.011,273.109 782,314C798.906,343.359 777.86,403.512 749,415ZM705.628,285C739.641,285 767.256,312.615 767.256,346.628C767.256,380.641 739.641,408.256 705.628,408.256C671.615,408.256 644,380.641 644,346.628C644,312.615 671.615,285 705.628,285ZM685,260C637.102,129.379 566.965,181.261 536.22,240C502.759,303.924 492.203,415.564 625,373C614.641,321.932 635.661,284.716 685,260ZM691.579,218.176C759.807,175.058 804.867,163.998 818.964,180C840.148,204.048 854,241.163 857.986,281.5C831.161,282.512 801.913,287.047 771,294C753.884,276.458 733.094,267.148 710,263L691.579,218.176Z" style="fill:white;"/>
    </g>
</svg>
