<?xml version="1.0" encoding="UTF-8" standalone="no"?>
<!DOCTYPE svg PUBLIC "-//W3C//DTD SVG 1.1//EN" "http://www.w3.org/Graphics/SVG/1.1/DTD/svg11.dtd">
<svg width="100%" height="100%" viewBox="0 0 1000 1000" version="1.1" xmlns="http://www.w3.org/2000/svg" xmlns:xlink="http://www.w3.org/1999/xlink" xml:space="preserve" xmlns:serif="http://www.serif.com/" style="fill-rule:evenodd;clip-rule:evenodd;stroke-linejoin:round;stroke-miterlimit:2;">
    <g transform="matrix(4.24528,0,0,4.24528,-1346.7,-1707.55)">
        <path d="M435,486L463,414L417,487L380,495L411,497C410.724,502.379 407.106,504.809 403,507L337,516C371.333,519.333 405.667,522.667 440,526L435,535L368,538L432,545L404,626L447,547L484,536L456,536L463,525L533,515L427,507C428.136,504.468 429.902,500.568 432,499L505,494L435,486Z" style="fill:white;"/>
    </g>
</svg>
