<?xml version="1.0" encoding="UTF-8" standalone="no"?>
<!DOCTYPE svg PUBLIC "-//W3C//DTD SVG 1.1//EN" "http://www.w3.org/Graphics/SVG/1.1/DTD/svg11.dtd">
<svg width="100%" height="100%" viewBox="0 0 1000 1000" version="1.1" xmlns="http://www.w3.org/2000/svg" xmlns:xlink="http://www.w3.org/1999/xlink" xml:space="preserve" xmlns:serif="http://www.serif.com/" style="fill-rule:evenodd;clip-rule:evenodd;stroke-linejoin:round;stroke-miterlimit:2;">
    <g transform="matrix(8.06155,0,0,8.06155,-2895.36,-1136.49)">
        <path d="M389.487,227.421L387.881,230.74L389.223,239.265L380.673,238.089L372.98,242L371.456,233.505L365.359,227.397L372.967,223.323L376.892,215.637L383.118,221.614L386.917,222.219L389.535,226.947L389.487,227.421ZM398.105,215.184L401.203,220.508L406.785,223.113L402.679,227.704L401.927,233.818L396.291,231.332L390.244,232.505L390.867,226.378L387.882,220.989L393.902,219.688L398.105,215.184ZM404.052,185.24L404.116,185.103C405.197,183.264 407.042,180.978 405.296,179.603C403.113,177.882 405.824,174.047 407.116,174.603C406.029,172.412 407.255,169.54 409.116,168.603C408.33,168.17 408.901,164.06 411.116,164.103C427.311,163.106 435.669,169.48 440.616,178.103C441.634,179.639 441.451,180.8 439.512,181.414C436.426,182.097 438.607,183.459 438.616,184.103C439.3,185.42 438.297,186.731 436.116,187.343C434.748,187.727 434.913,189.605 436.306,190.285L471.116,207.103C476.486,209.573 478.339,211.014 476.016,216.997L476.073,217.022C475.937,217.316 475.799,217.608 475.659,217.899L475.582,218.057C475.438,218.392 475.282,218.741 475.116,219.103L475.06,219.076C472.029,224.734 469.729,224.265 464.358,221.795L428.936,206.309C427.513,205.694 425.98,206.79 426.578,208.079C427.533,210.134 427.19,211.748 425.745,212.086C425.25,212.498 422.797,211.728 424.287,214.516C425.083,216.388 424.32,217.283 422.491,217.509C412.725,219.365 402.446,217.167 392.663,204.222C391.19,202.568 393.938,199.459 394.778,199.775C394.28,197.752 395.662,194.952 398.032,194.351C396.77,193.732 397.917,189.178 400.645,189.716C402.825,190.146 403.36,187.258 404.052,185.24ZM473.061,213.58C473.294,213.074 473.071,212.474 472.565,212.242L431.167,193.233C430.661,193.001 430.061,193.223 429.828,193.729L427.332,199.165C427.1,199.671 427.322,200.271 427.829,200.504L469.227,219.512C469.733,219.744 470.333,219.522 470.565,219.016L473.061,213.58ZM424.828,191.434C425.061,190.927 424.838,190.328 424.332,190.095L409.829,183.436C409.322,183.203 408.723,183.426 408.49,183.932L405.994,189.367C405.762,189.874 405.984,190.473 406.49,190.706L420.994,197.365C421.5,197.598 422.1,197.376 422.332,196.869L424.828,191.434Z" style="fill:white;"/>
    </g>
</svg>
