<?xml version="1.0" encoding="UTF-8" standalone="no"?>
<!DOCTYPE svg PUBLIC "-//W3C//DTD SVG 1.1//EN" "http://www.w3.org/Graphics/SVG/1.1/DTD/svg11.dtd">
<svg width="100%" height="100%" viewBox="0 0 1000 1000" version="1.1" xmlns="http://www.w3.org/2000/svg" xmlns:xlink="http://www.w3.org/1999/xlink" xml:space="preserve" xmlns:serif="http://www.serif.com/" style="fill-rule:evenodd;clip-rule:evenodd;stroke-linejoin:round;stroke-miterlimit:2;">
    <g transform="matrix(5.07248,0,0,5.07248,-2755.8,-2353.63)">
        <path d="M595.728,651.286C601.128,645.631 599.249,635.654 584.085,621.254C561.25,599.569 566.825,567.852 578.5,557.853C586.73,550.805 596.648,547.708 610.503,557.853C642.905,532.575 660.611,538.259 669.57,561.19C685.565,602.125 648.084,635.872 595.728,651.286ZM691.548,527.616C697.067,518.443 702.603,519.821 704.794,520.113C713.211,521.232 726.783,538.129 697.37,559.442L700.657,552.869C701.032,552.119 700.921,551.217 700.375,550.581L695.857,545.309C695.857,545.309 701.005,541.632 701.005,541.632C701.659,541.165 701.986,540.362 701.844,539.57C701.703,538.778 701.118,538.139 700.342,537.927L690.994,535.377L691.548,527.616ZM693.022,558.822C690.977,556.649 689.012,554.555 686.794,553.05C679.201,547.901 674.224,542.286 677.791,533.437C678.739,531.086 680.262,527.679 687.318,528.358L686.716,536.788C686.645,537.781 687.286,538.685 688.246,538.947L695.012,540.792C695.012,540.792 691.583,543.242 691.583,543.242C691.107,543.581 690.796,544.105 690.726,544.685C690.655,545.266 690.832,545.849 691.212,546.293L696.312,552.242L693.022,558.822ZM655.815,526.208C655.035,523.983 654.476,521.754 653.42,519.966C650.714,515.386 649.495,511.21 653.556,507.453C654.793,506.309 656.771,504.624 661.488,508.313C667.139,504.171 669.887,506.426 671.013,507.153C675.251,509.89 678.225,522.65 655.815,526.208ZM687.266,497.539C686.231,495.094 685.444,492.63 684.129,490.697C680.761,485.744 679.092,481.138 683.387,476.627C684.695,475.253 686.798,473.217 692.361,477.026C698.415,471.967 701.665,474.305 702.981,475.041C707.939,477.813 712.194,491.939 687.266,497.539Z" style="fill:white;"/>
    </g>
</svg>
