<?xml version="1.0" encoding="UTF-8" standalone="no"?>
<!DOCTYPE svg PUBLIC "-//W3C//DTD SVG 1.1//EN" "http://www.w3.org/Graphics/SVG/1.1/DTD/svg11.dtd">
<svg width="100%" height="100%" viewBox="0 0 1000 1000" version="1.1" xmlns="http://www.w3.org/2000/svg" xmlns:xlink="http://www.w3.org/1999/xlink" xml:space="preserve" xmlns:serif="http://www.serif.com/" style="fill-rule:evenodd;clip-rule:evenodd;stroke-linejoin:round;stroke-miterlimit:2;">
    <g transform="matrix(15.3078,0,0,15.3078,-7687.85,-8992.4)">
        <path d="M544.005,636.501C544.349,636.573 544.5,637.351 544.5,637.351C551.721,637.963 551.807,643.371 549.937,646.5C547.394,650.756 531.219,654.597 521.916,627.213C522.04,630.103 522.584,632.802 524,635.5C525.373,638.117 523.246,642.373 520.431,642.425C514.144,642.542 510.954,619.693 517.37,616.5C519.585,615.398 521.083,614.468 520,611C519.06,609.812 518.313,606.121 518,605.5C517.338,604.186 508.705,604.108 511.86,597C513.61,593.059 518.168,594.161 520,595C523.192,592.043 528.468,590.423 533,592C534.016,589.909 536.744,590.679 538,592C539.771,593.863 540.374,595.879 538.5,597.5C538.587,598.689 538.566,599.851 538.5,601C539.46,602.544 539.986,602.963 540.029,605C540.082,607.521 539.546,607.917 538.5,609C537.972,611.052 536.879,612.443 535.5,613.5C545.725,615.785 551.763,618.044 550.5,623C549.792,623.93 547.145,623.813 545.5,623.5C543.75,623.167 540,621 540,621C540,621 543.119,622.887 544.5,623.5C545.515,623.951 548.285,624.679 548.285,624.679C553.772,624.241 556.672,624.589 557.5,625.566C559.033,627.376 561.57,640.007 544.056,636.511L544.005,636.501ZM534.67,606.382C535.401,605.769 535.598,604.116 535,603.5C534.178,602.653 532.133,603.788 532,604.5C531.825,605.438 533.289,606.72 534.226,606.59C534.203,606.63 534.179,606.669 534.155,606.707C534.096,606.802 534.032,606.891 533.965,606.974C533.744,607.244 533.479,607.443 533.184,607.565C532.652,607.786 532.047,607.777 531.5,607.5C531.865,607.769 532.285,607.906 532.709,607.915C532.901,607.919 533.092,607.894 533.279,607.844C533.644,607.744 533.987,607.542 534.269,607.24C534.357,607.147 534.436,607.043 534.508,606.929C534.532,606.89 534.556,606.85 534.578,606.808C534.695,606.88 534.818,606.935 534.947,606.972C535.261,607.061 535.597,607.059 535.907,606.978C536.472,606.829 536.942,606.445 537,606C536.878,606.396 536.397,606.672 535.861,606.73C535.681,606.75 535.497,606.741 535.317,606.706C535.08,606.659 534.854,606.557 534.67,606.382ZM526.677,603.332C526.311,602.781 526.619,602.192 527,602C527.864,601.565 528.555,602.745 528,603.311C527.74,603.576 527.028,603.861 526.677,603.332ZM537.164,599.82C537.169,600.1 536.778,600.412 536.5,600.5C535.587,600.79 535.073,599.204 536.292,599C536.555,598.956 537.156,599.291 537.164,599.82Z" style="fill:white;"/>
    </g>
</svg>
