<?xml version="1.0" encoding="UTF-8" standalone="no"?>
<!DOCTYPE svg PUBLIC "-//W3C//DTD SVG 1.1//EN" "http://www.w3.org/Graphics/SVG/1.1/DTD/svg11.dtd">
<svg width="100%" height="100%" viewBox="0 0 1000 1000" version="1.1" xmlns="http://www.w3.org/2000/svg" xmlns:xlink="http://www.w3.org/1999/xlink" xml:space="preserve" xmlns:serif="http://www.serif.com/" style="fill-rule:evenodd;clip-rule:evenodd;stroke-linejoin:round;stroke-miterlimit:2;">
    <g transform="matrix(1.38802,0,0,1.38802,-194.01,-173.884)">
        <path d="M499.744,679.999C488.906,679.933 477.864,675.693 474.856,670C473.853,668.102 473.019,657.431 466.475,649C459.906,640.536 458.179,625.724 461.733,619C464.786,613.224 461.07,601.692 455,592.834C451.432,587.628 451.047,582.399 449.973,578C448.238,570.893 441.832,564.257 442.307,557C443.12,544.597 438.615,532.033 438.832,530C437.482,530.793 435.846,532.912 434,536C432.826,533.169 431.449,530.547 430,528C426.794,531.447 424.816,537.549 423,544C416.926,535.922 413.277,527.754 418.246,523C422.256,519.164 421.809,514.508 421,511C418.985,512.719 417.307,515.356 416,519C414.934,516.865 414.081,514.625 414,512C406.77,515.301 403.694,518.631 406,522C403.903,523.639 402.399,526.224 401,529C396.073,517.548 397.272,507.755 406,500C401.083,488.02 403.654,482.094 407.964,479C409.753,477.716 410.722,475.622 412,474C409.782,464.472 412.118,456.953 418,451C418.592,448.64 418.052,446.444 416.552,444.387L411,444L411,449C400.084,459.269 390.642,470.998 379.51,481C349.64,507.839 323.625,536.405 317,562C303.207,568.331 302.038,576.61 300,586.245C298.065,595.393 292.901,602.036 290,608.801C282.379,626.574 266.087,629.562 262,626C262.771,628.059 246.73,639.106 237,640.063C224.82,641.26 211.304,651.472 198,662C194.766,661.56 193.548,660.173 194,658C194,658 204.148,638.644 212.952,633C225.728,624.81 243.654,597.151 241,596L180,640C176.488,638.596 175.27,636.213 176,633C191.013,618.11 203.503,607.537 214.075,600C224.521,592.552 230.858,580.853 238,574.383C243.594,569.315 244.436,562.937 241,559C235.508,558.608 230.963,559.794 227,560.215C221.069,560.843 217.519,564.968 217,573.144C216.715,577.627 209.573,578.219 206,581L201,588C196.859,593.266 189.337,588.597 194,583C198.476,574.546 204.253,568.218 205.084,558C205.93,547.604 215.42,546.219 228,538.549C241.679,530.209 260.558,532.686 277,537C282.2,532.214 288.2,529.881 295,530C298.309,532.316 338.882,497.518 346.816,477.609C353.454,460.95 384.339,438.901 385,439C386.583,435.599 389.437,432.277 393,429C392.626,428 392.303,427 392,426L396,421L393,421L395.443,420.511C394.87,420.007 394.308,419.504 393.756,419L392,419L392.842,418.158C392.426,417.772 392.016,417.386 391.613,417L390,417L390,415.426L389.574,415L387,415L387.875,413.25L387.64,413L384,413L385.9,411.1L385.811,411L382,411L384.049,408.951L383.638,408.454L382,409L382,406.383C381.392,405.586 380.812,404.792 380.26,404L378,404L379.124,402.314C378.839,401.875 378.562,401.437 378.294,401L378,401L378.132,400.735C377.865,400.293 377.606,399.852 377.356,399.411L375,400L376.142,397.146C375.78,396.428 375.443,395.713 375.128,395L373,395L374.615,393.789C374.372,393.191 374.146,392.595 373.936,392L372,392L373.454,390.546C373.293,390.03 373.145,389.514 373.01,389L372,389L372.895,388.553C372.765,388.035 372.647,387.517 372.542,387L370,387L372.364,386.055C372.302,385.702 372.246,385.351 372.196,385L372,385L372.154,384.693C372.079,384.127 372.018,383.563 371.973,383L371,383L371.892,381.662C371.87,381.105 371.863,380.552 371.87,380L370,380L371.888,379.245C371.904,378.829 371.927,378.414 371.958,378L371,378L372.132,376.302C372.189,375.868 372.254,375.433 372.329,375L370,375L372.751,372.937L372.839,372.574L372.989,372L370,372L373.165,371.367C373.273,370.994 373.387,370.624 373.507,370.254L371,369L373.932,369C374.219,368.169 374.525,367.323 374.85,366.463L373,366L375.243,365.439L375.415,365L374,365L375.77,364.115L376.192,363.09L376.399,362.6L374,362L376.981,361.255L377.185,360.796L374,360L377.544,360L377.919,359.189L375,357L378.972,357C379.193,356.553 379.42,356.103 379.651,355.651L378,354L380.517,354C380.732,353.596 380.953,353.191 381.177,352.785L377,350L382.766,350C382.976,349.645 383.188,349.291 383.403,348.936L382,348L383.713,348.428C383.929,348.076 384.148,347.723 384.371,347.371L382,345L385.451,345.69C385.766,345.21 386.087,344.728 386.415,344.245L386,343L386.752,343.752C387.289,342.971 387.841,342.19 388.409,341.409L387,340L389.451,340C389.723,339.639 389.999,339.277 390.278,338.917L389,337L391.204,337.735C391.467,337.404 391.732,337.075 392,336.746L392,335L393.134,335.378L393.949,334.423L393,333L394.623,333.649C395.128,333.077 395.641,332.506 396.163,331.938L395,330L397.412,330.603C397.807,330.189 398.205,329.776 398.609,329.366L398,329L399.293,328.677C399.9,328.071 400.52,327.467 401.151,326.867L399,324L402.399,325.7C402.599,325.516 402.799,325.333 403,325.15L403,324L403.936,324.312C404.446,323.86 404.965,323.41 405.491,322.963L405,321L406.775,321.887C407.68,321.142 408.608,320.402 409.557,319.672L409,318L411.789,318C412.503,317.48 413.23,316.963 413.968,316.452L413,315L415.568,315.367C416.442,314.785 417.331,314.212 418.235,313.647L417,312L419.538,312.846C420.515,312.254 421.507,311.674 422.518,311.105L422,308L425.59,309.436L426.486,308.972L426,308L427.302,308.558C428.405,308.004 429.53,307.461 430.675,306.931L429,304L433.2,305.8C433.798,305.54 434.404,305.283 435.015,305.029L434,303L436.695,304.347L437.518,304.023L438,303.837L438,302L439.334,303.334C439.743,303.182 440.148,303.034 440.556,302.888L442,300L442.712,302.135C443.349,301.919 443.993,301.707 444.643,301.498L445,299L447.253,300.689L448.317,300.376L449,300.181L449,298L449.957,299.913C451.608,299.459 453.287,299.029 455,298.626L455,297L456.58,298.264C457.705,298.012 458.846,297.772 460,297.543L460,295L462.136,297.136L463.268,296.933L464,296.806L464,295L465.978,296.483L466.458,296.408C466.728,296.368 466.997,296.327 467.267,296.286L468,296.179L468,293L470.803,295.803L471.373,295.732C471.651,295.699 471.929,295.665 472.207,295.632L472.97,295.545L474,294L475.869,295.246L476.443,295.192L477.219,295.123L478,292L479.753,294.922C480.165,294.893 480.582,294.864 481,294.837L481,293L485,294.444L485,291L489.864,294.475L490.744,294.461L492,294.449L492,291L494.876,294.451C495.745,294.457 496.621,294.469 497.503,294.487L498,292L498.628,294.513C499.084,294.525 499.541,294.538 500,294.553L500.687,294.532C500.916,294.525 501.144,294.519 501.372,294.513L502,292L502.497,294.487C503.379,294.469 504.255,294.457 505.124,294.451L508,291L508,294.449L509.256,294.461L510.136,294.475L515,291L515,294.444L519,293L519,294.837C519.418,294.864 519.835,294.893 520.247,294.922L522,292L522.781,295.123L523.557,295.192L524.131,295.246L526,294L527.03,295.545L527.793,295.632C528.071,295.665 528.349,295.699 528.627,295.732L529.197,295.803L532,293L532,296.179L532.733,296.286C533.003,296.327 533.272,296.368 533.542,296.408L534.022,296.483L536,295L536,296.806L536.732,296.933L537.864,297.136L540,295L540,297.543C541.154,297.772 542.295,298.012 543.42,298.264L545,297L545,298.626C546.713,299.029 548.392,299.459 550.043,299.913L551,298L551,300.181L551.683,300.376L552.747,300.689L555,299L555.357,301.498C556.007,301.707 556.651,301.919 557.288,302.135L558,300L559.444,302.888C559.852,303.034 560.257,303.182 560.666,303.334L562,302L562,303.837L562.482,304.023L563.305,304.347L566,303L564.985,305.029C565.596,305.283 566.202,305.54 566.8,305.8L571,304L569.325,306.931C570.47,307.461 571.595,308.004 572.698,308.558L574,308L573.514,308.972L574.41,309.436L578,308L577.482,311.105C578.493,311.674 579.485,312.254 580.462,312.846L583,312L581.765,313.647C582.669,314.212 583.558,314.785 584.432,315.367L587,315L586.032,316.452C586.77,316.963 587.497,317.48 588.211,318L591,318L590.443,319.672C591.392,320.402 592.32,321.142 593.225,321.887L595,321L594.509,322.963C595.035,323.41 595.554,323.86 596.064,324.312L597,324L597,325.15C597.201,325.333 597.401,325.516 597.601,325.7L601,324L598.849,326.867C599.48,327.467 600.1,328.071 600.707,328.677L602,329L601.391,329.366C601.795,329.776 602.193,330.189 602.588,330.603L605,330L603.837,331.938C604.359,332.506 604.872,333.077 605.377,333.649L607,333L606.051,334.423L606.866,335.378L608,335L608,336.746C608.268,337.075 608.533,337.404 608.796,337.735L611,337L609.722,338.917C610.001,339.277 610.277,339.639 610.549,340L613,340L611.591,341.409C612.159,342.19 612.711,342.971 613.248,343.752L614,343L613.585,344.245C613.913,344.728 614.234,345.21 614.549,345.69L618,345L615.629,347.371C615.852,347.723 616.071,348.076 616.287,348.428L618,348L616.597,348.936C616.812,349.291 617.024,349.645 617.234,350L623,350L618.823,352.785C619.047,353.191 619.268,353.596 619.483,354L622,354L620.349,355.651C620.58,356.103 620.807,356.553 621.028,357L625,357L622.081,359.189L622.456,360L626,360L622.815,360.796L623.019,361.255L626,362L623.601,362.6L623.808,363.09L624.23,364.115L626,365L624.585,365L624.757,365.439L627,366L625.15,366.463C625.475,367.323 625.781,368.169 626.068,369L629,369L626.493,370.254C626.613,370.624 626.727,370.994 626.835,371.367L630,372L627.011,372L627.161,372.574L627.249,372.937L630,375L627.671,375C627.746,375.433 627.811,375.868 627.868,376.302L629,378L628.042,378C628.073,378.414 628.096,378.829 628.112,379.245L630,380L628.13,380C628.137,380.552 628.13,381.105 628.108,381.662L629,383L628.027,383C627.982,383.563 627.921,384.127 627.846,384.693L628,385L627.804,385C627.754,385.351 627.698,385.702 627.636,386.055L630,387L627.458,387C627.353,387.517 627.235,388.035 627.105,388.553L628,389L626.99,389C626.855,389.514 626.707,390.03 626.546,390.546L628,392L626.064,392C625.854,392.595 625.628,393.191 625.385,393.789L627,395L624.872,395C624.557,395.713 624.22,396.428 623.858,397.146L625,400L622.644,399.411C622.394,399.852 622.135,400.293 621.868,400.735L622,401L621.706,401C621.438,401.437 621.161,401.875 620.876,402.314L622,404L619.74,404C619.188,404.792 618.608,405.586 618,406.383L618,409L616.362,408.454L615.951,408.951L618,411L614.189,411L614.1,411.1L616,413L612.36,413L612.125,413.25L613,415L610.426,415L610,415.426L610,417L608.387,417C607.984,417.386 607.574,417.772 607.158,418.158L608,419L606.244,419C605.692,419.504 605.13,420.007 604.557,420.511L607,421L604,421L608,426C607.697,427 607.374,428 607,429C610.563,432.277 613.417,435.599 615,439C615.661,438.901 646.546,460.95 653.184,477.609C661.118,497.518 701.691,532.316 705,530C711.8,529.881 717.8,532.214 723,537C739.442,532.686 758.321,530.209 772,538.549C784.58,546.219 794.07,547.604 794.916,558C795.747,568.218 801.524,574.546 806,583C810.663,588.597 803.141,593.266 799,588L794,581C790.427,578.219 783.285,577.627 783,573.144C782.481,564.968 778.931,560.843 773,560.215C769.037,559.794 764.492,558.608 759,559C755.564,562.937 756.406,569.315 762,574.383C769.142,580.853 775.479,592.552 785.925,600C796.497,607.537 808.987,618.11 824,633C824.73,636.213 823.512,638.596 820,640L759,596C756.346,597.151 774.272,624.81 787.048,633C795.852,638.644 806,658 806,658C806.452,660.173 805.234,661.56 802,662C788.696,651.472 775.18,641.26 763,640.063C753.27,639.106 737.229,628.059 738,626C733.913,629.562 717.621,626.574 710,608.801C707.099,602.036 701.935,595.393 700,586.245C697.962,576.61 696.793,568.331 683,562C676.375,536.405 650.36,507.839 620.49,481C609.358,470.998 599.916,459.269 589,449L589,444L583.448,444.387C581.948,446.444 581.408,448.64 582,451C587.882,456.953 590.218,464.472 588,474C589.278,475.622 590.247,477.716 592.036,479C596.346,482.094 598.917,488.02 594,500C602.728,507.755 603.927,517.548 599,529C597.601,526.224 596.097,523.639 594,522C596.306,518.631 593.23,515.301 586,512C585.919,514.625 585.066,516.865 584,519C582.693,515.356 581.015,512.719 579,511C578.191,514.508 577.744,519.164 581.754,523C586.723,527.754 583.074,535.922 577,544C575.184,537.549 573.206,531.447 570,528C568.551,530.547 567.174,533.169 566,536C564.154,532.912 562.518,530.793 561.168,530C561.385,532.033 556.88,544.597 557.693,557C558.168,564.257 551.762,570.893 550.027,578C548.953,582.399 548.568,587.628 545,592.834C538.93,601.692 535.214,613.224 538.267,619C541.821,625.724 540.094,640.536 533.525,649C526.981,657.431 526.147,668.102 525.144,670C522.113,675.738 510.92,680 500,680L499.744,679.999ZM420,486C420.53,487.192 420.621,488.618 420.035,490.409C419.448,492.199 418.184,494.353 416,497C412.681,492.557 414.497,488.971 420,486ZM580,486C579.47,487.192 579.379,488.618 579.965,490.409C580.552,492.199 581.816,494.353 584,497C587.319,492.557 585.503,488.971 580,486ZM422,464C423.157,467.442 423.373,470.121 422.878,472.225C422.384,474.329 421.18,475.858 419.5,477C417.221,469.488 417.854,464.949 422,464ZM578,464C576.843,467.442 576.627,470.121 577.122,472.225C577.616,474.329 578.82,475.858 580.5,477C582.779,469.488 582.146,464.949 578,464ZM560,473.5C558.434,473.503 557.334,472.939 556.925,471.531C556.516,470.123 556.798,467.872 558,464.5C560.37,464.347 561.577,466.348 560,473.5ZM440,473.5C441.566,473.503 442.666,472.939 443.075,471.531C443.484,470.123 443.202,467.872 442,464.5C439.63,464.347 438.423,466.348 440,473.5ZM585,442.5C585.821,442.16 585.603,440.649 584.976,439.416C584.349,438.183 583.313,437.229 582.5,438C580.954,439.467 583.708,443.035 585,442.5ZM415,442.5C414.179,442.16 414.397,440.649 415.024,439.416C415.651,438.183 416.687,437.229 417.5,438C419.046,439.467 416.292,443.035 415,442.5ZM410.95,441.439C413.943,441.005 413.832,440.52 412.973,440.144C412.114,439.768 410.507,439.5 410.507,439.5C410.507,439.5 404.966,442.306 410.95,441.439ZM589.05,441.439C586.057,441.005 586.168,440.52 587.027,440.144C587.886,439.768 589.493,439.5 589.493,439.5C589.493,439.5 595.034,442.306 589.05,441.439ZM587.589,436.606C584.587,436.242 584.568,436.739 585.298,437.326C586.029,437.914 587.51,438.593 587.51,438.593C587.51,438.593 593.592,437.333 587.589,436.606ZM412.411,436.606C415.413,436.242 415.432,436.739 414.702,437.326C413.971,437.914 412.49,438.593 412.49,438.593C412.49,438.593 406.408,437.333 412.411,436.606ZM415,430C415.093,431.287 415.122,432.463 414.988,433.354C414.855,434.245 414.558,434.851 414,435C411.309,435.717 412.572,431.891 415,430ZM585,430C584.907,431.287 584.878,432.463 585.012,433.354C585.145,434.245 585.442,434.851 586,435C588.691,435.717 587.428,431.891 585,430Z" style="fill:white;"/>
    </g>
</svg>
