<?xml version="1.0" encoding="UTF-8" standalone="no"?>
<!DOCTYPE svg PUBLIC "-//W3C//DTD SVG 1.1//EN" "http://www.w3.org/Graphics/SVG/1.1/DTD/svg11.dtd">
<svg width="100%" height="100%" viewBox="0 0 1000 1000" version="1.1" xmlns="http://www.w3.org/2000/svg" xmlns:xlink="http://www.w3.org/1999/xlink" xml:space="preserve" xmlns:serif="http://www.serif.com/" style="fill-rule:evenodd;clip-rule:evenodd;stroke-linejoin:round;stroke-miterlimit:2;">
    <g transform="matrix(5.69285,0,0,5.69285,-2207.12,-762.686)">
        <path d="M481.9,254.768C492.69,243.109 498.969,231.647 500.436,220.396C489.126,228.876 480.252,239.682 475.506,254.432C473.255,240.916 466.737,232.194 457.582,226.437C455.98,236.222 457.056,245.73 469.112,254.097C460.032,250.196 448.07,255.616 433.228,270.356C443.408,270.322 454.396,268.694 466.864,264.144C461.145,269.115 458.898,274.209 459.964,279.421C465.495,275.893 470.675,271.203 475.418,265.062C479.888,271.641 485.334,277.079 493.265,279.604C492.187,273.515 488.313,268.123 482.394,263.239C495.995,268.45 507.523,270.712 516.772,269.733C510.174,262.513 499.683,257.021 481.9,254.768ZM540,240C544.96,216.951 551.12,193.237 551,173C541.716,178.703 534.177,188.434 527,199C528.667,197.67 530.333,197.454 532,198C530.659,202 528.914,206 527,210C531.622,206.441 535.836,207.918 540,210C537.326,212.266 534.432,214.333 530,215C532.631,216.435 534.671,218.399 536,221C534.377,222.683 531.931,223.575 529,224C516.123,214.573 501.668,207.198 484,204C502.085,188.393 515.817,170.258 550,164C561.23,177.139 549.416,209.574 540,240ZM411.06,240C406.1,216.951 399.941,193.237 400.06,173C409.345,178.703 416.884,188.434 424.06,199C422.394,197.67 420.727,197.454 419.06,198C420.401,202 422.146,206 424.06,210C419.438,206.441 415.225,207.918 411.06,210C413.734,212.266 416.628,214.333 421.06,215C418.43,216.435 416.389,218.399 415.06,221C416.683,222.683 419.129,223.575 422.06,224C434.937,214.573 449.392,207.198 467.06,204C448.976,188.393 435.244,170.258 401.06,164C389.83,177.139 401.644,209.574 411.06,240Z" style="fill:white;"/>
    </g>
</svg>
