<?xml version="1.0" encoding="UTF-8" standalone="no"?>
<!DOCTYPE svg PUBLIC "-//W3C//DTD SVG 1.1//EN" "http://www.w3.org/Graphics/SVG/1.1/DTD/svg11.dtd">
<svg width="100%" height="100%" viewBox="0 0 1000 1000" version="1.1" xmlns="http://www.w3.org/2000/svg" xmlns:xlink="http://www.w3.org/1999/xlink" xml:space="preserve" xmlns:serif="http://www.serif.com/" style="fill-rule:evenodd;clip-rule:evenodd;stroke-linejoin:round;stroke-miterlimit:2;">
    <g transform="matrix(1.8654,0,0,2.34721,-638.974,-663.291)">
        <path d="M770,660L782.766,624.32C643.901,541.542 510.951,523.732 380,562C365.61,601.094 365.974,622.433 380,627.804C490.875,591.249 618.044,594.982 770,660ZM818.15,423.655C822.456,429.005 826.41,434.464 830,440C863.673,491.927 857.986,561.184 815.534,612.64C809.817,619.57 799.56,622.341 787.626,623.527L784,620L788,614C783.983,611.678 779.956,609.388 775.909,607.125C780.406,606.531 785.171,605.56 790,604.44C803.785,601.245 821.504,583.619 834.702,547.659C835.55,545.348 836.319,542.796 836.977,540C840.338,525.713 841.083,505.189 839.369,480C838.354,465.096 831.016,446.265 818.15,423.655ZM784.86,390.409C791.394,395.704 797.53,401.255 803.241,407.008C822.445,448.762 833.537,477.379 832.093,496.248C828.764,539.737 817.839,578.506 805.31,586.124C792.933,593.65 782.193,601.897 773.01,601.422C769.344,601.233 765.984,600.738 762.897,599.988C756.735,596.673 750.547,593.442 744.336,590.304C741.594,587.843 739.248,585.114 737.204,582.265C714.508,550.637 716.861,517.216 735.018,504.355C755.822,489.62 772.762,495.288 784.02,505.704C799.451,519.982 802.46,547.059 780,558.976C773.099,562.638 769.224,553.029 771.912,540C772.922,535.104 774.741,529.364 777.425,522.894L770,520C755.824,549.606 764.936,565.749 777.539,568.936C798.758,574.302 814.652,539.112 802.842,515.279C798.257,506.025 786.846,495.671 777.987,490C771.892,486.098 762.454,486.241 754.309,485.911C743.637,485.477 730.62,494.521 722.342,502.786C713.319,511.796 711.306,530.686 712.533,546.064C713.325,555.986 718.276,565.942 723.176,574.461C724.844,577.36 726.894,580.163 729.224,582.879C680.409,559.586 629.79,542.234 576.174,534.76C589.487,511.145 598.597,487.249 610,468.117C621.138,449.43 630.857,433.438 640,422.351C645.888,415.21 651.536,410.104 657.17,407.621C686.473,394.709 717.906,393.384 743.781,391.766C759.505,390.784 773.548,390.643 784.86,390.409ZM524.112,339.365C459.363,385.235 432.709,456.958 424.451,541.182C410.216,544.343 395.731,548.266 381,553L390,549C390.242,488.306 406.17,438.939 431,396C457.649,369.96 483.223,349.54 510,342.69C514.737,341.479 519.441,340.372 524.112,339.365ZM596.089,331.212C572.149,336.506 551.598,352.07 533.758,375.859C506.715,411.919 485.901,466.877 468.965,533.611C457.247,534.99 445.38,536.875 433.347,539.298C439.731,458.379 467.169,387.36 537.583,336.719C557.78,333.139 577.315,331.415 596.089,331.212ZM700.842,346.128C730.152,354.987 756.267,368.678 778.294,385.278C753.024,384.129 730.183,384.826 710,387.331C687.59,390.112 668.296,394.785 652.911,402.311C633.767,411.674 616.981,434.311 600,466.076C589.608,485.516 579.143,508.374 568.02,533.703C557.983,532.5 547.839,531.645 537.589,531.166C550.283,484.647 567.582,437.129 600,398.066C621.672,371.951 657.345,356.774 700.842,346.128ZM613.551,331.46C638.95,332.457 662.842,336.184 684.974,341.746C644.22,351.3 610.279,368.116 588.285,396.324C560.707,431.693 542.61,478.019 528.199,530.833C512.559,530.454 496.651,530.952 480.454,532.416C491.385,476.814 508.618,420.307 540,382.258C558.836,359.421 582.863,341.965 613.551,331.46Z" style="fill:white;"/>
    </g>
</svg>
