<?xml version="1.0" encoding="UTF-8" standalone="no"?>
<!DOCTYPE svg PUBLIC "-//W3C//DTD SVG 1.1//EN" "http://www.w3.org/Graphics/SVG/1.1/DTD/svg11.dtd">
<svg width="100%" height="100%" viewBox="0 0 1000 1000" version="1.1" xmlns="http://www.w3.org/2000/svg" xmlns:xlink="http://www.w3.org/1999/xlink" xml:space="preserve" xmlns:serif="http://www.serif.com/" style="fill-rule:evenodd;clip-rule:evenodd;stroke-linejoin:round;stroke-miterlimit:2;">
    <g transform="matrix(1.74824,0,0,1.74824,-416.065,-332.257)">
        <path d="M667,534C646.333,579.727 636.161,606.936 626.219,620C599.639,654.927 554.311,675.305 490,675.43C443.32,675.52 406.201,663.27 375.8,644.777C342.134,624.299 321.415,590.601 316,537C314.924,526.344 298.965,527.17 296.177,540C289.373,571.313 302.815,633.984 330,655.828C370.251,688.171 431.46,707.709 480,710C547.041,713.165 597.512,682.849 626.088,660C665.668,628.353 682.889,557.86 680,537.542C679.173,531.723 668.943,529.702 667,534ZM730,542C760.936,533.408 762.607,570.369 730,585C687.171,604.218 694.853,616.071 725,615C733.876,614.685 766.667,586.588 775,570C781.72,556.623 785.156,534.083 775,525C766.916,517.77 737.461,520.065 730,523C712.652,529.825 715.243,546.098 730,542ZM280,498C247.449,482.102 278.586,431.527 326,450C334.141,453.172 302.535,461.612 300,470C292.68,494.22 409.162,512.207 490,512.58C552.977,512.871 649.807,499.27 665,480C671.421,471.855 649.749,457.844 660,456C715.277,446.056 734.073,485.232 700,497C629.396,521.385 557.701,528.967 490,527.973C418.828,526.928 344.151,529.332 280,498ZM407.167,482C408.44,481.167 414.319,474.266 405,470C385.69,461.161 374.223,403.309 400,370C416.99,348.046 426.751,320.253 430,298.781C436.692,254.561 393.378,232.318 373,245.781C361.715,253.237 373.004,262.36 384.697,272.122C400.639,285.43 405.275,320.313 394.882,332.432C374.119,356.647 363.964,386.118 360,400C348.634,439.806 372.24,504.857 407.167,482ZM491.827,440C487.976,433.017 498.947,396.264 522.942,366.444C540.345,344.816 545.692,318.094 544,296.444C541.148,259.956 501.632,232.915 487,245.444C478.402,252.806 486.285,260.332 495.697,270C507.844,282.477 522.283,307.416 512.063,324C485.711,366.757 461.383,409.097 460.595,420C458.023,455.583 463.588,486.342 503.167,486.416C515.563,486.439 504.202,462.439 491.827,440ZM600,460C596.679,452.749 604.947,419.82 628.942,390C646.345,368.372 651.692,341.65 650,320C647.148,283.512 615.696,254.832 600,266C593.186,270.848 599.449,281.667 607.697,293.341C619.681,310.301 626.767,340.387 617.882,353.651C602.281,376.944 591.046,399.439 580,414.709C560.678,441.418 568.822,494.793 593.167,485.298C598.269,483.308 607.092,475.484 600,460Z" style="fill:white;"/>
    </g>
</svg>
