<?xml version="1.0" encoding="UTF-8" standalone="no"?>
<!DOCTYPE svg PUBLIC "-//W3C//DTD SVG 1.1//EN" "http://www.w3.org/Graphics/SVG/1.1/DTD/svg11.dtd">
<svg width="100%" height="100%" viewBox="0 0 1000 1000" version="1.1" xmlns="http://www.w3.org/2000/svg" xmlns:xlink="http://www.w3.org/1999/xlink" xml:space="preserve" xmlns:serif="http://www.serif.com/" style="fill-rule:evenodd;clip-rule:evenodd;stroke-linejoin:round;stroke-miterlimit:2;">
    <g transform="matrix(1.8191,0,0,1.8191,-718.8,-455.788)">
        <path d="M649.465,332.579L641.057,579.063L640.686,579.063C618.217,589.957 614.92,600.85 640.686,611.744C643.02,612.431 645.322,613.021 647.597,613.523L647.597,696.863C607.223,723.692 525.598,776.464 517.176,770.344C505.937,762.179 554.15,597.642 554.15,597.642C554.15,597.642 418.432,492.868 422.725,479.656C427.018,466.443 598.401,461.452 598.401,461.452C598.401,461.452 627.606,379.743 649.465,332.579ZM671.586,300.561C687.794,310.917 741.599,461.452 741.599,461.452C741.599,461.452 912.982,466.443 917.275,479.656C921.568,492.868 785.85,597.642 785.85,597.642C785.85,597.642 834.063,762.179 822.824,770.344C814.251,776.573 729.834,721.786 690.274,695.447L690.408,613.534C693.058,613.008 695.68,612.405 698.282,611.744C717.735,601.534 729.259,590.612 698.218,579.063C697.787,484.296 700.273,388.853 671.586,300.561ZM644.62,580.43C651.958,592.162 685.853,592.41 694.762,580.423C694.828,580.335 694.923,580.28 694.961,580.184C721.327,590.718 711.341,600.682 694.552,610C692.293,610.607 690.016,611.16 687.717,611.644L687.552,718C675.957,730.666 663.656,731.298 650.552,718L650.552,611.633C648.577,611.173 646.578,610.631 644.552,610C622.249,600.029 625.031,590.058 644.382,580.087C644.407,580.226 644.539,580.302 644.62,580.43ZM669.906,319.659C696.316,401.845 694.123,490.988 694.494,579.5C694.404,579.5 694.312,579.525 694.23,579.577C685.994,584.752 677.749,587.177 669.496,587.064C669.286,584.816 669.434,581.48 670.387,580.317C671.146,579.389 672.596,575.9 673.118,571.676C673.639,567.462 673.241,562.528 670.401,558.702C664.609,550.898 669.193,543.206 670.461,540.194C671.793,537.031 670.715,533.178 669.821,529.469C669.396,527.709 669.021,525.983 669.024,524.389C669.026,522.88 669.37,521.493 670.378,520.327C671.556,518.965 672.055,517.862 672.166,516.865C672.278,515.853 671.994,514.937 671.541,513.95C670.338,511.323 667.909,508.104 670.476,500.154C670.492,500.104 670.5,500.052 670.5,500C670.5,496.695 671.634,493.484 672.198,490.225C672.787,486.822 672.774,483.373 670.42,479.729C668.682,477.038 669.455,473.665 670.248,470.249C671.1,466.577 671.987,462.857 670.447,459.777C667.253,453.383 665.721,446.935 670.409,440.288C674.36,434.685 674.251,425.402 670.414,419.72C666.249,413.551 666.393,407.053 670.43,400.255C673.921,394.377 673.899,385.638 670.431,379.746C666.684,373.381 665.739,366.763 670.406,360.292C672.691,357.124 674.002,352.27 673.623,347.967C673.366,345.042 672.328,342.374 670.329,340.624C669.292,339.716 668.746,337.792 668.48,335.446C667.982,331.046 668.835,324.12 669.906,319.659ZM668.477,587.038C660.7,586.734 652.918,584.186 645.13,579.57C645.054,579.525 644.972,579.503 644.891,579.5L654.552,280C660.262,292.445 665.151,305.089 669.338,317.906C668.071,322.301 666.916,330.518 667.487,335.559C667.787,338.21 668.499,340.35 669.671,341.376C671.484,342.964 672.394,345.4 672.627,348.055C672.985,352.122 671.755,356.712 669.594,359.708C664.666,366.542 665.612,373.531 669.569,380.254C672.865,385.853 672.888,394.159 669.57,399.745C665.311,406.916 665.191,413.771 669.586,420.28C673.21,425.648 673.325,434.419 669.591,439.712C664.657,446.708 666.19,453.494 669.553,460.223C670.993,463.107 670.071,466.586 669.274,470.023C668.417,473.717 667.7,477.362 669.58,480.271C671.773,483.667 671.761,486.884 671.213,490.055C670.644,493.344 669.518,496.588 669.5,499.922C667.275,506.87 668.685,510.381 669.945,512.96C670.635,514.37 671.315,515.462 671.172,516.754C671.078,517.6 670.621,518.518 669.622,519.673C668.449,521.028 668.026,522.633 668.024,524.387C668.021,526.055 668.404,527.862 668.848,529.704C669.691,533.199 670.794,536.825 669.539,539.806C668.204,542.978 663.498,551.079 669.599,559.298C672.279,562.909 672.617,567.576 672.126,571.553C671.635,575.52 670.326,578.813 669.613,579.683C668.776,580.706 668.319,582.169 668.207,583.608C668.149,584.346 668.274,585.734 668.477,587.038Z" style="fill:white;"/>
    </g>
</svg>
