<?xml version="1.0" encoding="UTF-8" standalone="no"?>
<!DOCTYPE svg PUBLIC "-//W3C//DTD SVG 1.1//EN" "http://www.w3.org/Graphics/SVG/1.1/DTD/svg11.dtd">
<svg width="100%" height="100%" viewBox="0 0 1000 1000" version="1.1" xmlns="http://www.w3.org/2000/svg" xmlns:xlink="http://www.w3.org/1999/xlink" xml:space="preserve" xmlns:serif="http://www.serif.com/" style="fill-rule:evenodd;clip-rule:evenodd;stroke-linejoin:round;stroke-miterlimit:2;">
    <g transform="matrix(1.55228,0,0,1.55228,-229.41,-133.95)">
        <path d="M513.963,468.393L513.644,466.779C513.339,465.232 513.038,463.69 512.738,462.146L512.737,462.143C502.781,410.836 496.525,364.649 495,325C508.835,345.842 521.565,367.71 539.322,385C563.705,408.741 586.82,432.895 609.033,457.429C564.378,456.156 526.196,456.349 512.737,462.143L513.719,466.773L513.644,466.779L514.178,469.471L514.45,470.837L514.784,472.502L515.203,474.579L515.57,476.39L516.232,479.624L516.507,480.961L516.922,482.97L517.549,485.976L518.11,488.645L518.736,491.6L519.461,494.991L519.87,496.893L520.195,498.397L520.939,501.818L521.693,505.254L522.097,507.083L522.457,508.704L523.23,512.169L523.628,513.943L524.013,515.648L524.408,517.393L525,520L513.719,466.773C515.981,466.59 518.262,466.421 520.565,466.264L534.882,533.109C533.939,533.446 533.113,534.122 532.606,535.076C531.526,537.106 532.298,539.631 534.328,540.711C567.89,558.559 600.482,554.602 632.305,533.471C634.221,532.199 634.743,529.611 633.471,527.695C632.67,526.489 631.348,525.835 630,525.834L630,480.991C637.763,489.863 645.424,498.78 653,507.742C657.003,498.537 652.774,489.747 651,481C662.153,495.795 673.591,513.024 685,530C693.802,503.946 700.613,489.814 705,490.195C709.924,490.623 723.218,494.101 710,550C707.882,556.165 702.794,561.774 685,565C651.723,636.081 386.351,684.285 316.105,630C311.674,626.576 319.46,609.587 331,598C335.464,599.881 339.341,603.598 345,605C337.174,583.099 328.536,562.569 324,539C326.126,526.032 328.527,513.238 331.225,500.633C332.2,500.379 333.728,500.004 335.699,499.531L349.751,563.726C347.885,563.571 346.111,564.301 345.342,566.072C344.426,568.181 345.278,570.977 347.505,571.553C387.365,581.883 404.541,575.726 430.603,556.597C432.457,555.236 432.729,552.556 431.31,550.747C429.89,548.938 427.269,548.621 425.46,550.041L425.328,550.136L415.206,480.834C416.968,480.376 417.968,480.083 418,480C419.96,474.942 348.899,486.453 333.088,492.162C346.366,433.45 366.266,378.93 395,330C398.249,389.911 404.768,457.263 460,520C454.174,496.304 449.329,475.018 445,455C464.719,482.844 493.122,502.967 525,520L524.606,518.269L524.205,516.503L523.42,513.018L522.644,509.546L521.876,506.087L521.119,502.641L520.37,499.208L519.631,495.787L518.901,492.38L518.181,488.986L517.471,485.605L516.77,482.237L516.079,478.883L515.397,475.542L514.984,473.499L514.609,471.631L513.963,468.393ZM745.413,520C744.153,509.808 742.201,501.979 740,495L715,545C724.144,516.58 725.859,493.946 710,485C699.075,480.403 691.271,497.399 685,525C671.6,501.054 656.813,479.084 640,460C642.437,471.527 651.763,488.473 650,500C624.788,465.311 590.234,426.211 543.764,380C522.898,359.251 507.12,333.962 490,310C487.846,376.934 501.084,443.529 520,510C486.35,494.566 459.827,471.071 440,440C437.873,462.063 446.389,486.142 456,512C420.219,451.902 395.057,387.315 400,310C349.093,403.285 313.155,513.825 316.682,540C320.856,570.985 334.061,588.841 340,600C320.21,585.48 302.165,569.76 290,550C281.754,566.305 286.773,583.192 290,600C276.173,575.872 265.228,551.621 263,527C254.505,545.079 253.822,567.073 255,590C239.631,538.24 229.069,485.405 230,430C217.062,456.996 199.608,479.555 180,500C202.084,452.624 228.97,385.035 260,300C379.525,122.95 556.312,152.911 640,198.358C712.748,237.864 793.152,330.452 745.413,520ZM389.991,543.035C391.855,542.536 394.501,546.358 395.897,551.565C397.293,556.772 396.914,561.406 395.05,561.905C393.187,562.405 390.54,558.583 389.144,553.375C387.748,548.168 388.128,543.535 389.991,543.035ZM567.47,520.565C569.334,520.065 571.98,523.887 573.376,529.095C574.772,534.302 574.393,538.935 572.53,539.435C570.666,539.935 568.02,536.113 566.624,530.905C565.228,525.698 565.607,521.065 567.47,520.565Z" style="fill:white;"/>
    </g>
</svg>
