<?xml version="1.0" encoding="UTF-8" standalone="no"?>
<!DOCTYPE svg PUBLIC "-//W3C//DTD SVG 1.1//EN" "http://www.w3.org/Graphics/SVG/1.1/DTD/svg11.dtd">
<svg width="100%" height="100%" viewBox="0 0 1000 1000" version="1.1" xmlns="http://www.w3.org/2000/svg" xmlns:xlink="http://www.w3.org/1999/xlink" xml:space="preserve" xmlns:serif="http://www.serif.com/" style="fill-rule:evenodd;clip-rule:evenodd;stroke-linejoin:round;stroke-miterlimit:2;">
    <g transform="matrix(1.14875,0,0,1.14875,-103.705,-60.4692)">
        <path d="M446.64,424.848C439.711,413.142 430.819,397.876 424,388C415.511,375.705 405.935,364.158 396,353C385.167,340.833 367.5,323.667 359,315C354.379,310.288 348.844,306.364 345,301C337.833,291 326.754,269.592 316,255C302.667,236.908 267.833,197.615 265,192.448C262.167,187.282 288.833,213.741 299,224C308.47,233.556 318.333,244.5 326,254C332.911,262.564 339,272.667 345,281C350.571,288.737 356.333,296.833 362,304C367.427,310.863 373.667,318.333 379,324C383.688,328.98 389.227,333.101 394,338C400.333,344.5 409.833,355.167 417,363C423.69,370.312 430.884,377.202 437,385C443.667,393.5 450.667,405.333 457,414C459.427,417.322 462.065,420.961 464.705,424.472C468.792,424.349 472.663,424.196 476,424C485.371,423.449 494.632,420.414 504,421C514.667,421.667 531.833,425.5 540,428C544.865,429.489 549.182,432.637 553,436C560,442.167 574.5,456.833 582,465C585.945,469.296 589.712,474.49 593.243,479.103C596.146,478.563 599.056,478.115 602,478C610.5,477.667 624.167,478.5 634,479C643.013,479.458 651.975,481 661,481C671.333,481 684.35,479.913 696,479C708.167,478.047 721.306,476.199 734,475.281C747.833,474.281 764.833,473.047 779,473C792.35,472.956 805.833,474.833 819,475C832.003,475.165 845.013,474.663 858,474C874.333,473.167 913.667,469 917,470C920.333,471 890.667,478 878,480C865.8,481.926 851.5,481.167 841,482C832.303,482.69 823.718,484.673 815,485C801.667,485.5 775.333,484.5 761,485C750.293,485.373 739.665,486.977 729,488C716.833,489.167 700.167,491 688,492C677.348,492.875 666.687,494 656,494C642.333,494 619.667,492.167 606,492C605.58,491.995 605.159,491.991 604.74,491.989C606.815,494.005 608.925,495.988 611,498C616.5,503.333 628.333,509 631,517C633.667,525 629.167,537.667 627,546C625.084,553.371 621.342,560.157 618,567C616.527,570.016 615.214,573.345 613.747,576.629C618.697,583.963 624.088,591.7 629,598C636.115,607.125 644.216,615.438 652,624C660.333,633.167 671.333,644.667 679,653C685.391,659.947 692.26,666.506 698,674C704,681.833 708.997,691.563 715,700C721.167,708.667 728.319,717.345 735,726C742.333,735.5 751.167,747.333 759,757C766.443,766.185 783.5,784 782,784C780.5,784 758.5,765 750,757C743.126,750.53 737.072,743.228 731,736C724,727.667 715.507,716.791 708,707C700.333,697 693.225,685.895 685,676C674.333,663.167 656,643.333 644,630C633.74,618.6 622.633,607.934 613,596C611.097,593.643 609.03,590.961 606.869,588.084C606.588,588.396 606.298,588.702 606,589C599.5,595.5 588,602.833 579,606C570.487,608.995 560.95,609.155 552,608C541.667,606.667 526.833,602.333 517,598C508.573,594.286 501.458,587.29 493.99,582.606C485.369,586.128 470.13,589.64 467,587C461.201,582.109 458.303,574.746 456.399,568.369C455.928,568.268 455.461,568.147 455,568C447.167,565.5 432.5,559.5 423,555C414.368,550.911 404.667,547.833 398,541C391.333,534.167 386.333,522.333 383,514C380.721,508.303 378.508,502.229 377.996,496.114C363.712,496.564 342.629,498.111 333,499C327.923,499.469 323.091,501.717 318,502C306,502.667 277,503.167 261,503C247.984,502.864 234.333,501 222,501C210.314,501 198.658,502.196 187,503C172.5,504 141,507.333 135,507C129.313,506.684 145.41,502.096 151,501C159.5,499.333 174.667,498.333 186,497C197.005,495.705 207.932,493.533 219,493C232.833,492.333 254.167,493.5 269,493C282.031,492.561 295.007,491.083 308,490C322,488.833 338.833,487.333 353,486C361.665,485.184 370.464,483.882 379.129,482.977C381.076,471.984 384.935,457.655 389,449C393.427,439.574 401.167,429 409,425C416.833,421 427.001,425.134 436,425C439.139,424.953 442.778,424.906 446.64,424.848ZM560.551,530.487C548.944,535.79 529.222,544.447 510.956,552.4C509.882,562.085 508.38,571.098 504.387,576.184C512.888,580.244 520.956,586.06 529,590C536.783,593.812 545.167,598.333 553,600C560.499,601.595 569.167,601.333 576,600C582.444,598.743 588.843,596.063 594,592C597.07,589.582 600.14,586.346 602.948,582.793C593.35,569.693 582.83,554.408 577,547C573.502,542.554 569,539 565,535C563.7,533.7 562.187,532.159 560.551,530.487ZM584.468,530.614C588.412,531.738 592.195,533.454 596,535C601.333,537.167 609.333,541.333 614,543C616.403,543.858 619.612,544.837 621.98,545.06C619.268,553.03 614.67,563.824 610.375,571.599C608.836,569.289 607.366,567.067 606,565C600.388,556.511 594.333,545.5 590,539C588.162,536.243 586.479,533.267 584.468,530.614ZM387.555,496.039C387.66,497.714 387.814,499.372 388,501C388.661,506.784 389.397,512.793 392,518C394.667,523.333 399.081,528.901 404,533C410,538 419.36,544.211 428,548C437.5,552.167 450.215,554.026 461,558C461.381,558.14 461.768,558.284 462.159,558.43C462.354,558.16 462.549,557.888 462.741,557.615C457.109,543.251 447.909,519.714 440.003,499.13C432.269,498.931 423.39,498.326 416,498C406.509,497.581 397.046,496.299 387.555,496.039ZM491.517,493.911C490.987,493.941 490.476,493.969 490,494C484.667,494.345 475.5,493.234 469,494.067C462.829,494.858 457.204,498.54 451,499C449.192,499.134 447.132,499.192 444.903,499.196C453.221,517.221 462.271,537.114 468.032,549.817C474.009,540.994 480.358,532.809 491,532L499,511C494.719,504.483 492.142,498.748 491.517,493.911ZM527.63,509.244C521.907,512.123 515.85,514.227 509,514.494C505.92,521.269 503.208,528.098 501,535C500.126,537.732 506.284,539.445 507.948,542C508.969,543.566 509.739,545.216 510.251,546.954C526.663,539.729 544.966,531.734 556.666,526.812C551.527,526.127 545.37,525.685 542,524C539.019,522.509 538.28,518.432 536,516C533.925,513.787 529.325,511.344 527.63,509.244ZM596.593,492.092C599.187,494.999 601.771,497.768 604,500C608.011,504.016 613.167,507.5 617,511C620.481,514.179 626.314,516.336 627,521C627.651,525.426 625.838,532.858 623.761,539.588C621.073,539.601 617.437,539.84 615,539C610.167,537.333 603.333,532.333 598,530C593.171,527.887 588.163,526.059 583,525C581.203,524.631 579.049,524.301 576.739,523.998C571.865,521.491 565.413,519.675 561,517C555.925,513.924 550.667,509.333 547,506C544.03,503.3 540.333,499.333 539,497C538.731,496.53 538.812,495.86 538.986,495.162L539.809,493.987C539.874,493.993 539.937,493.997 540,494C546.667,494.333 563,493.333 574,493C581.532,492.772 589.061,492.302 596.593,492.092ZM538.542,509.424C540.474,510.947 542.369,512.501 544,514C546.366,516.174 549.197,518.961 552.099,521.881C549.472,521.858 546.958,521.566 545,520C542.72,518.176 540.541,513.559 538.542,509.424ZM586.773,480.361C583.069,475.32 580.194,469.638 576,465C571.333,459.839 565.738,455.16 560,451C553.333,446.167 542.333,439.333 536,436C531.615,433.692 526.775,432.326 522,431C516,429.333 506.833,426.667 500,426C493.688,425.384 487.322,426.501 481,427C476.596,427.348 472.205,428.029 467.799,428.516C470.339,431.77 472.804,434.736 475,437C478.992,441.117 484.777,443.12 489,447C494.088,451.676 504.963,461.797 509.828,467.816C522.796,467.791 531.497,471.886 535,481C537.15,482.242 539.053,483.632 540.811,485.109C543.233,484.507 546.171,484.124 548,484C550.023,483.863 551.98,485.173 554,485C559.833,484.5 575,482.167 583,481C584.261,480.816 585.518,480.597 586.773,480.361ZM426.716,460.81C428.913,465.031 433.011,473.627 437.91,484.121C444.312,484.183 450.866,484.127 457.092,484.073C456.394,483.284 455.687,482.541 455,481.964C449.833,477.631 437,466.994 431,463C429.659,462.107 428.212,461.414 426.716,460.81ZM398.494,449.03C397.144,451.431 395.928,453.806 395,456C391.502,464.268 389.32,474.75 388.124,482.214C389.758,482.115 391.384,482.041 393,482C405.68,481.675 418.333,483.667 431,484C432.076,484.028 433.162,484.052 434.254,484.071C430.118,473.154 426.887,464.395 425.595,460.376C423.408,459.56 421.151,458.876 419,458C414.5,456.167 408,454 404,452C402.392,451.196 400.275,450.117 398.494,449.03ZM449.244,429.23C446.147,429.205 443.03,429.126 440,429C432,428.667 419,426.667 414,427C412.119,427.125 411.033,429.423 410,431C408.315,433.571 405.216,438.029 402.131,442.945C403.768,445.001 405.26,449.532 408,451C412.667,453.5 423.167,454.667 429,457C433.99,458.996 438.757,461.7 443,465C448.564,469.327 460.003,479.387 464.162,484.017C465.819,484.006 467.435,484 469,484C476.854,484 487.587,483.178 494.416,483.471C494.887,482.954 495.415,482.464 496,482C494.039,479.326 492.749,479.185 493.137,475C493.32,473.031 494.466,471.418 496.763,470.199C495.271,468.316 493.724,466.31 492,465C487.833,461.833 481.833,458.667 477,456C472.432,453.48 466.833,452.167 463,449C459.167,445.833 456.693,441.213 454,437C452.684,434.941 451.067,432.281 449.244,429.23Z" style="fill:white;"/>
    </g>
</svg>
