<?xml version="1.0" encoding="UTF-8" standalone="no"?>
<!DOCTYPE svg PUBLIC "-//W3C//DTD SVG 1.1//EN" "http://www.w3.org/Graphics/SVG/1.1/DTD/svg11.dtd">
<svg width="100%" height="100%" viewBox="0 0 1000 1000" version="1.1" xmlns="http://www.w3.org/2000/svg" xmlns:xlink="http://www.w3.org/1999/xlink" xml:space="preserve" xmlns:serif="http://www.serif.com/" style="fill-rule:evenodd;clip-rule:evenodd;stroke-linejoin:round;stroke-miterlimit:2;">
    <g transform="matrix(6.34767,0,0,6.34767,-2642.78,-2543.71)">
        <path d="M495.108,532.49C500.248,532.425 505.204,532.954 510,534C512.232,536.917 513.696,539.921 514.5,543C507.485,543.689 501.403,544.006 495.108,544.001C488.812,544.006 482.731,543.689 475.716,543C476.52,539.921 477.983,536.917 480.216,534C485.012,532.954 489.968,532.425 495.108,532.49ZM495.784,444.909C516.061,445.57 531.138,451.263 538,462C547.754,477.262 578.041,530.806 519,543C521.561,540.404 523.051,537.723 524,535C521.675,537.883 519.058,540.581 516,543C515.113,539.724 513.806,536.418 511,533C506.37,531.53 501.121,530.745 495.716,530.94L495.716,531C495.513,530.987 495.31,530.976 495.108,530.966C494.906,530.976 494.703,530.987 494.5,531L494.5,530.94C489.095,530.745 483.846,531.53 479.216,533C476.41,536.418 475.102,539.724 474.216,543C471.157,540.581 468.541,537.883 466.216,535C467.165,537.723 468.655,540.404 471.216,543C412.174,530.806 442.462,477.262 452.216,462C459.078,451.263 474.154,445.57 494.431,444.909L494.431,444.872C494.658,444.877 494.883,444.882 495.108,444.888C495.332,444.882 495.558,444.877 495.784,444.872L495.784,444.909ZM535.5,514C539.416,507.896 542.049,501.178 538.5,491.5L540,490.5C537.529,488.504 534.777,486.594 531,485C532.276,482.409 532.633,479.728 532.5,477C531.834,479.167 530.813,481.833 528.5,484C524.758,483.954 521.116,484.133 517.5,485L519.5,486.5C515.612,494.328 516.98,501.918 518.5,509.5C517.093,484.691 525.757,487.981 528.5,488.353C531.482,488.758 542.42,493.614 535.5,514ZM454.716,514C450.799,507.896 448.166,501.178 451.716,491.5L450.216,490.5C452.686,488.504 455.439,486.594 459.216,485C457.94,482.409 457.582,479.728 457.716,477C458.381,479.167 459.403,481.833 461.716,484C465.457,483.954 469.099,484.133 472.716,485L470.716,486.5C474.603,494.328 473.236,501.918 471.716,509.5C473.122,484.691 464.458,487.981 461.716,488.353C458.734,488.758 447.796,493.614 454.716,514ZM531.456,512C528.248,511.163 525.246,510.161 522.44,509C522.666,495.513 524.648,490.293 527,490.441C530.237,490.645 532.586,498.053 531.456,512ZM458.76,512C461.967,511.163 464.969,510.161 467.775,509C467.55,495.513 465.568,490.293 463.216,490.441C459.978,490.645 457.629,498.053 458.76,512ZM527,496C527.414,496 527.75,497.456 527.75,499.25C527.75,501.044 527.414,502.5 527,502.5C526.586,502.5 526.25,501.044 526.25,499.25C526.25,497.456 526.586,496 527,496ZM463.216,496C462.802,496 462.466,497.456 462.466,499.25C462.466,501.044 462.802,502.5 463.216,502.5C463.63,502.5 463.966,501.044 463.966,499.25C463.966,497.456 463.63,496 463.216,496ZM544.5,489C545.604,489 546.5,489.896 546.5,491C546.5,492.104 545.604,493 544.5,493C543.396,493 542.5,492.104 542.5,491C542.5,489.896 543.396,489 544.5,489ZM445.716,489C444.612,489 443.716,489.896 443.716,491C443.716,492.104 444.612,493 445.716,493C446.819,493 447.716,492.104 447.716,491C447.716,489.896 446.819,489 445.716,489ZM505,477C506.104,477 507,477.896 507,479C507,480.104 506.104,481 505,481C503.896,481 503,480.104 503,479C503,477.896 503.896,477 505,477ZM485.216,477C484.112,477 483.216,477.896 483.216,479C483.216,480.104 484.112,481 485.216,481C486.319,481 487.216,480.104 487.216,479C487.216,477.896 486.319,477 485.216,477ZM507.5,462.5C508.604,462.5 509.5,463.396 509.5,464.5C509.5,465.604 508.604,466.5 507.5,466.5C506.396,466.5 505.5,465.604 505.5,464.5C505.5,463.396 506.396,462.5 507.5,462.5ZM482.716,462.5C481.612,462.5 480.716,463.396 480.716,464.5C480.716,465.604 481.612,466.5 482.716,466.5C483.819,466.5 484.716,465.604 484.716,464.5C484.716,463.396 483.819,462.5 482.716,462.5ZM538,458L529.5,450.5C533.567,441.359 537.622,432.216 541,423L547,430L559,428C552.334,438 545.291,448 538,458ZM452.216,458L460.716,450.5C456.648,441.359 452.594,432.216 449.216,423L443.216,430L431.216,428C437.882,438 444.925,448 452.216,458ZM566,418L560.42,426L548,428.459L542,421.543C542.868,419.362 543.579,417.181 544.25,415L551,421.632L566,418ZM424.216,418L429.796,426L442.216,428.459L448.216,421.543C447.348,419.362 446.636,417.181 445.966,415L439.216,421.632L424.216,418Z" style="fill:white;"/>
    </g>
</svg>
