<?xml version="1.0" encoding="UTF-8" standalone="no"?>
<!DOCTYPE svg PUBLIC "-//W3C//DTD SVG 1.1//EN" "http://www.w3.org/Graphics/SVG/1.1/DTD/svg11.dtd">
<svg width="100%" height="100%" viewBox="0 0 1000 1000" version="1.1" xmlns="http://www.w3.org/2000/svg" xmlns:xlink="http://www.w3.org/1999/xlink" xml:space="preserve" xmlns:serif="http://www.serif.com/" style="fill-rule:evenodd;clip-rule:evenodd;stroke-linejoin:round;stroke-miterlimit:2;">
    <g transform="matrix(2.36842,0,0,2.36842,-409.474,-615.526)">
        <path d="M380,507L388,507L388,524L432.196,524C432.272,519.673 432.55,515.338 433,511C435.832,510.792 438.727,510.787 442,512C441.486,516.049 441.164,520.05 441.042,524L490.022,524C490.016,523.67 490.009,523.335 490,523L510,530C506.969,562.479 495.075,586.676 478.334,605.415C455.63,630.827 424.812,646.043 388,646L388,646L384,646L380,646L380,646C343.188,646.043 312.37,630.827 289.666,605.415C272.925,586.676 261.031,562.479 258,530L278,523C277.991,523.335 277.984,523.67 277.978,524L326.958,524C326.836,520.05 326.514,516.049 326,512C329.273,510.787 332.168,510.792 335,511C335.45,515.338 335.728,519.673 335.804,524L380,524L380,507ZM432.225,530L388,530L388,633C417.956,630.249 441.532,618.707 459.496,601.198C440.178,577.673 432.879,553.903 432.225,530ZM335.775,530L380,530L380,633C350.044,630.249 326.468,618.707 308.504,601.198C327.822,577.673 335.121,553.903 335.775,530ZM441.013,530C441.518,553.286 449.315,574.78 466.238,594.038C479.948,578.104 489.286,557.609 490.002,530L441.013,530ZM326.987,530C326.482,553.286 318.685,574.78 301.762,594.038C288.052,578.104 278.714,557.609 277.998,530L326.987,530ZM517,533L514,554L574,563C558.49,553.319 541.816,543.532 517,533ZM251,533L254,554L194,563C209.51,553.319 226.184,543.532 251,533ZM383.231,497.997C317.92,497.856 258.211,516.927 202,548L202,477C248.767,446.061 307.712,427.042 384,425L384.893,425.025C460.748,427.191 519.415,446.182 566,477L566,548C509.569,516.806 449.612,497.707 384,498L383.231,497.997ZM520,444L502,437L511,356L530,364L520,444ZM248,444L266,437L257,356L238,364L248,444ZM383.075,416.027C343.933,417.21 305.461,423.082 268,436L256,334C294.592,308.231 337.672,296.893 384,296L385.085,296.023C431,297.071 473.709,308.432 512,334L500,436C462.244,422.98 423.462,417.118 384,416L383.075,416.027Z" style="fill:white;"/>
    </g>
</svg>
