<?xml version="1.0" encoding="UTF-8" standalone="no"?>
<!DOCTYPE svg PUBLIC "-//W3C//DTD SVG 1.1//EN" "http://www.w3.org/Graphics/SVG/1.1/DTD/svg11.dtd">
<svg width="100%" height="100%" viewBox="0 0 1000 1000" version="1.1" xmlns="http://www.w3.org/2000/svg" xmlns:xlink="http://www.w3.org/1999/xlink" xml:space="preserve" xmlns:serif="http://www.serif.com/" style="fill-rule:evenodd;clip-rule:evenodd;stroke-linejoin:round;stroke-miterlimit:2;">
    <g transform="matrix(1.12204,0,0,1.12204,-87.5781,-62.2038)">
        <path d="M652.004,852.093C660.36,852.818 669.574,854.724 679.647,857.811C671.041,852.384 662.549,846.937 654.33,841.438C635.937,836.74 619.043,830.155 603.305,822.112C600.189,817.15 600.188,814.117 608.305,816.112C620.709,823.826 634.123,830.816 648.228,837.309C624.404,820.995 603.357,804.181 589.305,786.112C584.235,768.608 589.343,766.803 602.305,777.112C622.022,805.473 650.156,832.153 681.111,858.265C687.381,860.241 693.981,862.667 700.909,865.543C690.76,857.37 681.799,848.702 673.914,839.601C623.007,805.471 585.791,747.131 567.07,656.112C572.533,627.306 578.876,631.287 585.776,656.112C591.831,744.251 625.069,799.549 672.394,837.826C624.287,780.944 617.396,707.427 624.747,631.462C613.805,616.835 602.978,599.988 590.359,596.112C583.735,592.583 584.784,589.281 590.359,586.112C610.079,590.808 616.864,611.415 624.97,629.209C626.536,613.597 628.695,597.879 631.209,582.186C625.42,558.592 616.825,531.5 606.135,508.112C589.415,471.535 562.538,435.01 543.305,453.112C553.295,462.519 542.251,464.04 541.305,464.62C540.034,465.398 533.853,462.659 536.305,453.112C546.296,439.966 559.62,441.921 572.523,451.748C568.287,443.729 566.172,434.508 563.519,423.549C561.445,414.984 561.277,407.067 562.988,399.902C566.713,384.307 577.655,372.716 584.521,369.087C594.046,364.052 629.741,357.281 621.227,392.112C616.8,410.225 600.857,405.089 600.701,402.511C600.587,400.629 595.281,385.063 612.255,386.112C612.626,371.218 593.871,375.234 588.305,377.925C576.849,383.467 554.304,399.155 578.963,457.326C589.15,467.199 598.652,481.384 605.513,496.112C616.827,520.398 628.289,552.68 631.716,579.05C637.421,544.103 644.812,509.342 651.305,476.112C653.445,465.161 655.528,454.562 657.5,444.268C653.262,424.104 648.682,404.373 634.305,397.112C648.949,390.393 655.25,408.664 659.771,432.259C661.146,424.887 662.449,417.672 663.66,410.593C655.197,378.116 642.845,352.123 614.305,353.112C645.169,336.644 657.24,364.221 665.174,401.505C671.665,361.382 674.759,325.659 670.343,291.066C648.571,255.043 624.037,256.856 612.305,261.904C605.164,264.977 595.102,276.599 600.305,291.112C617.574,272.492 624.966,291.416 625.305,294.686C625.698,298.478 616.41,316.157 599.305,302.112C580.462,282.299 600.997,260.601 610.305,257.805C622.416,254.168 651.752,251.507 669.922,287.928C669.364,283.975 668.706,280.039 667.943,276.112C659.481,232.579 628.619,218.138 608.305,230.716C618.901,244.411 604.668,247.747 603.305,247.748C601.44,247.749 589.061,243.649 598.305,230.716C608.248,208.578 651.68,214.651 667.912,250.078C665.085,238.834 661.657,228.429 655.305,222.112C646.449,217.295 649.039,213.416 649.305,211.956C649.631,210.17 655.697,207.176 660.305,215.112C668.139,223.881 670.17,240.858 671.26,259.165L671.26,259.165C671.628,260.45 671.963,261.766 672.262,263.112C672.391,263.688 672.52,264.267 672.649,264.849C674.673,245.82 685.254,231.391 696.305,228.201C703.669,226.076 721.736,226.631 727.305,244.112C729.914,252.3 720.265,252.625 719.658,251.112C719.305,250.232 714.796,247.732 721.305,243.112C718.654,232.674 702.685,230.823 695.193,234.112C686.475,237.939 679.316,249.86 673.435,268.413C678.456,291.334 683.507,318.552 679.195,351.112C678.516,356.24 677.835,361.293 677.151,366.28C703.793,324.967 734.942,321.473 746.979,328.112C754.106,332.042 762.427,345.488 752.305,370.112C746.293,377.134 743.729,375.887 744.305,367.112C745.955,315.052 714.442,336.043 676.461,371.282C671.049,410.236 665.368,445.296 658.314,481.112C651.383,516.297 644.755,551.848 639.906,586.684C648.92,570.721 662.056,559.598 673.208,547.894C713.543,505.562 766.308,510.236 770.428,526.112C772.471,533.988 776.575,572.7 724.77,596.112C703.625,605.668 701.412,589.697 702.765,586.112C703.942,582.992 711.957,564.522 728.305,576.112C742.421,555.07 732.306,538.858 725.612,536.112C715.793,532.084 688.82,545.411 658.294,573.124C664.861,569.055 673.79,565.288 687.305,562.112C696.182,561.167 697.278,567.208 695.393,568.112C694.32,568.627 688.136,575.705 685.352,568.024C672.43,569.752 659.643,576.567 646.872,584.018C644.319,586.573 641.754,589.22 639.185,591.959C632.858,639.096 629.933,684.842 634.084,726.552C632.912,657.975 686.336,627.94 695.205,630.507C701.861,632.433 731.448,638.208 718.305,676.112C714.972,681.981 711.639,685.045 708.305,676.112C705.629,655.388 694.12,655.57 688.305,657.316C672.779,661.978 624.818,704.054 656.06,806.112C666.205,824.77 679.657,840.665 696.096,855.318C694.284,838.105 695.414,825.174 703.305,822.074C707.99,820.234 721.561,820.34 725.305,828.112C730.31,835.158 724.053,838.523 723.271,838.112C722.7,837.812 716.991,835.686 721.305,828.112C714.471,824.287 709.207,823.546 705.305,825.477C698.817,828.688 696.095,839.288 696.176,855.39C714.616,871.812 736.813,886.674 762.305,902.112C738.681,891.715 718.742,879.729 701.99,866.409C677.628,857.828 655.502,854.44 636.305,857.858C620.07,860.748 593.924,866.533 594.305,882.112C605.882,874.004 609.78,885.021 609.878,887.112C610.009,889.926 604.874,900.001 594.305,894.112C561.857,876.031 611.859,857.255 631.04,853.112C634.437,852.378 638.051,851.943 641.884,851.806C620.819,847.93 599.624,845.436 578.305,844.417C574.999,844.259 571.668,844.176 568.305,844.164C524.861,855.459 484.048,868.996 453.305,891.112C433.094,898.985 430.659,895.055 443.305,881.112C487.855,855.298 528.545,847.554 568.304,844.164C537.312,844.05 504.476,849.915 472.686,857.209C351.434,914.461 282.458,907.277 272.675,871.112C265.915,846.124 306.795,822.954 328.305,822.565C339.173,822.369 349.719,828.439 358.305,844.164C351.226,855.214 346.471,853.914 343.305,844.164C333.963,836.877 325.598,834.267 318.305,834.806C301.099,836.076 281.365,856.278 285.875,871.112C295.404,902.454 362.85,896.666 467.657,858.375C417.894,870.05 371.059,884.661 338.305,884.583C322.169,884.544 309.138,878.687 300.305,869.112C304.17,844.467 328.338,848.396 331.006,851.495C334.459,855.507 334.277,862.8 318.305,869.112C327.714,871.461 337.769,873.772 348.305,873.298C413.979,870.347 506.307,832.64 578.305,839.093C608.341,841.785 633.544,844.292 652.004,852.093ZM395.337,150.019C386.981,149.294 377.767,147.388 367.694,144.301C376.3,149.728 384.792,155.175 393.011,160.674C411.404,165.372 428.298,171.957 444.036,180C447.152,184.962 447.153,187.995 439.036,186C426.632,178.286 413.218,171.296 399.113,164.803C422.937,181.117 443.985,197.931 458.036,216C463.106,233.504 457.998,235.309 445.036,225C425.319,196.639 397.185,169.959 366.231,143.847C359.96,141.871 353.36,139.445 346.432,136.569C356.581,144.742 365.542,153.41 373.427,162.511C424.334,196.641 461.55,254.981 480.272,346C474.808,374.806 468.466,370.825 461.565,346C455.51,257.861 422.272,202.563 374.947,164.286C423.054,221.168 429.945,294.685 422.594,370.65C433.536,385.277 444.363,402.124 456.982,406C463.606,409.529 462.557,412.831 456.982,416C437.262,411.304 430.477,390.697 422.372,372.903C420.805,388.515 418.646,404.233 416.132,419.926C421.921,443.52 430.516,470.612 441.207,494C457.926,530.577 484.803,567.102 504.036,549C494.046,539.593 505.09,538.072 506.036,537.492C507.307,536.714 513.488,539.453 511.036,549C501.045,562.146 487.722,560.191 474.818,550.364C479.054,558.383 481.169,567.604 483.822,578.563C485.896,587.128 486.064,595.045 484.353,602.21C480.628,617.805 469.686,629.396 462.82,633.025C453.296,638.06 417.6,644.831 426.114,610C430.541,591.887 446.485,597.023 446.64,599.601C446.754,601.483 452.06,617.049 435.086,616C434.715,630.894 453.47,626.878 459.036,624.187C470.492,618.645 493.037,602.957 468.378,544.787C458.191,534.913 448.689,520.728 441.828,506C430.514,481.714 419.052,449.432 415.625,423.062C409.92,458.009 402.529,492.77 396.036,526C393.896,536.951 391.813,547.55 389.841,557.844C394.079,578.008 398.659,597.739 413.036,605C398.392,611.719 392.092,593.448 387.57,569.853C386.195,577.225 384.892,584.44 383.681,591.519C392.144,623.996 404.496,649.989 433.036,649C402.173,665.468 390.101,637.891 382.167,600.607C375.676,640.73 372.583,676.453 376.998,711.046C398.77,747.069 423.304,745.256 435.036,740.208C442.177,737.135 452.239,725.513 447.036,711C429.768,729.62 422.375,710.696 422.036,707.426C421.643,703.634 430.931,685.955 448.036,700C466.879,719.813 446.344,741.511 437.036,744.307C424.925,747.944 395.59,750.606 377.42,714.184C377.978,718.137 378.635,722.073 379.398,726C387.861,769.533 418.722,783.974 439.036,771.396C428.44,757.701 442.673,754.365 444.036,754.364C445.902,754.363 458.28,758.463 449.036,771.396C439.094,793.534 395.661,787.461 379.429,752.034C382.257,763.279 385.684,773.683 392.036,780C400.892,784.817 398.302,788.696 398.036,790.156C397.71,791.942 391.644,794.936 387.036,787C379.202,778.231 377.171,761.254 376.081,742.947L376.081,742.947C375.713,741.662 375.379,740.346 375.079,739C374.95,738.424 374.822,737.845 374.692,737.263C372.668,756.292 362.087,770.721 351.036,773.911C343.672,776.036 325.605,775.481 320.036,758C317.427,749.812 327.077,749.487 327.684,751C328.036,751.88 332.546,754.38 326.036,759C328.687,769.438 344.656,771.289 352.149,768C360.867,764.173 368.025,752.252 373.906,733.699C368.885,710.778 363.834,683.56 368.146,651C368.825,645.872 369.506,640.819 370.19,635.832C343.548,677.145 312.4,680.639 300.362,674C293.235,670.07 284.914,656.624 295.036,632C301.048,624.978 303.612,626.225 303.036,635C301.386,687.06 332.899,666.069 370.881,630.83C376.292,591.876 381.973,556.816 389.027,521C395.958,485.815 402.586,450.264 407.435,415.428C398.421,431.391 385.286,442.514 374.133,454.218C333.799,496.55 281.033,491.876 276.914,476C274.87,468.124 270.766,429.412 322.572,406C343.716,396.445 345.929,412.415 344.576,416C343.399,419.12 335.384,437.59 319.036,426C304.92,447.042 315.035,463.254 321.729,466C331.548,470.028 358.521,456.701 389.047,428.988C382.48,433.057 373.551,436.824 360.036,440C351.159,440.945 350.063,434.904 351.948,434C353.021,433.485 359.205,426.407 361.989,434.088C374.911,432.36 387.698,425.545 400.469,418.094C403.022,415.539 405.587,412.892 408.156,410.153C414.483,363.016 417.408,317.27 413.257,275.56C414.429,344.137 361.006,374.172 352.136,371.605C345.48,369.679 315.893,363.904 329.036,326C332.369,320.132 335.702,317.067 339.036,326C341.712,346.724 353.221,346.542 359.036,344.796C374.562,340.134 422.523,298.058 391.282,196C381.136,177.342 367.684,161.447 351.245,146.794C353.058,164.007 351.927,176.938 344.036,180.038C339.351,181.878 325.78,181.772 322.036,174C317.031,166.954 323.288,163.589 324.07,164C324.641,164.3 330.35,166.426 326.036,174C332.871,177.825 338.134,178.566 342.036,176.635C348.524,173.424 351.246,162.824 351.165,146.722C332.725,130.3 310.528,115.438 285.036,100C308.66,110.397 328.599,122.383 345.351,135.703C369.713,144.284 391.839,147.672 411.036,144.254C427.271,141.364 453.417,135.579 453.036,120C441.459,128.108 437.561,117.091 437.464,115C437.332,112.186 442.467,102.111 453.036,108C485.484,126.081 435.482,144.857 416.301,149C412.904,149.734 409.29,150.169 405.457,150.306C426.522,154.182 447.717,156.677 469.036,157.695C472.342,157.853 475.673,157.936 479.036,157.948C522.48,146.653 563.293,133.116 594.036,111C614.248,103.128 616.682,107.057 604.036,121C559.486,146.814 518.796,154.558 479.037,157.948C510.029,158.062 542.865,152.197 574.655,144.903C695.907,87.651 764.883,94.835 774.666,131C781.426,155.988 740.546,179.158 719.036,179.547C708.168,179.743 697.622,173.673 689.036,157.948C696.115,146.898 700.87,148.198 704.036,157.948C713.378,165.235 721.743,167.845 729.036,167.306C746.242,166.036 765.976,145.834 761.466,131C751.937,99.658 684.491,105.446 579.684,143.737C629.447,132.062 676.282,117.451 709.036,117.529C725.172,117.568 738.203,123.425 747.036,133C743.171,157.645 719.003,153.716 716.336,150.617C712.882,146.605 713.064,139.312 729.036,133C719.627,130.651 709.572,128.34 699.036,128.814C633.362,131.765 541.034,169.472 469.036,163.019C439,160.328 413.797,157.82 395.337,150.019Z" style="fill:white;"/>
    </g>
</svg>
