<?xml version="1.0" encoding="UTF-8" standalone="no"?>
<!DOCTYPE svg PUBLIC "-//W3C//DTD SVG 1.1//EN" "http://www.w3.org/Graphics/SVG/1.1/DTD/svg11.dtd">
<svg width="100%" height="100%" viewBox="0 0 1000 1000" version="1.1" xmlns="http://www.w3.org/2000/svg" xmlns:xlink="http://www.w3.org/1999/xlink" xml:space="preserve" xmlns:serif="http://www.serif.com/" style="fill-rule:evenodd;clip-rule:evenodd;stroke-linejoin:round;stroke-miterlimit:2;">
    <g transform="matrix(2.32911,0,0,2.32911,-520.151,-736.434)">
        <path d="M440,484.215C445.141,484.555 450.146,485.141 455,486C509.014,464.399 561.919,464.96 614,482C619.565,481.151 624.891,481.521 630,483C631.913,492.274 631.273,501.182 630,510C620.809,510.659 616.277,517.996 615,530C604.933,568.612 580.871,588.105 543.068,591.751C514.736,594.483 490.205,586.105 470,558.605C461.111,546.507 455.989,528.133 455,503C449.42,502.304 444.039,500.988 438,500.961C431.961,500.988 426.58,502.304 421,503C420.011,528.133 414.889,546.507 406,558.605C385.795,586.105 361.264,594.483 332.932,591.751C295.129,588.105 271.067,568.612 261,530C259.723,517.996 255.191,510.659 246,510C244.727,501.182 244.087,492.274 246,483C251.109,481.521 256.435,481.151 262,482C314.081,464.96 366.986,464.399 421,486C425.854,485.141 430.859,484.555 436,484.215L436,484C436.669,484.028 437.336,484.059 438,484.095C438.664,484.059 439.331,484.028 440,484L440,484.215ZM602,564C598.09,569.849 592.931,574.725 587,579C592.852,583.012 599.751,585.392 607.788,586C612.822,585.765 614.104,583.142 613,579C610.331,574.352 606.468,569.282 602,564ZM274,564C277.91,569.849 283.069,574.725 289,579C283.148,583.012 276.249,585.392 268.212,586C263.178,585.765 261.896,583.142 263,579C265.669,574.352 269.532,569.282 274,564ZM472.612,541.503C486.183,574.291 517.625,583.917 535,584C566.91,584.152 605.262,560.789 607,520C613.05,488.737 583.752,478.429 536.128,478.985C536.162,478.642 479.531,479.882 470,493.168C468.507,495.249 467.451,497.731 466.779,500.5C473.3,504.56 478.505,509.41 478.203,515C477.758,523.221 474.698,532.3 472.612,541.503ZM403.388,541.503C389.817,574.291 358.375,583.917 341,584C309.09,584.152 270.738,560.789 269,520C262.95,488.737 292.248,478.429 339.872,478.985C339.838,478.642 396.469,479.882 406,493.168C407.493,495.249 408.549,497.731 409.221,500.5C402.7,504.56 397.495,509.41 397.797,515C398.242,523.221 401.302,532.3 403.388,541.503ZM592,553C588.184,558.912 583.184,563.579 577,567C574.238,564.781 557.082,529.359 537,510.135C533.879,507.147 528.304,507.605 523,507C505.811,505.853 488.809,503.653 472,502.132L541,504C544.991,504.395 547.983,504.917 550.5,505.5C564.077,518.655 578.015,535.58 592,553ZM284,553C287.68,558.454 292.68,563.121 299,567C301.762,564.781 318.918,529.359 339,510.135C342.121,507.147 347.696,507.605 353,507C370.189,505.853 387.191,503.653 404,502.132L335,504C331.009,504.395 328.017,504.917 325.5,505.5C311.923,518.655 297.985,535.58 284,553ZM469,504C473.474,507.612 475.713,511.569 475.964,515.831C476.215,520.094 474.477,524.663 471,529.5C467.988,521 467.14,512.499 469,504ZM407,504C402.526,507.612 400.287,511.569 400.036,515.831C399.785,520.094 401.523,524.663 405,529.5C408.012,521 408.86,512.499 407,504ZM468.5,500.5C469.517,495.4 472.98,491.162 479.5,488C512.978,486.966 546.137,485.707 581.5,486C593.076,489.384 599.665,494.753 603.5,502C560.41,502.494 514.985,501.51 468.5,500.5ZM407.5,500.5C406.483,495.4 403.02,491.162 396.5,488C363.022,486.966 329.863,485.707 294.5,486C282.924,489.384 276.335,494.753 272.5,502C315.59,502.494 361.015,501.51 407.5,500.5Z" style="fill:white;"/>
    </g>
</svg>
