<?xml version="1.0" encoding="UTF-8" standalone="no"?>
<!DOCTYPE svg PUBLIC "-//W3C//DTD SVG 1.1//EN" "http://www.w3.org/Graphics/SVG/1.1/DTD/svg11.dtd">
<svg width="100%" height="100%" viewBox="0 0 1000 1000" version="1.1" xmlns="http://www.w3.org/2000/svg" xmlns:xlink="http://www.w3.org/1999/xlink" xml:space="preserve" xmlns:serif="http://www.serif.com/" style="fill-rule:evenodd;clip-rule:evenodd;stroke-linejoin:round;stroke-miterlimit:2;">
    <g transform="matrix(3.52088,0,0,3.36205,-1225.23,-1219.02)">
        <path d="M490,622.5C496.172,621.65 502.083,624.112 508,626C516.531,625.027 522.728,622.7 529,617C536.541,610.148 542.107,595.601 547,578C544.028,579.451 539.045,583.68 536,591.5C531.324,603.508 524.468,615.613 514.5,619.919C509.17,622.222 502.212,618.604 490,615L490,615.125C477.788,618.729 470.83,622.347 465.5,620.044C455.532,615.738 448.676,603.633 444,591.625C440.955,583.805 435.972,579.576 433,578.125C437.893,595.726 443.459,610.273 451,617.125C457.272,622.824 463.469,625.152 472,626.125C477.917,624.237 483.828,621.775 490,622.625L490,622.5ZM451,555.125C454.736,558.214 459.473,564.407 459.855,575.125C460.184,584.354 459.651,596.281 463,606.125C469.353,608.952 469.17,611.331 468.505,611.986C467.731,612.747 465.156,612.003 462,607.125C459.64,601.034 457.82,592.99 457.941,575.125C457.986,568.567 454.07,561.437 451,555.125ZM529,555C525.264,558.089 520.527,564.282 520.145,575C519.816,584.229 520.349,596.156 517,606C510.647,608.827 510.83,611.206 511.495,611.861C512.269,612.622 514.844,611.878 518,607C520.36,600.909 522.18,592.865 522.059,575C522.014,568.442 525.93,561.312 529,555ZM432,546.125C435.736,549.214 449.617,562.948 453,573.125C456.022,582.218 456.378,593.194 458,603.125C463.317,607.558 458.325,613.97 456,603.125C455.678,593.788 453.885,583.196 450,572.125C445.883,560.395 433.694,548.041 432,546.125ZM548,546C544.264,549.089 530.383,562.823 527,573C523.978,582.093 523.622,593.069 522,603C516.683,607.433 521.675,613.845 524,603C524.322,593.663 526.115,583.071 530,572C534.117,560.27 546.306,547.916 548,546ZM484,600.125C484.667,600.631 486.333,605.631 486,606.125C485.667,606.619 483.333,604.088 483,603.088C482.667,602.088 483.333,599.619 484,600.125ZM496,600C495.333,600.506 493.667,605.506 494,606C494.333,606.494 496.667,603.963 497,602.963C497.333,601.963 496.667,599.494 496,600ZM422,544.125C425.508,549.745 432.581,557.51 436,562.125C440.293,567.919 444.811,580.081 448.332,589.125C449.576,592.32 450.696,595.126 451.637,597.125C456.954,601.558 451.962,607.97 449.637,597.125C449.68,597.052 448.035,593.445 445.626,588.125C442.664,581.585 441.549,572.456 435,564.125C427.602,554.713 423.015,546.523 422,544.125ZM558,544C554.492,549.62 547.419,557.385 544,562C539.707,567.794 535.189,579.956 531.668,589C530.424,592.195 529.304,595.001 528.363,597C523.046,601.433 528.038,607.845 530.363,597C530.32,596.927 531.965,593.32 534.374,588C537.336,581.46 538.451,572.331 545,564C552.398,554.588 556.985,546.398 558,544ZM468.5,538.625C471.973,544.757 475.332,550.652 474.5,558.625C472.876,562.146 469.7,560.28 469.5,558.625C469.199,556.132 470.049,547.039 468.5,538.625ZM511.5,538.5C508.027,544.632 504.668,550.527 505.5,558.5C507.124,562.021 510.3,560.155 510.5,558.5C510.801,556.007 509.951,546.914 511.5,538.5ZM425.5,487.625C444.575,503.54 459.992,521.063 468.5,541.625C454.669,546.315 441.463,541.587 430,510.625L425.5,487.625ZM554.5,487.5C535.425,503.415 520.008,520.938 511.5,541.5C525.331,546.19 538.537,541.462 550,510.5L554.5,487.5ZM459.97,528.892C459.608,534.33 455.961,538.701 451.344,539.304C454.849,540.999 458.369,541.336 462,541.125L465,537.625C463.364,534.588 461.69,531.682 459.97,528.892ZM520.03,528.767C520.392,534.205 524.039,538.576 528.656,539.179C525.151,540.874 521.631,541.211 518,541L515,537.5C516.636,534.463 518.31,531.557 520.03,528.767ZM451.638,516.74C446.313,509.761 440.503,503.511 434,497.625L431,509.625C434.278,518.072 437.436,524.341 440.535,528.963C440.512,528.646 440.5,528.325 440.5,528C440.5,521.722 444.869,516.625 450.25,516.625C450.721,516.625 451.185,516.664 451.638,516.74ZM528.362,516.615C533.687,509.636 539.497,503.386 546,497.5L549,509.5C545.722,517.947 542.564,524.216 539.465,528.838C539.488,528.521 539.5,528.2 539.5,527.875C539.5,521.597 535.131,516.5 529.75,516.5C529.279,516.5 528.815,516.539 528.362,516.615ZM443,445.125C445.544,445.985 449.462,448.859 452.963,453.125C456.031,456.862 457.994,461.906 460,467.125C463.631,476.569 466.452,495.129 466,505.125C472.353,507.952 468.751,510.57 468,511.125C466.737,512.058 465.367,511.479 464,505.97C464.62,500.13 462.991,487.929 457.953,469.125C456.845,464.99 454.285,459.805 451,455.273C447.92,451.024 444.642,447.258 443,445.125ZM537,445C534.456,445.86 530.538,448.734 527.037,453C523.969,456.737 522.006,461.781 520,467C516.369,476.444 513.548,495.004 514,505C507.647,507.827 511.249,510.445 512,511C513.263,511.933 514.633,511.354 516,505.845C515.38,500.005 517.009,487.804 522.047,469C523.155,464.865 525.715,459.68 529,455.148C532.08,450.899 535.358,447.133 537,445ZM430,448.125C433.439,451.413 442.929,459.408 447,469.125C450.703,477.963 453.968,490.077 455.59,500.008C460.908,504.441 455.915,510.852 453.59,500.008C453.229,494.313 450.442,484.113 445,470.125C440.596,458.804 431.268,450.312 430,448.125ZM550,448C546.561,451.288 537.071,459.283 533,469C529.297,477.838 526.032,489.952 524.41,499.883C519.092,504.316 524.085,510.728 526.41,499.883C526.771,494.188 529.558,483.988 535,470C539.404,458.679 548.732,450.187 550,448ZM423,454.125C429.457,457.453 443.616,489.916 443,493.125C448.293,497.54 443.164,503.855 441,493.125C441.043,493.052 437.409,481.445 435,476.125C432.038,469.585 424.015,456.523 423,454.125ZM557,454C550.543,457.328 536.384,489.791 537,493C531.707,497.415 536.836,503.73 539,493C538.957,492.927 542.591,481.32 545,476C547.962,469.46 555.985,456.398 557,454ZM420,467.125C417.72,471.343 416.994,475.171 417.889,478.593C418.783,482.015 421.298,485.031 425.5,487.625L420,467.125ZM560,467C562.28,471.218 563.006,475.046 562.111,478.468C561.217,481.89 558.702,484.906 554.5,487.5L560,467ZM445,430.125C453.447,427.172 449.792,417.043 433,399.125C428.686,395.355 425.217,397.815 422,402.125C409.123,431.318 410.434,449.126 414,465.125C421.112,451.352 429.548,438.445 445,430.125ZM535,430C526.553,427.047 530.208,416.919 547,399C551.314,395.23 554.783,397.69 558,402C570.877,431.193 569.566,449.001 566,465C558.888,451.227 550.452,438.32 535,430ZM490,576.5C492.915,574.59 495.319,572.163 496.5,568.5L505,575L490,546.5L490,546.625L475,575.125L483.5,568.625C484.681,572.287 487.085,574.715 490,576.625L490,576.5ZM490,645.125C453.621,646.206 423.084,609.452 409,466.125C404.157,408.935 413.568,383.691 438,377.777C446.378,375.75 455.573,389.414 465,411.125L490,413.125L490,413L515,411C524.427,389.289 533.622,375.625 542,377.653C566.432,383.566 575.843,408.81 571,466C556.916,609.327 526.379,646.081 490,645L490,645.125Z" style="fill:white;"/>
    </g>
</svg>
