<?xml version="1.0" encoding="UTF-8" standalone="no"?>
<!DOCTYPE svg PUBLIC "-//W3C//DTD SVG 1.1//EN" "http://www.w3.org/Graphics/SVG/1.1/DTD/svg11.dtd">
<svg width="100%" height="100%" viewBox="0 0 1000 1000" version="1.1" xmlns="http://www.w3.org/2000/svg" xmlns:xlink="http://www.w3.org/1999/xlink" xml:space="preserve" xmlns:serif="http://www.serif.com/" style="fill-rule:evenodd;clip-rule:evenodd;stroke-linejoin:round;stroke-miterlimit:2;">
    <path d="M500.934,282.147C398.982,288.67 351.862,347.854 334.683,411.095C315.86,480.393 336.669,560.672 446.841,613.844C460.601,618.202 466.284,624.455 465.273,632.276L465.273,825.809C451.018,869.221 425.352,886.508 398.148,896.997C333.404,921.962 207.517,851.634 220.382,816.594C227.687,796.697 235.032,779.626 256.474,781.973C263.78,782.772 271.954,788.502 280.955,798.162L317.819,835.025C341.662,847.548 365.933,852.746 391.546,835.025C407.737,805.257 416.121,737.644 409.978,706.003C404.755,679.105 368.082,653.763 354.682,645.178C318.085,621.732 273.809,547.298 261.695,464.547C251.002,391.507 293.625,313.8 354.682,263.641C390.815,233.958 444.352,212.571 502.136,212.701C559.484,212.829 613.366,233.681 649.59,263.641C701.855,306.87 746.82,387.373 742.578,464.547C737.988,548.054 686.188,621.732 649.59,645.178C636.19,653.763 599.518,679.105 594.295,706.003C588.151,737.644 596.535,805.257 612.727,835.025C638.339,852.746 662.611,847.548 686.454,835.025L723.317,798.162C732.318,788.502 740.492,782.772 747.799,781.973C769.24,779.626 776.585,796.697 783.89,816.594C796.755,851.634 670.869,921.962 606.125,896.997C578.921,886.508 553.255,869.221 539,825.809L539,632.276C537.989,624.455 543.671,618.202 557.431,613.844C667.604,560.672 688.412,480.393 669.589,411.095C652.343,347.607 604.921,288.206 502.136,282.073L500.934,282.147ZM115.07,595.413C135.415,595.413 151.933,611.931 151.933,632.276C151.933,652.622 135.415,669.14 115.07,669.14C94.724,669.14 78.206,652.622 78.206,632.276C78.206,611.931 94.724,595.413 115.07,595.413ZM889.203,595.413C909.548,595.413 926.066,611.931 926.066,632.276C926.066,652.622 909.548,669.14 889.203,669.14C868.857,669.14 852.339,652.622 852.339,632.276C852.339,611.931 868.857,595.413 889.203,595.413ZM55.502,411.095C77.708,357.013 232.833,222.323 258.251,226.778C279.631,230.524 300.401,252.437 285.899,263.641C237.841,300.768 144.796,376.346 129.229,411.095C121.944,427.355 118.719,450.16 129.229,464.547C171.544,522.478 274.504,592.953 276.683,595.413C295.066,616.162 266.878,647.221 239.819,637.806C196.627,622.776 77.354,514.19 55.502,466.39C47.838,449.627 48.501,428.146 55.502,411.095ZM944.498,411.095C922.292,357.013 767.167,222.323 741.749,226.778C720.369,230.524 699.599,252.437 714.101,263.641C762.159,300.768 855.204,376.346 870.771,411.095C878.056,427.355 881.281,450.16 870.771,464.547C828.456,522.478 725.496,592.953 723.317,595.413C704.934,616.162 733.122,647.221 760.181,637.806C803.373,622.776 922.646,514.19 944.498,466.39C952.162,449.627 951.499,428.146 944.498,411.095ZM500.293,355.8C551.157,355.8 592.452,397.095 592.452,447.959C592.452,498.823 551.157,540.117 500.293,540.117C449.429,540.117 408.134,498.823 408.134,447.959C408.134,397.095 449.429,355.8 500.293,355.8ZM502.136,97.756C522.482,97.756 539,114.274 539,134.619C539,154.965 522.482,171.483 502.136,171.483C481.791,171.483 465.273,154.965 465.273,134.619C465.273,114.274 481.791,97.756 502.136,97.756Z" style="fill:white;"/>
</svg>
