<?xml version="1.0" encoding="UTF-8" standalone="no"?>
<!DOCTYPE svg PUBLIC "-//W3C//DTD SVG 1.1//EN" "http://www.w3.org/Graphics/SVG/1.1/DTD/svg11.dtd">
<svg width="100%" height="100%" viewBox="0 0 1000 1000" version="1.1" xmlns="http://www.w3.org/2000/svg" xmlns:xlink="http://www.w3.org/1999/xlink" xml:space="preserve" xmlns:serif="http://www.serif.com/" style="fill-rule:evenodd;clip-rule:evenodd;stroke-linejoin:round;stroke-miterlimit:2;">
    <g transform="matrix(1.66976,0,0,1.66976,-334.879,-354.082)">
        <path d="M499.306,780.961C440.404,777.589 411.162,749.495 404,703C433.218,718.929 465.038,729.935 500,735L500.819,734.88C535.458,729.763 567.01,718.805 596,703C588.81,749.678 559.367,777.809 500,781L499.306,780.961ZM499.108,697.954C480.426,696.923 464.254,692.325 450,685C462.617,673.985 472.536,661.719 475,646C430.1,647.416 383.392,644.321 350,629.461C314.457,613.643 293.697,583.585 297.651,539C299.343,519.926 307.63,497.226 331,470C353.701,452.157 339.923,415.91 324,397.537C314.93,387.072 298.77,388.042 280,394C265.061,392.66 261.352,386.278 273,373C314.357,365.723 352.127,369.445 359,424C358.083,437.393 363.488,438.094 372,429L393,406C400.561,339.639 366.106,309.158 308,302C295.061,295.161 292.898,288.461 309,282C371.447,287.455 414.389,311.788 412,380C430.748,366.043 438.413,352.033 438.919,338C440.029,307.202 414.269,281.834 370,265C354.537,253.429 353.254,245.551 380,242C448.401,276.536 475.611,315.136 460,360C453.584,372.793 443.892,384.493 432,396.25C415.083,412.974 393.716,429.811 371,450.067C343.388,474.688 330.088,510.484 326,535C326.073,579.548 350.073,597.116 380,608C444.008,620.386 489.311,615.911 486.928,572C457.379,563.297 442.193,554.389 440,542C459.772,546.9 479.777,548.86 500,550L501.895,549.891C521.475,548.734 540.846,546.747 560,542C557.807,554.389 542.621,563.297 513.072,572C510.689,615.911 555.992,620.386 620,608C649.927,597.116 673.927,579.548 674,535C669.912,510.484 656.612,474.688 629,450.067C606.284,429.811 584.917,412.974 568,396.25C556.108,384.493 546.416,372.793 540,360C524.389,315.136 551.599,276.536 620,242C646.746,245.551 645.463,253.429 630,265C585.731,281.834 559.971,307.202 561.081,338C561.587,352.033 569.252,366.043 588,380C585.611,311.788 628.553,287.455 691,282C707.102,288.461 704.939,295.161 692,302C633.894,309.158 599.439,339.639 607,406L628,429C636.512,438.094 641.917,437.393 641,424C647.873,369.445 685.643,365.723 727,373C738.648,386.278 734.939,392.66 720,394C701.23,388.042 685.07,387.072 676,397.537C660.077,415.91 646.299,452.157 669,470C692.37,497.226 700.657,519.926 702.349,539C706.303,583.585 685.543,613.643 650,629.461C616.608,644.321 569.9,647.416 525,646C527.464,661.719 537.383,673.985 550,685C535.52,692.441 519.061,697.068 500,698L499.108,697.954ZM499.398,527.834C474.026,520.752 462.249,506.414 464.031,488.106C466.222,465.594 477.592,451.405 500,450L500.523,450.035C522.585,451.626 533.796,465.769 535.969,488.106C537.765,506.558 525.788,520.977 500,528L499.398,527.834Z" style="fill:white;"/>
    </g>
</svg>
