<?xml version="1.0" encoding="UTF-8" standalone="no"?>
<!DOCTYPE svg PUBLIC "-//W3C//DTD SVG 1.1//EN" "http://www.w3.org/Graphics/SVG/1.1/DTD/svg11.dtd">
<svg width="100%" height="100%" viewBox="0 0 1000 1000" version="1.1" xmlns="http://www.w3.org/2000/svg" xmlns:xlink="http://www.w3.org/1999/xlink" xml:space="preserve" xmlns:serif="http://www.serif.com/" style="fill-rule:evenodd;clip-rule:evenodd;stroke-linejoin:round;stroke-miterlimit:2;">
    <path d="M669.968,568.325L574.594,568.325C565.232,550.696 557.231,538.201 548.474,532.326C540.491,526.97 542.904,514.687 542.904,505.511C546.506,478.647 531.288,492.11 520.964,483.572C505.464,470.751 522.953,442.974 547.779,439.693C649.464,431.538 764.456,426.733 950,439.693L915.872,464.07C787.075,458.889 691.916,457.837 596.533,456.757C694.127,462.594 793.798,468.097 876.869,476.259C865.593,484.5 848.911,491.837 828.115,491.1C756.118,488.546 676.743,478.855 596.533,468.946C657.329,481.437 722.899,492.544 798.862,500.636C780.123,506.101 757.024,513.855 735.482,510.656C694.043,504.502 649.299,492.242 603.846,478.697C629.066,488.481 654.259,498.236 679.415,507.949C671.808,508.661 664.291,509.784 657.476,508.141C623.872,500.042 598.198,485.3 589.22,494.299C580.575,502.964 582.796,528.6 613.597,540.782C621.789,544.022 630.176,546.06 637.974,548.117C652.228,551.875 662.711,560.241 669.968,568.325ZM330.032,568.325L425.406,568.325C434.768,550.696 442.769,538.201 451.526,532.326C459.509,526.97 457.096,514.687 457.096,505.511C453.494,478.647 468.712,492.11 479.036,483.572C494.536,470.751 477.047,442.974 452.221,439.693C350.536,431.538 235.544,426.733 50,439.693L84.128,464.07C212.925,458.889 308.084,457.837 403.467,456.757C305.873,462.594 206.202,468.097 123.131,476.259C134.407,484.5 151.089,491.837 171.885,491.1C243.882,488.546 323.257,478.855 403.467,468.946C342.671,481.437 277.101,492.544 201.138,500.636C219.877,506.101 242.976,513.855 264.518,510.656C305.957,504.502 350.701,492.242 396.154,478.697C370.934,488.481 345.741,498.236 320.585,507.949C328.192,508.661 335.709,509.784 342.524,508.141C376.128,500.042 401.802,485.3 410.78,494.299C419.425,502.964 417.204,528.6 386.403,540.782C378.211,544.022 369.824,546.06 362.026,548.117C347.772,551.875 337.289,560.241 330.032,568.325Z" style="fill:white;"/>
</svg>
