<?xml version="1.0" encoding="UTF-8" standalone="no"?>
<!DOCTYPE svg PUBLIC "-//W3C//DTD SVG 1.1//EN" "http://www.w3.org/Graphics/SVG/1.1/DTD/svg11.dtd">
<svg width="100%" height="100%" viewBox="0 0 1000 1000" version="1.1" xmlns="http://www.w3.org/2000/svg" xmlns:xlink="http://www.w3.org/1999/xlink" xml:space="preserve" xmlns:serif="http://www.serif.com/" style="fill-rule:evenodd;clip-rule:evenodd;stroke-linejoin:round;stroke-miterlimit:2;">
    <g transform="matrix(6.8231,0,0,6.8231,-492.107,-2918.38)">
        <path d="M145.404,435.048C181.804,435.048 211.356,464.6 211.356,501C211.356,537.4 181.804,566.952 145.404,566.952C109.004,566.952 79.452,537.4 79.452,501C79.452,464.6 109.004,435.048 145.404,435.048ZM185.836,541.965C178.988,540.199 175.081,527.081 147.619,542.087C135.88,548.502 122.803,549.322 112.716,548.383C122.001,554.805 133.267,558.57 145.404,558.57C161.154,558.57 175.436,552.231 185.836,541.965ZM192.582,533.983C199.13,524.639 202.974,513.265 202.974,501C202.974,469.227 177.178,443.43 145.404,443.43C113.631,443.43 87.835,469.227 87.835,501C87.835,517.335 94.652,532.09 105.593,542.57C117.291,545.826 132.686,546.061 144.696,539.779C153.205,535.328 160.08,530.299 166.661,527.822C179.782,522.882 189.446,524.271 192.582,533.983ZM176.404,520.466C166.749,521.463 157.721,526.372 147.909,533.009C122.243,550.37 94.315,540.556 101.382,525.117C102.364,522.97 110.715,520.632 116.85,527.886C120.332,505.252 118.514,480.431 115.222,459.505C112.926,444.912 187.865,452.713 184.755,465.211C180.218,483.445 175.263,501.212 176.404,520.466ZM155.653,505.963C149.675,504.589 149.536,499.237 155.685,499.335C166.353,499.507 166.905,523.63 148.183,514.379C146.981,513.785 139.047,509.89 132.584,514.966C135.459,509.296 141.947,499.848 137.496,486.179C132.172,469.829 141.902,462.839 147.171,471.346C154.489,467.423 146.247,457.822 136.515,464.122C134.416,465.481 132.795,467.915 127.592,470.212C129.266,471.566 130.639,473.495 130.937,476.019C132.105,485.902 131.861,501.213 130.015,509.738C129.318,512.959 127.455,514.954 125.669,515.426L129.25,521.22C136.84,517.214 142.687,517.536 147.276,519.311C167.753,527.234 174.146,496.776 155.337,494.472C140.222,492.621 142.972,516.124 155.653,505.963Z" style="fill:white;"/>
    </g>
</svg>
