<?xml version="1.0" encoding="UTF-8" standalone="no"?>
<!DOCTYPE svg PUBLIC "-//W3C//DTD SVG 1.1//EN" "http://www.w3.org/Graphics/SVG/1.1/DTD/svg11.dtd">
<svg width="100%" height="100%" viewBox="0 0 1000 1000" version="1.1" xmlns="http://www.w3.org/2000/svg" xmlns:xlink="http://www.w3.org/1999/xlink" xml:space="preserve" xmlns:serif="http://www.serif.com/" style="fill-rule:evenodd;clip-rule:evenodd;stroke-linejoin:round;stroke-miterlimit:2;">
    <g transform="matrix(1.32978,0,0,1.32978,-109.163,-204.052)">
        <path d="M457.066,761.317L455.435,761.322L453.199,761.336L450.871,761.36L448.409,761.396L445.971,761.443L444.316,761.481C331.356,760.208 445.441,849.725 446.352,859.958C446.352,859.958 414.436,875.379 360.957,863.105L360.923,863.095C220.026,821.623 116.6,684.448 114.062,530.715L114.029,530.715C114.033,530.297 114.038,529.88 114.044,529.448C114.038,529.016 114.033,528.599 114.029,528.181L114.062,528.181C116.6,374.449 220.026,237.273 360.923,195.801L360.957,195.791C414.436,183.517 446.352,198.938 446.352,198.938C445.441,209.171 331.356,298.689 444.316,297.415L445.971,297.453L448.409,297.5L450.871,297.536L453.199,297.56L455.435,297.574L457.066,297.58L459.117,297.58L460.748,297.574L462.985,297.56L465.312,297.536L467.774,297.5L470.212,297.453L471.867,297.415C584.827,298.689 470.743,209.171 469.832,198.938C469.832,198.938 501.747,183.517 555.226,195.791L555.26,195.801C696.157,237.273 799.583,374.449 802.121,528.181L802.154,528.181C802.15,528.599 802.145,529.016 802.14,529.448C802.145,529.88 802.15,530.297 802.154,530.715L802.121,530.715C799.583,684.448 696.157,821.623 555.26,863.095L555.226,863.105C501.747,875.379 469.832,859.958 469.832,859.958C470.743,849.725 584.827,760.208 471.867,761.481L470.212,761.443L467.774,761.396L465.312,761.36L462.985,761.336L460.748,761.322L459.117,761.317L457.066,761.317ZM459.594,737.729L462.003,737.741L464.037,737.76L466.202,737.789L468.386,737.827L470.69,737.878C529.431,737.497 546.877,757.163 550.071,763.382C560.359,783.417 534.847,818.502 508.071,833.849C520.913,835.515 532.547,834.798 546.959,830.556C674.742,792.944 768.825,668.426 772.654,529.448C768.825,390.47 674.742,265.953 546.959,228.341C532.547,224.098 520.913,223.381 508.071,225.047C534.847,240.394 560.359,275.48 550.071,295.515C546.877,301.733 529.431,321.4 470.69,321.018L468.386,321.07L466.202,321.107L464.037,321.136L462.003,321.155L459.594,321.167C459.594,321.167 458.092,321.169 458.092,321.169L456.589,321.167L454.18,321.155L452.146,321.136L449.981,321.107L447.797,321.07L445.493,321.018C386.752,321.4 369.306,301.733 366.113,295.515C355.824,275.48 381.336,240.394 408.113,225.047C395.27,223.381 383.636,224.098 369.224,228.341C241.441,265.953 147.358,390.47 143.529,529.448C147.358,668.426 241.441,792.944 369.224,830.556C383.636,834.798 395.27,835.515 408.113,833.849C381.336,818.502 355.824,783.417 366.113,763.382C369.306,757.163 386.752,737.497 445.493,737.878L447.797,737.827L449.981,737.789L452.146,737.76L454.18,737.741L456.589,737.729C456.589,737.729 458.092,737.727 458.092,737.727L459.594,737.729ZM758.09,530.715C757.76,666.538 666.973,781.273 542.812,817.819L542.783,817.827C566.464,794.79 576.241,773.12 567.014,756.668L566.338,755.527L565.855,754.779C555.092,738.648 524.901,727.949 470.102,726.606L467.905,726.557L465.824,726.521L463.76,726.493L461.821,726.475L459.524,726.464L458.092,726.462L455.237,726.47L453.825,726.479L452.423,726.493L451.032,726.51L449.65,726.532L448.278,726.557L446.916,726.586L446.081,726.606C391.281,727.952 361.091,738.65 350.328,754.779L349.645,755.852L349.169,756.668C339.942,773.12 349.719,794.79 373.4,817.827L373.371,817.819C249.211,781.273 158.423,666.538 158.093,530.715C158.423,394.879 249.229,280.135 373.4,243.603C349.719,266.641 339.942,288.311 349.169,304.763L349.845,305.903L350.328,306.652C361.091,322.783 391.282,333.481 446.081,334.825L448.278,334.874L450.36,334.91L452.423,334.938L454.363,334.955L456.659,334.967L458.092,334.969L460.946,334.961L462.358,334.951L463.76,334.938L465.152,334.92L466.534,334.899L467.905,334.874L469.267,334.845L470.102,334.825C524.902,333.479 555.092,322.78 565.855,306.652L566.538,305.579L567.014,304.763C576.241,288.311 566.464,266.641 542.783,243.603C666.954,280.135 757.76,394.879 758.09,530.715ZM574.09,687.139L574.09,687.785C573.917,701.434 562.782,712.462 549.092,712.462C535.294,712.462 524.092,701.26 524.092,687.462C524.092,673.664 535.294,662.462 549.092,662.462C562.782,662.462 573.917,673.49 574.09,687.139ZM392.092,687.462C392.092,673.664 380.889,662.462 367.092,662.462C353.294,662.462 342.092,673.664 342.092,687.462L342.094,687.785C342.267,701.434 353.401,712.462 367.092,712.462C380.782,712.462 391.917,701.434 392.09,687.785L392.092,687.462ZM483.092,661.462C483.088,660.926 483.071,660.392 483.041,659.857L483.025,659.637C482.924,658.228 482.705,656.851 482.379,655.517L482.304,655.217C482.232,654.937 482.155,654.658 482.073,654.382C481.951,653.969 481.819,653.562 481.678,653.16C481.589,652.909 481.497,652.66 481.4,652.412C481.334,652.241 481.265,652.071 481.195,651.901C480.951,651.313 480.685,650.735 480.398,650.17C480.292,649.961 480.184,649.755 480.072,649.55L479.926,649.285C479.373,648.295 478.754,647.347 478.075,646.446C477.669,645.906 477.241,645.384 476.794,644.879L476.391,644.435L475.977,644.001L475.766,643.788C475.645,643.667 475.522,643.546 475.397,643.427L474.897,642.96C474.601,642.691 474.299,642.428 473.99,642.174L473.757,641.984C472.744,641.168 471.665,640.429 470.531,639.776C470.121,639.54 469.704,639.316 469.28,639.103L468.679,638.811C468.245,638.608 467.804,638.417 467.357,638.238C467.085,638.129 466.81,638.025 466.534,637.926C466.058,637.755 465.575,637.598 465.086,637.456L464.709,637.349C463.564,637.035 462.386,636.8 461.182,636.652C460.691,636.591 460.195,636.545 459.696,636.513L459.377,636.495C458.953,636.473 458.523,636.462 458.092,636.462C457.447,636.462 456.809,636.486 456.177,636.534C454.727,636.644 453.311,636.879 451.94,637.226C451.784,637.266 451.629,637.307 451.474,637.349C451.002,637.478 450.537,637.621 450.077,637.776L449.499,637.98L449.213,638.087C449.046,638.15 448.881,638.216 448.714,638.283C448.103,638.531 447.503,638.803 446.916,639.097L446.305,639.414C445.17,640.022 444.087,640.716 443.066,641.486C442.468,641.936 441.891,642.413 441.337,642.913L440.883,643.334L440.417,643.788L439.998,644.217L439.638,644.604C439.352,644.916 439.074,645.236 438.803,645.564L438.614,645.796C437.797,646.81 437.058,647.888 436.406,649.022L436.257,649.285C436.078,649.604 435.907,649.927 435.743,650.255C435.591,650.557 435.445,650.862 435.305,651.171C435.178,651.45 435.057,651.732 434.941,652.016L434.827,652.299C434.752,652.488 434.68,652.679 434.61,652.87L434.506,653.158C434.37,653.543 434.244,653.932 434.127,654.325L433.986,654.819C433.594,656.24 433.325,657.712 433.191,659.223L433.165,659.54C433.116,660.173 433.092,660.815 433.092,661.462L433.094,661.785C433.1,662.323 433.124,662.856 433.165,663.384L433.191,663.701C433.325,665.212 433.594,666.684 433.986,668.105L434.127,668.599C434.273,669.09 434.434,669.575 434.61,670.054C434.68,670.246 434.752,670.436 434.827,670.625L434.941,670.908C435.057,671.193 435.178,671.475 435.305,671.753C435.44,672.052 435.58,672.347 435.727,672.639C435.896,672.977 436.073,673.31 436.257,673.639L436.406,673.902C437.058,675.036 437.797,676.115 438.614,677.128L438.803,677.36C439.095,677.714 439.396,678.059 439.707,678.395L440.207,678.923L440.484,679.202C441.07,679.783 441.684,680.336 442.324,680.857C442.901,681.327 443.5,681.772 444.118,682.19L444.621,682.521L445.132,682.841L445.564,683.097C445.767,683.215 445.972,683.33 446.179,683.443L446.714,683.725L446.916,683.827C447.35,684.045 447.791,684.25 448.24,684.443C449.027,684.781 449.835,685.08 450.661,685.337L450.955,685.427C451.281,685.524 451.609,685.614 451.94,685.698C453.909,686.197 455.969,686.462 458.092,686.462C459.137,686.462 460.168,686.398 461.182,686.272C462.387,686.123 463.565,685.889 464.709,685.575C465.125,685.461 465.535,685.337 465.942,685.202C466.88,684.892 467.793,684.527 468.679,684.113L469.34,683.79C469.724,683.596 470.101,683.393 470.473,683.181L471.051,682.841L471.656,682.46L472.243,682.069C472.782,681.697 473.307,681.305 473.815,680.893C474.496,680.341 475.147,679.755 475.766,679.136L476.185,678.707L476.594,678.268L476.794,678.045C477.242,677.54 477.669,677.018 478.075,676.478C478.754,675.577 479.373,674.629 479.926,673.639L480.072,673.374C480.184,673.17 480.292,672.963 480.398,672.754C480.685,672.189 480.951,671.611 481.195,671.023C481.265,670.853 481.334,670.684 481.4,670.512C481.496,670.265 481.589,670.015 481.678,669.764C481.82,669.362 481.952,668.954 482.073,668.542C482.154,668.266 482.232,667.987 482.304,667.707L482.379,667.407C482.698,666.102 482.914,664.759 483.019,663.384L483.041,663.067C483.068,662.643 483.084,662.215 483.09,661.785L483.092,661.462ZM553.403,587.581L552.792,587.462C622.425,667.446 678.414,689.402 691.281,667.591L691.356,667.462C692.076,666.203 692.634,664.858 692.977,663.436C693.201,662.51 693.334,661.557 693.376,660.593C693.406,659.911 693.39,659.223 693.331,658.535C692.981,654.43 691.114,650.442 688.674,646.896C688.29,646.337 687.89,645.786 687.476,645.245C686.957,644.565 686.418,643.899 685.86,643.246C685.124,642.383 684.358,641.542 683.567,640.722C682.553,639.67 681.499,638.653 680.415,637.665C678.981,636.359 677.495,635.105 675.971,633.897C673.997,632.333 671.961,630.845 669.88,629.419C663.776,625.238 657.305,621.584 650.691,618.273C642.613,614.23 634.294,610.698 625.868,607.519C615.526,603.617 605.009,600.249 594.415,597.269C580.851,593.455 567.153,590.287 553.403,587.581ZM362.781,587.581L363.391,587.462C293.759,667.446 237.769,689.402 224.902,667.591L224.827,667.462C224.108,666.203 223.549,664.858 223.206,663.436C222.982,662.51 222.849,661.557 222.807,660.593C222.777,659.911 222.793,659.223 222.852,658.535C223.202,654.43 225.069,650.442 227.509,646.896C227.893,646.337 228.293,645.786 228.707,645.245C229.226,644.565 229.766,643.899 230.323,643.246C231.059,642.383 231.825,641.542 232.616,640.722C233.63,639.67 234.684,638.653 235.768,637.665C237.202,636.359 238.688,635.105 240.213,633.897C242.186,632.333 244.223,630.845 246.304,629.419C252.408,625.238 258.878,621.584 265.492,618.273C273.57,614.23 281.889,610.698 290.315,607.519C300.657,603.617 311.174,600.249 321.769,597.269C335.332,593.455 349.03,590.287 362.781,587.581ZM537.524,541.028C537.899,537.89 538.092,534.698 538.092,531.462C538.092,531.215 538.09,530.968 538.088,530.715C538.09,530.463 538.092,530.216 538.092,529.969C538.092,527.333 537.964,524.726 537.714,522.161C537.653,521.533 537.585,520.908 537.51,520.286L537.383,519.286C537.352,519.055 537.32,518.825 537.287,518.596C537.225,518.158 537.159,517.721 537.09,517.287L536.915,516.233C536.149,511.82 535.022,507.531 533.565,503.395L533.243,502.499C532.207,499.668 531.015,496.912 529.678,494.24L529.499,493.886C529.275,493.443 529.046,493.002 528.812,492.562L528.443,491.872C528.233,491.486 528.02,491.101 527.802,490.717C527.042,489.37 526.243,488.047 525.406,486.746L525.041,486.184C524.895,485.962 524.748,485.74 524.6,485.519C524.432,485.268 524.263,485.019 524.092,484.77L523.602,484.063L523.368,483.733C523.023,483.246 522.672,482.764 522.318,482.288C521.667,481.414 520.999,480.553 520.314,479.706C519.759,479.02 519.193,478.344 518.616,477.676C518.304,477.315 517.988,476.956 517.668,476.599C516.904,475.748 516.123,474.913 515.324,474.094C515.139,473.905 514.954,473.717 514.767,473.53C514.609,473.371 514.451,473.213 514.291,473.056C513.272,472.049 512.227,471.07 511.156,470.12C510.917,469.908 510.677,469.698 510.434,469.487C509.976,469.09 509.514,468.699 509.047,468.313C508.597,467.94 508.143,467.573 507.684,467.21L507.091,466.745C505.698,465.663 504.268,464.626 502.804,463.637C502.081,463.148 501.35,462.671 500.61,462.206C498.447,460.846 496.215,459.586 493.921,458.433L493.266,458.108C491.153,457.07 488.987,456.123 486.774,455.272L486.317,455.099C485.904,454.942 485.489,454.79 485.073,454.64L484.061,454.285C482.851,453.87 481.629,453.482 480.393,453.124C478.467,452.565 476.51,452.076 474.526,451.662C473.206,451.386 471.874,451.142 470.531,450.932C469.717,450.805 468.898,450.69 468.075,450.587L467.772,450.55C465.985,450.334 464.179,450.177 462.358,450.081C461.115,450.015 459.865,449.978 458.609,449.97C458.436,449.969 458.264,449.969 458.092,449.969C457.275,449.969 456.461,449.981 455.644,450.006C453.618,450.067 451.611,450.203 449.629,450.412C449.207,450.457 448.786,450.504 448.364,450.555C447.577,450.651 446.793,450.758 446.007,450.877C444.647,451.084 443.298,451.324 441.963,451.598C439.937,452.013 437.939,452.505 435.968,453.073C434.832,453.399 433.707,453.75 432.59,454.126C432.119,454.285 431.649,454.448 431.178,454.616C428.373,455.619 425.64,456.775 422.988,458.073C422.778,458.176 422.569,458.279 422.359,458.385C419.869,459.631 417.453,461.004 415.119,462.494C414.58,462.838 414.046,463.188 413.515,463.546C412.373,464.314 411.251,465.112 410.154,465.935C409.243,466.618 408.347,467.32 407.469,468.039C405.865,469.352 404.312,470.726 402.813,472.161C402.498,472.462 402.185,472.766 401.875,473.073L401.196,473.752L400.525,474.438L400.249,474.727C400.008,474.978 399.77,475.231 399.535,475.484L398.885,476.19C398.532,476.578 398.183,476.969 397.84,477.362C396.452,478.95 395.126,480.594 393.866,482.288C393.703,482.507 393.542,482.726 393.382,482.944C392.787,483.761 392.207,484.59 391.644,485.429C391.49,485.658 391.337,485.888 391.186,486.118C390.175,487.656 389.216,489.23 388.312,490.839C387.905,491.563 387.508,492.295 387.122,493.034L387.023,493.225C386.304,494.612 385.624,496.022 384.986,497.453L384.877,497.699C382.455,503.18 380.631,508.983 379.487,515.027C379.139,516.871 378.853,518.736 378.633,520.621L378.575,521.136C378.532,521.522 378.493,521.91 378.455,522.298C378.377,523.116 378.312,523.937 378.259,524.762L378.254,524.834C378.222,525.343 378.194,525.853 378.171,526.366L378.147,526.986C378.11,527.977 378.092,528.971 378.092,529.969C378.092,530.216 378.093,530.463 378.095,530.715C378.093,530.968 378.092,531.215 378.092,531.462C378.092,534.566 378.269,537.629 378.614,540.643C378.671,541.145 378.733,541.645 378.8,542.145L378.868,542.644C378.961,543.308 379.063,543.97 379.172,544.629L379.256,545.123C379.341,545.616 379.43,546.108 379.524,546.598C379.555,546.761 379.587,546.923 379.62,547.088C379.658,547.282 379.697,547.476 379.739,547.675C379.799,547.966 379.86,548.256 379.924,548.55L380.051,549.121C380.226,549.895 380.411,550.665 380.608,551.431C380.829,552.29 381.064,553.144 381.314,553.992C381.702,555.316 382.124,556.627 382.578,557.921L382.739,558.376C384.613,563.615 387.018,568.603 389.889,573.273C390.115,573.64 390.343,574.004 390.574,574.366C390.743,574.631 390.913,574.896 391.086,575.16C391.485,575.77 391.892,576.374 392.306,576.972L392.963,577.905L393.422,578.541L393.866,579.143C395.204,580.942 396.617,582.684 398.102,584.366C398.254,584.539 398.407,584.711 398.563,584.884L398.885,585.24C400.822,587.371 402.872,589.397 405.028,591.311L405.388,591.628C406.39,592.507 407.415,593.362 408.461,594.19L409.472,594.98L409.741,595.184C410.521,595.777 411.311,596.355 412.111,596.919L412.352,597.088C421.853,603.726 432.86,608.354 444.755,610.353L445.413,610.461C446.646,610.658 447.889,610.826 449.14,610.965L450.185,611.075C450.467,611.103 450.749,611.129 451.032,611.154C451.591,611.203 452.153,611.246 452.716,611.283L453.284,611.319C453.721,611.345 454.158,611.368 454.597,611.387C454.912,611.4 455.228,611.412 455.543,611.422C456.39,611.449 457.239,611.462 458.092,611.462C458.626,611.462 459.159,611.457 459.696,611.446L460.876,611.414C461.373,611.397 461.869,611.375 462.358,611.35L463.155,611.304C463.569,611.278 463.982,611.249 464.4,611.216L465.256,611.145L466.266,611.049L467.272,610.94C468.547,610.794 469.813,610.618 471.066,610.413C471.366,610.364 471.666,610.313 471.961,610.261C488.589,607.351 503.457,599.298 514.867,587.8C515.246,587.419 515.621,587.033 515.99,586.646C517.444,585.121 518.839,583.539 520.171,581.901L520.485,581.512C521.032,580.833 521.567,580.144 522.092,579.445L522.521,578.868C522.792,578.501 523.059,578.133 523.324,577.76L523.602,577.367C523.878,576.973 524.151,576.577 524.421,576.178L525.22,574.973L525.74,574.161L526.178,573.461C527.423,571.449 528.581,569.378 529.646,567.253C529.843,566.861 530.036,566.467 530.227,566.071C533.927,558.381 536.433,550.009 537.504,541.199L537.524,541.028ZM508.084,530.813C508.076,531.314 508.06,531.813 508.038,532.306C507.173,551.107 495.9,567.213 479.854,574.99L479.039,575.376L478.554,575.597L477.384,576.105L477.245,576.163C476.544,576.454 475.835,576.73 475.118,576.99C474.742,577.126 474.365,577.258 473.985,577.386C472.544,577.869 471.075,578.288 469.579,578.64C469.475,578.665 469.372,578.689 469.267,578.713C468.872,578.803 468.475,578.889 468.075,578.97C467.896,579.006 467.717,579.042 467.538,579.076C466.783,579.22 466.023,579.348 465.256,579.458C464.92,579.506 464.582,579.551 464.243,579.593C463.737,579.655 463.228,579.71 462.716,579.757L461.902,579.825L461.366,579.863C460.963,579.889 460.56,579.91 460.155,579.926C459.685,579.946 459.212,579.958 458.736,579.965L458.092,579.969C457.906,579.969 457.72,579.968 457.531,579.965C457.076,579.96 456.622,579.949 456.169,579.932C455.749,579.916 455.329,579.895 454.909,579.869L453.967,579.801L453.612,579.77C453.205,579.734 452.8,579.693 452.397,579.647C451.914,579.592 451.432,579.53 450.955,579.462C450.18,579.351 449.412,579.222 448.646,579.076L447.908,578.929C447.573,578.859 447.24,578.787 446.91,578.711C445.509,578.391 444.131,578.012 442.776,577.575L442.487,577.481C442.102,577.355 441.719,577.224 441.337,577.088C440.533,576.802 439.739,576.496 438.954,576.169L438.745,576.082C438.382,575.93 438.022,575.773 437.661,575.611L437.197,575.4C437.035,575.326 436.875,575.25 436.713,575.174C435.086,574.402 433.508,573.546 431.981,572.608L431.705,572.438C418.628,564.289 409.581,550.274 408.259,534.086L408.179,532.939L408.154,532.488C408.13,532.006 408.113,531.521 408.103,531.034C408.101,530.928 408.099,530.822 408.097,530.715L408.103,530.396C408.113,529.919 408.13,529.444 408.153,528.968L408.198,528.176L408.254,527.415C409.533,511.457 418.321,497.603 431.081,489.388L431.215,489.302C435.535,486.541 440.306,484.426 445.391,483.092L446.604,482.79L446.903,482.721C447.388,482.61 447.875,482.506 448.364,482.409C448.582,482.366 448.8,482.325 449.018,482.285L449.323,482.23C449.983,482.113 450.646,482.009 451.314,481.919L451.568,481.885C452.722,481.734 453.888,481.623 455.064,481.553C455.392,481.533 455.72,481.516 456.049,481.503C456.727,481.476 457.408,481.462 458.092,481.462L458.308,481.463C458.926,481.465 459.542,481.479 460.156,481.504C460.499,481.518 460.842,481.536 461.182,481.556C462.384,481.63 463.575,481.746 464.75,481.902C465.687,482.027 466.616,482.178 467.538,482.355C467.819,482.409 468.099,482.465 468.377,482.523C469.012,482.656 469.643,482.801 470.269,482.958L470.916,483.125C491.335,488.536 506.645,506.555 507.994,528.326L508.038,529.125L508.051,529.442C508.066,529.803 508.076,530.165 508.083,530.526L508.084,530.813ZM347.503,530.915L348.092,530.713C247.796,496.262 188.33,505.241 188.092,530.564L188.092,530.713C188.098,532.163 188.287,533.607 188.701,535.01C188.97,535.924 189.331,536.816 189.777,537.672C190.092,538.278 190.45,538.865 190.845,539.432C193.201,542.811 196.812,545.332 200.697,547.183C201.31,547.475 201.932,547.752 202.56,548.014C203.35,548.343 204.15,548.65 204.959,548.937C206.028,549.317 207.112,549.661 208.207,549.976C209.611,550.38 211.033,550.734 212.465,551.048C214.36,551.462 216.274,551.804 218.199,552.089C220.689,552.456 223.198,552.727 225.712,552.921C233.089,553.49 240.52,553.419 247.903,552.979C256.92,552.442 265.891,551.341 274.778,549.881C285.685,548.089 296.477,545.748 307.142,543.031C320.795,539.552 334.242,535.447 347.503,530.915ZM568.68,530.915L568.092,530.713C668.387,496.262 727.853,505.241 728.091,530.564L728.092,530.713C728.085,532.163 727.896,533.607 727.482,535.01C727.213,535.924 726.852,536.816 726.406,537.672C726.091,538.278 725.734,538.865 725.339,539.432C722.982,542.811 719.371,545.332 715.486,547.183C714.873,547.475 714.252,547.752 713.623,548.014C712.834,548.343 712.033,548.65 711.224,548.937C710.155,549.317 709.071,549.661 707.976,549.976C706.572,550.38 705.15,550.734 703.718,551.048C701.823,551.462 699.909,551.804 697.985,552.089C695.494,552.456 692.986,552.727 690.471,552.921C683.094,553.49 675.663,553.419 668.28,552.979C659.263,552.442 650.292,551.341 641.405,549.881C630.498,548.089 619.706,545.748 609.041,543.031C595.388,539.552 581.941,535.447 568.68,530.915ZM362.781,473.849L363.391,473.969C293.759,393.985 237.769,372.028 224.902,393.84L224.827,393.969C224.108,395.228 223.549,396.573 223.206,397.995C222.982,398.921 222.849,399.873 222.807,400.838C222.777,401.52 222.793,402.208 222.852,402.896C223.202,407.001 225.069,410.989 227.509,414.535C227.893,415.094 228.293,415.644 228.707,416.186C229.226,416.866 229.766,417.532 230.323,418.185C231.059,419.048 231.825,419.889 232.616,420.708C233.63,421.76 234.684,422.778 235.768,423.766C237.202,425.072 238.688,426.326 240.213,427.534C242.186,429.098 244.223,430.586 246.304,432.011C252.408,436.193 258.878,439.847 265.492,443.157C273.57,447.201 281.889,450.733 290.315,453.912C300.657,457.814 311.174,461.182 321.769,464.161C335.332,467.975 349.03,471.144 362.781,473.849ZM553.403,473.849L552.792,473.969C622.425,393.985 678.414,372.028 691.281,393.84L691.356,393.969C692.076,395.228 692.634,396.573 692.977,397.995C693.201,398.921 693.334,399.873 693.376,400.838C693.406,401.52 693.39,402.208 693.331,402.896C692.981,407.001 691.114,410.989 688.674,414.535C688.29,415.094 687.89,415.644 687.476,416.186C686.957,416.866 686.418,417.532 685.86,418.185C685.124,419.048 684.358,419.889 683.567,420.708C682.553,421.76 681.499,422.778 680.415,423.766C678.981,425.072 677.495,426.326 675.971,427.534C673.997,429.098 671.961,430.586 669.88,432.011C663.776,436.193 657.305,439.847 650.691,443.157C642.613,447.201 634.294,450.733 625.868,453.912C615.526,457.814 605.009,461.182 594.415,464.161C580.851,467.975 567.153,471.144 553.403,473.849ZM483.092,399.969C483.092,398.783 483.009,397.617 482.849,396.474C482.631,394.917 482.269,393.406 481.777,391.954L481.677,391.664C481.44,390.991 481.174,390.33 480.882,389.684L480.755,389.408C480.541,388.95 480.313,388.498 480.072,388.056L479.926,387.792C479.488,387.008 479.009,386.25 478.491,385.521C478.405,385.399 478.318,385.279 478.229,385.16C478.125,385.019 478.02,384.879 477.913,384.74C477.556,384.275 477.182,383.823 476.794,383.386L476.594,383.163C476.168,382.695 475.725,382.243 475.265,381.808L474.897,381.466C474.6,381.196 474.296,380.933 473.985,380.676C473.137,379.977 472.243,379.333 471.308,378.748L471.051,378.59C470.908,378.503 470.764,378.418 470.619,378.334C469.894,377.913 469.146,377.527 468.377,377.179C468.013,377.014 467.645,376.858 467.272,376.711C466.853,376.545 466.428,376.39 465.998,376.247L465.762,376.17C465.39,376.05 465.015,375.938 464.635,375.835L464.336,375.756C463.743,375.603 463.14,375.472 462.53,375.362C462.422,375.343 462.314,375.324 462.206,375.306C461.689,375.22 461.167,375.151 460.64,375.097C460.308,375.064 459.975,375.036 459.64,375.016C459.128,374.985 458.612,374.969 458.092,374.969C457.251,374.969 456.421,375.01 455.602,375.092C455.118,375.14 454.638,375.201 454.164,375.276L453.825,375.332C453.353,375.414 452.886,375.508 452.423,375.615C451.954,375.724 451.49,375.846 451.032,375.981C450.773,376.057 450.517,376.137 450.262,376.222C449.843,376.36 449.428,376.509 449.018,376.669L448.409,376.916C447.428,377.329 446.478,377.803 445.566,378.333L445.293,378.494C444.396,379.03 443.535,379.62 442.715,380.262C442.179,380.681 441.661,381.121 441.161,381.581L441.003,381.728C440.531,382.171 440.075,382.632 439.638,383.11C439.15,383.644 438.685,384.199 438.244,384.773L437.882,385.256L437.707,385.5C437.3,386.072 436.916,386.662 436.558,387.268L436.406,387.529C436.132,388.004 435.874,388.489 435.632,388.984C435.272,389.717 434.947,390.471 434.66,391.242C434.034,392.919 433.583,394.681 433.33,396.505C433.245,397.118 433.182,397.738 433.142,398.364L433.124,398.683C433.103,399.107 433.092,399.537 433.092,399.969L433.094,400.292C433.098,400.614 433.108,400.934 433.124,401.254L433.142,401.573C433.189,402.308 433.268,403.034 433.376,403.75C433.425,404.068 433.479,404.384 433.539,404.699C433.58,404.912 433.624,405.125 433.671,405.338C433.757,405.733 433.853,406.124 433.958,406.512L434.127,407.105C434.32,407.755 434.539,408.393 434.783,409.019C434.908,409.341 435.04,409.66 435.178,409.975C435.22,410.071 435.262,410.166 435.305,410.26C435.439,410.557 435.58,410.852 435.725,411.142C436.137,411.964 436.593,412.76 437.09,413.527L437.418,414.021C437.767,414.534 438.135,415.033 438.521,415.518C438.885,415.976 439.265,416.42 439.66,416.851C440.09,417.321 440.539,417.774 441.003,418.21L441.065,418.268C441.668,418.829 442.299,419.361 442.956,419.861L443.357,420.161L443.87,420.527L444.368,420.864L444.876,421.189L445.413,421.515C446.373,422.081 447.373,422.585 448.409,423.021L449.018,423.268C449.916,423.619 450.839,423.918 451.783,424.164C452.523,424.357 453.276,424.517 454.041,424.641L454.597,424.726L454.837,424.758C455.903,424.897 456.989,424.969 458.092,424.969C459.278,424.969 460.446,424.886 461.587,424.726L462.206,424.631C462.955,424.507 463.694,424.349 464.421,424.159C465.396,423.904 466.348,423.592 467.272,423.226C467.578,423.105 467.881,422.979 468.181,422.846C469.121,422.43 470.031,421.958 470.906,421.434L471.562,421.028L472.066,420.696L472.535,420.371C472.66,420.282 472.784,420.192 472.908,420.101C473.275,419.83 473.634,419.55 473.985,419.261C474.334,418.973 474.674,418.677 475.007,418.37C475.118,418.268 475.227,418.165 475.337,418.062L475.552,417.854C475.893,417.521 476.225,417.178 476.546,416.827C476.966,416.367 477.37,415.891 477.757,415.399L477.941,415.162C478.231,414.783 478.511,414.396 478.779,414.001L479.119,413.488C479.644,412.674 480.123,411.828 480.551,410.953L480.847,410.329C481.027,409.935 481.197,409.536 481.356,409.132C481.469,408.846 481.577,408.558 481.679,408.268C481.83,407.839 481.97,407.405 482.097,406.966C482.17,406.716 482.239,406.466 482.304,406.213L482.379,405.913C482.426,405.722 482.47,405.53 482.512,405.338C482.612,404.884 482.699,404.426 482.773,403.964L482.849,403.463L482.891,403.151C483.01,402.212 483.077,401.258 483.09,400.292L483.092,399.969ZM342.094,374.292L342.092,373.969C342.092,360.171 353.294,348.969 367.092,348.969C373.695,348.969 379.704,351.535 384.176,355.724C389.046,360.286 392.092,366.774 392.092,373.969C392.092,387.766 380.889,398.969 367.092,398.969C353.401,398.969 342.267,387.941 342.094,374.292ZM549.912,398.955C563.331,398.522 574.092,387.492 574.092,373.969C574.092,360.39 563.243,349.325 549.746,348.977C549.53,348.971 549.311,348.969 549.092,348.969C535.294,348.969 524.092,360.171 524.092,373.969C524.092,387.766 535.294,398.969 549.092,398.969C549.366,398.969 549.64,398.964 549.912,398.955Z" style="fill:white;"/>
    </g>
</svg>
