<?xml version="1.0" encoding="UTF-8" standalone="no"?>
<!DOCTYPE svg PUBLIC "-//W3C//DTD SVG 1.1//EN" "http://www.w3.org/Graphics/SVG/1.1/DTD/svg11.dtd">
<svg width="100%" height="100%" viewBox="0 0 1000 1000" version="1.1" xmlns="http://www.w3.org/2000/svg" xmlns:xlink="http://www.w3.org/1999/xlink" xml:space="preserve" xmlns:serif="http://www.serif.com/" style="fill-rule:evenodd;clip-rule:evenodd;stroke-linejoin:round;stroke-miterlimit:2;">
    <g transform="matrix(1.13696,0,0,1.13696,-109.141,-61.422)">
        <path d="M478.336,500C468.692,501.763 457.986,504.683 446,509L446,501C437.332,503 431.494,505 428,507C422.128,502.874 415.548,499.751 408,498C397.643,502.322 386.589,506.083 375,509.415C355.876,514.914 331.361,513.556 314,523C326.307,532.504 340.85,540.951 350,554.575C369.986,584.332 388.926,618.398 424,643L422,638L428.5,634L431,642C436.422,641.206 441.781,640.741 447,641C446.528,636.042 451.528,635.209 462,638.5C466.699,651.75 467.603,665.134 469,678.5C467.328,680.625 464.685,683.847 459,690.5C461.451,699.843 465.561,708.946 470,718C472.229,739.659 467.303,758.668 456.5,775.5C453.584,776.582 451.441,776.296 451,773C443.785,771.098 439.214,768.376 436.752,765C433.83,760.995 436.745,756.543 436,750.5C431.203,740.898 428.152,731.417 426,722L423,719L423,713L418,708L418,707C412.185,702.449 408.436,698.146 406,694L409.5,688.5C404.068,678.968 399.307,668.252 391.069,660C381.804,650.72 373.39,639.32 362,630.389C342.503,615.102 326.586,597.022 309,581.914C284.828,561.148 266.645,547.518 255.422,540C242.192,531.137 249.708,499.182 249,504.5C269.679,486.412 288.977,468.122 326.5,452.5C326.219,449.836 326.422,447.169 327,444.5C336.754,443.869 348.959,439.464 362.5,433L383,422.5L384,410C379.783,408.068 371.802,410.406 369,406.617C365.422,401.778 369.178,392.323 369.5,378.5C355.856,361.77 338.665,345.881 333.398,331C329.388,319.671 329.748,308.956 335.5,299L333,296L334,291.5L329,288L334.5,274.5L324.5,266.5C323.582,269.887 321.448,271.951 317,271.5L305,276C306.275,256.64 322.774,248.912 349.5,249C344.99,241.319 340.05,233.798 334.5,226.5C327.928,229.39 322.634,232.201 320,230.543C314.558,227.117 311.084,222.091 307.147,216C303.213,209.915 294.153,206.434 296.5,193C293.908,191.75 291.84,190.398 290,189C289.6,191.19 290.384,193.569 291.5,196C277.368,176.479 279.285,160.01 291.5,145.5C286.638,146.359 282.746,148.766 280,153C280.388,144.563 283.598,137.953 294,136C291.104,130.601 290.083,125.776 292.5,122C292.027,127.424 293.677,131.435 297.5,134C295.882,122.113 298.498,114.927 304.5,111.5C302.541,115.128 301.304,118.778 302.5,122.5C303.67,115.593 308.47,112.005 315,110C311.133,114.618 308.467,119.796 308,126C316.617,117.903 327.262,111.868 342.5,110.5C335.926,113.71 330.013,117.163 326.5,121.5C342.767,118.247 356.209,112.456 360,98C360.801,106.348 358.731,114.323 350.5,121.5C357.127,119.844 363.815,118.481 371,119.5C367.148,120.918 364.829,122.658 363,124.5C368.715,122.767 373.19,119.997 375,115C374.355,118.315 372.886,121.642 369,125C375.548,122.186 380.527,117.826 383,111C384.643,119.154 384.424,127.415 378.5,136L383,138C386.818,136.15 389.707,133.562 392,130.5C390.802,133.629 389.319,136.679 387,139.5C390.466,140.158 394.415,139.951 398.5,139.5C395.981,141.259 393.61,143.721 390.5,144.302C386.907,144.974 384.973,146.916 382,148C386.755,150.211 393.113,149.532 400.5,147C399.057,148.369 397.403,149.719 395,151C398.966,150.857 403.148,149.968 407.5,148.5C405.019,155.997 400.855,163.128 395.5,170C399.036,169.837 402.342,168.722 405.5,167C404.637,168.231 403.673,169.412 401.5,170C402.932,170.403 404.805,170.364 407,170C403.911,174.304 399.401,177.986 394.5,181.5C396.844,182.847 399.475,183.884 402.5,184.5C398.679,185.379 395.547,185.939 393.5,186C394.012,189.326 395.363,193.302 397,197.5C391.326,197.18 387.252,196.529 385,195.5C385.089,199.039 387.807,201.685 391.5,204C387.232,204.636 382.986,205.261 379.5,205.5C379.473,207.624 379.114,209.434 378.5,211C376.954,209.43 375.236,208.435 373.5,207.5L372.5,209.5L374.5,214C379.156,212.387 381.441,209.072 384.268,209.5C386.081,209.775 387.682,211.004 389,213.5C397.316,204.356 407.731,202.636 421,211L425.5,207L433.5,211.5C454.374,190.814 464.1,199.813 470,219C472.52,220.057 475.286,220.915 479,221C494.865,217.637 510.305,213.988 524.5,209.5C524.442,203.95 531.608,205.397 541,209C545.544,193.876 553.2,185.074 557,185.182C562.343,185.334 566.658,189.193 575,191.19C584.086,193.365 595.856,195.741 610,199C613.411,197.294 621.097,194.197 623,196C637.021,209.284 643.284,223.856 644,243.286C644.699,262.254 639.94,281.406 635,291C638.196,291.926 640.413,293.459 641,296C642.873,300.186 645.041,298.196 645.542,300C645.913,301.333 645.636,302.967 644.5,305C646.683,307.14 648.001,309.143 648.413,311C648.813,312.806 648.355,314.475 647,316C647.943,318.773 650.956,320.234 650.821,322.5C650.717,324.262 649.676,326.091 647.5,328C645.455,328.434 643.808,328.235 642.5,327.5C644.389,330.12 645.014,332.796 645,335.5C650.984,342.496 656.501,345.087 655.507,349.502C654.801,352.639 651.713,355.643 646,358.5C641.976,360.068 634.562,372.269 626.5,386.5C622.073,392.753 616.202,397.546 609.5,401.5C605.183,405.701 601.935,410.046 599.5,414.5C596.392,413.788 593.373,413.113 590.5,412.5C585.792,412.646 581.527,415.733 578,414.517C569.056,411.433 562.238,403.941 554.5,399C555.03,406.252 552.507,412.504 554.366,416C555.595,418.311 557.524,418.671 561.5,419C561.804,421.081 562.394,423.343 561.342,425C558.91,428.831 559.01,431.794 557,435C558.467,435.381 559.958,435.728 561.5,436C560.901,445.167 559.726,454.333 556,463.5C551.404,463.311 547.317,462.359 543.5,461C564.788,493.184 579.818,535.039 607.412,564.443C619.674,577.509 633.657,589.186 650,598.957C659.042,602.886 668.371,610.196 677.911,620C702.626,645.401 725.154,691.416 755,731L760,730L764,737C771.393,738.346 777.371,744.569 783,752L786,750C798.122,762.86 800.99,778.955 804,795L800,798C808.938,823.12 824.671,838.383 824,856.295C823.657,865.446 820.349,874.077 813,882C797.882,890.522 786.658,893.195 784,883L776,874C771.149,868.208 768.657,862.191 768,856C765.513,847.004 763.133,838.148 759,827C753.137,818.997 750.32,810.597 749,802L741,789L747,790C712.254,710.067 675.848,696.88 650,665.743C636.879,649.936 625.948,637.604 618,630C613.022,625.255 606.592,621.308 599,618C585.16,611.698 575.518,601.767 568,590C549.697,569.096 529.412,554.58 513.064,537.991C500.042,524.777 488.378,512.08 478.336,500ZM551,397L540,388C541.316,391.113 542.551,394.283 543,398C545.169,397.132 547.763,396.72 551,397ZM530,380L521,384.508L508,370L499,361L488.5,370C486.577,368.919 484.382,367.814 482,366.701C470.769,361.455 455.401,356.05 445,352.283C440.476,350.644 436.611,348.948 434,347.103C432.913,346.335 431.169,343.198 429.5,340.5L432.5,340.5C432.924,342.529 434.562,343.407 436.5,344L451.5,344C452.245,342.994 452.694,342.11 453,341.284L472,342C471.638,344.193 472.202,345.462 474.5,345L488,343C489.627,341.191 490.859,341.735 491.802,344C492.379,344.081 492.944,344.069 493.5,343.984C495.403,343.696 493.143,340.169 499,341.5L503,343C499.924,346.628 499.02,350.115 499.714,353.5C501.634,362.861 519.308,371.739 530,380ZM485,337C483.347,334.274 480.157,332.649 477,331C476.912,334.131 476.577,337.634 476,341.5C479.795,341.477 482.894,341.109 484.5,340C484.138,338.725 484.183,337.662 485,337ZM510,267.435C509.657,274.471 505.416,280.263 501,286C500.028,287.667 500.361,289.333 502,291C501.084,292.365 500.485,294.114 500,296C502.686,302.692 507.041,309.775 512,317C508.673,323.978 505.741,330.579 503,337L495,337L495,334.5C493.771,334.296 492.859,334.374 492,334.5L491.5,336L490,336C486.714,332.506 482.571,329.33 477.5,326.5C475.771,326.061 474.554,327.268 473.5,329C467.636,329.136 461.413,328.518 455,327.5C455.243,325.648 454.646,324.429 453,324L440.5,322C438.392,321.61 437.475,322.978 437,325L428.5,323.5C430.791,319.658 432.785,315.9 430,313.5L426.5,311L424,309.5L425.5,307.5L436.5,308C438.716,308.466 440.905,308.671 443,308C464.217,309.087 468.549,306.025 471.814,311.5C473.18,313.789 475.237,315.894 476.5,319C477.216,319.586 478.298,319.967 480,320C481.621,321.455 483.715,322.66 486.5,323.5C490.058,321.973 492.456,319.998 493.5,317.5C494.807,315.305 493.264,314.324 489,314.5C494.538,313.26 497.927,311.369 491.5,306.5C495.5,303.61 495.393,300.602 492,297.5C490.14,289.488 485.947,288.759 480,293.5C475.871,294.717 471.862,294.803 468,293.5L461,292C452.823,287.051 443.593,284.483 433,285C434.678,279.116 435.94,273.408 436.5,268C445.104,273.084 450.989,279.791 458,275.41C462.414,272.652 466.755,266.67 471,256.5C481.197,259.918 489.213,260.24 496.5,261.68C501.503,262.668 505.899,265.094 510,267.435ZM525,271.953L522,271C521.549,277.634 519.925,280.868 517.575,282L517,291L509.654,293C508.922,293.914 508.527,294.921 508.393,296C507.829,300.571 515.288,305.866 515,312L526,294.55C524.242,293.294 522.441,291.522 521,289C522.655,286.122 524.621,283.174 527.598,280C527.288,277.266 526.371,274.588 525,271.953ZM527,228.253L525,228C524.786,227.337 524.542,226.591 524,225C512.383,228.044 500.675,231.273 489,233.5C496.282,237.008 502.417,240.067 509.5,241.949C513.872,243.111 518.36,243.841 523,244L526,239C525.41,235.916 525.256,232.919 525.5,230L527,228.253ZM537.635,210.551C536.462,211.608 535.778,213.045 535.764,215C533.58,218.073 531.127,220.309 528.5,222L528.725,210C530.677,208.067 534.024,209.035 537.635,210.551Z" style="fill:white;"/>
    </g>
</svg>
