<?xml version="1.0" encoding="UTF-8" standalone="no"?>
<!DOCTYPE svg PUBLIC "-//W3C//DTD SVG 1.1//EN" "http://www.w3.org/Graphics/SVG/1.1/DTD/svg11.dtd">
<svg width="100%" height="100%" viewBox="0 0 1000 1000" version="1.1" xmlns="http://www.w3.org/2000/svg" xmlns:xlink="http://www.w3.org/1999/xlink" xml:space="preserve" xmlns:serif="http://www.serif.com/" style="fill-rule:evenodd;clip-rule:evenodd;stroke-linejoin:round;stroke-miterlimit:2;">
    <g transform="matrix(1.37972,0,0,1.4876,-108.668,-130.049)">
        <path d="M237.149,374.263L261,350L430,436.594L392.666,528.076L423.565,533.404L410,554.301L450,554.972L384.623,580L396.411,550L382.803,552.244L355.152,620L206.252,610L186.407,568.991L199.131,557.125C201.195,555.2 201.656,552.105 200.243,549.663C198.829,547.22 195.917,546.077 193.219,546.907L177.987,551.592L140,473.093L218.99,392.737L235.823,405.507C238.297,407.383 241.719,407.38 244.189,405.497C246.659,403.615 247.571,400.316 246.417,397.433L237.149,374.263ZM195,552.696L155,590L150,580L115,590L150,550L155,565L195,552.696ZM525.403,477.066L527.403,532.896L515.403,527.066L498.403,560L495.403,507.066L508.403,513.102L525.403,477.066ZM635.496,267.008L626.184,286.173C624.862,288.894 625.553,292.166 627.863,294.119C630.173,296.072 633.514,296.21 635.977,294.455L653.849,281.715L735.403,347.066L704.178,423.956L735.403,431.434L722.155,451.066L767.306,457.066L695.403,473.205L708.403,451.563L693.337,450.653L670.428,507.066L532.249,500.326L531.408,476.851C531.309,474.08 529.327,471.737 526.612,471.18C523.896,470.622 521.152,471.995 519.969,474.502L508.337,499.16L465.403,497.066L440,317.066L605.403,242.894L635.496,267.008ZM240,400L220,350L210,364L180,340L201.057,390L211,378L240,400ZM696.403,227.066L671.081,277.066L664.403,266.066L632.136,289.066L657.403,237.066L665.403,252.262L696.403,227.066Z" style="fill:white;"/>
    </g>
</svg>
