<?xml version="1.0" encoding="UTF-8" standalone="no"?>
<!DOCTYPE svg PUBLIC "-//W3C//DTD SVG 1.1//EN" "http://www.w3.org/Graphics/SVG/1.1/DTD/svg11.dtd">
<svg width="100%" height="100%" viewBox="0 0 1000 1000" version="1.1" xmlns="http://www.w3.org/2000/svg" xmlns:xlink="http://www.w3.org/1999/xlink" xml:space="preserve" xmlns:serif="http://www.serif.com/" style="fill-rule:evenodd;clip-rule:evenodd;stroke-linejoin:round;stroke-miterlimit:2;">
    <g transform="matrix(3.45627,0,0,3.45627,-340.203,33.631)">
        <path d="M176.19,135L176,135L176,39C175.572,32.3 178.198,28.896 185,30L235,30L250,5L300,5C308.469,3.64 311.093,7.622 310,15L310,134.868L310.19,134.868L310.19,230.868C310.618,237.568 307.992,240.972 301.19,239.868L251.19,239.868L236.19,264.868L186.19,264.868C177.721,266.228 175.097,262.246 176.19,254.868L176.19,135ZM179.94,253.656C179.94,255.195 181.189,256.445 182.728,256.445L191.651,256.445C193.19,256.445 194.44,255.195 194.44,253.656L194.44,248.08C194.44,246.541 193.19,245.291 191.651,245.291L182.728,245.291C181.189,245.291 179.94,246.541 179.94,248.08L179.94,253.656ZM179.94,232.656C179.94,234.195 181.189,235.445 182.728,235.445L191.651,235.445C193.19,235.445 194.44,234.195 194.44,232.656L194.44,227.08C194.44,225.541 193.19,224.291 191.651,224.291L182.728,224.291C181.189,224.291 179.94,225.541 179.94,227.08L179.94,232.656ZM291.19,232.08C291.19,233.619 292.439,234.868 293.978,234.868L302.901,234.868C304.44,234.868 305.69,233.619 305.69,232.08L305.69,226.503C305.69,224.964 304.44,223.714 302.901,223.714L293.978,223.714C292.439,223.714 291.19,224.964 291.19,226.503L291.19,232.08ZM179.94,212.656C179.94,214.195 181.189,215.445 182.728,215.445L191.651,215.445C193.19,215.445 194.44,214.195 194.44,212.656L194.44,207.08C194.44,205.541 193.19,204.291 191.651,204.291L182.728,204.291C181.189,204.291 179.94,205.541 179.94,207.08L179.94,212.656ZM291.19,211.656C291.19,213.195 292.439,214.445 293.978,214.445L302.901,214.445C304.44,214.445 305.69,213.195 305.69,211.656L305.69,206.08C305.69,204.541 304.44,203.291 302.901,203.291L293.978,203.291C292.439,203.291 291.19,204.541 291.19,206.08L291.19,211.656ZM179.94,191.656C179.94,193.195 181.189,194.445 182.728,194.445L191.651,194.445C193.19,194.445 194.44,193.195 194.44,191.656L194.44,186.08C194.44,184.541 193.19,183.291 191.651,183.291L182.728,183.291C181.189,183.291 179.94,184.541 179.94,186.08L179.94,191.656ZM179.94,170.656C179.94,172.195 181.189,173.445 182.728,173.445L191.651,173.445C193.19,173.445 194.44,172.195 194.44,170.656L194.44,165.08C194.44,163.541 193.19,162.291 191.651,162.291L182.728,162.291C181.189,162.291 179.94,163.541 179.94,165.08L179.94,170.656ZM179.94,150.656C179.94,152.195 181.189,153.445 182.728,153.445L191.651,153.445C193.19,153.445 194.44,152.195 194.44,150.656L194.44,145.08C194.44,143.541 193.19,142.291 191.651,142.291L182.728,142.291C181.189,142.291 179.94,143.541 179.94,145.08L179.94,150.656ZM306.25,119.212C306.25,117.673 305.001,116.423 303.462,116.423L294.538,116.423C292.999,116.423 291.75,117.673 291.75,119.212L291.75,124.788C291.75,126.327 292.999,127.577 294.538,127.577L303.462,127.577C305.001,127.577 306.25,126.327 306.25,124.788L306.25,119.212ZM306.25,99.212C306.25,97.673 305.001,96.423 303.462,96.423L294.538,96.423C292.999,96.423 291.75,97.673 291.75,99.212L291.75,104.788C291.75,106.327 292.999,107.577 294.538,107.577L303.462,107.577C305.001,107.577 306.25,106.327 306.25,104.788L306.25,99.212ZM306.25,78.212C306.25,76.673 305.001,75.423 303.462,75.423L294.538,75.423C292.999,75.423 291.75,76.673 291.75,78.212L291.75,83.788C291.75,85.327 292.999,86.577 294.538,86.577L303.462,86.577C305.001,86.577 306.25,85.327 306.25,83.788L306.25,78.212ZM195,58.212C195,56.673 193.751,55.423 192.212,55.423L183.288,55.423C181.749,55.423 180.5,56.673 180.5,58.212L180.5,63.788C180.5,65.327 181.749,66.577 183.288,66.577L192.212,66.577C193.751,66.577 195,65.327 195,63.788L195,58.212ZM306.25,57.212C306.25,55.673 305.001,54.423 303.462,54.423L294.538,54.423C292.999,54.423 291.75,55.673 291.75,57.212L291.75,62.788C291.75,64.327 292.999,65.577 294.538,65.577L303.462,65.577C305.001,65.577 306.25,64.327 306.25,62.788L306.25,57.212ZM195,37.788C195,36.249 193.751,35 192.212,35L183.288,35C181.749,35 180.5,36.249 180.5,37.788L180.5,43.365C180.5,44.904 181.749,46.154 183.288,46.154L192.212,46.154C193.751,46.154 195,44.904 195,43.365L195,37.788ZM306.25,37.212C306.25,35.673 305.001,34.423 303.462,34.423L294.538,34.423C292.999,34.423 291.75,35.673 291.75,37.212L291.75,42.788C291.75,44.327 292.999,45.577 294.538,45.577L303.462,45.577C305.001,45.577 306.25,44.327 306.25,42.788L306.25,37.212ZM306.25,16.212C306.25,14.673 305.001,13.423 303.462,13.423L294.538,13.423C292.999,13.423 291.75,14.673 291.75,16.212L291.75,21.788C291.75,23.327 292.999,24.577 294.538,24.577L303.462,24.577C305.001,24.577 306.25,23.327 306.25,21.788L306.25,16.212Z" style="fill:white;"/>
    </g>
</svg>
