<?xml version="1.0" encoding="UTF-8" standalone="no"?>
<!DOCTYPE svg PUBLIC "-//W3C//DTD SVG 1.1//EN" "http://www.w3.org/Graphics/SVG/1.1/DTD/svg11.dtd">
<svg width="100%" height="100%" viewBox="0 0 1000 1000" version="1.1" xmlns="http://www.w3.org/2000/svg" xmlns:xlink="http://www.w3.org/1999/xlink" xml:space="preserve" xmlns:serif="http://www.serif.com/" style="fill-rule:evenodd;clip-rule:evenodd;stroke-linejoin:round;stroke-miterlimit:2;">
    <g transform="matrix(1.38772,0,0,1.38772,-252.157,-210.194)">
        <path d="M447.552,319.957C444.159,317.331 472.727,225.957 501,206.88C535.253,183.769 573.322,178.103 620,207.803C707.482,263.464 749.035,376.795 640,480C596.316,504.747 542.424,526.987 501,551.264C494.273,555.207 502.211,567.095 510,575C527.852,643.657 573.054,666.636 630,670C647.001,673.031 658.323,673.098 663.581,670C669.02,666.795 668.968,660.202 661,650L639,591C638.049,562.781 648.582,568.47 660,580L690,650C696.555,672.703 687.706,688.149 650,690C576.766,686.348 519.443,667.158 501,610C505.023,635.194 508.163,660.675 500,684.285C495.171,698.252 491.684,707.306 490,710C469.404,724.223 443.252,730.971 411.362,730L400,710C399.431,751.189 401.44,791.007 405,830C403.635,832.597 392.501,842.191 390,830C366.489,715.414 377.377,600.547 440,540C468.188,525.221 478.959,499.058 470,460C452.193,424.016 441.603,388.32 440,344C432.119,335.962 445.066,318.854 447.552,319.957C447.576,319.976 447.603,319.99 447.63,320C447.605,319.983 447.579,319.969 447.552,319.957ZM522.5,489.638C515.481,484.832 508.257,480.654 500.775,477.266C493.292,473.879 485.552,471.282 477.5,469.638C485.278,486.761 500.873,492.566 522.5,489.638ZM510,420C521.038,420 530,428.962 530,440C530,451.038 521.038,460 510,460C498.962,460 490,451.038 490,440C490,428.962 498.962,420 510,420ZM630,440C622.981,435.194 615.757,431.016 608.275,427.629C600.792,424.241 593.052,421.644 585,420C592.778,437.123 608.373,442.928 630,440ZM502.5,365C495.481,360.194 488.257,356.016 480.775,352.629C473.292,349.241 465.552,346.644 457.5,345C465.278,362.123 480.873,367.928 502.5,365Z" style="fill:white;"/>
    </g>
</svg>
