<?xml version="1.0" encoding="UTF-8" standalone="no"?>
<!DOCTYPE svg PUBLIC "-//W3C//DTD SVG 1.1//EN" "http://www.w3.org/Graphics/SVG/1.1/DTD/svg11.dtd">
<svg width="100%" height="100%" viewBox="0 0 1000 1000" version="1.1" xmlns="http://www.w3.org/2000/svg" xmlns:xlink="http://www.w3.org/1999/xlink" xml:space="preserve" xmlns:serif="http://www.serif.com/" style="fill-rule:evenodd;clip-rule:evenodd;stroke-linejoin:round;stroke-miterlimit:2;">
    <g transform="matrix(3.39743,0,0,3.39743,-1214.16,-1200.12)">
        <path d="M401.5,495C401.5,495 402.828,488.841 402.5,485.5C404.442,485.16 405.618,484.199 406.5,483C409.743,486.494 414.034,487.464 421,482C426.348,476.127 428.278,469.32 426.5,461.5L417,441.5C419.887,443.693 433.566,439.162 434,433C434.251,429.441 434.824,420.852 423,419C417.74,418.176 411.644,421.934 409,425.435C407.628,427.251 402.657,428.132 402.5,428.469L402.5,428.5C402.497,428.491 402.496,428.486 402.497,428.477L402.5,428.469L402.5,427C406.967,420.928 411.557,417.363 414.568,414C418.434,409.683 421.955,408.279 425,407.551C429.742,406.417 433.273,407.19 436,409.227C441.861,413.606 444.011,423.823 446.5,433.5L471,476.5C490.412,471.773 505.357,479.949 520,489C525.734,485.979 531.686,484.067 538,484C539.878,471.28 543.57,458.583 556,446C556.211,436.907 558.839,428.234 564,420L567,434C575.028,422.112 582.022,408.991 595,403C601.536,395.593 608.173,389.792 615,387C615.11,393.167 614.993,399.333 614,405.5C616.414,408.346 617.199,412.038 616.5,416.5C623.02,412.89 629.902,411.522 637,411.5C634.725,419.151 630.974,426.642 626,434C626.205,444 625.542,454 624.5,464C628.495,460.965 632.716,459.294 637,458C634.857,463.239 631.542,468.407 627,473.5C625.192,483.007 622.122,492.353 617.5,501.5C620.425,501.03 623.436,501.105 626.5,501.5C624.482,503.5 621.675,505.5 618,507.5L622.5,510C620.503,512.535 617.708,513.693 615,515L615,517C614.069,518.425 611.641,520.951 608.5,524L613,524C610.802,528.022 607.679,532.211 604,536.5L604.408,537.521L599.5,535.5L605,527.5L601,527.5C603.466,524.797 605.975,522.14 608.5,519.5C597.28,519.213 585.277,521.054 572.5,525C568.467,524.823 564.153,523.876 559.5,522C548.531,508.789 535.464,498.994 517.513,497.155C532.615,502.638 545.764,512.489 557.5,525.5C562.968,527.308 568.467,528.479 574,529C581.294,526.259 592.821,523.983 601,523L592.5,531.5L599.5,530L594,538.5L604.957,538.891L605,539L592.5,548C592.66,548.581 592.813,549.161 592.959,549.742L584,553C540.084,625.449 498.706,610.832 458.5,556C498.608,618.643 541.069,626.175 587,554.614L593,552C597.323,569.832 595.223,585.38 577,600.5C528.032,625.469 470.992,630.211 400,600C389.332,587.873 379.65,574.321 375,560.704C372.512,553.418 371.464,546.114 372.476,539C373.116,534.502 376.937,531.057 379.304,527C383.644,519.562 387.332,511.068 391.872,502.151C393.164,499.614 396.061,498.229 399.069,496.875C398.877,499.917 398.049,502.958 397,506C398.993,502.413 400.894,498.811 401.5,495ZM393,516C385.326,524.901 381.189,533.858 379.914,542.862C378.639,551.865 380.226,560.915 384,570C379.488,551.979 381.619,533.977 393,516ZM403.632,430L411,436C410.587,442.227 406.967,445.275 401,446L394,475C398.14,480.887 402.178,483.197 406,478C409.882,483.274 410.943,482.265 414,481.21C416.956,480.191 418.343,478.217 420,476.51C423.404,473.003 424.26,468.813 423.556,464C422.56,457.191 418.442,449.135 414,440C427.708,441.916 432.26,434.78 431.706,429C431.378,425.585 427.734,421.834 420,421.169C418.272,421.02 415.673,422.786 413,426.676C411.455,428.924 407.222,428.547 403.632,430ZM409,436.526C399.878,425.86 393.507,432.253 388,444C393.019,441.09 397.98,438.517 402.5,438.5C396.315,440.332 395.413,442.315 395.818,442.5C398.455,444.38 409.405,444.809 409,436.526ZM416,431C420.142,431.67 422.643,430.562 423.358,429.215C424.073,427.868 423.002,426.283 420,426C417.625,426.681 415.86,427.938 416,431ZM447.203,424.463C444.453,415.596 441.603,408.735 437.001,406.5C430.866,403.521 423.03,403.261 415.5,407.625C410.92,410.279 407.646,417.617 402.5,424.5C398.77,424.527 396.511,421.581 391,418.35C385.229,414.966 386.873,405.076 389,402.852C390.18,401.618 401.885,381.65 402,386C402.572,407.572 420.008,374.943 419.5,380.5C417.794,399.157 436.192,384.18 435.5,386C434.114,389.642 445,395.006 451,394C453.21,393.629 449.084,398.695 449.282,400.5C449.436,401.904 452.976,400.916 452.5,402C451.799,403.598 452.028,405.408 453.5,406.038C455.011,406.684 456.963,407.12 459,407.288C463.142,407.629 469.111,400.827 469.5,404.5C470.124,410.398 463.119,429.99 447.203,424.463Z" style="fill:white;"/>
    </g>
</svg>
