<?xml version="1.0" encoding="UTF-8" standalone="no"?>
<!DOCTYPE svg PUBLIC "-//W3C//DTD SVG 1.1//EN" "http://www.w3.org/Graphics/SVG/1.1/DTD/svg11.dtd">
<svg width="100%" height="100%" viewBox="0 0 1000 1000" version="1.1" xmlns="http://www.w3.org/2000/svg" xmlns:xlink="http://www.w3.org/1999/xlink" xml:space="preserve" xmlns:serif="http://www.serif.com/" style="fill-rule:evenodd;clip-rule:evenodd;stroke-linejoin:round;stroke-miterlimit:2;">
    <g transform="matrix(1.43525,0,0,1.43525,-624.762,-279.066)">
        <path d="M783.683,285.525L789.283,238.823C794.525,233.094 800.291,229.198 801.108,229.275C801.691,229.33 807.891,234.704 810.731,241.039L806.892,285.313C878.759,287.579 929.128,325.084 956.722,371.003C983.396,415.393 1006.94,477.162 970.717,556.404C966.213,560.874 962.075,566.839 958.215,573.876C952.584,584.143 947.519,596.699 942.668,610.128C944.013,598.822 945.295,587.419 946.364,575.695C947.297,565.459 948.066,554.979 948.578,544.105C948.612,543.321 948.101,542.616 947.344,542.405C946.588,542.194 945.786,542.532 945.408,543.22C944.044,545.691 942.202,548.157 939.891,550.625C939.007,551.569 938.055,552.512 937.037,553.453C937.399,551.806 937.7,550.221 937.943,548.696C938.558,544.84 938.798,541.366 938.697,538.248C938.673,537.568 938.272,536.959 937.657,536.668C937.042,536.378 936.317,536.454 935.776,536.867C932.145,539.622 929.72,542.533 926.3,545.263C925.066,546.247 923.695,547.206 922.07,548.121C920.076,549.244 918.296,550.6 916.655,552.088C919.204,546.181 921,540.341 922.012,534.571C923.973,523.379 922.989,512.445 918.809,501.792C918.46,500.912 917.564,500.374 916.623,500.481C915.682,500.588 914.93,501.313 914.789,502.25C913.356,511.628 910.165,519.415 905.647,526.006C903.096,529.728 900.124,533.068 896.813,536.099C899.436,531.545 901.639,526.991 903.141,522.439C905.217,516.151 905.968,509.858 904.753,503.568C904.55,502.52 903.634,501.762 902.566,501.759C901.499,501.756 900.579,502.509 900.37,503.556C898.434,513.3 893.975,520.917 887.982,527.238C884.117,531.314 879.621,534.857 874.751,538.084C875.783,535.735 876.268,533.383 876.128,531.037C876.087,530.321 875.694,529.671 875.08,529.302C874.466,528.932 873.708,528.89 873.056,529.188C867.154,531.904 862.156,535.689 857.784,540.216C856.539,541.506 855.344,542.856 854.191,544.263C855.024,542.061 855.902,539.828 856.884,537.538C858.398,534.008 860.165,530.34 862.411,526.439C864.909,522.099 866.043,517.461 866.363,512.757C866.838,505.773 865.502,498.645 864.387,492.234C864.235,491.349 863.484,490.692 862.587,490.661C861.69,490.629 860.895,491.231 860.682,492.103C857.502,505.298 851.986,516.111 844.679,525.103C838.756,532.393 831.661,538.489 823.693,543.689C827.244,539.123 830.655,534.416 833.662,529.303C836.581,524.339 839.123,518.995 841.048,513.032C841.257,512.393 841.009,511.693 840.444,511.328C839.879,510.963 839.139,511.025 838.642,511.479C831.446,518.104 824.434,524.098 817.547,529.675C817.405,530.934 817.262,532.203 817.118,533.48C817.694,533.056 818.272,532.615 818.85,532.155C824.516,527.65 830.263,522.869 836.129,517.698C834.624,521.248 832.894,524.569 831.005,527.728C826.447,535.35 820.967,542.033 815.489,548.717C815.441,548.777 815.397,548.839 815.358,548.904L815.201,550.258C815.264,550.452 815.364,550.636 815.5,550.8C816.001,551.403 816.859,551.567 817.547,551.191C829.132,544.922 839.314,537.204 847.429,527.353C853.545,519.928 858.485,511.292 861.965,501.148C862.455,504.871 862.744,508.699 862.466,512.481C862.162,516.597 861.175,520.659 858.969,524.446C856.618,528.484 854.765,532.281 853.176,535.937C849.082,545.358 846.784,553.822 842.064,563.109C841.549,564.131 841.95,565.377 842.964,565.906C843.979,566.435 845.231,566.05 845.772,565.042C850.135,556.964 854.878,549.346 860.859,543.196C863.956,540.012 867.386,537.224 871.275,534.983C871.1,535.525 870.883,536.068 870.629,536.611C869.487,539.057 867.609,541.488 865.232,543.932C864.472,544.715 864.403,545.937 865.068,546.802C865.733,547.668 866.933,547.913 867.885,547.38C878.447,541.474 888.109,534.797 895.041,525.82C896.714,523.652 898.23,521.351 899.567,518.887C899.37,519.607 899.152,520.327 898.915,521.048C896.378,528.775 891.701,536.495 886.446,544.225C885.855,545.092 885.96,546.256 886.696,547.003C887.432,547.751 888.594,547.873 889.47,547.295C897.286,542.119 904.052,535.999 909.198,528.429C912.71,523.263 915.471,517.423 917.292,510.737C919.158,518.302 919.366,526.02 918.028,533.883C916.409,543.406 912.538,553.134 906.624,563.058C906.116,563.904 906.328,564.996 907.114,565.592C907.9,566.188 909.009,566.095 909.686,565.377C912.397,562.486 914.915,559.142 917.868,556.17C919.665,554.361 921.625,552.692 923.919,551.383C925.73,550.35 927.257,549.271 928.628,548.162C930.999,546.246 932.881,544.241 935.031,542.261C934.937,544.106 934.733,546.066 934.415,548.146C933.958,551.139 933.267,554.377 932.329,557.872C932.13,558.604 932.425,559.38 933.058,559.797C933.692,560.213 934.521,560.174 935.114,559.701C937.906,557.456 940.338,555.212 942.411,552.969C943.319,551.987 944.159,551.004 944.931,550.021C944.503,558.7 943.914,567.139 943.22,575.42C941.869,591.529 940.117,607.035 938.348,622.517C938.264,623.229 938.731,623.89 939.431,624.048C940.13,624.207 940.836,623.811 941.067,623.132C947.04,605.332 953.199,588.277 960.331,575.026C964.289,567.672 968.53,561.491 973.219,557.051C983.424,558.02 985.554,563.397 987.927,571.202C995.349,595.616 984.281,646.177 931.16,665.581C908.889,725.224 871.217,768.349 816.517,793.223L802.229,848.439C800.804,854.184 790.36,856.594 789.234,856.323C788.109,856.051 779.915,849.141 781.269,843.379L790.496,802.244C789.081,801.816 787.738,801.123 786.543,800.179C786.417,800.08 786.293,795.101 786.172,794.997C765.649,793.824 749.022,789.42 734.768,775.204C703.821,763.154 667.849,746.372 649.964,720.702C634.524,698.542 627.378,670.389 629.964,635.204C612.596,635.272 581.986,593.091 578.677,565.204C576.909,550.315 576.448,526.28 589.964,515.056C589.904,514.982 589.842,514.911 589.778,514.845C590.765,513.848 591.718,512.939 592.647,512.157C594.991,510.187 597.078,508.992 599.297,510.039C600.552,510.631 601.5,512.083 602.671,513.881C604.78,517.121 607.31,521.462 611.794,525.381C615.283,528.429 617.856,532.77 620.468,537.664C620.82,538.322 621.171,538.99 621.525,539.666L609.964,578.204L618.719,579.472C624.166,608.16 658.305,628.757 698.063,626.243C735.733,623.861 765.787,601.533 770.361,574.406C774.478,571.462 778.66,569.216 782.91,567.7C783.185,565.131 783.466,562.511 783.752,559.858C779.475,561.321 775.212,563.589 770.963,566.853C770.957,566.07 770.929,565.284 770.879,564.495C769.939,549.634 761.419,536.58 748.234,527.231C753.619,523.505 758.427,519.51 762.265,515.069C760.306,518.93 757.508,522.597 753.882,526.077C753.401,526.538 753.266,527.253 753.545,527.858C753.823,528.463 754.455,528.824 755.118,528.759C764.498,527.831 772.986,524.8 782.782,525.949C784.348,526.133 785.91,526.178 787.468,526.127L787.82,523.005C786.266,523.067 784.708,523.029 783.146,522.845C774.646,521.848 767.102,523.872 759.153,525.091C764.468,519.036 767.577,512.469 768.513,505.409C768.614,504.647 768.145,503.924 767.408,503.706C766.67,503.487 765.884,503.838 765.553,504.533C761.762,512.499 754.737,518.969 746.269,524.792C749.54,507.635 748.793,489.864 740.683,470.598C734.866,456.779 733.755,443.66 734.525,427.277C734.562,426.479 733.99,425.78 733.2,425.659C732.409,425.539 731.655,426.034 731.452,426.808C725.665,448.89 716.718,462.943 712.707,476.769C709.037,489.415 707.082,499.906 706.449,508.724C704.052,497.778 703.565,486.756 706.476,475.598C706.679,474.818 706.256,474.011 705.498,473.736C704.741,473.46 703.898,473.806 703.552,474.534C696.719,488.936 689.23,497.839 687.417,507.928C687.123,509.562 686.927,511.168 686.83,512.746C680.551,513.388 674.509,514.587 668.791,516.268C662.983,512.237 657.691,507.64 653.165,502.204C652.719,501.669 651.973,501.493 651.336,501.773C650.698,502.053 650.323,502.721 650.415,503.411C651.205,509.322 653.268,515.153 656.311,520.921C655.736,521.184 655.168,521.452 654.604,521.725C647.28,515.695 641.233,508.537 636.3,500.394C635.958,499.83 635.299,499.541 634.653,499.673C634.006,499.804 633.512,500.327 633.418,500.98C631.978,510.917 633.11,521.05 639.066,531.536C638.582,531.929 638.107,532.325 637.639,532.726C637.125,532.231 636.62,531.709 636.126,531.159C635.742,530.732 635.155,530.55 634.597,530.685C634.038,530.82 633.599,531.251 633.453,531.806C632.9,533.904 632.374,536.053 631.885,538.268C630.216,540.084 628.68,541.968 627.285,543.913C625.856,541.255 624.539,538.653 623.225,536.192C620.417,530.933 617.6,526.304 613.85,523.027C609.629,519.338 607.276,515.227 605.29,512.177C603.731,509.781 602.302,508.001 600.63,507.213C597.35,505.666 594.1,506.853 590.636,509.766C589.464,510.751 588.255,511.94 586.989,513.252C585.73,512.618 584.513,511.682 583.964,509.204C547.469,344.447 668.427,290.092 783.683,285.525ZM796.067,620.854L786.293,707.484C786.024,709.644 786.845,711.797 788.486,713.229C790.126,714.661 792.37,715.185 794.475,714.626L795.772,714.263C795.772,714.263 788.846,790.244 788.846,790.244C788.66,792 789.387,793.73 790.773,794.825C792.159,795.92 794.01,796.228 795.676,795.64L799.269,794.311C799.269,794.311 787.918,844.913 787.918,844.913C787.405,847.036 788.713,849.176 790.836,849.689C792.959,850.202 795.099,848.894 795.612,846.771L810.905,787.67C811.331,785.905 810.757,784.049 809.41,782.832C808.062,781.616 806.157,781.235 804.445,781.839L800.052,783.314C800.052,783.314 809.376,706.261 809.376,706.261C809.598,704.163 808.774,702.09 807.172,700.717C805.57,699.344 803.395,698.847 801.355,699.388L800.594,699.58C800.594,699.58 813.092,607.938 813.092,607.938C813.449,605.071 812.179,602.244 809.798,600.607C807.624,599.113 804.855,598.838 802.451,599.842C804.007,587.014 806.352,567.447 808.608,547.87C812.451,514.508 816.033,481.116 816.033,481.116C816.378,478.049 814.973,475.048 812.398,473.347C809.822,471.647 806.51,471.536 803.825,473.058L803.231,473.401C803.231,473.401 816.484,407.137 816.484,407.137C817.048,404.435 816.051,401.645 813.902,399.913C811.754,398.181 808.815,397.799 806.295,398.925L800.547,401.576C800.547,401.576 811.345,320.849 811.345,320.849C811.702,318.433 810.509,316.052 808.359,314.891C806.21,313.731 803.564,314.041 801.741,315.665L797.036,319.982C797.036,319.982 803.936,240.407 803.936,240.407C804.161,238.234 802.579,236.288 800.407,236.064C798.234,235.839 796.288,237.421 796.064,239.593L784.858,333.037C784.625,335.296 785.804,337.467 787.825,338.501C789.847,339.536 792.297,339.222 793.993,337.712L797.316,334.838C797.316,334.838 784.741,412.413 784.741,412.413C784.361,414.983 785.411,417.555 787.48,419.124C789.549,420.694 792.31,421.011 794.681,419.952L799.062,418.059C799.062,418.059 783.881,487.663 783.881,487.663C783.231,490.774 784.463,493.978 787.031,495.851C789.598,497.725 793.025,497.921 795.79,496.353L797.865,495.193C796.381,508.031 794.209,527.018 792.123,546.015C788.455,579.398 785.049,612.808 785.049,612.808C784.723,615.707 786.03,618.547 788.444,620.185C790.707,621.722 793.594,621.963 796.067,620.854ZM785.053,756.677L784.732,760.205C778.356,759.698 772.856,758.792 768.282,757.536C760.391,755.368 755.261,752.158 753.164,748.153L785.053,756.677ZM786.862,720.282C784.472,720.247 782.132,720.215 779.964,720.198C771.192,720.128 757.899,730.701 739.964,737.168L770.951,728.518C772.552,729.161 774.497,729.645 776.85,730.006C779.723,730.447 783.204,730.707 787.407,730.852L787.587,728.875L776.53,726.961L788.055,723.743L788.315,720.897C787.82,720.721 787.335,720.516 786.862,720.282ZM780.919,694.242L780.77,694.251C775.919,694.53 771.705,695.245 767.894,696.69C766.22,697.324 764.628,698.117 763.096,699.07C760.947,700.407 758.909,702.065 756.942,704.13C753.3,707.954 749.884,713.17 746.277,720.282C746.081,720.641 746.212,721.093 746.571,721.29C746.93,721.487 747.382,721.355 747.579,720.996C751.503,714.356 755.152,709.57 758.858,706.055C762.076,703.003 765.364,700.999 769.01,699.605C772.471,698.283 776.247,697.511 780.605,697.03L780.919,694.242ZM814.942,717.064C816.84,717.195 818.732,717.334 820.638,717.43C821.223,717.406 821.718,717.861 821.742,718.446C821.767,719.031 821.312,719.526 820.727,719.551C818.659,719.829 816.607,720.122 814.542,720.37L814.942,717.064ZM815.804,702.233C816.6,702.242 817.396,702.249 818.192,702.252C819.947,702.259 821.702,702.225 823.457,702.187C826.091,702.129 828.721,702.042 831.353,701.936C837.941,701.672 844.504,701.296 851.087,700.962C851.673,700.958 852.145,700.48 852.142,699.894C852.138,699.309 851.66,698.836 851.074,698.84C844.49,698.587 837.927,698.276 831.341,698.053C828.71,697.964 826.082,697.89 823.45,697.841C821.697,697.808 819.943,697.779 818.19,697.788C816.703,697.795 815.216,697.812 813.73,697.836C814.689,699.164 815.391,700.657 815.804,702.233ZM746.828,640.577C746.828,640.577 745.285,643.981 743.107,648.243C742.291,649.841 741.386,651.554 740.425,653.238C740.049,653.897 739.649,654.541 739.251,655.177C738.632,656.167 738.009,657.125 737.405,658.036C734.759,662.023 732.606,665.077 732.606,665.077C732.4,665.431 731.946,665.551 731.591,665.346C731.237,665.14 731.117,664.686 731.322,664.331C731.322,664.331 732.906,660.948 735.056,656.672C735.547,655.696 736.07,654.68 736.623,653.651C736.978,652.991 737.339,652.324 737.725,651.67C738.711,650.001 739.749,648.366 740.732,646.865C743.354,642.86 745.544,639.831 745.544,639.831C745.75,639.477 746.204,639.357 746.559,639.562C746.913,639.768 747.033,640.222 746.828,640.577ZM784.984,658.215C784.492,657.898 784.057,657.56 783.695,657.196C783.132,656.632 782.778,656.007 782.826,655.276C782.908,653.767 782.343,652.378 781.216,651.163C780.137,650 778.505,648.977 776.554,648.151C773.726,646.954 770.217,646.112 766.955,645.551C761.765,644.659 757.237,644.465 757.237,644.465C756.829,644.427 756.467,644.727 756.429,645.135C756.391,645.543 756.691,645.905 757.099,645.943C757.099,645.943 766.057,647.221 772.911,649.832C775.038,650.642 776.952,651.572 778.277,652.673C779.158,653.405 779.794,654.171 779.752,655.132C779.694,657.659 781.536,659.789 784.583,661.179L784.647,661.208L784.984,658.215ZM759.581,611.304C758.074,615.664 756.761,619.436 755.629,622.751C754.657,625.603 753.844,628.109 753.205,630.361C752.388,633.241 751.892,635.686 751.776,637.91C751.688,639.618 751.815,641.186 752.241,642.725C752.901,645.11 754.217,647.412 756.286,650.01C758.497,652.786 761.497,655.881 765.455,659.647C765.762,659.918 765.791,660.388 765.52,660.695C765.25,661.002 764.78,661.031 764.473,660.761C760.142,657.226 756.816,654.323 754.375,651.637C751.833,648.839 750.23,646.261 749.374,643.579C748.784,641.731 748.547,639.821 748.656,637.747C748.784,635.308 749.39,632.625 750.418,629.507C751.168,627.233 752.153,624.723 753.345,621.883C754.704,618.647 756.348,614.999 758.198,610.765C758.347,610.383 758.778,610.194 759.159,610.343C759.541,610.492 759.73,610.923 759.581,611.304ZM814.914,645.079C815.176,645.086 815.437,645.106 815.697,645.136C816.294,645.204 816.847,645.301 817.422,645.477C818.277,645.739 819.027,646.021 819.837,646.443C820.41,646.562 820.779,647.124 820.66,647.697C820.541,648.271 819.979,648.64 819.405,648.52C818.497,648.58 817.727,648.801 816.857,648.993C816.528,649.066 816.229,649.171 815.899,649.24C815.427,649.339 814.972,649.491 814.49,649.559C814.427,649.568 814.363,649.576 814.3,649.584L814.914,645.079ZM705.334,516.958C700.73,516.554 695.981,516.49 691.143,516.795C690.742,516.821 690.342,516.849 689.942,516.879C690.229,521.709 691.637,526.215 694.282,530.364C694.653,530.947 694.597,531.704 694.146,532.226C693.694,532.749 692.953,532.912 692.323,532.629C684.407,529.068 676.756,525.215 669.745,520.662C666.895,521.537 664.135,522.542 661.474,523.668C662.629,525.549 663.886,527.422 665.232,529.291C665.665,529.892 665.616,530.714 665.116,531.26C664.615,531.806 663.8,531.925 663.164,531.546C660.503,529.961 657.97,528.262 655.563,526.454C651.434,528.609 647.614,531.069 644.159,533.787C645.597,535.9 647.249,538.027 649.137,540.172C649.621,540.722 649.658,541.534 649.225,542.126C648.793,542.718 648.007,542.929 647.336,542.635C644.527,541.403 641.794,539.96 639.209,538.096C637.289,539.95 635.524,541.894 633.929,543.917C633.376,546.921 632.897,550.063 632.516,553.382C632.441,554.034 631.968,554.569 631.33,554.723C630.692,554.877 630.027,554.616 629.663,554.07C629.275,553.486 628.897,552.901 628.529,552.315C625.125,559.017 623.461,566.286 623.936,573.787C625.769,602.78 658.86,624.32 697.786,621.859C736.712,619.397 766.826,593.861 764.993,564.868C763.455,540.54 739.908,521.459 709.379,517.404C709.409,518.321 709.457,519.215 709.522,520.088C709.581,520.877 709.04,521.586 708.263,521.738C707.487,521.889 706.719,521.436 706.477,520.683C706.077,519.442 705.695,518.2 705.334,516.958ZM641.688,535.828L641.566,535.934C641.737,536.053 641.909,536.17 642.082,536.285C641.965,536.119 641.85,535.953 641.736,535.787L641.688,535.828ZM651.576,523.268C645.591,518.175 640.448,512.335 636.063,505.826C635.621,513.582 637.07,521.473 641.57,529.59C644.665,527.29 648.012,525.173 651.576,523.268ZM686.825,517.166C682.33,517.655 677.97,518.452 673.781,519.526C678.734,522.573 683.982,525.294 689.39,527.841C687.899,524.466 687.055,520.904 686.825,517.166ZM743.239,523.998C746.353,507.474 745.61,490.358 737.803,471.81C733.201,460.879 731.426,450.376 731.207,438.451C725.714,454.605 719.027,466.201 715.708,477.639C711.539,492.006 709.613,503.515 709.366,512.912C722.021,514.428 733.609,518.317 743.239,523.998ZM665.068,517.444C661.345,514.726 657.846,511.764 654.635,508.486C655.664,512.245 657.21,515.97 659.177,519.666C661.094,518.867 663.058,518.126 665.068,517.444ZM704.108,512.424C701.838,503.317 700.767,494.162 701.659,484.929C696.535,494.063 691.852,500.916 690.493,508.48C690.25,509.832 690.079,511.163 689.982,512.472C690.277,512.45 690.571,512.43 690.866,512.412C695.361,512.127 699.785,512.139 704.108,512.424Z" style="fill:white;"/>
    </g>
</svg>
