<?xml version="1.0" encoding="UTF-8" standalone="no"?>
<!DOCTYPE svg PUBLIC "-//W3C//DTD SVG 1.1//EN" "http://www.w3.org/Graphics/SVG/1.1/DTD/svg11.dtd">
<svg width="100%" height="100%" viewBox="0 0 1000 1000" version="1.1" xmlns="http://www.w3.org/2000/svg" xmlns:xlink="http://www.w3.org/1999/xlink" xml:space="preserve" xmlns:serif="http://www.serif.com/" style="fill-rule:evenodd;clip-rule:evenodd;stroke-linejoin:round;stroke-miterlimit:2;">
    <g transform="matrix(9.375,0,0,9.375,-3718.75,-2420.31)">
        <path d="M477,329C475.158,335.04 473.025,340.878 470,347C469.604,347.802 470.435,354.181 471,355C473.626,353.278 476.021,351.073 478,348C478.344,342.23 478.704,336.001 477,329ZM423,329C424.842,335.04 426.975,340.878 430,347C430.396,347.802 429.565,354.181 429,355C426.374,353.278 423.979,351.073 422,348C421.656,342.23 421.296,336.001 423,329ZM459.5,344.5C456.806,344.16 454.142,344.193 451.5,344.5C451.062,344.5 452.374,354.06 454.5,354C457.501,353.916 460.526,344.448 459.5,344.5ZM440.5,344.5C443.194,344.16 445.858,344.193 448.5,344.5C448.938,344.5 447.626,354.06 445.5,354C442.499,353.916 439.474,344.448 440.5,344.5ZM468.5,343C466.159,343.228 463.825,343.684 461.5,344.5C460.423,345.135 461.776,353.708 464,353.5C466.134,353.301 469.607,344.614 468.5,343ZM431.5,343C433.841,343.228 436.175,343.684 438.5,344.5C439.577,345.135 438.224,353.708 436,353.5C433.866,353.301 430.393,344.614 431.5,343ZM449.859,336.04C446.916,336.862 444.741,336.711 441.5,336C437.569,336.12 436.379,335.959 434,335L434,330.5C434,326.383 437.918,328.194 441,332.5C446.633,325.849 447.673,327.112 450,334L450.168,333.681C452.614,327.075 454.055,325.953 459,332.5C462.082,328.194 466,326.383 466,330.5L466,335C463.621,335.959 462.431,336.12 458.5,336C455.208,336.722 453.015,336.867 450,336L449.859,336.04ZM449.181,325.007C440.73,325.071 432.716,324.716 432,324L429,335L422,323C415.595,319.588 409.83,315.378 405,310C406.865,307.356 408.776,304.816 411,303C413.576,304.619 414.921,306.658 415,309.396C415.087,312.436 425.94,312.74 433,313C437.717,311.118 440.005,308.597 442,306C436.194,309.361 432.066,307.211 428,302C420.353,292.2 416.776,294.069 408,299C410.947,292.454 413.596,285.82 419,280C427.451,280.991 437.449,281.442 450,281L450.586,281.02C462.863,281.428 472.68,280.976 481,280C486.404,285.82 489.053,292.454 492,299C483.224,294.069 479.647,292.2 472,302C467.934,307.211 463.806,309.361 458,306C459.995,308.597 462.283,311.118 467,313C474.06,312.74 484.913,312.436 485,309.396C485.079,306.658 486.424,304.619 489,303C491.224,304.816 493.135,307.356 495,310C490.17,315.378 484.405,319.588 478,323L471,335L468,324C467.261,324.739 458.745,325.093 450,325L449.181,325.007ZM493,293C490.544,287.509 487.983,282.262 485,278C489.599,275.243 493.893,271.826 498,268C497.969,277.504 496.449,285.942 493,293ZM407,293C409.456,287.509 412.017,282.262 415,278C410.401,275.243 406.107,271.826 402,268C402.031,277.504 403.551,285.942 407,293Z" style="fill:white;"/>
    </g>
</svg>
