<?xml version="1.0" encoding="UTF-8" standalone="no"?>
<!DOCTYPE svg PUBLIC "-//W3C//DTD SVG 1.1//EN" "http://www.w3.org/Graphics/SVG/1.1/DTD/svg11.dtd">
<svg width="100%" height="100%" viewBox="0 0 1000 1000" version="1.1" xmlns="http://www.w3.org/2000/svg" xmlns:xlink="http://www.w3.org/1999/xlink" xml:space="preserve" xmlns:serif="http://www.serif.com/" style="fill-rule:evenodd;clip-rule:evenodd;stroke-linejoin:round;stroke-miterlimit:2;">
    <g transform="matrix(6.07984,0,0,6.07984,-2281.62,-1582.74)">
        <path d="M468.548,406.493C463.593,408.593 459.259,410.445 456.594,411.53C455.262,412.073 454.176,412.447 454.02,412.501C453.854,412.494 453.689,412.57 453.588,412.717C453.432,412.944 453.489,413.256 453.717,413.412C453.78,413.456 453.904,413.523 454.105,413.502C454.229,413.489 454.524,413.406 454.964,413.245C459.238,411.686 479.695,402.6 492.175,397.931C493.958,397.264 495.655,396.85 497.121,396.485C507.979,393.784 531.199,385.471 531.199,385.471C531.459,385.378 531.594,385.091 531.501,384.831C531.408,384.572 531.121,384.436 530.862,384.529C530.862,384.529 507.708,392.821 496.879,395.515C495.381,395.888 493.647,396.313 491.825,396.994C489.906,397.712 487.799,398.534 485.59,399.418C485.967,395.835 482.379,395.408 475,398C474.644,395.733 470.762,394.485 469,392.569C467.286,390.705 466.123,388.146 465,385.247C463.282,380.812 460.921,376.797 460,372C458.8,365.748 453.412,360.172 450,355C459.561,354.545 455.344,349.154 449,343C446.843,340.836 446.337,337.805 448.642,336C451.822,333.509 453.508,330.447 453.5,326.615C453.492,322.618 455.795,319.235 460,317C482.002,314.971 483.946,305.113 485.477,304C489.588,301.01 488.416,299.101 486,298.208C485.086,297.87 483.703,299.614 482,301.191C476.769,306.033 468.61,308.139 465,305.107C463.549,303.889 460.595,302.964 457,303C458.903,300.109 460.927,300.425 463,302C467.467,298.838 470.238,294.871 471,290C468.463,288.645 468.212,286.502 469,284C471.594,283.224 471.107,280.598 469,277L470,277C471.764,275.926 471.977,275.064 471,274.364C469.383,273.205 464.61,270.67 458,272C452.395,271.46 448.109,275.192 444,278.093C442.324,279.276 440.046,279.087 438,279L441,282C438.699,284.082 437.433,285.879 437.507,287.5C437.875,295.586 443.678,299.092 447,298C448.365,299.455 447.501,301.11 445,300.878C438.343,300.259 429.651,299.675 424,303.201C420.407,305.442 415.773,309.034 411,314C405.427,318.019 406.821,319.994 407.334,320.729C407.787,321.378 411.763,323.397 413.5,318.5C419.667,314.945 425.833,312.093 432,310.5C430.909,312.153 428.651,312.256 427,312.689C421.295,314.186 419.214,318.393 420.264,322C420.849,324.007 423.685,326.535 429,329.5C425.348,331.969 424.543,335.075 422,335.351C418.053,335.781 415.117,336.096 413.5,337.5C414.128,341.168 414.555,344.724 414.933,348C415.225,350.539 417.343,352.412 419.5,354C416.985,355.591 415.452,357.901 415,361C412.678,358.662 411.132,356.203 408.536,354C406.711,352.451 405.635,350.327 404.5,348.5C402.183,342.913 399.85,339.413 397.5,338C391.257,342.711 385.539,347.296 383.5,351C384.203,352.304 388.111,354.143 392,350.72C400.88,342.903 407.42,373.679 417,368.124C420.495,366.097 424.248,363.067 427.5,357C431.266,357.237 433.188,355.279 434,352C434.997,356.069 437.002,358.703 441,358.5C443.598,363.096 448.025,367.386 453.5,371.5C454.327,379.564 456.172,386.948 462.131,392C464.148,393.71 465.184,396.74 465.862,399.5C466.544,402.278 467.141,404.746 468.548,406.493Z" style="fill:white;"/>
    </g>
</svg>
