<?xml version="1.0" encoding="UTF-8" standalone="no"?>
<!DOCTYPE svg PUBLIC "-//W3C//DTD SVG 1.1//EN" "http://www.w3.org/Graphics/SVG/1.1/DTD/svg11.dtd">
<svg width="100%" height="100%" viewBox="0 0 1000 1000" version="1.1" xmlns="http://www.w3.org/2000/svg" xmlns:xlink="http://www.w3.org/1999/xlink" xml:space="preserve" xmlns:serif="http://www.serif.com/" style="fill-rule:evenodd;clip-rule:evenodd;stroke-linejoin:round;stroke-miterlimit:2;">
    <g transform="matrix(3.23893,0,0,3.23893,-1089.71,-1015.38)">
        <path d="M490.811,335.731L538.912,415.61L629.746,436.673L568.64,507.103L576.678,600L490.811,563.649L404.945,600L412.983,507.103L351.877,436.673L442.711,415.61L490.811,335.731ZM520,484.764L530.418,502.065L550.091,506.626L536.856,521.88L538.597,542L520,534.127L501.403,542L503.144,521.88L489.909,506.626L509.582,502.065L520,484.764ZM457.748,502.438L464.584,513.792L477.495,516.785L468.81,526.796L469.952,540L457.748,534.833L445.543,540L446.685,526.796L438,516.785L450.911,513.792L457.748,502.438ZM556.252,440L563.089,451.354L576,454.347L567.315,464.358L568.457,477.562L556.252,472.395L544.048,477.562L545.19,464.358L536.505,454.347L549.416,451.354L556.252,440Z" style="fill:white;"/>
    </g>
</svg>
