<?xml version="1.0" encoding="UTF-8" standalone="no"?>
<!DOCTYPE svg PUBLIC "-//W3C//DTD SVG 1.1//EN" "http://www.w3.org/Graphics/SVG/1.1/DTD/svg11.dtd">
<svg width="100%" height="100%" viewBox="0 0 1000 1000" version="1.1" xmlns="http://www.w3.org/2000/svg" xmlns:xlink="http://www.w3.org/1999/xlink" xml:space="preserve" xmlns:serif="http://www.serif.com/" style="fill-rule:evenodd;clip-rule:evenodd;stroke-linejoin:round;stroke-miterlimit:2;">
    <g transform="matrix(6.14334,0,0,6.14334,-2571.61,-2413.48)">
        <path d="M476.078,495C487.019,532.076 473.332,528.383 455,517C453.679,515.041 453.592,513.136 456,511C457.814,509.392 454.574,506.641 453,505C454.462,508.111 456.09,511.291 451.765,512C452.859,534.685 450.132,544.34 445.5,547.5C429.085,530.187 424.593,512.24 431,500.297C434.035,494.641 439.826,492.895 452.5,497.5C450.914,496.242 449.283,495.128 447.5,494.5C446.761,492.126 447.761,490.459 450.5,489.5C464.137,479.924 473.975,478.828 476.078,495ZM523.901,495C512.96,532.076 526.646,528.383 544.979,517C546.3,515.041 546.387,513.136 543.979,511C542.165,509.392 545.405,506.641 546.979,505C545.517,508.111 543.889,511.291 548.214,512C547.12,534.685 549.847,544.34 554.479,547.5C570.894,530.187 575.386,512.24 568.979,500.297C565.944,494.641 560.153,492.895 547.479,497.5C549.065,496.242 550.696,495.128 552.479,494.5C553.218,492.126 552.218,490.459 549.479,489.5C535.842,479.924 526.003,478.828 523.901,495ZM500.075,509.997C506.454,509.713 513.081,505.922 520,498C517.065,503.546 516.996,509.185 517,515.012C511.624,516.931 505.708,520 500,520L499.933,520C494.246,519.976 488.355,516.923 483,515.012C483.004,509.185 482.935,503.546 480,498C486.946,505.953 493.598,509.743 500,510L500.075,509.997ZM500,447.025C509.878,447.563 520.678,456.55 522.135,464C526.37,485.671 514.429,506.844 500,507.716L500,507.743C499.846,507.743 499.692,507.741 499.539,507.736C499.386,507.741 499.232,507.743 499.078,507.743L499.078,507.716C484.648,506.844 472.707,485.671 476.943,464C478.399,456.55 489.199,447.563 499.078,447.025L499.078,447C499.231,447 499.385,447.002 499.539,447.006C499.692,447.002 499.846,447 500,447L500,447.025ZM499.539,491.924C502.651,490.483 505.509,487.489 504.785,479C506.177,478.382 506.757,477.701 507.078,477L504.078,478C502.48,478.012 500.775,477.725 499.539,477.141C498.302,477.725 496.597,478.012 495,478L492,477C492.32,477.701 492.9,478.382 494.292,479C493.568,487.489 496.427,490.483 499.539,491.924ZM554.139,478.169L550,487C546.559,484.609 542.848,482.686 539,481C544.252,481.121 549.337,480.377 554.139,478.169ZM446.52,478.169L450.659,487C454.1,484.609 457.811,482.686 461.659,481C456.407,481.121 451.322,480.377 446.52,478.169ZM477,436.847C472.551,434.045 469.421,431.11 468,428C460.094,432.282 449.597,443 449.597,443C449.597,443 443.594,453.683 443,460C441.375,468.417 444.919,474.196 452,478.169C457.453,462.717 465.428,448.734 477,436.847ZM523,436.847C527.449,434.045 530.579,431.11 532,428C539.906,432.282 550.403,443 550.403,443C550.403,443 556.406,453.683 557,460C558.625,468.417 555.081,474.196 548,478.169C542.547,462.717 534.572,448.734 523,436.847ZM499.867,445.023C477.305,449.042 474.669,461.866 475,476C468.588,478.009 462.651,478.47 457,478C461.621,464.046 470.388,450.854 481,438C486.564,440.15 492.666,440.73 500,441L500.343,440.987C507.524,440.711 513.523,440.117 519,438C529.612,450.854 538.379,464.046 543,478C537.349,478.47 531.412,478.009 525,476C525.331,461.837 522.685,448.991 500,445L499.867,445.023ZM481.505,469.549C483.94,469.058 486.138,469.757 486.411,471.11C486.684,472.462 484.929,473.959 482.495,474.451C480.06,474.942 477.862,474.243 477.589,472.89C477.316,471.538 479.071,470.041 481.505,469.549ZM517.572,469.549C515.138,469.058 512.94,469.757 512.667,471.11C512.394,472.462 514.148,473.959 516.583,474.451C519.017,474.942 521.216,474.243 521.489,472.89C521.762,471.538 520.007,470.041 517.572,469.549ZM486,459.5C488.535,459.436 489.5,461.292 489.5,463.5C489.5,465.708 487.932,467.5 486,467.5C484.068,467.5 482.5,465.708 482.5,463.5C482.5,461.292 483.528,459.562 486,459.5ZM513.078,459.5C510.543,459.436 509.578,461.292 509.578,463.5C509.578,465.708 511.146,467.5 513.078,467.5C515.009,467.5 516.578,465.708 516.578,463.5C516.578,461.292 515.55,459.562 513.078,459.5ZM513,460C514.808,460 516.275,461.468 516.275,463.275C516.275,465.083 514.808,466.55 513,466.55C511.192,466.55 509.725,465.083 509.725,463.275C509.725,461.468 511.192,460 513,460ZM486,460C487.808,460 489.275,461.468 489.275,463.275C489.275,465.083 487.808,466.55 486,466.55C484.192,466.55 482.725,465.083 482.725,463.275C482.725,461.468 484.192,460 486,460ZM512.703,460.5C511.802,460.441 511.828,460.948 511.828,461.5C511.828,462.052 512.22,462.5 512.703,462.5C513.185,462.5 513.578,462.052 513.578,461.5C513.578,460.948 513.532,460.555 512.703,460.5ZM485.375,460.5C486.275,460.441 486.25,460.948 486.25,461.5C486.25,462.052 485.858,462.5 485.375,462.5C484.892,462.5 484.5,462.052 484.5,461.5C484.5,460.948 484.546,460.555 485.375,460.5ZM500,413C516.006,413 529,418.713 529,425.75C529,432.787 516.006,438.5 500,438.5C483.994,438.5 471,432.787 471,425.75C471,418.713 483.994,413 500,413ZM532,425L530,420C535.791,423.584 540.994,428.559 546,434C541.333,430.554 536.667,427.204 532,425ZM468,425L470,420C464.209,423.584 459.006,428.559 454,434C458.667,430.554 463.333,427.204 468,425ZM506,412C505.922,408.033 507.422,404.402 510,401C503.315,402.883 499.054,406.605 497,412C499.999,411.731 503,411.787 506,412Z" style="fill:white;"/>
    </g>
</svg>
