<?xml version="1.0" encoding="UTF-8" standalone="no"?>
<!DOCTYPE svg PUBLIC "-//W3C//DTD SVG 1.1//EN" "http://www.w3.org/Graphics/SVG/1.1/DTD/svg11.dtd">
<svg width="100%" height="100%" viewBox="0 0 1000 1000" version="1.1" xmlns="http://www.w3.org/2000/svg" xmlns:xlink="http://www.w3.org/1999/xlink" xml:space="preserve" xmlns:serif="http://www.serif.com/" style="fill-rule:evenodd;clip-rule:evenodd;stroke-linejoin:round;stroke-miterlimit:2;">
    <g transform="matrix(1.59552,0,0,1.59552,-279.747,-334.218)">
        <path d="M334,426C331.45,427.311 327.564,421.482 329,419C338.664,402.3 394.24,359.172 432.917,346.119C448.532,340.849 466.72,338.941 468,350C470.016,367.41 371.759,520.659 360.981,550C355.17,565.819 356.353,565.226 360,566C401.293,574.759 548.41,408.963 583.388,347.31C587.438,340.171 602.508,347.344 607.234,353.106C611.374,358.152 607.964,362.699 604.456,370C581.133,418.537 502.191,535.385 497,565.5C496.055,570.984 506.986,569.6 514.561,566.041C538.612,554.739 578.04,513.872 582,521C586.218,528.592 570.518,541.095 552.357,557.055C521.846,583.869 472.233,616.548 448,604C431.714,595.567 513.968,474.358 505,478C500.309,479.905 457.674,517.883 409.443,560C380.527,585.25 350,604.204 335,608C330.057,609.251 323.495,602.112 320,605C308.704,614.335 282.489,665.375 272,718C269.569,730.195 267.987,742.81 256,754C249.113,760.429 211.994,773.49 208,767C201.208,755.962 221.8,733.339 238.961,701C284.244,615.665 365.993,475.101 395.805,412C402.37,398.105 413.719,386.045 407,383C405.424,382.286 404.288,381.135 402,381.455C386.517,383.626 346.167,419.743 334,426ZM756,448C753.758,448.042 752.013,443.927 749.218,441C742.459,433.92 730.039,420.942 712,435C703.196,441.861 702.696,453.546 704.767,469C706.859,484.61 718.5,502.254 721.243,523C723.992,543.796 714.805,560.091 714,561C691.379,586.556 671.66,598.633 649,602.622C635.143,605.061 620.579,599.087 614,586C610.298,578.636 622.109,562.015 629,562C634.922,561.987 643.405,575.536 655,581.15C661.075,584.092 668.851,583.103 677,579C687.021,573.955 691.461,569.85 694.568,558C697.208,547.933 691.137,531.949 682,515.225C676.82,505.744 676.617,494.292 675,485C672.127,468.494 684.44,443.982 701,431C741.415,399.318 759.582,413.232 767.107,418C774.375,422.605 770.815,447.722 756,448ZM716.382,284C719.093,278.621 706.604,277.288 699,277C690.653,276.684 682.422,277.447 679,283C667.481,301.69 648.155,376.342 643,395C642.196,397.909 650.558,398.652 652,396C660.205,380.91 695.882,324.68 716.382,284Z" style="fill:white;"/>
    </g>
</svg>
