<?xml version="1.0" encoding="UTF-8" standalone="no"?>
<!DOCTYPE svg PUBLIC "-//W3C//DTD SVG 1.1//EN" "http://www.w3.org/Graphics/SVG/1.1/DTD/svg11.dtd">
<svg width="100%" height="100%" viewBox="0 0 1000 1000" version="1.1" xmlns="http://www.w3.org/2000/svg" xmlns:xlink="http://www.w3.org/1999/xlink" xml:space="preserve" xmlns:serif="http://www.serif.com/" style="fill-rule:evenodd;clip-rule:evenodd;stroke-linejoin:round;stroke-miterlimit:2;">
    <g transform="matrix(8.44528,0,0,8.44528,-5862.24,-3589.22)">
        <path d="M753.209,537.348C750.283,534.46 748.02,531.252 746.64,527.617C747.791,527.352 748.649,526.993 749.18,526.566C749.625,526.207 749.876,525.793 749.949,525.344C750.066,524.629 749.708,523.737 748.625,522.764C747.78,522.004 746.472,521.147 744.643,520.201C745.184,519.537 746.114,519.042 747.392,518.688C748.908,518.268 750.899,518.067 753.349,518.105L753.577,518.102C755.923,518.08 757.837,518.281 759.306,518.688C760.584,519.042 761.514,519.537 762.055,520.201C760.226,521.147 758.918,522.004 758.073,522.764C756.99,523.737 756.632,524.629 756.749,525.344C756.822,525.793 757.073,526.207 757.518,526.566C758.049,526.993 758.907,527.352 760.058,527.617C758.656,531.309 756.343,534.562 753.349,537.485L753.209,537.348ZM753.108,516.859C750.635,516.912 748.624,517.188 747.091,517.671C745.988,518.019 745.123,518.474 744.497,519.017C744.882,514.155 745.484,509.551 746.227,505.113C747.105,499.873 748.178,494.866 749.322,489.942C749.379,489.701 749.229,489.458 748.987,489.401C748.745,489.344 748.503,489.493 748.446,489.735C747.259,494.669 746.144,499.688 745.224,504.941C744.366,509.843 743.68,514.948 743.263,520.379C743.247,520.607 743.369,520.822 743.573,520.925C746.076,522.192 747.642,523.271 748.383,524.19C748.677,524.555 748.833,524.863 748.785,525.15C748.753,525.336 748.623,525.491 748.438,525.638C747.963,526.016 747.173,526.296 746.117,526.503C736.14,525.116 727.547,521.619 724.068,510.335C730.524,511.895 736.152,512.039 740.619,510.251C740.927,510.249 741.194,510.018 741.234,509.704C741.754,505.411 742.435,501.238 743.312,497.214C744.234,492.983 745.372,488.917 746.791,485.058C746.878,484.825 746.761,484.566 746.528,484.478C746.296,484.391 746.036,484.508 745.948,484.741C744.454,488.619 743.232,492.709 742.241,496.973C741.362,500.754 740.667,504.672 740.11,508.697C735.579,506.838 730.732,504.505 726.204,502.251C723.254,500.607 720.419,498.632 717.726,496.253C721.607,484.684 728.725,475.93 741.078,471.729L743.478,475.036C738.474,479.749 734.703,484.909 731.029,490.103L734.049,492.579C737.371,487.186 740.85,481.881 744.779,476.829L753.349,488.64L761.919,476.829C765.848,481.881 769.327,487.186 772.649,492.579L775.669,490.103C771.995,484.909 768.224,479.749 763.22,475.036L765.62,471.729C777.973,475.93 785.091,484.684 788.972,496.253C786.279,498.632 783.444,500.607 780.494,502.251C775.966,504.505 771.119,506.838 766.588,508.697C766.031,504.672 765.336,500.754 764.457,496.973C763.466,492.709 762.244,488.619 760.75,484.741C760.662,484.508 760.402,484.391 760.17,484.478C759.937,484.566 759.82,484.825 759.907,485.058C761.326,488.917 762.464,492.983 763.386,497.214C764.263,501.238 764.944,505.411 765.464,509.704C765.504,510.018 765.771,510.249 766.079,510.251C770.546,512.039 776.174,511.895 782.63,510.335C779.151,521.619 770.558,525.116 760.581,526.503C759.525,526.296 758.735,526.016 758.26,525.638C758.075,525.491 757.945,525.336 757.913,525.15C757.865,524.863 758.021,524.555 758.315,524.19C759.056,523.271 760.622,522.192 763.125,520.925C763.329,520.822 763.451,520.607 763.435,520.379C763.018,514.948 762.332,509.843 761.474,504.941C760.554,499.688 759.439,494.669 758.252,489.735C758.195,489.493 757.953,489.344 757.711,489.401C757.469,489.458 757.319,489.701 757.376,489.942C758.52,494.866 759.593,499.873 760.471,505.113C761.214,509.551 761.816,514.155 762.201,519.017C761.575,518.474 760.71,518.019 759.607,517.671C758.025,517.173 755.932,516.895 753.349,516.855L753.108,516.859ZM779.035,504.367C780.488,505.822 781.718,507.381 782.803,509.006C777.054,510.452 771.977,510.784 767.825,509.537C771.489,508.004 775.334,506.186 779.035,504.367ZM727.663,504.367C726.21,505.822 724.98,507.381 723.895,509.006C729.644,510.452 734.721,510.784 738.873,509.537C735.209,508.004 731.364,506.186 727.663,504.367ZM749.181,446.9L741.078,469.411L753.349,487.074L765.62,469.411L757.517,446.9L749.181,446.9ZM750.344,448.555L742.924,469.168L753.349,484.174L763.774,469.168L756.354,448.555L750.344,448.555ZM744.789,469.423L750.621,468.696L752.849,471.903L752.849,481.024L744.789,469.423ZM761.915,469.414L753.93,480.908L753.93,471.903L756.158,468.696L761.915,469.414ZM770.346,430.917C768.214,437.473 764.662,443.212 759.286,447.899L767.23,469.715L766.505,470.438C768.666,471.304 770.85,472.278 773.067,473.403C775.788,460.707 778.001,448.661 775.653,439.766C774.711,436.196 773.031,433.18 770.346,430.917ZM736.352,430.917C738.484,437.473 742.036,443.212 747.412,447.899L739.468,469.715L740.193,470.438C738.032,471.304 735.848,472.278 733.631,473.403C730.91,460.707 728.697,448.661 731.045,439.766C731.987,436.196 733.667,433.18 736.352,430.917ZM751.09,450.576L752.882,460.804L752.827,461.115L750.454,467.709L744.663,468.431L751.09,450.576ZM755.662,450.728L762.031,468.42L756.325,467.709L753.951,461.115L753.897,460.804L755.662,450.728ZM753.389,457.907L751.994,449.942L754.785,449.941L753.389,457.907Z" style="fill:white;"/>
    </g>
</svg>
