<?xml version="1.0" encoding="UTF-8" standalone="no"?>
<!DOCTYPE svg PUBLIC "-//W3C//DTD SVG 1.1//EN" "http://www.w3.org/Graphics/SVG/1.1/DTD/svg11.dtd">
<svg width="100%" height="100%" viewBox="0 0 1000 1000" version="1.1" xmlns="http://www.w3.org/2000/svg" xmlns:xlink="http://www.w3.org/1999/xlink" xml:space="preserve" xmlns:serif="http://www.serif.com/" style="fill-rule:evenodd;clip-rule:evenodd;stroke-linejoin:round;stroke-miterlimit:2;">
    <path d="M942.985,777.83C944.874,777.584 946.944,776.648 949.078,774.604C952.514,771.316 953.273,766.57 951.038,760.619C949.023,755.251 944.327,748.546 938.014,741.146C938.2,740.608 938.322,740.087 938.393,739.589C938.694,737.466 938.139,735.68 937.159,734.355C937.106,733.116 936.895,731.927 936.541,730.79C936.435,730.448 936.315,730.111 936.182,729.778C936.279,716.121 938.98,708.337 939.089,707.014C939.268,704.825 938.144,703.748 937.589,703.281C936.482,702.349 934.82,701.57 932.615,702.94C930.893,704.01 929.153,706.626 928.305,710.769C927.768,713.398 927.462,716.796 927.366,720.666C927.28,720.619 927.194,720.572 927.107,720.525C920.24,716.823 909.474,714.474 895.979,713.517C835.84,709.254 719.462,731.677 665.129,762.977C494.368,861.347 290.176,746.544 210.469,536.461C173.301,438.498 157.335,319.293 62.131,202.967C62.07,202.893 62.004,202.822 61.934,202.756C58.714,199.699 55.359,196.52 53.1,195.481C51.025,194.526 49.398,194.912 48.339,196.088C47.839,196.643 47.64,197.406 47.805,198.135C47.942,198.741 48.32,199.487 48.751,199.992C149.497,318.074 164.876,439.834 202.661,539.424C284.349,754.73 494.291,871.029 669.298,770.213C722.507,739.561 836.493,717.673 895.389,721.848C907.402,722.699 917.031,724.581 923.144,727.876C925.039,728.898 926.557,730.023 927.558,731.352C927.6,732.142 927.648,732.938 927.701,733.739C927.452,734.04 927.229,734.377 927.039,734.753C926.585,735.648 926.254,736.863 926.501,738.534C926.506,738.568 926.512,738.603 926.518,738.638C919.116,747.035 913.556,754.654 911.317,760.619C909.082,766.57 909.841,771.316 913.276,774.604C916.016,777.227 918.65,778.027 920.929,777.883C924.165,777.678 927.318,775.348 929.593,770.962C930.161,769.868 930.69,768.63 931.177,767.284C931.665,768.63 932.193,769.867 932.761,770.962C933.34,772.078 933.972,773.061 934.642,773.906C934.775,780.856 934.071,787.932 932.565,795.129C932.093,797.385 933.541,799.6 935.797,800.072C938.053,800.544 940.268,799.095 940.74,796.84C942.084,790.414 942.838,784.078 942.985,777.83ZM926.161,752.097C925.396,757.826 924.095,763.425 922.18,767.116C921.713,768.018 921.231,768.781 920.665,769.306C920.574,769.39 920.411,769.504 920.351,769.546C920.235,769.528 920.132,769.433 920.002,769.35C919.698,769.157 919.386,768.892 919.051,768.571C918.468,768.013 918.337,767.274 918.405,766.426C918.474,765.553 918.745,764.594 919.135,763.554C920.385,760.226 922.862,756.36 926.161,752.097ZM942.786,769.033C942.585,766.143 942.249,763.273 941.775,760.424L941.774,760.42C942.36,761.511 942.845,762.557 943.22,763.554C943.61,764.594 943.881,765.553 943.95,766.426C944.018,767.274 943.886,768.013 943.304,768.571C943.126,768.742 942.954,768.897 942.786,769.033Z" style="fill:white;"/>
</svg>
