<?xml version="1.0" encoding="UTF-8" standalone="no"?>
<!DOCTYPE svg PUBLIC "-//W3C//DTD SVG 1.1//EN" "http://www.w3.org/Graphics/SVG/1.1/DTD/svg11.dtd">
<svg width="100%" height="100%" viewBox="0 0 1000 1000" version="1.1" xmlns="http://www.w3.org/2000/svg" xmlns:xlink="http://www.w3.org/1999/xlink" xml:space="preserve" xmlns:serif="http://www.serif.com/" style="fill-rule:evenodd;clip-rule:evenodd;stroke-linejoin:round;stroke-miterlimit:2;">
    <g transform="matrix(7.48036,0,0,7.48036,-2293.74,-3240.18)">
        <path d="M321.57,491.451L323.327,487.419L325.16,488.218L323.404,492.25L330.737,495.446L333.781,488.463L335.614,489.262L332.571,496.245L339.905,499.441L341.661,495.41L343.495,496.209L341.738,500.24L349.072,503.436L352.115,496.453L353.949,497.252L350.905,504.235L358.239,507.432L359.996,503.4L361.829,504.199L360.072,508.231L367.406,511.427L370.45,504.444L372.283,505.243L369.24,512.226L376.573,515.422L378.33,511.391L380.164,512.19L378.407,516.221L385.741,519.417L388.784,512.434L390.617,513.233L387.574,520.216L394.908,523.413L396.665,519.381L398.498,520.18L396.741,524.212L404.075,527.408L407.119,520.425L408.952,521.224L405.909,528.207L413.242,531.403L414.999,527.372L416.833,528.171L415.076,532.202L423.326,535.798L433.635,512.145L323.628,464.202L313.32,487.855L321.57,491.451ZM374.672,494.458C374.653,494.534 374.419,495.468 374.402,495.831C374.379,496.284 374.553,496.592 374.69,496.744C374.938,497.02 375.358,497.267 375.94,496.952C376.025,496.906 376.164,496.809 376.307,496.653C376.506,496.438 376.82,496 376.848,495.963C377.176,495.53 377.538,495.107 377.946,494.746C378.26,494.468 378.732,494.28 379.184,494.267C379.497,494.257 379.815,494.334 379.981,494.634C380.342,495.288 380.02,495.934 379.755,496.575C379.057,498.26 377.091,500.053 375.108,499.818C374.56,499.753 374.062,500.145 373.997,500.693C373.932,501.241 374.324,501.739 374.872,501.804C377.699,502.14 380.608,499.742 381.603,497.34C382.102,496.135 382.411,494.897 381.731,493.667C381.173,492.657 380.18,492.236 379.125,492.267C378.235,492.294 377.311,492.663 376.675,493.201C376.627,492.592 376.505,491.964 376.269,491.423C375.894,490.564 375.258,489.904 374.288,489.662C373.349,489.428 372.479,489.653 371.728,490.151C370.788,490.774 370.05,491.857 369.657,492.778C368.468,495.569 368.535,497.867 370.185,500.424C370.468,500.861 370.844,501.661 371.26,501.99C371.694,502.332 372.323,502.258 372.665,501.824C373.007,501.391 372.933,500.762 372.5,500.42C372.412,500.351 372.355,500.215 372.283,500.087C372.131,499.816 371.992,499.534 371.866,499.339C370.619,497.408 370.599,495.67 371.497,493.562C371.716,493.048 372.085,492.449 372.568,492.023C372.917,491.715 373.33,491.484 373.804,491.603C374.245,491.713 374.429,492.121 374.549,492.544C374.73,493.183 374.726,493.915 374.672,494.458Z" style="fill:white;"/>
    </g>
</svg>
