<?xml version="1.0" encoding="UTF-8" standalone="no"?>
<!DOCTYPE svg PUBLIC "-//W3C//DTD SVG 1.1//EN" "http://www.w3.org/Graphics/SVG/1.1/DTD/svg11.dtd">
<svg width="100%" height="100%" viewBox="0 0 1000 1000" version="1.1" xmlns="http://www.w3.org/2000/svg" xmlns:xlink="http://www.w3.org/1999/xlink" xml:space="preserve" xmlns:serif="http://www.serif.com/" style="fill-rule:evenodd;clip-rule:evenodd;stroke-linejoin:round;stroke-miterlimit:2;">
    <g transform="matrix(0.96283,0,0,0.96283,18.5848,18.5848)">
        <path d="M882.652,619.107C986.166,575.215 957.97,418.015 880.343,383.78L896.702,364.762C974.267,401.9 1006.33,585.612 896.473,634.975L896.702,635.238C878.981,679.309 824.23,743.648 738.021,746.236C695.778,747.505 656.556,747.46 623.509,753.64C558.505,765.797 514.695,791.335 508.997,855L486.913,855C487.354,852.159 487.864,849.347 488.443,846.557C476.462,776.49 411.393,746.983 302.876,750.659C177.038,749.9 126.686,702.069 100.026,639.464L116.385,620.446C146.153,698.806 219.358,733.645 332.753,728.214C402.812,727.094 462.134,747.674 500.798,810.022C521.965,766.534 563.532,735.931 621.873,729.98C658.403,726.254 697.768,723.929 739.305,723.988C813.901,724.094 862.11,664.709 881.979,618.333L882.652,619.107ZM103.527,365.025L103.298,364.762C121.019,320.691 175.77,256.352 261.979,253.764C304.222,252.495 343.444,252.54 376.491,246.36C441.495,234.203 485.305,208.665 491.003,145L513.087,145C512.646,147.841 512.136,150.653 511.557,153.443C514.672,171.661 521.376,187.137 531.5,200C560.312,236.611 616.822,252.061 697.124,249.341C822.962,250.1 873.314,297.931 899.974,360.536L883.615,379.554C864.185,328.408 826.251,295.803 770.726,280.839L436.622,743.784L421.473,742.005L759.819,278.459L761.093,278.459C748.455,275.609 734.968,273.608 720.641,272.447L383.598,729.549L257.349,724.211L588.121,263.333L597.168,263.885C557.688,253.042 524.144,230.202 499.202,189.978C478.035,233.466 436.468,264.069 378.127,270.02C341.597,273.746 302.232,276.071 260.695,276.012C186.099,275.906 137.89,335.291 118.021,381.667L117.348,380.893C13.834,424.785 42.03,581.985 119.657,616.22L103.298,635.238C25.733,598.1 -6.334,414.388 103.527,365.025Z" style="fill:white;"/>
    </g>
</svg>
