<?xml version="1.0" encoding="UTF-8" standalone="no"?>
<!DOCTYPE svg PUBLIC "-//W3C//DTD SVG 1.1//EN" "http://www.w3.org/Graphics/SVG/1.1/DTD/svg11.dtd">
<svg width="100%" height="100%" viewBox="0 0 1000 1000" version="1.1" xmlns="http://www.w3.org/2000/svg" xmlns:xlink="http://www.w3.org/1999/xlink" xml:space="preserve" xmlns:serif="http://www.serif.com/" style="fill-rule:evenodd;clip-rule:evenodd;stroke-linejoin:round;stroke-miterlimit:2;">
    <g transform="matrix(1.76471,0,0,1.76471,-391.233,-348.824)">
        <path d="M356.532,680.5C377.89,690.446 401.698,696 426.793,696C518.848,696 593.586,621.263 593.586,529.207C593.586,437.152 518.848,362.414 426.793,362.414C375.61,362.414 329.781,385.518 299.17,421.864C333.94,370.09 393.02,336 460,336C566.843,336 653.586,422.743 653.586,529.586C653.586,574.022 638.582,614.981 613.369,647.667C654.46,607.689 680,551.803 680,490C680,368.579 581.421,270 460,270C366.833,270 287.115,328.038 255.064,409.891C285.874,303.713 383.933,226 500,226C640.738,226 755,340.262 755,481C755,621.738 640.738,736 500,736C430.757,736 367.924,708.342 321.947,663.473C318.363,661.268 310.419,652.074 311.102,652C311.187,652.752 315.912,655.872 322.557,659.384C342.482,667.566 361.784,669.661 379,663.816C392.957,659.078 405.432,649.195 413.497,633.173C410.126,631.921 407.721,628.674 407.721,624.869C407.721,619.981 411.689,616.013 416.576,616.013C421.464,616.013 425.432,619.981 425.432,624.869C425.432,628.64 423.069,631.864 419.745,633.14C412.129,650.801 397.864,661.407 380.753,668.997C447.656,651.484 453.884,611.645 444.624,569.732C443.874,569.907 443.092,570 442.289,570C436.641,570 432.055,565.415 432.055,559.766C432.055,554.118 436.641,549.533 442.289,549.533C447.937,549.533 452.522,554.118 452.522,559.766C452.522,562.045 451.776,564.15 450.515,565.852C458.909,600.962 453.115,625.022 439.594,642C425.518,659.675 402.203,670.143 374.459,675.909C430.435,676.337 467.711,644.719 482.754,616.013C497.36,588.142 505.903,545.012 461.995,501.967C459.929,503.556 457.343,504.5 454.539,504.5C447.778,504.5 442.289,499.011 442.289,492.25C442.289,485.489 447.778,480 454.539,480C461.284,480 466.763,485.463 466.789,492.202C520.147,551.81 501.873,601.069 485.648,627.36C464.359,661.858 415.141,685.058 361,681L356.532,680.5Z" style="fill:white;"/>
    </g>
</svg>
