<?xml version="1.0" encoding="UTF-8" standalone="no"?>
<!DOCTYPE svg PUBLIC "-//W3C//DTD SVG 1.1//EN" "http://www.w3.org/Graphics/SVG/1.1/DTD/svg11.dtd">
<svg width="100%" height="100%" viewBox="0 0 1000 1000" version="1.1" xmlns="http://www.w3.org/2000/svg" xmlns:xlink="http://www.w3.org/1999/xlink" xml:space="preserve" xmlns:serif="http://www.serif.com/" style="fill-rule:evenodd;clip-rule:evenodd;stroke-linejoin:round;stroke-miterlimit:2;">
    <g transform="matrix(1.47146,0,0,1.47146,-135.185,-273.376)">
        <path d="M391.843,550.822C334.936,568.305 288.166,567.443 250.83,556.09C205.295,575.66 178.157,601.391 172.471,627.953C165.633,659.897 170.567,742.239 265.184,749.69C306.203,877.736 422.48,835.306 455.481,814.24C481.233,797.8 500.072,754.675 497.88,693.679C475.153,658.123 455.582,617.418 442.665,573.393L434.981,575.235C434.099,575.446 433.183,575.47 432.291,575.305L425.482,574.041C459.249,699.096 443.271,789.362 378.842,794.829C343.636,797.816 315.819,781.98 315.953,758.084C316.033,743.616 312.643,728.741 307.402,713.539C292.158,706.403 273.588,708.489 257.023,709.729C236.372,711.275 213.609,684.987 211.163,667.777C208.567,649.508 223.219,590.091 293.882,590.614C354.155,591.06 376.199,575.048 396.397,558.259L391.843,550.822ZM290.291,768.624C306.479,810.929 334.213,829.329 357.062,832.658C383.159,836.459 440.525,821.785 437.401,781.727C385.057,836.962 336.304,827.473 290.291,768.624ZM453.237,570.589C452.704,570.895 452.129,571.123 451.528,571.267L447.599,572.209C499.156,747.574 657.168,869.632 695.57,818.936C715.201,793.02 684.882,768.773 573.996,690.079C563.54,682.659 553.177,673.184 542.902,662.245C510.726,643.561 478.872,613.123 453.237,570.589ZM458.82,566.381C523.19,673.786 627.896,702.694 674.813,656.789C694.385,637.639 750.44,585.561 671.301,513.483C675.151,444.497 660.842,416.993 635.823,408.411C599.173,395.839 504.598,404.121 463.604,493.351L472.005,502.209C472.629,502.867 473.108,503.649 473.411,504.504L474.927,508.789C473.847,487.098 556.21,430.716 584.23,437.697C597.406,440.98 632.812,445.197 624.243,488.775C519.815,487.296 486.803,496.899 475.299,509.84L479.086,520.545C479.389,521.401 479.508,522.31 479.437,523.214L478.958,529.277C510.459,506.351 555.714,505.173 617.115,529.533C652.72,573.93 640.753,608.721 624.107,616.868C600.992,628.182 530.944,612.635 476.865,543.616L469.209,557.709C468.776,558.506 468.18,559.203 467.46,559.755L458.82,566.381ZM629.481,528.653C639.2,539.865 646.217,552.738 650.302,566.657C654.388,580.577 655.542,595.543 653.536,610.941C668.705,577.702 663.542,547 629.481,528.653ZM422.871,488.241L407.511,495.563L396.456,508.498L391.619,524.812L393.835,541.683L402.722,556.194L416.742,565.835L433.472,568.941L450.019,564.973L463.521,554.619L471.645,539.667L472.985,522.704L467.309,506.663L455.6,494.317L439.881,487.801L422.871,488.241ZM421.701,481.876C423.419,438.039 435.378,395.004 452.44,359.503C442.325,265.158 384.849,226.383 345.416,226.562C304.468,226.749 253.989,250.428 241.336,323.503C183.538,321.031 153.587,358.006 142.157,398.702C126.873,453.119 200.365,602.041 388.46,545.298L388.316,545.063C387.842,544.29 387.536,543.425 387.418,542.526L385.202,525.655C385.084,524.756 385.156,523.842 385.414,522.972L385.651,522.172C224.271,531.159 176.523,445.874 185.049,408.984C189.652,389.069 211.352,352.916 273.821,356.848C305.563,228.47 429.143,282.304 405.3,407.589C400.089,434.97 398.328,463.869 401.302,492.865L402.59,491.358C403.18,490.668 403.907,490.11 404.726,489.72L420.086,482.399C420.6,482.154 421.143,481.978 421.701,481.876ZM451.641,485.669C451.943,389.305 504.316,342.649 536.239,336.196C556.878,332.024 594.079,334.292 599.517,377.995C632.844,390.361 649.352,403.921 656.692,416.181C661.567,421.367 665.673,428.063 668.882,436.608C675.131,453.247 677.948,477.295 676.215,511.481C680.404,515.374 684.21,519.214 687.66,522.996C760.757,434.571 707.999,356.864 645.431,345.462C612.282,282.926 561.159,270.869 532.969,279.669C485.387,294.522 431.828,386.073 427.934,481.636L439.713,481.331C440.62,481.307 441.522,481.475 442.36,481.822L451.641,485.669Z" style="fill:white;"/>
    </g>
</svg>
