<?xml version="1.0" encoding="UTF-8" standalone="no"?>
<!DOCTYPE svg PUBLIC "-//W3C//DTD SVG 1.1//EN" "http://www.w3.org/Graphics/SVG/1.1/DTD/svg11.dtd">
<svg width="100%" height="100%" viewBox="0 0 1000 1000" version="1.1" xmlns="http://www.w3.org/2000/svg" xmlns:xlink="http://www.w3.org/1999/xlink" xml:space="preserve" xmlns:serif="http://www.serif.com/" style="fill-rule:evenodd;clip-rule:evenodd;stroke-linejoin:round;stroke-miterlimit:2;">
    <g transform="matrix(2.70884,0,0,2.70884,-1065.66,-569.783)">
        <path d="M484.523,258.494C494.913,245.508 512.143,240 540,240C569.027,240 586.515,245.98 596.75,260.169C596.149,260.818 595.749,261.639 595.617,262.532C591.946,287.416 592.499,305.398 596.991,316.136C599.857,322.99 604.222,327.285 609.999,329.113L610,330L610,560L470,560L470,331.202C470.913,330.985 471.759,330.471 472.382,329.687C489.378,308.295 490.341,285.08 486.257,261.27C486.064,260.142 485.434,259.149 484.523,258.494ZM540.182,363.922C547.888,364.054 552.978,372.541 555.069,380C557.597,369.456 558.817,359.489 557.126,350C555.513,354.296 552.921,355.317 550,355.241C551.281,351.531 548.355,350 540,350C531.645,350 528.719,351.531 530,355.241C527.079,355.317 524.487,354.296 522.874,350C521.183,359.489 522.403,369.456 524.931,380C527.038,372.483 532.193,363.921 540,363.921L540.182,363.922ZM716.975,353.355C715.568,361.778 713.286,370.71 710,380C717.884,374.878 724.171,368.426 729.085,361.118C729.035,360.864 728.978,360.615 728.914,360.372C728.444,358.6 727.553,357.156 726.189,356.054C725.426,355.438 724.514,354.934 723.449,354.529C722.513,354.174 721.463,353.894 720.287,353.695C719.273,353.523 718.171,353.408 716.975,353.355ZM718.728,330.293C718.879,336.875 718.425,343.983 717.271,351.507C718.462,351.509 719.566,351.579 720.587,351.715C721.924,351.894 723.122,352.188 724.182,352.585C725.481,353.071 726.579,353.713 727.489,354.485C728.832,355.625 729.78,357.048 730.342,358.729C730.376,358.829 730.408,358.929 730.438,359.031C736.339,349.574 740.081,338.808 742.13,327.673C740.368,326.016 738.517,324.727 736.626,323.854C734.222,322.744 731.755,322.34 729.298,322.752C727.027,323.133 724.771,324.205 722.583,326.075C721.268,327.199 719.977,328.597 718.728,330.293ZM708.764,293.747C714.271,301.547 717.912,313.192 718.626,327.506C719.497,326.405 720.391,325.445 721.305,324.62C723.756,322.407 726.348,321.137 728.953,320.699C731.813,320.218 734.702,320.733 737.465,322.1C739.195,322.956 740.878,324.154 742.483,325.655C745.164,309.424 744.331,292.542 741.403,277.897C738.34,277.565 735.485,277.549 732.811,277.834C728.649,278.278 724.94,279.476 721.556,281.375C718.229,283.242 715.219,285.783 712.432,288.989C711.168,290.444 709.947,292.03 708.764,293.747ZM445.659,245.938C447.252,252.27 448.307,258.266 448.781,263.907C449.201,268.912 449.164,273.639 448.649,278.067C448.27,281.33 447.628,284.432 446.719,287.363C444.503,294.508 440.728,300.653 435.257,305.702C446.129,312.899 457.457,319.977 469,327C485.139,306.688 485.878,284.609 482,262C469.887,256.541 457.774,251.17 445.659,245.938ZM640.617,242.018C628.164,247.209 614.599,254.187 600,263.179C594.15,302.824 598.867,324.159 615.055,325.616C622.569,318.263 629.77,311.97 636.607,306.651C634.411,302.69 632.692,298.67 631.455,294.591C629.48,288.082 628.719,281.423 629.214,274.628C629.68,268.244 631.256,261.739 633.934,255.125C635.685,250.803 637.913,246.436 640.617,242.018ZM567.99,305.835L567.944,305.767L553,318C560.413,329.192 575.893,317.335 567.99,305.835ZM512.01,305.835L512.056,305.767L527,318C519.587,329.192 504.107,317.335 512.01,305.835ZM643.311,240.916C640.181,245.968 637.662,250.945 635.741,255.845C633.216,262.285 631.743,268.592 631.291,274.78C630.812,281.33 631.478,287.744 633.311,294.039C634.443,297.926 636.011,301.767 638.018,305.563C652.762,294.299 665.752,287.621 676.427,284.661C675.174,281.232 674.36,277.888 673.96,274.627C673.154,268.054 674.007,261.805 676.332,255.885C678.514,250.328 681.999,245.058 686.596,240.067C689.795,236.593 693.541,233.257 697.769,230.044C683.379,228.975 665.089,232.173 643.311,240.916ZM433.753,304.705C439.057,299.752 442.68,293.745 444.771,286.769C445.617,283.944 446.215,280.962 446.581,277.826C447.082,273.523 447.141,268.933 446.781,264.065C446.344,258.133 445.29,251.793 443.649,245.071C438.099,242.682 432.549,240.323 427,238C411.01,245.476 409.638,265.731 414,291C420.363,295.626 426.967,300.189 433.753,304.705ZM552.723,291.714C551.293,292.201 549.945,292.82 548.699,293.622C547.862,294.16 547.07,294.774 546.344,295.481C545.643,296.164 545.006,296.935 544.423,297.775C543.616,298.938 542.928,300.241 542.328,301.678C542.151,302.048 542.307,302.494 542.678,302.672C543.048,302.849 543.494,302.693 543.672,302.322C544.361,301.061 545.144,299.953 545.97,298.94C546.55,298.23 547.166,297.585 547.796,296.973C548.444,296.344 549.107,295.752 549.813,295.215C550.89,294.399 552.028,293.677 553.277,293.097C553.659,292.944 553.844,292.51 553.691,292.128C553.538,291.747 553.104,291.561 552.723,291.714ZM527.277,291.714C528.707,292.201 530.055,292.82 531.301,293.622C532.138,294.16 532.93,294.774 533.656,295.481C534.357,296.164 534.994,296.935 535.577,297.775C536.384,298.938 537.072,300.241 537.672,301.678C537.849,302.048 537.693,302.494 537.322,302.672C536.952,302.849 536.506,302.693 536.328,302.322C535.639,301.061 534.856,299.953 534.03,298.94C533.45,298.23 532.834,297.585 532.204,296.973C531.556,296.344 530.893,295.752 530.187,295.215C529.11,294.399 527.972,293.677 526.723,293.097C526.341,292.944 526.156,292.51 526.309,292.128C526.462,291.747 526.896,291.561 527.277,291.714ZM700.267,230.277C695.589,233.838 691.487,237.537 688.034,241.376C683.673,246.226 680.37,251.306 678.269,256.647C675.54,263.586 674.86,270.966 676.633,278.881C677.025,280.631 677.534,282.406 678.165,284.207C687.434,281.935 694.843,282.568 700,285.492C702.777,287.068 705.339,289.332 707.618,292.213C708.691,290.606 709.803,289.111 710.959,287.732C713.85,284.283 717.013,281.539 720.537,279.559C724.157,277.526 728.16,276.294 732.622,275.899C735.253,275.666 738.049,275.729 741.03,276.095C737.47,259.49 731.226,245.999 724.446,240C718.61,234.835 710.494,231.425 700.267,230.277Z" style="fill:white;"/>
    </g>
</svg>
