<?xml version="1.0" encoding="UTF-8" standalone="no"?>
<!DOCTYPE svg PUBLIC "-//W3C//DTD SVG 1.1//EN" "http://www.w3.org/Graphics/SVG/1.1/DTD/svg11.dtd">
<svg width="100%" height="100%" viewBox="0 0 1000 1000" version="1.1" xmlns="http://www.w3.org/2000/svg" xmlns:xlink="http://www.w3.org/1999/xlink" xml:space="preserve" xmlns:serif="http://www.serif.com/" style="fill-rule:evenodd;clip-rule:evenodd;stroke-linejoin:round;stroke-miterlimit:2;">
    <g transform="matrix(1.51261,0,0,1.51261,-254.79,-256.303)">
        <path d="M499,202.5C663.195,202.5 796.5,335.805 796.5,500C796.5,664.195 663.195,797.5 499,797.5C334.805,797.5 201.5,664.195 201.5,500C201.5,335.805 334.805,202.5 499,202.5ZM506,250L506,752C557.7,682.9 634.988,656.62 730,660C607.23,574.352 542.027,427.648 506,250ZM492,250L492,752C440.3,682.9 363.012,656.62 268,660C390.77,574.352 455.973,427.648 492,250Z" style="fill:white;"/>
    </g>
</svg>
