<?xml version="1.0" encoding="UTF-8" standalone="no"?>
<!DOCTYPE svg PUBLIC "-//W3C//DTD SVG 1.1//EN" "http://www.w3.org/Graphics/SVG/1.1/DTD/svg11.dtd">
<svg width="100%" height="100%" viewBox="0 0 1000 1000" version="1.1" xmlns="http://www.w3.org/2000/svg" xmlns:xlink="http://www.w3.org/1999/xlink" xml:space="preserve" xmlns:serif="http://www.serif.com/" style="fill-rule:evenodd;clip-rule:evenodd;stroke-linejoin:round;stroke-miterlimit:2;">
    <g transform="matrix(1.85564,0,0,1.85564,-518.721,-247.152)">
        <path d="M540.967,163.996C545.869,159.37 550.895,158.437 556.134,163.762C558.806,169.876 556.344,175.395 551.988,178.977C565.531,203.804 571.964,223.51 558.223,233.907C557.381,243.418 566.74,260.574 566.74,260.574C572.96,260.664 584.201,271.988 585.204,277.134C592.74,278.861 594.732,283.599 594.406,289.596C633.058,319.244 658.813,360.703 669.725,415.759L675.232,457.587L671.863,459.666C667.57,518.65 645.982,562.182 603.006,586.606C604.191,596.63 602.269,605.408 595.323,612.17C599.689,619.655 605.427,622.39 611.991,622.27C619.652,625.382 618.446,629.523 615.381,634.692C611.039,637.927 604.535,640.842 594.149,643.184C562.077,645.918 530.628,645.743 499.742,642.944C490.373,639.775 485.051,636.759 483.412,633.883C475.97,629.089 479.141,625.396 485.868,622.072C493.658,620.614 498.225,616.13 501.636,610.56C493.804,606.585 492.196,597.69 494.846,585.429C455.25,570.338 430.958,531.652 427.246,461.237L422.739,456.399L426.762,414.413C441.051,358.058 466.28,316.068 503.524,289.857C501.357,283.683 503.276,278.821 512.12,276.178C514.27,270.666 526.509,257.779 531.325,258.665C531.325,258.665 537.923,243.871 538.592,234.419C528.049,226.599 528.866,209.462 545.935,178.994C539.362,173.995 538.799,168.995 540.967,163.996ZM548.363,498.065C566.058,498.065 580.423,511.603 580.423,528.279C580.423,544.955 566.058,558.494 548.363,558.494C530.669,558.494 516.303,544.955 516.303,528.279C516.303,511.603 530.669,498.065 548.363,498.065ZM532.968,307.429C543.051,320.328 553.135,321.581 563.219,307.742C615.234,344.499 620.341,404.948 609.034,473.687L577.603,498.065C557.948,482.833 538.1,482.411 518.042,498.065L488.601,475.108C472.698,389.254 489.579,335.402 532.968,307.429ZM510.65,293.31C468.935,332.104 448.877,381.317 457.941,444.541L432.738,418.427C443.18,360.593 469.917,320.411 506.872,291.297L510.65,293.31ZM590.212,291.297L586.62,293.956C634.675,333.754 641.567,387.488 638.655,444.541L664.888,417.76C651.328,363.44 628.051,319.551 590.212,291.297ZM548.986,186.225C541.525,197.195 537.133,214.8 538.03,220.694C539.754,232.032 557.755,232.014 559.633,220.375C560.593,214.424 556.991,197.377 548.986,186.225Z" style="fill:white;"/>
    </g>
</svg>
