<?xml version="1.0" encoding="UTF-8" standalone="no"?>
<!DOCTYPE svg PUBLIC "-//W3C//DTD SVG 1.1//EN" "http://www.w3.org/Graphics/SVG/1.1/DTD/svg11.dtd">
<svg width="100%" height="100%" viewBox="0 0 1000 1000" version="1.1" xmlns="http://www.w3.org/2000/svg" xmlns:xlink="http://www.w3.org/1999/xlink" xml:space="preserve" xmlns:serif="http://www.serif.com/" style="fill-rule:evenodd;clip-rule:evenodd;stroke-linejoin:round;stroke-miterlimit:2;">
    <g transform="matrix(9.14309,0,0,9.14309,-5142.38,-5964.35)">
        <path d="M594.515,716.07L594.606,715.591C594.7,715.097 594.665,714.589 594.504,714.112C594.343,713.635 594.06,713.204 593.683,712.858L579.656,700.017C578.504,698.963 578.084,697.366 578.576,695.912C579.067,694.457 580.383,693.403 581.96,693.201L601.156,690.741C601.674,690.674 602.165,690.485 602.588,690.19C603.01,689.895 603.349,689.504 603.574,689.051L611.94,672.257C612.627,670.878 614.076,670 615.667,670C617.257,670 618.707,670.878 619.394,672.257L627.76,689.051C627.985,689.504 628.324,689.895 628.746,690.19C629.168,690.485 629.66,690.674 630.177,690.741L649.374,693.201C650.951,693.403 652.267,694.457 652.758,695.912C653.25,697.366 652.829,698.963 651.677,700.017L637.651,712.858C637.273,713.204 636.991,713.635 636.83,714.112C636.668,714.589 636.633,715.097 636.728,715.591L637.219,718.166C639.734,724.008 643.556,729.328 649,734C646.509,722.364 655.102,721.212 658,721.221C668.648,721.255 672.089,743.226 650,742C634.891,741.161 625.84,734.669 616,728.913L616,728.913C609.914,732.177 603.796,735.344 597.483,737.939L597.138,738.119C596.808,738.29 596.462,738.415 596.108,738.494C588.913,741.341 581.456,743.407 573.5,744C567.19,744.47 565.787,740.664 571.5,737.5C580.544,732.491 588.114,724.234 594.515,716.07ZM614.213,691.299C614.529,690.801 615.078,690.5 615.667,690.5C616.256,690.5 616.805,690.801 617.12,691.299L621.4,698.04C621.488,698.179 621.602,698.3 621.736,698.397C621.869,698.494 622.02,698.565 622.179,698.606L629.913,700.593C630.483,700.74 630.939,701.168 631.122,701.728C631.304,702.289 631.186,702.904 630.811,703.358L625.723,709.511C625.618,709.638 625.537,709.784 625.486,709.941C625.435,710.097 625.415,710.262 625.425,710.427L625.925,718.396C625.962,718.984 625.695,719.55 625.218,719.897C624.742,720.243 624.121,720.321 623.573,720.105L616.148,717.167C615.995,717.106 615.832,717.075 615.667,717.075C615.502,717.075 615.339,717.106 615.185,717.167L607.761,720.105C607.213,720.321 606.592,720.243 606.115,719.897C605.639,719.55 605.372,718.984 605.409,718.396L605.909,710.427C605.919,710.262 605.898,710.097 605.847,709.941C605.796,709.784 605.716,709.638 605.611,709.511L600.523,703.358C600.147,702.904 600.03,702.289 600.212,701.728C600.394,701.168 600.85,700.74 601.421,700.593L609.154,698.606C609.314,698.565 609.465,698.494 609.598,698.397C609.731,698.3 609.845,698.179 609.934,698.04L614.213,691.299Z" style="fill:white;"/>
    </g>
</svg>
