<?xml version="1.0" encoding="UTF-8" standalone="no"?>
<!DOCTYPE svg PUBLIC "-//W3C//DTD SVG 1.1//EN" "http://www.w3.org/Graphics/SVG/1.1/DTD/svg11.dtd">
<svg width="100%" height="100%" viewBox="0 0 1000 1000" version="1.1" xmlns="http://www.w3.org/2000/svg" xmlns:xlink="http://www.w3.org/1999/xlink" xml:space="preserve" xmlns:serif="http://www.serif.com/" style="fill-rule:evenodd;clip-rule:evenodd;stroke-linejoin:round;stroke-miterlimit:2;">
    <g transform="matrix(0.817562,0,0,0.817562,91.2188,91.2188)">
        <path d="M500,-50.417C196.217,-50.417 -50.417,196.217 -50.417,500C-50.417,803.783 196.217,1050.42 500,1050.42C803.783,1050.42 1050.42,803.783 1050.42,500C1050.42,196.217 803.783,-50.417 500,-50.417ZM500,-29.583C792.285,-29.583 1029.58,207.715 1029.58,500C1029.58,792.285 792.285,1029.58 500,1029.58C207.715,1029.58 -29.583,792.285 -29.583,500C-29.583,207.715 207.715,-29.583 500,-29.583ZM500,-10.417C218.293,-10.417 -10.417,218.293 -10.417,500C-10.417,781.707 218.293,1010.42 500,1010.42C781.707,1010.42 1010.42,781.707 1010.42,500C1010.42,218.293 781.707,-10.417 500,-10.417ZM830.417,861.145C748.036,936.571 639.768,984.222 520.547,989.159L648.561,861.145L830.417,861.145ZM479.453,989.159C360.237,984.224 251.979,936.582 169.583,861.145L351.439,861.145L479.453,989.159ZM619.098,861.145L380.902,861.145L500,980.243L619.098,861.145ZM162.176,840.312L330.606,840.312L162.176,671.882L162.176,840.312ZM162.176,362.556L162.176,642.419L360.069,840.312L639.931,840.312L837.824,642.419L837.824,362.556L639.931,164.663L360.069,164.663L162.176,362.556ZM837.824,671.882L669.394,840.312L837.824,840.312L837.824,671.882ZM989.159,520.547C984.175,641.064 935.533,750.396 858.658,833.113L858.658,651.048L989.159,520.547ZM10.841,520.547L141.342,651.048L141.342,833.113C64.476,750.402 15.832,641.072 10.841,520.547ZM22.244,502.487L141.342,621.586L141.342,383.389L22.244,502.487ZM858.658,383.389L858.658,621.586L977.756,502.487L858.658,383.389ZM858.658,166.887C936.618,250.782 985.544,362.051 989.345,484.614L858.658,353.926L858.658,166.887ZM141.342,166.887L141.342,353.926L10.655,484.614C14.443,362.06 63.371,250.784 141.342,166.887ZM669.394,164.663L837.824,164.663L837.824,164.663L837.824,333.093L669.394,164.663ZM162.176,333.093L330.606,164.663L162.176,164.663L162.176,333.093ZM484.614,10.655L351.439,143.83L164.23,143.83C248.442,64.416 360.762,14.496 484.614,10.655ZM380.902,143.83L500,24.731L500,24.731L619.098,143.83L380.902,143.83ZM515.386,10.655C639.227,14.483 751.554,64.404 835.77,143.83L648.561,143.83L515.386,10.655Z" style="fill:white;"/>
    </g>
</svg>
