<?xml version="1.0" encoding="UTF-8" standalone="no"?>
<!DOCTYPE svg PUBLIC "-//W3C//DTD SVG 1.1//EN" "http://www.w3.org/Graphics/SVG/1.1/DTD/svg11.dtd">
<svg width="100%" height="100%" viewBox="0 0 1000 1000" version="1.1" xmlns="http://www.w3.org/2000/svg" xmlns:xlink="http://www.w3.org/1999/xlink" xml:space="preserve" xmlns:serif="http://www.serif.com/" style="fill-rule:evenodd;clip-rule:evenodd;stroke-linejoin:round;stroke-miterlimit:2;">
    <g transform="matrix(7.28155,0,0,7.28155,-2952.91,-2001.23)">
        <path d="M474.242,290.213C476.788,296.695 479.012,303.668 481,311C488.56,311.167 495.841,312.36 503,314C495.711,317.185 488.386,319.949 481,322C481.673,326 482.078,330 482,334C498.983,337.842 505.853,346.74 512,356C521.026,357.642 529.092,360.554 536,365C529.487,370.443 521.168,374.124 511,376C505.039,390.203 492.854,396.906 475.183,397.002C474.853,397.006 474.526,397.006 474.2,397.001C473.874,397.006 473.547,397.006 473.217,397.002C455.546,396.906 443.361,390.203 437.4,376C427.232,374.124 418.913,370.443 412.4,365C419.308,360.554 427.374,357.642 436.4,356C442.547,346.74 449.417,337.842 466.4,334C466.322,330 466.727,326 467.4,322C460.014,319.949 452.689,317.185 445.4,314C452.559,312.36 459.84,311.167 467.4,311C469.388,303.668 471.612,296.695 474.158,290.213L474.158,290L474.2,290.106L474.242,290L474.242,290.213ZM474.218,397C474.542,397.003 474.865,397.004 475.183,397.002C483.282,396.893 492.531,393.819 504,384C504.704,375.201 496.422,366.988 496.422,366.988C496.422,366.988 497.06,353.971 491,351C485.837,348.469 475.68,348.298 474.242,361.866L474.242,362.798C474.229,362.627 474.215,362.457 474.2,362.289C474.185,362.457 474.171,362.627 474.158,362.798L474.158,361.866C472.72,348.298 462.563,348.469 457.4,351C451.34,353.971 451.978,366.988 451.978,366.988C451.978,366.988 443.696,375.201 444.4,384C455.869,393.819 465.118,396.893 473.217,397.002C473.535,397.004 473.858,397.003 474.182,397L474.158,397L474.242,397L474.218,397ZM474.126,385.477C470.996,384.513 468.352,382.941 467.2,379.5C465.067,379.318 463.535,378.296 462.2,377C463.828,378.033 465.479,378.845 467.2,379C470.017,379.221 472.255,378.18 474.2,376.5L474.246,376.539C476.18,378.196 478.405,379.22 481.2,379C482.921,378.845 484.572,378.033 486.2,377C484.865,378.296 483.333,379.318 481.2,379.5C480.039,382.968 477.362,384.537 474.2,385.5L474.126,385.477ZM474.21,362.879C475.179,364.415 476.265,365.945 478,367.446C478.644,362.571 480.793,357.938 487,359.196C491.323,360.072 493.428,365.542 491,369.497C492.474,369.386 494.948,367.7 496.422,366.988C484.394,376.456 477.735,372.001 474.2,362.905C470.665,372.001 464.006,376.456 451.978,366.988C453.452,367.7 455.926,369.386 457.4,369.497C455.218,366.103 457.077,360.072 461.4,359.196C467.607,357.938 469.756,362.571 470.4,367.446C472.135,365.945 473.221,364.415 474.19,362.879L474.158,362.798L474.2,362.864L474.242,362.798L474.21,362.879Z" style="fill:white;"/>
    </g>
</svg>
