<?xml version="1.0" encoding="UTF-8" standalone="no"?>
<!DOCTYPE svg PUBLIC "-//W3C//DTD SVG 1.1//EN" "http://www.w3.org/Graphics/SVG/1.1/DTD/svg11.dtd">
<svg width="100%" height="100%" viewBox="0 0 1000 1000" version="1.1" xmlns="http://www.w3.org/2000/svg" xmlns:xlink="http://www.w3.org/1999/xlink" xml:space="preserve" xmlns:serif="http://www.serif.com/" style="fill-rule:evenodd;clip-rule:evenodd;stroke-linejoin:round;stroke-miterlimit:2;">
    <g transform="matrix(2.32966,0,0,2.32966,-664.249,-719.394)">
        <path d="M667.572,660C683.695,662.949 692.911,666.363 692.911,670C692.911,681.146 606.358,690.195 499.75,690.195C393.142,690.195 306.589,681.146 306.589,670C306.589,666.363 315.805,662.949 331.928,660L341.42,660C324.51,662.918 314.769,666.341 314.769,670C314.769,680.674 397.656,689.34 499.75,689.34C601.844,689.34 684.731,680.674 684.731,670C684.731,666.341 674.99,662.918 658.08,660L667.572,660ZM591.847,660C616.937,662.527 632.555,666.074 632.555,670C632.555,677.663 573.047,683.885 499.75,683.885C426.453,683.885 366.945,677.663 366.945,670C366.945,666.074 382.563,662.527 407.653,660L419.035,660C391.852,662.401 374.575,665.991 374.575,670C374.575,677.223 430.664,683.087 499.75,683.087C568.836,683.087 624.925,677.223 624.925,670C624.925,665.991 607.648,662.401 580.465,660L591.847,660ZM440.544,664.247C457.573,644.212 469.974,622.988 475.5,600L524,600C529.531,623.011 541.951,644.254 559.009,664.31C572.143,665.81 580.161,667.808 580.161,670C580.161,674.654 544.018,678.433 499.5,678.433C454.982,678.433 418.839,674.654 418.839,670C418.839,667.777 427.083,665.754 440.544,664.247ZM435.5,670L454.089,670C454.089,672.635 474.549,674.774 499.75,674.774C524.951,674.774 545.411,672.635 545.411,670L564,670C562.756,668.623 561.533,667.241 560.333,665.853C567.789,667.046 572.125,668.47 572.125,670C572.125,674.191 539.583,677.593 499.5,677.593C459.417,677.593 426.875,674.191 426.875,670C426.875,668.431 431.437,666.973 439.245,665.762C438.021,667.18 436.772,668.593 435.5,670ZM499.75,666.42C518.651,666.42 533.996,668.024 533.996,670C533.996,671.976 518.651,673.58 499.75,673.58C480.849,673.58 465.504,671.976 465.504,670C465.504,668.024 480.849,666.42 499.75,666.42ZM499.75,668.102C509.77,668.102 517.904,668.952 517.904,670C517.904,671.048 509.77,671.898 499.75,671.898C489.73,671.898 481.596,671.048 481.596,670C481.596,668.952 489.73,668.102 499.75,668.102ZM499.75,669.525C502.255,669.525 504.289,669.738 504.289,670C504.289,670.262 502.255,670.475 499.75,670.475C497.245,670.475 495.211,670.262 495.211,670C495.211,669.738 497.245,669.525 499.75,669.525ZM540.786,663.754C541.4,665.262 541.962,666.782 542.467,668.311C535.938,666.509 519.266,665.226 499.75,665.226C480.234,665.226 463.562,666.509 457.033,668.311C457.542,666.769 458.109,665.236 458.729,663.717C470.357,662.89 484.393,662.407 499.5,662.407C514.832,662.407 529.06,662.905 540.786,663.754ZM540.36,662.729C528.371,661.99 514.405,661.567 499.5,661.567C484.805,661.567 471.022,661.979 459.154,662.698C467.491,643.1 484.549,626.187 499.75,626.002C514.959,626.187 532.028,643.119 540.36,662.729ZM476.5,597L475.5,583.5L524,583.5L523,597L476.5,597ZM481.5,580L485.5,550L514,550L518,580L481.5,580ZM483.5,547L487.5,521L512,521L516,547L483.5,547ZM490.5,518L492.5,505L507,505L509,518L490.5,518ZM491.5,502L491.5,477L508,477L508,502L491.5,502ZM493.5,474L493.5,465.5C493.5,463.78 495.797,462.736 497.5,462.5L497.5,443.5L502,443.5L502,462.5C503.703,462.736 506,463.78 506,465.5L506,474L493.5,474ZM499,441.5L499,402L500.5,402L500.5,441.5L499,441.5ZM499.034,400L499.034,378L499.5,378L499.5,356.647L499.75,367.324L500,356.647L500,378L500.466,378L500.466,400L499.034,400Z" style="fill:white;"/>
    </g>
</svg>
