<?xml version="1.0" encoding="UTF-8" standalone="no"?>
<!DOCTYPE svg PUBLIC "-//W3C//DTD SVG 1.1//EN" "http://www.w3.org/Graphics/SVG/1.1/DTD/svg11.dtd">
<svg width="100%" height="100%" viewBox="0 0 1000 1000" version="1.1" xmlns="http://www.w3.org/2000/svg" xmlns:xlink="http://www.w3.org/1999/xlink" xml:space="preserve" xmlns:serif="http://www.serif.com/" style="fill-rule:evenodd;clip-rule:evenodd;stroke-linejoin:round;stroke-miterlimit:2;">
    <g transform="matrix(9.53891,0,0,9.53891,-3213.02,-4897.35)">
        <path d="M390,561C381.892,560.863 379.21,540.652 379,535C378.793,529.435 372.512,519.19 367,519C377.694,516.707 386.049,525.742 392.5,544C396.33,529.363 402.494,520.238 412,519C407.056,522.269 403.956,528.856 404.5,542C404.183,554.218 399.749,558.825 394,561L394,572C393.842,578.192 397.415,586.861 402,594C399.011,579.437 401.962,573.541 405.5,568.5C401.733,582.294 404.061,597.33 409.5,613C399.994,602.012 394.329,590.028 389.5,578C384.161,564.702 376.19,553.668 355,554C369.736,549.746 380.827,556.086 390,568L390,561ZM405.5,544.5C410.475,533.417 416.475,531.751 423.5,539.5C420.612,532.914 416.411,528.337 406.5,532.5C406.755,536.547 406.317,540.539 405.5,544.5ZM378.5,542.5C377.854,539.343 377.192,536.186 377,533C375.136,529.966 372.934,528.599 370.5,528.579C366.051,528.541 357.462,531.833 355.5,540C362.864,529.609 370.554,531.325 378.5,542.5ZM393,538.5C392.109,538.093 391.416,537.603 391,537L391,525C388.179,522.023 390.032,520.893 392,520.892C394.403,520.891 394.916,523.073 393,525L393,538.5ZM394.169,533C394.386,528.256 395.087,525.865 396,524.5C396.836,524.173 397.11,524.584 397,525.5C396.388,528.324 395.357,530.738 394.169,533ZM387,524.389C387.084,523.828 388.19,524.483 388.5,525.5C389.17,527.698 389.578,530.104 390,532.5C388.372,530.164 386.488,527.812 387,524.389Z" style="fill:white;"/>
    </g>
</svg>
