<?xml version="1.0" encoding="UTF-8" standalone="no"?>
<!DOCTYPE svg PUBLIC "-//W3C//DTD SVG 1.1//EN" "http://www.w3.org/Graphics/SVG/1.1/DTD/svg11.dtd">
<svg width="100%" height="100%" viewBox="0 0 1000 1000" version="1.1" xmlns="http://www.w3.org/2000/svg" xmlns:xlink="http://www.w3.org/1999/xlink" xml:space="preserve" xmlns:serif="http://www.serif.com/" style="fill-rule:evenodd;clip-rule:evenodd;stroke-linejoin:round;stroke-miterlimit:2;">
    <g transform="matrix(1.87535,0,0,1.87535,-439.421,-465.898)">
        <path d="M501.861,324.069C515.704,323.655 526.957,302.827 537.461,276.089C551.592,273.721 562.797,275.442 570,282.758C554.482,303.83 539.417,318.026 524.489,330.135L575.565,323.187C576.35,323.08 577.127,323.427 577.571,324.082C578.015,324.738 578.049,325.588 577.659,326.277C577.659,326.277 566.363,346.237 566.363,346.237L576.716,352.805C598.951,337.044 626.679,324.274 670,320C685.068,320.11 693.914,322.056 698,331.207C715.599,394.453 726.405,440.24 720,440C689.737,473.202 652.966,476.212 613,464.394C625.289,479.086 646.068,489.871 690,490C701.994,493.687 709.333,500.745 706,515.533C674.461,577.579 640.146,608.789 598,553C585.687,532.151 575.73,511.519 567,491L567.71,484.132C557.539,527.982 565.782,556.948 588.446,574.548C593.488,578.464 600.885,579.143 608.109,580.679C615.201,582.186 622.123,584.424 627.107,590.163C654.448,592.395 680.403,599.036 705,610C700.526,616.172 694.318,621.796 685,626.436C661.636,638.795 658.11,656.514 657.418,675C653.622,713.384 631.793,718.737 605,715C589.218,712.623 574.23,717.737 560,730C546.372,736.571 543.244,743.461 534,747.72C524.044,752.308 513.376,754.864 501.861,754.999L501.861,755C501.631,755.002 501.402,755.004 501.173,755.004L501.144,755.004L500.931,755.004L500.717,755.004L500.688,755.004C500.46,755.004 500.23,755.002 500,755L500,754.999C488.485,754.864 477.817,752.308 467.861,747.72C458.617,743.461 455.489,736.571 441.861,730C427.631,717.737 412.644,712.623 396.861,715C370.068,718.737 348.239,713.384 344.444,675C343.751,656.514 340.225,638.795 316.861,626.436C307.543,621.796 301.335,616.172 296.861,610C321.458,599.036 347.413,592.395 374.754,590.163C379.738,584.424 386.661,582.186 393.752,580.679C400.976,579.143 408.373,578.464 413.415,574.548C436.08,556.948 444.322,527.982 434.151,484.132L434.861,491C426.131,511.519 416.174,532.151 403.861,553C361.715,608.789 327.4,577.579 295.861,515.533C292.528,500.745 299.867,493.687 311.861,490C355.793,489.871 376.572,479.086 388.861,464.394C348.895,476.212 312.124,473.202 281.861,440C275.456,440.24 286.262,394.453 303.861,331.207C307.947,322.056 316.793,320.11 331.861,320C375.182,324.274 402.91,337.044 425.145,352.805L435.498,346.237C435.498,346.237 424.202,326.277 424.202,326.277C423.812,325.588 423.846,324.738 424.29,324.082C424.734,323.427 425.512,323.08 426.296,323.187L477.372,330.135C462.444,318.026 447.379,303.83 431.861,282.758C439.064,275.442 450.269,273.721 464.4,276.089C474.904,302.827 486.157,323.655 500,324.069L500,324.001C500.312,324.033 500.622,324.054 500.931,324.065C501.239,324.054 501.549,324.033 501.861,324.001L501.861,324.069ZM500.931,689.612C509.908,685.712 514.106,679.244 515,671C525.479,690.751 534.118,689.768 541,669C560.031,679.928 570.102,674.391 571,652C590.608,656.147 599.289,650.923 592,632C611.72,632.212 616.729,623.298 605,604C614.65,603.6 621.084,600.015 624.022,592.965C619.659,587.885 613.478,586.08 607.242,584.754C599.371,583.081 591.385,582.106 585.89,577.839C585.382,577.444 584.88,577.044 584.385,576.638C576.311,597.884 567.238,611.743 557,616.985C547.402,621.899 536.781,618.241 525,607C527.411,614.236 530.243,622.516 535,630C531.081,633.467 526.016,635.024 520,635L511,594C509.554,588.487 506.814,584.95 501.861,584.79L501.861,584.878C501.544,584.84 501.234,584.813 500.931,584.799C500.628,584.813 500.318,584.84 500,584.878L500,584.79C495.048,584.95 492.307,588.487 490.861,594L481.861,635C475.846,635.024 470.78,633.467 466.861,630C471.618,622.516 474.45,614.236 476.861,607C465.08,618.241 454.459,621.899 444.861,616.985C434.623,611.743 425.55,597.884 417.476,576.638C416.981,577.044 416.479,577.444 415.971,577.839C410.476,582.106 402.491,583.081 394.619,584.754C388.383,586.08 382.202,587.885 377.839,592.965C380.778,600.015 387.211,603.6 396.861,604C385.133,623.298 390.142,632.212 409.861,632C402.572,650.923 411.253,656.147 430.861,652C431.759,674.391 441.83,679.928 460.861,669C467.744,689.768 476.382,690.751 486.861,671C487.755,679.244 491.953,685.712 500.931,689.612ZM435.481,472.601C453.109,471.568 472.469,483.416 488.714,503.499C484.614,508.72 479.429,514.214 473.093,520C467.073,525.497 457.398,529.55 451.861,537.293C454.103,547.375 461.356,556.925 479.861,565.281L485.66,558C485.934,564.852 485.372,572.165 483.861,580C460.993,619.316 441.154,619.398 425.194,569.248C443.354,548.855 448.199,517.686 435.481,472.601ZM566.381,472.601C548.752,471.568 529.393,483.416 513.148,503.499C517.248,508.72 522.433,514.214 528.768,520C534.788,525.497 544.464,529.55 550,537.293C547.758,547.375 540.505,556.925 522,565.281L516.201,558C515.927,564.852 516.489,572.165 518,580C540.868,619.316 560.707,619.398 576.667,569.248C558.507,548.855 553.662,517.686 566.381,472.601ZM500.931,551.898C499.636,557.517 498.626,562.865 497.861,569C498.884,569.402 499.907,569.699 500.931,569.874C501.954,569.699 502.977,569.402 504,569C503.235,562.865 502.225,557.517 500.931,551.898ZM507.152,520C510.167,531 514.139,542 520,553C527.986,549.598 534.474,544.99 538,538C533.033,529.804 523.545,522.766 513,516C509.509,516.154 508.176,517.959 507.152,520ZM494.709,520C491.694,531 487.722,542 481.861,553C473.875,549.598 467.388,544.99 463.861,538C468.828,529.804 478.316,522.766 488.861,516C492.353,516.154 493.685,517.959 494.709,520ZM500.931,499.963C523.228,475.251 545.5,461.306 567.733,461.89C566.804,441.897 562.85,423.673 556.696,406.737C550.641,404.528 545.685,404.323 541.623,405.93C537.472,407.572 534.325,411.081 531.858,415.943C531.529,416.591 530.886,417.021 530.161,417.077C529.436,417.133 528.734,416.807 528.309,416.217C523.231,409.162 518.599,405.297 514.062,405.248C510.211,405.206 506.742,408.011 503.353,413.397C503.465,413.595 503.577,413.796 503.688,413.999C504.241,415.008 503.87,416.275 502.862,416.827C502.24,417.168 501.521,417.158 500.931,416.863C500.341,417.158 499.621,417.168 498.999,416.827C497.991,416.275 497.62,415.008 498.173,413.999C498.284,413.796 498.396,413.595 498.509,413.397C495.119,408.011 491.65,405.206 487.799,405.248C483.262,405.297 478.631,409.162 473.552,416.217C473.127,416.807 472.425,417.133 471.7,417.077C470.976,417.021 470.332,416.591 470.003,415.943C467.536,411.081 464.389,407.572 460.238,405.93C456.176,404.323 451.221,404.528 445.165,406.737C439.011,423.673 435.057,441.897 434.128,461.89C456.361,461.306 478.633,475.251 500.931,499.963ZM428.774,355.438L439.403,348.694C440.34,348.099 440.646,346.875 440.1,345.909C440.1,345.909 429.898,327.882 429.898,327.882C429.898,327.882 480.501,334.766 480.501,334.766L480.72,335.196C467.432,352.138 452.907,362.755 437.722,370L449.921,384.942C437.958,409.442 430.298,436.457 429.778,467.647C429.777,467.736 429.781,467.826 429.791,467.915L424.861,482L392.861,452L418.861,428L398.861,378L429.034,355.631L428.774,355.438ZM573.087,355.438L562.458,348.694C561.521,348.099 561.215,346.875 561.761,345.909C561.761,345.909 571.963,327.882 571.963,327.882C571.963,327.882 521.361,334.766 521.361,334.766L521.141,335.196C534.429,352.138 548.954,362.755 564.139,370L551.94,384.942C563.904,409.442 571.564,436.457 572.083,467.647C572.085,467.736 572.08,467.826 572.07,467.915L577,482L609,452L583,428L603,378L572.827,355.631L573.087,355.438ZM491.861,340C484.777,352.74 474.59,366.707 455.23,384.303L453.682,386.736C451.286,391.641 449.066,396.649 447.047,401.77C452.814,400.216 457.677,400.436 461.77,402.055C465.945,403.707 469.367,406.833 472.118,411.218C477.563,404.44 482.863,401.134 487.754,401.081C492.305,401.032 496.783,403.725 500.931,409.559C505.078,403.725 509.556,401.032 514.107,401.081C518.998,401.134 524.298,404.44 529.743,411.218C532.494,406.833 535.916,403.707 540.091,402.055C544.184,400.436 549.047,400.216 554.815,401.77C552.796,396.649 550.575,391.641 548.179,386.736L546.631,384.303C527.271,366.707 517.084,352.74 510,340L491.861,340Z" style="fill:white;"/>
    </g>
</svg>
