<?xml version="1.0" encoding="UTF-8" standalone="no"?>
<!DOCTYPE svg PUBLIC "-//W3C//DTD SVG 1.1//EN" "http://www.w3.org/Graphics/SVG/1.1/DTD/svg11.dtd">
<svg width="100%" height="100%" viewBox="0 0 1000 1000" version="1.1" xmlns="http://www.w3.org/2000/svg" xmlns:xlink="http://www.w3.org/1999/xlink" xml:space="preserve" xmlns:serif="http://www.serif.com/" style="fill-rule:evenodd;clip-rule:evenodd;stroke-linejoin:round;stroke-miterlimit:2;">
    <g transform="matrix(3.01676,0,0,3.01676,-1355.31,-964.509)">
        <path d="M561.006,574.204L549.783,589.83C547.082,589.018 544.182,588.556 540.763,587.919C538.502,587.498 536.325,588.992 535.904,591.253C535.483,593.514 536.977,595.691 539.237,596.112C541.731,596.576 543.888,596.887 545.9,597.405C546.079,598.406 546.623,599.344 547.5,600.002C548.893,601.047 550.731,601.086 552.139,600.245C553.633,601.315 555.165,602.744 556.824,604.698C558.313,606.45 560.945,606.664 562.698,605.176C564.45,603.687 564.664,601.055 563.176,599.302C561.093,596.851 559.18,595.018 557.321,593.617L567.998,578.752C613.735,606.383 669.922,600.146 710.403,567.474L722.206,587.391C719.482,590.436 717.358,594.901 715.939,601.066C715.424,603.307 716.825,605.545 719.066,606.061C721.307,606.576 723.545,605.175 724.061,602.934C725.068,598.555 726.327,595.293 728.188,593.162C728.89,593.132 729.594,592.923 730.229,592.52C730.938,592.071 731.465,591.444 731.789,590.733C734.031,590.016 736.75,590.239 739.997,591.044C742.23,591.598 744.491,590.235 745.044,588.003C745.598,585.77 744.235,583.509 742.003,582.956C736.974,581.709 732.741,581.693 729.184,582.828L716.791,561.916C741.823,538.2 760.447,495.441 764.162,420.205C764.239,418.634 763.425,417.152 762.056,416.376C760.687,415.599 758.997,415.66 757.688,416.534C750.793,421.132 741.006,424.296 727.266,426.218C706.148,429.172 676.059,429.09 633.304,426.06C623.812,390.749 597.525,372.735 575.48,366.915C565.406,364.256 556.173,364.163 549.643,365.987C538.171,369.192 526.328,374.455 517.761,385.647C509.803,396.045 504.571,411.705 505.609,436.108C497.589,437.116 490.785,440.832 484.696,446.147C478.068,451.932 472.296,459.666 466.617,467.568C465.498,469.124 465.585,471.241 466.827,472.7C468.068,474.159 470.145,474.584 471.859,473.729C486.406,466.475 494.598,476.299 503.864,492.107C514.959,511.035 522.592,540.388 547.175,563.063C551.631,567.173 556.252,570.884 561.006,574.204ZM755.412,427.289C750.823,498.459 732.369,538.062 707.312,559.22C663.498,596.217 598.728,599.277 552.825,556.937C528.961,534.926 521.824,506.267 511.054,487.893C502.779,473.777 494.405,464.48 484.017,463.073C482.871,462.918 481.697,462.852 480.491,462.884C483.548,459.021 486.729,455.433 490.176,452.425C495.813,447.505 502.167,444.179 510.006,444.167C511.16,444.165 512.261,443.685 513.048,442.841C513.835,441.997 514.236,440.864 514.157,439.713C512.502,415.714 516.856,400.54 524.379,390.712C531.738,381.097 542.029,376.766 551.885,374.013C557.312,372.497 564.98,372.762 573.352,374.972C593.734,380.353 618.047,397.416 625.944,430.955C626.362,432.727 627.881,434.023 629.696,434.156C674.855,437.455 706.42,437.549 728.421,434.471C739.643,432.901 748.469,430.484 755.412,427.289L755.412,427.289ZM565.648,422.156C558.339,411.786 551.326,410.148 543.727,410.01C536.138,409.872 528.811,414.16 520.908,425.067C519.752,426.663 520.639,429.163 522.767,430.705C526.492,433.403 528.706,432.57 531.405,428.846C533.461,426.008 534.399,423.793 536.346,422.324C537.718,421.288 542.033,420.649 543.425,420.674C544.824,420.699 549.119,421.381 550.445,422.43C552.311,423.906 553.131,426.07 555.025,428.757C557.675,432.517 559.878,433.418 563.638,430.768C567.397,428.119 565.648,422.156 565.648,422.156Z" style="fill:white;"/>
    </g>
</svg>
