<?xml version="1.0" encoding="UTF-8" standalone="no"?>
<!DOCTYPE svg PUBLIC "-//W3C//DTD SVG 1.1//EN" "http://www.w3.org/Graphics/SVG/1.1/DTD/svg11.dtd">
<svg width="100%" height="100%" viewBox="0 0 1000 1000" version="1.1" xmlns="http://www.w3.org/2000/svg" xmlns:xlink="http://www.w3.org/1999/xlink" xml:space="preserve" xmlns:serif="http://www.serif.com/" style="fill-rule:evenodd;clip-rule:evenodd;stroke-linejoin:round;stroke-miterlimit:2;">
    <g transform="matrix(15.2542,0,0,15.2542,-6841.14,-7134.75)">
        <path d="M460.995,489.499C458.327,488.991 457.198,487.617 456.5,486C455.709,486.222 453.695,485.968 453.5,485.5C453.202,484.785 454.848,483.371 456,483C456.518,480.356 458.304,478.423 461,477C460.872,474.635 462.557,472.723 465,471C464.887,473.355 464.666,475.45 465,477C487.964,470.468 512.21,477.293 510.461,494C508.32,514.459 485.777,527.326 452,530C451.29,529.922 459.2,523.428 461,518C462.991,511.997 460.403,489.444 460.995,489.499L461,489.5C460.998,489.499 460.996,489.499 460.995,489.499ZM470,518L472,487C487.275,483.562 495.875,486.626 495.508,494C494.925,505.727 485.606,514.768 470,518ZM463,481C463.552,481 464,481.448 464,482C464,482.552 463.552,483 463,483C462.448,483 462,482.552 462,482C462,481.448 462.448,481 463,481Z" style="fill:white;"/>
    </g>
</svg>
