<?xml version="1.0" encoding="UTF-8" standalone="no"?>
<!DOCTYPE svg PUBLIC "-//W3C//DTD SVG 1.1//EN" "http://www.w3.org/Graphics/SVG/1.1/DTD/svg11.dtd">
<svg width="100%" height="100%" viewBox="0 0 1000 1000" version="1.1" xmlns="http://www.w3.org/2000/svg" xmlns:xlink="http://www.w3.org/1999/xlink" xml:space="preserve" xmlns:serif="http://www.serif.com/" style="fill-rule:evenodd;clip-rule:evenodd;stroke-linejoin:round;stroke-miterlimit:2;">
    <path d="M749.727,874.348C544.246,1011.46 265.892,957.052 127.274,752.141C-11.344,547.23 41.727,268.617 245.455,128.911L247.859,127.273C453.572,-11.887 733.566,42.145 872.726,247.859C1011.89,453.572 957.854,733.566 752.141,872.726L749.727,874.348ZM610.795,99.602L598.786,109.138C598.438,109.499 598.062,109.842 597.659,110.163L308.389,339.877L357.384,401.522C361.302,406.451 360.48,413.633 355.551,417.551L337.689,431.747C337.604,431.815 337.517,431.882 337.429,431.948C337.331,432.032 337.231,432.114 337.13,432.194L304.709,457.94L382.184,555.417C463.368,520.915 560.322,547.485 611.585,623.265C669.793,709.311 647.192,826.426 561.147,884.634C536.676,901.188 509.691,911.206 482.266,915.087C568.233,918.851 656.118,896.051 732.82,844.164C922.769,715.667 972.661,457.13 844.165,267.18C786.552,182.014 702.798,125.004 610.795,99.602ZM158.38,736.538L298.312,625.415C257.936,687.016 255.954,769.412 299.779,834.196C316.281,858.589 337.517,877.884 361.426,891.676C281.771,863.584 209.971,811.078 158.38,736.538ZM541.826,856.072C471.544,903.616 375.885,885.156 328.341,814.874C280.797,744.592 299.257,648.933 369.538,601.389C439.82,553.845 535.479,572.305 583.023,642.587C630.567,712.869 612.107,808.528 541.826,856.072ZM134.322,697.372L319.709,550.152L268.974,486.318L112.345,610.7C108.624,613.655 103.621,613.911 99.706,611.738C107.878,641.034 119.381,669.758 134.322,697.372ZM552.213,87.852C455.549,75.555 354.172,96.987 267.18,155.835L264.961,157.347C127.241,251.788 64.081,414.974 90.351,569.895L300.364,403.12L251.265,341.344C247.347,336.415 248.168,329.232 253.097,325.315L270.959,311.118C271.48,310.705 272.025,310.344 272.59,310.035L536.979,100.078L536.94,99.981L552.213,87.852Z" style="fill:white;"/>
</svg>
