<?xml version="1.0" encoding="UTF-8" standalone="no"?>
<!DOCTYPE svg PUBLIC "-//W3C//DTD SVG 1.1//EN" "http://www.w3.org/Graphics/SVG/1.1/DTD/svg11.dtd">
<svg width="100%" height="100%" viewBox="0 0 1000 1000" version="1.1" xmlns="http://www.w3.org/2000/svg" xmlns:xlink="http://www.w3.org/1999/xlink" xml:space="preserve" xmlns:serif="http://www.serif.com/" style="fill-rule:evenodd;clip-rule:evenodd;stroke-linejoin:round;stroke-miterlimit:2;">
    <g transform="matrix(1.07982,0,0,1.07982,-39.9104,-39.9104)">
        <path d="M652.297,714.379C690.594,731.225 726.819,727.443 755.678,697.026C784.191,666.972 786.948,637.865 774.735,599.083C791.015,602.411 806.769,606.898 819.867,617.237C855.645,659.212 864.897,704.295 836.462,747.1C805.186,794.182 763.501,810.058 716.252,800.519C710.491,849.284 679.152,888.056 632.458,899.125C580,911.56 537.876,896.615 511.213,847.783C505.881,833.615 504.195,817.528 505.246,799.998C543.375,823.055 579.892,823.75 610.673,805.694C641.683,787.504 655.037,757.803 652.297,714.379ZM346.697,712.866C308.4,729.712 272.175,725.93 243.316,695.513C214.803,665.46 212.046,636.352 224.259,597.57C207.979,600.898 192.225,605.385 179.127,615.724C143.349,657.699 134.097,702.782 162.532,745.587C193.808,792.669 235.493,808.545 282.742,799.006C288.504,847.771 319.843,886.543 366.536,897.612C418.995,910.047 461.118,895.102 487.781,846.27C493.113,832.102 494.799,816.015 493.748,798.485C455.619,821.542 419.103,822.237 388.322,804.181C357.311,785.991 343.957,756.29 346.697,712.866ZM499.14,665.069C467.06,699.37 435.006,696.261 402.975,660.125C388.629,677.348 375.395,694.864 367.87,710.758C361.982,723.194 359.588,734.637 362.891,744.17C373.433,774.598 399.668,802.867 435.161,802.72C458.698,802.624 478.265,797.208 500.811,773.157C530.089,806.651 572.515,815.828 608.876,788.839C631.654,771.93 645.159,741.262 637.973,724.505C626.832,698.527 611.058,676.56 595.694,656.878C566.569,696.42 534.384,699.15 499.14,665.069ZM347.323,553.062C304.974,532.756 298.319,501.247 323.174,459.847C302.44,451.332 281.759,443.966 264.339,441.558C250.709,439.674 239.075,440.826 230.973,446.838C205.113,466.027 186.022,499.537 196.815,533.35C203.972,555.773 215.012,572.811 244.721,587.099C221.56,625.081 225.54,668.305 262.199,694.888C285.165,711.541 318.472,715.217 332.3,703.333C353.736,684.909 369.955,663.268 384.118,642.705C337.657,626.791 325.393,596.91 347.323,553.062ZM652.861,553.062C695.21,532.756 701.865,501.247 677.01,459.847C697.745,451.332 718.425,443.966 735.845,441.558C749.475,439.674 761.109,440.826 769.211,446.838C795.071,466.027 814.162,499.537 803.369,533.35C796.212,555.773 785.173,572.811 755.464,587.099C778.625,625.081 774.645,668.305 737.986,694.888C715.02,711.541 681.712,715.217 667.885,703.333C646.448,684.909 630.229,663.268 616.067,642.705C662.527,626.791 674.792,596.91 652.861,553.062ZM521.017,549.804C531.119,566.774 537.747,572.237 545.78,566.52C553.671,560.904 548.946,552.551 536.821,538.085L544.407,526.912L634.401,556.826C637.664,560.278 640.582,564.261 643.236,568.652C649.253,587.909 645.086,601.366 635.955,612.04C625.643,624.094 610.154,629.861 588.099,624.858C585.506,645.696 576.533,659.35 560.738,666.496C548.171,672.182 534.032,671.137 520.472,662.199C514.166,657.985 510.358,652.5 508.478,646.035L507.671,553.979L521.017,549.804ZM477.109,549.804C467.007,566.774 460.379,572.237 452.346,566.52C444.455,560.904 449.18,552.551 461.305,538.085L453.719,526.912L363.725,556.826C360.462,560.278 357.544,564.261 354.89,568.652C348.873,587.909 353.04,601.366 362.171,612.04C372.482,624.094 387.971,629.861 410.027,624.858C412.62,645.696 421.593,659.35 437.388,666.496C449.955,672.182 464.094,671.137 477.654,662.199C483.96,657.985 487.768,652.5 489.648,646.035L490.455,553.979L477.109,549.804ZM251.642,421.401C223.07,390.838 214.649,355.403 233.8,318.103C252.722,281.25 279.277,269.014 319.915,267.704C311.387,253.443 301.939,240.062 287.847,231.124C236.397,211.255 190.792,217.445 159.81,258.446C125.734,303.542 124.549,348.132 149.189,389.561C105.079,411.137 78.865,453.542 83.874,501.268C89.502,554.886 117.546,589.688 172.451,598.687C187.585,599.029 203.324,595.296 219.518,588.502C185.141,560.153 172.399,525.925 179.249,490.902C186.151,455.619 209.758,433.187 251.642,421.401ZM748.358,421.401C776.93,390.838 785.351,355.403 766.2,318.103C747.278,281.25 720.723,269.014 680.085,267.704C688.613,253.443 698.061,240.062 712.153,231.124C763.603,211.255 809.208,217.445 840.19,258.446C874.266,303.542 875.451,348.132 850.811,389.561C894.921,411.137 921.135,453.542 916.126,501.268C910.498,554.886 882.454,589.688 827.549,598.687C812.415,599.029 796.676,595.296 780.482,588.502C814.859,560.153 827.601,525.925 820.751,490.902C813.849,455.619 790.242,433.187 748.358,421.401ZM499.19,465.807C520.04,465.807 536.967,482.716 536.967,503.544C536.967,524.372 520.04,541.282 499.19,541.282C478.34,541.282 461.412,524.372 461.412,503.544C461.412,482.716 478.34,465.807 499.19,465.807ZM550.002,496.976C569.26,492.595 576.499,487.972 573.536,478.568C570.625,469.331 561.223,471.253 543.724,478.329L535.432,467.669L591.623,391.274C595.913,389.233 600.601,387.684 605.596,386.513C625.77,386.723 637.289,394.834 644.63,406.81C652.919,420.334 653.632,436.847 642.076,456.287C661.101,465.175 671.325,477.919 673.256,495.148C674.793,508.856 669.442,521.984 656.759,532.13C650.807,536.831 644.416,538.763 637.686,538.559L549.861,510.959L550.002,496.976ZM448.355,496.976C429.097,492.595 421.858,487.972 424.822,478.568C427.732,469.331 437.135,471.253 454.633,478.329L462.925,467.669L406.734,391.274C402.444,389.233 397.756,387.684 392.761,386.513C372.587,386.723 361.068,394.834 353.728,406.81C345.438,420.334 344.725,436.847 356.281,456.287C337.256,465.175 327.032,477.919 325.101,495.148C323.564,508.856 328.915,521.984 341.598,532.13C347.55,536.831 353.941,538.763 360.671,538.559L448.496,510.959L448.355,496.976ZM509.42,452.469C511.207,432.8 509.049,424.486 499.19,424.397C489.505,424.31 488.426,433.846 489.745,452.675L477.044,457.265L421.764,380.208C421.15,375.497 421.125,370.56 421.556,365.447C427.993,346.326 439.267,337.88 452.926,334.602C468.351,330.899 484.275,335.326 499.19,352.326C513.525,336.982 528.805,331.198 545.787,334.688C559.298,337.465 570.129,346.612 575.857,361.81C578.487,368.924 578.349,375.599 576.074,381.937L522.674,456.926L509.42,452.469ZM405.954,373.805C359.801,365.113 335.79,386.575 331.326,434.656C309.573,429.25 288.543,422.95 273.076,414.582C260.974,408.035 252.277,400.222 249.304,390.581C239.813,359.81 244.255,321.499 272.964,300.629C292.003,286.79 310.984,279.587 343.388,285.651C347.194,241.328 375.981,208.839 421.263,209.105C449.631,209.271 478.656,226.017 482.77,243.78C489.147,271.318 489.415,298.36 488.663,323.317C441.794,308.651 414.224,325.481 405.954,373.805ZM594.213,373.805C640.366,365.113 664.377,386.575 668.841,434.656C690.594,429.25 711.624,422.95 727.091,414.582C739.193,408.035 747.89,400.222 750.863,390.581C760.354,359.81 755.912,321.499 727.203,300.629C708.165,286.79 689.183,279.587 656.779,285.651C652.973,241.328 624.186,208.839 578.904,209.105C550.536,209.271 521.511,226.017 517.397,243.78C511.02,271.318 510.752,298.36 511.504,323.317C558.373,308.651 585.943,325.481 594.213,373.805ZM499.19,242.033C478.483,205.678 447.143,187.12 405.841,194.339C365.032,201.471 345.467,223.198 332.155,261.616C321.067,249.24 311.093,236.246 306.74,220.137C303.036,165.108 322.482,123.395 370.829,105.977C424.007,86.819 466.94,98.921 499.19,134.746C532.885,99.027 581.159,86.579 625.248,105.526C674.78,126.813 699.692,163.923 691.99,219.025C687.825,233.578 679.589,247.5 668.295,260.948C651.426,219.706 622.521,197.38 587.044,193.528C551.302,189.648 522.875,205.534 499.19,242.033Z" style="fill:white;"/>
    </g>
</svg>
