<?xml version="1.0" encoding="UTF-8" standalone="no"?>
<!DOCTYPE svg PUBLIC "-//W3C//DTD SVG 1.1//EN" "http://www.w3.org/Graphics/SVG/1.1/DTD/svg11.dtd">
<svg width="100%" height="100%" viewBox="0 0 1000 1000" version="1.1" xmlns="http://www.w3.org/2000/svg" xmlns:xlink="http://www.w3.org/1999/xlink" xml:space="preserve" xmlns:serif="http://www.serif.com/" style="fill-rule:evenodd;clip-rule:evenodd;stroke-linejoin:round;stroke-miterlimit:2;">
    <g transform="matrix(1.2,0,0,1.2,-118,-10)">
        <path d="M515,50C721.968,50 890,218.032 890,425C890,631.968 721.968,800 515,800C308.032,800 140,631.968 140,425C140,218.032 308.032,50 515,50ZM515,70C710.93,70 870,229.07 870,425C870,620.93 710.93,780 515,780C319.07,780 160,620.93 160,425C160,229.07 319.07,70 515,70ZM741.921,674.741C681.981,729.25 602.343,762.5 515,762.5C414.115,762.5 323.51,718.14 261.639,647.875L268.056,646.909C301.947,650.961 334.572,647.593 366.817,642C355.087,684.264 374.112,706.415 406.952,714.579C512.466,740.807 613.304,689.819 610,644.831C606.761,600.73 582.504,568.5 420,609.543C307.208,638.031 215.308,637.411 218.906,560C221.55,503.115 289.879,455.261 360,423.098C449.546,382.025 572.121,373.053 710,435C739.388,433.884 744.221,378.146 744.035,340C743.717,274.528 710.795,178.673 600,126.587C626.52,208.65 624.515,293.168 595.62,380C571.554,372.786 546.323,366.38 515,366.904C487.022,367.371 463.309,373.742 439,380C412.865,295.922 409.582,212.495 439,130C311.929,193.123 273.219,293.403 308.977,425C266.24,445.173 230.499,475.709 197,509.566L189.436,514.209C181.657,485.804 177.5,455.884 177.5,425C177.5,258.045 298.99,119.242 458.306,92.25C439.699,235.382 472.95,304.915 515,333.704C557.05,304.915 590.301,235.382 571.694,92.25C731.01,119.242 852.5,258.045 852.5,425C852.5,482.67 838.004,536.98 812.463,584.481C601.255,320.743 363.999,456.207 348.72,501.717C330.468,556.082 360.147,597.243 480,571.25C581.63,549.209 666.141,499.378 735.883,555.986C760.677,576.112 777.066,620.172 741.921,674.741Z" style="fill:white;"/>
    </g>
</svg>
