<?xml version="1.0" encoding="UTF-8" standalone="no"?>
<!DOCTYPE svg PUBLIC "-//W3C//DTD SVG 1.1//EN" "http://www.w3.org/Graphics/SVG/1.1/DTD/svg11.dtd">
<svg width="100%" height="100%" viewBox="0 0 1000 1000" version="1.1" xmlns="http://www.w3.org/2000/svg" xmlns:xlink="http://www.w3.org/1999/xlink" xml:space="preserve" xmlns:serif="http://www.serif.com/" style="fill-rule:evenodd;clip-rule:evenodd;stroke-linejoin:round;stroke-miterlimit:2;">
    <g transform="matrix(2.29827,0,0,2.29827,-649.586,-689.15)">
        <path d="M500.394,418.005C505.589,418.126 508.31,420.682 508.31,426L508.31,488.066C508.31,491.632 507.784,494.268 506.941,496.195C509.297,496.335 511.632,496.551 513.94,496.839C514.059,494.812 513.757,492.527 512.96,490L512.96,475C524.396,479.6 529.007,489.447 529.105,499.843C575.135,512.447 609,554.603 609,604.606C609,664.547 560.335,713.212 500.394,713.212L500,713.212C440.059,713.212 391.394,664.547 391.394,604.606C391.394,554.603 425.259,512.447 471.289,499.843C471.388,489.447 475.998,479.6 487.434,475L487.434,490C486.637,492.527 486.335,494.812 486.455,496.839C488.767,496.55 491.1,496.335 493.453,496.195C492.611,494.268 492.084,491.632 492.084,488.066L492.084,426C492.084,420.682 494.806,418.126 500,418.005L500,418L500.394,418L500.394,418.005ZM501.519,586.874L541.01,544.382C540.363,543.058 540,541.571 540,540C540,534.481 544.481,530 550,530C555.519,530 560,534.481 560,540C560,545.519 555.519,550 550,550C548.512,550 547.1,549.674 545.83,549.091L505.283,592.638L505.449,593.021L542.868,635.439C544.833,633.643 547.21,631.829 550,630C552.653,638.384 553.329,645.176 552.46,650.722C553.016,650.159 553.53,649.585 554,649C556.375,642.845 558.877,640.252 561.42,638.786C557.384,630.089 556.13,621.458 562,613C565.57,603.425 572.999,609.742 567,615C560.474,622.453 560.134,627.944 565.5,634.5C567.208,631.931 570.075,628.996 573.331,626.322L573,625C573.628,620.964 574.623,616.928 575.973,612.892C572.83,609.691 572.254,605.725 573.779,601.547C575.814,595.972 581.589,590.02 590,585C594.751,604.365 592.179,616.385 580.24,615.836C579.231,618.329 578.427,620.911 577.77,623.557C580.325,622.392 583.08,621.559 586,621C590.233,615.185 593.423,618.312 593,622C592.689,624.715 588.411,627.554 586,624C569.302,631.719 565.248,639.818 561.453,647.923C567.055,647.774 572.533,649.312 578,651C570.485,654.67 567.282,659.794 562,661.572C555.95,663.608 549.964,663.442 544.033,661.379C540.252,663.495 536.828,665.139 533.63,666.485C542.429,667.714 547.281,670.334 552,673C535.659,685.196 521.249,686.198 508.892,675.288C508.018,675.642 507.149,676.006 506.29,676.379C512.629,680.1 518.878,684.309 525.038,689L521.038,692C515.635,686.694 508.932,682.249 501.519,678.588C494.105,682.249 487.403,686.694 482,692L478,689C484.16,684.309 490.409,680.1 496.748,676.379C495.888,676.006 495.02,675.642 494.145,675.288C481.789,686.198 467.378,685.196 451.038,673C455.757,670.334 460.609,667.714 469.408,666.485C466.21,665.139 462.785,663.495 459.004,661.379C453.074,663.442 447.088,663.608 441.038,661.572C435.755,659.794 432.553,654.67 425.038,651C430.504,649.312 435.982,647.774 441.584,647.923C437.79,639.818 433.735,631.719 417.038,624C414.626,627.554 410.349,624.715 410.038,622C409.615,618.312 412.804,615.185 417.038,621C419.958,621.559 422.713,622.392 425.268,623.557C424.611,620.911 423.806,618.329 422.798,615.836C410.859,616.385 408.286,604.365 413.038,585C421.448,590.02 427.224,595.972 429.259,601.547C430.784,605.725 430.208,609.691 427.065,612.892C428.415,616.928 429.41,620.964 430.038,625L429.707,626.322C432.963,628.996 435.83,631.931 437.538,634.5C442.903,627.944 442.563,622.453 436.038,615C430.038,609.742 437.468,603.425 441.038,613C446.908,621.458 445.653,630.089 441.618,638.786C444.16,640.252 446.663,642.845 449.038,649C449.507,649.585 450.022,650.159 450.578,650.722C449.709,645.176 450.385,638.384 453.038,630C455.828,631.829 458.204,633.643 460.17,635.439L497.588,593.021L497.754,592.638L457.207,549.091C455.938,549.674 454.526,550 453.038,550C447.518,550 443.038,545.519 443.038,540C443.038,534.481 447.518,530 453.038,530C458.557,530 463.038,534.481 463.038,540C463.038,541.571 462.674,543.058 462.027,544.382L501.519,586.874ZM501.519,598.952L463.954,639.517C469.006,646.163 468.383,652.593 462.374,658.818C465.521,660.443 468.98,661.988 472.633,663.485C469.885,657.724 470.43,652.067 474.038,646.508C483.732,652.116 490.488,660.311 494.178,669.917C496.638,671.1 499.084,672.354 501.519,673.68C503.953,672.354 506.4,671.1 508.86,669.917C512.549,660.311 519.305,652.116 529,646.508C532.608,652.067 533.152,657.724 530.405,663.485C534.057,661.988 537.517,660.443 540.664,658.818C534.655,652.593 534.032,646.163 539.084,639.517L501.519,598.952ZM500.197,620.001C490.778,620.107 483.162,627.787 483.162,637.232C483.162,646.677 490.778,654.357 500.197,654.462C509.617,654.357 517.232,646.677 517.232,637.232C517.232,627.787 509.617,620.107 500.197,620.001ZM502.038,531.34C504.98,534.873 509.163,537.825 515,540C519.216,539.219 522.353,537.355 525,535C521.667,543.368 519.545,552.501 518,562C515.071,559.831 510.241,559.983 502.038,559.998L502.038,560L501,560L501,559.998C492.796,559.983 487.967,559.831 485.038,562C483.493,552.501 481.371,543.368 478.038,535C480.685,537.355 483.822,539.219 488.038,540C493.875,537.825 498.057,534.873 501,531.34L501,530C501.168,530.234 501.341,530.465 501.519,530.694C501.697,530.465 501.87,530.234 502.038,530L502.038,531.34ZM527.75,527.5C529.82,527.5 531.5,529.18 531.5,531.25C531.5,533.32 529.82,535 527.75,535C525.68,535 524,533.32 524,531.25C524,529.18 525.68,527.5 527.75,527.5ZM475.288,527.5C473.218,527.5 471.538,529.18 471.538,531.25C471.538,533.32 473.218,535 475.288,535C477.357,535 479.038,533.32 479.038,531.25C479.038,529.18 477.357,527.5 475.288,527.5ZM501.519,519.036C501.688,519.012 501.861,519 502.038,519C504.107,519 505.788,520.68 505.788,522.75C505.788,524.82 504.107,526.5 502.038,526.5C501.861,526.5 501.688,526.488 501.519,526.464C501.349,526.488 501.176,526.5 501,526.5C498.93,526.5 497.25,524.82 497.25,522.75C497.25,520.68 498.93,519 501,519C501.176,519 501.349,519.012 501.519,519.036ZM477.394,402L481.394,414C450.298,433.894 425.694,459.119 377.98,465.366C360.994,467.589 366.017,456.62 376.63,436.955C370.006,427.125 361.842,419.005 355.394,416C348.608,412.837 345.859,391.963 361.394,389.05C378.503,385.842 395.181,385.542 410.394,392.569C430.682,401.94 454.967,398.134 477.394,402ZM523,402L519,414C550.096,433.894 574.7,459.119 622.414,465.366C639.4,467.589 634.377,456.62 623.764,436.955C630.389,427.125 638.553,419.005 645,416C651.786,412.837 654.535,391.963 639,389.05C621.891,385.842 605.213,385.542 590,392.569C569.712,401.94 545.427,398.134 523,402ZM475.394,423L484.894,416L489.394,416C488.686,419.267 488.883,422.608 489.698,426L489.698,441C482.286,439.066 477.276,432.294 475.394,423ZM525,423L515.5,416L511,416C511.708,419.267 511.511,422.608 510.696,426L510.696,441C518.108,439.066 523.118,432.294 525,423ZM500.197,347.997C505.822,347.9 509.659,348.419 515.102,350C524.523,370 522.386,390 515.102,410C510.425,411.193 507.261,411.681 500.394,411.983L500.394,412L500.197,411.991L500,412L500,411.983C493.133,411.681 489.969,411.193 485.293,410C478.008,390 475.871,370 485.293,350C490.735,348.419 494.573,347.9 500.197,347.997ZM479.002,353.759C474.344,368.337 474.763,382.915 476.5,397.493C454.624,394.463 431.599,395.743 410.394,387.811C393.855,381.624 377.813,381.87 361.394,386C361.988,381.916 365.109,376.523 366.609,371C368.36,364.554 369.711,357.93 370.394,353C360.675,344.208 362.181,330.761 385.611,324.462C420.099,315.191 450.433,329.476 479.002,353.759ZM521.392,353.759C526.05,368.337 525.631,382.915 523.895,397.493C545.77,394.463 568.796,395.743 590,387.811C606.539,381.624 622.581,381.87 639,386C638.406,381.916 635.286,376.523 633.785,371C632.034,364.554 630.684,357.93 630,353C639.719,344.208 638.213,330.761 614.783,324.462C580.295,315.191 549.962,329.476 521.392,353.759ZM500.197,370.002C493.555,370.107 488.196,375.532 488.196,382.198C488.196,388.864 493.555,394.289 500.197,394.394C506.839,394.289 512.198,388.864 512.198,382.198C512.198,375.532 506.839,370.107 500.197,370.002Z" style="fill:white;"/>
    </g>
</svg>
