<?xml version="1.0" encoding="UTF-8" standalone="no"?>
<!DOCTYPE svg PUBLIC "-//W3C//DTD SVG 1.1//EN" "http://www.w3.org/Graphics/SVG/1.1/DTD/svg11.dtd">
<svg width="100%" height="100%" viewBox="0 0 1000 1000" version="1.1" xmlns="http://www.w3.org/2000/svg" xmlns:xlink="http://www.w3.org/1999/xlink" xml:space="preserve" xmlns:serif="http://www.serif.com/" style="fill-rule:evenodd;clip-rule:evenodd;stroke-linejoin:round;stroke-miterlimit:2;">
    <g transform="matrix(8.43966,0,0,8.43966,-5044.86,-5312.23)">
        <path d="M656.75,741.885C646.179,736.997 636.836,731.111 629,724C629.16,721.31 630.427,719.53 632,718C640.046,725.29 648.325,731.262 657,735L657.203,734.912C665.804,731.169 674.017,725.233 682,718C683.573,719.53 684.84,721.31 685,724C677.102,731.167 667.674,737.09 657,742L656.75,741.885ZM664.222,648.443C670.651,645.428 680.595,639.052 681,636C681.181,634.638 685.387,635.681 685,637C683.619,641.701 668.992,651.315 661,655L688.397,655L688,697C680.661,709.887 669.777,719.751 657,728L656.701,727.806C644.054,719.597 633.282,709.787 626,697L625.603,655L653,655C645.008,651.315 630.381,641.701 629,637C628.613,635.681 632.819,634.638 633,636C633.405,639.052 643.349,645.428 649.778,648.443C649.279,647.4 649,646.232 649,645C649,640.585 652.585,637 657,637C661.415,637 665,640.585 665,645C665,646.232 664.721,647.4 664.222,648.443ZM633,662L633,695C636.345,703.576 641.872,710.135 649,715.214L649,662L633,662ZM665,715.214C672.128,710.135 677.655,703.576 681,695L681,662L665,662L665,715.214Z" style="fill:white;"/>
    </g>
</svg>
