<?xml version="1.0" encoding="UTF-8" standalone="no"?>
<!DOCTYPE svg PUBLIC "-//W3C//DTD SVG 1.1//EN" "http://www.w3.org/Graphics/SVG/1.1/DTD/svg11.dtd">
<svg width="100%" height="100%" viewBox="0 0 1000 1000" version="1.1" xmlns="http://www.w3.org/2000/svg" xmlns:xlink="http://www.w3.org/1999/xlink" xml:space="preserve" xmlns:serif="http://www.serif.com/" style="fill-rule:evenodd;clip-rule:evenodd;stroke-linejoin:round;stroke-miterlimit:2;">
    <g transform="matrix(1.01549,0,0,1.01549,-7.77293,-7.74709)">
        <path d="M265.732,136.554L282.267,159.44L354.335,93.961L372.328,118.865L290.794,171.242L292.032,172.957C305.011,175.623 316.104,178.315 323.371,184.017C330.775,189.827 327.805,202.942 327.309,221.784L606.841,608.692C621.169,626.418 638.527,639.753 663.751,641.684L673.594,634.573C717.834,588.091 761.927,634.164 807.524,686.72C852.692,738.781 881.051,809.083 827.819,848.04L790.506,874.997L766.894,842.315C765.333,840.155 762.371,839.551 759.885,840.737L746.605,822.466L778.686,799.288C782.317,796.665 783.284,791.795 780.845,788.419L772.006,776.184C769.567,772.808 764.639,772.197 761.008,774.82L728.857,798.049L280.556,182.462C280.441,181.529 280.102,180.624 279.523,179.823L278.862,178.907L256.987,192.96L258.48,195.027C259.058,195.827 259.812,196.433 260.661,196.835L698.129,820.249L667.625,842.287C663.995,844.91 663.027,849.781 665.466,853.157L674.305,865.391C676.744,868.767 681.672,869.379 685.303,866.755L715.493,844.944L728.473,863.404C726.485,865.392 726.091,868.454 727.676,870.649L751.304,903.352L715.016,929.57C661.31,967.872 603.474,918.868 568.234,859.634C532.659,799.838 502.766,743.505 560.791,716.103L573.458,706.951C579.565,682.378 572.355,661.7 560.02,642.519L280.487,255.611C262.443,250.164 249.059,248.865 245.869,240.011C242.737,231.32 243.666,219.944 245.211,206.784L231.335,187.578L161.326,246.943L143.334,222.038L222.257,175.013L208.516,155.994C180.572,156.519 159.88,150.213 145.792,137.686C155.842,121.773 174.676,105.949 196.581,90.157C218.454,74.321 239.392,61.409 257.657,56.866C265.125,74.176 264.613,95.801 255.337,122.166L257.206,124.752L329.274,59.273L347.267,84.177L265.732,136.554ZM731.598,861.695L718.363,842.871L729.635,834.727L742.947,853.376C741.714,855.292 741.649,857.748 742.981,859.591L766.608,892.295L760.869,896.442L737.241,863.738C735.96,861.964 733.732,861.24 731.598,861.695ZM745.64,851.055L732.504,832.654L743.735,824.539L757.232,843.109C756.06,845.01 756.02,847.414 757.328,849.225L780.941,881.908L776.158,885.363L752.546,852.681C751.007,850.551 748.105,849.934 745.64,851.055ZM264.461,197.318L700.999,818.176L712.097,810.158L271.564,193.019L267.275,196.118C266.404,196.747 265.438,197.144 264.461,197.318ZM279.806,186.247C279.335,187.11 278.66,187.892 277.797,188.516L274.434,190.946L714.966,808.085L725.988,800.122L279.806,186.247ZM244.831,176.134L252.385,186.59L271.72,169.023L264.691,159.293L244.831,176.134ZM237.471,165.948L259.861,152.608L253.8,144.219L231.925,158.272L237.471,165.948ZM246.659,134.334L227.324,151.902L224.422,147.886C222.471,145.186 223.245,141.291 226.149,139.193L236.67,131.591C239.574,129.494 243.515,129.983 245.466,132.683L246.659,134.334Z" style="fill:white;"/>
    </g>
</svg>
