<?xml version="1.0" encoding="UTF-8" standalone="no"?>
<!DOCTYPE svg PUBLIC "-//W3C//DTD SVG 1.1//EN" "http://www.w3.org/Graphics/SVG/1.1/DTD/svg11.dtd">
<svg width="100%" height="100%" viewBox="0 0 1000 1000" version="1.1" xmlns="http://www.w3.org/2000/svg" xmlns:xlink="http://www.w3.org/1999/xlink" xml:space="preserve" xmlns:serif="http://www.serif.com/" style="fill-rule:evenodd;clip-rule:evenodd;stroke-linejoin:round;stroke-miterlimit:2;">
    <g transform="matrix(2.01033,0,0,2.01033,-588.98,-480.57)">
        <path d="M365.063,525C354.591,524.881 348.681,543.105 347.802,555C346.934,566.748 346.804,588.005 360,596C365.905,617.147 375.518,635.198 401,640C406.568,657.745 419.608,669.642 441,675C453.359,689.133 468.401,701.608 503,702C526.426,712.823 551.25,720.396 592,691C605.711,695.368 619.047,689.449 632,673C664.358,677.197 689.082,662.032 704,622C726.269,603.972 733.718,579.444 714,543C714,543 693.08,558.829 691,569C690.05,573.645 687.922,577.717 683.14,581.812C680.394,584.163 676.774,586.522 672,589C663.011,593.666 658.065,607.823 641,609C632.937,609.556 625.616,617.468 616,625C605.6,633.147 585.132,631.603 572,637C546.971,647.288 530.279,635.011 524,640C505.806,654.454 489.417,638.677 475,627C466.203,619.875 451.372,616.391 445,609C438.773,601.777 426.548,611.54 410,588C402.818,577.783 388.469,562.617 378,555C369.302,548.671 366.131,537.072 365.063,525ZM367.879,491.822C365.68,501.968 363.989,512.194 366,523C369.273,524.744 369.411,532.138 370.655,539C371.598,544.207 373.178,549.107 377.246,551C388.894,556.42 398.282,568.445 407.509,580.37C412.666,587.035 417.945,593.235 424,597.075C428.341,599.829 434.983,600.657 442,604.377C446.857,606.951 452.195,610.223 458,614.359C461.815,617.078 467.17,617.664 471.852,620C483.996,626.06 496.476,634.215 505,641.315C508.901,644.564 514.16,638.494 524,635C531.585,632.307 542.703,631.667 553,634.781C560.08,636.921 567.67,634.369 579.096,631C585.815,629.019 594.386,628.656 603.909,625C611.383,622.13 615.945,615.356 633,608.248C638.001,606.164 644.076,604.051 651.613,602C656.203,600.751 661.245,596.086 665.241,590C671.998,579.713 684.054,580.821 684.812,577C686.008,570.967 688.68,563.658 695,556.222C699.632,550.771 706.102,545.229 715,540C715.185,539.857 715.39,537.615 715.434,537.426C715.507,537.114 721.85,530.293 723.691,527.32C724.571,525.899 725.25,524.495 725.769,523.102C726.137,522.113 726.406,521.129 726.62,520.151C727.178,517.595 727.198,515.059 726.741,512.479C726.115,508.948 724.722,505.363 722.636,501.733C707.814,558.521 665.319,565.048 617,561C546.426,592.315 497.524,584.531 464,549C432.149,558.831 404.666,544.82 380.675,511.784C380.703,511.871 380.714,511.965 380.706,512.062C380.629,515.459 380.507,518.736 380.361,521.996C380.263,524.188 380.175,526.358 380.11,528.54C380.067,529.975 380.04,531.413 380.016,532.862C379.979,534.982 379.963,537.12 380.072,539.317C380.252,542.965 380.675,546.742 381.676,550.789C381.793,551.162 381.585,551.559 381.211,551.676C380.838,551.793 380.441,551.585 380.324,551.211C378.786,547.168 377.796,543.343 377.238,539.593C376.997,537.972 376.846,536.371 376.764,534.78C376.709,533.703 376.681,532.631 376.708,531.564C376.774,528.892 377.038,526.255 377.395,523.615C377.915,519.769 378.687,515.949 379.294,511.938C379.328,511.549 379.672,511.26 380.062,511.294C380.194,511.306 380.315,511.353 380.416,511.427L380.172,511.089C375.73,504.891 371.669,498.436 367.879,491.822ZM510.493,632.492C505.845,627.711 501.476,622.916 497.349,618.144C494.468,614.814 491.724,611.488 489.098,608.178C486.364,604.731 483.783,601.29 481.332,597.871C479.638,595.506 477.996,593.16 476.437,590.811C473.027,585.673 469.995,580.543 467.41,575.379C464.656,569.877 462.376,564.368 460.683,558.801C460.58,558.424 460.19,558.201 459.813,558.304C459.436,558.408 459.214,558.798 459.317,559.175C461.404,567.68 464.718,576.174 469.206,584.621C470.885,587.783 472.732,590.933 474.741,594.07C476.036,596.091 477.393,598.111 478.836,600.108C482.283,604.875 486.117,609.59 490.281,614.257C496.083,620.76 502.562,627.127 509.507,633.508C509.787,633.781 510.236,633.774 510.508,633.493C510.781,633.213 510.774,632.764 510.493,632.492ZM570.295,628.954C564.219,625.95 558.636,622.949 553.455,620.005C549.6,617.814 545.984,615.641 542.571,613.503C538.808,611.145 535.311,608.809 532.035,606.516C529.649,604.847 527.375,603.213 525.223,601.579C520.174,597.749 515.782,593.961 511.953,590.166C507.459,585.711 503.716,581.288 500.591,576.831C500.376,576.504 499.937,576.414 499.61,576.629C499.284,576.844 499.193,577.284 499.409,577.61C503.639,584.422 509.119,591.306 516.503,598.212C518.996,600.544 521.709,602.872 524.667,605.192C526.487,606.619 528.395,608.049 530.417,609.451C534.966,612.605 540.022,615.715 545.626,618.781C552.733,622.67 560.743,626.435 569.705,630.242C570.06,630.405 570.481,630.249 570.644,629.893C570.807,629.538 570.651,629.117 570.295,628.954ZM600.264,617.342C596.63,615.681 593.157,613.885 589.827,611.973C587.55,610.667 585.362,609.293 583.246,607.861C581.095,606.405 579.043,604.868 577.071,603.263C575.743,602.182 574.444,601.081 573.197,599.927C570.594,597.516 568.203,594.907 566.082,592.005C564.019,589.182 562.181,586.129 560.659,582.74C560.515,582.376 560.104,582.198 559.74,582.341C559.376,582.485 559.198,582.896 559.341,583.26C561.254,588.802 563.922,593.673 567.272,597.971C568.659,599.75 570.167,601.421 571.782,602.996C572.852,604.04 573.967,605.046 575.141,605.988C578.008,608.289 581.145,610.321 584.48,612.131C589.215,614.702 594.359,616.779 599.736,618.658C600.099,618.803 600.512,618.626 600.658,618.264C600.803,617.901 600.626,617.488 600.264,617.342ZM459.839,606.805C457.407,603.535 455.18,600.265 453.091,597.015C451.641,594.76 450.28,592.514 448.981,590.282C447.637,587.976 446.387,585.677 445.196,583.399C444.378,581.835 443.578,580.289 442.826,578.741C441.201,575.395 439.775,572.064 438.598,568.709C437.37,565.208 436.375,561.715 435.701,558.179C435.646,557.792 435.286,557.523 434.899,557.578C434.512,557.634 434.243,557.993 434.299,558.38C434.845,563.852 436.035,569.329 437.912,574.806C438.633,576.907 439.459,579.001 440.39,581.089C440.994,582.445 441.637,583.802 442.347,585.141C444.053,588.362 446.027,591.544 448.227,594.69C451.31,599.097 454.872,603.389 458.744,607.703C458.992,608.006 459.438,608.05 459.741,607.802C460.043,607.554 460.087,607.107 459.839,606.805ZM640.155,599.809C636.161,598.715 632.376,597.53 628.751,596.319C626.172,595.457 623.693,594.566 621.292,593.669C618.75,592.719 616.314,591.74 613.965,590.761C612.314,590.073 610.703,589.398 609.143,588.701C605.649,587.14 602.408,585.507 599.427,583.745C596.124,581.793 593.133,579.735 590.483,577.482C590.197,577.215 589.748,577.231 589.482,577.517C589.215,577.803 589.231,578.252 589.517,578.518C593.197,582.258 597.618,585.725 602.841,588.852C604.719,589.977 606.701,591.049 608.789,592.067C610.112,592.712 611.475,593.342 612.89,593.922C616.2,595.281 619.743,596.49 623.5,597.564C628.569,599.013 634.026,600.159 639.845,601.191C640.227,601.277 640.606,601.036 640.691,600.655C640.777,600.273 640.536,599.894 640.155,599.809ZM405.018,543.126C405.773,548.658 406.734,554.193 408.267,559.862C409.228,563.418 410.393,567.025 411.841,570.693C412.391,572.086 413.002,573.478 413.649,574.883C414.579,576.901 415.592,578.938 416.698,581.002C419.205,585.679 422.162,590.476 425.576,595.53C425.781,595.863 426.218,595.967 426.551,595.762C426.884,595.557 426.988,595.12 426.783,594.788C423.844,589.527 421.4,584.529 419.253,579.746C418.314,577.653 417.436,575.605 416.605,573.593C416.028,572.196 415.483,570.815 414.937,569.459C413.496,565.885 412.196,562.426 411.04,559.018C409.182,553.54 407.63,548.237 406.412,542.874C406.342,542.489 405.973,542.233 405.588,542.303C405.204,542.373 404.948,542.742 405.018,543.126ZM669.927,577.295C665.996,577.504 662.22,577.563 658.592,577.529C656.004,577.505 653.504,577.413 651.089,577.274C648.509,577.125 646.036,576.894 643.669,576.605C641.986,576.4 640.357,576.179 638.786,575.899C635.203,575.26 631.927,574.366 628.989,573.097C625.729,571.689 622.879,569.886 620.525,567.525C620.263,567.235 619.814,567.212 619.525,567.475C619.235,567.737 619.212,568.186 619.475,568.475C622.176,571.757 625.677,574.326 629.894,576.256C632.404,577.405 635.165,578.317 638.15,579.005C639.788,579.382 641.493,579.695 643.264,579.912C645.724,580.213 648.307,580.353 650.991,580.368C653.47,580.383 656.033,580.276 658.678,580.073C662.339,579.793 666.134,579.308 670.073,578.705C670.461,578.665 670.745,578.316 670.705,577.927C670.665,577.539 670.316,577.255 669.927,577.295ZM640,302.232C608.184,265.738 564.599,249.336 493.447,280C483.719,279.583 475.842,282.797 470,290C431.464,294.334 404.434,315.233 387.037,350C388.194,352.243 390.014,354.274 392.803,355.995C391.454,360.793 388.955,369.086 384.139,370C380.124,370.762 377.941,372.542 375.613,374.604C337.539,408.332 339.464,436.142 352,460C349.065,476.568 359.156,484.047 370,491C395.72,529.027 424.349,557.621 466,544C502.523,583.44 555.751,580.415 617,557C662.567,559.897 705.353,556.962 720,495C742.644,479.036 747.913,455.016 723,417C726.565,402.221 722.089,388.35 713,375C708.629,353.252 700.933,331.638 669,311C662.328,305.392 656.017,299.46 640,302.232ZM685.01,562.292C683.968,562.031 683.061,561.695 682.09,561.426C681.456,561.251 680.859,561.057 680.255,560.928C679.745,560.819 679.244,560.775 678.761,560.687C678.245,560.594 677.763,560.553 677.286,560.422C676.639,560.244 676.052,560.102 675.49,559.774C675.207,559.504 674.758,559.514 674.488,559.796C674.218,560.079 674.228,560.528 674.51,560.798C674.984,561.53 675.564,562.095 676.267,562.657C676.708,563.01 677.186,563.289 677.719,563.551C678.238,563.807 678.795,564.013 679.392,564.149C679.689,564.217 679.997,564.25 680.31,564.269C680.761,564.298 681.211,564.312 681.679,564.274C682.784,564.186 683.831,563.961 684.99,563.708C685.381,563.714 685.703,563.401 685.708,563.01C685.714,562.619 685.401,562.297 685.01,562.292Z" style="fill:white;"/>
    </g>
</svg>
