<?xml version="1.0" encoding="UTF-8" standalone="no"?>
<!DOCTYPE svg PUBLIC "-//W3C//DTD SVG 1.1//EN" "http://www.w3.org/Graphics/SVG/1.1/DTD/svg11.dtd">
<svg width="100%" height="100%" viewBox="0 0 1000 1000" version="1.1" xmlns="http://www.w3.org/2000/svg" xmlns:xlink="http://www.w3.org/1999/xlink" xml:space="preserve" xmlns:serif="http://www.serif.com/" style="fill-rule:evenodd;clip-rule:evenodd;stroke-linejoin:round;stroke-miterlimit:2;">
    <g transform="matrix(1.89819,0,0,1.89819,-553.542,-402.919)">
        <path d="M783.408,473.107C781.707,479.785 770.991,480.007 768.811,486.797C766.087,495.276 771.789,504.608 770.614,513.105C770.027,517.354 766.257,519 764.866,522.705C763.378,526.667 764.804,530.771 763.865,534.773C762.727,539.62 759.089,543.518 758.193,548.378C757.143,554.073 768.875,553.044 772.348,556.323C773.294,557.216 776.82,559.711 775.966,561.144C774.978,562.8 770.797,563.254 769.167,563.809C763.774,565.649 761.598,562.662 756.715,562.689C754.304,562.702 751.834,564.695 749.414,565.176C746.966,565.662 743.68,565.595 741.961,567.728C735.224,576.089 745.377,574.641 747.385,580.787C748.855,585.286 745.511,598.009 743.043,601.517C739.635,606.361 734.299,602.91 730.023,602.606C726.677,602.369 725.371,605.175 722.207,605.356C717.079,605.648 711.154,603.048 706.146,604.584C701.514,606.005 697.795,615.432 697.826,619.684C697.841,621.847 699.244,626.791 696.865,628.255C694.52,629.698 678.077,631.379 676.018,629.187C674.92,628.018 675.78,621.571 674.122,621.291C672.697,621.05 671.395,623.795 671.116,624.727C669.841,628.994 669.618,633.625 670.829,637.939C671.951,641.938 676.239,643.573 679.131,645.984C682.826,649.064 685.252,653.158 688.318,656.788C689.714,658.44 693.204,660.854 693.168,663.224C693.149,664.478 690.767,662.658 690.435,662.412C688.16,660.734 685.491,657.082 682.316,657.356C677.641,657.758 680.838,663.871 682.872,665.264C692.367,671.762 708.248,668.378 716.063,674.519C717.523,675.667 726.967,682.268 725.129,683.91C719.88,688.597 717.779,681.08 714.138,679.667C710.859,678.394 707.333,680.611 704.061,679.499C701.596,678.66 700.995,676.212 699.043,674.767C696.594,672.953 693.312,672.397 690.508,671.366C687.396,670.223 680.104,665.522 677.298,669.859C675.235,673.047 686.098,675.518 687.766,676.134C692.188,677.767 696.12,680.42 700.593,681.913C704.249,683.133 708.751,683.152 711.812,685.767C713.069,686.841 712.928,688.832 713.84,690.192C715.306,692.381 718.819,696.61 717.445,699.495C716.797,700.855 714.739,700.054 713.878,699.413C710.749,697.081 708.435,692.926 704.262,692.384C699.852,691.811 693.034,699.795 689.456,697.747C687.513,696.635 694.589,691.518 692.201,691.023C681.008,688.701 670.648,691.169 659.605,691.236C657.515,691.249 650.643,693.099 648.974,692.162C647.323,691.234 641.889,682.232 641.461,680.354C641.145,678.968 644.205,677.15 643.19,675.997C642.295,674.981 639.843,677.04 638.637,676.429C636.827,675.511 635.731,673.201 634.013,672.043C631.592,670.41 628.366,669.96 626.203,668.007C625.235,667.133 619.131,659.822 618.54,658.635C616.741,655.02 616.795,651.112 613.161,648.476C609.755,646.006 603.994,647.495 601.24,644.65C600.728,644.12 600.313,643.462 599.949,642.824C599.694,642.377 599.465,641.914 599.268,641.438C597.304,636.691 601.892,642.275 603.231,641.286C606.093,639.172 602.007,634.302 599.635,633.875L599.229,634C597.005,628.969 602.759,625.959 602.306,621.465C601.938,617.811 599.542,614.943 599.161,611.44C598.796,608.083 600.926,604.425 599.042,601.148C598.006,599.345 592.717,599.929 590.814,598.829C585.333,595.658 581.764,588.336 576.478,585.184C575.081,584.352 572.884,584.744 571.315,583.823C567.938,581.841 565.377,578.513 562.003,576.375C558.043,573.866 553.571,573.253 549.544,571.059C543.867,567.965 538.982,563.438 533.4,560.216C529.118,557.745 524.648,560.807 520.943,559.293C519.283,558.614 518.963,555.791 517.785,554.484C514.315,550.633 502.565,549.821 503.177,543.352C503.711,537.709 511.411,543.97 512.077,542.291C512.47,541.299 509.864,539.86 509.306,539.537C505.831,537.523 501.777,536.532 499.383,533.105C496.948,529.62 498.899,525.966 497.387,522.675C496.14,519.96 492.734,519.859 490.862,517.76C489.738,516.498 488.288,512.814 486.219,512.718C484.713,512.648 483.391,515.442 483.297,516.623C483.037,519.895 482.079,528.513 477.285,528.592C475.695,528.619 473.157,523.128 472.274,521.993C470.115,519.216 465.798,514.958 467.399,510.963C468.291,508.737 472.58,506.329 472.148,503.591C471.93,502.216 468.876,501.821 467.85,501.758C462.61,501.434 459.57,504.385 455.268,507.052C452.519,508.756 448.981,509.869 446.753,512.28C442.538,516.84 447.917,523.362 448.612,528.267C449.28,532.977 442.855,531.496 444.544,538.287C448.46,554.04 465.925,553.373 475.077,563.899C479.676,569.189 480.059,576.988 482.448,583.305C484.756,589.408 489.558,594.389 494.777,598.155C501.185,602.78 511.461,603.341 519.134,604.815C522.195,605.403 526.608,605.171 529.089,607.435C534.632,612.492 518.81,615.851 526.862,620.922C539.354,628.79 555.992,627.711 568.812,635.512C571.983,637.442 573.463,641.503 576.023,644.15C579.336,647.576 584.198,649.53 584.886,654.808C585.525,659.705 579.578,665.985 575.023,661.712C571.765,658.656 572.604,651.94 569.999,648.187C567.765,644.969 563.146,646.241 559.887,645.852C555.258,645.301 553.414,639.258 548.846,646.928C546.8,650.363 542.524,663.194 545.321,667.122C547.027,669.519 550.667,669.864 552.961,671.541C556.413,674.066 557.686,679.975 557.772,683.963C557.897,689.746 550.005,688.494 547.825,694.2C544.773,702.189 538.665,713.345 527.814,712.715C523.76,712.48 528.179,708.175 529.003,707.107C530.818,704.756 530.421,700.874 532.44,698.814C534.233,696.986 538.175,697.775 538.922,694.569C539.276,693.051 535.307,689.823 534.715,688.14C533.51,684.715 533.135,681.018 531.823,677.642C530.916,675.306 529.026,673.791 528.315,671.209C527.611,668.654 527.721,664.143 525.878,662.064C524.869,660.926 522.243,664.168 520.653,663.734C517.365,662.836 511.475,658.183 508.775,656.077C505.536,653.55 508.684,649.831 506.025,647.191C503.858,645.038 499.858,648.703 497.418,646.943C495.796,645.773 495.761,642.59 494.367,641.013C492.547,638.953 489.491,638.746 487.398,637.085C485.407,635.505 484.588,632.802 482.149,631.667C476.924,629.235 470.732,633.326 466.281,629.902C454.705,620.993 445.417,610.497 433.964,601.634C431.761,599.929 428.985,599.463 426.857,597.94C423.287,595.385 418.84,590.429 415.645,587.065C414.77,586.143 412.663,585.698 412.097,584.799C411.456,583.783 412.644,582.451 412.345,581.32C411.418,577.807 410.096,574.555 409.362,570.908C408.064,564.466 404.798,558.22 400.673,553.13C394.642,545.687 375.167,539.766 367.565,547.664C362.67,552.749 359.279,565.909 349.612,563.494C344.807,562.294 353.1,553.32 349.882,550.24C346.765,547.257 338.442,550.68 337.131,545.415C336.084,541.212 340.302,537.545 340.889,533.515C341.647,528.303 334.147,527.969 334.636,523.659C334.743,522.72 342.011,520.422 343.508,517.319C345.988,512.175 339.704,509.314 338.965,505.092C338.593,502.964 340.516,500.707 339.738,498.702C338.948,496.666 337.342,490.824 334.763,490.833C333.861,490.836 324.235,499.004 324.54,494.846C325.315,484.275 334.829,476.317 340.225,468.004C342.386,464.676 342.235,460.271 345.201,457.444C348.105,454.675 353.784,457.02 355.908,453.568C356.662,452.343 355.91,449.176 355.903,447.788C355.88,443.359 356.223,438.724 357.009,434.364C357.889,429.475 360.381,425.918 362.433,421.529C363.039,420.231 364.235,417.822 363.077,416.506C359.723,412.696 354.259,415.583 350.278,415.602C348.162,415.612 346.23,413.012 344.194,412.361C342.857,411.933 341.318,412.636 340.056,411.906C331.282,406.828 340.194,398.394 338.227,392.37C337.272,389.447 333.368,387.819 332.749,384.437C332.197,381.421 335.511,379.167 334.367,376.032C333.13,372.644 329.065,368.079 329.159,364.557C329.311,358.783 333.788,354.58 334.744,349.225C335.489,345.057 333.269,340.368 335.752,336.401C337.903,332.966 343.548,334.359 345.32,330.383C346.194,328.422 349.877,322.069 349.165,320.074C348.363,317.827 343.77,319.208 344.208,315.2C344.527,312.288 348.298,311.908 349.35,309.514C350.375,307.182 352.913,300.592 352.919,296.85L352.865,296.843C352.263,296.761 350.839,296.712 350.537,296.03C350.309,295.515 350.6,294.555 350.871,293.822C350.091,293.612 349.157,293.54 348.224,293.47C348.185,293.21 348.145,292.969 348.141,292.792C348.108,291.451 348.438,290.348 349.058,289.162C349.658,288.014 350.267,286.863 350.91,285.738C351.01,285.564 351.671,284.75 351.586,284.541C351.544,284.44 350.454,284.562 350.31,284.553C348.863,284.464 347.418,284.422 345.969,284.402C346.016,284.302 346.063,284.202 346.111,284.103C346.748,282.775 347.451,281.486 348.485,280.42C348.732,280.166 348.984,279.921 349.24,279.684C349.402,279.003 349.797,278.28 350.524,277.49C351.135,276.825 351.837,276.246 352.58,275.735C354.834,274.187 357.657,273.673 360.366,274C362.309,273.453 364.296,273.004 366.276,272.55C366.643,274.089 367.127,275.577 367.542,276.902C367.786,277.683 366.29,278.927 367.022,279.438C367.452,279.738 367.952,279.848 368.451,279.979C368.832,280.08 369.228,280.229 369.627,280.155C369.871,280.11 370.116,280.027 370.337,279.914C372.916,278.598 368.303,276.542 370.589,275.012C371.632,274.314 373.213,275.649 374.118,276.057C374.52,276.238 375.393,276.569 375.658,275.984C375.987,275.255 374.628,273.67 374.481,272.897C374.313,272.016 374.403,271.109 374.552,270.197L374.552,270.197C374.847,269.602 375.182,269.037 375.602,268.529C376.065,267.968 376.734,267.69 377.427,267.456C379.434,268.477 381.733,268.465 384.006,268.164C384.667,268.077 386.294,268.088 386.759,267.475C386.817,267.398 384.771,266.931 384.598,266.881C383.357,266.524 381.78,265.985 380.853,264.943C381.218,264.343 381.544,263.667 381.791,263C382.893,262.7 385.181,261.702 383.373,260.646C383.152,260.518 382.886,260.44 382.638,260.387C382.504,260.358 382.37,260.345 382.236,260.345C382.047,259.502 381.136,259.006 380.903,258.213C380.725,257.607 381.101,256.304 380.714,255.829C379.891,254.817 377.907,255.581 378.171,253.456C378.398,251.627 382.599,251.64 382.754,249.284C382.801,248.571 381.821,247.769 381.367,247.318C379.806,245.769 374.066,240.536 378.411,238.846C380.016,238.222 382.752,238.986 384.415,239.197C389.63,239.858 397.483,240.297 401.331,244.429C403.327,246.571 398.102,248.44 401.024,250.221C401.411,250.457 401.827,250.652 402.252,250.809C405.719,252.085 409.597,253.925 413.288,254.268C415.205,254.446 419.208,253.47 420.812,254.964C423.169,257.159 417.754,259.955 416.876,261.116C415.864,262.454 415.722,263.748 417.551,264.369C423.293,266.32 427.547,262.528 432.672,261.187C435.704,260.394 439.68,260.302 442.193,258.228C444.444,256.371 444.328,252.423 447.078,251.035C449.861,249.63 453.531,250.702 456.521,250.117C458.743,249.683 460.301,248.052 461.843,246.524C462.506,245.867 463.368,244.596 464.431,244.622C465.215,244.641 465.877,245.667 466.589,245.977C467.366,246.315 468.092,246.468 468.677,247.131C469.532,248.102 468.356,249.981 468.189,251.057C468.005,252.243 469.702,255.474 469.056,256.25C468.758,256.609 467.593,256.018 467.265,255.917C465.61,255.406 461.561,256.529 463.411,258.95C464.487,260.357 467.169,259.731 468.658,259.805C471.514,259.949 474.444,262.692 476.524,264.466C477.187,265.032 478.57,266.092 478.408,267.129C478.265,268.04 473.39,267.504 472.456,267.624C469.422,268.015 470.064,269.061 469.797,271.281C470.633,271.412 471.451,271.468 472.243,271.419C482.785,270.777 481.256,286.304 474.222,294.233C471.538,297.259 468.253,300.797 468.855,305.171C469.502,309.879 475.72,312.46 477.508,316.835C479.413,321.496 477.547,328.035 478.346,332.996C479.226,338.451 482.953,342.617 484.302,347.935C484.987,350.633 484.524,353.978 482.136,355.664C481.533,356.09 474.915,356.309 477.306,358.059C481.535,361.155 485.32,357.211 489.53,357.263C492.023,357.294 494.561,359.506 496.951,360.233C501.449,361.6 508.287,361.371 512.27,363.836C514.278,365.079 510.168,367.78 509.795,369.45C509.141,372.383 513.13,375.843 515.627,376.609C516.493,376.875 517.431,376.997 518.336,376.958C525.507,376.648 519.535,371.068 521.818,368.045C522.422,367.245 525.29,368.863 526.047,368.992C528.401,369.392 530.996,368.665 533.219,369.554C536.955,371.047 532.449,374.887 534.075,376.203C537.977,379.362 543.954,376.673 548.035,379.057C550.076,380.249 549.454,382.372 550.506,384.095C552.002,386.547 554.801,388.982 557.36,390.272C561.886,392.555 566.424,385.917 570.2,388.061C573.649,390.019 568.7,396.126 574.02,396.737C577.131,397.094 580.256,392.167 582.936,390.887C587.565,388.675 591.901,390.605 596.487,389.473C600.953,388.371 602.848,383.983 608.001,385.473C611.162,386.388 621.152,388.936 622.394,392.273C622.737,393.194 621.379,395.563 621.253,396.616C620.78,400.549 619.127,408.818 621.642,412.203C622.773,413.725 625.265,413.98 626.855,414.79C634.352,418.609 641.182,418.855 649.527,419.314C653.934,419.557 658.285,418.052 662.643,418.479C665.065,418.717 668.446,420.956 670.829,420.186C674.048,419.145 673.773,415.181 677.146,414.207C682.581,412.636 689.556,413.464 694.463,410.507C698.132,408.297 697.031,405.642 698.91,402.471C699.906,400.79 706.267,393.734 707.786,392.595C716.422,386.123 732.296,392.395 742.067,393.783C745.074,394.21 748.704,391.61 751.45,393.265C756.883,396.539 756.941,407.339 760.6,412.402C765.005,418.496 773.267,422.876 779.26,427.477C780.276,428.256 785.522,430.604 785.515,432.072C785.507,433.853 779.925,433.993 778.817,434.05C773.262,434.339 764.6,430.992 759.558,434.254C751.325,439.582 760.343,446.175 760.093,452.185C759.944,455.759 756.266,458.683 756.857,462.406C757.3,465.2 763.907,465.409 766.05,465.017C772.845,463.771 779.488,460.58 782.507,467.907C777.894,468.586 773.261,469.323 768.609,469.725C766.246,469.93 763.879,469.042 761.505,469.001C759.822,468.972 753.945,467.608 750.312,467.587C747.811,467.572 745.962,468.324 745.071,469.178C740.95,473.129 740.323,476.833 741.118,480.161C742.077,484.178 745.932,487.877 749.045,491.184C749.685,491.864 750.275,492.526 750.731,493.184C750.977,493.539 751.434,493.751 751.286,494.095C750.477,495.972 748.833,497.403 746.99,498.682C743.505,501.103 739.256,502.903 736.222,504.743C730.467,508.234 724.633,511.444 718.935,514.912C715.052,517.276 711.231,519.759 707.533,522.519C703.301,525.68 700.065,529.248 696.04,531.596C693.844,532.876 691.377,533.734 688.235,533.804C682.593,533.929 674.111,533.692 666.58,532.094C661.786,531.077 657.367,529.575 654.619,527.044C653.682,526.181 652.501,525.054 651.562,523.787C650.96,522.976 650.369,522.141 650.368,521.253C650.364,519.089 651.639,517.531 651.926,516.314C652.318,514.653 652.08,513.219 651.164,511.921C650.467,510.934 649.097,509.791 646.204,509.076C643.611,508.434 640.945,508.427 638.248,508.763C633.317,509.378 628.27,511.353 623.493,511.175C619.729,511.035 615.518,511.137 611.428,510.936C608.874,510.811 606.37,510.568 604.082,510.031C599.457,508.945 595.249,506.615 590.75,505.095C589.471,504.663 588.171,504.288 586.84,504.003C582.93,503.165 577.677,502.522 573.111,500.915C570.562,500.017 568.218,498.849 566.725,496.936C564.744,494.397 564.851,491.352 565.555,488.258C566.928,482.22 570.56,475.964 571.891,471.116L575.184,454.951C575.946,452.057 578.186,446.171 577.898,441.917C577.667,438.501 576.157,435.864 572.984,434.603C571.178,433.886 569.03,433.673 566.75,433.851C562.868,434.154 558.515,435.631 555.57,436.333C550.3,437.59 545.095,438.969 539.802,439.59C536.492,439.979 533.146,440.066 529.724,439.599C526.649,439.18 524.314,437.292 522.065,435.231C519.163,432.571 516.435,429.562 513.281,427.469C511.333,426.176 509.232,425.205 506.889,424.734C497.421,422.83 488.952,427.593 479.913,428.677C476.928,429.035 473.859,428.886 470.619,427.583C463.064,424.546 454.715,417.373 446.061,413.833C441.552,411.988 436.961,411.059 432.362,411.727C429.877,412.088 427.71,413.028 425.728,414.307C422.125,416.634 419.281,420.321 415.678,422.525C408.249,427.071 398.696,433.512 388.974,436.901C382.659,439.102 376.281,441.451 370.421,440.955C368.416,440.785 365.65,440.276 365.481,442.281C365.311,444.286 367.797,444.124 369.806,444.221C381.393,444.778 383.708,443.895 391.374,441.786C401.818,438.914 411.668,433.527 419.484,428.745C423.135,426.511 426.032,422.791 429.684,420.433C430.801,419.712 432.009,419.147 433.41,418.943C436.737,418.46 440.039,419.247 443.301,420.582C451.967,424.127 460.333,431.306 467.899,434.348C472.392,436.155 476.642,436.414 480.782,435.917C489.07,434.923 496.77,430.137 505.452,431.882C508.474,432.49 510.782,434.544 513.065,436.703C515.988,439.467 518.819,442.474 522.151,444.457C524.148,445.645 526.313,446.493 528.738,446.824C532.784,447.376 536.739,447.292 540.652,446.832C546.226,446.178 551.712,444.75 557.262,443.426C559.595,442.87 562.881,441.745 566.03,441.271C567.582,441.037 569.091,440.903 570.292,441.38C570.681,441.535 570.595,441.99 570.623,442.409C570.677,443.208 570.575,444.088 570.414,444.988C569.865,448.043 568.619,451.25 568.133,453.095L564.859,469.186C563.244,475.073 558.483,482.995 557.882,490.18C557.545,494.211 558.343,498.047 560.977,501.422C563.282,504.375 566.755,506.407 570.689,507.793C575.556,509.506 581.145,510.24 585.312,511.133C586.369,511.359 587.4,511.66 588.416,512.003C593.135,513.597 597.566,515.991 602.415,517.129C604.476,517.613 606.682,517.909 608.951,518.086C613.715,518.458 618.775,518.296 623.222,518.462C628.371,518.654 633.834,516.661 639.15,515.999C640.873,515.785 642.578,515.731 644.238,516.108C643.635,517.558 643.073,519.265 643.076,521.264C643.079,523.22 643.795,525.219 644.972,527.067C646.293,529.143 648.196,531.041 649.679,532.407C653.241,535.688 658.852,537.908 665.066,539.227C673.181,540.948 682.319,541.229 688.397,541.094C692.952,540.992 696.53,539.751 699.714,537.894C703.965,535.415 707.425,531.7 711.896,528.362C715.407,525.74 719.038,523.386 722.726,521.141C728.421,517.674 734.251,514.466 740.003,510.978C743.729,508.718 749.158,506.459 753.069,503.221C755.219,501.441 756.949,499.378 757.982,496.982C759.253,494.033 758.348,490.925 755.831,487.852C753.458,484.956 749.069,482.063 748.21,478.467C747.941,477.341 748.412,476.233 749.618,474.947C751.041,475.134 759.701,476.263 761.379,476.292C764.004,476.337 766.623,475.216 769.237,474.99C773.981,474.58 778.705,473.804 783.408,473.107Z" style="fill:white;"/>
    </g>
</svg>
