<?xml version="1.0" encoding="UTF-8" standalone="no"?>
<!DOCTYPE svg PUBLIC "-//W3C//DTD SVG 1.1//EN" "http://www.w3.org/Graphics/SVG/1.1/DTD/svg11.dtd">
<svg width="100%" height="100%" viewBox="0 0 1000 1000" version="1.1" xmlns="http://www.w3.org/2000/svg" xmlns:xlink="http://www.w3.org/1999/xlink" xml:space="preserve" xmlns:serif="http://www.serif.com/" style="fill-rule:evenodd;clip-rule:evenodd;stroke-linejoin:round;stroke-miterlimit:2;">
    <g transform="matrix(1.02418,0,0,1.02418,-13.3255,18.412)">
        <path d="M549.749,30.842C477.177,128.12 391.272,194.363 291.819,229.066C95.314,360.391 56.037,569.613 153.446,747.16C231.403,859.71 380.06,919.563 534.417,908.237C627.513,901.406 710.691,875.896 779.829,821.606C848.206,766.177 885.63,687.992 897.791,594.081C907.491,519.176 887.488,434.829 831.83,338.929C785.704,280.497 728.44,234.764 657.629,204.478C659.211,166.823 649.89,130.02 633.638,93.758C613.896,115.056 593.011,131.003 569.699,135.595C571.494,92.536 564.977,57.49 549.749,30.842ZM500,395.085C427.217,334.602 368.861,323.88 319.936,327.459C231.552,333.926 153.871,460.122 158.27,565.542C159.349,591.388 173.629,614.761 195.846,634.299C158.56,667.644 160.887,700.804 181.379,736.024C235.14,828.424 369.606,874.668 501.209,880.007C615.441,884.641 787.069,815.763 827.255,727.784C840.884,697.945 838.775,667.373 808.327,636.373C843.203,581.597 845.347,526.653 829.842,478.019C797.359,376.129 704.604,309.694 623.072,327.881C586.581,336.02 545.446,359.082 500,395.085ZM500,530.083C466.442,530.425 431.087,542.779 399.993,558.313C358.409,579.088 325.465,598.397 328.451,613.53C328.715,629.817 346.218,644.914 407.405,663.167C433.154,670.849 463.465,675.907 500,675.951C538.233,674.636 572.321,667.297 602.67,658.421C645.263,645.964 674.578,629.651 671.993,610.506C673.363,595.915 646.192,579.164 593.514,554.951C570.641,544.437 549.773,536.086 500,530.083ZM498.419,550.507C474.258,550.753 441.963,558.446 419.576,569.63C389.637,584.587 351.187,602.471 353.337,613.366C353.527,625.092 373.185,631.797 417.237,644.939C435.776,650.469 472.115,655.495 498.419,655.527C525.946,654.581 559.961,651.063 581.811,644.673C612.477,635.704 649.058,625.753 647.197,611.969C648.183,601.464 607.62,584.221 569.693,566.788C557.493,561.181 544.614,556.191 523.826,552.808C516.555,551.625 507.705,551.627 498.419,550.507ZM598.238,594.566L402.902,593.819C389.717,603.858 390.193,612.658 403.321,619.646L598.362,620.066C607.746,611.925 608.962,603.473 598.238,594.566ZM699.906,439.566C726.822,439.566 748.673,461.434 748.673,488.368C748.673,515.303 726.822,537.17 699.906,537.17C672.991,537.17 651.139,515.303 651.139,488.368C651.139,461.434 672.991,439.566 699.906,439.566ZM300.638,439.566C327.554,439.566 349.406,461.434 349.406,488.368C349.406,515.303 327.554,537.17 300.638,537.17C273.723,537.17 251.871,515.303 251.871,488.368C251.871,461.434 273.723,439.566 300.638,439.566ZM699.906,471.686C708.654,471.686 715.755,479.161 715.755,488.368C715.755,497.575 708.654,505.05 699.906,505.05C691.159,505.05 684.057,497.575 684.057,488.368C684.057,479.161 691.159,471.686 699.906,471.686ZM300.638,471.686C309.386,471.686 316.488,479.161 316.488,488.368C316.488,497.575 309.386,505.05 300.638,505.05C291.891,505.05 284.789,497.575 284.789,488.368C284.789,479.161 291.891,471.686 300.638,471.686Z" style="fill:white;"/>
    </g>
</svg>
