<?xml version="1.0" encoding="UTF-8" standalone="no"?>
<!DOCTYPE svg PUBLIC "-//W3C//DTD SVG 1.1//EN" "http://www.w3.org/Graphics/SVG/1.1/DTD/svg11.dtd">
<svg width="100%" height="100%" viewBox="0 0 1000 1000" version="1.1" xmlns="http://www.w3.org/2000/svg" xmlns:xlink="http://www.w3.org/1999/xlink" xml:space="preserve" xmlns:serif="http://www.serif.com/" style="fill-rule:evenodd;clip-rule:evenodd;stroke-linejoin:round;stroke-miterlimit:2;">
    <g transform="matrix(2.6421,0,0,2.6421,-869.457,-789.707)">
        <path d="M688.641,385.946C688.641,348.346 658.114,317.819 620.514,317.819L416.13,317.819C378.53,317.819 348.003,348.346 348.003,385.946L348.003,590.33C348.003,627.93 378.53,658.457 416.13,658.457L620.514,658.457C658.114,658.457 688.641,627.93 688.641,590.33L688.641,385.946ZM663.235,401.19C663.235,369.198 637.262,343.225 605.27,343.225L431.374,343.225C399.382,343.225 373.409,369.198 373.409,401.19L373.409,575.086C373.409,607.078 399.382,633.051 431.374,633.051L605.27,633.051C637.262,633.051 663.235,607.078 663.235,575.086L663.235,401.19ZM502.422,506.069C508.209,501.93 511.643,495.253 511.643,488.138C511.643,481.023 508.209,474.346 502.422,470.207L438.794,424.706C432.076,419.901 423.235,419.255 415.89,423.033C408.545,426.81 403.927,434.377 403.927,442.637L403.927,533.64C403.927,541.899 408.545,549.466 415.89,553.243C423.235,557.021 432.076,556.375 438.794,551.571L502.422,506.069ZM564.913,485.32C564.923,485.865 564.976,486.417 565.075,486.971L572.082,526.135C572.138,526.448 572.208,526.759 572.293,527.066C581.588,560.822 629.439,552.802 629.179,519.829C629.179,519.856 629.179,427.461 629.179,427.461C629.179,421.712 624.511,417.044 618.762,417.044C613.013,417.044 608.346,421.712 608.346,427.461L608.346,519.892C608.346,519.922 608.346,519.953 608.346,519.983C608.425,529.085 595.35,530.93 592.493,521.921C592.491,521.916 586.778,489.982 585.743,484.196C585.73,483.734 585.687,483.268 585.61,482.799L578.604,439.789C578.544,439.422 578.465,439.057 578.366,438.698C569.07,404.942 521.219,412.962 521.479,445.936C521.479,445.908 521.479,538.303 521.479,538.303C521.479,544.052 526.147,548.72 531.896,548.72C537.645,548.72 542.312,544.052 542.312,538.303L542.312,445.872C542.312,445.842 542.312,445.811 542.312,445.781C542.233,436.7 555.248,434.843 558.145,443.78C558.147,443.785 563.949,479.4 564.913,485.32ZM427.449,530.767L487.059,488.138L427.449,445.509L427.449,530.767Z" style="fill:white;"/>
    </g>
</svg>
