<?xml version="1.0" encoding="UTF-8" standalone="no"?>
<!DOCTYPE svg PUBLIC "-//W3C//DTD SVG 1.1//EN" "http://www.w3.org/Graphics/SVG/1.1/DTD/svg11.dtd">
<svg width="100%" height="100%" viewBox="0 0 1000 1000" version="1.1" xmlns="http://www.w3.org/2000/svg" xmlns:xlink="http://www.w3.org/1999/xlink" xml:space="preserve" xmlns:serif="http://www.serif.com/" style="fill-rule:evenodd;clip-rule:evenodd;stroke-linejoin:round;stroke-miterlimit:2;">
    <g transform="matrix(2.1028,0,0,2.1028,-538.785,-345.327)">
        <path d="M458,589L397,501L394,479L384,471L384,432C386.553,428.636 391.512,426.832 398,426.019L398,455L448,500L540,500L590,455L590,426.019C596.488,426.832 601.447,428.636 604,432L604,471L594,479L591,501L530,589L494,590L458,589ZM501,578L505,515L483,515L487,578L501,578ZM477,515L459,515L466,578L478,578L477,515ZM511,515L529,515L522,578L510,578L511,515ZM552.205,500L541,510L536,571L548,556L552.205,500ZM435.795,500L447,510L452,571L440,556L435.795,500ZM423.795,489L434,497L437,551L427,537L423.795,489ZM564.205,489L554,497L551,551L561,537L564.205,489ZM412.397,479L421.603,487.87L423.603,530L414.603,518.913L412.397,479ZM575.603,479L566.397,487.87L564.397,530L573.397,518.913L575.603,479ZM586.205,469L577,477L575,515L584,505L586.205,469ZM401.795,469L411,477L413,515L404,505L401.795,469ZM402,429L402,453L450,496L474,496L478,452L434,453L406,429L402,429ZM586,429L586,453L538,496L514,496L510,452L554,453L582,429L586,429ZM477,495L482,445L506,445L511,495L477,495ZM280,448L382,455L382,469L280,448ZM708,448L606,455L606,469L708,448ZM605.593,433.182L606,445L708,448L605.593,433.182ZM570,432L554,448L519,447L517,445L534,431L570,432ZM418,432L434,448L469,447L471,445L454,431L418,432ZM382.407,433.182L382,445L280,448L382.407,433.182ZM577,426L573,430L533,429L516,443L514,441L533,425L577,426ZM411,426L415,430L455,429L472,443L474,441L455,425L411,426ZM528,388.064L528,393C510.876,400.541 503.596,417.083 505,440L497,440C497.565,419.71 498.196,405.194 503.398,397C507.504,390.533 516.791,387.487 528,388.064ZM460,388.064L460,393C477.124,400.541 484.404,417.083 483,440L491,440C490.435,419.71 489.804,405.194 484.602,397C480.496,390.533 471.209,387.487 460,388.064ZM528,406L528,425L522,429C521.398,416.814 523.164,408.742 528,406ZM460,406L460,425L466,429C466.602,416.814 464.836,408.742 460,406ZM530,423.957L530,369L562,337C568.837,299.199 572.455,264.243 573,232L579,228C620.618,238.015 650.741,259.126 678,283C672.843,322.182 663.703,356.421 650,385C628.718,395.354 618.332,410.166 608,425C590.247,419.869 564.655,419 534,419L530,423.957ZM458,423.957L458,369L426,337C419.163,299.199 415.545,264.243 415,232L409,228C367.382,238.015 337.259,259.126 310,283C315.157,322.182 324.297,356.421 338,385C359.282,395.354 369.668,410.166 380,425C397.753,419.869 423.345,419 454,419L458,423.957ZM460,383L460,380L469,380C470.53,380 470.935,378.034 470.964,377C470.991,376.003 470.992,374 469,374L460,374L460,368L528,368L528,374L519,374C517.008,374 517.009,376.003 517.036,377C517.065,378.034 517.47,380 519,380L528,380L528,383L460,383ZM501,380C505.299,380 504.617,378.024 504.627,376.5C504.637,374.929 504.994,372 501,372L487,372C483.006,372 483.363,374.929 483.373,376.5C483.383,378.024 482.701,380 487,380L501,380ZM461,366L443,349C447.674,335.023 461.071,322.897 482,317L482,322L506,322L506,317C526.929,322.897 540.326,335.023 545,349L527,366L461,366ZM564,295C555.051,299.017 544.636,300.745 532,299C530.069,305.669 525.899,311.253 520,316C532.076,321.585 541.976,330.673 548,346L558,336L564,295ZM424,295C432.949,299.017 443.364,300.745 456,299C457.931,305.669 462.101,311.253 468,316C455.924,321.585 446.024,330.673 440,346L430,336L424,295ZM484,319L494,214L492,314L496,314L494,214L504,319L484,319Z" style="fill:white;"/>
    </g>
</svg>
