<?xml version="1.0" encoding="UTF-8" standalone="no"?>
<!DOCTYPE svg PUBLIC "-//W3C//DTD SVG 1.1//EN" "http://www.w3.org/Graphics/SVG/1.1/DTD/svg11.dtd">
<svg width="100%" height="100%" viewBox="0 0 1000 1000" version="1.1" xmlns="http://www.w3.org/2000/svg" xmlns:xlink="http://www.w3.org/1999/xlink" xml:space="preserve" xmlns:serif="http://www.serif.com/" style="fill-rule:evenodd;clip-rule:evenodd;stroke-linejoin:round;stroke-miterlimit:2;">
    <g transform="matrix(5.29412,0,0,5.29412,-14402.9,-6144.12)">
        <path d="M2815.55,1170C2816.46,1170.01 2817.37,1170.03 2818.26,1170.06C2819.72,1170.12 2821.17,1170.21 2822.61,1170.34L2823.15,1170.39L2823.49,1170.42C2827.05,1170.77 2830.55,1171.35 2833.96,1172.13C2834.28,1172.2 2834.61,1172.28 2834.92,1172.35C2836.83,1172.81 2838.72,1173.34 2840.58,1173.92C2841.31,1174.15 2842.03,1174.39 2842.74,1174.64L2843.23,1174.81C2845.31,1175.54 2847.35,1176.35 2849.34,1177.24C2849.55,1177.33 2849.76,1177.42 2849.97,1177.51L2850.44,1177.73C2851.13,1178.05 2851.82,1178.38 2852.51,1178.72C2853.37,1179.14 2854.21,1179.57 2855.05,1180.02L2855.5,1180.27C2855.79,1180.42 2856.07,1180.58 2856.35,1180.73C2857.02,1181.11 2857.68,1181.49 2858.33,1181.88C2860,1182.87 2861.63,1183.91 2863.23,1185.02C2864.25,1185.72 2865.26,1186.45 2866.25,1187.2L2866.66,1187.51C2866.98,1187.76 2867.3,1188.01 2867.62,1188.26L2867.87,1188.46L2868.26,1188.78C2868.5,1188.97 2868.74,1189.16 2868.97,1189.35C2869.48,1189.77 2869.99,1190.2 2870.49,1190.63C2871.04,1191.11 2871.6,1191.6 2872.14,1192.09L2872.52,1192.44C2872.82,1192.72 2873.12,1193 2873.42,1193.28C2873.96,1193.8 2874.5,1194.32 2875.03,1194.85C2875.77,1195.59 2876.5,1196.34 2877.22,1197.11L2877.56,1197.48C2877.91,1197.86 2878.25,1198.24 2878.59,1198.62L2878.93,1199C2879.35,1199.49 2879.77,1199.98 2880.19,1200.48C2880.98,1201.41 2881.74,1202.37 2882.49,1203.34L2882.8,1203.75C2883.11,1204.16 2883.41,1204.57 2883.71,1204.98L2884.01,1205.39C2884.68,1206.31 2885.32,1207.25 2885.95,1208.19L2886.04,1208.34L2886.32,1208.77C2887.53,1210.62 2888.66,1212.52 2889.72,1214.46C2890.21,1215.38 2890.7,1216.3 2891.16,1217.24L2891.39,1217.7C2891.51,1217.96 2891.64,1218.21 2891.76,1218.47C2892.06,1219.11 2892.36,1219.74 2892.64,1220.39C2893.64,1222.62 2894.55,1224.91 2895.36,1227.24C2896.51,1230.59 2897.47,1234.03 2898.2,1237.55C2898.47,1238.8 2898.7,1240.07 2898.91,1241.34C2899.16,1242.89 2899.37,1244.45 2899.53,1246.03C2899.7,1247.6 2899.82,1249.19 2899.9,1250.79L2899.91,1251.17L2899.93,1251.46C2899.98,1252.63 2900,1253.81 2900,1255C2900,1256.37 2899.97,1257.72 2899.9,1259.07C2899.83,1260.66 2899.71,1262.25 2899.55,1263.82C2899.43,1264.98 2899.28,1266.14 2899.12,1267.29C2898.89,1268.83 2898.63,1270.37 2898.32,1271.88C2898.26,1272.16 2898.2,1272.45 2898.15,1272.72L2898.05,1273.16L2897.94,1273.67C2897.36,1276.25 2896.66,1278.78 2895.86,1281.26L2895.7,1281.76C2895.53,1282.25 2895.36,1282.74 2895.19,1283.23L2895.02,1283.72C2894.12,1286.21 2893.11,1288.65 2892,1291.03C2891.87,1291.3 2891.74,1291.57 2891.61,1291.84L2891.39,1292.3C2890.88,1293.33 2890.36,1294.35 2889.81,1295.36C2888.26,1298.23 2886.54,1301.01 2884.68,1303.67C2884.34,1304.15 2884,1304.63 2883.65,1305.11C2882.51,1306.67 2881.31,1308.19 2880.07,1309.66C2879.91,1309.85 2879.76,1310.04 2879.6,1310.23L2879.26,1310.61C2878.82,1311.13 2878.36,1311.64 2877.91,1312.14L2877.56,1312.52C2876.53,1313.64 2875.46,1314.74 2874.37,1315.81L2874,1316.16C2872.78,1317.35 2871.52,1318.49 2870.23,1319.6C2869.85,1319.92 2869.47,1320.24 2869.09,1320.55L2869.05,1320.58C2868.92,1320.69 2868.79,1320.8 2868.66,1320.9L2868.26,1321.23L2867.87,1321.54C2865.38,1323.52 2862.78,1325.37 2860.07,1327.06L2859.93,1327.15L2859.5,1327.42C2859.04,1327.7 2858.58,1327.98 2858.11,1328.26C2857.69,1328.5 2857.27,1328.75 2856.85,1328.99L2856.4,1329.24C2855.55,1329.71 2854.69,1330.18 2853.82,1330.62C2853.54,1330.77 2853.25,1330.91 2852.97,1331.06C2852.18,1331.45 2851.39,1331.83 2850.6,1332.2C2850.39,1332.3 2850.18,1332.39 2849.97,1332.49L2849.5,1332.7C2848.79,1333.01 2848.08,1333.32 2847.37,1333.61L2847.12,1333.71L2846.64,1333.91L2846.15,1334.1C2845.99,1334.16 2845.83,1334.23 2845.67,1334.29L2845.45,1334.37C2844.56,1334.72 2843.65,1335.05 2842.74,1335.36C2842.41,1335.48 2842.09,1335.59 2841.76,1335.7L2841.26,1335.86C2840.6,1336.07 2839.93,1336.28 2839.26,1336.48L2838.76,1336.63L2838.26,1336.77C2837.16,1337.08 2836.06,1337.37 2834.95,1337.64L2834.7,1337.7L2834.19,1337.82C2833.09,1338.08 2831.98,1338.31 2830.87,1338.52L2830.56,1338.58L2830.04,1338.67C2830.04,1338.67 2829.51,1338.76 2829.51,1338.76L2829.11,1338.83C2828.9,1338.87 2828.68,1338.9 2828.46,1338.94C2826.01,1339.33 2823.52,1339.62 2821,1339.79L2820.45,1339.83C2820.28,1339.84 2820.09,1339.85 2819.91,1339.86L2819.42,1339.89C2819.22,1339.9 2819.02,1339.91 2818.83,1339.91L2818.28,1339.94C2817.37,1339.97 2816.46,1339.99 2815.55,1340L2815,1340C2813.9,1340 2812.81,1339.98 2811.72,1339.94L2811.17,1339.91C2810.98,1339.91 2810.78,1339.9 2810.58,1339.89L2810.09,1339.86C2809.91,1339.85 2809.72,1339.84 2809.55,1339.83L2809,1339.79C2806.56,1339.62 2804.15,1339.35 2801.77,1338.97C2801.47,1338.93 2801.18,1338.88 2800.89,1338.83L2800.49,1338.76L2799.96,1338.67L2799.44,1338.58L2799.13,1338.52C2798.02,1338.31 2796.91,1338.08 2795.81,1337.82L2795.3,1337.7L2794.97,1337.62C2793.88,1337.36 2792.81,1337.08 2791.74,1336.77L2791.24,1336.63L2790.87,1336.52C2790.15,1336.31 2789.44,1336.09 2788.74,1335.86L2788.24,1335.7C2788,1335.62 2787.76,1335.54 2787.53,1335.45C2786.62,1335.14 2785.71,1334.82 2784.81,1334.48L2784.33,1334.29C2784.14,1334.22 2783.96,1334.15 2783.77,1334.07L2783.36,1333.91L2782.88,1333.71L2782.63,1333.61C2781.92,1333.32 2781.21,1333.01 2780.5,1332.7L2780.03,1332.49C2779.88,1332.42 2779.72,1332.35 2779.56,1332.27L2779.1,1332.06C2778.45,1331.76 2777.82,1331.45 2777.19,1331.13L2776.78,1330.93C2776.62,1330.85 2776.47,1330.77 2776.32,1330.69L2776.18,1330.62C2775.31,1330.18 2774.45,1329.71 2773.6,1329.24L2773.15,1328.99C2772.73,1328.75 2772.31,1328.5 2771.89,1328.26C2771.38,1327.95 2770.87,1327.64 2770.36,1327.33L2770.07,1327.15L2769.93,1327.06C2767.28,1325.4 2764.74,1323.6 2762.3,1321.67C2762.04,1321.47 2761.79,1321.27 2761.53,1321.06C2761.32,1320.89 2761.12,1320.72 2760.91,1320.55C2760.45,1320.17 2759.99,1319.78 2759.53,1319.39C2758.33,1318.35 2757.15,1317.27 2756,1316.16L2755.63,1315.81C2754.54,1314.74 2753.47,1313.64 2752.44,1312.52L2752.09,1312.14C2751.6,1311.6 2751.11,1311.05 2750.64,1310.5C2750.43,1310.25 2750.22,1310.01 2750.01,1309.76C2748.83,1308.36 2747.68,1306.91 2746.59,1305.43L2746.29,1305.02C2745.96,1304.57 2745.64,1304.12 2745.32,1303.67C2743.49,1301.05 2741.8,1298.33 2740.26,1295.5L2740.02,1295.05C2739.53,1294.14 2739.07,1293.23 2738.61,1292.3L2738.39,1291.84C2738.26,1291.57 2738.13,1291.3 2738,1291.03C2736.89,1288.65 2735.88,1286.21 2734.98,1283.72L2734.81,1283.23C2734.64,1282.74 2734.47,1282.25 2734.3,1281.76L2734.14,1281.26C2733.33,1278.78 2732.64,1276.25 2732.06,1273.67L2731.95,1273.16L2731.85,1272.72C2731.79,1272.44 2731.74,1272.16 2731.68,1271.88C2731.37,1270.36 2731.11,1268.83 2730.88,1267.29C2730.71,1266.07 2730.55,1264.84 2730.43,1263.6C2730.36,1262.89 2730.3,1262.17 2730.24,1261.45L2730.21,1261C2730.2,1260.82 2730.18,1260.64 2730.17,1260.45L2730.16,1260.27C2730.13,1259.74 2730.1,1259.22 2730.08,1258.69C2730.03,1257.47 2730,1256.24 2730,1255C2730,1254.05 2730.02,1253.1 2730.05,1252.15L2730.06,1251.72C2730.07,1251.54 2730.08,1251.35 2730.09,1251.17L2730.1,1250.92C2730.12,1250.46 2730.14,1250 2730.17,1249.54C2730.22,1248.88 2730.26,1248.23 2730.32,1247.59C2730.36,1247.16 2730.4,1246.73 2730.44,1246.31L2730.49,1245.78C2730.66,1244.29 2730.86,1242.81 2731.1,1241.34C2731.3,1240.07 2731.53,1238.8 2731.8,1237.55C2732.53,1234.03 2733.49,1230.59 2734.64,1227.24C2735.45,1224.91 2736.36,1222.62 2737.36,1220.39C2737.64,1219.75 2737.94,1219.11 2738.24,1218.47C2738.36,1218.21 2738.49,1217.96 2738.61,1217.7L2738.84,1217.24C2739.31,1216.3 2739.79,1215.38 2740.28,1214.46C2741.34,1212.52 2742.47,1210.62 2743.68,1208.77L2743.96,1208.34L2744.05,1208.19C2744.68,1207.25 2745.33,1206.31 2745.99,1205.39L2746.29,1204.98C2746.59,1204.57 2746.89,1204.15 2747.2,1203.75L2747.51,1203.34C2748.26,1202.37 2749.02,1201.42 2749.81,1200.48C2750.23,1199.98 2750.65,1199.49 2751.07,1199L2751.41,1198.62C2751.75,1198.24 2752.09,1197.86 2752.44,1197.48L2752.78,1197.11C2753.59,1196.24 2754.42,1195.39 2755.27,1194.55C2755.7,1194.12 2756.14,1193.7 2756.58,1193.28C2756.88,1193 2757.18,1192.72 2757.48,1192.44L2757.86,1192.09C2758.36,1191.64 2758.87,1191.18 2759.39,1190.74L2759.77,1190.4C2760.23,1190.02 2760.69,1189.63 2761.15,1189.25C2761.35,1189.09 2761.54,1188.93 2761.74,1188.78L2762.14,1188.46L2762.26,1188.36C2762.62,1188.08 2762.98,1187.79 2763.34,1187.51L2763.75,1187.2C2764.71,1186.48 2765.68,1185.77 2766.67,1185.09C2768.34,1183.93 2770.06,1182.83 2771.82,1181.79C2772.42,1181.43 2773.03,1181.08 2773.65,1180.73C2773.93,1180.58 2774.21,1180.42 2774.5,1180.27L2774.95,1180.02C2775.86,1179.54 2776.77,1179.07 2777.7,1178.61C2778.32,1178.31 2778.94,1178.02 2779.56,1177.73L2780.03,1177.51C2780.19,1177.44 2780.35,1177.37 2780.5,1177.3L2780.98,1177.09C2782.87,1176.26 2784.8,1175.5 2786.77,1174.81L2787.26,1174.64C2788.08,1174.35 2788.9,1174.08 2789.74,1173.82C2791.52,1173.27 2793.33,1172.77 2795.16,1172.33C2795.45,1172.26 2795.74,1172.19 2796.04,1172.13C2799.46,1171.35 2802.95,1170.77 2806.51,1170.42L2806.85,1170.39L2807.39,1170.34C2808.83,1170.21 2810.28,1170.12 2811.74,1170.06C2812.82,1170.02 2813.91,1170 2815,1170L2815.55,1170ZM2814.64,1227.16L2814.28,1227.17C2813.49,1227.19 2812.7,1227.24 2811.93,1227.33L2811.8,1227.34L2811.46,1227.38L2811.11,1227.43L2810.76,1227.48C2810.26,1227.56 2809.76,1227.65 2809.27,1227.75L2809.05,1227.8C2808.49,1227.92 2807.93,1228.06 2807.38,1228.22L2807.05,1228.31C2806.94,1228.35 2806.83,1228.38 2806.72,1228.41L2806.42,1228.51C2806.3,1228.55 2806.19,1228.58 2806.08,1228.62C2803.7,1229.43 2801.47,1230.54 2799.44,1231.92C2799.14,1232.12 2798.84,1232.33 2798.54,1232.55C2798.14,1232.84 2797.75,1233.15 2797.36,1233.46C2797.24,1233.56 2797.12,1233.67 2797,1233.77C2792.94,1237.21 2789.88,1241.8 2788.32,1247.03C2788.24,1247.3 2788.16,1247.57 2788.09,1247.85C2787.48,1250.13 2787.16,1252.53 2787.16,1255C2787.16,1255.81 2787.19,1256.61 2787.26,1257.4C2787.31,1257.92 2787.37,1258.44 2787.44,1258.95C2787.64,1260.39 2787.96,1261.79 2788.37,1263.15C2788.58,1263.83 2788.82,1264.51 2789.08,1265.17C2789.74,1266.85 2790.55,1268.44 2791.51,1269.94L2791.55,1270L2791.62,1270.11C2792.98,1272.21 2794.61,1274.11 2796.47,1275.77C2796.94,1276.19 2797.42,1276.59 2797.91,1276.97C2798.26,1277.24 2798.61,1277.5 2798.96,1277.75C2800.12,1278.57 2801.35,1279.31 2802.63,1279.94L2802.93,1280.09C2803.44,1280.34 2803.96,1280.57 2804.48,1280.78L2804.8,1280.91C2805.74,1281.28 2806.72,1281.61 2807.71,1281.88L2808.05,1281.96C2808.2,1282 2808.35,1282.04 2808.5,1282.08C2808.95,1282.18 2809.4,1282.28 2809.85,1282.36C2810.07,1282.4 2810.28,1282.44 2810.5,1282.48C2811.21,1282.59 2811.93,1282.68 2812.66,1282.74C2813,1282.77 2813.35,1282.8 2813.7,1282.81L2813.92,1282.82L2814.22,1282.83C2814.47,1282.84 2814.74,1282.84 2815,1282.84C2815.26,1282.84 2815.53,1282.84 2815.78,1282.83L2816.08,1282.82L2816.3,1282.81C2816.65,1282.79 2817,1282.77 2817.34,1282.74C2818.01,1282.69 2818.68,1282.61 2819.33,1282.51L2819.58,1282.46C2819.7,1282.44 2819.81,1282.42 2819.93,1282.41L2820.15,1282.36C2820.64,1282.27 2821.14,1282.16 2821.62,1282.05C2821.73,1282.02 2821.84,1281.99 2821.95,1281.96L2822.29,1281.88C2823.28,1281.61 2824.26,1281.28 2825.2,1280.91L2825.52,1280.78C2826.04,1280.57 2826.56,1280.34 2827.07,1280.09L2827.37,1279.94C2828.65,1279.31 2829.88,1278.58 2831.04,1277.75C2831.39,1277.5 2831.74,1277.24 2832.09,1276.97C2832.59,1276.58 2833.08,1276.17 2833.56,1275.74C2835.43,1274.07 2837.07,1272.15 2838.43,1270.04L2838.45,1270L2838.49,1269.94C2839.45,1268.44 2840.26,1266.85 2840.92,1265.17C2841.18,1264.51 2841.42,1263.84 2841.63,1263.15C2842.04,1261.79 2842.36,1260.39 2842.56,1258.95C2842.64,1258.44 2842.69,1257.92 2842.74,1257.4C2842.81,1256.61 2842.84,1255.81 2842.84,1255C2842.84,1252.53 2842.52,1250.13 2841.91,1247.85C2841.84,1247.57 2841.76,1247.3 2841.68,1247.03C2840.12,1241.8 2837.05,1237.2 2832.99,1233.76C2832.9,1233.68 2832.8,1233.6 2832.7,1233.52L2832.45,1233.31C2832.15,1233.07 2831.85,1232.84 2831.54,1232.61C2831.31,1232.44 2831.07,1232.27 2830.84,1232.11L2830.56,1231.92C2828.53,1230.54 2826.3,1229.43 2823.93,1228.62C2823.81,1228.58 2823.7,1228.55 2823.58,1228.51L2823.28,1228.41C2823.17,1228.38 2823.06,1228.35 2822.95,1228.31L2822.67,1228.23C2822.15,1228.08 2821.62,1227.95 2821.08,1227.83L2820.95,1227.8L2820.73,1227.75C2820.23,1227.65 2819.74,1227.56 2819.24,1227.48L2818.89,1227.43L2818.54,1227.38L2818.2,1227.34L2818.07,1227.33C2817.3,1227.24 2816.51,1227.19 2815.72,1227.17C2815.72,1227.17 2815.51,1227.16 2815.51,1227.16C2815.34,1227.16 2815.17,1227.16 2815,1227.16L2814.64,1227.16ZM2815.27,1234.12L2815.34,1234.12C2815.49,1234.12 2815.65,1234.13 2815.81,1234.13L2816.07,1234.15C2816.19,1234.15 2816.3,1234.16 2816.41,1234.17L2816.61,1234.18L2816.87,1234.2L2817.13,1234.23C2817.22,1234.24 2817.31,1234.25 2817.4,1234.26L2817.63,1234.28C2820.3,1234.62 2822.82,1235.46 2825.08,1236.71L2825.17,1236.76L2825.21,1236.78C2825.78,1237.11 2826.34,1237.46 2826.88,1237.83L2827.08,1237.97C2827.19,1238.05 2827.29,1238.12 2827.39,1238.19C2830.41,1240.42 2832.8,1243.44 2834.27,1246.95C2834.37,1247.2 2834.47,1247.45 2834.57,1247.71C2835.42,1249.98 2835.88,1252.44 2835.88,1255C2835.88,1262.05 2832.38,1268.29 2827.02,1272.07C2826.7,1272.3 2826.37,1272.52 2826.04,1272.72L2825.82,1272.86C2823.97,1273.98 2821.93,1274.83 2819.77,1275.33C2819.58,1275.38 2819.39,1275.42 2819.21,1275.46L2818.95,1275.51C2818.87,1275.52 2818.78,1275.54 2818.69,1275.55L2818.44,1275.6L2818.4,1275.61C2817.29,1275.79 2816.16,1275.88 2815,1275.88C2813.88,1275.88 2812.77,1275.79 2811.7,1275.62L2811.56,1275.6L2811.31,1275.55C2811.22,1275.54 2811.14,1275.52 2811.05,1275.51L2810.79,1275.46C2810.61,1275.42 2810.42,1275.38 2810.23,1275.33C2808.07,1274.83 2806.03,1273.98 2804.18,1272.86L2803.96,1272.72C2803.65,1272.53 2803.35,1272.33 2803.05,1272.12C2797.65,1268.35 2794.12,1262.08 2794.12,1255C2794.12,1252.44 2794.58,1249.98 2795.43,1247.71C2795.53,1247.46 2795.62,1247.2 2795.73,1246.95C2797.22,1243.4 2799.65,1240.36 2802.71,1238.12C2802.78,1238.07 2802.85,1238.02 2802.92,1237.97L2803.12,1237.83C2803.66,1237.46 2804.22,1237.11 2804.79,1236.78L2804.83,1236.76L2805.05,1236.64C2807.28,1235.43 2809.75,1234.61 2812.37,1234.28L2812.6,1234.26C2812.69,1234.25 2812.78,1234.24 2812.87,1234.23L2813.13,1234.2L2813.39,1234.18L2813.51,1234.17C2813.65,1234.16 2813.79,1234.15 2813.93,1234.15L2814.19,1234.13C2814.3,1234.13 2814.4,1234.13 2814.5,1234.13L2814.73,1234.12L2815,1234.12L2815.27,1234.12ZM2890,1255L2875,1247.26L2875,1262.74L2890,1255ZM2875,1255L2860,1247.26L2860,1262.74L2875,1255ZM2740,1255L2755,1247.26L2755,1262.74L2740,1255ZM2755,1255L2770,1247.26L2770,1262.74L2755,1255Z" style="fill:white;"/>
    </g>
</svg>
