<?xml version="1.0" encoding="UTF-8" standalone="no"?>
<!DOCTYPE svg PUBLIC "-//W3C//DTD SVG 1.1//EN" "http://www.w3.org/Graphics/SVG/1.1/DTD/svg11.dtd">
<svg width="100%" height="100%" viewBox="0 0 1000 1000" version="1.1" xmlns="http://www.w3.org/2000/svg" xmlns:xlink="http://www.w3.org/1999/xlink" xml:space="preserve" xmlns:serif="http://www.serif.com/" style="fill-rule:evenodd;clip-rule:evenodd;stroke-linejoin:round;stroke-miterlimit:2;">
    <g transform="matrix(3.41258,0,0,3.41258,-1184.11,-1355.41)">
        <path d="M526,675C504.333,675.761 482.667,675.737 461,675C467.307,673.596 473.389,672 479,670C490.911,670.163 502.597,669.868 514,669C517.972,671 521.977,673 526,675ZM470,669C461.038,670.338 456.767,672.46 455,675C443.907,669.594 432.898,665.468 422,663C415.852,661.78 409.871,658.928 404,655C415.925,650.144 424.287,651.098 429,658C428.883,658.223 432.178,659.703 438,659.754C448.301,659.846 454.369,664.138 457,665.512C460.977,667.589 470,669 470,669ZM530,672.505C547.289,673.734 564.596,674.286 582,671C575.796,669.34 570.5,667.172 567,664C555.856,668.465 543.104,670.726 530,672.505ZM439.5,672C428.648,671.59 418.428,670.329 409,669.491C395.889,668.326 385.13,659.252 376,648C383.004,642.525 392.235,642.984 402,645C407.184,646.07 412.62,646.804 418,648C412.169,649.533 406.432,651.333 401,654C394.559,659.155 407.521,668.727 428,669.514C433.944,669.742 437.809,669.801 439.5,672ZM567,643.463L567,643.463C567,643.463 567,643.463 567,643.463C568.063,646.241 570.037,647.742 572.87,648C577.106,648.386 575.415,656.448 573,663C571.053,662.847 569.059,662.24 567,661C554.41,664.593 542.578,667.512 531.794,669.501C530.41,670.014 529.401,670.213 529,670C529.923,669.841 530.854,669.675 531.794,669.501C537.552,667.371 549.814,659.825 552,653.938C553.026,651.176 557.667,649.012 561,646.969C564.248,644.978 567.021,643.535 567,643.463ZM611,652C609.012,653.904 607.141,655.885 607,659C599.216,662.645 591.297,666.19 582,668.732C579.182,668.123 576.864,667.203 575,666C574.707,663.262 576.805,661.196 582,660C587.117,657.885 592.416,656.426 598,656C600.972,654.186 603.614,652.171 606,650C607.29,650.802 608.865,651.501 611,652ZM496,667C479.73,666.296 464.434,658.809 447.5,658.712C434.637,658.638 425.946,653.415 419,645C425.002,643.802 427.528,641.942 427,639.5C435.242,643.857 448.822,654.764 462.5,652.643C469.607,651.541 476.438,655.393 483,661.004C486.703,664.17 491.812,664.943 496,667ZM502.459,664C514.958,664.3 527.945,663.526 541.5,661.5C542.038,658.708 542.419,655.939 540.5,653.5C538.193,653.569 535.864,653.175 533.5,652C529.265,653.329 525.103,654.317 521,655C515.163,658.279 508.943,661.246 502.459,664ZM447,627C450.284,588.06 455.7,553.737 466,530C456.351,524.605 455.703,514.947 462,502C464.708,496.76 468.234,492.863 473,491C472.725,486.168 472.44,481.116 472,473C470.358,464.692 472.834,455.333 483,454C483.264,451.045 483.196,448.033 483,445C482.436,444.269 483.222,443.135 482,442C481.161,441.22 479.761,439.816 479.803,438C479.87,435.125 477.043,431.871 475,426C470.156,420.666 489.382,406.438 500,414C504.861,414.448 508.373,426.862 509.5,434C510.939,443.118 518.136,452.071 519,454C531.632,450.583 536.625,465.19 532,474C531.954,482.766 531.557,491.411 531,500C533.573,500.952 536.217,503.479 539,509C538.728,510.051 536.839,513.549 533,520C547.986,544.828 556.207,578.433 559.823,618.014L560,618C562.175,621.847 564.13,625.842 565.841,630C561.001,630.733 556.085,631.181 551,631C546.382,634.181 541.695,637.106 537,640C534.62,642.068 532.652,644.784 531,648C527.597,649.813 523.884,651.063 520,652C512.924,656.008 505.553,659.625 498,663C493.269,661.349 486.631,661.061 483,656.442C478.535,650.763 471.871,648.613 465,649.592C459.642,650.356 454.008,650.441 449,649C448.921,647.605 443,645 443,645C447.988,645.636 451.251,633.457 447,627ZM578,658C584.03,656.207 590.031,654.862 596,654C599.283,652.085 600.898,649.451 600.686,646C600.553,643.836 601.791,642.172 601.5,640.5C598.175,639.568 595.629,637.963 593.5,636C590.947,635.99 588.785,636.898 586.909,638.5C585.627,639.595 583.955,640.135 582.5,641C580.784,643.534 578.548,645.452 576,647C577.586,649.054 578.306,652.89 578,658ZM547,653C553.431,648.107 560.038,643.63 567,640C568.82,641.779 570.791,643.464 573,645C575.596,642.812 577.043,639.885 577,636C575.276,634.896 573.759,633.67 573,632C565.667,633.802 558.333,634.168 551,634C546.885,637.713 542.534,640.822 538,643.463C536.719,644.638 535.694,646.12 535,648C539.553,651.699 543.428,653.322 547,653ZM420,641.426C416.122,641.789 413.122,642.647 411,644C412.46,645.078 414.364,645.469 416.5,645.5C416.623,645.055 416.789,644.721 417,644.5C418.438,643.475 419.393,642.45 420,641.426ZM442,630C444.43,630.543 445.791,632.192 447,634C446.129,639.707 443.759,642.262 441,644C437.963,642.527 435.319,640.848 433,639C435.36,635.04 438.548,632.321 442,630ZM437,629C436.752,629.864 432.466,630.691 426.586,637.493C425.712,638.504 424.506,639.324 423,640C420.723,639.64 418.385,639.666 416,640C416,640 413.901,636.945 412.258,636.725C410.248,636.457 407.417,633.774 408,633C406.536,634.353 405.233,636.503 404,639C404.214,633.289 403.145,626.789 413,627C413,627 416.837,623.433 419,624C421.23,624.584 425.195,622.341 425,621C426.713,624.402 429.134,626.217 432,626.775C433.896,627.144 435.309,628.549 437,629Z" style="fill:white;"/>
    </g>
</svg>
