<?xml version="1.0" encoding="UTF-8" standalone="no"?>
<!DOCTYPE svg PUBLIC "-//W3C//DTD SVG 1.1//EN" "http://www.w3.org/Graphics/SVG/1.1/DTD/svg11.dtd">
<svg width="100%" height="100%" viewBox="0 0 1000 1000" version="1.1" xmlns="http://www.w3.org/2000/svg" xmlns:xlink="http://www.w3.org/1999/xlink" xml:space="preserve" xmlns:serif="http://www.serif.com/" style="fill-rule:evenodd;clip-rule:evenodd;stroke-linejoin:round;stroke-miterlimit:2;">
    <g transform="matrix(1.40406,0,0,1.40625,-216.771,-283.151)">
        <path d="M510.5,612.177C523.608,609.211 534.341,602.701 545,596.082C550.116,592.816 556.483,590.359 563,588C562.028,586.086 564.668,582.668 570,578.129C578.606,570.804 595.929,561.773 613,549C620.302,545.514 627.055,545.8 632,545.335C634.1,545.138 635.62,543.391 637,542C633.187,540.965 632.39,539.482 627,538.499C623.847,537.924 621.731,535.665 620,534C633.17,520.235 650.742,506.221 672,492C679.133,491.809 685.394,489.711 691,486.181C685.638,474.074 684.746,460.844 686,447.074C694.618,454.414 701.435,462.033 706,470C706.938,471.638 709.548,475.356 713,465.742C713.499,464.351 715.104,463.696 716,462.552C724.884,451.214 716.817,432.388 726,420C728.612,424.899 730.346,429.911 731.493,435C734.068,446.423 728.311,461.419 733.594,470C763.279,433.546 794.191,384.044 826,325C828.423,332.183 830.114,340.479 831,350C809.48,390.631 790.272,425.893 761.445,454C752.218,462.996 742.687,476.877 741,485C743.114,487.25 744.887,489.982 747.584,491C758.447,495.101 758.104,497.141 761,500C752.086,498.796 743.629,498.292 737.924,502C737.319,505.494 737.559,508.801 738.288,512C738.91,514.729 746.763,521.668 741,520C736.358,517.066 731.492,514.393 726,512.45C718.565,525.208 723.941,537.74 715.905,550C702.354,570.673 678.572,590.744 660,610.862C648.394,623.434 635.068,635.835 619.373,648C618.289,646.193 613.018,650.823 605.038,658.356C614.823,662.835 624.57,667.301 634.243,671.857C647.929,678.304 685.302,683.938 703,698C701.24,700.667 697.957,703.333 693,706C702,706.431 711,705.686 720,704C724.267,707.911 729.408,712.434 735.448,711.897C744.952,711.052 745.692,714.144 751,715C750.848,718.379 753.102,720.1 758,720C766.776,732.651 779.052,745.927 792.963,753.789C811.932,764.511 816.709,774.449 831,784C809.248,783.362 798.093,788.208 785,788.658C762.619,789.426 746.109,787.304 732,784C727.684,776.443 721.931,770.214 714,766C713.976,768.987 714.241,771.989 714.674,775C715.247,778.989 717.835,783.467 717,787C700.008,787.17 684.152,784.243 672,783.582C661.544,783.013 646.253,776.06 629,769C624.815,762.028 620.669,755.548 617,755C614.963,756.793 617.169,759.559 616.762,761C616.1,763.343 614.676,764.386 613,765C595.429,762.814 580.674,757.087 567,750C565.618,748.501 561.147,742.687 559.579,735C559.396,734.1 557.964,734.143 557,734C554.48,733.848 554.383,741.756 550,741C535.891,737.608 522.862,731.669 510.5,724.151C498.138,731.669 485.109,737.608 471,741C466.617,741.756 466.52,733.848 464,734C463.036,734.143 461.604,734.1 461.421,735C459.853,742.687 455.382,748.501 454,750C440.326,757.087 425.571,762.814 408,765C406.324,764.386 404.9,763.343 404.238,761C403.831,759.559 406.037,756.793 404,755C400.331,755.548 396.185,762.028 392,769C374.747,776.06 359.456,783.013 349,783.582C336.848,784.243 320.992,787.17 304,787C303.165,783.467 305.753,778.989 306.326,775C306.759,771.989 307.024,768.987 307,766C299.069,770.214 293.316,776.443 289,784C274.891,787.304 258.381,789.426 236,788.658C222.907,788.208 211.752,783.362 190,784C204.291,774.449 209.068,764.511 228.037,753.789C241.948,745.927 254.224,732.651 263,720C267.898,720.1 270.152,718.379 270,715C275.308,714.144 276.048,711.052 285.552,711.897C291.592,712.434 296.733,707.911 301,704C310,705.686 319,706.431 328,706C323.043,703.333 319.76,700.667 318,698C335.698,683.938 373.071,678.304 386.757,671.857C396.43,667.301 406.177,662.835 415.962,658.356C407.982,650.823 402.711,646.193 401.627,648C385.932,635.835 372.606,623.434 361,610.862C342.428,590.744 318.646,570.673 305.095,550C297.059,537.74 302.435,525.208 295,512.45C289.508,514.393 284.642,517.066 280,520C274.237,521.668 282.09,514.729 282.712,512C283.441,508.801 283.681,505.494 283.076,502C277.371,498.292 268.914,498.796 260,500C262.896,497.141 262.553,495.101 273.416,491C276.113,489.982 277.886,487.25 280,485C278.313,476.877 268.782,462.996 259.555,454C230.728,425.893 211.52,390.631 190,350C190.886,340.479 192.577,332.183 195,325C226.809,384.044 257.721,433.546 287.406,470C292.689,461.419 286.932,446.423 289.507,435C290.654,429.911 292.388,424.899 295,420C304.183,432.388 296.116,451.214 305,462.552C305.896,463.696 307.501,464.351 308,465.742C311.452,475.356 314.062,471.638 315,470C319.565,462.033 326.382,454.414 335,447.074C336.254,460.844 335.362,474.074 330,486.181C335.606,489.711 341.867,491.809 349,492C370.258,506.221 387.83,520.235 401,534C399.269,535.665 397.153,537.924 394,538.499C388.61,539.482 387.813,540.965 384,542C385.38,543.391 386.9,545.138 389,545.335C393.945,545.8 400.698,545.514 408,549C425.071,561.773 442.394,570.804 451,578.129C456.332,582.668 458.972,586.086 458,588C464.517,590.359 470.884,592.816 476,596.082C486.659,602.701 497.392,609.211 510.5,612.177Z" style="fill:white;"/>
    </g>
</svg>
