<?xml version="1.0" encoding="UTF-8" standalone="no"?>
<!DOCTYPE svg PUBLIC "-//W3C//DTD SVG 1.1//EN" "http://www.w3.org/Graphics/SVG/1.1/DTD/svg11.dtd">
<svg width="100%" height="100%" viewBox="0 0 1000 1000" version="1.1" xmlns="http://www.w3.org/2000/svg" xmlns:xlink="http://www.w3.org/1999/xlink" xml:space="preserve" xmlns:serif="http://www.serif.com/" style="fill-rule:evenodd;clip-rule:evenodd;stroke-linejoin:round;stroke-miterlimit:2;">
    <g transform="matrix(2.92841,0,0,2.92841,-1012.57,-622.558)">
        <path d="M528,309C530.165,304.514 531.899,299.871 533,295L537,294C537.872,298.401 537.911,303.374 537,309C542.46,304.363 545.238,298.604 546,292L550,292C547.608,272.179 537.922,254.632 526.083,243C514.658,231.774 498.862,227.294 485,230.874C483.465,231.27 481.759,230.581 480,230.803C472.501,231.745 463.484,237.427 455,251.562C451.902,256.724 450.222,264.517 449.443,275C448.915,282.123 451.141,292.264 457,306L460,300L467,313C462.588,313.711 458.974,315.012 456.176,317C451.862,320.064 449.267,325.087 448.783,332C448.632,334.158 448.255,338.257 452,343.255C454.431,346.5 460.079,351.659 462.68,359C463.331,360.838 464.5,364.231 465.185,369C466.836,380.479 467.567,399.064 467,416C454.359,436.895 445.571,459.854 439,484C452.212,489.54 469.356,491.81 489,492L489,502L481,502L481,537L529,537L529,502L523,502L523,493C541.813,491.859 560.62,490.666 576,463C584.811,458.248 593.596,454.229 594,449C595.068,435.187 566.858,413.897 547,394C543.005,381.882 538.806,369.835 534,358C534.355,350.166 533.604,344.678 532,341C538.291,324.737 538.077,313.249 528,309ZM491.7,525.399C494.073,525.399 496,527.326 496,529.7C496,532.073 494.073,534 491.7,534C489.326,534 487.399,532.073 487.399,529.7C487.399,527.326 489.326,525.399 491.7,525.399ZM491.7,510.7C494.073,510.7 496,512.627 496,515C496,517.373 494.073,519.3 491.7,519.3C489.326,519.3 487.399,517.373 487.399,515C487.399,512.627 489.326,510.7 491.7,510.7ZM505,383.439C511.812,372.792 516.929,365.488 513.437,351C512.114,345.512 508.644,341.916 501,341.241C498.744,341.042 495.802,342.103 492,345C484.838,339.848 479.442,338.951 478,340C472.984,343.649 474.644,346.563 476.206,353C479.117,364.992 489.477,375.18 505,383.439ZM477.5,306.5C477.464,310.621 476.732,312.952 475.5,314C474.275,313.953 472.71,313.557 470.5,312.5C471.202,309.298 472.003,306.274 473.5,304.5C474.857,305.118 476.195,305.775 477.5,306.5ZM505,303.5L505,308.5C503.601,309.415 501.892,310.621 500,312C499.912,309.852 499.478,307.548 498.5,305C502.275,304.754 504.492,304.262 505,303.5ZM523,299C522.747,301.803 521.669,304.272 520,306.5C522.228,306.41 523.865,306.942 525,308C525.132,304.819 524.838,301.734 523,299ZM515,301C514.025,301.04 512.864,301.526 511.5,302.5C511.538,304.497 511.531,306.298 511.5,308C512.945,307.808 514.153,307.452 514.5,306.5C514.59,304.741 514.721,302.943 515,301Z" style="fill:white;"/>
    </g>
</svg>
