<?xml version="1.0" encoding="UTF-8" standalone="no"?>
<!DOCTYPE svg PUBLIC "-//W3C//DTD SVG 1.1//EN" "http://www.w3.org/Graphics/SVG/1.1/DTD/svg11.dtd">
<svg width="100%" height="100%" viewBox="0 0 1000 1000" version="1.1" xmlns="http://www.w3.org/2000/svg" xmlns:xlink="http://www.w3.org/1999/xlink" xml:space="preserve" xmlns:serif="http://www.serif.com/" style="fill-rule:evenodd;clip-rule:evenodd;stroke-linejoin:round;stroke-miterlimit:2;">
    <g transform="matrix(1.0083,0,0,1.0083,-5.27038,-45.7889)">
        <path d="M451.782,560.039C345.179,537.774 265,443.176 265,330C265,200.3 370.3,95 500,95C629.7,95 735,200.3 735,330C735,442.528 655.738,536.689 550.043,559.651C566.698,576.034 582.755,600.71 595.766,629.335C643.437,689.432 689.285,773.829 735,860C757.885,851.927 778.083,892.964 799,941C808.815,935.458 813.865,955.025 811.736,960C809.686,964.788 801.689,974.406 790,970C795.954,978.391 787.96,982.803 785,984.418C781.394,986.385 770.857,988.483 770,980C766.645,988.885 754.118,989.115 751,985.047C749.185,982.68 742.65,979.236 750,970C723.396,922.381 711.428,884.952 726,866C689.358,800.345 652.59,735.244 613.863,678.746C641.311,775.479 627.742,887.004 502.867,888.663L502.867,888.682L502.218,888.68L502.218,888.682C501.842,888.682 501.468,888.681 501.109,888.679C500.75,888.681 500.375,888.682 500,888.682L500,888.68L499.35,888.682L499.35,888.663C374.476,887.004 360.907,775.479 388.355,678.746C349.628,735.244 312.86,800.345 276.218,866C290.79,884.952 278.822,922.381 252.218,970C259.568,979.236 253.032,982.68 251.218,985.047C248.1,989.115 235.572,988.885 232.218,980C231.361,988.483 220.824,986.385 217.218,984.418C214.258,982.803 206.264,978.391 212.218,970C200.529,974.406 192.531,964.788 190.482,960C188.352,955.025 193.403,935.458 203.218,941C224.135,892.964 244.333,851.927 267.218,860C312.933,773.829 358.781,689.432 406.451,629.335C419.361,600.935 435.268,576.42 451.782,560.039ZM499.893,759.998C499.739,759.994 499.587,759.979 499.438,759.954L499.069,759.872C498.465,759.701 497.906,759.364 497.393,758.885C497.015,758.532 496.662,758.101 496.334,757.605L496.094,757.223L495.887,756.859C495.457,756.071 495.078,755.16 494.749,754.155L494.647,753.834C493.907,751.452 493.44,748.574 493.245,745.566C493.175,744.489 493.14,743.396 493.14,742.302C493.14,741.929 493.144,741.555 493.152,741.181C493.179,739.956 493.25,738.738 493.365,737.551C493.673,734.363 494.298,731.397 495.241,729.111L495.344,728.866C495.461,728.594 495.583,728.333 495.71,728.082C495.812,727.881 495.917,727.687 496.024,727.501C496.141,727.3 496.26,727.107 496.383,726.925C496.702,726.452 497.045,726.041 497.411,725.702C497.654,725.477 497.908,725.284 498.172,725.125C498.734,724.786 499.343,724.604 500,724.604L500.107,724.606C500.722,724.624 501.296,724.805 501.828,725.125C502.092,725.284 502.345,725.477 502.589,725.702C502.955,726.041 503.297,726.452 503.617,726.925C503.753,727.127 503.885,727.341 504.013,727.566C504.107,727.732 504.2,727.904 504.29,728.082C504.417,728.333 504.539,728.594 504.656,728.866L504.759,729.111C505.702,731.397 506.327,734.363 506.635,737.551C506.75,738.738 506.821,739.957 506.848,741.181C506.856,741.555 506.86,741.929 506.86,742.302C506.86,743.396 506.825,744.489 506.755,745.566C506.56,748.573 506.093,751.451 505.353,753.834L505.251,754.155C504.922,755.161 504.542,756.072 504.113,756.859L503.906,757.223L503.644,757.638C503.334,758.103 503.002,758.509 502.647,758.847C502.124,759.346 501.552,759.697 500.931,759.872L500.562,759.954C500.378,759.985 500.191,760 500,760L499.893,759.998ZM467.829,717.056C463.606,715.299 458.096,722.591 454.697,730.761C451.298,738.931 450.01,747.979 454.232,749.736C462.678,753.25 476.274,720.569 467.829,717.056ZM532.171,717.056C536.394,715.299 541.904,722.591 545.303,730.761C548.702,738.931 549.99,747.979 545.768,749.736C537.322,753.25 523.726,720.569 532.171,717.056ZM500,646.939C522.279,646.316 543.937,660.854 565,690C543.983,712.673 522.653,724.404 500.992,724.601L499.008,724.601C477.347,724.404 456.017,712.673 435,690C456.063,660.854 477.721,646.316 500,646.939ZM500,412.534C512.56,412.483 525.133,413.692 537.727,416.187C541.621,403.507 546.254,391.47 551.546,380C549.881,392.438 547.361,404.951 544.035,417.544C560.685,421.407 577.38,427.527 594.112,435.958C601.425,425.972 609.785,416.53 619.417,407.789C614.186,419.276 607.831,429.692 600.613,439.35C611.193,445.055 621.79,451.689 632.404,459.264L633.431,460C621.189,454.093 608.903,448.941 596.566,444.577C589.847,452.965 582.48,460.792 574.653,468.281C579.08,459.309 584.054,450.597 589.702,442.232C573.351,436.845 556.916,432.854 540.389,430.337C536.547,442.907 531.925,455.553 526.569,468.281C528.321,454.702 530.818,441.772 533.993,429.437C523.355,428.065 512.682,427.306 501.97,427.184C501.313,427.176 500.657,427.171 500,427.169C499.343,427.171 498.687,427.176 498.03,427.184C487.318,427.306 476.645,428.065 466.007,429.437C469.182,441.772 471.679,454.702 473.431,468.281C468.075,455.553 463.453,442.907 459.611,430.337C443.084,432.854 426.647,436.846 410.298,442.232C415.946,450.597 420.92,459.309 425.347,468.281C417.52,460.792 410.153,452.965 403.434,444.577C391.438,448.82 379.489,453.809 367.582,459.513L366.569,460C377.526,452.118 388.465,445.24 399.387,439.35C392.169,429.692 385.814,419.276 380.583,407.789C390.215,416.53 398.575,425.972 405.888,435.958C422.62,427.527 439.315,421.407 455.965,417.544C452.639,404.951 450.119,392.438 448.454,380C453.746,391.47 458.379,403.507 462.273,416.187C474.867,413.692 487.44,412.483 500,412.534ZM497.78,181.71C498.419,181.705 499.058,181.704 499.697,181.707C500.336,181.704 500.975,181.705 501.622,181.71C510.294,181.68 518.978,182.446 527.67,183.965C570.236,191.04 612.459,214.685 654.351,254.463C658,257.758 661.653,261.157 665.303,264.649C619.184,311.422 572.233,333.829 525.169,339.429C517.366,340.425 509.559,340.901 501.749,340.864C501.064,340.867 500.381,340.867 499.697,340.864C499.019,340.867 498.341,340.867 497.657,340.864C488.964,340.905 480.277,340.312 471.598,339.075C426.901,333.077 382.573,311.586 338.61,268.318C337.309,267.104 336.003,265.87 334.697,264.621L334.803,264.515L334.697,264.408C336.003,263.159 337.309,261.921 338.607,260.704C382.221,217.536 426.195,191.857 470.536,184.168C479.61,182.513 488.693,181.678 497.78,181.71ZM459.899,200.032C456.802,200.67 453.719,201.379 450.654,202.157C445.557,203.45 440.509,204.932 435.518,206.588C429.12,208.711 422.826,211.115 416.638,213.77C392.864,225.638 369.083,242.448 345.303,264.07L344.814,264.515L345.303,264.959C345.718,265.337 346.133,265.713 346.552,266.089C352.854,271.052 359.286,275.844 365.889,280.401C387.393,295.242 410.671,307.74 435.518,315.983C440.509,317.639 445.557,319.121 450.654,320.415C455.812,321.723 461.02,322.839 466.263,323.747C445.326,310.067 431.48,286.422 431.48,259.569C431.48,235.541 442.567,214.081 459.899,200.032ZM566.495,210.017C577.848,223.382 584.697,240.682 584.697,259.569C584.697,282.938 574.211,303.877 557.687,317.937C590.022,308.242 622.36,290.461 654.697,264.621L654.092,264.07C652.934,263.017 651.776,261.975 650.614,260.942C622.675,239.091 594.57,221.396 566.495,210.017ZM510.329,215.52C537.289,215.52 559.177,237.408 559.177,264.369C559.177,291.329 537.289,313.217 510.329,313.217C483.369,313.217 461.48,291.329 461.48,264.369C461.48,237.408 483.369,215.52 510.329,215.52Z" style="fill:white;"/>
    </g>
</svg>
