<?xml version="1.0" encoding="UTF-8" standalone="no"?>
<!DOCTYPE svg PUBLIC "-//W3C//DTD SVG 1.1//EN" "http://www.w3.org/Graphics/SVG/1.1/DTD/svg11.dtd">
<svg width="100%" height="100%" viewBox="0 0 1000 1000" version="1.1" xmlns="http://www.w3.org/2000/svg" xmlns:xlink="http://www.w3.org/1999/xlink" xml:space="preserve" xmlns:serif="http://www.serif.com/" style="fill-rule:evenodd;clip-rule:evenodd;stroke-linejoin:round;stroke-miterlimit:2;">
    <g transform="matrix(4.16761,0,0,4.16761,-1250.4,-1750.51)">
        <path d="M420,432.025C360.407,432.025 312.025,480.407 312.025,540C312.025,599.593 360.407,647.975 420,647.975C479.593,647.975 527.975,599.593 527.975,540C527.975,480.407 479.593,432.025 420,432.025ZM420,440C475.192,440 520,484.808 520,540C520,595.192 475.192,640 420,640C364.808,640 320,595.192 320,540C320,484.808 364.808,440 420,440ZM420,445.471C472.172,445.471 514.529,487.828 514.529,540C514.529,592.172 472.172,634.529 420,634.529C367.828,634.529 325.471,592.172 325.471,540C325.471,487.828 367.828,445.471 420,445.471ZM419.845,455.736L420.059,455.736C422.523,455.736 424.522,457.735 424.522,460.199L424.619,468.379L430.651,465.808C431.315,465.477 432.023,465.326 432.717,465.338L433.344,465.371L433.95,465.488L434.672,465.749C435.562,466.158 436.323,466.861 436.795,467.804C437.126,468.467 437.277,469.174 437.265,469.867C437.26,470.608 437.07,471.336 436.717,471.982C436.303,472.837 435.614,473.566 434.7,474.024L424.754,479.777L424.851,487.973L436.191,479.174C437.049,478.459 438.096,478.121 439.132,478.141L439.927,478.199L440.756,478.418L440.921,478.483C441.565,478.75 442.156,479.173 442.633,479.745C443.047,480.242 443.334,480.802 443.498,481.388L443.64,482.113L443.665,482.698C443.656,483.421 443.472,484.139 443.12,484.783C442.852,485.337 442.465,485.843 441.962,486.263L425.01,501.42L425.071,506.56C425.329,506.391 425.589,506.225 425.851,506.062C429.172,503.994 432.78,502.278 436.772,501.034C437.424,500.659 438.178,500.361 438.95,500.167C440.53,499.74 442.207,499.746 443.248,500.427C444.513,501.256 445.256,503.594 445.328,505.752C446.102,509.198 446.447,512.574 446.456,515.897C446.458,516.512 446.449,517.126 446.428,517.739C446.417,518.079 446.401,518.418 446.382,518.757L450.914,516.211L455.593,493.819C455.905,492.009 457.27,490.642 458.951,490.239C459.569,490.066 460.233,490.025 460.906,490.141C463.077,490.516 464.611,492.406 464.609,494.537C464.612,494.802 464.59,495.07 464.544,495.34L462.58,509.659L469.813,505.596L469.823,493.989C469.692,491.797 471.169,489.877 473.234,489.382C473.533,489.299 473.845,489.246 474.166,489.226C476.625,489.079 478.741,490.955 478.889,493.414L479.693,500.047L486.734,496.092C487.115,495.872 487.515,495.715 487.922,495.617C489.837,495.082 491.946,495.884 492.986,497.685L493.015,497.736C493.424,498.444 493.616,499.217 493.613,499.98C493.617,500.74 493.427,501.491 493.062,502.157C492.686,502.929 492.083,503.602 491.283,504.064L484.417,508.137L489.666,512.08C490.969,512.941 491.674,514.37 491.669,515.824C491.674,516.559 491.497,517.303 491.124,517.983C491.039,518.158 490.942,518.329 490.832,518.495C490.424,519.114 489.888,519.597 489.281,519.934C487.867,520.738 486.063,520.737 484.613,519.78L474.558,513.986L467.562,518.136L480.861,523.561C482.672,524.227 483.793,525.948 483.784,527.774C483.786,528.291 483.698,528.817 483.509,529.331C483.43,529.544 483.337,529.747 483.231,529.941C482.817,530.792 482.156,531.46 481.369,531.892C480.27,532.508 478.919,532.658 477.645,532.189L455.915,525.046L451.576,527.62C451.854,527.76 452.13,527.903 452.405,528.05C455.857,529.892 459.147,532.158 462.22,534.993C464.162,536.12 465.971,538.378 465.87,540.184C465.85,540.534 465.746,540.9 465.575,541.271C465.074,542.568 463.697,543.948 462.2,544.88C459.133,547.706 455.849,549.967 452.405,551.805C452.165,551.933 451.924,552.059 451.682,552.181L456.147,554.83L477.878,547.685C480.19,546.835 482.757,548.022 483.607,550.333C484.031,551.486 483.949,552.702 483.473,553.737C483.023,554.882 482.105,555.837 480.861,556.294L467.679,561.671L474.769,565.877L484.554,560.239C484.759,560.103 484.971,559.987 485.188,559.89C487.2,558.803 489.746,559.416 491.03,561.36C491.913,562.698 491.981,564.339 491.354,565.696C491.029,566.518 490.458,567.251 489.666,567.775L484.504,571.652L491.48,575.791C493.491,576.951 494.256,579.444 493.307,581.513L492.986,582.17C491.811,584.205 489.27,584.965 487.187,583.961C487.02,583.89 486.856,583.809 486.696,583.716L479.762,579.822L478.987,586.21C478.953,586.776 478.815,587.312 478.591,587.799C477.905,589.553 476.147,590.747 474.166,590.629C473.572,590.593 473.012,590.442 472.506,590.199C470.811,589.484 469.669,587.758 469.785,585.819L469.775,574.212L462.711,570.245L464.642,584.324C464.801,585.242 464.667,586.144 464.306,586.932C463.757,588.341 462.504,589.438 460.906,589.714C459.964,589.877 459.039,589.731 458.237,589.348C456.875,588.78 455.824,587.549 455.555,585.989L450.876,563.597L446.492,561.135C446.507,561.398 446.518,561.661 446.527,561.925C446.662,565.987 446.315,570.125 445.312,574.37C445.219,576.548 444.191,579.04 442.649,579.819C442.206,580.043 441.651,580.136 441.037,580.125C439.749,580.141 438.175,579.67 436.842,578.958C435.429,578.517 434.064,578.017 432.743,577.462L430.134,576.272L429.244,575.82C428.113,575.232 427.015,574.603 425.947,573.938C425.684,573.775 425.424,573.609 425.167,573.44L425.107,578.542L442.1,593.737C442.823,594.339 443.306,595.122 443.54,595.964C443.694,596.434 443.768,596.926 443.762,597.418C443.758,598.42 443.419,599.426 442.728,600.255C441.83,601.332 440.531,601.879 439.228,601.859L438.452,601.806L437.639,601.6L436.842,601.221L436.287,600.826L424.947,592.027L424.85,600.199L434.838,605.976C436.021,606.568 436.827,607.616 437.149,608.8C437.298,609.265 437.371,609.755 437.362,610.248C437.355,610.905 437.203,611.57 436.89,612.196C436.096,613.784 434.479,614.692 432.813,614.662L432.155,614.625L431.507,614.489L430.747,614.192L424.715,611.621L424.617,619.879C424.576,622.306 422.592,624.264 420.155,624.264L419.941,624.264C417.477,624.264 415.478,622.265 415.478,619.801L415.381,611.621L409.349,614.192C408.685,614.523 407.977,614.674 407.283,614.662L406.656,614.629L406.05,614.512L405.328,614.251C404.438,613.842 403.677,613.139 403.205,612.196C402.874,611.533 402.723,610.826 402.735,610.133C402.74,609.392 402.93,608.664 403.283,608.018C403.697,607.163 404.386,606.434 405.3,605.976L415.246,600.223L415.149,592.027L403.809,600.826C402.951,601.541 401.904,601.879 400.868,601.859L400.073,601.801L399.244,601.582L399.079,601.517C398.435,601.25 397.844,600.827 397.367,600.255C396.953,599.758 396.666,599.198 396.502,598.612L396.36,597.887L396.335,597.302C396.344,596.579 396.528,595.861 396.88,595.217C397.148,594.663 397.535,594.157 398.038,593.737L414.99,578.58L414.929,573.44C414.671,573.609 414.411,573.775 414.149,573.938C410.828,576.006 407.22,577.722 403.228,578.966C402.576,579.341 401.822,579.639 401.05,579.833C399.47,580.26 397.793,580.254 396.752,579.573C395.487,578.744 394.744,576.406 394.672,574.248C393.898,570.802 393.553,567.426 393.544,564.103C393.542,563.488 393.551,562.874 393.572,562.261C393.583,561.921 393.599,561.582 393.618,561.243L389.086,563.789L384.407,586.181C384.095,587.991 382.73,589.358 381.049,589.761C380.431,589.934 379.767,589.975 379.094,589.859C376.923,589.484 375.389,587.594 375.391,585.463C375.388,585.198 375.41,584.93 375.456,584.66L377.42,570.341L370.187,574.404L370.177,586.011C370.308,588.203 368.831,590.123 366.766,590.618C366.467,590.701 366.155,590.754 365.834,590.774C363.375,590.921 361.259,589.045 361.111,586.586L360.307,579.953L353.266,583.908C352.885,584.128 352.485,584.285 352.078,584.383C350.163,584.918 348.054,584.116 347.014,582.315L346.985,582.264C346.576,581.556 346.384,580.783 346.387,580.02C346.383,579.26 346.573,578.509 346.938,577.843C347.314,577.071 347.917,576.398 348.717,575.936L355.583,571.863L350.334,567.92C349.031,567.059 348.326,565.63 348.331,564.176C348.326,563.441 348.503,562.697 348.876,562.017C348.961,561.842 349.058,561.671 349.168,561.505C349.576,560.886 350.112,560.403 350.719,560.066C352.133,559.262 353.937,559.263 355.387,560.22L365.442,566.014L372.438,561.864L359.139,556.439C357.328,555.773 356.207,554.052 356.216,552.226C356.214,551.709 356.302,551.183 356.491,550.669C356.57,550.456 356.663,550.253 356.769,550.059C357.183,549.208 357.844,548.54 358.631,548.108C359.73,547.492 361.081,547.342 362.355,547.811L384.085,554.954L388.424,552.38C388.146,552.24 387.87,552.097 387.595,551.95C384.143,550.108 380.853,547.842 377.78,545.007C375.838,543.88 374.029,541.622 374.13,539.816C374.15,539.466 374.254,539.1 374.425,538.729C374.926,537.432 376.303,536.052 377.8,535.12C380.867,532.294 384.151,530.033 387.595,528.195C387.835,528.067 388.076,527.941 388.318,527.819L383.853,525.17L362.122,532.315C359.81,533.165 357.243,531.978 356.393,529.667C355.969,528.514 356.051,527.298 356.527,526.263C356.977,525.118 357.895,524.163 359.139,523.706L372.321,518.329L365.231,514.123L355.446,519.761C355.241,519.897 355.029,520.013 354.812,520.11C352.8,521.197 350.254,520.584 348.97,518.64C348.087,517.302 348.019,515.661 348.646,514.304C348.971,513.482 349.542,512.749 350.334,512.225L355.496,508.348L348.52,504.209C346.509,503.049 345.744,500.556 346.693,498.487L347.014,497.83C348.189,495.795 350.73,495.035 352.813,496.039C352.98,496.11 353.144,496.191 353.304,496.284L360.238,500.178L361.013,493.79C361.047,493.224 361.185,492.688 361.409,492.201C362.095,490.447 363.853,489.253 365.834,489.371C366.428,489.407 366.988,489.558 367.494,489.801C369.189,490.516 370.331,492.242 370.215,494.181L370.225,505.788L377.289,509.755L375.358,495.676C375.199,494.758 375.333,493.856 375.694,493.068C376.243,491.659 377.496,490.562 379.094,490.286C380.036,490.123 380.961,490.269 381.763,490.652C383.125,491.22 384.176,492.451 384.445,494.011L389.124,516.403L393.508,518.865C393.493,518.602 393.482,518.339 393.473,518.075C393.338,514.013 393.685,509.875 394.688,505.63C394.781,503.452 395.809,500.96 397.351,500.181C397.794,499.957 398.349,499.864 398.963,499.875C400.251,499.859 401.825,500.33 403.158,501.042C404.571,501.483 405.936,501.983 407.257,502.538L409.866,503.728L410.756,504.18C411.887,504.768 412.985,505.397 414.053,506.062C414.316,506.225 414.576,506.391 414.833,506.56L414.893,501.458L397.9,486.263C397.177,485.661 396.694,484.878 396.46,484.036C396.306,483.566 396.232,483.074 396.238,482.582C396.242,481.58 396.581,480.574 397.272,479.745C398.17,478.668 399.469,478.121 400.772,478.141L401.548,478.194L402.361,478.4L403.158,478.779L403.713,479.174L415.053,487.973L415.15,479.801L405.162,474.024C403.979,473.432 403.173,472.384 402.851,471.2C402.702,470.735 402.629,470.245 402.638,469.752C402.645,469.095 402.797,468.43 403.11,467.804C403.904,466.216 405.521,465.308 407.187,465.338L407.845,465.375L408.493,465.511L409.253,465.808L415.285,468.379L415.383,460.121C415.424,457.694 417.408,455.736 419.845,455.736ZM414.645,549.433L414.769,559.915C412.868,561.958 410.814,563.836 408.544,565.497C406.919,566.685 405.205,567.787 403.366,568.758C403.308,566.79 403.405,564.861 403.612,562.961C403.92,560.117 404.535,557.352 405.376,554.639L414.645,549.433ZM425.452,549.317L434.586,554.448C435.427,557.161 436.042,559.925 436.351,562.77C436.56,564.7 436.657,566.661 436.593,568.663C434.822,567.715 433.166,566.647 431.594,565.497C429.308,563.824 427.241,561.931 425.328,559.87L425.452,549.317ZM409.072,540.131L400.153,545.422C397.383,544.793 394.682,543.944 392.065,542.789C390.265,541.995 388.494,541.085 386.77,540.009C387.892,539.306 389.034,538.674 390.191,538.098C390.735,537.832 391.282,537.579 391.832,537.336C394.45,536.181 397.152,535.332 399.922,534.703L409.072,540.131ZM430.928,539.869L439.847,534.578C442.617,535.207 445.318,536.056 447.935,537.211C449.735,538.005 451.506,538.915 453.23,539.991C452.108,540.694 450.966,541.326 449.809,541.902C449.265,542.168 448.718,542.421 448.168,542.664C445.55,543.819 442.848,544.668 440.078,545.297L430.928,539.869ZM414.672,520.13L414.548,530.683L405.414,525.552C404.573,522.839 403.958,520.075 403.649,517.23C403.44,515.3 403.343,513.339 403.407,511.337C405.178,512.285 406.834,513.353 408.406,514.503C410.692,516.176 412.759,518.069 414.672,520.13ZM436.634,511.242C436.692,513.21 436.595,515.139 436.388,517.039C436.08,519.883 435.465,522.648 434.624,525.361L425.355,530.567L425.231,520.085C427.132,518.042 429.186,516.164 431.456,514.503C433.081,513.315 434.795,512.213 436.634,511.242Z" style="fill:white;"/>
    </g>
</svg>
