<?xml version="1.0" encoding="UTF-8" standalone="no"?>
<!DOCTYPE svg PUBLIC "-//W3C//DTD SVG 1.1//EN" "http://www.w3.org/Graphics/SVG/1.1/DTD/svg11.dtd">
<svg width="100%" height="100%" viewBox="0 0 1000 1000" version="1.1" xmlns="http://www.w3.org/2000/svg" xmlns:xlink="http://www.w3.org/1999/xlink" xml:space="preserve" xmlns:serif="http://www.serif.com/" style="fill-rule:evenodd;clip-rule:evenodd;stroke-linejoin:round;stroke-miterlimit:2;">
    <g transform="matrix(8.13682,0,0,8.13682,-4341.41,-2731.91)">
        <path d="M592.397,433.88C594.132,433.99 595.868,433.991 597.603,433.881L597.603,449.897C597.603,451.351 596.454,452.5 595,452.5L594.983,452.5C593.932,452.493 593.043,451.887 592.635,451L584,451L584,447C585.719,445.667 585.577,444.333 584,443L584,436L592.397,440.665L592.397,433.88ZM592.156,431.257C594.052,431.389 595.949,431.389 597.845,431.258C598.384,431.931 598.222,432.605 597.764,433.278C595.921,433.405 594.078,433.404 592.235,433.277C591.777,432.604 591.617,431.93 592.156,431.257ZM592.397,426.79L592.397,430.681C594.132,430.794 595.868,430.795 597.603,430.682L597.603,426.791C595.868,426.9 594.132,426.9 592.397,426.79ZM592.188,422.776C594.063,422.904 595.937,422.905 597.813,422.777C598.498,423.771 598.477,424.765 598.02,425.759C596.007,425.911 593.993,425.91 591.979,425.758C591.523,424.764 591.503,423.77 592.188,422.776ZM592.397,389.79L592.397,421.787C594.132,421.9 595.868,421.901 597.603,421.789L597.603,389.791C595.868,389.9 594.132,389.9 592.397,389.79ZM592.131,381.086C594.044,381.219 595.957,381.22 597.87,381.087C598.939,383.648 598.799,386.209 597.885,388.769C595.961,388.908 594.038,388.907 592.115,388.768C591.201,386.207 591.061,383.646 592.131,381.086ZM592.259,380.092C591.364,377.303 591.474,374.621 592.035,371.987C591.804,371.716 591.625,371.387 591.5,371C579.495,374.109 577,361.339 577.566,356C578.027,351.645 582.564,341.892 595,341.892L595.145,341.892C607.471,341.968 611.975,351.662 612.434,356C613,361.339 610.505,374.109 598.5,371C598.375,371.387 598.196,371.715 597.965,371.987C598.526,374.622 598.636,377.304 597.741,380.093C595.914,380.218 594.086,380.217 592.259,380.092ZM590,367C589.811,362.596 600.188,362.558 600,367C600,367 609,369.367 609,358C609,356.33 607.448,345.088 595.145,345.001L595,345C582.564,345 581,356.323 581,358C581,369.367 590,367 590,367Z" style="fill:white;"/>
    </g>
</svg>
