<?xml version="1.0" encoding="UTF-8" standalone="no"?>
<!DOCTYPE svg PUBLIC "-//W3C//DTD SVG 1.1//EN" "http://www.w3.org/Graphics/SVG/1.1/DTD/svg11.dtd">
<svg width="100%" height="100%" viewBox="0 0 1000 1000" version="1.1" xmlns="http://www.w3.org/2000/svg" xmlns:xlink="http://www.w3.org/1999/xlink" xml:space="preserve" xmlns:serif="http://www.serif.com/" style="fill-rule:evenodd;clip-rule:evenodd;stroke-linejoin:round;stroke-miterlimit:2;">
    <g transform="matrix(6.59354,0,0,6.59354,-2796.77,-2645.11)">
        <path d="M520.274,521.939C515.305,522.719 512.592,526.737 511.811,533.526L518.402,541.059C525.718,548.374 536.242,544.579 539.004,541.154C542.343,537.013 546.699,522.254 532.613,522.254L520.274,521.939ZM479.726,521.939C484.695,522.719 487.408,526.737 488.189,533.526L481.598,541.059C474.282,548.374 463.758,544.579 460.996,541.154C457.657,537.013 453.301,522.254 467.387,522.254L479.726,521.939ZM499.241,533.525C495.539,533.514 493.204,533.424 490.805,533.177C490.185,524.925 486.35,519.54 477.641,518.502C477.375,511.94 478.352,503.162 481.206,491.04C487.373,492.753 493.654,493.365 500,493.345L500.297,493.345C506.542,493.345 512.723,492.726 518.794,491.04C521.648,503.162 522.625,511.94 522.359,518.502C513.65,519.54 509.815,524.925 509.195,533.177C506.636,533.441 504.149,533.526 500,533.526L499.241,533.525ZM522.401,489.152L521.043,491.04C523.896,500.508 525.784,510.042 524.334,519.8C525.796,520.01 527.317,520.119 528.91,520.109C533.804,509.831 529.149,499.614 522.401,489.152ZM477.599,489.152L478.957,491.04C476.104,500.508 474.216,510.042 475.666,519.8C474.204,520.01 472.683,520.119 471.09,520.109C466.196,509.831 470.851,499.614 477.599,489.152ZM500,466.372C497.543,466.372 498.857,467.968 499.601,468.711C499.51,468.808 499.455,468.939 499.455,469.082C499.455,469.082 499.336,469.846 499.244,470.842C499.21,471.213 499.171,471.613 499.168,472.015C499.166,472.417 499.195,472.818 499.228,473.189C499.283,473.806 499.357,474.332 499.405,474.645C498.764,474.96 498.091,475.189 497.393,475.377C496.869,475.518 496.332,475.621 495.778,475.704C495.455,475.753 495.126,475.792 494.793,475.829C494.304,475.884 493.806,475.93 493.294,475.959C492.077,476.027 490.799,476.023 489.454,475.892C489.157,475.844 488.877,476.047 488.829,476.344C488.782,476.641 488.984,476.921 489.282,476.969C490.434,477.229 491.545,477.42 492.627,477.499C493.414,477.555 494.182,477.562 494.923,477.488C495.715,477.409 496.476,477.245 497.198,477.011C498.211,476.683 499.142,476.214 500,475.619L500.081,475.674C500.917,476.243 501.821,476.693 502.802,477.011C503.524,477.245 504.285,477.409 505.077,477.488C505.818,477.562 506.586,477.555 507.373,477.499C508.455,477.42 509.566,477.229 510.718,476.969C511.016,476.921 511.218,476.641 511.171,476.344C511.123,476.047 510.843,475.844 510.546,475.892C509.201,476.023 507.923,476.027 506.706,475.959C506.194,475.93 505.696,475.884 505.207,475.829C504.874,475.792 504.545,475.753 504.222,475.704C503.668,475.621 503.131,475.518 502.607,475.377C501.909,475.189 501.236,474.96 500.595,474.645C500.643,474.332 500.717,473.806 500.772,473.189C500.805,472.818 500.834,472.417 500.832,472.015C500.829,471.613 500.79,471.213 500.756,470.842C500.664,469.846 500.545,469.082 500.545,469.082C500.545,468.939 500.49,468.808 500.399,468.711C501.132,467.979 502.417,466.421 500.112,466.373L500,466.372ZM514.878,457.657C515.973,457.657 516.861,458.18 516.861,458.823C516.861,459.466 515.973,459.989 514.878,459.989C513.784,459.989 512.896,459.466 512.896,458.823C512.896,458.18 513.784,457.657 514.878,457.657ZM485.122,457.657C484.027,457.657 483.139,458.18 483.139,458.823C483.139,459.466 484.027,459.989 485.122,459.989C486.216,459.989 487.104,459.466 487.104,458.823C487.104,458.18 486.216,457.657 485.122,457.657ZM516.816,412.057C528.378,402.426 544.813,415.77 531.689,427.268C530.815,425.05 529.798,423.011 528.699,421.401C526.98,418.88 524.971,417.412 523.084,417.366C521.86,417.336 520.053,416.778 519.381,415.048C518.956,413.956 518.065,412.94 516.816,412.057ZM483.184,412.057C471.622,402.426 455.187,415.77 468.311,427.268C469.185,425.05 470.202,423.011 471.301,421.401C473.02,418.88 475.029,417.412 476.916,417.366C478.14,417.336 479.947,416.778 480.619,415.048C481.044,413.956 481.935,412.94 483.184,412.057ZM499.586,491.039C482.092,490.967 466.278,486.338 466.278,472.161L466.72,441.216C466.72,433.34 471.844,418.93 476.951,418.804C478.622,418.762 481.043,417.93 481.96,415.569C483.544,411.491 493.637,409.334 500,409.334L500.15,409.334C506.52,409.368 516.469,411.522 518.04,415.569C518.957,417.93 521.378,418.762 523.049,418.804C528.156,418.93 533.28,433.34 533.28,441.216L533.722,472.161C533.722,486.449 517.659,491.04 500,491.04L499.586,491.039Z" style="fill:white;"/>
    </g>
</svg>
