<?xml version="1.0" encoding="UTF-8" standalone="no"?>
<!DOCTYPE svg PUBLIC "-//W3C//DTD SVG 1.1//EN" "http://www.w3.org/Graphics/SVG/1.1/DTD/svg11.dtd">
<svg width="100%" height="100%" viewBox="0 0 1000 1000" version="1.1" xmlns="http://www.w3.org/2000/svg" xmlns:xlink="http://www.w3.org/1999/xlink" xml:space="preserve" xmlns:serif="http://www.serif.com/" style="fill-rule:evenodd;clip-rule:evenodd;stroke-linejoin:round;stroke-miterlimit:2;">
    <g transform="matrix(2.27733,0,0,2.27733,-445.654,-591.752)">
        <path d="M409,387.878L409,339L404,341L404,414L336,424L336,677L341,675L341,430L467,410L467,650L472.493,648L472.493,404L409,413L409,392.783C422.078,393.459 429.297,389.452 436.203,380.49C454.988,351.577 471.659,323.43 486.422,295.974C483.62,308.105 472.071,330.964 437.734,381.778C443.359,384.733 450.272,383.911 462.732,375.37L470.664,376.817C481.546,365.576 490.427,351.713 494.444,331.479L489.732,326.207C493.718,310.525 494.784,296.486 494.43,281.8C447.181,309.922 418.194,340.786 431.734,378.036C431.448,386.219 420.458,387.548 409.152,387.785L409,387.878Z" style="fill:white;"/>
    </g>
</svg>
