<?xml version="1.0" encoding="UTF-8" standalone="no"?>
<!DOCTYPE svg PUBLIC "-//W3C//DTD SVG 1.1//EN" "http://www.w3.org/Graphics/SVG/1.1/DTD/svg11.dtd">
<svg width="100%" height="100%" viewBox="0 0 1000 1000" version="1.1" xmlns="http://www.w3.org/2000/svg" xmlns:xlink="http://www.w3.org/1999/xlink" xml:space="preserve" xmlns:serif="http://www.serif.com/" style="fill-rule:evenodd;clip-rule:evenodd;stroke-linejoin:round;stroke-miterlimit:2;">
    <g transform="matrix(3.60721,0,0,3.60721,-1312.63,-1232.36)">
        <path d="M502.002,356.636C464.842,380.354 427.013,403.736 385,425.042C385.96,451.675 393.651,477.826 415,503L409,512L430,538L425,546C448.057,568.349 475.162,586.788 502.5,605L502.501,604.499C529.838,586.288 556.943,567.849 580,545.5L575,537.5L596,511.5L590,502.5C611.349,477.326 619.04,451.175 620,424.542C577.987,403.236 540.158,379.854 503,356.138L503,356L502.892,356.069L502,355.5L502.002,356.636ZM502.874,376.418C532.491,396.196 563.634,414.695 598,430.5C593.821,484.29 555.985,522.499 502.397,553.411L502.398,553.793C448.916,522.9 411.173,484.72 407,431C441.657,415.061 473.037,396.382 502.874,376.418ZM552.5,502.5L552.5,477L515,477L515,439.5L490,439.5L490,477L452.5,477L452.5,502.5L490,502.5L490,540L515,540L515,502.5L552.5,502.5ZM501.717,436.024C485.28,436.533 468.995,437.674 453,440L453,446C441.405,447.819 430.677,451.36 420,455L420,445L411,439C416.308,434.436 422.562,431.007 430,429L430,424C453.025,416.773 477.412,413.757 502.5,412.91L503.088,412.93C527.968,413.805 552.154,416.829 575,424L575,429C582.438,431.007 588.692,434.436 594,439L585,445L585,455C574.323,451.36 563.595,447.819 552,446L552,440C535.751,437.637 519.204,436.497 502.5,436L501.717,436.024Z" style="fill:white;"/>
    </g>
</svg>
