<?xml version="1.0" encoding="UTF-8" standalone="no"?>
<!DOCTYPE svg PUBLIC "-//W3C//DTD SVG 1.1//EN" "http://www.w3.org/Graphics/SVG/1.1/DTD/svg11.dtd">
<svg width="100%" height="100%" viewBox="0 0 1000 1000" version="1.1" xmlns="http://www.w3.org/2000/svg" xmlns:xlink="http://www.w3.org/1999/xlink" xml:space="preserve" xmlns:serif="http://www.serif.com/" style="fill-rule:evenodd;clip-rule:evenodd;stroke-linejoin:round;stroke-miterlimit:2;">
    <g transform="matrix(5.89988,0,0,5.89988,-2480.09,-1104.77)">
        <path d="M552.77,317.693C551.248,318.687 549.653,319.496 548.006,320.223C546.924,320.701 545.816,321.116 544.686,321.514C543.578,321.904 542.454,322.282 541.287,322.593C539.593,323.045 537.839,323.414 535.982,323.617C535.77,323.627 535.607,323.807 535.617,324.018C535.627,324.23 535.807,324.393 536.018,324.383C537.95,324.407 539.804,324.297 541.592,323.993C542.846,323.78 544.067,323.492 545.236,323.087C546.429,322.673 547.568,322.142 548.659,321.537C550.292,320.631 551.793,319.53 553.23,318.307C553.399,318.18 553.434,317.94 553.307,317.77C553.18,317.601 552.94,317.566 552.77,317.693ZM566.627,306.914C566.135,308.636 565.332,310.303 564.22,311.957C563.562,312.935 562.788,313.898 561.899,314.866C561.293,315.525 560.631,316.182 559.919,316.849C559.261,317.466 558.563,318.094 557.809,318.722C556.778,319.58 555.655,320.446 554.418,321.312C553.304,322.092 552.113,322.881 550.818,323.662C550.632,323.763 550.562,323.995 550.662,324.182C550.763,324.368 550.995,324.438 551.182,324.338C552.571,323.677 553.862,323.011 555.06,322.321C556.41,321.544 557.639,320.749 558.754,319.931C559.582,319.322 560.349,318.705 561.046,318.068C561.81,317.37 562.492,316.652 563.104,315.927C564.009,314.854 564.761,313.764 565.373,312.665C566.402,310.819 567.04,308.957 567.373,307.086C567.421,306.88 567.293,306.674 567.086,306.627C566.88,306.579 566.674,306.707 566.627,306.914ZM539.872,319.251C538.612,319.604 537.339,319.911 536.037,320.206C535.192,320.398 534.339,320.575 533.474,320.752C532.63,320.925 531.776,321.086 530.911,321.252C530.346,321.36 529.779,321.478 529.204,321.588C528.036,321.813 526.847,322.022 525.622,322.196C524.44,322.364 523.239,322.516 521.994,322.617C521.782,322.62 521.613,322.795 521.617,323.006C521.62,323.218 521.795,323.387 522.006,323.383C523.935,323.468 525.788,323.47 527.591,323.336C528.856,323.241 530.094,323.101 531.297,322.873C532.538,322.638 533.74,322.315 534.913,321.951C536.722,321.391 538.438,320.696 540.128,319.973C540.328,319.903 540.432,319.683 540.361,319.484C540.291,319.285 540.071,319.18 539.872,319.251ZM523.81,317.667C521.925,318.61 519.943,319.37 517.826,319.979C516.508,320.358 515.137,320.653 513.697,320.896C512.359,321.121 510.967,321.309 509.488,321.395C507.499,321.511 505.373,321.498 503.062,321.241C502.853,321.207 502.656,321.349 502.622,321.558C502.588,321.767 502.73,321.964 502.938,321.998C505.283,322.504 507.461,322.787 509.516,322.828C511.075,322.859 512.561,322.771 513.97,322.539C515.494,322.288 516.927,321.878 518.285,321.373C520.422,320.577 522.353,319.513 524.19,318.333C524.373,318.228 524.438,317.994 524.333,317.81C524.228,317.627 523.994,317.562 523.81,317.667ZM503.815,317.664C502.145,318.451 500.418,319.048 498.644,319.565C497.486,319.903 496.307,320.179 495.107,320.441C493.933,320.698 492.745,320.945 491.522,321.128C489.746,321.395 487.923,321.586 486.016,321.617C485.805,321.608 485.626,321.772 485.617,321.984C485.608,322.195 485.772,322.374 485.984,322.383C487.936,322.583 489.825,322.661 491.67,322.554C492.962,322.478 494.229,322.332 495.459,322.07C496.719,321.801 497.938,321.415 499.117,320.954C500.899,320.258 502.57,319.36 504.185,318.336C504.37,318.234 504.438,318.001 504.336,317.815C504.234,317.63 504.001,317.562 503.815,317.664ZM488.699,317.634C487.655,317.971 486.61,318.268 485.549,318.556C484.853,318.745 484.155,318.917 483.45,319.089C482.757,319.258 482.059,319.412 481.355,319.567C480.892,319.669 480.429,319.778 479.961,319.877C479.001,320.08 478.028,320.258 477.021,320.383C476.045,320.504 475.055,320.597 474.022,320.617C473.811,320.605 473.63,320.767 473.617,320.978C473.605,321.189 473.767,321.37 473.978,321.383C475.592,321.594 477.142,321.672 478.659,321.584C479.72,321.523 480.76,321.4 481.772,321.18C482.799,320.957 483.793,320.638 484.764,320.274C486.225,319.727 487.609,319.045 488.993,318.342C489.188,318.261 489.281,318.037 489.2,317.841C489.119,317.646 488.894,317.553 488.699,317.634ZM467.046,317.619C465.811,317.38 464.603,317.091 463.397,316.784C462.593,316.58 461.798,316.359 461.003,316.137C460.208,315.914 459.419,315.679 458.63,315.445C458.103,315.29 457.575,315.142 457.049,314.986C455.95,314.66 454.861,314.315 453.778,313.927C452.696,313.538 451.624,313.131 450.562,312.661C450.374,312.562 450.142,312.634 450.044,312.822C449.946,313.009 450.018,313.241 450.205,313.339C451.732,314.27 453.281,315.112 454.899,315.819C455.985,316.293 457.089,316.723 458.224,317.062C459.355,317.399 460.513,317.648 461.682,317.847C463.417,318.142 465.172,318.285 466.954,318.381C467.164,318.406 467.355,318.256 467.381,318.046C467.406,317.836 467.256,317.645 467.046,317.619ZM572.617,297.987C572.496,298.937 572.323,299.87 572.136,300.816C572.013,301.435 571.875,302.049 571.737,302.67C571.601,303.282 571.453,303.892 571.31,304.51C571.216,304.917 571.132,305.327 571.041,305.739C570.852,306.589 570.651,307.44 570.416,308.3C570.184,309.145 569.943,309.99 569.65,310.844C569.564,311.038 569.651,311.264 569.844,311.35C570.038,311.436 570.264,311.349 570.35,311.156C571.024,309.924 571.626,308.706 572.11,307.451C572.444,306.586 572.737,305.717 572.945,304.833C573.155,303.934 573.281,303.024 573.36,302.117C573.479,300.74 573.455,299.38 573.383,298.013C573.39,297.802 573.225,297.624 573.013,297.617C572.802,297.61 572.624,297.775 572.617,297.987ZM450.193,309.669C449.187,308.979 448.231,308.262 447.29,307.536C446.654,307.045 446.038,306.547 445.427,306.049C444.809,305.545 444.208,305.034 443.612,304.525C443.21,304.183 442.806,303.847 442.411,303.505C441.575,302.78 440.771,302.041 440.009,301.26C439.235,300.467 438.497,299.657 437.817,298.786C437.698,298.61 437.46,298.564 437.285,298.682C437.109,298.8 437.063,299.039 437.181,299.214C438.044,300.698 439.021,302.099 440.157,303.402C440.904,304.259 441.703,305.083 442.582,305.836C443.44,306.57 444.369,307.237 445.34,307.865C446.746,308.775 448.249,309.563 449.807,310.331C449.99,310.438 450.225,310.376 450.331,310.193C450.438,310.01 450.376,309.775 450.193,309.669ZM576.804,296.742L576.804,296.752C576.793,296.966 576.759,297.197 576.747,297.449C576.74,297.599 576.738,297.754 576.743,297.91C576.749,298.144 576.783,298.372 576.785,298.601C576.786,298.76 576.801,298.906 576.792,299.056C576.776,299.325 576.784,299.561 576.695,299.768C576.567,299.937 576.6,300.177 576.768,300.305C576.937,300.433 577.177,300.4 577.305,300.232C577.647,299.952 577.887,299.531 578.107,299.026C578.186,298.846 578.24,298.66 578.291,298.464C578.345,298.255 578.385,298.043 578.397,297.829C578.41,297.612 578.394,297.397 578.364,297.194C578.353,297.118 578.341,297.044 578.327,296.972C578.894,296.986 579.378,296.908 579.751,296.769C580.085,296.641 580.537,296.25 580.724,295.455C580.914,294.648 580.906,293.283 580.174,291.431C579.312,289.251 577.434,286.316 573.718,282.733C573.57,282.581 573.328,282.578 573.176,282.725C573.024,282.873 573.021,283.115 573.168,283.267C575.823,286.187 577.38,288.636 578.271,290.587C579.174,292.564 579.352,293.984 579.21,294.842C579.188,294.975 579.165,295.147 579.132,295.247L579.102,295.257C578.831,295.333 578.479,295.336 578.071,295.293C577.503,295.232 576.845,295.061 576.133,294.774C574.785,294.23 573.267,293.266 571.824,291.766C570.088,289.962 568.449,287.422 567.37,283.901C567.315,283.696 567.105,283.575 566.901,283.63C566.696,283.685 566.575,283.895 566.63,284.099C567.338,287.178 568.478,289.611 569.806,291.491C570.544,292.537 571.343,293.409 572.154,294.127C573.758,295.549 575.419,296.374 576.804,296.742ZM579.176,295.234C579.164,295.237 579.149,295.242 579.132,295.247L579.132,295.248L579.102,295.257C579.057,295.272 579.019,295.293 579.047,295.319C579.082,295.35 579.109,295.316 579.132,295.248L579.185,295.231L579.176,295.234ZM434.186,282.569C433.133,283.345 432.254,284.058 431.535,284.724C430.694,285.503 430.076,286.219 429.646,286.869C428.741,288.238 428.669,289.393 429.071,290.344C429.467,291.19 429.866,291.856 430.29,292.354C430.723,292.863 431.175,293.215 431.646,293.443C432.418,293.804 433.237,293.877 434.144,293.646C435.306,293.35 436.629,292.573 438.226,291.555C438.373,291.769 438.521,291.983 438.671,292.197C438.78,292.378 439.015,292.438 439.197,292.329C439.378,292.22 439.438,291.985 439.329,291.803C438.817,290.775 438.37,289.738 437.943,288.687C437.658,287.988 437.396,287.286 437.137,286.58C436.879,285.877 436.64,285.17 436.399,284.461C436.24,283.989 436.074,283.52 435.917,283.046C435.591,282.061 435.29,281.067 435.034,280.048C434.78,279.037 434.55,278.02 434.382,276.968C434.364,276.757 434.178,276.6 433.968,276.618C433.757,276.636 433.6,276.822 433.618,277.032C433.643,278.689 433.769,280.302 434.054,281.886C434.096,282.114 434.139,282.342 434.186,282.569ZM434.401,283.528C433.041,284.825 432.061,285.94 431.394,286.895C431.005,287.453 430.739,287.95 430.585,288.399C430.416,288.888 430.408,289.3 430.581,289.656C430.893,290.357 431.213,290.907 431.545,291.33C431.807,291.664 432.064,291.921 432.354,292.084C432.965,292.439 433.657,292.418 434.479,292.199C435.425,291.948 436.507,291.471 437.769,290.87C437.17,289.956 436.613,289.024 436.121,288.055C435.628,287.083 435.189,286.086 434.842,285.055C434.674,284.553 434.528,284.043 434.401,283.528ZM569.71,265.251C570.848,266.705 571.888,268.157 572.862,269.596C573.543,270.601 574.179,271.599 574.784,272.59C575.414,273.62 575.997,274.644 576.547,275.657C576.926,276.357 577.295,277.048 577.637,277.74C578.383,279.248 579.018,280.747 579.512,282.255C580.033,283.844 580.418,285.428 580.618,287.029C580.634,287.24 580.819,287.398 581.029,287.382C581.24,287.366 581.398,287.181 581.382,286.971C581.301,284.481 580.846,281.974 579.995,279.46C579.466,277.895 578.801,276.323 577.963,274.776C577.181,273.332 576.25,271.911 575.211,270.502C573.776,268.555 572.106,266.66 570.29,264.749C570.151,264.589 569.909,264.572 569.749,264.71C569.589,264.849 569.572,265.091 569.71,265.251ZM438.379,277.941C438.244,276.315 438.234,274.738 438.243,273.175C438.247,272.431 438.262,271.694 438.268,270.96C438.275,270.218 438.279,269.48 438.282,268.745C438.285,267.85 438.279,266.962 438.289,266.075C438.305,264.721 438.324,263.385 438.381,262.043C438.405,261.833 438.254,261.643 438.043,261.619C437.833,261.595 437.643,261.746 437.619,261.957C437.326,263.545 437.038,265.13 436.852,266.751C436.73,267.823 436.631,268.902 436.616,269.994C436.602,271.071 436.665,272.157 436.777,273.249C436.941,274.842 437.243,276.432 437.621,278.059C437.654,278.268 437.85,278.411 438.059,278.379C438.268,278.346 438.411,278.15 438.379,277.941ZM561.775,250.31C563.822,251.94 565.691,253.718 567.465,255.588C568.646,256.833 569.764,258.13 570.856,259.461C571.939,260.78 572.999,262.125 573.997,263.541C575.464,265.622 576.838,267.808 578.054,270.161C578.143,270.353 578.371,270.437 578.563,270.348C578.755,270.259 578.838,270.031 578.749,269.839C577.716,267.339 576.552,264.97 575.194,262.753C574.262,261.23 573.258,259.77 572.145,258.406C571.022,257.029 569.795,255.749 568.497,254.545C566.566,252.753 564.457,251.162 562.225,249.69C562.054,249.565 561.814,249.604 561.69,249.775C561.565,249.946 561.604,250.186 561.775,250.31ZM495.156,265.65C494.063,265.01 493.049,264.601 492.076,264.416C491.594,264.324 491.126,264.305 490.675,264.328C490.349,264.345 490.031,264.39 489.727,264.472C488.955,264.68 488.251,265.057 487.634,265.588C486.849,266.265 486.206,267.172 485.673,268.301C485.563,268.481 485.62,268.717 485.801,268.827C485.981,268.937 486.217,268.88 486.327,268.699C486.875,267.989 487.465,267.44 488.088,266.999C488.346,266.816 488.612,266.669 488.882,266.53C489.281,266.326 489.7,266.197 490.134,266.087C490.694,265.946 491.281,265.862 491.929,265.876C492.81,265.894 493.77,266.009 494.844,266.35C495.037,266.436 495.264,266.349 495.35,266.156C495.436,265.963 495.349,265.736 495.156,265.65ZM547.102,267.131C543.959,266.139 540.796,265.145 537.539,264.273C535.417,263.705 533.263,263.17 531.059,262.718C528.913,262.278 526.72,261.922 524.484,261.609C521.269,261.159 517.963,260.845 514.538,260.619C514.328,260.598 514.14,260.751 514.119,260.962C514.098,261.172 514.251,261.36 514.462,261.381C517.84,261.834 521.085,262.41 524.249,263.023C526.09,263.379 527.898,263.76 529.688,264.134C530.904,264.387 532.112,264.635 533.312,264.883C535.143,265.263 536.953,265.643 538.749,266.033C541.498,266.63 544.209,267.229 546.898,267.869C547.101,267.926 547.313,267.806 547.369,267.602C547.426,267.399 547.306,267.187 547.102,267.131ZM470.479,262.117C467.993,262.134 465.517,262.18 463.04,262.343C461.39,262.452 459.742,262.593 458.101,262.803C456.461,263.013 454.833,263.296 453.206,263.595C450.769,264.044 448.355,264.581 445.933,265.123C445.725,265.159 445.586,265.358 445.623,265.567C445.659,265.775 445.858,265.914 446.067,265.877C448.517,265.557 450.965,265.293 453.418,265.013C455.049,264.826 456.681,264.658 458.31,264.456C459.937,264.253 461.56,264.021 463.186,263.803C465.629,263.476 468.063,263.133 470.521,262.883C470.732,262.871 470.894,262.691 470.883,262.479C470.871,262.268 470.691,262.106 470.479,262.117ZM549.586,264.626C546.131,263.711 542.652,262.792 539.081,261.987C536.757,261.463 534.401,260.97 531.997,260.555C529.654,260.151 527.268,259.827 524.837,259.54C521.337,259.126 517.744,258.837 514.034,258.618C513.824,258.599 513.637,258.755 513.618,258.966C513.599,259.176 513.755,259.363 513.966,259.382C517.636,259.827 521.177,260.38 524.636,260.959C526.645,261.295 528.623,261.651 530.58,261.997C531.91,262.232 533.231,262.458 534.543,262.685C536.546,263.031 538.527,263.375 540.492,263.726C543.502,264.264 546.469,264.798 549.414,265.374C549.62,265.421 549.826,265.292 549.874,265.086C549.921,264.88 549.792,264.674 549.586,264.626ZM442.382,263.029C442.648,261.112 443.083,259.283 443.579,257.487C443.914,256.272 444.301,255.085 444.696,253.904C445.095,252.713 445.498,251.53 445.96,250.365C446.656,248.608 447.42,246.883 448.326,245.201C448.437,245.021 448.381,244.785 448.201,244.674C448.021,244.563 447.785,244.619 447.674,244.799C446.551,246.405 445.522,248.047 444.652,249.779C444.067,250.943 443.538,252.135 443.118,253.372C442.7,254.599 442.387,255.867 442.149,257.159C441.801,259.044 441.65,260.978 441.618,262.971C441.602,263.181 441.76,263.366 441.971,263.382C442.181,263.398 442.366,263.24 442.382,263.029ZM472.496,260.117C469.949,260.03 467.386,259.955 464.788,259.999C463.087,260.029 461.373,260.09 459.651,260.226C457.955,260.36 456.254,260.571 454.541,260.811C452.028,261.161 449.505,261.62 446.943,262.121C446.734,262.153 446.589,262.348 446.621,262.557C446.653,262.766 446.848,262.911 447.057,262.879C448.77,262.701 450.464,262.56 452.147,262.427C453.515,262.318 454.87,262.228 456.219,262.131C457.584,262.034 458.94,261.95 460.287,261.845C461.927,261.718 463.551,261.572 465.166,261.439C467.638,261.236 470.075,261.023 472.504,260.883C472.716,260.881 472.886,260.707 472.883,260.496C472.881,260.284 472.707,260.114 472.496,260.117ZM549.075,261.241C545.581,260.421 542.076,259.66 538.535,259.05C536.178,258.645 533.81,258.286 531.429,258.015C529.053,257.745 526.666,257.566 524.272,257.425C520.7,257.213 517.115,257.137 513.514,257.117C513.303,257.109 513.125,257.275 513.117,257.486C513.109,257.697 513.275,257.875 513.486,257.883C515.868,258.049 518.237,258.262 520.604,258.489C522.976,258.717 525.339,258.975 527.698,259.251C528.832,259.384 529.964,259.523 531.097,259.653C532.798,259.849 534.498,260.04 536.195,260.245C537.897,260.449 539.595,260.656 541.292,260.88C543.844,261.218 546.387,261.575 548.925,261.993C549.132,262.034 549.334,261.899 549.376,261.692C549.417,261.485 549.283,261.282 549.075,261.241ZM470.985,257.617C468.57,257.592 466.158,257.568 463.734,257.644C462.126,257.695 460.516,257.769 458.908,257.907C457.305,258.044 455.707,258.249 454.108,258.468C451.718,258.796 449.341,259.205 446.952,259.62C446.742,259.646 446.593,259.838 446.62,260.048C446.646,260.258 446.838,260.407 447.048,260.38C449.456,260.188 451.854,260.052 454.253,259.894C455.854,259.788 457.453,259.698 459.048,259.567C460.647,259.435 462.239,259.269 463.831,259.108C466.233,258.866 468.618,258.591 471.015,258.383C471.226,258.375 471.391,258.197 471.383,257.985C471.375,257.774 471.197,257.609 470.985,257.617ZM547.876,236.363C550.377,237.338 552.777,238.497 555.121,239.799C556.66,240.653 558.158,241.587 559.642,242.58C561.092,243.551 562.529,244.573 563.925,245.708C565.927,247.337 567.871,249.145 569.701,251.24C569.834,251.405 570.075,251.431 570.24,251.299C570.405,251.166 570.431,250.925 570.299,250.76C568.606,248.466 566.807,246.419 564.864,244.625C563.494,243.361 562.07,242.208 560.571,241.198C559.04,240.165 557.436,239.278 555.793,238.494C553.323,237.316 550.752,236.409 548.124,235.637C547.923,235.569 547.705,235.676 547.637,235.876C547.569,236.077 547.676,236.295 547.876,236.363ZM451.37,248.1C451.962,246.352 452.733,244.739 453.592,243.183C454.169,242.139 454.805,241.141 455.467,240.155C456.127,239.171 456.806,238.199 457.557,237.263C458.666,235.88 459.869,234.546 461.24,233.299C461.405,233.166 461.431,232.925 461.299,232.76C461.166,232.595 460.925,232.569 460.76,232.701C459.194,233.812 457.756,234.996 456.481,236.316C455.601,237.227 454.787,238.188 454.086,239.223C453.38,240.265 452.785,241.377 452.277,242.533C451.533,244.226 451.01,246.018 450.63,247.9C450.575,248.105 450.696,248.315 450.9,248.37C451.105,248.425 451.315,248.304 451.37,248.1ZM463.322,238.207C464.325,236.827 465.434,235.555 466.613,234.33C467.39,233.522 468.202,232.748 469.041,231.989C469.662,231.426 470.3,230.877 470.947,230.329C471.587,229.787 472.233,229.245 472.9,228.716C473.886,227.934 474.902,227.172 475.962,226.436C477.002,225.715 478.067,225.011 479.18,224.339C479.367,224.239 479.438,224.007 479.339,223.82C479.239,223.633 479.007,223.562 478.82,223.661C476.801,224.604 474.877,225.61 473.082,226.759C471.837,227.556 470.646,228.402 469.546,229.335C468.421,230.29 467.39,231.331 466.437,232.427C464.996,234.083 463.764,235.882 462.678,237.793C462.563,237.971 462.615,238.208 462.793,238.322C462.971,238.437 463.208,238.385 463.322,238.207ZM532.026,229.382C533.565,229.367 535.076,229.415 536.576,229.487C537.591,229.536 538.593,229.606 539.592,229.68C540.6,229.755 541.599,229.847 542.594,229.938C543.263,230 543.93,230.054 544.594,230.119C545.995,230.254 547.379,230.416 548.755,230.623C550.15,230.833 551.528,231.07 552.897,231.369C553.101,231.426 553.313,231.306 553.369,231.103C553.426,230.899 553.306,230.687 553.103,230.631C551.077,229.952 549.023,229.362 546.907,228.929C545.513,228.644 544.099,228.407 542.663,228.272C541.25,228.139 539.818,228.102 538.374,228.123C536.263,228.153 534.137,228.349 531.974,228.618C531.763,228.632 531.603,228.815 531.618,229.026C531.632,229.237 531.815,229.397 532.026,229.382ZM481.174,228.342C484.047,227.014 486.945,225.903 489.85,224.917C491.821,224.248 493.797,223.66 495.775,223.117C497.773,222.568 499.77,222.059 501.787,221.649C504.827,221.031 507.891,220.578 511.01,220.383C511.222,220.377 511.389,220.201 511.383,219.99C511.377,219.778 511.201,219.611 510.99,219.617C507.811,219.59 504.662,219.776 501.54,220.237C499.456,220.545 497.382,220.953 495.336,221.51C493.313,222.06 491.317,222.751 489.342,223.54C486.454,224.695 483.631,226.099 480.826,227.658C480.638,227.754 480.562,227.985 480.658,228.174C480.754,228.362 480.985,228.438 481.174,228.342ZM506.101,225.37C507.957,224.956 509.803,224.628 511.645,224.348C512.887,224.158 514.123,224.001 515.357,223.86C516.599,223.718 517.838,223.604 519.074,223.503C519.903,223.436 520.729,223.366 521.555,223.312C523.287,223.199 525.014,223.138 526.744,223.149C528.48,223.16 530.212,223.224 531.949,223.38C532.158,223.408 532.352,223.261 532.38,223.051C532.408,222.842 532.261,222.648 532.051,222.62C529.43,222.152 526.8,221.842 524.149,221.752C522.382,221.692 520.608,221.709 518.834,221.852C517.079,221.994 515.325,222.256 513.574,222.597C511.006,223.098 508.459,223.808 505.899,224.63C505.695,224.686 505.574,224.897 505.63,225.101C505.686,225.305 505.897,225.426 506.101,225.37Z" style="fill:white;"/>
    </g>
</svg>
