<?xml version="1.0" encoding="UTF-8" standalone="no"?>
<!DOCTYPE svg PUBLIC "-//W3C//DTD SVG 1.1//EN" "http://www.w3.org/Graphics/SVG/1.1/DTD/svg11.dtd">
<svg width="100%" height="100%" viewBox="0 0 1000 1000" version="1.1" xmlns="http://www.w3.org/2000/svg" xmlns:xlink="http://www.w3.org/1999/xlink" xml:space="preserve" xmlns:serif="http://www.serif.com/" style="fill-rule:evenodd;clip-rule:evenodd;stroke-linejoin:round;stroke-miterlimit:2;">
    <g transform="matrix(6.27178,0,0,6.27178,-1749.57,-2530.84)">
        <path d="M350.789,454.925C352.043,456.365 353.736,457.55 355.5,458.414C356.33,458.821 357.177,459.156 358,459.413C359.066,459.745 360.094,459.946 361,460C361.488,460.029 364.085,465.862 366.102,475C368.191,484.466 371.871,497.33 376.068,510C383.222,531.597 387.99,553.118 388.789,554.882C388.814,554.921 388.838,554.96 388.863,555C388.847,554.995 388.823,554.956 388.789,554.882C385.218,549.138 381.173,541.935 378.254,533C375.227,523.732 372.655,513.345 368.396,502C366.545,497.071 364.711,491.774 363.076,486C361.038,478.8 359.972,472.44 358,467C354.875,465.444 352.223,464.05 350,462.959C346.691,461.337 344.584,459.041 343.025,457.118C345.005,456.754 347.193,456.252 348.903,455.684C349.631,455.442 350.276,455.186 350.789,454.925ZM340.454,454.532C340.479,455.127 342.665,458.204 343.132,458.456C339.288,464.643 334.099,469.738 328.5,474.5C330.402,467.003 332.961,459.771 340.454,454.532ZM344.971,460.256C345.178,460.438 345.392,460.62 345.612,460.803C345.77,464.836 345.31,469.046 344,473.5C341.607,470.817 340.502,468.151 340.5,465.5C341.694,464.663 343.949,461.967 344.971,460.256ZM340.465,446.392C343.011,447.763 345.823,448.378 349.013,447.92C348.371,450.077 348.822,452.045 349.898,453.738C349.484,453.931 348.99,454.119 348.443,454.3C346.588,454.917 344.148,455.453 342.069,455.811C340.969,454.125 340.419,452.499 340.332,451C340.238,449.397 340.289,447.858 340.465,446.392ZM357,443.75C359.898,443.75 362.25,446.102 362.25,449C362.25,451.898 359.898,454.25 357,454.25C354.102,454.25 351.75,451.898 351.75,449C351.75,446.102 354.102,443.75 357,443.75ZM340.703,444.847C341.138,442.52 341.9,440.399 342.907,438.525C342.938,438.517 342.969,438.508 343,438.5C346.349,440.897 349.582,440.964 354,438.5C357.732,438.867 360.193,437.404 362,435C363.117,434.863 364.349,434.372 365.789,433.246C366.345,433.773 366.882,434.357 367.398,435C373.917,443.128 366.516,453.334 361.417,453.059C362.4,451.99 363,450.565 363,449C363,447.422 362.39,445.986 361.393,444.915C363.319,439.313 354.958,440.731 354,441.489C351.889,443.161 350.499,444.781 349.676,446.323C346.263,447.027 343.327,446.378 340.703,444.847ZM353.5,434C353.411,435.185 353.43,436.348 353.5,437.5C350.22,439.148 346.892,439.392 343.5,437.578C342.82,433.993 343.013,430.812 344,428C347.669,428.954 351.009,430.653 353.5,434ZM354.5,437.5C357.059,437.875 359.425,436.935 361.5,434C361.93,428.192 361.367,423.568 359.5,420.5C356.669,425.021 354.749,430.438 354.5,437.5ZM342.5,429.436C342.148,431.988 341.975,434.716 342,437.5C337.488,435.376 333.648,431.851 331,427.5C334.683,427.277 338.855,427.559 342.5,429.436ZM363,434C368.706,427.604 368.456,421.081 365.5,414.5C364.561,415.779 363.293,418.053 361.637,421.5C362.701,425.595 363.028,429.777 363,434ZM354,432C354.988,427.423 356.127,422.86 359.5,418.5C360.149,418.952 360.649,419.619 361,420.5C361.685,417.138 360.522,413.067 358.5,411.5C356.322,414.002 355.218,417.137 354.5,420.5C352.192,416.412 349.749,413.329 347,412.5C345.846,415.944 345.68,420.058 346,424.5C342.864,422.043 339.704,419.81 336.5,418C336.279,420.72 336.26,423.544 336.5,426.5C338.5,426.761 340.5,427.156 342.5,428C342.673,427.231 343.032,426.596 343.5,426.039C347.162,427.239 350.679,429.14 354,432Z" style="fill:white;"/>
    </g>
</svg>
