<?xml version="1.0" encoding="UTF-8" standalone="no"?>
<!DOCTYPE svg PUBLIC "-//W3C//DTD SVG 1.1//EN" "http://www.w3.org/Graphics/SVG/1.1/DTD/svg11.dtd">
<svg width="100%" height="100%" viewBox="0 0 1000 1000" version="1.1" xmlns="http://www.w3.org/2000/svg" xmlns:xlink="http://www.w3.org/1999/xlink" xml:space="preserve" xmlns:serif="http://www.serif.com/" style="fill-rule:evenodd;clip-rule:evenodd;stroke-linejoin:round;stroke-miterlimit:2;">
    <g transform="matrix(3.21839,0,0,3.21839,-1108.39,-1045.1)">
        <path d="M615.003,533.166C611.925,559.001 598.565,576.588 580,590C590.099,599.583 602.757,602.138 610,598.734C619.302,594.362 635.047,552.197 615.003,533.166ZM384.497,533.166C387.575,559.001 400.935,576.588 419.5,590C409.401,599.583 396.743,602.138 389.5,598.734C380.198,594.362 364.453,552.197 384.497,533.166ZM500,372.075C528.514,373.262 551.426,379.893 571.757,389.027C581.615,398.612 589.749,410.049 596.201,422.528L595.994,422.607C592.115,424.1 588.283,425.764 584.685,427.855C582.507,429.12 580.396,430.548 578.556,432.277C577.459,433.308 576.455,434.456 575.68,435.751C575.189,436.571 574.794,437.45 574.544,438.373C574.383,438.964 574.282,439.571 574.247,440.182C574.223,440.599 574.229,441.018 574.265,441.434C574.514,444.345 576.154,446.94 578.042,449.083C578.382,449.469 578.733,449.843 579.094,450.209C579.586,450.706 580.095,451.187 580.618,451.652C581.264,452.229 581.931,452.783 582.612,453.318C583.546,454.053 584.506,454.752 585.485,455.425C586.791,456.323 588.13,457.174 589.489,457.989C591.27,459.057 593.088,460.064 594.927,461.028C597.302,462.273 599.715,463.445 602.151,464.566C605.256,465.994 608.399,467.336 611.564,468.627L611.885,468.758C619.622,509.742 612.868,551.568 592.66,572.805C559.882,602.478 529.258,599.714 499.75,580.165C470.242,599.714 439.618,602.478 406.84,572.805C386.632,551.568 379.878,509.742 387.615,468.758L387.936,468.627C391.101,467.336 394.244,465.994 397.349,464.566C399.785,463.445 402.198,462.273 404.573,461.028C406.412,460.064 408.23,459.057 410.011,457.989C411.37,457.174 412.709,456.323 414.015,455.425C414.994,454.752 415.954,454.053 416.888,453.318C417.569,452.783 418.236,452.229 418.882,451.652C419.405,451.187 419.914,450.706 420.406,450.209C420.767,449.843 421.118,449.469 421.458,449.083C423.346,446.94 424.986,444.345 425.235,441.434C425.271,441.018 425.277,440.599 425.253,440.182C425.218,439.571 425.117,438.964 424.956,438.373C424.706,437.45 424.311,436.571 423.82,435.751C423.045,434.456 422.041,433.308 420.944,432.277C419.104,430.548 416.993,429.12 414.815,427.855C411.217,425.764 407.385,424.1 403.506,422.607L403.299,422.528C409.751,410.049 417.885,398.612 427.743,389.027C448.074,379.893 470.986,373.262 499.5,372.075L499.5,372.054L499.75,372.064L500,372.054L500,372.075ZM501.096,578.178C537.302,596.794 558.282,590.021 577,579.409C592.267,570.754 602.61,553.859 607,527C573.462,529.215 539.741,521.422 518,507C504.45,498.012 500.077,483.14 514,472C511.976,463.829 507.481,456.521 499.75,455.21C492.019,456.521 487.524,463.829 485.5,472C499.423,483.14 495.05,498.012 481.5,507C459.759,521.422 426.038,529.215 392.5,527C396.89,553.859 407.233,570.754 422.5,579.409C441.163,589.989 462.076,596.755 498.093,578.337C497.831,577.794 497.897,577.124 498.316,576.638C499.567,575.183 500.281,573.754 500.297,572.301C500.312,570.915 499.678,569.553 498.45,568.169L486.087,559.268C485.387,558.764 485.228,557.787 485.732,557.087C486.236,556.387 487.213,556.228 487.913,556.732L499.615,565.157L515.252,556.628L516.748,559.372C516.748,559.372 501.869,567.488 501.869,567.488C502.949,569.102 503.439,570.725 503.422,572.334C503.401,574.274 502.634,576.234 501.096,578.178ZM530,470C540.072,470 548.25,477.682 548.25,487.144C548.25,496.606 540.072,504.288 530,504.288C519.928,504.288 511.75,496.606 511.75,487.144C511.75,477.682 519.928,470 530,470ZM469.5,470C459.428,470 451.25,477.682 451.25,487.144C451.25,496.606 459.428,504.288 469.5,504.288C479.572,504.288 487.75,496.606 487.75,487.144C487.75,477.682 479.572,470 469.5,470ZM530,475.416C536.495,475.416 541.768,479.41 541.768,484.33C541.768,489.25 536.495,493.245 530,493.245C523.505,493.245 518.232,489.25 518.232,484.33C518.232,479.41 523.505,475.416 530,475.416ZM470,475.416C476.495,475.416 481.768,479.41 481.768,484.33C481.768,489.25 476.495,493.245 470,493.245C463.505,493.245 458.232,489.25 458.232,484.33C458.232,479.41 463.505,475.416 470,475.416ZM610,425.888C597.013,425.888 582.99,431.167 580.627,436.611C577.949,442.782 583.055,454.307 610,462.812C631.417,469.572 640.586,442.292 639.483,435.958C638.471,430.147 622.987,425.888 610,425.888ZM389.5,425.888C402.487,425.888 416.51,431.167 418.873,436.611C421.551,442.782 416.445,454.307 389.5,462.812C368.083,469.572 358.914,442.292 360.017,435.958C361.029,430.147 376.513,425.888 389.5,425.888ZM499.75,393.156C464.211,394.184 436.892,404.217 435.882,426.459C435.939,435.155 438.716,440.174 442.249,440C469.586,438.652 486.7,438.812 499.75,439.573C512.8,438.812 529.914,438.652 557.251,440C560.784,440.174 563.561,435.155 563.618,426.459C562.608,404.217 535.289,394.184 499.75,393.156ZM500,360.002C509.287,360.066 518.551,361.178 527.53,363.59C534.105,365.357 540.496,367.801 546.567,370.885C550.278,372.771 553.856,374.899 557.308,377.224L557.532,377.377C544.094,371.02 526.359,365.883 499.75,363.26C473.141,365.883 455.406,371.02 441.968,377.377L442.192,377.224C445.644,374.899 449.222,372.771 452.933,370.885C459.004,367.801 465.395,365.357 471.97,363.59C480.949,361.178 490.213,360.066 499.5,360.002L499.5,360L500,360L500,360.002Z" style="fill:white;"/>
    </g>
</svg>
