<?xml version="1.0" encoding="UTF-8" standalone="no"?>
<!DOCTYPE svg PUBLIC "-//W3C//DTD SVG 1.1//EN" "http://www.w3.org/Graphics/SVG/1.1/DTD/svg11.dtd">
<svg width="100%" height="100%" viewBox="0 0 1000 1000" version="1.1" xmlns="http://www.w3.org/2000/svg" xmlns:xlink="http://www.w3.org/1999/xlink" xml:space="preserve" xmlns:serif="http://www.serif.com/" style="fill-rule:evenodd;clip-rule:evenodd;stroke-linejoin:round;stroke-miterlimit:2;">
    <g transform="matrix(2.07852,0,0,2.07852,-542.725,-205.658)">
        <path d="M498.5,344.769C509.32,343.187 519.161,343.582 528,346C539.799,342.803 542.359,329.908 543,315C546.471,317.641 550.329,320.057 555,322C561.19,314.373 567.296,306.728 573,299C575.841,299.689 578.55,300.613 581,302C581.711,297 580.58,292 579,287C581.182,284.686 582.288,282.112 582,279.2C582.885,272.43 585.026,266.269 589,261C606.434,273.3 625.305,278.897 646,276C633.178,281.861 616.655,283.564 591,275C604.872,291.632 617.232,307.263 629.632,322C641.512,336.119 637.449,354.381 631,369C618.128,397.147 616.63,414.939 639,411C634.095,413.692 629.18,416.371 619,412C621.052,422.233 625.191,435.322 618.869,446.935C611.653,460.19 608.05,474.886 606,491C606.37,514.262 613.473,525.749 627,526C605.895,532.141 595.99,515.629 599,473C600.512,460.514 573.101,370.882 571,360C569.985,370.747 594.827,459.136 591,469C583.022,480.195 582.926,493.77 585,508C590.807,538.118 580.972,547.188 565,548C596.703,528.892 566.683,425.544 560,407C548.798,430.174 556.828,531.013 566,538C563.526,539.358 560.709,539.832 557,538L560,556C543.212,525.321 535.222,432.511 526,400C521.39,425.577 522.769,510.572 530,535C519.49,512.878 509.941,390.851 507,367C502.783,387.55 502.574,507.459 500,528.597L500,556C499.526,551.179 499.027,546.366 498.5,541.567C497.973,546.366 497.474,551.179 497,556L497,528.597C494.426,507.459 491.217,440.55 487,420C484.059,443.851 477.51,512.878 467,535C474.231,510.572 475.61,391.577 471,366C461.778,398.511 453.788,525.321 437,556L440,538C436.291,539.832 433.474,539.358 431,538C440.172,531.013 445.202,463.174 434,440C427.317,458.544 400.297,528.892 432,548C416.028,547.188 406.193,538.118 412,508C414.074,493.77 413.978,480.195 406,469C402.173,459.136 421.015,350.747 420,340C417.899,350.882 396.488,460.514 398,473C401.01,515.629 391.105,532.141 370,526C383.527,525.749 390.63,514.262 391,491C388.95,474.886 385.347,460.19 378.131,446.935C371.809,435.322 375.948,422.233 378,412C367.82,416.371 362.905,413.692 358,411C380.37,414.939 378.872,397.147 366,369C359.551,354.381 355.488,336.119 367.368,322C379.768,307.263 392.128,291.632 406,275C380.345,283.564 363.822,281.861 351,276C371.695,278.897 390.566,273.3 408,261C411.974,266.269 414.115,272.43 415,279.2C414.712,282.112 415.818,284.686 418,287C416.42,292 415.289,297 416,302C418.45,300.613 421.159,299.689 424,299C429.704,306.728 435.81,314.373 442,322C446.671,320.057 450.529,317.641 454,315C454.641,329.908 457.201,342.803 469,346C477.839,343.582 487.68,343.187 498.5,344.769ZM403,305C398.488,313.973 391.625,322.654 391.819,332.415C392.385,360.854 388.829,385.313 380,406C380.68,398.859 383.51,390.58 380.318,383.455C373.281,367.746 370.495,348.97 377.556,330C381.773,318.672 390.029,310.105 403,305ZM594,305C598.512,313.973 605.375,322.654 605.181,332.415C604.615,360.854 608.171,385.313 617,406C616.32,398.859 613.49,390.58 616.682,383.455C623.719,367.746 626.505,348.97 619.444,330C615.227,318.672 606.971,310.105 594,305ZM498.5,164.486C504.097,162.302 506.149,158.235 506,153C504.178,137.226 510.002,132.523 527,144L543,123L546,140C557.3,144.445 557.109,152.165 553,161L557,166L547,172C520.023,158.113 509.648,175.908 501,197C517.542,182.551 532.784,179.441 546,194C552.775,190.31 559.775,188.976 567,190C569.009,198.126 568.943,205.684 568,213C561.032,217.633 549.736,213.852 537.207,208.713C538.651,206.675 539.5,204.186 539.5,201.5C539.5,194.601 533.899,189 527,189C520.101,189 514.5,194.601 514.5,201.5C514.5,203.153 514.822,204.731 515.406,206.177C513.576,206.405 511.766,206.692 510,207L512,212C520.917,211.541 525.879,216.371 528,225C532.178,224.874 536.234,226.201 540,231C544.329,237.742 549.904,239.428 556,239C553.689,242.542 550.799,245.349 547,247C549.736,249.967 554.403,251.634 561,252L550,265L563,261C561.416,264.468 559.183,267.53 556,270L559,270C557.562,273.843 555.563,277.367 552,280C554.145,284.68 551.11,283.906 547,282C548.411,283.961 550.019,285.935 553,288L548,294C550.273,293.491 552.324,293.395 554,294C552.443,297.106 549.956,299.686 547,302C555.009,301.883 562.452,301.159 569,300L554,318C548.568,315.412 544.343,312.738 541,310C539.572,317.826 538.025,325.573 536,333C535.556,337.698 533.246,340.97 528,342C518.667,340.426 509.334,339.617 500,340.616L500,341C499.5,340.925 499,340.856 498.5,340.792C498,340.856 497.5,340.925 497,341L497,340.616C487.666,339.617 478.333,340.426 469,342C463.754,340.97 461.444,337.698 461,333C458.975,325.573 457.428,317.826 456,310C452.657,312.738 448.432,315.412 443,318L428,300C434.548,301.159 441.991,301.883 450,302C447.044,299.686 444.557,297.106 443,294C444.676,293.395 446.727,293.491 449,294L444,288C446.981,285.935 448.589,283.961 450,282C445.89,283.906 442.855,284.68 445,280C441.437,277.367 439.438,273.843 438,270L441,270C437.817,267.53 435.584,264.468 434,261L447,265L436,252C442.597,251.634 447.264,249.967 450,247C446.201,245.349 443.311,242.542 441,239C447.096,239.428 452.671,237.742 457,231C460.766,226.201 464.822,224.874 469,225C471.121,216.371 476.083,211.541 485,212L487,207C485.234,206.692 483.424,206.405 481.594,206.177C482.178,204.731 482.5,203.153 482.5,201.5C482.5,194.601 476.899,189 470,189C463.101,189 457.5,194.601 457.5,201.5C457.5,204.186 458.349,206.675 459.793,208.713C447.264,213.852 435.968,217.633 429,213C428.057,205.684 427.991,198.126 430,190C437.225,188.976 444.225,190.31 451,194C464.216,179.441 479.458,182.551 496,197C487.352,175.908 476.977,158.113 450,172L440,166L444,161C439.891,152.165 439.7,144.445 451,140L454,123L470,144C486.998,132.523 492.822,137.226 491,153C490.851,158.235 492.903,162.302 498.5,164.486ZM498.448,253.372C498.152,256.747 496.601,265.675 494,265.5C488.665,266.269 481.795,264.755 481,260L480,253L480,260C479.427,264.467 477.631,266.177 475,266L472,266C469.232,265.141 468.964,262.543 469,260L469,253L467,273C464.803,267.261 463.292,259.891 462,252L463,263C462.221,263.855 461.207,264.156 460,264L467,318C469.146,317.598 470.35,320.212 471.5,323C470.927,319.435 470.768,316.114 473.5,314.5L478,314.5C481.023,314.581 481.382,319.528 482,324C481.963,319.937 481.877,315.856 485,313L495.5,313.5C497.907,314.203 498.329,322.686 498.5,325C498.513,322.756 498.598,314.334 501.5,313.5L512,313C515.123,315.856 515.037,319.937 515,324C515.618,319.528 515.977,314.581 519,314.5L523.5,314.5C526.232,316.114 526.073,319.435 525.5,323C526.65,320.212 527.854,317.598 530,318L537,264C535.793,264.156 534.779,263.855 534,263L535,252C533.708,259.891 532.197,267.261 530,273L528,253L528,260C528.036,262.543 527.768,265.141 525,266L522,266C519.369,266.177 517.573,264.467 517,260L517,253L516,260C515.205,264.755 508.335,266.269 503,265.5C499.589,265.304 498.357,257.171 498.448,253.372C498.48,253.012 498.497,252.716 498.5,252.5C498.473,252.754 498.456,253.047 498.448,253.372ZM535.284,210.858C535.356,210.905 535.428,210.952 535.5,211C554.931,218.935 568.797,220.429 571.5,209C571.97,212.282 572.334,215.558 567,218.5C572.562,217.249 575.784,216.975 578,217C573.565,220.128 571.121,223.445 570.5,227L574.5,227C574.118,227.905 573.964,228.734 574,229.5C578.742,230.932 581.312,232.252 582.5,233.5C580.067,234.465 577.88,236.078 576,238.5C578.369,238.815 580.33,239.519 582,240.5C580.457,241.19 579.29,242.19 578.5,243.5C585.066,244.427 590.597,245.975 594.5,248.5C589.901,248.813 586.114,250.561 583,253.5C587.144,253.459 590.647,253.846 593,255C585.826,256.179 580.599,262.525 579,278.5C578.253,282.909 576.316,285.064 574,286.5C576.592,290.377 578.183,294.387 579,298.5C576.802,297.955 576.133,295.073 572,293.5C567.675,298.132 560.573,299.616 552.5,300C554.465,298.323 555.564,295.975 556.5,293.5C556.057,292.694 554.774,292.019 552.5,291.5C553.779,290.442 554.551,289.07 555,287.5C553.992,286.935 553.177,286.074 552.5,285C554.841,285.103 555.154,283.264 554.5,280.5C557.404,277.351 559.877,273.9 561,269.5L560,269C562.54,265.982 564.507,262.63 566,259C562.5,259.725 559,260.587 555.5,261.5C558.815,258.165 561.715,254.511 563.5,250C558.647,249.286 554.342,249.095 550.5,247.5C554.287,244.751 557.007,241.656 558,238C551.757,236.366 545.403,237.825 539,226.5C537.402,223.674 532.906,223.834 529.5,223C528.439,219.195 526.812,215.89 523.998,213.637C524.96,213.874 525.965,214 527,214C530.176,214 533.077,212.813 535.284,210.858ZM461.716,210.858C461.644,210.905 461.572,210.952 461.5,211C442.069,218.935 428.203,220.429 425.5,209C425.03,212.282 424.666,215.558 430,218.5C424.438,217.249 421.216,216.975 419,217C423.435,220.128 425.879,223.445 426.5,227L422.5,227C422.882,227.905 423.036,228.734 423,229.5C418.258,230.932 415.688,232.252 414.5,233.5C416.933,234.465 419.12,236.078 421,238.5C418.631,238.815 416.67,239.519 415,240.5C416.543,241.19 417.71,242.19 418.5,243.5C411.934,244.427 406.403,245.975 402.5,248.5C407.099,248.813 410.886,250.561 414,253.5C409.856,253.459 406.353,253.846 404,255C411.174,256.179 416.401,262.525 418,278.5C418.747,282.909 420.684,285.064 423,286.5C420.408,290.377 418.817,294.387 418,298.5C420.198,297.955 420.867,295.073 425,293.5C429.325,298.132 436.427,299.616 444.5,300C442.535,298.323 441.436,295.975 440.5,293.5C440.943,292.694 442.226,292.019 444.5,291.5C443.221,290.442 442.449,289.07 442,287.5C443.008,286.935 443.823,286.074 444.5,285C442.159,285.103 441.846,283.264 442.5,280.5C439.596,277.351 437.123,273.9 436,269.5L437,269C434.46,265.982 432.493,262.63 431,259C434.5,259.725 438,260.587 441.5,261.5C438.185,258.165 435.285,254.511 433.5,250C438.353,249.286 442.658,249.095 446.5,247.5C442.713,244.751 439.993,241.656 439,238C445.243,236.366 451.597,237.825 458,226.5C459.598,223.674 464.094,223.834 467.5,223C468.561,219.195 470.188,215.89 473.002,213.637C472.04,213.874 471.035,214 470,214C466.824,214 463.923,212.813 461.716,210.858ZM406,243.5C395.549,225.053 389.191,204.679 391.561,182C392.133,176.534 388.85,171.642 387.422,167C385.433,160.537 387.413,154.471 389,150C400.883,152.325 412.896,159.861 425,171C425.967,173.849 427.753,175.587 429,177L427,178.5C427.982,179.094 428.798,179.956 429.5,181C428.147,180.877 426.958,181.157 426,182C426.995,182.842 427.847,183.824 428.5,185C426.682,186.642 425.195,188.642 424.5,191.5C425.333,191.754 426.167,192.343 427,193.5C426.187,197.861 426.031,202.194 426.5,206.5C425.41,206.407 424.424,206.035 423.5,205.5C422.817,208.5 422.739,211.5 423,214.5C420.041,214.489 417.932,215.626 416,217C418.894,219.163 420.82,221.285 422.5,223.5L420.5,225.5L421,228C417.288,229.238 413.652,230.627 410.5,233C412.463,233.798 414.327,235.007 416,237L412.5,240L414.5,242.5C411.543,242.431 408.677,242.657 406,243.5ZM591,243.5C601.451,225.053 607.809,204.679 605.439,182C604.867,176.534 608.15,171.642 609.578,167C611.567,160.537 609.587,154.471 608,150C596.117,152.325 584.104,159.861 572,171C571.033,173.849 569.247,175.587 568,177L570,178.5C569.018,179.094 568.202,179.956 567.5,181C568.853,180.877 570.042,181.157 571,182C570.005,182.842 569.153,183.824 568.5,185C570.318,186.642 571.805,188.642 572.5,191.5C571.667,191.754 570.833,192.343 570,193.5C570.813,197.861 570.969,202.194 570.5,206.5C571.59,206.407 572.576,206.035 573.5,205.5C574.183,208.5 574.261,211.5 574,214.5C576.959,214.489 579.068,215.626 581,217C578.106,219.163 576.18,221.285 574.5,223.5L576.5,225.5L576,228C579.712,229.238 583.348,230.627 586.5,233C584.537,233.798 582.673,235.007 581,237L584.5,240L582.5,242.5C585.457,242.431 588.323,242.657 591,243.5ZM489.863,229C486.797,228.031 483.769,227.418 480.863,228C479.199,224.955 480.475,223.799 483.863,224C485.863,225.122 487.863,226.998 489.863,229ZM510.137,229C513.203,228.031 516.231,227.418 519.137,228C520.801,224.955 519.525,223.799 516.137,224C514.137,225.122 512.137,226.998 510.137,229ZM480.895,207.628C480.123,208.996 479.101,210.205 477.891,211.192C479.515,210.742 481.371,210.501 483.5,210.5L484,208C482.932,207.848 481.897,207.724 480.895,207.628ZM516.105,207.628C516.877,208.996 517.899,210.205 519.109,211.192C517.485,210.742 515.629,210.501 513.5,210.5L513,208C514.068,207.848 515.103,207.724 516.105,207.628ZM556,174L561,163C557.653,166.946 552.892,170.593 547,174C526.571,163.139 513.437,171.41 505,192C519.383,179.259 533.354,179.864 547,191C555.631,187.761 562.892,186.222 570,190C569.006,188.243 567.673,186.91 566,186C566.434,184.869 567.125,183.883 568,183C566.719,182.816 565.378,182.842 564,183C564.834,181.486 566.028,180.167 567.5,179C565.333,178.259 563.167,178.978 561,180C563.687,177.087 566.79,174.944 570,173C565.823,171.353 561.259,171.272 556,174ZM441,174L436,163C439.347,166.946 444.108,170.593 450,174C470.429,163.139 483.563,171.41 492,192C477.617,179.259 463.646,179.864 450,191C441.369,187.761 434.108,186.222 427,190C427.994,188.243 429.327,186.91 431,186C430.566,184.869 429.875,183.883 429,183C430.281,182.816 431.622,182.842 433,183C432.166,181.486 430.972,180.167 429.5,179C431.667,178.259 433.833,178.978 436,180C433.313,177.087 430.21,174.944 427,173C431.177,171.353 435.741,171.272 441,174Z" style="fill:white;"/>
    </g>
</svg>
