<?xml version="1.0" encoding="UTF-8" standalone="no"?>
<!DOCTYPE svg PUBLIC "-//W3C//DTD SVG 1.1//EN" "http://www.w3.org/Graphics/SVG/1.1/DTD/svg11.dtd">
<svg width="100%" height="100%" viewBox="0 0 1000 1000" version="1.1" xmlns="http://www.w3.org/2000/svg" xmlns:xlink="http://www.w3.org/1999/xlink" xml:space="preserve" xmlns:serif="http://www.serif.com/" style="fill-rule:evenodd;clip-rule:evenodd;stroke-linejoin:round;stroke-miterlimit:2;">
    <g transform="matrix(5.29412,0,0,5.29412,-2933.24,-1988.24)">
        <path d="M641.5,544L641.5,424L637.5,424L628.5,437L628.5,414L640.5,414L640.5,394L635.5,385L660.5,385L655.5,394L655.5,414L667.5,414L667.5,437L658.5,424L654.5,424L654.5,544L647.5,555L641.5,544ZM627,464.5L607,452.5L597,464.5L607,477.5L627,464.5ZM670,464.5L690,452.5L700,464.5L690,477.5L670,464.5ZM647.692,457L643.385,465L647.692,473L652.615,465L647.692,457Z" style="fill:white;"/>
    </g>
</svg>
