<?xml version="1.0" encoding="UTF-8" standalone="no"?>
<!DOCTYPE svg PUBLIC "-//W3C//DTD SVG 1.1//EN" "http://www.w3.org/Graphics/SVG/1.1/DTD/svg11.dtd">
<svg width="100%" height="100%" viewBox="0 0 1000 1000" version="1.1" xmlns="http://www.w3.org/2000/svg" xmlns:xlink="http://www.w3.org/1999/xlink" xml:space="preserve" xmlns:serif="http://www.serif.com/" style="fill-rule:evenodd;clip-rule:evenodd;stroke-linejoin:round;stroke-miterlimit:2;">
    <g transform="matrix(14.4673,0,0,14.4673,-6496.71,-6037.92)">
        <path d="M503.651,469.386C499.356,477.156 492.016,481.524 486,482.451C470.499,484.838 460.358,479.595 459,467.764C458.115,460.053 464.903,454.537 471.5,453.5C475.477,452.875 476.781,449.517 477.5,448C479.013,444.81 484.228,434.245 487,432C485.039,418.221 487.096,416.708 494,430C495.729,429.855 497.386,429.878 499,430C504.25,417.349 506.343,419.835 506,434C508.282,434.354 510.699,456.635 503.651,469.386ZM495.297,454.347C494.843,454.555 494.311,454.569 493.741,454.276C492.752,453.768 492.739,452.576 493.197,451.579C493.655,450.582 494.584,449.781 495.481,450.054C496.437,450.345 496.792,451.178 496.732,452.045C497.44,449.933 496.955,447.483 494.5,446.757C492.697,446.223 490.827,447.788 489.906,449.734C488.985,451.68 489.012,454.008 491,455C492.682,455.84 494.204,455.385 495.297,454.347ZM484.622,453.91C484.169,454.118 483.636,454.133 483.066,453.84C482.077,453.331 482.064,452.139 482.522,451.142C482.98,450.145 483.909,449.344 484.806,449.617C485.762,449.908 486.117,450.741 486.057,451.608C486.765,449.496 486.28,447.046 483.825,446.32C482.022,445.787 480.153,447.351 479.231,449.297C478.31,451.243 478.337,453.571 480.325,454.563C482.007,455.403 483.529,454.948 484.622,453.91ZM499.098,442.958C498.924,442.333 498.705,441.809 498.431,441.356C498.29,441.122 498.133,440.919 497.963,440.733C497.666,440.409 497.325,440.164 496.956,439.983C496.791,439.902 496.618,439.839 496.44,439.792C496.21,439.732 495.969,439.697 495.721,439.693C495.385,439.687 495.037,439.727 494.676,439.819C494.364,439.898 494.048,440.006 493.721,440.158C493.306,440.352 492.891,440.599 492.452,440.906C492.399,440.932 492.379,440.996 492.406,441.048C492.432,441.101 492.496,441.121 492.548,441.094C493.233,440.849 493.852,440.714 494.431,440.648C494.687,440.618 494.928,440.61 495.163,440.614C495.344,440.617 495.518,440.636 495.688,440.658C495.859,440.681 496.024,440.717 496.186,440.758C496.46,440.827 496.721,440.92 496.972,441.057C497.221,441.194 497.464,441.353 497.698,441.56C498.126,441.94 498.531,442.414 498.902,443.042C498.925,443.096 498.988,443.121 499.042,443.098C499.096,443.075 499.121,443.012 499.098,442.958ZM488.573,440.423C488.297,440.049 488.024,439.741 487.724,439.474C487.575,439.342 487.423,439.233 487.265,439.134C486.989,438.961 486.702,438.847 486.409,438.776C486.274,438.744 486.137,438.726 485.999,438.722C485.815,438.716 485.629,438.731 485.446,438.774C485.19,438.835 484.939,438.932 484.696,439.082C484.487,439.212 484.284,439.361 484.09,439.559C483.853,439.801 483.637,440.08 483.421,440.429C483.382,440.472 483.385,440.539 483.429,440.579C483.472,440.618 483.539,440.615 483.579,440.571C484.004,440.244 484.399,440.044 484.785,439.898C484.951,439.835 485.111,439.798 485.269,439.765C485.389,439.74 485.505,439.733 485.622,439.724C485.737,439.715 485.851,439.717 485.966,439.72C486.161,439.724 486.355,439.738 486.554,439.781C486.757,439.825 486.961,439.874 487.172,439.953C487.58,440.105 487.992,440.295 488.427,440.577C488.47,440.618 488.537,440.615 488.577,440.573C488.618,440.53 488.615,440.463 488.573,440.423ZM504,433C503.747,431.061 503.382,429.89 502.888,429.602C502.393,429.314 501.77,429.909 501,431.5C503.347,424.489 504.161,426.027 504,433ZM492.5,430.5C491.062,428.367 490.167,427.565 489.704,427.823C489.241,428.081 489.21,429.397 489.5,431.5C486.965,421.212 489.275,424.569 492.5,430.5Z" style="fill:white;"/>
    </g>
</svg>
