<?xml version="1.0" encoding="UTF-8" standalone="no"?>
<!DOCTYPE svg PUBLIC "-//W3C//DTD SVG 1.1//EN" "http://www.w3.org/Graphics/SVG/1.1/DTD/svg11.dtd">
<svg width="100%" height="100%" viewBox="0 0 1000 1000" version="1.1" xmlns="http://www.w3.org/2000/svg" xmlns:xlink="http://www.w3.org/1999/xlink" xml:space="preserve" xmlns:serif="http://www.serif.com/" style="fill-rule:evenodd;clip-rule:evenodd;stroke-linejoin:round;stroke-miterlimit:2;">
    <g transform="matrix(1.36364,0,0,1.36364,-120.455,-127.273)">
        <path d="M455,451.595C481.702,409.487 535.107,409.487 561.81,447.539C588.514,485.59 588.514,561.692 561.81,637.795C543.118,694.872 495.054,751.949 455,790C414.946,751.949 366.881,694.872 348.189,637.795C321.486,561.692 321.486,485.59 348.189,447.539C374.892,409.487 428.297,409.487 455,451.595ZM535,626.07C535,606.163 518.837,590 498.93,590L491.07,590C471.163,590 455,606.163 455,626.07L455,633.93C455,653.837 471.163,670 491.07,670L498.93,670C518.837,670 535,653.837 535,633.93L535,626.07ZM535,511.508L386.508,660L375,648.492L523.492,500L535,511.508ZM495,603.846C486.509,603.846 479.615,610.74 479.615,619.231L479.615,640.769C479.615,649.26 486.509,656.154 495,656.154C503.491,656.154 510.385,649.26 510.385,640.769L510.385,619.231C510.385,610.74 503.491,603.846 495,603.846ZM375,533.93C375,553.837 391.163,570 411.07,570L418.93,570C438.837,570 455,553.837 455,533.93L455,526.07C455,506.163 438.837,490 418.93,490L411.07,490C391.163,490 375,506.163 375,526.07L375,533.93ZM415,556.154C423.491,556.154 430.385,549.26 430.385,540.769L430.385,519.231C430.385,510.74 423.491,503.846 415,503.846C406.509,503.846 399.615,510.74 399.615,519.231L399.615,540.769C399.615,549.26 406.509,556.154 415,556.154ZM455,367.177C466.353,367.177 475.57,376.394 475.57,387.747C475.57,399.099 466.353,408.316 455,408.316C443.647,408.316 434.43,399.099 434.43,387.747C434.43,376.394 443.647,367.177 455,367.177ZM455,260C467.344,260 477.366,270.022 477.366,282.366C477.366,294.71 467.344,304.731 455,304.731C442.656,304.731 432.634,294.71 432.634,282.366C432.634,270.022 442.656,260 455,260ZM455,130C474.317,130 490,145.683 490,165C490,184.317 474.317,200 455,200C435.683,200 420,184.317 420,165C420,145.683 435.683,130 455,130Z" style="fill:white;"/>
    </g>
</svg>
