<?xml version="1.0" encoding="UTF-8" standalone="no"?>
<!DOCTYPE svg PUBLIC "-//W3C//DTD SVG 1.1//EN" "http://www.w3.org/Graphics/SVG/1.1/DTD/svg11.dtd">
<svg width="100%" height="100%" viewBox="0 0 1000 1000" version="1.1" xmlns="http://www.w3.org/2000/svg" xmlns:xlink="http://www.w3.org/1999/xlink" xml:space="preserve" xmlns:serif="http://www.serif.com/" style="fill-rule:evenodd;clip-rule:evenodd;stroke-linejoin:round;stroke-miterlimit:2;">
    <g transform="matrix(4.61106,0,0,4.61106,-1646.03,-1281.14)">
        <path d="M393.5,455.5C398.31,451.673 401.705,447.423 406.5,444L404.5,439.5C395.429,446.167 391.133,452.833 387,459.5C389.365,464.236 393.904,466.212 404.5,460.5C461.072,427.7 510.101,412.911 548.5,423.5C559.656,419.062 563.73,413.603 562.896,404C562.641,401.071 561.851,399.527 559.5,398.5C537.155,389.91 516.412,390.336 496.333,395C461.184,403.164 432.36,427.651 393.5,455.5ZM400.022,426.611C391.441,407.549 380.92,389.281 368,372C366.03,362.904 379.867,348.028 418,328.068C440.805,316.132 472.778,309.604 511,308.56C516.838,308.4 520.98,311.288 523,316C523.903,325.301 525.021,334.637 526.303,344C528.162,357.583 530.364,371.222 532.746,384.89C532.62,384.887 534,391 534,391C533.257,390.867 532.285,390.704 531,390.5L530,384.863C473.162,383.923 435.323,406.533 402.482,425C405.793,432.073 410,442 410,442L408.5,443.153C408.5,443.153 405.674,437.594 400.022,426.611Z" style="fill:white;"/>
    </g>
</svg>
