<?xml version="1.0" encoding="UTF-8" standalone="no"?>
<!DOCTYPE svg PUBLIC "-//W3C//DTD SVG 1.1//EN" "http://www.w3.org/Graphics/SVG/1.1/DTD/svg11.dtd">
<svg width="100%" height="100%" viewBox="0 0 1000 1000" version="1.1" xmlns="http://www.w3.org/2000/svg" xmlns:xlink="http://www.w3.org/1999/xlink" xml:space="preserve" xmlns:serif="http://www.serif.com/" style="fill-rule:evenodd;clip-rule:evenodd;stroke-linejoin:round;stroke-miterlimit:2;">
    <g transform="matrix(6.17792,0,0,6.18043,-2599.33,-3032.48)">
        <path d="M476.038,616.288C476.01,614.287 476,613 476,613C483.821,614.869 491.334,616.062 498.5,616.5L498.673,617.75C498.958,617.092 509.873,627.498 509.5,628.5C509.435,628.675 500.786,621.026 498.872,619.33C499.816,627.167 500.297,636.62 500,640.5C499.895,641.869 497.706,643.08 496.5,642.67C491.764,641.062 486.601,637.82 481.044,640.5C479.739,641.13 477.259,639.414 477,638C476.433,634.908 476.176,624.611 476.069,618.236C474.481,619.789 469.055,624.137 469,623.5C468.976,623.225 473.209,618.715 476.038,616.288ZM544,622.5C542.485,627.103 539.277,629.86 535.5,632C538.475,637.88 545.127,638.319 548.247,634C550.735,630.557 550.551,624.03 544,622.5ZM535,614.391C533.457,619.2 530.053,622.36 525.5,624.5C529.289,632.203 538.135,629.336 539.556,627.269C540.78,625.489 543.229,616.101 535,614.391ZM530,606C524.992,610.526 519.044,613.504 512.5,615.5C518.215,623.848 523.292,624.503 529.5,620.079C532.769,617.75 535.372,613.286 530,606ZM442,615.5C436.684,613.19 433.87,609.512 433.5,604.5C428.456,606.372 427.584,611.773 430.504,615.5C433.273,619.035 437.926,619.595 442,615.5ZM540,576C536.512,568.384 536.123,561.079 538,554C528.274,531.63 500.547,522.504 473,529.127C445.426,535.756 436.597,566.135 448,596C455.514,605.571 467.316,609.838 488,613.058C503.43,615.46 517.716,615.141 527,606C533.898,603.538 541.364,582.61 540,576ZM450,612C443.675,609.596 440.002,605.153 440.5,597.5C434.184,601.11 434.449,606.501 437.202,610C439.64,613.1 444.262,615.134 450,612ZM459.5,608C452.647,604.582 447.577,599.802 444.5,593.5C442.237,598.869 442.624,603.561 445.064,606.5C448.307,610.405 454.51,611.784 459.5,608ZM512,586C492.93,585.64 474.268,582.949 456,578L456,595C474.955,604.015 491.819,604.414 508,602C510.062,597.591 511.269,592.098 512,586ZM540,555C539.002,562.119 539.623,569.28 542.5,576.5C548.774,573.069 551.53,568.438 551.171,564C550.805,559.482 547.153,556.083 540,555ZM550,556.5C552.758,561.201 553.432,566.486 551.5,572.5C559.485,573.794 563.182,568.041 562.749,562.5C562.266,556.336 557.808,554.072 550,556.5ZM562.5,556.5C563.757,560.545 564.265,564.674 563,569C570.175,572.781 574.368,564.508 574.514,562.5C574.674,560.321 570.574,552.023 562.5,556.5ZM515,566C515.552,566 516,566.448 516,567C516,567.552 515.552,568 515,568C514.448,568 514,567.552 514,567C514,566.448 514.448,566 515,566ZM458,558C458.552,558 459,558.448 459,559C459,559.552 458.552,560 458,560C457.448,560 457,559.552 457,559C457,558.448 457.448,558 458,558ZM463,530.573C457.338,533.769 452.356,538.279 448,544C447.846,539.048 449.053,534.722 452,532.022C454.757,529.497 459.187,529.256 463,530.573ZM457,527.5C451.27,528.743 447.317,532.817 445,539.5C442.123,534.447 441.708,529.8 445.259,526C448.251,522.799 453.045,523.496 457,527.5ZM451,523C445.852,522.037 442.586,525.501 440.5,531.743C435.536,527.218 435.028,522.512 440,518.673C443.746,515.78 447.672,517.504 451,523ZM513,529C507.623,526.416 501.298,524.383 493,523.5C497.3,518.874 501.411,517.224 506,518.728C509.392,519.84 511.775,523.06 513,529ZM515,526C513.262,521.25 509.758,517.553 503.5,515.5C508.25,507.367 512.153,507.119 516.5,511C520.787,514.828 521.207,519.713 515,526ZM522.5,515C528.716,510.264 528.493,504.503 525.5,502.018C522.025,499.133 516.568,499.766 512.5,506C516.487,508.228 519.831,511.215 522.5,515Z" style="fill:white;"/>
    </g>
</svg>
