<?xml version="1.0" encoding="UTF-8" standalone="no"?>
<!DOCTYPE svg PUBLIC "-//W3C//DTD SVG 1.1//EN" "http://www.w3.org/Graphics/SVG/1.1/DTD/svg11.dtd">
<svg width="100%" height="100%" viewBox="0 0 1000 1000" version="1.1" xmlns="http://www.w3.org/2000/svg" xmlns:xlink="http://www.w3.org/1999/xlink" xml:space="preserve" xmlns:serif="http://www.serif.com/" style="fill-rule:evenodd;clip-rule:evenodd;stroke-linejoin:round;stroke-miterlimit:2;">
    <g transform="matrix(4.54769,0,0,4.54769,-1847.55,-836.755)">
        <path d="M515.822,225.954C516.516,225.729 517.136,225.166 517.882,225.184C519.113,225.214 519.56,226.257 521.013,225.911C522.715,225.506 523.471,224.367 525.379,224.57C527.614,224.808 528.853,227.389 530.917,227.389C532.268,227.388 533.23,226.021 534.564,225.965C535.803,225.913 536.678,227.392 537.915,227.631C538.904,227.822 539.699,226.92 540.526,227.103C541.499,227.319 541.607,228.587 542.731,228.654C543.59,228.705 544.718,228.005 545.515,228.311C546.397,228.65 546.115,230.005 547.051,230.246C547.897,230.464 548.768,229.823 549.605,230.023C550.219,230.17 550.291,230.996 550.988,231.085C551.516,231.152 552.376,230.511 552.817,230.812C553.68,231.4 552.686,233.096 553.872,233.498C555.237,233.962 556.566,232.652 557.756,233.032C558.472,233.261 558.564,234.25 559.324,234.523C560.218,234.845 561.662,234.445 562.414,234.899C562.99,235.248 562.678,236.214 563.407,236.388C564.437,236.633 565.8,235.391 566.752,235.926C567.463,236.327 566.895,237.561 567.312,238.181C568.084,239.327 569.611,238.609 570.399,239.382C571.055,240.026 570.265,241.23 571.004,241.85C572.193,242.847 574.169,241.588 575.383,242.39C576.171,242.911 575.446,244.135 576.117,244.741C576.835,245.39 578.016,244.621 578.693,245.253C579.354,245.87 578.528,247.169 579.555,247.66C580.334,248.033 581.56,247.429 582.224,248.005C582.936,248.622 582.043,249.757 582.708,250.428C583.739,251.468 585.764,250.411 586.863,251.358C587.744,252.117 586.994,253.618 587.381,254.551C587.775,255.5 589.098,255.26 589.691,255.962C590.245,256.62 589.78,257.604 590.376,258.289C591.333,259.39 592.948,258.393 593.992,259.03C594.926,259.599 594.056,261.303 594.569,262.128C595.145,263.054 596.75,262.721 597.207,263.567C597.657,264.399 596.671,265.405 596.96,266.255C597.246,267.098 598.359,266.681 598.712,267.399C599.003,267.99 598.416,268.716 598.772,269.352C599.205,270.127 600.185,270.101 600.46,271.076C600.617,271.631 600.09,272.359 600.304,272.808C600.714,273.666 602.423,273.204 602.778,274.192C603.205,275.385 601.639,276.659 602.083,277.71C602.686,279.141 605.698,278.571 606.454,280.31C606.881,281.292 605.619,281.74 605.89,282.631C606.285,283.926 607.917,284.476 608.244,285.671C608.485,286.548 607.27,287.371 607.759,288.191C608.235,288.99 609.832,289.012 610.051,289.946C610.241,290.757 608.999,291.168 609.063,291.824C609.113,292.347 611.058,291.655 611.099,292.799C611.151,294.229 608.493,295.133 608.731,296.376C608.969,297.625 611.101,297.266 611.522,298.324C611.903,299.285 610.378,299.938 610.548,300.771C610.688,301.459 611.62,301.657 611.599,302.507C611.58,303.246 610.525,303.829 610.64,304.441C610.775,305.16 611.715,305.46 611.639,306.294C611.563,307.133 610.556,307.496 610.501,308.258C610.451,308.936 611.205,309.399 611.049,310.173C610.774,311.538 608.721,311.455 608.464,312.944C608.085,315.14 610.463,317.877 609.73,320.51C609.429,321.592 607.853,321.108 607.423,322.191C606.82,323.71 607.342,325.424 606.938,326.954C606.76,327.623 605.765,327.518 605.654,328.165C605.549,328.78 606.274,329.321 606.037,329.938C605.947,330.172 605.054,332.026 604.93,332.157C604.424,332.691 603.575,332.365 603.274,333.228C602.916,334.249 603.729,335.727 603.218,336.568C602.689,337.438 601.375,336.734 600.683,337.293C599.631,338.143 600.768,339.62 600.149,340.531C599.676,341.226 598.576,340.623 598.162,341.367C597.466,342.621 598.894,344.411 598.588,345.807C598.328,346.994 596.125,346.507 595.429,347.745C595.011,348.489 594.585,349.541 594.724,350.413C594.804,350.911 595.595,351.627 595.2,352.114C594.101,353.473 592.776,351.387 591.83,352.228C590.406,353.494 590.715,355.466 589.931,356.892C589.568,357.552 588.529,356.829 588.103,357.608C587.745,358.262 588.143,359.432 587.594,359.926C586.923,360.532 586.022,359.523 585.425,360.041C584.707,360.664 585.302,361.823 584.774,362.469C584.069,363.332 582.694,362.517 581.905,363.09C581.227,363.582 581.856,364.761 581.025,365.163C579.888,365.713 578.607,364.227 577.706,364.845C576.703,365.531 578.675,366.922 577.584,367.696C576.559,368.422 575.322,366.379 574.697,366.993C573.961,367.716 574.712,369.303 574.318,370.174C573.626,371.701 571.399,370.137 570.538,371.19C569.681,372.239 569.665,374.063 568.656,374.932C567.926,375.56 566.932,374.885 566.165,375.258C565.081,375.785 564.774,377.281 563.601,377.744C562.68,378.108 561.703,377.276 560.721,377.402C559.498,377.559 559.462,378.722 558.531,379.064C557.646,379.39 556.602,378.913 555.728,379.259C554.808,379.623 555.214,381.083 554.015,381.379C552.398,381.779 550.593,380.44 549.102,380.921C548.42,381.141 548.09,381.885 547.411,382.121C546.513,382.434 545.485,381.956 544.665,382.474C543.876,382.971 543.65,384.165 542.705,384.452C541.827,384.718 540.221,383.312 540.051,383.395C539.315,383.749 539.303,385.778 538.318,385.823C537.426,385.864 537.139,383.778 536.363,383.928C535.423,384.111 535.903,385.953 534.922,386.232C533.646,386.595 532.731,384.647 531.503,384.59C530.471,384.543 529.954,385.835 529.128,386.237C528.004,386.785 527.186,385.49 526.248,385.762C525.476,385.986 525.392,387.249 524.523,387.427C523.607,387.614 523.095,386.3 522.225,386.426C521.354,386.552 520.772,388.068 519.902,387.875C519.058,387.688 518.769,386.353 517.95,386.295C517.423,386.258 517.034,387.698 516.67,388.017C516.391,388.262 516.099,388.213 515.822,388.015C515.545,388.213 515.253,388.262 514.974,388.017C514.61,387.698 514.22,386.258 513.694,386.295C512.875,386.353 512.585,387.688 511.741,387.875C510.872,388.068 510.29,386.552 509.419,386.426C508.549,386.3 508.037,387.614 507.121,387.427C506.252,387.249 506.168,385.986 505.396,385.762C504.458,385.49 503.64,386.785 502.516,386.237C501.69,385.835 501.173,384.543 500.141,384.59C498.912,384.647 497.998,386.595 496.722,386.232C495.741,385.953 496.22,384.111 495.28,383.928C494.505,383.778 494.218,385.864 493.326,385.823C492.341,385.778 492.329,383.749 491.593,383.395C491.422,383.312 489.817,384.718 488.939,384.452C487.994,384.165 487.768,382.971 486.979,382.474C486.158,381.956 485.13,382.434 484.233,382.121C483.554,381.885 483.224,381.141 482.542,380.921C481.051,380.44 479.246,381.779 477.629,381.379C476.429,381.083 476.836,379.623 475.916,379.259C475.042,378.913 473.998,379.39 473.113,379.064C472.182,378.722 472.146,377.559 470.923,377.402C469.94,377.276 468.964,378.108 468.042,377.744C466.87,377.281 466.563,375.785 465.479,375.258C464.711,374.885 463.717,375.56 462.988,374.932C461.978,374.063 461.963,372.239 461.106,371.19C460.245,370.137 458.018,371.701 457.326,370.174C456.932,369.303 457.683,367.716 456.947,366.993C456.322,366.379 455.085,368.422 454.06,367.696C452.969,366.922 454.941,365.531 453.938,364.845C453.037,364.227 451.756,365.713 450.619,365.163C449.788,364.761 450.417,363.582 449.739,363.09C448.95,362.517 447.575,363.332 446.87,362.469C446.342,361.823 446.936,360.664 446.219,360.041C445.622,359.523 444.721,360.532 444.049,359.926C443.501,359.432 443.899,358.262 443.541,357.608C443.115,356.829 442.076,357.552 441.713,356.892C440.929,355.466 441.238,353.494 439.814,352.228C438.868,351.387 437.543,353.473 436.444,352.114C436.049,351.627 436.84,350.911 436.92,350.413C437.059,349.541 436.633,348.489 436.214,347.745C435.518,346.507 433.316,346.994 433.056,345.807C432.749,344.411 434.178,342.621 433.481,341.367C433.068,340.623 431.968,341.226 431.495,340.531C430.876,339.62 432.013,338.143 430.961,337.293C430.269,336.734 428.955,337.438 428.426,336.568C427.914,335.727 428.728,334.249 428.37,333.228C428.068,332.365 427.22,332.691 426.714,332.157C426.589,332.026 425.697,330.172 425.607,329.938C425.37,329.321 426.094,328.78 425.989,328.165C425.879,327.518 424.883,327.623 424.706,326.954C424.301,325.424 424.824,323.71 424.221,322.191C423.791,321.108 422.215,321.592 421.914,320.51C421.181,317.877 423.559,315.14 423.18,312.944C422.923,311.455 420.87,311.538 420.595,310.173C420.439,309.399 421.193,308.936 421.143,308.258C421.088,307.496 420.081,307.133 420.004,306.294C419.928,305.46 420.869,305.16 421.004,304.441C421.119,303.829 420.064,303.246 420.045,302.507C420.023,301.657 420.955,301.459 421.096,300.771C421.266,299.938 419.741,299.285 420.122,298.324C420.543,297.266 422.675,297.625 422.913,296.376C423.15,295.133 420.493,294.229 420.544,292.799C420.586,291.655 422.53,292.347 422.581,291.824C422.645,291.168 421.402,290.757 421.593,289.946C421.812,289.012 423.408,288.99 423.885,288.191C424.374,287.371 423.159,286.548 423.399,285.671C423.727,284.476 425.359,283.926 425.754,282.631C426.025,281.74 424.763,281.292 425.19,280.31C425.946,278.571 428.958,279.141 429.561,277.71C430.004,276.659 428.439,275.385 428.866,274.192C429.22,273.204 430.93,273.666 431.34,272.808C431.554,272.359 431.027,271.631 431.184,271.076C431.459,270.101 432.439,270.127 432.872,269.352C433.228,268.716 432.641,267.99 432.932,267.399C433.285,266.681 434.398,267.098 434.684,266.255C434.972,265.405 433.987,264.399 434.437,263.567C434.894,262.721 436.499,263.054 437.075,262.128C437.587,261.303 436.718,259.599 437.651,259.03C438.696,258.393 440.311,259.39 441.268,258.289C441.864,257.604 441.399,256.62 441.953,255.962C442.546,255.26 443.869,255.5 444.262,254.551C444.65,253.618 443.9,252.117 444.781,251.358C445.879,250.411 447.905,251.468 448.936,250.428C449.601,249.757 448.708,248.622 449.42,248.005C450.084,247.429 451.31,248.033 452.089,247.66C453.116,247.169 452.29,245.87 452.951,245.253C453.628,244.621 454.809,245.39 455.527,244.741C456.198,244.135 455.473,242.911 456.261,242.39C457.475,241.588 459.451,242.847 460.639,241.85C461.379,241.23 460.589,240.026 461.245,239.382C462.033,238.609 463.56,239.327 464.332,238.181C464.749,237.561 464.18,236.327 464.892,235.926C465.844,235.391 467.207,236.633 468.236,236.388C468.966,236.214 468.654,235.248 469.23,234.899C469.982,234.445 471.426,234.845 472.32,234.523C473.08,234.25 473.172,233.261 473.887,233.032C475.077,232.652 476.407,233.962 477.772,233.498C478.958,233.096 477.964,231.4 478.827,230.812C479.268,230.511 480.128,231.152 480.656,231.085C481.353,230.996 481.425,230.17 482.039,230.023C482.876,229.823 483.747,230.464 484.593,230.246C485.529,230.005 485.247,228.65 486.129,228.311C486.925,228.005 488.054,228.705 488.913,228.654C490.037,228.587 490.145,227.319 491.118,227.103C491.945,226.92 492.74,227.822 493.729,227.631C494.966,227.392 495.841,225.913 497.08,225.965C498.414,226.021 499.375,227.388 500.727,227.389C502.791,227.389 504.03,224.808 506.265,224.57C508.173,224.367 508.929,225.506 510.631,225.911C512.084,226.257 512.531,225.214 513.762,225.184C514.508,225.166 515.128,225.729 515.822,225.954ZM517.023,311.635C519.036,311.686 520.476,311.998 521.425,312.458C522.321,312.892 522.845,313.474 523.093,314.107C523.456,315.033 523.249,316.162 522.39,317.325C521.423,318.635 519.573,320.061 517.096,321.281C516.983,321.515 516.88,321.724 516.868,321.757C516.826,321.87 516.763,321.973 516.712,322.081C515.981,323.606 515.497,325.089 515.403,326.545C515.32,327.807 515.51,329.043 516.067,330.246C516.098,330.31 516.12,330.377 516.132,330.447C516.331,331.908 517.073,332.994 518.285,333.759C519.361,334.438 520.772,334.883 522.475,335.132C522.713,335.16 522.885,335.376 522.857,335.614C522.83,335.853 522.614,336.025 522.375,335.997C520.023,335.8 518.154,335.206 516.843,334.197C516.135,333.653 515.589,332.986 515.209,332.19C515.196,332.201 515.183,332.212 515.171,332.223C514.53,332.79 513.81,333.235 513.041,333.563C511.262,334.322 509.251,334.481 507.344,333.992C507.108,333.948 506.953,333.72 506.997,333.484C507.042,333.248 507.269,333.093 507.506,333.137C508.637,333.272 509.771,333.147 510.841,332.818C512.221,332.393 513.418,331.539 514.377,330.382C514.408,330.346 514.433,330.303 514.472,330.276C514.476,330.272 514.481,330.269 514.485,330.267C513.795,328.694 513.61,327.047 513.823,325.343C513.997,323.961 514.397,322.518 515.107,321.097C515.126,321.058 515.145,321.018 515.164,320.978C514.829,320.802 514.499,320.619 514.173,320.426C513.759,320.18 513.353,319.92 512.959,319.643C512.655,319.429 512.358,319.205 512.071,318.969C511.848,318.786 511.63,318.595 511.421,318.395C511.255,318.238 511.095,318.074 510.941,317.905C510.815,317.767 510.695,317.625 510.58,317.478C510.487,317.36 510.399,317.239 510.315,317.116C510.25,317.02 510.188,316.922 510.129,316.822C510.081,316.74 510.036,316.657 509.992,316.572C509.672,315.946 509.495,315.219 509.64,314.515C509.668,314.378 509.708,314.242 509.759,314.111C509.835,313.917 509.935,313.733 510.055,313.563C510.227,313.318 510.439,313.104 510.675,312.92C511.009,312.659 511.389,312.459 511.782,312.302C512.351,312.074 512.952,311.931 513.555,311.832C514.442,311.686 515.344,311.635 516.242,311.628L516.431,311.628C516.889,311.636 517.041,311.636 517.023,311.635ZM499.224,287.301C499.366,287.374 499.589,287.371 499.671,287.498C499.807,287.708 499.58,287.979 499.842,288.155C500.149,288.361 500.544,288.272 500.712,288.627C500.909,289.043 500.361,289.736 500.603,290.079C500.761,290.303 501.24,290.205 501.411,290.416C501.569,290.611 501.275,291.036 501.355,291.287C501.419,291.487 501.754,291.448 501.802,291.62C501.858,291.823 501.53,292.08 501.643,292.279C501.73,292.432 502.05,292.487 502.061,292.677C502.073,292.887 501.676,293.096 501.721,293.297C501.761,293.479 502.035,293.502 502.079,293.679C502.112,293.809 501.898,293.977 501.956,294.109C502,294.21 502.272,294.232 502.243,294.361C502.186,294.616 501.615,294.771 501.645,295.044C501.68,295.358 502.187,295.331 502.224,295.601C502.246,295.763 501.992,295.965 502.007,296.142C502.025,296.352 502.301,296.516 502.267,296.727C502.241,296.888 501.945,297.019 501.984,297.173C502.039,297.39 502.531,297.382 502.498,297.641C502.474,297.835 502.077,297.973 501.959,298.159C501.742,298.504 502.113,298.622 501.997,298.899C501.901,299.129 501.486,299.225 501.406,299.465C501.277,299.851 501.846,299.941 501.773,300.294C501.725,300.523 501.312,300.634 501.227,300.86C501.137,301.102 501.482,301.153 501.391,301.384C501.303,301.611 500.858,301.719 500.846,301.982C500.837,302.182 501.142,302.271 501.065,302.49C500.983,302.725 500.574,302.791 500.472,303.028C500.313,303.395 500.833,303.532 500.708,303.893C500.607,304.183 500.116,304.342 499.911,304.582C499.703,304.827 499.922,305.001 499.802,305.232C499.691,305.448 499.372,305.557 499.258,305.785C499.075,306.152 499.531,306.232 499.482,306.526C499.438,306.788 498.879,306.965 498.718,307.206C498.537,307.477 498.814,307.68 498.64,307.916C498.469,308.148 498.084,308.174 497.89,308.382C497.697,308.589 497.939,308.695 497.788,308.889C497.663,309.049 497.4,309.089 497.271,309.268C497.114,309.486 497.235,309.644 497.005,309.873C496.875,310.004 496.618,310.054 496.523,310.175C496.34,310.405 496.664,310.601 496.44,310.847C496.17,311.143 495.645,311.123 495.415,311.395C495.102,311.766 495.606,312.158 495.228,312.612C495.014,312.868 494.747,312.743 494.54,312.956C494.238,313.266 494.281,313.641 493.999,313.921C493.792,314.127 493.429,314.08 493.266,314.316C493.107,314.546 493.288,314.816 493.063,315.028C492.867,315.213 492.612,315.084 492.443,315.219C492.309,315.326 492.722,315.518 492.42,315.741C492.042,316.02 491.489,315.749 491.183,316.023C490.876,316.298 491.222,316.584 490.987,316.854C490.774,317.099 490.42,316.969 490.216,317.154C490.048,317.307 490.104,317.5 489.873,317.656C489.673,317.793 489.393,317.728 489.243,317.862C489.065,318.021 489.095,318.233 488.862,318.378C488.628,318.524 488.413,318.425 488.202,318.56C488.014,318.68 487.978,318.892 487.752,319.012C487.354,319.224 487.136,318.868 486.707,319.106C486.073,319.458 485.617,320.369 484.825,320.745C484.499,320.899 484.445,320.546 484.104,320.679C483.626,320.865 483.227,321.276 482.77,321.497C482.569,321.594 482.481,321.409 482.295,321.513C482.117,321.612 482.057,321.834 481.864,321.911C481.79,321.94 481.188,322.142 481.139,322.146C480.937,322.163 480.925,321.961 480.658,322.073C480.342,322.207 480.041,322.621 479.756,322.695C479.46,322.771 479.496,322.42 479.265,322.411C478.914,322.396 478.65,322.864 478.334,322.933C478.092,322.986 478.125,322.689 477.877,322.761C477.459,322.882 477.146,323.457 476.735,323.67C476.387,323.851 476.26,323.393 475.846,323.511C475.598,323.582 475.266,323.71 475.048,323.898C474.924,324.005 474.824,324.271 474.647,324.298C474.155,324.372 474.559,323.758 474.223,323.76C473.717,323.762 473.224,324.186 472.75,324.325C472.53,324.389 472.603,324.08 472.344,324.156C472.127,324.221 471.86,324.507 471.663,324.51C471.422,324.512 471.587,324.172 471.379,324.171C471.127,324.17 470.886,324.487 470.651,324.521C470.337,324.567 470.395,324.185 470.149,324.162C469.938,324.142 469.695,324.469 469.49,324.407C469.21,324.322 469.459,323.829 469.188,323.796C468.886,323.759 468.744,324.349 468.409,324.314C468.094,324.281 468.498,323.69 468.26,323.702C467.98,323.716 467.642,324.14 467.362,324.239C466.872,324.413 467.031,323.748 466.648,323.804C466.266,323.859 465.775,324.201 465.424,324.198C465.17,324.195 465.235,323.903 465.045,323.845C464.777,323.765 464.34,323.996 464.079,323.889C463.874,323.805 463.983,323.485 463.834,323.346C463.649,323.173 463.333,323.386 463.133,323.296C462.942,323.211 462.948,322.947 462.753,322.868C462.548,322.783 462.203,323.127 461.984,322.983C461.688,322.79 461.836,322.238 461.533,322.081C461.394,322.009 461.156,322.095 461.013,322.027C460.824,321.937 460.832,321.676 460.598,321.637C460.372,321.6 460.025,321.788 459.838,321.685C459.664,321.59 459.854,321.058 459.812,321.045C459.631,320.99 459.085,321.371 458.958,321.216C458.842,321.075 459.369,320.634 459.238,320.533C459.079,320.412 458.64,320.839 458.451,320.729C458.205,320.586 458.62,320.066 458.492,319.851C458.384,319.671 457.977,319.829 457.773,319.768C457.494,319.685 457.746,319.304 457.564,319.2C457.413,319.114 457.065,319.338 456.916,319.228C456.758,319.111 457.051,318.778 456.916,318.657C456.78,318.536 456.305,318.726 456.256,318.545C456.207,318.37 456.532,318.069 456.451,317.923C456.4,317.828 455.968,318.035 455.84,318.035C455.742,318.035 455.721,317.977 455.741,317.894C455.656,317.885 455.609,317.846 455.642,317.753C455.685,317.633 456.026,317.296 455.954,317.216C455.843,317.091 455.451,317.295 455.302,317.19C455.149,317.082 455.487,316.699 455.419,316.531C455.352,316.362 454.939,316.525 454.883,316.338C454.829,316.16 455.158,315.908 455.128,315.737C455.091,315.53 454.648,315.639 454.664,315.349C454.675,315.136 454.961,314.806 454.828,314.644C454.669,314.45 454.04,314.666 453.988,314.386C453.948,314.17 454.499,313.902 454.438,313.711C454.388,313.554 453.794,313.9 453.701,313.745C453.598,313.573 454.141,313.187 454.15,312.998C454.152,312.955 453.588,312.953 453.557,312.757C453.523,312.546 453.817,312.283 453.858,312.058C453.901,311.824 453.653,311.744 453.632,311.536C453.616,311.378 453.777,311.183 453.757,311.029C453.711,310.69 453.141,310.643 453.06,310.299C452.999,310.044 453.438,309.836 453.428,309.615C453.419,309.404 453.169,309.321 453.153,309.112C453.136,308.893 453.444,308.668 453.343,308.435C453.262,308.248 452.925,308.243 452.915,308.021C452.902,307.739 453.268,307.406 453.283,307.126C453.293,306.928 452.996,306.891 453.079,306.651C453.194,306.319 453.682,305.972 453.863,305.632C454.045,305.29 453.365,305.216 453.694,304.813C453.882,304.583 454.396,304.408 454.504,304.149C454.595,303.929 453.902,304.11 453.978,303.802C454.058,303.475 454.661,303.54 454.728,303.244C454.789,302.978 454.24,303.046 454.255,302.753C454.266,302.539 454.656,302.421 454.709,302.215C454.77,301.976 454.391,301.902 454.54,301.622C454.652,301.412 455.032,301.292 455.115,301.055C455.185,300.858 454.809,300.899 454.893,300.673C454.961,300.489 455.322,300.334 455.455,300.151C455.615,299.934 455.299,299.898 455.434,299.713C455.725,299.313 456.29,298.992 456.463,298.517C456.578,298.201 455.864,298.375 456.1,297.936C456.185,297.778 456.469,297.775 456.612,297.694C456.862,297.552 457.095,297.283 457.246,297.073C457.497,296.724 457.109,296.45 457.397,296.183C457.736,295.868 458.383,295.768 458.638,295.415C458.789,295.206 458.499,295.137 458.63,294.927C458.802,294.653 459.331,294.563 459.436,294.227C459.506,294.007 459.163,293.922 459.335,293.67C459.501,293.426 459.992,293.282 460.224,293.03C460.421,292.817 460.234,292.738 460.318,292.553C460.339,292.507 460.732,292.009 460.784,291.95C460.922,291.794 461.152,291.812 461.305,291.679C461.465,291.538 461.321,291.393 461.48,291.237C461.843,290.881 462.364,290.644 462.701,290.257C462.941,289.982 462.627,289.811 462.882,289.557C463.503,288.938 464.516,288.816 465.061,288.339C465.43,288.015 465.168,287.69 465.502,287.387C465.691,287.215 465.904,287.252 466.08,287.116C466.278,286.963 466.257,286.728 466.474,286.556C466.689,286.386 466.879,286.486 467.088,286.373C467.265,286.276 467.299,285.991 467.495,285.848C467.72,285.684 467.882,285.802 468.083,285.695C468.326,285.566 468.324,285.19 468.626,285.072C468.959,284.942 469.112,285.363 469.475,285.167C469.836,284.972 469.768,284.36 470.158,284.099C470.469,283.89 470.511,284.343 470.657,284.253C470.841,284.139 470.806,283.856 471.046,283.734C471.322,283.594 471.514,283.855 471.784,283.783C472.062,283.71 472.14,283.353 472.404,283.227C472.763,283.056 473.101,283.223 473.495,283.044C473.765,282.921 473.738,282.627 474.051,282.512C474.606,282.31 474.805,282.917 475.26,282.748C475.593,282.623 475.752,282.122 476.122,281.968C476.429,281.84 476.505,282.211 476.783,282.117C476.928,282.068 477.062,281.843 477.229,281.765C477.523,281.626 477.631,281.794 477.889,281.719C478.101,281.658 478.227,281.424 478.42,281.361C478.654,281.284 478.672,281.547 478.932,281.436C479.193,281.323 479.348,280.97 479.624,280.887C479.904,280.803 480.003,281.133 480.318,281.054C480.599,280.983 480.955,280.517 481.217,280.565C481.51,280.618 481.431,281.074 481.838,281.025C482.091,280.995 482.301,280.732 482.542,280.7C482.8,280.666 482.891,280.931 483.191,280.817C483.487,280.705 483.802,280.297 484.108,280.3C484.491,280.304 484.444,280.84 484.843,280.815C485.101,280.798 485.301,280.436 485.55,280.438C485.782,280.439 485.763,280.757 485.954,280.816C486.206,280.894 486.458,280.511 486.701,280.504C486.95,280.497 486.881,280.839 487.139,280.836C487.38,280.833 487.624,280.481 487.856,280.514C488.213,280.564 488.106,281.13 488.512,281.139C488.765,281.145 488.996,280.786 489.245,280.773C489.545,280.758 489.53,281.148 489.928,281.059C490.143,281.011 490.408,280.684 490.598,280.727C490.853,280.784 490.679,281.244 490.865,281.369C490.997,281.457 491.22,281.223 491.381,281.253C491.591,281.292 491.652,281.607 491.843,281.695C492.005,281.77 492.281,281.598 492.426,281.674C492.667,281.8 492.471,282.268 492.755,282.407C493.001,282.528 493.34,282.043 493.599,282.075C493.731,282.092 493.659,282.355 493.739,282.43C493.844,282.529 494.074,282.385 494.186,282.46C494.337,282.561 494.267,282.826 494.424,282.926C494.598,283.036 494.929,282.733 495.123,282.816C495.298,282.89 495.242,283.21 495.356,283.343C495.505,283.517 495.858,283.295 496.03,283.416C496.175,283.519 496.026,283.821 496.193,283.949C496.402,284.109 496.901,283.976 497.032,284.191C497.172,284.423 496.918,284.841 497.076,285.065C497.317,285.408 498.154,285.127 498.479,285.453C498.756,285.732 498.539,286.072 498.629,286.431C498.706,286.738 499.038,286.615 499.19,286.814C499.282,286.934 499.203,287.144 499.224,287.301ZM533.191,287.001C533.049,287.074 532.826,287.071 532.743,287.198C532.608,287.408 532.835,287.679 532.573,287.855C532.265,288.061 531.871,287.972 531.703,288.327C531.506,288.743 532.053,289.436 531.812,289.779C531.654,290.003 531.175,289.904 531.004,290.115C530.845,290.311 531.14,290.736 531.06,290.986C530.995,291.187 530.66,291.148 530.613,291.32C530.557,291.523 530.885,291.78 530.771,291.979C530.685,292.132 530.365,292.187 530.354,292.377C530.342,292.587 530.738,292.796 530.694,292.997C530.653,293.179 530.38,293.202 530.336,293.379C530.303,293.509 530.517,293.677 530.459,293.809C530.415,293.909 530.143,293.931 530.172,294.061C530.229,294.316 530.8,294.471 530.77,294.744C530.734,295.058 530.228,295.031 530.191,295.301C530.168,295.463 530.423,295.665 530.408,295.842C530.389,296.052 530.113,296.216 530.148,296.427C530.174,296.588 530.469,296.719 530.431,296.872C530.376,297.09 529.884,297.082 529.916,297.341C529.94,297.534 530.338,297.673 530.456,297.859C530.673,298.204 530.302,298.322 530.417,298.599C530.513,298.829 530.929,298.925 531.009,299.165C531.137,299.551 530.569,299.641 530.642,299.994C530.69,300.223 531.103,300.334 531.187,300.56C531.277,300.802 530.933,300.852 531.024,301.084C531.112,301.311 531.557,301.418 531.569,301.682C531.578,301.882 531.273,301.971 531.349,302.19C531.432,302.425 531.841,302.491 531.943,302.728C532.102,303.095 531.581,303.232 531.707,303.593C531.808,303.883 532.298,304.042 532.503,304.282C532.712,304.527 532.493,304.701 532.612,304.932C532.724,305.148 533.042,305.257 533.157,305.485C533.34,305.852 532.884,305.932 532.933,306.225C532.976,306.488 533.535,306.665 533.697,306.906C533.878,307.177 533.601,307.38 533.775,307.616C533.945,307.848 534.33,307.874 534.525,308.082C534.717,308.289 534.475,308.395 534.627,308.589C534.752,308.749 535.015,308.788 535.144,308.968C535.301,309.186 535.18,309.344 535.409,309.573C535.54,309.704 535.797,309.754 535.892,309.874C536.075,310.105 535.751,310.301 535.975,310.546C536.245,310.843 536.77,310.823 537,311.095C537.313,311.465 536.808,311.858 537.187,312.312C537.4,312.568 537.668,312.443 537.875,312.656C538.177,312.966 538.134,313.341 538.416,313.621C538.623,313.827 538.986,313.78 539.149,314.016C539.307,314.246 539.127,314.515 539.352,314.728C539.547,314.913 539.803,314.784 539.971,314.919C540.105,315.026 539.693,315.218 539.995,315.441C540.372,315.719 540.926,315.449 541.231,315.723C541.538,315.998 541.193,316.284 541.428,316.554C541.641,316.799 541.995,316.669 542.198,316.854C542.366,317.007 542.311,317.199 542.541,317.356C542.742,317.493 543.021,317.427 543.172,317.562C543.349,317.72 543.32,317.933 543.553,318.078C543.787,318.224 544.002,318.125 544.213,318.26C544.4,318.379 544.437,318.592 544.662,318.712C545.061,318.924 545.278,318.568 545.708,318.806C546.341,319.158 546.798,320.069 547.59,320.445C547.916,320.599 547.97,320.246 548.31,320.379C548.789,320.565 549.187,320.976 549.645,321.197C549.845,321.294 549.934,321.109 550.12,321.213C550.297,321.311 550.358,321.534 550.551,321.611C550.624,321.64 551.226,321.842 551.276,321.846C551.478,321.863 551.49,321.661 551.757,321.773C552.072,321.907 552.374,322.321 552.659,322.394C552.955,322.471 552.919,322.12 553.15,322.11C553.501,322.096 553.764,322.564 554.081,322.633C554.323,322.686 554.29,322.389 554.538,322.461C554.956,322.582 555.269,323.157 555.679,323.37C556.028,323.551 556.155,323.093 556.568,323.211C556.817,323.282 557.149,323.41 557.366,323.598C557.491,323.705 557.59,323.971 557.767,323.998C558.26,324.072 557.855,323.458 558.192,323.46C558.698,323.462 559.191,323.886 559.665,324.025C559.884,324.089 559.812,323.78 560.071,323.856C560.288,323.92 560.555,324.207 560.752,324.209C560.993,324.212 560.827,323.872 561.036,323.871C561.287,323.869 561.529,324.187 561.764,324.221C562.078,324.267 562.019,323.885 562.265,323.862C562.477,323.842 562.72,324.169 562.925,324.107C563.205,324.022 562.956,323.529 563.227,323.496C563.528,323.459 563.671,324.049 564.006,324.014C564.321,323.981 563.917,323.39 564.155,323.402C564.435,323.416 564.773,323.84 565.052,323.939C565.543,324.113 565.384,323.448 565.767,323.504C566.148,323.559 566.64,323.901 566.991,323.897C567.244,323.895 567.179,323.602 567.369,323.545C567.637,323.465 568.074,323.696 568.336,323.589C568.541,323.505 568.432,323.185 568.58,323.046C568.765,322.873 569.082,323.086 569.282,322.996C569.473,322.911 569.467,322.647 569.662,322.567C569.867,322.483 570.211,322.827 570.431,322.683C570.727,322.49 570.579,321.938 570.882,321.781C571.021,321.709 571.259,321.795 571.402,321.727C571.59,321.637 571.582,321.376 571.817,321.337C572.043,321.3 572.389,321.488 572.577,321.385C572.751,321.29 572.561,320.758 572.603,320.745C572.784,320.69 573.33,321.071 573.457,320.916C573.572,320.775 573.046,320.334 573.177,320.233C573.336,320.112 573.774,320.539 573.964,320.429C574.21,320.285 573.794,319.766 573.923,319.551C574.03,319.371 574.438,319.529 574.642,319.468C574.92,319.385 574.668,319.004 574.851,318.9C575.001,318.814 575.35,319.038 575.499,318.928C575.656,318.811 575.364,318.478 575.499,318.357C575.635,318.236 576.109,318.426 576.159,318.245C576.208,318.07 575.883,317.769 575.963,317.623C576.015,317.528 576.447,317.735 576.575,317.735C576.673,317.735 576.694,317.677 576.674,317.594C576.759,317.585 576.806,317.546 576.773,317.453C576.73,317.333 576.389,316.996 576.461,316.916C576.572,316.791 576.964,316.995 577.113,316.89C577.266,316.782 576.927,316.399 576.995,316.231C577.063,316.062 577.475,316.225 577.532,316.038C577.586,315.86 577.257,315.608 577.287,315.437C577.324,315.23 577.767,315.339 577.751,315.049C577.739,314.836 577.453,314.506 577.587,314.344C577.745,314.15 578.375,314.366 578.427,314.086C578.466,313.87 577.916,313.602 577.977,313.411C578.027,313.254 578.62,313.6 578.714,313.444C578.816,313.273 578.273,312.887 578.264,312.698C578.262,312.654 578.827,312.653 578.858,312.457C578.891,312.246 578.598,311.983 578.556,311.758C578.513,311.524 578.762,311.444 578.783,311.236C578.798,311.078 578.638,310.883 578.658,310.728C578.703,310.39 579.273,310.343 579.355,309.999C579.416,309.744 578.976,309.536 578.986,309.314C578.996,309.104 579.246,309.021 579.262,308.812C579.278,308.593 578.971,308.368 579.071,308.135C579.152,307.948 579.49,307.943 579.5,307.721C579.512,307.439 579.147,307.106 579.132,306.826C579.122,306.628 579.419,306.591 579.336,306.351C579.221,306.019 578.733,305.672 578.552,305.332C578.37,304.99 579.049,304.916 578.72,304.512C578.533,304.283 578.019,304.108 577.911,303.849C577.819,303.629 578.512,303.81 578.437,303.502C578.357,303.175 577.753,303.24 577.686,302.944C577.626,302.678 578.174,302.746 578.16,302.453C578.149,302.239 577.759,302.121 577.706,301.915C577.644,301.676 578.024,301.602 577.875,301.322C577.763,301.112 577.383,300.992 577.299,300.755C577.23,300.558 577.606,300.599 577.522,300.373C577.453,300.189 577.093,300.034 576.959,299.851C576.8,299.634 577.116,299.598 576.981,299.412C576.69,299.013 576.124,298.692 575.951,298.217C575.836,297.901 576.551,298.075 576.315,297.636C576.23,297.478 575.945,297.474 575.802,297.394C575.552,297.252 575.32,296.983 575.169,296.773C574.918,296.424 575.306,296.15 575.018,295.883C574.679,295.568 574.032,295.467 573.777,295.115C573.626,294.906 573.916,294.837 573.785,294.627C573.612,294.353 573.083,294.263 572.978,293.927C572.909,293.707 573.252,293.622 573.08,293.37C572.914,293.126 572.422,292.982 572.19,292.73C571.994,292.517 572.18,292.437 572.097,292.253C572.076,292.207 571.683,291.709 571.63,291.65C571.493,291.494 571.263,291.512 571.11,291.379C570.949,291.238 571.094,291.093 570.935,290.937C570.572,290.581 570.051,290.344 569.714,289.957C569.473,289.682 569.787,289.511 569.532,289.257C568.911,288.638 567.899,288.516 567.354,288.039C566.985,287.715 567.247,287.39 566.913,287.087C566.723,286.915 566.511,286.952 566.335,286.816C566.137,286.663 566.157,286.427 565.941,286.256C565.726,286.086 565.536,286.186 565.327,286.073C565.149,285.976 565.116,285.691 564.92,285.548C564.694,285.384 564.533,285.502 564.332,285.395C564.088,285.266 564.091,284.889 563.789,284.771C563.456,284.641 563.303,285.063 562.94,284.867C562.579,284.672 562.647,284.06 562.257,283.798C561.945,283.589 561.904,284.043 561.758,283.953C561.574,283.839 561.609,283.556 561.369,283.434C561.093,283.294 560.9,283.555 560.63,283.483C560.353,283.41 560.274,283.053 560.011,282.927C559.652,282.756 559.314,282.923 558.92,282.744C558.649,282.621 558.677,282.327 558.363,282.212C557.808,282.01 557.609,282.617 557.155,282.447C556.821,282.323 556.662,281.822 556.292,281.668C555.986,281.54 555.91,281.911 555.632,281.817C555.486,281.768 555.353,281.543 555.185,281.464C554.892,281.326 554.784,281.494 554.526,281.419C554.313,281.358 554.187,281.124 553.995,281.061C553.761,280.984 553.743,281.247 553.483,281.136C553.221,281.023 553.067,280.67 552.791,280.587C552.51,280.503 552.412,280.833 552.096,280.754C551.815,280.683 551.46,280.217 551.198,280.264C550.905,280.318 550.984,280.774 550.576,280.725C550.323,280.695 550.113,280.432 549.872,280.4C549.614,280.365 549.524,280.63 549.224,280.517C548.928,280.405 548.613,279.997 548.306,280C547.924,280.004 547.971,280.54 547.571,280.515C547.314,280.498 547.113,280.136 546.865,280.137C546.633,280.139 546.651,280.457 546.461,280.516C546.209,280.593 545.957,280.211 545.714,280.204C545.465,280.197 545.534,280.539 545.276,280.535C545.035,280.533 544.791,280.181 544.559,280.213C544.202,280.264 544.309,280.829 543.903,280.839C543.65,280.844 543.419,280.486 543.17,280.473C542.87,280.458 542.885,280.847 542.487,280.759C542.272,280.711 542.007,280.384 541.816,280.427C541.561,280.484 541.735,280.944 541.549,281.069C541.418,281.157 541.195,280.923 541.034,280.953C540.824,280.992 540.763,281.307 540.572,281.395C540.41,281.47 540.134,281.298 539.989,281.374C539.748,281.5 539.944,281.968 539.66,282.107C539.414,282.228 539.075,281.743 538.816,281.775C538.684,281.791 538.755,282.055 538.676,282.13C538.57,282.229 538.34,282.085 538.229,282.159C538.078,282.261 538.148,282.526 537.991,282.626C537.817,282.736 537.486,282.433 537.292,282.515C537.117,282.59 537.173,282.91 537.059,283.043C536.91,283.217 536.557,282.995 536.385,283.116C536.239,283.219 536.389,283.521 536.222,283.649C536.013,283.809 535.514,283.676 535.383,283.891C535.242,284.123 535.497,284.541 535.339,284.765C535.098,285.108 534.261,284.827 533.936,285.153C533.658,285.431 533.876,285.772 533.786,286.131C533.709,286.438 533.377,286.315 533.225,286.514C533.133,286.634 533.211,286.843 533.191,287.001ZM516.207,305.655C516.924,305.561 518.601,305.78 519.258,305.917C520.888,306.256 522.363,306.875 523.732,307.694C526.725,309.482 529.208,312.243 531.749,315.274C531.909,315.453 531.894,315.729 531.715,315.889C531.536,316.049 531.261,316.034 531.101,315.855C528.928,313.582 526.807,311.485 524.461,309.943C522.339,308.547 519.018,307.764 516.273,307.527C516.251,307.525 516.229,307.524 516.207,307.522C516.186,307.524 516.164,307.525 516.142,307.527C513.396,307.764 510.076,308.547 507.953,309.943C505.608,311.485 503.487,313.582 501.314,315.855C501.154,316.034 500.878,316.049 500.699,315.889C500.52,315.729 500.505,315.453 500.665,315.274C503.207,312.243 505.689,309.482 508.682,307.694C510.052,306.875 511.526,306.256 513.157,305.917C513.814,305.78 515.49,305.561 516.207,305.655ZM516.242,311.628L516.374,311.627C516.082,311.628 516.138,311.628 516.242,311.628ZM486.258,226.596C486.303,226.459 486.326,226.32 486.307,226.178C486.249,225.733 485.608,225.779 485.506,225.429C485.408,225.095 485.669,224.757 485.58,224.421C485.487,224.068 484.997,223.977 484.999,223.533C485.001,223.176 485.408,222.885 485.305,222.534C485.175,222.086 484.559,221.878 484.397,221.458C484.282,221.161 484.623,220.853 484.398,220.552C484.087,220.136 483.315,220.009 482.92,219.634C482.522,219.258 483.309,218.573 482.701,218.225C482.355,218.027 481.641,218.188 481.376,217.878C481.151,217.615 482.085,217.313 481.835,216.901C481.569,216.462 480.87,217.069 480.635,216.667C480.424,216.306 481.125,215.951 480.956,215.511C480.832,215.189 480.298,215.333 480.127,215.059C479.929,214.741 480.351,214.308 480.025,214C479.781,213.77 479.258,213.903 479.034,213.607C478.848,213.36 479.326,213.108 479.107,212.829C478.928,212.602 478.411,212.665 478.154,212.494C477.849,212.291 478.213,211.97 477.953,211.797C477.394,211.424 476.542,211.402 476.086,210.812C475.783,210.42 476.74,210.089 476.226,209.609C476.042,209.436 475.695,209.669 475.479,209.664C475.103,209.655 474.681,209.433 474.39,209.235C473.905,208.906 474.234,208.157 473.746,207.985C473.172,207.783 472.335,208.17 471.843,207.839C471.551,207.643 471.868,207.293 471.6,207.079C471.249,206.798 470.561,207.103 470.26,206.673C470.062,206.39 470.433,205.971 470.095,205.725C469.767,205.487 469.096,205.677 468.684,205.482C468.336,205.317 468.521,205.038 468.324,204.822C468.275,204.77 467.54,204.329 467.446,204.282C467.198,204.156 466.929,204.377 466.674,204.299C466.407,204.216 466.507,203.87 466.234,203.763C465.609,203.517 464.854,203.587 464.244,203.272C463.81,203.047 464.104,202.52 463.662,202.341C462.589,201.905 461.297,202.566 460.389,202.285C459.773,202.094 459.923,201.371 459.361,201.182C459.042,201.075 458.803,201.312 458.519,201.249C458.2,201.178 458.103,200.797 457.752,200.714C457.403,200.631 457.223,200.945 456.911,200.945C456.646,200.945 456.458,200.531 456.146,200.475C455.788,200.411 455.652,200.728 455.353,200.732C454.991,200.737 454.8,200.152 454.372,200.223C453.9,200.302 453.933,201.082 453.391,201.083C452.851,201.084 452.617,200.081 452.009,200.004C451.523,199.942 451.706,200.678 451.482,200.661C451.201,200.64 451.097,200.172 450.743,200.185C450.335,200.2 450.236,200.765 449.872,200.881C449.497,201 449.217,200.514 448.832,200.541C448.308,200.577 447.984,201.119 447.413,201.173C447.021,201.21 446.902,200.732 446.462,200.818C445.684,200.97 445.756,202.077 445.117,202.195C444.647,202.282 444.196,201.641 443.667,201.713C443.229,201.773 443.329,202.411 442.942,202.499C442.74,202.545 442.462,202.309 442.218,202.328C441.79,202.36 441.746,202.71 441.394,202.812C441.104,202.895 440.83,202.638 440.563,202.702C440.24,202.78 440.354,203.202 439.981,203.248C439.605,203.293 439.235,202.876 438.857,202.98C438.473,203.086 438.525,203.678 438.101,203.82C437.723,203.947 437.05,203.525 436.757,203.818C436.429,204.146 436.76,204.786 436.241,205.052C435.917,205.217 435.527,204.986 435.217,205.139C434.887,205.303 434.914,205.788 434.491,205.864C434.074,205.94 433.48,205.573 433.11,205.835C432.647,206.162 432.981,206.951 432.484,207.247C432.162,207.439 431.732,207.046 431.431,207.257C431.15,207.454 431.337,207.93 431.135,208.181C430.87,208.513 430.366,208.133 430.068,208.326C429.763,208.524 430.022,208.995 429.707,209.206C429.413,209.404 428.935,209.064 428.671,209.309C428.263,209.687 428.686,210.472 428.197,210.827C427.893,211.048 427.428,210.687 427.118,210.877C426.747,211.105 426.966,211.695 426.437,211.892C426.151,211.999 425.661,211.714 425.451,211.94C425.171,212.242 425.621,212.809 425.459,213.158C425.345,213.405 424.953,213.23 424.774,213.411C424.539,213.648 424.628,214.186 424.441,214.482C424.283,214.734 423.859,214.7 423.722,214.939C423.495,215.336 423.975,215.895 423.702,216.348C423.466,216.742 422.803,216.276 422.506,216.543C422.354,216.68 422.577,217.028 422.519,217.21C422.442,217.452 422.089,217.422 421.992,217.63C421.861,217.914 422.083,218.266 421.944,218.551C421.789,218.868 421.231,218.677 421.038,218.967C420.864,219.229 421.098,219.677 421.028,219.978C420.936,220.372 420.393,220.326 420.248,220.657C420.124,220.938 420.461,221.28 420.325,221.619C420.155,222.041 419.479,222.253 419.432,222.696C419.381,223.174 419.906,223.606 419.83,224.085C419.715,224.818 418.553,225.085 418.327,225.862C418.134,226.526 418.574,226.87 418.65,227.501C418.715,228.04 418.249,228.129 418.167,228.564C418.118,228.827 418.321,229.085 418.378,229.346C418.243,229.577 417.971,229.76 417.936,230.026C417.88,230.464 418.296,230.693 418.069,231.185C417.802,231.762 417.277,231.954 417.257,232.645C417.232,233.454 418.255,234.066 418.139,234.798C418.064,235.278 417.431,235.528 417.333,235.997C417.241,236.433 417.818,236.843 417.85,237.298C417.876,237.661 417.449,237.883 417.48,238.189C417.517,238.549 418.048,238.672 418.013,239.075C417.987,239.383 417.627,239.737 417.712,240.04C417.806,240.375 418.396,240.366 418.445,240.714C418.49,241.029 418.17,241.295 418.208,241.606C418.236,241.833 418.581,241.914 418.58,242.167C418.579,242.359 418.259,242.622 418.362,242.798C418.562,243.144 419.336,242.904 419.44,243.352C419.56,243.867 418.931,244.252 419.025,244.699C419.082,244.968 419.495,245.067 419.568,245.355C419.654,245.694 419.404,246.179 419.555,246.476C419.67,246.704 420.096,246.658 420.129,246.929C420.175,247.31 419.573,247.711 419.746,248.085C419.876,248.364 420.43,248.244 420.669,248.434C421.111,248.784 420.722,249.278 421.005,249.61C421.24,249.885 421.794,249.685 422.016,249.989C422.371,250.478 421.727,251.095 421.999,251.579C422.175,251.894 422.734,251.718 422.953,251.997C423.187,252.295 422.796,252.662 423.025,252.945C423.25,253.221 423.846,253.014 423.996,253.412C424.11,253.713 423.786,254.108 423.992,254.382C424.214,254.676 424.744,254.434 424.991,254.715C425.373,255.151 424.813,255.799 425.152,256.252C425.424,256.615 426.101,256.449 426.475,256.649C426.854,256.852 426.678,257.306 426.943,257.563C427.19,257.804 427.633,257.704 427.889,257.961C428.302,258.375 427.789,258.881 428,259.294C428.189,259.664 428.959,259.469 429.279,259.706C429.639,259.972 429.408,260.519 429.741,260.738C430.068,260.953 430.549,260.671 430.892,260.83C431.233,260.988 430.994,261.355 431.278,261.528C431.512,261.671 431.852,261.511 432.102,261.68C432.405,261.885 432.34,262.231 432.737,262.394C432.963,262.487 433.301,262.349 433.479,262.455C433.512,262.474 433.538,262.497 433.561,262.523C433.939,262.001 434.469,261.627 435.125,261.38C435.312,261.309 435.618,261.218 435.877,261.144C435.857,260.723 435.844,260.151 435.886,259.823C436.014,258.837 436.461,258.05 437.322,257.525C437.968,257.131 438.706,256.979 439.496,256.983C439.711,256.985 440.042,256.995 440.308,257.005C440.326,256.821 440.349,256.627 440.374,256.493C440.481,255.915 440.703,255.38 441.108,254.9C441.501,254.433 442.006,254.106 442.585,253.879C442.698,253.835 442.858,253.779 443.012,253.728C442.997,253.43 442.982,253.051 442.986,252.806C443.004,251.725 443.339,250.774 444.171,250.056C444.846,249.475 445.667,249.198 446.577,249.128C446.897,249.104 447.392,249.095 447.79,249.093C447.786,248.971 447.786,248.858 447.792,248.769C447.85,247.987 448.136,247.288 448.806,246.708C449.354,246.232 450.018,245.989 450.769,245.938C450.922,245.927 451.134,245.928 451.348,245.935C451.354,245.869 451.361,245.807 451.37,245.755C451.479,245.082 451.761,244.492 452.279,244.008C452.838,243.485 453.494,243.238 454.225,243.182C454.313,243.175 454.426,243.173 454.546,243.174C454.557,243.045 454.573,242.926 454.592,242.833C454.751,242.07 455.125,241.416 455.866,240.926C456.746,240.345 457.822,240.224 458.964,240.337C459.143,240.354 459.393,240.374 459.623,240.391C459.624,240.296 459.628,240.209 459.634,240.137C459.703,239.391 459.971,238.727 460.535,238.173C461.089,237.63 461.77,237.339 462.541,237.212C462.707,237.185 462.96,237.153 463.18,237.128C463.2,236.739 463.241,236.264 463.326,235.999C463.542,235.317 463.95,234.764 464.627,234.384C465.358,233.972 466.175,233.885 467.044,234.067C467.311,234.123 467.712,234.248 468.059,234.364C468.292,233.974 468.585,233.585 468.908,233.39C469.487,233.04 470.26,232.868 471.112,232.85C471.451,232.843 471.821,232.914 472.133,232.884C472.259,232.703 472.451,232.433 472.579,232.285C472.964,231.842 473.427,231.506 474.015,231.318C474.748,231.084 475.507,231.106 476.286,231.304C476.562,231.375 476.844,231.469 477.128,231.565C477.14,231.452 477.154,231.347 477.172,231.263C477.334,230.481 477.719,229.834 478.407,229.365C478.905,229.026 479.499,228.867 480.175,228.93C480.372,228.949 480.689,229.03 480.97,229.112C481.349,228.771 481.867,228.375 482.318,228.267C482.854,228.139 483.396,228.146 483.941,228.243C484.085,228.269 484.289,228.313 484.479,228.357C484.849,227.747 485.463,226.898 486.142,226.638C486.18,226.623 486.219,226.609 486.258,226.596ZM546.157,226.296C546.112,226.159 546.089,226.02 546.107,225.878C546.166,225.433 546.807,225.479 546.909,225.129C547.006,224.795 546.746,224.457 546.834,224.121C546.927,223.768 547.417,223.677 547.415,223.233C547.414,222.876 547.007,222.585 547.109,222.233C547.24,221.786 547.856,221.578 548.018,221.158C548.133,220.86 547.791,220.553 548.016,220.252C548.328,219.836 549.099,219.708 549.495,219.334C549.893,218.958 549.106,218.273 549.714,217.925C550.06,217.727 550.774,217.887 551.039,217.578C551.264,217.315 550.329,217.013 550.58,216.601C550.846,216.162 551.545,216.769 551.78,216.367C551.99,216.006 551.29,215.651 551.459,215.21C551.582,214.889 552.117,215.033 552.287,214.759C552.486,214.441 552.063,214.008 552.389,213.7C552.633,213.469 553.157,213.603 553.381,213.307C553.567,213.06 553.089,212.808 553.308,212.529C553.486,212.302 554.004,212.365 554.26,212.194C554.566,211.991 554.202,211.67 554.461,211.497C555.021,211.124 555.873,211.102 556.329,210.512C556.632,210.12 555.675,209.789 556.188,209.308C556.373,209.136 556.72,209.369 556.935,209.364C557.312,209.355 557.733,209.133 558.025,208.935C558.51,208.605 558.181,207.856 558.668,207.685C559.242,207.483 560.08,207.87 560.572,207.539C560.864,207.343 560.547,206.993 560.815,206.779C561.165,206.498 561.854,206.803 562.155,206.373C562.353,206.09 561.981,205.671 562.32,205.425C562.647,205.187 563.319,205.377 563.731,205.182C564.079,205.017 563.894,204.738 564.091,204.522C564.139,204.47 564.875,204.029 564.969,203.981C565.216,203.856 565.486,204.077 565.741,203.999C566.008,203.916 565.908,203.57 566.181,203.462C566.806,203.217 567.561,203.287 568.17,202.972C568.605,202.747 568.311,202.22 568.752,202.041C569.826,201.605 571.118,202.266 572.026,201.985C572.642,201.794 572.492,201.071 573.054,200.882C573.373,200.775 573.611,201.012 573.895,200.949C574.215,200.878 574.312,200.497 574.663,200.414C575.012,200.331 575.191,200.645 575.503,200.645C575.769,200.645 575.957,200.231 576.268,200.175C576.627,200.111 576.763,200.428 577.062,200.432C577.424,200.437 577.615,199.852 578.043,199.923C578.515,200.001 578.482,200.782 579.024,200.783C579.563,200.784 579.797,199.781 580.406,199.704C580.892,199.642 580.708,200.378 580.932,200.361C581.214,200.34 581.318,199.872 581.672,199.885C582.08,199.9 582.179,200.465 582.543,200.581C582.918,200.7 583.198,200.214 583.583,200.24C584.107,200.277 584.431,200.819 585.001,200.873C585.394,200.909 585.513,200.432 585.952,200.518C586.731,200.67 586.658,201.777 587.298,201.895C587.767,201.982 588.219,201.341 588.748,201.413C589.186,201.473 589.086,202.11 589.472,202.198C589.674,202.245 589.953,202.009 590.197,202.028C590.625,202.06 590.669,202.409 591.021,202.511C591.31,202.595 591.584,202.338 591.851,202.402C592.175,202.48 592.061,202.902 592.433,202.947C592.809,202.993 593.18,202.576 593.557,202.68C593.941,202.786 593.89,203.378 594.314,203.52C594.692,203.647 595.365,203.224 595.658,203.518C595.986,203.846 595.654,204.485 596.174,204.752C596.497,204.917 596.888,204.686 597.197,204.839C597.528,205.002 597.501,205.488 597.924,205.564C598.341,205.639 598.934,205.273 599.305,205.535C599.767,205.861 599.433,206.651 599.931,206.947C600.252,207.138 600.683,206.746 600.984,206.957C601.265,207.154 601.078,207.629 601.279,207.881C601.545,208.213 602.048,207.833 602.347,208.026C602.652,208.224 602.393,208.694 602.707,208.906C603.002,209.104 603.479,208.764 603.744,209.009C604.152,209.386 603.729,210.172 604.218,210.527C604.522,210.748 604.987,210.387 605.296,210.577C605.668,210.805 605.449,211.395 605.978,211.592C606.264,211.699 606.754,211.414 606.963,211.64C607.243,211.942 606.794,212.509 606.955,212.858C607.07,213.105 607.461,212.93 607.641,213.111C607.875,213.347 607.787,213.886 607.973,214.182C608.131,214.433 608.556,214.4 608.692,214.639C608.92,215.036 608.44,215.595 608.712,216.048C608.949,216.442 609.612,215.976 609.909,216.243C610.061,216.379 609.838,216.727 609.896,216.91C609.972,217.152 610.326,217.122 610.423,217.33C610.554,217.614 610.331,217.966 610.471,218.251C610.626,218.567 611.184,218.377 611.376,218.667C611.551,218.929 611.317,219.377 611.387,219.678C611.478,220.072 612.021,220.026 612.167,220.357C612.291,220.638 611.953,220.98 612.09,221.318C612.26,221.741 612.935,221.953 612.983,222.396C613.034,222.873 612.509,223.306 612.584,223.785C612.7,224.518 613.862,224.785 614.088,225.562C614.281,226.226 613.841,226.57 613.764,227.201C613.7,227.74 614.166,227.829 614.248,228.264C614.297,228.527 614.094,228.785 614.037,229.046C614.171,229.277 614.444,229.46 614.478,229.725C614.535,230.164 614.118,230.393 614.346,230.885C614.613,231.462 615.137,231.654 615.158,232.345C615.182,233.154 614.159,233.766 614.275,234.498C614.351,234.978 614.984,235.228 615.082,235.697C615.174,236.133 614.596,236.543 614.565,236.998C614.539,237.361 614.966,237.583 614.934,237.889C614.898,238.248 614.367,238.372 614.401,238.775C614.428,239.083 614.787,239.437 614.703,239.74C614.609,240.075 614.019,240.066 613.969,240.414C613.924,240.729 614.245,240.995 614.207,241.306C614.179,241.533 613.833,241.614 613.835,241.867C613.836,242.059 614.155,242.322 614.053,242.498C613.852,242.843 613.079,242.604 612.975,243.052C612.855,243.567 613.484,243.951 613.39,244.399C613.333,244.668 612.919,244.767 612.846,245.055C612.76,245.394 613.01,245.879 612.86,246.176C612.745,246.404 612.319,246.358 612.286,246.628C612.24,247.01 612.842,247.411 612.668,247.784C612.539,248.064 611.985,247.944 611.746,248.134C611.303,248.484 611.693,248.978 611.41,249.309C611.174,249.585 610.62,249.385 610.399,249.689C610.044,250.178 610.688,250.795 610.416,251.279C610.24,251.594 609.681,251.418 609.462,251.696C609.227,251.995 609.619,252.362 609.389,252.645C609.165,252.921 608.569,252.714 608.419,253.112C608.305,253.413 608.629,253.807 608.422,254.082C608.201,254.375 607.67,254.134 607.424,254.415C607.041,254.851 607.602,255.499 607.263,255.952C606.991,256.315 606.313,256.149 605.94,256.349C605.561,256.552 605.736,257.006 605.472,257.263C605.225,257.504 604.782,257.404 604.526,257.661C604.113,258.075 604.626,258.581 604.415,258.994C604.226,259.363 603.456,259.169 603.135,259.406C602.776,259.672 603.007,260.219 602.674,260.438C602.347,260.653 601.866,260.371 601.522,260.53C601.182,260.688 601.421,261.055 601.137,261.228C600.902,261.371 600.562,261.211 600.313,261.38C600.009,261.585 600.075,261.931 599.678,262.094C599.452,262.187 599.114,262.048 598.936,262.154C598.903,262.174 598.876,262.197 598.854,262.223C598.476,261.701 597.945,261.327 597.29,261.08C597.102,261.009 596.797,260.918 596.538,260.844C596.557,260.423 596.571,259.851 596.528,259.523C596.401,258.537 595.954,257.75 595.093,257.225C594.447,256.831 593.709,256.679 592.919,256.683C592.704,256.685 592.373,256.695 592.106,256.705C592.088,256.521 592.066,256.327 592.041,256.193C591.934,255.615 591.712,255.08 591.307,254.6C590.914,254.133 590.408,253.806 589.83,253.579C589.717,253.535 589.557,253.479 589.403,253.428C589.418,253.13 589.432,252.751 589.428,252.506C589.41,251.425 589.076,250.474 588.243,249.756C587.569,249.175 586.747,248.898 585.838,248.828C585.517,248.803 585.023,248.795 584.625,248.792C584.629,248.671 584.629,248.558 584.622,248.469C584.565,247.687 584.279,246.988 583.609,246.407C583.061,245.932 582.397,245.689 581.646,245.638C581.493,245.627 581.28,245.628 581.067,245.635C581.06,245.568 581.053,245.507 581.045,245.455C580.935,244.782 580.654,244.192 580.136,243.708C579.576,243.185 578.92,242.938 578.19,242.882C578.101,242.875 577.989,242.873 577.869,242.874C577.857,242.745 577.842,242.626 577.823,242.533C577.664,241.77 577.29,241.116 576.548,240.626C575.669,240.045 574.592,239.923 573.451,240.037C573.271,240.054 573.022,240.074 572.792,240.091C572.791,239.996 572.787,239.909 572.78,239.837C572.712,239.091 572.443,238.426 571.88,237.873C571.326,237.33 570.644,237.039 569.873,236.912C569.708,236.885 569.455,236.853 569.235,236.828C569.215,236.439 569.173,235.964 569.089,235.699C568.873,235.017 568.465,234.464 567.788,234.084C567.057,233.672 566.24,233.585 565.371,233.767C565.104,233.823 564.703,233.948 564.356,234.064C564.123,233.674 563.83,233.285 563.507,233.09C562.928,232.74 562.155,232.568 561.303,232.55C560.963,232.543 560.594,232.614 560.281,232.584C560.156,232.402 559.964,232.133 559.836,231.985C559.451,231.542 558.988,231.206 558.399,231.018C557.666,230.784 556.907,230.806 556.129,231.004C555.852,231.075 555.571,231.169 555.287,231.265C555.275,231.151 555.26,231.047 555.243,230.963C555.08,230.181 554.695,229.533 554.008,229.065C553.51,228.726 552.916,228.567 552.24,228.63C552.043,228.649 551.726,228.73 551.445,228.812C551.065,228.471 550.548,228.075 550.097,227.967C549.561,227.839 549.019,227.846 548.474,227.943C548.329,227.969 548.126,228.013 547.936,228.057C547.566,227.447 546.952,226.598 546.273,226.337C546.235,226.323 546.196,226.309 546.157,226.296ZM451.919,203.154C452.425,203.476 452.976,203.748 453.397,203.747C453.863,203.746 454.336,203.545 454.759,203.276C454.984,203.351 455.201,203.398 455.387,203.396C455.545,203.394 455.725,203.362 455.907,203.315C456.268,203.479 456.639,203.609 456.91,203.609C457.023,203.609 457.148,203.594 457.279,203.569C457.506,203.698 457.739,203.805 457.944,203.85C458.034,203.87 458.136,203.882 458.244,203.888C458.617,204.282 459.089,204.671 459.601,204.83C460.186,205.011 460.841,205.056 461.539,204.991C461.711,204.975 461.965,204.948 462.2,204.922C462.428,205.212 462.702,205.473 463.02,205.638C463.504,205.889 464.028,206.04 464.57,206.135C464.668,206.152 464.769,206.159 464.869,206.167C465.165,206.463 465.516,206.73 465.89,206.845C466.044,206.892 466.241,206.916 466.447,206.925C466.709,207.3 467.067,207.664 467.545,207.89C467.658,207.944 467.809,207.991 467.977,208.032C468.008,208.092 468.041,208.149 468.077,208.2C468.391,208.649 469.031,208.983 469.628,209.211C469.809,209.54 470.047,209.841 470.355,210.049C470.738,210.307 471.465,210.441 472.101,210.511C472.316,210.881 472.581,211.227 472.892,211.439C473.125,211.597 473.398,211.751 473.692,211.884C473.756,212.086 473.849,212.275 473.978,212.441C474.357,212.931 474.82,213.297 475.345,213.573C475.488,213.648 475.692,213.735 475.893,213.816C476.071,214.149 476.313,214.459 476.644,214.688C476.706,214.88 476.792,215.058 476.908,215.212C477.067,215.422 477.329,215.618 477.621,215.79C477.675,216.048 477.754,216.288 477.867,216.469C477.93,216.57 478.016,216.67 478.119,216.767C478.095,217.233 478.143,217.683 478.334,218.01C478.488,218.272 478.735,218.486 479.03,218.658C479.05,219.033 479.144,219.368 479.351,219.61C479.563,219.857 480,220.084 480.459,220.271C480.572,220.778 480.765,221.263 481.089,221.57C481.254,221.726 481.54,221.912 481.825,222.081C481.845,222.204 481.873,222.319 481.912,222.418C481.995,222.634 482.177,222.9 482.379,223.155C482.352,223.287 482.336,223.412 482.335,223.52C482.333,224.063 482.596,224.651 482.878,225.124L482.871,225.512C482.478,225.53 482.088,225.583 481.699,225.676C481.273,225.778 480.801,225.997 480.349,226.272C479.034,226.164 477.879,226.5 476.907,227.164C476.343,227.548 475.883,227.994 475.519,228.496C474.733,228.449 473.96,228.539 473.205,228.781C472.288,229.073 471.531,229.554 470.891,230.191C469.589,230.242 468.422,230.571 467.53,231.11C467.401,231.188 467.273,231.279 467.146,231.381C465.775,231.181 464.489,231.405 463.321,232.062C462.107,232.744 461.333,233.706 460.89,234.892C460.063,235.184 459.319,235.634 458.669,236.272C458.233,236.7 457.888,237.163 457.626,237.658C456.448,237.742 455.353,238.072 454.398,238.703C453.498,239.298 452.881,240.017 452.475,240.838C451.747,241.089 451.074,241.488 450.461,242.061C449.999,242.492 449.634,242.966 449.356,243.48C448.505,243.706 447.737,244.109 447.061,244.694C446.406,245.262 445.942,245.887 445.632,246.563C444.434,246.766 443.355,247.243 442.432,248.038C441.183,249.115 440.536,250.475 440.367,252.037C439.884,252.353 439.45,252.733 439.071,253.183C438.742,253.572 438.479,253.981 438.272,254.408C437.438,254.538 436.654,254.812 435.935,255.251C434.394,256.19 433.537,257.565 433.27,259.304C433.166,259.262 433.056,259.223 432.942,259.189C432.698,258.874 432.39,258.588 432.012,258.413C431.866,258.345 431.672,258.296 431.46,258.26C431.29,257.983 431.09,257.732 430.864,257.564C430.761,257.488 430.608,257.414 430.432,257.344C430.311,256.874 430.108,256.413 429.775,256.079C429.559,255.864 429.198,255.664 428.851,255.504C428.577,255.039 428.2,254.551 427.732,254.301C427.677,254.271 427.61,254.242 427.535,254.214C427.433,253.735 427.265,253.268 426.993,252.958C426.876,252.824 426.713,252.702 426.527,252.592C426.515,252.548 426.502,252.507 426.488,252.468C426.316,252.016 425.906,251.625 425.459,251.313C425.378,250.953 425.249,250.607 425.048,250.35C424.944,250.219 424.793,250.092 424.617,249.974C424.576,249.405 424.456,248.816 424.17,248.422C423.972,248.15 423.609,247.908 423.223,247.71C423.114,247.41 422.969,247.105 422.778,246.835C422.783,246.753 422.782,246.677 422.774,246.609C422.727,246.22 422.496,245.825 422.209,245.469C422.211,245.18 422.198,244.888 422.151,244.7C422.111,244.543 422.03,244.369 421.927,244.194C422.052,243.7 422.13,243.161 422.035,242.75C421.924,242.271 421.542,241.835 421.095,241.471L421.012,241.266C421.078,240.937 421.119,240.595 421.083,240.338C421.04,240.038 420.872,239.716 420.653,239.409C420.66,239.371 420.665,239.336 420.668,239.303C420.703,238.893 420.564,238.427 420.373,238C420.466,237.69 420.526,237.375 420.508,237.111C420.492,236.893 420.404,236.602 420.292,236.312C420.518,235.942 420.72,235.538 420.771,235.215C420.869,234.593 420.796,233.989 420.57,233.399C420.504,233.224 420.372,232.98 420.234,232.746C420.332,232.595 420.423,232.441 420.487,232.303C420.732,231.774 420.758,231.153 420.713,230.627C421.011,230.085 421.111,229.455 420.994,228.846C421.199,228.361 421.365,227.762 421.295,227.182C421.277,227.032 421.238,226.857 421.191,226.683C421.394,226.503 421.595,226.311 421.712,226.166C422.109,225.674 422.364,225.121 422.462,224.5C422.513,224.177 422.445,223.73 422.345,223.308C422.54,223.067 422.714,222.817 422.796,222.614C422.895,222.369 422.934,222.051 422.941,221.727C423.255,221.38 423.53,220.98 423.623,220.579C423.631,220.547 423.637,220.511 423.642,220.473C423.945,220.248 424.204,219.994 424.337,219.722C424.451,219.489 424.517,219.151 424.555,218.817L424.698,218.647C425.235,218.439 425.733,218.142 425.986,217.721C426.203,217.359 426.295,216.822 426.327,216.314C426.479,216.178 426.61,216.038 426.696,215.901C426.8,215.736 426.902,215.462 426.989,215.187C427.372,214.937 427.713,214.632 427.877,214.276C427.906,214.214 427.93,214.142 427.951,214.063C428.216,213.865 428.447,213.619 428.643,213.367C429.072,213.298 429.492,213.18 429.764,212.982C430.157,212.695 430.453,212.172 430.667,211.643C430.871,211.585 431.054,211.511 431.193,211.417C431.464,211.235 431.693,210.946 431.881,210.628C432.402,210.469 432.913,210.224 433.215,209.846C433.241,209.814 433.266,209.779 433.29,209.74C433.501,209.693 433.694,209.627 433.847,209.536C434.201,209.325 434.505,208.932 434.749,208.508C434.829,208.504 434.902,208.497 434.964,208.486C435.486,208.392 435.994,208.044 436.399,207.685C436.778,207.641 437.183,207.562 437.455,207.423C437.875,207.208 438.209,206.832 438.469,206.422C438.659,206.41 438.827,206.386 438.948,206.346C439.215,206.256 439.482,206.079 439.73,205.868C439.942,205.899 440.142,205.912 440.302,205.892C440.716,205.842 441.096,205.665 441.426,205.44C441.684,205.445 441.936,205.428 442.134,205.371C442.331,205.314 442.543,205.209 442.744,205.091C443.048,205.127 443.343,205.14 443.534,205.096C443.808,205.034 444.086,204.876 444.347,204.676C444.801,204.796 445.274,204.875 445.603,204.815C446.119,204.719 446.69,204.268 447.16,203.802C447.333,203.83 447.503,203.84 447.662,203.825C448.086,203.786 448.639,203.555 449.065,203.348C449.608,203.481 450.228,203.563 450.677,203.421C450.783,203.387 450.896,203.333 451.013,203.267C451.107,203.294 451.197,203.311 451.281,203.318C451.476,203.332 451.693,203.269 451.919,203.154ZM580.495,202.854C580.721,202.969 580.939,203.032 581.133,203.018C581.218,203.011 581.308,202.994 581.402,202.967C581.519,203.033 581.632,203.087 581.738,203.12C582.187,203.263 582.806,203.181 583.35,203.048C583.776,203.255 584.329,203.485 584.753,203.525C584.912,203.54 585.082,203.53 585.255,203.502C585.725,203.967 586.296,204.419 586.812,204.514C587.14,204.575 587.613,204.496 588.068,204.376C588.329,204.576 588.607,204.734 588.881,204.796C589.072,204.84 589.366,204.827 589.67,204.791C589.871,204.909 590.084,205.014 590.28,205.07C590.479,205.128 590.73,205.145 590.989,205.14C591.318,205.365 591.699,205.542 592.113,205.592C592.272,205.612 592.473,205.599 592.685,205.568C592.932,205.779 593.2,205.956 593.466,206.046C593.588,206.086 593.756,206.11 593.945,206.122C594.206,206.532 594.54,206.908 594.96,207.123C595.231,207.262 595.636,207.341 596.016,207.385C596.42,207.744 596.929,208.092 597.451,208.186C597.513,208.197 597.585,208.204 597.665,208.208C597.91,208.631 598.213,209.025 598.568,209.236C598.721,209.327 598.913,209.393 599.124,209.44C599.149,209.478 599.174,209.514 599.2,209.546C599.502,209.924 600.012,210.169 600.534,210.328C600.722,210.646 600.951,210.935 601.222,211.117C601.361,211.211 601.544,211.285 601.748,211.343C601.962,211.872 602.257,212.395 602.651,212.682C602.923,212.879 603.343,212.997 603.771,213.067C603.967,213.319 604.199,213.565 604.464,213.763C604.484,213.842 604.509,213.914 604.538,213.976C604.702,214.332 605.043,214.637 605.426,214.887C605.513,215.162 605.615,215.436 605.719,215.601C605.805,215.738 605.935,215.878 606.087,216.013C606.12,216.522 606.212,217.059 606.429,217.42C606.682,217.842 607.18,218.139 607.717,218.347L607.86,218.517C607.898,218.851 607.964,219.189 608.078,219.422C608.211,219.694 608.47,219.948 608.773,220.173C608.778,220.211 608.784,220.247 608.791,220.279C608.884,220.68 609.16,221.08 609.473,221.427C609.481,221.751 609.52,222.069 609.619,222.314C609.701,222.517 609.875,222.767 610.07,223.008C609.969,223.429 609.902,223.877 609.953,224.2C610.05,224.821 610.306,225.373 610.703,225.866C610.82,226.011 611.021,226.203 611.224,226.383C611.177,226.557 611.138,226.732 611.12,226.882C611.05,227.462 611.215,228.06 611.421,228.546C611.304,229.154 611.404,229.784 611.702,230.327C611.656,230.853 611.683,231.474 611.928,232.003C611.992,232.141 612.082,232.295 612.181,232.446C612.043,232.68 611.911,232.924 611.844,233.099C611.618,233.689 611.546,234.293 611.644,234.915C611.695,235.238 611.897,235.642 612.123,236.012C612.011,236.302 611.922,236.593 611.907,236.811C611.889,237.075 611.949,237.39 612.042,237.7C611.851,238.127 611.712,238.593 611.747,239.003C611.75,239.036 611.755,239.071 611.762,239.109C611.543,239.416 611.375,239.738 611.332,240.038C611.295,240.295 611.336,240.637 611.403,240.966L611.32,241.171C610.873,241.535 610.491,241.971 610.38,242.45C610.284,242.861 610.363,243.4 610.488,243.894C610.385,244.069 610.304,244.243 610.264,244.399C610.216,244.588 610.203,244.88 610.206,245.169C609.918,245.525 609.688,245.92 609.641,246.309C609.633,246.377 609.632,246.453 609.637,246.534C609.446,246.805 609.301,247.11 609.192,247.41C608.806,247.608 608.443,247.85 608.245,248.122C607.959,248.515 607.838,249.104 607.798,249.674C607.622,249.792 607.47,249.919 607.367,250.05C607.165,250.307 607.037,250.653 606.956,251.013C606.509,251.325 606.099,251.716 605.927,252.168C605.913,252.207 605.9,252.248 605.888,252.292C605.702,252.402 605.539,252.524 605.422,252.657C605.149,252.968 604.982,253.435 604.88,253.914C604.805,253.942 604.738,253.971 604.682,254.001C604.215,254.251 603.838,254.738 603.564,255.204C603.217,255.364 602.855,255.564 602.64,255.779C602.307,256.113 602.104,256.573 601.983,257.044C601.807,257.114 601.654,257.188 601.551,257.264C601.325,257.431 601.125,257.683 600.955,257.959C600.743,257.996 600.549,258.045 600.403,258.112C600.024,258.288 599.717,258.574 599.473,258.889C599.359,258.923 599.248,258.962 599.145,259.004C598.877,257.264 598.021,255.89 596.48,254.95C595.761,254.512 594.977,254.238 594.143,254.108C593.936,253.681 593.672,253.272 593.344,252.882C592.965,252.433 592.531,252.053 592.047,251.737C591.879,250.175 591.232,248.815 589.982,247.738C589.059,246.943 587.98,246.466 586.782,246.263C586.472,245.587 586.008,244.962 585.354,244.394C584.678,243.809 583.91,243.406 583.058,243.18C582.78,242.666 582.416,242.192 581.954,241.761C581.341,241.188 580.668,240.789 579.94,240.538C579.534,239.717 578.916,238.997 578.017,238.403C577.062,237.772 575.967,237.441 574.789,237.358C574.527,236.863 574.182,236.4 573.746,235.972C573.096,235.334 572.352,234.883 571.524,234.592C571.082,233.406 570.308,232.444 569.094,231.762C567.926,231.105 566.64,230.881 565.269,231.081C565.142,230.979 565.013,230.888 564.885,230.81C563.992,230.271 562.826,229.942 561.523,229.891C560.884,229.254 560.127,228.773 559.21,228.48C558.454,228.239 557.682,228.149 556.896,228.196C556.531,227.693 556.072,227.248 555.508,226.863C554.535,226.2 553.381,225.864 552.065,225.972C551.613,225.697 551.141,225.477 550.716,225.376C550.327,225.283 549.936,225.23 549.544,225.212L549.537,224.824C549.819,224.35 550.082,223.762 550.079,223.22C550.079,223.112 550.062,222.987 550.035,222.855C550.237,222.6 550.419,222.334 550.503,222.118C550.541,222.019 550.57,221.904 550.589,221.781C550.875,221.612 551.161,221.426 551.326,221.27C551.65,220.963 551.843,220.478 551.956,219.971C552.415,219.784 552.852,219.557 553.063,219.31C553.27,219.067 553.365,218.733 553.385,218.358C553.679,218.185 553.927,217.972 554.08,217.71C554.271,217.383 554.32,216.933 554.295,216.467C554.398,216.37 554.485,216.27 554.548,216.169C554.661,215.988 554.74,215.748 554.794,215.489C555.085,215.318 555.348,215.122 555.507,214.912C555.623,214.758 555.709,214.58 555.771,214.388C556.102,214.159 556.344,213.849 556.522,213.516C556.722,213.435 556.926,213.348 557.07,213.273C557.594,212.997 558.058,212.631 558.437,212.141C558.566,211.975 558.658,211.786 558.722,211.584C559.016,211.45 559.289,211.297 559.522,211.139C559.833,210.927 560.099,210.581 560.314,210.211C560.95,210.141 561.676,210.007 562.059,209.749C562.368,209.541 562.605,209.24 562.787,208.911C563.383,208.683 564.023,208.349 564.338,207.9C564.374,207.848 564.407,207.792 564.437,207.731C564.605,207.691 564.757,207.644 564.87,207.59C565.348,207.364 565.706,207 565.968,206.625C566.174,206.616 566.371,206.592 566.525,206.545C566.899,206.43 567.249,206.163 567.546,205.867C567.645,205.858 567.746,205.852 567.845,205.835C568.387,205.74 568.91,205.589 569.395,205.338C569.713,205.173 569.986,204.911 570.214,204.622C570.45,204.648 570.704,204.675 570.875,204.691C571.573,204.756 572.229,204.711 572.814,204.53C573.326,204.371 573.798,203.982 574.17,203.588C574.279,203.582 574.381,203.57 574.471,203.55C574.676,203.505 574.909,203.398 575.135,203.269C575.266,203.294 575.392,203.309 575.504,203.309C575.776,203.309 576.147,203.179 576.508,203.015C576.69,203.062 576.87,203.094 577.028,203.096C577.214,203.098 577.43,203.051 577.655,202.976C578.079,203.245 578.552,203.446 579.018,203.447C579.439,203.448 579.99,203.176 580.495,202.854Z" style="fill:white;"/>
    </g>
</svg>
