<?xml version="1.0" encoding="UTF-8" standalone="no"?>
<!DOCTYPE svg PUBLIC "-//W3C//DTD SVG 1.1//EN" "http://www.w3.org/Graphics/SVG/1.1/DTD/svg11.dtd">
<svg width="100%" height="100%" viewBox="0 0 1000 1000" version="1.1" xmlns="http://www.w3.org/2000/svg" xmlns:xlink="http://www.w3.org/1999/xlink" xml:space="preserve" xmlns:serif="http://www.serif.com/" style="fill-rule:evenodd;clip-rule:evenodd;stroke-linejoin:round;stroke-miterlimit:2;">
    <g transform="matrix(1.32355,0,0,1.32355,-108.826,-161.774)">
        <path d="M486.345,572.628C449.983,569.855 371.518,701.482 380.749,693.148C511.029,575.51 548.068,604.969 555.893,669.979C573.582,778.921 418.015,766.253 388.406,765.198C374.498,764.702 504.532,853.608 582.521,749.122C810.85,706.012 853.342,595.982 738.285,525.738C723.363,516.628 674.647,539.334 588.286,589.118C560.315,578.485 540.027,576.723 486.345,572.628ZM284.615,521.977C76.469,268.278 79.48,329.086 216.741,589.852C238.442,621.17 271.043,634.666 318.552,623.789C543.498,467.006 586.746,404.699 284.615,521.977ZM635.004,290.581C429.984,-2.294 254.048,512.597 272.467,468.616C292.929,419.754 487.021,72.406 618.771,307.81L613.36,365.241C504.634,334.354 509.688,345.187 602.538,388.213C533.972,492.382 544.347,506.438 640.415,422.671C698.563,519.842 715.978,510.559 694.526,399.699C770.63,358.774 800.159,334.306 672.882,365.241C675.066,334.596 671.646,281.47 659.354,295.943C655.495,300.486 651.952,302.198 648.532,301.798C643.958,301.262 639.603,296.949 635.004,290.581Z" style="fill:white;"/>
    </g>
</svg>
