<?xml version="1.0" encoding="UTF-8" standalone="no"?>
<!DOCTYPE svg PUBLIC "-//W3C//DTD SVG 1.1//EN" "http://www.w3.org/Graphics/SVG/1.1/DTD/svg11.dtd">
<svg width="100%" height="100%" viewBox="0 0 1000 1000" version="1.1" xmlns="http://www.w3.org/2000/svg" xmlns:xlink="http://www.w3.org/1999/xlink" xml:space="preserve" xmlns:serif="http://www.serif.com/" style="fill-rule:evenodd;clip-rule:evenodd;stroke-linejoin:round;stroke-miterlimit:2;">
    <g transform="matrix(1.53649,0,0,1.53649,-223.807,-238.737)">
        <path d="M541.825,364.393L499.178,447.733C497.923,444.98 495.341,443.02 492.227,441.38C488.587,449.997 488.18,458.614 491.323,467.231C493.805,466.796 496.293,466.26 499.567,454.546L536.141,383.073L535.254,385.281L656.604,361.136L573.96,519.644C548.444,497.359 526.778,484.279 517.161,500L581.895,555.42C590.432,566.621 591.807,578.203 582.326,590.362L510.679,662.509C517.79,666.442 523.588,671.751 525.734,680.89C527.964,701.604 517.109,710.536 503.877,717.327C505.058,724.901 507.607,732.321 504.154,738.462C498.874,747.853 472.197,773.668 472.197,773.668C472.197,773.668 449.803,752.409 444.967,744.233C441.624,738.581 442.746,731.568 443.185,724.612C433.819,721.62 427.33,716.946 423.493,710.722C419.016,704.797 419.604,696.427 422.309,687.034C423.716,678.406 428.613,669.341 437.345,659.796L355.704,586.183C349.97,578.242 349.842,569.662 355.589,560.412L426.31,500C422.03,478.923 404.265,493.299 394.513,508.609C389.028,517.218 380.293,523.191 375.291,526.888L285.549,369.175L394.739,385.248L440.493,442.85C440.602,442.987 440.744,443.082 440.898,443.132C437.548,445.517 435.445,448.65 436.152,453.465C439.573,466.228 442.136,466.783 444.692,467.231C447.835,458.614 447.428,449.997 443.788,441.38C443.615,441.471 443.444,441.563 443.275,441.656C443.437,441.36 443.417,440.984 443.194,440.704L398.104,383.939L391.333,371.829L460.656,187.919L541.825,364.393ZM443.375,540.808L445.33,605.351C433.074,600.578 409.65,579.647 409.876,578.083C410.065,576.767 440.538,537.342 443.375,540.808ZM498.56,540.808L496.604,605.351C508.86,600.578 532.284,579.647 532.059,578.083C531.869,576.767 501.396,537.342 498.56,540.808Z" style="fill:white;"/>
    </g>
</svg>
