<?xml version="1.0" encoding="UTF-8" standalone="no"?>
<!DOCTYPE svg PUBLIC "-//W3C//DTD SVG 1.1//EN" "http://www.w3.org/Graphics/SVG/1.1/DTD/svg11.dtd">
<svg width="100%" height="100%" viewBox="0 0 1000 1000" version="1.1" xmlns="http://www.w3.org/2000/svg" xmlns:xlink="http://www.w3.org/1999/xlink" xml:space="preserve" xmlns:serif="http://www.serif.com/" style="fill-rule:evenodd;clip-rule:evenodd;stroke-linejoin:round;stroke-miterlimit:2;">
    <g transform="matrix(5.25069,0,0,5.90196,-1387.19,-1919.45)">
        <path d="M301.715,432C300.278,445.275 300.052,458.58 304.715,472C310.199,470.735 313.763,468.951 316.715,467C322.686,468.411 327.893,468.532 332.715,468C329.376,460.989 327.073,452.615 325.715,443C324.359,445.469 321.773,445.768 318.715,448C308.367,441.955 303.889,437.967 301.715,432ZM300.715,409C286.197,408.449 279.802,413.616 273.715,419C274.113,413.876 273.634,407.332 277.329,403C279.671,400.254 281.144,396.941 281.652,393C282.449,386.825 288.694,383.493 293.715,381C300.921,383.671 304.887,390.849 306.715,401C316.032,396.607 325.951,394.817 337.715,401C339.198,410.986 334.698,417.431 328.715,423C329.246,429.462 328.627,434.407 326.983,438C325.281,441.723 322.478,443.995 318.715,445C308.553,441.937 302.886,435.937 301.715,427C303.477,418.654 303.017,412.797 300.715,409ZM370.777,393.414C367.239,394.31 364.069,394.914 361.262,395.228C356.072,395.81 352.132,395.406 349.422,394.024C349.201,394.022 348.973,394.018 348.74,394.012C348.716,394.233 348.692,394.454 348.668,394.674C348.548,395.797 348.639,397.089 348.766,398.195C348.865,399.061 348.731,399.955 348.803,400.823C348.963,402.757 349.269,404.717 349.529,406.635C350.081,410.695 350.937,414.704 351.343,418.781C351.526,420.618 351.821,422.511 351.586,424.377C351.329,426.414 350.276,428.741 348.853,430.197C348.823,430.307 348.727,430.665 348.685,430.794C348.396,431.674 348.12,432.59 347.763,433.435C347.657,433.686 347.642,433.985 347.632,434.286C347.623,434.554 347.624,434.824 347.619,435.083C353.815,437.199 360.446,437.287 367.417,435.797C367.435,435.54 367.441,435.278 367.443,435.014C367.45,433.992 367.377,432.949 367.451,432.06C367.608,430.195 367.512,428.251 367.35,426.398C367.126,423.814 367.573,421.151 367.193,418.585C367.065,417.717 367.216,416.721 367.216,415.837C367.216,413.656 367.238,411.404 367.735,409.276C368.077,407.81 368.845,406.42 369.134,404.956C369.515,403.032 369.78,400.977 370.006,399.019C370.227,397.109 370.601,395.301 370.777,393.414ZM392.168,386.24C384.858,389.137 378.414,391.345 372.823,392.875C372.678,395.038 372.244,397.08 371.993,399.249C371.76,401.259 371.487,403.368 371.096,405.344C370.802,406.83 370.03,408.243 369.683,409.73C369.22,411.711 369.216,413.808 369.216,415.837C369.216,416.627 369.057,417.517 369.171,418.292C369.557,420.898 369.115,423.601 369.343,426.225C369.514,428.189 369.61,430.25 369.444,432.227C369.367,433.157 369.461,434.26 369.437,435.324C371.254,434.861 373.093,434.297 374.952,433.637C379.203,432.13 383.56,430.127 388.003,427.723L388.003,426.786C388.003,424.299 387.978,421.674 388.422,419.234C388.613,418.182 389.02,417.123 389.114,416.059C389.318,413.729 389.386,411.364 389.898,409.066C390.313,407.203 391.452,405.529 391.814,403.597C392.048,402.354 391.83,400.933 391.92,399.674C392.239,395.223 392.183,390.725 392.168,386.24ZM334.01,396.616C335.599,397.205 337.219,397.928 338.873,398.797C339.576,399.167 340.06,399.849 340.177,400.635C341.701,410.905 337.556,417.801 331.625,423.657C335.744,428.509 340.178,431.886 344.882,434.003C345.136,434.117 345.392,434.228 345.649,434.336C345.669,433.749 345.713,433.149 345.921,432.656C346.257,431.861 346.513,430.997 346.785,430.169C346.844,429.99 346.903,429.674 347,429.431C347.096,429.193 347.225,428.996 347.365,428.858C348.536,427.697 349.392,425.788 349.602,424.126C349.818,422.41 349.521,420.669 349.353,418.98C348.95,414.926 348.096,410.941 347.548,406.904C347.282,404.952 346.973,402.957 346.809,400.988C346.739,400.141 346.875,399.268 346.779,398.423C346.636,397.178 346.544,395.724 346.68,394.461C346.701,394.266 346.722,394.07 346.743,393.874C345.085,393.682 343.402,393.261 342.171,392.372C341.086,391.589 339.889,390.876 338.757,390.123C336.857,388.857 334.763,388.014 332.633,387.212C332.598,387.571 332.572,387.938 332.658,388.28C333.007,389.665 333.569,391.163 333.749,392.601C333.91,393.882 334.016,395.263 334.01,396.616ZM410.663,378.294C404.756,381 399.259,383.381 394.166,385.441C394.175,390.237 394.256,395.053 393.915,399.817C393.82,401.149 394.027,402.651 393.78,403.966C393.413,405.92 392.27,407.617 391.85,409.501C391.357,411.713 391.303,413.991 391.106,416.234C391.007,417.359 390.592,418.48 390.39,419.592C389.977,421.861 390.001,424.299 390.003,426.617C394.978,423.809 400.057,420.52 405.211,416.879C405.304,413.81 405.615,410.798 406.169,407.753C406.64,405.158 407.671,402.719 408.353,400.195C408.743,398.75 409.659,397.462 410.026,396.001C410.373,394.622 410.561,393.176 410.878,391.789C411.18,390.467 411.007,389.001 411.007,387.654C411.007,385.682 411.222,383.59 410.979,381.641C410.842,380.545 410.722,379.417 410.663,378.294ZM412.63,377.387C412.659,378.725 412.8,380.083 412.963,381.394C413.216,383.423 413.007,385.601 413.007,387.654C413.007,389.146 413.162,390.77 412.828,392.234C412.508,393.635 412.316,395.095 411.966,396.489C411.596,397.961 410.677,399.26 410.284,400.717C409.617,403.187 408.598,405.571 408.136,408.111C407.693,410.547 407.411,412.963 407.276,415.404C407.874,414.973 408.473,414.537 409.072,414.098C409.076,414.094 409.081,414.09 409.085,414.086C414.247,408.988 418.735,404.291 422.646,399.938C422.607,399.594 422.577,398.862 422.575,398.814C422.433,397.478 422.242,396.107 422.413,394.755C422.756,392.031 423.774,389.721 424.997,387.312C425.121,387.068 425.122,386.652 425.181,386.373C425.315,385.734 425.654,385.164 425.798,384.518C426.004,383.594 425.938,382.718 426.03,381.746C426.093,381.074 426.326,380.358 426.224,379.67C426.081,378.702 426.088,377.692 426.002,376.713C425.933,375.91 425.646,375.072 425.533,374.294C425.42,374.196 425.214,374.019 425.086,373.919C424.849,373.733 424.653,373.556 424.558,373.436C423.87,372.568 423.791,371.412 423.883,370.357C423.958,369.51 424.337,368.731 424.854,367.994C425.445,367.153 426.241,366.376 426.667,365.531C427.463,363.952 427.272,361.425 427.038,359.698C426.89,358.613 426.223,357.614 425.744,356.657C425.17,355.508 424.746,354.225 423.919,353.182C423.554,352.722 423.117,352.347 422.652,351.978C418.871,359.624 417.668,367.274 417.877,374.925C416.094,375.772 414.346,376.593 412.63,377.387ZM303.715,409C311.16,404.083 315.82,404.331 319.715,406C315.377,410.35 310.439,413.488 301.715,409C297.175,402.761 297.896,398.363 298.715,394C302.844,397.329 303.885,402.753 303.715,409ZM423.592,350.174C424.293,350.721 424.948,351.261 425.486,351.939C426.4,353.092 426.898,354.494 427.533,355.763C428.106,356.908 428.843,358.129 429.019,359.429C429.301,361.505 429.41,364.534 428.453,366.432C428.054,367.222 427.386,367.973 426.787,368.746C426.35,369.308 425.934,369.873 425.876,370.532C425.827,371.085 425.761,371.709 426.107,372.169C426.18,372.225 426.727,372.651 426.973,372.892C427.314,373.226 427.47,373.594 427.493,373.852C427.571,374.704 427.917,375.643 427.995,376.54C428.077,377.48 428.066,378.448 428.203,379.377C428.328,380.223 428.099,381.108 428.021,381.934C427.921,382.993 427.975,383.946 427.75,384.953C427.608,385.591 427.27,386.153 427.138,386.784C427.047,387.215 426.971,387.84 426.78,388.217C425.664,390.417 424.711,392.518 424.397,395.006C424.277,395.958 424.373,396.921 424.481,397.871C435.245,385.617 441.334,376.145 445.11,368.051C445.13,368.007 445.123,367.956 445.091,367.92C438.14,360.09 431.371,353.015 425.076,347.906C425.049,347.884 425.014,347.875 424.98,347.881C424.945,347.886 424.915,347.907 424.897,347.936C424.436,348.683 424.001,349.429 423.592,350.174ZM319.212,394.677C323.279,394.243 327.519,394.563 332.004,395.936C331.979,394.889 331.889,393.838 331.765,392.851C331.594,391.491 331.048,390.078 330.719,388.769C330.544,388.076 330.669,387.303 330.679,386.617C330.535,386.569 330.395,386.513 330.261,386.446C329.534,386.082 328.88,385.6 328.176,385.248C327.136,384.728 325.736,383.837 325.122,382.9C322.966,379.613 323.78,374.757 326.018,371.8C326.639,370.979 327.533,369.856 327.909,369.116C328.362,368.222 329.356,367.608 330.038,366.936C330.668,366.315 331.518,365.524 332.429,364.979C330.996,363.275 329.547,361.593 328.091,359.92C328.07,359.896 328.039,359.881 328.007,359.879C327.974,359.877 327.942,359.889 327.918,359.911C320.371,366.819 316.357,373.468 315.964,381.994C315.754,386.563 316.759,390.778 319.212,394.677ZM341.741,376.927C341.721,377.047 341.684,377.177 341.628,377.312C341.58,377.426 341.467,377.66 341.444,377.707C341.288,378.538 341.125,379.425 341.04,380.281C340.761,383.086 340.166,385.81 340.117,388.624C341.193,389.331 342.317,390.01 343.342,390.751C344.265,391.417 345.499,391.736 346.749,391.887C346.517,391.597 346.307,391.289 346.118,390.963C346.118,390.961 345.12,381.987 345.12,381.987C345.118,381.968 345.112,381.951 345.102,381.935C344.013,380.222 342.891,378.556 341.741,376.927ZM333.716,366.52C332.849,366.907 332.039,367.773 331.441,368.361C331.135,368.663 330.757,368.946 330.396,369.249C330.508,369.375 330.6,369.513 330.682,369.661C330.784,369.847 330.857,370.057 330.97,370.261C331.615,371.419 332.15,372.892 332.37,374.211C332.811,376.856 334.125,379.223 335.038,381.666C335.325,382.433 335.506,383.378 335.75,384.272C335.937,384.956 336.14,385.616 336.566,386.042C336.772,386.247 336.869,386.521 336.858,386.79C337.299,386.997 337.735,387.213 338.165,387.444C338.324,384.977 338.803,382.56 339.049,380.083C339.141,379.158 339.316,378.199 339.485,377.303C339.523,377.103 339.718,376.678 339.771,376.564C339.846,376.085 340.26,375.718 340.759,375.718C340.801,375.718 340.843,375.721 340.884,375.726C338.58,372.537 336.176,369.49 333.716,366.52ZM329.099,370.99C328.64,371.664 328.064,372.41 327.612,373.007C325.837,375.353 325.084,379.196 326.794,381.804C327.243,382.488 328.311,383.079 329.071,383.459C329.775,383.811 330.428,384.294 331.155,384.657C331.691,384.925 332.343,384.967 332.9,385.176C333.293,385.323 333.685,385.471 334.075,385.621C334.044,385.533 334.013,385.443 333.984,385.352C333.666,384.365 333.492,383.242 333.165,382.367C332.207,379.806 330.86,377.313 330.397,374.54C330.213,373.435 329.762,372.204 329.223,371.234C329.178,371.153 329.137,371.071 329.099,370.99Z" style="fill:white;"/>
    </g>
</svg>
