<?xml version="1.0" encoding="UTF-8" standalone="no"?>
<!DOCTYPE svg PUBLIC "-//W3C//DTD SVG 1.1//EN" "http://www.w3.org/Graphics/SVG/1.1/DTD/svg11.dtd">
<svg width="100%" height="100%" viewBox="0 0 1000 1000" version="1.1" xmlns="http://www.w3.org/2000/svg" xmlns:xlink="http://www.w3.org/1999/xlink" xml:space="preserve" xmlns:serif="http://www.serif.com/" style="fill-rule:evenodd;clip-rule:evenodd;stroke-linejoin:round;stroke-miterlimit:2;">
    <g transform="matrix(1.61946,0,0,1.61946,-384.408,-108.945)">
        <path d="M345.752,568.345C340.473,563.173 336.116,558.063 332.218,552.964C453.367,506.809 572.741,531.437 690.489,621.417C686.059,626.53 680.772,630.875 674.746,634.559C675.779,633.739 676.524,632.73 676.902,631.549C678.586,626.293 672.379,619.6 663.05,616.612C653.722,613.625 644.781,615.466 643.098,620.722C641.414,625.979 647.621,632.672 656.95,635.659C662.932,637.575 668.755,637.505 672.607,635.822C644.304,651.952 600.894,654.558 553.685,653.761C554.645,648.625 548.578,642.379 539.658,639.522C530.329,636.534 521.389,638.376 519.705,643.632C519.262,645.015 519.366,646.497 519.929,647.986C436.016,623.541 391.274,602.903 364.262,583.706C371.816,584.924 378.315,582.917 379.725,578.516C381.408,573.259 375.201,566.566 365.872,563.579C356.544,560.591 347.603,562.433 345.92,567.689C345.851,567.905 345.795,568.124 345.752,568.345ZM330.14,550.19C453.062,503.013 574.189,527.924 693.643,619.634C708.553,616.781 720.693,612.64 730,607.181C601.565,515.221 469.856,460.406 327.543,525.869L330,550L330.14,550.19ZM746.844,389.433C762.467,401.867 777.837,415.413 792.976,430C790.672,484.731 781.488,549.236 755.423,600C605.378,498.744 449.708,431.032 300,515.493C296.783,454.83 303.996,396.452 320,340C459.087,274.108 580.547,284.768 689.787,349.786L688.68,370C697.568,425.664 718.04,432.707 745.6,410L746.844,389.433ZM515.872,545.669C525.201,548.657 531.408,555.35 529.725,560.606C528.041,565.862 519.101,567.704 509.772,564.716C500.444,561.728 494.237,555.035 495.92,549.779C497.603,544.523 506.544,542.681 515.872,545.669ZM740,410C714.814,425.493 700.736,411.37 695,375L705,250C689.54,198.853 667.729,164.616 640,146.946C587.656,113.592 503.394,109.778 450,203C439.083,204.418 427.416,208.763 416.124,216.471C468.071,129.196 500.67,67.599 660,114.081C709.663,128.569 741.165,167.795 750,250L740,410ZM748.222,343.801L746.081,377L790,415.711L792.976,382.243L748.222,343.801ZM752.463,296.466C778.38,321.005 793.16,346.887 792.975,370C778.828,356.726 764.581,344.427 750.246,333.143L752.463,296.466ZM497.772,251.331L486.848,288.141C555.704,285.817 621.879,303.59 687,338L690,305C626.145,265.944 562.069,248.293 497.772,251.331ZM369.787,284.372C356.53,290.556 343.269,297.59 330,305.469L324.022,330C337.876,323.445 351.591,317.689 365.172,312.712L369.787,284.372ZM487.21,252.017C454.357,254.725 421.445,262.823 388.479,276.215L381.834,306.973C414.426,296.467 446.311,290.439 477.636,288.571L487.21,252.017ZM692.859,293.686C578.893,226.602 458.415,222.368 330.166,293.334C374.223,230.669 447.03,186.136 552.938,204.832C606.972,214.37 655.749,232.57 694.986,254.84L692.859,293.686ZM440,248C427.053,250.792 413.938,254.134 401,259C402.313,247.76 410.761,240.857 417,238.919C423.68,236.844 436.191,240.13 440,248Z" style="fill:white;"/>
    </g>
</svg>
