<?xml version="1.0" encoding="UTF-8" standalone="no"?>
<!DOCTYPE svg PUBLIC "-//W3C//DTD SVG 1.1//EN" "http://www.w3.org/Graphics/SVG/1.1/DTD/svg11.dtd">
<svg width="100%" height="100%" viewBox="0 0 1000 1000" version="1.1" xmlns="http://www.w3.org/2000/svg" xmlns:xlink="http://www.w3.org/1999/xlink" xml:space="preserve" xmlns:serif="http://www.serif.com/" style="fill-rule:evenodd;clip-rule:evenodd;stroke-linejoin:round;stroke-miterlimit:2;">
    <g transform="matrix(1.5443,0,0,1.5443,-403.25,-249.433)">
        <path d="M795.711,584.386L734.906,538.128C733.533,537.083 733.267,535.121 734.311,533.749C735.355,532.376 737.317,532.109 738.69,533.154L806.833,584.994L807.146,585.26L807.262,585.376C807.446,585.572 807.601,585.789 807.726,586.018L807.74,586.045C807.956,586.45 808.074,586.889 808.099,587.329L808.101,587.672C808.078,588.12 807.959,588.566 807.74,588.977L807.726,589.004C807.601,589.234 807.447,589.45 807.262,589.646L807.217,589.692C807.101,589.811 806.976,589.92 806.843,590.019L806.833,590.028L738.69,641.869C737.317,642.913 735.355,642.646 734.311,641.274C733.267,639.901 733.533,637.939 734.906,636.894L795.711,590.636L374.074,590.636L434.879,636.894C436.252,637.939 436.518,639.901 435.474,641.274C434.43,642.646 432.468,642.913 431.095,641.869L362.952,590.028L362.942,590.019C362.809,589.92 362.684,589.811 362.569,589.692L362.523,589.646C362.338,589.45 362.184,589.234 362.059,589.004L362.045,588.977C361.826,588.566 361.707,588.12 361.684,587.672L361.686,587.329C361.711,586.889 361.829,586.45 362.045,586.045L362.059,586.018C362.184,585.789 362.339,585.572 362.523,585.376L362.67,585.229C362.76,585.144 362.854,585.066 362.952,584.994L431.095,533.154C432.468,532.109 434.43,532.376 435.474,533.749C436.518,535.121 436.252,537.083 434.879,538.128L374.074,584.386L795.711,584.386ZM803.926,379.942L871.27,328.71C872.642,327.665 874.605,327.932 875.649,329.305C876.693,330.677 876.427,332.64 875.054,333.684L810.141,383.067L875.054,432.451C876.427,433.495 876.693,435.457 875.649,436.83C874.605,438.202 872.642,438.469 871.27,437.425L803.926,386.192L365.859,386.192L298.515,437.425C297.143,438.469 295.18,438.202 294.136,436.83C293.092,435.457 293.359,433.495 294.731,432.451L359.644,383.067L294.731,333.684C293.359,332.64 293.092,330.677 294.136,329.305C295.18,327.932 297.143,327.665 298.515,328.71L365.859,379.942L803.926,379.942Z" style="fill:white;"/>
    </g>
</svg>
