<?xml version="1.0" encoding="UTF-8" standalone="no"?>
<!DOCTYPE svg PUBLIC "-//W3C//DTD SVG 1.1//EN" "http://www.w3.org/Graphics/SVG/1.1/DTD/svg11.dtd">
<svg width="100%" height="100%" viewBox="0 0 1000 1000" version="1.1" xmlns="http://www.w3.org/2000/svg" xmlns:xlink="http://www.w3.org/1999/xlink" xml:space="preserve" xmlns:serif="http://www.serif.com/" style="fill-rule:evenodd;clip-rule:evenodd;stroke-linejoin:round;stroke-miterlimit:2;">
    <g transform="matrix(5.39322,0,0,5.39322,-1765.15,-3418.51)">
        <path d="M420,643.124L453.976,726.562L420,810L386.024,726.562L420,643.124ZM420,654.219L449.458,726.562L420,798.905L390.542,726.562L420,654.219ZM420.661,793.29L419.002,728.706L447.516,727.339L420.661,793.29ZM392.461,727.284L417.542,728.677L419.193,792.931L392.461,727.284ZM447.554,725.877L418.98,727.247L420.658,659.827L447.554,725.877ZM417.522,727.215L392.468,725.823L419.19,660.201L417.522,727.215Z" style="fill:white;"/>
    </g>
</svg>
