<?xml version="1.0" encoding="UTF-8" standalone="no"?>
<!DOCTYPE svg PUBLIC "-//W3C//DTD SVG 1.1//EN" "http://www.w3.org/Graphics/SVG/1.1/DTD/svg11.dtd">
<svg width="100%" height="100%" viewBox="0 0 1000 1000" version="1.1" xmlns="http://www.w3.org/2000/svg" xmlns:xlink="http://www.w3.org/1999/xlink" xml:space="preserve" xmlns:serif="http://www.serif.com/" style="fill-rule:evenodd;clip-rule:evenodd;stroke-linejoin:round;stroke-miterlimit:2;">
    <g transform="matrix(0.846119,0,0,0.845865,83.6068,-43.0451)">
        <path d="M238.131,548.603C238.383,549.467 239.673,549.266 240,550C244.364,561.79 249.904,571.843 257.034,580C277.496,603.41 287.662,632.224 327.363,625.343C333.679,649.323 346.988,671.914 382.991,690C365.906,703.191 352.026,718.646 346.499,740C272.176,757.953 204.911,762.899 180.453,800C112.849,902.552 133.568,1023.49 145.318,1120L132.535,1163.85C107.14,1108.71 93.568,1053.12 130,950C87.146,1008.1 92.827,1061.42 110,1147.04C90.717,1099.35 61.698,1068.12 157.304,826.249C195.003,734.514 210.212,627.294 215.934,520C220.208,439.844 211.146,360.759 240,290.779C256.407,250.987 274.112,216.517 296.677,190C341.6,137.207 411.132,111.605 500,110C594.598,113.53 676.03,147.287 720,222.455C802.916,364.205 771.187,504.409 785.336,630C796.558,729.61 831.785,803.847 849.974,870C865.832,927.673 883.084,973.597 889.938,1010C903.947,1084.41 878.253,1138.43 860,1159C887.712,1098.84 891.144,1034.89 846.571,940C892.6,1055.36 875.469,1118.58 840,1174L836,1153C842.002,1110.6 841.04,1067.58 834,1024C838.76,1062.83 839.279,1100.62 830,1136C819.905,1107.44 819.028,1073.61 823,1037C878.456,836.717 832.507,773.54 717.163,750C739.407,561.053 729.379,391.438 684,243C723.018,418.78 709.175,592.124 709.685,750C710.095,877.239 734.267,1000.74 709,1109C712.811,1070.15 712.531,1031.14 709,992C711.77,1085.86 695.246,1128.65 671,1151C679.106,1127.77 685.92,1104.51 682,1081C680.832,1122.99 666.79,1138.79 650,1149C671.307,1104.33 680.788,1059.67 676,1015C676.878,1041.61 669.952,1066.61 655.315,1090C671.499,1030.2 662.113,970.28 653.36,910C647.617,870.452 647.699,830.13 648.331,790C649.323,727.083 650.115,663.711 659.022,600C686.211,405.523 641.767,265.478 610,225C653.403,303.931 657.402,391.358 660,486C651.446,434.636 637.153,381.908 620,330C630.831,381.667 633.399,433.333 622.227,485C612.941,436.667 600.157,388.333 585,340C588.569,381.667 589.455,423.333 585,465C572.409,412.656 552.655,363.236 530,315C531.054,375.83 524.305,436.66 510,497.49C494.519,427.107 478.035,357.756 460,290C458.033,354.664 464.716,419.665 480,485C448.196,413.944 431.988,342.372 440,270C416.253,276.195 396.075,283.266 380,293.075C369.695,299.364 360.459,306.345 352.195,313.835C352.739,314.413 354.287,315.99 354.837,316.566C351.351,321.817 346.812,326.656 341,331C340.426,330.301 338.853,328.6 338.279,327.894C334.11,332.588 330.246,337.422 326.663,342.364C327.765,343.545 329.877,345.725 331,346.901C327.514,352.152 322.975,356.991 317.163,361.335C316.951,361.077 315.738,359.818 315.525,359.557C285.242,412.01 282.139,471.262 283.775,500C267.224,472.946 253.006,466.302 243.4,500C243.245,500.643 242.094,500.279 241.947,500.909L257,508C257.032,522.822 255.122,539.177 251,553L238.131,548.603ZM255,509L241,502L234,546L249,550C253.122,536.177 255.032,523.822 255,509ZM328,346.901C324.514,352.152 322.975,353.991 317.163,358.335C304.288,342.667 290.97,327.766 278.891,310.335L288.796,297C301.56,313.594 312.849,331.029 328,346.901ZM351.837,316.566C348.351,321.817 346.812,323.656 341,328C328.125,312.332 314.807,297.431 302.728,280L312.633,266.665C325.397,283.259 336.686,300.694 351.837,316.566Z" style="fill:white;"/>
    </g>
</svg>
