<?xml version="1.0" encoding="UTF-8" standalone="no"?>
<!DOCTYPE svg PUBLIC "-//W3C//DTD SVG 1.1//EN" "http://www.w3.org/Graphics/SVG/1.1/DTD/svg11.dtd">
<svg width="100%" height="100%" viewBox="0 0 1000 1000" version="1.1" xmlns="http://www.w3.org/2000/svg" xmlns:xlink="http://www.w3.org/1999/xlink" xml:space="preserve" xmlns:serif="http://www.serif.com/" style="fill-rule:evenodd;clip-rule:evenodd;stroke-linejoin:round;stroke-miterlimit:2;">
    <g transform="matrix(0.996792,0,0,0.996792,-2.37192,2.56284)">
        <path d="M729.898,749.031C715.298,752.028 701.159,756.805 687.598,763.805C673.095,803.206 670.506,845.629 683.812,885.604C687.576,899.649 695.364,903.866 709.479,892.623C722.854,888.312 735.277,895.377 747.438,905.572C756.388,923.206 766.438,919.879 776.989,907.025C794.767,864.279 785.131,813.41 729.898,749.031ZM590.876,159.735C405.756,167.845 334.668,259.152 327.143,396.834C296.529,408.111 267.916,426.83 253.244,456.752C222.621,519.207 261.816,598.978 298.838,648.684C306.942,659.565 323.875,673.07 335.647,679.799C366.917,697.673 403.447,699.69 438.234,691.715C451.297,692.351 473.054,692.522 487.159,697.987C502.416,703.898 524.041,724.072 533.003,730.594C557.316,748.288 585.71,769.646 616.931,773.441C649.715,777.426 688.441,754.499 717.119,744.229C751.415,731.947 797.299,725.553 818.658,691.056C829.868,692.968 840.61,689.418 851.076,682.647C853.91,670.901 855.003,658.719 855.057,646.658C855.093,638.689 851.517,628.617 841.597,628.116C804.245,626.23 766.773,627.921 729.371,627.263C647.475,625.822 546.683,632.732 470.657,594.402C458.544,594.348 441.277,594.471 430.575,586.563C416.344,576.045 401.99,552.98 391.86,539.616C423.975,552.844 461.749,572.723 497.682,569.896C550.445,565.745 601.19,532.387 648.89,513.13C716.116,485.991 740.918,482.697 821.878,467.516C847.84,462.648 892.362,457.072 920.08,459.586C912.717,416.951 884.787,378.802 822.002,348.254C801.126,346.063 779.302,320.629 756.616,274.032C722.426,205.452 668.298,165.733 590.876,159.735ZM236.574,563.434C222.017,574.264 206.698,582.459 188.438,580.496C130.687,575.992 91.925,594.291 63.355,624.829C45.649,650.869 49.92,664.79 74.436,667.546C92.357,675.815 95.838,687.83 88.177,702.735C85.66,741.443 98.173,749.189 118.708,740.406C132.8,733.665 146.553,726.153 159.762,717.832C186.574,700.943 206.135,667.104 223.885,643.188C233.858,629.751 245.035,617.097 253.707,602.808C217.851,603.667 209.816,591.62 236.574,563.434ZM859.721,680.404C859.332,668.701 861.485,657.03 861.908,645.324C861.966,643.703 863.957,625.842 856.607,624.223C822.162,616.632 775.474,618.213 741.334,618.233C676.33,618.272 665.76,620.29 600.617,615.226C563.691,612.356 517.197,609.95 482.017,593.735C492.476,598.041 529.197,595.798 534.674,595.229C633.808,584.914 675.902,573.928 783.376,557.54C816.94,552.423 850.475,546.481 884.333,544.085C894.63,543.356 903.524,556.75 907.416,563.081C911.372,569.519 914.484,576.444 917.58,583.331C921.041,631.028 895.167,658.943 859.721,680.404ZM406.544,551.764C420.576,574.474 432.394,586.934 473.871,589.009C569.644,596.737 666.584,565.987 760.102,551.226C800.577,544.837 841.153,538.875 881.916,534.767C891.109,533.841 898.675,540.633 903.446,547.223C909.515,555.607 914.324,564.822 919.686,573.667C967.389,547.092 967.168,512.034 920.135,468.69C830.344,469.022 742.481,484.691 658.98,518.116C600.021,541.718 536.582,586.111 468.3,579.019C446.291,576.734 423.549,563.194 406.544,551.764ZM595.074,407.118C600.493,439.779 604.044,476.65 592.91,508.837C590.132,516.866 587.636,525.893 581.213,531.531C573.169,538.592 561.823,540.725 551.911,544.826C532.602,552.813 523.505,556.347 503.234,558.272C499.814,558.596 496.339,558.13 492.967,557.509C489.689,556.906 482.401,557.779 483.405,554.622C486.82,543.882 496.779,536.348 502.748,526.751C513.416,509.6 523.155,490.21 529.538,471.025C532.338,462.606 529.881,451.697 536.021,445.232C540.411,440.61 548.957,445.589 555.164,444.044C573.861,439.393 586.385,422.892 595.074,407.118ZM529.294,446.977C521.283,476.282 508.858,504.398 491.557,529.567C486.053,537.574 483.122,550.208 473.652,552.593C460.767,555.838 447.57,547.587 434.866,543.842C424.2,540.699 400.592,542.587 403.719,531.981C411.774,504.664 437.429,485.438 457.974,465.477C460.354,463.165 462.409,470.425 465.09,472.356C469.867,475.795 475.183,477.359 481.085,477.109C499.703,476.32 517.47,458.977 529.294,446.977ZM446.06,464.009C438.904,474.765 401.818,526.386 390.198,533.209C379.051,539.754 346.349,536.005 335.407,525.483C331.718,521.936 324.827,510.224 327.802,506.082C342.549,485.55 361.018,467.59 380.505,451.379C382.855,449.424 381.896,457.304 383.088,460.088C385.141,464.883 388.205,469.037 392.769,471.77C408.454,481.163 432.531,470.498 446.06,464.009ZM369.145,452.046C358.76,449.771 354.752,441.239 354.636,431.461C354.587,427.286 359.95,417.621 355.958,418.994C342.348,423.674 331.802,434.633 320.315,443.264C308.612,452.058 296.272,460.383 286.464,471.214C284.255,473.653 286.012,477.747 286.137,481.01C286.329,486.023 287.201,491.202 289.427,495.76C291.958,500.942 297.169,505.965 303.045,507.224C307.62,508.205 313.403,511.885 316.996,508.885C336.761,492.386 353.06,472.083 369.145,452.046ZM571.407,321.571C571.735,322.225 572.05,322.884 572.349,323.549C580.548,310.534 583.846,294.723 579.946,274.269C579.457,268.986 573.691,265.483 569.445,262.264C561.427,256.187 552.518,251.29 543.551,246.683C516.872,232.976 480.159,230.397 455.701,250.298C446.304,257.945 439.174,268.786 433.784,279.379C426.607,293.486 422.281,309.666 419.935,325.073C419.262,329.488 416.181,336.925 420.41,338.448C429.922,354.903 440.758,365.132 452.22,370.781C451.909,369.968 451.618,369.159 451.348,368.358C494.927,362.876 537.561,347.661 571.407,321.571ZM451.195,367.898C431.747,308.674 515.834,263.105 560.104,306.228C564.569,310.576 568.408,315.698 571.244,321.251C552.328,329.851 532.235,338.139 511.823,345.994C491.647,353.759 471.16,361.1 451.195,367.898ZM760.938,272.911C771.626,294.343 785.155,315.087 803.35,331.063C808.802,335.849 813.59,344.298 820.894,343.982C823.202,343.883 814.797,318.285 814.732,318.117C805.534,294.313 785.719,278.842 760.938,272.911ZM671.061,175.408C692.768,186.384 710.596,198.457 722.151,212.306C739.502,199.193 747.243,183.554 749.473,166.466C736.881,166.184 725.635,172.682 712.993,172.907C705.548,173.039 699.991,167.37 692.601,167.576C686.598,167.744 674.538,174.277 671.061,175.408ZM591.929,154.903C574.801,154.43 557.501,155.795 540.005,159.253C514.28,140.904 506.885,113.338 510.307,80.334C517.704,87.108 530.978,98.062 539.734,103.49C551.713,110.915 565.751,115.573 576.066,125.131C584.441,132.891 588.748,144.303 591.929,154.903Z" style="fill:white;"/>
    </g>
</svg>
