<?xml version="1.0" encoding="UTF-8" standalone="no"?>
<!DOCTYPE svg PUBLIC "-//W3C//DTD SVG 1.1//EN" "http://www.w3.org/Graphics/SVG/1.1/DTD/svg11.dtd">
<svg width="100%" height="100%" viewBox="0 0 1000 1000" version="1.1" xmlns="http://www.w3.org/2000/svg" xmlns:xlink="http://www.w3.org/1999/xlink" xml:space="preserve" xmlns:serif="http://www.serif.com/" style="fill-rule:evenodd;clip-rule:evenodd;stroke-linejoin:round;stroke-miterlimit:2;">
    <g transform="matrix(4.6875,0,0,4.6875,-1023.44,-182.034)">
        <path d="M320.091,240.088C318.858,235.837 311.469,226.662 303.935,224.864C295.391,222.826 289.129,209.325 290,210C310.456,201.797 330.756,196.758 350,213C350.912,215.616 342.195,225.824 336.229,226.312C327.976,226.987 321.672,236.053 320.091,240.088C320.349,240.98 320.337,241.655 320,242C319.569,242.035 319.623,241.282 320.091,240.088ZM351,216C363.616,223.435 380.446,221.921 405,204C403.659,200.524 397.864,197.185 387,194C381.363,202.441 368.718,209.602 351,216ZM293,206C273.597,220.239 256.777,220.725 243,205C250.256,201.725 256.661,197.781 262,193C268.539,198.429 278.159,202.968 293,206ZM341,180L339,202C343.215,204.547 347.688,207.734 353,213C365.049,211.097 386.357,194.349 386,192C386.745,193.535 408.985,173.306 418,159C392.14,158.341 366.464,164.97 341,180ZM336,201C322,198.694 309,201.036 295,205C293.938,179.488 299.842,156.398 319.993,140C332.636,149.089 342.978,161.72 336,201ZM296,172.5C293.172,182.591 292.127,192.772 292,203C283.289,202.119 272.849,198.185 260,190C255.552,181.342 249.636,169.061 243,155C263.877,158.678 282.877,163.617 296,172.5ZM371,162C360.858,165.864 351.051,170.962 341.5,177C340.717,168.398 338.713,159.898 335.5,151.5C345.218,136.343 358.453,127.427 374.5,123.5C377.966,137.594 376.128,150.244 371,162ZM305,153C301.805,157.925 299.081,163.51 297,170C288.682,164.839 279.869,161.327 271,158C264.614,145.667 265.071,133.333 271,121C286.226,127.524 298.731,136.943 305,153ZM378,123C380.206,136.554 379.317,149.624 374,162C383.304,158.996 392.258,157.148 401,156C404.935,144.546 411.33,134.273 421,125.572C413.461,117.327 397.964,117.734 378,123ZM251,154C256.94,154.642 262.572,156.064 268,158C262.982,149.351 262.767,138.211 266,127C256.26,120.523 243.789,118.762 229,121C238.939,129.19 246.457,139.991 251,154ZM348,104C365.176,88.226 381.146,76.889 394,77C394.187,92.032 390.836,106.117 383,119C363.304,122.737 346.565,129.693 334,150L331,146C333.774,138.166 336.981,129.768 342,119C350.846,116.531 353.706,111.848 348,104ZM312,142L307,148C307.822,136.495 306.928,125.5 301,116C295.294,112.455 294.066,106.058 296,104.188C298.851,101.432 306.204,104.401 305,110C309.036,119.086 311.434,129.693 312,142ZM283,124C280.854,96.961 282.771,71.348 294,49C309.99,59.767 322.151,73.24 324,94L321,93C312.858,97.633 314.308,102.759 318,108C318.602,118.333 317.568,128.667 316,139L314,140.593C313.695,129.976 311.973,119.652 307,110C307.573,101.883 300.346,98.969 295.65,101.56C291.711,103.733 291.091,110.782 299,117C305.468,127.333 306.363,137.667 305,148C300.869,139.508 295.089,131.269 283,124ZM330,145.5L326,141C329.294,130.916 333.477,121.678 338.251,113C341.414,100.25 345.879,103.281 348,107.058C350.224,111.019 349.879,116.044 341,117C336.795,125.312 332.917,135.543 330,145.5ZM323,139.5L324.5,140.5C327.596,130.127 331.664,120.872 336.5,112.5C338.304,106.385 340.157,100.367 346.5,103L351.5,98C357.61,84.398 358.407,68.293 353.5,49.5C340.979,57.931 329.252,67.014 323.5,81C325.594,85.833 326.279,90.667 326,95.5C328.31,99.864 327.724,103.853 324.5,107.5C325.851,118.066 324.727,128.767 323,139.5ZM322,139L320,137L318,139C319.706,130.311 320.484,119.855 320,107C312.712,99.955 321.326,94.116 321.853,95C322.296,95.745 328.677,99.841 323,107C323.446,117.823 323.036,128.474 322,139ZM267,125C264.67,122.902 261.516,121.393 257.5,120.5C253.322,107.197 251.486,93.985 255.5,81C268.81,83.237 276.348,87.554 280,94C279.865,104.121 280.739,113.643 281,123C277.576,121.081 273.94,119.528 270,118.5C268.606,120.454 267.612,122.624 267,125Z" style="fill:white;"/>
    </g>
</svg>
