<?xml version="1.0" encoding="UTF-8" standalone="no"?>
<!DOCTYPE svg PUBLIC "-//W3C//DTD SVG 1.1//EN" "http://www.w3.org/Graphics/SVG/1.1/DTD/svg11.dtd">
<svg width="100%" height="100%" viewBox="0 0 1000 1000" version="1.1" xmlns="http://www.w3.org/2000/svg" xmlns:xlink="http://www.w3.org/1999/xlink" xml:space="preserve" xmlns:serif="http://www.serif.com/" style="fill-rule:evenodd;clip-rule:evenodd;stroke-linejoin:round;stroke-miterlimit:2;">
    <g transform="matrix(0.977936,0,0,0.977936,-7.05826,-8.37737)">
        <path d="M769.372,869.368L769.747,870.334L749.036,869.712L821.078,972.934C825.599,978.147 834.896,980.006 842.699,980L843.006,979.999C848.217,979.962 852.718,979.094 854.616,977.844C858.269,975.439 857.826,969.987 852.534,960.924L725.929,690.223L708.04,681.912L637.964,599.478L636.563,646.077C649.313,651.747 660.279,656.134 670.147,667.817C676.432,675.258 681.031,683.318 684.66,690.427C692.787,692.882 702.942,697.546 710.876,701.84C719.943,706.746 726.111,711.168 723.047,711.257L722.959,711.258C722.354,711.259 721.424,711.108 720.128,710.779C708.102,707.722 697.307,704.058 688.971,699.176C689.986,701.256 690.921,703.134 691.806,704.745C691.806,704.745 698.536,717.829 708.242,737.286C716.428,739.71 726.764,744.449 734.815,748.805C743.881,753.712 750.049,758.134 746.986,758.222L746.897,758.223C746.293,758.225 745.363,758.073 744.067,757.744C731.858,754.641 720.919,750.912 712.536,745.921C718.71,758.373 725.733,772.709 732.839,787.56C741.08,789.949 751.604,794.764 759.774,799.185C768.84,804.091 775.009,808.513 771.945,808.602L771.857,808.603C771.252,808.604 770.322,808.453 769.026,808.123C756.677,804.985 745.626,801.205 737.204,796.126L736.805,795.883C749.212,822.041 761.431,848.976 769.372,869.368ZM511.336,578.947L510.534,578.948C474.993,578.941 440.399,570.999 406.892,554.025L406.136,553.64L416.432,642.051L454.187,657.519L454.773,638.021C454.826,636.262 456.273,634.873 458.023,634.881L458.106,634.882L561.661,637.995C562.815,638.03 563.863,638.676 564.412,639.691C564.961,640.707 564.928,641.937 564.325,642.922L542.974,677.81L536.634,888.698L564.604,884.897L625.606,751.988L630.587,586.3L610.654,559.789C576.823,572.185 543.681,578.847 511.336,578.947ZM651.552,664.666L636.33,653.844L633.762,739.277L723.303,863.756L757.036,862.178L679.018,699.178C671.873,684.608 663.443,671.998 651.552,664.666ZM555.89,644.3L461.148,641.452L458.862,717.5L506.673,743.23L514.072,841.918C519.382,846.761 525.111,850.136 531.258,852.042L536.527,676.756C536.544,676.193 536.708,675.644 537.002,675.163L555.89,644.3ZM788.811,619.574L788.787,619.287C763.83,639.186 747.022,659.881 739.402,681.475C739.987,681.486 740.579,681.491 741.177,681.492L741.626,681.491C745.685,681.475 750.045,681.223 754.718,680.724C769.433,666.672 780.032,652.298 787.107,637.647C788.506,631.621 789.304,625.597 788.811,619.574ZM734.261,558.697L732.774,557.364C699.214,576.103 678.482,601.299 672.045,628.432C685.226,643.693 698.844,658.776 712.878,673.698L713.712,672.443C731.266,646.124 750.756,621.235 779.375,600.648C764.621,586.485 749.62,572.477 734.261,558.697ZM367.841,189.72L180,59.694L187.554,153.205L307.305,307.095L368.971,324.496L369.78,322.799C403.984,251.239 432.295,218.588 486.482,208.152C493.028,206.892 499.678,206.302 506.35,206.325L507.152,206.331C568.621,206.993 632.523,259.241 642.718,317.179C644.285,326.083 645.134,335.093 645.265,344.068C640.87,346.92 636.713,350.274 632.757,354.056L632.375,354.423L614.292,352.601C611.833,346.304 607.857,341.762 603.296,337.897C597.745,291.624 559.015,255.065 511.027,253.622C510.203,253.597 509.38,253.583 508.556,253.579L507.94,253.578C456.452,253.66 413.918,294.694 412.36,346.531C410.77,399.397 452.401,443.609 505.268,445.198C506.153,445.225 507.036,445.239 507.916,445.242L508.576,445.242C521.539,445.191 533.932,442.545 545.247,437.782L545.489,437.881C550.586,439.908 556.241,439.658 562.409,440.728L573.809,453.924C569.664,460.648 567.734,467.892 566.853,475.382C561.759,477.51 556.422,479.341 550.838,480.851C539.953,483.794 526.307,485.55 511.584,485.579L510.978,485.579C474.388,485.537 431.28,474.845 407.21,445.321L406.813,444.83L349.702,448.295L274.101,549.671L293.255,602.071L398.678,543.051L399.675,543.476C441.87,561.371 481.832,569.503 518.455,569.438L519.32,569.435C555.889,569.243 589.112,560.866 617.883,545.872L617.867,546.18C617.552,552.63 618.419,559.005 620.854,565.278C634.442,583.21 648.648,600.899 663.434,618.363L663.711,617.687C675.483,589.111 693.801,565.222 725.533,550.926C709.768,536.998 693.606,523.316 676.933,509.957C674.217,508.679 671.562,507.956 668.963,507.736C707.711,467.752 730.907,411.067 732.832,345.8C736.496,221.615 631.522,132.5 517.355,132.22L516.387,132.22C466.069,132.322 414.001,149.7 368.711,188.962L367.841,189.72ZM613.931,364.596L630.675,366.05C632.613,372.554 636.357,378.059 641.233,382.937C635.175,409.464 622.324,433.873 602.695,452.255L602.23,452.688C597.16,450.331 591.637,448.577 585.523,447.611L572.968,434.278C575.364,428.419 576.136,422.511 576.463,416.591C587.945,404.922 596.479,390.311 600.803,373.946C605.887,371.104 610.421,368.049 613.931,364.596ZM507.951,258.758C459.247,258.836 419.011,297.652 417.537,346.686C416.034,396.695 455.415,438.517 505.424,440.021C506.399,440.05 507.371,440.064 508.344,440.062L508.926,440.059C557.368,439.675 597.29,400.973 598.758,352.134C600.262,302.125 560.881,260.303 510.872,258.8C510.092,258.776 509.313,258.763 508.534,258.759L507.951,258.758ZM508.53,265.234L507.995,265.233C497.483,265.247 487.395,267.204 478.089,270.77L478.122,270.771C500.269,271.437 517.709,289.958 517.043,312.105C516.762,321.453 513.3,329.963 507.726,336.626C510.371,337.588 512.27,341.58 512.128,346.291C511.97,351.565 509.311,355.787 506.162,355.825L506.087,355.825C506.062,355.825 506.037,355.825 506.012,355.824C502.797,355.727 500.317,351.299 500.478,345.941C500.506,345.03 500.608,344.151 500.774,343.319L500.808,343.153C494.25,348.02 486.17,350.929 477.459,351.041L477.023,351.045C476.587,351.045 476.149,351.039 475.709,351.026C453.562,350.36 436.122,331.839 436.788,309.692C436.844,307.813 437.029,305.968 437.334,304.166L437.397,303.806C429.349,316.255 424.487,330.99 424.01,346.881C422.614,393.318 459.181,432.152 505.618,433.548C506.524,433.576 507.427,433.588 508.33,433.587L508.871,433.584C553.853,433.228 590.923,397.29 592.286,351.94C593.682,305.502 557.114,266.668 510.677,265.272C509.96,265.25 509.244,265.238 508.53,265.234ZM479.846,274.886L479.395,274.852C487.565,278.27 493.197,286.459 492.916,295.832C492.559,307.693 482.864,317.092 471.099,317.186L470.817,317.186C470.627,317.185 470.438,317.182 470.249,317.176C458.104,316.811 448.54,306.654 448.905,294.509C448.964,292.554 449.276,290.665 449.81,288.874L449.863,288.701C448.266,290.234 446.728,291.829 445.255,293.484C442.575,298.343 440.979,303.891 440.801,309.813C440.201,329.745 455.897,346.414 475.83,347.013C476.141,347.023 476.451,347.028 476.762,347.03L477.226,347.029C496.533,346.876 512.445,331.45 513.03,311.984C513.611,292.67 498.891,276.42 479.846,274.886Z" style="fill:white;"/>
    </g>
</svg>
