<?xml version="1.0" encoding="UTF-8" standalone="no"?>
<!DOCTYPE svg PUBLIC "-//W3C//DTD SVG 1.1//EN" "http://www.w3.org/Graphics/SVG/1.1/DTD/svg11.dtd">
<svg width="100%" height="100%" viewBox="0 0 1000 1000" version="1.1" xmlns="http://www.w3.org/2000/svg" xmlns:xlink="http://www.w3.org/1999/xlink" xml:space="preserve" xmlns:serif="http://www.serif.com/" style="fill-rule:evenodd;clip-rule:evenodd;stroke-linejoin:round;stroke-miterlimit:2;">
    <g transform="matrix(2.77393,0,0,2.71881,-392.439,-634.431)">
        <path d="M223.222,328.33C242.33,323.422 262.173,325.694 279.846,333.526L279.847,333.526C284.809,335.725 289.599,338.362 294.155,341.402C303.045,346.576 311.884,352.151 320.736,357.62L315.167,360.087C314.362,359.849 313.565,359.624 312.775,359.407C310.181,358.696 307.683,358.106 305.247,357.589C305.134,357.559 305.015,357.618 304.982,357.72C304.949,357.822 305.014,357.929 305.127,357.959C307.474,358.699 309.782,359.74 312.353,360.464C317.469,361.905 327.058,370.486 329.603,373.849L325.957,374.864C324.298,373.923 322.644,373.056 321,372.248C317.65,370.602 314.346,369.225 311.081,368.082C310.972,368.04 310.846,368.085 310.799,368.182C310.752,368.28 310.802,368.393 310.911,368.435C314.041,369.783 317.182,371.377 320.364,373.214C322.139,374.239 323.917,375.345 325.717,376.519C326.37,376.945 327.026,377.377 327.684,377.82C331.344,381.461 335.131,386.2 338.988,391.542L335.486,392.516C334.063,391.646 332.693,390.85 331.38,390.111C328.675,388.587 326.226,387.333 324.038,386.33C323.935,386.277 323.804,386.309 323.746,386.401C323.687,386.494 323.723,386.612 323.825,386.664C325.508,387.632 327.335,388.79 329.33,390.125C330.836,391.134 332.42,392.248 334.112,393.45C334.606,393.801 335.11,394.157 335.622,394.522C337.934,396.558 340.196,398.826 342.386,401.439L338.237,404.901C336.816,403.732 335.473,402.633 334.171,401.603C331.5,399.489 329.047,397.651 326.696,395.884C326.609,395.812 326.473,395.817 326.393,395.895C326.313,395.973 326.319,396.095 326.405,396.167C327.515,397.188 328.641,398.236 329.817,399.331C331.547,400.942 333.351,402.662 335.337,404.535C336.099,405.254 336.895,405.986 337.711,406.754C337.851,406.878 338.023,406.955 338.203,406.983C340.139,409.578 342.019,412.359 343.844,415.326L336.993,420.307C336.993,420.36 336.993,420.414 336.992,420.467C336.872,420.359 336.751,420.253 336.629,420.15C335.707,419.374 334.755,418.726 333.771,418.19C332.002,417.227 330.165,416.631 328.243,416.366C328.128,416.342 328.013,416.407 327.987,416.511C327.961,416.615 328.033,416.718 328.148,416.742C329.908,417.222 331.533,418.006 333.056,419.11C333.881,419.708 334.656,420.408 335.417,421.199C335.883,421.684 336.342,422.2 336.786,422.76C336.89,422.881 337.024,422.969 337.172,423.023C338.919,425.782 340.584,428.74 342.152,431.935L336.849,435.626C336.762,435.572 336.676,435.52 336.591,435.468C335.551,434.839 334.639,434.377 333.839,434.09C333.736,434.038 333.605,434.07 333.547,434.163C333.489,434.256 333.526,434.373 333.629,434.425C334.168,434.794 334.732,435.295 335.368,435.912C335.626,436.162 335.885,436.43 336.154,436.714C337.991,439.725 339.783,443.376 341.533,447.603L337.963,450.778C337.322,450.062 336.682,449.363 336.038,448.688C334.302,446.871 332.562,445.221 330.841,443.8C328.51,441.875 326.213,440.386 323.964,439.529C323.857,439.484 323.729,439.525 323.679,439.622C323.629,439.718 323.675,439.833 323.782,439.878C325.886,440.865 327.973,442.476 330.074,444.497C331.639,446.002 333.192,447.739 334.77,449.611C335.738,450.758 336.719,451.95 337.695,453.184C337.772,453.276 337.866,453.35 337.969,453.405C338.237,454.148 338.5,454.904 338.76,455.67L335.747,460.584C335.586,460.353 335.424,460.126 335.26,459.902C334.507,458.879 333.741,457.931 332.968,457.048C331.486,455.355 329.993,453.931 328.483,452.8C328.397,452.727 328.262,452.731 328.181,452.808C328.099,452.885 328.103,453.007 328.189,453.08C329.252,454.11 330.266,455.331 331.269,456.72C332.054,457.808 332.808,458.998 333.576,460.274C334.046,461.055 334.525,461.862 334.993,462.705C335.137,462.941 336.257,464.639 336.557,465.4L332.367,471.652C332.218,471.449 332.068,471.248 331.918,471.051C331.05,469.907 330.197,468.861 329.369,467.89C327.696,465.927 326.126,464.307 324.641,462.969C324.562,462.889 324.427,462.882 324.339,462.953C324.251,463.024 324.243,463.145 324.321,463.225C325.377,464.424 326.454,465.82 327.589,467.434C328.436,468.638 329.295,469.96 330.211,471.405C330.752,472.259 331.318,473.148 331.889,474.089C331.947,474.176 332.019,474.251 332.102,474.312L332.192,474.585L325.781,481.137L323.22,474.771L322.608,475.631L324.501,482.13L317.131,488.56C316.103,485.039 315.04,481.604 313.894,478.374L312.956,478.943C313.678,482.464 314.168,486.103 314.378,489.884L308.561,493.441C307.801,491.154 306.996,488.98 306.141,486.928L304.958,487.408C305.678,489.765 306.31,492.14 306.86,494.532L296.12,497.962C295.769,495.721 295.311,493.52 294.765,491.352C294.189,491.651 293.607,491.943 293.021,492.229C293.283,494.745 293.447,497.265 293.505,499.79L283.856,504.375L280.648,497.018L279.969,497.207L281.932,504.911L271.092,506.027C269.558,503.913 268.113,501.749 266.752,499.539C266.089,499.601 265.426,499.655 264.763,499.701C265.671,501.768 266.673,503.818 267.788,505.847L256.771,508.472C255.726,506.217 254.76,503.935 253.876,501.624L252.599,501.828C253.179,503.956 253.877,506.161 254.683,508.435L247.651,508.453C245.455,505.225 243.578,501.972 241.968,498.698L240.836,498.705C241.915,501.954 243.19,505.33 244.548,508.759L234.434,507.195L231.923,500.868L230.878,500.469L232.755,507.025L223.355,504.873L223.258,504.602C223.289,504.51 223.302,504.411 223.294,504.309C223.176,503.243 223.086,502.221 222.997,501.242C222.848,499.584 222.728,498.055 222.673,496.631C222.599,494.722 222.613,493.023 222.732,491.496C222.747,491.391 222.665,491.294 222.547,491.28C222.43,491.267 222.323,491.341 222.308,491.447C221.921,493.306 221.641,495.442 221.489,497.912C221.414,499.134 221.366,500.431 221.366,501.817C221.366,502.056 221.368,502.297 221.372,502.541L213.994,499.508C213.765,498.728 213.625,496.756 213.597,496.489C213.454,495.554 213.344,494.645 213.242,493.762C213.077,492.318 212.954,490.953 212.92,489.655C212.876,487.999 212.948,486.476 213.181,485.086C213.206,484.982 213.132,484.879 213.017,484.857C212.901,484.834 212.787,484.9 212.762,485.004C212.224,486.705 211.884,488.639 211.722,490.789C211.638,491.911 211.599,493.083 211.619,494.31C211.624,494.578 211.632,494.848 211.644,495.121L206.077,492.594C205.811,491.829 205.555,491.072 205.31,490.323C205.361,490.225 205.392,490.116 205.398,490.001C205.43,488.487 205.493,487.004 205.573,485.565C205.703,483.218 205.896,480.995 206.244,478.958C206.712,476.222 207.425,473.832 208.544,471.948C208.604,471.856 208.57,471.738 208.468,471.684C208.366,471.63 208.235,471.661 208.175,471.752C206.855,473.602 205.892,475.998 205.174,478.771C204.644,480.819 204.242,483.065 203.948,485.447C203.839,486.332 203.749,487.234 203.669,488.15L198.731,487.344C197.527,482.965 196.717,479.04 196.346,475.621C196.391,475.25 196.437,474.897 196.493,474.559C196.631,473.727 196.782,473.027 196.997,472.449C197.049,472.353 197.006,472.238 196.9,472.191C196.794,472.144 196.665,472.183 196.613,472.278C196.133,472.922 195.669,473.767 195.205,474.814C195.167,474.9 195.129,474.987 195.091,475.076L188.399,474.723C187.691,471.289 187.212,468 186.925,464.835C187.013,464.716 187.068,464.575 187.079,464.422C187.094,463.734 187.149,463.075 187.23,462.438C187.363,461.398 187.564,460.427 187.87,459.514C188.436,457.829 189.286,456.356 190.437,455.065C190.518,454.987 190.513,454.865 190.426,454.793C190.339,454.72 190.204,454.725 190.124,454.803C188.703,455.999 187.56,457.424 186.703,459.118C186.226,460.06 185.847,461.078 185.572,462.187C185.536,462.335 185.502,462.484 185.471,462.634C185.437,462.59 185.403,462.546 185.37,462.502L176.592,461.87C176.239,458.494 176.048,455.242 176.02,452.117C176.15,452.002 176.245,451.851 176.283,451.678C176.475,450.63 176.673,449.621 176.851,448.64C177.317,446.085 177.728,443.749 178.146,441.54C178.431,440.038 178.704,438.601 178.98,437.194C179.006,437.091 178.934,436.987 178.819,436.963C178.704,436.939 178.589,437.004 178.563,437.108C177.73,439.761 176.857,442.525 175.976,445.628C175.547,447.139 175.127,448.728 174.687,450.416L169.091,449.665C169.262,446.396 169.708,443.374 170.34,440.518C170.534,439.957 170.727,439.407 170.915,438.866C171.558,437.015 172.167,435.29 172.778,433.692C173.588,431.576 174.372,429.692 175.154,428.038C175.205,427.942 175.161,427.827 175.054,427.781C174.948,427.734 174.82,427.774 174.768,427.87C173.59,429.81 172.355,432.089 171.077,434.722C170.457,435.999 169.824,437.352 169.194,438.794L165.693,439.768C165.529,433.399 165.685,427.562 166.424,422.697C166.69,421.997 166.96,421.307 167.232,420.624C167.983,418.74 168.758,416.924 169.581,415.175C171.055,412.042 172.65,409.131 174.39,406.428C174.453,406.338 174.423,406.219 174.323,406.162C174.223,406.105 174.091,406.132 174.028,406.222C172.048,408.825 170.183,411.64 168.45,414.701C167.599,416.203 166.778,417.76 165.997,419.379L162.351,420.393C162.344,416.324 164.882,404.369 168.202,400.58C169.871,398.676 171.125,396.644 172.598,394.841C172.672,394.759 172.659,394.637 172.568,394.57C172.476,394.502 172.341,394.514 172.267,394.596C170.58,396.261 168.888,398.017 167.191,399.922C166.675,400.502 166.158,401.093 165.643,401.698L159.499,402.491C163.379,393.478 167.182,384.386 171.278,375.598C173.134,370.774 175.436,366.163 178.154,361.827L178.154,361.826C187.835,346.382 202.793,334.424 221.644,328.769L221.639,328.753L222.429,328.538L223.216,328.314L223.222,328.33ZM322.94,357.479C322.946,357.56 322.947,357.641 322.942,357.723L328.28,360.087C329.086,359.849 329.882,359.624 330.672,359.407C333.266,358.696 335.764,358.106 338.2,357.589C338.313,357.559 338.432,357.618 338.465,357.72C338.499,357.822 338.433,357.929 338.32,357.959C335.974,358.699 333.665,359.74 331.094,360.464C329.011,361.051 326.186,362.822 323.398,364.941C325.278,366.479 327.06,368.094 328.517,369.533C329.806,369.012 331.089,368.529 332.367,368.082C332.475,368.04 332.601,368.085 332.648,368.182C332.695,368.28 332.645,368.393 332.537,368.435C331.369,368.938 330.2,369.475 329.029,370.045C330.061,371.091 330.894,372.021 331.429,372.729C331.824,373.25 331.92,373.91 331.689,374.506C331.457,375.101 330.925,375.563 330.256,375.749L328.87,376.135L329.007,376.227C329.121,376.304 329.227,376.39 329.323,376.486C333.05,380.194 336.912,385.017 340.84,390.458C341.218,390.981 341.301,391.632 341.065,392.219C340.829,392.805 340.302,393.258 339.64,393.442L338.045,393.886C340.126,395.783 342.166,397.875 344.149,400.241C344.832,401.055 344.719,402.203 343.888,402.897L340.146,406.02C342.077,408.618 343.954,411.399 345.777,414.362C346.297,415.207 346.067,416.266 345.232,416.873L338.89,421.484C338.853,421.541 338.813,421.596 338.769,421.649C338.893,421.765 339.001,421.896 339.091,422.038C340.874,424.853 342.573,427.871 344.173,431.131C344.584,431.968 344.307,432.949 343.503,433.508L338.729,436.831C340.389,439.697 342.014,443.07 343.603,446.909C343.907,447.642 343.705,448.468 343.086,449.019L339.629,452.092C339.826,452.294 339.978,452.532 340.071,452.793C340.342,453.546 340.609,454.312 340.873,455.089C341.047,455.604 340.983,456.16 340.694,456.631L337.682,461.545C337.546,461.766 337.368,461.958 337.159,462.114C337.572,462.77 338.379,464.075 338.639,464.735C338.86,465.296 338.79,465.917 338.449,466.427L334.259,472.679C334.15,472.842 334.017,472.988 333.865,473.114C334.005,473.28 334.113,473.464 334.188,473.657L334.308,474.013C334.642,475.026 334.077,475.673 333.448,476.063L333.85,475.9L330.394,479.432C329.725,482.8 329.27,486.277 329.069,489.884L334.886,493.441C335.646,491.154 336.452,488.98 337.307,486.928L338.489,487.408C337.77,489.765 337.137,492.14 336.587,494.532L347.327,497.962C347.678,495.721 348.136,493.52 348.682,491.352C349.258,491.651 349.84,491.943 350.426,492.229C350.165,494.745 350,497.265 349.943,499.79L359.591,504.375L362.799,497.018L363.478,497.207L361.515,504.911L372.355,506.027C373.89,503.913 375.334,501.749 376.695,499.539C377.358,499.601 378.021,499.655 378.684,499.701C377.776,501.768 376.775,503.818 375.66,505.847L386.676,508.472C387.721,506.217 388.688,503.935 389.571,501.624L390.848,501.828C390.268,503.956 389.57,506.161 388.765,508.435L395.796,508.453C397.993,505.225 399.869,501.972 401.48,498.698L402.611,498.705C401.533,501.954 400.257,505.33 398.899,508.759L409.014,507.195L411.525,500.868L412.569,500.469L410.692,507.025L420.092,504.873L420.189,504.602C420.159,504.51 420.146,504.411 420.153,504.309C420.271,503.243 420.362,502.221 420.45,501.242C420.599,499.584 420.719,498.055 420.774,496.631C420.849,494.722 420.835,493.023 420.715,491.496C420.7,491.391 420.783,491.294 420.9,491.28C421.017,491.267 421.124,491.341 421.14,491.447C421.527,493.306 421.807,495.442 421.958,497.912C422.033,499.134 422.081,500.431 422.081,501.817C422.081,502.056 422.079,502.297 422.075,502.541L429.453,499.508C429.682,498.728 429.822,496.756 429.851,496.489C429.993,495.554 430.104,494.645 430.205,493.762C430.371,492.318 430.494,490.953 430.528,489.655C430.571,487.999 430.499,486.476 430.267,485.086C430.242,484.982 430.315,484.879 430.43,484.857C430.546,484.834 430.66,484.9 430.685,485.004C431.223,486.705 431.563,488.639 431.725,490.789C431.81,491.911 431.848,493.083 431.828,494.31C431.823,494.578 431.815,494.848 431.803,495.121L437.37,492.594C437.636,491.829 437.892,491.072 438.138,490.323C438.086,490.225 438.055,490.116 438.05,490.001C438.017,488.487 437.954,487.004 437.875,485.565C437.745,483.218 437.551,480.995 437.203,478.958C436.735,476.222 436.022,473.832 434.903,471.948C434.843,471.856 434.877,471.738 434.979,471.684C435.081,471.63 435.212,471.661 435.272,471.752C436.592,473.602 437.555,475.998 438.273,478.771C438.803,480.819 439.205,483.065 439.499,485.447C439.608,486.332 439.699,487.234 439.779,488.15L444.716,487.344C445.921,482.965 446.73,479.04 447.101,475.621C447.056,475.25 447.011,474.897 446.954,474.559C446.816,473.727 446.665,473.027 446.45,472.449C446.398,472.353 446.442,472.238 446.548,472.191C446.654,472.144 446.782,472.183 446.834,472.278C447.314,472.922 447.778,473.767 448.242,474.814C448.281,474.9 448.319,474.987 448.356,475.076L455.048,474.723C455.756,471.289 456.236,468 456.522,464.835C456.435,464.716 456.379,464.575 456.369,464.422C456.354,463.734 456.298,463.075 456.217,462.438C456.085,461.398 455.884,460.427 455.577,459.514C455.012,457.829 454.162,456.356 453.01,455.065C452.93,454.987 452.935,454.865 453.021,454.793C453.108,454.72 453.243,454.725 453.324,454.803C454.745,455.999 455.888,457.424 456.745,459.118C457.221,460.06 457.601,461.078 457.875,462.187C457.911,462.335 457.945,462.484 457.977,462.634C458.01,462.59 458.044,462.546 458.078,462.502L466.856,461.87C467.208,458.494 467.399,455.242 467.428,452.117C467.297,452.002 467.203,451.851 467.165,451.678C466.973,450.63 466.775,449.621 466.596,448.64C466.131,446.085 465.719,443.749 465.301,441.54C465.016,440.038 464.744,438.601 464.467,437.194C464.441,437.091 464.513,436.987 464.628,436.963C464.743,436.939 464.858,437.004 464.885,437.108C465.718,439.761 466.591,442.525 467.471,445.628C467.901,447.139 468.321,448.728 468.761,450.416L474.356,449.665C474.186,446.396 473.74,443.374 473.108,440.518C472.913,439.957 472.721,439.407 472.533,438.866C471.889,437.015 471.28,435.29 470.669,433.692C469.859,431.576 469.076,429.692 468.294,428.038C468.242,427.942 468.287,427.827 468.393,427.781C468.499,427.734 468.627,427.774 468.679,427.87C469.857,429.81 471.092,432.089 472.371,434.722C472.991,435.999 473.623,437.352 474.253,438.794L477.754,439.768C477.918,433.399 477.762,427.562 477.023,422.697C476.758,421.997 476.487,421.307 476.215,420.624C475.464,418.74 474.69,416.924 473.867,415.175C472.392,412.042 470.798,409.131 469.058,406.428C468.995,406.338 469.025,406.219 469.125,406.162C469.224,406.105 469.357,406.132 469.42,406.222C471.399,408.825 473.264,411.64 474.998,414.701C475.849,416.203 476.67,417.76 477.45,419.379L481.096,420.393C481.103,416.324 478.565,404.369 475.245,400.58C473.576,398.676 472.323,396.644 470.85,394.841C470.775,394.759 470.788,394.637 470.88,394.57C470.971,394.502 471.106,394.514 471.181,394.596C472.868,396.261 474.56,398.017 476.256,399.922C476.772,400.502 477.289,401.093 477.804,401.698L483.948,402.491C480.069,393.478 476.266,384.386 472.169,375.598C470.314,370.774 468.012,366.163 465.293,361.827L465.293,361.826C455.612,346.382 440.654,334.424 421.803,328.769L421.808,328.753L421.018,328.538L420.231,328.314L420.225,328.33C401.118,323.422 381.274,325.694 363.601,333.526L363.601,333.526C358.639,335.725 353.848,338.362 349.292,341.402C340.478,346.532 331.715,352.055 322.94,357.479ZM328.548,481.318L327.438,482.452C327.175,482.722 326.84,482.917 326.473,483.026C326.364,483.221 326.218,483.401 326.039,483.558L323.311,485.938L326.316,488.56C327.037,486.09 327.776,483.663 328.548,481.318ZM258.861,475.339C259.328,475.958 259.747,476.496 260.212,477.193C260.596,477.768 261.014,478.454 261.517,479.399C261.685,479.729 262.113,479.88 262.486,479.741L268.018,477.545C268.3,477.44 268.455,477.166 268.384,476.899C267.217,472.906 266.869,470.566 265.385,468.598C264.407,467.301 262.943,466.162 260.423,464.835C260.323,464.779 260.191,464.806 260.129,464.897C260.066,464.987 260.097,465.106 260.197,465.162C262.527,466.548 263.868,467.694 264.731,468.976C266.005,470.868 266.233,473.048 267.062,476.679C267.062,476.679 262.59,478.255 262.59,478.255C262.223,477.532 261.9,476.964 261.594,476.472C260.606,474.88 259.809,474.114 258.242,471.342C258.019,470.96 257.498,470.806 257.067,470.995C256.635,471.183 256.447,471.646 256.643,472.041C257.002,472.787 257.115,473.611 257.094,474.375C257.072,475.15 256.91,475.868 256.679,476.377C256.679,476.377 253.237,477.526 253.237,477.526C252.749,477.131 252.036,476.563 251.437,475.872C251.061,475.439 250.724,474.955 250.57,474.424C250.477,474.085 250.144,473.843 249.757,473.832C249.369,473.82 249.02,474.042 248.902,474.375C248.339,476.045 248.056,477.167 247.946,478.271C247.85,479.24 247.884,480.194 247.98,481.499C247.98,481.499 242.719,481.325 242.719,481.325C242.13,479.099 242.316,477.43 242.967,476.035C244.218,473.354 247.083,471.659 249.344,469.096C249.42,469.014 249.408,468.892 249.317,468.824C249.226,468.756 249.091,468.767 249.016,468.849C246.56,471.375 243.555,473.005 242.132,475.699C241.285,477.301 240.984,479.268 241.65,481.987C241.713,482.221 241.94,482.39 242.207,482.404L248.728,482.848C248.937,482.858 249.141,482.788 249.289,482.655C249.437,482.522 249.515,482.339 249.504,482.151C249.438,480.551 249.41,479.495 249.554,478.423C249.626,477.888 249.743,477.349 249.92,476.735C249.951,476.774 249.982,476.812 250.013,476.85C250.878,477.894 251.998,478.675 252.308,479.018C252.558,479.291 252.972,479.391 253.341,479.269L257.684,477.836C257.899,477.764 258.077,477.625 258.185,477.444C258.48,476.941 258.741,476.195 258.861,475.339ZM384.586,475.339C384.119,475.958 383.7,476.496 383.235,477.193C382.851,477.768 382.433,478.454 381.93,479.399C381.762,479.729 381.334,479.88 380.962,479.741L375.43,477.545C375.148,477.44 374.992,477.166 375.063,476.899C376.23,472.906 376.578,470.566 378.062,468.598C379.041,467.301 380.504,466.162 383.024,464.835C383.124,464.779 383.256,464.806 383.319,464.897C383.381,464.987 383.35,465.106 383.25,465.162C380.92,466.548 379.58,467.694 378.716,468.976C377.442,470.868 377.214,473.048 376.385,476.679C376.385,476.679 380.857,478.255 380.857,478.255C381.224,477.532 381.547,476.964 381.853,476.472C382.842,474.88 383.638,474.114 385.205,471.342C385.429,470.96 385.949,470.806 386.381,470.995C386.813,471.183 387,471.646 386.805,472.041C386.445,472.787 386.333,473.611 386.354,474.375C386.375,475.15 386.538,475.868 386.768,476.377C386.768,476.377 390.211,477.526 390.211,477.526C390.699,477.131 391.411,476.563 392.011,475.872C392.386,475.439 392.723,474.955 392.877,474.424C392.971,474.085 393.303,473.843 393.691,473.832C394.079,473.82 394.428,474.042 394.545,474.375C395.108,476.045 395.391,477.167 395.501,478.271C395.598,479.24 395.563,480.194 395.468,481.499C395.467,481.499 400.728,481.325 400.728,481.325C401.317,479.099 401.131,477.43 400.48,476.035C399.229,473.354 396.364,471.659 394.103,469.096C394.027,469.014 394.039,468.892 394.13,468.824C394.221,468.756 394.356,468.767 394.432,468.849C396.888,471.375 399.892,473.005 401.316,475.699C402.162,477.301 402.463,479.268 401.797,481.987C401.734,482.221 401.508,482.39 401.24,482.404L394.719,482.848C394.51,482.858 394.306,482.788 394.158,482.655C394.011,482.522 393.932,482.339 393.944,482.151C394.01,480.551 394.037,479.495 393.893,478.423C393.821,477.888 393.705,477.349 393.528,476.735C393.497,476.774 393.466,476.812 393.434,476.85C392.569,477.894 391.449,478.675 391.14,479.018C390.889,479.291 390.475,479.391 390.106,479.269L385.763,477.836C385.549,477.764 385.371,477.625 385.263,477.444C384.967,476.941 384.707,476.195 384.586,475.339ZM284.121,414.801C285.486,416.098 286.735,417.516 287.899,419.041C288.86,420.3 289.757,421.629 290.596,423.028C290.595,423.027 283.368,424.865 283.368,424.865C282.666,424.544 282.033,424.19 281.506,423.785C280.915,423.33 280.466,422.808 280.26,422.161C280.147,421.815 279.802,421.572 279.401,421.557C279.001,421.542 278.634,421.758 278.49,422.094C278.024,423.197 277.48,424.326 276.887,425.488C276.375,426.492 275.828,427.521 275.231,428.566C275.231,428.567 267.296,430.985 267.296,430.985C266.84,429.599 266.654,428.212 266.679,426.821C266.708,425.232 267.004,423.642 267.493,422.048C267.529,421.946 267.466,421.838 267.353,421.806C267.24,421.774 267.12,421.831 267.085,421.932C266.454,423.538 266.022,425.153 265.869,426.785C265.713,428.444 265.854,430.116 266.358,431.809C266.403,431.944 266.506,432.056 266.643,432.122C266.781,432.188 266.942,432.202 267.091,432.16L276.063,429.896C276.271,429.838 276.446,429.709 276.549,429.537C277.264,428.4 277.932,427.287 278.529,426.19C278.872,425.56 279.191,424.935 279.49,424.319C279.605,424.439 279.726,424.557 279.855,424.67C280.649,425.372 281.709,425.938 282.914,426.422C283.111,426.504 283.334,426.517 283.541,426.46L291.761,423.971C291.953,423.918 292.107,423.789 292.182,423.622C292.256,423.454 292.241,423.265 292.143,423.107C291.045,421.49 289.881,419.968 288.624,418.556C287.317,417.088 285.919,415.743 284.421,414.525C284.336,414.45 284.2,414.452 284.118,414.528C284.035,414.604 284.037,414.726 284.121,414.801ZM359.326,414.801C357.961,416.098 356.712,417.516 355.549,419.041C354.588,420.3 353.69,421.629 352.852,423.028C352.852,423.027 360.079,424.865 360.079,424.865C360.781,424.544 361.414,424.19 361.941,423.785C362.532,423.33 362.981,422.808 363.187,422.161C363.301,421.815 363.646,421.572 364.046,421.557C364.446,421.542 364.813,421.758 364.958,422.094C365.423,423.197 365.967,424.326 366.56,425.488C367.073,426.492 367.62,427.521 368.216,428.566C368.216,428.567 376.152,430.985 376.152,430.985C376.607,429.599 376.793,428.212 376.768,426.821C376.739,425.232 376.443,423.642 375.954,422.048C375.919,421.946 375.981,421.838 376.094,421.806C376.207,421.774 376.327,421.831 376.363,421.932C376.993,423.538 377.425,425.153 377.579,426.785C377.735,428.444 377.594,430.116 377.09,431.809C377.045,431.944 376.942,432.056 376.804,432.122C376.666,432.188 376.505,432.202 376.356,432.16L367.384,429.896C367.176,429.838 367.002,429.709 366.898,429.537C366.183,428.4 365.515,427.287 364.918,426.19C364.575,425.56 364.256,424.935 363.957,424.319C363.843,424.439 363.721,424.557 363.593,424.67C362.798,425.372 361.738,425.938 360.533,426.422C360.337,426.504 360.113,426.517 359.906,426.46L351.686,423.971C351.494,423.918 351.34,423.789 351.266,423.622C351.192,423.454 351.206,423.265 351.304,423.107C352.403,421.49 353.567,419.968 354.824,418.556C356.131,417.088 357.529,415.743 359.027,414.525C359.111,414.45 359.247,414.452 359.329,414.528C359.412,414.604 359.41,414.726 359.326,414.801ZM435.843,421.898C435.595,422.575 435.182,423.206 434.556,423.777C434.312,424.001 433.949,424.084 433.615,423.991L429.064,422.685C428.891,422.637 428.739,422.543 428.627,422.415C428.036,421.723 427.453,421.019 426.896,420.28C426.653,419.958 426.415,419.63 426.183,419.295C426.114,419.432 426.043,419.569 425.97,419.704C425.651,420.295 425.288,420.872 424.867,421.432C424.69,421.678 424.353,421.789 424.042,421.702L415.423,419.095C415.285,419.057 415.172,418.967 415.112,418.849C415.052,418.73 415.052,418.595 415.11,418.476C415.882,417.02 416.706,415.654 417.576,414.355C418.489,412.993 419.449,411.708 420.439,410.467C420.505,410.379 420.638,410.356 420.736,410.415C420.834,410.475 420.86,410.594 420.794,410.683C419.895,411.962 419.031,413.285 418.213,414.679C417.523,415.853 416.868,417.074 416.259,418.362C416.259,418.362 423.915,420.311 423.915,420.311C424.158,419.921 424.373,419.524 424.57,419.122C424.843,418.562 425.075,417.992 425.279,417.415C425.381,417.144 425.649,416.952 425.965,416.924C426.281,416.896 426.586,417.038 426.744,417.286C427.136,417.877 427.549,418.438 427.971,418.982C428.576,419.761 429.205,420.5 429.847,421.221C429.848,421.222 433.576,422.228 433.576,422.228C433.822,421.922 433.992,421.597 434.103,421.254C434.273,420.731 434.307,420.17 434.255,419.584C434.22,419.194 434.489,418.834 434.903,418.717C435.317,418.599 435.767,418.756 435.986,419.094C436.614,420.086 437.341,421.037 438.184,421.943C438.956,422.772 439.822,423.565 440.806,424.31C440.807,424.311 442.231,424.731 442.231,424.731C442.416,424.298 442.579,423.858 442.719,423.412C442.925,422.754 443.084,422.083 443.193,421.396C443.231,421.122 443.46,420.902 443.76,420.85C444.061,420.798 444.365,420.926 444.513,421.168C445.059,422.108 445.672,422.986 446.357,423.802C447.033,424.608 447.773,425.354 448.584,426.039C448.585,426.04 451.421,426.676 451.421,426.676C451.316,425.517 451.093,424.329 450.756,423.111C450.395,421.807 449.909,420.471 449.295,419.103C449.247,419.005 449.297,418.892 449.405,418.849C449.514,418.807 449.64,418.851 449.687,418.949C450.394,420.308 450.971,421.64 451.413,422.948C451.901,424.391 452.221,425.802 452.376,427.181C452.387,427.311 452.329,427.438 452.219,427.524C452.11,427.609 451.962,427.643 451.82,427.614L448.195,426.97C448.105,426.952 448.021,426.913 447.951,426.858C447.016,426.146 446.157,425.361 445.37,424.505C444.997,424.099 444.641,423.676 444.302,423.237C444.261,423.41 444.218,423.583 444.171,423.754C443.976,424.481 443.724,425.193 443.421,425.891C443.264,426.233 442.844,426.411 442.451,426.302L440.148,425.699C440.047,425.671 439.953,425.626 439.87,425.566C438.73,424.762 437.723,423.9 436.832,422.988C436.485,422.632 436.156,422.269 435.843,421.898ZM207.604,421.898C207.852,422.575 208.266,423.206 208.891,423.777C209.135,424.001 209.498,424.084 209.832,423.991L214.383,422.685C214.556,422.637 214.709,422.543 214.82,422.415C215.411,421.723 215.995,421.019 216.552,420.28C216.794,419.958 217.032,419.63 217.265,419.295C217.334,419.432 217.404,419.569 217.478,419.704C217.796,420.295 218.159,420.872 218.581,421.432C218.757,421.678 219.094,421.789 219.405,421.702L228.024,419.095C228.162,419.057 228.275,418.967 228.335,418.849C228.395,418.73 228.396,418.595 228.337,418.476C227.566,417.02 226.742,415.654 225.871,414.355C224.958,412.993 223.998,411.708 223.008,410.467C222.942,410.379 222.809,410.356 222.711,410.415C222.613,410.475 222.587,410.594 222.653,410.683C223.553,411.962 224.416,413.285 225.235,414.679C225.924,415.853 226.579,417.074 227.188,418.362C227.188,418.362 219.532,420.311 219.532,420.311C219.289,419.921 219.074,419.524 218.878,419.122C218.605,418.562 218.373,417.992 218.168,417.415C218.067,417.144 217.798,416.952 217.482,416.924C217.166,416.896 216.861,417.038 216.703,417.286C216.311,417.877 215.898,418.438 215.476,418.982C214.871,419.761 214.242,420.5 213.6,421.221C213.6,421.222 209.872,422.228 209.872,422.228C209.626,421.922 209.455,421.597 209.344,421.254C209.175,420.731 209.14,420.17 209.192,419.584C209.228,419.194 208.959,418.834 208.544,418.717C208.13,418.599 207.68,418.756 207.462,419.094C206.834,420.086 206.106,421.037 205.263,421.943C204.492,422.772 203.625,423.565 202.642,424.31C202.64,424.311 201.217,424.731 201.217,424.731C201.032,424.298 200.868,423.858 200.729,423.412C200.523,422.754 200.364,422.083 200.255,421.396C200.217,421.122 199.988,420.902 199.687,420.85C199.386,420.798 199.082,420.926 198.935,421.168C198.389,422.108 197.775,422.986 197.09,423.802C196.415,424.608 195.674,425.354 194.864,426.039C194.863,426.04 192.026,426.676 192.026,426.676C192.131,425.517 192.355,424.329 192.691,423.111C193.052,421.807 193.538,420.471 194.153,419.103C194.2,419.005 194.15,418.892 194.042,418.849C193.934,418.807 193.808,418.851 193.76,418.949C193.054,420.308 192.476,421.64 192.034,422.948C191.546,424.391 191.227,425.802 191.072,427.181C191.06,427.311 191.119,427.438 191.228,427.524C191.338,427.609 191.486,427.643 191.627,427.614L195.252,426.97C195.343,426.952 195.427,426.913 195.496,426.858C196.431,426.146 197.291,425.361 198.077,424.505C198.451,424.099 198.806,423.676 199.146,423.237C199.186,423.41 199.23,423.583 199.276,423.754C199.472,424.481 199.723,425.193 200.027,425.891C200.183,426.233 200.604,426.411 200.996,426.302L203.299,425.699C203.4,425.671 203.495,425.626 203.577,425.566C204.717,424.762 205.725,423.9 206.616,422.988C206.963,422.632 207.292,422.269 207.604,421.898ZM360.571,372.563C359.65,373.049 358.952,373.643 358.434,374.334C357.471,375.621 357.115,377.221 357.043,379.029C357.037,379.259 356.906,379.473 356.694,379.6C356.481,379.728 356.212,379.755 355.973,379.672L345.666,375.896C345.517,375.843 345.396,375.74 345.332,375.607C345.268,375.475 345.265,375.325 345.324,375.19C346.62,372.396 348.382,369.961 350.841,368.06C353.084,366.327 355.9,365.036 359.46,364.32C359.574,364.295 359.69,364.358 359.719,364.461C359.747,364.565 359.677,364.669 359.562,364.695C356.155,365.521 353.493,366.87 351.403,368.625C349.291,370.397 347.771,372.585 346.667,375.071C346.667,375.071 355.514,378.012 355.514,378.012C355.645,376.298 356.08,374.768 356.999,373.483C358.032,372.037 359.679,370.89 362.232,370.157C362.596,370.055 362.993,370.168 363.225,370.441C363.457,370.714 363.475,371.088 363.271,371.378C362.895,371.921 362.582,372.488 362.331,373.08C362.084,373.663 361.9,374.272 361.783,374.908C361.676,375.485 361.625,376.085 361.629,376.709C361.632,377.147 361.661,377.598 361.72,378.06C361.72,378.061 365.842,379.524 365.842,379.524C366.856,378.91 367.728,378.272 368.457,377.606C369.41,376.737 370.118,375.827 370.57,374.868C370.7,374.585 371.01,374.403 371.35,374.412C371.69,374.421 371.989,374.618 372.1,374.907C372.67,376.455 372.959,377.937 373.052,379.377C373.142,380.753 373.056,382.088 372.875,383.403C372.875,383.403 379.703,385.859 379.703,385.859C380.182,383.58 380.267,381.236 379.983,378.829C379.695,376.394 379.035,373.896 378.02,371.338C377.979,371.239 378.034,371.128 378.145,371.09C378.255,371.052 378.379,371.102 378.421,371.202C379.564,373.765 380.345,376.279 380.741,378.743C381.173,381.431 381.142,384.058 380.634,386.621C380.603,386.761 380.505,386.883 380.366,386.952C380.227,387.021 380.061,387.032 379.912,386.981L371.888,384.368C371.594,384.268 371.415,384 371.454,383.719C371.624,382.332 371.693,380.925 371.553,379.475C371.477,378.69 371.338,377.892 371.119,377.078C370.719,377.626 370.245,378.161 369.696,378.683C368.811,379.525 367.727,380.335 366.444,381.114C366.2,381.258 365.893,381.288 365.621,381.193L360.53,379.444C360.218,379.335 359.995,379.085 359.945,378.787C359.823,378.072 359.759,377.384 359.755,376.719C359.75,375.994 359.815,375.297 359.943,374.627C360.081,373.909 360.291,373.222 360.571,372.563ZM282.877,372.563C283.798,373.049 284.495,373.643 285.013,374.334C285.976,375.621 286.332,377.221 286.405,379.029C286.411,379.259 286.541,379.473 286.754,379.6C286.967,379.728 287.235,379.755 287.474,379.672L297.781,375.896C297.931,375.843 298.051,375.74 298.115,375.607C298.18,375.475 298.182,375.325 298.123,375.19C296.827,372.396 295.065,369.961 292.606,368.06C290.364,366.327 287.548,365.036 283.988,364.32C283.873,364.295 283.757,364.358 283.729,364.461C283.701,364.565 283.771,364.669 283.885,364.695C287.292,365.521 289.954,366.87 292.045,368.625C294.156,370.397 295.676,372.585 296.78,375.071C296.78,375.071 287.933,378.012 287.933,378.012C287.803,376.298 287.367,374.768 286.449,373.483C285.415,372.037 283.768,370.89 281.216,370.157C280.851,370.055 280.455,370.168 280.223,370.441C279.991,370.714 279.972,371.088 280.176,371.378C280.552,371.921 280.866,372.488 281.117,373.08C281.363,373.663 281.547,374.272 281.664,374.908C281.772,375.485 281.822,376.085 281.819,376.709C281.816,377.147 281.786,377.598 281.728,378.06C281.728,378.061 277.605,379.524 277.605,379.524C276.592,378.91 275.719,378.272 274.99,377.606C274.038,376.737 273.329,375.827 272.877,374.868C272.748,374.585 272.437,374.403 272.097,374.412C271.757,374.421 271.458,374.618 271.347,374.907C270.778,376.455 270.488,377.937 270.395,379.377C270.306,380.753 270.391,382.088 270.573,383.403C270.573,383.403 263.744,385.859 263.744,385.859C263.265,383.58 263.181,381.236 263.465,378.829C263.752,376.394 264.412,373.896 265.427,371.338C265.469,371.239 265.413,371.128 265.303,371.09C265.192,371.052 265.068,371.102 265.027,371.202C263.883,373.765 263.102,376.279 262.706,378.743C262.275,381.431 262.305,384.058 262.814,386.621C262.844,386.761 262.942,386.883 263.082,386.952C263.221,387.021 263.387,387.032 263.535,386.981L271.56,384.368C271.853,384.268 272.032,384 271.993,383.719C271.823,382.332 271.755,380.925 271.895,379.475C271.97,378.69 272.109,377.892 272.328,377.078C272.728,377.626 273.202,378.161 273.751,378.683C274.636,379.525 275.72,380.335 277.004,381.114C277.248,381.258 277.554,381.288 277.827,381.193L282.918,379.444C283.229,379.335 283.452,379.085 283.502,378.787C283.625,378.072 283.688,377.384 283.693,376.719C283.697,375.994 283.632,375.297 283.505,374.627C283.366,373.909 283.157,373.222 282.877,372.563ZM427.528,354.826C427.575,356.643 427.453,358.481 427.168,360.345C426.894,362.138 426.466,363.946 425.917,365.776C425.857,365.95 425.713,366.09 425.526,366.157C425.338,366.225 425.127,366.212 424.951,366.123L417.293,362.458C417.103,362.362 416.96,362.206 416.891,362.02C416.437,360.837 415.371,358.362 414.948,356.382C414.892,356.12 414.85,355.865 414.821,355.62C414.6,355.874 414.387,356.151 414.17,356.431C413.452,357.358 412.731,358.344 411.821,359.028C411.278,359.436 410.676,359.749 409.977,359.9C409.744,359.957 409.494,359.904 409.314,359.759L404.73,355.876C404.542,355.726 404.497,355.478 404.621,355.281C406.019,353.238 406.191,351.462 407.369,350.112C407.885,349.52 408.579,349.002 409.636,348.582C409.742,348.536 409.87,348.575 409.922,348.671C409.973,348.767 409.929,348.882 409.823,348.929C408.898,349.373 408.303,349.88 407.878,350.446C406.875,351.782 406.787,353.436 405.745,355.394C405.745,355.394 409.934,358.537 409.934,358.537C410.26,358.404 410.547,358.213 410.813,357.993C411.759,357.208 412.417,356.026 413.162,355.038C413.844,354.133 414.609,353.388 415.555,353.022C415.916,352.889 416.331,352.977 416.587,353.242C416.842,353.507 416.883,353.889 416.687,354.192C416.568,354.38 416.591,354.674 416.618,355.023C416.659,355.553 416.798,356.177 416.973,356.831C417.4,358.427 418.072,360.188 418.459,361.239C418.459,361.239 424.911,364.702 424.911,364.702C425.462,363.194 425.917,361.696 426.273,360.204C426.703,358.395 426.99,356.604 427.1,354.82C427.101,354.713 427.199,354.628 427.317,354.63C427.435,354.632 427.529,354.719 427.528,354.826ZM215.92,354.826C215.872,356.643 215.995,358.481 216.28,360.345C216.554,362.138 216.981,363.946 217.531,365.776C217.59,365.95 217.734,366.09 217.922,366.157C218.109,366.225 218.321,366.212 218.497,366.123L226.154,362.458C226.344,362.362 226.487,362.206 226.557,362.02C227.011,360.837 228.076,358.362 228.499,356.382C228.555,356.12 228.598,355.865 228.627,355.62C228.847,355.874 229.06,356.151 229.278,356.431C229.995,357.358 230.717,358.344 231.626,359.028C232.169,359.436 232.771,359.749 233.47,359.9C233.704,359.957 233.953,359.904 234.134,359.759L238.717,355.876C238.905,355.726 238.951,355.478 238.826,355.281C237.428,353.238 237.256,351.462 236.079,350.112C235.563,349.52 234.868,349.002 233.812,348.582C233.706,348.536 233.577,348.575 233.526,348.671C233.474,348.767 233.518,348.882 233.624,348.929C234.55,349.373 235.144,349.88 235.569,350.446C236.572,351.782 236.66,353.436 237.703,355.394C237.703,355.394 233.514,358.537 233.514,358.537C233.188,358.404 232.901,358.213 232.635,357.993C231.688,357.208 231.031,356.026 230.285,355.038C229.603,354.133 228.838,353.388 227.892,353.022C227.531,352.889 227.117,352.977 226.861,353.242C226.605,353.507 226.565,353.889 226.761,354.192C226.879,354.38 226.856,354.674 226.829,355.023C226.788,355.553 226.649,356.177 226.474,356.831C226.047,358.427 225.375,360.188 224.989,361.239C224.989,361.239 218.537,364.702 218.537,364.702C217.985,363.194 217.53,361.696 217.175,360.204C216.744,358.395 216.457,356.604 216.348,354.82C216.346,354.713 216.248,354.628 216.13,354.63C216.012,354.632 215.918,354.719 215.92,354.826Z" style="fill:white;"/>
    </g>
</svg>
