<?xml version="1.0" encoding="UTF-8" standalone="no"?>
<!DOCTYPE svg PUBLIC "-//W3C//DTD SVG 1.1//EN" "http://www.w3.org/Graphics/SVG/1.1/DTD/svg11.dtd">
<svg width="100%" height="100%" viewBox="0 0 1000 1000" version="1.1" xmlns="http://www.w3.org/2000/svg" xmlns:xlink="http://www.w3.org/1999/xlink" xml:space="preserve" xmlns:serif="http://www.serif.com/" style="fill-rule:evenodd;clip-rule:evenodd;stroke-linejoin:round;stroke-miterlimit:2;">
    <g transform="matrix(1.15385,0,0,1.15385,-42.3077,-102.885)">
        <path d="M860,260L833,230L711,335C613.384,264.605 507.676,245.705 400,271.054C297.697,295.138 218.633,367.289 195,495L80,815L505,815C641.471,788.599 703.186,694.991 699.081,600C694.062,483.833 609.659,391.719 500,395C399.861,393.581 347.019,465.483 343.096,531.988C338.548,609.062 389.909,674.118 465,680C504.437,672.595 529.296,657.558 540,635.08C555.657,602.202 551.518,562.478 520,530C498.78,532.368 487.138,539.17 495,555C513.944,578.329 515.249,597.389 506.908,613.794C497.952,631.411 486.958,642.698 460,640C395.345,630.966 373.402,571.183 380,518.758C387.265,461.035 446.127,430.91 505,430C540.751,431.207 569.314,443.513 593.457,463.48C648.488,508.996 676.932,572.332 657.812,644C639.062,714.279 576.951,774.463 480,775C334.673,771.906 238.909,688.756 230.18,549.191C221.351,408.031 329.549,292.928 500,295C584.014,298.154 653.605,329.611 711,385L860,260ZM200,594L140,776L340,780C268,737.576 219.42,677.054 200,594Z" style="fill:white;"/>
    </g>
</svg>
