<?xml version="1.0" encoding="UTF-8" standalone="no"?>
<!DOCTYPE svg PUBLIC "-//W3C//DTD SVG 1.1//EN" "http://www.w3.org/Graphics/SVG/1.1/DTD/svg11.dtd">
<svg width="100%" height="100%" viewBox="0 0 1000 1000" version="1.1" xmlns="http://www.w3.org/2000/svg" xmlns:xlink="http://www.w3.org/1999/xlink" xml:space="preserve" xmlns:serif="http://www.serif.com/" style="fill-rule:evenodd;clip-rule:evenodd;stroke-linejoin:round;stroke-miterlimit:2;">
    <g transform="matrix(5.28494,0,0,5.28494,-2314.22,-2143.98)">
        <path d="M545.614,466.864C553.477,465.47 561.72,464.839 570.331,464.944C591.581,474.179 606.459,495.366 606.459,520C606.459,553.115 579.574,580 546.459,580C513.344,580 486.459,553.115 486.459,520C486.459,510.423 488.707,501.367 492.703,493.336C499.491,486.875 506.853,481.562 514.767,477.349C501.752,487.04 493.316,502.543 493.316,520C493.316,549.33 517.128,573.143 546.459,573.143C575.789,573.143 599.602,549.33 599.602,520C599.602,490.67 575.789,466.857 546.459,466.857C546.177,466.857 545.896,466.859 545.614,466.864ZM546.459,470.582C573.733,470.582 595.877,492.725 595.877,520C595.877,547.275 573.733,569.418 546.459,569.418C519.184,569.418 497.04,547.275 497.04,520C497.04,492.725 519.184,470.582 546.459,470.582ZM544.79,566.286L548.127,566.286L548.127,560.997L544.79,560.997L544.79,566.286ZM545.968,517.041C546.552,512.95 547.106,509.35 547.579,506.674C546.768,507.097 546.5,507.806 545.181,506.971C543.731,506.053 544.231,504.173 545.602,503.371C545.237,504.9 545.368,505.752 545.939,506.114C546.331,506.363 546.901,506.168 547.694,506.035C548.174,503.399 548.561,501.813 548.794,501.772C548.499,501.541 548.238,501.379 548.008,501.276C547.765,501.168 547.566,501.118 547.393,501.157C547.194,501.201 547.037,501.334 546.91,501.544C546.747,501.813 546.625,502.18 546.538,502.631C546.535,502.662 546.507,502.684 546.476,502.681C546.445,502.678 546.423,502.65 546.426,502.619C546.436,502.014 546.53,501.531 546.719,501.2C546.852,500.967 547.038,500.814 547.265,500.729C547.558,500.618 547.937,500.641 548.412,500.839C548.573,500.906 548.744,500.997 548.928,501.111C548.994,500.063 549.292,499.067 549.576,498.057C549.602,499.02 549.617,499.986 549.531,501.083C549.688,501.021 549.836,500.975 549.976,500.946C550.452,500.849 550.839,500.912 551.139,501.109C551.38,501.266 551.574,501.502 551.706,501.825C551.84,502.152 551.917,502.56 551.944,503.047C551.948,503.077 551.927,503.106 551.896,503.11C551.866,503.115 551.837,503.094 551.833,503.063C551.762,502.781 551.677,502.535 551.58,502.316C551.408,501.924 551.192,501.654 550.909,501.522C550.69,501.42 550.433,501.431 550.119,501.523C549.935,501.577 549.763,501.711 549.544,501.829C549.788,501.917 549.77,503.48 549.561,506.049C550.539,506.341 551.043,507.071 551.51,506.457C551.771,506.113 552.021,505.346 552.336,503.841C553.441,504.945 553.547,507.239 551.656,507.829C550.462,508.201 550.325,507.1 549.513,506.623C549.278,509.326 548.86,512.996 548.33,517.173C552.043,512.6 556.211,508.014 560.863,503.414C559.202,502.419 558.302,501.132 558.304,500.04C558.306,499.077 558.981,498.238 560.461,497.83C561.524,497.543 562.973,497.243 564.712,496.52C565.874,496.037 567.168,495.367 568.559,494.367C568.673,494.285 568.827,494.288 568.939,494.373C569.051,494.458 569.094,494.606 569.046,494.738C568.732,495.591 568.464,496.386 568.236,497.124C567.961,498.011 567.746,498.816 567.595,499.548C567.321,500.873 567.248,501.951 567.386,502.817C567.706,504.865 566.994,505.767 565.923,505.935C564.724,506.123 562.997,505.332 561.702,504.135C558.792,508.037 555.78,511.807 552.673,515.455C551.582,516.737 550.479,518.004 549.364,519.256C549.425,519.494 549.457,519.743 549.457,520C549.457,521.253 548.687,522.328 547.593,522.776C545.258,540.014 541.738,561.747 540.973,562.514C540.505,561.808 542.256,545.424 544.245,529.852C543.912,529.922 543.619,529.849 543.46,529.6C542.992,528.868 542.022,528.241 541.326,527.839C540.517,528.661 539.703,529.476 538.883,530.285C539.472,529.352 540.078,528.418 540.702,527.484C539.911,526.959 539.701,525.715 539.069,525.486C537.953,525.081 538.476,523.275 540.287,522.4C540.245,524.088 540.584,525.472 541.365,526.502C542.342,525.07 543.361,523.637 544.425,522.202C543.832,521.654 543.46,520.87 543.46,520C543.46,518.512 544.546,517.276 545.968,517.041ZM521.871,559.251L524.761,560.92L527.406,556.34L524.516,554.671L521.871,559.251ZM568.157,560.918L571.048,559.249L568.403,554.669L565.513,556.338L568.157,560.918ZM505.541,541.699L507.209,544.589L511.79,541.944L510.121,539.054L505.541,541.699ZM585.71,544.588L587.379,541.697L582.799,539.053L581.13,541.943L585.71,544.588ZM545.007,524.015C544.816,525.44 544.626,526.892 544.437,528.356C543.426,528.114 542.615,527.713 541.986,527.166C543.001,526.126 544.008,525.076 545.007,524.015ZM592.744,521.669L592.744,518.331L587.455,518.331L587.455,521.669L592.744,521.669ZM500.173,518.331L500.173,521.669L505.462,521.669L505.462,518.331L500.173,518.331ZM485.97,504.481C463.881,509.924 448.598,511.914 447.476,507.823C445.009,498.836 479.413,477.079 522.175,461.823C564.566,446.699 615.293,436.877 617.476,442.823C619.367,447.974 605.319,458.853 585.56,469.189C574.063,448.183 480.889,479.942 485.97,504.481ZM561.788,504.02C563.067,505.117 564.729,505.831 565.865,505.607C566.764,505.43 567.263,504.617 566.93,502.897C566.757,501.987 566.788,500.846 567.041,499.441C567.177,498.688 567.375,497.858 567.642,496.946C567.783,496.463 567.945,495.957 568.125,495.428C566.981,496.153 565.912,496.675 564.929,497.059C563.146,497.755 561.66,498.002 560.571,498.262C559.291,498.559 558.66,499.225 558.624,500.048C558.577,501.083 559.415,502.313 560.956,503.322C561.485,502.8 562.019,502.279 562.56,501.757C562.448,501.399 562.326,501.117 562.195,500.901C562.057,500.674 561.922,500.52 561.757,500.453C561.569,500.376 561.364,500.396 561.14,500.497C560.852,500.626 560.544,500.858 560.216,501.179C560.195,501.203 560.16,501.206 560.136,501.186C560.113,501.165 560.11,501.13 560.13,501.106C560.483,500.614 560.835,500.27 561.179,500.105C561.42,499.989 561.66,499.969 561.896,500.028C562.199,500.104 562.498,500.338 562.776,500.772C562.87,500.918 562.959,501.091 563.046,501.289C563.791,500.574 564.548,499.86 565.316,499.146C564.734,499.972 564.149,500.793 563.558,501.609C563.722,501.647 563.87,501.693 564.002,501.75C564.448,501.941 564.731,502.212 564.866,502.545C564.975,502.811 565,503.116 564.925,503.456C564.849,503.801 564.68,504.181 564.425,504.596C564.412,504.624 564.378,504.636 564.35,504.622C564.322,504.608 564.311,504.574 564.324,504.547C564.426,504.275 564.497,504.023 564.542,503.789C564.623,503.368 564.6,503.023 564.442,502.754C564.319,502.545 564.101,502.408 563.791,502.305C563.609,502.245 563.397,502.199 563.15,502.17C562.698,502.79 562.244,503.407 561.788,504.02ZM507.207,495.412L505.539,498.303L510.119,500.947L511.788,498.057L507.207,495.412ZM587.377,498.301L585.708,495.411L581.128,498.056L582.796,500.946L587.377,498.301ZM524.76,479.082L521.87,480.751L524.514,485.331L527.405,483.662L524.76,479.082ZM571.046,480.749L568.156,479.08L565.512,483.66L568.402,485.329L571.046,480.749ZM548.127,473.714L544.79,473.714L544.79,479.003L548.127,479.003L548.127,473.714ZM481.291,475.532C515.205,458.588 544.8,449.12 564.476,445.823C555.906,420.32 526.853,417.417 510.476,422.903C490.778,429.501 474.175,444.497 481.291,475.532Z" style="fill:white;"/>
    </g>
</svg>
