<?xml version="1.0" encoding="UTF-8" standalone="no"?>
<!DOCTYPE svg PUBLIC "-//W3C//DTD SVG 1.1//EN" "http://www.w3.org/Graphics/SVG/1.1/DTD/svg11.dtd">
<svg width="100%" height="100%" viewBox="0 0 1000 1000" version="1.1" xmlns="http://www.w3.org/2000/svg" xmlns:xlink="http://www.w3.org/1999/xlink" xml:space="preserve" xmlns:serif="http://www.serif.com/" style="fill-rule:evenodd;clip-rule:evenodd;stroke-linejoin:round;stroke-miterlimit:2;">
    <g transform="matrix(4.74433,0,0,5.1747,-1872.17,-2088.97)">
        <path d="M500.05,451.605C528.595,450.415 518.692,467.233 518,479C530.533,474.493 539.094,466.273 553,463C564.28,460.345 567.735,461.714 574,466C581.348,471.077 586.07,477.075 591,483C601.07,495.103 589.977,510.904 574,525C572.098,526.678 570.751,526.588 570,526.304C568.905,525.888 568.757,524.164 570,521C573.825,511.268 575.107,503.835 576.126,499C579.883,481.175 536.045,478.599 530,494C526.471,502.989 530.483,513.287 521,528C525.177,532.81 534.247,539.58 533,543C532.003,545.735 529.92,548.221 527,549C523.618,549.903 516.735,543.242 512.212,540C508.681,543.961 504.436,544.632 500.1,544.885L500.1,544.891L500.05,544.888L500,544.891L500,544.885C495.663,544.632 491.319,543.961 487.788,540C483.265,543.242 476.382,549.903 473,549C470.08,548.221 467.997,545.735 467,543C465.753,539.58 474.823,532.81 479,528C469.517,513.287 473.529,502.989 470,494C463.955,478.599 420.117,481.175 423.874,499C424.893,503.835 426.175,511.268 430,521C431.243,524.164 431.095,525.888 430,526.304C429.249,526.588 427.902,526.678 426,525C410.023,510.904 398.93,495.103 409,483C413.93,477.075 418.652,471.077 426,466C432.265,461.714 435.72,460.345 447,463C460.906,466.273 469.467,474.493 482,479C481.308,467.233 471.505,450.415 500.05,451.605ZM500,488C491.895,488.171 485.498,489.53 483.572,494C481.299,499.277 485.743,524.509 500,526C514.257,524.509 518.701,499.277 516.428,494C514.502,489.53 508.105,488.171 500,488Z" style="fill:white;"/>
    </g>
</svg>
