<?xml version="1.0" encoding="UTF-8" standalone="no"?>
<!DOCTYPE svg PUBLIC "-//W3C//DTD SVG 1.1//EN" "http://www.w3.org/Graphics/SVG/1.1/DTD/svg11.dtd">
<svg width="100%" height="100%" viewBox="0 0 1000 1000" version="1.1" xmlns="http://www.w3.org/2000/svg" xmlns:xlink="http://www.w3.org/1999/xlink" xml:space="preserve" xmlns:serif="http://www.serif.com/" style="fill-rule:evenodd;clip-rule:evenodd;stroke-linejoin:round;stroke-miterlimit:2;">
    <g transform="matrix(2.25452,0,0,2.25452,-538.496,-611.026)">
        <path d="M371.482,607.428L354.822,691.436C356.09,692.278 357.503,692.568 359.059,692.304L375.137,611.854L371.482,607.428ZM373.238,598.571L377.318,600.944L375.559,609.747L371.9,605.317L373.238,598.571ZM378.458,595.24L377.663,599.216L373.581,596.842L374.318,593.127L378.458,595.24ZM379.342,590.818L378.797,593.542L374.655,591.428L375.309,588.129L379.342,590.818ZM380.407,585.487L379.695,589.05L375.66,586.36L376.424,582.503L380.407,585.487ZM381.249,581.276L380.769,583.676L376.784,580.69L377.319,577.991L381.249,581.276ZM383.286,571.082L381.621,579.414L377.689,576.127L379.521,566.888L383.286,571.082ZM385.238,561.317L383.694,569.042L379.926,564.844L381.686,555.971L385.238,561.317ZM387.615,549.419L385.7,559.001L382.146,553.651L383.913,544.74L387.615,549.419ZM389.009,542.448L388.044,547.275L384.339,542.592L385.291,537.795L389.009,542.448ZM389.643,539.272L389.435,540.313L385.715,535.656L386.215,533.133L389.643,539.272ZM391.036,532.305L390.147,536.755L386.715,530.611L387.507,526.621L391.036,532.305ZM392.736,523.797L391.514,529.915L387.982,524.226L388.893,519.632L392.736,523.797ZM394.653,514.207L393.14,521.777L389.294,517.609L390.57,511.174L394.653,514.207ZM395.62,509.37L395.014,512.4L390.929,509.365L391.782,505.063L395.62,509.37ZM396.711,503.907L396.029,507.324L392.188,503.014L392.954,499.154L396.711,503.907ZM398.389,495.515L397.14,501.762L393.38,497.006L394.706,490.317L398.389,495.515ZM400.981,482.542L398.838,493.266L395.153,488.065L396.934,479.084L400.981,482.542ZM403.713,468.876L401.356,480.67L397.306,477.21L399.609,465.595L403.713,468.876ZM405.116,461.852L404.08,467.036L399.974,463.753L401.02,458.482L405.116,461.852ZM406.073,457.066L405.487,459.999L401.388,456.626L402.038,453.344L406.073,457.066ZM407.135,451.753L406.456,455.151L402.418,451.428L403.63,445.318L407.135,451.753ZM408.713,443.857L407.644,449.204L404.137,442.763L404.596,440.449L408.713,443.857ZM408.833,441.793L404.964,438.591L405.2,437.404L408.833,441.793ZM410.19,436.468L409.489,439.972L405.618,435.295L406.243,432.141L410.19,436.468ZM411.103,431.899L410.595,434.439L406.646,430.109L407.559,425.506L411.103,431.899ZM412.44,425.21L411.608,429.372L408.061,422.974L408.08,422.878L412.44,425.21ZM413.225,421.282L412.781,423.503L408.419,421.169L409.6,415.213L413.225,421.282ZM415.036,412.219L413.711,418.847L410.084,412.772L410.573,410.306L415.036,412.219ZM419.66,400.958L418.658,403.977C422.096,406.262 425.847,408.508 430.056,410.698C499.94,369.541 491.437,370.578 521.262,367.032L517.128,370.33C521.858,370.376 526.619,370.795 531.432,371.831C533.933,369.04 536.698,366.284 540.861,363.709C518.478,359.719 495.347,361.968 475.239,377.035C463.12,386.116 447.869,396.252 431.92,407.731C427.586,405.582 423.562,403.296 419.66,400.958ZM415.558,409.606L415.37,410.549L410.905,408.635L411.657,404.843L415.558,409.606ZM412.077,402.725L414.796,389.015L419.215,391.307L415.981,407.491L412.077,402.725ZM419.668,397.488L420.58,399.483L422.919,400.939C432.448,399.35 440.804,397.32 447.36,394.613L458.144,387.203C446.74,390.632 435.218,394.06 419.668,397.488ZM480.813,382.617C476.165,385.327 471.399,388.151 466.58,391.023C488.249,382.76 510.052,378.602 532.397,391.023C534.12,390.333 535.874,390.355 537.7,392.079C542.972,392.816 546.283,394.231 548.867,395.898C550.474,394.799 551.435,393.683 551.755,392.899C553.19,389.39 559.983,397.527 565.631,399.597C562.161,394.793 561.791,391.219 566.435,389.636C546.191,385.722 506.823,373.707 480.813,382.617ZM412.234,391.023L410.504,398.203L406.407,395.407L412.234,391.023ZM415.075,387.282L419.555,389.606L419.944,387.66L422.04,384.946L420.438,382.474L424.865,377.332C425.18,377.454 418.226,367.935 417.269,366.51C415.671,364.13 417.19,353.709 417.19,353.709C417.19,353.709 423.709,356.867 425.776,359.673C426.263,360.334 427.622,373.644 427.622,373.644C429.544,372.757 433.928,366.177 433.899,365.516C432.719,338.641 426.124,308.403 412.695,293.2C408.423,297.637 406.23,305.717 407.277,319.476C418.942,331.838 421.534,341.165 422.073,349.806C422.073,349.806 412.041,340.678 410.986,341.987C408.698,344.825 410.616,365.937 411.773,369.098C412.165,370.172 417.989,376.236 417.989,376.236L414.591,381.093L415.075,387.282Z" style="fill:white;"/>
    </g>
</svg>
