<?xml version="1.0" encoding="UTF-8" standalone="no"?>
<!DOCTYPE svg PUBLIC "-//W3C//DTD SVG 1.1//EN" "http://www.w3.org/Graphics/SVG/1.1/DTD/svg11.dtd">
<svg width="100%" height="100%" viewBox="0 0 1000 1000" version="1.1" xmlns="http://www.w3.org/2000/svg" xmlns:xlink="http://www.w3.org/1999/xlink" xml:space="preserve" xmlns:serif="http://www.serif.com/" style="fill-rule:evenodd;clip-rule:evenodd;stroke-linejoin:round;stroke-miterlimit:2;">
    <g transform="matrix(0.992155,0,0,0.992155,3.9223,3.9223)">
        <path d="M500,46.442C750.325,46.442 953.558,249.675 953.558,500C953.558,750.325 750.325,953.558 500,953.558C249.675,953.558 46.442,750.325 46.442,500C46.442,249.675 249.675,46.442 500,46.442ZM500,159.943C687.683,159.943 840.057,312.317 840.057,500C840.057,687.683 687.683,840.057 500,840.057C312.317,840.057 159.943,687.683 159.943,500C159.943,312.317 312.317,159.943 500,159.943ZM494.008,793.06C334.985,789.859 206.879,659.772 206.879,500C206.879,338.222 338.222,206.879 500,206.879C661.778,206.879 793.121,338.222 793.121,500C793.121,659.772 665.015,789.859 505.99,793.06L509.124,493.616C528.777,494.26 560.429,566.409 606.779,586.054C626.085,594.237 647.381,589.716 666.658,586.493C698.306,581.203 727.963,578.095 754.887,563.396C760.503,548.639 759.504,536.389 737.805,531.984C684.378,556.068 648.633,557.165 657.964,499.661C697.172,477.711 696.279,465.222 646.99,464.154C596.574,498.198 534.035,522.709 509.864,469.782C511.488,441.936 546.271,415.143 575.241,388.881C585.229,365.701 580.527,356.002 555.366,365.076C538.736,379.211 525.142,381.571 518.228,358.028C522.735,321.516 520.012,295.249 500.007,293.473L500.007,293.471L500,293.472L499.993,293.471L499.993,293.473C479.988,295.249 477.265,321.516 481.772,358.028C474.858,381.571 461.264,379.211 444.634,365.076C419.473,356.002 414.771,365.701 424.759,388.881C453.729,415.143 488.512,441.936 490.136,469.782C465.965,522.709 403.426,498.198 353.01,464.154C303.721,465.222 302.828,477.711 342.036,499.661C351.367,557.165 315.622,556.068 262.195,531.984C240.496,536.389 239.497,548.639 245.113,563.396C272.037,578.095 301.694,581.203 333.342,586.493C352.619,589.716 373.915,594.237 393.221,586.054C439.571,566.409 470.223,494.26 489.876,493.616L494.008,793.06Z" style="fill:white;"/>
    </g>
</svg>
