<?xml version="1.0" encoding="UTF-8" standalone="no"?>
<!DOCTYPE svg PUBLIC "-//W3C//DTD SVG 1.1//EN" "http://www.w3.org/Graphics/SVG/1.1/DTD/svg11.dtd">
<svg width="100%" height="100%" viewBox="0 0 1000 1000" version="1.1" xmlns="http://www.w3.org/2000/svg" xmlns:xlink="http://www.w3.org/1999/xlink" xml:space="preserve" xmlns:serif="http://www.serif.com/" style="fill-rule:evenodd;clip-rule:evenodd;stroke-linejoin:round;stroke-miterlimit:2;">
    <g transform="matrix(1.42868,0,0,1.42868,-240.77,-235.803)">
        <path d="M570.72,200.047C573.912,200.045 577.042,200.074 580.1,200.131C585.267,204.427 590.105,205.369 594.384,200.624C598.721,200.844 602.871,201.121 606.807,201.445C610.569,205.571 614.233,205.866 617.803,202.527C620.901,202.886 623.814,203.274 626.522,203.683C632.136,206.374 637.994,207.882 644.243,207.497C648.203,208.805 650.244,210.123 650,211.299C650,211.299 649.972,211.984 649.83,213.193C648.877,215.196 648.492,216.852 649.035,217.942C648.83,218.907 648.581,219.953 648.281,221.064C639.084,224.383 639.556,227.918 644.358,231.551C643.273,233.772 641.981,236.046 640.443,238.303C634.391,240.904 631.334,243.716 632.653,246.837C630.192,248.444 627.683,249.582 630,250C631.666,250.3 631.333,254.657 633,255C637.682,255.964 642.378,257.078 647.065,258.331C651.408,264.516 655.525,265.18 659.483,261.973C662.88,263.058 666.271,264.213 669.654,265.435C673.626,271.843 679.682,275.954 691.107,274.143C696.586,276.612 702.01,279.246 707.364,282.034C709.204,286.19 711.973,287.449 715.479,286.408C719.164,288.463 722.808,290.588 726.399,292.778C728.854,301.304 734.332,303.296 741.17,302.347C744.091,304.356 746.97,306.408 749.805,308.501C750.494,315.426 753.805,317.764 759.485,315.953C763.468,319.15 767.338,322.425 771.084,325.77C774.661,337.084 784.346,346.303 798.285,354.063C798.808,354.706 799.326,355.351 799.838,355.997C799.084,361.702 801.796,364.603 806.956,365.521C808.001,367.011 809.015,368.503 810,370C809.781,371.11 809.508,372.201 809.185,373.267C807.216,375.457 806.318,377.476 806.741,379.286C806.056,380.617 805.288,381.916 804.44,383.184C794.991,382.198 794.172,384.816 799.048,389.812C797.937,390.96 796.757,392.078 795.511,393.168C786.693,392.473 783.089,395.998 782.753,402.166C778.612,404.564 774.129,406.776 769.379,408.811C755.741,405.233 744.164,407.818 735.669,419.627C730.405,420.879 725.069,421.984 719.737,422.952C711.27,419.343 701.405,420.159 689.624,427.05C686.633,427.327 683.692,427.562 680.813,427.756C670.032,422.015 658.873,417.127 640.988,427.392C635.357,426.648 631.49,425.533 630,424.117C627.222,421.478 620.475,422.357 620,427C619.692,430.015 626.863,436.931 630,436.3C630.341,436.232 630.684,436.17 631.034,436.115C637.519,442.852 644.13,444.86 650.947,439.234C653.353,440.22 655.817,441.417 658.322,442.818C664.742,456.452 672.062,463.507 680.827,459.99C682.505,461.602 684.189,463.293 685.873,465.059C684.788,475.041 688.342,480.044 697.734,478.777C700.702,482.538 703.655,486.537 706.573,490.763C705.532,503.727 710.681,511.041 720.825,513.796C724.188,519.849 727.468,526.237 730.636,532.952C730.323,541.476 733.106,549.837 741.282,557.916C743.197,562.902 745.048,568.032 746.829,573.308C744.188,582.855 746.06,590.384 753.607,595.373C755.64,602.689 757.534,610.238 759.272,618.026C757.074,629.002 757.832,640.637 765.857,653.889C766.36,657.335 766.831,660.819 767.271,664.337C763.824,671.038 764.064,677.741 769.39,684.443C769.784,688.995 770.124,693.603 770.408,698.27C768.345,703.371 767.935,708.728 771.166,714.642C771.339,720.04 771.437,725.508 771.458,731.041C768.454,742.192 767.441,753.345 770.657,764.502C770.379,769.948 770.027,775.454 769.598,781.021C766.287,785.917 765.12,791.596 767.99,798.75C767.509,803.355 766.978,807.99 766.393,812.661C762.168,815.699 762.504,820.881 764.47,826.831C764.314,827.904 764.158,828.951 764,830L227,295L250,269C254.592,283.185 256.245,294.461 265,305C272.919,314.532 282.748,326.458 289.082,335C316.627,372.148 341.187,385.609 360,375.624C377.035,366.584 401.511,351.921 403,288C403.8,253.66 419.894,225.816 437.351,220C457.153,213.402 477.637,208.762 497.723,205.628C501.481,211.581 504.742,209.376 507.82,204.172C510.268,203.847 512.707,203.545 515.137,203.263C522.888,207.146 530.64,206.342 538.392,201.141C539.582,201.062 540.768,200.987 541.948,200.917C553.642,206.198 563.456,206.501 570.72,200.047Z" style="fill:white;"/>
    </g>
</svg>
