<?xml version="1.0" encoding="UTF-8" standalone="no"?>
<!DOCTYPE svg PUBLIC "-//W3C//DTD SVG 1.1//EN" "http://www.w3.org/Graphics/SVG/1.1/DTD/svg11.dtd">
<svg width="100%" height="100%" viewBox="0 0 1000 1000" version="1.1" xmlns="http://www.w3.org/2000/svg" xmlns:xlink="http://www.w3.org/1999/xlink" xml:space="preserve" xmlns:serif="http://www.serif.com/" style="fill-rule:evenodd;clip-rule:evenodd;stroke-linejoin:round;stroke-miterlimit:2;">
    <g transform="matrix(5.32544,0,0,5.32544,-2136.3,-2618.05)">
        <path d="M495.038,501C541.675,501 579.538,538.863 579.538,585.5C579.538,632.137 541.675,670 495.038,670C448.402,670 410.538,632.137 410.538,585.5C410.538,538.863 448.402,501 495.038,501ZM495,506C538.877,506 574.5,541.623 574.5,585.5C574.5,629.377 538.877,665 495,665C451.123,665 415.5,629.377 415.5,585.5C415.5,541.623 451.123,506 495,506ZM512.808,548.799C511.494,541.512 514.694,538.077 523,539L523.07,538.957C541.056,548.878 553.25,568.026 553.25,590C553.25,622.149 527.149,648.25 495,648.25C462.851,648.25 436.75,622.149 436.75,590C436.75,568.061 448.904,548.939 466.84,539.007C475.581,539.312 476.946,543.669 474.329,550.212C460.697,557.578 451.425,572.002 451.425,588.575C451.425,612.625 470.95,632.15 495,632.15C519.05,632.15 538.575,612.625 538.575,588.575C538.575,570.867 527.99,555.612 512.808,548.799ZM503,564L503,525C503.645,519.079 500.155,518.325 495,518.399C489.987,518.47 487.104,519.97 487,525L487,564C488.175,569.155 490.71,571.173 495,570.927C499.473,570.672 502.709,569.752 503,564Z" style="fill:white;"/>
    </g>
</svg>
