<?xml version="1.0" encoding="UTF-8" standalone="no"?>
<!DOCTYPE svg PUBLIC "-//W3C//DTD SVG 1.1//EN" "http://www.w3.org/Graphics/SVG/1.1/DTD/svg11.dtd">
<svg width="100%" height="100%" viewBox="0 0 1000 1000" version="1.1" xmlns="http://www.w3.org/2000/svg" xmlns:xlink="http://www.w3.org/1999/xlink" xml:space="preserve" xmlns:serif="http://www.serif.com/" style="fill-rule:evenodd;clip-rule:evenodd;stroke-linejoin:round;stroke-miterlimit:2;">
    <g transform="matrix(17.5208,0,0,17.5208,-8242.9,-7891.29)">
        <path d="M498.925,485.499C496.998,485.518 493.935,487.306 494.5,491C496.006,492.838 496.357,494.519 495.5,496C490.28,498.605 486.353,497.17 482.5,495.5C482.242,491.238 482.328,487.326 482.5,483.5C476.22,485.073 473.28,483.586 473.317,479.5C473.367,473.854 475.936,473.494 482.5,474.5L482.5,468.5C478.564,462.666 484.141,458.976 493.5,460.987C494.557,461.214 494.565,463.157 493,467.5C492.488,471.276 497,472 499,472C501,472 505.508,471.247 505,467.5C503.435,463.157 503.443,461.214 504.5,460.987C513.859,458.976 519.436,462.666 515.5,468.5L515.5,474.5C522.064,473.494 524.633,473.854 524.683,479.5C524.72,483.586 521.78,485.073 515.5,483.5C515.672,487.326 515.758,491.238 515.5,495.5C511.647,497.17 507.72,498.605 502.5,496C500.982,494.486 501.489,492.812 503.5,491C504.256,487.263 501.847,485.471 498.925,485.499Z" style="fill:white;"/>
    </g>
</svg>
