<?xml version="1.0" encoding="UTF-8" standalone="no"?>
<!DOCTYPE svg PUBLIC "-//W3C//DTD SVG 1.1//EN" "http://www.w3.org/Graphics/SVG/1.1/DTD/svg11.dtd">
<svg width="100%" height="100%" viewBox="0 0 1000 1000" version="1.1" xmlns="http://www.w3.org/2000/svg" xmlns:xlink="http://www.w3.org/1999/xlink" xml:space="preserve" xmlns:serif="http://www.serif.com/" style="fill-rule:evenodd;clip-rule:evenodd;stroke-linejoin:round;stroke-miterlimit:2;">
    <g transform="matrix(1.24092,0,0,1.24092,1.97367,31.5527)">
        <path d="M634,485C616.018,498.293 541.886,514.667 484.77,521.451C427.52,528.25 356.116,521.518 318,503C358.175,550.118 411.225,579.287 465,596C396.901,575.562 332.882,557.74 306,500C284.879,494.706 264.014,487.891 244,476C252.591,495.783 263.415,514.365 276,532C264.224,522.056 252.819,510.871 244,491C231.514,527.952 292.908,595.026 373.641,658.668C399.848,679.327 431.721,693.354 462,706C477.336,704.907 493.314,686.775 518.474,663.806C564.995,621.337 604.051,558.335 634,485ZM514,173C463.742,162.853 414.321,160.384 366,168C350.245,120.218 331.251,76.645 300,49C263.971,169.287 230.765,293.61 213,440C232.775,482.944 362.063,512.498 453.326,512.77C546.059,513.045 674.709,469.481 695,427C703.951,408.259 659.92,355.749 650.862,310.855C635.721,235.817 625.14,162.152 615.555,108.505C610.923,82.584 597.678,65.197 590,55C566.503,67.172 540.658,114.069 514,173ZM235,260L224,311C202.741,278.828 177.66,242.898 130,223C166.118,251.819 200.023,284.114 220,331L208,390C177.161,376.991 147.349,359.338 122,340C138.563,368.479 161.783,395.255 203,419C197.293,446.309 210.973,463.386 235,475C236.469,478.403 235.954,485.105 235.954,485.105C235.954,485.105 233.136,491.737 230,495C176.21,466.752 130.612,433.807 108.744,390C75.368,323.141 57.443,253.329 42.58,200C32.752,164.738 43.993,137.929 50,130C75.728,135.474 116.811,154.814 172.519,190C200.6,207.737 220.374,232.927 235,260ZM359,238C393.713,241.813 431.274,301.598 437,335C444.463,378.536 394.172,435.365 361,434C332.695,432.835 284.256,386.144 284,343C283.753,301.36 329.688,234.78 359,238ZM550,244C521.882,248.128 488.16,303.595 485,335C481.497,369.812 518.668,430.177 550,430C580.901,429.825 619.598,369.33 615,335C609.843,296.493 572.556,240.689 550,244ZM545,280C532.23,278.391 533.944,359.114 535,375C536.44,396.651 549.659,394.871 555,375C559.144,359.58 563.181,282.29 545,280ZM367,282C384.434,276.448 385.194,355.656 380,375C377.497,384.323 373.388,389.96 368,388.995C363.897,388.26 360.261,383.883 360,375C359.54,359.356 351.29,287.003 367,282ZM640,213L645,243C662.835,223.993 680.6,213.073 700,206C678.684,223.385 662.996,243.196 649,266C649.592,291.844 659.144,319.013 671,347C681.105,340.216 687.109,332.462 693,323C692.787,338.31 685.37,347.243 676,357L688,379C728.338,307.155 761.529,231.735 762.977,180C763.512,160.875 766.077,147.216 760,140C750.546,132.538 709.368,158.097 640,213Z" style="fill:white;"/>
    </g>
</svg>
