<?xml version="1.0" encoding="UTF-8" standalone="no"?>
<!DOCTYPE svg PUBLIC "-//W3C//DTD SVG 1.1//EN" "http://www.w3.org/Graphics/SVG/1.1/DTD/svg11.dtd">
<svg width="100%" height="100%" viewBox="0 0 1000 1000" version="1.1" xmlns="http://www.w3.org/2000/svg" xmlns:xlink="http://www.w3.org/1999/xlink" xml:space="preserve" xmlns:serif="http://www.serif.com/" style="fill-rule:evenodd;clip-rule:evenodd;stroke-linejoin:round;stroke-miterlimit:2;">
    <g transform="matrix(1.16076,0,0,1.16076,-80.0917,-83.0798)">
        <path d="M360.389,516.964L362.5,524C371.731,524.036 379.435,528.162 386.5,534C385.122,545.055 386.487,555.253 392.5,564C385.389,582.912 388.498,597.497 399.5,603.479C416.996,612.991 429.786,612.118 439.5,600L456.72,607.437C452.626,621.714 454.28,631.827 465.362,632.269C472.242,632.543 479.144,638.342 479.5,644C481.32,656.668 484.962,669.335 495.5,682C496.683,683.422 498.23,684.191 499.75,684.886C499.833,684.848 499.917,684.81 500,684.771L500,865L532,710L503.354,682.684C503.579,682.473 503.795,682.247 504,682C514.538,669.335 518.18,656.668 520,644C520.356,638.342 527.258,632.543 534.138,632.269C545.22,631.827 546.874,621.714 542.78,607.437L560,600C569.714,612.118 582.504,612.991 600,603.479C611.002,597.497 614.111,582.912 607,564C613.013,555.253 614.378,545.055 613,534C620.065,528.162 627.769,524.036 637,524L640,514C652.61,500.502 666.529,496.643 682.13,505.178C685.436,512.058 688.979,522.169 684.554,534C682.899,538.422 679.174,547.629 678,554C673.131,580.432 683.877,592.62 698,598L802,653L715,576L693,582C689.21,575.599 684.681,562.853 688,554C692.997,540.673 696.939,532.334 696.516,519.491L697,520C700.436,525.133 702.044,531.887 702.117,540C702.198,549.084 693.858,554.863 697,572L715,568L824,667L683,622C683.627,617.254 683.003,613.082 680,610C653.393,612.629 637.03,626.759 627,648C631.113,654.041 638.137,658.138 650,659L703.074,823.169L590,694.555C592.229,687.037 593.393,679.518 593.223,672C567.097,660.295 542.535,664.098 520,688C522.38,695.791 528.468,701.938 537,707L500,887.56L500,890L499.75,888.78L499.5,890L499.5,887.56L462.5,707C471.032,701.938 477.12,695.791 479.5,688C456.965,664.098 432.403,660.295 406.277,672C406.107,679.518 407.271,687.037 409.5,694.555L296.426,823.169L349.5,659C361.363,658.138 368.387,654.041 372.5,648C362.47,626.759 346.107,612.629 319.5,610C316.497,613.082 315.873,617.254 316.5,622L175.5,667L284.5,568L302.5,572C305.642,554.863 297.302,549.084 297.383,540C297.456,531.887 299.064,525.133 302.5,520L303.005,519.469C303.058,525.479 302.372,531.748 304.665,537C310.221,549.724 313.909,565.439 311.443,578C310.341,583.609 308.048,587.783 304,590L199,654L309,618L308,602C314.283,596.761 317.867,589.811 320.674,582C326.486,565.833 313.624,534.345 313,524C312.765,520.109 313.503,511.908 314.787,507.099L315.711,506.129C331.986,496.382 346.445,500.025 359.5,514L359.894,515.314C341.384,524.178 339.164,547.379 347.832,570C351.133,578.617 361.761,593.79 378.857,615C388.711,627.225 389.373,641.692 387.411,652C385.994,659.438 384.282,665.895 381,671L309,801L404,694L395,671C396.04,653.83 398.323,635.752 391.616,620C385.591,605.849 372.058,590.294 360.429,573C350.558,558.321 351.698,537.759 362,524L360.389,516.964ZM640,514C660.451,532.535 662.85,556.867 647.324,577C636.028,591.649 620.122,608.61 611.963,633C610.799,636.481 610.772,648.83 612.888,657.159L646.307,667.058L690,800C689.951,799.943 610.69,674 610.69,674C608.981,670.503 596.251,647.324 604.576,628C607.129,622.074 610.369,608.379 636.885,575C651.275,556.884 644.898,535.148 637.934,524.911L640,514ZM499.5,670C495.313,662.415 491.943,654.571 490.121,647C487.968,638.055 486.347,629.26 482.242,627C477.562,624.424 472.395,621.964 465.241,621.758L467.5,612C481.585,617.016 486.533,607.396 488.5,593C472.762,596.946 466.211,590.331 465.5,577C473.232,582.469 479.572,574.652 481.5,563.136C485.033,542.029 480.683,519.937 465.5,507.194C461.362,503.721 455.061,502.039 446.5,502C450.713,494.873 455.472,491.918 460.5,491.067C483.439,487.184 494.5,509.286 494.5,514L494.5,518C494.5,521.164 496.336,525.5 499.5,525.5L500.498,525.463C503.356,525.038 505,520.994 505,518L505,514C505,509.286 516.061,487.184 539,491.067C544.028,491.918 548.787,494.873 553,502C544.439,502.039 538.138,503.721 534,507.194C518.817,519.937 514.467,542.029 518,563.136C519.928,574.652 526.268,582.469 534,577C533.289,590.331 526.738,596.946 511,593C512.967,607.396 517.915,617.016 532,612L534.259,621.758C527.105,621.964 521.938,624.424 517.258,627C513.153,629.26 511.532,638.055 509.379,647C507.557,654.571 504.187,662.415 500,670L499.75,670.5L499.5,670ZM431.5,595C423.99,578.798 425.279,565.316 434.299,554.227L469.5,570L473,554.364C438.923,546.2 415.739,523.262 403.321,485.721C402.095,482.015 404.686,480.192 406.5,479.415C409.158,478.278 411.641,480.431 412.328,483.048C419.987,512.24 441.995,531.219 473,543.795L471.5,528.362C443.431,515.943 427.203,496.249 426.183,467.21C422.469,465.49 418.591,464.362 414.5,464C420.373,442.989 434.245,434.784 456.5,440C456.5,419.779 446.915,409.442 433.5,409.442C422.514,409.442 410.5,419.128 410.5,439C407.5,441.632 404.5,441.716 401.5,439C401.5,420.08 391.497,409.437 377.5,409.437C365.424,409.437 354.5,418.749 354.5,439C376.194,435.121 389.612,444.737 396.5,465C391.966,468.246 387.611,471.632 384.5,476C387.526,502.357 401.055,525.057 422.5,545C403.582,563.201 395.154,577.631 399.5,587.112C405.596,600.41 416.396,606.142 431.5,595ZM568,595C575.51,578.798 574.221,565.316 565.201,554.227L530,570L526.5,554.364C560.577,546.2 583.761,523.262 596.179,485.721C597.405,482.015 594.814,480.192 593,479.415C590.342,478.278 587.859,480.431 587.172,483.048C579.513,512.24 557.505,531.219 526.5,543.795L528,528.362C556.069,515.943 572.297,496.249 573.317,467.21C577.031,465.49 580.909,464.362 585,464C579.127,442.989 565.255,434.784 543,440C543,419.779 552.585,409.442 566,409.442C576.986,409.442 589,419.128 589,439C592,441.632 595,441.716 598,439C598,420.08 608.003,409.437 622,409.437C634.076,409.437 645,418.749 645,439C623.306,435.121 609.888,444.737 603,465C607.534,468.246 611.889,471.632 615,476C611.974,502.357 598.445,525.057 577,545C595.918,563.201 604.346,577.631 600,587.112C593.904,600.41 583.104,606.142 568,595ZM500,201.436C524.263,271.579 523.872,345.599 523.021,419.698L530,419L544,337L556,403C535.085,412.343 531.554,430.416 539,454C549.35,448.986 555.231,447.966 557.5,449.145C561.583,451.269 557.382,464.985 544,474C537.637,471.888 532.841,466.438 528.5,458C526.488,454.09 529.005,454.5 523,454.5C522.898,454.5 522.791,454.547 522.68,454.629C522.63,463.894 522.632,473.162 522.735,482.415C513.807,483.143 506.41,489.401 500,499.224L500,500L499.75,499.61L499.5,500L499.5,499.224C493.09,489.401 485.693,483.143 476.765,482.415C476.868,473.162 476.87,463.894 476.82,454.629C476.709,454.547 476.602,454.5 476.5,454.5C470.495,454.5 473.012,454.09 471,458C466.659,466.438 461.863,471.888 455.5,474C442.118,464.985 437.917,451.269 442,449.145C444.269,447.966 450.15,448.986 460.5,454C467.946,430.416 464.415,412.343 443.5,403L455.5,337L469.5,419L476.479,419.698C475.628,345.599 475.237,271.579 499.5,201.436L499.5,200L499.75,200.715L500,200L500,201.436ZM500,492C506.145,483.648 512.534,478.769 519,475C518.61,385.131 521.637,292.848 500,218L500,492ZM593.081,416.974C587.073,406.686 578.471,399.036 563.764,396.835C563.667,285.66 570.248,186.009 593.223,114.648L593.498,115.65C616.825,200.783 624.479,297.075 624.218,399C612.673,399.239 602.525,406.195 593.223,417.218L593.081,416.974ZM406.277,117.829C428.438,188.961 434.824,287.305 434.729,396.835C420.714,398.932 412.243,405.978 406.277,415.54L406.277,417.218C406.079,416.983 405.88,416.75 405.681,416.518C405.542,416.751 405.405,416.984 405.27,417.218L405.27,416.044C396.243,405.703 386.411,399.23 375.282,399C375.024,298.149 382.515,202.814 405.27,118.345L405.27,114.648L405.812,116.346C405.967,115.776 406.122,115.212 406.277,114.648L406.277,117.829ZM593.223,406.002L618,388C614.963,299.445 613.076,209.887 593.223,136L593.223,406.002ZM405.611,406.002L430.389,388C427.352,299.445 425.465,209.887 405.611,136L405.611,406.002Z" style="fill:white;"/>
    </g>
</svg>
