<?xml version="1.0" encoding="UTF-8" standalone="no"?>
<!DOCTYPE svg PUBLIC "-//W3C//DTD SVG 1.1//EN" "http://www.w3.org/Graphics/SVG/1.1/DTD/svg11.dtd">
<svg width="100%" height="100%" viewBox="0 0 1000 1000" version="1.1" xmlns="http://www.w3.org/2000/svg" xmlns:xlink="http://www.w3.org/1999/xlink" xml:space="preserve" xmlns:serif="http://www.serif.com/" style="fill-rule:evenodd;clip-rule:evenodd;stroke-linejoin:round;stroke-miterlimit:2;">
    <g transform="matrix(1.11567,0,0,1.11567,-42.9499,-68.9938)">
        <path d="M355,320L446.45,320C459.742,308.198 471.186,295.092 480.426,280.961L460,280.961L460,265L890,265L890,755L460,755L460,744.522L469.722,744.522L469.722,723.889L355,723.889L355,755L345,755L345,723.889L276.687,723.889L276.687,755L83.313,755L83.313,428.221C97.564,433.432 110.054,440.196 120,449.209L120,353.888C106.754,346.507 94.465,338.139 83.313,328.922L83.313,320.511C127.69,359.637 192.483,384.318 264.593,384.318C292.774,384.318 319.838,380.549 345,373.621L345,265L355,265L355,320ZM460,534.954L460,560.967L482.514,560.967L482.514,595.75L476.716,595.75L476.716,617.188L469.775,617.188L469.775,624.844L493.594,624.844L493.594,663.125L486.875,663.125L486.875,705.936L469.722,705.936L469.722,716.111L355,716.111L355,597.301C388.824,594.907 416.04,568.443 419.605,534.954L460,534.954ZM280.395,534.954L144.584,534.954L144.584,543.955L246.702,543.955L246.702,553.523L256.914,553.523L256.914,612.034L246.702,612.034L246.702,656.286L267.126,656.286L267.126,676.43L276.687,676.43L276.687,716.111L345,716.111L345,597.301C311.176,594.91 283.955,568.44 280.395,534.954ZM762.094,676.668L762.094,681.646L758.984,681.646L758.984,676.668L762.094,676.668ZM789.214,681.646L764.26,681.646L764.26,676.668L789.214,676.668L789.214,681.646ZM816.516,681.646L791.38,681.646L791.38,676.668L816.516,676.668L816.516,681.646ZM822.813,681.646L818.682,681.646L818.682,676.668L822.813,676.668L822.813,681.646ZM708.172,681.646L704.041,681.646L704.041,676.668L708.172,676.668L708.172,681.646ZM701.875,681.646L676.74,681.646L676.74,676.668L701.875,676.668L701.875,681.646ZM674.574,681.646L649.619,681.646L649.619,676.668L674.574,676.668L674.574,681.646ZM647.453,676.668L647.453,681.646L644.344,681.646L644.344,676.668L647.453,676.668ZM775.12,674.199L775.12,668.343L764.26,668.343L764.26,674.199L775.12,674.199ZM708.172,674.199L704.041,674.199L704.041,640.625L708.172,640.625L708.172,674.199ZM660.479,674.199L660.479,668.343L649.619,668.343L649.619,674.199L660.479,674.199ZM662.646,668.343L662.646,674.199L674.574,674.199L674.574,661.297L662.646,661.297L662.646,665.875L662.906,665.875L662.906,668.343L662.646,668.343ZM682.159,640.625C681.477,643.5 679.36,645.707 676.74,646.185L676.74,674.199L701.875,674.199L701.875,640.625L682.159,640.625ZM644.344,603.109L647.453,603.109L647.453,674.199L644.344,674.199L644.344,603.109ZM777.286,668.343L777.286,674.199L789.214,674.199L789.214,661.297L777.286,661.297L777.286,665.875L777.547,665.875L777.547,668.343L777.286,668.343ZM796.799,640.625C796.118,643.5 794.001,645.707 791.38,646.185L791.38,674.199L816.516,674.199L816.516,640.625L796.799,640.625ZM758.984,603.109L762.094,603.109L762.094,674.199L758.984,674.199L758.984,603.109ZM822.813,674.199L818.682,674.199L818.682,640.625L822.813,640.625L822.813,674.199ZM775.12,665.875L775.12,661.297L764.26,661.297L764.26,665.875L775.12,665.875ZM660.479,665.875L660.479,661.297L649.619,661.297L649.619,665.875L660.479,665.875ZM674.574,631.071L674.574,603.109L649.619,603.109L649.619,658.828L674.574,658.828L674.574,646.179C671.387,645.581 668.953,642.424 668.953,638.625C668.953,634.826 671.387,631.669 674.574,631.071ZM789.214,631.071L789.214,603.109L764.26,603.109L764.26,658.828L789.214,658.828L789.214,646.179C786.028,645.581 783.594,642.424 783.594,638.625C783.594,634.826 786.028,631.669 789.214,631.071ZM676.74,640.625L680.396,640.625C679.804,642.439 678.429,643.822 676.74,644.238L676.74,640.625ZM791.38,640.625L795.037,640.625C794.445,642.439 793.07,643.822 791.38,644.238L791.38,640.625ZM789.214,633.02L789.214,644.23C786.961,643.658 785.274,641.364 785.274,638.625C785.274,635.886 786.961,633.592 789.214,633.02ZM674.574,633.02L674.574,644.23C672.32,643.658 670.633,641.364 670.633,638.625C670.633,635.886 672.32,633.592 674.574,633.02ZM797.019,638.156L803.078,638.156L803.078,603.109L791.38,603.109L791.38,631.065C794.45,631.625 796.828,634.557 797.019,638.156ZM708.172,638.156L704.041,638.156L704.041,603.109L708.172,603.109L708.172,638.156ZM701.875,603.109L690.453,603.109L690.453,638.156L701.875,638.156L701.875,603.109ZM676.74,638.156L676.74,633.012C678.878,633.539 680.514,635.615 680.694,638.156L676.74,638.156ZM822.813,638.156L818.682,638.156L818.682,603.109L822.813,603.109L822.813,638.156ZM816.516,603.109L805.094,603.109L805.094,638.156L816.516,638.156L816.516,603.109ZM791.38,638.156L791.38,633.012C793.519,633.539 795.155,635.615 795.335,638.156L791.38,638.156ZM682.378,638.156L688.438,638.156L688.438,603.109L676.74,603.109L676.74,631.065C679.809,631.625 682.187,634.557 682.378,638.156ZM791.38,594.984L791.38,600.641L816.516,600.641L816.516,594.984L791.38,594.984ZM759.088,594.984L762.094,594.984L762.094,600.641L758.984,600.641L758.984,596.804L758.996,596.804C759.012,596.193 759.042,595.586 759.088,594.984ZM649.619,594.984L649.619,600.641L674.574,600.641L674.574,594.984L649.619,594.984ZM676.74,594.984L676.74,600.641L701.875,600.641L701.875,594.984L676.74,594.984ZM644.447,594.984L647.453,594.984L647.453,600.641L644.344,600.641L644.344,596.804L644.356,596.804C644.371,596.193 644.402,595.586 644.447,594.984ZM764.26,594.984L764.26,600.641L789.214,600.641L789.214,594.984L764.26,594.984ZM822.709,594.984C822.754,595.586 822.785,596.193 822.8,596.804L822.813,596.804L822.813,600.641L818.682,600.641L818.682,594.984L822.709,594.984ZM708.068,594.984C708.114,595.586 708.144,596.193 708.16,596.804L708.172,596.804L708.172,600.641L704.041,600.641L704.041,594.984L708.068,594.984ZM697.591,572.354C702.939,577.503 706.654,584.558 707.799,592.516L678.016,592.516C677.979,592.345 677.941,592.176 677.902,592.008C683.358,586.945 686.003,581.709 686.376,576.324C689.494,574.301 693.257,573.006 697.591,572.354ZM654.855,572.421C658.785,573.057 662.236,574.233 665.148,576.014C665.454,581.627 668.214,587.079 674.037,592.344C674.025,592.401 674.012,592.459 673.999,592.516L644.716,592.516C645.857,584.592 649.545,577.563 654.855,572.421ZM769.496,572.421C773.426,573.057 776.876,574.233 779.789,576.014C780.095,581.627 782.855,587.079 788.678,592.344C788.665,592.401 788.653,592.459 788.64,592.516L759.357,592.516C760.497,584.592 764.186,577.563 769.496,572.421ZM812.232,572.354C817.58,577.503 821.295,584.558 822.44,592.516L792.657,592.516C792.62,592.345 792.582,592.176 792.543,592.008C797.999,586.945 800.643,581.709 801.016,576.324C804.134,574.301 807.898,573.006 812.232,572.354ZM667.796,577.929C668.091,580.035 668.778,582.041 669.912,583.94C671.046,585.839 672.628,587.632 674.713,589.311C673.372,584.429 671.028,580.68 667.796,577.929ZM782.437,577.929C782.732,580.035 783.419,582.041 784.553,583.94C785.687,585.839 787.269,587.632 789.354,589.311C788.013,584.429 785.668,580.68 782.437,577.929ZM683.675,578.409C682.251,579.713 681.012,581.225 679.969,582.958C678.925,584.691 678.078,586.645 677.438,588.832C681.067,585.72 683.033,582.233 683.675,578.409ZM798.316,578.409C796.892,579.713 795.653,581.225 794.609,582.958C793.566,584.691 792.719,586.645 792.079,588.832C795.708,585.72 797.673,582.233 798.316,578.409ZM670.259,564.197C672.201,563.801 674.207,563.594 676.258,563.594C677.934,563.594 679.581,563.732 681.186,563.999C682.879,567.961 683.863,571.7 683.912,575.191C680.538,577.717 677.893,581.277 676.008,585.919C674.036,581.063 671.232,577.393 667.636,574.851C667.735,571.516 668.674,567.958 670.259,564.197ZM784.9,564.197C786.842,563.801 788.848,563.594 790.898,563.594C792.575,563.594 794.222,563.732 795.826,563.999C797.52,567.961 798.504,571.7 798.553,575.191C795.179,577.717 792.533,581.277 790.649,585.919C788.677,581.063 785.873,577.393 782.276,574.851C782.376,571.516 783.315,567.958 784.9,564.197ZM683.901,564.581C688.278,565.734 692.3,567.854 695.759,570.717C692.247,571.133 689.114,572.088 686.374,573.601C686.17,570.637 685.317,567.629 683.901,564.581ZM798.542,564.581C802.918,565.734 806.941,567.854 810.399,570.717C806.887,571.133 803.755,572.088 801.015,573.601C800.811,570.637 799.957,567.629 798.542,564.581ZM667.479,564.904C666.193,567.757 665.404,570.575 665.183,573.355C662.668,572.044 659.834,571.187 656.691,570.772C659.864,568.131 663.514,566.118 667.479,564.904ZM782.12,564.904C780.834,567.757 780.045,570.575 779.824,573.355C777.309,572.044 774.475,571.187 771.332,570.772C774.504,568.131 778.154,566.118 782.12,564.904ZM508.375,436.177L508.375,471.719L493.594,471.719L493.594,487.031L460,487.031L460,520L419.605,520C416.045,486.513 388.824,460.044 355,457.653L355,436.177L508.375,436.177ZM125,356.602L125,454.168C135.912,466.043 142.902,481.376 144.584,501.39L158.2,501.39L158.2,516.724L144.584,516.724L144.584,520L280.395,520C283.96,486.511 311.176,460.047 345,457.653L345,379.634L344.945,379.649C342.44,380.315 339.926,380.949 337.405,381.551C332.395,382.745 327.354,383.811 322.29,384.75C306.093,387.752 289.658,389.449 273.192,389.886C266.307,390.069 259.417,390.032 252.535,389.776C246.725,389.559 240.922,389.185 235.133,388.652C215.857,386.877 196.736,383.332 178.138,377.955C164.104,373.897 150.367,368.796 137.123,362.626C133.073,360.739 129.07,358.751 125.119,356.665L125,356.602ZM567.5,327.779L567.5,353.047L558.766,353.047L558.766,364.531L550.703,364.531L550.703,383.672L498.297,383.672L498.297,402.813L508.375,402.813L508.375,428.045L355,428.045L355,376.782C390.363,366.018 421.824,349.126 447.242,327.779L567.5,327.779ZM829.531,327.779L574.219,327.779L574.219,353.047L584.297,353.047L584.297,364.531L591.016,364.531L591.016,383.672L829.531,383.672L829.531,327.779ZM437.184,327.779L437.022,327.908C433.644,330.581 430.193,333.161 426.671,335.642C418.561,341.356 410.09,346.554 401.346,351.241C390.71,356.942 379.671,361.887 368.36,366.089C363.968,367.721 359.535,369.238 355.068,370.649L355,370.67L355,327.779L437.184,327.779ZM829.531,320L829.531,280.961L574.219,280.961L574.219,320L829.531,320ZM567.5,280.961L567.5,320L456.025,320L456.158,319.875C457.183,318.915 458.199,317.946 459.206,316.967C461.261,314.967 463.276,312.926 465.247,310.844C471.012,304.757 476.408,298.32 481.357,291.553C483.261,288.95 485.099,286.297 486.865,283.598C487.315,282.911 487.76,282.221 488.2,281.528C488.28,281.402 488.36,281.277 488.44,281.15C488.479,281.087 488.484,280.962 488.559,280.961C514.872,280.898 541.186,280.961 567.5,280.961Z" style="fill:white;"/>
    </g>
</svg>
