<?xml version="1.0" encoding="UTF-8" standalone="no"?>
<!DOCTYPE svg PUBLIC "-//W3C//DTD SVG 1.1//EN" "http://www.w3.org/Graphics/SVG/1.1/DTD/svg11.dtd">
<svg width="100%" height="100%" viewBox="0 0 1000 1000" version="1.1" xmlns="http://www.w3.org/2000/svg" xmlns:xlink="http://www.w3.org/1999/xlink" xml:space="preserve" xmlns:serif="http://www.serif.com/" style="fill-rule:evenodd;clip-rule:evenodd;stroke-linejoin:round;stroke-miterlimit:2;">
    <g transform="matrix(4.98903,0,0,4.98903,-3045.99,-2053.4)">
        <path d="M697.087,524.521C674.809,518.505 658.396,498.137 658.396,473.966C658.396,445.067 681.858,421.604 710.757,421.604C739.656,421.604 763.118,445.067 763.118,473.966C763.118,498.683 745.955,519.423 722.906,524.908C722.821,533.529 727.893,534.089 730,534.407C732.423,534.773 737.68,531.278 737,524L752,514C753.95,522.188 752.745,530.248 744,538C732.936,546.968 733.214,555.975 739,565L727,557C726.575,553.285 726.713,552.574 725.127,551.212C720.383,547.138 716.089,558.994 718.923,567C720.201,570.609 723.912,574.431 732,578C726.541,579.24 722.299,581.558 719,584.711C714.428,589.082 711.67,595.059 710,602L709.921,601.675C708.244,594.873 705.501,589.014 701,584.711C697.701,581.558 693.459,579.24 688,578C696.088,574.431 699.799,570.609 701.077,567C703.911,558.994 699.617,547.138 694.873,551.212C693.287,552.574 693.425,553.285 693,557L681,565C686.786,555.975 687.064,546.968 676,538C667.255,530.248 666.05,522.188 668,514L683,524C682.32,531.278 687.577,534.773 690,534.407C692.138,534.084 697.33,533.513 697.087,524.521ZM710.757,431.091C734.42,431.091 753.632,450.303 753.632,473.966C753.632,497.629 734.42,516.84 710.757,516.84C687.094,516.84 667.883,497.629 667.883,473.966C667.883,450.303 687.094,431.091 710.757,431.091ZM711.724,445.917C717.2,446.433 720.217,450.39 720.38,454C720.499,456.637 719.979,461.387 715,464L718,502L703,502L706,464C701.021,461.387 700.501,456.637 700.62,454C700.787,450.316 703.925,446.27 709.616,445.89L709.617,445.863L711.723,445.863L711.724,445.917Z" style="fill:white;"/>
    </g>
</svg>
