<?xml version="1.0" encoding="UTF-8" standalone="no"?>
<!DOCTYPE svg PUBLIC "-//W3C//DTD SVG 1.1//EN" "http://www.w3.org/Graphics/SVG/1.1/DTD/svg11.dtd">
<svg width="100%" height="100%" viewBox="0 0 1000 1000" version="1.1" xmlns="http://www.w3.org/2000/svg" xmlns:xlink="http://www.w3.org/1999/xlink" xml:space="preserve" xmlns:serif="http://www.serif.com/" style="fill-rule:evenodd;clip-rule:evenodd;stroke-linejoin:round;stroke-miterlimit:2;">
    <g transform="matrix(10.981,0,0,10.981,-51.228,-2085.97)">
        <path d="M41,227C33.389,219.895 27.346,216.689 23,217.896C15.882,219.874 11.639,222.644 10,226.282C8.154,230.382 9.615,235.585 14,242C10.326,230.477 6.38,223.391 25,220.063C28.853,219.374 34.108,223.039 41,230C41.708,236.59 42.261,243.252 51.105,246C51.678,247.632 52.319,248.532 53,249C55.802,249.616 56.802,249.283 56,248C58.798,246.827 61.157,248.827 63.494,249.75C66.401,250.899 69.415,250.805 72,251C75.655,256.097 77.352,254.343 78.797,254C79.434,253.849 78.304,252.773 74,250C75.384,245.221 77.946,243.476 81,243C89.546,237.68 95.101,231.359 87.783,229C85.718,228.334 83.59,226.074 78,226C75.486,227.652 72.534,228.06 71,225C67.782,219.497 63.576,216.256 57,216.428C49.858,216.616 45.012,220.548 41,227ZM74,235C72.078,235.868 72.632,236.565 72.912,237C73.112,237.311 73.682,237.488 74.714,237.5C72.02,242.863 68.839,242.007 67.655,239C66.466,235.984 69.624,231.698 74,235ZM83,233.25C83.69,233.25 84.25,233.81 84.25,234.5C84.25,235.19 83.69,235.75 83,235.75C82.31,235.75 81.75,235.19 81.75,234.5C81.75,233.81 82.31,233.25 83,233.25ZM88,230C88.795,230.082 89.328,230.297 89.646,230.572C89.964,230.846 90.067,231.18 90,231.5C89.315,234.79 85.172,229.709 88,230ZM77.555,225.597C75.734,226.522 72.748,226.983 71.796,224.95C71.684,223.319 72.169,221.991 74,222C76.323,222.439 77.518,224.188 77.555,225.597Z" style="fill:white;"/>
    </g>
</svg>
