<?xml version="1.0" encoding="UTF-8" standalone="no"?>
<!DOCTYPE svg PUBLIC "-//W3C//DTD SVG 1.1//EN" "http://www.w3.org/Graphics/SVG/1.1/DTD/svg11.dtd">
<svg width="100%" height="100%" viewBox="0 0 1000 1000" version="1.1" xmlns="http://www.w3.org/2000/svg" xmlns:xlink="http://www.w3.org/1999/xlink" xml:space="preserve" xmlns:serif="http://www.serif.com/" style="fill-rule:evenodd;clip-rule:evenodd;stroke-linejoin:round;stroke-miterlimit:2;">
    <g transform="matrix(5.79808,0,0,5.79808,-2046.98,-1473.7)">
        <path d="M468.254,278.282C457.152,286.611 440.098,304.069 424.341,317.382C409.5,329.92 391.354,341.616 378.481,351.895C377.107,352.992 375.793,354.072 374.551,355.134L420.225,415.678C425.118,412.765 429.723,409.325 434,405.286C438.98,402.27 443.642,398.742 448,394.724C452.955,391.936 457.66,388.514 462,384.163C467.339,381.536 471.682,378.017 475.471,374C480.654,371.402 485.116,367.942 489,363.794C494.291,361.02 498.985,357.532 503,353.232C508.217,350.235 512.787,346.691 516.891,342.753L468.254,278.282ZM387.74,353.393L382.596,357.403C380.964,358.675 380.671,361.033 381.944,362.666L419.378,410.69C420.65,412.322 423.008,412.614 424.641,411.342L430.556,406.731C432.188,405.459 432.481,403.101 431.208,401.468L413.225,378.397L412.044,379.318C410.637,380.414 408.606,380.162 407.509,378.756L387.74,353.393ZM402.1,342.119C402.018,342.173 401.938,342.231 401.859,342.292L397.886,345.389L417.702,370.811C418.798,372.217 418.546,374.249 417.14,375.345L414.789,377.178L432.726,400.19C433.998,401.822 436.356,402.114 437.989,400.842L443.904,396.231C445.536,394.959 445.829,392.601 444.556,390.968L426.72,368.086L426.544,368.223C425.137,369.32 423.106,369.068 422.009,367.661L402.1,342.119ZM428.136,366.982L446.226,390.19C447.498,391.822 449.856,392.114 451.489,390.842L457.404,386.231C459.036,384.959 459.329,382.601 458.056,380.968L420.622,332.944C419.35,331.312 416.992,331.019 415.359,332.292L412.538,334.491L432.202,359.717C433.298,361.123 433.046,363.155 431.64,364.251L428.136,366.982ZM428.228,322.284L422.944,326.403C421.312,327.675 421.019,330.033 422.292,331.666L459.726,379.69C460.998,381.322 463.356,381.614 464.989,380.342L470.904,375.731C472.536,374.459 472.829,372.101 471.556,370.468L453.584,347.412L452.544,348.223C451.137,349.32 449.106,349.068 448.009,347.661L428.228,322.284ZM442.425,311.631L438.621,314.596L458.202,339.717C459.298,341.123 459.046,343.155 457.64,344.251L455.554,345.877L473.726,369.19C474.998,370.822 477.356,371.114 478.989,369.842L484.904,365.231C486.536,363.959 486.829,361.601 485.556,359.968L467.388,336.66L466.544,337.318C465.137,338.414 463.106,338.162 462.009,336.756L442.425,311.631ZM456.02,301.057L452.628,303.7L472.202,328.811C473.298,330.217 473.046,332.249 471.64,333.345L469.046,335.367L487.226,358.69C488.498,360.322 490.856,360.614 492.489,359.342L498.404,354.731C500.036,353.459 500.329,351.101 499.056,349.468L480.909,326.187L480.16,326.771C478.753,327.867 476.722,327.615 475.625,326.209L456.02,301.057ZM466.525,275.991L467.66,277.495C456.508,285.888 439.449,303.309 423.695,316.618C408.862,329.15 390.724,340.84 377.857,351.114C376.492,352.204 375.186,353.279 373.95,354.338L372.871,352.908C374.154,351.808 375.517,350.688 376.946,349.549C385.849,342.449 397.306,334.663 408.417,326.36C408.893,326.643 409.352,326.663 409.388,326.452C409.43,326.202 410.364,325.653 410.771,324.589C414.738,321.581 418.633,318.51 422.323,315.381C424.265,313.735 426.228,312.026 428.195,310.283C428.396,310.431 428.563,310.504 428.598,310.507C428.729,310.521 430.847,309.858 430.912,307.855C444.083,296.005 457.288,282.977 466.525,275.991ZM370.577,349.868C371.962,348.672 373.441,347.453 374.999,346.212C376.841,344.745 378.792,343.248 380.827,341.724C380.903,341.764 380.956,341.784 380.975,341.786C381.083,341.798 382.567,341.341 383.101,340.034C390.938,334.249 399.82,328.076 408.385,321.585C407.051,323.528 407.175,324.858 407.69,325.657C396.61,333.932 385.197,341.69 376.322,348.767C374.903,349.898 373.549,351.014 372.271,352.112L370.577,349.868ZM482.567,324.894L500.726,348.19C501.998,349.822 504.356,350.114 505.989,348.842L511.904,344.231C513.536,342.959 513.829,340.601 512.556,338.968L475.122,290.944C473.85,289.312 471.492,289.019 469.859,290.292L466.223,293.126L485.818,318.264C486.914,319.67 486.662,321.702 485.256,322.798L482.567,324.894ZM368.555,347.187C370.04,345.893 371.638,344.572 373.329,343.225C375.819,341.243 378.511,339.205 381.342,337.116L381.356,337.17C379.423,339.074 379.579,340.33 380.067,341.045C378.081,342.533 376.176,343.996 374.376,345.43C372.827,346.664 371.356,347.879 369.978,349.073L368.555,347.187ZM366.88,344.966C368.472,343.565 370.202,342.131 372.041,340.666C374.683,338.562 377.551,336.397 380.568,334.175L381.068,336.077C378.112,338.254 375.3,340.378 372.707,342.443C371.024,343.783 369.434,345.099 367.955,346.392L366.88,344.966ZM459.861,267.157C456.423,269.851 452.506,273.263 448.292,277.073C448.108,276.629 447.914,276.238 447.71,275.927C447.385,275.432 447.084,276.572 446.71,276.427L447.152,278.107C440.758,283.919 433.729,290.561 426.674,296.954L426.624,296.935L426.638,296.987C423.219,300.084 419.793,303.124 416.43,305.982C414.496,307.626 412.506,309.253 410.478,310.863L408.802,309.14L406.823,313.717C399.062,319.686 390.947,325.394 383.514,330.786C382.671,329.941 381.251,329.085 379,328.214L380.295,333.136C377.15,335.447 374.162,337.698 371.418,339.884C369.588,341.341 367.868,342.772 366.281,344.172L361.667,338.057L458.333,265.132L459.861,267.157ZM406.355,318.872C398.833,324.565 391.079,330.007 384.019,335.154C383.886,335.432 383.739,335.711 383.588,335.989C383.614,335.798 383.637,335.607 383.657,335.418C383.237,335.724 382.819,336.03 382.404,336.334L382.472,336.579C382.959,337.385 383.198,338.078 383.268,338.67C390.973,333.007 399.627,326.977 407.969,320.647L406.355,318.872ZM383.351,332.139C382.762,332.567 382.178,332.994 381.597,333.419L382.119,335.305C382.65,334.916 383.185,334.525 383.725,334.132C383.718,333.372 383.613,332.683 383.351,332.139ZM406.009,315.597C398.688,321.169 391.113,326.507 384.138,331.567C384.541,332.228 384.636,332.882 384.548,333.534C391.279,328.648 398.582,323.501 405.681,318.13L405.161,317.558L406.009,315.597ZM382.732,331.355C382.302,331.026 381.709,330.859 380.905,330.916L381.313,332.39C381.782,332.046 382.255,331.701 382.732,331.355ZM428.672,304.72C425.79,307.314 422.911,309.852 420.078,312.26C418.394,313.691 416.667,315.109 414.909,316.515C415.358,318.758 413.236,319.919 413.147,320.058C413.082,320.16 412.224,319.9 411.734,319.017C411.073,319.531 410.409,320.042 409.742,320.553C410.514,321.602 410.854,322.479 410.937,323.208C414.622,320.399 418.238,317.534 421.677,314.619C423.618,312.972 425.581,311.265 427.549,309.521C427.194,308.778 427.251,307.594 428.98,305.891L428.672,304.72ZM412.003,314.505C410.536,315.666 409.051,316.818 407.553,317.961L409.114,319.775C409.885,319.185 410.652,318.593 411.416,317.998C411.325,317.199 411.51,316.134 412.24,314.742L412.003,314.505ZM410.007,312.508C409.429,312.962 408.849,313.414 408.267,313.864L406.841,317.133L406.901,317.203C408.378,316.076 409.844,314.939 411.292,313.793L410.007,312.508ZM427.71,301.063C424.542,303.926 421.373,306.732 418.259,309.381C416.592,310.799 414.883,312.204 413.142,313.598C413.819,314.294 414.273,314.933 414.559,315.514C416.213,314.188 417.841,312.848 419.43,311.498C422.383,308.989 425.384,306.34 428.386,303.635L427.71,301.063ZM426.923,298.072C423.625,301.059 420.322,303.987 417.078,306.744C415.16,308.374 413.187,309.987 411.178,311.583L412.44,312.879C414.198,311.473 415.926,310.053 417.611,308.619C420.844,305.869 424.136,302.952 427.424,299.977L426.923,298.072ZM409.104,311.946L409.296,311.796L409.208,311.708L409.104,311.946ZM447.711,287.188C442.759,291.744 437.498,296.681 432.188,301.53C432.293,302.598 431.787,303.655 431.211,304.711C431.326,303.873 431.384,303.049 431.326,302.316C430.778,302.815 430.23,303.312 429.682,303.808L430.096,305.301C430.398,305.801 430.605,306.257 430.735,306.673C436.933,301.088 443.132,295.262 448.914,289.941C448.791,289.984 448.707,290.002 448.685,290C448.563,289.987 446.827,289.136 447.711,287.188ZM429.058,299.841L428.68,300.184L429.385,302.733C429.958,302.214 430.531,301.694 431.103,301.173C430.818,300.351 430.255,299.779 429.264,299.653L429.058,299.841ZM448.221,282.17C442.562,287.336 436.431,293.111 430.242,298.762C431.055,299.338 431.571,299.909 431.868,300.475C437.726,295.125 443.521,289.679 448.902,284.762L448.221,282.17ZM447.433,279.177C441.254,284.808 434.492,291.199 427.693,297.374C428.332,297.654 428.889,297.933 429.371,298.209C435.767,292.38 442.107,286.41 447.939,281.099L447.433,279.177ZM464.189,272.894L465.931,275.204C461.617,278.476 456.453,283.039 450.839,288.174C451.13,287.393 451.082,286.319 450.232,284.878C455.394,280.17 460.152,275.986 464.189,272.894ZM462.137,270.174L463.596,272.108C459.648,275.139 455.022,279.194 450.01,283.753C449.887,283.058 449.703,282.083 449.465,281.037C454.116,276.815 458.42,273.052 462.137,270.174ZM460.454,267.943L461.544,269.388C457.911,272.208 453.724,275.858 449.204,279.95C449.039,279.305 448.857,278.662 448.658,278.065C452.962,274.165 456.958,270.676 460.454,267.943Z" style="fill:white;"/>
    </g>
</svg>
