<?xml version="1.0" encoding="UTF-8" standalone="no"?>
<!DOCTYPE svg PUBLIC "-//W3C//DTD SVG 1.1//EN" "http://www.w3.org/Graphics/SVG/1.1/DTD/svg11.dtd">
<svg width="100%" height="100%" viewBox="0 0 1000 1000" version="1.1" xmlns="http://www.w3.org/2000/svg" xmlns:xlink="http://www.w3.org/1999/xlink" xml:space="preserve" xmlns:serif="http://www.serif.com/" style="fill-rule:evenodd;clip-rule:evenodd;stroke-linejoin:round;stroke-miterlimit:2;">
    <g transform="matrix(5.92401,0,0,5.92401,-2477.08,-2440.41)">
        <path d="M533.145,437.19C538.223,437.816 542.937,437.37 547,435C552.27,431.926 553.242,434.979 551,439C548.353,447.018 550.566,452.512 553,452.689C559.784,453.182 566.305,438.303 557,433C557.803,430.918 559.745,429.384 562,428C561.976,424.547 563.976,423.214 568,424C571.128,418.757 574.346,419.645 574,424C574.913,425.286 568.698,447.973 563,460.632C560.175,466.908 553.361,468.946 547,466.088C543.104,464.337 538.664,473.848 540,477C541.24,478.45 542.639,479.856 545,481C549.817,478.826 553.436,475.887 554,471C554.275,468.617 557.183,469.385 559,471C559.996,471.885 560.766,472.415 563,472.2C566.493,471.864 568.338,472.561 569,474C566.367,476.2 563.329,478.915 560,482C565.08,489.175 563.341,492.139 555,491C553.928,490.854 552.349,493.313 554,495C559.332,500.448 555.763,501.087 549,500C547.336,499.733 546.998,502.447 548,505C549.879,509.791 548.226,510.166 543,510C540.811,511.329 539.176,512.644 539,516C538.627,523.106 542.973,533.903 531,539.003C525.812,541.213 523.505,546.087 522.294,552C521.748,554.665 518.743,556.19 519.178,560C519.655,564.19 514.575,567.245 512,571C510.578,573.073 507.83,572.409 507,571C505.433,568.34 502.793,564.952 503.41,560C503.777,557.06 502.284,553.708 499,550C503.267,549.204 506.849,547.51 506,540C506.948,538.605 508.705,537.991 511,537.925C513.832,537.844 514.433,533.724 514,530C515.12,528.228 517.027,527.088 519,526C516.941,525.014 515.856,523.615 515,522C524.185,520.966 521.527,515.52 519,514.5C516.755,513.594 514.291,515.947 512,523.447C510.96,526.854 506.471,529.525 499,526.058C487.801,520.861 479.67,526.935 485,533.235C486.724,535.273 488.001,546.563 486,550C486,550 468.596,537.688 470,529C470.678,524.805 472.055,517.899 468,516.357C464.446,515.006 462.276,512.83 461.415,510C459.566,503.921 455.004,503.533 454,508C447.484,499.554 431.238,483.856 436.583,473C439.623,466.828 439.376,462.89 435.532,460C432.344,457.603 430.983,454.03 431,450C436.304,447.382 439.71,444.719 442,442.48C453.833,430.911 469.404,438.269 475,440.465C479.66,442.293 484.917,438.737 490,438C492.633,437.765 493.085,439.85 491.5,442.404C489.766,445.201 498.83,443.745 499,445C499.131,445.964 491.1,458.303 495.361,458C497.308,457.861 498.265,458.484 498,460C497.253,464.268 493.484,474.67 498.759,475.332C505.001,476.114 501.943,459.414 500,456C499.303,454.775 502.054,454.509 503.952,454.5C507.682,454.483 505.853,448.677 505,447C503.977,444.99 509.081,442.768 513,444.435C518.869,446.931 525.608,440.453 531,433C533.009,430.223 535.393,433.84 533.145,437.19ZM480,507C476.693,503.63 473.359,502.016 470,502C467.282,495.992 483.14,482.319 487,488C487.341,488.501 488.706,492.071 486,493.094C483.233,494.14 482.049,497.112 482.746,501C483.39,504.59 480,507 480,507ZM524,497C523.417,498.25 519.76,498.272 520.5,499.5C522.107,502.165 528.99,504.334 531.5,499C532.235,497.438 534.082,496.171 536,495C536.798,494.512 533.975,490.524 533.5,490C532.79,489.217 525.682,492.073 524,492C522.335,491.927 524.583,495.75 524,497ZM519.5,488.5C517.811,487.955 516.256,487.442 515,487C513.346,488.885 513.773,491.347 512.632,492.5C509.401,495.763 510.711,497.197 511.658,498C512.48,498.697 514.729,498.83 516,496.693C516.934,495.124 518.286,493.877 520,493C519.034,491.122 518.639,489.514 519.5,488.5ZM509,489.5C511.163,485.775 511.164,483.721 507.5,484.5C507.238,485.692 506.885,486.937 506,488.5C504.869,491.811 505.082,494.717 506.5,494.629C507.731,494.553 508.907,493.396 509,489.5ZM466.391,480C468.125,479.557 469.703,479.023 471,478.384C472.694,477.548 474.799,477.738 477,478C476.768,474.621 474.958,474.165 469,476.056C461.293,478.501 455.704,476.39 453,474.982C450.169,473.507 446.957,472.362 443,472C447.586,470.784 451.198,469.217 450,466C457.913,457.905 464.849,457.589 471,465.388C475.639,471.27 480.673,474.966 482,480C476.797,480.695 471.594,480.565 466.391,480ZM536,477C537.232,475.089 538.749,473.174 539,470.848C539.272,468.331 540.167,464.863 543.5,463.307C545.212,462.507 546.443,461.106 547,459C546.132,459.51 545.327,460.251 544.313,460.5C540.863,461.349 538.777,460.37 536.5,459.864C526.984,457.751 517.712,464.445 511,474C514.661,473.878 517.089,475.278 519,476.822C525.594,482.15 532.695,475.526 532.898,473.614C533.035,473.505 532.646,471.028 528,471C523.545,470.973 523.385,468.963 523.353,466.5C523.33,464.753 525.399,463.377 528.5,463C537.328,461.927 539.966,466.068 536,477ZM473,472C471.649,472.71 470.464,473.447 469.5,474.184C465.217,477.454 458.828,476.976 454.5,473.617C453.395,472.76 452.086,471.542 450,470.101C451.591,469.047 452.801,468.019 453.5,466.767C457.594,459.429 466.323,460.561 470,468.105C470.587,469.31 471.698,470.527 473,472ZM469,471.516C466.343,473.374 463.68,474.073 461.013,473.768C458.346,473.463 455.675,472.155 453,470C459.309,462.288 464.636,462.746 469,471.516Z" style="fill:white;"/>
    </g>
</svg>
