<?xml version="1.0" encoding="UTF-8" standalone="no"?>
<!DOCTYPE svg PUBLIC "-//W3C//DTD SVG 1.1//EN" "http://www.w3.org/Graphics/SVG/1.1/DTD/svg11.dtd">
<svg width="100%" height="100%" viewBox="0 0 1000 1000" version="1.1" xmlns="http://www.w3.org/2000/svg" xmlns:xlink="http://www.w3.org/1999/xlink" xml:space="preserve" xmlns:serif="http://www.serif.com/" style="fill-rule:evenodd;clip-rule:evenodd;stroke-linejoin:round;stroke-miterlimit:2;">
    <g transform="matrix(6.45947,0,0,6.45947,-3936.12,-2361.26)">
        <path d="M691.098,465.359C696.418,477.55 756.812,463.316 756.425,420.448C756.375,414.822 750.909,415.207 750.004,420.367C749.445,423.556 747.588,434.696 744.859,438.059C741.696,441.956 736.36,444.177 735.003,438.325C734.472,436.035 736.022,429.346 735.623,427.401C735.17,425.2 731.89,424.979 731.665,426.886C731.173,431.073 728.184,446.051 725.367,449.986C722.496,453.997 718.005,455.331 716.82,451.964C716.179,450.143 716.112,449.187 716.123,446.68C716.138,443.188 711.405,443.345 711.502,447.028C711.768,457.137 694.951,468.594 691.098,465.359ZM682.426,465.359C677.106,477.55 616.712,463.316 617.099,420.448C617.149,414.822 622.615,415.207 623.52,420.367C624.079,423.556 625.936,434.696 628.665,438.059C631.828,441.956 637.164,444.177 638.521,438.325C639.052,436.035 637.502,429.346 637.902,427.401C638.354,425.2 641.634,424.979 641.859,426.886C642.351,431.073 645.34,446.051 648.157,449.986C651.028,453.997 655.519,455.331 656.704,451.964C657.345,450.143 657.412,449.187 657.401,446.68C657.386,443.188 662.119,443.345 662.022,447.028C661.756,457.137 678.573,468.594 682.426,465.359Z" style="fill:white;"/>
    </g>
</svg>
