<?xml version="1.0" encoding="UTF-8" standalone="no"?>
<!DOCTYPE svg PUBLIC "-//W3C//DTD SVG 1.1//EN" "http://www.w3.org/Graphics/SVG/1.1/DTD/svg11.dtd">
<svg width="100%" height="100%" viewBox="0 0 1000 1000" version="1.1" xmlns="http://www.w3.org/2000/svg" xmlns:xlink="http://www.w3.org/1999/xlink" xml:space="preserve" xmlns:serif="http://www.serif.com/" style="fill-rule:evenodd;clip-rule:evenodd;stroke-linejoin:round;stroke-miterlimit:2;">
    <g transform="matrix(2.05947,0,0,2.05947,-600.346,-355.701)">
        <path d="M494.085,634L445.069,291.442L477.033,196.994L534.287,196.998L591.541,196.994L623.506,291.442L574.489,634L494.085,634ZM578.349,216.699C578.103,215.824 577.298,215.182 576.344,215.182L492.255,215.182C491.81,215.182 491.206,215.383 490.843,215.712C490.448,216.07 490.31,216.564 490.231,216.681C490.231,216.681 468.801,275.057 464.516,289.732C463.949,291.67 463.693,292.764 463.693,292.764C463.688,292.896 463.695,293.029 463.714,293.16C469.057,328.95 499.425,546.585 509.494,614.037C509.646,615.057 510.523,615.813 511.555,615.813L557.02,615.813C558.052,615.813 558.928,615.057 559.08,614.037C569.888,541.637 604.878,292.704 604.878,292.704C604.867,292.556 604.841,292.41 604.8,292.268L578.352,216.708L578.349,216.699ZM574.782,219.349L600.705,293.111C599.778,299.318 566.262,537.709 555.225,611.646L513.35,611.646L467.903,292.997L493.792,219.349L574.782,219.349ZM530.832,264.742L530.873,264.735L534.287,249.953L537.702,264.735L538.823,264.941L539.77,265.163L540.704,265.426L541.28,265.611C542.392,265.985 543.465,266.446 544.49,266.986L545.319,267.445L546.135,267.945L547.121,268.618L548.068,269.342L548.974,270.116L549.836,270.937L550.653,271.802L551.422,272.711L552.142,273.662L552.81,274.651L553.425,275.678L553.715,276.211C554.255,277.236 554.716,278.308 555.091,279.421L555.386,280.37L555.635,281.319L555.865,282.406L555.966,283L570.748,286.414L555.966,289.828L555.76,290.95L555.539,291.897L555.276,292.831L555.091,293.407C554.716,294.519 554.255,295.592 553.715,296.617L553.256,297.446L552.756,298.262L552.083,299.248L551.359,300.195L550.585,301.1L549.765,301.963L548.899,302.779L547.99,303.549L547.039,304.269L546.05,304.937L545.023,305.552L544.49,305.842C543.466,306.382 542.393,306.843 541.28,307.217L540.331,307.513L539.382,307.762L538.295,307.991L537.702,308.093L534.287,322.874L530.873,308.093L529.752,307.887L528.804,307.665L527.87,307.402L527.294,307.217C526.182,306.843 525.11,306.382 524.084,305.842L523.256,305.383L522.439,304.883L521.453,304.21L520.506,303.485L519.601,302.712L518.739,301.891L517.922,301.026L517.153,300.116L516.433,299.166L515.764,298.176L515.149,297.15L514.859,296.617C514.319,295.592 513.858,294.52 513.484,293.407L513.188,292.457L512.94,291.509L512.71,290.422L512.609,289.828L497.827,286.414L512.609,283L512.814,281.878L513.036,280.931L513.299,279.997L513.484,279.421C513.858,278.309 514.319,277.236 514.859,276.211L515.319,275.382L515.819,274.566L516.492,273.58L517.216,272.633L517.989,271.727L518.81,270.865L519.676,270.049L520.585,269.279L521.535,268.559L522.525,267.891L523.552,267.276L524.084,266.986C525.109,266.446 526.181,265.985 527.294,265.611L528.244,265.315L529.193,265.066L530.279,264.837L530.832,264.742ZM513.756,289.586L513.921,290.518L513.992,290.857L514.194,291.697L514.381,292.361L514.589,293.018L514.818,293.666L515.069,294.305L515.341,294.936L515.633,295.556L515.946,296.166L516.278,296.765L516.63,297.353L517.001,297.929L517.39,298.492L517.938,299.222L518.517,299.928L519.126,300.607L519.682,301.178L520.335,301.797L521.014,302.387L521.54,302.811L522.08,303.218L522.634,303.607L523.201,303.979L523.781,304.333L524.373,304.669L524.978,304.985L525.595,305.283L526.223,305.56L526.862,305.818L527.512,306.054L528.173,306.27L528.844,306.464L529.07,306.524L529.845,306.709L530.906,306.912L531.115,306.945L534.287,293.213C532.415,293.213 530.718,292.455 529.488,291.228L529.473,291.213C528.247,289.983 527.488,288.286 527.488,286.414L513.756,289.586ZM554.818,289.586L541.086,286.414C541.086,288.286 540.328,289.983 539.101,291.213L539.087,291.228C537.857,292.455 536.16,293.213 534.287,293.213L537.459,306.945L538.391,306.78L538.73,306.709L539.57,306.507L540.234,306.321L540.891,306.113L541.539,305.883L542.179,305.632L542.809,305.36L543.43,305.068L544.04,304.756L544.639,304.423L545.226,304.071L545.802,303.701L546.365,303.311L547.095,302.763L547.801,302.184L548.48,301.575L549.052,301.019L549.67,300.367L550.261,299.688L550.684,299.161L551.091,298.621L551.481,298.068L551.853,297.5L552.206,296.921L552.542,296.328L552.859,295.723L553.156,295.107L553.433,294.478L553.691,293.839L553.928,293.189L554.143,292.528L554.338,291.857L554.397,291.632L554.583,290.857L554.785,289.795L554.818,289.586ZM467.735,293.555L467.695,293.659C467.728,293.581 467.756,293.501 467.779,293.42L467.735,293.555ZM531.115,265.883L530.183,266.048L529.844,266.119L529.004,266.321L528.34,266.507L527.684,266.715L527.035,266.945L526.396,267.196L525.765,267.467L525.145,267.76L524.535,268.072L523.936,268.405L523.348,268.756L522.772,269.127L522.209,269.517L521.479,270.065L520.774,270.644L520.094,271.253L519.523,271.808L518.904,272.461L518.314,273.14L517.89,273.666L517.483,274.207L517.094,274.76L516.722,275.327L516.368,275.907L516.033,276.5L515.716,277.105L515.419,277.721L515.141,278.35L514.884,278.989L514.647,279.639L514.431,280.3L514.237,280.971L514.177,281.196L513.992,281.971L513.789,283.032L513.756,283.242L527.488,286.414C527.488,284.541 528.247,282.845 529.473,281.615L529.488,281.6C530.718,280.373 532.415,279.615 534.287,279.615L531.115,265.883ZM537.459,265.883L534.287,279.615C536.16,279.615 537.857,280.373 539.087,281.6L539.101,281.615C540.328,282.845 541.086,284.541 541.086,286.414L554.818,283.242L554.653,282.31L554.582,281.971L554.38,281.131L554.194,280.467L553.986,279.81L553.756,279.162L553.505,278.522L553.234,277.892L552.941,277.272L552.629,276.662L552.297,276.062L551.945,275.475L551.574,274.899L551.184,274.336L550.637,273.606L550.058,272.9L549.448,272.221L548.893,271.649L548.24,271.031L547.561,270.441L547.035,270.017L546.495,269.61L545.941,269.221L545.374,268.849L544.794,268.495L544.201,268.159L543.596,267.843L542.98,267.545L542.352,267.268L541.712,267.01L541.062,266.773L540.401,266.558L539.731,266.364L539.505,266.304L538.73,266.119L537.669,265.916L537.459,265.883Z" style="fill:white;"/>
    </g>
</svg>
