<?xml version="1.0" encoding="UTF-8" standalone="no"?>
<!DOCTYPE svg PUBLIC "-//W3C//DTD SVG 1.1//EN" "http://www.w3.org/Graphics/SVG/1.1/DTD/svg11.dtd">
<svg width="100%" height="100%" viewBox="0 0 1000 1000" version="1.1" xmlns="http://www.w3.org/2000/svg" xmlns:xlink="http://www.w3.org/1999/xlink" xml:space="preserve" xmlns:serif="http://www.serif.com/" style="fill-rule:evenodd;clip-rule:evenodd;stroke-linejoin:round;stroke-miterlimit:2;">
    <g transform="matrix(2.21861,0,0,2.21861,-608.26,-281.314)">
        <path d="M455.671,542.856C454.182,542.666 454.433,531.121 456.23,517.092C458.028,503.062 460.695,491.827 462.183,492.017C463.672,492.208 463.421,503.753 461.624,517.782C459.827,531.812 457.159,543.047 455.671,542.856ZM540.409,542.559C541.898,542.368 541.647,530.823 539.85,516.794C538.053,502.765 535.385,491.529 533.897,491.72C532.408,491.911 532.659,503.455 534.456,517.485C536.254,531.514 538.921,542.75 540.409,542.559ZM436.874,539.263C435.402,538.973 436.431,527.471 439.17,513.595C441.909,499.718 445.328,488.689 446.8,488.979C448.272,489.27 447.244,500.771 444.504,514.648C441.765,528.524 438.346,539.554 436.874,539.263ZM559.206,538.966C560.678,538.675 559.65,527.173 556.91,513.297C554.171,499.421 550.752,488.391 549.28,488.682C547.808,488.972 548.837,500.474 551.576,514.35C554.315,528.227 557.734,539.256 559.206,538.966ZM480.348,535.982C478.778,535.951 477.673,527.319 477.882,516.719C478.091,506.118 479.535,497.537 481.105,497.568C482.675,497.599 483.78,506.23 483.571,516.831C483.362,527.431 481.918,536.012 480.348,535.982ZM471.098,535.982C469.528,535.951 468.423,527.319 468.632,516.719C468.841,506.118 470.285,497.537 471.855,497.568C473.425,497.599 474.53,506.23 474.321,516.831C474.112,527.431 472.668,536.012 471.098,535.982ZM515.732,535.684C517.302,535.653 518.407,527.022 518.198,516.421C517.99,505.821 516.545,497.24 514.975,497.271C513.405,497.302 512.3,505.933 512.509,516.533C512.718,527.134 514.162,535.715 515.732,535.684ZM524.982,535.684C526.552,535.653 527.657,527.022 527.448,516.421C527.239,505.821 525.795,497.24 524.225,497.271C522.655,497.302 521.55,505.933 521.759,516.533C521.968,527.134 523.412,535.715 524.982,535.684ZM498.308,535.359C499.878,535.329 500.983,526.697 500.775,516.097C500.566,505.496 499.122,496.915 497.552,496.946C495.982,496.977 494.877,505.608 495.086,516.209C495.294,526.809 496.739,535.39 498.308,535.359ZM447.439,532.223C445.896,531.932 446.238,523.237 448.203,512.818C450.168,502.399 453.016,494.177 454.559,494.468C456.102,494.759 455.76,503.454 453.795,513.873C451.83,524.291 448.982,532.514 447.439,532.223ZM548.641,531.925C550.184,531.634 549.842,522.939 547.877,512.521C545.912,502.102 543.064,493.879 541.521,494.17C539.978,494.461 540.32,503.156 542.285,513.575C544.25,523.994 547.098,532.216 548.641,531.925ZM488.346,525.63C487.282,525.614 486.49,520.865 486.579,515.032C486.668,509.199 487.603,504.477 488.667,504.493C489.731,504.509 490.523,509.258 490.434,515.091C490.345,520.924 489.41,525.646 488.346,525.63ZM507.734,525.332C508.798,525.316 509.59,520.568 509.501,514.735C509.413,508.902 508.477,504.179 507.413,504.195C506.349,504.212 505.557,508.96 505.646,514.793C505.735,520.626 506.671,525.349 507.734,525.332ZM402.035,524.586C400.684,523.933 404.588,513.065 410.747,500.333C416.906,487.6 423.004,477.793 424.354,478.447C425.705,479.1 421.801,489.968 415.642,502.701C409.482,515.433 403.385,525.24 402.035,524.586ZM594.046,524.289C595.396,523.635 591.493,512.768 585.333,500.035C579.174,487.303 573.077,477.496 571.726,478.149C570.375,478.803 574.279,489.67 580.438,502.403C586.598,515.136 592.695,524.942 594.046,524.289ZM419.391,514.506C418.383,514.166 419.081,509.402 420.949,503.876C422.817,498.349 425.151,494.139 426.159,494.48C427.167,494.82 426.469,499.584 424.601,505.11C422.734,510.637 420.399,514.847 419.391,514.506ZM576.689,514.209C577.697,513.868 576.999,509.105 575.131,503.578C573.264,498.052 570.929,493.841 569.921,494.182C568.913,494.523 569.611,499.286 571.479,504.813C573.347,510.339 575.681,514.549 576.689,514.209ZM430.158,513.099C429.15,512.758 429.849,507.995 431.716,502.468C433.584,496.942 435.919,492.732 436.927,493.072C437.935,493.413 437.237,498.176 435.369,503.703C433.501,509.229 431.166,513.44 430.158,513.099ZM565.922,512.801C566.93,512.461 566.232,507.697 564.364,502.171C562.496,496.644 560.161,492.434 559.153,492.775C558.145,493.115 558.844,497.879 560.711,503.405C562.579,508.932 564.914,513.142 565.922,512.801ZM371.062,506.539C369.852,505.652 375.657,495.669 384.017,484.26C392.377,472.851 400.147,464.309 401.357,465.196C402.567,466.083 396.763,476.065 388.403,487.474C380.042,498.883 372.273,507.426 371.062,506.539ZM625.018,506.241C626.228,505.354 620.424,495.372 612.064,483.963C603.704,472.554 595.934,464.011 594.723,464.898C593.513,465.785 599.318,475.768 607.678,487.177C616.038,498.586 623.808,507.128 625.018,506.241ZM386.986,502.597C385.649,501.774 389.075,493.775 394.631,484.745C400.188,475.715 405.785,469.052 407.122,469.875C408.459,470.698 405.034,478.697 399.477,487.727C393.921,496.757 388.324,503.42 386.986,502.597ZM401.344,502.594C400.383,502.136 401.642,497.489 404.153,492.223C406.664,486.958 409.482,483.055 410.443,483.512C411.403,483.97 410.144,488.617 407.633,493.883C405.122,499.148 402.304,503.051 401.344,502.594ZM609.094,502.3C610.431,501.477 607.006,493.477 601.449,484.448C595.892,475.418 590.295,468.755 588.958,469.578C587.621,470.401 591.046,478.4 596.603,487.43C602.159,496.46 607.756,503.122 609.094,502.3ZM594.737,502.296C595.697,501.838 594.438,497.191 591.927,491.926C589.416,486.66 586.598,482.757 585.638,483.215C584.677,483.673 585.936,488.32 588.447,493.585C590.958,498.851 593.776,502.754 594.737,502.296ZM350.632,491.918C349.549,490.88 356.616,481.747 366.404,471.537C376.191,461.326 385.017,453.879 386.1,454.917C387.183,455.956 380.116,465.089 370.329,475.299C360.541,485.51 351.716,492.957 350.632,491.918ZM645.448,491.621C646.531,490.583 639.464,481.45 629.677,471.239C619.889,461.028 611.063,453.582 609.98,454.62C608.897,455.658 615.964,464.791 625.751,475.002C635.539,485.212 644.365,492.659 645.448,491.621ZM368.001,489.318C366.806,488.299 371.417,480.92 378.292,472.848C385.166,464.776 391.718,459.05 392.914,460.068C394.109,461.086 389.498,468.466 382.623,476.538C375.749,484.609 369.197,490.336 368.001,489.318ZM628.079,489.02C629.274,488.002 624.663,480.622 617.789,472.55C610.914,464.479 604.362,458.752 603.167,459.771C601.971,460.789 606.582,468.168 613.457,476.24C620.332,484.312 626.883,490.038 628.079,489.02ZM350.574,472.693C349.533,471.518 355.129,464.854 363.064,457.822C370.998,450.789 378.285,446.034 379.327,447.209C380.369,448.384 374.772,455.047 366.838,462.08C358.903,469.113 351.616,473.868 350.574,472.693ZM645.506,472.395C646.547,471.22 640.951,464.557 633.017,457.524C625.082,450.492 617.795,445.736 616.753,446.911C615.712,448.086 621.308,454.75 629.242,461.782C637.177,468.815 644.464,473.57 645.506,472.395ZM352.385,457.91C351.662,457.129 354.548,453.276 358.826,449.31C363.105,445.345 367.165,442.758 367.889,443.539C368.612,444.319 365.726,448.172 361.447,452.138C357.169,456.104 353.108,458.69 352.385,457.91ZM643.695,457.612C644.418,456.832 641.532,452.979 637.254,449.013C632.976,445.047 628.915,442.461 628.192,443.241C627.468,444.021 630.355,447.875 634.633,451.84C638.911,455.806 642.972,458.392 643.695,457.612ZM343.788,449.701C343.154,448.847 346.441,445.33 351.125,441.852C355.808,438.374 360.126,436.245 360.76,437.099C361.395,437.953 358.107,441.47 353.423,444.948C348.74,448.425 344.422,450.555 343.788,449.701ZM652.292,449.403C652.927,448.549 649.639,445.032 644.955,441.555C640.272,438.077 635.954,435.947 635.32,436.801C634.686,437.655 637.973,441.172 642.657,444.65C647.341,448.128 651.658,450.258 652.292,449.403ZM327.316,447.771C326.418,446.482 332.754,440.518 341.455,434.459C350.156,428.401 357.949,424.528 358.846,425.817C359.743,427.106 353.408,433.07 344.706,439.129C336.005,445.187 328.213,449.06 327.316,447.771ZM668.765,447.474C669.662,446.185 663.326,440.22 654.625,434.162C645.924,428.103 638.132,424.231 637.234,425.519C636.337,426.808 642.673,432.773 651.374,438.831C660.075,444.89 667.867,448.762 668.765,447.474ZM333.773,426.103C333.41,425.103 337.568,422.676 343.052,420.687C348.536,418.698 353.283,417.895 353.646,418.895C354.009,419.895 349.851,422.322 344.367,424.311C338.883,426.3 334.136,427.103 333.773,426.103ZM662.307,425.805C662.67,424.805 658.512,422.378 653.028,420.389C647.544,418.4 642.797,417.597 642.434,418.597C642.072,419.598 646.229,422.025 651.713,424.014C657.197,426.003 661.944,426.806 662.307,425.805ZM304.698,424.32C304.086,422.95 314.074,417.154 326.988,411.386C339.902,405.618 350.884,402.047 351.496,403.417C352.108,404.787 342.12,410.582 329.206,416.351C316.291,422.119 305.309,425.69 304.698,424.32ZM691.383,424.022C691.995,422.652 682.007,416.857 669.092,411.089C656.178,405.32 645.196,401.749 644.584,403.119C643.972,404.489 653.96,410.285 666.875,416.053C679.789,421.821 690.771,425.392 691.383,424.022ZM333.887,420.404C333.494,419.415 337.576,416.864 342.998,414.709C348.419,412.555 353.139,411.608 353.532,412.597C353.925,413.586 349.843,416.138 344.421,418.292C339,420.446 334.28,421.393 333.887,420.404ZM662.193,420.107C662.586,419.118 658.504,416.566 653.083,414.412C647.662,412.257 642.941,411.311 642.548,412.299C642.155,413.288 646.238,415.84 651.659,417.994C657.08,420.149 661.8,421.095 662.193,420.107ZM324.085,401.821C323.686,400.835 327.753,398.259 333.161,396.072C338.569,393.885 343.284,392.91 343.682,393.897C344.081,394.883 340.014,397.459 334.606,399.646C329.198,401.833 324.483,402.808 324.085,401.821ZM671.996,401.524C672.395,400.537 668.328,397.961 662.919,395.774C657.511,393.587 652.797,392.613 652.398,393.599C651.999,394.585 656.066,397.162 661.474,399.349C666.882,401.535 671.597,402.51 671.996,401.524ZM308.89,393.063C308.423,391.564 316.262,387.786 326.384,384.631C336.507,381.477 345.104,380.134 345.571,381.633C346.039,383.132 338.2,386.91 328.077,390.064C317.955,393.218 309.357,394.562 308.89,393.063ZM687.19,392.765C687.657,391.266 679.818,387.488 669.696,384.334C659.573,381.18 650.976,379.836 650.509,381.335C650.042,382.834 657.881,386.612 668.003,389.767C678.125,392.921 686.723,394.264 687.19,392.765ZM308.904,384.132C308.308,382.68 315.787,378.233 325.596,374.208C335.405,370.183 343.853,368.095 344.449,369.548C345.045,371 337.565,375.447 327.756,379.472C317.947,383.497 309.5,385.585 308.904,384.132ZM687.177,383.835C687.773,382.382 680.293,377.935 670.484,373.91C660.675,369.886 652.228,367.798 651.632,369.25C651.035,370.703 658.515,375.15 668.324,379.175C678.133,383.199 686.58,385.287 687.177,383.835ZM490.441,370.272C487.788,373.594 484.532,376.418 480.836,378.879C484.934,373.1 488.459,367.088 490.441,360.447C492.291,367.489 496.753,373.455 502.355,378.95C498.246,377.869 494.224,375.653 490.441,370.272ZM307.663,368C307.411,366.45 315.703,363.81 326.168,362.107C336.633,360.405 345.334,360.281 345.586,361.831C345.838,363.381 337.546,366.021 327.081,367.724C316.616,369.426 307.915,369.55 307.663,368ZM688.417,367.702C688.669,366.152 680.378,363.512 669.913,361.81C659.448,360.107 650.747,359.984 650.495,361.534C650.242,363.083 658.534,365.724 668.999,367.426C679.464,369.128 688.165,369.252 688.417,367.702ZM425.091,347.487C429.46,347.487 433.007,350.995 433.007,355.315C433.007,359.636 429.46,363.144 425.091,363.144C420.722,363.144 417.174,359.636 417.174,355.315C417.174,350.995 420.722,347.487 425.091,347.487ZM563.542,345.549C567.912,345.549 571.459,349.057 571.459,353.378C571.459,357.699 567.912,361.206 563.542,361.206C559.173,361.206 555.626,357.699 555.626,353.378C555.626,349.057 559.173,345.549 563.542,345.549ZM296.701,357.606C296.597,356.109 307.97,354.103 322.08,353.13C336.191,352.156 347.73,352.581 347.834,354.078C347.937,355.575 336.565,357.581 322.454,358.554C308.344,359.527 296.804,359.102 296.701,357.606ZM699.38,357.308C699.483,355.811 688.111,353.805 674,352.832C659.89,351.859 648.35,352.284 648.247,353.781C648.143,355.277 659.515,357.283 673.626,358.257C687.737,359.23 699.276,358.805 699.38,357.308ZM702.36,347.02C702.463,348.517 691.091,350.523 676.98,351.496C662.87,352.47 651.33,352.045 651.227,350.548C651.123,349.051 662.495,347.045 676.606,346.072C690.716,345.099 702.256,345.524 702.36,347.02ZM299.681,346.723C299.577,348.22 310.949,350.225 325.06,351.199C339.171,352.172 350.71,351.747 350.814,350.25C350.917,348.753 339.545,346.748 325.434,345.774C311.324,344.801 299.784,345.226 299.681,346.723ZM691.397,336.626C691.649,338.176 683.357,340.817 672.892,342.519C662.428,344.221 653.727,344.345 653.475,342.795C653.222,341.245 661.514,338.605 671.979,336.902C682.444,335.2 691.145,335.076 691.397,336.626ZM310.643,336.329C310.391,337.879 318.683,340.519 329.148,342.221C339.613,343.924 348.313,344.047 348.566,342.497C348.818,340.948 340.526,338.307 330.061,336.605C319.596,334.903 310.895,334.779 310.643,336.329ZM690.156,320.494C690.753,321.946 683.273,326.393 673.464,330.418C663.655,334.443 655.208,336.531 654.611,335.078C654.015,333.626 661.495,329.179 671.304,325.154C681.113,321.129 689.56,319.041 690.156,320.494ZM311.884,320.196C311.288,321.649 318.767,326.096 328.576,330.121C338.385,334.145 346.833,336.233 347.429,334.781C348.025,333.328 340.545,328.881 330.736,324.856C320.927,320.832 312.48,318.743 311.884,320.196ZM690.17,311.563C690.637,313.062 682.798,316.84 672.676,319.995C662.553,323.149 653.956,324.493 653.489,322.993C653.022,321.494 660.86,317.716 670.983,314.562C681.105,311.408 689.703,310.064 690.17,311.563ZM311.87,311.266C311.403,312.765 319.242,316.543 329.364,319.697C339.487,322.851 348.084,324.195 348.551,322.696C349.019,321.197 341.18,317.419 331.057,314.264C320.935,311.11 312.337,309.767 311.87,311.266ZM674.976,302.805C675.374,303.791 671.308,306.367 665.899,308.554C660.491,310.741 655.777,311.716 655.378,310.73C654.979,309.743 659.046,307.167 664.454,304.98C669.862,302.793 674.577,301.818 674.976,302.805ZM327.065,302.507C326.666,303.494 330.733,306.07 336.141,308.257C341.549,310.444 346.264,311.418 346.662,310.432C347.061,309.446 342.994,306.869 337.586,304.682C332.178,302.496 327.463,301.521 327.065,302.507ZM694.363,280.306C694.975,281.676 684.987,287.472 672.072,293.24C659.158,299.008 648.176,302.579 647.564,301.209C646.952,299.839 656.94,294.044 669.855,288.275C682.769,282.507 693.751,278.936 694.363,280.306ZM307.677,280.009C307.066,281.379 317.054,287.174 329.968,292.942C342.882,298.711 353.864,302.282 354.476,300.912C355.088,299.541 345.1,293.746 332.185,287.978C319.271,282.21 308.289,278.639 307.677,280.009ZM665.173,284.222C665.566,285.211 661.484,287.763 656.063,289.917C650.641,292.071 645.921,293.018 645.528,292.029C645.135,291.04 649.218,288.488 654.639,286.334C660.06,284.18 664.78,283.233 665.173,284.222ZM336.867,283.924C336.474,284.913 340.556,287.465 345.977,289.619C351.399,291.774 356.119,292.72 356.512,291.732C356.905,290.743 352.823,288.191 347.401,286.036C341.98,283.882 337.26,282.936 336.867,283.924ZM665.287,278.523C665.65,279.523 661.492,281.95 656.008,283.939C650.524,285.928 645.777,286.731 645.414,285.731C645.052,284.731 649.209,282.304 654.693,280.315C660.177,278.326 664.924,277.523 665.287,278.523ZM336.753,278.226C336.39,279.226 340.548,281.653 346.032,283.642C351.516,285.631 356.263,286.434 356.626,285.434C356.989,284.433 352.831,282.006 347.347,280.017C341.863,278.028 337.116,277.225 336.753,278.226ZM671.745,256.855C672.642,258.144 666.306,264.109 657.605,270.167C648.904,276.225 641.111,280.098 640.214,278.809C639.317,277.521 645.653,271.556 654.354,265.497C663.055,259.439 670.847,255.566 671.745,256.855ZM330.295,256.557C329.398,257.846 335.734,263.811 344.435,269.869C353.136,275.928 360.929,279.8 361.826,278.512C362.723,277.223 356.388,271.258 347.686,265.2C338.985,259.141 331.193,255.269 330.295,256.557ZM655.272,254.925C655.907,255.779 652.619,259.296 647.935,262.774C643.252,266.252 638.934,268.382 638.3,267.527C637.666,266.673 640.953,263.156 645.637,259.678C650.321,256.201 654.638,254.071 655.272,254.925ZM346.768,254.628C346.133,255.482 349.421,258.999 354.105,262.476C358.788,265.954 363.106,268.084 363.74,267.23C364.374,266.376 361.087,262.859 356.403,259.381C351.72,255.903 347.402,253.773 346.768,254.628ZM646.675,246.717C647.398,247.497 644.512,251.35 640.234,255.316C635.956,259.281 631.895,261.868 631.172,261.087C630.448,260.307 633.335,256.454 637.613,252.488C641.891,248.522 645.952,245.936 646.675,246.717ZM355.365,246.419C354.642,247.199 357.528,251.052 361.806,255.018C366.085,258.984 370.145,261.57 370.868,260.79C371.592,260.01 368.706,256.156 364.427,252.191C360.149,248.225 356.088,245.639 355.365,246.419ZM648.486,231.933C649.527,233.108 643.931,239.772 635.997,246.804C628.062,253.837 620.775,258.592 619.733,257.417C618.692,256.242 624.288,249.579 632.222,242.546C640.157,235.514 647.444,230.758 648.486,231.933ZM353.554,231.636C352.513,232.811 358.109,239.474 366.044,246.507C373.978,253.539 381.265,258.295 382.307,257.12C383.348,255.945 377.752,249.281 369.818,242.249C361.883,235.216 354.596,230.46 353.554,231.636ZM648.428,212.708C649.511,213.746 642.444,222.879 632.657,233.089C622.869,243.3 614.043,250.747 612.96,249.709C611.877,248.67 618.944,239.538 628.731,229.327C638.519,219.116 647.345,211.669 648.428,212.708ZM353.612,212.41C352.529,213.448 359.596,222.581 369.383,232.792C379.171,243.003 387.997,250.449 389.08,249.411C390.163,248.373 383.096,239.24 373.309,229.029C363.521,218.819 354.695,211.372 353.612,212.41ZM631.059,215.308C632.254,216.327 627.643,223.706 620.769,231.778C613.894,239.85 607.342,245.576 606.147,244.558C604.951,243.54 609.562,236.16 616.437,228.088C623.311,220.017 629.863,214.29 631.059,215.308ZM370.981,215.011C369.786,216.029 374.397,223.409 381.272,231.481C388.146,239.552 394.698,245.279 395.894,244.26C397.089,243.242 392.478,235.863 385.603,227.791C378.729,219.719 372.177,213.993 370.981,215.011ZM627.998,198.087C629.208,198.974 623.404,208.957 615.044,220.366C606.683,231.775 598.914,240.317 597.703,239.43C596.493,238.543 602.298,228.561 610.658,217.152C619.018,205.743 626.788,197.2 627.998,198.087ZM374.042,197.79C372.832,198.677 378.637,208.659 386.997,220.068C395.357,231.477 403.127,240.02 404.337,239.133C405.547,238.246 399.743,228.263 391.383,216.854C383.022,205.445 375.252,196.903 374.042,197.79ZM612.074,202.029C613.411,202.852 609.986,210.851 604.429,219.881C598.872,228.911 593.275,235.574 591.938,234.751C590.601,233.928 594.026,225.929 599.583,216.899C605.139,207.869 610.736,201.206 612.074,202.029ZM389.966,201.731C388.629,202.554 392.055,210.554 397.611,219.583C403.168,228.613 408.765,235.276 410.102,234.453C411.439,233.63 408.014,225.631 402.457,216.601C396.901,207.571 391.304,200.908 389.966,201.731ZM597.026,180.04C598.376,180.693 594.472,191.561 588.313,204.293C582.154,217.026 576.057,226.833 574.706,226.179C573.355,225.526 577.259,214.658 583.418,201.925C589.578,189.193 595.675,179.386 597.026,180.04ZM405.014,179.742C403.664,180.396 407.568,191.263 413.727,203.996C419.886,216.728 425.983,226.535 427.334,225.882C428.685,225.228 424.781,214.36 418.622,201.628C412.462,188.895 406.365,179.089 405.014,179.742ZM597.717,202.033C598.677,202.49 597.418,207.137 594.907,212.403C592.396,217.668 589.578,221.572 588.618,221.114C587.657,220.656 588.916,216.009 591.427,210.743C593.938,205.478 596.756,201.575 597.717,202.033ZM404.324,201.735C403.363,202.193 404.622,206.84 407.133,212.105C409.644,217.371 412.462,221.274 413.423,220.816C414.383,220.358 413.124,215.711 410.613,210.446C408.102,205.18 405.284,201.277 404.324,201.735ZM562.186,165.363C563.658,165.653 562.63,177.155 559.89,191.031C557.151,204.908 553.732,215.937 552.26,215.647C550.788,215.356 551.817,203.855 554.556,189.978C557.295,176.102 560.714,165.072 562.186,165.363ZM439.854,165.065C438.382,165.356 439.411,176.857 442.15,190.734C444.889,204.61 448.308,215.64 449.78,215.349C451.252,215.059 450.223,203.557 447.484,189.681C444.745,175.804 441.326,164.775 439.854,165.065ZM543.389,161.77C544.878,161.96 544.627,173.505 542.83,187.535C541.032,201.564 538.365,212.799 536.877,212.609C535.388,212.418 535.639,200.873 537.436,186.844C539.234,172.814 541.901,161.579 543.389,161.77ZM458.651,161.472C457.162,161.663 457.413,173.208 459.21,187.237C461.008,201.266 463.675,212.502 465.163,212.311C466.652,212.12 466.401,200.576 464.604,186.546C462.807,172.517 460.139,161.281 458.651,161.472ZM568.902,191.527C569.91,191.868 569.212,196.631 567.344,202.158C565.476,207.684 563.141,211.894 562.133,211.554C561.125,211.213 561.823,206.45 563.691,200.923C565.559,195.397 567.894,191.186 568.902,191.527ZM433.138,191.23C432.13,191.57 432.828,196.334 434.696,201.86C436.564,207.387 438.899,211.597 439.907,211.256C440.915,210.916 440.217,206.152 438.349,200.626C436.481,195.099 434.146,190.889 433.138,191.23ZM579.669,190.12C580.677,190.461 579.979,195.224 578.111,200.75C576.244,206.277 573.909,210.487 572.901,210.147C571.893,209.806 572.591,205.042 574.459,199.516C576.327,193.989 578.661,189.779 579.669,190.12ZM551.621,172.403C553.164,172.694 552.822,181.389 550.857,191.808C548.892,202.227 546.044,210.449 544.501,210.158C542.958,209.867 543.3,201.172 545.265,190.753C547.23,180.335 550.078,172.112 551.621,172.403ZM422.371,189.822C421.363,190.163 422.061,194.926 423.929,200.453C425.797,205.979 428.131,210.19 429.139,209.849C430.147,209.508 429.449,204.745 427.581,199.218C425.714,193.692 423.379,189.482 422.371,189.822ZM450.419,172.106C448.876,172.397 449.218,181.092 451.183,191.51C453.148,201.929 455.996,210.152 457.539,209.861C459.082,209.57 458.74,200.875 456.775,190.456C454.81,180.037 451.962,171.815 450.419,172.106ZM501.288,168.969C502.858,169 503.963,177.631 503.755,188.232C503.546,198.832 502.102,207.413 500.532,207.382C498.962,207.351 497.857,198.72 498.065,188.12C498.274,177.519 499.718,168.938 501.288,168.969ZM527.962,168.645C529.532,168.675 530.637,177.307 530.428,187.907C530.219,198.508 528.775,207.089 527.205,207.058C525.635,207.027 524.53,198.396 524.739,187.795C524.948,177.195 526.392,168.614 527.962,168.645ZM518.712,168.645C520.282,168.675 521.387,177.307 521.178,187.907C520.969,198.508 519.525,207.089 517.955,207.058C516.385,207.027 515.28,198.396 515.489,187.795C515.698,177.195 517.142,168.614 518.712,168.645ZM474.078,168.347C472.508,168.378 471.403,177.009 471.612,187.61C471.821,198.21 473.265,206.791 474.835,206.76C476.405,206.729 477.51,198.098 477.301,187.498C477.092,176.897 475.648,168.316 474.078,168.347ZM483.328,168.347C481.758,168.378 480.653,177.009 480.862,187.61C481.071,198.21 482.515,206.791 484.085,206.76C485.655,206.729 486.76,198.098 486.551,187.498C486.342,176.897 484.898,168.316 483.328,168.347ZM510.714,178.996C511.778,179.012 512.57,183.761 512.481,189.594C512.393,195.427 511.457,200.149 510.393,200.133C509.329,200.117 508.537,195.368 508.626,189.535C508.715,183.702 509.651,178.98 510.714,178.996ZM491.326,178.699C490.262,178.715 489.47,183.463 489.559,189.296C489.648,195.129 490.583,199.852 491.647,199.836C492.711,199.819 493.503,195.071 493.414,189.238C493.325,183.405 492.39,178.682 491.326,178.699Z" style="fill:white;"/>
    </g>
</svg>
