<?xml version="1.0" encoding="UTF-8" standalone="no"?>
<!DOCTYPE svg PUBLIC "-//W3C//DTD SVG 1.1//EN" "http://www.w3.org/Graphics/SVG/1.1/DTD/svg11.dtd">
<svg width="100%" height="100%" viewBox="0 0 1000 1000" version="1.1" xmlns="http://www.w3.org/2000/svg" xmlns:xlink="http://www.w3.org/1999/xlink" xml:space="preserve" xmlns:serif="http://www.serif.com/" style="fill-rule:evenodd;clip-rule:evenodd;stroke-linejoin:round;stroke-miterlimit:2;">
    <g transform="matrix(7.5,0,0,7.5,-3867.67,-3947.5)">
        <path d="M547.504,558.072C546.604,558.965 545.803,559.682 543.5,562C537.329,556.441 537.92,549.985 542.5,543C542.072,549.393 543.915,553.703 548.5,555.5C548.061,554.333 547.731,553.167 547.5,552C553.904,554.049 556.939,552.008 560,550C557.034,543.573 556.737,537.704 562,533C560.61,536.491 560.926,539.851 564,543C567.261,542.93 569.8,543.236 570.5,544.5C578.904,544.641 581.814,546.871 582.5,554C585.726,554.894 588.567,558.643 589.071,562C589.456,564.559 594,568 594,568C593.035,568.118 592.072,568.242 591,568C591.404,570 591.447,572 591.5,574C600.436,572.028 607.376,571.038 608,579L610,580C608.859,584.537 606.512,588.65 602,592C605.281,590.569 608.43,588.821 611.351,586.533C613.351,584.966 614.445,581.777 617,581C635.167,594.308 627.729,606.266 624,618.42C622.273,613.19 620.359,611.754 620.062,612.5C619.711,613.385 622.593,617.767 622.5,624.5C619.784,618.394 616.817,615.717 616.557,616.5C616.35,617.127 619.783,622.001 620,626.527C615.557,633.478 610.187,637.692 604,639.5C611.28,631.013 609.7,620.767 607,619.64C604.479,618.588 599.688,624.942 586,635.922C571.943,647.198 554.108,646.554 543,653C546.74,647.926 551.293,643.868 556,640C550.372,640.982 544.302,643.647 537,651C540.34,646 540.336,641 536,636C537.835,633.785 539.726,631.263 540.069,628.5C540.587,624.334 542.721,620.925 546.239,620C552.894,618.249 552.517,613.789 548,608.795C545.144,605.637 542.788,601.765 541,597C547.557,602.236 556.783,601.52 567,598.594L565,596C560.166,599.207 559.072,598.576 558,596L553,588C551.202,588.256 550.068,587.91 549,587.505C550.771,584.557 550.831,581.61 551,578.662C549.658,581.818 548.149,584.86 546,587.462C546.794,583.808 546.981,580.154 547,576.5C545.442,578.229 544.205,580.999 543.5,585.5C543.436,581.468 543.447,577.473 544.5,574C543.107,575.16 542.071,576.781 541.5,579C541.348,578 541.295,577 541.5,576C540.167,576.389 538.833,576.585 537.5,576.5C538.706,575.676 539.898,574.878 540.5,573.719C541.704,571.398 542.727,568.926 544,566.5C542.015,566.731 540.225,567.95 538.5,569.5C540.666,567.327 541.515,565.105 544.402,562.677C545.855,561.455 546.577,559.624 547.504,558.072ZM570.229,580.816C569.351,581.162 568.475,581.521 567.599,581.887C564.889,583.018 562.212,584.295 559.567,585.788C559.233,585.991 559.092,586.393 559.205,586.75C559.098,587.09 559.219,587.475 559.528,587.687C561.86,589.157 563.657,590.623 565.05,592.096C565.104,592.153 565.158,592.21 565.211,592.267C565.226,592.312 565.245,592.355 565.268,592.398C565.355,592.559 565.488,592.68 565.642,592.753C566.788,594.087 567.598,595.426 568.245,596.743C568.33,596.917 568.408,597.09 568.505,597.254C568.663,597.524 568.838,597.74 569,598C568.993,597.709 568.995,597.447 568.958,597.153C568.942,597.034 568.92,596.919 568.888,596.802C568.509,595.383 567.749,594.001 566.767,592.569L566.745,592.538C571.645,589.815 576.481,587.654 581.274,585.866C587.65,583.487 593.95,581.79 600.216,580.313C600.86,580.161 601.507,580.031 602.144,579.86C603.109,579.601 604.044,579.284 605,579C604.172,579.086 603.352,579.149 602.525,579.265C601.98,579.341 601.439,579.445 600.896,579.546C595.559,580.542 590.221,581.815 584.814,583.452C578.548,585.348 572.209,587.809 565.735,591.198C564.547,589.753 563.027,588.288 561.094,586.787C562.87,585.659 564.67,584.637 566.489,583.685C568.325,582.724 570.178,581.844 572.039,580.998C572.09,580.98 572.139,580.958 572.186,580.931C572.835,580.637 573.485,580.346 574.135,580.058C574.394,579.943 574.661,579.846 574.909,579.71C575.298,579.497 575.628,579.241 576,579C575.633,579.055 575.287,579.082 574.924,579.162C574.692,579.214 574.468,579.29 574.242,579.364C573.762,579.52 573.284,579.682 572.808,579.85C573.066,579.272 573.396,578.694 573.768,578.118C574.869,576.41 576.532,574.875 577.309,573.204C577.422,572.961 577.44,572.747 577.5,572.5C577.286,572.643 577.085,572.723 576.875,572.895C576.758,572.99 576.666,573.114 576.56,573.228C575.57,574.285 574.404,575.41 573.346,576.581C572.688,577.308 572.088,578.057 571.601,578.819C571.28,576.882 570.799,574.944 570.223,573.024C569.646,571.101 569.034,569.183 568.311,567.337C568.238,567.149 568.169,566.962 568.076,566.785C567.928,566.501 567.753,566.269 567.583,566C567.605,566.379 567.59,566.728 567.647,567.106C567.683,567.342 567.761,567.57 567.821,567.802C568.408,570.088 569.01,572.41 569.454,574.747C569.823,576.693 570.09,578.637 570.169,580.566C570.176,580.654 570.197,580.738 570.229,580.816ZM552.212,577.271C552.232,577.329 552.258,577.385 552.29,577.436L552.294,577.443C552.368,577.561 552.468,577.655 552.583,577.721C552.698,577.788 552.83,577.828 552.969,577.833L552.977,577.833C553.056,577.835 553.136,577.826 553.216,577.805C553.295,577.784 553.369,577.752 553.436,577.71L553.443,577.706C553.561,577.632 553.655,577.532 553.721,577.417C553.788,577.302 553.828,577.17 553.833,577.031L553.823,576.869C553.481,574.371 553.415,574.227 553.601,572.39C553.653,571.878 553.723,571.39 553.813,570.926C554.125,572.308 554.543,573.685 555.092,575.061C555.929,577.157 557.066,579.25 558.586,581.336C558.717,581.521 558.954,581.597 559.168,581.522C559.382,581.447 559.52,581.239 559.507,581.013C559.32,578.415 559.331,575.88 559.494,573.393C559.67,570.687 560.083,568.049 560.514,565.431C560.57,565.089 560.618,564.748 560.666,564.405C560.779,563.599 560.877,562.803 561,562C560.689,562.917 560.363,563.82 560.113,564.759C559.537,566.922 559.191,569.151 558.901,571.406C558.574,573.959 558.411,576.566 558.442,579.242C557.513,577.703 556.783,576.165 556.216,574.63C555.389,572.389 554.914,570.154 554.687,567.921C554.652,567.614 554.417,567.367 554.112,567.317C553.806,567.268 553.505,567.426 553.374,567.707C552.766,568.963 552.337,570.457 552.114,572.221C552.051,572.712 552.005,573.225 551.976,573.759C551.787,573.114 551.608,572.46 551.438,571.803C550.674,568.836 550.119,565.805 549.624,563.151C549.569,562.855 549.533,562.56 549.457,562.279C549.331,561.819 549.151,561.42 549,561C548.976,561.375 548.926,561.735 548.925,562.131C548.925,562.376 548.95,562.621 548.971,562.872C549.165,565.131 549.505,567.666 549.927,570.233C550.443,573.373 551.164,574.539 552.212,577.271ZM579.5,560C579.058,559.643 578.707,559.276 578.285,558.927C577.902,558.61 577.507,558.335 577.128,558.037C576.54,557.575 575.974,557.119 575.427,556.653C574.892,556.222 574.295,555.84 573.643,555.556C572.998,555.275 572.302,555.103 571.594,555.016C571.008,554.976 570.441,554.882 569.851,554.754C569.027,554.576 568.171,554.347 567.195,554.018C566.784,553.896 566.349,553.823 565.868,553.83C565.282,553.839 564.68,553.937 564,554C564.761,554.209 565.433,554.378 566.054,554.588C566.327,554.681 566.576,554.781 566.805,554.914C567.767,555.43 568.611,555.847 569.45,556.15C570.098,556.384 570.74,556.533 571.4,556.645C571.963,556.71 572.508,556.868 573.032,557.065C573.577,557.27 574.103,557.511 574.573,557.821C575.47,558.372 576.372,558.959 577.39,559.413C577.657,559.532 577.921,559.638 578.206,559.723C578.637,559.852 579.043,559.919 579.5,560Z" style="fill:white;"/>
    </g>
</svg>
