<?xml version="1.0" encoding="UTF-8" standalone="no"?>
<!DOCTYPE svg PUBLIC "-//W3C//DTD SVG 1.1//EN" "http://www.w3.org/Graphics/SVG/1.1/DTD/svg11.dtd">
<svg width="100%" height="100%" viewBox="0 0 1000 1000" version="1.1" xmlns="http://www.w3.org/2000/svg" xmlns:xlink="http://www.w3.org/1999/xlink" xml:space="preserve" xmlns:serif="http://www.serif.com/" style="fill-rule:evenodd;clip-rule:evenodd;stroke-linejoin:round;stroke-miterlimit:2;">
    <g transform="matrix(-6.7921,0,0,6.78546,3149.34,-3175.56)">
        <path d="M417.882,498.5L417.882,497C417.606,495.558 417.273,494.116 417.015,492.674C416.762,491.345 416.59,490.016 416.596,488.687C416.586,486.791 416.915,484.896 417.882,483L422.036,483C422.008,481.199 421.964,477.736 422.052,477.647C422.17,477.53 422.552,477.5 422.552,477.5C422.348,476.039 422.357,475.363 423.552,475.363C424.748,475.363 424.553,476.069 424.493,477.5C424.493,477.5 424.921,477.516 425.052,477.647C425.161,477.756 425.091,481.578 425.063,483L430,483C430.967,484.896 431.296,486.791 431.285,488.687C431.292,490.016 431.12,491.345 430.867,492.674C430.609,494.116 430.276,495.558 430,497L430,608L417.882,608L417.882,605.5L415,605.5L415,607.5L414,607.5L414,482.5C414.333,482.098 414.667,482.123 415,482.5L415,498.5L417.882,498.5ZM354.444,505C354.415,503.211 354.386,500.733 354.476,500.66C354.613,500.549 355.056,500.513 355.056,500.513C354.819,499.137 354.829,498.5 356.217,498.5C357.605,498.5 357.379,499.165 357.309,500.513C357.309,500.513 357.805,500.536 357.958,500.66C358.066,500.748 358.022,503.371 357.986,505L362.241,505C363.208,506.896 363.536,508.791 363.526,510.687C363.533,512.016 363.36,513.345 363.107,514.674C362.849,516.116 362.517,517.558 362.241,519L362.241,608L350.122,608L350.122,519C349.846,517.558 349.514,516.116 349.256,514.674C349.003,513.345 348.83,512.016 348.837,510.687C348.827,508.791 349.156,506.896 350.122,505L354.444,505ZM417.882,577.5L415,577.5L415,604.5L417.882,604.5L417.882,577.5ZM417.882,550L415,550L415,576.5L417.882,576.5L417.882,550ZM417.882,522.5L415,522.5L415,549L417.882,549L417.882,522.5ZM417.882,499.5L415,499.5L415,521.5L417.882,521.5L417.882,499.5Z" style="fill:white;"/>
    </g>
</svg>
