<?xml version="1.0" encoding="UTF-8" standalone="no"?>
<!DOCTYPE svg PUBLIC "-//W3C//DTD SVG 1.1//EN" "http://www.w3.org/Graphics/SVG/1.1/DTD/svg11.dtd">
<svg width="100%" height="100%" viewBox="0 0 1000 1000" version="1.1" xmlns="http://www.w3.org/2000/svg" xmlns:xlink="http://www.w3.org/1999/xlink" xml:space="preserve" xmlns:serif="http://www.serif.com/" style="fill-rule:evenodd;clip-rule:evenodd;stroke-linejoin:round;stroke-miterlimit:2;">
    <g transform="matrix(12.0599,-0.0158341,0.0158341,12.0599,-4483.11,-5062.08)">
        <path d="M412.591,461.747C415.121,472.939 422.052,486.729 425.976,493.511C430.651,501.591 440.016,499.353 444.651,496.133C450.948,491.76 451.713,480.325 444.87,475.456C438.486,470.912 427.782,466.049 412.591,461.747ZM412.591,461.747C410.061,472.939 403.13,486.729 399.206,493.511C394.531,501.591 385.167,499.353 380.531,496.133C374.235,491.76 373.469,480.325 380.312,475.456C386.696,470.912 397.4,466.049 412.591,461.747ZM389.854,424.435C393.359,424.483 396.869,425.943 399.206,429.983C403.1,436.712 409.953,450.341 412.531,461.484L412.591,461.747C397.4,457.446 386.696,452.582 380.312,448.039C373.469,443.169 374.235,431.734 380.531,427.361C382.813,425.776 386.24,424.429 389.69,424.433L389.854,424.435ZM412.591,461.747C415.121,450.555 422.052,436.765 425.976,429.983C430.651,421.903 440.016,424.141 444.651,427.361C450.948,431.734 451.713,443.169 444.87,448.039C438.486,452.582 427.782,457.446 412.591,461.747Z" style="fill:white;"/>
    </g>
</svg>
