<?xml version="1.0" encoding="UTF-8" standalone="no"?>
<!DOCTYPE svg PUBLIC "-//W3C//DTD SVG 1.1//EN" "http://www.w3.org/Graphics/SVG/1.1/DTD/svg11.dtd">
<svg width="100%" height="100%" viewBox="0 0 1000 1000" version="1.1" xmlns="http://www.w3.org/2000/svg" xmlns:xlink="http://www.w3.org/1999/xlink" xml:space="preserve" xmlns:serif="http://www.serif.com/" style="fill-rule:evenodd;clip-rule:evenodd;stroke-linejoin:round;stroke-miterlimit:2;">
    <g transform="matrix(1.10137,0,0,1.10137,-55.5957,-38.1099)">
        <path d="M605.001,684.544C634.23,722.709 675.264,758.499 704.851,775.955C772.819,818.921 840.787,818.921 874.772,775.955C908.756,732.989 908.756,647.056 840.787,604.09C908.756,561.124 908.756,475.192 874.772,432.226C840.787,389.258 772.819,389.258 704.851,432.226C653.875,462.302 568.915,546.802 568.915,604.09L568.915,604.09C568.915,604.09 555.395,814.211 568.915,868.18C579.148,909.03 666.055,897.573 678.915,888.18C688.62,881.09 704.289,868.929 698.915,858.18C692.248,844.846 614.152,873.681 608.915,848.18C603.161,820.166 603.563,744.798 605.001,684.544ZM403.914,676.364C374.685,714.529 333.65,750.319 304.064,767.775C236.095,810.742 168.127,810.742 134.143,767.775C100.159,724.809 100.159,638.877 168.127,595.911C100.159,552.945 100.159,467.013 134.143,424.046C168.127,381.079 236.095,381.079 304.064,424.046C355.04,454.123 440,538.623 440,595.91L440,595.91C440,595.91 453.52,806.031 440,860C429.767,900.851 342.86,889.394 330,880C320.295,872.911 304.625,860.75 310,850C316.667,836.667 394.762,865.502 400,840C405.753,811.987 405.352,736.619 403.914,676.364ZM781.37,600.745C867.077,567.968 867.077,502.414 841.152,469.637C815.227,436.859 763.377,436.859 711.527,469.637C672.64,492.581 633.752,551.58 607.827,600.745C633.752,649.911 672.64,708.909 711.527,731.853C763.377,764.63 815.227,764.63 841.152,731.853C867.077,699.076 867.077,633.522 781.37,600.745ZM227.545,592.566C141.837,559.789 141.837,494.235 167.762,461.458C193.687,428.679 245.537,428.679 297.387,461.458C336.275,484.402 375.162,543.4 401.087,592.566C375.162,641.731 336.275,700.73 297.387,723.674C245.537,756.451 193.687,756.451 167.762,723.674C141.837,690.897 141.837,625.343 227.545,592.566ZM481.82,152.061C536.173,65.076 644.88,65.076 699.233,108.568C753.589,152.061 753.589,239.045 699.233,326.03C661.186,391.269 563.35,456.508 481.82,500C400.289,456.508 302.454,391.269 264.406,326.03C210.053,239.045 210.053,152.061 264.406,108.568C318.76,65.076 427.466,65.076 481.82,152.061ZM486.051,228.103C527.515,118.415 610.443,118.415 651.907,151.593C693.373,184.772 693.373,251.129 651.907,317.486C622.882,367.254 548.247,417.022 486.051,450.2C423.856,417.022 349.221,367.254 320.196,317.486C278.732,251.129 278.732,184.772 320.196,151.593C361.66,118.415 444.588,118.415 486.051,228.103Z" style="fill:white;"/>
    </g>
</svg>
