<?xml version="1.0" encoding="UTF-8" standalone="no"?>
<!DOCTYPE svg PUBLIC "-//W3C//DTD SVG 1.1//EN" "http://www.w3.org/Graphics/SVG/1.1/DTD/svg11.dtd">
<svg width="100%" height="100%" viewBox="0 0 1000 1000" version="1.1" xmlns="http://www.w3.org/2000/svg" xmlns:xlink="http://www.w3.org/1999/xlink" xml:space="preserve" xmlns:serif="http://www.serif.com/" style="fill-rule:evenodd;clip-rule:evenodd;stroke-linejoin:round;stroke-miterlimit:2;">
    <g transform="matrix(2.09302,0,0,2.09302,-546.512,-536.047)">
        <path d="M588,640L596.131,666.243L620.5,675L596.131,683.757L588,710L579.869,683.757L555.5,675L579.869,666.243L588,640ZM412,640L403.869,666.243L379.5,675L403.869,683.757L412,710L420.131,683.757L444.5,675L420.131,666.243L412,640ZM499.79,699.812C482.056,683.849 489.143,664.553 481.587,650C469.307,626.35 452.805,608.698 430,600C459.532,580.709 482.823,557.348 500,530L500.404,530.64C517.54,557.712 540.698,580.859 570,600C547.195,608.698 530.693,626.35 518.413,650C510.828,664.61 518,684 500,700L499.79,699.812ZM647.5,612.5L655.049,621.87L663.75,630L655.049,638.13L647.5,647.5L639.951,638.13L631.25,630L639.951,621.87L647.5,612.5ZM352.5,612.5L344.951,621.87L336.25,630L344.951,638.13L352.5,647.5L360.049,638.13L368.75,630L360.049,621.87L352.5,612.5ZM680,540L688.131,566.243L712.5,575L688.131,583.757L680,610L671.869,583.757L647.5,575L671.869,566.243L680,540ZM320,540L311.869,566.243L287.5,575L311.869,583.757L320,610L328.131,583.757L352.5,575L328.131,566.243L320,540ZM630,400C596.264,439.151 570.303,482.902 550,530C552.575,539.521 559.49,546.014 570,550C610.403,515.893 653.473,488.559 700,470L630,400ZM370,400C403.736,439.151 429.697,482.902 450,530C447.425,539.521 440.51,546.014 430,550C389.597,515.893 346.527,488.559 300,470L370,400ZM500.259,448.895C505.749,425.759 514.208,407.211 530,400C512.682,393.235 504.878,374.196 500.22,351.103L500,350C495.366,373.589 487.593,393.128 470,400C486.042,407.325 494.517,426.349 500,450L500.259,448.895ZM499.597,503.22C491.173,507.867 484.951,513.615 480,520C467.139,461.526 439.754,411.967 400,370L500,280L600,370C560.246,411.967 532.861,461.526 520,520C514.97,513.514 508.629,507.685 500,503L499.597,503.22Z" style="fill:white;"/>
    </g>
</svg>
