<?xml version="1.0" encoding="UTF-8" standalone="no"?>
<!DOCTYPE svg PUBLIC "-//W3C//DTD SVG 1.1//EN" "http://www.w3.org/Graphics/SVG/1.1/DTD/svg11.dtd">
<svg width="100%" height="100%" viewBox="0 0 1000 1000" version="1.1" xmlns="http://www.w3.org/2000/svg" xmlns:xlink="http://www.w3.org/1999/xlink" xml:space="preserve" xmlns:serif="http://www.serif.com/" style="fill-rule:evenodd;clip-rule:evenodd;stroke-linejoin:round;stroke-miterlimit:2;">
    <g transform="matrix(2.15987,0,0,2.15987,-381.014,-733.642)">
        <path d="M238.639,669.792C243.597,669.583 248.395,669.073 253.435,668.016C256.136,667.45 258.789,669.182 259.355,671.883C259.922,674.584 258.189,677.237 255.488,677.803C252.396,678.451 249.387,678.917 246.384,679.242C251.052,684.429 256.111,689.236 261.507,693.681C267.755,693.31 273.814,692.314 279.599,689.325C282.051,688.058 285.07,689.02 286.337,691.471C287.603,693.923 286.642,696.942 284.19,698.209C280.509,700.111 276.741,701.369 272.895,702.207C279.457,706.67 286.398,710.69 293.644,714.291C299.64,712.199 305.466,710.036 310.765,706.385C313.038,704.819 316.154,705.393 317.719,707.665C319.285,709.938 318.711,713.054 316.439,714.62C313.241,716.823 309.884,718.569 306.419,720.083C314.279,723.325 322.415,726.129 330.743,728.52C336.543,725.997 341.557,721.652 346.26,717.523C348.334,715.702 351.496,715.908 353.316,717.981C355.137,720.055 354.932,723.217 352.858,725.037C350.132,727.431 347.288,729.833 344.285,732.011C353.964,734.234 363.836,735.941 373.771,737.17C378.912,734.328 382.879,729.927 385.524,724.596C386.75,722.124 389.753,721.113 392.225,722.34C394.697,723.566 395.708,726.569 394.482,729.041C392.731,732.569 390.542,735.785 387.945,738.598C396.728,739.287 405.519,739.617 414.222,739.614C418.169,736.586 421.585,732.784 423.799,728.416C425.046,725.954 428.057,724.968 430.519,726.216C432.98,727.463 433.966,730.474 432.719,732.936C431.585,735.174 430.212,737.304 428.65,739.304C434.37,739.059 440.022,738.674 445.588,738.155C449.325,733.294 453.205,728.516 455.637,722.819C456.72,720.28 459.66,719.099 462.198,720.183C464.737,721.266 465.918,724.206 464.834,726.744C463.329,730.27 461.35,733.496 459.181,736.6C465.616,735.725 471.891,734.671 477.971,733.45C482.861,728.847 485.806,722.837 487.826,716.383C488.651,713.75 491.458,712.281 494.092,713.106C496.725,713.93 498.194,716.738 497.369,719.371C496.207,723.084 494.77,726.657 492.963,729.997C496.626,729.039 500.194,728.016 503.655,726.933C508.88,721.194 512.951,714.1 515.354,706.795C516.216,704.174 519.044,702.746 521.666,703.608C524.287,704.47 525.715,707.298 524.853,709.92C523.607,713.709 521.977,717.447 520.018,721.025C522.939,719.811 525.743,718.549 528.424,717.24C528.664,716.831 528.968,716.45 529.334,716.111C534.945,710.912 538.575,703.345 540.058,695.892C540.597,693.185 543.231,691.425 545.938,691.964C548.644,692.502 550.404,695.137 549.866,697.843C549.375,700.313 548.689,702.788 547.818,705.215C549.914,703.519 551.825,701.781 553.544,700C555.633,697.836 565.21,659.039 510,650C454.79,640.961 438.798,667.008 410,666.145C373.795,665.06 304.332,633.815 293.775,616.437C285.839,603.374 198.315,592.785 226.528,650C230.013,657.068 234.072,663.657 238.639,669.792ZM372.335,503.848C384.595,501.343 400.521,496.905 406.665,495.588C407.479,495.786 412.418,497.012 417.07,498.677C442.529,507.794 495.632,532.07 502.535,535.001C503.034,535.54 505.439,538.163 507.28,540.55C514.396,549.778 525.003,565.522 531.514,573.536C536.57,579.76 538.757,587.753 540.579,594.135C542.157,599.664 543.657,604.216 545.543,606.686C549.917,612.416 557.063,635.284 593.391,635.607C594.196,635.614 594.978,635.607 595.74,635.586C591.76,661.147 578.899,678.543 561.095,690.311C561.172,683.908 559.748,675.657 554.433,667.753C547.865,657.986 535.171,648.439 510.906,644.466C476.332,638.806 456.49,646.296 439.659,653.025C429.657,657.024 420.885,660.862 410.168,660.541C385.53,659.802 345.091,644.57 319.499,629.778C319.122,629.56 318.748,629.343 318.379,629.126C426.384,608.18 441.225,565.694 372.335,503.848ZM566.285,647.187C561.514,643.995 556.863,640.831 551.665,638.35C550.669,637.874 549.474,638.297 548.999,639.293C548.523,640.289 548.946,641.484 549.942,641.96C554.965,644.357 559.45,647.427 564.06,650.512C564.978,651.126 566.221,650.879 566.835,649.962C567.449,649.045 567.202,647.801 566.285,647.187ZM541.747,633.067C536.078,630.29 530.469,627.492 524.696,624.927C523.688,624.479 522.505,624.934 522.056,625.942C521.608,626.951 522.063,628.134 523.072,628.582C528.799,631.127 534.363,633.904 539.987,636.659C540.978,637.145 542.178,636.734 542.663,635.743C543.149,634.752 542.738,633.553 541.747,633.067ZM231.89,474.695C234.288,477.406 236.939,479.869 239.585,482.44C241.548,484.348 243.119,486.609 245.249,488.347C246.378,489.269 247.789,489.615 249.127,489.421C249.166,489.746 249.195,490.05 249.211,490.332C249.3,491.821 249.825,493.38 250.97,494.896C252.234,496.57 254.641,498.428 257.946,500.109C266.005,504.206 280.408,508.19 288.288,510.717C288.98,510.939 289.81,511.124 290.76,511.274C279.758,539.538 272.69,569.791 267.733,601.113C264.759,600.777 261.703,600.571 258.638,600.523C241.918,600.262 225.301,605.076 218.634,616.857C216.548,620.544 215.309,624.992 215.36,630.296C215.239,630.201 215.118,630.102 215,630C211.135,626.67 208.02,621.855 205.626,615.928C212.203,614.861 218.618,610.637 224.404,607.366C226.806,606.008 227.653,602.955 226.295,600.552C224.937,598.15 221.884,597.303 219.482,598.661C214.297,601.592 208.497,605.5 202.579,606.271C201.344,601.162 200.494,595.555 200.016,589.609C206.017,588.958 211.824,587.583 217.618,585.297C220.185,584.285 221.447,581.379 220.435,578.812C219.422,576.244 216.516,574.982 213.949,575.995C209.211,577.864 204.46,579.012 199.567,579.594C199.511,574.866 199.663,569.989 200.018,565.025C203.757,566.937 207.91,568.295 211.967,569.016C214.684,569.499 217.282,567.685 217.764,564.968C218.247,562.251 216.434,559.653 213.717,559.17C209.716,558.459 205.582,556.958 202.188,554.748C201.827,554.512 201.471,554.274 201.12,554.032C201.704,549.493 202.449,544.923 203.352,540.366C207.354,544.07 212.161,546.95 217.126,549.058C219.666,550.136 222.604,548.95 223.683,546.409C224.761,543.869 223.575,540.932 221.034,539.853C215.807,537.633 210.733,534.403 207.232,529.859C206.842,529.352 206.477,528.829 206.131,528.293C207.231,524.113 208.464,519.985 209.83,515.944C210.367,516.561 210.919,517.182 211.485,517.814C214.963,521.698 218.743,525.449 223.369,527.961C225.794,529.278 228.832,528.378 230.149,525.953C231.466,523.528 230.566,520.49 228.141,519.173C224.524,517.209 221.653,514.178 218.934,511.142C217.083,509.077 215.379,507.191 213.94,505.023C215.339,501.673 216.836,498.417 218.43,495.281C223.216,500.094 228.762,504.472 234.382,507.889C236.74,509.323 239.818,508.572 241.252,506.215C242.685,503.857 241.935,500.778 239.577,499.345C233.832,495.851 228.169,491.217 223.55,486.167C226.135,482.013 228.917,478.163 231.89,474.695ZM446.927,419.859C458.668,423.997 469.505,428.189 479.518,432.432C479.408,436.63 479.109,440.781 478.505,444.979C478.111,447.71 480.01,450.247 482.741,450.641C485.472,451.034 488.009,449.136 488.403,446.404C488.869,443.166 489.171,439.955 489.35,436.733C503.796,443.259 516.371,449.896 527.352,456.63C527.067,460.648 526.601,464.639 525.825,468.616C525.296,471.325 527.066,473.953 529.775,474.481C532.483,475.01 535.111,473.24 535.64,470.531C536.146,467.937 536.534,465.338 536.831,462.73C547.243,469.77 556.019,476.904 563.46,484.116C562.963,486.981 562.351,489.82 561.656,492.693C561.007,495.375 562.658,498.08 565.341,498.728C568.023,499.377 570.727,497.726 571.376,495.044C571.547,494.336 571.714,493.63 571.875,492.924C578.446,500.379 583.743,507.904 588.087,515.477C587.693,517.8 587.151,520.1 586.515,522.37C585.77,525.027 587.323,527.789 589.98,528.534C591.531,528.969 593.118,528.62 594.318,527.726C595.914,531.285 597.341,534.853 598.632,538.427C597.791,540.568 596.866,542.675 595.816,544.733C594.563,547.192 595.541,550.205 598,551.459C599.558,552.253 601.34,552.151 602.755,551.343C603.79,555.014 604.724,558.689 605.593,562.364C604.766,563.706 603.949,565.054 603.131,566.401C601.699,568.76 602.452,571.838 604.81,573.27C605.852,573.902 607.033,574.109 608.151,573.939C608.964,577.822 609.746,581.704 610.539,585.584C610.012,586.315 609.449,587.039 608.835,587.77C607.061,589.884 607.337,593.04 609.451,594.814C610.402,595.613 611.565,595.996 612.718,595.983C613.011,597.328 613.308,598.664 613.612,600C615.354,607.643 624.628,630.277 593.441,630C560.303,629.705 553.99,608.51 550,603.284C546.01,598.057 545.135,581.409 535.866,570C526.596,558.591 509.006,531.457 505.112,530C501.218,528.543 413.894,488.38 405.99,490C398.087,491.62 369.844,499.882 360,500C350.156,500.118 300.944,508.886 290,505.377C279.056,501.868 255.139,495.56 254.809,490C254.478,484.44 249.615,470.394 255.989,460C261.632,450.799 268.633,442.569 276.715,435.415C280.789,438.474 284.233,442.277 286.76,446.749C288.117,449.151 291.17,449.999 293.573,448.642C295.975,447.284 296.823,444.231 295.466,441.829C292.669,436.88 288.999,432.566 284.679,428.968C290.564,424.611 296.902,420.755 303.604,417.434C309.276,421.051 313.216,426.752 316.897,432.364C318.41,434.672 321.512,435.316 323.82,433.803C326.128,432.29 326.772,429.187 325.259,426.88C321.959,421.848 318.364,416.88 313.936,412.849C323.733,408.984 334.158,406.177 344.983,404.511C350.788,409.01 355.531,415.372 358.427,421.999C359.532,424.528 362.482,425.684 365.011,424.579C367.539,423.474 368.695,420.524 367.59,417.995C365.273,412.691 361.974,407.545 357.984,403.075C366.829,402.475 375.872,402.619 384.998,403.548C389.372,408.339 393.086,413.422 396.026,419.306C397.259,421.775 400.265,422.778 402.733,421.544C405.202,420.311 406.205,417.305 404.971,414.837C403.353,411.598 401.535,408.568 399.526,405.686C405.303,406.8 411.094,408.235 416.867,410C423.682,412.084 430.241,414.183 436.547,416.294C436.769,418.521 437.061,420.741 437.105,422.987C437.165,426.098 436.518,429.378 435.665,432.379C434.91,435.034 436.452,437.801 439.107,438.556C441.761,439.311 444.529,437.769 445.284,435.114C446.402,431.18 447.182,426.87 447.103,422.793C447.084,421.811 447.016,420.834 446.927,419.859ZM238.905,467.562C242.265,464.618 245.825,462.141 249.577,460.215C247.39,465.259 246.905,470.765 247.202,475.93C246.991,475.705 246.776,475.484 246.554,475.269C243.921,472.71 241.235,470.318 238.905,467.562Z" style="fill:white;"/>
    </g>
</svg>
