<?xml version="1.0" encoding="UTF-8" standalone="no"?>
<!DOCTYPE svg PUBLIC "-//W3C//DTD SVG 1.1//EN" "http://www.w3.org/Graphics/SVG/1.1/DTD/svg11.dtd">
<svg width="100%" height="100%" viewBox="0 0 1000 1000" version="1.1" xmlns="http://www.w3.org/2000/svg" xmlns:xlink="http://www.w3.org/1999/xlink" xml:space="preserve" xmlns:serif="http://www.serif.com/" style="fill-rule:evenodd;clip-rule:evenodd;stroke-linejoin:round;stroke-miterlimit:2;">
    <g transform="matrix(1.00773,0,0,1,-0.386419,3.2521)">
        <path d="M852.526,693.002C850.591,694.052 849.184,695.607 849.315,698.632C849.34,699.207 849.644,699.735 850.131,700.043C857.21,704.54 864.324,709.037 869.341,713.14C870.829,714.357 872.132,715.522 873.169,716.636C870.593,716.36 868.18,716.739 865.947,717.808C865.433,718.054 865.07,718.532 864.972,719.092C864.873,719.653 865.051,720.226 865.449,720.632C871.811,727.121 877.829,733.363 880.134,737.346L880.209,737.479C878.928,737.436 877.59,737.899 876.214,738.734C875.776,739 875.475,739.444 875.391,739.949C875.306,740.455 875.445,740.972 875.773,741.367C882.721,749.735 887.62,756.952 889.957,762.67C890.838,764.825 891.363,766.731 891.436,768.371C890.883,768.158 890.353,768.075 889.855,768.092C888.518,768.139 887.209,768.894 886.099,770.504C885.825,770.901 885.726,771.394 885.825,771.866C885.924,772.338 886.212,772.75 886.623,773.004C895.117,778.262 902.311,784.399 905.456,793.3C904.793,793.087 904.122,792.985 903.445,792.985C901.333,792.985 899.063,794.021 896.738,796.299C896.367,796.663 896.175,797.172 896.214,797.691C896.253,798.209 896.519,798.684 896.941,798.988C902.754,803.179 907.311,807.349 910.011,811.54C912.126,814.821 913.064,818.094 912.408,821.373C910.751,821.062 909.217,821.378 907.733,821.977C907.257,822.169 906.889,822.559 906.724,823.045C906.559,823.531 906.614,824.064 906.874,824.506C911.828,832.912 914.78,842.004 914.916,850.4C913.968,850.221 912.892,850.124 911.925,850.211C909.661,850.415 908.062,851.59 908.02,853.674C908.015,853.939 908.069,854.201 908.179,854.442C909.8,857.995 911.169,861.178 912.231,863.914C913.097,866.146 913.758,868.069 914.175,869.639C913.221,868.939 912.225,868.591 911.237,868.587C909.756,868.581 908.125,869.302 906.507,871.128C906.009,871.689 905.922,872.504 906.288,873.158C907.051,874.52 910.263,882.591 911.594,887.589C911.835,888.496 912.002,889.575 912.078,890.124C911.873,890.152 911.652,890.162 911.42,890.168C910.591,890.191 909.656,890.074 908.717,889.896C905.676,889.321 902.614,888.088 902.614,888.088C901.744,887.738 900.752,888.131 900.357,888.982C899.539,890.747 899.389,892.255 899.654,893.556C899.77,894.126 899.967,894.663 900.237,895.167C899.928,895.229 899.586,895.279 899.213,895.321C896.562,895.615 892.558,895.414 887.478,894.848C887.341,894.833 887.204,894.834 887.067,894.851C885.841,895.002 885.128,895.503 884.707,896.044C884.196,896.7 884.011,897.53 884.212,898.483C884.367,899.214 884.798,900.073 885.374,900.895C885.565,901.168 885.771,901.438 885.982,901.698L885.889,901.708C882.309,902.063 876.569,901.814 873.048,901.256C872.415,901.156 871.725,900.981 871.276,900.858C871.225,900.753 871.161,900.653 871.087,900.557C870.535,899.854 869.544,899.674 868.781,900.14C867.995,900.62 867.483,901.41 867.328,902.487C867.128,903.876 867.667,906.006 868.572,907.992C869.101,909.155 869.746,910.263 870.366,911.147C863.809,914.005 859.499,913.483 850.018,912.406C849.508,912.348 848.999,912.515 848.622,912.864C848.246,913.213 848.04,913.708 848.058,914.221C848.115,915.82 848.452,917.35 849.41,918.737C846.682,920.671 843.311,921.147 839.453,920.552C834.526,919.792 828.862,917.329 822.667,913.727C822.217,913.465 821.675,913.416 821.186,913.591C820.696,913.766 820.309,914.149 820.128,914.636C818.994,917.688 818.973,920.183 819.833,922.112C820.108,922.73 820.475,923.301 820.939,923.82C811.529,924.572 802.995,920.501 794.732,914.885C794.333,914.614 793.84,914.518 793.369,914.62C792.897,914.722 792.488,915.013 792.236,915.425C791.218,917.095 791.061,918.598 791.563,919.837C791.75,920.299 792.042,920.749 792.461,921.168C790.934,921.769 788.98,922.066 786.653,922.139C780.479,922.333 771.892,920.798 761.42,917.861C760.926,917.722 760.396,917.805 759.969,918.089C759.542,918.372 759.259,918.828 759.195,919.336C758.993,920.932 759.114,922.343 759.675,923.495L759.524,923.481C754.947,922.998 746.795,920.044 738.278,916.876C737.745,916.678 737.149,916.749 736.677,917.067C736.206,917.386 735.917,917.912 735.901,918.481C735.834,920.957 736.471,923.315 737.772,925.554C736.333,925.061 734.738,924.345 733.02,923.482C727.23,920.571 720.225,915.905 713.235,911.271C712.755,910.952 712.15,910.889 711.614,911.1C708.798,912.213 707.951,914.131 707.78,916.326L707.59,916.14C705.592,914.154 703.019,910.856 699.944,906.457C699.6,905.964 699.029,905.681 698.428,905.705C697.828,905.729 697.281,906.057 696.978,906.576C694.67,910.519 694.513,913.763 695.263,916.716C694.721,916.426 694.144,916.054 693.531,915.611C690.246,913.235 686.11,908.91 681.331,903.185C680.884,902.649 680.163,902.428 679.492,902.62C677.962,903.059 676.835,903.853 676.101,904.957C675.396,906.017 675.035,907.432 675.19,909.25C674.979,909.116 674.76,908.963 674.53,908.791C670.616,905.869 664.73,898.444 658.604,890.563C658.276,890.14 657.772,889.89 657.236,889.883C656.7,889.876 656.19,890.113 655.85,890.527C654.82,891.783 654.561,893.352 655.15,895.21C655.176,895.293 655.204,895.376 655.234,895.46C638.436,884.678 625.148,869.401 614.853,851.36C635.205,844.721 649.092,832.73 665.035,818.84C671.606,813.116 689.23,792.42 693.414,789.806C698.221,786.802 704.441,785.402 709.632,783.174C720.668,778.437 731.962,773.754 742.284,767.489C742.921,767.893 743.556,768.297 744.191,768.703C708.82,815.141 685.066,850.888 670.539,878.126C670.096,878.956 670.383,879.986 671.19,880.469C671.997,880.951 673.04,880.715 673.561,879.933C695.796,846.539 722.032,811.74 753.84,774.984C759.889,778.993 765.869,783.091 771.786,787.265C747.705,826.856 733.47,859.389 718.395,892.527C717.997,893.403 718.375,894.437 719.244,894.849C720.114,895.262 721.154,894.901 721.58,894.038C738.533,859.746 754.534,825.141 781.205,794.007C790.836,801 800.32,808.184 809.697,815.509C789.157,844.76 775.555,872.664 762.428,900.479C762.024,901.334 762.367,902.355 763.205,902.793C764.043,903.231 765.078,902.93 765.549,902.111C781.29,874.767 797.145,847.443 816.289,820.693C826.905,829.099 837.396,837.668 847.817,846.323C834.467,865.455 824.111,884.585 813.355,903.716C812.886,904.549 813.168,905.605 813.989,906.094C814.811,906.583 815.873,906.328 816.383,905.519C828.096,886.922 839.394,868.061 853.144,850.759C864.246,860.026 875.283,869.376 886.328,878.715C887.05,879.326 888.126,879.258 888.765,878.561C889.404,877.864 889.38,876.786 888.709,876.119C879.312,866.778 869.645,857.334 859.631,847.759C872.595,845.843 886.326,844.748 900.13,843.729C901.078,843.659 901.799,842.85 901.761,841.901C901.723,840.951 900.94,840.203 899.99,840.208C884.575,840.299 869.162,840.623 853.754,842.163C844.761,833.634 835.483,824.997 825.869,816.232C843.999,813.978 862.745,813.21 881.487,812.428C882.44,812.388 883.189,811.596 883.176,810.641C883.162,809.687 882.391,808.916 881.436,808.904C860.765,808.636 840.028,808.499 818.626,809.663C810.627,802.444 802.392,795.136 793.896,787.73C818.426,780.841 844.426,777.037 870.451,773.281C871.385,773.146 872.047,772.298 871.953,771.359C871.858,770.419 871.039,769.722 870.096,769.776C841.794,771.425 813.516,773.816 785.379,780.348C779.342,775.145 773.177,769.896 766.872,764.594C794.737,752.491 825.772,748.298 857.144,744.938C858.073,744.839 858.764,744.032 858.717,743.098C858.671,742.165 857.904,741.43 856.969,741.423C823.45,741.181 790.241,742.783 759.367,758.314C758.499,757.592 757.628,756.867 756.754,756.142C761.566,750.963 765.712,745.025 770.64,740.037C773.031,737.617 776.082,736.096 779.182,734.625C782.592,733.006 786.064,731.452 788.979,729.12C795.138,724.195 798.906,716.768 805.078,711.895C808.938,708.847 813.364,707.084 817.888,705.543C822.668,703.915 827.559,702.534 832.088,700.336C837.04,697.932 840.858,694.233 844.92,690.822C848.151,691.55 850.714,692.273 852.526,693.002ZM873.294,911.648C873.336,911.657 873.375,911.659 873.411,911.654L873.56,911.579C873.518,911.623 873.468,911.647 873.411,911.654L873.298,911.712L873.294,911.648ZM535.042,825.818C517.231,825.346 512.765,840.032 498.949,848.58C482.547,858.728 460.846,859.891 443.877,851.304C436.47,847.556 435.325,840.001 434.107,832.393C431.919,818.727 430.9,809.776 444.6,802.406C454.64,797.005 466.482,795.945 476.519,790.321C493.483,780.816 507.622,767.506 527.248,763.361C538.272,761.032 549.176,765.162 560.332,764.38C566.263,763.965 574.046,757.549 579.524,758.341C583.327,758.892 585.457,764.148 586.526,767.24C589.406,775.566 590.305,787.345 586.559,795.496C577.872,814.398 554.677,824.45 535.042,825.818ZM677.988,786.353C668.792,795.87 660.797,808.645 649.535,815.907C635.731,824.808 620.887,828.986 604.528,829.385C601.467,829.46 591.964,831.236 589.401,828.939C587.157,826.927 589.091,821.104 589.875,818.971C593.307,809.629 599.911,802.522 600.912,792.331C601.788,783.413 602.811,774.431 602.978,765.456C603.028,762.782 601.767,757.782 603.708,755.424C604.72,754.195 608.834,755.478 609.971,755.748C615.838,757.141 621.444,759.621 627.336,760.85C634.957,762.439 643.098,762.244 650.81,761.596C654.447,761.291 660.467,759.993 663.831,762.099C669.07,765.379 672.714,776.077 676.636,781.391L677.988,786.353ZM366.209,786.296C342.703,782.242 331.007,762.457 318.842,744.554C314.987,738.881 309.785,731.695 304.097,740.432C300.841,745.434 300.632,752.168 300.373,757.949C299.074,786.85 321.099,807.016 349.005,808.095C356.609,808.389 361.899,804.576 367.42,799.398C369.424,797.519 372.559,794.224 370.229,791.526L366.209,786.296ZM254.551,726.705C257.255,733.879 259.164,743.366 263.563,749.723C270.903,760.331 282.773,769.541 280.916,784.09C279.06,798.644 258.058,818.349 247.052,799.688C245.409,796.902 244.1,793.727 243.408,790.563C238.732,769.167 257.586,750.006 254.659,727.88L254.551,726.705ZM480.753,768.251C465.997,784.778 446.627,792.087 424.721,792.976C415.368,793.355 400.681,793.999 400.815,780.647C400.923,769.964 418.678,761.867 425.337,755.516C433.394,747.832 439.217,738.022 446.609,729.699C448.857,727.169 451.362,724.442 452.837,721.362C456.094,714.558 458.538,688.464 471.492,695.891C474.393,697.554 476.887,700.233 478.743,702.989C480.157,705.088 481.396,707.441 482.132,709.867C487.058,726.087 470.436,729.647 469.987,743.314C469.716,751.561 478.133,756.236 478.577,764.242L480.753,768.251ZM241.696,740.392C238.975,750.834 231.701,772.003 220.247,776.777C210.61,780.794 199.77,776.956 191.386,771.842C189.293,770.566 185.224,769.075 183.874,766.794C179.997,760.243 187.035,749.63 192.82,748.118C199.13,746.47 207.743,750.186 214.441,749.77C222.796,749.25 229.786,744.644 237.706,742.633L241.696,740.392ZM444.966,695.028C442.765,708.408 435.288,717.404 429.28,728.742C425.363,736.132 421.587,744.421 414.136,748.926C408.409,752.389 400.804,750.397 395.409,753.738C389.039,757.683 386.057,765.508 379.206,768.754C374.938,770.776 368.88,766.682 365.235,764.786C355.368,759.654 342.041,754.076 341.392,740.985C340.855,730.131 347.111,714.611 358.062,710.76C365.387,708.184 372.385,709.668 379.105,705.125C385.176,701.019 392.132,697.315 397.573,692.375C402.071,688.292 404.071,682.027 408.636,678.158C418.67,669.655 432.704,673.523 440.098,683.016C442.835,686.53 445.624,690.258 447.657,694.24L444.966,695.028ZM638.821,658.336C629.993,678.486 623.133,696.974 622.69,719.27C622.527,727.48 620.827,737.803 629.911,741.512C636.879,744.357 644.337,744.104 651.471,742.133C657.247,740.537 664.016,737.106 669.984,739.938C675.078,742.355 678.649,747.158 683.415,750.13C690.439,754.51 698.29,757.2 705.814,760.546C712.514,763.526 717.803,767.004 725.481,764.508C743.181,758.755 757.768,741.029 771.718,729.114C773.891,727.258 784.839,719.638 783.455,715.583C781.333,709.367 771.454,708.885 766.253,708.533C753.88,707.696 741.543,708.442 729.163,708.283C724.159,708.218 716.71,707.59 713.765,702.723C709.161,695.115 710.716,683.078 710.65,674.618C710.631,672.171 710.667,669.719 710.764,667.273C710.819,665.893 712.336,662.915 710.974,663.136C706.883,663.8 702.938,669.387 699.308,671.439C693.024,674.992 683.172,676.544 675.863,675.418C670.179,674.542 665.253,668.928 662.739,664.011C662.048,662.661 661.557,658.645 660.377,657.939C655.642,655.106 648.45,659.27 643.671,660.426L638.821,658.336ZM758.303,758.855L758.324,758.844L758.301,758.856C758.189,758.914 758.093,758.978 758.014,759.047C758.102,758.975 758.199,758.91 758.303,758.855ZM279.982,716.1C283.032,721.541 289.366,723.406 292.323,728.391C294.619,732.261 293.463,736.454 292.262,740.466C291.412,743.303 290.48,746.12 289.691,748.976C289.273,750.488 290.162,754.31 288.767,753.59C279.259,748.686 274.397,738.213 273.992,728.267C273.855,724.883 273.483,719.115 276.604,716.796L279.982,716.1ZM490.426,751.4C508.837,751.4 524.282,751.662 528.486,729.798C529.208,726.044 529.211,722.457 528.516,718.69C527.777,714.685 527.104,709.04 524.34,705.724C519.664,700.113 509.295,695.641 502.951,692.112C501.849,691.499 496.353,689.886 495.266,691.179C490.789,696.508 496.044,706.552 496.36,712.674C497.1,727.001 492.137,735.325 488.819,748.319L490.426,751.4ZM554.236,677.214C549.518,678.382 546.857,683.417 544.602,687.277C539.22,696.491 534.446,704.053 542.272,713.544C545.549,717.519 550.739,719.797 553.372,724.292C556.376,729.42 553.067,741.531 560.644,742.618C569.642,743.908 575.523,734.458 580.15,728.369C583.639,723.778 589.719,722.189 593.464,717.674C599.956,709.848 600.819,699.914 604.298,690.654C606.666,684.351 614.775,670.896 605.572,666.419C595.239,661.392 582.731,669.853 573.394,673.794C568.379,675.912 563.675,679.935 558.445,676.233L554.236,677.214ZM905.597,646.128C905.626,646.551 905.748,646.944 905.959,647.267C906.314,647.81 906.943,648.351 908.161,648.389C908.301,648.394 908.442,648.381 908.579,648.353C911.812,647.674 914.55,647.15 916.647,646.83C916.663,646.929 916.685,647.028 916.714,647.127C916.877,647.688 917.353,648.416 918.466,649.032C918.861,649.251 919.325,649.31 919.762,649.196C920.55,648.992 925.711,648.243 928.669,647.821C928.393,648.137 928.182,648.346 928.182,648.346C927.738,648.787 927.56,649.432 927.717,650.038C927.873,650.645 928.34,651.123 928.942,651.294C929.96,651.583 930.864,651.661 931.681,651.585C931.495,652.193 931.217,652.897 930.862,653.689C930.762,653.913 930.71,654.155 930.709,654.4C930.705,655.066 930.947,655.552 931.296,655.92C931.592,656.233 931.997,656.475 932.525,656.579C932.946,656.661 933.535,656.635 934.173,656.496L933.523,658.501C933.268,658.605 933.035,658.769 932.847,658.99C932.276,659.66 932.287,660.648 932.872,661.305C933.192,661.665 933.806,662.039 934.724,662.111C935.956,662.208 938.251,661.769 939.763,661.323C940.248,662.717 939.61,663.83 938.646,665.965C938.4,666.51 938.447,667.143 938.771,667.646C939.095,668.148 939.652,668.452 940.25,668.453C941.178,668.455 942.089,668.364 942.964,668.098C943.017,668.178 943.055,668.262 943.077,668.353C943.153,668.675 943.012,669.013 942.812,669.392C942.033,670.863 940.212,672.494 937.738,674.312C937.183,674.72 936.917,675.415 937.057,676.09C937.196,676.765 937.717,677.296 938.389,677.45C940.031,677.826 941.447,677.887 942.648,677.676C942.44,678.045 942.182,678.411 941.886,678.773C940.6,680.351 938.63,681.831 936.359,683.291C935.798,683.652 935.489,684.299 935.56,684.962C935.631,685.625 936.071,686.191 936.696,686.425C937.77,686.826 938.756,686.918 939.643,686.673C939.604,686.972 939.519,687.298 939.4,687.651C938.806,689.422 937.407,691.658 935.37,694.297C934.977,694.807 934.893,695.49 935.15,696.08C935.408,696.67 935.967,697.072 936.608,697.13C936.791,697.146 936.971,697.158 937.147,697.164C936.082,698.474 934.618,700.038 933.094,701.643C932.617,702.146 932.479,702.882 932.741,703.524C933.004,704.166 933.618,704.594 934.311,704.618C934.584,704.628 934.856,704.63 935.128,704.624C933.087,706.135 930.522,707.813 927.97,709.49C927.223,709.98 926.962,710.951 927.36,711.75C927.483,711.996 927.632,712.218 927.807,712.416C926.761,712.793 925.54,713.205 924.157,713.651C923.439,713.883 922.948,714.546 922.936,715.3C922.924,716.055 923.394,716.733 924.104,716.988C924.724,717.21 925.324,717.378 925.907,717.499C924.463,718.145 922.728,718.849 920.752,719.606C919.891,719.936 919.43,720.875 919.695,721.759C919.85,722.275 920.126,722.736 920.56,723.11C918.063,724.18 914.579,725.622 911.389,726.764C910.726,727.001 910.268,727.609 910.223,728.311C910.184,728.934 910.475,729.524 910.979,729.873C905.403,733.18 895.898,738.167 888.554,740.499C887.585,738.519 887.56,735.535 885.602,734.623C882.874,733.352 873.374,726.062 870,721C868.506,718.759 878.5,719 878.5,719C878.5,719 873.154,712.966 874,713C881.295,715.883 898.967,723.219 904.885,725.149C905.787,725.443 906.76,724.971 907.086,724.081C907.413,723.19 906.977,722.201 906.099,721.842C897.766,718.434 871.129,707.021 868.898,705.367C867.047,703.994 853.818,698.545 853,697C852.154,695.401 859.669,690.853 860,691C877.926,697.217 901.225,705.461 917.258,709.926C918.189,710.185 919.154,709.647 919.424,708.719C919.693,707.792 919.166,706.82 918.241,706.541C899.61,700.907 880.741,695.559 864.422,687.231C868.731,684.642 873.115,682.089 877.556,679.563C893.706,686.539 909.57,691.271 925.416,695.847C926.332,696.112 927.293,695.6 927.584,694.691C927.875,693.783 927.39,692.808 926.491,692.491C911.985,687.381 897.498,682.238 883.516,676.205C888.659,673.335 893.865,670.496 899.107,667.674C909.672,672.208 920.464,675.782 931.226,679.484C932.134,679.796 933.125,679.324 933.455,678.421C933.784,677.519 933.33,676.519 932.434,676.172C922.932,672.503 913.27,668.945 904.467,664.799C910.182,661.746 915.927,658.707 921.668,655.667C922.511,655.22 922.846,654.185 922.424,653.33C922.003,652.475 920.978,652.11 920.111,652.506C913.973,655.308 907.759,658.191 901.448,661.174C901.408,657.496 901.747,653.657 902.121,649.801C902.21,648.874 901.564,648.037 900.645,647.89C899.726,647.743 898.851,648.335 898.646,649.244C897.571,654.026 896.629,658.812 896.326,663.608C890.917,666.19 885.434,668.851 879.864,671.601C880.027,666.321 880.892,660.909 881.743,655.497C881.889,654.569 881.282,653.689 880.362,653.498C879.442,653.306 878.533,653.869 878.296,654.779C876.606,661.265 874.988,667.774 874.042,674.494C869.362,676.832 864.618,679.237 859.804,681.715C857.793,674.157 857.501,666.222 857.222,658.283C857.213,658.021 857.147,657.774 857.036,657.554C857.133,656.946 857.234,656.368 857.338,655.842C857.456,655.246 857.649,654.576 857.761,654.208L857.769,654.203C861.316,651.731 865.258,649.641 870.317,648.651C870.494,649.48 871.095,650.385 872.368,651.208C872.937,651.576 873.666,651.585 874.244,651.232C879.184,648.215 883.817,646.276 887.981,646.483C888.034,646.829 888.15,647.17 888.322,647.505C888.703,648.245 889.55,648.618 890.353,648.399C895.447,647.011 900.77,646.189 905.597,646.128ZM179.657,700.756C180.144,709.285 186.405,726.17 179.845,733.849C176.031,738.312 168.533,735.979 163.912,734.545C151.524,730.699 137.924,719.966 134.839,706.556C132.076,694.551 138.118,685.255 144.045,675.455C145.869,672.441 147.381,667.382 150.821,665.755C156.127,663.247 163.443,665.147 169.155,665.298C171.505,665.361 181.009,663.028 182.885,664.589C185.395,666.678 185.043,672.933 184.131,675.721C181.121,684.929 176.018,689.317 179.657,700.756ZM261.384,703.65C249.241,709.155 244.754,720.229 235.239,727.816C228.804,732.946 218.998,734.519 211.09,735.346C206.87,735.788 199.664,737.427 195.71,735.296C187.748,731.006 203.069,719.118 201.776,714.68C200.551,710.477 195.208,708.114 192.656,704.696C187.744,698.118 186.948,678.133 198.02,676.35C208.098,674.728 215.641,694.273 223.433,699.226C234.111,706.015 248.194,701.882 260.019,702.406L261.384,703.65ZM319.434,703.298C322.699,707.72 335.807,716.926 333.392,723.617C332.585,725.854 328.922,725.585 327.087,725.448C321.292,725.015 314.438,723.792 308.852,722.243C297.04,718.966 291.353,705.567 282.512,698.507C277.656,694.629 271.015,694.211 265.571,691.44C260.414,688.816 256.465,683.144 253.768,678.148C252.145,675.144 251.341,671.746 250.804,668.398C250.711,667.821 248.381,654.605 249.673,654.076C252.308,652.995 255.696,654.71 258.079,655.718C263.698,658.096 269.52,659.755 275.145,661.974C292.692,668.895 308.465,684.484 317.562,700.636L319.434,703.298ZM383.129,680.088C379.275,688.343 371.312,691.249 363.783,695.478C358.334,698.54 352.661,702.202 346.36,703.139C340.752,703.972 331.067,702.841 329.028,696.278C327.386,690.993 331.267,683.441 334.387,679.426C336.606,676.571 339.51,674.356 342.495,672.362C347.62,668.94 353.418,667.171 358.697,664.116C365.11,660.404 370.174,654.474 378.294,655.484C381.006,655.822 386.687,656.313 388.85,658.372C394.575,663.82 390.354,674.644 384.852,678.774L383.129,680.088ZM125.117,618.211C129.109,630.571 137.7,638.271 133.859,652.446C129.464,668.666 122.998,680.546 111.284,692.614C108.013,695.984 102.909,702.772 97.399,701.066C92.765,699.632 88.92,694.953 85.567,691.758C72.009,678.841 65.009,660.173 59,642.869C58.412,641.177 57.88,639.469 57.38,637.749C56.025,633.087 55.179,628.229 55.156,623.364C55.154,622.886 54.972,619.325 55.324,619.172C60.82,616.774 67.874,624.225 71.94,626.934C75.119,629.052 78.49,630.722 81.993,632.234C93.319,637.12 125.085,642.704 126.055,621.25L125.117,618.211ZM768.957,627.906C774.292,643.406 785.43,654.963 792.729,669.367C795.542,674.919 799.035,683.72 797.518,690.183C792.89,709.908 773.233,689.339 764.105,688.657C755.023,687.979 741.145,697.035 736.085,685.365C729.138,669.343 733.773,646.196 745.039,633.709C751.382,626.677 759.576,617.483 768.765,625.956L768.957,627.906ZM849.342,648.521C849.342,655.909 850.528,664.569 848.487,671.745C846.832,677.569 842.735,682.458 838.251,686.39C833.218,690.802 825.855,696.853 818.574,694.62C806.665,690.968 802.391,662.232 806.339,651.374C807.877,647.145 812.386,644.63 816.105,642.595C828.033,636.068 838.104,636.349 846.493,647.644L849.342,648.521ZM853,674C850.992,677.788 848.271,681.445 845,685L855,687.5C853.843,682.946 853.079,678.435 853,674ZM229.851,657.228C220.268,664.087 222.365,668.244 229.01,676.953C230.413,678.792 231.831,680.705 233,682.707C233.607,683.748 233.682,686.78 234.569,685.964C235.997,684.651 236.134,680.238 236.421,678.443C237.137,673.957 242.76,653.078 231.767,654.759L229.851,657.228ZM454.6,658.443C449.154,650.363 443.349,660.122 443.73,667.061C444.049,672.866 449.833,677.467 454.589,679.841C456.706,680.898 460.482,682.849 463.068,682.258C478.617,678.708 469.955,657.87 458.311,655.565L454.6,658.443ZM537.489,622.664C537.489,635.978 536.597,652.501 525.904,661.987C512.644,673.749 486.062,678.123 480.166,655.477C475.756,638.542 484.268,623.147 492.786,609.031C495.419,604.667 498.89,596.521 504.837,595.741C515.503,594.341 531.014,614.181 535.29,622.681L537.489,622.664ZM311.648,658.147C322.057,679.103 344.869,658.794 356.534,647.942C366.103,639.04 374.703,628.511 385.375,620.85C393.059,615.334 405.846,609.424 409.375,599.838C413.291,589.196 408.985,577.743 407.419,567.222C406.476,560.884 407.061,554.451 407.72,548.121C407.787,547.48 408.67,542.603 408.048,542.047C405.98,540.197 402.481,542.275 400.819,543.657C397.404,546.497 393.711,555.101 389.429,556.786C383.881,558.968 376.479,557.834 370.662,557.847C370.172,557.848 364.925,557.554 364.902,557.62C363.6,561.424 367.377,566.323 369.429,569.2C374.478,576.278 384.854,584.055 384.777,593.419C384.684,604.683 365.265,611.376 357.379,616.692C348.632,622.589 347.347,631.218 341.485,638.796C334.458,647.878 325.668,652.957 315.378,657.315L311.648,658.147ZM686.691,633.542C683.643,635.129 681.162,637.834 679.532,640.849C678.248,643.224 676.273,646.908 676.152,649.708C675.591,662.639 695.863,662.152 702.205,657.464C706.909,653.988 710.554,650.686 706.099,645.26C704.6,643.435 702.701,641.94 700.806,640.547C696.84,637.632 691.966,637.208 688.04,634.668L686.691,633.542ZM710.567,573.867C710.567,584.367 711.78,595.654 710.156,606.078C709.812,608.285 709.583,614.244 707.136,615.56C703.299,617.622 697.475,616.166 693.324,616.749C687.227,617.606 681.115,619.842 675.685,622.715C669.301,626.093 656.999,639.839 650.036,640.239C643.951,640.588 636.572,637.082 631.512,633.738C627.811,631.291 625.162,627.305 620.356,628.69C614.042,630.51 608.433,635.423 602.305,637.955C593.486,641.599 585.117,641.648 576.663,647.013C574.227,648.559 557.919,664.552 557.591,658.817C556.471,639.271 581.767,630.065 595.108,622.987C611.267,614.415 620.81,601.18 634.702,589.904C646.456,580.363 660.91,573.488 675.387,569.266C682.181,567.285 701.274,558.631 707.033,565.953C709.855,569.541 709.631,574.334 710.407,578.588L710.567,573.867ZM148.179,578.54C146.067,579.328 144.081,580.637 142.252,581.944C137.238,585.528 133.233,591.499 135.147,597.957C136.21,601.545 138.75,604.448 140.095,607.917C142.099,613.086 143.825,619.27 144.69,624.777C146.021,633.247 144.161,646.978 152.439,652.771C157.15,656.067 163.956,654.23 169.102,653.601C177.685,652.553 185.641,648.493 194.146,647.885C204.898,647.116 212.899,651.458 223.457,646.19C228.777,643.535 233.368,639.78 238.094,636.224C238.643,635.81 242.095,633.158 241.917,632.456C241.451,630.615 236.273,629.642 234.701,629.099C227.804,626.72 221.687,622.61 215.313,619.154C212.017,617.368 208.164,615.163 206.161,611.849C204.04,608.339 201.355,600.951 197.55,598.967C194.282,597.264 187.033,598.636 183.418,598.037C169.954,595.808 157.676,591.849 148.577,581.116L148.179,578.54ZM259.293,624.666C251.212,632.877 270.347,645.729 276.81,648.574C279.331,649.683 281.968,650.474 284.623,651.194C286.012,651.57 288.659,653.82 288.772,652.386C288.979,649.748 285.71,646.365 284.142,644.513C282.837,642.972 281.369,641.594 279.91,640.203C277.003,637.43 273.982,634.763 271.18,631.885C266.956,627.547 264.012,626.202 258.618,623.23L259.293,624.666ZM382.197,642.957C396.675,633.282 407.939,622.477 418.386,608.476C425.676,598.706 428.911,586.686 441.301,581.616C451.054,577.625 457.702,581.874 467.047,582.805C469.332,583.032 475.142,582.986 476.258,585.407C481.278,596.301 465.517,611.865 458.503,617.676C447.345,626.918 433.815,642.821 419.212,646.065C414.677,647.072 411.37,643.181 407.177,643.832C400.093,644.932 392.046,648.293 384.923,645.152L382.197,642.957ZM366.98,587.764C363.413,580.707 358.79,576.202 354.058,569.895C347.767,561.511 341.95,552.63 334.349,545.336C330.038,541.198 321.591,535.621 315.317,538.514C304.976,543.281 307.407,557.398 300.079,564.072C289.423,573.775 268.588,587.438 269.792,603.888C270.478,613.253 278.948,620.051 285.574,625.76C295.686,634.472 304.014,647.333 318.698,640.066C321.554,638.653 324.143,636.634 326.621,634.649C337.912,625.603 356.907,597.844 366.98,587.764ZM871.297,589.897C869.327,596.254 868.157,603.504 864.716,609.313C861.618,614.545 855.769,618.99 853.841,624.852C851.893,630.776 858.741,642.571 865.928,638.891C882.634,630.337 884.53,599.925 872.778,587.083L871.297,589.897ZM797.443,624.036C797.943,630.287 794.404,628.778 789.259,625.869C782.689,622.155 778.331,616.374 770.685,614.47C761.365,612.15 751.439,611.946 741.882,611.845C741.491,611.841 732.8,612.513 732.444,611.612C729.539,604.262 743.678,594.56 750.29,595.426C757.363,596.352 763.994,600.547 770.526,603.141C782.168,607.765 792.317,610.274 798.925,622.183L797.443,624.036ZM102.787,597.098C111.655,606.299 115.937,622.406 98.237,623.539C95.328,623.725 92.47,623.16 89.663,622.439C72.121,617.938 59.007,605.338 53.329,588.017C52.055,584.129 47.905,570.614 51.317,566.824C59.115,558.163 67.061,565.045 75.122,569.809C78.392,571.741 82.11,569.624 85.344,571.402C90.6,574.291 100.011,588.498 101.674,594.81L102.787,597.098ZM549.067,564.002C554.236,569.903 559.031,575.68 562.182,582.946C565.699,591.06 572.164,621.506 552.65,613.158C541.749,608.495 538.447,598.784 530.405,591.807C526.161,588.124 519.947,588.175 515.529,584.931C504.541,576.864 508.075,566.49 520.296,563.943C523.904,563.191 527.41,562.607 531.095,562.298C537.832,561.734 543.127,562.171 549.554,564.61L549.067,564.002ZM758.561,508.494C754.864,525.111 741.469,531.529 733.876,545.539C731.165,550.54 727.642,558.332 729.508,564.268C730.674,567.979 732.865,571.027 735.594,573.765C751.033,589.259 766.613,580.443 784.31,587.544C794.315,591.559 800.022,600.918 808.769,606.601C815.577,611.024 824.249,611.965 832.171,612.244C837.924,612.447 845.752,611.466 849.862,606.853C866.675,587.981 850.055,566.824 830.806,558.625C824.61,555.986 816.796,557.214 811.247,553.094C804.793,548.304 801.084,540.02 795.404,534.251C784.73,523.41 773.376,516.161 759.901,509.475L758.561,508.494ZM242.73,558.213C227.987,559.033 217.766,577.489 217.449,590.561C217.317,595.973 218.275,607.079 225.266,608.396C230.067,609.301 234.364,604.661 237.166,601.412C240.312,597.763 245.614,593.254 247.144,588.461C248.632,583.801 248.05,578.601 248.249,573.781C248.519,567.255 251.206,562.118 244.278,558.563L242.73,558.213ZM577.335,554.764C575.106,562.026 570.893,568.758 570.623,576.529C570.222,588.03 584.697,606.845 597.279,603.292C606.061,600.812 611.191,591.66 617.92,586.196C626.248,579.433 636.14,575.836 645.492,570.718C654.46,565.809 663.833,561.821 673.313,558.025C677.465,556.362 684.706,554.269 687.133,550.04C695.854,534.841 676.724,514.112 664.981,506.769C662.149,504.998 654.672,499.467 651.066,500.599C647.343,501.768 645.334,507.251 643.648,510.358C639.982,517.109 634.858,524.517 629.536,530.068C614.465,545.79 596.597,551.204 576.256,554.569L577.335,554.764ZM876.924,558.39C875.452,559.061 874.428,560.405 873.522,561.694C866.767,571.304 879.813,571.02 883.672,578.138C885.059,580.697 888.199,591.899 890.34,592.619C892.882,593.474 897.874,586.128 898.869,584.671C903.046,578.555 914.117,566.252 908.525,557.895C903.97,551.088 898.375,558.428 893.464,559.758C890.14,560.659 885.024,559.93 881.654,559.628L876.924,558.39ZM94.543,515.025C102.205,530.492 98.979,545.168 102.496,561.559C103.894,568.073 106.38,577.484 112.815,581C119.561,584.686 126.602,575.828 129.376,570.768C136.002,558.681 136.776,551.392 135.937,537.291C135.706,533.42 135.764,526.629 132.981,523.282C127.603,516.812 117.594,522.818 111.118,523.693C106.355,524.336 99.822,519.86 96.62,516.723L94.543,515.025ZM210.796,555.455C204.576,565.411 198.638,579.708 185.492,581.704C178.979,582.693 172.622,579.176 167.617,575.428C153.509,564.865 149.098,547.896 146.791,530.917C146.169,526.336 143.837,515.706 145.842,510.71C150.652,498.731 167.775,502.251 177.771,501.158C183.916,500.487 191.225,497.888 193.471,505.519C195.801,513.434 194.756,521.96 197.006,529.974C199.449,538.671 204.916,544.87 208.78,552.758L210.796,555.455ZM431.181,571.582C441.213,571.582 448.632,566.634 458.236,566.247C467.971,565.854 479.925,572.481 488.686,565.644C498.632,557.881 493.573,544.37 489.897,534.989C486.176,525.494 483.284,516.301 474.961,509.574C467.67,503.681 456.221,503.282 447.552,501.303C439.274,499.414 431.217,495.847 422.902,494.305C421.817,494.104 420.19,496.977 419.857,497.655C418.076,501.274 416.791,505.94 417.039,510.011C417.277,513.903 418.96,517.519 419.268,521.426C419.687,526.723 418.051,532.325 417.914,537.646C417.736,544.505 418.98,551.242 419.092,558.099C419.21,565.284 418.595,575.986 429.677,574.2L431.181,571.582ZM268.041,554.905C267.758,558.764 266.879,562.566 266.619,566.419C265.755,579.223 286.213,570.375 276.415,560.057C274.985,558.552 273.338,557.224 271.493,556.262L268.041,554.905ZM82.577,526.124C72.89,525.8 65.944,526.746 58.678,533.752C53.311,538.926 49.444,542.095 57.877,547.167C59.857,548.357 61.956,549.254 64.083,550.141C66.988,551.352 70.174,552.519 73.366,552.622C81.144,552.874 98.429,530.624 85.623,525.009L82.577,526.124ZM296.894,550.415C290.763,550.415 287.589,547.8 282.455,545.287C280.653,544.405 278.154,544.036 277.524,541.776C277.036,540.027 278.845,537.129 279.098,535.392C279.309,533.95 278.596,530.423 279.977,529.269C281.91,527.652 284.923,529.025 286.957,529.653C289.463,530.428 292.45,531.03 294.427,532.882C298.066,536.293 297.076,543.316 297.113,548.005L296.894,550.415ZM570.784,541.742C564.633,536.375 558.631,530.93 552.492,525.56C550.911,524.178 548.312,519.765 545.964,519.652C543.766,519.547 541.07,521.694 539.175,522.603C533.344,525.399 527.434,529.094 521.32,531.091C516.928,532.526 512.403,533.085 507.803,533.204C507.101,533.222 503.769,532.763 503.634,533.71C502.828,539.381 514.123,545.546 518.503,547.062C529.514,550.875 542.61,550.804 554.007,549.185C559.703,548.376 565.576,547.903 570.538,544.768L570.784,541.742ZM864.717,489.532C850.232,492.047 833.897,508.407 829.155,522.359C823.626,538.623 837.051,549.043 852.019,548.424C880.408,547.251 898.583,496.102 865.078,489.483L864.717,489.532ZM220.749,441.699C202.956,448.43 204.724,471.837 204.706,487.551C204.7,492.801 204.534,498.086 205.257,503.301C205.936,508.195 206.998,512.966 208.091,517.779C209.576,524.315 211.484,530.704 213.497,537.094C213.757,537.918 214.519,542.635 215.614,542.906C218.363,543.586 221.151,540.745 222.708,538.934C226.845,534.122 229.661,528.048 232.349,522.338C234.73,517.28 236.886,512.147 238.243,506.711C240.497,497.687 239.726,488.199 237.955,479.171C236.145,469.948 232.509,461.629 228.942,453.045C227.75,450.176 227.066,445.986 224.945,443.562L220.749,441.699ZM919.03,483.651C919.499,500.031 919.702,519.844 910.194,534.188C907.366,538.455 896.592,545.555 891.674,541.704C889.843,540.27 890.487,536.496 890.671,534.643C891.297,528.358 894.352,522.722 895.527,516.596C896.176,513.215 896.77,509.268 895.51,505.966C895.105,504.902 892.262,501.341 892.932,500.663C898.861,494.657 908,492.584 914.182,486.409L919.03,483.651ZM269.738,501.305C269.738,514.869 268.787,525.138 261.152,536.947C254.948,546.545 244.506,542.067 243.002,531.394C241.491,520.664 250.001,507.019 254.698,497.684C255.452,496.185 258.836,488.714 260.98,488.783C265.767,488.937 266.574,494.471 268.496,497.79L269.738,501.305ZM409.924,497.706C405.599,504.71 404.551,512.444 400.796,519.472C395.199,529.947 383.979,535.844 372.794,538.386C368.133,539.446 363.447,540.748 358.674,541.206C358.288,541.243 354.995,541.887 354.715,541.243C352.581,536.327 364.104,528.533 366.666,525.045C369.93,520.601 372.5,515.143 374.417,509.981C375.134,508.051 375.364,503.872 376.899,502.426C378.971,500.473 387.037,503.722 389.636,504.093C396.325,505.046 402.18,501.916 408.135,499.329L409.924,497.706ZM629.811,490.771C626.88,507.654 621.072,520.727 605.884,529.573C601.64,532.045 596.151,534.857 591.025,534.629C581.676,534.214 572.821,527.795 565.48,522.406C564.948,522.016 558.52,517.26 559.044,516.438C560.274,514.509 563.976,513.761 566.047,512.983C573.761,510.085 580.685,510.868 588.417,509.067C598.457,506.727 606.22,497.731 614.848,492.656C619.144,490.129 624.003,489.351 628.833,488.62L629.811,490.771ZM355.961,499.405C349.375,506.159 342.105,515.276 334.583,520.93C319.187,532.5 292.11,524.232 283.98,507.319C279.588,498.182 283.411,480.343 294.01,476.807C299.301,475.042 304.391,475.928 309.814,476.313C318.181,476.908 326.37,476.732 334.62,478.513C347.43,481.278 349.926,485.503 355.395,496.39L355.961,499.405ZM833.857,455.813C815.966,462.318 800.644,472.162 791.597,489.629C786.005,500.428 782.979,516.691 799.135,518.955C802.228,519.389 805.489,519.222 808.596,518.881C812.836,518.417 815.77,513.666 817.817,510.47C822.481,503.187 826.494,495.479 831.682,488.538C836.949,481.489 843.72,476.195 850.194,470.385C850.647,469.979 856.333,466.522 856.224,465.907C855.254,460.42 841.046,458.754 835.59,456.941L833.857,455.813ZM552.334,491.996C544.126,505.851 522.103,522.969 505.124,517.852C496.535,515.264 491.375,506.544 484.334,501.579C473.027,493.606 462.681,496.354 461.405,480.071C461.202,477.476 461.148,474.992 461.932,472.484C466.394,458.209 480.898,469.241 491.542,469.643C498.389,469.901 504.9,468.274 511.401,466.435C513.152,465.94 520.329,471.307 522.895,471.751C533.964,473.668 547.821,468.492 551.242,483.397C551.849,486.043 552.029,488.768 552.146,491.473L552.334,491.996ZM825.609,441.957C818.102,444.346 808.441,448.06 802.876,454.113C792.623,465.264 790.073,481.214 779.466,491.492C773.855,496.929 766.84,496.547 759.749,498.525C752.699,500.492 745.829,503.411 738.893,505.763C730.548,508.592 721.967,511.045 713.526,513.591C712.61,513.868 705.788,516.061 704.988,514.605C703.882,512.595 707.462,508.466 708.564,507.196C714.053,500.867 721.826,496.417 729.73,493.852C740.25,490.438 750.58,488.297 759.255,480.77C778.197,464.335 796.993,426.034 828.259,437.589L825.609,441.957ZM127.468,457.456C126.643,467.6 118.913,475.442 114.901,484.342C113.297,487.898 108.729,500.428 111.058,504.596C115.261,512.116 130.215,503.01 133.038,498.036C136.493,491.946 136.09,483.013 135.334,476.454C134.718,471.114 133.615,461.888 130.991,457.052L127.468,457.456ZM112.794,458.197C111.761,466.549 109.51,474.721 106.479,482.563C104.326,488.134 101.393,492.679 96.986,496.781C92.793,500.683 86.714,506.663 80.493,506.9C58.851,507.723 56.344,477.508 68.803,465.817C74.253,460.704 81.518,457.427 88.479,454.914C95.513,452.375 102.911,451.069 110.033,453.678L112.794,458.197ZM688.303,475.096C685.211,477.424 682.111,479.865 679.26,482.492C671.332,489.796 675.633,505.864 687.953,503.734C698.39,501.929 699.164,482.164 690.964,477.102L688.303,475.096ZM575.664,406.533C576.467,417.904 581.338,431.629 575.43,442.222C570.642,450.808 556.296,456.196 554.547,465.842C553.577,471.193 558.678,475.088 560.478,479.7C562.343,484.474 561.847,493.599 565.784,497.317C568.926,500.283 577.844,498.522 581.277,496.444C590.27,491 598.996,485.01 608.136,479.817C613.171,476.957 619.193,475.181 622.662,470.212C628.675,461.595 627.157,447.793 627.298,437.904C627.353,433.981 629.214,429.495 627.381,425.8C620.758,412.452 608.988,409.42 596.087,404.73C594.101,404.008 588.613,399.706 587.144,399.749C583.65,399.851 581.473,403.501 578.657,405.058L575.664,406.533ZM403.542,427.548C413.403,440.186 411.999,457.804 403.872,470.491C400.35,475.989 396.004,480.942 391.56,485.696C389.994,487.37 385.745,490.372 389.436,491.097C403.584,493.873 411.271,480.323 418.285,470.964C423.613,463.855 429.858,457.782 434.956,450.485C436.634,448.083 439.338,446.31 440.132,443.382C444.889,425.833 415.331,421.812 404.007,425.655L403.542,427.548ZM146.707,405.452C143.173,420.538 140.206,434.609 140.464,450.216C140.578,457.166 142.11,464.517 145.692,470.527C154.208,484.818 180.636,495.394 191.572,476.993C194.506,472.056 192.897,465.512 192.799,460.026C192.756,457.607 194.463,449.468 193.371,447.583C190.473,442.583 178.907,442.79 174.384,439.214C163.696,430.765 155.156,417.795 148.361,405.972L146.707,405.452ZM379.833,421.445C382.726,437.088 381.41,448.902 378.511,465.014C377.518,470.528 376.089,476 374.449,481.353C374.377,481.588 372.681,486.204 373.004,486.411C373.777,486.908 376.592,484.938 377.214,484.516C381.153,481.85 384.241,477.575 387.248,473.915C396.082,463.163 399.046,443.859 393.004,431.268C391.299,427.715 378.636,411.675 379.833,421.445ZM711.428,368.511C715.135,375.705 719.464,380.557 720.202,388.596C721.206,399.544 716.24,404.602 712.401,414.026C706.486,428.545 706.019,444.324 691.705,453.381C680.398,460.535 671.035,470.219 659.704,477.122C653.796,480.722 648.234,484.085 644.506,476.203C635.513,457.191 644.062,442.426 658.944,430.608C664.609,426.11 669.927,420.849 675.937,416.839C681.959,412.823 689.232,410.646 694.845,406.034C703.644,398.804 711.41,383.419 710.579,371.376L711.428,368.511ZM759.264,433.919C739.77,433.348 727.803,436.606 715.03,452.422C711.625,456.638 697.883,476.961 707.746,478.526C712.773,479.324 717.483,476.849 722.301,475.958C735.099,473.593 748.935,471.926 757.591,460.591C761.821,455.052 769.841,437.533 760.105,432.716L759.264,433.919ZM921.758,423.004C904.131,431.41 887.253,443.605 876.491,460.383C866.603,475.797 888.812,481.573 901.134,476.621C914.298,471.33 921.389,452.519 926.245,440.293C928.378,434.923 935.364,424.404 924.546,425.223L921.758,423.004ZM244.207,444.185C244.832,452.034 246.832,459.847 247.925,467.655C248.11,468.981 247.995,474.622 248.924,475.193C252.169,477.187 260.356,473.763 264.379,473.736C268.341,473.709 276.971,476.529 279.442,472.187C281.638,468.329 278.842,462.476 276.952,459.013C270.132,446.515 261.303,441.78 247.427,442.695L244.207,444.185ZM275.974,434.424C288.437,452.425 313.49,467.81 336.141,464.449C342.882,463.449 348.719,459.867 354.486,456.478C357.884,454.481 361.86,452.73 364.645,449.867C368.561,445.843 368.602,439.392 368.269,434.137C367.537,422.597 365.047,414.025 355.299,406.972C353.722,405.831 351.957,403.827 350.036,403.243C348.811,402.871 345.659,407.122 344.918,407.975C339.592,414.104 337.625,419.966 330.144,424.734C320.48,430.894 284.012,435.711 275.974,434.424ZM562.724,407.095C557.441,407.245 552.585,406.668 547.647,404.686C542.964,402.807 538.564,399.277 533.195,400.308C517.635,403.295 514.381,414.678 513.28,428.444C512.443,438.901 513.102,449.028 522.676,455.533C529.19,459.959 539.434,458.107 545.197,453.316C547.791,451.16 549.332,447.945 551.311,445.266C557.783,436.511 565.333,421.242 563.186,409.875L562.724,407.095ZM513.252,397.796C503.927,398.125 493.253,401.042 484.067,398.46C477.624,396.649 471.721,393.189 465.294,391.356C462.435,390.54 460.414,389.078 457.683,391.158C451.156,396.131 450.621,406.774 450.36,414.193C449.92,426.719 458.421,444.458 469.37,451.343C477.896,456.703 494.568,458.052 504.008,453.015C504.92,452.529 504.202,448.759 504.046,447.988C502.868,442.165 500.319,437.228 500.11,431.075C499.83,422.862 502.667,414.242 507.094,407.346C508.74,404.782 511.287,402.867 512.814,400.281L513.252,397.796ZM861.38,449.957C877.559,430.602 899.193,416.681 915.368,397.058C919.078,392.557 928.897,384.628 929.149,378.256C929.462,370.374 916.187,363.841 909.375,364.185C896.342,364.842 890.778,374.641 879.384,379.075C867.249,383.798 856.496,380.79 844.96,388.185C839.467,391.706 834.451,395.974 829.054,399.654C828.577,399.979 824.626,402.274 824.661,402.91C824.759,404.701 828.31,406.893 829.581,407.713C834.496,410.88 840.898,413.013 844.378,418.014C847.667,422.739 846.127,428.598 844.142,433.492C843.538,434.979 840.794,439.375 841.554,441.158C843.681,446.144 853.054,445.227 856.989,449.016L861.38,449.957ZM813.733,419.248C801.275,422.955 792.547,435.698 780.299,438.733C779.109,439.028 777.626,435.085 777.445,434.525C776.255,430.846 776.506,425.761 777.913,422.086C782.678,409.642 807.505,409.12 814.065,419.535L813.733,419.248ZM125.703,377.739C108.565,377.739 103.254,396.437 103.013,410.365C102.85,419.84 103.458,428.012 113.074,432.454C122.558,436.836 127.958,425.906 130.246,418.569C135.14,402.88 138.585,391.732 125.82,378.609L125.703,377.739ZM274.615,375.87C251.701,375.87 229.786,386.804 211.724,400.389C206.603,404.241 205.996,412.642 204.653,418.345C204.119,420.616 202.675,424.808 204.463,426.83C210.95,434.167 227.738,431.83 235.807,429.751C245.205,427.33 258.146,424.072 265.196,416.885C275.188,406.701 276.342,390.09 275.557,376.624L274.615,375.87ZM184.86,352.215C178.092,352.215 171.132,353.767 164.368,353.149C158.515,352.615 153.08,349.946 147.128,349.508C143.165,349.217 137.846,348.594 135.744,352.824C133.096,358.155 133.911,364.394 136.708,369.443C140.979,377.152 148.786,381.22 154.238,387.673C160.614,395.22 164.748,404.366 171.095,412.026C173.224,414.595 181.219,428.831 185.028,427.881C194.958,425.405 195.832,414.934 196.018,406.547C196.256,395.805 191.609,386.784 188.948,376.648C186.976,369.138 187.051,361.69 186.737,354L184.86,352.215ZM379.833,421.445L379.804,421.288L379.838,421.489C379.896,421.949 379.984,422.466 380.106,423.043L379.837,421.479L379.833,421.445ZM330.064,342.906C323.925,344.062 318.08,345.842 312.368,348.392C308.457,350.139 304.501,351.779 300.586,353.515C296.188,355.467 288.117,358.381 285.339,362.896C283.864,365.293 285.974,369.673 286.285,372.27C287.109,379.148 287.368,386.945 286.548,393.796C285.811,399.959 284.652,406.242 283.353,412.312C282.773,415.025 281.054,418.49 284.002,420.215C292.564,425.222 304.669,419.648 312.456,415.797C319.527,412.299 328.466,409.134 333.4,402.626C337.211,397.599 338.269,391.101 338.625,384.974C339.377,372.024 336.072,354.708 330.064,342.906ZM623.984,343.528C621.05,353.24 619.969,363.859 615.439,373.024C612.932,378.095 607.462,382.225 610.541,388.102C612.156,391.185 614.713,393.684 617.304,395.951C621.945,400.012 628.348,402.46 632.311,407.248C634.831,410.293 637.986,418.462 642.059,419.406C649.829,421.206 658.207,414.371 663.485,409.459C665.628,407.465 668.879,405.455 668.459,402.131C667.375,393.549 656.95,386.488 650.525,381.845C639.092,373.582 626.351,363.959 624.237,348.829L623.984,343.528ZM411.527,378.647C400.182,383.766 392.465,389.399 382.891,397.422C380.513,399.415 376.971,407.252 374.08,407.931C371.929,408.436 368.958,405.955 367.465,404.753C360.821,399.405 359.981,391.707 357.437,384.1C356.727,381.977 355.903,379.898 354.898,377.896C354.775,377.651 353.338,375.093 353.414,375.034C357.808,371.647 369.781,379.225 373.976,380.239C387.499,383.509 399.723,376.573 412.938,377.848L411.527,378.647ZM830.463,368.029C831.469,369.766 835.144,373.429 835.079,375.645C834.99,378.685 831.149,380.924 828.875,382.355C822.755,386.208 818.335,392.053 811.843,395.308C805.673,398.401 798.763,399.748 792.05,401.141C773.457,404.999 748.657,408.959 732.006,396.607C729.887,395.035 737.888,394.237 738.707,394.223C745.726,394.1 754.897,398.025 760.837,392.692C769.462,384.947 773.5,373.534 784.323,367.826C799.358,359.897 813.22,367.166 828.354,368.318L830.463,368.029ZM449.601,350.432C440.635,352.372 432.225,359.679 423.803,363.386C423.152,363.673 415.691,366.027 415.65,366.201C415.486,366.89 418.517,369.072 419.068,369.489C423.151,372.581 428.056,373.476 424.905,379.496C422.282,384.509 416.925,387.16 412.385,390.128C412.136,390.291 406.118,394.11 406.131,394.129C406.942,395.301 410.089,395.531 411.334,395.648C416.383,396.125 421.764,394.78 426.483,393.014C443.528,386.635 453.143,371.875 450.955,353.482L449.601,350.432ZM539.29,388.29C555.141,397.517 573.549,396.405 587.229,383.165C592.656,377.913 596.76,370.208 599.972,363.43C603.988,354.955 612.006,338.498 603.462,329.77C598.761,324.967 588.033,325.852 581.833,325.76C575.529,325.668 568.024,325.325 561.993,327.458C546.22,333.035 541.104,351.534 538.708,366.545C537.772,372.413 535.069,382.086 538.341,387.738L539.29,388.29ZM536.51,336.553C534.141,328.762 525.677,325.185 518.702,322.722C513.704,320.957 508.205,319.783 502.876,320.14C499.339,320.376 495.767,321.358 492.447,322.572C487.472,324.39 483.626,327.115 479.213,329.927C471.839,334.627 461.919,339.598 460.246,349.15C459.643,352.596 459.327,356.655 459.689,360.15C460.131,364.412 460.71,369.658 463.036,373.401C470.486,385.39 490.526,385.089 502.818,385.151C508.092,385.178 513.319,384.437 518.588,384.324C520.342,384.286 523.542,384.649 525.091,383.542C529.964,380.062 528.255,367.461 528.358,362.693C528.545,354.019 532.233,345.97 535.309,338.009L536.51,336.553ZM671.943,310.567C664.585,310.821 647.207,311.527 642.255,317.927C628.299,335.963 651.531,357.147 662.957,368.987C667.065,373.244 670.474,379.827 676.312,381.951C682.946,384.364 691.613,378.707 693.724,372.429C697.115,362.347 695.515,349.941 690.45,340.652C684.855,330.392 675.593,321.794 670.698,311.384L671.943,310.567ZM269.854,363.096C269.854,352.218 271.57,337.108 266.572,327.055C263.955,321.791 259.187,313.889 253.955,310.617C238.901,301.201 216.568,304.692 206.288,318.833C196.081,332.872 197.288,351.539 205.529,366.005C207.605,369.65 210.465,376.717 215.012,377.988C221.832,379.893 228.52,372.392 234.143,369.99C245.092,365.315 257.996,363.779 269.854,363.096ZM715.142,352.035C721.931,355.425 727.883,362.1 733.27,367.395C735.085,369.18 736.913,373.426 739.652,374.026C745.066,375.21 759.666,368.884 760.611,361.731C761.775,352.931 753.844,346.331 748.978,340.224C744.771,334.946 743.211,320.182 733.297,327.217C731.829,328.259 730.509,329.502 729.27,330.804C727.115,333.069 725.163,335.47 723.253,337.941C719.982,342.172 715.9,346.554 713.848,351.589L715.142,352.035ZM847.602,368.855C846.849,364.69 844.822,359.272 846.385,355.098C852.026,340.039 865.594,351.466 868.716,361.405C870.435,366.879 855.801,374.504 850.564,371.64L847.602,368.855ZM879.433,341.213C890.057,341.213 893.758,331.787 903.251,328.885C912.393,326.09 931.106,336.059 923.965,347.13C919.91,353.417 912.371,351.779 906.183,353.391C900.244,354.938 896.167,359.826 889.918,360.601C881.898,361.597 876.142,352.454 876.722,345.226L879.433,341.213ZM348.068,301.978C338.828,305.46 333.726,314.885 336.907,324.663C341,337.248 352.422,351.098 364.562,356.589C377.063,362.243 404.743,356.932 394.523,338.618C385.45,322.361 363.936,313.832 350.115,301.945L348.068,301.978ZM828.597,292.912C834.286,300.837 838.908,307.937 840.942,317.586C841.914,322.2 842.238,327.042 842.142,331.753C842.07,335.228 841.174,338.575 839.873,341.776C838.77,344.487 837.371,347.072 835.679,349.462C826.238,362.79 813.396,353.964 800.499,353.449C788.414,352.966 782.682,358.183 772.101,349.438C764.614,343.249 758.136,336.31 756.48,326.38C756.147,324.381 754.496,319.746 756.023,318.158C759.818,314.21 767.941,313.397 772.995,311.914C787.459,307.67 801.659,306.212 816.144,301.324C820.414,299.883 825.776,299.094 829.4,296.15L828.597,292.912ZM372.13,304.219C382.346,304.219 397.286,301.319 404.481,293.688C408.765,289.144 412.475,284.007 416.582,279.293C417.554,278.177 418.656,274.898 420.001,274.572C423.72,273.668 427.531,276.96 430.062,279.278C437.305,285.911 444.019,293.872 449.28,302.165C458.96,317.427 444.329,337.739 431.597,345.976C426.377,349.353 420.763,350.243 415.072,352.328C414.656,352.481 410.228,353.247 410.229,353.231C410.371,348.997 414.317,345.505 413.432,340.952C412.474,336.023 408.319,331.71 404.933,328.306C396.706,320.033 383.142,308.544 372.13,304.219ZM281.441,349.932C288.499,336.174 279.837,323.074 271.437,312.259C268.941,309.046 266.213,305.926 263.622,302.787C261.943,300.753 260.073,299.163 261.72,296.438C268.174,285.762 285.177,280.532 296.952,280.093C301.58,279.92 305.68,280.12 309.809,282.509C318.584,287.586 322.937,297.486 325.751,306.785C327.411,312.273 327.746,317.692 327.787,323.379C327.799,325.042 328.159,327.677 327.364,329.256C325.246,333.465 315.643,333.717 311.729,334.897C301.065,338.112 291.74,343.861 282.266,349.454L281.441,349.932ZM186.566,322.191C179.256,316.761 167.629,312.554 159.011,318.063C153.509,321.581 150.084,333.572 156.299,338.292C165.05,344.938 176.763,341.234 184.507,336.784C191.972,332.495 193.786,326.956 187.433,322.394L186.566,322.191ZM854.519,270.177C864.934,276.715 859.811,285.25 862.166,295.6C864.059,303.922 868.573,310.473 869.063,319.335C869.259,322.876 869.068,334.649 863.675,335.398C856.844,336.347 854.507,322.528 853.632,318.257C850.239,301.69 840.909,288.456 853.447,273.046L854.519,270.177ZM892.997,318.633C893.147,312.313 892.265,306.593 890.816,300.447C889.94,296.729 888.927,293.207 887.456,289.685C886.078,286.386 875.622,270.653 873.835,282.197C872.445,291.179 879.867,301.926 882.218,310.517C883.565,315.44 884.102,320.388 884.271,325.469C884.286,325.921 884.026,329.677 884.408,329.859C886.783,330.992 891.776,320.062 892.997,318.633ZM716.46,302.306C718.609,302.536 723.254,302.419 725.077,304.021C728,306.592 726.796,311.187 725.37,314.307C722.356,320.903 713.109,328.053 705.613,328.1C698.228,328.147 694.876,317.635 696.697,311.973C699.016,304.759 706.217,300.564 713.252,299.315L716.46,302.306ZM624.67,300.493C633.98,322.003 604.472,317.188 591.62,315.357C576.95,313.267 554.452,318.18 547.632,300.901C546.339,297.624 545.857,294.141 545.395,290.67C544.832,286.436 544.005,281.992 545.159,277.788C547.611,268.861 559.887,270.176 566.651,273.289C576.252,277.707 581.851,287.237 590.261,293.164C598.276,298.813 615.046,300.106 624.67,300.493ZM203.83,275.791C194.176,280.77 191.656,290.219 188.303,300.061C186.327,305.862 186.757,313.225 195.225,310.582C203.647,307.954 207.155,293.935 208.979,286.539C209.799,283.212 211.148,277.612 206.947,276.16L203.83,275.791ZM529.75,270.846C518.646,266.624 505.218,256.21 492.524,259.545C482.494,262.181 481.898,272.955 481.507,281.763C481.169,289.394 480.654,298.175 487.276,303.382C493.556,308.321 501.774,306.594 509.096,306.407C514.669,306.266 522.541,309.506 527.855,307.49C532.711,305.648 534.058,300.145 534.401,295.541C535.05,286.833 533.562,281.081 530.568,273.443L529.75,270.846ZM169.218,267.754C166.965,271.615 166.023,275.652 165.474,280.058C165.222,282.08 165.12,284.147 165.121,286.185C165.122,287.54 165.308,288.898 165.667,290.205C166.662,293.821 171.84,304.99 177.428,301.865C180.979,299.878 181.9,294.584 182.52,290.944C183.217,286.859 184.611,278.938 182.348,275.116C180.074,271.276 175.75,269.779 172.097,268.008L169.218,267.754ZM742.233,298.149C747.866,298.509 752.504,301.889 758.052,302.271C764.038,302.683 770.837,299.493 776.609,298.084C784.716,296.104 792.857,294.121 800.757,291.437C810.579,288.1 815.284,283.016 819.694,273.494C822.695,267.011 823.892,261.284 815.303,259.338C804.91,256.983 796.558,267.424 788.058,271.436C777.13,276.595 761.736,273.162 751.649,279.764C745.355,283.883 740.991,287.883 742.919,295.241L742.233,298.149ZM465.16,295.776C466.866,285.278 468.505,266.012 458.362,257.441C452.323,252.337 443.074,241.802 434.132,243.881C431.378,244.521 425.564,246.849 425.672,250.641C425.99,261.794 439.407,268.524 447.437,273.425C455.081,278.089 462.427,287.127 465.16,295.776ZM599.217,279.613C609.766,289.933 619.151,285.149 631.58,288.387C634.379,289.116 637.103,290.102 639.823,291.077C641.724,291.759 643.664,292.486 645.627,292.964C652.243,294.575 676.753,299.025 667.813,283.723C666.625,281.689 664.976,279.948 663.27,278.342C660.416,275.654 657.815,272.766 655.036,270.009C642.201,257.275 619.316,246.59 600.836,249.663C590.242,251.425 592.376,274.45 599.217,279.613ZM314.231,247.019C302.778,247.019 290.77,250.394 281.122,256.539C279.483,257.583 270.089,265.078 274.307,267.337C277.768,269.19 282.95,267.959 286.673,267.625C294.59,266.916 304.936,265.362 312.356,268.516C318.167,270.985 322.496,274.674 325.425,280.303C327.148,283.613 329.501,291.15 333.34,292.77C339.334,295.3 340.941,290.035 339.667,285.383C338.515,281.175 335.871,277.718 333.955,273.861C331.93,269.785 330.441,264.716 327.357,261.292C325.335,259.048 322.255,258.13 320.613,255.557C318.944,252.941 316.563,249.03 314.231,247.019ZM357.176,291.935C364.395,291.935 371.811,292.553 378.875,290.813C397.437,286.241 412.562,270.863 407.656,250.801C405.331,241.292 399.462,234.058 393.874,226.317C390.906,222.206 388.554,211.991 384.021,209.198C379.117,206.176 371.389,210.015 366.88,211.449C353.562,215.683 332.115,223.94 331.115,240.101C330.466,250.589 339.792,255.553 344.576,263.755C349.54,272.263 350.521,282.328 354.967,290.95L357.176,291.935ZM252.874,258.603C246.401,258.603 240.908,261.387 235.386,264.616C231.637,266.807 229.364,269.534 226.656,272.865C224.085,276.029 217.625,282.824 220.708,287.723C223.096,291.518 230.934,290.591 234.752,290.625C238.086,290.654 241.515,291.29 244.765,290.284C247.764,289.357 249.996,286.608 252.288,284.611C254.5,282.682 257.47,281.11 259.355,278.835C262.354,275.216 261.634,268.694 259.888,264.642C258.761,262.025 256.163,259.518 253.975,257.733L252.874,258.603ZM740.418,273.28C738.889,278.025 735.479,288.71 730.082,290.361C723.078,292.505 714.18,283.319 709.184,279.227C692.874,265.866 673.319,248.141 676.133,224.303C676.969,217.214 685.036,221.044 688.033,223.838C700.806,235.745 712.05,249.397 724.233,261.659C728.955,266.412 738.255,265.254 738.654,272.86L740.418,273.28ZM659.585,257.015C666.749,264.505 673.068,272.745 679.57,280.801C680.269,281.666 685.014,287.825 686.55,287.542C688.74,287.139 684.251,277.762 683.844,277.054C680.012,270.396 675.858,261.501 669.956,256.508C669.277,255.934 660.8,252.112 660.901,253.47L659.585,257.015ZM815.313,227.54C816.278,232.167 817.211,235.958 816.726,240.786C816.502,243.014 815.377,247.12 816.851,248.986C818.49,251.061 822.026,251.01 824.362,251.727C827.729,252.759 833.147,256.299 834.79,259.828C836.674,263.877 836.367,269.396 835.496,273.652C835.193,275.132 834.843,276.609 834.46,278.07C834.271,278.793 833.087,280.281 833.833,280.224C835.303,280.111 838.33,275.887 839.35,274.758C844.459,269.101 845.693,266.378 847.843,258.863C848.693,255.892 849.886,252.462 847.958,249.695C843.144,242.784 834.081,242.931 828.064,237.995C825.083,235.55 822.584,232.034 820.16,229.055C819.409,228.132 817.94,225.721 816.379,226.318L815.313,227.54ZM211.765,239.562C207.897,242.232 204.235,245.164 200.432,247.921C197.258,250.222 189.956,255.43 189.631,260.036C189.073,267.954 203.29,265.358 206.951,262.021C211.649,257.739 212.504,248.71 213.13,242.893L211.765,239.562ZM750.566,263.343C757.487,261.645 761.864,258.376 766.302,253.213C768.932,250.152 773.141,248.696 775.992,245.739C781.566,239.958 782.094,231.81 783.055,224.21C783.497,220.714 786.658,207.682 782.143,205.575C777.984,203.633 769.894,211.65 766.833,214.078C752.775,225.23 750.392,234.087 750.883,251.78C750.957,254.448 749.413,261.194 750.566,263.343ZM779.966,260.964C799.719,261.499 806.542,244.223 802.212,226.915C801.382,223.598 803.018,220.133 803.66,216.772C803.74,216.357 804.462,211.302 804.359,211.324C799.376,212.387 797.426,219.112 796.579,223.276C793.818,236.856 787.108,250.732 779.966,260.964ZM586.87,171.88C583.372,174.912 574.698,179.214 572.231,183.303C569.558,187.734 570.596,193.745 570.112,198.66C569.389,206.012 567.409,213.978 565.59,221.193C564.184,226.771 560.148,231.389 558.757,236.823C557.201,242.903 562.76,251.105 567.55,254.79C573.409,259.298 578.597,251.915 582.551,247.774C590.614,239.331 605.758,238.818 606.626,225.334C607.054,218.673 596.608,214.502 593.266,209.494C587.568,200.956 585.152,185.344 586.469,175.037L586.87,171.88ZM553.063,188.53C550.325,205.013 534.166,220.114 525.722,233.799C523.437,237.502 515.957,245.598 516.542,250.756C516.811,253.124 519.578,254.147 521.572,254.655C527.493,256.161 532.065,253.985 535.381,248.793C538.313,244.204 539.063,238.698 541.636,233.922C549.541,219.253 558.313,207.425 555.465,189.514L553.063,188.53ZM236.377,249.713C243.291,238.365 241.811,227.702 244.437,215.485C245.54,210.353 248.582,204.685 247.973,199.325C246.685,187.989 229.086,197.699 225.917,202.597C218.776,213.632 220.713,230.343 223.032,242.707C223.507,245.242 223.732,248.075 225.415,250.166C228.658,254.195 233.467,252.688 235.871,249.194L236.377,249.713ZM294.937,238.232C299.052,235.183 297.69,230.234 298.99,225.892C300.234,221.737 302.969,216.933 303.015,212.519C303.114,202.744 286.46,201.655 280.379,203.549C277.487,204.45 275.134,206.591 272.124,207.21C268.307,207.995 262.947,204.436 259.666,206.488C256.562,208.429 255.35,212.618 254.895,216.022C253.868,223.696 253.225,239.374 260.808,244.461C270.267,250.806 284.529,243.836 292.618,238.854L294.937,238.232ZM704.405,222.848C708.55,231.227 719.887,241.771 729.232,244.072C733.312,245.077 742.51,237.873 740.61,232.973C738.051,226.371 724.194,229.537 719.056,226.755C716.993,225.637 704.812,211.359 705.016,218.117L704.405,222.848ZM504.819,236.523C498.462,238.64 492.144,241.012 485.46,241.879C477.972,242.849 465.861,244.646 459.707,238.91C452.009,231.736 461.45,224.408 467.345,220.065C469.27,218.647 471.872,215.958 474.41,215.682C477.593,215.337 480.261,218.931 482.381,220.768C488.62,226.177 498.75,228.048 504.105,233.939L504.819,236.523ZM665.062,198.533C657.845,202.208 651.665,207.167 646.171,213.042C639.889,219.761 628.335,223.378 623.274,230.335C617.386,238.428 636.703,243.316 642.787,242.391C652.401,240.93 655.85,228.979 659.936,221.622C663.939,214.413 675.641,212.144 669.591,202.834C668.603,201.315 667.443,199.943 666.302,198.54L665.062,198.533ZM339.053,188.554C329.053,193.779 316.28,201.638 313.33,213.357C312.972,214.782 312.797,216.249 312.674,217.711C312.409,220.851 310.876,235.082 317.14,233.403C320.545,232.491 323.291,229.295 325.783,226.975C332.817,220.426 337.674,212.299 345.926,207.154C348.862,205.323 351.961,203.894 355.354,203.165C356.254,202.972 359.155,202.767 359.664,201.723C360.86,199.273 357.729,196.015 356.264,194.483C351.476,189.477 345.615,188.034 339.053,188.554ZM417.66,205.588C413.67,206.67 406.705,208.383 404.425,212.546C400.563,219.595 409.423,228.759 416.112,228.891C420.061,228.968 422.586,225.218 423.747,221.877C426.281,214.589 422.84,206.823 416.301,202.888L417.66,205.588ZM465.883,211.661C454.679,211.661 452.733,226.362 442.68,226.751C435.907,227.012 431.905,213.19 434.01,208.063C438.599,196.889 457.599,205.09 463.856,209.817L465.883,211.661ZM516.553,224.619C510.518,223.796 495.523,222.813 492.89,216.275C491.097,211.822 494.141,205.941 496.428,202.196C501.135,194.491 506.965,187.783 512.39,180.622C516.082,175.748 520.262,169.571 526.49,167.554C537.423,164.013 546.851,176.519 541.358,186.335C534.009,199.47 519.162,208.829 515.2,223.893L516.553,224.619ZM759.154,191.43C749.286,188.595 735.376,179.996 724.479,184.528C717.146,187.578 722.822,203.101 723.321,208.604C723.459,210.126 723.247,216.133 725.061,217.182C728.088,218.933 732.978,216.639 735.626,215.238C743.29,211.185 754.412,203.004 759.002,195.382L759.154,191.43ZM622.571,146.79C613.167,159.211 591.383,180.917 601.996,198.571C606.637,206.289 618.615,205.533 626.111,204.013C642.152,200.763 654.592,191.794 667.672,182.566C672.23,179.35 678.566,176.468 682.175,172.053C688.752,164.009 683.536,149.708 674.797,145.466C658.615,137.61 639.602,133.082 625.645,145.278L622.571,146.79ZM480.939,204.83C485.728,201.461 492.179,194.974 494.947,189.729C497.392,185.096 499.335,180.312 502.317,175.96C503.653,174.011 506.936,170.662 507.1,168.111C507.536,161.344 490.53,162.13 487.435,162.947C477.788,165.495 465.452,172.994 459.765,181.276C453.782,189.99 459.065,199.511 468.728,202.05C472.639,203.077 476.791,203.91 480.824,204.289L480.939,204.83ZM714.7,175.914C706.179,169.638 694.931,176.843 692.5,186.528C690.131,195.966 697.483,199.795 704.116,193.81C705.739,192.346 707.153,190.66 708.486,188.934C710.539,186.275 712.675,183.898 713.681,180.624L714.7,175.914ZM413.066,185.582C413.066,183.038 413.519,180.699 413.681,178.183C413.76,176.955 409.624,175.982 408.914,175.804C403.627,174.48 397.97,172.059 393.656,168.682C389.907,165.747 385.279,161.997 382.654,157.977C381.13,155.643 381.083,151.584 378.715,150.007C376.212,148.341 372.923,149.296 370.315,150.191C362.198,152.977 356.63,160.845 355.507,169.288C353.912,181.275 362.703,182.987 371.308,187.206C375.214,189.121 377.65,192.828 381.785,194.52C390.834,198.222 408.26,196.279 412.409,185.639L413.066,185.582ZM323.352,173.73C316.69,181.211 309.093,189.497 298.635,191.165C295.541,191.659 291.899,190.341 288.761,190.242C283.751,190.084 278.602,191.088 273.825,192.523C271.564,193.202 268.066,194.652 265.67,193.842C260.724,192.17 256.823,185.164 259.595,180.526C262.003,176.497 265.681,173.313 269.03,170.095C275.521,163.858 282.259,155.169 292.517,156.881C298.499,157.88 301.659,163.103 306.699,165.75C308.523,166.708 311.009,167.61 313.113,167.369C317.322,166.886 325.749,162.587 324.151,171.053L323.352,173.73ZM339.053,188.554C339.144,188.506 339.234,188.459 339.323,188.413L336.854,188.796C337.595,188.692 338.328,188.611 339.053,188.554ZM456.042,157.233C451.327,159.542 446.709,162.128 442.102,164.648C438.542,166.594 429.01,171.823 427.706,175.939C425.266,183.64 439.946,182.459 442.599,181.046C449.546,177.345 454.125,167.824 457.592,161.001L456.042,157.233ZM560.497,107.659C571.234,102.502 585.574,93.249 597.754,99.409C601.57,101.338 602.88,107.637 603.978,111.248C606.835,120.645 614.498,139.616 605.647,147.813C593.398,159.156 571.908,160.284 556.846,161.012C549.537,161.365 526.753,164.835 530.081,151.277C530.579,149.247 531.415,147.284 532.263,145.378C533.509,142.575 534.927,139.834 536.538,137.224C543.394,126.109 555.672,120.363 561.245,108.318L560.497,107.659ZM450.913,100.493C436.312,104.609 433.789,122.056 437.824,135.165C438.723,138.086 444.1,144.853 443.295,147.283C442.146,150.754 438.643,153.332 435.826,155.434C424.085,164.196 406.61,161.743 396.674,151.076C387.327,141.041 395.051,127.982 401.24,118.348C410.996,103.161 420.267,90.74 439.95,94.335C443.638,95.009 446.647,97.144 449.97,98.721L450.913,100.493ZM376.157,133.522C364.154,132.891 353.285,131.191 344.681,140.057C341.107,143.739 336.942,148.251 336.023,153.487C335.592,155.943 334.672,158.625 337.828,159.365C345.933,161.265 350.488,151.457 355.031,146.898C360.07,141.842 370.127,137.399 377.011,135.288L376.157,133.522ZM514.857,140.511C510.135,140.689 505.482,141.223 500.847,142.161C497.941,142.749 495.119,143.606 492.255,144.361C491.933,144.446 481.601,146.758 481.803,147.833C482.586,152 490.406,152.983 493.604,153.315C503.127,154.305 514.543,153.572 517.489,142.15L514.857,140.511ZM502.939,126.804C493.575,119.945 484.445,103.375 471.752,101.187C458.182,98.848 444.595,122.358 454.358,132.268C457.678,135.637 462.731,135.952 467.194,136.161C479.603,136.741 487.837,132.034 499.005,128.744L502.939,126.804ZM552.642,94.44C550.049,100.913 545.31,106.514 541.757,112.47C538.876,117.299 533.256,127.22 526.923,128.336C523.776,128.891 520.262,125.845 517.999,124.119C512.104,119.621 510.162,114.562 506.296,108.763C504.474,106.029 501.508,103.594 501.499,100.073C501.482,94.068 507.546,86.984 510.94,82.493C517.2,74.208 522.759,62.753 533.867,70.528C535.696,71.809 537.335,73.289 538.765,75.004C543.698,80.918 546.099,88.639 550.591,94.904L552.642,94.44Z" style="fill:white;"/>
    </g>
</svg>
