<?xml version="1.0" encoding="UTF-8" standalone="no"?>
<!DOCTYPE svg PUBLIC "-//W3C//DTD SVG 1.1//EN" "http://www.w3.org/Graphics/SVG/1.1/DTD/svg11.dtd">
<svg width="100%" height="100%" viewBox="0 0 1000 1000" version="1.1" xmlns="http://www.w3.org/2000/svg" xmlns:xlink="http://www.w3.org/1999/xlink" xml:space="preserve" xmlns:serif="http://www.serif.com/" style="fill-rule:evenodd;clip-rule:evenodd;stroke-linejoin:round;stroke-miterlimit:2;">
    <g transform="matrix(5.71852,0,0,5.97255,-2359.26,-2484.22)">
        <path d="M499.703,574.975C487.164,573.892 480.052,567.924 479,556.5C484.67,558.905 491.484,560.745 500,560.5L500.398,560.51C508.728,560.688 515.418,558.868 521,556.5C519.94,568.014 512.723,573.986 500,575L499.703,574.975ZM559,545.155L539,526.155L532,534.155L551,553.155C547.307,561.441 548.688,567.078 555,568.641C559.307,569.707 565.725,566.691 563,557.155C572.125,560.731 574.617,553.548 573.355,549.155C571.705,543.415 566.9,541.802 559,545.155ZM441,545.155L461,526.155L468,534.155L449,553.155C452.693,561.441 451.312,567.078 445,568.641C440.693,569.707 434.275,566.691 437,557.155C427.875,560.731 425.383,553.548 426.645,549.155C428.295,543.415 433.1,541.802 441,545.155ZM499.51,559.504C497.096,559.516 495.18,559.374 493,559C493.82,556.108 494.292,553.552 495.486,551.524L495.5,551.5L504.5,551.5L504.514,551.524C505.708,553.552 506.18,556.108 507,559C504.674,559.399 502.65,559.533 500,559.5L499.51,559.504ZM507,552C507.118,554.333 507.407,556.667 508,559C510.573,558.716 512.689,558.003 514.5,557C513.945,554.907 512.993,552.748 511.5,550.5C509.969,550.657 508.464,551.102 507,552ZM493,552C492.882,554.333 492.593,556.667 492,559C489.427,558.716 487.311,558.003 485.5,557C486.055,554.907 487.007,552.748 488.5,550.5C490.031,550.657 491.536,551.102 493,552ZM519,548.249C517.248,548.995 515.597,549.944 514,551C514.676,553.427 515.533,555.365 516.5,557C518.547,556.418 520.238,555.445 521.5,554C521.141,552.083 520.407,550.166 519,548.249ZM481,548.249C482.752,548.995 484.403,549.944 486,551C485.324,553.427 484.467,555.365 483.5,557C481.453,556.418 479.762,555.445 478.5,554C478.859,552.083 479.593,550.166 481,548.249ZM495.5,550.5C495.449,547.881 496.331,545.935 500,546L500.17,545.998C503.696,545.996 504.55,547.921 504.5,550.5L495.5,550.5ZM505.5,550.5C505.377,548.989 505.409,547.486 505.75,546C507.057,545.407 508.469,545.062 510,545C510.804,546.207 511.507,547.507 512,549C510.15,549.926 507.998,550.444 505.5,550.5ZM494.5,550.5C494.623,548.989 494.591,547.486 494.25,546C492.943,545.407 491.531,545.062 490,545C489.196,546.207 488.493,547.507 488,549C489.85,549.926 492.002,550.444 494.5,550.5ZM512,545C512.294,546.53 512.766,548.035 513.5,549.5C515.606,548.506 517.451,547.347 519,546C518.361,544.889 517.608,543.843 516.5,543C514.969,543.202 513.432,543.747 512,545ZM488,545C487.706,546.53 487.234,548.035 486.5,549.5C484.394,548.506 482.549,547.347 481,546C481.639,544.889 482.392,543.843 483.5,543C485.031,543.202 486.568,543.747 488,545ZM500,526.001C496.815,526.068 494.25,528.674 494.25,531.875C494.25,535.076 496.815,537.682 500,537.749L500.149,537.744C503.264,537.601 505.75,535.026 505.75,531.875C505.75,528.724 503.264,526.149 500.149,526.006L500,526.001ZM520,499.5C527.865,499.5 534.25,505.885 534.25,513.75C534.25,521.615 527.865,528 520,528C512.135,528 505.75,521.615 505.75,513.75C505.75,505.885 512.135,499.5 520,499.5ZM480,499.5C472.135,499.5 465.75,505.885 465.75,513.75C465.75,521.615 472.135,528 480,528C487.865,528 494.25,521.615 494.25,513.75C494.25,505.885 487.865,499.5 480,499.5ZM498.485,490.02C482.839,490.236 467.612,490.691 455.772,493.094L455.741,493.112C453.136,494.601 452.097,496.67 453,499.5L431,497C426.157,496.159 426.004,494.841 431,493C439.39,489.801 448.289,487.251 457.773,485.449C457.933,484.982 458.1,484.513 458.275,484.044C469.778,481.838 483.504,480.733 500,481L500.771,480.988C516.924,480.768 530.401,481.872 541.725,484.044C541.9,484.513 542.067,484.982 542.227,485.449C551.711,487.251 560.61,489.801 569,493C573.996,494.841 573.843,496.159 569,497L547,499.5C547.903,496.67 546.864,494.601 544.259,493.112L544.228,493.094C532.005,490.614 516.173,490.209 500,490L498.485,490.02ZM498.724,475.012C485.556,475.16 472.827,475.975 460.927,478.055C467.308,465.748 479.453,454.313 500,454L500.48,454.009C520.737,454.492 532.742,465.844 539.073,478.055C526.788,475.908 513.621,475.108 500,475L498.724,475.012ZM560,448L537,470L530,462L552,440C548.307,431.714 549.688,426.077 556,424.514C560.307,423.448 566.725,426.464 564,436C573.125,432.424 575.617,439.608 574.355,444C572.705,449.741 567.9,451.353 560,448ZM440,448L463,470L470,462L448,440C451.693,431.714 450.312,426.077 444,424.514C439.693,423.448 433.275,426.464 436,436C426.875,432.424 424.383,439.608 425.645,444C427.295,449.741 432.1,451.353 440,448ZM499.611,544.989C466.641,543.961 454.895,515.126 455.066,500C455.084,498.421 455.221,496.677 455.49,494.819C467.722,492.629 483.192,492.286 500,492L503.135,492.055C518.729,492.336 533.042,492.766 544.51,494.819C544.779,496.677 544.916,498.421 544.934,500C545.105,515.185 533.267,544.187 500,545L499.611,544.989Z" style="fill:white;"/>
    </g>
</svg>
