<?xml version="1.0" encoding="UTF-8" standalone="no"?>
<!DOCTYPE svg PUBLIC "-//W3C//DTD SVG 1.1//EN" "http://www.w3.org/Graphics/SVG/1.1/DTD/svg11.dtd">
<svg width="100%" height="100%" viewBox="0 0 1000 1000" version="1.1" xmlns="http://www.w3.org/2000/svg" xmlns:xlink="http://www.w3.org/1999/xlink" xml:space="preserve" xmlns:serif="http://www.serif.com/" style="fill-rule:evenodd;clip-rule:evenodd;stroke-linejoin:round;stroke-miterlimit:2;">
    <g transform="matrix(18.1516,0,0,18.1516,-5569.42,-13798.2)">
        <path d="M353.75,763L354.06,763L354.06,774.5L349.896,774.5L349.896,770.937L346.2,774.633C347.967,777.232 349,780.372 349,783.75C349,789.191 346.32,794.011 342.208,796.962C342.208,803.719 342.494,804.5 345,804.5L352.5,804.5L352.5,812.5L342,812.5C337.694,812.5 334.224,808.723 334.012,799.952C333.596,799.984 333.175,800 332.75,800C323.781,800 316.5,792.719 316.5,783.75C316.5,774.781 323.781,767.5 332.75,767.5C336.561,767.5 340.067,768.815 342.839,771.014L346.771,767.082L342.25,767.082L342.25,762.918L353.75,762.918L353.75,763ZM326,805.146L320.697,799.843L314.686,805.854L319.99,811.157L326,805.146ZM332.75,776.605C336.693,776.605 339.895,779.807 339.895,783.75C339.895,787.693 336.693,790.895 332.75,790.895C328.807,790.895 325.605,787.693 325.605,783.75C325.605,779.807 328.807,776.605 332.75,776.605Z" style="fill:white;"/>
    </g>
</svg>
