<?xml version="1.0" encoding="UTF-8" standalone="no"?>
<!DOCTYPE svg PUBLIC "-//W3C//DTD SVG 1.1//EN" "http://www.w3.org/Graphics/SVG/1.1/DTD/svg11.dtd">
<svg width="100%" height="100%" viewBox="0 0 1000 1000" version="1.1" xmlns="http://www.w3.org/2000/svg" xmlns:xlink="http://www.w3.org/1999/xlink" xml:space="preserve" xmlns:serif="http://www.serif.com/" style="fill-rule:evenodd;clip-rule:evenodd;stroke-linejoin:round;stroke-miterlimit:2;">
    <g transform="matrix(1.80153,0,0,1.80153,-404.366,-405.786)">
        <path d="M494.695,727.7C500.889,733.78 507.3,739.726 513.925,745.539C511.224,747.885 508.467,750.218 505.644,752.545C503.765,752.568 501.882,752.577 500,752.577L499.036,752.576C489.747,752.561 480.457,752.317 471.852,750.955C471.237,750.218 470.624,749.482 470.017,748.751C478.596,741.909 486.822,734.892 494.695,727.7ZM517.107,748.307C518.469,749.481 519.84,750.65 521.221,751.814C518.311,752.087 515.349,752.265 512.357,752.38C513.962,751.024 515.546,749.666 517.107,748.307ZM540.343,726.377C545.426,730.565 550.607,734.734 555.88,738.886C555.463,739.262 555.043,739.633 554.62,740C547.215,746.433 537.556,749.598 526.913,751.141C524.675,749.285 522.46,747.414 520.266,745.527C527.401,739.187 534.082,732.8 540.343,726.377ZM445.092,724.402C451.254,732.317 457.58,740.224 464.091,748.125C463.708,748.426 463.321,748.728 462.935,749.029C456.324,747.158 450.345,744.313 445.38,740C442.191,737.23 439.165,734.234 436.291,731.024C439.256,728.842 442.19,726.634 445.092,724.402ZM471.263,702.88C477.79,710.354 484.613,717.648 491.731,724.764C483.959,731.857 475.834,738.784 467.36,745.54C460.858,737.651 454.54,729.755 448.384,721.847C456.247,715.696 463.874,709.362 471.263,702.88ZM516.721,706.158C523.321,712.041 530.121,717.887 537.108,723.7C530.863,730.099 524.201,736.456 517.084,742.766C510.423,736.935 503.983,730.97 497.764,724.871C504.341,718.752 510.663,712.512 516.721,706.158ZM561.895,702.165C566.826,705.801 571.878,709.362 577.057,712.847C571.829,721.493 565.8,729.298 558.952,736.003C553.615,731.807 548.374,727.595 543.24,723.371C549.931,716.348 556.133,709.278 561.895,702.165ZM427.072,700.617C432.113,707.452 437.265,714.283 442.539,721.11C439.582,723.385 436.589,725.635 433.563,727.858C428.544,721.806 424.053,715.103 420.083,707.891C422.411,705.466 424.738,703.044 427.072,700.617ZM492.349,683.367C499.176,690.084 506.27,696.753 513.616,703.375C507.599,709.682 501.326,715.87 494.8,721.936C487.698,714.841 480.892,707.566 474.387,700.116C480.538,694.634 486.523,689.047 492.349,683.367ZM537.478,682.69C544.224,688.51 551.24,694.167 558.532,699.659C552.812,706.715 546.652,713.731 540.006,720.697C533.001,714.877 526.185,709.022 519.574,703.136C525.827,696.449 531.797,689.632 537.478,682.69ZM450.119,676.648C455.964,684.524 462.105,692.217 468.539,699.73C461.2,706.169 453.632,712.454 445.831,718.556C440.431,711.565 435.158,704.569 430.002,697.57C436.73,690.574 443.444,683.6 450.119,676.648ZM582.02,674.547C585.082,677.01 588.188,679.454 591.341,681.879C587.994,691.586 583.942,700.78 579.164,709.241C574.155,705.865 569.265,702.417 564.502,698.906C570.876,690.836 576.692,682.714 582.02,674.547ZM404.833,669.46C411.232,678.718 417.801,687.968 424.568,697.211C422.383,699.483 420.205,701.75 418.026,704.019C412.575,693.386 408.188,681.735 404.833,669.46ZM514.173,660.867C520.598,667.403 527.315,673.764 534.334,679.95C528.664,686.882 522.708,693.684 516.469,700.355C509.156,693.768 502.094,687.136 495.306,680.462C501.808,674.027 508.097,667.487 514.173,660.867ZM468.025,657.934C474.804,665.496 481.932,672.995 489.391,680.437C483.646,686.037 477.737,691.552 471.663,696.966C465.154,689.363 458.949,681.572 453.05,673.594C458.074,668.357 463.071,663.135 468.025,657.934ZM558.518,654.484C565.033,660.387 571.773,666.192 578.747,671.892C573.401,680.109 567.556,688.282 561.14,696.401C553.853,690.917 546.846,685.265 540.106,679.445C546.632,671.299 552.77,662.98 558.518,654.484ZM426.914,641.836C433.328,652.607 440.229,663.073 447.619,673.244C440.946,680.193 434.23,687.166 427.501,694.162C419.954,683.842 412.654,673.512 405.56,663.17C412.683,655.98 419.814,648.872 426.914,641.836ZM598.876,647.657L599.803,648.54C598.069,658.564 595.717,668.344 592.732,677.689C589.882,675.485 587.07,673.264 584.288,671.022C589.35,663.042 593.954,655.024 598.165,646.977L598.876,647.657ZM490.377,634.259C496.957,642.361 503.916,650.236 511.267,657.878C505.175,664.52 498.869,671.081 492.348,677.533C484.851,670.061 477.69,662.527 470.885,654.928C477.466,648.007 483.974,641.115 490.377,634.259ZM537.281,634.099C543.115,640.034 549.154,645.883 555.407,651.643C549.658,660.168 543.51,668.521 536.963,676.701C530.013,670.569 523.36,664.26 516.992,657.773C524.049,649.972 530.813,642.065 537.281,634.099ZM442.302,626.637C449.398,636.131 457.06,645.521 465.254,654.817C460.39,659.923 455.486,665.046 450.555,670.185C443.205,660.03 436.342,649.572 429.97,638.811C434.097,634.728 438.213,630.668 442.302,626.637ZM576.275,625.44C582.341,631.585 588.585,637.755 595.019,643.957C590.778,652.128 586.131,660.267 581.013,668.36C574.058,662.664 567.342,656.867 560.861,650.98C566.376,642.629 571.515,634.116 576.275,625.44ZM410.019,610.449C414.59,619.896 419.5,629.129 424.742,638.144C417.565,645.246 410.362,652.417 403.168,659.671C402.79,659.116 402.413,658.561 402.036,658.007C399.602,646.743 397.981,635.079 397.152,623.293C401.445,618.982 405.738,614.7 410.019,610.449ZM513.925,608.637C520.438,616.252 527.244,623.742 534.356,631.098C527.893,639.072 521.135,646.982 514.087,654.781C506.756,647.147 499.819,639.277 493.256,631.171C500.287,623.617 507.189,616.105 513.925,608.637ZM467.044,602.2C473.468,612.083 480.364,621.682 487.752,630.99C481.301,637.897 474.747,644.838 468.116,651.81C459.957,642.543 452.33,633.179 445.272,623.709C452.613,616.475 459.883,609.311 467.044,602.2ZM558.235,606.699C563.105,611.891 568.099,617.103 573.222,622.335C568.454,631.098 563.293,639.699 557.748,648.128C551.598,642.448 545.656,636.68 539.917,630.829C546.317,622.83 552.423,614.774 558.235,606.699ZM600.154,643.114C600.404,642.623 600.65,642.135 600.894,641.647C600.803,642.282 600.71,642.915 600.613,643.552L600.154,643.114ZM593.328,589.774C596.668,592.763 600.037,595.711 603.439,598.614C603.661,608.693 603.319,618.828 602.398,628.847C600.678,632.595 598.882,636.337 597,640.078C590.599,633.893 584.387,627.739 578.348,621.607C583.884,611.219 588.88,600.605 593.328,589.774ZM422.758,597.842C427.98,606.401 433.673,614.874 439.813,623.271C435.828,627.196 431.824,631.142 427.806,635.113C422.579,626.07 417.693,616.813 413.151,607.342C416.36,604.161 419.563,600.995 422.758,597.842ZM490.323,578.813C496.927,587.844 503.884,596.724 511.219,605.447C504.512,612.887 497.637,620.373 490.636,627.896C483.298,618.619 476.45,609.048 470.074,599.188C476.947,592.348 483.709,585.561 490.323,578.813ZM536.601,582.872C542.64,589.747 548.88,596.655 555.339,603.599C549.523,611.701 543.409,619.789 536.992,627.822C529.938,620.511 523.191,613.068 516.739,605.508C523.553,597.913 530.187,590.366 536.601,582.872ZM449.197,571.755C454.028,580.931 459.212,589.895 464.76,598.644C457.539,605.813 450.2,613.041 442.789,620.339C436.661,611.932 430.984,603.441 425.784,594.856C433.672,587.077 441.494,579.381 449.197,571.755ZM578.736,576.293C582.468,579.847 586.234,583.354 590.038,586.807C585.665,597.589 580.744,608.153 575.286,618.485C570.305,613.384 565.447,608.303 560.706,603.241C567.082,594.252 573.092,585.25 578.736,576.293ZM397.46,581.818C400.772,590.196 404.328,598.418 408.123,606.478C404.363,610.207 400.592,613.96 396.819,617.736C396.229,605.738 396.451,593.667 397.46,581.818ZM405.906,566.372C410.229,575.748 415.125,585.02 420.559,594.185C417.469,597.231 414.371,600.29 411.268,603.362C406.725,593.628 402.54,583.668 398.713,573.481L402.182,570.049L405.906,566.372ZM513.081,555.042C519.731,563.224 526.641,571.446 533.844,579.719C527.448,587.2 520.832,594.733 514.036,602.314C506.75,593.63 499.84,584.785 493.28,575.789C500.062,568.833 506.676,561.923 513.081,555.042ZM558.542,556.297C564.173,562.079 569.879,567.771 575.667,573.352C570.078,582.251 564.126,591.196 557.808,600.133C551.442,593.278 545.289,586.456 539.334,579.667C546.001,571.816 552.419,564.024 558.542,556.297ZM470.827,550.15C476.226,558.695 481.899,567.122 487.866,575.425C481.316,582.112 474.613,588.843 467.797,595.625C462.268,586.861 457.106,577.876 452.3,568.68C458.571,562.46 464.756,556.287 470.827,550.15ZM594.985,585.666C597.171,580.144 599.216,574.565 601.119,568.931C602.191,576.82 602.905,584.86 603.255,592.963C600.476,590.558 597.718,588.124 594.985,585.666ZM433.749,538.894C437.873,548.782 442.352,558.456 447.201,567.913C439.44,575.596 431.553,583.35 423.596,591.191C418.183,581.986 413.322,572.68 409.05,563.27C417.377,555.058 425.63,546.939 433.749,538.894ZM595.732,547.527C596.354,548.066 596.978,548.603 597.603,549.138C598.38,552.646 599.081,556.201 599.705,559.791C597.298,567.521 594.624,575.148 591.683,582.674C588.086,579.392 584.522,576.062 580.989,572.69C586.232,564.237 591.146,555.833 595.732,547.527ZM534.717,530.9C541.585,538.473 548.55,545.952 555.629,553.291C549.558,560.967 543.194,568.706 536.576,576.509C529.422,568.281 522.555,560.1 515.943,551.955C522.447,544.907 528.72,537.894 534.717,530.9ZM492.097,528.259C497.996,536.073 504.11,543.921 510.46,551.803C504.112,558.632 497.551,565.494 490.827,572.395C484.875,564.087 479.218,555.654 473.837,547.103C480.061,540.785 486.159,534.506 492.097,528.259ZM577.567,531.102C582.496,535.742 587.479,540.291 592.52,544.724C587.978,552.983 583.11,561.339 577.918,569.74C572.245,564.258 566.653,558.67 561.138,553.001C566.903,545.641 572.392,538.34 577.567,531.102ZM401.11,555.35C402.067,557.688 403.059,560.019 404.086,562.341C402.434,563.969 400.776,565.605 399.116,567.245C399.688,563.234 400.353,559.265 401.11,555.35ZM452.975,519.69C457.902,528.766 463.097,537.726 468.577,546.557C462.594,552.607 456.497,558.694 450.315,564.828C445.493,555.346 441.042,545.642 436.949,535.72C442.363,530.345 447.711,525.004 452.975,519.69ZM424.028,513.33C426.529,520.58 429.202,527.727 432.049,534.759C423.906,542.828 415.618,550.977 407.251,559.222C405.627,555.486 404.095,551.734 402.66,547.968C404.068,541.764 405.714,535.719 407.594,529.883C413.157,524.333 418.642,518.817 424.028,513.33ZM553.673,507.576C560.525,514.592 567.468,521.494 574.52,528.215C569.389,535.413 563.943,542.674 558.224,549.99C551.184,542.683 544.259,535.24 537.436,527.708C543.127,520.982 548.552,514.276 553.673,507.576ZM512.67,505.955C519.012,513.295 525.426,520.593 531.923,527.808C525.985,534.749 519.771,541.711 513.321,548.711C506.985,540.835 500.888,532.997 495.003,525.19C501.079,518.75 506.98,512.342 512.67,505.955ZM471.817,500.378C477.525,508.523 483.438,516.701 489.584,524.916C483.735,531.078 477.728,537.27 471.592,543.503C466.123,534.654 460.946,525.68 456.038,516.592C461.397,511.161 466.663,505.758 471.817,500.378ZM579.997,527.675C582.606,523.964 585.131,520.268 587.565,516.591C590.547,523.87 593.122,531.592 595.281,539.643L594.563,540.977C589.652,536.644 584.798,532.202 579.997,527.675ZM443.469,501.379C445.884,506.245 448.369,511.08 450.931,515.889C445.784,521.088 440.555,526.314 435.263,531.57C432.428,524.486 429.773,517.293 427.293,509.995C429.203,508.039 431.099,506.087 432.98,504.138L430.416,512.848L443.469,501.379ZM556.21,504.223C561.018,497.805 565.538,491.391 569.733,484.975C575.822,492.806 581.122,501.93 585.603,511.996C582.836,516.237 579.946,520.502 576.947,524.782C569.932,518.086 563.025,511.211 556.21,504.223ZM531.349,484.072C537.744,490.963 544.205,497.814 550.748,504.569C545.671,511.24 540.287,517.918 534.639,524.611C528.163,517.412 521.773,510.134 515.453,502.814C520.972,496.549 526.282,490.305 531.349,484.072ZM490.726,480.141C497.075,487.709 503.479,495.278 509.95,502.801C504.329,509.123 498.498,515.467 492.491,521.843C486.354,513.627 480.451,505.45 474.752,497.304C480.219,491.559 485.551,485.841 490.726,480.141ZM419.921,500.835C420.771,503.553 421.645,506.257 422.543,508.951C418.661,512.916 414.722,516.897 410.739,520.895C413.43,513.793 416.493,507.072 419.921,500.835ZM461.779,485.786C464.282,489.492 466.824,493.206 469.409,496.928C464.376,502.188 459.233,507.471 454,512.781C451.499,508.062 449.07,503.311 446.71,498.532L449.976,495.663C453.849,492.26 457.777,488.957 461.779,485.786ZM435.509,495.547C432.324,498.887 429.094,502.235 425.823,505.593C424.77,502.387 423.75,499.159 422.764,495.912C426.114,490.392 429.773,485.313 433.733,480.757C434.956,483.481 436.199,486.197 437.464,488.905L435.509,495.547ZM533.987,480.8C538.428,475.247 542.673,469.699 546.695,464.153C547.761,464.814 548.86,465.521 550,466.276C556.168,470.363 561.831,475.527 566.974,481.58C562.739,488.124 558.162,494.663 553.281,501.208C546.773,494.481 540.346,487.659 533.987,480.8ZM517.41,468.903C521.089,472.94 524.788,476.978 528.507,481.004C523.482,487.206 518.213,493.419 512.732,499.655C506.269,492.136 499.879,484.578 493.543,477.022C495.787,474.525 497.999,472.033 500.177,469.542C506.664,469.749 512.503,469.592 517.41,468.903ZM482.99,470.89C484.673,472.909 486.36,474.928 488.05,476.947C482.963,482.561 477.719,488.194 472.345,493.849C469.884,490.3 467.461,486.756 465.074,483.219C470.866,478.784 476.82,474.642 482.99,470.89ZM457.037,456.55C465.036,448.825 473.366,445.692 482.284,448.956C482.411,449.003 482.543,449.037 482.677,449.058C495.953,451.144 501.398,456.035 503.996,462.109C498.235,462.051 491.815,461.62 485,461C470.713,468.942 457.571,478.955 445,490C448.339,478.656 452.28,467.485 457.037,456.55ZM443.064,471.498C441.725,475.274 440.465,479.073 439.276,482.893C438.44,481.067 437.614,479.236 436.797,477.401C438.814,475.299 440.903,473.328 443.064,471.498ZM522.174,467.951C526.607,466.636 530.174,463.911 532.848,460.323C536.031,460.952 539.293,461.734 542.637,462.671C538.983,467.684 535.147,472.698 531.142,477.724C528.139,474.471 525.15,471.211 522.174,467.951ZM486.621,468.743L486.671,468.714C489.485,468.953 492.23,469.153 494.888,469.304C493.559,470.81 492.218,472.316 490.866,473.824C489.448,472.13 488.033,470.436 486.621,468.743ZM504.8,455.271C515.626,445.647 526.98,440.462 538.969,440.293C549.557,440.143 560.595,443.895 572.162,451.777C577.375,458.185 581.503,464.98 585,472C564.052,461 545.468,454.491 529,452C527.061,456.406 523.808,459.98 519,460.983C515.912,461.628 512.319,461.967 508.328,462.076C508.324,461.839 508.279,461.598 508.189,461.364C507.367,459.227 506.293,457.174 504.8,455.271ZM464.85,428.78C469.337,433.07 472.379,438.035 474.324,443.514C468.209,443.774 462.283,446.502 456.546,451.381L410,470C415.651,459.173 425.685,449.941 440,442.269C438.476,441.721 436.779,441.529 434.859,441.798C444.005,436.2 453.965,431.805 464.85,428.78ZM556.068,418.063C579.673,409.941 594.276,413.275 607,419C586.731,422.166 567.974,427.063 551,434C578.959,435.412 592.192,444.526 599,457C590.313,453.215 581.574,449.257 573.537,447.682C561.651,439.796 550.259,436.072 539.359,436.122C540.275,431.565 543.016,427.821 546.772,424.522C549.443,422.177 552.618,420.059 556.068,418.063ZM469.516,427.582C477.83,425.617 486.668,424.428 496.076,424.082C496.246,424.076 496.409,424.049 496.565,424.005C502.443,429.636 506.977,437.176 508.829,446.722C506.499,448.38 504.193,450.229 501.91,452.265C498.055,448.973 492.317,446.38 483.52,444.973C481.934,444.406 480.361,444.005 478.8,443.765C476.928,437.799 473.944,432.353 469.516,427.582ZM459.279,411.645C459.922,411.543 460.564,411.461 461.202,411.399C470.79,410.463 482.424,413.269 491.897,420.118C462.849,421.939 439.192,431.736 419.557,447.481C419.22,444.955 419.211,442.46 419.512,439.994C433.19,423.531 445.679,414.565 457.307,412.017C457.456,412.034 457.605,412.051 457.754,412.069C458.309,412.135 458.854,411.975 459.279,411.645ZM500.176,421.72C500.218,421.691 500.26,421.66 500.3,421.628C511.268,412.869 524.208,408.556 538.52,407.304C532.157,415.654 526.686,425.222 523.959,438.583C523.945,438.651 523.935,438.718 523.928,438.784C520.079,440.114 516.291,441.937 512.562,444.241C510.433,434.948 505.936,427.467 500.176,421.72ZM428.28,424.521C424.455,428.096 420.548,432.256 416.558,437.033C409.87,437.042 403.183,438.334 396.496,440C406.016,433.537 416.426,428.154 428.28,424.521ZM528.47,437.451C531.52,424.324 537.454,415.162 544.082,406.971C549.43,406.793 554.949,406.998 560.611,407.521C556.095,410.367 552.252,413.66 549.17,417.46C547.318,418.711 545.589,420.016 544.022,421.391C539.257,425.577 535.97,430.424 535.092,436.336C532.866,436.549 530.658,436.921 528.47,437.451ZM446.639,411.417C441.048,414.125 435.259,418.148 429.266,423.611C417.775,417.44 404.222,413.378 390,410C402.082,406.829 416.108,406.747 431.961,409.569C431.918,409.775 431.905,409.992 431.928,410.213C432.045,411.356 433.069,412.19 434.213,412.072C438.337,411.649 442.478,411.409 446.639,411.417ZM479.136,378.66C488.787,384.887 496.11,394.856 501.385,408.183L503.516,414.221C501.523,415.486 499.584,416.868 497.7,418.372C497.484,418.545 497.311,418.752 497.183,418.98C489.943,412.896 481.212,409.197 472.792,407.755C469.82,398.447 465.606,390.318 460.541,382.993C466.243,381.664 471.96,380.548 477.69,379.629C478.315,379.528 478.83,379.16 479.136,378.66ZM510.502,410.356C515.536,402.577 522.249,397.046 530.809,393.948C531.722,394.637 533.023,394.461 533.719,393.551C533.895,393.32 534.072,393.091 534.25,392.862C547.459,389.271 564.657,390.931 586.367,398.429C588.917,401.254 591.132,404.44 593,408C584.333,405.36 575.667,403.586 567,404L566.943,404.028C546.012,401.384 526.781,402.581 510.502,410.356ZM536.363,366.472C532.487,373.679 529.518,381.521 528.12,390.466C518.825,394.117 511.607,400.492 506.257,409.274C505.947,408.428 505.63,407.593 505.305,406.771L502.164,397.871C504.213,388.741 506.539,380.331 509.55,373.62C518.488,370.042 527.426,367.89 536.363,366.472ZM433.1,408.121C429.695,402.972 425.393,398.69 420,395.462C428.16,394.83 436.695,396.373 445.471,399.318C445.165,400.198 445.482,401.207 446.296,401.742C448.799,403.385 451.079,405.296 453.143,407.465C446.64,407.042 440.195,407.27 433.787,407.928C433.542,407.953 433.31,408.02 433.1,408.121ZM433.184,391.105C440.825,388.333 448.499,385.992 456.199,384.048C456.231,384.102 456.266,384.156 456.303,384.209C461.162,391.027 465.255,398.572 468.215,407.19C465.665,406.998 463.174,407.02 460.798,407.252C460.106,407.319 459.412,407.408 458.713,407.517C455.8,403.877 452.429,400.783 448.583,398.258C447.692,397.673 446.515,397.861 445.846,398.659C442.53,395.922 438.832,393.278 433.184,391.105ZM423.092,391.166C415.72,392.741 408.938,395.396 403.22,400C405.598,394.154 409.059,388.898 413.439,384.141C406.106,380.688 398.201,378.75 390,377.593C403.226,373.569 416.552,372.564 430,375.164C431.804,374.012 433.84,373.372 436,373C435.889,372.887 435.779,372.775 435.667,372.662C447.38,370.432 457.611,370.584 466.45,373.017L473.58,375.609C473.831,375.725 474.08,375.842 474.329,375.963C457.498,378.844 440.788,383.425 424.225,390.066C423.697,390.278 423.303,390.682 423.092,391.166ZM581.912,382.828C596.827,381.977 607.536,384.025 614,389C604.897,389.714 596.089,391.375 587.734,394.494C579.885,391.787 572.595,389.823 565.84,388.57C569.493,386.09 574.303,384.629 580.195,384.074C580.978,384 581.619,383.502 581.912,382.828ZM464.889,339.707C475.814,341.994 484.515,344.746 495.502,349.614L495.96,350.239C499.941,356.604 502.953,364.123 505.753,371.906C503.008,378.024 500.798,385.501 498.862,393.65C493.75,385.247 487.465,378.75 479.955,374.264C476.337,361.987 471.411,350.416 464.889,339.707ZM552.096,369.894C548.127,369.314 544.142,368.763 540.14,368.247C536.88,374.27 534.282,380.759 532.794,388.024C538.821,380.748 545.352,375.001 552.096,369.894ZM574.753,380.661C568.784,381.866 564.047,384.156 560.559,387.495C560.493,387.558 560.432,387.625 560.376,387.694C552.321,386.616 545.087,386.624 538.625,387.65C544.185,381.489 550.135,376.509 556.238,371.999C556.7,371.658 556.98,371.161 557.06,370.634C566.118,372.014 575.104,373.533 584.052,375.129C580.893,376.815 577.79,378.649 574.753,380.661ZM514.794,367.287C518.714,362.317 524.362,358.863 531.183,356.864C534.852,355.789 538.851,355.131 543.109,354.883C543.181,354.917 543.255,354.947 543.332,354.973C543.926,355.174 544.547,355.092 545.049,354.799C554.387,354.533 564.863,356.17 575.733,359.652C575.489,359.767 575.244,359.883 575,360C577.041,360.915 579.083,361.866 581.124,362.906C581.25,363.168 581.434,363.408 581.673,363.606C584.706,366.112 587.419,368.939 589.943,371.956C573.905,369.042 557.761,366.337 541.329,364.199C541.352,364.019 541.352,363.833 541.326,363.644C541.166,362.505 540.112,361.71 538.973,361.87C530.913,363 522.853,364.651 514.794,367.287ZM450.142,350.057C436.85,337.209 421.698,329.803 406,324C419.462,321.185 434.386,321.499 453.162,330.061C462.903,342.524 469.901,356.471 474.766,371.573C472.729,370.667 470.612,369.89 468.412,369.245C464.457,362.114 459.793,355.349 453.412,349.468C452.566,348.689 451.247,348.743 450.468,349.588C450.335,349.732 450.226,349.89 450.142,350.057ZM588.976,364.676C595.318,364.307 601.659,364.602 608,365C603.271,366.603 598.598,368.356 594.01,370.342C592.411,368.374 590.743,366.475 588.976,364.676ZM462.842,367.928C453.819,366.28 443.557,366.64 431.98,369.164C429.086,366.577 426.076,364.224 423,362C427.667,360.43 432.333,359.551 437,359C428.906,352.067 420.156,346.182 411,341C424.49,344.376 437.833,348.479 451.091,353.001C455.884,357.524 459.628,362.589 462.842,367.928ZM501.008,343.822C501.317,343.653 501.586,343.403 501.781,343.081C503.413,340.391 505,337.701 506.546,335.011C506.641,334.985 506.734,334.952 506.827,334.912C512.92,332.277 519.693,329.381 526.747,326.483C521.052,336.63 519.321,346.052 519.876,357.309C515.375,360.1 511.714,363.758 509.096,368.279C506.764,360.662 503.721,354.127 499.965,348.693C499.988,348.626 500.009,348.557 500.026,348.487C500.404,346.911 500.733,345.356 501.008,343.822ZM568.069,333.788C574.061,331.887 580.039,330.281 586,329C578.271,335.371 570.958,342.753 564,351C570.253,346.837 577.081,343.568 585,342C583.446,343.45 581.947,344.953 581,347C590.314,344.882 600.401,345.153 611,347C600.752,349.645 590.839,353.006 581.287,357.141C569.346,352.843 557.736,350.668 547.338,350.621C551.062,343.978 559.023,338.775 568.006,333.825C568.027,333.813 568.048,333.801 568.069,333.788ZM575.072,308.221C583.048,306.484 591.024,306.468 599,307C583.812,315.311 572.451,323.669 562.69,332.049C553.467,337.439 545.833,343.404 542.638,350.75C538.128,351.023 533.893,351.728 530.011,352.866C528.471,353.317 526.985,353.836 525.559,354.422C534.109,332.587 544.746,321.824 556.915,315.871C557.434,315.618 557.8,315.177 557.972,314.67C563.386,312.857 568.629,311.267 573.516,310.018C574.382,309.797 574.982,309.061 575.072,308.221ZM543.118,319.997C539.828,321.244 536.533,322.533 533.271,323.837C528.009,331.681 525.311,338.835 524.358,346.549C529.899,334.351 536.211,325.954 543.118,319.997ZM469.512,308.302C472.676,309.712 475.838,311.278 479,313C478.629,311.608 478.226,310.22 477.791,308.837C482.337,309.788 486.912,311.055 491.521,312.684C492.855,314.406 493.964,316.228 494.86,318.143C495.221,318.915 495.547,319.701 495.841,320.501C495.872,320.75 495.902,320.997 495.931,321.246C495.985,321.7 496.182,322.103 496.472,322.415C498.394,328.953 498.265,336.357 496.658,344.407C494.99,342.47 493.206,340.713 491.306,339.136C488.073,336.452 484.504,334.282 480.591,332.641C478.374,323.711 474.389,315.76 469.512,308.302ZM479.89,336.884C483.011,338.286 485.885,340.071 488.514,342.235C479.615,338.848 470.59,336.248 461.453,334.366C461.197,333.989 460.939,333.612 460.678,333.237L460.594,333.043C466.649,333.068 472.132,333.969 477.052,335.739C477.411,336.687 478.42,337.257 479.44,337.036C479.599,337.002 479.749,336.951 479.89,336.884ZM500.354,309.98C500.824,310.134 501.351,310.122 501.839,309.907C507.307,307.5 512.906,305.298 518.613,303.259C513.498,313.678 508.073,324.096 502.02,334.515C502.181,329.151 501.526,324.136 499.918,319.534C499.598,317.024 499.213,314.553 498.765,312.121C499.309,311.408 499.839,310.694 500.354,309.98ZM475.814,330.952C470.604,329.429 464.857,328.736 458.558,328.899C452.76,318.34 442.265,308.192 423,299C436.153,298.371 449.305,300.532 462.46,305.421C468.144,313.248 473.018,321.526 475.814,330.952ZM550.046,299.391C554.596,297.129 559.254,295.363 564,294C559.148,297.76 555.012,302.002 552,307C555.138,307.428 558.191,308.233 561.199,309.239C551.783,312.222 541.668,316 531.848,319.923C531.423,319.954 531.01,320.115 530.673,320.393C523.436,323.3 516.38,326.272 509.911,329.047C510.099,328.708 510.286,328.368 510.473,328.029C510.751,327.965 511.021,327.841 511.263,327.657C523.764,318.126 536.42,309.253 549.158,300.732C549.641,300.409 549.945,299.92 550.046,299.391ZM546.858,294.519C545.954,295.959 545.111,297.438 544.328,298.955C534.48,305.585 524.685,312.436 514.976,319.649C518.182,313.543 521.232,307.436 524.189,301.328C531.604,298.84 539.179,296.6 546.858,294.519ZM472.372,295.272C467.647,285.634 461.031,276.191 452,267C464.908,270.349 476.367,276.037 485.942,284.769C489.36,292.371 492.034,300.427 493.887,308.983C489.143,303.373 482.141,298.717 472.372,295.272ZM501.924,299.829C500.652,302.097 499.219,304.361 497.631,306.622C496.165,300.214 494.249,294.08 491.916,288.2C491.489,275.841 490.296,264.027 488,253C496.168,264.47 501.319,278.022 505.586,292.184C504.771,294.242 503.818,296.297 502.732,298.347C502.253,298.714 501.972,299.258 501.924,299.829ZM474.821,300.681C478.682,302.311 482.002,304.167 484.822,306.237C481.947,305.461 479.086,304.813 476.235,304.281C475.79,303.079 475.32,301.879 474.821,300.681ZM554.145,283.8L554,284C557.616,283.771 560.836,284.796 564,286C560.055,286.744 556.132,287.548 552.431,288.962C552.125,288.896 551.8,288.9 551.476,288.984C542.082,291.424 532.82,294.069 523.787,297.071C522.83,296.68 521.729,297.054 521.206,297.94C515.382,299.93 509.657,302.076 504.06,304.419C504.697,303.378 505.302,302.336 505.875,301.294C515.016,295.681 524.157,290.097 533.3,285.204C533.74,285.825 534.507,286.181 535.311,286.06C541.398,285.141 547.683,284.393 554.145,283.8ZM509.193,294.376C509.269,294.191 509.344,294.005 509.418,293.82C519.599,280.775 531.558,269.83 547,263C543.342,267.731 540.045,272.685 537.709,278.237C528.204,282.96 518.699,288.581 509.193,294.376ZM545.036,278.438C551.414,275.8 558.114,274.124 565,273C562.625,275.005 560.24,276.984 557.987,279.286C552.386,279.739 546.912,280.301 541.575,280.982C542.344,280.611 543.112,280.246 543.88,279.888C544.494,279.602 544.904,279.053 545.036,278.438Z" style="fill:white;"/>
    </g>
</svg>
