<?xml version="1.0" encoding="UTF-8" standalone="no"?>
<!DOCTYPE svg PUBLIC "-//W3C//DTD SVG 1.1//EN" "http://www.w3.org/Graphics/SVG/1.1/DTD/svg11.dtd">
<svg width="100%" height="100%" viewBox="0 0 1000 1000" version="1.1" xmlns="http://www.w3.org/2000/svg" xmlns:xlink="http://www.w3.org/1999/xlink" xml:space="preserve" xmlns:serif="http://www.serif.com/" style="fill-rule:evenodd;clip-rule:evenodd;stroke-linejoin:round;stroke-miterlimit:2;">
    <g transform="matrix(1,0,0,1,-1.7053e-13,18.1292)">
        <path d="M662.021,872.884C663.538,867.825 665.85,862.895 669.637,857.662C742.399,757.116 628.105,756.063 595.85,745.937C539.948,728.389 284.646,599.925 546.937,495.534C690.059,438.572 683.659,381.624 513.308,390.021C392.737,395.964 276.211,427.769 191.106,419.952C119.688,413.393 66.948,387.241 50,362.634C403.232,413.953 405.572,282.6 405.222,274.365C401.784,193.511 206.239,217.652 205.988,295.963C205.754,368.894 340.671,331.845 338.346,282.246C335.975,231.658 252.648,259.445 253.436,286.196C254.328,316.444 303.241,309.309 302.763,297.592C302.664,295.175 301.913,292.781 294.174,287.005C282.372,273.589 323.477,249.547 323.622,287.005C323.768,324.492 231.379,329.999 229.514,290.443C227.079,238.834 378.874,212.558 382.518,281.265C386.667,359.492 143.396,365.254 137.248,311.069C135.847,298.723 150.675,278.632 192.333,247.471C127.101,251.786 91.606,283.839 68.405,279.233C39.458,273.486 197.327,216.184 102.761,139.184L146.933,115.12C157.876,130.966 161.928,146.729 160.893,162.431C159.09,189.779 135.072,214.49 118.712,244.034C193.401,196.786 245.651,149.169 182.517,99.651L224.235,82.462C253.139,136.197 229.383,186.209 170.246,233.721C212.371,213.031 243.137,187.779 250.02,152.935C254.138,132.09 249.709,107.812 234.051,79.024L275.769,68.711C257.389,103.191 282.145,145.462 250.612,180.909C235.616,197.767 218.286,217.838 191.106,232.002L379.468,210.5C252.584,194.682 252.793,138.775 325.125,60.117L368.36,60.117C276.72,145.324 274.885,191.595 559.207,209.39C821.916,225.832 1020.16,484.216 838.928,513.893C658.771,543.393 672.693,597.836 863.597,651.401C982.203,684.679 978.512,832.215 853.688,899.269C850.498,900.983 847.183,902.41 843.76,903.625C840.95,903.586 838.148,903.531 835.35,903.459C855,883.697 873.825,865.768 892.952,850.241C954.91,799.945 943.028,719.565 885.866,671.27C917.981,730.863 915.691,799.176 870.332,843.178C851.611,861.34 829.376,880.423 805.813,902.052C794.753,901.276 783.797,900.218 772.952,898.865C774.56,896.77 776.164,894.668 777.763,892.558C804.962,863.386 833.432,841.582 856.142,821.743C901.383,782.221 902.041,700.025 845.099,658.067C884.011,731.572 877.523,785.381 703.64,766.563C756.256,785.697 789.682,813.185 782.673,858.271C779.576,868.665 765.118,882.681 748.584,895.296C738.406,893.578 728.332,891.584 718.372,889.306C723.524,879.798 726.647,869.425 726.167,864.538C723.376,836.096 694.888,840.721 670.385,875.794C667.588,874.85 664.801,873.88 662.021,872.884ZM723.626,819.848C725.714,829.079 727.09,839.034 728.023,849.438C728.956,859.842 729.445,870.696 729.761,881.726C738.575,854.096 741.827,830.054 723.626,819.848ZM703.993,782.033C718.778,794.343 729.719,808.39 736.861,824.153C744.004,839.916 747.348,857.395 746.939,876.57C773.936,846.539 771.044,815.437 703.993,782.033ZM708.901,622.18C671.441,647.211 657.816,652.42 656.756,678.902C653.671,755.957 804.922,737.069 803.743,696.906C801.999,637.476 698.544,647.642 697.971,674.06C697.456,697.802 745.616,705.011 746.151,689.215C746.444,680.563 741.774,678.63 727.307,677.183C728.768,643.199 777.699,660.696 779.41,690.934C781.983,736.43 676.885,719.492 679.93,677.183C685.535,599.31 825.814,630.348 822.118,694.962C817.345,778.42 639.269,779.468 638.068,678.902C637.924,666.809 653.283,621.96 708.901,622.18ZM826.709,663.432C834.353,677.747 836.175,692.066 832.054,706.39C827.932,720.714 817.868,735.042 801.737,749.375C843.226,726.472 857.191,682.638 826.709,663.432ZM546.937,632.493C559.516,664.441 583.354,674.611 621.784,656.557C615.741,678.79 613.697,700.843 623.547,709.841C632.85,718.34 642.533,729.8 652.459,742.499C572.534,723.171 540.196,685.404 546.937,632.493ZM757.982,515.612C744.26,518.266 717.571,528.741 686.781,528.836C648.324,528.955 609.548,542.121 581.826,557.502C529.215,586.691 513.167,615.979 515.035,673.746C475.423,660.384 506.641,578.917 549.391,552.149C589.504,527.033 658.134,514.457 757.982,515.612ZM587.428,653.119C578.29,644.007 574.293,634.441 575.5,624.417C576.707,614.392 583.116,603.908 594.79,592.96C567.244,593.199 554.25,638.204 587.428,653.119ZM701.214,543.113C674.77,533.115 631.053,546.221 577.612,572.334C620.178,570.565 647.257,573.083 647.708,599.835C647.978,615.854 626.108,634.438 607.06,623.899C606.773,611.705 625.36,623.152 621.389,603.273C619.635,594.496 584.238,601.358 586.201,626.087C588.49,654.914 624.804,650.052 665.953,623.838C683.249,612.82 699.553,608.008 717.491,610.148C708.005,604.803 698.724,594.537 683.935,594.679C671.86,594.794 664.224,584.051 663.502,565.458C675.362,556.257 687.459,547.639 701.214,543.113ZM493.211,568.65C499.902,528.681 552.994,492.336 665.19,460.608C740.981,526.635 844.079,476.779 839.041,449.988C836.709,437.586 833.796,395.854 647.551,398.693C795.974,381.393 861.566,424.204 860.127,450.018C858.782,474.148 790.978,507.457 733.442,506.716C674.004,505.95 593.747,491.749 493.211,568.65ZM721.172,460.608C728.548,436.067 688.994,435.549 689.269,449.233C689.773,474.272 786.096,493.052 790.632,452.014C792.792,432.476 762.133,413.289 670.864,422.794C663.59,423.551 661.048,412.481 661.048,412.481C702.316,394.437 812.185,408.984 816.876,448.577C823.039,500.6 671.123,491.257 670.09,446.858C669.274,411.788 755.576,424.829 754.301,443.954C753.716,452.728 747.974,467.61 721.172,460.608ZM755.528,433.107C761.579,443.993 760.778,454.879 754.301,465.765C765.175,466.192 768.734,455.567 769.089,450.295C769.467,444.689 767.808,433.266 755.528,433.107ZM592.764,381.369C733.097,366.501 834.185,376.968 867.185,431.388C841.606,399.285 775.976,379.43 621.784,386.659C607.116,387.397 599.478,384.614 592.764,381.369ZM323.622,367.791C315.461,379.25 314.147,390.709 328.53,402.168C266.065,419.773 180.639,398.719 184.971,393.573C186.28,392.018 290.395,387.109 323.622,367.791ZM371.098,345.973C365.222,354.833 361.598,363.798 360.382,372.875C359.167,381.952 360.358,391.141 364.113,400.449C332.385,385.369 334.446,367.235 371.098,345.973ZM473.317,213.094L387.426,218.251C435.505,243.192 439.013,282.207 398.469,335.133C447.069,323.369 497.115,339.617 491.722,352.321C468.723,406.493 401.37,378.014 403.436,368.151C406.916,351.535 431.249,354.939 431.598,358.665C432.479,368.053 414.329,366.431 423.009,369.51C447.401,378.16 472.728,371.525 465.955,357.816C442.56,310.468 375.703,355.974 376.997,374.666C379.351,408.659 480.043,387.087 561.661,374.272C675.511,356.396 804.887,369.815 862.277,395.292C843.364,353.07 810.1,310.952 803.381,316.115C747.908,358.735 645.541,362.249 553.072,353.784C481.38,347.222 435.157,311.121 436.543,271.535C437.123,254.949 447.757,235.673 473.317,213.094ZM657.367,347.165C659.031,352.749 767.64,328.436 780.068,299.037C782.005,294.454 768.979,287.935 766.571,290.443C743.113,314.871 663.215,345.077 657.367,347.165ZM639.094,338.908C639.027,338.87 638.983,338.819 638.962,338.757C638.951,338.846 638.996,338.896 639.094,338.908C643.228,341.263 734.13,298.48 748.166,281.848C751.529,277.863 739.691,271.842 735.896,274.973C717.497,290.15 642.688,339.361 639.094,338.908ZM602.152,287.005C592.471,278.386 570.934,275.634 573.931,286.243C583.877,321.451 629.813,305.866 629.85,278.411C629.89,248.588 531.148,214.486 528.294,273.254C524.545,350.46 648.304,353.246 702.766,254.347L719.945,264.66C678.79,307.364 648.116,328.959 614.422,335.133C535.72,349.553 499.601,294.592 503.828,269.816C513.029,215.892 639.519,209.958 643.87,280.253C646.707,326.088 557.419,332.375 556.753,284.371C556.517,267.367 599.31,256.391 602.152,287.005ZM203.376,335.133C205.613,329.677 184.991,322.356 183.744,300.756C183.705,300.092 183.718,299.424 183.744,298.75C184.635,275.316 215.702,256.901 214.419,250.909C213.193,245.188 165.321,273.291 165.036,304.594C164.932,315.913 199.884,343.647 203.376,335.133ZM522.397,214.672C492.522,231.943 474.944,243.062 472.328,261.222C469.525,280.675 484.186,301.207 510.127,328.257C467.743,313.755 459.703,279.334 462.69,261.222C465.87,241.94 488.488,217.735 522.397,214.672ZM335.892,319.663C333.655,314.207 350.119,306.886 351.367,285.286C352.5,265.669 341.926,258.83 343.254,252.628C344.48,246.907 364.628,265.636 363.342,287.005C362.663,298.285 339.384,328.178 335.892,319.663ZM650.005,304.193C657.231,291.483 659.552,279.261 657.065,267.519C654.578,255.777 647.284,244.514 635.281,233.721C666.817,237.622 678.745,278.001 650.005,304.193ZM548.164,254.347C544.876,262.292 542.539,269.908 541.426,277.101C540.313,284.294 540.423,291.065 542.029,297.318C530.813,291.111 528.964,273.218 548.164,254.347ZM518.716,230.283C511.592,239.297 505.997,249.059 502.066,259.636C498.135,270.214 495.868,281.606 495.403,293.88C485.917,275.59 486.525,255.598 518.716,230.283ZM667.183,292.161C678.213,280.662 686.554,267.678 688.042,250.909C682.086,247.341 676.445,245.437 670.864,244.034C674.467,260.076 672.22,276.119 667.183,292.161Z" style="fill:white;"/>
    </g>
</svg>
