<?xml version="1.0" encoding="UTF-8" standalone="no"?>
<!DOCTYPE svg PUBLIC "-//W3C//DTD SVG 1.1//EN" "http://www.w3.org/Graphics/SVG/1.1/DTD/svg11.dtd">
<svg width="100%" height="100%" viewBox="0 0 1000 1000" version="1.1" xmlns="http://www.w3.org/2000/svg" xmlns:xlink="http://www.w3.org/1999/xlink" xml:space="preserve" xmlns:serif="http://www.serif.com/" style="fill-rule:evenodd;clip-rule:evenodd;stroke-linejoin:round;stroke-miterlimit:2;">
    <g transform="matrix(2.86376,0,0,2.86376,-1109.76,-636.153)">
        <path d="M550,496C536.234,500.305 551.634,532.858 560,530C588.347,533.076 612.07,541.661 636,550C649.187,556.465 660.64,555.011 670,544C673.318,530.734 683.336,519.845 687.933,505.74C692.793,490.825 690.263,473.738 697.549,460C708.946,438.508 704.71,420.377 707,402C697.423,427.736 682.014,451.691 680,476.333C679.103,487.302 667.95,494.526 660,502C624.846,507.961 602.705,503.805 592,487C591.165,487.18 588.944,488.382 586.591,490C583.996,491.784 581.62,494.369 580,496.048C577.023,499.136 556.897,493.843 550,496ZM718,350C713.506,372.368 705.171,393.632 697.336,415.606C690.395,435.073 680.83,453.396 667,469C669.587,467.482 672.239,466.656 675,467C678.488,476.785 673.356,486.111 660,495C640.127,503.337 620.963,504.363 603,493C582.63,485.535 598.791,447.495 623.859,402L650,337C635.604,368.24 621.894,401.175 605.265,430C595.944,446.156 593.601,462.615 590,480C589.452,482.644 586.506,485.31 586,488C582.509,489.022 581.176,493.893 578,494.631C569.565,496.591 559.238,493.61 553,494C550.098,494.181 547.432,494.57 545,494.392C535.395,493.689 529.434,490.195 527,484C522.494,433.633 537.936,385.252 556,336C535.2,377.702 523.294,425.769 520,480C517.783,490.427 503.421,490.927 492,489.186C484.116,487.985 477.341,486.182 472,480C466.239,436 463.771,392 466,348C461.455,389.565 462.174,432.02 466,475C461.055,478.961 453.271,479.861 442,477C433.18,473.79 424.982,459.121 418,422L412,341L415,409C409.671,406.436 406.795,400.604 406,392C402.407,340.668 408.731,316.761 418,301C422.681,290.987 432.764,287.081 448,289C458.425,289.471 467.566,285.315 475,275C481.703,260.061 494.416,255.474 513,261C536.208,268.876 556.48,264.283 574,248C589.849,237.079 604.497,236.91 618,247C637.434,265.241 659.493,274.209 685,271C708.216,268.954 717.192,278.619 718,295C719.648,314.372 719.683,332.728 718,350Z" style="fill:white;"/>
    </g>
</svg>
