<?xml version="1.0" encoding="UTF-8" standalone="no"?>
<!DOCTYPE svg PUBLIC "-//W3C//DTD SVG 1.1//EN" "http://www.w3.org/Graphics/SVG/1.1/DTD/svg11.dtd">
<svg width="100%" height="100%" viewBox="0 0 1000 1000" version="1.1" xmlns="http://www.w3.org/2000/svg" xmlns:xlink="http://www.w3.org/1999/xlink" xml:space="preserve" xmlns:serif="http://www.serif.com/" style="fill-rule:evenodd;clip-rule:evenodd;stroke-linejoin:round;stroke-miterlimit:2;">
    <g transform="matrix(17.6471,0,0,17.6471,-9444.12,-8332.35)">
        <path d="M561.403,510.157C560.497,508.887 559.594,507.694 558.692,506.58C556.662,511.298 556.485,516.128 557,521C552.667,517.89 548.333,515.59 544,514C548.923,512.251 553.25,509.131 556.905,504.472C556.282,503.772 555.66,503.112 555.039,502.491C553.273,504.455 552.262,506.47 551.5,508.5L545.5,512C545.225,508.683 546.284,505.139 553.04,500.624C552.494,500.151 551.948,499.709 551.404,499.298L547,501.5L540,499L547,497L551.376,498.751C555.072,496.251 557.716,492.989 559.657,489.213C553.394,487.201 548.417,486.793 553.529,495L551,497L548.029,496C544.799,488.61 545.796,484.933 548.431,483C550.765,481.288 555.734,481.053 561.66,484.476C562.69,481.5 563.427,478.31 564,475C564.686,478.23 565.543,481.355 566.831,484.215C572.553,481.066 577.325,481.333 579.598,483C582.164,484.882 583.176,489.368 580.244,496.426C582.234,497.113 584.473,497.645 587,498C583.135,498.494 579.656,499.451 576.589,500.899C580.205,502.997 580.916,506.862 582,510.5C579.72,509.836 577.669,508.897 576,507.5C575.396,505.765 574.668,504.075 573.744,502.458C573.206,502.798 572.684,503.156 572.177,503.533C574.575,510.413 579.454,511.038 584,512.5C579.381,513.799 574.885,516.688 570.5,521C571.623,515.769 571.536,510.565 569.961,505.394C568.718,506.571 567.591,507.888 566.585,509.348C567.557,510.132 568.528,510.992 569.5,512C569.7,514 569.7,516 569.5,518C569,517.167 568.5,516.333 568,515.5L564.96,512.026C564.731,512.456 564.51,512.897 564.298,513.347L567,516.5L564,526L560.675,516.5L563.615,513.405C563.359,513.013 563.103,512.626 562.847,512.246L560,515.5C559.207,516.214 558.536,517.043 558,518C557.833,515.809 558.384,513.65 558.5,511.5C559.571,510.952 560.322,510.484 561.403,510.157ZM583.63,498C577.88,497.267 572.514,497.287 567.5,498C565.615,492.766 564.677,486.962 564,481C562.774,488.744 561.028,496.422 558.5,504C562.043,503.345 565.92,503.253 570,503.5C568.123,501.697 566.106,500.808 564,500.5C570.16,499.169 576.713,498.349 583.63,498ZM574.33,493.487C576.249,489.806 576.374,488.004 575.336,487.418C574.299,486.831 572.101,487.461 569.373,488.644C570.696,490.462 572.316,492.096 574.33,493.487Z" style="fill:white;"/>
    </g>
</svg>
