<?xml version="1.0" encoding="UTF-8" standalone="no"?>
<!DOCTYPE svg PUBLIC "-//W3C//DTD SVG 1.1//EN" "http://www.w3.org/Graphics/SVG/1.1/DTD/svg11.dtd">
<svg width="100%" height="100%" viewBox="0 0 1000 1000" version="1.1" xmlns="http://www.w3.org/2000/svg" xmlns:xlink="http://www.w3.org/1999/xlink" xml:space="preserve" xmlns:serif="http://www.serif.com/" style="fill-rule:evenodd;clip-rule:evenodd;stroke-linejoin:round;stroke-miterlimit:2;">
    <g transform="matrix(1.5094,0,0,1.5094,-287.706,-438.853)">
        <path d="M820,502.281L280.39,410L223.736,741.286L763.346,833.566L820,502.281ZM640,660L407.24,620.195L399.917,663.02L632.676,702.825L640,660ZM640.083,596.98L453.082,565L450,583.02L637.002,615L640.083,596.98ZM623.082,551.98L436.08,520L432.998,538.02L620,570L623.082,551.98ZM312.114,497.145L300,495.073L311.14,429.934L370,440L364.411,472.679C379.376,478.468 390,493.003 390,510C390,532.077 372.077,550 350,550C327.923,550 310,532.077 310,510C310,505.503 310.744,501.178 312.114,497.145ZM384.566,515.521C381.917,532.218 367.439,545 350,545C333.758,545 320.086,533.913 316.144,518.9L384.566,515.521ZM355.242,525.354C364.123,519.218 371.451,518.228 376.81,523.764C378.162,526.627 376.754,527.317 374.287,527.175C370.179,522.672 363.702,524.058 355.968,528.569C355.685,531.061 353.567,533 351,533C348.321,533 346.131,530.889 346.006,528.24C337.604,524.857 330.921,524.402 327.5,529.5C325.081,530.006 323.587,529.532 324.5,526.5C329.096,520.071 336.757,520.125 346.82,525.257C347.714,523.898 349.253,523 351,523C352.788,523 354.358,523.94 355.242,525.354ZM381.174,494.083C383.62,498.859 385,504.27 385,510C385,511.217 384.938,512.42 384.816,513.605L315.685,516.919C315.236,514.682 315,512.368 315,510C315,505.785 315.747,501.743 317.115,498L358.86,505.139L360.591,495.02L381.174,494.083ZM360.926,493.062L363.549,477.723C370.512,480.652 376.332,485.771 380.144,492.214L360.926,493.062Z" style="fill:white;"/>
    </g>
</svg>
