<?xml version="1.0" encoding="UTF-8" standalone="no"?>
<!DOCTYPE svg PUBLIC "-//W3C//DTD SVG 1.1//EN" "http://www.w3.org/Graphics/SVG/1.1/DTD/svg11.dtd">
<svg width="100%" height="100%" viewBox="0 0 1000 1000" version="1.1" xmlns="http://www.w3.org/2000/svg" xmlns:xlink="http://www.w3.org/1999/xlink" xml:space="preserve" xmlns:serif="http://www.serif.com/" style="fill-rule:evenodd;clip-rule:evenodd;stroke-linejoin:round;stroke-miterlimit:2;">
    <g transform="matrix(4.95925,0,0,4.95925,-1968.41,-1859.31)">
        <path d="M588.422,472.491C588.46,473.571 588.479,474.653 588.479,475.74C588.479,499.292 579.486,520.761 564.745,536.901C564.082,536.578 563.116,536.659 562.293,537.169C561.207,537.841 560.779,539.008 561.338,539.772C561.432,539.9 561.547,540.009 561.68,540.097C560.504,541.266 559.296,542.403 558.056,543.508C557.845,543.581 557.637,543.68 557.437,543.804C556.937,544.113 556.577,544.526 556.388,544.958C540.565,558.381 520.091,566.479 497.74,566.479C490.924,566.479 484.282,565.726 477.892,564.298C478.1,564.149 478.254,563.952 478.334,563.713C478.62,562.853 477.844,561.765 476.601,561.285C475.358,560.806 474.117,561.114 473.831,561.974C473.682,562.42 473.82,562.928 474.161,563.38C470.079,562.283 466.109,560.908 462.273,559.275C462.688,559.131 462.999,558.859 463.125,558.48C463.411,557.62 462.635,556.533 461.392,556.053C460.149,555.573 458.908,555.881 458.622,556.741C458.526,557.028 458.549,557.34 458.669,557.647C447.142,552.133 436.958,544.258 428.743,534.648C433.304,533.194 437.754,530.289 442.088,526.089C450.664,517.781 458.816,504.379 466.569,487.258C466.599,487.192 466.616,487.124 466.622,487.056C510.851,487.387 552.41,483.895 588.422,472.491ZM477.887,556.603C479.13,557.083 479.906,558.171 479.62,559.03C479.334,559.89 478.092,560.199 476.85,559.719C475.607,559.239 474.831,558.151 475.117,557.291C475.403,556.432 476.644,556.123 477.887,556.603ZM469.553,556.186C470.795,556.666 471.572,557.754 471.285,558.613C470.999,559.473 469.758,559.781 468.515,559.301C467.273,558.822 466.496,557.734 466.782,556.874C467.069,556.014 468.31,555.706 469.553,556.186ZM479.419,551.647C480.662,552.127 481.438,553.214 481.152,554.074C480.866,554.934 479.625,555.242 478.382,554.762C477.139,554.282 476.363,553.195 476.649,552.335C476.935,551.475 478.177,551.167 479.419,551.647ZM470.839,551.504C472.081,551.984 472.858,553.071 472.571,553.931C472.285,554.791 471.044,555.099 469.801,554.619C468.559,554.139 467.782,553.052 468.068,552.192C468.355,551.332 469.596,551.024 470.839,551.504ZM462.678,551.371C463.921,551.85 464.697,552.938 464.411,553.798C464.125,554.658 462.883,554.966 461.641,554.486C460.398,554.006 459.622,552.919 459.908,552.059C460.194,551.199 461.435,550.891 462.678,551.371ZM464.21,546.414C465.453,546.894 466.229,547.982 465.943,548.841C465.657,549.701 464.416,550.01 463.173,549.53C461.93,549.05 461.154,547.962 461.44,547.102C461.726,546.243 462.968,545.934 464.21,546.414ZM549.534,545.804C550.62,545.131 551.956,545.205 552.514,545.969C553.073,546.733 552.645,547.9 551.559,548.572C550.473,549.245 549.137,549.171 548.578,548.407C548.019,547.643 548.448,546.476 549.534,545.804ZM407.446,484.781C427.063,486.012 446.422,486.872 465.293,487.045C457.659,503.848 449.656,517.017 441.218,525.192C436.881,529.393 432.437,532.269 427.869,533.61C416.645,520.076 409.275,503.238 407.446,484.781ZM508.375,507.374C505.27,507.65 502.678,510.401 502.589,513.513C502.501,516.626 504.949,518.929 508.054,518.653C511.158,518.377 513.751,515.626 513.839,512.513C513.928,509.401 511.48,507.098 508.375,507.374ZM508.339,508.627C510.754,508.413 512.658,510.204 512.589,512.625C512.52,515.045 510.504,517.185 508.089,517.4C505.675,517.614 503.77,515.823 503.839,513.402C503.908,510.982 505.925,508.842 508.339,508.627ZM526.946,505.022C523.842,505.298 521.181,508.055 521.009,511.175C520.836,514.295 523.217,516.604 526.321,516.328C529.426,516.052 532.086,513.295 532.259,510.175C532.431,507.055 530.051,504.746 526.946,505.022ZM526.877,506.279C529.291,506.064 531.143,507.86 531.009,510.286C530.875,512.713 528.805,514.857 526.391,515.072C523.976,515.286 522.125,513.491 522.259,511.064C522.393,508.637 524.462,506.493 526.877,506.279ZM499.5,495.375C496.395,495.375 493.875,497.895 493.875,501C493.875,504.105 496.395,506.625 499.5,506.625C502.605,506.625 505.125,504.105 505.125,501C505.125,497.895 502.605,495.375 499.5,495.375ZM516.703,495.022C513.61,495.292 511.008,498.05 510.896,501.177C510.785,504.303 513.205,506.621 516.297,506.35C519.39,506.079 521.992,503.321 522.104,500.195C522.215,497.069 519.795,494.751 516.703,495.022ZM499.5,496.625C501.915,496.625 503.875,498.585 503.875,501C503.875,503.415 501.915,505.375 499.5,505.375C497.085,505.375 495.125,503.415 495.125,501C495.125,498.585 497.085,496.625 499.5,496.625ZM516.658,496.28C519.063,496.07 520.945,497.873 520.858,500.304C520.771,502.736 518.748,504.881 516.342,505.091C513.937,505.302 512.055,503.499 512.142,501.068C512.229,498.636 514.252,496.491 516.658,496.28ZM534.313,492.522C531.208,492.798 528.547,495.555 528.375,498.675C528.203,501.795 530.583,504.104 533.687,503.828C536.792,503.552 539.453,500.795 539.625,497.675C539.797,494.555 537.417,492.246 534.313,492.522ZM534.243,493.779C536.658,493.564 538.509,495.36 538.375,497.786C538.241,500.213 536.172,502.357 533.757,502.572C531.342,502.786 529.491,500.991 529.625,498.564C529.759,496.137 531.828,493.993 534.243,493.779ZM534.617,392.819C540.023,395.228 545.15,398.152 549.939,401.528C550.204,401.916 550.597,402.264 551.08,402.505C551.237,402.583 551.396,402.646 551.555,402.694C553.01,403.768 554.432,404.885 555.816,406.04C555.781,406.834 556.385,407.731 557.34,408.207C557.786,408.429 558.243,408.527 558.656,408.511C575.924,424.17 587.14,446.378 588.367,471.197C574.789,475.519 560.417,478.708 545.412,480.984C547.471,476.498 548.619,471.51 548.619,466.256C548.619,446.732 532.768,430.881 513.244,430.881C493.72,430.881 477.869,446.732 477.869,466.256C477.869,473.451 480.022,480.148 483.719,485.736C459.06,486.151 433.423,485.162 407.33,483.522C407.111,480.952 407,478.359 407,475.74C407,470.231 407.492,464.836 408.433,459.603C453.622,447.749 491.253,428.869 534.617,392.819ZM496.58,485.385C491.243,480.732 487.869,473.885 487.869,466.256C487.869,463.021 488.476,459.926 489.582,457.079C487.686,456.174 486.375,454.239 486.375,452C486.375,448.895 488.895,446.375 492,446.375C493.459,446.375 494.789,446.932 495.79,447.845C500.34,443.529 506.485,440.881 513.244,440.881C519.633,440.881 525.474,443.247 529.936,447.15L535.891,440.737C529.863,435.383 521.931,432.131 513.244,432.131C494.41,432.131 479.119,447.422 479.119,466.256C479.119,473.483 481.371,480.188 485.211,485.71C489.025,485.637 492.816,485.529 496.58,485.385ZM530.69,482.911C534.827,478.58 537.369,472.713 537.369,466.256C537.369,452.941 526.559,442.131 513.244,442.131C506.801,442.131 500.945,444.662 496.615,448.784C497.251,449.696 497.625,450.805 497.625,452C497.625,455.105 495.105,457.625 492,457.625C491.576,457.625 491.162,457.578 490.764,457.489C489.702,460.207 489.119,463.164 489.119,466.256C489.119,473.999 492.775,480.895 498.454,485.311C509.441,484.853 520.203,484.077 530.69,482.911ZM543.923,481.207C546.131,476.69 547.369,471.616 547.369,466.256C547.369,462.609 546.796,459.096 545.735,455.802L537.676,459.383C538.291,461.57 538.619,463.875 538.619,466.256C538.619,472.527 536.34,478.269 532.565,482.698C536.389,482.255 540.176,481.759 543.923,481.207ZM513.244,452.512C520.83,452.512 526.988,458.67 526.988,466.256C526.988,473.841 520.83,480 513.244,480C505.659,480 499.5,473.841 499.5,466.256C499.5,458.67 505.659,452.512 513.244,452.512ZM526.956,389.814C529.12,390.551 531.247,391.367 533.334,392.259C490.523,427.759 453.283,446.469 408.689,458.244C409.169,455.79 409.748,453.372 410.421,450.993C451.883,439.593 487.202,421.891 526.956,389.814ZM536.811,441.584C540.573,445.179 543.517,449.626 545.329,454.614L537.305,458.18C535.993,454.276 533.757,450.794 530.857,447.996L536.811,441.584ZM492,447.625C494.415,447.625 496.375,449.585 496.375,452C496.375,454.415 494.415,456.375 492,456.375C489.585,456.375 487.625,454.415 487.625,452C487.625,449.585 489.585,447.625 492,447.625ZM410.834,449.582C422.07,412.239 456.749,385 497.74,385C507.435,385 516.778,386.524 525.544,389.347C486.44,420.786 451.599,438.278 410.834,449.582ZM454.468,416.719C455.554,416.046 456.89,416.12 457.449,416.884C458.007,417.648 457.579,418.815 456.493,419.487C455.407,420.16 454.071,420.086 453.512,419.322C452.954,418.558 453.382,417.391 454.468,416.719ZM451.274,412.772C452.36,412.099 453.696,412.173 454.255,412.937C454.813,413.701 454.385,414.868 453.299,415.54C452.213,416.213 450.877,416.139 450.318,415.375C449.76,414.611 450.188,413.444 451.274,412.772ZM459.085,410.407C460.171,409.734 461.506,409.808 462.065,410.572C462.624,411.336 462.196,412.503 461.109,413.175C460.023,413.848 458.688,413.774 458.129,413.01C457.57,412.246 457.998,411.079 459.085,410.407ZM556.953,409.821C558.096,410.391 558.736,411.566 558.381,412.443C558.025,413.32 556.808,413.57 555.664,413C554.521,412.43 553.881,411.256 554.237,410.379C554.592,409.501 555.809,409.252 556.953,409.821ZM447.988,408.46C449.074,407.787 450.409,407.861 450.968,408.625C451.527,409.389 451.099,410.556 450.012,411.228C448.926,411.901 447.591,411.827 447.032,411.063C446.473,410.299 446.901,409.132 447.988,408.46ZM467.228,408.084C468.314,407.411 469.65,407.485 470.208,408.249C470.767,409.013 470.339,410.18 469.253,410.852C468.167,411.525 466.831,411.451 466.272,410.687C465.713,409.923 466.142,408.756 467.228,408.084ZM455.891,406.46C456.977,405.787 458.312,405.861 458.871,406.625C459.43,407.389 459.002,408.556 457.915,409.228C456.829,409.901 455.494,409.827 454.935,409.063C454.376,408.299 454.804,407.132 455.891,406.46ZM550.693,404.119C551.836,404.689 552.476,405.863 552.12,406.741C551.765,407.618 550.547,407.867 549.404,407.298C548.26,406.728 547.621,405.553 547.976,404.676C548.332,403.799 549.549,403.549 550.693,404.119ZM464.034,404.137C465.12,403.464 466.456,403.538 467.014,404.302C467.573,405.066 467.145,406.233 466.059,406.905C464.973,407.578 463.637,407.504 463.078,406.74C462.519,405.976 462.948,404.809 464.034,404.137ZM542.896,403.515C544.04,404.084 544.679,405.259 544.324,406.136C543.968,407.014 542.751,407.263 541.607,406.693C540.464,406.124 539.824,404.949 540.18,404.072C540.535,403.195 541.752,402.945 542.896,403.515ZM460.747,399.825C461.833,399.152 463.169,399.226 463.728,399.99C464.287,400.754 463.858,401.921 462.772,402.593C461.686,403.266 460.35,403.192 459.792,402.428C459.233,401.664 459.661,400.497 460.747,399.825ZM544.572,398.722C545.715,399.291 546.355,400.466 545.999,401.343C545.644,402.221 544.426,402.47 543.283,401.9C542.139,401.331 541.5,400.156 541.855,399.279C542.211,398.402 543.428,398.152 544.572,398.722Z" style="fill:white;"/>
    </g>
</svg>
