<?xml version="1.0" encoding="UTF-8" standalone="no"?>
<!DOCTYPE svg PUBLIC "-//W3C//DTD SVG 1.1//EN" "http://www.w3.org/Graphics/SVG/1.1/DTD/svg11.dtd">
<svg width="100%" height="100%" viewBox="0 0 1000 1000" version="1.1" xmlns="http://www.w3.org/2000/svg" xmlns:xlink="http://www.w3.org/1999/xlink" xml:space="preserve" xmlns:serif="http://www.serif.com/" style="fill-rule:evenodd;clip-rule:evenodd;stroke-linejoin:round;stroke-miterlimit:2;">
    <g transform="matrix(4.04473,0,0,4.04473,-1551.86,-1369.7)">
        <path d="M600,532.782L578,532.782C579.871,529.086 580.537,523.011 581,513C591.936,500.747 605.069,491.7 611.158,483C618.865,471.989 615.866,461.246 607.094,454C603.603,451.117 598.905,449.66 589,453C588.312,449.646 589.202,444.779 590,440L505,440C504.461,440.542 521.443,423.654 524,416C525.297,412.116 506.318,404.363 506,403C495.006,393.163 483.495,388.584 471,394C473.523,387.761 479.38,384.459 451,351C448.531,352.118 446.584,355.548 446,365C443.852,362.913 442.31,361.775 441,361C437.614,371.608 434.702,379.601 437.89,388C440.189,394.056 449.736,401.276 453,405C446.325,419.514 451.265,428.206 458,436C432.541,452.933 419.095,475.563 420,505C411.512,505.082 407.134,509.929 407.394,515C407.611,519.245 413.934,529.63 420,532L399,532C423.905,556.625 447.372,583.214 500,570C544.682,581.405 574.883,562.426 600,532.782ZM505.5,476.5C502.274,479.529 498.152,481.367 493.5,482.5C492.603,486.783 489.915,490.563 486,494C495.389,502.267 496.24,514.428 494,528C498.431,524.083 502.861,524.224 507.292,526.5L505.5,476.5ZM584,494L586,463C591.025,462.976 591.632,463.012 594,464C598.275,465.784 601.352,473.199 599.302,479C597.315,484.623 591.332,485.967 584,494ZM503.5,440C501.4,441.659 499.031,442.943 496.5,444C500.976,446.608 501.029,453.755 500.5,461.5C503.227,461.144 505.595,460.364 504.5,455.5L503.5,440ZM565.373,442.61C570.284,442.953 558.256,445.124 551,446C551,446 551.294,447.524 549.484,447.524C542.476,447.527 515.648,448.254 509,448C508.305,447.973 509.594,446 509.594,446C509.594,446 506.87,443.069 508,443C517.297,442.435 558.207,442.11 565.373,442.61Z" style="fill:white;"/>
    </g>
</svg>
