<?xml version="1.0" encoding="UTF-8" standalone="no"?>
<!DOCTYPE svg PUBLIC "-//W3C//DTD SVG 1.1//EN" "http://www.w3.org/Graphics/SVG/1.1/DTD/svg11.dtd">
<svg width="100%" height="100%" viewBox="0 0 1000 1000" version="1.1" xmlns="http://www.w3.org/2000/svg" xmlns:xlink="http://www.w3.org/1999/xlink" xml:space="preserve" xmlns:serif="http://www.serif.com/" style="fill-rule:evenodd;clip-rule:evenodd;stroke-linejoin:round;stroke-miterlimit:2;">
    <g transform="matrix(1.48764,0,0,1.48764,-184.313,-300.422)">
        <path d="M460,720C459.944,723.939 444.189,725.077 445,727C454.911,750.759 438.946,856.514 350,833.067C316.418,824.214 285.483,793.058 330,710L300,700C325.826,795.105 260.601,818.014 220,807.896C185.262,799.239 143.939,732.377 220,680C147.417,621.389 136.566,521.895 195.304,380C219.789,320.852 269.184,279.538 350,257.021C382.835,247.873 417.882,237.662 460,240L460.986,239.948C502.665,237.821 537.421,247.944 570,257.021C650.816,279.538 700.211,320.852 724.696,380C783.434,521.895 772.583,621.389 700,680C776.061,732.377 734.738,799.239 700,807.896C659.399,818.014 594.174,795.105 620,700L590,710C634.517,793.058 603.582,824.214 570,833.067C481.054,856.514 465.089,750.759 475,727C475.804,725.092 460.301,723.956 460.004,720.092L460,720ZM459.533,443.923C449.787,442.347 443.358,442.84 438,444C437.79,442.049 445.58,440.753 460,440L461.332,440.072C474.9,440.835 482.204,442.11 482,444C476.557,442.821 470.009,442.332 460,444L459.533,443.923ZM558,402C558.922,403.438 558.623,404.283 556,404C526.156,385.429 535.499,392.247 554,405C555.443,406.339 555.224,407.737 553,407C527.342,390.808 524.078,389.524 552,409C553.978,411.843 552.892,412.165 550,411L529,396C527.74,394.329 527.123,392.993 531,394C529.497,390.185 531.099,389.862 534,391C530.681,387.581 532.617,387.791 536,389L558,402ZM362,402C361.078,403.438 361.377,404.283 364,404C393.844,385.429 384.501,392.247 366,405C364.557,406.339 364.776,407.737 367,407C392.658,390.808 395.922,389.524 368,409C366.022,411.843 367.108,412.165 370,411L391,396C392.26,394.329 392.877,392.993 389,394C390.503,390.185 388.901,389.862 386,391C389.319,387.581 387.383,387.791 384,389L362,402ZM459.417,408.918C447.198,407.241 436.803,408.086 429,412.483C412.162,421.97 405.243,432.708 414,444C404.145,462.435 427.424,470.651 460,476L460.762,475.874C492.937,470.522 515.778,462.291 506,444C514.757,432.708 507.838,421.97 491,412.483C483.074,408.017 472.472,407.215 460,409L459.417,408.918Z" style="fill:white;"/>
    </g>
</svg>
