<?xml version="1.0" encoding="UTF-8" standalone="no"?>
<!DOCTYPE svg PUBLIC "-//W3C//DTD SVG 1.1//EN" "http://www.w3.org/Graphics/SVG/1.1/DTD/svg11.dtd">
<svg width="100%" height="100%" viewBox="0 0 1000 1000" version="1.1" xmlns="http://www.w3.org/2000/svg" xmlns:xlink="http://www.w3.org/1999/xlink" xml:space="preserve" xmlns:serif="http://www.serif.com/" style="fill-rule:evenodd;clip-rule:evenodd;stroke-linejoin:round;stroke-miterlimit:2;">
    <g transform="matrix(3.63352,0,0,3.63352,-1316.76,-1162.59)">
        <path d="M500,580C474.49,585.902 450.162,574.14 428,530C420.162,496.296 419.635,429.001 423,426C423.758,425.595 433.086,404.805 439,397L437,375L495,376.5L500,381L505,376.5L563,375L561,397C566.914,404.805 576.242,425.595 577,426C580.365,429.001 579.838,496.296 572,530C549.925,573.968 525.7,585.809 500.299,580.068L500,580ZM496,375L435,373L437,397C432.088,404.166 429.355,411.559 425.261,418C415.543,433.287 416.526,469.084 427,528C423.342,514.03 420.282,500.269 417.878,486.74C402.483,480.022 394.557,455.518 398.55,427C399.419,420.797 403.656,417.55 411.585,417.975C411.687,397.604 413.746,377.917 418,359C440.735,325.31 561.831,325.286 582,359C586.254,377.917 588.313,397.604 588.415,417.975C596.344,417.55 600.581,420.797 601.45,427C605.443,455.518 597.517,480.022 582.122,486.74C579.718,500.269 576.658,514.03 573,528C583.474,469.084 584.457,433.287 574.739,418C570.645,411.559 567.912,404.166 563,397L565,373L504,375L500,379L496,375ZM499.637,514.883C492.028,514.687 484.976,516.227 478,518C484.051,515.513 490.52,513.206 500,512.191L500.442,512.239C509.681,513.278 516.044,515.552 522,518C514.913,516.199 507.749,514.638 500,514.894L499.637,514.883ZM500,481C505.275,479.421 510.842,478.205 514,474C518.286,472.621 520.909,472.114 522.148,470.5C524.771,467.08 521.504,460.494 514,459C524.275,466.012 523.656,470.615 513,473C509.587,476.683 504.889,478.947 500,481ZM500,481C494.725,479.421 489.158,478.205 486,474C481.714,472.621 479.091,472.114 477.852,470.5C475.229,467.08 478.496,460.494 486,459C475.725,466.012 476.344,470.615 487,473C490.413,476.683 495.111,478.947 500,481ZM545.576,428.202L525.5,430C520.959,430.195 518.868,432.646 519.152,434.5C519.391,436.057 520.295,439.866 525.5,440L546.5,439C554.72,437.052 556.245,433.478 555.409,431.5C554.79,430.036 552.089,427.241 545.576,428.202ZM454.424,428.202L474.5,430C479.041,430.195 481.132,432.646 480.848,434.5C480.609,436.057 479.705,439.866 474.5,440L453.5,439C445.28,437.052 443.755,433.478 444.591,431.5C445.21,430.036 447.911,427.241 454.424,428.202ZM536.5,431C538.432,431 540,432.568 540,434.5C540,436.432 538.432,438 536.5,438C534.568,438 533,436.432 533,434.5C533,432.568 534.568,431 536.5,431ZM463.5,431C461.568,431 460,432.568 460,434.5C460,436.432 461.568,438 463.5,438C465.432,438 467,436.432 467,434.5C467,432.568 465.432,431 463.5,431ZM535.619,434C536.585,434 537.369,434.448 537.369,435C537.369,435.552 536.585,436 535.619,436C534.653,436 533.869,435.552 533.869,435C533.869,434.448 534.653,434 535.619,434ZM464.381,434C463.415,434 462.631,434.448 462.631,435C462.631,435.552 463.415,436 464.381,436C465.347,436 466.131,435.552 466.131,435C466.131,434.448 465.347,434 464.381,434ZM575,424L558,418C542.288,424.238 524.813,426.955 507,429L511,412C526.571,411.483 541.45,407.958 556,403L575,424ZM425,424L442,418C457.712,424.238 475.187,426.955 493,429L489,412C473.429,411.483 458.55,407.958 444,403L425,424ZM488,495C474.818,493.901 469.922,509.183 469.159,516C468.238,524.239 474.947,538.494 488,540L512,540C525.053,538.494 531.762,524.239 530.841,516C530.078,509.183 525.182,493.901 512,495L488,495Z" style="fill:white;"/>
    </g>
</svg>
