<?xml version="1.0" encoding="UTF-8" standalone="no"?>
<!DOCTYPE svg PUBLIC "-//W3C//DTD SVG 1.1//EN" "http://www.w3.org/Graphics/SVG/1.1/DTD/svg11.dtd">
<svg width="100%" height="100%" viewBox="0 0 1000 1000" version="1.1" xmlns="http://www.w3.org/2000/svg" xmlns:xlink="http://www.w3.org/1999/xlink" xml:space="preserve" xmlns:serif="http://www.serif.com/" style="fill-rule:evenodd;clip-rule:evenodd;stroke-linejoin:round;stroke-miterlimit:2;">
    <g transform="matrix(7.96121,0,0,7.96121,-3373.08,-3345.35)">
        <path d="M465.678,489.167L459.946,481.124L500,450.216L534.882,486.099C542.37,488.198 542.002,491.788 537.426,494.933C537.017,495.214 536.695,495.648 536.287,496.027C527.649,504.048 515.333,514.446 507.613,521.326C496.224,531.476 490.964,532.728 489.52,522.624L483.598,514.315C474.313,509.486 462.172,505.799 448.043,507.056C442.922,508.176 438.814,510.999 435.71,513.825C437.239,504.931 438.735,496.665 438.681,488.73C448.918,494.774 457.695,493.859 465.678,489.167ZM435.71,487.972C435.446,496.611 434.067,504.941 431.886,513.049L429.97,513.168C431.451,504.414 433.294,495.661 433.713,486.907L435.71,487.972ZM498.834,460.191L507.941,462.077L506.054,471.184L515.161,473.071L513.275,482.178L504.168,480.291L502.282,489.398L493.175,487.512L495.061,478.405L485.954,476.518L487.841,467.412L496.947,469.298L498.834,460.191ZM505.849,444.153L510.57,450.216C535.322,431.804 544.604,450.966 527.402,470.222L533.101,475.936C555.007,445.999 538.275,424.109 505.849,444.153ZM497.396,444.507L456.446,475.936C454.175,471.805 453.511,469.957 455.101,468.108L487.252,441.921C491.081,438.895 494.695,440.8 497.396,444.507Z" style="fill:white;"/>
    </g>
</svg>
