<?xml version="1.0" encoding="UTF-8" standalone="no"?>
<!DOCTYPE svg PUBLIC "-//W3C//DTD SVG 1.1//EN" "http://www.w3.org/Graphics/SVG/1.1/DTD/svg11.dtd">
<svg width="100%" height="100%" viewBox="0 0 1000 1000" version="1.1" xmlns="http://www.w3.org/2000/svg" xmlns:xlink="http://www.w3.org/1999/xlink" xml:space="preserve" xmlns:serif="http://www.serif.com/" style="fill-rule:evenodd;clip-rule:evenodd;stroke-linejoin:round;stroke-miterlimit:2;">
    <g transform="matrix(2.15014,0,0,2.14924,-390.779,107.764)">
        <path d="M360,300C392.915,221.818 429.236,154.219 466,88C445.81,110.802 426.698,138.887 408,169C423.624,132.667 437.68,96.333 450.526,60C429.743,91.514 409.25,123.894 389,157C394.748,124.293 400.798,91.778 408,60C393.04,91.223 379.781,123.029 367,155C372.606,112.916 378.005,70.861 375,30C365.097,70.333 354.101,110.667 343,151C335.776,111.667 328.571,72.333 321,33C318.027,60.333 315.46,87.667 313,115C310.14,88.377 307.207,61.906 304,36C302.716,61.653 302.703,87.77 303,114C299.116,86.588 294.915,59.232 290,32C287.193,71.081 285.087,110.535 283,150C273.621,112.856 264.084,75.791 254,39C254.879,84.268 257.506,130.016 261,176C249.075,134.062 237.1,92.755 225,53C230.032,86.333 234.669,119.667 239,153C230.903,126.165 222.193,100.946 213,77C221.187,103.575 228.841,130.244 236,157C226.222,133.443 215.857,111.18 205,90C229.737,169.596 254.249,249.823 277,335C277.789,326.822 279.301,319.298 285.5,316C266.66,299.919 272.555,290.674 274.5,286.903C276.049,283.899 281.309,280.254 289,292C289.652,286.771 291.534,283.784 296,285.5C296.717,277.03 297.649,268.637 296.5,259.5C295.928,255.618 299.485,254.668 302,257C302,257 308.888,263.241 313,265C315.432,266.04 326.817,264.4 326,269C325.286,273.019 307.649,290.721 308,291C308.505,291.424 324.389,274.053 327,270C327.651,268.99 330.113,270.803 330,272C329.542,276.846 315.81,294.444 315,294C315.66,294.684 331.042,278.362 333,274C334.455,270.759 337.878,275.809 337,279C335.858,283.152 332.472,292.602 329,299C332.514,293.742 335.968,288.459 339,283C340.284,285.884 340.039,288.873 338.164,292C335.681,296.139 334.688,301.338 332,306C335.154,301.929 337.322,297.071 342,294.302C345.546,292.204 346.813,287.054 348,282C350.48,288.248 348.446,294.633 347,301C350.574,296.188 354.749,291.872 351,281C355.923,280.798 357.87,287.317 360,293C360.793,287.613 360.001,282.635 354,279C357.067,276.762 360.065,278.534 363,284C362.757,280.157 361.129,277.093 356,276C373.249,266.516 366.757,283.113 360,300ZM623.477,330C624.33,326.018 619.482,270.201 619.1,266.251C617.803,252.839 615.35,241.086 608.67,227.916C605.264,218.715 601.982,209.504 590.607,200.916C589.5,198.325 584.633,195.072 582.607,195.408C578.426,191.465 554.848,187.225 542.607,198.916C543.006,196.158 543.944,193.514 545.107,190.916C542.238,192.469 539.401,194.277 536.607,196.416L536.107,194.416C533.964,195.948 532.149,197.976 530.607,200.416C523.421,200.178 516.507,200.281 513.607,205.416C507.599,206.693 503.315,210.184 499.607,214.416C493.194,217.864 486.595,221.085 484.607,229.916C480.064,235.85 479.223,242.244 480.607,248.916C480.471,254.03 480.559,258.956 480.607,263.916C483.268,256.14 486.693,250.759 490.607,246.916C484.819,256.758 484.041,266.428 488.607,275.916C488.884,272.857 489.469,270.108 490.607,267.916C491.234,273.25 492.393,278.583 493.607,283.916C494.242,274.997 496.911,267.155 502.607,260.916C501.276,272.753 503.327,281.664 509.607,286.916C507.811,277.861 508.038,269.569 512.607,262.916C512.996,269.966 513.69,277.327 514.607,284.916C516.394,275.109 518.428,268.167 520.607,262.916C522.052,270.111 523.071,277.119 523.607,283.916C525.488,279.599 527.23,275.243 528.607,270.916C529.597,274.93 531.492,278.034 533.607,280.916C533.787,275.633 534.072,270.543 534.607,265.916C537.314,270.284 540.359,274.612 543.607,278.916C541.883,273.811 540.459,268.787 539.607,263.916C543.361,267.805 547.552,271.274 552.607,273.916C551.951,270.916 551.475,267.916 551.607,264.916C554.109,266.103 556.736,267.149 559.607,267.916C559.236,264.923 558.915,261.921 558.607,258.916C563.251,263.026 567.629,267.326 578.607,266.916C578.089,265.823 577.744,264.817 577.607,263.916C582.092,264.12 586.778,263.363 591.607,261.916C590.532,261.203 590.042,260.268 590.607,258.916C609.816,259.611 615.179,270.079 601.607,293.916C608.464,304.484 615.846,316.821 623.477,330Z" style="fill:white;"/>
    </g>
</svg>
