<?xml version="1.0" encoding="UTF-8" standalone="no"?>
<!DOCTYPE svg PUBLIC "-//W3C//DTD SVG 1.1//EN" "http://www.w3.org/Graphics/SVG/1.1/DTD/svg11.dtd">
<svg width="100%" height="100%" viewBox="0 0 1000 1000" version="1.1" xmlns="http://www.w3.org/2000/svg" xmlns:xlink="http://www.w3.org/1999/xlink" xml:space="preserve" xmlns:serif="http://www.serif.com/" style="fill-rule:evenodd;clip-rule:evenodd;stroke-linejoin:round;stroke-miterlimit:2;">
    <g transform="matrix(1.82359,0,0,1.82359,-830.321,-416.336)">
        <path d="M718.2,276.293L737,296C901.213,305.556 918.446,441.032 915.343,510C911.94,585.636 867.039,688.491 696,729C906.605,729.084 970.918,595.386 975.858,520C980.797,444.644 944.108,267.523 718.2,276.293ZM696,294.747C625.19,303.308 555.707,351.929 520,406.669C487.623,456.303 465.837,556.653 500,607.067C505.864,615.721 515.136,622.539 525,626C539.148,630.964 548.633,639.431 550,649C554.308,679.157 579.866,680.891 591,679C672.528,665.155 725.621,572.004 742.281,511.178C760.682,443.998 764.319,356.893 696,294.747ZM657.669,350L659,429L721,454L659,503L658,596L614,542L570,610L576,529L526,521L573,469L555,410L605,423L657.669,350Z" style="fill:white;"/>
    </g>
</svg>
