<?xml version="1.0" encoding="UTF-8" standalone="no"?>
<!DOCTYPE svg PUBLIC "-//W3C//DTD SVG 1.1//EN" "http://www.w3.org/Graphics/SVG/1.1/DTD/svg11.dtd">
<svg width="100%" height="100%" viewBox="0 0 1000 1000" version="1.1" xmlns="http://www.w3.org/2000/svg" xmlns:xlink="http://www.w3.org/1999/xlink" xml:space="preserve" xmlns:serif="http://www.serif.com/" style="fill-rule:evenodd;clip-rule:evenodd;stroke-linejoin:round;stroke-miterlimit:2;">
    <g transform="matrix(1.78107,0,0,1.78107,-63.6987,-462.563)">
        <path d="M224.134,450.467L197.909,424.242L93.218,424.242L93.218,500L75.887,500L75.887,424.242L63.837,424.242L63.837,406.911L75.887,406.911L75.887,299.834L93.218,299.834L93.218,299.936L182.965,299.936L182.965,287.784L200.296,287.784L200.296,299.936L276.054,299.936L276.054,317.267L200.296,317.267L200.296,421.325L226.521,447.55L226.521,327.769L406.467,327.769L406.467,447.55L432.693,421.325L432.693,317.267L356.935,317.267L356.935,299.936L432.693,299.936L432.693,287.784L450.023,287.784L450.023,299.936L539.77,299.936L539.77,299.834L557.101,299.834L557.101,406.911L569.151,406.911L569.151,424.242L557.101,424.242L557.101,500L539.77,500L539.77,424.242L435.079,424.242L408.854,450.467L529.166,450.467L529.166,630.414L408.854,630.414L435.079,656.639L539.77,656.639L539.77,580.881L557.101,580.881L557.101,656.639L569.151,656.639L569.151,673.97L557.101,673.97L557.101,781.047L539.77,781.047L539.77,780.945L450.023,780.945L450.023,793.097L432.693,793.097L432.693,780.945L356.935,780.945L356.935,763.614L432.693,763.614L432.693,659.556L406.467,633.33L406.467,753.112L226.521,753.112L226.521,633.33L200.296,659.556L200.296,763.614L276.054,763.614L276.054,780.945L200.296,780.945L200.296,793.097L182.965,793.097L182.965,780.945L93.218,780.945L93.218,781.047L75.887,781.047L75.887,673.97L63.837,673.97L63.837,656.639L75.887,656.639L75.887,580.881L93.218,580.881L93.218,656.639L197.909,656.639L224.134,630.414L103.822,630.414L103.822,450.467L224.134,450.467ZM281.352,780.945L281.352,763.614L301.334,763.614L301.334,780.945L281.352,780.945ZM311.968,763.614L311.968,780.945L321.02,780.945L321.02,763.614L311.968,763.614ZM351.636,780.945L351.636,763.614L331.654,763.614L331.654,780.945L351.636,780.945ZM182.965,676.886L96.237,763.614L182.965,763.614L182.965,676.886ZM450.023,676.886L536.751,763.614L450.023,763.614L450.023,676.886ZM93.218,761.33L180.578,673.97L93.218,673.97L93.218,761.33ZM539.77,761.33L452.41,673.97L539.77,673.97L539.77,761.33ZM526.84,757.408L456.332,686.9L456.332,757.408L526.84,757.408ZM106.148,757.408L176.656,686.9L176.656,757.408L106.148,757.408ZM99.526,680.278L170.565,680.278L99.526,751.316L99.526,680.278ZM533.462,680.278L462.424,680.278L533.462,751.316L533.462,680.278ZM399.698,457.236L399.698,334.538L233.29,334.538L233.29,457.236C233.29,457.236 110.592,457.236 110.592,457.236L110.592,623.644L233.29,623.644C233.29,623.644 233.29,746.343 233.29,746.343L399.698,746.343L399.698,623.644C399.698,623.644 522.397,623.644 522.397,623.644L522.397,457.236L399.698,457.236ZM395.683,461.251L395.683,338.553L237.305,338.553L237.305,461.251C237.305,461.251 114.606,461.251 114.606,461.251L114.606,619.63L237.305,619.63C237.305,619.63 237.305,742.328 237.305,742.328L395.683,742.328L395.683,619.63C395.683,619.63 518.382,619.63 518.382,619.63L518.382,461.251L395.683,461.251ZM439.193,479.091L377.843,479.091L377.843,356.393L255.145,356.393L255.145,417.742L316.494,356.393L377.843,417.742L316.494,479.091L255.145,417.742L255.145,479.091L193.796,479.091L255.145,540.44L193.796,601.79L132.446,540.44L132.446,601.79L255.145,601.79L255.145,663.139L316.494,601.79L377.843,663.139L316.494,724.488L377.843,724.488L377.843,601.79L500.542,601.79L500.542,540.44L439.193,601.79L377.843,540.44L439.193,479.091ZM255.145,724.488L316.494,724.488L255.145,663.139L255.145,724.488ZM316.494,479.091L255.145,540.44L316.494,601.79L377.843,540.44L316.494,479.091ZM75.887,555.601L93.218,555.601L93.218,575.582L75.887,575.582L75.887,555.601ZM557.101,555.601L539.77,555.601L539.77,575.582L557.101,575.582L557.101,555.601ZM75.887,535.915L93.218,535.915L93.218,544.966L75.887,544.966L75.887,535.915ZM539.77,535.915L557.101,535.915L557.101,544.966L539.77,544.966L539.77,535.915ZM500.542,479.091L439.193,479.091L500.542,540.44L500.542,479.091ZM132.446,479.091L132.446,540.44L193.796,479.091L132.446,479.091ZM557.101,525.28L539.77,525.28L539.77,505.298L557.101,505.298L557.101,525.28ZM75.887,525.28L93.218,525.28L93.218,505.298L75.887,505.298L75.887,525.28ZM93.218,319.551L180.578,406.911L93.218,406.911L93.218,319.551ZM539.77,319.551L452.41,406.911L539.77,406.911L539.77,319.551ZM182.965,403.995L96.237,317.267L182.965,317.267L182.965,403.995ZM450.023,403.995L536.751,317.267L450.023,317.267L450.023,403.995ZM99.526,400.603L170.565,400.603L99.526,329.564L99.526,400.603ZM533.462,400.603L462.424,400.603L533.462,329.564L533.462,400.603ZM106.148,323.473L176.656,393.981L176.656,323.473L106.148,323.473ZM526.84,323.473L456.332,393.981L456.332,323.473L526.84,323.473ZM311.968,317.267L311.968,299.936L321.02,299.936L321.02,317.267L311.968,317.267ZM351.636,299.936L351.636,317.267L331.654,317.267L331.654,299.936L351.636,299.936ZM281.352,299.936L281.352,317.267L301.334,317.267L301.334,299.936L281.352,299.936Z" style="fill:white;"/>
    </g>
</svg>
