<?xml version="1.0" encoding="UTF-8" standalone="no"?>
<!DOCTYPE svg PUBLIC "-//W3C//DTD SVG 1.1//EN" "http://www.w3.org/Graphics/SVG/1.1/DTD/svg11.dtd">
<svg width="100%" height="100%" viewBox="0 0 1000 1000" version="1.1" xmlns="http://www.w3.org/2000/svg" xmlns:xlink="http://www.w3.org/1999/xlink" xml:space="preserve" xmlns:serif="http://www.serif.com/" style="fill-rule:evenodd;clip-rule:evenodd;stroke-linejoin:round;stroke-miterlimit:2;">
    <path d="M467.421,219.94C470.469,222.97 474.468,225.011 478.897,225.62C490.643,227.238 501.655,229.764 511.974,233.165C518.216,235.222 524.789,234.068 529.839,230.552C533.283,231.496 536.233,232.648 537.663,233.24C537.877,239.863 541.346,246.033 547.043,249.639C574.448,266.984 595.299,292.454 611.334,323.955C613.877,328.952 618.234,332.456 623.216,334.038C623.168,336.536 623.016,339.154 622.66,341.27C622.06,344.845 622.433,348.516 623.742,351.897C630.391,369.083 635.96,387.611 640.617,407.268C641.373,410.456 642.891,413.405 645.032,415.865C645.623,418.047 651.854,441.104 652.95,447.11C653.202,448.49 653.329,450.329 653.382,451.332C651.361,455.11 650.582,459.459 651.203,463.749C666.749,571.138 663.23,721.795 658.023,853.218C658.023,853.218 234.686,853.218 234.686,853.218L234.686,853.218C231.725,778.357 229.335,683.616 230.676,613.415C232.092,539.257 237.638,470.024 251.306,410.652C252.005,407.616 251.981,404.515 251.301,401.575L252.358,400.135C253.844,398.11 254.939,395.826 255.587,393.4C282.68,291.969 336.953,224.057 444.966,223.487C444.966,223.487 446.374,223.484 446.374,223.484C447.556,223.484 448.732,223.491 449.912,223.508C452.633,223.546 455.333,223.034 457.851,222.002C460.619,220.867 464.829,220.239 467.421,219.94ZM462.472,251.651C466.379,253.28 470.531,254.425 474.848,255.02C484.732,256.381 494.003,258.489 502.685,261.35C508.091,263.131 513.597,263.939 519.006,263.861C522.385,268.057 526.471,271.739 531.172,274.715C554.198,289.288 571.414,310.95 584.886,337.417C587.058,341.684 589.765,345.511 592.886,348.851C593.286,353.543 594.35,358.175 596.065,362.606C602.249,378.589 607.408,395.828 611.74,414.11C612.966,419.286 615.006,424.205 617.762,428.695C619.251,434.225 621.561,442.909 622.883,448.464C621.261,454.783 620.88,461.419 621.832,468.001C636.049,566.205 633.935,730.783 629.458,853.218L263.276,853.218C260.865,784.435 259.181,675.025 260.347,613.982C261.721,542.056 266.97,474.894 280.226,417.309C280.864,414.538 281.258,411.745 281.417,408.958C282.582,406.415 283.533,403.773 284.258,401.058C307.52,313.972 352.327,253.69 445.035,253.164C444.99,253.164 445.035,253.164 445.079,253.163C445.281,253.163 446.194,253.161 446.405,253.16C447.438,253.16 448.466,253.167 449.498,253.182C453.881,253.243 458.243,252.726 462.472,251.651Z" style="fill:white;"/>
    <g transform="matrix(1.41287,0,0,1.41287,-253.768,-220.565)">
        <path d="M290.883,561.672C293.017,518.215 297.343,477.055 305.27,439.917L314,411L312.175,411.913C315.386,400.565 319.015,389.688 323.115,379.328L375.675,300.487C377.548,298.842 379.46,297.242 381.409,295.69L385,300L467.591,261.556C476.459,260.527 485.769,260 495.531,260L496.78,260.003C516.188,260.095 533.801,262.283 549.791,266.376C553.001,272.68 556.97,278.327 570,281.491C574.565,282.599 582.068,284.196 587.934,290C591.036,293.069 605.181,298.453 617.31,302.217C672.218,352.067 692.761,441.563 699.305,546L701,546L701.962,553C704.795,559.14 713.647,561.238 723,563L723,575C722.986,578.436 723.652,578.436 725,575C729.433,573.287 732.389,577.806 734,588L740,615L742,604C741.655,608.443 741.589,612.704 743,616L745,615C747.383,611.342 747.143,609.199 747,607C750.194,614.267 753.261,618.501 756,615C758.455,616.69 761.575,620.045 759.747,623C756.629,628.041 756.373,634.699 758,641C761.608,640.692 764.224,639.304 766,637C769.763,636.362 773.82,641.274 780,640.403C784.648,639.748 788.497,645.676 793,650C797.07,650.394 797.465,652.945 797,656C797.365,660.413 798.8,662.063 800.459,668C800.971,669.831 803.034,670.903 805,672L808,702C810.094,702.072 812.964,704.467 815,703.154C819.018,700.562 822,705.248 822,705.248C827.773,706.912 847.569,739.858 852,760L659.071,760C663.067,661.451 666.312,562.798 654.658,482.295C656.38,479.97 656.919,476.078 655.81,470C654.698,463.908 651.624,445.721 646.929,441.073C643.475,426.497 639.337,412.763 634.407,400.021C636.251,389.042 635.171,377.799 630,377.68C628.694,377.65 627.054,378.041 625.033,378.918C612.45,354.199 595.942,334.338 574.437,320.727C575.314,312.204 566.723,305.144 550,304.016C548.633,303.924 547.443,305.172 546.447,307.57C538.356,304.904 529.723,302.914 520.513,301.646C518.841,296.245 508.013,296.017 498.249,300.019C497.343,300.006 496.439,300 495.531,300L494.489,300.003C410.684,300.437 367.725,352.171 346.706,430.864L340,440L343.556,443.556C333.684,486.439 329.616,536.438 328.593,590C327.557,644.242 329.644,702.139 331.99,760L215,760L220,645C234.463,636.018 247.506,629.945 260,625C266.703,624.187 268.663,619.827 270,615C272.256,613.828 273.961,613.752 275,615C274.855,606.928 277.972,595.867 278.01,591C278.018,589.953 276.44,589.763 275,590L272.328,590L270,571C276.419,567.349 283.666,564.315 290.883,561.672Z" style="fill:white;"/>
    </g>
</svg>
