<?xml version="1.0" encoding="UTF-8" standalone="no"?>
<!DOCTYPE svg PUBLIC "-//W3C//DTD SVG 1.1//EN" "http://www.w3.org/Graphics/SVG/1.1/DTD/svg11.dtd">
<svg width="100%" height="100%" viewBox="0 0 1000 1000" version="1.1" xmlns="http://www.w3.org/2000/svg" xmlns:xlink="http://www.w3.org/1999/xlink" xml:space="preserve" xmlns:serif="http://www.serif.com/" style="fill-rule:evenodd;clip-rule:evenodd;stroke-linejoin:round;stroke-miterlimit:2;">
    <g transform="matrix(1.96937,0,0,1.96937,-482.713,-483.698)">
        <path d="M498.71,727.805C486.481,719.521 480.939,708.382 483,694C472.084,702.716 461.071,705.609 450,705C459.981,695.631 466.823,685.665 470,675C449.451,662.228 433.751,647.792 422,632L414,633C412.739,651.656 405.991,655.91 398,654.385C386.364,652.165 381.614,645.967 385,629L408,616C366.558,567.672 354.703,474.953 363,352L398,363C414.897,359.472 434.441,358.706 455,359C463.446,350.2 473.295,343.481 486,341L486,332L477,328C467.635,354.657 448.887,345.303 445.206,334.818C440.862,322.446 450.164,298.423 487,318L489,314C480.458,308.339 491.293,288.528 499,271L499.363,271.823C507.04,289.142 517.409,308.428 509,314L511,318C547.836,298.423 557.138,322.446 552.794,334.818C549.113,345.303 530.365,354.657 521,328L512,332L512,341C524.705,343.481 534.554,350.2 543,359C563.559,358.706 583.103,359.472 600,363L635,352C643.297,474.953 631.442,567.672 590,616L613,629C616.386,645.967 611.636,652.165 600,654.385C592.009,655.91 585.261,651.656 584,633L576,632C564.249,647.792 548.549,662.228 528,675C531.177,685.665 538.019,695.631 548,705C536.929,705.609 525.916,702.716 515,694C517.077,708.495 511.432,719.695 499,728L498.71,727.805ZM498.374,671.758C471.923,661.48 449.196,644.871 429.757,622.234C390.663,576.707 373.93,514.705 372.735,430C372.447,409.618 372.046,388.566 373,367L398,376C433.749,370.17 465.992,371.35 499,371L500.547,371.015C533.015,371.314 564.808,370.261 600,376L625,367C625.954,388.566 625.553,409.618 625.265,430C624.07,514.705 607.337,576.707 568.243,622.234C548.651,645.049 525.72,661.741 499,672L498.374,671.758ZM485,395L430,395C410.02,396.448 393.698,401.659 395,425L395,495C393.952,514.283 397.685,531.568 425,539L475,539C482.074,539.16 487.35,538.026 490,535L490,630C489.779,638.71 484.912,645.433 475,650L535,650C522.739,645.565 515.516,639.12 515,630L515,545C513.483,539.472 516.544,536.959 525,538L555,539C558.362,539.211 560.394,541.735 562,545L587,586L600,555C593.389,552.504 589.612,545.386 586,538C598.501,534.236 607.154,525.933 610,500L610,480C605.522,462.086 599.423,445.916 581,443L513,442C512.897,417.46 509.386,396.197 485,395ZM514,456L514,526L576,526C588.405,522.951 595.774,515.243 595,500L595,482C594.024,467.048 586.02,458.699 572,456L514,456ZM490,440C487.373,423.782 482.595,411.407 470,413L440,413C425.716,412.199 419.283,419.095 420,433L420,495C419.277,506.987 419.967,516.241 437,520L467,520C477.528,521.08 485.961,517.709 490,505L490,465C489.043,458.518 487.603,452.133 475,448C477.52,442.202 483.279,440.494 490,440Z" style="fill:white;"/>
    </g>
</svg>
