<?xml version="1.0" encoding="UTF-8" standalone="no"?>
<!DOCTYPE svg PUBLIC "-//W3C//DTD SVG 1.1//EN" "http://www.w3.org/Graphics/SVG/1.1/DTD/svg11.dtd">
<svg width="100%" height="100%" viewBox="0 0 1000 1000" version="1.1" xmlns="http://www.w3.org/2000/svg" xmlns:xlink="http://www.w3.org/1999/xlink" xml:space="preserve" xmlns:serif="http://www.serif.com/" style="fill-rule:evenodd;clip-rule:evenodd;stroke-linejoin:round;stroke-miterlimit:2;">
    <g transform="matrix(2.05479,0,0,2.05479,-527.397,-527.397)">
        <path d="M453.542,328.652C464.59,325.659 476.073,323.706 487.871,322.909C497.426,311.495 499.629,296.673 500,281C500.371,296.673 502.574,311.495 512.129,322.909C524.095,323.718 535.737,325.715 546.927,328.78L553.83,320.192L555.599,331.396C566.214,334.899 576.387,339.377 586.016,344.727C593.803,341.204 601.172,336.118 608.265,329.996C604.922,337.94 602.952,346.436 603.79,356.03C612.498,362.321 620.613,369.382 628.04,377.119L638.826,373.065L634.432,384.142C640.708,391.416 646.405,399.204 651.448,407.432C659.714,407.589 668.272,406.285 677.025,404C670.394,409.766 664.791,416.677 661.326,425.92C665.547,435.085 669.009,444.673 671.631,454.6L683.348,456.275L673.866,464.127C675.46,471.876 676.546,479.8 677.091,487.871C688.505,497.426 703.327,499.629 719,500C703.327,500.371 688.505,502.574 677.091,512.129C676.517,520.624 675.344,528.956 673.611,537.091L683.062,544.917L671.31,546.597C668.643,556.411 665.155,565.888 660.922,574.952C664.377,584.358 670.033,591.36 676.739,597.192C667.824,594.865 659.112,593.555 650.704,593.771C645.706,601.781 640.087,609.365 633.911,616.459L638.54,628.127L627.118,623.834C619.893,631.25 612.026,638.036 603.607,644.101C602.523,654.131 604.513,662.96 607.979,671.196C600.57,664.801 592.859,659.537 584.687,656.004C575.425,661.048 565.664,665.29 555.496,668.638L553.544,681L545.905,671.496C535.015,674.408 523.724,676.308 512.129,677.091C502.574,688.505 500.371,703.327 500,719C499.629,703.327 497.426,688.505 487.871,677.091C476.276,676.307 464.985,674.408 454.095,671.496L446.456,681L444.504,668.637C434.337,665.289 424.575,661.046 415.313,656.004C407.141,659.537 399.43,664.801 392.021,671.196C395.487,662.96 397.477,654.131 396.393,644.101C387.972,638.034 380.104,631.248 372.882,623.834L361.46,628.127L366.089,616.459C359.916,609.369 354.297,601.785 349.296,593.771C340.888,593.555 332.176,594.865 323.261,597.192C329.967,591.36 335.623,584.358 339.078,574.952C334.846,565.892 331.357,556.414 328.69,546.597L316.938,544.917L326.389,537.091C324.656,528.956 323.483,520.624 322.909,512.129C311.495,502.574 296.673,500.371 281,500C296.673,499.629 311.495,497.426 322.909,487.871C323.464,479.658 324.579,471.598 326.217,463.722L317.224,456.275L328.346,454.685C331.036,444.486 334.611,434.645 338.987,425.245C335.505,416.338 330.015,409.625 323.547,404C332.096,406.232 340.46,407.528 348.547,407.44C353.696,399.037 359.525,391.095 365.96,383.688L361.746,373.065L372.112,376.961C379.669,369.108 387.941,361.949 396.819,355.592C397.56,346.177 395.599,337.819 392.307,329.996C399.305,336.036 406.572,341.067 414.241,344.583C423.976,339.197 434.267,334.698 445.005,331.198L446.742,320.192L453.542,328.652ZM502.349,673.715L502.495,677.483L502.496,677.548C502.519,680.33 502.232,684 500,684C497.772,684 497.483,680.345 497.504,677.565L497.477,677.566L497.668,673.506C497.856,671.323 498.366,669 500,669C501.687,669 502.176,671.474 502.349,673.715ZM545.194,332.215C534.52,329.344 523.45,327.466 512.082,326.684C505.258,333.295 502.053,343.566 500,355C497.947,343.566 494.742,333.295 487.918,326.684C476.754,327.453 465.879,329.278 455.4,332.059L453.724,344L445.534,334.995C435.795,338.212 426.436,342.267 417.544,347.076C417.378,355.385 418.542,363.694 420.572,372.004C413.636,366.346 406.387,361.882 398.765,358.837C390.358,364.88 382.512,371.654 375.321,379.065L379.877,390L368.509,386.502C362.885,393.011 357.735,399.941 353.114,407.239L353.282,407.226C356.841,415.133 361.718,422.393 367.441,429.238C358.812,427.24 350.424,426.426 342.319,427.018C338.153,435.993 334.731,445.384 332.135,455.108L341.265,462.409L329.852,464.758C328.293,472.311 327.225,480.043 326.684,487.918C333.295,494.742 343.566,497.947 355,500C343.566,502.053 333.295,505.258 326.684,512.082C327.258,520.416 328.421,528.589 330.13,536.55L340.978,538.783L332.35,545.683C335.044,555.576 338.59,565.119 342.908,574.232C350.742,574.706 358.837,573.88 367.155,571.954C361.629,578.564 356.891,585.562 353.367,593.156C358.129,600.634 363.447,607.723 369.268,614.369L379.591,611.192L375.468,621.087C382.891,628.719 391.007,635.672 399.718,641.846C406.888,638.821 413.727,634.538 420.286,629.188C418.366,637.046 417.221,644.904 417.242,652.763C426.408,657.744 436.074,661.924 446.146,665.21L453.438,657.192L454.929,667.817C465.564,670.671 476.593,672.537 487.918,673.316C494.742,666.705 497.947,656.434 500,645C502.053,656.434 505.258,666.705 512.082,673.316C523.41,672.536 534.44,670.668 545.071,667.815L546.562,657.192L553.852,665.207C563.922,661.922 573.589,657.741 582.758,652.76C582.779,644.903 581.634,637.045 579.714,629.188C586.272,634.538 593.111,638.82 600.28,641.845C608.989,635.674 617.106,628.721 624.532,621.087L620.409,611.192L630.733,614.369C636.55,607.726 641.869,600.638 646.634,593.159C643.11,585.563 638.372,578.565 632.845,571.954C641.164,573.881 649.26,574.706 657.095,574.232C661.411,565.124 664.958,555.58 667.652,545.684L659.022,538.783L669.873,536.55C671.581,528.586 672.743,520.414 673.316,512.082C666.705,505.258 656.434,502.053 645,500C656.434,497.947 666.705,494.742 673.316,487.918C672.771,479.998 671.693,472.224 670.12,464.634L659.308,462.409L667.964,455.487C665.349,445.61 661.886,436.076 657.659,426.977C649.74,426.467 641.55,427.289 633.132,429.238C638.762,422.503 643.573,415.367 647.117,407.607C642.467,400.225 637.278,393.216 631.61,386.642L620.695,390L625.079,379.478C617.838,371.965 609.928,365.102 601.442,358.984C593.954,362.025 586.825,366.437 580,372.004C582.005,363.798 583.165,355.593 583.034,347.387C574.102,342.513 564.697,338.401 554.908,335.138L546.848,344L545.194,332.215ZM595.922,649.341C595.895,649.358 593.831,646.202 593.879,646.171C592.669,644.943 591.337,644.393 590.487,644.904C589.624,645.424 589.495,646.895 590.042,648.571C590.081,648.547 591.948,651.826 591.917,651.845C593.209,653.322 594.715,654.031 595.644,653.472C596.586,652.905 596.653,651.204 595.922,649.341ZM408.083,651.845C408.049,651.824 409.927,648.555 409.957,648.573C410.505,646.896 410.376,645.424 409.513,644.904C408.663,644.393 407.33,644.943 406.119,646.172C406.162,646.2 404.118,649.366 404.078,649.341C403.347,651.204 403.414,652.905 404.356,653.472C405.285,654.031 406.791,653.322 408.083,651.845ZM446,377C401.102,409.423 446.414,410.989 459,404C476.801,394.115 494.291,371.2 455,374C467.64,369.099 480.958,367.036 495,368C483.844,380.388 484.046,393.418 494,407L499,400C498.659,392.533 495.534,390.015 491,390C494.766,383.408 498.132,376.254 500,367C501.868,376.254 505.234,383.408 509,390C504.466,390.015 501.341,392.533 501,400L506,407C515.954,393.418 516.156,380.388 505,368C519.042,367.036 532.36,369.099 545,374C505.709,371.2 523.199,394.115 541,404C553.586,410.989 598.898,409.423 554,377C554.452,377.08 554.9,377.164 555.343,377.252L555,377C555.371,377.136 555.74,377.272 556.102,377.408C563.987,379.066 570.457,381.944 574.825,385.908C607.546,410.336 617.945,440.989 617,490C622.426,469.131 622.085,448.151 613,427C630.924,456.301 640.186,488.467 635,527C629.548,478.977 611.085,521.485 609.077,528.44C607.144,535.137 597.572,588.168 633,544C611.06,602.09 572.441,633.347 514,639C546.326,630.834 582.885,602.345 578.509,575C576.135,560.169 518.519,584.611 502.108,614.914C518.916,613.183 536.899,603.985 548,599C532.702,614.506 515.165,619.831 499.736,620.104C498.985,622.126 498.434,624.169 498.112,626.22C498.073,626.479 498.036,626.739 498,627C498.034,626.738 498.071,626.477 498.112,626.22C498.416,624.155 498.791,622.119 499.246,620.111C488.68,620.227 479.127,617.984 472,615.046C459.195,609.766 444.007,599.767 440.5,603.717C436.524,608.195 447.498,624.103 480,637C440.616,629.968 405.021,614.052 381,571C424.011,616.248 406.413,563.167 403.246,557C400.928,552.486 368.808,505.139 374,558C360.689,523.333 357.684,488.667 372,454C363.989,493.328 373.801,527.755 417,553C421.431,542.058 419.896,530.892 399,519C420.689,529.158 458.674,553.273 461,573.669C464.929,608.115 481.871,616.47 500.584,615.05C505.981,597.317 518.524,581.932 545,568.807C585.568,548.695 591.05,512.209 587.293,510C576.009,503.367 546.876,528.114 520,580C532.575,543.339 550.961,508.761 580,478C567.41,499.832 563.128,508.812 564.184,508.43C574.794,504.591 605.972,475.387 595,466C579.842,453.031 527.406,481.57 501.306,528.448L501,529L522,558C512.012,570.636 505.582,585.1 500,600L499.738,599.302C494.216,584.649 487.832,570.439 478,558L499,529C498.375,527.571 497.706,526.16 496.994,524.765C467.784,484.996 437.944,484.168 430.87,490C424.716,495.074 424.156,531.256 473,547C431.79,535.294 399.949,514.35 389,473C391.904,479.713 396.736,486.744 409,495C424.794,472.979 417.954,460.618 400,453C422.533,440.152 419.693,419.436 416.052,417C412.534,414.647 396.807,411.673 381,436C392.802,411.844 410.306,387.454 446,377ZM463,603C455.368,589.993 458.775,581.756 456,572C454.502,566.734 442.388,554.958 436,556C431.973,556.657 432.825,569.632 435.554,576C439.636,585.525 449.605,594.44 463,603ZM345.39,587.2C345.383,587.187 348.672,585.34 348.698,585.387C350.37,583.984 351.187,582.29 350.555,581.309C349.956,580.38 348.24,580.369 346.388,581.17C346.399,581.19 343.301,583.398 343.269,583.339C342.108,584.573 341.617,585.9 342.148,586.724C342.645,587.496 343.914,587.634 345.39,587.2ZM656.731,583.339C656.702,583.392 653.583,581.229 653.615,581.171C651.762,580.369 650.044,580.38 649.445,581.309C648.813,582.291 649.63,583.985 651.304,585.389C651.324,585.353 654.663,587.104 654.61,587.2C656.086,587.634 657.355,587.496 657.852,586.724C658.383,585.9 657.892,584.573 656.731,583.339ZM500,540C498.045,546.644 495.641,553.302 492,560C495.196,566.599 497.729,573.7 500,581L500.214,580.316C502.43,573.256 504.904,566.392 508,560C504.359,553.302 501.955,546.644 500,540ZM593,540C614.823,501.333 615.5,462.667 596,424C599.681,438.544 602.231,453.471 603,469C595.72,446.021 588.788,438.17 580,429C605.234,458.515 607.92,495.631 593,540ZM500,496C496.925,497.419 495.714,499.342 495.877,501.636C496.04,503.93 497.578,506.595 500,509.5C504.844,503.691 506.15,498.838 500,496ZM678,502.497C680.711,502.483 684,502.113 684,500C684,497.768 680.33,497.481 677.548,497.504L677.483,497.505L673.715,497.651C671.474,497.824 669,498.313 669,500C669,501.635 671.323,502.144 673.507,502.332L673.5,502.5L678,502.5L678,502.497ZM322.517,497.505C319.728,497.477 316,497.75 316,500C316,502.113 319.289,502.483 322,502.497L322,502.5L326.5,502.331C328.682,502.143 331,501.633 331,500C331,498.367 328.682,497.857 326.5,497.669L322.517,497.505ZM484.694,410.929L485,411C476.831,417.744 481.669,423.393 487,429C483.225,420.056 486.145,418.571 487.895,418.122C490.573,417.433 496.057,423.287 498,447C492.739,441.793 487.385,438.578 482,436C492.879,447.954 499.636,460.437 498,474C496.366,483.885 492.455,491.918 486.432,498.231C473.517,475.883 455.239,459.218 429,451C443.202,426.307 458.71,405.005 484.694,410.929ZM571.088,447.307C552.746,413.667 534.016,403.614 515,411C523.169,417.744 518.331,423.393 513,429C516.775,420.056 513.855,418.571 512.105,418.122C509.427,417.433 503.943,423.287 502,447C507.261,441.793 512.615,438.578 518,436C507.121,447.954 500.364,460.437 502,474C503.507,483.117 506.951,490.659 512.203,496.729C523.752,477.039 543.409,461.156 571,449L571.088,447.307ZM348.314,415.29C348.295,415.324 344.814,413.827 344.828,413.802C343.728,413.638 342.833,413.849 342.434,414.468C341.999,415.144 342.25,416.156 342.994,417.18C342.996,417.176 343.593,417.668 344.249,418.215C345.057,418.889 345.955,419.647 345.944,419.668C348.058,420.81 350.164,420.934 350.841,419.883C351.553,418.778 350.427,416.77 348.314,415.29ZM654.173,419.898C654.143,419.841 657.204,417.553 657.235,417.612C658.237,416.449 658.635,415.239 658.138,414.468C657.679,413.755 656.561,413.583 655.229,413.903C655.251,413.943 651.922,415.718 651.851,415.591C650.003,417.032 649.067,418.851 649.731,419.883C650.359,420.858 652.218,420.822 654.173,419.898ZM500,404C497.707,405.878 496.578,407.649 496.587,409.315C496.595,410.98 497.742,412.541 500,414C504.516,411.083 504.587,407.756 500,404ZM594.735,354.381C594.727,354.376 596.442,350.996 596.484,351.023C596.899,349.501 596.73,348.202 595.93,347.72C595.147,347.249 593.954,347.679 592.825,348.71C592.846,348.723 590.703,351.829 590.647,351.795C589.759,353.797 589.771,355.684 590.773,356.288C591.759,356.881 593.394,356.046 594.735,354.381ZM409.801,351.525C409.709,351.581 407.511,348.504 407.511,348.504C406.454,347.623 405.37,347.282 404.642,347.72C403.935,348.146 403.721,349.209 403.967,350.5L403.967,350.5C403.98,350.567 405.794,354.041 405.647,354.137C407.02,355.963 408.766,356.91 409.799,356.288C410.847,355.657 410.812,353.625 409.801,351.525ZM500,331C500.949,331 502.101,329.349 502.5,327C502.811,325.174 502.469,322.517 502.495,322.517C502.523,319.728 502.25,316 500,316C497.755,316 497.478,319.712 497.505,322.5L497.5,322.5L497.5,326.5C497.5,326.5 498.365,331 500,331Z" style="fill:white;"/>
    </g>
</svg>
