<?xml version="1.0" encoding="UTF-8" standalone="no"?>
<!DOCTYPE svg PUBLIC "-//W3C//DTD SVG 1.1//EN" "http://www.w3.org/Graphics/SVG/1.1/DTD/svg11.dtd">
<svg width="100%" height="100%" viewBox="0 0 1000 1000" version="1.1" xmlns="http://www.w3.org/2000/svg" xmlns:xlink="http://www.w3.org/1999/xlink" xml:space="preserve" xmlns:serif="http://www.serif.com/" style="fill-rule:evenodd;clip-rule:evenodd;stroke-linejoin:round;stroke-miterlimit:2;">
    <g transform="matrix(0.966702,0,0,0.966702,17.1321,8.43179)">
        <path d="M500,100.004L766,101C733.377,176.661 706.527,250.905 703,336C793.264,331.138 881.081,310.804 965,291L965,704C879.962,684.9 791.859,662.028 702,660C715.078,744.402 731.403,824.751 773,916L500,916.996L500,917L499.5,916.998L499,917L499,916.996L226,916C267.597,824.751 283.922,744.402 297,660C207.141,662.028 119.038,684.9 34,704L34,291C117.919,310.804 205.736,331.138 296,336C292.473,250.905 265.623,176.661 233,101L499,100.004L499,100L499.5,100.002L500,100L500,100.004ZM704,910C690.058,879.268 678.155,843.626 665.048,806.676C640.419,737.246 620.778,659.962 626,593C739.945,595.123 850.494,610.593 958,638L959,696C869.333,671.192 781.178,658.527 695,654C699.115,722.306 724.391,824.899 764,910L704,910ZM295,910C308.942,879.268 320.845,843.626 333.952,806.676C358.581,737.246 378.222,659.962 373,593C259.055,595.123 148.506,610.593 41,638L40,696C129.667,671.192 217.822,658.527 304,654C299.885,722.306 274.609,824.899 235,910L295,910ZM697,108C647.39,193.063 624.949,290.184 627,400C740.459,395.797 851.054,380.521 959,355L959,300C867.881,324.974 779.887,339.62 695,344C693.433,275.77 712.599,193.044 754,108L697,108ZM302,108C351.61,193.063 374.051,290.184 372,400C258.541,395.797 147.946,380.521 40,355L40,300C131.119,324.974 219.113,339.62 304,344C305.567,275.77 286.401,193.044 245,108L302,108Z" style="fill:white;"/>
    </g>
</svg>
