<?xml version="1.0" encoding="UTF-8" standalone="no"?>
<!DOCTYPE svg PUBLIC "-//W3C//DTD SVG 1.1//EN" "http://www.w3.org/Graphics/SVG/1.1/DTD/svg11.dtd">
<svg width="100%" height="100%" viewBox="0 0 1000 1000" version="1.1" xmlns="http://www.w3.org/2000/svg" xmlns:xlink="http://www.w3.org/1999/xlink" xml:space="preserve" xmlns:serif="http://www.serif.com/" style="fill-rule:evenodd;clip-rule:evenodd;stroke-linejoin:round;stroke-miterlimit:2;">
    <g transform="matrix(2.50666,0,0,2.37868,-528.391,-257.312)">
        <path d="M400.24,129.553C406.9,129.107 413.626,129.046 420.449,129.546C460.208,127.788 490.41,139.032 512,162C538.007,200.049 553.531,249.319 549.089,280C547.256,292.659 545.838,304.607 544.435,316C544.27,317.341 543.694,318.688 543.944,320C552.512,364.912 546.478,399.544 529,436C537.659,433.784 543.362,426.621 547,416C552.737,428.442 549.227,439.614 540,450C541.216,449.996 542.798,449.724 545,449C542.374,456.974 535.976,463.74 528,470C528.329,470.667 529.286,471.333 531,472C522.548,474.896 517.579,478.887 513,483C514.601,483.926 516.28,484.148 518,484C497.659,497.523 487.881,494.627 476,495C479.239,498.101 484.829,500.782 493,503C490.344,503.668 488.271,504.335 479,505C468.563,511.056 459.565,505.249 451,499C469.781,484.154 483.234,469.192 486,454C484.016,451.851 480.149,449.906 473,449C474.649,447.092 477.592,445.491 481,444C476.667,443.014 472.333,443.706 468,446C471.61,439.169 477.892,435.875 486,435C465.091,432.29 458.705,420.319 456,406C459,408.469 462,410.008 465,410C461.607,401.144 462.231,393.105 465,385.5C476.473,393.906 485.357,391.067 494.376,387C498.924,384.949 500.227,378.618 502.769,370C503.295,368.217 504.924,362.361 502.981,354C500.552,343.542 498.713,328.664 500.5,311L503,317C504.592,309.75 505.206,301.963 505.5,294C506.49,302.136 507.926,309.133 510,314.5C512.659,309.36 515.322,302.901 518,292C519.554,295.764 521.477,299.269 524.5,302C530.556,284.203 530.741,266.464 523.799,250C528.679,266.776 528.32,283.433 524.025,300C521.325,296.56 519.473,293.269 517.743,290C515.666,297.907 513.11,305.628 510,313.136C508.403,305.782 506.927,297.961 505.486,290L502.484,314.781L500,306.091C498.6,310.87 496.567,315.457 494.389,320C494.24,313.144 492.857,307.94 490,304.711C488.223,309.358 485.199,311.694 480,310L480,307.748L477.122,310C477.914,298.381 478.519,286.755 477.803,275.253C477.69,286.153 475.8,296.93 470,307.435C462.453,308.144 455.8,307.087 452.203,300C451.91,302.816 449.499,304.284 445.974,305.043C445.718,302.19 444.682,300.571 442.984,300C441.338,304.169 438.348,305.635 434.844,306.065C434.912,303.305 434.355,301.429 433.482,300C431.216,303.478 430.38,307.605 430,311.94C428.727,306.088 428.818,300.269 430,294.477C426.438,303.432 420.33,309.312 413.223,313.986C416.199,301.293 422.068,288.413 419.416,276C415.834,259.239 413.706,243.818 412.518,229.272C410.637,234.811 408.574,240.048 406.374,245.054C405.135,254.893 403.427,265.166 401.112,276C398.459,288.413 404.329,301.293 407.304,313.986C400.198,309.312 394.09,303.432 390.528,294.477C391.71,300.269 391.801,306.088 390.528,311.94C390.148,307.605 389.311,303.478 387.046,300C386.172,301.429 385.616,303.305 385.684,306.065C382.179,305.635 379.19,304.169 377.543,300C375.846,300.571 374.81,302.19 374.553,305.043C371.028,304.284 368.617,302.816 368.324,300C364.727,307.087 358.075,308.144 350.528,307.435C344.727,296.93 342.837,286.153 342.725,275.253C342.009,286.755 342.613,298.381 343.406,310L340.528,307.748L340.528,310C335.329,311.694 332.305,309.358 330.528,304.711C327.671,307.94 326.288,313.144 326.139,320C323.96,315.457 321.927,310.87 320.528,306.091L318.044,314.781L315.041,290C313.601,297.961 312.124,305.782 310.528,313.136C307.418,305.628 304.862,297.907 302.785,290C301.054,293.269 299.203,296.56 296.503,300C292.208,283.433 291.848,266.776 296.729,250C289.787,266.464 289.971,284.203 296.028,302C299.051,299.269 300.974,295.764 302.528,292C305.206,302.901 307.869,309.36 310.528,314.5C312.601,309.133 314.037,302.136 315.028,294C315.321,301.963 315.935,309.75 317.528,317L320.028,311C321.814,328.664 319.976,343.542 317.546,354C315.604,362.361 317.233,368.217 317.759,370C320.3,378.618 321.604,384.949 326.151,387C335.17,391.067 344.055,393.906 355.528,385.5C358.296,393.105 358.92,401.144 355.528,410C358.528,410.008 361.528,408.469 364.528,406C361.823,420.319 355.437,432.29 334.528,435C342.636,435.875 348.917,439.169 352.528,446C348.194,443.706 343.861,443.014 339.528,444C342.935,445.491 345.879,447.092 347.528,449C340.378,449.906 336.512,451.851 334.528,454C337.293,469.192 350.747,484.154 369.528,499C360.962,505.249 351.965,511.056 341.528,505C332.257,504.335 330.184,503.668 327.528,503C335.699,500.782 341.288,498.101 344.528,495C332.647,494.627 322.869,497.523 302.528,484C304.248,484.148 305.927,483.926 307.528,483C302.949,478.887 297.98,474.896 289.528,472C291.241,471.333 292.198,470.667 292.528,470C284.552,463.74 278.154,456.974 275.528,449C277.729,449.724 279.311,449.996 280.528,450C271.3,439.614 267.79,428.442 273.528,416C277.166,426.621 282.869,433.784 291.528,436C274.049,399.544 268.016,364.912 276.583,320C276.834,318.688 276.258,317.341 276.093,316C274.689,304.607 273.272,292.659 271.439,280C266.996,249.319 282.52,200.049 308.528,162C330.147,139.001 360.403,127.757 400.24,129.553ZM409.636,479.634C396.562,471.992 390.391,467.26 388.014,464.128C393.257,460.063 398.235,456.197 405.705,449.855C406.961,448.789 408.773,449.658 410.264,450.326L410.547,450.199C411.979,449.557 413.645,448.855 414.822,449.855C422.293,456.197 427.27,460.063 432.514,464.128C430.099,467.31 423.769,472.142 410.264,480L409.636,479.634ZM410.264,458.607C408.809,458.688 407.791,458.383 407.73,457.227C399.375,457.322 394.615,461.038 389.234,464.128C395.338,465.263 401.725,466.762 410.264,471.029C418.803,466.762 425.19,465.263 431.294,464.128C425.912,461.038 421.152,457.322 412.798,457.227C412.738,458.365 411.75,458.679 410.332,458.611L410.264,458.607Z" style="fill:white;"/>
    </g>
</svg>
