<?xml version="1.0" encoding="UTF-8" standalone="no"?>
<!DOCTYPE svg PUBLIC "-//W3C//DTD SVG 1.1//EN" "http://www.w3.org/Graphics/SVG/1.1/DTD/svg11.dtd">
<svg width="100%" height="100%" viewBox="0 0 1000 1000" version="1.1" xmlns="http://www.w3.org/2000/svg" xmlns:xlink="http://www.w3.org/1999/xlink" xml:space="preserve" xmlns:serif="http://www.serif.com/" style="fill-rule:evenodd;clip-rule:evenodd;stroke-linejoin:round;stroke-miterlimit:2;">
    <g transform="matrix(16.4885,0,0,16.4885,-6318.02,-3816.56)">
        <path d="M424.083,241L424.083,277.54C424.083,283.911 419.341,289.083 413.5,289.083C407.659,289.083 402.917,283.911 402.917,277.54L402.917,241L407.083,241L407.083,277.54C407.083,281.402 409.959,284.539 413.5,284.539C417.041,284.539 419.917,281.402 419.917,277.54L419.917,241L424.083,241ZM408.365,248.671C409.454,248.843 410.598,247.693 411.751,248.246C412.924,248.809 413.882,249.087 414.5,248.849C415.924,248.3 417.478,249.179 418.635,248.355L418.635,277.865C418.635,280.699 416.334,283 413.5,283C410.666,283 408.365,280.699 408.365,277.865L408.365,248.671ZM412,241C412.552,241 413,241.448 413,242C413,242.552 412.552,243 412,243C411.448,243 411,242.552 411,242C411,241.448 411.448,241 412,241ZM415,238C415.828,238 416.5,238.672 416.5,239.5C416.5,240.328 415.828,241 415,241C414.172,241 413.5,240.328 413.5,239.5C413.5,238.672 414.172,238 415,238ZM411,234.5C412.104,234.5 413,235.396 413,236.5C413,237.604 412.104,238.5 411,238.5C409.896,238.5 409,237.604 409,236.5C409,235.396 409.896,234.5 411,234.5Z" style="fill:white;"/>
    </g>
</svg>
