<?xml version="1.0" encoding="UTF-8" standalone="no"?>
<!DOCTYPE svg PUBLIC "-//W3C//DTD SVG 1.1//EN" "http://www.w3.org/Graphics/SVG/1.1/DTD/svg11.dtd">
<svg width="100%" height="100%" viewBox="0 0 1000 1000" version="1.1" xmlns="http://www.w3.org/2000/svg" xmlns:xlink="http://www.w3.org/1999/xlink" xml:space="preserve" xmlns:serif="http://www.serif.com/" style="fill-rule:evenodd;clip-rule:evenodd;stroke-linejoin:round;stroke-miterlimit:2;">
    <g transform="matrix(4.49926,0,0,4.49926,-1749.7,-1517.6)">
        <path d="M590.422,451.516C590.115,458.246 589.285,464.854 586.5,471C587.353,479.384 587.543,487.916 587.5,496.5C587.423,511.909 591.44,512.1 593.5,512.191C595.605,512.284 600.48,507.927 600,496.5C599.338,480.74 596.512,465.634 590.422,451.516ZM409.611,451.516C409.919,458.246 410.748,464.854 413.533,471C412.68,479.384 412.49,487.916 412.533,496.5C412.61,511.909 408.593,512.1 406.533,512.191C404.428,512.284 399.553,507.927 400.033,496.5C400.695,480.74 403.521,465.634 409.611,451.516ZM500.033,384.668C532.21,384.973 558.577,396.679 578,422C593.157,445.296 589.662,462.469 582.717,475C575.909,487.284 558.753,501.827 536,496C524.518,493.06 512.737,489.681 500.033,489.999L500.033,490L500.017,490L500,490L500,489.999C487.297,489.681 475.515,493.06 464.033,496C441.28,501.827 424.124,487.284 417.316,475C410.371,462.469 406.876,445.296 422.033,422C441.456,396.679 467.823,384.973 500,384.668L500,384.668L500.017,384.668L500.033,384.668L500.033,384.668ZM502,488L502.089,488.003C509.641,488.264 516.193,489.332 522,491C530.846,492.678 535.819,494.767 541.5,495.328C547.621,495.931 552.95,495.469 558,493.806C567.385,490.716 575.304,484.122 581.532,473.429C579.399,466.506 574.14,461.753 566,459C560.287,468.041 552.82,470.858 546,471.243C538.507,471.666 529.568,468.228 523,460L504,461.487C506.651,464.165 507.333,468.215 507,469.549C506.677,470.842 502.287,469.576 502.013,469.496L500.017,469.055L498.02,469.496C497.746,469.576 493.356,470.842 493.033,469.549C492.7,468.215 493.382,464.165 496.033,461.487L477.033,460C470.465,468.228 461.526,471.666 454.033,471.243C447.213,470.858 439.746,468.041 434.033,459C425.893,461.753 420.634,466.506 418.501,473.429C424.729,484.122 432.648,490.716 442.033,493.806C447.083,495.469 452.412,495.931 458.533,495.328C464.214,494.767 469.187,492.678 478.033,491C483.84,489.332 490.392,488.264 497.944,488.003L498.033,488L502,488ZM516.707,486.045L511.207,483.545C510.956,483.431 510.659,483.542 510.545,483.793C510.431,484.044 510.542,484.341 510.793,484.455L516.293,486.955C516.544,487.069 516.841,486.958 516.955,486.707C517.069,486.456 516.958,486.159 516.707,486.045ZM483.326,486.045L488.826,483.545C489.077,483.431 489.374,483.542 489.488,483.793C489.602,484.044 489.491,484.341 489.24,484.455L483.74,486.955C483.489,487.069 483.192,486.958 483.078,486.707C482.964,486.456 483.075,486.159 483.326,486.045ZM518.265,482.076L514.265,479.576C514.031,479.43 513.722,479.501 513.576,479.735C513.43,479.969 513.501,480.278 513.735,480.424L517.735,482.924C517.969,483.07 518.278,482.999 518.424,482.765C518.57,482.531 518.499,482.222 518.265,482.076ZM481.768,482.076L485.768,479.576C486.002,479.43 486.311,479.501 486.457,479.735C486.603,479.969 486.532,480.278 486.298,480.424L482.298,482.924C482.064,483.07 481.755,482.999 481.609,482.765C481.463,482.531 481.534,482.222 481.768,482.076ZM517.918,474.507L511.918,475.507C511.646,475.552 511.461,475.81 511.507,476.082C511.552,476.354 511.81,476.539 512.082,476.493L518.082,475.493C518.354,475.448 518.539,475.19 518.493,474.918C518.448,474.646 518.19,474.461 517.918,474.507ZM482.115,474.507L488.115,475.507C488.387,475.552 488.572,475.81 488.526,476.082C488.481,476.354 488.223,476.539 487.951,476.493L481.951,475.493C481.679,475.448 481.494,475.19 481.54,474.918C481.585,474.646 481.843,474.461 482.115,474.507ZM500.017,467.892C500.438,467.645 504.807,469.285 505.5,468.5C506.765,467.066 500.833,458.864 500.033,458.988L500.033,459C500.028,458.997 500.022,458.994 500.017,458.992C500.011,458.994 500.005,458.997 500,459L500,458.988C499.2,458.864 493.268,467.066 494.533,468.5C495.226,469.285 499.595,467.645 500.017,467.892ZM548.66,417.443L550.49,408.601C550.546,408.331 550.372,408.067 550.102,408.01C549.831,407.954 549.567,408.128 549.511,408.398L547.662,417.272C546.465,417.093 545.243,417 544,417C540.161,417 536.524,417.884 533.273,419.464L527.919,411.228C527.769,410.996 527.459,410.93 527.228,411.081C526.996,411.231 526.93,411.541 527.081,411.772L532.378,419.921C524.426,424.192 519,432.705 519,442.5C519,456.574 530.202,468 544,468C557.798,468 569,456.574 569,442.5C569,435.106 565.908,428.442 560.97,423.782L566.395,416.807C566.564,416.589 566.525,416.275 566.307,416.105C566.089,415.936 565.775,415.975 565.605,416.193L560.227,423.108C556.983,420.28 553.021,418.283 548.66,417.443ZM451.373,417.443L449.543,408.601C449.487,408.331 449.661,408.067 449.931,408.01C450.202,407.954 450.466,408.128 450.523,408.398L452.371,417.272C453.568,417.093 454.79,417 456.033,417C459.872,417 463.509,417.884 466.76,419.464L472.114,411.228C472.264,410.996 472.574,410.93 472.806,411.081C473.037,411.231 473.103,411.541 472.952,411.772L467.655,419.921C475.607,424.192 481.033,432.705 481.033,442.5C481.033,456.574 469.831,468 456.033,468C442.235,468 431.033,456.574 431.033,442.5C431.033,435.106 434.125,428.442 439.063,423.782L433.638,416.807C433.469,416.589 433.508,416.275 433.726,416.105C433.944,415.936 434.258,415.975 434.428,416.193L439.806,423.108C443.05,420.28 447.012,418.283 451.373,417.443ZM541.5,424C551.71,424 560,432.29 560,442.5C560,452.71 551.71,461 541.5,461C531.29,461 523,452.71 523,442.5C523,432.29 531.29,424 541.5,424ZM458.533,424C448.323,424 440.033,432.29 440.033,442.5C440.033,452.71 448.323,461 458.533,461C468.743,461 477.033,452.71 477.033,442.5C477.033,432.29 468.743,424 458.533,424Z" style="fill:white;"/>
    </g>
</svg>
