<?xml version="1.0" encoding="UTF-8" standalone="no"?>
<!DOCTYPE svg PUBLIC "-//W3C//DTD SVG 1.1//EN" "http://www.w3.org/Graphics/SVG/1.1/DTD/svg11.dtd">
<svg width="100%" height="100%" viewBox="0 0 1000 1000" version="1.1" xmlns="http://www.w3.org/2000/svg" xmlns:xlink="http://www.w3.org/1999/xlink" xml:space="preserve" xmlns:serif="http://www.serif.com/" style="fill-rule:evenodd;clip-rule:evenodd;stroke-linejoin:round;stroke-miterlimit:2;">
    <path d="M619.66,696.297L634.818,870.435C625.055,878.86 622.05,886.257 612.183,893.454C607.09,897.169 595.178,901.192 590.052,904.518C583.251,908.93 583.173,914.531 576.307,918.172C568.198,922.471 553.287,924.647 545.075,927.719C531.248,932.891 514.631,931.078 500.459,932.151C490.051,932.939 482.175,937.646 471.55,935.86C458.744,933.707 439.895,929.355 421.361,920.163C413.762,916.394 401.5,916.378 394.03,911.349C383.773,904.444 378.364,892.149 368.327,884.686C357.307,876.493 352.927,861.975 344.174,853.068C324.989,833.548 307.212,818.935 310.765,801.247C319.14,759.559 340.552,720.57 362.158,681.62C328.708,686.271 278.047,726.521 248.206,715.798C224.672,707.342 207.529,681.532 199.91,629.854C190.921,623.584 189.814,609.813 180.643,604.462C167.557,596.828 149.672,591.64 140.113,575.461C136.428,569.224 136.704,566.17 125.639,557.986C116.38,551.138 105.026,545.784 97.854,536.969C90.733,528.217 95.906,512.103 85.462,508.047C69.856,501.986 62.001,490.639 60.177,481.594C58.392,472.742 49.058,469.384 45.644,464.15C40.456,456.194 38.702,449.227 40.978,441.638C67.344,415.534 103.214,404.206 145.986,403.605C246.26,402.198 394.84,447.885 529.624,527.386C532.515,518.604 526.056,501.346 520.416,486.009C477.241,443.75 431.219,416.98 377.781,430.569C371.259,438.628 367.321,433.813 366.45,433.275C365.471,432.67 364.527,423.488 375.25,425.642C422.153,411.4 474.179,435.921 526.986,482.635C519.783,412.5 530.162,355.93 569.062,326.106C573.559,316.136 580.472,322.251 580.393,323.4C580.323,324.422 581.943,330.427 571.593,331.033C529.416,366.549 524.362,419.55 533.555,479.26C542.735,492.781 552.999,508.084 561.821,510.85C575.729,354.986 625.156,207.608 684.718,126.929C710.124,92.515 740.229,69.96 776.806,63.739C784.3,66.31 788.941,71.794 792.384,80.646C794.65,86.47 791.941,96.013 798.096,102.621C804.385,109.373 809.031,122.367 804.865,138.582C802.077,149.434 818.188,154.618 821.153,165.504C824.139,176.469 821.876,188.816 822.048,200.331C822.253,214.092 824.896,215.647 827.819,222.276C835.399,239.47 829.196,257.029 827.778,272.113C826.783,282.685 837.332,291.607 837.19,302.566C874.754,338.865 885.744,367.835 878.907,391.889C870.237,422.39 808.009,440.116 784.741,464.594C828.985,469.724 873.149,475.036 911.911,492.517C928.357,499.933 929.877,522.895 934.566,549.86C936.706,562.163 945.954,574.181 946.193,587.912C946.411,600.417 953.253,611.976 952.889,624.335C952.625,633.336 945.494,643.312 944.13,651.684C940.804,672.103 933.36,689.958 927.649,701.621C922.911,711.297 914.497,714.956 907.793,722.957C898.664,733.85 890.457,748.412 878.198,756.637C870.917,761.522 860.461,772.373 852.243,776.459C845.284,779.919 840.686,776.719 833.138,779.676C827.449,781.905 817.239,789.243 811.252,791.218C799.654,795.045 791.892,793.178 779.356,796.204L646.653,682.435C674.993,735.48 690.255,776.059 691.811,803.575C666.771,780.279 642.935,741.82 619.66,696.297ZM548.563,870.812C538.521,868.961 534.528,874.279 533.972,880.188C533.416,886.097 536.296,892.597 540,893.111C550.163,894.52 553.81,871.78 548.563,870.812ZM571.552,869.789C578.531,864.211 587.427,863.299 590,866.534C593.09,870.419 597.145,875.643 580,874.506C574.837,874.163 571.66,876.433 570,875.332C568.372,874.252 568.625,872.129 571.552,869.789ZM540,856.845C530.361,862.094 530.299,862.327 528.89,864.671C526.265,869.038 534.554,868.263 541.186,861.976C545.342,858.038 542.113,855.695 540,856.845ZM611.894,850.023C607.242,841.651 603.332,843.237 600.684,847.08C598.036,850.923 596.65,857.023 597.048,857.682C602.556,866.792 614.255,854.272 611.894,850.023ZM580,850C571.313,846.748 566.964,848.993 565.431,852.259C563.898,855.526 565.182,859.813 567.76,860.645C573.136,862.378 582.426,850.908 580,850ZM560.759,628.388C565.083,626.511 556.524,623.982 554,620C553.367,619.001 545.112,662.406 527.68,700C494.426,771.719 493.95,837.267 500,847.283C503.854,853.663 542.572,846.996 540,840C532.715,820.183 551.75,632.299 560.759,628.388ZM577.16,670.367C572.607,669.147 569.922,652.98 567.16,649.16C562.054,642.099 550.023,797.845 554.659,828.591C557.259,845.835 600.856,833.412 598.63,811.902C596.397,790.318 578.281,670.668 577.16,670.367ZM616.563,820.812C611.788,818.78 610.768,820.887 611.039,823.538C611.31,826.19 612.871,829.386 613.259,829.534C618.634,831.586 618.986,821.844 616.563,820.812ZM590.098,659.961L590,660C589.825,659.759 589.667,659.638 589.523,659.633L589.511,659.633C589.175,659.635 588.922,660.273 588.747,661.457C583.291,673.385 593.637,750.813 599.922,779.642L600,780C601.36,786.185 608.213,801.645 609.746,801.612L609.756,801.611C610.02,801.593 610.12,801.1 610,800L609.972,799.743C609.72,797.38 609.508,795.012 609.305,792.644C609.066,789.861 608.843,787.076 608.625,784.29C608.071,777.192 607.555,770.09 607.048,762.988C605.622,743.021 604.283,723.047 602.856,703.08C602.506,698.187 602.151,693.294 601.779,688.402C601.498,684.699 601.21,680.996 600.884,677.297C600.787,676.188 600.686,675.079 600.575,673.971C600.496,673.178 600.413,672.385 600.313,671.595C600.262,671.189 600.211,670.781 600.129,670.379C600.11,670.283 600.089,670.185 600.056,670.092C600.047,670.064 600.033,670.012 600,670L599.945,669.772C597.647,660.242 594.217,658.36 590.098,659.961ZM358.563,790.995C360.127,782.536 342.637,783.317 340,783.074C333.255,782.454 337.879,805.497 355.259,799.717C361.049,797.792 358.066,793.68 358.563,790.995ZM791.54,781.495C794.193,787.261 799.098,787.022 802.69,784.682C806.281,782.341 808.559,777.898 805.959,775.255C800.365,769.569 790.242,778.675 791.54,781.495ZM770.386,773.678C770.854,778.106 772.454,775.957 775.418,776.411C778.921,776.948 783.86,779.401 784.333,775.984C785.274,769.178 769.687,767.077 770.386,773.678ZM825.42,767.672C827.669,772.953 833.498,771.927 838.248,769.08C842.998,766.233 846.669,761.565 844.602,759.561C838.828,753.963 824.209,764.827 825.42,767.672ZM340,764.583C335.226,762.551 333.98,763.715 334.025,765.423C334.07,767.132 335.405,769.386 335.794,769.534C341.169,771.586 342.424,765.614 340,764.583ZM540,613.618C523.298,580.051 451.086,700.77 451.163,752.604C451.177,762.199 454.024,769.942 460,766.54C461.832,765.497 463.276,762.797 466.387,760C488.036,740.541 551.445,636.619 540,613.618ZM821.273,754.369C822.154,752.173 820.271,752.78 816.779,752.394C810.44,751.693 807.621,753.939 808.682,756.29C811.128,761.713 819.472,758.857 821.273,754.369ZM759.524,757.589C759.229,744.692 649.132,640.354 648.029,640.548C636.893,642.503 654.159,673.209 659.594,676.176C678.519,686.507 759.831,771.023 759.524,757.589ZM352.522,745.183C352.855,740.005 350.529,739.742 348.118,740.876C345.706,742.011 343.209,744.545 343.198,744.96C343.046,750.711 352.353,747.812 352.522,745.183ZM892.64,737.727C892.932,735.54 891.153,736.768 888.145,735.752C878.847,732.609 874.119,737.814 875.365,740.649C879.008,748.938 891.596,745.513 892.64,737.727ZM885.986,720.588C886.199,718.019 884.451,719.401 881.382,718.088C871.89,714.027 867.322,719.99 868.685,723.382C872.67,733.301 885.23,729.736 885.986,720.588ZM363.14,706.6C364.305,698.963 360.533,701.004 356.452,705.103C352.372,709.202 347.983,715.36 347.916,715.956C346.978,724.212 362.549,710.476 363.14,706.6ZM268.061,685C258.512,680.936 266.484,694.238 267.261,694.534C270.455,695.753 279.882,687.808 280,685C280.081,683.083 269.044,685.418 268.061,685ZM883.011,681.62C882.315,683.217 883.689,682.84 886.264,683.27C890.937,684.05 893.127,682.498 892.43,680.712C890.768,676.453 884.475,678.256 883.011,681.62ZM420,610C432.237,598.333 406.675,600.667 374.585,612.251C342.494,623.835 303.876,644.668 290,670C274.694,697.943 409.57,619.944 420,610ZM242.788,665.597C237.602,665.432 237.414,667.765 238.626,670.138C239.838,672.512 242.451,674.926 242.867,674.923C248.62,674.889 245.42,665.681 242.788,665.597ZM866.415,638.347C858.301,634.205 796.912,611.874 792.071,624.186C788.208,633.089 800.753,633.291 806.187,636.258C825.112,646.589 863.48,681.207 873.386,672.129C898.713,648.921 898.962,654.963 866.415,638.347ZM270,660C262.171,655.55 257.405,657.39 254.99,660.614C252.575,663.838 252.512,668.447 254.087,669.534C259.338,673.159 272.402,661.365 270,660ZM420,652.535C420.252,647.352 413.572,650.208 406.828,654.464C400.084,658.72 393.276,664.375 393.271,664.791C393.209,670.543 419.872,655.166 420,652.535ZM237.203,651.055C232.428,649.023 231.408,651.13 231.679,653.781C231.949,656.432 233.511,659.629 233.899,659.777C239.274,661.828 239.626,652.087 237.203,651.055ZM251.012,644.985C246.748,643.239 245.323,644.335 245.051,645.901C244.78,647.467 245.662,649.503 246.012,649.635C250.861,651.464 253.177,645.871 251.012,644.985ZM924.631,642.255C923.454,643.56 924.923,643.619 927.26,644.783C931.502,646.895 934.042,646.05 933.905,644.139C933.587,639.73 927.037,639.585 924.631,642.255ZM904.729,638.995C904.002,640.589 907.256,643.642 909.831,644.072C914.505,644.852 916.119,640.553 916.379,638.633C917.554,629.952 913.349,631.084 909.32,634.994C908.196,636.084 905.325,637.689 904.729,638.995ZM510,560C507.095,565.084 465.5,564.139 423.119,575.917C384.168,586.743 345.892,607.643 320,624.47C300.835,636.925 288.19,641.976 280,642.814C259.13,644.949 257.98,631.954 270,620C282.293,607.775 318.76,588.899 360,576.222C390.342,566.895 421.116,559.188 440,555.093C487.836,544.721 512.926,554.88 510,560ZM500,605.922C495.226,603.891 479.496,612.94 465.057,622.534C450.619,632.128 437.47,642.267 437.859,642.416C443.234,644.467 502.424,606.954 500,605.922ZM226.012,629.985C220.232,628.173 219.804,630.611 220.908,633.534C222.013,636.458 224.65,639.868 225,640C229.849,641.829 228.244,630.684 226.012,629.985ZM892.517,608.337C891.503,607.662 883.946,604.02 874.169,604.944C855.561,606.704 826.208,599.102 826.372,600.793C825.464,605.445 840.256,608.498 848.62,611.655C870.044,619.74 896.921,640.451 897.023,633.254C897.198,620.801 903.184,615.434 892.517,608.337ZM238.728,629.79C237.285,625.414 235.07,624.055 233.248,623.879C231.425,623.702 229.995,624.708 230.122,625.061C231.88,629.935 239.46,632.012 238.728,629.79ZM936.681,620.9C936.365,621.906 937.039,621.702 938.287,622.045C940.554,622.667 941.563,621.724 941.186,620.556C940.315,617.861 937.329,618.843 936.681,620.9ZM216.012,614.985C211.748,613.239 210.323,614.335 210.051,615.901C209.78,617.467 210.662,619.503 211.012,619.635C215.861,621.464 218.177,615.871 216.012,614.985ZM410,550C406.154,553.045 375.002,557.121 340,571.758C302.026,587.637 260.729,607.635 250,616.873C240.124,625.376 241.969,598.662 250,590C291.152,545.613 413.384,547.322 410,550ZM912.543,616.608C911.799,618.201 913.22,617.828 915.795,618.258C920.469,619.038 922.652,617.488 921.962,615.7C920.37,611.576 914.063,613.353 912.543,616.608ZM206.012,600.891C201.748,599.145 200.323,600.242 200.051,601.808C199.78,603.374 200.662,605.409 201.012,605.541C205.861,607.37 208.177,601.777 206.012,600.891ZM568.976,599.05C567.759,594.006 565.46,594.443 563.494,596.242C561.527,598.041 559.893,601.201 560.006,601.601C561.565,607.139 569.594,601.61 568.976,599.05ZM223.589,585.478C216.202,581.649 213.732,584.054 213.262,587.488C212.792,590.922 214.32,595.386 214.927,595.676C223.327,599.687 227.34,587.421 223.589,585.478ZM880.217,539.929C873.705,537.301 771.808,553.216 771.459,557.781C767.595,566.685 780.14,566.887 785.574,569.854C804.499,580.185 885.127,603.161 892.338,591.823C904.973,571.958 902.886,549.076 880.217,539.929ZM548.976,585.071C543.249,578.271 540.701,579.303 539.614,582.136C538.526,584.968 538.899,589.6 539.012,590C540.572,595.538 551.13,587.628 548.976,585.071ZM194.336,584.545C193.471,582.099 192.35,582.435 191.465,583.431C190.579,584.427 189.929,586.083 190.006,586.276C191.067,588.95 194.775,585.786 194.336,584.545ZM525,570C521.811,566.66 517.976,570.467 514.981,575.199C511.985,579.93 509.83,585.585 510,585.941C513.008,592.228 529.227,574.428 525,570ZM929.162,582.017C928.623,583.728 929.769,583.381 931.891,583.964C935.744,585.021 937.46,583.419 936.819,581.433C935.338,576.852 930.262,578.521 929.162,582.017ZM230,553.834C243.704,524.296 276.579,525.013 295.187,532.581C306.075,537.009 316.067,547.71 310,550C293.218,556.334 256.815,567.104 240,580.702C233.344,586.085 222.377,570.265 230,553.834ZM202.599,562.938C194.092,559.393 197.006,567.13 197.599,567.588C202.784,571.594 205.998,573.271 207.726,573.489C211.564,573.975 213.195,567.354 202.599,562.938ZM172.599,559.985C168.335,558.239 166.909,559.335 166.638,560.901C166.366,562.467 167.249,564.503 167.599,564.635C172.448,566.464 174.764,560.871 172.599,559.985ZM547.988,559.063C546.771,554.019 544.472,554.456 542.505,556.255C540.539,558.054 538.905,561.214 539.017,561.614C540.577,567.152 548.606,561.623 547.988,559.063ZM152.37,547.069C146.494,551.047 145.781,553.491 146.655,554.857C147.53,556.223 149.993,556.511 150.467,556.177C157.033,551.551 155.353,545.05 152.37,547.069ZM795.47,492.122C788.873,494.08 715.033,537.584 715.033,537.584C711.17,546.487 709.095,553.097 719.182,554.836C718.981,558.714 848.272,531.178 852.782,522.884C858.536,512.3 811.43,487.385 795.47,492.122ZM204.87,532.311C200.486,525.844 188.591,525.651 179.381,528.986C170.171,532.32 163.645,539.181 170,546.821C182.305,561.613 208.052,537.006 204.87,532.311ZM912.237,544.116C912.103,543.967 910.56,543.11 908.616,542.078C905.087,540.205 903.526,540.225 903.718,542.303C904.162,547.097 909.002,551.024 910.84,547.853C911.739,546.301 913.549,545.577 912.237,544.116ZM520,541C525.198,541.139 514.444,531.924 505,526.843C442.396,493.163 279.653,490.229 290,510C293.502,516.691 305.045,525.733 310,535.581C316.235,547.971 328.927,543.116 338.706,540C350.834,536.136 367.136,539.029 385,537.668C437.204,533.69 510.908,540.756 520,541ZM139.973,535.054C135.822,536.467 134.957,537.767 135.213,538.683C135.469,539.599 136.847,540.132 137.185,540.01C141.855,538.327 142.079,534.337 139.973,535.054ZM260,514.504C265.612,520.469 257.957,524.045 249.675,525.028C241.393,526.012 232.484,524.403 235.59,520C243.024,509.461 250.938,504.871 260,514.504ZM893.333,522.121C893.496,522.237 895.189,522.737 897.312,523.319C901.165,524.376 902.683,524.016 902.042,522.03C900.561,517.449 894.98,514.673 893.88,518.169C893.341,519.88 891.734,520.982 893.333,522.121ZM865.119,517.557C865.459,517.799 868.983,518.84 873.402,520.052C881.423,522.253 884.584,521.502 883.248,517.368C880.167,507.831 868.549,502.054 866.258,509.332C865.137,512.893 861.79,515.187 865.119,517.557ZM160,500C144.126,482.13 119.416,500.004 124.952,510C130.806,520.569 158.056,517.604 164.494,510C166.948,507.101 164.796,505.399 160,500ZM209.87,493.811C207.97,479.568 173.968,475.858 175,485C175.653,490.784 175.69,502.559 175,505C170.274,521.721 211.284,504.413 209.87,493.811ZM748.543,497.164C749,497.13 752.477,495.568 756.757,493.534C764.526,489.841 774.94,484.591 774.738,484.088C774.652,482.31 766.503,482.724 761.687,484.567C757.993,485.98 742.608,487.16 742.341,489.61C741.874,493.902 744.072,497.497 748.543,497.164ZM99.426,490.891C95.161,489.145 93.736,490.242 93.464,491.808C93.193,493.374 94.075,495.409 94.426,495.541C99.274,497.37 101.59,491.777 99.426,490.891ZM275.971,481.754C264.77,476.054 251.548,474.595 241.399,475.29C231.251,475.986 224.175,478.836 225.266,481.754C234.581,506.667 288.274,488.015 275.971,481.754ZM96.012,479.985C91.748,478.239 90.323,479.335 90.051,480.901C89.78,482.467 90.662,484.503 91.012,484.635C95.861,486.464 98.177,480.871 96.012,479.985ZM315.744,477.689L315.715,477.689C313.359,477.689 311.979,478.396 311.838,480C311.527,483.523 313.078,484.693 315.282,484.688L315.321,484.688C319.717,484.652 326.668,480 326.668,480C322.275,478.608 318.642,477.767 316.07,477.694C315.959,477.691 315.85,477.689 315.744,477.689ZM790.996,484.403C791.349,484.518 794.439,484.41 798.278,484.193C805.245,483.799 814.678,483.045 814.68,482.606C815.16,481.244 808.911,479.057 804.729,478.967C801.521,478.897 793.801,477.179 792.85,478.938C791.184,482.019 787.535,483.284 790.996,484.403ZM149.87,463.811C147.523,457.086 137.647,456.416 128.312,458.536C118.978,460.656 110.184,465.566 110,470C109.27,487.606 152.504,471.36 149.87,463.811ZM99.753,467.311C95.361,465.919 93.011,465.078 91.722,465.005C90.434,464.932 90.206,465.628 90.058,467.311C89.127,477.859 99.753,467.311 99.753,467.311ZM192.435,458.811C194.118,449.948 188.822,446.271 182.949,446.797C177.076,447.323 170.626,452.052 170,460C168.715,476.315 191.577,463.329 192.435,458.811ZM340,465.344C345.55,472.701 303.341,455.644 300,455.142C294.958,454.383 298.413,445.647 303,446.913C313.76,449.881 331.401,453.945 340,465.344ZM359.873,458.315C356.374,455.316 353.359,453.12 351.021,452.047C348.682,450.974 347.019,451.023 346.224,452.514C341.242,461.858 359.873,458.315 359.873,458.315ZM99.87,447.311C99.514,442.717 93.324,441.732 87.209,442.318C81.094,442.903 75.054,445.06 75,446.748C74.486,462.679 100.274,452.528 99.87,447.311ZM278.498,447.403C273.135,444.113 266.088,441.772 260.344,440.675C254.6,439.577 250.16,439.723 250.012,441.406C249.081,451.954 303.871,462.969 278.498,447.403ZM237.435,428.811C228.649,426.028 210.297,424.251 210,427.617C209.735,430.621 211.845,439.548 215,440C222.924,441.134 237.435,428.811 237.435,428.811ZM268.643,432.198C267.216,430.389 265.948,429.022 264.904,428.27C263.86,427.518 263.039,427.382 262.506,428.037C259.161,432.141 268.643,432.198 268.643,432.198ZM122.435,422.311C125.261,418.671 121.84,417.877 117.569,418.389C113.298,418.902 108.177,420.722 107.605,422.311C101.321,439.754 118.137,427.846 122.435,422.311ZM609.43,315.791C602.84,317.771 610.973,319.187 607.861,324.861C604.87,330.314 604.391,336.37 609.637,336.403C614.884,336.436 619.981,334.586 617.805,328.057C615.648,321.584 618.724,312.998 609.43,315.791ZM635.516,285.75C628.919,287.708 631.348,294.193 628.236,299.867C625.245,305.321 623.828,312.017 625.457,317.004C634.35,344.223 639.778,313.516 643.107,300.533C646.1,288.863 651.476,281.013 635.516,285.75ZM658.023,305.326C651.427,307.284 655.453,308.797 652.342,314.471C649.351,319.925 647.229,326.824 652.475,326.857C657.722,326.89 662.857,320.464 667.213,315.136C674.838,305.81 673.984,300.589 658.023,305.326ZM736.804,261.331C729.926,261.533 725.236,270.883 722.124,276.557C719.134,282.011 720.297,287.223 725.543,287.256C730.789,287.289 736.51,286.583 736.197,279.708C735.988,275.121 745.348,261.081 736.804,261.331ZM794.656,268.072C793.333,268.224 790.576,270.008 790.307,271.649C790.049,273.225 792.433,276.284 793.604,276.688C794.776,277.092 796.764,275.505 797.335,274.072C798.336,271.564 797.858,267.703 794.656,268.072ZM707.606,232.121C700.753,232.742 694.471,251.396 691.36,257.07C688.369,262.524 686.569,272.513 691.816,272.546C697.062,272.579 718.63,258.02 712.801,254.362C708.06,251.386 715.785,231.38 707.606,232.121ZM665.612,243.31C668.936,220.535 652.584,239.458 650.919,259.159C650.395,265.356 650.733,268.98 655.98,269.013C661.226,269.047 664.618,250.12 665.612,243.31ZM814.581,252.134C812.727,252.559 808.578,255.057 807.889,256.913C807.228,258.698 809.919,261.598 811.455,261.815C812.991,262.031 816.041,259.899 817.107,258.212C818.974,255.259 819.065,251.106 814.581,252.134ZM643.992,229.505C640.694,230.484 638.006,236.89 636.799,243.056C635.592,249.222 635.865,255.147 638.489,255.164C643.735,255.197 659.952,224.768 643.992,229.505ZM783.663,214.567C777.067,216.525 762.164,237.313 762.164,237.313C758.301,246.216 760.513,251.999 770.6,253.737C770.6,253.737 799.093,242.195 803.449,236.867C811.074,227.541 799.624,209.829 783.663,214.567ZM742.105,198.254C735.508,200.212 727.868,212.039 727.868,212.039C724.004,220.942 726.216,226.725 736.303,228.464C736.303,228.464 754.265,223.704 758.621,218.376C766.246,209.05 758.065,193.516 742.105,198.254ZM810.805,208.408C808.952,208.833 804.803,211.331 804.114,213.187C803.452,214.971 806.143,217.872 807.68,218.089C809.216,218.305 812.266,216.173 813.332,214.486C815.198,211.533 815.29,207.38 810.805,208.408ZM677.321,177.718C671.014,174.965 660.808,207.763 666.054,207.796C671.3,207.829 688.987,198.871 683.724,194.437C681.381,192.463 683.313,180.333 677.321,177.718ZM720.122,167.574C713.525,169.532 717.552,171.045 714.44,176.719C711.449,182.173 711.858,193.999 717.104,194.032C722.351,194.065 721.76,192.657 726.116,187.329C733.741,178.002 736.082,162.837 720.122,167.574ZM783.855,158.298C777.258,160.256 758.24,177.057 758.24,177.057C754.376,185.961 764.325,192.22 774.412,193.959C774.412,193.959 795.129,181.96 799.485,176.632C807.11,167.306 799.816,153.561 783.855,158.298ZM765.623,122.797C759.026,124.755 743.659,133.643 740.547,139.318C737.557,144.771 741.706,156.809 746.953,156.842C752.199,156.875 767.67,144.844 772.026,139.516C779.651,130.189 781.583,118.059 765.623,122.797ZM796.945,146.507C795.622,146.659 792.864,148.443 792.596,150.084C792.338,151.66 794.721,154.719 795.893,155.123C797.064,155.527 799.052,153.94 799.624,152.507C800.624,149.999 800.146,146.138 796.945,146.507ZM783.173,143.723C780.741,144.445 775.076,147.722 773.929,149.814C772.826,151.824 775.853,154.553 777.787,154.565C779.721,154.577 783.927,151.851 785.533,149.887C788.344,146.449 789.057,141.977 783.173,143.723ZM735.922,101.341C743.548,92.014 725.897,98.378 722.738,103.96C719.675,109.373 716.782,114.67 722.028,114.703C727.275,114.736 731.566,106.668 735.922,101.341ZM766.453,79.758C759.856,81.716 759.422,95.04 759.906,99.927C760.337,104.291 763.849,104.61 766.593,103.705C769.337,102.801 772.013,99.829 776.369,94.501C783.994,85.175 782.413,75.021 766.453,79.758Z" style="fill:white;"/>
</svg>
