<?xml version="1.0" encoding="UTF-8" standalone="no"?>
<!DOCTYPE svg PUBLIC "-//W3C//DTD SVG 1.1//EN" "http://www.w3.org/Graphics/SVG/1.1/DTD/svg11.dtd">
<svg width="100%" height="100%" viewBox="0 0 1000 1000" version="1.1" xmlns="http://www.w3.org/2000/svg" xmlns:xlink="http://www.w3.org/1999/xlink" xml:space="preserve" xmlns:serif="http://www.serif.com/" style="fill-rule:evenodd;clip-rule:evenodd;stroke-linejoin:round;stroke-miterlimit:2;">
    <g transform="matrix(1.70953,0,0,1.55816,-321.438,53.1163)">
        <path d="M506.93,30C516.997,10.975 536.995,-2 560,-2C593.115,-2 620,24.885 620,58C620,73.362 614.214,87.383 604.706,98.001L604.118,100C603.453,100.221 602.799,100.45 602.147,100.688C595.974,106.782 588.489,111.549 580.155,114.525C550.394,145.03 563.758,205.225 560,250C554.679,313.399 526.171,367.191 525,386C524.694,413.322 533.646,424.94 550,424C594.738,370.747 603.208,366.533 620,356C650.046,351.611 655.729,359.437 640,378C601.096,410.139 565.948,486.317 550,530C527.451,591.764 430.33,585.407 415,543C406.025,526.288 396.394,507.091 385,481.2C383.926,467.255 377.087,453.528 365,440C344.86,415.951 328.769,388.851 315,360C310.235,342.711 312.432,338.724 320,345C345.949,372.587 367.894,398.765 390,425L397,420L370,300C372.64,282.978 377.872,280.26 385,288C401.676,337.467 402.476,359.533 425,405L435,400L420,280C425.291,262.181 431.835,257.547 440,270C458.016,322.798 448.053,364.892 460,389.893C465.183,400.74 472.789,401.891 480,390C508.896,342.858 527.999,296.667 530,250C532.001,203.333 500.317,188.409 492.005,110C490.303,93.947 494.418,75.723 500.083,54.831C500.548,45.898 502.972,37.479 506.93,30.001L506.93,30ZM500,435C500,435 480.94,457.167 476,464C473.411,467.582 472.988,472.446 470.361,476C467.528,479.833 462.088,482.728 459,487C453.94,494 440,518 440,518C443.316,503.344 448.285,488.777 468,475C471.864,457.346 485.489,445.891 500,435ZM500,435C498.211,452.262 494.208,469.323 486,486C471.484,500.065 456.411,509.833 441,517C451.033,510.38 459.07,500.599 467,492C471.109,487.544 475.922,485.03 479.422,480C482.717,475.265 482.271,470.268 485,465C489.742,455.844 497.074,445.865 500,435ZM560,20C576.557,20 590,33.443 590,50C590,66.557 576.557,80 560,80C543.443,80 530,66.557 530,50C530,33.443 543.443,20 560,20ZM560,40C565.519,40 570,44.481 570,50C570,55.519 565.519,60 560,60C554.481,60 550,55.519 550,50C550,44.481 554.481,40 560,40Z" style="fill:white;"/>
    </g>
</svg>
