<?xml version="1.0" encoding="UTF-8" standalone="no"?>
<!DOCTYPE svg PUBLIC "-//W3C//DTD SVG 1.1//EN" "http://www.w3.org/Graphics/SVG/1.1/DTD/svg11.dtd">
<svg width="100%" height="100%" viewBox="0 0 1000 1000" version="1.1" xmlns="http://www.w3.org/2000/svg" xmlns:xlink="http://www.w3.org/1999/xlink" xml:space="preserve" xmlns:serif="http://www.serif.com/" style="fill-rule:evenodd;clip-rule:evenodd;stroke-linejoin:round;stroke-miterlimit:2;">
    <g transform="matrix(1.4876,0,0,1.4876,-243.802,-321.901)">
        <path d="M349.945,568.955C347.57,524.725 338.931,481.67 322.917,440C309.143,397.035 289.214,356.137 300,330C324.122,342.017 348.403,347.582 370.574,340C408.578,327.004 441.286,285.371 470,261.196C478.644,253.919 489.648,251.296 500,250C510.352,251.296 521.356,253.919 530,261.196C558.714,285.371 591.422,327.004 629.426,340C651.597,347.582 675.878,342.017 700,330C710.786,356.137 690.857,397.035 677.083,440C661.069,481.67 652.43,524.725 650.055,568.955L650,570C683.145,625.491 682.933,682.336 655,740C633.311,764.021 612.402,782.403 584,795C554.771,810.152 522.766,828.597 500,855L499.465,854.383C476.735,828.31 445.001,810.034 416,795C387.598,782.403 366.689,764.021 345,740C317.067,682.336 316.855,625.491 350,570L349.945,568.955ZM590,566.562C563.485,563.516 536.994,564.343 510,566L510,829C532.766,802.597 540.771,800.314 570,785.161C598.402,772.564 623.311,754.021 645,730C651.403,716.782 656.372,703.091 659.101,688.633C665.508,654.698 666.577,631.667 651.306,601.399C647.804,594.458 645.191,586.787 640,581C639.319,580.241 636.814,578.948 633.652,577.535C632.533,584.646 637.402,622.8 634.208,635C628.473,656.902 619.807,675.276 605,688.774C585.316,706.719 563.413,718.569 530,715C560.737,697.25 583.236,674.846 592.567,645C599.385,623.19 599.171,597.407 590,566.562ZM568,749C566.58,755.136 563.277,760.154 558,764C565.88,766.666 567.463,772.564 568,779C568.439,772.21 570.571,766.466 578,764C572.323,761.056 568.677,756.33 568,749ZM432,749C433.42,755.136 436.723,760.154 442,764C434.12,766.666 432.537,772.564 432,779C431.561,772.21 429.429,766.466 422,764C427.677,761.056 431.323,756.33 432,749ZM634,692C632.58,698.136 629.277,703.154 624,707C631.88,709.666 633.463,715.564 634,722C634.439,715.21 636.571,709.466 644,707C638.323,704.056 634.677,699.33 634,692ZM366,692C367.42,698.136 370.723,703.154 376,707C368.12,709.666 366.537,715.564 366,722C365.561,715.21 363.429,709.466 356,707C361.677,704.056 365.323,699.33 366,692ZM406.953,561.501C392.523,563.159 379.204,564.89 369.062,566.39C364.265,616.829 369.636,658.254 392.182,684.445C408.385,703.265 433.457,714.22 470,715C411.772,684.661 389.444,634.227 406.953,561.501ZM565,605C563.58,611.136 560.277,616.154 555,620C562.88,622.666 564.463,628.564 565,635C565.439,628.21 567.571,622.466 575,620C569.323,617.056 565.677,612.33 565,605ZM435,605C436.42,611.136 439.723,616.154 445,620C437.12,622.666 435.537,628.564 435,635C434.561,628.21 432.429,622.466 425,620C430.677,617.056 434.323,612.33 435,605ZM630.119,561.262C630.327,544.785 630.883,516.795 632.317,505C633.755,493.176 637.296,481.637 635,470C629.982,464.603 623.464,464.118 615,470C597.432,490.936 589.633,518.922 593.019,554.979C604.129,556.054 615.205,557.658 626.241,559.943C626.308,559.957 627.85,560.468 630.119,561.262ZM407.509,547.901C436.012,544.803 470.372,542.153 490,543L490,265C479.648,266.296 468.644,279.919 460,287.196C431.286,311.371 418.578,337.004 380.574,350C358.403,357.582 334.122,357.017 310,345C299.214,371.137 319.143,397.035 332.917,440C349.056,481.998 357.706,510.402 360,555C360.874,554.481 364.38,553.718 369.757,552.824C369.478,536.452 368.893,514.956 367.683,505C366.245,493.176 362.704,481.637 365,470C370.018,464.603 376.536,464.118 385,470C401.401,489.545 409.288,515.234 407.509,547.901ZM426,448C425.323,455.33 421.677,460.056 416,463C423.429,465.466 425.561,471.21 426,478C426.537,471.564 428.12,465.666 436,463C430.723,459.154 427.42,454.136 426,448ZM574,448C572.58,454.136 569.277,459.154 564,463C571.88,465.666 573.463,471.564 574,478C574.439,471.21 576.571,465.466 584,463C578.323,460.056 574.677,455.33 574,448ZM370,395C369.323,402.33 365.677,407.056 360,410C367.429,412.466 369.561,418.21 370,425C370.537,418.564 372.12,412.666 380,410C374.723,406.154 371.42,401.136 370,395ZM630,395C628.58,401.136 625.277,406.154 620,410C627.88,412.666 629.463,418.564 630,425C630.439,418.21 632.571,412.466 640,410C634.323,407.056 630.677,402.33 630,395ZM432,362C431.323,369.33 427.677,374.056 422,377C429.429,379.466 431.561,385.21 432,392C432.537,385.564 434.12,379.666 442,377C436.723,373.154 433.42,368.136 432,362ZM568,362C566.58,368.136 563.277,373.154 558,377C565.88,379.666 567.463,385.564 568,392C568.439,385.21 570.571,379.466 578,377C572.323,374.056 568.677,369.33 568,362Z" style="fill:white;"/>
    </g>
</svg>
