<?xml version="1.0" encoding="UTF-8" standalone="no"?>
<!DOCTYPE svg PUBLIC "-//W3C//DTD SVG 1.1//EN" "http://www.w3.org/Graphics/SVG/1.1/DTD/svg11.dtd">
<svg width="100%" height="100%" viewBox="0 0 1000 1000" version="1.1" xmlns="http://www.w3.org/2000/svg" xmlns:xlink="http://www.w3.org/1999/xlink" xml:space="preserve" xmlns:serif="http://www.serif.com/" style="fill-rule:evenodd;clip-rule:evenodd;stroke-linejoin:round;stroke-miterlimit:2;">
    <g transform="matrix(3.1619,0,0,3.1619,-2104.26,-1843.66)">
        <path d="M717.637,847.059C717.429,846.457 715.149,843.684 715.022,843.002L696.138,861.885C691.757,863.456 689.695,866.693 687.735,868.396C685.139,870.651 682.857,871.408 681.319,872.563C683.73,872.955 686.194,876.912 685.123,879.734L685.255,879.685C688.003,878.675 691.908,881.166 692.294,883.539C693.45,882.001 694.207,879.719 696.462,877.123C698.164,875.163 701.402,873.101 702.972,868.719L721.856,849.836C721.128,849.7 718.314,847.408 717.679,847.179L717.637,847.059ZM729.069,835.679C728.771,834.406 726.715,829.98 727.306,828.126L717.068,838.365C716.922,839.631 717.853,841.8 718.616,843.455C718.998,844.285 719.339,844.985 719.48,845.378C719.495,845.419 719.565,845.403 719.607,845.417C720.775,845.819 724.651,848.002 726.493,847.79L736.732,837.552C734.849,838.152 730.373,836.074 729.096,835.762C729.067,835.755 729.076,835.707 729.069,835.679ZM752.907,805.117L729.892,828.132C729.428,829.351 731.3,832.597 731.205,833.653L731.304,833.643C732.331,833.542 735.545,835.416 736.726,834.966L759.741,811.951C759.741,811.951 756.576,809.617 755.909,808.949C755.241,808.282 752.907,805.117 752.907,805.117ZM761.175,803.517C758.514,799.188 757.656,794.354 762.697,790.615L744.788,773.556C742.437,775.344 740.342,777.388 738.58,779.764C741.714,781.505 752.232,791.726 754.947,794.429C752.526,797.47 755.01,803.425 758.221,806.636L758.297,806.711C761.471,809.831 767.412,812.313 770.429,809.911C773.132,812.626 783.353,823.144 785.094,826.278C787.47,824.515 789.514,822.421 791.302,820.07L774.243,802.161C770.475,807.241 765.616,806.352 761.238,803.62L761.175,803.517ZM944.797,658.325C941.235,650.909 936.21,643.334 929.302,635.555L929.005,635.292C916.411,624.178 906.47,620.113 894.746,617.069C889.01,628.269 880.489,636.683 873.289,646.419C868.775,652.206 865.014,658.35 861.974,664.836C854.917,670.805 848.639,673.878 846.942,678.415C840.829,683.945 833.135,687.804 828.543,694.746C825.021,697.22 820.804,698.857 819.164,703.026C813.487,708.213 809.166,714.65 805.89,722.05C802.584,725.984 795.477,725.998 792.844,730.424C785.395,736.431 778.024,742.591 771.156,749.742C762.656,756.177 755.001,763.458 747.458,770.85L766.148,788.489C769.746,785.583 774.639,782.681 779.854,779.801C780.543,779.42 782.806,780.965 783.349,781.509L783.399,781.561C783.9,782.105 785.426,784.336 785.057,785.004C782.177,790.219 779.275,795.112 776.369,798.71L794.007,817.399C801.4,809.856 808.681,802.202 815.116,793.701C822.267,786.834 827.719,778.755 833.726,771.307C838.152,768.674 839.58,762.981 843.515,759.675C850.915,756.399 853.816,748.542 859.004,742.865C863.172,741.226 867.638,739.837 870.112,736.315C877.053,731.723 880.913,724.029 886.442,717.916C890.98,716.218 894.053,709.941 900.022,702.884C906.508,699.843 912.652,696.083 918.439,691.569C928.175,684.369 936.589,675.848 947.788,670.111C946.865,666.555 947.774,665.089 946.223,661.466C946.121,662.102 945.917,662.695 945.61,663.243C945.051,664.242 944.297,666.148 942.917,665.799C940.835,665.272 939.043,666.987 936.462,667.792C938.496,666.538 939.679,664.253 942.729,663.726C944.441,663.43 944.97,661.236 944.797,658.325ZM791.637,811.651C788.458,810.316 790.676,805.812 791.789,803.04C792.489,801.296 794.164,799.304 795.719,797.515C798.015,794.873 797.204,786.237 801.752,788.928C806.385,791.668 802.774,796.224 802.462,798.83C802.084,801.981 800.332,803.635 799.258,805.536C796.812,809.867 794.669,812.923 791.637,811.651ZM776.995,785.655C778.512,784.759 782.113,782.745 782.113,782.745C775.932,793.936 769.736,803.663 763.42,801.538L763.346,801.512C763.205,801.102 763.104,800.681 763.058,800.25C762.808,797.93 764.12,795.8 765.596,794.13C765.863,793.828 766.141,793.535 766.425,793.25C766.778,792.897 767.142,792.555 767.515,792.224C767.969,791.82 768.435,791.431 768.91,791.053C769.544,790.548 770.194,790.063 770.854,789.592C771.702,788.987 772.567,788.406 773.443,787.841C774.611,787.087 775.798,786.362 776.995,785.655ZM816.841,730.15C807.324,735.882 817.592,769.943 819.924,771.043C818.528,771.296 817.012,776.275 818.948,778.535C813.604,784.998 811.909,789.663 815.547,791.702L833.132,770.007C833.987,769.434 834.876,768.898 835.904,768.517C834.818,761.927 816.557,736.853 816.841,730.15ZM805.367,785.313C802.15,785.143 777.919,760.873 778.067,757.631C776.263,759.15 776.725,761.901 777.611,762.703C778.931,763.898 802.512,786.284 805.367,785.313ZM754.932,773.939C756.267,777.119 758.925,774.062 761.697,772.949C763.442,772.248 766.395,770.173 768.185,768.617C770.826,766.321 776.463,767.621 773.773,763.072C771.033,758.44 769.332,760.664 766.726,760.976C763.575,761.354 760.874,764.076 759.201,765.479C755.417,768.653 753.66,770.908 754.932,773.939ZM750.875,770.239C750.875,770.239 751.391,769.576 752.118,768.844C752.845,768.111 753.784,767.31 754.629,767.034C753.869,768.594 750.875,770.239 750.875,770.239ZM800.508,763.186C797.637,764.596 782.386,750.342 783.507,746.649C783.853,745.507 784.622,744.205 782.614,743.328C778.665,741.602 777.606,749.96 779.959,752.615C781.877,754.78 799.931,766.009 800.508,763.186ZM759.024,763.045C758.945,763.453 760.426,762.465 761.593,761.532C762.76,760.599 763.611,759.72 762.273,760.346C760.209,761.311 759.186,762.207 759.024,763.045ZM771.359,752.765C770.85,753.571 770.279,754.317 769.628,754.981C768.977,755.646 768.245,756.229 767.412,756.712C770.214,757.41 771.166,755.58 771.359,752.765ZM801.606,735.401C800.374,735.851 799.268,736.437 798.49,737.375C797.034,738.535 795.869,739.877 794.993,741.399C792.427,744.25 790.229,743.388 788.435,738.448L784.944,741.002C786.832,742.078 789.569,742.648 789.427,744.999C789.083,750.663 794.889,748.945 794.395,744.334C796.652,741.278 799.027,738.285 801.606,735.401ZM791.606,732.518C792.686,732.19 794.001,731.307 795.447,730.117C796.892,728.927 799.175,728.138 800.776,726.584C797.285,731.685 793.021,736.755 791.606,732.518ZM810.801,731.317C811.184,730.499 811.779,729.892 812.534,729.446C813.288,728.999 814.202,728.712 815.223,728.532C813.767,730.113 812.291,730.973 810.801,731.317ZM902.302,687.078C889.237,689.988 879.838,696.544 876.407,708.961C866.942,716.882 871.03,725.459 876.139,730.428C875.232,724.891 873.397,715.987 879.346,708.505C879.63,713.111 881.295,716.134 883.538,718.496C878.415,707.166 885.997,695.634 902.302,687.078ZM880.752,695.598L874.939,706.313C869.483,710.802 869.718,720.12 868.677,727.258C868.458,723.563 867.002,722.607 866.289,722.034C864.927,720.94 861.307,722.43 862.852,727.85C860.174,730.122 853.499,726.524 849.704,722.899C848.043,721.313 835.206,712.973 832.559,712.146C829.794,711.283 827.289,715.223 826.452,718.267C825.603,721.357 822.359,721.722 818.878,722.727C814.522,727.153 807.445,726.261 803.204,728.019C806.643,724.315 812.772,723.314 816.757,720.326C819.056,718.602 821.819,717.381 823.679,715.493C825.609,713.534 826.37,710.616 828.009,708.871C834.637,706.612 849.574,704.268 854.405,708.697C857.678,711.698 864.018,711.496 869.05,704.667C872.036,700.616 877.187,698.948 880.752,695.598ZM822.343,714.158C821.063,715.919 819.452,717.293 816.997,717.68C813.761,719.596 812.19,721.885 810.093,723.402C811.927,720.62 813.528,716.819 816.037,717.009C818.123,717.167 819.912,714.98 822.343,714.158ZM827.405,701.63C827.258,701.813 827.109,701.995 826.958,702.177C826.915,702.243 826.873,702.31 826.834,702.38C825.307,705.103 822.97,706.941 821.751,709.586C823.126,706.542 825.156,704.357 826.958,702.177C827.09,701.979 827.24,701.798 827.405,701.63C828.527,700.235 829.527,698.812 830.172,697.141C834.199,686.712 845.619,681.897 853.131,673.874C844.861,683.533 834.556,690.118 831.221,698.19C830.526,699.871 828.597,700.414 827.405,701.63ZM816.204,708.018C817.55,707.89 818.9,707.393 820.232,706.182C821.564,704.971 822.879,703.047 824.157,700.065C821.711,703.488 819.069,706.173 816.204,708.018ZM888.523,679.871C878.343,682.356 866.058,682.223 856.214,674.364C847.38,683.592 836.446,690.055 832.567,699.536C835.686,697.757 838.039,693.212 843.273,694.804C853.194,697.823 864.198,695.462 872.959,692.939C874.628,692.459 876.417,689.199 883.678,685.018C885.697,683.856 887.763,682.605 889.291,680.638L888.523,679.871ZM910.31,691.619C908.546,691.585 906.901,691.433 905.301,691.235C907.179,692.874 906.098,694.312 904.392,695.739C906.137,695.233 908.016,694.22 910.31,691.619ZM905.06,660.775C904.311,666.102 901.868,670.829 897.866,675.004C896.406,682.823 897.158,684.862 898.427,685.551C892.703,686.363 887.879,688.148 883.362,690.266C887.751,686.275 892.004,682.147 895.859,677.622C896.099,674.85 898.017,672.077 902.011,666.488C903.13,664.922 903.997,662.933 905.06,660.775ZM933.279,668.65C931.005,671.114 928.95,673.416 927.272,675.436C925.594,677.457 924.295,679.197 923.533,680.536C921.028,684.943 930.756,673.479 933.279,668.65ZM922.292,676.012C916.237,679.764 910.704,678.894 908.237,676.807C906.685,675.494 905.517,672.852 907.972,668.21C907.386,666.395 908.098,665.169 908.758,663.919C907.253,664.888 906.13,666.122 906.203,668.186C903.634,673.023 904.323,677.063 906,678.72C908.374,681.065 916.947,683.132 922.292,676.012ZM942.57,621.983C929.521,609.072 903.002,600.102 895.105,598.9C891.758,602.428 889.546,606.42 893.828,613.069C907.564,613.716 920.233,617.969 933.561,631.297C946.889,644.624 951.142,657.293 951.788,671.03C958.438,675.312 962.43,673.1 965.958,669.753C964.751,661.825 955.699,635.112 942.722,622.135L942.57,621.983ZM928.754,669.747C932.997,661.988 934.813,657.424 934.665,655.446C934.517,653.468 932.406,654.076 928.794,656.659C932.993,657.695 931.326,663.363 928.754,669.747ZM860.684,667.589L863.363,665.394L865.385,661.161C865.504,664.989 864.088,667.283 860.684,667.589ZM866.895,658.242C868.87,655.218 870.756,652.359 872.516,649.729C873.487,648.278 874.42,646.897 875.309,645.598C875.651,648.489 874.901,651.26 871.217,653.46L866.895,658.242ZM915.47,654.306C914.498,655.915 912.762,656.271 910.542,655.83C907.729,659.251 906.759,657.826 908.856,648.339C908.031,646.66 907.305,643.039 907.486,642.858C904.896,644.927 905.125,637.076 910.891,631.111C909.439,636.113 907.304,641.81 910.621,641.952C909.007,647.687 910.301,652.462 915.47,654.306ZM937.723,654.254C936.752,649.236 934.297,644.665 930.431,640.519C923.391,632.97 902.133,616.916 897.146,623.378C902.407,619.825 920.114,631.268 928.905,641.565C932.122,645.334 935.054,649.575 937.723,654.254Z" style="fill:white;"/>
    </g>
</svg>
