<?xml version="1.0" encoding="UTF-8" standalone="no"?>
<!DOCTYPE svg PUBLIC "-//W3C//DTD SVG 1.1//EN" "http://www.w3.org/Graphics/SVG/1.1/DTD/svg11.dtd">
<svg width="100%" height="100%" viewBox="0 0 1000 1000" version="1.1" xmlns="http://www.w3.org/2000/svg" xmlns:xlink="http://www.w3.org/1999/xlink" xml:space="preserve" xmlns:serif="http://www.serif.com/" style="fill-rule:evenodd;clip-rule:evenodd;stroke-linejoin:round;stroke-miterlimit:2;">
    <g transform="matrix(2.36546,0,0,2.36546,-680.754,-515.809)">
        <path d="M383.099,426.913C437.47,392.765 481.68,378.131 526.83,381.673C567.041,384.828 597.742,405.856 596.746,445.243C595.865,480.1 579.895,495.755 548.863,504.455C472.756,525.793 423.003,509.309 380.606,459.635C365.165,479.152 358.609,495.215 360.603,508.091C364.298,531.949 374.464,548.808 390.094,560.271C457.672,609.83 522.369,605.651 600.016,575.378C616.844,568.817 630.219,547.024 639.988,543.776C646.333,541.666 657.01,552.914 653.497,558.603C648.198,567.184 624.22,587.426 608.196,595.26C564.035,616.85 523.632,622.178 487.246,618.687C399.074,610.227 355.203,571.095 340.669,519.848C338.158,510.995 339.13,498.511 340.694,488.618C342.241,478.83 347.788,469.622 352.43,460.131C355.746,453.348 361.391,447.7 366.338,441.493C359.756,431.892 352.672,423.486 348.946,414.32C345.23,405.181 339.501,396.986 339.489,388.489C339.478,380.316 338.85,372.492 339.989,365.241C353.123,281.653 426.897,243.076 500,239.334C521.028,238.257 542.479,243.657 563.512,249.957C594.664,259.288 621.062,280.492 641.29,301.609C649.92,310.618 658.313,318.834 659.148,324.717C659.978,330.562 650.284,341.263 646.299,336.907C629.295,318.322 575.784,276.475 548.985,267.561C488.219,247.348 390.839,274.591 367.849,344.255C359.036,370.961 357.795,398.55 383.099,426.913ZM395.236,444.445C420.739,426.389 451.804,411.254 494.42,402.186C543.672,396.726 569.187,412.56 576,443.234C581.262,466.925 551.057,489.114 499.165,493.388C451.924,492.825 417.549,476.176 395.236,444.445ZM399.952,343.71C407.126,343.71 412.951,349.525 412.951,356.688C412.951,363.851 407.126,369.666 399.952,369.666C392.778,369.666 386.953,363.851 386.953,356.688C386.953,349.525 392.778,343.71 399.952,343.71Z" style="fill:white;"/>
    </g>
</svg>
