<?xml version="1.0" encoding="UTF-8" standalone="no"?>
<!DOCTYPE svg PUBLIC "-//W3C//DTD SVG 1.1//EN" "http://www.w3.org/Graphics/SVG/1.1/DTD/svg11.dtd">
<svg width="100%" height="100%" viewBox="0 0 1000 1000" version="1.1" xmlns="http://www.w3.org/2000/svg" xmlns:xlink="http://www.w3.org/1999/xlink" xml:space="preserve" xmlns:serif="http://www.serif.com/" style="fill-rule:evenodd;clip-rule:evenodd;stroke-linejoin:round;stroke-miterlimit:2;">
    <g transform="matrix(3.70402,0,0,3.70402,-1353.9,-613.082)">
        <path d="M451,375C438.564,376.637 440.92,378.718 450,381L469,386C486.461,392.314 485.049,392.992 468,389C450.135,383.459 448.599,388.036 459,396C531.216,429.715 582.09,420.224 605,363C603.219,357.249 600.726,354.592 596,361.618L593,370.098L567,366C555.402,365.758 558.175,367.767 563,370.098C610.679,383.683 592.657,381.48 561,376C544.483,374.022 546.543,376.008 558,380C598.253,391.187 585.152,389.198 555,383C530.223,378.23 537.334,381.538 549,386C577.028,396.005 564.789,394.083 525,384C507.126,380.854 503.298,381.59 520,388C563.438,399.695 579.298,404.928 539,397L451,375ZM440,391C444.332,393.155 446.284,392.818 443,387C435.672,379.922 429.622,372.088 424,364C446.61,371.28 469.282,377.528 492,383C500.827,382.415 499.1,380 494,377C473.078,372.41 449.262,366.342 421,358L420,349C426.953,352.249 433.959,354.474 441,356C451.019,355.727 450.327,352.611 444,348C434.884,347.026 426.328,343.638 418,339.272C422.294,340.575 426.616,341.301 431,340.755C436.694,339.749 437.453,338.242 431,336C428.875,335.641 426.773,335.19 425,333.375C422.663,329.6 418.65,326.65 412,325C416.609,317.968 415.369,314.576 408,315C403.617,310.631 401.004,310.048 403,319.331C410.926,357.987 423.545,378.997 438.561,391L440,391ZM523,371.591C525.433,371.591 527.409,373.567 527.409,376C527.409,378.433 525.433,380.409 523,380.409C520.567,380.409 518.591,378.433 518.591,376C518.591,373.567 520.567,371.591 523,371.591ZM494.591,365.182C497.024,365.182 499,367.157 499,369.591C499,372.024 497.024,374 494.591,374C492.157,374 490.182,372.024 490.182,369.591C490.182,367.157 492.157,365.182 494.591,365.182ZM440.585,314.56C453.453,312.386 463.553,305.077 470.516,291.943C470.574,272.065 477.593,253.156 490,235C514.614,212.475 516.193,205.313 515,200C526.767,202.129 538.676,203.35 550,206.628C550.559,206.79 551.118,206.95 551.68,207.109L552.442,206C544.588,197.699 541.514,192.847 542.605,191C543.785,189.001 552.844,186.522 560,195C570.729,180.63 577.758,182.903 575,200C585.343,197.688 588.037,196.237 587.675,200C587.113,205.839 581.075,207.788 570,210L569.22,211.56C586.378,215.412 604.034,217.923 622,219C613.966,227.556 599.763,236.397 570,260C567.172,262.243 564.75,265.09 562.7,268.383C575.538,265.411 583.975,268.397 589,276C594.212,278.553 598.692,277.229 603,275C599.936,282.015 593.503,285.848 580,283C577.838,282.775 575.876,282.605 574.098,282.488L574.636,296.21C576.686,296.257 578.599,296.792 580,298C586.213,303.361 596.705,317.281 604,313C598.753,317.528 591.882,318.742 584,317.894C580.649,317.534 578.357,315.311 575.316,313.55L575.923,329.04C594.488,331.912 607.071,335.133 612,338.71C618.468,343.403 621.392,347.588 620,350.783C616.079,359.783 608.597,365.874 600.5,351.5C585.686,347.701 574.908,347.06 568,349.049C560.461,351.22 557.533,354.247 559,362C560.379,369.287 546.098,363.688 543,360C532.805,377.397 525.306,369.117 518,359C500.94,371.436 494.536,363.495 490,351.982C483.691,354.762 477.717,355.896 472,355.766C470.312,355.728 467.17,354.656 467,353C466.613,349.237 464.859,346.21 463.406,343C462.731,341.509 460.088,341.05 456.5,340.357C453.469,339.772 449.444,339.605 446,337.341C434.692,329.907 419.237,310.913 404.865,302C394.538,295.596 387.608,290.596 388,291.315C388.188,291.661 396.389,295.495 400.61,304C401.771,306.339 402.646,309.004 403,312C394.094,306.798 390.042,301.689 383.664,298C376.808,294.034 378.694,285.443 382,285.006C393.867,283.437 405.967,292.417 424,310C432.302,311.447 437.833,313.127 440.585,314.56ZM473,358.591C475.433,358.591 477.409,360.567 477.409,363C477.409,365.433 475.433,367.409 473,367.409C470.567,367.409 468.591,365.433 468.591,363C468.591,360.567 470.567,358.591 473,358.591ZM565,355C570.04,354.89 574.611,355.159 578.387,356.071C582.162,356.983 585.142,358.538 587,361C573.376,363.59 568.606,359.72 565,355ZM465.573,335.162C468.093,336.962 469.705,339.374 471,342C471.259,353.464 477.959,351.616 486,347C490.581,342.11 493.669,344.272 496,350C500.794,360.741 506.321,358.244 512,353C517.407,349.178 521.426,351.162 525,355C528.359,364.035 532.495,362.933 537,357C539.289,352.234 541.877,350.973 545,356C549.529,360.583 552.35,359.298 554,354C559.982,339.241 579.696,340.6 602,345C606.574,351.666 608.934,354.68 609.378,354.5C614.751,352.319 618.61,345.64 603,341L562.969,335.281C553.946,355.954 530.137,357.327 492,340L499.271,323.034L477.562,320.32L465.573,335.162ZM520.085,340.382C521.165,332.446 521.297,328.083 520.313,327.932C519.33,327.781 517.229,331.842 513.842,340.755C515.958,340.689 518.042,340.569 520.085,340.382ZM501.157,340.593C504.74,331.322 506.369,326.355 505.809,326.162C505.248,325.97 502.499,330.552 497.326,340.379C498.61,340.46 499.889,340.532 501.157,340.593ZM549.277,329.285L529.099,326.762C528.003,330.675 527.592,334.836 527.937,339.272C536.072,337.665 543.351,334.615 549.277,329.285ZM458.755,332.422L473.544,315.019C472.846,312.376 472.272,309.749 471.819,307.139C461.904,315.752 450.717,319.664 438.561,319.993C438.666,320.524 439.093,321.177 440,322C443.455,325.989 447.406,329.382 452,332C454.591,331.912 456.822,332.067 458.755,332.422ZM569.887,328.147L568.861,311.397C567.11,311.23 565.091,311.334 562.699,311.843L565.555,327.552C567.028,327.749 568.471,327.947 569.887,328.147ZM559.556,326.782L556.704,312.518C555.438,312.458 554.287,312.243 553.244,311.88C553.334,316.83 553.726,321.66 554.372,326.159C556.132,326.364 557.86,326.572 559.556,326.782ZM567.08,282.307C557.487,282.588 556.884,285.624 557.34,290C557.822,294.629 558.734,304.844 564,299.954C565.012,299.014 566.421,298.165 568.011,297.514L567.08,282.307Z" style="fill:white;"/>
    </g>
</svg>
