<?xml version="1.0" encoding="UTF-8" standalone="no"?>
<!DOCTYPE svg PUBLIC "-//W3C//DTD SVG 1.1//EN" "http://www.w3.org/Graphics/SVG/1.1/DTD/svg11.dtd">
<svg width="100%" height="100%" viewBox="0 0 1000 1000" version="1.1" xmlns="http://www.w3.org/2000/svg" xmlns:xlink="http://www.w3.org/1999/xlink" xml:space="preserve" xmlns:serif="http://www.serif.com/" style="fill-rule:evenodd;clip-rule:evenodd;stroke-linejoin:round;stroke-miterlimit:2;">
    <g transform="matrix(3.82979,0,0,3.82979,-1414.89,-1257.39)">
        <path d="M538.199,460.027L552.5,482.5L500,535L447.5,482.5L461.801,460.027L382.5,382.75L617.5,382.75L538.199,460.027ZM500,497.25L527.986,469.978L535,481L500,516L465,481L472.014,469.978L500,497.25ZM478.789,459.331L500,480L521.211,459.331L500,426L478.789,459.331ZM531.423,449.379L587.227,395L412.773,395L468.577,449.379L500,400L531.423,449.379Z" style="fill:white;"/>
    </g>
</svg>
