<?xml version="1.0" encoding="UTF-8" standalone="no"?>
<!DOCTYPE svg PUBLIC "-//W3C//DTD SVG 1.1//EN" "http://www.w3.org/Graphics/SVG/1.1/DTD/svg11.dtd">
<svg width="100%" height="100%" viewBox="0 0 1000 1000" version="1.1" xmlns="http://www.w3.org/2000/svg" xmlns:xlink="http://www.w3.org/1999/xlink" xml:space="preserve" xmlns:serif="http://www.serif.com/" style="fill-rule:evenodd;clip-rule:evenodd;stroke-linejoin:round;stroke-miterlimit:2;">
    <g transform="matrix(0.977759,0,0,0.977759,1.11203,11.1203)">
        <path d="M813.846,613.345C813.47,614.822 818.274,633.243 818.1,633.691C868.937,767.297 659.29,867.195 484.972,807.313C271.443,733.96 93.986,705.854 55.13,601.453C16.05,496.449 211.196,450.993 270.051,377.443C427.214,181.037 548.86,132.933 721.167,209.583C718.891,215.543 717.019,222.237 715.704,229.503C714.628,235.448 713.464,244.495 712.528,252.51C680.939,244.45 661.463,253.413 649.418,262.802C637.138,272.376 628.386,286.037 625.789,304.888C623.983,317.993 626.811,338.045 632.769,360.406C636.64,374.936 643.551,391.665 641.438,405.336C638.452,424.661 631.224,436.792 626.672,445.289C621.369,455.189 617.896,463.501 616.222,470.344C611.769,488.543 614.624,503.89 623.588,518.177C632.28,532.031 645.574,542.026 664.233,546.06C672.921,547.938 683.883,548.342 695.95,546.952C697.913,546.726 700.27,546.415 702.807,546.053C703.341,549.606 703.837,552.99 704.23,555.794C706.46,571.703 709.91,585.898 714.057,595.051C728.632,627.215 753.485,635.78 779.026,631.148C791.453,628.895 803.354,623.039 813.846,613.345ZM673.092,687.67C691.446,690.135 703.91,710.277 700.91,732.621C697.909,754.966 680.572,771.106 662.218,768.641C643.865,766.176 631.4,746.034 634.401,723.689C637.402,701.345 654.739,685.205 673.092,687.67ZM488.947,679.174C507.301,681.639 519.765,701.781 516.765,724.126C513.764,746.47 496.427,762.61 478.073,760.145C459.72,757.68 447.255,737.538 450.256,715.194C453.257,692.849 470.594,676.709 488.947,679.174ZM574.916,563.218C593.269,565.683 605.734,585.825 602.733,608.169C599.732,630.514 582.395,646.653 564.042,644.189C545.688,641.724 533.224,621.582 536.224,599.237C539.225,576.893 556.562,560.753 574.916,563.218ZM402.477,558.47C403.613,558.482 404.756,558.563 405.903,558.717C424.257,561.182 436.721,581.324 433.72,603.669C430.93,624.442 415.749,639.853 398.881,639.936L395.029,639.688C376.675,637.223 364.211,617.081 367.212,594.737C370.013,573.876 385.31,558.423 402.264,558.469L402.477,558.47ZM234.354,528.965C252.708,531.43 265.173,551.572 262.172,573.917C259.171,596.261 241.834,612.401 223.48,609.936C205.127,607.471 192.662,587.329 195.663,564.985C198.664,542.64 216.001,526.501 234.354,528.965ZM740.614,278.762C728.724,284.39 717.343,286.282 705.036,283.098C686.956,278.42 675.65,282.283 668.78,287.639C662.53,292.511 658.308,299.593 656.986,309.186C655.58,319.387 658.561,334.892 663.199,352.298C668.156,370.906 675.266,392.639 672.561,410.146C667.7,441.593 654.578,458.533 649.678,469.631C643.945,482.617 644.755,492.66 650.264,501.44C654.644,508.421 661.485,513.246 670.888,515.279C677.876,516.79 687.173,516.492 697.259,515.02C706.046,513.738 715.697,511.626 724.18,510.822C725.46,510.7 727.127,510.679 728.565,510.692C729.547,514.216 731.094,520.112 731.809,524.671C735.042,545.264 737.302,570.049 742.741,582.053C749.725,597.464 761.168,602.381 773.406,600.162C784.279,598.19 794.388,590.178 802.386,578.354C805.391,573.911 809.445,567.356 812.683,562.023C839.183,588.89 858.814,600.943 871.779,603.879C881.036,605.975 888.732,604.832 895.118,601.921C901.807,598.871 907.398,593.705 911.434,586.146C915.764,578.036 918.232,565.497 918.785,549.244C919.638,524.153 916.801,487.596 920.695,446.356C924.04,446.564 927.503,446.674 930.183,446.514C938.909,445.995 947.199,443.432 954.113,438.008C960.85,432.721 966.812,424.587 969.321,411.106C971.656,398.558 970.858,379.024 962.991,349.077C959.587,336.123 953.796,329.385 948.396,325.615C940.748,320.277 931.94,318.975 921.875,321.809C916.063,323.446 909.253,327.182 901.885,330.735C898.177,332.523 894.274,334.807 889.949,334.239C885.821,333.697 882.373,330.022 877.959,323.653C852.299,286.624 841.336,251.016 829.177,229.333C815.988,205.812 800.337,194.873 778.09,197.348C768.279,198.439 760.515,203.435 754.85,212.14C750.465,218.879 747.448,229.056 745.802,240.673C744.624,248.995 743.971,258.211 742.971,266.62C742.501,270.58 741.26,276.054 740.614,278.762ZM496.267,408.025C497.403,408.037 498.546,408.118 499.693,408.273C518.047,410.737 530.512,430.879 527.511,453.224C524.721,473.998 509.54,489.408 492.671,489.492L488.819,489.243C470.466,486.778 458.001,466.636 461.002,444.292C463.804,423.431 479.101,407.978 496.054,408.024L496.267,408.025Z" style="fill:white;"/>
    </g>
</svg>
