<?xml version="1.0" encoding="UTF-8" standalone="no"?>
<!DOCTYPE svg PUBLIC "-//W3C//DTD SVG 1.1//EN" "http://www.w3.org/Graphics/SVG/1.1/DTD/svg11.dtd">
<svg width="100%" height="100%" viewBox="0 0 1000 1000" version="1.1" xmlns="http://www.w3.org/2000/svg" xmlns:xlink="http://www.w3.org/1999/xlink" xml:space="preserve" xmlns:serif="http://www.serif.com/" style="fill-rule:evenodd;clip-rule:evenodd;stroke-linejoin:round;stroke-miterlimit:2;">
    <g transform="matrix(12.8866,0,0,12.8866,-5787.69,-5243.79)">
        <path d="M469.471,472.591C469.497,472.599 469.525,472.596 469.548,472.582C469.572,472.568 469.588,472.545 469.593,472.519L470.078,470.095C470.078,470.095 473,470.095 473,470.095C473.041,470.095 473.077,470.069 473.09,470.031C473.103,469.992 473.09,469.949 473.058,469.924C471.134,468.45 470.272,467.169 470.329,466.033C470.385,464.903 471.354,463.937 473.043,463.085C473.082,463.065 473.103,463.021 473.093,462.978C473.082,462.935 473.044,462.905 473,462.905C468.979,462.9 465.535,464.436 462.45,466.926C462.416,466.953 462.405,467.001 462.424,467.04C463.751,469.893 466.275,471.571 469.471,472.591ZM474.443,469.579C474.473,469.6 474.511,469.604 474.544,469.587L482.521,465.598C485.445,465.706 487.249,464.893 488.357,463.764C490.026,462.063 490.117,459.635 490.058,458.495C490.015,457.676 489.387,456.333 488.309,455.197C486.696,453.496 484.082,452.255 480.954,453.914C480.949,453.916 480.944,453.92 480.94,453.923C478.491,455.852 477.334,458.034 477.401,460.451C476.519,461.079 475.685,461.864 474.932,462.927C473.278,463.833 472.225,464.822 472.044,465.912C471.861,467.009 472.553,468.226 474.443,469.579ZM462.06,461.641C461.59,458.866 462.127,456.746 463.618,455.246C465.784,453.066 469.9,450.053 476,452.536L479,454C477.199,455.303 476.115,456.847 476,459C475.944,460.053 474.234,460.897 474,462C469.187,460.934 465.877,462.538 463.033,464.971L463,465C461.914,464.081 461.172,463.096 461,462C461.353,461.843 461.707,461.728 462.06,461.641ZM469.459,449.301C469.153,448.847 468.525,447.963 467.926,447.402C467.653,447.145 467.377,446.951 467.133,446.845C466.846,446.721 466.575,446.698 466.338,446.749C460.021,448.11 456.786,450.483 453.943,453.47C452.753,454.722 452.782,456.109 453.548,457.605C454.474,459.412 456.623,461.419 458.418,463.502C458.633,463.751 458.982,463.835 459.287,463.713C459.592,463.59 459.785,463.287 459.767,462.959C459.48,457.617 462.057,453.338 469.262,450.722C469.481,450.643 469.651,450.469 469.727,450.249C469.767,450.131 469.778,450.007 469.76,449.886C469.815,449.913 469.875,449.931 469.938,449.938C474.593,450.471 477.308,451.891 479.699,453.459C479.872,453.572 480.093,453.579 480.272,453.476C481.744,452.635 483.261,452.003 484.953,452.149C485.091,452.16 485.228,452.12 485.337,452.035L489.337,448.92C489.464,448.822 489.541,448.672 489.548,448.512C489.555,448.351 489.492,448.196 489.374,448.086C486.822,445.705 484.324,444.465 481.779,444.19C477.997,443.78 474.078,445.511 469.662,448.961C469.552,449.047 469.482,449.169 469.459,449.301ZM491.173,459.574C491.198,459.687 491.28,459.779 491.389,459.817C491.498,459.855 491.619,459.834 491.71,459.762C493.121,458.633 494.872,457.966 497.02,457.835C497.116,457.829 497.204,457.783 497.264,457.708C497.323,457.633 497.347,457.536 497.331,457.442C497.285,457.184 497.295,456.921 497.277,456.661C497.254,456.337 497.193,456.017 497.003,455.708C496.785,455.352 496.392,455.001 495.64,454.691C494.701,454.305 493.154,453.967 490.593,453.719C490.593,453.719 494.771,447.993 494.771,447.993C494.773,447.991 494.775,447.988 494.776,447.986C495.113,447.497 495.045,447.08 494.862,446.845C494.654,446.579 494.25,446.466 493.831,446.71C493.821,446.716 493.811,446.722 493.801,446.729L486.301,452.229C486.207,452.299 486.155,452.412 486.166,452.529C486.176,452.646 486.246,452.749 486.351,452.801C489.105,454.166 490.495,456.593 491.173,459.574ZM473,456C473.276,456 473.5,456.224 473.5,456.5C473.5,456.776 473.276,457 473,457C472.724,457 472.5,456.776 472.5,456.5C472.5,456.224 472.724,456 473,456ZM474.5,456C474.776,456 475,456.224 475,456.5C475,456.776 474.776,457 474.5,457C474.224,457 474,456.776 474,456.5C474,456.224 474.224,456 474.5,456ZM473.755,454.725C474.031,454.725 474.255,454.949 474.255,455.225C474.255,455.501 474.031,455.725 473.755,455.725C473.479,455.725 473.255,455.501 473.255,455.225C473.255,454.949 473.479,454.725 473.755,454.725ZM475.217,454.725C475.493,454.725 475.717,454.949 475.717,455.225C475.717,455.501 475.493,455.725 475.217,455.725C474.941,455.725 474.717,455.501 474.717,455.225C474.717,454.949 474.941,454.725 475.217,454.725ZM474.5,453.5C474.776,453.5 475,453.724 475,454C475,454.276 474.776,454.5 474.5,454.5C474.224,454.5 474,454.276 474,454C474,453.724 474.224,453.5 474.5,453.5ZM491,448C489.39,447.634 489.175,446.574 491,444.5L517.5,420C521.346,417.057 524.852,420.155 521.5,424.5L494.234,450.5C495.097,449.367 495.541,448.29 495.884,447.5C496.65,445.735 495.459,444.612 494,445.5C493.318,445.915 492.293,446.819 491,448ZM485.872,443.834C485.824,443.871 485.795,443.926 485.791,443.986C485.787,444.047 485.809,444.106 485.852,444.148L487.852,446.148C487.932,446.229 488.062,446.23 488.144,446.152L500.144,434.733C500.15,434.728 500.154,434.723 500.159,434.718C500.471,434.354 500.447,434.012 500.28,433.792C500.053,433.492 499.457,433.372 498.872,433.834C498.872,433.834 485.872,443.834 485.872,443.834Z" style="fill:white;"/>
    </g>
</svg>
