<?xml version="1.0" encoding="UTF-8" standalone="no"?>
<!DOCTYPE svg PUBLIC "-//W3C//DTD SVG 1.1//EN" "http://www.w3.org/Graphics/SVG/1.1/DTD/svg11.dtd">
<svg width="100%" height="100%" viewBox="0 0 1000 1000" version="1.1" xmlns="http://www.w3.org/2000/svg" xmlns:xlink="http://www.w3.org/1999/xlink" xml:space="preserve" xmlns:serif="http://www.serif.com/" style="fill-rule:evenodd;clip-rule:evenodd;stroke-linejoin:round;stroke-miterlimit:2;">
    <g transform="matrix(4.41176,0,0,4.94149,-1436.76,-1365.36)">
        <path d="M356,380L356,402C347.834,409.158 343.118,418.224 338,429L337,407C341.758,396.299 348.243,387.463 356,380ZM509,365L509,387C517.166,394.158 535.882,414.224 541,425L541,403C536.242,392.299 516.757,372.463 509,365ZM400,377C384.734,379.37 371.685,385.943 361,397C362.16,383.333 361.391,369.667 355,356C363.752,356.408 371.81,357.362 379,359C380.84,369.106 387.613,375.286 400,377ZM508,344C501.606,347.773 495.197,351.343 488,353C484.894,364.652 478.047,371.026 469.5,375C483.737,375.721 496.496,381.165 506,389C505.211,375.318 505.148,358.228 508,344ZM427.819,347.455C423.895,356.455 422.881,365.455 427.319,374.455C412.17,376.732 392.6,374.121 387,367C380.813,359.132 373.113,325.474 401.819,326.455C413.415,331.17 421.516,338.611 427.819,347.455ZM436,347C440.691,347 444.5,353.273 444.5,361C444.5,368.727 440.691,375 436,375C431.309,375 427.5,368.727 427.5,361C427.5,353.273 431.309,347 436,347ZM444,347C447.924,356 448.938,365 444.5,374C459.649,376.277 473.4,371.121 479,364C485.187,356.132 498.707,325.018 470,326C458.404,330.714 450.303,338.155 444,347Z" style="fill:white;"/>
    </g>
</svg>
