<?xml version="1.0" encoding="UTF-8" standalone="no"?>
<!DOCTYPE svg PUBLIC "-//W3C//DTD SVG 1.1//EN" "http://www.w3.org/Graphics/SVG/1.1/DTD/svg11.dtd">
<svg width="100%" height="100%" viewBox="0 0 1000 1000" version="1.1" xmlns="http://www.w3.org/2000/svg" xmlns:xlink="http://www.w3.org/1999/xlink" xml:space="preserve" xmlns:serif="http://www.serif.com/" style="fill-rule:evenodd;clip-rule:evenodd;stroke-linejoin:round;stroke-miterlimit:2;">
    <path d="M851.598,368.302C840.813,375.416 831.923,378.77 826.923,384.086C826.208,384.846 825.551,385.599 824.949,386.345C853.369,391.483 875.088,403.533 888.462,424.191C908.974,415.489 929.487,411.864 950,412.103C931.786,417.22 914.306,426.18 897.253,437.377C937.043,514.833 927.862,597.805 835.714,690.125C843.069,678.661 849.892,667.273 855.495,656.059C807.953,711.631 755.508,743.966 699.451,768.147C669.64,813.937 629.146,860.052 574.176,906.608C546.778,929.813 524.739,937.641 510.44,928.586C478.729,908.506 446.294,905.546 413.736,905.509C399.412,905.493 395.897,924.87 400.549,934.081C402.972,938.877 403.263,944.706 401.648,949.465C311.138,931.611 284.51,887.83 276.13,872.542C136.004,853.381 109.131,798.58 107.765,757.933C106.382,716.757 164.787,650.806 270.879,626.939C256.381,533.522 202.154,442.896 93.956,356.059C77.504,352.794 63.364,349.017 50,345.07C68.853,250.567 127.444,175.898 236.813,126.572C278.734,107.666 344.165,81.389 401.648,70.344C536.831,44.371 597.37,47.565 616.21,59.355C628.2,66.86 624.901,75.911 621.429,88.34C589.132,203.95 588.266,305.932 625.897,391.224C650.415,381.569 674.933,374.496 699.451,374.74C687.359,377.817 675.659,381.401 665.385,386.828C717.803,374.238 760.268,372.467 797.736,376.121C816.332,370.899 827.541,364.522 842.539,360.454C854.807,357.127 863.204,344.77 871.978,332.982C870.305,342.73 868.916,355.023 859.89,362.271C859.427,362.642 858.967,363.006 858.508,363.362C866.438,356.376 869.126,348.165 867.582,341.773C860.627,349.865 853.187,357.995 843.8,362.652C825.271,371.844 803.751,377.073 785.431,387.927C774.516,394.394 766.78,405.503 758.791,416.498C760.163,412.876 763.056,406.69 760.231,408.806C758.308,410.246 760.248,404.234 759.89,402.213C757.33,406.119 755.41,410.311 755.495,415.399C740.53,428.606 739.432,443.919 745.604,450.286C748.029,452.787 753.859,451.775 762.088,448.366C756.139,448.875 752.546,447.726 751.099,445.07C760.736,443.878 764.467,437.918 765.385,429.685C775.147,433.334 786.842,435.559 791.758,428.151C803.559,410.369 816.557,381.18 840.11,373.398C844.487,371.951 848.306,370.223 851.598,368.302ZM301.648,859.355C292.031,860.521 287.763,859.281 287.764,855.48C287.765,852.325 292.014,849.677 301.648,850.564C339.762,846.799 364.584,858.445 373.077,889.026C370.167,889.631 367.24,890.04 364.286,890.125C364.521,892.689 364.477,895.253 364.286,897.817C343.647,895.7 322.909,889.146 301.648,859.355ZM758.792,612.716C783.518,613.746 808.572,601.152 816.766,570.344C831.902,513.438 860.65,451.157 913.736,420.894C890.709,424.905 849.817,450.613 846.703,465.949C842.3,487.639 841.054,497.36 824.725,521.993C829.583,512.334 834.673,502.637 836.813,493.421C810.075,526.297 788.113,545.528 770.906,556.437C771.88,550.983 772.8,545.522 773.667,540.051C777.858,513.633 780.811,486.996 782.827,460.195L778.659,457.504C759.211,467.856 740.088,478.511 721.4,489.623C702.457,500.885 683.931,512.567 665.904,524.753C658.408,529.82 650.995,534.97 643.663,540.208C643.156,506.157 660.979,472.846 685.165,469.246C698.139,456.755 702.407,444.264 702.729,431.772C703.081,430.781 703.102,430.068 702.747,429.685C702.753,430.381 702.747,431.078 702.729,431.772C699.066,442.081 659.554,482.508 632.418,496.041C609.766,507.339 591.513,521.598 579.795,539.203C567.228,558.083 567.405,569.286 572.495,596.231C569.038,599.235 565.609,602.262 562.207,605.312C541.575,623.811 521.915,643.246 503.335,663.706C498.786,652.232 498.901,635.18 508.242,613.202C493.069,622.186 470.875,666.712 471.172,685.729C471.184,686.533 473.165,696.777 466.913,706.962C465.561,708.699 464.216,710.442 462.876,712.195C462.144,712.964 461.352,713.722 460.494,714.466C455.481,718.813 451.463,725.05 448.35,731.883C430.794,756.544 414.636,782.543 400,810C413.944,785.035 429.171,761.344 445.559,738.801C442.552,747.238 440.786,755.916 440.11,762.652C449.035,748.104 454.178,743.042 456.593,744.766C462.85,749.233 471.783,775.582 453.303,788.711C440.03,798.141 437.924,814.256 434.615,825.021C430.152,839.541 430.97,859.47 440.844,872.542C444.558,851.483 452.687,838.036 467.582,834.982C474.067,833.653 478.765,832.147 483.934,837.134C490.486,832.611 497.18,828.242 508.242,828.586C512.199,825.757 516.646,824.043 521.429,823.092C517.226,825.07 513.392,827.449 510.44,830.784C521.583,856.128 551.729,842.971 587.363,818.696C581.881,824.092 575.608,828.816 568.681,832.982C587.438,838.977 610.083,816.073 634.615,779.136C607.364,798.358 581.945,801.956 557.692,795.619C553.92,790.372 561.366,778.801 574.009,765.864C583.726,755.921 596.919,749.258 610.44,747.756C634.064,745.13 679.247,699.41 676.374,687.927C657.183,694.467 645.581,686.135 641.062,680.235C635.773,673.328 636.51,652.201 656.593,645.07C651.151,621.965 685.701,611.271 702.318,603.311C717.746,595.921 734.367,593.696 752.198,596.718C742.661,596.992 733.883,598.581 726.923,603.311C735.437,608.392 745.303,611.553 755.352,612.484C754.928,614.29 754.497,616.099 754.059,617.906C741.684,668.969 724.048,719.152 699.451,768.147C725.105,719.555 743.881,669.647 757.245,618.71C757.769,616.713 758.285,614.714 758.792,612.716ZM319.16,208.444C325.606,201.797 330.669,195.978 333.968,191.224C370.253,138.925 514.04,71.958 588.462,63.954C450.466,62.193 336.994,84.628 247.802,130.024C125.78,192.128 84.26,247.572 63.39,326.537C79.968,337.684 164.862,342.413 210.512,304.189C233.766,284.718 257.063,265.161 277.273,247.433C270.104,254.709 263.248,261.976 256.593,269.246C253.99,276.796 255.98,279.524 259.89,280.235C263.556,282.544 268.394,285.134 270.519,290.125C275.456,301.72 288.96,329.748 306.044,358.257L291.758,358.257C282.807,346.565 275.782,335.271 269.78,324.191C271.272,336.801 275.779,349.585 285.165,362.652C288.751,367.815 291.194,373.194 290.659,379.136C292.61,392.93 300.479,403.832 313.736,412.103L363.187,494.52L322.527,409.905C325.158,406.944 327.356,403.647 329.121,400.015C348.36,446.124 371.155,490.682 401.648,531.883C417.469,529.9 428.515,522.328 440.11,515.399C403.254,556.049 355.567,574.056 302.747,581.333C306.33,585.593 319.434,588.105 341.209,589.026C348.892,613.558 357.843,638.413 368.681,663.751C368.853,681.095 374.734,695.664 385.812,707.707C386.128,712.407 387.988,717.005 390.659,721.55C404.996,704.248 418.3,686.848 429.272,669.225C420.763,693.294 408.068,722.016 383.535,755.879C384.358,752.577 384.837,749.331 384.81,746.169C377.356,754 369.811,761.176 362.218,768.006C366.14,762.731 369.785,757.399 371.488,751.663C363.856,756.987 356.268,761.923 350,754.96C341.004,749.24 324.19,736.579 309.134,723.092C295.778,711.128 293.572,697.257 293.722,685.729C295.13,676.349 290.121,670.565 274.441,670.761C122.129,679.161 116.897,757.301 120.187,767.341C146.736,848.371 223.706,873.996 313.844,825.657C337.23,813.115 358.061,798.618 374.516,779.425C417.016,729.85 442.17,659.82 486.035,572.775C499.562,545.933 513.756,520.807 531.099,498.916C545.645,480.555 561.925,464.235 580.192,450.259C615.25,423.436 660.297,404.708 712.187,389.026C623.56,396.449 551.412,430.783 462.001,588.542C479.299,544.259 505.672,504.926 536.322,467.926C543.805,458.894 545.051,453.081 543.407,452.249C541.81,451.44 536.375,454.843 526.923,462.652C535.884,453.3 543.576,443.777 550,434.081C516.854,451.941 490.852,475.087 464.286,497.817L490.659,459.355C450.035,363.976 413.704,267.112 396.154,163.751C394.538,154.237 390.379,155.949 385.165,159.355C359.879,175.876 338.278,192.208 319.16,208.444ZM400,811.926C399.892,811.332 398.253,810.537 395.665,809.69C393.719,809.053 391.259,808.377 388.514,807.755C386.972,807.406 385.347,807.08 383.682,806.785C382.613,806.596 381.528,806.42 380.439,806.273C379.351,806.127 378.259,806.012 377.177,805.911C375.495,805.754 373.844,805.642 372.265,805.556C370.503,805.46 368.844,805.405 367.339,805.386C363.252,805.334 360.375,805.531 360,805.967C360.415,805.599 363.125,805.817 366.974,806.339C368.393,806.531 369.957,806.762 371.622,807.019C372.624,807.174 373.656,807.34 374.715,807.503C376.229,807.737 377.784,807.991 379.351,808.22C380.426,808.377 381.507,808.516 382.578,808.654C383.669,808.794 384.75,808.926 385.81,809.053C388.125,809.33 390.32,809.597 392.272,809.877C396.649,810.505 399.743,811.16 400,811.926ZM573.415,601.934C570.714,604.234 568.03,606.548 565.361,608.878C544.227,627.325 524.034,646.692 504.906,667.114C511.212,678.982 523.076,683.347 533.516,679.208C542.277,675.736 577.461,638.846 573.415,601.934ZM644.034,547.258C645.754,566.159 653.389,584.668 668.992,597.817C671.549,599.972 677.15,595.289 684.066,586.828C690.103,528.869 716.59,508.682 751.099,503.311C712.914,526.592 718.478,563.696 726.428,567.835C731.448,570.449 744.605,571.652 765.95,559.429C767.062,552.752 768.097,546.06 769.059,539.355C772.594,514.708 775.155,489.898 776.839,464.947C759.105,474.641 741.682,484.646 724.559,494.915C705.754,506.192 687.342,517.839 669.341,529.868C660.805,535.572 652.366,541.367 644.034,547.258ZM441.209,124.191C430.529,129.081 421.884,134.779 413.736,140.674C409.433,144.731 409.236,153.916 410.44,164.85C411.006,178.308 411.052,192.721 413.966,207.707C427.342,276.49 444.969,350.904 496.154,450.564L522.527,425.289C488.547,324.78 459.331,226.059 441.209,124.191ZM490.19,109.727C493.585,124.007 497.616,138.208 499.924,152.762C506.588,194.792 507.601,238.562 521.38,279.136C525.211,290.418 531.657,301.132 530.702,312.103C528.214,340.666 533.59,367.46 544.505,394.52C546.92,400.507 547.166,402.838 543.171,404.525C537.516,406.912 535.992,405.408 533.516,400.015C527.664,387.265 521.017,372.792 518.165,356.059C509.179,303.332 500.795,242.869 489.56,185.729L500,205.042C488.231,167.775 485.558,136.389 490.19,109.727ZM788.462,381.333C784.764,381.587 782.645,382.05 781.411,382.63C780.178,383.21 779.829,383.908 779.67,384.63C785.941,384.491 789.087,383.454 788.462,381.333ZM509.341,353.861C487.339,276.777 470.736,199.534 464.286,121.993C466.484,122.236 468.681,122.553 470.879,123.092C482.919,198.353 495.938,275.697 509.341,353.861Z" style="fill:white;"/>
</svg>
