<?xml version="1.0" encoding="UTF-8" standalone="no"?>
<!DOCTYPE svg PUBLIC "-//W3C//DTD SVG 1.1//EN" "http://www.w3.org/Graphics/SVG/1.1/DTD/svg11.dtd">
<svg width="100%" height="100%" viewBox="0 0 1000 1000" version="1.1" xmlns="http://www.w3.org/2000/svg" xmlns:xlink="http://www.w3.org/1999/xlink" xml:space="preserve" xmlns:serif="http://www.serif.com/" style="fill-rule:evenodd;clip-rule:evenodd;stroke-linejoin:round;stroke-miterlimit:2;">
    <g transform="matrix(1.42857,0,0,1.42857,-264.283,-242.856)">
        <path d="M706.993,692.816C706.568,693.864 706.235,694.925 706,696C707.957,702.408 706.389,708.749 700,715C693.396,717.893 688.21,723.239 685,732L673,748C666.477,672.361 661.64,589.867 600.911,545C571.776,523.476 540.184,511.509 487,536C476.708,537.262 468.023,536.498 457,534C454.051,532.487 450.191,533.793 450,536C450,536 450.118,540.986 449,540C440.642,532.63 416.544,515.819 391,520C383.334,517.617 379.636,519.978 379,526C389.334,546.527 404.522,559.368 423,567C382.118,566.668 346.533,555.863 313,541C266.799,529.337 218.726,517.919 228,499C218.567,492.566 217.416,485.921 227,479C221.635,471.726 220.316,466.682 220,464.223C219.94,463.758 221.983,466.941 234,467L240,459C238.759,449.319 239.276,443.415 247,453C259.748,432.115 274.441,412.88 299.336,400C312.479,393.201 322.93,382.189 336,375C391.139,323.587 462.22,300.783 540,290C468.96,303.392 404.213,326.761 352,370C418.092,353.077 475.849,375.52 530,415C560.362,442.547 596.585,466.923 650,482C740.106,495.492 836.997,560.189 850,750C831.242,746.168 813.322,740.605 797.839,730L830,730C812.412,607.965 742.344,539.632 654,490C743.6,544.814 806.55,620.43 826,730L797.839,730C795.15,728.158 792.534,726.164 790,724C789.433,723.684 788.873,723.36 788.319,723.029C767.654,639.52 729.586,565.106 645,515C721.43,567 761.778,638.338 783.38,719.713C772.622,711.609 765.23,699.485 764,680C764.569,666.617 756.421,652.572 731.195,637C731.08,636.929 730.968,636.856 730.859,636.78C729.32,633.922 727.75,631.085 726.146,628.266C725.79,627.127 725.434,626.013 725,625C725.006,625.436 725.013,625.872 725.023,626.305C705.469,592.37 681.253,561.716 650,536C681.992,566.69 706.257,600.044 725.626,635.092C726.045,638.522 726.706,641.834 727.698,645C733.118,662.302 726.963,676.412 717,680C714.062,682.557 711.589,685.181 709.706,687.889C695.185,637.971 672.499,591.269 636,550C669.96,596.501 692.119,644.265 706.993,692.816ZM515,530C541.76,541.572 564.394,571.544 584.935,602C588.762,607.675 595.007,610.982 600,615C598.94,607.442 597.566,599.625 594,590C592.196,584.826 590.747,579.637 592.866,576C596.034,570.563 598.494,565.449 599,560.196C599.831,556.844 600.085,553.438 600,550C574.197,530.047 546.577,519.635 515,530ZM393,523C382.802,521.107 379.469,523.773 385,529C396.343,544.903 409.558,559.207 427,565.953C452.808,575.934 479.721,584.979 504,598C506.895,587.489 502.68,576.237 489,564C511.501,576.484 535.293,578.832 560,574C550.323,572.036 540.631,570.044 523,554C512.308,544.474 500.249,537.629 484,539C465.053,539.235 457.492,539.137 455,536C453.133,535.812 452.077,536.112 452,537C452.999,544.895 451.672,546.819 445,541C427.227,527.415 409.923,521.916 393,523ZM320,547C321.934,566.362 328.388,580.505 338,591C337.944,581.653 342.144,575.653 350.6,573C356.578,572.051 359.004,567.692 359,561C345.148,558.337 332.148,553.671 320,547ZM323,440C331.279,440 338,446.721 338,455C338,463.279 331.279,470 323,470C314.721,470 308,463.279 308,455C308,446.721 314.721,440 323,440ZM540,293C530.156,317.064 531.597,334.471 543,346C553.965,358.716 558.601,371.668 553,385C551.3,409.097 559.694,426.009 575,438C584.855,443.47 589.233,449.582 591,456C574.313,444.89 554.42,431.045 535,416C539.424,415.372 545.728,414.814 550,413C546.667,413.132 543.333,412.957 540,412.53C536,412.017 533,412.142 529,411C524.667,407.5 519.333,403.203 515,400C520.529,399.818 525.493,399.071 530,397.866C535.225,396.47 539.836,394.459 544,392C539.104,393.699 534.095,394.579 529,394.831C520.853,395.234 515.483,397.031 507,395C500.602,391.189 491.001,384.487 484,381C496.045,376.977 508.422,376.028 520,374.514C528.169,373.446 535.267,369.022 542,365C535.464,367.096 528.92,369.79 522,370.246C521.33,370.29 520.663,371.339 520,371.394C504.572,372.651 491.001,375.529 476,379C467.943,375.724 455.66,368.675 447,366C466.399,360.269 485.471,358.445 502,355.562C510.724,354.04 518.217,349.84 525,346C517.201,348.173 509.288,351.702 501,352.79C477.815,355.834 455.716,357.978 432,363C425,361.36 416,360.442 409,360C409.334,359.806 408.667,359.611 409,359.415C421.904,351.815 435.572,342.635 449.761,339C477.918,331.787 503.056,325.237 525,316C502.307,321.66 476.882,328.807 448,334.96C430.062,338.782 416.488,347.815 399,359C389.667,359.707 377.333,361.091 368,363C409.74,330.955 467.274,307.733 540,293Z" style="fill:white;"/>
    </g>
</svg>
