<?xml version="1.0" encoding="UTF-8" standalone="no"?>
<!DOCTYPE svg PUBLIC "-//W3C//DTD SVG 1.1//EN" "http://www.w3.org/Graphics/SVG/1.1/DTD/svg11.dtd">
<svg width="100%" height="100%" viewBox="0 0 1000 1000" version="1.1" xmlns="http://www.w3.org/2000/svg" xmlns:xlink="http://www.w3.org/1999/xlink" xml:space="preserve" xmlns:serif="http://www.serif.com/" style="fill-rule:evenodd;clip-rule:evenodd;stroke-linejoin:round;stroke-miterlimit:2;">
    <g transform="matrix(1.12034,0,0,1.12034,-52.7002,-28.2185)">
        <path d="M493.835,677.721C377.557,750.893 237.915,695.077 130.444,570C84.494,516.523 77.345,442.734 120,340C215.075,206.622 389.103,196.433 560,315.224C588.407,334.97 606.149,363.27 610.043,403.496L493.835,677.721ZM610.154,442.825C613.103,490.622 632.689,523.342 670,540C748.219,569.197 823.549,594.029 895,613L878,660L860,710L620,610C574.653,613.474 543.979,626.375 530,650C525.2,654.389 520.344,658.523 515.429,662.415L610.154,442.825ZM245,340C269.836,340 290,360.164 290,385C290,409.836 269.836,430 245,430C220.164,430 200,409.836 200,385C200,360.164 220.164,340 245,340Z" style="fill:white;"/>
    </g>
</svg>
