<?xml version="1.0" encoding="UTF-8" standalone="no"?>
<!DOCTYPE svg PUBLIC "-//W3C//DTD SVG 1.1//EN" "http://www.w3.org/Graphics/SVG/1.1/DTD/svg11.dtd">
<svg width="100%" height="100%" viewBox="0 0 1000 1000" version="1.1" xmlns="http://www.w3.org/2000/svg" xmlns:xlink="http://www.w3.org/1999/xlink" xml:space="preserve" xmlns:serif="http://www.serif.com/" style="fill-rule:evenodd;clip-rule:evenodd;stroke-linejoin:round;stroke-miterlimit:2;">
    <g transform="matrix(2.32072,0,0,2.32072,-790.123,-497.911)">
        <path d="M727.116,578L716,579.5L715.5,568.5C710.309,569.756 705.125,571.443 700,577.5C698.39,580.337 696.946,583.472 696,587.5L699.5,587C701.05,589.313 703.538,591.451 706.5,593.5L706,597C711.558,595.948 717.066,593.785 722.5,590C724.756,586.103 726.16,582.084 727.116,578ZM381.536,567.694L379,573.56L371,573.488C367.687,569.638 364.781,565.591 363,561C360.592,569.167 362.32,577.469 371,586C372.979,586.217 374.977,586.241 377,586C380.311,582.628 383.646,581.083 387,581C388.609,578.811 389.784,576.28 390,573C386.917,565.833 382.353,560.381 376,557C376.513,559.964 378.468,563.578 381.536,567.694ZM665.733,424.11C667.154,424.486 668.576,424.806 670,425.066C750.361,439.768 771.299,503.954 727.091,576.608L717,578L717,571C761.028,500.365 732.048,439.153 670.225,426C669.861,425.923 669.498,425.844 669.139,425.765C667.986,425.216 666.85,424.665 665.733,424.11ZM549.61,367.041C532.705,374.376 515.8,381.698 499,390C493,390.171 487,390.266 481,390L480.781,389.73C484.266,387.232 488.231,384.795 492.371,382.38C513.315,374.666 534.401,367.569 555.494,360.504L555.672,360.445L556.826,359.189C547.893,317.989 525.912,289.037 471,291C465.731,311.625 462.52,331.447 460,351C469.336,359.618 478.571,371.007 487.762,383.671C485.011,385.348 482.389,387.04 479.991,388.761C469.602,376.026 459.25,363.989 449,354C450.795,331.533 453.887,306.649 459,278C482.689,283.347 503.326,284.853 522.073,293C535.483,298.827 548.971,314.066 560.696,355.28C563.535,327.03 571.931,300.989 585.128,291C605.925,275.258 619.955,271.43 647,263C647.391,265.64 647.562,268.403 648.481,271C656.118,292.58 664.881,315.39 664,336C655.451,349.313 645.779,362.18 635.248,374.705C632.794,373.439 630.343,372.195 627.898,370.979C636.883,360.74 645.382,350.17 653,339C651.838,326.079 649.139,313.584 643.486,297C641.39,290.849 640.106,283.771 638,276C620.958,279.214 603.36,286.989 585,301C573.468,313.27 570.68,337.696 565.689,360.001L565.611,360.338L565.613,360.338L565.689,360C584.755,361.07 605.276,363.854 627,372L627.044,371.95C629.336,373.088 631.632,374.251 633.931,375.432L622.635,380C603.245,370.059 586.619,365.517 571.354,363.64C604.81,383.567 631.701,411.254 658.372,421.688C660.076,422.621 661.834,423.545 663.644,424.461C620.889,413.571 584.552,386.927 559.829,365.587C524.357,397.213 495.672,432.818 450.779,456C376.911,494.145 360.243,548.477 380,567.265L378,572L371,572C355.86,550.895 370.227,482.41 449,449C477.831,436.772 512.014,407.475 549.61,367.041ZM555.672,360.445C555.672,360.445 556.638,359.399 556.827,359.191L555.672,360.445Z" style="fill:white;"/>
    </g>
</svg>
