<?xml version="1.0" encoding="UTF-8" standalone="no"?>
<!DOCTYPE svg PUBLIC "-//W3C//DTD SVG 1.1//EN" "http://www.w3.org/Graphics/SVG/1.1/DTD/svg11.dtd">
<svg width="100%" height="100%" viewBox="0 0 1000 1000" version="1.1" xmlns="http://www.w3.org/2000/svg" xmlns:xlink="http://www.w3.org/1999/xlink" xml:space="preserve" xmlns:serif="http://www.serif.com/" style="fill-rule:evenodd;clip-rule:evenodd;stroke-linejoin:round;stroke-miterlimit:2;">
    <g transform="matrix(2.50348,0,0,2.50348,-727.955,-431.03)">
        <path d="M373.925,525.531C335.274,492.552 310.75,443.492 310.75,388.75C310.75,289.543 391.293,209 490.5,209C589.707,209 670.25,289.543 670.25,388.75C670.25,448.879 640.662,502.152 595.265,534.79C587.198,525.113 581.428,513.338 580.65,497C578.318,468.471 570.884,444.696 553,440C561.164,433.186 561.278,382.598 542,382C537.602,382.254 531.268,381.901 520,380C537.472,364.816 536.411,352.057 530,340C531.609,338.978 533.295,339.329 535,340C533.124,328.121 527.351,322.743 520,320C521.898,317.838 524.355,316.312 527,315C521.333,311.835 515.667,312.834 510,315C509.97,313.111 512.014,311.494 515,310C482.938,304.428 461.433,309.592 450,325C451.928,325.488 454.109,327.146 452.929,328C448.92,330.905 445.705,338.419 445,345C443.454,350.097 443.581,355.089 445,360C445.514,358.326 446.422,356.928 448,356C446.322,362.522 447.087,368.847 450,375C429.505,366.484 425.471,395.31 416.106,420C414.41,424.471 409.755,427.718 405,430C390.049,437.174 388.111,452.436 387.293,462.883C386.892,468.019 379.251,470.255 375,473.38C368.05,478.489 362.344,482.761 366,487L370,493C368.868,496.116 367.844,499.408 367,503C372.306,502.628 376.745,501.102 380,498L384,503C379.154,511.436 375.791,518.948 373.925,525.531Z" style="fill:white;"/>
    </g>
</svg>
