<?xml version="1.0" encoding="UTF-8" standalone="no"?>
<!DOCTYPE svg PUBLIC "-//W3C//DTD SVG 1.1//EN" "http://www.w3.org/Graphics/SVG/1.1/DTD/svg11.dtd">
<svg width="100%" height="100%" viewBox="0 0 1000 1000" version="1.1" xmlns="http://www.w3.org/2000/svg" xmlns:xlink="http://www.w3.org/1999/xlink" xml:space="preserve" xmlns:serif="http://www.serif.com/" style="fill-rule:evenodd;clip-rule:evenodd;stroke-linejoin:round;stroke-miterlimit:2;">
    <g transform="matrix(3.35641,0,0,3.36196,-637.246,-1265.21)">
        <path d="M349.886,426.534C333.303,423.781 319.712,427.911 306.777,435.056C276.871,425.441 264.492,421.533 258.066,428.682C250.478,437.124 258.356,461.361 271.819,488.524C250.894,517.117 265.246,536.69 287.843,554.154C251.766,608.978 256.949,636.9 267.858,641.889C321.686,666.509 391.805,664.104 417.788,636.654C421.067,633.19 427.561,593.422 415.774,539.449C408.362,486.917 417.131,428.731 409.005,401.462C403.615,383.376 382.815,387.698 349.886,426.534ZM378.402,624.243C382.059,644.944 363.25,647.449 357.322,646.813C350.843,646.117 333.735,639.388 343.005,617.856C360.518,586.526 372.071,588.412 378.402,624.243ZM360.02,617.263C364.838,617.263 368.749,621.184 368.749,626.014C368.749,630.844 364.838,634.765 360.02,634.765C355.203,634.765 351.292,630.844 351.292,626.014C351.292,621.184 355.203,617.263 360.02,617.263ZM392.261,496.678C394.1,525.017 363.514,532.867 347.011,536.385C327.94,540.451 288.852,544.515 284.621,513.149C283.808,479.141 314.583,456.307 333.296,454.317C350.696,452.466 385.334,462.783 392.261,496.678ZM369.528,516.63C375.728,513.034 379.834,512.06 377.875,509.359C376.635,507.649 374.611,510.439 368.484,512.956C365.976,508.183 366.327,505.271 363.795,506.256C361.386,507.193 363.475,509.331 364.688,514.562C359.984,516.515 355.15,518.177 350.116,519.388C348.36,514.11 348.772,511.106 346.511,511.444C344.226,511.785 345.656,514.309 346.127,520.009C340.587,521.39 334.93,522.023 329.191,522.126C328.074,517.395 329.273,514.83 326.504,514.918C324.163,514.993 325.749,517.707 325.406,522.584C320.509,522.685 315.96,522.863 312.401,522.411C311.945,518.261 313.636,516.098 310.724,516.08C308.159,516.064 309.25,518.041 308.354,522.178C300.921,522.578 297.789,520.494 297.651,523.418C297.511,526.363 301.031,525.493 308.454,526.287C309.321,529.643 307.65,531.243 310.533,531.414C312.853,531.551 311.875,529.755 312.428,526.415C316.851,526.878 321.354,526.704 325.893,526.237C327.113,529.011 325.52,530.45 328.511,530.382C330.748,530.331 329.927,528.948 330.363,526.164C336.204,526.096 341.555,525.291 346.482,523.848C347.536,526.306 346.923,527.614 349.199,527.303C351.29,527.018 350.398,525.799 350.793,523.236C356.043,522.306 361.09,520.709 365.918,518.392C367.347,520.466 367.064,521.63 369.051,521.034C371.455,520.314 369.652,519.408 369.528,516.63ZM300.387,487.061C306.91,487.061 312.206,492.357 312.206,498.88C312.206,505.403 306.91,510.699 300.387,510.699C293.864,510.699 288.568,505.403 288.568,498.88C288.568,492.357 293.864,487.061 300.387,487.061ZM300.349,492.615C304.023,492.615 307.006,495.598 307.006,499.272C307.006,502.946 304.023,505.929 300.349,505.929C296.674,505.929 293.692,502.946 293.692,499.272C293.692,495.598 296.674,492.615 300.349,492.615ZM369.58,475.913C376.103,475.913 381.399,481.209 381.399,487.732C381.399,494.255 376.103,499.551 369.58,499.551C363.057,499.551 357.761,494.255 357.761,487.732C357.761,481.209 363.057,475.913 369.58,475.913ZM369.542,481.466C373.216,481.466 376.199,484.449 376.199,488.123C376.199,491.797 373.216,494.78 369.542,494.78C365.867,494.78 362.885,491.797 362.885,488.123C362.885,484.449 365.867,481.466 369.542,481.466Z" style="fill:white;"/>
    </g>
</svg>
