<?xml version="1.0" encoding="UTF-8" standalone="no"?>
<!DOCTYPE svg PUBLIC "-//W3C//DTD SVG 1.1//EN" "http://www.w3.org/Graphics/SVG/1.1/DTD/svg11.dtd">
<svg width="100%" height="100%" viewBox="0 0 1000 1000" version="1.1" xmlns="http://www.w3.org/2000/svg" xmlns:xlink="http://www.w3.org/1999/xlink" xml:space="preserve" xmlns:serif="http://www.serif.com/" style="fill-rule:evenodd;clip-rule:evenodd;stroke-linejoin:round;stroke-miterlimit:2;">
    <g transform="matrix(7.11183,0,0,8.0913,-3425.73,-4713.91)">
        <path d="M614,700C575.785,697.907 535.477,697.219 490,700C493.415,690.644 499.15,678.379 515,670L594,670C599.339,668.377 613.853,686.816 614,700ZM532.51,667.423C525.545,667.545 518.541,667.736 511.5,668L526,649C543.515,647.818 560.693,647.777 577.5,649L593,668C584.557,667.702 576.071,667.488 567.538,667.368C565.135,662.749 560.969,659.102 554,657C550.594,656.41 547.091,656.428 543.5,657C536.499,660.555 533.898,664.004 532.51,667.423ZM585,647.365C564.154,646.223 542.165,645.848 517.357,647.365C519.995,639.897 522.94,634.074 530.995,631L575.5,631C584.586,634.652 583.135,640.837 585,647.365ZM574.431,630L533.586,630L539.5,620.5C548.624,618.94 558.094,618.882 568,620.5L574.431,630ZM539.748,609.804C536.175,606.212 538.35,599.02 551,589.5C553.545,588.415 555.834,588.644 558,589.5C568.029,595.448 571.248,601.8 567.5,610C570.85,609.285 574.722,613.592 574.414,619C561.898,618.315 548.696,618.089 533.801,619C532.9,614.59 534.827,611.499 539.748,609.804Z" style="fill:white;"/>
    </g>
</svg>
