<?xml version="1.0" encoding="UTF-8" standalone="no"?>
<!DOCTYPE svg PUBLIC "-//W3C//DTD SVG 1.1//EN" "http://www.w3.org/Graphics/SVG/1.1/DTD/svg11.dtd">
<svg width="100%" height="100%" viewBox="0 0 1000 1000" version="1.1" xmlns="http://www.w3.org/2000/svg" xmlns:xlink="http://www.w3.org/1999/xlink" xml:space="preserve" xmlns:serif="http://www.serif.com/" style="fill-rule:evenodd;clip-rule:evenodd;stroke-linejoin:round;stroke-miterlimit:2;">
    <g transform="matrix(11.2181,0,0,11.2181,-5686.8,-5090.01)">
        <path d="M551.5,534C562.262,534 571,534.989 571,536.208C571,537.426 562.262,538.415 551.5,538.415C540.738,538.415 532,537.426 532,536.208C532,534.989 540.738,534 551.5,534ZM551.5,534.892C557.914,534.892 566.588,535.481 566.588,536.208C566.588,536.934 557.914,537.523 551.5,537.523C545.086,537.523 536.412,536.934 536.412,536.208C536.412,535.481 545.086,534.892 551.5,534.892ZM551.5,525C566.126,525 578,526.344 578,528C578,529.656 566.126,531 551.5,531C536.874,531 525,529.656 525,528C525,526.344 536.874,525 551.5,525ZM551.5,526.212C560.216,526.212 572.004,527.013 572.004,528C572.004,528.987 560.216,529.788 551.5,529.788C542.784,529.788 530.996,528.987 530.996,528C530.996,527.013 542.784,526.212 551.5,526.212ZM554.08,504.104L550.499,518.427L537.639,503.731L554.08,504.104ZM564.306,503.793L551.902,517.969L555.366,504.112L564.306,503.793ZM554.361,502.86L537.161,502.469L550.638,458.188L554.361,502.86ZM552.093,460.592L564.855,502.523L555.615,502.853L552.093,460.592Z" style="fill:white;"/>
    </g>
</svg>
