<?xml version="1.0" encoding="UTF-8" standalone="no"?>
<!DOCTYPE svg PUBLIC "-//W3C//DTD SVG 1.1//EN" "http://www.w3.org/Graphics/SVG/1.1/DTD/svg11.dtd">
<svg width="100%" height="100%" viewBox="0 0 1000 1000" version="1.1" xmlns="http://www.w3.org/2000/svg" xmlns:xlink="http://www.w3.org/1999/xlink" xml:space="preserve" xmlns:serif="http://www.serif.com/" style="fill-rule:evenodd;clip-rule:evenodd;stroke-linejoin:round;stroke-miterlimit:2;">
    <g transform="matrix(2.76074,0,0,2.76074,-880.368,-831.24)">
        <path d="M497.786,604.998C451.571,604.933 422.326,602.761 396,595C401.183,593.514 404.587,591.816 407,590C394.511,589.054 381.82,586.533 369,583C373.587,582.548 378.033,581.976 382,581C369.62,577.392 358.874,573.172 348,569C354.64,568.705 359.306,567.705 362,566C349.42,558.696 341.79,550.969 337,543C343.693,544.546 350.151,545.085 356,543C350.921,542.411 347.393,540.273 345,537C364.174,537.523 371.432,531.938 378,526C372.881,527.178 368.721,526.51 365,525C380.376,518.487 387.521,509.741 391,500C389.846,494.591 389.678,489.182 392.455,483.774L392,475C389.564,475.075 387.227,474.755 385,474C386.471,473.094 387.317,472.188 387.539,471.282C366.373,471.087 341.432,435.506 345.826,424.795C341.79,411.917 342.491,398.97 352.696,385.888C358.514,370.853 368.885,366.146 380,363.126C389.965,357.012 399.976,359.255 410,364.005C431.541,374.512 438.87,389.132 440,405L442.534,403.555C441.937,406.615 441.1,409.715 440,412.86C457.857,400.692 476.443,392 500,392L500.551,392.002C523.847,392.136 542.283,400.787 560,412.86C558.9,409.715 558.063,406.615 557.466,403.555L560,405C561.13,389.132 568.459,374.512 590,364.005C600.024,359.255 610.035,357.012 620,363.126C631.115,366.146 641.486,370.853 647.304,385.888C657.509,398.97 658.21,411.917 654.174,424.795C658.568,435.506 633.627,471.087 612.461,471.282C612.683,472.188 613.529,473.094 615,474C612.773,474.755 610.436,475.075 608,475L607.545,483.774C610.322,489.182 610.154,494.591 609,500C612.479,509.741 619.624,518.487 635,525C631.279,526.51 627.119,527.178 622,526C628.568,531.938 635.826,537.523 655,537C652.607,540.273 649.079,542.411 644,543C649.849,545.085 656.307,544.546 663,543C658.21,550.969 650.58,558.696 638,566C640.694,567.705 645.36,568.705 652,569C641.126,573.172 630.38,577.392 618,581C621.967,581.976 626.413,582.548 631,583C618.18,586.533 605.489,589.054 593,590C595.413,591.816 598.817,593.514 604,595C577.257,602.884 547.501,605 500,605L497.786,604.998ZM645.862,540C637.341,538.282 627.951,537.092 625,532C618.721,530.157 613.917,528.133 610,526C611.182,527.333 612.453,528.667 614,530C604.512,529.201 597.452,525.354 590,522C592.665,526.709 595.939,531.392 601,536C592.094,533.603 583.247,531.14 575,528C570.59,530.474 554.851,526.173 541,523C545.128,527.112 549.927,531.395 556,536C555.35,536.467 554.396,536.818 553,537C558.376,543.032 565.531,549.488 573,556C571.284,556.199 569.625,556.168 568,556C577.409,563.853 587.628,570.994 598,578C596.305,579.177 592.608,579.323 588,579C591.027,581.333 595.209,583.667 601,586C603.886,586.296 608.924,585.761 620,583.5C617.441,582.773 614.192,582.053 613,581C621.542,577.507 631.121,573.962 640,570C636.74,568.984 634.7,567.661 634,566C642.435,560.278 650.464,554.33 656,547C650.188,546.79 642.656,546.118 638,544C640.722,542.77 643.32,541.414 645.862,540ZM354.138,540C362.659,538.282 372.049,537.092 375,532C381.279,530.157 386.083,528.133 390,526C388.818,527.333 387.547,528.667 386,530C395.488,529.201 402.548,525.354 410,522C407.335,526.709 404.061,531.392 399,536C407.906,533.603 416.753,531.14 425,528C429.41,530.474 445.149,526.173 459,523C454.872,527.112 450.073,531.395 444,536C444.65,536.467 445.604,536.818 447,537C441.624,543.032 434.469,549.488 427,556C428.716,556.199 430.375,556.168 432,556C422.591,563.853 412.372,570.994 402,578C403.695,579.177 407.392,579.323 412,579C408.973,581.333 404.791,583.667 399,586C396.114,586.296 391.076,585.761 380,583.5C382.559,582.773 385.808,582.053 387,581C378.458,577.507 368.879,573.962 360,570C363.26,568.984 365.3,567.661 366,566C357.565,560.278 349.536,554.33 344,547C349.812,546.79 357.344,546.118 362,544C359.278,542.77 356.68,541.414 354.138,540ZM510.083,540.729C509.767,540.573 509.458,540.411 509.155,540.243C506.166,538.589 503.863,536.338 501.949,533.714C501.757,533.45 501.572,533.18 501.367,532.922C501.054,532.527 500.713,532.174 500.397,531.775C500.318,531.636 500.178,531.555 500.03,531.545L500,531.544C499.841,531.544 499.687,531.627 499.603,531.775C499.287,532.174 498.946,532.527 498.633,532.922C498.428,533.18 498.243,533.45 498.051,533.714C496.137,536.338 493.834,538.589 490.845,540.243C487.644,542.014 483.735,543.158 478.969,543.545C478.718,543.562 478.528,543.78 478.545,544.031C478.562,544.282 478.78,544.472 479.031,544.455C481.18,544.339 483.166,544.069 485,543.657L485,543.657C484.749,555.125 489.699,565 500,565L500.24,564.998C510.378,564.846 515.249,555.036 515,543.657L515,543.657C516.834,544.069 518.82,544.339 520.969,544.455C521.22,544.472 521.438,544.282 521.455,544.031C521.472,543.78 521.282,543.562 521.031,543.545C518.443,543.335 516.107,542.902 514,542.266L514,542.266C513.535,543.62 512.849,544.908 511.5,546C510.089,543.989 509.695,542.393 510.083,540.729ZM500.138,518.946C501.486,518.408 512.278,513.951 512.51,508.967C513.379,509.154 514.215,509.392 515.059,509.602C515.64,509.746 516.219,509.873 516.792,510.016C522.701,511.493 527.908,514.181 532.451,518.149C537.63,522.674 541.972,528.759 545.588,536.196C545.697,536.424 545.969,536.52 546.196,536.412C546.424,536.303 546.52,536.031 546.412,535.804C542.838,528.166 538.5,521.896 533.279,517.213C528.623,513.037 523.283,510.044 517.134,508.603C516.538,508.463 515.935,508.331 515.32,508.246C514.412,508.121 513.494,508.082 512.556,508.047C512.498,508.04 512.441,508.044 512.388,508.058C511.197,505.283 501.351,505.334 500.125,505.351L500,505.353C500,505.353 488.882,505.098 487.612,508.058C487.559,508.044 487.502,508.04 487.444,508.047C486.506,508.082 485.588,508.121 484.68,508.246C484.065,508.331 483.462,508.463 482.866,508.603C476.717,510.044 471.377,513.037 466.721,517.213C461.5,521.896 457.162,528.166 453.588,535.804C453.48,536.031 453.576,536.303 453.804,536.412C454.031,536.52 454.303,536.424 454.412,536.196C458.028,528.759 462.37,522.674 467.549,518.149C472.092,514.181 477.299,511.493 483.208,510.016C483.781,509.873 484.36,509.746 484.941,509.602C485.785,509.392 486.621,509.154 487.49,508.967C487.738,514.283 500,519 500,519L500.138,518.946ZM451,474.223C438.091,474.223 427.611,484.703 427.611,497.611C427.611,510.52 438.091,521 451,521C463.909,521 474.389,510.52 474.389,497.611C474.389,484.703 463.909,474.223 451,474.223ZM549,474.223C561.909,474.223 572.389,484.703 572.389,497.611C572.389,510.52 561.909,521 549,521C536.091,521 525.611,510.52 525.611,497.611C525.611,484.703 536.091,474.223 549,474.223ZM451.306,478C440.651,478 432,486.651 432,497.306C432,507.961 440.651,516.611 451.306,516.611C461.961,516.611 470.611,507.961 470.611,497.306C470.611,486.651 461.961,478 451.306,478ZM548.694,478C559.349,478 568,486.651 568,497.306C568,507.961 559.349,516.611 548.694,516.611C538.039,516.611 529.389,507.961 529.389,497.306C529.389,486.651 538.039,478 548.694,478ZM438,497.306C441.25,505.062 446.066,508.08 452,507.968C458.046,507.853 462.33,504.154 466,497C470.335,508.322 457.537,515.259 452,514.797C445.381,514.244 435.986,510.214 438,497.306ZM562,497.306C558.75,505.062 553.934,508.08 548,507.968C541.954,507.853 537.67,504.154 534,497C529.665,508.322 542.463,515.259 548,514.797C554.619,514.244 564.014,510.214 562,497.306ZM555,482.205C557.76,482.205 560,484.445 560,487.205C560,489.964 557.76,492.205 555,492.205C552.24,492.205 550,489.964 550,487.205C550,484.445 552.24,482.205 555,482.205ZM458,482.205C455.24,482.205 453,484.445 453,487.205C453,489.964 455.24,492.205 458,492.205C460.76,492.205 463,489.964 463,487.205C463,484.445 460.76,482.205 458,482.205ZM634.107,456.953L629,457C628.98,451.667 630.165,446.333 634,441L630,441L633,430C631.268,428.794 629.295,428.074 627,428C627.838,421.412 627.98,415.175 628,409C625.931,409.271 623.931,409.895 622,411C622.091,407 621.708,403 621,399C620.02,399.411 619.021,399.751 618,400C618.828,397.667 619.016,395.333 619,393C612.238,391.868 606.079,391.86 600,392C601.194,390.353 602.215,388.688 603,387C597.978,386.972 594.079,387.707 591,389C590.312,386.902 589.526,384.835 588,383C584.579,382.458 581.331,382.276 579,384C577.025,382.042 574.563,381.839 572,382C586.257,363.571 610.047,360.007 619,366C632.379,369.759 639.618,377.421 643.843,387C652.665,398.495 653.344,411.393 651,424.811C652.335,426.965 644.662,448.341 634.107,456.953ZM365.893,456.953L371,457C371.02,451.667 369.835,446.333 366,441L370,441L367,430C368.732,428.794 370.705,428.074 373,428C372.162,421.412 372.02,415.175 372,409C374.069,409.271 376.069,409.895 378,411C377.909,407 378.292,403 379,399C379.98,399.411 380.979,399.751 382,400C381.172,397.667 380.984,395.333 381,393C387.762,391.868 393.921,391.86 400,392C398.806,390.353 397.785,388.688 397,387C402.022,386.972 405.921,387.707 409,389C409.688,386.902 410.474,384.835 412,383C415.421,382.458 418.669,382.276 421,384C422.975,382.042 425.437,381.839 428,382C413.743,363.571 389.953,360.007 381,366C367.621,369.759 360.382,377.421 356.157,387C347.335,398.495 346.656,411.393 349,424.811C347.665,426.965 355.338,448.341 365.893,456.953Z" style="fill:white;"/>
    </g>
</svg>
