<?xml version="1.0" encoding="UTF-8" standalone="no"?>
<!DOCTYPE svg PUBLIC "-//W3C//DTD SVG 1.1//EN" "http://www.w3.org/Graphics/SVG/1.1/DTD/svg11.dtd">
<svg width="100%" height="100%" viewBox="0 0 1000 1000" version="1.1" xmlns="http://www.w3.org/2000/svg" xmlns:xlink="http://www.w3.org/1999/xlink" xml:space="preserve" xmlns:serif="http://www.serif.com/" style="fill-rule:evenodd;clip-rule:evenodd;stroke-linejoin:round;stroke-miterlimit:2;">
    <g transform="matrix(4.18605,0,0,4.18605,-1624.42,-1648.04)">
        <path d="M509.419,467.726C521.071,479.342 528.286,495.407 528.286,513.143C528.286,548.544 499.544,577.286 464.143,577.286C428.741,577.286 400,548.544 400,513.143C400,477.741 428.741,449 464.143,449C475.004,449 485.238,451.705 494.211,456.48C509.747,454.003 525.973,455.761 542,461.772C561.16,468.958 584.762,457.665 605,453C608.751,455.966 612.112,459.588 615,464C591.947,469.285 565.606,480.526 543,473.455C532.161,470.065 520.744,467.384 509.419,467.726ZM445.128,557.34L462.067,528C462.745,528.094 463.438,528.143 464.143,528.143C464.847,528.143 465.541,528.094 466.219,528L483.158,557.34C477.324,559.856 470.895,561.25 464.143,561.25C457.391,561.25 450.962,559.856 445.128,557.34ZM416.362,518.774L450.237,518.774C450.764,520.071 451.466,521.278 452.316,522.366L435.381,551.698C425.058,543.981 417.932,532.22 416.362,518.774ZM511.923,518.774C510.352,532.222 503.226,543.983 492.905,551.698L475.97,522.366C476.819,521.278 477.522,520.071 478.048,518.774L511.923,518.774ZM464.143,509.643C466.074,509.643 467.643,511.211 467.643,513.143C467.643,515.074 466.074,516.643 464.143,516.643C462.211,516.643 460.643,515.074 460.643,513.143C460.643,511.211 462.211,509.643 464.143,509.643ZM435.381,474.588L452.316,503.92C451.466,505.008 450.764,506.215 450.237,507.512L416.362,507.512C417.934,494.063 425.06,482.303 435.381,474.588ZM492.905,474.588C503.228,482.304 510.353,494.066 511.923,507.512L478.048,507.512C477.522,506.215 476.819,505.007 475.97,503.92L492.905,474.588ZM483.158,468.946L466.219,498.286C465.541,498.191 464.847,498.143 464.143,498.143C463.438,498.143 462.745,498.191 462.067,498.286L445.128,468.946C450.962,466.43 457.391,465.036 464.143,465.036C470.895,465.036 477.324,466.43 483.158,468.946Z" style="fill:white;"/>
    </g>
</svg>
