<?xml version="1.0" encoding="UTF-8" standalone="no"?>
<!DOCTYPE svg PUBLIC "-//W3C//DTD SVG 1.1//EN" "http://www.w3.org/Graphics/SVG/1.1/DTD/svg11.dtd">
<svg width="100%" height="100%" viewBox="0 0 1000 1000" version="1.1" xmlns="http://www.w3.org/2000/svg" xmlns:xlink="http://www.w3.org/1999/xlink" xml:space="preserve" xmlns:serif="http://www.serif.com/" style="fill-rule:evenodd;clip-rule:evenodd;stroke-linejoin:round;stroke-miterlimit:2;">
    <g transform="matrix(4.30199,0,0,4.30199,-1725.23,-1508.37)">
        <path d="M413.672,469.548C413.672,469.548 412.656,468.541 412.656,468.541L413.672,469.548L413.679,469.845C413.095,469.697 412.661,469.171 412.656,468.541C413.099,519.251 465.282,544.244 517.595,543.895C543.589,543.722 569.549,537.308 589.017,524.839C608.753,512.198 621.858,493.366 621.858,468.524C621.858,416.238 569.446,389.792 516.921,389.793C464.387,389.793 412.198,416.247 412.656,468.541L413.672,469.548ZM567.952,402.702C596.754,414.05 618.142,435.935 618.142,468.524C618.142,492.007 605.67,509.76 587.013,521.71C568.088,533.831 542.839,540.011 517.57,540.18C467.357,540.515 416.797,517.184 416.371,468.508C416.375,468.87 416.233,469.219 415.978,469.476C415.815,469.641 415.614,469.759 415.395,469.823L415.395,469.823C415.614,469.759 415.815,469.641 415.978,469.476C416.233,469.219 416.375,468.87 416.371,468.508L416.371,468.508C416.052,432.005 442.692,408.935 476.647,399.06C486.832,400.366 511.751,398.641 517.255,398.194C519.859,397.982 489.158,404.519 486,407C468.877,420.449 489.373,437.921 507,420C511.248,415.681 516.333,401.5 522,402C527.667,402.5 532.695,419.525 541,423C556.533,429.499 566.569,418.364 561,409C558.194,404.282 524.667,400.167 527,399C528.822,398.089 554.927,402.258 567.952,402.702ZM525.889,393.77C524.089,394.976 522.436,395.82 521,396C519.135,396.233 517.662,395.094 516.31,393.51C516.517,393.509 516.719,393.509 516.921,393.509C519.912,393.509 522.904,393.596 525.889,393.77Z" style="fill:white;"/>
    </g>
    <g transform="matrix(3.1283,0,0,3.31311,-1110.11,-976.058)">
        <path d="M549.371,477.296C568.645,485.175 555.867,487.963 538.466,490.017C506.146,520.215 483.936,520.935 470.38,496.426C473.142,494.628 476.553,493.862 480.181,493.442C480.449,489.245 481.969,486.073 485.869,484.851C493.206,484.478 492.358,488.071 488.087,493.321C490.147,490.877 492.008,488.379 493.721,485.841C497.789,479.813 498.956,472.01 504.102,467.266C497.6,449.535 503.112,442.663 506.215,442.711C508.504,442.747 510.406,447.224 516.556,455.319C516.992,465.677 519.661,472.823 525.161,476.5C530.399,480.002 538.268,480.383 549.371,477.296ZM517.541,454.951L518.906,449.882C520.776,441.474 524.764,438.513 531.131,437.897C548.288,436.238 554.718,441.205 557.925,451.173C559.289,455.414 559.372,458.508 554.481,463.961C554.844,468.876 553.008,472.862 549.614,476.192C538.626,479.338 530.865,479.111 525.716,475.669C520.369,472.094 517.908,465.08 517.541,454.951Z" style="fill:white;"/>
    </g>
</svg>
