<?xml version="1.0" encoding="UTF-8" standalone="no"?>
<!DOCTYPE svg PUBLIC "-//W3C//DTD SVG 1.1//EN" "http://www.w3.org/Graphics/SVG/1.1/DTD/svg11.dtd">
<svg width="100%" height="100%" viewBox="0 0 1000 1000" version="1.1" xmlns="http://www.w3.org/2000/svg" xmlns:xlink="http://www.w3.org/1999/xlink" xml:space="preserve" xmlns:serif="http://www.serif.com/" style="fill-rule:evenodd;clip-rule:evenodd;stroke-linejoin:round;stroke-miterlimit:2;">
    <g transform="matrix(3.12819,0,0,3.12819,-1083.33,-77.1832)">
        <path d="M507.192,145.23C550.938,145.477 582.028,161.19 601.633,182.879C598.101,185.459 594.407,187.825 590.623,190.072C586.389,180.624 576.581,174 565.169,174C552.24,174 541.37,182.503 538.331,193.982C544.321,203.354 547.881,213.004 550.293,222.847C554.589,225.476 559.695,227 565.169,227C580.448,227 592.852,215.126 592.852,200.5C592.852,199.548 592.799,198.607 592.697,197.683C596.994,194.288 601.172,190.754 605.224,187.074C628.602,215.935 633.047,253.705 621.057,280.101C609.06,306.513 589.467,320.539 547.933,318.227C536.013,317.564 508.173,327.59 506.669,325.88C504.054,327.283 474.46,318.034 464.361,318.227C422.765,319.022 403.234,306.513 391.237,280.101C379.247,253.705 383.692,215.935 407.07,187.074C411.122,190.754 415.3,194.288 419.597,197.683C419.495,198.607 419.442,199.548 419.442,200.5C419.442,215.126 431.846,227 447.125,227C452.599,227 457.705,225.476 462.001,222.847C464.413,213.004 467.973,203.354 473.963,193.982C470.924,182.503 460.054,174 447.125,174C435.713,174 425.905,180.624 421.671,190.072C417.887,187.825 414.193,185.459 410.661,182.879C430.266,161.19 462.384,145.477 506.147,145.23L506.147,145.227L507.192,145.227L507.192,145.23ZM547.933,236.688C543.732,243.685 537.597,249.847 529.129,255C540.734,275.905 566.699,274.011 579.272,265.007C588.632,258.303 597.227,240.471 582.406,231C579.793,229.331 577.013,240.155 568.825,242C562.841,243.349 553.26,242.091 547.933,236.688ZM464.361,236.688C468.562,243.685 474.697,249.847 483.165,255C471.56,275.905 445.595,274.011 433.022,265.007C423.662,258.303 415.067,240.471 429.888,231C432.501,229.331 435.281,240.155 443.469,242C449.453,243.349 459.034,242.091 464.361,236.688ZM422.576,168C406.061,170.376 392.218,169.226 386.014,158C373.291,160.441 365.243,175.252 362.495,205C361.225,218.757 365.975,232.447 376.612,246C378.104,254.919 381.504,261.388 384.793,268C379.32,230.151 386.157,195.049 422.576,168ZM589.718,168C606.233,170.376 620.076,169.226 626.28,158C639.003,160.441 647.051,175.252 649.799,205C651.07,218.757 646.319,232.447 635.682,246C634.19,254.919 630.79,261.388 627.501,268C632.974,230.151 626.137,195.049 589.718,168ZM506.669,177.023C494.768,180.402 486.493,185.568 482.65,192.057C470.68,202.632 463.577,220.528 466.494,235.556C467.43,240.377 481.259,252.168 485.254,252.401C489.303,252.637 506.668,251.633 506.668,251.633C506.668,251.633 522.994,252.637 527.04,252.401C531.035,252.168 544.864,240.377 545.8,235.556C548.717,220.528 541.614,202.632 529.644,192.057C525.801,185.568 518.541,180.402 506.669,177.023ZM529.129,224C531.696,228.834 519.468,233.319 516.593,229C515.006,226.615 513.842,212.932 516.593,212C518.982,211.191 527.763,221.428 529.129,224ZM483.165,224C480.598,228.834 492.826,233.319 495.701,229C497.288,226.615 498.452,212.932 495.701,212C493.312,211.191 484.531,221.428 483.165,224ZM506.669,181.241C507.153,180.673 521.793,185.32 526.327,189.408C520.662,185.34 506.844,182.933 506.668,182.929C506.494,182.933 491.634,185.339 485.967,189.408C490.536,185.414 506.232,180.867 506.669,181.241ZM506.147,77.609C515.402,68.291 530.81,61.95 559.424,62C596.242,69.35 611.527,89.028 621.057,112C630.614,123.273 633.694,135.352 624.191,149C624.021,150.957 623.69,152.914 623.124,154.871C613.061,164.431 599.664,167.076 584.495,161.711C548.093,148.834 518.775,131.635 506.147,110C493.519,131.635 464.201,148.834 427.799,161.711C412.63,167.076 399.233,164.431 389.17,154.871C388.604,152.914 388.273,150.957 388.103,149C378.6,135.352 381.68,123.273 391.237,112C400.767,89.028 416.052,69.35 452.87,62C481.484,61.95 496.892,68.291 506.147,77.609ZM505.724,139.998C496.843,139.985 487.401,141.375 477.78,143.218C490.675,136.42 502.057,129.209 506.147,120C510.237,129.209 521.619,136.42 534.514,143.218C524.893,141.375 515.451,139.985 506.57,139.998L505.724,139.998ZM619.543,115C622.245,130.477 611.546,135.952 606.432,134.639C578.456,127.454 533.604,104.22 530.667,89C529.004,80.384 525.808,62.589 555.245,64C583.926,65.375 615.166,89.932 619.543,115ZM392.751,115C390.049,130.477 400.748,135.952 405.862,134.639C433.838,127.454 478.69,104.22 481.627,89C483.29,80.384 486.486,62.589 457.049,64C428.368,65.375 397.128,89.932 392.751,115ZM506.147,70C494.47,64.087 480.456,59.076 458.647,57.074C474.286,50.931 490.001,45.349 506.147,42.944C506.811,42.867 538.106,50.928 553.647,57.074C531.838,59.076 517.824,64.087 506.147,70Z" style="fill:white;"/>
    </g>
</svg>
