<?xml version="1.0" encoding="UTF-8" standalone="no"?>
<!DOCTYPE svg PUBLIC "-//W3C//DTD SVG 1.1//EN" "http://www.w3.org/Graphics/SVG/1.1/DTD/svg11.dtd">
<svg width="100%" height="100%" viewBox="0 0 1000 1000" version="1.1" xmlns="http://www.w3.org/2000/svg" xmlns:xlink="http://www.w3.org/1999/xlink" xml:space="preserve" xmlns:serif="http://www.serif.com/" style="fill-rule:evenodd;clip-rule:evenodd;stroke-linejoin:round;stroke-miterlimit:2;">
    <g transform="matrix(5.23,0,0,5.23,-2632.88,-3466.08)">
        <path d="M570,807C570,807 563.355,813.918 564.133,818C566.19,828.781 564.886,848.105 554,837C542.136,845.869 537.19,844.711 536.197,843.667C527.943,834.987 539.207,817.893 570,807ZM560,798.632C683.525,776.967 671.944,693.374 652,693.156C648.779,693.121 636.285,692.312 629,705C628.293,680.202 608.847,672.242 601,672.29C578.252,672.427 584.412,708.117 585,748C585.254,765.239 572.657,784.582 560,798.632ZM570,793C581.143,779.563 591.656,764.6 592.533,749C594.223,718.939 587.468,691.272 603,688.248C608.948,687.09 616.071,694.212 625,714C639.121,703.163 646.761,704.263 650.415,707C676.624,726.625 612.111,790.127 570,793ZM584,784C617.276,765.256 654.14,736.452 642.321,721C640.967,719.23 631.37,718.452 621,728C615.934,710.232 611.421,704.121 607,704.303C598.109,704.669 605.189,723.067 598.732,746C595.518,757.415 590.867,770.41 584,784ZM593,774C610.629,748.307 605.6,718.09 610,717.547C612.517,717.236 615.931,723.064 616,739C626.958,728.789 635.343,728.144 635.828,730C636.552,732.774 625.024,755.126 593,774Z" style="fill:white;"/>
    </g>
</svg>
