<?xml version="1.0" encoding="UTF-8" standalone="no"?>
<!DOCTYPE svg PUBLIC "-//W3C//DTD SVG 1.1//EN" "http://www.w3.org/Graphics/SVG/1.1/DTD/svg11.dtd">
<svg width="100%" height="100%" viewBox="0 0 1000 1000" version="1.1" xmlns="http://www.w3.org/2000/svg" xmlns:xlink="http://www.w3.org/1999/xlink" xml:space="preserve" xmlns:serif="http://www.serif.com/" style="fill-rule:evenodd;clip-rule:evenodd;stroke-linejoin:round;stroke-miterlimit:2;">
    <g transform="matrix(3.66285,-0.0520784,0.0520784,3.66285,-2479.56,56.9123)">
        <path d="M819,10L817,10L815,40C805.251,31.634 805.178,40.467 810,58C807.945,89.58 803.286,119.937 798,150C796.381,155.772 793.38,160.526 790,165L797,170C796.035,179.257 796.891,188.52 793.219,196C786.042,210.62 773.965,220.377 766,230L766,235C764.326,238.683 762.237,241.074 760,243C751.246,244.277 752.842,245.189 758,246C751.635,247.952 750.787,248.79 758,248C750.812,253.314 752.145,253.648 762,249C757.341,258.298 761.045,253.716 768,249C775.119,252.773 775.244,250.939 769,244C768.243,240.357 769.243,238.69 772,239C781.264,226.14 791.721,214.787 805,207C806.19,207.209 806.926,208.104 807,210C801.258,213.623 799.533,216.868 799,220C799.57,233.484 805.423,234.949 811,236C817.273,237.182 822.579,226.907 823,222C823.37,217.683 818,210 818,210C816.291,207.783 815.776,206.473 819,208L824,212C826.555,209.734 828.555,210.067 830,213C837.406,221.239 842.079,229.602 846,238L850,238C850.091,241.009 850.306,244.117 849,246C842.961,253.749 845.361,253.004 851,249C860.143,258.021 860.407,257.12 856,251C867.958,255.249 869.001,254.284 861,249C869.741,250.957 868.017,249.773 861,247C866.533,246.685 866.063,245.707 859,244C857.256,242.662 854.981,240.127 852,236L855,234L828,187C827.31,181.521 827.058,175.403 827,169L832,163C825.604,127.736 824.311,94.578 822,61L824,59L829,61C827.942,60.073 826.841,59.455 826,57C833.223,54.282 827.657,49.506 823,50L824,47C829.886,37.734 829.099,34.367 817,41L819,10ZM811.5,198C810.644,190.223 808.794,186.905 807.5,187.868C806.157,188.868 805.414,194.478 807,204.5C808.805,206.8 810.263,204.964 811.5,200.5C812.926,201.434 813.805,201.382 814.5,201C816.141,194.759 814.824,190.948 814.197,189.5C813.285,187.391 811.717,190.294 811.5,198ZM822,55.5C823.082,55.906 824.96,55.322 826.191,54.479C827.422,53.636 828.006,52.534 826.5,51.905C824.373,51.017 821.416,51.575 822,55.5Z" style="fill:white;"/>
    </g>
</svg>
