<?xml version="1.0" encoding="UTF-8" standalone="no"?>
<!DOCTYPE svg PUBLIC "-//W3C//DTD SVG 1.1//EN" "http://www.w3.org/Graphics/SVG/1.1/DTD/svg11.dtd">
<svg width="100%" height="100%" viewBox="0 0 1000 1000" version="1.1" xmlns="http://www.w3.org/2000/svg" xmlns:xlink="http://www.w3.org/1999/xlink" xml:space="preserve" xmlns:serif="http://www.serif.com/" style="fill-rule:evenodd;clip-rule:evenodd;stroke-linejoin:round;stroke-miterlimit:2;">
    <g transform="matrix(2.08092,0,0,2.08092,-1041.89,-797.977)">
        <path d="M661.603,737.5C661.603,757.043 662.081,780.725 663.282,784.072C664.483,787.418 672.985,788.75 680,788.75C672.985,788.75 664.483,790.082 663.282,793.428C662.081,796.775 661.603,820.457 661.603,840C661.603,820.457 661.125,796.775 659.923,793.428C658.722,790.082 650.22,788.75 643.205,788.75C650.22,788.75 658.722,787.418 659.923,784.072C661.125,780.725 661.603,757.043 661.603,737.5ZM756.08,748.132C764.501,755.046 778.503,754.594 782.487,748.895C786.81,742.712 788.757,732.315 793.931,717.324C797.177,707.917 794.693,711.41 804.494,692.677C817.987,666.886 871.276,627.325 879.315,621.731C897.795,608.87 735.235,502.11 697.984,510.465C694.011,511.356 696.922,528.437 694.463,542.154C690.856,562.274 687.114,577.473 683.618,594.969C678.812,619.019 655.072,637.431 657.492,642.503C663.946,656.026 699.869,688.613 721.926,721.725C735.926,742.743 755.263,763.335 784.248,781.582C768.806,782.241 724.043,745.603 680.379,681.365C661.307,653.308 634.015,634.829 602.917,624.898C584.959,619.163 574.051,627.112 571.014,631.852C567.11,637.946 574.656,651.023 590.593,660.108C612.068,672.349 686.696,717.221 714.793,748.132C730.493,765.405 771.924,785.103 771.924,785.103C812.896,801.86 836.567,794.959 843.831,781.582C851.186,768.039 848.171,736.982 810.655,700.599C796.647,713.339 796.286,748.747 786.836,755.174C777.684,761.399 767.277,757.841 756.08,748.132ZM886.346,640C886.346,667.169 887.011,700.093 888.681,704.746C890.351,709.399 902.17,711.25 911.923,711.25C902.17,711.25 890.351,713.101 888.681,717.754C887.011,722.407 886.346,755.331 886.346,782.5C886.346,755.331 885.682,722.407 884.011,717.754C882.341,713.101 870.522,711.25 860.769,711.25C870.522,711.25 882.341,709.399 884.011,704.746C885.682,700.093 886.346,667.169 886.346,640ZM757.84,570.322C770.361,576.775 781.522,582.784 789.529,589.964C801.688,600.867 810.424,604.368 822.979,609.643C835.765,615.014 867.336,616.924 863.47,621.377C849.892,626.743 834.093,625.142 815.937,616.155C798.727,607.635 779.804,591.592 757.84,570.322ZM640,407.5C640,448.015 640.991,497.112 643.482,504.051C645.973,510.989 663.597,513.75 678.141,513.75C663.597,513.75 645.973,516.511 643.482,523.449C640.991,530.388 640,579.485 640,620C640,579.485 639.009,530.388 636.518,523.449C634.027,516.511 616.403,513.75 601.859,513.75C616.403,513.75 634.027,510.989 636.518,504.051C639.009,497.112 640,448.015 640,407.5Z" style="fill:white;"/>
    </g>
</svg>
