<?xml version="1.0" encoding="UTF-8" standalone="no"?>
<!DOCTYPE svg PUBLIC "-//W3C//DTD SVG 1.1//EN" "http://www.w3.org/Graphics/SVG/1.1/DTD/svg11.dtd">
<svg width="100%" height="100%" viewBox="0 0 1000 1000" version="1.1" xmlns="http://www.w3.org/2000/svg" xmlns:xlink="http://www.w3.org/1999/xlink" xml:space="preserve" xmlns:serif="http://www.serif.com/" style="fill-rule:evenodd;clip-rule:evenodd;stroke-linejoin:round;stroke-miterlimit:2;">
    <g transform="matrix(4.30832,0,0,4.30832,-2686.05,-1702.9)">
        <path d="M750,590C748.041,598.218 742.688,605.949 735,613C726.974,607.628 722.556,600.034 720,590C724.346,597.296 729.065,604.041 735,609C741.057,603.906 745.849,597.328 750,590ZM741,574C750.527,574.311 752.002,575.609 750,576.842C748.274,577.905 743.884,578.368 740,579.211C737.531,579.747 737.073,595.774 735,597C733.107,598.119 731.967,583.084 730,579.056C728.92,576.845 719.951,579.453 718,577C715.571,573.947 729,574 729,574C731.202,572.797 726,570.5 727,570C728,569.5 733.897,569.295 735,571C738.96,568.611 743,569.5 744,570C745,570.5 738.883,572.667 741,574ZM725.5,579.25C726.19,579.25 726.75,580.482 726.75,582C726.75,583.518 726.19,584.75 725.5,584.75C724.81,584.75 724.25,583.518 724.25,582C724.25,580.482 724.81,579.25 725.5,579.25ZM744.75,579.25C745.44,579.25 746,580.482 746,582C746,583.518 745.44,584.75 744.75,584.75C744.06,584.75 743.5,583.518 743.5,582C743.5,580.482 744.06,579.25 744.75,579.25ZM743,533C748.914,513.574 754.312,492.283 760.067,468C764.021,451.313 763.525,432.488 763,412C759.49,408.639 756.457,408.734 754,413C755.167,456.712 751.177,478.506 745,491C746.822,478.862 748.236,466.628 748,454C745.516,450.525 743.113,449.078 741,455C738.549,483.022 739.359,510.443 735,536C728.148,500.111 729.603,464.52 733,429C729.987,423.815 726.986,423.215 724,429C720.562,454.818 720.546,480.038 722,505C713.462,492.384 707.175,474.61 703,452C698.854,445.924 696.003,444.664 696,454C703.451,484.382 713.523,509.188 725,531C708.238,509.416 692.998,482.801 689,436C685.033,426.061 680.517,423.313 680,439C686.21,484.599 701.055,514.6 719,539C706.849,528.319 695.451,516.262 688,497C685.369,487.89 682.709,485.095 680,493L661,462C651.354,453.719 649.984,457.288 655,470C670.473,494.92 687.416,518.634 706,541C699.088,536.753 692.176,531.737 685.264,526C672.176,515.137 659.088,501.692 646,486C634.515,477.574 631.891,479.243 639,492L651,502C649.973,509.665 655.234,514.595 664,518C676.057,529.132 689.552,538.546 702.959,545C708.434,547.636 711.603,553.313 715,558C706.467,554.315 697.771,554.319 689,556C690.713,564.017 698.265,570.9 715,576C729.068,562.939 742.082,562.76 754,576C766.552,568.701 773.028,562.246 778,556C769.746,555.478 760.917,555.944 750,560C754.406,546.502 767.562,537.601 787,532C794.471,526.581 802.489,522.302 808,515.972C819.232,503.071 831.262,492.755 843,484C844.984,480.378 844.161,478.003 838,478C822.993,487.452 811.88,497.542 803,508C789.871,520.706 777.268,528.815 765,534C775.576,526.109 784.621,517.31 789.436,506C796.482,496.064 804.358,487.09 813,479C817.638,473.174 818.157,469.642 809,470L785,499.333C779.07,510.829 771.906,518.934 764,525L775.487,509C780.669,500.139 785.38,491.281 791.815,484C802.548,471.854 812.102,459.913 820,447C823.967,432.175 820.233,432.618 813,440C807.9,450.439 803.817,461.576 796,469.657C779.102,487.125 766.739,504.228 757,522C761.761,512.55 767.823,503.534 770,493.381C773.086,478.986 777.684,464.915 783,451C784.679,436.665 781.357,434.804 772,448C767.965,479.506 756.843,507.019 743,533Z" style="fill:white;"/>
    </g>
</svg>
