<?xml version="1.0" encoding="UTF-8" standalone="no"?>
<!DOCTYPE svg PUBLIC "-//W3C//DTD SVG 1.1//EN" "http://www.w3.org/Graphics/SVG/1.1/DTD/svg11.dtd">
<svg width="100%" height="100%" viewBox="0 0 1000 1000" version="1.1" xmlns="http://www.w3.org/2000/svg" xmlns:xlink="http://www.w3.org/1999/xlink" xml:space="preserve" xmlns:serif="http://www.serif.com/" style="fill-rule:evenodd;clip-rule:evenodd;stroke-linejoin:round;stroke-miterlimit:2;">
    <g transform="matrix(4.98845,0,0,4.98845,-1990.28,-2019.17)">
        <path d="M414.736,563.082C417.195,566.8 419.78,570.518 422.524,574.235C421.306,575.672 419.94,576.923 418.436,578C414.565,574.19 411.485,570.173 409,566C410.738,564.815 412.591,563.77 414.736,563.082ZM441.579,458.377C454.881,442.272 475,432 497.5,432C537.514,432 570,464.486 570,504.5C570,544.514 537.514,577 497.5,577C475.897,577 456.487,567.531 443.198,552.516C462.586,549.185 478.268,554.296 499.345,561.272C512.668,565.681 531.172,563.266 544.742,549.232C553.358,540.321 560.016,526.681 561.914,507.012C562.044,506.711 562.044,504.479 561.914,504.177C560.016,484.508 553.358,470.868 544.742,461.958C531.172,447.924 512.668,445.508 499.345,449.917C477.685,457.086 461.723,462.286 441.579,458.377ZM418.64,560.352L422.665,557.425L426.771,570.565L423.5,573C423.358,573.193 423.214,573.382 423.068,573.569C422.841,573.261 422.615,572.953 422.39,572.645C422.422,572.562 422.426,572.467 422.398,572.376L418.64,560.352ZM417.929,560.87L415.46,562.666C417.24,565.357 419.087,568.048 421.013,570.74L417.929,560.87ZM431.715,566.886L427.48,570.038L423.377,556.908L427.63,553.814L431.715,566.886ZM437.014,562.943L432.424,566.359L428.342,553.297L432.952,549.944L437.014,562.943ZM433.664,549.426L437,547C439.072,550.455 441.693,553.798 445,557L437.723,562.416L433.664,549.426ZM438.74,462.045C460.581,466.864 477.484,461.542 500.655,453.873C512.72,449.88 529.457,452.144 541.746,464.854C549.993,473.383 556.207,486.566 557.86,505.595C556.207,524.623 549.993,537.807 541.746,546.335C529.457,559.045 512.72,561.309 500.655,557.316C477.986,549.814 461.316,544.557 440.156,548.845C430.657,536.585 425,521.198 425,504.5C425,488.651 430.097,473.982 438.74,462.045ZM538.742,441.949C538.328,442.127 537.914,442.311 537.5,442.5C536.261,441.667 534.951,440.833 533.5,440C557.54,429.477 578.49,434.879 584.79,445C587.454,449.279 589.558,455.732 589.372,463.506C589.436,463.633 589.43,463.783 589.361,463.903C589.007,474.421 584.458,487.311 571.5,500.5C571.577,499 571.507,497.5 571,496C572.172,494.642 573.261,493.309 574.272,492.002L573.357,490.724L570.743,492.597C570.556,492.731 570.295,492.688 570.161,492.501C570.027,492.314 570.07,492.054 570.257,491.92L572.872,490.047L571.576,488.238L570.243,489.193C570.056,489.327 569.795,489.284 569.661,489.097C569.527,488.91 569.57,488.65 569.757,488.516L571.091,487.561L569.814,485.778L569.243,486.188C569.056,486.322 568.795,486.278 568.661,486.092C568.527,485.905 568.57,485.644 568.757,485.51L569.328,485.101L568.161,483.472C568.145,483.449 568.131,483.424 568.119,483.399L568.116,483.39C567.943,483.455 567.742,483.399 567.63,483.243C567.496,483.056 567.539,482.795 567.726,482.661L570.567,480.626L569.045,478.503L567.068,479.919C566.881,480.053 566.621,480.01 566.487,479.823C566.353,479.636 566.396,479.375 566.583,479.242L568.56,477.825L567.501,476.347L566.243,477.249C566.056,477.383 565.795,477.34 565.661,477.153C565.527,476.966 565.57,476.706 565.757,476.572L567.016,475.67L565.802,473.975L565.243,474.376C565.056,474.51 564.795,474.467 564.661,474.28C564.527,474.093 564.57,473.833 564.757,473.699L565.317,473.298L564.025,471.495L563.743,471.697C563.556,471.831 563.295,471.788 563.161,471.601C563.027,471.414 563.07,471.153 563.257,471.019L563.539,470.817L562.316,469.109C562.154,469.15 561.977,469.091 561.875,468.948C561.772,468.805 561.773,468.618 561.864,468.479L550.507,452.627L550.243,452.816C550.056,452.95 549.795,452.907 549.661,452.72C549.527,452.533 549.57,452.273 549.757,452.139L550.022,451.949L548.815,450.265L548.013,450.839C547.827,450.973 547.566,450.93 547.432,450.743C547.298,450.556 547.341,450.295 547.528,450.161L548.33,449.587L546.812,447.468L545.243,448.592C545.056,448.726 544.795,448.683 544.661,448.496C544.527,448.309 544.57,448.049 544.757,447.915L546.326,446.791L545.236,445.269L543.243,446.697C543.056,446.831 542.795,446.788 542.661,446.601C542.527,446.414 542.57,446.153 542.757,446.019L544.751,444.591L543.752,443.198L541.71,444.661L541.779,444.757C541.913,444.944 541.87,445.205 541.683,445.339C541.496,445.473 541.236,445.43 541.102,445.243L539.268,442.683L538.743,443.059C538.556,443.193 538.295,443.15 538.161,442.963C538.027,442.776 538.07,442.515 538.257,442.381L538.782,442.005L538.742,441.949ZM576.681,488.73C576.545,488.76 576.399,488.719 576.298,488.617L574.034,490.239L574.802,491.31C575.462,490.44 576.087,489.581 576.681,488.73ZM572.253,487.753L573.549,489.561L575.808,487.943L574.513,486.134L572.253,487.753ZM577.209,487.965L576.967,488.138C576.986,488.178 576.999,488.22 577.005,488.262L577.089,488.141L577.209,487.965ZM578.861,485.423L577.723,483.834L575.19,485.649L576.486,487.457L578.482,486.027L578.563,485.9C578.614,485.818 578.666,485.737 578.717,485.655L578.861,485.423ZM570.491,485.293L571.768,487.075L574.027,485.457L572.751,483.675L570.491,485.293ZM573.428,483.189L574.705,484.971L577.238,483.157L575.961,481.375L573.428,483.189ZM581.077,481.552L581.02,481.472L578.4,483.349L579.333,484.65C579.965,483.599 580.545,482.566 581.077,481.552ZM570.006,484.616L572.265,482.997L571.052,481.304L568.787,482.927C568.805,482.945 568.823,482.965 568.839,482.987L570.006,484.616ZM576.638,480.889L577.915,482.672L580.534,480.795L579.258,479.013L576.638,480.889ZM571.729,480.818L572.943,482.512L575.475,480.697L574.262,479.004L571.729,480.818ZM582.83,477.88C582.764,477.851 582.706,477.805 582.661,477.743L582.108,476.971L579.935,478.527L581.212,480.31L581.974,479.764C582.278,479.128 582.563,478.501 582.83,477.88ZM574.94,478.518L576.153,480.212L578.772,478.335L577.559,476.642L574.94,478.518ZM569.723,478.017L571.244,480.141L573.777,478.326L572.255,476.203L569.723,478.017ZM578.237,476.156L579.45,477.85L581.623,476.293L580.41,474.6L578.237,476.156ZM572.933,475.717L574.454,477.841L577.074,475.964L575.552,473.841L572.933,475.717ZM568.179,475.862L569.237,477.34L571.77,475.525L570.712,474.048L568.179,475.862ZM582.786,476.485L583.64,475.873C583.494,476.26 583.342,476.648 583.182,477.039L582.786,476.485ZM584.259,474.119L583.181,472.614L581.087,474.114L582.3,475.808L584.134,474.494C584.176,474.368 584.218,474.243 584.259,474.119ZM576.23,473.355L577.751,475.479L579.924,473.922L578.403,471.799L576.23,473.355ZM566.479,473.49L567.693,475.185L570.226,473.37L569.012,471.676L566.479,473.49ZM571.389,473.562L572.448,475.04L575.067,473.163L574.008,471.686L571.389,473.562ZM579.08,471.313L580.602,473.437L582.696,471.937L581.174,469.813L579.08,471.313ZM583.859,472.129L585.091,471.246C584.938,471.863 584.765,472.49 584.573,473.126L583.859,472.129ZM569.69,471.19L570.904,472.885L573.523,471.008L572.309,469.314L569.69,471.19ZM564.702,471.009L565.994,472.813L568.527,470.998L567.235,469.195L564.702,471.009ZM574.686,471.2L575.745,472.678L577.918,471.121L576.859,469.643L574.686,471.2ZM585.545,469.184L584.36,467.531L581.852,469.328L583.373,471.451L585.376,470.016C585.436,469.737 585.492,469.46 585.545,469.184ZM577.536,469.158L578.595,470.636L580.689,469.136L579.63,467.658L577.536,469.158ZM572.986,468.828L574.201,470.523L576.374,468.966L575.16,467.271L572.986,468.828ZM567.912,468.71L569.204,470.513L571.824,468.636L570.532,466.833L567.912,468.71ZM563.01,468.647L564.217,470.332L566.75,468.518L565.543,466.833L563.01,468.647ZM580.308,467.173L581.366,468.65L583.875,466.853L582.816,465.376L580.308,467.173ZM575.837,466.786L577.051,468.481L579.145,466.98L577.931,465.286L575.837,466.786ZM571.209,466.348L572.501,468.151L574.674,466.594L573.382,464.791L571.209,466.348ZM566.22,466.347L567.427,468.032L570.047,466.156L568.84,464.471L566.22,466.347ZM585.038,467.045L585.961,466.383C585.903,466.925 585.831,467.474 585.744,468.032L585.038,467.045ZM561.493,466.525L561.491,466.527L562.525,467.97L565.057,466.155L564.023,464.712L561.493,466.525ZM578.608,464.801L579.823,466.495L582.331,464.698L581.117,463.003L578.608,464.801ZM586.148,462.989L583.494,464.89L584.552,466.368L586.06,465.287C586.118,464.503 586.146,463.737 586.148,462.989ZM574.06,464.306L575.352,466.109L577.446,464.608L576.154,462.805L574.06,464.306ZM563.538,464.035L562.292,462.296L559.759,464.11L561.005,465.849L563.538,464.035ZM569.517,463.985L570.724,465.67L572.897,464.113L571.69,462.429L569.517,463.985ZM564.701,464.227L565.735,465.67L568.354,463.793L567.32,462.35L564.701,464.227ZM585.961,459.533L581.794,462.518L583.008,464.213L586.133,461.974C586.107,461.137 586.049,460.323 585.961,459.533ZM576.831,462.32L578.123,464.123L580.631,462.326L579.34,460.523L576.831,462.32ZM572.367,461.943L573.574,463.628L575.669,462.128L574.462,460.443L572.367,461.943ZM562.97,461.81L564.216,463.549L566.835,461.673L565.589,459.934L562.97,461.81ZM557.852,461.447L559.274,463.433L561.807,461.618L560.384,459.633L557.852,461.447ZM567.998,461.865L569.032,463.308L571.205,461.751L570.171,460.308L567.998,461.865ZM585.4,456.182L580.017,460.038L581.309,461.841L585.842,458.593C585.724,457.762 585.575,456.958 585.4,456.182ZM575.139,459.958L576.346,461.643L578.854,459.846L577.647,458.161L575.139,459.958ZM570.848,459.823L571.882,461.266L573.976,459.766L572.942,458.323L570.848,459.823ZM566.267,459.448L567.513,461.187L569.686,459.631L568.44,457.892L566.267,459.448ZM561.062,459.147L562.484,461.133L565.104,459.256L563.681,457.271L561.062,459.147ZM556.265,459.233L557.366,460.77L559.899,458.955L558.798,457.418L556.265,459.233ZM584.571,453.201L578.325,457.675L579.532,459.36L585.189,455.307C585.003,454.58 584.795,453.878 584.571,453.201ZM573.62,457.837L574.654,459.28L577.162,457.483L576.128,456.04L573.62,457.837ZM569.117,457.406L570.363,459.145L572.457,457.645L571.211,455.906L569.117,457.406ZM564.359,456.785L565.781,458.771L567.954,457.214L566.532,455.229L564.359,456.785ZM554.638,456.839L554.576,456.876L555.78,458.556L558.313,456.741L557.113,455.066L554.638,456.839ZM559.475,456.933L560.577,458.47L563.196,456.593L562.095,455.056L559.475,456.933ZM571.889,455.421L573.134,457.16L575.643,455.363L574.397,453.624L571.889,455.421ZM583.616,450.676L576.806,455.555L577.839,456.998L584.286,452.38C584.073,451.791 583.849,451.223 583.616,450.676ZM567.209,454.743L568.632,456.729L570.726,455.229L569.303,453.243L567.209,454.743ZM557.79,454.581L558.99,456.256L561.61,454.379L560.41,452.704L557.79,454.581ZM556.627,454.389L555.481,452.788L552.948,454.602L554.098,456.208C554.115,456.191 554.133,456.176 554.153,456.161L556.627,454.389ZM562.772,454.571L563.873,456.108L566.046,454.551L564.945,453.014L562.772,454.571ZM582.321,447.947L575.074,453.138L576.32,454.877L583.274,449.896C582.973,449.232 582.663,448.6 582.349,448L582.321,447.947ZM569.981,452.758L571.403,454.743L573.912,452.946L572.489,450.961L569.981,452.758ZM565.623,452.529L566.724,454.066L568.818,452.566L567.717,451.029L565.623,452.529ZM551.185,452.141L552.462,453.925L554.995,452.11L553.718,450.327L551.185,452.141ZM556.158,452.302L557.305,453.903L559.924,452.027L558.777,450.426L556.158,452.302ZM561.087,452.219L562.287,453.894L564.46,452.337L563.26,450.662L561.087,452.219ZM580.448,445.259L573.167,450.475L574.589,452.461L581.906,447.219C581.487,446.538 580.999,445.883 580.448,445.259ZM568.394,450.543L569.495,452.08L572.004,450.283L570.903,448.746L568.394,450.543ZM563.938,450.177L565.138,451.852L567.232,450.351L566.032,448.676L563.938,450.177ZM554.395,449.842L555.673,451.625L558.292,449.748L557.015,447.965L554.395,449.842ZM559.455,449.94L560.602,451.541L562.775,449.985L561.628,448.384L559.455,449.94ZM549.492,449.779L550.699,451.464L553.232,449.649L552.025,447.965L549.492,449.779ZM566.709,448.191L567.909,449.866L570.417,448.069L569.218,446.394L566.709,448.191ZM578.442,443.345L571.58,448.261L572.681,449.798L579.875,444.644C579.431,444.193 578.953,443.76 578.442,443.345ZM562.305,447.898L563.452,449.499L565.546,447.999L564.399,446.398L562.305,447.898ZM557.692,447.48L558.97,449.263L561.143,447.706L559.865,445.923L557.692,447.48ZM552.703,447.479L553.91,449.164L556.529,447.287L555.322,445.603L552.703,447.479ZM547.489,446.983L549.007,449.102L551.54,447.287L550.022,445.168L547.489,446.983ZM575.912,441.598L569.895,445.909L571.095,447.584L577.755,442.813C577.176,442.385 576.561,441.98 575.912,441.598ZM565.077,445.913L566.224,447.514L568.732,445.717L567.585,444.116L565.077,445.913ZM560.542,445.437L561.82,447.221L563.914,445.721L562.636,443.937L560.542,445.437ZM556,445.117L557.207,446.802L559.38,445.245L558.173,443.561L556,445.117ZM550.699,444.683L552.217,446.802L554.837,444.925L553.319,442.806L550.699,444.683ZM545.913,444.784L547.004,446.306L549.537,444.491L548.446,442.969L545.913,444.784ZM563.314,443.452L564.592,445.235L567.1,443.438L565.822,441.655L563.314,443.452ZM573.082,440.178L568.263,443.63L569.41,445.231L575.109,441.148C574.463,440.802 573.786,440.478 573.082,440.178ZM558.85,443.075L560.057,444.76L562.151,443.26L560.944,441.575L558.85,443.075ZM553.996,442.321L555.514,444.44L557.687,442.883L556.169,440.764L553.996,442.321ZM544.43,442.712L545.428,444.106L547.961,442.292L546.962,440.898L544.43,442.712ZM549.124,442.484L550.214,444.006L552.834,442.129L551.743,440.607L549.124,442.484ZM539.945,442.197L541.224,443.983L543.267,442.52L541.987,440.734L539.945,442.197ZM569.597,438.95L566.5,441.17L567.777,442.953L572.168,439.807C571.345,439.49 570.487,439.204 569.597,438.95ZM561.622,441.09L562.829,442.774L565.337,440.977L564.13,439.293L561.622,441.09ZM556.847,440.279L558.365,442.398L560.459,440.898L558.941,438.779L556.847,440.279ZM545.905,439.422C544.866,439.711 543.82,440.034 542.769,440.395L543.944,442.035L546.477,440.22L545.905,439.422ZM547.64,440.412L548.638,441.806L551.258,439.93L550.259,438.536L547.64,440.412ZM552.421,440.122L553.511,441.644L555.684,440.087L554.594,438.565L552.421,440.122ZM565.795,438.1L564.807,438.807L566.014,440.492L568.555,438.672C567.663,438.449 566.742,438.257 565.795,438.1ZM560.602,437.589L559.618,438.293L561.136,440.412L563.645,438.615L563.019,437.742C562.228,437.668 561.422,437.617 560.602,437.589ZM548.499,438.772L547.154,439.735L546.765,439.191C547.345,439.04 547.924,438.901 548.499,438.772ZM558.079,437.575C557.337,437.592 556.585,437.628 555.825,437.683L555.271,438.08L556.361,439.602L558.456,438.101L558.079,437.575ZM554.075,437.841C553.091,437.949 552.094,438.088 551.087,438.26L551.935,439.444L554.108,437.887L554.075,437.841ZM564.322,438.13L564.129,437.86C564.291,437.88 564.452,437.901 564.612,437.922L564.322,438.13ZM559.095,437.563L559.133,437.616L559.206,437.563L559.152,437.563L559.095,437.563Z" style="fill:white;"/>
    </g>
</svg>
