<?xml version="1.0" encoding="UTF-8" standalone="no"?>
<!DOCTYPE svg PUBLIC "-//W3C//DTD SVG 1.1//EN" "http://www.w3.org/Graphics/SVG/1.1/DTD/svg11.dtd">
<svg width="100%" height="100%" viewBox="0 0 1000 1000" version="1.1" xmlns="http://www.w3.org/2000/svg" xmlns:xlink="http://www.w3.org/1999/xlink" xml:space="preserve" xmlns:serif="http://www.serif.com/" style="fill-rule:evenodd;clip-rule:evenodd;stroke-linejoin:round;stroke-miterlimit:2;">
    <g transform="matrix(2.44565,0,0,2.44565,-433.551,-771.739)">
        <path d="M383,691C383.476,695.333 383.002,699.667 382,704C375.15,702.991 368.508,703.128 362,704L360,697C358.522,694.555 359.571,693.187 362,692.409C366.625,690.926 372.752,695.181 383,691ZM446,690L447,698C442.794,697.602 439.205,699.62 434,700.611C430.238,701.328 425.953,702.118 421,703L420,691C423.131,691.986 426.118,692.474 429,692.604C434.998,692.875 440.544,691.591 446,690ZM380,659L381,668C373.221,669.358 364.892,669.699 356,669L354,659C363.263,659.308 372.042,659.366 380,659ZM445,655L445,665C440.123,665.086 436.068,667.182 431,667.674C426.952,668.067 422.631,668.189 418,668L417,658C427.273,658.027 436.572,656.989 445,655ZM377,618L378,632C372.446,633.871 366.939,634.886 361.5,634.709C357.29,634.572 354.64,632.692 349,632L347,620C356.55,622.408 366.547,621.765 377,618ZM443,618L443,630C436.258,631.389 427.208,631.243 415,629L414,618C423.993,620.371 433.685,620.554 443,618ZM376,584L377,595C374.11,594.938 371.103,594.408 368.171,595C362.388,596.167 353.485,595.556 346,596L346,584C354.401,584.965 356.899,584.08 362,584.079C366.883,584.078 372.472,582.973 376,584ZM411,580C409.235,584.637 408.132,589.28 415,594C426.677,590.648 434.842,589.766 440,591L441,578C436.327,578.99 431.084,576.83 426,580.021C422.019,582.52 416.326,580.322 411,580ZM341,545L343,558C354.481,559.537 365.084,561.218 369,564C372.043,561.784 375.036,560.204 378,559L378,547C375.003,549.199 371.726,551.215 362,549C360.776,548.194 358.219,546.386 354,547.026C350.383,547.575 346.437,545.908 341,545ZM398,551L402,560C415.604,557.165 426.122,556.258 434,557L433,545C418.106,543.267 418.924,547.329 412,547.491C403.391,547.693 402.541,549.54 398,551ZM337.596,513.608L338,524C348.244,522.847 359.283,523.035 367,522.311C371.145,521.922 374.894,523.027 378,524C378.095,522.147 378.476,520.517 379,519C381.412,520.393 383.331,522.513 385,525C389.322,522.307 394.02,520.608 399,519.655C407.352,518.058 416.499,518.561 426,520L426,510C416.099,506.812 402.476,506.58 383,511C378.092,510.74 377.641,516.187 352.675,510C349.482,509.209 346.504,511.518 344,513L337.596,513.608ZM420.5,467L420.5,473.5L422,476C417.758,478.733 411.59,478.286 406.139,480C398.686,482.343 390.286,483.86 378.5,483C367.361,482.592 354.092,481.562 339,480L341.5,479C341.769,476.141 341.923,473.311 342,470.5C355.942,471.027 373.942,473.261 381,472.563C382.307,472.433 383.307,473.135 384,473.5C392.556,474.797 394.291,471.169 399.5,470.212C406.437,468.938 413.637,467.26 420.5,467ZM444,470L440.5,478.5C438.262,477.004 434.99,476.231 433.312,474.5C431.07,472.187 427.197,471.442 424,471C424.011,466.689 424.486,462.631 428.5,460.5C431.178,462.452 433.209,465.353 435.832,465.5C440.773,465.778 441.6,468.893 444,470ZM341,460.5L341,470C334.522,468.862 328.015,472.776 321.5,478L320.472,467C327.198,463.324 333.67,459.158 337,462C338.731,461.89 340.077,461.403 341,460.5ZM418.5,434.5C417.535,438.903 419.815,443.161 419.5,447.5C409.097,444.199 396.2,446.35 384,447.307C373.148,448.158 358.413,447.12 345,447C345.638,445 345.948,443 345.961,441C345.976,438.833 344.635,437.487 345,434.5C357.218,435.885 368.192,440.595 386.5,435.511C396.892,432.625 407.959,435.145 418.5,434.5ZM448,429L448.5,443C444.323,442.725 440.741,443.936 437.5,446C435.446,443.26 431.266,442.155 426.5,441.5L427,431C432.782,431.79 436.051,432.797 440,432.235C442.928,431.819 445.616,430.794 448,429ZM337.648,430L338,433L340,439C335.415,438.846 332.023,439.326 329,440L329,441.471C325.172,439.3 320.512,438.135 315,438C314.821,434.272 315.039,430.616 315.475,427C318.931,427.042 321.722,428.121 324,430C329.118,430.275 333.608,430.247 337.648,430ZM441.41,391.65L443,404C437.28,407.197 430.521,408.347 423,408L421,413C416.006,411.968 410.277,411.374 404,411.106C386.543,410.359 367.747,414.688 343,414L342,411C340.771,411.431 339.802,412.13 339,413C336.201,412.037 333.559,411.822 331,412C330.346,408.973 328.046,407.154 318,406.531L318,396C324.375,395.345 328.356,397.03 330,401C333.598,401.391 336.398,401.705 339,402L339,400C354.495,400.986 368.333,397.6 383,397.284C396.333,396.997 409.677,400.187 423,398C429.072,397.003 435.185,395.304 441.41,391.65ZM425,378.567C421.058,376.196 416.666,374.615 412,373.626C396.249,370.291 385.136,377.613 359,375.416C348.767,374.556 340.221,377.432 334,380L321.5,371C322.05,369.425 321.369,356.348 325.5,354.403C337.791,348.617 349.61,342.972 361,337L362,339.5L329.5,356.5L326.5,359L330.5,369L359.5,364L373.5,362L373.5,370L378.5,369.5L379,362C395.389,362.857 411.716,363.898 427,368C429.409,364.781 431.227,361.274 432.5,357.5C421.165,351.522 409.598,347.857 398,344.5C397.721,341.864 397.25,339.057 396.5,336C411.141,341.527 425.124,346.512 433.83,352C438.02,354.641 438.915,360.072 438.5,365.5L425,378.567Z" style="fill:white;"/>
    </g>
</svg>
