<?xml version="1.0" encoding="UTF-8" standalone="no"?>
<!DOCTYPE svg PUBLIC "-//W3C//DTD SVG 1.1//EN" "http://www.w3.org/Graphics/SVG/1.1/DTD/svg11.dtd">
<svg width="100%" height="100%" viewBox="0 0 1000 1000" version="1.1" xmlns="http://www.w3.org/2000/svg" xmlns:xlink="http://www.w3.org/1999/xlink" xml:space="preserve" xmlns:serif="http://www.serif.com/" style="fill-rule:evenodd;clip-rule:evenodd;stroke-linejoin:round;stroke-miterlimit:2;">
    <g transform="matrix(0.942098,0,0,0.942098,28.9523,28.9709)">
        <path d="M781.935,807.93L585.747,977.636C532.748,952.947 503.832,908.823 486.135,855.644C435.659,839.638 383.986,810.055 348.569,754.623C308.456,691.843 271.775,622.332 238.212,548.524C226.567,551.728 209.243,550.377 182.295,541.306C183.425,527.432 175.401,511.065 163.548,493.656C200.698,514.569 240.531,465.007 281.261,391.832C286.31,445.501 305.624,493.457 356.975,528.583C419.003,489.399 492.718,418.804 486.476,324.4C484.171,289.539 483.576,262.034 477.931,231.685C471.228,195.65 451.002,161.099 411.925,128.601L444.817,85.957C460.903,126.647 482.984,154.778 528.185,134.479L578.919,46.833L598.393,40.632L678.354,22.322L649.595,77.948C633.617,87.471 620.049,99.026 620.982,122.805L601.073,161.316C651.634,202.816 683.955,255.676 698.036,319.898C629.585,370.333 650.07,426.483 683.293,453.305C709.044,474.095 736.361,451.455 761.93,374.621C782.065,405.602 807.102,427.099 836.449,440.259C803.335,450.587 784.82,469.628 792.497,504.299C742.619,620.295 713.912,729.539 781.935,807.93ZM587.491,848.394C572.868,842.041 559.615,832.865 551.338,813.436C551.338,813.436 584.114,805.978 590.139,811.805C596.165,817.631 587.491,848.394 587.491,848.394ZM694.579,735.655C679.815,708.315 658.516,690.148 633.984,695.53C581.918,706.954 512.962,755.953 441.715,794.721C435.027,733.19 418.23,666.551 362.739,580.367L382.213,574.166C393.205,588.475 405.366,599.853 418.366,609.125L548.158,410.515L523.211,343.391L542.975,315.651L563.466,234.059L590.916,275.364C559.234,306.767 548.235,344.24 554.94,386.908C563.14,496.982 607.341,565.85 698.827,580.594L694.579,735.655Z" style="fill:white;"/>
    </g>
</svg>
