<?xml version="1.0" encoding="UTF-8" standalone="no"?>
<!DOCTYPE svg PUBLIC "-//W3C//DTD SVG 1.1//EN" "http://www.w3.org/Graphics/SVG/1.1/DTD/svg11.dtd">
<svg width="100%" height="100%" viewBox="0 0 1000 1000" version="1.1" xmlns="http://www.w3.org/2000/svg" xmlns:xlink="http://www.w3.org/1999/xlink" xml:space="preserve" xmlns:serif="http://www.serif.com/" style="fill-rule:evenodd;clip-rule:evenodd;stroke-linejoin:round;stroke-miterlimit:2;">
    <g transform="matrix(2.84294,0,0,2.84294,-906.439,-817.702)">
        <path d="M509.275,372.188C509.523,372.288 509.764,372.389 510,372.49C540.418,385.534 594.723,434.869 520,555C481.729,579.834 447.203,595.317 415,605C420.313,602.698 425.548,600.224 430,596C433.238,594.686 436.404,593.301 439.5,591.847C462.381,581.099 481.422,566.541 496.984,548.532C454.6,563.679 410.876,568.163 366.226,565.27C353.005,553.789 343.707,543.63 336.426,534.15C358.701,544.472 385.495,549.436 416,550C411.582,549.345 407.176,548.636 403,547C386.915,519.334 374.685,492.043 365,465C389.831,374.503 452.719,362.875 489.177,367.345C484.375,371.659 480.042,375.998 476.183,380.36C483.277,379.896 490.402,379.599 497.569,379.516C501.176,376.674 505.075,374.182 509.275,372.188ZM417,567C420.898,575.665 425.832,584.557 431,593.5C455.673,583.728 475.924,570.122 491,552C484.189,554.451 477.319,556.883 469.5,559C469.776,561.772 470.633,565.383 472,569C469.426,565.735 467.441,562.485 466.5,559.5C459.959,561.074 453.304,562.431 446.5,563.5C447.228,568.441 450.441,575.278 453.5,582C450.118,576.167 446.716,570.333 444,564.5C437.595,565.34 431.121,566.055 424.5,566.5C426.993,574.179 431.475,582.833 435.5,591C430.375,583.027 424.884,574.583 421.5,567C420,567.144 418.5,567.149 417,567ZM455.998,531.672C466.469,560.091 530.664,545.605 516.581,507.005C508.392,484.56 490.121,479.577 475.392,485.57C460.664,491.564 449.478,508.535 455.459,530C455.571,530.404 455.694,530.801 455.828,531.193C446.529,531.779 437.717,531.758 429.347,531.205C421.449,530.683 413.95,529.671 406.802,528.24C405.305,527.941 403.827,527.605 402.355,527.294C401.983,527.216 401.613,527.138 401.24,527.073C401.051,527.04 400.865,527.012 400.675,526.99C400.226,526.935 399.79,526.891 399.341,526.861C398.9,526.832 398.487,526.833 398.047,526.815C397.945,526.789 397.841,526.851 397.815,526.953C397.789,527.055 397.851,527.159 397.953,527.185C398.349,527.38 398.715,527.576 399.121,527.755C399.536,527.938 399.948,528.097 400.377,528.251C400.558,528.316 400.74,528.374 400.924,528.428C401.291,528.535 401.663,528.627 402.036,528.716C403.513,529.068 405.016,529.357 406.53,529.642C408.295,529.974 410.081,530.277 411.889,530.552C417.882,539.002 422.863,543.906 422.998,531.847C425.067,532.019 427.163,532.155 429.288,532.255C437.739,532.654 446.628,532.472 455.998,531.672ZM401.199,498.119C404.401,505.868 407.676,513.103 411,520C405.925,515.435 401.16,508.29 396.953,500.446C398.368,499.658 399.784,498.881 401.199,498.119ZM483.097,515.66C483.92,515.242 485.067,515.845 485.657,517.006C486.246,518.167 486.057,519.449 485.235,519.867C484.412,520.285 483.265,519.682 482.675,518.521C482.086,517.36 482.275,516.078 483.097,515.66ZM395.924,484.675C397.533,489.001 399.165,493.164 400.816,497.189C399.372,497.967 397.927,498.759 396.483,499.563C394.36,495.541 392.385,491.356 390.59,487.256C392.368,486.334 394.146,485.476 395.924,484.675ZM388.9,464.182C389.921,467.423 390.955,470.576 392,473.648C393.178,477.11 394.37,480.469 395.576,483.735C393.78,484.543 391.985,485.408 390.19,486.337C386.953,478.859 384.33,471.736 382.521,466.5C384.629,465.697 386.756,464.925 388.9,464.182ZM462.69,461.837C464.035,469.091 466.495,476.396 470,483.748C465.189,476.916 461.375,470.139 458.554,463.416C459.898,462.854 461.274,462.326 462.69,461.837ZM388.996,447.941C388.254,451.195 387.586,454.545 387,458C387.53,459.768 388.063,461.51 388.6,463.227C386.448,463.974 384.312,464.748 382.196,465.554C380.614,460.925 379.743,458 379.743,458C379.188,458.275 379.348,456.188 380.227,452.517C383.109,450.95 386.032,449.424 388.996,447.941ZM461.564,452.24C461.701,455.099 462.019,457.967 462.512,460.841C461.024,461.35 459.581,461.903 458.173,462.492C456.946,459.474 455.92,456.466 455.093,453.467C457.213,453.003 459.368,452.592 461.564,452.24ZM462.702,436.347C461.743,441.283 461.358,446.245 461.523,451.233C459.252,451.595 457.024,452.02 454.833,452.501C453.595,447.769 452.856,443.065 452.614,438.384C455.728,437.39 459.048,436.637 462.702,436.347ZM392.734,434.161C391.465,438.178 390.311,442.343 389.289,446.677C386.337,448.144 383.426,449.653 380.555,451.202C381.42,447.86 382.781,443.487 384.64,438.53C387.33,437.017 390.028,435.56 392.734,434.161ZM466.927,422.54C465.144,426.782 463.809,431.045 462.908,435.328C459.161,435.601 455.758,436.352 452.569,437.354C452.4,432.681 452.728,428.035 453.551,423.417C458.01,422.759 462.469,422.591 466.927,422.54ZM396.982,422.249C395.624,425.66 394.348,429.176 393.166,432.814C390.5,434.179 387.843,435.6 385.193,437.074C386.655,433.285 388.395,429.194 390.414,424.988C392.592,423.958 394.783,423.065 396.982,422.249ZM402.34,410.098C400.635,413.621 399.011,417.247 397.484,421.001C395.349,421.774 393.221,422.613 391.104,423.568C393.132,419.449 395.423,415.242 397.979,411.118C399.422,410.751 400.876,410.412 402.34,410.098ZM458.693,406.804C464.031,406.638 469.383,406.673 474.745,406.886C471.772,411.996 469.318,417.016 467.357,421.537C462.819,421.583 458.281,421.736 453.744,422.38C454.76,417.154 456.41,411.963 458.693,406.804ZM398.747,409.896C402.332,404.255 406.415,398.808 411,394C408.165,398.814 405.445,403.775 402.895,408.959C401.504,409.249 400.12,409.56 398.747,409.896ZM465.829,393.805C471.858,393.392 477.886,393.259 483.914,393.343C480.685,397.424 477.825,401.688 475.32,405.909C469.918,405.683 464.528,405.635 459.15,405.79C460.993,401.773 463.221,397.778 465.829,393.805ZM496.309,380.533C492.021,384.075 488.158,388.104 484.706,392.356C478.645,392.252 472.586,392.365 466.527,392.756C469.087,388.959 471.995,385.182 475.251,381.424C482.236,380.952 489.252,380.64 496.309,380.533ZM526.133,377.213C531.247,379.825 535.043,383.177 538,387L541,385L548,390C571.521,378.807 605.834,371.997 652,370L653,360C639.908,351.602 620.591,343.265 594,335C566.191,344.835 545.148,356.027 528,368L530,375L526.133,377.213ZM442,367C429.307,370.831 417.285,378.408 406,388C414.869,370.316 425.093,351.351 442,332C458.083,327.06 473.662,324.067 489,322L494,330C476.484,341.292 459.122,353.462 442,367ZM571,355L586,352C592.321,353.519 598.07,355.459 603,358C600.45,359.212 598.158,361.312 595,364C600.035,361.225 606.964,358.872 616,357C608.164,351.874 599.385,348.405 590,346C581.387,348.747 576.207,351.875 571,355ZM453,348L467,335C459.148,336.064 451.024,337.55 441,342L434,354C436.801,350.822 439.783,348.109 443,346C448.633,343.851 451.885,343.863 455,344C454.845,345.124 454.065,346.504 453,348Z" style="fill:white;"/>
    </g>
</svg>
