<?xml version="1.0" encoding="UTF-8" standalone="no"?>
<!DOCTYPE svg PUBLIC "-//W3C//DTD SVG 1.1//EN" "http://www.w3.org/Graphics/SVG/1.1/DTD/svg11.dtd">
<svg width="100%" height="100%" viewBox="0 0 1000 1000" version="1.1" xmlns="http://www.w3.org/2000/svg" xmlns:xlink="http://www.w3.org/1999/xlink" xml:space="preserve" xmlns:serif="http://www.serif.com/" style="fill-rule:evenodd;clip-rule:evenodd;stroke-linejoin:round;stroke-miterlimit:2;">
    <g transform="matrix(0.98041,0,0,0.98041,8.78595,129.082)">
        <path d="M581.991,439.013L554.93,465.732L521.012,462.294L481.565,441.862L454.492,443.563L438.668,437.259L430.338,437.098L423.772,442.626L140.416,482.834C122.979,484.371 112.359,479.245 105.377,470.561L83.944,342.414L81.683,313.066L99.813,284.425L430.112,251.886L448.587,227.971L465.913,229.225L467.392,223.605L441.24,221.439L416.418,243.639L81.772,272.486L63.679,290.178L42.038,241.955L75.787,138.428L473.887,175.981L646.905,191.669L849.889,167.312C877.494,180.296 894.148,194.017 904.102,208.188L942.809,205.392L960.02,229.8L874.47,372.634L935.475,506.873L920.887,586.919C882.558,587.046 850.123,594.893 829.515,618.23L762.818,600.578L754.517,578.672L783.964,524.863L761.166,434.463L715.518,431.087L632.841,452.805L581.991,439.013ZM871.871,328.956L823.107,325.282L813.089,335.813L782.063,328.251C767.281,340.614 749.469,350.204 725.345,354.018C735.839,366.498 739.896,385.815 740.208,409.11C771.227,403.992 784.183,420.266 793.303,441.082L821.712,535.478L802.033,583.648L823.945,593.452C842.703,572.073 865.7,560.355 894.34,561.499L902.09,554.361L910.885,504.121L859.34,399.77C854.551,393.141 846.781,391.019 835.735,393.848L871.871,328.956ZM849.779,448.929C840.322,443.429 833.016,444.018 829.355,454.928L858.511,533.527C868.764,539.185 874.263,535.55 877.224,526.954L849.779,448.929ZM120.843,434.276C123.89,434.276 126.363,436.738 126.363,439.77C126.363,442.803 123.89,445.265 120.843,445.265C117.797,445.265 115.324,442.803 115.324,439.77C115.324,436.738 117.797,434.276 120.843,434.276ZM140.083,421.286C143.129,421.286 145.602,423.748 145.602,426.781C145.602,429.813 143.129,432.276 140.083,432.276C137.037,432.276 134.563,429.813 134.563,426.781C134.563,423.748 137.037,421.286 140.083,421.286ZM690.365,347.302L677.946,348.646C675.855,360.99 682.063,372.938 692.7,384.673C670.546,410.097 646.466,417.14 621.055,411.47L619.658,400.5C644.653,393.345 655.379,376.402 648.883,347.647C648.883,347.647 634.981,334.248 626.105,331.363C616.745,328.32 603.233,327.206 592.722,329.393C578.629,338.825 570.166,351.316 568.619,367.564C568.227,381.57 573.284,391.737 580.645,400.28L627.023,428.377L692.553,415.693C702.407,408.856 708.728,397.36 709.336,378.329C702.715,368.787 696.362,358.525 690.365,347.302ZM115.843,412.604C118.89,412.604 121.363,415.067 121.363,418.099C121.363,421.132 118.89,423.594 115.843,423.594C112.797,423.594 110.324,421.132 110.324,418.099C110.324,415.067 112.797,412.604 115.843,412.604ZM135.123,398.735C138.169,398.735 140.642,401.198 140.642,404.23C140.642,407.263 138.169,409.725 135.123,409.725C132.077,409.725 129.604,407.263 129.604,404.23C129.604,401.198 132.077,398.735 135.123,398.735ZM113.068,391.241C116.114,391.241 118.587,393.703 118.587,396.735C118.587,399.768 116.114,402.23 113.068,402.23C110.022,402.23 107.549,399.768 107.549,396.735C107.549,393.703 110.022,391.241 113.068,391.241ZM542.761,289.453C530.661,281.942 518.855,281.296 507.428,289.466C497.69,287.368 494.365,290.935 496.877,299.658L457.331,338.172C448.533,337.209 444.542,340.47 447.125,349.507C438.814,359.479 439.824,372.138 446.928,383.737C442.954,389.636 442.695,392.16 445.088,394.402C447.366,396.537 452.176,393.61 458.457,395.499C468.952,402.222 477.815,400.513 485.715,393.828C495.011,397.198 499.314,393.73 498.853,383.737L540.692,343.903C548.756,344.602 552.191,340.748 552.054,333.379C559.828,323.652 560.098,312.342 553.454,299.575C560.82,292.228 558.212,287.1 555.634,285.724C553.675,284.679 548.161,283.797 542.761,289.453ZM130.571,376.378C133.618,376.378 136.091,378.84 136.091,381.873C136.091,384.905 133.618,387.368 130.571,387.368C127.525,387.368 125.052,384.905 125.052,381.873C125.052,378.84 127.525,376.378 130.571,376.378ZM455.264,359.449C453.194,376.126 461.296,383.608 477.533,383.737L542.167,321.536C545.148,304.347 536.885,296.589 517.893,297.829L455.264,359.449ZM110.324,369.097C113.37,369.097 115.843,371.56 115.843,374.592C115.843,377.625 113.37,380.087 110.324,380.087C107.278,380.087 104.805,377.625 104.805,374.592C104.805,371.56 107.278,369.097 110.324,369.097ZM127.052,354.8C130.098,354.8 132.571,357.262 132.571,360.295C132.571,363.328 130.098,365.79 127.052,365.79C124.006,365.79 121.533,363.328 121.533,360.295C121.533,357.262 124.006,354.8 127.052,354.8ZM106.549,347.176C109.595,347.176 112.068,349.638 112.068,352.671C112.068,355.704 109.595,358.166 106.549,358.166C103.502,358.166 101.029,355.704 101.029,352.671C101.029,349.638 103.502,347.176 106.549,347.176ZM123.533,331.777C126.579,331.777 129.052,334.239 129.052,337.272C129.052,340.305 126.579,342.767 123.533,342.767C120.487,342.767 118.014,340.305 118.014,337.272C118.014,334.239 120.487,331.777 123.533,331.777ZM103.805,325.282C106.851,325.282 109.324,327.745 109.324,330.777C109.324,333.81 106.851,336.272 103.805,336.272C100.759,336.272 98.286,333.81 98.286,330.777C98.286,327.745 100.759,325.282 103.805,325.282ZM738.92,256.894L737.253,273.374L880.822,283.577C890.987,276.115 891.453,265.267 882.983,251.299C829.058,244.932 781.185,247.004 738.92,256.894ZM77.25,145.6C73.948,149.334 69.574,161.304 71.469,166.58C73.59,172.482 98.879,174.781 98.879,174.781C107.222,167.717 109.086,158.183 102.849,145.561C102.849,145.561 81.55,140.739 77.25,145.6Z" style="fill:white;"/>
    </g>
</svg>
