<?xml version="1.0" encoding="UTF-8" standalone="no"?>
<!DOCTYPE svg PUBLIC "-//W3C//DTD SVG 1.1//EN" "http://www.w3.org/Graphics/SVG/1.1/DTD/svg11.dtd">
<svg width="100%" height="100%" viewBox="0 0 1000 1000" version="1.1" xmlns="http://www.w3.org/2000/svg" xmlns:xlink="http://www.w3.org/1999/xlink" xml:space="preserve" xmlns:serif="http://www.serif.com/" style="fill-rule:evenodd;clip-rule:evenodd;stroke-linejoin:round;stroke-miterlimit:2;">
    <path d="M342.317,490.426C348.168,297.348 439.713,50.511 499.818,50.001L500,50C560.095,50 651.82,297.132 657.683,490.426L657.979,490.426C657.979,493.595 657.954,496.783 657.903,500C657.954,503.217 657.979,506.405 657.979,509.574L657.683,509.574C651.82,702.868 560.095,950 500,950L499.818,949.999C439.713,949.489 348.168,702.652 342.317,509.574L342.021,509.574C342.021,506.408 342.046,503.223 342.097,500C342.046,496.777 342.021,493.592 342.021,490.426L342.317,490.426ZM507.969,666.752C521.726,667.286 535.302,669.152 548.779,671.78L550.192,672.058L551.604,672.342L553.016,672.631L554.427,672.925L555.837,673.225L557.247,673.529L558.656,673.838L560.064,674.151L561.472,674.469L562.88,674.792L564.287,675.118L565.693,675.448L567.099,675.783L568.505,676.121L569.91,676.462L571.315,676.807L572.72,677.155L574.124,677.507L575.528,677.861L576.932,678.218L578.335,678.578L579.738,678.941L582.544,679.673L585.349,680.413L588.153,681.161L590.957,681.915L591.196,681.48C611.436,644.455 615.374,591.647 570.091,557.447L568.83,556.493L567.576,555.539L566.328,554.585L565.086,553.632L563.85,552.678L562.621,551.725L561.397,550.771L560.18,549.816L558.968,548.86L557.762,547.904L556.563,546.947L555.369,545.989L554.18,545.029L552.998,544.068L551.821,543.105L550.65,542.14L549.484,541.173L548.324,540.204L547.17,539.233L546.02,538.26L544.877,537.283L543.738,536.304L542.763,535.46L540.907,533.837L539.786,532.846L538.67,531.852L537.56,530.854L536.454,529.853L535.354,528.847L534.258,527.838L533.168,526.824L532.082,525.806L531.002,524.783L529.926,523.756L528.855,522.724L527.788,521.687L526.727,520.645L525.67,519.598L524.618,518.545L523.571,517.487L522.528,516.423L521.49,515.354L520.457,514.278L519.428,513.197L518.404,512.11L517.385,511.017L516.37,509.917L515.36,508.811L514.354,507.699L513.353,506.581L512.116,505.181L511.115,504.035L510.117,502.881L509.123,501.719L508.133,500.548L507.146,499.369L506.162,498.18L505.182,496.982L504.204,495.775L503.23,494.559L502.259,493.333L501.941,492.926C501.952,507.505 501.954,524.349 501.915,530.638C501.886,535.282 500.761,530.841 500.761,532.553C500.761,546.372 499.095,546.243 499.043,540.213C498.986,533.78 499,509.596 499.018,492.119C478.966,517.868 456.693,537.465 430.236,557.447C384.776,591.78 388.922,644.868 409.369,681.915L409.563,681.863L409.436,681.915C410.513,684.211 412.148,686.474 413.83,688.734L485.536,667.125C487.435,666.992 489.338,666.882 491.244,666.798C494.963,664.055 498.88,660.688 498.88,658.671L498.88,639.125C498.88,637.453 500.663,633.9 500.663,635.572L500.663,658.671C500.663,660.677 504.399,664.017 507.969,666.752ZM500.957,597.254C500.957,595.546 499.043,598.613 499.043,600.322L499.043,623.09C499.043,625.025 500.957,620.919 500.957,618.983L500.957,597.254ZM633.965,500C633.195,452.453 626.775,408.21 617.766,381.277C612.003,394.698 608.949,428.197 567.021,458.615C545.914,473.929 530.574,479.955 528.879,500C530.574,520.045 545.914,526.071 567.021,541.385C608.949,571.803 612.003,605.302 617.766,618.723C626.775,591.79 633.195,547.547 633.965,500ZM471.121,500C469.426,479.955 454.086,473.929 432.979,458.615C391.051,428.197 387.997,394.698 382.234,381.277C373.225,408.21 366.805,452.453 366.035,500C366.805,547.547 373.225,591.79 382.234,618.723C387.997,605.302 391.051,571.803 432.979,541.385C454.086,526.071 469.426,520.045 471.121,500ZM499.043,590.702C499.043,592.455 500.957,589.17 500.957,587.417C500.957,582.287 500.957,551.547 500.957,551.547C500.957,549.611 499.043,553.717 499.043,555.653C499.043,555.653 499.043,587.041 499.043,590.702ZM523.394,342.866C540.966,343.149 558.539,344.78 576.113,346.357C584.727,349.31 592.168,352.734 599.494,356.383C627.42,311.441 555.086,156.098 500.21,155.323L500.21,155.319L499.79,155.319L499.79,155.323C445.133,156.095 373.158,310.2 400.176,355.839L399.468,356.383L413.592,370.507C451.186,364.74 486.914,353.912 522.558,342.854L523.394,342.866Z" style="fill:white;"/>
</svg>
