<?xml version="1.0" encoding="UTF-8" standalone="no"?>
<!DOCTYPE svg PUBLIC "-//W3C//DTD SVG 1.1//EN" "http://www.w3.org/Graphics/SVG/1.1/DTD/svg11.dtd">
<svg width="100%" height="100%" viewBox="0 0 1000 1000" version="1.1" xmlns="http://www.w3.org/2000/svg" xmlns:xlink="http://www.w3.org/1999/xlink" xml:space="preserve" xmlns:serif="http://www.serif.com/" style="fill-rule:evenodd;clip-rule:evenodd;stroke-linejoin:round;stroke-miterlimit:2;">
    <g transform="matrix(5.10348,0,0,5.10348,-2807.95,-2058.52)">
        <path d="M619,539C604.726,544.166 590.675,545.678 577,541C579.674,545.155 584.298,548.472 594,546L593,562L601,562L600,547L602,558L607,557L603,545C612.218,545.945 617.722,544.074 619,539ZM594.805,454.033L594.805,454C594.984,454.004 595.161,454.009 595.337,454.015C595.514,454.009 595.691,454.004 595.87,454L595.87,454.033C616.009,454.817 621.035,463.877 624.63,473C625.918,476.589 626.774,483.953 626.39,484C625.954,488.667 626.331,493.333 627.762,498C628.55,498 628.406,533.95 626.76,552C624.989,553.61 622.941,555.007 620.369,556C622.812,527.682 621.533,500.133 618.239,473L608.652,473C607.844,468.25 606.361,463.592 604.392,459C604.989,463.667 605.351,468.333 605.457,473L585.218,473C585.324,468.333 585.686,463.667 586.283,459C584.314,463.592 582.831,468.25 582.023,473L572.436,473C569.142,500.133 567.863,527.682 570.306,556C567.734,555.007 565.686,553.61 563.915,552C562.269,533.95 562.125,498 562.913,498C564.344,493.333 564.721,488.667 564.285,484C563.901,483.953 564.757,476.589 566.045,473C569.64,463.877 574.666,454.817 594.805,454.033ZM709,521C697.418,526.891 686.065,527.373 675,521C675.245,527.188 680.043,529.717 689.5,528.5L686.5,544.5L694,545L693.5,528.5L694.5,541.5L700,540.5L696.5,528.5C702.894,528.504 707.282,526.253 709,521ZM595.87,536.059C600.105,536.256 603.934,535.981 607.587,535.5C603.859,537.289 600.046,539.887 595.87,541.589L595.87,542C595.692,541.935 595.514,541.869 595.337,541.8C595.161,541.869 594.983,541.935 594.805,542L594.805,541.589C590.629,539.887 586.816,537.289 583.088,535.5C586.741,535.981 590.57,536.256 594.805,536.059L594.805,536L595.337,536.032C595.515,536.022 595.692,536.011 595.87,536L595.87,536.059ZM571.371,529C571.103,531.629 571.135,534.3 571.371,537C579.007,539.376 585.066,540.843 592.675,542C584.228,538.705 577.994,534.587 571.371,529ZM619.304,529C619.572,531.629 619.54,534.3 619.304,537C611.668,539.376 605.609,540.843 598,542C606.447,538.705 612.681,534.587 619.304,529ZM714,511L712.5,517.5C705.868,521.068 699.199,523.3 692.5,524.5C695.591,522.306 698.16,519.989 700,517.5C704.635,516.783 709.305,514.474 714,511ZM668,511L669.5,517.5C676.132,521.068 682.801,523.3 689.5,524.5C686.409,522.306 683.84,519.989 682,517.5C677.365,516.783 672.695,514.474 668,511ZM691,524C688.369,522.855 687.009,521.461 686,520C687.225,520.333 688.56,520.667 691,521C693.44,520.667 694.775,520.333 696,520C694.991,521.461 693.631,522.855 691,524ZM691,456C709.157,456.736 718.903,468.093 723,484C722.226,487.947 721.962,492.588 723,499C723.907,510.743 717.839,514.684 713,520C715.913,508.146 718.784,496.256 713,477L703,471L702.5,476L696,472L691,477L686,472L679.5,476L679,471L669,477C663.216,496.256 666.087,508.146 669,520C664.161,514.684 658.093,510.743 659,499C660.038,492.588 659.774,487.947 659,484C663.097,468.093 672.843,456.736 691,456ZM724,486C723.684,487.915 723.535,489.875 723.54,491.877C723.545,493.878 723.703,495.92 724,498C727.613,494.001 727.557,490.001 724,486ZM658,486C658.316,487.915 658.465,489.875 658.46,491.877C658.455,493.878 658.297,495.92 658,498C654.387,494.001 654.443,490.001 658,486ZM562.849,485C561.324,486.632 560.362,488.426 560.084,490.414C559.806,492.403 560.211,494.586 561.422,497C562.839,493.153 563.328,489.155 562.849,485ZM627.826,485C629.35,486.632 630.313,488.426 630.591,490.414C630.869,492.403 630.464,494.586 629.253,497C627.836,493.153 627.347,489.155 627.826,485ZM731.186,473.062C732.045,473.357 735.564,474.659 735,476C733.683,479.129 729.499,481.198 723.091,479L722,476C724.043,473.626 726.074,471.253 722,469C723.124,465.556 722.606,463.017 717.514,463C732.281,456.371 737.876,468.681 736,473C735.418,474.338 732.022,473.333 731.186,473.062C731.068,473.022 731,473 731,473C731,473 731.067,473.024 731.186,473.062ZM650.814,473.062C649.955,473.357 646.436,474.659 647,476C648.317,479.129 652.501,481.198 658.909,479L660,476C657.957,473.626 655.926,471.253 660,469C658.876,465.556 659.394,463.017 664.486,463C649.719,456.371 644.124,468.681 646,473C646.582,474.338 649.978,473.333 650.814,473.062C650.932,473.022 651,473 651,473C651,473 650.933,473.024 650.814,473.062ZM711.5,462.5C715.276,466.222 718.429,470.225 721,474.494C724.416,473.226 724.326,470.664 721,469C722.003,465.833 720.309,463.058 717,464.582C717.245,460.533 713.309,460.275 711.5,462.5ZM670.5,462.5C666.724,466.222 663.571,470.225 661,474.494C657.584,473.226 657.674,470.664 661,469C659.997,465.833 661.691,463.058 665,464.582C664.755,460.533 668.691,460.275 670.5,462.5ZM593.094,449L597.581,449C604.044,443.899 611.395,435.444 613.978,445C614.461,449.066 614.262,453.039 613.978,457C608.087,453.733 601.725,453.066 595.337,452.543C588.95,453.066 582.588,453.733 576.697,457C576.413,453.039 576.214,449.066 576.697,445C579.279,435.444 586.631,443.899 593.094,449Z" style="fill:white;"/>
    </g>
</svg>
