<?xml version="1.0" encoding="UTF-8" standalone="no"?>
<!DOCTYPE svg PUBLIC "-//W3C//DTD SVG 1.1//EN" "http://www.w3.org/Graphics/SVG/1.1/DTD/svg11.dtd">
<svg width="100%" height="100%" viewBox="0 0 1000 1000" version="1.1" xmlns="http://www.w3.org/2000/svg" xmlns:xlink="http://www.w3.org/1999/xlink" xml:space="preserve" xmlns:serif="http://www.serif.com/" style="fill-rule:evenodd;clip-rule:evenodd;stroke-linejoin:round;stroke-miterlimit:2;">
    <g transform="matrix(5.55556,0,0,5.55556,-2277.78,-1138.89)">
        <path d="M419,320L419,270L581,270L581,320L419,320ZM576,314.884L562.841,314.884L561.724,301.529L571.845,289.795L556.76,286.251L550.011,275.116L576,275.116L576,314.884ZM424,314.884L424,275.116L449.989,275.116L443.24,286.251L428.155,289.795L438.276,301.529L437.159,314.884L424,314.884ZM534.616,314.884L535.732,301.529L525.612,289.795L540.696,286.251L547.446,275.116L501.283,275.116L508.032,286.251L523.117,289.795L512.996,301.529L514.112,314.884L534.616,314.884ZM452.554,275.116L459.304,286.251L474.388,289.795L464.268,301.529L465.384,314.884L485.888,314.884L487.004,301.529L476.883,289.795L491.968,286.251L498.717,275.116L452.554,275.116ZM441.954,314.884L460.589,314.884L451.272,310.971L441.954,314.884ZM558.046,314.884L539.411,314.884L548.728,310.971L558.046,314.884ZM509.318,314.884L500,310.971L490.682,314.884L509.318,314.884Z" style="fill:white;"/>
    </g>
</svg>
