<?xml version="1.0" encoding="UTF-8" standalone="no"?>
<!DOCTYPE svg PUBLIC "-//W3C//DTD SVG 1.1//EN" "http://www.w3.org/Graphics/SVG/1.1/DTD/svg11.dtd">
<svg width="100%" height="100%" viewBox="0 0 1000 1000" version="1.1" xmlns="http://www.w3.org/2000/svg" xmlns:xlink="http://www.w3.org/1999/xlink" xml:space="preserve" xmlns:serif="http://www.serif.com/" style="fill-rule:evenodd;clip-rule:evenodd;stroke-linejoin:round;stroke-miterlimit:2;">
    <g transform="matrix(0.951469,0,0,0.951469,8.8224,24.4199)">
        <path d="M429.308,394.678C409.412,369.567 397.536,354.591 397.536,354.591L341.143,319.617C347.285,308.604 354.758,298.443 361.092,288.945C379.408,294.433 395.783,303.494 409.843,316.811C404.297,329.513 425.777,362.68 454.193,401.1C482.373,407.774 496.548,395.991 499.943,370L499.943,369.952L500.371,369.963C508.126,370.186 514.035,365.989 512.723,344.504C528.115,335.871 529.954,326.073 514.843,314.818C525.746,307.21 523.701,299.404 514.843,291.493C521.626,284.285 521.34,275.749 514.843,266.048C520.805,259.359 520.899,252.297 514.843,244.843C521.504,237.694 521.15,230.63 514.843,223.639C520.689,214.847 521.857,206.338 516.964,198.193C525.141,195.308 529.419,190.098 527.566,181.23C507.845,177.219 503.991,170.26 506.361,162.146C516.329,175.261 526.911,176.362 538.168,164.266C518.443,153.806 508.128,143.872 506.732,134.58C505.5,126.379 509.504,120.387 523.325,121.857C514.08,127.738 510.466,132.618 511.341,136.7C512.821,143.603 529.257,160.946 548.77,151.543C533.294,142.429 529.236,133.243 538.168,123.978C536.304,137.848 542.683,144.135 559.373,140.941C543.724,128.814 538.486,116.204 550.891,102.773C545.602,119.77 548.966,130.593 567.854,130.339C553.652,108.307 552.897,95.089 567.854,92.171C560.79,107.556 563.303,117.625 576.336,121.857C577.276,111.094 574.023,98.133 570.23,83.689C568.212,76.001 573.838,68.535 580.577,62.485C581.643,35.458 590.342,32.914 601.782,39.16C578.351,43.818 585.931,71.55 603.902,107.014C622.57,69.093 637.295,62.246 648.431,83.689C625.012,67.792 619.778,84.667 629.347,128.219C647.102,136.95 658.512,146.827 663.275,157.905C676.5,182.649 687.175,187.458 695.081,170.627C698.893,177.82 701.325,186.76 695.526,191.832C690.052,196.62 685.957,198.936 682.574,208.796C681.29,212.537 676.144,214.21 670.696,216.217C670.748,204.316 661.501,202.419 649.492,203.494C656.443,195.177 655.741,188.734 642.07,185.471C624.727,160.851 611.696,163.058 600.721,178.049C623.98,176.701 640.608,188.342 649.492,215.157C661.85,237.024 674.219,242.068 686.599,231.06L679.178,224.699L698.262,214.097L701.443,237.422L696.141,237.422C670.704,257.802 652.251,241.883 638.889,218.338C638.572,214.012 638.889,205.615 638.889,205.615L633.588,205.615C633.588,205.615 635.366,194.31 634.648,192.892C633.216,193.23 628.287,192.892 628.287,192.892C627.54,195.174 624.113,198.712 620.866,196.959C615.097,193.844 607.751,192.884 604.962,191.832C606.634,200.828 612.831,206.108 632.528,196.073L627.227,209.856L635.709,209.856C634.751,220.642 629.191,224.287 620.866,223.639C619.039,229.201 615.756,233.636 610.263,236.361C603.62,233.47 597.279,228.376 591.179,221.518C605.135,216.789 603.919,211.946 590.837,206.675C585.831,204.658 574.116,205.928 569.554,216.217C561.743,233.832 563.78,261.038 591.179,240.602C587.657,250.464 581.026,255.916 565.734,249.084C577.036,276.853 589.994,273.9 603.902,253.325C602.44,275.136 591.171,281.277 567.854,268.168C588.043,298.264 605.891,303.678 620.866,278.77C620.961,304.37 603.095,306.508 572.095,291.493C614.311,326.908 637.426,324.379 644.19,289.373C650.557,321.109 630.612,329.62 589.059,319.059C607.685,343.202 622.555,350.115 634.648,350.93C659.996,352.638 680.729,343.146 691.901,328.669C700.67,317.306 701.667,305.831 687.66,294.427C684.492,291.848 675.735,293.169 661.154,297.854C664.419,294.209 659.593,291.486 686.599,285.132C687.73,272.388 693.963,270.033 703.563,274.529C688.743,283.174 693.143,293.299 707.804,304.216C733.432,296.98 744.698,281.039 745.116,248.024C745.476,219.504 730.087,188.243 705.683,155.784C708.055,150.469 711.905,144.886 718.406,138.821C724.671,130.539 724.802,127.658 721.587,125.394C708.616,116.262 697.145,123.831 682.359,138.821C689.596,105.677 708.243,96.489 733.249,100.653C727.408,83.91 715.122,84.401 699.322,94.291C711.749,78.649 725.872,77.825 741.731,92.171C742.865,108.444 743.179,125.217 741.731,143.062C762.621,147.687 782.694,153.872 818.067,139.615C827.771,135.703 839.982,126.491 846.543,110.195C848.807,104.57 838.255,97.971 820.188,92.171C836.852,91.983 856.631,84.562 856.235,123.978C863.241,159.32 873.3,178.212 881.681,189.712C895.24,208.317 916.141,202.251 919.849,199.283C923.696,196.204 920.447,186.834 913.487,172.748C935.818,188.559 935.063,200.961 917.728,210.916C903.948,225.102 893.063,239.712 889.259,255.445C881.251,288.563 886.062,318.398 892.84,331.782C907.154,360.048 920.173,365.693 927.623,346.625C928.779,343.665 925.758,336.918 917.728,325.42C940.112,339.305 943.025,353.86 912.104,369.578L911.367,369.95C883.711,420.099 848.266,466.888 781.123,500L779.505,500L779.462,500.068L779.49,500C765.591,533.844 752.417,558.831 739.557,580L728.477,566.744C740.069,544.948 751.08,522.712 761.461,500L761.464,500L717.482,500C715.634,465.069 696.851,420.066 639.95,437.804C626.911,446.433 617.111,454.674 616.319,463.249C615.694,470.013 615.607,476.251 615.905,481.936C615.33,487.611 614.82,493.369 615,500L544,500C535.255,485.787 521.325,479.135 500,483.266L499.682,483.543L499.639,483.488C494.703,486.624 492.22,491.921 492.895,500L492.895,512.79C476.422,511.992 480.898,525.35 492.895,543.79L492.895,587.79C464.67,593.554 471.202,618.08 492.895,650.79L492.895,972.79C476.985,946.475 460.934,920.191 449.895,892.79C442.585,877.945 439.268,864.761 450.895,857.79C456.565,848.682 455.587,843.712 444.895,844.79C429.636,843.675 414.618,841.118 399.895,836.79C399.735,842.128 403.065,845.127 406.895,847.79C391.577,866.793 396.198,886.222 406.895,886.498C410.639,886.595 422.004,889.022 423.895,869.79C429.879,886.57 440.596,902.824 453.895,918.79C384.252,907.688 321.495,874.315 265.895,817.79C278.847,826.761 293.449,832.506 312.895,828.79C314.328,797.666 310.662,779.999 301.895,775.79C271.091,749.869 247.857,720.682 230.895,688.79C225.821,679.297 221.658,678.002 216.895,681.248C204.534,689.672 199.297,713.382 196.895,743.79C170.844,706.554 146.301,667.698 133.895,615.79C125.885,597.093 125.994,579.59 130.895,562.79C135.582,553.096 136.003,542.82 130.895,531.79C125.698,522.33 125.346,511.729 129.174,500.143C129.115,500.095 129.058,500.048 129,500C121.546,403.128 129.277,306.536 140,210C155.399,233.412 174.702,253.62 200.5,268.5C186.346,346.762 172.404,424.463 159.282,500L159.283,500C155.843,517.376 153.931,535.887 153.895,555.79C170.668,548.691 190.88,536.353 211.895,522.79C223.012,602.545 245.204,673.292 292.258,723.29C340.008,774.029 396.79,806.68 458.895,808.79L459.895,761.79C419.945,755.604 375.626,739.759 310.895,678.79C323.513,664.599 326.555,652.709 306.895,611.553C291.878,580.116 276.456,562.417 266.895,575.79L251.895,515.79L267.895,504.79L268.361,500L268.411,500C268.282,499.946 268.154,499.892 268.025,499.838C255.334,425.945 253.99,350.548 266.79,278C273.86,293.296 297.025,304.796 312.649,307.597C298.946,385.702 290.123,450.295 299,500L299.495,500C300.57,508.063 303.243,514.06 306.895,518.79L305.895,568.79C309.55,592.683 313.617,616.584 334.895,640.79L335.895,621.79C319.262,605.339 315.625,586.587 317.895,566.79C313.122,566.5 312.264,550.605 313.895,524.79L336.895,513.79L339.895,533.79C342.105,551.284 353.127,550.36 365.895,545.79C358.767,626.276 384.617,693.25 457.895,740.79C457.813,684.97 444.437,631.709 418.895,580.79C434.019,575.392 444.534,565.245 449.895,549.79C459.519,565.845 465.541,567.02 465.895,544.79L453.895,532.79C452.338,521.468 452.351,510.421 455.916,500L456,500C461.015,480.385 468.308,465.81 477.591,455.636L468.234,443.819L462.045,436.004C445.119,453.048 433.214,474.225 426.895,500L426.895,515.79C431.288,515.707 432.632,520.462 431.536,532.79C429.998,550.078 411.087,570.906 392.895,591.79C410.558,535.511 403.92,520.597 374.895,543.79C373.041,529.039 374.221,514.439 378.711,500L379.387,500C379.259,499.947 379.13,499.893 379,499.838C387.829,459.004 405.428,424.556 429.308,394.678ZM653.075,500C653.049,499.833 653.024,499.667 653,499.5L652.67,499.335L652.672,499.297C636.768,478.249 646.913,462.892 661.729,454.768C667.673,451.508 674.668,455.401 682.359,461.129C683.302,462.204 665.395,464.31 665.395,464.31C665.12,472.748 660.793,501.053 673.522,472.072C676.211,465.948 680.357,464.377 683.419,464.88C691.956,466.282 698.191,486.997 698.291,500L698.214,500L699,511C694.78,503.144 690.212,496.11 685.169,490.198C685.072,490.164 684.981,490.145 684.895,490.141C681.519,494.705 679.667,499.716 678,502C676.665,503.829 672.628,501.468 670,500L670,500.392C673,507.174 676.977,514.56 681.959,522.571L719.645,577.817C699.612,571.884 677.388,567.717 651.055,566.857C616.777,571.005 606.855,587.452 611.303,611.156L644.697,757.103L547.202,644.431C518.504,659.947 517.82,679.444 522.951,699.767L556.106,682.023L505.629,956.39L500,929.097L500,536.383C510.803,537.709 520.362,531.935 529.328,522.794L529.306,507.31L538.164,513.933C540.411,509.377 542.397,504.733 544.123,500L615,500C628.495,516.068 644.006,524.752 661,528C657.537,518.646 654.492,509.302 653.075,500ZM350.895,812.79C367.217,817.843 379.876,823.656 366.895,834.79C373.533,841.006 374.413,848.13 371.895,855.79C358.181,845.333 351.324,830.917 350.895,812.79ZM618.133,743.869L631.425,757.122C602.124,791.393 569.865,822.505 536.446,852.379L538.619,825.831C568.777,801.399 594.981,773.841 618.133,743.869ZM732.937,591.07L717.452,591.093C694.388,631.544 669.997,671.339 644.629,710.65L644.658,730.558C676.078,687.24 705.9,641.375 732.937,591.07ZM215.895,500.79L215.557,500L215.881,500L215.895,500.79ZM376.469,255.034C392.891,257.981 408.987,262.72 424.626,269.991C423.212,279.104 420.392,288.9 416.712,299.282C403.02,288.445 387.668,279.948 368.714,276.528C370.053,274.042 371.217,271.599 372.154,269.197C374.027,264.395 375.464,259.656 376.469,255.034ZM313.05,200.785C338.423,198.401 360.957,217.046 363.339,242.397C365.721,267.747 347.055,290.264 321.682,292.648C296.308,295.032 273.775,276.387 271.393,251.036C269.011,225.686 287.677,203.169 313.05,200.785ZM378.216,241.183C379.298,205.21 351.487,180.003 298.58,191.698C270.023,198.01 262.206,227.481 240.377,249.538L97.543,134.907L172.209,26.885L270.301,175.945C341.698,120.657 408.05,174.298 424.366,245.832C424.967,248.469 425.344,251.195 425.519,254.01C409.447,246.481 393.691,242.333 378.216,241.183Z" style="fill:white;"/>
    </g>
</svg>
