<?xml version="1.0" encoding="UTF-8" standalone="no"?>
<!DOCTYPE svg PUBLIC "-//W3C//DTD SVG 1.1//EN" "http://www.w3.org/Graphics/SVG/1.1/DTD/svg11.dtd">
<svg width="100%" height="100%" viewBox="0 0 1000 1000" version="1.1" xmlns="http://www.w3.org/2000/svg" xmlns:xlink="http://www.w3.org/1999/xlink" xml:space="preserve" xmlns:serif="http://www.serif.com/" style="fill-rule:evenodd;clip-rule:evenodd;stroke-linejoin:round;stroke-miterlimit:2;">
    <g transform="matrix(0.978261,0,0,0.978261,10.8696,9.84702)">
        <path d="M760.129,656.321L717.185,755.662L764.771,852.865L657.022,842.721L579.281,918.015L555.632,812.405L460,761.736L553.133,706.609L571.77,600L652.979,671.54L760.129,656.321ZM307.151,727.312L405.426,731.066L367.52,821.814L269.246,818.059L307.151,727.312ZM201.869,723.068L300.143,726.822L262.237,817.57L163.963,813.815L201.869,723.068ZM347.559,630L445.833,633.754L407.927,724.501L309.653,720.747L347.559,630ZM242.276,625.755L340.551,629.51L302.645,720.257L204.371,716.503L242.276,625.755ZM845.613,586.089C842.426,621.284 812.032,633.925 790.83,625.809C769.628,617.693 757.619,588.819 760.807,553.624C762.438,527.544 780.785,494.511 797.576,470.593C826.376,475.549 862.737,485.827 882.382,503.058C909.588,525.611 921.598,554.486 912.405,575.243C903.213,596.001 872.819,608.643 845.613,586.089ZM291.62,293.171C295.681,287.546 302.665,285.642 307.206,288.921C311.747,292.2 312.136,299.429 308.075,305.053C312.826,300 319.986,299.024 324.054,302.876C328.123,306.728 327.568,313.957 322.817,319.011C328.177,314.615 335.39,314.585 338.916,318.943C342.442,323.302 340.954,330.409 335.595,334.805C341.471,331.142 348.615,332.057 351.538,336.848C354.462,341.639 352.064,348.502 346.188,352.165C352.48,349.298 359.432,351.143 361.703,356.284C363.974,361.425 360.709,367.927 354.417,370.794C361.018,368.771 367.659,371.516 369.238,376.919C370.818,382.322 366.741,388.351 360.141,390.374C366.937,389.23 373.153,392.827 374.014,398.4C374.875,403.973 370.056,409.426 363.26,410.569C370.135,410.324 375.821,414.711 375.948,420.358C376.076,426.006 370.598,430.789 363.723,431.034C370.56,431.692 375.617,436.794 375.009,442.419C374.401,448.044 368.358,452.077 361.521,451.419C368.202,452.969 372.544,458.698 371.212,464.205C369.879,469.711 363.373,472.924 356.692,471.374C363.103,473.789 366.656,480.048 364.621,485.342C362.586,490.637 355.729,492.974 349.318,490.559C355.35,493.798 358.053,500.48 355.351,505.471C352.648,510.462 345.557,511.884 339.525,508.645C345.075,512.653 346.882,519.643 343.558,524.245C340.235,528.847 333.031,529.331 327.482,525.323C332.454,530.03 333.334,537.209 329.446,541.344C325.558,545.479 318.366,545.015 313.394,540.308C317.703,545.634 317.641,552.879 313.256,556.475C308.87,560.072 301.811,558.668 297.502,553.342C301.075,559.196 300.072,566.383 295.264,569.38C290.455,572.377 283.651,570.058 280.079,564.203C282.854,570.486 280.927,577.491 275.778,579.837C270.63,582.184 264.196,578.988 261.421,572.705C263.351,579.308 260.534,586.013 255.133,587.668C249.732,589.323 243.78,585.306 241.85,578.703C242.902,585.514 239.241,591.803 233.68,592.739C228.119,593.674 222.75,588.905 221.698,582.094C221.854,588.996 217.414,594.762 211.788,594.962C206.162,595.162 201.468,589.722 201.312,582.82C200.569,589.695 195.425,594.839 189.83,594.3C184.236,593.762 180.297,587.743 181.04,580.869C179.411,587.598 173.65,592.033 168.183,590.764C162.716,589.496 159.6,583.003 161.229,576.273C158.742,582.743 152.463,586.391 147.217,584.415C141.971,582.439 139.73,575.582 142.217,569.112C138.915,575.211 132.226,578.012 127.29,575.362C122.355,572.711 121.028,565.608 124.331,559.508C120.269,565.133 113.285,567.037 108.744,563.758C104.204,560.479 103.814,553.25 107.876,547.626C103.125,552.679 95.965,553.655 91.896,549.803C87.828,545.951 88.382,538.722 93.133,533.668C87.774,538.064 80.56,538.094 77.034,533.736C73.508,529.377 74.997,522.27 80.356,517.874C74.48,521.537 67.336,520.621 64.413,515.831C61.489,511.04 63.886,504.177 69.762,500.514C63.47,503.381 56.518,501.536 54.247,496.395C51.977,491.254 55.241,484.752 61.533,481.885C54.933,483.907 48.292,481.163 46.712,475.76C45.133,470.357 49.21,464.328 55.81,462.305C49.014,463.449 42.798,459.852 41.937,454.279C41.076,448.706 45.894,443.253 52.69,442.11C45.815,442.355 40.13,437.968 40.002,432.321C39.874,426.673 45.353,421.89 52.228,421.645C45.391,420.987 40.334,415.885 40.942,410.26C41.549,404.635 47.593,400.602 54.43,401.26C47.749,399.71 43.406,393.981 44.739,388.474C46.072,382.968 52.578,379.755 59.259,381.305C52.848,378.89 49.294,372.631 51.329,367.337C53.364,362.042 60.222,359.705 66.633,362.12C60.601,358.881 57.898,352.199 60.6,347.208C63.302,342.217 70.393,340.795 76.425,344.034C70.876,340.026 69.069,333.036 72.392,328.434C75.716,323.832 82.919,323.348 88.469,327.356C83.497,322.649 82.617,315.47 86.505,311.335C90.392,307.2 97.585,307.664 102.557,312.371C98.248,307.045 98.31,299.8 102.695,296.204C107.081,292.607 114.139,294.011 118.448,299.337C114.876,293.483 115.879,286.296 120.687,283.299C125.495,280.302 132.299,282.621 135.872,288.476C133.097,282.193 135.024,275.188 140.172,272.842C145.321,270.495 151.754,273.691 154.529,279.974C152.599,273.371 155.417,266.666 160.818,265.011C166.219,263.356 172.171,267.373 174.101,273.976C173.049,267.165 176.71,260.876 182.271,259.94C187.831,259.005 193.2,263.774 194.252,270.585C194.096,263.683 198.537,257.917 204.163,257.717C209.789,257.517 214.483,262.957 214.639,269.859C215.381,262.984 220.526,257.84 226.12,258.379C231.715,258.917 235.653,264.936 234.911,271.81C236.539,265.081 242.3,260.646 247.767,261.915C253.234,263.183 256.351,269.676 254.722,276.406C257.209,269.936 263.487,266.288 268.734,268.264C273.98,270.24 276.22,277.097 273.733,283.567C277.036,277.467 283.724,274.667 288.66,277.317C293.596,279.968 294.922,287.071 291.62,293.171ZM667.446,516.116C632.251,512.929 619.61,482.535 627.726,461.333C635.842,440.131 664.716,428.122 699.911,431.31C725.991,432.941 759.024,451.288 782.942,468.079C777.986,496.879 767.708,533.24 750.477,552.885C727.924,580.091 699.05,592.101 678.292,582.908C657.534,573.716 644.893,543.323 667.446,516.116ZM278.052,305.025C282.538,300.555 290.367,299.989 296.182,304.188C301.996,308.387 303.922,315.996 301.09,321.661C306.385,318.186 314.167,319.208 319.018,324.491C323.868,329.775 324.222,337.616 320.309,342.595C326.194,340.257 333.611,342.824 337.299,348.976C340.987,355.127 339.755,362.879 334.92,366.968C341.155,365.863 347.904,369.871 350.278,376.639C352.652,383.407 349.885,390.752 344.325,393.784C350.656,393.957 356.459,399.241 357.422,406.348C358.385,413.456 354.196,420.094 348.14,421.944C354.306,423.388 358.927,429.732 358.44,436.888C357.952,444.043 352.513,449.702 346.208,450.296C351.958,452.951 355.207,460.096 353.289,467.007C351.371,473.918 344.904,478.366 338.609,477.679C343.706,481.437 345.451,489.089 342.181,495.473C338.911,501.856 331.681,504.912 325.653,502.971C329.889,507.678 330.058,515.525 325.57,521.12C321.082,526.714 313.385,528.252 307.871,525.137C311.073,530.601 309.659,538.321 304.136,542.898C298.614,547.475 290.765,547.431 285.991,543.271C288.028,549.267 285.088,556.545 278.758,559.916C272.427,563.287 264.748,561.665 260.909,556.628C261.697,562.912 257.352,569.449 250.473,571.477C243.593,573.505 236.397,570.37 233.651,564.663C233.158,570.977 227.586,576.506 220.439,577.107C213.292,577.709 206.875,573.19 205.333,567.047C203.58,573.132 197.009,577.426 189.887,576.577C182.766,575.728 177.39,570.009 177.116,563.682C174.173,569.289 166.873,572.173 160.068,569.907C153.263,567.642 149.148,560.958 150.153,554.705C146.142,559.606 138.411,560.961 132.201,557.372C125.991,553.783 123.306,546.407 125.55,540.485C120.634,544.478 112.789,544.249 107.428,539.483C102.068,534.717 100.923,526.952 104.312,521.603C98.694,524.524 91.055,522.721 86.764,516.974C82.472,511.227 82.913,503.39 87.311,498.833C81.219,500.563 74.099,497.259 71.053,490.766C68.007,484.272 70.016,476.685 75.24,473.106C68.925,473.575 62.616,468.905 60.939,461.931C59.263,454.958 62.758,447.93 68.596,445.476C62.316,444.664 57.076,438.82 56.837,431.652C56.599,424.483 61.437,418.303 67.65,417.075C61.661,415.015 57.706,408.236 58.915,401.166C60.124,394.096 66.107,389.017 72.44,389.064C66.989,385.841 64.479,378.404 67.086,371.722C69.693,365.041 76.577,361.27 82.771,362.591C78.08,358.336 77.118,350.546 81.017,344.526C84.916,338.506 92.418,336.198 98.219,338.739C94.48,333.627 95.106,325.803 100.137,320.691C105.168,315.579 112.981,314.829 118.152,318.485C115.519,312.725 117.707,305.188 123.664,301.193C129.621,297.199 137.426,298.036 141.754,302.658C140.335,296.487 143.995,289.544 150.635,286.83C157.274,284.116 164.75,286.508 168.059,291.907C167.911,285.576 172.895,279.512 179.944,278.19C186.994,276.868 193.835,280.716 195.99,286.67C197.12,280.439 203.222,275.502 210.393,275.627C217.564,275.751 223.491,280.897 224.403,287.164C226.764,281.287 233.735,277.68 240.734,279.245C247.734,280.811 252.504,287.044 252.136,293.366C255.631,288.085 263.185,285.955 269.726,288.898C276.267,291.84 279.685,298.906 278.052,305.025ZM267.88,325.982C271.135,322.035 277.165,321.287 281.549,324.453C285.932,327.618 287.119,333.577 284.396,337.909C288.288,334.587 294.356,334.898 298.123,338.776C301.89,342.655 302.025,348.73 298.591,352.523C303,349.927 308.923,351.287 311.959,355.761C314.995,360.234 314.073,366.24 310.033,369.379C314.826,367.589 320.422,369.957 322.635,374.889C324.848,379.822 322.897,385.577 318.373,387.967C323.404,387.036 328.504,390.339 329.827,395.582C331.151,400.824 328.23,406.152 323.36,407.72C328.476,407.677 332.924,411.816 333.317,417.208C333.71,422.601 329.908,427.341 324.84,428.039C329.886,428.885 333.548,433.734 332.999,439.112C332.449,444.491 327.882,448.499 322.769,448.307C327.592,450.016 330.356,455.427 328.881,460.628C327.406,465.83 322.212,468.984 317.211,467.907C321.663,470.427 323.446,476.236 321.09,481.103C318.734,485.969 313.072,488.173 308.333,486.244C312.28,489.499 313.027,495.529 309.862,499.913C306.697,504.296 300.738,505.483 296.406,502.761C299.728,506.652 299.417,512.72 295.538,516.487C291.66,520.255 285.585,520.389 281.792,516.955C284.388,521.364 283.028,527.287 278.554,530.323C274.081,533.359 268.075,532.437 264.935,528.397C266.726,533.19 264.358,538.786 259.425,540.999C254.492,543.213 248.738,541.261 246.348,536.738C247.279,541.768 243.975,546.868 238.733,548.191C233.491,549.515 228.163,546.594 226.595,541.724C226.638,546.84 222.499,551.288 217.107,551.681C211.714,552.074 206.974,548.272 206.275,543.204C205.43,548.25 200.581,551.912 195.202,551.363C189.824,550.813 185.816,546.246 186.008,541.133C184.299,545.956 178.888,548.72 173.686,547.245C168.485,545.77 165.331,540.576 166.408,535.575C163.888,540.027 158.079,541.81 153.212,539.454C148.346,537.098 146.142,531.436 148.071,526.697C144.816,530.644 138.785,531.392 134.402,528.226C130.019,525.061 128.831,519.102 131.554,514.77C127.663,518.092 121.594,517.781 117.827,513.903C114.06,510.024 113.926,503.949 117.359,500.156C112.95,502.752 107.028,501.392 103.992,496.918C100.955,492.445 101.878,486.439 105.918,483.3C101.125,485.09 95.529,482.722 93.316,477.789C91.102,472.857 93.054,467.102 97.577,464.712C92.546,465.643 87.447,462.34 86.123,457.097C84.8,451.855 87.721,446.527 92.591,444.959C87.475,445.002 83.026,440.863 82.633,435.471C82.241,430.078 86.043,425.338 91.111,424.64C86.065,423.794 82.403,418.945 82.952,413.567C83.502,408.188 88.069,404.18 93.181,404.372C88.359,402.663 85.594,397.252 87.069,392.051C88.545,386.849 93.738,383.695 98.74,384.772C94.288,382.252 92.505,376.443 94.86,371.576C97.216,366.71 102.879,364.506 107.618,366.435C103.671,363.18 102.923,357.15 106.088,352.766C109.254,348.383 115.213,347.196 119.545,349.918C116.223,346.027 116.534,339.959 120.412,336.192C124.291,332.424 130.365,332.29 134.158,335.723C131.563,331.315 132.923,325.392 137.397,322.356C141.87,319.319 147.876,320.242 151.015,324.282C149.225,319.489 151.593,313.893 156.525,311.68C161.458,309.466 167.213,311.418 169.603,315.941C168.672,310.911 171.975,305.811 177.217,304.487C182.46,303.164 187.788,306.085 189.356,310.955C189.313,305.839 193.452,301.39 198.844,300.998C204.236,300.605 208.977,304.407 209.675,309.475C210.521,304.429 215.37,300.767 220.748,301.316C226.127,301.866 230.135,306.433 229.943,311.546C231.652,306.723 237.063,303.958 242.264,305.434C247.466,306.909 250.62,312.103 249.543,317.104C252.063,312.652 257.872,310.869 262.738,313.225C267.605,315.581 269.809,321.243 267.88,325.982ZM253.637,336.075C258.662,331.165 267.332,330.565 273.775,335.218C280.218,339.87 282.376,348.289 279.295,354.604C285.592,351.486 294.023,353.595 298.713,360.011C303.403,366.426 302.854,375.1 297.972,380.154C304.924,379.134 312.291,383.746 314.769,391.296C317.246,398.847 314.044,406.927 307.84,410.225C314.766,411.403 320.347,418.066 320.371,426.013C320.394,433.959 314.851,440.654 307.932,441.873C314.155,445.135 317.404,453.195 314.971,460.761C312.537,468.326 305.197,472.98 298.239,472.001C303.15,477.026 303.75,485.696 299.097,492.139C294.445,498.582 286.026,500.74 279.711,497.659C282.829,503.956 280.72,512.387 274.304,517.077C267.888,521.767 259.215,521.218 254.161,516.336C255.181,523.288 250.569,530.655 243.018,533.133C235.467,535.61 227.388,532.408 224.09,526.204C222.911,533.13 216.249,538.712 208.302,538.735C200.355,538.758 193.661,533.215 192.442,526.296C189.18,532.519 181.119,535.769 173.554,533.335C165.989,530.901 161.335,523.561 162.314,516.603C157.289,521.514 148.618,522.114 142.176,517.461C135.733,512.809 133.574,504.39 136.655,498.075C130.359,501.193 121.928,499.084 117.238,492.668C112.548,486.253 113.097,477.579 117.979,472.525C111.027,473.545 103.66,468.933 101.182,461.382C98.704,453.832 101.907,445.752 108.111,442.454C101.184,441.276 95.603,434.613 95.58,426.666C95.557,418.719 101.099,412.025 108.019,410.806C101.796,407.544 98.546,399.484 100.98,391.918C103.414,384.353 110.754,379.699 117.711,380.678C112.8,375.653 112.201,366.983 116.853,360.54C121.506,354.097 129.925,351.939 136.239,355.02C133.122,348.723 135.231,340.292 141.647,335.602C148.062,330.912 156.736,331.461 161.789,336.343C160.77,329.391 165.381,322.024 172.932,319.546C180.483,317.069 188.563,320.271 191.86,326.475C193.039,319.549 199.701,313.967 207.648,313.944C215.595,313.921 222.29,319.464 223.509,326.383C226.77,320.16 234.831,316.91 242.396,319.344C249.962,321.778 254.616,329.118 253.637,336.075ZM251.145,346.277C254.951,341.605 262.017,340.701 267.143,344.403C272.269,348.104 273.633,355.096 270.396,360.178C275.281,356.65 282.34,357.606 286.333,362.508C290.327,367.41 289.835,374.517 285.393,378.588C291.024,376.445 297.596,379.195 300.184,384.964C302.773,390.732 300.458,397.47 295.114,400.252C301.108,399.64 306.744,403.997 307.751,410.239C308.758,416.481 304.779,422.39 298.897,423.694C304.845,424.654 309.161,430.321 308.518,436.611C307.876,442.901 302.503,447.579 296.483,447.316C301.981,449.783 304.683,456.374 302.434,462.284C300.185,468.193 293.785,471.321 288.038,469.509C292.71,473.315 293.614,480.381 289.912,485.507C286.211,490.633 279.219,491.997 274.137,488.76C277.664,493.645 276.709,500.704 271.807,504.697C266.905,508.691 259.798,508.199 255.727,503.757C257.87,509.388 255.12,515.96 249.351,518.548C243.582,521.137 236.845,518.823 234.063,513.478C234.675,519.472 230.318,525.108 224.076,526.115C217.834,527.122 211.925,523.143 210.621,517.261C209.661,523.209 203.993,527.525 197.703,526.882C191.413,526.24 186.736,520.867 186.999,514.847C184.532,520.345 177.94,523.047 172.031,520.798C166.122,518.549 162.994,512.149 164.806,506.402C161,511.074 153.934,511.978 148.808,508.276C143.682,504.575 142.318,497.583 145.555,492.501C140.67,496.029 133.611,495.073 129.617,490.171C125.624,485.269 126.116,478.162 130.558,474.091C124.926,476.234 118.355,473.484 115.767,467.715C113.178,461.947 115.492,455.209 120.837,452.427C114.842,453.039 109.207,448.682 108.2,442.44C107.192,436.198 111.171,430.289 117.054,428.985C111.105,428.025 106.79,422.358 107.432,416.068C108.075,409.778 113.448,405.1 119.467,405.363C113.97,402.896 111.268,396.305 113.517,390.395C115.766,384.486 122.166,381.358 127.912,383.17C123.241,379.364 122.337,372.298 126.038,367.172C129.74,362.046 136.732,360.682 141.814,363.919C138.286,359.034 139.242,351.975 144.144,347.982C149.046,343.988 156.153,344.48 160.224,348.922C158.081,343.29 160.831,336.719 166.6,334.131C172.368,331.542 179.105,333.856 181.888,339.201C181.275,333.207 185.633,327.571 191.875,326.564C198.117,325.557 204.025,329.536 205.33,335.418C206.29,329.47 211.957,325.154 218.247,325.796C224.537,326.439 229.215,331.812 228.952,337.832C231.419,332.334 238.01,329.632 243.92,331.881C249.829,334.13 252.957,340.53 251.145,346.277ZM254.54,361.855C290.13,387.555 298.16,437.314 272.46,472.904C246.76,508.494 197.001,516.524 161.411,490.824C125.821,465.124 117.791,415.365 143.491,379.775C169.191,344.185 218.95,336.155 254.54,361.855ZM917.913,407.874C953.108,411.062 965.749,441.455 957.633,462.657C949.517,483.859 920.643,495.869 885.448,492.681C859.368,491.05 826.335,472.703 802.417,455.912C807.373,427.112 817.651,390.751 834.882,371.106C857.435,343.899 886.309,331.89 907.067,341.082C927.825,350.274 940.466,380.668 917.913,407.874ZM739.746,337.901C742.933,302.707 773.327,290.065 794.529,298.181C815.731,306.297 827.74,335.171 824.552,370.366C822.921,396.447 804.574,429.479 787.784,453.398C758.984,448.442 722.622,438.163 702.977,420.932C675.771,398.379 663.762,369.505 672.954,348.747C682.146,327.989 712.54,315.348 739.746,337.901ZM521.993,241.383C529.759,241.949 535.227,242.593 540.595,243.241C552.39,133.477 565.612,92.822 581.022,90.969C620.182,86.26 632.159,112.925 631.873,180.486C631.78,202.534 617.333,225.244 602.824,251.586C624.191,292.838 628.206,326.059 626.947,356.84C636.653,357.655 643.86,357.4 644.375,359.401C645.126,362.318 645.742,363.349 624.578,363.766L615.705,384.947C624.172,389.502 629.57,392.244 628.997,393.562C627.555,396.878 623.515,394.211 611.941,390.851C599.672,412.365 578.882,422.516 551.011,423.222C539.481,423.514 525.322,417.486 512.88,419.361L512.88,419.373L512.85,419.366L512.819,419.37L512.82,419.358C500.635,416.223 485.934,420.772 474.494,419.304C446.841,415.755 427.197,403.534 417.189,380.88C405.332,383.039 401.042,385.281 399.945,381.834C399.51,380.465 405.16,378.288 414.047,374.622L407.385,352.645C386.374,350.069 387.092,349.106 388.137,346.282C388.854,344.344 395.997,345.333 405.735,345.514C407.626,314.766 415.014,282.128 440.482,243.273C428.74,215.587 416.687,191.521 418.846,169.579C425.463,102.342 440.1,77.039 478.575,85.724C493.715,89.141 502.715,130.933 503.238,241.329C508.645,241.232 514.15,241.15 521.933,241.38L521.933,241.378L521.993,241.381L521.993,241.383ZM573.499,333.631C575.924,336.545 574.94,341.369 571.302,344.397C567.664,347.424 562.742,347.516 560.316,344.602C557.891,341.688 558.875,336.864 562.513,333.836C566.151,330.808 571.073,330.716 573.499,333.631ZM461.274,327.885C458.564,330.536 459.05,335.435 462.36,338.819C465.669,342.202 470.557,342.796 473.267,340.145C475.978,337.494 475.491,332.594 472.182,329.211C468.872,325.828 463.985,325.233 461.274,327.885Z" style="fill:white;"/>
    </g>
</svg>
