<?xml version="1.0" encoding="UTF-8" standalone="no"?>
<!DOCTYPE svg PUBLIC "-//W3C//DTD SVG 1.1//EN" "http://www.w3.org/Graphics/SVG/1.1/DTD/svg11.dtd">
<svg width="100%" height="100%" viewBox="0 0 1000 1000" version="1.1" xmlns="http://www.w3.org/2000/svg" xmlns:xlink="http://www.w3.org/1999/xlink" xml:space="preserve" xmlns:serif="http://www.serif.com/" style="fill-rule:evenodd;clip-rule:evenodd;stroke-linejoin:round;stroke-miterlimit:2;">
    <g transform="matrix(2.25,0,0,2.25,-220,-1431.62)">
        <path d="M187.678,956.144C170.827,938.274 158.383,916.195 152.1,891.66L123.594,893.997L120,875.977L147.672,862.179C147.558,859.806 147.5,857.41 147.5,855C147.5,830.228 153.62,806.874 164.427,786.374L142.336,761.355L152.433,746.003L181.61,760.703C195.525,743.992 213.063,730.4 233.02,721.135L226.222,696.974L243.222,690L259.898,711.71C271.144,708.959 282.903,707.5 295,707.5C311.038,707.5 326.482,710.065 340.944,714.808L360,690L377,696.974L368.517,727.124C382.458,735.161 394.967,745.416 405.557,757.402C418.328,748.512 430.491,739.297 442.5,730C465,722.772 487.5,720.051 510,718L500,750C479.981,749.637 460.69,752.434 442.5,760C431.066,771.44 339.372,823.996 342.136,817.89C331.146,803.954 314.111,795 295,795C261.885,795 235,821.885 235,855C235,888.115 261.885,915 295,915C309.766,915 323.293,909.655 333.75,900.795L333.75,900.795C367.928,906.491 443.13,864.493 443.13,862.12C448.859,859.165 499.22,850.344 520,849.444L510,878.444C489.815,880.526 446.566,888.701 443.212,890.213C443.445,890.637 441.024,892.302 436.749,894.713C436.026,897.303 435.233,899.864 434.373,902.398L435.532,902.741C428.071,924.129 416.103,942.776 401.035,957.935L414.828,988.327L400.677,1000.05L377.142,977.499C359.252,989.525 338.59,997.737 316.324,1000.97L315.763,1025.31L297.466,1027L288.251,1002.35C259.208,1001.04 232.341,991.311 210.035,975.554L185.81,992.793L171.599,981.145L187.678,956.144ZM392.61,915.26C372.041,923.39 350.425,929.86 338.814,927.837C326.012,935.558 311.021,940 295,940C248.087,940 210,901.913 210,855C210,808.087 248.087,770 295,770C316.148,770 335.503,777.74 350.385,790.541C360.014,785.724 369.157,780.645 377.933,775.365C357.001,753.572 327.573,740 295,740C231.53,740 180,791.53 180,855C180,918.47 231.53,970 295,970C320.796,970 344.619,961.488 363.813,947.123L363.63,947.009C375.16,938.349 385.013,927.575 392.61,915.26ZM295,820C314.317,820 330,835.683 330,855C330,874.317 314.317,890 295,890C275.683,890 260,874.317 260,855C260,835.683 275.683,820 295,820ZM354.11,843.405C355.175,850.387 355.257,861.369 354.11,868.35C389.257,852.779 423.228,835.965 457.057,819C473.349,815.307 490.178,814.037 507.503,815L519,788.172C498.486,786.37 478.694,786.439 461,791.958C444.044,801.326 426.738,810.418 408.889,819.082C391.222,827.657 373.024,835.814 354.11,843.405Z" style="fill:white;"/>
    </g>
</svg>
