<?xml version="1.0" encoding="UTF-8" standalone="no"?>
<!DOCTYPE svg PUBLIC "-//W3C//DTD SVG 1.1//EN" "http://www.w3.org/Graphics/SVG/1.1/DTD/svg11.dtd">
<svg width="100%" height="100%" viewBox="0 0 1000 1000" version="1.1" xmlns="http://www.w3.org/2000/svg" xmlns:xlink="http://www.w3.org/1999/xlink" xml:space="preserve" xmlns:serif="http://www.serif.com/" style="fill-rule:evenodd;clip-rule:evenodd;stroke-linejoin:round;stroke-miterlimit:2;">
    <g transform="matrix(1.21892,0,0,1.21892,-130.79,549.756)">
        <path d="M544.201,65.021C564.601,3.968 580.966,-57.086 585,-118.14C588.813,-93.193 591.626,-67.794 585,-38.14C625.819,-126.035 632.447,-232.898 625,-347.569C639.815,-281.203 645.168,-212.138 633.224,-138.14C658.837,-222.564 661.608,-313.514 645,-410C674.343,-358.452 684.582,-283.634 653.221,-158.14C686.189,-226.387 703.183,-308.465 711.404,-398.14C720.617,-327.954 722.408,-258.056 680,-189.711C725.216,-229.59 746.219,-290.414 757.883,-358.14C756.786,-282.537 732.09,-215.775 680,-158.14C713.656,-179.833 740.474,-216.48 765,-258.14C752.38,-213.178 673.445,-118.37 665,-118.14C683.16,-116.566 714.893,-146.611 745,-178.14C754.333,-171.473 647.137,-65.289 635,-68.14C634.978,-57.65 724.753,-112.814 765,-158.14C725.908,-113.538 678.464,-72.31 613.556,-38.14C654.569,-45.558 690.142,-70.685 725,-98.14C684.653,-55.285 639.655,-19.436 585,1.86C609.016,8.516 643.376,-15.766 680,-46.82C655.42,-15.07 624.724,15.475 572.921,41.86C598.12,37.197 621.557,19.509 645,1.86C621.902,27.275 595.063,51.37 563.052,73.643C614.855,100.75 654.699,151.04 671.408,212.249C667.891,210.8 664.038,210 660,210C643.443,210 630,223.443 630,240C630,256.557 643.443,270 660,270C667.489,270 674.341,267.25 679.6,262.705C679.865,267.382 680,272.104 680,276.86C680,289.638 679.027,316.169 677.16,328.36C660.87,292.906 576.5,271.86 475,271.86C373.5,271.86 289.13,292.906 272.84,328.36C270.973,316.169 270,289.638 270,276.86C270,154.753 358.815,55.234 469.363,51.944C458.049,56.241 450,67.188 450,80C450,96.557 463.443,110 480,110C496.557,110 510,96.557 510,80C510,67.845 502.756,57.369 492.351,52.656C510.398,54.318 527.784,58.551 544.201,65.021ZM320,200C336.557,200 350,213.443 350,230C350,246.557 336.557,260 320,260C303.443,260 290,246.557 290,230C290,213.443 303.443,200 320,200ZM480,170C496.557,170 510,183.443 510,200C510,216.557 496.557,230 480,230C463.443,230 450,216.557 450,200C450,183.443 463.443,170 480,170ZM580,110C596.557,110 610,123.443 610,140C610,156.557 596.557,170 580,170C563.443,170 550,156.557 550,140C550,123.443 563.443,110 580,110ZM380,100C396.557,100 410,113.443 410,130C410,146.557 396.557,160 380,160C363.443,160 350,146.557 350,130C350,113.443 363.443,100 380,100Z" style="fill:white;"/>
    </g>
</svg>
