<?xml version="1.0" encoding="UTF-8" standalone="no"?>
<!DOCTYPE svg PUBLIC "-//W3C//DTD SVG 1.1//EN" "http://www.w3.org/Graphics/SVG/1.1/DTD/svg11.dtd">
<svg width="100%" height="100%" viewBox="0 0 1000 1000" version="1.1" xmlns="http://www.w3.org/2000/svg" xmlns:xlink="http://www.w3.org/1999/xlink" xml:space="preserve" xmlns:serif="http://www.serif.com/" style="fill-rule:evenodd;clip-rule:evenodd;stroke-linejoin:round;stroke-miterlimit:2;">
    <g transform="matrix(1.18421,0,0,1.18421,-92.1053,-133.553)">
        <path d="M880,310L120,310L120,760L880,760L880,310ZM165,486.473L165,720L235,720L235,496.535C211.732,492.921 188.401,489.568 165,486.473ZM255,499.708L255,720L405,720L405,527.81C355.292,517.221 305.291,507.854 255,499.708ZM425,532.141L425,720L575,720L575,569.117C525.303,555.533 475.302,543.208 425,532.141ZM595,574.657L595,720L745,720L745,620.909C695.319,604.195 645.32,588.779 595,574.657ZM765,627.713L765,720L835,720L835,652.737C811.729,644.103 788.388,635.759 765,627.713ZM765,595.776L765,610.989C788.4,618.863 811.733,627.006 835,635.419L835,620.605C811.735,612.039 788.399,603.761 765,595.776ZM595,543.177L595,558.841C645.278,572.787 695.28,587.95 745,604.329L745,589.026C695.325,572.451 645.335,557.172 595,543.177ZM765,563.858L765,579.105C788.382,586.913 811.719,594.997 835,603.354L835,588.493C811.745,579.995 788.419,571.786 765,563.858ZM595,511.717L595,527.384C645.282,541.207 695.285,556.245 745,572.497L745,557.163C695.317,540.72 645.316,525.572 595,511.717ZM765,531.96L765,547.24C788.391,554.991 811.724,563.014 835,571.308L835,556.401C811.732,547.964 788.394,539.816 765,531.96ZM425,501.099L425,516.554C475.266,527.637 525.264,539.905 575,553.362L575,537.69C525.302,524.235 475.298,512.038 425,501.099ZM595,480.275L595,495.945C645.275,509.643 695.27,524.553 745,540.682L745,525.32C695.322,509.014 645.325,494 595,480.275ZM835,539.281L835,350L765,350L765,515.393C788.396,523.087 811.727,531.048 835,539.281ZM425,470.075L425,485.509C475.266,496.472 525.264,508.619 575,521.954L575,506.282C525.311,492.959 475.317,480.893 425,470.075ZM255,469.085L255,483.762C305.268,492.089 355.278,501.573 405,512.211L405,496.819C355.305,486.355 305.3,477.11 255,469.085ZM745,508.887L745,350L595,350L595,464.524C645.282,478.1 695.283,492.888 745,508.887ZM425,439.07L425,454.48C475.267,465.324 525.268,477.352 575,490.564L575,474.892C525.304,461.698 475.303,449.758 425,439.07ZM255,438.48L255,453.111C305.256,461.322 355.256,470.688 405,481.212L405,465.845C355.298,455.505 305.293,446.383 255,438.48ZM165,456.065L165,470.125C188.396,473.341 211.736,476.804 235,480.512L235,465.96C211.743,462.404 188.407,459.105 165,456.065ZM575,459.192L575,350L425,350L425,423.468C475.272,434.195 525.279,446.104 575,459.192ZM255,407.891L255,422.478C305.262,430.576 355.265,439.826 405,450.231L405,434.89C355.293,424.673 305.294,415.674 255,407.891ZM165,425.674L165,439.679C188.383,442.841 211.71,446.249 235,449.907L235,435.403C211.722,431.899 188.391,428.657 165,425.674ZM165,395.3L165,409.249C188.384,412.358 211.713,415.714 235,419.319L235,404.863C211.732,401.416 188.397,398.228 165,395.3ZM405,419.266L405,350L255,350L255,391.861C305.262,399.844 355.267,408.979 405,419.266ZM235,388.747L235,350L165,350L165,378.835C188.384,381.892 211.714,385.195 235,388.747Z" style="fill:white;"/>
    </g>
</svg>
