<?xml version="1.0" encoding="UTF-8" standalone="no"?>
<!DOCTYPE svg PUBLIC "-//W3C//DTD SVG 1.1//EN" "http://www.w3.org/Graphics/SVG/1.1/DTD/svg11.dtd">
<svg width="100%" height="100%" viewBox="0 0 1000 1000" version="1.1" xmlns="http://www.w3.org/2000/svg" xmlns:xlink="http://www.w3.org/1999/xlink" xml:space="preserve" xmlns:serif="http://www.serif.com/" style="fill-rule:evenodd;clip-rule:evenodd;stroke-linejoin:round;stroke-miterlimit:2;">
    <g transform="matrix(6.42857,0,0,6.42857,-3614.29,-2457.14)">
        <path d="M685.949,399.4C685.949,394.212 681.737,390 676.549,390L603.451,390C598.263,390 594.051,394.212 594.051,399.4L594.051,520.6C594.051,525.788 598.263,530 603.451,530L676.549,530C681.737,530 685.949,525.788 685.949,520.6L685.949,399.4ZM614.791,510.411L600,510.411L600,525.201L614.791,525.201L614.791,510.411ZM658.073,510.411L643.282,510.411L643.282,525.201L658.073,525.201L658.073,510.411ZM636.395,510.411L621.605,510.411L621.605,525.201L636.395,525.201L636.395,510.411ZM679.678,510.411L664.887,510.411L664.887,525.201L679.678,525.201L679.678,510.411ZM614.791,488.806L600,488.806L600,503.597L614.791,503.597L614.791,488.806ZM658.073,488.806L643.282,488.806L643.282,503.597L658.073,503.597L658.073,488.806ZM636.395,488.806L621.605,488.806L621.605,503.597L636.395,503.597L636.395,488.806ZM679.678,488.806L664.887,488.806L664.887,503.597L679.678,503.597L679.678,488.806ZM614.791,467.201L600,467.201L600,481.992L614.791,481.992L614.791,467.201ZM658.073,467.201L643.282,467.201L643.282,481.992L658.073,481.992L658.073,467.201ZM636.395,467.201L621.605,467.201L621.605,481.992L636.395,481.992L636.395,467.201ZM679.678,467.201L664.887,467.201L664.887,481.992L679.678,481.992L679.678,467.201ZM679.581,401.583C679.581,397.95 676.631,395 672.997,395L607.003,395C603.369,395 600.419,397.95 600.419,401.583L600.419,455.979C600.419,459.612 603.369,462.562 607.003,462.562L672.997,462.562C676.631,462.562 679.581,459.612 679.581,455.979L679.581,401.583ZM607.921,429.489C608.102,429.38 609.624,428.426 612,425.897C617.312,420.241 626.867,410 640,410C659.978,410 672.097,429.5 672.097,429.5L672.061,429.556C671.333,430.698 659.355,449 640,449C626.867,449 617.312,438.759 612,433.103C609.466,430.405 607.903,429.5 607.903,429.5L607.921,429.489ZM640,415.75C646.365,415.75 651.532,421.911 651.532,429.5C651.532,437.089 646.365,443.25 640,443.25C633.635,443.25 628.468,437.089 628.468,429.5C628.468,421.911 633.635,415.75 640,415.75ZM640,417.081C645.749,417.081 650.416,422.646 650.416,429.5C650.416,436.354 645.749,441.919 640,441.919C634.251,441.919 629.584,436.354 629.584,429.5C629.584,422.646 634.251,417.081 640,417.081ZM640,418.283C645.193,418.283 649.408,423.309 649.408,429.5C649.408,435.691 645.193,440.717 640,440.717C634.807,440.717 630.592,435.691 630.592,429.5C630.592,423.309 634.807,418.283 640,418.283ZM640.372,425.952C642.015,425.952 643.348,427.542 643.348,429.5C643.348,431.458 642.015,433.048 640.372,433.048C638.729,433.048 637.396,431.458 637.396,429.5C637.396,427.542 638.729,425.952 640.372,425.952Z" style="fill:white;"/>
    </g>
</svg>
