<?xml version="1.0" encoding="UTF-8" standalone="no"?>
<!DOCTYPE svg PUBLIC "-//W3C//DTD SVG 1.1//EN" "http://www.w3.org/Graphics/SVG/1.1/DTD/svg11.dtd">
<svg width="100%" height="100%" viewBox="0 0 1000 1000" version="1.1" xmlns="http://www.w3.org/2000/svg" xmlns:xlink="http://www.w3.org/1999/xlink" xml:space="preserve" xmlns:serif="http://www.serif.com/" style="fill-rule:evenodd;clip-rule:evenodd;stroke-linejoin:round;stroke-miterlimit:2;">
    <g transform="matrix(1.70579,0,0,1.70579,-11.7366,-75.185)">
        <path d="M300,600C276.478,604.079 185.417,597.281 115.248,550.289C70.499,520.32 59.083,438.151 107,360C107.469,302.773 116.043,246.789 154.837,195.434C159.074,201.094 164.128,205.95 170,210C188.497,202.617 207.076,196.35 225.938,193.946C230.723,187.057 234.741,179.87 237,172C236.451,169.207 232.752,158.45 230,156.299C253.55,150.887 286.062,148 300,148L300.667,148.002C314.95,148.091 346.817,150.971 370,156.299C367.248,158.45 363.549,169.207 363,172C365.259,179.87 369.277,187.057 374.062,193.946C392.924,196.35 411.503,202.617 430,210C435.872,205.95 440.926,201.094 445.163,195.434C483.957,246.789 492.531,302.773 493,360C540.917,438.151 529.501,520.32 484.752,550.289C414.856,597.098 324.232,604.025 300.279,600.047L300,600ZM377.651,464.428C395.68,471.037 412.768,468.993 427.196,462.442C447.592,453.181 461.626,443.052 465.928,420C472.348,385.6 469.1,325.942 430.098,305.98C400.216,290.685 354.154,305.075 332.95,340C315.445,368.831 309.464,414.43 335.201,434.075L377.651,464.428ZM222.349,464.428C204.32,471.037 187.232,468.993 172.804,462.442C152.408,453.181 138.374,443.052 134.072,420C127.652,385.6 130.9,325.942 169.902,305.98C199.784,290.685 245.846,305.075 267.05,340C284.555,368.831 290.536,414.43 264.799,434.075L222.349,464.428ZM388,389C394.335,398.432 388.059,403.657 385.714,405C383.015,406.546 375.003,407.481 373,398L343,417C341.469,418.531 340.978,419.226 343,420C378.243,421.297 411.405,404.55 429,392.603C446.059,381.02 453.734,367.143 455,352C432.715,364.183 405.194,376.358 388,389ZM212,389C205.665,398.432 211.941,403.657 214.286,405C216.985,406.546 224.997,407.481 227,398L257,417C258.531,418.531 259.022,419.226 257,420C221.757,421.297 188.595,404.55 171,392.603C153.941,381.02 146.266,367.143 145,352C167.285,364.183 194.806,376.358 212,389ZM426.962,202.561C413.041,193.058 394.813,187.697 377,186C373.738,181.58 371.038,177.242 369,173C393.646,84.448 456.924,67.061 470,75.169C480.176,81.479 495.677,147.971 426.962,202.561ZM173.038,202.561C186.959,193.058 205.187,187.697 223,186C226.262,181.58 228.962,177.242 231,173C206.354,84.448 143.076,67.061 130,75.169C119.824,81.479 104.323,147.971 173.038,202.561ZM299.293,469.985C284.554,469.696 275.993,471.42 273.135,475C268.644,480.623 276.8,500.112 300,505L300.271,504.942C323.264,499.96 331.338,480.601 326.865,475C323.961,471.363 315.174,469.642 300,470L299.293,469.985Z" style="fill:white;"/>
    </g>
</svg>
