<?xml version="1.0" encoding="UTF-8" standalone="no"?>
<!DOCTYPE svg PUBLIC "-//W3C//DTD SVG 1.1//EN" "http://www.w3.org/Graphics/SVG/1.1/DTD/svg11.dtd">
<svg width="100%" height="100%" viewBox="0 0 1000 1000" version="1.1" xmlns="http://www.w3.org/2000/svg" xmlns:xlink="http://www.w3.org/1999/xlink" xml:space="preserve" xmlns:serif="http://www.serif.com/" style="fill-rule:evenodd;clip-rule:evenodd;stroke-linejoin:round;stroke-miterlimit:2;">
    <g transform="matrix(2.43749,0,0,3.1178,-919.511,-749.788)">
        <path d="M546.28,500C554.702,469.169 591.01,442.341 592.205,446.507C603.426,448.256 612.239,445.54 619.291,439.559C631.612,433.132 659.338,434.298 675.75,444.7C683.81,449.808 691.83,453.587 697.476,459.087C716.199,477.326 730.327,494.523 734.939,527.204C743.344,484.119 732.17,449.944 684.816,432.233C688.722,418.738 692.958,404.18 700.882,391.245C708.922,378.122 715.803,364.653 724.691,353.746C745.864,327.763 760.811,306.329 765.672,292.594C768.033,285.923 766.857,279.6 764.875,274.696C738.047,272.527 708.19,289.341 685.05,316.594C682.67,319.396 680.332,322.476 678.625,326.079C667.065,350.487 662.776,388.296 660.421,426.386C641.713,423.018 626.143,424.229 613.38,429.536C600.829,394.793 567.476,348.128 548.579,335.91C535.834,327.669 511.55,349.015 500,356.227C498.018,357.464 496.082,358.693 494.191,359.91C479.659,369.268 468.098,378.512 457.501,385.049C415.194,411.149 395.058,422.995 398.038,432.615C421.826,443.392 440.993,445.629 458.788,445.329C478.07,441.572 500.709,415.216 529.214,384.225C557.63,403.21 576.592,420.381 593.714,437.2C565.047,455.033 548.995,475.908 546.28,500Z" style="fill:white;"/>
    </g>
</svg>
