<?xml version="1.0" encoding="UTF-8" standalone="no"?>
<!DOCTYPE svg PUBLIC "-//W3C//DTD SVG 1.1//EN" "http://www.w3.org/Graphics/SVG/1.1/DTD/svg11.dtd">
<svg width="100%" height="100%" viewBox="0 0 1000 1000" version="1.1" xmlns="http://www.w3.org/2000/svg" xmlns:xlink="http://www.w3.org/1999/xlink" xml:space="preserve" xmlns:serif="http://www.serif.com/" style="fill-rule:evenodd;clip-rule:evenodd;stroke-linejoin:round;stroke-miterlimit:2;">
    <g transform="matrix(2.75651,0,0,2.75651,-606.049,-830.015)">
        <path d="M338.288,406.667C340.91,406.472 348.778,402.414 352.978,395.5C357.238,388.487 362.688,383.208 364,382C367.936,378.379 333.306,390.924 327.379,394.18C328.494,392.095 329.785,390.026 331.5,388C327.174,388.207 324.677,391.117 322.5,394.5L320,394.5C320.234,391.473 321.505,388.468 324.5,385.5C321.762,386.543 319.068,387.763 316.5,389.5C316.604,383.739 315.565,377.885 308,371.5C309.555,377.333 310.628,383.167 311,389C309.172,388.273 307.5,387.336 306.5,385.5C307.424,378.955 307.183,372.223 307,365.5C302.894,369.016 299.548,373.975 296.5,379.5C291.049,370.394 291.282,362.299 296,355C289.688,359.041 285.467,365.158 285,375C275.439,376.24 268.485,371.99 261.5,372.95C255.479,373.777 250.388,376.167 247,381C255.702,384.616 263.623,378.675 270,380.376C276.074,381.995 281.027,385.273 285,390C275.095,386.36 266.266,385.273 258.5,386.71C250.56,388.179 245.067,394.625 238,399C243.426,402.275 260.441,396.853 268,397.083C276.602,397.344 282.149,398.692 285,401C296.549,409.756 309.419,419.271 317,426.4C325.613,434.499 330.416,440.947 332,446C335.831,462.623 330.305,459.277 322,450C319.123,458.326 322.966,467.002 333,476C329.962,476.165 326.966,475.044 324,473C326.237,476.74 329.149,480.415 333,484C331.139,484.742 327.653,483.562 323,481C326.067,486.786 330.793,492.485 339,498C340.453,502.162 336.822,506.65 333.665,510C325.634,518.525 319.299,528.49 319,540C315.01,545.449 306.918,541.502 299,540.866C291.966,540.3 288.553,535.058 278,530C280.559,534.779 285.739,540.046 300,547C285.237,545.359 272.915,540.703 263,535C274.039,548.408 284.866,557.913 304,554C301.947,554.966 299.464,557.423 296,556.836C293.201,556.361 289.992,558.301 286,559C293.879,560.364 293.476,563.354 297,564.189C301.97,565.367 306.648,564.711 311,562L289,587L314,570C306.319,576.475 298.438,582.922 295,590C297.97,587.764 300.948,585.675 304,585C301.918,588.85 301.305,592.266 303,595C305.786,593.599 306.462,591.862 310,590.849C312.692,590.078 313.918,587.593 315,586C316.496,588.969 318.705,592.562 316.908,595C311.523,602.309 310.946,606.763 313,610C313.721,602.885 318.043,599.349 327,599.86C330.976,600.086 334.986,601.18 338,604C337.62,600.991 338.111,597.76 325,598C327.685,595.308 331.333,593.855 337,595C334.793,591.39 330.954,590.762 325,594C325.065,588.19 327.431,585.552 334,588C333.037,585.956 332.278,583.773 328,584C328.216,580.81 328.124,576.465 328,572C328.96,574.934 329.762,578.422 332.46,580C336.671,582.463 338.177,585.66 342,588C341.531,581.589 339.74,574.528 337,567C340.707,569.952 344.374,574.632 348,581C343.794,586.127 343.492,592.44 344,599C346.356,591.277 352.537,584.61 355,586.893C355.95,587.773 356.646,589.99 357,594C359.461,588.169 362.222,590.839 365,594L362.5,588.5C364.004,585.734 365.503,587.137 367,591L369.5,587.5L376.5,590.5C376.083,586.829 371.213,586.47 372.858,585C374.711,583.345 379.164,581.03 384,583.5C383.63,580.197 382.134,578.408 378.5,579.5C377.541,577.363 375.948,576.935 374,577.462C371.543,578.127 372.872,580.393 365.5,582.5C364.844,581.51 364.901,580.656 366,580C366.85,576.184 364.876,575.61 362.5,575.5C361.526,573.312 362.046,571.607 360.478,569C358.35,565.462 360.004,560.942 361,557C363.249,555.363 364.382,552.321 364.5,548C366.24,544.629 369.096,542.176 375.929,543C382.694,545.923 386.288,542.989 388.5,537.5C391.318,542.811 390.017,548.148 386,553.5C390.254,550.847 393.144,550.195 395,551.06C398.254,552.576 399.939,560.487 397,567C403.519,565.622 407.074,558.775 408.5,548C414.651,542.558 416.961,532.751 418,521.5C422.309,519.892 426.477,518.029 430,515C443.668,511.574 458.699,510.802 475,512.5C482.624,512.581 486.063,511.075 488,509C491.814,506.238 502.655,507.11 514.5,508.5C540.589,511.092 549.458,524.474 556.5,539C556.775,528.232 557.904,517.424 540,507.5C543.863,506.531 549.927,505.958 552.572,511C557.194,519.809 560.753,521.548 564.5,524.5C562.201,513.253 555.249,504.79 545.5,498C550.44,493.045 551.68,487.614 551.5,482C550.804,485.581 549.952,489.653 547,490.301C544.153,490.927 541.537,493.314 537.5,493.5C538.638,489.587 539.807,485.759 541,482C537.353,485.533 533.606,489.048 529.5,492.5C527.136,491.624 526.739,490.092 537,485C531.462,483.201 527.298,486.341 523,489C522.853,486.841 522.334,484.85 521.5,483C520.898,484.064 520.131,485.082 519,486C519.101,484.206 518.682,482.764 518,481.5C516.873,482.332 515.697,482.962 514.5,483.5C511.557,474.288 508.129,465.33 503.5,457C502.997,461.07 502.728,465.067 502.668,469C502.588,474.277 502.886,479.438 503.5,484.5C500.565,479.449 499.338,474.161 496.41,469C493.86,464.506 493.614,459.105 493,454C490.804,460.142 488.078,465.75 484,470C480.243,460.398 476.698,451.154 473.5,442.5C467.532,453.342 468.482,463.962 472,474.5C468.356,470.206 464.693,466.3 461,463C461.939,465.76 463.641,468.851 462.76,472C462.079,474.435 462.83,476.835 462.5,479.5C459.681,476.742 456.242,474.522 452,473C451.864,474.298 451.58,475.622 451,477C446.686,475.844 443.225,474.014 440,472C439.914,475.066 440.899,478.208 444,481.5C440.237,480.382 436.43,479.652 432.5,480C433.989,480.979 435.289,482.067 436,483.5C432.575,482.404 428.952,481.933 425,482.5C426.362,483.535 427.295,484.541 427.5,485.5C420.348,484.708 414.547,484.94 410.5,486.5C411.754,487.333 412.494,488.167 413,489C407.923,488.672 403.371,488.794 399.5,489.5L399.5,491.5C397.622,490.925 391.968,491.143 391,492C393.415,492.179 394.8,492.893 393.5,495C388.936,495.58 386.181,494.487 386.014,492C385.421,483.161 385.538,470.971 390.44,466C395.826,460.538 400.477,457.794 401.5,457.5C397.202,456.03 392.732,455.104 388,455C392.105,453.815 397.373,453.278 404,453.5C397.457,447.717 390.205,442.639 378.5,442C385.991,438.663 392.455,434.639 398,430C390.646,429.765 383.204,429.371 375.5,428.5C389.623,424.294 398.919,415.089 403.5,401C390.585,403.584 378.241,408.802 366,414.5C371.032,406.642 374.995,398.542 377,390C359.156,400.792 344.98,407.696 338.288,406.667ZM360.5,584.5L360,586L358.5,586L359,584L360.5,584.5ZM361,580L361,582L356.5,582C357.821,580.886 359.118,579.713 361,580ZM360,577C357.117,571.069 354.809,565.201 354,559.5C351.861,557.664 350.764,555.616 350,553.5C347.021,554.634 344.47,556.498 342,558.5L345,569C347.795,572.83 350.077,576.637 351,580.5C354,578.162 357,576.775 360,577ZM394.5,530C394.223,530.211 397.298,537.098 399.5,538C400.056,538.228 400.894,537.592 401,537C401.343,535.081 395.132,529.894 394.5,530ZM338.288,406.667C338.012,406.625 337.75,406.569 337.5,406.5C337.63,406.641 337.903,406.696 338.288,406.667Z" style="fill:white;"/>
    </g>
</svg>
