<?xml version="1.0" encoding="UTF-8" standalone="no"?>
<!DOCTYPE svg PUBLIC "-//W3C//DTD SVG 1.1//EN" "http://www.w3.org/Graphics/SVG/1.1/DTD/svg11.dtd">
<svg width="100%" height="100%" viewBox="0 0 1000 1000" version="1.1" xmlns="http://www.w3.org/2000/svg" xmlns:xlink="http://www.w3.org/1999/xlink" xml:space="preserve" xmlns:serif="http://www.serif.com/" style="fill-rule:evenodd;clip-rule:evenodd;stroke-linejoin:round;stroke-miterlimit:2;">
    <g transform="matrix(7.55686,0,0,7.55686,-3364.97,-1076.45)">
        <path d="M511.5,167.342C514.961,176.22 517.733,185.472 520,195C519.688,200 518.696,205 517.347,210C521.565,214.523 528,223.014 528,226C528,230.182 518.135,243.012 511.5,249.899L511.451,249.949L511.403,249.899C504.768,243.012 494.903,230.182 494.903,226C494.903,223.014 501.338,214.523 505.556,210C504.207,205 503.215,200 502.903,195C505.17,185.472 507.942,176.22 511.403,167.342L511.458,167.224L511.5,167.342ZM532,250C539.026,243.612 549.096,239.411 553,230.758C556.996,221.902 563.396,216.966 571,214C567.797,220.193 562.097,224.085 561,232.02C560.087,238.627 545.323,245.403 532,250ZM490.903,250C483.877,243.612 473.807,239.411 469.903,230.758C465.907,221.902 459.506,216.966 451.903,214C455.106,220.193 460.806,224.085 461.903,232.02C462.816,238.627 477.58,245.403 490.903,250ZM532.882,203.335C531.391,206.662 531.05,209.355 531,213C532.508,218.709 536.771,219.099 537,225C537.264,231.799 530.543,240.143 526,247C534.587,239.431 547,228.122 547,224C547,219.878 538.523,203.335 532.882,203.335ZM490.021,203.335C491.512,206.662 491.853,209.355 491.903,213C490.394,218.709 486.132,219.099 485.903,225C485.639,231.799 492.36,240.143 496.903,247C488.316,239.431 475.903,228.122 475.903,224C475.903,219.878 484.38,203.335 490.021,203.335Z" style="fill:white;"/>
    </g>
</svg>
