<?xml version="1.0" encoding="UTF-8" standalone="no"?>
<!DOCTYPE svg PUBLIC "-//W3C//DTD SVG 1.1//EN" "http://www.w3.org/Graphics/SVG/1.1/DTD/svg11.dtd">
<svg width="100%" height="100%" viewBox="0 0 1000 1000" version="1.1" xmlns="http://www.w3.org/2000/svg" xmlns:xlink="http://www.w3.org/1999/xlink" xml:space="preserve" xmlns:serif="http://www.serif.com/" style="fill-rule:evenodd;clip-rule:evenodd;stroke-linejoin:round;stroke-miterlimit:2;">
    <path d="M697.775,486.35C702.264,489.548 706.169,493.322 709.542,496.199C711.41,497.791 741.461,494.362 750.971,491.798C755.043,490.699 756.451,483.557 763.45,480.114C766.106,478.808 770.563,471.227 767.542,471.829C762.424,472.847 743.426,491.633 732.742,485.086C727.271,481.733 713.503,480.059 702.978,479.943L691.498,473.486L697.942,473.486C727.339,473.851 733.937,468.684 741.028,456.914C743.516,454.638 748.052,454.19 754.285,455.257C751.969,443.657 747.583,432.057 741.028,420.457C749.959,417.258 759.263,420.693 769.199,435.371C780.314,415.661 780.891,394.221 779.142,372.4C788.494,390.025 796.551,420.592 790.764,425.429C784.371,430.773 780.953,437.855 782.457,446.971C789.425,439.647 799.609,431.319 812.222,427.086C829.551,421.27 856,410.956 870.285,404.958C878.714,401.419 900.611,404.462 905.085,412.172C891.023,416.973 879.179,416.944 868.628,417.687C837.531,419.877 824.889,439.051 817.257,451.943C825.758,452.681 830.429,456.069 833.931,461.886C837.359,467.579 845.989,468.652 847.085,476.8C836.505,479.771 827.2,478.36 818.914,471.468C808.127,462.498 803.388,468.666 800.685,473.486C818.154,488.441 884.228,484.574 918.342,482.299C922.427,482.027 924.09,485.006 923.314,486.743C942.815,480.26 950,489.001 950,500L949.999,500.257C949.887,511.134 942.663,519.689 923.314,513.257C924.09,514.994 922.427,517.973 918.342,517.701C884.228,515.426 818.154,511.559 800.685,526.514C803.388,531.334 808.127,537.502 818.914,528.532C827.2,521.64 836.505,520.229 847.085,523.2C845.989,531.348 837.359,532.421 833.931,538.114C830.429,543.931 825.758,547.319 817.257,548.057C824.889,560.949 837.531,580.123 868.628,582.313C879.179,583.056 891.023,583.027 905.085,587.828C900.611,595.538 878.714,598.581 870.285,595.042C856,589.044 829.551,578.73 812.222,572.914C799.609,568.681 789.425,560.353 782.457,553.029C780.953,562.145 784.371,569.227 790.764,574.571C796.551,579.408 788.494,609.975 779.142,627.6C780.891,605.779 780.314,584.339 769.199,564.629C759.263,579.307 749.959,582.742 741.028,579.543C747.583,567.943 751.969,556.343 754.285,544.743C748.052,545.81 743.516,545.362 741.028,543.086C733.937,531.316 727.339,526.149 697.942,526.514L691.498,526.514L702.978,520.057C713.503,519.941 727.271,518.267 732.742,514.914C743.426,508.367 762.424,527.153 767.542,528.171C770.563,528.773 766.106,521.192 763.45,519.886C756.451,516.443 755.043,509.301 750.971,508.202C741.461,505.638 711.41,502.209 709.542,503.801C706.169,506.678 702.264,510.452 697.775,513.65C690.3,510.66 681.208,506.612 676,500C678.83,506.581 682.864,512.81 689.657,518.229L684.133,526.514L136.171,526.514C133.081,528.419 130.125,530.413 128.282,533.143C97.652,528.117 72.409,515.94 50,500L51.053,499.256C73.198,483.682 98.13,471.804 128.282,466.857C130.125,469.587 133.081,471.581 136.171,473.486L684.133,473.486L689.657,481.771C682.864,487.19 678.83,493.419 676,500C681.208,493.388 690.3,489.34 697.775,486.35ZM884.137,594.252L877.742,585.343C885.244,585.769 892.706,587.03 900.114,589.486C894.412,591.987 889.194,593.316 884.137,594.252ZM810.628,566.286C807.009,566.664 803.884,566.028 801.155,564.579C798.426,563.131 796.093,560.871 794.057,558C806.567,549.538 814.086,549.093 810.628,566.286ZM762.571,564.629C762.11,562.245 762.176,559.933 762.947,557.716C763.717,555.498 765.19,553.376 767.542,551.371C770.238,556.275 768.153,560.647 762.571,564.629ZM787.428,531.486C790.842,532.441 794.223,533.078 797.371,531.486C801.556,534.349 806.561,539.809 810.628,537.585C818.199,533.444 833.078,521.577 842.114,526.514C835.431,530.098 830.418,535.086 825.542,540.697C823.17,543.427 819.255,544.623 815.599,546.4C816.643,543.638 816.677,540.876 815.599,538.114C800.27,545.282 790.786,543.221 787.428,531.486ZM755.348,500.584C758.467,507 767.782,524.976 774.171,524.857C779.063,524.766 797.625,503.981 800.685,504.971L807.314,508.286L818.361,500L807.314,491.714L800.685,495.029C797.625,496.019 779.063,475.234 774.171,475.143C767.576,475.02 757.864,494.176 755.065,500L755.348,500.584ZM108.83,500.225C108.95,509.724 116.7,517.4 126.229,517.4C135.832,517.4 143.628,509.603 143.628,500L143.627,499.775C143.507,490.276 135.757,482.6 126.229,482.6C116.625,482.6 108.829,490.397 108.829,500L108.83,500.225ZM759.409,499.725C760.311,493.949 765.096,488.4 770.857,488.4C776.708,488.4 781.554,494.127 782.344,500L782.304,500.275C781.402,506.051 776.617,511.6 770.857,511.6C765.005,511.6 760.159,505.873 759.369,500L759.409,499.725ZM705.397,499.808C705.295,495.781 701.994,492.543 697.942,492.543C693.827,492.543 690.485,495.884 690.485,500L690.488,500.192C690.59,504.219 693.891,507.457 697.942,507.457C702.058,507.457 705.399,504.116 705.399,500L705.397,499.808ZM787.428,468.514C790.842,467.559 794.223,466.922 797.371,468.514C801.556,465.651 806.561,460.191 810.628,462.415C818.199,466.556 833.078,478.423 842.114,473.486C835.431,469.902 830.418,464.914 825.542,459.303C823.17,456.573 819.255,455.377 815.599,453.6C816.643,456.362 816.677,459.124 815.599,461.886C800.27,454.718 790.786,456.779 787.428,468.514ZM762.571,435.371C762.11,437.755 762.176,440.067 762.947,442.284C763.717,444.502 765.19,446.624 767.542,448.629C770.238,443.725 768.153,439.353 762.571,435.371ZM810.628,433.714C807.009,433.336 803.884,433.972 801.155,435.421C798.426,436.869 796.093,439.129 794.057,442C806.567,450.462 814.086,450.907 810.628,433.714ZM884.137,405.748L877.742,414.657C885.244,414.231 892.706,412.97 900.114,410.514C894.412,408.013 889.194,406.684 884.137,405.748Z" style="fill:white;"/>
</svg>
