<?xml version="1.0" encoding="UTF-8" standalone="no"?>
<!DOCTYPE svg PUBLIC "-//W3C//DTD SVG 1.1//EN" "http://www.w3.org/Graphics/SVG/1.1/DTD/svg11.dtd">
<svg width="100%" height="100%" viewBox="0 0 1000 1000" version="1.1" xmlns="http://www.w3.org/2000/svg" xmlns:xlink="http://www.w3.org/1999/xlink" xml:space="preserve" xmlns:serif="http://www.serif.com/" style="fill-rule:evenodd;clip-rule:evenodd;stroke-linejoin:round;stroke-miterlimit:2;">
    <g transform="matrix(5.42368,0,0,5.42368,-3442.76,-2233.3)">
        <path d="M764.128,534.526C764.227,534.469 764.324,534.413 764.419,534.358C768.927,531.725 769.513,521.48 771.11,520.195C772.707,518.911 774.101,524.294 774.001,526.649C773.932,528.256 773.713,530.793 772.885,532.887C774.998,533.662 777.038,535.188 778.283,536.207C780.107,537.7 783.195,542.323 781.174,542.66C779.152,542.996 771.117,536.613 766.151,538.225C766.047,538.258 765.94,538.293 765.832,538.33C765.517,538.483 765.194,538.64 764.863,538.8L764.863,538.802L764.839,538.812C756.146,543.011 741.77,549.451 727.893,555.562C714.095,561.849 699.718,568.29 690.798,571.981L690.774,571.992L690.773,571.991C690.433,572.132 690.101,572.268 689.778,572.401C689.678,572.458 689.581,572.514 689.486,572.569C684.978,575.202 684.392,585.447 682.795,586.731C681.198,588.016 679.804,582.633 679.904,580.278C679.973,578.671 680.192,576.134 681.02,574.04C678.907,573.265 676.867,571.739 675.623,570.72C673.799,569.227 670.71,564.603 672.732,564.267C674.754,563.931 682.788,570.314 687.754,568.702C687.858,568.668 687.965,568.633 688.074,568.597C688.388,568.444 688.711,568.287 689.042,568.127L689.042,568.125L689.066,568.115C697.759,563.916 712.135,557.476 726.012,551.365C739.811,545.078 754.187,538.637 763.107,534.946L763.131,534.935L763.132,534.936C763.472,534.795 763.804,534.659 764.128,534.526ZM744.654,558.81L741.085,562.378C749.593,566.191 757.448,569.639 763.107,571.981L763.131,571.992L763.132,571.991C763.472,572.132 763.804,572.268 764.128,572.401C764.227,572.458 764.324,572.514 764.419,572.569C768.927,575.202 769.513,585.447 771.11,586.731C772.707,588.016 774.101,582.633 774.001,580.278C773.932,578.671 773.713,576.134 772.885,574.04C774.998,573.265 777.038,571.739 778.283,570.72C780.107,569.227 783.195,564.603 781.174,564.267C779.152,563.931 771.117,570.314 766.151,568.702C766.047,568.668 765.94,568.633 765.832,568.597C765.517,568.444 765.194,568.287 764.863,568.127L764.863,568.125L764.839,568.115C759.681,565.623 752.521,562.342 744.654,558.81ZM706.725,546.98L710.289,543.417C702.762,540.057 695.891,537.053 690.798,534.946L690.774,534.935L690.773,534.936C690.433,534.795 690.101,534.659 689.778,534.526C689.678,534.469 689.581,534.413 689.486,534.358C684.978,531.725 684.392,521.48 682.795,520.195C681.198,518.911 679.804,524.294 679.904,526.649C679.973,528.256 680.192,530.793 681.02,532.887C678.907,533.662 676.867,535.188 675.623,536.207C673.799,537.7 670.71,542.323 672.732,542.66C674.754,542.996 682.788,536.613 687.754,538.225C687.858,538.258 687.965,538.293 688.074,538.33C688.388,538.483 688.711,538.64 689.042,538.8L689.042,538.802L689.066,538.812C693.666,541.034 699.858,543.884 706.725,546.98ZM726.891,523.171C721.663,524.26 717.533,532.238 717.361,533.611C717.161,535.197 713.23,534.894 712.611,533.423C711.688,531.23 713.82,526.489 711.826,524.11C707.429,518.866 693.968,508.294 688.947,501.957C685.673,497.826 685.856,485.794 688.947,481.521C694.41,473.968 710.861,462.613 717.196,458.466C719.924,456.68 726.953,456.639 726.953,456.639L727.032,456.64C727.814,456.651 734.152,456.792 736.71,458.466C743.044,462.613 759.495,473.968 764.959,481.521C768.049,485.794 768.232,497.826 764.959,501.957C759.937,508.294 746.476,518.866 742.079,524.11C740.085,526.489 742.217,531.23 741.295,533.423C740.676,534.894 736.744,535.197 736.545,533.611C736.371,532.233 732.21,524.197 726.953,523.159L726.891,523.171ZM736.012,506.9C736.892,511.382 745.407,508.626 749.601,506.9C754.814,504.754 748.637,477.543 745.071,474.915C742.489,473.013 734.721,500.327 736.012,506.9ZM716.987,506.9C716.107,511.382 707.592,508.626 703.399,506.9C698.185,504.754 704.363,477.543 707.928,474.915C710.51,473.013 718.279,500.327 716.987,506.9ZM754.357,467.453C748.493,460.864 738.592,453.191 726.953,453.191C715.244,453.192 707.023,458.883 699.548,467.453C694.53,463.215 689.508,461.988 685.666,457.552L699.907,453.897L684.332,455.96C680.854,451.666 677.851,448.63 675.377,443.135L685.455,440.981L674.449,440.981C672.634,436.586 671.142,432.713 670,427.511L704.356,427.511C712.339,447.969 742.162,446.614 749.549,427.511L783.905,427.511C782.763,432.713 781.271,436.586 779.456,440.981L768.45,440.981L778.528,443.135C776.055,448.63 773.052,451.666 769.573,455.96L753.999,453.897L768.239,457.552C764.397,461.988 759.375,463.215 754.357,467.453ZM705.464,423.944C715.359,420.046 738.547,419.959 748.441,423.944L745.942,428.31C737.337,424.02 716.569,424.167 707.963,428.31L705.464,423.944Z" style="fill:white;"/>
    </g>
</svg>
