<?xml version="1.0" encoding="UTF-8" standalone="no"?>
<!DOCTYPE svg PUBLIC "-//W3C//DTD SVG 1.1//EN" "http://www.w3.org/Graphics/SVG/1.1/DTD/svg11.dtd">
<svg width="100%" height="100%" viewBox="0 0 1000 1000" version="1.1" xmlns="http://www.w3.org/2000/svg" xmlns:xlink="http://www.w3.org/1999/xlink" xml:space="preserve" xmlns:serif="http://www.serif.com/" style="fill-rule:evenodd;clip-rule:evenodd;stroke-linejoin:round;stroke-miterlimit:2;">
    <g transform="matrix(1.1175,0,0,1.1175,-50.9662,-61.8657)">
        <path d="M635.959,573.073L342.714,443.024L241.601,669.404C223.2,723.261 221.557,771.37 241.474,817.831C253.088,844.924 272.675,869.717 305.977,887.557C359.401,916.175 418.683,909.341 467.333,875.365C492.528,857.77 514.631,830.338 536.735,796.867L635.959,573.073ZM350.109,432.502L643.354,562.552L744.467,336.172C762.868,282.314 764.511,234.205 744.595,187.744C732.981,160.652 713.394,135.859 680.091,118.019C626.668,89.401 567.386,96.235 518.736,130.21C493.541,147.806 471.438,175.238 449.333,208.708L350.109,432.502ZM541.137,300.005C541.263,280.407 534.158,268.688 521.198,262.911C505.295,255.823 489.864,255.8 476.401,268.009L423.485,384.149C416.838,405.867 426.715,421.19 440.897,427.384C459.804,435.64 478.539,432.035 491.831,413.812L541.137,300.005ZM552.52,163.215C576.841,168.087 592.799,190.952 588.133,214.243C583.467,237.534 559.934,252.487 535.613,247.615C511.292,242.743 495.334,219.878 500,196.588C504.666,173.297 528.199,158.343 552.52,163.215Z" style="fill:white;"/>
    </g>
</svg>
