<?xml version="1.0" encoding="UTF-8" standalone="no"?>
<!DOCTYPE svg PUBLIC "-//W3C//DTD SVG 1.1//EN" "http://www.w3.org/Graphics/SVG/1.1/DTD/svg11.dtd">
<svg width="100%" height="100%" viewBox="0 0 1000 1000" version="1.1" xmlns="http://www.w3.org/2000/svg" xmlns:xlink="http://www.w3.org/1999/xlink" xml:space="preserve" xmlns:serif="http://www.serif.com/" style="fill-rule:evenodd;clip-rule:evenodd;stroke-linejoin:round;stroke-miterlimit:2;">
    <g transform="matrix(9.57046,0,0,9.57046,-4161,-4048.51)">
        <path d="M468.75,517.5C469.334,518.024 470.337,519.161 471.5,519.75C472.608,520.311 470.238,522.298 468.75,522C467.652,521.78 466.269,520.851 466,519.75C465.705,518.544 467.62,516.487 468.75,517.5ZM483,504C482.87,505.809 481.282,509.766 479,512.5C480.742,516.33 480.072,518.474 476,516.5C468.577,516.022 468.692,510.487 470,507C472.529,502.781 475.006,504.215 477.5,508.5C480.944,503.115 484.57,497.332 485.252,497.736C487.778,499.233 488.618,502.455 483,504ZM468.523,509.179C463.423,506.519 458.926,502.861 455.291,498.465C457.921,497.569 459.984,495.985 459,493.186L459,493.186C466.155,487.443 478.624,476.264 480.19,467C482.453,453.617 497.328,437.473 505.068,434.127C499.941,431.798 494.246,430.5 488.25,430.5C475.498,430.5 464.106,436.37 456.63,445.555C456.211,445.091 455.647,444.709 454.991,444.402C462.828,434.706 474.82,428.5 488.25,428.5C500.845,428.5 512.176,433.959 520.003,442.638C519.069,444.691 518.989,447.122 520,449C521.999,451.606 523.73,451.598 525.29,449.903C527.852,454.336 529.642,459.273 530.473,464.527C529.829,464.527 529.16,464.607 528.484,464.752C527.943,461.382 526.988,458.149 525.672,455.107C514.324,461.158 507.607,474.466 507,479.118C505.501,490.613 493.925,502.907 482.076,511.534C484.09,511.841 486.152,512 488.25,512C507.99,512 524.47,497.934 528.207,479.284C528.965,479.422 529.648,479.454 530.236,479.329C526.453,499.068 509.081,514 488.25,514C485.543,514 482.894,513.748 480.327,513.266C480.231,513.023 480.122,512.768 480,512.5C482.725,509.235 483.845,506.66 484,504.5C490.71,502.655 488.517,498.561 485.5,496.773C484.685,496.291 481.613,500.569 477.5,507C474.521,501.882 471.521,501.962 468.5,507C468.471,507.741 468.465,508.473 468.523,509.179ZM450,504C450.552,504 451,504.448 451,505C451,505.552 450.052,506.5 449.5,506.5C448.948,506.5 449,505.552 449,505C449,504.448 449.448,504 450,504ZM450.347,498.654C453.492,498.359 459.151,497.294 457.793,493.43C457.652,490.686 455.905,489.336 452.829,489.14C449.809,490.843 449.588,494.052 448.278,496.172C447.125,498.038 444.118,501.811 444.969,501.86C445.593,501.896 448.269,498.85 450.347,498.654ZM450.191,490.726C447.192,484.882 445.5,478.262 445.5,471.25C445.5,463.926 447.346,457.03 450.597,451.002C451.178,451.173 451.863,451.307 452.659,451.402C449.373,457.277 447.5,464.046 447.5,471.25C447.5,477.622 448.966,483.655 451.579,489.03C451.017,489.548 450.568,490.122 450.191,490.726ZM521.831,475.313C521.835,470.65 522.996,468.234 525.082,467.196C528.558,465.465 532.991,465.063 533.792,469.805C534.077,471.49 534.963,474.653 530.008,477.748C528.773,478.52 526.695,477.812 524.266,476.937C522.193,478.179 520.788,478.769 520.522,478.247C520.334,477.878 520.715,476.954 521.831,475.313ZM493.1,450.901C492.57,450.22 490.8,448.03 491.5,447.5C492.421,446.802 492.167,445.422 492.5,445C493.013,444.35 495,446.732 495,448.25C495,448.963 494.852,449.612 494.609,450.101C494.89,450.035 495.198,450.071 495.5,450C497.289,449.58 499.954,451.113 498.5,452.25C497.061,453.376 496.315,454.444 495.5,454.5C494.538,454.566 493.473,453.385 492.5,452.25C492.171,451.866 492.723,451.277 493.1,450.901ZM493.5,450.745C493.07,450.191 491.4,448.553 491.97,448.122C492.719,447.554 492.512,446.432 492.783,446.089C493.2,445.561 494.5,447.266 494.5,448.5C494.5,449.079 494.197,450.103 494,450.5C494.229,450.447 495.254,450.558 495.5,450.5C496.954,450.159 498.842,451.059 497.66,451.983C496.49,452.898 495.884,453.766 495.221,453.812C494.439,453.866 493.791,452.922 493,452C492.732,451.688 493.194,451.05 493.5,450.745ZM453,444.367C455.164,444.802 457,445.853 457,447.684C457,449.514 455.194,451.249 453,451C449.681,450.623 448.544,449.482 449,447.684C449.483,445.78 449.939,443.752 453,444.367ZM521.551,441C519.939,443.02 519.488,445.989 520.654,448.141C522.725,450.828 524.477,450.402 526.04,448.141C527.206,443.888 525.397,441.167 521.551,441ZM479.5,444C480.823,444.392 482,444.896 482,446C482,447.104 480.88,448 479.5,448C478.12,448 477.184,447.088 477,446C476.771,444.644 477.611,443.44 479.5,444ZM442,443.474C443.844,442.898 444.595,443.578 444,444.737C443.682,445.357 443.104,446 442,446C440.896,446 440,445.434 440,444.737C440,444.04 440.946,443.803 442,443.474ZM486,441C486.313,441.468 487.334,441.842 488,442C488.537,442.127 487.104,443 486,443C484.896,443 484,442.552 484,442C484,441.448 485.387,440.082 486,441ZM453.5,436C455.361,436.904 456.328,437.736 456,438.5C455.456,439.768 454.88,441 453.5,441C452.12,441 451,439.88 451,438.5C451,437.12 452.259,435.397 453.5,436ZM520.5,435C521.325,435.065 522,435.797 522,436.78C522,437.762 521.328,438.559 520.5,438.559C519.672,438.559 519.515,437.616 519,436.78C518.311,435.662 519.119,434.891 520.5,435Z" style="fill:white;"/>
    </g>
</svg>
