<?xml version="1.0" encoding="UTF-8" standalone="no"?>
<!DOCTYPE svg PUBLIC "-//W3C//DTD SVG 1.1//EN" "http://www.w3.org/Graphics/SVG/1.1/DTD/svg11.dtd">
<svg width="100%" height="100%" viewBox="0 0 1000 1000" version="1.1" xmlns="http://www.w3.org/2000/svg" xmlns:xlink="http://www.w3.org/1999/xlink" xml:space="preserve" xmlns:serif="http://www.serif.com/" style="fill-rule:evenodd;clip-rule:evenodd;stroke-linejoin:round;stroke-miterlimit:2;">
    <g transform="matrix(21.9512,0,0,21.9512,-46442.7,-79797.6)">
        <path d="M2159,3654.5C2159,3652.57 2157.43,3651 2155.5,3651L2121.5,3651C2119.57,3651 2118,3652.57 2118,3654.5L2118,3661.5C2118,3663.43 2119.57,3665 2121.5,3665L2155.5,3665C2157.43,3665 2159,3663.43 2159,3661.5L2159,3654.5ZM2140.62,3658L2150.12,3653.25L2150.12,3662.75L2140.62,3658L2140.62,3662.75L2131.12,3658L2140.62,3653.25L2140.62,3658ZM2130.88,3653.5L2126.88,3653.5L2126.88,3662.5L2130.88,3662.5L2130.88,3653.5Z" style="fill:white;"/>
    </g>
</svg>
