<?xml version="1.0" encoding="UTF-8" standalone="no"?>
<!DOCTYPE svg PUBLIC "-//W3C//DTD SVG 1.1//EN" "http://www.w3.org/Graphics/SVG/1.1/DTD/svg11.dtd">
<svg width="100%" height="100%" viewBox="0 0 1000 1000" version="1.1" xmlns="http://www.w3.org/2000/svg" xmlns:xlink="http://www.w3.org/1999/xlink" xml:space="preserve" xmlns:serif="http://www.serif.com/" style="fill-rule:evenodd;clip-rule:evenodd;stroke-linejoin:round;stroke-miterlimit:2;">
    <g transform="matrix(1,0,0,1,-5.68434e-14,-0.0184552)">
        <path d="M456.394,129.342C466.443,127.856 513.507,127.854 523.635,129.252L690,130C689.227,146.795 666.026,182.516 660,180C660,180 651.204,182.657 644.469,181.585C741.816,244.877 859.924,365.159 943.995,546.344C963.828,576.607 928.558,623.085 924.128,619.263C931.458,629.847 892.699,672.864 865.28,675.416C847.846,585.613 828.512,507.374 805.746,419.797C824.033,511.28 844.771,591.96 858.809,685.403C843.273,710.503 823.041,729.406 800.349,745.062C786.789,658.375 771.367,583.018 752.762,498.155C766.68,585.074 782.81,661.369 793.351,749.741C790.621,751.513 787.855,753.246 785.062,754.942C767.137,779.617 741.402,778.365 713.866,783.35C703.952,703.264 692.33,644.11 677.995,565.355C687.829,644.894 699.515,704.06 707.094,784.504C706.593,784.585 706.095,784.664 705.596,784.742C689.201,813.135 665.503,830.568 626.13,824.475L626.029,824.661C626.46,758.096 625.529,711.857 622.732,645.676C621.703,715.204 622.107,764.679 619.917,834.557C604.745,856.101 582.045,868.152 546.664,864.208C548.096,820.236 546.664,691.303 546.664,691.303C546.664,691.303 540.255,824.957 538.717,864.208C525.768,874.023 473.365,874.69 461.238,864.208C459.131,830.871 459.193,694.731 459.193,694.731C459.193,694.731 453.967,834.822 453.336,864.208C417.955,868.152 395.255,856.101 380.083,834.557C377.893,764.679 378.297,715.204 377.268,645.676C374.471,711.857 373.54,758.096 373.971,824.661L373.87,824.475C334.497,830.568 310.799,813.135 294.404,784.742C293.905,784.664 293.407,784.585 292.906,784.504C300.485,704.06 312.171,644.894 322.005,565.355C307.67,644.11 296.048,703.264 286.134,783.35C258.598,778.365 232.863,779.617 214.938,754.942C212.145,753.246 209.379,751.513 206.649,749.741C217.19,661.369 233.32,585.074 247.238,498.155C228.633,583.018 213.211,658.375 199.651,745.062C176.959,729.406 156.727,710.503 141.191,685.403C155.229,591.96 175.967,511.28 194.254,419.797C171.488,507.374 152.154,585.613 134.72,675.416C107.301,672.864 68.542,629.847 75.872,619.263C71.442,623.085 36.172,576.607 56.005,546.344C140.408,364.444 251.7,243.929 343.472,180.855C341.382,180.418 335,180 335,180C328.974,182.516 310.773,146.795 310,130L456.394,129.342Z" style="fill:white;"/>
    </g>
</svg>
