<?xml version="1.0" encoding="UTF-8" standalone="no"?>
<!DOCTYPE svg PUBLIC "-//W3C//DTD SVG 1.1//EN" "http://www.w3.org/Graphics/SVG/1.1/DTD/svg11.dtd">
<svg width="100%" height="100%" viewBox="0 0 1000 1000" version="1.1" xmlns="http://www.w3.org/2000/svg" xmlns:xlink="http://www.w3.org/1999/xlink" xml:space="preserve" xmlns:serif="http://www.serif.com/" style="fill-rule:evenodd;clip-rule:evenodd;stroke-linejoin:round;stroke-miterlimit:2;">
    <g transform="matrix(2.8293,0,0,2.8293,-934.184,-886.082)">
        <path d="M512,524C505.17,509.877 508.339,497.68 522.038,492.868C538.196,487.192 550.754,494.851 558,512C560.227,521.551 560.734,528.782 558.805,533.611C551.607,551.629 537.428,562.522 520,563.111C482.588,564.376 434.194,525.204 462.226,465.923C487.282,412.934 536.846,406.699 584.24,427.376C629.476,447.112 645.554,495.762 643.476,530C642.004,554.264 638.382,576.607 620,597.307C606.219,612.825 589.006,629.849 566.598,640C543.754,650.349 520.247,649.104 500,648.661C450.803,647.585 375.272,589.264 370.846,527.992C369.264,506.08 370.428,469.653 374,454.643C384.325,411.257 436.803,346.853 495,336.106C516.144,332.202 544.129,327.673 584,334C599.216,338.07 606.122,347.658 602.226,360C600.488,365.505 593,376 576,372C499.28,353.559 440.667,393.864 416.489,447.948C391.086,504.771 416.283,564.719 450,589.925C474.768,608.441 505.277,615.434 533.532,609.547C563.764,603.249 587.581,582.555 600,553.265C614.976,517.945 599.406,456.279 540,455.853C526.002,455.753 514.49,460.534 506.332,468.062C494.215,479.242 489.493,496.472 495,512.722C496.798,518.026 501.788,522.133 512,524Z" style="fill:white;"/>
    </g>
</svg>
