<?xml version="1.0" encoding="UTF-8" standalone="no"?>
<!DOCTYPE svg PUBLIC "-//W3C//DTD SVG 1.1//EN" "http://www.w3.org/Graphics/SVG/1.1/DTD/svg11.dtd">
<svg width="100%" height="100%" viewBox="0 0 1000 1000" version="1.1" xmlns="http://www.w3.org/2000/svg" xmlns:xlink="http://www.w3.org/1999/xlink" xml:space="preserve" xmlns:serif="http://www.serif.com/" style="fill-rule:evenodd;clip-rule:evenodd;stroke-linejoin:round;stroke-miterlimit:2;">
    <path d="M337.193,107.221L347.4,108.953C353.803,113.959 359.518,119.657 365.882,124.464C375.305,131.581 383.264,138.305 386.832,143.141L360.313,143.141C358.284,143.141 356.637,144.788 356.637,146.817C356.637,148.846 358.284,150.494 360.313,150.494L389.559,150.494C391.583,156.448 396.866,160.627 400.867,166.176L360.313,166.176C358.284,166.176 356.637,167.824 356.637,169.853C356.637,171.882 358.284,173.529 360.313,173.529L405.463,173.529C411.073,181.598 418.308,185.995 425.882,189.412C443.703,197.45 442.037,205.027 450.507,212.283C450.436,212.996 450.4,213.719 450.4,214.45L450.4,362.021C450.4,374.866 461.513,385.294 475.2,385.294L524.8,385.294C538.487,385.294 549.6,374.866 549.6,362.021L549.6,251.232C555.406,253.539 560.662,256.999 565.294,261.765C570.593,262.902 574.433,265.04 578.225,267.35C576.778,267.843 575.735,269.216 575.735,270.83C575.735,272.827 577.332,274.455 579.317,274.505L579.412,274.506L592.488,274.506C594.238,275.053 596.148,275.52 598.263,275.882C605.22,277.072 613.481,277.727 623.529,277.647C634.748,275.689 644.487,276.298 651.765,281.176C652.515,280.806 653.277,280.451 654.051,280.111C654.694,280.749 655.572,281.151 656.542,281.175L656.637,281.176L716.912,281.176C718.941,281.176 720.588,279.529 720.588,277.5C720.588,276.066 719.765,274.822 718.566,274.217C725.236,273.618 731.789,272.733 738.235,271.589L738.235,755.882L737.418,755.882L737.402,756.048C728.699,848.854 652.522,924.745 552.649,944.802L552.507,944.831C543.371,946.66 534.04,948.022 524.548,948.887L523.123,949.013C522.236,949.089 521.349,949.161 520.459,949.228C519.421,949.307 518.38,949.38 517.338,949.446C515.605,949.557 513.868,949.652 512.127,949.729L510.187,949.81L507.973,949.882C505.813,949.947 503.641,949.984 501.462,949.996L500,950C497.329,950 494.669,949.961 492.027,949.882L489.813,949.81L488.367,949.751L486.923,949.686C485.497,949.617 484.074,949.537 482.662,949.446C481.622,949.38 480.584,949.307 479.541,949.228L478.305,949.132L476.119,948.946C466.493,948.093 457.035,946.729 447.787,944.889L447.351,944.802C347.424,924.739 271.212,848.767 262.582,755.882L261.765,755.882L261.765,244.118L262.582,244.118C262.621,243.694 262.662,243.271 262.704,242.846L262.835,241.576C268.461,188.757 295.959,141.559 337.193,107.221ZM598.161,831.859C570.562,814.246 536.646,803.859 500,803.859C463.354,803.859 429.438,814.246 401.839,831.859L360.313,831.859C358.284,831.859 356.637,833.506 356.637,835.536C356.637,837.565 358.284,839.212 360.313,839.212L391.239,839.212C383.594,844.965 376.546,851.309 370.184,858.165L456.241,932.353C464.278,918.222 480.863,908.515 500,908.515C519.137,908.515 535.722,918.222 543.759,932.353L629.816,858.165C623.454,851.309 616.406,844.965 608.761,839.212L639.687,839.212C641.716,839.212 643.363,837.565 643.363,835.536C643.363,833.506 641.716,831.859 639.687,831.859L598.161,831.859ZM410.43,831.859C436.162,817.323 467.727,809.303 500,809.303C532.273,809.303 563.838,817.323 589.57,831.859L579.412,831.859C577.383,831.859 575.735,833.506 575.735,835.536C575.735,837.533 577.332,839.161 579.317,839.211L579.412,839.212L601.285,839.212C608.94,844.542 615.906,850.522 622.013,857.104L543.469,924.815C536.133,911.918 517.466,904.822 500,904.822C482.534,904.822 463.867,911.918 456.531,924.815L377.987,857.104C384.094,850.522 391.06,844.542 398.715,839.212L420.588,839.212L420.683,839.211C422.668,839.161 424.265,837.533 424.265,835.536C424.265,833.506 422.617,831.859 420.588,831.859L410.43,831.859ZM685.147,845.882L656.637,845.882L656.542,845.881C654.557,845.831 652.96,844.203 652.96,842.206C652.96,840.177 654.608,838.529 656.637,838.529L685.147,838.529C687.176,838.529 688.824,840.177 688.824,842.206C688.824,844.235 687.176,845.882 685.147,845.882ZM314.853,845.882L343.363,845.882L343.458,845.881C345.443,845.831 347.04,844.203 347.04,842.206C347.04,840.177 345.392,838.529 343.363,838.529L314.853,838.529C312.824,838.529 311.176,840.177 311.176,842.206C311.176,844.235 312.824,845.882 314.853,845.882ZM699.265,822.847L656.637,822.847L656.542,822.846C654.557,822.795 652.96,821.168 652.96,819.17C652.96,817.141 654.608,815.494 656.637,815.494L699.265,815.494C701.294,815.494 702.941,817.141 702.941,819.17C702.941,821.199 701.294,822.847 699.265,822.847ZM300.735,822.847L343.363,822.847L343.458,822.846C345.443,822.795 347.04,821.168 347.04,819.17C347.04,817.141 345.392,815.494 343.363,815.494L300.735,815.494C298.706,815.494 297.059,817.141 297.059,819.17C297.059,821.199 298.706,822.847 300.735,822.847ZM360.313,816.176L420.588,816.176L420.683,816.175C422.668,816.125 424.265,814.497 424.265,812.5C424.265,810.471 422.617,808.824 420.588,808.824L360.313,808.824C358.284,808.824 356.637,810.471 356.637,812.5C356.637,814.529 358.284,816.176 360.313,816.176ZM639.687,816.176L579.412,816.176L579.317,816.175C577.332,816.125 575.735,814.497 575.735,812.5C575.735,810.471 577.383,808.824 579.412,808.824L639.687,808.824C641.716,808.824 643.363,810.471 643.363,812.5C643.363,814.529 641.716,816.176 639.687,816.176ZM708.088,792.941L656.637,792.941L656.542,792.94C654.557,792.89 652.96,791.262 652.96,789.265C652.96,787.236 654.608,785.588 656.637,785.588L708.088,785.588C710.117,785.588 711.765,787.236 711.765,789.265C711.765,791.294 710.117,792.941 708.088,792.941ZM291.912,792.941L343.363,792.941L343.458,792.94C345.443,792.89 347.04,791.262 347.04,789.265C347.04,787.236 345.392,785.588 343.363,785.588L291.912,785.588C289.883,785.588 288.235,787.236 288.235,789.265C288.235,791.294 289.883,792.941 291.912,792.941ZM563.414,604.801C563.414,590.788 549.206,579.412 531.707,579.412L468.293,579.412C450.794,579.412 436.586,590.788 436.586,604.801L436.586,765.788C436.586,779.8 450.794,791.176 468.293,791.176L531.707,791.176C549.206,791.176 563.414,779.8 563.414,765.788L563.414,604.801ZM360.313,786.271L420.588,786.271L420.683,786.27C422.668,786.219 424.265,784.592 424.265,782.594C424.265,780.565 422.617,778.918 420.588,778.918L360.313,778.918C358.284,778.918 356.637,780.565 356.637,782.594C356.637,784.624 358.284,786.271 360.313,786.271ZM639.687,786.271L579.412,786.271L579.317,786.27C577.332,786.219 575.735,784.592 575.735,782.594C575.735,780.565 577.383,778.918 579.412,778.918L639.687,778.918C641.716,778.918 643.363,780.565 643.363,782.594C643.363,784.624 641.716,786.271 639.687,786.271ZM556.405,607.846C556.405,595.382 543.768,585.263 528.202,585.263L471.798,585.263C456.232,585.263 443.595,595.382 443.595,607.846L443.595,762.742C443.595,775.206 456.232,785.325 471.798,785.325L528.202,785.325C543.768,785.325 556.405,775.206 556.405,762.742L556.405,607.846ZM716.912,769.906L656.637,769.906L656.542,769.904C654.557,769.854 652.96,768.227 652.96,766.229C652.96,764.2 654.608,762.553 656.637,762.553L716.912,762.553C718.941,762.553 720.588,764.2 720.588,766.229C720.588,768.258 718.941,769.906 716.912,769.906ZM283.088,769.906L343.363,769.906L343.458,769.904C345.443,769.854 347.04,768.227 347.04,766.229C347.04,764.2 345.392,762.553 343.363,762.553L283.088,762.553C281.059,762.553 279.412,764.2 279.412,766.229C279.412,768.258 281.059,769.906 283.088,769.906ZM639.687,763.235L579.412,763.235L579.317,763.234C577.332,763.184 575.735,761.556 575.735,759.559C575.735,757.53 577.383,755.882 579.412,755.882L639.687,755.882C641.716,755.882 643.363,757.53 643.363,759.559C643.363,761.588 641.716,763.235 639.687,763.235ZM360.313,763.235L420.588,763.235L420.683,763.234C422.668,763.184 424.265,761.556 424.265,759.559C424.265,757.53 422.617,755.882 420.588,755.882L360.313,755.882C358.284,755.882 356.637,757.53 356.637,759.559C356.637,761.588 358.284,763.235 360.313,763.235ZM343.538,737.557L343.363,737.553L283.088,737.553C281.178,737.553 279.606,739.013 279.428,740.877C279.417,740.993 279.412,741.11 279.412,741.229C279.412,743.258 281.059,744.906 283.088,744.906L343.387,744.906C345.405,744.893 347.04,743.25 347.04,741.229C347.04,741.071 347.03,740.914 347.01,740.761C346.787,739.009 345.329,737.641 343.538,737.557ZM656.462,737.557L656.637,737.553L716.912,737.553C718.822,737.553 720.394,739.013 720.572,740.877C720.583,740.993 720.588,741.11 720.588,741.229C720.588,743.258 718.941,744.906 716.912,744.906L656.613,744.906C654.595,744.893 652.96,743.25 652.96,741.229C652.96,741.071 652.97,740.914 652.99,740.761C653.213,739.009 654.671,737.641 656.462,737.557ZM639.687,738.235L579.412,738.235L579.317,738.234C577.332,738.184 575.735,736.556 575.735,734.559C575.735,732.53 577.383,730.882 579.412,730.882L639.687,730.882C641.716,730.882 643.363,732.53 643.363,734.559C643.363,736.588 641.716,738.235 639.687,738.235ZM360.313,738.235L420.588,738.235L420.683,738.234C422.668,738.184 424.265,736.556 424.265,734.559C424.265,732.53 422.617,730.882 420.588,730.882L360.313,730.882C358.284,730.882 356.637,732.53 356.637,734.559C356.637,736.588 358.284,738.235 360.313,738.235ZM283.088,721.87L343.363,721.87L343.458,721.869C345.443,721.818 347.04,720.191 347.04,718.194C347.04,716.164 345.392,714.517 343.363,714.517L283.088,714.517C281.059,714.517 279.412,716.164 279.412,718.194C279.412,720.223 281.059,721.87 283.088,721.87ZM716.912,721.87L656.637,721.87L656.542,721.869C654.557,721.818 652.96,720.191 652.96,718.194C652.96,716.164 654.608,714.517 656.637,714.517L716.912,714.517C718.941,714.517 720.588,716.164 720.588,718.194C720.588,720.223 718.941,721.87 716.912,721.87ZM420.767,707.851L420.588,707.847L360.313,707.847C358.387,707.847 356.805,709.331 356.649,711.217C356.641,711.318 356.637,711.42 356.637,711.523C356.637,713.552 358.284,715.2 360.313,715.2L420.612,715.2C422.63,715.187 424.265,713.544 424.265,711.523C424.265,711.412 424.26,711.302 424.25,711.194C424.089,709.378 422.604,707.939 420.767,707.851ZM579.233,707.851L579.412,707.847L639.687,707.847C641.613,707.847 643.195,709.331 643.351,711.217C643.359,711.318 643.363,711.42 643.363,711.523C643.363,713.552 641.716,715.2 639.687,715.2L579.388,715.2C577.37,715.187 575.735,713.544 575.735,711.523C575.735,711.412 575.74,711.302 575.75,711.194C575.911,709.378 577.396,707.939 579.233,707.851ZM283.088,691.964L343.363,691.964L343.458,691.963C345.443,691.913 347.04,690.285 347.04,688.288C347.04,686.259 345.392,684.611 343.363,684.611L283.088,684.611C281.059,684.611 279.412,686.259 279.412,688.288C279.412,690.317 281.059,691.964 283.088,691.964ZM716.912,691.964L656.637,691.964L656.542,691.963C654.557,691.913 652.96,690.285 652.96,688.288C652.96,686.259 654.608,684.611 656.637,684.611L716.912,684.611C718.941,684.611 720.588,686.259 720.588,688.288C720.588,690.317 718.941,691.964 716.912,691.964ZM360.313,685.294L420.588,685.294L420.683,685.293C422.668,685.243 424.265,683.615 424.265,681.618C424.265,679.589 422.617,677.941 420.588,677.941L360.313,677.941C358.284,677.941 356.637,679.589 356.637,681.618C356.637,683.647 358.284,685.294 360.313,685.294ZM639.687,685.294L579.412,685.294L579.317,685.293C577.332,685.243 575.735,683.615 575.735,681.618C575.735,679.589 577.383,677.941 579.412,677.941L639.687,677.941C641.716,677.941 643.363,679.589 643.363,681.618C643.363,683.647 641.716,685.294 639.687,685.294ZM716.912,668.929L656.637,668.929L656.542,668.928C654.557,668.877 652.96,667.25 652.96,665.252C652.96,663.223 654.608,661.576 656.637,661.576L716.912,661.576C718.941,661.576 720.588,663.223 720.588,665.252C720.588,667.281 718.941,668.929 716.912,668.929ZM283.088,668.929L343.363,668.929L343.458,668.928C345.443,668.877 347.04,667.25 347.04,665.252C347.04,663.223 345.392,661.576 343.363,661.576L283.088,661.576C281.059,661.576 279.412,663.223 279.412,665.252C279.412,667.281 281.059,668.929 283.088,668.929ZM360.313,662.259L420.588,662.259L420.683,662.257C422.668,662.207 424.265,660.579 424.265,658.582C424.265,656.553 422.617,654.906 420.588,654.906L360.313,654.906C358.284,654.906 356.637,656.553 356.637,658.582C356.637,660.611 358.284,662.259 360.313,662.259ZM639.687,662.259L579.412,662.259L579.317,662.257C577.332,662.207 575.735,660.579 575.735,658.582C575.735,656.553 577.383,654.906 579.412,654.906L639.687,654.906C641.716,654.906 643.363,656.553 643.363,658.582C643.363,660.611 641.716,662.259 639.687,662.259ZM716.912,643.929L656.637,643.929L656.542,643.928C654.557,643.877 652.96,642.25 652.96,640.252C652.96,638.223 654.608,636.576 656.637,636.576L716.912,636.576C718.941,636.576 720.588,638.223 720.588,640.252C720.588,642.281 718.941,643.929 716.912,643.929ZM283.088,643.929L343.363,643.929L343.458,643.928C345.443,643.877 347.04,642.25 347.04,640.252C347.04,638.223 345.392,636.576 343.363,636.576L283.088,636.576C281.059,636.576 279.412,638.223 279.412,640.252C279.412,642.281 281.059,643.929 283.088,643.929ZM360.313,637.259L420.588,637.259L420.683,637.257C422.668,637.207 424.265,635.579 424.265,633.582C424.265,631.553 422.617,629.906 420.588,629.906L360.313,629.906C358.284,629.906 356.637,631.553 356.637,633.582C356.637,635.611 358.284,637.259 360.313,637.259ZM639.687,637.259L579.412,637.259L579.317,637.257C577.332,637.207 575.735,635.579 575.735,633.582C575.735,631.553 577.383,629.906 579.412,629.906L639.687,629.906C641.716,629.906 643.363,631.553 643.363,633.582C643.363,635.611 641.716,637.259 639.687,637.259ZM283.088,620.893L343.363,620.893L343.458,620.892C345.443,620.842 347.04,619.214 347.04,617.217C347.04,615.188 345.392,613.54 343.363,613.54L283.088,613.54C281.059,613.54 279.412,615.188 279.412,617.217C279.412,619.246 281.059,620.893 283.088,620.893ZM716.912,620.893L656.637,620.893L656.542,620.892C654.557,620.842 652.96,619.214 652.96,617.217C652.96,615.188 654.608,613.54 656.637,613.54L716.912,613.54C718.941,613.54 720.588,615.188 720.588,617.217C720.588,619.246 718.941,620.893 716.912,620.893ZM360.313,614.223L420.588,614.223L420.683,614.222C422.668,614.171 424.265,612.544 424.265,610.546C424.265,608.517 422.617,606.87 420.588,606.87L360.313,606.87C358.284,606.87 356.637,608.517 356.637,610.546C356.637,612.576 358.284,614.223 360.313,614.223ZM639.687,614.223L579.412,614.223L579.317,614.222C577.332,614.171 575.735,612.544 575.735,610.546C575.735,608.517 577.383,606.87 579.412,606.87L639.687,606.87C641.716,606.87 643.363,608.517 643.363,610.546C643.363,612.576 641.716,614.223 639.687,614.223ZM283.088,593.918L343.363,593.918L343.458,593.917C345.443,593.866 347.04,592.239 347.04,590.241C347.04,588.212 345.392,586.565 343.363,586.565L283.088,586.565C281.059,586.565 279.412,588.212 279.412,590.241C279.412,592.271 281.059,593.918 283.088,593.918ZM716.912,593.918L656.637,593.918L656.542,593.917C654.557,593.866 652.96,592.239 652.96,590.241C652.96,588.212 654.608,586.565 656.637,586.565L716.912,586.565C718.941,586.565 720.588,588.212 720.588,590.241C720.588,592.271 718.941,593.918 716.912,593.918ZM360.313,587.248L420.588,587.248L420.683,587.246C422.668,587.196 424.265,585.569 424.265,583.571C424.265,581.542 422.617,579.895 420.588,579.895L360.313,579.895C358.284,579.895 356.637,581.542 356.637,583.571C356.637,585.6 358.284,587.248 360.313,587.248ZM639.687,587.248L579.412,587.248L579.317,587.246C577.332,587.196 575.735,585.569 575.735,583.571C575.735,581.542 577.383,579.895 579.412,579.895L639.687,579.895C641.716,579.895 643.363,581.542 643.363,583.571C643.363,585.6 641.716,587.248 639.687,587.248ZM716.912,570.882L656.637,570.882L656.542,570.881C654.557,570.831 652.96,569.203 652.96,567.206C652.96,565.177 654.608,563.529 656.637,563.529L716.912,563.529C718.941,563.529 720.588,565.177 720.588,567.206C720.588,569.235 718.941,570.882 716.912,570.882ZM283.088,570.882L343.363,570.882L343.458,570.881C345.443,570.831 347.04,569.203 347.04,567.206C347.04,565.177 345.392,563.529 343.363,563.529L283.088,563.529C281.059,563.529 279.412,565.177 279.412,567.206C279.412,569.235 281.059,570.882 283.088,570.882ZM360.313,564.212L420.588,564.212L420.683,564.211C422.668,564.161 424.265,562.533 424.265,560.536C424.265,558.506 422.617,556.859 420.588,556.859L360.313,556.859C358.284,556.859 356.637,558.506 356.637,560.536C356.637,562.565 358.284,564.212 360.313,564.212ZM639.687,564.212L579.412,564.212L579.317,564.211C577.332,564.161 575.735,562.533 575.735,560.536C575.735,558.506 577.383,556.859 579.412,556.859L639.687,556.859C641.716,556.859 643.363,558.506 643.363,560.536C643.363,562.565 641.716,564.212 639.687,564.212ZM716.912,540.977L656.637,540.977L656.542,540.976C654.557,540.925 652.96,539.298 652.96,537.3C652.96,535.271 654.608,533.624 656.637,533.624L716.912,533.624C718.941,533.624 720.588,535.271 720.588,537.3C720.588,539.329 718.941,540.977 716.912,540.977ZM283.088,540.977L343.363,540.977L343.458,540.976C345.443,540.925 347.04,539.298 347.04,537.3C347.04,535.271 345.392,533.624 343.363,533.624L283.088,533.624C281.059,533.624 279.412,535.271 279.412,537.3C279.412,539.329 281.059,540.977 283.088,540.977ZM639.687,534.306L579.412,534.306L579.317,534.305C577.332,534.255 575.735,532.627 575.735,530.63C575.735,528.601 577.383,526.954 579.412,526.954L639.687,526.954C641.716,526.954 643.363,528.601 643.363,530.63C643.363,532.659 641.716,534.306 639.687,534.306ZM360.313,534.306L420.588,534.306L420.683,534.305C422.668,534.255 424.265,532.627 424.265,530.63C424.265,528.601 422.617,526.954 420.588,526.954L360.313,526.954C358.284,526.954 356.637,528.601 356.637,530.63C356.637,532.659 358.284,534.306 360.313,534.306ZM716.912,517.941L656.637,517.941L656.542,517.94C654.557,517.89 652.96,516.262 652.96,514.265C652.96,512.236 654.608,510.588 656.637,510.588L716.912,510.588C718.941,510.588 720.588,512.236 720.588,514.265C720.588,516.294 718.941,517.941 716.912,517.941ZM283.088,517.941L343.363,517.941L343.458,517.94C345.443,517.89 347.04,516.262 347.04,514.265C347.04,512.236 345.392,510.588 343.363,510.588L283.088,510.588C281.059,510.588 279.412,512.236 279.412,514.265C279.412,516.294 281.059,517.941 283.088,517.941ZM639.687,511.271L579.412,511.271L579.317,511.27C577.332,511.219 575.735,509.592 575.735,507.594C575.735,505.565 577.383,503.918 579.412,503.918L639.687,503.918C641.716,503.918 643.363,505.565 643.363,507.594C643.363,509.624 641.716,511.271 639.687,511.271ZM360.313,511.271L420.588,511.271L420.683,511.27C422.668,511.219 424.265,509.592 424.265,507.594C424.265,505.565 422.617,503.918 420.588,503.918L360.313,503.918C358.284,503.918 356.637,505.565 356.637,507.594C356.637,509.624 358.284,511.271 360.313,511.271ZM283.088,492.941L343.363,492.941L343.458,492.94C345.443,492.89 347.04,491.262 347.04,489.265C347.04,487.236 345.392,485.588 343.363,485.588L283.088,485.588C281.059,485.588 279.412,487.236 279.412,489.265C279.412,491.294 281.059,492.941 283.088,492.941ZM716.912,492.941L656.637,492.941L656.542,492.94C654.557,492.89 652.96,491.262 652.96,489.265C652.96,487.236 654.608,485.588 656.637,485.588L716.912,485.588C718.941,485.588 720.588,487.236 720.588,489.265C720.588,491.294 718.941,492.941 716.912,492.941ZM639.687,486.271L579.412,486.271L579.317,486.27C577.332,486.219 575.735,484.592 575.735,482.594C575.735,480.565 577.383,478.918 579.412,478.918L639.687,478.918C641.716,478.918 643.363,480.565 643.363,482.594C643.363,484.624 641.716,486.271 639.687,486.271ZM360.313,486.271L420.588,486.271L420.683,486.27C422.668,486.219 424.265,484.592 424.265,482.594C424.265,480.565 422.617,478.918 420.588,478.918L360.313,478.918C358.284,478.918 356.637,480.565 356.637,482.594C356.637,484.624 358.284,486.271 360.313,486.271ZM283.088,469.906L343.363,469.906L343.458,469.904C345.443,469.854 347.04,468.227 347.04,466.229C347.04,464.2 345.392,462.553 343.363,462.553L283.088,462.553C281.059,462.553 279.412,464.2 279.412,466.229C279.412,468.258 281.059,469.906 283.088,469.906ZM716.912,469.906L656.637,469.906L656.542,469.904C654.557,469.854 652.96,468.227 652.96,466.229C652.96,464.2 654.608,462.553 656.637,462.553L716.912,462.553C718.941,462.553 720.588,464.2 720.588,466.229C720.588,468.258 718.941,469.906 716.912,469.906ZM639.687,463.235L579.412,463.235L579.317,463.234C577.332,463.184 575.735,461.556 575.735,459.559C575.735,457.53 577.383,455.882 579.412,455.882L639.687,455.882C641.716,455.882 643.363,457.53 643.363,459.559C643.363,461.588 641.716,463.235 639.687,463.235ZM360.313,463.235L420.588,463.235L420.683,463.234C422.668,463.184 424.265,461.556 424.265,459.559C424.265,457.53 422.617,455.882 420.588,455.882L360.313,455.882C358.284,455.882 356.637,457.53 356.637,459.559C356.637,461.588 358.284,463.235 360.313,463.235ZM283.088,436.859L343.363,436.859L343.458,436.858C345.443,436.808 347.04,435.18 347.04,433.183C347.04,431.154 345.392,429.506 343.363,429.506L283.088,429.506C281.059,429.506 279.412,431.154 279.412,433.183C279.412,435.212 281.059,436.859 283.088,436.859ZM716.912,436.859L656.637,436.859L656.542,436.858C654.557,436.808 652.96,435.18 652.96,433.183C652.96,431.154 654.608,429.506 656.637,429.506L716.912,429.506C718.941,429.506 720.588,431.154 720.588,433.183C720.588,435.212 718.941,436.859 716.912,436.859ZM360.313,430.189L420.588,430.189L420.683,430.188C422.668,430.137 424.265,428.51 424.265,426.512C424.265,424.483 422.617,422.836 420.588,422.836L360.313,422.836C358.284,422.836 356.637,424.483 356.637,426.512C356.637,428.541 358.284,430.189 360.313,430.189ZM639.687,430.189L579.412,430.189L579.317,430.188C577.332,430.137 575.735,428.51 575.735,426.512C575.735,424.483 577.383,422.836 579.412,422.836L639.687,422.836C641.716,422.836 643.363,424.483 643.363,426.512C643.363,428.541 641.716,430.189 639.687,430.189ZM716.912,413.824L656.637,413.824L656.542,413.822C654.557,413.772 652.96,412.145 652.96,410.147C652.96,408.118 654.608,406.471 656.637,406.471L716.912,406.471C718.941,406.471 720.588,408.118 720.588,410.147C720.588,412.176 718.941,413.824 716.912,413.824ZM283.088,413.824L343.363,413.824L343.458,413.822C345.443,413.772 347.04,412.145 347.04,410.147C347.04,408.118 345.392,406.471 343.363,406.471L283.088,406.471C281.059,406.471 279.412,408.118 279.412,410.147C279.412,412.176 281.059,413.824 283.088,413.824ZM639.687,407.153L579.412,407.153L579.317,407.152C577.332,407.102 575.735,405.474 575.735,403.477C575.735,401.448 577.383,399.8 579.412,399.8L639.687,399.8C641.716,399.8 643.363,401.448 643.363,403.477C643.363,405.506 641.716,407.153 639.687,407.153ZM360.313,407.153L420.588,407.153L420.683,407.152C422.668,407.102 424.265,405.474 424.265,403.477C424.265,401.448 422.617,399.8 420.588,399.8L360.313,399.8C358.284,399.8 356.637,401.448 356.637,403.477C356.637,405.506 358.284,407.153 360.313,407.153ZM716.912,383.918L656.637,383.918L656.542,383.917C654.557,383.866 652.96,382.239 652.96,380.241C652.96,378.212 654.608,376.565 656.637,376.565L716.912,376.565C718.941,376.565 720.588,378.212 720.588,380.241C720.588,382.271 718.941,383.918 716.912,383.918ZM283.088,383.918L343.363,383.918L343.458,383.917C345.443,383.866 347.04,382.239 347.04,380.241C347.04,378.212 345.392,376.565 343.363,376.565L283.088,376.565C281.059,376.565 279.412,378.212 279.412,380.241C279.412,382.271 281.059,383.918 283.088,383.918ZM455.894,216.564C455.886,216.789 455.882,217.015 455.882,217.241L455.882,359.23C455.882,370.655 465.767,379.93 477.941,379.93L522.059,379.93C534.233,379.93 544.118,370.655 544.118,359.23L544.118,249.433C540.209,248.402 536.085,247.82 531.765,247.647C509.169,247.014 489.148,241.173 471.765,230C469.409,226.156 462.527,221.572 455.894,216.564ZM360.313,377.248L420.588,377.248L420.683,377.246C422.668,377.196 424.265,375.569 424.265,373.571C424.265,371.542 422.617,369.895 420.588,369.895L360.313,369.895C358.284,369.895 356.637,371.542 356.637,373.571C356.637,375.6 358.284,377.248 360.313,377.248ZM639.687,377.248L579.412,377.248L579.317,377.246C577.332,377.196 575.735,375.569 575.735,373.571C575.735,371.542 577.383,369.895 579.412,369.895L639.687,369.895C641.716,369.895 643.363,371.542 643.363,373.571C643.363,375.6 641.716,377.248 639.687,377.248ZM716.912,360.882L656.637,360.882L656.542,360.881C654.557,360.831 652.96,359.203 652.96,357.206C652.96,355.177 654.608,353.529 656.637,353.529L716.912,353.529C718.941,353.529 720.588,355.177 720.588,357.206C720.588,359.235 718.941,360.882 716.912,360.882ZM283.088,360.882L343.363,360.882L343.458,360.881C345.443,360.831 347.04,359.203 347.04,357.206C347.04,355.177 345.392,353.529 343.363,353.529L283.088,353.529C281.059,353.529 279.412,355.177 279.412,357.206C279.412,359.235 281.059,360.882 283.088,360.882ZM360.313,354.212L420.588,354.212L420.683,354.211C422.668,354.161 424.265,352.533 424.265,350.536C424.265,348.506 422.617,346.859 420.588,346.859L360.313,346.859C358.284,346.859 356.637,348.506 356.637,350.536C356.637,352.565 358.284,354.212 360.313,354.212ZM639.687,354.212L579.412,354.212L579.317,354.211C577.332,354.161 575.735,352.533 575.735,350.536C575.735,348.506 577.383,346.859 579.412,346.859L639.687,346.859C641.716,346.859 643.363,348.506 643.363,350.536C643.363,352.565 641.716,354.212 639.687,354.212ZM716.912,335.882L656.637,335.882L656.542,335.881C654.557,335.831 652.96,334.203 652.96,332.206C652.96,330.177 654.608,328.529 656.637,328.529L716.912,328.529C718.941,328.529 720.588,330.177 720.588,332.206C720.588,334.235 718.941,335.882 716.912,335.882ZM283.088,335.882L343.363,335.882L343.458,335.881C345.443,335.831 347.04,334.203 347.04,332.206C347.04,330.177 345.392,328.529 343.363,328.529L283.088,328.529C281.059,328.529 279.412,330.177 279.412,332.206C279.412,334.235 281.059,335.882 283.088,335.882ZM360.313,329.212L420.588,329.212L420.683,329.211C422.668,329.161 424.265,327.533 424.265,325.536C424.265,323.506 422.617,321.859 420.588,321.859L360.313,321.859C358.284,321.859 356.637,323.506 356.637,325.536C356.637,327.565 358.284,329.212 360.313,329.212ZM639.687,329.212L579.412,329.212L579.317,329.211C577.332,329.161 575.735,327.533 575.735,325.536C575.735,323.506 577.383,321.859 579.412,321.859L639.687,321.859C641.716,321.859 643.363,323.506 643.363,325.536C643.363,327.565 641.716,329.212 639.687,329.212ZM283.088,312.847L343.363,312.847L343.458,312.846C345.443,312.795 347.04,311.168 347.04,309.17C347.04,307.141 345.392,305.494 343.363,305.494L283.088,305.494C281.059,305.494 279.412,307.141 279.412,309.17C279.412,311.199 281.059,312.847 283.088,312.847ZM716.912,312.847L656.637,312.847L656.542,312.846C654.557,312.795 652.96,311.168 652.96,309.17C652.96,307.141 654.608,305.494 656.637,305.494L716.912,305.494C718.941,305.494 720.588,307.141 720.588,309.17C720.588,311.199 718.941,312.847 716.912,312.847ZM639.687,306.176L579.412,306.176L579.317,306.175C577.332,306.125 575.735,304.497 575.735,302.5C575.735,300.471 577.383,298.824 579.412,298.824L639.687,298.824C641.716,298.824 643.363,300.471 643.363,302.5C643.363,304.529 641.716,306.176 639.687,306.176ZM360.313,306.176L420.588,306.176L420.683,306.175C422.668,306.125 424.265,304.497 424.265,302.5C424.265,300.471 422.617,298.824 420.588,298.824L360.313,298.824C358.284,298.824 356.637,300.471 356.637,302.5C356.637,304.529 358.284,306.176 360.313,306.176ZM283.088,281.176L343.363,281.176L343.458,281.175C345.443,281.125 347.04,279.497 347.04,277.5C347.04,275.471 345.392,273.824 343.363,273.824L283.088,273.824C281.059,273.824 279.412,275.471 279.412,277.5C279.412,279.529 281.059,281.176 283.088,281.176ZM360.313,274.506L420.588,274.506L420.683,274.505C422.668,274.455 424.265,272.827 424.265,270.83C424.265,268.801 422.617,267.153 420.588,267.153L360.313,267.153C358.284,267.153 356.637,268.801 356.637,270.83C356.637,272.859 358.284,274.506 360.313,274.506ZM370,84.322C391.422,71.889 415.232,62.436 440.681,56.628L440.908,56.577C445.801,55.465 450.755,54.488 455.765,53.65C456.69,53.496 457.616,53.346 458.545,53.201C459.474,53.056 460.405,52.915 461.337,52.78L462.736,52.58C465.538,52.188 468.356,51.84 471.19,51.536C471.19,51.536 472.608,51.387 472.608,51.387L474.026,51.247C474.571,51.194 475.116,51.143 475.663,51.094L476.877,50.987C477.353,50.947 477.829,50.908 478.305,50.868L479.556,50.771C480.092,50.73 480.63,50.691 481.168,50.653L482.603,50.557L484.541,50.44C486.294,50.34 488.052,50.257 489.813,50.19L492.713,50.097L494.166,50.062C495.358,50.037 496.549,50.019 497.74,50.01C498.503,50.003 499.251,50 500,50L501.462,50.004L502.26,50.01C503.449,50.02 504.635,50.038 505.834,50.062L507.287,50.097L510.187,50.19C511.953,50.257 513.714,50.34 515.459,50.44L517.397,50.557L518.832,50.653L520.265,50.757L521.497,50.853C522.037,50.896 522.577,50.94 523.123,50.987L524.548,51.113L526.515,51.3C527.281,51.376 528.045,51.454 528.81,51.536C529.757,51.637 530.703,51.744 531.638,51.855L533.049,52.025L534.004,52.146C535.094,52.284 536.181,52.43 537.264,52.58L538.663,52.78C540.286,53.016 541.903,53.266 543.5,53.529L544.235,53.65C548.105,54.297 551.943,55.028 555.748,55.841C557.392,56.191 559.028,56.557 560.672,56.941C655.963,79.219 727.992,152.688 737.228,242.187C737.296,242.837 737.359,243.477 737.418,244.118L738.235,244.118L738.235,252.941C726.778,258.015 711.985,265.509 695.882,262.81C683.145,260.676 676.189,264.672 665.882,265.294C660.321,265.41 655.052,264.648 650,263.233C643.974,261.546 639.378,254.333 633.769,251.471L639.687,251.471C641.716,251.471 643.363,249.823 643.363,247.794C643.363,245.765 641.716,244.118 639.687,244.118L579.412,244.118C577.822,244.118 576.467,245.128 575.955,246.542C565.736,242.901 557.952,237.663 551.176,231.765C550.651,231.693 550.128,231.621 549.6,231.546L549.6,214.45C549.6,201.605 538.487,191.176 524.8,191.176L475.2,191.176C469.61,191.176 464.45,192.916 460.299,195.85C457.435,193.231 456.241,191.176 456.241,191.176C464.278,177.046 480.863,167.338 500,167.338C519.137,167.338 535.722,177.046 543.759,191.176L590.951,150.494L639.687,150.494C641.716,150.494 643.363,148.846 643.363,146.817C643.363,144.788 641.716,143.141 639.687,143.141L599.48,143.141L629.816,116.989C599.065,83.85 552.315,62.682 500,62.682C454.528,62.682 413.26,78.675 383.048,104.621C377.341,99.834 372.458,94.566 370,87.258L370,84.322ZM716.912,258.141L656.637,258.141L656.542,258.14C654.557,258.089 652.96,256.462 652.96,254.464C652.96,252.435 654.608,250.788 656.637,250.788L716.912,250.788C718.941,250.788 720.588,252.435 720.588,254.464C720.588,256.494 718.941,258.141 716.912,258.141ZM283.088,258.141L343.363,258.141L343.458,258.14C345.443,258.089 347.04,256.462 347.04,254.464C347.04,252.435 345.392,250.788 343.363,250.788L283.088,250.788C281.059,250.788 279.412,252.435 279.412,254.464C279.412,256.494 281.059,258.141 283.088,258.141ZM360.313,251.471L420.588,251.471L420.683,251.469C422.668,251.419 424.265,249.792 424.265,247.794C424.265,245.765 422.617,244.118 420.588,244.118L360.313,244.118C358.284,244.118 356.637,245.765 356.637,247.794C356.637,249.823 358.284,251.471 360.313,251.471ZM465.384,200.224C481.871,213.552 505.389,224.604 544.118,230.726L544.118,217.241C544.118,205.816 534.233,196.54 522.059,196.54L477.941,196.54C473.277,196.54 468.949,197.902 465.384,200.224ZM288.382,228.235L343.363,228.235L343.458,228.234C345.443,228.184 347.04,226.556 347.04,224.559C347.04,222.53 345.392,220.882 343.363,220.882L288.382,220.882C286.353,220.882 284.706,222.53 284.706,224.559C284.706,226.588 286.353,228.235 288.382,228.235ZM711.618,228.235L656.637,228.235L656.542,228.234C654.557,228.184 652.96,226.556 652.96,224.559C652.96,222.53 654.608,220.882 656.637,220.882L711.618,220.882C713.647,220.882 715.294,222.53 715.294,224.559C715.294,226.588 713.647,228.235 711.618,228.235ZM360.313,221.565L420.588,221.565L420.683,221.564C422.668,221.514 424.265,219.886 424.265,217.889C424.265,215.859 422.617,214.212 420.588,214.212L360.313,214.212C358.284,214.212 356.637,215.859 356.637,217.889C356.637,219.918 358.284,221.565 360.313,221.565ZM639.687,221.565L579.412,221.565L579.317,221.564C577.332,221.514 575.735,219.886 575.735,217.889C575.735,215.859 577.383,214.212 579.412,214.212L639.687,214.212C641.716,214.212 643.363,215.859 643.363,217.889C643.363,219.918 641.716,221.565 639.687,221.565ZM295.441,205.2L343.363,205.2L343.458,205.199C345.443,205.148 347.04,203.521 347.04,201.523C347.04,199.494 345.392,197.847 343.363,197.847L295.441,197.847C293.412,197.847 291.765,199.494 291.765,201.523C291.765,203.552 293.412,205.2 295.441,205.2ZM704.559,205.2L656.637,205.2L656.542,205.199C654.557,205.148 652.96,203.521 652.96,201.523C652.96,199.494 654.608,197.847 656.637,197.847L704.559,197.847C706.588,197.847 708.235,199.494 708.235,201.523C708.235,203.552 706.588,205.2 704.559,205.2ZM360.313,198.529L420.588,198.529L420.683,198.528C422.668,198.478 424.265,196.85 424.265,194.853C424.265,192.824 422.617,191.176 420.588,191.176L360.313,191.176C358.284,191.176 356.637,192.824 356.637,194.853C356.637,196.882 358.284,198.529 360.313,198.529ZM639.687,198.529L579.412,198.529L579.317,198.528C577.332,198.478 575.735,196.85 575.735,194.853C575.735,192.824 577.383,191.176 579.412,191.176L639.687,191.176C641.716,191.176 643.363,192.824 643.363,194.853C643.363,196.882 641.716,198.529 639.687,198.529ZM386.632,107.506C415.012,82.447 456.874,68.126 500,68.126C547.748,68.126 593.946,85.682 622.013,115.927L590.445,143.141L579.412,143.141C577.383,143.141 575.735,144.788 575.735,146.817C575.735,148.815 577.332,150.442 579.317,150.493L581.916,150.494L543.469,183.638C536.133,170.741 517.466,163.646 500,163.646C482.534,163.646 463.867,170.741 456.531,183.638L428.226,159.237C428.028,158.901 427.835,158.561 427.647,158.216C426.136,155.445 424.04,152.883 421.877,150.261C423.271,149.739 424.265,148.393 424.265,146.817C424.265,144.788 422.617,143.141 420.588,143.141L416.451,143.141C415.292,141.343 414.278,139.433 413.529,137.35C408.304,122.817 396.751,115.392 386.632,107.506ZM309.559,180.2L343.363,180.2L343.458,180.199C345.443,180.148 347.04,178.521 347.04,176.523C347.04,174.494 345.392,172.847 343.363,172.847L309.559,172.847C307.53,172.847 305.882,174.494 305.882,176.523C305.882,178.552 307.53,180.2 309.559,180.2ZM690.441,180.2L656.637,180.2L656.542,180.199C654.557,180.148 652.96,178.521 652.96,176.523C652.96,174.494 654.608,172.847 656.637,172.847L690.441,172.847C692.47,172.847 694.118,174.494 694.118,176.523C694.118,178.552 692.47,180.2 690.441,180.2ZM639.687,173.529L579.412,173.529L579.317,173.528C577.332,173.478 575.735,171.85 575.735,169.853C575.735,167.824 577.383,166.176 579.412,166.176L639.687,166.176C641.716,166.176 643.363,167.824 643.363,169.853C643.363,171.882 641.716,173.529 639.687,173.529ZM325.441,157.164L343.363,157.164L343.458,157.163C345.443,157.113 347.04,155.485 347.04,153.488C347.04,151.459 345.392,149.811 343.363,149.811L325.441,149.811C323.412,149.811 321.765,151.459 321.765,153.488C321.765,155.517 323.412,157.164 325.441,157.164ZM674.559,157.164L656.637,157.164L656.542,157.163C654.557,157.113 652.96,155.485 652.96,153.488C652.96,151.459 654.608,149.811 656.637,149.811L674.559,149.811C676.588,149.811 678.235,151.459 678.235,153.488C678.235,155.517 676.588,157.164 674.559,157.164Z" style="fill:white;"/>
</svg>
