<?xml version="1.0" encoding="UTF-8" standalone="no"?>
<!DOCTYPE svg PUBLIC "-//W3C//DTD SVG 1.1//EN" "http://www.w3.org/Graphics/SVG/1.1/DTD/svg11.dtd">
<svg width="100%" height="100%" viewBox="0 0 1000 1000" version="1.1" xmlns="http://www.w3.org/2000/svg" xmlns:xlink="http://www.w3.org/1999/xlink" xml:space="preserve" xmlns:serif="http://www.serif.com/" style="fill-rule:evenodd;clip-rule:evenodd;stroke-linejoin:round;stroke-miterlimit:2;">
    <g transform="matrix(12.0312,0,0,12.0312,-6490.96,-3792.45)">
        <path d="M561,372C557.382,367.766 555.362,363.451 556,359C560.782,348.577 569.23,343.901 582,346C583.279,346.21 583.234,343.586 582,343C569.441,337.041 560.122,340.45 555,356C555.622,349.215 556.286,342.544 557.297,336.829C559.737,323.046 564.203,314.827 575,324C584.788,316.378 590.966,319.474 593.122,339.738C595.635,341.001 597.066,342.863 598,345C620.572,346.479 618.348,352.372 612,359C621.902,368.279 620.603,374.06 607,376C605.667,382.878 597.815,385.831 587,387C576.336,400.717 558.521,390.978 548.084,375.566C541.068,365.208 541.966,350.705 554,342C549.466,360.588 551.704,375.855 569.31,383C591.905,392.17 613.352,372.867 593,355C595.558,364.657 595.828,370.984 594.509,375C591.322,384.704 575.966,384.812 567,378C577.2,371.76 585.614,364.001 588.5,354.5C587.8,352.547 587.075,351.673 585,351C575.316,355.432 567.186,362.234 561,372ZM604,361.5C611.727,366.47 614.064,369.038 613.676,370.392C613.287,371.747 610.174,371.887 607,372C607.242,368.424 605.913,364.944 604,361.5ZM601,350C607.08,350.145 610.317,350.93 611.294,352.224C612.27,353.518 610.986,355.32 608.024,357.5C604.5,355.46 601.985,353.027 601,350ZM618.049,321.243C614.643,327.828 614.479,334.414 617,341C610.579,336.748 604.249,337.223 598,342C600.792,335.374 601.41,328.712 599,322C605.099,324.576 611.48,324.167 618.049,321.243ZM586.5,336.5C585.331,334.652 584.178,332.799 582.956,331.022C581.735,329.245 580.444,327.545 579,326C583.756,320.005 585.812,324.335 586.5,336.5ZM574.5,331C572.429,330.67 570.352,330.751 568.269,331.311C566.186,331.872 564.096,332.912 562,334.5C563.724,322.351 567.406,319.004 574.5,331Z" style="fill:white;"/>
    </g>
</svg>
