<?xml version="1.0" encoding="UTF-8" standalone="no"?>
<!DOCTYPE svg PUBLIC "-//W3C//DTD SVG 1.1//EN" "http://www.w3.org/Graphics/SVG/1.1/DTD/svg11.dtd">
<svg width="100%" height="100%" viewBox="0 0 1000 1000" version="1.1" xmlns="http://www.w3.org/2000/svg" xmlns:xlink="http://www.w3.org/1999/xlink" xml:space="preserve" xmlns:serif="http://www.serif.com/" style="fill-rule:evenodd;clip-rule:evenodd;stroke-linejoin:round;stroke-miterlimit:2;">
    <g transform="matrix(2.18101,-0.00318534,0.00318534,2.18101,-623.961,-370.057)">
        <path d="M547,350L550,346L556,351L557,342L623,285L541,327C523.767,302.77 506.77,303.146 490,327L409,283L475,339L477,350L480,345L485,350C478.943,359.686 474.816,361.354 470,360.104C459.927,357.489 459.429,349.14 462,335L450,326L440,343L381,371L450,373C453.615,376.255 454.535,379.591 453,383L420,435L470,410C479.221,408.335 487.908,408.675 495,415C505.18,427.423 511.296,440.731 513,455C496.11,449.537 481.186,442.635 470,433C470.907,437.214 471.651,441.39 470,445L453,511L493,470C498.047,465.09 502.823,464.878 507,475C509.13,481.106 509.418,486.239 509,491L491,479L517,606L540,482L525,490C522.694,480.809 523.016,471.995 536,465L580,516L565,450C563.005,439.281 567.501,431.852 583,430C594.903,430.406 604.948,432.305 614,435L597,410C582.439,386.511 586.955,374.915 607,373L649,372L608,352C599.524,347.955 590.912,339.561 582,328L570,337C576.51,363.101 576.164,384.883 570,403C557.013,390.626 548.01,374.289 547,350ZM501,559L497,546C485.06,534.985 474.071,521.907 462,508L456,513C467.416,529.17 482.393,544.403 501,559ZM568,510L574,516C560.731,531.473 546.128,545.517 531,559L532,547C545.65,535.975 557.514,523.534 568,510ZM620,441L613,441C602.547,459.272 591.494,477.245 580,495L580,504C594.233,484.438 607.744,463.724 620,441ZM420,443L413,443C423.174,462.99 434.532,482.309 447,501L450,493C439.349,476.788 429.335,460.131 420,443ZM414,430L411,438C398.8,418.28 389.521,397.303 381,376L388,376C396.152,394.091 404.376,412.17 414,430ZM649,379L642,379C634.798,396.605 626.764,413.579 618,430L623,436C631.205,422.539 639.695,405.657 649,379ZM501,344L502,351L498,348C489.727,369.471 490.804,388.619 499,406L504,403L504,410C513.663,419.55 521.203,416.908 528,410L528,403L532,406C540.153,389.534 540.739,370.507 534,349L529,350L530.601,343C521.831,330.127 512.118,328.611 501,344ZM648,363L654,366C664.395,351.322 676.325,306.886 689,248L681,251C674.72,290.713 662.231,327.296 648,363ZM351,251L345,247C348.758,284.956 356.933,324.005 377,366L384,360C358.827,298.81 351.01,268.058 351,251ZM530.021,320.09C531.807,327.716 529.466,330.352 523,328L530,320L530.021,320.09ZM499.518,320.357C497.85,327.777 500.21,330.325 506.601,328L499.601,320L499.518,320.357ZM478,315L463.103,306C471.785,295.983 481.303,288.148 493,286C475.281,269.619 453.967,271.186 430,286C436.119,267.795 435.43,259.395 430,256.972C420.254,252.622 400.146,264.61 376,290C377.959,263.598 362.592,243.61 330,230C342.066,228.846 351.67,232.294 361,234.757C385.839,241.313 420.118,235.227 454,232C442.457,255.257 457.179,263.495 473,263.35C490.997,263.185 510.136,242.795 517,210C526.223,255.234 548.655,271.606 572,265.047C581.151,262.475 584.669,251.631 580,231C591.654,236.575 663.74,240.678 674,238C674.633,236.052 694.141,232.162 700,236C675.777,243.655 659.604,261.621 650,288C617.693,255.672 592.025,238.972 593,285C569.945,272.067 550.724,270.448 538,288C552.838,291.836 563.229,298.689 570,308L556,316C529.597,291.649 503.567,289.559 478,315ZM682,228L672,235C564.709,195.871 461.527,193.255 363,232L355,226C461.292,178.927 570.63,185.538 682,228Z" style="fill:white;"/>
    </g>
</svg>
