<?xml version="1.0" encoding="UTF-8" standalone="no"?>
<!DOCTYPE svg PUBLIC "-//W3C//DTD SVG 1.1//EN" "http://www.w3.org/Graphics/SVG/1.1/DTD/svg11.dtd">
<svg width="100%" height="100%" viewBox="0 0 1000 1000" version="1.1" xmlns="http://www.w3.org/2000/svg" xmlns:xlink="http://www.w3.org/1999/xlink" xml:space="preserve" xmlns:serif="http://www.serif.com/" style="fill-rule:evenodd;clip-rule:evenodd;stroke-linejoin:round;stroke-miterlimit:2;">
    <g transform="matrix(1,0,0,1,22.9446,1.13687e-13)">
        <path d="M705.276,691.152C668.557,752.44 619.959,788.857 555.115,791.259C485.621,724.542 452.09,639.755 514.868,506.577C505.474,504.155 491.516,489.139 477.674,475.207C470.148,467.632 467.995,465.432 472.69,462.336C475.313,460.605 479.002,467.186 483.258,471.334C509.056,496.484 563.503,535.064 592.298,523.83C578.766,506.945 567.891,490.284 565.977,473.777C560.552,426.996 541.068,396.005 518.721,383.68C512.932,380.488 508.569,377.178 510.782,373.67C513.327,369.636 516.031,370.847 523.653,375.007C535.828,381.653 553.682,397.455 563.696,420.863C645.276,209.169 556.237,75.088 497.911,54.775C458.31,40.983 361.329,52.788 323.012,147.714C332.176,152.635 335.615,154.48 334.165,157.724C332.989,160.353 327.579,160.027 319.538,156.79C305.941,154.67 298.22,155.876 294.837,160.579C287.836,170.314 293.258,192.874 303.417,213.51C318.508,244.163 357.438,249.611 406.385,246C422.01,244.846 436.603,256.727 455.008,257.568C462.063,257.89 466.055,255.887 466.982,260.19C467.405,262.15 466.51,265.957 459.184,266.978C434.692,270.394 425.734,249.2 402.094,252.308C387.687,254.203 374.911,253.485 369.202,253.541C322.829,254 306.164,239.385 291.248,209.219C287.721,226.667 288.513,244.257 297.697,262.122C234.085,375.27 244.608,542.795 306.696,652.946C347.061,724.559 417.198,804.919 526.513,834.162C526.176,873.099 537.259,911.704 558.91,950C580.338,918.544 586.876,881.144 569.416,834.162C650.152,858.787 687.479,794.884 705.276,691.152ZM712.426,687.166C703.278,637.998 728.195,588.78 741.028,596.765C752.689,604.021 737.726,614.11 724.377,649.679C720.314,660.504 721.987,662.043 721.007,668.27C723.007,667.449 724.912,665.827 726.727,663.813C729.287,660.973 733.488,651.454 741.028,655.406C747.599,658.849 743.976,675.438 712.426,687.166ZM242,410C230.962,418.634 221.864,425.237 215.566,428.006C210.323,430.311 208.464,431.873 208.966,434.884C209.789,439.816 219.494,442.691 242,440C239.684,429.706 240.11,419.76 242,410ZM346.687,308.252C334.685,292.897 321.534,280.509 304.848,277.923C303.304,277.684 301.857,278.743 301.617,280.286C301.378,281.83 302.437,283.278 303.981,283.517C319.328,285.895 331.187,297.614 342.227,311.738C343.189,312.969 344.969,313.187 346.2,312.225C347.43,311.263 347.649,309.483 346.687,308.252ZM491.497,192.425C498.423,195.002 500.664,206.181 496.499,217.374C492.334,228.567 483.331,235.562 476.405,232.985C469.48,230.409 467.238,219.229 471.403,208.036C475.568,196.843 484.572,189.848 491.497,192.425ZM404.196,180.919C395.752,166.823 383.171,159.006 364.453,162.082C362.911,162.335 361.865,163.792 362.119,165.334C362.372,166.875 363.829,167.921 365.371,167.668C381.38,165.037 392.118,171.772 399.34,183.828C400.143,185.168 401.883,185.605 403.223,184.802C404.563,183.999 404.999,182.259 404.196,180.919Z" style="fill:white;"/>
    </g>
</svg>
