<?xml version="1.0" encoding="UTF-8" standalone="no"?>
<!DOCTYPE svg PUBLIC "-//W3C//DTD SVG 1.1//EN" "http://www.w3.org/Graphics/SVG/1.1/DTD/svg11.dtd">
<svg width="100%" height="100%" viewBox="0 0 1000 1000" version="1.1" xmlns="http://www.w3.org/2000/svg" xmlns:xlink="http://www.w3.org/1999/xlink" xml:space="preserve" xmlns:serif="http://www.serif.com/" style="fill-rule:evenodd;clip-rule:evenodd;stroke-linejoin:round;stroke-miterlimit:2;">
    <g transform="matrix(6.55711,0,0,6.55711,-2718.77,-2104.01)">
        <path d="M490.882,377.568C487.398,377.568 484.569,381.95 484.569,387.348C484.569,392.745 487.398,397.127 490.882,397.127C494.366,397.127 497.194,392.745 497.194,387.348C497.194,381.992 494.41,377.637 490.963,377.569L490.882,377.568ZM503.024,357.366C506.507,357.366 509.336,360.355 509.336,364.036C509.336,367.717 506.507,370.706 503.024,370.706C499.54,370.706 496.711,367.717 496.711,364.036C496.711,360.355 499.54,357.366 503.024,357.366ZM478.74,357.366C475.256,357.366 472.428,360.355 472.428,364.036C472.428,367.717 475.256,370.706 478.74,370.706C482.224,370.706 485.052,367.717 485.052,364.036C485.052,360.355 482.224,357.366 478.74,357.366ZM490.995,372.942C492.167,372.971 493.294,373.449 494.406,373.826C493.911,362.089 492.57,350.353 491.031,338.614L490.882,337.478C489.281,349.594 487.868,361.71 487.358,373.826C488.506,373.437 489.67,372.94 490.882,372.94L490.995,372.942ZM490.461,465.744C472.753,465.228 468.185,459.762 464.646,455.272L464.646,403.228C459.428,399.024 458.15,403.536 458.609,411.894C459.404,426.377 442.257,425.338 442.402,411.894C442.609,392.656 439.172,383.082 458.619,386.436C459.36,386.564 461.969,386.27 464.646,385.912L464.646,383.049C464.646,351.192 459.024,328.499 490.882,328.499L491.253,328.5C522.695,328.677 517.118,351.316 517.118,383.049L517.118,385.912C519.794,386.27 522.403,386.564 523.145,386.436C542.591,383.082 539.155,392.656 539.362,411.894C539.507,425.338 522.36,426.377 523.155,411.894C523.614,403.536 522.335,399.024 517.118,403.228L517.118,455.272C513.551,459.797 508.938,465.314 490.882,465.755L490.461,465.744Z" style="fill:white;"/>
    </g>
</svg>
