<?xml version="1.0" encoding="UTF-8" standalone="no"?>
<!DOCTYPE svg PUBLIC "-//W3C//DTD SVG 1.1//EN" "http://www.w3.org/Graphics/SVG/1.1/DTD/svg11.dtd">
<svg width="100%" height="100%" viewBox="0 0 1000 1000" version="1.1" xmlns="http://www.w3.org/2000/svg" xmlns:xlink="http://www.w3.org/1999/xlink" xml:space="preserve" xmlns:serif="http://www.serif.com/" style="fill-rule:evenodd;clip-rule:evenodd;stroke-linejoin:round;stroke-miterlimit:2;">
    <g transform="matrix(1,0,0,1.00205,-5.68434e-14,-0.102553)">
        <path d="M715,790C717.944,816.918 729.351,848.945 742.862,873.903C724.084,901.325 697.063,924.577 673.687,948.158C651.477,926.612 636.899,896.285 636.059,867.632C635.647,853.598 625.442,813.812 631.451,806.053C627.949,804.085 630.28,787.191 635,782.716C663.349,781.885 689.613,782.823 715,790ZM630.833,874.553C630.71,872.958 630.625,871.363 630.578,869.773C630.49,866.78 629.951,862.607 629.218,857.825L627.345,857.35L627.345,863.51C627.345,863.51 612.136,863.661 612.136,863.661L598.564,871.828C598.564,871.828 586.861,864.13 586.861,864.13C584.029,864.611 581.172,865.069 578.29,865.501L578.29,876.786C578.29,876.786 568.071,866.919 568.071,866.919C563.455,867.507 558.777,868.035 554.038,868.499L536.207,885.717C536.207,885.717 528.265,870.378 528.265,870.378C526.106,870.483 523.935,870.576 521.753,870.656L514.351,884.953C514.351,884.953 506.403,879.431 506.403,879.431L499.197,885.294C499.197,885.294 491.793,870.997 491.794,870.997C488.019,870.946 484.277,870.859 480.566,870.737L462.362,892.265C462.362,892.265 453.645,869.192 453.646,869.192C449.811,868.874 446.017,868.517 442.265,868.121L427.091,884.912C427.091,884.912 420.612,878.286 420.612,878.286L394.828,883.938C394.828,883.938 394.611,876.495 394.611,876.495L380.01,890.535L384.771,862.357L361.497,873.593C361.497,873.593 361.497,859.273 361.497,859.273L347.565,859.273C347.565,859.273 351.39,848.542 351.39,848.542C326.595,839.977 304.301,829.125 284.457,816.244C274.649,813.691 264.921,810.914 255.275,807.895C268.103,860.37 359.238,892.133 423.814,902.632C485.126,912.599 554.073,903.397 630.833,874.553ZM628.534,853.506L623.192,852.149L623.192,859.541L610.929,859.663L598.665,867.043L587.799,859.895C583.31,860.677 578.757,861.396 574.137,862.053L574.137,867.105L569.554,862.681C563.849,863.433 558.047,864.091 552.15,864.652L537.345,878.947L530.762,866.235C526.926,866.441 523.052,866.607 519.141,866.734L512.817,878.947L506.202,874.352L500.553,878.947L494.375,867.016C489.071,866.967 483.833,866.847 478.654,866.658L463.761,884.269L456.636,865.408C451.197,864.986 445.838,864.483 440.566,863.902L426.97,878.947L422.004,873.868L398.837,878.947L398.492,867.105L386.175,878.947L390.148,855.443L389.917,855.389L388.694,855.98C388.971,857.027 389.343,858.02 389.603,858.663L389.579,858.807L387.569,856.523L385.596,857.475L385.446,858.366L384.299,858.102L365.65,867.105L365.65,855.263L353.386,855.263L356.66,846.078C263.183,815.02 205.051,751.49 179.315,669.036C185.494,665.182 191.727,661.408 198.065,657.796C207.248,652.563 216.65,647.669 226.433,643.364C227.018,643.104 227.356,642.523 227.272,641.924C227.188,641.326 226.701,640.845 226.064,640.734C220.842,639.799 215.618,639.465 210.392,639.515C208.479,639.534 206.566,639.604 204.65,639.716C214.199,635.733 223.766,631.903 233.374,628.423C241.915,625.331 250.488,622.514 259.112,620.12C259.94,619.887 260.496,619.164 260.465,618.359C260.435,617.554 259.826,616.869 258.983,616.69C253.41,615.491 247.589,614.9 241.581,614.774C237.858,614.696 234.062,614.797 230.206,615.04C232.856,614.124 235.533,613.25 238.236,612.415C242.048,611.238 245.918,610.165 249.818,609.109C251.478,608.66 253.143,608.219 254.81,607.763C257.576,607.006 260.351,606.263 263.138,605.492C265.364,604.876 267.541,604.146 269.803,603.594C270.363,603.458 270.932,603.354 271.498,603.235C272.107,603.117 272.498,602.561 272.372,601.994C272.245,601.426 271.648,601.062 271.04,601.18C270.583,601.268 270.129,601.375 269.67,601.448C267.578,601.779 265.484,601.933 263.403,602.252C261.315,602.573 259.251,602.953 257.196,603.368C254.129,603.987 251.099,604.692 248.101,605.462C236.62,608.412 225.608,612.215 215.063,616.679C214.13,617.072 213.651,618.045 213.94,618.96C214.229,619.875 215.197,620.452 216.209,620.312C224.883,619.083 233.368,618.325 241.506,618.443C244.559,618.488 247.563,618.655 250.506,618.968C244.333,620.9 238.185,623.026 232.056,625.298C219.424,629.979 206.873,635.274 194.341,640.725C193.61,641.039 193.234,641.804 193.457,642.526C193.68,643.247 194.434,643.709 195.233,643.614C200.301,642.986 205.369,642.521 210.438,642.431C213.9,642.369 217.363,642.482 220.825,642.839C212.533,646.759 204.506,651.08 196.644,655.653C190.543,659.202 184.541,662.901 178.59,666.68C172.159,645.474 167.851,623.038 165.617,599.6L160.196,594.737L164.914,591.283C164.314,583.155 163.958,574.913 163.843,566.573L161.653,558.177L163.805,558.915C163.825,553.725 163.937,548.495 164.14,543.231L157.2,515.684L165.51,521.121C166.439,510.17 167.746,499.077 169.427,487.861L169.427,452.632L174.02,461.502C175.382,454.631 176.877,447.728 178.506,440.789C122.278,328.32 115.907,199.195 169.611,50C256.761,105.483 340.243,172.529 423.756,239.474L425.907,239.152C422.836,233.544 420.462,227.872 418.975,222.118C428.013,224.129 436.87,227.283 445.422,232.337L444.865,219.405C449.816,222.238 454.918,225.004 460.336,227.632C471.291,226.438 480.263,221.908 488.289,215.789L491.235,227.632C501.517,224.236 511.719,220.755 520.532,215.789L516.226,227.632C530.854,225.519 545.088,221.767 558.786,215.789L549.609,231.73C564.399,227.377 578.461,222.218 591.379,215.789C591.325,219.826 591.11,223.862 590.684,227.9C669.387,164.844 748.259,102.287 830.389,50C884.093,199.195 877.722,328.32 821.494,440.789C823.086,447.571 824.55,454.319 825.885,461.024L831.679,452.632L831.679,494.079L837.811,488.158L833.376,509.572C833.883,514.268 834.322,518.94 834.693,523.584L837.811,529.605L835.712,539.739C836.082,547.769 836.241,555.713 836.188,563.564L837.811,565.132L835.92,576.088C835.591,585.178 834.968,594.135 834.05,602.947L837.811,606.579L832.743,613.92C831.689,621.773 830.393,629.503 828.851,637.104L831.679,648.026L825.547,653.947L825.339,652.539C824.131,657.313 822.822,662.026 821.41,666.68C815.459,662.901 809.457,659.202 803.356,655.653C795.494,651.08 787.467,646.759 779.175,642.839C782.637,642.482 786.1,642.369 789.562,642.431C794.631,642.521 799.699,642.986 804.767,643.614C805.566,643.709 806.32,643.247 806.543,642.526C806.766,641.804 806.39,641.039 805.659,640.725C793.127,635.274 780.576,629.979 767.944,625.298C761.815,623.026 755.667,620.9 749.494,618.968C752.437,618.655 755.441,618.488 758.494,618.443C766.632,618.325 775.117,619.083 783.791,620.312C784.803,620.452 785.771,619.875 786.06,618.96C786.349,618.045 785.87,617.072 784.937,616.679C774.392,612.215 763.38,608.412 751.899,605.462C748.901,604.692 745.871,603.987 742.804,603.368C740.749,602.953 738.685,602.573 736.597,602.252C734.516,601.933 732.422,601.779 730.33,601.448C729.871,601.375 729.417,601.268 728.96,601.18C728.352,601.062 727.755,601.426 727.628,601.994C727.502,602.561 727.893,603.117 728.502,603.235C729.068,603.354 729.637,603.458 730.197,603.594C732.459,604.146 734.636,604.876 736.862,605.492C739.649,606.263 742.424,607.006 745.19,607.763C746.857,608.219 748.522,608.66 750.182,609.109C754.082,610.165 757.952,611.238 761.764,612.415C764.467,613.25 767.144,614.124 769.794,615.04C765.938,614.797 762.142,614.696 758.419,614.774C752.411,614.9 746.59,615.491 741.017,616.69C740.174,616.869 739.565,617.554 739.535,618.359C739.504,619.164 740.06,619.887 740.888,620.12C749.512,622.514 758.085,625.331 766.626,628.423C776.234,631.903 785.801,635.733 795.35,639.716C793.434,639.604 791.521,639.534 789.608,639.515C784.382,639.465 779.158,639.799 773.936,640.734C773.299,640.845 772.812,641.326 772.728,641.924C772.644,642.523 772.982,643.104 773.567,643.364C783.35,647.669 792.752,652.563 801.935,657.796C808.273,661.408 814.506,665.182 820.685,669.036C816.111,683.691 810.514,697.748 803.879,711.127C773.905,721.598 758.851,748.831 744.274,776.431L744.19,776.594C738.472,775.802 733.603,776.565 729.513,778.327C725.598,780.013 722.178,782.706 719.39,786.443C719.29,786.411 719.188,786.38 719.086,786.352C692.625,778.871 664.673,775.416 635.125,776.282C630.084,776.43 625.801,779.884 624.754,784.647C623.283,791.334 624.187,802.686 625.33,808.001C624.347,811.87 623.89,816.871 624.254,822.61C624.832,831.747 626.913,843.489 628.534,853.506ZM750.021,780.231C774.557,805.716 788.017,833.727 781.397,862.368C829.292,889.643 853.853,867.228 830.453,809.079C848.233,789.423 858.315,762.318 814.51,715.079C782.339,722.422 764.378,753.047 750.021,780.231ZM747.853,785.019C740.495,778.33 719.094,787.137 721.03,795.783C727.767,825.876 736.638,851.152 745.035,866.132C758.129,870.327 770.753,865.784 778.004,855.263C777.594,827.744 765.623,801.174 747.853,785.019ZM500.041,678.513C500.667,679.049 501.194,679.639 501.796,680.176C502.366,680.684 502.947,681.161 503.533,681.63C504.13,682.107 504.731,682.566 505.34,683.006C515.128,690.07 524.095,694.87 531.847,698.2C542.111,702.608 550.548,704.119 557.302,703.329C565.22,702.399 572.347,699.576 576.35,694.962C580.331,690.371 581.328,683.999 576.873,675.886C576.698,675.562 576.275,675.432 575.928,675.594C575.581,675.757 575.44,676.151 575.615,676.475C579.571,683.962 578.727,689.788 575.014,693.94C571.205,698.199 564.474,700.68 557.063,701.449C550.606,702.123 542.6,700.5 532.852,696.196C525.263,692.845 516.791,687.682 506.906,681.051C506.288,680.636 505.655,680.229 505.01,679.823C504.374,679.424 503.734,679.029 503.07,678.645C502.391,678.252 501.68,677.929 501.001,677.511C501.091,677.399 501.143,677.261 501.141,677.111C501.141,677.111 501.266,665.572 501.325,654.646C501.356,648.89 501.4,643.306 501.363,639.67C501.358,639.223 501.362,638.806 501.334,638.422C501.312,638.122 501.275,637.848 501.232,637.591C501.173,637.23 501.114,636.926 501.038,636.657C500.91,636.2 500.743,635.931 500.706,635.724C500.69,635.631 500.704,635.567 500.704,635.537C500.7,635.162 500.435,635.491 500.232,635.799C500.36,635.557 500.412,635.372 500.413,635.233C507.654,630.174 514.278,625.711 520.287,619.605C514.101,618.655 507.453,618.446 501.237,618.423L500,618.421C493.436,618.421 486.311,618.592 479.713,619.605C485.722,625.711 492.346,630.174 499.587,635.233C499.588,635.372 499.64,635.557 499.768,635.799C499.565,635.491 499.3,635.162 499.296,635.537C499.296,635.567 499.31,635.631 499.294,635.724C499.257,635.931 499.09,636.2 498.962,636.657C498.886,636.926 498.827,637.23 498.768,637.591C498.725,637.848 498.688,638.122 498.666,638.422C498.638,638.806 498.642,639.223 498.637,639.67C498.6,643.306 498.644,648.89 498.675,654.646C498.734,665.572 498.859,677.111 498.859,677.111C498.857,677.261 498.909,677.399 498.999,677.511C498.32,677.929 497.609,678.252 496.93,678.645C496.266,679.029 495.626,679.424 494.99,679.823C494.345,680.229 493.712,680.636 493.094,681.051C483.209,687.682 474.737,692.845 467.148,696.196C457.4,700.5 449.394,702.123 442.937,701.449C435.526,700.68 428.795,698.199 424.986,693.94C421.273,689.788 420.429,683.962 424.385,676.475C424.56,676.151 424.419,675.757 424.072,675.594C423.725,675.432 423.302,675.562 423.127,675.886C418.672,683.999 419.669,690.371 423.65,694.962C427.653,699.576 434.78,702.399 442.698,703.329C449.452,704.119 457.889,702.608 468.153,698.2C475.905,694.87 484.872,690.07 494.66,683.006C495.269,682.566 495.87,682.107 496.467,681.63C497.053,681.161 497.634,680.684 498.204,680.176C498.806,679.639 499.333,679.049 499.959,678.513C499.973,678.501 499.986,678.49 500,678.479L500.041,678.513ZM500.103,294.807C500.207,295.539 500.317,296.271 500.44,297.002C501.089,300.893 501.838,304.774 502.664,308.653C503.576,312.939 504.6,317.214 505.66,321.487C507.244,327.867 508.974,334.23 510.669,340.601C510.908,341.501 511.791,342.121 512.785,342.087C513.779,342.052 514.611,341.372 514.777,340.459C515.356,337.258 516.108,334.295 517.037,331.577C517.514,330.177 518.039,328.843 518.611,327.575C522.025,337.601 526.005,347.404 530.375,357.054C537.921,373.716 546.623,389.923 555.516,406.056C555.921,406.795 556.827,407.165 557.684,406.943C558.541,406.721 559.112,405.967 559.049,405.14C558.818,402.191 558.668,399.241 558.588,396.291L561.871,417.327C561.996,418.141 562.775,418.727 563.656,418.669C564.536,418.611 565.218,417.928 565.218,417.105L565.17,400.51C567.809,405.753 570.695,410.909 573.744,416.01C580.09,426.626 587.136,437.003 594.085,447.413C594.45,447.963 595.185,448.191 595.831,447.954C596.476,447.717 596.847,447.083 596.711,446.448L592.304,426.218C596.372,433.598 600.76,440.902 605.466,448.135C611.186,456.926 617.374,465.612 624.022,474.194C590.657,484.134 566.481,503.743 550.829,531.865C558.352,524.191 566.671,517.356 576.244,511.842C563.157,544.746 554.376,577.89 545.593,611.035C551.263,606.424 557.128,602.145 563.536,598.789C688.085,627.531 764.564,611.563 779.56,490.735C780.555,482.714 791.332,479.128 796.306,472.927C773.612,475.989 750.232,473.528 728.731,470.387C688.115,464.453 654.101,465.714 626.308,473.531C619.585,464.777 613.338,455.916 607.58,446.948C601.163,436.956 595.353,426.831 590.162,416.569C589.872,415.999 589.171,415.72 588.529,415.919C587.886,416.118 587.503,416.732 587.636,417.35L592.362,439.706C586.88,431.403 581.437,423.086 576.441,414.619C572.236,407.493 568.348,400.26 565.023,392.838C564.725,392.179 563.97,391.806 563.217,391.948C562.465,392.089 561.924,392.706 561.924,393.421L561.919,395.073C561.919,395.073 558.961,375.421 558.961,375.421C558.83,374.569 558.028,373.948 557.105,373.985C556.183,374.022 555.441,374.705 555.389,375.565C555.079,380.528 554.879,385.491 554.846,390.455C554.832,392.705 554.852,394.956 554.912,397.206C547.531,383.509 540.394,369.716 534.078,355.606C529.139,344.575 524.699,333.35 521.051,321.818C520.815,321.078 520.129,320.539 519.307,320.448C518.484,320.356 517.682,320.73 517.266,321.397C515.61,324.045 514.205,327.045 513.053,330.391C512.913,330.799 512.776,331.212 512.643,331.63C511.602,327.627 510.571,323.622 509.539,319.623C508.8,316.76 508.068,313.898 507.321,311.043C506.154,306.586 505.013,302.139 503.862,297.701C503.367,295.789 502.837,293.895 502.341,291.987C502.065,290.925 501.763,289.873 501.524,288.805C501.364,288.094 501.245,287.376 501.109,286.661C501.017,286.167 500.567,285.815 500.05,285.794L500,285.793C499.463,285.792 498.986,286.151 498.891,286.661C498.755,287.376 498.636,288.094 498.476,288.805C498.237,289.873 497.935,290.925 497.659,291.987C497.163,293.895 496.633,295.789 496.138,297.701C494.987,302.139 493.846,306.586 492.679,311.043C491.932,313.898 491.2,316.76 490.461,319.623C489.429,323.622 488.398,327.627 487.357,331.63C487.224,331.212 487.087,330.799 486.947,330.391C485.795,327.045 484.39,324.045 482.734,321.397C482.318,320.73 481.516,320.356 480.693,320.448C479.871,320.539 479.185,321.078 478.949,321.818C475.301,333.35 470.861,344.575 465.922,355.606C459.606,369.716 452.469,383.509 445.088,397.206C445.148,394.956 445.168,392.705 445.154,390.455C445.121,385.491 444.921,380.528 444.611,375.565C444.559,374.705 443.817,374.022 442.895,373.985C441.972,373.948 441.17,374.569 441.039,375.421C441.039,375.421 438.081,395.073 438.081,395.073L438.076,393.421C438.076,392.706 437.535,392.089 436.783,391.948C436.03,391.806 435.275,392.179 434.977,392.838C431.652,400.26 427.764,407.493 423.559,414.619C418.563,423.086 413.12,431.403 407.638,439.706L412.364,417.35C412.497,416.732 412.114,416.118 411.471,415.919C410.829,415.72 410.128,415.999 409.838,416.569C404.647,426.831 398.837,436.956 392.42,446.948C386.662,455.916 380.415,464.777 373.692,473.531C345.899,465.714 311.885,464.453 271.269,470.387C249.768,473.528 226.388,475.989 203.694,472.927C208.668,479.128 219.445,482.714 220.44,490.735C235.436,611.563 311.915,627.531 436.464,598.789C442.872,602.145 448.737,606.424 454.407,611.035C445.624,577.89 436.843,544.746 423.756,511.842C433.329,517.356 441.648,524.191 449.171,531.865C433.519,503.743 409.343,484.134 375.978,474.194C382.626,465.612 388.814,456.926 394.534,448.135C399.24,440.902 403.628,433.598 407.696,426.218L403.289,446.448C403.153,447.083 403.524,447.717 404.169,447.954C404.815,448.191 405.55,447.963 405.915,447.413C412.864,437.003 419.91,426.626 426.256,416.01C429.305,410.909 432.191,405.753 434.83,400.51L434.782,417.105C434.782,417.928 435.464,418.611 436.344,418.669C437.225,418.727 438.004,418.141 438.129,417.327L441.412,396.291C441.332,399.241 441.182,402.191 440.951,405.14C440.888,405.967 441.459,406.721 442.316,406.943C443.173,407.165 444.079,406.795 444.484,406.056C453.377,389.923 462.079,373.716 469.625,357.054C473.995,347.404 477.975,337.601 481.389,327.575C481.961,328.843 482.486,330.177 482.963,331.577C483.892,334.295 484.644,337.258 485.223,340.459C485.389,341.372 486.221,342.052 487.215,342.087C488.209,342.121 489.092,341.501 489.331,340.601C491.026,334.23 492.756,327.867 494.34,321.487C495.4,317.214 496.424,312.939 497.336,308.653C498.162,304.774 498.911,300.893 499.56,297.002C499.723,296.027 499.865,295.051 500,294.074L500.103,294.807ZM754.145,500C741.734,481.214 710.355,474.184 659.784,479.05C709.631,501.227 701.182,547.549 679.173,563.947C651.967,584.216 573.628,586.994 591.492,509.474C574.075,541.871 566.974,567.406 566.078,588.816C696.614,629.342 760.788,592.004 758.256,500L754.145,500ZM245.855,500C258.266,481.214 289.645,474.184 340.216,479.05C290.369,501.227 298.818,547.549 320.827,563.947C348.033,584.216 426.372,586.994 408.508,509.474C425.925,541.871 433.026,567.406 433.922,588.816C303.386,629.342 239.212,592.004 241.744,500L245.855,500ZM661.384,492.306C660.981,494.363 660.087,496.109 658.841,497.632C675.004,535.275 651.043,556.43 639.78,556.842C630.722,557.173 619.425,547.149 615.636,529.605C610.298,527.307 606.853,524.922 604.2,522.5C587.607,572.103 646.193,578.481 669.191,563.947C688.676,551.634 698.059,517.154 661.384,492.306ZM318,514C319.787,515.095 320.885,518.978 323,520C337.182,571.204 370.22,556.975 377.542,545.691C382.476,538.087 384.179,524.145 373.827,509.484C366.543,502.709 372.303,499.284 376.335,496.255C425.312,520.351 398.429,570.648 362.509,570C360.041,569.955 357.528,569.777 355.011,569.46C330.065,566.317 304.684,549.531 318,514ZM358.949,508.289C362.096,508.425 363.255,517.632 363.048,526.791C362.841,535.949 361.267,545.059 358.949,545C351.354,544.806 351.852,507.984 358.949,508.289ZM641.051,508.289C637.904,508.425 636.745,517.632 636.952,526.791C637.159,535.949 638.733,545.059 641.051,545C648.646,544.806 648.148,507.984 641.051,508.289ZM353.096,504.737C357.29,516.277 328.243,537.091 320.057,510.658C318.593,505.931 345.933,481.473 354.366,482.237C391.158,485.569 364.113,507.632 353.096,504.737ZM635.968,504.737C640.162,516.277 611.115,537.091 602.929,510.658C601.465,505.931 628.806,481.473 637.239,482.237C674.03,485.569 646.986,507.632 635.968,504.737ZM823.834,393.421C859.712,335.95 868.591,183.878 823.922,73.684C783.479,111.609 742.32,149.285 716.024,192.105C720.259,187.952 724.495,184.026 728.731,180.263C718.575,207.729 716.207,235.413 716.024,263.158C725.459,231.651 741.465,203.927 773.686,185.536C756.17,214.3 744.206,239.679 735.359,263.158C752.363,240.053 767.493,216.47 779.56,192.105C777.507,206.339 771.808,220.498 760.142,234.481C748.657,248.247 743.61,266.146 734.329,282.049C764.104,263.959 787.399,233.495 804.975,192.105C798.266,223.684 791.113,255.263 779.56,286.842C795.817,274.715 804.605,254.546 811.704,232.556C809.532,266.301 806.465,300.1 798.326,334.211C813.475,313.455 822.776,291.31 830.389,268.762C829.505,302.42 820.335,336.079 792.267,369.737C807.221,368.504 819.964,359.194 830.389,341.418C825.878,364.016 817.284,385.257 804.975,405.263C810.812,400.734 816.9,396.529 823.834,393.421ZM176.166,393.421C140.288,335.95 131.409,183.878 176.078,73.684C216.521,111.609 257.68,149.285 283.976,192.105C279.741,187.952 275.505,184.026 271.269,180.263C281.425,207.729 283.793,235.413 283.976,263.158C274.541,231.651 258.535,203.927 226.314,185.536C243.83,214.3 255.794,239.679 264.641,263.158C247.637,240.053 232.507,216.47 220.44,192.105C222.493,206.339 228.192,220.498 239.858,234.481C251.343,248.247 256.39,266.146 265.671,282.049C235.896,263.959 212.601,233.495 195.025,192.105C201.734,223.684 208.887,255.263 220.44,286.842C204.183,274.715 195.395,254.546 188.296,232.556C190.468,266.301 193.535,300.1 201.674,334.211C186.525,313.455 177.224,291.31 169.611,268.762C170.495,302.42 179.665,336.079 207.733,369.737C192.779,368.504 180.036,359.194 169.611,341.418C174.122,364.016 182.716,385.257 195.025,405.263C189.188,400.734 183.1,396.529 176.166,393.421Z" style="fill:white;"/>
    </g>
</svg>
