<?xml version="1.0" encoding="UTF-8" standalone="no"?>
<!DOCTYPE svg PUBLIC "-//W3C//DTD SVG 1.1//EN" "http://www.w3.org/Graphics/SVG/1.1/DTD/svg11.dtd">
<svg width="100%" height="100%" viewBox="0 0 1000 1000" version="1.1" xmlns="http://www.w3.org/2000/svg" xmlns:xlink="http://www.w3.org/1999/xlink" xml:space="preserve" xmlns:serif="http://www.serif.com/" style="fill-rule:evenodd;clip-rule:evenodd;stroke-linejoin:round;stroke-miterlimit:2;">
    <g transform="matrix(1.97187,0,0,1.97187,-500.726,-523.498)">
        <path d="M509.69,293.031C507.406,290.349 505.182,290.281 503,292C501.239,380.397 499.886,468.866 493.532,557C488.978,620.164 482.823,683.199 474,746C476.668,747.088 479.587,747.607 483,747C494.493,682.912 499.732,619.728 501.869,557C504.903,467.95 506.659,380.709 509.69,293.031ZM503.69,565.549L512,294C531.608,302.827 551.049,311.764 567,323C570.824,327.173 572.535,331.532 573,336C560.974,350.01 547.491,362.894 533,375C547.181,364.893 560.683,353.803 573,341L573,359C560.801,370.926 548.092,382.206 535,393C547.801,383.302 560.494,373.089 573,362L566,437C556.067,449.084 544.768,460.634 533,472C544.364,461.857 555.554,451.464 566,440L560,464C551.759,475.917 542.068,487.501 532,499C541.821,488.99 551.4,478.819 560,468L560,474C544.968,497.142 527.332,518.773 509,540C527.469,521.693 545.395,503.055 561,483C545.533,511.942 525.271,539.004 503.69,565.549ZM500.987,294C498.702,383.894 495.802,473.926 490.5,564.5C462.562,526.749 446.048,489.392 443,452.5C444.179,453.892 445.469,455.124 447,456C445.301,452.6 443.998,448.912 443,445L443,422C457.227,450.437 473.046,477.765 489,505C472.714,473.333 456.781,441.667 442,410L442,347C449.43,359.623 458.118,371.379 467,383C458.376,370.14 449.916,357.201 442,344C442.018,341.333 442.278,338.667 443,336C443.85,333.014 445.443,330.319 448,328C466.113,315.714 483.77,304.393 500.987,294Z" style="fill:white;"/>
    </g>
</svg>
