<?xml version="1.0" encoding="UTF-8" standalone="no"?>
<!DOCTYPE svg PUBLIC "-//W3C//DTD SVG 1.1//EN" "http://www.w3.org/Graphics/SVG/1.1/DTD/svg11.dtd">
<svg width="100%" height="100%" viewBox="0 0 1000 1000" version="1.1" xmlns="http://www.w3.org/2000/svg" xmlns:xlink="http://www.w3.org/1999/xlink" xml:space="preserve" xmlns:serif="http://www.serif.com/" style="fill-rule:evenodd;clip-rule:evenodd;stroke-linejoin:round;stroke-miterlimit:2;">
    <g transform="matrix(3.83072,0,0,3.83072,-1597.21,-534.295)">
        <path d="M518.716,265.833L499.647,265.833C499.716,265.696 499.785,265.557 499.855,265.416C501.142,262.826 502.709,259.626 504.289,256.221C509.295,245.434 514.704,232.876 514.704,232.876C514.912,232.487 514.764,232.003 514.376,231.796C513.987,231.588 513.503,231.736 513.296,232.124C513.296,232.124 505.88,243.612 499.711,253.779C497.763,256.989 495.979,260.072 494.545,262.584C493.837,263.824 493.219,264.926 492.716,265.833L470,265.833C467.7,265.833 465.833,267.7 465.833,270C465.833,272.3 467.7,274.167 470,274.167L492.72,274.167C493.225,275.073 493.844,276.173 494.556,277.41C495.998,279.919 497.822,282.978 499.761,286.194C501.507,289.091 503.348,292.085 505.103,294.905C509.518,301.998 513.296,307.876 513.296,307.876C513.503,308.264 513.987,308.412 514.376,308.204C514.764,307.997 514.912,307.513 514.704,307.124C514.704,307.124 511.928,300.713 508.497,293.095C507.133,290.066 505.672,286.87 504.239,283.806C502.648,280.404 501.124,277.185 499.844,274.59C499.774,274.447 499.704,274.306 499.635,274.167L518.72,274.167C519.225,275.073 519.844,276.173 520.556,277.41C521.998,279.919 523.822,282.978 525.761,286.194C527.507,289.091 529.348,292.085 531.103,294.905C535.518,301.998 539.296,307.876 539.296,307.876C539.503,308.264 539.987,308.412 540.376,308.204C540.764,307.997 540.912,307.513 540.704,307.124C540.704,307.124 537.928,300.713 534.497,293.095C533.133,290.066 531.672,286.87 530.239,283.806C528.648,280.404 527.124,277.185 525.844,274.59C525.774,274.447 525.704,274.306 525.635,274.167L560,274.167L560,290C560,298.279 566.721,305 575,305L595.776,305C604.055,305 610.776,298.279 610.776,290L610.776,274.167L622.719,274.167C622.737,274.78 622.757,275.391 622.779,276C622.891,279.09 623.066,282.111 623.238,285C623.431,288.225 623.644,291.251 623.853,294C624.462,302.042 624.978,307.5 624.978,307.5C624.978,307.941 625.335,308.298 625.776,308.298C626.216,308.298 626.574,307.941 626.574,307.5C626.574,307.5 627.089,302.042 627.699,294C627.907,291.251 628.121,288.225 628.314,285C628.486,282.111 628.661,279.09 628.773,276C628.795,275.391 628.815,274.78 628.833,274.167L642.997,274.167C643.015,274.78 643.035,275.391 643.057,276C643.168,279.09 643.343,282.111 643.516,285C643.708,288.225 643.922,291.251 644.13,294C644.74,302.042 645.255,307.5 645.255,307.5C645.255,307.941 645.613,308.298 646.054,308.298C646.494,308.298 646.852,307.941 646.852,307.5C646.852,307.5 647.367,302.042 647.977,294C648.185,291.251 648.399,288.225 648.591,285C648.764,282.111 648.939,279.09 649.05,276C649.072,275.391 649.093,274.78 649.11,274.167L660.776,274.167C663.076,274.167 664.943,272.3 664.943,270C664.943,267.7 663.076,265.833 660.776,265.833L649.117,265.833C649.101,265.221 649.082,264.609 649.063,264C648.962,260.911 648.83,257.887 648.648,255C647.852,242.341 646.852,232.5 646.852,232.5C646.852,232.059 646.494,231.702 646.054,231.702C645.613,231.702 645.255,232.059 645.255,232.5C645.255,232.5 644.255,242.341 643.459,255C643.277,257.887 643.145,260.911 643.044,264C643.025,264.609 643.006,265.221 642.99,265.833L628.84,265.833C628.824,265.221 628.805,264.609 628.785,264C628.684,260.911 628.552,257.887 628.371,255C627.574,242.341 626.574,232.5 626.574,232.5C626.574,232.059 626.216,231.702 625.776,231.702C625.335,231.702 624.978,232.059 624.978,232.5C624.978,232.5 623.978,242.341 623.181,255C623,257.887 622.867,260.911 622.767,264C622.747,264.609 622.728,265.221 622.712,265.833L610.776,265.833L610.776,250C610.776,241.721 604.055,235 595.776,235L575,235C566.721,235 560,241.721 560,250L560,265.833L525.647,265.833C525.716,265.696 525.785,265.557 525.855,265.416C527.142,262.826 528.709,259.626 530.289,256.221C535.295,245.434 540.704,232.876 540.704,232.876C540.912,232.487 540.764,232.003 540.376,231.796C539.987,231.588 539.503,231.736 539.296,232.124C539.296,232.124 531.88,243.612 525.711,253.779C523.763,256.989 521.979,260.072 520.545,262.584C519.837,263.824 519.219,264.926 518.716,265.833ZM603.352,274.167L567.424,274.167L567.424,285.05C567.424,291.28 572.482,296.338 578.712,296.338L592.064,296.338C598.294,296.338 603.352,291.28 603.352,285.05L603.352,274.167ZM438.21,276.904C435.281,280.071 433.816,283.237 433.816,286.404C433.816,289.571 435.281,292.737 438.21,295.904C427.565,289.571 426.966,283.237 438.21,276.904ZM447.509,289.358C445.76,289.709 445.247,292.904 443.5,292.904C441.016,292.904 439,289.991 439,286.404C439,282.817 441.016,279.904 443.5,279.904C445.247,279.904 445.76,283.099 447.509,283.45C452.555,284.464 467.838,285.426 473.779,285.989C474.921,286.097 475.806,286.139 476.356,286.237C476.795,286.314 477,286.404 477,286.404C477,286.404 476.795,286.494 476.356,286.571C475.806,286.668 474.921,286.711 473.779,286.819C467.838,287.382 452.555,288.344 447.509,289.358ZM603.352,265.833L603.352,254.95C603.352,248.72 598.294,243.662 592.064,243.662L578.712,243.662C572.482,243.662 567.424,248.72 567.424,254.95L567.424,265.833L603.352,265.833ZM438.21,244.096C435.281,247.263 433.816,250.429 433.816,253.596C433.816,256.763 435.281,259.929 438.21,263.096C427.565,256.763 426.966,250.429 438.21,244.096ZM447.509,256.55C445.76,256.901 445.247,260.096 443.5,260.096C441.016,260.096 439,257.183 439,253.596C439,250.009 441.016,247.096 443.5,247.096C445.247,247.096 445.76,250.291 447.509,250.642C452.555,251.656 467.838,252.618 473.779,253.181C474.921,253.289 475.806,253.332 476.356,253.429C476.795,253.506 477,253.596 477,253.596C477,253.596 476.795,253.686 476.356,253.763C475.806,253.861 474.921,253.903 473.779,254.011C467.838,254.574 452.555,255.536 447.509,256.55Z" style="fill:white;"/>
    </g>
</svg>
