<?xml version="1.0" encoding="UTF-8" standalone="no"?>
<!DOCTYPE svg PUBLIC "-//W3C//DTD SVG 1.1//EN" "http://www.w3.org/Graphics/SVG/1.1/DTD/svg11.dtd">
<svg width="100%" height="100%" viewBox="0 0 1000 1000" version="1.1" xmlns="http://www.w3.org/2000/svg" xmlns:xlink="http://www.w3.org/1999/xlink" xml:space="preserve" xmlns:serif="http://www.serif.com/" style="fill-rule:evenodd;clip-rule:evenodd;stroke-linejoin:round;stroke-miterlimit:2;">
    <g transform="matrix(1.43735,0,0,1.43735,-381.204,-29.0324)">
        <path d="M526.503,324.015C465.089,277.815 383.628,306.186 337,361.922C290.373,417.658 278.58,500.758 356.503,564.015C491.474,673.583 709.138,461.408 526.503,324.015ZM414.502,571.681C419.602,567.277 421.41,561.372 421.098,555.581C420.881,551.539 419.618,547.55 417.717,544.174C415.761,540.701 413.121,537.874 410.276,536.255C407.842,534.87 405.247,534.355 402.766,534.954C399.61,535.716 396.548,538.316 394.29,543.588C393.25,546.046 391.791,548.511 389.892,550.999C388.258,553.14 386.306,555.298 384.01,557.475C383.712,557.747 383.691,558.21 383.963,558.508C384.235,558.806 384.698,558.827 384.996,558.555C387.445,556.404 389.541,554.261 391.304,552.119C393.406,549.562 395.027,547.003 396.216,544.443C398.208,540.106 400.669,537.879 403.308,537.296C405.217,536.875 407.176,537.359 409.04,538.423C411.546,539.855 413.861,542.337 415.64,545.368C417.435,548.427 418.69,552.034 419.005,555.727C419.454,560.988 418.019,566.413 413.526,570.592C413.226,570.861 413.201,571.324 413.47,571.624C413.739,571.925 414.202,571.95 414.502,571.681ZM554.337,513.362C551.242,511.726 547.941,511.104 545.277,509.939C544.095,509.423 543.05,508.793 542.244,507.863C534.598,499.163 525.443,501.82 520.56,509.17C519.444,510.851 518.571,512.794 517.998,514.899C516.978,518.643 516.908,522.915 518.206,527.209C519.726,532.24 523.122,537.318 529.064,541.6C529.387,541.842 529.846,541.777 530.088,541.454C530.33,541.131 530.264,540.672 529.941,540.43C525.552,537.009 522.744,533.168 521.152,529.303C519.177,524.506 519.13,519.672 520.335,515.559C520.874,513.718 521.67,512.03 522.644,510.547C526.698,504.381 534.213,502.057 540.762,509.194C541.795,510.304 543.091,511.062 544.57,511.643C547.252,512.697 550.55,513.17 553.68,514.668C554.04,514.85 554.48,514.705 554.661,514.344C554.843,513.984 554.697,513.544 554.337,513.362ZM526.503,484.015C559.459,444.295 544.271,394.553 511.111,365.712C477.951,336.871 426.819,328.932 387.886,372.817C315.827,454.042 441.204,586.822 526.503,484.015ZM449.503,394.015C453.262,393.005 461.436,412.412 467.658,432.368C473.879,452.324 478.148,472.829 474.097,474.015C461.982,477.562 440.806,396.353 449.503,394.015ZM693.25,401.356C657.21,378.098 632.02,339.473 633.132,288.15C635.307,187.806 707.185,142.651 779.189,141.784C851.192,140.916 923.321,184.335 925.998,261.14C928.749,340.079 894.542,388.708 848.611,411.398C864.703,430.366 865.88,443.112 865,455C861.343,452.457 858.099,449.81 855.5,447C854.337,451.391 852.785,455.716 851,460C847.964,456.359 845.215,452.699 843,449C841.184,453.623 839.576,456.45 838,459C829.525,447.773 826.746,434.452 828.265,419.55C788.145,432.181 742.54,427.674 705.509,408.463C702.197,428.6 692.547,436.198 683,444C682.536,440.356 682.118,436.709 682.5,433C681.159,432.261 679.969,431.393 679,430.337C675.667,432.618 672.333,434.043 669,435.5C669.321,432.167 669.797,428.833 670.5,425.5C664.841,426.848 661.595,427.062 660,426.5C661.955,420.565 665.923,416.239 672.5,414C678.553,408.183 685.669,404.336 693.25,401.356ZM875.002,360C849.814,315.682 817.443,277.694 773.392,250C733.079,266.145 700.809,293.528 667.888,320C691.596,358.894 722.821,386.877 757.395,410C802.142,401.028 840.274,382.876 875.002,360ZM850,372.529L841,366L832,377L821,372L811,386L799,375L785,390L775,375L759,391L751,373L739,382L738,360L722,369L718,351L703.898,354.971L699,341L690,346C709.3,366.784 729.094,387.452 758,406C779.512,403.752 809.97,392.024 850,372.529ZM857.64,336.574C830.395,296.674 801.814,273.39 773,253C735.234,272.845 708.538,290.861 688,308L694,313L702,300.885L711,304L721,288L731,293L741,276L751,284L763,264L771.445,281L784,267L790,289L804,282L809,305L823,298L822,316L834,311L837,327L847,326L849,339L857.64,336.574Z" style="fill:white;"/>
    </g>
</svg>
