<?xml version="1.0" encoding="UTF-8" standalone="no"?>
<!DOCTYPE svg PUBLIC "-//W3C//DTD SVG 1.1//EN" "http://www.w3.org/Graphics/SVG/1.1/DTD/svg11.dtd">
<svg width="100%" height="100%" viewBox="0 0 1000 1000" version="1.1" xmlns="http://www.w3.org/2000/svg" xmlns:xlink="http://www.w3.org/1999/xlink" xml:space="preserve" xmlns:serif="http://www.serif.com/" style="fill-rule:evenodd;clip-rule:evenodd;stroke-linejoin:round;stroke-miterlimit:2;">
    <g transform="matrix(1.33235,0,0,1.33235,-169.837,-56.2546)">
        <path d="M772.556,484.998C741.761,622.286 619.031,725 472.5,725C302.786,725 165,587.214 165,417.5C165,247.786 302.786,110 472.5,110C619.04,110 741.776,212.726 772.557,350.002C772.707,350 772.853,350 773,350C810.254,350 840.5,380.246 840.5,417.5C840.5,454.754 810.254,485 773,485C772.851,485 772.701,485 772.556,484.998ZM763.944,388L251.312,388C265.113,283.703 351.073,202.039 457.325,194.884L460,189L482,189L485.124,194.727C579.204,199.982 657.805,263.642 685.216,350L742.363,350C712.175,229.077 602.731,139.375 472.5,139.375C318.999,139.375 194.375,263.999 194.375,417.5C194.375,571.001 318.999,695.625 472.5,695.625C603.084,695.625 712.769,605.436 742.611,484L685.53,484C657.214,574.704 572.495,640.625 472.5,640.625C349.354,640.625 249.375,540.646 249.375,417.5C249.375,414.323 249.442,411.161 249.574,408L294.781,408C294.615,411.147 294.531,414.314 294.531,417.5C294.531,515.724 374.276,595.469 472.5,595.469C561.019,595.469 634.531,530.703 648.194,446L778.694,446C778.68,446.156 778.665,446.313 778.652,446.458C792.233,443.819 802.5,431.849 802.5,417.5C802.5,401.219 789.281,388 773,388C771.185,388 769.407,388.164 767.683,388.479C766.488,388.166 765.235,388 763.944,388ZM634.54,448C616.595,521.177 550.518,575.531 471.847,575.531C393.176,575.531 327.099,521.177 309.154,448L634.54,448ZM569.526,486L374.168,486C397.083,514.661 432.337,533.031 471.847,533.031C511.357,533.031 546.611,514.661 569.526,486ZM513.086,442C512.376,439.352 512,436.589 512,433.75C512,414.019 530.147,398 552.5,398C574.853,398 593,414.019 593,433.75C593,436.589 592.624,439.352 591.914,442C587.69,426.24 571.636,417.5 552.5,417.5C533.364,417.5 517.31,426.24 513.086,442ZM350.586,442C349.876,439.352 349.5,436.589 349.5,433.75C349.5,414.019 367.647,398 390,398C412.353,398 430.5,414.019 430.5,433.75C430.5,436.589 430.124,439.352 429.414,442C425.19,426.24 409.136,417.5 390,417.5C370.864,417.5 354.81,426.24 350.586,442ZM637.202,350C610.588,285.205 546.836,239.531 472.5,239.531C398.164,239.531 334.412,285.205 307.798,350L637.202,350Z" style="fill:white;"/>
    </g>
</svg>
