<?xml version="1.0" encoding="UTF-8" standalone="no"?>
<!DOCTYPE svg PUBLIC "-//W3C//DTD SVG 1.1//EN" "http://www.w3.org/Graphics/SVG/1.1/DTD/svg11.dtd">
<svg width="100%" height="100%" viewBox="0 0 1000 1000" version="1.1" xmlns="http://www.w3.org/2000/svg" xmlns:xlink="http://www.w3.org/1999/xlink" xml:space="preserve" xmlns:serif="http://www.serif.com/" style="fill-rule:evenodd;clip-rule:evenodd;stroke-linejoin:round;stroke-miterlimit:2;">
    <g transform="matrix(3.34254,0,0,3.34254,-42.7329,-1168.28)">
        <path d="M183.53,538.274C187.835,534.635 191.165,530.398 193.918,525.806C212.96,524.842 229.741,538.868 240.083,557.776C247.346,571.056 251.727,589.047 252.399,613.104C244.975,611.089 237.8,608.125 230.935,603.977L231.02,604.343C232.778,612.029 233.354,619.647 232.983,627.211C210.311,619.138 194.554,609.412 184.169,598.401C169.382,582.722 161.228,562.427 168.029,544.615C173.33,543.398 178.466,541.499 183.324,538.447L183.53,538.274ZM140.505,537.589C145.295,540.558 150.354,542.417 155.572,543.615C162.373,561.427 154.219,581.722 139.432,597.401C129.047,608.412 113.29,618.138 90.618,626.211C90.241,618.527 90.842,610.787 92.666,602.977L92.344,603.171C85.578,607.218 78.51,610.12 71.202,612.104C71.874,588.047 76.255,570.056 83.518,556.776C93.86,537.868 110.641,523.842 129.683,524.806C132.479,529.471 135.872,533.769 140.277,537.447L140.505,537.589ZM197.134,497.716C195.004,492.498 192.004,488.021 188.487,483.984C193.455,465.576 211.98,453.95 233.158,449.958C248.032,447.153 266.497,448.546 289.584,455.342C285.373,461.78 280.337,467.688 274.271,472.935L274.645,472.967C282.498,473.67 289.921,475.476 297,478.167C282.316,497.235 268.197,509.215 254.516,515.689C235.035,524.907 213.214,526.39 198.375,514.418C198.855,509.001 198.637,503.529 197.235,497.965L197.134,497.716ZM127.443,496.226C126.1,501.699 125.896,507.085 126.368,512.418C111.529,524.39 89.708,522.907 70.228,513.689C56.546,507.215 42.427,495.235 27.743,476.167C34.934,473.434 42.481,471.613 50.473,470.935L50.189,470.688C44.249,465.504 39.305,459.679 35.16,453.342C58.247,446.546 76.711,445.153 91.585,447.958C112.764,451.95 131.289,463.576 136.257,481.984C132.684,486.085 129.644,490.64 127.508,495.965L127.443,496.226ZM161.977,472.019C156.356,472.433 151.171,473.903 146.245,476C130.274,465.587 124.941,444.376 127.688,423C129.618,407.988 136.648,390.857 150.245,371C155.067,376.994 159.13,383.609 162.245,391L162.392,390.654C165.487,383.403 169.499,376.901 174.245,371C187.842,390.857 194.873,407.988 196.803,423C199.55,444.376 194.217,465.587 178.245,476C173.241,473.869 167.97,472.386 162.245,472L161.977,472.019Z" style="fill:white;"/>
    </g>
</svg>
