<?xml version="1.0" encoding="UTF-8" standalone="no"?>
<!DOCTYPE svg PUBLIC "-//W3C//DTD SVG 1.1//EN" "http://www.w3.org/Graphics/SVG/1.1/DTD/svg11.dtd">
<svg width="100%" height="100%" viewBox="0 0 1000 1000" version="1.1" xmlns="http://www.w3.org/2000/svg" xmlns:xlink="http://www.w3.org/1999/xlink" xml:space="preserve" xmlns:serif="http://www.serif.com/" style="fill-rule:evenodd;clip-rule:evenodd;stroke-linejoin:round;stroke-miterlimit:2;">
    <g transform="matrix(1.04651,0,0,1.04651,-23.2558,-80.814)">
        <path d="M500,960.131L320,960.131L320,940.131C373.498,939.308 420.102,923.202 433.371,900.131C460.167,853.541 444.92,751.373 447,620.131C335.579,627.518 258.928,587.347 190,528.951C157.847,501.71 135.731,448.344 133.839,380.131C132.19,320.68 131.944,252.765 113.097,190.131C108.635,175.302 87.288,172.986 70,170.131L70,150.131C125.352,148.27 165.923,166.471 200,193.23C248.119,231.015 252.595,332.019 256.466,420.131C258.372,463.518 273.485,498.743 290,516.892C334.718,566.036 392.348,579.571 447,570.131C437.187,413.265 463.691,255.041 430,212.876C411.499,189.721 375.575,181.469 330,180.131L330,160.131L500,160.131L500,160L670,160L670,180C624.425,181.339 588.501,189.59 570,212.745C536.309,254.911 562.813,413.135 553,570C607.652,579.441 665.282,565.905 710,516.762C726.515,498.613 741.628,463.388 743.534,420C747.405,331.888 751.881,230.885 800,193.099C834.077,166.341 874.648,148.139 930,150L930,170C912.712,172.855 891.365,175.171 886.903,190C868.056,252.634 867.81,320.549 866.161,380C864.269,448.213 842.153,501.58 810,528.82C741.072,587.216 664.421,627.387 553,620C555.08,751.243 539.833,853.411 566.629,900C579.898,923.071 626.502,939.177 680,940L680,960L500,960L500,960.131Z" style="fill:white;"/>
    </g>
</svg>
