<?xml version="1.0" encoding="UTF-8" standalone="no"?>
<!DOCTYPE svg PUBLIC "-//W3C//DTD SVG 1.1//EN" "http://www.w3.org/Graphics/SVG/1.1/DTD/svg11.dtd">
<svg width="100%" height="100%" viewBox="0 0 1000 1000" version="1.1" xmlns="http://www.w3.org/2000/svg" xmlns:xlink="http://www.w3.org/1999/xlink" xml:space="preserve" xmlns:serif="http://www.serif.com/" style="fill-rule:evenodd;clip-rule:evenodd;stroke-linejoin:round;stroke-miterlimit:2;">
    <g transform="matrix(1.37971,0,0,1.37971,-171.114,-198.348)">
        <path d="M600,713.197C589.095,730.012 568.417,761.432 564.758,760C554.345,755.925 544.964,746.737 535.779,736.573L572.186,832.312L600,770L656.108,776.578L600,713.197ZM489,694C468.666,725.769 448.655,755.782 431,773C421.516,765.277 413.592,749.046 406,731L362,807L430,785L464,823C475.2,781.941 483.086,738.638 489,694ZM489,639C489.332,656.115 488.711,672.974 485,689C460.824,724.511 443.232,756.3 431,764C423.05,771.436 376.614,635.144 383,633L439,613C446.787,610.291 454.356,608.474 460,614L489,639ZM509,640C508.654,653.757 506.731,667.834 505,677C506.738,684.216 508.939,691.332 513,697.466C528.651,721.105 556.54,752.622 563.084,753.96C568.283,755.022 611.713,686.116 630,651C612.323,636.652 589.992,622.9 561,610C545.26,616.177 529.082,622.795 509,640ZM385.834,670.127C378.365,682.058 365.103,690 350,690C326.683,690 307.752,671.069 307.752,647.752C307.752,643.436 308.401,639.27 309.606,635.346C318.028,633.757 325.682,629.985 331.959,624.641C340.855,644.462 360.146,658.621 382.878,660.16C383.777,663.309 384.769,666.649 385.834,670.127ZM559.833,605.179C568.784,590.108 585.224,580 604.005,580C632.338,580 655.34,603.002 655.34,631.335C655.34,654.338 640.178,673.828 619.311,680.346C625.109,670.428 630.362,661.043 634.399,653.291C635.488,651.201 634.955,648.634 633.126,647.149C615.162,632.568 592.478,618.577 563.016,605.468C562.011,605.021 560.891,604.923 559.833,605.179ZM503.094,643.127C504.266,651.496 503.35,659.759 502,668C499.272,668.854 496.399,669.43 493,669C494.147,660.273 494.68,651.591 494,643C497.103,641.743 500.116,642.121 503.094,643.127ZM381.176,654.023C353.926,651.114 332.67,628.02 332.67,600C332.67,570.589 356.09,546.605 385.284,545.694C393.638,567.575 414.442,583.324 439.017,584.262C440.524,589.243 441.335,594.527 441.335,600C441.335,602.438 441.174,604.839 440.862,607.193C439.706,607.53 438.541,607.908 437.37,608.315C437.358,608.32 437.345,608.324 437.332,608.329L381.359,628.319C380.016,628.783 378.677,629.764 377.935,631.765C377.406,633.193 377.303,636.785 378.303,641.966C378.93,645.214 379.913,649.311 381.176,654.023ZM450.171,605.545C450.058,604.155 450,602.752 450,601.335C450,573.002 473.002,550 501.335,550C529.668,550 552.67,573.002 552.67,601.335C552.67,603.65 552.517,605.929 552.219,608.163C538.186,613.902 523.458,621.081 505.773,636.233C505.115,636.797 504.624,637.516 504.336,638.314C500.881,637.196 497.39,636.817 493.819,637.826C493.576,636.83 493.029,635.924 492.239,635.243L463.349,610.338C459.533,606.665 455.034,605.397 450.171,605.545ZM329.587,618.462C322.019,625.613 311.811,630 300.586,630C277.268,630 258.338,611.069 258.338,587.752C258.338,567.648 272.411,550.805 291.235,546.544C296.101,564.875 310.483,579.344 328.762,584.334C327.419,589.33 326.703,594.582 326.703,600C326.703,606.44 327.715,612.645 329.587,618.462ZM627.99,540.552C632.915,538.477 638.327,537.33 644.005,537.33C666.819,537.33 685.34,555.851 685.34,578.665C685.34,596.14 674.473,611.097 659.131,617.141C654.085,597.517 638.825,581.972 619.364,576.523C624.989,567.698 628.248,557.224 628.248,545.995C628.248,544.16 628.161,542.346 627.99,540.552ZM520.006,546.792C520.002,546.527 520,546.261 520,545.995C520,517.662 543.002,494.66 571.335,494.66C599.668,494.66 622.67,517.662 622.67,545.995C622.67,556.602 619.446,566.463 613.925,574.648C610.702,574.087 607.387,573.795 604.005,573.795C585.665,573.795 569.318,582.393 558.776,595.78L558.708,595.762C556.516,572.937 540.984,553.981 520.006,546.792ZM448.931,578.137C446.451,578.485 443.914,578.665 441.335,578.665C411.348,578.665 387.003,554.319 387.003,524.332C387.003,494.346 411.348,470 441.335,470C471.322,470 495.668,494.346 495.668,524.332C495.668,531.589 494.242,538.516 491.654,544.849C472.507,548.112 456.584,560.89 448.931,578.137ZM383.381,539.808C359.276,541.24 338.966,556.856 330.687,578.418C310.534,573.055 295.668,554.667 295.668,532.834C295.668,506.802 316.802,485.668 342.834,485.668C360.08,485.668 375.176,494.944 383.403,508.776C382.071,513.739 381.362,518.954 381.362,524.332C381.362,529.681 382.064,534.868 383.381,539.808ZM667.548,537.283C679.05,543.844 687.559,555.066 690.496,568.369C711.007,563.106 726.186,544.479 726.186,522.335C726.186,501.998 713.384,484.628 695.407,477.852C691.554,488.806 687.085,499.684 682.002,510.348C677.633,519.514 672.815,528.519 667.548,537.283ZM315.45,487.045C290.442,423.753 286.49,355.891 303.619,310C321.78,261.347 377.351,180 500,180L500.718,180.001C622.871,180.325 678.257,261.444 696.381,310C717.898,367.646 706.149,459.962 661.187,534.35C655.859,532.28 650.064,531.143 644.005,531.143C638.246,531.143 632.724,532.17 627.613,534.051C626.69,529.688 625.271,525.506 623.419,521.567C640.023,513.758 651.527,496.876 651.527,477.33C651.527,450.365 629.635,428.473 602.67,428.473C575.706,428.473 553.814,450.365 553.814,477.33C553.814,481.943 554.454,486.409 555.652,490.641C531.768,497.403 514.182,519.224 513.82,545.175C509.798,544.283 505.621,543.814 501.335,543.814C500.427,543.814 499.524,543.835 498.623,543.877C500.718,537.744 501.854,531.17 501.854,524.332C501.854,490.931 474.736,463.814 441.335,463.814C416.254,463.814 394.716,479.104 385.541,500.867C375.804,487.885 360.292,479.481 342.834,479.481C332.825,479.481 323.456,482.243 315.45,487.045ZM292.106,520.468C294.853,509.177 301.275,499.318 310.031,492.235C302.246,472.997 296.382,453.308 292.427,433.881C291.622,433.836 290.814,433.814 290,433.814C266.073,433.814 246.647,453.239 246.647,477.166C246.647,501.093 266.073,520.519 290,520.519C290.706,520.519 291.409,520.502 292.106,520.468ZM561.824,489.701C560.638,485.787 560,481.632 560,477.33C560,453.779 579.12,434.66 602.67,434.66C626.221,434.66 645.34,453.779 645.34,477.33C645.34,494.679 634.964,509.624 620.081,516.292C610.053,499.878 591.965,488.911 571.335,488.911C568.096,488.911 564.92,489.181 561.824,489.701Z" style="fill:white;"/>
    </g>
</svg>
