<?xml version="1.0" encoding="UTF-8" standalone="no"?>
<!DOCTYPE svg PUBLIC "-//W3C//DTD SVG 1.1//EN" "http://www.w3.org/Graphics/SVG/1.1/DTD/svg11.dtd">
<svg width="100%" height="100%" viewBox="0 0 1000 1000" version="1.1" xmlns="http://www.w3.org/2000/svg" xmlns:xlink="http://www.w3.org/1999/xlink" xml:space="preserve" xmlns:serif="http://www.serif.com/" style="fill-rule:evenodd;clip-rule:evenodd;stroke-linejoin:round;stroke-miterlimit:2;">
    <g transform="matrix(1.62125,0,0,1.65099,-310.625,-486.362)">
        <path d="M498,870C479.235,869.995 469.088,869.861 455,866C432.411,742.626 407.778,611.176 414.165,602.334C425.476,571.556 438.207,540.778 452.593,510C464.235,485.296 530.665,485.208 547.407,510C561.793,540.778 574.524,571.556 585.835,602.334C592.222,611.176 567.589,742.626 545,866C531.037,869.827 520.946,869.992 502.5,870L498,870ZM502.499,856.836L498,856.836L498,856.847C485.644,856.616 475.977,854.293 466.663,852.421L424.983,613.366C448.466,585.79 551.162,585.356 575.017,613.366L533.337,852.421C524.149,854.268 514.617,856.554 502.499,856.836ZM480,840L440,620C460,615.512 480,613.314 500,613.337C520,613.314 540,615.512 560,620L520,840C506.667,841.961 493.333,841.72 480,840ZM541.668,494.952C528.992,477.139 471.137,476.081 458.332,494.952C451.42,486.076 452.432,461.601 453,438C460.667,433.669 468.333,431.265 476,430L465,405L500,324.873L535,405L524,430C531.667,431.265 539.333,433.669 547,438C547.568,461.601 548.58,486.076 541.668,494.952Z" style="fill:white;"/>
    </g>
</svg>
