<?xml version="1.0" encoding="UTF-8" standalone="no"?>
<!DOCTYPE svg PUBLIC "-//W3C//DTD SVG 1.1//EN" "http://www.w3.org/Graphics/SVG/1.1/DTD/svg11.dtd">
<svg width="100%" height="100%" viewBox="0 0 1000 1000" version="1.1" xmlns="http://www.w3.org/2000/svg" xmlns:xlink="http://www.w3.org/1999/xlink" xml:space="preserve" xmlns:serif="http://www.serif.com/" style="fill-rule:evenodd;clip-rule:evenodd;stroke-linejoin:round;stroke-miterlimit:2;">
    <g transform="matrix(1.51601,0,0,1.51601,-162.241,25.1057)">
        <path d="M315.06,200C291.382,196.874 267.933,197.811 244.555,200C232.75,207.328 224.884,214.125 220,220.52C208.095,236.109 218.364,248.963 223.53,262C211.93,271.088 209.717,282.157 220,295.861C213.71,309.44 208.521,314.82 204.703,310C202.774,307.566 195.675,307.747 200,294.638C192.609,301.646 191.062,309.797 200,320C140.009,344.59 143.175,375.446 140,405.672C160.07,381.5 187.912,364.331 230,360C240.85,427.83 188.639,434.203 196.87,460C200.292,470.725 208.694,479.502 224.132,485.528C221.352,498.934 223.13,510.954 234.688,520C253.206,533.233 254.037,550.994 250,570C289.275,564.6 307.623,546.197 290,505.441C301.078,497.379 304.44,487.731 294.727,475.395C296.191,489.519 289.245,500.23 277.249,490C272.818,486.222 277.53,472.294 291.486,450C292.649,441.397 292.953,433.125 292.632,425.093C291.715,402.129 272.643,387.074 280,360L272,316.38C261.184,317.875 254.901,292.69 252.297,270C250.985,258.575 250.897,246.895 255.431,243.67C258.689,241.352 264.072,248.644 270,253.68C287.897,237.729 302.957,219.862 315.06,200ZM383.612,559.416C390.766,556.071 401.132,540.856 400,520C385.103,513.531 385.992,506.759 386.245,500C395.325,509.935 401.597,512.651 405.782,510C411.502,506.375 425.836,479.691 413.075,473.759C389.949,463.007 408.686,413.165 405.376,380C412.84,364.157 421.108,348.932 424.556,330C435.656,333.383 443.723,313.552 447.23,304.684C451.576,293.694 456.99,246.298 444.104,270L424.849,220C439.674,225.344 453.059,231.522 462.468,240C479.008,263.113 475.72,284.899 460,305.854C472.175,327.058 468.565,348.478 457.431,370C460.039,385.184 494.615,393.95 497.083,405.707C498.957,414.636 494.901,423.485 485.528,432.262C470.959,415.109 459,406.512 447.677,400C442.691,409.854 460.92,419.157 462.796,430C465.688,446.716 454.567,466.037 452.739,485.141C457.321,505.093 478.827,519.304 477.216,530C475.232,543.173 458.379,549.867 426.464,550C407.848,555.096 390.807,558.205 383.612,559.416C382.26,560.049 381.023,560.257 380,560C380,560 381.296,559.806 383.612,559.416ZM578.165,305.574C576.886,336.125 588.89,340.679 570.234,343.365C558.882,344.999 563.621,331.235 556.614,289.06C548.097,279.952 541.826,269.575 540.234,256.554C527.814,228.477 530.092,221.473 547.774,236.554C527.015,228.228 547.785,275.905 565.504,286.554L578.165,305.574ZM710.234,245.751C714.093,247.577 718.107,246.582 722.417,240.221C724.289,220.593 725.812,201.858 720.417,200.797C714.826,191.872 712.512,209.067 710.234,226.554C707.105,188.394 715.825,184.296 730.234,196.554C729.931,234.55 721.842,267.217 730.234,289.629C736.731,306.982 733.649,316.776 723.962,314.059C704.817,308.69 716.185,297.384 710.234,245.751ZM315.121,178.84C321.651,178.951 328.183,179.172 334.718,179.537L332.142,172.374L342.131,180.015C346.764,180.355 351.395,180.774 356.025,181.284L350,171.886L363.743,182.222C368.337,182.832 372.928,183.539 377.515,184.355L377.161,180L382.535,185.291C384.149,185.606 385.762,185.936 387.375,186.279L400,184.311L395.538,188.146C403.707,190.144 411.863,192.537 420,195.392L420,190L424.396,196.98C430.326,199.185 436.244,201.641 442.149,204.376L450,204.376L450,208.181C454.185,210.301 458.372,212.573 462.551,215C462.601,215.132 462.649,215.264 462.696,215.397L472.569,215.268L463.67,218.618C464.055,220.153 464.333,221.687 464.533,223.222L474.07,230L464.861,226.651C464.934,227.767 464.976,228.883 465,230C454.177,223.539 442.976,217.962 431.436,213.194L433.306,217.353L427.04,211.423C412.651,205.772 397.736,201.337 382.352,197.969L373.243,204.376L374.396,196.33C360.487,193.64 346.21,191.785 331.601,190.657L320,194.634L322.943,190.075C313.538,189.535 304.004,189.283 294.352,189.291L286.45,193.384L286.836,189.349C280.838,189.436 274.794,189.62 268.708,189.893L267.777,190L255.115,194.249L258.098,190.457C255.411,190.621 252.709,190.803 250,191C250.029,190.733 250.063,190.467 250.103,190.2L237.546,192.943L250,185.629L237.741,180L253.148,181.555C253.42,181.036 253.704,180.518 254,180C259.645,179.785 265.297,179.573 270.958,179.387L267.793,174.224L280.345,179.105C289.917,178.849 299.5,178.701 309.079,178.768L302.524,170L315.121,178.84ZM704.395,216.554C709.596,206.734 706.174,190.455 710.234,185.866C712.515,183.288 715.71,183.148 720.234,186.554C720.883,179.48 719.913,172.704 715.543,166.554C718.245,162.884 717.458,159.585 714.164,156.554C717.485,149.469 717.06,142.7 709.234,136.554C708.559,129.53 706.741,124.321 700.234,126.554C702.829,115.63 699.756,109.095 690.234,107.554C689.895,101.083 686.209,97.746 680.234,96.554C673.567,92.302 666.9,89.997 660.234,90.645C658.656,84.927 654.993,84.38 650.234,86.554C655.059,80.465 652.788,75.803 644.637,72.321C642.094,64.933 637.107,62.051 630.234,62.646C624.312,56.657 618.024,53.322 610.234,60.869C600.425,55.011 593.983,57.104 590.234,65.554C581.282,61.812 576.263,65.124 573.234,72.005C566.457,74.328 564.971,79.615 566.434,86.554C561.638,88.738 559.717,93.32 560.234,99.938C552.12,100.312 550.309,105.89 550.234,112.901C539.985,112.589 536.161,118.099 535.586,126.554C529.828,126.967 527.531,130.587 527.763,136.554C518.572,141.512 518.884,146.957 522.234,152.559C519.504,159.116 519.407,164.791 521.234,169.821C519.576,178.283 521.309,184.195 527.763,186.554C518.716,195.359 522.56,201.371 530.234,206.554C527.722,219.574 532.917,224.217 540.234,226.554C537.77,210.496 537.332,197.346 537.77,186.554C540.198,126.679 573.407,154.148 610.234,138.8C639.825,126.468 668.281,127.25 674.561,132.943C690.883,147.739 684.378,177.478 700.234,187.832C708.683,193.349 704.284,207.418 704.395,216.554ZM464.714,205.428C437.152,192.027 409.151,180.675 380,176.139L374.053,160L360,173.51C315.623,163.735 282.213,168.147 250,174.105C230.805,177.656 307.757,117.153 340,118.874C349.644,119.389 359.608,122.777 370,130C380.192,124.223 390.181,123.415 400,126.79C422.327,134.463 441.835,169.094 464.714,205.428ZM603.598,157.554C607.812,157.554 611.234,160.975 611.234,165.189C611.234,169.403 607.812,172.824 603.598,172.824C599.384,172.824 595.963,169.403 595.963,165.189C595.963,160.975 599.384,157.554 603.598,157.554Z" style="fill:white;"/>
    </g>
</svg>
