<?xml version="1.0" encoding="UTF-8" standalone="no"?>
<!DOCTYPE svg PUBLIC "-//W3C//DTD SVG 1.1//EN" "http://www.w3.org/Graphics/SVG/1.1/DTD/svg11.dtd">
<svg width="100%" height="100%" viewBox="0 0 1000 1000" version="1.1" xmlns="http://www.w3.org/2000/svg" xmlns:xlink="http://www.w3.org/1999/xlink" xml:space="preserve" xmlns:serif="http://www.serif.com/" style="fill-rule:evenodd;clip-rule:evenodd;stroke-linejoin:round;stroke-miterlimit:2;">
    <g transform="matrix(1.62744,0,0,1.62744,-313.719,-767.225)">
        <path d="M500,748.518C505.44,748.518 510.58,748.044 516,748C518.721,747.049 521.773,746.435 525,746C531.678,740.827 538.533,735.932 546,732C550.667,731.349 555.333,731.022 560,731L569,744C558.345,745.227 553.976,745.295 549,749.287C545.483,752.108 542.702,756.22 540.427,762C534.818,776.247 543.574,793.522 560,813C617.566,824.502 677.873,829.357 708,817C725.213,794.946 736.368,771.597 737,746C733.795,741.912 730.46,738.658 724,738L692,735L699,718C715.436,718.503 730.96,719.405 742,722.268C749.317,724.165 752.426,728.904 757,731C765.864,731.5 775.622,734.795 776,740C777.342,758.5 776.25,764.727 770,771.458C765.323,776.494 757.77,781.13 747,785C740.81,798.543 731.449,811.391 721,824C713.642,832.88 703.888,838.633 692,839C646.033,840.418 602.131,837.273 561,828C551.834,825.949 548.395,824.253 545,819C535.594,804.447 525.284,791.079 518.665,775.365C512.738,775.662 508.193,776.144 500,776C491.807,776.144 487.262,775.662 481.335,775.365C474.716,791.079 464.406,804.447 455,819C451.605,824.253 448.166,825.949 439,828C397.869,837.273 353.967,840.418 308,839C296.112,838.633 286.358,832.88 279,824C268.551,811.391 259.19,798.543 253,785C242.23,781.13 234.677,776.494 230,771.458C223.75,764.727 222.658,758.5 224,740C224.378,734.795 234.136,731.5 243,731C247.574,728.904 250.683,724.165 258,722.268C269.04,719.405 284.564,718.503 301,718L308,735L276,738C269.54,738.658 266.205,741.912 263,746C263.632,771.597 274.787,794.946 292,817C322.127,829.357 382.434,824.502 440,813C456.426,793.522 465.182,776.247 459.573,762C457.298,756.22 454.517,752.108 451,749.287C446.024,745.295 441.655,745.227 431,744L440,731C444.667,731.022 449.333,731.349 454,732C461.467,735.932 468.322,740.827 475,746C478.227,746.435 481.279,747.049 484,748C489.42,748.044 494.56,748.518 500,748.518Z" style="fill:white;"/>
    </g>
</svg>
