<?xml version="1.0" encoding="UTF-8" standalone="no"?>
<!DOCTYPE svg PUBLIC "-//W3C//DTD SVG 1.1//EN" "http://www.w3.org/Graphics/SVG/1.1/DTD/svg11.dtd">
<svg width="100%" height="100%" viewBox="0 0 1000 1000" version="1.1" xmlns="http://www.w3.org/2000/svg" xmlns:xlink="http://www.w3.org/1999/xlink" xml:space="preserve" xmlns:serif="http://www.serif.com/" style="fill-rule:evenodd;clip-rule:evenodd;stroke-linejoin:round;stroke-miterlimit:2;">
    <g transform="matrix(4.61538,0,0,4.61538,30.5339,-411.538)">
        <path d="M78.459,228.706C61.403,222.241 47.69,208.959 40.653,192.194C48.474,186.442 47.92,169.844 36.36,155.785C41.492,124.168 68.946,100 102,100C134.816,100 162.111,123.821 167.525,155.104C155.153,169.612 154.69,187.09 163.192,192.559C156.05,209.294 142.238,222.514 125.102,228.871C124.704,231.914 122.608,234.957 118,238C125.436,250.178 123.285,260.062 113,268L113,270L120,270L120,279L113,279L113,283L120,283L120,292L112,292L112,295L89,295L89,267C78.814,261.124 79.258,250.696 85,238C79.987,234.902 78.321,231.804 78.459,228.706ZM102,240C108.071,240 113,244.929 113,251C113,257.071 108.071,262 102,262C95.929,262 91,257.071 91,251C91,244.929 95.929,240 102,240ZM72.019,203.174C80.481,209.203 90.83,212.75 102,212.75C113.153,212.75 123.487,209.214 131.943,203.201L101.943,192.533L72.019,203.174ZM132.002,170.694L132.877,202.521C145.541,193.086 153.75,177.994 153.75,161C153.75,155.602 152.922,150.396 151.385,145.502L132.002,170.694ZM52.582,145.607C51.066,150.473 50.25,155.642 50.25,161C50.25,177.943 58.41,192.995 71.011,202.437L71.884,170.694L52.582,145.607ZM188.809,159.555C195.866,162.865 196.559,167.273 187.951,173.285C199.023,175.244 184.37,190.194 176.872,189.588C181.456,175.385 175.849,172.2 171.49,173.714C169.774,174.31 169.302,176.744 168.215,178.433C170.098,175.658 171.834,175.373 173.363,175.19C176.87,174.77 178.369,181.676 176.535,187.014C176.072,188.364 176.313,189.45 175.937,189.588C152.842,197.988 152.51,155.895 190.525,142.589C196.566,140.475 200.735,150.916 188.809,159.555ZM14.626,159.555C7.57,162.865 6.877,167.273 15.485,173.285C4.412,175.244 19.065,190.194 26.563,189.588C21.979,175.385 27.586,172.2 31.945,173.714C33.661,174.31 34.134,176.744 35.221,178.433C33.337,175.658 31.602,175.373 30.072,175.19C26.566,174.77 25.067,181.676 26.9,187.014C27.363,188.364 27.123,189.45 27.498,189.588C50.593,197.988 50.925,155.895 12.91,142.589C6.869,140.475 2.701,150.916 14.626,159.555ZM120.52,135.357L151.006,144.344C144.13,124.132 125.094,109.524 102.631,109.254L120.52,135.357ZM101.254,109.255C78.858,109.572 59.883,124.147 53.006,144.306L83.365,135.357L101.254,109.255Z" style="fill:white;"/>
    </g>
</svg>
