<?xml version="1.0" encoding="UTF-8" standalone="no"?>
<!DOCTYPE svg PUBLIC "-//W3C//DTD SVG 1.1//EN" "http://www.w3.org/Graphics/SVG/1.1/DTD/svg11.dtd">
<svg width="100%" height="100%" viewBox="0 0 1000 1000" version="1.1" xmlns="http://www.w3.org/2000/svg" xmlns:xlink="http://www.w3.org/1999/xlink" xml:space="preserve" xmlns:serif="http://www.serif.com/" style="fill-rule:evenodd;clip-rule:evenodd;stroke-linejoin:round;stroke-miterlimit:2;">
    <g transform="matrix(1.00823,0,0,1.00823,-53.5811,49.2401)">
        <path d="M357.578,858.589C348.84,850.801 333.817,851.276 322.529,856.767C311.24,862.258 303.685,872.765 309.88,885.041C323.408,911.847 366.26,866.326 357.578,858.589ZM399.073,858.68C496.108,885.3 589.265,871.914 722.185,775.185C786.249,728.564 787.532,732.489 825.145,706.486C814.614,704.929 790.36,714.314 757.302,730.719C786.917,690.469 800.411,645.443 790.073,645.066C785.314,644.892 779.474,701.174 675.389,789.006C704.745,751.973 710.267,727.751 701.459,711.232C674.302,797.666 592.715,836.548 482.475,850.397C458.337,853.429 419.834,847.538 399.073,858.68ZM371.719,867.01C361.665,858.643 355.669,848.759 354.333,840.647C352.997,832.534 356.321,826.192 364.911,824.909C383.916,822.07 380.226,847.639 371.719,867.01ZM305.657,841.081C305.508,847.955 302.272,849.133 298.833,852.354C289.494,861.1 269.959,867.773 261.43,850.95C254.881,838.033 270.398,829.231 287.468,835.795C292.727,837.817 305.8,834.53 305.657,841.081ZM344.599,796.201C327.106,798.417 316.661,805.765 313.601,815.023C310.541,824.281 314.867,835.448 326.915,845.301C344.575,859.743 363.383,793.822 344.599,796.201ZM245.339,822.773C266.225,833.133 247.228,840.084 223.714,845.072C204.034,849.247 187.212,829.489 182.438,819.169C178.005,809.587 183.75,803.206 193.389,800.239C208.58,795.562 218.806,798.048 222.663,807.544C226.09,815.98 239.734,819.992 245.339,822.773ZM305.626,828.027C287.57,838.281 270.463,816.095 270.506,795.225C270.519,788.556 273.24,785.359 281.341,784.815C282.901,784.711 284.214,783.137 285.872,781.997C303.293,770.023 315.627,779.777 308.084,794.621C304.011,802.636 313.519,823.544 305.626,828.027ZM260.213,820.392C236.567,822.609 215.911,777.078 230.647,773.646C241.95,771.013 252.433,776.917 251.128,788.6C249.998,798.707 268.503,819.615 260.213,820.392ZM214.236,790.775C206.293,795.265 199.656,781.358 189.435,775.745C180.25,770.703 176.459,761.853 178.242,751.477C180.454,738.596 179.632,730.337 184.983,722.394C199.471,700.884 230.546,712.312 220.916,735.58C216.66,745.865 218.28,788.49 214.236,790.775ZM183.006,782.95C159.441,783.499 139.612,773.747 151.266,764.696C155.263,761.591 160.261,761.109 165.303,762.852C173.315,765.622 181.073,773.562 183.006,782.95ZM145.493,725.809C157.949,708.755 174.295,736.045 169.322,756.511C163.796,756.539 161.013,751.494 155.309,749.379C140.449,743.868 138.083,735.953 145.493,725.809ZM903.894,595.739C908.515,608.82 880.401,644.869 843.376,620.936C838.05,617.494 822.299,623.099 824.633,617.766C854.009,550.644 900.517,586.178 903.894,595.739ZM804.469,609.797C787.094,618.611 761.346,593.189 732.798,581.022C717.189,574.37 708.562,564.712 715.463,551.774C722.884,537.861 751.503,520.352 769.131,522.033C801.934,525.163 826.483,598.629 804.469,609.797ZM823.661,562.875C833.34,552.471 835.057,546.791 838.853,539.988C855.649,509.881 874.954,522.288 881.612,531.8C893.092,548.203 852.958,578.206 823.661,562.875ZM754.27,460.342C746.394,478.624 801.257,542.624 818.623,540.434C829.018,539.123 818.273,479.729 801.751,468.88C790.178,461.281 758.228,451.155 754.27,460.342ZM834.212,502.63C840.604,513.548 857.64,509.622 872.075,514.961C894.99,523.437 960.21,483.808 956.556,442.988C955.319,429.167 923.141,407.862 913.994,404.513C911.041,403.432 875.044,416.705 875.251,428.121C875.597,447.235 854.239,473.111 838.336,486.619C832.245,491.793 832.191,499.178 834.212,502.63ZM826.306,477.255C840.525,463.467 831.497,400.906 802.509,381.187C787.953,371.285 768.306,364.185 746.235,366.89C741.596,367.458 729.739,392.111 728.964,396.57C725.716,415.252 747.517,434.592 777.716,442.222C807.453,449.735 826.306,477.255 826.306,477.255ZM851.053,435.587C866.652,433.052 901,356.368 882.431,346.913C872.873,342.047 846.804,348.21 841.038,359.469C833.754,373.692 842.598,436.96 851.053,435.587ZM819.539,376.135C819.866,381.203 810.643,361.547 791.536,360.39C771.815,359.196 756.727,343.516 759.908,320.052C761.705,306.791 778.301,290.503 791.016,294.675C812.951,301.874 828.677,374.498 819.539,376.135ZM823.937,307.531C815.554,309.005 807.873,226.05 832.735,223.356C865.607,219.794 902.096,255.12 893.644,282.494C885.23,309.748 867.366,323.136 849.791,314.404C839.199,309.141 827.335,311.129 823.937,307.531ZM803.988,281.449C783.385,285.818 762.742,287.224 748.169,284.225C733.596,281.225 725.092,273.82 728.769,260.565C739.736,221.028 785.594,253.722 803.988,281.449ZM795.509,243.53C786.591,226.629 783.087,206.673 775.677,189.06C771.057,178.082 777.773,145.42 790.173,147.604C801.141,149.537 808.178,154.926 814.733,157.497C846.672,170.026 816.465,214.158 795.509,243.53ZM776.769,233.682C754.036,232.509 734.437,222.179 713.627,219.967C689.681,217.422 648.661,208.34 666.304,188.985C716.881,133.498 762.249,192.663 776.769,233.682ZM752.167,167.465C749.193,145.897 739.601,131.167 733.678,118.163C720.383,88.974 729.028,51.89 744.162,44.622C750.221,41.712 753.127,55.394 764.154,68.444C781.063,88.456 782.518,123.783 767.539,145.112C762.694,152.013 763.962,170.058 752.167,167.465ZM740.345,146.718C723.939,155.544 704.999,158.594 691.191,156.198C677.383,153.802 668.707,145.961 672.827,133.006C686.441,90.198 727.161,112.355 740.345,146.718ZM698.486,98.593C690.309,89.83 680.824,81.813 667.328,76.081C649.425,90.948 644.573,85.918 645.18,72.566C616.297,80.304 605.55,80.942 613.746,96.478C623.09,114.191 640.934,125.372 662.617,114.755C667.389,112.419 671.357,107.276 679.128,108.218C686.588,109.123 693.492,105.916 698.486,98.593ZM682.838,68.835C687.653,63.785 691.58,66.1 691.514,64.207C691.413,61.276 686.362,54.989 678.981,62.067C650.369,23.711 661.572,6.093 667.743,3.922C683.513,-1.624 725.023,34.668 712.392,70.117C711.857,71.618 709.12,71.05 707.04,71.249C708.359,88.415 705.062,96.745 682.838,68.835ZM666.128,60.629C668.417,39.966 617.391,-16.229 600.33,5.777C598.965,7.538 596.414,7.801 594.539,7.443C583.039,5.243 569.915,8.891 572.137,24.83C572.502,27.442 572.247,27.255 570.888,30.407C563.228,48.176 579.237,62.482 603.43,62.951C618.534,63.244 638.829,55.454 653.554,63.809C656.023,65.21 665.526,61.002 666.128,60.629Z" style="fill:white;"/>
    </g>
</svg>
