<?xml version="1.0" encoding="UTF-8" standalone="no"?>
<!DOCTYPE svg PUBLIC "-//W3C//DTD SVG 1.1//EN" "http://www.w3.org/Graphics/SVG/1.1/DTD/svg11.dtd">
<svg width="100%" height="100%" viewBox="0 0 1000 1000" version="1.1" xmlns="http://www.w3.org/2000/svg" xmlns:xlink="http://www.w3.org/1999/xlink" xml:space="preserve" xmlns:serif="http://www.serif.com/" style="fill-rule:evenodd;clip-rule:evenodd;stroke-linejoin:round;stroke-miterlimit:2;">
    <g transform="matrix(0.947368,0,0,0.947368,26.3158,26.3641)">
        <path d="M797.833,464.188C805.285,456.436 810.562,447.67 814.017,438.309C836.564,377.219 818.98,359.471 776.648,344.353C920.173,330.492 921.246,379.023 842.685,452.077C837.239,457.141 837.224,466.231 834.506,473.762C834.327,474.258 834.101,474.727 833.837,475.174C916.526,508.275 975,589.182 975,683.639C975,807.517 874.427,908.09 750.549,908.09C657.715,908.09 577.969,851.608 543.834,771.171C541.129,772.105 538.712,773.202 536.538,774.411C519.047,784.133 506.702,807.599 522.713,824.573C548.686,852.109 566.437,881.6 567.857,908.09C499.506,929.542 470.65,918.109 459.271,882.219C434.637,804.528 464.618,744.697 526.411,671.728C532.62,553.369 630.673,459.189 750.549,459.189C766.765,459.189 782.581,460.912 797.833,464.188ZM660.769,656.705C675.634,656.705 687.703,668.774 687.703,683.639C687.703,698.505 675.634,710.573 660.769,710.573C645.904,710.573 633.835,698.505 633.835,683.639C633.835,668.774 645.904,656.705 660.769,656.705ZM849.308,656.705C864.173,656.705 876.242,668.774 876.242,683.639C876.242,698.505 864.173,710.573 849.308,710.573C834.442,710.573 822.374,698.505 822.374,683.639C822.374,668.774 834.442,656.705 849.308,656.705ZM285.989,81C430.033,81 546.978,197.945 546.978,341.989C546.978,486.033 430.033,602.978 285.989,602.978C141.945,602.978 25,486.033 25,341.989C25,197.945 141.945,81 285.989,81ZM181.593,310.67C198.879,310.67 212.912,324.704 212.912,341.989C212.912,359.274 198.879,373.308 181.593,373.308C164.308,373.308 150.275,359.274 150.275,341.989C150.275,324.704 164.308,310.67 181.593,310.67ZM400.824,310.67C418.11,310.67 432.143,324.704 432.143,341.989C432.143,359.274 418.11,373.308 400.824,373.308C383.539,373.308 369.506,359.274 369.506,341.989C369.506,324.704 383.539,310.67 400.824,310.67Z" style="fill:white;"/>
    </g>
</svg>
