<?xml version="1.0" encoding="UTF-8" standalone="no"?>
<!DOCTYPE svg PUBLIC "-//W3C//DTD SVG 1.1//EN" "http://www.w3.org/Graphics/SVG/1.1/DTD/svg11.dtd">
<svg width="100%" height="100%" viewBox="0 0 1000 1000" version="1.1" xmlns="http://www.w3.org/2000/svg" xmlns:xlink="http://www.w3.org/1999/xlink" xml:space="preserve" xmlns:serif="http://www.serif.com/" style="fill-rule:evenodd;clip-rule:evenodd;stroke-linejoin:round;stroke-miterlimit:2;">
    <g transform="matrix(5.29412,0,0,5.29412,-2845.88,-1924.71)">
        <path d="M552,543L576,392L632,373L688,392L712,543L552,543ZM642,448C645.6,437.161 645.707,429.245 638,424C659.935,422.468 676.003,419.225 651,404L601,411L615,427L626,426L625,451L599,454C604.326,468.708 612.75,471.399 623,467L623,490C605.084,491.705 589.556,493.652 578,496C582.212,505.386 591.271,513.735 594,512.869C602.755,510.093 613.687,507.578 625,505C647.916,502.778 663.348,504.21 676,507C685.589,508.742 688.386,506.284 685,500C681.846,495.004 676.986,490.755 671,487L638,488L640,465L658,465C665.672,463.897 664.715,459.047 661,453C658.473,450.477 655.519,447.715 652,448.114C648.995,448.455 645.653,447.433 642,448ZM644,471C648.623,477.456 652.383,480.973 656,484C663.622,487.09 664.216,482.629 660,473C653.195,466.762 647.907,466.267 644,471Z" style="fill:white;"/>
    </g>
</svg>
