<?xml version="1.0" encoding="UTF-8" standalone="no"?>
<!DOCTYPE svg PUBLIC "-//W3C//DTD SVG 1.1//EN" "http://www.w3.org/Graphics/SVG/1.1/DTD/svg11.dtd">
<svg width="100%" height="100%" viewBox="0 0 1000 1000" version="1.1" xmlns="http://www.w3.org/2000/svg" xmlns:xlink="http://www.w3.org/1999/xlink" xml:space="preserve" xmlns:serif="http://www.serif.com/" style="fill-rule:evenodd;clip-rule:evenodd;stroke-linejoin:round;stroke-miterlimit:2;">
    <g transform="matrix(2.58621,0,0,2.58621,-704.959,-1036.21)">
        <path d="M484,463C501.275,450.251 530.468,436.895 547.59,424C548.917,423.001 549.407,421.343 550,420C548.3,420.159 546.5,419.958 545,420.665C516.874,433.927 503.048,444.281 487,450C481.493,435.532 474.22,428.63 464,430.121C459.106,430.835 453.898,429.275 453.5,430.5C452.535,433.471 447.653,433.026 446.5,434.114C445.82,434.755 446.51,437.143 445,438.819C438.126,446.452 437.35,450.044 439,451C439.243,452.557 439.834,454.093 439.484,455.5C437.731,462.548 437.008,468.886 438,476C433.575,481.582 429.24,481.67 425,476C422.285,476.349 420.815,478.263 420,481C425.918,483.368 429.379,485.28 421,485C417.591,484.943 415.428,486.41 415,490C408.647,487.985 403.914,490.777 400,496C400.146,499.721 399.235,502.927 396,505L383,511C380.551,515.694 382.001,517.611 387,517L399,508C405.642,508.811 406.135,512.157 403,517C405.24,533.363 407.748,549.72 414,566C417.385,572.175 421.284,574.265 426,567C431.426,558.056 435.025,549.04 438,540C441.143,532.354 443.905,527.368 444,541L445,553C445.325,561.967 443.69,569.654 440,576C439.173,579.569 437.938,583.533 436.269,588C434.269,593.354 434.135,599.512 434,606L418,740C416.44,744.199 417.771,747.425 424,749C429.842,751.104 434.575,754.148 436,760C436.232,765.628 436.959,767.886 438,768C440.45,764.637 438.959,751.669 438,740C442.921,737.417 447.477,735.973 449,744C469.378,754.326 510.545,741 502,741C502.916,733.035 509.449,734.351 518,739C521.161,739.667 527.758,741.279 529.166,745C533.047,755.26 531.476,762.065 534,761C535.057,757.249 535.238,752.792 535,748L540,739C518.799,679.584 503.246,615.175 501,539C500.532,535.299 500.53,530.731 501.91,524C502.93,519.018 502.051,513.941 502,509C502.011,502.287 499.282,498.043 493,497C488.865,494.707 488.494,492.377 493,490C490.054,485.58 485.683,482.961 480,482C475.994,478.535 477.715,476.211 480,474C481.854,470.523 483.097,466.824 484,463ZM431,510C428.199,506.09 425.281,502.518 422,500C419.381,505.131 418.588,513.258 420,525C421.948,536.467 424.281,537.133 427,527L431,510ZM429.5,492.5C428.393,492.563 427.734,492.928 427.432,493.531C427.129,494.135 427.182,494.979 427.5,496C431.181,496.273 431.493,494.937 429.5,492.5ZM440,487L437,490C434.255,492.226 436.161,493.674 436.5,494.461C437.131,495.922 438.612,496.331 440.5,494L442.5,491.5C444.986,487.125 442.565,487.001 440,487Z" style="fill:white;"/>
    </g>
</svg>
