<?xml version="1.0" encoding="UTF-8" standalone="no"?>
<!DOCTYPE svg PUBLIC "-//W3C//DTD SVG 1.1//EN" "http://www.w3.org/Graphics/SVG/1.1/DTD/svg11.dtd">
<svg width="100%" height="100%" viewBox="0 0 1000 1000" version="1.1" xmlns="http://www.w3.org/2000/svg" xmlns:xlink="http://www.w3.org/1999/xlink" xml:space="preserve" xmlns:serif="http://www.serif.com/" style="fill-rule:evenodd;clip-rule:evenodd;stroke-linejoin:round;stroke-miterlimit:2;">
    <g transform="matrix(6.49804,0,0,6.49804,-2874.12,-3428.27)">
        <path d="M545.373,652.627C546.017,652.195 549.965,654.069 549.659,654.85C549.479,655.308 546.241,657.442 545.792,657.437C544.953,657.429 544.728,653.058 545.373,652.627ZM492.233,648.429C492.253,648.41 492.274,648.392 492.296,648.376C492.591,648.154 493.011,648.214 493.232,648.509C493.454,648.804 493.394,649.224 493.099,649.445C493.077,649.462 493.054,649.477 493.03,649.49L490.876,650.724L493.358,650.77C493.385,650.77 493.413,650.772 493.44,650.776C493.805,650.828 494.059,651.167 494.007,651.532C493.955,651.898 493.616,652.152 493.251,652.1C493.224,652.096 493.197,652.09 493.17,652.083L490.775,651.433L492.498,653.219C492.517,653.239 492.535,653.26 492.551,653.282C492.773,653.577 492.713,653.997 492.418,654.218C492.123,654.44 491.703,654.38 491.482,654.085C491.465,654.063 491.45,654.04 491.436,654.016L490.203,651.862L490.157,654.344C490.157,654.371 490.155,654.399 490.151,654.426C490.099,654.791 489.76,655.045 489.395,654.993C489.029,654.941 488.775,654.602 488.827,654.237C488.831,654.21 488.837,654.183 488.844,654.156L489.494,651.761L487.707,653.484C487.688,653.503 487.667,653.521 487.645,653.537C487.35,653.759 486.93,653.699 486.709,653.404C486.487,653.109 486.547,652.689 486.842,652.468C486.864,652.451 486.887,652.436 486.911,652.422L489.065,651.189L486.583,651.143C486.556,651.143 486.528,651.141 486.501,651.137C486.136,651.085 485.882,650.746 485.934,650.381C485.986,650.015 486.325,649.761 486.69,649.813C486.717,649.817 486.744,649.823 486.771,649.83L489.166,650.48L487.443,648.693C487.424,648.674 487.406,648.653 487.39,648.631C487.168,648.336 487.228,647.916 487.523,647.695C487.818,647.473 488.238,647.533 488.459,647.828C488.476,647.85 488.491,647.873 488.504,647.897L489.738,650.051L489.784,647.569C489.784,647.542 489.786,647.514 489.79,647.487C489.842,647.122 490.181,646.868 490.546,646.92C490.912,646.972 491.166,647.311 491.114,647.676C491.11,647.703 491.104,647.73 491.097,647.757L490.447,650.152L492.233,648.429ZM464.206,638.892C465.565,640.748 460.503,652.683 458.149,651.874C456.77,651.399 450.043,642.067 450,640.735C449.921,638.246 462.848,637.036 464.206,638.892ZM510.668,587.665C510.453,587.358 510.281,587.012 510.165,586.635C509.564,584.69 510.656,582.623 512.602,582.023C512.747,581.978 512.894,581.942 513.044,581.916L526.529,579.519L513.723,574.661C513.581,574.607 513.443,574.544 513.308,574.473C511.509,573.522 510.819,571.289 511.77,569.489C512.721,567.689 514.955,567 516.755,567.951C516.889,568.022 517.019,568.101 517.143,568.188L528.373,576.029L522.753,563.538C522.691,563.4 522.637,563.258 522.593,563.113C521.992,561.167 523.084,559.101 525.029,558.5C526.975,557.9 529.041,558.992 529.642,560.937C529.686,561.082 529.722,561.23 529.749,561.38L532.145,574.865L537.003,562.059C537.057,561.917 537.12,561.778 537.191,561.644C538.142,559.844 540.375,559.155 542.175,560.106C543.975,561.057 544.664,563.29 543.713,565.09C543.642,565.225 543.563,565.354 543.476,565.479L535.635,576.709L548.126,571.089C548.264,571.027 548.407,570.973 548.552,570.928C550.497,570.328 552.563,571.42 553.164,573.365C553.764,575.31 552.672,577.377 550.727,577.977C550.582,578.022 550.434,578.058 550.285,578.084L536.799,580.481L549.605,585.339C549.747,585.393 549.886,585.456 550.02,585.527C551.82,586.478 552.509,588.711 551.558,590.511C550.607,592.311 548.374,593 546.574,592.049C546.44,591.978 546.31,591.899 546.185,591.812L534.955,583.971L536.051,586.407C548.471,590.979 557.338,602.921 557.338,616.917C557.338,618.571 557.214,620.196 556.975,621.783C560.929,619.855 564.479,618.762 565.864,619.508C569.854,621.658 570.972,647.178 566.1,647.734C564.205,647.95 554.811,643.224 548.355,639.34C542.434,645.547 534.084,649.417 524.838,649.417C506.901,649.417 492.338,634.854 492.338,616.917C492.338,615.4 492.442,613.906 492.644,612.442C489.576,608.383 484.96,600.714 485,599.377C485.071,597.02 493.788,596.057 499.466,596.614C502.475,592.86 506.299,589.787 510.668,587.665ZM525.728,586.106L519.852,594.521C519.765,594.646 519.686,594.775 519.615,594.91C518.664,596.71 519.353,598.943 521.153,599.894C522.953,600.845 525.187,600.156 526.138,598.356C526.209,598.222 526.271,598.083 526.325,597.941L530.614,586.635C530.905,586.69 531.194,586.749 531.482,586.813L533.58,598.62C533.606,598.77 533.642,598.918 533.687,599.063C534.287,601.008 536.354,602.1 538.299,601.5C540.244,600.899 541.336,598.833 540.736,596.887C540.691,596.742 540.637,596.6 540.575,596.462L537.041,588.607C547.992,593.34 555.662,604.24 555.662,616.917C555.662,618.908 555.473,620.854 555.112,622.738C548.152,626.469 540.811,632.223 542.16,634.834C542.503,635.497 544.354,636.851 546.892,638.442C541.293,644.178 533.478,647.741 524.838,647.741C507.826,647.741 494.014,633.929 494.014,616.917C494.014,616.016 494.053,615.123 494.129,614.24C494.473,614.602 494.757,614.841 494.96,614.926C498.036,616.201 505.784,600.683 504.124,598.091C503.784,597.561 502.786,597.162 501.413,596.891C504.32,593.495 507.951,590.737 512.067,588.859C512.881,589.258 513.843,589.36 514.777,589.072C514.922,589.027 515.064,588.973 515.203,588.911L520.913,586.341C522.2,586.178 523.509,586.093 524.838,586.093C525.135,586.093 525.432,586.098 525.728,586.106ZM518.897,614.967C518.948,614.906 519.002,614.848 519.06,614.793C519.838,614.061 521.064,614.099 521.796,614.877C522.528,615.655 522.491,616.88 521.713,617.612C521.655,617.667 521.594,617.718 521.53,617.765L515.729,622.008L522.885,621.34C522.964,621.333 523.044,621.33 523.123,621.333C524.191,621.365 525.032,622.259 524.999,623.326C524.967,624.394 524.073,625.235 523.006,625.202C522.926,625.2 522.847,625.192 522.768,625.18L515.666,624.079L521.198,628.666C521.259,628.717 521.317,628.772 521.372,628.83C522.104,629.608 522.067,630.834 521.289,631.566C520.511,632.298 519.285,632.261 518.553,631.483C518.498,631.425 518.447,631.363 518.4,631.299L514.157,625.498L514.825,632.654C514.833,632.733 514.835,632.813 514.833,632.893C514.8,633.96 513.907,634.801 512.839,634.769C511.771,634.736 510.931,633.843 510.963,632.775C510.966,632.695 510.973,632.616 510.985,632.537L512.087,625.435L507.499,630.967C507.448,631.029 507.394,631.087 507.336,631.142C506.558,631.874 505.332,631.836 504.6,631.058C503.868,630.28 503.905,629.054 504.683,628.322C504.741,628.268 504.802,628.217 504.867,628.17L510.667,623.927L503.511,624.595C503.432,624.602 503.352,624.604 503.273,624.602C502.205,624.57 501.365,623.676 501.397,622.609C501.429,621.541 502.323,620.7 503.39,620.733C503.47,620.735 503.549,620.743 503.628,620.755L510.73,621.856L505.198,617.269C505.137,617.218 505.079,617.163 505.024,617.105C504.292,616.327 504.329,615.101 505.107,614.369C505.885,613.637 507.111,613.674 507.843,614.452C507.898,614.51 507.949,614.572 507.996,614.636L512.239,620.437L511.571,613.281C511.564,613.202 511.561,613.122 511.563,613.042C511.596,611.974 512.489,611.134 513.557,611.166C514.625,611.199 515.465,612.092 515.433,613.16C515.43,613.239 515.423,613.319 515.411,613.398L514.309,620.5L518.897,614.967ZM581.642,585.843C581.718,585.77 581.799,585.701 581.884,585.637C583.021,584.784 584.637,585.015 585.49,586.152C586.343,587.289 586.113,588.905 584.976,589.758C584.891,589.822 584.802,589.88 584.71,589.933L576.41,594.688L585.974,594.863C586.08,594.865 586.186,594.873 586.291,594.888C587.698,595.089 588.678,596.395 588.477,597.802C588.276,599.21 586.971,600.189 585.563,599.989C585.458,599.974 585.354,599.952 585.252,599.924L576.02,597.417L582.66,604.304C582.733,604.38 582.802,604.461 582.866,604.546C583.719,605.683 583.489,607.299 582.351,608.152C581.214,609.006 579.598,608.775 578.745,607.638C578.681,607.553 578.623,607.464 578.57,607.372L573.815,599.072L573.641,608.636C573.639,608.742 573.63,608.848 573.615,608.953C573.414,610.361 572.109,611.34 570.701,611.139C569.294,610.939 568.314,609.633 568.515,608.225C568.53,608.12 568.551,608.016 568.579,607.914L571.086,598.683L564.2,605.322C564.123,605.396 564.042,605.464 563.958,605.528C562.82,606.381 561.204,606.151 560.351,605.014C559.498,603.876 559.728,602.26 560.866,601.407C560.95,601.343 561.039,601.285 561.131,601.232L569.431,596.477L559.867,596.303C559.761,596.301 559.655,596.292 559.55,596.277C558.143,596.077 557.163,594.771 557.364,593.363C557.565,591.956 558.87,590.976 560.278,591.177C560.383,591.192 560.487,591.213 560.589,591.241L569.821,593.748L563.181,586.862C563.108,586.785 563.039,586.705 562.975,586.62C562.122,585.483 562.352,583.866 563.49,583.013C564.627,582.16 566.243,582.39 567.096,583.528C567.16,583.613 567.218,583.701 567.271,583.793L572.026,592.094L572.2,582.529C572.202,582.423 572.211,582.317 572.226,582.213C572.427,580.805 573.732,579.825 575.14,580.026C576.547,580.227 577.527,581.533 577.326,582.94C577.311,583.045 577.29,583.149 577.262,583.251L574.755,592.483L581.642,585.843ZM525.186,584.419L527.693,583.291L526.863,584.479C526.306,584.445 525.748,584.425 525.186,584.419ZM587.017,551.814C589.275,553.227 588.959,568.234 586.081,568.375C584.394,568.457 573.151,561.313 572.533,559.899C571.378,557.257 584.759,550.402 587.017,551.814Z" style="fill:white;"/>
    </g>
</svg>
