<?xml version="1.0" encoding="UTF-8" standalone="no"?>
<!DOCTYPE svg PUBLIC "-//W3C//DTD SVG 1.1//EN" "http://www.w3.org/Graphics/SVG/1.1/DTD/svg11.dtd">
<svg width="100%" height="100%" viewBox="0 0 1000 1000" version="1.1" xmlns="http://www.w3.org/2000/svg" xmlns:xlink="http://www.w3.org/1999/xlink" xml:space="preserve" xmlns:serif="http://www.serif.com/" style="fill-rule:evenodd;clip-rule:evenodd;stroke-linejoin:round;stroke-miterlimit:2;">
    <g transform="matrix(12.0263,0,0,12.0263,-5377.43,-5342.64)">
        <path d="M484.275,496.012C471.241,490.657 461.204,487.087 457.759,489.95C456.079,491.345 457.573,492.569 461.129,496.206C463.583,498.717 460.286,501.293 457.755,499.142C447.371,490.315 449.601,491.219 463.803,471.349C464.202,464.918 466.335,459.346 468.813,453.945C471.092,458.443 473.949,462.631 477.783,466.296C482.771,466.561 487.844,467.224 495.559,470.404L495.918,470.553C503.402,473.681 507.399,476.74 511.067,480.014C516.37,480.116 521.348,479.157 526.135,477.572C524.087,483.15 521.675,488.606 517.426,493.451C513.502,517.557 515.722,518.487 502.134,517.433C498.822,517.176 498.298,513.025 501.809,512.973C506.894,512.897 508.817,513.081 508.609,510.908C508.174,506.379 498.236,501.766 484.898,496.269L484.275,496.012Z" style="fill:white;"/>
    </g>
</svg>
