<?xml version="1.0" encoding="UTF-8" standalone="no"?>
<!DOCTYPE svg PUBLIC "-//W3C//DTD SVG 1.1//EN" "http://www.w3.org/Graphics/SVG/1.1/DTD/svg11.dtd">
<svg width="100%" height="100%" viewBox="0 0 1000 1000" version="1.1" xmlns="http://www.w3.org/2000/svg" xmlns:xlink="http://www.w3.org/1999/xlink" xml:space="preserve" xmlns:serif="http://www.serif.com/" style="fill-rule:evenodd;clip-rule:evenodd;stroke-linejoin:round;stroke-miterlimit:2;">
    <g transform="matrix(2.15118,0,0,2.15118,-440.387,-582.716)">
        <path d="M267,649C261.05,650.352 255.682,653.26 251,658L250,679C252.138,681.824 255.32,684.313 261,686C261,686 412.23,709.833 474,712C526.686,713.848 631.62,699 631.62,699C639.382,696.386 643.062,691.673 646.338,686.752L646.338,662C643.495,659.376 638.779,659.553 635,659.33C563.373,655.105 491.745,651.06 420.118,646.942L267,649ZM420.976,652.236C417.377,651.482 413.399,650.815 409.433,650.746C401.349,650.606 377.214,651.03 372.472,651.396C369.486,651.626 378.26,652.268 380.982,652.939C384.076,653.701 387.458,655.223 391.035,655.972C394.635,656.726 398.612,657.393 402.579,657.462C410.663,657.602 434.798,657.178 439.539,656.812C442.525,656.582 433.751,655.94 431.029,655.269C427.935,654.506 424.554,652.985 420.976,652.236ZM416.778,635.627C427.988,625.981 427.018,615.687 423,600L273.702,602L256.508,612C258.55,633.019 266.127,643.213 280,645.368L413.92,643C413.561,640.424 414.192,637.937 416.778,635.627ZM256.508,606L272,597L423,595L388,335C390.08,335.909 380.072,302.335 364.517,300C345.059,297.079 271.082,292.999 250,295C232.78,296.635 227.453,321.97 228,330L256.508,606ZM364,341L266,337C255.237,336.391 254.966,342.103 255,348L281,561C282.005,570.594 287.345,573.96 295,574L400,575C407.417,574.492 410.979,569.744 410,560L381,355C379.799,346.829 375.653,340.969 364,341ZM356.955,318.812C356.992,317.764 356.172,316.883 355.124,316.846L275.103,314.001C274.055,313.964 273.173,314.785 273.136,315.833L273.001,319.63C272.964,320.678 273.785,321.56 274.833,321.597L354.854,324.441C355.902,324.478 356.783,323.658 356.82,322.61L356.955,318.812Z" style="fill:white;"/>
    </g>
</svg>
