<?xml version="1.0" encoding="UTF-8" standalone="no"?>
<!DOCTYPE svg PUBLIC "-//W3C//DTD SVG 1.1//EN" "http://www.w3.org/Graphics/SVG/1.1/DTD/svg11.dtd">
<svg width="100%" height="100%" viewBox="0 0 1000 1000" version="1.1" xmlns="http://www.w3.org/2000/svg" xmlns:xlink="http://www.w3.org/1999/xlink" xml:space="preserve" xmlns:serif="http://www.serif.com/" style="fill-rule:evenodd;clip-rule:evenodd;stroke-linejoin:round;stroke-miterlimit:2;">
    <g transform="matrix(1,0,0,1,-5.68434e-14,-35.9863)">
        <path d="M645.458,619.174C654.006,619.163 662.971,620.079 671.03,621.031C679.813,622.069 688.934,621.711 695.816,625.265C691.047,639.02 661.38,642.289 645.611,644.082C630.653,645.782 615.562,637.129 601.198,636.021C544.447,631.644 496.005,630.061 467.961,636.573C453.984,639.819 445.761,650.435 435.135,656.313C405.717,672.585 297.204,630.775 304.539,613.034C310.435,598.773 379.291,591.617 435.135,629.029C445.299,632.687 455.907,630.178 467.961,626.976C484.966,622.458 541.976,625.623 606.991,621.115C619.921,620.219 634.785,619.188 645.458,619.174ZM437.066,650.668C430.56,656.696 419,657.704 406.184,656.322C400.582,655.718 394.741,654.66 388.974,653.36C385.145,652.496 381.35,651.527 377.68,650.516C374.456,649.629 371.33,648.707 368.363,647.798C365.051,646.783 361.936,645.79 359.115,644.847C354.546,643.345 349.614,641.522 344.629,639.478C337.466,636.541 330.202,633.129 323.788,629.44C314.876,624.316 307.603,618.672 304.539,613.034C307.45,618.787 314.578,624.687 323.397,630.067C329.747,633.941 336.969,637.547 344.113,640.641C349.09,642.795 354.032,644.691 358.607,646.275C361.436,647.239 364.553,648.273 367.881,649.292C370.864,650.205 374.016,651.109 377.267,651.97C380.053,652.708 382.914,653.413 385.808,654.056C392.563,655.556 399.496,656.741 406.088,657.283C419.055,658.349 430.693,656.944 437.066,650.668ZM834.145,504.955C854.734,518.594 864.042,530.635 869.503,542.131C775.83,557.321 622.764,561.475 505.157,560.561C391.336,559.676 274.306,554.878 174.727,537.631C193.02,524.04 212.076,510.795 234.214,498.949C108.413,505.545 49.834,513.491 50,523.279C50.311,541.603 103.373,554.007 297.954,562.014C291.368,592.673 434.216,587.862 504.819,587.608C567.803,587.381 708.61,590.387 699.198,564.958C841.742,558.34 933.273,549.668 947.748,537.89C958.817,528.883 930.337,506.818 834.145,504.955ZM496.552,432.62C523.506,422.553 551.621,417.307 579.927,413.845C641.891,406.267 701.527,422.012 759.391,455.219C792.813,474.399 824.511,501.652 858.315,535.629C797.547,548.484 664.779,556.497 503.429,553.924C505.078,549.679 506.879,545.196 509.259,541.188C512.198,536.238 516.022,532.008 521.683,530.081C531.519,526.732 535.659,523.002 537.456,519.602C538.736,517.18 538.892,514.853 538.854,512.738C538.826,511.11 538.547,509.653 539.141,508.505C546.55,494.18 544.865,487.359 545.874,479.112C546.478,474.173 548.022,470.023 549.189,466.516C550.817,461.621 552.331,458.466 553.118,456.162C553.798,454.172 553.959,452.662 553.566,451.31C553.283,450.338 552.717,449.416 551.731,448.477C550.63,447.428 548.91,446.298 546.369,444.867C546.243,444.624 545.898,443.951 545.62,443.362C544.425,440.832 542.391,436.91 538.016,434.241C533.749,431.638 527.174,430.162 516.745,432.691C508.552,434.678 501.972,434.134 496.552,432.62ZM491.256,434.672C497.858,437.299 506.298,439.009 517.611,436.266C526.669,434.069 532.394,435.121 536.101,437.381C539.699,439.576 541.311,442.852 542.294,444.933C542.729,445.853 543.074,446.586 543.373,447.025C543.686,447.484 544.024,447.769 544.321,447.935C546.282,449.032 547.718,449.908 548.718,450.723C549.415,451.291 549.868,451.767 550.034,452.339C550.25,453.078 550.009,453.885 549.637,454.973C548.848,457.284 547.331,460.447 545.698,465.355C544.466,469.059 542.861,473.449 542.223,478.666C541.258,486.558 542.964,493.106 535.874,506.815C535.264,507.994 535.111,509.366 535.129,510.9C535.154,513.027 535.585,515.587 533.996,518.254C532.327,521.053 528.558,523.855 520.498,526.599C513.972,528.82 509.483,533.605 506.096,539.31C503.373,543.898 501.367,549.08 499.508,553.867C391.667,554.725 296.584,544.948 196.259,532.377C227.433,507.748 267.222,486.134 309.046,474.433C326.906,469.436 344.625,464.794 361.014,459.262C430.197,435.912 490.567,435.763 489.886,435.228C490.344,435.04 490.802,434.855 491.256,434.672ZM592.251,487.13L588.796,517.601L596.774,524.08C596.774,524.08 630.56,534.65 636.851,530.794C647.57,524.225 645.417,498.554 629.097,493.821C619.107,490.923 592.251,487.13 592.251,487.13ZM797.667,488.637C784.33,484.181 772.661,479.865 763.562,475.763C754.463,471.66 747.935,467.772 744.879,464.174C731.905,448.893 782.121,470.894 797.667,488.637ZM632.684,442.485C643.847,444.993 654.637,447.885 665.049,451.169C675.46,454.453 685.492,458.128 695.137,462.204C695.034,444.576 687.177,431.087 632.684,442.485Z" style="fill:white;"/>
    </g>
</svg>
