<?xml version="1.0" encoding="UTF-8" standalone="no"?>
<!DOCTYPE svg PUBLIC "-//W3C//DTD SVG 1.1//EN" "http://www.w3.org/Graphics/SVG/1.1/DTD/svg11.dtd">
<svg width="100%" height="100%" viewBox="0 0 1000 1000" version="1.1" xmlns="http://www.w3.org/2000/svg" xmlns:xlink="http://www.w3.org/1999/xlink" xml:space="preserve" xmlns:serif="http://www.serif.com/" style="fill-rule:evenodd;clip-rule:evenodd;stroke-linejoin:round;stroke-miterlimit:2;">
    <g transform="matrix(1.23531,0,0,1.23531,-173.155,-124.885)">
        <path d="M462.731,431.893L530.177,437.632L569.699,485.818C587.538,480.799 602.992,489.259 621.068,501.822C648.834,521.12 704.279,654.348 740.906,714.811C758.785,722.77 777.8,729.241 796.886,735.619C813.158,723.419 827.845,705.958 842.204,687.406C842.465,667.136 842.125,647.009 840.03,627.297C795.947,555.311 725.378,512.445 634.845,491.527L626.305,465.415L572.253,470.957L570.649,456.88L637.123,437.645L646.966,475.292C748.213,495.996 816.097,549.846 861.835,625.699C863.503,652.751 863.072,677.685 862.709,702.688C843.907,725.264 825.111,745.966 806.341,760.032C779.719,752.499 753.099,744.964 727.573,736.201C678.625,661.994 636.718,579.537 602.317,554.36C591.974,546.791 580.236,548.058 570.339,554.777C561.842,563.197 558.34,574.472 563.78,586.078C581.87,624.679 654.726,681.663 718.134,743.97C721.823,770.704 724.098,798.276 726.37,825.85C708.957,841.565 685.027,856.028 659.255,870.137C634.649,865.684 610.098,861.311 583.872,854.471C518.232,794.998 478.444,718.024 477.6,614.686L442.549,597.785L474.209,536.253L487.715,540.534L471.881,592.511L495.863,605.913C498.978,698.779 527.47,776.276 589.634,833.38C608.575,839.228 628.261,843.433 648.202,847.075C669.17,836.553 689.13,825.498 704.231,811.876C701.643,791.92 698.951,772.016 694.579,752.94C642.29,705.367 522.213,625.333 508.616,594.374C499.763,574.219 494.434,557.427 502.791,540.886L254.291,241.082C240.728,206.759 214.54,161.415 233.44,145.633L457.15,425.109L457.142,425.109L457.142,425.115L457.15,425.109L462.731,431.893ZM517.912,491.077C533.892,477.925 557.544,480.221 570.697,496.201C583.849,512.181 581.553,535.833 565.573,548.986C549.592,562.138 525.94,559.842 512.788,543.862C499.635,527.881 501.931,504.229 517.912,491.077ZM524.322,498.865C536.004,489.251 553.294,490.929 562.908,502.611C572.523,514.293 570.844,531.583 559.162,541.197C547.481,550.812 530.191,549.134 520.576,537.452C510.962,525.77 512.64,508.48 524.322,498.865ZM522.714,521.716L519.251,524.566C518.331,525.323 518.13,526.741 518.803,527.73L521.238,531.316C521.911,532.306 523.203,532.494 524.123,531.737L526.942,529.417C531.972,536.481 538.131,539.319 543.222,539.787C546.703,540.107 549.485,539.283 551.59,538.011C558.171,534.034 567.262,522.665 558.623,510.384C558.535,510.259 558.399,510.176 558.246,510.155C558.094,510.135 557.941,510.178 557.822,510.276L551.989,515.076C551.835,515.204 551.761,515.405 551.798,515.602C553.294,523.684 550.759,527.971 546.455,528.727C544.178,529.128 541.318,529.172 537.264,524.809C536.647,524.145 536.005,523.383 535.335,522.509L554.973,506.347C555.892,505.59 556.093,504.172 555.421,503.183L552.985,499.597C552.313,498.607 551.021,498.418 550.101,499.175L530.619,515.21C529.476,513.186 528.267,510.873 526.986,508.234C526.912,508.082 526.773,507.973 526.608,507.937C526.443,507.9 526.27,507.942 526.14,508.049L520.188,512.947C520.024,513.083 519.952,513.301 520.004,513.508C520.775,516.558 521.69,519.285 522.714,521.716ZM464.114,425.702L237.582,143.077C257.81,134.344 294.219,165.669 323.287,184.295L524.612,430.851L464.114,425.702Z" style="fill:white;"/>
    </g>
</svg>
