<?xml version="1.0" encoding="UTF-8" standalone="no"?>
<!DOCTYPE svg PUBLIC "-//W3C//DTD SVG 1.1//EN" "http://www.w3.org/Graphics/SVG/1.1/DTD/svg11.dtd">
<svg width="100%" height="100%" viewBox="0 0 1000 1000" version="1.1" xmlns="http://www.w3.org/2000/svg" xmlns:xlink="http://www.w3.org/1999/xlink" xml:space="preserve" xmlns:serif="http://www.serif.com/" style="fill-rule:evenodd;clip-rule:evenodd;stroke-linejoin:round;stroke-miterlimit:2;">
    <g transform="matrix(7.42049,0,0,7.42049,-3103.01,-4342.93)">
        <path d="M478.491,699.172C478.491,699.172 478.355,700.549 478.037,702.415C477.87,703.398 477.68,704.511 477.396,705.608C477.23,706.248 477.016,706.872 476.804,707.468C475.961,709.839 475.127,711.73 475.127,711.73C474.827,712.849 473.675,713.514 472.556,713.214C471.437,712.914 470.771,711.762 471.071,710.643C471.071,710.643 471.294,708.589 471.75,706.114C471.864,705.491 471.99,704.844 472.167,704.207C472.47,703.115 472.862,702.056 473.208,701.121C473.866,699.346 474.436,698.086 474.436,698.086C474.736,696.967 475.888,696.302 477.007,696.601C478.126,696.901 478.791,698.053 478.491,699.172ZM492.423,698.771C492.423,698.771 492.56,700.147 492.878,702.014C493.045,702.997 493.235,704.11 493.519,705.207C493.684,705.846 493.899,706.47 494.111,707.067C494.954,709.438 495.788,711.328 495.788,711.328C496.088,712.447 497.24,713.112 498.359,712.813C499.478,712.513 500.143,711.361 499.843,710.242C499.843,710.242 499.621,708.188 499.165,705.713C499.05,705.09 498.924,704.442 498.748,703.806C498.445,702.714 498.053,701.655 497.707,700.72C497.049,698.944 496.479,697.684 496.479,697.684C496.179,696.565 495.027,695.9 493.908,696.2C492.789,696.5 492.123,697.652 492.423,698.771ZM506.516,690.484C506.516,690.484 507.516,691.803 508.982,693.518C509.757,694.423 510.635,695.449 511.586,696.414C512.141,696.976 512.73,697.501 513.3,698C515.558,699.975 517.516,701.484 517.516,701.484C518.335,702.304 519.665,702.304 520.484,701.484C521.304,700.665 521.304,699.335 520.484,698.516C520.484,698.516 518.975,696.558 517,694.3C516.501,693.73 515.976,693.141 515.414,692.586C514.449,691.635 513.423,690.757 512.518,689.982C510.803,688.516 509.484,687.516 509.484,687.516C508.665,686.696 507.335,686.696 506.516,687.516C505.696,688.335 505.696,689.665 506.516,690.484ZM464.584,690.484C464.584,690.484 463.583,691.803 462.117,693.518C461.343,694.423 460.464,695.449 459.513,696.414C458.959,696.976 458.369,697.501 457.799,698C455.541,699.975 453.584,701.484 453.584,701.484C452.764,702.304 451.434,702.304 450.615,701.484C449.796,700.665 449.796,699.335 450.615,698.516C450.615,698.516 452.124,696.558 454.099,694.3C454.598,693.73 455.123,693.141 455.685,692.586C456.65,691.635 457.676,690.757 458.582,689.982C460.296,688.516 461.615,687.516 461.615,687.516C462.434,686.696 463.764,686.696 464.584,687.516C465.403,688.335 465.403,689.665 464.584,690.484ZM485.132,625.509C485.033,625.382 484.983,625.216 485.005,625.044C485.797,619.017 488.666,614.357 491.957,609.973C491.763,609.877 491.568,609.784 491.37,609.694C489.625,608.9 488.063,607.664 486.316,606.668C486.086,606.537 485.964,606.277 486.009,606.017C486.055,605.757 486.259,605.554 486.518,605.509C489.029,605.074 491.466,604.583 493.475,603.729C493.257,599.829 493.466,596.11 494.007,592.532C494.049,592.253 494.272,592.038 494.551,592.004C494.831,591.971 495.098,592.129 495.204,592.389C496.514,595.609 497.974,598.828 499.741,602.047C502.351,599.206 505.681,597.174 509.374,595.553C509.622,595.444 509.912,595.507 510.092,595.71C510.272,595.912 510.301,596.208 510.164,596.441C508.754,598.843 507.61,601.397 506.879,604.185C510.449,605.201 513.954,606.729 517.419,608.573C517.669,608.707 517.799,608.993 517.733,609.269C517.668,609.545 517.424,609.743 517.141,609.75C513.789,609.833 510.528,610.04 507.8,611.035C508.185,614.322 508.909,617.419 509.729,620.462C509.794,620.704 509.709,620.961 509.513,621.115C509.316,621.27 509.047,621.294 508.827,621.175C505.907,619.592 503.01,618.009 500.263,616.426C499.092,617.822 498.062,619.323 497.172,620.928C497.039,621.167 496.767,621.292 496.499,621.237C496.231,621.182 496.03,620.959 496.003,620.687C495.84,619.051 495.722,617.445 495.639,615.862C493.657,618.518 492,621.472 491.238,625.249C491.197,625.449 491.065,625.608 490.893,625.689C495.227,625.962 500.802,626.597 502,628C503.188,629.391 500.543,633.179 498.666,635.529L499.27,635.824L499.619,636.003L500.235,636.328L500.726,636.605L501.296,636.934L502.102,637.433L502.268,637.539L502.89,637.957L503.14,638.131L503.672,638.513L504.181,638.894L504.606,639.226L505.296,639.792L505.989,640.397L506.389,640.763L506.78,641.134L507.299,641.647L507.681,642.041L508.052,642.438L508.65,643.108L509.323,643.914L509.619,644.289L510.298,645.194L510.489,645.463L510.953,646.137L511.174,646.477L511.576,647.112L511.753,647.409L512.227,648.227L512.359,648.47L512.726,649.164L512.937,649.592L513.249,650.24L513.563,650.946L513.978,651.962L514.231,652.638L514.588,653.696L514.907,654.765L515.093,655.468L515.349,656.578L515.498,657.327L515.605,657.965L515.674,658.396L515.741,658.875L515.847,659.783L515.928,660.735L515.97,661.484L515.999,662.583L515.998,663.151C515.994,663.565 515.981,663.977 515.961,664.385L515.912,665.153L515.863,665.726C515.812,666.263 515.746,666.797 515.667,667.325L515.614,667.667C515.48,668.499 515.312,669.319 515.111,670.126C514.935,670.835 514.733,671.534 514.508,672.222L514.192,673.136C514.1,673.389 514.005,673.639 513.906,673.89L513.838,674.061C513.724,674.345 513.606,674.627 513.483,674.908C513.27,675.395 513.044,675.875 512.807,676.347C512.623,676.712 512.433,677.073 512.235,677.43C511.804,678.207 511.34,678.963 510.845,679.695L510.689,679.924L510.219,680.586L509.903,681.011L509.337,681.737L509.223,681.878C508.899,682.275 508.565,682.663 508.222,683.043L508.037,683.246C507.792,683.512 507.543,683.774 507.288,684.032L506.773,684.541C506.443,684.859 506.106,685.17 505.761,685.474L505.157,685.992C504.25,686.75 503.298,687.455 502.305,688.104L501.626,688.535C501.162,688.821 500.689,689.095 500.208,689.357L499.562,689.698C499.421,689.77 499.279,689.841 499.136,689.912L498.287,690.313L497.571,690.628C496.331,691.153 495.048,691.597 493.73,691.954L493.007,692.14C492.523,692.259 492.034,692.365 491.541,692.46C491.099,692.545 490.652,692.62 490.203,692.685C489.964,692.72 489.725,692.752 489.485,692.781C489.422,692.788 489.359,692.796 489.296,692.803C488.833,692.856 488.366,692.899 487.898,692.93L487.288,692.964L486.513,692.991L485.827,693L485.157,692.991L484.382,692.964L483.773,692.93C483.304,692.899 482.838,692.856 482.375,692.803C482.311,692.796 482.248,692.788 482.185,692.781C481.945,692.752 481.706,692.72 481.467,692.685C481.018,692.62 480.572,692.545 480.129,692.46C479.636,692.365 479.148,692.259 478.663,692.14L477.941,691.954C476.622,691.597 475.339,691.153 474.099,690.628L473.383,690.313L472.534,689.912C472.391,689.841 472.249,689.77 472.108,689.698L471.462,689.357C470.981,689.095 470.508,688.821 470.044,688.535L469.365,688.104C468.372,687.455 467.42,686.75 466.513,685.992L465.909,685.474C465.564,685.17 465.227,684.859 464.897,684.541L464.382,684.032C464.128,683.774 463.878,683.512 463.633,683.246L463.448,683.043C463.105,682.663 462.771,682.275 462.447,681.878L462.333,681.737L461.765,681.008L461.41,680.529L460.966,679.901L460.825,679.695C460.33,678.963 459.866,678.207 459.436,677.43C459.238,677.073 459.047,676.712 458.863,676.347C458.626,675.875 458.401,675.395 458.188,674.908C458.065,674.627 457.946,674.345 457.832,674.061L457.764,673.89C457.665,673.639 457.57,673.389 457.478,673.136L457.162,672.222C456.937,671.534 456.736,670.835 456.559,670.126C456.359,669.319 456.19,668.499 456.056,667.667L456.003,667.325C455.924,666.797 455.859,666.263 455.807,665.726L455.758,665.153L455.71,664.385C455.689,663.977 455.676,663.565 455.672,663.151L455.671,662.583L455.701,661.484L455.744,660.706L455.823,659.783L455.929,658.875L455.997,658.396L456.065,657.965L456.173,657.327L456.322,656.578L456.578,655.468L456.772,654.735L457.082,653.696L457.44,652.638L457.717,651.9L458.107,650.946L458.421,650.24L458.734,649.592L458.945,649.164L459.311,648.47L459.443,648.227L459.917,647.409L460.094,647.112L460.496,646.477L460.717,646.137L461.182,645.463L461.372,645.194L462.051,644.289L462.347,643.914L463.02,643.108L463.618,642.438L463.989,642.041L464.371,641.647L464.89,641.134L465.281,640.763L465.681,640.397L466.374,639.792L467.065,639.226L467.489,638.894L467.998,638.513L468.531,638.131L468.78,637.957L469.403,637.539L469.568,637.433L470.374,636.934L470.944,636.605L471.436,636.328L472.051,636.003L472.4,635.824L473.004,635.529C471.127,633.179 468.483,629.391 469.67,628C470.951,626.5 477.23,625.878 481.652,625.638L482.946,625.576L484.349,625.526L485.132,625.509ZM517.942,678.813C517.942,678.813 519.091,679.743 520.74,680.909C521.61,681.524 522.596,682.22 523.636,682.838C524.243,683.198 524.874,683.513 525.482,683.81C527.895,684.986 529.942,685.813 529.942,685.813C530.943,686.397 532.229,686.059 532.813,685.058C533.397,684.057 533.059,682.771 532.058,682.187C532.058,682.187 530.33,680.812 528.118,679.29C527.561,678.907 526.976,678.513 526.364,678.162C525.313,677.561 524.222,677.045 523.26,676.591C521.433,675.729 520.058,675.187 520.058,675.187C519.057,674.603 517.771,674.941 517.187,675.942C516.603,676.943 516.941,678.229 517.942,678.813ZM453.157,678.813C453.157,678.813 452.008,679.743 450.359,680.909C449.49,681.524 448.504,682.22 447.463,682.838C446.856,683.198 446.226,683.513 445.617,683.81C443.204,684.986 441.157,685.813 441.157,685.813C440.156,686.397 438.87,686.059 438.286,685.058C437.702,684.057 438.041,682.771 439.041,682.187C439.041,682.187 440.769,680.812 442.981,679.29C443.538,678.907 444.123,678.513 444.735,678.162C445.786,677.561 446.877,677.045 447.84,676.591C449.666,675.729 451.041,675.187 451.041,675.187C452.042,674.603 453.329,674.941 453.913,675.942C454.496,676.943 454.158,678.229 453.157,678.813ZM505.089,671.171C502.576,676.967 497.691,680.745 489.692,681.94C488.555,682.109 487.77,683.171 487.94,684.308C488.109,685.445 489.171,686.23 490.308,686.06C500.026,684.609 505.859,679.871 508.911,672.829C509.369,671.774 508.884,670.546 507.829,670.089C506.774,669.631 505.546,670.116 505.089,671.171ZM493.629,664.168C492.435,664.579 491.636,664.742 491.508,664.514C491.367,664.263 491.306,663.867 491.227,663.5C490.996,662.426 506.592,651.853 507,652.5L509.5,656.5C509.852,656.616 504.728,659.301 499.859,661.551C500.999,662.673 501.75,664.583 501.75,666.75C501.75,670.199 499.846,673 497.5,673C495.154,673 493.25,670.199 493.25,666.75C493.25,665.83 493.386,664.956 493.629,664.168ZM478.041,664.168C479.236,664.579 480.034,664.742 480.162,664.514C480.303,664.263 480.365,663.867 480.443,663.5C480.674,662.426 465.078,651.853 464.67,652.5L462.17,656.5C461.819,656.616 466.942,659.301 471.812,661.551C470.672,662.673 469.92,664.583 469.92,666.75C469.92,670.199 471.825,673 474.17,673C476.516,673 478.42,670.199 478.42,666.75C478.42,665.83 478.285,664.956 478.041,664.168ZM523,665.099C523,665.099 524.688,665.324 527,665.5C528.221,665.592 529.607,665.697 531,665.707C531.812,665.712 532.623,665.667 533.4,665.616C536.477,665.416 539,665.099 539,665.099C540.159,665.099 541.099,664.159 541.099,663C541.099,661.841 540.159,660.901 539,660.901C539,660.901 536.477,660.584 533.4,660.384C532.623,660.333 531.812,660.288 531,660.293C529.607,660.303 528.221,660.408 527,660.5C524.688,660.676 523,660.901 523,660.901C521.841,660.901 520.901,661.841 520.901,663C520.901,664.159 521.841,665.099 523,665.099ZM448.099,665.099C448.099,665.099 446.412,665.324 444.099,665.5C442.878,665.592 441.492,665.697 440.099,665.707C439.287,665.712 438.476,665.667 437.699,665.616C434.622,665.416 432.099,665.099 432.099,665.099C430.941,665.099 430,664.159 430,663C430,661.841 430.941,660.901 432.099,660.901C432.099,660.901 434.622,660.584 437.699,660.384C438.476,660.333 439.287,660.288 440.099,660.293C441.492,660.303 442.878,660.408 444.099,660.5C446.412,660.676 448.099,660.901 448.099,660.901C449.258,660.901 450.199,661.841 450.199,663C450.199,664.159 449.258,665.099 448.099,665.099ZM450.393,650.977C450.393,650.977 448.843,650.662 446.758,650.104C445.659,649.81 444.411,649.475 443.189,649.049C442.476,648.8 441.782,648.504 441.119,648.214C438.491,647.063 436.393,645.977 436.393,645.977C435.302,645.587 434.733,644.385 435.122,643.294C435.512,642.203 436.714,641.633 437.805,642.023C437.805,642.023 440.116,642.512 442.879,643.286C443.576,643.482 444.301,643.692 445.01,643.951C446.226,644.396 447.403,644.927 448.44,645.396C450.406,646.285 451.805,647.023 451.805,647.023C452.896,647.413 453.466,648.615 453.076,649.706C452.687,650.797 451.484,651.367 450.393,650.977ZM520.706,650.977C520.706,650.977 522.256,650.662 524.341,650.104C525.441,649.81 526.688,649.475 527.91,649.049C528.623,648.8 529.317,648.504 529.98,648.214C532.608,647.063 534.706,645.977 534.706,645.977C535.797,645.587 536.367,644.385 535.977,643.294C535.587,642.203 534.385,641.633 533.294,642.023C533.294,642.023 530.983,642.512 528.22,643.286C527.523,643.482 526.799,643.692 526.09,643.951C524.874,644.396 523.697,644.927 522.659,645.396C520.693,646.285 519.294,647.023 519.294,647.023C518.203,647.413 517.633,648.615 518.023,649.706C518.413,650.797 519.615,651.367 520.706,650.977ZM511,650C506.812,649.913 503.575,649.03 501.128,647.486C498.682,645.941 497.026,643.734 496,641C502.887,639.283 507.801,642.479 511,650ZM458.422,638.171C458.422,638.171 457.309,637.27 455.874,635.939C455.118,635.237 454.262,634.442 453.47,633.577C453.009,633.073 452.587,632.536 452.188,632.017C450.601,629.954 449.422,628.171 449.422,628.171C448.647,627.31 448.717,625.981 449.578,625.206C450.439,624.431 451.767,624.501 452.542,625.362C452.542,625.362 454.192,626.722 456.077,628.516C456.551,628.968 457.041,629.444 457.494,629.956C458.271,630.834 458.972,631.769 459.59,632.594C460.764,634.161 461.542,635.362 461.542,635.362C462.318,636.223 462.248,637.552 461.386,638.327C460.525,639.102 459.197,639.032 458.422,638.171ZM512.678,638.171C512.678,638.171 513.79,637.27 515.225,635.939C515.981,635.237 516.837,634.442 517.629,633.577C518.09,633.073 518.512,632.536 518.912,632.017C520.498,629.954 521.678,628.171 521.678,628.171C522.453,627.31 522.383,625.981 521.521,625.206C520.66,624.431 519.332,624.501 518.557,625.362C518.557,625.362 516.907,626.722 515.023,628.516C514.548,628.968 514.058,629.444 513.605,629.956C512.828,630.834 512.127,631.769 511.509,632.594C510.335,634.161 509.557,635.362 509.557,635.362C508.782,636.223 508.852,637.552 509.713,638.327C510.574,639.102 511.902,639.032 512.678,638.171ZM499.423,628.535C498.488,628.04 497.087,629.063 496.202,630.378C495.317,631.692 494.946,633.3 496.073,633.975C498.074,635.176 501.328,629.544 499.423,628.535ZM486.729,622.64C486.525,623.467 486.361,624.321 486.245,625.206C486.23,625.318 486.187,625.419 486.123,625.502L487.02,625.518L488.373,625.561L489.443,625.608L490.292,625.654C490.079,625.519 489.96,625.263 490.012,625.001C490.176,624.188 490.38,623.411 490.617,622.665C489.333,622.712 488.039,622.714 486.729,622.64ZM488.836,617.103C488.136,618.464 487.535,619.89 487.071,621.406C488.416,621.472 489.744,621.455 491.064,621.395C491.656,619.866 492.393,618.469 493.224,617.159C491.804,617.209 490.385,617.203 488.965,617.124C488.921,617.122 488.877,617.114 488.836,617.103ZM496.815,614.229C496.872,615.684 496.956,617.156 497.076,618.653C497.852,617.444 498.711,616.299 499.653,615.215C499.85,614.989 500.179,614.934 500.438,615.084C502.913,616.518 505.516,617.952 508.153,619.385C507.434,616.582 506.826,613.717 506.504,610.691C506.474,610.414 506.632,610.151 506.89,610.046C509.189,609.113 511.88,608.75 514.711,608.592C511.832,607.183 508.921,606.022 505.963,605.229C505.636,605.141 505.439,604.809 505.517,604.48C506.11,601.992 507.018,599.684 508.151,597.501C505.048,599.037 502.276,600.943 500.103,603.527C499.972,603.684 499.771,603.766 499.567,603.747C499.363,603.728 499.181,603.611 499.081,603.432C497.498,600.626 496.152,597.82 494.946,595.013C494.631,597.931 494.549,600.948 494.749,604.085C494.765,604.343 494.622,604.584 494.387,604.692C492.64,605.5 490.549,606.022 488.344,606.448L488.344,606.448C489.522,607.209 490.658,607.996 491.888,608.556C493.598,609.334 495.171,610.331 496.56,611.676C496.678,611.79 496.746,611.946 496.75,612.111C496.764,612.729 496.782,613.35 496.806,613.975C496.826,614.058 496.83,614.144 496.815,614.229ZM494.081,615.88C494.552,615.213 495.045,614.565 495.553,613.931C495.534,613.419 495.519,612.908 495.506,612.399C494.748,611.691 493.931,611.093 493.067,610.578C491.777,612.288 490.548,614.038 489.488,615.899C490.982,615.965 492.475,615.951 493.969,615.876C494.007,615.874 494.044,615.875 494.081,615.88Z" style="fill:white;"/>
    </g>
</svg>
