<?xml version="1.0" encoding="UTF-8" standalone="no"?>
<!DOCTYPE svg PUBLIC "-//W3C//DTD SVG 1.1//EN" "http://www.w3.org/Graphics/SVG/1.1/DTD/svg11.dtd">
<svg width="100%" height="100%" viewBox="0 0 1000 1000" version="1.1" xmlns="http://www.w3.org/2000/svg" xmlns:xlink="http://www.w3.org/1999/xlink" xml:space="preserve" xmlns:serif="http://www.serif.com/" style="fill-rule:evenodd;clip-rule:evenodd;stroke-linejoin:round;stroke-miterlimit:2;">
    <g transform="matrix(5.62271,0,0,5.62271,-2311.54,-3078.85)">
        <path d="M500.065,573.001C504.661,573.152 508.191,589.186 525,594.747C537.569,598.906 562.766,600.452 580,601.844C582.22,603.019 527.029,603.797 533,614C540.981,627.637 551.669,645.283 549.897,659C548.045,673.334 518.698,692.598 500.065,699.974L500.065,700L500.033,699.987L500,700L500,699.974C481.368,692.598 452.021,673.334 450.168,659C448.396,645.283 459.084,627.637 467.065,614C473.037,603.797 417.845,603.019 420.065,601.844C437.299,600.452 462.496,598.906 475.065,594.747C491.874,589.186 495.405,573.152 500,573.001L500,573L500.065,573L500.065,573.001ZM498,649C495.16,645.639 492.875,640.841 489,638.524C483.028,634.954 480.971,628.089 485,622.217C492.221,611.692 484.895,603.61 469,601C476.428,600.194 484.406,598.166 488.957,593.5C493.415,588.929 505.777,589.308 511.5,594.476C515.121,597.747 522.355,599.331 531,601C522.042,601.835 517.059,606.631 513,611.299C509.461,615.368 506.068,619.344 502,622C497.764,624.766 497.626,637.31 498,649ZM514.5,625.5C511.505,627.086 509.712,629.172 508.813,631.631C507.915,634.091 507.913,636.922 508.5,640C513.536,636.66 517.559,632.823 514.5,625.5ZM513,603C497.133,603.402 497.596,605.193 510,608C497.62,610.005 488.649,605.892 489.093,602.5C489.652,598.229 507.029,594.67 513,603ZM504,584.5C502.515,583.094 501.022,582.448 499.521,582.477C498.021,582.506 496.514,583.21 495,584.5C499.125,577.906 501.834,579.611 504,584.5Z" style="fill:white;"/>
    </g>
</svg>
