<?xml version="1.0" encoding="UTF-8" standalone="no"?>
<!DOCTYPE svg PUBLIC "-//W3C//DTD SVG 1.1//EN" "http://www.w3.org/Graphics/SVG/1.1/DTD/svg11.dtd">
<svg width="100%" height="100%" viewBox="0 0 1000 1000" version="1.1" xmlns="http://www.w3.org/2000/svg" xmlns:xlink="http://www.w3.org/1999/xlink" xml:space="preserve" xmlns:serif="http://www.serif.com/" style="fill-rule:evenodd;clip-rule:evenodd;stroke-linejoin:round;stroke-miterlimit:2;">
    <g transform="matrix(1.11376,0,0,1.11376,-57.043,53.419)">
        <path d="M506.271,570.987L506.36,571.23C510.866,544.702 506.369,520.251 498.278,496.62C493.123,489.159 487.515,481.775 480.508,474.635C429.685,430.917 358.73,411.661 291.628,427.219C261.085,434.301 235.633,450.425 212.056,470.656C192.705,487.26 171.637,506.025 158.36,528.274C133.835,569.373 136.505,630.269 150.193,673.302C175.185,751.876 263.784,811.451 347.019,804.443C385.098,801.237 421.446,782.364 451.796,760.196C485.836,735.333 517.716,696.455 522.091,652.855C528.539,588.602 481.412,532.298 430.363,500.877C407.768,486.97 383.314,476.027 356.287,474.914C308.323,472.94 257.756,500.092 227.129,535.95C211.425,554.336 198.799,578.155 195.355,602.288C188.215,652.334 211.024,709.313 255.372,735.668C284.961,753.252 325.447,757.704 362.039,748.747C399.658,739.539 432.749,716.349 446.96,680.9C454.958,660.949 458.407,639.845 456.755,618.393C455.342,600.055 449.853,583.083 441.178,566.918C417.128,522.102 365.891,511.838 323.135,526.692C280.093,541.646 246.949,581.326 258.441,632.724C260.969,644.027 265.341,654.89 271.75,664.557C279.666,676.495 291.282,686.22 304.796,691.197C316.108,695.363 328.814,696.885 340.788,695.33C374.27,690.981 395.11,661.3 390.908,628.816C386.873,597.618 360.163,571.282 327.941,589.077C319.454,593.763 316.369,604.458 321.056,612.945C325.743,621.431 336.437,624.516 344.924,619.83C347.591,618.356 349.834,619.384 351.344,621.272C353.925,624.5 355.497,628.907 356.068,633.323C357.764,646.436 349.779,658.736 336.263,660.492C329.832,661.327 323.012,660.468 316.936,658.23C310.378,655.815 304.871,650.937 301.03,645.143C296.993,639.054 294.318,632.178 292.726,625.058C285.554,592.985 307.806,569.208 334.664,559.877C361.809,550.447 394.954,555.078 410.223,583.531C416.559,595.338 420.696,607.696 421.728,621.091C422.963,637.133 420.333,652.908 414.351,667.828C404.335,692.815 380.203,708.133 353.686,714.624C326.144,721.365 295.59,718.703 273.319,705.468C240.787,686.134 224.896,643.962 230.134,607.251C232.661,589.543 242.319,572.257 253.842,558.766C277.886,530.615 317.187,508.465 354.842,510.015C375.766,510.877 394.455,520.028 411.948,530.795C452.319,555.644 492.235,598.534 487.136,649.347C483.735,683.235 457.532,712.503 431.075,731.827C405.782,750.301 375.806,766.765 344.072,769.436C276.258,775.146 204.033,726.67 183.671,662.653C172.695,628.146 168.862,579.232 188.528,546.276C199.899,527.22 218.359,511.538 234.933,497.317C254.157,480.821 274.659,467.216 299.563,461.442C383.979,441.87 475.861,488.061 506.271,570.987ZM529.009,546.441L534.696,578.522L561.534,559.377C550.423,555.433 539.572,551.135 529.009,546.441ZM525.376,525.95C542.342,534.106 560.148,541.108 578.642,547.173L687.424,469.573C616.744,466.267 549.73,440.153 502.616,397.571L525.376,525.95ZM860.421,143.465L782.577,179.318L658.204,449.776C675.477,452.255 693.154,453.296 710.944,452.795L716.828,448.597L860.421,143.465ZM679.066,146.814L554.796,413.691C554.684,413.932 554.562,414.165 554.43,414.39C580.422,429.499 609.89,440.523 641.05,446.816C641.176,446.143 641.386,445.474 641.685,444.823L764.501,177.75L679.066,146.814ZM629.188,54.195L628.503,54.583L498.414,369.275C510.431,382.734 524.402,394.783 539.883,405.261L665.251,136.028L629.188,54.195ZM644.126,45.746L730.43,-3.07L821.751,39.453L858.807,125.406L775.75,163.661C775.749,163.661 680.965,129.34 680.965,129.34L644.126,45.746ZM711.347,63.898C718.187,49.259 742.755,46.259 766.177,57.202C789.599,68.146 803.062,88.915 796.222,103.554C789.383,118.192 764.814,121.193 741.392,110.249C717.97,99.306 704.508,78.537 711.347,63.898Z" style="fill:white;"/>
    </g>
</svg>
