<?xml version="1.0" encoding="UTF-8" standalone="no"?>
<!DOCTYPE svg PUBLIC "-//W3C//DTD SVG 1.1//EN" "http://www.w3.org/Graphics/SVG/1.1/DTD/svg11.dtd">
<svg width="100%" height="100%" viewBox="0 0 1000 1000" version="1.1" xmlns="http://www.w3.org/2000/svg" xmlns:xlink="http://www.w3.org/1999/xlink" xml:space="preserve" xmlns:serif="http://www.serif.com/" style="fill-rule:evenodd;clip-rule:evenodd;stroke-linejoin:round;stroke-miterlimit:2;">
    <g transform="matrix(1.74727,0,0,1.74727,-33.029,-28.4711)">
        <path d="M249.452,560L144.659,560C144.659,553.877 144.934,533.823 135.956,531.15C129.868,529.336 128.776,523.201 126.377,518.219C142.463,501.855 153.886,482.35 166.537,472.639C156.704,452.795 152.438,432.948 150.988,413.099C146.218,408.527 144.918,408.157 139.693,406.877C130.138,404.536 126.847,399.394 135.389,390.097C128.044,388.023 122.386,385.469 128.536,379.549C119.353,373.628 124.125,360.428 126.377,360.428C125.721,358.428 129.145,355.215 131.948,354.892C130.015,346.163 130.307,338.473 141.571,335.901C141.733,330.447 144.961,326.388 152.965,324.506C154.51,318.312 158.177,314.88 166.039,316.909C169.136,316.396 171.834,314.747 173.43,313.111C176.511,309.952 179.872,310.05 181.214,313.111C192.192,310.078 201.048,308.623 204.572,311.733C207.532,314.346 212.001,314.853 217.536,314.552C223.439,314.231 228.509,318.129 233.855,323.497C242.991,325.502 246.248,327.651 244.124,332.457C243.04,334.911 247.446,343.263 247.923,348.924C257.664,352.549 261.224,357.867 253.454,366.287C260.924,373.902 253.635,379.048 238.121,382.818C237.297,384.629 237.19,386.685 236.316,388.697C234.721,392.368 233.683,396.619 234.389,399.332C236.221,406.369 230.411,415.789 224.049,428.888C228.344,442.443 238.293,456.543 259.318,471.712C274.253,468.678 277.324,474.96 276.837,484.034C263.872,492.204 248.156,506.499 249.452,560ZM364.356,560L317.736,560C321.682,545.326 323.095,532.22 323.971,520.405C324.641,511.369 328.35,502.788 331.728,494.183C328.636,472.778 341.528,438.218 367.62,439.953C370.661,437.875 373.733,437.329 376.58,436.455C380.45,435.267 399.775,426.152 410.2,420.68C408.377,416.287 407.89,412.805 409.565,410.798C406.537,404.061 408.055,398.623 410.431,393.431C409.518,391.111 409.166,388.665 408.377,386.435C407.272,383.314 406.731,380.174 406.933,376.991C404.385,369.763 403.195,362.627 403.866,355.617C404.538,355.195 405.211,354.886 405.884,354.604C406.091,339.934 412.536,323.699 435.616,315.777L436.665,310.53C440.266,309.512 443.763,309.968 447.159,311.83L447.509,315.077C462.981,321.916 475.033,330.818 478.64,344.81C480.958,350.99 481.189,359.124 480.739,367.896C481.728,370.537 481.664,373.099 481.82,375.617C482.086,379.929 480.706,383.739 478.64,387.134C479.62,393.167 477.791,399.225 471.644,405.324C472.039,409.57 471.486,412.365 468.846,411.97C469.23,420.715 468.416,427.784 463.249,428.76L461.5,439.253C466.657,443.419 470.976,449.553 475.142,456.043C478.045,457.027 480.904,458.295 483.547,460.94C496.91,462.88 507.358,473.415 499.628,506.413C502.791,518.457 503.576,529.967 492.632,538.843C492.632,538.843 492.72,545.305 491.896,548.388C491.34,550.465 490.753,558.736 491,560L368.607,560C368.535,556.095 368.589,552.221 368.806,548.388C367.314,551.884 365.803,555.872 364.356,560ZM95.531,294.911C96.024,285.238 99.948,268.682 101.374,262.876C102.212,259.465 101.925,256.008 101.65,252.91C100.853,243.919 103.988,237.898 104.43,237.96C104.205,236.534 104.746,235.332 106.209,234.401C102.73,235.006 107.493,218.58 116.888,211.264C116.471,207.803 117.021,204.037 122.227,198.807C123.885,189.338 129.434,190.526 135.753,193.823C141.319,185.75 148.326,179.398 156.041,173.891C152.355,166.55 149.65,159.512 147.143,152.534C139.317,146.901 134.088,139.321 130.138,130.781C123.011,125.177 122.032,119.792 122.227,114.448C119.872,113.009 116.713,111.282 115.938,108.126C115.404,105.951 114.35,104.051 112.576,102.702C109.074,100.039 107.874,95.522 111.055,90.362C114.264,85.155 113.815,81.183 115.511,81.346C115.239,78.539 115.501,75.798 116.888,73.195C118.319,70.437 119.081,67.08 121.325,64.743C123.438,62.543 124.582,61.346 124.926,59.989C126.675,53.089 131.95,52.778 134.685,52.628C140.507,47.979 150.609,44.01 158.533,45.089C164.803,45.943 170.543,45.93 173.482,48.983C174.588,50.132 175.793,50.916 177.398,50.957C189.061,51.257 199.25,70.16 196.875,71.024C199.489,70.85 205.496,84.914 200.212,84.905C201.977,85.649 205.016,93.211 202.314,95.584C202.755,97.947 201.914,100.465 202.741,102.702C204.204,106.664 201.682,110.428 200.534,114.311C201.232,117.086 200.893,119.86 199.11,122.635C199.762,127.182 199.522,131.272 198.754,135.093C200.681,147.732 205.976,157.123 215.462,162.47C252.332,162.522 273.577,177.396 284.18,202.366C291.61,208.956 294.159,218.347 291.299,230.841C296.951,251.343 300.969,272.952 304.469,294.911L95.531,294.911ZM422.41,280.728L422.41,294.911L344.405,294.911L344.405,280.728L332.577,280.728C318.837,274.444 320.379,263.396 321.876,252.363C320.537,245.846 318.865,239.311 323.132,233.113C320.41,227.361 321.177,221.847 321.292,216.906C321.48,208.841 318.212,202.406 316.04,197.058C313.139,189.915 307.211,185.8 305.403,181.45C310.125,177.353 314.956,174.324 318.798,170.813C334.361,156.594 345.835,154.703 358.588,153.085C364.548,167.465 369.57,175.401 372.771,170.813L363.976,153.085C354.854,145.172 349.4,134.517 344.405,126.983L340.86,121.174C335.886,118.074 333.917,113.784 333.769,108.771C327.366,108.194 328.16,104.019 328.843,99.9C322.799,94.181 322.356,88.92 328.518,84.199C326.128,77.511 320.994,70.197 330.223,66.157C331.79,63.583 333.426,61.31 335.163,59.477C332.958,57.06 340.622,54.82 342.337,52.034C344.281,48.874 346.127,48.319 347.951,50.261C351.653,46.422 355.289,43.868 358.588,47.808C359.891,47.273 361.73,47.531 362.488,46.407C363.197,45.356 364.271,45.105 365.679,45.595C366.821,45.992 368.174,45.648 369.225,45.109C370.022,44.7 370.769,45.047 371.707,45.065C373.288,45.095 375.155,44.771 376.866,45.877C379.434,45.513 381.716,45.585 383.762,46.239C385.094,46.664 386.909,45.988 387.662,46.997C388.724,48.42 389.712,48.54 391.563,48.234C394.371,47.77 395.628,50.966 397.756,50.261C399.314,49.745 400.257,52.455 401.49,53.097C405.376,53.102 405.419,54.856 405.391,56.643C412.854,59.473 414.727,66.023 414.964,73.662C416.524,75.435 416.358,77.208 415.318,78.981C415.718,79.69 415.744,80.399 415.318,81.108C417.143,83.765 416.976,86.35 416.028,88.908C419.276,95.308 418.249,101.535 415.673,107.7C415.407,110.2 414.535,112.578 412.837,114.792C413.165,116.193 413.14,117.702 412.482,119.401L422.41,145.993C425.32,156.198 447.632,159.459 464.958,162.092L464.958,160.176C487.8,143.905 505.51,161.023 498.259,172.586C496.734,172.997 500.803,179.323 505.777,181.45C509.921,199.096 512.919,216.821 514.597,234.635C485.627,255.474 454.641,270.04 422.41,280.728Z" style="fill:white;"/>
    </g>
</svg>
