<?xml version="1.0" encoding="UTF-8" standalone="no"?>
<!DOCTYPE svg PUBLIC "-//W3C//DTD SVG 1.1//EN" "http://www.w3.org/Graphics/SVG/1.1/DTD/svg11.dtd">
<svg width="100%" height="100%" viewBox="0 0 1000 1000" version="1.1" xmlns="http://www.w3.org/2000/svg" xmlns:xlink="http://www.w3.org/1999/xlink" xml:space="preserve" xmlns:serif="http://www.serif.com/" style="fill-rule:evenodd;clip-rule:evenodd;stroke-linejoin:round;stroke-miterlimit:2;">
    <g transform="matrix(2.00463,0,0,2.00088,-539.978,-466.924)">
        <path d="M587.453,588.454C589.794,600.232 629.539,668.048 627.103,653.729C669.458,588.433 640.428,563.92 550,489.934C626.995,505.805 695.752,578.324 702.122,607.385C713.539,659.47 634.603,714.01 609.887,707.643C585.3,701.309 584.495,660.167 587.453,588.454C587.293,587.651 587.306,587.109 587.518,586.87L587.453,588.454ZM510.51,282.123C506.488,281.299 502.302,281.647 498,282.838L548.899,684.101C553.09,684.563 556.639,684.231 558.92,682.329L510.51,282.123ZM490,500C415.025,524.717 398.801,688.85 370,693.749C359.276,695.573 344.815,686.929 324.666,670C294.306,644.493 306.4,584.959 370,494.612C357.576,545.13 350.63,583.427 352.431,610C353.983,632.894 354.607,637.638 350,655.945C384.786,531.852 454.034,510.96 490,500ZM679.996,353.39C641.284,346.861 589.59,394.932 550,450C566.544,334.479 707.765,237.505 720,284.607C744.986,380.8 710.96,456.765 690.1,436.146C660.954,407.337 642.331,434.37 607.811,448.433C622.933,425.673 669.435,401.07 670.083,400C674.957,398.906 679.83,354.151 679.996,353.39ZM504.709,448.433C466.134,435.481 437.381,402.279 401,412.811C379.75,418.964 335.697,417.357 325.644,405.932C279.789,353.815 341.526,220.455 444.587,268.681C453.521,272.861 452.913,315.293 449.024,360C416.002,262.618 362.841,324.323 360,363.957C372.385,372.927 393.202,374.779 412.838,380C446.939,389.067 478.69,433.01 504.709,448.433ZM679.996,353.39C679.999,353.377 680,353.377 680,353.391L679.996,353.39Z" style="fill:white;"/>
    </g>
</svg>
