<?xml version="1.0" encoding="UTF-8" standalone="no"?>
<!DOCTYPE svg PUBLIC "-//W3C//DTD SVG 1.1//EN" "http://www.w3.org/Graphics/SVG/1.1/DTD/svg11.dtd">
<svg width="100%" height="100%" viewBox="0 0 1000 1000" version="1.1" xmlns="http://www.w3.org/2000/svg" xmlns:xlink="http://www.w3.org/1999/xlink" xml:space="preserve" xmlns:serif="http://www.serif.com/" style="fill-rule:evenodd;clip-rule:evenodd;stroke-linejoin:round;stroke-miterlimit:2;">
    <g transform="matrix(2.64736,0,0,2.64754,-831.361,-814.534)">
        <path d="M497.695,352.758L460,326.542L570.551,370.167L550.039,326.542L624.404,420.149L628.096,376.348L645.382,492.493L668.802,458.819L626.317,566.481L668.802,546.505L577.874,618.743L625.652,622.77L508.107,640.264L545.802,666.48L435.251,622.855L455.763,666.48L381.398,572.873L377.706,616.674L360.42,500.529L337,534.203L379.485,426.541L337,446.517L427.928,374.28L380.15,370.252L497.695,352.758ZM509.359,360.871L580,410L576.587,383.006L612.233,458.819L623.381,432.294L615.82,522L634.974,507.458L585.344,578.819L605.494,576.271L536.525,608.699L556.045,616.903L480,610.493L496.443,632.151L425.802,583.022L429.215,610.016L393.569,534.203L382.421,560.728L389.982,471.022L370.828,485.564L420.458,414.203L400.308,416.751L469.277,384.323L449.757,376.119L525.802,382.529L509.359,360.871ZM477.963,408.668L549.149,402.701L530.181,410.817L591.723,443.551L576.061,440.893L608.722,499.353L593.495,485.432L589.107,555L585.067,539.671L543.779,595.655L550.167,576.037L485,600.78L496.664,591.28L429.665,578.003L450.001,575.446L400,527.146L400.301,527.29L400,527L418.562,535.907L402.694,468.205L410.47,480.863L434.211,414.222L433.766,434.849L489,392.327L477.963,408.668ZM476,434L512.776,418.264L513.281,430.235L554.905,437.301L550,445.667L579.523,472.658L568.83,478.063L580.209,521.236L568.412,520L556.028,558.036L546.688,550.531L512.265,578.571L508.607,568.079L468.955,573.064L471.732,561.568L471.701,561.553L471.732,561.422L435.771,544.165L444.343,535.997L419.88,496.179L432.496,493.768L433.358,453.776L444.468,458.261L468.26,423.035L476,434ZM542.054,470.87L550,451.346L547.669,512.414L566,507L518.41,542.104L535.434,554L478.217,538.684L479.383,558L455.691,503.289L441.069,516.481L468.794,464.307L448,460.896L506.978,449.813L497,432L542.054,470.87ZM515.69,472L487.489,467.374L492,470.533L468.858,491.411L475.249,489.53L477.086,519.959L479.207,514.71L502.965,531.312L500.215,526.431L533.944,516.468L524.144,514.88L535.27,487.541L530.522,491.845L515.216,464.519L515.69,472Z" style="fill:white;"/>
    </g>
</svg>
