<?xml version="1.0" encoding="UTF-8" standalone="no"?>
<!DOCTYPE svg PUBLIC "-//W3C//DTD SVG 1.1//EN" "http://www.w3.org/Graphics/SVG/1.1/DTD/svg11.dtd">
<svg width="100%" height="100%" viewBox="0 0 1000 1000" version="1.1" xmlns="http://www.w3.org/2000/svg" xmlns:xlink="http://www.w3.org/1999/xlink" xml:space="preserve" xmlns:serif="http://www.serif.com/" style="fill-rule:evenodd;clip-rule:evenodd;stroke-linejoin:round;stroke-miterlimit:2;">
    <path d="M949.008,476.57C953.44,486.084 943.186,492.026 914.838,493.567C923.805,529.929 907.421,542.67 871.301,537.022C869.471,550.884 863.044,553.965 855.497,554.416C860.941,592.289 843.86,605.323 809.858,599.697C809.719,617.661 800.569,622.484 787.96,622.263C792.643,656.458 781.983,676.798 742.157,670.8C742.166,688.115 735.048,695.129 720.802,691.842C733.002,728.748 725.725,748.322 681.426,734.953C683.223,755.497 676.735,763.803 660.249,757.339C664.363,797.899 645.215,814.15 604.256,807.609C606.392,828.715 594.926,833.305 578.241,831.556C561.875,899.208 537.631,898.551 505.871,832.714C490.756,837.555 483.558,832.392 485.912,815.154C436.239,825.06 416.055,809.877 425.359,769.607C404.602,773.914 390.973,770.043 394.384,746.621C345.34,759.149 329.676,739.939 336.867,698.996C312.18,704.416 303.3,694.356 307.062,671.919C263.221,687.943 242.684,677.294 251.29,633.288C232.617,634.616 224.968,626.853 225.236,612.561C186.049,619.394 157.446,614.328 167.299,566.028C151.493,573.759 137.881,575.987 137.465,545.122C96.199,556.537 82.315,542.739 96.462,503.129C76.654,509.403 59.933,509.734 50,496.987C50.726,495.873 51.471,494.763 52.235,493.656C52.308,493.827 52.383,493.997 52.46,494.169C59.516,497.572 65.339,495.581 67.415,492.645C69.491,489.708 67.819,485.827 59.883,485.448C59.838,484.852 59.773,484.288 59.69,483.756C61.127,481.999 62.616,480.253 64.16,478.522C66.603,481.165 69.62,480.473 72.138,477.927C74.79,475.245 76.889,470.505 77.179,465.442L77.122,465.455C80.421,462.453 83.907,459.494 87.588,456.579L87.755,456.415C230.858,585.374 378.488,703.583 534.919,812.075C535.293,812.335 535.797,812.303 536.135,811.999C669.701,692.083 793.113,569.178 903.296,442.382L903.652,442.705C909.078,445.651 914.073,448.491 918.612,451.221C917.4,450.966 916.151,450.795 914.885,450.723C916.513,458.106 925.139,469.534 929.413,466.152C931.957,464.139 932.375,461.732 931.346,459.425C934.169,461.402 936.69,463.304 938.893,465.129C938.369,466.549 938.015,468.367 937.907,470.626C920.364,471.95 927.183,488.481 947.943,479.169C948.369,478.285 948.722,477.417 949.008,476.57ZM546.495,868.659C555.006,865.687 558.125,859.328 557.424,855.25C556.724,851.171 552.205,849.373 545.439,855.522C532.099,844.053 525.231,860.565 546.495,868.659ZM543.234,825.169C547.118,829.525 549.267,835.089 549.291,839.431C549.315,843.772 547.214,846.89 542.597,846.352C537.183,845.722 539.165,831.542 543.234,825.169ZM536.918,821.647C535.998,825.92 533.563,829.713 530.924,831.694C528.285,833.675 525.441,833.843 523.703,830.866C521.665,827.375 531.207,822.124 536.918,821.647ZM549.721,822.344C554.067,821.877 558.433,822.998 561.142,824.882C563.851,826.766 564.903,829.413 562.622,831.998C559.947,835.029 551.967,827.617 549.721,822.344ZM437.082,808.996C445.201,812.912 451.903,810.621 454.292,807.242C456.68,803.863 454.756,799.396 445.625,798.96C444.301,781.418 427.77,788.236 437.082,808.996ZM894.496,434.416C896.956,436.632 899.404,438.847 901.841,441.06C791.855,567.633 668.69,690.315 535.401,810.018C379.316,701.723 231.994,583.745 89.163,455.039L95.982,448.376C236.135,574.032 380.679,689.406 533.637,795.489C534.011,795.748 534.514,795.717 534.853,795.412C665.386,678.22 786.22,558.172 894.496,434.416ZM644.85,794.551C648.766,786.432 646.475,779.73 643.096,777.342C639.717,774.953 635.25,776.877 634.814,786.009C617.272,787.332 624.09,803.864 644.85,794.551ZM472.113,778.528C475.516,781.27 477.81,785.15 478.394,788.398C478.977,791.646 477.849,794.261 474.409,794.476C470.374,794.727 469.972,783.844 472.113,778.528ZM97.39,447C206.514,340.353 315.758,233.911 426.475,129.695C437.964,118.88 455.844,112.278 474.994,124.029C653.863,233.79 784.392,335.315 893.037,433.101C784.974,556.617 664.381,676.447 534.118,793.432C381.5,687.542 237.26,572.395 97.39,447ZM465.528,775.938C465.195,781.764 462.78,787.219 459.727,790.306C456.674,793.392 452.983,794.111 450.099,790.466C446.717,786.192 458.144,777.566 465.528,775.938ZM604.835,768.081C607.206,771.753 608.167,776.157 607.701,779.424C607.236,782.69 605.344,784.82 602.01,783.944C598.1,782.917 601.134,772.457 604.835,768.081ZM611.792,766.105C617.618,766.439 623.073,768.854 626.16,771.907C629.246,774.96 629.965,778.65 626.32,781.535C622.046,784.917 613.42,773.489 611.792,766.105ZM463.552,768.981C459.881,771.352 455.477,772.313 452.21,771.847C448.943,771.382 446.813,769.49 447.689,766.156C448.717,762.246 459.177,765.28 463.552,768.981ZM614.382,759.521C617.124,756.118 621.004,753.823 624.252,753.24C627.5,752.656 630.115,753.784 630.33,757.225C630.582,761.259 619.698,761.661 614.382,759.521ZM568.979,725.706C572.254,721.465 574.314,717.03 571.956,711.894C565.915,711.872 562.856,715.722 561.098,721.261C534.592,715.577 509.206,710.002 496.005,711.13C485.402,712.036 477.802,729.994 484.968,736.466C488.525,739.677 497.309,739.392 509.808,740.668C505.365,740.583 500.86,740.29 496.667,741.044C501.803,743.824 510.13,745.194 524.401,743.936C524.526,741.934 524.861,740.073 525.286,738.27C524.678,744.322 524.703,749.174 525.286,752.965C530.325,751.261 532.056,745.52 530.882,736.229C531.742,737.479 532.208,739.092 532.101,741.234L559.286,733.395C561.51,740.665 566.86,743.09 573.518,743.487C574.699,737.503 574.733,731.543 568.979,725.706ZM347.745,740.071C354.801,743.474 360.624,741.483 362.7,738.547C364.776,735.61 363.104,731.729 355.169,731.35C354.019,716.106 339.653,722.031 347.745,740.071ZM512.503,730.725C513.324,730.725 513.991,731.81 513.991,733.147C513.991,734.484 513.324,735.569 512.503,735.569C511.682,735.569 511.015,734.484 511.015,733.147C511.015,731.81 511.682,730.725 512.503,730.725ZM714.081,727.009C717.997,718.89 715.706,712.188 712.327,709.8C708.948,707.411 704.481,709.335 704.045,718.467C686.502,719.79 693.321,736.322 714.081,727.009ZM378.186,713.595C381.143,715.978 383.137,719.349 383.644,722.171C384.151,724.994 383.171,727.267 380.181,727.453C376.675,727.672 376.326,718.214 378.186,713.595ZM372.464,711.344C372.174,716.407 370.076,721.147 367.423,723.829C364.77,726.512 361.563,727.137 359.057,723.969C356.118,720.255 366.048,712.759 372.464,711.344ZM674.066,700.539C676.436,704.211 677.397,708.615 676.932,711.882C676.466,715.148 674.575,717.278 671.24,716.402C667.331,715.375 670.365,704.915 674.066,700.539ZM681.023,698.563C686.849,698.897 692.303,701.312 695.39,704.365C698.477,707.418 699.196,711.108 695.551,713.993C691.277,717.375 682.651,705.947 681.023,698.563ZM370.747,705.299C367.557,707.359 363.73,708.194 360.891,707.79C358.052,707.385 356.202,705.741 356.963,702.844C357.856,699.447 366.945,702.083 370.747,705.299ZM507.614,706.09C504.426,701.235 504.234,697.404 505.351,695.6C506.468,693.797 508.895,694.022 510.943,697.278C519.607,695.337 517.958,703.1 507.614,706.09ZM683.612,691.979C686.355,688.576 690.235,686.281 693.482,685.698C696.73,685.114 699.346,686.242 699.561,689.683C699.812,693.717 688.929,694.119 683.612,691.979ZM259.348,670.102C266.403,673.505 272.227,671.514 274.302,668.578C276.378,665.641 274.706,661.76 266.771,661.381C265.621,646.137 251.256,652.062 259.348,670.102ZM775.391,660.632C779.307,652.512 777.016,645.81 773.637,643.422C770.258,641.033 765.791,642.957 765.355,652.089C747.813,653.412 754.631,669.944 775.391,660.632ZM289.788,643.626C292.745,646.009 294.739,649.38 295.246,652.203C295.753,655.025 294.773,657.298 291.783,657.484C288.277,657.703 287.928,648.245 289.788,643.626ZM284.066,641.375C283.777,646.438 281.678,651.178 279.025,653.86C276.372,656.543 273.165,657.168 270.659,654C267.72,650.286 277.65,642.791 284.066,641.375ZM735.376,634.161C737.747,637.833 738.708,642.237 738.242,645.504C737.777,648.771 735.885,650.9 732.551,650.024C728.641,648.997 731.675,638.537 735.376,634.161ZM742.333,632.186C748.159,632.519 753.614,634.934 756.701,637.987C759.787,641.04 760.506,644.73 756.861,647.615C752.587,650.997 743.961,639.569 742.333,632.186ZM282.35,635.33C279.159,637.39 275.332,638.225 272.493,637.821C269.655,637.416 267.804,635.773 268.565,632.875C269.458,629.478 278.547,632.114 282.35,635.33ZM744.923,625.601C747.665,622.198 751.545,619.903 754.793,619.32C758.041,618.736 760.657,619.864 760.871,623.305C761.123,627.34 750.239,627.741 744.923,625.601ZM176.954,603.609C184.01,607.012 189.833,605.021 191.909,602.085C193.985,599.149 192.313,595.267 184.378,594.888C183.228,579.644 168.862,585.569 176.954,603.609ZM207.395,577.133C210.352,579.516 212.346,582.887 212.853,585.71C213.36,588.532 212.38,590.805 209.39,590.991C205.884,591.21 205.535,581.752 207.395,577.133ZM840.938,588.037C844.854,579.917 842.563,573.216 839.184,570.827C835.805,568.438 831.338,570.363 830.902,579.494C813.36,580.818 820.178,597.349 840.938,588.037ZM201.673,574.882C201.383,579.945 199.285,584.685 196.632,587.368C193.979,590.05 190.772,590.675 188.266,587.507C185.327,583.793 195.257,576.298 201.673,574.882ZM800.923,561.567C803.294,565.238 804.255,569.642 803.789,572.909C803.324,576.176 801.432,578.306 798.098,577.43C794.188,576.402 797.222,565.942 800.923,561.567ZM807.88,559.591C813.706,559.924 819.161,562.339 822.248,565.392C825.334,568.445 826.053,572.136 822.408,575.02C818.134,578.402 809.508,566.975 807.88,559.591ZM199.956,568.837C196.766,570.897 192.939,571.732 190.1,571.328C187.261,570.923 185.411,569.28 186.172,566.382C187.065,562.985 196.154,565.621 199.956,568.837ZM810.47,553.006C813.212,549.603 817.092,547.309 820.34,546.725C823.588,546.142 826.204,547.27 826.418,550.71C826.67,554.745 815.786,555.147 810.47,553.006ZM102.791,538.388C109.846,541.791 115.67,539.8 117.746,536.864C119.821,533.927 118.149,530.046 110.214,529.667C109.064,514.423 94.699,520.348 102.791,538.388ZM903.111,524.001C907.027,515.881 904.736,509.18 901.357,506.791C897.978,504.402 893.511,506.326 893.075,515.458C875.532,516.782 882.351,533.313 903.111,524.001ZM133.231,511.912C136.189,514.295 138.182,517.666 138.689,520.488C139.196,523.311 138.216,525.584 135.226,525.77C131.72,525.989 131.371,516.531 133.231,511.912ZM127.509,509.661C127.22,514.724 125.121,519.464 122.468,522.146C119.815,524.829 116.608,525.453 114.102,522.286C111.163,518.572 121.093,511.076 127.509,509.661ZM863.096,497.53C865.466,501.202 866.427,505.606 865.962,508.873C865.497,512.14 863.605,514.27 860.27,513.393C856.361,512.366 859.395,501.906 863.096,497.53ZM870.053,495.555C875.879,495.888 881.333,498.303 884.42,501.356C887.507,504.409 888.226,508.1 884.581,510.984C880.307,514.366 871.681,502.938 870.053,495.555ZM125.793,503.616C122.602,505.676 118.775,506.511 115.936,506.107C113.098,505.702 111.247,504.058 112.008,501.161C112.901,497.763 121.99,500.4 125.793,503.616ZM872.642,488.97C875.385,485.567 879.265,483.273 882.512,482.689C885.76,482.106 888.376,483.233 888.591,486.674C888.842,490.709 877.959,491.111 872.642,488.97ZM82.9,467.693C85.858,470.076 87.852,473.447 88.359,476.269C88.866,479.092 87.886,481.365 84.896,481.551C81.39,481.77 81.041,472.312 82.9,467.693ZM907.928,452.698C910.299,456.37 911.259,460.774 910.794,464.041C910.329,467.308 908.437,469.438 905.103,468.561C901.193,467.534 904.227,457.074 907.928,452.698Z" style="fill:white;"/>
</svg>
