<?xml version="1.0" encoding="UTF-8" standalone="no"?>
<!DOCTYPE svg PUBLIC "-//W3C//DTD SVG 1.1//EN" "http://www.w3.org/Graphics/SVG/1.1/DTD/svg11.dtd">
<svg width="100%" height="100%" viewBox="0 0 1000 1000" version="1.1" xmlns="http://www.w3.org/2000/svg" xmlns:xlink="http://www.w3.org/1999/xlink" xml:space="preserve" xmlns:serif="http://www.serif.com/" style="fill-rule:evenodd;clip-rule:evenodd;stroke-linejoin:round;stroke-miterlimit:2;">
    <g transform="matrix(1.35202,0,0,1.35202,-284.396,-40.809)">
        <path d="M355.938,573.385C379.927,552.953 392.265,531.23 402.699,512C412.384,494.149 420.744,476.95 422,462.002C425.262,423.184 414.955,395.33 385,420C373.993,424.667 375.818,405.333 376.087,398C376.308,392 372.834,376 384,380C405.895,389.344 432.727,385.478 435.347,376C450.237,322.118 415.538,312.908 390,335C379.655,343.949 348.292,332.009 360,310C363.049,254.984 387.335,231.647 453,262C434.381,290.629 455.458,314.487 481,314.54C525.95,314.634 523.796,265.548 524,265C531.648,244.421 584.27,291.744 594.844,335C602.443,366.084 592.457,466.092 573,436.174C537.332,381.33 501.288,391.831 473.265,425.061C446.37,456.954 470.644,539.094 528.486,565.619C540.802,559.156 552.38,551.468 563.055,542.719L553.478,643.811L619.729,702.112C597.309,707.274 573.97,710 550,710C402.004,710 278.091,606.067 247.331,467.263C268.499,515.109 307.529,553.309 355.938,573.385ZM635,706L635,611L569,545L560,640L635,706ZM741.189,643.965C711.996,666.885 678.589,684.682 642.329,695.995L642.329,609.455L636.837,603.964L741.189,643.965ZM760,646L700,540L605,507L640,600L760,646ZM816.429,558.477C800.514,585.162 780.702,609.261 757.787,629.975L705.58,537.743L816.429,558.477ZM632.833,599.96L569.809,536.935C580.076,527.749 589.408,517.54 597.647,506.465L632.833,599.96ZM847,560L740,464L627,454L708,534L847,560ZM857.303,441.03C852.81,474.942 842.827,507.131 828.28,536.668L741.779,459.059L857.303,441.03ZM697.579,531.599L603.095,498.778C611.453,486.391 618.487,473.037 623.992,458.921L697.579,531.599ZM727.248,456.275L628.058,447.497C631.332,437.345 633.831,426.847 635.485,416.074L727.248,456.275ZM913,427L766,380L635,408L740,454L913,427ZM637.329,399.646C637.676,394.79 637.853,389.879 637.853,384.927C637.853,272.376 546.477,181 433.927,181C369.435,181 311.896,211.002 274.513,257.802C326.092,158.161 430.149,90 550,90C721.094,90 860,228.906 860,400C860,400.616 859.998,401.231 859.994,401.838L766.671,372L637.329,399.646Z" style="fill:white;"/>
    </g>
</svg>
