<?xml version="1.0" encoding="UTF-8" standalone="no"?>
<!DOCTYPE svg PUBLIC "-//W3C//DTD SVG 1.1//EN" "http://www.w3.org/Graphics/SVG/1.1/DTD/svg11.dtd">
<svg width="100%" height="100%" viewBox="0 0 1000 1000" version="1.1" xmlns="http://www.w3.org/2000/svg" xmlns:xlink="http://www.w3.org/1999/xlink" xml:space="preserve" xmlns:serif="http://www.serif.com/" style="fill-rule:evenodd;clip-rule:evenodd;stroke-linejoin:round;stroke-miterlimit:2;">
    <g transform="matrix(11.7025,0,0,11.7025,-5742.75,-4369.36)">
        <path d="M543.632,405.647L543.632,396.458L496.368,396.458L496.368,407.627L495,408C495,408 495.51,408.69 496.368,409.836L496.368,443.542L543.632,443.542L543.632,412.691C558.063,401.095 571.907,388.649 571.907,388.649L564,389C564,389 554.198,397.113 543.632,405.647ZM500.154,414.841L500.154,439.791L539.846,439.791L539.846,415.701C529.805,423.596 520.035,430.521 515,432C513.793,432.354 505.67,422.06 500.154,414.841ZM539.846,408.695L539.846,400.209L500.154,400.209L500.154,406.594C500.154,406.594 505.521,404.521 506,405C506.887,405.887 515.578,426.109 516.619,425.41C520.317,422.926 531.682,415.25 539.846,408.695Z" style="fill:white;"/>
    </g>
</svg>
