<?xml version="1.0" encoding="UTF-8" standalone="no"?>
<!DOCTYPE svg PUBLIC "-//W3C//DTD SVG 1.1//EN" "http://www.w3.org/Graphics/SVG/1.1/DTD/svg11.dtd">
<svg width="100%" height="100%" viewBox="0 0 1000 1000" version="1.1" xmlns="http://www.w3.org/2000/svg" xmlns:xlink="http://www.w3.org/1999/xlink" xml:space="preserve" xmlns:serif="http://www.serif.com/" style="fill-rule:evenodd;clip-rule:evenodd;stroke-linejoin:round;stroke-miterlimit:2;">
    <g transform="matrix(9.18367,0,0,9.18367,-4156.12,-2466.33)">
        <path d="M517,274C515.94,280.114 513.609,286.074 511,292C515.347,313.524 518.178,335.776 520.938,358.062L507,372L493.062,358.062C495.822,335.776 498.653,313.524 503,292C500.391,286.074 498.06,280.114 497,274L517,274ZM507,360L498.303,351.303L496.303,353.303L507,364L517.697,353.303L515.697,351.303L507,360ZM507,338.787L515.607,347.393L507,356L498.393,347.393L507,338.787Z" style="fill:white;"/>
    </g>
</svg>
