<?xml version="1.0" encoding="UTF-8" standalone="no"?>
<!DOCTYPE svg PUBLIC "-//W3C//DTD SVG 1.1//EN" "http://www.w3.org/Graphics/SVG/1.1/DTD/svg11.dtd">
<svg width="100%" height="100%" viewBox="0 0 1000 1000" version="1.1" xmlns="http://www.w3.org/2000/svg" xmlns:xlink="http://www.w3.org/1999/xlink" xml:space="preserve" xmlns:serif="http://www.serif.com/" style="fill-rule:evenodd;clip-rule:evenodd;stroke-linejoin:round;stroke-miterlimit:2;">
    <g transform="matrix(1.27521,0,0,1.27521,-128.955,-35.5379)">
        <path d="M549.518,714.026C507.425,716.06 462.943,706.114 413.488,671.218C394.099,658.329 371.851,647.707 343.953,641.567C300.735,630.68 257.522,623.431 214.318,624.416C224.374,641.546 236.16,658.831 252.728,676.546C273.128,698.918 304.038,719.4 372.131,733.191C439.228,741.378 498.578,735.394 549.518,714.026ZM598.668,709.58C607.917,687.602 623.289,669.263 629.762,648.021C634.483,632.525 641.943,615.192 656.802,602.426C691.879,572.288 725.067,549.837 749.875,539.091C800.819,519.41 830.991,496.954 841.344,471.85C853.517,507.47 841.44,546.376 815.255,587.193C796.145,604.027 771.983,620.799 739.861,639.577C695.478,665.523 648.148,688.781 598.668,709.58ZM340.501,445.777C312.272,430.754 294.557,433.133 292.208,460.945C292.831,501.134 307.574,533.794 329.606,562.569C353.57,591.87 383.09,610.483 415.533,623.475C453.547,640.921 491.724,644.737 530.012,639.225C568.865,635.251 597.13,610.294 618.127,570.934C577.53,581.254 536.932,589.67 496.334,591.677C454.672,588.895 431.145,575.703 419.295,555.807C415.372,548.692 410.185,542.493 408.585,535.404C398.765,491.908 377.604,465.965 340.501,445.777ZM189.528,262.093C189.023,301.05 199.595,339.691 232.002,377.708C245.489,394.044 248.39,412.017 243.707,430.974C231.781,457.571 231.094,485.119 245.523,513.947C250.673,535.733 265.213,555.31 288.302,572.876C258.723,578.523 229.133,584.131 194.195,569.81C156.32,552.773 137.822,524.915 140.608,485.173C146.793,448.5 157.033,430.515 168.595,418.628C182.305,403.834 186.887,389.039 176.29,374.245C157.931,329.635 161.063,291.845 189.528,262.093ZM371.185,418.371C373.906,422.752 381.011,425.614 390.627,429.723C399.269,433.417 410.302,437.611 421.277,445.835C442.81,461.97 443.196,491.258 456.419,505.749C464.54,514.65 469.505,518.888 475.163,523.439C497.955,530.064 532.239,521.225 571.906,495.463C592.956,481.792 613.479,462.692 633.011,436.104C646.209,406.87 634.761,367.263 621.06,360.697C608.067,354.471 578.097,372.746 559.699,390.298C533.55,403.286 505.915,408.667 475.163,398.084C440.833,387.263 411.237,366.235 386.691,334.32C377.862,314.963 369.833,308.013 360.329,313.54C354.929,324.496 353.479,343.758 353.886,365.113C354.291,386.423 359.266,406.142 371.185,418.371ZM637.096,522.022C662.465,506.083 683.107,487.118 697.395,464.084C713.114,431.471 721.4,397.818 718.722,362.633C717.267,338.571 709.232,320.406 687.075,314.898C656.721,304.809 640.436,287.665 640.957,262.093C639.559,240.979 633.785,221.32 623.205,203.26L598.668,166.187C591.599,161.022 586.139,154.149 582.51,145.331C575.714,136.963 567.239,130.091 549.518,131.447C544.397,130.904 536.456,130.523 526.338,130.267C544.844,119.731 566.537,111.488 590.519,104.893C614.453,102.112 637.152,103.764 658.084,111.757C674.375,117.059 690.406,125.379 704.798,152.694C709.395,167.802 710.228,184.729 710.166,202.088C710.214,228.004 715.043,252.381 744.026,268.99C760.435,272.858 777.189,277.607 794.866,289.6C814.557,302.566 823.748,323.859 821.407,354.298C821.166,374.681 805.738,428.439 744.776,471.85C711.755,495.364 673.472,514.147 637.096,522.022ZM475.163,131.181C372.829,146.034 312.31,192.677 303.617,277.067C300.622,306.147 303.185,339.523 313.483,377.708C239.717,325.875 200.971,229.866 252.531,152.097C268.485,128.034 302.599,111.738 358.456,103.986C380.243,100.962 408.347,106.999 443.548,118.791C454.602,120.68 464.945,125.66 475.163,131.181ZM514.05,313.071C507.092,324.632 500.238,333.97 492.056,336.672C461.678,346.701 438.461,329.887 444.512,293.999C457.815,267.528 476.248,257.771 500,254.49C546.142,248.116 577.182,259.805 606.671,303.716C601.239,335.815 575.146,344.379 514.05,313.071ZM559.699,218.223C525.061,211.337 498.852,214.539 477.722,221.852C465.805,225.976 456.309,231.755 448.561,238.786C433.563,252.396 430.847,275.431 428.499,291.865C427.819,296.627 422.652,298.128 419.584,299.354C408.118,295.01 399.797,290.115 396.785,283.242C377.674,239.638 406.733,207.672 433.551,191.982C458.384,182.222 477.873,181.13 494.406,182.127C523.934,183.908 542.169,200.832 559.699,218.223Z" style="fill:white;"/>
    </g>
</svg>
