<?xml version="1.0" encoding="UTF-8" standalone="no"?>
<!DOCTYPE svg PUBLIC "-//W3C//DTD SVG 1.1//EN" "http://www.w3.org/Graphics/SVG/1.1/DTD/svg11.dtd">
<svg width="100%" height="100%" viewBox="0 0 1000 1000" version="1.1" xmlns="http://www.w3.org/2000/svg" xmlns:xlink="http://www.w3.org/1999/xlink" xml:space="preserve" xmlns:serif="http://www.serif.com/" style="fill-rule:evenodd;clip-rule:evenodd;stroke-linejoin:round;stroke-miterlimit:2;">
    <g transform="matrix(1.98929,0,0,1.99115,-255.929,-244.69)">
        <path d="M398.878,586.217C390.341,597.04 380,600 380,600C380,600 375.411,598.686 369.824,594.61L398.878,586.217ZM409.885,554.366C409.425,562.948 407.623,569.989 405.115,575.741L362.62,588.017C358.878,583.75 355.339,578.084 352.967,570.629L409.885,554.366ZM350.275,545.927C339.874,543.032 329.901,538.647 320.5,532.957L341.93,495.838C353.731,501.753 366.573,505 380,505C393.427,505 406.269,501.753 418.07,495.838L439.5,532.957C428.487,539.623 416.687,544.498 404.332,547.286L351.012,562.52C350.364,558.721 350,554.559 350,550C350,548.619 350.094,547.26 350.275,545.927ZM380,322.264L443.141,212.9C446.434,207.196 453.739,205.239 459.443,208.532L480.114,220.466C485.818,223.759 487.775,231.064 484.482,236.768L407.561,370L484.482,503.232C487.775,508.936 485.818,516.241 480.114,519.534L459.443,531.468C453.739,534.761 446.434,532.804 443.141,527.1L380,417.736L316.859,527.1C313.566,532.804 306.261,534.761 300.557,531.468L279.886,519.534C274.182,516.241 272.225,508.936 275.518,503.232L352.439,370L275.518,236.768C272.225,231.064 274.182,223.759 279.886,220.466L300.557,208.532C306.261,205.239 313.566,207.196 316.859,212.9L380,322.264ZM413.421,487.787C402.991,492.685 391.736,495.357 380,495.357C368.264,495.357 357.009,492.685 346.579,487.787L380,429.9L413.421,487.787ZM275.931,249.648L297.357,286.757C283.355,309.693 275,338.602 275,370C275,401.398 283.355,430.307 297.357,453.243L275.931,490.352C253.599,458.458 240,416.255 240,370C240,323.745 253.599,281.542 275.931,249.648ZM484.069,249.648C506.401,281.542 520,323.745 520,370C520,416.255 506.401,458.458 484.069,490.352L462.643,453.243C476.645,430.307 485,401.398 485,370C485,338.602 476.645,309.693 462.643,286.757L484.069,249.648ZM345.417,370L302.004,445.194C289.758,424.238 282.5,398.2 282.5,370C282.5,341.8 289.758,315.762 302.004,294.806L345.417,370ZM457.996,294.806C470.242,315.762 477.5,341.8 477.5,370C477.5,398.2 470.242,424.238 457.996,445.194L414.583,370L457.996,294.806ZM346.579,252.213C357.009,247.315 368.264,244.643 380,244.643C391.736,244.643 402.991,247.315 413.421,252.213L380,310.1L346.579,252.213ZM362.993,191.317C358.077,186.75 355,180.231 355,173C355,159.202 366.202,148 380,148C393.798,148 405,159.202 405,173C405,180.231 401.923,186.75 397.007,191.317C412.033,193.661 426.329,199.071 439.5,207.043L418.07,244.162C406.269,238.247 393.427,235 380,235C366.573,235 353.731,238.247 341.93,244.162L320.5,207.043C333.671,199.071 347.967,193.661 362.993,191.317ZM380,159.87C387.247,159.87 393.13,165.753 393.13,173C393.13,180.247 387.247,186.13 380,186.13C372.753,186.13 366.87,180.247 366.87,173C366.87,165.753 372.753,159.87 380,159.87Z" style="fill:white;"/>
    </g>
</svg>
