<?xml version="1.0" encoding="UTF-8" standalone="no"?>
<!DOCTYPE svg PUBLIC "-//W3C//DTD SVG 1.1//EN" "http://www.w3.org/Graphics/SVG/1.1/DTD/svg11.dtd">
<svg width="100%" height="100%" viewBox="0 0 1000 1000" version="1.1" xmlns="http://www.w3.org/2000/svg" xmlns:xlink="http://www.w3.org/1999/xlink" xml:space="preserve" xmlns:serif="http://www.serif.com/" style="fill-rule:evenodd;clip-rule:evenodd;stroke-linejoin:round;stroke-miterlimit:2;">
    <g transform="matrix(2,0,0,2,-200,-110)">
        <path d="M308,530L350,370L392,530L308,530ZM305.374,438.151L168.944,490L239.832,358.152L334.98,341.667L305.374,438.151ZM394.626,438.151L531.056,490L460.168,358.152L365.02,341.667L394.626,438.151ZM240.339,337.681L134,232.319L283.453,240.845L334.98,321.802L240.339,337.681ZM459.661,337.681L566,232.319L416.547,240.845L365.02,321.802L459.661,337.681ZM297,220L350,80L403,220L350,304L297,220Z" style="fill:white;"/>
    </g>
</svg>
