<?xml version="1.0" encoding="UTF-8" standalone="no"?>
<!DOCTYPE svg PUBLIC "-//W3C//DTD SVG 1.1//EN" "http://www.w3.org/Graphics/SVG/1.1/DTD/svg11.dtd">
<svg width="100%" height="100%" viewBox="0 0 1000 1000" version="1.1" xmlns="http://www.w3.org/2000/svg" xmlns:xlink="http://www.w3.org/1999/xlink" xml:space="preserve" xmlns:serif="http://www.serif.com/" style="fill-rule:evenodd;clip-rule:evenodd;stroke-linejoin:round;stroke-miterlimit:2;">
    <g transform="matrix(2.8897,0,0,2.8897,-1022.39,-371.896)">
        <path d="M605.668,164.31C604.811,154.353 600.969,148.189 594,146C602.712,171.576 586.046,209.343 543.317,222.526C520.409,229.593 493.308,235.027 480,248.376C471.059,257.344 461.457,264.374 451,270C452.269,274.237 453.981,277.855 456.033,281C458.315,284.499 466,290 466,290C465.815,290.384 466.649,292.654 468,293C479.933,275.669 496.859,287.39 499,294C502.341,304.315 507.816,310.046 517,307.805C520.698,306.902 523.869,304.002 530,301C544.76,307.978 545.254,320.532 539.629,330C535.055,337.699 526.621,346.36 522,357.525C517.146,369.253 507.172,370.562 498,367.186C494.533,365.91 491.449,365.321 489,366C490.962,371.326 491.718,379.587 492,389C487.698,400.16 478.662,403.86 468,405C470.301,408.154 473.864,409.49 478,410C475.209,411.213 472.89,412.66 471,414.362C468.954,416.203 465.654,414.471 463,413C465.493,420.631 470.022,424.231 478,421C474.726,426.327 472.765,430.973 472,435C474.166,434.298 476.27,433.484 478,432L476,435C485.879,434.673 495.468,432.059 505,429C504.982,433.49 504.31,437.951 503.22,442.394C508.993,441.671 514.592,439.461 520,435.636C523.044,442.28 522.401,448.924 520,455.568C528.174,452.925 534.323,446.862 540,440C540.951,445.865 540.993,451.685 540,457.451C543.959,455.522 547.4,453.133 550,450C552.042,450.521 554.7,450.46 557.78,450C557.862,451.641 557.756,453.282 557.555,454.924C563.629,450.471 568.721,445.457 573.037,440C572.827,444.918 571.742,449.257 570,453.161C580.588,453.697 585.065,444.865 585.606,430C588.019,435.899 592.58,439.487 600,440C597.206,435.713 596.198,431.426 600,427.139C602.374,431.76 607.294,432.048 613,431C607.981,428.281 604.981,424.948 604,421C607.05,423.557 610.946,425.024 616,425C613.48,423.083 611.303,421.111 610,419C615.465,421.479 620.898,424.063 630,419.33C631.698,418.447 633.804,417.956 636,417C629.833,414.667 625.611,411.98 623,409C628.164,409.112 633.244,408.484 638,405C644.761,405.543 650.196,404.217 655,402C650.826,402.232 646.676,402.386 643,401C645.227,399.747 647.23,398.087 649,396C647.265,396.503 645.58,396.638 644,396C646.516,394.612 648.516,392.945 650,391C643.548,389.555 637.837,387.586 633,385C635.057,382.919 637.048,380.931 639,379C624.638,377.241 619.151,375.779 614,365C610.915,357.444 608.193,350.081 606,343C609.291,341.176 612.302,339.183 615,337C611.659,335.094 608.662,333.165 608,331C608.7,330.685 609.361,330.349 610,330C600.167,325.735 594.388,307.106 591,280C595.137,282.783 599.272,286.945 605.5,289.013C613.239,291.583 620.151,296.888 627,303C625.967,296.242 624.522,289.501 617,283C614.004,277.859 609.66,274.25 605,271C610.041,271.648 614.304,270.852 618,269C641.226,268.761 645.945,260.204 647,250C635.369,259.231 622.562,259.872 609,255C622.311,249.894 634.681,243.782 638,228C646.734,219.667 647.642,211.333 647,203C631.207,226.762 612.309,235.908 590,229C605.45,221.443 617.019,212.679 616,200C612.065,207.473 606.372,212.773 599,216C611.34,196.613 618.538,168.927 605.668,164.31ZM403.318,408.183L415,398C425.78,388.435 432.92,377.549 447,375.425C461.546,373.23 473.801,369.623 487,367L486,364C489.176,363.647 492.979,361.181 496,362.862C506.602,368.76 515.709,364.808 521,352C524.314,343.979 529.409,336.704 534.221,331C542.755,320.884 539.92,308.895 530,304C524.87,310.815 501.345,317.973 498,299.066C494.862,281.331 472.118,285.857 469,295.5L467,294.5C456.761,305.699 441.659,313.851 427.275,325C401.13,345.267 392.286,380.294 403.318,408.183ZM543,263C538.929,264.635 535.75,268.41 531.5,268.939C517.746,270.652 511.742,278.352 508.5,288C513.389,294.59 524.565,296.016 529,292.574C535.943,287.186 536.567,283.387 537.5,272.5L543,263Z" style="fill:white;"/>
    </g>
</svg>
