<?xml version="1.0" encoding="UTF-8" standalone="no"?>
<!DOCTYPE svg PUBLIC "-//W3C//DTD SVG 1.1//EN" "http://www.w3.org/Graphics/SVG/1.1/DTD/svg11.dtd">
<svg width="100%" height="100%" viewBox="0 0 1000 1000" version="1.1" xmlns="http://www.w3.org/2000/svg" xmlns:xlink="http://www.w3.org/1999/xlink" xml:space="preserve" xmlns:serif="http://www.serif.com/" style="fill-rule:evenodd;clip-rule:evenodd;stroke-linejoin:round;stroke-miterlimit:2;">
    <g transform="matrix(1.53224,0,0,1.53224,-141.643,-302.318)">
        <path d="M388.822,792.209C390.717,778.55 388.931,766.784 382.01,767.131C380.146,767.225 366.163,768.676 362.699,776.866C357.659,788.782 346.861,783.92 346.622,779.896C346.118,771.398 349.51,769.192 351.677,770.752C353.078,771.761 348.244,773.853 350.255,776.836C352.953,778.223 358.533,775.002 358.349,770.42C357.991,761.459 356.251,755.805 347.451,753.987C344.338,753.344 340.246,753.29 334.962,753.401C324.876,753.612 318.436,758.2 314.87,766.739C313.218,770.695 312.18,775.469 311.679,780.973C311.358,784.486 309.19,795.244 317.563,798.636C320.169,799.691 323.699,799.935 328.438,798.836C331.529,798.119 335.551,803.04 339.129,804.96C344.999,808.111 354.459,811.504 361.069,804.073C369.157,794.981 377.675,786.496 381.366,782.85C383.684,780.559 386.541,787.631 388.822,792.209ZM526.439,765.986C524.361,765.126 522.284,764.132 520.209,763.004C497.955,784.792 476.591,789.868 455.676,786.488C464.009,777.196 471.961,765.869 476.06,753.874C496.144,747.37 514.466,739.369 532.388,728.408C514.732,735.573 496.774,742.1 478.019,746.951C478.079,746.612 478.136,746.269 478.19,745.925C468.134,731.021 438.356,728.383 393.763,734.959C408.711,705.06 436.075,689.664 480.421,694.104C482.681,680.281 486.549,668.075 490.61,656.063C501.261,647.002 509.275,635.806 502.931,630.242C488.694,617.758 452.472,606.975 449.367,592.598C469.655,595.654 487.978,596.352 502.643,589.395C487.052,561.922 479.984,536.732 476.635,512.538C492.401,530.018 512.457,546.951 550.873,561.544C553.026,548.038 548.347,533.263 539.324,517.681C573.088,527.592 593.726,544.768 601.238,569.21C608.655,562.61 611.971,552.125 609.971,536.604C633.262,559.672 637.21,585.321 624.125,613.238C603.249,619.033 582.376,624.805 562.633,626.362C556.858,620.811 558.904,615.825 560.966,610.841C548.934,618.403 541.583,628.069 539.14,639.941C573.929,635.42 598.86,626.074 622.683,616.188C620.234,621.005 617.287,625.886 613.854,630.831C660.477,628.165 691.807,620.983 712.448,610.646C698.339,630.89 681.893,649.946 661.069,666.775C678.983,670.681 694.949,677.389 709.829,685.66C694.747,691.383 680.287,698.174 668.489,709.532C645.087,732.962 619.22,753.86 588.333,769.602C578.738,779.304 569.508,789.733 561.84,803.276C558.661,800.239 554.807,793.84 547.747,771.448C568.562,765.454 586.483,755.475 603.762,744.614C579.079,754.315 553.846,762.717 526.439,765.986ZM393.815,748.586C386.339,747.847 378.72,750.02 371.642,745.424C360.757,738.355 333.034,726.178 324.68,732.752C303.006,749.809 302.947,769.802 285.459,768.502C256.068,766.317 233.406,758.002 215.268,752.614C204.859,749.522 195.94,747.393 188.093,747.94C175.801,748.796 169.465,734.274 167.071,735.007C156.754,738.166 166.034,704.526 168.664,696.444C173.832,680.559 185.229,672.176 199.825,679.949C210.626,648.002 219.373,632.731 226.67,633.168C249.644,634.545 270.929,646.518 275.119,664.234C280.791,688.221 282.186,706.03 277.195,713.614C271.514,722.247 260.583,724.663 250.172,710.821C253.515,706.072 255.49,701.225 256.657,696.321C250.507,702.495 234.51,706.139 219.185,706.337C228.035,706.929 235.881,709.947 242.75,713.716C254.167,719.982 262.886,728.323 269.034,731.049C277.561,734.83 283.569,720.746 287.114,706.088C284.974,673.672 290.064,660.8 299.671,660.143C305.511,659.744 312.534,670.385 321.591,670.841C326.726,671.099 331.765,677.118 337.466,677.807C343.019,678.478 348.216,682.253 353.49,686.602C355.118,687.945 360.629,689.693 362.116,698.605C363.502,706.908 364.95,718.259 369.644,720.697C393.59,733.136 384.606,741.068 393.815,748.586ZM581.898,674.974C592.409,668.05 602.245,659.879 611.476,650.58C596.004,660.05 580.005,670.2 560.245,679.217C560.987,679.835 561.746,680.479 562.519,681.148C561.561,680.554 560.619,679.994 559.695,679.467L560.245,679.217C523.891,648.954 519.277,675.347 513.755,700.12C532.086,697.791 548.909,692.65 564.395,685.016L564.395,685.016C574.872,691.28 583.08,700.385 589.537,711.682C588.522,699.125 586.458,686.787 581.898,674.974ZM559.695,679.467C554.027,682.038 548.05,684.515 541.689,686.855C535.327,689.196 528.58,691.4 521.373,693.424C522.455,674.676 535.28,665.551 559.695,679.467ZM175.994,454.209C152.201,466.817 158.982,497.508 180.55,522.712C192.61,536.803 214.237,548.788 247.571,558.896C257.595,561.935 266.784,568.794 277.882,573.171C282.904,575.152 286.504,579.944 291.04,583.458C299.124,589.723 304.026,599.405 310.063,607.892C319.183,620.713 339.292,613.324 352.076,606.766C368.32,598.433 364.708,563.992 344.859,565.634C340.924,565.959 337.584,566.109 333.444,577.41C330.338,585.888 342.433,591.4 342.257,598.43C305.589,580.352 319.427,557.742 332.003,551.547C368.385,533.622 386.533,578.48 366.792,610.857C361.794,619.055 331.964,633.763 305.577,620.404C292.307,613.686 279.265,576.951 229.425,567.434C215.853,564.842 203.411,559.606 191.904,555.056C167.19,545.283 152.031,523.634 148.526,495.715C146.468,479.318 151.821,459.514 170.097,434.54C170.351,422.395 145.796,426.91 139.22,421.73C132.644,416.55 129.784,410.46 130.64,403.46C145.078,410.843 160.073,412.779 175.498,410.513C162.373,389.137 148.296,371.133 125.074,385.55C135.229,352.831 162.167,360.524 210.767,406.325L212.144,388.966C210.76,370.223 205.831,351.199 195.721,331.764C212.38,339.817 225.169,350.417 235.179,362.844C232.807,348.853 227.522,334.487 217.654,319.529C230.951,324.217 241.414,334.09 250.444,346.587C245.121,325.73 225.585,304.524 199.578,283.158C233.293,292.616 260.492,314.923 281.69,349.066C275.844,333.218 267.788,319.892 257.824,308.742C245.816,295.306 231.038,285.032 214.017,277.317C225.229,276.951 236.698,277.502 248.735,280.072C252.477,270.611 252.009,261.434 250.939,252.297C258.136,261.199 264.619,270.372 266.094,281.449C282.935,292.752 297.44,304.327 308.748,316.277C320.917,312.754 329.502,316.028 336.757,315.526C366.831,313.446 357.965,344.797 352.945,375.683C368.829,378.272 389.834,375.98 390.584,385.657C392.354,408.508 454.214,397.313 437.514,354.444C428.799,332.072 417.158,322.196 419.668,311.104C422.336,299.313 433.697,280.018 447.393,286.135C481.207,301.239 505.03,312.48 518.962,308.793C535.628,304.381 542.246,297.231 543.119,289.457C544.566,276.576 532.071,253.674 519.713,255.306C507.027,256.982 515.341,276.442 527.791,284.747C537.391,291.15 514.658,298.549 504.506,282.899C487.694,256.985 502.927,235.689 524.495,239.061C534.71,240.658 546.612,246.714 554.239,260.476C557.226,265.866 560.228,272.355 560.874,280.385C561.635,289.845 560.941,317.731 533.004,323.591C524.987,325.273 514.833,324.546 503.882,322.719C483.25,319.277 441.335,290.016 442.463,309.419C442.84,315.903 432.308,322.364 454.475,348.803C461.006,356.593 456.387,370.487 453.469,383.66C448.874,404.403 428.995,414.978 415.949,418.227C408.344,420.12 400.798,411.603 392.413,406.632C387.186,403.533 377.083,403.867 371.021,412.054C375.014,421.592 375.736,430.522 374.037,439.003C363.331,440.067 352.557,438.178 341.506,431.785C334.679,427.835 325.498,431.483 317.015,432.224C329.804,433.81 340.2,436.85 347.711,441.647C331.384,457.914 341.031,460.475 356.749,459.833C344.899,455.799 340.254,451.318 354.379,445.67C370.381,446.721 377.117,444.696 380.396,441.525C395.391,442.826 404.439,446.845 406.131,453.904C408.16,462.373 407.322,470.403 404.212,478.077C400.05,488.346 392.451,493.74 380.942,507.17C386.407,489.869 387.715,480.814 384.868,480.006C382.796,479.418 351.682,474.187 350.124,483.982C337.112,482.886 323.096,480.405 311.711,477.051C298.63,473.198 289.61,468.239 277.971,461.982C267.507,456.358 254.79,463.639 244.273,468.376C254.953,466.304 264.735,466.988 273.881,469.493C286.615,472.981 296.034,481.883 309.369,484.557C325.448,487.782 340.712,487.344 351.703,489.62C352.288,490.6 353.041,491.658 353.979,492.801C347.094,495.44 340.597,497.868 334.354,499.895C323.785,503.327 313.945,505.608 304.189,505.808C292.732,506.042 280.926,501.407 268.603,493.949C264.53,490.774 260.087,487.686 255.185,484.963C259.729,488.257 264.199,491.283 268.603,493.949C272.08,496.658 275.287,499.431 278.281,502.094C288.268,510.978 295.877,518.642 303.169,518.664C309.981,518.685 318.136,512.315 332.054,506.878C339.316,504.04 348.086,500.974 358.893,497.966C360.343,499.328 361.992,500.777 363.858,502.321C320.007,554.176 277.011,587.465 252.209,500.449C236.101,501.27 219.504,504.872 214.117,496.187C203.571,479.183 198.816,460.36 182.009,453.707C194.578,431.279 205.89,436.888 219.42,473.391C217.877,462.593 216.131,451.743 208.15,439.307C222.853,428.496 230.542,438.834 236.696,453.8C236.828,435.053 236.818,424.56 199.987,432.1C189.439,434.259 181.371,439.65 175.994,454.209ZM455.359,483.972C454.312,470.222 456.821,458.589 463.708,459.363C465.563,459.572 479.43,461.884 482.381,470.273C486.674,482.478 497.752,478.293 498.239,474.291C499.267,465.84 496.018,463.429 493.759,464.852C492.299,465.772 496.994,468.159 494.803,471.013C492.024,472.23 486.654,468.671 487.12,464.108C488.032,455.187 490.117,449.651 499.013,448.381C502.159,447.931 506.248,448.13 511.514,448.567C521.568,449.401 527.712,454.379 530.743,463.121C532.148,467.172 532.889,472.001 533.049,477.525C533.152,481.052 534.651,491.923 526.085,494.791C523.419,495.683 519.88,495.709 515.218,494.318C512.177,493.412 507.859,498.075 504.169,499.77C498.115,502.552 488.463,505.354 482.326,497.529C474.815,487.955 466.837,478.959 463.379,475.092C461.207,472.663 457.919,479.544 455.359,483.972ZM453.071,440.124C460.579,439.849 468.049,442.488 475.398,438.338C486.699,431.955 515.121,421.515 523.053,428.593C543.632,446.957 542.455,466.916 559.989,466.699C589.459,466.335 612.592,459.436 631.028,455.179C641.608,452.736 650.642,451.163 658.44,452.193C670.656,453.808 677.877,439.705 680.222,440.585C690.324,444.375 683.14,410.225 681.015,401.996C676.838,385.822 665.981,376.751 650.933,383.607C642.126,351.054 634.34,335.271 627.03,335.257C604.015,335.211 582.031,345.846 576.754,363.269C569.61,386.86 567.117,404.549 571.63,412.427C576.767,421.394 587.528,424.481 598.774,411.309C595.731,406.362 594.06,401.403 593.198,396.435C598.954,402.978 614.695,407.603 629.979,408.749C621.109,408.792 613.092,411.32 606.003,414.657C594.221,420.205 585.003,427.992 578.698,430.333C569.953,433.579 564.827,419.151 562.195,404.302C566.334,372.08 562.05,358.918 552.502,357.669C546.697,356.909 539.03,367.095 529.963,366.991C524.821,366.932 519.42,372.628 513.687,372.963C508.104,373.29 502.683,376.736 497.151,380.751C495.442,381.99 489.834,383.395 487.799,392.197C485.902,400.399 483.755,411.639 478.92,413.782C454.251,424.717 462.727,433.19 453.071,440.124ZM267.302,398.3C266.482,399.246 254.997,398.883 251.044,395.546C238.665,385.098 229.647,369.737 218.096,357.995C225.071,368.514 230.05,381.186 239.799,392.682C245.628,399.556 255.182,404.05 266.485,408.605L266.485,408.605C268.635,414.319 274.043,420.466 280.974,424.129C288.133,427.912 296.916,429.046 305.415,424.316C299.557,425.903 287.388,420.956 279.931,415.268C273.736,410.543 273.558,408.787 277.42,402.879C279.987,398.954 286.116,398.864 292.491,400.582C302.606,403.308 313.341,410.585 311.449,414.314C315.211,407.432 314.207,402.186 310.532,398.52C301.834,389.843 276.26,387.977 267.302,398.3ZM332.093,360.474C344.187,344.239 345.02,336.292 336.352,332.442C329.202,329.266 321.873,334.437 314.81,349.948C322.673,355.233 328.369,358.687 332.093,360.474Z" style="fill:white;"/>
    </g>
</svg>
