<?xml version="1.0" encoding="UTF-8" standalone="no"?>
<!DOCTYPE svg PUBLIC "-//W3C//DTD SVG 1.1//EN" "http://www.w3.org/Graphics/SVG/1.1/DTD/svg11.dtd">
<svg width="100%" height="100%" viewBox="0 0 1000 1000" version="1.1" xmlns="http://www.w3.org/2000/svg" xmlns:xlink="http://www.w3.org/1999/xlink" xml:space="preserve" xmlns:serif="http://www.serif.com/" style="fill-rule:evenodd;clip-rule:evenodd;stroke-linejoin:round;stroke-miterlimit:2;">
    <g transform="matrix(1.7427,0,0,1.7427,-378.105,-490.236)">
        <path d="M394.61,628.323C349.504,596.654 320,544.245 320,485C320,388.415 398.415,310 495,310C591.585,310 670,388.415 670,485C670,543.482 641.251,595.303 597.124,627.089L663.437,749.925L679.143,691.859L717.755,702.303L684.183,826.428L684.132,826.414L684.125,826.441L560,792.869L570.444,754.256L628.846,770.052L562.206,646.61C541.512,655.235 518.808,660 495,660C471.945,660 449.926,655.532 429.76,647.415L383.93,732.309L422.152,752.943L403.15,788.141L364.929,767.507L337.599,818.132L302.401,799.13L329.73,748.506L290,727.057L309.002,691.859L348.732,713.307L394.61,628.323ZM576.11,588.163L556.726,552.255C574.903,535.562 586.304,511.602 586.304,485C586.304,434.608 545.392,393.696 495,393.696C444.608,393.696 403.696,434.608 403.696,485C403.696,535.392 444.608,576.304 495,576.304C504.418,576.304 513.505,574.875 522.049,572.224L541.279,607.844C526.88,613.278 511.284,616.25 495,616.25C422.561,616.25 363.75,557.439 363.75,485C363.75,412.561 422.561,353.75 495,353.75C567.439,353.75 626.25,412.561 626.25,485C626.25,526.833 606.636,564.122 576.11,588.163ZM495,425.705C527.726,425.705 554.295,452.274 554.295,485C554.295,517.726 527.726,544.295 495,544.295C462.274,544.295 435.705,517.726 435.705,485C435.705,452.274 462.274,425.705 495,425.705Z" style="fill:white;"/>
    </g>
</svg>
