<?xml version="1.0" encoding="UTF-8" standalone="no"?>
<!DOCTYPE svg PUBLIC "-//W3C//DTD SVG 1.1//EN" "http://www.w3.org/Graphics/SVG/1.1/DTD/svg11.dtd">
<svg width="100%" height="100%" viewBox="0 0 1000 1000" version="1.1" xmlns="http://www.w3.org/2000/svg" xmlns:xlink="http://www.w3.org/1999/xlink" xml:space="preserve" xmlns:serif="http://www.serif.com/" style="fill-rule:evenodd;clip-rule:evenodd;stroke-linejoin:round;stroke-miterlimit:2;">
    <g transform="matrix(1.22785,0,0,1.22785,-113.924,-19.9997)">
        <path d="M494.597,517.587L267.01,290L500,57.01L732.99,290L505.403,517.587C516.607,520.058 525,530.057 525,542C525,551.968 519.154,560.581 510.705,564.595C540.602,607.249 575.66,706.147 592.463,760L537.463,790C540.607,731.418 522.429,623.498 505.271,566.442C503.57,566.808 501.808,567 500,567C496.869,567 493.872,566.423 491.109,565.37C494.243,622.385 471.287,721.65 459.847,775L409.847,760C438.658,710.027 475.957,614.622 487.267,563.515C479.926,559.157 475,551.149 475,542C475,530.057 483.393,520.058 494.597,517.587ZM500,92.813L302.813,290L500,487.187L697.187,290L500,92.813ZM516.023,120.544L483.977,120.544C474.259,140.841 449.034,160.5 431.022,179.383L463.068,179.383C469.021,174.101 482.022,166.569 483.977,160.102L483.977,455.247L516.023,455.247L516.023,120.544Z" style="fill:white;"/>
    </g>
</svg>
