<?xml version="1.0" encoding="UTF-8" standalone="no"?>
<!DOCTYPE svg PUBLIC "-//W3C//DTD SVG 1.1//EN" "http://www.w3.org/Graphics/SVG/1.1/DTD/svg11.dtd">
<svg width="100%" height="100%" viewBox="0 0 1000 1000" version="1.1" xmlns="http://www.w3.org/2000/svg" xmlns:xlink="http://www.w3.org/1999/xlink" xml:space="preserve" xmlns:serif="http://www.serif.com/" style="fill-rule:evenodd;clip-rule:evenodd;stroke-linejoin:round;stroke-miterlimit:2;">
    <g transform="matrix(0.925996,0,0,0.925996,37.0022,37.0022)">
        <path d="M863.444,346.955C851.664,377.558 840.294,408.365 829.129,439.279C814.94,384.921 799.111,330.937 761.006,282.024C746.285,263.129 728.241,244.99 705.682,227.879C695.457,263.693 650.732,253.657 566.23,190.759C566.23,190.759 524.696,250.822 509.58,263.772C479.413,289.616 442.877,276.455 455.648,235.873C460.499,220.457 481.797,196.352 491.231,168.558C413.605,175.942 340.954,191.739 266.78,220.695C265.012,221.021 328.883,230.591 341.377,245.733C363.142,272.113 350.37,321.564 304.162,304.134C277.235,291.353 253.179,280.474 236.779,289.461C229.89,293.236 221.474,295.599 217.644,301.951C196.106,337.673 177.165,370.933 149.146,377.78C145.101,414.804 149.296,452.992 161.732,492.341C12.134,537.127 -4.837,637.697 28.286,739.71C56.199,825.674 137.87,878.603 291.938,846.514C309.154,917.297 388.595,830.067 385.406,813.447C596.115,740.903 742.629,658.316 848.329,569.344L830.525,592.87C917.409,607.412 976.945,598.233 982.419,542.162C992.391,503.482 980.262,469.616 959.276,426.307C939.737,385.983 904.142,337.658 863.444,346.955ZM372.72,757.718C358.844,750.129 335.255,766.497 320.075,794.248C304.895,821.999 303.836,850.691 317.711,858.281C331.587,865.871 355.176,849.503 370.356,821.752C385.536,794.001 386.595,765.308 372.72,757.718ZM321.773,403.968C268.301,417.591 234.013,464.467 245.253,508.581C256.492,552.695 309.029,577.45 362.501,563.827C415.973,550.203 450.26,503.328 439.021,459.213C427.781,415.099 375.244,390.345 321.773,403.968ZM335.758,454.527C314.113,460.042 299.911,477.752 304.064,494.052C308.217,510.351 329.161,519.107 350.807,513.592C372.452,508.077 386.654,490.367 382.501,474.068C378.349,457.768 357.404,449.013 335.758,454.527ZM625.72,331.883C569.173,346.29 532.914,395.861 544.8,442.512C556.685,489.163 612.244,515.342 668.791,500.935C725.337,486.528 761.596,436.957 749.711,390.306C737.825,343.654 682.267,317.476 625.72,331.883ZM640.51,385.35C617.62,391.182 602.601,409.911 606.993,427.147C611.384,444.384 633.534,453.643 656.424,447.811C679.314,441.979 694.333,423.251 689.941,406.014C685.55,388.777 663.4,379.518 640.51,385.35ZM179.512,448.552C187.682,389.241 215.644,349.113 261.898,336.881C307.458,324.833 351.711,338.547 395.026,377.784C369.984,336.16 317.09,312.49 257.911,329.418C202.655,345.225 168.294,400.075 179.512,448.552ZM857.432,345.462C767.474,228.031 679.314,161.609 582.422,137.753C458.43,107.223 332.557,137.438 228.69,223.981C201.653,230.987 182.469,244.012 169.666,261.927C150.716,288.444 121.666,333.732 149.639,370.077C168.452,361.893 189.294,337.702 217.725,291.889C222.927,283.507 237.1,278.485 247.072,278.095C260.813,277.559 279.498,285.425 299.693,294.818C363.183,308.604 353.346,256.862 326.788,246.561C310.536,240.257 247.736,220.372 252.594,218.685C337.964,180.714 422.73,162.339 507.026,159.219C495.874,185.902 474.395,217.293 467.801,231.806C448.156,275.045 483.504,277.013 507.948,254.858C521.401,242.666 564.599,181.845 564.599,181.845C634.992,236.55 683.688,259.839 704.051,218.965C729.934,231.616 751.532,251.715 769.863,277.49C796.349,314.731 816.017,363.823 831.942,419.418C839.025,393.991 847.219,369.173 857.432,345.462ZM504.327,371.877C512.497,312.566 540.46,272.438 586.713,260.206C632.273,248.158 676.527,261.872 719.841,301.109C694.799,259.485 641.906,235.815 582.727,252.743C527.471,268.55 493.11,323.4 504.327,371.877Z" style="fill:white;"/>
    </g>
</svg>
