<?xml version="1.0" encoding="UTF-8" standalone="no"?>
<!DOCTYPE svg PUBLIC "-//W3C//DTD SVG 1.1//EN" "http://www.w3.org/Graphics/SVG/1.1/DTD/svg11.dtd">
<svg width="100%" height="100%" viewBox="0 0 1000 1000" version="1.1" xmlns="http://www.w3.org/2000/svg" xmlns:xlink="http://www.w3.org/1999/xlink" xml:space="preserve" xmlns:serif="http://www.serif.com/" style="fill-rule:evenodd;clip-rule:evenodd;stroke-linejoin:round;stroke-miterlimit:2;">
    <g transform="matrix(1.89076,0,0,1.89076,-354.622,-562.857)">
        <path d="M583.722,756.122C549.247,777.594 508.561,790 465,790C410.286,790 360.107,770.428 321.086,737.907L290,737.907L290,730L312.093,730C309.291,727.401 306.555,724.733 303.891,722L240,722L240,718L243,718L243,709L240,709L240,695L261.535,695L261.535,693L257.071,693L257.071,683L260,683L260,677.25L269.996,677.25C250.919,644.206 240,605.868 240,565C240,560.679 240.122,556.385 240.363,552.132C243.259,600.45 263.343,644.167 294.58,677.25L337,677.25L337,672.5L352,672.5L352,677.25L400,677.25L400,693L390,693L390,696L380.5,696L380.5,701.25L379.25,701.25L379.25,696L370.75,696L370.75,700L364.25,700L364.25,696L346,696L346,705L343,705L343,714.911C345.304,716.193 347.637,717.43 350,718.624L350,702.5L356.75,702.5L356.75,701.25L363.25,701.25L363.25,705L358,705L358,712.5L363.25,712.5L363.25,714L358,714L358,722.445C359.737,723.228 361.487,723.987 363.25,724.721L363.25,714L372,714L372,712.5L363.25,712.5L363.25,705L372,705L372,712.5L379.25,712.5L379.25,714L380.5,714L380.5,725.5L390,725.5L390,721L394,721L394,725.5L396,725.5L396,727.5L401,727.5L401,724L409,724L409,727.5L414,727.5L414,724L422,724L422,727L429,727L429,739.702C430.331,739.774 431.664,739.833 433,739.879L433,732L438.5,732L438.5,724L441,724L441,729L444,729L444,728L447,728L447,721L454,721L454,728L459,728L459,717L465,717L465,714L470,714L470,719L466,719L466,728L471,728L471,732L480,732L480,713L484,713L484,735.135C485.508,734.796 487.009,734.44 488.5,734.068L488.5,731L497,731L497,726L513.5,726L513.5,726.041L513.5,713L518,713L518,701L531,701L531,713L518,713L518,724.195C522.416,722.321 526.751,720.292 531,718.115L531,713L538,713L538,701L531,701L531,691L538,691L538,701L548,701L548,708.322C552.634,705.341 557.137,702.174 561.5,698.829L561.5,688L554,688L554,695L544,695L544,681L554,681L554,684L561.5,684L561.5,676L557,676L557,672L564.5,672L564.5,675L569,675L569,692.791C571.382,690.777 573.716,688.709 576,686.589L576,679L579,679L579,683.746C582.891,679.982 586.628,676.064 590.203,672L576,672L576,649.25L599.25,649.25L599.25,646L608.75,646L608.75,636.5L615.186,636.5C616.238,634.596 617.26,632.673 618.25,630.733L618.25,627L608.75,627L608.75,636.5L599.25,636.5L599.25,627L589.75,627L589.75,617.5L599.25,617.5L599.25,627L608.75,627L608.75,617.5L618.25,617.5L618.25,627L620.106,627C621.619,623.878 623.053,620.71 624.405,617.5L618.25,617.5L618.25,608L608.75,608L608.75,617.5L599.25,617.5L599.25,608L608.75,608L608.75,598.5L599.25,598.5L599.25,589L608.75,589L608.75,598.5L618.25,598.5L618.25,608L627.75,608L627.75,598.5L618.25,598.5L618.25,589L608.75,589L608.75,579.5L599.25,579.5L599.25,570L608.75,570L608.75,579.5L618.25,579.5L618.25,570L627.75,570L627.75,579.5L618.25,579.5L618.25,589L627.75,589L627.75,579.5L636.092,579.5C636.722,576.362 637.279,573.193 637.761,570L627.807,570L627.807,562L623.281,562L623.281,553L627.807,553L627.807,550L639.754,550C639.917,546.692 640,543.356 640,540C640,528.408 639.012,517.046 637.114,505.989L623.951,505.989L623.951,494.011L634.677,494.011C633.039,487.062 631.039,480.254 628.697,473.605L636,473.605L636,478L648,478L648,472L641.927,472L641.927,461.627L624.037,461.627L624.019,461.586L602.491,461.586L602.491,455L590.81,455L590.81,443.414L615.141,443.414C582.891,385.107 522.372,344.574 452.132,340.363C456.385,340.122 460.679,340 465,340C547.17,340 619.112,384.143 658.39,450L665,450L665,455L670,455L670,465L666.579,465C681.568,495.128 690,529.087 690,565C690,595.064 684.091,623.759 673.365,650L680,650L680,660L668.99,660C659.011,681.369 645.772,700.916 629.914,718L582.5,718L582.5,724.5L587,724.5L587,731L582.5,731L582.5,734L574,734L574,739L582.5,739L582.5,741L587,741L587,748.61L591,748.61L591,741L605.121,741C601.825,743.628 598.453,746.166 595.01,748.61L604.786,748.61L604.786,756.122L583.722,756.122ZM449.5,739.778C446.681,739.91 443.847,739.983 441,739.997L441,731L444,731L444,732L447,732L447,735L449.5,735L449.5,739.778ZM454,739.517L454,732L468,732L468,738.052C463.382,738.7 458.714,739.19 454,739.517ZM422,739.199C420.159,739.035 418.326,738.845 416.5,738.631L416.5,728L422,728L422,739.199ZM382.178,731.5L389,731.5L389,733.428C386.709,732.824 384.435,732.182 382.178,731.5ZM497.5,731.5L497.5,731.597L497.822,731.5L497.5,731.5ZM623.634,724.5C621.409,726.714 619.137,728.882 616.822,731L591,731L591,724.5L623.634,724.5ZM380.5,730.985L379.25,730.591L379.25,725.5L380.5,725.5L380.5,730.985ZM365.149,725.5L372,725.5L372,728.124C369.697,727.291 367.413,726.415 365.149,725.5ZM497,713L489,713L489,726L497,726L497,713L513.5,713L513.5,707.5L497,707.5L497,713ZM372,714L372,725.5L379.25,725.5L379.25,714L372,714ZM660,710L645,710L645,725L660,725L660,710ZM237,722L227,722L227,706L237,706L237,722ZM214,696L221.5,696L221.5,700L218,700L218,708L222,708L222,722L214,722L214,696ZM582.5,713L577,713L577,718L582.5,718L582.5,713ZM489,709L484,709L484,713L489,713L489,709ZM380.5,712.5L379.25,712.5L379.25,705L380.5,705L380.5,712.5ZM379.25,705L372,705L372,701.25L379.25,701.25L379.25,705ZM518,698L515,698L515,701L518,701L518,698ZM231,701L227.5,701L227.5,696L231,696L231,701ZM410.75,692L404.25,692L404.25,688.5L410.75,688.5L410.75,692ZM593.75,656L602.896,656C599.992,660.07 596.941,664.023 593.75,667.855L593.75,656ZM569.5,662L562,662L562,666L569.5,666L569.5,662ZM599.25,636.5L589.75,636.5L589.75,646L599.25,646L599.25,636.5ZM633.942,589L627.75,589L627.75,598.5L631.293,598.5C632.252,595.364 633.135,592.196 633.942,589ZM671,441L659,441L659,446L671,446L671,441Z" style="fill:white;"/>
    </g>
</svg>
