<?xml version="1.0" encoding="UTF-8" standalone="no"?>
<!DOCTYPE svg PUBLIC "-//W3C//DTD SVG 1.1//EN" "http://www.w3.org/Graphics/SVG/1.1/DTD/svg11.dtd">
<svg width="100%" height="100%" viewBox="0 0 1000 1000" version="1.1" xmlns="http://www.w3.org/2000/svg" xmlns:xlink="http://www.w3.org/1999/xlink" xml:space="preserve" xmlns:serif="http://www.serif.com/" style="fill-rule:evenodd;clip-rule:evenodd;stroke-linejoin:round;stroke-miterlimit:2;">
    <g transform="matrix(1.34488,0,0,1.34488,-226.578,0.769976)">
        <path d="M540.206,210.66C610.789,84.203 667.652,-8.876 750,60C753.231,97.912 679.097,171.863 660.312,169.997C625.373,163.962 563.039,202.19 540.211,216.679L540.216,217.205L540.221,217.6C561.14,207.415 635.121,169.793 700,170C743.953,170.14 783.728,203.109 800,230C874.518,353.149 821.97,665.67 704.111,699C680.584,705.653 639.916,701.627 600,694.017C578.91,689.996 558.553,679.862 540,680C521.884,680.134 497.485,688.971 470.927,696.267C439.735,704.836 405.567,711.279 375.109,699C260.644,652.852 205.482,353.149 280,230C296.711,202.384 336.606,169.638 380,170C441.502,170.513 510.032,206.036 529.553,216.888C522.187,165.163 518.12,113.192 530,60C547.978,42.852 568.613,43.86 590,50C554.01,100.261 540.613,154.358 540.206,210.66Z" style="fill:white;"/>
    </g>
</svg>
