<?xml version="1.0" encoding="UTF-8" standalone="no"?>
<!DOCTYPE svg PUBLIC "-//W3C//DTD SVG 1.1//EN" "http://www.w3.org/Graphics/SVG/1.1/DTD/svg11.dtd">
<svg width="100%" height="100%" viewBox="0 0 1000 1000" version="1.1" xmlns="http://www.w3.org/2000/svg" xmlns:xlink="http://www.w3.org/1999/xlink" xml:space="preserve" xmlns:serif="http://www.serif.com/" style="fill-rule:evenodd;clip-rule:evenodd;stroke-linejoin:round;stroke-miterlimit:2;">
    <g transform="matrix(5.57432,0,0,5.57432,-1790.17,-1821.04)">
        <path d="M410.844,335.654C455.398,335.654 491.571,371.827 491.571,416.381C491.571,460.936 455.398,497.108 410.844,497.108C366.289,497.108 330.116,460.936 330.116,416.381C330.116,371.827 366.289,335.654 410.844,335.654ZM410.844,458.202C423.992,457.836 432.478,454.305 437.081,448.071C440.698,443.174 441.864,436.662 441.132,428.915C440.373,420.882 437.569,411.558 433.194,401.301C432.878,400.561 433.223,399.703 433.963,399.388C434.703,399.072 435.561,399.416 435.876,400.157C441.303,412.878 444.342,424.223 444.254,433.526C444.192,439.961 442.644,445.447 439.427,449.804C434.764,456.118 426.52,460.12 413.853,460.977C413.647,461.088 413.413,461.151 413.163,461.151C412.376,461.151 411.602,461.14 410.844,461.119C410.085,461.14 409.312,461.151 408.524,461.151C408.275,461.151 408.04,461.088 407.835,460.977C395.168,460.12 386.923,456.118 382.26,449.804C379.043,445.447 377.495,439.961 377.434,433.526C377.345,424.223 380.384,412.878 385.811,400.157C386.127,399.416 386.984,399.072 387.724,399.388C388.465,399.703 388.809,400.561 388.494,401.301C384.118,411.558 381.314,420.882 380.555,428.915C379.823,436.662 380.99,443.174 384.606,448.071C389.21,454.305 397.695,457.836 410.844,458.202ZM410.849,421.325C421.857,421.326 424.735,422.636 427.054,424.646C438.965,434.971 431.744,453.227 410.849,453.235L410.838,453.235C389.943,453.227 382.723,434.971 394.633,424.646C396.952,422.636 399.83,421.326 410.838,421.325L410.849,421.325ZM434.137,386.513C436.055,382.966 440.633,380.427 444.75,380.044C448.868,379.662 452.526,381.435 452.606,386.513C452.744,395.179 438.482,394.329 434.137,386.513ZM387.55,386.513C385.632,382.966 381.055,380.427 376.937,380.044C372.82,379.662 369.162,381.435 369.081,386.513C368.944,395.179 383.205,394.329 387.55,386.513Z" style="fill:white;"/>
    </g>
</svg>
