<?xml version="1.0" encoding="UTF-8" standalone="no"?>
<!DOCTYPE svg PUBLIC "-//W3C//DTD SVG 1.1//EN" "http://www.w3.org/Graphics/SVG/1.1/DTD/svg11.dtd">
<svg width="100%" height="100%" viewBox="0 0 1000 1000" version="1.1" xmlns="http://www.w3.org/2000/svg" xmlns:xlink="http://www.w3.org/1999/xlink" xml:space="preserve" xmlns:serif="http://www.serif.com/" style="fill-rule:evenodd;clip-rule:evenodd;stroke-linejoin:round;stroke-miterlimit:2;">
    <g transform="matrix(1.52769,0,0,1.52769,-110.407,-553.304)">
        <path d="M464,673C459.207,672.866 455.705,674.03 454,677L464,746C311.649,780.515 175.1,801.653 108,764C180.156,725.247 246.22,695.154 287,701C344.123,680.021 402.479,666.695 464,673ZM475,640C331.771,660.642 206.603,700.371 105,765C177.874,721.668 251.831,687.863 287,695C344.984,678.193 402.354,659.658 470,670L482,670C477.618,662.817 476.149,654.19 475,640ZM500,624L480,635C480.137,648.661 483.224,662.02 490,675L515,675C510.937,657.404 505.846,640.461 500,624ZM690,645C695.912,632.255 696.468,617.504 685,595C631.734,598.912 572.739,607.72 505,624C511.184,639.47 516.362,655.07 519,671C582.769,667.319 637.509,656.988 690,645Z" style="fill:white;"/>
    </g>
</svg>
