<?xml version="1.0" encoding="UTF-8" standalone="no"?>
<!DOCTYPE svg PUBLIC "-//W3C//DTD SVG 1.1//EN" "http://www.w3.org/Graphics/SVG/1.1/DTD/svg11.dtd">
<svg width="100%" height="100%" viewBox="0 0 1000 1000" version="1.1" xmlns="http://www.w3.org/2000/svg" xmlns:xlink="http://www.w3.org/1999/xlink" xml:space="preserve" xmlns:serif="http://www.serif.com/" style="fill-rule:evenodd;clip-rule:evenodd;stroke-linejoin:round;stroke-miterlimit:2;">
    <g transform="matrix(2.62413,0,0,2.62413,-1039.49,-1027.81)">
        <path d="M427.924,593.674L430.986,617.451L750.146,717.707L747.834,686.082C730.821,681.279 691.074,671.349 669.744,663.532C634.714,650.693 551.703,626.948 508.021,616.068C487.835,611.041 467.108,601.042 451.622,599.516C445.048,598.868 435.884,596.276 427.924,593.674ZM754.044,672.63C753.225,681.127 752.382,689.695 751.626,698.384L750.691,685.606C750.66,685.18 750.537,684.785 750.339,684.442C751.667,680.508 752.899,676.569 754.044,672.63ZM610.873,601.686C608.76,604.935 606.512,608.201 604.156,611.479C604.006,611.688 603.792,611.843 603.552,611.915C594.044,614.81 584.403,615.889 574.616,614.975C567.09,615.135 559.576,614.88 552.093,613.646C551.952,613.623 551.821,613.569 551.707,613.489C548.629,611.318 546.192,608.952 545.175,606.226C545.133,606.112 545.112,605.989 545.113,605.864C545.153,600.651 543.888,595.769 542.016,591.042C542.015,591.04 542.014,591.039 542.014,591.037C540.715,587.708 539.49,584.37 538.321,581.027C526.664,577.878 515.924,575.071 506.873,572.817C486.688,567.789 465.96,557.791 450.475,556.265C442.579,555.486 430.948,551.905 422.153,548.869L426.723,584.348C433.781,586.52 441.587,588.654 447.245,589.455C468.166,592.42 514.264,608.836 546.728,618.127C575.005,626.22 605.928,629.833 632.983,642.986C656.244,654.295 687.763,658.774 708.203,664.665L747.087,675.872L744.629,642.255C726.65,637.269 689.108,627.798 668.597,620.28C654.931,615.272 633.964,608.604 610.873,601.686ZM758.152,594.807C758.172,602.292 758.102,609.812 757.932,617.353C757.745,625.62 757.305,633.842 756.716,642.07C754.62,652.345 752.358,662.618 749.761,672.887L747.486,641.779C747.427,640.96 747.025,640.254 746.407,639.815C751.541,624.864 755.267,609.851 758.152,594.807ZM629.786,569.013C628.908,570.549 627.829,572.108 626.516,573.696C626.487,573.73 626.457,573.762 626.426,573.793C626.426,573.793 624.624,575.535 624.625,575.534C622.434,581.343 619.535,587.237 616.095,593.195C621.454,595.097 626.714,597.245 631.836,599.735C655.097,611.044 686.615,615.523 707.055,621.414L743.881,632.028L741.712,602.365C741.712,602.365 686.478,590.304 663.176,580.643C652.517,576.224 641.3,572.366 629.786,569.013ZM746.375,626.575L744.57,601.889C744.515,601.145 745.864,598.925 746.185,598.357C746.352,598.063 746.471,597.747 746.537,597.421C751.963,570.878 753.789,529.194 753.538,496.353C755.578,520.851 757.187,546.407 757.839,572.515C754.435,590.536 750.919,608.557 746.375,626.575ZM610.887,597.851L608.884,601.091C606.947,604.052 604.898,607.027 602.758,610.014C593.612,612.749 584.341,613.758 574.932,612.872C574.893,612.869 574.855,612.868 574.816,612.868C567.465,613.026 560.125,612.788 552.815,611.601C550.22,609.752 548.105,607.793 547.183,605.493C547.193,600.091 545.891,595.019 543.947,590.11C543.476,588.903 542.429,585.384 541.246,581.889C540.979,581.102 540.709,580.314 540.443,579.549C544.476,578.637 554.217,567.032 550.737,554.212C548.849,547.256 555.648,534.169 566.113,532.733C574.712,531.552 585.359,524.174 593.703,514.206C595.798,513.975 597.907,513.542 600.026,512.985C607.32,511.407 614.544,509.511 621.321,505.55C624.804,504.456 627.732,502.534 630.407,500.235C630.975,503.741 632.464,507.032 634.419,510.213C635.693,509.416 636.871,508.589 637.954,507.731C640.75,507.937 643.14,509.546 645.24,512.15C654.917,507.079 660.379,510.27 658.375,528.099C655.823,530.235 653.847,532.13 652.215,533.88C651.92,534.196 651.821,534.643 651.963,535.02L653.391,538.811C648.033,542.044 642.194,543.992 635.483,543.606C635.02,543.58 634.568,543.876 634.383,544.329L632.571,548.746C632.377,549.22 632.525,549.737 632.925,549.986C633.168,550.138 633.359,550.285 633.493,550.438C633.559,550.513 633.629,550.565 633.622,550.641C633.607,550.802 633.441,550.922 633.258,551.085C632.864,551.437 632.298,551.783 631.599,552.139C631.177,552.354 630.919,552.814 630.964,553.27C631.212,555.801 630.618,561.303 630.618,561.303L630.606,561.362L627.424,568.334C627.424,568.334 626.124,571.043 625.028,572.373C625.025,572.377 623.079,574.259 623.079,574.259C622.951,574.382 622.853,574.532 622.792,574.696C622.112,576.513 620.986,578.994 619.768,581.526C617.798,582.133 614.715,583.335 613.622,585.161C612.188,587.554 611.218,594.983 610.887,597.851ZM680.337,448.191C680.629,449.56 680.915,450.94 681.198,452.332C681.203,452.358 681.207,452.385 681.21,452.412C681.567,455.337 681.472,458.024 680.524,460.183C679.716,463.324 678.171,465.793 675.681,467.38C675.681,467.38 673.74,471.422 673.74,471.422C675.287,473.7 675.466,475.585 674.887,477.142C674.346,478.594 673.08,479.834 671.351,480.896C671.856,484.627 671.991,488.353 670.806,492.054C671.089,493.437 671.262,494.842 671.008,496.343C677.346,498.501 678.53,501.505 677.408,504.531C677.32,504.768 677.155,504.974 676.943,505.112C673.715,507.209 672.006,509.075 671.635,510.899C671.832,511.958 671.694,513.328 671.192,514.982C670.469,517.362 668.985,520.404 666.84,524.002C666.756,524.142 666.644,524.265 666.511,524.36C660.686,528.533 656.913,531.844 654.14,534.74L655.649,538.745C655.828,539.22 655.621,539.789 655.165,540.078C649.419,543.712 643.163,545.978 635.971,545.745C635.971,545.745 634.779,548.653 634.778,548.653C635.51,549.307 635.742,550.01 635.682,550.65C635.632,551.189 635.377,551.749 634.868,552.295C634.462,552.73 633.862,553.18 633.089,553.625C633.301,556.335 633.211,559.081 632.583,561.891C640.656,564.094 648.46,566.801 655.379,570.385C661.403,573.506 670.294,576.954 680.147,580.311C707.781,589.723 742.982,598.408 743.734,597.079C753.781,547.922 751.388,446.502 746.381,447.098C745.044,445.782 721.231,448.063 686.919,452.322L686.874,452.297C685.57,449.87 683.291,448.621 680.337,448.191ZM537.707,572.567C534.85,563.848 532.262,555.097 529.591,546.356C529.697,546.093 529.798,545.831 529.895,545.569C530.371,545.487 531.055,539.526 531.055,539.526C530.968,537.372 530.21,535.265 528.399,533.232C525.121,524.945 525.139,516.262 525.718,507.514C526.672,500.243 528.897,495.087 532.063,491.425C535.74,487.172 540.666,484.962 546.195,483.728C551.761,482.485 557.931,482.233 564.113,481.994C564.227,488.263 565.041,494.502 571.714,500.501C570.003,505.585 573.842,509.717 582.56,513.013C583.184,513.247 583.811,513.448 584.44,513.619C577.532,520.784 569.684,525.75 562.785,527.291C548.144,530.561 544.139,545.369 544.03,554.772C543.96,560.901 537.707,572.567 537.707,572.567ZM535.226,571.821C532.528,563.492 530.054,555.135 527.501,546.788C527.431,546.557 527.446,546.3 527.543,546.063C527.688,545.713 527.826,545.364 527.955,545.015C509.916,539.839 492.858,534.349 481.795,530.476C470.584,526.551 460.504,522.272 446.072,520.596C436.143,519.442 417.494,512.691 417.494,512.691L420.965,539.642C429.019,542.243 439.169,545.222 446.098,546.204C464.879,548.866 503.948,562.366 535.226,571.821ZM563.636,469.542C484.951,481.534 411.478,494.665 415.329,499.182L415.569,508.234C415.469,509.55 450.465,514.589 467.005,519.796C487.161,526.142 508.633,533.142 526.47,538.259C527.273,538.489 528.075,538.715 528.876,538.935C528.648,537.459 527.991,536.013 526.712,534.612C526.637,534.531 526.577,534.435 526.535,534.33C523.073,525.692 523.05,516.647 523.656,507.524C523.657,507.501 523.659,507.478 523.662,507.455C524.688,499.609 527.149,494.066 530.564,490.117C534.569,485.484 539.907,483.017 545.929,481.672C551.14,480.509 556.869,480.186 562.651,479.952C561.007,477.049 561.329,473.99 562.92,470.827C563.135,470.401 563.374,469.972 563.636,469.542ZM646.935,493.642C647.171,492.242 647.266,490.796 647.219,489.306C648.225,487.832 648.73,486.231 649.007,484.572C653.416,479.368 656.681,473.88 656.368,467.502C659.106,465.744 660.972,463.459 662.167,460.768C665.985,459.927 669.157,458.096 671.78,455.423C672.128,459.438 673.268,461.828 676.889,459.133L678.976,458.554C678.878,458.899 678.758,459.231 678.614,459.55C678.585,459.613 678.562,459.678 678.546,459.745C677.878,462.4 676.617,464.499 674.454,465.775C674.253,465.893 674.089,466.071 673.988,466.283L671.618,471.218C671.444,471.581 671.474,471.995 671.697,472.293C673.004,474.04 673.393,475.391 672.959,476.556C672.516,477.746 671.308,478.64 669.794,479.472C669.373,479.704 669.13,480.179 669.197,480.636C669.749,484.378 670.018,488.113 668.76,491.825C668.696,492.013 668.683,492.212 668.723,492.398C669.031,493.827 669.27,495.275 668.808,496.875C668.654,497.411 668.919,497.942 669.42,498.096C671.749,498.813 673.375,499.598 674.416,500.468C675.563,501.427 675.889,502.471 675.59,503.599C671.71,506.196 669.908,508.681 669.559,510.941C669.538,511.08 669.543,511.218 669.575,511.349C669.77,512.152 669.617,513.22 669.219,514.53C668.551,516.728 667.18,519.518 665.223,522.819C664.365,523.436 663.551,524.035 662.777,524.616C662.263,521.505 662.359,517.718 664.63,511.519C662.424,509.189 661.473,506.424 661.381,503.362C651.601,507.333 645.989,505.25 646.935,493.642L646.935,493.642Z" style="fill:white;"/>
    </g>
</svg>
