<?xml version="1.0" encoding="UTF-8" standalone="no"?>
<!DOCTYPE svg PUBLIC "-//W3C//DTD SVG 1.1//EN" "http://www.w3.org/Graphics/SVG/1.1/DTD/svg11.dtd">
<svg width="100%" height="100%" viewBox="0 0 1000 1000" version="1.1" xmlns="http://www.w3.org/2000/svg" xmlns:xlink="http://www.w3.org/1999/xlink" xml:space="preserve" xmlns:serif="http://www.serif.com/" style="fill-rule:evenodd;clip-rule:evenodd;stroke-linejoin:round;stroke-miterlimit:2;">
    <g transform="matrix(3.38346,0,0,3.38346,-1036.43,-592.857)">
        <path d="M403,190L388,190L389,456L402,456L403,190ZM521.2,190L506.2,190L507.2,456L520.2,456L521.2,190ZM395.5,428C397.156,428 398.5,429.344 398.5,431C398.5,432.656 397.156,434 395.5,434C393.844,434 392.5,432.656 392.5,431C392.5,429.344 393.844,428 395.5,428ZM513.7,428C515.356,428 516.7,429.344 516.7,431C516.7,432.656 515.356,434 513.7,434C512.044,434 510.7,432.656 510.7,431C510.7,429.344 512.044,428 513.7,428ZM380,190L350,190L365,400L380,400L380,190ZM410,190L440,190L425,400L410,400L410,190ZM498.2,190L468.2,190L483.2,400L498.2,400L498.2,190ZM528.2,190L558.2,190L543.2,400L528.2,400L528.2,190Z" style="fill:white;"/>
    </g>
</svg>
