<?xml version="1.0" encoding="UTF-8" standalone="no"?>
<!DOCTYPE svg PUBLIC "-//W3C//DTD SVG 1.1//EN" "http://www.w3.org/Graphics/SVG/1.1/DTD/svg11.dtd">
<svg width="100%" height="100%" viewBox="0 0 1000 1000" version="1.1" xmlns="http://www.w3.org/2000/svg" xmlns:xlink="http://www.w3.org/1999/xlink" xml:space="preserve" xmlns:serif="http://www.serif.com/" style="fill-rule:evenodd;clip-rule:evenodd;stroke-linejoin:round;stroke-miterlimit:2;">
    <g transform="matrix(1.34794,0,0,1.34794,-59.9113,-334.162)">
        <path d="M449.121,614.998C374.584,614.618 336.088,565.851 325.141,505.918C363.074,511.358 403.962,514.144 450,514.771L452.154,514.74C497.313,514.056 537.518,511.273 574.859,505.918C563.869,566.086 525.115,615 450,615L449.121,614.998ZM396,506C444.288,471.476 443.818,415.074 426,410.805C418.79,409.078 408.785,407.052 400,435C397.128,417.111 391.142,408.784 383,409C368.19,409.393 350.474,445.276 396,506ZM504,506C455.712,471.476 456.182,415.074 474,410.805C481.21,409.078 491.215,407.052 500,435C502.872,417.111 508.858,408.784 517,409C531.81,409.393 549.526,445.276 504,506ZM328.679,410.811C322.256,437.482 320.178,465.598 323.129,492.164C355.928,461.117 354.148,419.076 349,413.019C346.297,409.839 340.32,411.27 332,416C331.068,414.015 329.942,412.313 328.679,410.811ZM571.321,410.811C577.744,437.482 579.822,465.598 576.871,492.164C544.072,461.117 545.852,419.076 551,413.019C553.703,409.839 559.68,411.27 568,416C568.932,414.015 570.058,412.313 571.321,410.811ZM448.059,403.576C407.357,402.533 369.774,399.691 333.083,394.901C352.072,334.373 393.951,285 450,285L450.656,285.002C506.375,285.385 548.003,334.609 566.917,394.901C529.645,399.767 491.452,402.623 450,403.625L448.059,403.576Z" style="fill:white;"/>
    </g>
    <g transform="matrix(1.33506,0.185909,-0.185909,1.33506,-104.261,-66.4725)">
        <path d="M715.907,659.998C641.37,659.618 602.874,610.851 591.927,550.918C629.86,556.358 670.748,559.144 716.786,559.771C762.824,559.144 803.712,556.358 841.645,550.918C830.655,611.086 791.901,660 716.786,660L715.907,659.998ZM767,552C765.29,550.778 771.965,540.994 770,541C693.431,541.234 755.325,463.45 765,453.996C812.686,508.467 822.267,536.234 775,540.5L780.881,550C781.284,551.41 768.742,551.99 767,552ZM666.572,552C668.282,550.778 661.607,540.994 663.572,541C740.141,541.234 678.247,463.45 668.572,453.996C620.886,508.467 611.305,536.234 658.572,540.5L652.691,550C652.288,551.41 664.83,551.99 666.572,552ZM843.032,542.203C842.758,544.216 842.453,546.218 842.12,548.206C840.282,548.415 838.798,548.324 839,548C839.968,546.447 841.466,544.373 843.032,542.203ZM590.539,542.203C590.814,544.216 591.119,546.218 591.452,548.206C593.29,548.415 594.774,548.324 594.572,548C593.604,546.447 592.106,544.373 590.539,542.203ZM836.902,451.02C840.36,464.206 842.75,477.796 843.989,491.417C845.228,505.038 845.315,518.69 844.166,532.001C813.435,537.957 805.831,484.019 836.902,451.02ZM596.67,451.02C593.212,464.206 590.822,477.796 589.583,491.417C588.344,505.038 588.257,518.69 589.406,532.001C620.137,537.957 627.741,484.019 596.67,451.02ZM714.845,448.576C674.143,447.533 636.56,444.691 599.869,439.901C618.857,379.373 660.737,330 716.786,330L717.442,330.002C773.161,330.385 814.789,379.609 833.703,439.901C796.431,444.767 758.238,447.623 716.786,448.625L714.845,448.576Z" style="fill:white;"/>
    </g>
    <g transform="matrix(1.33188,-0.207413,0.207413,1.33188,-890.431,-200.175)">
        <path d="M730.888,814.77C776.879,814.139 817.732,811.354 855.634,805.918C844.656,866.026 805.967,914.902 731,914.999L730.775,914.999C655.808,914.902 617.12,866.026 606.141,805.918C644.043,811.354 684.896,814.139 730.888,814.77ZM780.989,807C779.28,805.778 784.728,788.086 782.989,789C731.64,816.007 726.473,734.394 780,760C746.681,736.792 758.933,720.954 773,713C777.025,710.724 784.701,709.319 790,712C805.51,719.846 816.03,736.813 790,760C830.541,729.176 846.299,799.934 789.989,788.5L794.87,805C795.273,806.41 782.732,806.99 780.989,807ZM680.786,807C682.496,805.778 677.047,788.086 678.786,789C730.135,816.007 735.302,734.394 681.775,760C715.094,736.792 702.842,720.954 688.775,713C684.75,710.724 677.074,709.319 671.775,712C656.265,719.846 645.745,736.813 671.775,760C631.234,729.176 615.477,799.934 671.786,788.5L666.905,805C666.502,806.41 679.044,806.99 680.786,807ZM857.865,745.205C858.495,751.762 858.858,758.329 858.945,764.865C859.032,771.402 858.843,777.908 858.368,784.343C835.891,782.514 833.797,748.595 857.865,745.205ZM603.91,745.205C603.281,751.762 602.918,758.329 602.831,764.865C602.743,771.402 602.932,777.908 603.407,784.343C625.884,782.514 627.979,748.595 603.91,745.205ZM731,585.001C786.933,585.128 828.729,634.451 847.692,694.901C810.487,699.758 772.365,702.613 731,703.619L731,703.625L730.775,703.625L730.775,703.619C689.411,702.613 651.288,699.758 614.083,694.901C633.047,634.451 674.842,585.128 730.775,585.001L731,585.001Z" style="fill:white;"/>
    </g>
</svg>
