<?xml version="1.0" encoding="UTF-8" standalone="no"?>
<!DOCTYPE svg PUBLIC "-//W3C//DTD SVG 1.1//EN" "http://www.w3.org/Graphics/SVG/1.1/DTD/svg11.dtd">
<svg width="100%" height="100%" viewBox="0 0 1000 1000" version="1.1" xmlns="http://www.w3.org/2000/svg" xmlns:xlink="http://www.w3.org/1999/xlink" xml:space="preserve" xmlns:serif="http://www.serif.com/" style="fill-rule:evenodd;clip-rule:evenodd;stroke-linejoin:round;stroke-miterlimit:2;">
    <g transform="matrix(3.89661,0,0,3.89661,-1545.72,-2091.25)">
        <path d="M477.165,549.515L572.835,549.515L640.485,617.165L640.485,712.835L572.835,780.485L477.165,780.485L409.515,712.835L409.515,617.165L477.165,549.515ZM488.86,577.751L563.085,576.945L615,627.721L614.194,700.334L561.14,752.249L486.915,753.055L435,702.279L435.806,629.666L488.86,577.751ZM557.166,640.654C567.065,652.646 569.851,669.246 562.906,683.486C553.253,703.28 528.431,711.068 507.51,700.865C486.588,690.663 477.44,666.309 487.094,646.514C494.038,632.274 508.833,624.248 524.377,624.664C522.738,626.14 521.358,627.937 520.342,630.021C515.874,639.183 518.452,651.878 528.135,656.6C537.818,661.322 550.962,656.294 555.43,647.133C556.446,645.048 557.013,642.855 557.166,640.654Z" style="fill:white;"/>
    </g>
</svg>
