<?xml version="1.0" encoding="UTF-8" standalone="no"?>
<!DOCTYPE svg PUBLIC "-//W3C//DTD SVG 1.1//EN" "http://www.w3.org/Graphics/SVG/1.1/DTD/svg11.dtd">
<svg width="100%" height="100%" viewBox="0 0 1000 1000" version="1.1" xmlns="http://www.w3.org/2000/svg" xmlns:xlink="http://www.w3.org/1999/xlink" xml:space="preserve" xmlns:serif="http://www.serif.com/" style="fill-rule:evenodd;clip-rule:evenodd;stroke-linejoin:round;stroke-miterlimit:2;">
    <g transform="matrix(8.36228,0,0,8.36228,-3533.1,-3398.39)">
        <path d="M449.482,508.829C436.715,498.987 428.483,483.541 428.483,466.187C428.483,436.487 452.596,412.374 482.296,412.374C511.996,412.374 536.109,436.487 536.109,466.187C536.109,495.887 511.996,520 482.296,520C475.753,520 469.481,518.83 463.678,516.687L474.623,496.689C477.078,497.306 479.649,497.634 482.296,497.634C499.652,497.634 513.743,483.543 513.743,466.187C513.743,448.831 499.652,434.74 482.296,434.74C464.94,434.74 450.849,448.831 450.849,466.187C450.849,475.058 454.53,483.075 460.447,488.795L449.482,508.829ZM462.2,490.367C465.177,492.845 468.617,494.783 472.37,496.032L461.528,515.84C457.918,514.326 454.506,512.43 451.344,510.201L462.2,490.367Z" style="fill:white;"/>
    </g>
</svg>
