<?xml version="1.0" encoding="UTF-8" standalone="no"?>
<!DOCTYPE svg PUBLIC "-//W3C//DTD SVG 1.1//EN" "http://www.w3.org/Graphics/SVG/1.1/DTD/svg11.dtd">
<svg width="100%" height="100%" viewBox="0 0 1000 1000" version="1.1" xmlns="http://www.w3.org/2000/svg" xmlns:xlink="http://www.w3.org/1999/xlink" xml:space="preserve" xmlns:serif="http://www.serif.com/" style="fill-rule:evenodd;clip-rule:evenodd;stroke-linejoin:round;stroke-miterlimit:2;">
    <g transform="matrix(2.44171,0,0,2.44171,-232.514,11.6575)">
        <path d="M316.525,155.838L396.981,103.019L346.048,180.601L437.151,200L346.048,219.399L396.981,296.981L316.525,244.162L300,384.297L283.475,244.162L203.019,296.981L253.952,219.399L162.849,200L253.952,180.601L203.019,103.019L283.475,155.838L300,15.703L316.525,155.838ZM300,155C324.836,155 345,175.164 345,200C345,224.836 324.836,245 300,245C275.164,245 255,224.836 255,200C255,175.164 275.164,155 300,155ZM300.249,210.541C300.582,210.537 300.914,210.524 301.247,210.504L301.622,210.477C302.53,210.404 303.437,210.27 304.336,210.08C304.996,209.941 305.652,209.772 306.299,209.574L306.442,209.53C307.089,209.328 307.728,209.098 308.358,208.84C308.75,208.68 309.137,208.51 309.521,208.329L309.618,208.283C310.433,207.895 311.226,207.462 311.992,206.987L312.208,206.852C312.453,206.697 312.695,206.537 312.934,206.373C314.025,205.625 315.05,204.791 315.988,203.882L316.244,203.63C318.294,201.579 319.905,199.166 320.843,196.522L320.951,196.209C321.474,194.638 321.759,192.986 321.759,191.283C321.759,190.047 321.735,188.85 321.64,187.636C321.133,180.62 318.665,171.84 308.037,160.457C323.607,163.848 336.178,176.316 339.269,192.027L339.293,192.151C339.536,193.407 339.719,194.684 339.837,195.979C339.871,196.349 339.9,196.72 339.923,197.093L339.97,198.013C339.979,198.231 339.985,198.449 339.99,198.669C339.997,198.958 340,199.25 340,199.543C340,200.187 339.985,200.828 339.954,201.465C339.92,202.191 339.866,202.913 339.793,203.63C339.734,204.217 339.661,204.8 339.576,205.381L339.576,205.382C339.471,206.097 339.348,206.805 339.205,207.507C338.998,208.532 338.752,209.542 338.467,210.539L338.35,210.941C338.16,211.578 337.956,212.208 337.737,212.829L337.571,213.29C336.934,215.028 336.18,216.71 335.319,218.325L334.925,219.046L334.576,219.655C333.725,221.115 332.783,222.517 331.759,223.852C331.466,224.234 331.167,224.61 330.861,224.98C330.709,225.165 330.554,225.349 330.398,225.532L330.241,225.714C330.085,225.894 329.927,226.073 329.766,226.252C329.338,226.729 328.898,227.196 328.448,227.651L328.279,227.821C327.657,228.443 327.014,229.045 326.352,229.626C326.172,229.784 325.99,229.94 325.806,230.096L325.622,230.25C324.087,231.533 322.454,232.703 320.735,233.748L320.528,233.873C320.183,234.08 319.834,234.282 319.483,234.478L319.272,234.596C318.143,235.218 316.98,235.788 315.788,236.302L315.339,236.491C314.889,236.679 314.435,236.858 313.977,237.029L313.287,237.279C312.671,237.497 312.048,237.699 311.418,237.886C310.936,238.03 310.449,238.165 309.959,238.291L309.699,238.357C309.011,238.528 308.316,238.682 307.615,238.817L306.793,238.967C305.553,239.18 304.292,239.335 303.015,239.43L302.479,239.467C302.155,239.487 301.829,239.503 301.503,239.515L300.517,239.539L299.741,239.542L298.711,239.522L298.497,239.515L297.433,239.461L296.985,239.43C295.708,239.335 294.447,239.18 293.207,238.967L292.187,238.779C291.547,238.652 290.912,238.509 290.282,238.352L290.056,238.295C289.642,238.188 289.23,238.076 288.818,237.956C288.187,237.772 287.563,237.574 286.945,237.36L286.253,237.114L286.023,237.029C285.566,236.858 285.112,236.679 284.661,236.491C283.267,235.912 281.913,235.255 280.603,234.526C280.364,234.393 280.126,234.258 279.887,234.119L279.507,233.894C279.22,233.722 278.935,233.547 278.65,233.367L278.447,233.237C277.902,232.888 277.367,232.526 276.84,232.151C276.544,231.94 276.25,231.725 275.961,231.507C275.486,231.149 275.019,230.781 274.562,230.404L274.023,229.95C273.226,229.269 272.457,228.557 271.716,227.816C270.869,226.969 270.06,226.085 269.292,225.165C268.911,224.708 268.539,224.243 268.178,223.769C267.842,223.329 267.516,222.882 267.198,222.428C266.938,222.056 266.684,221.679 266.436,221.298C266.094,220.772 265.764,220.238 265.447,219.694L265.064,219.026L264.913,218.753C264.536,218.067 264.179,217.369 263.842,216.659C263.391,215.708 262.976,214.737 262.6,213.748L262.412,213.244C262.291,212.911 262.174,212.577 262.061,212.241C261.885,211.714 261.719,211.182 261.564,210.646C261.44,210.216 261.322,209.782 261.212,209.346L261.164,209.153C260.988,208.438 260.83,207.716 260.693,206.987C260.573,206.351 260.468,205.708 260.379,205.062C260.299,204.489 260.232,203.912 260.178,203.332L260.098,202.364L260.072,201.963C260.052,201.632 260.037,201.3 260.025,200.967C260.016,200.704 260.009,200.44 260.005,200.175C260.002,199.966 260,199.755 260,199.543L260.006,198.871C260.008,198.767 260.01,198.664 260.012,198.56C260.019,198.293 260.029,198.026 260.041,197.757L260.082,197.008C261.252,178.994 274.782,164.198 291.963,160.457C281.335,171.84 278.867,180.62 278.36,187.636C278.265,188.85 278.241,190.047 278.241,191.283C278.241,192.141 278.313,192.986 278.452,193.815C278.464,193.887 278.477,193.958 278.49,194.031C278.71,195.238 279.071,196.41 279.554,197.535C279.6,197.642 279.647,197.748 279.695,197.855C280.318,199.229 281.124,200.531 282.076,201.74C282.311,202.038 282.554,202.331 282.806,202.617L282.972,202.803C284.172,204.137 285.555,205.337 287.063,206.371L287.577,206.714C288.361,207.223 289.176,207.688 290.014,208.104L290.666,208.416C290.833,208.493 291.002,208.569 291.171,208.642L291.406,208.743C292.063,209.019 292.731,209.266 293.408,209.482L293.775,209.596C294.351,209.77 294.933,209.922 295.518,210.049C296.466,210.255 297.422,210.4 298.378,210.477L298.753,210.504C299.085,210.524 299.418,210.537 299.751,210.541L300.249,210.541Z" style="fill:white;"/>
    </g>
</svg>
