<?xml version="1.0" encoding="UTF-8" standalone="no"?>
<!DOCTYPE svg PUBLIC "-//W3C//DTD SVG 1.1//EN" "http://www.w3.org/Graphics/SVG/1.1/DTD/svg11.dtd">
<svg width="100%" height="100%" viewBox="0 0 1000 1000" version="1.1" xmlns="http://www.w3.org/2000/svg" xmlns:xlink="http://www.w3.org/1999/xlink" xml:space="preserve" xmlns:serif="http://www.serif.com/" style="fill-rule:evenodd;clip-rule:evenodd;stroke-linejoin:round;stroke-miterlimit:2;">
    <g transform="matrix(1.0839,0,0,1.0839,-41.9496,-41.9496)">
        <path d="M491.568,376.216C475.497,393.136 265.098,119.997 218.096,108.939C193.89,103.244 83.04,194.975 92.765,225.676C114.511,294.328 393.292,514.945 367.979,516.717C409.289,523.482 145.326,726.242 120.329,789.756C109.392,817.545 213.678,922.821 225.815,914.725C269.806,885.383 482.89,617.339 498.313,627.092C509.953,610.575 729.24,890.589 784.622,910.034C821.377,922.939 923.347,807.477 905.832,783.205C864.358,725.732 605.689,510.885 624.603,501.594C603.139,499.763 850.1,269.527 886.383,199.191C903.087,166.81 804.116,71.144 784.717,86.485C735.392,125.492 502.124,384.027 491.568,376.216Z" style="fill:white;"/>
    </g>
</svg>
