<?xml version="1.0" encoding="UTF-8" standalone="no"?>
<!DOCTYPE svg PUBLIC "-//W3C//DTD SVG 1.1//EN" "http://www.w3.org/Graphics/SVG/1.1/DTD/svg11.dtd">
<svg width="100%" height="100%" viewBox="0 0 1000 1000" version="1.1" xmlns="http://www.w3.org/2000/svg" xmlns:xlink="http://www.w3.org/1999/xlink" xml:space="preserve" xmlns:serif="http://www.serif.com/" style="fill-rule:evenodd;clip-rule:evenodd;stroke-linejoin:round;stroke-miterlimit:2;">
    <g transform="matrix(4.15379,0,0,4.15379,-1576.89,-1552.63)">
        <path d="M500,473C504.55,460.484 506.772,455.101 504,443C513.891,440.344 518.148,434.123 524,426C514.527,427.227 508.211,429.489 500,439C491.789,429.489 485.473,427.227 476,426C481.852,434.123 486.109,440.344 496,443C493.228,455.101 495.45,460.484 500,473ZM515,565L485,565C488.847,531.119 492.2,504.809 490.632,485C487.76,448.715 475.46,434.37 469.37,435C410.749,441.062 415.252,507.994 422.462,530C428.644,548.871 456.517,563.667 469.942,545C472.355,541.644 474.252,537.91 471,530C469.234,534.655 465.902,534.527 465,534.432C457.925,533.682 455.362,508.309 471,517C488.341,526.637 486.459,552.096 472.418,560C422.18,588.277 393.73,539.49 393,512.776C392.842,506.979 372.098,414.689 500,420C627.902,414.689 607.158,506.979 607,512.776C606.27,539.49 577.82,588.277 527.582,560C513.541,552.096 511.659,526.637 529,517C544.638,508.309 542.075,533.682 535,534.432C534.098,534.527 530.766,534.655 529,530C525.748,537.91 527.645,541.644 530.058,545C543.483,563.667 571.356,548.871 577.538,530C584.748,507.994 589.251,441.062 530.63,435C524.54,434.37 512.24,448.715 509.368,485C507.8,504.809 511.153,531.119 515,565Z" style="fill:white;"/>
    </g>
</svg>
