<?xml version="1.0" encoding="UTF-8" standalone="no"?>
<!DOCTYPE svg PUBLIC "-//W3C//DTD SVG 1.1//EN" "http://www.w3.org/Graphics/SVG/1.1/DTD/svg11.dtd">
<svg width="100%" height="100%" viewBox="0 0 1000 1000" version="1.1" xmlns="http://www.w3.org/2000/svg" xmlns:xlink="http://www.w3.org/1999/xlink" xml:space="preserve" xmlns:serif="http://www.serif.com/" style="fill-rule:evenodd;clip-rule:evenodd;stroke-linejoin:round;stroke-miterlimit:2;">
    <g transform="matrix(10.9756,0,0,10.9854,-2364.63,-3373.45)">
        <path d="M246.128,362.974C235.296,358.556 228.411,349.835 229,335.5C227.844,333.595 223.814,333.64 220,334.5C220.057,331.279 222.716,329.433 229,329.5C231.285,326.09 234.702,324.735 237,325.34C239.387,325.969 242.625,327.716 243,333.5C246.492,338.395 269.275,347.199 273,350.211C277.899,354.173 282.075,352.219 282.876,354.5C283.149,355.278 282.892,355.952 282,356.5C282.572,360.666 291.97,361.695 302,362.5C293.783,364.314 284.689,365.236 272,362.5C276.025,367.725 281.299,371.38 287,374.5C279.227,372.996 271.482,371.191 264,366.5C261.546,366.394 259.163,366.171 256.871,365.825C256.45,366.81 255.699,367.84 254,369L249.5,376C252.345,376.58 254.571,377.345 255.5,378.5C252.707,377.591 250.055,377.325 247.5,377.5C245.825,378.101 244.074,378.697 243,380C243.303,378.6 244.754,377.485 246,376.5C244,376.329 242,377.685 240,378.5C241.975,376.689 244.181,375.088 247.5,374.5L252.5,368.5C251.967,367.484 251.558,366.193 251.198,364.796C250.61,365.737 249.745,366.643 248.5,367.5C245.797,371.395 245.827,372.912 247.5,373C246.971,373.069 246.964,373.45 246.5,373.645C246.138,373.797 245.301,373.73 245,374C244.143,374.031 240.652,376.442 239.5,377.5C239.793,376.475 240.23,375.467 241,374.5C238.843,374.145 236.672,374.815 234.5,375.5C236.722,373.612 239.92,372.469 244,372L246.5,367.5C245.949,366.057 245.917,364.534 246.128,362.974ZM231.75,328.25C232.164,328.25 232.5,328.586 232.5,329C232.5,329.414 232.164,329.75 231.75,329.75C231.336,329.75 231,329.414 231,329C231,328.586 231.336,328.25 231.75,328.25Z" style="fill:white;"/>
    </g>
</svg>
