<?xml version="1.0" encoding="UTF-8" standalone="no"?>
<!DOCTYPE svg PUBLIC "-//W3C//DTD SVG 1.1//EN" "http://www.w3.org/Graphics/SVG/1.1/DTD/svg11.dtd">
<svg width="100%" height="100%" viewBox="0 0 1000 1000" version="1.1" xmlns="http://www.w3.org/2000/svg" xmlns:xlink="http://www.w3.org/1999/xlink" xml:space="preserve" xmlns:serif="http://www.serif.com/" style="fill-rule:evenodd;clip-rule:evenodd;stroke-linejoin:round;stroke-miterlimit:2;">
    <g transform="matrix(1.01931,0,0,1.01931,117.816,-38.734)">
        <path d="M410,414C410,414 355,383.333 340,380C332.056,378.235 320,394 320,394L320,970C354.621,922.627 379.855,846.101 389.632,750C399.416,653.838 391.464,539.811 410,414ZM390,457L356,436L355,497L360,440L390,457ZM410,440L414,410C383.586,393.998 355.252,376.348 340,374.331C330.737,373.106 322.502,381.558 316,392C293.283,381.583 284.683,367.865 307,346C311.136,337.515 316.827,329.861 324,323C354.01,318.901 382.578,331.865 410,353C413.944,357.702 420.295,361.711 421,367.887C422.558,381.543 430.149,391.525 440,400C443.082,403.713 441.837,409.497 445.305,413C453.219,420.992 453.298,427.855 455.083,433C458.1,441.699 452.73,446.18 440,445C433.153,442.032 426.994,440.662 422,442C417.153,442.356 413.126,441.722 410,440ZM324,320C354.204,315.441 383.502,326.686 412,350C414.332,341.598 414.564,332.958 412,324C406.857,308.364 407.53,292.685 409,277C410.344,240.8 415.847,208.188 423,177C442.153,175.675 447.46,163.58 438,140C422.485,114.577 404.913,97.745 384,89.667C373.591,85.646 364.079,85.899 355,93C333.5,169.383 330.608,244.979 324,320Z" style="fill:white;"/>
    </g>
</svg>
