<?xml version="1.0" encoding="UTF-8" standalone="no"?>
<!DOCTYPE svg PUBLIC "-//W3C//DTD SVG 1.1//EN" "http://www.w3.org/Graphics/SVG/1.1/DTD/svg11.dtd">
<svg width="100%" height="100%" viewBox="0 0 1000 1000" version="1.1" xmlns="http://www.w3.org/2000/svg" xmlns:xlink="http://www.w3.org/1999/xlink" xml:space="preserve" xmlns:serif="http://www.serif.com/" style="fill-rule:evenodd;clip-rule:evenodd;stroke-linejoin:round;stroke-miterlimit:2;">
    <g transform="matrix(0.999358,0,0,0.999358,1.25109,-4.96469)">
        <path d="M440.142,217.682C442.145,187.217 465.172,162.459 494.831,157.792L505,110L515.169,157.792C546.219,162.678 570,189.584 570,222C570,223.424 569.954,224.838 569.864,226.236L590,240L600,203C593.857,200.668 585.586,198.054 574,195C581.244,188.027 590.024,183.005 600,179.5C592.173,174.555 583.39,171.785 570,179.5C573.314,170.965 579.455,162.74 590,155C575.415,154.04 565.061,152.427 560,150C569.793,143.368 578.83,137.838 586.655,134C579.7,131.171 568.307,129.603 550,130C557.445,120.943 565.932,113.925 576,110C567.475,104.726 557,108.091 545.5,116C564.211,78.135 583.688,46.461 610,70C624.927,60.962 641.488,55.716 660,55C650.478,65.694 640.65,76.157 630,86C636.16,91.855 647.136,93.712 660,94C654.339,101.829 647.487,107.887 640,113C644.291,116.078 648.047,116.416 651.656,116C648.071,120.451 643.854,124.77 644,130L676,190C680.615,187.549 693.213,192.349 716.656,207C742.502,200.208 769.398,196.177 797,194L745.364,240L813.746,245.998L760,274.995L814.746,297C797.211,301.37 780.441,306.843 765.778,315.344C786.983,313.577 808.285,322.331 821.997,339.498L868.556,324.672L832.066,357.168C841.717,382.664 834.269,411.609 813.746,429.314L813.746,470.163C844.798,471.761 870.066,495.164 874.629,525.272L922.363,535.711L874.513,545.609C870.163,572.273 849.576,593.474 823.297,598.788L806.841,640.113C827.786,657.755 835.473,686.974 825.762,712.699L862.28,745.163L815.709,730.378C798.727,751.677 770.069,760.055 744.387,751.483L713.286,781.86C721.833,807.267 713.79,835.69 692.896,852.802L708.291,899.176L675.351,863.086C647.622,873.971 615.526,864.493 598.295,839.671C585.066,842.007 571.839,845.44 558.614,849.953C555.754,879.291 533.334,902.991 504.512,907.72L494.657,955.578L484.175,907.854C457.354,903.813 435.839,883.342 430.307,856.976L389.35,844.197C371.6,862.388 344.41,868.728 320.224,859.728L287.934,896.401L302.498,849.759C279.629,831.703 271.481,800.215 283.071,773.205C276.848,763.71 267.668,754.614 254.586,746.042C228.257,757.063 197.629,749.461 179.492,727.529L133.192,743.144L169.125,710.033C158.556,683.481 166.71,652.82 189.24,635.05C187.087,618.922 183.126,604.812 177.387,592.688C150.041,588.29 128.305,566.781 123.68,539.408L75.776,529.78L123.45,519.072C127.985,487.968 154.62,463.885 187.034,463.518C187.353,463.515 187.672,463.513 187.994,463.515L192.85,425.126C170.437,407.562 162.104,377.207 172.309,350.701L136.004,317.999L182.478,333.089C201.555,309.482 235.023,302.011 262.58,316.119L287.922,289.109C275.47,262.049 283.183,229.986 306.091,211.474L291.001,165L323.703,201.305C351.289,190.684 383.043,200.142 400.211,224.656C414.779,224.913 427.883,222.167 440.142,217.682ZM494.201,886.08C470.745,886.233 451.577,867.315 451.423,843.859C451.269,820.403 470.188,801.235 493.644,801.081C517.099,800.928 536.268,819.846 536.421,843.302C536.575,866.758 517.657,885.926 494.201,886.08ZM494.021,858.58C485.742,858.635 478.977,851.957 478.923,843.679C478.868,835.4 485.545,828.635 493.824,828.581C502.102,828.527 508.868,835.204 508.922,843.482C508.976,851.761 502.299,858.526 494.021,858.58ZM673.146,839.216C652.91,851.077 626.851,844.278 614.99,824.041C603.128,803.805 609.928,777.745 630.165,765.884C650.401,754.023 676.46,760.823 688.321,781.059C700.183,801.296 693.383,827.355 673.146,839.216ZM322.001,835.823C301.556,824.325 294.292,798.392 305.79,777.946C317.288,757.501 343.221,750.237 363.666,761.735C384.111,773.233 391.376,799.166 379.878,819.611C368.38,840.057 342.446,847.321 322.001,835.823ZM659.241,815.491C652.098,819.677 642.901,817.277 638.715,810.135C634.528,802.993 636.928,793.795 644.07,789.609C651.213,785.423 660.41,787.823 664.596,794.965C668.783,802.107 666.383,811.305 659.241,815.491ZM335.481,811.853C328.265,807.795 325.701,798.642 329.759,791.426C333.817,784.21 342.97,781.647 350.186,785.705C357.402,789.763 359.966,798.916 355.908,806.132C351.85,813.347 342.697,815.911 335.481,811.853ZM448.093,253.415C428.939,258.593 415.209,265.058 410.916,273.758L410.916,273.758C407.578,291.832 396.648,308.387 379.501,318.286C361.394,328.74 340.327,329.481 322.351,322.13L294.567,353.193L294.567,353.193C300.332,370.282 299.007,389.669 289.291,406.499C278.03,426.004 258.157,437.465 237.237,438.856C231.102,454.449 226.652,468.829 229.029,478.303C243.331,490.071 252.539,507.831 252.765,527.779C253.038,551.935 240.07,573.181 220.618,584.604C222.529,597.787 225.517,609.908 229.5,621.051C251.704,621.063 273.34,632.448 285.468,652.916C298.405,674.749 297.081,701.106 284.272,721.135L306.847,744.644C326.545,731.583 352.697,729.752 374.695,742.123C396.139,754.183 408.103,776.627 407.831,799.621L438.521,809.589C449.886,791.117 470.232,778.735 493.496,778.582C518.475,778.418 540.274,792.396 551.289,813.009C564.009,810.94 575.602,806.504 586.676,800.983C587.228,779.243 598.663,758.268 618.787,746.473C639.099,734.567 663.248,734.955 682.579,745.378L708.869,722.714C697.519,703.332 696.525,678.583 708.417,657.67C720.72,636.034 743.604,624.152 766.879,624.826L777.551,591.186C758.188,579.83 745.229,558.747 745.365,534.708C745.495,511.799 757.487,491.709 775.481,480.234C769.317,467.235 762.47,454.647 754.294,442.858C738.154,438.497 723.691,427.958 714.77,412.301C709.896,403.749 707.18,394.551 706.448,385.344C693.1,380.559 678.032,375.545 653,372.024C642.631,370.566 634.053,362.595 625,356C618.836,362.615 608.47,364.243 594,361C554.379,381.76 504.536,396.797 505,440C499.269,437.218 493.904,433.931 497,419L475,378C473.838,374.032 471.84,371.708 468,373C463.333,376.936 458.667,376.972 454,374C460.354,366.561 467.845,361.525 477,360C470.059,350.17 467.726,340.17 470,330C475,340.034 480,345.584 485,345C483.179,330.645 484.298,318.556 490,310C494.142,321.731 499.401,331.951 507,339C507.872,326.614 509.261,315.999 512,310C516.747,314.499 520.235,319.444 522,325C531.828,314.655 548.828,303.885 569,289.385C578.646,282.452 583.812,270.34 589,258L561.797,253.612C550.681,273.524 529.402,287 505,287C480.516,287 459.175,273.433 448.093,253.415ZM801.865,710.809C790.27,731.199 764.303,738.34 743.912,726.745C723.522,715.15 716.381,689.183 727.976,668.792C739.57,648.402 765.538,641.261 785.928,652.856C806.319,664.45 813.46,690.418 801.865,710.809ZM192.984,707.715C181.027,687.536 187.703,661.444 207.883,649.487C228.063,637.53 254.154,644.206 266.111,664.386C278.068,684.566 271.392,710.657 251.213,722.614C231.033,734.571 204.941,727.895 192.984,707.715ZM777.96,697.215C773.867,704.412 764.702,706.932 757.506,702.84C750.309,698.748 747.789,689.582 751.881,682.386C755.973,675.189 765.138,672.669 772.335,676.761C779.532,680.853 782.052,690.019 777.96,697.215ZM216.643,693.697C212.423,686.575 214.779,677.366 221.901,673.146C229.024,668.926 238.232,671.282 242.452,678.404C246.673,685.527 244.316,694.735 237.194,698.955C230.072,703.176 220.863,700.819 216.643,693.697ZM852.864,535.317C852.731,558.773 833.579,577.709 810.123,577.576C786.667,577.443 767.732,558.291 767.865,534.835C767.998,511.379 787.149,492.444 810.605,492.577C834.061,492.71 852.997,511.861 852.864,535.317ZM145.272,528.995C145.006,505.54 163.833,486.282 187.288,486.017C210.743,485.752 230.001,504.579 230.266,528.033C230.531,551.488 211.704,570.746 188.249,571.011C164.795,571.277 145.537,552.45 145.272,528.995ZM825.364,535.161C825.317,543.44 818.558,550.123 810.279,550.076C802.001,550.029 795.318,543.27 795.365,534.991C795.412,526.713 802.171,520.03 810.449,520.076C818.728,520.123 825.411,526.883 825.364,535.161ZM172.77,528.684C172.676,520.405 179.321,513.609 187.599,513.515C195.877,513.421 202.674,520.066 202.768,528.344C202.861,536.623 196.217,543.419 187.938,543.513C179.66,543.607 172.863,536.962 172.77,528.684ZM808.171,359.08C819.784,379.46 812.666,405.434 792.286,417.047C771.906,428.66 745.932,421.542 734.319,401.162C722.706,380.782 729.824,354.808 750.204,343.195C770.584,331.582 796.558,338.7 808.171,359.08ZM196.193,352.749C207.921,332.435 233.935,325.465 254.249,337.193C274.563,348.921 281.533,374.935 269.805,395.249C258.077,415.563 232.063,422.533 211.749,410.805C191.435,399.077 184.465,373.063 196.193,352.749ZM784.278,372.695C788.376,379.888 785.864,389.055 778.671,393.154C771.478,397.253 762.311,394.74 758.212,387.547C754.114,380.354 756.626,371.187 763.819,367.088C771.012,362.99 780.179,365.502 784.278,372.695ZM220.009,366.499C224.148,359.329 233.329,356.869 240.499,361.009C247.669,365.148 250.129,374.329 245.989,381.499C241.85,388.669 232.669,391.129 225.499,386.989C218.329,382.85 215.869,373.669 220.009,366.499ZM661,224.5C683.629,224.5 702,242.871 702,265.5C702,288.129 683.629,306.5 661,306.5C638.371,306.5 620,288.129 620,265.5C620,242.871 638.371,224.5 661,224.5ZM325.751,225.189C346.065,213.461 372.079,220.431 383.807,240.745C395.535,261.059 388.565,287.073 368.251,298.801C347.937,310.529 321.923,303.559 310.195,283.245C298.467,262.931 305.437,236.917 325.751,225.189ZM661,250.5C669.279,250.5 676,257.221 676,265.5C676,273.779 669.279,280.5 661,280.5C652.721,280.5 646,273.779 646,265.5C646,257.221 652.721,250.5 661,250.5ZM339.501,249.004C346.671,244.865 355.852,247.325 359.991,254.495C364.131,261.664 361.671,270.846 354.501,274.985C347.331,279.125 338.15,276.664 334.011,269.495C329.871,262.325 332.331,253.144 339.501,249.004ZM505,179.5C528.456,179.5 547.5,198.544 547.5,222C547.5,245.456 528.456,264.5 505,264.5C481.544,264.5 462.5,245.456 462.5,222C462.5,198.544 481.544,179.5 505,179.5ZM505,207C513.279,207 520,213.721 520,222C520,230.279 513.279,237 505,237C496.721,237 490,230.279 490,222C490,213.721 496.721,207 505,207Z" style="fill:white;"/>
    </g>
</svg>
