<?xml version="1.0" encoding="UTF-8" standalone="no"?>
<!DOCTYPE svg PUBLIC "-//W3C//DTD SVG 1.1//EN" "http://www.w3.org/Graphics/SVG/1.1/DTD/svg11.dtd">
<svg width="100%" height="100%" viewBox="0 0 1000 1000" version="1.1" xmlns="http://www.w3.org/2000/svg" xmlns:xlink="http://www.w3.org/1999/xlink" xml:space="preserve" xmlns:serif="http://www.serif.com/" style="fill-rule:evenodd;clip-rule:evenodd;stroke-linejoin:round;stroke-miterlimit:2;">
    <g transform="matrix(3.67411,0,0,3.67411,-1525.07,-1818.36)">
        <path d="M592.348,552C592.348,552 667.348,518 667.348,518L657.348,594C677.692,628.382 677.126,654.796 665.886,678C645.99,719.073 614.46,739.774 557.669,743.952L557,744C499.788,739.936 456.436,721.234 436.461,680C425.221,656.796 424.656,630.382 445,596L435,520L510,554L510.631,553.833C525.098,550.022 539.794,547.759 554.603,547.592C567.304,547.362 579.91,548.684 592.348,552ZM534.847,650C531.02,667.109 514.365,680 494.424,680C471.657,680 453.174,663.197 453.174,642.5C453.174,621.803 471.657,605 494.424,605C516.266,605 534.166,620.466 535.583,640L566.764,640C568.182,620.466 586.082,605 607.924,605C630.69,605 649.174,621.803 649.174,642.5C649.174,663.197 630.69,680 607.924,680C587.983,680 571.327,667.109 567.5,650L534.847,650ZM494.424,614.318C511.533,614.318 525.424,626.946 525.424,642.5C525.424,658.054 511.533,670.682 494.424,670.682C477.314,670.682 463.424,658.054 463.424,642.5C463.424,626.946 477.314,614.318 494.424,614.318ZM607.924,614.318C590.814,614.318 576.924,626.946 576.924,642.5C576.924,658.054 590.814,670.682 607.924,670.682C625.033,670.682 638.924,658.054 638.924,642.5C638.924,626.946 625.033,614.318 607.924,614.318Z" style="fill:white;"/>
    </g>
</svg>
