<?xml version="1.0" encoding="UTF-8" standalone="no"?>
<!DOCTYPE svg PUBLIC "-//W3C//DTD SVG 1.1//EN" "http://www.w3.org/Graphics/SVG/1.1/DTD/svg11.dtd">
<svg width="100%" height="100%" viewBox="0 0 1000 1000" version="1.1" xmlns="http://www.w3.org/2000/svg" xmlns:xlink="http://www.w3.org/1999/xlink" xml:space="preserve" xmlns:serif="http://www.serif.com/" style="fill-rule:evenodd;clip-rule:evenodd;stroke-linejoin:round;stroke-miterlimit:2;">
    <g transform="matrix(12.9861,0,0,12.9861,-3977.86,-5328.6)">
        <path d="M347,455.5C343.823,455.817 340.646,456.2 337.469,456L337,453C333.656,452.415 332.571,453.294 330,453.582C325.86,454.047 322.461,452.722 319.5,451.5C318.407,451.049 316.887,451.447 316.231,452.52C315.307,454.033 316.112,454.787 317.5,456C319.843,458.049 322.083,460.119 337.5,459.5L338.5,462.5L344.5,464C346.595,461.333 347.429,458.167 347,455.5ZM372.946,433.667C371.829,436.658 370.771,439.678 369.19,442.441L366.291,441.538C364.29,444.282 364.6,445.643 363.725,448.077C362.316,451.997 359.627,454.463 357.224,456.581C356.337,457.364 356.024,458.903 356.697,459.965C357.647,461.462 358.679,461.071 360.38,460.361C363.252,459.163 366.098,458.066 372.345,443.957L375.478,444.383L379.471,439.661C378.003,436.604 375.528,434.459 372.946,433.667ZM310.476,449.87L310.429,449.827C310.401,449.801 310.382,449.766 310.373,449.775C310.305,449.849 310.385,449.868 310.476,449.87C310.584,449.971 310.763,450.139 310.988,450.331C311.182,450.497 311.402,450.685 311.636,450.856C311.773,450.955 311.916,451.045 312.055,451.129C312.604,451.464 313.074,451.707 313.074,451.707C313.289,451.862 313.59,451.812 313.744,451.597C313.898,451.381 313.848,451.081 313.633,450.927C313.633,450.927 313.251,450.56 312.757,450.148C312.633,450.044 312.502,449.938 312.364,449.84C312.126,449.673 311.877,449.526 311.658,449.396C311.362,449.22 311.117,449.093 311,449.029C310.76,448.896 310.667,449.07 310.636,449.292C310.574,448.868 310.373,448.936 310.256,449.1C310.102,449.315 310.152,449.615 310.367,449.77L310.647,449.859C310.647,449.859 310.557,449.872 310.476,449.87ZM314.307,445.853L314.283,445.768C314.273,445.732 314.275,445.692 314.263,445.695C314.114,445.737 314.184,445.798 314.307,445.853C314.348,445.997 314.411,446.224 314.497,446.491C314.576,446.733 314.666,447.008 314.776,447.276C314.841,447.433 314.916,447.584 314.99,447.728C315.284,448.3 315.558,448.753 315.558,448.753C315.661,448.997 315.943,449.111 316.187,449.008C316.431,448.905 316.546,448.623 316.442,448.379C316.442,448.379 316.308,447.867 316.102,447.258C316.05,447.104 315.994,446.945 315.927,446.79C315.811,446.523 315.676,446.268 315.557,446.042C315.396,445.738 315.253,445.502 315.187,445.385C315.049,445.144 314.915,445.357 314.822,445.593C314.95,445.037 314.72,444.971 314.516,445.058C314.272,445.161 314.157,445.443 314.261,445.687L314.703,445.98C314.703,445.98 314.463,445.921 314.307,445.853ZM318.501,444.154L318.509,444.083C318.514,444.046 318.531,444.01 318.519,444.008C318.338,443.986 318.383,444.059 318.501,444.154C318.482,444.301 318.45,444.542 318.425,444.832C318.403,445.086 318.378,445.374 318.375,445.664C318.374,445.834 318.385,446.002 318.397,446.164C318.444,446.805 318.52,447.329 318.52,447.329C318.52,447.594 318.735,447.809 319,447.809C319.265,447.809 319.48,447.594 319.48,447.329C319.48,447.329 319.556,446.805 319.603,446.164C319.615,446.002 319.626,445.834 319.625,445.664C319.622,445.374 319.597,445.086 319.575,444.832C319.546,444.49 319.506,444.216 319.491,444.083C319.458,443.808 319.245,444.087 319.11,444.296C319.442,443.699 319.242,443.52 319,443.52C318.735,443.52 318.52,443.735 318.52,444L319,444.48C319,444.48 318.673,444.294 318.501,444.154Z" style="fill:white;"/>
    </g>
</svg>
