<?xml version="1.0" encoding="UTF-8" standalone="no"?>
<!DOCTYPE svg PUBLIC "-//W3C//DTD SVG 1.1//EN" "http://www.w3.org/Graphics/SVG/1.1/DTD/svg11.dtd">
<svg width="100%" height="100%" viewBox="0 0 1000 1000" version="1.1" xmlns="http://www.w3.org/2000/svg" xmlns:xlink="http://www.w3.org/1999/xlink" xml:space="preserve" xmlns:serif="http://www.serif.com/" style="fill-rule:evenodd;clip-rule:evenodd;stroke-linejoin:round;stroke-miterlimit:2;">
    <g transform="matrix(2.90909,0,0,2.91331,-1449.09,-856.253)">
        <path d="M780,331.073L780,620L580,620L560,600L560,311.073L760,311.073L780,331.073ZM760,315L760,600L565,600L580,616L777,616L777,331L760,315ZM660,354.505C686.024,354.835 709.698,366.642 721.648,382.484C735.007,400.192 737.397,426.21 728.07,461.106L728.07,470.096C726.818,473.113 724.572,475.151 721.648,476.518C721.113,481.619 717.893,486.918 714.142,492.257C712.935,503.413 713.182,516.398 711.374,518.206L681.834,558.716L660,560L638.166,558.716L608.626,518.206C606.818,516.398 607.065,503.413 605.858,492.257C602.107,486.918 598.887,481.619 598.352,476.518C595.428,475.151 593.182,473.113 591.93,470.096L591.93,461.106C582.603,426.21 584.993,400.192 598.352,382.484C610.302,366.642 633.976,354.835 660,354.505ZM660,531.744L660.642,521.47L663.853,521.47L665.78,531.102L665.78,521.187L671.559,521.47L673.486,529.176L673.486,522.112L677.981,522.112L679.265,528.247L679.265,521.47L683.76,520.828L686.329,527.891L685.045,520.828L687.613,520.185L691.466,524.681L688.256,519.543L690.182,518.259L693.393,520.828L690.824,516.975L692.109,515.621L694.677,517.057C695.896,514.052 697.046,510.789 697.803,506.058C699.448,502.552 701.461,499.397 703.668,496.425C703.954,492.968 704,489.538 703.668,486.15C698.164,484.901 694.629,483.31 691.466,481.655C688.655,485.464 688.089,490.71 688.256,496.425C689.895,499.872 691.89,502.967 691.01,505.415C689.693,509.077 690.474,512.382 688.898,515.048L685.687,515.69L685.687,507.984L683.118,516.332L679.907,516.975L679.907,507.984L678.623,517.617L672.201,516.975L671.559,509.268L670.275,517.297L665.137,517.617L664.495,509.268L663.211,516.975L660,517.061L660,509.333L658.716,517.004L656.147,517.027L655.505,509.268L654.863,517.617L649.725,517.297L648.441,509.268L647.799,516.975L641.377,517.617L640.093,507.984L640.093,516.975L636.882,516.332L634.313,507.984L634.313,515.69L631.102,515.048C629.526,512.382 630.307,509.077 628.99,505.415C628.11,502.967 630.105,499.872 631.744,496.425C631.911,490.71 631.345,485.464 628.534,481.655C625.371,483.31 621.836,484.901 616.332,486.15C616,489.538 616.046,492.968 616.332,496.425C618.539,499.397 620.552,502.552 622.197,506.058C622.954,510.789 624.104,514.052 625.323,517.057L627.891,515.621L629.176,516.975L626.607,520.828L629.818,518.259L631.744,519.543L628.534,524.681L632.387,520.185L634.955,520.828L633.671,527.891L636.24,520.828L640.735,521.47L640.735,528.247L642.019,522.112L646.514,522.112L646.514,529.176L648.441,521.47L654.22,521.187L654.22,531.102L656.147,521.47L659.358,521.47L660,531.744ZM663.853,450.831C663.299,449.327 661.284,451.153 661.284,453.4L661.284,490.646C666.248,489.008 669.444,485.182 669.771,477.802C670.047,471.595 668.292,462.875 663.853,450.831ZM656.147,450.831C656.701,449.327 658.716,451.153 658.716,453.4L658.716,490.646C653.752,489.008 650.556,485.182 650.229,477.802C649.953,471.595 651.708,462.875 656.147,450.831ZM681.371,426.414L695.962,426.414C703.362,426.375 710.089,433.458 710.089,441.841L710.089,446.978C706.485,457.08 700.904,460.531 692.844,458.537C688.599,457.487 681.882,453.976 676.054,448.949C672.799,446.141 667.706,443.723 667.706,440.556L667.706,436.703C667.706,434.093 672.167,426.431 681.371,426.414ZM638.629,426.414L624.038,426.414C616.638,426.375 609.911,433.458 609.911,441.841L609.911,446.978C613.515,457.08 619.096,460.531 627.156,458.537C631.401,457.487 638.118,453.976 643.946,448.949C647.201,446.141 652.294,443.723 652.294,440.556L652.294,436.703C652.294,434.093 647.833,426.431 638.629,426.414Z" style="fill:white;"/>
    </g>
</svg>
