<?xml version="1.0" encoding="UTF-8" standalone="no"?>
<!DOCTYPE svg PUBLIC "-//W3C//DTD SVG 1.1//EN" "http://www.w3.org/Graphics/SVG/1.1/DTD/svg11.dtd">
<svg width="100%" height="100%" viewBox="0 0 1000 1000" version="1.1" xmlns="http://www.w3.org/2000/svg" xmlns:xlink="http://www.w3.org/1999/xlink" xml:space="preserve" xmlns:serif="http://www.serif.com/" style="fill-rule:evenodd;clip-rule:evenodd;stroke-linejoin:round;stroke-miterlimit:2;">
    <g transform="matrix(6.84898,0,0,6.84898,-2263.92,-2278.65)">
        <path d="M396,355.486C395.691,355.523 395.376,355.543 395.056,355.543C390.767,355.543 387.285,352.06 387.285,347.771C387.285,343.482 390.767,340 395.056,340C399.345,340 402.828,343.482 402.828,347.771C402.828,347.798 402.827,347.824 402.827,347.851C403.601,349.188 403.723,350.749 403.295,352.5C402.319,356.488 397.063,361.046 393,367C403.072,370.755 403.926,375.551 399,381C399.98,383.353 403.017,383.622 403.894,385C404.701,386.268 404.626,387.588 403,389C405.768,391.803 407.846,395.324 408.674,398C409.034,399.163 408.549,400.305 409,400.883C415.645,409.407 416.254,410.703 414.459,412C412.697,413.272 411.883,412.888 410,407C409.942,407.428 409.883,407.823 409.821,408.184C409.771,408.479 409.72,408.751 409.667,409C409.112,411.629 408.417,411.653 407.5,408.196C407.403,407.83 406.809,406.948 406.5,407C405.667,407.141 405.005,408.49 404.5,408.159C403.132,407.263 407.854,406.238 403.5,401C403.852,408.469 403.061,416.078 408.814,423C411.189,425.857 410.343,430.291 411,434L408,435.5L409,443C412.062,442.514 414.735,442.507 417,443L423,443C423.995,443.173 424.652,443.726 424.667,445C425.043,446.869 426.426,448.004 428,449C428.574,458.11 426.586,458.432 425.753,458.5C424.987,458.562 423.537,457.849 423,455C422.129,455.258 421.508,455.201 421,455C420.265,453.646 420.113,452.322 420,451C417.554,455.32 420.09,459.656 425,464C425.992,468.259 425.923,470.526 425,471.194C423.742,472.104 420.898,470.041 417,466C416.594,470.154 415.615,470.742 415,466C410.478,468.09 410.691,467.286 413.5,463.5C411.988,462.86 409.84,462.355 410,461.006C410.151,459.732 407.954,458.759 406.5,457.74C403.15,455.391 398.816,453.051 393.5,450.5C388.794,445.693 384.276,441.317 383.512,436C382.886,431.645 380.42,428.668 379,425C380.646,423.083 382.176,421.102 381.984,419C381.809,417.076 380.903,415.523 381,412.5C380.427,410.371 380.117,407.652 380,404.5L379.5,393.5C380.674,390.557 381.767,387.595 384.5,385C385.526,383.254 386.136,381.154 385.5,378C385.354,375.105 385.336,371.893 386,367L396,357L396,355.486ZM416,455C415.178,454.106 414.157,453.839 413,454C412.519,454.561 411.989,454.527 411.419,454L407,451C410.051,449.937 413.027,450.175 416,450.463C416.544,451.948 416.469,453.464 416,455ZM402.5,445.5C397.399,444.135 395.936,441.243 396.5,437.5C397.148,435.938 397.996,435.886 399,437C399.406,439.904 400.67,442.728 402.5,445.5Z" style="fill:white;"/>
    </g>
</svg>
