<?xml version="1.0" encoding="UTF-8" standalone="no"?>
<!DOCTYPE svg PUBLIC "-//W3C//DTD SVG 1.1//EN" "http://www.w3.org/Graphics/SVG/1.1/DTD/svg11.dtd">
<svg width="100%" height="100%" viewBox="0 0 1000 1000" version="1.1" xmlns="http://www.w3.org/2000/svg" xmlns:xlink="http://www.w3.org/1999/xlink" xml:space="preserve" xmlns:serif="http://www.serif.com/" style="fill-rule:evenodd;clip-rule:evenodd;stroke-linejoin:round;stroke-miterlimit:2;">
    <g transform="matrix(1.11762,0,0,1.11762,-58.8091,-61.7618)">
        <path d="M496,885C486.055,885 459.954,876.297 420,890C382.768,902.77 326.272,912.546 290,898.125C253.657,883.676 181.2,900.641 180.015,904.887L180,905C179.999,904.963 180.004,904.925 180.015,904.887C230.879,702.473 264.567,495.885 260,280C298.54,263.156 349.984,254.739 410.769,252.423C429.483,265.877 449.179,269.084 469.546,265.281C470.146,276.153 489.849,290 500,290C510.151,290 529.855,276.153 530.454,265.281C550.821,269.084 570.517,265.877 589.232,252.423C650.016,254.739 701.46,263.156 740,280C813.433,489.943 828.183,697.819 819.985,904.887C819.996,904.925 820.001,904.963 820,905L819.985,904.887C818.8,900.641 746.343,883.676 710,898.125C673.729,912.546 617.232,902.77 580,890C540.046,876.297 513.945,885 504,885L496,885ZM609.514,760C609.514,760 616.732,771.011 616.472,784.46C616.412,787.54 616.369,790.77 616.336,794.06C616.314,796.177 616.297,798.319 616.298,800.46C616.298,802.602 616.316,804.743 616.339,806.86C616.375,810.151 616.429,813.381 616.49,816.46C616.755,829.909 609.514,840 609.514,840C609.514,840.268 609.732,840.486 610,840.486C610.268,840.486 610.486,840.268 610.486,840C610.486,840 618.34,829.909 618.605,816.46C618.666,813.381 618.719,810.151 618.756,806.86C618.779,804.743 618.796,802.602 618.797,800.46C618.797,798.319 618.78,796.177 618.759,794.06C618.726,790.77 618.683,787.54 618.623,784.46C618.363,771.011 610.486,760 610.486,760C610.486,759.732 610.268,759.514 610,759.514C609.732,759.514 609.514,759.732 609.514,760ZM679.515,460.036C679.515,460.036 686.691,499.75 690.128,550.183C690.916,561.735 691.761,573.853 692.633,586.193C693.194,594.133 693.765,602.165 694.355,610.196C694.944,618.227 695.55,626.256 696.156,634.193C697.097,646.528 698.039,658.639 698.946,670.182C702.908,720.577 701.515,760.036 701.515,760.036C701.534,760.303 701.768,760.505 702.036,760.485C702.303,760.466 702.505,760.232 702.485,759.964C702.485,759.964 704.488,720.461 701.056,670.027C700.27,658.475 699.435,646.356 698.566,634.016C698.007,626.076 697.436,618.044 696.847,610.013C696.259,601.982 695.653,593.953 695.049,586.016C694.112,573.681 693.18,561.569 692.274,550.026C688.317,499.63 680.485,459.964 680.485,459.964C680.466,459.697 680.232,459.495 679.964,459.515C679.697,459.534 679.495,459.768 679.515,460.036ZM389.514,500C389.514,500 393.063,535.896 392.803,577.908C392.743,587.531 392.7,597.627 392.667,607.908C392.645,614.524 392.628,621.216 392.629,627.908C392.629,634.601 392.647,641.293 392.67,647.908C392.706,658.19 392.76,668.286 392.821,677.908C393.086,719.921 389.514,750 389.514,750C389.514,750.268 389.732,750.486 390,750.486C390.268,750.486 390.486,750.268 390.486,750C390.486,750 394.671,719.921 394.936,677.908C394.997,668.285 395.05,658.19 395.087,647.908C395.11,641.293 395.127,634.601 395.128,627.908C395.128,621.216 395.111,614.524 395.09,607.908C395.057,597.627 395.014,587.531 394.954,577.908C394.694,535.896 390.486,500 390.486,500C390.486,499.732 390.268,499.514 390,499.514C389.732,499.514 389.514,499.732 389.514,500ZM309.517,449.94C309.517,449.94 316.984,484.634 311.684,524.935C310.471,534.165 309.216,543.852 307.949,553.718C307.135,560.066 306.314,566.488 305.512,572.913C304.709,579.337 303.923,585.764 303.153,592.118C301.955,601.993 300.797,611.691 299.702,620.937C294.924,661.302 279.517,689.94 279.517,689.94C279.484,690.206 279.673,690.449 279.94,690.483C280.206,690.516 280.449,690.327 280.483,690.06C280.483,690.06 296.496,661.498 301.801,621.199C303.016,611.969 304.281,602.283 305.551,592.418C306.368,586.07 307.188,579.647 307.992,573.223C308.795,566.798 309.581,560.372 310.354,554.018C311.555,544.144 312.724,534.447 313.819,525.201C318.602,484.837 310.483,450.06 310.483,450.06C310.516,449.794 310.327,449.551 310.06,449.517C309.794,449.484 309.551,449.673 309.517,449.94ZM549.514,400C549.514,400 551.621,432.205 551.36,472.537C551.301,481.775 551.257,491.467 551.224,501.337C551.203,507.688 551.186,514.113 551.187,520.537C551.187,526.962 551.204,533.386 551.228,539.737C551.264,549.607 551.318,559.299 551.378,568.537C551.644,608.869 549.514,640 549.514,640C549.514,640.268 549.732,640.486 550,640.486C550.268,640.486 550.486,640.268 550.486,640C550.486,640 553.228,608.869 553.494,568.537C553.555,559.299 553.608,549.607 553.644,539.737C553.668,533.386 553.685,526.962 553.686,520.537C553.686,514.113 553.669,507.688 553.648,501.337C553.615,491.467 553.571,481.775 553.512,472.537C553.251,432.205 550.486,400 550.486,400C550.486,399.732 550.268,399.514 550,399.514C549.732,399.514 549.514,399.732 549.514,400ZM387.35,309.64C387.35,309.64 392.59,323.222 391.587,336.769C391.357,339.871 391.135,343.125 390.92,346.441C390.782,348.575 390.646,350.733 390.528,352.893C390.411,355.052 390.309,357.212 390.216,359.348C390.07,362.668 389.945,365.928 389.836,369.036C389.357,382.611 382.928,390.306 382.928,390.306C382.913,390.574 383.119,390.804 383.387,390.819C383.655,390.833 383.885,390.628 383.899,390.36C383.899,390.36 390.939,382.698 391.948,369.152C392.179,366.05 392.411,362.796 392.629,359.48C392.769,357.347 392.905,355.189 393.024,353.029C393.143,350.87 393.244,348.71 393.34,346.574C393.489,343.254 393.624,339.995 393.735,336.887C394.218,323.311 388.322,309.694 388.322,309.694C388.336,309.426 388.131,309.196 387.863,309.181C387.594,309.167 387.365,309.372 387.35,309.64ZM835,285C757.36,264.66 677.952,247.282 589.536,245C591.53,231.073 584.852,224.519 569.899,225C613.671,129.549 716.666,189.77 766.27,245C783.365,264.034 835,285 835,285ZM165,285C242.64,264.66 322.048,247.282 410.464,245C408.47,231.073 415.148,224.519 430.101,225C386.329,129.549 283.334,189.77 233.73,245C216.635,264.034 165,285 165,285ZM487.072,256.032C489.914,251.944 494.647,249.265 500,249.265C505.353,249.265 510.086,251.944 512.928,256.032L524.734,255L530.625,250L532.589,256C530.733,256.376 525.716,260 525.716,260C525.716,260 521.094,260.705 515.328,261.431C515.594,262.578 515.735,263.773 515.735,265C515.735,273.685 508.685,280.735 500,280.735C491.315,280.735 484.265,273.685 484.265,265C484.265,263.773 484.406,262.578 484.672,261.431C478.906,260.705 474.284,260 474.284,260C474.284,260 469.267,256.376 467.411,256L469.375,250L475.266,255L487.072,256.032ZM500,253.824C506.168,253.824 511.176,258.832 511.176,265C511.176,271.168 506.168,276.176 500,276.176C493.832,276.176 488.824,271.168 488.824,265C488.824,258.832 493.832,253.824 500,253.824ZM437.15,232.878C434.921,229.971 431.448,228.1 427.549,228.1C420.829,228.1 415.373,233.657 415.373,240.501C415.373,247.345 420.829,252.902 427.549,252.902C428.432,252.902 429.293,252.806 430.124,252.623C432.352,255.53 435.826,257.401 439.725,257.401C441.21,257.401 442.634,257.129 443.951,256.632C446.13,258.72 449.065,260 452.29,260C459.01,260 464.466,254.443 464.466,247.599C464.466,240.755 459.01,235.199 452.29,235.199C450.804,235.199 449.38,235.47 448.063,235.967C445.884,233.88 442.95,232.599 439.725,232.599C438.842,232.599 437.98,232.695 437.15,232.878ZM562.85,232.878C565.079,229.971 568.552,228.1 572.451,228.1C579.171,228.1 584.627,233.657 584.627,240.501C584.627,247.345 579.171,252.902 572.451,252.902C571.568,252.902 570.707,252.806 569.876,252.623C567.648,255.53 564.174,257.401 560.275,257.401C558.79,257.401 557.366,257.129 556.049,256.632C553.87,258.72 550.935,260 547.71,260C540.99,260 535.534,254.443 535.534,247.599C535.534,240.755 540.99,235.199 547.71,235.199C549.196,235.199 550.62,235.47 551.937,235.967C554.116,233.88 557.05,232.599 560.275,232.599C561.158,232.599 562.02,232.695 562.85,232.878ZM356.462,165C397.03,169.755 423.324,193.476 435.01,225C445.427,224.534 455.142,228.525 464.466,235C425.712,189.978 392.632,141.878 371.19,100C354.941,105.149 342.009,115.394 331.915,130C337.207,141.202 343.401,152.55 356.462,165ZM643.538,165C602.97,169.755 576.676,193.476 564.99,225C554.573,224.534 544.858,228.525 535.534,235C574.288,189.978 607.368,141.878 628.81,100C645.059,105.149 657.991,115.394 668.085,130C662.793,141.202 656.599,152.55 643.538,165ZM381.008,194.803C372.274,194.803 365.182,202.025 365.182,210.921C365.182,219.817 372.274,227.039 381.008,227.039C389.743,227.039 396.834,219.817 396.834,210.921C396.834,202.025 389.743,194.803 381.008,194.803ZM618.992,194.803C627.726,194.803 634.818,202.025 634.818,210.921C634.818,219.817 627.726,227.039 618.992,227.039C610.257,227.039 603.166,219.817 603.166,210.921C603.166,202.025 610.257,194.803 618.992,194.803ZM345.457,202.478C339.355,202.478 334.4,207.524 334.4,213.739C334.4,219.954 339.355,225 345.457,225C351.56,225 356.514,219.954 356.514,213.739C356.514,207.524 351.56,202.478 345.457,202.478ZM654.543,202.478C660.645,202.478 665.6,207.524 665.6,213.739C665.6,219.954 660.645,225 654.543,225C648.44,225 643.486,219.954 643.486,213.739C643.486,207.524 648.44,202.478 654.543,202.478Z" style="fill:white;"/>
    </g>
</svg>
