<?xml version="1.0" encoding="UTF-8" standalone="no"?>
<!DOCTYPE svg PUBLIC "-//W3C//DTD SVG 1.1//EN" "http://www.w3.org/Graphics/SVG/1.1/DTD/svg11.dtd">
<svg width="100%" height="100%" viewBox="0 0 1000 1000" version="1.1" xmlns="http://www.w3.org/2000/svg" xmlns:xlink="http://www.w3.org/1999/xlink" xml:space="preserve" xmlns:serif="http://www.serif.com/" style="fill-rule:evenodd;clip-rule:evenodd;stroke-linejoin:round;stroke-miterlimit:2;">
    <g transform="matrix(7.37705,0,0,7.37705,-3188.52,-2423.14)">
        <path d="M499.72,413.999C493.905,413.963 492.253,412.775 490,410C483.383,415.874 477.774,415.518 473,410C467.531,414.329 461.876,414.887 456,411C448.775,416.894 443.059,417.081 439,411C441.861,410.465 444.605,409.65 447,408C446.944,407.37 446.918,406.743 446.92,406.119C449.295,406.343 450.491,405.729 450.557,404C450.623,402.264 449.103,401.725 447.34,401.82C447.514,400.876 447.738,399.936 448,399C457.962,399.655 469.136,397.078 482,390C485.87,392.372 489.612,392.584 490.5,390C490.865,388.939 490.849,387.342 488,387C492.798,384.235 496.606,380.767 500,377.004L500.159,377.18C503.513,380.875 507.277,384.278 512,387C509.151,387.342 509.135,388.939 509.5,390C510.388,392.584 514.13,392.372 518,390C530.864,397.078 542.038,399.655 552,399C552.262,399.936 552.486,400.876 552.66,401.82C550.897,401.725 549.377,402.264 549.443,404C549.509,405.729 550.705,406.343 553.08,406.119C553.082,406.743 553.056,407.37 553,408C555.395,409.65 558.139,410.465 561,411C556.941,417.081 551.225,416.894 544,411C538.124,414.887 532.469,414.329 527,410C522.226,415.518 516.617,415.874 510,410C507.711,412.819 506.042,414 500,414L499.72,413.999ZM499.934,399.487C497.126,398.92 494.313,395.622 493,396.5C491.38,397.583 491.485,405 493,406C494.282,406.846 497.29,403.381 500,402.5L500.064,402.521C502.757,403.435 505.728,406.84 507,406C508.515,405 508.62,397.583 507,396.5C505.677,395.615 502.83,398.972 500,399.5L499.934,399.487ZM544.996,401.647C542.865,400.796 534.858,400.773 532.996,401.647C532.235,402.004 532.157,404.202 532.996,404.168C534.909,404.089 542.913,404.11 544.996,404.168C545.836,404.191 545.777,401.958 544.996,401.647ZM455.004,401.647C457.135,400.796 465.142,400.773 467.004,401.647C467.765,402.004 467.843,404.202 467.004,404.168C465.091,404.089 457.087,404.11 455.004,404.168C454.164,404.191 454.223,401.958 455.004,401.647ZM528,401C525.869,400.149 517.862,400.127 516,401C515.239,401.357 515.16,403.556 516,403.521C517.913,403.443 525.916,403.464 528,403.521C528.84,403.544 528.781,401.312 528,401ZM472,401C474.131,400.149 482.138,400.127 484,401C484.761,401.357 484.84,403.556 484,403.521C482.087,403.443 474.084,403.464 472,403.521C471.16,403.544 471.219,401.312 472,401Z" style="fill:white;"/>
    </g>
</svg>
