<?xml version="1.0" encoding="UTF-8" standalone="no"?>
<!DOCTYPE svg PUBLIC "-//W3C//DTD SVG 1.1//EN" "http://www.w3.org/Graphics/SVG/1.1/DTD/svg11.dtd">
<svg width="100%" height="100%" viewBox="0 0 1000 1000" version="1.1" xmlns="http://www.w3.org/2000/svg" xmlns:xlink="http://www.w3.org/1999/xlink" xml:space="preserve" xmlns:serif="http://www.serif.com/" style="fill-rule:evenodd;clip-rule:evenodd;stroke-linejoin:round;stroke-miterlimit:2;">
    <g transform="matrix(-5.45459,0,0,5.45459,3839.07,-2602.8)">
        <path d="M686.802,532.539C706.213,564.598 690.031,614.72 634,630C593.077,641.16 551.418,620.312 535.944,592.098C520.471,563.884 531.182,528.304 595,510C640.761,496.875 671.408,509.322 685.589,530.63C678.987,533.242 672.76,535.953 664,538C663.653,536.043 665.473,534.285 667,532.5C660.849,534.52 656.542,537.406 658,543C670.316,539.326 679.312,535.881 686.802,532.539ZM576,546.5C594.137,545.649 612.335,544.896 629.5,542.5C627.466,541.778 624.878,541.32 622,541C629.863,540.061 635.437,540.621 639,542.5C637.502,546.271 634.108,549.28 627.5,551C629.15,549.576 631.719,547.645 630.5,546C612.485,548.12 593.73,547.704 576,546.5Z" style="fill:white;"/>
    </g>
</svg>
