<?xml version="1.0" encoding="UTF-8" standalone="no"?>
<!DOCTYPE svg PUBLIC "-//W3C//DTD SVG 1.1//EN" "http://www.w3.org/Graphics/SVG/1.1/DTD/svg11.dtd">
<svg width="100%" height="100%" viewBox="0 0 1000 1000" version="1.1" xmlns="http://www.w3.org/2000/svg" xmlns:xlink="http://www.w3.org/1999/xlink" xml:space="preserve" xmlns:serif="http://www.serif.com/" style="fill-rule:evenodd;clip-rule:evenodd;stroke-linejoin:round;stroke-miterlimit:2;">
    <g transform="matrix(0.973225,0,0,0.973225,13.3874,13.3874)">
        <path d="M840.597,37.62C842.786,37.647 844.715,38.609 846.399,40.438C858.24,53.299 858.016,109.001 851.428,183.304C841.003,300.889 795.324,577.576 795.324,577.576L794.815,581.06C792.033,595.729 792.939,614.318 796.883,636.137C802.121,665.116 823.937,701.277 827.146,738.545C827.764,745.749 826.896,752.708 825.235,759.535C821.776,762.934 822.254,766.613 825.427,770.483L824.756,782.947C825.049,797.259 825.036,811.575 812.282,826.024C817.921,815.82 822.05,805.59 821.748,795.284C819.185,805.181 817.027,816.131 809.298,823.396C804.894,827.536 799.509,835.805 792.706,841.376C794.941,838.111 795.666,834.765 794.809,831.334C793.658,833.776 791.791,835.542 789.062,836.493C790.459,834.196 791.363,831.901 791.777,829.608C789.826,832.293 787.872,834.888 785.904,837.104L786.114,833.209L784.556,833.126C788.16,818.562 795.671,806.261 802.316,793.457C790.11,792.197 789.926,783.741 794.058,772.701C793.427,781.829 794.037,789.87 804.084,789.646C806.463,780.421 810.205,771.535 814.899,762.885C816.962,753.646 819.347,744.575 822.598,735.956C811.293,693.676 799.331,669.726 794.226,651.618C785.238,619.739 787.528,596.433 789.696,580.447L789.824,579.508C808.243,470.602 832.713,302.959 844.506,183.488C851.294,114.719 852.659,62.023 842.161,45.92C839.694,42.137 834.929,44.452 828.909,52.96L828.762,52.829C713.11,214.004 596.936,374.782 484.526,538.365C442.382,617.88 418.553,688.588 395.374,744.331C361.095,826.772 328.017,877.064 303.478,911.894C303.989,922.658 300.917,933.658 293.982,942.967C278.075,964.317 247.827,968.737 226.476,952.83C208.059,939.108 202.24,914.716 211.199,894.568L205.808,890.551C203.633,893.006 201.427,895.414 199.214,897.811C195.26,907.083 189.668,914.59 182.435,920.331C175.408,927.419 169.375,935.246 164.724,944.103C162.758,954.151 154.584,945.634 151.652,943.368C148.82,941.178 139.121,934.811 147.208,931.053C154.463,924.557 160.717,916.864 166.17,908.213C170.155,899.508 175.385,891.731 182.949,885.693L210.901,848.175C208.807,845.754 206.93,843.05 205.271,840.063C219.144,824.586 233.601,807.031 248.788,786.877C266.061,763.954 282.163,739.256 301.196,718.914C312.593,706.732 324.685,695.577 337.71,685.804L337.978,686.004C495.995,472.731 656.571,260.158 818.725,48.017C662.05,263.508 504.427,478.158 345.217,691.397L346.468,692.329C340.712,707.585 332.075,724.589 320.761,743.219C308.839,762.85 292.929,780.846 276.313,807.385C261.627,823.723 247.948,842.058 235.298,862.435C231.934,861.656 228.78,860.604 225.838,859.278L227.178,860.276C225.124,864.337 222.892,868.127 220.529,871.713L226.013,875.799C242.697,863.053 266.454,862.3 284.119,875.461C294.092,882.891 300.371,893.45 302.609,904.769C331.971,856.407 365.736,806.276 387.095,747.891C413.33,676.18 443.351,604.042 480.772,535.568C587.601,375.114 824.435,48.983 824.435,48.983C830.887,41.222 836.208,37.611 840.52,37.62L840.597,37.62Z" style="fill:white;"/>
    </g>
</svg>
