<?xml version="1.0" encoding="UTF-8" standalone="no"?>
<!DOCTYPE svg PUBLIC "-//W3C//DTD SVG 1.1//EN" "http://www.w3.org/Graphics/SVG/1.1/DTD/svg11.dtd">
<svg width="100%" height="100%" viewBox="0 0 1000 1000" version="1.1" xmlns="http://www.w3.org/2000/svg" xmlns:xlink="http://www.w3.org/1999/xlink" xml:space="preserve" xmlns:serif="http://www.serif.com/" style="fill-rule:evenodd;clip-rule:evenodd;stroke-linejoin:round;stroke-miterlimit:2;">
    <g transform="matrix(1.0319,0,0,1.0319,-15.0992,-23.7335)">
        <path d="M905.168,396.727C930.452,369.134 928.578,326.205 900.985,300.921L669.994,89.257C642.402,63.973 599.473,65.847 574.189,93.44L93.186,618.362C67.902,645.955 69.776,688.884 97.369,714.168L328.359,925.832C355.952,951.116 398.881,949.242 424.165,921.649L905.168,396.727ZM856.508,411.101L565.005,143.988L143.492,603.988L434.995,871.101L856.508,411.101ZM252.582,740C274.659,740 292.582,757.923 292.582,780C292.582,802.077 274.659,820 252.582,820C230.505,820 212.582,802.077 212.582,780C212.582,757.923 230.505,740 252.582,740ZM701.083,230.039C697.746,226.981 692.553,227.208 689.494,230.545C686.435,233.883 686.662,239.076 690,242.135L751.311,298.316C754.649,301.375 759.842,301.148 762.901,297.81C765.959,294.473 765.733,289.279 762.395,286.221L701.083,230.039ZM746.441,235.078C750.788,235.078 754.317,238.607 754.317,242.954C754.317,247.301 750.788,250.83 746.441,250.83C742.094,250.83 738.565,247.301 738.565,242.954C738.565,238.607 742.094,235.078 746.441,235.078ZM676,207.3C680.526,207.3 684.2,210.974 684.2,215.5C684.2,220.026 680.526,223.7 676,223.7C671.474,223.7 667.8,220.026 667.8,215.5C667.8,210.974 671.474,207.3 676,207.3Z" style="fill:white;"/>
    </g>
</svg>
