<?xml version="1.0" encoding="UTF-8" standalone="no"?>
<!DOCTYPE svg PUBLIC "-//W3C//DTD SVG 1.1//EN" "http://www.w3.org/Graphics/SVG/1.1/DTD/svg11.dtd">
<svg width="100%" height="100%" viewBox="0 0 1000 1000" version="1.1" xmlns="http://www.w3.org/2000/svg" xmlns:xlink="http://www.w3.org/1999/xlink" xml:space="preserve" xmlns:serif="http://www.serif.com/" style="fill-rule:evenodd;clip-rule:evenodd;stroke-linejoin:round;stroke-miterlimit:2;">
    <g transform="matrix(1.2,0,0,1.2,-124,-237.035)">
        <path d="M738.925,901.579C677.315,943.504 601.69,968.217 520,968.217C313.032,968.217 145,809.585 145,614.196C145,418.806 313.032,260.175 520,260.175C726.968,260.175 895,418.806 895,614.196C895,708.686 855.703,794.58 791.716,858.085L817,933L738.925,901.579ZM770.611,850.136C834.487,789.668 874,706.254 874,614.196C874,429.748 715.378,280 520,280C324.622,280 166,429.748 166,614.196C166,798.643 324.622,948.392 520,948.392C597.878,948.392 671.915,922.599 730.414,882.288L752.857,892L794,910L778.039,870.983L770.611,850.136Z" style="fill:white;"/>
    </g>
</svg>
