<?xml version="1.0" encoding="UTF-8" standalone="no"?>
<!DOCTYPE svg PUBLIC "-//W3C//DTD SVG 1.1//EN" "http://www.w3.org/Graphics/SVG/1.1/DTD/svg11.dtd">
<svg width="100%" height="100%" viewBox="0 0 1000 1000" version="1.1" xmlns="http://www.w3.org/2000/svg" xmlns:xlink="http://www.w3.org/1999/xlink" xml:space="preserve" xmlns:serif="http://www.serif.com/" style="fill-rule:evenodd;clip-rule:evenodd;stroke-linejoin:round;stroke-miterlimit:2;">
    <g transform="matrix(1.63339,0,0,1.63339,-128.04,17.3321)">
        <path d="M384.5,20C536.553,20 660,143.447 660,295.5C660,447.553 536.553,571 384.5,571C232.447,571 109,447.553 109,295.5C109,143.447 232.447,20 384.5,20ZM384.5,43.5C523.583,43.5 636.5,156.417 636.5,295.5C636.5,434.583 523.583,547.5 384.5,547.5C245.417,547.5 132.5,434.583 132.5,295.5C132.5,156.417 245.417,43.5 384.5,43.5ZM384.5,51.75C519.029,51.75 628.25,160.971 628.25,295.5C628.25,430.029 519.029,539.25 384.5,539.25C249.971,539.25 140.75,430.029 140.75,295.5C140.75,160.971 249.971,51.75 384.5,51.75ZM384.5,177.25C449.764,177.25 502.75,230.236 502.75,295.5C502.75,360.764 449.764,413.75 384.5,413.75C319.236,413.75 266.25,360.764 266.25,295.5C266.25,230.236 319.236,177.25 384.5,177.25ZM384.5,182.75C446.728,182.75 497.25,233.272 497.25,295.5C497.25,357.728 446.728,408.25 384.5,408.25C322.272,408.25 271.75,357.728 271.75,295.5C271.75,233.272 322.272,182.75 384.5,182.75ZM384.5,205.5C434.172,205.5 474.5,245.828 474.5,295.5C474.5,345.172 434.172,385.5 384.5,385.5C334.828,385.5 294.5,345.172 294.5,295.5C294.5,245.828 334.828,205.5 384.5,205.5ZM384.5,287.75C388.777,287.75 392.25,291.223 392.25,295.5C392.25,299.777 388.777,303.25 384.5,303.25C380.223,303.25 376.75,299.777 376.75,295.5C376.75,291.223 380.223,287.75 384.5,287.75Z" style="fill:white;"/>
    </g>
</svg>
