<?xml version="1.0" encoding="UTF-8" standalone="no"?>
<!DOCTYPE svg PUBLIC "-//W3C//DTD SVG 1.1//EN" "http://www.w3.org/Graphics/SVG/1.1/DTD/svg11.dtd">
<svg width="100%" height="100%" viewBox="0 0 1000 1000" version="1.1" xmlns="http://www.w3.org/2000/svg" xmlns:xlink="http://www.w3.org/1999/xlink" xml:space="preserve" xmlns:serif="http://www.serif.com/" style="fill-rule:evenodd;clip-rule:evenodd;stroke-linejoin:round;stroke-miterlimit:2;">
    <g transform="matrix(3.91304,0,0,3.91584,-1554.35,-1472.19)">
        <path d="M464.759,526.36C470.058,524.036 474.835,522.334 478.973,521.4C479.129,521.365 479.273,521.291 479.391,521.185C481.986,518.867 484.3,517.134 485.965,516.255C486.121,516.173 486.271,516.098 486.414,516.032C486.701,515.899 487.04,515.805 487.27,515.751C487.233,515.833 487.18,515.928 487.124,516.039C486.857,516.564 486.416,517.241 485.876,518.004C484.81,519.511 483.378,521.327 482.068,522.985L428.031,574.402C428.031,576.416 427.358,577.664 425.203,577.23C422.095,582.987 418.241,584.876 414.116,585.364C420.152,580.989 421.604,578.009 419.949,576.445C418.387,574.968 414.397,576.021 410,582.533C411.379,577.471 413.292,572.826 419.546,571.573C418.501,568.466 420.161,567.988 422.728,568.391L464.759,526.36ZM573.51,530.4L609.344,563.951L613.276,567.797L618.433,569.711L621.262,572.539L623.687,576.379L630.454,580.317L637.22,580.013L640,578.549L639.646,578.196L637.028,578.693L631.868,576.782L628.023,572.577L627.626,571.832L629.04,568.296L627.979,565.822L622.322,565.114L619.606,560.415L615.958,556.629L584.408,522.305L579.097,526.931C578.961,527.049 578.793,527.126 578.614,527.152C578.614,527.152 576.449,527.461 576.449,527.461L573.51,530.4ZM510.015,467.175C511.537,467.785 513.009,468.461 514.429,469.189C510.509,471.797 506.22,474.18 501.534,476.322C501.208,476.471 500.995,476.793 500.987,477.152C500.96,478.271 500.676,479.126 500.161,479.77C499.35,480.786 498.02,481.273 496.454,481.555C496.054,481.627 495.747,481.949 495.692,482.351C495.5,483.76 495.024,484.87 494.183,485.63C493.335,486.395 492.135,486.789 490.577,486.844C490.25,486.856 489.952,487.037 489.792,487.323C489.632,487.609 489.633,487.957 489.794,488.242C490.207,488.972 490.355,489.621 490.27,490.219C490.138,491.15 489.488,491.927 488.65,492.67C485.152,493.673 483.046,495.266 482.308,497.311C481.958,498.284 481.894,499.372 482.15,500.58C481.488,501.405 481.544,502.355 481.923,503.24C482.08,503.606 482.303,503.958 482.535,504.268C480.586,504.862 477.07,506.05 474.236,507.643C473.35,508.141 472.533,508.683 471.837,509.258C468.944,509.134 466.514,509.383 463.955,509.916C447.501,513.34 432.824,524.773 432.981,538.339C424.266,546.575 419.403,549.682 415.303,551.774C418.102,547.143 422.24,541.584 424.845,534.446C432.546,513.339 452.342,497.452 473.468,497.852C475.854,497.897 478.623,497.217 481.771,495.206C482.836,493.589 482.312,491.932 481.064,490.256C484.184,488.719 486.882,486.734 487.782,482.831C491.817,481.8 493.437,479.597 490.964,475.407C497.645,473.388 504.054,470.775 510.015,467.175ZM519.886,472.391C520.163,472.574 520.436,472.759 520.708,472.946C512.441,482.872 505.181,492.947 499.341,503.228C499.094,503.663 499.232,504.216 499.655,504.483C500.078,504.751 500.637,504.639 500.924,504.229C503.431,500.646 505.731,498.059 507.827,496.586C509.072,495.712 510.218,495.241 511.287,495.268C512.39,495.295 513.365,495.879 514.254,496.979C513.843,500.436 513.908,504.072 516.42,508.641C516.152,511.658 515.191,514.559 515.326,517.447C515.714,525.741 512.578,530.643 510.409,536.571C510.97,532.083 511.524,527.596 508.288,523.843C507.31,520.096 507.211,517.158 507.581,514.651C504.323,514.023 505.646,520.757 506.133,523.81C507.785,534.172 504.664,542.275 496.621,548.239C497.912,543.859 500.519,541.467 498.035,532.682C497.273,529.987 496.435,522.382 491.553,525.022C488.152,526.861 485.844,524.046 485.618,521.487C486.264,520.65 486.881,519.83 487.407,519.087C488.119,518.08 488.67,517.199 488.944,516.575C489.118,516.18 489.193,515.848 489.197,515.604C489.21,514.896 488.944,514.437 488.57,514.151C488.232,513.894 487.743,513.752 487.096,513.848C486.391,513.953 485.381,514.381 484.166,515.126C482.563,516.11 480.542,517.657 478.323,519.626C474.148,520.59 469.342,522.305 464.024,524.636C463.108,524.888 462.188,525.23 461.265,525.611C464.739,521.41 468.566,517.719 472.579,514.298C472.943,512.885 473.296,511.486 473.358,510.416C474.354,509.665 475.612,508.989 476.9,508.385C480.531,506.685 484.482,505.659 484.482,505.659C484.821,505.571 485.083,505.301 485.16,504.96C485.238,504.618 485.119,504.262 484.851,504.036C484.851,504.036 484.252,503.529 483.84,502.867C483.59,502.463 483.323,501.964 483.782,501.586C484.069,501.349 484.189,500.966 484.088,500.608C483.191,497.43 485.19,495.486 489.548,494.361C489.547,494.361 489.01,495.965 489.01,495.965C488.873,496.374 489.033,496.824 489.399,497.055C489.764,497.286 490.239,497.237 490.55,496.937C501.606,486.266 511.235,478.374 519.886,472.391ZM580.48,511.937L580.48,517.385C580.48,517.598 580.407,517.804 580.274,517.97C580.274,517.97 577.55,521.375 577.55,521.375L577.25,522.277C577.18,522.486 577.039,522.664 576.852,522.779L567.659,528.436L565.68,529.568L565.4,531.527L570.002,531.256L575.344,525.914C575.487,525.771 575.673,525.678 575.874,525.649C575.874,525.649 578.075,525.335 578.075,525.335L585.561,518.815C592.018,509.41 600.437,505.505 609.948,504.657C606.592,503.861 604.347,502.658 597.22,503.243C595.811,504.022 594.373,504.715 592.797,505.183C590.392,505.899 588.366,507.384 586.26,508.546L582.017,509.96L580.48,511.937ZM569.544,525.075C561.05,517.608 551.551,510.806 540.896,504.765C540.554,504.571 540.37,504.185 540.434,503.797C540.498,503.409 540.797,503.103 541.183,503.029C543.142,502.654 544.578,501.791 545.386,500.464C546.662,498.369 546.387,495.263 544.573,491.442C537.867,477.326 523.145,462.525 497.363,458.205C497.144,458.169 496.946,458.056 496.803,457.887C487.356,446.733 476.417,437.508 463.177,431.258C462.777,431.07 462.564,430.628 462.664,430.198C462.764,429.768 463.151,429.466 463.592,429.473C468.735,429.557 474.264,429.93 484.78,434.142C484.924,434.2 485.052,434.293 485.152,434.412C489.436,439.561 493.515,443.353 497.383,445.626C502.907,448.872 507.963,448.934 512.481,445.241C512.745,445.025 513.105,444.97 513.421,445.096C516.441,446.299 519.68,447.218 523.665,447.151C523.962,447.146 524.244,447.282 524.425,447.517C524.605,447.753 524.664,448.06 524.582,448.346C522.677,455.021 527.054,458.626 533.253,461.373C533.536,461.499 533.739,461.755 533.795,462.059C534.876,467.882 540.569,471.547 547.955,474.507C548.212,474.609 548.41,474.82 548.497,475.082C549.649,478.553 552.12,482.02 556.772,485.523C557.017,485.708 557.157,486.001 557.145,486.309C556.932,491.768 560.671,494.848 565.167,497.484C565.407,497.625 565.572,497.864 565.618,498.138C567.14,507.242 571.374,513.689 578.031,517.773L578.605,517.056L578.605,512.611C573.311,509.49 570.911,505.813 575.653,500.768C567.478,496.871 562.855,492.763 568.582,488.04C560.88,484.485 554.009,480.806 556.915,475.665C547.175,471.073 539.167,466.36 543.044,460.817C533.93,459.216 531.776,453.312 532.439,451.351C532.766,450.384 534.255,449.748 537.116,449.502L516.61,439.603C504.046,446.719 494.238,438.147 495.505,434.054C495.788,433.142 497.05,432.101 499.336,430.815C478.393,424.791 458.59,422.226 439.535,421.925C471.078,437.675 486.632,450.434 495.02,461.854C521.658,463.321 539.313,486.611 540.949,493.641C541.833,497.439 536.972,502.487 527.502,500.836L566.846,526.735L569.544,525.075ZM571.213,524.048L575.579,521.361L575.825,520.624C575.86,520.519 575.913,520.421 575.982,520.335L576.851,519.248C569.966,514.953 565.513,508.274 563.843,498.879C559.035,495.999 555.247,492.499 555.261,486.729C550.648,483.169 548.128,479.615 546.861,476.087C539.18,472.952 533.423,468.889 532.053,462.889C525.507,459.9 521.113,455.849 522.49,449.018C518.98,448.914 516.01,448.104 513.235,447.036C508.187,450.909 502.564,450.845 496.433,447.243C492.461,444.908 488.259,441.049 483.863,435.795C476.664,432.93 471.896,431.929 467.954,431.562C479.577,437.772 489.405,446.304 498.011,456.413C524.357,460.935 539.389,476.159 546.266,490.638C548.435,495.204 548.512,498.936 546.988,501.439C546.257,502.638 545.158,503.584 543.703,504.216C553.893,510.154 563.02,516.794 571.213,524.048ZM528.134,478.965C528.911,479.699 529.65,480.437 530.351,481.171C530.562,481.391 530.768,481.61 530.972,481.829C530.041,483.37 529.197,485 528.44,486.72C523.237,488.256 519.066,491.446 515.382,495.416C514.831,494.808 514.25,494.343 513.643,494.014C516.424,488.039 519.662,483.107 526.561,481.262C526.818,481.194 527.033,481.019 527.154,480.783C527.469,480.167 527.795,479.561 528.134,478.965ZM522.24,474.036C516.386,481.057 511.04,488.151 506.352,495.341C506.485,495.241 506.618,495.144 506.749,495.052C508.388,493.901 509.926,493.359 511.334,493.394C511.506,493.398 511.677,493.41 511.846,493.432C514.841,486.961 518.368,481.67 525.673,479.564C526.009,478.92 526.357,478.288 526.719,477.666C525.328,476.428 523.833,475.208 522.24,474.036ZM516.297,470.193C512.217,472.976 507.736,475.515 502.827,477.79C502.702,479.107 502.272,480.133 501.626,480.941C500.671,482.137 499.21,482.861 497.438,483.267C497.114,484.859 496.445,486.113 495.44,487.021C494.561,487.814 493.416,488.353 491.975,488.589C492.173,489.26 492.211,489.889 492.127,490.482C492.037,491.116 491.801,491.715 491.45,492.283C491.531,492.332 491.605,492.394 491.669,492.467C491.814,492.633 491.894,492.841 491.9,493.055C501.671,483.826 510.321,476.784 518.175,471.297C517.561,470.92 516.935,470.551 516.297,470.193ZM532.081,444.929C533.28,442.952 534.424,440.857 535.511,438.637C560.785,424.676 585.31,419.352 609.051,423.081C585.967,430.404 567.138,443.474 553.896,464.093C551.225,465.008 548.714,466.09 546.372,467.346C546.3,467.284 546.229,467.222 546.159,467.159C544.754,465.903 543.845,464.643 544.047,463.29C546.211,462.14 548.526,461.168 550.996,460.391C551.212,460.323 551.397,460.178 551.515,459.984C560.073,445.918 572.283,436.684 585.816,429.205C586.203,428.991 586.388,428.535 586.26,428.112C586.132,427.689 585.725,427.413 585.284,427.45C571.781,428.577 556.824,433.01 540.798,439.897C540.598,439.983 540.434,440.136 540.335,440.329C539.149,442.632 537.858,444.87 536.454,447.04L532.081,444.929ZM538.156,447.862L544.292,450.824L537.281,451.425C536.622,451.482 536.047,451.559 535.554,451.661C535.19,452.159 534.82,452.654 534.443,453.145C534.561,453.436 534.724,453.752 534.921,454.084C536.081,456.039 538.684,458.092 543.378,458.916L546.362,459.441L545.692,460.399C547.103,459.768 548.571,459.203 550.096,458.71C557.984,445.883 568.844,436.993 580.992,429.803C568.943,431.414 555.809,435.51 541.847,441.487C540.712,443.67 539.483,445.797 538.156,447.862Z" style="fill:white;"/>
    </g>
</svg>
