<?xml version="1.0" encoding="UTF-8" standalone="no"?>
<!DOCTYPE svg PUBLIC "-//W3C//DTD SVG 1.1//EN" "http://www.w3.org/Graphics/SVG/1.1/DTD/svg11.dtd">
<svg width="100%" height="100%" viewBox="0 0 1000 1000" version="1.1" xmlns="http://www.w3.org/2000/svg" xmlns:xlink="http://www.w3.org/1999/xlink" xml:space="preserve" xmlns:serif="http://www.serif.com/" style="fill-rule:evenodd;clip-rule:evenodd;stroke-linejoin:round;stroke-miterlimit:2;">
    <g transform="matrix(2.8351,0,0,2.50696,-917.552,-203.203)">
        <path d="M499.313,180.168C441.068,194.508 431.1,221.199 420,260C386.316,377.752 455.939,426.297 500,460C452.555,444.121 416.33,419.629 388.304,385.754C369.158,362.612 370.789,280.973 385.129,222.657C389.062,221.882 393.026,220.54 397,219C393.087,219.762 389.338,220.155 385.748,220.184C385.766,220.115 385.783,220.045 385.801,219.975C363.397,209.607 369.163,154.344 390.654,139.401C398.577,133.893 389.57,111.147 393.736,101C399.465,114.978 413.666,138.673 410,149.041C408.753,152.566 416.871,166.87 420,175C423.097,189.839 421.014,200.996 414.719,209.159C414.669,209.437 414.618,209.718 414.565,210C423.161,197.25 428.76,175.151 418.266,159.897C439.314,140.933 468.357,133.579 500,130L500.741,130.085C532.095,133.695 560.85,141.081 581.734,159.897C571.24,175.151 576.839,197.25 585.435,210C585.382,209.718 585.331,209.437 585.281,209.159C578.986,200.996 576.903,189.839 580,175C583.129,166.87 591.247,152.566 590,149.041C586.334,138.673 600.535,114.978 606.264,101C610.43,111.147 601.423,133.893 609.346,139.401C630.837,154.344 636.603,209.607 614.199,219.975C614.217,220.045 614.234,220.115 614.252,220.184C610.662,220.155 606.913,219.762 603,219C606.974,220.54 610.938,221.882 614.871,222.657C629.211,280.973 630.842,362.612 611.696,385.754C583.67,419.629 547.445,444.121 500,460C544.061,426.297 613.684,377.752 580,260C568.857,221.047 558.854,194.299 500,180L499.313,180.168Z" style="fill:white;"/>
    </g>
</svg>
