<?xml version="1.0" encoding="UTF-8" standalone="no"?>
<!DOCTYPE svg PUBLIC "-//W3C//DTD SVG 1.1//EN" "http://www.w3.org/Graphics/SVG/1.1/DTD/svg11.dtd">
<svg width="100%" height="100%" viewBox="0 0 1000 1000" version="1.1" xmlns="http://www.w3.org/2000/svg" xmlns:xlink="http://www.w3.org/1999/xlink" xml:space="preserve" xmlns:serif="http://www.serif.com/" style="fill-rule:evenodd;clip-rule:evenodd;stroke-linejoin:round;stroke-miterlimit:2;">
    <g transform="matrix(1.20506,0,0,1.20506,-101.837,-85.6105)">
        <path d="M126,137C223.185,288.069 252.565,318.841 256,332C163.904,518.723 229.531,675.005 329.86,760C450.531,862.228 635.86,859.724 760,753.219C851.118,675.045 914.585,505.314 840,358.98C792.66,266.1 705.628,183.967 552,169C410,152.343 268,142.431 126,137ZM342,585L341,581L297,674L427,632L428,774L535,652L650,773L651,632L776,666L738,587L734,587L766,658L644,622L644,757L535,643L433,761L431,625L306,666L342,585ZM264,396C326,432.196 388,455.604 450,470C426.867,526.101 363.312,534.57 317.32,520C279.52,508.026 256.825,466.295 264,396ZM805,400C728.214,454.268 667.955,475.451 620,472C650.879,525.281 712.345,535.489 764.16,514.712C797.383,501.389 814.916,461.635 805,400ZM563,493C558.379,501.343 550.348,503.822 537,504.109C524.001,504.389 514.12,502.247 512,494C528.873,483.638 545.887,484.423 563,493Z" style="fill:white;"/>
    </g>
</svg>
