<?xml version="1.0" encoding="UTF-8" standalone="no"?>
<!DOCTYPE svg PUBLIC "-//W3C//DTD SVG 1.1//EN" "http://www.w3.org/Graphics/SVG/1.1/DTD/svg11.dtd">
<svg width="100%" height="100%" viewBox="0 0 1000 1000" version="1.1" xmlns="http://www.w3.org/2000/svg" xmlns:xlink="http://www.w3.org/1999/xlink" xml:space="preserve" xmlns:serif="http://www.serif.com/" style="fill-rule:evenodd;clip-rule:evenodd;stroke-linejoin:round;stroke-miterlimit:2;">
    <path d="M372.737,695.317C342.421,693.569 319.284,692.501 304.112,686.41C298.145,717.428 293.279,749.095 289.097,781.166C291.67,774.651 293.982,768.132 295.415,761.6C297.507,777.332 303.4,788.671 311.411,797.563L311.773,771.45C312.399,792.35 316.203,802.88 322.291,805.962C322.114,795.421 322.28,784.884 322.73,774.352C327.115,784.61 330.6,795.68 333.267,807.489L334.718,802.011C336.077,790.537 335.749,778.445 335.214,766.277C336.727,777.411 338.248,788.537 338.86,800.694C344.474,797.864 346.82,781.86 348.977,765.094C348.641,772.992 348.178,780.952 348.652,788.458L356.899,788.573C357.753,782.17 358.806,775.769 359.915,769.37L359.781,778.99C367.955,779.658 367.724,763.29 369.898,743.39L373.601,773.684C374.154,748.577 374.604,720.704 372.737,695.317ZM742.45,678.428C717.548,683.041 692.593,686.919 667.565,689.791C661.919,718.026 656.207,746.01 652.542,781.683L658.02,783.134L662.544,754.329C663.633,769.982 664.954,785.308 668.824,797.03C673.192,783.841 673.512,760.286 673.788,736.615C674.902,755.363 676.016,774.112 677.128,793.022C683.446,795.421 691.057,797.004 700.435,797.47C701.157,785.811 701.271,764.759 701.218,741.12C702.585,758.615 703.87,776.086 704.615,793.404L710.17,789.357C715.007,771.745 717.811,756.476 720.459,741.388C719.443,757.005 718.396,772.62 715.687,788.059C721.335,784.158 723.923,774.492 724.315,760.686C725.471,767.33 725.673,774.837 723.99,784.05C731.407,788.44 736.767,764.177 741.266,727.93C740.043,743.566 738.242,759.142 735.119,774.583C746.832,768.185 753.456,747.7 742.45,678.428ZM334.75,703.25C349.514,703.25 361.5,715.236 361.5,730C361.5,744.764 349.514,756.75 334.75,756.75C319.986,756.75 308,744.764 308,730C308,715.236 319.986,703.25 334.75,703.25ZM442.531,462.598L443.333,503.849C334.334,502.334 289.249,497.683 288.289,566.784C287.012,658.744 350.043,629.019 546.028,631.742C701.871,633.907 783.174,615.526 784.75,552.581C785.697,514.753 767.436,491.759 743.69,483.278C748.918,460.165 754.141,437.35 759.361,414.764C811.919,442.057 840.739,452.637 839.325,553.159C837.546,679.68 695.289,690.543 545.241,688.459C296.952,685.009 230.167,705.737 232.019,572.394C233.047,498.394 248.982,453.083 442.531,462.598ZM341.419,583.789C336.887,589.922 329.569,593.859 321.37,593.745C307.857,593.558 297.039,582.434 297.227,568.921C297.414,555.408 308.538,544.59 322.051,544.777C332.239,544.919 340.896,551.278 344.459,560.191L729.346,554.745L729.348,554.586C729.62,541.147 740.709,530.414 754.17,530.601C767.683,530.789 778.501,541.912 778.313,555.425C778.126,568.938 767.002,579.757 753.489,579.569C743.352,579.428 734.731,573.133 731.136,564.292L705.142,564.645L707.082,588.752C722.43,590.742 727.79,609.524 727.79,609.524C713.499,616.436 698.308,619.802 682.283,619.889C682.283,619.889 687.421,589.067 704.124,588.588L701.05,564.701L346.195,569.531L346.194,569.602C346.15,572.776 345.503,575.801 344.363,578.569L345.637,594.402C360.63,598.033 366.005,627.867 366.005,627.867C363.607,630.957 325.644,624.836 320.373,623.974C320.373,623.974 325.604,593.859 342.738,594.042L341.419,583.789ZM84.742,193.321C47.471,169.991 29.783,658.625 85.708,618.474C149.837,505.864 254.513,446.519 443.001,455.583C444.601,421.747 447.554,387.93 453.66,354.156C239.332,342.481 143.103,276.592 84.742,193.321ZM341.045,567.987L339.348,567.699L340.267,574.846C337.839,582.92 330.287,588.758 321.441,588.635C310.749,588.486 302.188,579.685 302.337,568.992C302.486,558.3 311.287,549.739 321.98,549.888C332.152,550.029 340.395,558.003 341.045,567.987ZM754.099,535.711C764.791,535.86 773.352,544.661 773.203,555.354C773.054,566.047 764.253,574.607 753.56,574.458C742.868,574.31 734.307,565.508 734.456,554.816C734.605,544.123 743.406,535.563 754.099,535.711ZM461.353,350.147C451.92,405.584 446.807,461.685 449.995,519.062C540.299,520.773 632.715,520.081 726.311,518.046L751.499,405.394C654.881,379.914 558.193,359.605 461.353,350.147ZM820.701,448.179C832.954,463.845 838.332,480.333 842.073,497.017C846.964,496.814 852.014,496.421 857.21,495.852L857.268,491.729C864.593,492.2 871.922,492.314 879.258,492.035L879.181,497.532L888.802,497.666L890.195,496.311C901.235,503.652 913.896,508.989 928.468,511.963C932.063,514.337 936.151,515.798 940.78,516.258C945.422,494.193 948.118,470.564 950,446.28C942.807,443.739 938.202,445.683 934.831,449.765C920.464,447.315 910.334,452.659 901.687,460.73L892.066,460.596L892.124,456.473C887.597,457.265 883.074,458.063 879.678,461.799C872.562,461.129 865.666,460.977 859.062,461.512L859.1,458.763C846.466,454.277 833.657,450.8 820.701,448.179Z" style="fill:white;"/>
</svg>
