<?xml version="1.0" encoding="UTF-8" standalone="no"?>
<!DOCTYPE svg PUBLIC "-//W3C//DTD SVG 1.1//EN" "http://www.w3.org/Graphics/SVG/1.1/DTD/svg11.dtd">
<svg width="100%" height="100%" viewBox="0 0 1000 1000" version="1.1" xmlns="http://www.w3.org/2000/svg" xmlns:xlink="http://www.w3.org/1999/xlink" xml:space="preserve" xmlns:serif="http://www.serif.com/" style="fill-rule:evenodd;clip-rule:evenodd;stroke-linejoin:round;stroke-miterlimit:2;">
    <g transform="matrix(1.55134,0,0,1.55134,-298.939,-300.296)">
        <path d="M573.08,389.418C573.703,389.62 574.312,389.814 574.906,389.999C583.297,392.607 591.23,397.868 598.592,404.152C608.515,412.622 617.399,422.971 625.241,429.697C629.422,433.284 633.313,437.127 636.911,441.226L805.072,450.75L665.91,564.415C664.184,574.852 661.53,584.754 657.96,594.122C655.126,601.555 651.718,608.544 647.736,615.09L694.275,791.75L543.258,694.581C524.761,700.898 503.74,706.99 486.669,706.99C482.984,706.99 478.024,706.797 471.788,706.403C470.761,706.338 469.722,706.273 468.671,706.209L335.725,791.75L361.68,693.228L361.68,656.577C361.68,654.017 363.079,651.662 365.326,650.438C368.059,648.95 370.967,647.56 374.05,646.273L390.032,585.605L224.928,450.75L395.512,441.089L395.512,434.903C390.896,433.821 386.39,432.569 381.993,431.149C375.665,429.105 370.15,426.846 365.441,424.393C363.13,423.19 361.68,420.8 361.68,418.194L361.68,378.209C361.68,374.349 364.809,371.219 368.67,371.219C368.67,371.219 416.53,371.219 416.53,371.219C421.136,371.219 426.826,371.093 433.6,370.842C440.444,370.588 447.562,370.271 454.954,369.891C458.246,369.722 461.497,369.553 464.708,369.383L515,240L573.08,389.418ZM368.67,696.562L368.67,656.577C373.346,654.03 378.572,651.801 384.348,649.891C390.124,647.981 396.175,646.517 402.502,645.498L402.502,429.273C396.175,427.999 390.055,426.408 384.142,424.497C378.228,422.587 373.071,420.486 368.67,418.194L368.67,378.209L416.53,378.209C421.206,378.209 426.982,378.082 433.858,377.827C440.735,377.572 447.886,377.254 455.313,376.872C462.739,376.49 469.959,376.108 476.973,375.726C483.987,375.344 489.97,375.153 494.921,375.153C518.851,375.153 553.989,390.816 572.831,396.673C591.672,402.531 607.625,423.797 620.691,435.003C633.756,446.209 643.795,460.089 650.809,476.644C657.823,493.198 661.33,512.299 661.33,533.947C661.33,555.086 658.03,574.314 651.428,591.633C644.827,608.951 634.925,623.723 621.722,635.947C608.519,648.172 591.81,670.393 571.593,677.142C551.376,683.891 513.9,700 486.669,700C483.093,700 478.28,699.809 472.229,699.427C466.177,699.045 459.714,698.663 452.837,698.281C445.961,697.899 439.084,697.517 432.208,697.135C425.331,696.753 419.28,696.562 414.054,696.562L368.67,696.562ZM495.058,442.578C490.107,442.578 485.156,442.705 480.205,442.96C475.254,443.214 470.991,443.596 467.415,444.106L467.415,631.047C468.515,631.302 470.441,631.493 473.191,631.62C475.942,631.748 478.761,631.875 481.649,632.002C484.537,632.13 487.357,632.257 490.107,632.384C492.858,632.512 494.921,632.575 496.296,632.575C512.249,632.575 543.62,614.111 550.772,603.669C557.923,593.227 563.149,593.033 566.45,579.026C569.751,565.018 571.401,550.119 571.401,534.329C571.401,520.322 569.682,506.823 566.244,493.835C562.805,480.846 557.511,481.289 550.359,471.102C543.208,460.915 511.012,442.578 495.058,442.578Z" style="fill:white;"/>
    </g>
</svg>
