<?xml version="1.0" encoding="UTF-8" standalone="no"?>
<!DOCTYPE svg PUBLIC "-//W3C//DTD SVG 1.1//EN" "http://www.w3.org/Graphics/SVG/1.1/DTD/svg11.dtd">
<svg width="100%" height="100%" viewBox="0 0 1000 1000" version="1.1" xmlns="http://www.w3.org/2000/svg" xmlns:xlink="http://www.w3.org/1999/xlink" xml:space="preserve" xmlns:serif="http://www.serif.com/" style="fill-rule:evenodd;clip-rule:evenodd;stroke-linejoin:round;stroke-miterlimit:2;">
    <g transform="matrix(2.86611,0,0,2.86611,-933.056,-884.505)">
        <path d="M500,526.791L496.932,525.33L496.932,549.465L496.947,549.444C497.111,549.22 497.294,549.011 497.497,548.821C498.195,548.167 499.085,547.771 500,547.522L500.171,547.571C501.025,547.821 501.848,548.208 502.503,548.821C502.706,549.011 502.889,549.22 503.053,549.444L503.068,549.465L503.068,525.33L500,526.791ZM499.594,584.59C498.655,583.994 497.767,583.395 496.932,582.792L496.932,585.678C497.641,586.04 498.344,586.399 499.039,586.754L499.931,587.208L500,587.12L500.069,587.208L500.961,586.754C501.656,586.399 502.359,586.04 503.068,585.678L503.068,582.792C502.114,583.481 501.09,584.165 500,584.845L499.594,584.59ZM510.444,575.106C509.427,577.052 507.77,578.962 505.568,580.839L505.568,584.396C507.17,583.572 508.798,582.731 510.444,581.878L510.444,575.106ZM489.556,575.106C490.573,577.052 492.23,578.962 494.432,580.839L494.432,584.396C492.83,583.572 491.202,582.731 489.556,581.878L489.556,575.106ZM518.115,577.87C516.382,578.782 514.655,579.686 512.944,580.578L512.944,520.628L518.115,518.165L518.115,577.87ZM481.885,577.87C483.618,578.782 485.345,579.686 487.056,580.578L487.056,520.628L481.885,518.165L481.885,577.87ZM525.971,573.703L525.914,573.733C524.226,574.636 522.536,575.535 520.843,576.43L520.615,576.551L520.615,516.974L525.971,514.424L525.971,573.703ZM474.029,573.703L474.086,573.733C475.774,574.636 477.464,575.535 479.157,576.43L479.385,576.551L479.385,516.974L474.029,514.424L474.029,573.703ZM532.845,569.996L532.619,570.118C531.268,570.853 529.915,571.584 528.561,572.313L528.471,572.362L528.471,513.234L532.845,511.151L532.845,569.996ZM467.155,569.996L467.381,570.118C468.732,570.853 470.085,571.584 471.439,572.313L471.529,572.362L471.529,513.234L467.155,511.151L467.155,569.996ZM541.544,565.205C539.52,566.335 537.449,567.479 535.345,568.632L535.345,509.96L541.544,507.008L541.544,565.205ZM458.456,565.205C460.48,566.335 462.551,567.479 464.655,568.632L464.655,509.96L458.456,507.008L458.456,565.205ZM510.444,566.2L510.444,521.818L505.568,524.14L505.568,560.518C507.867,562.451 509.47,564.344 510.444,566.2ZM489.556,566.2L489.556,521.818L494.432,524.14L494.432,560.518C492.133,562.451 490.53,564.344 489.556,566.2ZM548.51,561.262C547.059,562.096 545.568,562.944 544.044,563.802L544.044,505.818L548.51,503.691L548.51,561.262ZM451.49,561.262C452.941,562.096 454.432,562.944 455.956,563.802L455.956,505.818L451.49,503.691L451.49,561.262ZM443.977,556.853C445.569,557.811 447.245,558.801 448.99,559.816L448.99,502.501L443.977,500.114L443.977,556.853ZM556.023,556.853C554.431,557.811 552.755,558.801 551.01,559.816L551.01,502.501L556.023,500.114L556.023,556.853ZM436.822,552.291C438.313,553.314 439.913,554.371 441.477,555.333L441.477,498.923L436.822,496.706L436.822,552.291ZM563.178,552.291C561.687,553.314 560.087,554.371 558.523,555.333L558.523,498.923L563.178,496.706L563.178,552.291ZM434.322,495.516L428.167,492.585C428.186,509.282 428.881,527.743 429.702,539.338C429.94,542.704 430.315,546.035 430.523,547.759C431.285,548.333 432.649,549.349 434.322,550.542L434.322,495.516ZM565.678,495.516L571.833,492.585C571.814,509.282 571.119,527.743 570.298,539.338C570.06,542.704 569.685,546.035 569.477,547.759C568.715,548.333 567.351,549.349 565.678,550.542L565.678,495.516ZM584.299,519.72C588.411,515.505 591.812,511.14 594.603,506.647C597.609,506.355 600.703,506.267 603.87,506.293C604.809,506.301 605.754,506.319 606.703,506.348C609.554,512.357 600.903,521.048 584.068,531.648L584.299,519.72ZM415.701,519.72C411.589,515.505 408.188,511.14 405.397,506.647C402.391,506.355 399.297,506.267 396.13,506.293C395.191,506.301 394.246,506.319 393.297,506.348C390.446,512.357 399.097,521.048 415.932,531.648L415.701,519.72ZM626.335,389.742C626.342,394.797 625.703,399.987 624.47,405.304C622.648,413.168 619.537,421.308 615.266,429.692C615.209,429.801 615.169,429.916 615.145,430.034C609.73,433.557 605.544,437.622 602.472,442.17C602.229,442.517 602.314,442.997 602.661,443.24C603.009,443.484 603.489,443.399 603.732,443.051C606.738,438.896 610.751,435.23 615.85,432.07C617.658,436.17 617.212,441.74 615.173,448.461C613.036,455.502 609.123,463.744 603.931,472.856C601.315,474.58 598.723,476.461 596.153,478.496C595.816,478.753 595.75,479.236 596.008,479.574C596.265,479.911 596.748,479.976 597.085,479.719C599.042,478.284 601.009,476.938 602.986,475.679C602.056,484.034 599.962,492.158 596.207,499.953C595.335,501.763 594.373,503.556 593.316,505.33C593.137,505.454 593.016,505.652 592.99,505.872C590.603,509.796 587.744,513.626 584.345,517.35L584.374,515.853C585.658,460.553 584.816,432.419 591.804,410.91C602.071,402.665 613.266,396.005 625.084,390.409C625.502,390.187 625.919,389.965 626.335,389.742ZM373.665,389.742C373.658,394.797 374.297,399.987 375.53,405.304C377.352,413.168 380.463,421.308 384.734,429.692C384.791,429.801 384.831,429.916 384.855,430.034C390.27,433.557 394.456,437.622 397.528,442.17C397.771,442.517 397.686,442.997 397.339,443.24C396.991,443.484 396.511,443.399 396.268,443.051C393.262,438.896 389.249,435.23 384.15,432.07C382.342,436.17 382.788,441.74 384.827,448.461C386.964,455.502 390.877,463.744 396.069,472.856C398.685,474.58 401.277,476.461 403.847,478.496C404.184,478.753 404.25,479.236 403.992,479.574C403.735,479.911 403.252,479.976 402.915,479.719C400.958,478.284 398.991,476.938 397.014,475.679C397.944,484.034 400.038,492.158 403.793,499.953C404.665,501.763 405.627,503.556 406.684,505.33C406.863,505.454 406.984,505.652 407.01,505.872C409.397,509.796 412.256,513.626 415.655,517.35L415.626,515.853C414.342,460.553 415.184,432.419 408.196,410.91C397.929,402.665 386.734,396.005 374.916,390.409C374.498,390.187 374.081,389.965 373.665,389.742ZM628.827,464.31C628.708,464.444 628.588,464.578 628.468,464.712C633.197,475.777 623.773,489.252 607.531,503.886C606.282,503.914 605.044,503.961 603.816,504.03C601.036,504.186 598.319,504.456 595.677,504.861C596.463,503.508 597.196,502.144 597.878,500.77C601.981,492.504 604.247,483.853 605.246,474.936C605.445,474.599 605.642,474.263 605.837,473.929C609.795,471.588 613.792,469.594 617.827,467.939C621.462,466.448 625.127,465.236 628.827,464.31ZM371.173,464.31C371.292,464.444 371.412,464.578 371.532,464.712C366.803,475.777 376.227,489.252 392.469,503.886C393.718,503.914 394.956,503.961 396.184,504.03C398.964,504.186 401.681,504.456 404.323,504.861C403.537,503.508 402.804,502.144 402.122,500.77C398.019,492.504 395.753,483.853 394.754,474.936C394.555,474.599 394.358,474.263 394.163,473.929C390.205,471.588 386.208,469.594 382.173,467.939C378.538,466.448 374.873,465.236 371.173,464.31ZM640.135,422.685C647.627,433.825 643.324,446.713 631.952,460.649C626.844,461.802 621.813,463.482 616.867,465.703C613.832,467.066 610.831,468.631 607.86,470.395C612.248,462.563 615.586,455.422 617.549,449.196C619.938,441.617 620.257,435.333 618.169,430.709C619.041,430.225 619.942,429.753 620.872,429.295C626.291,426.624 632.685,424.407 640.135,422.685ZM359.865,422.685C352.373,433.825 356.676,446.713 368.048,460.649C373.156,461.802 378.187,463.482 383.133,465.703C386.168,467.066 389.169,468.631 392.14,470.395C387.752,462.563 384.414,455.422 382.451,449.196C380.062,441.617 379.743,435.333 381.831,430.709C380.959,430.225 380.058,429.753 379.128,429.295C373.709,426.624 367.315,424.407 359.865,422.685ZM629.381,388.101C638.475,383.161 647.433,377.936 656.178,372.258C659.192,387.422 653.884,403.159 641.996,419.348C633.281,421.403 625.93,424.057 619.842,427.278C619.683,427.363 619.525,427.447 619.369,427.531C622.969,420.16 625.661,412.97 627.341,405.982C628.812,399.863 629.509,393.898 629.381,388.101ZM370.619,388.101C361.525,383.161 352.567,377.936 343.822,372.258C340.808,387.422 346.116,403.159 358.004,419.348C366.719,421.403 374.07,424.057 380.158,427.278C380.317,427.363 380.475,427.447 380.631,427.531C377.031,420.16 374.339,412.97 372.659,405.982C371.188,399.863 370.491,393.898 370.619,388.101ZM505.254,514.294C531.5,502.493 557.186,490.681 571.678,478.645C571.213,450.462 573.292,431.498 575.363,420.741C550.932,420.641 523.576,413.035 500.543,401.499L500,401.226C476.854,412.915 449.26,420.64 424.637,420.741C426.708,431.498 428.787,450.462 428.322,478.645C443.78,491.484 471.975,504.067 500,516.654L505.254,514.294ZM499.166,593.456C491.004,589.472 425.626,557.416 423.091,551.407C421.661,548.016 419.708,508.502 420.3,481C421.239,437.317 416.051,415.664 413.938,412.26C444.01,415.363 472.848,410.098 500,393.388L500.637,393.778C527.602,410.179 556.225,415.338 586.062,412.26C583.949,415.664 578.761,437.317 579.7,481C580.292,508.502 578.339,548.016 576.909,551.407C574.205,557.817 500,593.862 500,593.862L499.166,593.456Z" style="fill:white;"/>
    </g>
</svg>
