<?xml version="1.0" encoding="UTF-8" standalone="no"?>
<!DOCTYPE svg PUBLIC "-//W3C//DTD SVG 1.1//EN" "http://www.w3.org/Graphics/SVG/1.1/DTD/svg11.dtd">
<svg width="100%" height="100%" viewBox="0 0 1000 1000" version="1.1" xmlns="http://www.w3.org/2000/svg" xmlns:xlink="http://www.w3.org/1999/xlink" xml:space="preserve" xmlns:serif="http://www.serif.com/" style="fill-rule:evenodd;clip-rule:evenodd;stroke-linejoin:round;stroke-miterlimit:2;">
    <g transform="matrix(5.40842,0,0,4.97163,-3113.49,-871.643)">
        <path d="M667.701,274.047C658.779,254.038 648.64,234.865 632.249,220C620.437,268.566 632.056,317.514 640.352,366.407C620.355,305.354 600.916,244.327 626.249,185.38C641.93,200.733 656.222,218.388 668.125,240L668.404,239.494C680.25,218.112 694.441,200.613 710,185.38C735.333,244.327 715.894,305.354 695.898,366.407C704.193,317.514 715.812,268.566 704,220C687.349,235.101 677.151,254.647 668.125,275L667.701,274.047Z" style="fill:white;"/>
    </g>
</svg>
