<?xml version="1.0" encoding="UTF-8" standalone="no"?>
<!DOCTYPE svg PUBLIC "-//W3C//DTD SVG 1.1//EN" "http://www.w3.org/Graphics/SVG/1.1/DTD/svg11.dtd">
<svg width="100%" height="100%" viewBox="0 0 1000 1000" version="1.1" xmlns="http://www.w3.org/2000/svg" xmlns:xlink="http://www.w3.org/1999/xlink" xml:space="preserve" xmlns:serif="http://www.serif.com/" style="fill-rule:evenodd;clip-rule:evenodd;stroke-linejoin:round;stroke-miterlimit:2;">
    <g transform="matrix(1.93875,0,0,1.93875,-309.573,-454.074)">
        <path d="M315.594,591.286C317.263,579.964 317.933,567.705 321,558C324.066,568.855 330.163,580.766 335,590C336.187,573.297 337.129,556.575 340,540C341.411,544.438 343.086,548.424 345,552C353.817,522.867 357.051,489.927 368,463C369.072,491.87 372.284,521.733 385,550C388.039,534.186 389.728,519.29 395,504C395.692,509.109 397.271,513.512 400,517C406.952,500.346 414.307,480.071 417,459C423.121,481.112 421.461,506.665 425,529C432.322,514.064 439.6,499.097 444,482C445.402,485.19 447.472,487.795 450,490C452.52,483.128 455.104,476.492 458,471C459.641,506.508 455.448,532.938 457,551C468.041,536.713 477.091,520.429 485,503C484.866,514.181 483.547,525.227 481.715,536.218C473.477,547.857 466.747,559.62 462.409,571.499C431.531,656.044 441.876,704.363 540,694C457.898,743.128 389.931,731.105 334,667C353.333,683.961 372.667,693.311 392,694C318.762,668.029 296.262,608.695 288,540C295.948,562.254 304.351,584.332 319,604C317.956,599.833 316.786,595.59 315.594,591.286ZM313.164,582.426C307.754,562.255 303.343,540.979 309.927,520C324.201,474.524 333.291,425.197 345,370C346.563,385.735 347.545,402.43 348,420C354.813,384.667 358.021,349.333 359,314L379,367C372.428,325.449 356.061,289.557 327,261C351.416,267.495 374.637,277.295 395,295C389.106,285.324 382.253,275.466 346,260C382.612,261.975 413.474,277.05 440,302C435.127,293 427.984,284 420,275C434.73,285.639 446.233,297.009 455,309C447.192,294.55 438.322,281.095 428,269C494.276,289.717 533.103,322.318 545.245,391.423C552.663,433.641 539.002,475.796 494.146,520C491.773,522.893 489.468,525.794 487.246,528.705C488.966,514.166 489.903,499.598 490,485C481.486,504.427 471.934,523.09 460,540C463.078,508.333 465.604,476.667 460,445C455.058,458.16 451.37,471.072 450,483C447.221,481.547 445.572,476.492 445,468C439.781,484.228 433.463,499.902 426,515C426.086,489.297 423.552,464.23 417.575,440C413.295,464.293 407.148,487.451 400,510C397.259,502.048 396.295,493.465 395,485C390.02,503.126 386.996,519.498 385,538C375.917,509.161 373.704,477.997 371,447C355.396,477.35 348.722,509.111 345,544C342.056,536.416 340.659,528.328 340,520C334.387,540 331.977,558 333,578C327.925,563.733 324.492,549.389 322,535C317.516,549.574 313.953,566.345 313.164,582.426Z" style="fill:white;"/>
    </g>
</svg>
