<?xml version="1.0" encoding="UTF-8" standalone="no"?>
<!DOCTYPE svg PUBLIC "-//W3C//DTD SVG 1.1//EN" "http://www.w3.org/Graphics/SVG/1.1/DTD/svg11.dtd">
<svg width="100%" height="100%" viewBox="0 0 1000 1000" version="1.1" xmlns="http://www.w3.org/2000/svg" xmlns:xlink="http://www.w3.org/1999/xlink" xml:space="preserve" xmlns:serif="http://www.serif.com/" style="fill-rule:evenodd;clip-rule:evenodd;stroke-linejoin:round;stroke-miterlimit:2;">
    <g transform="matrix(6.25,0,0,6.25,-2696.87,-3473.44)">
        <path d="M510,633C504.975,634.26 502.345,636.779 502,640.5C499.479,640.407 497.717,640.784 496.5,641.5C491.218,638.246 483.385,635.246 473,632.5L483,620.5C461.101,622.721 447.321,635.572 442,659.5L446,657L442.5,664.5L442.5,667.5L439.5,676L452,666.5L452,658.5C456.267,653.679 462.081,650.516 466,644.347C466.604,643.395 467.929,643.097 469,642.5L472,643.5L462.5,656L470,653.5L463.5,677L471.5,668.5L472,663C477.772,657.29 481.636,651.617 482.5,646L488.5,660L487,668.5L488,671.5L487,676L490.5,673.5L494.5,673.5L494.5,670L499.5,667L508,667.5L499.5,672C501.547,673.022 504.684,673.221 508.5,672.5L510,678L512,673.5L520,667L525,667.5L528.5,676.5C530.997,674.085 532.312,671.246 532.5,668L539,668.5L548,659.5L550.5,668.5C552.791,671.871 555.24,674.711 558,676.5L559.5,669C557.825,665.976 557.547,663.216 557.5,660.5L561,667.5L560,671C561.552,673.187 563.34,674.937 565.5,676L565,667C563.672,662.758 563.387,659.686 563,656.5C565.364,656.25 567.695,659.518 570,665.5L569.5,670.5L576.5,676.5L574,656L583.5,659L568.5,640.5L556,641L558,639C554.069,636.337 548.238,634.181 542.5,632C554.806,616.171 565.833,601.395 568.5,593.5C555.182,603.716 545.613,616.278 535.5,628.5L533,628.5L526.5,616L522.5,629.5L518.5,626L518,615.5L515,611.5C514.115,605.613 512.938,600.63 511,598C507.1,607.473 508.053,618.944 508,630L510,633ZM564,652C563.33,651.5 562.811,651 562.595,650.5C562.378,650 562.463,649.5 563,649C564.485,649.438 564.562,650.563 564,652ZM492,651L492,647L490,647C490.12,648.49 490.89,649.794 492,651Z" style="fill:white;"/>
    </g>
</svg>
