<?xml version="1.0" encoding="UTF-8" standalone="no"?>
<!DOCTYPE svg PUBLIC "-//W3C//DTD SVG 1.1//EN" "http://www.w3.org/Graphics/SVG/1.1/DTD/svg11.dtd">
<svg width="100%" height="100%" viewBox="0 0 1000 1000" version="1.1" xmlns="http://www.w3.org/2000/svg" xmlns:xlink="http://www.w3.org/1999/xlink" xml:space="preserve" xmlns:serif="http://www.serif.com/" style="fill-rule:evenodd;clip-rule:evenodd;stroke-linejoin:round;stroke-miterlimit:2;">
    <g transform="matrix(2.33574,0,0,2.33574,-652.189,-685.759)">
        <path d="M373,500C383.148,644.964 426.293,705.271 495,700C562.792,704.59 602.373,639.415 614,500C619.796,384.82 582.126,320.803 495,315C401.421,319.809 365.301,386.361 373,500ZM474,650C480.924,651.817 487.524,652.637 493.844,652.593C500.163,652.55 506.201,651.641 512,650C510.46,662.087 475.915,661.818 474,650ZM455,618L532,618C527.785,626.256 518.34,632.954 493.286,635C464.449,632.753 457.453,625.86 455,618ZM439,578L437,494C416.127,487.961 406.361,492.872 410,511C418.057,550.844 427.952,570.691 439,578ZM547,578L549,494C569.873,487.961 579.639,492.872 576,511C567.943,550.844 558.048,570.691 547,578ZM411,473C417.709,475.569 423.282,476.711 427.892,476.639C432.502,476.567 436.148,475.283 439,473C437.423,487.315 412.415,487.037 411,473ZM575,473C568.291,475.569 562.718,476.711 558.108,476.639C553.498,476.567 549.852,475.283 547,473C548.577,487.315 573.585,487.037 575,473ZM446,440C442.477,436.969 429.442,435.559 423,437.38C415.452,439.514 405.568,449.388 405,454C404.296,459.723 414.158,467.16 434,463C452.197,459.087 453.104,446.112 446,440ZM540.126,440C543.648,436.969 556.684,435.559 563.126,437.38C570.674,439.514 580.558,449.388 581.126,454C581.83,459.723 571.968,467.16 552.126,463C533.929,459.087 533.022,446.112 540.126,440ZM413,416L439,416L441,365C425.18,378.258 415.032,394.789 413,416ZM573,416L547,416L545,365C560.82,378.258 570.968,394.789 573,416Z" style="fill:white;"/>
    </g>
</svg>
