<?xml version="1.0" encoding="UTF-8" standalone="no"?>
<!DOCTYPE svg PUBLIC "-//W3C//DTD SVG 1.1//EN" "http://www.w3.org/Graphics/SVG/1.1/DTD/svg11.dtd">
<svg width="100%" height="100%" viewBox="0 0 1000 1000" version="1.1" xmlns="http://www.w3.org/2000/svg" xmlns:xlink="http://www.w3.org/1999/xlink" xml:space="preserve" xmlns:serif="http://www.serif.com/" style="fill-rule:evenodd;clip-rule:evenodd;stroke-linejoin:round;stroke-miterlimit:2;">
    <g transform="matrix(0.998002,0,0,1,-12.6527,4.55413)">
        <path d="M920.906,604.921C921.551,602.665 920.289,600.295 918.058,599.575L805.799,563.323C804.677,562.96 803.458,563.072 802.424,563.633C801.389,564.193 800.628,565.153 800.317,566.292C794.851,586.285 787.171,605.988 777.179,625.076C764.47,649.354 754.205,665.564 745.404,676.204C738.412,684.657 732.957,689.117 727.73,690.843C720.807,693.129 714.885,690.595 708.317,689.466C689.864,686.292 674.223,688.471 661.184,695.419C642.422,705.417 628.464,725.878 620.739,758.33C617.418,772.282 609.735,781.823 599.534,786.529C583.155,794.087 561.557,789.623 543.076,774.949C522.252,758.414 500.628,757.212 481.794,761.386C481.539,761.442 481.274,761.36 481.095,761.169C480.916,760.977 480.851,760.706 480.923,760.455C480.963,760.315 481.001,760.175 481.037,760.033C482.13,755.692 487.013,744.672 489.58,735.436C490.419,732.419 491.009,729.597 491.121,727.276C491.158,726.513 491.062,725.415 491.008,724.945C490.887,723.891 490.385,722.916 489.598,722.205C484.691,717.771 477.926,716.072 471.556,717.646C471.538,717.651 471.521,717.654 471.503,717.657L467.628,718.319C443.968,722.36 311.083,760.669 311.083,760.669C311.057,760.676 311.031,760.682 311.004,760.687C310.451,760.781 309.905,760.911 309.369,761.075C302.754,763.1 297.683,768.445 295.988,775.177C294.442,781.319 295.91,787.804 299.864,792.672C299.882,792.696 299.9,792.72 299.916,792.745C306.619,803.385 369.833,903.561 385.798,924.487C393.754,934.913 409.273,933.194 417.683,923.197C421.948,918.127 429.552,898.834 432.875,890.215C432.931,890.07 433.031,889.946 433.161,889.862C458.292,873.542 498.7,869.234 523.796,899C544.005,922.971 585.731,928.987 624.125,919.946C646.367,914.708 667.24,904.685 681.594,891.592C692.449,881.689 699.701,869.982 702.101,857.259C707.888,826.582 714.852,810.397 724.236,802.239C729.941,797.279 736.43,796.124 743.235,795.631C753.104,794.916 763.602,795.592 774.397,794.144C778.775,793.557 832.076,793.321 889.08,684.424C902.61,658.579 913.178,631.946 920.906,604.921ZM193.462,782.108C195.088,783.805 197.759,783.9 199.489,782.323L286.52,702.965C287.39,702.172 287.899,701.056 287.929,699.874C287.96,698.693 287.509,697.548 286.682,696.704C272.15,681.889 258.969,665.296 247.466,647.001C232.835,623.732 223.951,606.649 219.144,593.642C215.325,583.309 214.187,576.321 215.294,570.907C216.761,563.738 221.888,559.864 226.125,554.722C238.029,540.276 243.918,525.58 244.401,510.747C245.095,489.402 234.378,466.968 210.221,443.919C199.835,434.009 195.421,422.527 196.428,411.289C198.044,393.245 212.623,376.712 234.461,368.03C259.067,358.246 270.845,340.051 276.599,321.574C276.677,321.325 276.88,321.135 277.134,321.076C277.388,321.017 277.654,321.097 277.835,321.286C277.936,321.391 278.038,321.495 278.142,321.597C281.345,324.732 288.425,334.525 295.117,341.405C297.303,343.653 299.444,345.586 301.391,346.852C302.03,347.268 303.025,347.737 303.458,347.927C304.427,348.351 305.517,348.406 306.521,348.08C312.784,346.045 317.609,341.018 319.416,334.687C319.42,334.67 319.426,334.653 319.432,334.636L320.786,330.933C329.052,308.328 362.011,173.511 362.011,173.511C362.017,173.485 362.025,173.459 362.034,173.433C362.227,172.905 362.387,172.365 362.511,171.817C364.05,165.046 361.959,157.947 356.993,153.085C352.463,148.65 346.139,146.662 339.976,147.649C339.947,147.654 339.917,147.657 339.887,147.658C327.38,148.131 209.567,152.674 183.585,156.023C170.64,157.692 164.414,172.051 168.861,184.394C171.116,190.655 183.981,206.976 189.766,214.203C189.863,214.325 189.92,214.474 189.928,214.629C191.524,244.692 175.17,281.994 137.027,288.832C106.311,294.339 80.396,327.59 69.125,365.521C62.595,387.495 60.874,410.689 65.039,429.758C68.189,444.18 74.686,456.377 84.469,464.868C108.058,485.339 118.56,499.539 120.937,511.804C122.381,519.261 120.155,525.484 117.2,531.649C112.914,540.589 107.117,549.376 103.005,559.491C101.337,563.593 75.065,610.055 140.688,714.424C156.264,739.195 173.989,761.788 193.462,782.108ZM418.224,71.48C415.953,72.04 414.544,74.314 415.045,76.612L440.273,192.222C440.525,193.377 441.235,194.381 442.239,195.002C443.243,195.624 444.454,195.808 445.593,195.513C465.591,190.335 486.452,187.226 507.947,186.433C535.287,185.423 554.436,186.297 568.044,188.664C578.855,190.544 585.447,193.072 589.567,196.759C595.024,201.642 595.819,208.05 598.15,214.322C604.699,231.942 614.451,244.459 627.007,252.344C645.074,263.691 669.75,265.664 701.632,256.261C715.339,252.218 727.436,254.16 736.63,260.691C751.392,271.178 758.413,292.174 755.056,315.531C751.273,341.849 761.119,361.247 774.199,375.549C774.376,375.742 774.438,376.014 774.363,376.265C774.288,376.515 774.087,376.707 773.834,376.769C773.693,376.803 773.553,376.84 773.413,376.879C769.118,378.085 757.154,379.313 747.894,381.669C744.87,382.438 742.139,383.326 740.08,384.382C739.403,384.729 738.504,385.358 738.126,385.638C737.278,386.267 736.69,387.188 736.472,388.225C735.117,394.694 737.057,401.419 741.621,406.176C741.633,406.189 741.645,406.202 741.656,406.216L744.178,409.257C759.572,427.821 859.499,524.33 859.499,524.33C859.518,524.348 859.536,524.368 859.554,524.39C859.914,524.823 860.3,525.234 860.712,525.618C865.788,530.363 872.951,532.118 879.611,530.248C885.687,528.541 890.543,524.043 892.752,518.188C892.763,518.16 892.775,518.133 892.789,518.107C898.593,506.993 953.193,402.275 963.208,378C968.199,365.904 958.904,353.264 946.048,350.918C939.528,349.728 919.059,352.699 909.951,354.092C909.798,354.115 909.641,354.089 909.503,354.018C882.777,340.275 858.722,307.282 871.769,270.677C882.275,241.2 866.465,201.933 839.342,173.042C823.63,156.306 804.478,143.136 785.96,137.16C771.954,132.64 758.205,132.15 746.022,136.383C716.646,146.588 699.18,148.573 687.42,144.466C680.27,141.97 676.007,136.902 672.157,131.229C666.573,123.004 661.873,113.541 655.19,104.875C652.48,101.36 625.45,55.134 502.823,59.662C473.719,60.736 445.425,64.776 418.224,71.48Z" style="fill:white;"/>
    </g>
</svg>
