<?xml version="1.0" encoding="UTF-8" standalone="no"?>
<!DOCTYPE svg PUBLIC "-//W3C//DTD SVG 1.1//EN" "http://www.w3.org/Graphics/SVG/1.1/DTD/svg11.dtd">
<svg width="100%" height="100%" viewBox="0 0 1000 1000" version="1.1" xmlns="http://www.w3.org/2000/svg" xmlns:xlink="http://www.w3.org/1999/xlink" xml:space="preserve" xmlns:serif="http://www.serif.com/" style="fill-rule:evenodd;clip-rule:evenodd;stroke-linejoin:round;stroke-miterlimit:2;">
    <g transform="matrix(1.20212,0,0,1.20212,-79.7292,-131.113)">
        <path d="M167.753,705.768C143.629,659.095 130,606.126 130,550C130,362.349 282.349,210 470,210C560.129,210 642.114,245.145 702.972,302.453C755.864,260.445 807.603,214.581 856,160C860.319,271.392 841.158,365.924 795.709,452.232C805.003,483.191 810,516.016 810,550C810,737.651 657.651,890 470,890C380.828,890 299.628,855.597 238.964,799.355C115.623,847.319 54.366,845.944 167.753,705.768ZM703.005,343.902C645.974,279.491 562.694,238.868 470,238.868C298.282,238.868 158.868,378.282 158.868,550C158.868,721.718 298.282,861.132 470,861.132C641.718,861.132 781.132,721.718 781.132,550C781.132,507.259 772.495,466.52 756.864,429.412L722.445,469.23C730.6,494.71 735,521.845 735,550C735,696.257 616.257,815 470,815C323.743,815 205,696.257 205,550C205,403.743 323.743,285 470,285C552.299,285 625.886,322.598 674.5,381.53C684.229,369.175 693.731,356.631 703.005,343.902ZM176.321,721.332L173.719,722.113C79.504,833.573 128.035,831.124 227.355,788.072C221.678,782.286 216.205,776.298 210.946,770.116C189.283,782.162 176.589,787.577 170,786.144C143.495,780.381 171.612,746.188 180,730C180.24,729.537 180.454,729.042 180.646,728.518C179.175,726.141 177.733,723.744 176.321,721.332ZM704.378,487.584C700.83,490.742 697.319,493.858 693.839,496.938L704.043,525.313L674.523,535.928C674.839,540.572 675,545.268 675,550C675,566.372 673.077,582.298 669.447,597.551L697.69,612.519L650.26,702.015L622.28,687.187C608.734,702.211 592.999,715.223 575.586,725.715L585.974,757.814L489.607,789L478.547,754.825C475.713,754.941 472.863,755 470,755C453.029,755 436.536,752.933 420.753,749.036L402.804,782.249L342.332,749.57C340.385,750.523 338.437,751.473 336.488,752.42C374.779,777.745 420.68,792.5 470,792.5C603.839,792.5 712.5,683.839 712.5,550C712.5,528.425 709.676,507.504 704.378,487.584ZM191.515,745L190,745C151.794,780.691 189.441,771.496 201.951,759.086C198.354,754.483 194.873,749.785 191.515,745ZM843,194C786.322,252.37 765.774,270.256 710,317C715.905,323.664 722.009,330.328 725,337C698.089,376.223 670.764,415.617 637.504,450C536.498,554.417 420.628,646.426 292,723C299.434,733.406 309.179,742.102 320,750C402.155,705.49 482.715,658.145 570,590C615.879,551.24 657.587,513.489 705,468L768,398C774.206,414.383 780.626,422.523 785,443C824.957,342.504 841.391,308.713 843,194ZM660.09,399.486C615.662,343.463 546.998,307.5 470,307.5C336.161,307.5 227.5,416.161 227.5,550C227.5,610.576 249.759,665.994 286.545,708.523C297.79,702.301 308.887,695.961 319.841,689.504C310.803,679.782 302.695,669.179 295.663,657.842L261.347,669.004L230.016,572.685L265.302,561.207C265.101,557.497 265,553.76 265,550C265,534.163 266.8,518.743 270.208,503.925L236.889,485.629L285.641,396.846L316.732,413.919C329.028,400.081 343.169,387.917 358.767,377.814L346.913,341.186L443.28,310L454.787,345.557C459.815,345.188 464.886,345 470,345C484.81,345 499.256,346.574 513.168,349.561L529.809,317L620,363.095L603.821,394.751C615.558,404.878 626.136,416.313 635.329,428.831C643.738,419.173 651.991,409.39 660.09,399.486ZM586.715,591.199C583.812,593.789 580.91,596.387 578,599C544.666,627.473 511.63,651.83 478.453,673.465C528.618,670.074 570.625,636.732 586.715,591.199ZM578.27,490.062C557.148,452.019 516.56,426.25 470,426.25C401.701,426.25 346.25,481.701 346.25,550C346.25,588.063 363.472,622.136 390.546,644.847C459.421,598.288 521.887,546.604 578.27,490.062Z" style="fill:white;"/>
    </g>
</svg>
