<?xml version="1.0" encoding="UTF-8" standalone="no"?>
<!DOCTYPE svg PUBLIC "-//W3C//DTD SVG 1.1//EN" "http://www.w3.org/Graphics/SVG/1.1/DTD/svg11.dtd">
<svg width="100%" height="100%" viewBox="0 0 1000 1000" version="1.1" xmlns="http://www.w3.org/2000/svg" xmlns:xlink="http://www.w3.org/1999/xlink" xml:space="preserve" xmlns:serif="http://www.serif.com/" style="fill-rule:evenodd;clip-rule:evenodd;stroke-linejoin:round;stroke-miterlimit:2;">
    <g transform="matrix(2.16867,0,0,2.16867,-183.133,-184.217)">
        <path d="M406,477C388.967,461.859 370.603,446.483 346,430C340.301,448.785 335.858,469.762 335,497C344.863,507.414 356.521,516.828 374,523C385.726,508.377 396.554,493.151 406,477ZM224,477C241.033,461.859 259.397,446.483 284,430C289.699,448.785 294.142,469.762 295,497C285.137,507.414 273.479,516.828 256,523C244.274,508.377 233.446,493.151 224,477ZM253.043,341.255L308.546,389.518C276.496,416.677 244.032,443.238 211,469C209.333,469.999 207.667,469.967 206,468.5C205.726,464.771 204.685,461.892 200.5,462.5C196.683,461.394 194.237,459.614 194.5,456.5C194.281,453.525 193.52,450.978 189.5,451C185.683,449.628 183.585,447.567 184,444.5C184.319,441.539 183.266,439.429 179.5,439C176.345,438.21 175.122,436.667 175.5,434.5C175.967,431.874 175.143,429.875 172,429C168.268,427.117 166.568,424.824 167.5,422C167.531,420.404 166,417.693 166,417.693C163.271,416.393 163.051,415.093 166.5,413.793C164.782,412.954 202.18,381.381 253.043,341.255ZM463.5,413.793C466.949,415.093 466.729,416.393 464,417.693C464,417.693 462.469,420.404 462.5,422C463.432,424.824 461.732,427.117 458,429C454.857,429.875 454.033,431.874 454.5,434.5C454.878,436.667 453.655,438.21 450.5,439C446.734,439.429 445.681,441.539 446,444.5C446.415,447.567 444.317,449.628 440.5,451C436.48,450.978 435.719,453.525 435.5,456.5C435.763,459.614 433.317,461.394 429.5,462.5C425.315,461.892 424.274,464.771 424,468.5C422.333,469.967 420.667,469.999 419,469C336.027,404.288 256.632,334.534 178.5,263C149.923,216.334 160.227,200.973 212,219C316.147,289.327 466.912,412.127 463.5,413.793ZM510,360C498.424,374.796 485.658,388.601 470,400C431.896,370.713 416.731,356.58 413,350C438.193,336.85 458.953,329.615 477,326C491.709,337.262 504.247,348.566 510,360ZM120,360C131.576,374.796 144.342,388.601 160,400C198.104,370.713 213.269,356.58 217,350C191.807,336.85 171.047,329.615 153,326C138.291,337.262 125.753,348.566 120,360ZM320.487,289.22C353.651,264.22 387.787,239.402 418,219C469.773,200.973 480.077,216.334 451.5,263C426.31,286.062 400.989,308.94 375.469,331.514L320.487,289.22ZM304,195L277,212L295,185L247,174L294,163L278,137L304,153L315,108L326,153L352,137L336,163L383,174L335,185L353,212L326,195L315,240L304,195Z" style="fill:white;"/>
    </g>
</svg>
