<?xml version="1.0" encoding="UTF-8" standalone="no"?>
<!DOCTYPE svg PUBLIC "-//W3C//DTD SVG 1.1//EN" "http://www.w3.org/Graphics/SVG/1.1/DTD/svg11.dtd">
<svg width="100%" height="100%" viewBox="0 0 1000 1000" version="1.1" xmlns="http://www.w3.org/2000/svg" xmlns:xlink="http://www.w3.org/1999/xlink" xml:space="preserve" xmlns:serif="http://www.serif.com/" style="fill-rule:evenodd;clip-rule:evenodd;stroke-linejoin:round;stroke-miterlimit:2;">
    <g transform="matrix(1.31008,0,0,1.31008,-198.889,-154.11)">
        <path d="M573,603L581,606C585.182,616.087 590.112,625.15 592,634.248C596.743,657.101 603.28,674.898 614,685.895C622.543,694.659 630.545,699.243 641,697.944C653.209,696.427 656.518,663.669 646,604L653,604C666.439,671.329 661.113,698.844 641,704.292C626.843,708.127 607.317,699.574 595,667.656C591.894,659.607 591.12,649.252 587.244,638C583.638,627.53 578.902,615.869 573,603ZM345,490C301.688,523.753 250.813,562.703 262.603,590C287.652,647.998 348.937,645.222 560,590C559.355,593.284 559.252,596.61 560,600C470.073,619.675 393.52,639.012 340,639.802C276.104,640.745 243.098,606.027 258.704,562.842C266.011,542.622 293.599,519.591 335,490L345,490ZM574,588C569.871,583.186 565.884,584.026 562,589L562,597C564.218,598.481 566.839,599.97 571.5,601.5L572.5,601L581,604L582.5,606C586.983,605.693 588.839,603.114 589.5,599.5L582,598.5C581.454,597.167 580.574,594.833 581,593.5C580.33,594.418 579.296,595.191 578,595C575.667,594.016 573.333,592.452 571,589.5L574,588ZM583,593L583,597C796.261,622.813 825.385,545.384 841,480C839,480.667 837,481.333 835,482C810.464,604.542 696.599,598.58 583,593ZM747,500L735.5,501.5C683.91,534.831 629.87,564.161 574,590.5L578,593C633.617,568.41 689.791,538.837 747,500ZM651,591L644,591L643,564L651,560L651,591ZM651,548L644,552C645.937,536.57 648.211,521.185 652,506C654.786,506.402 656.516,506.264 658,506C653.999,519.703 651.913,533.747 651,548ZM863,460C813.825,483.274 753.006,492.796 704.825,480C626.415,459.175 521.562,410.296 423.819,383.061C392.119,374.228 360.681,373.583 332.579,376.001C271.532,381.254 222.153,387.846 192.9,413.839C183.541,422.155 197.322,441.913 225,465C272.279,486.753 344.277,493.215 440,485C470.7,483.32 502.275,484.702 534.44,487.559C578.756,491.494 623.892,504.733 670,503.599C750.242,501.626 808.589,489.274 870,468C880.553,459.953 879.274,454.857 865,453C806.333,458.894 741.235,460.867 660,453C657.692,455.327 644.025,457.677 642,457C720.637,488.089 788.532,492.415 863,460ZM799,456L791.5,456C833.068,411.576 837.309,383.48 831,360C832.387,354.631 834.484,355.287 837,359.5C843.87,394.251 832.6,426.692 799,456ZM654,453C646.761,454.47 642.244,455.417 634,455C616.325,448.784 598.402,442.414 583,436C606.694,438.027 629.227,437.756 650,434C651.416,440.719 652.122,446.991 654,453ZM656,451L655,448L674,441C703.667,428.966 716.662,434.387 737,420.021C748.63,411.805 755.941,394.317 774,381.627C785.359,373.645 798.437,374.477 808,374.062C816.672,373.686 824.73,375.137 832,379C821.697,376.368 809.388,379.996 795.121,389C779.945,398.577 766.972,419.577 743,434.914C727.532,444.811 687.926,449.489 656,451ZM653,441C685.61,419.161 718.409,397.945 740,340C754.001,336.459 766.114,327.552 778,318C768.212,338.92 760.515,359.241 750,375.581C725.946,412.959 691.085,432.902 654,446L653,441ZM620.098,326.254C609.238,326.659 597.741,324.628 582,321.294C559.743,316.58 539.89,304.583 519,295C536.107,293.625 550.771,294.639 568,299.605C591.129,306.271 611.523,313.307 631,322C636.276,323.716 639.206,328.473 640,336L650,432C631.638,436.191 605.256,435.649 577,434C531.591,416.044 496.025,399.5 405,375C415.422,358.752 424.77,338.288 432.183,314C434.569,306.182 440.682,301.494 445,298C474.535,292.183 509.379,289.165 537,306.378C553.814,316.857 570.882,321.192 587,325.333C598.054,328.174 609.372,327.018 620.098,326.254C621.406,326.205 622.704,326.121 624,326C622.709,326.074 621.407,326.161 620.098,326.254Z" style="fill:white;"/>
    </g>
</svg>
