<?xml version="1.0" encoding="UTF-8" standalone="no"?>
<!DOCTYPE svg PUBLIC "-//W3C//DTD SVG 1.1//EN" "http://www.w3.org/Graphics/SVG/1.1/DTD/svg11.dtd">
<svg width="100%" height="100%" viewBox="0 0 1000 1000" version="1.1" xmlns="http://www.w3.org/2000/svg" xmlns:xlink="http://www.w3.org/1999/xlink" xml:space="preserve" xmlns:serif="http://www.serif.com/" style="fill-rule:evenodd;clip-rule:evenodd;stroke-linejoin:round;stroke-miterlimit:2;">
    <g transform="matrix(2.17195,0,0,2.17195,-1131.16,-392.268)">
        <path d="M743.228,411.476L743.215,411.465L725.243,431.227L647.756,447.527L635.405,388.812L743.997,365.968C730.555,361.82 719.7,350.695 716.602,335.965C712.057,314.361 725.907,293.132 747.51,288.588C769.114,284.043 790.343,297.893 794.888,319.496C797.987,334.226 792.535,348.781 781.903,357.994L890.495,335.15L902.847,393.865L825.36,410.166L800.95,399.32L829.486,445.064L822.559,607.8L824.036,614.821L808.927,618L807.449,610.978L735.543,464.826L743.228,411.476ZM646.671,246.944L646.67,246.936L634.239,247.369L603.61,226.835L619.17,203.627L662.093,232.404C659.106,226.573 659.286,219.337 663.189,213.515C668.914,204.976 680.495,202.691 689.034,208.416C697.573,214.141 699.858,225.722 694.133,234.261C690.23,240.083 683.605,242.998 677.076,242.449L720,271.226L704.441,294.434L673.812,273.9L669.491,262.235L663.519,286.622L607.011,337.225L605.15,340L599.178,335.996L601.038,333.221L626.386,261.727L646.671,246.944ZM861.918,272.054L861.922,272.052L859.958,266.574L864.748,250L877.307,253.629L870.594,276.856C872.767,274.695 876.018,273.744 879.168,274.655C883.789,275.99 886.456,280.826 885.121,285.447C883.785,290.068 878.95,292.735 874.329,291.4C871.178,290.489 868.936,287.951 868.251,284.964L861.539,308.191L848.98,304.561L853.77,287.988L858.353,284.401L846.634,285.212L816.037,267.234L814.535,266.8L815.469,263.569L816.971,264.003L852.441,265.118L861.918,272.054Z" style="fill:white;"/>
    </g>
</svg>
