<?xml version="1.0" encoding="UTF-8" standalone="no"?>
<!DOCTYPE svg PUBLIC "-//W3C//DTD SVG 1.1//EN" "http://www.w3.org/Graphics/SVG/1.1/DTD/svg11.dtd">
<svg width="100%" height="100%" viewBox="0 0 1000 1000" version="1.1" xmlns="http://www.w3.org/2000/svg" xmlns:xlink="http://www.w3.org/1999/xlink" xml:space="preserve" xmlns:serif="http://www.serif.com/" style="fill-rule:evenodd;clip-rule:evenodd;stroke-linejoin:round;stroke-miterlimit:2;">
    <g transform="matrix(1.39803,0,0,1.39803,-461.234,-333.541)">
        <path d="M789.926,776.097C796.512,769.722 799.547,758.29 799.962,743.134C800.086,738.602 799.982,733.731 799.679,728.561C805.331,760.335 810.873,789.745 818.072,812.42C783.132,965.732 759.971,940.901 743.776,810.683C743.584,809.518 743.393,808.353 743.203,807.191C743.832,808.512 744.485,809.625 745.156,810.53C746.547,812.404 748.059,813.438 749.599,813.729C751.257,814.042 753.048,813.522 754.917,812.016C757.05,810.296 759.359,807.204 761.789,802.69C763.429,849.18 765.058,886.642 767.646,903.661C768.149,906.963 768.692,909.513 769.271,911.236C769.732,912.606 770.264,913.511 770.772,913.974C771.272,914.428 771.802,914.588 772.329,914.541C772.786,914.501 773.283,914.288 773.765,913.798C779.591,907.878 785.109,896.92 789.611,884.162C794.6,870.021 798.363,853.669 800.009,839.63C802.098,840.585 803.666,840.011 805.312,839.124C807.233,838.088 808.335,837.177 811.377,834.932C811.772,834.641 811.938,834.13 811.789,833.663C811.64,833.195 811.211,832.874 810.72,832.864C808.135,832.812 807.75,832.613 806.31,831.647C805.484,831.093 804.522,830.911 803.469,830.955C803.205,830.967 802.935,830.993 802.66,831.03C803.589,830.194 804.669,829.37 805.726,828.537C807.99,826.752 810.148,824.919 811.035,823.001C811.792,821.364 811.904,820.343 811.981,819.192C812.078,817.724 812.12,816.012 813.856,811.917C814.084,811.378 813.87,810.754 813.359,810.469C812.848,810.184 812.205,810.329 811.866,810.807C809.545,814.081 807.894,814.912 806.591,815.596C805.481,816.178 804.589,816.701 803.763,817.996C802.812,819.486 801.796,820.915 800.857,822.387C800.634,817.105 799.83,812.799 798.396,809.934C797.041,807.229 795.12,805.717 792.685,805.556C789.299,805.333 786.245,806.66 783.535,809.196C780.982,811.583 778.727,815.068 776.78,819.284C770.573,832.727 767.458,853.704 766.92,869.051C764.846,833.292 763.386,779.629 761.306,722.519C761.444,723.313 761.584,724.1 761.727,724.882C764.551,740.324 768.418,753.429 773.702,763.114C776.797,768.785 780.384,773.296 784.52,776.454C784.531,777.535 784.608,778.61 784.746,779.685C785.256,783.678 786.766,787.801 789.453,791.877C791.162,786.391 791.097,781.339 789.926,776.097ZM585.339,776.12C578.737,769.761 575.674,758.337 575.22,743.182C575.084,738.65 575.177,733.779 575.466,728.608C569.894,760.396 564.426,789.82 557.284,812.513C592.609,965.737 615.707,940.848 631.575,810.59C631.765,809.424 631.953,808.258 632.14,807.096C631.514,808.419 630.864,809.533 630.195,810.44C628.809,812.317 627.3,813.356 625.761,813.65C624.103,813.967 622.311,813.452 620.438,811.951C618.3,810.236 615.984,807.149 613.543,802.642C612.019,849.136 610.485,886.601 607.939,903.627C607.445,906.93 606.908,909.482 606.333,911.206C605.875,912.578 605.346,913.484 604.839,913.948C604.341,914.403 603.81,914.564 603.284,914.519C602.826,914.48 602.329,914.269 601.845,913.78C596.005,907.874 590.459,896.93 585.926,884.183C580.901,870.055 577.096,853.712 575.415,839.678C573.329,840.638 571.76,840.067 570.111,839.184C568.187,838.154 567.083,837.245 564.035,835.008C563.64,834.718 563.473,834.208 563.621,833.74C563.768,833.272 564.197,832.95 564.687,832.939C567.272,832.88 567.657,832.68 569.095,831.71C569.919,831.154 570.881,830.97 571.934,831.012C572.197,831.022 572.468,831.048 572.743,831.084C571.812,830.25 570.73,829.429 569.671,828.599C567.403,826.819 565.239,824.992 564.348,823.077C563.587,821.441 563.472,820.42 563.393,819.27C563.291,817.802 563.246,816.09 561.499,811.999C561.269,811.461 561.482,810.836 561.992,810.55C562.502,810.264 563.146,810.408 563.486,810.884C565.816,814.153 567.468,814.98 568.773,815.66C569.885,816.239 570.778,816.76 571.607,818.053C572.562,819.54 573.581,820.967 574.524,822.437C574.734,817.154 575.527,812.846 576.954,809.978C578.302,807.269 580.22,805.753 582.654,805.586C586.039,805.354 589.096,806.673 591.813,809.202C594.372,811.583 596.636,815.063 598.593,819.273C604.834,832.701 608.002,853.67 608.578,869.016C610.562,833.251 611.888,779.585 613.824,722.47C613.689,723.264 613.55,724.052 613.409,724.834C610.624,740.283 606.79,753.398 601.53,763.096C598.45,768.775 594.874,773.294 590.746,776.462C590.738,777.544 590.663,778.619 590.528,779.695C590.028,783.688 588.528,787.815 585.852,791.898C584.129,786.416 584.181,781.364 585.339,776.12ZM798.624,826.507C798.626,826.407 798.627,826.309 798.627,826.211C798.679,819.627 798.001,814.263 796.347,810.96C795.419,809.109 794.2,807.953 792.534,807.843C789.774,807.661 787.31,808.803 785.1,810.869C782.733,813.084 780.666,816.334 778.861,820.244C770.2,839.001 767.665,872.738 769.845,884.145C770.024,885.08 770.232,885.853 770.478,886.436C770.58,886.677 770.753,886.934 770.852,887.072C770.937,887.006 771.056,886.907 771.14,886.81C771.365,886.554 771.597,886.214 771.842,885.788C773.745,882.483 778.825,872.87 780.636,864.153C781.219,861.345 781.464,858.634 781.117,856.276C781.062,855.906 780.993,855.544 780.908,855.193C780.533,855.733 780.077,856.052 779.58,856.061C778.247,856.084 777.126,853.863 777.077,851.104C777.029,848.345 778.071,846.086 779.404,846.062C780.737,846.039 781.858,848.26 781.907,851.019C781.911,851.217 781.908,851.412 781.901,851.604C783.864,854.927 783.916,859.628 782.879,864.619C781.012,873.607 775.79,883.524 773.828,886.931C773.262,887.915 772.712,888.558 772.223,888.924C771.707,889.311 771.204,889.452 770.743,889.438C770.07,889.418 769.398,889.066 768.849,888.244C768.585,887.848 768.337,887.309 768.115,886.637C768.663,893.386 769.257,899.007 769.912,903.316C770.475,907.017 771.071,909.72 771.739,911.293C771.873,911.609 772.075,911.925 772.205,912.115C777.832,906.352 783.1,895.726 787.45,883.399C793.84,865.288 798.206,843.505 798.601,827.806C798.416,827.506 798.371,827.125 798.514,826.774C798.55,826.685 798.587,826.595 798.624,826.507ZM576.767,826.551C576.766,826.451 576.764,826.353 576.763,826.255C576.695,819.671 577.36,814.306 579.006,810.999C579.928,809.145 581.145,807.986 582.811,807.872C585.57,807.683 588.038,808.818 590.252,810.88C592.625,813.088 594.699,816.333 596.515,820.239C605.222,838.974 607.843,872.704 605.691,884.117C605.515,885.052 605.309,885.825 605.063,886.41C604.962,886.651 604.791,886.908 604.692,887.047C604.606,886.98 604.488,886.881 604.403,886.785C604.178,886.53 603.945,886.19 603.698,885.764C601.787,882.465 596.683,872.865 594.85,864.152C594.26,861.345 594.008,858.635 594.349,856.277C594.403,855.906 594.471,855.544 594.556,855.193C594.932,855.731 595.389,856.049 595.886,856.057C597.218,856.077 598.334,853.853 598.376,851.094C598.418,848.335 597.369,846.078 596.036,846.058C594.704,846.038 593.588,848.262 593.546,851.021C593.543,851.219 593.546,851.414 593.554,851.606C591.599,854.934 591.558,859.635 592.608,864.624C594.497,873.607 599.745,883.511 601.715,886.913C602.284,887.895 602.835,888.537 603.325,888.902C603.842,889.287 604.345,889.427 604.806,889.412C605.479,889.39 606.151,889.037 606.697,888.213C606.96,887.817 607.207,887.277 607.427,886.605C606.896,893.355 606.317,898.977 605.672,903.288C605.119,906.99 604.529,909.695 603.865,911.269C603.732,911.586 603.531,911.902 603.401,912.093C597.76,906.343 592.465,895.731 588.085,883.415C581.649,865.32 577.228,843.548 576.794,827.85C576.978,827.55 577.022,827.169 576.879,826.818C576.842,826.729 576.805,826.64 576.767,826.551ZM575.14,837.224C575.11,837.24 575.079,837.257 575.05,837.275C573.467,838.252 572.363,837.791 571.193,837.164C569.973,836.511 569.101,835.903 567.801,834.944C568.729,834.714 569.335,834.312 570.376,833.61C570.935,833.233 571.626,833.259 572.365,833.344C573.151,833.434 573.985,833.623 574.823,833.769C574.913,834.901 575.019,836.053 575.14,837.224ZM800.278,837.176C800.309,837.191 800.339,837.208 800.369,837.226C801.954,838.2 803.057,837.736 804.225,837.106C805.444,836.449 806.314,835.84 807.611,834.877C806.683,834.649 806.076,834.249 805.033,833.55C804.473,833.174 803.783,833.201 803.044,833.289C802.257,833.381 801.425,833.572 800.586,833.72C800.5,834.852 800.397,836.005 800.278,837.176ZM574.567,829.673C573.521,828.702 572.297,827.746 571.085,826.796C569.131,825.262 567.194,823.76 566.426,822.11C565.656,820.455 565.725,819.572 565.622,818.296C565.574,817.712 565.501,817.056 565.332,816.244C566.238,816.936 567.02,817.331 567.714,817.692C568.473,818.088 569.112,818.408 569.679,819.291C571.336,821.874 573.219,824.254 574.483,827.048C574.499,827.905 574.527,828.781 574.567,829.673ZM800.832,829.623C801.876,828.65 803.097,827.691 804.307,826.737C806.257,825.199 808.191,823.692 808.955,822.04C809.721,820.383 809.649,819.5 809.749,818.224C809.795,817.64 809.866,816.983 810.033,816.172C809.13,816.865 808.348,817.262 807.655,817.625C806.897,818.023 806.259,818.344 805.695,819.229C804.044,821.816 802.167,824.201 800.91,826.999C800.896,827.856 800.87,828.731 800.832,829.623ZM759.239,728.751C760.123,753.374 760.899,777.254 761.667,799.221C761.263,799.236 760.879,799.464 760.684,799.851C758.105,804.965 755.715,808.429 753.479,810.232C752.25,811.222 751.114,811.682 750.023,811.477C748.952,811.275 747.964,810.468 746.996,809.164C745.288,806.863 743.756,803.102 742.402,797.922C737.165,777.884 734.859,737.147 738.048,676.887C740.441,690.76 743.523,704.718 747.081,718.804C746.944,723.763 748.164,728.312 750.403,732.555C751.411,729.549 752.584,726.592 752.955,723.508C754.376,711.68 755.539,700.749 757.236,690.019C757.513,693.181 757.813,696.296 758.138,699.356C758.477,707.97 758.798,716.551 759.106,725.049C759.097,725.059 759.089,725.069 759.08,725.08C755.472,729.748 752.784,734.844 750.929,740.328C749.537,735.51 746.783,731.447 743.136,727.877C742.818,727.566 742.349,727.467 741.933,727.623C741.517,727.778 741.228,728.16 741.192,728.603C740.689,734.768 741.72,740.541 745.253,745.674C743.56,745.32 741.876,745.459 740.208,746.176C739.698,746.395 739.418,746.947 739.544,747.487C740.151,750.104 742.364,752.518 748.049,754.081C747.085,764.08 748.199,775.037 751.007,786.772C750.973,787.003 750.949,787.239 750.936,787.481C750.801,790.055 752.022,792.214 753.66,792.299C755.297,792.385 756.736,790.365 756.871,787.791C757.005,785.218 755.785,783.059 754.147,782.973C753.601,782.945 753.077,783.15 752.616,783.533C747.916,762.069 749.185,743.388 759.239,728.751ZM615.907,728.696C615.085,753.322 614.369,777.204 613.656,799.173C614.06,799.186 614.445,799.414 614.64,799.8C617.232,804.908 619.631,808.366 621.872,810.163C623.103,811.15 624.241,811.607 625.33,811.399C626.401,811.194 627.387,810.385 628.351,809.079C630.054,806.774 631.576,803.009 632.917,797.825C638.105,777.774 640.308,737.032 636.968,676.78C634.61,690.659 631.563,704.624 628.04,718.719C628.19,723.677 626.981,728.23 624.752,732.478C623.737,729.475 622.556,726.521 622.178,723.438C620.728,711.614 619.537,700.685 617.813,689.96C617.544,693.122 617.252,696.238 616.934,699.299C616.617,707.914 616.317,716.496 616.031,724.994C616.04,725.004 616.048,725.015 616.056,725.025C619.676,729.684 622.377,734.773 624.246,740.252C625.626,735.431 628.369,731.361 632.008,727.782C632.325,727.471 632.793,727.37 633.21,727.525C633.627,727.679 633.916,728.061 633.954,728.503C634.472,734.667 633.455,740.442 629.935,745.585C631.628,745.226 633.312,745.361 634.982,746.073C635.492,746.291 635.773,746.843 635.649,747.383C635.049,750.001 632.842,752.421 627.161,753.999C628.15,763.995 627.064,774.955 624.284,786.697C624.32,786.927 624.344,787.164 624.358,787.406C624.499,789.979 623.284,792.141 621.646,792.231C620.008,792.321 618.565,790.304 618.424,787.731C618.283,785.158 619.498,782.996 621.135,782.906C621.681,782.876 622.206,783.08 622.668,783.462C627.314,761.986 625.998,743.308 615.907,728.696ZM545.999,752.237C545.261,750.832 544.537,749.001 543.896,746.723C541.08,736.712 539.565,717.644 544.278,688.096C544.314,687.873 544.412,687.675 544.552,687.517C544.859,686.205 545.602,685.279 546.455,685.292C547.559,685.309 548.431,686.89 548.402,688.822C548.373,690.753 547.453,692.308 546.349,692.291C546.218,692.289 546.09,692.265 545.966,692.221C542.618,715.145 543.153,731.285 545.024,741.395C545.794,745.557 546.784,748.674 547.824,750.798C548.445,752.067 549.061,752.957 549.665,753.451C550.16,753.856 550.724,753.811 551.349,753.456C552.35,752.888 553.426,751.706 554.624,749.989C560.772,741.171 569.19,718.962 579.298,687.056C579.473,686.507 580.024,686.18 580.576,686.272C581.889,678.304 583.385,670.02 585.004,661.499C580.68,671.893 576.881,679.397 573.613,684.447C570.632,689.052 568.022,691.671 565.875,692.688C565.301,692.96 564.746,693.135 564.213,693.215C563.109,698.151 560.313,702.166 556.152,705.441C554.945,700.6 554.698,695.737 559.541,690.758L559.542,690.758C558.635,689.387 557.91,687.466 557.404,685.027C555.245,674.628 556.64,654.375 561.603,631.869C549.59,653.882 542.294,666.43 528.383,688.676L528.397,689.02C525.641,711.284 525.699,729.72 527.835,745.329C530.048,747.481 532.593,749.414 535.461,751.134C533.76,755.961 532.706,760.875 532.24,765.867C537.603,783.672 546.142,797.155 556.028,808.807C565.026,778.894 571.373,738.153 578.873,695.881C569.81,723.75 562.178,743.161 556.504,751.299C556.042,751.962 555.589,752.554 555.147,753.074C560.814,759.779 563.373,766.964 563.257,774.556C563.25,774.982 563.008,775.369 562.628,775.561C562.248,775.753 561.793,775.719 561.446,775.472C558.167,773.137 555.282,770.368 553.337,766.563C553.138,773.09 552.262,779.615 550.547,786.14C550.421,786.62 550,786.964 549.505,786.992C549.01,787.021 548.552,786.728 548.372,786.265C545.59,779.142 544.751,772.011 545.593,764.875C543.343,767.888 540.501,769.93 536.945,770.769C536.59,770.853 536.216,770.763 535.938,770.526C535.66,770.289 535.512,769.934 535.539,769.569C536.034,762.909 539.139,757.074 545.766,752.365C545.84,752.313 545.918,752.27 545.999,752.237ZM829.206,752.116C829.94,750.709 830.66,748.877 831.295,746.596C834.086,736.579 835.553,717.507 830.766,687.971C830.729,687.748 830.631,687.55 830.491,687.393C830.18,686.081 829.435,685.157 828.582,685.172C827.478,685.192 826.61,686.776 826.644,688.707C826.678,690.638 827.601,692.191 828.705,692.171C828.836,692.169 828.965,692.144 829.088,692.1C832.494,715.016 831.999,731.157 830.154,741.272C829.394,745.435 828.412,748.555 827.377,750.681C826.759,751.952 826.146,752.843 825.543,753.339C825.049,753.745 824.485,753.702 823.859,753.348C822.857,752.783 821.777,751.603 820.576,749.889C814.405,741.087 805.932,718.899 795.743,687.019C795.567,686.47 795.016,686.145 794.463,686.237C793.131,678.273 791.613,669.993 789.973,661.476C794.323,671.859 798.141,679.354 801.422,684.396C804.414,688.993 807.031,691.606 809.18,692.617C809.755,692.888 810.31,693.061 810.844,693.14C811.96,698.073 814.766,702.081 818.935,705.345C820.13,700.501 820.365,695.638 815.509,690.671L815.509,690.671C816.412,689.298 817.133,687.375 817.633,684.935C819.765,674.53 818.319,654.281 813.3,631.788C825.368,653.77 832.696,666.3 846.663,688.511L846.649,688.855C849.461,711.112 849.45,729.548 847.352,745.162C845.145,747.319 842.605,749.259 839.741,750.986C841.455,755.809 842.521,760.72 842.999,765.711C837.681,783.53 829.175,797.034 819.319,808.711C810.245,778.82 803.796,738.095 796.191,695.843C805.323,723.689 813.004,743.081 818.699,751.204C819.163,751.866 819.617,752.456 820.06,752.976C814.41,759.695 811.869,766.887 812.004,774.478C812.012,774.904 812.255,775.29 812.635,775.481C813.016,775.672 813.471,775.637 813.817,775.389C817.09,773.047 819.968,770.27 821.904,766.46C822.119,772.986 823.011,779.51 824.743,786.03C824.87,786.51 825.292,786.853 825.787,786.88C826.283,786.907 826.739,786.613 826.919,786.15C829.682,779.019 830.504,771.887 829.643,764.753C831.901,767.76 834.748,769.795 838.306,770.626C838.662,770.709 839.036,770.617 839.313,770.379C839.59,770.142 839.737,769.786 839.709,769.422C839.198,762.763 836.078,756.936 829.439,752.244C829.365,752.191 829.287,752.149 829.206,752.116ZM549.885,756.022C549.834,756.185 549.781,756.347 549.728,756.508C547.119,764.922 546.793,773.326 549.241,781.721C550.898,773.907 551.365,766.091 550.944,758.275C550.863,757.558 550.806,756.815 550.774,756.043C550.471,756.078 550.174,756.07 549.885,756.022ZM825.329,755.911C825.381,756.074 825.434,756.235 825.487,756.396C828.117,764.803 828.465,773.207 826.037,781.608C824.361,773.798 823.874,765.983 824.276,758.167C824.355,757.449 824.41,756.705 824.44,755.934C824.744,755.968 825.04,755.96 825.329,755.911ZM590.611,773.617C593.978,770.704 596.924,766.782 599.516,762.003C604.68,752.481 608.419,739.596 611.154,724.427C612.571,716.57 613.716,708.104 614.646,699.173C614.755,696.197 616.345,678.22 616.404,678.212C617.124,667.359 617.617,656.052 617.963,644.506C617.724,644.478 617.492,644.375 617.305,644.197C616.847,643.761 616.83,643.035 617.266,642.577C617.526,642.305 617.784,642.03 618.042,641.754C618.156,637.687 618.252,633.591 618.334,629.479C618.251,629.342 618.195,629.186 618.176,629.017C618.143,628.738 618.214,628.47 618.358,628.253C618.469,622.534 618.553,616.782 618.621,611.022C614.333,657.1 610.37,705.07 603.49,736.221C599.927,752.356 595.497,764.026 589.963,768.813C589.884,768.881 589.798,768.937 589.708,768.98C590.159,770.553 590.455,772.095 590.611,773.617ZM784.648,773.608C781.273,770.704 778.318,766.788 775.714,762.016C770.525,752.507 766.754,739.632 763.981,724.47C762.545,716.616 761.378,708.153 760.426,699.224C760.309,696.249 758.674,678.275 758.616,678.268C757.868,667.417 757.347,656.111 756.972,644.565C757.211,644.537 757.443,644.434 757.629,644.255C758.086,643.818 758.101,643.092 757.664,642.635C757.404,642.363 757.144,642.09 756.886,641.814C756.762,637.747 756.656,633.652 756.563,629.539C756.646,629.403 756.701,629.246 756.72,629.077C756.752,628.798 756.68,628.531 756.536,628.314C756.411,622.595 756.312,616.844 756.23,611.084C760.633,657.151 764.716,705.11 771.675,736.245C775.279,752.37 779.737,764.029 785.284,768.802C785.363,768.87 785.449,768.926 785.54,768.969C785.092,770.543 784.8,772.085 784.648,773.608ZM588.388,768.741C588.382,768.735 588.376,768.728 588.37,768.722C586.699,766.906 585.376,764.097 584.423,760.37C583.062,755.047 582.419,747.788 582.389,738.922C582.291,710.287 588.557,664.696 596.907,613.571C595.078,622.568 593.257,631.469 591.503,640.205L591.561,640.287C591.929,640.802 591.809,641.518 591.295,641.886C591.247,641.919 591.198,641.949 591.148,641.975L590.759,643.922C590.607,644.684 590.455,645.445 590.304,646.207L589.905,648.217C590.11,648.475 590.202,648.819 590.129,649.166C587.387,662.18 584.887,675.377 582.521,688.481C579.123,709.44 577.062,728.132 577.511,743.114C577.922,756.858 580.391,767.432 586.061,773.592C586.618,772.004 587.381,770.393 588.388,768.741ZM786.859,768.726C786.865,768.72 786.87,768.714 786.876,768.707C788.543,766.887 789.859,764.075 790.803,760.345C792.151,755.019 792.775,747.758 792.783,738.892C792.809,710.257 786.428,664.682 777.95,613.578C779.801,622.57 781.645,631.467 783.421,640.199L783.363,640.281C782.997,640.796 783.118,641.512 783.633,641.878C783.681,641.912 783.73,641.942 783.78,641.967L784.175,643.914C784.328,644.675 784.482,645.436 784.635,646.197L785.039,648.206C784.835,648.465 784.743,648.809 784.817,649.156C787.592,662.163 790.125,675.354 792.524,688.452C795.974,709.402 798.082,728.089 797.671,743.072C797.294,756.817 794.852,767.397 789.198,773.571C788.637,771.985 787.869,770.375 786.859,768.726ZM553.529,754.711C553.354,754.856 553.182,754.989 553.012,755.11C553.026,755.168 553.036,755.228 553.041,755.29C553.115,756.208 553.177,757.125 553.227,758.042C553.995,764.729 557.001,768.949 560.908,772.177C560.506,766.039 558.125,760.206 553.529,754.711ZM821.682,754.608C821.857,754.754 822.03,754.886 822.2,755.006C822.186,755.064 822.177,755.125 822.172,755.187C822.1,756.104 822.04,757.022 821.993,757.939C821.241,764.627 818.246,768.855 814.347,772.093C814.734,765.954 817.1,760.115 821.682,754.608ZM547.199,754.149C547.166,754.179 547.13,754.207 547.093,754.233C541.681,758.079 538.84,762.739 538.017,768.045C542.601,766.273 545.556,761.861 547.547,755.806C547.632,755.532 547.72,755.256 547.81,754.98C547.82,754.949 547.832,754.919 547.844,754.889C547.632,754.678 547.417,754.432 547.199,754.149ZM828.011,754.031C828.044,754.061 828.079,754.089 828.117,754.115C833.539,757.947 836.391,762.6 837.227,767.904C832.639,766.143 829.673,761.739 827.667,755.689C827.581,755.414 827.493,755.139 827.402,754.864C827.391,754.833 827.38,754.802 827.367,754.773C827.579,754.561 827.794,754.314 828.011,754.031ZM596.546,630.258C589.562,674.542 584.594,713.449 584.68,738.914C584.71,747.548 585.317,754.619 586.643,759.802C587.336,762.513 588.213,764.689 589.327,766.263C594.218,761.236 598.021,750.36 601.253,735.727C606.729,710.932 610.348,675.464 613.759,638.791C613.28,640.226 612.771,641.659 612.229,643.089C612.29,643.489 612.134,643.894 611.821,644.15C609.248,650.733 605.967,657.265 601.756,663.734C601.51,664.112 601.066,664.31 600.62,664.241C600.175,664.172 599.812,663.849 599.691,663.415C597.98,657.229 596.912,651.053 596.366,644.884C596.345,644.873 596.325,644.861 596.304,644.848C596.287,644.838 596.194,642.849 596.204,642.833C595.87,638.073 596.183,634.498 596.546,630.258ZM778.353,630.264C785.448,674.53 790.514,713.425 790.491,738.89C790.484,747.524 789.894,754.596 788.581,759.783C787.895,762.495 787.023,764.673 785.913,766.251C781.01,761.235 777.18,750.369 773.911,735.745C768.373,710.964 764.664,675.505 761.162,638.84C761.644,640.274 762.157,641.705 762.702,643.134C762.642,643.534 762.799,643.94 763.113,644.194C765.702,650.771 769,657.295 773.227,663.753C773.474,664.13 773.919,664.328 774.364,664.258C774.809,664.188 775.172,663.863 775.291,663.428C776.987,657.238 778.039,651.06 778.569,644.89C778.59,644.878 778.611,644.866 778.631,644.854C778.649,644.843 778.737,642.854 778.727,642.838C779.049,638.078 778.727,634.503 778.353,630.264ZM748.615,749.705C746.432,748.183 744.276,747.433 742.131,747.942C742.927,749.497 744.798,750.768 748.31,751.775C748.401,751.08 748.503,750.39 748.615,749.705ZM626.584,749.624C628.763,748.096 630.917,747.341 633.063,747.845C632.271,749.402 630.404,750.677 626.894,751.693C626.801,750.998 626.698,750.309 626.584,749.624ZM734.683,749.931C731.627,727.24 728.945,704.577 726.593,681.934C728.012,678.745 729.592,675.996 731.386,674.88C728.454,672.602 726.256,666.352 724.469,660.56C723.683,652.279 722.939,643.999 722.236,635.722C724.578,643.064 733.62,658.079 735.223,657.948C735.672,661.555 736.176,665.166 736.728,668.781C736.404,668.967 736.177,669.308 736.153,669.709C734.28,701.697 733.912,728.49 734.683,749.931ZM640.516,749.815C643.515,727.117 646.14,704.447 648.436,681.798C647.008,678.613 645.421,675.867 643.625,674.756C646.551,672.471 648.733,666.215 650.506,660.418C651.271,652.136 651.994,643.854 652.676,635.575C650.352,642.923 641.349,657.961 639.745,657.834C639.305,661.441 638.811,665.054 638.267,668.67C638.592,668.855 638.82,669.196 638.845,669.596C640.798,701.58 641.234,728.372 640.516,749.815ZM749.567,745.019C749.521,744.916 749.49,744.805 749.476,744.687C748.863,739.487 746.632,735.181 743.366,731.448C743.369,737.083 744.967,742.312 749.143,746.88C749.275,746.256 749.416,745.636 749.567,745.019ZM625.62,744.94C625.665,744.837 625.696,744.726 625.71,744.608C626.31,739.407 628.53,735.095 631.787,731.353C631.798,736.989 630.213,742.222 626.049,746.8C625.915,746.176 625.772,745.556 625.62,744.94ZM748.872,716.528C739.982,680.976 734.194,646.241 734.988,611.599C735.329,612.442 735.677,613.274 736.032,614.095C736.115,647.277 741.528,680.981 749.62,716.061L748.872,716.528ZM626.243,716.448C635.044,680.873 640.745,646.124 639.864,611.484C639.525,612.328 639.18,613.16 638.826,613.983C638.827,647.165 633.498,680.883 625.494,715.983L626.243,716.448ZM751.677,714.778C744.131,681.929 738.955,650.289 738.376,619.147C742.948,628.362 748.464,636.07 754.625,642.748C755.092,657.755 755.462,671.666 756.575,685.439C754.97,687.338 751.84,699.83 752.086,714.522L751.677,714.778ZM623.434,714.705C630.898,681.837 635.994,650.183 636.495,619.04C631.946,628.267 626.449,635.989 620.305,642.682C619.876,657.69 619.541,671.603 618.462,685.378C620.072,687.273 623.234,699.757 623.024,714.45L623.434,714.705ZM576.348,591.774C561.83,627.166 556.253,668.209 559.648,684.562C560.062,686.559 560.606,688.167 561.306,689.313C561.704,689.963 562.137,690.454 562.64,690.725C560.176,686.565 559.024,679.079 559.386,669.213C559.876,655.874 563.038,638.079 568.966,618.387C571.122,611.227 573.643,603.817 576.534,596.281C576.453,594.792 576.392,593.288 576.348,591.774ZM798.454,591.729C813.061,627.085 818.741,668.114 815.388,684.475C814.978,686.474 814.439,688.083 813.741,689.23C813.345,689.882 812.913,690.374 812.411,690.645C814.865,686.479 815.997,678.991 815.61,669.126C815.087,655.788 811.881,638.001 805.903,618.324C803.729,611.17 801.189,603.765 798.28,596.237C798.357,594.747 798.414,593.244 798.454,591.729ZM576.925,601.759C567.324,627.983 562.301,652.291 561.676,669.297C561.311,679.254 562.39,686.646 565.087,690.281C565.206,690.21 565.365,690.108 565.489,690.003C565.999,689.569 566.588,688.898 567.259,688.013C571.514,682.403 578.595,668.733 586.936,650.439C587.004,650.288 587.102,650.16 587.218,650.056C587.825,646.97 588.444,643.859 589.071,640.725C581.821,630.124 578.267,616.762 576.925,601.759ZM797.903,601.716C807.569,627.915 812.653,652.212 813.32,669.215C813.711,679.172 812.65,686.566 809.963,690.208C809.843,690.137 809.684,690.036 809.56,689.931C809.049,689.499 808.458,688.828 807.785,687.945C803.516,682.346 796.401,668.694 788.014,650.421C787.945,650.27 787.847,650.142 787.73,650.039C787.116,646.954 786.489,643.844 785.854,640.712C793.077,630.093 796.598,616.722 797.903,601.716ZM575.02,496.733C560.791,529.006 550.098,559.516 545.286,579.173C543.724,585.556 542.78,590.807 542.524,594.62C542.34,597.359 542.527,599.406 543.032,600.671C543.476,601.785 544.189,602.452 545.1,602.727C545.376,602.811 545.678,602.857 546.005,602.86C542.937,611.292 540.988,618.543 539.993,624.385C538.994,630.252 538.959,634.744 539.674,637.642C539.816,638.22 539.991,638.741 540.194,639.205C538.072,642.627 533.726,653.575 534.917,654.533C536.24,655.596 542.998,645.461 544.064,642.198C545.136,642.255 546.449,641.999 547.999,641.357C550.392,640.367 553.467,638.447 557.244,635.541C547.948,652.042 538.296,668.394 528.235,684.581C526.655,633.451 534.889,582.273 555.158,531.043C561.958,519.555 568.57,508.121 575.02,496.733ZM799.543,496.685C813.854,528.922 824.623,559.406 829.484,579.05C831.063,585.429 832.02,590.678 832.286,594.491C832.476,597.229 832.294,599.277 831.793,600.543C831.351,601.658 830.64,602.326 829.729,602.604C829.454,602.688 829.152,602.735 828.825,602.739C831.914,611.163 833.881,618.41 834.891,624.249C835.905,630.114 835.951,634.606 835.244,637.506C835.103,638.084 834.929,638.605 834.727,639.07C836.857,642.486 841.231,653.423 840.042,654.384C838.722,655.451 831.939,645.332 830.864,642.072C829.792,642.132 828.48,641.879 826.927,641.241C824.532,640.257 821.452,638.345 817.668,635.449C827.005,651.926 836.698,668.254 846.8,684.415C848.252,633.281 839.89,582.125 819.491,530.946C812.663,519.475 806.022,508.057 799.543,496.685ZM774.607,668.447C776.082,668.421 777.3,669.597 777.326,671.072C777.352,672.546 776.176,673.764 774.701,673.79C773.227,673.816 772.008,672.64 771.982,671.166C771.956,669.691 773.133,668.473 774.607,668.447ZM600.388,668.431C598.913,668.409 597.698,669.588 597.675,671.063C597.653,672.538 598.832,673.753 600.307,673.775C601.782,673.797 602.997,672.618 603.019,671.143C603.041,669.669 601.862,668.453 600.388,668.431ZM769.656,634.14C769.564,642.41 771.911,650.443 774.194,658.351C775.311,653.366 776.019,648.388 776.388,643.417C774.464,640.319 771.552,637.239 769.656,634.14ZM605.253,634.113C605.365,642.382 603.039,650.421 600.776,658.334C599.646,653.352 598.925,648.376 598.543,643.406C600.46,640.304 603.364,637.216 605.253,634.113ZM746.645,651.264C748.12,651.238 749.338,652.414 749.364,653.889C749.39,655.363 748.214,656.581 746.739,656.607C745.264,656.633 744.046,655.457 744.02,653.983C743.994,652.508 745.17,651.29 746.645,651.264ZM628.306,651.178C626.832,651.156 625.617,652.335 625.594,653.81C625.572,655.284 626.751,656.5 628.226,656.522C629.701,656.544 630.916,655.365 630.938,653.89C630.96,652.416 629.781,651.2 628.306,651.178ZM767.476,635.629L765.161,643.138C766.886,647.549 768.937,651.937 771.382,656.298C769.678,649.435 767.635,642.56 767.476,635.629ZM607.437,635.595L609.77,643.099C608.056,647.515 606.017,651.908 603.583,656.274C605.269,649.407 607.295,642.527 607.437,635.595ZM734.806,654.47C728.076,644.823 723.788,635.058 721.364,625.201C720.559,615.241 719.811,605.285 719.116,595.329C719.335,592.342 719.669,589.346 720.103,586.345C721.633,575.748 724.397,565.091 727.727,554.405C727.66,554.928 727.614,555.431 727.588,555.912C719.87,590.533 719.497,616.665 725.561,632.37C727.944,638.54 730.865,643.997 734.142,648.223C734.345,650.303 734.566,652.384 734.806,654.47ZM640.154,654.354C646.859,644.691 651.123,634.915 653.522,625.052C654.302,615.09 655.025,605.132 655.695,595.175C655.469,592.188 655.127,589.193 654.686,586.193C653.129,575.6 650.338,564.95 646.981,554.272C647.049,554.795 647.097,555.298 647.124,555.779C654.929,590.381 655.368,616.511 649.343,632.231C646.976,638.408 644.068,643.872 640.801,648.106C640.604,650.186 640.388,652.268 640.154,654.354ZM574.752,644.042C573.278,644.02 572.062,645.199 572.04,646.674C572.018,648.148 573.197,649.363 574.672,649.386C576.146,649.408 577.362,648.229 577.384,646.754C577.406,645.279 576.227,644.064 574.752,644.042ZM800.181,643.993C801.656,643.967 802.874,645.143 802.9,646.618C802.926,648.093 801.75,649.311 800.275,649.337C798.8,649.363 797.582,648.187 797.556,646.712C797.53,645.237 798.706,644.019 800.181,643.993ZM733.711,643.445C731.484,639.907 730.09,637.737 727.699,631.545C722.91,619.143 722.261,600.163 726.123,575.578C727.514,587.079 729.825,597.12 732.882,605.972C732.341,618.443 732.671,630.922 733.711,643.445ZM641.221,643.327C643.439,639.783 644.827,637.61 647.203,631.411C651.961,618.997 652.563,600.016 648.638,575.441C647.276,586.946 644.99,596.992 641.956,605.852C642.528,618.322 642.23,630.802 641.221,643.327ZM760.17,628.389C759.255,618.704 758.344,609 757.406,599.447C758.849,604.99 760.546,609.241 762.088,612.295C761.584,612.154 761.31,611.638 761.288,612.199C760.946,621.076 762.038,630.012 764.167,639.455L764.011,640.063C762.711,636.422 761.621,632.766 760.701,629.098C760.624,628.788 760.426,628.54 760.17,628.389ZM614.724,628.338C615.615,618.65 616.502,608.944 617.415,599.389C615.987,604.935 614.3,609.19 612.766,612.248C613.269,612.106 613.543,611.589 613.566,612.15C613.929,621.026 612.86,629.965 610.755,639.414L610.912,640.021C612.203,636.377 613.284,632.718 614.195,629.048C614.272,628.738 614.469,628.488 614.724,628.338ZM591.673,526.083C564.393,567.165 545.574,610.826 543.111,629.542C542.672,632.874 542.758,635.465 543.332,637.181C543.767,638.48 544.481,639.349 545.41,639.813C544.668,639.983 544.052,639.986 543.552,639.785C542.735,639.457 542.245,638.498 541.899,637.093C541.234,634.399 541.323,630.225 542.252,624.77C545.61,605.061 559.976,569.203 591.673,526.083ZM782.964,526.077C810.347,567.091 829.276,610.705 831.786,629.414C832.233,632.745 832.154,635.336 831.584,637.053C831.153,638.354 830.441,639.224 829.513,639.691C830.255,639.858 830.872,639.86 831.371,639.658C832.187,639.328 832.674,638.368 833.017,636.962C833.675,634.266 833.575,630.092 832.633,624.64C829.226,604.939 814.769,569.118 782.964,526.077ZM771.476,612.035C772.284,608.925 772.985,604.69 773.25,599.428C774.639,607.604 775.985,615.669 777.273,623.583C776.692,623.676 776.27,624.202 776.315,624.799C776.681,629.672 776.802,634.548 776.613,639.43C776.131,638.651 775.539,637.881 774.891,637.117C774.849,628.877 774.049,620.813 772.429,612.938C772.329,612.454 771.938,612.105 771.476,612.035ZM603.377,612.012C602.562,608.904 601.85,604.67 601.571,599.409C600.203,607.589 598.877,615.657 597.609,623.574C598.19,623.666 598.614,624.191 598.571,624.788C598.216,629.661 598.108,634.538 598.309,639.42C598.789,638.639 599.379,637.868 600.026,637.102C600.046,628.863 600.826,620.796 602.426,612.917C602.525,612.433 602.915,612.082 603.377,612.012ZM754.282,629.916C754.352,633.021 754.431,636.118 754.519,639.202C748.255,632.041 742.741,623.689 738.321,613.597C738.311,601.516 739.016,589.502 740.566,577.514C741.625,582.978 742.883,587.943 744.104,590.175C744.826,591.496 744.831,594.63 744.831,594.63C744.84,595.216 745.29,595.7 745.873,595.752C746.456,595.805 746.985,595.41 747.1,594.835C747.1,594.835 747.326,593.702 747.738,592.563C747.972,591.916 748.246,591.252 748.61,590.886C750.271,589.212 752.637,584.124 754.31,579.668C754.373,580.576 754.444,581.466 754.523,582.338C754.011,582.456 753.631,582.918 753.636,583.465C753.717,592.467 753.804,601.547 753.933,610.61C752.098,607.592 749.847,605.327 747.281,603.643C746.969,603.438 746.578,603.398 746.231,603.535C745.884,603.672 745.626,603.969 745.538,604.331C743.071,614.527 743.674,621.27 746.477,625.269C748.246,627.792 750.882,629.308 754.282,629.916ZM620.616,629.849C620.553,632.955 620.483,636.052 620.402,639.136C626.649,631.959 632.142,623.593 636.536,613.491C636.515,601.41 635.781,589.397 634.2,577.413C633.155,582.879 631.909,587.848 630.694,590.083C629.976,591.405 629.979,594.54 629.979,594.54C629.971,595.126 629.522,595.611 628.939,595.665C628.356,595.719 627.826,595.325 627.71,594.751C627.71,594.751 627.481,593.618 627.066,592.48C626.831,591.834 626.555,591.171 626.19,590.805C624.525,589.136 622.146,584.054 620.462,579.602C620.401,580.51 620.332,581.4 620.255,582.272C620.768,582.389 621.149,582.85 621.146,583.397C621.087,592.399 621.023,601.48 620.917,610.543C622.744,607.52 624.989,605.249 627.551,603.559C627.862,603.354 628.254,603.313 628.601,603.449C628.948,603.585 629.207,603.881 629.295,604.243C631.789,614.432 631.202,621.176 628.409,625.182C626.647,627.711 624.015,629.233 620.616,629.849ZM576.264,586.152C576.247,575.374 577.009,564.017 578.098,552.425C562.786,579.112 551.771,604.498 547.299,620.859C545.638,626.936 544.875,631.731 545.185,634.836C545.274,635.726 545.447,636.459 545.74,637.013C545.945,637.401 546.205,637.685 546.558,637.817C547.227,638.069 548.14,637.897 549.344,637.437C551.596,636.576 554.624,634.658 558.545,631.578L558.69,631.481L558.875,631.397L559.06,631.35L559.256,631.333L559.444,631.35L559.577,631.384C561.443,628.045 562.296,626.177 563.537,623.708C566.713,611.182 570.954,598.251 576.264,586.152ZM798.524,586.107C798.514,575.329 797.723,563.974 796.606,552.385C811.985,579.034 823.063,604.392 827.576,620.741C829.252,626.814 830.027,631.607 829.725,634.713C829.638,635.604 829.467,636.337 829.176,636.891C828.971,637.28 828.713,637.564 828.36,637.698C827.692,637.951 826.777,637.782 825.573,637.325C823.318,636.47 820.286,634.559 816.357,631.489L816.212,631.392L816.027,631.309L815.842,631.262L815.646,631.246L815.458,631.262L815.325,631.297C813.45,627.963 812.593,626.097 811.345,623.631C808.138,611.113 803.864,598.193 798.524,586.107ZM589.369,572.348C585.421,580.525 581.902,588.709 578.807,596.746C579.698,612.375 582.773,626.376 589.715,637.52C590.49,633.665 591.278,629.779 592.073,625.867C591.906,625.997 591.702,626.082 591.477,626.103C589.465,626.292 587.905,625.892 586.734,625.045C585.555,624.193 584.742,622.866 584.32,621.08C583.243,616.52 584.818,608.583 588.176,598.564C588.321,598.129 588.712,597.823 589.168,597.786C589.625,597.748 590.06,597.986 590.274,598.391C592.288,602.188 593.983,606.239 595.154,610.708C597.088,601.172 599.024,591.541 600.892,581.9C600.986,581.415 601.38,581.045 601.87,580.982C602.023,580.962 602.175,580.974 602.317,581.012C602.369,580.591 602.424,580.169 602.481,579.743C601.909,580.447 601.293,581.135 600.657,581.767C599.034,583.378 597.266,584.61 595.754,584.968C595.03,585.14 594.379,585.933 593.787,586.741C592.707,588.215 591.953,589.916 591.953,589.916C591.706,590.472 591.069,590.738 590.5,590.523C589.932,590.309 589.63,589.687 589.812,589.108C589.812,589.108 590.251,587.713 590.449,586.22C590.562,585.372 590.631,584.484 590.39,583.89C589.706,582.204 589.367,579.294 589.326,575.841C589.313,574.726 589.328,573.553 589.369,572.348ZM785.384,572.336C789.353,580.503 792.892,588.678 796.008,596.708C795.156,612.338 792.116,626.347 785.202,637.509C784.417,633.656 783.62,629.772 782.815,625.862C782.982,625.991 783.186,626.076 783.412,626.097C785.424,626.281 786.983,625.876 788.151,625.027C789.329,624.171 790.138,622.843 790.556,621.056C791.622,616.493 790.026,608.56 786.644,598.549C786.497,598.115 786.106,597.81 785.649,597.773C785.193,597.737 784.758,597.976 784.544,598.381C782.54,602.184 780.855,606.238 779.696,610.71C777.738,601.179 775.778,591.554 773.885,581.917C773.79,581.433 773.395,581.064 772.905,581.001C772.752,580.982 772.601,580.994 772.458,581.033C772.405,580.612 772.349,580.19 772.291,579.764C772.865,580.467 773.482,581.153 774.12,581.783C775.747,583.39 777.519,584.618 779.031,584.973C779.755,585.142 780.409,585.933 781.003,586.74C782.086,588.211 782.845,589.911 782.845,589.911C783.093,590.466 783.731,590.731 784.299,590.514C784.867,590.298 785.167,589.676 784.983,589.097C784.983,589.097 784.542,587.703 784.339,586.211C784.225,585.363 784.153,584.476 784.393,583.88C785.072,582.193 785.404,579.283 785.436,575.829C785.447,574.714 785.428,573.541 785.384,572.336ZM763.354,614.608C764.22,616.061 764.998,617.102 765.597,617.756C766.418,618.623 766.171,620.316 765.81,620.266C765.62,620.603 765.477,620.939 765.448,621.273C765.304,622.942 767.003,624.403 767.536,626.237C767.907,624.161 769.618,622.872 769.448,621.203C769.414,620.87 769.222,620.54 768.982,620.211C768.627,620.21 768.508,618.564 769.208,617.74C769.528,617.288 769.873,616.672 770.209,615.885C770.309,615.652 770.409,615.402 770.511,615.134C771.512,620.902 772.357,629.772 772.984,635.002C771.373,633.278 769.721,631.558 768.643,629.785C768.421,629.42 768.015,629.208 767.589,629.236C767.162,629.264 766.787,629.527 766.615,629.918L765.246,635.251C763.622,627.611 763.127,622.088 763.354,614.608ZM611.506,614.565C610.643,616.019 609.868,617.062 609.271,617.718C608.451,618.587 608.703,620.28 609.064,620.229C609.255,620.565 609.398,620.901 609.428,621.234C609.577,622.904 607.881,624.369 607.353,626.204C606.976,624.129 605.262,622.844 605.429,621.174C605.462,620.841 605.652,620.511 605.891,620.181C606.247,620.179 606.361,618.534 605.66,617.711C605.338,617.26 604.992,616.644 604.654,615.859C604.553,615.626 604.452,615.376 604.35,615.108C603.363,620.879 602.54,629.751 601.927,634.983C603.533,633.254 605.182,631.53 606.255,629.754C606.476,629.389 606.881,629.176 607.308,629.203C607.734,629.23 608.11,629.492 608.283,629.882L609.665,635.212C611.27,627.568 611.751,622.044 611.506,614.565ZM754.23,627.571C752.435,627.191 750.908,626.501 749.69,625.441C747.891,623.876 746.79,621.519 746.411,618.285C746.046,615.173 746.351,611.289 747.382,606.54C749.997,608.613 752.17,611.484 753.776,615.394C753.832,615.532 753.913,615.652 754.01,615.753C754.073,619.703 754.145,623.645 754.23,627.571ZM620.662,627.505C622.456,627.12 623.981,626.426 625.197,625.363C626.992,623.794 628.087,621.434 628.458,618.199C628.814,615.086 628.5,611.203 627.457,606.456C624.847,608.536 622.682,611.412 621.086,615.326C621.03,615.464 620.95,615.585 620.852,615.686C620.799,619.636 620.737,623.578 620.662,627.505ZM594.051,616.139C593.968,616.011 593.909,615.865 593.883,615.706C593.032,610.624 591.476,606.105 589.489,601.928C587.352,608.701 586.136,614.315 586.273,618.292C586.353,620.597 586.847,622.299 588.077,623.188C588.86,623.754 589.918,623.948 591.263,623.822C591.728,623.778 592.155,624.02 592.37,624.403C592.928,621.66 593.489,618.904 594.051,616.139ZM780.813,616.139C780.895,616.011 780.954,615.865 780.98,615.705C781.817,610.621 783.363,606.098 785.338,601.917C787.493,608.684 788.723,614.295 788.596,618.273C788.522,620.578 788.032,622.281 786.804,623.173C786.023,623.741 784.965,623.937 783.62,623.815C783.154,623.772 782.728,624.015 782.514,624.399C781.95,621.657 781.382,618.902 780.813,616.139ZM764.66,561.962C765.097,561.631 765.518,561.248 765.922,560.814C767.119,565.015 768.069,569.015 768.81,572.803C768.797,572.881 768.788,572.962 768.783,573.046C768.759,573.444 768.848,573.98 769.077,574.606C769.118,574.716 769.163,574.83 769.212,574.947C772.37,592.588 770.97,605.385 769.097,612.074C768.634,613.73 768.147,614.996 767.694,615.845C767.616,615.991 767.521,616.139 767.431,616.271C766.841,615.584 765.617,614.057 764.571,612.105C761.15,605.715 756.739,593.044 756.299,572.946C756.355,572.418 756.339,572.018 756.278,571.779C756.237,568.887 756.278,565.842 756.416,562.644C756.626,562.763 756.837,562.871 757.05,562.968L757.812,563.501C758.454,573.062 760.41,582.601 763.334,592.123C763.496,592.648 764.007,592.985 764.554,592.925C765.1,592.866 765.527,592.426 765.572,591.879C766.375,581.944 766.238,571.978 764.66,561.962ZM610.067,561.922C609.629,561.591 609.208,561.21 608.802,560.777C607.616,564.981 606.676,568.984 605.944,572.773C605.958,572.851 605.967,572.932 605.973,573.016C605.997,573.414 605.91,573.951 605.682,574.577C605.642,574.687 605.597,574.801 605.548,574.918C602.434,592.567 603.867,605.361 605.756,612.045C606.224,613.7 606.714,614.964 607.169,615.812C607.247,615.958 607.342,616.106 607.433,616.237C608.021,615.549 609.241,614.019 610.282,612.064C613.687,605.666 618.066,592.984 618.456,572.885C618.398,572.357 618.414,571.957 618.474,571.718C618.508,568.826 618.459,565.781 618.313,562.583C618.104,562.703 617.893,562.811 617.68,562.908L616.919,563.444C616.301,573.006 614.37,582.55 611.469,592.079C611.309,592.605 610.798,592.943 610.251,592.885C609.705,592.826 609.277,592.388 609.231,591.841C608.403,581.908 608.515,571.942 610.067,561.922ZM739.298,570.158L739.302,570.184C737.322,582.772 736.297,595.382 736.077,608.066C735.775,607.261 735.48,606.446 735.191,605.619C735.725,593.798 737.047,581.989 739.298,570.158ZM635.45,570.054L635.446,570.08C637.457,582.663 638.514,595.27 638.766,607.954C639.066,607.148 639.359,606.332 639.646,605.505C639.083,593.685 637.73,581.88 635.45,570.054ZM547.346,599.283L546.922,600.392C546.394,600.595 545.974,600.665 545.642,600.483C545.421,600.361 545.281,600.125 545.161,599.823C544.74,598.768 544.657,597.056 544.81,594.774C545.06,591.057 545.989,585.939 547.512,579.718C552.212,560.517 562.554,530.918 576.321,499.469C561.353,540.284 548.083,577.65 546.069,592.006C545.659,594.931 545.751,596.998 546.245,598.077C546.515,598.667 546.898,599.056 547.346,599.283ZM827.475,599.166L827.902,600.274C828.43,600.475 828.851,600.544 829.182,600.361C829.403,600.239 829.542,600.002 829.662,599.7C830.08,598.644 830.158,596.932 830,594.65C829.741,590.934 828.798,585.819 827.26,579.601C822.511,560.412 812.096,530.84 798.25,499.425C813.32,540.202 826.684,577.534 828.733,591.886C829.151,594.81 829.064,596.877 828.573,597.957C828.304,598.548 827.922,598.938 827.475,599.166ZM733.24,599.524C730.546,590.291 728.625,579.826 727.646,567.856C727.634,567.706 727.593,567.565 727.529,567.437C727.896,565.482 728.289,563.498 728.708,561.482C728.964,561.884 729.264,562.247 729.608,562.573C730.565,563.478 730.772,564.44 730.816,564.834C730.801,565.122 730.814,565.29 730.814,565.29C730.849,565.864 731.304,566.322 731.878,566.362L731.977,566.364C732.51,566.355 732.972,565.978 733.08,565.448C733.08,565.448 733.155,565.149 733.129,564.655C733.223,563.881 733.615,562.354 735.213,561.249C736.201,560.566 737.123,559.77 737.981,558.88C738.075,560.568 738.312,562.921 738.655,565.597C738.184,565.659 737.782,566.012 737.682,566.504C735.43,577.523 733.986,588.52 733.24,599.524ZM641.581,599.404C644.252,590.165 646.147,579.695 647.096,567.723C647.108,567.573 647.148,567.431 647.212,567.304C646.84,565.35 646.443,563.366 646.019,561.352C645.763,561.754 645.464,562.118 645.12,562.445C644.166,563.352 643.961,564.315 643.918,564.709C643.934,564.996 643.922,565.165 643.922,565.165C643.888,565.738 643.434,566.198 642.861,566.239L642.761,566.242C642.229,566.234 641.766,565.858 641.656,565.328C641.656,565.328 641.58,565.029 641.605,564.536C641.509,563.762 641.113,562.236 639.513,561.135C638.523,560.454 637.599,559.661 636.738,558.773C636.648,560.462 636.418,562.815 636.081,565.491C636.553,565.552 636.955,565.905 637.057,566.396C639.336,577.409 640.808,588.402 641.581,599.404ZM548.267,596.942C548.247,596.888 548.229,596.832 548.217,596.78C547.989,595.822 548.059,594.317 548.339,592.325C550.782,574.906 569.895,523.497 588.403,473.281C588.477,473.079 588.491,472.869 588.453,472.671C591.198,467.684 593.914,462.706 596.604,457.735C590.569,480.152 582.613,526.793 581.708,536.153C565.773,559.379 554.987,580.147 548.267,596.942ZM826.548,596.827C826.568,596.773 826.585,596.717 826.598,596.664C826.823,595.707 826.749,594.201 826.465,592.21C823.978,574.797 804.736,523.437 786.102,473.267C786.027,473.065 786.012,472.855 786.05,472.657C783.293,467.677 780.564,462.706 777.862,457.742C783.953,480.143 792.026,526.765 792.954,536.122C808.948,559.308 819.786,580.049 826.548,596.827ZM589.849,565.271C585.648,571.859 581.871,579.099 578.52,586.675C578.524,588.155 578.543,589.624 578.579,591.082C581.869,582.923 585.588,574.651 589.742,566.415C589.776,566.033 589.812,565.652 589.849,565.271ZM784.887,565.261C789.104,571.838 792.9,579.069 796.27,586.636C796.269,588.116 796.254,589.585 796.222,591.043C792.911,582.893 789.171,574.63 784.997,566.404C784.962,566.022 784.925,565.641 784.887,565.261ZM741.402,568.952C740.831,565.044 740.428,561.458 740.283,559.091C740.226,558.155 740.254,557.153 740.266,556.839C740.403,556.624 740.47,556.361 740.438,556.087C740.43,556.022 740.417,555.959 740.399,555.897C743.047,552.04 744.849,547.203 745.849,542.31C746.03,542.99 746.213,543.653 746.398,544.3C747.288,547.424 748.223,550.179 749.204,552.552C749.194,552.574 749.184,552.597 749.175,552.621C746.385,559.923 744.257,567.239 743.98,574.58C743.961,575.061 744.246,575.503 744.692,575.684C745.138,575.866 745.651,575.749 745.974,575.392C749.827,571.137 752.392,566.228 754.015,560.841L754.201,560.971C754.006,564.715 753.941,568.259 753.984,571.61C753.911,571.846 753.918,572.093 753.995,572.317L754.004,572.82C753.976,573.022 753.936,573.263 753.885,573.489C752.987,577.442 749.299,586.938 746.984,589.271C746.803,589.454 746.628,589.678 746.463,589.933C746.363,589.611 746.247,589.319 746.115,589.076C744.456,586.042 742.75,577.778 741.603,570.295C741.624,570.162 741.647,570.023 741.669,569.884C741.724,569.536 741.617,569.199 741.402,568.952ZM633.342,568.853C633.904,564.944 634.298,561.357 634.437,558.989C634.492,558.054 634.461,557.052 634.449,556.738C634.311,556.523 634.243,556.26 634.275,555.986C634.282,555.921 634.295,555.857 634.313,555.796C631.656,551.945 629.842,547.113 628.829,542.223C628.649,542.903 628.468,543.567 628.285,544.214C627.403,547.341 626.475,550.097 625.5,552.473C625.51,552.495 625.52,552.518 625.529,552.542C628.338,559.837 630.484,567.147 630.779,574.488C630.799,574.969 630.515,575.411 630.069,575.594C629.624,575.777 629.111,575.661 628.787,575.305C624.924,571.06 622.346,566.157 620.71,560.774L620.524,560.905C620.728,564.648 620.802,568.192 620.768,571.543C620.841,571.778 620.834,572.026 620.759,572.25L620.75,572.753C620.779,572.955 620.82,573.196 620.871,573.422C621.779,577.373 625.491,586.859 627.812,589.187C627.994,589.368 628.169,589.593 628.334,589.847C628.434,589.525 628.549,589.233 628.681,588.989C630.332,585.951 632.017,577.683 633.145,570.197C633.123,570.064 633.101,569.925 633.078,569.786C633.022,569.438 633.129,569.101 633.342,568.853ZM762.522,563.136C763.613,570.425 763.931,577.687 763.681,584.931C761.85,577.83 760.611,570.719 760.116,563.594C760.245,563.59 760.376,563.583 760.507,563.572C761.205,563.514 761.878,563.369 762.522,563.136ZM612.208,563.091C611.136,570.382 610.836,577.645 611.105,584.888C612.917,577.783 614.138,570.669 614.616,563.542C614.486,563.539 614.355,563.532 614.224,563.521C613.526,563.465 612.853,563.322 612.208,563.091ZM591.982,567.062C591.726,570.082 591.585,573.123 591.617,575.813C591.654,578.906 591.901,581.519 592.513,583.028C592.665,583.402 592.758,583.848 592.801,584.334C593.554,583.528 594.398,582.934 595.226,582.738C596.337,582.475 597.582,581.544 598.784,580.392C600.606,578.648 602.289,576.36 603.157,574.635C603.227,574.497 603.292,574.346 603.35,574.196C603.421,573.802 603.494,573.405 603.569,573.005C603.454,572.645 603.521,572.237 603.775,571.929C604.443,568.522 605.276,564.951 606.299,561.223C604.009,565.353 600.758,568.525 596.807,571C596.421,571.242 595.929,571.232 595.552,570.975C595.176,570.718 594.988,570.263 595.073,569.816C596.376,562.942 599.627,556.744 604.068,550.961C604.094,550.928 604.121,550.896 604.149,550.867C603.605,548.721 603.15,546.296 602.79,543.593C602.644,542.493 602.513,541.345 602.397,540.149C600.779,542.628 597.949,546.163 595.109,549.03C595.44,549.238 595.656,549.611 595.646,550.03C595.634,550.496 595.345,550.891 594.94,551.059C594.818,551.321 594.396,552.253 594.152,553.128C593.376,555.908 592.632,560.448 592.152,565.235C592.426,565.575 592.492,566.059 592.281,566.474C592.18,566.671 592.08,566.868 591.982,567.062ZM782.758,567.057C783.022,570.076 783.17,573.117 783.145,575.807C783.116,578.9 782.876,581.513 782.267,583.025C782.117,583.398 782.025,583.845 781.983,584.331C781.227,583.526 780.382,582.935 779.554,582.741C778.442,582.481 777.195,581.553 775.99,580.404C774.164,578.664 772.475,576.381 771.602,574.658C771.532,574.52 771.467,574.369 771.408,574.22C771.336,573.825 771.263,573.429 771.187,573.029C771.3,572.669 771.232,572.261 770.977,571.954C770.301,568.548 769.459,564.979 768.426,561.254C770.727,565.378 773.986,568.541 777.943,571.007C778.33,571.248 778.822,571.237 779.198,570.979C779.573,570.721 779.76,570.265 779.674,569.818C778.353,562.947 775.087,556.758 770.632,550.987C770.606,550.953 770.579,550.922 770.55,550.892C771.09,548.745 771.538,546.319 771.891,543.615C772.035,542.514 772.163,541.366 772.276,540.171C773.9,542.645 776.739,546.173 779.586,549.033C779.256,549.242 779.04,549.615 779.052,550.034C779.064,550.5 779.354,550.894 779.76,551.061C779.883,551.323 780.307,552.254 780.553,553.128C781.336,555.906 782.092,560.445 782.584,565.23C782.311,565.571 782.246,566.055 782.458,566.469C782.559,566.666 782.659,566.863 782.758,567.057ZM718.289,583.084C719.81,573.866 722.208,564.605 725.053,555.321C724.856,555.506 724.593,555.623 724.302,555.632C723.67,555.651 723.141,555.153 723.122,554.521C722.395,530.376 722.226,506.234 722.493,482.095C720.444,491.385 717.712,500.671 714.392,509.954C715.412,534.31 716.693,558.684 718.289,583.084ZM656.492,582.927C654.947,573.713 652.526,564.458 649.658,555.181C649.855,555.366 650.118,555.483 650.41,555.491C651.042,555.508 651.569,555.009 651.587,554.377C652.253,530.23 652.361,506.087 652.034,481.949C654.106,491.234 656.862,500.513 660.205,509.788C659.246,534.146 658.026,558.523 656.492,582.927ZM590.453,560.223C590.889,557.152 591.41,554.426 591.944,552.512C592.024,552.229 592.104,551.961 592.186,551.711C590.713,552.902 589.338,553.733 588.254,554.013C587.758,554.141 587.291,554.678 586.855,555.21C586.023,556.226 585.409,557.386 585.409,557.386C585.138,557.897 584.53,558.126 583.989,557.921C583.449,557.715 583.146,557.139 583.283,556.578C583.283,556.578 583.542,555.516 583.585,554.424C583.606,553.885 583.628,553.325 583.402,552.992C582.634,551.86 582.249,549.774 582.199,547.662C582.18,546.86 582.206,546.058 582.264,545.31C581.558,546.491 580.86,547.672 580.172,548.846C580.492,549.077 580.684,549.466 580.643,549.887C579.6,560.556 578.784,571.049 578.573,581.089C582.091,573.664 586.031,566.633 590.391,560.305C590.411,560.276 590.432,560.249 590.453,560.223ZM784.27,560.214C783.827,557.144 783.298,554.42 782.759,552.507C782.68,552.224 782.598,551.957 782.516,551.707C783.991,552.894 785.369,553.721 786.453,553.998C786.95,554.125 787.418,554.661 787.856,555.192C788.69,556.206 789.307,557.364 789.307,557.364C789.579,557.874 790.188,558.102 790.728,557.896C791.268,557.689 791.57,557.112 791.431,556.551C791.431,556.551 791.169,555.49 791.123,554.398C791.101,553.859 791.078,553.299 791.303,552.965C792.068,551.832 792.448,549.744 792.493,547.632C792.51,546.831 792.482,546.028 792.421,545.281C793.131,546.46 793.832,547.638 794.522,548.811C794.203,549.043 794.012,549.433 794.055,549.853C795.124,560.519 795.966,571.011 796.203,581.05C792.666,573.634 788.708,566.613 784.332,560.295C784.312,560.267 784.292,560.24 784.27,560.214ZM750.546,555.503C751.115,556.633 751.697,557.643 752.295,558.532C752.274,558.581 752.256,558.632 752.243,558.684C751.062,563.163 749.242,567.318 746.559,571.033C747.183,565.846 748.668,560.672 750.546,555.503ZM624.165,555.427C623.599,556.558 623.019,557.57 622.424,558.46C622.445,558.509 622.463,558.56 622.477,558.612C623.669,563.089 625.498,567.239 628.191,570.948C627.554,565.762 626.057,560.592 624.165,555.427ZM769.761,553.641C772.908,557.937 775.355,562.478 776.745,567.391C773.282,564.714 770.57,561.284 768.895,556.819C768.845,556.686 768.772,556.566 768.681,556.463C769.067,555.603 769.427,554.663 769.761,553.641ZM604.945,553.614C601.809,557.918 599.374,562.465 597.996,567.381C601.452,564.696 604.155,561.259 605.82,556.789C605.869,556.656 605.942,556.536 606.033,556.433C605.645,555.574 605.282,554.634 604.945,553.614ZM743.689,533.091C742.78,535.075 741.277,537.656 739.705,539.831C738.292,541.788 736.803,543.41 735.648,544.088C735.102,544.408 734.479,545.143 733.903,545.885C732.932,547.137 732.132,548.458 732.132,548.458C731.994,548.686 731.789,548.849 731.558,548.936C730.954,551.395 730.385,553.814 729.851,556.193C729.82,556.824 729.832,557.41 729.892,557.953C730.03,559.2 730.423,560.189 731.183,560.908C731.421,561.133 731.63,561.357 731.814,561.578C732.273,560.811 732.94,560.034 733.909,559.364C740.258,554.974 743.533,545.507 744.324,537.005C744.338,536.854 744.381,536.713 744.447,536.586C744.191,535.455 743.938,534.29 743.689,533.091ZM630.966,532.998C631.88,534.98 633.389,537.557 634.967,539.729C636.385,541.682 637.878,543.3 639.034,543.975C639.582,544.294 640.206,545.028 640.784,545.768C641.759,547.017 642.561,548.336 642.561,548.336C642.7,548.564 642.905,548.726 643.137,548.813C643.747,551.27 644.322,553.688 644.862,556.065C644.895,556.696 644.884,557.283 644.825,557.826C644.691,559.073 644.3,560.063 643.542,560.784C643.305,561.009 643.096,561.233 642.912,561.455C642.451,560.69 641.782,559.914 640.812,559.247C634.452,554.872 631.153,545.414 630.341,536.914C630.326,536.763 630.283,536.622 630.217,536.495C630.47,535.364 630.72,534.198 630.966,532.998ZM755.895,559.359C755.76,559.225 755.626,559.083 755.492,558.935C752.907,556.066 750.662,550.904 748.602,543.672C740.684,515.889 735.946,458.185 729.946,380.691C736.455,410.226 743.245,443.929 748.714,457.296C748.564,458.296 748.398,459.194 748.216,459.982C747.935,461.193 747.629,462.116 747.251,462.694C747.185,462.795 747.07,462.915 747.013,462.972C746.893,462.882 746.469,462.554 746.189,462.186C745.432,461.194 744.59,459.558 743.627,457.214C743.386,456.63 742.716,456.35 742.131,456.59C741.546,456.831 741.267,457.501 741.507,458.086C742.804,461.241 743.954,463.228 744.92,464.226C745.829,465.163 746.704,465.404 747.462,465.245C746.878,469.531 746.8,473.672 747.24,477.663C747.241,477.671 747.242,477.68 747.243,477.688C747.897,483.584 750.492,489.03 752.644,494.387C752.841,494.876 753.346,495.168 753.868,495.094C754.391,495.02 754.795,494.598 754.847,494.073C755.369,488.846 757.118,483.406 756.415,476.82C756.415,476.811 756.414,476.802 756.413,476.792C755.987,472.835 755.051,468.529 753.472,463.789C753.71,463.845 753.945,463.862 754.173,463.846C754.887,463.795 755.627,463.411 756.287,462.504C756.953,461.589 757.603,460.011 758.177,457.668C758.328,457.053 757.951,456.433 757.337,456.282C756.723,456.132 756.102,456.508 755.952,457.122C755.547,458.774 755.126,459.987 754.666,460.792C754.524,461.041 754.384,461.243 754.235,461.394C754.155,461.476 754.094,461.554 754.009,461.56C753.918,461.567 753.841,461.498 753.745,461.429C753.579,461.309 753.414,461.143 753.243,460.941C752.694,460.293 752.134,459.316 751.547,458.061C751.388,457.721 751.227,457.362 751.066,456.984C753.089,442.032 752.078,407.132 751.745,376.778C767.294,459.949 773.17,516.119 769.619,543.318C768.849,549.214 767.645,553.715 765.97,556.79C765.709,557.271 765.436,557.715 765.153,558.122L762.617,560.457C762.547,560.521 762.487,560.592 762.436,560.67C761.776,561.018 761.071,561.226 760.318,561.288C759.57,561.35 758.853,561.232 758.16,560.947L755.895,559.359ZM618.826,559.297C618.961,559.162 619.095,559.02 619.228,558.872C621.806,555.997 624.037,550.829 626.08,543.592C633.928,515.789 638.521,458.073 644.327,380.564C637.892,410.116 631.186,443.835 625.751,457.216C625.903,458.216 626.071,459.114 626.256,459.901C626.54,461.112 626.848,462.033 627.227,462.61C627.294,462.712 627.409,462.83 627.466,462.887C627.586,462.798 628.009,462.468 628.288,462.1C629.042,461.105 629.881,459.467 630.838,457.122C631.077,456.536 631.746,456.255 632.332,456.494C632.917,456.733 633.199,457.402 632.96,457.988C631.671,461.147 630.526,463.136 629.562,464.136C628.655,465.076 627.781,465.319 627.022,465.161C627.617,469.446 627.706,473.587 627.276,477.579C627.275,477.588 627.274,477.596 627.273,477.605C626.633,483.502 624.053,488.954 621.914,494.317C621.718,494.807 621.214,495.1 620.691,495.027C620.169,494.954 619.763,494.534 619.71,494.009C619.175,488.783 617.412,483.347 618.098,476.759C618.099,476.75 618.1,476.741 618.101,476.732C618.516,472.774 619.442,468.465 621.009,463.721C620.771,463.777 620.537,463.796 620.309,463.78C619.594,463.73 618.853,463.348 618.191,462.443C617.523,461.53 616.868,459.953 616.288,457.611C616.136,456.998 616.511,456.376 617.125,456.224C617.739,456.072 618.361,456.447 618.513,457.061C618.921,458.711 619.346,459.923 619.807,460.727C619.95,460.976 620.091,461.178 620.24,461.328C620.32,461.41 620.381,461.488 620.467,461.494C620.557,461.5 620.635,461.43 620.73,461.361C620.895,461.241 621.06,461.075 621.231,460.872C621.778,460.223 622.336,459.245 622.92,457.988C623.078,457.648 623.237,457.288 623.398,456.91C621.337,441.963 622.261,407.061 622.518,376.706C607.178,459.915 601.443,516.101 605.062,543.29C605.846,549.184 607.062,553.682 608.744,556.753C609.007,557.233 609.28,557.677 609.565,558.083L612.107,560.411C612.176,560.475 612.237,560.547 612.288,560.624C612.949,560.97 613.654,561.177 614.408,561.237C615.156,561.297 615.873,561.177 616.565,560.89L618.826,559.297ZM725.404,554.18C729.622,540.586 734.759,526.946 739.469,513.32C739.587,512.98 739.848,512.73 740.163,512.617C735.596,481.251 731.965,436.414 727.724,381.681C726.265,410.648 725.251,439.603 724.823,468.548C724.834,468.574 724.809,469.725 724.806,469.747C724.405,497.9 724.561,526.047 725.404,554.18ZM649.303,554.041C645.052,540.458 639.881,526.83 635.136,513.216C635.018,512.877 634.755,512.628 634.441,512.515C638.929,481.139 642.448,436.292 646.551,381.548C648.082,410.512 649.169,439.464 649.669,468.408C649.659,468.434 649.686,469.585 649.69,469.607C650.161,497.759 650.076,525.906 649.303,554.041ZM601.882,532.407C601.927,533.531 601.982,534.623 602.047,535.684C602.02,535.703 601.994,535.723 601.968,535.744C601.632,536.026 601.498,536.46 601.582,536.861C601.498,537.066 601.267,537.603 601.006,538.048C599.332,540.9 595.139,546.106 591.483,549.307C590.045,550.567 588.72,551.526 587.682,551.794C587.053,551.956 586.389,552.394 585.784,552.985C585.69,552.488 585.529,552.045 585.298,551.705C584.63,550.72 584.471,548.773 584.484,546.945C584.496,545.337 584.885,543.371 584.983,542.904C585.228,542.698 585.613,540.355 585.788,540.241C585.788,540.241 587.099,539.385 588.502,538.714C589.292,538.337 590.101,537.979 590.653,538.001C592.146,538.059 594.128,537.412 596.082,536.411C598.309,535.27 600.508,533.692 601.882,532.407ZM772.771,532.427C772.729,533.55 772.677,534.643 772.615,535.705C772.642,535.723 772.668,535.743 772.693,535.764C773.031,536.045 773.166,536.478 773.082,536.88C773.167,537.085 773.399,537.621 773.661,538.065C775.342,540.914 779.548,546.109 783.213,549.301C784.654,550.557 785.981,551.512 787.02,551.778C787.65,551.938 788.315,552.375 788.921,552.965C789.013,552.467 789.174,552.024 789.403,551.683C790.069,550.697 790.223,548.749 790.205,546.921C790.19,545.313 789.796,543.348 789.697,542.882C789.452,542.676 789.06,540.334 788.885,540.221C788.885,540.221 787.571,539.368 786.167,538.701C785.376,538.325 784.567,537.969 784.014,537.992C782.522,538.054 780.538,537.412 778.581,536.416C776.351,535.281 774.148,533.708 772.771,532.427ZM732.929,543.514C733.464,542.911 734.008,542.393 734.489,542.111C735.329,541.618 736.342,540.487 737.375,539.128C739.038,536.939 740.697,534.148 741.632,532.085C741.965,531.348 742.226,530.43 742.303,530.148C742.273,530.088 742.794,528.636 742.805,528.631C742.106,524.933 741.431,520.957 740.776,516.71C737.752,526.078 735.14,535.021 732.929,543.514ZM641.752,543.394C641.215,542.793 640.671,542.276 640.189,541.995C639.348,541.505 638.331,540.376 637.295,539.019C635.627,536.835 633.961,534.048 633.021,531.987C632.685,531.251 632.422,530.334 632.345,530.052C632.374,529.991 631.849,528.541 631.839,528.536C632.529,524.837 633.194,520.858 633.838,516.609C636.885,525.971 639.52,534.907 641.752,543.394ZM601.771,528.605C601.685,528.65 601.603,528.708 601.529,528.777C601.247,529.04 601.126,529.411 601.173,529.766C601.008,529.979 600.627,530.452 600.231,530.817C598.86,532.083 596.603,533.649 594.415,534.677C593.074,535.307 591.769,535.751 590.743,535.711C590.103,535.686 589.219,535.913 588.307,536.292C588.072,536.389 587.835,536.495 587.6,536.606C592.102,529.445 596.881,522.294 601.891,515.303C601.733,520.095 601.693,524.53 601.771,528.605ZM772.873,528.624C772.959,528.67 773.041,528.727 773.116,528.796C773.398,529.058 773.519,529.429 773.473,529.784C773.639,529.997 774.022,530.469 774.418,530.833C775.793,532.096 778.054,533.656 780.244,534.678C781.587,535.305 782.892,535.745 783.918,535.703C784.559,535.676 785.443,535.901 786.356,536.277C786.591,536.374 786.828,536.479 787.064,536.59C782.544,529.44 777.747,522.301 772.719,515.323C772.89,520.115 772.941,524.549 772.873,528.624ZM602.133,509.466C601.784,509.455 601.435,509.603 601.2,509.896C595.195,517.412 589.699,524.754 584.677,531.882C592.141,479.915 605.446,428.795 619.977,377.856C609.572,434.518 603.662,478.597 602.133,509.466ZM772.462,509.487C772.811,509.475 773.161,509.621 773.397,509.914C779.421,517.415 784.936,524.743 789.975,531.859C782.38,479.91 768.947,428.824 754.289,377.922C764.835,434.558 770.856,478.622 772.462,509.487ZM735.804,519.779L735.505,502.781C735.496,502.262 735.139,501.813 734.634,501.689C734.13,501.564 733.605,501.795 733.355,502.25L725.602,516.389C725.584,516.422 725.568,516.455 725.553,516.49C724.532,518.881 725.041,521.657 725.971,523.658C726.65,525.119 727.582,526.15 728.24,526.483C728.824,526.779 729.891,526.776 731.071,526.256C733.223,525.308 735.857,522.782 735.804,519.779ZM638.817,519.666L639.073,502.668C639.081,502.148 639.438,501.699 639.942,501.573C640.446,501.448 640.972,501.677 641.223,502.132L649.011,516.251C649.029,516.284 649.045,516.317 649.06,516.352C650.087,518.74 649.586,521.518 648.66,523.52C647.984,524.983 647.055,526.017 646.399,526.352C645.815,526.649 644.748,526.648 643.567,526.131C641.412,525.189 638.772,522.67 638.817,519.666ZM623.229,345.462C623.163,345.415 623.092,345.376 623.014,345.344C622.43,345.1 621.759,345.377 621.516,345.961C599.254,399.426 571.19,464.353 568.325,488.191C567.943,491.369 568.013,493.862 568.537,495.562C569.055,497.243 569.98,498.273 571.298,498.648C566.312,507.419 561.228,516.217 556.036,525.046C559.937,461.893 589.876,387.316 614.042,315.269C614.895,314.807 615.741,314.339 616.58,313.866C614.346,330.248 613.339,341.682 613.077,348.577C612.907,353.055 613.082,355.71 613.395,356.644C613.6,357.259 613.963,357.549 614.27,357.68C614.697,357.862 615.235,357.878 615.797,357.394C616.116,357.119 616.551,356.495 617.013,355.479C618.549,352.108 621.053,343.614 624.149,330.548L623.229,345.462ZM750.955,345.536C751.021,345.489 751.092,345.449 751.17,345.417C751.753,345.172 752.425,345.447 752.669,346.031C775.066,399.44 803.292,464.296 806.217,488.126C806.607,491.304 806.544,493.797 806.024,495.498C805.51,497.181 804.588,498.213 803.27,498.591C808.278,507.349 813.384,516.134 818.599,524.951C814.539,461.808 784.414,387.306 760.066,315.32C759.212,314.86 758.365,314.394 757.525,313.923C759.8,330.3 760.836,341.731 761.115,348.625C761.296,353.103 761.127,355.758 760.818,356.693C760.614,357.309 760.251,357.6 759.945,357.732C759.518,357.915 758.981,357.932 758.417,357.449C758.098,357.175 757.661,356.552 757.196,355.538C755.652,352.17 753.126,343.683 749.998,330.625L750.955,345.536ZM729.221,524.408C728.847,524.178 728.431,523.512 728.049,522.691C727.367,521.226 726.915,519.204 727.637,517.447C727.641,517.439 733.29,507.136 733.29,507.136L733.513,519.819C733.544,521.573 732.122,523.014 730.812,523.81C730.38,524.072 729.956,524.263 729.585,524.358C729.464,524.389 729.285,524.404 729.221,524.408ZM645.412,524.279C645.785,524.048 646.2,523.381 646.58,522.559C647.258,521.092 647.705,519.069 646.978,517.314C646.975,517.305 641.3,507.017 641.3,507.017L641.109,519.701C641.082,521.455 642.508,522.892 643.82,523.685C644.252,523.946 644.677,524.136 645.048,524.23C645.169,524.261 645.348,524.275 645.412,524.279ZM598.446,494.339C598.755,493.963 599.268,493.824 599.725,493.992C600.182,494.16 600.482,494.598 600.475,495.085L600.264,509.083C600.264,509.113 600.262,509.143 600.259,509.172C600.1,510.877 598.454,512.32 596.509,513.02C595.444,513.403 594.322,513.573 593.429,513.508C592.626,513.449 591.979,513.19 591.564,512.818C590.322,511.705 587.619,507.877 590.254,504.27C590.268,504.252 590.281,504.234 590.296,504.217L598.446,494.339ZM776.112,494.35C775.802,493.975 775.288,493.838 774.832,494.007C774.376,494.176 774.076,494.615 774.085,495.101L774.331,509.099C774.331,509.129 774.333,509.159 774.336,509.188C774.499,510.893 776.149,512.332 778.096,513.027C779.161,513.407 780.284,513.574 781.177,513.506C781.979,513.445 782.626,513.185 783.04,512.812C784.28,511.696 786.973,507.861 784.328,504.261C784.315,504.243 784.301,504.225 784.287,504.208L776.112,494.35ZM598.134,498.317L592.086,505.648C590.419,507.966 592.295,510.396 593.093,511.111C593.254,511.255 593.553,511.235 593.887,511.23C594.453,511.221 595.106,511.09 595.733,510.864C596.344,510.644 596.932,510.335 597.375,509.94C597.679,509.669 597.923,509.364 597.973,509.002C597.973,508.996 598.134,498.317 598.134,498.317L598.134,498.317ZM776.433,498.327L782.5,505.643C784.173,507.957 782.303,510.391 781.507,511.108C781.346,511.253 781.047,511.234 780.713,511.229C780.147,511.222 779.494,511.092 778.866,510.868C778.255,510.65 777.666,510.343 777.222,509.949C776.917,509.678 776.672,509.374 776.622,509.012C776.621,509.006 776.433,498.327 776.433,498.327L776.433,498.327ZM713.817,495.494C713.92,498.22 714.025,500.946 714.135,503.671C717.797,492.636 720.594,481.598 722.36,470.554C719.284,478.704 716.452,487.028 713.817,495.494ZM660.744,495.326C660.648,498.053 660.549,500.779 660.446,503.504C656.756,492.478 653.932,481.447 652.138,470.408C655.234,478.55 658.087,486.867 660.744,495.326ZM623.06,348.214L622.923,350.425C622.711,350.548 622.536,350.74 622.437,350.985C595.517,417.304 572.464,475.708 571.5,490.906C571.417,492.21 571.495,493.234 571.706,493.965C571.908,494.666 572.242,495.157 572.641,495.473C572.747,495.557 572.858,495.631 572.975,495.694L572.508,496.518C571.583,496.509 571.039,495.901 570.727,494.887C570.27,493.406 570.268,491.233 570.601,488.464C573.429,464.928 600.981,401.196 623.06,348.214ZM751.131,348.288L751.273,350.498C751.486,350.621 751.661,350.812 751.761,351.057C778.847,417.308 802.047,475.654 803.049,490.849C803.135,492.153 803.06,493.178 802.851,493.909C802.65,494.61 802.318,495.102 801.919,495.42C801.814,495.504 801.703,495.578 801.586,495.641L802.055,496.464C802.98,496.453 803.522,495.844 803.832,494.829C804.285,493.347 804.282,491.174 803.942,488.406C801.054,464.877 773.343,401.214 751.131,348.288ZM622.197,362.218C613.397,392.637 604.844,423.095 597.548,453.738C597.527,453.724 597.505,453.711 597.482,453.699C596.925,453.399 596.23,453.607 595.929,454.163C588.859,467.265 581.608,480.419 574.137,493.641C574.099,493.648 574.069,493.653 574.049,493.656C574.038,493.64 574.023,493.618 574.014,493.601C573.971,493.524 573.938,493.433 573.908,493.33C573.751,492.786 573.725,492.021 573.787,491.051C574.722,476.311 596.617,420.764 622.527,356.859L622.197,362.218ZM752.03,362.289C760.905,392.686 769.535,423.123 776.908,453.747C776.929,453.733 776.951,453.72 776.974,453.708C777.53,453.406 778.226,453.613 778.528,454.168C785.631,467.252 792.915,480.389 800.419,493.591C800.456,493.598 800.487,493.603 800.507,493.606C800.518,493.59 800.533,493.568 800.542,493.551C800.585,493.474 800.618,493.382 800.647,493.28C800.803,492.735 800.827,491.97 800.763,491C799.791,476.263 777.756,420.771 751.686,356.931L752.03,362.289ZM754.264,478.737C752.829,479.302 751.331,479.438 749.767,479.141C750.413,482.789 751.768,486.264 753.176,489.668C753.759,486.291 754.445,482.728 754.264,478.737ZM620.255,478.671C621.691,479.232 623.19,479.364 624.752,479.064C624.115,482.714 622.769,486.192 621.37,489.599C620.778,486.223 620.084,482.662 620.255,478.671ZM713.568,488.721C716.351,480.17 719.348,471.771 722.61,463.56C722.655,463.448 722.715,463.347 722.788,463.258C723.443,430.661 724.834,398.053 726.659,365.416L725.224,345.492L712.319,447.647C712.664,461.338 713.077,475.033 713.568,488.721ZM660.976,488.553C658.171,480.009 655.153,471.617 651.87,463.415C651.825,463.303 651.765,463.202 651.692,463.113C650.955,430.518 649.482,397.914 647.575,365.281L648.96,345.354L662.121,447.476C661.811,461.167 661.432,474.863 660.976,488.553ZM754.051,476.316C753.518,471.966 752.344,467.186 750.36,461.856C749.317,467.018 749.002,471.969 749.446,476.705C751.073,477.184 752.608,477.058 754.051,476.316ZM620.461,476.249C620.983,471.899 622.145,467.115 624.116,461.78C625.172,466.939 625.499,471.89 625.068,476.626C623.442,477.11 621.906,476.988 620.461,476.249ZM731.416,376.73C737.526,404.228 743.917,436.321 749.281,452.225C750.717,434.995 749.681,401.686 749.418,373.32C749.141,373.446 748.856,373.496 748.574,373.488C748.156,373.476 747.696,373.323 747.225,372.961C746.93,372.735 746.613,372.406 746.282,371.972C746.211,376.378 746.074,380.132 745.889,383.249C745.601,388.072 745.193,391.396 744.739,393.287C744.5,394.286 744.216,394.947 743.96,395.303C743.643,395.742 743.264,395.935 742.902,395.996C742.607,396.045 742.297,396.011 741.978,395.856C741.708,395.725 741.392,395.473 741.087,395.042C740.673,394.457 740.19,393.406 739.678,391.888C738.337,387.913 736.648,380.457 734.759,369.794C734.612,370.537 734.462,371.219 734.309,371.837C733.853,373.685 733.348,374.998 732.849,375.712C732.482,376.236 732.073,376.528 731.691,376.658C731.601,376.689 731.509,376.713 731.416,376.73ZM642.846,376.607C636.805,404.121 630.495,436.229 625.171,452.147C623.692,434.92 624.644,401.608 624.836,373.242C625.113,373.368 625.398,373.417 625.68,373.408C626.098,373.395 626.558,373.241 627.028,372.878C627.322,372.651 627.639,372.321 627.969,371.886C628.05,376.292 628.197,380.046 628.39,383.162C628.689,387.984 629.107,391.308 629.565,393.197C629.807,394.195 630.092,394.856 630.349,395.211C630.667,395.649 631.047,395.842 631.409,395.901C631.704,395.95 632.014,395.915 632.332,395.76C632.602,395.628 632.918,395.375 633.221,394.943C633.633,394.357 634.114,393.305 634.622,391.786C635.953,387.807 637.624,380.347 639.486,369.679C639.635,370.422 639.787,371.104 639.941,371.721C640.402,373.569 640.91,374.879 641.411,375.592C641.779,376.116 642.189,376.406 642.571,376.535C642.661,376.566 642.753,376.59 642.846,376.607ZM724.421,334.346L723.495,321.484C722.655,330.861 721.666,338.777 720.692,345.076L711.824,425.729C711.875,428.269 711.928,430.813 711.984,433.357L724.281,334.712C724.307,334.579 724.356,334.456 724.421,334.346ZM649.735,334.205L650.629,321.341C651.492,330.716 652.501,338.629 653.49,344.926L662.561,425.557C662.517,428.096 662.47,430.64 662.421,433.185L649.876,334.571C649.849,334.438 649.801,334.315 649.735,334.205ZM711.536,410.002L717.087,361.818C716.977,362.091 716.876,362.311 716.783,362.476C716.347,363.252 715.769,363.414 715.453,363.418C715.034,363.423 714.524,363.263 714.224,362.571C713.923,361.876 713.534,358.968 713.339,353.639C712.914,342.046 713.173,318.48 716.05,280.73C714.275,278.708 712.558,276.638 710.896,274.519C710.685,319.646 710.785,364.795 711.536,410.002ZM662.81,409.829L657.138,361.659C657.248,361.932 657.35,362.152 657.443,362.316C657.881,363.091 658.46,363.252 658.776,363.255C659.195,363.258 659.705,363.098 660.003,362.405C660.302,361.709 660.683,358.8 660.865,353.47C661.261,341.876 660.943,318.312 657.972,280.569C659.741,278.542 661.453,276.468 663.109,274.344C663.434,319.471 663.447,364.62 662.81,409.829ZM737.389,348.521C736.908,353.897 736.405,358.72 735.873,362.764C738.187,376.827 740.261,386.446 741.85,391.156C742.05,391.75 742.295,392.319 742.512,392.778C742.569,392.527 742.626,392.243 742.687,391.925C743.048,390.023 743.364,387.098 743.601,383.113C743.84,379.095 743.998,374.014 744.036,367.836C742.187,363.635 739.95,357.007 737.389,348.521ZM636.802,348.413C637.297,353.788 637.812,358.61 638.355,362.652C636.075,376.721 634.026,386.345 632.449,391.059C632.25,391.654 632.007,392.223 631.791,392.683C631.733,392.432 631.675,392.148 631.614,391.83C631.248,389.929 630.925,387.005 630.677,383.02C630.428,379.003 630.257,373.922 630.204,367.744C632.043,363.539 634.263,356.905 636.802,348.413ZM724.776,303.678C724.755,304.049 724.734,304.421 724.713,304.793L724.659,305.733L729.123,367.732C729.71,370.437 730.258,372.345 730.787,373.536C730.895,373.782 731.001,373.991 731.106,374.165C731.144,374.103 731.18,374.037 731.21,373.975C731.514,373.345 731.8,372.438 732.084,371.288C732.606,369.173 733.099,366.292 733.567,362.798C731.279,348.862 728.761,330.655 726.247,308.612L725.197,304.685L724.802,303.203L724.776,303.678ZM649.303,303.538C649.325,303.91 649.346,304.282 649.368,304.653L649.425,305.593L645.116,367.603C644.537,370.31 643.994,372.219 643.468,373.412C643.36,373.657 643.255,373.867 643.15,374.041C643.112,373.979 643.076,373.914 643.045,373.851C642.74,373.222 642.451,372.316 642.164,371.166C641.637,369.053 641.137,366.174 640.66,362.681C642.913,348.738 645.386,330.526 647.845,308.477L648.884,304.547L649.276,303.064L649.303,303.538ZM744.214,305.651L744.134,305.596C745.831,332.436 746.404,352.869 746.329,367.376C746.789,368.382 747.222,369.221 747.63,369.883C747.959,370.418 748.246,370.824 748.523,371.066C748.624,370.879 748.769,370.583 748.858,370.292C749.318,368.789 749.608,366.23 749.747,362.504L746.803,316.616C746.064,313.229 745.303,309.643 744.525,305.865L744.214,305.651ZM629.87,305.561L629.95,305.505C628.321,332.35 627.799,352.783 627.909,367.291C627.452,368.298 627.021,369.138 626.616,369.801C626.288,370.336 626.002,370.743 625.725,370.986C625.624,370.799 625.478,370.503 625.388,370.213C624.925,368.711 624.628,366.152 624.48,362.427L627.308,316.532C628.039,313.142 628.791,309.555 629.56,305.775L629.87,305.561ZM740.626,303.11C739.75,316.869 738.87,330.576 737.917,342.323C740.194,350.141 742.246,356.697 744.035,361.634C743.95,347.321 743.295,328.193 741.73,303.907C741.36,303.643 740.992,303.377 740.626,303.11ZM633.452,303.01C634.362,316.767 635.276,330.472 636.259,342.216C634.001,350.04 631.966,356.601 630.189,361.542C630.239,347.229 630.845,328.1 632.35,303.81C632.719,303.545 633.086,303.278 633.452,303.01ZM718.17,283.094C715.458,319.436 715.214,342.229 715.629,353.555C715.696,355.366 715.772,356.871 715.856,358.077C717.796,350.568 720.787,332.359 722.362,305.752L721.203,289.658L719.977,285.031C719.369,284.391 718.766,283.745 718.17,283.094ZM655.858,282.938C658.66,319.273 658.962,342.065 658.575,353.392C658.513,355.204 658.441,356.708 658.36,357.915C656.401,350.411 653.364,332.209 651.722,305.606L652.84,289.51L654.056,284.879C654.662,284.238 655.263,283.591 655.858,282.938ZM730.363,323.841C731.79,335.341 733.199,345.546 734.545,354.373C734.914,350.752 735.27,346.774 735.616,342.533C733.974,336.894 732.218,330.62 730.363,323.841ZM643.766,323.715C642.368,335.219 640.986,345.428 639.662,354.257C639.283,350.637 638.917,346.66 638.561,342.421C640.188,336.778 641.928,330.499 643.766,323.715ZM748.582,308.556L749.081,316.323C752.792,333.337 755.941,345.273 758.068,351.448C758.37,352.326 758.644,353.079 758.894,353.704C758.932,352.482 758.91,350.824 758.825,348.718C758.538,341.621 757.441,329.693 755.011,312.487C752.825,311.215 750.682,309.905 748.582,308.556ZM625.509,308.476L625.03,316.244C621.362,333.268 618.243,345.212 616.131,351.392C615.831,352.27 615.559,353.024 615.311,353.65C615.269,352.428 615.287,350.77 615.367,348.664C615.636,341.566 616.703,329.635 619.091,312.423C621.273,311.146 623.412,309.83 625.509,308.476ZM726.7,291.666C727.3,297.406 727.904,302.928 728.507,308.224C731.229,318.405 733.778,327.796 736.121,336.066C736.924,325.37 737.68,313.423 738.437,301.485C734.332,298.383 730.419,295.111 726.7,291.666ZM647.349,291.532C646.763,297.273 646.173,302.796 645.583,308.094C642.887,318.281 640.361,327.679 638.04,335.955C637.209,325.261 636.423,313.316 635.636,301.38C639.733,298.268 643.638,294.986 647.349,291.532Z" style="fill:white;"/>
    </g>
</svg>
