<?xml version="1.0" encoding="UTF-8" standalone="no"?>
<!DOCTYPE svg PUBLIC "-//W3C//DTD SVG 1.1//EN" "http://www.w3.org/Graphics/SVG/1.1/DTD/svg11.dtd">
<svg width="100%" height="100%" viewBox="0 0 1000 1000" version="1.1" xmlns="http://www.w3.org/2000/svg" xmlns:xlink="http://www.w3.org/1999/xlink" xml:space="preserve" xmlns:serif="http://www.serif.com/" style="fill-rule:evenodd;clip-rule:evenodd;stroke-linejoin:round;stroke-miterlimit:2;">
    <g transform="matrix(16.66,0,0,16.66,-8446.2,-7607.57)">
        <path d="M536.868,509.553C534.331,506.108 529.138,500.05 519.616,495.836C508.912,491.099 507.37,477.48 513.761,468.398C517.569,462.987 532.784,459.588 536.987,472.565C541.19,459.588 556.406,462.987 560.213,468.398C566.604,477.48 565.062,491.099 554.358,495.836C544.685,500.117 539.48,506.301 536.987,509.715L536.868,509.553ZM536.9,495.769C536.673,495.726 536.041,495.623 535.623,495.521C535.574,497.682 535.508,499.88 535.419,502.13C535.923,502.405 536.464,502.91 536.987,502.91C537.51,502.91 538.051,502.405 538.555,502.13C538.466,499.88 538.401,497.682 538.352,495.521C537.906,495.63 537.229,495.74 536.987,495.782C536.958,495.787 536.929,495.775 536.9,495.769ZM541.926,494.149C541.094,494.586 540.236,494.955 539.346,495.241C539.391,497.31 539.452,499.413 539.534,501.563C540.965,500.685 542.235,499.678 543.356,498.551C542.713,497.07 542.277,495.606 541.926,494.149ZM532.049,494.149C532.88,494.586 533.738,494.955 534.629,495.241C534.583,497.31 534.522,499.413 534.44,501.563C533.009,500.685 531.74,499.678 530.619,498.551C531.262,497.07 531.698,495.606 532.049,494.149ZM545.039,492.139C544.321,492.686 543.587,493.19 542.832,493.64C543.151,495.003 543.538,496.372 544.105,497.755C544.987,496.764 545.766,495.69 546.451,494.538C545.931,493.743 545.461,492.944 545.039,492.139ZM528.935,492.139C529.653,492.686 530.387,493.19 531.142,493.64C530.823,495.003 530.436,496.372 529.869,497.755C528.987,496.764 528.208,495.69 527.524,494.538C528.043,493.743 528.513,492.944 528.935,492.139ZM545.838,491.509C546.191,492.193 546.579,492.873 547.004,493.549C547.797,492.047 548.443,490.423 548.956,488.688C547.939,489.685 546.905,490.64 545.838,491.509ZM528.136,491.509C527.783,492.193 527.395,492.873 526.97,493.549C526.177,492.047 525.531,490.423 525.019,488.688C526.036,489.685 527.069,490.64 528.136,491.509ZM544.477,472.804C545.49,473.374 546.285,474.328 546.718,475.922C548.043,475.571 548.666,475.135 548.968,474.661C549.418,475.494 549.481,476.523 549.312,477.671C550.126,477.288 551.018,477.208 551.943,477.254C551.943,477.254 550.181,477.954 550.493,478.513C555.263,487.061 543.194,488.039 541.367,486.649C540.206,485.765 536.453,480.67 543.874,475.459C544.616,474.938 544.477,472.804 544.477,472.804ZM529.497,472.804C528.484,473.374 527.689,474.328 527.256,475.922C525.931,475.571 525.309,475.135 525.006,474.661C524.557,475.494 524.493,476.523 524.662,477.671C523.848,477.288 522.956,477.208 522.031,477.254C522.031,477.254 523.794,477.954 523.482,478.513C518.711,487.061 530.78,488.039 532.607,486.649C533.769,485.765 537.522,480.67 530.101,475.459C529.358,474.938 529.497,472.804 529.497,472.804Z" style="fill:white;"/>
    </g>
</svg>
