<?xml version="1.0" encoding="UTF-8" standalone="no"?>
<!DOCTYPE svg PUBLIC "-//W3C//DTD SVG 1.1//EN" "http://www.w3.org/Graphics/SVG/1.1/DTD/svg11.dtd">
<svg width="100%" height="100%" viewBox="0 0 1000 1000" version="1.1" xmlns="http://www.w3.org/2000/svg" xmlns:xlink="http://www.w3.org/1999/xlink" xml:space="preserve" xmlns:serif="http://www.serif.com/" style="fill-rule:evenodd;clip-rule:evenodd;stroke-linejoin:round;stroke-miterlimit:2;">
    <g transform="matrix(1.31112,0,0,1.31112,-221.115,-199.851)">
        <path d="M556.617,859C560.661,862.832 556.707,873.662 551,876.487C550.797,876.588 550.591,876.679 550.383,876.758L550.383,877C550.255,876.968 550.127,876.932 550,876.892C549.873,876.932 549.745,876.968 549.617,877L549.617,876.758C549.409,876.679 549.203,876.588 549,876.487C543.293,873.662 539.339,862.832 543.383,859L556.617,859ZM535.989,732.558L536.013,558L563.987,558L564.026,845C568.496,845 568.659,854.774 559.523,854.774L540.477,854.774C531.341,854.774 531.504,845 535.974,845L535.976,830L473.018,830L473.018,788.145C473.635,789.724 474.346,791.313 475.152,792.903C479.961,803.064 492.327,813.226 502.631,820C512.936,813.226 525.301,803.064 530.11,792.903C536.98,779.354 536.98,765.805 530.11,759.031C523.24,752.257 509.501,752.257 502.631,765.805C495.761,752.257 482.022,752.257 475.152,759.031C474.346,759.826 473.635,760.714 473.018,761.684L473.018,732.558L535.989,732.558ZM564.644,538L565.215,538.029L565.779,538.112L566.309,538.248L566.874,538.463L567.396,538.736L567.873,539.064L568.306,539.441L568.501,539.64C571.568,542.951 570.567,550.183 565.501,550.936L564.661,551L564.617,551L535.383,551L534.578,550.947L534.499,550.936C529.433,550.183 528.432,542.951 531.499,539.64L531.913,539.24L532.37,538.887L532.872,538.586L533.417,538.343L534.006,538.161L534.639,538.045L535.296,538.001L535.383,538L564.617,538L564.644,538ZM570.636,504.048L571.24,505.65L571.76,507.167L572.228,508.69L572.587,510.001L572.903,511.316L573.174,512.637L573.365,513.741L573.522,514.85L573.645,515.962L573.732,517.076L573.773,517.911L573.794,519.02L573.776,520.155L573.718,521.295L573.618,522.44L573.474,523.59L573.286,524.746L573.052,525.907L572.771,527.074L572.441,528.247L572.063,529.426L571.633,530.611L571.152,531.802L570.673,532.88L570.617,533L529.383,533L528.802,531.692L528.24,530.275L527.828,529.101L527.466,527.933L527.152,526.771L526.885,525.615L526.664,524.464L526.488,523.319L526.356,522.179L526.265,521.044L526.216,519.914L526.207,518.789L526.228,517.89L526.274,516.989L526.364,515.868L526.49,514.75L526.651,513.637L526.846,512.528L527.074,511.423L527.388,510.101L527.744,508.785L528.141,507.474L528.653,505.95L529.214,504.433L529.383,504L531.129,504.399L532.81,504.759L534.666,505.127L536.229,505.414L537.808,505.681L539.402,505.928L541.012,506.154L542.639,506.358L544.282,506.54L545.942,506.699L547.62,506.833L549.317,506.944L550,506.981L551.703,506.881L553.389,506.755L555.056,506.606L556.706,506.433L558.339,506.238L559.956,506.021L561.706,505.758L563.287,505.498L564.854,505.217L566.574,504.885L568.258,504.533L569.929,504.16L570.617,504L570.636,504.048ZM568.088,473.017L568.117,473.012L568.148,473.123C569.475,477.824 569.583,482.457 568.117,487C569.332,491.415 569.189,495.738 568.117,500C562.564,500.949 556.087,501.916 550.383,501.995L550.383,502L549.617,502L549.617,501.995C543.913,501.916 537.436,500.949 531.883,500C530.811,495.738 530.668,491.415 531.883,487C530.417,482.457 530.525,477.824 531.852,473.123L531.883,473.012L531.912,473.017L531.914,473.012C537.945,474.05 543.889,474.962 550,474.999C556.111,474.962 562.055,474.05 568.086,473.012L568.088,473.017ZM554.504,392.878L567.791,432.736C567.853,432.922 567.847,433.124 567.775,433.306L553.147,470.306C560.114,470.544 564.102,467.593 569,466L578,430L567,390C562.99,391.415 559.753,392.495 554.504,392.878ZM545.496,392.878L532.209,432.736C532.147,432.922 532.153,433.124 532.225,433.306L546.853,470.306C539.886,470.544 535.898,467.593 531,466L522,430L533,390C537.01,391.415 540.247,392.495 545.496,392.878ZM549.82,470.028C549.403,470.09 548.995,470.142 548.597,470.184L533.887,432.976L547.22,392.975C548.089,393.011 549.013,393.029 550,393.029L550.184,393.029C551.102,393.027 551.965,393.008 552.78,392.975L566.113,432.976L551.403,470.184C550.948,470.136 550.481,470.075 550,470L549.82,470.028ZM531.389,357.494C501.773,349.331 480,322.188 480,290L480.016,288.511L480.051,287.296L480.115,285.953L480.172,285.066L480.289,283.605L480.408,282.407L480.563,281.09L480.615,280.688L480.754,279.698L480.988,278.228L481.172,277.185L481.337,276.327L481.413,275.952C481.508,275.486 481.608,275.022 481.712,274.559L481.995,273.355L482.205,272.515L482.4,271.776C482.647,270.861 482.911,269.953 483.194,269.052L483.485,268.146C484.37,265.454 485.414,262.835 486.603,260.303C466.435,219.083 465.682,196.094 473.415,191.554C480.413,187.445 504.448,195.7 525.991,224.233L527.153,223.819L528.469,223.379L529.699,222.994L530.988,222.617L531.687,222.424L533.01,222.08L534.284,221.774L535.049,221.603L536.515,221.3L537.265,221.158L538.565,220.931L539.91,220.723L540.657,220.619L542.203,220.43L543.357,220.312L544.726,220.196L546.073,220.109L546.85,220.07L548.423,220.017L549.605,220.001L551.016,220.008L552.363,220.039L553.185,220.071L554.706,220.156L555.845,220.241L557.253,220.372L558.564,220.52L559.382,220.625L560.849,220.837L561.959,221.019L563.322,221.269L564.231,221.45L564.952,221.603L566.296,221.91L567.188,222.129L567.506,222.211L568.369,222.439L569.735,222.825L570.81,223.151L572.243,223.614L573.408,224.016L574.009,224.233C595.552,195.7 619.587,187.445 626.585,191.554C634.318,196.094 633.565,219.083 613.397,260.303C614.588,262.838 615.631,265.456 616.515,268.146L616.806,269.052C617.089,269.952 617.353,270.86 617.6,271.776L617.901,272.934L618.107,273.777L618.288,274.559C618.392,275.022 618.492,275.486 618.587,275.952L618.876,277.449L619.055,278.479L619.193,279.346L619.254,279.754L619.4,280.804L619.575,282.256L619.682,283.289L619.761,284.174L619.83,285.092L619.916,286.538L619.964,287.745L619.994,289.096L620,290C620,322.16 598.265,349.284 568.698,357.47C569.045,362.459 569.068,367.464 568.5,372.5C569.124,376.191 569.098,379.683 568.5,383C556.167,388.391 543.833,388.245 531.5,383C531.147,379.57 531.201,376.252 531.5,373C530.936,367.525 531.043,362.44 531.389,357.494ZM550,230C549.613,230 549.226,230.004 548.838,230.011C548.487,230.018 548.135,230.027 547.79,230.04C547.369,230.056 546.95,230.075 546.531,230.099C545.766,230.143 545.004,230.201 544.247,230.273L543.869,230.31C543.294,230.368 542.722,230.435 542.156,230.509L541.24,230.636L540.125,230.81L539.385,230.938L538.679,231.068C538.261,231.149 537.844,231.233 537.431,231.321C536.767,231.463 536.108,231.616 535.452,231.779C533.31,232.313 531.213,232.963 529.165,233.723C527.807,234.226 526.472,234.777 525.16,235.375L524.655,235.608C524.238,235.803 523.823,236.003 523.408,236.209C520.701,237.551 518.109,239.091 515.653,240.81L514.983,241.286L514.4,241.711L513.536,242.362L512.966,242.804L512.683,243.028C511.946,243.615 511.222,244.219 510.513,244.839C509.583,245.653 508.679,246.495 507.8,247.365C507.434,247.727 507.073,248.094 506.715,248.467C506.419,248.775 506.127,249.087 505.838,249.4L505.452,249.824C505.325,249.965 505.199,250.106 505.074,250.247C504.722,250.644 504.376,251.045 504.036,251.451C503.849,251.673 503.664,251.897 503.48,252.122L502.976,252.749C502.769,253.01 502.564,253.273 502.362,253.536C502.225,253.715 502.088,253.894 501.953,254.075C501.739,254.361 501.527,254.649 501.319,254.938C497.838,259.76 495.056,265.118 493.121,270.865L492.969,271.322C491.96,274.402 491.193,277.592 490.692,280.868L490.571,281.696C490.506,282.167 490.446,282.64 490.392,283.114L490.35,283.491L490.236,284.653C490.171,285.381 490.12,286.113 490.082,286.848C490.027,287.894 490,288.944 490,290C490,291.523 490.057,293.033 490.169,294.531L490.28,295.826C490.36,296.656 490.457,297.481 490.571,298.298L490.636,298.76C491.108,301.984 491.837,305.125 492.803,308.163L492.854,308.322C494.061,312.084 495.629,315.686 497.519,319.085L497.774,319.541C499.132,321.933 500.648,324.224 502.312,326.399C502.744,326.964 503.186,327.521 503.639,328.072C503.834,328.309 504.031,328.544 504.227,328.776C504.993,329.679 505.784,330.558 506.6,331.413C506.84,331.665 507.083,331.915 507.328,332.163L507.582,332.418C508.131,332.968 508.692,333.507 509.263,334.035L509.498,334.251C509.902,334.622 510.312,334.987 510.725,335.346L511.291,335.83L511.54,336.04C511.798,336.255 512.057,336.468 512.316,336.678L513.302,337.458C518.129,341.198 523.542,344.218 529.379,346.357C529.57,346.427 529.762,346.496 529.955,346.564C530.224,346.66 530.494,346.753 530.765,346.845L531.114,346.962C531.414,347.062 531.716,347.159 532.019,347.254C535.115,348.227 538.317,348.955 541.604,349.416L541.798,349.443C542.588,349.551 543.383,349.644 544.182,349.721L545.006,349.795C545.638,349.847 546.272,349.889 546.91,349.922C547.55,349.954 548.193,349.977 548.838,349.989C549.226,349.996 549.613,350 550,350L550.388,349.999C550.645,349.997 550.901,349.994 551.162,349.989C551.807,349.977 552.449,349.954 553.09,349.922C553.727,349.889 554.361,349.847 554.994,349.795L555.753,349.727L556.116,349.691C556.781,349.624 557.443,349.546 558.099,349.457L558.563,349.392C561.864,348.919 565.08,348.178 568.186,347.19L568.886,346.962L569.235,346.845C569.583,346.727 569.93,346.606 570.276,346.482L570.621,346.357C576.479,344.21 581.91,341.175 586.75,337.418L587.684,336.678C587.935,336.474 588.185,336.269 588.434,336.062L588.709,335.83C589.626,335.055 590.519,334.253 591.388,333.424L592.015,332.817C592.332,332.506 592.646,332.191 592.958,331.871L593.285,331.533C593.705,331.096 594.118,330.652 594.525,330.202C594.948,329.734 595.364,329.259 595.773,328.776C595.872,328.659 595.971,328.542 596.069,328.425C597.422,326.805 598.691,325.113 599.869,323.355C601.022,321.636 602.088,319.855 603.06,318.019L603.401,317.364C603.649,316.883 603.889,316.399 604.124,315.911C604.826,314.448 605.471,312.952 606.055,311.427C606.233,310.961 606.406,310.492 606.573,310.02C607.114,308.493 607.595,306.938 608.013,305.356C608.086,305.081 608.157,304.804 608.226,304.527C608.597,303.036 608.913,301.523 609.17,299.992L609.205,299.784C609.687,296.847 609.956,293.839 609.995,290.775L610,290L609.999,289.612C609.994,288.914 609.978,288.219 609.949,287.523C609.849,285.048 609.598,282.612 609.206,280.226L609.14,279.83C608.856,278.173 608.505,276.539 608.089,274.933C607.968,274.465 607.841,274 607.709,273.537C607.273,272.007 606.777,270.502 606.226,269.026C606.093,268.67 605.957,268.316 605.818,267.966C605.237,266.497 604.6,265.056 603.908,263.645C603.727,263.275 603.541,262.906 603.352,262.54L602.926,261.73L602.542,261.024C601.66,259.429 600.707,257.877 599.686,256.373C598.601,254.774 597.441,253.23 596.212,251.748C595.991,251.481 595.767,251.215 595.54,250.951C595.116,250.457 594.684,249.97 594.243,249.489C593.907,249.121 593.565,248.758 593.22,248.4L593.045,248.219C592.724,247.888 592.398,247.56 592.068,247.235C591.839,247.01 591.607,246.785 591.374,246.563C590.283,245.523 589.154,244.525 587.987,243.569C587.764,243.387 587.54,243.206 587.317,243.028L586.464,242.362L585.762,241.831C585.515,241.648 585.267,241.466 585.017,241.286L584.429,240.868C581.948,239.125 579.329,237.565 576.592,236.209C576.236,236.032 575.878,235.859 575.518,235.689L574.84,235.375C573.571,234.797 572.279,234.261 570.965,233.771L570.621,233.643C568.669,232.928 566.669,232.311 564.628,231.799C563.946,231.628 563.26,231.469 562.569,231.321C562.155,231.233 561.738,231.148 561.321,231.068L560.615,230.938L559.757,230.791C559.424,230.737 559.091,230.685 558.755,230.635L557.844,230.509C557.276,230.435 556.705,230.369 556.131,230.31L555.753,230.273C554.995,230.201 554.234,230.143 553.469,230.099C553.051,230.075 552.631,230.055 552.21,230.04C551.861,230.028 551.511,230.018 551.162,230.011C550.903,230.006 550.646,230.003 550.388,230.001L550,230ZM516.222,228.686C500.234,210.695 485.508,198.636 480,203.745C474.869,208.505 484.63,233.68 492.099,250.672L492.199,250.525C497.307,243.063 503.823,236.638 511.361,231.636L511.802,231.346C512.23,231.066 512.662,230.791 513.097,230.52L513.988,229.975L514.875,229.45L515.904,228.862L516.222,228.686ZM607.901,250.672C615.37,233.68 625.131,208.505 620,203.745C614.492,198.636 599.766,210.695 583.778,228.686L584.831,229.28L585.129,229.452L586.029,229.985L586.903,230.52C587.339,230.791 587.77,231.066 588.198,231.346L588.639,231.636C596.228,236.673 602.779,243.149 607.901,250.672Z" style="fill:white;"/>
    </g>
</svg>
