<?xml version="1.0" encoding="UTF-8" standalone="no"?>
<!DOCTYPE svg PUBLIC "-//W3C//DTD SVG 1.1//EN" "http://www.w3.org/Graphics/SVG/1.1/DTD/svg11.dtd">
<svg width="100%" height="100%" viewBox="0 0 1000 1000" version="1.1" xmlns="http://www.w3.org/2000/svg" xmlns:xlink="http://www.w3.org/1999/xlink" xml:space="preserve" xmlns:serif="http://www.serif.com/" style="fill-rule:evenodd;clip-rule:evenodd;stroke-linejoin:round;stroke-miterlimit:2;">
    <g transform="matrix(1.95839,0,0,1.95839,-478.765,-479.195)">
        <path d="M499.781,270.219C626.6,270.219 729.561,373.181 729.561,500C729.561,626.819 626.6,729.781 499.781,729.781C372.961,729.781 270,626.819 270,500C270,373.181 372.961,270.219 499.781,270.219ZM499.781,288.435C616.546,288.435 711.345,383.234 711.345,500C711.345,616.766 616.546,711.565 499.781,711.565C383.015,711.565 288.216,616.766 288.216,500C288.216,383.234 383.015,288.435 499.781,288.435ZM495.878,384.188C547.154,384.188 588.784,425.818 588.784,477.094C588.784,528.37 547.154,570 495.878,570C463.795,570 435.488,553.702 418.796,528.946C388.451,569.775 376.364,609.924 368.784,650C329.02,570.991 374.791,384.188 495.878,384.188ZM588.784,440C599.938,478.411 593.477,513.02 568.784,543.929C601.184,573.145 624.463,606.958 641.074,644.132C649.457,587.928 647.982,527.202 588.784,440ZM495.878,452.094C509.676,452.094 520.878,463.296 520.878,477.094C520.878,490.892 509.676,502.094 495.878,502.094C482.08,502.094 470.878,490.892 470.878,477.094C470.878,463.296 482.08,452.094 495.878,452.094ZM556.722,400C526.413,375.015 487.646,371.456 443.784,389C445.003,332.892 474.795,309.076 498.784,304.01C519.169,299.704 559.073,303.24 570.784,344L605.784,361L568.784,374C568.059,381.75 565.697,389.956 556.722,400ZM513.784,330C522.847,330 530.205,337.358 530.205,346.42C530.205,355.483 522.847,362.841 513.784,362.841C504.721,362.841 497.364,355.483 497.364,346.42C497.364,337.358 504.721,330 513.784,330ZM513.784,337C518.983,337 523.205,341.221 523.205,346.42C523.205,351.62 518.983,355.841 513.784,355.841C508.585,355.841 504.364,351.62 504.364,346.42C504.364,341.221 508.585,337 513.784,337Z" style="fill:white;"/>
    </g>
</svg>
