<?xml version="1.0" encoding="UTF-8" standalone="no"?>
<!DOCTYPE svg PUBLIC "-//W3C//DTD SVG 1.1//EN" "http://www.w3.org/Graphics/SVG/1.1/DTD/svg11.dtd">
<svg width="100%" height="100%" viewBox="0 0 1000 1000" version="1.1" xmlns="http://www.w3.org/2000/svg" xmlns:xlink="http://www.w3.org/1999/xlink" xml:space="preserve" xmlns:serif="http://www.serif.com/" style="fill-rule:evenodd;clip-rule:evenodd;stroke-linejoin:round;stroke-miterlimit:2;">
    <g transform="matrix(2.10575,0,0,2.10575,-365.406,-697.795)">
        <path d="M510,395.756C491.78,401.719 484.957,409.509 485.098,418C485.256,427.569 489.61,431.705 510,432.53C532.186,433.428 533.143,448.357 510,447.268C505.44,447.053 483.468,449.52 482.196,451.466C480.924,453.412 470.9,457.628 465,455C459.1,452.372 447.899,453.559 442,459C436.101,464.441 425.989,471.419 437,476C448.011,480.581 455.009,482.334 463,488C465.244,489.591 479.479,520.98 480,544C480.65,572.72 482.81,647.447 485,650C486.904,652.22 490.002,656.066 495.881,654.854C500.297,653.943 504.32,660.636 500,664.214C495.68,667.791 490.799,665.454 480,673.277C469.201,681.1 426.219,719 426.219,719C426.219,719 425.851,735.618 425.031,750C424.21,764.382 423.483,770.336 422.863,774.836C421.474,784.929 401.315,784.84 400,776C399.433,772.188 398.109,752.712 398,744C397.891,735.288 396.884,701.358 396,699C395.116,696.642 394.28,694.925 392.5,697C390.72,699.075 386.733,706.694 381.5,702C377.149,698.097 344.22,668.668 336.5,668C333.212,667.716 330.181,663.993 329,661.5C327.276,657.86 329.495,652.173 331.5,654C333.607,655.919 336.831,651.554 340.5,644.5C341.64,642.307 343.846,592.629 341.5,579C339.846,569.392 340.539,550.156 342,545C343.461,539.844 349.562,513.12 351,505C352.274,497.805 361.742,485.821 367,483C370.816,480.953 395,472 395,472C395,472 377.712,464.559 374,464C371.762,463.663 365.112,460.926 357,461C351.296,461.052 343.82,459.031 342,457C340.18,454.969 338.024,451.753 331,451C323.976,450.247 312.996,449.049 308,449C295.329,448.875 293.537,435.536 305,434C308.088,433.586 320.47,431.298 323,431C333.778,429.73 344.857,425.495 337,412C333.342,405.717 315.603,392.456 303,393C296.883,393.264 283.522,392.253 278,386C267.336,373.923 273.52,363.81 284,358.802C294.193,353.931 310.77,357.222 315,372C315.973,375.398 314.34,377.776 314,379C313.221,381.808 313.455,383.347 316,386C318.545,388.653 351.018,415.632 354,419C364.729,431.115 380.334,426.232 386,424C396.353,419.921 410.255,408.85 426,419C430.127,421.66 440.441,424.572 450,426.738C457.475,428.431 466.398,421.908 471,417C476.894,410.713 487.153,401.48 492,398C498.421,393.39 505.843,388.782 507,382C512.925,347.258 539.809,350.509 547.535,367.528C553.928,381.611 544.729,396.556 520,393.696C516.084,393.243 512.101,395.069 510,395.756ZM410.974,424.512C421.59,424.512 430.21,433.131 430.21,443.748C430.21,454.364 421.59,462.984 410.974,462.984C400.357,462.984 391.738,454.364 391.738,443.748C391.738,433.131 400.357,424.512 410.974,424.512ZM360,454C359.137,454.673 364.423,457.073 370.031,458.979C375.64,460.886 381.571,462.299 382,461C385.485,450.446 362.079,452.377 360,454ZM473.413,430C455.473,425.67 457.561,450.392 473.413,445.185C481.543,442.515 485.243,438.072 481.902,434.516C480.488,433.01 477.876,431.077 473.413,430ZM349.715,430C367.655,425.67 365.567,450.392 349.715,445.185C341.585,442.515 337.885,438.072 341.227,434.516C342.641,433.01 345.252,431.077 349.715,430Z" style="fill:white;"/>
    </g>
</svg>
