<?xml version="1.0" encoding="UTF-8" standalone="no"?>
<!DOCTYPE svg PUBLIC "-//W3C//DTD SVG 1.1//EN" "http://www.w3.org/Graphics/SVG/1.1/DTD/svg11.dtd">
<svg width="100%" height="100%" viewBox="0 0 1000 1000" version="1.1" xmlns="http://www.w3.org/2000/svg" xmlns:xlink="http://www.w3.org/1999/xlink" xml:space="preserve" xmlns:serif="http://www.serif.com/" style="fill-rule:evenodd;clip-rule:evenodd;stroke-linejoin:round;stroke-miterlimit:2;">
    <path d="M641.715,947.497L655.277,927.702L655.277,827.903L708.404,827.903L708.404,50L291.596,50L291.596,827.708L641.715,950L641.715,947.497ZM608.37,634.665L508.336,599.725L508.336,856.267L608.37,891.208L608.37,634.665ZM598.071,645.245L519.383,617.761L519.383,849.626L598.071,877.11L598.071,645.245ZM324.94,535.667L324.94,792.209L424.974,827.15L424.974,570.608L324.94,535.667ZM413.928,580.927L335.239,553.442L335.239,785.307L413.928,812.792L413.928,580.927ZM370.751,77.648L655.277,175.916L655.277,800.256L675.06,800.256L675.06,77.648L370.751,77.648ZM606.145,615.077C609.21,620.461 614.275,625.009 620,626.93C625.725,628.852 630.79,627.704 633.855,624.377L633.855,640L606.145,630.7L606.145,615.077ZM633.855,604.923C630.79,599.539 625.725,594.991 620,593.07C614.275,591.148 609.21,592.296 606.145,595.623L606.145,580L633.855,589.3L633.855,604.923ZM608.37,394.674L508.336,359.734L508.336,541.796L608.37,576.736L608.37,394.674ZM598.071,404.319L519.383,376.834L519.383,531.989L598.071,559.474L598.071,404.319ZM424.974,330.617L324.94,295.676L324.94,477.738L424.974,512.679L424.974,330.617ZM413.928,340L335.239,312.515L335.239,467.671L413.928,495.155L413.928,340ZM608.37,245.714L508.336,210.774L508.336,293.529L608.37,328.47L608.37,245.714ZM597.697,254.137L519.009,226.652L519.009,286.4L597.697,313.885L597.697,254.137ZM424.974,181.657L324.94,146.716L324.94,229.472L424.974,264.412L424.974,181.657ZM413.554,189.818L334.865,162.334L334.865,222.081L413.554,249.566L413.554,189.818Z" style="fill:white;"/>
</svg>
