<?xml version="1.0" encoding="UTF-8" standalone="no"?>
<!DOCTYPE svg PUBLIC "-//W3C//DTD SVG 1.1//EN" "http://www.w3.org/Graphics/SVG/1.1/DTD/svg11.dtd">
<svg width="100%" height="100%" viewBox="0 0 1000 1000" version="1.1" xmlns="http://www.w3.org/2000/svg" xmlns:xlink="http://www.w3.org/1999/xlink" xml:space="preserve" xmlns:serif="http://www.serif.com/" style="fill-rule:evenodd;clip-rule:evenodd;stroke-linejoin:round;stroke-miterlimit:2;">
    <path d="M399.893,229.138C399.893,198.568 444.75,173.75 500,173.75C555.25,173.75 600.107,198.568 600.107,229.138C621.189,202.664 677.152,197.431 725,217.459C772.848,237.487 794.579,275.241 773.496,301.715C810.012,286.43 862.086,302.185 889.711,336.875C917.337,371.565 910.119,412.138 873.603,427.423C915.768,427.423 950,459.944 950,500C950,540.056 915.768,572.577 873.603,572.577C910.119,587.862 917.337,628.435 889.711,663.125C862.086,697.815 810.012,713.57 773.496,698.285C794.579,724.759 772.848,762.513 725,782.541C677.152,802.569 621.189,797.336 600.107,770.862C600.107,801.432 555.25,826.25 500,826.25C444.75,826.25 399.893,801.432 399.893,770.862C378.811,797.336 322.848,802.569 275,782.541C227.152,762.513 205.421,724.759 226.504,698.285C189.988,713.57 137.914,697.815 110.289,663.125C82.663,628.435 89.881,587.862 126.397,572.577C84.232,572.577 50,540.056 50,500C50,459.944 84.232,427.423 126.397,427.423C89.881,412.138 82.663,371.565 110.289,336.875C137.914,302.185 189.988,286.43 226.504,301.715C205.421,275.241 227.152,237.487 275,217.459C322.848,197.431 378.811,202.664 399.893,229.138ZM401.057,437.75C399.637,442.167 400.727,446.988 404.737,451.25C412.559,459.564 428.932,463.034 442.268,459.719C439.265,468.354 447.677,477.646 462.378,480.929C477.079,484.213 493.255,480.413 500,472.614C506.745,480.413 522.921,484.213 537.622,480.929C552.323,477.646 560.735,468.354 557.732,459.719C571.068,463.034 587.441,459.564 595.263,451.25C599.535,446.709 600.493,441.535 598.633,436.89C621.667,393.662 651.266,354.249 689.716,320C687.776,378.543 669.486,431.241 637.701,479.113C657.255,499.318 668.75,523.995 668.75,550.625C668.75,618.924 593.136,674.375 500,674.375C406.864,674.375 331.25,618.924 331.25,550.625C331.25,524.2 342.569,499.698 361.845,479.584C329.865,431.58 311.463,378.731 309.517,320C348.217,354.472 377.951,394.175 401.057,437.75ZM500,550.625C531.045,550.625 556.25,568.268 556.25,590C556.25,611.732 531.045,629.375 500,629.375C468.955,629.375 443.75,611.732 443.75,590C443.75,568.268 468.955,550.625 500,550.625ZM522.5,573.125C525.544,573.125 528.016,580.686 528.016,590C528.016,599.314 525.544,606.875 522.5,606.875C519.456,606.875 516.984,599.314 516.984,590C516.984,580.686 519.456,573.125 522.5,573.125ZM477.5,573.125C480.544,573.125 483.016,580.686 483.016,590C483.016,599.314 480.544,606.875 477.5,606.875C474.456,606.875 471.984,599.314 471.984,590C471.984,580.686 474.456,573.125 477.5,573.125ZM578.75,477.5C584.959,477.5 590,492.623 590,511.25C590,529.877 584.959,545 578.75,545C572.541,545 567.5,529.877 567.5,511.25C567.5,492.623 572.541,477.5 578.75,477.5ZM421.25,477.5C427.459,477.5 432.5,492.623 432.5,511.25C432.5,529.877 427.459,545 421.25,545C415.041,545 410,529.877 410,511.25C410,492.623 415.041,477.5 421.25,477.5Z" style="fill:white;"/>
</svg>
