<?xml version="1.0" encoding="UTF-8" standalone="no"?>
<!DOCTYPE svg PUBLIC "-//W3C//DTD SVG 1.1//EN" "http://www.w3.org/Graphics/SVG/1.1/DTD/svg11.dtd">
<svg width="100%" height="100%" viewBox="0 0 1000 1000" version="1.1" xmlns="http://www.w3.org/2000/svg" xmlns:xlink="http://www.w3.org/1999/xlink" xml:space="preserve" xmlns:serif="http://www.serif.com/" style="fill-rule:evenodd;clip-rule:evenodd;stroke-linejoin:round;stroke-miterlimit:2;">
    <g transform="matrix(1.59007,0,0,1.59007,-183.815,125.317)">
        <path d="M533.163,214.072C521.479,251.893 516.648,276.38 520,284.938C480.568,295.263 453.419,282.4 430.054,262.39C425.544,258.473 419.314,256.533 410,258.139C412.201,283.558 410.463,308.645 406.833,333.571C404.646,314.769 402.38,296.13 397.803,282.331C393.009,316.59 390.224,350.85 392.975,385.109C387.459,374.152 382.156,363.185 380,352.061C378.792,374.449 383.399,394.039 390,412.667C381.979,404.265 375.191,393.6 370,380C366.657,394.364 366.381,408.8 368,423.279C360.433,408.853 355.766,394.426 355.662,380C354.668,391.238 351.11,402.007 345.711,412.439C347.518,384.742 345.586,362.032 340,344.195L335.452,360C340.469,312.284 336.161,287.521 324.848,280C329.914,302.451 331.804,323.228 328.726,344.363C326.047,362.767 329.776,380.159 330,396.992C323.393,385.285 315.981,368.354 305.27,330C303.655,369.506 310.318,400 326.618,420C304.812,403.557 287.516,372.976 277.367,320C273.955,341.178 269.429,355.765 264.081,365.5C267.292,338.202 267.388,311.667 266.506,285.371C352.468,229.626 435.305,181.249 513.894,142.883C519.555,143.399 532.026,183.921 528.185,195.442C525.886,202.337 532.522,214.126 533.163,214.072L533.209,213.921C533.213,213.97 533.224,214.046 533.17,214.071L533.163,214.072ZM542.795,221L530,260C559.783,306.992 592.771,350.602 642.233,376.818C625.692,354.467 610.986,332.175 600,310C641.765,318.425 678.242,336.055 713.06,356.574C696.507,321.396 683.385,286.336 632.89,250C644.074,247.071 662.606,250.56 682.272,255.04C665.743,244.76 650.455,234.552 610,222.881C618.758,216.258 633.255,213.217 647.468,210C622.571,210.755 604.511,208.246 564.71,216.118C558.057,217.434 550.797,219.04 542.795,221ZM657.833,82.018C629.118,89.61 552.374,123.373 515,139.659C416.973,182.377 308.136,256.294 223,312L227,268L214,310L212,304L210,323C180.95,340.851 164.486,357.323 154.74,373.059C146.504,373.282 142.65,371.068 154.721,360C163.464,340.935 206,256.089 206,256.089L206,250L209.563,249L209,243L215.629,237L246.491,177L229,187L252.244,166C252.244,166 266.779,140.078 283.613,110.592L304,97L304,94L333,80L338,83L396.684,52.699C429.807,54.856 458,56.795 458,56.795C464.246,55.646 473.348,54.663 488,54L478,58.293C479.185,59.14 503.374,58.627 528,62.508C564.529,68.265 617.624,71.264 650,73.523C682.545,71.079 673.439,80.901 660,92C660.244,91.726 660.481,91.453 660.708,91.184L618,118L608,114L611,122L592,112L601,128C580.546,141.433 556.833,155.885 531,171C531.605,168.231 531.174,165.575 530,163C553.362,150.137 575.398,137.465 596,125L589,109L608,118L606,112L614,114C635.528,102.503 651.605,91.665 657.833,82.018ZM159,371L215,347L221,326L223,332L226,323L227,339L265,320L265,288L263,319L228,337L226.532,320L223,328.494L221,323L214,346L159,371ZM286.78,105.049C298.438,84.67 310.81,63.28 320,48C339.446,49.051 366.36,50.733 391.255,52.346L338.5,80L334,77L301,93L301,96L286.78,105.049Z" style="fill:white;"/>
    </g>
</svg>
