<?xml version="1.0" encoding="UTF-8" standalone="no"?>
<!DOCTYPE svg PUBLIC "-//W3C//DTD SVG 1.1//EN" "http://www.w3.org/Graphics/SVG/1.1/DTD/svg11.dtd">
<svg width="100%" height="100%" viewBox="0 0 1000 1000" version="1.1" xmlns="http://www.w3.org/2000/svg" xmlns:xlink="http://www.w3.org/1999/xlink" xml:space="preserve" xmlns:serif="http://www.serif.com/" style="fill-rule:evenodd;clip-rule:evenodd;stroke-linejoin:round;stroke-miterlimit:2;">
    <g transform="matrix(0.954374,0,0,0.957447,22.8128,21.2766)">
        <path d="M491.97,932.185L464.576,788.561C478.862,784.907 486.339,770.908 488.373,748.637C465.656,780.793 449.147,793.973 437.208,792.675C405.004,789.174 395.913,724.694 405.082,659.805C402.881,648.364 396.229,648.14 387.234,653.817C327.974,691.426 278.255,707.773 251.588,694.976C238.596,688.742 240.814,669.863 262.297,634.853C247.621,641.641 234.944,649.868 238.5,669.787L71.917,719.692L68.348,729.673C53.085,734.607 40.472,735.745 32.811,729.798L31.347,730.519C28.885,721.921 36.382,713.269 49.195,704.588L61.285,706.985L196.099,610.924C214.885,623.466 229.718,618.37 244.064,611.103C197.177,609.205 176.578,601.376 176.637,588.821C176.759,563.05 218.495,524.126 286.953,499.881C297.312,496.186 300.407,491.241 289.695,483.921C218.118,458.138 165.368,423.785 177.856,398.639C182.485,389.317 204.347,383.915 248.903,383.49C224.894,373.832 206.702,372.264 195.786,380.815L55.496,285.212L47.645,290.63C39.827,282.099 33.816,276.942 28.987,264.804L28.487,264.555C28.589,264.474 28.691,264.394 28.796,264.316L28.746,264.19L28.877,264.255C36.56,258.506 49.072,259.671 64.183,264.555L67.753,274.536L234.335,324.442C230.779,344.36 243.457,352.587 258.133,359.375C236.649,324.365 234.431,305.486 247.424,299.252C274.091,286.455 323.809,302.802 383.069,340.411C392.064,346.088 402.286,340.874 404.487,329.432C395.318,264.544 404.409,209.047 436.614,205.546C448.552,204.248 465.061,217.428 487.778,249.584C485.745,227.313 478.267,213.314 463.981,209.659L492.538,59.943L483.019,56.949C487.904,47.031 490.224,40.097 500.272,30.559L500.272,30L500.569,30.279L500.867,30L500.867,30.56C501.012,30.837 501.155,31.958 501.296,33.869C510.035,42.637 512.361,49.348 516.981,58.728L507.462,61.723L536.019,211.439C521.733,215.093 514.255,229.092 512.222,251.363C534.939,219.207 551.448,206.027 563.386,207.325C595.591,210.826 604.682,266.323 595.513,331.212C597.714,342.653 607.936,347.868 616.931,342.191C676.191,304.582 725.909,288.235 752.576,301.031C765.569,307.266 763.351,326.145 741.867,361.155C756.543,354.367 769.221,346.139 765.665,326.221L932.247,276.316L935.817,266.335C950.928,261.45 963.44,260.285 971.123,266.034L971.254,265.969L971.204,266.095C971.309,266.174 971.411,266.254 971.513,266.335L971.013,266.583C966.184,278.721 960.173,283.878 952.355,292.41L944.504,286.992L804.214,382.595C793.298,374.044 775.106,375.611 751.097,385.269C795.653,385.695 817.515,391.097 822.144,400.419C834.632,425.564 781.882,459.917 710.305,485.701C699.593,493.02 702.688,497.965 713.047,501.661C781.505,525.906 823.241,564.83 823.363,590.6C823.422,603.156 802.823,610.984 755.936,612.882C770.282,620.15 785.115,625.245 803.901,612.703L938.715,708.765L950.805,706.367C963.618,715.048 971.115,723.7 968.653,732.299L967.189,731.578C959.528,737.525 946.915,736.386 931.652,731.452L928.083,721.471L761.5,671.566C765.056,651.648 752.379,643.42 737.703,636.632C759.186,671.642 761.404,690.521 748.412,696.756C721.745,709.552 672.026,693.205 612.766,655.596C603.771,649.919 597.119,650.143 594.918,661.585C604.087,726.473 594.996,790.953 562.792,794.454C550.853,795.752 534.344,782.572 511.627,750.416C513.661,772.687 521.138,786.686 535.424,790.341L507.994,934.149L508.006,938.277L517.525,941.272C514.55,947.31 512.527,952.243 509.131,957.329C507.192,960.493 504.823,963.661 501.46,967.137L501.462,968.22C501.275,968.047 501.091,967.873 500.909,967.701C500.716,967.897 500.519,968.094 500.319,968.292L500.323,970C500.019,969.717 499.722,969.436 499.431,969.156C499.139,969.436 498.842,969.717 498.538,970L498.541,968.29C489.487,959.334 487.162,952.565 482.475,943.051L484.215,942.504C484.019,942.098 483.818,941.687 483.614,941.272L491.99,938.637L491.97,932.185ZM507.464,773.046C507.614,813.717 507.733,849.1 507.82,876.573L525.905,794.333C516.878,793.097 511.113,785.224 507.464,773.046ZM491.665,773.972C487.989,784.606 482.433,791.412 474.095,792.554L491.825,873.179C491.768,846.285 491.708,812.469 491.665,773.972ZM531.855,688.534C530.688,794.767 552.612,767.406 587.779,677.555C592.135,730.885 585.942,777.498 560.412,786.348C504.828,750.117 502.37,718.068 531.855,688.534ZM468.145,686.754C469.312,792.987 447.388,765.626 412.221,675.775C407.865,729.105 414.058,775.718 439.588,784.569C495.172,748.338 497.63,716.289 468.145,686.754ZM546.133,748.42L543.754,675.558C563.722,650.307 577.384,646.94 581.829,675.558L546.133,748.42ZM453.867,746.641L456.246,673.779C436.278,648.527 422.616,645.16 418.171,673.779L453.867,746.641ZM893.576,704.504L725.804,616.67C752.41,634.002 770.294,650.768 773.399,666.576C813.458,679.218 853.517,691.861 893.576,704.504ZM106.424,702.724L274.196,614.891C247.59,632.222 229.706,648.988 226.601,664.796C186.542,677.439 146.483,690.081 106.424,702.724ZM508.057,694.522C528.898,689.339 535.91,673.066 540.184,654.598C535.581,650.765 526.711,648.68 508.057,650.606L508.057,694.522ZM661.551,617.668C690.268,629.331 732.943,656.927 728.184,663.581C723.424,670.235 679.401,665.915 632.994,657.593C681.517,690.202 743.324,702.41 747.222,685.54C748.519,679.924 739.926,654.343 724.614,631.283C718.883,622.652 704.708,619.781 691.298,618.118C681.564,616.911 671.9,615.094 661.551,617.668ZM491.605,648.792C473.181,646.926 464.391,649.009 459.816,652.819C464.067,671.187 471.027,687.384 491.607,692.658L491.603,674.988C491.603,668.447 491.604,661.905 491.604,655.364L491.605,648.792ZM903.944,692.181L729.378,614.22C760.574,624.882 786.826,629.491 804.698,623.842C837.78,646.622 870.862,669.402 903.944,692.181ZM338.449,615.889C309.732,627.551 267.057,655.148 271.816,661.802C276.576,668.456 320.599,664.135 367.006,655.813C318.483,688.423 256.676,700.63 252.778,683.76C251.481,678.144 260.074,652.563 275.386,629.504C281.117,620.872 295.292,618.001 308.702,616.339C318.436,615.132 328.1,613.315 338.449,615.889ZM96.056,690.402L270.622,612.44C239.426,623.102 213.174,627.711 195.302,622.063C162.22,644.843 129.138,667.622 96.056,690.402ZM715.095,657.593C697.644,658.549 668.982,655.538 615.146,643.619C604.508,631.711 608.461,624.174 625.855,620.663C660.235,622.951 688.034,639.474 715.095,657.593ZM284.905,655.813C302.356,656.77 331.018,653.759 384.854,641.84C395.492,629.932 391.539,622.394 374.145,618.883C339.765,621.171 311.966,637.694 284.905,655.813ZM565.171,638.629C557.758,637.18 551.026,637.203 544.943,638.629C545.221,643.046 548.605,646.12 555.652,647.611C562.868,646.499 566.041,643.505 565.171,638.629ZM434.829,636.849C442.242,635.401 448.974,635.423 455.057,636.849C454.779,641.267 451.395,644.341 444.348,645.832C437.132,644.719 433.959,641.725 434.829,636.849ZM592.538,643.619C583.739,643.126 579.833,647.377 578.26,640.625C580.315,635.768 583.931,625.905 588.969,628.647C594.609,633.638 596.826,638.629 592.538,643.619ZM407.462,641.84C416.261,641.347 420.167,645.598 421.74,638.845C419.685,633.988 416.069,624.126 411.031,626.868C405.391,631.858 403.174,636.849 407.462,641.84ZM510.437,636.092C515.358,637.228 520.122,637.116 524.716,635.634C524.907,629.143 521.574,624.039 516.386,619.664C511.673,622.971 509.835,628.562 510.437,636.092ZM489.563,634.313C484.642,635.448 479.878,635.336 475.284,633.855C475.093,627.364 478.426,622.26 483.614,617.885C488.327,621.191 490.165,626.783 489.563,634.313ZM506.615,569.629C506.692,585.968 506.766,602.155 506.837,618.094C509.245,614.005 512.475,610.574 516.386,607.687C525.422,612.882 530.764,621.389 533.045,632.64C547.214,633.754 560.269,632.691 572.31,629.646L569.931,629.646C556.431,606.501 535.739,586.325 506.615,569.629ZM491.659,568.849C463.439,585.351 443.3,605.183 430.069,627.866L427.69,627.866C439.731,630.912 452.786,631.975 466.955,630.86C469.236,619.609 474.578,611.103 483.614,605.908C486.741,608.216 489.434,610.872 491.618,613.936L491.632,594.649C491.639,587.744 491.646,580.839 491.652,573.934L491.659,568.849ZM624.665,566.765C611.288,565.201 597.905,563.626 586.589,565.767C588.673,574.037 595.076,582.36 604.437,590.719L580.64,622.659C561.165,598.571 551.51,571.278 548.513,541.812L624.665,566.765ZM375.335,564.985C388.712,563.421 402.095,561.847 413.411,563.987C411.327,572.257 404.924,580.58 395.563,588.94L419.36,620.879C438.835,596.792 448.49,569.499 451.487,540.033L375.335,564.985ZM594.784,617.668C596.054,609.466 601.049,605.176 606.817,601.699C609.664,606.474 609.329,611.49 606.817,616.67C603.787,618.744 600.183,619.8 594.784,617.668ZM405.216,615.889C403.946,607.687 398.951,603.397 393.183,599.919C390.336,604.694 390.671,609.71 393.183,614.891C396.213,616.965 399.817,618.02 405.216,615.889ZM631.804,580.738L621.095,605.691C640.004,611.237 659.06,610.849 678.209,606.689L631.804,580.738ZM368.196,578.959L378.905,603.911C359.996,609.457 340.94,609.07 321.791,604.91L368.196,578.959ZM698.281,567.044C724.681,582.074 774.509,599.277 778.999,592.493C783.489,585.708 757.017,555.888 725.221,526.336C783.149,545.281 826.656,584.077 811.188,595.344C806.039,599.094 775.332,605.642 743.869,606.049C732.093,606.201 722.041,597.339 713.619,588.428C707.507,581.961 700.798,575.848 698.281,567.044ZM301.719,565.264C275.319,580.295 225.491,597.498 221.001,590.713C216.511,583.929 242.983,554.108 274.779,524.557C216.851,543.501 173.344,582.298 188.812,593.564C193.961,597.315 224.668,603.863 256.131,604.269C267.907,604.421 277.959,595.559 286.381,586.649C292.493,580.181 299.202,574.069 301.719,565.264ZM766.272,585.979C758.534,572.823 741.095,553.507 701.871,520.357C684.258,518.583 678.453,525.224 683.525,539.615C703.077,563.446 734.035,575.38 766.272,585.979ZM609.197,584.731L600.867,571.755L619.905,573.752L609.197,584.731ZM547.323,584.731C534.572,574.768 521.476,566.146 508.057,558.78L536.614,542.81C538.712,556.54 542.293,570.515 547.323,584.731ZM645.281,563.899L665.688,543.643C680.868,554.607 689.996,568.644 695.275,584.635L645.281,563.899ZM233.728,584.199C241.466,571.044 258.905,551.728 298.129,518.578C315.742,516.804 321.547,523.444 316.475,537.835C296.923,561.667 265.965,573.6 233.728,584.199ZM390.803,582.951L399.133,569.976L380.095,571.972L390.803,582.951ZM491.674,556.85L463.386,541.031C461.288,554.76 457.707,568.735 452.677,582.951C465.342,573.056 478.348,564.482 491.673,557.149L491.674,556.85ZM354.719,562.12L334.312,541.864C319.132,552.827 310.004,566.864 304.725,582.855L354.719,562.12ZM624.38,562.565C617.104,554.67 610.261,546.743 607.216,538.538C616.796,535.917 628.591,536.407 641.902,539.028L653.704,499.283C619.098,497.179 586.093,514.791 554.173,527.347L574.28,537.894L624.38,562.565ZM375.62,560.786C382.896,552.89 389.739,544.963 392.784,536.759C383.204,534.137 371.409,534.628 358.098,537.248L346.296,497.503C380.902,495.399 413.907,513.011 445.827,525.567L425.72,536.114L375.62,560.786ZM638.099,545.48L620.538,545.917L632.118,558.749L638.099,545.48ZM361.901,543.7L379.462,544.137L367.882,556.969L361.901,543.7ZM664.898,518.541C657.065,523.565 655.134,529.338 654.427,535.267C660.781,534.948 665.792,532.196 669.884,527.781C670.51,524.543 669.798,521.397 664.898,518.541ZM335.102,516.761C342.935,521.785 344.866,527.559 345.573,533.487C339.219,533.168 334.208,530.417 330.116,526.002C329.49,522.763 330.202,519.617 335.102,516.761ZM597.888,494.044C581.227,489.762 565.778,484.56 551.463,478.494L549.254,518.204C564.478,512.863 580.697,497.498 597.888,494.044ZM402.112,492.264C418.773,487.983 434.222,482.78 448.537,476.715L450.746,516.424C435.522,511.084 419.303,495.718 402.112,492.264ZM690.567,492.955C685.659,486.809 678.82,486.338 671.062,488.571C667.076,492.492 667.976,495.559 673.325,497.847C681.298,499.449 687.559,498.565 690.567,492.955ZM309.433,491.175C314.341,485.029 321.18,484.558 328.938,486.791C332.924,490.713 332.024,493.779 326.675,496.068C318.702,497.67 312.441,496.785 309.433,491.175ZM618.48,441.63L559.382,470.974C592.067,484.561 624.095,489.823 655.563,488.01L656.753,489.738C653.876,479.468 648.446,469.452 640.211,459.717C627.455,463.685 616.002,464.058 606.12,460.091C607.74,453.319 611.613,447.104 618.48,441.63ZM381.52,439.85L440.618,469.194C407.933,482.781 375.905,488.043 344.437,486.23L343.247,487.959C346.124,477.689 351.554,467.673 359.789,457.937C372.545,461.905 383.998,462.278 393.88,458.312C392.26,451.54 388.387,445.324 381.52,439.85ZM662.457,480.061C657.255,475.4 653.912,470.498 652.343,465.366C657.043,463.359 661.909,464.28 666.972,468.654C669.431,474.452 667.926,478.254 662.457,480.061ZM337.543,478.281C342.745,473.62 346.088,468.718 347.657,463.587C342.957,461.579 338.091,462.501 333.028,466.875C330.569,472.672 332.074,476.475 337.543,478.281ZM766.289,411.335L689.875,446.037C673.789,473.169 677.144,484.777 708.913,473.697L766.289,411.335ZM233.711,409.555L310.125,444.257C326.211,471.389 322.856,482.997 291.087,471.918L233.711,409.555ZM697.322,430.905C806.415,376.941 798.403,402.057 723.223,472.529C780.46,449.029 816.213,425.715 812.586,402.743C747.388,380.48 713.071,394.719 697.322,430.905ZM302.678,429.126C193.585,375.162 201.597,400.277 276.777,470.75C219.54,447.249 183.787,423.935 187.414,400.964C252.612,378.7 286.929,392.939 302.678,429.126ZM628.829,431.022C615.453,432.586 598.5,429.171 587.184,427.03C589.268,418.76 599.24,415.427 608.602,407.068L581.235,379.121C561.76,403.208 552.105,430.501 549.108,459.967L628.829,431.022ZM547.918,417.049C535.167,427.011 522.071,435.634 508.652,443L537.209,458.969C539.307,445.24 542.888,431.265 547.918,417.049ZM371.171,429.243C384.547,430.807 401.5,427.391 412.816,425.25C410.732,416.98 400.76,413.648 391.398,405.288L418.765,377.341C438.24,401.429 447.895,428.722 450.892,458.188L371.171,429.243ZM452.082,415.269C464.833,425.232 477.929,433.854 491.348,441.22L462.791,457.19C460.693,443.46 457.112,429.485 452.082,415.269ZM632.471,441.567C636.104,444.574 638.371,448.091 639.138,452.169C632.532,455.553 625.596,455.684 618.486,454.103C619.543,449.026 624.397,444.895 632.471,441.567ZM691.606,410.623C696.674,428.354 683.381,441.585 666.451,453.924C660.192,452.497 653.604,447.095 646.266,432.581L691.606,410.623ZM367.529,439.788C363.896,442.794 361.629,446.312 360.862,450.389C367.468,453.773 374.404,453.904 381.514,452.323C380.457,447.246 375.603,443.115 367.529,439.788ZM308.394,408.844C303.326,426.575 316.619,439.805 333.549,452.144C339.808,450.717 346.396,445.316 353.734,430.802L308.394,408.844ZM505.902,432.894C535.714,416.056 556.825,395.624 570.526,372.134L572.905,372.134C560.864,369.088 547.809,368.025 533.64,369.14C531.359,380.391 526.017,388.897 516.981,394.092C511.96,390.386 508.061,385.784 505.585,380.045C505.695,397.491 505.8,415.153 505.902,432.894ZM492.153,382.592C489.794,386.38 486.71,389.589 483.019,392.313C473.983,387.118 468.641,378.611 466.36,367.36C452.191,366.246 439.136,367.309 427.095,370.354L429.474,370.354C442.846,393.28 463.276,413.293 491.967,429.897C492.022,414 492.083,398.197 492.153,382.592ZM613.361,413.056L605.032,426.032L624.07,424.036L613.361,413.056ZM386.639,411.277L394.968,424.252L375.93,422.256L386.639,411.277ZM635.969,417.049L625.26,392.096C644.169,386.55 663.225,386.938 682.374,391.098L635.969,417.049ZM364.031,415.269L374.74,390.317C355.831,384.771 336.775,385.158 317.626,389.318L364.031,415.269ZM595.379,375.128C596.649,383.33 605.214,392.611 610.981,396.089C613.829,391.313 613.494,386.297 610.981,381.117C607.951,379.043 600.778,372.997 595.379,375.128ZM404.621,373.349C403.351,381.551 394.786,390.831 389.019,394.309C386.171,389.534 386.506,384.518 389.019,379.337C392.049,377.264 399.222,371.218 404.621,373.349ZM898.41,305.858L730.88,385.84C765.067,370.945 793.013,362.847 803.576,373.684L898.41,305.858ZM101.59,304.078L269.12,384.061C234.933,369.165 206.987,361.067 196.424,371.904L101.59,304.078ZM511.032,365.687C515.953,364.552 520.717,364.664 525.31,366.145C525.502,372.636 522.169,377.74 516.981,382.115C512.268,378.809 510.43,373.217 511.032,365.687ZM665.716,380.119C694.433,368.456 737.108,340.86 732.348,334.206C727.589,327.552 683.565,331.873 637.159,340.195C685.681,307.585 747.488,295.378 751.386,312.248C752.684,317.863 744.091,343.444 728.779,366.504C723.048,375.135 708.872,378.006 695.462,379.669C685.729,380.876 676.064,382.693 665.716,380.119ZM897.741,293.284L729.969,381.117C756.574,363.785 774.459,347.019 777.564,331.212C817.623,318.569 857.682,305.926 897.741,293.284ZM488.968,363.908C484.047,362.772 479.283,362.884 474.69,364.366C474.498,370.857 477.831,375.961 483.019,380.336C487.732,377.029 489.57,371.438 488.968,363.908ZM334.284,378.339C305.567,366.677 262.892,339.08 267.652,332.426C272.411,325.772 316.435,330.093 362.841,338.415C314.319,305.805 252.512,293.598 248.614,310.468C247.316,316.084 255.909,341.665 271.221,364.724C276.952,373.356 291.128,376.227 304.538,377.889C314.271,379.096 323.936,380.913 334.284,378.339ZM102.259,291.504L270.031,379.337C243.426,362.006 225.541,345.24 222.436,329.432C182.377,316.789 142.318,304.147 102.259,291.504ZM719.26,340.195C701.809,339.238 673.147,342.249 619.31,354.168C608.673,366.076 612.626,373.613 630.019,377.125C664.399,374.836 692.199,358.313 719.26,340.195ZM280.74,338.415C298.191,337.458 326.853,340.469 380.69,352.389C391.327,364.296 387.374,371.834 369.981,375.345C335.601,373.057 307.801,356.534 280.74,338.415ZM593.133,349.178C584.334,349.67 580.428,354.402 578.855,361.155C580.91,366.012 584.526,366.891 589.564,364.149C595.204,359.159 597.421,354.168 593.133,349.178ZM565.766,363.151C558.353,364.599 551.621,364.577 545.538,363.151C545.815,358.733 549.2,355.659 556.247,354.168C563.463,355.281 566.636,358.275 565.766,363.151ZM406.867,347.398C415.666,347.891 419.572,352.623 421.145,359.375C419.09,364.232 415.474,365.112 410.436,362.37C404.796,357.379 402.579,352.389 406.867,347.398ZM434.234,361.371C441.647,362.82 448.379,362.797 454.462,361.371C454.185,356.954 450.8,353.88 443.753,352.389C436.537,353.501 433.364,356.495 434.234,361.371ZM508.652,307.257C529.493,312.441 536.505,328.713 540.779,347.181C536.176,351.015 527.306,353.099 508.652,351.174L508.652,307.257ZM491.348,305.478C470.507,310.661 463.495,326.934 459.221,345.402C463.824,349.235 472.694,351.32 491.348,349.394L491.348,305.478ZM546.728,253.359L544.348,326.221C564.317,351.473 577.979,354.84 582.424,326.221L546.728,253.359ZM453.272,251.58L455.652,324.442C435.683,349.693 422.021,353.06 417.576,324.442L453.272,251.58ZM532.45,313.246C531.283,207.013 553.207,225.391 588.374,315.242C592.73,261.912 586.537,224.282 561.007,215.431C505.422,251.662 502.965,283.711 532.45,313.246ZM467.55,311.466C468.717,205.233 446.793,223.611 411.626,313.462C407.27,260.132 413.463,222.502 438.993,213.652C494.578,249.883 497.035,281.932 467.55,311.466ZM503.607,143.441C503.965,173.291 504.301,207.782 504.615,245.311C507.61,223.935 513.855,209.178 526.5,207.446L503.893,104.641L503.607,143.441ZM494.998,107.906L473.5,205.667C483.615,207.052 489.635,216.772 493.171,231.543C493.639,183.526 494.237,141.124 494.998,107.906Z" style="fill:white;"/>
    </g>
</svg>
