<?xml version="1.0" encoding="UTF-8" standalone="no"?>
<!DOCTYPE svg PUBLIC "-//W3C//DTD SVG 1.1//EN" "http://www.w3.org/Graphics/SVG/1.1/DTD/svg11.dtd">
<svg width="100%" height="100%" viewBox="0 0 1000 1000" version="1.1" xmlns="http://www.w3.org/2000/svg" xmlns:xlink="http://www.w3.org/1999/xlink" xml:space="preserve" xmlns:serif="http://www.serif.com/" style="fill-rule:evenodd;clip-rule:evenodd;stroke-linejoin:round;stroke-miterlimit:2;">
    <g transform="matrix(17.1265,0,0,17.1265,-8063.27,-7485.25)">
        <path d="M499.953,482.5C499.462,482.494 498.857,482.395 498.5,482L474.5,453.5C472.935,451.505 473.894,450 476,450L524,450C526.106,450 527.065,451.505 525.5,453.5L501.5,482C501.131,482.408 500.499,482.5 500,482.5L499.953,482.5ZM481.523,452C480.537,452 480.267,453.119 481,454L500,475L519,454C519.733,453.119 519.463,452 518.477,452L481.523,452Z" style="fill:white;"/>
    </g>
</svg>
