<?xml version="1.0" encoding="UTF-8" standalone="no"?>
<!DOCTYPE svg PUBLIC "-//W3C//DTD SVG 1.1//EN" "http://www.w3.org/Graphics/SVG/1.1/DTD/svg11.dtd">
<svg width="100%" height="100%" viewBox="0 0 1000 1000" version="1.1" xmlns="http://www.w3.org/2000/svg" xmlns:xlink="http://www.w3.org/1999/xlink" xml:space="preserve" xmlns:serif="http://www.serif.com/" style="fill-rule:evenodd;clip-rule:evenodd;stroke-linejoin:round;stroke-miterlimit:2;">
    <g transform="matrix(10.9655,0,0,10.9655,-5293.82,-6922.59)">
        <path d="M557.715,713.382L555.321,706.804C555.144,706.318 554.606,706.067 554.119,706.244C553.633,706.421 553.382,706.959 553.559,707.445L555.953,714.023C556.13,714.509 556.669,714.76 557.155,714.583C557.641,714.407 557.892,713.868 557.715,713.382ZM543.559,713.382L545.953,706.804C546.13,706.318 546.669,706.067 547.155,706.244C547.641,706.421 547.892,706.959 547.715,707.445L545.321,714.023C545.144,714.509 544.606,714.76 544.119,714.583C543.633,714.407 543.382,713.868 543.559,713.382ZM534.606,704.938L540.668,701.438C541.116,701.179 541.69,701.333 541.949,701.781C542.207,702.229 542.054,702.803 541.606,703.061L535.543,706.561C535.095,706.82 534.521,706.666 534.263,706.218C534.004,705.77 534.158,705.196 534.606,704.938ZM566.668,704.938L560.606,701.438C560.158,701.179 559.584,701.333 559.326,701.781C559.067,702.229 559.221,702.803 559.669,703.061L565.731,706.561C566.179,706.82 566.753,706.666 567.012,706.218C567.27,705.77 567.116,705.196 566.668,704.938ZM550.032,687.32L552.637,693.32L557.637,693.709L553.637,697.755L555.637,703.32L550.637,700.765L546.637,705.32L546.637,699.32L543.637,694.502L549.086,694.502L550.032,687.32ZM513.177,695.742L510.783,689.164C510.606,688.678 510.068,688.427 509.582,688.604C509.095,688.78 508.844,689.319 509.021,689.805L511.415,696.383C511.592,696.869 512.131,697.12 512.617,696.943C513.103,696.766 513.354,696.228 513.177,695.742ZM499.021,695.742L501.415,689.164C501.592,688.678 502.131,688.427 502.617,688.604C503.103,688.78 503.354,689.319 503.177,689.805L500.783,696.383C500.606,696.869 500.068,697.12 499.582,696.943C499.095,696.766 498.844,696.228 499.021,695.742ZM532.969,692.656L539.862,693.872C540.372,693.961 540.713,694.448 540.623,694.958C540.533,695.467 540.046,695.808 539.537,695.718L532.643,694.502C532.134,694.413 531.793,693.926 531.883,693.416C531.972,692.907 532.459,692.566 532.969,692.656ZM568.306,692.656L561.412,693.872C560.902,693.961 560.562,694.448 560.652,694.958C560.741,695.467 561.228,695.808 561.738,695.718L568.631,694.502C569.141,694.413 569.482,693.926 569.392,693.416C569.302,692.907 568.815,692.566 568.306,692.656ZM539.78,682.772L544.279,688.134C544.612,688.53 544.56,689.122 544.164,689.455C543.767,689.787 543.175,689.736 542.843,689.339L538.343,683.977C538.011,683.581 538.063,682.989 538.459,682.656C538.855,682.324 539.447,682.375 539.78,682.772ZM561.495,682.772L556.995,688.134C556.663,688.53 556.714,689.122 557.111,689.455C557.507,689.787 558.099,689.736 558.431,689.339L562.931,683.977C563.264,683.581 563.212,682.989 562.815,682.656C562.419,682.324 561.827,682.375 561.495,682.772ZM490.068,687.297L496.13,683.797C496.578,683.539 497.152,683.692 497.411,684.141C497.67,684.589 497.516,685.162 497.068,685.421L491.006,688.921C490.557,689.18 489.984,689.026 489.725,688.578C489.466,688.13 489.62,687.556 490.068,687.297ZM522.131,687.297L516.068,683.797C515.62,683.539 515.046,683.692 514.788,684.141C514.529,684.589 514.683,685.162 515.131,685.421L521.193,688.921C521.641,689.18 522.215,689.026 522.474,688.578C522.732,688.13 522.579,687.556 522.131,687.297ZM550.637,686.875L550.593,686.873C550.096,686.85 549.7,686.44 549.7,685.937L549.7,678.937C549.7,678.43 550.104,678.016 550.607,678L550.668,678C551.171,678.016 551.575,678.43 551.575,678.937L551.575,685.937C551.575,686.44 551.178,686.85 550.681,686.873L550.637,686.875ZM506.099,672.43C509.549,672.43 512.349,675.23 512.349,678.68C512.349,682.129 509.549,684.93 506.099,684.93C502.65,684.93 499.849,682.129 499.849,678.68C499.849,675.23 502.65,672.43 506.099,672.43ZM488.431,675.016L495.324,676.231C495.834,676.321 496.175,676.808 496.085,677.317C495.995,677.827 495.508,678.168 494.999,678.078L488.105,676.862C487.596,676.772 487.255,676.286 487.345,675.776C487.435,675.267 487.921,674.926 488.431,675.016ZM523.768,675.016L516.874,676.231C516.365,676.321 516.024,676.808 516.114,677.317C516.204,677.827 516.69,678.168 517.2,678.078L524.093,676.862C524.603,676.772 524.944,676.286 524.854,675.776C524.764,675.267 524.277,674.926 523.768,675.016ZM495.242,665.132L499.741,670.494C500.074,670.89 500.022,671.482 499.626,671.815C499.229,672.147 498.638,672.095 498.305,671.699L493.806,666.337C493.473,665.94 493.525,665.349 493.921,665.016C494.317,664.683 494.909,664.735 495.242,665.132ZM516.957,665.132L512.457,670.494C512.125,670.89 512.176,671.482 512.573,671.815C512.969,672.147 513.561,672.095 513.894,671.699L518.393,666.337C518.726,665.94 518.674,665.349 518.278,665.016C517.881,664.683 517.289,664.735 516.957,665.132ZM506.099,669.234L506.055,669.233C505.558,669.21 505.162,668.799 505.162,668.297L505.162,661.297C505.162,660.789 505.566,660.376 506.069,660.36L506.13,660.36C506.633,660.376 507.037,660.79 507.037,661.297L507.037,668.297C507.037,668.799 506.64,669.21 506.143,669.233L506.099,669.234ZM546.866,639.438C542.71,643.732 540.874,647.222 541.571,649.836C542.23,652.308 545.155,653.995 550.526,654.836C543.175,661.551 533.402,659.177 531.526,652.343C529.714,645.743 535.842,637.577 546.866,639.438Z" style="fill:white;"/>
    </g>
</svg>
