<?xml version="1.0" encoding="UTF-8" standalone="no"?>
<!DOCTYPE svg PUBLIC "-//W3C//DTD SVG 1.1//EN" "http://www.w3.org/Graphics/SVG/1.1/DTD/svg11.dtd">
<svg width="100%" height="100%" viewBox="0 0 1000 1000" version="1.1" xmlns="http://www.w3.org/2000/svg" xmlns:xlink="http://www.w3.org/1999/xlink" xml:space="preserve" xmlns:serif="http://www.serif.com/" style="fill-rule:evenodd;clip-rule:evenodd;stroke-linejoin:round;stroke-miterlimit:2;">
    <path d="M673.499,708.018C667.384,708.018 662.419,703.053 662.419,696.938C662.419,690.822 667.384,685.857 673.499,685.857C673.499,685.857 858.499,685.857 858.499,685.857C867.886,685.857 879.794,680.558 884.107,674.055L907.144,634.207L919.451,612.917C921.508,609.36 925.245,607.374 929.082,607.383C930.955,607.387 932.853,607.866 934.591,608.871C939.885,611.932 941.698,618.715 938.637,624.009C938.637,624.009 903.055,685.549 903.055,685.549C903.001,685.642 902.946,685.734 902.888,685.824L902.856,685.875C902.789,685.979 902.721,686.083 902.651,686.188C897.163,694.485 884.913,702.294 872.321,705.911L872.169,705.955L872.102,705.973C867.506,707.277 862.867,708.018 858.5,708.018L673.499,708.018ZM141.5,685.857L326.5,685.857C332.615,685.857 337.58,690.822 337.58,696.938C337.58,703.053 332.615,708.018 326.5,708.018L141.499,708.018C137.132,708.018 132.493,707.277 127.896,705.973L127.83,705.955L127.678,705.911C115.085,702.293 102.836,694.485 97.348,686.188C97.278,686.083 97.21,685.979 97.143,685.875L97.115,685.831L97.111,685.824C97.053,685.734 96.998,685.642 96.944,685.549C96.944,685.549 61.362,624.009 61.362,624.009C58.301,618.715 60.114,611.932 65.408,608.871C67.146,607.866 69.044,607.387 70.917,607.383C74.754,607.374 78.491,609.36 80.548,612.917L92.855,634.207L115.892,674.055C120.205,680.558 132.112,685.857 141.5,685.857ZM483.286,533.641C470.658,533.641 460.405,523.389 460.405,510.76L460.405,489.24C460.405,476.611 470.658,466.359 483.286,466.359L516.712,466.359C529.341,466.359 539.594,476.611 539.594,489.24L539.594,510.76C539.594,523.389 529.341,533.641 516.712,533.641L483.286,533.641ZM516.711,486.436L483.288,486.436C481.74,486.436 480.483,487.692 480.483,489.24L480.483,510.76C480.483,512.308 481.74,513.564 483.288,513.564L516.711,513.564C518.259,513.564 519.516,512.308 519.516,510.76L519.516,489.24C519.516,487.692 518.259,486.436 516.711,486.436ZM326.5,291.982C332.615,291.982 337.58,296.947 337.58,303.062C337.58,309.178 332.615,314.143 326.5,314.143C326.5,314.143 141.5,314.143 141.5,314.143C132.146,314.143 120.29,319.403 115.934,325.881C115.934,325.881 80.548,387.083 80.548,387.083C78.491,390.64 74.754,392.626 70.917,392.617C69.044,392.613 67.146,392.134 65.408,391.129C61.867,389.082 59.883,385.369 59.874,381.549L59.874,381.499L59.874,381.469C59.879,380.453 60.024,379.43 60.316,378.431L60.355,378.301C60.597,377.511 60.931,376.736 61.362,375.991L61.709,375.392C65.166,369.392 93.204,320.743 96.836,314.638L96.944,314.451C97.008,314.341 97.074,314.232 97.143,314.125C97.207,314.026 97.272,313.927 97.338,313.827C102.855,305.472 115.234,297.608 127.919,294.02C132.511,292.721 137.14,291.982 141.499,291.982L326.5,291.982ZM929.082,392.617C925.245,392.626 921.508,390.64 919.451,387.083C919.451,387.083 884.065,325.881 884.065,325.881C879.709,319.403 867.853,314.143 858.499,314.143C858.499,314.143 673.499,314.143 673.499,314.143C667.384,314.143 662.419,309.178 662.419,303.062C662.419,296.947 667.384,291.982 673.499,291.982L858.5,291.982C862.859,291.982 867.488,292.721 872.08,294.02C884.764,297.608 897.143,305.471 902.661,313.827C902.727,313.927 902.792,314.026 902.856,314.125C902.925,314.232 902.991,314.341 903.055,314.451L903.163,314.638C906.792,320.738 934.833,369.391 938.29,375.392L938.637,375.991C939.055,376.724 939.391,377.492 939.643,378.298L939.683,378.431C939.975,379.43 940.12,380.452 940.125,381.469L940.125,381.501L940.125,381.549C940.116,385.369 938.132,389.082 934.591,391.129C932.853,392.134 930.955,392.613 929.082,392.617Z" style="fill:white;"/>
</svg>
