<?xml version="1.0" encoding="UTF-8" standalone="no"?>
<!DOCTYPE svg PUBLIC "-//W3C//DTD SVG 1.1//EN" "http://www.w3.org/Graphics/SVG/1.1/DTD/svg11.dtd">
<svg width="100%" height="100%" viewBox="0 0 1000 1000" version="1.1" xmlns="http://www.w3.org/2000/svg" xmlns:xlink="http://www.w3.org/1999/xlink" xml:space="preserve" xmlns:serif="http://www.serif.com/" style="fill-rule:evenodd;clip-rule:evenodd;stroke-linejoin:round;stroke-miterlimit:2;">
    <g transform="matrix(25.2926,0,0,25.2926,-3993.92,-8501.19)">
        <path d="M182.169,345.927C181.069,337.386 177.097,337.078 172,339.173C164.25,342.358 165.254,346.103 170,351.5C163.123,350.989 157.937,350.081 161,360.998C162.896,367.755 164.647,367.793 169.5,364.5C167.524,370.796 168.195,372.341 173,373.398C177.88,374.472 178.925,372.361 179,368C183.814,372.542 186.656,372.438 189.5,369.229C192.369,365.992 193.419,362.298 186.5,358.5C195.714,358.698 196.918,352.328 193.51,346C189.279,338.144 185.466,339.106 182.169,345.927ZM177.71,358.5C177.931,359.033 178.053,359.55 177.978,359.889C177.903,360.228 177.632,360.389 177.067,360.211C176.184,359.933 176.77,358.589 177.71,358.5ZM179.558,357.728C180.075,357.982 180.508,358.29 180.676,358.594C180.844,358.898 180.746,359.198 180.204,359.438C179.357,359.811 178.911,358.414 179.558,357.728ZM176.674,356.351C176.41,357.025 176.07,357.599 175.708,357.841C175.346,358.082 174.96,357.992 174.604,357.339C174.047,356.32 175.747,355.615 176.674,356.351ZM180,355.703C180.245,355.032 180.567,354.459 180.92,354.217C181.273,353.974 181.656,354.061 182.023,354.708C182.596,355.718 180.933,356.429 180,355.703ZM177.677,354.476C176.884,353.271 176.345,352.06 176.376,351.197C176.407,350.333 177.009,349.817 178.5,350C180.825,350.286 179.977,353.838 177.677,354.476Z" style="fill:white;"/>
    </g>
</svg>
