<?xml version="1.0" encoding="UTF-8" standalone="no"?>
<!DOCTYPE svg PUBLIC "-//W3C//DTD SVG 1.1//EN" "http://www.w3.org/Graphics/SVG/1.1/DTD/svg11.dtd">
<svg width="100%" height="100%" viewBox="0 0 1000 1000" version="1.1" xmlns="http://www.w3.org/2000/svg" xmlns:xlink="http://www.w3.org/1999/xlink" xml:space="preserve" xmlns:serif="http://www.serif.com/" style="fill-rule:evenodd;clip-rule:evenodd;stroke-linejoin:round;stroke-miterlimit:2;">
    <g transform="matrix(0.947368,0,0,0.947368,26.3158,26.3158)">
        <path d="M172.445,499.909C176.784,473.95 205.608,470.761 265.033,496.031C289.818,480.802 316.544,459.154 323.25,425.562C328.798,397.769 346.231,366.325 314.589,257.869C273.01,115.352 323.136,46.695 370.882,25C355.287,39.695 345.174,56.475 335.432,72.632C327.697,85.461 326.888,109.103 330.798,138.788C333.594,160.016 334.481,183.018 341.295,204.944C370.981,300.47 386.331,393.615 350.673,440.46C330.922,466.408 310.513,488.999 278.527,500C310.513,511.001 330.922,533.592 350.673,559.54C386.331,606.385 370.981,699.53 341.295,795.056C334.481,816.982 333.594,839.984 330.798,861.212C326.888,890.897 327.697,914.539 335.432,927.368C345.174,943.525 355.287,960.305 370.882,975C323.136,953.305 273.01,884.648 314.589,742.131C346.231,633.675 328.798,602.231 323.25,574.438C316.544,540.846 289.818,519.198 265.033,503.969C205.608,529.239 176.784,526.05 172.445,500.091L172.414,500.091L172.43,500L172.414,499.909L172.445,499.909ZM827.555,499.909C823.216,473.95 794.392,470.761 734.967,496.031C710.182,480.802 683.456,459.154 676.75,425.562C671.202,397.769 653.769,366.325 685.411,257.869C726.99,115.352 676.864,46.695 629.118,25C644.713,39.695 654.826,56.475 664.568,72.632C672.303,85.461 673.112,109.103 669.202,138.788C666.406,160.016 665.519,183.018 658.705,204.944C629.019,300.47 613.669,393.615 649.327,440.46C669.078,466.408 689.487,488.999 721.473,500C689.487,511.001 669.078,533.592 649.327,559.54C613.669,606.385 629.019,699.53 658.705,795.056C665.519,816.982 666.406,839.984 669.202,861.212C673.112,890.897 672.303,914.539 664.568,927.368C654.826,943.525 644.713,960.305 629.118,975C676.864,953.305 726.99,884.648 685.411,742.131C653.769,633.675 671.202,602.231 676.75,574.438C683.456,540.846 710.182,519.198 734.967,503.969C794.392,529.239 823.216,526.05 827.555,500.091L827.586,500.091L827.57,500L827.586,499.909L827.555,499.909ZM254.242,500C236.816,492.269 221.364,486.757 210.083,485.933C198.801,485.11 191.69,488.975 190.945,500C192.435,522.049 219.391,515.462 254.242,500ZM745.758,500C763.184,492.269 778.636,486.757 789.917,485.933C801.199,485.11 808.31,488.975 809.055,500C807.565,522.049 780.609,515.462 745.758,500Z" style="fill:white;"/>
    </g>
</svg>
