<?xml version="1.0" encoding="UTF-8" standalone="no"?>
<!DOCTYPE svg PUBLIC "-//W3C//DTD SVG 1.1//EN" "http://www.w3.org/Graphics/SVG/1.1/DTD/svg11.dtd">
<svg width="100%" height="100%" viewBox="0 0 1000 1000" version="1.1" xmlns="http://www.w3.org/2000/svg" xmlns:xlink="http://www.w3.org/1999/xlink" xml:space="preserve" xmlns:serif="http://www.serif.com/" style="fill-rule:evenodd;clip-rule:evenodd;stroke-linejoin:round;stroke-miterlimit:2;">
    <g transform="matrix(5.7846,0,0,5.7846,-2437.38,-1264.57)">
        <path d="M549.887,311.82C551.594,312.03 552.608,311.484 554.033,310.593C561.129,324.409 562.003,336.516 558.892,341.093C555.689,345.806 547.534,331.569 549.887,311.82ZM465.699,311.82C463.991,312.03 462.977,311.484 461.552,310.593C454.456,324.409 453.582,336.516 456.693,341.093C459.897,345.806 468.051,331.569 465.699,311.82ZM544.331,308.5C545.003,310.084 545.983,310.689 547.467,311.478C539.05,324.531 529.002,331.341 523.482,330.936C517.8,330.518 526.052,316.337 544.331,308.5ZM471.254,308.5C470.583,310.084 469.603,310.689 468.119,311.478C476.536,324.531 486.583,331.341 492.103,330.936C497.786,330.518 489.534,316.337 471.254,308.5ZM555.481,308.656C556.517,307.282 556.551,306.131 556.492,304.452C572.006,305.215 582.927,310.511 585.335,315.494C587.815,320.624 571.408,320.568 555.481,308.656ZM460.104,308.656C459.068,307.282 459.035,306.131 459.093,304.452C443.58,305.215 432.659,310.511 430.25,315.494C427.77,320.624 444.177,320.568 460.104,308.656ZM550.113,300C552.873,300 555.113,302.24 555.113,305C555.113,307.76 552.873,310 550.113,310C547.354,310 545.113,307.76 545.113,305C545.113,302.24 547.354,300 550.113,300ZM465.472,300C462.713,300 460.472,302.24 460.472,305C460.472,307.76 462.713,310 465.472,310C468.232,310 470.472,307.76 470.472,305C470.472,302.24 468.232,300 465.472,300ZM544.519,301.437C543.483,302.811 543.449,303.962 543.508,305.641C527.994,304.879 517.073,299.582 514.665,294.599C512.185,289.469 528.592,289.525 544.519,301.437ZM471.067,301.437C472.103,302.811 472.136,303.962 472.078,305.641C487.591,304.879 498.512,299.582 500.921,294.599C503.401,289.469 486.994,289.525 471.067,301.437ZM555.669,301.593C554.997,300.009 554.017,299.405 552.533,298.615C560.95,285.562 570.998,278.752 576.518,279.158C582.2,279.575 573.948,293.756 555.669,301.593ZM459.917,301.593C460.588,300.009 461.568,299.405 463.052,298.615C454.635,285.562 444.587,278.752 439.068,279.158C433.385,279.575 441.637,293.756 459.917,301.593ZM550.113,298.274C548.406,298.063 547.392,298.61 545.967,299.5C538.871,285.684 537.997,273.577 541.108,269C544.311,264.287 552.466,278.524 550.113,298.274ZM465.472,298.274C467.18,298.063 468.193,298.61 469.619,299.5C476.715,285.684 477.589,273.577 474.477,269C471.274,264.287 463.119,278.524 465.472,298.274Z" style="fill:white;"/>
    </g>
</svg>
