<?xml version="1.0" encoding="UTF-8" standalone="no"?>
<!DOCTYPE svg PUBLIC "-//W3C//DTD SVG 1.1//EN" "http://www.w3.org/Graphics/SVG/1.1/DTD/svg11.dtd">
<svg width="100%" height="100%" viewBox="0 0 1000 1000" version="1.1" xmlns="http://www.w3.org/2000/svg" xmlns:xlink="http://www.w3.org/1999/xlink" xml:space="preserve" xmlns:serif="http://www.serif.com/" style="fill-rule:evenodd;clip-rule:evenodd;stroke-linejoin:round;stroke-miterlimit:2;">
    <g transform="matrix(1.26371,0,0,1.26371,-132.709,-187.337)">
        <path d="M461.353,600L540,600C587.818,538.52 617.264,500.007 640,485.534C653.376,477.019 607.621,460.213 552.281,466.952L660.921,340.104C641.473,314.795 617.667,291.048 590,270C621.011,289.542 647.118,309.965 668.783,330.923L791.353,187.81L687.224,350.072C818.415,496.736 742.545,662.603 604.694,726.367C583.543,736.15 558.294,741.896 529.552,744.555L501.353,892.883L501.353,900L500.677,896.441L500,900L500,892.883L471.801,744.555C443.059,741.896 417.81,736.15 396.659,726.367C258.808,662.603 182.939,496.736 314.129,350.072L210,187.81L332.57,330.923C354.235,309.965 380.342,289.542 411.353,270C383.686,291.048 359.88,314.795 340.432,340.104L449.072,466.952C393.732,460.213 347.977,477.019 361.353,485.534C384.089,500.007 413.535,538.52 461.353,600ZM677.991,364.461C749.78,477.35 737.312,612.384 600,677.226C585.132,684.247 567.258,689.471 545.424,691.675C583.725,580.71 638.035,509.311 714.727,493.248C692.571,469.489 666.345,449.644 629.515,440L677.991,364.461ZM323.362,364.461C251.573,477.35 264.041,612.384 401.353,677.226C416.221,684.247 434.096,689.471 455.929,691.675C417.628,580.71 363.318,509.311 286.626,493.248C308.782,469.489 335.008,449.644 371.838,440L323.362,364.461ZM501.353,385.66C514.655,386.188 523.114,382.278 529.637,376.858C545.486,363.688 543.682,340.438 536,314.425C565.698,343.798 574.438,382.453 544.874,412.215C536.548,420.596 521.697,424.87 501.353,426.918L501.353,427.05L500.677,426.985L500,427.05L500,426.918C479.656,424.87 464.805,420.596 456.479,412.215C426.915,382.453 435.655,343.798 465.353,314.425C457.671,340.438 455.867,363.688 471.716,376.858C478.239,382.278 486.698,386.188 500,385.66L500,385.592C500.219,385.605 500.438,385.617 500.656,385.629L500.677,385.63C500.901,385.618 501.126,385.606 501.353,385.592L501.353,385.66Z" style="fill:white;"/>
    </g>
</svg>
