<?xml version="1.0" encoding="UTF-8" standalone="no"?>
<!DOCTYPE svg PUBLIC "-//W3C//DTD SVG 1.1//EN" "http://www.w3.org/Graphics/SVG/1.1/DTD/svg11.dtd">
<svg width="100%" height="100%" viewBox="0 0 1000 1000" version="1.1" xmlns="http://www.w3.org/2000/svg" xmlns:xlink="http://www.w3.org/1999/xlink" xml:space="preserve" xmlns:serif="http://www.serif.com/" style="fill-rule:evenodd;clip-rule:evenodd;stroke-linejoin:round;stroke-miterlimit:2;">
    <path d="M70,820L150,820L150,837.5L50,837.5L50,740L70,740L70,820ZM930.456,740L950,740L950,837.5L850,837.5L850,820L930.456,820L930.456,740ZM710.11,552.281C720.999,552.281 729.839,561.121 729.839,572.01C729.839,582.898 720.999,591.738 710.11,591.738C699.222,591.738 690.382,582.898 690.382,572.01C690.382,561.121 699.222,552.281 710.11,552.281ZM200.124,418.126C245.312,418.126 281.998,454.812 281.998,500C281.998,545.188 245.312,581.874 200.124,581.874C154.937,581.874 118.25,545.188 118.25,500C118.25,454.812 154.937,418.126 200.124,418.126ZM299.754,542.417C310.642,542.417 319.483,551.257 319.483,562.145C319.483,573.034 310.642,581.874 299.754,581.874C288.865,581.874 280.025,573.034 280.025,562.145C280.025,551.257 288.865,542.417 299.754,542.417ZM395.438,418.126C440.625,418.126 477.312,454.812 477.312,500C477.312,545.188 440.625,581.874 395.438,581.874C350.25,581.874 313.564,545.188 313.564,500C313.564,454.812 350.25,418.126 395.438,418.126ZM598.643,418.126C643.831,418.126 680.517,454.812 680.517,500C680.517,545.188 643.831,581.874 598.643,581.874C553.456,581.874 516.769,545.188 516.769,500C516.769,454.812 553.456,418.126 598.643,418.126ZM799.876,418.126C845.063,418.126 881.75,454.812 881.75,500C881.75,545.188 845.063,581.874 799.876,581.874C754.688,581.874 718.002,545.188 718.002,500C718.002,454.812 754.688,418.126 799.876,418.126ZM293.835,410.234C304.724,410.234 313.564,419.075 313.564,429.963C313.564,440.852 304.724,449.692 293.835,449.692C282.947,449.692 274.107,440.852 274.107,429.963C274.107,419.075 282.947,410.234 293.835,410.234ZM688.409,408.262C699.297,408.262 708.138,417.102 708.138,427.99C708.138,438.879 699.297,447.719 688.409,447.719C677.52,447.719 668.68,438.879 668.68,427.99C668.68,417.102 677.52,408.262 688.409,408.262ZM150,180L70,180L70,260L50,260L50,162.5L150,162.5L150,180ZM850,180L850,162.5L950,162.5L950,260L930.456,260L930.456,180L850,180Z" style="fill:white;"/>
</svg>
