<?xml version="1.0" encoding="UTF-8" standalone="no"?>
<!DOCTYPE svg PUBLIC "-//W3C//DTD SVG 1.1//EN" "http://www.w3.org/Graphics/SVG/1.1/DTD/svg11.dtd">
<svg width="100%" height="100%" viewBox="0 0 1000 1000" version="1.1" xmlns="http://www.w3.org/2000/svg" xmlns:xlink="http://www.w3.org/1999/xlink" xml:space="preserve" xmlns:serif="http://www.serif.com/" style="fill-rule:evenodd;clip-rule:evenodd;stroke-linejoin:round;stroke-miterlimit:2;">
    <g transform="matrix(1.52253,0,0,1.52253,-1313.02,-504.248)">
        <path d="M971.599,770.645C940.964,741.352 920.109,711.06 909.446,680C866.362,554.499 922.607,425.828 1060,388.073C1092.7,379.087 1147.21,394.847 1225,437C1287.13,397.127 1325.21,392.239 1350,396.723C1486.47,421.41 1514.3,563.49 1461,700C1458.21,707.144 1454.93,714.211 1451.2,721.191C1488.85,758.985 1492.78,802.026 1465,850C1477.5,872.742 1476.46,894.725 1445,915C1437.67,919.422 1428.13,917.412 1415,905C1399.58,912.542 1387.99,891.747 1385,886.189C1377.95,873.092 1361.66,875.765 1370,850C1379.24,834.101 1393.94,827.622 1416.76,835C1433.57,840.433 1430.92,802.181 1416.6,770L1416.6,769.997C1370.8,821.592 1299.15,868.341 1210,910C1135.15,879.844 1073.27,847.701 1025.06,813.967C1013.23,836.568 1020.18,853.486 1045,865C1065.41,855.937 1074.55,869.689 1077.9,885.328C1080.14,895.787 1075.97,909.176 1055,910C1050.07,925.194 1041.38,917.297 1030,910C1018.67,935.244 997.202,944.874 980,915.14C967.092,892.829 1005.12,872.399 1000,870C983.466,862.256 953.386,827.359 971.599,770.645ZM1269,720C1256.28,707.854 1257.25,696.715 1264,686C1260.02,676.22 1255.6,682.708 1251,696C1230.11,690.545 1208.77,691.001 1187,697C1178.12,682.763 1171.38,671.815 1166,677.461C1164.05,679.514 1166.64,681.587 1168,683C1175.29,690.558 1184.79,712.745 1171,726C1172.66,740.527 1179.46,726.048 1186,713C1210.34,706.07 1232.04,705.961 1251,713L1262,725C1268.35,728.454 1271.67,728.045 1269,720ZM1361.54,612.752C1366.53,610.97 1371.9,610 1377.5,610C1403.72,610 1425,631.284 1425,657.5C1425,683.716 1403.72,705 1377.5,705C1351.28,705 1330,683.716 1330,657.5C1330,640.601 1338.84,625.752 1352.15,617.333C1353.13,619.035 1354.01,620.784 1354.75,622.585C1343.36,630.026 1335.83,642.89 1335.83,657.5C1335.83,680.501 1354.5,699.175 1377.5,699.175C1400.5,699.175 1419.17,680.501 1419.17,657.5C1419.17,634.499 1400.5,615.825 1377.5,615.825C1372.74,615.825 1368.16,616.626 1363.9,618.1C1362.92,616.339 1362.14,614.556 1361.54,612.752ZM1063.46,602.752C1058.47,600.97 1053.1,600 1047.5,600C1021.28,600 1000,621.284 1000,647.5C1000,673.716 1021.28,695 1047.5,695C1073.72,695 1095,673.716 1095,647.5C1095,630.601 1086.16,615.752 1072.85,607.333C1071.87,609.035 1070.99,610.784 1070.25,612.585C1081.64,620.026 1089.17,632.89 1089.17,647.5C1089.17,670.501 1070.5,689.175 1047.5,689.175C1024.5,689.175 1005.83,670.501 1005.83,647.5C1005.83,624.499 1024.5,605.825 1047.5,605.825C1052.26,605.825 1056.84,606.626 1061.1,608.1C1062.08,606.339 1062.86,604.556 1063.46,602.752ZM1320,514C1349.25,514 1373,537.749 1373,567C1373,596.251 1349.25,620 1320,620C1290.75,620 1267,596.251 1267,567C1267,537.749 1290.75,514 1320,514ZM1103,504C1132.25,504 1156,527.749 1156,557C1156,586.251 1132.25,610 1103,610C1073.75,610 1050,586.251 1050,557C1050,527.749 1073.75,504 1103,504ZM1309.68,442.063L1329.68,449.063C1339.53,452.13 1340.75,459.488 1339.68,462.273C1338.69,464.888 1334.92,469.115 1325.68,466.063L1303.68,458.063C1291.79,448.179 1293.57,442.774 1309.68,442.063ZM1130,433L1110,440C1100.15,443.066 1098.94,450.425 1100,453.21C1101,455.825 1104.76,460.052 1114,457L1136,449C1147.89,439.116 1146.11,433.711 1130,433Z" style="fill:white;"/>
    </g>
</svg>
