<?xml version="1.0" encoding="UTF-8" standalone="no"?>
<!DOCTYPE svg PUBLIC "-//W3C//DTD SVG 1.1//EN" "http://www.w3.org/Graphics/SVG/1.1/DTD/svg11.dtd">
<svg width="100%" height="100%" viewBox="0 0 1000 1000" version="1.1" xmlns="http://www.w3.org/2000/svg" xmlns:xlink="http://www.w3.org/1999/xlink" xml:space="preserve" xmlns:serif="http://www.serif.com/" style="fill-rule:evenodd;clip-rule:evenodd;stroke-linejoin:round;stroke-miterlimit:2;">
    <path d="M763.159,792.949C763.984,791.966 763.872,790.504 762.907,789.659C761.942,788.814 760.477,788.895 759.612,789.843C759.612,789.843 744.579,806.315 724.211,827.309C707.599,844.431 687.425,864.538 668.924,881.104C659.919,889.168 651.329,896.391 643.739,901.982C636.782,907.107 630.772,910.857 626.129,912.377C626.127,912.378 626.126,912.378 626.124,912.379C617.51,915.221 611.234,916.002 606.545,915.79C599.605,915.476 596.222,912.946 593.938,912.219C593.934,912.217 593.93,912.216 593.926,912.215C588.194,910.424 579.862,907.551 569.793,904.027C559.259,900.34 546.845,895.918 533.549,891.165C510.95,883.087 485.825,874.029 463.121,865.816C424.395,851.807 392.726,840.308 392.726,840.308C391.52,839.87 390.184,840.478 389.722,841.675C389.26,842.873 389.841,844.22 391.028,844.706C391.028,844.706 423.31,857.917 462.477,873.532C477.861,879.666 494.302,886.163 510.268,892.376C527.485,899.075 544.135,905.461 558.293,910.71C572.068,915.817 583.501,919.831 590.771,922.172C590.775,922.174 590.78,922.175 590.785,922.177C593.549,923.047 597.72,925.86 606.112,926.18C611.687,926.392 619.161,925.497 629.359,922.006C629.361,922.005 629.363,922.005 629.364,922.004C634.706,920.163 641.705,915.907 649.635,909.828C657.333,903.927 666.019,896.312 675.056,887.769C693.241,870.577 712.91,849.663 729.05,831.845C748.759,810.088 763.159,792.949 763.159,792.949ZM572.67,826.196C573.169,825.486 573.239,824.56 572.851,823.784C572.463,823.008 571.68,822.508 570.813,822.482C570.813,822.482 569.976,822.453 568.272,822.563C567.21,822.631 566.14,822.694 564.703,822.906C564.128,822.991 563.597,823.088 563.006,823.247C562.191,823.467 561.375,823.709 560.592,824.08C560.021,824.351 559.494,824.695 558.994,825.069C558.289,825.595 557.727,826.137 557.134,826.708C556.471,827.348 555.981,827.876 555.46,828.464C553.865,830.262 553.107,831.323 553.107,831.323C552.596,832.034 552.522,832.97 552.913,833.753C553.305,834.536 554.098,835.038 554.974,835.056C554.974,835.056 556.277,835.086 558.672,834.889C559.456,834.825 560.172,834.75 561.082,834.603C561.894,834.472 562.665,834.347 563.509,834.099C564.108,833.923 564.7,833.708 565.259,833.414C566.026,833.01 566.709,832.503 567.373,831.983C567.855,831.605 568.252,831.239 568.665,830.829C569.696,829.807 570.388,828.989 571.08,828.18C572.191,826.882 572.67,826.196 572.67,826.196ZM613.235,822.922C613.937,822.494 614.366,821.731 614.366,820.908C614.366,820.086 613.937,819.323 613.235,818.895C613.235,818.895 612.599,818.502 611.128,817.808C610.23,817.384 609.377,816.973 608.105,816.506C607.591,816.317 607.12,816.164 606.558,816.037C605.789,815.862 605.012,815.709 604.203,815.691C603.602,815.677 603.009,815.753 602.427,815.869C601.622,816.031 600.951,816.266 600.226,816.52C599.413,816.804 598.823,817.053 598.153,817.353C596.08,818.283 595.083,818.882 595.083,818.882C594.369,819.307 593.931,820.077 593.931,820.908C593.931,821.74 594.369,822.51 595.083,822.935C595.083,822.935 596.08,823.534 598.153,824.463C598.823,824.764 599.413,825.013 600.226,825.297C600.951,825.551 601.622,825.786 602.427,825.948C603.009,826.064 603.602,826.14 604.203,826.126C605.012,826.107 605.789,825.955 606.558,825.78C607.12,825.652 607.591,825.5 608.105,825.311C609.377,824.844 610.23,824.432 611.128,824.009C612.599,823.315 613.235,822.922 613.235,822.922ZM368.948,596.436C349.957,556.9 339.172,513.78 340.83,465.232C295.345,575.205 315.292,664.874 368.341,744.271C358.147,742.56 348.84,740.061 340.83,736.411C349.855,753.441 332.024,768.178 309.389,752.131C314.324,767.365 321.995,783.055 332.969,799.293C304.191,778.822 279.136,757.882 258.297,736.411C267.518,758.681 279.52,780.952 293.668,803.223C281.62,793.176 268.958,783.299 262.227,771.782C255.594,785.198 247.289,794.581 238.646,803.223C242.867,782.453 242.485,762.904 238.646,744.271C181.26,712.448 179.008,664.155 167.904,618.507C156.418,704.21 178.994,757.867 222.926,791.432C165.845,778.258 137.134,679.673 136.463,496.673C118.03,534.216 85.419,559.854 50,583.135C50,583.135 106.851,536.381 120.742,503.781C131.427,478.708 153.035,437.716 168.919,386.629C190.558,317.032 228.085,236.396 274.953,174.402C332.094,98.82 429.883,76.149 545.197,76.149C647.223,76.149 696.086,110.722 749.563,154.365C841.038,229.018 894.08,316.284 923.245,402.349C950.508,482.8 948.119,558.868 946.07,618.507C944.081,582.468 939.574,548.976 930.349,520.253C927.508,552.552 921.826,566.966 910.699,590.996C900.52,612.978 930.242,650.409 950,665.668C925.221,653.695 904.528,636.309 887.118,614.577C875.154,622.728 867.084,635.56 861.805,649.948C859.042,657.477 850.131,659.656 843.886,661.738C827.17,693.768 821.056,731.366 820.306,771.782C805.707,741.208 798.287,710.208 820.306,677.459L784.934,704.97C792.958,684.009 795.412,663.048 792.795,642.087C790.894,657.688 786.19,672.289 777.074,685.319C789.388,601.025 790.695,516.963 749.563,433.791C751.665,466.18 750.056,497.789 745.331,528.741C745.642,528.779 745.951,528.818 746.261,528.858C755.144,530 764.351,531.912 773.828,534.724C774.127,534.812 774.438,534.872 774.723,535C775.429,535.316 776.05,535.67 776.654,536.161C777.446,536.804 777.849,537.295 778.491,538.099C779.26,539.064 779.45,539.482 780.143,540.515C780.798,540.73 781.157,541.437 780.942,542.093C780.727,542.749 780.021,543.107 779.365,542.892C778.208,543.312 777.825,543.562 776.654,543.905C775.691,544.186 775.105,544.393 774.114,544.482C773.367,544.549 772.683,544.526 771.948,544.413C771.652,544.368 771.371,544.257 771.084,544.175C766.231,542.797 761.476,541.595 756.809,540.585C760.802,560.233 754.973,577.978 747.957,590.881C746.235,590.73 744.369,590.789 742.447,591.091C734.947,592.271 729.406,596.707 730.08,600.993C730.482,603.549 733.005,605.478 736.568,606.368C725.832,614.145 704.871,615.047 699.186,614.411C683.429,612.648 655.247,605.879 659.495,555.48C658.805,555.911 658.115,556.349 657.427,556.794C651.237,560.793 645.063,565.005 639.158,570.094C638.673,570.584 637.881,570.589 637.39,570.104C636.899,569.619 636.895,568.827 637.38,568.336C642.56,562.178 647.877,556.536 653.817,551.782C654.498,551.237 655.185,550.702 655.878,550.176C649.106,552.488 642.316,555.199 635.516,558.521C634.949,558.855 634.218,558.667 633.884,558.101C633.549,557.535 633.737,556.804 634.303,556.469C639.825,552.557 645.316,548.966 651.022,545.955C655.021,543.844 659.088,542.061 663.204,540.552C666.612,539.303 670.053,538.266 673.534,537.504C675.769,537.014 678.023,536.643 680.285,536.404C687.801,533.385 695.675,531.176 703.822,529.681C711.438,528.283 719.353,527.581 727.562,527.605C708.714,459.171 683.497,394.697 643.45,339.467C634.808,427.575 618.503,512.548 576.638,587.066C581.429,560.377 587.61,533.546 576.638,508.463C564.282,583.892 527.791,646.636 466.594,696.397C474.866,672.579 480.093,635.314 476.086,601.392C475.775,601.818 475.214,602.017 474.686,601.844C473.53,602.264 473.146,602.514 471.975,602.857C471.012,603.138 470.426,603.345 469.435,603.434C468.689,603.501 468.004,603.478 467.269,603.365C466.973,603.32 466.692,603.209 466.405,603.127C461.553,601.749 456.798,600.547 452.13,599.537C455.732,617.262 451.341,633.439 445.295,645.909C443.553,645.75 441.663,645.807 439.715,646.113C432.216,647.292 426.674,651.729 427.348,656.015C427.815,658.986 431.148,661.109 435.648,661.739C427.154,672.822 400.967,674.086 394.507,673.363C378.75,671.6 350.568,664.831 354.816,614.432C354.126,614.863 353.436,615.301 352.748,615.746C346.558,619.745 340.384,623.957 334.48,629.046C333.995,629.536 333.202,629.541 332.711,629.056C332.22,628.571 332.216,627.779 332.701,627.288C337.882,621.13 343.198,615.488 349.138,610.734C349.82,610.189 350.506,609.654 351.199,609.128C344.427,611.44 337.638,614.151 330.837,617.473C330.271,617.807 329.539,617.619 329.205,617.053C328.87,616.487 329.059,615.756 329.625,615.421C335.146,611.509 340.637,607.918 346.343,604.907C350.342,602.796 354.409,601.013 358.526,599.504C361.933,598.255 365.374,597.218 368.855,596.456L368.948,596.436ZM560.624,696.981C560.434,696.449 559.871,695.581 558.539,695.262C557.394,694.988 554.627,695.031 552.973,695.407C551.73,695.69 550.923,696.299 550.596,696.739C549.98,697.57 549.882,698.464 550.34,699.414C550.694,700.147 551.115,700.843 551.558,701.514C552.213,702.507 552.905,703.384 553.596,704.256C554.368,705.232 555.071,706.053 555.775,706.847C557.872,709.213 559.264,710.58 559.264,710.58C559.982,711.287 561.07,711.459 561.971,711.008C562.873,710.558 563.388,709.584 563.253,708.585C563.253,708.585 562.994,706.651 562.36,703.554C562.147,702.514 561.912,701.46 561.595,700.257C561.311,699.181 561.025,698.101 560.624,696.981ZM475.878,599.697C475.759,599.597 475.62,599.518 475.464,599.467C474.771,598.434 474.582,598.016 473.812,597.051C473.171,596.247 472.767,595.756 471.976,595.113C471.371,594.621 470.75,594.268 470.045,593.952C469.759,593.824 469.448,593.764 469.149,593.675C459.672,590.864 450.466,588.952 441.582,587.81C426.547,585.876 412.393,586.201 399.143,588.633C390.996,590.128 383.123,592.337 375.606,595.356C375.259,595.392 374.912,595.432 374.565,595.476C367.218,514.395 383.558,446.409 407.642,382.699C427.762,453.495 433.078,501.943 462.664,555.625C469.64,568.282 473.821,583.582 475.878,599.697Z" style="fill:white;"/>
</svg>
