<?xml version="1.0" encoding="UTF-8" standalone="no"?>
<!DOCTYPE svg PUBLIC "-//W3C//DTD SVG 1.1//EN" "http://www.w3.org/Graphics/SVG/1.1/DTD/svg11.dtd">
<svg width="100%" height="100%" viewBox="0 0 1000 1000" version="1.1" xmlns="http://www.w3.org/2000/svg" xmlns:xlink="http://www.w3.org/1999/xlink" xml:space="preserve" xmlns:serif="http://www.serif.com/" style="fill-rule:evenodd;clip-rule:evenodd;stroke-linejoin:round;stroke-miterlimit:2;">
    <g transform="matrix(2.05791,0,0,2.05791,-528.955,-469.958)">
        <path d="M499.797,689.555C491.165,670.763 478.152,657.68 471.16,651.5C469.088,649.669 473.754,643.865 480,642C475.501,645.317 473.696,647.48 474.272,648.5C478.814,656.541 488.636,654.703 491.5,646.078C492.708,642.44 493.846,635.221 493,626C488.872,631.8 483.974,636.236 477,637C473.9,645.101 467.835,648.129 462,650.5C455.963,652.953 458.733,661.546 466,664C457.161,665.014 456.164,658.846 457,651C450.57,651.753 446.264,649.993 443,647C452.774,649.829 457.915,647.587 460,642C444.349,639.079 437.507,633.588 431,628C422.26,627.762 417.834,624.583 414,621C403.801,621.623 400.331,625.858 406,635C399.793,632.052 398.026,627.727 404,621C400.407,617.724 397.946,613.563 396,609C399.276,612.379 402.904,614.817 407,616C401.768,608.913 396.821,601.534 393,593C377.257,610.524 370.152,605.678 368,588C370.931,596.225 374.209,599.295 377.554,600C381.947,600.925 387.3,591.421 394.224,576.5C397.674,569.066 403.378,562.314 409,557C402.119,577.133 406.593,597.761 415.5,596.962C416.946,596.833 418.723,594.018 421,588C422.109,601.637 416.725,603.547 405,594C407.938,605.631 413.792,614.415 426,617C420.51,597.465 419.526,577.649 448,556C476.114,535.668 478.33,520.193 466.911,503C465.375,500.686 459.984,504.971 460,506.5C470.317,511.739 466.992,518.352 466.504,518.5C467.156,518.003 467.8,513.446 458.597,510C455.419,511.512 455.645,513.273 455.412,515C464.776,518.737 466.995,525.214 464.5,533.5C464.449,527.643 461.5,522 461.5,522C461.513,525.399 460.438,527.962 458.576,529.92C458.552,529.952 458.527,529.979 458.5,530L458.576,529.92C459.644,528.53 458.214,517.602 453.588,519C453.588,519 451.623,533.884 452,543C451.124,552.267 447.579,557.135 441,557C452.764,544.092 450.967,536.474 446,534.024C441.046,531.581 434.646,533.003 434.097,536.5C433.733,538.82 435.771,542.52 442,548C435.231,562.625 429.378,567.691 424,565.483C421.12,564.301 418.637,562.209 417,557C423.802,559.55 427.051,559.398 428.361,558C431.573,554.573 431.329,548.574 421.947,546C417.999,544.917 409.338,544.24 396.5,548.125C393.837,548.931 393.799,554.626 395,563C389.193,556.483 384.853,544.293 391,541.5C394.344,539.981 398.584,537.998 407,536C396.396,527.36 388.001,527.744 383,542C381.666,532.808 384.535,523.796 390,523.5C399.003,523.013 405.849,523.479 414,524C407.836,515.116 401.356,510.568 394,518C397.553,509.255 401.251,503.18 405,503.873C406.917,504.228 409.833,507.358 415,513C427.701,531.128 441.517,523.567 454,490C457.142,481.431 454.971,476.817 449.662,482.5C448.735,483.492 447.972,485.081 447,487L447,492C441.469,485.198 442.472,493.652 443,501C440.405,488.96 437.204,504.235 434.5,508.597C431.659,513.181 425.873,511.225 423,510.931C420.166,510.641 418.384,508.531 418,504C424.253,509.507 428.707,511.068 432,507.229C437.792,500.476 432.974,492.85 423.127,494C421.46,494.195 422.656,493.88 420,498C412.744,504.062 409.153,499.596 407,491C414.912,498.34 417.49,490.435 417.679,481C417.791,475.428 416.289,469.518 413,466.748C412.288,466.148 410.112,469.687 407,475C405.156,470.537 408.487,455.592 413.5,454.769C414.944,454.532 416.899,455.273 418.167,458.161C424.17,471.828 422.129,458.48 422,454.5C422,454.5 413.555,453.507 414,453C417.627,450.299 420.926,448.463 423.729,450C430.716,453.832 435.501,461.074 428,471C428.707,481.414 430.211,487.011 432.578,488C434.744,488.906 437.633,485.949 441.295,479.29C443.569,475.155 446.296,466.478 445.144,454C444.771,449.956 440.149,446.069 434,442C401.363,431.826 395.317,465.421 397.89,481C398.431,484.277 400.058,486.061 406,486C401.775,489.456 398.058,487.946 395,480C381.236,496.268 381.318,510.185 382,524C364.708,540.345 357.884,557.574 360.91,568C362.851,574.688 367.609,580.773 375,577.379C376.179,576.838 378.44,575.352 382,569C382.17,579.281 375.373,585.508 361,575.148C357.414,572.564 355.487,565.707 353,556C344.875,530.844 330.383,512.002 310,499C299.289,503.611 293.891,500.206 293,490C297.226,495.673 300.719,497.528 303.644,497C315.204,494.913 316.449,470.753 315.792,452C315.359,439.639 314.116,425.794 306,410C291.049,402.52 292.361,395.6 303,389C299.213,394.422 297.788,397.604 298.334,399C301.847,407.993 307.987,405.33 314.737,392C317.934,385.688 320.203,371.618 316.426,356C314.632,348.58 309.499,341.69 303,335C294.825,330.305 294.469,324.456 305,317C301.718,323.643 300.186,328.062 302,329.514C303.749,330.914 313.606,333.774 320,325C323.952,319.577 328.696,310.667 332,294C331.813,275.412 341.141,278.911 349,279C340.48,281.735 335.503,284.847 336.571,287.5C339.665,295.185 345.424,299.53 350,301.374C366.682,308.098 376.148,305.181 386,303C385.317,294.584 385.465,286.674 386,279C393.479,272.234 400.14,272.623 406,280C398.549,275.335 392.755,275.104 390,283C401.793,281.036 410.587,285.37 414,301C407.027,293.931 401.617,290.361 395.5,294.668C393.984,295.735 394.045,297.094 397,301C400.066,303.86 401.882,306.493 403,309C391.491,324.308 384.234,339.05 384.404,352.5C384.601,368.07 389.914,375.587 402,379C408.914,373.852 410.989,369.077 404,365C408.527,362.879 411.467,363.99 412,370C424.736,372.997 422.46,374.281 424,376C417.124,373.79 412.994,373.167 411.5,374.384C404.894,379.762 405.364,385.173 409.5,390.532C414.769,397.36 424.546,401.836 436.5,401.03C442.203,400.646 449.216,397.386 458,386C438.404,390.981 428.998,386.967 432,372C435.19,388.509 446.091,389.702 466,373C451.381,380.081 442.955,379.073 443,367C450.062,378.746 458.479,376.193 468,362C457.004,368.182 451.69,365.286 451,355C457.559,364.703 463.67,366.096 469,353C461.788,356.222 458.661,353.651 457,349C469.921,358.638 470.882,345.807 467.199,337.5C465.047,332.648 459.522,332.049 457.161,333C450.992,335.486 450.419,337.77 457,340C454.123,343.234 451.133,345.637 448,347C445.41,345.715 443.861,343.623 443,341C439.074,341.306 436.452,339.587 436,334.5L440,334.5L437.5,328C446.789,332.733 449.711,330.243 450.5,326C449.185,326.496 445.721,326.949 443,328.418C441.469,329.244 439.852,327.576 439.5,326.5C439.5,326.5 437.176,326.659 436.5,326.5C436.162,327.168 437,332.5 437,332.5L434.5,332.5C434.5,332.5 434.65,336.46 434.5,338.5C428.199,349.604 419.496,357.111 407.5,347.5L405,347.5L406.5,336.5L415.5,341.5L412,344.5C417.839,349.691 423.672,347.312 429.5,337C433.689,324.354 441.531,318.864 452.5,319.5C447.324,312.43 441.179,311.389 433,323C426.553,324.539 426.222,327.577 429.5,331.5C423.837,330.993 419.476,331.887 419.5,337.5C416.931,336.554 414.504,335.765 413.898,334C412.303,329.35 410.372,328.258 407.79,326C405.055,323.608 406.202,319.392 408,316C411.729,323.937 416.763,321.669 423,310C425.246,304.776 430.627,300.118 439,296C443.513,275.461 441.045,267.503 430,275C435.252,264.887 442.196,268.116 451,286C459.475,269.275 463.05,256.197 452,254C457.395,251.055 461.497,252.254 462,265C465.178,267.853 467.832,271.374 466.879,275C465.091,281.812 463.557,287.924 464,293C470.146,291.004 471.332,286.255 468,279C475.054,280.376 474.698,286.61 468,297C476.908,297.12 478.494,292.016 476,284C481.85,290.334 479.38,296.281 472,302C479.871,303.506 482.879,300.541 482,294C486.212,298.37 484.298,302.702 477,307C486.202,311.434 493.953,303.255 494.652,300C495.064,298.075 493.36,295.773 489,293C495.518,292.307 497.406,295.132 496.825,299C496.167,303.382 491.302,308.067 482,313C487.309,318.704 492.299,318.185 497,312C498.118,315.827 496.3,319.108 487,321C486.126,325.182 488.144,327.639 492,329C489.692,332.841 490.243,336.854 493,341C490.026,344.297 489.859,347.628 493,351C490.144,354.515 490.188,357.846 493,361C489.936,365.575 489.801,369.601 493,373C488.823,376.731 487.858,380.412 493,384C485.874,389.308 486.741,393.929 494,398C493.371,408.293 496.257,410.172 500,410L500.175,410.007C503.832,410.111 506.619,408.132 506,398C513.259,393.929 514.126,389.308 507,384C512.142,380.412 511.177,376.731 507,373C510.199,369.601 510.064,365.575 507,361C509.812,357.846 509.856,354.515 507,351C510.141,347.628 509.974,344.297 507,341C509.757,336.854 510.308,332.841 508,329C511.856,327.639 513.874,325.182 513,321C503.7,319.108 501.882,315.827 503,312C507.701,318.185 512.691,318.704 518,313C508.698,308.067 503.833,303.382 503.175,299C502.594,295.132 504.482,292.307 511,293C506.64,295.773 504.936,298.075 505.348,300C506.047,303.255 513.798,311.434 523,307C515.702,302.702 513.788,298.37 518,294C517.121,300.541 520.129,303.506 528,302C520.62,296.281 518.15,290.334 524,284C521.506,292.016 523.092,297.12 532,297C525.302,286.61 524.946,280.376 532,279C528.668,286.255 529.854,291.004 536,293C536.443,287.924 534.909,281.812 533.121,275C532.168,271.374 534.822,267.853 538,265C538.503,252.254 542.605,251.055 548,254C536.95,256.197 540.525,269.275 549,286C557.804,268.116 564.748,264.887 570,275C558.955,267.503 556.487,275.461 561,296C569.373,300.118 574.754,304.776 577,310C583.237,321.669 588.271,323.937 592,316C593.798,319.392 594.945,323.608 592.21,326C589.628,328.258 587.697,329.35 586.102,334C585.496,335.765 583.069,336.554 580.5,337.5C580.524,331.887 576.163,330.993 570.5,331.5C573.778,327.577 573.447,324.539 567,323C558.821,311.389 552.676,312.43 547.5,319.5C558.469,318.864 566.311,324.354 570.5,337C576.328,347.312 582.161,349.691 588,344.5L584.5,341.5L593.5,336.5L595,347.5L592.5,347.5C580.504,357.111 571.801,349.604 565.5,338.5C565.35,336.46 565.5,332.5 565.5,332.5L563,332.5C563,332.5 563.838,327.168 563.5,326.5C562.824,326.659 560.5,326.5 560.5,326.5C560.148,327.576 558.531,329.244 557,328.418C554.279,326.949 550.815,326.496 549.5,326C550.289,330.243 553.211,332.733 562.5,328L560,334.5L564,334.5C563.548,339.587 560.926,341.306 557,341C556.139,343.623 554.59,345.715 552,347C548.867,345.637 545.877,343.234 543,340C549.581,337.77 549.008,335.486 542.839,333C540.478,332.049 534.953,332.648 532.801,337.5C529.118,345.807 530.079,358.638 543,349C541.339,353.651 538.212,356.222 531,353C536.33,366.096 542.441,364.703 549,355C548.31,365.286 542.996,368.182 532,362C541.521,376.193 549.938,378.746 557,367C557.045,379.073 548.619,380.081 534,373C553.909,389.702 564.81,388.509 568,372C571.002,386.967 561.596,390.981 542,386C550.784,397.386 557.797,400.646 563.5,401.03C575.454,401.836 585.231,397.36 590.5,390.532C594.636,385.173 595.106,379.762 588.5,374.384C587.006,373.167 582.876,373.79 576,376C577.54,374.281 575.264,372.997 588,370C588.533,363.99 591.473,362.879 596,365C589.011,369.077 591.086,373.852 598,379C610.086,375.587 615.399,368.07 615.596,352.5C615.766,339.05 608.509,324.308 597,309C598.118,306.493 599.934,303.86 603,301C605.955,297.094 606.016,295.735 604.5,294.668C598.383,290.361 592.973,293.931 586,301C589.413,285.37 598.207,281.036 610,283C607.245,275.104 601.451,275.335 594,280C599.86,272.623 606.521,272.234 614,279C614.535,286.674 614.683,294.584 614,303C623.852,305.181 633.318,308.098 650,301.374C654.576,299.53 660.335,295.185 663.429,287.5C664.497,284.847 659.52,281.735 651,279C658.859,278.911 668.187,275.412 668,294C671.304,310.667 676.048,319.577 680,325C686.394,333.774 696.251,330.914 698,329.514C699.814,328.062 698.282,323.643 695,317C705.531,324.456 705.175,330.305 697,335C690.501,341.69 685.368,348.58 683.574,356C679.797,371.618 682.066,385.688 685.263,392C692.013,405.33 698.153,407.993 701.666,399C702.212,397.604 700.787,394.422 697,389C707.639,395.6 708.951,402.52 694,410C685.884,425.794 684.641,439.639 684.208,452C683.551,470.753 684.796,494.913 696.356,497C699.281,497.528 702.774,495.673 707,490C706.109,500.206 700.711,503.611 690,499C669.617,512.002 655.125,530.844 647,556C644.513,565.707 642.586,572.564 639,575.148C624.627,585.508 617.83,579.281 618,569C621.56,575.352 623.821,576.838 625,577.379C632.391,580.773 637.149,574.688 639.09,568C642.116,557.574 635.292,540.345 618,524C618.682,510.185 618.764,496.268 605,480C601.942,487.946 598.225,489.456 594,486C599.942,486.061 601.569,484.277 602.11,481C604.683,465.421 598.637,431.826 566,442C559.851,446.069 555.229,449.956 554.856,454C553.704,466.478 556.431,475.155 558.705,479.29C562.367,485.949 565.256,488.906 567.422,488C569.789,487.011 571.293,481.414 572,471C564.499,461.074 569.284,453.832 576.271,450C579.074,448.463 582.373,450.299 586,453C586.445,453.507 578,454.5 578,454.5C577.871,458.48 575.83,471.828 581.833,458.161C583.101,455.273 585.056,454.532 586.5,454.769C591.513,455.592 594.844,470.537 593,475C589.888,469.687 587.712,466.148 587,466.748C583.711,469.518 582.209,475.428 582.321,481C582.51,490.435 585.088,498.34 593,491C590.847,499.596 587.256,504.062 580,498C577.344,493.88 578.54,494.195 576.873,494C567.026,492.85 562.208,500.476 568,507.229C571.293,511.068 575.747,509.507 582,504C581.616,508.531 579.834,510.641 577,510.931C574.127,511.225 568.341,513.181 565.5,508.597C562.796,504.235 559.595,488.96 557,501C557.528,493.652 558.531,485.198 553,492L553,487C552.028,485.081 551.265,483.492 550.338,482.5C545.029,476.817 542.858,481.431 546,490C558.483,523.567 572.299,531.128 585,513C590.167,507.358 593.083,504.228 595,503.873C598.749,503.18 602.447,509.255 606,518C598.644,510.568 592.164,515.116 586,524C594.151,523.479 600.997,523.013 610,523.5C615.465,523.796 618.334,532.808 617,542C611.999,527.744 603.604,527.36 593,536C601.416,537.998 605.656,539.981 609,541.5C615.147,544.293 610.807,556.483 605,563C606.201,554.626 606.163,548.931 603.5,548.125C590.662,544.24 582.001,544.917 578.053,546C568.671,548.574 568.427,554.573 571.639,558C572.949,559.398 576.198,559.55 583,557C581.363,562.209 578.88,564.301 576,565.483C570.622,567.691 564.769,562.625 558,548C564.229,542.52 566.267,538.82 565.903,536.5C565.354,533.003 558.954,531.581 554,534.024C549.033,536.474 547.236,544.092 559,557C552.421,557.135 548.876,552.267 548,543C548.377,533.884 546.412,519 546.412,519C541.786,517.602 540.356,528.53 541.424,529.92L541.5,530C541.473,529.979 541.448,529.952 541.424,529.92C539.562,527.962 538.487,525.399 538.5,522C538.5,522 535.551,527.643 535.5,533.5C533.005,525.214 535.224,518.737 544.588,515C544.355,513.273 544.581,511.512 541.403,510C532.2,513.446 532.844,518.003 533.496,518.5C533.008,518.352 529.683,511.739 540,506.5C540.016,504.971 534.625,500.686 533.089,503C521.67,520.193 523.886,535.668 552,556C580.474,577.649 579.49,597.465 574,617C586.208,614.415 592.062,605.631 595,594C583.275,603.547 577.891,601.637 579,588C581.277,594.018 583.054,596.833 584.5,596.962C593.407,597.761 597.881,577.133 591,557C596.622,562.314 602.326,569.066 605.776,576.5C612.7,591.421 618.053,600.925 622.446,600C625.791,599.295 629.069,596.225 632,588C629.848,605.678 622.743,610.524 607,593C603.179,601.534 598.232,608.913 593,616C597.096,614.817 600.724,612.379 604,609C602.054,613.563 599.593,617.724 596,621C601.974,627.727 600.207,632.052 594,635C599.669,625.858 596.199,621.623 586,621C582.166,624.583 577.74,627.762 569,628C562.493,633.588 555.651,639.079 540,642C542.085,647.587 547.226,649.829 557,647C553.736,649.993 549.43,651.753 543,651C543.836,658.846 542.839,665.014 534,664C541.267,661.546 544.037,652.953 538,650.5C532.165,648.129 526.1,645.101 523,637C516.026,636.236 511.128,631.8 507,626C506.154,635.221 507.292,642.44 508.5,646.078C511.364,654.703 521.186,656.541 525.728,648.5C526.304,647.48 524.499,645.317 520,642C526.246,643.865 530.912,649.669 528.84,651.5C521.793,657.728 508.63,670.969 500,690L499.797,689.555ZM547,618C529.203,623.951 515.969,618.732 510,607C518.399,611.814 522.276,609.181 524,603C520.444,607.094 516.669,609.338 512,604C512.756,598.287 518.821,596.584 524,598.292C530.188,600.333 537.966,607.243 547,618ZM453,618C470.797,623.951 484.031,618.732 490,607C481.601,611.814 477.724,609.181 476,603C479.556,607.094 483.331,609.338 488,604C487.244,598.287 481.179,596.584 476,598.292C469.812,600.333 462.034,607.243 453,618ZM490,555C492.215,557.366 493.541,559.52 492.049,561C490.921,562.118 485.183,572.852 483,563C480.582,571.337 482.713,575.472 492,573C495.655,577.388 496.076,581.717 494,586C481.021,585.121 475.236,583.087 476,580C474.363,580.52 473.078,580.438 472,580C471.147,576.212 474.522,575.032 483,577C471.314,569.399 468.555,573.16 469,581C463.467,584.156 459.072,587.545 455,591C458.987,589.441 462.973,587.802 467,589C462.774,593.755 459.357,598.203 456.614,602C454.161,605.395 450.753,606.989 448,608C443.35,599.077 442.717,587.103 454.716,579C465.998,571.381 475.986,563.461 490,555ZM510,555C507.785,557.366 506.459,559.52 507.951,561C509.079,562.118 514.817,572.852 517,563C519.418,571.337 517.287,575.472 508,573C504.345,577.388 503.924,581.717 506,586C518.979,585.121 524.764,583.087 524,580C525.637,580.52 526.922,580.438 528,580C528.853,576.212 525.478,575.032 517,577C528.686,569.399 531.445,573.16 531,581C536.533,584.156 540.928,587.545 545,591C541.013,589.441 537.027,587.802 533,589C537.226,593.755 540.643,598.203 543.386,602C545.839,605.395 549.247,606.989 552,608C556.65,599.077 557.283,587.103 545.284,579C534.002,571.381 524.014,563.461 510,555ZM432.667,305C431.195,305 430,306.792 430,309C430,311.208 431.195,313 432.667,313C434.138,313 435.333,311.208 435.333,309C435.333,306.792 434.138,305 432.667,305ZM567.333,305C568.805,305 570,306.792 570,309C570,311.208 568.805,313 567.333,313C565.862,313 564.667,311.208 564.667,309C564.667,306.792 565.862,305 567.333,305ZM432.667,308.25C432.391,308.25 432.167,308.586 432.167,309C432.167,309.414 432.391,309.75 432.667,309.75C432.943,309.75 433.167,309.414 433.167,309C433.167,308.586 432.943,308.25 432.667,308.25ZM567.333,308.25C567.609,308.25 567.833,308.586 567.833,309C567.833,309.414 567.609,309.75 567.333,309.75C567.057,309.75 566.833,309.414 566.833,309C566.833,308.586 567.057,308.25 567.333,308.25Z" style="fill:white;"/>
    </g>
</svg>
