<?xml version="1.0" encoding="UTF-8" standalone="no"?>
<!DOCTYPE svg PUBLIC "-//W3C//DTD SVG 1.1//EN" "http://www.w3.org/Graphics/SVG/1.1/DTD/svg11.dtd">
<svg width="100%" height="100%" viewBox="0 0 1000 1000" version="1.1" xmlns="http://www.w3.org/2000/svg" xmlns:xlink="http://www.w3.org/1999/xlink" xml:space="preserve" xmlns:serif="http://www.serif.com/" style="fill-rule:evenodd;clip-rule:evenodd;stroke-linejoin:round;stroke-miterlimit:2;">
    <g transform="matrix(9.01934,0,0,9.0371,-4013.87,-3758.33)">
        <path d="M512.393,458.607L524.132,446.868C528.637,449.056 535,447.359 540,444.582C531.215,444.752 525.532,441.378 522.197,433C515.609,416.447 497.208,421.616 494,424.53C485.09,432.625 484.835,450.811 501,460.03C535.285,479.583 528.834,493.357 523,500.1C513.201,511.425 495.801,506.4 483,494C486.109,483.277 490.537,476.283 495,469C489.137,473.646 483.358,479.153 478,489C473.79,484.052 471.206,479.059 471,474C481.136,467.001 476.459,460.018 473,458.215C469.383,456.33 460.038,456.699 461,470C462.726,477.782 466.808,485.472 475,493C471.549,498.67 469.056,504.336 467,510L480,521C479.214,513.659 479.418,506.472 481,499.5C505.954,517.473 522.133,514.985 532.408,505C546.627,491.181 536.71,471.655 513.115,459C512.872,458.87 512.632,458.739 512.393,458.607ZM519.491,443.061C511.268,435.66 505.833,433.257 502.486,437C496.883,443.268 499.794,449.867 507.476,455.49L519.491,443.061Z" style="fill:white;"/>
    </g>
</svg>
