<?xml version="1.0" encoding="UTF-8" standalone="no"?>
<!DOCTYPE svg PUBLIC "-//W3C//DTD SVG 1.1//EN" "http://www.w3.org/Graphics/SVG/1.1/DTD/svg11.dtd">
<svg width="100%" height="100%" viewBox="0 0 1000 1000" version="1.1" xmlns="http://www.w3.org/2000/svg" xmlns:xlink="http://www.w3.org/1999/xlink" xml:space="preserve" xmlns:serif="http://www.serif.com/" style="fill-rule:evenodd;clip-rule:evenodd;stroke-linejoin:round;stroke-miterlimit:2;">
    <g transform="matrix(2.97361,0,0,2.97361,-1029.96,-905.426)">
        <path d="M494.309,623.964C420.757,613.992 363.955,550.297 363.955,473.313C363.955,389.416 431.417,321.302 514.512,321.302C597.606,321.302 665.069,389.416 665.069,473.313C665.069,550.297 608.266,613.992 534.715,623.964L534.715,573.551C580.955,564.089 615.81,522.778 615.81,473.313C615.81,416.865 570.42,371.036 514.512,371.036C458.604,371.036 413.213,416.865 413.213,473.313C413.213,522.778 448.069,564.089 494.309,573.551L494.309,623.964ZM514.512,394.528C557.994,394.528 593.297,429.83 593.297,473.313C593.297,516.796 557.994,552.098 514.512,552.098C471.029,552.098 435.726,516.796 435.726,473.313C435.726,429.83 471.029,394.528 514.512,394.528Z" style="fill:white;"/>
    </g>
</svg>
