<?xml version="1.0" encoding="UTF-8" standalone="no"?>
<!DOCTYPE svg PUBLIC "-//W3C//DTD SVG 1.1//EN" "http://www.w3.org/Graphics/SVG/1.1/DTD/svg11.dtd">
<svg width="100%" height="100%" viewBox="0 0 1000 1000" version="1.1" xmlns="http://www.w3.org/2000/svg" xmlns:xlink="http://www.w3.org/1999/xlink" xml:space="preserve" xmlns:serif="http://www.serif.com/" style="fill-rule:evenodd;clip-rule:evenodd;stroke-linejoin:round;stroke-miterlimit:2;">
    <g transform="matrix(0.969605,0,0,0.969605,15.1973,15.1973)">
        <path d="M493.268,870.357L493.267,871.151C442.155,864.757 404.355,859.453 382.455,855.454L375.55,964.106C348.834,921.984 328.56,880.154 318.419,838.782C245.081,823.383 179.404,797.586 119.773,763.587C113.411,732.282 113.993,714.754 125.102,718.112C155.285,492.619 172.629,316.891 232.419,265.33C273.403,229.987 315.945,189.568 377.609,160.146C379.585,140.586 378.603,98.733 397.686,78.531C416.909,58.18 492.87,35.894 492.87,35.894L507.23,35.894C507.23,35.894 583.109,58.199 602.314,78.531C621.397,98.733 620.415,140.586 622.391,160.146C684.055,189.568 726.597,229.987 767.581,265.33C827.371,316.891 844.715,492.619 874.898,718.112C886.007,714.754 886.589,732.282 880.227,763.587C820.596,797.586 754.919,823.383 681.581,838.782C671.44,880.154 651.166,921.984 624.45,964.106L617.545,855.454C595.645,859.453 557.845,864.757 506.733,871.151L506.732,870.357L493.268,870.357ZM501.567,777.344C421.44,821.053 357.647,829.791 314.187,794.989C257.533,771.332 270.107,661.058 337.231,512.424C363.912,453.342 421.825,425.686 500,425.403C586.642,429.923 644.888,459.41 668.045,513.767C727.261,652.764 728.745,763.49 684.293,791.565C644.071,820.863 584.325,818.036 501.567,777.344ZM499.504,510C499.504,510 498.772,530.9 497.967,560.4C497.781,567.197 497.598,574.443 497.446,582C497.26,591.238 497.087,600.928 496.981,610.8C496.913,617.151 496.875,623.575 496.881,630C496.885,634.811 496.922,639.621 496.98,644.4C497.122,655.927 497.348,667.268 497.571,678C497.785,688.295 498.029,698.017 498.261,706.8C498.937,732.443 499.504,750 499.504,750L499.504,750.496L500.496,750.496L500.496,750C500.496,750 501.063,732.443 501.739,706.8C501.971,698.017 502.215,688.295 502.429,678C502.652,667.268 502.878,655.927 503.02,644.4C503.078,639.621 503.115,634.81 503.119,630C503.125,623.575 503.087,617.151 503.019,610.8C502.913,600.928 502.74,591.238 502.554,582C502.402,574.443 502.219,567.197 502.033,560.4C501.228,530.9 500.496,510 500.496,510L500.496,509.504L499.504,509.504L499.504,510ZM539.763,469.564C536.611,470.924 533.505,472.055 530.394,473.074C525.552,474.66 520.794,475.77 516.044,476.557C512.81,477.093 509.609,477.441 506.406,477.642C504.261,477.777 502.123,477.834 499.983,477.849C497.842,477.864 495.703,477.846 493.555,477.736C490.346,477.571 487.137,477.264 483.899,476.731C480.713,476.206 477.53,475.524 474.304,474.628C469.646,473.333 464.978,471.698 460.24,469.566L459.806,469.326L459.326,470.194L459.76,470.434C464.19,473.382 468.606,475.873 473.123,477.9C476.337,479.342 479.56,480.521 482.823,481.469C486.779,482.618 490.755,483.408 494.761,483.818C496.502,483.996 498.249,484.087 499.996,484.088C502.322,484.089 504.65,483.943 506.969,483.654C510.394,483.227 513.798,482.519 517.183,481.537C519.648,480.822 522.084,479.969 524.514,478.958C529.843,476.741 535.032,473.886 540.237,470.436L540.673,470.199L540.199,469.327L539.763,469.564ZM629.858,405.887L599.582,405.278C608.847,430.71 626.826,444.509 654.377,445.529C685.452,444.652 701.434,430.107 712.587,407.551L641.586,406.123C641.763,409.519 637.624,413.224 635.647,413.054C633.901,412.905 630.368,409.099 629.858,405.887ZM368.195,405.883C367.648,409.096 363.944,412.904 362.197,413.054C360.22,413.224 356.25,409.516 356.428,406.119L285.257,407.551C296.41,430.107 312.392,444.652 343.467,445.529C371.018,444.509 388.997,430.71 398.261,405.278L368.195,405.883ZM378.059,159.907C460.223,112.913 541.282,111.939 621.158,160.211C619.475,174.75 612.348,187.127 601.814,184.389C580.003,178.72 541.322,159.148 502.464,156.893C465.293,157.476 428.572,178.06 404.18,185.534C389.523,190.025 379.838,175.782 378.059,159.907Z" style="fill:white;"/>
    </g>
</svg>
