<?xml version="1.0" encoding="UTF-8" standalone="no"?>
<!DOCTYPE svg PUBLIC "-//W3C//DTD SVG 1.1//EN" "http://www.w3.org/Graphics/SVG/1.1/DTD/svg11.dtd">
<svg width="100%" height="100%" viewBox="0 0 1000 1000" version="1.1" xmlns="http://www.w3.org/2000/svg" xmlns:xlink="http://www.w3.org/1999/xlink" xml:space="preserve" xmlns:serif="http://www.serif.com/" style="fill-rule:evenodd;clip-rule:evenodd;stroke-linejoin:round;stroke-miterlimit:2;">
    <g transform="matrix(5.70002,0,0,5.70002,-2245.3,-2515.01)">
        <path d="M481.63,450L550,489.474L550,568.421L481.63,607.894L413.26,568.421L413.26,489.474L481.63,450ZM446.5,556.552C450.582,556.552 453.896,559.865 453.896,563.947C453.896,568.029 450.582,571.343 446.5,571.343C442.418,571.343 439.104,568.029 439.104,563.947C439.104,559.865 442.418,556.552 446.5,556.552ZM481.565,556.552C485.647,556.552 488.96,559.865 488.96,563.947C488.96,568.029 485.647,571.343 481.565,571.343C477.483,571.343 474.169,568.029 474.169,563.947C474.169,559.865 477.483,556.552 481.565,556.552ZM516.565,556.552C520.647,556.552 523.96,559.865 523.96,563.947C523.96,568.029 520.647,571.343 516.565,571.343C512.483,571.343 509.169,568.029 509.169,563.947C509.169,559.865 512.483,556.552 516.565,556.552ZM446.63,522.604C450.712,522.604 454.025,525.918 454.025,530C454.025,534.082 450.712,537.396 446.63,537.396C442.548,537.396 439.234,534.082 439.234,530C439.234,525.918 442.548,522.604 446.63,522.604ZM516.695,522.604C520.776,522.604 524.09,525.918 524.09,530C524.09,534.082 520.776,537.396 516.695,537.396C512.613,537.396 509.299,534.082 509.299,530C509.299,525.918 512.613,522.604 516.695,522.604ZM481.695,522.604C485.776,522.604 489.09,525.918 489.09,530C489.09,534.082 485.776,537.396 481.695,537.396C477.613,537.396 474.299,534.082 474.299,530C474.299,525.918 477.613,522.604 481.695,522.604ZM446.63,486.552C450.712,486.552 454.025,489.865 454.025,493.947C454.025,498.029 450.712,501.343 446.63,501.343C442.548,501.343 439.234,498.029 439.234,493.947C439.234,489.865 442.548,486.552 446.63,486.552ZM516.695,486.552C520.776,486.552 524.09,489.865 524.09,493.947C524.09,498.029 520.776,501.343 516.695,501.343C512.613,501.343 509.299,498.029 509.299,493.947C509.299,489.865 512.613,486.552 516.695,486.552ZM481.695,486.552C485.776,486.552 489.09,489.865 489.09,493.947C489.09,498.029 485.776,501.343 481.695,501.343C477.613,501.343 474.299,498.029 474.299,493.947C474.299,489.865 477.613,486.552 481.695,486.552Z" style="fill:white;"/>
    </g>
</svg>
