<?xml version="1.0" encoding="UTF-8" standalone="no"?>
<!DOCTYPE svg PUBLIC "-//W3C//DTD SVG 1.1//EN" "http://www.w3.org/Graphics/SVG/1.1/DTD/svg11.dtd">
<svg width="100%" height="100%" viewBox="0 0 1000 1000" version="1.1" xmlns="http://www.w3.org/2000/svg" xmlns:xlink="http://www.w3.org/1999/xlink" xml:space="preserve" xmlns:serif="http://www.serif.com/" style="fill-rule:evenodd;clip-rule:evenodd;stroke-linejoin:round;stroke-miterlimit:2;">
    <g transform="matrix(3.75,0,0,3.75,-1075,-1022.5)">
        <path d="M379.27,426.833C373.22,428.887 366.739,430 360,430C326.885,430 300,403.115 300,370C300,336.885 326.885,310 360,310C393.115,310 420,336.885 420,370C420,392.545 407.539,412.202 389.136,422.453L384.294,500L354.294,500L379.27,426.833ZM460.73,383.167C466.78,381.113 473.261,380 480,380C513.115,380 540,406.885 540,440C540,473.115 513.115,500 480,500C446.885,500 420,473.115 420,440C420,417.455 432.461,397.798 450.864,387.547L455.706,310L485.706,310L460.73,383.167ZM480,483.557C455.96,483.557 436.443,464.04 436.443,440C436.443,415.96 455.96,396.443 480,396.443C504.04,396.443 523.557,415.96 523.557,440C523.557,464.04 504.04,483.557 480,483.557ZM360,326.443C384.04,326.443 403.557,345.96 403.557,370C403.557,394.04 384.04,413.557 360,413.557C335.96,413.557 316.443,394.04 316.443,370C316.443,345.96 335.96,326.443 360,326.443Z" style="fill:white;"/>
    </g>
</svg>
