<?xml version="1.0" encoding="UTF-8" standalone="no"?>
<!DOCTYPE svg PUBLIC "-//W3C//DTD SVG 1.1//EN" "http://www.w3.org/Graphics/SVG/1.1/DTD/svg11.dtd">
<svg width="100%" height="100%" viewBox="0 0 1000 1000" version="1.1" xmlns="http://www.w3.org/2000/svg" xmlns:xlink="http://www.w3.org/1999/xlink" xml:space="preserve" xmlns:serif="http://www.serif.com/" style="fill-rule:evenodd;clip-rule:evenodd;stroke-linejoin:round;stroke-miterlimit:2;">
    <g transform="matrix(4.30373,0,0,4.30373,-1637.23,-426.441)">
        <path d="M499.999,276.108C499.855,285.287 481.286,291.724 468.602,277.897C468.122,277.268 467.576,276.635 467,276C467.522,276.671 468.057,277.304 468.602,277.897C470.761,280.729 471.597,283.488 468,286C437.827,286.335 428.085,283.862 443,278C444.888,273.197 447.051,268.509 452,265L450,263.5L453,262C448.433,243.899 452.62,231.635 469,227.5C474.442,235.382 477.8,241.374 478,244.5C477.934,250.198 478.807,251.584 480,251.5C480.347,253.081 481.371,254.449 485,255C490.693,256.086 494.256,254.973 496.5,252.5C496.191,242.629 496.494,232.492 493,224C494.91,245.893 494.176,247.981 493.5,250.5C490.802,252.735 488.559,253.623 487.5,251C484.889,252.159 482.901,252.004 482.5,248.5C480.711,249.443 479.798,249.016 481.5,244.5C478.958,237.67 475.263,231.433 470,226C466.413,222.544 466.026,219.126 470,214.5C469.351,212.934 468.392,211.868 467,211.5C470.896,208.817 472.697,203.731 473.5,197.5C472.138,196.577 470.619,195.946 469,195.5C468.69,191.988 470.134,189.084 472.5,186.5C471.167,186.365 469.833,186.417 468.5,186.5C469.337,184.751 470.319,183.224 471.5,182C470.908,175.263 471.722,168.977 473.5,163C469.353,159.985 466.754,156.84 466.5,153.5C468.667,152.475 470.833,152.344 473,152.5C478,151.06 483,149.969 488,149C488.3,148.254 488.18,147.619 488,147C490.465,147.045 492.807,147.516 495,148.5C495.287,146.981 495.188,145.711 495,144.5C496.911,144.815 498.572,145.659 500,147L500.135,146.876C501.532,145.607 503.149,144.805 505,144.5C504.812,145.711 504.713,146.981 505,148.5C507.193,147.516 509.535,147.045 512,147C511.82,147.619 511.7,148.254 512,149C517,149.969 522,151.06 527,152.5C529.167,152.344 531.333,152.475 533.5,153.5C533.246,156.84 530.647,159.985 526.5,163C528.278,168.977 529.092,175.263 528.5,182C529.681,183.224 530.663,184.751 531.5,186.5C530.167,186.417 528.833,186.365 527.5,186.5C529.866,189.084 531.31,191.988 531,195.5C529.381,195.946 527.862,196.577 526.5,197.5C527.303,203.731 529.104,208.817 533,211.5C531.608,211.868 530.649,212.934 530,214.5C533.974,219.126 533.587,222.544 530,226C524.737,231.433 521.042,237.67 518.5,244.5C520.202,249.016 519.289,249.443 517.5,248.5C517.099,252.004 515.111,252.159 512.5,251C511.441,253.623 509.198,252.735 506.5,250.5C505.824,247.981 505.09,245.893 507,224C503.506,232.492 503.809,242.629 503.5,252.5C505.744,254.973 509.307,256.086 515,255C518.629,254.449 519.653,253.081 520,251.5C521.193,251.584 522.066,250.198 522,244.5C522.2,241.374 525.558,235.382 531,227.5C547.38,231.635 551.567,243.899 547,262L550,263.5L548,265C552.949,268.509 555.112,273.197 557,278C571.915,283.862 562.173,286.335 532,286C528.403,283.488 529.239,280.729 531.398,277.897C531.943,277.304 532.478,276.671 533,276C532.424,276.635 531.878,277.268 531.398,277.897C518.664,291.779 500,285.236 500,276L499.999,276.108ZM465,211.353C466.404,212.437 467.38,213.484 468,214.5C464.726,218.503 465.014,223.493 467,226C462.332,227.838 459.009,229.725 455.5,233C454.154,229.388 452.767,225.881 450,226C448.333,226.096 446.667,225.979 445,225.5L409.5,256C400.055,263.396 384.761,240.896 396,226.5C414.581,209.8 428.721,193.75 438,191.877C446.444,190.172 454.779,195.381 462.5,208C462.78,209.303 463.757,210.373 465,211.353ZM402.141,239.524C402.033,242.901 405.688,243.87 408.849,239.407C411.156,236.15 407.217,234.226 406.656,233.924C404.354,232.683 402.234,236.633 402.141,239.524ZM405.96,234.659C406.327,234.849 406.42,235.402 406.166,235.892C405.912,236.382 405.408,236.626 405.04,236.435C404.673,236.245 404.58,235.693 404.834,235.202C405.088,234.712 405.592,234.469 405.96,234.659ZM404.604,227.054C404.711,223.641 402.648,223.372 398.5,226.5C394.735,229.339 398.186,231.282 399.155,231.75C401.51,232.886 404.512,229.945 404.604,227.054ZM400.96,225.565C401.327,225.755 401.42,226.307 401.166,226.798C400.912,227.288 400.408,227.531 400.04,227.341C399.673,227.151 399.58,226.598 399.834,226.108C400.088,225.618 400.592,225.374 400.96,225.565ZM533,226L537,226C543.093,218.805 548.246,211.1 553,202.662C554.536,199.937 557.401,198.106 560,196L577,215C580.544,218.309 585.832,214.032 589.422,211.5C594.324,208.042 597.641,202.181 600.087,195.5C601.734,191.002 601.809,187.069 598,183L574,154C569.738,149.465 564.3,150.618 560,154C545.777,165.184 538.114,179.299 534,195C532.124,196.455 530.469,198.133 529,200C529.272,202.942 530.394,206.405 535,212C534.571,212.698 533.897,213.364 533,214C535.55,218.005 535.285,222.005 533,226ZM518.709,196.035C518.738,196.64 518.712,197.216 518.627,197.758C518.567,198.144 518.469,198.507 518.309,198.841C518.202,198.79 518.095,198.742 517.987,198.698C517.584,198.534 517.181,198.414 516.778,198.332C516.079,198.19 515.39,198.157 514.702,198.207C514.54,198.207 514.409,198.339 514.41,198.501C514.41,198.663 514.542,198.794 514.704,198.793C515.329,198.835 515.941,198.965 516.556,199.167C516.903,199.281 517.245,199.426 517.593,199.592C517.813,199.696 518.035,199.807 518.257,199.934C518.486,200.063 518.777,199.99 518.919,199.769C519.198,199.298 519.377,198.786 519.443,198.233C519.527,197.522 519.445,196.758 519.291,195.965C519.271,195.804 519.125,195.69 518.965,195.709C518.804,195.729 518.69,195.875 518.709,196.035ZM481.291,196.035C481.262,196.64 481.288,197.216 481.373,197.758C481.433,198.144 481.531,198.507 481.691,198.841C481.798,198.79 481.905,198.742 482.013,198.698C482.416,198.534 482.819,198.414 483.222,198.332C483.921,198.19 484.61,198.157 485.298,198.207C485.46,198.207 485.591,198.339 485.59,198.501C485.59,198.663 485.458,198.794 485.296,198.793C484.671,198.835 484.059,198.965 483.444,199.167C483.097,199.281 482.755,199.426 482.407,199.592C482.187,199.696 481.965,199.807 481.743,199.934C481.514,200.063 481.223,199.99 481.081,199.769C480.802,199.298 480.623,198.786 480.557,198.233C480.473,197.522 480.555,196.758 480.709,195.965C480.729,195.804 480.875,195.69 481.035,195.709C481.196,195.729 481.31,195.875 481.291,196.035ZM585,192C583.084,189.173 580.523,190.033 579,195C577.618,199.508 582.286,199.19 583.345,199C585.918,198.538 586.623,194.395 585,192ZM500.065,194.999C501.418,194.947 502.248,193.27 502.544,191.161C502.824,191.33 503.117,191.455 503.423,191.538C504.185,191.743 505.035,191.684 505.968,191.349C507.254,190.888 508.719,189.888 510.342,188.365C510.543,188.176 510.553,187.859 510.365,187.658C510.176,187.457 509.859,187.447 509.658,187.635C508.402,188.814 507.255,189.664 506.216,190.162C505.267,190.616 504.424,190.771 503.683,190.572C502.954,190.376 502.343,189.835 501.828,188.965C501.257,188.001 500.814,186.653 500.492,184.909C500.485,184.875 500.476,184.842 500.463,184.81C501.927,184.183 503.134,183.394 504,182.39C503.128,181.417 501.978,181.117 500.176,181.032L500,181.024C498.096,181.099 496.9,181.385 496,182.39C496.866,183.394 498.073,184.183 499.537,184.81C499.524,184.842 499.515,184.875 499.508,184.909C499.186,186.653 498.743,188.001 498.172,188.965C497.657,189.835 497.046,190.376 496.317,190.572C495.576,190.771 494.733,190.616 493.784,190.162C492.745,189.664 491.598,188.814 490.342,187.635C490.141,187.447 489.824,187.457 489.635,187.658C489.447,187.859 489.457,188.176 489.658,188.365C491.281,189.888 492.746,190.888 494.032,191.349C494.965,191.684 495.815,191.743 496.577,191.538C496.883,191.455 497.176,191.33 497.456,191.161C497.756,193.303 498.609,195 500,195L500.065,194.999ZM592.204,183.036C589.294,180.703 587.231,182.506 587.761,188.309C588.242,193.575 592.493,191.612 593.411,191.042C595.641,189.656 594.669,185.013 592.204,183.036ZM482.5,174C485.08,176.278 488.101,177.541 490.466,177.604C492.832,177.666 494.542,176.527 494.5,174C494.381,166.843 486.489,165.954 482.5,174ZM517.5,174C514.92,176.278 511.899,177.541 509.534,177.604C507.168,177.666 505.458,176.527 505.5,174C505.619,166.843 513.511,165.954 517.5,174ZM486,171C486.267,172.827 487.159,174.463 488.5,176C486.877,175.791 485.708,174.596 484,173.5C484.854,172.339 485.191,171.813 486,171ZM514,171C513.733,172.827 512.841,174.463 511.5,176C513.123,175.791 514.292,174.596 516,173.5C515.146,172.339 514.809,171.813 514,171ZM490.5,169.5C489.948,169.5 489.505,169.948 489.5,170.5C489.49,171.615 489.948,172 490.5,172C491.052,172 491.5,171.568 491.5,170.5C491.5,169.948 491.052,169.5 490.5,169.5ZM509.5,169.5C510.052,169.5 510.495,169.948 510.5,170.5C510.51,171.615 510.052,172 509.5,172C508.948,172 508.5,171.568 508.5,170.5C508.5,169.948 508.948,169.5 509.5,169.5ZM469.022,154.356C471.345,156.168 473.324,158.4 475,161C476.154,159.548 476.736,158.235 477,157C474.529,154.751 471.846,154.045 469.022,154.356ZM530.978,154.356C528.655,156.168 526.676,158.4 525,161C523.846,159.548 523.264,158.235 523,157C525.471,154.751 528.154,154.045 530.978,154.356Z" style="fill:white;"/>
    </g>
</svg>
