<?xml version="1.0" encoding="UTF-8" standalone="no"?>
<!DOCTYPE svg PUBLIC "-//W3C//DTD SVG 1.1//EN" "http://www.w3.org/Graphics/SVG/1.1/DTD/svg11.dtd">
<svg width="100%" height="100%" viewBox="0 0 1000 1000" version="1.1" xmlns="http://www.w3.org/2000/svg" xmlns:xlink="http://www.w3.org/1999/xlink" xml:space="preserve" xmlns:serif="http://www.serif.com/" style="fill-rule:evenodd;clip-rule:evenodd;stroke-linejoin:round;stroke-miterlimit:2;">
    <g transform="matrix(2.8125,0,0,2.8125,-1595.31,-1479.46)">
        <path d="M769.148,835.629C773.844,840.939 778.815,846.227 784.056,851.483C785.914,853.346 785.91,856.369 784.046,858.227C782.182,860.086 779.16,860.082 777.301,858.218C771.11,852.009 765.282,845.756 759.813,839.458C762.071,839.136 764.739,838.594 765.958,838.082C767.392,837.48 768.457,836.609 769.148,835.629ZM765.462,836.9C763.699,837.641 758.737,838.436 756.839,838.464C747.865,838.597 748.351,833.343 755.904,830.71C757.71,830.08 761.182,828.726 763.077,828.832C770.259,829.234 770.31,834.866 765.462,836.9ZM752.556,830.817C699.694,765.674 684.557,696.002 701.512,622.487C678.221,643.701 656.948,652.736 639.367,654.055C607.903,656.415 587.38,634.762 585.155,610.384C583.71,594.547 592.402,580.675 608.692,574.141C629.117,565.948 662.633,569.671 702.102,598.822C701.44,599.236 700.923,599.728 700.643,600.207C699.857,601.552 699.452,603.563 699.445,605.898C699.442,606.847 699.502,607.855 699.617,608.888C662.528,580.333 631.321,575.342 612.243,582.994C600.247,587.806 593.59,597.855 594.655,609.518C597.71,642.997 642.037,667.315 699.902,610.894C700.211,612.681 700.664,614.489 701.227,616.172C701.984,618.434 702.942,620.471 703.993,621.951C704.817,623.11 705.722,623.949 706.625,624.404C707.263,624.725 708.165,624.817 709.17,624.614C710.881,624.269 712.969,623.081 713.864,622.125C714.645,621.292 714.741,620.412 714.563,619.835C714.525,619.715 714.477,619.593 714.413,619.473C715.329,619.459 716.1,619.289 716.732,618.992C742.31,705.71 795.346,754.069 868.436,774.42C868.503,775.288 868.645,776.051 868.839,776.556C869.208,777.523 869.895,777.857 870.402,777.851C870.83,777.846 871.634,777.621 871.103,778.303C869.481,780.391 868.616,782.329 868.383,783.853C868.36,784.005 868.343,784.154 868.331,784.3C792.88,764.125 737.567,715.82 709.835,629.034C695.418,696.924 709.806,761.339 757.547,821.768C756.027,823.265 754.708,825.633 754.436,826.91C754.203,828.005 754.645,828.707 755.11,829C755.376,829.168 755.769,829.4 755.482,829.5C754.363,829.89 753.386,830.338 752.556,830.817ZM764.437,826.705C768.303,827.45 763.56,821.635 760.677,821.502C757.851,821.371 753.676,829.645 756.696,827.648C758.529,826.436 761.051,826.053 764.437,826.705ZM884.99,778.483C890.228,779.604 895.56,780.596 900.982,781.462C903.581,781.877 905.355,784.324 904.94,786.924C904.525,789.523 902.077,791.297 899.478,790.881C891.763,789.649 884.223,788.173 876.855,786.44C877.108,786.286 877.367,786.121 877.631,785.944C879.287,784.837 883.195,781.298 884.326,779.64L884.326,779.64C884.588,779.255 884.809,778.868 884.99,778.483ZM883.388,779C882.31,780.58 878.578,783.945 877,785C869.54,789.99 867.092,785.316 872,779C873.174,777.49 875.352,774.465 877,773.524C883.246,769.958 886.351,774.657 883.388,779ZM876.985,771C880.635,769.523 873.493,767.221 871,768.677C868.557,770.103 869.551,779.317 871,776C871.88,773.986 873.789,772.293 876.985,771ZM714.705,599.225C715.984,600.275 717.107,602.101 717.55,604.74C717.801,606.233 718.2,607.91 718.063,609.096C717.959,610 717.599,610.714 717.006,611.207C716.927,611.273 716.834,611.339 716.73,611.403C717.002,611.327 717.252,611.327 717.468,611.358C717.973,611.431 718.439,611.693 718.766,612.245C718.966,612.585 719.136,613.223 719.125,614.006C719.107,615.252 718.699,616.963 718.347,617.549C718.267,617.681 718.18,617.807 718.085,617.928C774.088,646.781 813.769,634.13 830.401,611.95C838.238,601.499 841.209,588.807 838.771,576.655C835.67,561.191 822.211,550.094 803.19,548.261C778.9,545.919 744.843,559.078 714.705,599.225ZM719.982,608.152C747.966,569.173 779.518,555.561 802.275,557.755C816.558,559.132 827.09,566.918 829.419,578.53C831.333,588.073 828.923,598.021 822.77,606.227C807.657,626.382 771.276,635.526 719.982,608.152ZM707,600C706.17,602.933 706.111,618.269 712.655,620C714.623,620.521 709.151,623.916 707.332,623C702.874,620.753 699.182,605.818 702,601C702.858,599.533 707.463,598.365 707,600ZM717,613C716.306,613.506 711.811,613.17 711,613C710.314,612.856 713.012,617.858 714,617.897C715.481,617.956 716.495,617.577 717,616.738C717.488,615.928 717.952,612.306 717,613ZM709.834,614.853C710.104,615.512 710.416,616.122 710.777,616.658C710.883,616.814 710.992,616.964 711.106,617.107C710.621,616.366 710.159,615.539 709.834,614.853ZM717.607,614.442C717.673,614.414 717.733,614.386 717.787,614.357C717.84,614.328 717.886,614.299 717.926,614.27C717.816,614.35 717.71,614.406 717.607,614.442ZM708.739,610.94C708.847,611.523 708.974,612.1 709.12,612.662C709.194,612.95 709.274,613.235 709.36,613.514C709.259,612.839 709.466,612.358 709.613,612.142C709.693,612.025 709.783,611.917 709.882,611.822C709.454,611.612 709.09,611.347 708.817,611.035C708.791,611.005 708.765,610.973 708.739,610.94ZM716,610C715,610.833 711.167,611.333 710,610C708.833,608.667 708.521,603.21 709,602C710.577,598.018 715.04,599.28 716,605C716.322,606.919 717,609.167 716,610Z" style="fill:white;"/>
    </g>
</svg>
