<?xml version="1.0" encoding="UTF-8" standalone="no"?>
<!DOCTYPE svg PUBLIC "-//W3C//DTD SVG 1.1//EN" "http://www.w3.org/Graphics/SVG/1.1/DTD/svg11.dtd">
<svg width="100%" height="100%" viewBox="0 0 1000 1000" version="1.1" xmlns="http://www.w3.org/2000/svg" xmlns:xlink="http://www.w3.org/1999/xlink" xml:space="preserve" xmlns:serif="http://www.serif.com/" style="fill-rule:evenodd;clip-rule:evenodd;stroke-linejoin:round;stroke-miterlimit:2;">
    <g transform="matrix(4.17734,0,0,4.17734,-2149.58,-1383.75)">
        <path d="M646,465C643.005,464.511 639.653,464.283 635,465C635,465 617.717,449.874 608,442C608.866,441.566 579.849,412.093 574.923,402C573.025,398.111 569.467,392.537 565,390C560.794,374.564 558.945,378.554 558,390C555.054,372.344 551.721,369.01 548,380C543.079,364.072 539.644,363.045 538,380C524.972,353.108 524.211,364.371 530,396C528.66,401.695 528.279,421.755 531.022,425C538.467,433.807 549.918,443.019 556,456C562.654,459.674 565.417,463.801 575,468.097C582.571,471.49 588.032,478.291 594,484C587.885,483.885 583.016,485.714 581,492C578.781,494.086 577.123,496.423 576,499C578.308,497.471 581.318,497.495 585,499C590.332,500.535 595.898,500.696 602,501C617.722,509.509 632.181,507.237 646,498C645.82,502.788 643.141,508.093 642.654,514C642.443,516.557 649.375,518.294 650.535,524C651.299,527.762 654.977,531.368 660,535C658.336,532.123 656.671,529.279 655,527C657.943,529.431 660.952,530.98 664,532C661.54,529.939 659.735,527.562 658.318,525C656.92,522.473 653.9,519.766 653,517C655.2,514.048 654.094,510.272 651,506C660.051,487.633 662.599,495.941 662.209,506C662.004,511.293 660.483,517.432 662,521.413C662.103,521.684 663.393,521.567 664,522.78C665.719,526.217 669.61,532.763 675,537C672.001,532.359 670.099,528.056 669,524C674.633,532.862 679.05,534.346 683,533C678.445,530.028 674.281,526.603 672,521C671.681,514.858 669.435,513.684 667,513C668.527,505.093 669.9,497.234 666,491C665.169,490.076 663.236,489.491 661,489C663.248,486.291 669.421,481.679 674,481C693.786,478.065 707.718,478.542 721,475C720.485,474.312 721.399,473.388 707,475C714.637,471.716 713.883,470.569 703,472C704.507,467.841 698.107,465.605 685,465C700.834,446.732 720.567,429.205 742,412C733.65,413.863 722.538,422.092 712,429C740.326,396.229 747.705,386.39 709,427C737.616,385.066 733.987,386.013 701,426C729.108,386.799 721.956,392.617 694,425C679.434,439.473 646,465 646,465Z" style="fill:white;"/>
    </g>
</svg>
