<?xml version="1.0" encoding="UTF-8" standalone="no"?>
<!DOCTYPE svg PUBLIC "-//W3C//DTD SVG 1.1//EN" "http://www.w3.org/Graphics/SVG/1.1/DTD/svg11.dtd">
<svg width="100%" height="100%" viewBox="0 0 1000 1000" version="1.1" xmlns="http://www.w3.org/2000/svg" xmlns:xlink="http://www.w3.org/1999/xlink" xml:space="preserve" xmlns:serif="http://www.serif.com/" style="fill-rule:evenodd;clip-rule:evenodd;stroke-linejoin:round;stroke-miterlimit:2;">
    <g transform="matrix(4.35917,0,0,4.35917,-1679.58,-1903.85)">
        <path d="M528.667,512.166C535.587,521.721 542.411,531.277 548.728,540.832C536.737,555.353 527.135,571.11 517.888,587.051C532.42,578.499 547.013,570.038 561.973,562.125C575.154,571.116 586.239,580.868 597.025,590.728C593.35,578.261 589.505,565.794 584.369,553.327C590.726,557.156 596.984,560.984 603.231,564.813C602.071,558.316 601.188,551.892 600.849,545.612C576.663,533.285 552.62,522.304 528.667,512.166ZM471.333,512.166C464.413,521.721 457.589,531.277 451.272,540.832C463.263,555.353 472.865,571.11 482.112,587.051C467.58,578.499 452.987,570.038 438.027,562.125C424.846,571.116 413.761,580.868 402.975,590.728C406.65,578.261 410.495,565.794 415.631,553.327C409.274,557.156 403.016,560.984 396.769,564.813C397.929,558.316 398.812,551.892 399.151,545.612C423.337,533.285 447.38,522.304 471.333,512.166ZM500,537.694C494.681,527.835 484.044,527.835 478.725,532.764C473.406,537.694 473.406,547.552 478.725,557.41C482.448,564.804 492.022,572.198 500,577.127C507.978,572.198 517.552,564.804 521.275,557.41C526.594,547.552 526.594,537.694 521.275,532.764C515.956,527.835 505.319,527.835 500,537.694Z" style="fill:white;"/>
    </g>
</svg>
