<?xml version="1.0" encoding="UTF-8" standalone="no"?>
<!DOCTYPE svg PUBLIC "-//W3C//DTD SVG 1.1//EN" "http://www.w3.org/Graphics/SVG/1.1/DTD/svg11.dtd">
<svg width="100%" height="100%" viewBox="0 0 1000 1000" version="1.1" xmlns="http://www.w3.org/2000/svg" xmlns:xlink="http://www.w3.org/1999/xlink" xml:space="preserve" xmlns:serif="http://www.serif.com/" style="fill-rule:evenodd;clip-rule:evenodd;stroke-linejoin:round;stroke-miterlimit:2;">
    <g transform="matrix(3.33333,0,0,3.33333,-750,-656.017)">
        <path d="M382.236,284.28L381.721,284.278C377.599,284.28 373.305,284.647 368.672,285.722C391.017,286.068 309.151,319.656 302.672,325.722C302.1,337.712 299.041,349.711 292.672,361.722C290.901,375.389 290.186,389.055 290.672,402.722L306.672,407.722L307.036,408.268L307.672,405.722C309.204,401.827 311.474,398.949 315.672,398.722C312.851,397.988 309.635,396.713 306.023,394.899L305.672,394.722C302.17,395.829 297.982,397.493 293.559,399.349L292.672,399.722C296.639,396.995 300.369,394.166 302.672,390.722C306.743,385.878 308.115,381.034 308.625,376.191L308.672,375.722L299.672,375.722L292.672,380.722L294.672,367.722C310.454,363.06 325.696,358.234 338.672,352.722L335.672,359.722C337.4,362.328 339.23,364.833 341.672,366.722C340.076,371.389 338.951,376.055 338.672,380.722C340.685,382.055 343.063,383.389 345.672,384.722L343.672,387.722C340.464,386.655 337.996,385.322 335.876,383.864L335.672,383.722C330.081,388.354 325.41,393.559 320.672,398.722C322.887,400.673 325.801,402.668 329.672,404.722C329.755,411.775 326.203,416.73 319.017,419.588L318.672,419.722L312.672,413.722L309.725,414.985L307.672,417.722L308.672,435.722L309.227,435.696C332.632,434.517 344.294,425.92 348.672,412.722C353.899,406.456 357.464,399.288 362.677,393.722C386.366,368.431 392.959,339.094 400.672,309.722C401.298,306.117 400.35,303.744 397.672,302.722C400.503,296.824 402.182,291.104 401.672,285.722C395.152,285.296 388.911,284.325 382.236,284.28ZM310.148,434.698L309.672,434.722L309.672,427.722L324.672,427.722L325.086,427.492C333.744,422.635 340.579,416.865 344.672,409.722C342.651,392.109 348.615,374.861 355.672,357.722L340.672,343.722L340.672,334.722C362.384,320.271 383.403,305.521 399.672,288.722C401.179,292.684 398.745,297.864 395.672,303.722C399.476,304.835 399.419,306.59 398.672,308.722C393.9,338.454 380.753,372.205 363.672,389.722C357.4,396.674 352.305,404.104 347.672,411.722C341.433,425.379 330.228,433.63 310.148,434.698ZM402.932,291.254C440.43,291.358 474.622,297.567 499,321.886L501.5,321.388L510,352.81L507.394,353.071C507.999,357.829 508.411,362.674 508,367.888C499.078,371.879 494.032,381.688 493.242,397.888C496.194,401.268 499.183,404.611 502.239,407.888L492.913,421.591L470,422.112C457.745,408.592 441.125,396.754 424.44,384.941C444.675,380.36 457.724,371.33 462.101,357.099C467.974,358.221 473.87,359.316 479,361.388C474.985,367.485 471.496,373.439 468,379.888C472.433,374.615 476.827,369.296 482,364.888C481.069,363.282 480.203,361.661 480,359.888C480.403,358.369 481.307,357.426 483,357.388C484.992,359.739 487.215,362.081 490.5,364.388C493.632,363.168 496.533,361.731 499,359.888L505,366.484C502.919,351.865 500.28,337.432 492,324.888C495.017,333.988 497.089,342.995 498,351.888C491.555,349.217 484.467,347.323 477,345.888C478.397,336.15 476.586,327.268 470,319.662C473.999,328.107 474.86,336.514 473,344.888C470.121,344.003 467.095,343.382 464,342.888L463.717,344.21C463.429,334.052 459.955,321.998 452.987,307.888L402.862,292.155C402.889,291.855 402.913,291.554 402.932,291.254ZM472,360.888L470.5,360.388C468.912,364.173 466.898,367.89 463.5,371.388L460.5,370.388C462.646,366.888 464.003,362.888 465,359.388L463,358.888C461.13,370.46 452.217,376.899 442,382.388L442,395.388L472.5,418.888L491,418.388L499,407.888L492,399.388L484.5,405.388L459.5,380.388C465.025,374.083 468.929,367.545 472,360.888ZM317.106,373.98C321.602,376.64 326.491,379.256 332.672,381.722C326.438,386.107 322.066,391.846 318.825,398.409L318.672,398.722C315.29,395.8 311.59,393.536 307.672,391.722C308.355,381.929 311.756,376.585 316.672,373.722L317.106,373.98ZM484.5,389.888C487.086,381.505 488.903,374.343 490,366.388C487.18,364.279 484.857,361.579 482.725,359.388C482.093,359.746 481.863,359.742 481.5,360.388C481.676,361.931 482.759,363.42 483.5,364.888C483.945,365.888 484.234,366.888 485.5,367.888C486.139,374.992 485.652,382.362 484.5,389.888ZM402.444,295.005L450,310.703C462.818,331.174 460.843,342.279 460.37,347.888C458.163,374.089 421.078,398.579 400,365.365C397.378,361.234 395.909,353.272 397.069,344.386L393.489,341.494C395.187,334.481 397.725,327.507 398.82,320.638C399.777,317.004 401.044,313.641 402,310C402.457,307.371 401.748,305.12 400.47,303.847C400.486,303.231 399.496,302.615 399.5,302C401.08,299.668 401.959,297.337 402.444,295.005ZM334.822,361.842L334.672,361.722C321.262,362.834 320.9,367.689 317.672,371.722C322.929,374.415 328.224,377.074 334.672,378.722L334.844,378.352C336.598,374.527 337.793,370.642 338.672,366.722C337.646,364.721 336.363,363.095 334.822,361.842ZM319.672,364.722C317.036,367.245 314.716,369.819 312.851,372.466L312.672,372.722C309.344,372.713 306.698,372.37 304.672,371.722C307.385,368.036 311.837,364.771 319.314,364.722L319.672,364.722ZM498,357.888C495.789,359.321 493.094,360.825 490,362.388L484,355.888L484,351.888C488.819,353.172 493.584,354.71 498,357.888ZM358.465,285.567L357.886,285.476C298.436,291.563 271.236,310.977 240,328.722C258.291,336.174 276.582,343.61 294.672,356.161L294.697,355.636C295.244,344.628 297.009,333.83 300.541,323.337C320.833,311.929 340.912,302.736 360.877,294.708C370.563,290.604 370.426,287.49 358.465,285.567ZM367.584,283.498C356.003,284.515 342.955,286.428 328.648,289.11L290,257.888L367.584,283.498Z" style="fill:white;"/>
    </g>
</svg>
