<?xml version="1.0" encoding="UTF-8" standalone="no"?>
<!DOCTYPE svg PUBLIC "-//W3C//DTD SVG 1.1//EN" "http://www.w3.org/Graphics/SVG/1.1/DTD/svg11.dtd">
<svg width="100%" height="100%" viewBox="0 0 1000 1000" version="1.1" xmlns="http://www.w3.org/2000/svg" xmlns:xlink="http://www.w3.org/1999/xlink" xml:space="preserve" xmlns:serif="http://www.serif.com/" style="fill-rule:evenodd;clip-rule:evenodd;stroke-linejoin:round;stroke-miterlimit:2;">
    <g transform="matrix(3.13263,0,0,3.13263,-1269.94,-1444.27)">
        <path d="M556.396,660C556.35,651.71 557.42,638.84 557.42,638.84L570.974,638.84C571.106,640.452 571.223,642.066 571.333,643.68C571.494,646.05 571.636,648.422 571.752,650.796C571.841,652.633 571.914,654.472 571.958,656.311C571.988,657.54 572.006,658.77 571.998,660L634.863,660C637.698,660 640,662.302 640,665.137L640,759.161C640,761.996 637.698,764.298 634.863,764.298L495.137,764.298C492.302,764.298 490,761.996 490,759.161L490,665.137C490,662.302 492.302,660 495.137,660L556.396,660ZM632.5,756.766L632.5,683.234L497.5,683.234L497.5,756.766L632.5,756.766ZM629.257,700.371L500.743,700.371L500.743,754.028L629.257,754.028L629.257,700.371ZM621.578,710.371L587.5,710.371L587.5,744.449L621.578,744.449L621.578,710.371ZM629.257,698.371L629.257,686.714L500.743,686.714L500.743,698.371L629.257,698.371ZM571.875,665C571.729,666.124 571.446,666.803 570.98,666.84L570.974,666.84C568.404,667.11 566.254,667.182 564.197,667.154C562.14,667.182 559.99,667.11 557.42,666.84L557.414,666.84C556.948,666.803 556.665,666.124 556.519,665L552.846,665C550.609,665 548.793,666.816 548.793,669.053C548.793,671.289 550.609,673.105 552.846,673.105L577.154,673.105C579.391,673.105 581.207,671.289 581.207,669.053C581.207,666.816 579.391,665 577.154,665L571.875,665ZM557.105,626C556.187,629.333 556.128,632.667 557.105,636L571.403,636C572.422,632.667 572.48,629.333 571.403,626L557.105,626ZM570.947,602L557.447,602L557.447,624L570.947,624L570.947,602ZM573.292,591.75C573.292,590.232 571.947,589 570.292,589L558.292,589C556.636,589 555.292,590.232 555.292,591.75L555.292,597.25C555.292,598.768 556.636,600 558.292,600L570.292,600C571.947,600 573.292,598.768 573.292,597.25L573.292,591.75ZM570.292,592.896C570.292,592.01 569.508,591.292 568.542,591.292L560.042,591.292C559.076,591.292 558.292,592.01 558.292,592.896L558.292,596.104C558.292,596.99 559.076,597.708 560.042,597.708L568.542,597.708C569.508,597.708 570.292,596.99 570.292,596.104L570.292,592.896ZM573.292,578.75C573.292,577.232 571.947,576 570.292,576L558.292,576C556.636,576 555.292,577.232 555.292,578.75L555.292,584.25C555.292,585.768 556.636,587 558.292,587L570.292,587C571.947,587 573.292,585.768 573.292,584.25L573.292,578.75ZM570.292,579.896C570.292,579.01 569.508,578.292 568.542,578.292L560.042,578.292C559.076,578.292 558.292,579.01 558.292,579.896L558.292,583.104C558.292,583.99 559.076,584.708 560.042,584.708L568.542,584.708C569.508,584.708 570.292,583.99 570.292,583.104L570.292,579.896ZM559,574L604,477L620,485L574,574L559,574ZM568,547L558,569L519,487L534,478L568,547Z" style="fill:white;"/>
    </g>
</svg>
