<?xml version="1.0" encoding="UTF-8" standalone="no"?>
<!DOCTYPE svg PUBLIC "-//W3C//DTD SVG 1.1//EN" "http://www.w3.org/Graphics/SVG/1.1/DTD/svg11.dtd">
<svg width="100%" height="100%" viewBox="0 0 1000 1000" version="1.1" xmlns="http://www.w3.org/2000/svg" xmlns:xlink="http://www.w3.org/1999/xlink" xml:space="preserve" xmlns:serif="http://www.serif.com/" style="fill-rule:evenodd;clip-rule:evenodd;stroke-linejoin:round;stroke-miterlimit:2;">
    <path d="M490.607,838.529C484.506,851.507 475.508,865.37 464.376,879.884C410.317,903.256 362.749,926.628 318.647,950C341.549,930.788 361.962,911.311 376.943,891.254C412.859,873.039 450.224,855.294 490.607,838.529ZM680.627,944.174C654.347,929.539 628.149,916.31 602.018,904.237C611.522,903.725 622.505,902.971 636.747,901.517C647.323,915.239 662.868,929.57 680.627,944.174ZM643.179,917.773C636.901,914.593 630.627,911.487 624.357,908.45C627.458,908.186 630.726,907.888 634.19,907.547C636.918,910.921 639.927,914.331 643.178,917.772L643.179,917.773ZM579.074,889.537C600.111,890.231 621.357,889.716 642.867,887.67C652.539,882.559 665.724,871.725 681.956,858.142C687.573,853.442 694.332,848.535 700.374,843.255C674.365,840.434 646.101,840.56 613.139,846.822C604.923,860.117 593.23,874.457 579.074,889.537ZM491.659,886.127C521.978,871.866 554.209,860.742 588,852.178C579.53,863.665 568.497,876.015 553.982,889.537C530.725,888.923 509.639,887.852 491.659,886.127ZM371.337,839.303C344.514,835.816 321.522,836.088 299.442,837.256C307.174,843.565 316.218,849.301 325.898,857.781C334.582,865.388 342.58,874.187 352.982,880.092C359.99,866.493 365.944,852.898 371.337,839.303ZM363.193,844.123C359.388,853.36 355.281,862.598 350.713,871.838C343.036,866.407 336.603,859.52 329.684,853.459C324.834,849.211 320.144,845.645 315.697,842.352C330.546,841.978 346.097,842.291 363.193,844.123L363.193,844.123ZM493.109,868.353C501.777,855.257 508.89,842.204 513.234,829.227C549.496,813.887 586.049,800.076 622.884,787.747C616.528,803.069 605.284,818.567 592.06,834.136C555.845,845.505 522.653,856.909 493.109,868.353ZM378.411,864.007C381.901,854.184 386.728,843.849 390.212,834.027L509.017,774.826C502.652,788.897 493.47,803.604 480.888,819.076L378.411,864.007ZM620.331,825.875C630.493,810.486 639.221,795.124 644.612,779.828C674.439,769.922 704.369,760.523 734.376,751.504C719.794,780.275 696.715,798.98 669.369,812.628L620.331,825.875ZM265.391,745.913C280.062,774.076 303.744,792.467 331.077,806.9L377.803,820.24L378.577,818.308C367.728,804.787 360.106,789.93 354.612,774.192L265.391,745.913ZM396.264,812.224L401.825,786.113L532.781,704.232C525.964,722.254 514.749,740.276 499.483,758.298L396.264,812.224ZM366.131,810.933L333.233,801.541C311.526,790.017 292.184,775.932 278.226,756.007L278.226,756.008L350.163,778.809C354.274,790.018 359.475,800.776 366.131,810.933ZM511.343,806.384C520.478,792.152 528.085,777.92 531.919,763.687L646.805,711.045C643.105,729.803 634.249,747.634 620.237,764.538C582.578,778.843 545.446,793.01 511.343,806.384ZM377.001,781.839L383.901,795.276L386.146,785.408L377.001,781.839ZM352.982,704.859L395.119,724.473L390.52,762.707L379.24,759.05C365.011,741.181 357.166,723.086 352.982,704.859ZM361.844,715.322L388.918,727.924C388.918,727.924 385.65,755.088 385.65,755.088C385.65,755.088 382.674,754.124 382.674,754.124C372.705,741.296 366.126,728.35 361.844,715.321L361.844,715.322ZM407.971,755.003L410.588,733.774C453.573,693.015 496.373,657.314 539.034,625.411C536.034,643.051 529.715,661.329 519.569,680.345L407.971,755.003ZM648.239,754.276C655.739,741.241 662.193,725.059 666.66,702.893C687.344,694.062 708.31,685.007 730.487,676.159C744.881,670.415 760.764,669.359 776.829,669.322C765.054,688.318 748.959,706.047 728.298,722.438C702.188,733.896 675.908,745.103 648.239,754.276ZM350.936,748.755L271.814,716.747C251.547,700.68 235.038,682.985 222.695,663.487C237.209,663.866 251.729,664.304 264.878,669.237C288.154,677.969 310.886,686.815 333.06,697.17C336.011,714.853 341.671,732.097 350.936,748.755ZM531.919,742.211C542.671,725.095 551.165,707.778 554.957,690.041L664.273,625.189C661.632,650.282 649.146,674.573 631.376,698.434L531.919,742.211ZM339.078,737.76L274.74,711.733C258.521,698.795 244.788,684.79 233.781,669.601C243.831,670.083 253.698,671.179 262.86,674.616C285.048,682.94 306.74,691.364 327.92,701.119C330.215,713.564 333.837,725.794 339.078,737.76L339.078,737.76ZM412.113,715.537L414.618,684.512C456.159,632.281 500.026,585.375 544.558,539.991C540.476,562.717 532.386,585.442 520.939,608.168C478.748,641.399 444.171,677.923 412.113,715.537ZM335.212,619.876L400.174,657.795L397.239,704.859L368.688,692.406C351.885,672.482 340.987,648.108 335.212,619.876ZM343.922,631.613L394.22,660.972C394.22,660.972 392.016,696.313 392.016,696.313C392.016,696.313 372.229,687.682 372.229,687.682C359.088,671.779 349.81,652.976 343.922,631.612L343.922,631.613ZM661.409,684.425C674.338,661.272 680.784,638.06 683.458,614.814C716.695,593.041 754.16,579.701 797.673,578.427C780.321,608.035 760.373,631.321 728.807,653.683C708.045,664.422 686.36,674.895 661.409,684.425ZM316.029,609.228C318.337,631.872 323.885,654.835 338.694,678.71L271.133,648.564C245.702,629.283 221.844,606.06 202.086,572.57C240.795,573.116 278.839,584.325 316.029,609.228ZM310.606,612.528C312.613,630.237 316.685,648.143 325.47,666.518C325.47,666.519 274.08,643.588 274.08,643.588C251.763,626.604 230.688,606.49 212.666,578.747C245.877,580.98 278.562,591.572 310.606,612.528L310.606,612.528ZM545.832,663.828C552.35,646.27 557.01,628.644 557.5,610.867C594.218,584.55 632.213,559.053 672.886,535.277C669.071,560.844 659.393,584.739 647.144,607.901L545.832,663.828ZM415.758,656.826L416.265,608.76C451.238,564.409 487.905,522.08 526.782,482.388C526.27,500.453 522.629,519.135 518.573,537.898C481.774,573.259 447.594,613.057 415.758,656.826ZM325.856,529.089C330.946,553.432 339.241,577.707 352.372,601.881L400.174,627.16L400.062,576.09C375.144,558.338 350.416,542.756 325.856,529.089ZM334.431,540.567C354.279,552.073 374.239,564.86 394.323,579.062C394.323,579.062 394.408,617.611 394.408,617.611C394.408,617.611 356.602,597.618 356.602,597.618C346.467,578.659 339.352,559.636 334.431,540.567L334.431,540.567ZM672.789,596.279C682.368,571.635 689.904,547.343 692.759,523.855C719.902,509.112 747.712,494.842 776.829,481.499C790.545,478.473 804.16,477.357 817.603,479.476C814.687,490.87 792.247,517.763 764.329,549.006C738.795,565.366 708.19,581.112 672.789,596.279ZM326.942,589.633C294.127,575.861 263.801,560.338 235.23,543.582C215.005,521.142 194.896,498.659 181.756,473.637C193.569,472.222 207.349,472.971 222.798,475.555C250.801,488.846 278.805,503.193 306.808,518.157C309.205,541.838 316.485,565.682 326.942,589.633ZM547.811,587.925C555.1,567.004 561.91,544.722 564.703,521.316C599.138,487.267 638.087,457.378 680.549,430.728C675.768,461.271 665.039,490.6 652.13,519.485C614.81,540.744 578.004,563.236 547.811,587.925ZM316.251,578.769C288.876,566.657 263.247,553.317 238.903,539.075C221.316,519.561 203.834,500.024 191.181,478.716C200.196,478.468 210.193,479.311 221.062,481.091C247.851,493.824 274.64,507.521 301.428,521.799C303.663,540.695 308.869,559.697 316.251,578.768L316.251,578.769ZM415.758,576.09L415.758,528.233C448.694,484.787 484.26,441.91 525.555,400.269C526.509,422.297 523.2,444.422 515.895,466.64C479.337,501.021 447.688,538.648 415.758,576.09ZM401.361,485.907L400.342,546.019L347.913,512.856C333.841,483.603 323.422,454.18 318.829,424.484C349.097,443.599 375.615,464.928 401.361,485.907ZM395.57,488.599L394.771,535.697C394.771,535.697 352.381,508.884 352.381,508.884C340.955,484.915 332.034,460.835 326.888,436.575C351.589,453.083 373.882,470.943 395.57,488.599L395.57,488.599ZM539.611,515.819C543.422,498.681 545.389,481.705 544.525,464.977C584.9,424.465 627.675,386.483 674.413,352.681C668.551,381.355 657.672,409.533 640.204,437.057C600.175,464.08 568.872,490.071 539.611,515.819ZM675.737,507.887C687.024,477.935 696.717,447.983 700.374,418.03C737.061,395.316 776.052,375.804 816.052,357.695C812.025,380.947 801.643,400.665 789.121,419.554C764.1,457.299 722.242,483.995 675.737,507.887ZM324.014,501.98C254.385,467.332 198.558,423.554 184.197,352.344C226.897,372.918 265.208,393.041 299.521,412.756C301.741,442.411 311.536,472.176 324.014,501.98ZM415.758,490.015C416.082,460.662 419.128,431.773 426.056,403.545C451.267,373.421 478.688,343.889 508.684,315.048C507.797,338.608 505.274,363.226 501.76,388.485C451.605,441.642 434.217,465.348 415.758,490.015ZM312.923,489.824C255.153,459.154 208.861,420.955 192.613,362.813C229.76,380.964 263.48,398.763 294.046,416.24C296.29,440.705 303.442,465.251 312.923,489.824L312.923,489.824ZM325.856,346.904C330.924,378.976 344.59,404.731 358.049,430.638L401.79,461.746L408.137,414.932L325.856,346.904ZM334.822,361.771L402.014,417.325C402.014,417.325 397.374,451.555 397.374,451.555C397.374,451.555 362.508,426.759 362.508,426.759C351.811,406.183 341.019,385.658 334.822,361.77L334.822,361.771ZM539.611,442.265C542.546,422.285 543.955,402.413 543.137,382.698C577.665,346.858 614.756,310.393 655.193,273.114C653.214,298.754 648.738,324.47 642.291,350.245C603.794,380.506 570.04,411.225 539.611,442.265ZM670.501,416.804C680.732,393.801 691.577,371.32 691.861,339.842C716.042,320.136 741.331,300.707 769.158,281.91C785.033,275.975 802.867,270.485 824.632,265.889C814.392,289.913 799.897,315.364 778.614,343.093C744.405,368.317 708.36,392.885 670.501,416.804ZM328.679,410.446C296.617,389.942 263.125,368.014 220.509,337C200.032,311.05 185.88,285.584 175.368,260.397C191.873,262.303 210.019,267.423 230.081,276.296C260.089,296.886 283.219,314.966 307.902,333.614C307.272,358.734 314.981,384.396 328.679,410.446ZM314.913,394.762C288.063,377.378 259.351,358.141 224.532,332.822C207.225,310.786 194.547,289.106 184.794,267.649C197.893,270.134 212.006,274.621 227.27,281.335C256.045,301.1 278.486,318.556 302.121,336.445C302.116,355.599 306.677,375.066 314.913,394.762L314.913,394.762ZM344.959,267.933C346.342,291.504 351.052,316.636 356.679,342.197C370.929,357.077 394.299,375.256 414.009,392.459L441.662,361.298L344.959,267.933ZM351.998,282.715L433.708,361.605C433.708,361.605 413.477,384.402 413.477,384.402C395.408,368.889 375.119,352.85 361.942,339.373C357.716,320.056 354.04,301.004 351.998,282.714L351.998,282.715ZM525.715,297.475C527.233,320.438 524.97,343.546 521.666,366.694C553.614,334.002 586.253,301.118 627.037,265.967C629.885,236.003 630.486,210.896 627.804,192.887L525.715,297.475ZM491.13,309.932L459.51,342.197L373.932,259.817C369.498,235.882 369.133,212.051 372.264,188.311L491.13,309.932ZM662.872,334.682C669.272,307.999 672.627,281.632 672.789,255.599C686.117,241.753 701.194,230.232 715.185,217.601C748.412,187.602 783.12,167.611 817.603,154.299C806.752,186.191 791.263,217.464 774.02,248.503C737.498,279.262 700.312,307.463 662.872,334.682ZM483.091,309.927L459.392,334.109C459.392,334.109 379.255,256.966 379.255,256.966C375.953,238.265 375.195,219.631 376.686,201.055C376.686,201.055 483.091,309.927 483.091,309.927L483.091,309.927ZM326.255,250.118C326.403,276.059 331.092,302.134 337.701,328.266C298.295,302.379 261.265,273.219 225.523,242.287C207.284,210.121 192.292,178.2 181.8,148.98C226.66,162.408 273.935,202.146 326.255,250.118ZM320.538,252.672C320.885,273.487 324.036,294.388 328.71,315.332C294.291,291.853 261.654,265.921 230.033,238.592C214.519,211.147 201.396,183.903 191.466,158.409C231.758,174.251 274.077,210.145 320.538,252.672ZM645.437,247.838C647.625,224.244 647.045,200.649 642.612,177.054C671.074,146.933 698.072,116.136 724.158,84.919C739.192,73.73 755.52,63.993 772.765,55.285C773.622,103.644 754.443,139.238 734.994,161.801C705.877,190.774 675.933,219.417 645.437,247.838ZM354.793,242.287C351.613,204.159 353.933,184.617 358.049,171.139C328.035,140.45 300.298,109.86 275.512,79.399C259.893,66.706 244.048,57.191 228.038,50C226.921,77.886 233.628,102.529 244.534,125.432C251.365,138.306 260.748,152.594 274.008,165.875C299.69,191.599 327.06,216.984 354.793,242.287ZM348.073,228.356C324.044,206.32 300.418,184.196 278.073,161.816C265.304,149.026 256.264,135.262 249.671,122.856C240.345,103.242 234.19,82.317 233.695,59.05C246.399,65.434 258.988,73.428 271.431,83.487C295.584,113.135 322.515,142.906 351.611,172.769C348.476,184.601 346.618,200.983 348.073,228.355L348.073,228.356Z" style="fill:white;"/>
</svg>
