<?xml version="1.0" encoding="UTF-8" standalone="no"?>
<!DOCTYPE svg PUBLIC "-//W3C//DTD SVG 1.1//EN" "http://www.w3.org/Graphics/SVG/1.1/DTD/svg11.dtd">
<svg width="100%" height="100%" viewBox="0 0 1000 1000" version="1.1" xmlns="http://www.w3.org/2000/svg" xmlns:xlink="http://www.w3.org/1999/xlink" xml:space="preserve" xmlns:serif="http://www.serif.com/" style="fill-rule:evenodd;clip-rule:evenodd;stroke-linejoin:round;stroke-miterlimit:2;">
    <g transform="matrix(2.5382,0,0,2.5382,-668.841,-204.112)">
        <path d="M460.5,299.656C463.631,297.499 480.414,285.787 481.299,282.064C481.602,280.789 481.025,279.683 479.891,278.739C487.744,282.741 495.325,289.335 501,298C530.08,293.428 558.059,293.389 584.976,297.098C585.612,307.224 585.809,317.326 585.962,327.426C566.94,313.53 540.53,304.371 502,303L499,307C532.606,310.103 562.776,319.623 589.93,334.772L600,347L588,347L600,360L580,360L593,373L570,372L572,392L540,392L529,405L524,400L520,420L509,400L495,428L473,420L461,429.231L461,430L460.5,429.615L460,430L460,429.231L448,420L426,428L412,400L401,420L397,400L392,405L381,392L349,392L351,372L328,373L341,360L321,360L333,347L321,347L331.07,334.772C358.224,319.623 388.394,310.103 422,307L419,303C380.47,304.371 354.06,313.53 335.038,327.426C335.191,317.326 335.388,307.224 336.024,297.098C362.941,293.389 390.92,293.428 420,298C425.675,289.335 433.256,282.741 441.109,278.739C439.975,279.683 439.398,280.789 439.701,282.064C440.586,285.787 457.369,297.499 460.5,299.656ZM460.5,320.093C445.214,323.01 431.881,333.76 416,333.013C411.161,332.786 406.176,331.854 401,330C406.38,332.171 413.098,333.225 416,338.029C424.375,351.893 432.331,362.841 440.506,371.004L440.5,371C447.167,385.103 453.833,394.587 460.5,401.052C467.167,394.587 473.833,385.103 480.5,371L480.494,371.004C488.669,362.841 496.625,351.893 505,338.029C507.902,333.225 514.62,332.171 520,330C514.824,331.854 509.839,332.786 505,333.013C489.119,333.76 475.786,323.01 460.5,320.093ZM460.5,346.889C472.533,344.242 482.346,345.309 487,355C484.232,361.265 477.219,368.082 475,375C472.031,384.254 468.729,391.871 461,396.439L461,397C460.831,396.91 460.664,396.819 460.5,396.727C460.336,396.819 460.169,396.91 460,397L460,396.439C452.271,391.871 448.969,384.254 446,375C443.781,368.082 436.768,361.265 434,355C438.654,345.309 448.467,344.242 460.5,346.889ZM503,304L501,306C539.175,310.267 563.61,317.594 594.5,336C573.492,317.27 552.242,308.995 503,304ZM418,304L420,306C381.825,310.267 357.39,317.594 326.5,336C347.508,317.27 368.758,308.995 418,304ZM420,293.628L418,296C379.808,290.962 353.081,291.533 318,298C339.816,289.77 359.798,286.602 420,293.628ZM501,293.628L503,296C541.192,290.962 567.919,291.533 603,298C581.184,289.77 561.202,286.602 501,293.628ZM422.837,290.274C396.421,273.893 369.32,264.994 341,261C338.77,271.109 337.309,280.728 336.482,290.762C355.902,287.738 382.234,287.028 421,292C421,292 422.173,291.003 422.837,290.274ZM498.163,290.274C524.579,273.893 551.68,264.994 580,261C582.23,271.109 583.691,280.728 584.518,290.762C565.098,287.738 538.766,287.028 500,292C500,292 498.827,291.003 498.163,290.274ZM427.561,285.771C394.288,268.49 358.681,258.781 320,259C355.844,259.829 390.593,269.031 424,288.545L425.472,287.608C426.153,286.973 426.85,286.361 427.561,285.771ZM493.439,285.771C526.712,268.49 562.319,258.781 601,259C565.156,259.829 530.407,269.031 497,288.545L495.528,287.608C494.847,286.973 494.15,286.361 493.439,285.771ZM461,162.021C477.578,162.541 505.101,171.967 505.033,173.051L505,173.103C505.021,173.089 505.032,173.071 505.033,173.051C516.976,154.2 525.791,138.741 533.542,135C557.762,123.309 595.226,122.193 600,129.036C618.548,155.619 638.148,186.773 637.786,199L631,198L632.913,215L623,207.809L622,216.115C619.578,213.605 616.393,210.99 613.046,208.248C605.524,225.639 597.477,236.498 589,242C597.875,231.979 604.633,219.687 609.319,205.172C603.132,199.986 597.141,194.352 595,188.137C590.176,174.131 575.991,172.283 572.329,172.296C561.494,172.335 549.902,156.763 550,158.809C554.135,161.889 544.283,174.892 535,185.876C535.643,185.633 546.94,194.308 550,200L560,185L565,210L570,205L575,223L595,220L580,245L590,245L585,250L592,253L581.641,259.043C557.254,261.216 539.871,264.674 517.678,273.756C514.976,271.739 510.864,267.321 507,267C511.333,264.733 515.667,263.746 520,263C515.488,261.524 510.918,260.352 506,261C507.392,256.651 509.748,253.913 512,251C501.647,256.997 494.266,264.115 490,272.406C498.675,269.427 508.472,272.869 517.291,273.915C510.607,276.665 499.754,281.455 492.649,285.13C483.816,278.11 473.065,274.552 464.548,274.295C463.062,274.169 461.815,274.142 461,274.215L461,274.5C460.899,274.364 460.697,274.327 460.544,274.292L460.5,274.283C460.233,274.335 460.061,274.408 460,274.5L460,274.215C459.185,274.142 457.938,274.169 456.452,274.295C447.935,274.552 437.184,278.11 428.351,285.13C421.246,281.455 410.393,276.665 403.709,273.915C412.528,272.869 422.325,269.427 431,272.406C426.734,264.115 419.353,256.997 409,251C411.252,253.913 413.608,256.651 415,261C410.082,260.352 405.512,261.524 401,263C405.333,263.746 409.667,264.733 414,267C410.136,267.321 406.024,271.739 403.322,273.756C381.129,264.674 363.746,261.216 339.359,259.043L329,253L336,250L331,245L341,245L326,220L346,223L351,205L356,210L361,185L371,200C374.06,194.308 385.357,185.633 386,185.876C376.717,174.892 366.865,161.889 371,158.809C371.098,156.763 359.506,172.335 348.671,172.296C345.009,172.283 330.824,174.131 326,188.137C323.859,194.352 317.868,199.986 311.681,205.172C316.367,219.687 323.125,231.979 332,242C323.523,236.498 315.476,225.639 307.954,208.248C304.607,210.99 301.422,213.605 299,216.115L298,207.809L288.087,215L290,198L283.214,199C282.852,186.773 302.452,155.619 321,129.036C325.774,122.193 363.238,123.309 387.458,135C395.209,138.741 404.024,154.2 415.967,173.051C415.968,173.071 415.979,173.089 416,173.103L415.967,173.051C415.899,171.967 443.422,162.541 460,162.021L460,162C460.166,162.002 460.333,162.004 460.5,162.008C460.667,162.004 460.834,162.002 461,162L461,162.021Z" style="fill:white;"/>
    </g>
</svg>
