<?xml version="1.0" encoding="UTF-8" standalone="no"?>
<!DOCTYPE svg PUBLIC "-//W3C//DTD SVG 1.1//EN" "http://www.w3.org/Graphics/SVG/1.1/DTD/svg11.dtd">
<svg width="100%" height="100%" viewBox="0 0 1000 1000" version="1.1" xmlns="http://www.w3.org/2000/svg" xmlns:xlink="http://www.w3.org/1999/xlink" xml:space="preserve" xmlns:serif="http://www.serif.com/" style="fill-rule:evenodd;clip-rule:evenodd;stroke-linejoin:round;stroke-miterlimit:2;">
    <g transform="matrix(8.18182,0,0,8.18182,-3468.18,-4163.64)">
        <path d="M457.623,522.297C453.579,528.649 450.445,535.493 448.537,543C470.799,535.37 493.65,529.606 516.938,525.23C530.896,535.21 540,551.55 540,570C540,571.724 539.92,573.43 539.765,575.112C535.696,563.021 529.769,552.076 520.591,543.133C515.231,570.496 507.191,597.265 497.281,623.621C493.334,624.523 489.222,625 485,625C484.869,625 484.739,625 484.605,624.998C487.215,624.935 489.314,622.797 489.314,620.171C489.314,617.506 487.151,615.343 484.486,615.343C481.821,615.343 479.657,617.506 479.657,620.171C479.657,622.768 481.711,624.888 484.281,624.995C474.376,624.868 465.099,622.117 457.112,617.405C466.119,618.261 475.088,617.742 484,615.23C464.87,598.552 447.276,580.196 430.797,560.628C432.072,553.214 434.833,546.306 438.762,540.223C438.736,540.421 438.724,540.623 438.724,540.829C438.724,543.494 440.887,545.657 443.552,545.657C446.217,545.657 448.381,543.494 448.381,540.829C448.381,538.164 446.217,536 443.552,536C442.769,536 442.029,536.187 441.375,536.519C445.79,530.776 451.314,525.928 457.623,522.297ZM497.467,623.578C508.441,597.72 516.75,571.859 521,546C528.577,553.545 534.513,564.045 539.685,575.915C537.179,599.322 519.959,618.357 497.467,623.578ZM430.695,561.242C446.247,581.165 462.947,599.101 481.312,614.151C473.449,616.276 464.576,616.718 455.108,616.165C440.001,606.357 430,589.337 430,570C430,567.019 430.238,564.094 430.695,561.242ZM484.486,615.343L520.591,543.133L448.381,543.133L484.486,615.343ZM484.486,612L517.232,545L451.74,545L484.486,612ZM525.419,536C528.084,536 530.248,538.164 530.248,540.829C530.248,543.494 528.084,545.657 525.419,545.657C522.754,545.657 520.591,543.494 520.591,540.829C520.591,538.164 522.754,536 525.419,536ZM459.928,521.042C467.449,517.18 475.972,515 485,515C496.562,515 507.296,518.576 516.155,524.681C493.225,528.206 471.311,533.481 450.815,541.212C452.596,534.51 455.798,527.784 459.928,521.042Z" style="fill:white;"/>
    </g>
</svg>
