<?xml version="1.0" encoding="UTF-8" standalone="no"?>
<!DOCTYPE svg PUBLIC "-//W3C//DTD SVG 1.1//EN" "http://www.w3.org/Graphics/SVG/1.1/DTD/svg11.dtd">
<svg width="100%" height="100%" viewBox="0 0 1000 1000" version="1.1" xmlns="http://www.w3.org/2000/svg" xmlns:xlink="http://www.w3.org/1999/xlink" xml:space="preserve" xmlns:serif="http://www.serif.com/" style="fill-rule:evenodd;clip-rule:evenodd;stroke-linejoin:round;stroke-miterlimit:2;">
    <g transform="matrix(2.73697,0,0,2.74809,-208.874,-258.473)">
        <path d="M180,253.723C160.284,257.38 143.912,271.302 130,292.782C130.353,244.838 123.057,250.872 121,251.166C109.29,252.837 104.475,304.322 114.594,343C120.218,364.495 130.952,383.567 147.014,392.628C156.932,379.679 156.243,366.82 151,354C146.504,353.26 142.127,354.038 138,358C138.648,360.911 142.814,365.051 144,365C145.186,364.949 143.854,356.721 145.115,357.695C148.068,359.977 149.816,374.088 147,374C144.632,373.926 134.491,364.946 131,356C137.851,348.323 145.643,345.295 155,350C167.663,376.433 163.773,394.076 151,407C118.362,384.589 101.574,358.663 97.217,330C86.668,260.603 108.339,195.719 153,177C142.149,204.902 131.811,232.596 164,243C171.853,245.538 175.854,248.783 180,253.723ZM338,253.723C357.716,257.38 374.088,271.302 388,292.782C387.647,244.838 394.943,250.872 397,251.166C408.71,252.837 413.525,304.322 403.406,343C397.782,364.495 387.048,383.567 370.986,392.628C361.068,379.679 361.757,366.82 367,354C371.496,353.26 375.873,354.038 380,358C379.352,360.911 375.186,365.051 374,365C372.814,364.949 374.146,356.721 372.885,357.695C369.932,359.977 368.184,374.088 371,374C373.368,373.926 383.509,364.946 387,356C380.149,348.323 372.357,345.295 363,350C350.337,376.433 354.227,394.076 367,407C399.638,384.589 416.426,358.663 420.783,330C431.332,260.603 409.661,195.719 365,177C375.851,204.902 386.189,232.596 354,243C346.147,245.538 342.146,248.783 338,253.723ZM258.393,240.146C206.912,241.733 194.118,261.826 209.349,300C204.993,300.53 196.956,316.724 196.956,316.724C196.956,316.724 190.109,300.441 186.919,300C174.593,288.621 168.258,277.242 162.92,265.864C166.278,262.082 182.215,253.974 183.198,256.013C186.186,256.056 184.329,246.051 172.678,242.054C166.056,239.783 162.254,235.638 155,233C164.493,181.937 186.685,145.203 259,145L259.845,145.004C331.487,145.49 353.544,182.136 363,233C355.746,235.638 351.944,239.783 345.322,242.054C333.671,246.051 331.814,256.056 334.802,256.013C335.785,253.974 351.722,262.082 355.08,265.864C349.742,277.242 343.407,288.621 331.081,300C327.577,300.317 320,316.474 320,316.474C320,316.474 312.622,300.314 308.651,300C323.941,261.677 310.987,241.576 259,240.128L258.393,240.146ZM206.165,233.899C211.178,236.848 210.035,239.067 209,239.632C208.149,240.096 205.238,240.995 202,238C167.635,209.43 188.042,184.348 203,178.379C222.182,170.725 240.126,193.309 234.426,210C229.777,223.615 214.302,226.475 204,222.479C192.292,217.937 190.367,198.525 203,191.604C209.293,188.157 222.246,189.803 221.243,204C221.071,206.434 217.818,212.351 209,211C203.8,210.203 203.78,204.244 209,205C215.501,204.382 213.926,199.65 212,198.45C204.35,193.682 199.729,203.277 200.43,209C201.664,219.076 225.256,220.791 228,209C231.914,192.181 217.783,178.824 203.626,185C192.238,189.968 174.189,211.246 206.165,233.899ZM311.835,233.899C306.822,236.848 307.965,239.067 309,239.632C309.851,240.096 312.762,240.995 316,238C350.365,209.43 329.958,184.348 315,178.379C295.818,170.725 277.874,193.309 283.574,210C288.223,223.615 303.698,226.475 314,222.479C325.708,217.937 327.633,198.525 315,191.604C308.707,188.157 295.754,189.803 296.757,204C296.929,206.434 300.182,212.351 309,211C314.2,210.203 314.22,204.244 309,205C302.499,204.382 304.074,199.65 306,198.45C313.65,193.682 318.271,203.277 317.57,209C316.336,219.076 292.744,220.791 290,209C286.086,192.181 300.217,178.824 314.374,185C325.762,189.968 343.811,211.246 311.835,233.899Z" style="fill:white;"/>
    </g>
</svg>
