<?xml version="1.0" encoding="UTF-8" standalone="no"?>
<!DOCTYPE svg PUBLIC "-//W3C//DTD SVG 1.1//EN" "http://www.w3.org/Graphics/SVG/1.1/DTD/svg11.dtd">
<svg width="100%" height="100%" viewBox="0 0 1000 1000" version="1.1" xmlns="http://www.w3.org/2000/svg" xmlns:xlink="http://www.w3.org/1999/xlink" xml:space="preserve" xmlns:serif="http://www.serif.com/" style="fill-rule:evenodd;clip-rule:evenodd;stroke-linejoin:round;stroke-miterlimit:2;">
    <g transform="matrix(1.05921,0,0,1.05921,-29.6034,-40.1955)">
        <path d="M324.371,793.473C314.995,824.252 305.434,852.69 315.728,863.049C321,868.354 323.769,871.58 322.927,872.182C327.248,877.235 321.339,884 311.851,891.363C303.377,889.942 297.782,886.284 293.527,881.585C294.643,867.487 270.137,844.571 243.267,818.321C207.339,802.636 148.187,776.845 148.187,776.845C145.217,773.972 134.194,770.324 132.288,775.044C130.44,779.621 133.664,785.71 146.325,794.759C153.93,800.63 149.48,804.683 138.42,811.788C116.042,797.596 104.541,779.457 100.083,753.847C98,754.07 95.347,753.926 94.128,751.797C89.044,742.917 82.34,727.674 75.154,713.273L140.754,652.16C212.046,651.447 269.336,689.215 326.249,729.165C328.9,731.027 330.035,739.192 332.479,741.354L358.766,731.952L372.993,701.044L896.74,189.957L901.532,169.366C865.716,142.432 824.867,125.581 756.645,163.572C788.458,143.537 833.639,121.516 883.408,130.843C897.61,133.505 911.226,141.825 924.738,154.253C924.778,167.81 926.218,183.462 917.279,187.294C906.493,191.917 898.722,202.717 887.264,209.582C699.549,389.965 510.394,590.54 324.371,793.473ZM759.463,170.245L757.547,167.173C812.242,130.845 856.73,143.997 898.544,170.115L894.943,187.423L890.518,180.329C885.487,176.959 880.456,173.86 875.423,171.063C860.497,184.995 847.809,200.075 832.782,213.94L832.379,214.313C833.009,214.976 833.341,215.713 833.427,216.513C828.963,221.97 826.797,227.008 829.679,231.124C826.381,237.464 824.147,244.039 822.979,250.849L817.537,256.588L813.241,250.009C818.919,243.335 818.011,236.998 813.285,233.045C813.063,232.86 812.839,232.687 812.612,232.528C654.191,378.348 493.463,522.475 336.484,671.179C345.404,677.404 354.463,684.045 363.64,691.058L367.053,699.798L360.317,715.158L355.426,727.321L344.992,732.671L335.044,735.164L331.082,725.22C253.327,667.251 187.457,634.473 143.943,649.08L144.551,646.193L140.521,640.671L142.617,638.475L138.193,631.381L144.06,625.484L144.721,625.75C146.341,624.832 147.984,623.981 149.65,623.198L151.84,618.831C151.139,619.133 150.443,619.445 149.75,619.767L150.876,618.634C151.355,618.425 151.835,618.219 152.318,618.017C171.542,586.83 241.336,498.003 261.54,474.952C262.339,471.485 264.679,469.489 268.562,468.965C277.153,463.167 285.778,457.41 294.452,451.676C298.693,446.929 302.614,442.619 306.15,438.828C305.987,438.53 305.821,438.231 305.654,437.929C308.102,435.239 310.743,433.191 313.684,432.134C325.985,423.585 339.032,414.871 352.728,406.006L353.511,405.161C355.237,402.139 357.825,399.985 361.799,399.227L378.289,389.751C385.654,385.143 393.167,380.502 400.795,375.842L400.842,375.796C400.756,375.634 400.668,375.473 400.579,375.31C402.785,371.699 405.658,369.784 409.17,369.498L451.379,345.489C451.33,345.364 451.281,345.24 451.232,345.115C453.226,342.48 455.542,340.879 458.221,340.45C542.148,292.454 626.657,244.626 712.224,197.115L759.463,170.245ZM331.227,676.161C337.508,680.721 343.837,685.461 350.199,690.351L346.935,693.442C340.477,688.641 334.07,683.989 327.709,679.499L331.227,676.161ZM311.725,663.422L312.292,662.871C318.185,666.856 324.113,671.013 330.078,675.327L326.52,678.66C320.497,674.425 314.529,670.345 308.619,666.439L311.725,663.422ZM783.853,257.792L778.844,254.255C780.808,246.295 780.273,238.921 774.957,236.636C768.805,233.992 763.384,237.241 759.795,243.717L755.393,241.372L753.403,243.248C753.638,250.91 755.152,256.94 757.078,262.445L750.64,268.433L744.5,265.05C745.217,259.363 745.018,255.174 743.895,252.215C736.333,259.345 728.772,266.474 721.226,273.587L721.24,273.614L714.691,281.271L713.666,280.715C580.826,405.95 447.991,531.18 317.121,658.183C323.132,662.049 329.21,666.122 335.351,670.39C484.052,531.231 634.493,395.32 783.853,257.792ZM293.221,651.76L293.992,651.004C299.757,654.575 305.574,658.345 311.435,662.293L307.759,665.871C301.843,661.974 295.986,658.253 290.196,654.727L293.221,651.76ZM704.354,262.025C695.561,270.251 686.766,278.477 677.956,286.715C679.289,289.547 680.324,290.864 681.085,290.788L672.673,299.458L667.659,296.342C543.459,412.453 419.125,528.486 298.396,646.69C304.277,650.119 310.227,653.765 316.241,657.618C446.623,530.835 579.539,405.626 712.604,280.138L709.177,278.278C709.484,270.226 708.258,264.515 704.354,262.025ZM274.622,641.772L275.99,640.426C281.72,643.601 287.503,646.998 293.337,650.599L292.555,651.373L289.561,654.341C283.675,650.767 277.854,647.395 272.109,644.247L274.622,641.772ZM657.129,279.568C664.684,281.686 666.702,287.858 667.007,295.284C542.415,411.661 417.482,527.856 297.698,646.284C291.707,642.805 285.786,639.553 279.942,636.54C391.601,526.81 506.165,420.062 621.48,312.747C621.583,313.861 621.674,314.974 621.789,316.061L627.795,318.909L637.462,311.018C635.406,308.298 633.655,305.564 632.146,302.82C640.479,295.066 648.803,287.319 657.129,279.568ZM257.033,632.597L258.358,631.295C263.975,633.989 269.653,636.928 275.391,640.095L272.574,642.928L271.562,643.947C265.77,640.785 260.055,637.85 254.424,635.164L257.033,632.597ZM621.318,311.159C506.793,417.959 391.113,524.014 279.273,636.196C273.382,633.175 267.569,630.398 261.836,627.878C364.461,527.107 469.976,427.999 575.657,329.013C576.558,331.338 577.243,334.013 577.791,336.91L584.301,339.654L594.078,330.094C590.798,327.017 588.009,323.523 585.552,319.746L595.021,310.878L599.413,311.257L609.209,303.881C608.105,301.913 608.146,300.138 608.915,298.486C618.848,298.962 620.603,304.851 621.318,311.159ZM239.74,625.145L241.153,623.761C246.516,625.874 251.948,628.247 257.444,630.859L256.287,632.01L253.54,634.744C248.011,632.128 242.559,629.752 237.196,627.639L239.74,625.145ZM575.132,327.755C572.914,322.82 569.524,319.786 564.056,320.119C563.234,321.272 563.493,323.62 564.736,327.058L554.701,335.589C552.446,335.207 550.252,334.863 548.085,334.534C549.422,332.006 550.723,329.355 551.863,326.158C546.495,331.225 541.127,336.294 535.775,341.349C538.998,345.701 542.751,349.593 547.356,352.742L536.213,363.19L529.961,361.476C529.218,357.576 528.732,353.571 526.185,350.411C515.748,360.276 505.315,370.145 494.891,380.016C495.316,380.306 495.748,380.594 496.187,380.878L484.804,392.481L482.261,391.983C402.243,467.829 322.621,543.993 244.141,620.834C249.635,622.781 255.213,624.992 260.87,627.455C363.688,525.358 469.342,426.462 575.132,327.755ZM223.366,620.054L225.211,618.197C230.2,619.701 235.263,621.462 240.391,623.462L239.109,624.73L236.462,627.351C231.337,625.352 226.293,623.593 221.34,622.094L223.366,620.054ZM158.517,616.296L157.348,620.097C154.934,620.913 152.563,621.855 150.236,622.925L152.394,618.595C154.41,617.744 156.451,616.979 158.517,616.296ZM208.895,616.733L210.955,614.571C215.138,615.428 219.375,616.487 223.664,617.738L219.777,621.629C215.527,620.385 211.341,619.334 207.224,618.488L208.895,616.733ZM470.571,377.971L466.787,381.61C467.078,382.248 467.403,382.919 467.765,383.627L456.125,394.2C455.137,394.411 454.176,394.568 453.27,394.616C449.911,397.85 446.552,401.085 443.184,404.331C445.357,405.807 447.664,407.131 450.127,408.281L437.121,419.744L430.811,419.907C430.606,418.894 430.363,417.913 430.076,416.97C362.534,482.145 294.807,548.216 227.664,615.73C232.806,617.082 238.031,618.692 243.335,620.55C321.509,543.262 400.936,467.282 480.766,391.69L478.681,391.281C477.145,386.152 475.506,381.084 470.571,377.971ZM168.591,613.659C167.939,614.789 167.717,616.18 167.353,617.464C164.272,618.056 161.248,618.828 158.287,619.786L160,615.822C162.82,614.95 165.685,614.231 168.591,613.659ZM197.411,612.501C196.22,613.819 195.035,615.133 193.851,616.447C197.847,616.832 201.919,617.438 206.061,618.254L207.748,616.455L209.745,614.329C205.576,613.512 201.465,612.899 197.411,612.501ZM261.338,476.108C217.216,529.067 185.834,571.858 152.989,617.739C154.935,616.943 156.902,616.216 158.891,615.556C192.13,573.248 233.309,522.759 266.514,483.804C265.134,481.506 263.396,479.032 261.306,476.387C261.316,476.293 261.326,476.2 261.338,476.108ZM169.464,613.492L168.004,617.341C171.693,616.663 175.467,616.238 179.326,616.055C179.902,614.736 180.383,613.322 181.159,612.106C177.19,612.323 173.29,612.781 169.464,613.492ZM182.393,612.047C181.522,613.248 180.954,614.682 180.265,616.015C184.345,615.864 188.514,615.979 192.77,616.348C193.943,615.029 195.117,613.711 196.289,612.396C191.571,611.979 186.937,611.856 182.393,612.047ZM429.568,415.465C427.718,410.524 424.437,406.816 418.699,405.221C418.281,406.87 418.833,409.152 422.28,413.324L410.34,424.816L404.364,426.313C404.89,423.835 405.34,421.18 405.526,417.911C401.631,421.754 397.738,425.599 393.838,429.453C397.15,432.04 400.637,434.466 404.324,436.712L391.448,448.691L385.085,448.645C384.244,445.866 383.104,443.371 381.858,441.302L379.429,443.707L379.683,443.983L367.433,456.35L366.422,456.604C363.293,459.71 360.166,462.817 357.041,465.925C358.027,466.309 359.024,466.652 360.035,466.954L345.424,480.46L341.454,481.455C298.071,524.755 255.077,568.348 212.904,612.529C217.233,613.259 221.626,614.192 226.08,615.321C293.174,548.223 361.127,481.652 429.568,415.465ZM267.389,485.324C230.324,528.814 195.06,571.875 160.506,615.037C163.377,614.143 166.292,613.387 169.247,612.768C196.478,580.499 232.062,539.609 270.283,496.783C270.888,493.731 269.903,489.902 267.389,485.324ZM270.966,498.391C237.487,536.208 204.349,574.024 170.066,612.6C173.992,611.812 177.993,611.261 182.066,610.94C212.534,577.056 243.369,542.408 275.627,507.061C274.37,504.432 272.841,501.563 270.966,498.391ZM332.219,469.155L332.002,469.38C332.209,471.419 333.977,474.026 337.376,477.227L319.453,492.985C319.648,489.913 319.497,486.55 318.963,482.866C314.992,486.981 311.027,491.099 307.061,495.226C310.234,496.593 313.78,497.77 317.795,498.708L302.517,511.994L297.537,513.243L295.656,512.073C295.392,510.669 294.965,509.454 294.426,508.408L293.302,509.584C293.875,510.676 294.268,511.889 294.399,513.209L281.414,524.94C281.276,524.151 281.125,523.352 280.956,522.537C253.22,551.718 225.802,581.119 198.888,610.868C203.071,611.143 207.32,611.63 211.634,612.32C253.46,567.877 296.491,524.07 340.115,480.579C338.353,474.758 335.964,470.665 332.219,469.155ZM276.213,508.312C248.06,539.344 218.405,572.478 183.425,610.841C188.096,610.532 192.861,610.521 197.718,610.796C224.88,580.394 252.619,550.57 280.648,521.124C279.791,517.398 278.495,513.288 276.213,508.312ZM293.806,507.347L292.672,508.531C290.254,504.951 285.948,502.938 283.495,503.09C284.155,501.992 290.421,502.22 293.806,507.347ZM314.681,466.304C308.075,473.43 301.484,480.595 294.854,487.843C298.009,490.411 301.616,492.75 305.935,494.726C310.198,490.303 314.465,485.886 318.744,481.468C317.98,476.91 316.647,471.873 314.681,466.304ZM312.104,452.176C303.468,461.813 294.893,471.429 286.362,481.031C286.868,481.105 287.386,481.162 287.918,481.201C289.773,483.242 291.75,485.22 293.946,487.088C300.652,479.815 307.426,472.512 314.278,465.18C313.645,463.439 312.951,461.648 312.195,459.804C313.154,458.063 313.041,455.453 312.104,452.176ZM308.584,443.499C304.691,446.013 300.79,448.54 296.879,451.081C289.7,459.329 282.595,467.556 275.558,475.766C278.118,478.061 281.05,479.851 284.673,480.708C293.593,470.771 302.617,460.775 311.676,450.799C310.942,448.605 309.89,446.155 308.584,443.499ZM292.367,454.017C284.8,458.946 277.194,463.932 269.555,468.972C271.073,470.976 272.639,472.915 274.365,474.636C280.786,467.175 286.829,460.249 292.367,454.017ZM360.959,439.603C355.062,445.647 349.171,451.695 343.293,457.743C347.183,460.845 351.227,463.43 355.49,465.286C358.163,462.633 360.839,459.981 363.513,457.333L361.457,457.848C362.38,452.296 362.076,446.147 360.959,439.603ZM358.241,420.204C349.426,429.335 340.818,438.377 332.318,447.412C335.608,450.936 338.974,454.208 342.464,457.072C348.552,450.831 354.644,444.601 360.741,438.376C359.943,434.047 358.805,429.551 357.446,424.948C358.008,423.363 358.25,421.782 358.241,420.204ZM306.699,439.84C304.102,442.802 301.516,445.76 298.939,448.716C302.018,446.688 305.1,444.665 308.166,442.659C307.705,441.742 307.215,440.802 306.699,439.84ZM356.649,412.848C349.588,417.296 342.506,421.781 335.403,426.303C330.856,431.326 326.332,436.34 321.835,441.339C325.299,444.716 328.576,446.571 331.643,446.718C340.355,437.516 349.198,428.272 358.187,418.989C358.015,416.938 357.45,414.892 356.649,412.848ZM381.036,440.018L378.434,442.584C374.059,437.497 373.968,435.155 374.65,435.158C376.238,434.76 378.738,436.654 381.036,440.018ZM332.098,428.41C327.47,431.361 322.833,434.329 318.188,437.313C319.146,438.489 320.092,439.56 321.024,440.524C324.715,436.476 328.408,432.436 332.098,428.41ZM348.908,410.137C337.367,417.605 325.974,425.122 314.731,432.706C315.686,434.075 316.63,435.352 317.562,436.533C323.349,432.773 329.148,429.028 334.939,425.31C339.608,420.223 344.266,415.162 348.908,410.137ZM404.04,395.598C396.57,403.21 389.103,410.824 381.635,418.452C385.093,422.019 388.764,425.393 392.687,428.541C396.99,424.308 401.296,420.076 405.605,415.846C405.702,411.029 405.24,404.912 403.746,396.391C403.851,396.129 403.949,395.864 404.04,395.598ZM353.097,407.433L351.783,408.28C347.225,413.274 342.694,418.257 338.191,423.225C344.184,419.385 350.19,415.561 356.199,411.755C355.51,410.157 354.693,408.561 353.824,406.965L353.097,407.433ZM403.991,383.356C395.768,388.424 387.519,393.535 379.244,398.692C375.888,402.091 372.571,405.468 369.294,408.823C372.176,412.021 374.925,414.011 377.441,413.921C378.59,415.221 379.764,416.499 380.963,417.754L388.548,410.028C391.317,407.209 394.086,404.389 396.855,401.57L404.566,393.719C405.271,390.488 405.044,387.025 403.991,383.356ZM376.062,400.676C373.091,402.53 370.116,404.391 367.142,406.255C367.67,406.926 368.194,407.565 368.715,408.167C371.153,405.673 373.602,403.176 376.062,400.676ZM396.13,380.481L392.543,382.541C382.704,388.631 372.943,394.755 363.271,400.917C364.327,402.468 365.375,403.945 366.411,405.308C370.843,402.519 375.281,399.736 379.726,396.96C385.14,391.478 390.606,385.985 396.13,380.481ZM443.494,380.508C440.292,383.659 437.09,386.81 433.888,389.961L430.865,392.938C434.16,396.908 437.812,400.478 441.97,403.48C445.07,400.487 448.171,397.494 451.269,394.506C451.14,394.481 451.012,394.452 450.887,394.419C452.334,388.489 453.545,382.149 452.41,371.738L443.494,380.508ZM401.625,377.326L399.148,378.748C393.638,384.211 388.247,389.603 382.945,394.951C389.821,390.664 396.71,386.393 403.614,382.136C403.093,380.568 402.428,378.964 401.625,377.326ZM453.802,352.967C447.301,356.896 440.787,360.846 434.265,364.816C428.883,370.296 423.501,375.776 418.129,381.247C420.167,383.322 422.529,384.842 425.364,385.504C426.842,387.724 428.39,389.866 430.026,391.909C437.423,384.669 444.824,377.432 452.228,370.195C452.013,368.495 451.737,366.689 451.393,364.762C454.461,363.31 455.375,359.499 453.802,352.967ZM430.91,366.859C425.505,370.154 420.091,373.464 414.659,376.797C415.532,378.162 416.467,379.43 417.483,380.559C421.962,375.993 426.438,371.427 430.91,366.859ZM469.219,377.211L466.157,380.159C465.449,378.435 464.998,376.961 464.706,375.644C466.433,376.034 467.924,376.564 469.219,377.211ZM504.671,345.218C496.907,352.67 489.136,360.131 481.362,367.6C484.804,371.763 488.824,375.716 493.86,379.297C504.36,369.364 514.867,359.438 525.38,349.512C523.492,347.614 520.682,346.095 516.355,345.199C515.908,346.407 516.28,348.858 517.791,353.042L507.387,362.212L500.784,363.32C502.649,357.79 504.027,351.829 504.671,345.218ZM445.069,352.38L411.736,371.52C412.454,372.982 413.206,374.401 414.007,375.742C420.804,371.572 427.612,367.415 434.416,363.279L438.291,359.318C439.667,357.909 441.044,356.501 442.42,355.092L445.069,352.38ZM412.601,368.67L410.854,369.675L410.872,369.716L412.601,368.67ZM448.906,348.448C438.825,354.42 428.801,360.416 418.844,366.444L447.31,350.085L448.906,348.448ZM505.464,322.005C504.183,322.768 502.901,323.531 501.619,324.293L499.131,325.776C489.402,335.354 479.669,344.929 469.926,354.51C471.057,355.402 472.333,356.223 473.785,356.963C475.822,360.184 477.977,363.363 480.419,366.436C488.563,358.607 496.711,350.784 504.861,342.969C505.067,340.05 505.131,337.006 505.034,333.818C508.121,332.691 509.693,329.168 508.007,320.493L505.464,322.005ZM452.375,348.185L448.289,350.531C444.785,354.101 441.281,357.671 437.784,361.232C443.011,358.059 448.244,354.893 453.484,351.732C453.18,350.622 452.811,349.44 452.375,348.185ZM495.409,327.994C484.909,334.256 474.384,340.561 463.82,346.923C465.105,349.42 466.743,351.749 469.037,353.769C477.833,345.176 486.623,336.586 495.409,327.994ZM450.937,347.833L451.897,346.854C451.958,347.019 452.018,347.183 452.077,347.345L450.56,348.217L450.937,347.833ZM506.592,317.053L461.969,342.676C462.37,343.745 462.802,344.801 463.284,345.831C475.152,338.698 487.047,331.595 498.973,324.509C501.515,322.022 504.055,319.537 506.592,317.053ZM506.642,314.826C491.464,323.535 476.372,332.282 461.395,341.081L461.662,341.837L506.916,315.829C506.828,315.501 506.737,315.166 506.642,314.826ZM560.027,292.123C548.176,303.49 536.304,314.873 524.4,326.291C525.49,327.158 526.709,327.929 528.071,328.591C530.177,332.713 532.446,336.694 535.065,340.371C540.926,334.84 546.787,329.311 552.645,323.786C553.962,319.451 554.982,314.114 555.465,306.96C560.345,306.192 561.367,300.625 560.027,292.123ZM559.65,289.969C545.549,298.264 531.425,306.599 517.257,315.001C518.467,319.046 520.347,322.583 523.278,325.323C535.415,313.705 547.574,302.084 559.744,290.47C559.713,290.304 559.682,290.137 559.65,289.969ZM505.939,319.071L507.382,317.649C507.52,318.216 507.646,318.763 507.761,319.293L506.357,320.125L502.613,322.347L505.939,319.071ZM608.552,272.695C597.681,282.94 586.81,293.188 575.937,303.443C576.477,303.916 577.048,304.329 577.652,304.681C579.801,309.563 582.127,314.294 584.867,318.672L593.374,310.736L592.922,310.697C597.092,304.812 600.65,296.481 603.312,284.578C607.401,284.62 608.767,280.008 608.552,272.695ZM634.547,244.882C605.926,260.773 577.531,276.628 549.469,292.433L515.994,311.655C516.149,311.703 516.303,311.757 516.456,311.815C516.601,312.509 516.76,313.191 516.936,313.86C556.028,290.739 595.299,267.83 634.547,244.882ZM617.884,252.056C582.637,271.759 547.417,291.484 512.633,311.393C512.943,311.349 513.251,311.323 513.557,311.315C540.623,295.793 567.175,280.786 593.354,266.154L617.884,252.056ZM807.444,154.935C727.322,198.835 645.577,242.602 567.961,286.717C568.317,286.835 568.672,286.982 569.026,287.156C570.122,294.061 572.048,299.397 575.09,302.624C586.216,292.136 597.351,281.64 608.486,271.142C608.44,270.312 608.376,269.451 608.296,268.563C610.476,266.806 612.563,266.108 614.495,266.28C680.673,227.937 750.063,191.231 818.894,154.249C815.075,154.223 811.258,154.446 807.444,154.935ZM657.329,252.5C655.448,262.602 653.018,265.798 650.268,264.972C647.109,274.675 642.793,282.449 637.781,289.063L643.701,290.26C639.639,294.057 635.578,297.852 631.514,301.645C628.463,295.831 626.455,289.971 624.891,284.091C624.611,283.963 624.339,283.822 624.076,283.666C635.152,273.291 646.243,262.897 657.329,252.5ZM702.174,237.6C700.988,243.854 698.315,246.251 694.948,246.846C690.196,256.703 685.212,264.181 680.04,269.722L686.918,271.826C691.205,262.372 695.463,259.498 701.65,260.916C702.212,261.045 702.738,261.216 703.229,261.429C694.63,269.473 686.028,277.513 677.427,285.549C675.71,281.625 673.546,275.432 670.892,266.753C681.321,257.04 691.747,247.326 702.174,237.6ZM805.243,155.246C800.334,156.005 795.427,157.208 790.522,158.886C750.59,180.819 710.684,202.749 671.105,224.63C637.406,244.408 603.804,264.025 570.108,283.82C647.353,240.742 726.209,197.997 805.243,155.246ZM820.993,154.289C752.275,191.344 683.182,228.043 616.174,266.659C616.856,266.909 617.514,267.271 618.145,267.736C618.229,275.39 619.903,280.443 623.105,282.996C634.631,272.238 646.139,261.492 657.64,250.738C657.733,250.182 657.824,249.61 657.914,249.018C659.087,248.627 660.167,248.395 661.149,248.336L830.144,155.035C827.093,154.634 824.042,154.382 820.993,154.289ZM655.523,279.195L654.85,279.826C655.038,279.609 655.227,279.392 655.415,279.175L655.523,279.195ZM742.804,226.018C733.593,234.652 724.378,243.283 715.163,251.91C715.985,258.817 717.31,265.706 720.681,272.521C728.254,265.379 735.824,258.239 743.395,251.096C742.444,249.265 741.045,248.01 739.198,247.239C733.881,245.022 729.381,247.526 724.584,255.277L717.705,253.173C724.719,246.997 730.033,240.311 735.01,233.523C738.86,233.133 741.213,230.307 742.804,226.018ZM831.193,155.179C834.25,155.616 837.308,156.202 840.367,156.931L707.306,231.455C706.077,231.55 704.57,232.152 702.698,233.419C702.66,233.942 702.615,234.446 702.563,234.932C691.808,245.105 681.031,255.258 670.248,265.384C667.059,263.409 665.535,258.133 665.53,249.844C664.823,249.107 663.956,248.647 662.941,248.443L831.193,155.179ZM862.904,164.753C866.718,166.472 870.529,168.381 874.34,170.466C859.66,184.252 846.423,200.016 831.657,213.675L831.653,213.679C830.913,213.134 829.925,212.652 828.652,212.241C823.516,219.876 819.391,220.758 815.61,219.338C808.951,223.951 801.651,228.125 792.627,231.114L798.528,235.65C803.478,231.204 807.994,229.907 811.805,232.021C804.52,238.747 797.233,245.466 789.946,252.179C788.198,245.653 787.391,238.487 788.625,229.929C785.204,225.347 785.675,219.537 788.113,213.105C787.865,212.466 787.55,211.946 787.171,211.539L862.904,164.753ZM841.677,157.252C844.862,158.052 848.049,159.006 851.237,160.104L747.458,220.288C746.529,220.338 745.438,220.681 744.143,221.391C743.965,222.168 743.776,222.918 743.573,223.638C733.957,232.66 724.333,241.678 714.706,250.689C710.34,245.603 709.997,239.922 711.31,233.995C710.753,232.967 710.066,232.177 709.172,231.763L841.677,157.252ZM852.676,160.61L748.965,220.498C750,220.876 750.772,221.728 751.39,222.856C748.929,229.467 749.432,235.01 753.396,239.306C753.375,240.114 753.368,240.906 753.374,241.681C757.238,238.035 761.104,234.387 764.97,230.738C767.537,227.868 769.988,224.946 772.342,221.979C777.041,219.839 780.189,215.637 782.729,210.626C784.091,210.296 785.243,210.338 786.165,210.788L861.445,164.104C858.52,162.823 855.596,161.656 852.676,160.61ZM718.473,195.598C710.908,199.887 703.326,204.17 695.749,208.439L649.089,235.231C659.506,229.491 669.878,223.796 680.221,218.133C692.991,210.635 705.744,203.126 718.473,195.598ZM760.61,172.084C758.273,173.35 755.934,174.62 753.602,175.887C738.109,185.124 722.672,194.27 707.281,203.349C725.473,193.431 743.585,183.594 761.671,173.786L760.61,172.084ZM786.209,160.485C779.358,163.222 772.513,166.904 765.673,171.616L772.785,167.761C775.619,166.225 778.453,164.688 781.287,163.152L786.209,160.485Z" style="fill:white;"/>
    </g>
</svg>
