<?xml version="1.0" encoding="UTF-8" standalone="no"?>
<!DOCTYPE svg PUBLIC "-//W3C//DTD SVG 1.1//EN" "http://www.w3.org/Graphics/SVG/1.1/DTD/svg11.dtd">
<svg width="100%" height="100%" viewBox="0 0 1000 1000" version="1.1" xmlns="http://www.w3.org/2000/svg" xmlns:xlink="http://www.w3.org/1999/xlink" xml:space="preserve" xmlns:serif="http://www.serif.com/" style="fill-rule:evenodd;clip-rule:evenodd;stroke-linejoin:round;stroke-miterlimit:2;">
    <g transform="matrix(3.69417,0,0,3.69417,-1383.34,-1654.9)">
        <path d="M596.02,542.953C608.639,548.097 617.942,555.157 619.744,565.237C619.789,565.489 619.877,565.722 620.001,565.93C621.307,572.817 621.99,579.918 621.99,587.178C621.99,649.446 571.76,700 509.892,700C448.024,700 397.795,649.446 397.795,587.178C397.795,580.273 398.412,573.511 399.596,566.944C399.661,566.95 399.728,566.954 399.795,566.954C400.944,566.954 401.878,566.02 401.878,564.87C401.878,556.982 408.323,550.945 417.94,546.086C419.87,545.111 421.927,544.188 424.092,543.316L429.88,556.821C429.936,556.951 430.005,557.076 430.086,557.192C431.296,558.925 433.312,560.318 436.273,561.204C440.065,562.338 445.582,562.679 452.964,562.076C453.02,562.072 453.076,562.065 453.131,562.056C491.908,555.709 530.684,555.759 569.461,562.056C569.564,562.073 569.668,562.082 569.773,562.083C576.86,562.156 583.66,561.518 589.629,558.909C590.155,558.679 590.564,558.241 590.757,557.7L596.02,542.953ZM582.081,641.152C558.04,667.206 534.04,680.358 509.999,680.383C485.959,680.409 461.96,667.308 437.92,641.154C437.453,640.646 436.662,640.613 436.154,641.08C435.646,641.547 435.613,642.338 436.08,642.846C460.707,669.639 485.374,682.909 510.001,682.883C534.627,682.857 559.293,669.535 583.919,642.848C584.387,642.341 584.355,641.549 583.848,641.081C583.341,640.613 582.549,640.645 582.081,641.152ZM509.892,604C509.892,604 496,633.173 496,645.676C496,653.343 502.225,659.568 509.892,659.568C517.559,659.568 523.784,653.343 523.784,645.676C523.784,633.173 509.892,604 509.892,604ZM396.539,577.359C389.269,589.878 386.86,600.567 388.484,609.736C390.107,618.906 395.764,626.557 404.627,633C396.251,615.117 392.954,596.64 396.539,577.359ZM623.088,577.359C630.358,589.878 632.767,600.567 631.143,609.736C629.52,618.906 623.863,626.557 615,633C623.376,615.117 626.673,596.64 623.088,577.359ZM457,580C470.798,580 482,591.202 482,605C482,618.798 470.798,630 457,630C443.202,630 432,618.798 432,605C432,591.202 443.202,580 457,580ZM564,580C577.798,580 589,591.202 589,605C589,618.798 577.798,630 564,630C550.202,630 539,618.798 539,605C539,591.202 550.202,580 564,580ZM457,589.386C465.618,589.386 472.614,596.382 472.614,605C472.614,613.618 465.618,620.614 457,620.614C448.382,620.614 441.386,613.618 441.386,605C441.386,596.382 448.382,589.386 457,589.386ZM564,589.386C572.618,589.386 579.614,596.382 579.614,605C579.614,613.618 572.618,620.614 564,620.614C555.382,620.614 548.386,613.618 548.386,605C548.386,596.382 555.382,589.386 564,589.386ZM428.128,541.789C453.1,532.917 489.547,529.866 512.107,530.123C533.543,530.367 566.477,532.63 590.552,540.908C591.086,541.092 591.616,541.278 592.141,541.468L587.142,555.432C581.935,557.505 576.068,557.972 569.975,557.918C530.829,551.578 491.686,551.533 452.543,557.93C445.882,558.469 440.896,558.238 437.467,557.212C435.695,556.682 434.395,555.971 433.618,554.964C433.617,554.962 429.452,544.941 428.128,541.789ZM473.887,480.312C462.515,495.311 458.233,510.403 457.78,530.267C442.124,532.884 427.063,536.809 416.062,542.367C410.968,544.94 406.738,547.883 403.629,551.188C414.76,517.931 440.88,491.588 473.887,480.312ZM545.846,480.295C578.598,491.464 604.577,517.468 615.868,550.339C610.113,544.76 601.743,540.35 591.907,536.968C583.119,533.946 573.171,531.707 563.02,530.066C563.777,511.656 557.87,495.903 545.846,480.295ZM478.145,478.953C488.215,475.961 498.869,474.356 509.892,474.356C520.89,474.356 531.521,475.954 541.569,478.932C554.666,494.906 561.232,510.85 560.532,529.677C543.19,527.045 525.486,526.108 512.154,525.956C498.16,525.797 478.936,526.918 460.291,529.859C460.821,509.544 465.51,494.359 478.145,478.953ZM525.696,474.471C515.319,472.311 504.942,472.345 494.565,474.471C499.785,469.25 505.028,466.606 510.295,466.649C515.406,466.691 520.539,469.264 525.696,474.471Z" style="fill:white;"/>
    </g>
</svg>
