<?xml version="1.0" encoding="UTF-8" standalone="no"?>
<!DOCTYPE svg PUBLIC "-//W3C//DTD SVG 1.1//EN" "http://www.w3.org/Graphics/SVG/1.1/DTD/svg11.dtd">
<svg width="100%" height="100%" viewBox="0 0 1000 1000" version="1.1" xmlns="http://www.w3.org/2000/svg" xmlns:xlink="http://www.w3.org/1999/xlink" xml:space="preserve" xmlns:serif="http://www.serif.com/" style="fill-rule:evenodd;clip-rule:evenodd;stroke-linejoin:round;stroke-miterlimit:2;">
    <g transform="matrix(1.48699,0,0,1.48699,-340.3,-166.937)">
        <path d="M420,750C453.054,747.038 533.966,684.033 531.194,452.945C530.698,411.575 545.35,252.983 620,215.701C645.822,202.805 637.489,143.298 592.945,145.978C544.408,148.897 445.475,232.229 462.703,468.1C470.076,569.04 450.339,670.802 385.113,660C390.097,666.36 400.203,706.208 390,750C400.969,751.618 404.199,751.416 420,750ZM539.31,446.633C539.266,448.928 539.258,451.006 539.28,452.848C540.975,594.188 511.49,673.742 480.729,715.506C472.783,726.293 464.673,734.655 456.87,741C535.666,733.702 565.625,637.233 576.735,572.122C592.438,480.095 633.134,408.614 729.778,380C755.537,372.373 749.317,297.107 707.145,300C644.668,304.286 589.753,328.939 539.31,446.633ZM616.446,338.063C654.328,353.922 583.871,483.377 543.496,470.405C543.534,464.649 543.518,458.778 543.446,452.798C543.427,451.215 543.432,449.452 543.462,447.525L543.462,447.524C566.757,393.378 590.962,359.344 616.446,338.063ZM521.748,198.772C544.022,203.598 540.532,240.145 526.719,274.587C512.977,308.852 489.016,341.035 470.04,337.826C479.108,274.026 499.109,228.878 521.748,198.772Z" style="fill:white;"/>
    </g>
</svg>
