<?xml version="1.0" encoding="UTF-8" standalone="no"?>
<!DOCTYPE svg PUBLIC "-//W3C//DTD SVG 1.1//EN" "http://www.w3.org/Graphics/SVG/1.1/DTD/svg11.dtd">
<svg width="100%" height="100%" viewBox="0 0 1000 1000" version="1.1" xmlns="http://www.w3.org/2000/svg" xmlns:xlink="http://www.w3.org/1999/xlink" xml:space="preserve" xmlns:serif="http://www.serif.com/" style="fill-rule:evenodd;clip-rule:evenodd;stroke-linejoin:round;stroke-miterlimit:2;">
    <g transform="matrix(5.88235,0,0,5.88235,-2508.82,-3070.59)">
        <path d="M511.649,594.961C514.73,596.95 517.687,599.36 520.574,602.012L520.713,602.14C521.09,602.566 521.456,603.001 521.811,603.446L526.423,608.827L521.425,620L516.116,613.39C514.939,611.164 513.404,609.157 511.587,607.446L511.5,607.365L511.489,607.375C508.624,605.293 505.687,603.351 502.366,602.168L502.287,602.14C500.289,601.566 498.18,601.258 496,601.258C494.741,601.258 493.506,601.361 492.301,601.558L494.776,607.788L487.764,615.41L483.58,604.951C477.404,608.988 473.307,615.947 473.259,623.859L473.271,624.019C473.535,627.34 474.402,630.622 475.539,633.886L475.594,634.044C479.306,641.564 487.053,646.742 496,646.742C497.013,646.742 498.01,646.675 498.988,646.547C501.634,649.456 504.793,652.124 508.291,654.631C504.492,656.159 500.343,657 496,657C481.275,657 468.789,647.334 464.547,634.008L464.502,633.851C463.566,630.568 463.003,627.284 463,624L463,623.856C463.053,611.622 469.776,600.951 479.718,595.296L465.6,560L474.6,557L488.452,591.869C490.875,591.301 493.403,591 496,591C501.601,591 506.877,592.398 511.5,594.865L511.649,594.961ZM500.649,622.733C502.082,625.413 503.651,628.103 505.293,630.797C506.485,634.603 508.652,637.98 511.5,640.635L511.617,640.724C514.072,642.588 516.92,644.348 520.713,645.86L520.807,645.887C522.777,646.444 524.854,646.742 527,646.742C535.148,646.742 542.3,642.447 546.317,636L557.747,636C552.942,648.288 540.98,657 527,657C521.443,657 516.205,655.624 511.608,653.193L511.5,653.135C508.206,651.042 505.028,648.801 502.35,645.928L502.287,645.86C500.162,643.46 498.381,640.749 497.021,637.803C496.541,636.931 496.066,636.003 495.6,635L493.68,630.2L500.649,622.733ZM530.435,603.732C533.319,604.294 536.495,605.686 539.046,607.384L528,635C526.711,637.77 525.364,639.964 524,642L523.733,641.882C523.296,642.558 522.835,643.217 522.351,643.857C519.217,642.563 516.549,641.024 514.362,639.234L522.028,623L527.782,610.412L530.435,603.732ZM435,634L435,624L460.522,624C460.643,627.503 461.181,630.804 461.939,634L435,634ZM588,624L588,634L545.916,634C539.988,633.767 536.173,632.827 532.467,629.576L536.406,620.386C538.426,622.213 540.99,623.129 545.5,623.58L545.5,624L588,624ZM500.598,604.135C503.817,605.449 506.846,607.182 509.754,609.182C509.637,609.318 509.521,609.456 509.407,609.595L492.601,627.505L492.58,627.452L491.583,628.59C487.799,632.373 484.1,633.585 478.346,633.937C476.994,630.557 476.007,627.022 475.917,623.715C481.769,623.298 484.696,622.304 487,620L500.598,604.135ZM514.051,593.642C518.028,591.941 522.405,591 527,591C529.792,591 532.504,591.348 535.095,592.002L535.244,592.034C538.364,592.707 541.184,593.928 543.769,595.578L543.876,595.642C552.991,601.081 559.269,610.791 559.94,622L549.654,622C549.053,615.117 545.382,609.11 540.02,605.357L539.893,605.268C537.443,603.472 534.61,602.287 531.412,601.686L531.259,601.658C529.88,601.396 528.456,601.258 527,601.258C526.076,601.258 525.166,601.314 524.271,601.421C520.949,598.438 517.57,595.718 514.051,593.642ZM535.96,589.825L549,557L558,560L544.66,593.351C541.975,591.788 539.085,590.596 535.96,589.825Z" style="fill:white;"/>
    </g>
</svg>
