<?xml version="1.0" encoding="UTF-8" standalone="no"?>
<!DOCTYPE svg PUBLIC "-//W3C//DTD SVG 1.1//EN" "http://www.w3.org/Graphics/SVG/1.1/DTD/svg11.dtd">
<svg width="100%" height="100%" viewBox="0 0 1000 1000" version="1.1" xmlns="http://www.w3.org/2000/svg" xmlns:xlink="http://www.w3.org/1999/xlink" xml:space="preserve" xmlns:serif="http://www.serif.com/" style="fill-rule:evenodd;clip-rule:evenodd;stroke-linejoin:round;stroke-miterlimit:2;">
    <g transform="matrix(4.5,0,0,4.5,-1930,-1808.5)">
        <path d="M584.328,423.352C617.31,439.709 640,473.726 640,513C640,568.192 595.192,613 540,613C484.808,613 440,568.192 440,513C440,457.808 484.808,413 540,413C548.317,413 556.399,414.018 564.119,415.934C543.006,438.279 538.634,462.953 550,489.815C559.879,507.726 555.99,522.668 540,535C538.539,548.807 543.205,553.473 554,549C573.206,534.67 580.764,514.719 570.984,486.401C557.066,457.399 565.239,438.002 584.328,423.352ZM536.006,553.898C538.34,555.623 534.719,569.714 534.719,569.714C534.719,569.714 545.774,579.171 544.855,581.923C543.935,584.676 529.415,585.586 529.415,585.586C529.415,585.586 523.837,599.023 520.935,598.999C518.033,598.975 512.68,585.447 512.68,585.447C512.68,585.447 498.177,584.294 497.304,581.527C496.43,578.76 507.642,569.488 507.642,569.488C507.642,569.488 504.256,555.339 506.618,553.653C508.98,551.967 521.262,559.765 521.262,559.765C521.262,559.765 533.673,552.173 536.006,553.898Z" style="fill:white;"/>
    </g>
</svg>
