<?xml version="1.0" encoding="UTF-8" standalone="no"?>
<!DOCTYPE svg PUBLIC "-//W3C//DTD SVG 1.1//EN" "http://www.w3.org/Graphics/SVG/1.1/DTD/svg11.dtd">
<svg width="100%" height="100%" viewBox="0 0 1000 1000" version="1.1" xmlns="http://www.w3.org/2000/svg" xmlns:xlink="http://www.w3.org/1999/xlink" xml:space="preserve" xmlns:serif="http://www.serif.com/" style="fill-rule:evenodd;clip-rule:evenodd;stroke-linejoin:round;stroke-miterlimit:2;">
    <g transform="matrix(2.92782,0,0,2.92782,-1216.02,-1315.73)">
        <path d="M588.81,523.284C586.692,524.908 585.043,527.473 584.714,532.226C584.462,535.859 579.942,537.695 576.606,539.638C544.139,556.744 529.838,571.391 523.503,584.961C521.249,590.75 516.314,593.996 508.701,594.698C509.893,596.14 511.397,597.771 513.352,600.727C488.295,605.195 467.846,618.196 451.719,639.197C448.707,642.857 445.946,646.247 443.006,645.077C437.075,642.717 434.596,646.518 432.409,648.656C436.443,655.373 439.659,658.282 443.196,655.959C445.244,654.614 446.7,657.693 446.902,659.694C448.772,666.625 452.378,671.143 456.311,675.205L450.217,682.723L460.533,682.311C463.397,685.833 466.089,688.162 468.648,689.572L467.805,701.017L475.237,696.912C484.911,703.946 494.584,706.981 504.257,707.378L507.802,717.048L512.915,708.402C540.197,706.509 561.751,693.185 576.817,666.912C588.125,650.821 599.433,651.508 610.741,667.47C634.027,699.014 652.907,710.257 668.697,707.264L673.923,714.69L679.689,707.429C690.38,703.563 697.427,698.409 702.284,692.482L712.169,697.065L709.239,689.356C712.46,685.29 715.121,680.73 716.962,675.45L724.223,677.212L721.042,669.999C724.73,667.097 726.586,661.965 727.411,657.886C733.277,656.058 738.309,654.633 739.805,649.064C737.171,646.183 732.438,645.977 728.393,646.68C725.787,647.133 723.756,641.269 721.231,636.388C707.598,611.943 685.396,603.612 660.59,600.178L670.441,592.568C661.629,591.104 655.096,588.335 653.568,582.7C644.646,564.379 629.771,547.873 598.932,536.238C596.908,535.191 594.065,534.427 593.853,532.399C593.479,528.841 591.864,525.744 588.81,523.284ZM450.44,654.635C467.072,629.543 492.983,613.519 513.247,613.818C533.511,614.118 559.345,634.765 572.023,656.432C560.739,681.227 530.791,703.16 510.527,702.86C490.263,702.561 461.132,678.593 450.44,654.635ZM609.871,652.991C626.094,629.041 649.025,612.895 667.154,612.558C685.282,612.222 706.508,627.083 718.64,650.971C710.925,672.393 686.879,699.774 668.751,700.111C650.623,700.448 621.675,676.62 609.871,652.991ZM510.232,624.446C529.703,624.446 545.512,640.24 545.512,659.694C545.512,679.148 529.703,694.942 510.232,694.942C490.76,694.942 474.951,679.148 474.951,659.694C474.951,640.24 490.76,624.446 510.232,624.446ZM668.765,623.091C688.237,623.091 704.046,638.885 704.046,658.339C704.046,677.793 688.237,693.587 668.765,693.587C649.294,693.587 633.485,677.793 633.485,658.339C633.485,638.885 649.294,623.091 668.765,623.091ZM510.232,647.747C516.282,647.747 521.194,652.652 521.194,658.694C521.194,664.736 516.282,669.641 510.232,669.641C504.181,669.641 499.269,664.736 499.269,658.694C499.269,652.652 504.181,647.747 510.232,647.747ZM668.765,646.392C674.816,646.392 679.728,651.297 679.728,657.339C679.728,663.38 674.816,668.286 668.765,668.286C662.715,668.286 657.803,663.38 657.803,657.339C657.803,651.297 662.715,646.392 668.765,646.392ZM525.035,594.319C543.515,564.785 570.408,545.259 591.02,544.977C611.633,544.696 632.922,561.893 648.71,592.628C637.547,615.711 613.289,637.377 592.676,637.659C572.064,637.941 540.328,617.886 525.035,594.319ZM588.995,557.07C608.466,557.07 624.275,572.864 624.275,592.318C624.275,611.772 608.466,627.566 588.995,627.566C569.523,627.566 553.714,611.772 553.714,592.318C553.714,572.864 569.523,557.07 588.995,557.07ZM588.995,580.371C595.045,580.371 599.957,585.276 599.957,591.318C599.957,597.36 595.045,602.265 588.995,602.265C582.944,602.265 578.032,597.36 578.032,591.318C578.032,585.276 582.944,580.371 588.995,580.371Z" style="fill:white;"/>
    </g>
</svg>
