<?xml version="1.0" encoding="UTF-8" standalone="no"?>
<!DOCTYPE svg PUBLIC "-//W3C//DTD SVG 1.1//EN" "http://www.w3.org/Graphics/SVG/1.1/DTD/svg11.dtd">
<svg width="100%" height="100%" viewBox="0 0 1000 1000" version="1.1" xmlns="http://www.w3.org/2000/svg" xmlns:xlink="http://www.w3.org/1999/xlink" xml:space="preserve" xmlns:serif="http://www.serif.com/" style="fill-rule:evenodd;clip-rule:evenodd;stroke-linejoin:round;stroke-miterlimit:2;">
    <g transform="matrix(1.00806,0,0,1.00806,-74.0425,9.67766)">
        <path d="M293.492,607.46C257.441,579.307 227.549,550.405 210,520C232,539.115 252.281,553.258 270,560C197.747,504.205 162.044,450.721 170,400C194.048,435.881 221.187,460.883 250,480C230.901,454.333 214.38,428.219 210,400C219.023,415.131 229.036,425.062 240,430C220.932,396.672 203.339,363.341 190,330C203.15,339.279 214.099,346.732 220,350C223.3,312.76 221.584,291.593 220,270C228.738,274.373 236.086,280.286 240,290C240.526,266.161 230.982,215.03 220,160C256.076,221.854 284.712,269.063 300,290C285.337,261.874 277.416,232.168 280,200C300.25,226.844 318.187,247.12 330,250C319.184,198.878 320.61,149.026 330,100C351.752,142.07 370.62,177.294 380,190C380.546,120.958 392.527,74.949 410,40C399.975,95.431 398.226,154.634 410,220C426.39,156.164 439.857,95.996 450,40C451.303,78.129 452.644,116.301 450,150C453.873,129.198 459.963,114.322 470,110L470,120C496.209,83.291 518.62,59.847 540,40C522.478,74.878 505.311,110.5 490,150C506.751,131.125 527.163,103.471 550,70C527.563,109.175 509.852,149.026 500,190C528.598,145.023 558.598,115.023 590,100C579.612,112.658 570.923,125.624 570,140C616.909,80.969 656.179,54.037 690,50C646.99,87.541 613.675,127.546 590,170C618.004,144.656 644.774,118.091 670,90C649.272,127.247 625.13,163.734 600,200C604.323,196.596 613.504,193.23 640,190C632.662,197.658 627.375,204.808 630,210L660,210C717.796,172.306 761.081,148.99 800,130C776.932,148.079 752.243,165.145 740,190L750,190C684.164,252.853 670.83,271.67 670,280C708.918,252.714 749.019,229.75 790,210C781.572,222.94 771.935,236.183 760,250C822.693,217.62 871.406,195.204 910,180C863.182,212.315 827.87,248.343 810,290C834.257,271.216 860.002,255.798 890,250C843.369,293.593 816.015,336.81 790,380C830.089,345.919 875.352,315.048 930,290C870.992,335.131 824.118,386.82 780,440C828.512,392.119 888.164,357.677 970,350C892.323,377.409 831.101,430.734 780,500C831.925,450.226 888.643,430.544 950,440C885.951,455.22 829.188,481.738 780,520C804.395,507.145 813.757,507.23 820,510C770.441,534.424 733.635,564.364 710,600C698.392,554.911 695.439,508.909 720,460C711.962,459.564 702.416,462.027 690,470C678.408,582.637 669.377,615.959 660,660C662.114,615.603 665.402,570.616 660,530C645.499,555.139 634.09,593.169 622.669,631.141C639.349,639.748 651.86,656.293 656,676.238L688.74,676.834C689.574,656.175 689.941,634.321 699.16,635.153C701.888,634.068 703.508,626.268 704.787,616.397L709.58,600.42C714.398,603.04 717.506,597.911 720,590L702.633,676.834C695.341,676.951 694.117,689.759 692.213,701.147C692.164,701.713 691.911,702.204 691.529,702.613C782.532,725.133 800.22,776.983 790,840C621.301,949.338 440.147,969.633 240,860C205.249,807.092 203.944,751.794 315.565,688.432C314.102,681.914 311.914,676.907 307.367,676.834L293.492,607.46ZM685.514,701.192C687.674,695.173 686.563,687.967 686.656,687.65C682.637,688.417 666.765,687.36 657.383,686.978C657.447,688.222 657.48,689.47 657.48,690.727C657.48,727.15 630.111,756.721 596.4,756.721C566.034,756.721 540.813,732.726 536.108,701.343C525.936,685.321 520.795,677.6 505,673.451C489.205,677.6 484.064,685.321 473.892,701.343C469.187,732.726 443.966,756.721 413.6,756.721C379.889,756.721 352.52,727.15 352.52,690.727C352.52,689.47 352.553,688.222 352.617,686.978C346.901,687.21 338.775,687.694 332.387,687.862L340,731C471.123,981.418 583.775,974.946 680,740L680,700C681.869,700.387 683.711,700.785 685.514,701.192ZM560.777,637.129C573.44,590.242 584.819,542.407 590,490C574.743,519.598 545.764,539.124 505,550C468.662,529.318 436.15,509.195 410,490C404.892,536.088 418.249,582.883 440,630C425.19,617.132 410.417,603.743 400,530C396.703,560.681 397.442,593.205 399.748,626.441C404.197,625.324 408.835,624.733 413.6,624.733C446.829,624.733 473.895,653.464 474.663,689.172C484.26,675.087 492.496,667.27 504.653,666.453L504.653,666.414C504.769,666.419 504.886,666.425 505,666.431C505.114,666.425 505.231,666.419 505.347,666.414L505.347,666.453C517.504,667.27 525.74,675.087 535.337,689.172C535.798,667.744 545.729,648.828 560.777,637.129ZM397.1,627.174C391.88,620.458 389.885,607.327 390,590C385.303,597.856 382.012,607.922 380,620C360.425,568.64 356.746,518.955 360,470C320.601,461.593 307.226,520.052 310,620C308.395,618.812 306.8,617.623 305.218,616.435C306.496,626.288 308.116,634.07 310.84,635.153C320.059,634.321 320.426,656.175 321.26,676.834L354,676.238C358.914,652.563 375.623,633.678 397.1,627.174ZM621.207,630.412C626.438,588.231 630.598,545.45 630,500C614.552,551.136 589.943,594.346 562.958,635.508C572.568,628.697 584.059,624.733 596.4,624.733C605.231,624.733 613.626,626.763 621.207,630.412Z" style="fill:white;"/>
    </g>
</svg>
