<?xml version="1.0" encoding="UTF-8" standalone="no"?>
<!DOCTYPE svg PUBLIC "-//W3C//DTD SVG 1.1//EN" "http://www.w3.org/Graphics/SVG/1.1/DTD/svg11.dtd">
<svg width="100%" height="100%" viewBox="0 0 1000 1000" version="1.1" xmlns="http://www.w3.org/2000/svg" xmlns:xlink="http://www.w3.org/1999/xlink" xml:space="preserve" xmlns:serif="http://www.serif.com/" style="fill-rule:evenodd;clip-rule:evenodd;stroke-linejoin:round;stroke-miterlimit:2;">
    <g transform="matrix(3.96411,0,0,3.96411,-1494.28,-1484.04)">
        <path d="M558.241,597.075C557.177,597.075 556.315,597.938 556.315,599.001L556.315,612.092C556.315,613.156 557.177,614.019 558.241,614.019L594.241,614.019C595.305,614.019 596.167,613.156 596.167,612.092L596.167,576.092C596.167,575.028 595.305,574.166 594.241,574.166L581.15,574.166C580.086,574.166 579.224,575.028 579.224,576.092L579.224,597.075C579.224,597.075 558.241,597.075 558.241,597.075ZM590,501.77L590,569.782L578.983,569.782C576.53,569.782 574.542,571.77 574.542,574.222L574.542,592.691C574.542,592.691 556.074,592.691 556.074,592.691C553.621,592.691 551.633,594.679 551.633,597.132L551.633,608.736L501.4,608.736C501.832,607.19 502.105,604.941 502.105,602.438C502.105,599.303 501.677,596.565 501.043,595.11C501.083,594.306 501.105,593.45 501.105,592.562C501.105,591.922 501.093,591.298 501.072,590.699C501.539,589.588 501.89,587.775 502.033,585.624L535.466,585.601L533.221,582.714L502.097,582.714C502.038,579.944 501.645,577.554 501.08,576.196C501.096,575.667 501.105,575.121 501.105,574.562C501.105,573.922 501.093,573.298 501.072,572.699C501.69,571.228 502.105,568.525 502.105,565.438C502.105,562.303 501.677,559.565 501.043,558.11C501.083,557.306 501.105,556.45 501.105,555.562C501.105,554.922 501.093,554.298 501.072,553.699C501.69,552.228 502.105,549.525 502.105,546.438C502.105,542.886 501.556,539.844 500.78,538.6C503.172,530.261 504.533,521.418 505.244,511.85C504.386,510.186 503.142,508.791 501.244,507.85C501.228,506.481 501.341,504.747 501.207,503.553C502.307,503.179 503.179,502.308 503.553,501.207C504.747,501.341 506.481,501.228 507.85,501.244C508.791,503.142 510.186,504.386 511.85,505.244C522.018,504.488 531.367,503.086 540.163,500.413C540.935,501.377 544.349,502.105 548.438,502.105C550.859,502.105 553.044,501.85 554.583,501.442C555.51,501.496 556.514,501.526 557.562,501.526C558.843,501.526 560.058,501.482 561.146,501.402C561.375,501.466 561.619,501.526 561.877,501.582L561.877,550.839L565.52,552.661L565.52,502.05C566.136,502.086 566.778,502.105 567.438,502.105C569.859,502.105 572.044,501.85 573.583,501.442C574.51,501.496 575.514,501.526 576.562,501.526C577.534,501.526 578.468,501.5 579.337,501.453C580.874,501.854 583.04,502.105 585.438,502.105C587.118,502.105 588.684,501.982 590,501.77ZM410,501.77C411.102,501.593 412.028,501.354 412.699,501.072C413.298,501.093 413.922,501.105 414.562,501.105C415.121,501.105 415.667,501.096 416.196,501.08C417.671,501.694 420.363,502.105 423.438,502.105C426.525,502.105 429.228,501.69 430.699,501.072C431.008,501.083 431.323,501.091 431.645,501.097L431.645,552.661L435.288,550.839L435.288,501.117C436.781,501.71 439.426,502.105 442.438,502.105C445.525,502.105 448.228,501.69 449.699,501.072C450.298,501.093 450.922,501.105 451.562,501.105C455.235,501.105 458.364,500.738 459.521,500.226C468.409,502.967 477.858,504.483 488.146,505.248C489.81,504.39 491.205,503.146 492.146,501.248C493.516,501.232 495.251,501.345 496.446,501.211C496.619,501.718 496.899,502.177 497.259,502.56L497.388,502.692C497.781,503.074 498.257,503.37 498.786,503.551C498.651,504.745 498.764,506.479 498.748,507.85C496.85,508.791 495.606,510.186 494.748,511.85C495.463,521.462 496.755,530.343 499.152,538.715C498.412,540.025 497.895,542.991 497.895,546.438C497.895,548.859 498.15,551.044 498.558,552.583C498.504,553.51 498.474,554.514 498.474,555.562C498.474,556.843 498.518,558.058 498.598,559.146C498.167,560.692 497.895,562.939 497.895,565.438C497.895,567.859 498.15,570.044 498.558,571.583C498.504,572.51 498.474,573.514 498.474,574.562C498.474,575.534 498.5,576.468 498.547,577.337C498.186,578.717 497.948,580.606 497.904,582.714L463.52,582.714L461.275,585.601L494.971,585.624L494.971,585.629L497.967,585.626C498.07,587.162 498.278,588.525 498.558,589.583C498.504,590.51 498.474,591.514 498.474,592.562C498.474,593.843 498.518,595.058 498.598,596.146C498.167,597.692 497.895,599.939 497.895,602.438C497.895,604.859 498.15,607.044 498.558,608.583L498.55,608.736L410,608.736L410,501.77ZM500.629,599.056C500.401,600.27 500.108,601 499.789,601C499.558,601 499.34,600.616 499.152,599.943C499.023,600.642 498.948,601.505 498.948,602.438C498.948,603.173 498.995,603.865 499.077,604.467C499.283,603.617 499.527,603.124 499.789,603.124C500.148,603.124 500.474,604.048 500.711,605.546C500.921,604.775 501.052,603.668 501.052,602.438C501.052,601.054 500.886,599.826 500.629,599.056ZM499.976,591.876C499.854,591.87 499.733,591.823 499.617,591.736C499.59,591.967 499.574,592.252 499.574,592.562C499.574,593.325 499.67,593.944 499.789,593.944C499.908,593.944 500.005,593.325 500.005,592.562C500.005,592.312 499.994,592.078 499.976,591.876ZM546.719,589.755L546.882,590C537.406,587.65 536.685,580.214 538.327,577.25C539.426,575.267 543.033,571.995 548.264,572.025L548.416,572.027C549.642,572.049 550.956,572.253 552.346,572.696L552.287,572.625C549.764,569.638 544.88,569.264 542.328,567.568C539.543,565.716 533.056,554.253 530.008,546.768L530.362,546.913C537.849,550.016 548.986,556.345 550.809,559.087C552.518,561.659 552.885,566.6 555.937,569.105L555.883,568.932C553.641,561.61 558.045,556.441 560.491,555.086C561.255,554.663 562.316,554.396 563.511,554.397L563.62,554.397C567.01,554.444 571.42,556.634 573.185,563.421L573.241,563.641C569.673,561.253 566.707,559.879 564.343,559.863L564.262,559.863C563.181,559.87 562.228,560.165 561.402,560.782C558.605,562.868 557.323,566.25 558.669,571.837C562.719,572.299 565.784,577.441 566.083,582.724L566.089,582.849L565.965,582.842C560.682,582.543 555.54,579.478 555.078,575.429C553.594,575.071 552.266,574.899 551.076,574.891L550.971,574.891C547.739,574.897 545.539,576.129 544.022,578.161C542.081,580.763 543.329,584.628 546.719,589.755ZM430.776,582.842C436.059,582.543 441.201,579.478 441.663,575.429C447.25,574.083 450.632,575.364 452.718,578.161C454.691,580.804 453.372,584.751 449.859,590C459.335,587.65 460.056,580.214 458.414,577.25C457.049,574.785 451.809,570.33 444.395,572.696C446.9,569.644 451.841,569.277 454.413,567.568C457.198,565.716 463.685,554.253 466.732,546.768C459.247,549.815 447.784,556.302 445.932,559.087C444.223,561.659 443.856,566.6 440.804,569.105C443.17,561.691 438.715,556.451 436.25,555.086C433.286,553.444 425.85,554.165 423.5,563.641C428.749,560.128 432.696,558.809 435.339,560.782C438.136,562.868 439.417,566.25 438.071,571.837C433.99,572.303 430.909,577.522 430.651,582.849L430.776,582.842ZM500.538,585.628C500.6,585.902 500.658,586.21 500.711,586.546C500.784,586.278 500.848,585.969 500.899,585.628L500.538,585.628ZM500.129,582.714L501.037,582.714C500.998,581.823 500.89,581.028 500.735,580.421C500.572,581.507 500.364,582.313 500.129,582.714ZM498.963,582.714L499.449,582.714C499.307,582.471 499.175,582.08 499.057,581.569C499.012,581.925 498.981,582.31 498.963,582.714ZM499.595,575.157C499.724,575.055 499.857,575.002 499.994,575C500.001,574.862 500.005,574.715 500.005,574.562C500.005,574.312 499.994,574.078 499.976,573.876C499.854,573.87 499.733,573.823 499.617,573.736C499.59,573.967 499.574,574.252 499.574,574.562C499.574,574.775 499.581,574.976 499.595,575.157ZM500.629,562.056C500.401,563.27 500.108,564 499.789,564C499.558,564 499.34,563.616 499.152,562.943C499.023,563.642 498.948,564.505 498.948,565.438C498.948,566.173 498.995,566.865 499.077,567.467C499.283,566.617 499.527,566.124 499.789,566.124C500.148,566.124 500.474,567.048 500.711,568.546C500.921,567.775 501.052,566.668 501.052,565.438C501.052,564.054 500.886,562.826 500.629,562.056ZM499.976,554.876C499.854,554.87 499.733,554.823 499.617,554.736C499.59,554.967 499.574,555.252 499.574,555.562C499.574,556.325 499.67,556.944 499.789,556.944C499.908,556.944 500.005,556.325 500.005,555.562C500.005,555.312 499.994,555.078 499.976,554.876ZM500.711,549.546C500.921,548.775 501.052,547.668 501.052,546.438C501.052,544.11 500.581,542.219 500,542.219C499.419,542.219 498.948,544.11 498.948,546.438C498.948,547.173 498.995,547.865 499.077,548.467C499.283,547.617 499.527,547.124 499.789,547.124C500.148,547.124 500.474,548.048 500.711,549.546ZM542.469,502.662C541.144,524.062 523.975,541.2 502.561,542.475C503.4,538.918 504.106,535.286 504.698,531.569C518.537,529.524 529.495,518.58 531.561,504.747C535.279,504.173 538.911,503.486 542.469,502.662ZM457.525,502.566C461.083,503.405 464.715,504.111 468.432,504.702C470.479,518.539 481.419,529.493 495.248,531.561C495.822,535.279 496.509,538.911 497.334,542.468C475.938,541.144 458.8,523.975 457.525,502.566ZM582.421,499.265C584.011,499.504 585,499.839 585,500.211C585,500.482 584.473,500.734 583.569,500.943C584.132,501.013 584.767,501.052 585.438,501.052C586.173,501.052 586.865,501.005 587.467,500.923C586.617,500.717 586.124,500.473 586.124,500.211C586.124,499.852 587.048,499.526 588.546,499.289C587.775,499.079 586.668,498.948 585.438,498.948C584.257,498.948 583.188,499.069 582.421,499.265ZM565.52,499.063L565.52,499.773C565.831,499.91 566,500.057 566,500.211C566,500.364 565.831,500.512 565.52,500.649L565.52,500.937C566.095,501.011 566.747,501.052 567.438,501.052C568.173,501.052 568.865,501.005 569.467,500.923C568.617,500.717 568.124,500.473 568.124,500.211C568.124,499.852 569.048,499.526 570.546,499.289C569.775,499.079 568.668,498.948 567.438,498.948C566.747,498.948 566.095,498.989 565.52,499.063ZM551.546,499.289C550.775,499.079 549.668,498.948 548.438,498.948C546.11,498.948 544.219,499.419 544.219,500C544.219,500.581 546.11,501.052 548.438,501.052C549.173,501.052 549.865,501.005 550.467,500.923C549.617,500.717 549.124,500.473 549.124,500.211C549.124,499.852 550.048,499.526 551.546,499.289ZM420.421,500.735C422.011,500.496 423,500.161 423,499.789C423,499.518 422.473,499.266 421.569,499.057C422.132,498.987 422.767,498.948 423.438,498.948C424.173,498.948 424.865,498.995 425.467,499.077C424.617,499.283 424.124,499.527 424.124,499.789C424.124,500.148 425.048,500.474 426.546,500.711C425.775,500.921 424.668,501.052 423.438,501.052C422.257,501.052 421.188,500.931 420.421,500.735ZM439.056,500.629C440.27,500.401 441,500.108 441,499.789C441,499.558 440.616,499.34 439.943,499.152C440.642,499.023 441.505,498.948 442.438,498.948C443.173,498.948 443.865,498.995 444.467,499.077C443.617,499.283 443.124,499.527 443.124,499.789C443.124,500.148 444.048,500.474 445.546,500.711C444.775,500.921 443.668,501.052 442.438,501.052C441.054,501.052 439.826,500.886 439.056,500.629ZM577.157,500.405C577.055,500.276 577.002,500.143 577,500.006C576.862,499.999 576.715,499.995 576.562,499.995C576.312,499.995 576.078,500.006 575.876,500.024C575.87,500.146 575.823,500.267 575.736,500.383C575.967,500.41 576.252,500.426 576.562,500.426C576.775,500.426 576.976,500.419 577.157,500.405ZM556.876,500.024C556.87,500.146 556.823,500.267 556.736,500.383C556.967,500.41 557.252,500.426 557.562,500.426C558.325,500.426 558.944,500.33 558.944,500.211C558.944,500.092 558.325,499.995 557.562,499.995C557.312,499.995 557.078,500.006 556.876,500.024ZM450.876,499.976C450.87,499.854 450.823,499.733 450.736,499.617C450.967,499.59 451.252,499.574 451.562,499.574C452.325,499.574 452.944,499.67 452.944,499.789C452.944,499.908 452.325,500.005 451.562,500.005C451.312,500.005 451.078,499.994 450.876,499.976ZM415.157,499.595C415.055,499.724 415.002,499.857 415,499.994C414.862,500.001 414.715,500.005 414.562,500.005C414.312,500.005 414.078,499.994 413.876,499.976C413.87,499.854 413.823,499.733 413.736,499.617C413.967,499.59 414.252,499.574 414.562,499.574C414.775,499.574 414.976,499.581 415.157,499.595ZM590,498.23C588.684,498.018 587.118,497.895 585.438,497.895C582.363,497.895 579.671,498.306 578.196,498.92C577.667,498.904 577.121,498.895 576.562,498.895C575.922,498.895 575.298,498.907 574.699,498.928C573.228,498.31 570.525,497.895 567.438,497.895C566.778,497.895 566.136,497.914 565.52,497.95L565.52,447.339L561.877,449.161L561.877,498.418C561.175,498.571 560.577,498.753 560.11,498.957C559.306,498.917 558.45,498.895 557.562,498.895C556.922,498.895 556.298,498.907 555.699,498.928C554.228,498.31 551.525,497.895 548.438,497.895C544.247,497.895 540.766,498.659 540.111,499.659C531.331,496.988 521.999,495.503 511.85,494.748C510.186,495.606 508.791,496.85 507.85,498.748C506.48,498.764 504.745,498.651 503.55,498.786C503.377,498.278 503.097,497.819 502.738,497.436L502.608,497.304C502.215,496.923 501.739,496.627 501.21,496.446C501.345,495.252 501.232,493.517 501.248,492.146C503.146,491.205 504.39,489.81 505.248,488.146C504.492,477.978 503.09,468.629 500.417,459.833C501.379,459.056 502.105,455.646 502.105,451.562C502.105,448.475 501.69,445.772 501.072,444.301C501.093,443.702 501.105,443.078 501.105,442.438C501.105,441.55 501.083,440.694 501.043,439.89C501.677,438.435 502.105,435.697 502.105,432.562C502.105,429.475 501.69,426.772 501.072,425.301C501.093,424.702 501.105,424.078 501.105,423.438C501.105,422.879 501.096,422.333 501.08,421.804C501.503,420.786 501.83,419.189 501.992,417.286L533.221,417.286L535.466,414.399L502.104,414.376C502.088,411.367 501.678,408.743 501.072,407.301C501.093,406.702 501.105,406.078 501.105,405.438C501.105,404.55 501.083,403.694 501.043,402.89C501.677,401.435 502.105,398.697 502.105,395.562C502.105,393.993 501.998,392.524 501.811,391.264L551.633,391.264C551.633,391.264 551.633,404.355 551.633,404.355C551.633,406.808 553.621,408.796 556.074,408.796L574.542,408.796C574.542,408.796 574.542,427.264 574.542,427.264C574.542,429.717 576.53,431.705 578.983,431.705L590,431.705L590,498.23ZM498.189,391.264C498.002,392.523 497.895,393.993 497.895,395.562C497.895,398.061 498.167,400.308 498.598,401.854C498.518,402.942 498.474,404.157 498.474,405.438C498.474,406.486 498.504,407.49 498.558,408.417C498.161,409.916 497.909,412.028 497.897,414.373L494.971,414.371L494.971,414.376L461.275,414.399L463.52,417.286L498.008,417.286C498.118,418.582 498.305,419.737 498.547,420.663C498.5,421.532 498.474,422.466 498.474,423.438C498.474,424.486 498.504,425.49 498.558,426.417C498.15,427.956 497.895,430.141 497.895,432.562C497.895,435.061 498.167,437.308 498.598,438.854C498.518,439.942 498.474,441.157 498.474,442.438C498.474,443.486 498.504,444.49 498.558,445.417C498.15,446.956 497.895,449.141 497.895,451.562C497.895,455.756 498.66,459.239 499.661,459.89C496.992,468.669 495.506,478 494.752,488.146C495.61,489.81 496.854,491.205 498.752,492.146C498.768,493.515 498.655,495.249 498.789,496.443C497.689,496.817 496.817,497.689 496.443,498.789C495.249,498.655 493.516,498.768 492.146,498.752C491.205,496.854 489.81,495.61 488.146,494.752C477.996,495.507 468.662,496.905 459.881,499.568C459.205,498.947 455.735,498.474 451.562,498.474C450.514,498.474 449.51,498.504 448.583,498.558C447.044,498.15 444.859,497.895 442.438,497.895C439.939,497.895 437.692,498.167 436.146,498.598C435.868,498.578 435.581,498.56 435.288,498.544L435.288,449.161L431.645,447.339L431.645,498.482C430.927,498.494 430.236,498.52 429.583,498.558C428.044,498.15 425.859,497.895 423.438,497.895C421.04,497.895 418.874,498.146 417.337,498.547C416.468,498.5 415.534,498.474 414.562,498.474C413.514,498.474 412.51,498.504 411.583,498.558C411.112,498.433 410.58,498.323 410,498.23L410,391.264L498.189,391.264ZM502.666,457.532C524.062,458.856 541.2,476.025 542.475,497.434C538.917,496.595 535.285,495.889 531.568,495.298C529.521,481.461 518.581,470.507 504.752,468.439C504.178,464.721 503.491,461.089 502.666,457.532ZM497.439,457.525C496.6,461.082 495.894,464.714 495.302,468.431C481.463,470.476 470.505,481.42 468.439,495.253C464.721,495.827 461.089,496.514 457.531,497.338C458.856,475.938 476.025,458.8 497.439,457.525ZM500.711,448.454C500.921,449.225 501.052,450.332 501.052,451.562C501.052,453.89 500.581,455.781 500,455.781C499.419,455.781 498.948,453.89 498.948,451.562C498.948,450.827 498.995,450.135 499.077,449.533C499.283,450.383 499.527,450.876 499.789,450.876C500.148,450.876 500.474,449.952 500.711,448.454ZM430.776,417.158C436.059,417.457 441.201,420.522 441.663,424.571C447.25,425.917 450.632,424.636 452.718,421.839C454.691,419.196 453.372,415.249 449.859,410C459.335,412.35 460.056,419.786 458.414,422.75C457.049,425.215 451.809,429.67 444.395,427.304C446.9,430.356 451.841,430.723 454.413,432.432C457.198,434.284 463.685,445.747 466.732,453.232C459.247,450.185 447.784,443.698 445.932,440.913C444.223,438.341 443.856,433.4 440.804,430.895C443.17,438.309 438.715,443.549 436.25,444.914C433.286,446.556 425.85,445.835 423.5,436.359C428.749,439.872 432.696,441.191 435.339,439.218C438.136,437.132 439.417,433.75 438.071,428.163C433.99,427.697 430.909,422.478 430.651,417.151L430.776,417.158ZM546.719,410.245L546.882,410C537.406,412.35 536.685,419.786 538.327,422.75C539.426,424.733 543.033,428.005 548.264,427.975L548.416,427.973C549.642,427.951 550.956,427.747 552.346,427.304L552.287,427.375C549.764,430.362 544.88,430.736 542.328,432.432C539.543,434.284 533.056,445.747 530.008,453.232L530.362,453.087C537.849,449.984 548.986,443.655 550.809,440.913C552.518,438.341 552.885,433.4 555.937,430.895L555.883,431.068C553.641,438.39 558.045,443.559 560.491,444.914C561.255,445.337 562.316,445.604 563.511,445.603L563.62,445.603C567.01,445.556 571.42,443.366 573.185,436.579L573.241,436.359C569.673,438.747 566.707,440.121 564.343,440.137L564.262,440.137C563.181,440.13 562.228,439.835 561.402,439.218C558.605,437.132 557.323,433.75 558.669,428.163C562.719,427.701 565.784,422.559 566.083,417.276L566.089,417.151L565.965,417.158C560.682,417.457 555.54,420.522 555.078,424.571C553.594,424.929 552.266,425.101 551.076,425.109L550.971,425.109C547.739,425.103 545.539,423.871 544.022,421.839C542.081,419.237 543.329,415.372 546.719,410.245ZM499.976,443.124C499.854,443.13 499.733,443.177 499.617,443.264C499.59,443.033 499.574,442.748 499.574,442.438C499.574,441.675 499.67,441.056 499.789,441.056C499.908,441.056 500.005,441.675 500.005,442.438C500.005,442.688 499.994,442.922 499.976,443.124ZM500.629,435.944C500.401,434.73 500.108,434 499.789,434C499.558,434 499.34,434.384 499.152,435.057C499.023,434.358 498.948,433.495 498.948,432.562C498.948,431.827 498.995,431.135 499.077,430.533C499.283,431.383 499.527,431.876 499.789,431.876C500.148,431.876 500.474,430.952 500.711,429.454C500.921,430.225 501.052,431.332 501.052,432.562C501.052,433.946 500.886,435.174 500.629,435.944ZM556.315,401.999C556.315,403.062 557.177,403.925 558.241,403.925L579.224,403.925C579.224,403.925 579.224,424.908 579.224,424.908C579.224,425.972 580.086,426.834 581.15,426.834L594.241,426.834C595.305,426.834 596.167,425.972 596.167,424.908L596.167,388.908C596.167,387.844 595.305,386.981 594.241,386.981L558.241,386.981C557.177,386.981 556.315,387.844 556.315,388.908L556.315,401.999ZM499.595,422.843C499.724,422.945 499.857,422.998 499.994,423C500.001,423.138 500.005,423.285 500.005,423.438C500.005,423.688 499.994,423.922 499.976,424.124C499.854,424.13 499.733,424.177 499.617,424.264C499.59,424.033 499.574,423.748 499.574,423.438C499.574,423.225 499.581,423.024 499.595,422.843ZM500.803,417.286C500.782,417.388 500.759,417.485 500.735,417.579C500.72,417.479 500.705,417.381 500.689,417.286L500.803,417.286ZM498.949,414.373C498.956,413.709 499.002,413.084 499.077,412.533C499.283,413.383 499.527,413.876 499.789,413.876C500.148,413.876 500.474,412.952 500.711,411.454C500.91,412.185 501.038,413.219 501.051,414.372L498.949,414.373ZM499.976,406.124C499.854,406.13 499.733,406.177 499.617,406.264C499.59,406.033 499.574,405.748 499.574,405.438C499.574,404.675 499.67,404.056 499.789,404.056C499.908,404.056 500.005,404.675 500.005,405.438C500.005,405.688 499.994,405.922 499.976,406.124ZM500.629,398.944C500.401,397.73 500.108,397 499.789,397C499.558,397 499.34,397.384 499.152,398.057C499.023,397.358 498.948,396.495 498.948,395.562C498.948,394.827 498.995,394.135 499.077,393.533C499.283,394.383 499.527,394.876 499.789,394.876C500.148,394.876 500.474,393.952 500.711,392.454C500.921,393.225 501.052,394.332 501.052,395.562C501.052,396.946 500.886,398.174 500.629,398.944Z" style="fill:white;"/>
    </g>
</svg>
