<?xml version="1.0" encoding="UTF-8" standalone="no"?>
<!DOCTYPE svg PUBLIC "-//W3C//DTD SVG 1.1//EN" "http://www.w3.org/Graphics/SVG/1.1/DTD/svg11.dtd">
<svg width="100%" height="100%" viewBox="0 0 1000 1000" version="1.1" xmlns="http://www.w3.org/2000/svg" xmlns:xlink="http://www.w3.org/1999/xlink" xml:space="preserve" xmlns:serif="http://www.serif.com/" style="fill-rule:evenodd;clip-rule:evenodd;stroke-linejoin:round;stroke-miterlimit:2;">
    <g transform="matrix(2.12264,0,0,2.12264,-625,-493.396)">
        <path d="M529.367,679.997C502.471,679.743 462,663.471 462,658L461,460C461,446.172 470.51,437.25 480,430C480.896,429.411 482.203,428.866 483,429.617C486.087,432.527 489.467,433.283 489.959,433.583L485,504C485.452,507.419 488.199,510.178 493,514C499.919,519.508 513.901,520.875 530,521L530.753,520.993C546.533,520.831 560.189,519.422 567,514C571.801,510.178 574.548,507.419 575,504L570.041,433.583C570.533,433.283 573.913,432.527 577,429.617C577.797,428.866 579.104,429.411 580,430C589.49,437.25 599,446.172 599,460L598,658C598,663.471 557.529,679.743 530.633,679.997L530,680L529.367,679.997ZM541.554,550C523.277,575 505,604.413 505,625C505,638.798 516.202,650 530,650C543.798,650 555,638.798 555,625C555,604.413 530.777,587.5 541.554,550ZM530,436.114C514.894,435.201 500.22,433.121 487,427.114C484.309,425.892 483.711,414.758 487,416.114C499.953,421.457 514.7,423.755 530,425.114C545.3,423.755 560.047,421.457 573,416.114C576.289,414.758 575.691,425.892 573,427.114C559.78,433.121 545.106,435.201 530,436.114ZM583.258,426.057C581.207,425.42 579.133,425.198 577,426.057C579.48,422.038 578.814,418.019 576,414C578.929,410.624 578.993,407.295 577,404C626.869,355.084 661.127,305.686 686,256L686,300C659.112,345.8 624.323,387.541 583.258,426.057ZM476.742,426.057C478.793,425.42 480.867,425.198 483,426.057C480.52,422.038 481.186,418.019 484,414C481.071,410.624 481.007,407.295 483,404C433.131,355.084 398.873,305.686 374,256L374,300C400.888,345.8 435.677,387.541 476.742,426.057ZM530,423C514.894,422.087 500.22,420.007 487,414C484.309,412.777 483.711,401.643 487,403C499.953,408.343 514.7,410.64 530,412C545.3,410.64 560.047,408.343 573,403C576.289,401.643 575.691,412.777 573,414C559.78,420.007 545.106,422.087 530,423ZM529.249,408.965C513.488,408.207 498.425,405.677 485,399C482.615,395.745 488.264,389.35 491,388.989C492.131,388.84 492.778,389.984 495,391C504.646,395.413 516.344,397.044 530,398C543.656,397.044 555.354,395.413 565,391C567.222,389.984 567.869,388.84 569,388.989C571.736,389.35 577.385,395.745 575,399C561.575,405.677 546.512,408.207 530.751,408.965L530,409L529.249,408.965ZM530.354,313.283C545.29,313.754 553.483,318.931 560,324.404C571.34,333.927 575.636,364.262 560,380L560,390C550.27,392.965 540.332,394.675 530,394C519.668,394.675 509.73,392.965 500,390L500,380C484.364,364.262 488.66,333.927 500,324.404C506.568,318.888 514.839,313.672 530,313.272L530.354,313.283Z" style="fill:white;"/>
    </g>
</svg>
