<?xml version="1.0" encoding="UTF-8" standalone="no"?>
<!DOCTYPE svg PUBLIC "-//W3C//DTD SVG 1.1//EN" "http://www.w3.org/Graphics/SVG/1.1/DTD/svg11.dtd">
<svg width="100%" height="100%" viewBox="0 0 1000 1000" version="1.1" xmlns="http://www.w3.org/2000/svg" xmlns:xlink="http://www.w3.org/1999/xlink" xml:space="preserve" xmlns:serif="http://www.serif.com/" style="fill-rule:evenodd;clip-rule:evenodd;stroke-linejoin:round;stroke-miterlimit:2;">
    <g transform="matrix(3.37847,0,0,3.37847,-987.306,-1104.89)">
        <path d="M473.425,574.494C473.305,589.739 467.523,595.689 461.644,596.138C455.766,596.587 449.792,591.534 449.29,584.771C427.237,599.681 479.413,634.038 473.425,574.494ZM435.038,575.279C435.211,595.314 419.945,598.742 412.803,596.731C407.8,595.322 397.453,586.448 410.942,570.486C409.976,576.982 413.285,580.95 416.901,582.05C420.721,583.213 429.46,582.602 435.038,575.279ZM470.224,573.04C465.757,575.303 461.422,577.06 454.311,576.783C449.944,592.098 461.49,593.369 465.501,589.334C467.256,587.568 470.536,583.097 470.224,573.04ZM432.338,574.309C425.563,578.214 421.02,579.205 418.241,577.89C415.462,576.575 414.448,572.956 414.732,567.64C419.768,570.959 425.486,573.38 432.338,574.309ZM468.186,514.176L461.394,527.162L442.561,517.53L432.293,530.193L423.745,522.62C421.095,535.642 417.745,546.163 412.803,558.597C433.577,575.181 456.862,577.715 483.273,562.757C480.546,546.563 476.32,530.37 468.186,514.176ZM474.006,503.633L470.224,511.331C477.171,523.465 479.853,537.605 485.649,549.74C491.008,560.956 517.163,538.594 504.799,527.573C495.036,518.869 484.856,510.766 474.006,503.633ZM418.855,514.176L420.76,520.454C418.766,528.681 417.081,536.844 414.265,545.071C410.405,556.347 389.662,537.588 401.908,527.318C407.502,522.627 413.163,518.315 418.855,514.176ZM475.201,495.557C457.767,507.036 439.576,517.384 422.145,515.45L431.541,526.221L442.008,514.271L460.196,523.848L475.201,495.557ZM392.628,501.616C403.595,509.683 417.892,513.959 432.615,511.646C442.451,510.101 468.448,499.667 485.828,483.865C491.699,474.661 491.649,464.824 488.478,456.014C483.817,443.066 472.475,432.311 463.272,429.11C458.958,427.602 450.77,429.209 442.796,434.711C437.45,438.4 432.21,443.856 428.284,451.392C428.142,451.664 427.896,451.867 427.603,451.956C427.309,452.045 426.992,452.011 426.723,451.864C421.243,448.841 416.753,446.753 412.98,445.794C409.329,444.866 406.398,445.009 403.918,446.526C396.99,450.756 383.835,462.707 385.786,481.744C386.395,487.694 388.468,494.321 392.628,501.616ZM438.182,501.965C438.027,500.675 437.895,499.399 437.691,498.129C437.554,497.275 437.404,496.428 437.202,495.596C436.997,494.753 436.737,493.931 436.466,493.118C436.05,491.87 435.569,490.673 435.083,489.482C434.965,489.105 434.563,488.894 434.185,489.012C433.808,489.13 433.597,489.533 433.715,489.91C433.989,491.141 434.202,492.387 434.455,493.652C434.62,494.477 434.777,495.308 434.977,496.136C435.175,496.956 435.413,497.77 435.651,498.588C436.008,499.814 436.409,501.021 436.779,502.257C436.859,502.644 437.239,502.893 437.627,502.813C438.014,502.732 438.263,502.352 438.182,501.965ZM389.306,498.97C386.168,492.806 384.513,487.123 383.937,481.942C381.705,461.889 395.503,449.183 402.775,444.668C405.711,442.85 409.184,442.541 413.526,443.626C417.213,444.546 421.566,446.491 426.809,449.314C430.872,441.937 436.142,436.54 441.52,432.855C450.249,426.872 459.278,425.424 463.982,427.095C473.586,430.523 485.44,441.81 490.195,455.404C492.95,463.278 493.349,471.915 489.585,480.219C506.662,462.465 511.744,438.851 474.429,413.701C504.183,351.018 476.337,343.886 470.02,342.875C462.563,341.682 443.502,333.627 435.706,392.016C436.373,392.616 437.031,393.233 437.678,393.867C440.99,391.474 444.706,390.122 448.422,388.758C449.239,388.458 450.152,388.594 450.846,389.12C451.54,389.646 451.918,390.489 451.849,391.357L449.629,419.504C449.538,420.657 448.684,421.605 447.547,421.815L410.817,428.615C409.46,428.866 408.149,427.995 407.855,426.647L400.622,393.442C400.431,392.564 400.715,391.65 401.37,391.035C402.025,390.42 402.955,390.194 403.82,390.441C407.975,391.627 411.825,393.435 415.263,396.084C416.836,394.018 418.467,392.208 420.136,390.561C409.398,350.572 392.875,356.147 388.753,357.314C380.034,359.783 363.974,377.369 398.946,423.447C362.386,446.93 367.948,480.561 389.306,498.97ZM397.334,483.992C389.85,480.103 389.72,483.657 397.431,489.991C412.822,502.635 422.564,490.821 423.11,486.11C424.258,476.196 404.223,439.853 397.334,483.992ZM456.16,462.6C454.966,461.05 453.787,459.533 452.66,458.093C450.335,455.122 448.274,452.446 446.672,450.581C446.274,450.117 445.909,449.703 445.55,449.368C444.345,448.246 443.57,447.783 443.57,447.783C443.17,447.274 442.432,447.186 441.923,447.586C441.414,447.986 441.326,448.724 441.726,449.233C441.726,449.233 441.993,450.095 442.799,451.531C443.039,451.959 443.356,452.411 443.713,452.908C445.147,454.905 447.261,457.539 449.599,460.499C451.158,462.473 452.836,464.577 454.541,466.689C454.263,467.4 453.986,468.109 453.713,468.814C449.931,478.587 446.709,487.478 446.709,487.478C446.463,488.077 446.749,488.763 447.348,489.009C447.946,489.256 448.632,488.97 448.879,488.371C448.879,488.371 452.852,479.789 457.046,470.186L457.165,469.913C457.32,470.102 457.475,470.291 457.629,470.479C464.048,478.283 469.998,485.194 469.998,485.194C470.398,485.703 471.136,485.791 471.645,485.391C472.154,484.991 472.242,484.253 471.842,483.744C471.842,483.744 466.531,476.331 460.462,468.251C459.92,467.53 459.372,466.804 458.82,466.078C460.007,463.305 461.168,460.537 462.237,457.958C463.734,454.343 465.099,451.118 465.97,448.721C466.186,448.125 466.376,447.585 466.497,447.091C466.904,445.439 466.939,444.503 466.939,444.503C467.186,443.904 466.9,443.218 466.301,442.971C465.703,442.725 465.017,443.011 464.77,443.609C464.77,443.609 464.136,444.299 463.262,445.759C463,446.195 462.755,446.712 462.489,447.288C461.42,449.603 460.118,452.854 458.636,456.476C457.837,458.429 457,460.496 456.16,462.6ZM434.185,489.012C435.648,488.1 436.335,486.801 436.614,485.299C434.553,484.979 432.612,485.569 430.718,486.508C431.198,487.746 432.227,488.657 434.185,489.012ZM409.419,488.579C406.796,484.108 404.855,480.358 404.475,478.254C404.095,476.15 405.274,475.691 408.889,477.802C415.004,472.92 413.861,478.396 409.419,488.579ZM453.472,481.338C454.656,478.712 456.05,475.595 457.497,472.302C460.056,475.404 462.501,478.318 464.477,480.656C460.962,481.954 456.754,481.898 453.472,481.338ZM445.614,457.491C446.539,458.669 447.551,459.942 448.609,461.282C450.03,463.081 451.55,464.988 453.099,466.911C452.91,467.395 452.723,467.878 452.537,468.358C450.958,472.436 449.477,476.361 448.287,479.551C444.89,476.657 442.932,465.325 445.614,457.491ZM464.918,454.789C467.426,457.442 469.849,461.48 471.464,467.624C481.047,462.95 481.918,467.342 471.316,471.979C471.04,474.377 470.195,476.231 468.981,477.644C466.944,474.853 464.289,471.245 461.471,467.494C461.074,466.964 460.672,466.432 460.269,465.9C461.357,463.348 462.419,460.815 463.403,458.441C463.929,457.169 464.44,455.946 464.918,454.789ZM449.292,451.768C450.712,450.592 452.478,449.851 454.64,449.729C454.884,449.715 456.913,449.718 459.553,450.906C458.907,452.464 458.21,454.185 457.468,455.998C456.929,457.315 456.373,458.685 455.81,460.083C455.077,459.138 454.355,458.212 453.654,457.315C452.055,455.272 450.58,453.368 449.292,451.768ZM447.082,419.303L410.352,426.103L403.118,392.898C407.797,394.233 412.062,396.411 415.724,399.821C419.093,394.841 422.8,391.342 426.59,388.204C430.503,390.787 434.151,393.793 437.481,397.309C440.981,394.132 445.155,392.679 449.302,391.156L447.082,419.303ZM426.21,415.89C420.417,412.589 417.516,408.742 417.324,406.739C417.133,404.735 419.651,404.577 424.698,408.653C433.126,398.376 433.738,407.762 426.21,415.89Z" style="fill:white;"/>
    </g>
</svg>
