<?xml version="1.0" encoding="UTF-8" standalone="no"?>
<!DOCTYPE svg PUBLIC "-//W3C//DTD SVG 1.1//EN" "http://www.w3.org/Graphics/SVG/1.1/DTD/svg11.dtd">
<svg width="100%" height="100%" viewBox="0 0 1000 1000" version="1.1" xmlns="http://www.w3.org/2000/svg" xmlns:xlink="http://www.w3.org/1999/xlink" xml:space="preserve" xmlns:serif="http://www.serif.com/" style="fill-rule:evenodd;clip-rule:evenodd;stroke-linejoin:round;stroke-miterlimit:2;">
    <path d="M414.991,763.024C453.338,662.457 492.585,561.996 532.638,461.849C522.827,461.243 513.029,460.614 503.254,459.965C374.97,451.439 250.564,439.231 129.781,423.585C271.209,425.156 408.491,430.448 541.596,439.497C577.869,349.174 614.969,259.069 653.114,169.236C655.248,173.662 657.281,178.178 659.265,182.736L678.833,126.518C676.948,125.1 675.14,123.604 673.122,122.362L653.114,169.236C638.39,137.859 620.261,107.593 599.143,79.8C625.282,91.563 650.043,105.852 673.122,122.362C683.485,98.215 693.923,74.097 704.443,50C696.136,75.434 687.594,100.943 678.833,126.518C783.834,204.254 852.424,328.432 854.175,468.585C869.522,470.419 884.792,472.308 900,474.252C884.735,474.149 869.37,474.192 854.21,473.99L854.175,468.585C799.995,462.04 745.978,456.819 691.946,451.481L688.153,469.572C743.354,471.297 798.518,473.083 854.21,473.99L854.21,474.102C854.21,712.585 660.714,906.202 422.381,906.202C403.281,906.202 384.468,904.959 366.013,902.547C358.93,918.361 351.816,934.176 344.669,950C350.629,934.027 356.601,918.057 362.59,902.085C258.701,887.657 166.593,836.2 100,761.47C101.25,762.258 102.494,763.034 103.742,763.807C205.227,797.649 316.39,796.52 414.991,763.024C397.237,809.349 379.55,855.76 362.59,902.085C363.761,902.353 364.842,902.419 366.013,902.547C387.617,854.238 408.82,805.929 430.05,757.62C425.295,759.792 420.139,761.631 414.991,763.024ZM688.153,469.572C678.469,511.117 662.287,551.366 639.081,588.868C589.73,668.617 515.101,725.447 430.05,757.62C468.36,669.589 505.349,581.963 540.549,494.908C544.838,484.3 549.1,473.701 553.342,463.094C597.811,465.697 642.745,467.86 688.153,469.572ZM659.265,182.736C696.027,267.711 708.632,362.044 691.946,451.481C649.144,447.554 605.883,444.037 562.17,440.928C596.569,354.217 629.088,268.101 659.265,182.736Z" style="fill:white;"/>
</svg>
