<?xml version="1.0" encoding="UTF-8" standalone="no"?>
<!DOCTYPE svg PUBLIC "-//W3C//DTD SVG 1.1//EN" "http://www.w3.org/Graphics/SVG/1.1/DTD/svg11.dtd">
<svg width="100%" height="100%" viewBox="0 0 1000 1000" version="1.1" xmlns="http://www.w3.org/2000/svg" xmlns:xlink="http://www.w3.org/1999/xlink" xml:space="preserve" xmlns:serif="http://www.serif.com/" style="fill-rule:evenodd;clip-rule:evenodd;stroke-linejoin:round;stroke-miterlimit:2;">
    <g transform="matrix(1.84401,0,0,1.8435,-684.003,-286.82)">
        <path d="M430.72,591.559C473.19,574.947 514.905,567.594 556.252,572.167C574.424,574.177 592.456,573.945 610,577.175C643.547,583.351 673.372,587.103 704.044,605.357C718.205,613.785 733.725,629.434 747.756,642.403C740.291,653.645 731.121,663.245 720,670C713.629,673.869 705.795,664.401 700,660C625.746,670.12 552.398,663.718 480,640C480,640 422.595,650.284 425.252,640C427.392,631.717 430.337,613.091 430.385,600C430.395,597.224 430.506,594.41 430.72,591.559ZM777.851,200.101C788.727,188.849 798.692,187.463 805,194C813.291,198.169 814.442,189.657 818,185C819.408,183.158 823.38,182.762 825,182.714C840.82,182.243 850.077,206.492 859,232C817.703,236.602 791.439,230.24 796.701,210C797.573,206.646 798.54,202.568 803,198C797.144,190.066 787.84,194.089 779.62,202.365C786.506,211.869 791.668,227.346 795.768,248.152C795.844,248.102 795.922,248.052 796,248C803.787,242.841 808.37,237.356 815.806,242C830.704,251.304 822.982,292.562 810,301C791.625,295.514 759.783,271.255 770.593,256C773.91,251.319 785.043,254.816 795.377,248.4C782.003,219.961 772.526,206.854 766.666,202.748C761.234,205.187 756.486,208.389 753,213C760.606,213.134 765.395,214.039 767,216.365C772.616,224.508 772.257,234.505 764,239.162C751.644,246.129 736.408,253.397 725,260C721.167,239.989 712.571,218.681 740,208.788C742.634,207.838 745.982,208.664 750,211C753.168,206.404 757.611,203.163 763.205,201.142C734.571,192.046 721.274,198.222 710,208.008C695.77,220.361 679.731,241.731 691.695,260C725.934,312.283 748.872,383.349 772.583,450C782.927,479.075 797.084,502.855 800,525.661C789.451,520.764 780.214,514.438 772.022,506.973C770.189,501.95 769.58,504.748 772.022,506.973C779.994,528.818 777.086,596.363 749.013,640.47C730.708,623.49 704.917,600.386 704.237,600C676.666,584.346 640.856,577.511 610,572.148C592.543,569.114 574.453,569.93 556.112,567.802C517.393,563.309 475.536,570.917 430.988,588.489C434.191,556.318 450.185,519.697 480,480.768C509.675,442.022 529.307,390.512 553.768,341.768L555,343C556.539,345.492 558.897,346.446 562,346C560.511,349.684 560.843,354.739 564,356C584.306,364.11 620.189,330.478 609,307C605.503,299.663 586.785,306.035 577,309C575.884,308.4 574.427,308.227 573.032,307.728C604.747,258.133 645.807,221.389 690,203.398C719.875,191.236 743.071,179.651 770,193.61C772.834,195.079 775.443,197.251 777.851,200.101ZM507.857,420C500.427,438.037 487.505,454.653 476,472C466.758,470.668 462.003,468.738 455,465C474.054,451.894 491.727,436.966 507.857,420ZM695,415C708.377,415 715,421.422 715,429.073C715,436.724 703.377,435 690,435C676.623,435 670,430.141 670,422.49C670,414.839 681.623,415 695,415ZM550,408.906C563.377,408.906 570,415.328 570,422.979C570,430.63 558.377,428.906 545,428.906C531.623,428.906 525,424.047 525,416.396C525,408.746 536.623,408.906 550,408.906ZM650.648,382.676C652.021,382.82 652.844,385.698 652.486,389.097C652.128,392.496 650.724,395.139 649.352,394.994C647.979,394.85 647.156,391.973 647.514,388.573C647.872,385.174 649.276,382.532 650.648,382.676ZM590.648,378.841C592.021,378.985 592.844,381.862 592.486,385.262C592.128,388.661 590.724,391.304 589.352,391.159C587.979,391.015 587.156,388.138 587.514,384.738C587.872,381.339 589.276,378.696 590.648,378.841ZM569,313C569,313 564.727,306.648 562,304C554.189,296.415 536.686,325.182 538,337C538.589,342.303 561,336 561,336C561.678,337.478 563.28,338.509 566,339C566,339 566.419,348.75 570,349C592.934,350.602 613.73,318.636 601,308C596.875,304.554 574,317 574,317C573.131,315.335 571.382,314.036 569,313Z" style="fill:white;"/>
    </g>
</svg>
