<?xml version="1.0" encoding="UTF-8" standalone="no"?>
<!DOCTYPE svg PUBLIC "-//W3C//DTD SVG 1.1//EN" "http://www.w3.org/Graphics/SVG/1.1/DTD/svg11.dtd">
<svg width="100%" height="100%" viewBox="0 0 1000 1000" version="1.1" xmlns="http://www.w3.org/2000/svg" xmlns:xlink="http://www.w3.org/1999/xlink" xml:space="preserve" xmlns:serif="http://www.serif.com/" style="fill-rule:evenodd;clip-rule:evenodd;stroke-linejoin:round;stroke-miterlimit:2;">
    <g transform="matrix(13.0146,0,0,13.0146,-6008.93,-5060.81)">
        <path d="M465.607,431.067C464.601,413.834 476.636,398.165 494.046,395.056C512.83,391.701 530.803,404.227 534.158,423.011C536.918,438.464 528.929,453.369 515.551,460.035L514.325,457.3C526.478,451.183 533.723,437.609 531.21,423.537C528.146,406.381 511.729,394.939 494.573,398.003C478.72,400.835 467.747,415.066 468.588,430.747L465.607,431.067ZM501,418C507.114,418 512.078,422.964 512.078,429.078C512.078,435.193 507.114,440.157 501,440.157C494.886,440.157 489.922,435.193 489.922,429.078C489.922,422.964 494.886,418 501,418Z" style="fill:white;"/>
    </g>
</svg>
