<?xml version="1.0" encoding="UTF-8" standalone="no"?>
<!DOCTYPE svg PUBLIC "-//W3C//DTD SVG 1.1//EN" "http://www.w3.org/Graphics/SVG/1.1/DTD/svg11.dtd">
<svg width="100%" height="100%" viewBox="0 0 1000 1000" version="1.1" xmlns="http://www.w3.org/2000/svg" xmlns:xlink="http://www.w3.org/1999/xlink" xml:space="preserve" xmlns:serif="http://www.serif.com/" style="fill-rule:evenodd;clip-rule:evenodd;stroke-linejoin:round;stroke-miterlimit:2;">
    <g transform="matrix(0.93935,0,0,0.93935,30.3251,30.3251)">
        <path d="M339.265,675.443L320.354,751.084L93.434,978.004L110.243,904.465L339.265,675.443ZM170.125,897.111L172.226,846.684L140.709,878.201L139.658,927.577L170.125,897.111ZM83.496,904.948C86.615,909.533 90.561,913.291 95.102,916.454L83.979,927.577C77.99,925.862 73.853,922.295 72.423,916.021L83.496,904.948ZM85.437,903.007L324.557,663.887L336.113,675.443L97.05,914.507C92.269,911.583 88.31,907.837 85.437,903.007ZM323.506,660.735L247.866,679.646L20.945,906.566L94.484,889.757L323.506,660.735ZM217.4,849.836L219.501,799.409L187.984,830.926L186.934,880.302L217.4,849.836ZM101.838,829.875L152.265,827.774L120.748,859.291L71.372,860.342L101.838,829.875ZM256.27,810.965L258.372,760.539L235.259,783.651L234.209,833.027L256.27,810.965ZM149.113,782.6L199.54,780.499L168.023,812.016L118.647,813.066L149.113,782.6ZM305.647,761.589L307.748,711.162L272.029,746.881L270.978,796.258L305.647,761.589ZM187.984,743.73L238.411,741.628L215.299,764.741L165.922,765.791L187.984,743.73ZM237.36,694.353L287.787,692.252L252.068,727.971L202.692,729.022L237.36,694.353ZM346.618,637.623L361.326,652.331L341.366,672.292C333.945,669.907 329.043,665.004 326.658,657.584L346.618,637.623ZM932.83,51.411L947.538,66.119L363.427,650.23L348.72,635.522L932.83,51.411ZM932.83,47.209L951.74,66.119L979.055,26.198L974.853,21.996L932.83,47.209Z" style="fill:white;"/>
    </g>
</svg>
