<?xml version="1.0" encoding="UTF-8" standalone="no"?>
<!DOCTYPE svg PUBLIC "-//W3C//DTD SVG 1.1//EN" "http://www.w3.org/Graphics/SVG/1.1/DTD/svg11.dtd">
<svg width="100%" height="100%" viewBox="0 0 1000 1000" version="1.1" xmlns="http://www.w3.org/2000/svg" xmlns:xlink="http://www.w3.org/1999/xlink" xml:space="preserve" xmlns:serif="http://www.serif.com/" style="fill-rule:evenodd;clip-rule:evenodd;stroke-linejoin:round;stroke-miterlimit:2;">
    <g transform="matrix(1.03687,0,0,1.03687,-115.899,198.416)">
        <path d="M720,340L730,330C683.983,344.656 666.845,331.98 646.684,320C605.143,295.314 562.091,248.8 680,190C727.355,76.041 811.289,63.884 900,123.076C969.648,169.549 964.825,252.54 920,290C921.068,308.37 920.324,325.69 914.39,340L1028,340L1028,520L160,520L160,340L292.631,340C288.658,328.195 282.643,312.162 274.39,293.021C269.421,281.498 272.838,269.987 269.294,260C243.22,186.54 299.066,167.199 308,148.076C321.223,119.772 317.791,98.002 394.981,84.317C406.592,82.258 414.742,77.091 420.069,72.12C422.987,65.366 425.145,61.721 428,61.721C427.251,63.535 424.751,67.751 420.069,72.12C417.221,78.709 413.649,88.26 408,100.271C408,100.271 426.007,99.505 441.857,105.048C467.208,113.914 496.39,132.686 508,149.58C518.433,164.761 518.2,210 518.2,210C527.035,255.959 535.249,285.638 528,292.029C526.16,293.651 519.277,270.973 506.489,270C502.412,296.004 502.34,325.07 501.654,340L720,340ZM594,419.544L636.544,377L650.965,391.422L608.422,433.965L650.965,476.509L636.544,490.931L594,448.387L551.456,490.931L537.035,476.509L579.578,433.965L537.035,391.422L551.456,377L594,419.544ZM491.522,340C487.772,333.603 483.389,323.688 478.689,308.55C475.228,297.403 474.924,322.841 476.568,340L491.522,340Z" style="fill:white;"/>
    </g>
</svg>
