<?xml version="1.0" encoding="UTF-8" standalone="no"?>
<!DOCTYPE svg PUBLIC "-//W3C//DTD SVG 1.1//EN" "http://www.w3.org/Graphics/SVG/1.1/DTD/svg11.dtd">
<svg width="100%" height="100%" viewBox="0 0 1000 1000" version="1.1" xmlns="http://www.w3.org/2000/svg" xmlns:xlink="http://www.w3.org/1999/xlink" xml:space="preserve" xmlns:serif="http://www.serif.com/" style="fill-rule:evenodd;clip-rule:evenodd;stroke-linejoin:round;stroke-miterlimit:2;">
    <g transform="matrix(8.5642,0,0,8.5642,-3944.82,-2998.09)">
        <path d="M480.139,453.536C480.116,453.706 480.095,453.873 480.078,454.036C479.822,456.423 480.201,458.124 481.139,459.255C483.25,461.801 487.824,461.417 491.639,459.036C495.482,456.638 499.702,451.759 503.497,446.036C510.496,435.482 516.052,422.059 515.139,416.036C514.085,409.08 507.337,408.878 501.639,413.036C497.097,416.351 493.261,425.769 486.991,433.536C481.136,440.788 480.944,447.721 480.139,453.536ZM552,442.5C552.023,442.67 552.044,442.837 552.062,443C552.317,445.386 551.938,447.087 551,448.219C548.889,450.764 544.315,450.381 540.5,448C536.657,445.602 532.437,440.723 528.642,435C521.643,424.446 516.087,411.022 517,405C518.054,398.044 524.802,397.842 530.5,402C535.042,405.315 538.879,414.733 545.149,422.5C551.003,429.752 551.196,436.685 552,442.5ZM503.139,418.036C505.716,414.897 507.573,413.963 508.639,414.655C509.68,415.33 509.661,419.418 509.303,421.536C508.688,425.175 502.732,436.844 500.639,440.036C495.403,448.022 488.714,443.656 491.139,435.036C492.139,431.484 500.718,420.987 503.139,418.036ZM529,407C526.423,403.861 524.566,402.927 523.5,403.618C522.459,404.294 522.478,408.381 522.837,410.5C523.452,414.139 529.407,425.808 531.5,429C536.736,436.986 543.426,432.62 541,424C540,420.448 531.422,409.95 529,407ZM526.529,395.436C527.95,394.087 528.833,392.675 529,391C535.681,394.436 541.843,398.384 547,402.714C554.951,409.39 555.104,417.687 567,425C557.675,428.451 546.092,424.735 541.07,412C536.99,401.654 532.731,400.899 526.529,395.436ZM512.666,395C511.525,393.333 510.725,391.667 510.5,390C502.245,394.437 493.095,399.829 490.387,404C485.525,411.491 476.933,418.255 471,425.5C488.952,425.871 488.888,422.006 494.858,413.047C499.287,406.4 503.346,400.662 512.666,395ZM520,381C524.415,381 528,384.585 528,389C528,393.415 524.415,397 520,397C515.585,397 512,393.415 512,389C512,384.585 515.585,381 520,381ZM526.957,382.907C526.289,382.012 525.469,381.19 524.5,380.5C530.084,367.655 549.619,349.035 560,359C564.248,363.077 564.613,370.399 558.145,372.774C548.681,376.251 532.225,387.06 529,387.5C528.812,386.5 528.46,385.471 527.946,384.482C537.082,375.03 552.533,369.2 558,368.5C563.676,367.773 543.739,361.427 526.957,382.907ZM512.37,383.905C511.736,384.838 511.111,385.993 510.5,387.5C484.213,378.159 472.709,368.43 475,364.634C482.695,351.886 498.592,349.875 515,381C514.49,381.446 513.982,381.92 513.477,382.485C498.886,368.464 479.827,364.224 480.5,369C480.546,369.33 480.736,370.203 481,370C485.495,366.547 506.351,379.912 512.37,383.905Z" style="fill:white;"/>
    </g>
</svg>
