<?xml version="1.0" encoding="UTF-8" standalone="no"?>
<!DOCTYPE svg PUBLIC "-//W3C//DTD SVG 1.1//EN" "http://www.w3.org/Graphics/SVG/1.1/DTD/svg11.dtd">
<svg width="100%" height="100%" viewBox="0 0 1000 1000" version="1.1" xmlns="http://www.w3.org/2000/svg" xmlns:xlink="http://www.w3.org/1999/xlink" xml:space="preserve" xmlns:serif="http://www.serif.com/" style="fill-rule:evenodd;clip-rule:evenodd;stroke-linejoin:round;stroke-miterlimit:2;">
    <g transform="matrix(1.55172,0,0,1.5,-275.862,-250)">
        <path d="M210,500C234.767,459.848 266.489,429.142 304.072,406.397C303.355,378.721 309.365,350.063 325,320C352.701,298.362 381.217,291.732 410,290C433.369,253.732 458.121,218.847 499.4,200.484L499.5,200C499.668,200.073 499.835,200.146 500,200.218C500.165,200.146 500.332,200.073 500.5,200L500.6,200.484C541.879,218.847 566.631,253.732 590,290C618.783,291.732 647.299,298.362 675,320C690.635,350.063 696.645,378.721 695.928,406.397C733.511,429.142 765.233,459.848 790,500C765.233,540.152 733.511,570.858 695.928,593.603C696.645,621.279 690.635,649.937 675,680C647.299,701.638 618.783,708.268 590,710C566.631,746.268 541.879,781.153 500.6,799.516L500.5,800C500.332,799.927 500.165,799.854 500,799.782C499.835,799.854 499.668,799.927 499.5,800L499.4,799.516C458.121,781.153 433.369,746.268 410,710C381.217,708.268 352.701,701.638 325,680C309.365,649.937 303.355,621.279 304.072,593.603C266.489,570.858 234.767,540.152 210,500ZM784.849,640L784.849,772.213C784.849,792.78 780.567,795.182 760,795.182L641.073,795.182C602.707,795.182 595.781,779.85 614.588,760L747.105,627.483C769.542,607.596 784.606,609.365 784.849,640ZM215.151,640L215.151,772.213C215.151,792.78 219.433,795.182 240,795.182L358.927,795.182C397.293,795.182 404.219,779.85 385.412,760L252.895,627.483C230.458,607.596 215.394,609.365 215.151,640ZM660,500C653.145,465.504 604.779,455.835 550,450C538.545,398.295 528.953,334.729 500,334.007C471.047,334.729 461.455,398.295 450,450C395.221,455.835 346.855,465.504 340,500C346.855,534.496 395.221,544.165 450,550C461.455,601.705 471.047,665.271 500,665.993C528.953,665.271 538.545,601.705 550,550C604.779,544.165 653.145,534.496 660,500ZM500,443.351C531.265,443.351 556.649,468.735 556.649,500C556.649,531.265 531.265,556.649 500,556.649C468.735,556.649 443.351,531.265 443.351,500C443.351,468.735 468.735,443.351 500,443.351ZM784.849,360L784.849,227.787C784.849,207.22 780.567,204.818 760,204.818L641.073,204.818C602.707,204.818 595.781,220.15 614.588,240L747.105,372.517C769.542,392.404 784.606,390.635 784.849,360ZM215.151,360L215.151,227.787C215.151,207.22 219.433,204.818 240,204.818L358.927,204.818C397.293,204.818 404.219,220.15 385.412,240L252.895,372.517C230.458,392.404 215.394,390.635 215.151,360Z" style="fill:white;"/>
    </g>
</svg>
