<?xml version="1.0" encoding="UTF-8" standalone="no"?>
<!DOCTYPE svg PUBLIC "-//W3C//DTD SVG 1.1//EN" "http://www.w3.org/Graphics/SVG/1.1/DTD/svg11.dtd">
<svg width="100%" height="100%" viewBox="0 0 1000 1000" version="1.1" xmlns="http://www.w3.org/2000/svg" xmlns:xlink="http://www.w3.org/1999/xlink" xml:space="preserve" xmlns:serif="http://www.serif.com/" style="fill-rule:evenodd;clip-rule:evenodd;stroke-linejoin:round;stroke-miterlimit:2;">
    <g transform="matrix(4.6209,0,0,4.6209,-883.303,-2089.52)">
        <path d="M299.358,463.01C353.106,463.01 396.742,506.646 396.742,560.394C396.742,614.141 353.106,657.777 299.358,657.777C245.611,657.777 201.975,614.141 201.975,560.394C201.975,506.646 245.611,463.01 299.358,463.01ZM298.646,541.754L298.768,541.818C298.959,542.47 299.258,543.084 299.338,543.243L299.358,543.283L299.137,543.268C298.428,543.172 297.857,542.622 297.74,541.911L298.209,541.825L298.646,541.754L298.64,541.751L298.087,541.846L297.74,541.911C287.082,543.996 286.666,550.928 290.697,559.965C285.326,572.22 280.299,585.26 275.643,599.152C281.15,611.079 289.449,619.331 299.129,625.763L299.358,625.915C309.137,619.461 317.524,611.173 323.074,599.152C318.418,585.26 313.39,572.22 308.02,559.965C312.229,550.528 311.589,543.387 299.501,541.663L299.358,541.643L299.721,541.644C330.507,541.895 343.494,574.183 354.803,597.096C361.025,609.7 367.542,616.929 372.461,620.995C355.037,641.986 328.748,655.365 299.358,655.365C269.969,655.365 243.679,641.986 226.256,620.995C231.175,616.929 237.692,609.7 243.913,597.096C255.266,574.094 268.312,541.643 299.358,541.643L299.074,541.683L298.646,541.754ZM319.484,593.726C319.823,594.695 320.16,595.67 320.494,596.648C310.167,603.117 300.128,609.838 290.406,616.831C289.421,615.906 288.461,614.947 287.53,613.95C297.958,607.033 308.625,600.304 319.484,593.726ZM312.971,576.158C313.34,577.096 313.707,578.037 314.072,578.983C302.029,586.455 290.375,594.261 279.148,602.441C278.541,601.346 277.96,600.218 277.407,599.052L277.581,598.536C289.105,590.861 300.923,583.418 312.971,576.158ZM290.648,547.867C296.267,550.83 301.875,553.866 307.474,556.967C307.196,557.724 306.876,558.501 306.522,559.297C306.333,559.719 306.332,560.2 306.517,560.623C306.663,560.957 306.809,561.29 306.954,561.623C299.813,566.157 292.814,570.814 285.966,575.6C286.762,573.584 287.568,571.587 288.382,569.61C293.862,566.098 299.402,562.633 304.994,559.21C300.012,556.586 295.013,554.045 289.998,551.59C289.923,550.209 290.109,548.956 290.648,547.867ZM295.462,544.19C296.576,543.811 297.871,543.516 299.359,543.3C300.801,543.51 302.063,543.794 303.154,544.157C304.32,544.782 305.486,545.411 306.652,546.043C307.017,546.366 307.333,546.714 307.601,547.088C308.372,548.163 308.711,549.436 308.733,550.863C304.323,548.573 299.899,546.348 295.462,544.19ZM299.403,543.293L299.391,543.295L299.501,543.303L299.403,543.293ZM299.198,543.275L299.26,543.28L299.139,543.268L299.198,543.275ZM299,537.637C283.866,537.245 271.507,532.964 261.453,525.458C268.889,521.672 273.15,516.13 279.817,511.375C284.519,508.022 289.947,503.597 299.358,503.597L299.578,503.598C308.855,503.666 314.235,508.048 318.9,511.375C325.567,516.13 329.828,521.672 337.264,525.458C327.13,533.023 314.657,537.312 299.358,537.645L299,537.637ZM313.262,519.989C308.739,516.779 289.983,516.802 285.455,519.989C281.325,522.897 269.913,523.775 269.913,523.775C269.913,523.775 279.766,523.87 284.076,521.839C288.941,519.548 309.817,519.553 314.64,521.839C318.946,523.88 328.803,523.775 328.803,523.775C328.803,523.775 317.381,522.912 313.262,519.989ZM325.942,494.197C325.294,494.197 324.691,494.508 324.205,495.048C323.525,495.806 323.074,497.025 323.074,498.403C323.074,499.781 323.525,501 324.205,501.758C324.691,502.298 325.294,502.609 325.942,502.609C326.59,502.609 327.194,502.298 327.68,501.758C328.36,501 328.811,499.781 328.811,498.403C328.811,497.025 328.36,495.806 327.68,495.048C327.194,494.508 326.59,494.197 325.942,494.197ZM272.774,494.197C273.422,494.197 274.026,494.508 274.512,495.048C275.192,495.806 275.643,497.025 275.643,498.403C275.643,499.781 275.192,501 274.512,501.758C274.026,502.298 273.422,502.609 272.774,502.609C272.126,502.609 271.523,502.298 271.037,501.758C270.356,501 269.906,499.781 269.906,498.403C269.906,497.025 270.356,495.806 271.037,495.048C271.523,494.508 272.126,494.197 272.774,494.197ZM325.942,494.483C327.368,494.483 328.525,496.239 328.525,498.403C328.525,500.567 327.368,502.323 325.942,502.323C324.517,502.323 323.36,500.567 323.36,498.403C323.36,496.239 324.517,494.483 325.942,494.483ZM272.774,494.483C271.349,494.483 270.192,496.239 270.192,498.403C270.192,500.567 271.349,502.323 272.774,502.323C274.2,502.323 275.357,500.567 275.357,498.403C275.357,496.239 274.2,494.483 272.774,494.483ZM325.942,494.848C326.978,494.848 327.819,495.645 327.819,496.626C327.819,497.607 326.978,498.403 325.942,498.403C324.907,498.403 324.066,497.607 324.066,496.626C324.066,495.645 324.907,494.848 325.942,494.848ZM272.774,494.848C271.738,494.848 270.897,495.645 270.897,496.626C270.897,497.607 271.738,498.403 272.774,498.403C273.81,498.403 274.651,497.607 274.651,496.626C274.651,495.645 273.81,494.848 272.774,494.848Z" style="fill:white;"/>
    </g>
</svg>
