<?xml version="1.0" encoding="UTF-8" standalone="no"?>
<!DOCTYPE svg PUBLIC "-//W3C//DTD SVG 1.1//EN" "http://www.w3.org/Graphics/SVG/1.1/DTD/svg11.dtd">
<svg width="100%" height="100%" viewBox="0 0 1000 1000" version="1.1" xmlns="http://www.w3.org/2000/svg" xmlns:xlink="http://www.w3.org/1999/xlink" xml:space="preserve" xmlns:serif="http://www.serif.com/" style="fill-rule:evenodd;clip-rule:evenodd;stroke-linejoin:round;stroke-miterlimit:2;">
    <g transform="matrix(8.28904,0,0,8.11152,-3011.71,-2415.92)">
        <path d="M434.015,304.002C428.651,310.802 423.004,317.005 413.972,320.341C396.036,326.965 392.16,348.431 402.645,352.55C406.848,354.202 409.241,356.98 403.978,359.837C383.948,370.708 377.727,405.468 417.452,413.85C445.425,419.752 471.627,401.459 452.612,372.635C456.941,377.679 464.432,347.896 443.502,339.015C434.58,335.23 431.346,328.109 434.099,320.424C435.871,315.478 436.092,309.685 434.015,304.002ZM419.069,371.76C414.488,372.029 409.972,372.467 405.52,373.065C405.244,373.102 405.015,373.294 404.931,373.559C404.847,373.823 404.922,374.112 405.125,374.302C408.606,377.549 412.182,380.706 415.865,383.76C414.594,389.604 413.72,395.472 413.161,401.36C413.135,401.634 413.266,401.9 413.5,402.045C413.734,402.19 414.03,402.19 414.264,402.046C418.862,399.195 423.322,396.157 427.587,392.85C431.433,395.631 435.393,398.302 439.475,400.854C439.719,401.007 440.031,400.999 440.267,400.834C440.503,400.668 440.618,400.378 440.558,400.096C439.456,394.895 438.257,389.792 436.937,384.813C440.591,381.312 444.031,377.517 447.199,373.349C447.359,373.137 447.392,372.855 447.284,372.613C447.176,372.37 446.945,372.205 446.681,372.182C442.052,371.781 437.489,371.545 432.989,371.471C431.163,365.942 429.139,360.616 426.87,355.538C426.755,355.279 426.499,355.111 426.216,355.106C425.932,355.102 425.672,355.262 425.548,355.518C422.941,360.905 420.805,366.32 419.069,371.76ZM417.12,384.793C416.049,389.857 415.279,394.939 414.749,400.036C418.758,397.522 422.661,394.864 426.407,391.99C424.804,390.815 423.22,389.62 421.656,388.406C420.126,387.22 418.615,386.015 417.12,384.793ZM435.753,385.929C434.54,387.059 433.304,388.157 432.048,389.227C430.97,390.145 429.877,391.042 428.771,391.921C432.029,394.27 435.368,396.541 438.796,398.726C437.856,394.384 436.848,390.113 435.753,385.929ZM431.955,372.917C432.489,374.554 433.005,376.21 433.505,377.883C434.145,380.025 434.758,382.195 435.346,384.39C433.975,385.689 432.573,386.946 431.143,388.165C429.979,389.157 428.796,390.124 427.595,391.068C425.89,389.821 424.206,388.552 422.543,387.262C420.829,385.932 419.137,384.58 417.466,383.207C417.836,381.553 418.239,379.903 418.677,378.254C419.129,376.552 419.617,374.852 420.145,373.156C422.12,373.053 424.107,372.981 426.106,372.942C428.044,372.903 429.993,372.895 431.955,372.917ZM433.468,372.94C433.951,374.438 434.419,375.949 434.874,377.474C435.443,379.382 435.991,381.311 436.52,383.259C439.596,380.25 442.508,377.019 445.227,373.524C441.26,373.207 437.341,373.014 433.468,372.94ZM418.606,373.243C414.767,373.475 410.975,373.826 407.228,374.292C410.155,376.987 413.15,379.616 416.219,382.175C416.548,380.742 416.902,379.312 417.281,377.884C417.692,376.335 418.133,374.788 418.606,373.243ZM426.179,357.583C423.987,362.26 422.147,366.959 420.616,371.676C422.426,371.585 424.246,371.521 426.077,371.484C427.865,371.447 429.664,371.436 431.472,371.452C429.871,366.664 428.115,362.031 426.179,357.583Z" style="fill:white;"/>
    </g>
</svg>
