<?xml version="1.0" encoding="UTF-8" standalone="no"?>
<!DOCTYPE svg PUBLIC "-//W3C//DTD SVG 1.1//EN" "http://www.w3.org/Graphics/SVG/1.1/DTD/svg11.dtd">
<svg width="100%" height="100%" viewBox="0 0 1000 1000" version="1.1" xmlns="http://www.w3.org/2000/svg" xmlns:xlink="http://www.w3.org/1999/xlink" xml:space="preserve" xmlns:serif="http://www.serif.com/" style="fill-rule:evenodd;clip-rule:evenodd;stroke-linejoin:round;stroke-miterlimit:2;">
    <g transform="matrix(3.04924,0,0,3.04924,-785.019,-1994.28)">
        <path d="M351.097,867.5L344.645,880L355.097,880C358.789,880 364.67,888.333 367.965,890C369.119,890.584 371.157,890.511 372.72,890.336C373.702,888.359 375.742,887 378.097,887C381.408,887 384.097,889.689 384.097,893C384.097,896.311 381.408,899 378.097,899C376.08,899 374.294,898.003 373.206,896.475C371.594,896.216 369.224,896.019 368.041,896.808C364.746,899.007 359.058,910 355.097,910L304,910C300.039,910 294.351,899.007 291.056,896.808C289.873,896.019 287.502,896.216 285.89,896.475C284.802,898.003 283.017,899 281,899C277.689,899 275,896.311 275,893C275,889.689 277.689,887 281,887C283.355,887 285.395,888.359 286.377,890.336C287.94,890.511 289.978,890.584 291.132,890C294.427,888.333 300.307,880 304,880L314.452,880L308,867.5L302.274,859L313,859L318.464,867.5L351.097,867.5ZM491.748,867.5L498.2,880L487.748,880C484.056,880 478.175,888.333 474.88,890C473.726,890.584 471.688,890.511 470.125,890.336C469.143,888.359 467.103,887 464.748,887C461.437,887 458.748,889.689 458.748,893C458.748,896.311 461.437,899 464.748,899C466.765,899 468.55,898.003 469.638,896.475C471.25,896.216 473.621,896.019 474.804,896.808C478.099,899.007 483.787,910 487.748,910L538.845,910C542.806,910 548.494,899.007 551.789,896.808C552.972,896.019 555.342,896.216 556.954,896.475C558.042,898.003 559.828,899 561.845,899C565.156,899 567.845,896.311 567.845,893C567.845,889.689 565.156,887 561.845,887C559.49,887 557.45,888.359 556.468,890.336C554.905,890.511 552.867,890.584 551.713,890C548.418,888.333 542.537,880 538.845,880L528.393,880L534.845,867.5L540.571,859L529.845,859L524.381,867.5L491.748,867.5ZM355.097,902C357.301,902 364.097,893 364.097,893C364.097,893 357.486,886.912 355.097,886.912L304,886.912C301.611,886.912 295,893 295,893C295,893 301.795,902 304,902L355.097,902ZM487.748,902C485.543,902 478.748,893 478.748,893C478.748,893 485.359,886.912 487.748,886.912L538.845,886.912C541.234,886.912 547.845,893 547.845,893C547.845,893 541.049,902 538.845,902L487.748,902ZM342.788,811.077C342.968,818.472 335.534,817.553 332,817.814C327.586,818.139 318.114,818.501 319,811.077C308.919,812.833 303.161,817.906 299.128,825C294.573,833.012 290.891,844.99 300,856.687L315,856.687L320,865L356,865L354,868C370.706,862.902 380.278,851.438 384.097,838.361C388.236,824.187 385.618,808.116 378,796.196C370.501,784.461 354.37,777.7 334,777.415C322.312,777.251 279.922,766.131 281,760C278.172,757.628 287.966,749.383 289,749C294.778,746.857 297.214,745.483 297,741.717C296.801,738.214 293.484,736.889 287,739C273.107,743.523 272.479,758.475 275,766.365C280.709,784.23 332.13,785.737 352,793C346.967,794.466 343.665,803.423 342.5,804C342.5,804 342.582,808.536 342.788,811.077ZM500.057,811.077C499.877,818.472 507.311,817.553 510.845,817.814C515.259,818.139 524.731,818.501 523.845,811.077C533.925,812.833 539.684,817.906 543.717,825C548.272,833.012 551.954,844.99 542.845,856.687L527.845,856.687L522.845,865L486.845,865L488.845,868C472.139,862.902 462.567,851.438 458.748,838.361C454.609,824.187 457.227,808.116 464.845,796.196C472.343,784.461 488.474,777.7 508.845,777.415C520.533,777.251 562.923,766.131 561.845,760C564.673,757.628 554.879,749.383 553.845,749C548.066,746.857 545.631,745.483 545.845,741.717C546.043,738.214 549.36,736.889 555.845,739C569.738,743.523 570.366,758.475 567.845,766.365C562.136,784.23 510.714,785.737 490.845,793C495.878,794.466 499.18,803.423 500.345,804C500.345,804 500.263,808.536 500.057,811.077ZM357.121,830C358.949,822.613 356.408,819.713 350.5,820.1C346.427,820.367 340.848,823.7 345,830C338.136,834.204 333.453,838.318 335,842.175C328.672,844.711 327.056,843.479 324.657,848C321.166,854.579 336.344,869.325 344,857C350.47,855.649 355.608,850.815 357.402,844C358.371,840.32 360.546,835.706 357.121,830ZM498.845,857C495.648,856.332 486.746,848.632 492,846C497.381,843.305 516.974,845.712 518.188,848C521.678,854.579 506.5,869.325 498.845,857ZM531.845,842C529.09,848.628 510.961,830.145 516,826.792C521.73,822.978 529.54,825.195 531.845,826C540.086,828.88 535.383,833.489 531.845,842ZM327.298,833.043C327.298,833.043 317.374,826.842 311,826C302.345,824.857 301.926,840.379 311,842C320.26,843.654 327.298,833.043 327.298,833.043ZM498,825C497.301,818.267 510.625,830.726 510,833C506.427,845.992 498.589,843.065 493,836C490.929,833.382 488.636,830.406 498,825ZM341,809C341,814.23 335.226,815.884 332,816.028C328.59,816.18 321,816.725 321,809L320,789L340,793L341,809ZM501.845,809C501.845,814.23 507.619,815.884 510.845,816.028C514.255,816.18 521.845,816.725 521.845,809L522.845,789L502.845,793L501.845,809ZM338,775C338,775 336.721,747.015 336,738C335.697,734.208 321,726 321,726L306,747L318,756L319,772L338,775ZM504.845,775C504.845,775 506.123,747.015 506.845,738C507.148,734.208 521.845,726 521.845,726L536.845,747L524.845,756L523.845,772L504.845,775Z" style="fill:white;"/>
    </g>
</svg>
