<?xml version="1.0" encoding="UTF-8" standalone="no"?>
<!DOCTYPE svg PUBLIC "-//W3C//DTD SVG 1.1//EN" "http://www.w3.org/Graphics/SVG/1.1/DTD/svg11.dtd">
<svg width="100%" height="100%" viewBox="0 0 1000 1000" version="1.1" xmlns="http://www.w3.org/2000/svg" xmlns:xlink="http://www.w3.org/1999/xlink" xml:space="preserve" xmlns:serif="http://www.serif.com/" style="fill-rule:evenodd;clip-rule:evenodd;stroke-linejoin:round;stroke-miterlimit:2;">
    <path d="M454.785,704.731C455.901,700.69 467.582,702.895 467.141,707.063C462.897,747.176 440.051,906.525 429.318,945.41C426.92,954.101 401.796,949.338 402.744,940.372C406.989,900.259 444.053,743.615 454.785,704.731ZM548.885,703.888C560.315,742.573 600.186,898.524 605.15,938.554C606.259,947.501 581.225,952.715 578.671,944.069C567.241,905.384 541.537,746.473 536.573,706.443C536.057,702.283 547.697,699.868 548.885,703.888ZM379.911,671.799C382.487,668.494 392.421,675.02 390.418,678.702C371.141,714.145 289.047,852.635 264.248,884.457C258.706,891.568 237.317,877.553 241.624,869.633C260.902,834.19 355.112,703.621 379.911,671.799ZM500,822.5C516.557,822.5 530,835.943 530,852.5C530,869.057 516.557,882.5 500,882.5C483.443,882.5 470,869.057 470,852.5C470,835.943 483.443,822.5 500,822.5ZM623.153,669.611C648.52,700.983 745.062,829.84 764.973,864.932C769.422,872.773 748.289,887.171 742.62,880.16C717.253,848.788 632.682,711.792 612.771,676.701C610.703,673.056 620.518,666.352 623.153,669.611ZM491.298,600.784C494.167,601.029 497.069,601.154 500,601.154C502.931,601.154 505.833,601.029 508.702,600.784C515.754,655.853 523.969,717.884 523.969,743.356C523.969,764.084 507.99,800.735 500,800.735C492.01,800.735 476.031,764.084 476.031,743.356C476.031,717.884 484.246,655.853 491.298,600.784ZM546.609,589.784C574.198,637.961 605.525,692.126 615.272,715.66C623.205,734.81 622.468,774.785 615.086,777.843C607.705,780.9 578.917,753.154 570.984,734.004C561.237,710.471 545.087,650.019 530.532,596.457C536.115,594.689 541.489,592.449 546.609,589.784ZM453.391,589.784C458.51,592.449 463.885,594.689 469.468,596.457C454.913,650.019 438.763,710.471 429.016,734.004C421.083,753.154 392.295,780.9 384.914,777.843C377.532,774.785 376.795,734.81 384.728,715.66C394.475,692.126 425.802,637.961 453.391,589.784ZM758.883,713.883C775.44,713.883 788.883,727.325 788.883,743.883C788.883,760.44 775.44,773.883 758.883,773.883C742.325,773.883 728.883,760.44 728.883,743.883C728.883,727.325 742.325,713.883 758.883,713.883ZM246.117,713.883C262.675,713.883 276.117,727.325 276.117,743.883C276.117,760.44 262.675,773.883 246.117,773.883C229.56,773.883 216.117,760.44 216.117,743.883C216.117,727.325 229.56,713.883 246.117,713.883ZM323.299,612.771C326.944,610.703 333.648,620.518 330.389,623.153C299.017,648.52 170.16,745.062 135.068,764.973C127.227,769.422 112.829,748.289 119.84,742.62C151.212,717.253 288.208,632.682 323.299,612.771ZM678.702,609.582C714.145,628.859 852.635,710.953 884.457,735.752C891.568,741.294 877.553,762.683 869.633,758.376C834.19,739.098 703.621,644.888 671.799,620.089C668.494,617.513 675.02,607.579 678.702,609.582ZM577.401,565.098C621.326,599.05 671.012,637.115 689.027,655.131C703.684,669.787 718.301,707.002 712.652,712.652C707.002,718.301 669.787,703.684 655.131,689.027C637.115,671.012 599.05,621.326 565.098,577.401C569.542,573.658 573.66,569.54 577.401,565.098ZM422.599,565.098C426.342,569.542 430.46,573.66 434.902,577.401C400.95,621.326 362.885,671.012 344.869,689.027C330.213,703.684 292.998,718.301 287.348,712.652C281.699,707.002 296.316,669.787 310.973,655.131C328.988,637.115 378.674,599.05 422.599,565.098ZM596.457,530.532C650.019,545.087 710.471,561.237 734.004,570.984C753.154,578.917 780.9,607.705 777.843,615.086C774.785,622.468 734.81,623.205 715.66,615.272C692.126,605.525 637.961,574.198 589.784,546.609C592.449,541.49 594.689,536.115 596.457,530.532ZM403.543,530.532C405.311,536.115 407.551,541.489 410.216,546.609C362.039,574.198 307.874,605.525 284.34,615.272C265.19,623.205 225.215,622.468 222.157,615.086C219.1,607.705 246.846,578.917 265.996,570.984C289.529,561.237 349.981,545.087 403.543,530.532ZM293.557,536.573C297.717,536.057 300.132,547.697 296.112,548.885C257.427,560.315 101.476,600.186 61.446,605.15C52.499,606.259 47.285,581.225 55.931,578.671C94.616,567.241 253.527,541.537 293.557,536.573ZM707.063,532.859C747.176,537.103 906.525,559.949 945.41,570.682C954.101,573.08 949.338,598.204 940.372,597.256C900.259,593.011 743.615,555.947 704.731,545.215C700.69,544.099 702.895,532.418 707.063,532.859ZM500,415.705C546.524,415.705 584.295,453.476 584.295,500C584.295,546.524 546.524,584.295 500,584.295C453.476,584.295 415.705,546.524 415.705,500C415.705,453.476 453.476,415.705 500,415.705ZM500,446.081C529.759,446.081 553.919,470.241 553.919,500C553.919,529.759 529.759,553.919 500,553.919C470.241,553.919 446.081,529.759 446.081,500C446.081,470.241 470.241,446.081 500,446.081ZM500,469.654C516.749,469.654 530.346,483.251 530.346,500C530.346,516.749 516.749,530.346 500,530.346C483.251,530.346 469.654,516.749 469.654,500C469.654,483.251 483.251,469.654 500,469.654ZM147.5,470C164.057,470 177.5,483.443 177.5,500C177.5,516.557 164.057,530 147.5,530C130.943,530 117.5,516.557 117.5,500C117.5,483.443 130.943,470 147.5,470ZM852.5,470C869.057,470 882.5,483.443 882.5,500C882.5,516.557 869.057,530 852.5,530C835.943,530 822.5,516.557 822.5,500C822.5,483.443 835.943,470 852.5,470ZM600.784,491.298C655.853,484.246 717.884,476.031 743.356,476.031C764.084,476.031 800.735,492.01 800.735,500C800.735,507.99 764.084,523.969 743.356,523.969C717.884,523.969 655.853,515.754 600.784,508.702C601.029,505.833 601.154,502.931 601.154,500C601.154,497.069 601.029,494.167 600.784,491.298ZM399.216,508.702C344.147,515.754 282.116,523.969 256.644,523.969C235.916,523.969 199.265,507.99 199.265,500C199.265,492.01 235.916,476.031 256.644,476.031C282.116,476.031 344.147,484.246 399.216,491.298C398.971,494.167 398.846,497.069 398.846,500C398.846,502.931 398.971,505.833 399.216,508.702ZM403.543,469.468C349.981,454.913 289.529,438.763 265.996,429.016C246.846,421.083 219.1,392.295 222.157,384.914C225.215,377.532 265.19,376.795 284.34,384.728C307.874,394.475 362.039,425.802 410.216,453.391C407.551,458.51 405.311,463.885 403.543,469.468ZM589.784,453.391C637.961,425.802 692.126,394.475 715.66,384.728C734.81,376.795 774.785,377.532 777.843,384.914C780.9,392.295 753.154,421.083 734.004,429.016C710.471,438.763 650.019,454.913 596.457,469.468C594.689,463.885 592.449,458.511 589.784,453.391ZM295.269,454.785C299.31,455.901 297.105,467.582 292.937,467.141C252.824,462.897 93.475,440.051 54.59,429.318C45.899,426.92 50.662,401.796 59.628,402.744C99.741,406.989 256.385,444.053 295.269,454.785ZM703.888,451.115C742.573,439.685 898.524,399.814 938.554,394.85C947.501,393.741 952.715,418.775 944.069,421.329C905.384,432.759 746.473,458.463 706.443,463.427C702.283,463.943 699.868,452.303 703.888,451.115ZM422.599,434.902C378.674,400.95 328.988,362.885 310.973,344.869C296.316,330.213 281.699,292.998 287.348,287.348C292.998,281.699 330.213,296.316 344.869,310.973C362.885,328.988 400.95,378.674 434.902,422.599C430.458,426.342 426.34,430.46 422.599,434.902ZM565.098,422.599C599.05,378.674 637.115,328.988 655.131,310.973C669.787,296.316 707.002,281.699 712.652,287.348C718.301,292.998 703.684,330.213 689.027,344.869C671.012,362.885 621.326,400.95 577.401,434.902C573.658,430.458 569.54,426.34 565.098,422.599ZM453.391,410.216C425.802,362.039 394.475,307.874 384.728,284.34C376.795,265.19 377.532,225.215 384.914,222.157C392.295,219.1 421.083,246.846 429.016,265.996C438.763,289.529 454.913,349.981 469.468,403.543C463.885,405.311 458.511,407.551 453.391,410.216ZM530.532,403.543C545.087,349.981 561.237,289.529 570.984,265.996C578.917,246.846 607.705,219.1 615.086,222.157C622.468,225.215 623.205,265.19 615.272,284.34C605.525,307.874 574.198,362.039 546.609,410.216C541.49,407.551 536.115,405.311 530.532,403.543ZM491.298,399.216C484.246,344.147 476.031,282.116 476.031,256.644C476.031,235.916 492.01,199.265 500,199.265C507.99,199.265 523.969,235.916 523.969,256.644C523.969,282.116 515.754,344.147 508.702,399.216C505.833,398.971 502.931,398.846 500,398.846C497.069,398.846 494.167,398.971 491.298,399.216ZM328.201,379.911C331.506,382.487 324.98,392.421 321.298,390.418C285.855,371.141 147.365,289.047 115.543,264.248C108.432,258.706 122.447,237.317 130.367,241.624C165.81,260.902 296.379,355.112 328.201,379.911ZM669.611,376.847C700.983,351.48 829.84,254.938 864.932,235.027C872.773,230.578 887.171,251.711 880.16,257.38C848.788,282.747 711.792,367.318 676.701,387.229C673.056,389.297 666.352,379.482 669.611,376.847ZM387.229,323.299C389.297,326.944 379.482,333.648 376.847,330.389C351.48,299.017 254.938,170.16 235.027,135.068C230.578,127.227 251.711,112.829 257.38,119.84C282.747,151.212 367.318,288.208 387.229,323.299ZM609.582,321.298C628.859,285.855 710.953,147.365 735.752,115.543C741.294,108.432 762.683,122.447 758.376,130.367C739.098,165.81 644.888,296.379 620.089,328.201C617.513,331.506 607.579,324.98 609.582,321.298ZM463.427,293.557C463.943,297.717 452.303,300.132 451.115,296.112C439.685,257.427 399.814,101.476 394.85,61.446C393.741,52.499 418.775,47.285 421.329,55.931C432.759,94.616 458.463,253.527 463.427,293.557ZM532.859,292.937C537.103,252.824 559.949,93.475 570.682,54.59C573.08,45.899 598.204,50.662 597.256,59.628C593.011,99.741 555.947,256.385 545.215,295.269C544.099,299.31 532.418,297.105 532.859,292.937ZM745,215C761.557,215 775,228.443 775,245C775,261.557 761.557,275 745,275C728.443,275 715,261.557 715,245C715,228.443 728.443,215 745,215ZM260,215C276.557,215 290,228.443 290,245C290,261.557 276.557,275 260,275C243.443,275 230,261.557 230,245C230,228.443 243.443,215 260,215ZM500,120C516.557,120 530,133.443 530,150C530,166.557 516.557,180 500,180C483.443,180 470,166.557 470,150C470,133.443 483.443,120 500,120Z" style="fill:white;"/>
</svg>
