<?xml version="1.0" encoding="UTF-8" standalone="no"?>
<!DOCTYPE svg PUBLIC "-//W3C//DTD SVG 1.1//EN" "http://www.w3.org/Graphics/SVG/1.1/DTD/svg11.dtd">
<svg width="100%" height="100%" viewBox="0 0 1000 1000" version="1.1" xmlns="http://www.w3.org/2000/svg" xmlns:xlink="http://www.w3.org/1999/xlink" xml:space="preserve" xmlns:serif="http://www.serif.com/" style="fill-rule:evenodd;clip-rule:evenodd;stroke-linejoin:round;stroke-miterlimit:2;">
    <g transform="matrix(0.990207,0,0,0.990207,4.89669,4.89669)">
        <path d="M923.835,646.844L952.197,636.643C957.531,614.305 953.908,588.303 935.802,556.374L918.132,557.582C867.792,447.231 795.569,409.512 713.204,410.912C622.094,412.46 552.981,453.586 507.409,547.11L492.596,547.409C474.371,564.971 467.722,591.084 470.329,624.036L496.909,632.768C492.555,710.75 508.803,768.139 551.751,798.838C542.012,810.586 537.411,820.769 540.889,828.488C646.355,888.824 756.461,889.957 870.618,839.401C870.67,830.177 867.451,819.941 858.362,807.889C898.714,774.843 925.192,726.345 923.835,646.844ZM705.656,446.835C809.617,446.835 894.02,531.232 894.02,635.186C894.02,739.14 809.617,823.538 705.656,823.538C601.696,823.538 517.293,739.14 517.293,635.186C517.293,531.232 601.696,446.835 705.656,446.835ZM499.6,360.317L527.962,350.117C533.296,327.779 529.673,301.777 511.566,269.848L493.897,271.056C443.557,160.705 371.334,122.986 288.969,124.385C197.859,125.933 128.746,167.06 83.174,260.583L68.361,260.883C50.136,278.444 43.486,304.558 46.094,337.51L72.673,346.241C68.32,424.224 84.568,481.612 127.515,512.312C117.777,524.06 113.176,534.242 116.654,541.961C222.119,602.298 332.225,603.431 446.382,552.875C446.435,543.65 443.216,533.414 434.127,521.363C474.479,488.317 500.957,439.818 499.6,360.317ZM281.421,160.309C385.382,160.309 469.785,244.706 469.785,348.66C469.785,452.614 385.382,537.012 281.421,537.012C177.46,537.012 93.057,452.614 93.057,348.66C93.057,244.706 177.46,160.309 281.421,160.309Z" style="fill:white;"/>
    </g>
</svg>
