<?xml version="1.0" encoding="UTF-8" standalone="no"?>
<!DOCTYPE svg PUBLIC "-//W3C//DTD SVG 1.1//EN" "http://www.w3.org/Graphics/SVG/1.1/DTD/svg11.dtd">
<svg width="100%" height="100%" viewBox="0 0 1000 1000" version="1.1" xmlns="http://www.w3.org/2000/svg" xmlns:xlink="http://www.w3.org/1999/xlink" xml:space="preserve" xmlns:serif="http://www.serif.com/" style="fill-rule:evenodd;clip-rule:evenodd;stroke-linejoin:round;stroke-miterlimit:2;">
    <g transform="matrix(6.52618,0,0,6.52618,-3536.78,-2587.23)">
        <path d="M610.105,532L616.105,447L618.552,445L621,447L627,532L618.552,540L610.105,532ZM573.105,443C570.295,449.246 568.723,456.308 568.105,464C552.706,472.786 555.998,487.158 582.105,506C582.512,508.233 584.269,509.64 586.105,511C578.522,509.6 579.875,516.014 581.006,518C583.326,522.075 595.642,524.924 606.105,528C572.793,526.179 555.141,519.818 570.105,504C557.023,492.897 546.643,477.964 550.364,464C552.419,456.289 556.909,446.302 573.105,443ZM664,443C666.809,449.246 668.382,456.308 669,464C684.399,472.786 681.107,487.158 655,506C654.593,508.233 652.836,509.64 651,511C658.582,509.6 657.23,516.014 656.099,518C653.778,522.075 641.463,524.924 631,528C664.312,526.179 681.963,519.818 667,504C680.082,492.897 690.462,477.964 686.74,464C684.685,456.289 680.195,446.302 664,443ZM607.105,514.197L607.105,509.404C594.45,498.915 586.878,487.329 587.685,473.933C588.245,464.655 589.562,454.183 602.519,443.256L603.665,429.835L597.933,426C579.177,437.532 572.887,450.333 571.594,463.388C570.323,476.226 574.681,491.659 589.908,503.652C587.806,503.128 585.851,503.007 584.175,503.652C587.465,512.032 596.385,514.12 607.105,514.197ZM630,514.197L630,509.404C642.654,498.915 650.226,487.329 649.419,473.933C648.86,464.655 647.543,454.183 634.586,443.256L633.439,429.835L639.172,426C657.927,437.532 664.218,450.333 665.51,463.388C666.781,476.226 662.423,491.659 647.197,503.652C649.299,503.128 651.254,503.007 652.929,503.652C649.639,512.032 640.719,514.12 630,514.197ZM600.065,500L606.105,506L611.105,447L610.105,448L600.065,500ZM637.04,500L631,506L626,447L627,448L637.04,500ZM655,501C669.353,489.763 674.977,484.065 667,487C669.288,478.644 668.543,475.877 668,477.576C667.096,480.403 661.569,492.333 655,501ZM582.105,501C567.752,489.763 562.127,484.065 570.105,487C567.816,478.644 568.561,475.877 569.105,477.576C570.009,480.403 575.536,492.333 582.105,501ZM647.935,495.504C647.949,495.481 647.973,495.467 648,495.467C648.027,495.467 648.051,495.481 648.065,495.504L648.391,496.062L649.023,496.201C649.049,496.206 649.07,496.225 649.078,496.251C649.086,496.276 649.081,496.304 649.063,496.324L648.633,496.807L648.697,497.45C648.699,497.477 648.688,497.503 648.666,497.518C648.645,497.534 648.617,497.537 648.592,497.526L648,497.267L647.408,497.526C647.383,497.537 647.355,497.534 647.334,497.518C647.312,497.503 647.301,497.477 647.303,497.45L647.367,496.807L646.937,496.324C646.919,496.304 646.914,496.276 646.922,496.251C646.93,496.225 646.951,496.206 646.977,496.201L647.609,496.062L647.935,495.504ZM589.169,495.504C589.156,495.481 589.131,495.467 589.105,495.467C589.078,495.467 589.053,495.481 589.04,495.504L588.713,496.062L588.082,496.201C588.056,496.206 588.035,496.225 588.026,496.251C588.018,496.276 588.024,496.304 588.042,496.324L588.471,496.807L588.408,497.45C588.405,497.477 588.417,497.503 588.438,497.518C588.46,497.534 588.488,497.537 588.512,497.526L589.105,497.267L589.697,497.526C589.721,497.537 589.749,497.534 589.771,497.518C589.792,497.503 589.804,497.477 589.801,497.45L589.738,496.807L590.168,496.324C590.185,496.304 590.191,496.276 590.183,496.251C590.175,496.225 590.154,496.206 590.128,496.201L589.496,496.062L589.169,495.504ZM653.855,484.276C653.879,484.234 653.924,484.208 653.973,484.208C654.022,484.208 654.067,484.234 654.092,484.276L654.692,485.3L655.852,485.554C655.899,485.565 655.938,485.6 655.953,485.646C655.968,485.693 655.957,485.744 655.925,485.78L655.136,486.667L655.253,487.849C655.258,487.898 655.236,487.945 655.197,487.974C655.157,488.002 655.106,488.008 655.061,487.988L653.973,487.512L652.886,487.988C652.841,488.008 652.789,488.002 652.75,487.974C652.71,487.945 652.689,487.898 652.694,487.849L652.81,486.667L652.021,485.78C651.989,485.744 651.978,485.693 651.993,485.646C652.008,485.6 652.047,485.565 652.095,485.554L653.255,485.3L653.855,484.276ZM583.25,484.276C583.225,484.234 583.18,484.208 583.131,484.208C583.083,484.208 583.037,484.234 583.013,484.276L582.413,485.3L581.253,485.554C581.205,485.565 581.167,485.6 581.151,485.646C581.136,485.693 581.147,485.744 581.18,485.78L581.969,486.667L581.852,487.849C581.847,487.898 581.868,487.945 581.908,487.974C581.947,488.002 581.999,488.008 582.044,487.988L583.131,487.512L584.219,487.988C584.264,488.008 584.316,488.002 584.355,487.974C584.394,487.945 584.416,487.898 584.411,487.849L584.294,486.667L585.083,485.78C585.116,485.744 585.126,485.693 585.111,485.646C585.096,485.6 585.058,485.565 585.01,485.554L583.85,485.3L583.25,484.276ZM579.921,470.359C579.879,470.286 579.802,470.242 579.718,470.242C579.634,470.242 579.556,470.286 579.514,470.359L578.483,472.119L576.49,472.556C576.408,472.574 576.341,472.634 576.316,472.714C576.29,472.793 576.308,472.881 576.364,472.944L577.72,474.468L577.519,476.499C577.511,476.582 577.547,476.664 577.615,476.713C577.683,476.762 577.772,476.772 577.849,476.738L579.718,475.92L581.587,476.738C581.664,476.772 581.752,476.762 581.82,476.713C581.888,476.664 581.925,476.582 581.917,476.499L581.716,474.468L583.072,472.944C583.127,472.881 583.146,472.793 583.12,472.714C583.094,472.634 583.028,472.574 582.946,472.556L580.953,472.119L579.921,470.359ZM657.183,470.359C657.225,470.286 657.303,470.242 657.387,470.242C657.471,470.242 657.548,470.286 657.591,470.359L658.622,472.119L660.615,472.556C660.697,472.574 660.763,472.634 660.789,472.714C660.815,472.793 660.797,472.881 660.741,472.944L659.385,474.468L659.586,476.499C659.594,476.582 659.557,476.664 659.49,476.713C659.422,476.762 659.333,476.772 659.256,476.738L657.387,475.92L655.518,476.738C655.441,476.772 655.352,476.762 655.284,476.713C655.216,476.664 655.18,476.582 655.188,476.499L655.389,474.468L654.033,472.944C653.977,472.881 653.959,472.793 653.985,472.714C654.011,472.634 654.077,472.574 654.159,472.556L656.152,472.119L657.183,470.359ZM580.915,455.886C580.859,455.792 580.758,455.733 580.648,455.733C580.538,455.733 580.436,455.792 580.381,455.886L579.031,458.192L576.421,458.764C576.313,458.787 576.227,458.866 576.193,458.97C576.159,459.075 576.183,459.189 576.256,459.271L578.031,461.268L577.768,463.927C577.758,464.036 577.806,464.143 577.894,464.207C577.983,464.272 578.1,464.285 578.2,464.241L580.648,463.169L583.095,464.241C583.196,464.285 583.312,464.272 583.401,464.207C583.49,464.143 583.538,464.036 583.527,463.927L583.264,461.268L585.04,459.271C585.113,459.189 585.137,459.075 585.103,458.97C585.069,458.866 584.982,458.787 584.875,458.764L582.265,458.192L580.915,455.886ZM656.19,455.886C656.245,455.792 656.347,455.733 656.457,455.733C656.567,455.733 656.668,455.792 656.724,455.886L658.074,458.192L660.684,458.764C660.791,458.787 660.878,458.866 660.912,458.97C660.946,459.075 660.922,459.189 660.849,459.271L659.073,461.268L659.336,463.927C659.347,464.036 659.299,464.143 659.21,464.207C659.121,464.272 659.005,464.285 658.904,464.241L656.457,463.169L654.009,464.241C653.909,464.285 653.792,464.272 653.703,464.207C653.615,464.143 653.567,464.036 653.577,463.927L653.84,461.268L652.065,459.271C651.992,459.189 651.968,459.075 652.002,458.97C652.036,458.866 652.122,458.787 652.23,458.764L654.84,458.192L656.19,455.886ZM644.685,437.951C644.753,437.834 644.878,437.763 645.013,437.763C645.148,437.763 645.272,437.834 645.34,437.951L646.998,440.781L650.202,441.482C650.333,441.511 650.44,441.608 650.481,441.736C650.523,441.864 650.494,442.005 650.404,442.106L648.225,444.556L648.547,447.82C648.561,447.954 648.502,448.085 648.393,448.165C648.284,448.244 648.141,448.259 648.017,448.205L645.013,446.89L642.009,448.205C641.885,448.259 641.742,448.244 641.633,448.165C641.524,448.085 641.465,447.954 641.478,447.82L641.801,444.556L639.622,442.106C639.532,442.005 639.503,441.864 639.544,441.736C639.586,441.608 639.692,441.511 639.824,441.482L643.028,440.781L644.685,437.951ZM592.419,437.951C592.351,437.834 592.227,437.763 592.092,437.763C591.957,437.763 591.832,437.834 591.764,437.951L590.107,440.781L586.903,441.482C586.771,441.511 586.665,441.608 586.623,441.736C586.582,441.864 586.611,442.005 586.701,442.106L588.88,444.556L588.557,447.82C588.544,447.954 588.603,448.085 588.712,448.165C588.821,448.244 588.964,448.259 589.087,448.205L592.092,446.89L595.096,448.205C595.22,448.259 595.362,448.244 595.471,448.165C595.581,448.085 595.639,447.954 595.626,447.82L595.303,444.556L597.483,442.106C597.573,442.005 597.602,441.864 597.56,441.736C597.519,441.608 597.412,441.511 597.28,441.482L594.077,440.781L592.419,437.951ZM618.552,406.106L624.938,418.817L639,420.962L628.884,430.963L631.19,445L618.552,438.47L605.915,445L608.221,430.963L598.105,420.962L612.167,418.817L618.552,406.106ZM629.425,442.998L618.593,428L618.552,437.3L629.425,442.998ZM607.542,442.936L618.458,428L609.6,430.835L607.542,442.936ZM636.611,421.71L619,427.377L627.833,430.29L636.611,421.71ZM600.88,421.733L618.458,427.5L613.025,419.952L600.88,421.733ZM618.552,408.5L618.5,427L624,419.5L618.552,408.5Z" style="fill:white;"/>
    </g>
</svg>
