<?xml version="1.0" encoding="UTF-8" standalone="no"?>
<!DOCTYPE svg PUBLIC "-//W3C//DTD SVG 1.1//EN" "http://www.w3.org/Graphics/SVG/1.1/DTD/svg11.dtd">
<svg width="100%" height="100%" viewBox="0 0 1000 1000" version="1.1" xmlns="http://www.w3.org/2000/svg" xmlns:xlink="http://www.w3.org/1999/xlink" xml:space="preserve" xmlns:serif="http://www.serif.com/" style="fill-rule:evenodd;clip-rule:evenodd;stroke-linejoin:round;stroke-miterlimit:2;">
    <g transform="matrix(7.03337,0,0,7.03337,-1912.77,-4678.46)">
        <path d="M343.047,672.289L343.093,672.289C350.188,672.289 355.949,678.049 355.949,685.144C355.949,690.877 352.188,695.739 347,697.394L347,702C369.855,706.965 382.304,724.299 381,739L376.06,793.336C376.648,794.065 377,794.992 377,796C377,798.346 375.096,800.25 372.75,800.25C370.404,800.25 368.5,798.346 368.5,796C368.5,795.277 368.681,794.596 369,794L346.843,794C347.162,794.596 347.343,795.277 347.343,796C347.343,798.346 345.439,800.25 343.093,800.25L343.047,800.249L343,800.25C340.654,800.25 338.75,798.346 338.75,796C338.75,795.277 338.931,794.596 339.25,794L317.093,794C317.412,794.596 317.593,795.277 317.593,796C317.593,798.346 315.689,800.25 313.343,800.25C310.997,800.25 309.093,798.346 309.093,796C309.093,794.992 309.445,794.065 310.033,793.336L305.093,739C303.789,724.299 316.238,706.965 339.093,702L339.093,697.394C333.905,695.739 330.144,690.877 330.144,685.144C330.144,678.049 335.905,672.289 343,672.289L343.047,672.289ZM362,775L362,781L368,781L368,775L362,775ZM353.517,775L353.517,781L347.517,781L347.517,775L353.517,775ZM324.093,775L324.093,781L318.093,781L318.093,775L324.093,775ZM332.576,775L332.576,781L338.576,781L338.576,775L332.576,775ZM355,737L348,737L348,766L354,766L355,737ZM331.093,737L338.093,737L338.093,766L332.093,766L331.093,737ZM365,737L371,737L369,765L364,765L365,737ZM321.093,737L315.093,737L317.093,765L322.093,765L321.093,737ZM370,727.5L363.5,727.5C363.016,723.673 361.705,720.242 360,717C363.956,719.191 367.361,722.54 370,727.5ZM347,715L347,727.5L354.5,727.5C352.803,722.276 350.349,718.049 347,715ZM316.093,727.5L322.593,727.5C323.077,723.673 324.388,720.242 326.093,717C322.137,719.191 318.732,722.54 316.093,727.5ZM339.093,715L339.093,727.5L331.593,727.5C333.29,722.276 335.744,718.049 339.093,715ZM343.047,679.583C339.998,679.608 337.531,682.09 337.531,685.144C337.531,688.198 339.998,690.681 343.047,690.706C346.095,690.681 348.562,688.198 348.562,685.144C348.562,682.09 346.095,679.608 343.047,679.583Z" style="fill:white;"/>
    </g>
</svg>
