<?xml version="1.0" encoding="UTF-8" standalone="no"?>
<!DOCTYPE svg PUBLIC "-//W3C//DTD SVG 1.1//EN" "http://www.w3.org/Graphics/SVG/1.1/DTD/svg11.dtd">
<svg width="100%" height="100%" viewBox="0 0 1000 1000" version="1.1" xmlns="http://www.w3.org/2000/svg" xmlns:xlink="http://www.w3.org/1999/xlink" xml:space="preserve" xmlns:serif="http://www.serif.com/" style="fill-rule:evenodd;clip-rule:evenodd;stroke-linejoin:round;stroke-miterlimit:2;">
    <g transform="matrix(0.946293,0,0,0.946293,26.8533,26.8533)">
        <path d="M284.754,350.169C208.392,469.888 226.413,614.659 196.216,731.9C176.571,808.173 113.797,839.451 81.229,818.767C51.65,798.413 34.411,761.651 27.256,716.312C17.489,654.431 32.688,568.982 82.771,483.162C132.918,397.234 171.421,305.255 231.289,266.921C256.647,250.683 295.656,261.192 339.14,277.207C412.984,235.623 506.744,212.216 634.678,219.995C673.689,186.038 711.974,164.636 740.03,180.139C830.762,230.274 913.282,321.159 950.232,421.855C985.408,517.714 982.395,618.85 950.594,693.194C886.541,744.087 849.661,730.756 832.694,656.323C933.794,468.729 823.075,348.654 686.194,248.575C850.334,379.407 888.359,513.767 822.351,651.037C730.216,752.382 607.108,792.452 495.252,792.08C353.356,791.608 254.335,734.664 230.311,611.578C232.475,524.027 249.149,436.853 284.754,350.169ZM695.501,734.643C622.156,765.074 543.919,782.226 459.343,782.17C496.716,744.354 534.455,707.479 573.337,673.551C613.501,689.731 654.393,711.375 695.501,734.643ZM360.263,510.774C366.555,509.4 379.655,529.694 379.655,529.694C379.655,529.694 403.457,525.579 406.708,531.138C409.96,536.697 394.707,555.427 394.707,555.427C394.707,555.427 405.976,576.792 401.694,581.602C397.412,586.413 374.885,577.695 374.885,577.695C374.885,577.695 358.048,595.014 352.15,592.428C346.251,589.842 347.582,565.724 347.582,565.724C347.582,565.724 325.907,555.062 326.544,548.653C327.181,542.245 350.53,536.057 350.53,536.057C350.53,536.057 353.972,512.149 360.263,510.774ZM708.224,446.451C714.4,444.627 728.925,463.927 728.925,463.927C728.925,463.927 752.369,458.112 756.012,463.423C759.655,468.734 745.789,488.511 745.789,488.511C745.789,488.511 758.564,509.011 754.639,514.117C750.713,519.223 727.619,512.147 727.619,512.147C727.619,512.147 712.07,530.631 706.001,528.476C699.932,526.321 699.525,502.17 699.525,502.17C699.525,502.17 677.14,493.094 677.315,486.656C677.489,480.218 700.333,472.368 700.333,472.368C700.333,472.368 702.047,448.274 708.224,446.451Z" style="fill:white;"/>
    </g>
</svg>
