<?xml version="1.0" encoding="UTF-8" standalone="no"?>
<!DOCTYPE svg PUBLIC "-//W3C//DTD SVG 1.1//EN" "http://www.w3.org/Graphics/SVG/1.1/DTD/svg11.dtd">
<svg width="100%" height="100%" viewBox="0 0 1000 1000" version="1.1" xmlns="http://www.w3.org/2000/svg" xmlns:xlink="http://www.w3.org/1999/xlink" xml:space="preserve" xmlns:serif="http://www.serif.com/" style="fill-rule:evenodd;clip-rule:evenodd;stroke-linejoin:round;stroke-miterlimit:2;">
    <g transform="matrix(1.4638,0,0,1.4876,-231.901,-184.298)">
        <path d="M500,157.5C669.669,157.5 807.419,293.046 807.419,460C807.419,626.954 669.669,762.5 500,762.5C330.331,762.5 192.581,626.954 192.581,460C192.581,293.046 330.331,157.5 500,157.5ZM615.457,709.625C593.3,709.708 557.325,710.796 530,701.854C518.776,698.181 510.679,690.79 505,683C473.417,714.46 429.523,728.644 346.821,688.366C390.606,717.81 443.311,735 500,735C541.223,735 580.339,725.91 615.457,709.625ZM433.105,648.593C413.133,648.401 391.123,654.456 367,667C409.923,661.47 441.484,660.325 445,670L440,680C429.104,676.276 406.914,677.172 380,680C421.489,696.898 458.353,696.764 487.44,668C478.178,660.713 468.258,655.45 457.669,652.26C454.788,652.465 451.896,652.375 449,651.974C443.998,651.284 438.622,650.218 433.105,648.593ZM633.243,612.056L632.914,612C619.532,615.16 606.086,623.217 592.233,635C577.165,647.816 559.506,652.971 545,654.974C532.087,656.758 519.272,652.397 507,643L506.752,642.839C506.367,662.135 531.368,688.494 583,688.061C619.209,687.757 640.842,679.389 650,672.822C659.326,666.134 666.97,658.992 668.215,655C673.634,637.612 667.333,624.609 652.999,625C649.647,625.091 647.91,632.425 651,655L630,660C627.948,649.765 625.013,641.508 626.179,635C628.335,622.969 630.903,616.308 633.243,612.056ZM400.731,631.125C387.244,619.819 374.135,612.082 361.086,609L314,617L304,610C316.393,571.585 307.488,546.332 289,527C272.743,508.996 262.012,489.995 262.991,472C263.797,457.163 271.204,442.329 286.433,427.5C271.204,412.671 263.797,397.837 262.991,383C262.012,365.005 272.743,346.004 289,328C304.471,311.823 313.231,291.5 308.417,262.791C256.975,312.779 225,382.685 225,460C225,544.13 262.86,619.487 322.46,669.95C346.912,653.352 370.85,639.35 400.731,631.125ZM692.658,656.159C743.463,606.26 775,536.784 775,460C775,380.029 740.79,307.985 686.219,257.716C678.123,290.858 687.016,313.498 703.929,331.183C720.186,349.187 730.917,368.188 729.938,386.183C729.143,400.815 721.929,415.443 707.122,430.069C722.651,445.041 730.195,460.019 731.009,475C731.988,492.995 721.257,511.996 705,530C686.512,549.332 677.607,574.585 690,613L683.91,617.263C691.738,630.573 694.838,643.538 692.658,656.159ZM669.91,424.411C669.97,426.273 670,428.133 670,430C670,523.826 593.826,600 500,600C495.778,600 491.591,599.846 487.44,599.542C507.175,623.342 525.47,633.436 540,633.598C553.497,633.75 568.8,626.092 582,615C606.21,595.576 633.637,587.872 663,592C663.362,576.336 659.644,558.003 668.102,545C687.191,515.653 699.323,505.202 705,490C716.359,468.099 697.788,446.247 669.91,424.411ZM330.412,418.08C300.154,441.024 277.063,463.985 289,487C294.677,502.202 306.809,512.653 325.898,542C334.356,555.003 330.638,573.336 331,589C360.363,584.872 387.79,592.576 412,612C425.2,623.092 440.503,630.75 454,630.598C465.814,630.466 468.824,631.436 478.413,621.95C468.763,613.544 460.465,604.335 454.399,593.804C382.692,573.86 330,508.035 330,430C330,425.994 330.139,422.019 330.412,418.08ZM520.529,578.603C544.048,515.835 530.575,465.448 494.478,430C462.64,398.734 417.738,380.339 355.465,389.773C351.904,402.575 350,416.067 350,430C350,512.787 417.213,580 500,580C506.962,580 513.815,579.525 520.529,578.603ZM648.828,448.819C632.393,441.556 616.921,436.41 600,439.411C581.359,442.717 562.692,451.58 544,466C557.895,500.348 559.197,535.824 546.852,572.525C600.984,554.718 641.547,506.909 648.828,448.819ZM602.594,418.103C596.059,409.45 587.701,404.338 580,405.682C561.49,408.913 543.947,419.162 526.1,433.498C529.792,438.063 533.001,442.457 535,446C557.38,428.9 579.91,419.575 602.594,418.103ZM628.436,352.517C618.651,362.433 610.275,373.454 612.131,385C614.588,400.289 622.919,410.829 632.591,420.714C638.373,422.092 644.159,423.974 649.956,426.362C649.313,399.386 641.533,374.163 628.436,352.517ZM540.785,348.962C535.056,368.454 522.272,387.419 499.662,406C500.941,406.356 507.579,412.684 514.923,420.635C524.117,412.417 535.537,401.613 551.396,382C557.29,374.711 550.264,360.705 540.785,348.962ZM692.102,415.501C701.472,404.509 713.13,376.933 703.929,371.183C698.252,355.981 686.12,345.53 667.031,316.183C658.573,303.18 662.291,284.847 661.929,269.183C632.566,273.311 605.139,265.607 580.929,246.183C567.729,235.091 552.426,227.434 538.929,227.585C524.641,227.745 506.712,237.508 487.353,260.464C491.536,260.156 495.75,260 500,260C582.144,260 650.759,318.388 666.57,395.888C675.479,401.041 683.894,407.912 692.102,415.501ZM481.238,235.941C469.303,223.377 466.899,224.546 454,224.402C440.503,224.25 425.2,231.908 412,243C387.79,262.424 360.363,270.128 331,266C330.638,281.664 334.356,299.997 325.898,313C306.809,342.347 294.677,352.798 289,368C278.671,387.914 282.741,395.422 303.494,411.808C313.951,402.865 325.873,393.691 335.291,387.788C350.302,329.135 395.848,282.655 453.946,266.323C460.774,254.852 470.258,244.954 481.238,235.941ZM605,361C591.73,365.996 578.399,365.832 565,360C571.365,373.513 569.708,385.449 561,396C574.461,390.134 587.795,390.75 601,398C595.864,385.531 597.396,373.202 605,361ZM510.712,280.378C507.173,280.127 503.601,280 500,280C439.425,280 387.187,315.985 363.516,367.731C406.944,360.222 445.776,370.556 482,392C484.148,390.711 492.545,382.705 497,377C501.479,371.264 515.039,358.455 521.867,340C524.929,331.726 523.428,322.812 522.658,315C521.167,299.882 516.275,287.269 510.712,280.378ZM617.654,336.99C597.848,311.979 570.25,293.424 538.544,285.007C542.541,298.621 544.773,311.938 544.463,325.002L544.463,325C567.092,354.564 591.494,358.465 617.654,336.99ZM668.75,242.912C622.148,206.623 563.579,185 500,185C437.377,185 379.615,205.977 333.356,241.289L361.086,246C374.468,242.84 387.914,234.783 401.767,223C416.835,210.184 434.494,205.029 449,203.026C461.913,201.242 474.728,205.603 487,215C492.012,218.255 495.316,221.221 497.397,223.879C500.197,221.951 503.045,220.056 505.929,218.183C518.201,208.786 531.016,204.425 543.929,206.209C558.435,208.212 576.094,213.367 591.162,226.183C605.015,237.966 618.461,246.023 631.843,249.183L668.75,242.912Z" style="fill:white;"/>
    </g>
</svg>
