<?xml version="1.0" encoding="UTF-8" standalone="no"?>
<!DOCTYPE svg PUBLIC "-//W3C//DTD SVG 1.1//EN" "http://www.w3.org/Graphics/SVG/1.1/DTD/svg11.dtd">
<svg width="100%" height="100%" viewBox="0 0 1000 1000" version="1.1" xmlns="http://www.w3.org/2000/svg" xmlns:xlink="http://www.w3.org/1999/xlink" xml:space="preserve" xmlns:serif="http://www.serif.com/" style="fill-rule:evenodd;clip-rule:evenodd;stroke-linejoin:round;stroke-miterlimit:2;">
    <g transform="matrix(15.5353,0,0,15.5353,-5005.7,-6317.46)">
        <path d="M365.397,445.053L364.672,444.328C363.969,443.625 362.901,443.437 362,443.857L347,450.857C346.419,451.128 345.973,451.624 345.764,452.23C345.556,452.836 345.602,453.501 345.893,454.073C349.398,460.96 353.36,464.317 357.067,465.789C362.866,468.092 368.307,465.877 371.525,464.059C373.62,462.875 376.285,459.764 377.738,456.117C379.116,452.662 379.38,448.803 377.584,445.702C376.377,443.616 374.234,441.791 370.674,440.733C369.523,440.392 368.299,440.966 367.827,442.069L366.645,444.826C366.532,445.089 366.281,445.267 365.995,445.285C365.995,445.285 365.844,445.312 365.651,445.227C365.556,445.187 365.469,445.128 365.397,445.053ZM351.745,454.817L351.741,454.811C354.036,458.428 356.432,460.449 358.812,461.394C362.989,463.052 366.881,461.251 369.199,459.941C370.643,459.126 372.344,456.879 373.346,454.366C374.178,452.277 374.577,449.946 373.492,448.072C373.157,447.494 372.685,446.98 372.065,446.534C371.878,446.399 371.64,446.356 371.417,446.418C371.195,446.48 371.013,446.639 370.922,446.851L369.173,450.931C368.864,451.653 368.218,452.174 367.447,452.322C366.677,452.47 365.883,452.227 365.328,451.672C365.328,451.672 363.342,449.686 362.944,449.288C362.597,448.941 361.693,449.219 362.016,449.068L352.061,453.714C351.738,453.865 351.563,454.22 351.64,454.568C351.66,454.659 351.696,454.743 351.745,454.817L351.772,454.856C351.763,454.844 351.754,454.831 351.745,454.817ZM352.334,455.162L352.383,455.164L352.324,455.161L352.334,455.162ZM352.286,455.158L352.306,455.159L352.263,455.154L352.286,455.158ZM352.146,455.126L352.179,455.135L352.136,455.122L352.146,455.126ZM352.102,455.11L352.117,455.115L352.079,455.1L352.102,455.11ZM352.014,455.068L352.064,455.093L352.014,455.068ZM351.976,455.046L352.004,455.063L351.964,455.038L351.976,455.046ZM351.936,455.019L351.951,455.029L351.914,455.001L351.936,455.019ZM351.86,454.956L351.904,454.994L351.86,454.956ZM351.829,454.925L351.855,454.951L351.82,454.915L351.829,454.925ZM351.798,454.889L351.809,454.902L351.782,454.869L351.798,454.889ZM334.718,437.036C335.009,436.868 335.155,436.528 335.077,436.201C334.999,435.874 334.716,435.637 334.381,435.618L327.662,435.234C326.359,435.16 325.362,434.041 325.436,432.738C325.511,431.435 326.629,430.438 327.932,430.513C327.932,430.513 346.927,431.598 346.927,431.598C347.794,431.647 348.564,432.168 348.933,432.954C349.302,433.74 349.21,434.665 348.694,435.364C348.694,435.364 335.631,453.045 335.631,453.045C334.856,454.094 333.374,454.317 332.325,453.541C331.275,452.766 331.052,451.284 331.828,450.234C331.828,450.234 337.479,442.585 337.479,442.585C337.693,442.295 337.675,441.895 337.435,441.627C337.195,441.358 336.799,441.294 336.487,441.475L333.943,442.943C332.813,443.596 331.365,443.208 330.713,442.078C330.06,440.948 330.448,439.5 331.579,438.848C331.579,438.848 334.718,437.036 334.718,437.036ZM374.061,427.869C373.77,428.038 373.626,428.378 373.705,428.705C373.784,429.031 374.068,429.267 374.404,429.285L381.124,429.639C382.428,429.707 383.43,430.821 383.361,432.124C383.293,433.428 382.179,434.43 380.876,434.361C380.876,434.361 361.876,433.361 361.876,433.361C361.009,433.316 360.236,432.798 359.864,432.014C359.492,431.23 359.579,430.304 360.092,429.603C360.092,429.603 373.075,411.864 373.075,411.864C373.845,410.811 375.326,410.582 376.379,411.352C377.432,412.123 377.662,413.604 376.891,414.657C376.891,414.657 371.274,422.332 371.274,422.332C371.061,422.623 371.082,423.023 371.323,423.29C371.564,423.558 371.96,423.619 372.271,423.438L374.809,421.958C375.936,421.3 377.385,421.681 378.042,422.809C378.7,423.936 378.319,425.385 377.191,426.042C377.191,426.042 374.061,427.869 374.061,427.869Z" style="fill:white;"/>
    </g>
</svg>
