<?xml version="1.0" encoding="UTF-8" standalone="no"?>
<!DOCTYPE svg PUBLIC "-//W3C//DTD SVG 1.1//EN" "http://www.w3.org/Graphics/SVG/1.1/DTD/svg11.dtd">
<svg width="100%" height="100%" viewBox="0 0 1000 1000" version="1.1" xmlns="http://www.w3.org/2000/svg" xmlns:xlink="http://www.w3.org/1999/xlink" xml:space="preserve" xmlns:serif="http://www.serif.com/" style="fill-rule:evenodd;clip-rule:evenodd;stroke-linejoin:round;stroke-miterlimit:2;">
    <g transform="matrix(7.15004,0,0,7.15004,-4158.58,-2838.74)">
        <path d="M648.514,485.204L633.296,469.987L626.906,476.216C626.906,476.216 616.358,487.079 611.22,491.695C613.072,488.474 615.097,485.351 617.349,482.267C618.74,480.362 620.218,478.472 621.797,476.582L606.611,476.582C603.232,480.285 599.805,483.548 596.371,486.746C598.817,482.313 601.171,477.974 603.352,473.807L599.272,469.83C595.637,469.141 592.094,468.154 588.61,466.975C592.094,465.796 595.637,464.808 599.272,464.119L603.352,460.143C601.171,455.976 598.817,451.636 596.371,447.204C599.805,450.401 603.232,453.665 606.611,457.368L621.797,457.368C620.218,455.478 618.74,453.588 617.349,451.682C615.097,448.599 613.072,445.476 611.22,442.254C616.358,446.871 626.906,457.733 626.906,457.733L633.297,463.964L648.542,448.718L642.313,442.328C642.313,442.328 631.451,431.78 626.834,426.642C630.055,428.494 633.178,430.519 636.262,432.771C638.167,434.162 640.057,435.64 641.947,437.219L641.947,422.033C638.245,418.654 634.981,415.227 631.784,411.793C636.216,414.239 640.555,416.593 644.722,418.774L648.699,414.694C649.388,411.059 650.376,407.516 651.554,404.032C652.733,407.516 653.721,411.059 654.41,414.694L658.387,418.774C662.554,416.593 666.893,414.239 671.325,411.793C668.128,415.227 664.864,418.654 661.161,422.033L661.161,437.219C663.051,435.64 664.942,434.162 666.847,432.771C669.931,430.519 673.053,428.494 676.275,426.642C671.658,431.78 660.796,442.328 660.796,442.328L654.58,448.704L669.797,463.922L676.188,457.692C676.188,457.692 686.735,446.83 691.873,442.213C690.021,445.435 687.997,448.557 685.745,451.641C684.353,453.546 682.875,455.437 681.297,457.327L696.482,457.327C699.862,453.624 703.289,450.36 706.722,447.163C704.276,451.595 701.923,455.934 699.742,460.101L703.821,464.078C707.456,464.767 710.999,465.755 714.484,466.934C710.999,468.112 707.456,469.1 703.821,469.789L699.742,473.766C701.923,477.933 704.276,482.272 706.722,486.705C703.289,483.507 699.862,480.243 696.482,476.541L681.297,476.541C682.875,478.431 684.353,480.321 685.745,482.226C687.997,485.31 690.021,488.433 691.873,491.654C686.735,487.038 676.188,476.175 676.188,476.175L669.797,469.945L654.551,485.19L660.781,491.581C660.781,491.581 671.643,502.129 676.26,507.266C673.038,505.415 669.916,503.39 666.832,501.138C664.927,499.747 663.036,498.268 661.146,496.69L661.146,511.875C664.849,515.255 668.113,518.682 671.31,522.116C666.878,519.669 662.539,517.316 658.371,515.135L654.395,519.214C653.706,522.849 652.718,526.392 651.539,529.877C650.361,526.392 649.373,522.849 648.684,519.214L644.707,515.135C640.54,517.316 636.201,519.669 631.768,522.116C634.966,518.682 638.23,515.255 641.932,511.875L641.932,496.69C640.042,498.268 638.152,499.747 636.247,501.138C633.163,503.39 630.04,505.415 626.819,507.266C631.435,502.129 642.298,491.581 642.298,491.581L648.514,485.204ZM707.738,525.294C703.658,529.989 701.081,527.01 703.551,523.818C700.669,523.524 697.864,519.58 695.065,515.332L686.58,519.575L691.176,511.443C688.889,513.932 678.566,499.009 669.108,486.56L669.4,486.782C681.789,496.179 696.46,506.358 693.991,508.628L702.123,504.032L697.88,512.517C702.128,515.316 706.072,518.121 706.366,521.003C709.571,518.523 712.56,521.131 707.786,525.239L707.738,525.294ZM593.179,523.131C588.484,519.052 591.463,516.474 594.655,518.944C594.949,516.062 598.893,513.257 603.141,510.458L598.898,501.973L607.03,506.569C604.541,504.282 619.464,493.959 631.913,484.501L631.691,484.793C622.294,497.182 612.115,511.853 609.845,509.384L614.441,517.516L605.956,513.273C603.157,517.521 600.352,521.465 597.47,521.759C599.95,524.964 597.342,527.953 593.234,523.18L593.179,523.131ZM651.539,488.91C651.539,488.91 645.115,495.528 645.115,495.528L645.114,495.737L645.093,495.743C645.093,495.743 645.104,502.345 645.104,502.345L645.093,508.947C645.093,508.947 645.114,508.952 645.114,508.952L645.115,509.162L651.539,515.78C651.539,515.78 657.964,509.162 657.964,509.162L657.964,508.952L657.986,508.947C657.986,508.947 657.975,502.345 657.975,502.345L657.986,495.743C657.986,495.743 657.964,495.737 657.964,495.737L657.964,495.528L651.539,488.91ZM636.746,466.933L651.568,481.755L666.347,466.976L651.525,452.154L636.746,466.933ZM629.577,466.975C629.577,466.975 622.959,460.55 622.959,460.55L622.749,460.55L622.744,460.528C622.744,460.528 616.142,460.539 616.142,460.539L609.54,460.528C609.54,460.528 609.535,460.55 609.535,460.55L609.325,460.55L602.707,466.975C602.707,466.975 609.325,473.399 609.325,473.399L609.535,473.4L609.54,473.421C609.54,473.421 616.142,473.411 616.142,473.411L622.744,473.421C622.744,473.421 622.749,473.4 622.749,473.4L622.959,473.399L629.577,466.975ZM673.517,466.934C673.517,466.934 680.134,473.358 680.134,473.358L680.344,473.359L680.35,473.38C680.35,473.38 686.952,473.369 686.952,473.369L693.554,473.38C693.554,473.38 693.559,473.359 693.559,473.359L693.769,473.358L700.387,466.934C700.387,466.934 693.769,460.509 693.769,460.509L693.559,460.509L693.554,460.487C693.554,460.487 686.952,460.498 686.952,460.498L680.35,460.487C680.35,460.487 680.344,460.509 680.344,460.509L680.134,460.509L673.517,466.934ZM709.915,410.777C714.609,414.857 711.631,417.435 708.438,414.965C708.144,417.847 704.2,420.652 699.953,423.45L704.196,431.936L696.064,427.339C698.552,429.627 683.63,439.95 671.181,449.408L671.403,449.115C680.799,436.727 690.979,422.055 693.249,424.524L688.653,416.393L697.138,420.635C699.936,416.388 702.741,412.444 705.623,412.15C703.144,408.945 705.751,405.956 709.859,410.729L709.915,410.777ZM595.355,408.615C599.435,403.92 602.013,406.898 599.543,410.091C602.425,410.385 605.23,414.329 608.028,418.576L616.514,414.334L611.917,422.465C614.205,419.977 624.528,434.899 633.986,447.349L633.693,447.127C621.305,437.73 606.633,427.55 609.102,425.28L600.971,429.877L605.213,421.391C600.966,418.593 597.022,415.788 596.728,412.906C593.523,415.386 590.534,412.778 595.307,408.67L595.355,408.615ZM651.554,444.999C651.554,444.999 657.979,438.381 657.979,438.381L657.979,438.171L658.001,438.166C658.001,438.166 657.99,431.564 657.99,431.564L658.001,424.962C658.001,424.962 657.979,424.957 657.979,424.957L657.979,424.747L651.554,418.129C651.554,418.129 645.13,424.747 645.13,424.747L645.13,424.957L645.108,424.962C645.108,424.962 645.119,431.564 645.119,431.564L645.108,438.166C645.108,438.166 645.13,438.171 645.13,438.171L645.13,438.381L651.554,444.999Z" style="fill:white;"/>
    </g>
</svg>
