<?xml version="1.0" encoding="UTF-8" standalone="no"?>
<!DOCTYPE svg PUBLIC "-//W3C//DTD SVG 1.1//EN" "http://www.w3.org/Graphics/SVG/1.1/DTD/svg11.dtd">
<svg width="100%" height="100%" viewBox="0 0 1000 1000" version="1.1" xmlns="http://www.w3.org/2000/svg" xmlns:xlink="http://www.w3.org/1999/xlink" xml:space="preserve" xmlns:serif="http://www.serif.com/" style="fill-rule:evenodd;clip-rule:evenodd;stroke-linejoin:round;stroke-miterlimit:2;">
    <g transform="matrix(1.07696,0,0,1.07696,-75.5061,224.297)">
        <path d="M503.463,403.349C463.618,345.284 437.163,286.772 437.975,227.349C337.57,223.415 304.493,170.576 323.37,80C141.176,132.21 106.574,268.75 118.719,432C169.908,335.294 224.708,251.763 319.277,313.302C361.153,281.671 427.066,325.954 503.463,403.349ZM565.293,403.349C605.138,345.284 631.593,286.772 630.782,227.349C731.187,223.415 764.263,170.576 745.386,80C927.58,132.21 962.182,268.75 950.037,432C898.849,335.294 844.049,251.763 749.479,313.302C707.604,281.671 641.691,325.954 565.293,403.349Z" style="fill:white;"/>
    </g>
</svg>
