<?xml version="1.0" encoding="UTF-8" standalone="no"?>
<!DOCTYPE svg PUBLIC "-//W3C//DTD SVG 1.1//EN" "http://www.w3.org/Graphics/SVG/1.1/DTD/svg11.dtd">
<svg width="100%" height="100%" viewBox="0 0 1000 1000" version="1.1" xmlns="http://www.w3.org/2000/svg" xmlns:xlink="http://www.w3.org/1999/xlink" xml:space="preserve" xmlns:serif="http://www.serif.com/" style="fill-rule:evenodd;clip-rule:evenodd;stroke-linejoin:round;stroke-miterlimit:2;">
    <g transform="matrix(1.00778,0,0,1.00778,-3.89099,-3.89099)">
        <path d="M359.251,528.436C207.494,611.902 160.803,739.444 227.895,914.73L162.984,946.525C156.598,933.66 151.057,920.5 146.363,907.104L134.207,911.69L133.629,915.236L112.828,913.301L129.377,898.888L131.868,901.478L142.901,896.689C139.867,887.051 137.268,877.307 135.106,867.479L123.605,870L122.52,873.425L102.217,868.504L120.676,856.634L122.766,859.557L132.937,856.803C131.004,846.45 129.555,836.02 128.59,825.54L118.017,827.055L116.684,830.392L96.797,823.995L116.076,813.51L117.945,816.579L127.766,814.679C127.165,804.652 127.008,794.591 127.297,784.525L116.08,785.342L114.518,788.579L95.124,780.815L115.085,771.696L116.737,774.887L127.788,773.537C128.354,764.225 129.302,754.913 130.634,745.624L120.161,744.63L118.082,747.561L100.252,736.675L121.453,731.008L122.55,734.43L132.347,734.879C134.028,725.305 136.119,715.76 138.624,706.263L128.032,704.823L125.837,707.668L108.461,696.069L129.875,691.265L130.833,694.728L141.599,695.66C144.114,687.206 146.96,678.801 150.139,670.457L142.411,668.226L139.825,670.721L124.321,656.719L146.205,655.08L146.649,658.646L154.138,660.417C156.444,654.873 158.903,649.349 161.513,643.861C162.525,641.734 163.564,639.615 164.63,637.505L157.816,634.522L154.925,636.657L141.391,620.743L163.301,621.987L163.274,625.58L169.647,628.007C174.096,619.941 178.959,612.012 184.253,604.219L177.62,600.572L174.549,602.436L162.505,585.367L184.214,588.582L183.863,592.158L190.484,595.39C222.518,551.63 268.675,512.571 331.796,479.234L359.251,528.436ZM361.161,849.454L237.218,910.163C178.851,748.299 209.818,618.65 363.698,535.751L365.261,539.208C336.114,555.937 304.682,581.136 271.135,614.17L341.993,665.704C362.167,643.234 383.523,626.702 405.954,615.576L422.407,643.904C342.368,693.463 320.192,761.421 361.161,849.454ZM290.266,813.83L296.067,839.313C275.368,846.597 259.857,851.078 249.717,850.714C242.285,850.447 237.738,847.577 236.151,841.299C232.663,827.506 249.413,816.724 290.266,813.83ZM423.578,645.92L437.456,669.814C405.934,688.11 385.122,711.898 377.827,742.619C371.762,768.162 375.29,799.585 389.533,835.557L363.091,848.509C326.954,768.015 339.336,698.692 423.578,645.92ZM389.579,835.671L389.533,835.557L389.593,835.527L389.579,835.671ZM396.547,831.917L396.973,831.912L501.786,780.573L442.158,677.909C383.035,715.544 370.415,772.01 396.547,831.917ZM287.323,767.266L287.887,793.394C266.146,796.372 250.051,797.645 240.191,795.252C232.963,793.497 229.086,789.772 228.793,783.304C228.147,769.091 246.721,761.894 287.323,767.266ZM472.772,760.627C477.359,759.583 481.93,762.458 482.974,767.045C484.018,771.631 481.142,776.202 476.556,777.246C471.97,778.29 467.399,775.414 466.354,770.828C465.31,766.242 468.186,761.671 472.772,760.627ZM527.316,693.684C510.762,712.739 499.967,733.196 491.103,754.123L474.573,727.586C479.496,711.524 481.121,695.197 479.743,678.629L527.316,693.684ZM293.489,721.979L289.447,747.799C267.521,746.905 251.453,745.326 242.168,741.235C235.362,738.236 232.201,733.887 233.05,727.467C234.915,713.363 254.466,709.547 293.489,721.979ZM311.59,682.922L300.193,706.441C279.482,699.192 264.572,692.996 256.884,686.375C251.249,681.521 249.493,676.44 252.177,670.547C258.075,657.599 277.889,659.651 311.59,682.922ZM521.548,683.096L519.234,688.284L487.751,677.971L490.066,672.782L521.548,683.096ZM405.299,173.909C520.418,131.956 675.254,167.768 839.101,221.238L812.963,263.643C774.64,261.786 743.627,275.277 730.508,300.739C718.262,324.507 722.483,351.448 747.928,367.018L738.767,383.088C707.227,375.92 684.064,379.489 670.892,397.199C656.93,415.97 657.96,441.604 692.459,461.222L677.308,486.814C614.184,545.091 565.687,610.675 529.556,682.438L484.121,667.144C502.803,581.983 510.412,503.367 491.179,440.619L491.837,419.492C526.142,415.938 525.088,394.403 523.858,386.564C521.116,369.079 502.119,364.14 474.595,374.471L462.344,341.134C495.592,336.165 514.324,330.349 520.091,323.482C530.613,310.951 540.966,299.561 538.088,290.094C523.781,243.048 504.867,213.802 479.805,198.479C454.327,182.902 429.889,175.441 405.299,173.909ZM665.01,325.295C668.068,324.599 671.115,326.516 671.811,329.574C672.507,332.631 670.59,335.678 667.533,336.374C664.475,337.071 661.428,335.153 660.732,332.096C660.036,329.038 661.953,325.991 665.01,325.295ZM635.996,315.585C639.054,314.889 642.101,316.806 642.797,319.864C643.493,322.921 641.576,325.968 638.518,326.664C635.461,327.361 632.414,325.443 631.718,322.386C631.021,319.328 632.939,316.281 635.996,315.585ZM608.594,307.839C611.652,307.143 614.699,309.06 615.395,312.117C616.091,315.175 614.174,318.222 611.117,318.918C608.059,319.614 605.012,317.697 604.316,314.64C603.62,311.582 605.537,308.535 608.594,307.839ZM577.517,304.425C580.575,303.729 583.622,305.646 584.318,308.704C585.014,311.761 583.097,314.809 580.04,315.505C576.982,316.201 573.935,314.284 573.239,311.226C572.543,308.169 574.46,305.121 577.517,304.425ZM677.345,311.439L674.017,308.549L722.179,224.877C733.048,223.318 741.082,226.107 744.973,235.249L677.345,311.439ZM647.509,300.912L643.713,298.673L675.915,207.658C686.321,204.156 694.728,205.442 700.211,213.728L647.509,300.912ZM616.785,293.155L612.604,291.76L625.044,196.021C634.487,190.419 642.977,189.917 650.073,196.872L616.785,293.155ZM586.705,288.067L582.317,287.654L572.771,191.584C580.701,183.989 588.857,181.58 597.342,186.748L586.705,288.067ZM287.634,173.306C279.97,185.805 274.166,197.35 270.3,207.9C253.755,215.096 236.473,223.012 218.231,231.224L210.672,215.873C235.979,199.69 261.644,185.517 287.634,173.306ZM199.08,198.292L210.169,221.406C198.243,225.652 187.212,226.329 174.561,223.685C182.246,211.371 189.41,201.885 199.08,198.292ZM674.868,163.333C705.221,154.337 735.428,148.053 764.294,143.696C797.871,152.905 831.801,164.186 866.086,177.459L844.23,212.916C785.202,191.209 728.618,174.421 674.868,163.333ZM350.034,92.969C325.599,120.073 306.115,144.632 291.963,166.448C263.889,179.456 236.191,194.705 208.889,212.254L185.721,165.206C241.776,134.239 296.537,110.463 350.034,92.969ZM343.728,150.143C330.175,164.265 319.425,178.073 313.607,190.433C301.753,194.703 289.587,199.625 277.005,205.006C281.911,193.358 288.102,181.594 295.377,169.73C311.372,162.471 327.497,155.943 343.728,150.143ZM351.89,147.29C419.295,124.253 488.882,113.468 560.458,113.983C543.168,124.91 528.907,136.399 521.111,147.981C471.298,149.254 425.019,157.619 382.708,173.968L383.345,174.056C362.87,175.54 342.057,180.634 320.233,188.105C326.874,174.941 338.152,161.097 351.89,147.29ZM778.838,141.645C821.739,136.01 861.072,134.483 892.658,134.349L869.009,172.715C838.668,160.734 808.604,150.36 778.838,141.645ZM356.286,90.952C386.611,81.293 416.532,73.647 446.027,67.857C415.512,87.851 379.03,115.345 351.364,142.437C333.987,148.458 316.746,155.291 299.645,162.949C314.92,139.277 334.331,115.231 356.286,90.952ZM651.067,120.452C682.953,124.708 715.2,131.027 747.796,139.332C713.997,145.002 684.451,152.448 667.578,161.861C640.249,156.46 613.662,152.556 587.863,150.254C604.044,138.057 626.263,128.352 651.067,120.452ZM570.47,114.128C593.909,114.64 617.561,116.351 641.43,119.228C616.118,127.912 594.819,138.027 582.229,149.775C563.415,148.26 545.031,147.609 527.097,147.861C539.713,135.195 554.648,124.019 570.47,114.128ZM451.753,66.755C529.049,52.171 603.608,50.216 675.568,57.88C647.094,70.254 604.293,88.07 569.995,108.184C497.909,106.906 427.8,117.097 359.817,139.575C388.011,112.952 423.889,86.958 451.753,66.755ZM664.995,116.27C718.566,101.092 780.705,93.203 820.102,86.289C848.801,94.447 877.056,103.934 904.876,114.527L898.286,125.218C860.92,126.335 808.98,130.118 762.484,137.015C729.627,128.035 697.122,121.096 664.995,116.27ZM687.028,59.184C727.49,64.085 767.114,71.996 805.916,82.375C764.797,89.208 704.369,99.597 654.966,114.83C629.716,111.374 604.692,109.23 579.909,108.432C618.557,85.902 660.766,70.464 687.028,59.184Z" style="fill:white;"/>
    </g>
</svg>
