<?xml version="1.0" encoding="UTF-8" standalone="no"?>
<!DOCTYPE svg PUBLIC "-//W3C//DTD SVG 1.1//EN" "http://www.w3.org/Graphics/SVG/1.1/DTD/svg11.dtd">
<svg width="100%" height="100%" viewBox="0 0 1000 1000" version="1.1" xmlns="http://www.w3.org/2000/svg" xmlns:xlink="http://www.w3.org/1999/xlink" xml:space="preserve" xmlns:serif="http://www.serif.com/" style="fill-rule:evenodd;clip-rule:evenodd;stroke-linejoin:round;stroke-miterlimit:2;">
    <g transform="matrix(1.42589,0,0,1.42589,-248.836,-198.921)">
        <path d="M514.481,224.185C509.57,238.061 506.134,253.113 505,270C493.083,261.916 487.061,249.809 485,235C481.212,238.345 476.406,240.281 470,240C469.615,246.667 470.005,253.333 472.175,260C461.613,259.997 458.552,256.153 460,250C452.72,255.861 443.574,260.646 425,260C427.413,262.159 429.002,264.876 430,267.993C441.505,270.988 432.636,273.306 405,275C399.171,280.465 396.043,286.469 395,292.89C393.952,298.923 399.787,302.684 410,305C416.356,299.53 425.534,295.714 440,295C441.814,301.667 432.472,308.333 420,315C429.11,329.055 434.273,343.756 430,360C429.761,365.079 430.581,370.077 432.367,375C428.707,374.429 426.325,372.696 425,370C425.594,373.33 426.14,376.66 425,380C427.88,382.586 429.482,385.959 430,390C425.973,390.701 422.721,389.678 420,387.475C416.587,388.772 414.865,391.242 415,395C415.852,399.576 418.914,404.529 425,410C419.674,410.509 414.521,409.859 410,405C404.541,407.595 401.884,406.768 400,405C403.123,401.217 407.802,392.278 415,375C407.924,374.408 401.231,375.929 395,380C398.309,371.794 402.636,364.514 410,360C413.246,352.061 414.829,343.919 410,335C404.721,333.99 399.754,335.972 395,340C381.713,334.236 378.648,327.545 385,320C360.763,326.848 330.248,332.117 330,345C330.233,346.229 331.399,347.236 335,347.663C353.1,352.311 339.18,360.348 310,370C306.684,382.273 305.488,393.567 310,402.22C314.718,404.056 321.797,404.79 330,405C321.424,417.704 308.019,425.992 295.063,432C270.795,443.254 263.141,462.089 275,465C300.031,450.988 317.607,443.134 317.359,450C302.753,469.446 286.882,487.7 270,505C257.456,522.563 258.124,535.672 270,545C292.268,532.591 312.905,516.95 332.883,500C319.19,523.618 304.438,546.324 285,565C281.235,569.718 282.552,573.141 290,575C303.273,569.963 315.66,561.721 327.085,550C328.378,561.909 327.068,572.368 321.154,580C317.059,585.285 319.844,593.292 320,600C323.979,604.271 329.753,604.511 337.641,600C345.955,592.014 353.118,581.335 360,570C360.006,585.909 357.117,601.03 350,615C352.791,615.667 356.062,615.745 360,615C361.049,619.836 360.84,624.837 360,630C365.336,639.846 375.532,638.539 390,627.431C388.119,633.512 385.696,639.388 382.571,645C375.418,653.146 374.675,660.684 407.913,665C404.74,674.378 384.784,684.547 390,688.087C394.245,690.437 401.111,690.933 410,690C401.592,700.552 396.33,712.133 395,725C400,733.918 405,736.645 410,720C411.056,726.926 412.864,733.533 415,740C420.352,740.799 425.498,740.156 430,735C430.794,728.768 433.834,723.625 440,720C439.458,725.102 439.259,730.189 445,735C452.029,739.93 456.578,736.797 460,730C460.38,714.213 452.115,703.481 440,695C464.614,692.148 483.735,667.599 476.204,660C474.058,657.836 469.694,656.132 462.573,655C466.46,642.621 460.912,632.546 445,625C461.987,625.912 470.56,617.835 470,600C483.729,619.373 487.288,606.75 480,560C478.791,541.583 469.286,532.683 450,535C459.52,521.023 454.961,516.246 445,515C449.792,506.667 446.455,498.333 440,490C457.47,490.806 468.048,500.552 475,515C481.438,519.432 481.468,529.042 483.185,530C486.796,532.015 491.531,518.173 485,500C494.372,505.295 505.159,478.038 503.029,465.645C501.686,457.829 497.079,438.807 480,440C472.782,436.651 470.588,431.563 472.655,425C488.562,424.206 488.415,414.007 470,393.105C471.515,380.202 493.168,390.023 476.352,355.493C472.331,347.237 481.33,338.019 485,330C486.087,360.338 491.095,375.127 515,315C531.947,319.873 546.416,327.137 556.233,335.276C560.869,339.12 568.394,336.296 575,335C574.348,343.633 572.351,352.029 567.808,360C563.646,367.304 565.244,376.581 565,385C573.139,378.931 581.408,374.831 590,375.404C595.341,375.761 600.021,371.737 605,370C603.817,376.667 607.05,383.333 620,390C619.373,392.238 618.193,394.172 615,395C612.814,398.028 611.02,401.287 610,405C605.772,398.69 600.73,393.76 595,390C587.168,391.419 579.518,394.782 572.043,400C560.499,413.631 565.608,423.003 580,430C578.511,434.85 578.086,439.807 580,445C584.036,450.147 591.508,450.749 600,450C595.246,461.311 586.535,464.089 570,450C565.533,456.917 564.54,465.591 565,475C562.961,476.483 561.391,478.197 560,480C558.659,498.334 565.241,511.208 585,515C581.411,521.949 579.436,530.06 580,540C567.594,549.629 561.53,555.991 560.034,560C557.68,566.308 566.702,581.119 580,565C565.859,585.082 563.717,598.843 595,595C585.602,603.858 575.733,612.305 565,620C560.503,633.282 558.973,643.977 580,635C577.534,639.575 574.496,643.904 570,647.605C563.477,661.571 557.393,686.24 575,672.211C578.178,669.243 581.486,667.353 585,667.158C584.387,672.107 582.486,676.239 580,680C569.504,690.763 571.956,697.179 600,695C594.916,699.456 589.904,704.383 585,710C580.994,718.274 583.141,723.173 600,720C597.772,736.244 595.914,752.281 600,765C604.288,766.149 609.14,766.39 615,765C623.335,759.429 630.503,753.092 635,745C639.212,749.189 645.917,752.509 655,755C660.019,751.323 663.94,746.784 665,740C665.341,725 660.63,710 655,695C662.206,707.355 671.137,719.285 685,730C684.687,718.626 682.443,707.065 675,695C701.862,704.271 706.989,695.812 700,677.468C680.559,671.549 673.446,665.745 672.571,660C693.743,663.159 699.579,651.466 685,620C677.52,605.725 668.698,592.166 657.267,580C666.989,583.223 676.493,587.257 685,595C690.35,582.445 693.184,568.883 690,552.915C694.747,555.322 698.171,559.535 700,565.927C710.61,557.888 720.891,549.524 730,540C727.618,545.502 725.032,550.911 720,555.194C727.148,557.212 735.504,556.786 744.436,555.194C733.21,561.338 722.789,570.851 713.34,584.431C692.333,628.019 694.807,656.132 730,617.537C731.725,621.833 733.906,626.302 732.313,630C727.829,640.408 722.239,650.18 720,660C748.224,661.885 769.585,655.242 780,635C771.569,632.396 763.251,632.808 755,635C755.674,630.271 756.925,621.901 763.009,621.958C776.084,622.081 784.213,618.518 785,610C778.434,593.002 768.543,574.711 755,555C761.75,557.242 769.872,558.986 780,560C782.622,554.518 784.93,548.695 780,535C774.403,527.086 768.336,519.72 760,515C764.935,512.812 768.171,509.41 770,505C742.841,484.921 723.786,464.915 715,445C733.971,456.091 753.517,466.572 775,475C781.06,457.971 774.25,446.576 745,445C749.073,436.841 753.068,428.676 750,420C744.917,418.985 739.922,420.814 735,425C741.474,410.103 734.264,398.901 700,395C691.416,384.824 679.953,376.971 655,380C661.054,359.799 653.195,351.328 625,360C640.392,341.261 631.418,334.057 600,337.479L625,320C634.027,336.155 642.254,333.678 650,320C661.214,358.611 669.442,367.568 675,350L680,340C684.993,350.288 691.436,360.327 700,370C713.333,379.874 726.667,382.002 740,375C736.363,362.358 727.833,353.03 710,350C705.868,343.653 700.675,338.952 695,335C702.637,332.149 710.999,332.269 720,335C709.488,326.253 706.773,317.092 690.43,306C685.315,302.528 683.112,295.846 680,290C670.369,287.438 659.389,288.781 645,300C647.2,291.204 650.91,283.555 660,280C663.325,271.904 654.78,269.535 630,275C633.503,270.399 638.368,266.951 645,265C641.423,250.113 632.748,241.262 605,255C605.495,247.231 609.247,237.453 600,235C594.305,236.527 587.561,243.604 580,255C571.492,244.119 566.244,232.508 565,220C548.32,218.383 531.491,219.584 514.481,224.185ZM358.086,730C356.418,741.373 366.23,738.366 367,736C367.567,734.259 371.041,731.908 370,729C369.448,727.459 364.783,725.859 364,724C361.876,718.957 362.365,714.819 359,714.002C356.204,713.324 355.443,717.446 351,719C345.668,720.864 344.36,724.397 346.31,727C347.988,729.238 358.966,724.002 358.086,730ZM494.785,703.776C494.785,703.776 489.827,714.062 490,716C490.599,722.691 497.265,721.858 498,715C498.233,712.825 494.785,703.776 494.785,703.776ZM526,717C515.302,718.755 515.235,715.513 520,710C524.272,705.057 529.762,712.638 530.079,714C530.309,714.985 529.078,716.495 526,717ZM360.246,693.898C359.883,694.089 359.491,694.269 359.067,694.436C359.365,694.29 359.676,694.144 360,694C360.1,693.955 360.181,693.922 360.246,693.898C366.569,690.582 363.785,684.186 357.697,685.658C355.68,686.146 354.343,687.384 353.278,688.297C353.467,685.871 352.606,685.225 350.033,686.374C347.741,687.397 347.086,690.471 345.995,691.591C346.076,689.359 344.178,684.923 341.729,686.016C338.122,687.626 336.093,689.364 335.356,691.205C334.618,693.046 335.172,694.991 336.729,697.016C336.911,697.252 337.095,697.454 337.282,697.625C335.175,698.873 333.906,700.189 333.356,701.563C332.618,703.404 336.838,703.639 339,705C348.194,710.789 348.869,698.485 342.141,696.274C342.686,695.559 343.182,694.709 343.603,693.807C343.878,694.647 344.396,695.478 345.033,696.374C348.046,700.614 350.273,698.296 351.332,694.279C351.616,695.058 352.077,695.852 352.697,696.658C353.233,697.355 353.793,697.756 354.358,697.916C354.149,698.191 361.722,693.361 360.246,693.898ZM514,698C511.899,698.047 510.913,700.615 511.569,702.762C512.226,704.909 514.526,706.635 519,705C524.258,703.078 523.448,697.788 514,698ZM723.154,664.545C723.154,664.545 723.271,686.406 726,689C730.212,693.004 741.254,683.28 742,677C742.77,670.524 726.623,663.533 723.154,664.545ZM507,689C502.991,690.271 500.684,690.182 499.657,689.07C498.631,687.958 498.885,685.823 500,683C502.479,676.723 510.373,687.931 507,689ZM340,670C340,670 347.679,675.41 350,675C359.985,673.235 361.549,660.716 350,660C348.14,659.885 340,670 340,670ZM305,665C306.574,660.059 308.187,656.843 309.85,655.845C311.513,654.847 313.226,656.067 315,660C318.644,668.079 305,665 305,665ZM529,655C523.812,655.487 520.673,657.67 520.4,659.821C520.128,661.972 522.722,664.09 529,664.447C537.932,664.955 537.219,654.228 529,655ZM335,645C334.089,646.574 333.58,647.821 333.554,648.676C333.527,649.531 333.983,649.994 335,650C338.874,650.025 335,645 335,645ZM523,641C517.13,639.449 512.977,637.815 512.368,636.011C511.759,634.207 514.694,632.233 523,630C536.095,626.48 531.224,643.173 523,641ZM280,636.019C277.5,636.019 269.717,622.783 270,620C270.61,614.003 282.96,611.785 285,620C285.758,623.055 282.5,636.019 280,636.019ZM234.474,550C232.87,549 223.626,549 223.381,550C223.135,551 231.151,556 233,556C234.849,556 236.077,551 234.474,550ZM234.315,515.121C232.648,510.209 212.386,502.201 210,505.511C207.614,508.821 215.948,533.38 220,534.982C224.052,536.584 235.982,520.033 234.315,515.121ZM815,505C815,507.5 814.173,513.333 815,515C815.735,516.481 819.221,516.479 819.96,515C820.794,513.333 820.827,507.5 820,505C819.26,502.762 815.833,500 815,500C814.167,500 815,503.333 815,505ZM234.839,500C236.224,497.204 256.481,452.418 260,446.354C263.457,440.399 228.684,451.059 224.491,460C220.297,468.941 232.024,505.681 234.839,500ZM837.723,470C837.723,472.5 827.121,485 825,485C822.879,485 822.879,472.5 825,470C827.121,467.5 837.723,467.5 837.723,470ZM835,430C831.667,429.167 819.167,445.833 820,450C820.833,454.167 837.5,458.333 840,455C842.5,451.667 838.333,430.833 835,430ZM804.463,420C804.463,423.65 802.41,430 800,430C797.59,430 791.452,424.485 790,420C787.5,412.28 785,392.013 785,383.68C785,378.825 787.5,369.507 790,370C792.5,370.493 798.202,380.42 800,386.635C802.41,394.968 804.463,412.772 804.463,420ZM769.469,362.492C767.755,363.77 766.162,365.202 765.848,365.957C765.168,367.591 768.478,370.859 769.915,370.054C769.943,370.106 769.973,370.148 770.004,370.18C770.836,371.033 775,366.766 775,365.059C775,364.444 774.46,363.496 773.729,362.576C774.17,361.25 774.385,360.219 774.16,360C773.94,359.786 773.088,360.142 772.008,360.781C771.132,360.036 770.323,359.61 770.004,359.938C769.745,360.202 769.567,361.207 769.469,362.492ZM300,320C297.338,321.667 289.004,338.333 290,340C290.996,341.667 304.308,333.333 305.975,330C307.641,326.667 302.662,318.333 300,320ZM735,295C735,297.04 726.667,305.373 725,305C723.333,304.627 723.333,294.426 725,292.759C726.667,291.092 735,292.96 735,295ZM755,292.759C755.833,292.759 758.833,273.793 758,270C757.642,268.372 747,268.333 747,270C747,273.793 754.167,292.759 755,292.759ZM385.944,280C384.967,280 380.014,288.333 380,290C379.986,291.667 384.872,291.667 385.862,290C386.853,288.333 386.921,280 385.944,280ZM715,260C715.833,260.395 711.667,264.561 710,265C708.333,265.439 704.167,263.466 705,262.633C705.833,261.8 714.167,259.605 715,260ZM687.099,225C686.266,224.544 684.516,226.431 685,227.264C685.484,228.098 689.65,230.377 690,230C690.35,229.623 687.932,225.456 687.099,225ZM640,215C640,215.833 635.833,220 635,220C634.167,220 634.167,215.833 635,215C635.833,214.167 640,214.167 640,215Z" style="fill:white;"/>
    </g>
</svg>
