<?xml version="1.0" encoding="UTF-8" standalone="no"?>
<!DOCTYPE svg PUBLIC "-//W3C//DTD SVG 1.1//EN" "http://www.w3.org/Graphics/SVG/1.1/DTD/svg11.dtd">
<svg width="100%" height="100%" viewBox="0 0 1000 1000" version="1.1" xmlns="http://www.w3.org/2000/svg" xmlns:xlink="http://www.w3.org/1999/xlink" xml:space="preserve" xmlns:serif="http://www.serif.com/" style="fill-rule:evenodd;clip-rule:evenodd;stroke-linejoin:round;stroke-miterlimit:2;">
    <g transform="matrix(1.2,0,0,1.2,80,-190)">
        <path d="M551.677,695.789C589.84,762.413 613.638,829.52 620,897.2C590.112,894.704 560.065,891.629 525.129,870.8C512.831,900.304 494.379,926.499 470.918,950C439.567,891.008 418.01,831.085 404.526,770.387C460.804,759.872 511.487,733.374 551.677,695.789ZM148.323,695.789C110.16,762.413 86.362,829.52 80,897.2C109.888,894.704 139.935,891.629 174.871,870.8C187.169,900.304 205.621,926.499 229.082,950C260.433,891.008 281.99,831.085 295.474,770.387C239.196,759.872 188.513,733.374 148.323,695.789ZM350.905,200.001C351.368,200.003 351.83,200.006 352.29,200.01C356.449,200.043 360.587,200.167 364.719,200.381C366.55,200.476 368.377,200.589 370.214,200.72L371.53,200.817L372.675,200.907C374.963,201.091 377.245,201.302 379.533,201.542L380.374,201.632L381.254,201.728C382.722,201.892 384.187,202.066 385.641,202.251L386.516,202.364C387.876,202.542 389.232,202.729 390.575,202.924L390.878,202.968C394.285,203.467 397.672,204.028 401.026,204.647L402.118,204.851L402.766,204.974C403.697,205.152 404.627,205.334 405.545,205.519L406.4,205.693L407.665,205.955C408.097,206.046 408.528,206.137 408.958,206.229L409.809,206.413C410.488,206.561 411.167,206.712 411.846,206.866L412.718,207.064C414.583,207.492 416.442,207.938 418.292,208.402C419.86,208.796 421.423,209.203 422.969,209.62C424.459,210.021 425.944,210.435 427.419,210.859L429.103,211.349L429.608,211.498C432.746,212.429 435.862,213.412 438.951,214.448L439.764,214.722C440.792,215.07 441.818,215.424 442.853,215.788C444.509,216.371 446.158,216.969 447.801,217.582C448.077,217.685 448.353,217.789 448.639,217.896L449.438,218.199C450.567,218.629 451.693,219.066 452.811,219.508C454.367,220.123 455.916,220.752 457.449,221.391C460.012,222.458 462.555,223.562 465.088,224.706C465.448,224.869 465.807,225.032 466.163,225.195C470.115,227.002 474.018,228.897 477.867,230.879C478.309,231.106 478.751,231.335 479.186,231.562C482.787,233.44 486.342,235.393 489.852,237.423C490.162,237.602 490.471,237.782 490.789,237.967L491.518,238.394C492.487,238.963 493.453,239.538 494.422,240.123L495.144,240.561C495.492,240.772 495.839,240.984 496.192,241.201C496.914,241.644 497.634,242.091 498.356,242.543L498.992,242.943C500.707,244.024 502.41,245.123 504.092,246.234L505.106,246.907L506.349,247.742C507.49,248.512 508.625,249.29 509.757,250.079L510.498,250.596C513.012,252.359 515.495,254.162 517.942,256L518.829,256.669C520.395,257.855 521.949,259.058 523.485,260.273L524.144,260.795C525.24,261.668 526.33,262.548 527.414,263.438L528.063,263.972C531.306,266.648 534.487,269.396 537.602,272.211L538.225,272.775C538.709,273.216 539.193,273.658 539.673,274.101C540.017,274.418 540.36,274.736 540.698,275.05L541.312,275.624C544.788,278.879 548.181,282.221 551.483,285.644L552.065,286.25C554.391,288.675 556.675,291.143 558.912,293.648L559.47,294.276C561.405,296.456 563.307,298.667 565.168,300.901L565.935,301.824C566.679,302.725 567.418,303.631 568.153,304.543C569.209,305.854 570.254,307.175 571.284,308.501L571.798,309.166C574.331,312.448 576.792,315.788 579.179,319.182C582.868,324.428 586.381,329.805 589.715,335.311C589.915,335.641 590.113,335.971 590.312,336.302L590.746,337.027C591.087,337.601 591.427,338.175 591.766,338.755C592.284,339.638 592.797,340.525 593.301,341.408L593.72,342.143C598.558,350.672 602.961,359.479 606.898,368.531C607.49,369.89 608.071,371.256 608.642,372.627L608.968,373.416C609.663,375.102 610.343,376.796 611.006,378.5L611.495,379.763L611.754,380.439C612.638,382.758 613.492,385.093 614.313,387.438C615.379,390.476 616.394,393.539 617.356,396.626C618.045,398.834 618.708,401.055 619.342,403.284C619.561,404.055 619.778,404.826 619.991,405.602C620.579,407.739 621.143,409.885 621.68,412.039C622.282,414.447 622.852,416.867 623.391,419.3C623.645,420.446 623.892,421.596 624.131,422.746C624.589,424.946 625.021,427.156 625.426,429.375C625.734,431.058 626.027,432.746 626.304,434.437C626.418,435.128 626.528,435.82 626.637,436.515L626.771,437.383C627.131,439.73 627.461,442.088 627.761,444.456L627.859,445.235L627.966,446.111C628.004,446.427 628.042,446.743 628.079,447.06C628.33,449.196 628.557,451.34 628.759,453.49L628.89,454.923L628.967,455.809C629.213,458.676 629.415,461.553 629.574,464.44C629.775,468.1 629.906,471.781 629.964,475.481L629.977,476.383C629.985,476.986 629.99,477.589 629.994,478.19L629.999,479.095C629.999,479.382 630,479.691 630,480C630,480.881 629.996,481.761 629.988,482.633C629.968,484.765 629.924,486.89 629.857,489.021L629.827,489.919C629.692,493.803 629.477,497.667 629.183,501.53L629.114,502.418C629.028,503.498 628.936,504.577 628.837,505.668L628.757,506.53C628.569,508.52 628.361,510.503 628.131,512.494L628.01,513.519C627.949,514.032 627.886,514.545 627.824,515.039C627.543,517.289 627.235,519.53 626.903,521.748L626.771,522.617C626.683,523.195 626.593,523.772 626.5,524.353C626.323,525.461 626.14,526.567 625.954,527.653C625.628,529.551 625.282,531.444 624.918,533.329C624.499,535.497 624.055,537.657 623.587,539.809C623.285,541.193 622.973,542.573 622.654,543.934C621.986,546.793 621.273,549.635 620.519,552.453L620.295,553.288C620.069,554.121 619.839,554.953 619.605,555.786L619.37,556.617C618.82,558.553 618.249,560.481 617.657,562.403L617.403,563.225C616.566,565.914 615.689,568.586 614.776,571.233C614.42,572.265 614.058,573.295 613.694,574.311C612.942,576.41 612.166,578.498 611.361,580.586L611.05,581.388C610.477,582.861 609.892,584.328 609.292,585.795C609.025,586.449 608.755,587.102 608.48,587.759C606.891,591.561 605.221,595.321 603.468,599.046L603.104,599.814C602.004,602.133 600.872,604.435 599.716,606.705C597.801,610.47 595.803,614.186 593.72,617.857C593.301,618.596 592.879,619.332 592.458,620.058L592.033,620.789C591.815,621.163 591.595,621.537 591.375,621.911C591.102,622.373 590.828,622.835 590.548,623.304C588.88,626.095 587.166,628.855 585.406,631.581L584.948,632.289C584.773,632.558 584.598,632.826 584.427,633.087C582.081,636.67 579.655,640.196 577.156,643.657C576.556,644.488 575.951,645.316 575.348,646.133L574.847,646.809C572.672,649.735 570.442,652.616 568.153,655.457L567.625,656.111L566.562,657.414L566.123,657.948C564.844,659.499 563.548,661.037 562.236,662.561C559.821,665.365 557.352,668.12 554.828,670.829C553.534,672.216 552.226,673.591 550.899,674.959L550.313,675.561C549.336,676.561 548.352,677.554 547.356,678.544L546.76,679.135C542.779,683.069 538.681,686.885 534.464,690.582L533.831,691.135C533.315,691.585 532.797,692.034 532.271,692.485C530.973,693.6 529.664,694.703 528.351,695.789C527.286,696.672 526.213,697.546 525.133,698.414C522.93,700.182 520.701,701.918 518.447,703.62C517.677,704.2 516.905,704.777 516.133,705.348L514.776,706.344L514.095,706.839C511.872,708.451 509.625,710.031 507.348,711.581C505.846,712.604 504.333,713.613 502.815,714.605L501.581,715.406C500.855,715.875 500.127,716.34 499.4,716.8L498.026,717.663C496.832,718.409 495.632,719.146 494.422,719.877C494.173,720.027 493.924,720.177 493.675,720.326C493.2,720.611 492.725,720.894 492.246,721.177L491.518,721.606C490.904,721.967 490.288,722.326 489.664,722.686C488.451,723.386 487.232,724.077 486.003,724.762C484.718,725.478 483.427,726.184 482.129,726.881L481.928,726.989C480.328,727.846 478.719,728.688 477.097,729.516C476.704,729.717 476.31,729.917 475.913,730.118L475.155,730.499C474.65,730.752 474.145,731.003 473.636,731.255C472.811,731.661 471.985,732.064 471.152,732.465C470.452,732.802 469.75,733.136 469.046,733.468C466.74,734.553 464.418,735.608 462.075,736.634L461.295,736.974L460.513,737.312C460.251,737.425 459.99,737.537 459.729,737.648L458.945,737.982C458.195,738.299 457.443,738.614 456.69,738.924C452.45,740.675 448.159,742.325 443.815,743.871L443.007,744.157C442.736,744.253 442.465,744.348 442.198,744.441C440.957,744.874 439.711,745.299 438.461,745.715C438.08,745.842 437.698,745.969 437.32,746.093L436.503,746.36C434.942,746.867 433.374,747.361 431.798,747.843C430.155,748.344 428.505,748.832 426.853,749.303C425.35,749.732 423.842,750.148 422.33,750.552C419.424,751.328 416.499,752.058 413.559,752.742C412.312,753.031 411.063,753.313 409.809,753.587L408.958,753.771C408.156,753.943 407.353,754.111 406.549,754.276C404.508,754.696 402.458,755.093 400.399,755.468L399.538,755.623C398.827,755.75 398.116,755.875 397.402,755.996L396.085,756.219C395.49,756.317 394.894,756.414 394.297,756.509L392.993,756.713C389.443,757.261 385.871,757.743 382.279,758.156C378.895,758.545 375.493,758.873 372.078,759.14C368.641,759.409 365.186,759.616 361.714,759.759L360.817,759.794C358.718,759.874 356.62,759.931 354.519,759.964L353.617,759.977C352.711,759.989 351.808,759.996 350.905,759.999L350,760C348.795,760 347.591,759.992 346.383,759.977L345.481,759.964C343.072,759.926 340.67,759.857 338.286,759.759L337.39,759.721C334.907,759.61 332.433,759.468 329.959,759.292L328.47,759.183L327.922,759.14C324.504,758.873 321.103,758.544 317.705,758.154C314.36,757.769 311.034,757.325 307.736,756.825C302.934,756.096 298.171,755.245 293.451,754.276C292.648,754.111 291.846,753.943 291.042,753.771L290.191,753.587C288.958,753.318 287.728,753.041 286.51,752.758C283.137,751.975 279.788,751.13 276.45,750.223C275.392,749.935 274.336,749.641 273.281,749.341C270.548,748.563 267.832,747.745 265.134,746.886L264.315,746.624C264.044,746.537 263.774,746.45 263.497,746.36L262.68,746.093C261.863,745.825 261.049,745.553 260.236,745.278L259.423,745.001C258.884,744.817 258.345,744.631 257.807,744.443C257.534,744.348 257.261,744.252 256.993,744.157L256.185,743.871C255.122,743.493 254.062,743.108 252.999,742.715L252.163,742.404C249.216,741.304 246.294,740.155 243.388,738.956C241.821,738.31 240.262,737.65 238.705,736.974L237.925,736.634C232.984,734.471 228.118,732.17 223.319,729.729L222.575,729.349L221.069,728.571L220.317,728.179L218.94,727.452C218.648,727.297 218.356,727.141 218.072,726.989L217.326,726.588C216.423,726.101 215.523,725.609 214.631,725.114L213.997,724.762C213.567,724.523 213.139,724.282 212.698,724.034C211.907,723.587 211.117,723.137 210.326,722.68L209.261,722.062C208.512,721.625 207.765,721.185 207.027,720.746C205.953,720.106 204.883,719.459 203.829,718.812C203.187,718.418 202.547,718.021 201.913,717.625L200.678,716.849C199.924,716.373 199.173,715.893 198.419,715.406L197.711,714.948C197.243,714.643 196.775,714.337 196.3,714.024L195.596,713.56C194.53,712.853 193.468,712.139 192.406,711.413L191.765,710.974C187.663,708.156 183.639,705.232 179.688,702.2L178.548,701.32C177.868,700.792 177.191,700.262 176.515,699.727L175.491,698.913C174.7,698.281 173.913,697.646 173.12,696.999L172.27,696.302C171.633,695.778 170.999,695.252 170.374,694.728C170.018,694.43 169.663,694.131 169.3,693.825L167.987,692.706C167.381,692.187 166.777,691.666 166.169,691.135L165.536,690.582C164.921,690.043 164.309,689.502 163.706,688.963C163.022,688.353 162.341,687.739 161.663,687.123C161.078,686.59 160.495,686.055 159.918,685.521C159.713,685.332 159.509,685.142 159.302,684.95L158.076,683.801L157.264,683.033C156.34,682.155 155.422,681.271 154.512,680.384C153.688,679.58 152.869,678.771 152.049,677.951L151.456,677.356C151.098,676.997 150.742,676.636 150.384,676.272C150.15,676.034 149.917,675.796 149.687,675.561L149.101,674.959C147.829,673.648 146.569,672.324 145.323,670.989C144.851,670.484 144.381,669.977 143.909,669.465L142.775,668.225L141.649,666.978L140.59,665.793C139.322,664.364 138.067,662.922 136.826,661.466C135.768,660.224 134.72,658.973 133.689,657.719C130.673,654.054 127.749,650.311 124.922,646.497L123.931,645.152C123.673,644.8 123.416,644.447 123.161,644.095L122.668,643.413C121.925,642.382 121.19,641.346 120.457,640.3C120.222,639.964 119.988,639.627 119.751,639.286C118.402,637.341 117.077,635.378 115.776,633.396L115.316,632.693C113.305,629.61 111.352,626.484 109.46,623.318C109.184,622.856 108.91,622.394 108.639,621.935C108.379,621.494 108.12,621.052 107.86,620.606C106.195,617.745 104.578,614.852 103.011,611.928C102.478,610.934 101.951,609.935 101.429,608.931L100.651,607.425L99.796,605.741C98.589,603.347 97.416,600.933 96.274,598.495C95.76,597.397 95.253,596.295 94.75,595.186L94.401,594.41L93.655,592.733C93.102,591.478 92.557,590.218 92.023,588.957C91.911,588.692 91.8,588.427 91.687,588.159L91.358,587.373C91.079,586.701 90.802,586.029 90.527,585.351C89.3,582.336 88.125,579.295 87.002,576.232L86.709,575.427C86.607,575.147 86.506,574.867 86.405,574.587L86.129,573.815L85.843,573.007C85.732,572.693 85.622,572.378 85.512,572.064C84.995,570.579 84.49,569.089 83.997,567.594C83.127,564.953 82.295,562.295 81.501,559.616C81.368,559.169 81.237,558.722 81.107,558.275L80.867,557.447C80.549,556.342 80.238,555.234 79.933,554.121C79.655,553.108 79.383,552.093 79.117,551.078C79.018,550.699 78.919,550.319 78.822,549.942L78.607,549.103C78.277,547.805 77.956,546.504 77.645,545.199C77.486,544.533 77.329,543.867 77.175,543.202L76.981,542.355L76.567,540.507C76.266,539.143 75.975,537.775 75.693,536.4L75.519,535.545C75.006,533.001 74.528,530.445 74.085,527.876C73.932,526.992 73.784,526.107 73.639,525.219L73.5,524.353C73.218,522.586 72.953,520.814 72.705,519.036C72.338,516.409 72.007,513.769 71.713,511.12C71.458,508.819 71.231,506.509 71.033,504.191L70.958,503.305C70.836,501.828 70.725,500.347 70.627,498.862L70.569,497.971C70.53,497.364 70.493,496.756 70.459,496.147C70.426,495.565 70.394,494.983 70.365,494.4L70.321,493.505C70.108,489.031 70,484.528 70,480C70,479.366 70.002,478.733 70.006,478.108C70.036,473.667 70.169,469.25 70.404,464.845C70.422,464.506 70.441,464.167 70.461,463.813C70.512,462.916 70.568,462.021 70.627,461.138L70.687,460.248C70.833,458.17 71,456.097 71.19,454.038L71.273,453.154C71.526,450.5 71.816,447.856 72.141,445.235C72.249,444.364 72.361,443.495 72.477,442.632C72.907,439.415 73.391,436.215 73.926,433.051L74.158,431.703C74.33,430.716 74.507,429.732 74.69,428.741C74.796,428.169 74.904,427.597 75.014,427.024C75.398,425.02 75.804,423.025 76.229,421.042C76.595,419.337 76.977,417.638 77.372,415.952L77.774,414.263C78.013,413.268 78.259,412.275 78.51,411.279C79.038,409.191 79.589,407.113 80.163,405.046L80.395,404.214C80.785,402.824 81.186,401.439 81.594,400.071C82.303,397.688 83.043,395.319 83.813,392.968L84.176,391.864L84.448,391.049C84.876,389.773 85.313,388.501 85.756,387.241L86.129,386.185L86.625,384.805C86.749,384.46 86.875,384.116 87.002,383.768L87.298,382.965L87.707,381.867C89.371,377.428 91.144,373.042 93.026,368.705L93.709,367.145C93.824,366.886 93.939,366.626 94.054,366.367L94.401,365.59C95.412,363.336 96.453,361.098 97.521,358.879C97.923,358.042 98.329,357.208 98.745,356.364C98.969,355.911 99.194,355.458 99.415,355.017C99.976,353.896 100.544,352.78 101.114,351.677L101.821,350.317L102.216,349.567C104.891,344.499 107.718,339.523 110.697,334.633L111.097,333.977C112.692,331.374 114.329,328.8 116.006,326.254C116.612,325.334 117.223,324.418 117.847,323.495C119.261,321.402 120.704,319.329 122.177,317.271L122.502,316.818C123.051,316.054 123.604,315.293 124.153,314.545L124.795,313.674C128.255,309 131.856,304.437 135.586,299.999L136.128,299.357C138.481,296.574 140.887,293.838 143.341,291.155L143.502,290.979C145.668,288.614 147.875,286.287 150.123,283.994C150.372,283.74 150.622,283.486 150.865,283.24L151.456,282.644C152.115,281.98 152.778,281.32 153.447,280.661C156.168,277.978 158.944,275.35 161.775,272.775L162.398,272.211C164.424,270.38 166.477,268.579 168.562,266.803C169.251,266.215 169.943,265.631 170.644,265.046L171.384,264.43C172.862,263.203 174.354,261.991 175.856,260.795L177.175,259.752L178.653,258.599C183.736,254.658 188.959,250.888 194.304,247.302L195.596,246.44L196.3,245.976L197.005,245.513C197.709,245.052 198.415,244.595 199.129,244.137L199.839,243.683C200.077,243.532 200.314,243.381 200.552,243.231L201.266,242.78L201.981,242.332L202.971,241.717C204.305,240.892 205.645,240.078 206.99,239.276C207.727,238.837 208.466,238.402 209.202,237.972C209.691,237.687 210.18,237.404 210.674,237.119L211.408,236.699L212.143,236.28L212.879,235.864C213.125,235.726 213.371,235.588 213.617,235.45L214.356,235.038C223.477,229.972 232.912,225.4 242.627,221.358C244.466,220.593 246.315,219.847 248.169,219.122C248.965,218.811 249.762,218.504 250.562,218.199L251.815,217.726C253.584,217.063 255.362,216.417 257.147,215.788C258.844,215.191 260.548,214.61 262.263,214.044C264.509,213.303 266.768,212.589 269.042,211.902L269.515,211.76C272.1,210.984 274.701,210.245 277.318,209.543C278.508,209.223 279.701,208.911 280.897,208.607L281.737,208.395L282.578,208.185L283.42,207.978C284.825,207.635 286.234,207.302 287.645,206.981L288.493,206.789C289.352,206.596 290.213,206.407 291.076,206.222L291.894,206.048L292.746,205.869C293.031,205.81 293.315,205.752 293.6,205.693L294.455,205.519C296.449,205.117 298.451,204.737 300.462,204.377L301.399,204.211C302.62,203.997 303.844,203.79 305.072,203.592L306.515,203.363L307.383,203.229L308.158,203.111C308.651,203.037 309.144,202.965 309.637,202.894C310.626,202.75 311.618,202.612 312.61,202.48L313.484,202.364C315.524,202.098 317.572,201.854 319.626,201.632L320.467,201.542C322.74,201.303 325.02,201.092 327.308,200.908L328.47,200.817L329.866,200.715C331.749,200.58 333.637,200.465 335.531,200.368C339.569,200.162 343.63,200.042 347.71,200.01C348.486,200.003 349.243,200 350,200L350.905,200.001ZM350,220.305L438.408,363.622L602.03,403.416L493.048,531.784L505.763,699.695L350,635.715L194.237,699.695L206.952,531.784L97.97,403.416L261.592,363.622L350,220.305Z" style="fill:white;"/>
    </g>
</svg>
