<?xml version="1.0" encoding="UTF-8" standalone="no"?>
<!DOCTYPE svg PUBLIC "-//W3C//DTD SVG 1.1//EN" "http://www.w3.org/Graphics/SVG/1.1/DTD/svg11.dtd">
<svg width="100%" height="100%" viewBox="0 0 1000 1000" version="1.1" xmlns="http://www.w3.org/2000/svg" xmlns:xlink="http://www.w3.org/1999/xlink" xml:space="preserve" xmlns:serif="http://www.serif.com/" style="fill-rule:evenodd;clip-rule:evenodd;stroke-linejoin:round;stroke-miterlimit:2;">
    <g transform="matrix(13.0435,0,0,13.0435,-6703.26,-4502.17)">
        <path d="M561.244,403.811C559.109,405.184 556.696,406.666 553.5,408L550,389.478C549.125,388.877 548.292,388.218 547.5,387.5C545.536,397.564 546.074,407.732 549,418C557.044,412.507 564.009,407.223 561.244,403.811ZM551.732,390.561L555,405.5L559.5,402.5L559.575,402.44C562.773,399.911 566.462,397.689 571,396C569.988,394.541 568.592,392.844 565.338,390L564,394C559.312,393.691 555.226,392.54 551.732,390.561ZM539,368C544.732,359.372 553.519,353.82 568,354C569.12,360.334 567.842,365.668 564,372C565.957,379.189 564.972,385.707 563,392C556.947,391.686 551.368,389.607 546.736,384C545.783,382.846 547.517,379.781 546,379C543.056,377.484 539.797,373.915 539,368ZM546.415,386L533.5,379.5L533.5,366L535.5,366L537,368C536.66,372.17 542.757,380.17 544.788,380C545.794,379.916 544.55,382.013 544.826,383C545.156,384.18 545.782,385.268 546.415,386ZM549,356C544.732,358.693 541.172,361.506 538,366L536,364C536.505,358.052 538.634,353.453 542,349C545.125,350.877 548.019,352.886 549,356Z" style="fill:white;"/>
    </g>
</svg>
