<?xml version="1.0" encoding="UTF-8" standalone="no"?>
<!DOCTYPE svg PUBLIC "-//W3C//DTD SVG 1.1//EN" "http://www.w3.org/Graphics/SVG/1.1/DTD/svg11.dtd">
<svg width="100%" height="100%" viewBox="0 0 1000 1000" version="1.1" xmlns="http://www.w3.org/2000/svg" xmlns:xlink="http://www.w3.org/1999/xlink" xml:space="preserve" xmlns:serif="http://www.serif.com/" style="fill-rule:evenodd;clip-rule:evenodd;stroke-linejoin:round;stroke-miterlimit:2;">
    <g transform="matrix(5.71429,0,0,5.71429,-1799.71,-2672.86)">
        <path d="M402.5,476.525C407.048,477.684 409.277,479.727 410.9,482L403.9,487C403.326,488.492 403.28,489.584 404.131,490L405.4,507C410.485,507.269 415.264,508.63 419.9,510.5L415.4,515C413.771,513.623 411.368,512.843 408.4,512.5L408.4,622L402.5,633.8L402.5,634L402.45,633.9L402.4,634L402.4,633.8L396.5,622L396.5,512.5C393.532,512.843 391.129,513.623 389.5,515L385,510.5C389.636,508.63 394.415,507.269 399.5,507L400.769,490C401.62,489.584 401.574,488.492 401,487L394,482C395.623,479.727 397.852,477.684 402.4,476.525L402.4,476.5L402.45,476.513L402.5,476.5L402.5,476.525Z" style="fill:white;"/>
    </g>
</svg>
