<?xml version="1.0" encoding="UTF-8" standalone="no"?>
<!DOCTYPE svg PUBLIC "-//W3C//DTD SVG 1.1//EN" "http://www.w3.org/Graphics/SVG/1.1/DTD/svg11.dtd">
<svg width="100%" height="100%" viewBox="0 0 1000 1000" version="1.1" xmlns="http://www.w3.org/2000/svg" xmlns:xlink="http://www.w3.org/1999/xlink" xml:space="preserve" xmlns:serif="http://www.serif.com/" style="fill-rule:evenodd;clip-rule:evenodd;stroke-linejoin:round;stroke-miterlimit:2;">
    <g transform="matrix(6.63708,0,0,6.63708,-2621.15,-1555.25)">
        <path d="M441.129,326.34L460.865,311.774L468.101,319.071L421.424,357.087L415.118,349.666L431.426,335.295C404.955,319.895 397.645,297.781 408.3,269.375C417.518,244.8 453.013,235.891 471.345,245.885C488.79,255.396 492.803,268.612 490.675,283.123L480.185,283.118L480.153,295.834L524.034,296.066L523.926,283.495L517.695,283.478L517.59,277.764L536.927,277.778L536.792,283.682L529.953,283.558L529.803,370.72L535.705,370.732L535.749,377.462L516.36,377.437L516.452,370.697L522.239,370.698L522.278,359.635L479.464,359.505L479.526,368.427L485.245,368.517L485.24,376.974L464.764,376.965L464.757,368.55L471.432,368.578L471.526,283.366L465.968,283.372L465.959,275.457L478.67,275.455C479.349,268.215 475.963,261.978 466.638,257.204C456.578,253.34 445.388,253.551 437.163,257.14C431.481,260.5 426.46,264.507 422.694,269.744C413.599,281.568 414.141,292.443 417.034,303.086C422.574,313.669 431.182,320.765 441.129,326.34ZM523.718,301.433L479.644,301.433L479.644,355.428L523.718,355.428L523.718,301.433Z" style="fill:white;"/>
    </g>
</svg>
