<?xml version="1.0" encoding="UTF-8" standalone="no"?>
<!DOCTYPE svg PUBLIC "-//W3C//DTD SVG 1.1//EN" "http://www.w3.org/Graphics/SVG/1.1/DTD/svg11.dtd">
<svg width="100%" height="100%" viewBox="0 0 1000 1000" version="1.1" xmlns="http://www.w3.org/2000/svg" xmlns:xlink="http://www.w3.org/1999/xlink" xml:space="preserve" xmlns:serif="http://www.serif.com/" style="fill-rule:evenodd;clip-rule:evenodd;stroke-linejoin:round;stroke-miterlimit:2;">
    <g transform="matrix(2.35889,0,0,2.36842,-701.226,-1371.05)">
        <path d="M354.465,980L318.465,944L323.465,975L354.465,980ZM660,980L360,980L320,940L320,640L360,600L660,600L700,640L700,940L660,980ZM664,980L700,944L695,975L664,980ZM334.624,970.205C333.838,970.98 331.784,970.173 330.041,968.404C328.298,966.635 327.521,964.569 328.307,963.795C329.093,963.02 331.147,963.827 332.89,965.596C334.633,967.365 335.41,969.431 334.624,970.205ZM683.842,970.205C684.628,970.98 686.681,970.173 688.425,968.404C690.168,966.635 690.945,964.569 690.158,963.795C689.372,963.02 687.319,963.827 685.575,965.596C683.832,967.365 683.055,969.431 683.842,970.205ZM510,620.366C603.623,620.366 679.634,696.377 679.634,790C679.634,883.623 603.623,959.634 510,959.634C416.377,959.634 340.366,883.623 340.366,790C340.366,696.377 416.377,620.366 510,620.366ZM510,630C598.306,630 670,701.694 670,790C670,878.306 598.306,950 510,950C421.694,950 350,878.306 350,790C350,701.694 421.694,630 510,630ZM510,672.5C574.85,672.5 627.5,725.15 627.5,790C627.5,854.85 574.85,907.5 510,907.5C445.15,907.5 392.5,854.85 392.5,790C392.5,725.15 445.15,672.5 510,672.5ZM510.497,713.127L511.488,713.139L512.708,713.172L513.462,713.202L514.632,713.263L515.851,713.345L517.371,713.474L518.386,713.578L519.785,713.743L520.984,713.906L522.146,714.081L523.601,714.327L524.701,714.532L525.885,714.771L527.352,715.095L528.278,715.315L529.663,715.667L530.8,715.977L531.909,716.298L533.3,716.725L534.342,717.065L535.535,717.475L536.862,717.956L537.735,718.288L539.046,718.81L540.548,719.443L541.166,719.715L542.473,720.31L543.478,720.789L544.57,721.329L545.508,721.811L546.629,722.408L547.849,723.086L548.704,723.578L549.85,724.261L550.781,724.836L551.804,725.489L552.969,726.262L553.816,726.842L554.612,727.403L555.782,728.255L556.748,728.985L557.812,729.817L558.643,730.487L559.573,731.26L560.49,732.048L560.749,732.276L561.842,733.255L562.727,734.077L563.692,735.003L564.458,735.762L565.304,736.624L566.27,737.643L566.955,738.388L567.805,739.342L568.719,740.404L569.432,741.259L570.183,742.188L571.036,743.28L571.582,744.001L572.415,745.134L573.022,745.989L573.478,746.648L573.69,746.959L574.373,747.985L574.688,748.47L575.33,749.486C582.648,761.254 586.875,775.137 586.875,790C586.875,804.863 582.648,818.746 575.33,830.514L574.664,831.566L574.332,832.076L573.646,833.105L573.216,833.733L572.594,834.616L571.904,835.567L571.036,836.72L570.391,837.549L569.604,838.531L568.55,839.796L568.121,840.296L567.204,841.335L566.547,842.058L565.637,843.028L564.883,843.809L564.03,844.665L563.028,845.637L562.286,846.336L561.578,846.985L560.49,847.952L559.573,848.74L558.531,849.604L557.702,850.271L556.748,851.015L555.782,851.745L555.492,851.958L554.312,852.811L553.317,853.502L552.199,854.252L551.294,854.839L550.266,855.485L549.054,856.216L548.177,856.727L547.056,857.358L545.811,858.03L544.804,858.552L543.735,859.086L542.473,859.69L541.631,860.077L540.342,860.646L539.277,861.095L538.222,861.521L536.862,862.044L535.907,862.393L534.645,862.833L533.3,863.275L532.428,863.546L531.035,863.957L529.977,864.249L528.814,864.552L527.549,864.859L526.887,865.011L525.716,865.264L524.575,865.493L523.127,865.757L522.025,865.938L520.818,866.118L519.505,866.292L518.822,866.373L517.604,866.503L516.885,866.57L515.695,866.666L514.491,866.746L512.97,866.819L511.875,866.852L510.588,866.873C510.39,866.874 510.195,866.875 510,866.875L508.512,866.861L507.292,866.828L506.538,866.798L505.368,866.737L504.149,866.655L502.629,866.526L501.614,866.422L500.215,866.257L499.016,866.094L497.854,865.919L496.399,865.673L495.299,865.468L494.115,865.229L492.648,864.905L491.722,864.685L490.337,864.333L489.2,864.023L488.091,863.702L486.7,863.275L485.658,862.935L484.465,862.525L483.138,862.044L482.265,861.712L480.954,861.19L479.452,860.557L478.834,860.285L477.527,859.69L476.522,859.211L475.43,858.671L474.492,858.189L473.371,857.592L472.151,856.914L471.296,856.422L470.15,855.739L469.219,855.164L468.196,854.511L467.031,853.738L466.184,853.158L465.388,852.597L464.218,851.745L463.252,851.015L462.188,850.183L461.357,849.513L460.427,848.74L459.51,847.952L459.251,847.724L458.158,846.745L457.273,845.923L456.308,844.997L455.542,844.238L454.696,843.376L453.73,842.357L453.045,841.612L452.195,840.658L451.281,839.596L450.568,838.741L449.817,837.812L448.964,836.72L448.418,835.999L447.585,834.866L446.978,834.011L446.522,833.352L446.31,833.041L445.627,832.015L445.312,831.53L444.67,830.514C437.352,818.746 433.125,804.863 433.125,790C433.125,775.137 437.352,761.254 444.67,749.486L445.336,748.434L445.668,747.924L446.354,746.895L446.784,746.267L447.406,745.384L448.096,744.433L448.964,743.28L449.609,742.451L450.396,741.469L451.45,740.204L451.879,739.704L452.796,738.665L453.453,737.942L454.363,736.972L455.117,736.191L455.97,735.335L456.972,734.363L457.714,733.664L458.422,733.015L459.51,732.048L460.427,731.26L461.469,730.396L462.298,729.729L463.252,728.985L464.218,728.255L464.508,728.042L465.688,727.189L466.683,726.498L467.801,725.748L468.706,725.161L469.734,724.515L470.946,723.784L471.823,723.273L472.944,722.642L474.189,721.97L475.196,721.448L476.265,720.914L477.527,720.31L478.369,719.923L479.658,719.354L480.723,718.905L481.778,718.479L483.138,717.956L484.093,717.607L485.355,717.167L486.7,716.725L487.572,716.454L488.965,716.043L490.023,715.751L491.186,715.448L492.451,715.141L493.113,714.989L494.284,714.736L495.425,714.507L496.873,714.243L497.975,714.062L499.182,713.882L500.495,713.708L501.178,713.627L502.396,713.497L503.115,713.43L504.305,713.334L505.509,713.254L507.03,713.181L508.125,713.148L509.503,713.127L510.497,713.127ZM571.583,750L556.535,750C565.784,760.748 571.375,774.726 571.375,790C571.375,805.274 565.784,819.252 556.535,830L571.583,830C579.08,818.489 583.438,804.749 583.438,790C583.438,775.251 579.08,761.511 571.583,750ZM463.465,750L448.417,750C440.92,761.511 436.563,775.251 436.563,790C436.563,804.749 440.92,818.489 448.417,830L463.465,830C454.216,819.252 448.625,805.274 448.625,790C448.625,774.726 454.216,760.748 463.465,750ZM541.741,750C543.367,753.323 539.902,759.025 529.283,770.402C527.343,768.493 525.121,766.869 522.685,765.599C527.039,757.735 530.33,752.727 533.04,750L528.361,750C527.417,753.673 525.427,758.668 522.286,765.395C519.879,764.19 517.27,763.327 514.523,762.872C515.563,757.509 516.556,753.271 517.564,750L515.16,750C515.088,753.36 514.725,757.578 514.081,762.802C512.751,762.604 511.387,762.501 510,762.501C508.613,762.501 507.249,762.604 505.919,762.802C505.275,757.578 504.912,753.36 504.84,750L502.436,750C503.444,753.271 504.437,757.509 505.477,762.872C502.731,763.327 500.123,764.189 497.714,765.395C494.573,758.668 492.583,753.673 491.639,750L486.96,750C489.67,752.727 492.961,757.735 497.315,765.599C494.88,766.869 492.658,768.492 490.717,770.402C480.098,759.025 476.633,753.323 478.259,750L467.149,750C457.362,760.479 451.369,774.545 451.369,790C451.369,805.455 457.362,819.521 467.149,830L478.259,830C476.634,826.677 480.099,820.975 490.717,809.6C492.657,811.509 494.879,813.133 497.315,814.403C492.962,822.265 489.671,827.273 486.962,830L491.64,830C492.584,826.326 494.574,821.332 497.714,814.606C500.121,815.812 502.73,816.675 505.477,817.13C504.437,822.492 503.444,826.73 502.436,830L504.84,830C504.912,826.639 505.275,822.422 505.919,817.199C507.249,817.398 508.613,817.501 510,817.501C511.387,817.501 512.751,817.398 514.081,817.199C514.725,822.422 515.088,826.639 515.16,830L517.564,830C516.556,826.73 515.563,822.492 514.523,817.13C517.269,816.675 519.877,815.812 522.286,814.606C525.426,821.332 527.416,826.326 528.36,830L533.038,830C530.329,827.273 527.038,822.265 522.685,814.403C525.12,813.133 527.342,811.509 529.283,809.6C539.901,820.975 543.366,826.677 541.741,830L552.851,830C562.638,819.521 568.631,805.455 568.631,790C568.631,774.545 562.638,760.479 552.851,750L541.741,750ZM485.598,802.685C486.868,805.121 488.492,807.343 490.401,809.284C476.856,821.927 471.355,824.428 468.335,820.272C465.316,816.116 469.393,811.658 485.598,802.685ZM534.402,802.685C550.607,811.658 554.684,816.116 551.665,820.272C548.645,824.428 543.144,821.927 529.599,809.284C531.508,807.343 533.132,805.121 534.402,802.685ZM482.871,794.524C483.326,797.269 484.188,799.878 485.395,802.287C468.611,810.122 462.608,810.801 461.02,805.915C459.433,801.031 464.687,798.051 482.871,794.524ZM537.129,794.524C555.313,798.051 560.567,801.031 558.98,805.915C557.392,810.801 551.389,810.122 534.605,802.287C535.811,799.879 536.674,797.27 537.129,794.524ZM482.801,794.082C464.418,796.348 458.5,795.137 458.5,790.001C458.5,784.864 464.418,783.654 482.801,785.92C482.603,787.25 482.5,788.614 482.5,790.001C482.5,791.388 482.603,792.751 482.801,794.082ZM537.199,785.92C555.582,783.654 561.5,784.864 561.5,790.001C561.5,795.137 555.582,796.348 537.199,794.082C537.397,792.751 537.5,791.388 537.5,790.001C537.5,788.614 537.397,787.25 537.199,785.92ZM534.605,777.715C551.389,769.879 557.392,769.201 558.98,774.086C560.567,778.971 555.313,781.951 537.129,785.477C536.674,782.732 535.812,780.124 534.605,777.715ZM482.871,785.477C464.687,781.951 459.433,778.971 461.02,774.086C462.608,769.201 468.611,769.879 485.395,777.715C484.189,780.122 483.326,782.731 482.871,785.477ZM485.598,777.316C469.393,768.343 465.316,763.885 468.335,759.73C471.355,755.573 476.856,758.075 490.401,770.718C488.492,772.658 486.868,774.88 485.598,777.316ZM529.599,770.718C543.144,758.075 548.645,755.573 551.665,759.73C554.684,763.885 550.607,768.343 534.402,777.316C533.132,774.881 531.508,772.659 529.599,770.718ZM664,600L700,636L695,605L664,600ZM356,600L320,636L325,605L356,600ZM683.842,609.795C684.628,609.02 686.681,609.827 688.425,611.596C690.168,613.365 690.945,615.431 690.158,616.205C689.372,616.98 687.319,616.173 685.575,614.404C683.832,612.635 683.055,610.569 683.842,609.795ZM336.158,609.795C335.372,609.02 333.319,609.827 331.575,611.596C329.832,613.365 329.055,615.431 329.842,616.205C330.628,616.98 332.681,616.173 334.425,614.404C336.168,612.635 336.945,610.569 336.158,609.795Z" style="fill:white;"/>
    </g>
</svg>
