<?xml version="1.0" encoding="UTF-8" standalone="no"?>
<!DOCTYPE svg PUBLIC "-//W3C//DTD SVG 1.1//EN" "http://www.w3.org/Graphics/SVG/1.1/DTD/svg11.dtd">
<svg width="100%" height="100%" viewBox="0 0 1000 1000" version="1.1" xmlns="http://www.w3.org/2000/svg" xmlns:xlink="http://www.w3.org/1999/xlink" xml:space="preserve" xmlns:serif="http://www.serif.com/" style="fill-rule:evenodd;clip-rule:evenodd;stroke-linejoin:round;stroke-miterlimit:2;">
    <g transform="matrix(2.63756,0,0,2.63756,-818.78,-757.597)">
        <path d="M498.754,647.415C472.451,647.386 437.393,646.463 431.918,643.781C426.924,638.34 420.542,633.345 413.708,628.495C436.653,631.15 457.454,631.268 500,631.272L507.728,631.27C545.154,631.244 564.781,630.984 586.292,628.495C579.458,633.345 573.076,638.34 568.082,643.781C562.52,646.506 526.431,647.415 500,647.415L498.754,647.415ZM495.956,629.188C454.855,629.175 434.722,628.974 411.642,626.151C411.642,626.151 408.569,354.817 418.434,341.743C423.462,335.078 425.66,328.145 424.414,321.192C432.472,317.586 455.3,313.377 500,313.377L501.044,313.378C545.055,313.442 567.591,317.614 575.586,321.192C574.34,328.145 576.538,335.078 581.566,341.743C591.431,354.817 588.358,626.151 588.358,626.151C564.532,629.065 543.847,629.185 500,629.189L495.956,629.188ZM432.089,613.978C422.364,613.978 417.558,600.526 417.586,587.074C417.615,573.621 422.477,560.169 432.089,560.169C459.725,560.169 459.725,613.978 432.089,613.978ZM550.226,598.673C548.726,598.607 547.351,599.957 547.351,601.961C547.351,602.644 547.402,609.84 547.402,610.435C547.402,612.072 549.226,613.153 550.226,613.145L581.823,613.145C583.894,613.129 583.815,598.634 581.823,598.634L550.226,598.673ZM550.226,581.576C548.726,581.51 547.351,582.859 547.351,584.864C547.351,585.547 547.402,592.743 547.402,593.338C547.402,594.975 549.226,596.056 550.226,596.048L581.823,596.048C583.894,596.032 583.815,581.537 581.823,581.537L550.226,581.576ZM584.013,489.483L584.085,489.445C584.047,483.058 584.002,473.291 583.949,465.784L583.949,465.784C580.553,467.298 576.574,468.992 572.2,470.784L572.164,470.478L571.517,471.063C570.552,471.456 569.568,471.855 568.57,472.256L567.341,467.916L564.695,471.803C564.695,471.804 562.302,466.662 562.302,466.662L560.406,471.333L557.296,466.81L556.253,472.063C556.253,472.063 552.58,468.368 552.58,468.368L552.45,473.959C552.45,473.959 548.394,471.253 548.394,471.253L549.188,476.912C549.188,476.912 544.939,475.295 544.939,475.295L546.577,480.633L546.343,480.718L542.36,480.267L543.146,481.86C532.94,485.475 522.645,488.815 513.68,491.24C471.513,502.645 432.225,519.785 415.736,530.523C415.736,538.076 415.743,549.146 415.756,557.949C439.89,541.063 480.194,526.489 525.37,514.401C532.117,512.595 538.66,510.366 544.952,507.905L543.975,510.132L548.146,510.452C548.146,510.452 547.016,515.484 547.016,515.484L551.047,514.683C551.047,514.683 550.795,520.122 550.795,520.122L554.523,518.218C554.523,518.218 555.184,523.826 555.184,523.826L558.447,520.878C558.447,520.878 560.007,526.388 560.007,526.388L562.653,522.5C562.653,522.5 565.046,527.642 565.046,527.642L566.942,522.97C566.942,522.97 570.052,527.494 570.052,527.494L571.095,522.241C571.095,522.241 574.768,525.936 574.768,525.936L574.897,520.344C574.897,520.344 578.954,523.051 578.954,523.051L578.16,517.391C578.16,517.391 582.408,519.009 582.408,519.009L580.735,513.555C580.735,513.555 584.988,514.037 584.988,514.037L582.529,509.048C582.529,509.048 586.607,508.398 586.607,508.398L583.494,504.093C583.494,504.093 587.237,502.355 587.237,502.355L583.62,498.902C583.62,498.902 586.885,496.153 586.885,496.153L582.922,493.674C582.922,493.674 585.58,490.02 585.58,490.02L584.013,489.483ZM558.076,470.598L560.749,474.485L562.396,470.427L564.448,474.837L566.772,471.424L568.114,476.163L571.012,473.545L571.585,478.407L574.932,476.698L574.711,481.47L578.359,480.745L577.354,485.218L581.145,485.509L579.4,489.488L583.167,490.782L580.758,494.093L584.337,496.333L581.369,498.832L584.605,501.92L581.207,503.497L583.957,507.299L580.279,507.885L582.423,512.234L578.625,511.804L580.069,516.51L576.318,515.082L576.999,519.94L573.458,517.577L573.347,522.374L570.17,519.179L569.272,523.706L566.599,519.818L564.952,523.877L562.9,519.467L560.576,522.88L559.234,518.141L556.336,520.759L555.763,515.897L552.416,517.606L552.637,512.834L548.989,513.559L549.994,509.085L546.203,508.795L547.948,504.815L544.181,503.522L546.59,500.211L543.01,497.971L545.979,495.472L542.743,492.384L546.14,490.807L543.391,487.005L547.069,486.419L544.925,482.07L548.722,482.5L547.278,477.794L551.03,479.222L550.349,474.364L553.89,476.727L554.001,471.93L557.177,475.125L558.076,470.598ZM503.84,336.604C519.756,360.811 523.768,388.623 505.794,414.021C512.828,425.334 530.91,434.613 541.877,432.31C548.569,443.9 554.409,438.865 554.289,430.996C577.57,422.513 581.466,384.443 577.646,366.487C574.004,349.361 560.32,321.507 528.085,320.857C517.3,313.202 510.065,313.723 508.414,327.104L503.84,336.604ZM511.031,358.53C515.981,377.642 515.16,398.257 501.052,411.264C501.136,420.666 497.743,423.225 490.661,419.147C460.353,430.134 444.254,419.977 432.777,406.018C446.666,415.151 467.579,408.746 480.946,401.853C484.61,399.964 488.355,397.748 491.919,395.08C502.042,387.503 509.86,376.25 511.031,358.53ZM448.029,346.523C448.317,346.523 448.599,346.436 448.838,346.273C448.838,346.273 448.838,346.273 448.838,346.273C461.791,337.442 476.065,333.874 487.384,335.355C495.108,336.365 501.474,339.72 505.226,345.304C508.977,350.884 509.828,357.944 508.042,365.368C505.421,376.259 497.092,387.96 484.072,396.71C471.069,405.45 454.699,409.512 443.158,407.753C435.097,406.525 429.358,402.477 428.325,395.423C425.712,377.582 431.633,358.002 448.838,346.273C448.599,346.436 448.317,346.523 448.029,346.523L448.029,346.523ZM450.67,348.402C434.869,359.169 429.18,376.768 431.257,392.673C432.103,399.145 437.346,402.834 444.852,403.827C455.272,405.207 470.163,401.333 482.078,393.325C494.017,385.301 501.74,374.708 504.293,364.945C506.062,358.183 505.371,351.796 502.012,346.798C498.65,341.795 492.857,338.832 485.761,338.044C475.535,336.909 462.546,340.31 450.67,348.402L450.67,348.402ZM440.408,399.82L462.893,374.567C463.235,374.741 463.623,374.836 464.041,374.85L457.554,400.474C450.806,401.89 444.648,401.803 440.408,399.82ZM480.034,390.98C473.422,395.309 465.909,398.513 458.921,400.169L465.383,374.641C465.659,374.549 465.937,374.429 466.213,374.279L480.034,390.98ZM434.421,381.195L461.593,372.633C461.644,373.036 461.77,373.405 461.97,373.724L439.273,399.215C436.802,397.722 435.163,395.442 434.699,392.274C434.168,388.647 434.066,384.912 434.421,381.195ZM496.582,374.887C492.962,380.411 487.703,385.76 481.078,390.282L467.245,373.566C467.415,373.42 467.581,373.263 467.741,373.094C468.184,372.624 468.535,372.114 468.79,371.597L496.582,374.887ZM441.222,361.594L461.921,370.57C461.821,370.813 461.742,371.055 461.684,371.294L434.571,379.837C435.375,373.447 437.544,367.155 441.222,361.594ZM502.065,355.524C502.825,361.138 501.115,367.508 497.323,373.716L469.214,370.388C469.263,370.151 469.291,369.918 469.296,369.693C469.3,369.533 469.293,369.377 469.276,369.226L502.065,355.524ZM464.033,369.592C464.794,368.787 465.718,368.3 466.534,368.233C466.973,368.197 467.375,368.285 467.661,368.555C467.946,368.824 468.058,369.222 468.047,369.662C468.026,370.48 467.592,371.43 466.832,372.235C466.071,373.041 465.147,373.528 464.332,373.595C463.893,373.631 463.49,373.542 463.205,373.273C462.919,373.003 462.808,372.606 462.819,372.166C462.839,371.348 463.273,370.397 464.033,369.592ZM454.138,349.254L463.193,368.663C463.17,368.686 463.147,368.71 463.125,368.734C462.902,368.97 462.702,369.217 462.526,369.47L441.941,360.543C444.598,356.792 447.968,353.406 452.1,350.59C452.774,350.13 453.453,349.685 454.138,349.254ZM491.723,342.189C494.878,343.483 497.489,345.484 499.328,348.22C500.57,350.068 501.403,352.1 501.85,354.26L468.857,368.046C468.835,368.013 468.812,367.98 468.787,367.947L491.723,342.189ZM472.49,341.475L466.017,367.045C465.418,367.162 464.786,367.428 464.185,367.833L455.209,348.593C460.925,345.144 466.85,342.752 472.49,341.475ZM473.852,341.188C480.004,339.982 485.761,340.133 490.466,341.72L467.797,367.18C467.642,367.116 467.479,367.067 467.309,367.033L473.852,341.188ZM447.794,345.247L447.663,345.337L448.029,346.522C448.027,346.513 447.933,345.887 447.794,345.247ZM497.897,311.412C454.079,311.499 431.579,314.339 423.132,319.407C421.369,313.446 427.582,306.191 500,306.191L501.685,306.192C572.514,306.304 578.617,313.492 576.868,319.407C568.287,314.259 545.205,311.41 500,311.41L497.897,311.412Z" style="fill:white;"/>
    </g>
</svg>
