<?xml version="1.0" encoding="UTF-8" standalone="no"?>
<!DOCTYPE svg PUBLIC "-//W3C//DTD SVG 1.1//EN" "http://www.w3.org/Graphics/SVG/1.1/DTD/svg11.dtd">
<svg width="100%" height="100%" viewBox="0 0 1000 1000" version="1.1" xmlns="http://www.w3.org/2000/svg" xmlns:xlink="http://www.w3.org/1999/xlink" xml:space="preserve" xmlns:serif="http://www.serif.com/" style="fill-rule:evenodd;clip-rule:evenodd;stroke-linejoin:round;stroke-miterlimit:2;">
    <g transform="matrix(10.1532,0,0,10.1599,-4576.62,-4504.77)">
        <path d="M499.744,529.945C488.871,527.567 472.759,520.783 466,513.024C464.016,510.747 461.795,508.237 457.095,506.782C457.885,505.427 460.2,504.394 463.693,503.61C460.949,501.83 458.435,499.866 456.022,497.819C455.892,497.74 455.777,497.643 455.679,497.527C455.793,497.624 455.907,497.722 456.022,497.819C458.651,499.404 467.578,493.452 469.497,485C471.213,477.446 483.838,472 483.838,472C489.944,451.787 495.437,448.252 500,470L500.107,469.495C504.649,448.308 510.104,451.945 516.162,472C516.162,472 528.787,477.446 530.503,485C532.422,493.452 541.349,499.404 543.978,497.819C544.093,497.722 544.207,497.624 544.321,497.527C544.223,497.643 544.108,497.74 543.978,497.819C541.565,499.866 539.051,501.83 536.307,503.61C539.8,504.394 542.115,505.427 542.905,506.782C538.205,508.237 535.984,510.747 534,513.024C527.188,520.844 510.875,527.674 500,530L499.744,529.945ZM501.174,502.141C501.368,501.934 501.506,501.712 501.5,501.5C501.493,501.25 500,501.5 500,501.5C500,501.5 498.507,501.25 498.5,501.5C498.494,501.712 498.632,501.934 498.826,502.141C498.357,502.203 497.891,502.287 497.43,502.394C496.096,502.707 494.807,503.22 493.645,503.949C492.824,504.465 492.069,505.085 491.408,505.795C490.88,506.362 490.413,506.985 490.015,507.649C489.692,508.188 489.414,508.754 489.184,509.339C488.459,511.183 488.214,513.2 488.428,515.168C488.568,516.458 488.904,517.726 489.414,518.919C490.059,520.427 490.982,521.809 492.11,522.997C492.97,523.903 493.947,524.695 495,525.364C496.516,526.328 498.182,527.03 499.908,527.52L500,527.546L500.092,527.52C501.818,527.03 503.484,526.328 505,525.364C506.053,524.695 507.03,523.903 507.89,522.997C509.018,521.809 509.941,520.427 510.586,518.919C511.096,517.726 511.432,516.458 511.572,515.168C511.786,513.2 511.541,511.183 510.816,509.339C510.586,508.754 510.308,508.188 509.985,507.649C509.587,506.985 509.12,506.362 508.592,505.795C507.931,505.085 507.176,504.465 506.355,503.949C505.193,503.22 503.904,502.707 502.57,502.394C502.109,502.287 501.643,502.203 501.174,502.141ZM503.389,509.748C503.063,509.802 502.743,509.773 502.366,509.786C502.153,509.794 501.934,509.788 501.705,509.818C501.488,509.846 501.274,509.909 501.044,509.963C500.705,510.042 500.386,510.148 500.01,510.225C499.858,510.219 499.73,510.338 499.725,510.49C499.719,510.642 499.838,510.77 499.99,510.775C500.383,510.885 500.728,510.98 501.094,511.03C501.357,511.065 501.608,511.079 501.854,511.058C501.957,511.05 502.058,511.027 502.155,511.002C502.311,510.962 502.458,510.918 502.598,510.857C502.996,510.684 503.31,510.487 503.611,510.252C503.75,510.191 503.813,510.029 503.752,509.889C503.691,509.75 503.529,509.687 503.389,509.748ZM522.517,492.842C522.525,492.811 522.534,492.78 522.542,492.749C522.633,492.415 522.761,492.064 522.911,491.716C522.971,491.578 523.033,491.44 523.094,491.302C523.189,491.09 523.283,490.88 523.378,490.675C523.671,490.042 523.956,489.479 524.153,489.101C524.209,489.017 524.186,488.903 524.101,488.847C524.017,488.791 523.903,488.814 523.847,488.899C523.571,489.235 523.151,489.726 522.743,490.31C522.606,490.505 522.475,490.71 522.352,490.923C522.27,491.064 522.195,491.209 522.124,491.356C521.936,491.746 521.779,492.144 521.685,492.528C521.652,492.663 521.627,492.796 521.61,492.927C520.972,492.995 520.342,493.084 519.719,493.195C519.015,493.321 518.323,493.481 517.643,493.669C517.184,493.795 516.729,493.934 516.285,494.096C515.164,494.504 514.089,495.01 513.059,495.6C511.539,496.472 510.134,497.541 508.82,498.791C508.705,498.891 508.692,499.065 508.791,499.18C508.891,499.295 509.065,499.308 509.18,499.209C509.796,498.732 510.429,498.299 511.075,497.898C511.843,501.678 513.916,503.632 516.276,503C519.359,502.174 521.601,499.411 519.232,494.464C519.928,494.266 520.634,494.085 521.354,493.924C521.528,493.885 521.702,493.847 521.877,493.81C521.914,493.822 521.954,493.828 521.995,493.829C522.1,493.83 522.196,493.792 522.27,493.729C523.075,493.567 523.892,493.426 524.726,493.313C524.797,493.376 524.89,493.415 524.993,493.417C525.223,493.421 525.413,493.237 525.417,493.007C525.425,492.912 525.439,492.818 525.449,492.724C525.47,492.505 525.495,492.288 525.532,492.072C525.562,491.888 525.599,491.706 525.641,491.522C525.669,491.4 525.695,491.278 525.726,491.155C525.828,490.747 525.947,490.344 526.151,489.933C526.209,489.849 526.188,489.735 526.105,489.677C526.021,489.619 525.907,489.64 525.849,489.723C525.547,490.045 525.301,490.37 525.098,490.722C525.005,490.882 524.927,491.045 524.861,491.214C524.729,491.556 524.648,491.913 524.606,492.272C524.588,492.425 524.582,492.58 524.581,492.734C523.885,492.753 523.197,492.787 522.517,492.842ZM478.39,492.927C478.373,492.796 478.348,492.663 478.315,492.528C478.221,492.144 478.064,491.746 477.876,491.356C477.805,491.209 477.73,491.064 477.648,490.923C477.525,490.71 477.394,490.505 477.257,490.31C476.849,489.726 476.429,489.235 476.153,488.899C476.097,488.814 475.983,488.791 475.899,488.847C475.814,488.903 475.791,489.017 475.847,489.101C476.044,489.479 476.329,490.042 476.622,490.675C476.717,490.88 476.811,491.09 476.906,491.302C476.967,491.44 477.029,491.578 477.089,491.716C477.239,492.064 477.367,492.415 477.458,492.749C477.466,492.78 477.475,492.811 477.483,492.842C476.803,492.787 476.115,492.753 475.419,492.734C475.418,492.58 475.412,492.425 475.394,492.272C475.352,491.913 475.271,491.556 475.139,491.214C475.073,491.045 474.995,490.882 474.902,490.722C474.699,490.37 474.453,490.045 474.151,489.723C474.093,489.64 473.979,489.619 473.895,489.677C473.812,489.735 473.791,489.849 473.849,489.933C474.053,490.344 474.172,490.747 474.274,491.155C474.305,491.278 474.331,491.4 474.359,491.522C474.401,491.706 474.438,491.888 474.468,492.072C474.505,492.288 474.53,492.505 474.551,492.724C474.561,492.818 474.575,492.912 474.583,493.007C474.587,493.237 474.777,493.421 475.007,493.417C475.11,493.415 475.203,493.376 475.274,493.313C476.108,493.426 476.925,493.567 477.73,493.729C477.804,493.792 477.9,493.83 478.005,493.829C478.046,493.828 478.086,493.822 478.123,493.81C478.298,493.847 478.472,493.885 478.646,493.924C479.366,494.085 480.072,494.266 480.768,494.464C478.399,499.411 480.641,502.174 483.724,503C486.084,503.632 488.157,501.678 488.925,497.898C489.571,498.299 490.204,498.732 490.82,499.209C490.935,499.308 491.109,499.295 491.209,499.18C491.308,499.065 491.295,498.891 491.18,498.791C489.866,497.541 488.461,496.472 486.941,495.6C485.911,495.01 484.836,494.504 483.715,494.096C483.271,493.934 482.816,493.795 482.357,493.669C481.677,493.481 480.985,493.321 480.281,493.195C479.658,493.084 479.028,492.995 478.39,492.927ZM515.5,495.5C517.018,495.5 518.25,496.732 518.25,498.25C518.25,499.768 517.018,501 515.5,501C513.982,501 512.75,499.768 512.75,498.25C512.75,496.732 513.982,495.5 515.5,495.5ZM484.5,495.5C482.982,495.5 481.75,496.732 481.75,498.25C481.75,499.768 482.982,501 484.5,501C486.018,501 487.25,499.768 487.25,498.25C487.25,496.732 486.018,495.5 484.5,495.5ZM518.914,488.738C517.804,489.006 516.709,489.29 515.63,489.659C515.197,489.807 514.772,489.972 514.35,490.149C514.069,490.267 513.79,490.389 513.517,490.527C512.838,490.869 512.182,491.259 511.542,491.683C510.598,492.307 509.709,493.014 508.835,493.78C508.713,493.871 508.688,494.044 508.78,494.165C508.871,494.287 509.044,494.312 509.165,494.22C510.119,493.614 511.094,493.1 512.078,492.606C512.634,492.328 513.193,492.069 513.749,491.802C514.12,491.623 514.489,491.44 514.858,491.258C515.415,490.982 515.969,490.706 516.529,490.438C517.378,490.031 518.218,489.629 519.086,489.262C519.23,489.214 519.309,489.059 519.262,488.914C519.214,488.77 519.059,488.691 518.914,488.738ZM481.086,488.738C482.196,489.006 483.291,489.29 484.37,489.659C484.803,489.807 485.228,489.972 485.65,490.149C485.931,490.267 486.21,490.389 486.483,490.527C487.162,490.869 487.818,491.259 488.458,491.683C489.402,492.307 490.291,493.014 491.165,493.78C491.287,493.871 491.312,494.044 491.22,494.165C491.129,494.287 490.956,494.312 490.835,494.22C489.881,493.614 488.906,493.1 487.922,492.606C487.366,492.328 486.807,492.069 486.251,491.802C485.88,491.623 485.511,491.44 485.142,491.258C484.585,490.982 484.031,490.706 483.471,490.438C482.622,490.031 481.782,489.629 480.914,489.262C480.77,489.214 480.691,489.059 480.738,488.914C480.786,488.77 480.941,488.691 481.086,488.738ZM508.085,481.262C508.709,481.134 509.336,481.153 509.994,481.242C510.399,481.296 510.807,481.393 511.231,481.509C511.531,481.59 511.835,481.687 512.149,481.787C512.45,481.882 512.76,481.976 513.075,482.087C513.528,482.244 513.991,482.415 514.469,482.615C514.921,482.805 515.381,483.003 515.853,483.233C515.982,483.314 516.152,483.275 516.233,483.147C516.314,483.018 516.275,482.848 516.147,482.767C515.414,482.195 514.71,481.688 513.992,481.283C513.449,480.977 512.909,480.727 512.372,480.548C512.139,480.47 511.904,480.414 511.672,480.368C511.303,480.294 510.942,480.246 510.586,480.234C509.623,480.204 508.737,480.37 507.915,480.738C507.77,480.785 507.691,480.941 507.738,481.085C507.785,481.23 507.941,481.309 508.085,481.262ZM491.915,481.262C491.291,481.134 490.664,481.153 490.006,481.242C489.601,481.296 489.193,481.393 488.769,481.509C488.469,481.59 488.165,481.687 487.851,481.787C487.55,481.882 487.24,481.976 486.925,482.087C486.472,482.244 486.009,482.415 485.531,482.615C485.079,482.805 484.619,483.003 484.147,483.233C484.018,483.314 483.848,483.275 483.767,483.147C483.686,483.018 483.725,482.848 483.853,482.767C484.586,482.195 485.29,481.688 486.008,481.283C486.551,480.977 487.091,480.727 487.628,480.548C487.861,480.47 488.096,480.414 488.328,480.368C488.697,480.294 489.058,480.246 489.414,480.234C490.377,480.204 491.263,480.37 492.085,480.738C492.23,480.785 492.309,480.941 492.262,481.085C492.215,481.23 492.059,481.309 491.915,481.262ZM511,471C509.576,470.588 508.198,470.299 506.865,470.132C505.531,469.965 504.243,469.921 503,470C506.766,455.898 509.281,458.226 511,471ZM489,471C490.424,470.588 491.802,470.299 493.135,470.132C494.469,469.965 495.757,469.921 497,470C493.234,455.898 490.719,458.226 489,471Z" style="fill:white;"/>
    </g>
</svg>
