<?xml version="1.0" encoding="UTF-8" standalone="no"?>
<!DOCTYPE svg PUBLIC "-//W3C//DTD SVG 1.1//EN" "http://www.w3.org/Graphics/SVG/1.1/DTD/svg11.dtd">
<svg width="100%" height="100%" viewBox="0 0 1000 1000" version="1.1" xmlns="http://www.w3.org/2000/svg" xmlns:xlink="http://www.w3.org/1999/xlink" xml:space="preserve" xmlns:serif="http://www.serif.com/" style="fill-rule:evenodd;clip-rule:evenodd;stroke-linejoin:round;stroke-miterlimit:2;">
    <g transform="matrix(1.73137,0,0,1.73137,-192.549,-676.342)">
        <path d="M504.388,602.398C502.575,616.772 500.456,631.404 496,648L498,650C497.071,666.753 493.203,677.697 488,686C501.144,709.206 507.394,896.653 502,934C499.462,951.575 543.626,921.595 546.022,904C549.881,875.667 537.885,790.639 525.151,740C515.896,703.194 503.972,618.486 504.388,602.398C504.489,601.597 504.589,600.798 504.688,600C504.516,600.393 504.418,601.207 504.388,602.398ZM295.612,602.398C297.425,616.772 299.544,631.404 304,648L302,650C302.929,666.753 306.797,677.697 312,686C296.219,707.432 289.21,894.282 298,934C301.837,951.338 256.374,921.595 253.978,904C250.119,875.667 262.115,790.639 274.849,740C284.104,703.194 296.028,618.486 295.612,602.398C295.511,601.597 295.411,600.798 295.312,600C295.484,600.393 295.582,601.207 295.612,602.398ZM399.875,807.984C399.583,807.942 399.293,807.879 399,807.879C382.788,807.879 371.168,804.03 362,797.766C351.533,790.614 345.598,778.134 337,769C332.046,766.118 327.957,763.072 324,760C324.958,731.95 320.519,708.441 316,685C311.091,679.494 306.909,670.579 305,651C306.111,650.221 307.082,649.583 308,649C303.145,631.243 299.536,613.288 298,595C328.783,581.674 354.913,570 400,570L401.053,570.002C445.495,570.182 471.457,581.778 502,595C500.464,613.288 496.855,631.243 492,649C492.918,649.583 493.889,650.221 495,651C493.091,670.579 488.909,679.494 484,685C479.481,708.441 475.042,731.95 476,760C472.043,763.072 467.954,766.118 463,769C454.402,778.134 448.467,790.614 438,797.766C428.832,804.03 417.212,807.879 401,807.879C400.665,807.879 400.335,807.961 400,808L399.875,807.984ZM486.236,696.235C480.94,714.592 479.876,737.2 480,761C475.976,764.469 471.786,767.989 466,772C460.424,779.558 454.14,786.979 446.974,794.227C467.585,792.218 484.64,776.353 493.85,770C491.613,736.098 489.735,718.495 486.236,696.235ZM313.764,696.235C319.06,714.592 320.124,737.2 320,761C324.024,764.469 328.214,767.989 334,772C339.576,779.558 345.86,786.979 353.026,794.227C332.415,792.218 315.36,776.353 306.15,770C308.387,736.098 310.265,718.495 313.764,696.235ZM400,710C396.364,709.866 392.702,710.131 389,711C384.392,711.415 380.409,712.431 377,714C374.269,714.499 371.597,715.454 369,717C366.302,717.116 363.634,718.059 361,720C358.644,720.322 356.286,720.599 354,722C352.299,722.223 350.639,722.973 349,724C346.921,724.573 345.372,725.694 344,727L344,753C345.449,754.085 347.025,755.12 349,756C351,756.881 353,757.127 355,757C357.415,756.395 359.429,755.73 361,755C362.778,754.865 364.477,754.588 366,754C368.484,753.486 370.834,752.836 373,752C375.235,752.558 377.563,752.589 380,752C381.938,752.216 384.934,752.229 387,752C391.839,751.717 395.483,751.001 400,750L400.837,750.184C404.977,751.089 408.464,751.735 413,752C415.066,752.229 418.062,752.216 420,752C422.437,752.589 424.765,752.558 427,752C429.166,752.836 431.516,753.486 434,754C435.523,754.588 437.222,754.865 439,755C440.571,755.73 442.585,756.395 445,757C447,757.127 449,756.881 451,756C452.975,755.12 454.551,754.085 456,753L456,727C454.628,725.694 453.079,724.573 451,724C449.361,722.973 447.701,722.223 446,722C443.714,720.599 441.356,720.322 439,720C436.366,718.059 433.698,717.116 431,717C428.403,715.454 425.731,714.499 423,714C419.591,712.431 415.608,711.415 411,711C407.414,710.158 403.865,709.883 400.341,709.989L400,710ZM450.925,744.598C451.919,744.639 452.939,744.758 454,745L454,752C452.829,752.826 451.578,754.573 450,755C448.192,755.211 446.424,755.357 445,755C443.301,755.072 441.623,753.877 440,753C438,752.75 436,752.364 434,751.523C431.6,751.318 429.248,750.783 427,749.558C424.356,750.11 422.029,750.058 420,749.451C417.758,749.815 415.462,750.073 413,750C408.333,749.759 404.667,749.115 400,748L401,736C404.398,736.012 407.757,736.418 411,738C411.048,737.998 411.095,737.997 411.142,737.995L411,747.555L411.571,737.984C414.289,737.922 416.955,738.108 419.475,739L419.5,738.993L419.5,747.5L420.419,738.765C422.644,738.309 424.829,738.524 427,739L427,747.5L427.893,739.015C429.695,739.091 431.588,739.432 433.559,740C433.707,739.994 433.854,739.991 434,739.991L434,749L434.409,740C435.999,740.067 437.508,740.495 439,741C439.212,741.022 439.424,741.046 439.637,741.074L440.5,751L440.5,741.207C441.956,741.47 443.427,741.953 444.937,742.958L444.5,753L445.845,743.134C447.256,743.398 448.643,743.864 450,744.58L450,752L450.925,744.598ZM349.075,744.598C348.081,744.639 347.061,744.758 346,745L346,752C347.171,752.826 348.422,754.573 350,755C351.808,755.211 353.576,755.357 355,755C356.699,755.072 358.377,753.877 360,753C362,752.75 364,752.364 366,751.523C368.4,751.318 370.752,750.783 373,749.558C375.644,750.11 377.971,750.058 380,749.451C382.242,749.815 384.538,750.073 387,750C391.667,749.759 395.333,749.115 400,748L399,736C395.602,736.012 392.243,736.418 389,738C388.952,737.998 388.905,737.997 388.858,737.995L389,747.555L388.429,737.984C385.711,737.922 383.045,738.108 380.525,739L380.5,738.993L380.5,747.5L379.581,738.765C377.356,738.309 375.171,738.524 373,739L373,747.5L372.107,739.015C370.305,739.091 368.412,739.432 366.441,740C366.293,739.994 366.146,739.991 366,739.991L366,749L365.591,740C364.001,740.067 362.492,740.495 361,741C360.788,741.022 360.576,741.046 360.363,741.074L359.5,751L359.5,741.207C358.044,741.47 356.573,741.953 355.063,742.958L355.5,753L354.155,743.134C352.744,743.398 351.357,743.864 350,744.58L350,752L349.075,744.598ZM399.517,726.079C396.767,726.524 393.944,726.893 390.853,726.983L390,715L390,727C386.658,727.474 383.405,728.015 379.429,728.003L378,718L378.72,728.083C376.24,728.814 373.706,729.509 370.742,729.907L370,721L370,730C367.092,730.636 364.103,731.007 361,731L361,723.872L360.339,731.224C358.602,731.784 356.834,732.124 355,732C354.876,732.088 354.752,732.176 354.626,732.263L354,726L354,732.691C352.578,733.64 351.03,734.526 349.247,735.297L349,728L348.58,735.552C347.71,735.837 346.853,735.952 346,736L346,728C346.91,727.229 347.911,726.564 349,726C350.989,724.998 352.985,724.108 355,723.5C356.9,722.755 358.813,722.043 361,722C364,720.519 366.5,719.361 369.5,719C372.146,717.386 375.368,716.024 378.5,716C381.698,714.652 384.974,713.361 389.5,713C393.129,712.12 396.621,711.729 400,711.744L400.317,711.743C403.597,711.754 406.985,712.147 410.5,713C415.026,713.361 418.302,714.652 421.5,716C424.632,716.024 427.854,717.386 430.5,719C433.5,719.361 436,720.519 439,722C441.187,722.043 443.1,722.755 445,723.5C447.015,724.108 449.011,724.998 451,726C452.089,726.564 453.09,727.229 454,728L454,736C453.147,735.952 452.29,735.837 451.42,735.552L451,728L450.753,735.297C448.97,734.526 447.422,733.64 446,732.691L446,726L445.374,732.263C445.248,732.176 445.124,732.088 445,732C443.166,732.124 441.398,731.784 439.661,731.224L439,723.872L439,731C435.897,731.007 432.908,730.636 430,730L430,721L429.258,729.907C426.294,729.509 423.76,728.814 421.28,728.083L422,718L420.571,728.003C416.595,728.015 413.342,727.474 410,727L410,715L409.147,726.983C406.056,726.893 403.233,726.524 400.483,726.079L400,714L399.517,726.079ZM399.154,563.984C363.336,563.362 327.68,569.194 292.505,593.991C288.654,632.66 282.627,671.33 276.605,710C244.602,635.836 199.836,563.525 270,493.361C287.788,476.406 305.4,476.319 323,491C330.66,465.033 339.361,442.146 350,425C356.564,414.421 379.984,420.656 400,431L400.47,430.758C420.38,420.56 443.487,414.503 450,425C460.639,442.146 469.34,465.033 477,491C494.6,476.319 512.212,476.406 530,493.361C600.164,563.525 555.398,635.836 523.395,710C517.373,671.33 511.346,632.66 507.495,593.991C472.043,568.999 436.103,563.272 400,564L399.154,563.984ZM328,619C326.782,629.591 325.269,643.179 331,648C337.967,653.861 373.018,645.729 378,638C382.224,631.447 377.329,616.544 371,610C361.272,599.942 329.076,609.646 328,619ZM472,619C473.218,629.591 474.731,643.179 469,648C462.033,653.861 426.982,645.729 422,638C417.776,631.447 422.671,616.544 429,610C438.728,599.942 470.924,609.646 472,619ZM399.793,644.605C395.457,642.902 392.254,644.343 391,647.5L379.5,676.5C377.387,682.85 393.666,687.641 394.5,682.5C396.076,672.785 397.759,664.351 400,662.605L400.052,662.647C402.268,664.483 403.936,672.861 405.5,682.5C406.334,687.641 422.613,682.85 420.5,676.5L409,647.5C407.726,644.293 404.441,642.857 400,644.689L399.793,644.605Z" style="fill:white;"/>
    </g>
</svg>
