<?xml version="1.0" encoding="UTF-8" standalone="no"?>
<!DOCTYPE svg PUBLIC "-//W3C//DTD SVG 1.1//EN" "http://www.w3.org/Graphics/SVG/1.1/DTD/svg11.dtd">
<svg width="100%" height="100%" viewBox="0 0 1000 1000" version="1.1" xmlns="http://www.w3.org/2000/svg" xmlns:xlink="http://www.w3.org/1999/xlink" xml:space="preserve" xmlns:serif="http://www.serif.com/" style="fill-rule:evenodd;clip-rule:evenodd;stroke-linejoin:round;stroke-miterlimit:2;">
    <g transform="matrix(2.42618,0,0,2.42618,-808.559,-594.886)">
        <path d="M724.827,492.132C702.252,496.447 678.609,508.6 662.444,518.799C611.102,551.193 511.799,523.948 470.206,477.761C301.146,290.032 376.832,432.069 393.569,462.821L447.603,465.459L414.84,489.429C439.972,509.713 475.349,516.561 513.77,519.417C473.666,523.798 433.781,526.333 398.721,487.95L423.708,472.712L387.679,470C361.377,440.538 353.965,411.075 353.873,381.613C384.429,374.4 444.759,394.088 467.158,424.039C507.701,478.249 552.397,490.741 599.038,467.391C649.717,442.018 708.666,480.617 724.827,492.132ZM479.322,433.935C482.957,438.144 486.623,442.025 490.319,445.582C512.289,456.015 528,464.299 540.676,473.909C547.87,475.296 555.142,475.639 562.481,474.97C546.046,451.078 505.998,433.782 482.334,424.929C480.201,427.664 479.232,430.674 479.322,433.935ZM566.852,474.454C570.765,473.886 574.695,473.035 578.643,471.906C566,428.513 544.847,414.116 516.94,396.138L503.692,403.509L504.157,410.528L511.536,406.631C542.915,433.987 561.792,455.015 566.852,474.454ZM491.144,426.13C505.521,431.855 523.391,439.957 538.604,450.144C548.852,457.006 557.889,464.826 563.939,473.478C558.493,455.173 540.537,435.447 511.499,409.987C511.392,409.893 511.285,409.799 511.177,409.705L505.347,412.783C504.583,413.187 503.667,413.176 502.913,412.754C502.484,412.515 502.14,412.161 501.913,411.741C501.276,412.041 500.639,412.33 500,412.611C498.337,418.066 495.208,422.442 491.144,426.13ZM495.494,450.333C506.055,455.435 515.071,460.061 522.971,464.676C527.538,467.345 531.732,470.01 535.634,472.763C534.357,472.428 533.08,472.059 531.805,471.656C519.424,467.74 507.312,460.667 495.494,450.333ZM523.456,397.32C545.459,411.68 562.976,425.033 575.156,454.205C574.803,448.138 574.7,442.715 577.065,439.104C580.206,434.308 581.12,430.59 579.09,425.408C583.305,428.306 585.895,428.396 585.396,423.15C585.189,420.979 589.343,423.16 590.8,424.305C598.913,430.684 607.257,428.702 613.289,407.758C616.227,397.559 628.851,388.726 636.627,377.788C624.757,377.644 613.065,380.019 601.869,389.353C593.656,379.517 589.031,373.102 582.074,370.698C572.238,367.299 562.108,372.875 542.892,373.74C537.209,382.991 530.635,390.861 523.456,397.32ZM668.477,435.106C669.049,438.886 667.434,440.561 664.824,441.279L648.525,431.434C646.737,427.168 647.278,424.572 652.246,425.15L668.477,435.106ZM640.03,411.783C641.621,411.486 643.238,412.99 643.639,415.139C644.041,417.289 643.075,419.275 641.484,419.572C639.894,419.869 638.276,418.365 637.875,416.216C637.473,414.066 638.439,412.08 640.03,411.783ZM635.9,397.534C637.49,397.237 639.108,398.741 639.509,400.89C639.911,403.04 638.945,405.026 637.354,405.323C635.764,405.62 634.146,404.116 633.745,401.967C633.343,399.817 634.309,397.831 635.9,397.534ZM632.071,387.708L631.921,387.598L626.413,392.671C630.984,397.138 638.301,392.353 632.071,387.708Z" style="fill:white;"/>
    </g>
</svg>
