<?xml version="1.0" encoding="UTF-8" standalone="no"?>
<!DOCTYPE svg PUBLIC "-//W3C//DTD SVG 1.1//EN" "http://www.w3.org/Graphics/SVG/1.1/DTD/svg11.dtd">
<svg width="100%" height="100%" viewBox="0 0 1000 1000" version="1.1" xmlns="http://www.w3.org/2000/svg" xmlns:xlink="http://www.w3.org/1999/xlink" xml:space="preserve" xmlns:serif="http://www.serif.com/" style="fill-rule:evenodd;clip-rule:evenodd;stroke-linejoin:round;stroke-miterlimit:2;">
    <g transform="matrix(11.3005,0,0,11.3005,-5306.39,-5605.23)">
        <path d="M516.441,506.817C523.029,502.826 531.103,500.305 537.47,500.447C541.767,500.542 545.325,501.857 547.48,504.427C549.629,506.991 550.533,510.914 549.011,516.543C547.327,522.777 542.267,525.117 536.063,524.73C530.718,524.397 524.489,521.912 519.371,518.483C522.929,534.784 522.146,557.679 523.081,577.904C523.134,579.052 522.245,580.028 521.096,580.081C519.948,580.134 518.972,579.245 518.919,578.096C517.912,556.32 519.078,531.371 514.282,515.315C509.055,531.937 506.438,553.333 504.071,575.224C503.948,576.367 502.919,577.195 501.776,577.071C500.633,576.948 499.805,575.919 499.929,574.776C502.142,554.313 504.606,534.282 509.129,518.061C501.918,523.385 494.128,526.031 488.333,525.541C485.448,525.297 483.004,524.308 481.201,522.611C479.381,520.899 478.174,518.449 477.923,515.158C477.591,510.807 478.755,507.636 480.864,505.463C482.941,503.322 486.018,502.111 489.823,501.876C495.604,501.518 503.217,503.439 511.119,507.193C511.877,506.452 512.889,506 514,506C514.908,506 515.75,506.302 516.441,506.817ZM509.798,511.177C509.838,511.458 509.903,511.731 509.99,511.993C502.874,518.414 494.64,521.893 488.684,521.389C486.824,521.232 485.219,520.67 484.056,519.576C482.909,518.497 482.235,516.916 482.077,514.842C481.857,511.957 482.456,509.805 483.854,508.364C485.285,506.89 487.459,506.197 490.08,506.035C495.433,505.704 502.478,507.621 509.798,511.177ZM517.958,512.141C522.815,516.589 530.221,520.191 536.322,520.572C540.398,520.826 543.882,519.552 544.989,515.457C546.033,511.593 545.761,508.863 544.286,507.104C542.817,505.352 540.307,504.677 537.378,504.612C531.572,504.483 524.198,506.883 518.249,510.59C518.239,511.136 518.137,511.659 517.958,512.141Z" style="fill:white;"/>
    </g>
</svg>
