<?xml version="1.0" encoding="UTF-8" standalone="no"?>
<!DOCTYPE svg PUBLIC "-//W3C//DTD SVG 1.1//EN" "http://www.w3.org/Graphics/SVG/1.1/DTD/svg11.dtd">
<svg width="100%" height="100%" viewBox="0 0 1000 1000" version="1.1" xmlns="http://www.w3.org/2000/svg" xmlns:xlink="http://www.w3.org/1999/xlink" xml:space="preserve" xmlns:serif="http://www.serif.com/" style="fill-rule:evenodd;clip-rule:evenodd;stroke-linejoin:round;stroke-miterlimit:2;">
    <g transform="matrix(4.95034,0,0,4.95034,-2083.6,-675.706)">
        <path d="M563.802,230.159C560.1,214.662 554.596,202.363 548,192C543.897,229.466 529.117,248.275 512,263C523.347,241.488 520.938,239.559 525,220C512.596,240.323 512.1,243.912 502,267C499.937,259.667 499.085,252.333 500,245C494.078,256.085 493.818,268.2 491,287L470,233C471.575,261.975 479.412,290.842 491,320C476.106,300.265 459.189,285.363 465,247.572C467.032,234.354 463.774,220.048 465,205C461.385,244.124 459.358,285.321 460,330C456.173,318.619 453.112,307.136 455,295L445,315C445.176,298.932 448.509,285.599 455,275C449.655,281.882 442.555,286.265 435,290C450.636,269.764 458.447,244.423 460,215C448.584,219.949 439.859,220.363 431,221C441.784,211.225 455.122,204.773 461.136,190C464.094,182.735 465.471,176.372 475,170C467.65,161.923 462.844,153.568 460,145C466.006,149.381 481.319,157.994 490,155C516.531,145.85 555.405,151.405 565,158.005C591.031,175.914 591.466,213.262 595,225C598.99,238.25 602.577,236.433 612.806,238.754C604.367,242.402 596.93,242.18 590,240C588.589,276.169 597.226,295.542 610,308C602.429,307.106 594.809,304.109 587,293C586.582,302.296 592.656,312.898 601,324C594.028,321.035 587.108,318.014 583,312C581.838,319.266 579.434,325.189 576,330C575.265,317.316 572.49,307.35 567,301C564.471,308.699 560.319,314.514 555.882,320C578.289,273.059 579.241,232.254 575.923,194.053C575.924,218.177 577.387,242.392 569,266C573.324,233.253 570.155,210.941 566,190C567.336,203.396 569.289,216.792 564.311,230.187C565.831,230.272 567.395,230.377 569,230.5C568.832,253.443 558.14,256.1 545.5,255C560.069,255.173 568.025,248.643 566,232C565.157,231.886 564.322,231.782 563.499,231.69C563.391,245.53 556.975,251.814 553.5,252.113C549.994,252.416 541.472,247.479 542.5,232.872C540.484,233.533 538.644,234.4 537,235.5C538.597,230.509 548.992,229.368 563.802,230.159Z" style="fill:white;"/>
    </g>
</svg>
