<?xml version="1.0" encoding="UTF-8" standalone="no"?>
<!DOCTYPE svg PUBLIC "-//W3C//DTD SVG 1.1//EN" "http://www.w3.org/Graphics/SVG/1.1/DTD/svg11.dtd">
<svg width="100%" height="100%" viewBox="0 0 1000 1000" version="1.1" xmlns="http://www.w3.org/2000/svg" xmlns:xlink="http://www.w3.org/1999/xlink" xml:space="preserve" xmlns:serif="http://www.serif.com/" style="fill-rule:evenodd;clip-rule:evenodd;stroke-linejoin:round;stroke-miterlimit:2;">
    <g transform="matrix(2.57088,0,0,2.57088,-838.762,-695.554)">
        <path d="M490,290C484.49,296.501 482.05,394.409 495.898,406.174C500.199,409.829 510,415.544 510,415.544C458.646,436.773 456.143,452.276 520,460C437.814,484.138 447.908,496.144 520,500C492.658,514.973 483.428,528.86 520,540C540.048,566.512 547.126,603.515 554.845,640C558.539,642.88 564.482,562.213 546.053,530C543.034,524.724 533.782,516.511 533.782,516.511C583.649,495.948 584.588,481.86 524.342,475.871C599.614,450.445 598.529,435.952 516,433.12C555.724,418.351 556.241,403.986 520,390C502.515,359.135 494.805,325.047 490,290Z" style="fill:white;"/>
    </g>
</svg>
