<?xml version="1.0" encoding="UTF-8" standalone="no"?>
<!DOCTYPE svg PUBLIC "-//W3C//DTD SVG 1.1//EN" "http://www.w3.org/Graphics/SVG/1.1/DTD/svg11.dtd">
<svg width="100%" height="100%" viewBox="0 0 1000 1000" version="1.1" xmlns="http://www.w3.org/2000/svg" xmlns:xlink="http://www.w3.org/1999/xlink" xml:space="preserve" xmlns:serif="http://www.serif.com/" style="fill-rule:evenodd;clip-rule:evenodd;stroke-linejoin:round;stroke-miterlimit:2;">
    <g transform="matrix(0.269856,0,0,0.269856,-414.277,-52.0249)">
        <path d="M3672.85,2058.78C4130.77,2325.74 4270.96,2791.12 4440.3,3257.06C4450.66,3285.56 4496.57,3316.57 4507.01,3345.02C4158.43,3520.39 3889.11,3616.55 3673.47,3659.05C3497.73,3724.33 3335.12,3729.88 3184.82,3679.43C2882.71,3597.24 2582.79,3589 2285.26,3661.32C2264.29,3631.42 2262.95,3601.1 2285.26,3570.27C2296.17,3555.2 2312.72,3540.01 2335.39,3524.69C2257.08,3308.64 2317.59,3288.1 2354.9,2830.43C2378.43,2541.72 2508.82,2317.98 2701.45,2159.45C2837.92,2190.64 2982.45,2216.17 3142.24,2174.69C3016.67,2276.75 2958.11,2351.13 2959.82,2453.19C3003.23,2392.17 3032.4,2350.59 3117.24,2309.56C3167.38,2329.27 3140.73,2391.7 3147.18,2500C3192.58,2418.4 3225.03,2351.68 3233.35,2202.63C3315.61,2359.07 3319.53,2423.31 3352.96,2500C3340.14,2432.38 3343.14,2364.75 3388.02,2297.13C3449.24,2319.6 3494.72,2359.87 3528.13,2413.81C3530.18,2419.72 3532.95,2424.75 3536.87,2428.74C3534.05,2423.65 3531.14,2418.67 3528.13,2413.81C3510.39,2362.73 3545.59,2244.76 3347.13,2145.16C3482.96,2131.56 3586.28,2094.87 3672.85,2058.78ZM2838.74,2063.36C2516.36,1943.87 2285.26,1622.67 2285.26,1245.61C2285.26,766.803 2657.9,378.072 3116.89,378.072C3575.88,378.072 3948.52,766.803 3948.52,1245.61C3948.52,1562.77 3785.01,1840.41 3541.26,1991.7C3328,2064.96 3092.22,2082.53 2841.69,2063.58L2838.74,2063.36ZM2802.21,1036.47C2829.11,1036.47 2850.96,1078.56 2850.96,1130.41C2850.96,1182.27 2829.11,1224.36 2802.21,1224.36C2775.3,1224.36 2753.45,1182.27 2753.45,1130.41C2753.45,1078.56 2775.3,1036.47 2802.21,1036.47ZM3477.01,973.989C3503.92,973.989 3525.77,1016.09 3525.77,1067.94C3525.77,1119.79 3503.92,1161.88 3477.01,1161.88C3450.1,1161.88 3428.26,1119.79 3428.26,1067.94C3428.26,1016.09 3450.1,973.989 3477.01,973.989Z" style="fill:white;"/>
    </g>
</svg>
