<?xml version="1.0" encoding="UTF-8" standalone="no"?>
<!DOCTYPE svg PUBLIC "-//W3C//DTD SVG 1.1//EN" "http://www.w3.org/Graphics/SVG/1.1/DTD/svg11.dtd">
<svg width="100%" height="100%" viewBox="0 0 1000 1000" version="1.1" xmlns="http://www.w3.org/2000/svg" xmlns:xlink="http://www.w3.org/1999/xlink" xml:space="preserve" xmlns:serif="http://www.serif.com/" style="fill-rule:evenodd;clip-rule:evenodd;stroke-linejoin:round;stroke-miterlimit:2;">
    <g transform="matrix(1.48334,0,0,1.48334,-290.153,-163.477)">
        <path d="M386.602,688.898C393.88,682.173 401.842,676.914 416.421,677.966C438.979,697.974 465.16,711.865 495.574,718.607C502.966,727.069 506.041,737.209 503.905,749.374C482.187,753.848 453.501,745.957 433.784,735.698C414.079,725.446 391.921,706.181 386.602,688.898ZM385.181,686.05C379.524,662.308 392.562,648.126 402.888,642.581C421.442,632.616 443.491,635.505 478.299,653.58C513.47,671.843 529.595,688.654 532.093,713.684C533.666,729.452 523.367,740.924 507.102,749.46C516.175,724.475 484.192,701.487 461.819,689.619C442.13,679.175 400.682,662.163 385.181,686.05ZM508.938,697.563C508.461,701.931 506.704,705.096 504.664,706.357C503.336,707.178 501.863,707.217 500.422,706.409C498.898,705.555 497.355,703.623 496.174,700.27C495.512,698.39 494.981,696.026 494.593,693.146C494.353,691.059 493.976,689.458 493.478,688.252C492.8,686.61 491.934,685.768 490.931,685.529C489.7,685.237 488.364,685.672 487.14,686.335C485.649,687.143 484.318,688.271 483.501,689.063C483.197,689.386 482.726,689.333 482.451,688.947C482.176,688.56 482.2,687.985 482.504,687.663C483.485,686.531 485.21,684.809 487.131,683.751C488.445,683.028 489.853,682.647 491.19,682.854C493.709,683.244 496.162,685.718 497.244,692.746C497.653,695.956 498.285,698.435 499.032,700.292C499.741,702.058 500.519,703.231 501.4,703.803C502.435,704.475 503.529,704.277 504.491,703.444C505.841,702.274 506.954,700.066 507.474,697.177C507.545,696.685 507.931,696.372 508.335,696.479C508.739,696.586 509.009,697.072 508.938,697.563ZM488.443,690.741C487.691,690.921 487.226,691.679 487.407,692.432C487.588,693.185 488.346,693.649 489.098,693.468C489.851,693.287 490.315,692.53 490.134,691.777C489.954,691.024 489.196,690.56 488.443,690.741ZM462.396,674.33C464.828,677.76 467.991,678.914 470.086,678.074C472.181,677.235 473.208,674.403 471.367,669.864C489.673,681.29 458.06,692.752 462.396,674.33ZM458.116,662.902C458.041,667.885 456.064,671.801 453.449,673.652C451.747,674.857 449.744,675.219 447.673,674.629C445.482,674.005 443.124,672.181 441.073,668.691C439.922,666.734 438.886,664.208 437.976,661.074C437.375,658.796 436.65,657.089 435.811,655.849C434.671,654.161 433.379,653.408 431.98,653.359C430.264,653.3 428.5,654.075 426.919,655.081C424.993,656.306 423.326,657.855 422.317,658.917C421.945,659.343 421.297,659.387 420.871,659.014C420.445,658.642 420.402,657.994 420.774,657.568C421.962,656.091 424.087,653.794 426.566,652.196C428.261,651.103 430.131,650.373 431.981,650.315C435.466,650.204 439.136,652.437 441.538,660.054C442.519,663.551 443.708,666.184 444.971,668.097C446.171,669.915 447.386,671.058 448.663,671.506C450.161,672.032 451.628,671.574 452.829,670.434C454.514,668.835 455.741,666.128 456.069,662.787C456.101,662.222 456.585,661.789 457.15,661.821C457.715,661.853 458.147,662.337 458.116,662.902ZM448.673,663.16C447.921,663.341 447.456,664.099 447.637,664.851C447.818,665.604 448.576,666.068 449.329,665.888C450.081,665.707 450.545,664.949 450.365,664.196C450.184,663.444 449.426,662.979 448.673,663.16ZM826.275,598.056C818.79,591.563 810.668,586.557 796.129,588.065C774.209,608.771 748.476,623.475 718.288,631.168C711.165,639.858 708.41,650.089 710.926,662.18C732.773,665.972 761.198,657.185 780.583,646.313C799.958,635.448 821.5,615.498 826.275,598.056ZM731.006,567.051C728.621,568.417 726.33,569.773 724.131,571.125L725.595,601.463C725.621,601.995 725.419,602.513 725.04,602.887C711.338,616.423 696.971,635.823 694.041,653.803C697.899,657 702.524,659.838 707.733,662.367C700.232,643.569 716.557,625.182 734.478,611.935L731.006,567.051ZM720.488,573.414C694.962,589.825 683.113,605.699 681.633,627.392C680.996,636.734 684.455,644.447 690.801,650.848C694.632,633.082 708.365,614.242 721.81,600.811L720.488,573.414ZM738.6,562.852C737.286,563.552 735.958,564.275 734.611,565.022L738.041,609.38C742.504,606.275 746.975,603.502 751.118,601.136C760.213,595.939 774.067,589.142 787.883,585.826L738.6,562.852ZM769.808,581.085L739.5,568.347L740.899,597.229L760.861,585.749L746.345,578.66L746.345,588.208L744.935,576.665L763.952,584.209L769.808,581.085ZM748.635,557.81C746.729,558.704 744.783,559.657 742.792,560.669L794.093,584.583C807.48,582.475 820.144,584.421 827.606,595.166C828.676,589.954 828.873,585.224 828.417,580.958C824.751,578.437 820.033,576.432 814.755,574.891C803.729,571.67 790.276,570.525 778.462,571.308C778.15,571.328 777.838,571.271 777.553,571.14L748.635,557.81ZM753.156,555.765L778.69,567.535C790.812,566.787 804.533,567.998 815.807,571.291C820.16,572.562 824.15,574.15 827.567,576.047C824.561,563.645 815.834,555.898 808.545,552.273C793.567,544.824 776.639,545.55 753.156,555.765ZM527.368,453.981C542.646,477.352 557.885,488.42 578.554,490.132C588.173,490.929 596.124,487.348 602.738,480.72C583.288,477.053 565.787,466.428 550.956,455.723C541.944,454.784 533.914,454.15 527.368,453.981ZM524.956,450.19C532.121,450.247 541.338,450.943 551.845,452.045C552.171,452.079 552.483,452.199 552.749,452.391C567.82,463.307 585.719,474.297 605.711,477.432C608.735,473.758 611.453,469.411 613.905,464.544C589.076,474.035 565.553,442.443 553.31,420.273C552.808,419.364 552.291,418.408 551.762,417.406C541.011,415.831 530.441,413.1 520.074,409.067C519.498,408.843 519.07,408.35 518.929,407.748C513.033,382.63 515.682,360.626 522.445,345.787C513.92,349.669 508.275,356.347 505.287,362.141C495.637,380.86 498.896,402.857 517.553,437.356C520.044,441.961 522.503,446.234 524.956,450.19ZM551.324,345.079C544.722,352.469 539.598,360.518 540.895,375.077C561.28,397.296 575.609,423.24 582.862,453.536C591.447,460.784 601.637,463.688 613.764,461.348C617.873,439.558 609.5,411.009 598.912,391.467C588.329,371.937 568.695,350.107 551.324,345.079ZM530.883,423.087C531.173,428.843 529.462,434.424 525.337,439.794C532.095,439.311 538.479,441.184 544.551,445.01C544.926,438.66 547.275,432.652 551.359,426.944C543.569,427.325 536.921,425.733 530.883,423.087ZM381.439,351.359C373.954,344.865 365.832,339.859 351.293,341.367C329.373,362.073 303.64,376.778 273.452,384.47C266.33,393.16 263.574,403.391 266.09,415.483C287.938,419.274 316.362,410.488 335.748,399.616C355.122,388.75 376.665,368.801 381.439,351.359ZM284.402,349.182C263.165,364.835 248.989,379.389 247.393,405.524C251.582,409.375 256.846,412.732 262.897,415.669C254.528,394.694 275.823,374.23 295.903,360.846L284.402,349.182ZM549.652,413.282C539.205,392.198 527.371,357.896 548.453,343.706C540.35,341.919 533.387,342.274 527.519,343.93C519.873,357.789 516.507,380.11 522.357,405.928C531.305,409.336 540.409,411.755 549.652,413.282ZM282.667,345.803L278.79,324.738C251.095,341.862 238.337,358.13 236.797,380.695C236.232,388.977 238.888,395.979 243.919,401.921C246.545,376.427 261.09,361.648 282.667,345.803ZM314.472,327.327L297.445,314.232C294.616,315.678 291.696,317.245 288.681,318.933C286.45,320.181 284.299,321.421 282.22,322.658L286.482,345.811L286.566,346.036L299.111,358.759C301.562,357.202 303.973,355.757 306.282,354.438C309.622,352.53 313.604,350.405 317.993,348.316L315.045,328.271C314.834,328.084 314.662,327.846 314.55,327.566C314.518,327.487 314.492,327.408 314.472,327.327ZM308.678,353.03L308.109,332.234L290.367,319.119L291.457,342.97L308.678,353.03ZM318.782,327.911L321.542,346.676C342.299,337.381 370.071,330.18 382.77,348.468C384.749,338.834 383.742,330.846 381.146,324.399C362.644,318.667 339.851,319.906 318.782,327.911ZM317.032,324.565C337.793,316.584 360.203,315.011 378.943,319.887C374.878,312.874 368.926,308.169 363.71,305.575C347.253,297.391 328.443,299.075 301.173,312.369L317.032,324.565ZM726.358,293.814C740.147,287.451 752.061,279.583 760.952,269.705C767.214,269.683 772.906,268.763 778.157,267.151C779.146,266.847 779.703,265.798 779.399,264.808C779.095,263.819 778.046,263.262 777.056,263.566C773.059,264.793 768.788,265.59 764.18,265.856C765.643,263.98 767.002,262.039 768.25,260.027L785.002,256.885C786.02,256.695 786.69,255.714 786.5,254.697C786.309,253.68 785.328,253.009 784.311,253.199L766.74,256.495C766.215,256.593 765.756,256.912 765.48,257.37C756.53,272.22 741.354,283.038 722.932,291.251C720.327,289.151 717.769,286.743 715.26,284.074C741.762,286.116 755.335,249.142 760.771,224.406C765.554,202.638 770.833,158.147 743.664,149.617C749.556,146.357 755.129,144.664 760.278,144.099C768.705,150.705 775.685,159.762 780.312,172.975C777.248,174.108 774.167,175.266 771.044,176.484C770.08,176.86 769.602,177.948 769.978,178.912C770.354,179.876 771.442,180.354 772.406,179.978C775.462,178.787 778.476,177.653 781.473,176.544C782.271,179.193 782.982,181.995 783.599,184.965C780.083,186.192 776.689,187.484 772.904,188.525C771.907,188.8 771.32,189.832 771.594,190.83C771.869,191.828 772.902,192.415 773.899,192.141C777.579,191.128 780.898,189.886 784.308,188.689C784.726,191.102 785.087,193.616 785.386,196.238C781.486,197.724 777.535,199.176 773.267,200.414C772.273,200.702 771.701,201.743 771.989,202.737C772.277,203.731 773.318,204.304 774.312,204.015C779.177,202.604 783.641,200.924 788.078,199.223C788.87,198.92 789.36,198.122 789.272,197.278C786.501,170.693 777.809,154.569 765.938,143.916C776.759,144.419 785.262,149.778 790.289,155.022C804.863,170.225 807.99,192.242 799.909,230.621C791.743,269.401 779.87,289.443 756.425,298.559C745.882,302.659 735.826,300.343 726.358,293.814ZM741.302,151.749C749.732,156.958 756.932,163.218 759.827,177.546C746.598,204.642 740.235,233.589 741.893,264.697C735.722,274.087 726.778,279.767 714.486,280.971C704.353,261.247 704.265,231.496 708.863,209.751C713.457,188.018 726.077,161.507 741.302,151.749ZM779.311,220.803L783.764,206.278L789.215,226.303L779.103,230.503L785.16,246.848L774.126,237.008L776.296,227.042L761.395,242.176L776.246,213.252L779.311,220.803ZM777.59,226.42L777.403,225.917L777.898,225.414L777.59,226.42Z" style="fill:white;"/>
    </g>
</svg>
