<?xml version="1.0" encoding="UTF-8" standalone="no"?>
<!DOCTYPE svg PUBLIC "-//W3C//DTD SVG 1.1//EN" "http://www.w3.org/Graphics/SVG/1.1/DTD/svg11.dtd">
<svg width="100%" height="100%" viewBox="0 0 1000 1000" version="1.1" xmlns="http://www.w3.org/2000/svg" xmlns:xlink="http://www.w3.org/1999/xlink" xml:space="preserve" xmlns:serif="http://www.serif.com/" style="fill-rule:evenodd;clip-rule:evenodd;stroke-linejoin:round;stroke-miterlimit:2;">
    <g transform="matrix(4,0,0,4,-74,-1768)">
        <path d="M170,530C169.855,527.333 169.82,524.667 170,522C171.164,520.369 172.57,519.64 174,519C173.744,521.667 173.779,524.333 174,527C174.272,527.407 174.606,527.582 175,527.526C175.298,527.483 175.632,527.308 176,527C176.785,524.642 176.97,522.317 177,520C177.153,518.032 177.873,517.132 179,517C179.21,517.966 179.319,518.948 179,520C179.362,520.429 179.902,520.607 181,520C180.808,517.808 180.699,515.536 185,509C186.041,508.039 187.038,508.097 188,509C188.793,509.251 189.696,509.369 191,509C192.784,507.134 194.461,506.966 196,509L196,515C202.376,514.556 205.806,529.174 209,545L219,555C221.441,550.31 223.79,545.178 228,549C233.552,549.261 231.557,558.838 231,567L238,576C237.916,579.488 237.473,583.233 237,587C239.17,582.81 241.291,578.87 243,577L243,572C251.242,570.741 255.035,574.33 256,581L251,583L251,590L243,601L244,611L256,640L31,640L43,612L51,613C50.254,611.667 49.957,610.333 51,609C52.505,608.127 53.398,607.1 54,606C53.982,605.033 53.357,604.347 52,604C51.428,603.93 50.477,603.921 49,604C51.347,596.501 54.626,591.003 60,590C62.051,589.268 63.449,589.506 64,591C67.012,591.065 69.282,590.876 71,590.497C74.084,589.818 72.708,586.947 76,587C76.526,585 76.286,583 75,581C77.626,581.222 79.976,581.933 81,585C80.913,588.447 83.602,589.083 84.661,588.758C85.574,588.478 88.223,586.891 87,584C89.861,582.854 91.491,581.515 92,580C95.899,582.788 97.345,585.46 96,588C99.073,589.175 101.899,590.649 104,593C105.828,591.861 108.045,591.085 111,591C111.629,587.762 112.759,586.649 114,586C113.551,584.496 114.065,583.096 113.161,581.5C112.251,579.896 113.289,577.824 114,576C113.934,573 113.802,570 113,567C113.399,565.333 113.699,563.667 113,562C112.093,559.583 112.852,557.278 114,555C117.658,550.49 119.02,545.414 119,540C119.795,542.772 120.006,545.615 124,548L125,564C126.012,566.307 125.963,569.176 126,572C129.044,567.822 130.712,562.667 131.66,557C132.605,551.354 131.308,542.828 133.5,538.5L135,530L137,503C140.172,500.197 142.304,497.149 144,494C145.903,496.06 148.321,495.654 151,494C153.315,496.123 153.39,498.985 153,502C156.666,503.268 159.02,504.972 160.404,507C163.467,511.491 159.614,517.663 159,524C160.915,525.836 161.171,527.525 159,529C157.076,530.963 156.557,532.967 157,535C157.047,536.391 156.785,537.736 156,539C156.118,546.301 157.927,545.132 159.01,545.5C160.24,545.918 162.952,544.642 163,540C163.07,533.178 165.041,529.285 170,530ZM87,612C87.552,612 88,612.448 88,613C88,613.552 87.552,614 87,614C86.448,614 86,613.552 86,613C86,612.448 86.448,612 87,612ZM81,611.5C82.104,611.5 83,611.948 83,612.5C83,613.052 82.104,613.5 81,613.5C79.896,613.5 79,613.052 79,612.5C79,611.948 79.896,611.5 81,611.5ZM97,611C98.104,611 99,611.448 99,612C99,612.552 98.104,613 97,613C95.896,613 95,612.552 95,612C95,611.448 95.896,611 97,611ZM102.75,611C103.44,611 104,611.336 104,611.75C104,612.164 103.44,612.5 102.75,612.5C102.06,612.5 101.5,612.164 101.5,611.75C101.5,611.336 102.06,611 102.75,611ZM95,604.069C95.828,604.069 96.5,604.726 96.5,605.535C96.5,606.343 95.828,607 95,607C94.172,607 93.5,606.343 93.5,605.535C93.5,604.726 94.172,604.069 95,604.069ZM77.75,603.138C78.716,603.138 79.5,604.004 79.5,605.069C79.5,606.135 78.716,607 77.75,607C76.784,607 76,606.135 76,605.069C76,604.004 76.784,603.138 77.75,603.138ZM85,604C85.552,604 86,604.344 86,604.767C86,605.191 85.552,605.535 85,605.535C84.448,605.535 84,605.191 84,604.767C84,604.344 84.448,604 85,604ZM106,603.138C106.552,603.138 107,603.555 107,604.069C107,604.583 106.552,605 106,605C105.448,605 105,604.583 105,604.069C105,603.555 105.448,603.138 106,603.138ZM102.222,601.562C103.448,601.562 104.443,602.269 104.443,603.138C104.443,604.008 103.448,604.714 102.222,604.714C100.996,604.714 100,604.008 100,603.138C100,602.269 100.996,601.562 102.222,601.562ZM162.5,594C163.052,594 163.5,594.448 163.5,595C163.5,595.552 163.052,596 162.5,596C161.948,596 161.5,595.552 161.5,595C161.5,594.448 161.948,594 162.5,594ZM176.75,589.5C177.992,589.5 179,590.508 179,591.75C179,592.992 177.992,594 176.75,594C175.508,594 174.5,592.992 174.5,591.75C174.5,590.508 175.508,589.5 176.75,589.5ZM156.5,591C157.604,591 158.5,591.56 158.5,592.25C158.5,592.94 157.604,593.5 156.5,593.5C155.396,593.5 154.5,592.94 154.5,592.25C154.5,591.56 155.396,591 156.5,591ZM140.5,590C140.776,590 141,590.448 141,591C141,591.552 140.776,592 140.5,592C140.224,592 140,591.552 140,591C140,590.448 140.224,590 140.5,590ZM145.5,591C146.052,591 146.5,591.224 146.5,591.5C146.5,591.776 146.052,592 145.5,592C144.948,592 144.5,591.776 144.5,591.5C144.5,591.224 144.948,591 145.5,591ZM134.5,589C135.052,589 135.5,589.448 135.5,590C135.5,590.552 135.052,591 134.5,591C133.948,591 133.5,590.552 133.5,590C133.5,589.448 133.948,589 134.5,589ZM159.5,587C160.052,587 160.5,587.448 160.5,588C160.5,588.552 160.052,589 159.5,589C158.948,589 158.5,588.552 158.5,588C158.5,587.448 158.948,587 159.5,587ZM154.5,585C155.052,585 155.5,585.56 155.5,586.25C155.5,586.94 155.052,587.5 154.5,587.5C153.948,587.5 153.5,586.94 153.5,586.25C153.5,585.56 153.948,585 154.5,585ZM145,584C145.276,584 145.5,584.336 145.5,584.75C145.5,585.164 145.276,585.5 145,585.5C144.724,585.5 144.5,585.164 144.5,584.75C144.5,584.336 144.724,584 145,584ZM141.25,582.5C141.664,582.5 142,583.06 142,583.75C142,584.44 141.664,585 141.25,585C140.836,585 140.5,584.44 140.5,583.75C140.5,583.06 140.836,582.5 141.25,582.5ZM137.5,581C137.776,581 138,581.336 138,581.75C138,582.164 137.776,582.5 137.5,582.5C137.224,582.5 137,582.164 137,581.75C137,581.336 137.224,581 137.5,581ZM161.25,580C161.94,580 162.5,580.56 162.5,581.25C162.5,581.94 161.94,582.5 161.25,582.5C160.56,582.5 160,581.94 160,581.25C160,580.56 160.56,580 161.25,580ZM177.25,580.5C178.216,580.5 179,580.948 179,581.5C179,582.052 178.216,582.5 177.25,582.5C176.284,582.5 175.5,582.052 175.5,581.5C175.5,580.948 176.284,580.5 177.25,580.5ZM146.5,576.5C147.052,576.5 147.5,577.172 147.5,578C147.5,578.828 147.052,579.5 146.5,579.5C145.948,579.5 145.5,578.828 145.5,578C145.5,577.172 145.948,576.5 146.5,576.5ZM142.5,574C143.052,574 143.5,575.008 143.5,576.25C143.5,577.492 143.052,578.5 142.5,578.5C141.948,578.5 141.5,577.492 141.5,576.25C141.5,575.008 141.948,574 142.5,574ZM156.5,576C157.052,576 157.5,576.448 157.5,577C157.5,577.552 157.052,578 156.5,578C155.948,578 155.5,577.552 155.5,577C155.5,576.448 155.948,576 156.5,576ZM162,572.5C162.828,572.5 163.5,573.284 163.5,574.25C163.5,575.216 162.828,576 162,576C161.172,576 160.5,575.216 160.5,574.25C160.5,573.284 161.172,572.5 162,572.5ZM138,573C138.552,573 139,573.224 139,573.5C139,573.776 138.552,574 138,574C137.448,574 137,573.776 137,573.5C137,573.224 137.448,573 138,573ZM157,571C157.552,571 158,571.336 158,571.75C158,572.164 157.552,572.5 157,572.5C156.448,572.5 156,572.164 156,571.75C156,571.336 156.448,571 157,571ZM146.5,567.5C147.052,567.5 147.5,568.284 147.5,569.25C147.5,570.216 147.052,571 146.5,571C145.948,571 145.5,570.216 145.5,569.25C145.5,568.284 145.948,567.5 146.5,567.5ZM219,561.5C218.387,558.592 215.209,557.371 211.5,556.5C210.21,560.766 209.656,565.084 210.5,569.5C214.023,567.365 217.131,564.91 219,561.5ZM142.75,566C143.164,566 143.5,566.56 143.5,567.25C143.5,567.94 143.164,568.5 142.75,568.5C142.336,568.5 142,567.94 142,567.25C142,566.56 142.336,566 142.75,566ZM138.5,565.5C139.052,565.5 139.5,565.948 139.5,566.5C139.5,567.052 139.052,567.5 138.5,567.5C137.948,567.5 137.5,567.052 137.5,566.5C137.5,565.948 137.948,565.5 138.5,565.5ZM163,553C160.182,553.084 157.733,552.492 155.5,551.5C154.688,558.09 156.112,561.614 158,564.5C161.119,561.244 163.09,557.531 163,553ZM205,556C204.334,555.613 203.667,555.562 203,556C202.335,557.956 203.05,559.512 204,561C205.078,559.333 205.366,557.667 205,556ZM151.5,540C150.501,539.352 149.755,539.237 149.319,539.779C148.883,540.322 148.757,541.521 149,543.5C150.808,544.367 151.98,543.91 151.5,540ZM143.791,540C144.432,540 144.953,540.548 144.953,541.222C144.953,541.897 144.432,542.445 143.791,542.445C143.149,542.445 142.628,541.897 142.628,541.222C142.628,540.548 143.149,540 143.791,540ZM138.5,537.5C139.052,537.5 139.5,538.284 139.5,539.25C139.5,540.216 139.052,541 138.5,541C137.948,541 137.5,540.216 137.5,539.25C137.5,538.284 137.948,537.5 138.5,537.5ZM151.608,533.5C152.127,532.194 151.982,531.174 151.204,530.428C150.426,529.682 149.015,529.211 147,529C145.779,533.361 146.679,535.522 151.608,533.5ZM144,528.5C144.163,530.178 142.674,531.108 140,531.5C138.744,529.744 138.385,527.933 140,526C141.796,525.974 143.371,526.358 144,528.5ZM152,522.5C151.076,522.994 150.57,523.537 150.423,524.123C150.276,524.708 150.488,525.336 151,526C153.076,525.481 154.224,524.617 152,522.5ZM149.5,518.5C146.733,519.145 145.652,520.515 146,522.5C145.938,523.358 146.819,523.538 148,523.5C149.293,522.742 149.239,520.924 149.5,518.5ZM144.5,517C144.219,518.795 142.615,520.15 141,521.5C139.989,519.618 139.746,517.629 140.5,515.5C141.952,515.607 143.359,515.863 144.5,517Z" style="fill:white;"/>
    </g>
</svg>
