<?xml version="1.0" encoding="UTF-8" standalone="no"?>
<!DOCTYPE svg PUBLIC "-//W3C//DTD SVG 1.1//EN" "http://www.w3.org/Graphics/SVG/1.1/DTD/svg11.dtd">
<svg width="100%" height="100%" viewBox="0 0 1000 1000" version="1.1" xmlns="http://www.w3.org/2000/svg" xmlns:xlink="http://www.w3.org/1999/xlink" xml:space="preserve" xmlns:serif="http://www.serif.com/" style="fill-rule:evenodd;clip-rule:evenodd;stroke-linejoin:round;stroke-miterlimit:2;">
    <g transform="matrix(2.61606,0,0,2.61606,-849.018,-286.127)">
        <path d="M672.797,353.629C682.132,343.542 687.518,336.286 686,334C683.325,329.971 645.511,344.041 610,370L631,338C666.56,327.612 684.891,328.12 687.531,333C688.635,335.041 683.606,342.726 674.075,353.696C677.715,353.911 681.357,354.346 685,355C681.023,354.742 677.08,354.651 673.17,354.731C670.167,358.151 666.747,361.872 662.954,365.829C668.637,366.275 674.319,367.01 680,368C673.796,367.525 667.676,367.197 661.7,367.131C658.498,370.443 655.046,373.91 651.373,377.491C654.925,378.226 658.466,379.074 662,380C657.978,379.56 653.96,379.126 650.011,378.814C647.132,381.601 644.122,384.455 640.991,387.36C646.68,389.108 652.341,391.05 658,393C652.037,391.356 646.062,389.451 640.118,388.167C636.632,391.389 633.001,394.668 629.243,397.981C631.655,400.86 633.833,403.926 636,407C632.6,404.944 629.219,402.65 625.784,401.008C621.969,404.323 618.037,407.66 614,411C617.636,407.557 621.303,404.089 624.958,400.627C620.936,398.838 616.83,398.034 612.521,399.633L611,390L612,387L609,384L611,379L607,378L614,374L609.143,373.238L617,368C635.598,357.637 654.196,352.787 672.797,353.629ZM358.537,353.629C349.202,343.542 343.816,336.286 345.334,334C348.009,329.971 385.823,344.041 421.334,370L400.334,338C364.775,327.612 346.443,328.12 343.803,333C342.699,335.041 347.728,342.726 357.26,353.696C353.619,353.911 349.977,354.346 346.334,355C350.311,354.742 354.255,354.651 358.164,354.731C361.167,358.151 364.587,361.872 368.381,365.829C362.697,366.275 357.016,367.01 351.334,368C357.538,367.525 363.659,367.197 369.634,367.131C372.836,370.443 376.288,373.91 379.961,377.491C376.41,378.226 372.868,379.074 369.334,380C373.356,379.56 377.375,379.126 381.323,378.814C384.202,381.601 387.212,384.455 390.343,387.36C384.654,389.108 378.994,391.05 373.334,393C379.297,391.356 385.272,389.451 391.216,388.167C394.702,391.389 398.333,394.668 402.091,397.981C399.679,400.86 397.502,403.926 395.334,407C398.735,404.944 402.115,402.65 405.551,401.008C409.366,404.323 413.297,407.66 417.334,411C413.698,407.557 410.031,404.089 406.376,400.627C410.398,398.838 414.504,398.034 418.813,399.633L420.334,390L419.334,387L422.334,384L420.334,379L424.334,378L417.334,374L422.191,373.238L414.334,368C395.736,357.637 377.138,352.787 358.537,353.629ZM515.667,384.835C538.832,384.082 562.702,377.214 588,354L589,327.492C606.586,314.515 625.859,319.715 628.865,326.201C635.416,340.334 593.221,409.195 516.347,409.993L516.347,410C516.122,410 515.896,409.999 515.667,409.998C515.438,409.999 515.213,410 514.987,410L514.987,409.993C438.113,409.195 395.918,340.334 402.469,326.201C405.476,319.715 424.748,314.515 442.334,327.492L443.334,354C468.633,377.214 492.502,384.082 515.667,384.835ZM638.433,387.821C635.195,390.914 631.899,394.048 628.577,397.198C625.571,393.718 622.182,390.542 618,388C624.724,386.082 631.556,386.479 638.433,387.821ZM392.901,387.821C396.139,390.914 399.435,394.048 402.757,397.198C405.763,393.718 409.152,390.542 413.334,388C406.611,386.082 399.778,386.479 392.901,387.821ZM647.962,378.663C645.184,381.352 642.327,384.098 639.416,386.881C632.668,384.854 625.876,383.123 619,382C627.183,378.263 637.277,377.936 647.962,378.663ZM383.373,378.663C386.15,381.352 389.007,384.098 391.918,386.881C398.667,384.854 405.458,383.123 412.334,382C404.151,378.263 394.057,377.936 383.373,378.663ZM659.723,367.119C656.508,370.329 653.098,373.676 649.549,377.123C638.833,375.025 628.014,374.003 617,375C629.34,369.015 643.985,367.101 659.723,367.119ZM371.611,367.119C374.826,370.329 378.236,373.676 381.785,377.123C392.501,375.025 403.32,374.003 414.334,375C401.994,369.015 387.35,367.101 371.611,367.119ZM359.597,354.768C362.752,358.142 366.317,361.809 370.19,365.696C384.57,364.724 398.952,365.633 413.334,369C396.301,359.912 378.35,355.353 359.597,354.768ZM671.737,354.768C668.583,358.142 665.018,361.809 661.144,365.696C646.764,364.724 632.382,365.633 618,369C635.033,359.912 652.984,355.353 671.737,354.768ZM516.347,190.001C543.674,190.082 568.125,193.532 590,200C599.645,202.852 601.127,211.167 600,217.922L587.582,324.546C566.206,339.009 542.204,346.788 516.347,349.844L516.347,350C516.12,349.975 515.893,349.949 515.667,349.923C515.441,349.949 515.214,349.975 514.987,350L514.987,349.844C489.131,346.788 465.128,339.009 443.752,324.546L431.334,217.922C430.207,211.167 431.689,202.852 441.334,200C463.209,193.532 487.66,190.082 514.987,190.001L514.987,190L515.667,190.001L516.347,190L516.347,190.001Z" style="fill:white;"/>
    </g>
</svg>
