<?xml version="1.0" encoding="UTF-8" standalone="no"?>
<!DOCTYPE svg PUBLIC "-//W3C//DTD SVG 1.1//EN" "http://www.w3.org/Graphics/SVG/1.1/DTD/svg11.dtd">
<svg width="100%" height="100%" viewBox="0 0 1000 1000" version="1.1" xmlns="http://www.w3.org/2000/svg" xmlns:xlink="http://www.w3.org/1999/xlink" xml:space="preserve" xmlns:serif="http://www.serif.com/" style="fill-rule:evenodd;clip-rule:evenodd;stroke-linejoin:round;stroke-miterlimit:2;">
    <g transform="matrix(4.38709,0,0,4.38709,-1693.55,-1673.32)">
        <path d="M500,585C471.515,599.3 443.691,602.492 417.691,575C397.606,562.49 390.7,539.47 405,500C399.224,465 399.04,430 405,395C423.55,407.974 441.948,422.368 460,440C473.224,433.082 485.076,430 500,430L500.697,430.002C515.295,430.097 526.982,433.19 540,440C558.052,422.368 576.45,407.974 595,395C600.96,430 600.776,465 595,500C609.3,539.47 602.394,562.49 582.309,575C556.512,602.277 528.919,599.348 500.667,585.333L500,585ZM566,577C558.149,577.702 551.116,577.373 544.687,576.283C538.259,575.193 532.434,573.342 527,571C537.961,579.962 550.363,584.004 566,577ZM434,577C441.851,577.702 448.884,577.373 455.313,576.283C461.741,575.193 467.566,573.342 473,571C462.039,579.962 449.637,584.004 434,577ZM596,548C586.065,555.475 578.353,561.264 570.968,565C561.346,569.868 550.586,569.774 540,568C552.719,572.767 564.82,575.65 573,570.131C580.361,565.163 586.949,556.959 596,548ZM404,548C413.935,555.475 421.647,561.264 429.032,565C438.654,569.868 449.414,569.774 460,568C447.281,572.767 435.18,575.65 427,570.131C419.639,565.163 413.051,556.959 404,548ZM585,540C577.474,544.963 569.872,549.176 564,553.801C556.669,559.575 545.65,559.335 535,560C547.435,562.819 559.578,564.708 567,558.525C572.651,553.816 578.662,547.832 585,540ZM415,540C422.526,544.963 430.128,549.176 436,553.801C443.331,559.575 454.35,559.335 465,560C452.565,562.819 440.422,564.708 433,558.525C427.349,553.816 421.338,547.832 415,540ZM583,505C576.811,506.951 570.394,507.722 563,506C539.595,500.549 518.014,520.758 512,551C518.943,549.195 525.609,548.926 534,551.5C557.012,558.56 579.54,539.652 583,505ZM417,505C423.189,506.951 429.606,507.722 437,506C460.405,500.549 481.986,520.758 488,551C481.057,549.195 474.391,548.926 466,551.5C442.988,558.56 420.46,539.652 417,505ZM571,514C556.456,510.032 545.459,511.375 537.097,516.663C528.734,521.952 523.006,531.186 519,543C553.297,554.493 572.099,546.659 571,514ZM429,514C443.544,510.032 454.541,511.375 462.903,516.663C471.266,521.952 476.994,531.186 481,543C446.703,554.493 427.901,546.659 429,514ZM469.226,500.681C471.091,501.859 472.874,503.219 474.493,504.903C475.508,505.958 476.459,507.134 477.32,508.452C477.645,508.95 477.949,509.474 478.24,510.017C478.657,510.792 479.045,511.609 479.402,512.47C480.201,514.396 480.851,516.528 481.377,518.896C481.434,519.104 481.312,519.32 481.104,519.377C480.896,519.434 480.68,519.312 480.623,519.104C479.885,516.864 479.02,514.88 478.091,513.078C477.683,512.288 477.262,511.537 476.831,510.815C476.532,510.314 476.225,509.831 475.921,509.356C475.119,508.1 474.286,506.945 473.402,505.877C471.968,504.146 470.443,502.631 468.774,501.319C468.598,501.195 468.556,500.951 468.681,500.774C468.805,500.598 469.049,500.556 469.226,500.681ZM530.774,500.681C528.909,501.859 527.126,503.219 525.507,504.903C524.492,505.958 523.541,507.134 522.68,508.452C522.355,508.95 522.051,509.474 521.76,510.017C521.343,510.792 520.955,511.609 520.598,512.47C519.799,514.396 519.149,516.528 518.623,518.896C518.566,519.104 518.688,519.32 518.896,519.377C519.104,519.434 519.32,519.312 519.377,519.104C520.115,516.864 520.98,514.88 521.909,513.078C522.317,512.288 522.738,511.537 523.169,510.815C523.468,510.314 523.775,509.831 524.079,509.356C524.881,508.1 525.714,506.945 526.598,505.877C528.032,504.146 529.557,502.631 531.226,501.319C531.402,501.195 531.444,500.951 531.319,500.774C531.195,500.598 530.951,500.556 530.774,500.681ZM549.138,481C543.325,484.165 537.887,487.374 532.663,489.931C526.623,492.888 521.79,497.587 517,501.907C523.055,499.913 529.803,498.17 534.609,493.272C538.477,489.33 543.685,485.452 549.138,481ZM450.862,481C456.675,484.165 462.113,487.374 467.337,489.931C473.377,492.888 478.21,497.587 483,501.907C476.945,499.913 470.197,498.17 465.391,493.272C461.523,489.33 456.315,485.452 450.862,481ZM458,462C463.421,466.955 468.421,471.852 473.372,476C479.097,480.796 483.019,487.105 487,493C480.986,489.219 474.148,485.512 470.312,479C467.226,473.761 462.665,468.218 458,462ZM542,462C536.579,466.955 531.579,471.852 526.628,476C520.903,480.796 516.981,487.105 513,493C519.014,489.219 525.852,485.512 529.688,479C532.774,473.761 537.335,468.218 542,462ZM411,491C425.791,465.132 438.776,447.74 448,448C434.396,433.317 421.182,419.29 409,407C404.342,434.309 407.935,462.689 411,491ZM589,491C574.209,465.132 561.224,447.74 552,448C565.604,433.317 578.818,419.29 591,407C595.658,434.309 592.065,462.689 589,491ZM500.374,583.622C504.26,584.915 508.725,587.317 512,588.565C520.729,591.891 525.721,592.806 530,593.309C518.352,589.146 504.478,581.619 500.102,581.501L500,581.5C495.74,581.5 481.74,589.113 470,593.309C474.279,592.806 479.271,591.891 488,588.565C491.381,587.277 496.029,584.759 500,583.5L500.374,583.622ZM499.258,562.983C491.703,562.818 487.524,563.048 489.5,564C491.976,564.526 494.643,565.963 496,568.905C497.468,572.088 498.787,576.365 500,576.5L500.057,576.491C501.254,576.232 502.554,572.038 504,568.905C505.357,565.963 508.024,564.526 510.5,564C512.54,563.017 508.021,562.803 500,563L499.258,562.983Z" style="fill:white;"/>
    </g>
</svg>
