<?xml version="1.0" encoding="UTF-8" standalone="no"?>
<!DOCTYPE svg PUBLIC "-//W3C//DTD SVG 1.1//EN" "http://www.w3.org/Graphics/SVG/1.1/DTD/svg11.dtd">
<svg width="100%" height="100%" viewBox="0 0 1000 1000" version="1.1" xmlns="http://www.w3.org/2000/svg" xmlns:xlink="http://www.w3.org/1999/xlink" xml:space="preserve" xmlns:serif="http://www.serif.com/" style="fill-rule:evenodd;clip-rule:evenodd;stroke-linejoin:round;stroke-miterlimit:2;">
    <g transform="matrix(21.0172,0,0,21.0172,-12150,-5327.72)">
        <path d="M591.939,298.511C590.213,297.811 592.431,293.198 592.584,291.266C592.734,289.384 579.541,272.141 580.53,269.548C581.518,266.954 580.53,269.548 583.735,261.138C585.559,256.354 593.816,256.357 604.517,259.963L605.942,256.226C606.251,255.414 609.982,256.856 609.679,257.651L608.255,261.388C618.641,265.82 624.804,271.314 622.981,276.099C619.775,284.508 620.764,281.915 619.775,284.508C618.786,287.102 597.463,291.187 596.322,292.691C595.146,294.241 593.724,299.192 591.96,298.519L591.939,298.511ZM602.505,270.433C596.571,268.14 594.081,265.157 594.462,264.157C594.846,263.149 597.685,261.105 603.27,263.234L604.161,260.898C600.653,259.561 589.467,258.265 588.391,260.875C587.275,263.58 593.728,269.228 601.933,272.356L602.126,272.429C610.272,275.485 618.721,275.543 619.682,272.803C620.616,270.139 611.406,263.66 607.898,262.323L607.008,264.659C612.593,266.788 613.351,270.203 612.967,271.211C612.582,272.219 608.681,272.788 602.646,270.487L602.505,270.433Z" style="fill:white;"/>
    </g>
</svg>
