<?xml version="1.0" encoding="UTF-8" standalone="no"?>
<!DOCTYPE svg PUBLIC "-//W3C//DTD SVG 1.1//EN" "http://www.w3.org/Graphics/SVG/1.1/DTD/svg11.dtd">
<svg width="100%" height="100%" viewBox="0 0 1000 1000" version="1.1" xmlns="http://www.w3.org/2000/svg" xmlns:xlink="http://www.w3.org/1999/xlink" xml:space="preserve" xmlns:serif="http://www.serif.com/" style="fill-rule:evenodd;clip-rule:evenodd;stroke-linejoin:round;stroke-miterlimit:2;">
    <path d="M527.427,547.505L527.607,547.853L527.607,569.939L536.81,573.62L542.331,601.227L557.055,612.27L558.896,654.601L577.301,665.644L580.982,713.497L593.865,722.699L595.706,753.988L619.632,766.871L625.153,787.117L604.908,792.638L582.822,779.755L546.012,785.276L547.853,803.681L553.374,803.681L581.902,820.245L586.503,836.81L569.939,842.331L539.571,823.926L538.65,819.325L515.644,830.368L534.049,839.571L534.969,846.933L526.687,847.853L511.043,836.81L511.043,847.853L520.245,859.816L520.245,873.62L510.123,866.258L510.123,911.35L515.644,915.031L509.202,919.632L509.202,932.515L500,950L490.798,932.515L490.798,919.632L484.356,915.031L489.877,911.35L489.877,866.258L479.755,873.62L479.755,859.816L488.957,847.853L488.957,836.81L473.313,847.853L465.031,846.933L465.951,839.571L484.356,830.368L461.35,819.325L460.429,823.926L430.061,842.331L413.497,836.81L418.098,820.245L446.626,803.681L452.147,803.681L453.988,785.276L417.178,779.755L395.092,792.638L374.847,787.117L380.368,766.871C380.368,766.871 404.294,753.988 404.294,753.988L406.135,722.699L419.018,713.497L422.699,665.644L441.104,654.601L442.945,612.27L457.669,601.227L463.19,573.62L472.393,569.939L472.393,547.853L472.573,547.505L472.362,547.835L453.235,558.878L454.648,568.688L433.5,587.273L431.299,605.546L395.559,628.306L395.198,649.766L355.597,676.881L354.069,692.639L327.893,709.877L328.699,737.04L313.926,751.944L299.022,737.172L299.136,711.603L275.95,682.486L260.931,693.282L263.692,698.064L263.61,731.052L251.566,743.319L238.502,731.734L239.257,696.232L242.781,693.135L221.715,678.732L222.948,699.273L217.032,703.751L212.094,697.038L213.836,677.968L204.272,683.49L198.513,697.441L186.559,704.343L187.873,691.895L148.822,714.441L148.395,721.064L141.189,717.786L130.032,724.227L110.289,725L120.829,708.288L131.987,701.846L132.751,693.967L138.699,696.908L177.75,674.362L166.313,669.277L178.268,662.375L193.229,664.363L202.793,658.841L185.407,650.815L182.063,643.182L188.899,640.298L206.071,651.636L204.131,626.19L199.686,627.694L168.563,610.597L165.063,593.491L181.708,589.194L210.317,605.617L213.078,610.399L229.938,602.79L216.314,568.151L194.114,555.466L188.773,535.172L209.067,529.831L232.187,544.11L260.204,530.06L274.615,536.616L317.898,515.878L336.664,526.295L374.244,506.724L391.169,513.954L417.839,504.932L425.628,511.061L444.755,500.018L445.145,500L444.755,499.982L425.628,488.939L417.839,495.068L391.169,486.046L374.244,493.276L336.664,473.705L317.898,484.122L274.615,463.384L260.204,469.94L232.187,455.89L209.067,470.169L188.773,464.828L194.114,444.534L216.314,431.849L229.938,397.21L213.078,389.601L210.317,394.383L181.708,410.806L165.063,406.509L168.563,389.403L199.686,372.306L204.131,373.81L206.071,348.364L188.899,359.702L182.063,356.818L185.407,349.185L202.793,341.159L193.229,335.637L178.268,337.625L166.313,330.723L177.75,325.638L138.699,303.092L132.751,306.033L131.987,298.154L120.829,291.712L110.289,275L130.032,275.773L141.189,282.214L148.395,278.936L148.822,285.559L187.873,308.105L186.559,295.657L198.513,302.559L204.272,316.51L213.836,322.032L212.094,302.962L217.032,296.249L222.948,300.727C222.948,300.727 221.715,321.268 221.715,321.268L242.781,306.865L239.257,303.768L238.502,268.266L251.566,256.681L263.61,268.948L263.692,301.936L260.931,306.718L275.95,317.514L299.136,288.397L299.022,262.828L313.926,248.056L328.699,262.96C328.699,262.96 327.893,290.123 327.893,290.123L354.069,307.361L355.597,323.119L395.198,350.234L395.559,371.694L431.299,394.454L433.5,412.727L454.648,431.312L453.235,441.122L472.362,452.165L472.573,452.495L472.393,452.147L472.393,430.061L463.19,426.38L457.669,398.773L442.945,387.73L441.104,345.399L422.699,334.356L419.018,286.503L406.135,277.301L404.294,246.012L380.368,233.129L374.847,212.883L395.092,207.362L417.178,220.245L453.988,214.724L452.147,196.319L446.626,196.319L418.098,179.755L413.497,163.19L430.061,157.669L460.429,176.074L461.35,180.675L484.356,169.632L465.951,160.429L465.031,153.067L473.313,152.147L488.957,163.19L488.957,152.147L479.755,140.184L479.755,126.38L489.877,133.742L489.877,88.65L484.356,84.969L490.798,80.368L490.798,67.485L500,50L509.202,67.485L509.202,80.368L515.644,84.969L510.123,88.65L510.123,133.742L520.245,126.38L520.245,140.184L511.043,152.147L511.043,163.19L526.687,152.147L534.969,153.067L534.049,160.429L515.644,169.632L538.65,180.675L539.571,176.074L569.939,157.669L586.503,163.19L581.902,179.755L553.374,196.319L547.853,196.319L546.012,214.724L582.822,220.245L604.908,207.362L625.153,212.883L619.632,233.129L595.706,246.012L593.865,277.301L580.982,286.503L577.301,334.356L558.896,345.399L557.055,387.73L542.331,398.773L536.81,426.38L527.607,430.061L527.607,452.147L527.427,452.495L527.638,452.165L546.765,441.122L545.352,431.312L566.499,412.727L568.701,394.454L604.441,371.694L604.802,350.234L644.403,323.119L645.931,307.361L672.107,290.123L671.301,262.96L686.074,248.056L700.978,262.828L700.864,288.397L724.05,317.514L739.069,306.718L736.308,301.936L736.39,268.948L748.434,256.681L761.498,268.266L760.743,303.768L757.219,306.865L778.285,321.268L777.052,300.727L782.968,296.249L787.906,302.962L786.164,322.032L795.728,316.51L801.487,302.559L813.441,295.657L812.127,308.105L851.178,285.559L851.605,278.936L858.811,282.214L869.968,275.773L889.711,275L879.171,291.712L868.013,298.154L867.249,306.033L861.301,303.092L822.25,325.638L833.687,330.723L821.732,337.625L806.771,335.637L797.207,341.159L814.593,349.185L817.937,356.818L811.101,359.702L793.929,348.364L795.869,373.81L800.314,372.306L831.437,389.403L834.937,406.509L818.292,410.806L789.683,394.383L786.922,389.601L770.062,397.21L783.686,431.849L805.886,444.534L811.227,464.828L790.933,470.169C790.933,470.169 767.813,455.89 767.813,455.89L739.796,469.94L725.385,463.384L682.102,484.122L663.336,473.705L625.756,493.276L608.831,486.046L582.161,495.068L574.372,488.939L555.245,499.982L554.855,500L555.245,500.018L574.372,511.061L582.161,504.932L608.831,513.954L625.756,506.724L663.336,526.295L682.102,515.878L725.385,536.616L739.796,530.06L767.813,544.11L790.933,529.831L811.227,535.172L805.886,555.466L783.686,568.151L770.062,602.79L786.922,610.399L789.683,605.617L818.292,589.194L834.937,593.491L831.437,610.597L800.314,627.694L795.869,626.19L793.929,651.636L811.101,640.298L817.937,643.182L814.593,650.815L797.207,658.841L806.771,664.363L821.732,662.375L833.687,669.277L822.25,674.362L861.301,696.908L867.249,693.967L868.013,701.846L879.17,708.288L889.711,725L869.968,724.227L858.811,717.786L851.605,721.064L851.178,714.441L812.127,691.895L813.441,704.343L801.487,697.441L795.728,683.49L786.164,677.968L787.906,697.038L782.968,703.751L777.052,699.273L778.285,678.732L757.219,693.135L760.743,696.232L761.498,731.734L748.434,743.319L736.39,731.052L736.308,698.064L739.069,693.282L724.05,682.486L700.864,711.603L700.978,737.172L686.074,751.944L671.301,737.04L672.107,709.877L645.931,692.639L644.403,676.881L604.802,649.766L604.441,628.306L568.701,605.546L566.5,587.273L545.352,568.688L546.765,558.878L527.638,547.835L527.427,547.505ZM503.681,538.65L500,500L496.319,538.65L500,551.534L503.681,538.65ZM511.043,525.767L520.578,535.643L516.793,522.447L500,500L511.043,525.767ZM488.957,525.767L500,500L483.207,522.447L479.422,535.643L488.957,525.767ZM468.368,522.513L500,500L464.687,516.137L455.37,525.767L468.368,522.513ZM535.313,516.137L500,500L531.632,522.513L544.63,525.767L535.313,516.137ZM458.843,500L472.164,503.32L500,500L472.164,496.68L458.843,500ZM527.836,496.68L500,500L527.836,503.32L541.157,500L527.836,496.68ZM511.043,474.233L500,500L516.793,477.553L520.578,464.357L511.043,474.233ZM531.632,477.487L500,500L535.313,483.863L544.63,474.233L531.632,477.487ZM464.687,483.863L500,500L468.368,477.487L455.37,474.233L464.687,483.863ZM496.319,461.35L500,500L503.681,461.35L500,448.466L496.319,461.35ZM483.207,477.553L500,500L488.957,474.233L479.422,464.357L483.207,477.553Z" style="fill:white;"/>
</svg>
