<?xml version="1.0" encoding="UTF-8" standalone="no"?>
<!DOCTYPE svg PUBLIC "-//W3C//DTD SVG 1.1//EN" "http://www.w3.org/Graphics/SVG/1.1/DTD/svg11.dtd">
<svg width="100%" height="100%" viewBox="0 0 1000 1000" version="1.1" xmlns="http://www.w3.org/2000/svg" xmlns:xlink="http://www.w3.org/1999/xlink" xml:space="preserve" xmlns:serif="http://www.serif.com/" style="fill-rule:evenodd;clip-rule:evenodd;stroke-linejoin:round;stroke-miterlimit:2;">
    <g transform="matrix(4.46641,0,0,4.46641,-1735.88,-1581.92)">
        <path d="M534.926,523.334C533.735,537.339 527.557,544.005 514.354,542.19C520.605,557.911 527.84,567.592 532.613,566.838C535.004,566.461 534.31,565.199 524.455,542.873C540.418,558.577 554.1,560.915 554.161,555.724C554.183,553.865 544.539,549.03 532.47,536.707C549.834,546.906 561.165,545.313 561.254,542.199C561.302,540.519 548.423,537.116 534.804,528.549C549.753,532.521 557.945,531.216 559.445,529.67C560.276,528.814 549.769,527.181 534.926,523.334ZM500.826,472.496C492.034,477.95 483.162,483.257 474.208,488.417C479.457,495.797 485.102,502.957 491.12,509.909C498.168,518.051 505.185,530.693 509.84,536.118C519.226,547.057 535.333,538.424 532.475,521.264C531.659,516.366 524.002,506.685 519.161,495.486C514.284,484.205 504.287,472.691 500.826,472.496ZM471.608,488.716L473.425,506.58C473.425,506.58 475.811,506.547 475.465,507.163C474.553,508.783 467.144,513.293 466.09,512.939C465.236,512.653 470.802,508.036 470.802,508.036L461.969,490.064L470.27,500.897L469.303,488.853L471.608,488.716ZM460.859,482.92C459.426,480.436 458.579,480.504 456.824,479.767C457.959,477.291 460.971,473.791 464.111,472.291C474.564,467.294 492.73,462.228 495.972,463.753L495.96,463.838C495.335,467.509 481.569,480.098 471.877,486.279C468.943,488.151 464.379,488.857 461.678,488.51C461.99,486.57 462.519,485.905 461,483.168L460.859,482.92ZM453.955,486.965C452.938,485.152 454.929,482.76 455.98,481.369C457.75,481.557 458.829,482.337 459.693,483.894L459.772,484.039C460.562,485.533 460.625,486.829 459.872,488.38C458.109,488.539 454.955,488.975 454.005,487.051L453.955,486.965ZM497.691,462.686C496.398,458.677 488.738,459.989 475.477,465.981C501.855,452.375 520.549,445.361 552.802,432.203L550.191,434.093C523.578,453.383 507.941,465.252 483.243,479.969C495.436,471.819 500.586,465.984 497.72,462.782L497.691,462.686ZM461.901,471.23L447.7,460.242C447.7,460.242 448.99,458.234 448.283,458.202C446.426,458.119 438.68,462.022 438.423,463.104C438.215,463.981 445.077,461.698 445.077,461.698L455.659,478.698L450.855,465.925L460.566,473.115L461.901,471.23ZM543.377,442.01L524.724,455.797L574.353,469.992L543.377,442.01ZM491.118,455.01C481.84,459.587 472.644,464.311 463.529,469.182C460.042,460.825 456.95,452.247 454.231,443.462C451.048,433.175 444.029,420.534 441.886,413.715C437.565,399.964 453.409,390.858 466.463,402.359C470.188,405.641 474.357,417.259 481.301,427.29C488.297,437.395 492.782,451.968 491.118,455.01ZM501.556,460.546C500.59,458.852 501.437,456.69 502.288,454.527C500.497,456.814 498.939,459.114 499.924,461.558L499.998,461.657C501.565,463.684 504.299,463.577 507.142,463.27C504.82,462.842 502.501,462.411 501.603,460.626L501.556,460.546ZM504.311,459.231C505.316,459.786 506.664,459.986 508.551,459.629C507.494,459.291 506.661,458.802 506.086,458.138L506.062,458.059C505.828,457.238 505.86,456.299 506.124,455.257C504.781,456.715 504.246,458 504.215,459.177L504.311,459.231ZM539.494,435.016L517.929,443.557L532.125,393.928L539.494,435.016ZM466.002,399.183C453.486,392.788 444.561,394.507 439.12,406.673C429.082,393.053 424.691,381.793 427.855,378.141C429.44,376.312 430.143,377.568 443.882,397.738C438.994,375.885 444.245,363.037 448.683,365.73C450.273,366.694 449.276,377.436 453.353,394.196C453.879,374.065 461.223,365.291 463.913,366.862C465.365,367.709 461.442,380.44 461.511,396.529C466.045,381.742 471.485,375.479 473.591,375.023C474.756,374.77 470.586,384.552 466.002,399.183Z" style="fill:white;"/>
    </g>
</svg>
