<?xml version="1.0" encoding="UTF-8" standalone="no"?>
<!DOCTYPE svg PUBLIC "-//W3C//DTD SVG 1.1//EN" "http://www.w3.org/Graphics/SVG/1.1/DTD/svg11.dtd">
<svg width="100%" height="100%" viewBox="0 0 1000 1000" version="1.1" xmlns="http://www.w3.org/2000/svg" xmlns:xlink="http://www.w3.org/1999/xlink" xml:space="preserve" xmlns:serif="http://www.serif.com/" style="fill-rule:evenodd;clip-rule:evenodd;stroke-linejoin:round;stroke-miterlimit:2;">
    <g transform="matrix(5.09915,0,0,5.09915,-2049.58,-2040.68)">
        <path d="M503.57,586.087C502.356,586.371 501.153,586.506 500,586.506L499.889,586.505C495.203,586.455 489.709,584.214 486,578.775C483.657,575.34 483.792,573.431 476.727,572.506C468.883,571.48 462.917,565.117 457,557.562C453.162,552.662 447.466,548.007 441.428,548.506C425.127,549.852 426.626,539.585 428,533.506C429.394,543.413 434.825,548.09 446,545.915C451.64,544.818 456.012,551.114 463,553.506C464.982,550.047 467.711,547.032 478,548.506C486.259,547.869 488.319,552.229 488,558.506C489.279,558.474 490.338,558.995 491,560.506C493.116,558.8 496.189,557.506 500,557.506L500.178,557.507C503.906,557.546 506.917,558.826 509,560.506C509.662,558.995 510.721,558.474 512,558.506C511.681,552.229 513.741,547.869 522,548.506C532.289,547.032 535.018,550.047 537,553.506C543.988,551.114 548.36,544.818 554,545.915C565.175,548.09 570.606,543.413 572,533.506C573.374,539.585 574.873,549.852 558.572,548.506C552.534,548.007 546.838,552.662 543,557.562C537.083,565.117 531.117,571.48 523.273,572.506C516.208,573.431 516.343,575.34 514,578.775C511.709,582.135 508.737,584.28 505.694,585.438C508.111,581.694 509.036,578.087 509.025,574.899C509.011,570.524 507.223,566.916 505.016,564.731C503.613,563.342 502.025,562.529 500.584,562.38C497.975,562.112 495.157,562.67 492.983,564.084C490.79,565.51 489.237,567.792 489.133,570.98C488.945,576.841 493.837,579.974 497.413,580.15C499.092,580.232 500.49,579.656 501.207,578.599C501.984,577.453 502.074,575.55 500.372,572.936C499.858,572.83 499.443,572.744 499.134,572.946C498.824,573.148 498.738,573.563 498.94,573.872L498.628,574.076C499.231,574.993 499.566,575.767 499.658,576.418C499.724,576.884 499.658,577.258 499.437,577.526C499.184,577.833 498.778,577.995 498.308,578.071C497.572,578.19 496.694,578.086 495.81,577.786C493.405,576.969 490.965,574.692 491.044,571.032C491.098,568.541 492.29,566.746 493.989,565.612C495.817,564.392 498.204,563.911 500.416,564.111C501.532,564.211 502.743,564.874 503.842,565.934C505.824,567.845 507.417,571.036 507.482,574.915C507.537,578.258 506.461,582.095 503.57,586.087ZM535.89,555.179C534.026,558.435 530.863,560.994 527.673,562.684C524.978,564.112 522.262,564.918 520.294,564.952C519.739,564.961 519.252,564.907 518.858,564.775C518.524,564.664 518.267,564.502 518.176,564.22C516.58,559.299 520.682,556.748 523.341,556.538C523.767,556.504 524.15,556.529 524.443,556.64C524.536,556.675 524.633,556.702 524.628,556.799C524.618,556.975 524.524,557.173 524.379,557.411C524.073,557.916 523.544,558.501 522.757,559.184C522.724,559.707 522.696,560.131 522.939,560.409C523.182,560.687 523.605,560.716 523.883,560.473L524.128,560.753C525.551,559.502 526.271,558.452 526.535,557.657C526.896,556.565 526.6,555.761 525.981,555.215C525.533,554.82 524.845,554.553 523.993,554.511C522.91,554.457 521.52,554.749 520.205,555.419C517.362,556.867 514.819,560.001 516.463,564.792C516.749,565.623 517.423,566.221 518.454,566.504C520.186,566.979 523.136,566.513 526.266,565.142C530.327,563.363 534.721,560.117 537.059,555.832C537.239,555.51 537.123,555.102 536.801,554.922C536.478,554.741 536.07,554.857 535.89,555.179ZM464.11,555.179C465.974,558.435 469.137,560.994 472.327,562.684C475.022,564.112 477.738,564.918 479.706,564.952C480.261,564.961 480.748,564.907 481.142,564.775C481.476,564.664 481.733,564.502 481.824,564.22C483.42,559.299 479.318,556.748 476.659,556.538C476.233,556.504 475.85,556.529 475.557,556.64C475.464,556.675 475.367,556.702 475.372,556.799C475.382,556.975 475.476,557.173 475.621,557.411C475.927,557.916 476.456,558.501 477.243,559.184C477.276,559.707 477.304,560.131 477.061,560.409C476.818,560.687 476.395,560.716 476.117,560.473L475.872,560.753C474.449,559.502 473.729,558.452 473.465,557.657C473.104,556.565 473.4,555.761 474.019,555.215C474.467,554.82 475.155,554.553 476.007,554.511C477.09,554.457 478.48,554.749 479.795,555.419C482.638,556.867 485.181,560.001 483.537,564.792C483.251,565.623 482.577,566.221 481.546,566.504C479.814,566.979 476.864,566.513 473.734,565.142C469.673,563.363 465.279,560.117 462.941,555.832C462.761,555.51 462.877,555.102 463.199,554.922C463.522,554.741 463.93,554.857 464.11,555.179ZM484.5,452.555C484.65,452.398 484.781,452.218 484.886,452.019C485.078,451.658 485.278,451.311 485.504,451L486.032,451C488.536,455.145 492.066,459.265 499.644,459.305L500.079,459.303C503.493,459.254 506.764,458.449 509.126,457.026C511.08,455.849 512.455,454.247 513.056,452.335C513.24,451.749 513.57,451.303 513.96,451L515.5,451L515.5,546.844C513.982,547.429 512.818,548.298 511.932,549.353C510.431,551.141 509.69,553.6 509.571,556.522C509.172,556.695 508.795,556.924 508.443,557.217C506.231,555.972 503.453,555.118 500.204,555.084L500,555.083C496.663,555.083 493.815,555.946 491.556,557.217C491.205,556.924 490.828,556.695 490.429,556.521C490.31,553.6 489.569,551.141 488.068,549.353C487.182,548.299 486.018,547.43 484.5,546.844L484.5,452.555ZM480.5,503.608L480.5,546.048C479.747,546.008 478.941,546.014 478.077,546.071C471.18,545.12 467.318,546.146 464.828,547.813C463.678,548.583 462.793,549.506 462.049,550.515C460.405,549.756 458.912,548.804 457.5,547.855L457.5,503.608L480.5,503.608ZM542.5,503.608L542.5,547.855C541.088,548.804 539.595,549.756 537.951,550.515C537.207,549.506 536.322,548.583 535.172,547.813C532.682,546.146 528.819,545.12 521.913,546.071C521.053,546.014 520.25,546.008 519.5,546.048L519.5,503.608L542.5,503.608ZM454.5,503.608L454.5,545.857C454.202,545.67 453.906,545.491 453.611,545.322C450.975,543.81 448.372,542.986 445.538,543.537C440.792,544.46 437.244,544.097 434.756,542.282C433.857,541.626 433.112,540.793 432.5,539.797L432.5,503.608L454.5,503.608ZM567.5,503.608L567.5,539.797C566.888,540.793 566.143,541.626 565.244,542.282C562.756,544.097 559.208,544.46 554.462,543.537C551.628,542.986 549.025,543.81 546.389,545.322C546.094,545.491 545.798,545.67 545.5,545.857L545.5,503.608L567.5,503.608ZM581.214,517.379L572.308,517.379C574.812,509.039 580.207,475.929 565.308,467.968C558.943,464.567 554.907,464.847 552.308,460.165C546.265,449.282 532.706,441.821 527.808,447.832C520.402,456.919 536.287,465.167 539.308,457.771C539.708,456.79 540.187,453.606 535.308,452.211C534.445,451.965 532.424,452.56 532.451,453.894C532.462,454.434 533.706,453.747 534.308,453.894C541.974,455.764 530.437,464.438 529.085,451.894C528.351,445.079 546.487,451.698 545.967,458.894C545.395,466.809 524.386,467.518 519.928,454.894C516.535,445.282 533.804,429.286 548.796,447.894C551.906,451.754 555.242,458.728 559.308,460.894C556.722,453.092 552.296,446.486 546.308,440.894C552.488,444.327 557.443,448.684 560.308,454.948C562.535,459.821 565.876,463.852 569.308,465.894C563.991,447.952 552.545,438.728 537.308,434.894L528.308,421.894L537.308,428.894C556.288,438.336 568.664,449.8 571.308,463.928C572.406,469.797 574.649,470.573 576.308,474.894C581.67,488.869 583.662,504.375 581.214,517.379ZM418.786,517.379L427.692,517.379C425.188,509.039 419.793,475.929 434.692,467.968C441.057,464.567 445.093,464.847 447.692,460.165C453.735,449.282 467.294,441.821 472.192,447.832C479.598,456.919 463.713,465.167 460.692,457.771C460.292,456.79 459.813,453.606 464.692,452.211C465.555,451.965 467.576,452.56 467.549,453.894C467.538,454.434 466.294,453.747 465.692,453.894C458.026,455.764 469.563,464.438 470.915,451.894C471.649,445.079 453.513,451.698 454.033,458.894C454.605,466.809 475.614,467.518 480.072,454.894C483.465,445.282 466.196,429.286 451.204,447.894C448.094,451.754 444.758,458.728 440.692,460.894C443.278,453.092 447.704,446.486 453.692,440.894C447.512,444.327 442.557,448.684 439.692,454.948C437.465,459.821 434.124,463.852 430.692,465.894C436.009,447.952 447.455,438.728 462.692,434.894L471.692,421.894L462.692,428.894C443.712,438.336 431.336,449.8 428.692,463.928C427.594,469.797 425.351,470.573 423.692,474.894C418.33,488.869 416.338,504.375 418.786,517.379ZM480.5,486.427L480.5,502L473.146,502L480.5,486.427ZM460.217,502L470.854,502L465.506,489.658L460.217,502ZM454.5,488.545L454.5,502L448.146,502L454.5,488.545ZM435.217,502L445.854,502L440.506,489.658L435.217,502ZM519.5,486.427L519.5,502L526.854,502L519.5,486.427ZM539.783,502L529.146,502L534.494,489.658L539.783,502ZM545.5,488.545L545.5,502L551.854,502L545.5,488.545ZM564.783,502L554.146,502L559.494,489.658L564.783,502ZM432.5,486L432.5,501.993L439.354,486L432.5,486ZM542.5,486L535.646,486L542.5,501.993L542.5,486ZM567.5,486L567.5,501.993L560.646,486L567.5,486ZM457.5,486L464.354,486L457.5,501.993L457.5,486ZM547.063,486L558.354,486L552.951,498.469L547.063,486ZM452.937,486L441.646,486L447.049,498.469L452.937,486ZM522.063,486L533.354,486L527.951,498.469L522.063,486ZM477.937,486L466.646,486L472.049,498.469L477.937,486ZM425.006,477.147C424.884,479.888 424.448,482.711 423.784,485.593C423.12,488.475 422.227,491.416 421.192,494.394C421.627,488.566 422.587,482.788 425.006,477.147ZM574.994,477.147C575.116,479.888 575.552,482.711 576.216,485.593C576.88,488.475 577.773,491.416 578.808,494.394C578.373,488.566 577.413,482.788 574.994,477.147ZM519.5,484.392L519.5,463L523.084,463C527.416,466.247 533.218,467.457 538.094,466.939C539.691,466.769 541.182,466.413 542.5,465.902L542.5,484.392L519.5,484.392ZM480.5,484.392L457.5,484.392L457.5,465.902C458.818,466.413 460.309,466.769 461.906,466.939C466.782,467.457 472.584,466.247 476.916,463L480.5,463L480.5,484.392ZM545.5,484.392L545.5,472L566.777,472C567.028,472.242 567.269,472.496 567.5,472.76L567.5,484.392L545.5,484.392ZM454.5,484.392L432.5,484.392L432.5,472.76C432.732,472.496 432.973,472.243 433.223,472L454.5,472L454.5,484.392ZM499.657,456.894C491.766,456.852 489.059,451.541 486.75,447.394C484.856,447.797 483.668,449.161 482.75,450.894C480.712,444.182 476.867,438.761 468.75,436.394C470.538,427.363 474.852,421.835 481.75,419.894C481.068,424.731 481.513,429.39 485.75,433.45C485.895,437.188 487.259,440.72 490.75,443.894C492.002,447.113 495.197,449.394 499.75,449.394C500.739,449.394 502.303,449.401 503.25,449.115C527.12,441.9 516.882,418.362 502.334,418.939C498.48,419.092 486.225,422.287 493.75,433.608C493.75,424.482 498.388,421.643 502.75,421.664C508.974,421.694 514.945,427.043 514.957,431.894C514.985,443.066 507.051,448.534 495.75,445.894C512.763,446.946 515.629,428.381 504.75,424.894C501.409,423.823 495.53,426.379 495.757,431.894C495.938,436.29 503.636,440.293 503.75,435.894C502.681,436.637 500.399,435.974 499.12,434.894C494.876,431.308 502.633,425.838 505.75,428.278C510.347,431.876 509.888,442.067 498.75,443.894C495.827,444.373 487.619,440.781 488.75,432.894C479.644,423.716 487.771,413.214 493.75,411.004C499.125,409.017 510.63,409.091 516.75,419.894C525.864,420.537 530.064,427.276 532.75,435.894C524.381,437.819 519.73,442.77 517.75,449.894C517.331,447.151 512.056,447.459 510.75,451.616C509.668,455.06 504.847,456.894 499.75,456.894L499.657,456.894Z" style="fill:white;"/>
    </g>
</svg>
