<?xml version="1.0" encoding="UTF-8" standalone="no"?>
<!DOCTYPE svg PUBLIC "-//W3C//DTD SVG 1.1//EN" "http://www.w3.org/Graphics/SVG/1.1/DTD/svg11.dtd">
<svg width="100%" height="100%" viewBox="0 0 1000 1000" version="1.1" xmlns="http://www.w3.org/2000/svg" xmlns:xlink="http://www.w3.org/1999/xlink" xml:space="preserve" xmlns:serif="http://www.serif.com/" style="fill-rule:evenodd;clip-rule:evenodd;stroke-linejoin:round;stroke-miterlimit:2;">
    <g transform="matrix(4.90466,0,0,4.90466,-2028.85,-1475.03)">
        <path d="M508.936,324.775L521.109,324.881L522.435,390.356L501.939,366.759L469.019,369.979L470.455,377.72L485.865,379.078L486.814,427.433C479.465,427.264 472.119,426.75 465.249,425.516C460.246,424.617 454.495,423.905 453.256,420.163C446.375,399.385 455.347,360.588 451.208,325.885L466.567,325.663L467.926,316.244L423.852,316.154L424.186,325.542L436.501,325.504L436.657,414.091C438.174,435.358 456.088,443.874 485.778,443.235L486.373,479.127L474.31,479.163L474.712,489.938L511.776,489.919L511.668,479.592L500,479.647L500,442.716C513.745,440.273 524.636,435.108 531.726,426.32L586.195,489.811L599.385,489.66L597.817,376.332L607.35,376.321L606.955,365.33L573.85,365.576L574.243,376.7L585.86,376.843L586.214,469.71L538.702,409.779L537.87,324.975L546.871,325.003L546.753,315.429L509.637,315.846L508.936,324.775ZM521.956,412.25C517.739,421.634 508.57,425.077 500,428.895L500,390.466L518.106,407.875L521.956,412.25Z" style="fill:white;"/>
    </g>
</svg>
