<?xml version="1.0" encoding="UTF-8" standalone="no"?>
<!DOCTYPE svg PUBLIC "-//W3C//DTD SVG 1.1//EN" "http://www.w3.org/Graphics/SVG/1.1/DTD/svg11.dtd">
<svg width="100%" height="100%" viewBox="0 0 1000 1000" version="1.1" xmlns="http://www.w3.org/2000/svg" xmlns:xlink="http://www.w3.org/1999/xlink" xml:space="preserve" xmlns:serif="http://www.serif.com/" style="fill-rule:evenodd;clip-rule:evenodd;stroke-linejoin:round;stroke-miterlimit:2;">
    <g transform="matrix(5.0844,0,0,5.0844,-1631.43,-1938.01)">
        <path d="M447.792,434.068C447.038,444.008 442.35,451.009 435.553,455.123L389.58,568.015L415.03,431.889C414.161,430.869 413.406,429.907 412.758,429C409.884,424.979 409.131,422.041 410.134,420C411.573,417.073 417.104,412.499 424.617,413.308L424,413C423.366,411.508 424.987,410.465 432,410.5L433.622,409.527C433.582,409.518 433.541,409.509 433.5,409.5C433.82,408.241 434.425,407.624 435.265,407.544C433.638,404.276 433.492,401.559 435.985,399.823C435.918,398.856 436.146,398.281 437.2,398.8C436.635,397.252 437.219,395.468 438.24,393.993C439.336,392.41 440.918,391.214 441.906,391.026C442.317,390.948 443.298,391.062 444.249,391.463C445.217,391.871 446.138,392.569 446.46,393.551C446.736,394.395 446.602,395.479 445.584,396.805C445.012,397.55 444.39,397.741 443.85,397.675C443.059,397.578 442.384,396.847 442.165,396.15C441.636,394.471 442.285,393.17 443.625,393.516C443.892,393.585 444.053,393.858 443.984,394.125C443.915,394.392 443.642,394.553 443.375,394.484C443.271,394.457 443.187,394.445 443.125,394.486C442.994,394.572 442.979,394.767 442.975,394.993C442.972,395.248 443.022,395.542 443.118,395.85C443.234,396.215 443.557,396.631 443.972,396.682C444.237,396.715 444.51,396.561 444.791,396.195C445.529,395.235 445.709,394.474 445.509,393.862C445.275,393.147 444.566,392.682 443.861,392.385C443.139,392.081 442.405,391.949 442.094,392.008C441.263,392.167 439.983,393.232 439.062,394.562C439.041,394.592 439.021,394.623 439,394.653L439,400.166C443.641,409.273 446.297,417.316 447.356,424.304L448.027,424.494L447.546,425.675C447.802,427.742 447.916,429.712 447.897,431.587L447.901,431.59C449.336,431.948 448.988,434.166 447.798,434.065L447.792,434.068ZM437.287,450.868L436.213,453.504C439.816,451.033 442.705,447.648 444.565,443.342C446.425,439.036 447.255,433.809 446.741,427.652L445.64,430.355C445.716,433.188 445.626,436.087 445.5,439C445.113,437.321 444.684,435.67 444.104,434.128L443.333,436.02C444.313,441.715 441.803,445.38 438.271,448.449L437.642,449.996C435.475,451.58 433.292,453.137 431,454.5C434.236,450.586 434.15,449.105 431.5,449.5C427.169,449.58 425.947,451.22 427,454C425.884,455.979 424.024,457.085 422,458C428.236,458.018 433.097,455.15 437.287,450.868ZM431,447.5C429.757,447.993 428.939,448.177 428.591,448.021C428.243,447.865 428.365,447.369 429,446.5C430.086,445.016 432.309,446.981 431,447.5ZM430.611,436.574C430.038,438.143 429.534,439.066 429.108,439.276C428.681,439.486 428.332,438.983 428.066,437.701C427.612,435.51 431.215,434.923 430.611,436.574ZM444.104,434.128C441.651,426.021 436.421,422.244 427,425C422.729,426.25 423.077,429.583 424,430.232C424.622,430.669 428.375,429.85 428,426.5C436.225,424.434 440.745,428.303 443.5,435L444.104,434.128ZM417.933,416.359C415.783,417.285 414.516,418.689 413.653,420C412.884,421.168 413.064,422.78 414.544,425C414.93,425.577 415.403,426.196 415.97,426.858C415.57,422.788 416.027,419.181 417.933,416.359ZM439.587,422.106C441.786,420.675 444.029,421.766 446.293,424.003C446.103,422.817 445.867,421.6 445.582,420.352C442.669,415.856 439.616,411.601 435.047,409.945C435.857,412.821 437.773,415.665 440,418.5C437.477,415.79 434.851,413.228 431.5,411.703C426.284,411.345 424.593,411.984 426.191,413.553C428.636,414.051 431.26,415.127 434,417C426.371,414.821 421.59,415.001 418.488,416.138C420.645,416.014 422.503,416.266 423.529,417.564C423.618,419.223 423.655,420.699 421.5,422C428.136,419.044 434.229,420.67 440,425L439.587,422.106ZM439.013,402.477L439,402.405C442.131,408.815 444.247,414.67 445.494,419.974C442.621,414.108 440.097,408.258 439.013,402.477ZM436.109,400.127C435.61,401.045 435.33,402.1 435.22,403.262C435.096,404.566 435.187,406.005 435.424,407.535C436.136,407.523 437.003,407.864 438,408.5L438.849,403.324L436.109,400.127Z" style="fill:white;"/>
    </g>
</svg>
