<?xml version="1.0" encoding="UTF-8" standalone="no"?>
<!DOCTYPE svg PUBLIC "-//W3C//DTD SVG 1.1//EN" "http://www.w3.org/Graphics/SVG/1.1/DTD/svg11.dtd">
<svg width="100%" height="100%" viewBox="0 0 1000 1000" version="1.1" xmlns="http://www.w3.org/2000/svg" xmlns:xlink="http://www.w3.org/1999/xlink" xml:space="preserve" xmlns:serif="http://www.serif.com/" style="fill-rule:evenodd;clip-rule:evenodd;stroke-linejoin:round;stroke-miterlimit:2;">
    <g transform="matrix(5.61498,0,0,5.61498,-2391.83,-3167.33)">
        <path d="M497.816,657.243C495.378,671.428 483.008,682.233 468.135,682.233L467.997,682.232C456.287,682.18 446.146,675.43 441.211,665.618L441.251,665.761C444.629,677.857 455.709,686.756 468.862,686.825L469.017,686.825C484.926,686.825 497.842,673.909 497.842,658C497.842,657.719 497.838,657.439 497.83,657.16L497.816,657.243ZM532.226,657.243C534.664,671.428 547.034,682.233 561.907,682.233L562.045,682.232C573.755,682.18 583.896,675.43 588.831,665.618L588.791,665.761C585.413,677.857 574.333,686.756 561.18,686.825L561.025,686.825C545.116,686.825 532.2,673.909 532.2,658C532.2,657.719 532.204,657.439 532.212,657.16L532.226,657.243ZM562.001,623.291C577.868,623.343 590.732,636.239 590.732,652.116C590.732,667.993 577.868,680.889 562.001,680.941L561.907,680.941C545.999,680.941 533.083,668.025 533.083,652.116C533.083,636.207 545.999,623.291 561.907,623.291L562.001,623.291ZM468.041,623.291C452.174,623.343 439.31,636.239 439.31,652.116C439.31,667.993 452.174,680.889 468.041,680.941L468.135,680.941C484.044,680.941 496.96,668.025 496.96,652.116C496.96,636.207 484.044,623.291 468.135,623.291L468.041,623.291ZM561.907,625.21L561.994,625.21C576.686,625.258 588.598,637.296 588.598,652.116C588.598,666.936 576.686,678.974 561.994,679.022L561.907,679.022C547.176,679.022 535.217,666.966 535.217,652.116C535.217,637.266 547.176,625.21 561.907,625.21ZM468.135,625.21L468.048,625.21C453.356,625.258 441.444,637.296 441.444,652.116C441.444,666.936 453.356,678.974 468.048,679.022L468.135,679.022C482.866,679.022 494.826,666.966 494.826,652.116C494.826,637.266 482.866,625.21 468.135,625.21ZM514.734,652.117C508.726,652.175 503.527,654.08 498.707,661.809C499.035,658.707 499.057,655.713 498.53,652.911C502.159,647.74 504.872,644.219 515.021,644.219L515.258,644.219C525.212,644.274 527.912,647.781 531.512,652.911C530.985,655.713 531.007,658.707 531.335,661.809C526.439,653.958 521.151,652.116 515.021,652.116L514.734,652.117ZM592.345,653.565L593.697,650.151C591.306,638.006 585.823,630.931 578.208,626.502C570.629,622.093 561.808,620.36 548.982,623.291L548.798,621.443C559.905,617.656 572.507,619.458 580.753,625.02C587.632,629.66 593.975,637.077 595.164,650.248L592.345,653.565ZM437.697,653.565L436.345,650.151C438.736,638.006 444.219,630.931 451.834,626.502C459.413,622.093 468.234,620.36 481.06,623.291L481.244,621.443C470.137,617.656 457.535,619.458 449.29,625.02C442.41,629.66 436.067,637.077 434.878,650.248L437.697,653.565ZM586.011,644.771C585.443,644.864 584.856,644.607 584.547,644.091C579.763,636.092 571.015,630.73 561.023,630.73C553.819,630.73 547.26,633.518 542.367,638.074C542.053,638.366 541.64,638.493 541.24,638.451C547.564,631.318 556.519,628.776 564.992,630.044C573.559,631.327 581.636,636.501 586.011,644.771ZM444.031,644.771C444.599,644.864 445.186,644.607 445.495,644.091C450.279,636.092 459.027,630.73 469.019,630.73C476.223,630.73 482.782,633.518 487.675,638.074C487.989,638.366 488.402,638.493 488.802,638.451C482.478,631.318 473.523,628.776 465.05,630.044C456.483,631.327 448.406,636.501 444.031,644.771ZM582.075,636.552C583.606,638.565 584.847,640.815 585.736,643.237L585.779,643.354C584.769,641.665 583.59,640.087 582.266,638.644C582.207,637.913 582.12,637.183 582.001,636.454L582.075,636.552ZM447.967,636.552C446.436,638.565 445.195,640.815 444.306,643.237L444.263,643.354C445.273,641.665 446.452,640.087 447.776,638.644C447.835,637.913 447.922,637.183 448.041,636.454L447.967,636.552ZM572.073,628.639C575.35,630.086 578.267,632.21 580.649,634.836C580.86,635.689 581.017,636.544 581.13,637.401L581.141,637.484C578.767,635.169 575.997,633.261 572.941,631.87C572.688,630.775 572.38,629.686 571.996,628.605L572.073,628.639ZM457.969,628.639C454.692,630.086 451.775,632.21 449.393,634.836C449.182,635.689 449.025,636.544 448.912,637.401L448.901,637.484C451.275,635.169 454.045,633.261 457.101,631.87C457.354,630.775 457.662,629.686 458.046,628.605L457.969,628.639ZM545.052,633.133C545.34,633.275 545.626,633.423 545.91,633.576C544.315,634.561 542.823,635.696 541.454,636.963L541.389,637.024C542.432,635.586 543.619,634.261 544.929,633.072L545.052,633.133ZM484.99,633.133C484.702,633.275 484.416,633.423 484.132,633.576C485.727,634.561 487.219,635.696 488.588,636.963L488.653,637.024C487.611,635.586 486.423,634.261 485.113,633.072L484.99,633.133ZM551.894,628.724C552.44,629.243 552.959,629.769 553.452,630.301C551.179,630.919 549.018,631.809 547.006,632.932L546.91,632.986C546.525,632.769 546.138,632.561 545.746,632.362C547.563,630.847 549.593,629.583 551.784,628.621L551.894,628.724ZM478.149,628.724C477.602,629.243 477.083,629.769 476.59,630.301C478.863,630.919 481.024,631.809 483.036,632.932L483.132,632.986C483.517,632.769 483.905,632.561 484.296,632.362C482.479,630.847 480.449,629.583 478.258,628.621L478.149,628.724ZM562.053,626.502C565.104,626.52 568.029,627.081 570.735,628.094C571.153,629.146 571.489,630.206 571.766,631.274L571.793,631.377C569.21,630.335 566.443,629.656 563.555,629.405C562.987,628.417 562.343,627.449 561.615,626.504L562.053,626.502ZM467.989,626.502C464.938,626.52 462.013,627.081 459.307,628.094C458.889,629.146 458.553,630.206 458.276,631.274L458.25,631.377C460.832,630.335 463.599,629.656 466.487,629.405C467.055,628.417 467.699,627.449 468.427,626.504L467.989,626.502ZM560.442,626.633C561.13,627.482 561.743,628.35 562.29,629.236L562.344,629.325C561.934,629.306 561.521,629.296 561.106,629.295L561.023,629.295C558.833,629.295 556.7,629.54 554.651,630.003L554.553,630.025C554,629.409 553.415,628.801 552.795,628.203C555.17,627.28 557.717,626.708 560.373,626.548L560.442,626.633ZM469.6,626.633C468.912,627.482 468.299,628.35 467.752,629.236L467.698,629.325C468.108,629.306 468.521,629.296 468.936,629.295L469.019,629.295C471.209,629.295 473.342,629.54 475.392,630.003L475.489,630.025C476.042,629.409 476.627,628.801 477.247,628.203C474.872,627.28 472.325,626.708 469.669,626.548L469.6,626.633Z" style="fill:white;"/>
    </g>
</svg>
