<?xml version="1.0" encoding="UTF-8" standalone="no"?>
<!DOCTYPE svg PUBLIC "-//W3C//DTD SVG 1.1//EN" "http://www.w3.org/Graphics/SVG/1.1/DTD/svg11.dtd">
<svg width="100%" height="100%" viewBox="0 0 1000 1000" version="1.1" xmlns="http://www.w3.org/2000/svg" xmlns:xlink="http://www.w3.org/1999/xlink" xml:space="preserve" xmlns:serif="http://www.serif.com/" style="fill-rule:evenodd;clip-rule:evenodd;stroke-linejoin:round;stroke-miterlimit:2;">
    <g transform="matrix(2.14286,0,0,2.14286,-571.429,-462.679)">
        <path d="M487.443,369.077C483.735,360.939 478.529,353.744 471,348C482.797,330.938 491.386,295.396 500,260L500.808,263.318C509.155,297.603 517.572,331.472 529,348C521.471,353.744 516.264,360.94 512.557,369.077C581.185,375.417 635,433.224 635,503.5C635,523.543 630.623,542.571 622.777,559.672C631.348,560.376 639.864,559.403 648.29,555.885C656.89,574.046 682.012,598.27 707.53,622.641L710,625C675.039,614.762 639.965,604.429 619.29,606.115C618.12,597.032 614.688,589.151 609.769,582.063C585.262,616.227 545.212,638.5 500,638.5C454.788,638.5 414.738,616.227 390.231,582.063C385.312,589.151 381.88,597.032 380.71,606.115C360.035,604.429 324.961,614.762 290,625L292.47,622.641C317.988,598.27 343.11,574.046 351.71,555.885C360.136,559.403 368.652,560.376 377.223,559.672C369.377,542.571 365,523.543 365,503.5C365,433.224 418.815,375.417 487.443,369.077ZM505.927,391.154C502.959,406.813 502.273,423.903 500,440L499.944,439.605C497.715,423.625 497.017,406.689 494.073,391.154C434.735,394.238 387.5,443.396 387.5,503.5C387.5,521.891 391.923,539.258 399.759,554.588C415.087,549.335 430.52,541.196 445.885,535L445.57,535.246C432.61,545.35 417.997,554.575 405.888,565.126C425.997,595.757 460.653,616 500,616C539.347,616 574.003,595.757 594.112,565.126C582.003,554.575 567.39,545.35 554.43,535.246L554.115,535C569.48,541.196 584.913,549.335 600.241,554.588C608.077,539.258 612.5,521.891 612.5,503.5C612.5,443.396 565.265,394.238 505.927,391.154Z" style="fill:white;"/>
    </g>
</svg>
