<?xml version="1.0" encoding="UTF-8" standalone="no"?>
<!DOCTYPE svg PUBLIC "-//W3C//DTD SVG 1.1//EN" "http://www.w3.org/Graphics/SVG/1.1/DTD/svg11.dtd">
<svg width="100%" height="100%" viewBox="0 0 1000 1000" version="1.1" xmlns="http://www.w3.org/2000/svg" xmlns:xlink="http://www.w3.org/1999/xlink" xml:space="preserve" xmlns:serif="http://www.serif.com/" style="fill-rule:evenodd;clip-rule:evenodd;stroke-linejoin:round;stroke-miterlimit:2;">
    <path d="M55,55L500,336.575L945,55L663.425,500L945,945L500,663.425L55,945L336.575,500L55,55ZM207.5,207.5L500,392.58L792.5,207.5L607.42,500L792.5,792.5L500,607.42L207.5,792.5L392.58,500L207.5,207.5ZM500,472.277L397.388,369.664C395.788,368.065 393.195,368.065 391.595,369.664L369.664,391.595C368.065,393.195 368.065,395.788 369.664,397.388L472.277,500C472.277,500 369.664,602.612 369.664,602.612C368.065,604.212 368.065,606.805 369.664,608.405L391.595,630.336C393.195,631.935 395.788,631.935 397.388,630.336C397.388,630.336 483.044,544.679 500,527.723C500,527.723 602.612,630.336 602.612,630.336C604.212,631.935 606.805,631.935 608.405,630.336L630.336,608.405C631.935,606.805 631.935,604.212 630.336,602.612L527.723,500C527.723,500 630.336,397.388 630.336,397.388C631.935,395.788 631.935,393.195 630.336,391.595L608.405,369.664C606.805,368.065 604.212,368.065 602.612,369.664L500,472.277Z" style="fill:white;"/>
</svg>
