<?xml version="1.0" encoding="UTF-8" standalone="no"?>
<!DOCTYPE svg PUBLIC "-//W3C//DTD SVG 1.1//EN" "http://www.w3.org/Graphics/SVG/1.1/DTD/svg11.dtd">
<svg width="100%" height="100%" viewBox="0 0 1000 1000" version="1.1" xmlns="http://www.w3.org/2000/svg" xmlns:xlink="http://www.w3.org/1999/xlink" xml:space="preserve" xmlns:serif="http://www.serif.com/" style="fill-rule:evenodd;clip-rule:evenodd;stroke-linejoin:round;stroke-miterlimit:2;">
    <g transform="matrix(1.875,0,0,1.875,-437.5,-769.116)">
        <path d="M325.008,864.181C328.402,867.797 260,797.157 260,700C260,567.54 367.54,460 500,460C632.46,460 740,567.54 740,700C740,779.516 701.247,850.051 641.627,893.723C638.945,890.209 636.162,886.775 633.253,883.444C627.116,878.018 614.763,874.248 608.578,864.96C604.988,859.57 605.11,853.42 599.055,848.96C592.82,847.715 587.057,841.578 580.253,839.96C579.709,839.831 579.164,839.702 578.618,839.574C579.405,836.513 580.492,833.603 582.253,830.96C570.49,813.022 569.558,796.452 569.253,779.96C558.16,773.047 556.075,766.006 554.253,758.96C555.296,762.103 557.735,764.731 561.253,766.96C560.355,765.614 559.593,764.273 559.783,762.96C561.752,766.681 564.417,770.252 567.253,773.96C566.72,772.478 566.196,770.999 566.799,769.96C568.693,772.691 571.518,775.357 575.253,777.96C575.085,776.627 574.943,775.294 575.253,773.96C577.853,775.738 580.659,777.359 584.791,777.96C583.883,776.923 583.296,775.916 583.253,774.96C586.14,776.737 589.426,778.287 594.253,778.96C593.463,777.945 592.999,776.941 593.253,775.96C597.085,777.459 600.378,777.323 603.253,774.989C606.202,772.594 609.949,774.327 612.253,773.96C610.448,773.389 608.954,772.754 608.253,771.96C613.5,770.252 615.253,767.613 615.253,767.613C615.271,767.399 617.548,766.87 619.455,764.96C621.066,763.347 623.719,762.658 625.253,761.96L620.253,760.96C625.269,756.142 627.41,755.342 629.253,754.96C623.787,753.813 618.407,753.79 613.253,755.156C591.417,760.941 575.388,747.306 565.993,727.016C560.948,716.12 552.037,703.679 538.253,697.847C533.684,695.914 528.568,694.413 526.253,690.518C521.341,682.257 510.26,682.32 500.524,680.96C493.47,679.975 483.128,674.555 481.253,671.903C476.21,664.769 465.382,659.984 457.285,654.96C448.746,649.663 444.499,639.733 435.888,635.96C426.822,631.989 427.096,626.152 425.253,621.96C427.023,621.395 429.023,621.062 431.253,620.96C428.046,614.087 419.95,609.355 416.919,601.96C413.957,594.734 411.999,587.793 403.584,584.96C399.327,583.527 398.071,577.718 395.253,573.817C392.304,569.736 389.79,565.346 387.253,560.96C386.555,559.744 384.867,559.617 382.753,560.96C377.929,564.025 376.793,569.094 376.753,573.46C373.379,569.833 371.403,571.758 370.253,576.96C370.168,590.589 371.967,603.117 376.045,610.96C378.862,616.379 374.898,621.55 371.753,623.46C375.952,625.084 375.669,627.488 369.253,630.96C369.885,631.813 369.925,632.803 369.253,633.96C371.667,633.098 371.968,635.211 370.753,639.46C373.642,638.597 373.527,640.526 371.253,644.46C373.585,644.42 374.685,645.629 369.253,653.46C372.346,652.865 374.686,653.025 370.753,659.46C372.667,659.181 373.443,660.06 371.253,663.96C374.183,663.031 372.967,666.953 371.253,671.46C376.013,669.549 375.831,677.594 373.753,689.46C377.185,683.511 379.914,680.569 379.753,689.96C382.158,685.636 382.866,688.282 381.253,700.46C383.732,698.387 384.739,698.945 383.253,703.96C385.308,702.317 386.372,702.956 385.753,707.46C387.632,706.153 389.121,706.493 389.753,710.46C392.302,704.559 393.636,706.845 394.253,713.96C395.988,710.825 397.029,711.255 396.753,718.46C399.854,712.424 401.979,720.635 403.753,733.96C406.377,740.432 409.998,746.453 414.753,751.96C415.84,768.125 415.298,779.67 413.114,786.557C408.887,785.64 404.663,785.126 400.44,784.678C386.83,788.871 374.011,794.63 363.253,804.474C359.17,804.106 355.575,804.221 353.253,805.595C345.507,812.07 338.715,819.707 333.253,828.96L333.253,851.96C330.017,855.42 327.142,859.333 325.008,864.181ZM564.412,836.299C565.083,830.064 563.162,822.898 559.927,813.96C556.703,805.05 554.082,799.179 549.788,789.96C547.063,784.109 538.911,784.836 527.753,776.46C526.871,782.533 529.6,794.271 531.253,794.677C533.865,795.319 535.305,796.045 533.753,798.46C536.327,801.906 535.42,803.82 532.753,804.96C530.01,815.543 530.071,821.542 530.396,825.822C536.504,829.684 549.705,832.917 564.412,836.299ZM518.055,815.7C517.956,805.473 515.378,796.419 507.973,792.46C500.291,788.354 489.428,775.34 486.966,759.96C485.619,751.545 482.809,745.111 477.753,741.46C473.723,743.266 473.06,745.101 475.253,746.96C470.953,745.162 468.819,745.19 468.753,746.96C466.417,745.994 464.055,745.011 460.753,743.46C457.725,755.949 456.879,766.494 457.789,775.46C458.365,781.13 458.249,786.614 455.865,790.96C454.987,792.561 453.309,796.627 451.796,801.959C469.492,809.518 486.167,818.575 509.253,816.633C511.426,816.451 514.752,816.017 518.055,815.7ZM439.097,797.053C442.392,789.133 443.087,781.142 442.823,772.96C442.493,762.75 442.148,752.572 439.753,742.46C439.821,743.627 439.647,744.794 439.253,745.96C438.542,744.343 437.551,743.162 436.253,742.46C436.062,743.88 435.513,745.2 434.753,746.46C434.217,743.629 433.359,740.968 431.253,738.96C431.576,747.316 430.641,756.138 427.989,768.96C426.973,773.874 427.157,779.556 426.753,785.96C426.218,787.533 425.59,789.011 424.895,790.423C427.678,791.707 430.463,793.301 433.253,795.298C435.235,795.827 437.18,796.416 439.097,797.053Z" style="fill:white;"/>
    </g>
</svg>
