<?xml version="1.0" encoding="UTF-8" standalone="no"?>
<!DOCTYPE svg PUBLIC "-//W3C//DTD SVG 1.1//EN" "http://www.w3.org/Graphics/SVG/1.1/DTD/svg11.dtd">
<svg width="100%" height="100%" viewBox="0 0 1000 1000" version="1.1" xmlns="http://www.w3.org/2000/svg" xmlns:xlink="http://www.w3.org/1999/xlink" xml:space="preserve" xmlns:serif="http://www.serif.com/" style="fill-rule:evenodd;clip-rule:evenodd;stroke-linejoin:round;stroke-miterlimit:2;">
    <g transform="matrix(1.98456,0,0,1.98456,-395.535,-393.575)">
        <path d="M648.5,471C645.822,466.234 638.087,464.09 634.012,457C619.02,430.914 588.372,419.686 554,421.5L549,423.5L520,431L515,430C501.64,434.569 490.364,439.956 484,448.793C474.073,462.578 474.653,480.689 473.928,494C473.47,502.389 466.658,506.999 460,508C463.085,511.898 466.77,514.183 471,515C467.501,518.702 463.808,519.661 460,519C463.038,523.577 464.65,526.908 465.776,529C467.001,531.277 469.652,532.038 472,532.5C474.347,523.88 476.326,511.121 479.317,497C480.833,489.843 485.208,483.923 489.5,478.5C490.009,485.425 492.655,489.611 493.735,492C495.048,494.905 494.119,498.494 495.746,501C499.435,506.68 502.292,511.785 503.5,516.5C506.903,500.856 526.781,492.671 550,486C545.504,490.634 539.484,495.019 531,499C548.85,496.491 561.334,491.701 570.5,485.5C568.606,502.978 573.299,518.617 582.5,533C584.023,540.214 582.412,544.65 579,548.77C575.582,552.897 571.083,555.195 564,554C568.691,559.494 574.231,563.01 581.5,562.5C579.926,565.509 577.693,568.015 571.5,567.5C574.539,572.848 580.539,575.815 590,576C594.075,581.218 600.784,583.538 611,582C611.224,584.717 610.93,587.279 609.5,589.5C611.998,588.929 614.337,588.427 616.5,588C623.485,591.057 630.089,591.053 636.5,589.5C633.796,587.416 632.165,584.665 632,581C642.504,584.077 650.503,582.964 656.5,578.5C642.495,574.561 639.745,564.367 649,547.5C652.93,537.333 654.973,527.167 653.5,517L644,524C626.875,517.808 620.653,500.063 627,469C635.52,467.473 642.105,469.082 648.5,471ZM450,433C448.834,413.95 444.85,395.109 431,377C430.478,393.355 425.36,403.468 416.5,408.5C419.38,401.596 421.165,394.418 420,386.5C414.337,397.421 409.626,409.627 400.5,418.519C395.117,423.764 391.447,430.923 386.5,437C389.525,423.801 392.436,410.431 392,392C392,392 386.544,405.786 381.99,411.5C369.199,427.549 347.953,453.314 353.5,467C349.685,462.797 347.077,455.326 347,441C342.314,454.066 337.105,466.564 330,477C330.197,486.222 329.621,495.417 331.846,504C335.442,517.868 337.143,530.815 337.5,543.5C347.71,568.498 345.661,577.313 342,584C341.575,570.507 337.498,555.797 327.947,541C318.138,525.802 312.962,507.679 306.5,491C304.809,502.019 293.688,506.725 270,529.934C262.942,536.85 263.002,549.628 258.954,560C255.653,568.461 259.101,577.875 259.5,585C253.952,581.089 248.927,575.283 245,565.5C237.071,570.369 230.427,568.744 224.5,563.5C230.248,561.657 236.057,555.984 235.1,547C234.111,537.722 227.309,525.461 233,503.5C239.188,493.616 245.7,484.288 248.122,474C253.234,452.282 251.178,433.922 252.708,420C255.835,391.565 260.655,377.512 267.861,365L276,381C296.233,368.752 314.342,355.9 331.5,342C327.004,336.724 321.027,331.72 313.5,327C344.958,316.736 375.827,314.612 405.5,329L406.5,332C420.992,340.697 431.885,350.313 442.5,360L446.5,359.5C459.315,377.024 463.121,390.799 462.866,402.5C462.746,408.033 462.661,413.979 459.187,418C455.404,422.38 452.384,427.468 450,433ZM491.5,561C487.719,561.042 483.918,561.39 483.5,560C483.304,559.349 481.97,558.675 481.5,558C480.26,556.22 479.391,554.429 479,553C478.269,550.33 481.412,547.234 486,548C488.887,548.482 494.314,550.587 496.5,551.5C503.095,554.256 495.871,560.951 491.5,561ZM644,522C655.921,513.816 667.505,503.702 677.5,484.5L675,484.5C676.105,483.232 677.103,481.39 678,479C672.261,480.14 664.792,479.837 651.5,474.673C644.182,471.482 636.633,470.788 629,471C623.525,494.671 628.133,512.898 640.5,519C636.633,516.66 633.806,511.87 632.5,503.5C633.758,503.132 634.892,503.264 636,503.5C635.134,500.68 633.898,497.849 632,495C634.781,495.007 637.222,493.996 639.5,492.5C635.103,492.111 631.617,489.917 629,486C629.479,484.598 636.151,482.921 644,482.821C654.838,482.682 665.552,482.323 668,482C670.366,481.688 675,480.5 675,480.5C674.507,482.429 673.656,484.082 672.5,485.5C673.111,485.826 673.752,486.068 674.5,486C665.135,502.946 654.262,512.577 644,522ZM416,496C415.763,496.532 416.557,498.395 418.5,499.376C422.856,501.576 424.91,503.972 426,504C431.868,504.149 438.832,491.979 436,490C429.924,485.754 417.665,492.257 416,496ZM549,422C539.825,423.94 530.032,426.405 519.5,429.5C521.893,421.23 524.703,412.836 529,404L530,404.5L531.5,401.5C532.036,403.382 532.578,405.968 534.692,407.5C542.222,412.958 546.091,417.588 549,422ZM327,341.5C321.113,335.871 314.595,330.353 301.413,326C299.789,324.962 295.626,322.98 288.152,320C283.331,318.078 279.329,313.968 275,310C272.471,313.469 271.425,318.423 272.5,325.5L268,326C267.016,356.665 271.344,370.518 278,377C272.6,369.324 269.579,353.736 270,328L274.5,327C273.274,320.172 273.545,318.086 276,314L284,320C285.664,325.321 290.506,328.854 295.25,330.5C306.686,334.469 316.147,348.427 314,348C308.932,349.972 303.788,350.52 298,350L300,353C298.614,353.293 296.595,353.284 294,353C295.439,355.186 297.128,356.802 299,358C294.265,359.878 289.961,362.601 286,366C289.095,365.366 291.221,364.998 292,365C288.481,367.048 284.889,368.907 281,370C281.424,371.14 281.941,372.227 283,373C301.32,362.5 316.066,352 327,341.5ZM409,330C421.971,336.891 433.786,346.292 445,357C443.848,349.967 443.403,343.097 441.244,335.361C440.222,331.7 440.802,327.787 441,324L439,326L438,317L436,319L436,317C430.684,319.426 424.683,321.193 419,322.769C414.225,324.093 411.046,327.238 409,330Z" style="fill:white;"/>
    </g>
</svg>
