<?xml version="1.0" encoding="UTF-8" standalone="no"?>
<!DOCTYPE svg PUBLIC "-//W3C//DTD SVG 1.1//EN" "http://www.w3.org/Graphics/SVG/1.1/DTD/svg11.dtd">
<svg width="100%" height="100%" viewBox="0 0 1000 1000" version="1.1" xmlns="http://www.w3.org/2000/svg" xmlns:xlink="http://www.w3.org/1999/xlink" xml:space="preserve" xmlns:serif="http://www.serif.com/" style="fill-rule:evenodd;clip-rule:evenodd;stroke-linejoin:round;stroke-miterlimit:2;">
    <g transform="matrix(5.72398,0,0,5.72398,-2242.42,-1669.71)">
        <path d="M508.595,313.336C490.418,297.636 464.892,294.841 445.938,312.975C411.326,346.09 414.805,404.737 432.853,433.486C452.355,464.551 499.52,467.049 527.988,433.052C549.916,406.865 535.725,336.769 508.595,313.336ZM426.736,357.23C445.155,357.295 462.763,363.439 479.111,379.057C502.32,402.822 519.871,409.161 534.415,398.499C535.047,348.801 506.816,305.842 479.111,305.042C455.274,304.353 432.174,328.36 426.736,357.23Z" style="fill:white;"/>
    </g>
</svg>
