<?xml version="1.0" encoding="UTF-8" standalone="no"?>
<!DOCTYPE svg PUBLIC "-//W3C//DTD SVG 1.1//EN" "http://www.w3.org/Graphics/SVG/1.1/DTD/svg11.dtd">
<svg width="100%" height="100%" viewBox="0 0 1000 1000" version="1.1" xmlns="http://www.w3.org/2000/svg" xmlns:xlink="http://www.w3.org/1999/xlink" xml:space="preserve" xmlns:serif="http://www.serif.com/" style="fill-rule:evenodd;clip-rule:evenodd;stroke-linejoin:round;stroke-miterlimit:2;">
    <g transform="matrix(1.42601,0,0,1.42601,-213.006,-270.047)">
        <path d="M579.396,291.429C563.491,262.448 533.059,244.435 500,244.435C466.941,244.435 436.509,262.448 420.604,291.429L195.604,701.429C180.207,729.487 180.762,763.589 197.064,791.131C213.366,818.673 242.995,835.565 275,835.565L725,835.565C757.005,835.565 786.634,818.673 802.936,791.131C819.238,763.589 819.793,729.487 804.396,701.429L579.396,291.429ZM563.233,300.299L788.233,710.299C800.497,732.645 800.055,759.805 787.071,781.74C774.087,803.676 750.49,817.129 725,817.129L275,817.129C249.51,817.129 225.913,803.676 212.929,781.74C199.945,759.805 199.503,732.645 211.767,710.299C211.767,710.299 436.767,300.299 436.767,300.299C449.433,277.217 473.671,262.871 500,262.871C526.329,262.871 550.567,277.217 563.233,300.299ZM546.401,309.536L771.401,719.536C780.4,735.934 780.076,755.864 770.548,771.96C761.021,788.057 743.705,797.929 725,797.929L275,797.929C256.295,797.929 238.979,788.057 229.452,771.96C219.924,755.864 219.6,735.934 228.599,719.536C228.599,719.536 453.599,309.536 453.599,309.536C462.894,292.598 480.679,282.071 500,282.071C519.321,282.071 537.106,292.598 546.401,309.536ZM577,765.024L577,388.024L547,388.024C535.179,388.024 523.271,409.937 523.271,421.759L523.271,538.024L547,547.024L547,765.024C547,776.643 577,776.746 577,765.024ZM443,524.32C441.563,516.913 435.542,514.181 426.898,514.181C423.263,514.181 423,510.754 423,507.024L423,392.024C423,388.157 423.255,386.223 429.821,386.223C436.387,386.223 436.642,388.157 436.642,392.024L436.642,481.024C436.642,486.963 445.889,488.178 449.673,484.669C449.97,483.333 450.428,482.074 451.126,481.024L451.126,392.024C451.126,389.891 451.665,388.695 452.659,388.026C453.577,387.37 454.951,387.218 456.795,387.185C457.331,387.175 457.9,387.175 458.5,387.176C459.1,387.175 459.669,387.175 460.205,387.185C462.049,387.218 463.423,387.37 464.341,388.026C465.335,388.695 465.874,389.891 465.874,392.024L465.874,481.024C466.572,482.074 467.03,483.333 467.327,484.669C471.111,488.178 480.358,486.963 480.358,481.024L480.358,392.024C480.358,388.157 480.613,386.223 487.179,386.223C493.745,386.223 494,388.157 494,392.024L494,507.024C494,510.754 493.737,514.181 490.102,514.181C481.458,514.181 475.437,516.913 474,524.32L473.865,765.024C473.865,776.746 443.865,776.643 443.865,765.024L443,524.32Z" style="fill:white;"/>
    </g>
</svg>
