<?xml version="1.0" encoding="UTF-8" standalone="no"?>
<!DOCTYPE svg PUBLIC "-//W3C//DTD SVG 1.1//EN" "http://www.w3.org/Graphics/SVG/1.1/DTD/svg11.dtd">
<svg width="100%" height="100%" viewBox="0 0 1000 1000" version="1.1" xmlns="http://www.w3.org/2000/svg" xmlns:xlink="http://www.w3.org/1999/xlink" xml:space="preserve" xmlns:serif="http://www.serif.com/" style="fill-rule:evenodd;clip-rule:evenodd;stroke-linejoin:round;stroke-miterlimit:2;">
    <g transform="matrix(2.84832,0,0,-2.50019,-924.175,1725.13)">
        <path d="M500.01,310.027L500.01,310.053C507.127,328.423 514.028,348.191 521,367.5L501.5,418.5L501.5,420.032C506.269,421.163 521.781,452.094 537.022,482.902L547.834,453.951L583.411,448.294L576.937,483.053L543.583,496.308C556.022,521.996 566.15,544.403 565.908,545C566.087,545.442 560.581,557.841 552.659,574.681L583.525,586.947L590,621.706L554.423,616.049L544.988,590.785C527.501,627.053 504.695,671.41 500.005,669.965C495.315,671.41 472.509,627.053 455.022,590.785L445.587,616.049L410.01,621.706L416.485,586.947L447.351,574.681C439.429,557.841 433.923,545.442 434.102,545C433.86,544.403 443.988,521.996 456.427,496.308L423.073,483.053L416.599,448.294L452.176,453.951L462.988,482.902C478.229,452.094 493.741,421.163 498.51,420.032L498.51,418.5L479.01,367.5C485.982,348.191 492.883,328.423 500,310.053L500,310.027L500.005,310.04L500.01,310.027ZM500.005,452.071C492.465,454.852 454.581,540.785 455.013,541.85C454.581,542.914 492.465,628.847 500.005,631.628C507.545,628.847 545.429,542.914 544.997,541.85C545.429,540.785 507.545,454.852 500.005,452.071Z" style="fill:white;"/>
    </g>
</svg>
