<?xml version="1.0" encoding="UTF-8" standalone="no"?>
<!DOCTYPE svg PUBLIC "-//W3C//DTD SVG 1.1//EN" "http://www.w3.org/Graphics/SVG/1.1/DTD/svg11.dtd">
<svg width="100%" height="100%" viewBox="0 0 1000 1000" version="1.1" xmlns="http://www.w3.org/2000/svg" xmlns:xlink="http://www.w3.org/1999/xlink" xml:space="preserve" xmlns:serif="http://www.serif.com/" style="fill-rule:evenodd;clip-rule:evenodd;stroke-linejoin:round;stroke-miterlimit:2;">
    <g transform="matrix(1.39752,0,0,1.39752,-198.758,-195.963)">
        <path d="M500,820C492.508,777.823 478.659,742.935 457,717C476.449,701.737 480.109,685.745 460,674.439C446.006,666.571 424.888,672.569 425,704L388,680L413,645L370,667L330,627C400.297,638.959 415.567,591.058 398.73,564.657C387.83,547.567 366.431,546.243 350,550.75C334.04,555.128 318.987,568.172 308,590C290.069,557.99 253.726,540.373 203,534C258.05,519.845 290.872,493.206 312,460C322.661,506.234 368.28,512.17 410,506.961C430.165,504.443 442.539,500.861 450,492.835C459.451,482.669 462.83,472.281 460,462.836C457.006,452.842 446.059,438.904 430,437.406C424.857,436.926 414.286,443.215 396,462C397.412,432.544 388.549,412.123 370,404.156C346.157,393.917 323.725,404.845 310,437C294.473,298.7 347.638,209.211 480,176C411.187,223.334 425.24,277.83 442.892,298.493C458.841,317.161 479.556,317.445 500,280C520.444,317.445 541.159,317.161 557.108,298.493C574.76,277.83 588.813,223.334 520,176C652.362,209.211 705.527,298.7 690,437C676.275,404.845 653.843,393.917 630,404.156C611.451,412.123 602.588,432.544 604,462C585.714,443.215 575.143,436.926 570,437.406C553.941,438.904 542.994,452.842 540,462.836C537.17,472.281 540.549,482.669 550,492.835C557.461,500.861 569.835,504.443 590,506.961C631.72,512.17 677.339,506.234 688,460C709.128,493.206 741.95,519.845 797,534C746.274,540.373 709.931,557.99 692,590C681.013,568.172 665.96,555.128 650,550.75C633.569,546.243 612.17,547.567 601.27,564.657C584.433,591.058 599.703,638.959 670,627L630,667L587,645L612,680L575,704C575.112,672.569 553.994,666.571 540,674.439C519.891,685.745 523.551,701.737 543,717C521.341,742.935 507.492,777.823 500,820ZM499.772,500.595C490.078,525.731 476.404,543.049 460,555C479.412,570.378 492.793,590.341 500,615L500.17,614.423C507.416,590.03 520.74,570.258 540,555C523.467,542.955 509.708,525.459 500,500L499.772,500.595Z" style="fill:white;"/>
    </g>
</svg>
