<?xml version="1.0" encoding="UTF-8" standalone="no"?>
<!DOCTYPE svg PUBLIC "-//W3C//DTD SVG 1.1//EN" "http://www.w3.org/Graphics/SVG/1.1/DTD/svg11.dtd">
<svg width="100%" height="100%" viewBox="0 0 1000 1000" version="1.1" xmlns="http://www.w3.org/2000/svg" xmlns:xlink="http://www.w3.org/1999/xlink" xml:space="preserve" xmlns:serif="http://www.serif.com/" style="fill-rule:evenodd;clip-rule:evenodd;stroke-linejoin:round;stroke-miterlimit:2;">
    <g transform="matrix(2.08973,0,0,2.08973,-789.576,-560.555)">
        <path d="M574.264,354.44L591.18,354.44L591.18,371.941L604.237,371.941L604.237,424.95L507.093,424.95L507.093,450.751L576.793,450.751L576.793,487.674L555.396,487.674L555.396,509.369L532.856,509.369L532.856,534.514L556.808,534.514L556.808,511.558L580.616,511.558L580.616,489.602L602.873,489.602L602.873,449.701L633.203,449.701L633.203,514.683L658.144,514.683L658.144,450.762L727.112,450.762L727.112,425.659L629.968,425.659L629.968,372.651L643.025,372.651L643.025,355.15L659.941,355.15L659.941,337.876L780.252,337.876L780.252,355.15L798.281,355.15L798.281,372.651L814.194,372.651L814.194,408.158L832.441,408.158L832.441,493.344L814.194,493.344L814.194,527.504L797.655,527.504L797.655,545.644L781.364,545.644L781.364,561.604L764.562,561.604L764.562,580.214L728.178,580.214L728.178,573.082L711.375,573.082L711.375,545.644L680.107,545.644L680.107,573.082L705.72,573.082L705.72,596.038L711.375,596.038L711.375,613.522L680.107,613.522L680.107,596.038L599.258,596.038L599.258,616.033L680.107,616.033L680.107,632.232L658.144,632.232L658.144,648.544L642.516,648.544L642.516,665.645L625.504,665.645L625.504,677.85L608.149,677.85L608.149,665.645L592.52,665.645L592.52,648.544L576.235,648.544L576.235,632.232L556.959,632.232L556.959,613.522L526.196,613.522L526.196,578.553L550.004,578.553L550.004,552.654L526.165,552.654L526.165,571.793L500,571.793L500,579.804L469.67,579.804L469.67,561.669L451.182,561.669L451.182,545.644L435.22,545.644L435.22,527.504L419.918,527.504L419.918,492.635L401.763,492.635L401.763,407.449L420.011,407.449L420.011,371.941L435.923,371.941L435.923,354.44L453.953,354.44L453.953,337.167L574.264,337.167L574.264,354.44ZM573.812,552.654L573.812,591.509L592.52,591.509L592.52,552.654L573.812,552.654ZM633.201,527.504L604.424,527.504L604.424,550.126L629.804,550.126L629.804,573.082L658.144,573.082L658.144,545.644L633.201,545.644L633.201,527.504ZM702.07,472.553L680.107,472.553L680.107,494.344L702.07,494.344L702.07,514.683L727.112,514.683L727.112,494.344L702.07,494.344L702.07,472.553ZM507,492.635L507,493.344L532.176,493.344L532.176,472.553L507.093,472.553L507.093,492.635L507,492.635Z" style="fill:white;"/>
    </g>
</svg>
