<?xml version="1.0" encoding="UTF-8" standalone="no"?>
<!DOCTYPE svg PUBLIC "-//W3C//DTD SVG 1.1//EN" "http://www.w3.org/Graphics/SVG/1.1/DTD/svg11.dtd">
<svg width="100%" height="100%" viewBox="0 0 1000 1000" version="1.1" xmlns="http://www.w3.org/2000/svg" xmlns:xlink="http://www.w3.org/1999/xlink" xml:space="preserve" xmlns:serif="http://www.serif.com/" style="fill-rule:evenodd;clip-rule:evenodd;stroke-linejoin:round;stroke-miterlimit:2;">
    <g transform="matrix(5.65976,0,0,5.65976,-1413.52,-2621.85)">
        <path d="M372.183,583.496L380.183,567.096C381.435,564.456 380.125,560.863 378.183,558.096C383.644,555.142 388.41,552.564 392.183,548.096C391.604,554.451 391.512,559.806 391.876,566.163C388.449,566.121 385.66,566.155 384.183,569.096L374.671,588.596L384.183,608.096C385.988,611.126 388.78,611.769 392.183,611.096C391.643,617.947 391.836,624.643 393.183,631.096C388.768,625.495 384.115,621.405 379.183,619.096C380.616,616.036 381.648,613.129 380.183,610.096L372.183,593.696L364.183,610.096C362.719,613.129 363.751,616.036 365.183,619.096C360.252,621.405 355.599,625.495 351.183,631.096C352.531,624.643 352.724,617.947 352.183,611.096C355.587,611.769 358.379,611.126 360.183,608.096L369.696,588.596L360.183,569.096C358.707,566.155 355.918,566.121 352.49,566.163C352.855,559.806 352.763,554.451 352.183,548.096C355.956,552.564 360.723,555.142 366.183,558.096C364.242,560.863 362.932,564.456 364.183,567.096L372.183,583.496ZM304,549.4L312,533C313.251,530.36 311.942,526.767 310,524C315.46,521.046 320.227,518.469 324,514C323.421,520.355 323.328,525.711 323.693,532.067C320.265,532.025 317.477,532.059 316,535L306.488,554.5L316,574C317.805,577.031 320.597,577.673 324,577C323.459,583.851 323.653,590.547 325,597C320.584,591.399 315.932,587.309 311,585C312.432,581.94 313.464,579.033 312,576L304,559.6L296,576C294.536,579.033 295.568,581.94 297,585C292.068,587.309 287.416,591.399 283,597C284.347,590.547 284.541,583.851 284,577C287.403,577.673 290.195,577.031 292,574L301.512,554.5L292,535C290.523,532.059 287.735,532.025 284.307,532.067C284.672,525.711 284.579,520.355 284,514C287.773,518.469 292.54,521.046 298,524C296.058,526.767 294.749,530.36 296,533L304,549.4ZM346.637,507.479L354.637,491.079C355.888,488.438 354.579,484.845 352.637,482.079C358.097,479.124 362.864,476.547 366.637,472.079C366.057,478.433 365.965,483.789 366.33,490.146C362.902,490.103 360.113,490.138 358.637,493.079L349.125,512.579L358.637,532.079C360.441,535.109 363.233,535.752 366.637,535.079C366.096,541.93 366.289,548.626 367.637,555.079C363.221,549.478 358.568,545.388 353.637,543.079C355.069,540.019 356.101,537.112 354.637,534.079L346.637,517.679L338.637,534.079C337.173,537.112 338.204,540.019 339.637,543.079C334.705,545.388 330.052,549.478 325.637,555.079C326.984,548.626 327.177,541.93 326.637,535.079C330.04,535.752 332.832,535.109 334.637,532.079L344.149,512.579L334.637,493.079C333.16,490.138 330.372,490.103 326.944,490.146C327.308,483.789 327.216,478.433 326.637,472.079C330.41,476.547 335.176,479.124 340.637,482.079C338.695,484.845 337.385,488.438 338.637,491.079L346.637,507.479Z" style="fill:white;"/>
    </g>
</svg>
