<?xml version="1.0" encoding="UTF-8" standalone="no"?>
<!DOCTYPE svg PUBLIC "-//W3C//DTD SVG 1.1//EN" "http://www.w3.org/Graphics/SVG/1.1/DTD/svg11.dtd">
<svg width="100%" height="100%" viewBox="0 0 1000 1000" version="1.1" xmlns="http://www.w3.org/2000/svg" xmlns:xlink="http://www.w3.org/1999/xlink" xml:space="preserve" xmlns:serif="http://www.serif.com/" style="fill-rule:evenodd;clip-rule:evenodd;stroke-linejoin:round;stroke-miterlimit:2;">
    <g transform="matrix(3.80473,0,0,3.80473,-1435.24,-1357.33)">
        <path d="M625.235,414.488C622.464,411.426 618.428,409.258 614,407.785C607.607,405.659 600.309,404.155 595,405.144C561.38,411.408 457.94,472.054 408.508,515C399.43,522.887 398.161,535.205 393.253,542.071C388.816,548.277 389.901,554.96 393.739,560C400.256,568.558 411.025,573.699 425,570.571C432.81,568.823 442.023,567.357 450,561.864C469.058,548.742 497.721,529.339 535.578,510C555.536,499.804 569.954,487.021 591,471.397C599.833,464.839 609.08,460.697 615.222,455C618.938,451.553 621.241,444.401 622.8,437C624.681,428.076 629.422,419.115 625.235,414.488ZM459.565,536.977C467.553,536.425 471.157,543.511 460,547C455.086,548.536 447.457,555.012 442,558C437.463,560.484 431.31,558.899 425,557.246C417.817,555.364 410.925,552.74 407,551C402.7,549.093 404.96,543.357 407,541C415.922,530.695 427.902,524.777 441,531C448.022,534.336 453.313,537.41 459.565,536.977ZM455.984,543.763L455.733,543.789C454.433,543.92 453.134,543.985 451.834,544.06C448.783,544.236 445.756,544.305 442.728,544.388C441.612,544.418 440.501,544.445 439.39,544.484C438.648,544.51 437.907,544.54 437.168,544.58C436.463,544.618 435.758,544.665 435.055,544.718C433.996,544.797 432.942,544.887 431.887,544.977C429.228,545.203 426.593,545.446 423.947,545.595C422.044,545.702 420.152,545.821 418.255,545.819L418.088,545.819C417.933,545.81 417.778,545.802 417.623,545.794C413.395,545.585 413.699,545.805 418.088,545.819C418.944,545.866 419.799,545.924 420.656,545.98C424.698,546.241 428.74,546.534 432.832,546.554C434.1,546.56 435.37,546.541 436.641,546.482C437.402,546.448 438.162,546.391 438.921,546.324C440.059,546.222 441.193,546.092 442.33,545.947C445.844,545.498 449.334,544.888 452.862,544.283C453.736,544.134 454.606,543.975 455.485,543.838C455.651,543.812 455.817,543.787 455.984,543.763C459.986,543.347 461.314,543.023 457.99,543.484C457.321,543.577 456.651,543.665 455.984,543.763ZM503,513C511.989,515.196 513.131,515.59 503,521C498.792,523.247 483.302,531.846 477,533C472.224,533.875 467.688,529.699 460,529.111C455.704,528.782 452.231,523.72 450,522C445.663,518.657 438.313,511.082 444.508,508.685C462.106,501.873 472.384,499.273 479.508,500.967C488.238,503.042 497.615,511.685 503,513ZM455.561,515.063C456.516,515.313 457.466,515.569 458.417,515.816C462.759,516.941 467.067,517.957 471.44,518.578C472.819,518.774 474.2,518.931 475.585,519.037C476.418,519.1 477.251,519.138 478.085,519.159C479.337,519.191 480.587,519.183 481.838,519.15C485.723,519.047 489.578,518.681 493.449,518.226C494.41,518.113 495.367,517.985 496.33,517.873L496.888,517.811C501.264,517.495 502.712,517.165 499.074,517.575C498.345,517.657 497.616,517.731 496.888,517.811L496.879,517.812C495.819,517.888 494.76,517.916 493.7,517.94C489.454,518.035 485.243,517.821 481.019,517.538C479.705,517.45 478.394,517.35 477.079,517.262C475.986,517.189 474.893,517.122 473.797,517.058C472.154,516.963 470.513,516.884 468.865,516.762C465.219,516.49 461.571,516.148 457.916,515.518C457.129,515.382 456.344,515.233 455.561,515.063L455.21,514.972C450.823,513.835 450.785,513.991 455.207,514.985C455.325,515.012 455.443,515.038 455.561,515.063ZM541,490C548.537,492.7 549.606,496.789 540,500C535.476,501.512 525.081,502.981 519,505C506.777,509.059 494.667,493.386 488.15,492.111C482.776,491.06 481.918,484.41 488.15,482.111C492.45,480.525 496.553,479.979 500,478.648C509.399,475.017 516.393,475.733 522,478C530.319,481.364 535.353,487.977 541,490ZM496.712,489.109C497.546,489.309 498.374,489.521 499.204,489.729C503.166,490.725 507.077,491.746 511.048,492.499C512.296,492.735 513.546,492.946 514.801,493.118C515.555,493.221 516.311,493.303 517.068,493.373C518.206,493.478 519.343,493.554 520.483,493.614C524.04,493.803 527.576,493.82 531.123,493.839C532.009,493.844 532.892,493.838 533.778,493.855C533.946,493.858 534.113,493.862 534.281,493.867C538.316,494.149 539.669,494.051 536.301,493.937C535.628,493.914 534.955,493.886 534.281,493.867L534.031,493.849C532.733,493.755 531.445,493.594 530.152,493.44C527.142,493.083 524.159,492.615 521.152,492.152C520.054,491.983 518.96,491.809 517.859,491.647C517.128,491.54 516.396,491.436 515.661,491.342C514.963,491.253 514.264,491.171 513.563,491.096C512.513,490.982 511.462,490.88 510.407,490.777C507.774,490.519 505.146,490.28 502.503,489.945C500.626,489.707 498.748,489.484 496.876,489.14L496.712,489.109C496.562,489.073 496.411,489.037 496.26,489.002C492.193,488.049 492.457,488.318 496.712,489.109ZM577.778,460.292C587.252,462.014 588.595,467.522 578,473C573.763,475.191 566.362,481.238 560,482C549.431,483.266 536.509,468.02 528.532,469.21C523.116,470.018 522.226,461.298 528.532,459.21C533.581,457.539 537.698,455.984 541,454.654C549.804,451.105 557.512,450.238 563.532,451.492C572.316,453.322 572.325,459.301 577.778,460.292ZM536.787,465.754C537.624,465.865 538.459,465.988 539.294,466.109C543.269,466.68 547.212,467.282 551.2,467.602C552.448,467.703 553.696,467.776 554.947,467.809C555.697,467.829 556.448,467.827 557.198,467.812C558.325,467.791 559.448,467.739 560.573,467.67C564.071,467.457 567.537,467.064 571.024,466.653C571.891,466.55 572.755,466.437 573.624,466.345C573.789,466.327 573.954,466.31 574.119,466.294C578.085,466.076 579.4,465.803 576.104,466.112C575.442,466.174 574.78,466.23 574.119,466.294L573.871,466.308C572.588,466.374 571.309,466.371 570.026,466.373C567.029,466.38 564.055,466.261 561.066,466.141C559.971,466.098 558.88,466.048 557.785,466.01C557.056,465.984 556.328,465.962 555.599,465.949C554.905,465.937 554.211,465.933 553.517,465.934C552.474,465.936 551.433,465.948 550.39,465.96C547.775,465.987 545.173,466.029 542.553,465.976C540.684,465.937 538.819,465.912 536.95,465.767L536.787,465.754C536.636,465.733 536.484,465.714 536.332,465.694C532.231,465.172 532.514,465.412 536.787,465.754ZM611.778,433.292C619.785,433.238 621.545,439.252 612,446C608.105,448.754 601.362,454.942 595,455.704C584.431,456.97 570.977,443.81 563,445C557.584,445.808 557.388,438.554 563,435C576.239,426.617 589.069,424.937 598,427.282C606.679,429.561 606.235,433.33 611.778,433.292ZM606.79,438.147L606.788,438.147C605.904,438.271 604.995,438.359 604.062,438.452C600.631,438.793 596.928,438.992 593.126,439.27C591.994,439.353 590.858,439.439 589.719,439.552C588.776,439.644 587.833,439.756 586.893,439.877C585.948,439.997 585.009,440.137 584.072,440.272C580.428,440.799 576.873,441.348 573.505,441.637C572.704,441.705 571.918,441.762 571.144,441.794C571.98,441.801 572.832,441.819 573.702,441.833C577.334,441.89 581.213,441.967 585.166,441.783C586.355,441.727 587.548,441.649 588.738,441.533C589.451,441.464 590.162,441.375 590.87,441.275C591.94,441.125 592.999,440.949 594.052,440.761C597.477,440.152 600.775,439.415 603.873,438.753C604.706,438.575 605.519,438.392 606.32,438.236C606.477,438.205 606.634,438.175 606.79,438.147C611.424,437.496 612.462,437.144 608.662,437.816C608.052,437.924 607.426,438.029 606.79,438.147ZM571.144,441.794L570.845,441.791C566.13,441.764 566.133,441.96 570.845,441.805L571.144,441.794Z" style="fill:white;"/>
    </g>
</svg>
