<?xml version="1.0" encoding="UTF-8" standalone="no"?>
<!DOCTYPE svg PUBLIC "-//W3C//DTD SVG 1.1//EN" "http://www.w3.org/Graphics/SVG/1.1/DTD/svg11.dtd">
<svg width="100%" height="100%" viewBox="0 0 1000 1000" version="1.1" xmlns="http://www.w3.org/2000/svg" xmlns:xlink="http://www.w3.org/1999/xlink" xml:space="preserve" xmlns:serif="http://www.serif.com/" style="fill-rule:evenodd;clip-rule:evenodd;stroke-linejoin:round;stroke-miterlimit:2;">
    <g transform="matrix(1.00522,0,0,1.00522,-2.10731,-4.17417)">
        <path d="M834.082,538.418C834.082,546.866 827.223,553.724 818.776,553.724L641.224,553.724C632.777,553.724 625.918,546.866 625.918,538.418C625.918,529.971 632.777,523.112 641.224,523.112L818.776,523.112C827.223,523.112 834.082,529.971 834.082,538.418ZM374.082,538.418C374.082,546.866 367.223,553.724 358.776,553.724L181.224,553.724C172.777,553.724 165.918,546.866 165.918,538.418C165.918,529.971 172.777,523.112 181.224,523.112L358.776,523.112C367.223,523.112 374.082,529.971 374.082,538.418ZM604.082,538.418C604.082,546.866 597.223,553.724 588.776,553.724L411.224,553.724C402.777,553.724 395.918,546.866 395.918,538.418C395.918,529.971 402.777,523.112 411.224,523.112L588.776,523.112C597.223,523.112 604.082,529.971 604.082,538.418ZM280,501.556L280,501.531C280,493.083 286.858,486.224 295.306,486.224L475.51,486.224C483.958,486.224 490.816,493.083 490.816,501.531L490.816,501.556L490.816,501.582C490.816,510.029 483.958,516.888 475.51,516.888L295.306,516.888C286.858,516.888 280,510.029 280,501.582L280,501.556ZM739,501.556L739,501.531C739,493.083 745.858,486.224 754.306,486.224L931.857,486.224C940.305,486.224 947.163,493.083 947.163,501.531L947.163,501.556L947.163,501.582C947.163,510.029 940.305,516.888 931.857,516.888L754.306,516.888C745.858,516.888 739,510.029 739,501.582L739,501.556ZM510.837,501.556L510.837,501.531C510.837,493.083 517.695,486.224 526.143,486.224L703.694,486.224C712.142,486.224 719,493.083 719,501.531L719,501.556L719,501.582C719,510.029 712.142,516.888 703.694,516.888L526.143,516.888C517.695,516.888 510.837,510.029 510.837,501.582L510.837,501.556ZM51.837,501.556L51.837,501.531C51.837,493.083 58.695,486.224 67.143,486.224L244.694,486.224C253.142,486.224 260,493.083 260,501.531L260,501.556L260,501.582C260,510.029 253.142,516.888 244.694,516.888L67.143,516.888C58.695,516.888 51.837,510.029 51.837,501.582L51.837,501.556ZM374.082,464.694C374.082,456.246 367.223,449.388 358.776,449.388L181.224,449.388C172.777,449.388 165.918,456.246 165.918,464.694C165.918,473.142 172.777,480 181.224,480L358.776,480C367.223,480 374.082,473.142 374.082,464.694ZM604.082,464.694C604.082,456.246 597.223,449.388 588.776,449.388L411.224,449.388C402.777,449.388 395.918,456.246 395.918,464.694C395.918,473.142 402.777,480 411.224,480L588.776,480C597.223,480 604.082,473.142 604.082,464.694ZM834.082,464.694C834.082,456.246 827.223,449.388 818.776,449.388L641.224,449.388C632.777,449.388 625.918,456.246 625.918,464.694C625.918,473.142 632.777,480 641.224,480L818.776,480C827.223,480 834.082,473.142 834.082,464.694Z" style="fill:white;"/>
    </g>
</svg>
