<?xml version="1.0" encoding="UTF-8" standalone="no"?>
<!DOCTYPE svg PUBLIC "-//W3C//DTD SVG 1.1//EN" "http://www.w3.org/Graphics/SVG/1.1/DTD/svg11.dtd">
<svg width="100%" height="100%" viewBox="0 0 1000 1000" version="1.1" xmlns="http://www.w3.org/2000/svg" xmlns:xlink="http://www.w3.org/1999/xlink" xml:space="preserve" xmlns:serif="http://www.serif.com/" style="fill-rule:evenodd;clip-rule:evenodd;stroke-linejoin:round;stroke-miterlimit:2;">
    <g transform="matrix(1.22092,0,0,1.36609,-146.893,-116.125)">
        <path d="M687.641,226.99C647.074,233.82 613.54,235.65 594.767,226.99C559.159,217.352 527.141,216.323 500,226.99C467.553,257.267 441.159,323.73 416.81,402.411C393.346,403.507 369.84,404.668 337.49,419.11C247.004,407.971 200.54,427.897 161.266,452.897C163.081,475.646 191.853,536.283 263.83,600.029C310.415,641.287 361.781,676.591 421.156,680.813C517.444,687.661 592.138,675.34 694.058,644.775C742.868,630.138 793.52,608.826 845.163,571.419C867.803,555.02 886.347,534.856 898.415,507.642C897.767,495.712 808.927,471.191 736.497,460.767C707.456,446.369 670.35,431.775 626.611,421.567L593.276,297.682L687.641,226.99ZM502.173,496.764C462.627,495.026 433.048,484.31 414.057,462.34L417.247,402.256C403.077,436.122 395.566,466.308 391.658,494.503C413.482,524.128 452.938,541.852 503.277,545.553C503.973,547.434 504.781,548.864 505.7,549.696C510.458,554.001 522.57,551.972 533.683,545.576C538.073,545.165 542.49,544.563 546.93,543.773C544.238,556.647 543.114,569.689 543.586,582.901C545.1,578.49 547.44,574.096 553.762,569.782C556.115,571.699 563.331,575.338 565.807,579.087C560.777,568.704 559.185,555.826 560.596,540.77C562.999,540.144 565.41,539.464 567.831,538.729C576.353,549.101 578.886,556.212 579.003,562.007C579.612,557.739 580.66,553.56 583.506,549.748C589.45,549.03 593.816,552.816 599.296,556.737C596.689,550.35 593.463,543.659 583.069,533.456C585.986,532.323 588.914,531.117 591.852,529.838C601.612,531.062 610.64,530.177 611.367,523.946C611.471,523.054 611.387,521.881 611.142,520.483C622.134,514.619 633.282,507.781 644.587,500C644.069,474.009 638.34,447.947 627.461,421.813L629.048,456.705C618.622,466.609 606.903,474.622 593.982,480.816C589.261,472.786 584.687,466.647 581.889,465.722C576.413,463.913 570.193,477.391 566.467,490.829C554.85,493.872 542.498,495.775 529.465,496.575C519.465,490.35 509.514,486.232 505.316,489.991C504.038,491.135 502.989,493.543 502.173,496.764Z" style="fill:white;"/>
    </g>
</svg>
