<?xml version="1.0" encoding="UTF-8" standalone="no"?>
<!DOCTYPE svg PUBLIC "-//W3C//DTD SVG 1.1//EN" "http://www.w3.org/Graphics/SVG/1.1/DTD/svg11.dtd">
<svg width="100%" height="100%" viewBox="0 0 1000 1000" version="1.1" xmlns="http://www.w3.org/2000/svg" xmlns:xlink="http://www.w3.org/1999/xlink" xml:space="preserve" xmlns:serif="http://www.serif.com/" style="fill-rule:evenodd;clip-rule:evenodd;stroke-linejoin:round;stroke-miterlimit:2;">
    <g transform="matrix(15.1261,0,0,15.1261,-7063.03,-4465.13)">
        <path d="M500,358C505.288,356.289 510.464,353.999 515.5,351C512.966,350.746 510.297,351.258 507.5,352.5C514.024,348.965 519.734,345.226 523.5,341C519.333,342.275 514.667,344.763 510.5,347.5C516.455,343.021 521.763,338.172 525,334C521.982,335.231 519.09,336.76 516.5,339C521.308,334.088 524.139,329.07 526,324C522.442,327.028 519.229,330.554 517,335.5C517.913,333.074 518.682,330.712 518,329C515.694,332.457 513.785,339.577 512.5,344.5C512.642,342.505 513.79,338.002 513.5,336.5C511.359,340.866 508.819,346.446 507,351.5C507.493,349.365 508.371,346.327 508.5,344.5C505.394,348.17 502.707,352.915 500,358ZM500,358C494.712,356.289 489.536,353.999 484.5,351C487.034,350.746 489.703,351.258 492.5,352.5C485.976,348.965 480.266,345.226 476.5,341C480.667,342.275 485.333,344.763 489.5,347.5C483.545,343.021 478.237,338.172 475,334C478.018,335.231 480.91,336.76 483.5,339C478.692,334.088 475.861,329.07 474,324C477.558,327.028 480.771,330.554 483,335.5C482.087,333.074 481.318,330.712 482,329C484.306,332.457 486.215,339.577 487.5,344.5C487.358,342.505 486.21,338.002 486.5,336.5C488.641,340.866 491.181,346.446 493,351.5C492.507,349.365 491.629,346.327 491.5,344.5C494.606,348.17 497.293,352.915 500,358ZM499.972,345.499C495.237,345.306 484.004,332.252 481,323.5C483.437,324.797 486.083,325.672 489,326L486.5,327C494.852,339.565 497.77,334.424 497.5,317C497.5,317 494.277,317.228 491.47,317.49C490.779,318.691 489.483,319.5 488,319.5C485.792,319.5 484,317.708 484,315.5C484,313.292 485.792,311.5 488,311.5C489.714,311.5 491.178,312.581 491.747,314.097C494.542,314.355 497.5,314.5 497.5,314.5L497.5,311.001C495.152,310.021 493.5,307.702 493.5,305C493.5,301.413 496.413,298.5 500,298.5C503.587,298.5 506.5,301.413 506.5,305C506.5,307.702 504.848,310.021 502.5,311.001L502.5,314.5C502.5,314.5 505.458,314.355 508.253,314.097C508.822,312.581 510.286,311.5 512,311.5C514.208,311.5 516,313.292 516,315.5C516,317.708 514.208,319.5 512,319.5C510.517,319.5 509.221,318.691 508.53,317.49C505.723,317.228 502.5,317 502.5,317C502.23,334.424 505.148,339.565 513.5,327L511,326C513.917,325.672 516.563,324.797 519,323.5C515.99,332.27 504.717,345.359 500,345.5L499.972,345.499ZM500,301.75C501.794,301.75 503.25,303.206 503.25,305C503.25,306.794 501.794,308.25 500,308.25C498.206,308.25 496.75,306.794 496.75,305C496.75,303.206 498.206,301.75 500,301.75Z" style="fill:white;"/>
    </g>
</svg>
