<?xml version="1.0" encoding="UTF-8" standalone="no"?>
<!DOCTYPE svg PUBLIC "-//W3C//DTD SVG 1.1//EN" "http://www.w3.org/Graphics/SVG/1.1/DTD/svg11.dtd">
<svg width="100%" height="100%" viewBox="0 0 1000 1000" version="1.1" xmlns="http://www.w3.org/2000/svg" xmlns:xlink="http://www.w3.org/1999/xlink" xml:space="preserve" xmlns:serif="http://www.serif.com/" style="fill-rule:evenodd;clip-rule:evenodd;stroke-linejoin:round;stroke-miterlimit:2;">
    <g transform="matrix(3.7037,0,0,3.7037,-861.111,-467.593)">
        <path d="M476,315.5C472.787,325.012 465.581,335.277 448.5,350.5C452.268,358.966 456.416,365.267 460.5,370.5C476.572,362.4 487.193,350.236 489,331.5C488.148,329.359 486.933,327.702 485,327C482.043,322.535 479.954,318.231 476,315.5ZM259,315.5C262.213,325.012 269.419,335.277 286.5,350.5C282.732,358.966 278.584,365.267 274.5,370.5C258.428,362.4 247.807,350.236 246,331.5C246.852,329.359 248.067,327.702 250,327C252.957,322.535 255.046,318.231 259,315.5ZM456,293C453.511,303.275 446.029,314.126 434,325.5C438.134,332.302 442.358,340.144 448,347C458.894,338.235 469.028,327.719 473,316C471.204,313.727 469.56,311.135 466.5,311.5L456,293ZM279,293C281.489,303.275 288.971,314.126 301,325.5C296.866,332.302 292.642,340.144 287,347C276.106,338.235 265.972,327.719 262,316C263.796,313.727 265.44,311.135 268.5,311.5L279,293ZM366.563,319.336C346.897,305.428 327.597,294.201 311.997,310C309.366,314.193 306.307,318.216 302.448,321.923C292.806,314.49 285.588,305.235 281,294C284.462,289.257 287.407,287.952 290,289C292.776,280.061 296.743,271.932 301,264C303.4,250.885 304.262,235.584 305.204,222C305.824,213.045 312.31,205.977 319.967,201C337.93,189.323 352.79,172.187 367.5,152L368.19,152.944C382.674,172.72 397.35,189.505 415.033,201C422.69,205.977 429.176,213.045 429.796,222C430.738,235.584 431.6,250.885 434,264C438.257,271.932 442.224,280.061 445,289C447.593,287.952 450.538,289.257 454,294C449.412,305.235 442.194,314.49 432.552,321.923C428.693,318.216 425.634,314.193 423.003,310C407.156,293.951 387.49,305.791 367.5,320L366.563,319.336ZM382.342,266.679C388.4,262.24 390.145,258.578 389.914,255.324C392.156,256.109 394.43,256.78 395.93,257.504C399.507,259.229 399.026,266.836 388.037,274.82L387.908,274.913C376.99,282.79 369.662,280.896 369.129,276.975C368.904,275.325 368.968,272.956 368.915,270.581C371.962,271.816 376.023,271.27 382.198,266.784L382.342,266.679ZM352.95,266.883C359.044,271.274 363.065,271.801 366.089,270.576C366.035,272.951 366.099,275.321 365.875,276.971C365.339,280.906 357.956,282.8 346.966,274.816L346.838,274.722C335.973,266.772 335.51,259.218 339.074,257.499C340.574,256.775 342.847,256.104 345.09,255.319C344.857,258.599 346.631,262.293 352.805,266.779L352.95,266.883ZM380.793,264.635C381.855,263.854 383.086,262.802 383.946,261.829C386.58,258.848 387.943,256.196 387.068,256.313C385.215,256.562 384.385,255.883 384.779,254.526C385.133,253.304 386.893,253.127 387.835,254.37C389.754,256.905 386.512,261.867 381.35,265.617L381.229,265.704C376.1,269.391 370.454,270.897 368.65,268.309C367.758,267.029 368.471,265.41 369.742,265.451C371.155,265.495 371.545,266.495 370.735,268.18C370.353,268.976 373.296,268.499 376.946,266.915C378.175,266.381 379.607,265.497 380.691,264.71L380.793,264.635ZM354.415,264.779C355.486,265.547 356.867,266.393 358.058,266.91C361.707,268.494 364.65,268.971 364.268,268.175C363.459,266.49 363.848,265.491 365.261,265.446C366.532,265.405 367.245,267.024 366.353,268.304C364.536,270.912 358.815,269.362 353.653,265.612L353.532,265.524C348.441,261.785 345.265,256.88 347.169,254.365C348.11,253.122 349.87,253.299 350.224,254.521C350.618,255.879 349.788,256.558 347.935,256.309C347.06,256.191 348.423,258.843 351.058,261.824C351.945,262.828 353.228,263.917 354.312,264.705L354.415,264.779ZM371.057,249.916C371.39,249.56 371.659,249.161 371.863,248.734L380.46,252.311C380.537,252.339 380.746,252.433 380.746,252.433C381.187,252.649 381.584,252.973 381.893,253.399C382.903,254.788 382.594,256.736 381.205,257.746C380.736,258.086 380.205,258.277 379.668,258.327C380.005,258.534 380.308,258.809 380.555,259.149C381.565,260.539 381.256,262.487 379.867,263.497L379.792,263.551C378.402,264.56 376.454,264.252 375.445,262.862C375.198,262.522 375.029,262.149 374.937,261.764C374.723,262.26 374.378,262.706 373.91,263.046C372.52,264.056 370.572,263.747 369.562,262.358C369.253,261.932 369.068,261.455 368.999,260.968C368.999,260.968 368.974,260.74 368.971,260.659L368.225,251.377C368.694,251.315 369.157,251.182 369.599,250.976L372.545,255.031C372.87,255.478 373.461,255.604 373.863,255.312C374.266,255.019 374.329,254.419 374.004,253.972L371.057,249.916ZM365.405,250.971C365.846,251.178 366.309,251.31 366.778,251.372L366.033,260.654C366.029,260.736 366.005,260.963 366.005,260.963C365.936,261.45 365.75,261.928 365.441,262.353C364.431,263.743 362.483,264.051 361.094,263.041C360.626,262.701 360.28,262.255 360.066,261.759C359.974,262.144 359.806,262.517 359.559,262.857C358.549,264.247 356.601,264.556 355.211,263.546L355.137,263.492C353.747,262.482 353.438,260.534 354.448,259.144C354.695,258.804 354.998,258.529 355.336,258.322C354.798,258.272 354.267,258.081 353.799,257.741C352.409,256.732 352.101,254.784 353.11,253.394C353.419,252.969 353.816,252.645 354.258,252.429C354.258,252.429 354.467,252.335 354.543,252.307L363.14,248.729C363.344,249.156 363.613,249.555 363.946,249.912L361,253.967C360.675,254.414 360.738,255.015 361.14,255.307C361.543,255.599 362.133,255.474 362.458,255.027L365.405,250.971ZM332.5,245.638C332.494,242.942 333.008,239.643 334.27,235.757L334.32,235.606C338.523,222.816 345.565,220.041 348.301,222.899C349.452,224.102 350.793,226.057 352.233,227.947L352.225,227.949L352.233,227.959C349.041,228.751 346.077,231.579 343.718,238.838L343.664,239.008C342.68,242.078 342.255,244.564 342.256,246.6C342.26,249.302 343.015,251.21 344.212,252.633L344.204,252.635L344.212,252.645C341.936,253.328 339.702,254.121 338.064,254.417C335.329,254.912 332.51,251.91 332.5,245.638ZM391.226,238.669C388.877,231.535 385.934,228.745 382.767,227.959C384.207,226.068 385.548,224.114 386.699,222.911C389.446,220.042 396.532,222.85 400.729,235.768L400.778,235.92C404.895,248.737 400.829,255.121 396.936,254.417C395.298,254.121 393.064,253.328 390.788,252.645C392.904,250.128 393.64,246.097 391.282,238.838L391.226,238.669ZM343.84,246.399C343.844,244.279 344.272,241.788 345.09,239.272L345.136,239.13C347.119,233.133 350.802,228.596 353.782,229.63C354.692,229.945 355.183,230.725 355.178,231.444C355.178,231.893 354.984,232.32 354.578,232.596C353.409,233.39 352.507,232.81 352.171,230.971C352.012,230.102 349.912,232.218 347.89,235.645C347.209,236.799 346.57,238.356 346.156,239.63L346.118,239.751C345.718,241.007 345.34,242.582 345.217,243.874C345.122,244.863 345.079,245.788 345.079,246.611C345.078,249.077 345.454,250.616 345.932,250.16C347.285,248.869 348.356,248.931 348.835,250.26C348.893,250.42 348.919,250.58 348.918,250.735C348.92,251.748 347.752,252.588 346.454,252.194C344.671,251.653 343.832,249.396 343.84,246.399ZM388.804,239.51C388.39,238.259 387.769,236.763 387.11,235.645C385.088,232.218 382.988,230.102 382.829,230.971C382.493,232.81 381.591,233.39 380.421,232.596C379.369,231.881 379.744,230.152 381.218,229.641C384.221,228.599 387.939,233.216 389.91,239.284L389.956,239.426C391.877,245.444 391.564,251.279 388.546,252.194C387.053,252.647 385.734,251.469 386.165,250.272C386.644,248.942 387.715,248.881 389.068,250.171C389.706,250.781 390.162,247.834 389.783,243.874C389.656,242.54 389.258,240.905 388.844,239.63L388.804,239.51ZM352.468,237.963C352.465,237.637 352.514,237.305 352.62,236.978C353.151,235.345 354.909,234.449 356.542,234.98C357.042,235.143 357.473,235.42 357.815,235.773C357.815,235.773 357.969,235.943 358.019,236.007L364.078,243.078L364.073,243.083L364.078,243.09C363.735,243.415 363.439,243.795 363.203,244.221L358.435,242.672C357.909,242.502 357.358,242.747 357.204,243.22C357.178,243.301 357.165,243.383 357.164,243.464C357.165,243.857 357.446,244.235 357.878,244.375L362.646,245.924L362.644,245.935L362.646,245.936C362.622,246.129 362.61,246.323 362.61,246.514C362.611,246.798 362.638,247.079 362.689,247.354L362.686,247.355L362.689,247.366L353.631,249.525C353.552,249.547 353.328,249.594 353.328,249.594C352.844,249.679 352.332,249.65 351.832,249.488C350.516,249.06 349.679,247.836 349.681,246.521C349.68,246.201 349.73,245.875 349.834,245.554C350.011,245.01 350.323,244.548 350.722,244.194C350.332,244.222 349.93,244.177 349.535,244.049C348.218,243.621 347.381,242.397 347.383,241.083C347.383,240.762 347.432,240.436 347.536,240.115L347.565,240.028C348.096,238.394 349.853,237.499 351.487,238.03C351.885,238.159 352.24,238.361 352.54,238.617C352.493,238.404 352.468,238.185 352.468,237.963ZM371.797,244.221C371.561,243.795 371.265,243.415 370.922,243.09L376.981,236.018C377.031,235.955 377.185,235.785 377.185,235.785C377.527,235.432 377.958,235.154 378.458,234.992C380.091,234.461 381.849,235.356 382.38,236.99C382.558,237.54 382.575,238.105 382.457,238.631C382.758,238.375 383.113,238.171 383.513,238.041C385.147,237.51 386.904,238.406 387.435,240.04L387.464,240.127C387.994,241.761 387.099,243.518 385.465,244.049C385.066,244.179 384.658,244.224 384.264,244.193C384.669,244.549 384.987,245.016 385.166,245.566C385.697,247.2 384.801,248.957 383.168,249.488C382.668,249.65 382.156,249.679 381.672,249.594C381.672,249.594 381.448,249.547 381.369,249.525L372.311,247.366C372.397,246.901 372.414,246.419 372.354,245.936L377.122,244.387C377.648,244.216 377.949,243.693 377.796,243.22C377.642,242.747 377.09,242.502 376.565,242.672L371.797,244.221ZM364.525,246.541C364.526,246.24 364.573,245.935 364.671,245.634C365.177,244.079 366.85,243.226 368.406,243.731C368.666,243.816 368.907,243.933 369.125,244.077C369.675,244.434 370.111,244.975 370.329,245.646C370.835,247.202 369.982,248.876 368.426,249.381C368.118,249.481 367.806,249.528 367.499,249.527C367.192,249.528 366.881,249.481 366.574,249.381C365.315,248.972 364.516,247.798 364.525,246.541ZM366.599,241.76C366.12,241.852 365.667,242.017 365.252,242.243L360.399,234.295C360.354,234.227 360.24,234.029 360.24,234.029C360.01,233.594 359.879,233.099 359.879,232.573C359.879,230.856 361.274,229.461 362.992,229.461C363.57,229.461 364.112,229.619 364.576,229.895C364.425,229.529 364.342,229.128 364.342,228.708C364.342,226.99 365.736,225.595 367.454,225.595L367.546,225.595C369.264,225.595 370.658,226.99 370.658,228.708C370.658,229.128 370.575,229.529 370.424,229.895C370.888,229.619 371.43,229.461 372.008,229.461C373.726,229.461 375.121,230.856 375.121,232.573C375.121,233.099 374.99,233.594 374.76,234.029C374.76,234.029 374.646,234.227 374.601,234.295L369.748,242.243C369.333,242.017 368.88,241.852 368.401,241.76L368.401,236.747C368.401,236.194 367.997,235.746 367.5,235.746C367.003,235.746 366.599,236.194 366.599,236.747L366.599,241.76ZM367.373,224.13C366.056,224.137 364.441,224.265 363.174,224.547C359.29,225.41 356.629,226.754 357.406,227.173C359.051,228.061 359.323,229.098 358.207,229.965C357.202,230.745 355.674,229.854 355.643,228.295C355.581,225.116 361.12,223.008 367.5,223.008L367.649,223.008C373.966,223.041 379.419,225.141 379.357,228.295C379.326,229.854 377.798,230.745 376.793,229.965C375.677,229.098 375.949,228.061 377.594,227.173C378.371,226.754 375.71,225.41 371.826,224.547C370.518,224.256 368.84,224.129 367.5,224.129L367.373,224.13ZM367.322,221.566C359.811,221.596 356.248,223.533 354.522,226.301C353.169,224.348 351.724,222.469 350.936,221.002C349.056,217.503 353.916,211.632 367.5,211.632L367.659,211.632C381.121,211.677 385.937,217.517 384.064,221.002C383.276,222.469 381.831,224.348 380.478,226.301C378.739,223.511 375.133,221.566 367.5,221.566L367.322,221.566Z" style="fill:white;"/>
    </g>
</svg>
