<?xml version="1.0" encoding="UTF-8" standalone="no"?>
<!DOCTYPE svg PUBLIC "-//W3C//DTD SVG 1.1//EN" "http://www.w3.org/Graphics/SVG/1.1/DTD/svg11.dtd">
<svg width="100%" height="100%" viewBox="0 0 1000 1000" version="1.1" xmlns="http://www.w3.org/2000/svg" xmlns:xlink="http://www.w3.org/1999/xlink" xml:space="preserve" xmlns:serif="http://www.serif.com/" style="fill-rule:evenodd;clip-rule:evenodd;stroke-linejoin:round;stroke-miterlimit:2;">
    <g transform="matrix(1.35226,0,0,1.35226,-122.46,-194.907)">
        <path d="M573.466,607.589C571.582,606.422 569.603,605.199 567.528,603.918L567.357,603.813L566.772,603.452L573.513,607.618C616.442,634.217 611.44,632.721 602.263,638.116C592.232,644.013 559.011,633.227 544.709,613.107C557.716,636.211 579.462,641.154 566.239,647.441C556.741,651.956 549.326,648.726 529.684,633.46C542.02,643.614 547.525,651.38 550.602,653.219C560.061,658.87 528.381,670.107 516.774,640.831C524.138,670.097 509.686,671.484 498.824,650.771C491.986,665.663 483.681,672.748 469.722,649.727C469.061,667.576 462.786,671.239 445.994,648.326C444.217,666.553 433.849,663.714 417.601,646.461C419.202,662.202 411.994,673.717 399.134,682.519C418.631,722.902 436.805,761.484 434.686,783.445C433.368,797.111 413.297,803.084 411.72,799.115L406.155,774.174C404.968,779.847 408.225,796.928 408.225,796.928C412.096,805.855 387.409,816.265 385.876,810.696C385.876,810.696 381.608,789.705 379.288,775.96L382.714,810.72C383.024,819.209 348.152,821.079 349.214,813.504L353.967,772.989L346.361,812.577C345.715,815.763 320.743,813.651 324.033,803.132L333.555,771.089L322.424,802.609C318.936,813.123 297.425,800.253 298.808,797.126L315.924,760.629L295.955,796.199C292.362,802.952 265.249,780.941 270.49,774.256L293.693,748.148C283.737,757.904 267.945,772.378 267.945,772.378C263.432,775.982 249.578,753.05 257.958,748.103C257.958,748.103 270.632,736.199 273.007,730.912L253.845,747.818C250.236,750.102 237.509,733.472 244.475,721.642C255.669,702.63 293.05,682.098 332.56,660.888C327.33,646.208 328.266,632.656 338.814,620.861C315.529,625.269 305.472,621.471 314.748,605.682C287.695,614.348 284.771,607.696 294.728,592.868C269.903,603.287 267.349,592.674 270.57,576.607C249.608,586.979 238.731,577.362 261.891,558.015C235.293,574.877 216.268,547.165 227.243,548.153C230.813,548.474 239.831,545.426 255.779,544.463C230.915,545.268 223.018,543.523 217.988,534.287C210.985,521.429 231.484,530.211 255.587,519.166C232.19,527.037 198.974,516.236 194.325,505.569C190.071,495.81 185.145,494.081 235.508,497.794L243.413,498.386L241.254,498.223L239.489,498.091L237.709,497.958L236.956,497.902L236.806,497.89L235.565,497.798L235.502,497.794L235.565,497.798C235.979,497.829 236.392,497.86 236.806,497.89L237.527,497.944L237.709,497.958C238.708,498.032 239.706,498.107 240.705,498.182L241.254,498.223L241.451,498.238L243.413,498.386C240.657,498.177 238.042,497.981 235.565,497.798L235.502,497.794C180.913,493.381 175.025,485.745 184.358,479.616C202.895,467.443 227.614,476.537 256.463,467.929C184.346,480.789 141.457,437.08 160.357,441.959C163.834,442.857 177.774,451.267 199.794,448.298C208.944,447.064 229.915,449.013 255.626,450.091C248.513,446.372 197.551,443.153 198.092,443.705C187.13,454.478 125.534,399.986 134.948,388.09C135.655,387.198 143.416,400.61 168.517,405.284C183.453,408.066 200.737,418.102 220.797,435.311C223.734,425.862 182.673,399.624 160.737,396.87C160.737,396.87 122.164,354.739 128.17,348.435C131.99,344.426 119.98,364.506 182.032,383.107C201.467,388.934 216.329,400.649 233.611,415.291C220.308,395.159 172.684,369.136 168.1,370.971C168.1,370.971 148.118,344.614 146.948,327.199C145.017,298.466 132.094,302.897 138.983,302.018C149.224,300.711 169.717,330.501 211.802,379.629L211.876,379.725L212.176,380.066L212.344,380.262L212.559,380.512L212.922,380.936L213.117,381.162L213.559,381.677L213.676,381.813L214.242,382.471L214.364,382.612L214.807,383.127L214.996,383.347L215.379,383.79L215.584,384.029L215.959,384.463L216.163,384.698L216.561,385.159L216.739,385.365L217.249,385.955L217.314,386.03L217.903,386.709L218.03,386.856L218.485,387.38L218.675,387.599L219.073,388.058L219.279,388.295L219.672,388.747L219.875,388.979L220.296,389.464L220.467,389.66L221.06,390.339L221.665,391.033L221.811,391.2L222.264,391.718L222.464,391.947L222.869,392.41L223.084,392.655L223.486,393.113L223.695,393.352L224.13,393.848L224.304,394.046L224.915,394.741L225.53,395.441L225.709,395.643L226.144,396.138L226.368,396.391L226.764,396.84L227.001,397.108L227.395,397.554L227.628,397.817L227.782,397.992L227.809,398.022L227.87,398.091L228.05,398.295L228.253,398.524L228.327,398.608L228.353,398.637L228.587,398.901L228.871,399.222L229.442,399.866L229.457,399.882L229.493,399.923L229.779,400.245L230.092,400.597L231.426,402.092L232.572,403.379L232.645,403.46L232.872,403.714L233.127,404L233.185,404.064L234.354,405.366L235.879,407.067L235.956,407.153L236.37,407.611L236.584,407.849L236.649,407.921L237.118,408.441L237.983,409.399L238.128,409.559L239.269,410.82L238.555,410.032L238.128,409.559L238.021,409.442L237.983,409.399C237.538,408.907 237.094,408.416 236.649,407.921L236.608,407.877L236.584,407.849L236.431,407.68L235.956,407.153L235.904,407.095L235.879,407.067C234.975,406.062 234.079,405.063 233.185,404.064L233.155,404.031L233.127,404L232.952,403.805L232.645,403.46L232.609,403.42L232.572,403.379C231.737,402.445 230.91,401.516 230.092,400.597L230.069,400.571L229.779,400.245L229.551,399.987L229.493,399.923L229.442,399.866L228.966,399.329L228.871,399.222C228.664,398.988 228.458,398.755 228.253,398.524L228.211,398.477L228.05,398.295L227.73,397.933L227.628,397.817L227.546,397.725L227.395,397.554L227.163,397.292L227.001,397.108L226.884,396.975L226.764,396.84L226.599,396.653L226.368,396.391L226.224,396.228L226.144,396.138L226.037,396.015L225.709,395.643L225.568,395.484L225.53,395.441C225.12,394.974 224.711,394.509 224.304,394.046L224.265,394.001L224.13,393.848L223.81,393.483L223.695,393.352L223.617,393.264L223.486,393.113L223.258,392.854L223.084,392.655L222.973,392.529L222.869,392.41L222.709,392.227L222.464,391.947L222.332,391.796L222.264,391.718L222.162,391.602L221.811,391.2L221.693,391.066L221.665,391.033C221.463,390.802 221.261,390.57 221.06,390.339L220.534,389.737L220.467,389.66L220.425,389.612L220.296,389.464L219.996,389.119L219.875,388.979L219.796,388.889L219.672,388.747L219.459,388.502L219.279,388.295L219.169,388.168L219.073,388.058L218.925,387.888L218.675,387.599L218.545,387.45L218.485,387.38L218.393,387.275L218.03,386.856L217.925,386.735L217.903,386.709C217.706,386.482 217.51,386.256 217.314,386.03L216.81,385.447L216.739,385.365L216.692,385.311L216.561,385.159L216.286,384.841L216.163,384.698L216.079,384.602L215.959,384.463L215.765,384.238L215.584,384.029L215.47,383.896L215.379,383.79L215.245,383.636L214.996,383.347L214.864,383.193L214.807,383.127L214.728,383.035L214.364,382.612L214.26,382.492L214.242,382.471C214.052,382.251 213.864,382.032 213.676,381.813L213.66,381.794L213.559,381.677L213.189,381.246L213.117,381.162L213.062,381.098L212.922,380.936L212.68,380.653L212.559,380.512L212.467,380.405L212.344,380.262L212.173,380.062L211.876,379.725L211.905,379.763L212.192,380.133L212.274,380.239L212.562,380.611L212.688,380.773L212.847,380.976C215.817,384.786 218.865,388.535 221.997,392.213L222.078,392.308L222.232,392.489C223.717,394.229 225.222,395.953 226.745,397.659L226.794,397.714L226.992,397.935L228.344,399.434L231.16,402.492L232.024,403.407L234.2,405.693L235.325,406.854L236.639,408.193L238.05,409.613L238.143,409.706L239.269,410.82L212.176,380.066L211.875,379.714C211.875,379.714 211.802,379.629 211.802,379.629C200.183,364.57 189.938,348.777 181.289,333.615C155.045,287.609 139.561,249.171 144.054,254.05C149.977,260.483 182.692,348.425 241.669,393.725C210.936,361.256 186.503,326.04 185.357,288.736C183.835,239.202 172.352,206.578 173.656,209.717C177.679,219.402 215.148,339.727 244.688,374.728C239.457,363.465 230.965,356.608 231.655,331.589C232.415,304.024 218.787,277.643 222.117,275.917C222.983,275.468 236.855,304.208 244.298,344.109C247.165,359.477 252.118,375.684 260.405,391.077C273.683,415.741 275.555,404.315 288.772,433.214C297.551,452.407 312.921,487.026 339.142,506.359C349.846,514.251 356.705,526.874 366.408,537.299C366.408,537.299 370.758,526.927 381.35,523.227C388.515,520.725 399.003,508.567 403.682,497.012C407.544,487.473 422.408,472.677 424.749,474.241C427.46,466.284 431.187,458.978 436.921,452.96L436.934,453.057C438.013,461.262 436.734,469.331 434.26,477.331C437.073,477.442 440.402,498.149 437.92,508.136C434.913,520.235 436.251,536.235 440.577,542.471C446.972,551.691 444.395,562.638 444.395,562.638C458.372,559.908 471.34,553.727 484.639,553.633C517.216,553.405 549.999,534.433 568.383,524.064C596.062,508.454 590.86,518.799 616.1,506.649C631.852,499.067 645.385,488.866 656.737,478.119C686.212,450.213 714.327,435.116 714.764,435.988C716.444,439.342 689.912,452.674 674.325,475.422C660.178,496.068 649.277,496.623 638.425,502.661C682.896,491.708 783.934,416.386 792.882,410.916C795.782,409.142 767.316,428.787 736.969,467.966C714.116,497.472 673.649,511.601 629.7,519.804C704.041,517.822 782.199,465.904 790.772,464.181C797.275,462.875 762.155,484.871 713.881,506.665C697.971,513.847 680.401,520.602 662.149,525.956L662.147,525.956L621.594,535.045L622.67,534.881L623.159,534.806L623.264,534.789L625.571,534.414L627.301,534.124L628.888,533.844L630.85,533.488L633.015,533.077L634.809,532.727L635.871,532.512L639.355,531.783L639.374,531.778L639.56,531.738L639.738,531.699L639.951,531.653L640.099,531.62L640.333,531.569L640.459,531.541L640.713,531.485L640.817,531.462L641.091,531.401L641.172,531.383L641.468,531.317L641.523,531.305L641.844,531.232L641.869,531.227C648.624,529.704 655.325,527.952 661.969,526.009L662.033,525.99L662.033,525.99L662.149,525.956L662.147,525.956L662.04,525.982C662.04,525.982 621.594,535.045 621.594,535.045L662.149,525.956L662.149,525.956C725.074,510.947 759.163,498.892 766.68,505.969C771.736,510.73 763.886,499.549 745.435,521.659C734.252,535.06 702.594,544.638 702.594,544.638C699.964,540.46 646.139,533.52 623.544,541.987C646.132,540.3 665.041,539.558 684.189,546.268C745.324,567.693 747.411,544.388 748.144,549.877C749.298,558.507 693.328,569.919 693.328,569.919C673.962,559.254 625.321,556.346 622.143,565.716C648.487,563.585 668.369,565.625 682.088,572.154C705.143,583.126 719.305,576.837 719.352,577.975C719.976,593.132 638.114,601.011 635.578,585.853C636.34,585.724 593.219,558.374 585.279,557.202C606.713,571.442 624.824,582.192 631.501,588.568C647.57,603.913 663.792,605.303 667.133,606.62C685.29,613.782 624.901,623.934 574.116,571.14C592.396,595.062 617.739,602.233 625.581,622.978C629.529,633.422 620.277,636.139 573.52,607.623L573.466,607.589C573.466,607.589 572.124,606.758 572.124,606.758L571.73,606.514C570.72,605.889 569.709,605.265 568.698,604.641L566.772,603.452L567.528,603.918L568.698,604.641L569.083,604.878C569.965,605.423 570.848,605.969 571.73,606.514L571.94,606.644L572.124,606.758L572.371,606.911L573.466,607.589ZM566.751,603.44L566.772,603.452L573.323,607.502C571.847,606.601 570.375,605.695 568.906,604.783L566.751,603.44ZM661.938,526.018L662.033,525.99L661.938,526.018L661.849,526.044L661.766,526.068L661.683,526.092L661.583,526.121L661.479,526.152L661.401,526.174L661.333,526.194L661.23,526.224L661.109,526.259L661.036,526.28L660.983,526.296L660.878,526.326L660.739,526.366L660.673,526.385L660.632,526.397L660.528,526.427L660.368,526.473L660.281,526.498L660.183,526.526L659.998,526.579L659.93,526.599L659.847,526.623L659.627,526.685L659.534,526.712C658.856,526.905 658.178,527.096 657.499,527.285L657.399,527.313L657.027,527.416L656.655,527.519L656.283,527.621L655.911,527.723L655.538,527.824L655.166,527.926L654.793,528.026L654.42,528.126L654.295,528.16L654.251,528.172L654.047,528.226L653.673,528.326L653.564,528.355C652.635,528.601 651.706,528.843 650.775,529.082L650.682,529.106L650.307,529.201L649.933,529.296L649.558,529.391L649.391,529.433L649.336,529.447L649.299,529.456L649.183,529.485L649.034,529.523L648.981,529.536L648.936,529.547L648.808,529.579L648.674,529.612L648.626,529.624L648.574,529.637L648.433,529.672L648.314,529.702L648.271,529.712L648.213,529.727L648.058,529.765L647.953,529.791L647.915,529.8L647.852,529.816L647.682,529.858L647.591,529.88L647.56,529.888L647.493,529.904L647.307,529.95L647.204,529.975L647.137,529.991L646.931,530.041L646.849,530.061L646.785,530.076L646.555,530.132L646.179,530.223L646.135,530.234C645.665,530.346 645.196,530.458 644.727,530.568L644.675,530.581L644.298,530.669L644.091,530.717L643.999,530.739L643.922,530.757L643.74,530.799L643.643,530.821L643.545,530.844L643.383,530.882L643.286,530.904L643.244,530.914L643.169,530.931L643.023,530.964L642.929,530.986L642.877,530.998L642.792,531.017L642.661,531.047L642.573,531.067L642.51,531.082L642.415,531.103L642.298,531.13L642.216,531.149L642.142,531.165L642.038,531.189L641.934,531.212L641.859,531.229L641.774,531.248L641.661,531.274L641.569,531.294L641.502,531.309L641.406,531.331L641.284,531.358L641.204,531.376L641.144,531.389L641.038,531.413L640.906,531.442L640.839,531.457L640.787,531.469L640.668,531.495L640.529,531.526L640.473,531.538L640.43,531.548L640.298,531.577L640.152,531.609L640.072,531.626L639.926,531.658L639.774,531.691L639.715,531.704L639.549,531.74L639.397,531.773L639.352,531.783C638.524,531.962 637.698,532.138 636.872,532.309L636.85,532.314C636.349,532.418 635.848,532.52 635.346,532.622L635.332,532.624C634.896,532.713 634.457,532.8 634.017,532.887L634.002,532.89C633.245,533.039 632.493,533.184 631.74,533.326L631.726,533.329C631.165,533.435 630.604,533.539 630.043,533.641L630.029,533.644C629.345,533.769 628.659,533.891 627.973,534.011L627.961,534.013C627.517,534.09 627.073,534.167 626.628,534.242L626.612,534.245C625.919,534.362 625.229,534.476 624.538,534.587L624.509,534.592C624.08,534.661 623.647,534.73 623.214,534.797L623.189,534.801C622.726,534.874 622.268,534.944 621.809,535.013L621.784,535.017C621.72,535.026 621.532,535.06 621.594,535.045L621.809,535.013L622.67,534.881L623.111,534.814L623.159,534.806L623.189,534.801L623.214,534.797L623.264,534.789L624.509,534.592L624.538,534.587L625.571,534.414L626.612,534.245L626.628,534.242L627.301,534.124L627.961,534.013L627.973,534.011L628.888,533.844L630.029,533.644L630.043,533.641L630.85,533.488L631.726,533.329L631.74,533.326L633.015,533.077L634.002,532.89L634.017,532.887L634.809,532.727L635.332,532.624L635.346,532.622L635.871,532.512L636.85,532.314L636.872,532.309L639.352,531.783L639.374,531.778L639.715,531.704L640.072,531.626L640.298,531.577L640.43,531.548L640.473,531.538L640.668,531.495L640.787,531.469L640.839,531.457L641.038,531.413L641.144,531.389L641.204,531.376L641.406,531.331L641.569,531.294L641.774,531.248L641.934,531.212L642.142,531.165L642.298,531.13L642.51,531.082L642.661,531.047L642.877,530.998L643.023,530.964L643.244,530.914L643.383,530.882L643.611,530.829L643.74,530.799L643.978,530.744L644.091,530.717L644.344,530.658L644.429,530.638L644.711,530.572L644.727,530.568C645.196,530.458 645.666,530.346 646.135,530.234L646.444,530.159L646.501,530.145L646.785,530.076L646.865,530.057L647.137,529.991L647.228,529.969L647.493,529.904L647.591,529.88L647.852,529.816L647.953,529.791L648.213,529.727L648.314,529.702L648.574,529.637L648.674,529.612L648.936,529.547L649.034,529.523L649.299,529.456L649.391,529.433L649.662,529.365L649.746,529.343L650.025,529.273L650.098,529.254L650.388,529.181L650.443,529.167L650.751,529.088L650.775,529.082C651.707,528.843 652.636,528.601 653.564,528.355L653.595,528.347L653.904,528.264L653.956,528.251L654.251,528.172L654.316,528.154L654.603,528.077L654.676,528.057L654.957,527.982L655.036,527.961L655.313,527.885L655.395,527.863L655.671,527.788L655.752,527.766L656.028,527.691L656.109,527.669L656.387,527.593L656.463,527.571L656.745,527.494L656.815,527.475L657.104,527.395L657.162,527.379L657.463,527.295L657.499,527.285C658.179,527.096 658.857,526.905 659.534,526.712L659.585,526.697L659.847,526.623L659.947,526.594L660.183,526.526L660.31,526.49L660.528,526.427L660.673,526.385L660.878,526.326L661.036,526.28L661.23,526.224L661.401,526.174L661.583,526.121L661.766,526.068L661.938,526.018ZM662.148,525.956L662.149,525.956L662.04,525.982C662.04,525.982 661.276,526.164 661.276,526.164L660.616,526.321L660.551,526.336C657.604,527.036 654.655,527.728 651.703,528.41L651.53,528.451L650.916,528.592L650.594,528.667L650.091,528.783L649.612,528.893L649.239,528.979L648.367,529.179L647.513,529.374L647.168,529.452L646.68,529.564L646.216,529.669L645.891,529.743L645.305,529.876L645.262,529.886C643.774,530.223 642.286,530.558 640.797,530.891L640.685,530.916L640.321,530.997L639.991,531.071C639.724,531.131 639.457,531.19 639.19,531.249L638.421,531.42L638.314,531.444L637.621,531.597L637.271,531.675L636.785,531.782L636.442,531.858L636.327,531.883L636.058,531.942L636.039,531.946L635.961,531.963L631.406,532.957L631.301,532.98L631.08,533.027L630.828,533.082L628.678,533.543L626.555,533.999L626.472,534.016L626.244,534.064L626.039,534.108L625.953,534.127L624.044,534.529L622.177,534.923L621.594,535.045L622.115,534.936L622.177,534.923C623.44,534.659 624.696,534.394 625.953,534.127L625.993,534.118L626.039,534.108L626.472,534.016L626.52,534.006L626.555,533.999C628.151,533.659 629.734,533.319 631.301,532.98L631.353,532.969L631.406,532.957C632.937,532.626 634.455,532.295 635.961,531.963L635.983,531.959L636.058,531.942L636.071,531.939L636.327,531.883L636.645,531.813L636.812,531.776L637.271,531.675L637.587,531.605L637.621,531.597L637.796,531.559L638.314,531.444L638.421,531.42C640.733,530.908 643.014,530.396 645.262,529.886L645.529,529.825L645.891,529.743L646.063,529.704L646.216,529.669L646.479,529.61L646.68,529.564L646.831,529.529L647.168,529.452L647.425,529.394L647.513,529.374C647.797,529.309 648.082,529.244 648.367,529.179C648.658,529.112 648.948,529.045 649.239,528.979L649.305,528.963L649.612,528.893L649.994,528.805L650.091,528.783L650.239,528.749L650.594,528.667L650.808,528.617L650.916,528.592L651.17,528.534L651.53,528.451L651.622,528.429L651.703,528.41C654.712,527.714 657.662,527.022 660.551,526.336L661.155,526.193L661.276,526.164L661.377,526.14L662.033,525.99L662.148,525.956ZM661.59,526.089C654.67,527.736 647.74,529.339 640.797,530.891L640.321,530.997C639.028,531.286 637.735,531.573 636.442,531.858L636.039,531.946L631.08,533.027L628.678,533.543L626.244,534.064L624.044,534.529L621.594,535.045L661.59,526.089ZM236.379,497.864L235.732,497.812L243.413,498.386L240.904,498.208C239.395,498.098 237.887,497.984 236.379,497.864ZM212.176,380.066L239.269,410.82L237.118,408.441L236.37,407.611L234.354,405.366L232.872,403.714L231.426,402.092L229.457,399.882L228.982,399.347L228.898,399.251L228.587,398.901L228.327,398.608L227.87,398.091L227.782,397.992C222.533,392.058 217.333,386.08 212.176,380.066L211.875,379.714L212.176,380.066ZM211.917,379.778C213.696,382.081 215.507,384.368 217.35,386.632L217.381,386.669L217.416,386.713C217.616,386.958 217.816,387.203 218.016,387.447L218.03,387.464L218.093,387.541L218.244,387.725L218.281,387.77L218.305,387.8L218.365,387.873L218.489,388.024L218.55,388.097L218.582,388.136L218.628,388.192L218.735,388.322L218.826,388.432L218.858,388.471L218.888,388.508L218.981,388.62L219.114,388.78L219.148,388.822C221.102,391.181 223.09,393.513 225.111,395.814L225.252,395.974L225.345,396.08L225.507,396.264L225.583,396.35L225.763,396.554L225.824,396.623L225.844,396.646L225.894,396.702L226.019,396.843L226.066,396.897L226.087,396.92L226.152,396.993L226.276,397.132L226.33,397.193L226.412,397.286L226.532,397.421L226.573,397.466L226.678,397.584L226.79,397.709L226.82,397.743C227.302,398.282 227.785,398.82 228.271,399.355L228.34,399.432L228.46,399.563L228.477,399.582C229.278,400.464 230.084,401.34 230.895,402.211L230.903,402.22C231.058,402.386 231.213,402.552 231.368,402.717L231.378,402.728C232.089,403.488 232.804,404.244 233.523,404.995L233.534,405.006C233.897,405.385 234.26,405.763 234.625,406.14L234.631,406.146C235.089,406.619 235.549,407.091 236.011,407.561C236.372,407.928 236.733,408.294 237.096,408.659L237.097,408.66C237.431,408.996 237.767,409.332 238.103,409.666L238.178,409.741C238.542,410.103 238.905,410.462 239.269,410.82L238.996,410.551C238.723,410.282 238.45,410.012 238.178,409.741C238.178,409.741 238.143,409.706 238.143,409.706L238.121,409.684L238.103,409.666L238.05,409.613L237.097,408.66L237.096,408.659L236.639,408.193L236.011,407.561C236.011,407.561 235.325,406.854 235.325,406.854L234.631,406.146L234.625,406.14L234.2,405.693L233.534,405.006L233.523,404.995L232.024,403.407L231.378,402.728L231.368,402.717L231.16,402.492L230.903,402.22L230.895,402.211L228.477,399.582L228.46,399.563L228.344,399.434L228.283,399.369L228.271,399.355L226.992,397.935L226.82,397.743L226.79,397.709C226.79,397.709 226.745,397.659 226.745,397.659L226.678,397.584L226.557,397.449L226.412,397.286L226.311,397.172L226.152,396.993L226.066,396.897L225.894,396.702L225.824,396.623L225.638,396.412L225.583,396.35L225.382,396.123L225.345,396.08L225.127,395.833L225.111,395.814C224.143,394.712 223.183,393.604 222.232,392.489L222.214,392.468L222.078,392.308L222.008,392.226L221.997,392.213C221.04,391.089 220.09,389.959 219.148,388.822L219.114,388.78L218.888,388.508L218.826,388.432L218.628,388.192L218.55,388.097L218.365,387.873L218.281,387.77L218.093,387.541L218.016,387.447L217.754,387.127L217.416,386.713L217.35,386.632C215.829,384.763 214.328,382.877 212.847,380.976L212.772,380.881L212.688,380.773L212.6,380.659L212.562,380.611C212.466,380.487 212.37,380.363 212.274,380.239L212.237,380.192L212.192,380.133L212.099,380.014L211.917,379.778L211.876,379.725L211.917,379.778Z" style="fill:white;"/>
    </g>
</svg>
