<?xml version="1.0" encoding="UTF-8" standalone="no"?>
<!DOCTYPE svg PUBLIC "-//W3C//DTD SVG 1.1//EN" "http://www.w3.org/Graphics/SVG/1.1/DTD/svg11.dtd">
<svg width="100%" height="100%" viewBox="0 0 1000 1000" version="1.1" xmlns="http://www.w3.org/2000/svg" xmlns:xlink="http://www.w3.org/1999/xlink" xml:space="preserve" xmlns:serif="http://www.serif.com/" style="fill-rule:evenodd;clip-rule:evenodd;stroke-linejoin:round;stroke-miterlimit:2;">
    <g transform="matrix(2.31866,0,0,2.31866,-665.708,-595.104)">
        <path d="M490.11,570L308.673,462.631L335.894,374.6L502.75,374.614L669.606,374.6L696.827,462.631L515.39,570L490.11,570ZM674.822,444.308C623.81,440.256 591.896,456.471 568.476,470C539.655,486.648 526.541,507.547 531.23,542.589L678.907,456.372L674.822,444.308ZM330.678,444.308C381.69,440.256 413.604,456.471 437.024,470C465.845,486.648 478.959,507.547 474.27,542.589L326.593,456.372L330.678,444.308ZM394.048,390C417.891,412.363 452.576,426.805 502.75,429.925C552.924,426.805 587.609,412.363 611.452,390L394.048,390Z" style="fill:white;"/>
    </g>
</svg>
