<?xml version="1.0" encoding="UTF-8" standalone="no"?>
<!DOCTYPE svg PUBLIC "-//W3C//DTD SVG 1.1//EN" "http://www.w3.org/Graphics/SVG/1.1/DTD/svg11.dtd">
<svg width="100%" height="100%" viewBox="0 0 1000 1000" version="1.1" xmlns="http://www.w3.org/2000/svg" xmlns:xlink="http://www.w3.org/1999/xlink" xml:space="preserve" xmlns:serif="http://www.serif.com/" style="fill-rule:evenodd;clip-rule:evenodd;stroke-linejoin:round;stroke-miterlimit:2;">
    <g transform="matrix(11.9475,0,0,11.9475,-8087.2,-3813.6)">
        <path d="M725.204,355.851C726.882,355.902 728.547,355.996 730.201,356.125C730.151,356.232 730.098,356.338 730.044,356.445C729.031,366.926 729.979,377.407 733.19,387.888L727.25,389.031C724.03,378.552 722.935,368.117 723.915,357.725C723.82,357.753 723.724,357.778 723.629,357.802C724.162,357.155 724.687,356.505 725.204,355.851ZM727.039,347.772C727.585,348.358 728.189,348.742 728.885,349.27C726.775,352.231 724.556,355.152 722.155,358.008C721.635,358.023 721.11,357.972 720.58,357.845C714.596,366.804 713.008,377.238 712.774,388.127L707.693,387.41C708.04,375.115 711.304,364.062 718.744,354.789C718.777,354.752 718.811,354.715 718.844,354.678C720.955,352.688 724.221,349.964 727.039,347.772ZM695.793,373.024C698.162,375.764 701.381,377.11 705.935,376.266C705.294,373.155 703.594,370.353 701.725,367.764C700.916,367.914 700.061,367.878 699.159,367.753C698.832,367.708 698.42,367.542 698.006,367.396C697.91,367.363 697.758,367.327 697.664,367.306C697.423,367.7 697.434,368.204 697.419,368.707C697.392,369.613 697.377,370.537 697.04,371.3C696.748,371.961 696.306,372.524 695.793,373.024ZM716.107,374.994C718.027,374.467 719.92,373.603 721.773,372.235C721.413,368.206 721.357,364.184 721.604,360.168C718.767,364.774 717.083,369.765 716.107,374.994ZM733.628,374.656C736.359,375.188 739.285,374.932 742.484,373.706C745.898,372.397 750.185,372.959 754.748,371.839C754.973,371.531 755.17,371.223 755.342,370.915C754.25,370.735 753.148,370.532 752.047,370.367C749.987,370.056 747.929,369.875 745.954,370.311C745.576,370.394 745.254,370.601 744.944,370.83C744.519,371.142 744.119,371.502 743.701,371.803C742.644,372.568 741.441,373.152 740.168,373.449C738.925,373.739 737.184,373.682 735.625,373.928C734.867,374.048 734.142,374.226 733.628,374.656ZM707.298,373.74C709.061,366.34 712.222,359.538 717.094,353.465C717.118,353.435 717.142,353.406 717.168,353.378C717.832,352.636 718.505,351.97 719.186,351.369C717.094,347.96 714.903,344.88 712.702,341.838C712.328,341.322 712.207,340.664 712.373,340.048C712.413,339.9 712.469,339.759 712.538,339.625C705.43,335.365 695.581,333.281 692.145,335.644C691.297,336.227 691.465,337.32 691.968,338.726C691.584,338.528 691.217,338.357 690.866,338.213C691.284,340.201 692.152,341.875 694.071,343.241C695.561,344.301 697.359,344.952 699.013,345.784C700.897,346.731 702.6,347.899 703.665,349.892C704.298,351.076 704.316,352.055 704.189,353.034C704.096,353.757 703.89,354.478 703.967,355.346C704.014,355.869 704.207,356.333 704.42,356.789C704.695,357.379 705.007,357.956 705.227,358.578C705.638,359.739 705.849,361.778 705.537,363.557C705.304,364.879 704.771,366.049 703.933,366.735C703.829,366.82 703.724,366.899 703.618,366.973C705.111,369.08 706.456,371.326 707.298,373.74ZM732.268,373.186C732.831,372.699 733.531,372.375 734.312,372.163C736.047,371.691 738.237,371.846 739.714,371.501C740.73,371.265 741.686,370.792 742.53,370.182C743.468,369.504 744.358,368.615 745.523,368.358C748.941,367.603 752.591,368.489 756.112,369.026C756.57,367.312 756.43,365.599 756.146,363.886C756.317,357.89 756.851,351.636 753.238,348.347C753.53,344.848 752.872,341.697 751.842,338.682C743.888,332.111 735.472,330.425 726.141,338.397C725.334,338.476 724.587,338.568 723.912,338.676C725.657,341.084 727.269,343.652 728.696,346.445C729.136,346.887 729.632,347.183 730.183,347.6C730.287,347.633 730.751,347.779 731.044,347.868C731.584,348.032 732.149,348.24 732.684,348.552C733.378,348.957 733.783,349.72 733.729,350.522C733.582,352.714 733.135,354.888 732.113,357.031C731.618,362.415 731.655,367.8 732.268,373.186ZM683.964,349.184C677.662,355.185 682.966,366.861 687.719,370.006C689.259,371.025 691.399,371.435 694.35,371.025C694.43,371.158 694.512,371.289 694.596,371.418C694.845,371.142 695.058,370.838 695.211,370.492C695.309,370.27 695.362,370.028 695.391,369.776C692.807,369.768 690.287,369.592 688.144,367.902C687.1,367.079 686.656,366.151 686.014,365.015C685.629,364.333 685.268,363.642 684.977,362.913C684.362,361.369 683.82,358.868 684.042,356.65C684.207,355.006 684.794,353.522 685.947,352.566C686.562,352.056 687.232,351.75 687.923,351.61C686.749,350.585 685.412,349.653 683.964,349.184ZM682.178,346.872C685.492,346.957 688.526,349.287 690.742,351.524C690.862,351.645 690.945,351.79 690.99,351.943C691.414,352.108 691.827,352.316 692.219,352.558C694.041,353.681 694.912,355.603 695.634,357.543C696.131,358.881 696.512,360.063 696.255,361.498C696.025,362.775 695.397,363.541 694.644,363.951C693.939,364.336 693.088,364.411 692.234,364.206C691.103,363.934 689.969,363.161 689.279,362.12C688.702,361.25 688.324,360.315 687.895,359.373C687.666,358.871 687.888,358.277 688.39,358.048C688.893,357.82 689.486,358.042 689.715,358.544C690.1,359.39 690.428,360.235 690.946,361.015C691.357,361.634 692.028,362.1 692.701,362.261C693.049,362.345 693.4,362.352 693.687,362.195C693.998,362.026 694.192,361.671 694.286,361.144C694.476,360.086 694.126,359.226 693.759,358.24C693.192,356.716 692.601,355.143 691.17,354.261C689.948,353.508 688.422,353.112 687.224,354.105C686.458,354.74 686.141,355.758 686.032,356.849C685.844,358.735 686.312,360.86 686.835,362.172C687.092,362.818 687.414,363.427 687.755,364.031C688.259,364.923 688.563,365.685 689.382,366.332C691.176,367.747 693.314,367.775 695.479,367.776C695.564,367.103 695.759,366.481 696.166,365.962C696.638,365.359 697.276,365.202 697.99,365.324C698.484,365.408 699.033,365.716 699.434,365.772C700.624,365.937 701.71,365.97 702.665,365.188C703.177,364.769 703.425,364.018 703.567,363.211C703.815,361.795 703.669,360.17 703.342,359.245C702.895,357.984 702.098,356.896 701.975,355.524C701.899,354.673 702.024,353.936 702.14,353.222C702.262,352.467 702.387,351.742 701.901,350.835C701.044,349.229 699.632,348.333 698.115,347.571C696.37,346.693 694.483,345.989 692.912,344.871C690.214,342.951 689.161,340.563 688.735,337.637C687.717,337.536 686.903,337.766 686.267,338.283C684.962,339.343 681.817,344.181 682.178,346.872ZM725.992,354.845C727.308,353.149 728.573,351.434 729.802,349.707C730.352,349.876 731.016,350.028 731.618,350.38C731.511,351.98 731.229,353.571 730.623,355.144C729.067,355 727.781,354.896 725.992,354.845ZM721.454,351.028C719.193,347.264 716.811,343.909 714.416,340.598L720.631,337.841C722.808,340.61 724.812,343.588 726.545,346.892C724.901,348.168 723.1,349.629 721.454,351.028Z" style="fill:white;"/>
    </g>
</svg>
