<?xml version="1.0" encoding="UTF-8" standalone="no"?>
<!DOCTYPE svg PUBLIC "-//W3C//DTD SVG 1.1//EN" "http://www.w3.org/Graphics/SVG/1.1/DTD/svg11.dtd">
<svg width="100%" height="100%" viewBox="0 0 1000 1000" version="1.1" xmlns="http://www.w3.org/2000/svg" xmlns:xlink="http://www.w3.org/1999/xlink" xml:space="preserve" xmlns:serif="http://www.serif.com/" style="fill-rule:evenodd;clip-rule:evenodd;stroke-linejoin:round;stroke-miterlimit:2;">
    <g transform="matrix(2.10801,0,0,2.10801,-463.199,-699.448)">
        <path d="M255.141,583.1C256.023,616.889 255.833,650.044 254.902,682.759C253.97,715.475 252.297,747.751 250.21,779.784C245.298,714.07 244.693,648.456 255.141,583.1ZM572.401,644.03C565.854,638.862 559.736,636.662 553.724,640.474C441.699,711.509 271.05,676.963 270.526,561.906C270.46,547.308 493.635,559.482 575.553,555.156C576.272,555.119 591.072,541.535 591.89,540.556C622.043,504.438 663.198,450.073 665.169,468.976C668.607,501.964 672.123,688.669 669.458,721.669C666.775,754.909 592.154,659.626 572.401,644.03ZM596.997,626.295C613.131,633.05 627.933,640.955 638.011,648.238C648.089,655.521 653.444,662.181 650.685,666.447C642.658,678.854 611.624,645.136 596.997,626.295ZM494.14,606.516C491.747,605.155 476.977,611.543 476.977,611.543L459.538,600.671C459.538,600.671 467.342,588.643 464.921,587.112C462.5,585.581 445.014,591.488 445.014,591.488C445.014,591.488 433.714,585.701 432.591,586.554C431.467,587.406 438.273,596.601 438.273,596.601C438.273,596.601 432.425,609.536 433.982,611.543C435.539,613.549 447.617,608.64 447.617,608.64L467.039,624.571C460.24,633.634 447.2,651.311 449.705,652.446C452.209,653.581 473.091,639.777 482.064,631.38C498.15,639.306 502.077,636.179 491.332,619.71C491.332,619.71 496.532,607.878 494.14,606.516ZM380.673,591.026C396.197,571.426 421.768,586.575 424.126,606.117C426.815,628.395 405.857,650.166 379.862,629.513C425.836,636.713 419.653,580.396 380.673,591.026ZM346.666,568.816C357.575,586.155 359.485,598.44 354.891,607.072C350.297,615.705 339.2,620.686 324.095,623.416C378.874,651.221 389.61,575.278 346.666,568.816ZM451.529,576.77C464.785,587.389 485.259,600.719 502.924,610.603C520.59,620.486 535.449,626.924 537.476,623.759C542.956,615.203 492.213,578.716 451.529,576.77ZM384.088,618.38C387.956,616.85 391.68,617.223 394.346,618.305C397.011,619.388 398.618,621.18 398.252,622.489C397.295,625.914 388.874,623.134 384.088,618.38ZM599.588,606.612C609.376,612.205 623.578,617.178 635.573,618.986C647.568,620.794 657.356,619.438 658.316,612.373C659.481,603.795 637.302,600.276 599.588,606.612ZM386.9,609.844C391.043,607.136 394.972,606.375 397.892,606.672C400.812,606.969 402.723,608.323 402.828,609.844C402.954,611.662 392.662,614.486 386.9,609.844ZM314.788,567.843C327.033,567.843 336.974,577.785 336.974,590.03C336.974,602.275 327.033,612.216 314.788,612.216C302.543,612.216 292.601,602.275 292.601,590.03C292.601,577.785 302.543,567.843 314.788,567.843ZM314.788,573.39C323.972,573.39 331.428,580.846 331.428,590.03C331.428,599.213 323.972,606.669 314.788,606.669C305.604,606.669 298.148,599.213 298.148,590.03C298.148,580.846 305.604,573.39 314.788,573.39ZM384.088,600.671C386.037,601.09 389.956,601.466 393.179,601.124C396.402,600.783 398.928,599.724 398.09,597.274C396.872,593.709 391.491,595.517 384.088,600.671ZM314.788,583.52C318.381,583.52 321.298,586.437 321.298,590.03C321.298,593.623 318.381,596.54 314.788,596.54C311.195,596.54 308.278,593.623 308.278,590.03C308.278,586.437 311.195,583.52 314.788,583.52ZM596.997,583.493C608.31,577.107 623.018,570.073 635.201,566.184C647.383,562.294 657.039,561.549 658.247,567.742C660.164,577.568 621.698,583.985 596.997,583.493ZM265.949,562.08C265.442,563.658 266.46,577.023 266.792,578.129C267.927,581.907 243.607,574.837 243.453,569.442C243.252,562.351 267.216,558.128 265.949,562.08ZM596.997,565.046C610.69,550.926 623.232,538.977 633.337,531.511C643.441,524.044 651.107,521.059 655.047,524.867C661.925,531.515 620.781,556.172 596.997,565.046ZM258.955,556.54C256.955,556.752 255.127,557.167 253.417,557.721C249.743,468.429 255.005,410.547 261.844,358.209C263.956,412.047 261.613,483.667 258.955,556.54Z" style="fill:white;"/>
    </g>
</svg>
