<?xml version="1.0" encoding="UTF-8" standalone="no"?>
<!DOCTYPE svg PUBLIC "-//W3C//DTD SVG 1.1//EN" "http://www.w3.org/Graphics/SVG/1.1/DTD/svg11.dtd">
<svg width="100%" height="100%" viewBox="0 0 1000 1000" version="1.1" xmlns="http://www.w3.org/2000/svg" xmlns:xlink="http://www.w3.org/1999/xlink" xml:space="preserve" xmlns:serif="http://www.serif.com/" style="fill-rule:evenodd;clip-rule:evenodd;stroke-linejoin:round;stroke-miterlimit:2;">
    <g transform="matrix(3.46154,0,0,3.46154,-1196.15,-1020.81)">
        <path d="M489.725,480.092C483.975,482.056 479.092,485.399 475,490C472.834,488.195 470.799,485.972 469,483C466.433,490.23 465.09,497.6 464,505C458.289,497.232 453.385,488.822 449,480C442.653,479.98 437.999,476.316 435.454,470C425.911,446.312 429.765,401.044 446.661,386C457.92,375.975 490.178,373.829 490.378,373.966C506.383,372.588 521.838,376.28 533.339,386C550.618,400.603 554.089,446.312 544.546,470C542.001,476.316 537.347,479.98 531,480C526.615,488.822 521.711,497.232 516,505C514.91,497.6 513.567,490.23 511,483C509.201,485.972 507.166,488.195 505,490C500.844,485.326 495.87,481.95 490,480L489.725,480.092ZM527,466L517,466C518.737,473.285 519.577,480.626 519.878,488C523.051,480.667 525.713,473.333 527,466ZM453,466L463,466C461.263,473.285 460.423,480.626 460.122,488C456.949,480.667 454.287,473.333 453,466ZM536,442C535.802,445.408 531.501,450.078 526.149,453.686C520.798,457.293 514.397,459.84 510,459C508.293,444.692 516.734,438.837 536,442ZM444,442C444.198,445.408 448.499,450.078 453.851,453.686C459.202,457.293 465.603,459.84 470,459C471.707,444.692 463.266,438.837 444,442ZM530,433L517,436C519.61,425.711 521.289,415.378 522,405C525.419,414.289 528.096,423.622 530,433ZM450,433L463,436C460.39,425.711 458.711,415.378 458,405C454.581,414.289 451.904,423.622 450,433ZM541.5,391C544.914,398.435 547.925,405.905 549.5,413.5C572.151,412.105 589.484,411.089 601,407.673C611.057,404.69 617.231,397.383 620,388.5C605.555,394.659 588.303,394.405 573,388.538C566.327,385.98 549.202,390.337 541.5,391ZM438.5,391C435.086,398.435 432.075,405.905 430.5,413.5C407.849,412.105 390.516,411.089 379,407.673C368.943,404.69 362.769,397.383 360,388.5C374.445,394.659 391.697,394.405 407,388.538C413.673,385.98 430.798,390.337 438.5,391Z" style="fill:white;"/>
    </g>
</svg>
