<?xml version="1.0" encoding="UTF-8" standalone="no"?>
<!DOCTYPE svg PUBLIC "-//W3C//DTD SVG 1.1//EN" "http://www.w3.org/Graphics/SVG/1.1/DTD/svg11.dtd">
<svg width="100%" height="100%" viewBox="0 0 1000 1000" version="1.1" xmlns="http://www.w3.org/2000/svg" xmlns:xlink="http://www.w3.org/1999/xlink" xml:space="preserve" xmlns:serif="http://www.serif.com/" style="fill-rule:evenodd;clip-rule:evenodd;stroke-linejoin:round;stroke-miterlimit:2;">
    <g transform="matrix(8.09935,0,0,8.09935,-4288.49,-1615.81)">
        <path d="M557.507,270.974C562.914,268.106 567.629,265.087 571.462,262.993C574.084,261.561 576.275,260.56 577.983,260.384C587.848,259.368 607.52,257.911 624.076,260.597C624.525,261.165 625.004,261.707 625.514,262.218C628.169,264.882 631.787,266.055 635.234,267.261C636.757,267.794 638.215,268.496 639.759,268.967C641.906,269.622 644.486,269.82 646.517,270.766C647.37,271.163 645.911,271.453 645.444,271.344C642.991,271.344 640.547,270.632 638.124,270.34C634.532,269.909 630.774,269.84 627.167,270.123C623.77,270.389 620.674,271.631 617.371,272.319C614.18,272.984 610.984,273.124 607.734,273.068C597.248,272.889 586.632,270.181 576.552,274.158C571.373,276.201 567.321,279.818 562.571,282.63C557.627,285.557 552.158,287.665 546.59,289.083C543.889,289.771 541.011,289.955 538.231,289.843C537.668,289.82 535.833,289.869 535.667,289.027C535.571,288.54 536.475,288.084 536.779,287.882C538.124,286.985 539.287,285.917 540.52,284.876C542.84,282.92 545.954,281.825 548.499,280.156C551.689,278.063 554.079,275.65 556.494,272.537C556.879,272.04 557.215,271.517 557.507,270.974ZM558.776,267.593C563.654,264.935 567.932,262.222 571.462,260.293C574.084,258.861 576.275,257.86 577.983,257.685C587.453,256.709 605.962,255.327 622.078,257.595C622.436,258.233 622.819,258.854 623.231,259.453C606.794,256.968 587.602,258.388 577.881,259.39C576.077,259.575 573.751,260.603 570.982,262.116C567.428,264.057 563.115,266.796 558.193,269.471C558.427,268.861 558.618,268.233 558.776,267.593ZM569.411,242.831C567.708,244.707 566.267,246.559 565.571,248.068C564.895,249.537 564.56,251.678 564.437,253.957C564.184,258.636 564.262,262.567 564.28,263.302C562.629,264.274 560.882,265.29 559.047,266.304C559.577,263.304 559.506,260.104 559.566,257.223C559.605,255.358 559.337,253.259 559.957,251.466C561.5,247.001 565.727,245.113 569.411,242.831ZM584.632,233.027C585.753,233.647 587.079,234.429 588.379,235.308C590.489,236.733 592.542,238.408 593.486,240.071C594.197,241.322 594.707,243.314 595.086,245.486C595.839,249.806 596.048,254.138 596.097,255.464C588.817,255.681 582.349,256.23 577.881,256.69C576.077,256.876 573.751,257.903 570.982,259.416C569.258,260.358 567.355,261.487 565.291,262.706C565.319,261.698 565.369,259.432 565.376,256.218C565.383,253.312 565.629,250.334 566.48,248.487C567.974,245.244 573.003,240.391 576.534,237.233C577.614,236.346 578.728,235.503 579.939,234.785C581.392,233.924 582.979,233.365 584.632,233.027ZM608.776,236.334C609.076,236.443 609.372,236.554 609.665,236.667C611.429,237.35 613.405,237.967 614.717,239.409C617.546,242.518 618.187,246.839 619.297,250.744C619.852,252.693 620.574,254.655 621.502,256.507C620.129,256.324 618.741,256.166 617.344,256.032C615.611,250.217 614.76,245.578 612.103,241.133C611.043,239.359 610.04,237.803 608.776,236.334ZM586.208,232.772C589.586,232.357 593.149,232.724 596.364,233.218C599.765,233.74 603.369,234.555 606.747,235.639C608.628,237.468 609.887,239.374 611.245,241.646C613.801,245.923 614.642,250.389 616.272,255.934C609.809,255.368 603.193,255.281 597.096,255.436C597.047,254.088 596.834,249.69 596.071,245.314C595.669,243.011 595.11,240.904 594.356,239.577C593.35,237.806 591.186,235.998 588.939,234.479C588.015,233.855 587.078,233.278 586.208,232.772Z" style="fill:white;"/>
    </g>
</svg>
