<?xml version="1.0" encoding="UTF-8" standalone="no"?>
<!DOCTYPE svg PUBLIC "-//W3C//DTD SVG 1.1//EN" "http://www.w3.org/Graphics/SVG/1.1/DTD/svg11.dtd">
<svg width="100%" height="100%" viewBox="0 0 1000 1000" version="1.1" xmlns="http://www.w3.org/2000/svg" xmlns:xlink="http://www.w3.org/1999/xlink" xml:space="preserve" xmlns:serif="http://www.serif.com/" style="fill-rule:evenodd;clip-rule:evenodd;stroke-linejoin:round;stroke-miterlimit:2;">
    <path d="M500,50C748.362,50 950,251.638 950,500C950,748.362 748.362,950 500,950C251.638,950 50,748.362 50,500C50,251.638 251.638,50 500,50ZM500,143.861C696.559,143.861 856.139,303.441 856.139,500C856.139,696.559 696.559,856.139 500,856.139C303.441,856.139 143.861,696.559 143.861,500C143.861,303.441 303.441,143.861 500,143.861ZM548.188,522.289C639.698,558.967 708.549,557.868 736.838,606.109C756.518,639.668 742.276,675.792 724.227,739.585C721.511,739.752 718.803,739.844 716.099,739.856L715.199,739.858C698.992,739.826 683.043,736.931 667.409,730.489L667.445,730.957C668.871,750.456 665.653,768.892 658.83,786.499L658.503,787.336C592.254,784.789 553.498,787.171 527.662,758.084C490.522,716.268 512.849,651.12 506.241,552.764C506.987,552.676 507.727,552.573 508.461,552.455L529.296,603.518C526.962,607.23 526.975,612.145 529.709,615.907C531.895,618.915 535.318,620.497 538.776,620.463L539.042,620.457C541.17,620.384 543.3,619.698 545.151,618.353C550.088,614.766 551.184,607.847 547.597,602.911C545.982,600.687 543.69,599.243 541.208,598.655L520.887,548.852C522.292,548.249 523.666,547.587 525.008,546.868L590.677,637.253C584.178,645.452 583.63,657.288 590.076,666.161C594.743,672.584 602.018,676 609.398,676.015L609.686,676.013C614.48,675.965 619.305,674.48 623.475,671.451C623.589,671.368 623.702,671.284 623.813,671.2C623.927,671.121 624.042,671.039 624.156,670.956C634.832,663.199 637.203,648.234 629.446,637.557C623.05,628.753 611.751,625.598 601.998,629.111L601.768,629.196L536.155,538.888C537.278,537.842 538.356,536.747 539.383,535.609L580.345,570.22C580.137,572.763 580.803,575.388 582.418,577.612C584.604,580.62 588.027,582.202 591.485,582.167L591.751,582.161C593.879,582.089 596.009,581.402 597.861,580.057C602.797,576.471 603.893,569.551 600.306,564.615C598.171,561.676 594.854,560.098 591.477,560.06L591.274,560.059C590.463,560.065 589.65,560.16 588.851,560.345L588.651,560.394L546.816,525.044C547.299,524.141 547.758,523.222 548.188,522.289ZM451.43,521.445C451.732,522.129 452.048,522.806 452.378,523.476L409.637,558.331C408.778,558.098 407.899,557.972 407.02,557.95L406.818,557.947C403.441,557.927 400.096,559.446 397.91,562.348C394.238,567.221 395.213,574.158 400.086,577.831C402.066,579.323 404.386,580.047 406.69,580.055L406.955,580.053C410.231,579.986 413.446,578.472 415.568,575.655C417.222,573.46 417.934,570.846 417.77,568.301L459.469,534.296C460.453,535.46 461.486,536.581 462.566,537.656L395.322,626.893C392.582,625.819 389.704,625.279 386.838,625.254L386.599,625.253C379.352,625.259 372.194,628.543 367.502,634.77C359.56,645.31 361.668,660.314 372.208,668.256C372.321,668.341 372.434,668.425 372.547,668.506C372.656,668.592 372.768,668.678 372.88,668.763C377.162,671.99 382.182,673.557 387.163,673.574L387.45,673.574C394.635,673.513 401.713,670.232 406.366,664.057C412.967,655.298 412.625,643.454 406.27,635.143L473.442,546.003C474.766,546.771 476.127,547.483 477.522,548.137L456.405,597.414C453.913,597.959 451.597,599.363 449.943,601.558C446.271,606.431 447.246,613.368 452.119,617.04C454.099,618.532 456.419,619.257 458.723,619.265L458.988,619.263C462.264,619.196 465.478,617.681 467.601,614.864C470.4,611.15 470.499,606.236 468.231,602.484L489.802,552.146C490.805,552.342 491.818,552.51 492.84,552.648C484.52,650.883 505.7,716.404 467.839,757.562C441.911,785.747 403.995,783.223 339.595,784.464L336.508,784.526C329.72,766.404 326.71,747.484 328.595,727.532L328.157,727.702C313.399,733.422 298.418,736.027 283.257,736.081L282.364,736.081C278.795,736.071 275.216,735.919 271.627,735.635C254.694,671.537 241.084,635.17 261.347,601.959C290.476,554.217 359.303,556.52 451.43,521.445ZM447.947,510.39C372.021,529.546 321.67,559.576 278.493,559.896L277.836,559.899C266.888,559.904 256.399,557.979 246.065,553.462C210.418,537.88 200.708,500.284 177.813,438.065C192.738,425.747 209.647,416.741 229.126,412.027L228.822,411.669C216.007,396.495 207.714,379.393 202.917,360.801C250.48,328.964 279.306,306.197 310.744,305.938L311.599,305.936C316.301,305.959 321.065,306.485 325.963,307.561C380.593,319.561 400.823,385.4 464.001,461.105C463.456,461.61 462.921,462.125 462.396,462.653L415.494,433.568C415.2,429.193 412.3,425.225 407.877,423.788C402.074,421.902 395.832,425.083 393.946,430.886C392.061,436.689 395.241,442.931 401.045,444.816C402.188,445.188 403.349,445.363 404.489,445.36L404.734,445.356C406.116,445.321 407.464,445.026 408.715,444.504L454.448,472.863C453.667,474.168 452.94,475.508 452.271,476.882L346.006,442.354C346.445,431.901 339.931,422.004 329.5,418.615C316.95,414.537 303.449,421.415 299.371,433.966C299.328,434.1 299.285,434.235 299.245,434.368C299.199,434.499 299.155,434.633 299.111,434.767C295.033,447.318 301.912,460.818 314.463,464.896C316.908,465.691 319.389,466.069 321.828,466.071L322.072,466.07C329.953,465.995 337.383,461.996 341.77,455.392L447.921,489.883C447.629,491.378 447.401,492.897 447.238,494.436L393.766,490.512C392.439,488.333 390.358,486.6 387.744,485.751C381.941,483.866 375.699,487.046 373.813,492.849C371.928,498.652 375.108,504.894 380.911,506.78C382.017,507.139 383.139,507.314 384.243,507.323L384.45,507.322C387.688,507.286 390.759,505.817 392.822,503.344L447.439,507.352C447.579,508.375 447.749,509.389 447.947,510.39ZM535.999,461.105C536.545,461.611 537.08,462.126 537.604,462.653L584.506,433.568C584.8,429.193 587.7,425.225 592.123,423.788C597.926,421.902 604.168,425.083 606.054,430.886C607.939,436.689 604.759,442.931 598.955,444.816C597.894,445.161 596.817,445.337 595.755,445.357L595.511,445.36C594.044,445.355 592.609,445.057 591.285,444.504L545.552,472.863C546.333,474.168 547.06,475.508 547.729,476.882L653.994,442.354C653.555,431.901 660.069,422.004 670.5,418.615C683.05,414.537 696.551,421.415 700.629,433.966C700.672,434.1 700.715,434.235 700.755,434.368C700.801,434.499 700.845,434.633 700.889,434.767C704.967,447.318 698.088,460.818 685.537,464.896C683.174,465.664 680.776,466.044 678.416,466.07L678.172,466.071C670.2,466.077 662.663,462.064 658.23,455.392L552.079,489.883C552.371,491.381 552.599,492.899 552.762,494.436L606.234,490.512C607.561,488.333 609.642,486.6 612.256,485.751C618.059,483.866 624.301,487.046 626.187,492.849C628.072,498.652 624.892,504.894 619.089,506.78C618.052,507.117 617.001,507.292 615.964,507.319L615.757,507.323C612.512,507.347 609.416,505.93 607.311,503.501L607.178,503.344L552.561,507.352C552.421,508.375 552.251,509.388 552.053,510.39C628.363,529.642 678.839,559.881 722.164,559.899L722.82,559.897C733.53,559.826 743.807,557.889 753.935,553.462C789.582,537.88 799.292,500.284 822.187,438.065C807.262,425.747 790.353,416.741 770.874,412.027L771.178,411.669C783.993,396.495 792.286,379.393 797.083,360.801C749.52,328.964 720.694,306.197 689.256,305.938L688.401,305.936C683.699,305.959 678.935,306.485 674.037,307.561C619.405,319.561 599.176,385.404 535.999,461.105ZM500,465.33C519.173,465.33 534.739,480.896 534.739,500.069C534.739,519.242 519.173,534.808 500,534.808C480.827,534.808 465.261,519.242 465.261,500.069C465.261,480.896 480.827,465.33 500,465.33ZM474.078,453.773C421.6,370.308 365.254,330.727 370.722,275.071C374.526,236.354 407.282,215.501 459.38,174.5C475.707,184.888 489.497,198.186 500,215.255L500.247,214.856C510.718,197.979 524.42,184.807 540.62,174.5L543.048,176.407C593.733,216.156 625.533,236.958 629.278,275.071C634.746,330.726 578.401,370.307 525.922,453.773C525.272,453.408 524.613,453.056 523.946,452.717L537.104,399.158C541.175,397.527 544.053,393.543 544.053,388.892C544.053,382.79 539.099,377.837 532.997,377.837C526.896,377.837 521.942,382.79 521.942,388.892C521.942,391.64 522.947,394.156 524.609,396.09L511.776,448.325C510.298,447.989 508.797,447.716 507.275,447.507L507.275,335.787C517.352,332.973 524.753,323.721 524.753,312.753C524.753,299.556 514.039,288.842 500.842,288.842L500.421,288.846C500.282,288.843 500.141,288.842 500,288.842C486.803,288.842 476.089,299.556 476.089,312.753C476.089,323.721 483.49,332.973 493.567,335.787L493.567,447.398C492.031,447.584 490.515,447.836 489.023,448.15L476.233,396.09C477.895,394.156 478.9,391.64 478.9,388.892C478.9,382.886 474.1,377.991 468.13,377.84L467.845,377.837C461.743,377.837 456.789,382.79 456.789,388.892C456.789,393.543 459.667,397.527 463.738,399.158L476.805,452.344C475.88,452.795 474.971,453.271 474.078,453.773Z" style="fill:white;"/>
</svg>
