<?xml version="1.0" encoding="UTF-8" standalone="no"?>
<!DOCTYPE svg PUBLIC "-//W3C//DTD SVG 1.1//EN" "http://www.w3.org/Graphics/SVG/1.1/DTD/svg11.dtd">
<svg width="100%" height="100%" viewBox="0 0 1000 1000" version="1.1" xmlns="http://www.w3.org/2000/svg" xmlns:xlink="http://www.w3.org/1999/xlink" xml:space="preserve" xmlns:serif="http://www.serif.com/" style="fill-rule:evenodd;clip-rule:evenodd;stroke-linejoin:round;stroke-miterlimit:2;">
    <path d="M361.194,913.155C376.46,902.582 388.153,890.324 396.836,876.683C397.05,877.614 397.452,878.509 398.038,879.31C407.349,892.042 419.677,903.731 434.812,914.418C430.949,926.742 425.834,938.499 420.161,950C412.997,943.113 406.716,936.124 402.111,928.942C396.466,936.438 389.116,943.342 381.053,950C370.197,941.49 363.364,929.401 361.194,913.155ZM430.112,746.514C429.361,753.414 425.634,759.426 420.245,763.237C425.814,805.693 421.945,843.812 403.845,875.063C422.205,900.169 452.83,920.901 493.747,937.967C501.537,918.579 507.114,898.735 507.401,877.801C519.144,884.316 533.94,890.386 552.42,895.92C552.174,831.953 546.016,770.052 430.112,746.514ZM395.796,764.937C399.039,766.614 402.722,767.561 406.623,767.561C407.206,767.561 407.784,767.54 408.356,767.499C418.027,845.953 393.573,908.265 293.813,934.959C287.601,920.92 287.211,906.881 290.805,892.843C281.009,903.943 268.791,912.797 254.705,919.917C252.755,912.011 255.482,891.094 253.201,877.801C246.774,840.337 265.083,816.205 294.666,796.576C296.93,796.75 299.192,796.867 301.452,796.93C333.107,797.802 364.629,787.938 395.796,764.937ZM346.481,561.544C345.721,560.801 344.946,560.063 344.151,559.323C255.94,477.296 351.66,312.462 451.554,403.093C545.926,488.715 599.38,383.098 565.757,291.711C544.378,233.601 537.636,187.75 627.215,140.549C660.23,123.153 674.806,80.908 700.517,50C686.597,84.435 698.123,141.304 662.386,160.016C606.675,189.187 591.897,266.337 638.462,315.579C671.929,350.969 675.82,384.871 646.474,419.005C694.128,378.16 739.355,368.355 781.724,395.137C735.59,415.487 701.41,440.106 713.481,458.784C726.849,479.47 721.039,493.34 700.9,510.498C636.227,565.597 756.13,667.092 789.68,522.431C819.366,572.667 795.88,611.104 733.989,633.057C713.2,640.431 690.064,646.614 686.254,690.229C676.645,800.22 625.589,860.627 565.062,884.334C564.755,870.978 563.894,857.807 561.72,845.091C571.729,844.949 581.525,842.741 591.082,838.222L599.117,834.422L598.357,825.567C598.019,821.628 597.373,817.712 596.138,813.825C600.8,811.915 604.947,809.493 608.596,806.603L617.581,799.488L611.489,789.781C605.997,781.027 599.492,773.355 592.072,766.655C602,759.154 612.013,750.022 622.102,739.053L630.96,729.424L621.13,720.789C615.369,715.727 608.973,710.734 600.92,705.923C604.565,701.633 607.898,697.181 611.098,692.656L618.223,682.582L608.409,675.101C592.08,662.655 575.606,653.635 558.982,648.48C560.963,640.596 562.133,631.916 562.303,622.324L562.51,610.596L550.843,609.379C545.004,608.77 541.008,608.508 537.608,608.681C536.449,601.923 534.164,595.326 530.661,588.902L526.227,580.769L517.117,582.447C499.472,585.697 484.965,591.423 473.088,599.122C463.42,577.593 446.636,553.414 420.368,526.009L411.322,516.571L402.086,525.823C400.237,527.675 398.476,529.644 396.833,531.767C394.358,529.259 391.696,526.9 388.826,524.703L378.847,517.065L371.036,526.909C361.647,538.74 353.456,550.292 346.481,561.544ZM223.836,768.274C245.978,780.748 268.022,788.568 289.948,791.078C272.528,802.749 258.919,815.965 251.346,832.212C237.583,834.933 222.747,836.203 206.573,835.686C212.056,826.245 217.937,817.172 227.631,811.619C215.808,812.921 205.835,811.847 197.548,808.611C203.867,790.864 212.798,777.719 223.836,768.274ZM576.669,770.499C586.116,777.648 594.184,786.262 600.657,796.578C594.503,801.452 586.481,804.46 576.591,805.603C583.115,812.455 585.003,819.527 585.616,826.661C575.134,831.617 564.3,833.179 553.169,831.857C548.953,816.228 542.018,801.549 530.647,788.427C531.233,788.463 531.829,788.426 532.42,788.314C546.971,785.556 561.718,779.865 576.669,770.499ZM428.705,764.717C477.219,790.705 463.201,823.243 459.268,820.644C454.752,817.66 443.588,812.504 441.923,793.57C441.264,786.073 436.249,776.628 428.705,764.717ZM391.705,768.994C381.431,784.047 372.517,797.078 366.289,806.286C360.061,815.495 356.518,820.881 356.987,820.644C379.735,809.15 386.584,788.246 391.705,768.994ZM386.548,756.392C324.621,800.914 261.486,790.204 197.548,742.429C204.158,729.472 212.966,719.182 224.623,712.346C212.089,706.527 203.722,698.091 197.548,688.28C237.168,658.278 277.328,645.731 318.385,662.513C319.221,668.367 320.598,674.062 322.521,679.594C330.52,702.606 347.967,723.35 376.31,741.007C364.829,738.891 349.722,739.92 335.929,732.506C321.797,724.911 296.453,732.225 305.846,739.421C318.971,749.476 356.491,741.505 377.943,742.013C379.599,743.023 381.291,744.023 383.019,745.011C383.207,749.175 384.474,753.06 386.548,756.392ZM480.191,668.355C473.876,690.976 458.541,710.378 439.451,728.325C466.701,715.511 493.054,712.089 489.351,730.396C487.754,738.288 481.1,737.427 471.403,735.024C462.244,732.753 450.37,729.106 437.48,730.162C435.919,731.602 434.335,733.033 432.731,734.456C481.353,744.392 511.801,761.028 531.08,781.246C557.628,776.213 584.746,760.776 612.69,730.396C604.362,723.08 594.577,715.924 579.599,709.338C588.119,702.09 594.623,693.803 600.657,685.272C561.459,655.394 521.421,646.817 480.191,668.355ZM406.623,724.816C417.175,724.816 425.741,733.382 425.741,743.933C425.741,754.484 417.175,763.051 406.623,763.051C396.072,763.051 387.506,754.484 387.506,743.933C387.506,733.382 396.072,724.816 406.623,724.816ZM385.974,732.447C309.222,686.735 314.206,619.095 381.053,534.858C388.625,540.654 394.458,547.817 399.103,555.916C401.455,546.699 405.835,540.168 411.136,534.858C504.183,631.932 473.322,682.993 422.865,726.778C418.629,722.767 412.912,720.305 406.623,720.305C397.75,720.305 390.013,725.206 385.974,732.447ZM402.111,718.363C398.793,712.346 399.975,705.04 396.177,700.313C387.634,689.681 386.577,672.768 399.103,673.239C416.604,673.896 411.621,711.02 402.111,718.363ZM473.21,614.791C477.499,628.024 478.87,640.152 477.987,651.366C477.694,655.083 477.154,658.709 476.386,662.25C476.54,662.154 476.698,662.064 476.86,661.979C499.9,649.943 522.605,646.636 545.018,650.819C547.731,642.414 549.325,632.908 549.516,622.098C537.362,620.831 535.146,621.406 525.45,625.106C526.486,614.645 524.651,604.593 519.434,595.024C500.083,598.587 484.922,605.368 473.21,614.791ZM266.933,648.75C284.852,646.327 302.906,648.414 321.107,655.854C321.755,656.119 322.351,656.473 322.882,656.899C321.671,643.49 323.362,629.259 327.851,614.271C319.712,608.507 310.443,603.075 299.83,598.032C293.651,603.402 289.389,611.117 287.796,622.098C281.633,618.684 274.969,616.68 266.739,619.09C262.392,629.223 262.82,639.089 266.933,648.75Z" style="fill:white;"/>
</svg>
