<?xml version="1.0" encoding="UTF-8" standalone="no"?>
<!DOCTYPE svg PUBLIC "-//W3C//DTD SVG 1.1//EN" "http://www.w3.org/Graphics/SVG/1.1/DTD/svg11.dtd">
<svg width="100%" height="100%" viewBox="0 0 1000 1000" version="1.1" xmlns="http://www.w3.org/2000/svg" xmlns:xlink="http://www.w3.org/1999/xlink" xml:space="preserve" xmlns:serif="http://www.serif.com/" style="fill-rule:evenodd;clip-rule:evenodd;stroke-linejoin:round;stroke-miterlimit:2;">
    <g transform="matrix(1.9484,0,0,1.95056,-474.198,-456.392)">
        <path d="M628.342,491.444L726.697,491.444C732.24,501.197 732.393,514.19 726.697,524.444L640.309,524.444C633.853,526.668 628.762,531.829 624.414,537.86C602.68,582.482 554.169,611.819 500.024,611.819L499.929,611.819C445.783,611.819 397.272,582.482 375.539,537.86C371.191,531.829 366.099,526.668 359.644,524.444L273.256,524.444C267.559,514.19 267.713,501.197 273.256,491.444L372.651,491.444C372.651,491.444 373.037,491.284 373.099,491.452C375.045,491.603 381.857,497.203 382.227,501.166C395.31,538.052 458.502,576.443 499.952,576.477C541.403,576.443 604.373,538.751 617.725,501.166C618.096,497.203 625.948,491.603 627.895,491.452C627.957,491.284 628.342,491.444 628.342,491.444ZM500,407.258C545.841,407.258 583.058,444.475 583.058,490.316C583.058,536.157 545.841,573.374 500,573.374C454.159,573.374 416.942,536.157 416.942,490.316C416.942,444.475 454.159,407.258 500,407.258ZM500.021,455.771C519.087,455.771 534.566,471.25 534.566,490.316C534.566,509.382 519.087,524.861 500.021,524.861C480.956,524.861 465.477,509.382 465.477,490.316C465.477,471.25 480.956,455.771 500.021,455.771ZM628.39,489.187L726.744,489.187C732.287,479.435 732.441,466.442 726.744,456.187L640.356,456.187C633.901,453.964 628.809,448.803 624.461,442.772C602.728,398.15 554.217,368.813 500.071,368.813L499.976,368.813C445.831,368.813 397.32,398.15 375.586,442.772C371.238,448.803 366.147,453.964 359.691,456.187L273.303,456.187C267.607,466.442 267.76,479.435 273.303,489.187L372.699,489.187C372.699,489.187 373.084,489.348 373.146,489.18C375.093,489.029 381.904,483.429 382.275,479.466C397.376,441.868 458.55,404.189 500,404.155C541.45,404.189 601.769,441.844 617.773,479.466C618.143,483.429 625.996,489.029 627.942,489.18C628.004,489.348 628.39,489.187 628.39,489.187Z" style="fill:white;"/>
    </g>
</svg>
