<?xml version="1.0" encoding="UTF-8" standalone="no"?>
<!DOCTYPE svg PUBLIC "-//W3C//DTD SVG 1.1//EN" "http://www.w3.org/Graphics/SVG/1.1/DTD/svg11.dtd">
<svg width="100%" height="100%" viewBox="0 0 1000 1000" version="1.1" xmlns="http://www.w3.org/2000/svg" xmlns:xlink="http://www.w3.org/1999/xlink" xml:space="preserve" xmlns:serif="http://www.serif.com/" style="fill-rule:evenodd;clip-rule:evenodd;stroke-linejoin:round;stroke-miterlimit:2;">
    <g transform="matrix(2.20958,0,0,2.20958,-580.18,-602.365)">
        <path d="M454.787,539.302C457.114,549.583 461.711,557.039 470.428,564.038C471.971,565.277 474.117,565.439 475.828,564.444C480.488,561.734 484.644,558.596 488.269,555.012C491.531,559.248 495.394,562.645 500.184,564.723C501.794,565.421 503.656,565.182 505.038,564.101C512.269,558.439 518.56,551.039 522.874,542.78C527.354,552.924 531.002,562.887 533.72,572.653C532.637,572.943 531.573,573.271 530.528,573.637C529.49,570.208 527.881,567.121 525.458,564.535C524.258,563.254 522.454,562.733 520.757,563.177C512.578,565.314 504.599,569.687 498.622,575.734C490.88,571.025 483.942,569.559 474.863,571.13C472.913,571.468 471.372,572.971 470.986,574.913C470.299,578.372 469.987,581.778 470.065,585.126C466.483,585.054 463.05,585.631 459.841,587.136C458.253,587.881 457.2,589.436 457.097,591.187C456.601,599.642 458.302,608.6 462.222,616.161C455.349,622.07 451.81,628.216 450.499,637.338C450.217,639.297 451.171,641.227 452.898,642.194C455.976,643.917 459.118,645.266 462.327,646.226C461.151,649.611 460.639,653.054 461.079,656.571C461.297,658.312 462.45,659.794 464.084,660.433C471.963,663.514 480.998,664.665 489.395,663.28C492.888,671.61 497.637,676.861 505.889,680.918C507.665,681.792 509.796,681.481 511.249,680.137C513.838,677.742 516.092,675.171 517.997,672.416C518.426,672.741 518.861,673.052 519.302,673.348C513.899,680.807 507.337,688.013 499.531,694.949C490.39,687.307 485.201,678.892 483.784,669.737L483.734,669.948C481.596,678.885 475.807,686.818 466.196,693.701C421.833,647.901 424.466,595.534 454.787,539.302ZM510.509,624.158L538.157,648.529C537.523,657.023 533.756,665.512 528.352,672.101C524.243,671.312 520.81,668.921 517.69,665.78C517.498,665.587 517.226,665.497 516.957,665.537C516.687,665.577 516.453,665.742 516.325,665.982C514.247,669.895 511.452,673.432 508,676.625C500.054,672.718 495.908,667.49 492.784,658.793L507.478,624.841C507.986,624.938 508.521,624.934 509.057,624.815C509.598,624.694 510.088,624.466 510.509,624.158ZM504.322,621.52C504.337,621.629 504.357,621.737 504.381,621.845C504.599,622.821 505.164,623.63 505.918,624.172L491.274,658.018C483,660.039 473.762,659.08 465.826,655.977C465.307,651.825 466.52,647.821 468.542,643.883C468.667,643.641 468.669,643.354 468.548,643.111C468.426,642.867 468.197,642.695 467.929,642.648C463.565,641.88 459.338,640.316 455.234,638.019C456.494,629.255 460.186,623.696 467.492,618.037L504.322,621.52ZM511.929,619.784L543.648,601.022C551.53,604.25 558.44,610.455 563.036,617.631C561.016,621.295 557.681,623.821 553.73,625.818C553.487,625.941 553.317,626.172 553.272,626.44C553.227,626.709 553.311,626.983 553.501,627.178C556.579,630.364 559.08,634.115 561.05,638.385C554.879,644.735 548.625,647.062 539.388,647.346L511.636,622.876C512.079,622.07 512.242,621.106 512.026,620.139C511.999,620.018 511.966,619.9 511.929,619.784ZM504.48,619.778L467.796,616.301C463.316,609.056 461.374,599.974 461.873,591.467C465.661,589.69 469.844,589.607 474.214,590.313C474.483,590.357 474.756,590.27 474.95,590.08C475.145,589.889 475.237,589.618 475.199,589.348C474.581,584.961 474.763,580.457 475.679,575.845C484.404,574.335 490.831,576.128 498.471,581.328C498.471,581.328 504.602,608.791 506.534,617.448C505.545,617.913 504.81,618.769 504.48,619.778ZM508.207,617.075L500.178,581.113C505.684,574.614 513.721,569.96 521.966,567.806C524.827,570.859 526.199,574.811 526.877,579.186C526.919,579.455 527.086,579.688 527.327,579.814C527.568,579.94 527.855,579.944 528.1,579.825C532.081,577.881 536.421,576.662 541.091,576.108C545.223,583.939 545.504,590.606 542.919,599.478C542.919,599.479 518.689,613.8 511.057,618.31C510.329,617.537 509.3,617.075 508.207,617.075ZM576.799,471.401C576.006,479.246 576.88,487.448 579.599,494.785C571.117,500.237 566.316,506.403 563.552,516.203C563.015,518.108 563.706,520.147 565.29,521.332C568.529,523.756 571.903,525.744 575.418,527.279C573.529,530.886 572.389,534.662 572.359,538.674C572.345,540.428 573.293,542.049 574.828,542.898C583.048,547.44 592.843,550.003 602.273,549.624C604.839,559.339 609.219,565.795 617.667,571.44C619.313,572.54 621.466,572.513 623.083,571.372C626.388,569.041 629.323,566.446 631.868,563.578C634.715,566.49 637.954,568.74 641.76,570.009C643.424,570.564 645.259,570.163 646.54,568.965C653.396,562.556 658.857,554.039 661.413,544.959C671.462,545.528 678.964,543.359 686.952,537.062C687.969,536.26 688.594,535.103 688.741,533.869C690.05,536.439 691.312,539.11 692.52,541.872C682.428,548.204 672.82,550.538 663.676,549.057L663.862,549.17C671.7,553.966 677.456,561.922 681.031,573.19C623.686,601.267 574.64,582.491 530.476,536.133C540.905,537.063 549.38,534.985 558.687,528.888C560.342,527.803 561.159,525.811 560.741,523.877C559.604,518.608 557.904,513.686 555.616,509.13C560.652,507.337 565.076,504.712 568.533,500.799C569.694,499.484 570.043,497.639 569.441,495.991C566.326,487.459 561.31,479.277 554.892,472.661C562.401,471.892 569.712,471.462 576.799,471.401ZM445.842,534.261C398.737,576.237 348.868,590.692 294.317,558.718C298.76,547.663 305.161,540.128 313.429,535.951L313.213,535.969C304.053,536.696 294.719,533.643 285.203,526.628C315.125,470.147 365.915,456.54 428.969,468.148C419.577,473.598 413.755,480.332 409.709,491.001C409.008,492.851 409.518,494.943 410.993,496.262C415.01,499.856 419.278,502.84 423.807,505.18C420.786,509.591 418.75,514.315 418.254,519.512C418.087,521.259 418.889,522.956 420.345,523.936C427.884,529.01 436.757,532.682 445.842,534.261ZM630.71,510.367L657.442,541.082C655.511,550.292 650.15,559.041 643.273,565.47C638.887,564.008 635.476,560.89 632.516,556.996C632.334,556.757 632.049,556.618 631.748,556.622C631.448,556.627 631.167,556.774 630.992,557.019C628.146,561.001 624.571,564.468 620.325,567.463C612.192,562.027 608.412,555.698 606.257,545.718L627.291,510.674C627.833,510.853 628.419,510.928 629.024,510.875C629.634,510.821 630.204,510.643 630.71,510.367ZM492.507,490.656L522.307,531.64C518.911,542.848 511.314,553.111 502.088,560.334C496.81,558.044 492.92,553.807 489.674,548.658C489.474,548.342 489.136,548.139 488.763,548.112C488.39,548.085 488.026,548.236 487.783,548.521C483.821,553.148 479.012,557.057 473.423,560.308C463.931,552.685 459.933,544.427 458.347,531.821L488.235,490.664C488.888,490.945 489.606,491.101 490.361,491.101C491.124,491.101 491.85,490.942 492.507,490.656ZM624.318,506.578C624.319,506.698 624.324,506.82 624.335,506.942C624.432,508.042 624.933,509.011 625.679,509.713L604.716,544.65C595.36,545.659 585.383,543.264 577.143,538.71C577.178,534.088 579.089,529.88 581.878,525.861C582.049,525.614 582.093,525.3 581.996,525.016C581.899,524.731 581.672,524.51 581.386,524.419C576.719,522.943 572.316,520.614 568.157,517.502C570.812,508.087 575.664,502.536 584.489,497.402L624.318,506.578ZM632.902,505.783L670.371,489.852C678.533,494.535 685.197,502.337 689.187,510.864C686.441,514.583 682.421,516.864 677.803,518.476C677.519,518.575 677.299,518.803 677.211,519.091C677.122,519.378 677.175,519.69 677.354,519.932C680.262,523.87 682.454,528.341 683.99,533.304C676.308,539.36 669.12,540.999 658.963,539.965L632.131,509.127C632.733,508.309 633.052,507.277 632.956,506.186C632.944,506.05 632.926,505.915 632.902,505.783ZM495.723,485.211L543.906,469.536C553.516,476.229 560.929,486.626 564.947,497.632C561.139,501.944 555.907,504.334 550.007,505.831C549.644,505.923 549.347,506.181 549.206,506.528C549.064,506.875 549.096,507.268 549.291,507.587C552.468,512.784 554.7,518.566 556.065,524.886C545.882,531.558 536.792,532.808 524.313,530.421L494.403,489.273C495.239,488.324 495.746,487.079 495.746,485.716C495.746,485.546 495.738,485.377 495.723,485.211ZM484.995,485.263C484.983,485.412 484.976,485.563 484.976,485.716C484.976,487.091 485.492,488.346 486.342,489.298L456.553,530.329C444.845,530.563 432.736,526.509 423.016,519.967C423.563,514.24 426.39,509.231 430.284,504.552C430.523,504.265 430.612,503.881 430.522,503.517C430.433,503.154 430.176,502.855 429.83,502.711C424.205,500.373 419.001,497.008 414.183,492.697C418.499,481.314 425.118,474.96 436.617,469.556L484.995,485.263ZM624.744,504.693L585.075,495.545C581.224,486.959 580.418,476.729 582.203,467.485C586.61,466.091 591.203,466.608 595.887,468.018C596.175,468.105 596.487,468.05 596.727,467.869C596.968,467.689 597.108,467.405 597.106,467.104C597.068,462.21 597.922,457.303 599.597,452.385C609.372,452.002 616.151,454.901 623.76,461.708C623.76,461.708 626.477,492.677 627.333,502.44C626.182,502.805 625.253,503.635 624.744,504.693ZM629.219,502.274L625.661,461.721C632.637,455.405 642.117,451.478 651.46,450.319C654.148,454.079 655.076,458.607 655.182,463.497C655.188,463.798 655.337,464.077 655.583,464.251C655.829,464.424 656.142,464.47 656.428,464.375C661.071,462.826 666.001,462.122 671.196,462.195C674.581,471.373 673.919,478.716 669.797,488.056C669.797,488.056 641.176,500.213 632.162,504.042C631.476,503.089 630.417,502.434 629.219,502.274ZM485.728,482.972L437.545,467.316C433.704,456.254 433.818,443.484 437.036,432.219C442.652,430.969 448.289,432.11 453.942,434.367C454.29,434.506 454.682,434.472 455,434.274C455.318,434.077 455.523,433.74 455.553,433.367C456.038,427.295 457.631,421.306 460.242,415.391C472.402,415.978 480.49,420.31 489.183,429.576C489.183,429.576 489.183,468.265 489.183,480.461C487.716,480.789 486.474,481.716 485.728,482.972ZM491.539,480.461L491.539,429.799C500.874,422.728 513.053,418.89 524.762,418.469C527.686,423.424 528.343,429.138 527.943,435.212C527.918,435.585 528.072,435.948 528.358,436.19C528.644,436.431 529.028,436.522 529.392,436.435C535.317,435.02 541.505,434.684 547.937,435.339C551.136,447.085 549.516,456.116 543.39,467.247C543.39,467.248 506.586,479.206 494.994,482.972C494.249,481.716 493.007,480.789 491.539,480.461ZM569.093,320.167C580.142,315.51 592.59,312.414 606.573,311.037C609.477,322.592 608.728,332.451 604.493,340.69L604.658,340.548C611.641,334.576 620.987,331.56 632.808,331.641C641.818,395.05 608.574,435.95 550.523,463.623C554.812,453.802 555.524,444.992 552.553,434.082C552.033,432.173 550.391,430.78 548.422,430.58C543.06,430.033 537.854,430.128 532.814,430.897C532.665,425.553 531.536,420.535 528.882,416.038C527.99,414.527 526.343,413.625 524.59,413.688C515.661,414.009 506.485,416.184 498.311,420.119C500.821,408.555 503.977,397.715 507.861,387.694C509.516,388.229 511.2,388.654 512.896,388.954C513.562,396.337 516.021,401.725 521.47,407.095C522.879,408.485 524.999,408.863 526.802,408.046C529.267,406.93 531.55,405.624 533.644,404.122C535.308,406.382 537.303,408.268 539.744,409.636C541.274,410.494 543.151,410.445 544.635,409.509C550.528,405.793 555.724,400.416 559.027,394.224C566.266,395.879 572.156,395.208 578.954,391.682C580.711,390.77 581.726,388.871 581.506,386.904C581.207,384.215 580.67,381.64 579.888,379.184C582.552,378.3 584.962,376.985 587.017,375.087C588.306,373.897 588.84,372.096 588.408,370.396C586.696,363.647 583.191,357.047 578.328,351.994C582.143,345.616 583.326,339.805 582.073,332.246C581.749,330.294 580.257,328.742 578.318,328.343C575.668,327.797 573.053,327.512 570.476,327.496C570.46,324.952 570.043,322.497 569.093,320.167ZM430.437,457.924C376.038,426.111 346.923,383.163 360.466,321.438C372.353,322.247 381.498,326.006 388.025,332.579L387.941,332.379C384.419,323.892 384.439,314.072 388.169,302.854C451.28,313.884 479.903,358.165 488.274,421.97C480.151,414.653 471.923,411.165 460.473,410.612C458.496,410.517 456.664,411.648 455.865,413.459C453.688,418.39 452.17,423.371 451.344,428.401C446.215,426.892 441.093,426.415 435.997,427.549C434.284,427.93 432.918,429.218 432.436,430.905C429.978,439.508 429.213,448.922 430.437,457.924ZM540.59,362.928L556.015,389.43C553.283,395.968 548.08,401.681 542.083,405.462C539.046,403.76 536.964,400.971 535.326,397.672C535.225,397.469 535.034,397.326 534.811,397.287C534.588,397.248 534.36,397.317 534.196,397.473C531.527,400.016 528.392,402.074 524.828,403.688C519.582,398.517 517.682,393.3 517.5,385.614L538.018,362.671C538.393,362.881 538.817,363.018 539.271,363.065C539.73,363.112 540.177,363.06 540.59,362.928ZM542.86,359.848L572.828,353.368C578.203,357.987 582.027,364.701 583.771,371.573C581.214,373.935 577.918,375.053 574.274,375.592C574.05,375.625 573.855,375.762 573.749,375.962C573.643,376.162 573.638,376.401 573.736,376.605C575.329,379.929 576.318,383.546 576.752,387.435C570.212,390.826 564.664,391.021 557.298,388.819L541.816,362.212C542.378,361.692 542.76,360.974 542.843,360.153C542.854,360.051 542.859,359.949 542.86,359.848ZM536.399,359.221C536.382,359.31 536.369,359.401 536.36,359.493C536.275,360.32 536.509,361.107 536.962,361.733L516.512,384.606C509.449,384.028 502.408,380.845 496.958,376.31C497.639,372.896 499.648,370.054 502.279,367.476C502.441,367.318 502.518,367.092 502.486,366.868C502.455,366.644 502.318,366.448 502.119,366.34C498.876,364.588 495.95,362.242 493.314,359.351C496.61,352.764 500.985,349.345 508.239,346.797L536.399,359.221ZM540.633,356.732L543.741,326.233C549.795,322.549 557.362,320.986 564.437,321.451C565.893,324.613 565.938,328.093 565.324,331.725C565.287,331.949 565.357,332.176 565.514,332.339C565.672,332.502 565.897,332.581 566.122,332.551C569.775,332.062 573.521,332.239 577.353,333.029C578.558,340.296 577.029,345.633 572.658,351.958C572.658,351.959 549.768,356.899 542.559,358.455C542.187,357.654 541.496,357.019 540.633,356.732ZM536.981,357.887L508.935,345.506C507.302,338.61 508.154,330.93 510.782,324.346C514.239,323.938 517.563,324.971 520.828,326.677C521.028,326.781 521.267,326.785 521.47,326.685C521.674,326.586 521.818,326.396 521.859,326.173C522.523,322.548 523.85,319.04 525.784,315.639C533.069,316.739 537.672,319.843 542.337,325.954C542.337,325.954 539.963,349.245 539.215,356.587C538.311,356.694 537.507,357.177 536.981,357.887Z" style="fill:white;"/>
    </g>
</svg>
