<?xml version="1.0" encoding="UTF-8" standalone="no"?>
<!DOCTYPE svg PUBLIC "-//W3C//DTD SVG 1.1//EN" "http://www.w3.org/Graphics/SVG/1.1/DTD/svg11.dtd">
<svg width="100%" height="100%" viewBox="0 0 1000 1000" version="1.1" xmlns="http://www.w3.org/2000/svg" xmlns:xlink="http://www.w3.org/1999/xlink" xml:space="preserve" xmlns:serif="http://www.serif.com/" style="fill-rule:evenodd;clip-rule:evenodd;stroke-linejoin:round;stroke-miterlimit:2;">
    <g transform="matrix(1.98805,0,0,1.98805,-393.919,-530.63)">
        <path d="M445.563,417.154C443.353,446.078 452.308,461.685 465,477L589,549C645.903,565.603 642.041,592.747 630,620C648.279,625.167 660.003,633.008 664,644L676,654L650,690C624.607,682.648 590.135,685.936 555,690C433.907,700.445 326.872,697.653 225,690C220.496,676.808 224.17,665.953 245,660C259.83,661.44 273.323,660.105 285,655C292.474,644.862 290.693,634.895 285,625C278.873,624.929 273.933,623.177 270,620C264.654,610.406 263.822,588.046 265,560C249.404,529.072 251.931,501.159 265,475C277.48,445.306 283.227,413.327 285,380C286.945,371.151 295.178,366.09 310,365L425,340C426.639,343.844 428.485,347.731 430.395,351.651C442.191,356.326 454.657,363.42 459.71,375C466.619,390.836 471.498,404.23 480,415C480.59,422.792 477.257,424.459 470,420L460,400C464.156,416.49 458.697,421.431 445.563,417.154ZM540,628L600,626C631.801,635.49 632.348,645.168 607,655C607,655 559.664,662.981 548,660C529.644,655.308 501.52,631.767 540,628ZM360,575C353.236,581.08 351.767,592.259 354,607C351.305,615.129 346.19,620.479 336,620C320.469,632.011 316.11,644.898 340,660L473,660C500.424,648.442 499.271,635.034 473,620L360,575ZM434.272,359.564C441.515,374.417 448.295,389.603 447.02,404.47L450,400C454.563,388.842 446.732,374.75 434.272,359.564Z" style="fill:white;"/>
    </g>
</svg>
