<?xml version="1.0" encoding="UTF-8" standalone="no"?>
<!DOCTYPE svg PUBLIC "-//W3C//DTD SVG 1.1//EN" "http://www.w3.org/Graphics/SVG/1.1/DTD/svg11.dtd">
<svg width="100%" height="100%" viewBox="0 0 1000 1000" version="1.1" xmlns="http://www.w3.org/2000/svg" xmlns:xlink="http://www.w3.org/1999/xlink" xml:space="preserve" xmlns:serif="http://www.serif.com/" style="fill-rule:evenodd;clip-rule:evenodd;stroke-linejoin:round;stroke-miterlimit:2;">
    <g transform="matrix(2.48599,0,0,2.48599,-596.322,-331.316)">
        <path d="M441,214.897C439.486,223.497 435.855,231.851 421,238.897C430.96,249.119 436.673,259.484 441,269.897L441,270C445.327,259.588 451.04,249.222 461,239C446.145,231.955 442.514,223.601 441,215L441,214.897ZM492.223,484.567L506,433L522,422C513.536,451.038 523.98,459.064 548,452C551.154,453.744 540.886,447.538 545,439C550.026,428.569 568.524,429.808 573,440C577.396,450.011 577.626,486.191 557,489C547.024,472.378 536.892,463.51 526,492C511.769,490.937 501.556,487.962 492.223,484.567ZM389.777,484.464L376,432.897L360,421.897C368.464,450.935 358.02,458.96 334,451.897C330.846,453.641 341.114,447.434 337,438.897C331.974,428.466 313.476,429.705 309,439.897C304.604,449.908 304.374,486.087 325,488.897C334.976,472.274 345.108,463.406 356,491.897C370.231,490.834 380.444,487.858 389.777,484.464ZM470,405C475.519,405 480,409.481 480,415C480,420.519 475.519,425 470,425C464.481,425 460,420.519 460,415C460,409.481 464.481,405 470,405ZM412,404.897C406.481,404.897 402,409.377 402,414.897C402,420.416 406.481,424.897 412,424.897C417.519,424.897 422,420.416 422,414.897C422,409.377 417.519,404.897 412,404.897ZM441,324.897C434.15,322.023 429.628,321.612 427.732,323.897C425.94,326.056 424.789,333.534 432.113,344.897C437.022,352.513 440.314,362.192 441,374.897L441,375C441.686,362.296 444.978,352.616 449.887,345C457.211,333.638 456.06,326.159 454.268,324C452.372,321.715 447.85,322.127 441,325L441,324.897ZM441,426.897C438.504,443.196 429.787,460.528 408.781,479.897C417.278,489.776 428.293,496.797 441,501.897C421.255,508.01 405.1,505.632 394.59,489.897C370.633,504.731 326.642,503.05 312,492.889C299.193,484.002 293.029,464.425 302,435.82C304.005,429.428 317.355,410.302 338.981,408.822C351.701,407.952 368.664,413.903 387.221,429.897C400.352,441.213 401.273,465.085 406,472.387C427.494,446.498 440.768,426.455 432.958,402.913C427.967,387.868 416.345,362.634 388.795,351.053C377.936,346.489 322.57,339.164 339.565,384.897C341.294,384.651 342.813,384.052 344,382.897C332.094,367.839 346.385,362.299 351,361.742C356.167,361.117 371.756,367.462 360,383.897C345.324,394.43 328.895,399.028 309,391.897L289,402.897C292.88,417.717 286.812,428.647 279,438.897C280.604,421.207 277.717,406.208 262,398.897C256.986,390.587 262.486,385.94 266,384.783C269.544,383.616 277.737,385.065 285,394.897C291,391.897 297,388.897 303,385.897C293.309,373.551 284.661,360.697 280,345.897C287.641,342.724 295.687,341.626 304,341.897C301.261,373.175 308.936,390.012 331,386.897C315.394,356.898 342.147,341.215 357,338.563C374.4,335.456 416.509,340.937 438,391.897C435.908,368.732 422.694,347.607 408.26,333.897C403.135,329.028 398.664,323.77 398.743,318.897C398.937,306.778 421.262,293.086 438,305.897C438.82,280.039 432.488,262.283 417,254.897C405.767,261.839 394.857,261.003 384,258.897C383.528,266.793 380.279,274.437 375,281.897C372.781,285.032 370.842,285.321 369,284.094C367.509,283.101 367.415,281.718 369,277.897C379.334,252.981 381.747,228.554 371,202.897C369.121,198.411 377.161,194.483 379,198.897C381.926,205.92 384.328,213.386 385,221.897C396.425,222.503 406.438,227.067 416,232.897C426.538,226.899 434.291,219.354 435,207.897C413.34,207.554 417.669,191.405 441,163.697L441,163.801C464.331,191.508 468.66,207.658 447,208C447.709,219.457 455.462,227.002 466,233C475.562,227.171 485.575,222.606 497,222C497.672,213.49 500.074,206.023 503,199C504.839,194.586 512.879,198.515 511,203C500.253,228.657 502.666,253.085 513,278C514.585,281.822 514.491,283.205 513,284.198C511.158,285.425 509.219,285.136 507,282C501.721,274.541 498.472,266.896 498,259C487.143,261.106 476.233,261.942 465,255C449.512,262.386 443.18,280.143 444,306C460.738,293.189 483.063,306.882 483.257,319C483.336,323.874 478.865,329.132 473.74,334C459.306,347.71 446.092,368.835 444,392C465.491,341.041 507.6,335.559 525,338.666C539.853,341.319 566.606,357.001 551,387C573.064,390.115 580.739,373.278 578,342C586.313,341.729 594.359,342.827 602,346C597.339,360.801 588.691,373.655 579,386C585,389 591,392 597,395C604.263,385.169 612.456,383.719 616,384.886C619.514,386.043 625.014,390.691 620,399C604.283,406.312 601.396,421.311 603,439C595.188,428.751 589.12,417.82 593,403L573,392C553.105,399.132 536.676,394.533 522,384C510.244,367.565 525.833,361.221 531,361.845C535.615,362.402 549.906,367.942 538,383C539.187,384.155 540.706,384.754 542.435,385C559.43,339.267 504.064,346.592 493.205,351.157C465.655,362.737 454.033,387.972 449.042,403.017C441.232,426.559 454.506,446.601 476,472.49C480.727,465.189 481.648,441.316 494.779,430C513.336,414.007 530.299,408.055 543.019,408.926C564.645,410.405 577.995,429.531 580,435.923C588.971,464.529 582.807,484.105 570,492.993C555.358,503.154 511.367,504.834 487.41,490C476.9,505.735 460.745,508.114 441,502C453.707,496.9 464.722,489.88 473.219,480C452.213,460.631 443.496,443.3 441,427L441,426.897Z" style="fill:white;"/>
    </g>
</svg>
