<?xml version="1.0" encoding="UTF-8" standalone="no"?>
<!DOCTYPE svg PUBLIC "-//W3C//DTD SVG 1.1//EN" "http://www.w3.org/Graphics/SVG/1.1/DTD/svg11.dtd">
<svg width="100%" height="100%" viewBox="0 0 1000 1000" version="1.1" xmlns="http://www.w3.org/2000/svg" xmlns:xlink="http://www.w3.org/1999/xlink" xml:space="preserve" xmlns:serif="http://www.serif.com/" style="fill-rule:evenodd;clip-rule:evenodd;stroke-linejoin:round;stroke-miterlimit:2;">
    <g transform="matrix(1.52679,0,0,1.52741,-263.397,-471.206)">
        <path d="M500,760C484.441,774.498 466.411,781.378 445,777.839C461.726,803.689 480.382,811.372 500,810L500.46,810.03C519.909,811.251 538.404,803.487 555,777.839C533.756,781.35 515.84,774.604 500.365,760.338L500,760ZM635.265,623.735C665.215,623.735 689.531,648.05 689.531,678C689.531,707.95 665.215,732.265 635.265,732.265C605.315,732.265 581,707.95 581,678C581,648.05 605.315,623.735 635.265,623.735ZM364.735,623.735C334.785,623.735 310.469,648.05 310.469,678C310.469,707.95 334.785,732.265 364.735,732.265C394.685,732.265 419,707.95 419,678C419,648.05 394.685,623.735 364.735,623.735ZM714.001,560C696.712,521.203 676.331,491.34 653,470C685.151,450.613 714.155,467.668 725.415,482C736.869,496.579 749.534,535.904 714.001,560ZM285.999,560C303.288,521.203 323.669,491.34 347,470C314.849,450.613 285.845,467.668 274.585,482C263.131,496.579 250.466,535.904 285.999,560ZM499.004,871.995C477.991,871.935 451.486,874.113 425,873.34C342.543,874.428 292.736,835.416 267.855,800C241.998,763.196 245.226,714.79 275.632,655.543C274.011,636.72 273.903,617.437 280,596.262C173.673,558.994 204.422,455.899 230,431.249C250.476,411.515 323.186,362.204 390,442.876C415.859,428.751 445.844,413.696 500,414.891L501.265,414.866C554.623,413.931 584.343,428.861 610,442.876C676.814,362.204 749.524,411.515 770,431.249C795.578,455.899 826.327,558.994 720,596.262C726.097,617.437 725.989,636.72 724.368,655.543C754.774,714.79 758.002,763.196 732.145,800C707.264,835.416 657.457,874.428 575,873.34C548.095,874.125 521.169,871.866 500,872L499.004,871.995Z" style="fill:white;"/>
    </g>
</svg>
