<?xml version="1.0" encoding="UTF-8" standalone="no"?>
<!DOCTYPE svg PUBLIC "-//W3C//DTD SVG 1.1//EN" "http://www.w3.org/Graphics/SVG/1.1/DTD/svg11.dtd">
<svg width="100%" height="100%" viewBox="0 0 1000 1000" version="1.1" xmlns="http://www.w3.org/2000/svg" xmlns:xlink="http://www.w3.org/1999/xlink" xml:space="preserve" xmlns:serif="http://www.serif.com/" style="fill-rule:evenodd;clip-rule:evenodd;stroke-linejoin:round;stroke-miterlimit:2;">
    <g transform="matrix(1.28107,0,0,1.28107,-191.779,-195.575)">
        <path d="M691.732,314.298C709.192,306.663 728.471,302.427 748.732,302.427C827.4,302.427 891.268,366.295 891.268,444.963C891.268,503.249 856.209,553.41 806.044,575.491C807.81,585.38 808.732,595.565 808.732,605.963C808.732,701.189 731.421,778.5 636.195,778.5C583.411,778.5 536.132,754.746 504.475,717.357C471.912,757.69 422.081,783.5 366.268,783.5C268.283,783.5 188.732,703.948 188.732,605.963C188.732,507.978 268.283,428.427 366.268,428.427C366.856,428.427 367.444,428.429 368.017,428.435C377.517,374.519 424.64,333.5 481.268,333.5C541.26,333.5 590.585,379.537 595.811,438.187C599.326,437.343 602.882,436.607 606.474,435.982C607.543,418.813 618.07,387.273 618.07,387.273C617.115,386.408 616.56,385.862 616.56,385.862C616.56,385.862 595.347,392.111 589.888,385.579C584.476,379.103 594.343,359.281 594.343,359.281C594.343,359.281 581.845,341.037 586.371,333.827C590.857,326.678 612.758,329.937 612.758,329.937C612.758,329.937 626.247,312.414 634.503,314.489C639.294,315.694 642.537,323.674 644.404,330.086C647.238,326.793 650.313,324.219 650.313,324.219C650.313,324.219 647.354,308.728 652.37,305.308C657.343,301.917 670.725,310.299 670.725,310.299C670.725,310.299 684.543,302.698 689.346,306.412C691.179,307.829 691.738,310.97 691.732,314.298ZM323.488,493.729L377.969,555.814L460,546.131L417.789,617.131L452.347,692.154L371.778,673.95L311.106,730L303.522,647.749L231.467,607.366L307.349,574.737L323.488,493.729ZM607.755,493.729L662.236,555.814L744.267,546.131L702.056,617.131L736.614,692.154L656.045,673.95L595.373,730L587.789,647.749L515.733,607.366L591.615,574.737L607.755,493.729ZM722.722,348.241L765.039,396.464L828.754,388.943L795.967,444.091L822.81,502.363L760.23,488.223L713.104,531.759L707.214,467.872L651.246,436.506L710.186,411.162L722.722,348.241ZM467.532,383.788L498.068,418.585L544.044,413.158L520.386,452.952L539.755,495.001L494.598,484.797L460.592,516.212L456.342,470.112L415.956,447.479L458.486,429.191L467.532,383.788ZM631.968,325.258L637.597,346.083L657.092,355.319L639.026,367.108L636.266,388.503L619.472,374.965L598.271,378.951L605.957,358.795L595.614,339.864L617.159,340.945L631.968,325.258ZM656.913,311.759L670.684,318.616L684.841,312.593L682.574,327.809L692.678,339.411L677.505,341.958L669.593,355.152L662.483,341.51L647.489,338.062L658.267,327.084L656.913,311.759Z" style="fill:white;"/>
    </g>
</svg>
