<?xml version="1.0" encoding="UTF-8" standalone="no"?>
<!DOCTYPE svg PUBLIC "-//W3C//DTD SVG 1.1//EN" "http://www.w3.org/Graphics/SVG/1.1/DTD/svg11.dtd">
<svg width="100%" height="100%" viewBox="0 0 1000 1000" version="1.1" xmlns="http://www.w3.org/2000/svg" xmlns:xlink="http://www.w3.org/1999/xlink" xml:space="preserve" xmlns:serif="http://www.serif.com/" style="fill-rule:evenodd;clip-rule:evenodd;stroke-linejoin:round;stroke-miterlimit:2;">
    <g transform="matrix(0.924025,0,0,0.924025,37.9877,82.6942)">
        <path d="M131.291,920L129.33,330.809L13,330.809L500,-16.765L987,330.809L870.67,330.809L868.709,920L131.291,920ZM740,593.579C740,586.085 733.915,580 726.421,580L526.58,580C519.085,580 513.001,586.085 513.001,593.579L513.001,800.42C513.001,807.914 519.085,813.999 526.58,813.999L726.421,813.999C733.915,813.999 740,807.914 740,800.42L740,593.579ZM260,593.579C260,586.085 266.085,580 273.579,580L473.42,580C480.915,580 486.999,586.085 486.999,593.579L486.999,800.42C486.999,807.914 480.915,813.999 473.42,813.999L273.579,813.999C266.085,813.999 260,807.914 260,800.42L260,593.579ZM740,339.58C740,332.086 733.915,326.001 726.421,326.001L526.58,326.001C519.085,326.001 513.001,332.086 513.001,339.58L513.001,546.421C513.001,553.915 519.085,560 526.58,560L726.421,560C733.915,560 740,553.915 740,546.421L740,339.58ZM260,339.58C260,332.086 266.085,326.001 273.579,326.001L473.42,326.001C480.915,326.001 486.999,332.086 486.999,339.58L486.999,546.421C486.999,553.915 480.915,560 473.42,560L273.579,560C266.085,560 260,553.915 260,546.421L260,339.58Z" style="fill:white;"/>
    </g>
</svg>
