<?xml version="1.0" encoding="UTF-8" standalone="no"?>
<!DOCTYPE svg PUBLIC "-//W3C//DTD SVG 1.1//EN" "http://www.w3.org/Graphics/SVG/1.1/DTD/svg11.dtd">
<svg width="100%" height="100%" viewBox="0 0 1000 1000" version="1.1" xmlns="http://www.w3.org/2000/svg" xmlns:xlink="http://www.w3.org/1999/xlink" xml:space="preserve" xmlns:serif="http://www.serif.com/" style="fill-rule:evenodd;clip-rule:evenodd;stroke-linejoin:round;stroke-miterlimit:2;">
    <g transform="matrix(3.48837,0,0,3.48837,-1244.19,-891.86)">
        <path d="M609.417,389.179L609,389L609,362C609.17,371.057 609.394,380.112 609.417,389.179L623,395C615.795,329.087 597.018,271.477 500,270L500,375C504.13,357.667 506.553,340.333 506,323C514.576,337.384 521.746,353.142 527.791,370C536.07,353.681 537.473,336.517 536,319C541.94,334.614 546.222,351.329 550,369C553.094,354.667 552.814,340.333 551,326C557.884,339.302 564.262,353.003 569,368C574.927,354.369 574.884,339.825 573,325C581.54,342.436 587.921,361.402 592,382C594.33,371.575 594.498,361.269 594,351C599.086,366.651 602.308,383.805 603,403C599.158,478.204 565.781,506.766 525.23,516.932L526,528C529.566,524.546 532.557,520.876 535,517C537.086,518.708 538.252,521.18 539,524C544.046,519.525 547.756,514.864 550,510C550.974,512.267 551.543,515.061 552,518C557.825,512.469 562.896,506.633 566,500C566.757,502.225 566.921,504.602 567,507C572.99,500.07 577.315,493.052 581,486C581.564,488.302 581.474,491.026 581,494C585.513,487.3 588.285,481.141 591,475L591,486C607.085,453.211 609.499,421.129 609.417,389.179ZM390.583,389.179L391,389L391,362C390.83,371.057 390.606,380.112 390.583,389.179L377,395C384.205,329.087 402.982,271.477 500,270L500,375C495.87,357.667 493.447,340.333 494,323C485.424,337.384 478.254,353.142 472.209,370C463.93,353.681 462.527,336.517 464,319C458.06,334.614 453.778,351.329 450,369C446.906,354.667 447.186,340.333 449,326C442.116,339.302 435.738,353.003 431,368C425.073,354.369 425.116,339.825 427,325C418.46,342.436 412.079,361.402 408,382C405.67,371.575 405.502,361.269 406,351C400.914,366.651 397.692,383.805 397,403C400.842,478.204 434.219,506.766 474.77,516.932L474,528C470.434,524.546 467.443,520.876 465,517C462.914,518.708 461.748,521.18 461,524C455.954,519.525 452.244,514.864 450,510C449.026,512.267 448.457,515.061 448,518C442.175,512.469 437.104,506.633 434,500C433.243,502.225 433.079,504.602 433,507C427.01,500.07 422.685,493.052 419,486C418.436,488.302 418.526,491.026 419,494C414.487,487.3 411.715,481.141 409,475L409,486C392.915,453.211 390.501,421.129 390.583,389.179ZM499.214,468.005C482.71,468.097 466.292,466.952 450,464.5C449.356,465.008 449.315,465.664 450,466.5C466.086,468.757 482.815,470.079 500,470L500,516.786C477.635,516.654 459.088,510.599 442.684,499.299C438.287,478.82 437.435,458.309 439.906,437.769C441.248,437.922 442.615,438 444,438C463.869,438 480,421.869 480,402C480,394.3 477.577,387.161 473.452,381.303L474.451,381.596L475.295,378.717L451.397,371.713C453.715,362.788 456.273,354.6 460,350C463.193,363.354 467.556,370.191 472.062,376.225C478.285,361.838 484.298,348.859 490,337.976C491.114,353.644 498.928,379.463 499.901,382.629L500,382.951L500.099,382.629C501.072,379.463 508.886,353.644 510,337.976C515.702,348.859 521.715,361.838 527.938,376.225C532.444,370.191 536.807,363.354 540,350C543.727,354.6 546.285,362.788 548.603,371.713L524.705,378.717L525.549,381.596L526.548,381.303C522.423,387.161 520,394.3 520,402C520,421.869 536.131,438 556,438C557.385,438 558.752,437.922 560.094,437.769C562.565,458.309 561.713,478.82 557.316,499.299C540.912,510.599 522.365,516.654 500,516.786L500,470C517.185,470.079 533.914,468.757 550,466.5C550.685,465.664 550.644,465.008 550,464.5C533.449,466.991 516.769,468.133 500,468L499.214,468.005ZM564.007,437.105C580.028,433.46 592,419.117 592,402C592,387.929 583.91,375.733 572.13,369.813C572.402,369.121 572.662,368.421 572.912,367.713L584.36,364.358C586.899,372.738 589.39,381.772 592.121,390C594.282,384.288 596.16,376.032 596.559,370C605.613,417.24 595.147,458.835 569.567,489.558C566.351,492.469 563.061,495.16 559.682,497.622C563.924,477.536 565.43,457.366 564.007,437.105ZM435.993,437.105C419.972,433.46 408,419.117 408,402C408,387.929 416.09,375.733 427.87,369.813C427.598,369.121 427.338,368.421 427.088,367.713L415.64,364.358C413.101,372.738 410.61,381.772 407.879,390C405.718,384.288 403.84,376.032 403.441,370C394.387,417.24 404.853,458.835 430.433,489.558C433.649,492.469 436.939,495.16 440.318,497.622C436.076,477.536 434.57,457.366 435.993,437.105ZM604.586,453.566C610.007,434.56 612.885,414.638 611,393C618.617,393.976 622.747,397.458 624.009,403C626.399,413.486 626.5,442.724 604.586,453.566ZM395.414,453.566C389.993,434.56 387.115,414.638 389,393C381.383,393.976 377.253,397.458 375.991,403C373.601,413.486 373.5,442.724 395.414,453.566ZM494.91,432L495,441L491,436L494.91,432ZM444.023,372.664L464.351,378.623C470.874,384.307 475,392.676 475,402C475,419.109 461.109,433 444,433C426.891,433 413,419.109 413,402C413,392.687 417.115,384.328 423.627,378.642L426.193,377.89C419.796,383.384 417.394,391.144 420.871,395.712C422.308,397.599 424.537,398.664 427.152,398.932C428.152,392.185 433.976,387 441,387C442.934,387 444.777,387.393 446.454,388.104C449.118,383.66 449.557,378.913 447.129,375.723C446.116,374.392 444.709,373.471 443.051,372.949L444.023,372.664ZM570.092,374.385C580.126,379.521 587,389.964 587,402C587,419.109 573.109,433 556,433C538.891,433 525,419.109 525,402C525,392.687 529.115,384.328 535.627,378.642L538.193,377.89C531.796,383.384 529.394,391.144 532.871,395.712C534.308,397.599 536.537,398.664 539.152,398.932C540.152,392.185 545.976,387 553,387C554.934,387 556.777,387.393 558.454,388.104C561.118,383.66 561.557,378.913 559.129,375.723C558.116,374.392 556.709,373.471 555.051,372.949L560.561,371.334C563.855,371.82 566.982,372.826 569.856,374.266L570.092,374.385ZM442,388C449.727,388 456,394.273 456,402C456,409.727 449.727,416 442,416C434.273,416 428,409.727 428,402C428,394.273 434.273,388 442,388ZM554,388C561.727,388 568,394.273 568,402C568,409.727 561.727,416 554,416C546.273,416 540,409.727 540,402C540,394.273 546.273,388 554,388ZM552.468,370.58C554.611,364.194 556.174,357.035 555.777,347.265C559.244,352.562 562.71,359.385 566.175,366.562L552.468,370.58ZM447.532,370.58C445.389,364.194 443.826,357.035 444.223,347.265C440.756,352.562 437.29,359.385 433.825,366.562L447.532,370.58ZM574.029,364.26C575.777,358.353 576.872,352.031 577.715,345.549C579.752,350.071 581.638,355.567 583.48,361.49L574.029,364.26ZM425.971,364.26C424.223,358.353 423.128,352.031 422.285,345.549C420.248,350.071 418.362,355.567 416.52,361.49L425.971,364.26Z" style="fill:white;"/>
    </g>
</svg>
