<?xml version="1.0" encoding="UTF-8" standalone="no"?>
<!DOCTYPE svg PUBLIC "-//W3C//DTD SVG 1.1//EN" "http://www.w3.org/Graphics/SVG/1.1/DTD/svg11.dtd">
<svg width="100%" height="100%" viewBox="0 0 1000 1000" version="1.1" xmlns="http://www.w3.org/2000/svg" xmlns:xlink="http://www.w3.org/1999/xlink" xml:space="preserve" xmlns:serif="http://www.serif.com/" style="fill-rule:evenodd;clip-rule:evenodd;stroke-linejoin:round;stroke-miterlimit:2;">
    <g transform="matrix(3.66584,0,0,3.66584,-632.744,-1503.17)">
        <path d="M308.807,571.828C304.77,568.194 302.386,562.505 308,531C306.235,526.776 304.821,523.078 306,520C301.977,522.625 298.274,524.39 295,525C297.759,524.879 300.444,525.122 303,526C302.688,553.942 296.718,580.822 287,607C280.758,620.187 274.703,626.053 269,618C265.685,615.576 263.039,616.681 261,621C258.308,631.956 258.667,641.676 260,651C259.695,652.369 259.367,653.608 259,654.715C256.145,663.338 251.26,663.746 246,658.263C244.93,657.147 244.001,655.652 243,654C240.745,637.41 243.085,622.793 252,611C254.521,608.275 255.519,605.897 250,605C240.2,602.458 236.973,597.639 239,591C225.677,586.069 220.77,578.478 225,568C215.154,561.722 216.633,551.886 231,538C222.749,535.034 214.418,531.643 210,524.631C200.913,510.21 195.34,494.568 195,475C193.832,463.627 191.589,454.137 188,447C184.38,438.761 186.039,432.962 196,431C232.983,434.523 268.781,454.187 302,509C303.037,505.308 304.886,502.677 309,503L309.191,502.987C313.171,502.759 314.979,505.366 316,509C349.219,454.187 385.017,434.523 422,431C431.961,432.962 433.62,438.761 430,447C426.411,454.137 424.168,463.627 423,475C422.66,494.568 417.087,510.21 408,524.631C403.582,531.643 395.251,535.034 387,538C401.367,551.886 402.846,561.722 393,568C397.23,578.478 392.323,586.069 379,591C381.027,597.639 377.8,602.458 368,605C362.481,605.897 363.479,608.275 366,611C374.915,622.793 377.255,637.41 375,654C373.999,655.652 373.07,657.147 372,658.263C366.74,663.746 361.855,663.338 359,654.715C358.633,653.608 358.305,652.369 358,651C359.333,641.676 359.692,631.956 357,621C354.961,616.681 352.315,615.576 349,618C343.297,626.053 337.242,620.187 331,607C321.282,580.822 315.312,553.942 315,526C317.556,525.122 320.241,524.879 323,525C319.726,524.39 316.023,522.625 312,520C313.179,523.078 311.765,526.776 310,531C315.703,563.005 313.152,568.368 309,572L308.807,571.828ZM249,634.5C249.382,640.234 251.389,644.407 254,648C255.674,651.774 252.997,653.775 252,654.146C250.887,654.56 248.386,653.945 247.5,649.5C246.582,644.896 245.795,640.256 249,634.5ZM369,634.5C368.618,640.234 366.611,644.407 364,648C362.326,651.774 365.003,653.775 366,654.146C367.113,654.56 369.614,653.945 370.5,649.5C371.418,644.896 372.205,640.256 369,634.5ZM271,613.5C273.202,613.898 274.247,614.31 274.657,614.728C275.066,615.147 274.84,615.573 274.5,616C270.851,615.167 269.524,614.333 271,613.5ZM347,613.5C344.798,613.898 343.753,614.31 343.343,614.728C342.934,615.147 343.16,615.573 343.5,616C347.149,615.167 348.476,614.333 347,613.5ZM294.5,549C291.433,567.36 287.728,585.589 280,603C274.203,611.982 272.028,610.365 272.5,601C278.416,583.339 286.281,566.129 294.5,549ZM323.5,549C326.567,567.36 330.272,585.589 338,603C343.797,611.982 345.972,610.365 345.5,601C339.584,583.339 331.719,566.129 323.5,549ZM351,600C354.671,600.612 357.401,602.534 358.089,603.842C358.778,605.15 357.425,605.844 352.931,604C351.576,603.444 351.144,601.495 351,600ZM267,600C263.329,600.612 260.599,602.534 259.911,603.842C259.222,605.15 260.575,605.844 265.069,604C266.424,603.444 266.856,601.495 267,600ZM242.5,590.5C243.78,591.387 244.928,592.328 245.932,593.326C246.936,594.325 247.796,595.381 248.5,596.5C244.41,596.765 242.794,594.349 242.5,590.5ZM375.5,590.5C374.22,591.387 373.072,592.328 372.068,593.326C371.064,594.325 370.204,595.381 369.5,596.5C373.59,596.765 375.206,594.349 375.5,590.5ZM278,571.5C275.107,579.296 272.03,587.015 266,593.5C260,596.86 256.9,596.114 259,588C267.178,583.501 272.592,577.502 278,571.5ZM340,571.5C342.893,579.296 345.97,587.015 352,593.5C358,596.86 361.1,596.114 359,588C350.822,583.501 345.408,577.502 340,571.5ZM326,538.5C331.962,558.011 342.988,573.899 363.5,583C371.317,584.909 374.5,582.765 375,580.096C375.373,578.107 374.089,575.779 369.5,572.5C350.167,563.048 336.838,551.259 326,538.5ZM292,538.5C286.038,558.011 275.012,573.899 254.5,583C246.683,584.909 243.5,582.765 243,580.096C242.627,578.107 243.911,575.779 248.5,572.5C267.833,563.048 281.162,551.259 292,538.5ZM389.5,574C388.875,575.372 388.133,576.676 387.294,577.922C386.455,579.168 385.517,580.357 384.5,581.5C387.747,580.279 389.837,578.122 389.5,574ZM228.5,574C229.125,575.372 229.867,576.676 230.706,577.922C231.545,579.168 232.483,580.357 233.5,581.5C230.253,580.279 228.163,578.122 228.5,574ZM338.5,543C345.674,551.642 353.864,560.289 374,569C387.335,566.008 388.515,560.902 376.5,553.5C358.633,551.204 348.361,547.15 338.5,543ZM279.5,543C272.326,551.642 264.136,560.289 244,569C230.665,566.008 229.485,560.902 241.5,553.5C259.367,551.204 269.639,547.15 279.5,543ZM390,547C391.027,549.093 391.909,551.224 392.656,553.392C393.403,555.559 394.015,557.763 394.5,560C396.427,555.199 395.384,550.803 390,547ZM228,547C226.973,549.093 226.091,551.224 225.344,553.392C224.597,555.559 223.985,557.763 223.5,560C221.573,555.199 222.616,550.803 228,547ZM329.5,530C338.651,536.684 347.609,541.022 356.425,543.645C365.241,546.268 373.915,547.176 382.5,547C368.171,536.37 350.881,530.143 329.5,530ZM288.5,530C279.349,536.684 270.391,541.022 261.575,543.645C252.759,546.268 244.085,547.176 235.5,547C249.829,536.37 267.119,530.143 288.5,530ZM400.337,522C397.952,523.984 395.123,524.858 392,525C385.975,526.136 387.532,527.101 392,528C396.65,527.517 399.487,526.466 401,525C403.579,521.719 402.736,521.226 400.337,522ZM217.663,522C220.048,523.984 222.877,524.858 226,525C232.025,526.136 230.468,527.101 226,528C221.35,527.517 218.513,526.466 217,525C214.421,521.719 215.264,521.226 217.663,522ZM371.5,525C358.859,525.908 343.709,524.425 326,520.5C321.068,518.519 320.547,516.794 327.5,515.5C346.416,515.631 360.873,518.948 371.5,525ZM246.5,525C259.141,525.908 274.291,524.425 292,520.5C296.932,518.519 297.453,516.794 290.5,515.5C271.584,515.631 257.127,518.948 246.5,525ZM324,509C341.337,497.706 361.777,499.617 385,510.5C389.205,516.948 387.139,519.331 378.5,519.5C362.486,512.706 344.315,509.213 324,509ZM294,509C276.663,497.706 256.223,499.617 233,510.5C228.795,516.948 230.861,519.331 239.5,519.5C255.514,512.706 273.685,509.213 294,509ZM303,511C304.33,511.474 305.181,512.059 305.65,512.733C306.118,513.407 306.203,514.17 306,515C303.595,514.683 302.331,513.541 303,511ZM315,511C313.67,511.474 312.819,512.059 312.35,512.733C311.882,513.407 311.797,514.17 312,515C314.405,514.683 315.669,513.541 315,511ZM224,506C220.635,505.469 217.29,505.271 214,506C210.008,508.6 210.603,510.21 215,511C219.547,510.02 221.951,508.089 224,506ZM394,506C397.365,505.469 400.71,505.271 404,506C407.992,508.6 407.397,510.21 403,511C398.453,510.02 396.049,508.089 394,506ZM346,496C362.962,491.391 379.118,487.582 390,489C397.309,491.625 397.196,495.307 390,500C378.273,501.326 362.707,499.179 346,496ZM272,496C255.038,491.391 238.882,487.582 228,489C220.691,491.625 220.804,495.307 228,500C239.727,501.326 255.293,499.179 272,496ZM311,497C311.89,494.231 312.24,491.5 313.496,488C315.046,483.679 317.975,478.186 325,470C331.424,467.382 333.986,469.221 334,474C333.848,476.831 332.949,478.009 332,479.011C329.981,481.142 326.981,482.504 326.256,480.5C325.916,479.561 326.131,477.813 327,475C327.112,475.862 327.307,477.919 328,477.5C332.706,474.652 329.552,471.325 326,474.139C322.487,476.922 315.7,486.318 311,497ZM307,497C306.11,494.231 305.76,491.5 304.504,488C302.954,483.679 300.025,478.186 293,470C286.576,467.382 284.014,469.221 284,474C284.152,476.831 285.051,478.009 286,479.011C288.019,481.142 291.019,482.504 291.744,480.5C292.084,479.561 291.869,477.813 291,475C290.888,475.862 290.693,477.919 290,477.5C285.294,474.652 288.448,471.325 292,474.139C295.513,476.922 302.3,486.318 307,497ZM343,490C354.401,482.335 367.628,474.415 387,470C394.964,469.305 398.575,474.254 397.913,478C397.605,479.746 395.221,481.43 390,483C376.832,484.058 361.074,487.092 343,490ZM275,490C263.599,482.335 250.372,474.415 231,470C223.036,469.305 219.425,474.254 220.087,478C220.395,479.746 222.779,481.43 228,483C241.168,484.058 256.926,487.092 275,490ZM403,484C405.995,483.292 408.662,483.292 411,484C414.651,485.533 413.904,486.846 410,488C406.394,487.404 404.329,485.915 403,484ZM215,484C212.005,483.292 209.338,483.292 207,484C203.349,485.533 204.096,486.846 208,488C211.606,487.404 213.671,485.915 215,484ZM349,475C364.389,469.341 379.252,464.161 393,460C399.532,456.282 400.794,453.09 391,451C374.751,455.315 361.141,463.953 349,475ZM269,475C253.611,469.341 238.748,464.161 225,460C218.468,456.282 217.206,453.09 227,451C243.249,455.315 256.859,463.953 269,475ZM411,459C415.506,459.178 417.176,459.978 416.885,461.209C416.594,462.439 414.341,464.1 411,466C403.19,463.761 403.663,461.422 411,459ZM207,459C202.494,459.178 200.824,459.978 201.115,461.209C201.406,462.439 203.659,464.1 207,466C214.81,463.761 214.337,461.422 207,459ZM407,447C410.882,447.218 414.82,447.172 419,446C425.142,440.922 424.475,438.589 417,439C413.956,442.16 410.559,444.717 407,447ZM211,447C207.118,447.218 203.18,447.172 199,446C192.858,440.922 193.525,438.589 201,439C204.044,442.16 207.441,444.717 211,447Z" style="fill:white;"/>
    </g>
</svg>
