<?xml version="1.0" encoding="UTF-8" standalone="no"?>
<!DOCTYPE svg PUBLIC "-//W3C//DTD SVG 1.1//EN" "http://www.w3.org/Graphics/SVG/1.1/DTD/svg11.dtd">
<svg width="100%" height="100%" viewBox="0 0 1000 1000" version="1.1" xmlns="http://www.w3.org/2000/svg" xmlns:xlink="http://www.w3.org/1999/xlink" xml:space="preserve" xmlns:serif="http://www.serif.com/" style="fill-rule:evenodd;clip-rule:evenodd;stroke-linejoin:round;stroke-miterlimit:2;">
    <g transform="matrix(2.44259,0,0,2.44259,-776.98,-745.619)">
        <path d="M620,427.231L640.545,490.461L707.028,490.461L653.242,529.539L673.786,592.769L620,553.691L566.214,592.769L586.758,529.539L532.972,490.461L599.455,490.461L620,427.231ZM425.595,427.148L446.14,490.378L512.623,490.378L458.837,529.456L479.382,592.686L425.595,553.608L371.809,592.686L392.353,529.456L338.567,490.378L405.05,490.378L425.595,427.148ZM620,460.083L633.227,500.791L676.03,500.791L641.401,525.95L654.628,566.658L620,541.499L585.372,566.658L598.599,525.95L563.97,500.791L606.773,500.791L620,460.083ZM425.595,460L438.822,500.708L481.625,500.708L446.997,525.867L460.223,566.575L425.595,541.416L390.967,566.575L404.194,525.867L369.565,500.708L412.368,500.708L425.595,460ZM620,490.083L626.471,510L647.413,510L630.471,522.309L636.942,542.226L620,529.916L603.058,542.226L609.529,522.309L592.587,510L613.529,510L620,490.083ZM425.595,490L432.066,509.917L453.008,509.917L436.066,522.226L442.537,542.143L425.595,529.833L408.653,542.143L415.124,522.226L398.182,509.917L419.124,509.917L425.595,490Z" style="fill:white;"/>
    </g>
</svg>
