<?xml version="1.0" encoding="UTF-8" standalone="no"?>
<!DOCTYPE svg PUBLIC "-//W3C//DTD SVG 1.1//EN" "http://www.w3.org/Graphics/SVG/1.1/DTD/svg11.dtd">
<svg width="100%" height="100%" viewBox="0 0 1000 1000" version="1.1" xmlns="http://www.w3.org/2000/svg" xmlns:xlink="http://www.w3.org/1999/xlink" xml:space="preserve" xmlns:serif="http://www.serif.com/" style="fill-rule:evenodd;clip-rule:evenodd;stroke-linejoin:round;stroke-miterlimit:2;">
    <g transform="matrix(10.7274,0,0,10.7274,-4866.54,-4571.92)">
        <path d="M523.109,507.016C520.949,506.586 519.481,505.299 518.941,502.863L513.891,500.81C508.106,503.796 507.444,501.636 509.453,497.618L463.596,463.533C463.536,463.488 463.478,463.441 463.422,463.392C459.27,459.737 460.616,454.484 464.027,452.177C466.258,450.668 469.428,450.292 472.558,452.675L517.338,486.945C517.863,486.381 518.399,485.826 518.941,485.283L519.705,485.761C525.259,479.44 526.256,478.842 520.746,486.415L521.811,487.083C528.815,478.686 531.156,484.525 529.052,491.652C530.678,494.085 531.622,496.517 531.573,498.949C531.975,499.534 532.333,500.161 532.653,500.825C535.79,503.562 537.605,505.417 538.565,506.742C539.5,508.034 539.734,508.998 539.68,509.747C539.635,510.378 539.397,510.918 539.008,511.419C538.644,511.887 538.106,512.322 537.556,512.852C537.299,513.099 537.056,513.442 536.743,513.741C536.24,514.221 535.615,514.612 534.746,514.722C533.911,514.827 532.766,514.66 531.16,513.762C529.367,512.76 526.814,510.748 523.109,507.016ZM499.22,491.565L491.076,497.618C493.085,501.636 492.423,503.796 486.639,500.81L481.588,502.863C481.048,505.299 479.58,506.586 477.42,507.016C473.715,510.748 471.162,512.76 469.369,513.762C467.764,514.66 466.618,514.827 465.783,514.722C464.915,514.612 464.289,514.221 463.786,513.741C463.473,513.442 463.231,513.099 462.974,512.852C462.423,512.322 461.886,511.887 461.522,511.419C461.132,510.918 460.894,510.378 460.849,509.747C460.795,508.998 461.029,508.034 461.965,506.742C462.924,505.417 464.739,503.562 467.876,500.825C468.196,500.161 468.555,499.534 468.956,498.949C468.907,496.517 469.851,494.085 471.478,491.652C469.373,484.525 471.714,478.686 478.718,487.083L479.783,486.415C474.273,478.842 475.27,479.44 480.825,485.761L481.588,485.283C482.131,485.826 482.666,486.381 483.191,486.945L488.026,483.245L488.863,483.866L483.871,487.687C484.13,487.974 484.387,488.262 484.639,488.551L489.826,484.582L497.413,490.222L490.015,495.721C490.225,496.063 490.42,496.398 490.602,496.723L498.38,490.941L499.22,491.565ZM529.851,501.894C527.933,501.484 526.666,502.742 526.331,506.394C528.982,508.966 530.907,510.488 532.342,511.319C532.943,511.667 533.436,511.881 533.853,511.982C534.198,512.066 534.446,512.065 534.635,511.963C535.122,511.701 535.369,511.197 535.678,510.9C536.007,510.583 536.335,510.309 536.613,510.036C536.777,509.876 536.964,509.762 536.979,509.554C537.002,509.235 536.769,508.881 536.371,508.33C535.406,506.997 533.491,505.112 530.126,502.219C530.015,502.123 529.923,502.013 529.851,501.894ZM470.678,501.894C472.596,501.484 473.864,502.742 474.198,506.394C471.547,508.966 469.623,510.488 468.187,511.319C467.586,511.667 467.093,511.881 466.676,511.982C466.331,512.066 466.084,512.065 465.894,511.963C465.408,511.701 465.16,511.197 464.851,510.9C464.522,510.583 464.195,510.309 463.916,510.036C463.753,509.876 463.565,509.762 463.55,509.554C463.528,509.235 463.76,508.881 464.159,508.33C465.123,506.997 467.038,505.112 470.403,502.219C470.514,502.123 470.606,502.013 470.678,501.894ZM516.658,487.687L471.951,453.472C469.248,451.415 466.514,451.704 464.588,453.007C461.658,454.989 460.517,459.501 464.084,462.64C464.119,462.671 464.156,462.701 464.194,462.729L509.927,496.723C510.109,496.398 510.305,496.063 510.514,495.721L464.882,461.803C464.87,461.794 464.857,461.784 464.846,461.774C461.954,459.229 462.859,455.569 465.235,453.962C466.809,452.897 469.043,452.708 471.253,454.39L515.89,488.551C516.143,488.262 516.399,487.974 516.658,487.687ZM527.317,490.538C528.068,488.353 527.71,485.159 527.247,484.913C526.673,484.609 525.017,485.776 523.403,488.082L527.317,490.538ZM473.212,490.538C472.461,488.353 472.819,485.159 473.282,484.913C473.856,484.609 475.512,485.776 477.127,488.082L473.212,490.538ZM501.29,473.094L527.971,452.675C531.102,450.292 534.272,450.668 536.502,452.177C539.914,454.484 541.26,459.737 537.108,463.392C537.051,463.441 536.993,463.488 536.933,463.533L512.514,481.684L511.686,481.051L536.335,462.729C536.373,462.701 536.41,462.671 536.446,462.64C540.012,459.501 538.871,454.989 535.941,453.007C534.015,451.704 531.281,451.415 528.578,453.472L502.114,473.725L501.29,473.094ZM503.063,474.451L529.276,454.39C531.487,452.708 533.72,452.897 535.294,453.962C537.67,455.569 538.575,459.229 535.683,461.774C535.672,461.784 535.66,461.794 535.647,461.803L510.733,480.322L503.063,474.451ZM499.916,465.735C498.154,466.016 496.57,465.799 495.711,463.558C495.006,461.946 494.181,461.002 493.65,460.017C492.543,457.964 492.836,456.706 492.944,454.95C493.464,455.2 494.037,455.135 494.336,456.591C494.555,457.654 494.531,459.198 495.482,460.683C496.53,463.35 498.356,461.265 500,461.265L500.039,461.265C501.673,461.297 503.478,463.329 504.518,460.683C505.469,459.198 505.445,457.654 505.664,456.591C505.963,455.135 506.536,455.2 507.056,454.95C507.164,456.706 507.457,457.964 506.35,460.017C505.819,461.002 504.994,461.946 504.289,463.558C503.416,465.834 501.795,466.022 500,465.722L499.916,465.735ZM499.946,460.052C497.668,460.042 496.502,459.351 496.347,456.737C496.293,455.834 495.663,452.95 494.093,453.554C489.214,455.43 486.245,452.077 487.956,449.123C487.343,447.066 487.041,445.001 487.711,442.912C484.369,443.294 485.282,430.852 500,430.852L500.086,430.852C514.721,430.902 515.624,443.293 512.289,442.912C512.959,445.001 512.657,447.066 512.044,449.123C513.755,452.077 510.786,455.43 505.907,453.554C504.337,452.95 503.707,455.834 503.653,456.737C503.497,459.372 502.314,460.052 500,460.052L499.946,460.052ZM500,450.718L499.972,450.764C497.641,454.665 498.598,455.521 500,453.305L500.033,453.357C501.416,455.507 502.341,454.635 500.028,450.764L500,450.718ZM501.989,447.925L507.173,447.61C506.756,446.55 507.085,446.569 507.556,446.528C511.269,446.205 511.498,449.999 509.686,451.29C508.496,452.137 502.389,452.585 501.989,447.925ZM498.011,447.925L492.827,447.61C493.244,446.55 492.915,446.569 492.444,446.528C488.731,446.205 488.502,449.999 490.314,451.29C491.504,452.137 497.611,452.585 498.011,447.925ZM499.955,439.207C499.727,438.999 499.48,438.811 499.215,438.653C499.036,438.546 498.848,438.453 498.654,438.378C498.353,438.262 498.033,438.187 497.71,438.186L497.703,438.186C496.055,438.19 495.516,440.242 500,443.575L500.104,443.497C504.476,440.211 503.932,438.19 502.297,438.186L502.29,438.186C501.967,438.187 501.647,438.262 501.346,438.378C501.152,438.453 500.964,438.546 500.785,438.653C500.502,438.821 500.24,439.024 500,439.249L499.955,439.207Z" style="fill:white;"/>
    </g>
</svg>
