<?xml version="1.0" encoding="UTF-8" standalone="no"?>
<!DOCTYPE svg PUBLIC "-//W3C//DTD SVG 1.1//EN" "http://www.w3.org/Graphics/SVG/1.1/DTD/svg11.dtd">
<svg width="100%" height="100%" viewBox="0 0 1000 1000" version="1.1" xmlns="http://www.w3.org/2000/svg" xmlns:xlink="http://www.w3.org/1999/xlink" xml:space="preserve" xmlns:serif="http://www.serif.com/" style="fill-rule:evenodd;clip-rule:evenodd;stroke-linejoin:round;stroke-miterlimit:2;">
    <g transform="matrix(2.53433,0,0,2.53433,-750.846,-564.272)">
        <path d="M512,468C512.505,473.605 514.057,478.925 516.505,484C520.023,482.016 523.3,479.793 526,477C525.785,481.537 526.74,485.804 528,490C519.442,519.81 508.031,529.511 496,533.434C478.467,539.152 465.652,506.614 470,485C470,485 477.132,479.872 478,475.5C479.327,477.105 480.671,480.13 483.5,481.5C486.309,477.669 488.094,473.624 489.5,469.5L500,472.5L509,466.5C509.886,467.178 510.865,467.712 512,468ZM325.35,419.274C319.452,408.829 319.803,400.226 335,396C358.442,334.289 384.864,318.321 414,344C422.968,326.603 436.876,314.991 459,313C468.996,306.047 481.863,303.755 498.598,307.741C498.793,309.33 499.108,310.961 499.563,311.872C499.62,311.985 499.576,312.131 499.567,312.282C499.55,312.547 499.513,312.824 499.481,313.098C499.402,313.789 499.379,314.467 499.521,315.031C500.298,318.12 500.216,322.468 499.899,326.022C499.59,325.887 499.284,325.744 498.981,325.591C498.684,325.442 496.499,324.787 496.005,324.639C495.818,324.451 495.582,324.313 495.317,324.244C494.964,323.831 494.66,323.281 494.291,322.803C493.844,322.226 493.328,321.729 492.711,321.413C491.975,321.036 491.07,321.327 490.692,322.064C490.315,322.801 490.607,323.706 491.343,324.083C491.768,324.301 492.023,324.769 492.307,325.184C492.647,325.682 492.983,326.166 493.351,326.534C494.515,327.698 495.403,329.471 496.343,331.256C497.141,332.769 497.967,334.293 498.932,335.579C498.757,337.012 498.533,338.413 498.208,339.721C497.44,342.812 495.865,346.159 495.46,349.412C494.732,355.27 493.676,361.158 492.24,366.947C491.19,364.482 489.468,362.425 488.691,359.929C488.395,358.978 487.538,358.038 486.693,357.144C486.462,356.901 486.238,356.659 486.054,356.413C485.941,356.262 485.805,356.137 485.805,355.978C485.805,355.15 485.133,354.478 484.305,354.478C483.477,354.478 482.805,355.15 482.805,355.978C482.805,356.913 483.306,357.854 484.082,358.736C484.461,359.167 484.902,359.595 485.284,360.03C485.516,360.294 485.74,360.543 485.827,360.821C486.658,363.492 488.518,365.686 489.579,368.362C489.987,369.391 490.437,370.464 490.933,371.531C490.132,373.6 488.988,375.535 488.24,377.431C487.74,378.698 487.503,380.05 487.249,381.378C486.446,380.218 485.547,379.071 484.942,378.148C484.741,377.842 484.486,377.568 484.217,377.31C484.081,377.179 483.856,376.946 483.776,376.862C483.714,376.092 483.068,375.485 482.281,375.485C481.454,375.485 480.781,376.157 480.781,376.985C480.781,377.712 481.056,378.301 481.497,378.823C481.776,379.152 482.187,379.418 482.433,379.793C483.452,381.347 485.498,383.563 486.029,385.268C486.039,385.302 486.051,385.337 486.065,385.373C485.082,387.326 483.445,389.32 482.566,391.548C482.253,392.343 481.99,393.445 481.666,394.492C481.434,395.243 481.211,395.98 480.801,396.39C479.105,398.086 477.245,400.545 475.643,403.027C474.761,401.354 473.937,399.697 473.421,398.04C473.231,397.429 472.903,396.85 472.564,396.267C472.272,395.768 471.925,395.276 471.925,394.652C471.925,393.824 471.252,393.152 470.425,393.152C469.597,393.152 468.925,393.824 468.925,394.652C468.925,395.675 469.285,396.559 469.749,397.39C470.039,397.91 470.389,398.394 470.557,398.932C471.281,401.259 472.629,403.582 473.88,405.954C473.531,406.579 473.211,407.186 472.927,407.762C472.073,409.497 470.71,410.877 469.232,412.194C468.549,411.099 467.8,409.996 466.883,409.128C466.282,408.559 465.332,408.585 464.762,409.186C464.193,409.787 464.219,410.737 464.82,411.306C465.627,412.071 466.252,413.076 466.845,414.038L466.935,414.183C465.631,415.311 464.353,416.472 463.278,417.791C463.246,417.83 463.217,417.87 463.189,417.911C459.565,414.261 454.545,412 449,412C437.962,412 429,420.962 429,432C429,434.303 429.39,436.515 430.107,438.574C429.829,438.706 429.598,438.921 429.446,439.187C428.333,439.748 425.726,440.176 425.028,440.176C422.591,440.176 420.44,439.978 418.398,439.565C418.272,439.093 418.193,438.674 418.193,438.164C418.193,438.027 418.199,437.357 418.173,437.022C418.152,436.734 418.088,436.524 418.049,436.427C417.804,435.805 417.35,435.606 417.062,435.523C416.609,435.391 416.084,435.404 415.583,435.897C415.188,436.286 415.054,436.84 415.183,437.342L415.193,438.164C415.193,438.357 415.2,438.542 415.213,438.722C413.549,438.177 411.897,437.473 410.15,436.6C409.409,436.229 408.508,436.53 408.137,437.27C407.767,438.011 408.068,438.913 408.808,439.283C411.304,440.531 413.623,441.46 416.024,442.097C416.463,443.527 416.935,445.141 416.935,446.334C416.935,447.162 417.607,447.834 418.435,447.834C419.263,447.834 419.935,447.162 419.935,446.334C419.935,445.323 419.66,444.042 419.322,442.78C421.096,443.047 422.968,443.176 425.028,443.176C425.976,443.176 429.574,442.543 430.976,441.771C431.133,441.685 431.273,441.592 431.397,441.495C434.779,447.748 441.397,452 449,452C460.038,452 469,443.038 469,432C469,427.544 467.539,423.426 465.071,420.1C465.271,420.007 465.454,419.869 465.603,419.687C466.498,418.589 467.548,417.616 468.631,416.675C468.747,416.813 468.865,416.944 468.984,417.066C469.058,417.191 469.778,418.4 470.091,418.78C470.584,419.377 471.164,419.499 471.468,419.499C472.296,419.499 472.968,418.827 472.968,417.999C472.968,417.503 472.727,417.063 472.355,416.79C472.15,416.458 471.375,415.216 471.159,415C471.072,414.913 470.986,414.82 470.903,414.721C472.73,413.113 474.408,411.418 475.5,409.321C475.849,410.167 476.146,411.022 476.361,411.888C476.68,413.176 477.654,416 478.632,417.999C479.121,418.999 479.636,419.805 480.065,420.234C480.65,420.82 481.601,420.82 482.186,420.234C482.772,419.649 482.772,418.699 482.186,418.113C481.916,417.843 481.634,417.31 481.327,416.68C480.444,414.877 479.561,412.33 479.273,411.167C478.846,409.44 478.097,407.757 477.259,406.1C478.912,403.341 481.024,400.41 482.922,398.512C483.498,397.936 483.963,397.044 484.319,396.027C484.722,394.878 485.001,393.552 485.357,392.648C486.004,391.009 487.083,389.506 487.984,388.049C488.199,388.168 488.446,388.236 488.709,388.236C489.537,388.236 490.209,387.564 490.209,386.736C490.209,386.335 490.052,385.831 489.692,385.332C489.625,385.239 489.532,385.119 489.433,384.994C490.059,382.922 490.208,380.618 491.031,378.531C491.499,377.345 492.11,376.142 492.702,374.903C493.11,375.582 493.54,376.231 493.993,376.836C494.928,378.082 495.861,379.639 496.44,381.101C496.55,381.379 497.091,382.655 497.313,382.913C497.73,383.398 498.206,383.468 498.498,383.468C499.326,383.468 499.998,382.796 499.998,381.968C499.998,381.603 499.867,381.269 499.65,381.009C499.556,380.783 499.28,380.125 499.229,379.995C498.556,378.297 497.479,376.483 496.393,375.036C495.567,373.934 494.83,372.666 494.172,371.352C494.235,371.152 494.295,370.951 494.35,370.748C496.23,363.86 497.565,356.8 498.437,349.782C498.827,346.644 500.379,343.425 501.119,340.444C501.275,339.816 501.409,339.167 501.527,338.504C502.292,339.367 503.072,340.264 503.226,340.44C503.391,341.088 503.98,341.568 504.679,341.568C505.507,341.568 506.179,340.896 506.179,340.068C506.179,339.77 506.044,339.221 505.62,338.603C504.839,337.462 502.828,335.417 502.168,334.757C502.128,334.717 502.087,334.675 502.047,334.634C502.205,333.126 502.33,331.607 502.475,330.143C502.734,330.225 502.994,330.307 503.254,330.388C504.311,330.719 505.162,331.245 506.04,331.678C507.181,332.241 508.358,332.674 509.852,332.674C510.68,332.674 511.352,332.002 511.352,331.174C511.352,330.347 510.68,329.674 509.852,329.674C508.64,329.674 507.754,329.194 506.828,328.713C505.999,328.283 505.149,327.838 504.15,327.525C503.702,327.385 503.254,327.245 502.808,327.1C503.209,323.104 503.339,317.909 502.43,314.298C502.311,313.827 502.5,313.216 502.548,312.647C502.614,311.857 502.541,311.118 502.247,310.53C502.008,310.053 501.828,309.336 501.694,308.538C502.932,308.88 504.192,309.256 505.473,309.665C531.934,306.177 552.207,313.6 565.881,332.659C578.595,336.421 585.582,342.202 586.841,350C617.546,332.215 636.696,349.661 650,384.929C675.873,405.351 677.584,421.197 657.298,432.878C659.198,473.616 648.554,498.214 629,505.916C617.021,510.635 610.413,513.628 600,500C592.662,508.448 587.311,505.777 584.303,490C582.049,487.917 580.588,485.313 580,482.137C586.357,464.878 592.293,447.597 592,430C589.952,447.946 584.346,465.059 578,482C568.417,502.956 551.316,512.131 527,510C525.089,510.694 523.183,511.319 521.284,511.878C523.594,507.035 525.658,502.135 527.317,497.138C533.679,494.118 540.074,490.222 546.5,485.5C548.096,485.836 549.352,486.6 550.5,487.5C549.669,485.842 548.916,484.176 546.836,482.655C545.435,481.533 543.941,480.515 542,480C538.859,484.218 534.474,488.12 530,492C528.503,485.74 527.404,479.421 527,473C524.709,476.042 521.211,479.035 517,482C515.412,477 514.245,472 514,467C507.607,463.907 502.533,460.271 499,456C495.415,459.856 490.853,463.029 486,466C486.149,470.298 485.415,474.624 483,479C480.944,476.293 479.271,473.625 478,471C476.382,475.216 474.329,479.301 471,483C469.053,480.333 467.752,477.667 467,475L462,477C463.151,482.397 463.41,488.088 463,494C458.469,491.105 453.955,488.244 449.5,485.5C455.544,490.663 461.63,494.744 467.752,497.79C468.298,503.032 468.719,508.356 470.414,512.992C466.594,512.158 462.791,511.152 459,510C433.721,509.306 410.792,503.885 405,464C405.065,461.348 405.219,458.715 405.437,456.096C405.757,454.765 405.928,450.313 405.991,450.739L405.961,450.784C406.521,445.83 407.255,440.914 408,436C406.559,441.648 405.169,447.456 403.83,453.433C403.196,454.117 402.506,454.808 401.756,455.565C401.269,456.057 400.741,456.499 400.181,456.9C400.284,453.086 400.382,449.267 400.382,445.421C400.382,444.593 399.71,443.921 398.882,443.921C398.054,443.921 397.382,444.593 397.382,445.421C397.382,449.837 397.253,454.218 397.135,458.596C394.832,459.603 392.303,460.234 389.947,460.831C383.227,462.534 376.547,463.795 369.618,464.668C366.254,465.092 362.912,465.015 359.669,464.499C359.714,463.652 359.744,462.806 359.744,461.961C359.744,461.134 359.072,460.461 358.244,460.461C357.416,460.461 356.744,461.134 356.744,461.961C356.744,462.606 356.727,463.252 356.698,463.898C353.943,463.22 351.279,462.226 348.755,460.956C348.772,460.795 348.788,460.635 348.804,460.475C349.168,456.859 349.963,452.873 350.959,449.403C351.603,447.157 352.527,445.082 352.527,442.641C352.527,441.813 351.855,441.141 351.027,441.141C350.199,441.141 349.527,441.813 349.527,442.641C349.527,444.789 348.642,446.599 348.075,448.576C347.106,451.954 346.319,455.801 345.906,459.369C340.987,456.353 336.731,452.25 333.56,447.4C332.406,445.637 331.791,443.71 331.011,441.907C332.912,437.864 334.461,433.707 337.346,430.354C337.886,429.727 337.815,428.779 337.187,428.239C336.56,427.699 335.612,427.77 335.072,428.397C332.692,431.163 331.173,434.448 329.649,437.781C329.592,437.708 329.533,437.641 329.472,437.579C329.067,437.174 328.968,436.472 328.824,435.778C328.588,434.637 328.385,433.464 327.972,432.638C326.581,429.857 326.747,425.842 326.821,422.41L327,422L326.834,421.741C326.84,421.411 326.843,421.088 326.843,420.773C326.843,419.948 326.175,419.277 325.35,419.274ZM324.018,429.131C324.214,430.902 324.589,432.58 325.289,433.98C325.684,434.77 325.771,435.976 326.032,437.036C326.282,438.049 326.665,438.957 327.25,439.595C327.278,439.729 327.381,440.245 327.424,440.557C327.49,441.039 327.58,441.503 327.709,441.876C327.32,442.64 326.912,443.396 326.473,444.138C325.684,445.474 325.393,447.032 324.813,448.476C324.637,448.915 324.189,449.458 323.873,449.998C323.483,450.662 323.249,451.337 323.249,451.909C323.249,452.737 323.921,453.409 324.749,453.409C325.56,453.409 326.222,452.763 326.248,451.959C326.273,451.906 326.472,451.489 326.619,451.259C326.995,450.667 327.404,450.074 327.597,449.594C328.121,448.291 328.344,446.87 329.056,445.664C329.111,445.571 329.165,445.478 329.219,445.385C329.729,446.621 330.279,447.864 331.049,449.042C334.72,454.656 339.74,459.335 345.547,462.634C345.178,465.726 344.719,468.78 344.298,471.844C344.207,472.5 344.214,473.459 344.181,474.392C344.158,475.023 344.16,475.645 343.973,476.018C343.6,476.757 343.898,477.66 344.637,478.032C345.376,478.405 346.279,478.107 346.652,477.368C346.931,476.813 347.093,475.979 347.151,475.062C347.215,474.074 347.172,472.965 347.27,472.253C347.643,469.541 348.044,466.837 348.389,464.107C350.981,465.328 353.702,466.281 356.506,466.932C356.358,468.917 356.195,470.9 356.195,472.875C356.195,473.703 356.867,474.375 357.695,474.375C358.523,474.375 359.195,473.703 359.195,472.875C359.195,471.089 359.328,469.295 359.464,467.5C362.901,468.025 366.437,468.093 369.993,467.645C377.046,466.756 383.845,465.472 390.684,463.739C392.768,463.211 394.959,462.629 397.051,461.834C396.988,464.464 396.942,467.096 396.942,469.735C396.942,470.563 397.614,471.235 398.442,471.235C399.27,471.235 399.942,470.563 399.942,469.735C399.942,466.636 400.006,463.548 400.085,460.462C400.994,459.97 401.859,459.414 402.658,458.777C401.387,464.685 400.167,470.757 399,477C391.651,499.506 378.604,505.397 361,498C353.523,503.987 347.341,503.549 344,489C314.504,487.677 309.139,466.664 324.018,429.131ZM549,417C558.934,417 567,425.066 567,435C567,444.934 558.934,453 549,453C539.066,453 531,444.934 531,435C531,425.066 539.066,417 549,417ZM513,444C513.895,446.534 502.833,452 498,452C493.167,452 482.889,446.606 484,444C486.034,439.226 511.37,439.384 513,444ZM449,418.5C456.451,418.5 462.5,424.549 462.5,432C462.5,439.451 456.451,445.5 449,445.5C441.549,445.5 435.5,439.451 435.5,432C435.5,424.549 441.549,418.5 449,418.5ZM417.636,438.084C417.429,438.269 417.182,438.387 416.926,438.437C417.049,438.415 417.177,438.377 417.305,438.312C417.414,438.258 417.523,438.185 417.631,438.088L417.677,438.046L417.636,438.084ZM416.209,438.404L416.237,438.412L416.201,438.402L416.209,438.404ZM416.138,438.382L416.172,438.392L416.133,438.38L416.138,438.382ZM498.331,328.607C498.555,329.018 498.776,329.437 498.997,329.857C499.137,330.121 499.276,330.387 499.417,330.651C499.464,330.138 499.512,329.63 499.564,329.13C499.15,328.966 498.739,328.793 498.331,328.607Z" style="fill:white;"/>
    </g>
</svg>
